<svg xmlns="http://www.w3.org/2000/svg" viewBox="0 0 233.04 250"><defs><style>.cls-1{fill:#fff;}</style></defs><g id="圖層_2" data-name="圖層 2"><g id="_0-ui_kits" data-name="0-ui_kits"><g id="logo-啤女_世界精釀啤酒" data-name="logo-啤女+世界精釀啤酒"><path class="cls-1" d="M32,207s1.07,2.81,1.61,4.62c-.24.3-.65.26-1.06,0L27.8,209l-5.3,9.5c-.16.3-2.07.16-3.4-.58l-.65-.36,1.25-2.25-4-2.25L14.6,215c-.18.32-2.06.21-3.39-.53l-.62-.35,6.26-11.22L13,200.75,4.69,215.64l13.83,7.71,3.53-1.6s1.26,3.11,1.88,5.12c-.27.28-.68.25-1.12,0L4.42,216.62l-2,1.15-2.38-4a4.87,4.87,0,0,1,1.38-.39L9.51,198.8l-4.15-2.31.2-1L10,198l4.57-8.2,4.3,3c-.29.38-.73.53-1.53.24l-3.85,6.89,3.85,2.15,4.9-8.79,4.3,2.94c-.32.36-.71.57-1.57.25L20.74,204l4,2.25,4.66-8.35,4.34,3c-.29.39-.67.57-1.56.22l-3.95,7.08.48.26Zm-7.65.08-4-2.25-4.14,7.43,4,2.25Z"/><path class="cls-1" d="M58.32,224c1.82,3.37,6.32,6.24,10.49,8.12l-.16.38c-1.54-.06-2.87.87-3.8,2.61a22.17,22.17,0,0,1-5-5.19L56.5,240.68c-.09.3-2.06.46-3.29.07l-.74-.23,4.16-13.26,2.19.94a14.32,14.32,0,0,1-1.34-4.44l-2.85-.89a16,16,0,0,1-5,2.53l2.41,1c-.15.38-.51.62-1.29.48L50,229.61c-1.26,3.69-4.18,7-14.26,5.71l-.09-.41c7.39-.21,9.63-3.27,10.65-6.53l.72-2.3a35,35,0,0,1-9.53.27l-.09-.52A22.23,22.23,0,0,0,50,221.4l-2.17-.68-.16.51c-.13.39-2,.69-3.58.2l-.55-.18,4.7-15,3.51,2.85,13.94,4.37L68,212.11l2.8,4a2.26,2.26,0,0,1-1.51.27L66,226.89c-.11.25-2.2.34-3.46,0l-.65-.21.43-1.35Zm-10.25-4.25,5.27,1.65,1.44-4.55-5.27-1.66Zm3.08-9.8-1.36,4.34L55.06,216l1.36-4.33Zm11.44,14.36L64,219.78,58.46,218,57,222.59Zm-2.48-11.55-1.36,4.34,5.56,1.74,1.36-4.33Z"/><path class="cls-1" d="M107.84,227.75s2,1.95,3.21,3.29c-.11.36-.43.5-.93.45l-17.27-1.7,0-.14c-.14.33-.49.46-1,.42l-4.38-.45-1.72,17.1c0,.34-1.55.87-2.83.74l-.71-.07,1.4-13.9a64.66,64.66,0,0,1-5.51,8l-.49-.22c1-2.89,2.6-7.5,3.75-11.2l2.47,1.16.2-1.95-4.65-.47-.18-1,4.93.49,1.26-12.54,4.64.94c-.15.46-.43.81-1.35.82l-1.11,11.13.57.06,1.91-2.09s1.67,1.73,2.74,2.93l-.13-.8,6.24.63.32-3.17L95,225.81l-.17-1,4.52.45.3-2.93-5.54-.56-.09-.42a1.47,1.47,0,0,1-1,.11,57.07,57.07,0,0,1-4.6,5.77l-.52-.29c.68-2,1.68-5.18,2.49-7.85l3.65,1.69,5.66.57.41-4.08,4.82.93c-.11.43-.38.71-1.17.76l-.28,2.77,2.13.21,2.2-2.26s2,1.9,3.18,3.25c-.14.36-.46.5-1,.45l-6.65-.67-.29,2.93,1.45.15,2-2.09s1.9,1.76,3,3c-.14.36-.49.5-1,.45l-5.56-.56-.32,3.17,3,.3Zm-26.93-9.31c6.2,5.39,2.54,10.64.25,7.69a22.07,22.07,0,0,0-.71-7.6Zm7,13c6.67,5.54,2.91,11.09.49,8.05a24.25,24.25,0,0,0-.91-8Zm17.87.16,3.4,3.13a2.53,2.53,0,0,1-1.49.54l-1,10.08c-.24,2.43-.89,3.76-4.84,3.74a4.35,4.35,0,0,0-.39-2.56,3.44,3.44,0,0,0-2.28-1.39l0-.47s2.65.43,3.25.5.67-.14.71-.58l.26-2.6-7.15-.72c-.62,2.77-2.19,5.54-6.73,7l-.27-.37c2.82-2.34,3.37-5.73,3.72-9.27l.79-7.89,4,1.94,6.14.62ZM103.54,241l.29-2.86-7-.71L96.62,239c0,.43-.08.84-.16,1.27Zm-6.38-7.41-.29,2.9,7,.7.29-2.9Z"/><path class="cls-1" d="M151.39,239c-.14.28-.44.42-1.16.29-.84.45-2.39,1-3.66,1.59a17.43,17.43,0,0,0,6.74,2v.38a3.75,3.75,0,0,0-2.25,3.42c-4.19-1.41-6.89-4.17-8.74-8.69a15.78,15.78,0,0,1-1.64,1.63l.41,4.15c1-.38,2.14-.8,3.25-1.25l.18.39c-1,.95-2.92,2.89-5.08,4.74a2.23,2.23,0,0,1-.89,1l-1.94-3.35c1.19-.69,1.33-1,1.28-1.55l-.21-2a30.78,30.78,0,0,1-4.12,2l-.13-.19.4,4c0,.27-1.28,1.09-2.29,1.19l-.44,0-.28-2.76-6.14.61.22,2.19c0,.31-.91,1.08-2.13,1.21l-.43,0-2.45-24.28,2.93,1-.49-4.92-3.38.34-.33-.92,8.94-.9,1.66-2.76s2.27,1.55,3.67,2.63c-.06.38-.38.59-.85.63l-4,.4.49,4.86,1.23-1.63,3.24,2a2.41,2.41,0,0,1-1.25.8l1.59,15.85a16.21,16.21,0,0,0,4.89-4.95l-4.49.45-.36-.92,4.11-.41-.22-2.23-2.43.25-.37-.92,2.7-.27L137,232l-3.1.31-.37-.95,3.37-.34-.23-2.33h4.19c0,.38-.21.64-.84.8l.12,1.22,2.66-.27-.2-2.06a1.16,1.16,0,0,1-.37.07l-.34,0-.49-4.89a2.19,2.19,0,0,1-1,.61l.34,3.44a3.63,3.63,0,0,1-2,.91l-.4,0-.06-.54-2.42.24,0,.37c0,.2-1.07.86-2.15,1l-.37,0-.71-7.08,2.81.88,2.09-.21,1.09-1.41,2.76,1.67-.18-1.79,2.81.88,2.16-.22,1.11-1.44,2.87,1.72a2.06,2.06,0,0,1-1.06.69l.35,3.44a3.75,3.75,0,0,1-2,.91l-.44,0-.06-.57-2.56.25c0,.14-.37.41-.92.67h3c0,.3-.19.53-.65.67l.13,1.32.65-.06,1.33-2s1.82,1.11,3,2c0,.38-.35.58-.82.63l-4,.41.21,2.09,1.24-2s1.71,1.12,2.78,2c0,.38-.31.58-.79.63l-3.13.31.22,2.23,1-.11,1.42-2.15s2,1.2,3.17,2.1c-.06.38-.38.58-.86.63l-3.13.32Zm-28.6-11.33.86,8.56a18.3,18.3,0,0,0,.18-7.37l-.13-1.29ZM130.73,245l-.94-9.41-.51.05-.68.07c-1.24.12-1.53-.36-1.64-1.47l-.69-6.88-.91.09.12,1.28c.24,2.36.47,6-1.63,8.78l-.08-.06.82,8.16Zm-3-7s1.46,1,2.39,1.8c-.06.38-.35.58-.79.63l-4.62.46-.33-1,2.32-.24Zm-2.42-11.51.91-.09-.5-4.92-.91.09Zm3.37,6.81c0,.31.15.43.32.42l.64-.07-.66-6.54-.91.09ZM140,220.43a2.2,2.2,0,0,1-.71-.31,6.8,6.8,0,0,0-2.16-3.49l.28-.24c5.79-.34,5.85,3,4.14,3.88l4.18-.42,1.59-2.48s2.18,1.39,3.54,2.37c0,.38-.35.58-.82.63l-18.28,1.84-.36-.92Zm-1.82,6.62-.3-2.9-2.42.24.29,2.9Zm2.27,6.69,2.66-.27-.21-2.09-2.66.26Zm.09.94.23,2.22,2.66-.26-.22-2.23Zm2.31,3a11.24,11.24,0,0,0,2.75,2.62,35.66,35.66,0,0,0,1.84-3.08ZM144,223.53l.29,2.94,2.57-.26-.3-2.93Z"/><path class="cls-1" d="M173.08,231.88c0,.27-1.35,1.46-2.52,1.83l-.55.17-.77-2.46-2.43.76.86,2.72c.12.39-1,1.59-2.45,2l-.52.16-6.48-20.63,3.92.4,2-.62,1.08-2.33,4.16,1.61a2.24,2.24,0,0,1-1.08,1.08Zm-4.14-1.4-4.2-13.38-2.43.76,4.21,13.39Zm7.78-4.86c.08.23-.75,1.34-2.49,1.89l-.59.18-4.56-14.52,4.27.26,1.81-.57c-.17-1.33-.41-3.25-.65-4.56l5.54-.57c0,.56-.33,1-1,1.18-.59,1-1.54,2.37-2.26,3.45l5.88-1.85,1.08-2.33,4.26,1.58a2.45,2.45,0,0,1-1,1l3.19,10.15c.05.27-1.46,1.56-2.66,1.94l-.58.18-.42-1.33L182.24,223c-.41,2.79-2.39,5.75-8,9l-.35-.32c3.39-2.77,4.78-5.23,5.06-7.63l-2.49.79Zm13.16-.55s2.6,1.17,4.14,2c0,.39-.29.67-.74.81l-5.53,1.74,1.95,6.2c.09.3-1.36,1.43-2.78,1.88l-.68.21L184,230.8l-10.83,3.4-.54-.82,11.09-3.49L182,224.36l5-1.07c.06.41-.08.77-.84,1.15l1.34,4.27,1.48-.47Zm-16.66-10.6,1.29,4.1,3.26-1-1.29-4.11Zm5.79,8.59a12.64,12.64,0,0,0-.7-3.8l-.24-.78-3.27,1,1.4,4.43Zm.84-10.68,1.29,4.11,3.39-1.07-1.29-4.11Zm6.37,8.41-1.39-4.43-3.4,1.07.24.74a12.6,12.6,0,0,1,.67,3.84Z"/><path class="cls-1" d="M194.82,201.08c8.69-3.76,9.32,3.77,5,3.39a13.34,13.34,0,0,0-5.1-3.09Zm1.44,8.08c8.19-3.75,9,3.47,4.76,3.17a11.59,11.59,0,0,0-4.87-2.87Zm21.06-11.28L219,197l.56-2.75,4.35.71a2.09,2.09,0,0,1-.91,1.29l10.05,18c.12.21-.6,1.5-2.19,2.39l-.54.3-1.61-2.9-10.89,6.07L219,222.3c.14.24-.49,1.4-2.06,2.28l-.54.3-12-21.55,4.17-.58,1.57-.88-2.51-4.49L202,200.53l-.72-.73,15-8.37.45-3.43s3,.52,4.82,1c.09.38-.15.71-.56.94l-6.19,3.45Zm-13.66,3.82c1.09,4.39,3.14,12.45,3.76,14.31a16.55,16.55,0,0,0,1.2,3.14c1,1.59,2.73,2,4.11,4.65a2.72,2.72,0,0,1-1,3.84,1.93,1.93,0,0,1-2.49-.63c-1.15-3.39-2.87-6.12-3.81-6.22a3.37,3.37,0,0,0-1.77.37l-.32-.56,1.3-.73c.45-.24.55-.34.51-1.1-.05-1.48-.05-1.48-2-16.94Zm5,2.08,5.25,9.41c.53-3.37-1.1-6.49-2.85-9.63l-.48-.86Zm5.9-4.38-2.51-4.5-1.69.94,2.51,4.5Zm13.62,13.78-4-7.22a10.59,10.59,0,0,1-1,.57l-1.3.73c-2,1.09-2.61.6-3.58-1.14l-3.29-5.89-1.69.94.47.83c1.86,3.34,3.47,7,.49,11.67l-.13,0,3.13,5.62Zm-7.09-4.31s2.41.44,4,.82c.09.38-.12.69-.54.92l-8,4.44-.7-.69,4.91-2.74Zm-3.35-10.16,2.83,5.06c.19.35.34.47.72.25l.68-.38.68-.38-3.1-5.56Z"/><g id="logo-啤女"><path id="BEERU" class="cls-1" d="M138.11,186.46a7.2,7.2,0,0,0,2.07-2.33,5.32,5.32,0,0,0,.59-3.32,5.87,5.87,0,0,0-2.67-4.51q-2.32-1.52-6.51-1a23.72,23.72,0,0,0-2.89.51,11.11,11.11,0,0,0-2.33.8,2.47,2.47,0,0,0-.89.68,1.35,1.35,0,0,0-.24,1l1.66,14.27a4.06,4.06,0,0,0,.33,1.25,1.71,1.71,0,0,0,.62.7,2,2,0,0,0,.93.28,5.82,5.82,0,0,0,1.23,0,11.1,11.1,0,0,0,1.4-.25,8.64,8.64,0,0,0,1-.31l-.68-5.82,1.61-.18,3,3.79a8.78,8.78,0,0,0,.67.78,3.41,3.41,0,0,0,.75.59,2.56,2.56,0,0,0,.89.33,4.09,4.09,0,0,0,1.17,0,3.15,3.15,0,0,0,1.74-.77,2.9,2.9,0,0,0,.92-1.75,17.73,17.73,0,0,0-1.94-2.17C139.78,188.21,139,187.36,138.11,186.46ZM135,183.31a2.64,2.64,0,0,1-1.75.8l-1.94.23-.53-4.55.6-.16a6.23,6.23,0,0,1,.72-.11,3.81,3.81,0,0,1,2.42.31,2.13,2.13,0,0,1,.95,1.66A2.25,2.25,0,0,1,135,183.31Zm-56.3-13.37a30.92,30.92,0,0,0-3.1-.82,11.72,11.72,0,0,0-2.63-.28,2.54,2.54,0,0,0-1.09.24,1.34,1.34,0,0,0-.63.83l-4.37,13.57a2.26,2.26,0,0,0,.91,2.63,7.08,7.08,0,0,0,1.16.77c.44.24.89.46,1.34.68s.9.39,1.34.56l1.16.4a11.91,11.91,0,0,0,6.58.6,5,5,0,0,0,3.51-3.57,4,4,0,0,0-.11-3,5.27,5.27,0,0,0-2-2.27,4.44,4.44,0,0,0,2.48-.72,3.67,3.67,0,0,0,1.48-2A4.43,4.43,0,0,0,84,173,11.38,11.38,0,0,0,78.65,169.94Zm-1,13.7a1.71,1.71,0,0,1-1.25,1.25,3.7,3.7,0,0,1-2.08-.14c-.39-.13-.79-.27-1.21-.44a5,5,0,0,1-1-.49l1.14-3.55,2.38.77a3.93,3.93,0,0,1,1.81,1A1.56,1.56,0,0,1,77.7,183.64Zm1.84-7.29a1.72,1.72,0,0,1-1,1.18,3,3,0,0,1-2-.12l-2.12-.68,1.1-3.43a8.43,8.43,0,0,1,.92.2c.38.11.72.2,1,.3a3.57,3.57,0,0,1,1.81,1.09A1.54,1.54,0,0,1,79.54,176.35Zm-20.47-6.52a4.5,4.5,0,0,1-.41,3.37,4.56,4.56,0,0,1-2.55,2.25,4.06,4.06,0,0,1-1.34.23,4.63,4.63,0,0,1-2.19-.58,4.37,4.37,0,0,1-2.28-2.71,4.81,4.81,0,0,1,3-5.62,4.7,4.7,0,0,1,5.81,3.06Zm121.61,4.7a4.33,4.33,0,0,1-2.37,2.64,4.8,4.8,0,0,1-2.07.5,4.16,4.16,0,0,1-1.47-.27,4.8,4.8,0,0,1-2.77-5.72,4.68,4.68,0,0,1,5.91-2.86,4.78,4.78,0,0,1,2.77,5.71Zm-77.51,1.41a3.7,3.7,0,0,1,.23.93,4.18,4.18,0,0,1,0,1.17,2.3,2.3,0,0,1-.77,1.55,1.85,1.85,0,0,1-1.39.26l-6.35-1-.46,2.8,6.77,1.12a3.7,3.7,0,0,1,.24.92,4.12,4.12,0,0,1,0,1.16,2.31,2.31,0,0,1-.75,1.54,1.78,1.78,0,0,1-1.38.27l-5.54-.91-.52,3.16,7.74,1.27a3.91,3.91,0,0,1,.23.94,4.18,4.18,0,0,1,0,1.17,2.31,2.31,0,0,1-.77,1.56,1.81,1.81,0,0,1-1.39.28l-8.79-1.45a2.64,2.64,0,0,1-2.34-3.26L90,176.64a2.63,2.63,0,0,1,3.26-2.34Zm59.51,5A7.68,7.68,0,0,1,163,184a6.3,6.3,0,0,1-.95,2.67,7.41,7.41,0,0,1-2.09,2.13,11.92,11.92,0,0,1-6.64,1.86,7.3,7.3,0,0,1-2.9-.73,6.33,6.33,0,0,1-2.2-1.79,8,8,0,0,1-1.35-2.74l-3.14-11.23,1-.44a11.27,11.27,0,0,1,1.32-.49,7.14,7.14,0,0,1,1.22-.23,2.31,2.31,0,0,1,1,.13,1.7,1.7,0,0,1,.74.58,4.05,4.05,0,0,1,.52,1.19l2.51,9a3.08,3.08,0,0,0,1.39,2,3.08,3.08,0,0,0,4-1.13,3.19,3.19,0,0,0,.15-2.42l-3.12-11.13,1-.45a9.63,9.63,0,0,1,1.32-.48,6.29,6.29,0,0,1,1.22-.23,2.16,2.16,0,0,1,1,.12,1.67,1.67,0,0,1,.74.59,3.85,3.85,0,0,1,.52,1.18Zm-50-.25-.07,2.84,6.86.18a4.43,4.43,0,0,1,.36.88,3.9,3.9,0,0,1,.13,1.15,2.28,2.28,0,0,1-.53,1.63,1.78,1.78,0,0,1-1.32.46l-5.62-.15-.08,3.2,7.84.21a4,4,0,0,1,.35.89,4.08,4.08,0,0,1,.14,1.17,2.28,2.28,0,0,1-.55,1.65,1.79,1.79,0,0,1-1.34.46L110,195a2.63,2.63,0,0,1-2.76-2.91l.34-12.9a2.83,2.83,0,0,1,.82-2.05,2.8,2.8,0,0,1,2.1-.71l10.06.27a3.5,3.5,0,0,1,.36.9,3.69,3.69,0,0,1,.13,1.16,2.23,2.23,0,0,1-.54,1.63,1.84,1.84,0,0,1-1.34.46Z"/><g id="啤女"><path id="circle" class="cls-1" d="M148.11,0a80.29,80.29,0,0,0-32.85,7A80.83,80.83,0,1,0,82.4,161.68a80.33,80.33,0,0,0,32.86-7A80.83,80.83,0,1,0,148.11,0Zm0,157.11h0c-2.18,0-4.33-.12-6.47-.31l-1.14-.09c-2.1-.21-4.18-.51-6.22-.88l-.73-.15A76.42,76.42,0,0,1,121,152.1c-.09,0-.19-.06-.27-.1h0c-1.86-.72-3.7-1.49-5.48-2.34h0c-1.79.85-3.63,1.62-5.49,2.34h0c-.08,0-.18.06-.27.1A76.42,76.42,0,0,1,97,155.68l-.73.15c-2,.37-4.12.67-6.22.88l-1.14.09c-2.14.19-4.29.31-6.47.31h0A76.4,76.4,0,0,1,12.83,112c-.43-1-.84-1.92-1.24-2.9A76.83,76.83,0,0,1,7.88,97.05c-.11-.51-.22-1-.32-1.53A76.24,76.24,0,0,1,82.4,4.58c2.19,0,4.35.12,6.49.3L90,5q3.17.31,6.24.88L97,6a75.43,75.43,0,0,1,12.56,3.59l.26.09h0c1.86.72,3.7,1.48,5.49,2.34,1.78-.86,3.62-1.62,5.48-2.34h0l.26-.09A75.7,75.7,0,0,1,133.55,6l.71-.14q3.08-.57,6.24-.88l1.12-.1c2.14-.18,4.3-.3,6.49-.3a76.35,76.35,0,0,1,76.27,76.26h0A76.35,76.35,0,0,1,148.11,157.11Zm0-145.52a68.85,68.85,0,0,0-32.85,8.3,69.26,69.26,0,1,0,0,121.9,69.25,69.25,0,1,0,32.85-130.2ZM211,103.84a67.12,67.12,0,0,1-62.9,44c-1.43,0-2.85-.05-4.26-.14-.5,0-1-.09-1.47-.14-.91-.07-1.82-.15-2.72-.27-.59-.07-1.16-.17-1.74-.26-.8-.12-1.59-.24-2.37-.39-.62-.12-1.23-.26-1.84-.4s-1.46-.32-2.18-.51-1.25-.34-1.87-.52-1.38-.4-2.06-.62-1.25-.42-1.87-.64-1.31-.47-2-.73l-1.83-.75c-.64-.27-1.27-.56-1.91-.85s-1.17-.55-1.74-.84l-.67-.31,0,0c-.8-.41-1.61-.82-2.39-1.26h0c-.79.44-1.6.85-2.4,1.26l0,0-.67.31c-.57.29-1.16.56-1.74.84s-1.27.58-1.91.85l-1.83.75c-.65.26-1.31.5-2,.73s-1.25.44-1.87.64-1.37.43-2.06.62-1.24.36-1.87.52-1.45.35-2.18.51-1.22.28-1.83.4c-.79.15-1.58.27-2.38.39-.58.09-1.15.19-1.73.26-.91.12-1.82.2-2.73.27-.49.05-1,.11-1.46.14-1.42.09-2.84.14-4.27.14h0a66.66,66.66,0,0,1-44.68-17.14l-.43-.38A66.93,66.93,0,0,1,82.4,13.88h0c1.43,0,2.85,0,4.27.14.49,0,1,.09,1.46.13.91.08,1.82.16,2.73.27.58.07,1.15.18,1.73.26.8.13,1.59.25,2.38.4.61.12,1.22.26,1.83.39s1.46.33,2.18.51,1.25.34,1.87.52,1.38.4,2.06.62,1.25.42,1.87.64l2,.73,1.83.75c.64.28,1.27.56,1.91.86s1.17.54,1.74.83l.67.32,0,0c.8.41,1.61.81,2.4,1.25h0c.78-.44,1.59-.84,2.39-1.25l0,0,.67-.32c.57-.29,1.16-.56,1.74-.83s1.27-.58,1.91-.86l1.83-.75,2-.73c.62-.22,1.25-.44,1.87-.64s1.37-.42,2.06-.62,1.24-.36,1.87-.52,1.45-.35,2.18-.51,1.22-.27,1.84-.39c.78-.15,1.57-.27,2.37-.4.58-.08,1.15-.19,1.74-.26.9-.11,1.81-.19,2.72-.27.49,0,1-.1,1.47-.13,1.41-.09,2.83-.14,4.26-.14a66.95,66.95,0,0,1,67,67h0A66.67,66.67,0,0,1,211,103.84Z"/><path id="啤女-2" data-name="啤女" class="cls-1" d="M60.2,93c-.08.61-3.89,2.21-6.63,2.21h-1.3V89.46H46.55v6.4c0,.92-3.2,2.74-6.63,2.74H38.7V50l8.16,3.5h4.65L55.4,49.2l7.85,6.25a5.18,5.18,0,0,1-3,1.6Zm-7.93-5.8V55.68H46.55V87.24Zm48.57,2.52s4.8,4.27,7.55,7.09c-.23.84-1.07,1.22-2.14,1.22h-13v14.64c0,.69-3.88,2.13-7.24,2.13h-1.6V98.07H58.83l-.61-2.13H84.37v-13L95.81,84c-.16.91-.69,1.6-2.6,1.9V95.94h3.51Zm-28.59-7.7c0,.53-2.52,2.36-6.64,2.36H64.24V50.19l9,3.43h4.27c.53-3,1.29-7.25,1.67-10.22l12.28,2.52c-.3,1.22-1.37,1.83-3,1.83-1.91,1.67-4.88,4-7.17,5.87H95.12L99,49.35l8.08,6.25a5.45,5.45,0,0,1-2.82,1.45V81c-.08.61-4.19,2.36-7,2.36H95.88V80.23H85.82C83.07,86,76.82,91,62.64,94.11l-.53-.92c9.15-3.66,13.8-8,16-13H72.25Zm0-26.31v9.69H80V55.75Zm6.63,22.34A28.65,28.65,0,0,0,80,69.48V67.65h-7.7V78.09Zm17,0V67.65h-8V69.4a27.63,27.63,0,0,1-1.15,8.69Zm-8-22.34v9.69h8V55.75Zm96.47,2.14s6,4.73,9.69,7.93c-.23.84-1.07,1.22-2.22,1.22H177.26c-1.68,10.37-4.73,19.44-10.6,26.91,31.11,11.67,20.89,23.41,12.89,19.83-4.65-4.8-11.21-9.61-18.61-14-8.23,7-20.28,12.13-38,14.79l-.46-.91c14.87-4.42,24.93-10.37,31.79-17.61a169,169,0,0,0-21.88-9.38A208.54,208.54,0,0,0,140,67h-16.4L123,64.83h17.84c2.9-8.47,5.49-16.78,6.49-21.35L160,46.76c-.23.84-.84,1.6-3.2,1.6-1.3,4-3.35,10-5.72,16.47h16.32c.38-3.21.61-6.56.76-9.84l13.19,2.82c-.3,1.3-1.29,1.91-3.05,1.91-.15,1.75-.38,3.43-.61,5.11h1.3ZM150.19,67c-2.51,7-5.33,14.26-7.93,20,6.1,1.37,11.29,2.74,15.94,4.11,5-7.16,7.62-15.25,8.92-24.09Z"/></g></g></g></g></g></svg>