<svg xmlns="http://www.w3.org/2000/svg" viewBox="0 0 111.86 100"><defs><style>.cls-1{fill:#231815;}</style></defs><g id="圖層_2" data-name="圖層 2"><g id="圖層_1-2" data-name="圖層 1"><path class="cls-1" d="M6.06,85A31.17,31.17,0,0,1,9.91,94.5c.86,4,3.75,5.59,7.68,5.5,2.46-.07,4.91-.72,7.37-1q8.17-1.09,16.36-2.12a60.12,60.12,0,0,0,11.49-2.29,9.29,9.29,0,0,1,3-.81,17.5,17.5,0,0,0,5.87-1.19c1-.32,2-.49,3-.74A3.48,3.48,0,0,1,65.5,91a7.58,7.58,0,0,1,1.32-.53l25-9.38c2.82-1,5.55-2.43,8.61-2.72a2.69,2.69,0,0,0,2.35-1.75c-.16-.36-.33-.71-.48-1.06-.81-1.9-1.39-2.11-3.19-1.18L97,75.53c-.43-.72-.79-1.27-1.1-1.85-.79-1.4-1.43-1.62-2.63-.56a38.35,38.35,0,0,0-2.85,3.11c-.53.6-1,1.21-1.67,2a18.83,18.83,0,0,1-1.57-2.13c-.76-1.4-1.47-2.85-2.12-4.32-.76-1.71-1.49-1.87-2.62-.45a6.69,6.69,0,0,0-.85,1.41c-.39.85-.69,1.75-1.1,2.59-.67,1.39-1.31,2.8-2.1,4.12-.64,1.09-1.35,1.11-2.17.13a10.12,10.12,0,0,1-1.39-2.24c-.72-1.63-1.34-3.3-2-5a4,4,0,0,0-7-.79,9.68,9.68,0,0,0-1,2.07c-.68,1.93-1.27,3.91-1.94,5.84a20.34,20.34,0,0,1-1,2.11c-.46-.9-.8-1.45-1-2-.69-1.71-1.32-3.43-2-5.15-.26-.67-.53-1.34-.82-2s-.69-1.18-1.44-1.13-1.12.75-1.28,1.49-.24,1.31-.35,2c-.15,1-.29,1.92-.51,3.29-.44-.75-.72-1.14-.92-1.56-.61-1.31-1.14-2.66-1.79-4A15.46,15.46,0,0,0,50,69.64c-.72-.92-1.66-.73-2.17.31a6,6,0,0,0-.45,1.43c-.23,1.37-.42,2.76-.6,4.14-.16,1.18-.29,2.36-.43,3.54a4,4,0,0,1-1.1-1.55c-.42-1-.8-2.08-1.2-3.12-.2-.52-.39-1.06-1-1.11a1.29,1.29,0,0,0-1.35,1c-.34.93-.6,1.9-.85,2.87s-.52,2.12-.77,3.19a85.67,85.67,0,0,1-2.22-18.78A6.48,6.48,0,0,1,38.64,63c1,2.23,2,4.47,3,6.68.26.55.59,1.14,1.3,1S43.89,70,44,69.31a4.9,4.9,0,0,0,.07-.67q.26-3.42.49-6.86c.12-1.93.22-3.86.36-6.23A14.52,14.52,0,0,1,46.24,57c1.24,1.89,2.45,3.8,3.66,5.72.79,1.26,1.52,2.57,2.36,3.79.61.9,1.36,1.16,2.05.88.89-.36.64-1.18.6-1.87-.15-2.91-.33-5.82-.47-8.73A17.46,17.46,0,0,1,54.51,55l.34-.08c.28.5.58,1,.84,1.52,1,2.09,2,4.21,3.07,6.29a5.68,5.68,0,0,0,1.15,1.58,1.15,1.15,0,0,0,2-.61,4.64,4.64,0,0,0,.2-1.48c-.17-2.31.6-4.41,1.25-6.53a5.43,5.43,0,0,1,.59-1c.61,1.66,1.12,3.13,1.7,4.57,1,2.37,2.47,4.47,3,7a1.85,1.85,0,0,0,.21.45,1.48,1.48,0,0,0,2.71.1,4.48,4.48,0,0,0,.61-1.54q1-5.16,1.94-10.34a5.34,5.34,0,0,1,1-2.94,17.26,17.26,0,0,1,.86,1.63c.66,1.65,1.27,3.32,1.91,5,.52,1.35,1,2.71,1.61,4,.26.63.66,1.19,1.46,1s.67-.86.71-1.48c.14-2.28.25-4.58.47-6.86a28.58,28.58,0,0,1,.63-3.17,6.46,6.46,0,0,1,2.12,2.95c1,2.12,1.86,4.29,2.83,6.41.42.92.7,2.15,2,2s1.37-1.27,1.6-2.21c.4-1.62.69-3.27,1-4.9.14-.61.33-1.21.58-2.15.48.93.79,1.51,1.07,2.1,1,2.12,2,4.23,3,6.35.24.53.53,1,1.2.88s.85-.55,1-1.12c.32-1.53.63-3.06,1-4.58.14-.67.33-1.32.54-2.13a16.63,16.63,0,0,1,2.55,5.85,25.7,25.7,0,0,0,1.29,3.43,1.41,1.41,0,0,0,1.16.58c.29,0,.64-.51.79-.88.26-.66.31-1.42.59-2.08A28.89,28.89,0,0,0,109,51.94a2.37,2.37,0,0,1,1.23-2.42,3.06,3.06,0,0,0,1.58-3.22c-.35-2.91-1.39-5.42-4-6.82A11.11,11.11,0,0,0,105,38.37c-1.65-.36-3.28-.31-4.52,1.2-.65.79-1.34,1.54-2.1,2.42a5.6,5.6,0,0,1-.64,0c-3.25-.47-6.49-1.06-9.74-1.4-5.63-.59-11.26-1.07-16.9-1.5-2.74-.21-5.5-.18-8.25-.28-3.7-.15-7.39-.32-11.09-.49a50.58,50.58,0,0,1-6.64-.38,36.83,36.83,0,0,0-8-.74c-1.2,0-2.4-.08-3.66-.12.14-1.54.33-2.93.36-4.32.11-3.92.14-7.83.22-11.75,0-1.06.17-2.12.18-3.18,0-.86-.39-1.2-1.19-1.23a1.61,1.61,0,0,0-1.6,1.11c-.59,1.24-1.22,2.47-1.88,3.68Q24.76,30,20,38.56c-.1.19-.24.35-.59.86-.5-2.21-.86-4.07-1.33-5.89-1.26-4.92-2.56-9.84-3.84-14.75-.22-.87-.84-1.36-1.63-1.09a2.63,2.63,0,0,0-1.36,1C8.92,23,6.74,27.3,6.36,32.37c-.1,1.39-.22,2.78-.35,4.17a22.79,22.79,0,0,1-.43,3.82,45.48,45.48,0,0,1-1.9,5.48A52.66,52.66,0,0,0,.14,61.93,31.08,31.08,0,0,0,1.66,75.51,63.05,63.05,0,0,0,6.06,85m22.1-41.8a14.14,14.14,0,0,1,7.68-.39c3.25.7,4.72,3.73,3.66,7.25a8.4,8.4,0,0,1-7.62,6,6.91,6.91,0,0,1-4.13-.93A5.27,5.27,0,0,1,25,50.91c0-.61-.16-1.22-.24-1.83-.34-2.81.89-5,3.41-5.87M9.13,53a3.77,3.77,0,0,1,.92-2.06,7.2,7.2,0,0,1,6.88-2.49c3.95.65,5.82,4.78,3.91,8.5a6.16,6.16,0,0,1-5.48,3.33c-4,.15-6.56-2.39-6.23-7.28m18.71-3.76a3.75,3.75,0,0,1,2.63-3.18c.35-.09.72-.11,1.12-.18s.81,0,1.23,0A3.16,3.16,0,0,1,35.67,49c0,1.42-.79,3.25-2.63,3.37a10,10,0,0,1-2.51,0,3.41,3.41,0,0,1-2.69-3.09M12.09,55.39c.15-2.18,1-3.31,2.53-3.58a1.57,1.57,0,0,1,2,1.33,2,2,0,0,1-1,2.53,4.8,4.8,0,0,1-3.58-.28M41.91,8.59l.06.67c0,.22,0,.44,0,.64a5.43,5.43,0,0,1-.71,2.87h0c-.22.33-.45.66-.7,1a2.12,2.12,0,0,1-1,.67,3.23,3.23,0,0,1-1,.17c-.37,0-.75,0-1.16,0h-.08a.28.28,0,0,1-.14,0h-.08a.48.48,0,0,1-.34-.14.55.55,0,0,1-.18-.38,2.81,2.81,0,0,1,0-.45c0-.18,0-.32,0-.43v-.59a1,1,0,0,1,0-.18v-.21c0-.16,0-.31,0-.45s0-.29,0-.45V10.9a3.32,3.32,0,0,0,0-.43c0-.63,0-1.26-.07-1.91s0-1.3,0-2V5.31c0-.19,0-.38,0-.57s0-.38,0-.56c0-.5,0-1,0-1.47a11.77,11.77,0,0,0-.17-1.44,1.25,1.25,0,0,1,.12-.58,1.36,1.36,0,0,1,.27-.37A.73.73,0,0,1,37,.13l.17,0h.39a3,3,0,0,1,.44,0h.43a8.27,8.27,0,0,1,.86,0,2.35,2.35,0,0,1,.85.3,2.14,2.14,0,0,1,.72.6,2.36,2.36,0,0,1,.4.79,4.67,4.67,0,0,1,.17.92c0,.32,0,.64,0,.94a8.07,8.07,0,0,1-.11,1,6.52,6.52,0,0,1-.24.92,1.24,1.24,0,0,1-.18.34,2.28,2.28,0,0,1-.23.27c.12.09.24.2.38.32a1.83,1.83,0,0,1,.35.43h0a3.8,3.8,0,0,1,.55,1.59m-4.14-7a1.67,1.67,0,0,1,0,.39c0,.13,0,.26,0,.39l0,.73c0,.26,0,.52,0,.78s0,.32,0,.47,0,.32,0,.49v.94h.8l.24,0h.19a1.89,1.89,0,0,0,.78-1.12v0A4.42,4.42,0,0,0,40,2.91c0-.18-.06-.36-.11-.55a.76.76,0,0,0-.26-.44,1.49,1.49,0,0,0-1-.34Zm.15,5.68a0,0,0,0,0,0,0v1.2c0,.19,0,.39,0,.59s0,.41,0,.6l0,.58,0,.57a3.49,3.49,0,0,1,0,.35v.37c0,.12,0,.24,0,.35s0,.23,0,.35v.22a.72.72,0,0,1,0,.17v.42l.74,0a1.38,1.38,0,0,0,.56-.15l.34-.23a2.56,2.56,0,0,0,.27-.29,2,2,0,0,0,.23-.42,3.63,3.63,0,0,0,.22-.62,3.78,3.78,0,0,0,.14-.76c0-.26,0-.52,0-.77V9.42a3,3,0,0,0-.09-.95,2,2,0,0,0-.36-.75,1,1,0,0,0-.61-.4.63.63,0,0,1-.21,0H37.92ZM48.61,4.09a7.61,7.61,0,0,1,.25,1.15c0,.38.09.76.12,1.12v.11c0,.28,0,.56.05.85s0,.57,0,.81,0,.49,0,.71l0,.67q0,.68-.18,1.53a6,6,0,0,1-.49,1.64,8.16,8.16,0,0,1-.52.92,2.25,2.25,0,0,1-.52.54l-.35.22a1.87,1.87,0,0,1-.32.15,1.21,1.21,0,0,1-.2.07l-.17,0a.65.65,0,0,1-.22,0,2,2,0,0,1-1.69-1.11,4.22,4.22,0,0,1-.49-1.17c-.11-.4-.19-.79-.26-1.17a19,19,0,0,1-.26-3.32c0-.4,0-.8,0-1.2s0-.83.06-1.27.12-1,.19-1.47a10.47,10.47,0,0,1,.25-1.24.19.19,0,0,1,0-.08.43.43,0,0,1,0,0c.07-.3.15-.59.25-.89a2.07,2.07,0,0,1,.51-.84,4,4,0,0,1,.55-.48A1.27,1.27,0,0,1,46,.06h.14a.19.19,0,0,1,.12,0A1.52,1.52,0,0,1,47,.52a4.49,4.49,0,0,1,.5.64,6.45,6.45,0,0,1,.62,1.38c.15.45.29.89.42,1.33h0l.05.22Zm-3.53,7.1c.22,1,.48,1.61.8,1.77.81-.1,1.34-1,1.58-2.8a13,13,0,0,0,.13-1.9V7.62a5.32,5.32,0,0,0,0-.69s0-.09,0-.13a.62.62,0,0,1,0-.13c0-.34-.07-.66-.1-1a5.87,5.87,0,0,0-.16-.85l-.11-.41,0,0L47.05,4l-.3-1a5.77,5.77,0,0,0-.39-.92l0-.11,0,.07a.84.84,0,0,0-.15-.2,1,1,0,0,0-.21-.2,1.45,1.45,0,0,0-.22.22,1.23,1.23,0,0,0-.23.38q-.09.26-.18.54v0l-.07.26c-.07.34-.14.71-.21,1.12s-.13.84-.18,1.31-.05.76-.07,1.15,0,.74,0,1.08v.41a3.1,3.1,0,0,0,0,.42c0,.52.06,1,.09,1.42a9.42,9.42,0,0,0,.19,1.22M54,5.64c-.13-.61-.27-1.2-.42-1.76A13.24,13.24,0,0,0,53,2.27c0-.09-.06-.15-.07-.18l0-.09a.14.14,0,0,1,0-.06.76.76,0,0,0-.08-.13,4.11,4.11,0,0,0-.19.88,1.83,1.83,0,0,0-.09.39,1,1,0,0,1,0,.26l-.07.33c0,.16-.06.32-.08.48l-.09.48v0l-.07.46-.13.64-.17,1.57,0,.28c-.11.86-.18,1.72-.23,2.58s-.08,1.71-.08,2.54v.6q0,.3,0,.6V14l0,.29-.15,0-.19,0h-.52a1,1,0,0,1-.52-.17c0-.21,0-.43,0-.68s0-.47,0-.68c0-1.05,0-2.1.1-3.16s.18-2.11.31-3.16v-.1a.62.62,0,0,1,0-.2c0-.32.09-.64.14-1s.1-.64.16-1A1.77,1.77,0,0,0,50.92,4c0-.11,0-.24,0-.38l.09-.46c0-.15.05-.29.07-.43s.05-.28.08-.42a10.81,10.81,0,0,1,.28-1.08A4.56,4.56,0,0,1,52,.07h1.47l.24.34c.09.15.18.32.28.51s.19.36.26.52a9.57,9.57,0,0,1,.42,1.05c.13.37.24.75.36,1.16,0,.19.11.5.2.94s.17.9.27,1.38.17.92.25,1.33.12.68.15.81a28.49,28.49,0,0,1,.45,4.79v.49c0,.17,0,.33,0,.49V14a.49.49,0,0,1,0,.11,1.51,1.51,0,0,1-.12.26H55.05a.65.65,0,0,1-.13-.5c0-.09,0-.19,0-.32s0-.22,0-.3a24.41,24.41,0,0,0-.2-3.12c-.14-1-.3-2-.47-2.89Zm7.66,1.24a8.43,8.43,0,0,1,.77,1.26,15.11,15.11,0,0,1,.66,1.52A12.26,12.26,0,0,1,63.67,12a13.1,13.1,0,0,1,.13,2.31l-1.47-.11a9.26,9.26,0,0,0-.2-2.56c-.09-.38-.19-.74-.3-1.09s-.24-.69-.37-1S61.14,9,61,8.66s-.32-.54-.46-.75c-.25.16-.47.3-.65.4l-.11.07c0,.26,0,.53,0,.8s0,.54,0,.79c0,.68,0,1.41,0,2.16s0,1.49,0,2.19H58.23V13.18c0-.55,0-1.09,0-1.61s0-1.06,0-1.6V9.21a1.28,1.28,0,0,1,0-.31.87.87,0,0,0,0-.31,1.22,1.22,0,0,1-.62-.49,1.81,1.81,0,0,1-.31-.84,2.07,2.07,0,0,1,0-.5,1.41,1.41,0,0,1,.13-.48,1.6,1.6,0,0,1,.87-.92c0-.92,0-1.76,0-2.53s-.07-1.5-.11-2.22V.44a.91.91,0,0,1,0-.17,1.12,1.12,0,0,1,.1-.25l1.3.09a.93.93,0,0,0,0,.13.93.93,0,0,1,0,.13l0,.92a4.72,4.72,0,0,0,.07.85l.06,3.13a2.84,2.84,0,0,1,.8.5l.11-.11L61,5.33A2.43,2.43,0,0,0,61.2,5a4.19,4.19,0,0,0,.39-.86,6.73,6.73,0,0,0,.24-1,5.35,5.35,0,0,0,.11-1V.44a.65.65,0,0,1,0-.2.48.48,0,0,1,.13-.2h1.12a.48.48,0,0,1,.13.2.52.52,0,0,1,0,.17V.59c0,.19,0,.37,0,.54s0,.34,0,.53,0,.38,0,.56a5.4,5.4,0,0,1,0,.56c0,.27-.07.58-.12.9a6.3,6.3,0,0,1-.24,1,5.33,5.33,0,0,1-.42,1,3.73,3.73,0,0,1-.65.92ZM58.41,7c0,.22.09.33.28.33a2.45,2.45,0,0,0,.65-.11h-.07c.07,0,.12-.06.13,0s0,0,0,0,0,0,0,0L59.62,7l-.45-.33.17,0a2.06,2.06,0,0,0-.65-.1c-.19,0-.28.13-.28.38M70.17,4.09a7.61,7.61,0,0,1,.25,1.15c0,.38.09.76.11,1.12v.11c0,.28,0,.56.06.85s0,.57,0,.81,0,.49,0,.71l0,.67q0,.68-.18,1.53a6,6,0,0,1-.49,1.64,6.82,6.82,0,0,1-.53.92,2.06,2.06,0,0,1-.51.54l-.35.22a1.87,1.87,0,0,1-.32.15,1.21,1.21,0,0,1-.2.07l-.17,0a.65.65,0,0,1-.22,0,2,2,0,0,1-1.69-1.11,4.59,4.59,0,0,1-.5-1.17c-.1-.4-.18-.79-.26-1.17a20,20,0,0,1-.26-3.32q0-.6,0-1.2c0-.41,0-.83.06-1.27s.12-1,.18-1.47.15-.83.25-1.24c0,0,0-.06,0-.08a.11.11,0,0,0,0,0c.08-.3.16-.59.25-.89a2.32,2.32,0,0,1,.51-.84,5.72,5.72,0,0,1,.55-.48,1.32,1.32,0,0,1,.84-.27h.14a.21.21,0,0,1,.12,0,1.56,1.56,0,0,1,.76.43,4.37,4.37,0,0,1,.49.64,6,6,0,0,1,.63,1.38c.14.45.28.89.41,1.33h0l0,.22Zm-3.53,7.1c.21,1,.48,1.61.8,1.77.81-.1,1.34-1,1.58-2.8a13,13,0,0,0,.13-1.9V7.62a5.32,5.32,0,0,0,0-.69s0-.09,0-.13a.69.69,0,0,1,0-.13c0-.34-.06-.66-.09-1a4.73,4.73,0,0,0-.17-.85l-.1-.41,0,0L68.61,4l-.3-1a6.87,6.87,0,0,0-.39-.92l0-.11,0,.07a.84.84,0,0,0-.15-.2,1,1,0,0,0-.21-.2,1.45,1.45,0,0,0-.22.22,1.23,1.23,0,0,0-.23.38c-.06.17-.13.35-.18.54v0l-.07.26c-.07.34-.14.71-.21,1.12s-.13.84-.18,1.31,0,.76-.07,1.15,0,.74,0,1.08v.41a3.1,3.1,0,0,0,0,.42c0,.52.06,1,.1,1.42a8,8,0,0,0,.18,1.22M77.5,8.59c0,.22,0,.44.06.67s0,.44,0,.64a5.34,5.34,0,0,1-.71,2.87h0c-.22.33-.45.66-.7,1a2.09,2.09,0,0,1-.94.67,3.3,3.3,0,0,1-1,.17c-.37,0-.75,0-1.16,0H73a.24.24,0,0,1-.13,0H72.8a.48.48,0,0,1-.34-.14.55.55,0,0,1-.18-.38c0-.12,0-.27,0-.45s0-.32,0-.43v-.59a.52.52,0,0,1,0-.18v-.21c0-.16,0-.31,0-.45s0-.29,0-.45V10.9c0-.13,0-.27,0-.43,0-.63,0-1.26-.06-1.91s0-1.3,0-2V5.31c0-.19,0-.38,0-.57s0-.38,0-.56c0-.5,0-1,0-1.47a11.77,11.77,0,0,0-.17-1.44A1.25,1.25,0,0,1,72,.69a1.36,1.36,0,0,1,.27-.37.73.73,0,0,1,.28-.19l.17,0h.39a3,3,0,0,1,.44,0H74a8.46,8.46,0,0,1,.87,0,2.3,2.3,0,0,1,.84.3,2.14,2.14,0,0,1,.72.6,2.19,2.19,0,0,1,.4.79,4,4,0,0,1,.17.92c0,.32,0,.64,0,.94a8.07,8.07,0,0,1-.11,1,6.52,6.52,0,0,1-.24.92,1.24,1.24,0,0,1-.18.34,2.28,2.28,0,0,1-.23.27c.12.09.24.2.38.32A1.87,1.87,0,0,1,77,7h0a3.66,3.66,0,0,1,.54,1.59m-4.14-7a2.44,2.44,0,0,1,.06.39c0,.13,0,.26,0,.39s0,.48,0,.73,0,.52,0,.78,0,.32,0,.47,0,.32,0,.49v.94h.8l.24,0h.19a1.81,1.81,0,0,0,.78-1.12v0a4.43,4.43,0,0,0,.14-1.72c0-.18-.07-.36-.11-.55a.81.81,0,0,0-.26-.44,1.51,1.51,0,0,0-1-.34Zm.15,5.68s0,0,0,0v1.2c0,.19,0,.39,0,.59s0,.41,0,.6,0,.39,0,.58l0,.57a3.49,3.49,0,0,1,0,.35v.37c0,.12,0,.24,0,.35s0,.23,0,.35v.22a.72.72,0,0,1,0,.17v.42l.74,0a1.38,1.38,0,0,0,.56-.15l.34-.23a2.56,2.56,0,0,0,.27-.29,2.61,2.61,0,0,0,.24-.42,4.91,4.91,0,0,0,.21-.62,3.78,3.78,0,0,0,.14-.76,6.74,6.74,0,0,0,0-.77V9.42a3.3,3.3,0,0,0-.1-.95,2,2,0,0,0-.36-.75.94.94,0,0,0-.6-.4.69.69,0,0,1-.22,0H73.51ZM84,10.74h.4l-.11.6a2.06,2.06,0,0,1,0,.21.77.77,0,0,0,0,.18,6.3,6.3,0,0,1-.18.84,2.79,2.79,0,0,1-.34.82v0a2,2,0,0,1-.46.65,1.82,1.82,0,0,1-.93.55l0,0a.91.91,0,0,1-.26,0h-.21a2,2,0,0,1-.59-.08,1.67,1.67,0,0,1-.54-.31,1.83,1.83,0,0,1-.54-.57c-.13-.22-.25-.42-.35-.61v0a4.1,4.1,0,0,1-.29-.67c-.08-.25-.15-.51-.23-.77a11.46,11.46,0,0,1-.29-1.27c-.08-.46-.15-1-.2-1.53V8s0,0,0,0a.08.08,0,0,1,0-.06V7.85a.21.21,0,0,1,0-.13V7.15c0-.29,0-.61,0-.94s0-.65.07-.94.13-.87.23-1.39a12.07,12.07,0,0,1,.41-1.54c.06-.19.14-.4.23-.63a3.72,3.72,0,0,1,.36-.64,3.26,3.26,0,0,1,.39-.5,1.63,1.63,0,0,1,.58-.42A1.94,1.94,0,0,1,81.93,0a2.3,2.3,0,0,1,1,.24,1.8,1.8,0,0,1,.75.72,6,6,0,0,1,.36.83A6.61,6.61,0,0,1,84.19,3c0,.42,0,.84,0,1.24v.46h-.15l-.15,0-.58.09-.57.1V4.28c0-.16,0-.33,0-.52s0-.36,0-.52-.06-.5-.1-.74a1.26,1.26,0,0,0-.27-.64,1.06,1.06,0,0,0-.16-.19.4.4,0,0,0-.29-.12.41.41,0,0,0-.28.15,1.31,1.31,0,0,0-.27.33l-.19.35c-.1.26-.22.65-.37,1.16s-.21.85-.28,1.29-.13.91-.17,1.42c0,.12,0,.23,0,.32v.75s0,.09,0,.13a.65.65,0,0,0,0,.11v.29l.07.48,0,.63c0,.18,0,.35,0,.52a5,5,0,0,0,.06.51,12.43,12.43,0,0,0,.27,1.3,4.74,4.74,0,0,0,.49,1.19c.09.13.18.26.29.4a.45.45,0,0,0,.34.19.58.58,0,0,0,.19,0h0a.79.79,0,0,0,.3-.27,3,3,0,0,0,.2-.34,5.53,5.53,0,0,0,.19-.68c.06-.25.1-.47.13-.68a3.1,3.1,0,0,1,.07-.41h.24a.37.37,0,0,1,.17,0h.18l.19,0,0,0,.11,0H84m5.54-3.86a8.43,8.43,0,0,1,.77,1.26A15.11,15.11,0,0,1,91,9.66,13,13,0,0,1,91.6,12a13.07,13.07,0,0,1,.12,2.31l-1.47-.11a8.88,8.88,0,0,0-.19-2.56c-.09-.38-.19-.74-.31-1.09s-.23-.69-.36-1-.32-.58-.49-.87a7.66,7.66,0,0,0-.47-.75c-.24.16-.46.3-.64.4l-.11.07c0,.26,0,.53,0,.8s0,.54,0,.79c0,.68,0,1.41,0,2.16s0,1.49,0,2.19H86.16V13.18c0-.55,0-1.09,0-1.61s0-1.06,0-1.6V9.21a1.28,1.28,0,0,1,0-.31.87.87,0,0,0,0-.31,1.22,1.22,0,0,1-.62-.49,1.81,1.81,0,0,1-.31-.84,2.07,2.07,0,0,1,0-.5,1.41,1.41,0,0,1,.13-.48,1.6,1.6,0,0,1,.87-.92c0-.92,0-1.76,0-2.53s-.07-1.5-.11-2.22V.44a.91.91,0,0,1,0-.17,1.12,1.12,0,0,1,.1-.25l1.3.09a.93.93,0,0,0,0,.13,1.09,1.09,0,0,0,0,.13l0,.92a4.72,4.72,0,0,0,.07.85l.06,3.13a2.84,2.84,0,0,1,.8.5l.11-.11.28-.33A3.81,3.81,0,0,0,89.13,5a4.19,4.19,0,0,0,.39-.86,5.61,5.61,0,0,0,.23-1,4.68,4.68,0,0,0,.11-1V.44a1.23,1.23,0,0,1,0-.2A.52.52,0,0,1,90,0h1.12a.48.48,0,0,1,.13.2,1.11,1.11,0,0,1,0,.17V.59c0,.19,0,.37,0,.54s0,.34,0,.53,0,.38,0,.56l0,.56c0,.27-.07.58-.12.9a6.3,6.3,0,0,1-.24,1,6.09,6.09,0,0,1-.42,1,3.73,3.73,0,0,1-.65.92ZM86.34,7q0,.33.27.33a2.45,2.45,0,0,0,.66-.11H87.2c.07,0,.12-.06.13,0s0,0,0,0,0,0,0,0L87.55,7l-.46-.33.18,0a2.06,2.06,0,0,0-.65-.1c-.19,0-.28.13-.28.38M98.93,8.11a27.56,27.56,0,0,1,.46,4.79v.49c0,.17,0,.33,0,.49V14s0,.06,0,.11a1.51,1.51,0,0,1-.12.26H98.07c-.13-.22-.18-.39-.13-.5s0-.19,0-.32,0-.22,0-.3a22.7,22.7,0,0,0-.21-3.12c-.13-1-.29-2-.46-2.89l-1.18.06h-1.2l0,.28c-.11.86-.18,1.72-.23,2.58s-.08,1.71-.08,2.54v.6c0,.2,0,.4,0,.6V14l0,.29-.15,0-.2,0h-.51a1,1,0,0,1-.52-.17c0-.21,0-.43,0-.68s0-.47,0-.68c0-1.05,0-2.1.11-3.16s.17-2.11.3-3.16v-.1a1.12,1.12,0,0,1,0-.2l.15-1c0-.32.1-.64.16-1A1.14,1.14,0,0,0,93.93,4c0-.11,0-.24,0-.38l.08-.46c0-.15.06-.29.08-.43a3.1,3.1,0,0,1,.08-.42,10.81,10.81,0,0,1,.28-1.08A4.56,4.56,0,0,1,95,.07h1.47l.24.34L97,.92l.26.52a9.57,9.57,0,0,1,.42,1.05c.12.37.24.75.36,1.16,0,.19.11.5.19.94s.18.9.27,1.38.18.92.25,1.33.12.68.15.81m-3.85-2.4.94,0c.3,0,.63,0,1-.05-.13-.61-.27-1.2-.42-1.76A13.26,13.26,0,0,0,96,2.27,1.2,1.2,0,0,0,96,2.09a.23.23,0,0,1,0-.09l0-.07a.41.41,0,0,0-.07-.12,4.6,4.6,0,0,0-.2.88,2.34,2.34,0,0,0-.08.39,1.14,1.14,0,0,1,0,.26l-.06.33-.09.48c0,.16-.06.32-.08.48v0l-.07.46ZM101.71,9a7.35,7.35,0,0,1,.65-1.18,4.44,4.44,0,0,1-.87-1.69,7.92,7.92,0,0,1-.27-2.19,6.4,6.4,0,0,1,.08-.86,4.38,4.38,0,0,1,.2-.83v0a2.83,2.83,0,0,1,.85-1.42,2.34,2.34,0,0,1,1.12-.5,7.18,7.18,0,0,1,1.17-.11h.27l.1,0h.13l.39.07.09,0h.11a.24.24,0,0,0,.13,0H106a.8.8,0,0,1,.1.38,7,7,0,0,1,0,.74c0,.29,0,.6,0,.94v.94c0,.16,0,.31,0,.46s0,.28,0,.39V5.42l0,1.09.2.25a1.66,1.66,0,0,1,.19.89,1.82,1.82,0,0,1-.13.51,1.43,1.43,0,0,1-.26.41v1c0,.66,0,1.27,0,1.84s0,1.12,0,1.66a4.44,4.44,0,0,0,0,.62c0,.26,0,.47,0,.65h-1.36V14c0-.75,0-1.54,0-2.34s0-1.68,0-2.64a.82.82,0,0,1-.33,0,4.39,4.39,0,0,1-.83-.21c-.15.23-.29.47-.42.71a5.72,5.72,0,0,0-.38.82c-.13.33-.25.67-.35,1s-.19.71-.26,1.09a8.93,8.93,0,0,0-.13,2l-1.43-.05a12,12,0,0,1,.09-2,11,11,0,0,1,.44-1.95q.26-.77.54-1.41m3.69-1.46c0-.25-.11-.37-.3-.38a2,2,0,0,0-.64.1l.17,0-.44.32c.09.09.15.14.17.17l0,0a0,0,0,0,1,0,0s.06,0,.14,0h-.07a2.52,2.52,0,0,0,.65.11q.28,0,.27-.33M104.78,4l0-1V2a.62.62,0,0,1,0-.13.74.74,0,0,0,0-.15V1.66h0a3.91,3.91,0,0,0-1.09.12,1.29,1.29,0,0,0-.62.4,2.29,2.29,0,0,0-.27.61c-.07.24-.13.51-.19.82a1.75,1.75,0,0,0,0,.4v.38a6.31,6.31,0,0,0,.18,1.16,3.33,3.33,0,0,0,.55,1.23,1.43,1.43,0,0,1,.23-.2l.3-.2,0,0a2.3,2.3,0,0,1,1-.38V4Zm-1.31,22a2.17,2.17,0,0,0,.13-.5,1.77,1.77,0,0,0-.19-.9,1.44,1.44,0,0,0-.21-.24l0-1.09V22.07c0-.12,0-.25,0-.4s0-.29,0-.46,0-.6,0-.94,0-.64,0-.94,0-.54,0-.74-.06-.33-.11-.37h-.13l-.13,0h-.11l-.09,0-.4-.06h-.13a.17.17,0,0,0-.1,0h-.27a6.57,6.57,0,0,0-1.19.12,2.38,2.38,0,0,0-1.12.5,2.74,2.74,0,0,0-.86,1.42v0a5.3,5.3,0,0,0-.21.83,6.35,6.35,0,0,0-.07.85,7.67,7.67,0,0,0,.27,2.2,4.33,4.33,0,0,0,.88,1.69,6.58,6.58,0,0,0-.66,1.17,13.39,13.39,0,0,0-.55,1.41,12.06,12.06,0,0,0-.44,2,11,11,0,0,0-.09,2l1.45,0a7.9,7.9,0,0,1,.13-2,10.68,10.68,0,0,1,.26-1.08c.1-.35.22-.68.35-1a7.93,7.93,0,0,1,.38-.82c.14-.24.28-.48.43-.71a4.34,4.34,0,0,0,.84.22,1.06,1.06,0,0,0,.33,0c0,1,0,1.85,0,2.65s0,1.58,0,2.34v.3h1.38c0-.17,0-.39,0-.64s0-.46,0-.63c0-.54,0-1.09,0-1.66s0-1.18,0-1.83v-1a1.33,1.33,0,0,0,.27-.41m-2.89-1.58-.23.2a3.36,3.36,0,0,1-.56-1.22,6.44,6.44,0,0,1-.18-1.16v-.38a1.84,1.84,0,0,1,0-.41c.06-.3.12-.58.19-.82a2.09,2.09,0,0,1,.27-.6,1.21,1.21,0,0,1,.63-.4,4,4,0,0,1,1.1-.12h0v.24a.57.57,0,0,0,0,.13v1l0,1v2a2.27,2.27,0,0,0-1,.37l0,0-.3.19m1.61,1.29a2.46,2.46,0,0,1-.66-.1h.06c-.07-.05-.12-.07-.13-.06s0,0,0,0l0,0-.17-.16.44-.33a2.25,2.25,0,0,1,.49-.06q.28,0,.3.39c0,.22-.08.32-.27.32M45.12,31.38v.27a.44.44,0,0,0,0,.13s0,0,0,.08a.45.45,0,0,1-.16.29H43.52a1.36,1.36,0,0,0,0-.16,1.49,1.49,0,0,1,0-.19c0-.28,0-.55,0-.82s0-.55,0-.84V30l-.05-1c0-.11,0-.29,0-.52v-.79c0-.17,0-.33,0-.48s0-.34,0-.59l-.09-1.49c0-.24,0-.58-.05-1s0-.91,0-1.43c0-.32,0-.68,0-1.08V19.42L41,19.4c0,.18,0,.35,0,.52v3.53c0,.46,0,.83,0,1.1s0,.45,0,.53l.08,1.49.07,3.19.06,1.88a.23.23,0,0,0,0,.13s0,.06,0,.09a.45.45,0,0,1-.15.29h-.66l-.3,0h-.33a.49.49,0,0,1-.13-.16.37.37,0,0,1,0-.16c0-.28,0-.55,0-.83s0-.54,0-.84V30l0-1v-.51c0-.24,0-.51,0-.8l-.07-2.34c0-.1,0-.23,0-.38s0-.34,0-.56,0-.49,0-.78,0-.6,0-1,0-.66,0-1.06V19.38c0-.35,0-.72,0-1.09v-.11l0-.31h.3c.71,0,2.56,0,3.77,0h1.16a.42.42,0,0,1,.12.19c0,.05,0,.1,0,.14l0,1.7v2c0,.46,0,1,0,1.48v.33l.07,1.68v0c0,.16,0,.44,0,.85s0,.93,0,1.56l.06,2.71c0,.1,0,.19,0,.28a2.32,2.32,0,0,1,0,.24c0,.12,0,.23,0,.35Zm8.3-13.52a.76.76,0,0,0-.29-.23l-.24-.09a.77.77,0,0,0-.25,0,1.14,1.14,0,0,0-.64.18,2.25,2.25,0,0,0-.45.41,2.13,2.13,0,0,0-.37.86,7.76,7.76,0,0,0-.11.91V20a1.64,1.64,0,0,0,0,.22v.61c0,.15,0,.3,0,.46a.28.28,0,0,0,0,.09.28.28,0,0,1,0,.09v.2a1.49,1.49,0,0,0,0,.21v.19a.3.3,0,0,0,0,.16,3.54,3.54,0,0,1-.16.34c0,.11-.1.21-.13.29q-.24.57-.51,1.14c-.18.38-.38.76-.58,1.14l-.33.65-.15.24-.32.67-.22.47a5,5,0,0,1-.23.47l-.35.69c0-.88.06-1.71.08-2.51s0-1.57,0-2.3v-.8c0-.25,0-.5,0-.75s0-.73,0-1.08,0-.68,0-1v-2l-1.27,0c-.12,0-.18.13-.2.4s0,.59,0,.95v1.36c0,.28,0,.55,0,.82s0,.49,0,.67v2.07c0,.42,0,.84,0,1.25s0,.74,0,1c0,1.68-.06,3.45-.13,5.3v.43H48l.72-1.53.87-1.84c.32-.67.67-1.36,1-2.07L51,26c0,1.05-.05,2.06-.06,3s0,1.9,0,2.76v.34l1.29,0a.37.37,0,0,0,.15-.35c0-1.49,0-3.17.07-5.05l.06-2.45s0-.09,0-.14a.88.88,0,0,0,0-.16v-.31l0-1.05.5-1.38,0-.11c.12-.33.24-.7.35-1.11a4.34,4.34,0,0,0,.18-1.22v-.19a1.65,1.65,0,0,0,0-.21,1.1,1.1,0,0,0-.21-.51M52.6,20a4.48,4.48,0,0,1-.35.6,1.26,1.26,0,0,1-.33.37L52,20A3.18,3.18,0,0,1,52,19.6a1.46,1.46,0,0,1,.12-.37.6.6,0,0,1,.2-.24.24.24,0,0,1,.27,0,.36.36,0,0,1,.17.39,1.89,1.89,0,0,1-.19.6m7.64,7.08q0-.33-.06-.66a3.71,3.71,0,0,0-.55-1.6h0a1.82,1.82,0,0,0-.36-.42,4.63,4.63,0,0,0-.38-.32,1.81,1.81,0,0,0,.23-.28,1.57,1.57,0,0,0,.19-.33,6.89,6.89,0,0,0,.24-.92,8.14,8.14,0,0,0,.1-1.05,5.91,5.91,0,0,0,0-.94,3.94,3.94,0,0,0-.16-.92,2.43,2.43,0,0,0-.41-.8A2.58,2.58,0,0,0,57.51,18a6.36,6.36,0,0,0-.87-.06H56.2l-.44,0h-.39l-.18.05a.93.93,0,0,0-.28.18,1.88,1.88,0,0,0-.28.37,1.28,1.28,0,0,0-.11.58,14.32,14.32,0,0,1,.17,1.45c0,.48,0,1,0,1.46,0,.19,0,.38,0,.57s0,.38,0,.57v1.29c0,.65,0,1.31,0,1.95s0,1.29.07,1.92c0,.16,0,.3,0,.42v.43c0,.16,0,.31,0,.45s0,.28,0,.45v.2a.58.58,0,0,0,0,.19V31c0,.1,0,.24,0,.43a4.34,4.34,0,0,0,0,.44.61.61,0,0,0,.19.39.53.53,0,0,0,.34.14h.08l.13,0h.09l1.17,0a3.79,3.79,0,0,0,1-.18,2.16,2.16,0,0,0,1-.66c.25-.32.49-.64.71-1h0a5.33,5.33,0,0,0,.72-2.86c0-.21,0-.42,0-.65m-4.18-7.29A2.63,2.63,0,0,0,56,19.4h.85a1.57,1.57,0,0,1,1,.35.79.79,0,0,1,.27.44c0,.19.08.37.11.54a4.48,4.48,0,0,1-.14,1.73v0a1.87,1.87,0,0,1-.78,1.11h-.2a.69.69,0,0,1-.24,0l-.21,0h-.6v-.94c0-.18,0-.34,0-.5s0-.3,0-.46,0-.52,0-.78,0-.5,0-.73,0-.27,0-.4m2.76,7.83c0,.25,0,.5,0,.76a3.88,3.88,0,0,1-.14.77c-.08.25-.15.45-.22.62a2,2,0,0,1-.24.42,1.85,1.85,0,0,1-.28.28,1.74,1.74,0,0,1-.33.23,1.2,1.2,0,0,1-.57.15c-.23,0-.48,0-.74,0v-.42a.4.4,0,0,0,0-.17v-.22c0-.12,0-.23,0-.35s0-.23,0-.35V29a3.32,3.32,0,0,0,0-.35l0-.57c0-.19,0-.38,0-.58s0-.4,0-.6,0-.4,0-.59V25.1l0,0h1.37a.74.74,0,0,0,.22,0,1,1,0,0,1,.61.39,2.14,2.14,0,0,1,.36.76,3,3,0,0,1,.1.95Zm8.79-3.32v-.11c0-.37-.07-.74-.12-1.13a6.76,6.76,0,0,0-.25-1.15h0l0-.21h0l-.42-1.34A7.62,7.62,0,0,0,66.15,19a4.41,4.41,0,0,0-.51-.63,1.53,1.53,0,0,0-.76-.44.15.15,0,0,0-.12,0h-.15a1.38,1.38,0,0,0-.84.26c-.22.18-.41.34-.55.48a2.33,2.33,0,0,0-.52.85c-.09.29-.18.59-.25.88a.18.18,0,0,1,0,.06.15.15,0,0,0,0,.07c-.1.41-.19.83-.25,1.25s-.13.91-.19,1.46-.05.86-.06,1.27,0,.81,0,1.2A19.07,19.07,0,0,0,62.17,29c.07.38.16.76.26,1.16a4,4,0,0,0,.5,1.17,2,2,0,0,0,1.71,1.12l.22,0a.51.51,0,0,0,.17,0l.2-.06a2.52,2.52,0,0,0,.33-.15l.35-.22a2.14,2.14,0,0,0,.52-.55A6.25,6.25,0,0,0,67,30.5a5.88,5.88,0,0,0,.5-1.64,13.72,13.72,0,0,0,.17-1.53c0-.21,0-.44,0-.66s0-.47,0-.71,0-.52,0-.81,0-.58-.06-.85m-1.4,1.79a13,13,0,0,1-.13,1.9c-.25,1.76-.78,2.7-1.6,2.8-.32-.16-.59-.75-.8-1.77a9.69,9.69,0,0,1-.19-1.22c0-.43-.07-.9-.1-1.43,0-.14,0-.28,0-.41v-.42q0-.49,0-1.08c0-.39.05-.77.08-1.15s.1-.9.17-1.31.15-.78.22-1.11l.07-.27v0l.18-.54a1.31,1.31,0,0,1,.23-.38,2.11,2.11,0,0,1,.22-.22.93.93,0,0,1,.22.19,2,2,0,0,1,.15.2l0-.06,0,.1a5.29,5.29,0,0,1,.39.92c.1.32.2.65.31,1l.13.41,0,0,.11.41a4.85,4.85,0,0,1,.17.86c0,.32.07.65.1,1a.53.53,0,0,0,0,.13c0,.05,0,.09,0,.13a5.53,5.53,0,0,1,0,.69v.65Zm8.79,1c0-.22,0-.44-.07-.66a3.71,3.71,0,0,0-.54-1.6h0a1.82,1.82,0,0,0-.36-.42,4.64,4.64,0,0,0-.39-.32,1.38,1.38,0,0,0,.23-.28,1,1,0,0,0,.19-.33,6.89,6.89,0,0,0,.24-.92,8.07,8.07,0,0,0,.11-1.05c0-.31,0-.62,0-.94a4.53,4.53,0,0,0-.16-.92,2.64,2.64,0,0,0-.41-.8,2.18,2.18,0,0,0-.73-.6,2.15,2.15,0,0,0-.85-.29,6.62,6.62,0,0,0-.88-.06H71l-.43,0h-.4L70,18a1,1,0,0,0-.29.18,1.54,1.54,0,0,0-.27.37,1.28,1.28,0,0,0-.12.58,12,12,0,0,1,.18,1.45c0,.48,0,1,0,1.46,0,.19,0,.38,0,.57s0,.38,0,.57v1.29c0,.65,0,1.31,0,1.95s0,1.29.06,1.92a3.44,3.44,0,0,1,0,.42v.43c0,.16,0,.31,0,.45s0,.28,0,.45v.2a1.11,1.11,0,0,0,0,.19V31c0,.1,0,.24,0,.43s0,.33,0,.44a.61.61,0,0,0,.19.39.53.53,0,0,0,.34.14h.09l.13,0h.09l1.17,0a3.64,3.64,0,0,0,1-.18,2.1,2.1,0,0,0,1-.66,11.07,11.07,0,0,0,.71-1h0A5.33,5.33,0,0,0,75,27.73c0-.21,0-.42,0-.65m-4.19-7.29a2.6,2.6,0,0,0,0-.39h.85a1.57,1.57,0,0,1,1,.35.73.73,0,0,1,.26.44c0,.19.08.37.11.54a4.29,4.29,0,0,1-.13,1.73v0a1.85,1.85,0,0,1-.79,1.11h-.19a.79.79,0,0,1-.25,0l-.2,0h-.6v-.94c0-.18,0-.34,0-.5s0-.3,0-.46,0-.52,0-.78,0-.5,0-.73l0-.4m2.77,7.83c0,.25,0,.5,0,.76a3.89,3.89,0,0,1-.15.77,4,4,0,0,1-.22.62,1.66,1.66,0,0,1-.24.42,1.8,1.8,0,0,1-.27.28,2.24,2.24,0,0,1-.34.23,1.14,1.14,0,0,1-.57.15c-.23,0-.48,0-.74,0v-.42a.72.72,0,0,0,0-.17v-.22c0-.12,0-.23,0-.35s0-.23,0-.35V29a1.75,1.75,0,0,0,0-.35l0-.57,0-.58c0-.2,0-.4,0-.6s0-.4,0-.59V25.1l0,0h1.38a.68.68,0,0,0,.22,0,1,1,0,0,1,.61.39,2.14,2.14,0,0,1,.36.76,3.26,3.26,0,0,1,.1.95v.37Zm8.52-2.49c-.07-.41-.15-.85-.25-1.34s-.18-.94-.27-1.37-.15-.75-.2-.94c-.11-.41-.23-.8-.36-1.16a7,7,0,0,0-.43-1.05c-.07-.16-.16-.34-.26-.53s-.19-.35-.28-.5l-.24-.35H78.32a5.06,5.06,0,0,0-.55,1.16c-.11.38-.21.74-.28,1.07,0,.15,0,.29-.08.43s0,.28-.07.43l-.09.45c0,.15,0,.28,0,.39a2.46,2.46,0,0,1-.07.29c-.06.34-.11.66-.16,1l-.15,1a1.23,1.23,0,0,0,0,.2v.11c-.13,1.05-.23,2.1-.3,3.16s-.11,2.11-.11,3.16c0,.2,0,.43,0,.68s0,.47,0,.67a.91.91,0,0,0,.53.18h.52l.2,0,.15,0,0-.28v-.15c0-.21,0-.41,0-.6v-.6c0-.84,0-1.68.08-2.54s.13-1.72.23-2.58l0-.28,1.21,0c.39,0,.79,0,1.19-.05.18.92.34,1.88.47,2.88a22.74,22.74,0,0,1,.21,3.13c0,.07,0,.17,0,.3s0,.23,0,.31a.66.66,0,0,0,.13.51h1.18a.87.87,0,0,0,.12-.27.45.45,0,0,0,0-.11v-.08a4.1,4.1,0,0,0,0-.5v-.49a28.47,28.47,0,0,0-.45-4.78c0-.13-.08-.41-.16-.81m-2.78-1.61h-1l.14-.63.06-.46v0l.09-.48.09-.48.06-.33a1.25,1.25,0,0,0,0-.26,1.73,1.73,0,0,1,.08-.4,4.66,4.66,0,0,1,.2-.87l.08.12a.14.14,0,0,0,0,.06l0,.09s0,.1.07.19a12.68,12.68,0,0,1,.55,1.61c.16.56.3,1.14.43,1.76l-1,.05m10.15-1.63a2.53,2.53,0,0,0,0-.28,2.09,2.09,0,0,1,0-.24V21c0-.11,0-.23,0-.34a6.7,6.7,0,0,0-.17-.9,2.54,2.54,0,0,0-.45-.92,2.41,2.41,0,0,0-1.57-.9,4.82,4.82,0,0,0-.86-.09H85a2,2,0,0,0-.34,0l-.48,0a1.42,1.42,0,0,0,0,.28.85.85,0,0,0,0,.23v.17l.06,6.63q0,3.32,0,6.64a.37.37,0,0,0,0,.15,2,2,0,0,1,.09.2,2.29,2.29,0,0,0,.43,0h.81l.06-.27c0-.05,0-.09,0-.12,0-.83,0-1.66,0-2.5s0-1.66,0-2.49h.88l.19,0a3.9,3.9,0,0,0,.9-.19,1.89,1.89,0,0,0,.75-.44A3.17,3.17,0,0,0,89.1,25a6.47,6.47,0,0,0,.39-1.69,4.92,4.92,0,0,0,0-.94,1.93,1.93,0,0,0,0-.24,1.77,1.77,0,0,1,0-.24m-1.32.43a1.34,1.34,0,0,0,0,.21c0,.16,0,.3,0,.43s0,.27,0,.42a10.69,10.69,0,0,1-.23,1.07,1.13,1.13,0,0,1-.42.65,1.52,1.52,0,0,1-.53.25,3.2,3.2,0,0,1-.65.06H86l-.17,0h-.18l0-6.21a8.3,8.3,0,0,1,1.35.13,1.21,1.21,0,0,1,.86.44,1.1,1.1,0,0,1,.17.44q0,.25.09.54a.45.45,0,0,0,0,.11.49.49,0,0,1,0,.11c0,.1,0,.2,0,.3l0,.25c0,.1,0,.21,0,.31s0,.21,0,.3a1.48,1.48,0,0,1,0,.21m8.31,9.06v.27a.44.44,0,0,0,0,.13s0,0,0,.08a.43.43,0,0,1-.15.29H94.87s0-.07,0-.16,0-.15,0-.19c0-.28,0-.55,0-.82s0-.55,0-.84V30l0-1a3.27,3.27,0,0,1,0-.52v-.79c0-.17,0-.33,0-.48s0-.34,0-.59H92.42l.06,3.19.07,1.88a.24.24,0,0,0,0,.13s0,.06,0,.09a.43.43,0,0,1-.16.29h-.65l-.31,0h-.33A.69.69,0,0,1,91,32a.63.63,0,0,1,0-.16c0-.28,0-.55,0-.83s0-.54,0-.84V30l0-1v-.51c0-.24,0-.51,0-.8l-.06-2.34c0-.1,0-.23,0-.38s0-.34,0-.56,0-.49,0-.78,0-.6,0-1,0-.66,0-1.06V19.38c0-.35,0-.72,0-1.09v-.11l0-.31h1.55a1.5,1.5,0,0,1,.06.22.21.21,0,0,1,0,.17c0,.28,0,.56-.05.83l0,.83v3.52q0,.7,0,1.11c0,.27,0,.45,0,.53h2.3c0-.24,0-.58-.06-1s0-.91,0-1.43c0-.33,0-.69,0-1.09V19.39c0-.36,0-.73,0-1.1v-.11a.29.29,0,0,1,0-.09.72.72,0,0,1,.17-.2H96a.3.3,0,0,1,.12.19.71.71,0,0,1,0,.14l.05,1.7v2c0,.46,0,1,0,1.48v.33l.06,1.68v0c0,.16,0,.44,0,.85s0,.93,0,1.56l.07,2.71a2.53,2.53,0,0,0,0,.28,2.09,2.09,0,0,1,0,.24c0,.12,0,.23,0,.35Z"/></g></g></svg>