<svg xmlns="http://www.w3.org/2000/svg" viewBox="0 0 123.71 100"><defs><style>.cls-1{fill:#e22722;}</style></defs><g id="圖層_2" data-name="圖層 2"><g id="圖層_1-2" data-name="圖層 1"><path class="cls-1" d="M123.71,41.24c-1.71,1.5-3.39,3-5.12,4.48-1.15,1-2.35,1.88-3.66,2.93l-7.57-6-7.59,6-7.56-6-7.56,6-7.59-6-7.57,6-7.57-6-7.56,6-7.61-6-7.58,6-7.56-6-7.57,6-7.57-6-7.59,6c-3-2.51-6.15-4.61-8.86-7.32a6.69,6.69,0,0,1,.72-1A3.4,3.4,0,0,1,1.59,40l7.3,5.79,7.57-6,7.57,6,7.58-6,7.55,6,7.59-6,7.61,6,7.55-6,7.58,6,7.56-6,7.59,6,7.57-6,7.57,6,7.56-6,7.56,6,7.49-5.87,1.32,1ZM7.05,100a11.58,11.58,0,0,0,6.27-3.93,3.14,3.14,0,0,1,4.93,0,14.71,14.71,0,0,0,5.69,4H25.5a11.41,11.41,0,0,0,6.15-3.83c1.54-1.7,3.51-1.77,5-.12a14.35,14.35,0,0,0,5.7,4h1.88a12.51,12.51,0,0,0,5.83-3.86c1.58-1.76,3.47-1.51,5.34.12a15.71,15.71,0,0,0,4.78,3.3c2.79.93,5.28-.26,7.29-2.38,2.9-3.07,4.18-3.09,7.06-.14,3.79,3.89,8.08,3.77,11.73-.31,2.16-2.4,4.2-2.48,6.32,0A11.14,11.14,0,0,0,98.06,100h1.88a16.9,16.9,0,0,0,5.63-4,3.19,3.19,0,0,1,5,.2,11.74,11.74,0,0,0,6,3.85h1.25a9.5,9.5,0,0,0,5.95-4.06v-.63l-1.28-.74-.51-.31a6.19,6.19,0,0,1-.76,1.39c-2.5,2.62-5.51,2.61-8,0-.33-.34-.61-.72-.94-1.05-2.53-2.5-6.18-2.72-8.41,0-3.07,3.79-7,3.89-10.16,0-2.25-2.77-6-2.46-8.52.16a18.65,18.65,0,0,1-1.52,1.56,4.81,4.81,0,0,1-6.65-.06c-.66-.58-1.23-1.27-1.87-1.88a5.56,5.56,0,0,0-7.75-.17,13.83,13.83,0,0,0-1.18,1.24c-2.54,2.81-5.59,2.88-8.26.19-.33-.33-.63-.69-1-1a5.68,5.68,0,0,0-8.57.09c-.47.49-.89,1-1.4,1.46A4.92,4.92,0,0,1,39.8,96c-.57-.53-1.07-1.14-1.64-1.67a5.53,5.53,0,0,0-7.75-.08c-.62.55-1.16,1.2-1.76,1.77a5,5,0,0,1-7.26,0c-.64-.6-1.2-1.3-1.86-1.88a5.52,5.52,0,0,0-7.52.06c-.46.42-.87.9-1.3,1.35-2.58,2.69-5.34,2.74-8,.17a18.3,18.3,0,0,0-1.53-1.18L0,95.92a9.68,9.68,0,0,0,1.57,1.82c1.25.84,2.61,1.52,3.92,2.26ZM123.71,85.93a1.76,1.76,0,0,1-.34-.39Q116.65,70.76,109.93,56c-.45-1-1-1.84-2.22-1.88s-1.91.81-2.38,1.88c-1.3,2.93-2.64,5.86-4,8.78C98.3,71.49,95.21,78.23,92.16,85c-1,2.2-.21,3.4,2.2,3.42h3.75a3,3,0,0,0,3-2c.38-.9.78-1.79,1.17-2.67h10.52c1.31,1.71,1.1,4.85,4.32,4.62,2.21-.16,4.67.87,6.54-1.19Zm-2.5.19h-4.75c-.68-1.46-1.37-3-2.09-4.52H100.9l-2.06,4.51H94.07c4.51-9.92,9-19.74,13.56-29.86C112.23,66.38,116.69,76.18,121.21,86.12Zm2.5-53.94s-.13,0-.15-.06Q116.78,17.21,110,2.27c-.5-1.09-1-2-2.41-2s-1.89,1-2.37,2.1q-3.3,7.29-6.61,14.58c-2.17,4.76-4.36,9.51-6.5,14.29-.91,2-.19,3.18,1.92,3.21,1.4,0,2.81,0,4.21,0a2.78,2.78,0,0,0,2.9-1.9c.41-.94.84-1.86,1.24-2.74h10.52c.41.9.83,1.78,1.2,2.69a2.77,2.77,0,0,0,3,2,26.08,26.08,0,0,1,3.75,0,2.84,2.84,0,0,0,2.86-1.33ZM107.63,2.36l13.54,29.79h-4.76c-.69-1.51-1.38-3-2.08-4.56H101l-2,4.53H94.1C98.63,22.16,103.09,12.36,107.63,2.36Zm-83.44,7c1.9,0,2.55-.66,2.57-2.5q0-1.95,0-3.9c0-1.82-.61-2.45-2.42-2.49-2,0-4,0-5.94,0-5.16,0-10.32,0-15.47,0C.82.45.22,1.07.2,3.13V6.57C.22,8.7.85,9.32,3,9.33H8.93c0,7.52,0,14.81,0,22.1,0,2.24.6,2.83,2.88,2.85h3.44c2.21,0,2.79-.58,2.79-2.75q0-4.92,0-9.84V9.33ZM15.82,31.9H11.14V7.13H2.44V2.78h22V7.06H15.82ZM8.93,65q0,10.31,0,20.61c0,1.88.65,2.5,2.53,2.51h3.91c2.16,0,2.67-.5,2.67-2.65q0-10.31,0-20.61V63.16c2.4,0,4.53,0,6.66,0a1.82,1.82,0,0,0,2-2c0-1.51,0-3,0-4.53s-.68-2.24-2.31-2.24H2.57C1,54.37.26,55,.21,56.59s0,2.92,0,4.38.7,2.17,2.21,2.19c2.08,0,4.16,0,6.51,0Zm2.2,20.88V61H2.47V56.66h22v4.23H15.92v25ZM45,53.88c-9.08-.17-16.8,7.61-17,16.82s6.63,17.79,16.85,17.9A17.37,17.37,0,0,0,45,53.88Zm14.62,17.4A14.73,14.73,0,1,1,44.88,56.16,14.7,14.7,0,0,1,59.62,71.28ZM45,0A17.05,17.05,0,0,0,28,17C28,27,35.25,34.67,44.84,34.68a17,17,0,0,0,17-17.26A17.09,17.09,0,0,0,45,0Zm-.1,32.48a14.78,14.78,0,0,1-14.68-15,14.73,14.73,0,1,1,29.44-.07A14.79,14.79,0,0,1,44.86,32.48Zm36.59-9.7A11,11,0,0,0,91.85,12C92,5.92,87.8,1,82,.59,78.2.36,74.39.44,70.59.46c-1.58,0-2.21.75-2.22,2.37q0,14.54,0,29.06c0,1.65.71,2.34,2.4,2.38,1.41,0,2.81,0,4.22,0,1.75,0,2.42-.73,2.43-2.49,0-2.92,0-5.83,0-9C78.86,22.79,80.16,22.83,81.45,22.78ZM75.2,31.94H70.65V2.87c4.08,0,8.17-.4,12.15.1,4.53.56,7.32,5.06,6.82,9.86A9,9,0,0,1,81,20.6c-1.86,0-3.73,0-5.81,0Zm5.63,44.67a10.93,10.93,0,0,0,11-9.5c.72-6-2.79-11.54-8.57-12.38-4.34-.62-8.82-.33-13.23-.31-1.13,0-1.62,1-1.62,2.12q0,14.67,0,29.34c0,1.58.71,2.22,2.32,2.24,1.35,0,2.71,0,4.06,0,2.09,0,2.66-.58,2.66-2.69,0-2.89,0-5.79,0-8.83C78.66,76.61,79.74,76.62,80.83,76.61Zm-5.59,9.23H70.63v-29c4.06,0,8.15-.43,12.11.11,4.71.64,7.34,4.86,6.88,9.77a8.84,8.84,0,0,1-8.43,7.73c-1.91.08-3.83,0-6,0ZM108.35,67.9h-1.47l-4.23,9.56h10C111.17,74.2,109.77,71.06,108.35,67.9Zm-.74,3.76,1.6,3.53h-3.16Zm5-48.06-4.24-9.47h-1.6l-4.18,9.47Zm-3.4-2.2H106l1.58-3.67ZM54.82,71.23a9.9,9.9,0,1,0-19.79,0,9.9,9.9,0,1,0,19.79,0Zm-2.16,0a7.76,7.76,0,1,1-7.79-7.87A7.84,7.84,0,0,1,52.66,71.26Zm2.16-53.87A9.9,9.9,0,1,0,35,17.33a9.9,9.9,0,1,0,19.79.06Zm-17.68,0a8.08,8.08,0,0,1,7.64-7.95,8.06,8.06,0,0,1,7.88,7.86,8,8,0,0,1-7.71,8A8,8,0,0,1,37.14,17.36Zm40.19-1.14c1.2,0,2.4.06,3.6,0a4.54,4.54,0,0,0,4.16-4.48,4.3,4.3,0,0,0-3.54-4.48c-2-.19-4.12,0-6.24,0v9Zm.14-6.86c1.18,0,2.35-.08,3.5,0a2,2,0,0,1,2,2.06,2.29,2.29,0,0,1-2.07,2.49,23.56,23.56,0,0,1-3.38,0Zm3,60.69a4.41,4.41,0,0,0,4.63-4.28,4.33,4.33,0,0,0-3.85-4.71,53,53,0,0,0-5.92,0v9C77.12,70.05,78.79,70.07,80.45,70.05Zm-3-6.87c1.09,0,2.12-.07,3.13,0a2.33,2.33,0,1,1-.22,4.64c-.73,0-1.46,0-2.18,0-.21,0-.41,0-.73,0Z"/></g></g></svg>