<svg xmlns="http://www.w3.org/2000/svg" viewBox="0 0 166.07 100"><defs><style>.cls-1{fill:#e4a22e;}.cls-2{fill:#e4a22c;}.cls-3{fill:#e4a22d;}.cls-4{fill:#e4a22f;}.cls-5{fill:#e3a22e;}.cls-6{fill:#e5a32f;}.cls-7{fill:#e4a331;}.cls-8{fill:#e5a635;}.cls-9{fill:#efefe5;}</style></defs><g id="圖層_2" data-name="圖層 2"><g id="圖層_1-2" data-name="圖層 1"><path d="M130.57,27.22c.12-.46,0-.65-.4-.59-1,.13-1.94.28-2.9.46a1.35,1.35,0,0,0-.84.7c-.8,1.23-1.58,2.48-2.44,3.67a23,23,0,0,1-5.68,5.67,34.81,34.81,0,0,1-6.54,3.42,9.63,9.63,0,0,1-4.88.56l-1-.12a4,4,0,0,1-2.76-1.61l-.52-.66c-.22-.54-.43-1.09-.65-1.63l-.24-.51c-.25.17-.47.3-.67.46C100,37.9,99,38.8,97.9,39.63a9.85,9.85,0,0,1-1.68,1,6.22,6.22,0,0,1-1.77.72,6.47,6.47,0,0,1-2.4-.19,1.15,1.15,0,0,1-.74-.72c-.16-.36-.3-.73-.45-1.1s0-1.06-.42-1.47c-.19-.56-.39-.67-.89-.42a2,2,0,0,0-.65.52,12.75,12.75,0,0,1-2.39,2.13,6.06,6.06,0,0,1-3.39,1.08,2.32,2.32,0,0,1-1.76-.76A4.35,4.35,0,0,1,80.1,38a.82.82,0,0,0-.1-.26c0-.65,0-1.3,0-2,0-.25.15-.52-.14-.78-.14.1-.3.19-.44.3a10.11,10.11,0,0,1-5.07,2.19,2.61,2.61,0,0,1-.56,0,1.85,1.85,0,0,0-1.54.54,12.77,12.77,0,0,1-4.6,2.68,7.88,7.88,0,0,1-4.51.16,3.57,3.57,0,0,1-2.37-1.87,7.57,7.57,0,0,1-.79-4.37A15.32,15.32,0,0,1,62.39,28a22.78,22.78,0,0,1,3.31-4.36c2-2,4.17-3.8,7.06-4.45A9.72,9.72,0,0,1,76.63,19a3.46,3.46,0,0,1,2.78,2.43,7.75,7.75,0,0,1,0,4.62,24.55,24.55,0,0,1-3.22,7.36c-.18.26-.32.55-.47.81.45.32.53.31,1-.1a4.12,4.12,0,0,0,.53-.12,7.81,7.81,0,0,0,2.08-1.48,6.23,6.23,0,0,0,2.09-2.24q.18-.36.33-.72a14.54,14.54,0,0,1,3-4.6c.66-.68,1.34-1.33,2-2,.23-.22.45-.45.69-.66a10.41,10.41,0,0,1,.94-.82,20,20,0,0,1,3.87-2.08,8.15,8.15,0,0,1,3.82-.51,3,3,0,0,1,2.23,1.18c.2.25.42.48.6.69a1.32,1.32,0,0,0,.88-.59c1.08-1.51,2.15-3,3.23-4.56l.64-.91c.12-.2,0-.33-.16-.39a3.31,3.31,0,0,0-.7-.2,52.37,52.37,0,0,0-10.69-.69c-1.44,0-2.89.15-4.34.22h-.94c0-.29.16-.34.33-.4.76-.28,1.52-.57,2.29-.8A38.57,38.57,0,0,1,100,11c2,0,3.92-.09,5.87.06a2.75,2.75,0,0,0,2.41-1.13,30.27,30.27,0,0,1,9.06-7.36,17.83,17.83,0,0,1,5.27-2.1c.61-.13,1.23-.19,1.84-.29.24,0,.48-.11.72-.14a2.16,2.16,0,0,1,.67,0c.82.19,1.64.4,2.45.62a5.44,5.44,0,0,1,.94.38A3.74,3.74,0,0,1,131,6a10.72,10.72,0,0,1-4.1,4.69A21.52,21.52,0,0,1,121,13.28a39.56,39.56,0,0,1-6.09,1.13,30.52,30.52,0,0,1-3.94.23,2.5,2.5,0,0,0-1.94.75c-.54.56-1.09,1.1-1.57,1.7a110.09,110.09,0,0,0-7.35,9.72c-1.77,2.76-3.7,5.41-5.22,8.32-.31.58-.58,1.18-.84,1.78a.85.85,0,0,0,.35,1.17,1.73,1.73,0,0,0,1.52,0,9.33,9.33,0,0,0,2.48-1.74c.87-.83,1.76-1.64,2.61-2.5a4.8,4.8,0,0,0,1.26-2.42,11.64,11.64,0,0,1,1.84-4.15A20.5,20.5,0,0,1,108,22.89a19.68,19.68,0,0,1,5.58-3.36,8.35,8.35,0,0,1,4.6-.45A3.45,3.45,0,0,1,121,22.4a6,6,0,0,1-.69,3,10.46,10.46,0,0,1-4.11,4.38c-.77.44-1.52.9-2.28,1.36a8.43,8.43,0,0,1-3.69,1.11c-.86.07-1.73.08-2.59.09a1.49,1.49,0,0,0-1.54,1.15,3.09,3.09,0,0,0,.58,2.92,1.37,1.37,0,0,0,1.09.93,5.23,5.23,0,0,0,3.27.18c1.07-.29,2.15-.57,3.21-.88a4.79,4.79,0,0,0,.93-.41,24.12,24.12,0,0,0,7.47-6.53c.53-.68,1-1.39,1.5-2.11a4.73,4.73,0,0,0,.77-3.39,4.84,4.84,0,0,1,.35-2.38,12.2,12.2,0,0,1,.77-1.69c.35-.64.74-1.26,1.14-1.88a7.87,7.87,0,0,1,2.58-2.49,3.8,3.8,0,0,1,.82-.37,1,1,0,0,1,1.26.45,2.47,2.47,0,0,1,.3,2.06,5.21,5.21,0,0,1-.45,1.09c-.61,1.13-1.24,2.24-1.86,3.36a3.07,3.07,0,0,0-.47,1.3l.56.24a2.8,2.8,0,0,0,2-.55l2.29-.93,1.41-.58a3,3,0,0,1,1.39-.18.73.73,0,0,1,.74.92,3.33,3.33,0,0,1-.33,1,22.1,22.1,0,0,1-3.13,4.54,26.27,26.27,0,0,0-3.08,4.32,10.71,10.71,0,0,0-1.62,3.82,8.88,8.88,0,0,0-.09,1.46.9.9,0,0,0,.36.79.88.88,0,0,0,1.25.18,8.11,8.11,0,0,0,2.73-2.23c1.24-1.48,2.42-3,3.58-4.52.84-1.1,1.67-2.23,2.42-3.4a64.36,64.36,0,0,1,5-6.44A12.18,12.18,0,0,1,148,19.38a3.6,3.6,0,0,1,.83-.36,2.13,2.13,0,0,1,2.59,1.16,4.24,4.24,0,0,1,.33,1.35,10,10,0,0,1-.37,3.52,1.32,1.32,0,0,0,.09,1.14l.42-.24,1.47-1.37c.42-.4.85-.79,1.27-1.2s.76-.78,1.17-1.14c.6-.51,1.22-1,1.83-1.5A9.08,9.08,0,0,1,162,19a2.38,2.38,0,0,1,1.93.6,1.53,1.53,0,0,1,.48.93,6.71,6.71,0,0,1-.38,3.71q-.31.84-.66,1.68a11.45,11.45,0,0,1-1.12,2c-1.72,2.58-3.43,5.17-5.08,7.8a53.27,53.27,0,0,0-4.21,8.66,3.78,3.78,0,0,0-.14.76l2.06.26a7,7,0,0,1,3.3,1.76,3,3,0,0,1,.89,2.14,4.55,4.55,0,0,1-2.8,4.87,6.76,6.76,0,0,1-4.78.44,5.48,5.48,0,0,1-3.69-3.15c-.1-.21-.18-.42-.27-.62-.06-.42-.12-.84-.19-1.25l0-.68c-.58.11-1.11.19-1.63.32-3.94,1-7.89,1.92-11.83,2.93a69.33,69.33,0,0,1-7.44,1.31,84.27,84.27,0,0,1-8.55.58c-1.55.05-3.09,0-4.63-.06a32.16,32.16,0,0,1-3.36-.43,25.32,25.32,0,0,1-5.41-1.33c-.56-.22-1.09-.5-1.65-.73-.34-.15-.7-.25-1-.38a1,1,0,0,1-.34-.17L99.59,49.3c-.16-.15-.29-.31-.18-.56s.46,0,.68.1a25.15,25.15,0,0,0,6.75,2,44.09,44.09,0,0,0,9.74.34c2.68-.19,5.37-.41,8-.84a110.56,110.56,0,0,0,12.21-2.5c2.08-.59,4.19-1.08,6.29-1.58,1.33-.32,2.68-.58,4-.85a1,1,0,0,0,.8-.73c.55-1.46,1.19-2.88,1.77-4.33A41.68,41.68,0,0,1,153.8,33c1.26-1.88,2.56-3.72,3.83-5.59.22-.31.4-.63.6-.95l.24-.41h0l.09-.18a4.37,4.37,0,0,0,1.12-2.54,1,1,0,0,0,.07-.33c0-.29-.18-.41-.46-.3a4.59,4.59,0,0,0-.79.42,23.42,23.42,0,0,0-3.26,2.69,63.12,63.12,0,0,0-9.3,11.75c-.61.95-1.32,1.83-2,2.72a1.85,1.85,0,0,1-1.45.65c-.73,0-1.47,0-2.2,0a2.45,2.45,0,0,1-.91-.27.78.78,0,0,1-.38-1.18,2.9,2.9,0,0,1,.31-.54q1.56-2.25,3.13-4.49a43.44,43.44,0,0,0,4.11-7.32,2.71,2.71,0,0,0,.09-.41h0l.12-.12a2.83,2.83,0,0,0,.54-1.44,2.08,2.08,0,0,0,0-1.26l-.24-.57a1,1,0,0,0-1,.4c-.73.88-1.46,1.77-2.16,2.67s-1.15,1.58-1.73,2.37c-1.81,2.52-3.65,5-5.43,7.57a12.54,12.54,0,0,1-2,2.27c-.41.35-.83.7-1.23,1.08a5.75,5.75,0,0,1-2.83,1.43,7.27,7.27,0,0,1-3.08.07,4.56,4.56,0,0,1-2-1.15A2,2,0,0,1,125,38.4a10,10,0,0,1,1.54-5c.92-1.4,1.88-2.77,2.82-4.15l.31-.47A2.74,2.74,0,0,0,130.57,27.22Zm25.64,22.32a.78.78,0,0,0-.61-.6,8,8,0,0,0-.81-.21c-.76-.15-1.51-.29-2.27-.42-.5-.09-.69,0-.77.41a4.4,4.4,0,0,0,.05,2.49,1.06,1.06,0,0,0,.53.69l.83.38a3,3,0,0,0,3.4-.81.91.91,0,0,0,.25-1A1.05,1.05,0,0,0,156.21,49.54ZM64.88,37l1,.62a1,1,0,0,0,.29.16,4,4,0,0,0,3.17-.59c.39-.23.42-.53.11-.86a1.64,1.64,0,0,0-.26-.2,4.27,4.27,0,0,1-1.81-2.81c-.12-.63-.23-1.26-.34-1.88a11,11,0,0,1,.38-2.78,6.48,6.48,0,0,0,.08-.77c.2-.5.58-1,.43-1.61a2.24,2.24,0,0,0-1,.86c-.2.3-.38.6-.57.9a15.3,15.3,0,0,0-1.9,4,7.57,7.57,0,0,0-.16,4A1.87,1.87,0,0,0,64.88,37Zm5.44-4.27a6.5,6.5,0,0,1,.52.77,1.32,1.32,0,0,0,.93.79l.52.31a2.65,2.65,0,0,0,.35-.25,4.47,4.47,0,0,0,.42-.45,19.71,19.71,0,0,0,4.08-8.68A2.6,2.6,0,0,0,77,23.52a1.32,1.32,0,0,0-.56-1A1.23,1.23,0,0,0,74.7,22a6.38,6.38,0,0,0-1.38.76,9.11,9.11,0,0,0-3.66,6A6,6,0,0,0,70.32,32.74ZM107.84,30a2.25,2.25,0,0,0,1.71-.06l.55-.12a7.67,7.67,0,0,0,3.23-1.37,1.2,1.2,0,0,1,.3-.15,4.21,4.21,0,0,0,1.44-1c.45-.46.85-1,1.33-1.38a4,4,0,0,0,1.35-2.7,1.07,1.07,0,0,0-.24-1.23.77.77,0,0,0-.72-.46,7.79,7.79,0,0,0-1.61.2,6.55,6.55,0,0,0-2.55,1.42c-1.08,1-2.15,2-3.17,3.05a18.38,18.38,0,0,0-1.38,1.78,3.39,3.39,0,0,0-.54,1.3C107.47,29.67,107.52,29.9,107.84,30ZM127.68,3A.73.73,0,0,0,127,2.5a5.18,5.18,0,0,0-1.24,0,11.8,11.8,0,0,0-5.33,2.15,13.27,13.27,0,0,1-1.14.83,34.24,34.24,0,0,0-5.25,4.36,2,2,0,0,0-.38.48c-.16.31-.11.4.27.57l.32.07a7,7,0,0,0,2.37-.25c.47-.05.94-.07,1.4-.16a17.67,17.67,0,0,0,6.72-3,9.25,9.25,0,0,0,2.39-2.52,4.68,4.68,0,0,0,.32-.76C127.91,3.86,127.71,3.42,127.68,3ZM84.31,37.1c.41.42.83.25,1.25,0s.77-.38,1.14-.61a16.66,16.66,0,0,0,4.36-3.88c1.19-1.52,2.3-3.11,3.4-4.7a13.53,13.53,0,0,0,1.19-2.1,6.32,6.32,0,0,0,.77-2.4,1.25,1.25,0,0,0-.22-1.23c-.16-.14-.3-.4-.48-.42a3.1,3.1,0,0,0-2.29.3,10.73,10.73,0,0,0-1.62,1.22c-1.15,1.13-2.28,2.29-3.34,3.51a36.51,36.51,0,0,0-3.71,5.71A10.39,10.39,0,0,0,84,34.33a4.17,4.17,0,0,0-.17,1.89A1.15,1.15,0,0,0,84.31,37.1Z"/><path d="M107.7,77.28l-.3-.59L107,77c-.93.7-1.83,1.44-2.79,2.1a10,10,0,0,1-4.45,1.8,7.09,7.09,0,0,1-2.64-.11,2.63,2.63,0,0,1-2.22-3,4.2,4.2,0,0,1,.24-1.27,23.31,23.31,0,0,1,3.26-6.28c.87-1.2,1.69-2.44,2.53-3.67.13-.19.22-.39.33-.59s.43-.6.61-.92a3.9,3.9,0,0,0,.65-1.92.57.57,0,0,0-.15-.7,2.48,2.48,0,0,0-1,.49,32.9,32.9,0,0,0-2.89,2.35c-1.48,1.45-2.91,3-4.25,4.52a67.34,67.34,0,0,0-5.32,7.43c-.61,1-1.32,1.83-2,2.72a1.81,1.81,0,0,1-1.44.68c-.71,0-1.43,0-2.14,0a2.61,2.61,0,0,1-1-.33.68.68,0,0,1-.31-.92,2.85,2.85,0,0,1,.28-.55c.67-1,1.3-2,2-2.93a40.08,40.08,0,0,0,4-6.51c.41-.83.82-1.66,1.25-2.47a3.34,3.34,0,0,0,.39-1.23,2.81,2.81,0,0,0,.19-.39,2.08,2.08,0,0,0,.08-1.55,1.25,1.25,0,0,0-.08-.32c-.16-.29-.3-.34-.59-.2a3.91,3.91,0,0,0-.44.26,20.5,20.5,0,0,0-2.66,2.26A51,51,0,0,0,80,73.26c-.86,1.21-1.61,2.5-2.45,3.72-.7,1-1.46,2-2.21,3a1.69,1.69,0,0,1-1.33.65c-.77,0-1.55,0-2.32,0a1.75,1.75,0,0,1-.74-.21c-.57-.31-.78-.69-.39-1.29.67-1,1.29-2,2-3a42,42,0,0,0,4.54-7.45c.36-.74.72-1.49,1.09-2.23.06-.13.13-.26.18-.4a3.64,3.64,0,0,0,.32-2.34l-.26-.53a1.26,1.26,0,0,0-1,.56c-1.45,1.9-2.93,3.77-4.35,5.7-1.69,2.3-3.34,4.64-5,7a10.22,10.22,0,0,1-6.54,4.28,4.16,4.16,0,0,1-4.1-1.12,3.41,3.41,0,0,1-1-2.7,10.75,10.75,0,0,1,1.11-4.1,61.79,61.79,0,0,1,5.62-8.58c.61-.86,1.23-1.71,1.9-2.52a11.54,11.54,0,0,1,1.46-1.42,3.91,3.91,0,0,1,2.37-.94,3.12,3.12,0,0,1,1.2.23.68.68,0,0,1,.34,1.11c-.25.42-.53.82-.81,1.21-1.38,1.89-2.78,3.76-4.15,5.64a41.64,41.64,0,0,0-3.88,6.35,17.59,17.59,0,0,0-.87,2.26,2.48,2.48,0,0,0-.1.94c0,.2.2.38.3.57a1.34,1.34,0,0,0,1.4.18A5.65,5.65,0,0,0,65,76.23a26.47,26.47,0,0,0,3-3.51c1.55-2.08,3-4.2,4.56-6.3a37.87,37.87,0,0,1,4.9-5.81,18,18,0,0,1,2-1.5,2.26,2.26,0,0,1,1.5-.37A2.07,2.07,0,0,1,83,60.45,8.19,8.19,0,0,1,83,63.37a17.16,17.16,0,0,1-.36,1.7,2.6,2.6,0,0,0-.05.39c0,.46.13.53.58.34l1.5-1.41c.89-.84,1.76-1.69,2.66-2.52a14.81,14.81,0,0,1,3.06-2.21,9.07,9.07,0,0,1,2.67-.86,2.21,2.21,0,0,1,1.71.39,1.64,1.64,0,0,1,.72,1,5.91,5.91,0,0,1-.16,3.23c-.2.63-.43,1.24-.65,1.86,0,.14-.07.28-.13.48.53-.15.74-.59,1.06-.87s.8-.71,1.19-1.08c.15-.15.27-.33.41-.5l3-2.62a9.49,9.49,0,0,1,4.45-1.94,2.11,2.11,0,0,1,2.56,1.9,6.65,6.65,0,0,1-.27,2.84,16,16,0,0,1-2.2,4.61c-1.36,1.91-2.65,3.88-4,5.84a13.65,13.65,0,0,0-.93,1.67,1.7,1.7,0,0,0,.26,2c.37.6.92.56,1.51.42a3.13,3.13,0,0,0,1.36-.65c.83-.7,1.66-1.42,2.47-2.14.45-.4.87-.84,1.31-1.25a2,2,0,0,0,.66-1.22,13.73,13.73,0,0,1,3.28-7.19,15.65,15.65,0,0,1,2.57-2.76,45,45,0,0,1,4-2.73,9.88,9.88,0,0,1,6-1.32,3.58,3.58,0,0,1,3.23,3.58,6.75,6.75,0,0,1-1.22,3.74,11.76,11.76,0,0,1-5,4.29,3.89,3.89,0,0,0-.58.35A7.67,7.67,0,0,1,116.3,72a18,18,0,0,1-3.44.16.88.88,0,0,0-1,.56,3.61,3.61,0,0,0-.32,1.24,3.9,3.9,0,0,0,.57,2.15,2.16,2.16,0,0,0,1.16.94,4.78,4.78,0,0,0,3.14.28c1.21-.34,2.44-.62,3.63-1a12.49,12.49,0,0,0,3.46-2.09,30.24,30.24,0,0,0,5.3-5.6c.38-.51.75-1,1.1-1.57a3.42,3.42,0,0,0,.6-2.79c-.64-2.47,1.3-5.45,3-6.6a2.83,2.83,0,0,1,2-.44,1.13,1.13,0,0,1,1,.77,3.09,3.09,0,0,1-.15,2.62c-.47.88-1,1.74-1.45,2.61l-.47.88.39.53,1.32.92c.79.54,1.59,1.07,2.36,1.63a6.1,6.1,0,0,1,2,6.74,9.62,9.62,0,0,1-7.6,6.7,10.71,10.71,0,0,1-4.58-.15,3.18,3.18,0,0,1-1.15-.57,1.88,1.88,0,0,1-.67-2.07,2.33,2.33,0,0,1,2-2c.09,0,.18-.07.27-.1a7.65,7.65,0,0,1,.94.15,1,1,0,0,1,.63,1.51,3,3,0,0,1-.4.53c-.37.44-.34.59.19.89a1.89,1.89,0,0,0,1.93-.2,7.33,7.33,0,0,0,4.64-4.13,3.59,3.59,0,0,0-.45-3.72l-.25-.23h0c0-.22-.15-.31-.36-.32h0l-.12-.11h0a.71.71,0,0,0-.57-.46h0a4.09,4.09,0,0,0-.39-.44c-.41-.37-.84-.73-1.27-1.08-.14-.11-.3-.21-.45-.31l-.63-.62c-.25.36-.46.67-.66,1a37.15,37.15,0,0,1-4.54,6,24.37,24.37,0,0,1-8.41,5.67,13,13,0,0,1-6,1.11,13.64,13.64,0,0,1-1.78-.26,3.19,3.19,0,0,1-1.76-1.06c-.24-.29-.51-.56-.76-.83Zm5.84-7.41a2,2,0,0,0,1.54-.09,8.52,8.52,0,0,0,3.71-1.4,1.11,1.11,0,0,1,.3-.17,4.74,4.74,0,0,0,1.66-1.14c.43-.45.82-.94,1.28-1.35a3.88,3.88,0,0,0,1.27-2.63.89.89,0,0,0-.18-1.13,1,1,0,0,0-1.09-.6,3.35,3.35,0,0,0-.77.13,9.29,9.29,0,0,0-3.94,2.21,25.1,25.1,0,0,0-3.8,4.37,3.79,3.79,0,0,0-.46,1.14C113,69.56,113.11,69.73,113.54,69.87Z"/><path d="M59.07,17l2-2.84a.66.66,0,0,0-.77.28l-2.65,2.93Q54.86,20.5,52,23.7c-.48.55-.91,1.15-1.37,1.72L48.62,28c-.21.26-.41.54-.61.81-.81,1.11-1.64,2.2-2.42,3.33s-1.65,2.42-2.47,3.64c-.17.25-.31.51-.5.75A18.16,18.16,0,0,0,40.44,40c-.13.25-.28.49-.42.73a.62.62,0,0,1-.78.33,5.14,5.14,0,0,1-.35-1.91,55.72,55.72,0,0,1,0-8.57,70.44,70.44,0,0,1,1-7.36c.11-.65.19-1.3.29-1.95.3-1.28.59-2.56.89-3.84.17-.43.36-.86.52-1.3a1.73,1.73,0,0,0,0-1c-.23.29-.41.48-.55.69-1.59,2.36-3.19,4.71-4.76,7.08C35,24.92,33.78,27,32.43,29s-2.78,3.89-4.2,5.82A15.47,15.47,0,0,1,27,36.22c-.32.35-.69.64-1,1a22.19,22.19,0,0,1-4.73,3.91A15.47,15.47,0,0,1,17.34,43a10.52,10.52,0,0,1-5,.75,18.59,18.59,0,0,1-5.15-.56,6,6,0,0,0-2.15-.88l-.81-.46h0l-.11-.12a4.83,4.83,0,0,0-.56-.55,7.23,7.23,0,0,1-2.41-3,10.91,10.91,0,0,1-.89-2.84c-.1-.61-.24-1.2-.29-1.83a11.14,11.14,0,0,1,1.47-5.65,10.85,10.85,0,0,1,3.42-4.21,13,13,0,0,1,5.33-2.34,5.76,5.76,0,0,1,2.41,0,8.29,8.29,0,0,0,1.23.19,4.85,4.85,0,0,1,2,.58c.17.1.32.24.49.35-.1.3-.28.39-.5.34a9.07,9.07,0,0,0-4.37.62,3.52,3.52,0,0,0-.82.36,11.86,11.86,0,0,0-5.05,5.54A10.78,10.78,0,0,0,5.08,32a8,8,0,0,0,.49,4c.14.39.29.77.44,1.16s.38.63.58.94a3.06,3.06,0,0,0,1.34,1.37,6.28,6.28,0,0,0,2.67,1.39,6.45,6.45,0,0,0,4-.16,10.16,10.16,0,0,0,3.67-2c1.51-1.3,3-2.61,4.4-4.05.29-.3.56-.62.82-.94,1.18-1.46,2.39-2.91,3.54-4.4,1.89-2.44,3.77-4.89,5.6-7.37,2.89-3.9,5.86-7.75,9-11.46q1.6-1.89,3.29-3.72a27.69,27.69,0,0,1,5-4.31c.31-.21.67-.42,1-.17s.16.62,0,1l-.06.16C50,5.28,49.18,7.18,48.36,9.07c-.19.43-.39.86-.54,1.3-.66,2-1.31,3.93-2,5.89-.11.32-.16.66-.24,1-.21.87-.39,1.76-.65,2.62a44.28,44.28,0,0,0-1.35,6.63c-.11.8-.29,1.59-.4,2.39a5.68,5.68,0,0,0,0,.92l.12,0,.46-.61L45.5,27c1.36-1.73,2.7-3.48,4.09-5.19Q52.65,18,56,14.53c1-1,1.87-2.07,2.88-3,1.17-1.12,2.41-2.16,3.62-3.23l1.81-1.62c.29-.27.57-.55.88-.8A42.18,42.18,0,0,1,73.42.6a1.37,1.37,0,0,1,1-.16.85.85,0,0,1-.11.89c-.2.32-.43.62-.64.93-2.71,4-5.5,7.87-8.11,11.9q-3.39,5.22-6.27,10.78a44,44,0,0,0-3.4,8.64,9.41,9.41,0,0,0-.31,3.3,3.71,3.71,0,0,0,.51,1.65,2.46,2.46,0,0,0,1.24,1.16,4,4,0,0,1,1.06,1,1.29,1.29,0,0,1-.94.32,13.71,13.71,0,0,1-2.13-.18,4.71,4.71,0,0,1-3.55-4,15.3,15.3,0,0,1,.61-6.52,27.47,27.47,0,0,1,2.47-5.86c.11-.2.21-.4.31-.6l.22-.47c1.15-1.92,2.31-3.83,3.45-5.75A2.6,2.6,0,0,0,59,17.1h0Z"/><path d="M31.3,64.79a8.13,8.13,0,0,0,9.34.73,7.1,7.1,0,0,0,3-3.29,11.29,11.29,0,0,0,1.24-4.14,2.21,2.21,0,0,1,.18-.55.4.4,0,0,1,.49.41,9.77,9.77,0,0,1,.18,1.78,13.2,13.2,0,0,1-1.82,5.82,6.57,6.57,0,0,1-2.38,2.36c-.78.49-1.59.94-2.4,1.38a2.9,2.9,0,0,1-.95.33,14.58,14.58,0,0,1-4.88.25c-.89-.14-1.76-.4-2.64-.61l-.76-.17-1.47-.91L28.18,68c-.47-.41-.95-.8-1.39-1.23s-.76-.84-1.13-1.26a2.05,2.05,0,0,1-.33-.46A21,21,0,0,1,24,61.32a11.47,11.47,0,0,1,.38-6,13.85,13.85,0,0,1,8.59-9A20.11,20.11,0,0,1,37.1,45.1a41.85,41.85,0,0,1,4.48-.56,25.45,25.45,0,0,1,4.45.17A54,54,0,0,1,56,46.81c3.64,1.17,7.22,2.5,10.76,3.93a53.89,53.89,0,0,0,8.05,2.58,17.64,17.64,0,0,0,4.86.53,12.13,12.13,0,0,0,3.64-.72A3.5,3.5,0,0,0,85.62,49,2.81,2.81,0,0,0,85,47.43a1,1,0,0,0-.45-.67l-.7-.54a2.87,2.87,0,0,0-1.63-.71,4.12,4.12,0,0,0-2.42.32c-.43.19-.52.36-.46.85a4.58,4.58,0,0,1-.06,1.73,3.19,3.19,0,0,1-1,1.62A2,2,0,0,1,75,49a2.65,2.65,0,0,1,.45-2.3A4.88,4.88,0,0,1,77,45.29,11.59,11.59,0,0,1,84.75,44a5.46,5.46,0,0,1,3.94,2.66c.13.23.29.44.44.66l0,.14c0,.28.08.56.15.83a5.25,5.25,0,0,1-1.85,5.56A9.08,9.08,0,0,1,82.85,56c-1.33.23-2.68.42-4,.54a20.53,20.53,0,0,1-5-.34,54.8,54.8,0,0,1-7.57-2l-1.13-.35a1.64,1.64,0,0,0-1.87.58,30.37,30.37,0,0,0-1.86,2.41c-1,1.43-1.83,2.9-2.71,4.37-2.05,3.44-4,6.93-6.39,10.17a39.35,39.35,0,0,1-2.54,3.32A22.62,22.62,0,0,1,43.58,80a7.27,7.27,0,0,1-6.11.41,5,5,0,0,1-3.08-3.7.91.91,0,0,1,.29-.92c.12.09.26.18.39.29a2.56,2.56,0,0,1,.43.44C36.57,78,38,78,39.62,77.72a7.64,7.64,0,0,0,2.9-1.46A20.17,20.17,0,0,0,46,72.68a96.93,96.93,0,0,0,7.35-10.62A66,66,0,0,1,58,55.48c.52-.64,1.1-1.24,1.66-1.85l.4-.47.57-.62c0-.41-.31-.49-.58-.58-.71-.24-1.43-.45-2.16-.66-1.69-.48-3.38-1-5.1-1.42a41.88,41.88,0,0,0-6-1c-.82-.08-1.64-.25-2.46-.33a21.34,21.34,0,0,0-6.66.58,13.45,13.45,0,0,0-6,2.94,8.3,8.3,0,0,0-2.68,3.7A9.27,9.27,0,0,0,29,61.57a6.11,6.11,0,0,0,.65,1.17,5.67,5.67,0,0,0,.28.61c.31.51.56,1.07,1.21,1.24h0Z"/><path class="cls-1" d="M89.16,47.46l0-.14c0-.15.14-.18.25-.09a3.58,3.58,0,0,1,.66.69,5.77,5.77,0,0,1,.67,5.28,5.94,5.94,0,0,1-2,2.55A8.35,8.35,0,0,1,86,57.2a21.26,21.26,0,0,1-6.62,1A28.54,28.54,0,0,1,71.86,57c-1.68-.51-3.36-1-5-1.54a1.61,1.61,0,0,0-2,.62,41.13,41.13,0,0,0-4,5.93c-2.1,3.57-4.18,7.15-6.62,10.51-1,1.39-2,2.8-3.11,4.09a22.14,22.14,0,0,1-5.27,4.66,7.72,7.72,0,0,1-6,1,5.1,5.1,0,0,1-2.6-1.51.41.41,0,0,1-.11-.31,2.19,2.19,0,0,1,.43.15,6.51,6.51,0,0,0,5.35.48,10.44,10.44,0,0,0,3.61-2,28.11,28.11,0,0,0,4.44-4.55,44.18,44.18,0,0,0,3.25-4.34q2.66-4.2,5.2-8.47a53.91,53.91,0,0,1,4.3-6.48c.1-.12.19-.24.3-.35a1.59,1.59,0,0,1,1.74-.49c.86.26,1.72.54,2.59.79,1.74.49,3.47,1,5.23,1.42A34.35,34.35,0,0,0,77,57c.46.05.93.07,1.4.09a16.17,16.17,0,0,0,3.93-.36,28,28,0,0,0,2.74-.65,8.31,8.31,0,0,0,3.83-2.61,5.56,5.56,0,0,0,.52-5.71C89.4,47.64,89.26,47.56,89.16,47.46Z"/><path class="cls-2" d="M95.92,38.09a1.73,1.73,0,0,1-1.52,0,20.18,20.18,0,0,1,2.68-5.25c2.11-3.32,4.2-6.66,6.63-9.76,1.76-2.23,3.56-4.43,5.34-6.64a3.33,3.33,0,0,1,2.72-1.24,35.52,35.52,0,0,0,11.91-2,15.52,15.52,0,0,0,5.68-3.49,11.43,11.43,0,0,0,1.91-2.58,4.77,4.77,0,0,0,.34-3.4c0-.1-.07-.2-.13-.4a1.72,1.72,0,0,1,.41.2,2.64,2.64,0,0,1,.92,1.81,5.12,5.12,0,0,1-.68,3.15,13,13,0,0,1-2.84,3.26,15.47,15.47,0,0,1-4.11,2.33,28.15,28.15,0,0,1-5.26,1.48,38,38,0,0,1-6.1.69c-.59,0-1.17.05-1.75.12a3.31,3.31,0,0,0-2.22,1.34c-2.81,3.51-5.7,7-8.17,10.73q-2.16,3.32-4.28,6.64c-.51.81-.93,1.68-1.39,2.53C95.93,37.73,95.78,37.89,95.92,38.09Z"/><path class="cls-3" d="M4.27,41.87l.81.46a4.5,4.5,0,0,0,.45.31L7,43.31a3.79,3.79,0,0,0,1.65.7,28,28,0,0,0,4.09.38,11.77,11.77,0,0,0,4.6-.59,17.07,17.07,0,0,0,3.84-1.74A23.2,23.2,0,0,0,25,39.41a41.3,41.3,0,0,0,5.09-5.72c2.09-2.95,4.18-5.89,6.1-9,1.37-2.18,2.8-4.32,4.22-6.47a7.38,7.38,0,0,1,.74-.85c-.3,1.28-.59,2.56-.89,3.84-.37.47-.78.91-1.1,1.41-1.68,2.57-3.29,5.19-5,7.74-1.3,1.94-2.69,3.81-4.06,5.7A14.88,14.88,0,0,1,29,37.4c-.63.68-1.28,1.34-1.9,2A21.8,21.8,0,0,1,23,42.67a19.94,19.94,0,0,1-5.28,2.38,12.63,12.63,0,0,1-4.69.38l-.9,0a9.65,9.65,0,0,1-3.88-.82,14.68,14.68,0,0,1-3.18-1.81c-.23-.2-.46-.4-.67-.61A.9.9,0,0,1,4.27,41.87Z"/><path d="M74.24,94c0,.33,0,.67,0,1a3.3,3.3,0,0,1-2,3,4.68,4.68,0,0,1-1.87.39c-1,0-2,0-3,0-.68,0-.83-.17-.84-.84v-10c0-.74.26-1,1-1,1,0,2,0,3,.06a3.06,3.06,0,0,1,2.92,1.87l.12.25c0,.3.06.59.08.89A3.77,3.77,0,0,1,73,92.05l.42.38Zm-4.35-2.77a5.18,5.18,0,0,0,.79,0,1.26,1.26,0,0,0,1.18-1.28.82.82,0,0,0-.43-1,.67.67,0,0,0-.6-.44c-.56,0-1.11-.11-1.67-.15a4.07,4.07,0,0,0-.6.06v2.83h1.33ZM70,96.51a2.64,2.64,0,0,0,1.52-.22,1.32,1.32,0,0,0,.77-1.6,1,1,0,0,0-.39-1,1.15,1.15,0,0,0-1-.49c-.58,0-1.16,0-1.74,0-.2,0-.4,0-.59,0v3.26Z"/><path class="cls-2" d="M57.32,39.69a2.46,2.46,0,0,1-1.24-1.16,1.63,1.63,0,0,0,.09-.48c-.35-2.67.46-5.14,1.41-7.57a76.3,76.3,0,0,1,6.16-12C64.86,16.61,66,14.78,67.16,13c1.35-2,2.76-4,4.15-6.05.93-1.34,1.88-2.68,2.81-4a1.67,1.67,0,0,1,1.5-.83c.37,0,.52.19.4.55a2.46,2.46,0,0,1-.33.59l-5,7.28c-2.7,3.94-5.25,8-7.69,12.1-.48.8-.88,1.66-1.31,2.49-.29.57-.57,1.15-.88,1.71a33.3,33.3,0,0,0-3.38,8.88,7.31,7.31,0,0,0-.1,3.63C57.31,39.42,57.3,39.56,57.32,39.69Z"/><path d="M100.71,94.17a.36.36,0,0,0-.4-.31H99.13v4.36a2.22,2.22,0,0,1-1.78.12.42.42,0,0,1-.22-.28,1.68,1.68,0,0,1,0-.45q0-5.1,0-10.22c0-.59.22-.83.81-.83,1.26,0,2.53,0,3.79.06a3.1,3.1,0,0,1,2.86,2.24,4.85,4.85,0,0,0,.08.55A3.55,3.55,0,0,1,103,93.28l-.43.33.51.94c.07.17.12.35.2.52a1.8,1.8,0,0,0,1,1,1.21,1.21,0,0,1,.55,1.16c0,.39-.06.78-.09,1.16a1.28,1.28,0,0,1-1.24-.25,7.74,7.74,0,0,1-2.07-2.27l-.33-.52C101,95,100.86,94.57,100.71,94.17Zm2.1-4.16a.84.84,0,0,0-.42-1c0-.28-.26-.35-.48-.41a8.8,8.8,0,0,0-2.81-.14,22,22,0,0,0,0,3.15l.4.12h1a13,13,0,0,0,1.54-.24,1,1,0,0,0,.77-.93C102.81,90.42,102.8,90.22,102.81,90Z"/><path d="M81,91.22h2.3a2.24,2.24,0,0,1,.09,2.06H78.94a4,4,0,0,0-.14.61c0,.64,0,1.28,0,1.92,0,.23,0,.45.33.51a1.57,1.57,0,0,0,1.15,0c1,0,2,0,3,0,.35,0,.7.06,1.08.09v1.89a2.28,2.28,0,0,1-.52.1H77.16a1.32,1.32,0,0,1-.2-.05,4.83,4.83,0,0,1-.13-.7q0-5.18,0-10.34c0-.24,0-.49.06-.76l.52,0H83c.79,0,1,.19.92,1,0,.28-.07.56-.11.92-1.61.16-3.24,0-4.9.1a5.17,5.17,0,0,0,0,2.62s.09,0,.13.06Z"/><path d="M90.81,91.22a12,12,0,0,1,2.72.18v1.82a40.72,40.72,0,0,1-4.56.12,2.69,2.69,0,0,0-.1.51c0,.66,0,1.32,0,2,0,.23,0,.53.37.49a1.42,1.42,0,0,0,1.07,0,39.13,39.13,0,0,1,4.17.13c.06.61,0,1.2,0,1.86a4.9,4.9,0,0,1-.79.12c-2,0-4,0-6,0a8.07,8.07,0,0,1-.81-.07V86.6a5.43,5.43,0,0,1,.78-.08c1.81,0,3.62,0,5.43,0a2.28,2.28,0,0,1,.45,0A.45.45,0,0,1,94,87a2.79,2.79,0,0,1-.13,1.5H88.93v.73c0,.52,0,1.05,0,1.58,0,.19,0,.33.25.36Z"/><path class="cls-4" d="M147.29,49.52c.07.41.13.83.19,1.25l-3.83.94c-1.42.35-2.84.73-4.27,1.06-2.6.61-5.2,1.23-7.81,1.77-1.29.27-2.61.36-3.91.54a57.85,57.85,0,0,1-7.44.48c-.48,0-1,0-1.46.06a38.44,38.44,0,0,1-7-.43,27.66,27.66,0,0,1-7.37-2,8.23,8.23,0,0,1-2.16-1.22,1.18,1.18,0,0,1-.34-.46,4.39,4.39,0,0,1,.52.13c.44.18.87.37,1.29.58a14.25,14.25,0,0,0,4.06,1.34l5.56,1c.25,0,.52,0,.78.06a50.46,50.46,0,0,0,6.15-.08c.9-.06,1.81,0,2.71-.09a69.32,69.32,0,0,0,12-1.8q5.21-1.19,10.34-2.6C145.92,49.77,146.61,49.66,147.29,49.52Z"/><path class="cls-4" d="M31.17,64.59c-.65-.17-.9-.73-1.21-1.24a5.67,5.67,0,0,1-.28-.61c-.09-.4-.15-.81-.26-1.21a8.77,8.77,0,0,1-.17-4A7.33,7.33,0,0,1,30.82,54a12.24,12.24,0,0,1,6.34-4c1.12-.3,2.28-.45,3.42-.69a13.38,13.38,0,0,1,2.75-.23,40.51,40.51,0,0,1,5.61.54,41.23,41.23,0,0,1,4.92,1c2.25.58,4.48,1.27,6.72,1.91l-.57.62c-.29-.09-.57-.19-.86-.27-1.57-.44-3.14-.91-4.73-1.31-2-.49-4-.76-6.05-1a24.91,24.91,0,0,0-5.17-.31,18.39,18.39,0,0,0-7.92,2,10.59,10.59,0,0,0-4.36,4.21,3.91,3.91,0,0,0-.24.51,9.17,9.17,0,0,0-.36,5.16,8.82,8.82,0,0,0,.78,2.23A.71.71,0,0,1,31.17,64.59Z"/><path class="cls-2" d="M59,17.1a2.6,2.6,0,0,1-.16.47c-1.14,1.92-2.3,3.83-3.45,5.75l-.34.35c-.89,1-1.81,2.06-2.67,3.13-.66.82-1.25,1.68-1.93,2.49S49,31.2,48.35,32.17a3.81,3.81,0,0,1-.24.32,47,47,0,0,0-3.48,4.92c-1.1,1.56-2.06,3.19-3,4.83a1.43,1.43,0,0,1-.24.31c-.34.3-.58.21-.72-.22a1.8,1.8,0,0,1,.18-1.65c.55-.85,1-1.79,1.54-2.63,2.67-3.89,5.39-7.75,8.3-11.47,1.46-1.85,3-3.65,4.51-5.42.61-.69,1.26-1.35,1.88-2,.43-.47.84-1,1.27-1.44A7.21,7.21,0,0,1,59,17.1Z"/><path class="cls-2" d="M130.57,27.22a2.74,2.74,0,0,1-.92,1.54,1.26,1.26,0,0,0-1.67.63c-.45.72-.85,1.46-1.34,2.15a35.8,35.8,0,0,1-3.45,4.33,20.08,20.08,0,0,1-4.33,3.5,30,30,0,0,1-5.49,2.76,10.17,10.17,0,0,1-5.27.57c-.35-.07-.71-.1-1.06-.17A3.21,3.21,0,0,1,105,41.11l.42.08c.69.16,1.38.34,2.08.48a3.85,3.85,0,0,0,1.07.06,15.42,15.42,0,0,0,4.35-.87A31.91,31.91,0,0,0,120,36.79a24.41,24.41,0,0,0,5-5.49c.62-.9,1.22-1.81,1.78-2.75a2,2,0,0,1,1.63-1.05C129.12,27.43,129.85,27.31,130.57,27.22Z"/><path class="cls-2" d="M159.67,23.33a4.37,4.37,0,0,1-1.12,2.54l-.09.18h0l-.35.23c-.17.14-.36.26-.52.42-1.38,1.39-2.82,2.73-4.1,4.2s-2.22,2.85-3.28,4.31c-.84,1.14-1.62,2.31-2.42,3.47-.17.25-.29.53-.45.79s-.45.69-.7,1-.67.81-1,1.22a1.94,1.94,0,0,1-1.14.77,7,7,0,0,1-3.25,0,1,1,0,0,1-.81-.94c.36,0,.69,0,1,0,.58,0,1.17,0,1.75-.1a1.89,1.89,0,0,0,1.35-.73,30.46,30.46,0,0,0,2.22-3,55.92,55.92,0,0,1,5.5-7.65,40.23,40.23,0,0,1,5.45-5.39C158.35,24.12,159,23.75,159.67,23.33Z"/><path class="cls-3" d="M147.28,23.91a2.08,2.08,0,0,1,0,1.26,2.83,2.83,0,0,1-.54,1.44l-.12.12h0a3.54,3.54,0,0,0-.53.49c-2.37,3.26-4.75,6.51-7.09,9.79a18.57,18.57,0,0,1-2.65,3.28,20.73,20.73,0,0,1-1.79,1.46,6.9,6.9,0,0,1-5.38,1.12A3.21,3.21,0,0,1,127,41.41a2.69,2.69,0,0,1,.4.09,5.75,5.75,0,0,0,3.33.31,7.79,7.79,0,0,0,4.14-2.15,17.15,17.15,0,0,0,2.64-3c1.7-2.41,3.45-4.8,5.19-7.18,1-1.42,2.08-2.82,3.12-4.22a6.17,6.17,0,0,1,.7-.82A5.25,5.25,0,0,1,147.28,23.91Z"/><path class="cls-2" d="M102.49,63.14a3.9,3.9,0,0,1-.65,1.92c-.18.32-.4.62-.61.92-.29,0-.44.18-.61.34a54.83,54.83,0,0,0-8.84,10.44c-.48.75-.92,1.52-1.43,2.24-.63.89-1.3,1.74-2,2.6a1.74,1.74,0,0,1-1.33.66c-.81,0-1.62,0-2.43-.05a2.32,2.32,0,0,1-.79-.27c-.3-.15-.33-.27-.3-.77h.88c.41,0,.83,0,1.24,0a2.28,2.28,0,0,0,1.92-.89,29.14,29.14,0,0,0,2.65-3.78,55.41,55.41,0,0,1,9-10.92,19.1,19.1,0,0,1,3-2.3A2.8,2.8,0,0,1,102.49,63.14Z"/><path class="cls-3" d="M78.68,63.69A3.64,3.64,0,0,1,78.36,66c0,.14-.12.27-.18.4-.36,0-.5.31-.67.54-1,1.4-2.05,2.79-3.06,4.2-1.62,2.26-3.24,4.53-4.84,6.8a10.48,10.48,0,0,1-6.68,4.37,4.1,4.1,0,0,1-4.1-1.3,1.13,1.13,0,0,1-.1-.13s0,0,0-.11a1.68,1.68,0,0,1,.4.11,4.57,4.57,0,0,0,3.25.24A9.91,9.91,0,0,0,67,78.73a16.46,16.46,0,0,0,1.71-2C70.81,73.81,72.91,70.9,75,68a32.64,32.64,0,0,1,2.73-3.59A2.25,2.25,0,0,1,78.68,63.69Z"/><path class="cls-5" d="M128.86,75.75c-.09,0-.18.08-.27.1a2.33,2.33,0,0,0-2,2c-.18.1-.37.19-.54.3a24.13,24.13,0,0,1-4.21,2.63c-.82.36-1.65.73-2.49,1.06a12.44,12.44,0,0,1-4.47.8,9.87,9.87,0,0,1-3-.55,2.77,2.77,0,0,1-1.46-1.22,2.54,2.54,0,0,1,.39.08,9,9,0,0,0,5.11.42,18.86,18.86,0,0,0,6.42-2.53,25,25,0,0,0,4.94-3.74A17.93,17.93,0,0,0,129,73.18c1-1.25,1.88-2.54,2.81-3.82.25-.35.48-.71.71-1.08.12-.2.22-.4.48-.44s.31.2.45.31c.43.35.86.71,1.27,1.08a4.09,4.09,0,0,1,.39.44,3,3,0,0,1-.48-.23c-.24-.17-.47-.36-.75-.57l-.44.62c-.4.6-.77,1.21-1.19,1.79-.67.91-1.38,1.79-2.06,2.69C129.7,74.55,129.28,75.16,128.86,75.75Z"/><path class="cls-2" d="M154.83,45.33l-2.06-.26.61,0c.07-.16.16-.32.22-.49a54.42,54.42,0,0,1,4.56-9.25c1.37-2.21,2.85-4.35,4.33-6.48A13.82,13.82,0,0,0,164.4,25c.15-.46.26-.94.43-1.4a3.37,3.37,0,0,0,.12-1.78,7.49,7.49,0,0,1-.07-.85.78.78,0,0,1,.73.4,2.65,2.65,0,0,1,.44,1.26,7.07,7.07,0,0,1-.64,3.51c-.19.42-.34.87-.51,1.31a11.64,11.64,0,0,1-1.26,2.26c-.84,1.18-1.61,2.41-2.4,3.62-.91,1.4-1.86,2.79-2.73,4.22a60.75,60.75,0,0,0-3.59,7.34A2.15,2.15,0,0,0,154.83,45.33Z"/><path class="cls-3" d="M90.19,63.73a2.08,2.08,0,0,1-.08,1.55,2.81,2.81,0,0,1-.19.39c-.35.28-.73.53-1.06.83a54.11,54.11,0,0,0-8.21,9.66c-.57.86-1.11,1.75-1.71,2.6s-1.35,1.85-2,2.76a1.7,1.7,0,0,1-1.3.71c-.9,0-1.8,0-2.7,0a1.09,1.09,0,0,1-1-1,1.86,1.86,0,0,1,.38-.06c.64,0,1.28,0,1.92,0a2.32,2.32,0,0,0,1.88-1c1.66-2,2.88-4.22,4.36-6.3a53.76,53.76,0,0,1,4.76-5.87,27.56,27.56,0,0,1,4.34-4C89.72,64,90,63.86,90.19,63.73Z"/><path class="cls-3" d="M45.5,27l-1.67,2.24c.08-.67.12-1.35.24-2,.32-1.78.65-3.56,1-5.32.22-1,.64-2,.81-3a29.22,29.22,0,0,1,1.45-5c.39-1.08.68-2.19,1.12-3.25.82-2,1.72-4,2.57-6a1.21,1.21,0,0,1,.84-.76c.49-.13.77.08.63.57A15.89,15.89,0,0,1,51.93,6c-.81,1.88-1.66,3.75-2.44,5.64-.41,1-.68,2.07-1,3.11-.19.55-.36,1.11-.58,1.64a13.53,13.53,0,0,0-.8,2.93,25,25,0,0,1-.7,2.67,34.14,34.14,0,0,0-.94,4.47A1.94,1.94,0,0,0,45.5,27Z"/><path class="cls-3" d="M107.81,37.33a1.37,1.37,0,0,1-1.09-.93c0-.52-.1-1-.16-1.57a1.87,1.87,0,0,1,.58-1.58,1,1,0,0,1,.9-.38,7.86,7.86,0,0,0,2.47,0,8.68,8.68,0,0,0,3.47-.88c.83-.44,1.64-.93,2.45-1.41l1-.59a9.85,9.85,0,0,0,3.53-4.09,5.82,5.82,0,0,0,.5-3.63c0-.14,0-.29,0-.47a1.15,1.15,0,0,1,.82.68,3.8,3.8,0,0,1,.37,2.41,8.88,8.88,0,0,1-2.35,4.6,13.43,13.43,0,0,1-3.76,2.76,3.9,3.9,0,0,0-.49.28,8.29,8.29,0,0,1-4,1.44c-.87.09-1.76.1-2.64.12a1.56,1.56,0,0,0-1.7,1.73C107.61,36.29,107.73,36.81,107.81,37.33Z"/><path class="cls-3" d="M113.32,77.07a2.16,2.16,0,0,1-1.16-.94,2.84,2.84,0,0,0,0-.65,3.75,3.75,0,0,1,0-1.73c.27-.87.72-1.19,1.6-1a4.36,4.36,0,0,0,1.57,0c.76-.12,1.53-.18,2.29-.31a6.68,6.68,0,0,0,2.88-1.24,2.76,2.76,0,0,1,.58-.34,11,11,0,0,0,3.31-2.33,8.35,8.35,0,0,0,2.64-5,4.72,4.72,0,0,0-.2-1.83c0-.11-.07-.21-.14-.42a3,3,0,0,1,1.41,2.42,6.08,6.08,0,0,1-.58,2.85,9.56,9.56,0,0,1-3.4,4.14c-1.12.75-2.29,1.45-3.46,2.13a8,8,0,0,1-3.07.9c-.61.08-1.23.17-1.85.21a5.39,5.39,0,0,1-1.06-.06c-.85-.1-1.3.15-1.49,1a5,5,0,0,0-.06,1.29A7.85,7.85,0,0,0,113.32,77.07Z"/><path class="cls-1" d="M28.42,68.18l1.47.91a7.41,7.41,0,0,0,1,.58,13.73,13.73,0,0,0,7.05.61c1.83-.25,5.27-2.32,6.15-3.75a13.15,13.15,0,0,0,.82-1.47,17.53,17.53,0,0,0,1.32-4.24c.06-.36.1-.71.18-1.06a7.46,7.46,0,0,1,.23-.73,1.3,1.3,0,0,1,.57,1,10.43,10.43,0,0,1-.7,4.76c-.12.3-.27.59-.38.89a7.8,7.8,0,0,1-3.62,4.17c-.58.35-1.18.67-1.78,1a3.58,3.58,0,0,1-.79.3,14.06,14.06,0,0,1-6.76,0,10.51,10.51,0,0,1-4.57-2.49C28.48,68.6,28.23,68.47,28.42,68.18Z"/><path class="cls-2" d="M62.25,77.79a1.34,1.34,0,0,1-1.4-.18c.06-.08.16-.16.17-.25a5.78,5.78,0,0,1,.66-2.26,41.64,41.64,0,0,1,4.17-7c1.65-2.2,3.24-4.44,4.86-6.66l.36-.46a3.29,3.29,0,0,1,.5.14.73.73,0,0,1,.31,1.15c-1.25,1.74-2.51,3.47-3.75,5.22-1.1,1.55-2.25,3.08-3.26,4.68-.83,1.32-1.5,2.74-2.21,4.13A2.81,2.81,0,0,0,62.25,77.79Z"/><path class="cls-6" d="M7.93,39.49a3.06,3.06,0,0,1-1.34-1.37c-.2-.31-.38-.63-.58-.94.19-.23.08-.47,0-.7l-.45-1.69a1.26,1.26,0,0,1,0-.33,10.11,10.11,0,0,1,1.91-6.81,13.24,13.24,0,0,1,3.38-3,9.86,9.86,0,0,1,4.62-1.34,3.59,3.59,0,0,1,2.47.77c0,.35-.18.48-.47.41-1.67-.36-3.18.32-4.74.73a1.26,1.26,0,0,0-.35.17,15.33,15.33,0,0,0-3.69,3.12,10.05,10.05,0,0,0-2,5.12,9.41,9.41,0,0,0,1.06,5.34C7.77,39.11,7.85,39.3,7.93,39.49Z"/><path class="cls-3" d="M101.68,78.06c-.59.14-1.14.18-1.51-.42a.83.83,0,0,0,.06-.21,3.26,3.26,0,0,1,.66-2.22c1.12-1.7,2.25-3.39,3.37-5.08.3-.44.6-.87.91-1.29a16.45,16.45,0,0,0,2.41-5,4.44,4.44,0,0,0,.18-1.95c-.05-.36-.05-.74-.07-1.18a1.52,1.52,0,0,1,1,1.13,5,5,0,0,1,0,2.78c-.19.52-.34,1.07-.52,1.6a12.55,12.55,0,0,1-1.65,3.19c-1.53,2.19-3,4.44-4.43,6.68a6.09,6.09,0,0,0-.55,1,4.8,4.8,0,0,0-.2.87Z"/><path class="cls-1" d="M140.76,69.56a3.62,3.62,0,0,1,1.31,1.9,7.71,7.71,0,0,1,.1,4A8.73,8.73,0,0,1,141,77.89a9.46,9.46,0,0,1-6.66,4.41c-.48.09-1,.14-1.45.2a.67.67,0,0,1-.28,0c-1-.16-2-.28-3-.51a1.62,1.62,0,0,1-1.26-1.1c.65.11,1.28.17,1.89.33a6.72,6.72,0,0,0,2.68.07,10.27,10.27,0,0,0,6-3.09,5.33,5.33,0,0,0,.62-.73,10,10,0,0,0,1.67-3.55,7.33,7.33,0,0,0-.4-4.09.49.49,0,0,1,0-.16S140.74,69.65,140.76,69.56Z"/><path class="cls-2" d="M131.12,38.68a.88.88,0,0,1-1.25-.18,13.35,13.35,0,0,1,.63-2.92,16.32,16.32,0,0,1,1.74-3.34c.55-.81,1.08-1.63,1.62-2.45.13-.18.26-.37.41-.54a24.81,24.81,0,0,0,3.84-5.41c.08-.15.17-.29.26-.44a.5.5,0,0,1,.08-.07c.75,0,1.06.38.86,1.06a4.76,4.76,0,0,1-.46,1.09c-.65,1-1.32,2.05-2,3.07a7.39,7.39,0,0,1-.61.75,29.15,29.15,0,0,0-4.5,6.72,5.94,5.94,0,0,0-.66,2.32C131.09,38.45,131.11,38.57,131.12,38.68Z"/><path class="cls-1" d="M80,35.82c0,.65,0,1.3,0,2a3.34,3.34,0,0,0-.78.31,7.78,7.78,0,0,1-2.9,1,5.09,5.09,0,0,1-1.17.1,1.71,1.71,0,0,0-1.33.49A13.94,13.94,0,0,1,69,42.53a2.52,2.52,0,0,1-.71.16,11,11,0,0,1-3,.07,4.36,4.36,0,0,1-2.46-1.28,3.43,3.43,0,0,1-.22-.3,1.74,1.74,0,0,1,.44.07,6.28,6.28,0,0,0,4.35.32,11.86,11.86,0,0,0,5.23-2.78,2.19,2.19,0,0,1,1.73-.64,5.63,5.63,0,0,0,2.52-.53,25.09,25.09,0,0,0,2.33-1.14A4.61,4.61,0,0,0,80,35.82Z"/><path class="cls-6" d="M74.24,94l-.83-1.57a3.38,3.38,0,0,0,.39-3.56c.24-.13.35.07.47.2A3.31,3.31,0,0,1,75,92.49c-.12.35-.29.68-.46,1.05.13.17.27.34.4.52a3.81,3.81,0,0,1,0,4.53,2.61,2.61,0,0,1-1.8,1.16c-.56.06-1.12.16-1.68.19-.84,0-1.69,0-2.54,0s-.94-.19-.82-1.06l.59,0c1,0,2.07,0,3.1-.14a3.13,3.13,0,0,0,2.83-3.06,6.32,6.32,0,0,0-.1-1.23A1.41,1.41,0,0,0,74.24,94Z"/><path class="cls-6" d="M159.12,48.33a2.5,2.5,0,0,1,1,1.11,4.6,4.6,0,0,1-.82,5.18,4.39,4.39,0,0,1-1.82,1.21c-.44.15-.89.31-1.34.42a6.3,6.3,0,0,1-4.88-.81,2.51,2.51,0,0,1-1-1,1.28,1.28,0,0,1,.33.11,6.75,6.75,0,0,0,6.24,0,4.65,4.65,0,0,0,2.34-5.91A3.31,3.31,0,0,1,159.12,48.33Z"/><path class="cls-6" d="M107.7,77.28l.72,1.52c-1.12.79-2.21,1.63-3.37,2.36a9.05,9.05,0,0,1-4.91,1.46,5.36,5.36,0,0,1-2.09-.4,2.3,2.3,0,0,1-1.28-1.15l.41.09a6.69,6.69,0,0,0,2.6.3,9.23,9.23,0,0,0,4.71-1.71c.85-.59,1.68-1.2,2.51-1.82A7.18,7.18,0,0,0,107.7,77.28Z"/><path class="cls-7" d="M103.64,14.75l-.64.91c-.73-.11-1.45-.26-2.17-.34a58.67,58.67,0,0,0-7.73-.22c-.74,0-1.47.11-2.2.15s-1.39,0-2.09,0a.82.82,0,0,1-.46-.17,4.87,4.87,0,0,1,.56-.28c.64-.23,1.28-.47,1.93-.65a5.5,5.5,0,0,1,1.5-.22c2.24,0,4.48,0,6.72.15C100.59,14.21,102.11,14.53,103.64,14.75Z"/><path class="cls-6" d="M102,37.09c.22.54.43,1.09.65,1.63l-3.38,2.73a7.73,7.73,0,0,1-2,1.06c-.18.07-.36.12-.53.2a4.15,4.15,0,0,1-3.08.12c-.51-.13-.75-.51-1-1h.4c.5,0,1,.09,1.52.08a2.71,2.71,0,0,0,1-.19,11.11,11.11,0,0,0,3.31-1.89c.67-.6,1.4-1.14,2.08-1.73C101.37,37.77,101.68,37.42,102,37.09Z"/><path class="cls-6" d="M79.3,32.56A7.81,7.81,0,0,1,77.22,34a4.12,4.12,0,0,1-.53.12c.27-.47.53-.95.81-1.42a24.1,24.1,0,0,0,2.68-7A7.1,7.1,0,0,0,80,22.14a1.42,1.42,0,0,1-.07-.6,4.47,4.47,0,0,1,.44.43,4.67,4.67,0,0,1,.91,2.74,11,11,0,0,1-.74,4.58c-.32.87-.69,1.71-1,2.57A6.06,6.06,0,0,0,79.3,32.56Z"/><path class="cls-7" d="M83.8,46.22l.7.54a1,1,0,0,1,.45.67,6.82,6.82,0,0,0-2.73-.26,2.44,2.44,0,0,0-.71.16.84.84,0,0,0-.64.94,8.19,8.19,0,0,1,0,1.4,2.92,2.92,0,0,1-1.16,2.06,2.06,2.06,0,0,1-2.56,0c-.22-.21-.24-.24-.35-.66h.61A1.88,1.88,0,0,0,79,50.32a3.2,3.2,0,0,0,.77-2.78c-.13-.71,0-1,.69-1.28a4.73,4.73,0,0,1,2.66-.15Z"/><path class="cls-1" d="M90.44,37.88c.43.41.37,1,.42,1.47l-1.34,1.11c-.41.36-.8.75-1.22,1.09a5.93,5.93,0,0,1-3.49,1.28A2.09,2.09,0,0,1,83,42.14l-.56-.6a1.73,1.73,0,0,1,.39,0,3.54,3.54,0,0,0,2.16,0,8,8,0,0,0,3.69-2.29c.25-.28.5-.56.77-.83A1.54,1.54,0,0,1,90.44,37.88Z"/><path class="cls-8" d="M81,91.22H79.05c0-.22.08-.44.09-.66s0-.68,0-1a.58.58,0,0,1,.62-.64,5.42,5.42,0,0,1,.57,0h3c.28,0,.56,0,.85,0l.17-.73c.15,0,.32,0,.48,0a.33.33,0,0,1,.39.25,3.32,3.32,0,0,1,.14,1c-.08.64-.24.74-.89.74H80.35l-.14,1Z"/><path class="cls-6" d="M131.93,23.33a2.8,2.8,0,0,1-2,.55c.63-1.19,1.24-2.4,1.91-3.57a4.88,4.88,0,0,0,.86-3.14.51.51,0,0,1,.05-.12c.32-.12.48.11.63.32a2.41,2.41,0,0,1,.35,2.05,6.1,6.1,0,0,1-.45,1.21C132.87,21.54,132.39,22.43,131.93,23.33Z"/><path class="cls-8" d="M84.73,98.8l.16-.82.12-.06c.76-.06.95.09,1,.85a7.45,7.45,0,0,1-.17,1.15H79c-.81,0-.93-.16-.74-1.06C80.41,98.76,82.55,98.88,84.73,98.8Z"/><path class="cls-8" d="M94.73,98.86l.28-1,.84.06a9.26,9.26,0,0,1,0,1.9,5.76,5.76,0,0,1-.79.11H89a5.47,5.47,0,0,1-.66-.09v-1Z"/><path class="cls-7" d="M90.81,91.22l-1.63,0c0-.71,0-1.42.07-2.2.32,0,.63-.08,1-.08h3.27l.76,0,.21-.78.92,0v1.8c-.26,0-.51.07-.77.08H91c-.63,0-.71.08-.71.7,0,.13,0,.26,0,.41Z"/><path class="cls-5" d="M80.27,96.33a1.57,1.57,0,0,1-1.15,0c0-.64,0-1.28.08-1.91v-.68h4.59l.13-.82s.07-.07.1-.07c.8-.09.93,0,1,.82v.28c0,.77-.13.91-.93.91-1.2,0-2.41,0-3.64,0A2,2,0,0,0,80.27,96.33Z"/><path class="cls-4" d="M90.31,96.32a1.42,1.42,0,0,1-1.07,0V93.77c.25,0,.45,0,.65,0H93c.29,0,.59,0,.89-.07l.11-.8h.9v1.87a42.86,42.86,0,0,1-4.57.16A6.93,6.93,0,0,0,90.31,96.32Z"/><path class="cls-6" d="M136.19,65.56l-1.32-.92a2.83,2.83,0,0,0,.32-.37c.54-.94,1.07-1.89,1.61-2.84a3.24,3.24,0,0,0,.43-1.72V59a.8.8,0,0,1,.86.63,3.05,3.05,0,0,1-.11,2.51c-.48.94-1,1.85-1.48,2.78C136.38,65.12,136.29,65.34,136.19,65.56Z"/><path class="cls-6" d="M104.33,96.09a1.8,1.8,0,0,1-1-1c-.08-.17-.13-.35-.2-.52s.08-.1.07-.14c-.09-.44.17-.61.49-.83a3.54,3.54,0,0,0,.9-.91,3.48,3.48,0,0,0,.43-3.26,3.07,3.07,0,0,1-.07-.53,2.94,2.94,0,0,1,1.27,2.67A5.34,5.34,0,0,1,106,93a3,3,0,0,1-1.43,1.75.56.56,0,0,0-.3.74A4.31,4.31,0,0,1,104.33,96.09Z"/><path class="cls-6" d="M100.71,94.17c.15.4.3.8.44,1.2l-.64.07v4.41a3.22,3.22,0,0,1-1.92-.06v-.87l.37-.08c.43-.06.52-.12.53-.56s-.06-.86-.06-1.29c0-.79,0-1.57,0-2.36,0-.22.12-.33.35-.35S100.42,94.21,100.71,94.17Z"/><path d="M117.39,92.84l.36-1.16c.14-.45.14-.45.74-.35l-1,3.26-1-2.15-1,2.13c-.36-1.15-.69-2.18-1-3.24a2,2,0,0,1,.3-.08c.1,0,.19,0,.32,0L115.6,93l.88-1.82.8,1.69Z"/><path d="M42.88,91.21,43,94.4l-.61,0V92.88l-.1,0L41.42,94l-.89-1.22A3.47,3.47,0,0,0,40.46,94c0,.31-.12.44-.5.42A9.82,9.82,0,0,1,40,91.15l1.38,2,1.34-2Z"/><path d="M121.28,93V91.33l.59-.11v3.14c-.65-.46-1.15-1.06-1.85-1.58v1.56l-.67,0c0-1.06,0-2.09,0-3.24C120,91.76,120.58,92.36,121.28,93Z"/><path d="M113.72,92.83a1.59,1.59,0,1,1-1.45-1.61A1.49,1.49,0,0,1,113.72,92.83Zm-.6.15c0-.23,0-.34-.06-.45a.94.94,0,0,0-.83-.81c-.39-.06-.67.15-.92.59a1.05,1.05,0,0,0,.12,1.21.83.83,0,0,0,1.27.18A2.73,2.73,0,0,0,113.12,93Z"/><path d="M51.36,94.43a1.59,1.59,0,0,1-1.62-1.65,1.55,1.55,0,0,1,1.65-1.55,1.44,1.44,0,0,1,1.52,1.57A1.52,1.52,0,0,1,51.36,94.43Zm-1-1.67a1,1,0,0,0,.86,1.14,1,1,0,0,0,1-.76,1.62,1.62,0,0,0-.1-.87.88.88,0,0,0-1-.56,1.06,1.06,0,0,0-.81.77A1.78,1.78,0,0,0,50.39,92.76Z"/><path class="cls-7" d="M59.84,42.4a3.71,3.71,0,0,1-.82.24,6.57,6.57,0,0,1-3-.5,3.81,3.81,0,0,1-1.57-1.35l.37.12a6.5,6.5,0,0,0,3.74.53C59.09,41.34,59.59,41.69,59.84,42.4Z"/><path d="M126.26,91.19c.53.06,1.07.08,1.59.19a1.31,1.31,0,0,1,1,1.28,1.49,1.49,0,0,1-.87,1.56,2.62,2.62,0,0,1-1.7.12A14.12,14.12,0,0,1,126.26,91.19Zm.52,2.64a1.08,1.08,0,0,0,1.28-.36,1.05,1.05,0,0,0,0-1.25c-.32-.5-.78-.5-1.32-.41Z"/><path class="cls-4" d="M84.68,64.39l-1.5,1.41c.09-.61.17-1.23.29-1.83a6.91,6.91,0,0,0,0-2.9,3.26,3.26,0,0,1,0-.38,1.93,1.93,0,0,1,1.13,1.43,5.17,5.17,0,0,1,.12,2A.86.86,0,0,0,84.68,64.39Z"/><path class="cls-8" d="M153.39,24.58,151.92,26c.08-.55.13-1.12.24-1.67a6.71,6.71,0,0,0,0-3.18.86.86,0,0,1,0-.16s0,0,0-.07a1.89,1.89,0,0,1,1.08,1.47,5.66,5.66,0,0,1,.1,1.17C153.37,23.86,153.37,24.22,153.39,24.58Z"/><path d="M57.23,91.25h1.82c0,.1,0,.18.05.27s0,.14,0,.26H57.85l0,.69h1.07L59,93H57.85v.8H59.1l0,.51H57.23Z"/><path d="M123.77,91.78l0,.68h1.09l.09.56-1.12.06v.74h1.13v.53h-1.73V91.28h1.72c0,.09,0,.15.06.22a1.91,1.91,0,0,1,0,.28Z"/><path d="M38.6,93H37.52v.78h1.2l.06.55h-1.9V91.3h1.84l.05.49h-1.3l0,.69H38.6Z"/><path d="M62.1,91.26a1.86,1.86,0,0,1,0,.26,2.2,2.2,0,0,1,0,.27H60.85l-.05.65h1.09l.16.57-1.17,0v.77h1.23l0,.55H60.31a14.17,14.17,0,0,1-.05-3.12H62.1Z"/><path d="M44.75,93.43v.84l-.42.14a9.93,9.93,0,0,1-.1-3.11,2.1,2.1,0,0,1,1.5.1,1,1,0,0,1,.52,1,.92.92,0,0,1-.61.87A5,5,0,0,1,44.75,93.43Zm0-.55a.68.68,0,0,0,.82-.36.51.51,0,0,0-.18-.61.47.47,0,0,0-.64,0Z"/><path class="cls-8" d="M97.22,63.35c-.14.17-.26.35-.41.5-.39.37-.79.72-1.19,1.08a3.13,3.13,0,0,1,.1-.44,8,8,0,0,0,.34-3.37,2.72,2.72,0,0,1,0-.28s0,0,0-.08a1.3,1.3,0,0,1,1,1,6.07,6.07,0,0,1,.13.94C97.21,62.94,97.21,63.14,97.22,63.35Z"/><path d="M56.26,91.31c-.2.34-.38.67-.59,1a2.12,2.12,0,0,0-.43,1.53.43.43,0,0,1-.33.58.24.24,0,0,1-.31-.23,1.28,1.28,0,0,1,0-.39,1.94,1.94,0,0,0-.41-1.37,11.83,11.83,0,0,1-.66-1.1l.64-.07.75,1.22.46-.77C55.64,91.22,55.64,91.22,56.26,91.31Z"/><path class="cls-8" d="M106,100a3.17,3.17,0,0,1-2-1.31l1,.22c.34-.43.18-1,.32-1.41C106.35,97.75,106.67,98.75,106,100Z"/><path d="M47.77,93.83h1.36v.54a14.35,14.35,0,0,1-1.86,0V91.3h.5Z"/><path class="cls-9" d="M158.12,26.27l.35-.23-.24.41Z"/><path class="cls-9" d="M55,23.67l.34-.35-.22.47Z"/><path class="cls-4" d="M31.3,64.79l-.13-.21Z"/><path class="cls-3" d="M4.17,41.75l.11.12Z"/><path class="cls-2" d="M59.07,17l-.09.16Z"/><path class="cls-2" d="M96.42,23.41a2.53,2.53,0,0,0-1.8.53,24,24,0,0,0-3.11,2.85A34.47,34.47,0,0,0,86.4,34a15,15,0,0,0-.87,2.2,1.06,1.06,0,0,0,0,.87c-.42.25-.84.42-1.25,0,0-.2.08-.4.1-.59a8.44,8.44,0,0,1,.22-1.61,14.7,14.7,0,0,1,1.12-2.57,33.74,33.74,0,0,1,4.91-6.79,22.82,22.82,0,0,1,3-2.67,3.06,3.06,0,0,1,1.45-.57l1.12-.12A1.25,1.25,0,0,1,96.42,23.41Z"/><path class="cls-3" d="M127.46,4.17c-.33,0-.68,0-1,.09a11.85,11.85,0,0,0-4.69,2.14c-.77.57-1.56,1.11-2.34,1.66a15.35,15.35,0,0,0-2.8,2.6,7,7,0,0,1-2.37.25l-.32-.07a1.83,1.83,0,0,0,.39-.21c.63-.57,1.23-1.16,1.87-1.71s1.58-1.39,2.41-2,1.64-1.21,2.49-1.75a22.65,22.65,0,0,1,2.4-1.35A9.66,9.66,0,0,1,127.68,3C127.71,3.42,127.91,3.86,127.46,4.17Z"/><path class="cls-1" d="M117.75,23.29a3.6,3.6,0,0,0-1.57.38,10.1,10.1,0,0,0-2.8,1.85,23.29,23.29,0,0,0-3.45,3.78,5.63,5.63,0,0,0-.38.68,2.25,2.25,0,0,1-1.71.06,4.19,4.19,0,0,0,.26-.33c.32-.55.59-1.13,1-1.65a22.44,22.44,0,0,1,3.2-3.48,8.44,8.44,0,0,1,5.26-2.52A1.07,1.07,0,0,1,117.75,23.29Z"/><path class="cls-6" d="M77,23.52a3.53,3.53,0,0,0-2,.84,10,10,0,0,0-3.45,5,7.2,7.2,0,0,0,.16,4.31c.07.2.11.4.16.6a1.32,1.32,0,0,1-.93-.79,6.5,6.5,0,0,0-.52-.77,3.47,3.47,0,0,0,0-.64,11.13,11.13,0,0,1,0-3.26,9.16,9.16,0,0,1,3.92-5.78,2.48,2.48,0,0,1,2.12-.53A1.32,1.32,0,0,1,77,23.52Z"/><path class="cls-4" d="M67,31.45a8,8,0,0,0-1.12,2.8,5.86,5.86,0,0,0,0,3.11.62.62,0,0,1,0,.27l-1-.62-.06-.76a9.63,9.63,0,0,1-.14-1.84,13.57,13.57,0,0,1,2.79-6.51,6.48,6.48,0,0,1-.08.77A11,11,0,0,0,67,31.45Z"/><path class="cls-7" d="M156.81,50.45,154.32,50c-.31,0-.63,0-1-.06-.06.82-.12,1.56-.17,2.3l-.83-.38a6.61,6.61,0,0,1,.09-2.93H153a12.09,12.09,0,0,1,3.21.57A1.05,1.05,0,0,1,156.81,50.45Z"/><path class="cls-9" d="M158.46,26.05l.09-.18Z"/><path class="cls-2" d="M123.3,63.09a5.79,5.79,0,0,0-2.86,1.11,19.72,19.72,0,0,0-4.91,4.86c-.17.23-.3.48-.45.72a2,2,0,0,1-1.54.09,9,9,0,0,1,.55-1.23A19.51,19.51,0,0,1,119.62,63a5.8,5.8,0,0,1,3.5-1A.89.89,0,0,1,123.3,63.09Z"/><path class="cls-7" d="M130.22,78.83a2.41,2.41,0,0,0,.93-1.29c.75.09.93.29,1,1.09A1.89,1.89,0,0,1,130.22,78.83Z"/><path class="cls-5" d="M135.63,70.12a.54.54,0,0,1-.57-.46A.71.71,0,0,1,135.63,70.12Z"/><path class="cls-5" d="M136.1,70.55c-.2,0-.35-.09-.36-.32C136,70.24,136.09,70.33,136.1,70.55Z"/><path class="cls-5" d="M136.34,70.78l-.25-.23Z"/><path class="cls-5" d="M135.74,70.23l-.12-.11Z"/><path class="cls-9" d="M7.23,43.21l-.23.1-1.47-.67a4.5,4.5,0,0,1-.45-.31A6,6,0,0,1,7.23,43.21Z"/><path class="cls-7" d="M71.86,93.72a1,1,0,0,1,.39,1H70v1.82l-1.44,0,.45-.06v-2.8h.64Z"/><path class="cls-5" d="M71.43,88.93a.82.82,0,0,1,.43,1,9.2,9.2,0,0,0-2-.06v1.35h-1c0-.74,0-1.48,0-2.3Z"/><path class="cls-7" d="M102.39,89.06a.84.84,0,0,1,.42,1h-2.33v1.78h-1c.1-.92,0-1.85.1-2.82h.88Z"/><path d="M143.88,62.34V59.81H145a2.12,2.12,0,0,1,.59.06.59.59,0,0,1,.29.25.67.67,0,0,1,.11.4.75.75,0,0,1-.09.37l-.08.1a.75.75,0,0,1-.42.22l.2.22a4,4,0,0,1,.29.41c.06.11.17.28.31.5h-.61l-.37-.55a4.26,4.26,0,0,0-.27-.38.39.39,0,0,0-.16-.1.77.77,0,0,0-.25,0h-.11v1.06Zm.51-1.46h.38a2,2,0,0,0,.46,0,.31.31,0,0,0,.14-.11.31.31,0,0,0,.06-.19.33.33,0,0,0-.07-.21.38.38,0,0,0-.2-.1h-.77Zm.44,2.45a2.42,2.42,0,0,1-.88-.17,2.82,2.82,0,0,1-.38-.21,2.3,2.3,0,0,1-.34-.28,2.16,2.16,0,0,1-.27-.33,1.47,1.47,0,0,1-.21-.39,2.2,2.2,0,0,1-.18-.88,2.23,2.23,0,0,1,.18-.88,1.58,1.58,0,0,1,.21-.38,1.9,1.9,0,0,1,.61-.61A1.58,1.58,0,0,1,144,59a2.23,2.23,0,0,1,.88-.18,2.2,2.2,0,0,1,.88.18,1.47,1.47,0,0,1,.39.21,2.16,2.16,0,0,1,.33.27,2.3,2.3,0,0,1,.28.34,2.82,2.82,0,0,1,.21.38,2.42,2.42,0,0,1,.17.88,2.38,2.38,0,0,1-.17.88,2.42,2.42,0,0,1-.21.39,2.65,2.65,0,0,1-.61.61,2.42,2.42,0,0,1-.39.21A2.38,2.38,0,0,1,144.83,63.33Zm0-4.33a2.07,2.07,0,1,0,2.07,2.07A2.07,2.07,0,0,0,144.83,59Z"/></g></g></svg>