<svg xmlns="http://www.w3.org/2000/svg" viewBox="0 0 207.76 100"><g id="圖層_2" data-name="圖層 2"><g id="圖層_1-2" data-name="圖層 1"><path d="M111.3,14.11c-2.15.18-4.08.36-6,.5-5.68.42-11.36.77-17,1.24a48.17,48.17,0,0,0-13.41,2.82,17.06,17.06,0,0,0-6.63,4.19,5.43,5.43,0,0,0-1.69,4.42c.53-.23,1-.41,1.48-.64a36.18,36.18,0,0,1,11.15-3.89,14.56,14.56,0,0,1,6.4.31c3.64,1.1,4.3,3.94,1.5,6.55A15.3,15.3,0,0,1,80.25,33,16.84,16.84,0,0,1,70.19,33a46.93,46.93,0,0,1-4.9-2.42l-2.7,2.57c.82.61,1.54,1.12,2.23,1.66a12.67,12.67,0,0,1,5.27,10.78c-.12,4-2,7.11-5,9.71-.61.56-1.3,1-2.07,1.61a6.74,6.74,0,0,0,.72.95c5.13,4.73,6.15,12.91,2.64,19.59A18.23,18.23,0,0,1,59,85a13.13,13.13,0,0,1-6.58,1.68,8.63,8.63,0,0,1-8.47-8.34c-.31-4.45,1.56-7.92,4.69-10.86a9,9,0,0,1,4.63-2.62c-.27.44-.55.88-.83,1.31A7.54,7.54,0,0,0,51,70.27c-.07,3.12,2.21,4.93,5.22,4.14a9.12,9.12,0,0,0,5.66-4.61,10.24,10.24,0,0,0,.47-10.13c-.88-1.79-1.12-1.77-3.06-1.35a31.85,31.85,0,0,1-5.32.75c-1.54.08-2.33-.53-2.48-1.41s.52-1.93,2-2.16a19.77,19.77,0,0,1,4.74-.11,2.79,2.79,0,0,0,2.75-1c3.27-4,5-8.43,4.22-13.65a9.28,9.28,0,0,0-3.71-6.3c-.71.86-1.45,1.65-2.09,2.51A82.54,82.54,0,0,0,48,58.19c-2,5.47-3.84,11-5.86,16.44-2.13,5.75-4.78,11.26-9.08,15.76-6.26,6.54-13.79,10.17-23,9.54-.62,0-1.23-.2-1.85-.3a1.67,1.67,0,0,1-1.47-1.25C4.56,92,2.35,85.56,0,78.73a11,11,0,0,1,1.07.69C5.9,84,11.56,84.7,17.73,83A23.81,23.81,0,0,0,32,72.55c2.48-3.92,4.67-8,6.82-12.14a113.63,113.63,0,0,1,13.58-20.9c1.87-2.22,4-4.27,6-6.45-1-1.06-2.51-1.12-3.81-1.31C43.23,30.1,33.3,33.14,25.06,41.26a19.15,19.15,0,0,0-5.63,10.68,9,9,0,0,0-.15,1c-.39,5,3.27,7.81,8.29,6.44a19.63,19.63,0,0,0,8.94-5.87,34.68,34.68,0,0,0,7.93-12.59,1.74,1.74,0,0,1,.84-1,13.3,13.3,0,0,1-.21,1.68,50.12,50.12,0,0,1-9.36,19.77A26.42,26.42,0,0,1,23.57,70.2a14.38,14.38,0,0,1-7.59.7c-4.3-.87-6.79-3.54-7.89-7.63a16.53,16.53,0,0,1,.66-9.81A28.41,28.41,0,0,1,19.94,39.08c9.5-6.56,20-9.84,31.62-9a39.28,39.28,0,0,1,6.91,1.43,2.39,2.39,0,0,0,2.65-.47A6.27,6.27,0,0,1,62.62,30a3.26,3.26,0,0,0,2-3.44c-.1-2.09,1.23-3.77,2.65-5.26a25.35,25.35,0,0,1,7.88-5.35,71.18,71.18,0,0,1,16.71-5,201.77,201.77,0,0,1,22.34-2.56c8.3-.65,16.62-1.23,24.76-3.23A67.58,67.58,0,0,0,151.28.8c.53-.25,1.08-.47,1.85-.8-.14,1.1-.89,1.28-1.4,1.62a66.64,66.64,0,0,1-17.37,7.9c-3,.89-6,1.61-9.07,2.33a2.77,2.77,0,0,0-2.19,1.65c-.9,2.07-1.87,4.11-2.81,6.17l.35.28a14.26,14.26,0,0,1,1.33-.72,16.41,16.41,0,0,1,3.29-1.18,2.43,2.43,0,0,1,2.92,2.48,7.09,7.09,0,0,1-.47,2.61c-.63,1.69-1.41,3.32-2.12,5a2.08,2.08,0,0,0-.15.39c-.25,1-1.15,2.1-.19,2.88.57.47,1.75.21,2.78.28-.11.22-.21.63-.47.82a27.45,27.45,0,0,1-4.3,2.86c-2.78,1.27-4.87-.24-4.71-3.32a10.29,10.29,0,0,1,.8-3.41c.61-1.46,1.47-2.82,2.22-4.22l1.3-2.41a5.63,5.63,0,0,0-4.72,3.35c-.9,2.11-1.73,4.24-2.61,6.35-.64,1.53-1.33,3-2,4.58a2.41,2.41,0,0,1-1.76,1.61c-1.83.38-3.66.75-5.5,1.09-.16,0-.36-.14-.76-.31l12.78-25.31c-2.71-.1-5.15.18-6.5,3-1.12,2.3-2.32,4.56-3.35,6.91-1.44,3.3-2.69,6.68-4.15,10a19.43,19.43,0,0,1-4.46,6.47,10.56,10.56,0,0,1-6.49,3c-4.27.37-7-3.32-5.28-7.26A23.81,23.81,0,0,1,90.34,32l.41.15a6.53,6.53,0,0,0,0,1,2.64,2.64,0,0,0,3.1,2.37,6.23,6.23,0,0,0,2.8-1.23,20.63,20.63,0,0,0,3.2-3.53c1.06-1.45,1.9-3.06,2.83-4.6,1.25-2.08,2.38-4.25,3.78-6.22S109.54,16.2,111.3,14.11ZM67,29.18a6,6,0,0,0,3.48,2.53,14.12,14.12,0,0,0,7,.3,10.19,10.19,0,0,0,5.1-2.16c1.24-1.1,1.83-2.75,1.32-3.88a3.2,3.2,0,0,0-3.24-1.81,20.18,20.18,0,0,0-4.11.42A21,21,0,0,0,67,29.18Zm-9.1,27.41a6.33,6.33,0,0,0-4.61,0c-.27.12-.44.46-.66.71.28.24.55.67.86.71A4.87,4.87,0,0,0,57.92,56.59Zm132-20.69.06-.13-.09.1-.39.8c-1.2,2.25-2.35,4.54-3.61,6.76a80.94,80.94,0,0,1-9.07,13.18,28.15,28.15,0,0,1-10.75,7.66c-7.18,2.94-14.71,4-22.37,4.39-6.66.32-13.33.58-20,.9a184.37,184.37,0,0,0-19.47,2.06C85.9,74.48,69.69,82.16,54.91,93.13a9.94,9.94,0,0,0-1.17,1.17l.3.36c.77-.4,1.57-.75,2.32-1.2,15.06-9,31.44-13.78,48.88-15.18,7.69-.61,15.37-1.27,23-2.07a137.17,137.17,0,0,0,31.95-7.51,62.23,62.23,0,0,0,20.2-11.4,78.87,78.87,0,0,0,15.1-17.93c4.47-7.12,8.22-14.63,12-22.1a4.2,4.2,0,0,0,.2-.83c-2.86.82-5.51,1.61-8.18,2.33a3,3,0,0,0-2.09,1.78c-1.44,2.92-3,5.81-4.56,8.64a20.65,20.65,0,0,1-5,6.06,7.55,7.55,0,0,1-2.72,1.42c-1.3.33-2.16-.58-1.94-1.92a7,7,0,0,1,.71-1.94c1.79-3.82,3.6-7.63,5.49-11.62a13.12,13.12,0,0,0-1.33.22c-1.85.58-3.69,1.21-5.56,1.75a2.88,2.88,0,0,0-2,1.62c-1.32,2.75-2.77,5.44-4.11,8.18a52.17,52.17,0,0,0-2.64,5.87,11.9,11.9,0,0,0-.55,4.28c.11,2.49,1.82,3.71,4.27,3.31a8.79,8.79,0,0,0,4.61-2.27c2.06-2,4-4.08,5.94-6.11.45-.47,1-.89,1.44-1.34ZM110.27,59.68a8.12,8.12,0,0,0,.32,2c.72,2.19,2.35,3.09,4.53,2.41A9,9,0,0,0,118,62.61a25.88,25.88,0,0,0,7-8.38,30.63,30.63,0,0,0,1.34-3.58l-.4-.26c-.49.44-1,.89-1.47,1.31A23.24,23.24,0,0,1,122,53.78a2,2,0,0,1-1.68.26c-.33-.2-.41-1.09-.32-1.63a9.47,9.47,0,0,1,.83-2.34c1.41-3,2.86-6,4.29-9,.25-.53.47-1.07.8-1.81-2.66.78-5,1.49-7.43,2.16A2.64,2.64,0,0,0,116.65,43c-.82,1.76-1.66,3.51-2.57,5.22A36,36,0,0,1,111,53.34a42.34,42.34,0,0,1-4.78,4.88,1.91,1.91,0,0,1-2.49.33c-.93-.69-.52-1.62-.22-2.47a11.57,11.57,0,0,1,.5-1.14c1.51-3.19,3-6.38,4.56-9.56.22-.47.41-.94.75-1.71-2.49.73-4.66,1.41-6.85,2a2.75,2.75,0,0,0-2,1.62c-1.52,3.11-3.18,6.15-4.66,9.28a27.43,27.43,0,0,0-1.64,4.69,7.84,7.84,0,0,0,.28,5.1,3.11,3.11,0,0,0,4,2,12.66,12.66,0,0,0,3.79-2,32.4,32.4,0,0,0,6.46-7.3c.37-.55.78-1.08,1.47-2C110.25,58.19,110.21,58.94,110.27,59.68Zm40.05-14a14,14,0,0,1-.86,2.24c-3.06,5.19-7.21,9.13-13.13,10.83a12.06,12.06,0,0,1-4.11.31,4.21,4.21,0,0,1-3.92-3.22,11.06,11.06,0,0,1-.44-3.48c.3-7.76,7.5-16.3,15.11-18a10.73,10.73,0,0,1,3.1-.18c2.11.17,3.08,1.38,2.93,3.47a8.14,8.14,0,0,1-1.81,4.36A18.7,18.7,0,0,1,140,47.53a11.75,11.75,0,0,0-1.15.5c-.56.33-1.59.76-1.56,1.06a4.4,4.4,0,0,0,1,2.4,3.29,3.29,0,0,0,3.63.84,12.37,12.37,0,0,0,5.8-3.88c.83-.92,1.57-1.92,2.35-2.88Zm-13.17,1.66A14.22,14.22,0,0,0,143.94,39a2.23,2.23,0,0,0,.14-1c-.12-.57-.21-1.36-.59-1.59s-1.15,0-1.71.19a1.84,1.84,0,0,0-.82.6A15.23,15.23,0,0,0,137.15,47.37ZM86,54.68l.1-.09A2.11,2.11,0,0,1,86,54c.6-3-.66-4.5-3.7-4.31a9.81,9.81,0,0,0-5.61,1.95,20.72,20.72,0,0,0-1.52,1.45,5,5,0,0,0,2-.22c1-.2,1.47.23,1.23,1.25a18.38,18.38,0,0,1-.87,2.56c-2.23,5.51-4.48,11-6.71,16.54-.33.79-.6,1.61-1,2.68,2.86-.91,5.43-1.67,8-2.58.46-.16.82-.86,1-1.39,1.28-3.07,2.51-6.15,3.75-9.23a12.4,12.4,0,0,1,4.29-5.51c2.09-1.51,3.16-1.29,4.61.81,0,.07.21.06.42.13l5.9-11.75a6.74,6.74,0,0,0-4.78,1.52c-2,1.71-3.82,3.6-5.72,5.42-.44.41-.87.84-1.3,1.26ZM165.8,32.55a5.7,5.7,0,0,1,0-1c.42-2.54-.61-3.9-3.13-3.94a9.67,9.67,0,0,0-6.89,2.46,11.83,11.83,0,0,0-1.08,1.39c1-.32,1.59-.55,2.17-.68,1.05-.24,1.46.14,1.23,1.18a16.35,16.35,0,0,1-.82,2.57c-2.26,5.58-4.55,11.15-6.82,16.73-.3.75-.55,1.51-1,2.61l4.17-1.41c1.44-.49,3.24-.59,4.22-1.54s1.34-2.82,2-4.29c1-2.36,1.92-4.75,3-7.08a10.94,10.94,0,0,1,4.42-4.86c1.62-1,2.6-.71,3.7.81.14.2.28.4.54.75l6-11.84a4.73,4.73,0,0,0-3.26.56,17.16,17.16,0,0,0-5.38,4.19c-1,1.1-2,2.23-3.07,3.35Zm-19.23-9.69a15.84,15.84,0,0,1-10.27,9.51,5.77,5.77,0,0,1-1.24.16c-3.25.25-4.81-1.18-4.82-4.45a13.09,13.09,0,0,1,4.38-9.76A28,28,0,0,1,139.15,15a7,7,0,0,1,4.62-.87c1.63.19,2.27,1.1,2,2.71a6.44,6.44,0,0,1-2.57,4.37,48.2,48.2,0,0,1-5.12,3.12c-1.06.6-1.27,1.06-.63,2.07a2.36,2.36,0,0,0,2.09,1.14,4.68,4.68,0,0,0,3.25-1.19C144.14,25.29,145.33,24,146.57,22.86Zm-9.22.51a8.8,8.8,0,0,0,4.83-6.25,1.63,1.63,0,0,0-.47-1.41,1.63,1.63,0,0,0-1.45.32A9,9,0,0,0,137.35,23.37Zm58.34,27.27V47.82h1.2a2.09,2.09,0,0,1,.66.08.66.66,0,0,1,.33.27.83.83,0,0,1,.12.44.93.93,0,0,1-.1.42,1.09,1.09,0,0,1-.09.11.84.84,0,0,1-.47.25l.22.24a4,4,0,0,1,.32.46c.08.12.19.31.35.55h-.68l-.41-.61q-.22-.33-.3-.42a.49.49,0,0,0-.18-.11.94.94,0,0,0-.28,0h-.12v1.17Zm.57-1.62h.42a2.3,2.3,0,0,0,.52,0,.31.31,0,0,0,.16-.12.43.43,0,0,0,0-.21.35.35,0,0,0-.07-.23.38.38,0,0,0-.22-.11h-.86Zm.49,2.73a2.52,2.52,0,0,1-1-.19,3.62,3.62,0,0,1-.43-.24A2.69,2.69,0,0,1,195,51a2.85,2.85,0,0,1-.31-.38,2.22,2.22,0,0,1-.23-.43,2.55,2.55,0,0,1,.23-2.39,2.75,2.75,0,0,1,.68-.68,2.52,2.52,0,0,1,2.39-.23,2.22,2.22,0,0,1,.43.23,2.76,2.76,0,0,1,.37.31,2.17,2.17,0,0,1,.31.37,2.55,2.55,0,0,1,.23.43,2.5,2.5,0,0,1,0,2,2.22,2.22,0,0,1-.23.43,2.24,2.24,0,0,1-.31.38,2.69,2.69,0,0,1-.37.3,3,3,0,0,1-.43.24A2.52,2.52,0,0,1,196.75,51.75Zm0-4.82a2.31,2.31,0,1,0,2.31,2.3A2.3,2.3,0,0,0,196.75,46.93ZM120.42,20a33.23,33.23,0,0,1,3.84-1.79c2.55-.8,4.28.71,3.93,3.37a9.4,9.4,0,0,1-.7,2.16c-.76,1.86-1.58,3.7-2.32,5.57-.27.68-.64,1.49,0,2.14s1.42.31,2.15.06a6.19,6.19,0,0,1,.84-.11,6.17,6.17,0,0,1-.64,1.1,11.86,11.86,0,0,1-4.69,3c-2.39.81-4.18-.4-4.34-2.89a9.27,9.27,0,0,1,1.22-5c.83-1.59,1.8-3.12,2.65-4.7.16-.29,0-.74,0-1.11a3.59,3.59,0,0,0-1,.25,7.86,7.86,0,0,0-3.71,4c-1.21,3.25-2.66,6.4-4,9.61A3.49,3.49,0,0,1,111,38.12c-1.44.25-2.85.6-4.29.83-.92.15-1.17-.2-.78-1,.55-1.2,1.18-2.36,1.77-3.54,2.6-5.21,5.19-10.42,7.82-15.62.9-1.77,1.9-3.5,2.94-5.41-3-.13-5.41.3-6.76,3.14-1.07,2.25-2.23,4.46-3.23,6.74-1.43,3.31-2.68,6.69-4.14,10a19.51,19.51,0,0,1-4.47,6.47,10.43,10.43,0,0,1-6.29,2.95,5.19,5.19,0,0,1-5.13-2.08,5.09,5.09,0,0,1-.25-5.35,9.32,9.32,0,0,1,2.57-3,6.81,6.81,0,0,0,0,1,2.66,2.66,0,0,0,3.12,2.35,6.1,6.1,0,0,0,2.79-1.24,20.63,20.63,0,0,0,3.2-3.53,44.4,44.4,0,0,0,2.82-4.61c2.37-4.24,4.76-8.45,8.92-11.9-1,0-1.61,0-2.19,0Q99,15,88.65,15.83a48.74,48.74,0,0,0-13.82,2.85,16.26,16.26,0,0,0-6.62,4.2,5.68,5.68,0,0,0-1.78,4.44c.63-.27,1.12-.45,1.58-.69a36,36,0,0,1,11.16-3.88,14,14,0,0,1,6.79.46c3.08,1.12,3.78,3.62,1.49,5.94a13.8,13.8,0,0,1-3.72,2.59,18.53,18.53,0,0,1-12.36,1.58,10.73,10.73,0,0,1-4.87-2.24c-.73-.63-1.22-.72-1.9,0S63.26,32.31,62.45,33c1,.76,1.81,1.3,2.54,1.91,4.22,3.5,6,7.89,4.69,13.3A13.52,13.52,0,0,1,65,55.42c-.58.49-1.2.93-1.91,1.46a7.07,7.07,0,0,0,.75,1c5.11,4.73,6.13,12.91,2.61,19.59a18.23,18.23,0,0,1-7.48,7.61,13.2,13.2,0,0,1-6.58,1.67,8.59,8.59,0,0,1-8.43-8.15c-.39-4.52,1.48-8.08,4.68-11.07a8.7,8.7,0,0,1,4.64-2.58c-.33.49-.66,1-1,1.48A7.4,7.4,0,0,0,51,70.5a3.88,3.88,0,0,0,5,4,8.7,8.7,0,0,0,2.47-1.06,11,11,0,0,0,4.26-12.8A8.58,8.58,0,0,0,62,59.11c-.76-1.21-.9-1.17-2.36-.87a39.69,39.69,0,0,1-5.53.84c-1.66.11-2.52-.51-2.66-1.44s.58-1.93,2.27-2.19a13.68,13.68,0,0,1,4.33-.08,3,3,0,0,0,3.23-1.26c3.08-3.93,4.71-8.28,3.93-13.34a9.7,9.7,0,0,0-2.88-5.64c-.58-.56-1-.59-1.52.09-.94,1.28-2,2.53-2.87,3.83A90.16,90.16,0,0,0,46.74,61.71c-1.88,5.36-3.78,10.72-5.83,16a39.92,39.92,0,0,1-6.06,10.63c-4.82,6-10.91,10.05-18.6,11.31A40.85,40.85,0,0,1,9,99.81,2.41,2.41,0,0,1,6.55,98c-2-6.19-4.18-12.33-6.28-18.5a2.55,2.55,0,0,1,0-.6,5.79,5.79,0,0,1,.82.55c4.77,4.5,10.36,5.24,16.47,3.61a23.85,23.85,0,0,0,14.5-10.51c2.47-3.92,4.66-8,6.81-12.14A113.63,113.63,0,0,1,52.44,39.5c1.88-2.22,4-4.27,6-6.45a5.36,5.36,0,0,0-3.22-1.17c-12.39-2-22.94,1.46-31.41,10.79A17.82,17.82,0,0,0,19.42,52c0,.07,0,.14,0,.21-.86,5.32,2.75,8.64,8,7.3,3.63-.93,6.47-3.17,9-5.8a34.92,34.92,0,0,0,8.07-12.73,1.68,1.68,0,0,1,.83-1,13.61,13.61,0,0,1-.21,1.7A50.24,50.24,0,0,1,35.7,61.4a26.29,26.29,0,0,1-12.15,8.8,14.28,14.28,0,0,1-7.59.7c-4.29-.88-6.78-3.56-7.87-7.65a16.61,16.61,0,0,1,.67-9.81,28,28,0,0,1,10.69-14c9.67-6.87,20.42-10.24,32.34-9.32a36.21,36.21,0,0,1,6.7,1.43,2.35,2.35,0,0,0,2.64-.49,6.44,6.44,0,0,1,1.33-1c1.39-.8,2.25-1.67,2.12-3.56s1.17-3.65,2.52-5.1a25,25,0,0,1,8-5.49,71.2,71.2,0,0,1,16.71-5,204.17,204.17,0,0,1,22.34-2.55c8.3-.65,16.62-1.24,24.76-3.24A66.49,66.49,0,0,0,151.29.79c.54-.25,1.08-.46,1.85-.78-.17,1.09-.91,1.28-1.42,1.62a66.68,66.68,0,0,1-17.38,7.89c-3,.89-6,1.62-9.07,2.33a2.87,2.87,0,0,0-2.19,1.66A32.41,32.41,0,0,0,120.42,20ZM74.53,32.25a14,14,0,0,0,6.34-1.31,5.5,5.5,0,0,0,2.85-2.61c.81-1.7.28-3.29-1.51-3.82a9.09,9.09,0,0,0-3.67-.29,22.65,22.65,0,0,0-10.35,4c-1.32.94-1.33,1.27,0,2.27A9.64,9.64,0,0,0,74.53,32.25ZM57.92,56.62a6.06,6.06,0,0,0-4.58-.07c-.29.13-.44.58-.66.88.26.19.51.51.8.55A5,5,0,0,0,57.92,56.62ZM189.47,36.85a11.11,11.11,0,0,1-.55,1.22c-2.24,3.82-4.38,7.72-6.8,11.43a80.4,80.4,0,0,1-5.8,7.61,23.86,23.86,0,0,1-8.23,6.24,54.37,54.37,0,0,1-19.89,5c-8.38.57-16.78.83-25.17,1.27A157.31,157.31,0,0,0,97.65,72.9C81.83,76.37,67.81,83.6,54.89,93.15a10.5,10.5,0,0,0-1.15,1.16l.32.35c.77-.4,1.57-.77,2.32-1.22,15.06-9,31.44-13.78,48.88-15.15q9.64-.77,19.3-1.64a137.77,137.77,0,0,0,28.16-5.47,97.21,97.21,0,0,0,17.06-6.59c9.87-5.24,17.45-13,23.68-22.07,5.49-8,9.76-16.77,14.18-25.41a1.88,1.88,0,0,0,0-.64c-2.6.75-5.1,1.53-7.64,2.16a3.83,3.83,0,0,0-2.69,2.26c-1.84,3.57-3.74,7.12-5.92,10.48A22.85,22.85,0,0,1,186.93,36c-1.25,1-2.57,1-3.23.35-1-1-.42-2.1,0-3.1,1.29-2.76,2.62-5.5,3.94-8.25l1.86-4c-2.64.83-4.87,1.58-7.13,2.21a2.66,2.66,0,0,0-1.8,1.53c-1.86,3.72-3.8,7.4-5.63,11.14a18.52,18.52,0,0,0-1.43,3.89,11.07,11.07,0,0,0-.27,3.49,3.24,3.24,0,0,0,4.2,3.13,9.15,9.15,0,0,0,3.6-1.51A59,59,0,0,0,186.45,40c1-1,1.84-2.2,2.75-3.31Zm-71.14,4.63a2.47,2.47,0,0,0-1.65,1.43c-.86,1.82-1.78,3.6-2.64,5.42A27.77,27.77,0,0,1,108.8,56a21.16,21.16,0,0,1-2.88,2.36,1.72,1.72,0,0,1-2.3.06c-.67-.61-.49-1.39-.17-2.12.56-1.27,1.12-2.53,1.71-3.78,1.34-2.86,2.7-5.71,4.16-8.78a11.54,11.54,0,0,0-1.21.2c-1.86.55-3.7,1.19-5.58,1.66a3,3,0,0,0-2.09,1.78c-1.45,3-3,5.91-4.45,8.92a31.06,31.06,0,0,0-1.75,4.87,7.74,7.74,0,0,0,.11,4.71c.77,2.2,2.36,3.13,4.54,2.35a12.32,12.32,0,0,0,3.55-2.07A33.12,33.12,0,0,0,108.75,59c.37-.56.77-1.11,1.16-1.66a6.52,6.52,0,0,1,.35,2.45c.12,4,2.87,5.58,6.36,3.74a3.1,3.1,0,0,0,.36-.21,24.88,24.88,0,0,0,8.85-10.78,2.94,2.94,0,0,0,.24-2.31c-.78.76-1.38,1.42-2.07,2a15.68,15.68,0,0,1-2.71,1.89c-.88.45-1.58-.09-1.42-1.06a10.34,10.34,0,0,1,.83-2.76c1.38-3,2.84-6,4.27-9,.29-.6.56-1.2,1-2C123.21,40.05,120.78,40.79,118.33,41.48Zm32,4.27a16.32,16.32,0,0,1-.89,2.24c-3,5-7,8.89-12.76,10.71a10.31,10.31,0,0,1-2.65.47c-3.86.24-6-1.71-6.19-5.58a15.46,15.46,0,0,1,1.77-7.83c2.85-5.52,7.11-9.53,13.21-11.27a9.56,9.56,0,0,1,3.5-.19A2.76,2.76,0,0,1,149,37.57c-.16,2.67-1.64,4.67-3.52,6.39a22.38,22.38,0,0,1-6.91,4.18c-1.56.63-1.78,1.36-.86,2.78a3.57,3.57,0,0,0,4.21,1.39,12.3,12.3,0,0,0,5.79-3.9c.8-.91,1.54-1.88,2.3-2.82Zm-13.19,1.64A14.27,14.27,0,0,0,144,38.77a4.1,4.1,0,0,0,.06-1.44,1.11,1.11,0,0,0-1.6-1,2.72,2.72,0,0,0-1.08.59C138.49,39.63,137.37,43.09,137.14,47.39ZM86.05,54c.58-3-.7-4.49-3.75-4.29a9.8,9.8,0,0,0-6.25,2.5,11.34,11.34,0,0,0-1,1.37A9.1,9.1,0,0,1,76.62,53c.53-.07,1.23-.23,1.55,0s.21,1,.11,1.49a13.12,13.12,0,0,1-.74,2.16Q74,65.35,70.53,74c-.22.54-.39,1.09-.66,1.88,2.48-.8,4.62-1.57,6.81-2.16a3,3,0,0,0,2.31-2c1.19-3.18,2.48-6.32,3.81-9.44a11.47,11.47,0,0,1,4.67-5.44c1.73-1,2.65-.79,3.83.87.12.17.25.32.51.63,2-4,4-7.83,5.94-11.75-3.1-.37-4.35.5-11.57,7.94A2,2,0,0,1,86.05,54Zm91.38-29.49a6.29,6.29,0,0,0-4.78,1.35,26.28,26.28,0,0,0-5.56,5.28c-.36.43-.76.83-1.32,1.43a9,9,0,0,1,0-.94c.44-2.62-.65-4.09-3.27-4a17.27,17.27,0,0,0-4.62,1,6,6,0,0,0-3.18,2.74,8.57,8.57,0,0,1,1.31-.36c.64-.07,1.29-.09,1.94-.13a11.84,11.84,0,0,1-.13,2A15.71,15.71,0,0,1,157,35q-3.39,8.37-6.78,16.74c-.24.59-.42,1.2-.69,2,2.78-.87,5.3-1.62,7.77-2.48a2.2,2.2,0,0,0,1-1.14c.56-1.19,1-2.44,1.49-3.65,1.08-2.55,2.09-5.13,3.3-7.61a9.74,9.74,0,0,1,4.35-4.35c1.47-.77,2.3-.54,3.25.7a12.1,12.1,0,0,1,.66,1C173.47,32.26,175.44,28.4,177.43,24.47Zm-30.87-1.6a15.69,15.69,0,0,1-10.45,9.54,4.49,4.49,0,0,1-.83.1c-3.47.34-5.07-1.13-5-4.62a13.22,13.22,0,0,1,4.36-9.56,26.85,26.85,0,0,1,4.34-3.2,7.22,7.22,0,0,1,4.6-1c1.87.16,2.53,1.08,2.23,2.91a6.4,6.4,0,0,1-2.52,4.18,48.14,48.14,0,0,1-5.11,3.13c-1.08.6-1.29,1-.66,2.06a2.38,2.38,0,0,0,2.08,1.15,4.71,4.71,0,0,0,3.26-1.18C144.13,25.3,145.32,24.06,146.56,22.87Zm-9.46.53a8.46,8.46,0,0,0,5-5.82c.16-.69.37-1.43-.32-1.89s-1.35.1-1.8.57A10.58,10.58,0,0,0,137.1,23.4Z"/></g></g></svg>