<svg xmlns="http://www.w3.org/2000/svg" viewBox="0 0 100 100"><g id="圖層_2" data-name="圖層 2"><g id="圖層_1-2" data-name="圖層 1"><path d="M47.33,100a2,2,0,0,0-.48-.1,48.8,48.8,0,0,1-17.2-4.23,49.49,49.49,0,0,1-11-6.76A50.09,50.09,0,0,1,4.51,70.76,48,48,0,0,1,.88,59.35a41.68,41.68,0,0,1-.66-4.71c0-.5-.07-1-.12-1.49a2.56,2.56,0,0,0-.1-.48V47.33a2.57,2.57,0,0,0,.11-.48A48.32,48.32,0,0,1,3.89,30.66a49.19,49.19,0,0,1,7.77-12.73A49.9,49.9,0,0,1,33.92,2.65a46.57,46.57,0,0,1,8-2A42.7,42.7,0,0,1,46.8.11,3.12,3.12,0,0,0,47.33,0h5.34a4,4,0,0,0,.47.11c1.53.16,3.06.25,4.58.48A47.09,47.09,0,0,1,65.66,2.5a49.37,49.37,0,0,1,16.07,8.88,49.82,49.82,0,0,1,15.9,23.38,45.81,45.81,0,0,1,1.71,7.14,42.46,42.46,0,0,1,.55,4.9,3.12,3.12,0,0,0,.11.53v5.34a3.72,3.72,0,0,0-.11.48c-.16,1.52-.25,3.05-.48,4.57a47.09,47.09,0,0,1-1.91,7.94A50.3,50.3,0,0,1,66,97.37a46,46,0,0,1-7.93,2,42.46,42.46,0,0,1-4.9.55,3.12,3.12,0,0,0-.53.11ZM50,98.62A48.62,48.62,0,1,0,1.38,49.8,48.71,48.71,0,0,0,50,98.62Z"/><path d="M41.19,8.52c0-.08,0-.14,0-.19.1-.24.25-.27.39-.1.29.38.57.76.88,1.13a.54.54,0,0,0,.35.21,1.21,1.21,0,0,1,1,.55c.16.2.27.44.62.35.1,0,.32.19.38.34a12.51,12.51,0,0,1,.59,1.54c.09.29.11.58.44.72.08,0,.12.18.19.26a3,3,0,0,0,1,.79c.51.24,1,.56,1.45.83a4.05,4.05,0,0,0,.09-.78.89.89,0,0,0-.28-.39,1.88,1.88,0,0,1-.67-1.25l.26-.17c-.19-.27-.38-.51-.54-.78s-.06-.62.37-.59a1.13,1.13,0,0,1,.45.17c.22.13.43.28.65.43l.09-.53a2.26,2.26,0,0,1,.49.19,3.48,3.48,0,0,1,.51.48,2.82,2.82,0,0,1-.08-.36c0-.26.08-.33.33-.3a2.6,2.6,0,0,0,.39,0,.89.89,0,0,1,.85.43,4.88,4.88,0,0,0,1.16,1.32,1.05,1.05,0,0,1,.25.3,2,2,0,0,0,.9.78,2,2,0,0,1,.58.49c.2.2.36.42.69.37.1,0,.21.07.33.12a.65.65,0,0,1,.57-.51,1.08,1.08,0,0,0,.35-.22c.23-.17.44-.34.39-.69s.17-.29.35-.25c.76.18,1.59.14,2.15.85a.89.89,0,0,0,1.15.23,1.17,1.17,0,0,1,.26-.1,1.65,1.65,0,0,0,1.13-.78,2.54,2.54,0,0,1,1.65-1.14c.07,0,.17-.08.21-.05.46.33,1,0,1.49.21a1,1,0,0,0,.9-.1,7.92,7.92,0,0,1,.93-.33,1,1,0,0,1,.5,0,3.58,3.58,0,0,0,1.56-.09.41.41,0,0,1,.33.09.39.39,0,0,1,0,.35c-.17.27-.38.53-.58.8a4.84,4.84,0,0,1,.5.06.21.21,0,0,1,.15.34,1,1,0,0,1-.35.33c-.33.18-.67.32-1,.47a.62.62,0,0,0-.43.56c.26.06.58-.22.82.09.15.48-.45.56-.54,1,.31.23.65,0,1,.08,0,.07,0,.2.06.25.32.29.33.28.16.6l-.07.15c.46.37.06.72,0,1.12a1.12,1.12,0,0,0,1-.21c.17-.12.31-.27.48-.38s.53,0,.49.3a1.71,1.71,0,0,1-.22.67c-.19.32-.45.59-.66.89a2.75,2.75,0,0,0-.18.47c.35-.12.58-.21.82-.27a.91.91,0,0,1,.43,0,.49.49,0,0,1,.18.87c-.27.18-.56.34-.86.5a5.93,5.93,0,0,1-.62.25c.25.07.48.07.52.15.17.38.55.51.77.79a1.65,1.65,0,0,1,.26.88c0,.15-.21.31-.3.43l1.87,1.05a2.2,2.2,0,0,0,.29-.23,3.09,3.09,0,0,1,1.9-.82,1.07,1.07,0,0,1,.85.15.53.53,0,0,0,.31.07c.44,0,.88-.13,1.3.12.07.05.22,0,.32-.05s.35-.12.52-.18c.18.31-.09.67.15,1,0,0-.1.23-.19.29s-.49.26-.74.39l.94.7a.58.58,0,0,1,.8.11c0,.06.24,0,.37,0,.37,0,.78-.08,1.11.28a1.45,1.45,0,0,1-.62.78,5,5,0,0,1,.81.4.6.6,0,0,0,.51.09c.28,0,.58-.21.79.15,0,0,.17,0,.26,0a2.12,2.12,0,0,1,.31-.09c.84,0,1.09,0,1.4.89a.64.64,0,0,0,.2,0c.24-.11.45-.24.73-.08a1.29,1.29,0,0,1,.71.72c.13.43.15.44.58.41s.81-.07,1.22-.11a2.52,2.52,0,0,1,1.36.06,3.66,3.66,0,0,0,.72.15l0,.4a1.88,1.88,0,0,0,.4,0,1.48,1.48,0,0,1,1.38.55,1.09,1.09,0,0,0,.79.35,7.68,7.68,0,0,1,.82.11,1.39,1.39,0,0,1,.45.19c.13.08.23.2.08.36s-.11.14-.09.19c.14.39-.11.62-.34.86a.21.21,0,0,0,0,.11c.77.94.47,1.28-.4,1.32.18.36.65.6.47,1.13a1.09,1.09,0,0,1-1-.13c-.66-.4-1.33-.79-2-1.17a2.25,2.25,0,0,0-.54-.14c-.06.13-.1.23-.15.32a.48.48,0,0,1-.67.17,5.74,5.74,0,0,1-1-.66,1.86,1.86,0,0,0-1.26-.47l-.27,0c-.15.15-.29.31-.43.46.25.19.65.19.82.56a1.06,1.06,0,0,1-.6.56c-.53.25-1.07.49-1.62.71a1.21,1.21,0,0,1-1.22-.06.63.63,0,0,0-.67,0c-.56.21-1.13.44-1.7.63a5.91,5.91,0,0,1-.92.16,1.82,1.82,0,0,0-.91.17c-.24.16-.49-.1-.43-.41,0-.1.06-.2.08-.3a10.21,10.21,0,0,0-4-.09c.17.09.3.14.41.21a2.48,2.48,0,0,1,.45.33c.22.23.2.38-.09.74a6.08,6.08,0,0,1,.62.33c.3.19.75.32.71.76s-.52.53-.87.64a8.86,8.86,0,0,1-1.25.23l-1.24.13A.8.8,0,0,0,73.59,40c.11.12.15.3.26.43a.69.69,0,0,1,.12.9l.35.24a.61.61,0,0,1,.33.65.62.62,0,0,1-.55.55,3.35,3.35,0,0,1-1.54,0,11.09,11.09,0,0,1-2.12-.93c-.22-.13-.45-.23-.7-.36-.17.37.08.51.25.69a.53.53,0,0,1,.14.74.94.94,0,0,1-.32.27,1.79,1.79,0,0,1-.37.16,15.2,15.2,0,0,0-1.5-.66,2.3,2.3,0,0,1-.67-.37.88.88,0,0,0-.43-.19c-.62-.06-1.25-.09-1.87-.16a.59.59,0,0,1-.29-.19c-.1-.1-.18-.21-.31-.36.07-.14.18-.33.26-.53s.13-.41-.06-.56a.47.47,0,0,0-.57-.06l-1.62.94c-.19.11-.38.23-.57.32l-2.06,1a.8.8,0,0,1-.26.09,1.36,1.36,0,0,0-.87.54,2.54,2.54,0,0,1-1.09.73c-.53.2-1,.47-1.55.72-.31.16-.62.33-.92.51a4.38,4.38,0,0,1-2.5.6,4.43,4.43,0,0,0-1.84.34c-.76.32-1.49.73-2.24,1.09a1.33,1.33,0,0,0-.38,2c.55.62,1.09,1.26,1.66,1.86a2,2,0,0,0,.66.39,3.72,3.72,0,0,1,1.15.76c.73.68,1.49,1.32,2.21,2a3.09,3.09,0,0,1,1,1.93,3.34,3.34,0,0,1,.1.82c-.11.57.25.87.63,1.11a2.43,2.43,0,0,0,1.06.31l-.92-.83c.47,0,.6.08,1.69.81,0-.13,0-.23,0-.33s0-.17-.09-.34c.53.28.41,1,1,1.19L58,58c.48.32.54.91,1.11,1.18l-.21-.46.38.27.27-.3a1.73,1.73,0,0,0,1.69,1c0-.37-.33-.55-.43-.92a3.44,3.44,0,0,1,1.26,1.53l.12-.07-.27-.69c.58.3.67.91,1.05,1.33l-.16-.52c.29,0,.32.28.39.45a2,2,0,0,0,.79.89c.46.27.9.58,1.34.89A7.6,7.6,0,0,1,66.79,64c.55.67,1.19,1.27,1.79,1.9.15.16.33.3.47.46a5,5,0,0,0,1.79,1.38,1.18,1.18,0,0,1,.72,1,7,7,0,0,0,1,2.58c.5.88,1,1.77,1.53,2.63a9.8,9.8,0,0,0,.89,1.06,5.54,5.54,0,0,1,.66.87,11.49,11.49,0,0,1,1.23,3.31,11,11,0,0,1,0,3.8,7.52,7.52,0,0,0-.06,1.16,2.44,2.44,0,0,0,.1,1.2.73.73,0,0,1,0,.33c0,.51-.08,1-.13,1.54,0,.09-.08.17-.22.24,0-.15-.05-.31-.06-.47a10.18,10.18,0,0,0-.12-2,1.38,1.38,0,0,1,0-.49,6,6,0,0,0-.38-3.2c0-.1-.09-.23-.17-.27a2.6,2.6,0,0,0-.87-.31c-1.23-.09-2.47-.13-3.73-.2A17.18,17.18,0,0,0,71,84.65a2.22,2.22,0,0,1-1.21-.13,3,3,0,0,0,0-.44,3.91,3.91,0,0,1,0-2c-.19-.48.09-1-.22-1.5a.47.47,0,0,1,0-.52.68.68,0,0,0,0-.69.72.72,0,0,1,0-.33,5,5,0,0,0,.12-1.47A24.5,24.5,0,0,0,69.43,75a.4.4,0,0,1,0-.21c.16-.66-.25-1.26-.07-2-1.76,0-3.43,0-5.14.07a4.16,4.16,0,0,0-.06.46A15.64,15.64,0,0,0,64.18,76a10.6,10.6,0,0,1,0,1.49.69.69,0,0,0,.37.68,1,1,0,0,1,.61,1.36,1.89,1.89,0,0,0,0,.58c0,.55,0,1.1,0,1.65a1.19,1.19,0,0,0,0,.43,2.08,2.08,0,0,1,.14,1.2,24.68,24.68,0,0,0,0,3c0,.2,0,.4,0,.72a2.64,2.64,0,0,1-.27-.29.29.29,0,0,1,0-.16c0-1-.11-2-.11-2.93a11,11,0,0,0-.17-1.82,2.88,2.88,0,0,1,0-.88,2.76,2.76,0,0,0-.12-1.63c-.08-.2-.11-.42-.18-.64a.36.36,0,0,0-.32-.32c-.13,0-.26-.18-.34-.31-.25-.39-.46-.8-.7-1.2s-.37-.31-.55,0-.45.85-.67,1.27c-.1.19-.19.37-.44.37s-.37.2-.41.44,0,.22,0,.33c0,1.27-.07,2.55-.08,3.83,0,.71.05,1.42.07,2.14a2.38,2.38,0,0,1,0,.36c-.25,0-.24-.19-.25-.33,0-.45,0-.89,0-1.33a1.73,1.73,0,0,0-.15-1,1.09,1.09,0,0,1,0-.69,2.92,2.92,0,0,0,.05-1.14,11.39,11.39,0,0,1-.09-1.93,11.06,11.06,0,0,1,.36-1.59,1.6,1.6,0,0,0,0-.44c0-2.13,0-4.26-.11-6.38,0-.79-.23-1.57-.22-2.36a.36.36,0,0,0-.39-.39l-4,0c0,.25,0,.43,0,.61,0,.55-.1,1.1-.1,1.65,0,1,0,1.92.05,2.88,0,.74,0,1.48,0,2.22a1.59,1.59,0,0,1-.15.47c0-.07-.1-.1-.09-.12a6,6,0,0,0-.12-2.2,4.44,4.44,0,0,1-.08-1.2,6.93,6.93,0,0,0,0-1.21c0-.4,0-.8,0-1.2a6.1,6.1,0,0,1,.15-1.66l-.89.36c-.69.27-1.37.55-2.06.81-.21.08-.36.16-.36.42,0,1.41,0,2.82,0,4.22a.39.39,0,0,0,0,.14c.13,0,.3,0,.4,0,.28-.19.48-.06.71.08s.57.33.86.49.39.3.31.75a3.72,3.72,0,0,0,.13,1.59,1.65,1.65,0,0,1,0,1,.49.49,0,0,0,0,.21c0,1.54-.07,3.07-.15,4.61a15.45,15.45,0,0,0,.13,2.54,5.32,5.32,0,0,1,0,.89c-.18-.54-.6-1-.29-1.68a.49.49,0,0,0,0-.21c-.07-.6-.19-1.2-.2-1.8,0-1.67,0-3.33,0-5,0-.75-.07-1.51-.13-2.26,0-.34-.36-.37-.57-.55a4,4,0,0,0-.15,1.61c0,.58,0,1.17,0,1.89a13.33,13.33,0,0,1-.23-3.88,1.77,1.77,0,0,1-1.53.45,5.84,5.84,0,0,0-1.8.29l-.54.12c-.07-.18-.12-.34.11-.34a9.89,9.89,0,0,0,2.38-.71A.47.47,0,0,0,52,74.1a9.24,9.24,0,0,0,.06-1c0-.5-.06-1-.07-1.5a.46.46,0,0,0-.31-.47,7.87,7.87,0,0,1-.77-.43l-.08.63h-.06l-.13-.57a8.85,8.85,0,0,0-2.56.07v.58c0,1.67,0,3.33,0,5a11.26,11.26,0,0,0,.1,1.18,10.76,10.76,0,0,1-.13,1.59,1.51,1.51,0,0,0,0,.64.78.78,0,0,1,0,.78,2,2,0,0,0-.13.5c0-.12,0-.17,0-.21,0-.4.19-.79-.1-1.17a.44.44,0,0,1,0-.37,6.19,6.19,0,0,0,.08-1.82.61.61,0,0,0-.11-.31.51.51,0,0,1,0-.57.74.74,0,0,0,0-.37c0-.78-.07-1.55-.09-2.32a1.67,1.67,0,0,1,.1-.43c0-.16.08-.31.1-.47a.4.4,0,0,0-.37-.51c-.12,0-.24-.07-.4-.11A19.64,19.64,0,0,0,47.2,69l-.68-.25a5.63,5.63,0,0,1-.05-.59c0-.56,0-1.11,0-1.67,0-.36-.09-.69-.52-.8-.05-.49-.11-1-.13-1.45a.42.42,0,0,0-.32-.44,2.85,2.85,0,0,0-1.95.14.47.47,0,0,0-.19.35c0,.56,0,1.11,0,1.7l.48.23c.08.33.16.61.21.89s.07.51.1.77c.06.75.14,1.5.19,2.26,0,.53,0,1.07,0,1.61s.14.7.67.74c.2,0,.41,0,.61,0l.57,0c.07.22,0,.32-.16.33a4.22,4.22,0,0,1-.94,0c-.41-.07-.64.24-.95.37-.07,0-.1.23-.11.36s0,.44,0,.66l0,3.55a.91.91,0,0,1,0,.33,5.41,5.41,0,0,0-.21,2.19c0,.47-.08,1-.08,1.42a5.8,5.8,0,0,0,.13,1.1,2.36,2.36,0,0,1,0,1.09,6.12,6.12,0,0,0-.09,1.05.92.92,0,0,1-.14-.73,5.79,5.79,0,0,0,.12-.82,11.36,11.36,0,0,0-.23-1.74,2,2,0,0,1,0-.92,1.36,1.36,0,0,0,0-.6,3.21,3.21,0,0,1,0-1.79,2.3,2.3,0,0,0,0-1A2.1,2.1,0,0,1,43.63,76a.87.87,0,0,0,.08-.43c0-.68,0-1.36,0-2v-.66c0-.08,0-.19,0-.21.44-.2.24-.6.31-.91a14.36,14.36,0,0,0-.13-2.93c0-.1-.08-.2-.11-.3s-.11-.19-.09-.25a1.36,1.36,0,0,0,0-.87c0-.29-.08-.58-.13-.91a2.1,2.1,0,0,0-1.56,0c0,.48-.07,1-.08,1.43,0,1,0,2.08-.07,3.11s-.11,1.85-.14,2.77c0,.72,0,1.44,0,2.17a1.07,1.07,0,0,1-.16.73.74.74,0,0,0-.06.43,5.09,5.09,0,0,1-.06.87c-.2-.26-.13-.55-.15-.83s0-.58-.07-.89l-.59-.11a12,12,0,0,0-.16,2.26h-1c-1,0-1,0-1.1,1a9.25,9.25,0,0,0,.08,2,.43.43,0,0,1,0,.22,5.16,5.16,0,0,0,0,1.71c0,.37,0,.74,0,1.11a2.56,2.56,0,0,0,.06.92,2.22,2.22,0,0,1,0,1.25c-.1-1-.27-1.89-.29-2.85s-.12-1.69-.09-2.54c0-.06,0-.14,0-.17-.34-.36-.18-.8-.19-1.2q0-1.31,0-2.61c0-.41.06-.81.1-1.2-.83-.56-1.76-.27-2.65-.4a53,53,0,0,0-.28-5.33l-4.37-.17a5.68,5.68,0,0,0-.06,2.13c0,.22.27.42.45.6s.27.28.21.48a7.77,7.77,0,0,0-.1,1.93c0,.29-.07.57-.1.86a.92.92,0,0,0,0,.44,6,6,0,0,1,.22,2,14.78,14.78,0,0,1,0,1.76,5.47,5.47,0,0,1-.2,1c0,.23-.07.46-.1.64-.11-.21-.07-.36,0-.83a5.89,5.89,0,0,0,0-2.47c-.24-.68-.11-1.4-.41-2.05a.5.5,0,0,1,0-.32,7.77,7.77,0,0,0,.17-2.09,2.39,2.39,0,0,1,.06-.66.56.56,0,0,0-.24-.72c-.31-.23-.56-.62-1.11-.48a6.47,6.47,0,0,0,.05,1.52.83.83,0,0,1,0,.38,5,5,0,0,0,0,1.92c.05.51,0,1,0,1.55,0,.25,0,.5,0,.75a2.14,2.14,0,0,1,0,.44,1.42,1.42,0,0,0,.07.86c.09.21,0,.5-.05.83a16,16,0,0,1-.16-3.5c0-.83-.19-1.65-.11-2.48a5.21,5.21,0,0,0-.32-2.18c-.3.13-.6.28-.92.4s-.2.25-.22.41a11.12,11.12,0,0,0-.12,1.27c0,1.35-.17,2.69-.06,4a29,29,0,0,1-.05,3.61c0,1-.13,2.06-.25,3.09a7.78,7.78,0,0,0,0,2.1s0,.09-.08.18a1.2,1.2,0,0,1-.31-.82,8.81,8.81,0,0,0,0-.89c0-.22-.11-.42-.13-.64a8,8,0,0,1,0-1c0-.29.13-.56-.11-.83-.08-.09,0-.29,0-.44-.05-.68-.08-1.36-.13-2,0-.08,0-.22-.1-.23-.36-.09-.3-.39-.32-.63s0-.66,0-1a8.09,8.09,0,0,0-1.1-.24c-.71-.07-1.43-.1-2.16-.13a.65.65,0,0,0-.76.72,11.66,11.66,0,0,1-.33,3.12,4.18,4.18,0,0,0,0,.5l-.12,3.27c-.21,0-.28-.09-.29-.27a5.8,5.8,0,0,1-.11-1.37,12.33,12.33,0,0,0-.08-2c0-1.19.09-2.37.19-3.55a1.8,1.8,0,0,1,.38-.9,1.85,1.85,0,0,0,.4-1.15,12.39,12.39,0,0,1,.21-1.47.6.6,0,0,1,.24-.34.55.55,0,0,0,.3-.55,2.57,2.57,0,0,1,.36-1.32.53.53,0,0,0,0-.66c-.08-.09,0-.34.05-.5a3.28,3.28,0,0,1,.31-.45c.07-.11.18-.22.18-.34,0-.76.63-1.22.92-1.85,0-.12.27-.17.33-.2.21-.36.39-.65.55-1a5.44,5.44,0,0,0,.37-.86,3.17,3.17,0,0,1,.56-1.06c.17-.22.29-.47.46-.68a.91.91,0,0,1,.36-.32,4,4,0,0,0,1.33-1.05c.12-.1.15-.31.38-.29,0,0,.09-.13.1-.21a.81.81,0,0,1,.37-.59,3.11,3.11,0,0,1,1.4-.74c.09,0,.16-.08.28-.14A1.62,1.62,0,0,1,30.75,61l.35,1,.12,0V60.48c.28.05.28.05.67,1.29l1.32-.49-.42-.53c.26,0,.45.11.64.13s.4,0,.6,0,.2-.31.38-.4c-.12-.1-.22-.26-.35-.3a4.76,4.76,0,0,0-.77-.1l-.53,0c.13-.25.32-.15.46-.17a1.28,1.28,0,0,0,.56-.11l-.63-.39a.93.93,0,0,1,1,.18,3,3,0,0,0,2.78.18l-.61-.36,0-.08.65.2c.65.21.69.21,1.37-.2a8.26,8.26,0,0,0-1.9-.52,6,6,0,0,1,2.24.26,1.36,1.36,0,0,0,1.15-.24l-.36-.54.07-.08a4,4,0,0,1,.48.32c.25.23.45.16.73-.07l-1-.89a2.76,2.76,0,0,1,1.41.74l.91-.54-.13-.27c.17,0,.37.14.47-.18L41,56.24a3.22,3.22,0,0,1,1.44.65A1.8,1.8,0,0,0,44,57.2l-.28-.64c.37.13.44.52.79.68.31-.61-.07-1.1-.2-1.63a2,2,0,0,1,.63,1.45,2.87,2.87,0,0,0,1.37,0L46,56.49l0,0,.47.54c.18-.67-.27-1.06-.55-1.52a2.18,2.18,0,0,1,.91,1.6c.27-.09.57-.11.67-.26a1.21,1.21,0,0,0,.11-.74,2.56,2.56,0,0,0-.95-1.87c-.46-.34-.91-.7-1.36-1.05-.17-.14-.34-.29-.52-.42s-.54-.36-.81-.56a3.92,3.92,0,0,1-.79-.6,3.8,3.8,0,0,1-1.07-1.77,4.73,4.73,0,0,1,.6-3.67c.07-.11.08-.25.15-.36a1.7,1.7,0,0,1,.35-.48c.65-.52,1.32-1,2-1.53a8.27,8.27,0,0,1,2.31-1.18c1-.37,2-.81,3-1.22.3-.13.61-.24.92-.38a3,3,0,0,0,.39-.24c-.38-.57-.73-1.11-1.08-1.65a2,2,0,0,1-.33-.51c-.14-.55-.58-.82-1-1.14l-2-1.55a.36.36,0,0,1-.15-.15,1.06,1.06,0,0,0-1.14-.63,8.37,8.37,0,0,1-3-.77,1.6,1.6,0,0,0-.37-.12.39.39,0,0,0-.31.05c-.34.5-1,.47-1.4.95,0,.06-.27.05-.39,0a3.08,3.08,0,0,1-.52-.34c-.42.3-.78.73-1.42.62-.09-.24-.21-.5-.6-.42l0-.51a.75.75,0,0,0-.21,0,4.14,4.14,0,0,1-.6.09c-.32,0-.48-.13-.39-.44a6.09,6.09,0,0,1,.48-1c0-.08.14-.13.18-.21s.06-.32-.17-.41l-1.58-.69a2.22,2.22,0,0,1-.22.37.4.4,0,0,1-.3.15c-.17,0-.15.06-.2.16-.21.41-.35.45-.72.26-.4.13-.75.28-1.12.37s-.43,0-.46-.35-.06-.64-.09-1c-.37.18-.69.52-1.19.36l-.12-.34c-.33.3-.62.58-.93.85a6.36,6.36,0,0,1-.66.5.8.8,0,0,1-.85.08.9.9,0,0,0-1,.09c-.56.32-1.12.66-1.67,1a5.33,5.33,0,0,1-2.28.8,6.2,6.2,0,0,1-.62,0c0-.34,0-.63,0-.92a.84.84,0,0,1,.45-.66c.19-.11.38-.22.58-.32s.2-.19.15-.39a2.11,2.11,0,0,1-.42.29c-.15.06-.29.2-.49,0s-.4-.08-.63-.12c0-.63.56-.75.87-1.08a3.42,3.42,0,0,1,1.2-.86c-.18,0-.4-.13-.53-.06a6.39,6.39,0,0,1-1.92.49c-.21,0-.38.07-.44.33a.52.52,0,0,1-.26.27c-.55.29-1.12.56-1.67.86-.23.13-.41.12-.55-.13l-2.12,1.68c-.25.19-.48.38-.84.22a.37.37,0,0,0-.51.2,5.84,5.84,0,0,1-1.79,1.71.7.7,0,0,1-.88.08.66.66,0,0,0-.71-.11.88.88,0,0,1-.23,0c-.26-.57.07-.95.4-1.32l-.32-.51c-.24.38-.78-.1-1,.38.22.17.53-.23.74.15a1.51,1.51,0,0,1-.25.33c-.47.41-1,.8-1.43,1.22a4.68,4.68,0,0,0-.53.56,2,2,0,0,1-.87.75.43.43,0,0,1-.35,0c-.06,0,0-.21,0-.33a1.4,1.4,0,0,1,0-.21c-.27.33-.53.58-1,.41A8.1,8.1,0,0,1,9.21,36.5l-.9-.36c.2-.71.88-1.06,1.25-1.66l-.61,0,.35-.63H8.74c-.2,0-.28-.13-.21-.3A2.37,2.37,0,0,1,8.9,33c.4-.4.84-.77,1.26-1.16a1.41,1.41,0,0,0,.34-.35,6.64,6.64,0,0,1,3.77-3,2.24,2.24,0,0,1,.37-.1c.26-.05.39-.17.38-.45a.65.65,0,0,1,.45-.64l1.46-.65a1.13,1.13,0,0,0,.47-.32,2.29,2.29,0,0,0-.28-.07c-.42-.06-.48-.16-.32-.58l.08-.19a5.39,5.39,0,0,0-1.34.35A4.56,4.56,0,0,1,15,26c-.44.09-.61-.09-.53-.54a2.15,2.15,0,0,1,.07-.24l-1,.29c-.17.05-.34.11-.45-.07a.39.39,0,0,1,.1-.5c.1-.1.21-.2.41-.37l-.61,0c-.25,0-.34-.1-.27-.33a1,1,0,0,1,.58-.56c.24-.09.48-.19.71-.3a4.44,4.44,0,0,0,.84-.6,5.32,5.32,0,0,1,1-.58,1.76,1.76,0,0,1,1.87-1.45,7.38,7.38,0,0,1,2.24.29,1.28,1.28,0,0,0,1.22-.24h-.6c-.17,0-.36-.06-.37-.25s.07-.43.17-.47a2.51,2.51,0,0,1,1.31-.34,4.29,4.29,0,0,1,1.25.12l.57-.41c-.3-.21-.84-.36-.48-1l-.27-.11c-.65-.2-1.3-.38-2-.59-.38-.12-.56-.33-.53-.55a.82.82,0,0,1,.67-.65,2.57,2.57,0,0,1,.87.11,1.11,1.11,0,0,0,.74,0,8.7,8.7,0,0,1,1.14-.17.52.52,0,0,1,.33,0c.4.28.91.14,1.32.36a.31.31,0,0,0,.21,0,2.37,2.37,0,0,1,1.24.13c.65.12.65.13.86.73a1.21,1.21,0,0,1,1.08.63.22.22,0,0,0,.12.11,8.92,8.92,0,0,0,2.16.91.51.51,0,0,0,.35,0,5.3,5.3,0,0,0,.57-.39c-.76-.38-1.61-.46-2.16-1.15.28-.32.66-.16,1-.31a.55.55,0,0,0-.56-.26,1.73,1.73,0,0,1-1.53-.62,1.19,1.19,0,0,0-1-.39c-.33,0-.66,0-1,0a1.59,1.59,0,0,1-.43-.06c-.32-.09-.42-.3-.25-.59a4.94,4.94,0,0,1,.45-.54,1.46,1.46,0,0,1-1.18-.36c-.07-.08-.24-.08-.36-.11s-.35-.13-.35-.36,0-.45.31-.52a6.79,6.79,0,0,1,2.84-.55.68.68,0,0,0,.56-.17,1.39,1.39,0,0,1,1.59-.19.69.69,0,0,0,.68,0,3.67,3.67,0,0,1,.69-.18c.06-.54.06-.54.71-.81-.12-.21-.26-.4-.36-.61-.18-.37-.09-.42.29-.62a1.42,1.42,0,0,1,1.5.12c.19.11.42.16.62.25s.61.26.69.66c0,.12.22.23.36.29s.43.2.45.49.2.24.37.22a.84.84,0,0,0,.46-.14c.3-.32.59-.16.94-.1a2.76,2.76,0,0,1-.37-.31.52.52,0,0,1-.09-.34c0-.16.15-.19.3-.15a.5.5,0,0,0,.27,0,.73.73,0,0,1,.83.27l.29.33a.43.43,0,0,0,.7,0,3.33,3.33,0,0,1-.24-.46c-.06-.15,0-.37.15-.33.46.11.68-.13.85-.51l.89.51L41,11a1.54,1.54,0,0,1-.35,0c-.1,0-.24-.1-.25-.17,0-.32-.29-.47-.45-.68A1,1,0,0,1,39.67,9l.72.39.12-1Zm16.15,25.1c-.52.28-1,.51-1.41.8a1.74,1.74,0,0,1-.86.32,1.28,1.28,0,0,0-1,.64,10.78,10.78,0,0,1-.77,1.21A1.5,1.5,0,0,0,53.05,38a6.07,6.07,0,0,0,1.5,2.56,5.69,5.69,0,0,0,1.59-1.77c.39-.63.69-1.31,1.1-1.93a1.74,1.74,0,0,0,.33-1.07,3,3,0,0,1,0-1.34C57.74,34.06,57.54,33.85,57.34,33.62ZM52.2,30.83c-.22.06-.42.13-.63.18s-.61.28-1,.11c-.4.24-.82.44-.95,1a9,9,0,0,0-.22,3,1.09,1.09,0,0,0,.22.6,4.23,4.23,0,0,0,.75.57c.21.14.37,0,.46-.16.21-.42.39-.87.59-1.3a13.94,13.94,0,0,0,.7-2.55A3.94,3.94,0,0,0,52.2,30.83Zm7.76,10c.25-.09.42-.22.56-.18a1,1,0,0,0,.8-.27c.2-.13.4-.28.61-.39a14.16,14.16,0,0,1,2.31-1.39.24.24,0,0,0,0-.41,4.78,4.78,0,0,0-.47-.34l-.83.2a7.93,7.93,0,0,0-.85.14,2.4,2.4,0,0,0-1,.51A6.69,6.69,0,0,0,60,40.87ZM47.68,32.22c-.53.2-.6.18-.91-.32l-.26,0c-.1,0-.23,0-.3,0s-.07-.22,0-.33a.84.84,0,0,0,.09-.19c-.33,0-.33,0-.55.15a6.86,6.86,0,0,0,2.38,3.15l.35-1.82Zm-4.33,1.2a13,13,0,0,0,2.87.82l-1.45-2A2.92,2.92,0,0,0,43.35,33.42Zm-5.28-1.87c.09-.1.16-.16.21-.23a2.43,2.43,0,0,1,1-.88,2.24,2.24,0,0,0,.44-.39,3.19,3.19,0,0,0-3.08.76Zm14.41,2.82a1.85,1.85,0,0,0,.82-2,.6.6,0,0,1,0-.42,3.17,3.17,0,0,0,.42-1.28c-.22-.31-.49-.14-.76-.16A16.27,16.27,0,0,1,52.48,34.37Zm7.81,1.74a4.18,4.18,0,0,0-2.44,3.12A15,15,0,0,1,60.29,36.11Zm-.15-1.55-.7,1.22.08.08,1.84-1.3Zm-4.39-2.67L55.22,33a1.79,1.79,0,0,0,1.4-.21c.08,0,.11-.16.18-.26C55.72,32.41,55.89,32.41,55.75,31.89Zm-1-.66a2.65,2.65,0,0,0-.44,1.62l.9-1.29Z"/><path d="M11.18,46l.47-.05c.4,0,.81,0,1.21-.06.57-.06.75,0,1,.56l2.21,4.83c.09.2.2.39.29.58.3,0,.33-.28.41-.45.68-1.43,1.34-2.87,2-4.31.14-.3.3-.59.45-.89a.56.56,0,0,1,.53-.33c.44,0,.89,0,1.33,0a2.24,2.24,0,0,1,.43.17c-.24.09-.35.15-.47.18a.89.89,0,0,0-.76.89,8.22,8.22,0,0,0-.06,1c.05,1.41.13,2.81.19,4.22a1.24,1.24,0,0,0,.66,1.19c.14.07.32.08.47.14a1.87,1.87,0,0,1,.27.22,2.36,2.36,0,0,1-1.36.06,11.14,11.14,0,0,1-2.23-.09,1,1,0,0,1,.25-.17.78.78,0,0,0,.53-.87c-.05-1.09-.08-2.18-.12-3.28,0-.32,0-.65,0-1-.29.11-.33.32-.41.49l-2.13,4.51c-.09.19-.21.36-.37.63a8.19,8.19,0,0,1-.46-.8c-.65-1.4-1.28-2.82-1.92-4.23l-.34-.72a1,1,0,0,0-.11.3c0,1.22,0,2.44,0,3.66A1.25,1.25,0,0,0,14,53.7c.09,0,.17.12.25.18-.06.22-.21.23-.36.2a6.83,6.83,0,0,0-2.21,0c-.07,0-.15-.07-.29-.13a2.62,2.62,0,0,1,.34-.25,1.2,1.2,0,0,0,.69-1.06c.09-1.59.16-3.18.22-4.77a2.1,2.1,0,0,0-.1-.65,1.15,1.15,0,0,0-1-.87,2.34,2.34,0,0,1-.38-.09Z"/><path d="M26.67,45.74a4.51,4.51,0,0,1,2,.46,3.58,3.58,0,0,1,2.09,3.17,4.79,4.79,0,0,1-.68,2.86A4.08,4.08,0,0,1,26,54.17a4.09,4.09,0,0,1-2.17-.76,3.77,3.77,0,0,1-1.55-2.93,5.07,5.07,0,0,1,.2-1.81,3.93,3.93,0,0,1,3-2.76A12.54,12.54,0,0,1,26.67,45.74Zm2.68,4.5a4.53,4.53,0,0,0-1-3,2.65,2.65,0,0,0-2.69-.92,2.34,2.34,0,0,0-1.78,1.9,6,6,0,0,0,0,2.69,4.19,4.19,0,0,0,.67,1.62,2.58,2.58,0,0,0,2.63,1.17A2.44,2.44,0,0,0,29.06,52,4.28,4.28,0,0,0,29.35,50.24Z"/><path d="M38.91,46.32c0,.23,0,.4,0,.58,0,.5,0,1,0,1.49a.65.65,0,0,1,0,.28c-.05.12-.17.16-.26.06a.81.81,0,0,1-.13-.3,3,3,0,0,0-2.32-2.14,2.28,2.28,0,0,0-2.57,1.08,3.77,3.77,0,0,0-.5,1.33A5.14,5.14,0,0,0,34,52.76a1.94,1.94,0,0,0,2.28.81h.11c.41-.15.91-.2,1.1-.66a2.51,2.51,0,0,0,0-1.79.73.73,0,0,0-.64-.46l-.72-.17c.16-.13.21-.21.28-.23a2.54,2.54,0,0,1,.39,0h3c-.14.17-.19.28-.26.3a.87.87,0,0,0-.6,1c0,.39,0,.78,0,1.17a.43.43,0,0,1-.28.48,13.69,13.69,0,0,1-2.87,1,3.51,3.51,0,0,1-4.09-2.56,4.68,4.68,0,0,1,1-4.5,3.79,3.79,0,0,1,4-1.13c.33.09.66.22,1,.34A1.18,1.18,0,0,0,38.91,46.32Z"/><path d="M79.74,54a1.9,1.9,0,0,1-.4.05,18.22,18.22,0,0,0-3.22,0H76c-.16,0-.38.06-.41-.16s.19-.22.36-.26a.91.91,0,0,0,.85-1c0-.31,0-.63,0-.94,0-1.52,0-3,0-4.55,0-.57-.08-.66-.64-.65a8.13,8.13,0,0,0-1.21.12.87.87,0,0,0-.78.69A2.72,2.72,0,0,1,74,48c0,.09-.17.14-.27.21,0-.09-.13-.19-.12-.28.06-.55.13-1.09.21-1.64,0-.27.15-.33.48-.33.83,0,1.66.06,2.49,0,1.28,0,2.55-.06,3.83-.09.6,0,.66.05.71.64,0,.31.08.63.09.94,0,.09-.08.18-.13.27s-.22-.11-.23-.18c-.21-.86-.83-1.06-1.6-1a3.76,3.76,0,0,0-.67,0c-.39.07-.52.23-.55.63,0,.12,0,.23,0,.34,0,1.44,0,2.88,0,4.33a2.54,2.54,0,0,0,0,.39c.12.75.21,1.29,1.25,1.41.1,0,.19.12.29.18Z"/><path d="M86.88,45.94H90c-.17.16-.23.26-.31.28a1.82,1.82,0,0,0-1.1,1c-.57,1-1.15,2-1.71,3a1,1,0,0,0-.12.47c0,.67,0,1.33,0,2s.23.88.93,1c.16,0,.34,0,.42.22-.1.23-.32.18-.51.18L84.82,54c-.16,0-.33.06-.49,0s-.21-.08-.42-.16a3.06,3.06,0,0,1,.44-.21c.87-.21.89-.51,1-1.09a8.37,8.37,0,0,0,0-1.66,1.69,1.69,0,0,0-.24-.67c-.49-.92-1-1.82-1.48-2.73a2.14,2.14,0,0,0-1.46-1.32s-.08-.07-.14-.13a.76.76,0,0,1,.14-.16.42.42,0,0,1,.22,0,11.09,11.09,0,0,0,2.82,0c.11,0,.23.06.36.19-.14.07-.27.15-.41.21a.36.36,0,0,0-.22.5,3.88,3.88,0,0,0,.23.56c.32.65.65,1.29,1,1.93a1.14,1.14,0,0,0,.15.23c.15.19.3.2.45,0a5.57,5.57,0,0,0,.39-.67c.25-.47.52-.94.75-1.42s.14-.94-.53-1.18a1.87,1.87,0,0,1-.32-.08C87,46.14,86.93,46,86.88,45.94Z"/><path d="M68.05,51.92c.14.18,0,.34-.08.49a4,4,0,0,1-3.88,1.75A3.58,3.58,0,0,1,61,51.69a4.62,4.62,0,0,1,1.58-5.2,3.94,3.94,0,0,1,4.2-.24l.6.32.44-.37c.07.1.15.17.16.25.05.75.09,1.5.13,2.26,0,0-.07.11-.14.22-.07-.14-.13-.22-.17-.31a4.66,4.66,0,0,0-1.51-1.89,2.9,2.9,0,0,0-1.38-.51,2.23,2.23,0,0,0-2.22,1.18,3.73,3.73,0,0,0-.5,1.91A4.42,4.42,0,0,0,63,52.22a2.84,2.84,0,0,0,4.33.29c.21-.18.4-.38.6-.57C68,51.92,68,51.92,68.05,51.92Z"/><path d="M10.29,46.13l.17,2.28c-.31,0-.29-.17-.34-.32a2.58,2.58,0,0,0-2-1.84,1.27,1.27,0,0,0-1.55,1.28,1,1,0,0,0,.61.86c.36.18.74.33,1.11.5a12.8,12.8,0,0,1,1.33.68,2.37,2.37,0,0,1,1,2.72,2.57,2.57,0,0,1-2.33,1.9A3.29,3.29,0,0,1,7.32,54a4.66,4.66,0,0,0-.79-.22c-.52,0-.66-.35-.74-.79s-.2-.86-.3-1.29c0-.19-.1-.4.21-.53.08.18.14.35.21.51a3.57,3.57,0,0,0,1.36,1.71,1.62,1.62,0,0,0,2.32-.48,1.23,1.23,0,0,0-.42-1.78c-.41-.24-.87-.4-1.29-.62s-1-.49-1.41-.78a2.05,2.05,0,0,1-.75-2.41,2.18,2.18,0,0,1,2-1.56,2.92,2.92,0,0,1,1.24.2A1.73,1.73,0,0,0,10.29,46.13Z"/><path d="M73.1,53.9a.53.53,0,0,1-.59.18,9.46,9.46,0,0,0-2.76,0c-.09,0-.19-.06-.34-.12a1.62,1.62,0,0,1,.34-.26.91.91,0,0,0,.58-.87c0-.2,0-.4,0-.61V47.38c0-.67-.21-.89-.85-1-.19-.05-.54,0-.45-.31s.34,0,.53,0l1.6,0c.39,0,.78,0,1.16,0,.07,0,.14.09.21.14a1.54,1.54,0,0,1-.17.19,1,1,0,0,1-.26.08.47.47,0,0,0-.36.44c0,.24,0,.48,0,.72,0,1.4,0,2.81,0,4.22,0,.35,0,.7.06,1a1,1,0,0,0,.92.93C72.85,53.68,73,53.69,73.1,53.9Z"/><path d="M70.27,56.28c.47.26.57.45.5.88a.74.74,0,0,1-.74.62c-.51,0-1,0-1.5,0,0-.27.12-.56.14-.86s0-.74,0-1.11a.65.65,0,0,0-.46-.69c.49,0,.9-.09,1.31-.11a1.65,1.65,0,0,1,.54.09c.53.19.63.58.3,1Zm-1.15.65c0,.55.12.74.51.74a.62.62,0,0,0,.68-.59c0-.39-.29-.65-.79-.64C69.17,56.44,69.12,56.5,69.12,56.93Zm0-.73c.2,0,.34,0,.49,0,.32,0,.47-.15.46-.42a.64.64,0,0,0-.65-.61c-.26,0-.33.08-.34.45C69.12,55.83,69.15,56,69.16,56.2Z"/><path d="M85.78,55.3c0,.16,0,.33,0,.49s0,.1,0,.19a5.3,5.3,0,0,0-.41-.49.84.84,0,0,0-1.49.4,1.46,1.46,0,0,0,.08,1,1,1,0,0,0,1.5.46,2.91,2.91,0,0,0,.31-.24,1.05,1.05,0,0,1-.93.73,1.3,1.3,0,0,1-1.26-.53,1.5,1.5,0,0,1,.73-2.24,2.25,2.25,0,0,1,.86,0A3.36,3.36,0,0,1,85.78,55.3Z"/><path d="M82.1,56.14c.05.29-.16.58-.29.86-.06.12-.31.17-.48.22s-.37-.07-.5.12c0,.21.18.22.33.22a4.87,4.87,0,0,1,.55,0,.38.38,0,0,1,.24.66,1.18,1.18,0,0,1-1.38.15c-.07-.06-.13-.26-.1-.28.31-.24,0-.66.25-.9A2.09,2.09,0,0,0,80.6,57a.55.55,0,0,1,.45-.87,3.31,3.31,0,0,1,.54.06C81.75,56.19,81.91,56.16,82.1,56.14Zm-.57.57c0-.27-.15-.5-.34-.49s-.31.21-.31.45.13.44.32.45S81.53,57,81.53,56.71ZM80.83,58c-.13.35.11.43.29.44a1.4,1.4,0,0,0,.54-.14c0-.08-.06-.23-.1-.24A6.33,6.33,0,0,0,80.83,58Z"/><path d="M87.87,57a.94.94,0,0,1-.93.91A.91.91,0,0,1,86,57a1,1,0,0,1,1-.9A.84.84,0,0,1,87.87,57Zm-.41.16a.92.92,0,0,0-.32-.79.36.36,0,0,0-.56.09,1.07,1.07,0,0,0,.22,1.2.39.39,0,0,0,.64-.23A1.23,1.23,0,0,0,87.46,57.13Z"/><path d="M74.09,56.85l-1,0c.07.66.25.76,1,.6-.41.4-.71.48-1.07.27a.87.87,0,0,1-.36-1,.77.77,0,0,1,.79-.64C73.81,56.14,74,56.33,74.09,56.85Zm-1.15-.22a.69.69,0,0,0,.74,0c0-.22-.16-.4-.36-.36S73.09,56.47,72.94,56.63Z"/><path d="M75.33,57.11c.08-.31.28-.63-.2-.93H76c-.19.38.12.62.19,1,.44-.48.47-.59.24-1h.51l-.83,1.76-.46-1-.27.2Z"/><path d="M71.17,57.76a1.78,1.78,0,0,0,0-1.53c.24.09.46-.34.67.06l.22-.13a.26.26,0,0,1,.38.1c0,.09,0,.24,0,.37l-.58-.11a1.43,1.43,0,0,0,.11,1.24Z"/><path d="M79,56.34c.12-.31.38-.23.6-.2a.47.47,0,0,1,.37.43,4.15,4.15,0,0,1,0,.61.59.59,0,0,0,.25.59h-.71c0-.29,0-.55,0-.82,0-.47-.07-.52-.57-.62Z"/><path d="M53.29,79.79a7.24,7.24,0,0,1,0,2.27c0,.72,0,1.44,0,2.15A13.53,13.53,0,0,1,53.29,79.79Z"/><path d="M79,56.33a1.53,1.53,0,0,0,0,1.44h-.69a4.74,4.74,0,0,0,.07-.74,6.2,6.2,0,0,0-.12-.78l.42-.16.3.25Z"/><path d="M75.34,57.11l-.28.69h-.12l-.75-1.64h.67a2.55,2.55,0,0,0,0,.55,2.72,2.72,0,0,0,.22.5l.21-.09Z"/><path d="M77.62,56.1c.2.58-.16,1.19.31,1.67h-.74a2.49,2.49,0,0,0-.07-1.48Z"/><path d="M55.81,76.47c.36.55,0,1,.07,1.52a6.33,6.33,0,0,1-.07,1.44Z"/><path d="M88.53,57.09l.46.44-.48.41-.34-.4Z"/><path d="M41,86.49l.09-2.6A5.47,5.47,0,0,1,41,86.49Z"/><path d="M41.18,83a6.25,6.25,0,0,1,.1-2.27Z"/><path d="M44.63,68.51a2,2,0,0,1,1.33.14A2.75,2.75,0,0,1,44.63,68.51Z"/><path d="M77.48,55.12c.28.31.28.31,0,.6C77.18,55.46,77.18,55.46,77.48,55.12Z"/></g></g></svg>