<svg xmlns="http://www.w3.org/2000/svg" viewBox="0 0 244.71 100"><g id="圖層_2" data-name="圖層 2"><g id="圖層_1-2" data-name="圖層 1"><path d="M.12,91.67A6.53,6.53,0,0,1,.7,89.94a7,7,0,0,1,1-1.55A7.4,7.4,0,0,1,5,86.28,7.63,7.63,0,0,1,7,85.91a10.65,10.65,0,0,1,4.56.8c.19.08.37.19.61.3l-.83,2.06-.5-.18a7.81,7.81,0,0,0-3.75-.66,4.7,4.7,0,0,0-4.06,6.71A4.49,4.49,0,0,0,7,97.68a8.24,8.24,0,0,0,4-.64l.58-.23.74,2a5,5,0,0,1-.55.3,11.21,11.21,0,0,1-3,.83,10,10,0,0,1-4.66-.74,6.86,6.86,0,0,1-3-2.51A6.59,6.59,0,0,1,.5,95.55,7,7,0,0,1,.12,91.67Zm0-48.13c0-.24.09-.47.11-.7A29.65,29.65,0,0,1,20,18.23a29.62,29.62,0,0,1,8.55-1.57A29.57,29.57,0,0,1,55.89,32.55,27.46,27.46,0,0,1,59,42.15a29.06,29.06,0,0,1-7.72,24.29,29.4,29.4,0,0,1-24.39,9.23A28.94,28.94,0,0,1,9.56,68a29,29,0,0,1-9-16.08c-.15-.78-.24-1.57-.36-2.36a1.58,1.58,0,0,0-.2-.6M51.68,0V6.52h-44V0ZM237.26,0V6.44c-.48.14-42.74.2-44,.07V0ZM51.63,46.25A22,22,0,1,0,29.3,68.18,22,22,0,0,0,51.63,46.25Zm193.08,2.6a1.62,1.62,0,0,0-.09.38,24,24,0,0,1-1.47,6.8,29.29,29.29,0,0,1-14.48,16.55,27.58,27.58,0,0,1-10.61,3.08A29,29,0,0,1,195.14,68a28.47,28.47,0,0,1-9.08-16.59A28.71,28.71,0,0,1,190.45,30a29,29,0,0,1,18.7-12.76,27.21,27.21,0,0,1,6.3-.62,29.63,29.63,0,0,1,28.74,23.53c.21,1,.28,2,.42,3,0,.14.07.29.1.43Zm-51.47-2.68a22,22,0,1,0,22.08-21.91A22,22,0,0,0,193.24,46.17ZM172.78,100a.61.61,0,0,1,0-.27q2-4.33,3.94-8.68a.51.51,0,0,1,.08-.13.69.69,0,0,1,.15.14l4.09,8.94H182a3.45,3.45,0,0,1,.1-.56L186,86.72c.06-.18.1-.36.15-.56h-2.62c-.84,2.82-1.67,5.62-2.5,8.43h-.11L177.3,86h-.85c-1.2,2.88-2.39,5.73-3.63,8.72l-2.56-8.59H167.6c.05.2.09.35.13.49l1.74,5.61c.79,2.58,1.58,5.15,2.38,7.73Zm71.93-13.87h-2.65l-3.46,6-3.45-6h-2.78l.3.54c1.46,2.4,2.92,4.81,4.4,7.2a1.9,1.9,0,0,1,.29,1c0,1.44,0,2.87,0,4.31,0,.17,0,.33,0,.53.43,0,.82,0,1.2,0l1.22,0c0-1.63,0-3.18,0-4.73a2.12,2.12,0,0,1,.34-1.2c.91-1.46,1.8-2.94,2.7-4.42.62-1,1.25-2,1.88-3ZM76.94,70.79l.56.33a39.57,39.57,0,0,0,7.6,3.19,34.38,34.38,0,0,0,7.66,1.42,33.88,33.88,0,0,0,7.66-.34,22.89,22.89,0,0,0,6.84-2.19,14,14,0,0,0,7.4-9.12,18.05,18.05,0,0,0,.39-6.59,12.47,12.47,0,0,0-3.3-7.17,20.36,20.36,0,0,0-3.54-3,41.32,41.32,0,0,0-7.85-4c-2-.8-4-1.53-5.89-2.35a19.66,19.66,0,0,1-5.21-3.06,6.94,6.94,0,0,1-2.18-3,7.71,7.71,0,0,1,.54-6.3,8,8,0,0,1,5-4,15.67,15.67,0,0,1,7.33-.29,32.38,32.38,0,0,1,8.49,2.78l1,.45,2.68-7.38c-.41-.2-.77-.4-1.14-.56a33.53,33.53,0,0,0-17.51-2.7,18.34,18.34,0,0,0-7.6,2.59,15.21,15.21,0,0,0-7.72,13.61,12.39,12.39,0,0,0,3.35,8.7,19.15,19.15,0,0,0,3.12,2.7,34.52,34.52,0,0,0,7.62,3.85c2.37.9,4.77,1.75,7.06,2.86a22.44,22.44,0,0,1,4.63,2.89,7.47,7.47,0,0,1,.68,10.59,9.84,9.84,0,0,1-4.88,2.79,20.07,20.07,0,0,1-8.38.19,32,32,0,0,1-11-4.1l-.6-.34-2.86,7.43C76.9,70.73,76.91,70.78,76.94,70.79Zm59.29,3.54h36.4V66.76h-28V17.28h-8.41ZM110.57,99.72V86.18a3.29,3.29,0,0,1,.44-.05c1.38,0,2.76,0,4.14,0a7.18,7.18,0,0,1,2.89.55,3.26,3.26,0,0,1,1.81,4.11,2.85,2.85,0,0,1-1.35,1.62c-.21.13-.44.24-.73.4l.66.27a3.15,3.15,0,0,1,.77,5.39,5.74,5.74,0,0,1-3.44,1.26c-1.67.07-3.34,0-5,0A.76.76,0,0,1,110.57,99.72ZM113,93.81v3.68a12.13,12.13,0,0,0,3.15-.07,3,3,0,0,0,.81-.32,1.6,1.6,0,0,0,0-2.75,3.32,3.32,0,0,0-.8-.34A11.31,11.31,0,0,0,113,93.81Zm0-1.76c.71,0,1.35,0,2,0a3,3,0,0,0,1.74-.55,1.73,1.73,0,0,0,.74-1.67,1.52,1.52,0,0,0-1.21-1.27,1.4,1.4,0,0,0-.45-.1c-.81,0-1.62-.06-2.44-.08a1.57,1.57,0,0,0-.37,0Zm23.86,2.63,3.62,5.08-1.46,0c-.46,0-.92,0-1.38,0-1-1.44-2-2.84-3-4.26a1,1,0,0,0-1-.48c-.5,0-1,0-1.58,0v4.72c-.82,0-1.59,0-2.4,0V86.25a.72.72,0,0,1,.21,0c2,0,3.92,0,5.88,0a4.76,4.76,0,0,1,2.42.76A3.7,3.7,0,0,1,140,90.14a5.51,5.51,0,0,1-.15,1.67,3.84,3.84,0,0,1-2.33,2.59l-.32.12Zm-4.76-1.79c1.11,0,2.18,0,3.24,0a2.41,2.41,0,0,0,1.36-.48,2,2,0,0,0,.89-1.56,2.07,2.07,0,0,0-1.88-2.37,13.48,13.48,0,0,0-1.8-.1c-.59,0-1.19,0-1.81,0Zm83.06-6.64a.63.63,0,0,1,.22,0c2,0,4,0,6,0a4.66,4.66,0,0,1,2,.59,3.75,3.75,0,0,1,2.11,3.32,4,4,0,0,1-2.89,4.39l-.28.13,3.6,5.06h-2.85l-2.23-3.14c-.3-.42-.61-.85-.9-1.28a.54.54,0,0,0-.47-.28h-1.92v4.69h-2.39Zm2.38,6.63h3.35a1.79,1.79,0,0,0,.51-.11A2.2,2.2,0,0,0,223,89.94a2,2,0,0,0-1.84-1.47c-1.06-.1-2.13-.08-3.19-.1a1.9,1.9,0,0,0-.4,0ZM23.55,95v4.71h-2.3c-.12-.41-.17-12.25-.05-13.49a.66.66,0,0,1,.2-.06c2,0,3.92,0,5.88,0a4.57,4.57,0,0,1,2,.54,3.78,3.78,0,0,1,2.21,3.54,4.5,4.5,0,0,1-.34,2,4.07,4.07,0,0,1-2.33,2.15l-.51.2,3.62,5.08H29.09c-.34-.47-.7-1-1.05-1.48-.68-1-1.36-1.89-2-2.86a.76.76,0,0,0-.72-.37C24.75,95.06,24.19,95,23.55,95Zm0-2.16c1.13,0,2.21.07,3.29,0a2.19,2.19,0,0,0,2.19-2.31,2,2,0,0,0-1.93-2.08c-1.15-.11-2.32-.06-3.48-.08l-.07.07Zm125.74-6.72V99.72c.67.11,8.42.08,8.86,0,0-.69,0-1.4,0-2.13h-4.33c-.69,0-1.38,0-2.1,0,0-.6,0-1.13,0-1.65a7.83,7.83,0,0,1,.06-1.59h5.74V92.17h-3.87c-.63,0-1.26,0-1.9,0v-3.8c1.09,0,2.15,0,3.21,0h3.18v-2.2Zm55.62,13.59V97.54h-6.36V94.29h5.76V92.17h-3.87c-.63,0-1.27,0-1.9,0V88.37H205V86.16h-8.83V99.75Zm-152.43,0H49.9l-1.19-2.64H42.86L41.7,99.76H39.14c2.15-4.6,4.27-9.15,6.39-13.72h.59Zm-4.69-4.66-2-4.59-2,4.59Zm22.44-.63V92.3H64.6V88.36H71c0-.79,0-1.49,0-2.19-1.5-.12-8.41-.07-8.84,0-.11,1.42-.06,13.11,0,13.52h2.35V94.47Zm16.28-6.09H91v-2.2H79.55v2.21h4.53V99.76h2.46Z"/></g></g></svg>