<svg xmlns="http://www.w3.org/2000/svg" viewBox="0 0 174.55 100"><g id="圖層_2" data-name="圖層 2"><g id="圖層_1-2" data-name="圖層 1"><path d="M.09,13.41a4.27,4.27,0,0,1,1.46-2c1.15-.92,2.29-1.87,3.52-2.69A26.17,26.17,0,0,1,7.87,7.3c.28-.14.45,0,.6.21a6.89,6.89,0,0,1,1,3c.12.86.23,1.72.35,2.58a5.93,5.93,0,0,0,.9,2.51,4.86,4.86,0,0,1,.83,3.07,3.38,3.38,0,0,0,0,.78c0,.25,0,.58.2.73.55.52.43,1.19.51,1.82.15,1.1.31,2.2.47,3.3a4.82,4.82,0,0,0,0,1.14,23.76,23.76,0,0,1,.72,4.36,5.5,5.5,0,0,0,.21.87,1.13,1.13,0,0,0,.88-1c.07-.6,0-1.21.11-1.81.16-1.1.37-2.2.59-3.29.18-.85.39-1.68.59-2.52s.51-1.73.78-2.59c.33-1.06.68-2.11,1-3.17L18.12,16l.69-1.85.31-.88.35-.76h0c.17-.19.38-.38.12-.65a4.15,4.15,0,0,1,1.54-2.24,16.62,16.62,0,0,1,7.49-3.18c.31,0,.35.12.41.34a8.35,8.35,0,0,1-.09,4.65c-.51,1.74-1.14,3.46-1.78,5.17a26.39,26.39,0,0,0-1.66,5.83.77.77,0,0,1-.07.26A34.05,34.05,0,0,0,23,30.56c-.58,2.49-1.24,5-1.89,7.43a13.11,13.11,0,0,1-.62,1.52c-.21.51-.15.7.32,1a.62.62,0,0,1,.25.89,1.13,1.13,0,0,1-.23.34,9.19,9.19,0,0,0-2,4.53c-.37,2.3-.81,4.59-1.15,6.89-.41,2.81-.7,5.65-1.12,8.46-.26,1.73-.67,3.43-1,5.15-.07.32-.2.45-.56.43-.51,0-1,0-1.55,0a.06.06,0,0,0-.07,0h0c-.11,0-.23-.17-.34-.16-.83.06-1.67.18-2.5.21-.61,0-1.23.34-1.83,0a6.06,6.06,0,0,0-.54-.47c-.53-.33-1.08-.63-1.61-1-.17-.11-.4-.31-.4-.48,0-1.41,0-2.82.09-4.23.07-1.17.23-2.33.35-3.49.1-1,.14-2,.29-3a31.76,31.76,0,0,0,.34-5.84A11.79,11.79,0,0,0,7,46.64a8.26,8.26,0,0,1-.07-2.89,1.14,1.14,0,0,0-.23-1.06,1.86,1.86,0,0,1-.38-1c-.11-.55-.14-1.1-.22-1.65A1.25,1.25,0,0,0,5.34,39a.41.41,0,0,1-.2-.26c-.08-.36-.13-.73-.2-1.1-.13-.76-.23-1.53-.41-2.29-.23-.94-.51-1.86-.78-2.79-.36-1.26-.73-2.52-1.1-3.77,0-.22-.08-.44-.11-.65-.11-1-.21-2-.34-3a25.12,25.12,0,0,0-.4-2.74c-.4-1.58-.9-3.14-1.35-4.7a.88.88,0,0,0,0-.17,7.14,7.14,0,0,1-.34-3.49A3.53,3.53,0,0,0,.09,13.41ZM36.53,64c-.06.53-.1,1.07-.15,1.64.49,0,.94-.07,1.38-.07s.65.15.56.71c-.2,1.27-.38,2.54-.56,3.81-.22,1.57-.43,3.14-.63,4.72-.06.5-.06,1-.1,1.53l-.36,3.77c-.06.68-.12,1.37-.19,2.06s-.18,1.52-.28,2.27-.22,1.72-.36,2.58c-.22,1.32-.46,2.64-.7,4a5.21,5.21,0,0,0-.1.57,1.15,1.15,0,0,1-.79,1,1,1,0,0,0-.32.42,6.46,6.46,0,0,0-.27.6A23.52,23.52,0,0,0,33.17,96a20.65,20.65,0,0,0-.1,2.49c0,.48.08.95.13,1.49a66.6,66.6,0,0,0,15.19-3.68l.79-.29,2.52-1.11c.76-.34,1.5-.71,2.27-1a2.46,2.46,0,0,1,.67-.06l1-.51.14-.07,2-1.08.06-.11v-.26l0-.11a1.23,1.23,0,0,1-.4-1.5,17.44,17.44,0,0,0,1.22-4.61c.35-2.3.69-4.59,1-6.89a.91.91,0,0,0-.07-.43c-.25-.55-.54-1.09-.78-1.65a.49.49,0,0,0-.55-.34c-.94,0-1.88-.05-2.81-.07-.68-.36-.75-.48-.46-1.19a14.11,14.11,0,0,1,.67-1.35h0l.55-.55h0c.28-.14.56-.24.82,0,.46-.17.94-.31,1.38-.52s.76-.52,1.16-.73a.57.57,0,0,0,.32-.58c0-1,.06-2,.11-3,.12-2.38.27-4.75.39-7.12,0-.69,0-.73-.68-.92l-.26-.07a.59.59,0,0,1-.49-.75c.09-.54.14-1.08.2-1.63.1-.78-.06-1.06-.84-1.27a3.39,3.39,0,0,0-1-.12c-.65,0-1.3.09-2,.16a5.61,5.61,0,0,1-2.93-.16,1.57,1.57,0,0,0-.72-.07c-1.41.12-2.83.18-4.22.42-3,.51-5.89,1.12-8.84,1.7a.64.64,0,0,0-.36.17A6.66,6.66,0,0,0,36.84,62C36.73,62.65,36.62,63.34,36.53,64ZM51,84.79l-.09.56-.51,2.72a2.56,2.56,0,0,1-.05.27.92.92,0,0,1-.72.89c-.62.16-1.22.4-1.83.58a1.66,1.66,0,0,1-.53-.06A24.41,24.41,0,0,1,41.63,91c.1-.11.19-.24.3-.34a6.49,6.49,0,0,1,.61-.41,1.29,1.29,0,0,0,.73-1.32,18.59,18.59,0,0,1,.64-4.68,9.73,9.73,0,0,1,0-1.08c.07-.82.18-1.64.26-2.46,0-.36.26-.48.59-.46,1,0,1.93.07,2.9.08a7,7,0,0,0,1-.15l.51-.3a2.36,2.36,0,0,1,2-.37c.24.07.35.17.33.43s0,.69,0,1l-.16,1.92h0l-.1.74h0l-.1.65h0L51,84.8ZM44.91,73.93l.34-5.31c-.06-.15-.18-.32-.16-.46.16-1,.35-2,.54-3,.06-.37.25-.43.64-.4.9.06,1.81,0,2.72,0s1.84-.12,2.75-.13c.46,0,.44.45.44.71,0,.92,0,1.85-.07,2.76-.09,1.08-.29,2.14-.35,3.22A1.67,1.67,0,0,1,50.46,73c-.54.16-1.09.29-1.64.4-.1,0-.23-.11-.34-.17ZM85.63,84.8s0,0,.05,0h0c.1-.08.21-.15.31-.24s.34-.27.38-.43A4,4,0,0,1,87.63,82a.75.75,0,0,1,.81-.23c.38.12.56,0,.52-.43a25.5,25.5,0,0,1,.49-6.58c.66-4,1.78-7.87,1.75-12,0-1.71.22-3.43.26-5.15a6.43,6.43,0,0,0-.72-3.35c-.24-.43-.49-.75-1.07-.55a1.24,1.24,0,0,1-.71,0,.8.8,0,0,1-.5-1.09c.47,0,.88.6,1.41.1a9.48,9.48,0,0,0-1.59-.65,18.24,18.24,0,0,0-7-.45,22.59,22.59,0,0,0-9.42,3.08,4.83,4.83,0,0,0-2,2.73.94.94,0,0,1-.27,1.19c-.29.1-.59.17-.89.25l-.16,0-.66,2.55-.07.37c-.13.9-.27,1.8-.4,2.7S67.11,66.16,67,67c-.14,1.26-.25,2.54-.37,3.81,0,.51-.06,1-.1,1.53a3.1,3.1,0,0,1-.08.42c-.1,1.37-.19,2.74-.29,4.11,0,0-.05.06-.08.1h0l-.1,1.2c0,1.57-.06,3.14-.1,4.71,0,.3-.13.59-.14.88a1.56,1.56,0,0,0,.19.52,2.22,2.22,0,0,0,.47-.3,2.94,2.94,0,0,0,.3-.52,6,6,0,0,1,.66-.35s.26.16.25.23c-.18,1.2,0,2.46-.52,3.61A.76.76,0,0,1,67,87l.82.76c.42.17.84.37,1.27.51a11.22,11.22,0,0,0,3,.51,21.57,21.57,0,0,0,6.6-.75,20,20,0,0,0,5.5-2.3,1.65,1.65,0,0,1,.57-.14l.64-.64Zm-2.89-20-.09.55h0l-.09.55h0c-.2,1.22-.41,2.44-.61,3.66-.14.9-.28,1.8-.4,2.7-.16,1.1-.36,2.19-.43,3.29-.08,1.36,0,2.72,0,4.07a5.27,5.27,0,0,0,.09.89.64.64,0,0,1-.51.81c-.8.27-1.6.55-2.41.78a2,2,0,0,1-.73-.06c-.79,0-1.58.06-2.36.12a.73.73,0,0,0-.49.23c-.38.5-.72,1-1.05,1.53,0-.83,0-1.69,0-2.54.18-3,.33-6,.6-9s.69-6.16,1.05-9.24c0-.15,0-.3,0-.45-.4-.27-.07-.63,0-.91,0-.67.26-1.32.31-2,0-.43.18-.6.58-.62a4.21,4.21,0,0,0,.62-.09h0l.55-.1h0l.64-.1a6.72,6.72,0,0,1,1-.16,13,13,0,0,1,4,.34c.45.13.58.34.51.76s-.11.72-.17,1.08L83,63A.11.11,0,0,1,83,63l-.16,1.19h0l-.09.55ZM51.87,9,51.35,9l-.12,0-1.62.35-.11,0-.26.05-.11,0L47,10.05l-.11,0-.26.05-.11,0-.34.07-.11,0-.26.05-.12,0-.34.07-.11,0-.43.09-.12,0-.34.06-.12,0-.34.06-.2,0-.26,0-.2,0-.35.07-.2,0L42.3,11l-.2,0-.26.05-.2,0-.26.06-.29,0-.25.05-.12,0-.71.15-.12,0-1.29.33-.16.05-1.48.5-.16.06-1.23,2.75v.31a.12.12,0,0,1,0,.08l-.09.18h0a2,2,0,0,1-1.65,1.93h0l-.19.1h0l-.83.65h0l-.09.09h0a2.67,2.67,0,0,0-.08.48c0,.91-.07,1.81-.1,2.72a1.54,1.54,0,0,1-.08.19h0L32.37,23h0l-.1.91h0l-.09.83C32,25.9,31.9,27,31.75,28.19L31.36,31c-.14,1-.3,2.07-.44,3.11-.08.59-.16,1.19-.19,1.79-.05,1.18-.07,2.37-.1,3.55,0,1.35,0,2.71-.08,4.06,0,1,0,2.07-.12,3.1A14,14,0,0,1,29.27,51c.36.09.71.21,1.07.27a10.87,10.87,0,0,0,1.4.13c.29,0,.49,0,.54.36s.18.9.27,1.35h0c1.46-.26,2.92-.45,4.35-.77,2.08-.47,4.13-1,6.19-1.53l.29-.08h.14L46.63,50h.56a.09.09,0,0,1,.07,0h.23l1.85-.34.07-.06c.11-.31.22-.63.32-.94l.07-.25.21-1.3,0-.26.06-.47,0-.26.05-.38,0-.26c.2-.79.4-1.57.61-2.36l.13-.29.08-.42-.93-.06-.62,0-.38.05-.44.06-.2,0-.34.05-.21,0-.34.06-.21.05-.25,0-.2,0-.25.05-.13,0-.24,0-.57.13-.26.06-.93.21-.26.06-.56.13-.26.06-.57.12-.25.06-.21,0-.25.05-.75.13-.26,0-.47.06-.35,0-1.65,0v-.26l.15-1.38,0-.26.06-.83L39,41l.06-1.11,0-.44A8.61,8.61,0,0,1,39.24,36a.48.48,0,0,1,.28-.31c1.14-.32,2.3-.62,3.45-.93l1.93-.53,2.86-.83a10.83,10.83,0,0,1,1.12-.29,1.89,1.89,0,0,1,.58,0l.32,0,.93-.21.26-.06.2,0,.25-.06L52.11,31l.07-.35,0-.2,0-.45.05-.73,0-.82,0-.65.05-.44,0-.2,0-.26a6.17,6.17,0,0,1,.17-.77c.09-.24,0-.38-.18-.49l-.35,0-.46,0h-1l-.64,0-.45.06-.29,0-.35.05-.2,0-.34.06-.2,0-.26.05-.2.05L47.5,26l-.56.13-.26.05-.11,0-.26.06-.47.12-.26.07-1.48.39-.26.07-.74.19-.26.08-1.2.32L41.2,28l-.09.13-.29.42-.08.13-.09.14-.09.13-.09.15-.09.13-.14.18-.15.18-.1,0c0-.24,0-.49.07-.73l0-.37.06-1,0-.27.06-.65,0-.35.05-.56,0-.27,0-.46,0-.27.06-.55,0-.27.05-.46.06-.45,0-.33a3.3,3.3,0,0,1-.11-.69c0-.62.06-1.24.08-1.85s.07-.78.69-.91c1-.23,2.06-.44,3.1-.66a1.69,1.69,0,0,1,.32,0l4-1c.62-.15,1.23-.34,1.85-.48a1.46,1.46,0,0,1,.53.08l.83-.24.17,0,.53-.15.11,0,.53-.15.11,0,.15-.08a.24.24,0,0,0,0-.08s0,0,0,0c-.07-.24-.24-.5-.2-.72a8.13,8.13,0,0,1,.4-1.27l0-.12.07-.34,0-.2.06-.44,0-.2a1.65,1.65,0,0,1,.77-1.36c0-.06,0-.12,0-.18a.61.61,0,0,1-.48-.64l0-1.39c-.09-.55-.59-.32-.9-.46H52.7L52,9Zm71.87,62.72c-.15.78-.35,1.55-.53,2.32s-.57,1.57-.89,2.33c-.14.35-.21.69.11.91a1.24,1.24,0,0,0,.79.1c.51-.1,1-.28,1.51-.42.67-.18.81,0,.69.64,0,.13-.07.25-.1.38L125,79.4l.08.08.92.46,1.73.64c1,.15,2.07.36,3.11.44a13.23,13.23,0,0,0,2.35-.08,8.44,8.44,0,0,0,2-.41c1.06-.4,2.06-.93,3.09-1.4.24-.11.5-.18.74-.27a4.1,4.1,0,0,0,.48-.1c.35-.12.77-.05,1-.47.38-.67.83-1.3,1.24-1.94-.19-.34.11-.54.21-.8.2-.51.38-1,.57-1.54h0l.27-.12.14-.06a3.89,3.89,0,0,0,.68-.33c.52-.38,1-.83,1.56-1.18a1.07,1.07,0,0,0,.53-.72,37.85,37.85,0,0,0,1-8.87c0-1.48-.21-3-.33-4.45a.48.48,0,0,0-.42-.51,16,16,0,0,1-3.1-.7c-1.08-.44-2.14,0-3.18-.18h0a2.81,2.81,0,0,1-1.81-.09h0l-1-.28h0l-.12-.07c-1-.14-1.94-.29-2.92-.39-.37,0-.44-.14-.43-.49,0-.92,0-1.84.07-2.77-.05-.12-.18-.26-.16-.38a7.82,7.82,0,0,1,.71-2.85c.14-.5.62-.4.93-.42,1.21-.11,2.43-.14,3.64-.2a4.25,4.25,0,0,1,2.11.35,1.46,1.46,0,0,1,.09,1.4,6,6,0,0,1-.56,1.17.94.94,0,0,0,.06,1.16,1.08,1.08,0,0,0,1.13.26,13,13,0,0,0,3.36-1.52,4.48,4.48,0,0,1,.83-.27.08.08,0,0,1,0,0v0h0c.68-.46,1.37-.9,2-1.39a1.1,1.1,0,0,0,.41-.61c.33-1.87.62-3.75.94-5.62.06-.31-.07-.44-.32-.56a6.06,6.06,0,0,0-3-.59c-.29,0-.47,0-.59-.33a2.46,2.46,0,0,0-1.87-1.53,6.41,6.41,0,0,0-2.89.09c-2.1.51-4.18,1.09-6.28,1.63a7.5,7.5,0,0,0-3,1.59c-.49.42-1,.83-1.53,1.22a3.24,3.24,0,0,1-1.83.64c-.53,0-.64.15-.6.7s.07.91.1,1.37c0,.17.06.38,0,.51a11.58,11.58,0,0,0-1.23,4.37c-.14,1-.18,2.09-.29,3.14-.16,1.47-.36,2.94-.53,4.41a.43.43,0,0,0,.19.35A14.52,14.52,0,0,0,128,62a17.74,17.74,0,0,0,2.93.18c.21,0,.43.06.65.09.55.14,1.11.28,1.66.44.37.11.72.25,1.08.38l1.37.18,1.46.09c.53.1,1.06.17,1.57.31a.59.59,0,0,1,.33.45c0,1.67-.09,3.34-.18,5,0,.93-.18,1.85-.26,2.78a.49.49,0,0,1-.42.5c-.79.15-1.58.31-2.37.44-.13,0-.28-.1-.42-.15a13.88,13.88,0,0,1-4.41.08c-.54-.11-.57-.14-.36-.66.31-.77.69-1.53,1-2.32a11.18,11.18,0,0,0,.47-2,2.37,2.37,0,0,0-.24-.89l-.74-.2a3.79,3.79,0,0,0-2.4,0c-1.39.62-2.77,1.29-4.15,2a.48.48,0,0,0-.23.27c-.18.59-.34,1.19-.51,1.79A5.25,5.25,0,0,1,123.74,71.68ZM101.69,39c.13-.45.31-.89.42-1.34s.29-.5.65-.41a.93.93,0,0,0,.19-.11c.71-.55,1.42-1.09,2.12-1.66a.65.65,0,0,0,.18-.39c.16-.9.35-1.8.46-2.7a36,36,0,0,0,0-10.46c-.08-.47-.28-.63-.74-.72-1.11-.23-2.2-.55-3.3-.82a1.49,1.49,0,0,0-.36-.05l-2.54.1c-.61,0-1.22,0-1.82-.07a3.21,3.21,0,0,1-.76-.29c-.9-.14-1.8-.29-2.71-.39-.31,0-.44-.07-.42-.44,0-.8,0-1.61,0-2.42A6,6,0,0,0,92.9,16l.36-1.9h0c.08-.77.31-1.05.92-1.1l.79-.1a7.36,7.36,0,0,1,1.2-.26,11.38,11.38,0,0,1,3.59.27c.17,0,.41.28.41.41a6.58,6.58,0,0,1-.21,1.4c-.12.43-.37.82-.49,1.24s.18.94.76,1a4.54,4.54,0,0,0,2.37-.72c.53-.29,1.06-.59,1.6-.87a1.28,1.28,0,0,1,.34-.07c.71-.51,1.42-1,2.1-1.54a1.35,1.35,0,0,0,.48-.76c.3-1.83.54-3.67.8-5.5a.44.44,0,0,0-.31-.53,5.58,5.58,0,0,0-2.92-.56.49.49,0,0,1-.6-.33,2.19,2.19,0,0,0-1.83-1.47,9.17,9.17,0,0,0-2.67.09c-1.68.36-3.31.93-5,1.33a9.37,9.37,0,0,0-4.7,2.55,3.28,3.28,0,0,1-.9.69,8.14,8.14,0,0,1-1.66.57c-.46.1-.6.19-.55.67s.11.82.16,1.22c0,.13.14.29.1.38A11.67,11.67,0,0,0,86,15.41c-.09.56-.19,1.12-.23,1.69-.09,1.2-.11,2.41-.2,3.62s-.24,2.47-.36,3.73l2.56,1.14a16.48,16.48,0,0,0,2.1.15,8.45,8.45,0,0,1,3.52.58,7.88,7.88,0,0,0,2.64.46,19.26,19.26,0,0,1,2.38.36c.06,0,.11.1.16.16s.16.14.16.21q0,1.68,0,3.36s0,.07-.08.1c0,1.08,0,2.17-.1,3.25,0,.47-.13.93-.19,1.4L96.91,36l-.46.09-1.29.07c-1,.07-2,.16-3,.19a7.34,7.34,0,0,1-1.23-.13c-.31,0-.35-.22-.24-.49.27-.68.57-1.35.78-2A20.16,20.16,0,0,0,92,31.39a2,2,0,0,0-.14-.79l-1.85-.46a1.52,1.52,0,0,1-.2-.06,7.48,7.48,0,0,0-1.45.34c-1.21.56-2.39,1.2-3.57,1.82a.61.61,0,0,0-.27.34c-.16.55-.3,1.11-.44,1.67,0,.11.16.23.14.33-.28,1.33-.58,2.66-.89,4a3.41,3.41,0,0,1-.31.88,1.5,1.5,0,0,0-.15,1.5h0l.2.08c.66-.2,1.33-.41,2-.57.24-.06.6-.29.71.21a3.63,3.63,0,0,1-.31,1.72.58.58,0,0,0,.35.78,14.06,14.06,0,0,0,4.59,1.26A12,12,0,0,0,95,44c.44-.12.88-.26,1.32-.4l1.84-.89.53-.29.42-.18c.4-.16,1-.21,1.19-.5a19.76,19.76,0,0,0,1.37-2.2A1.85,1.85,0,0,1,101.69,39ZM73.12,11.81l.08-.34,0-.12.06-.34,0-.29.05-.45V8.8l-.06-.44,0-.12L73,7.88l-.11,0-.44-.07-.46,0h-.46l-.47,0-.53.07-.11,0-.34.06L70,8,69.72,8l-.11,0-.53.15-.11,0-.58.21-.15.06-.49.21-.15.07-.95.47-.14.08-.19.35,0,.11-.16.53-.12.38-.25.8c0,.14.13.32.09.43-.6,1.67-1.22,3.32-1.85,5a1,1,0,0,1-.18.24l-.22.61L63,19.28l-.39,1.06-1.25,3.5-.09.28-.55,1.74c-.19.71-.37,1.43-.58,2.14-.56,1.81-1.14,3.62-1.71,5.43-.15.47-.3.93-.47,1.39,0,.11-.17.18-.26.27l-.38,1.06-.62,2c-.25.8-.49,1.59-.75,2.39,0,.15-.11.29-.16.44-.28,1-.59,2-.83,3s-.49,2.33-.73,3.5c-.07.35.12.42.44.45,1.09.09,2.18.19,3.25.37.42.07.79.33,1.23.09,0,0,.19.12.29.19.34,0,.82,0,1-.15a11.32,11.32,0,0,0,1.12-1.67c0-.08-.11-.17-.09-.23.23-.55.48-1.09.72-1.64a9.4,9.4,0,0,1,.42-1.49c.07-.17.41-.27.65-.32l6-1.24a2.23,2.23,0,0,1,.36,0c.74-.18,1.49-.36,2.24-.51.08,0,.3.19.31.3a21.88,21.88,0,0,0,.56,4.18c.06.26.15.37.47.29,1-.27,1.95-.51,2.93-.74.11,0,.24.06.36.09.89-.19,1.79-.38,2.68-.61.11,0,.23-.25.23-.38a6,6,0,0,0-.07-.94c0-.24,0-.49,0-.73L79.26,42l0-.29-.06-.62,0-.29-.06-.44,0-.2L79,39.7l0-.2-.06-.44,0-.2,0-.35,0-.2L78.7,38l0-.11-.06-.35,0-.19,0-.26,0-.2-.07-.35,0-.11L78.34,36l0-.19,0-.27,0-.19,0-.26,0-.2-.05-.26,0-.2,0-.25,0-.12-.07-.34,0-.11-.07-.35,0-.11-.07-.34,0-.12-.08-.43,0-.11-.07-.35,0-.2-.06-.35,0-.11-.07-.44,0-.2,0-.35,0-.2-.06-.44,0-.2-.06-.44,0-.2L77,28.19l0-.12-.08-.52,0-.12L76.79,27l0-.19,0-.35,0-.2-.06-.35,0-.2-.06-.35,0-.2-.06-.34,0-.12-.07-.34v-.12l-.07-.34,0-.2-.07-.35,0-.2-.06-.26,0-.2L76,22.42l0-.19-.07-.35,0-.2-.06-.26,0-.2L75.69,21l0-.19,0-.26,0-.12-.07-.34,0-.11-.09-.43,0-.12-.07-.34,0-.11-.07-.35,0-.11-.07-.35,0-.11-.06-.34,0-.12L75,17.13l0-.11-.06-.35,0-.11-.06-.35,0-.19-.06-.35,0-.12-.06-.35,0-.19,0-.35,0-.2-.06-.35c-.11-.49-.52-.43-.87-.48a4.93,4.93,0,0,1-.54,0c-.44,0-.53-.17-.36-.57s.25-.61.38-.91Zm-6,14.65c.34-1.2.73-2.39,1.13-3.57a2.43,2.43,0,0,1,.44-.6,3.7,3.7,0,0,1,.26.67c.18,1,.33,2.07.48,3.1a24.56,24.56,0,0,1,.34,2.54c.1,2.19.14,4.39.19,6.59,0,.71,0,.77-.71.87s-1.5.15-2.25.19a1.18,1.18,0,0,1-.44-.16l-1.86.19,1.5-5.77A17.73,17.73,0,0,1,67.09,26.46ZM97.65,51.52h0l.21.66c.3.93.64,1.86.88,2.8a26.32,26.32,0,0,1,.53,2.76c.11.76.14,1.53.21,2.29a11.55,11.55,0,0,1,.43,1.11,49.64,49.64,0,0,0,2.42,7.37,3.7,3.7,0,0,1,.16,1.79c0,.57.08,1.15.08,1.72a19.24,19.24,0,0,1,0,2.52c-.14,1.2-.39,2.39-.59,3.58-.14.79-.28,1.59-.41,2.38,0,.33-.11.65-.13,1,0,.54-.06,1.08-.1,1.63,0,.24.09.33.29.42.43.19.85.41,1.27.62,0,0,.07,0,.09,0,.4.53,1,.26,1.43.23.69,0,1.37-.17,2-.23.12,0,.25.09.37.14.47,0,.94-.07,1.41-.06a.51.51,0,0,0,.62-.45c.35-1.49.75-3,1.05-4.48a25.78,25.78,0,0,1,1.64-6.39,3.31,3.31,0,0,0,.24-.87,6.93,6.93,0,0,1,2.12-4.29c.3-.26.24-.51-.12-.67s-.33-.33-.18-.61a13.71,13.71,0,0,0,.89-1.75c.52-1.4,1-2.82,1.44-4.23a15.61,15.61,0,0,1,2-4.53.86.86,0,0,0,.14-.29,14.27,14.27,0,0,1,1.7-4.21c.47-.95,1-1.9,1.36-2.89a4.79,4.79,0,0,0,.33-3c-.07-.26-.16-.4-.47-.34a17.24,17.24,0,0,0-5.65,2,5,5,0,0,0-2.41,2.9.91.91,0,0,1,0,.4c-.49,1.11-1,2.21-1.51,3.31,0,.07-.16.1-.24.16-.3.79-.6,1.58-.89,2.38l-.12.27c-.15.53-.26,1.07-.45,1.58a11.75,11.75,0,0,0-.57,2.68c0,.2-.24.38-.36.56h0l-.45.27a2.13,2.13,0,0,1-.18-.41c-.16-.89-.31-1.78-.44-2.68a4.77,4.77,0,0,1,0-.84l-1.47-6.25-.72-3a14.33,14.33,0,0,0-.45-1.71c-.21-.56-.4-.6-1-.42a19.58,19.58,0,0,0-5.56,3.18,2.5,2.5,0,0,0-1,1.8A.06.06,0,0,1,97.65,51.52ZM159.32,24.7l.07-.44,0-.11.11-1.22c-.39-.28-.08-.65-.06-.95,0-.58.25-1.16.32-1.75a.74.74,0,0,1,.64-.68l6-1.54c.75-.19,1.51-.37,2.27-.52a1.56,1.56,0,0,1,.58.11l.34-.08.11,0c1.49,0,2-1,2.14-2.26v-.05c.21-1,.42-2,.62-3a.31.31,0,0,0,0-.09,13.73,13.73,0,0,0-2.4,0c-2.17.39-4.31.92-6.48,1.33a3.2,3.2,0,0,0-2.28,1.41,2.76,2.76,0,0,1-.45.41c0-.25,0-.37,0-.49.19-1.21.39-2.43.58-3.65-.32-.27,0-.55,0-.83l.28-1.83h0l.09-.55c.32-.12.64-.25,1-.35a1.08,1.08,0,0,1,.31,0L166,6.89l5.09-1.16c.07,0,.16.07.24.1l2.14-.5a1.19,1.19,0,0,1,.14-1.39,1.14,1.14,0,0,0,.2-.55c.13-.62.26-1.23.73-1.49-.1-.38-.2-.67-.25-1a1.69,1.69,0,0,1,0-.45c0-.33-.12-.5-.45-.48A15.59,15.59,0,0,0,172,.13c-1.85.36-3.68.79-5.53,1.16-2.16.44-4.35.77-6.48,1.31s-1.44.11-2.51,1.91c-.2.34-.39.69-.56,1a4.18,4.18,0,0,0-.19.6v0l-.08.12h0l-.12.17-.14.11-.39.17h0c-.37.21-.74.42-1.12.61-.06,0-.16,0-.24-.07-.26.18-.49.37-.43.74.05.13.16.28.14.4-.17,1.4-.32,2.8-.56,4.18s-.6,2.79-.9,4.18c-.22,1-.42,2.07-.64,3.1,0,.08-.1.14-.15.21-.07,1.42-.11,2.84-.22,4.25a17.66,17.66,0,0,1-.82,5.2c-.18.47-.4.92-.62,1.4l1.82.31c.74,0,.85,0,.9.76,0,.3.18.37.42.33l2.33-.41c.7-.13,1.4-.28,2.1-.42s1.62-.44,2.43-.63l5.91-1.33c.1,0,.24.09.36.13a5,5,0,0,1,.76-.11c1,0,1.48-.55,1.64-1.49a13.47,13.47,0,0,1,.4-1.78c.23-.73.52-1.44.8-2.19a3.88,3.88,0,0,0-.68,0c-1.95.34-3.89.71-5.83,1-1.42.23-2.85.41-4.28.62l-.39-.06c0-.3.09-.61.13-.91ZM115,8.84a8.25,8.25,0,0,0-.86,3.68c0,.07,0,.15,0,.31l2-.37a16.55,16.55,0,0,1,3.76-.59c.47,0,.46,0,.36.5-.38,1.66-.77,3.31-1.1,5-.25,1.31-.44,2.62-.63,3.94-.12.84-.18,1.7-.29,2.54-.13,1-.29,2.05-.43,3.07s-.22,1.9-.4,2.84c-.27,1.43-.6,2.84-.9,4.26-.17.73-.36,1.45-.5,2.17a19.11,19.11,0,0,0-.4,2.48c0,1,.24,1,1.06,1.2a6.51,6.51,0,0,0,2.45-.11c.16,0,.3-.18.46-.27l.64-.35c.63-.28,1.27-.54,1.89-.83a.92.92,0,0,0,.43-.44,44.41,44.41,0,0,0,3.2-11.38c.6-4.47,1.32-8.93,2-13.39,0-.13-.17-.28-.14-.39.2-.93.42-1.86.64-2.78.12-.48.39-.63,1.13-.68s1.55-.13,2.33-.17c.1,0,.2.11.29.17a1.06,1.06,0,0,0,1.09-.58c.38-.66.83-1.28,1.21-1.94a11.89,11.89,0,0,0,1.53-4.22c.06-.47-.09-.56-.51-.58a30.49,30.49,0,0,0-8,1Q122.28,4,117.16,5.17a.69.69,0,0,0-.4.25c-.57,1-1.12,1.91-1.67,2.87A1.94,1.94,0,0,1,115,8.84Zm25,.05c-.33,1.86-.7,3.71-1.06,5.56-.08.39-.19.77-.29,1.16-.12.84-.24,1.68-.38,2.52-.09.6-.22,1.19-.33,1.78h0l-.09.55h0l-.09.64c-.1.7-.19,1.4-.28,2.09-.15,1.07-.31,2.13-.45,3.19-.11.85-.2,1.7-.28,2.55-.13,1.18-.25,2.36-.36,3.53,0,.39-.08.78-.09,1.17,0,.68,0,1.35,0,2.09h1.47c.88,0,1.76,0,2.64,0a1.64,1.64,0,0,1,.55.19c.58,0,1.15.11,1.73.13a.41.41,0,0,0,.29-.24c.34-1.33.66-2.66,1-4a7,7,0,0,0,.3-3.06.69.69,0,0,1,.11-.43,3.39,3.39,0,0,0,.46-1.79,19.43,19.43,0,0,1,.1-2.41c.46-3.28,1-6.56,1.45-9.85q.5-3.37,1-6.77c.16-1.11.37-2.22.44-3.34.05-.87-.38-1.15-1.23-.93a22.27,22.27,0,0,0-5.9,2.51,1,1,0,0,0-.37.52c-.14.47-.23,1-.33,1.42C140.34,8.08,140.08,8.5,140,8.89Zm12.13,11.2c.05-.07.13-.13.15-.21.22-1,.42-2.07.64-3.1.3-1.39.65-2.78.9-4.18s.39-2.78.56-4.18c0-.12-.09-.27-.14-.4l0,.55h0v.21c0,.46-.06.93-.15,1.39-.26,1.44-.55,2.88-.84,4.33-.37,1.84-.75,3.68-1.12,5.52A.14.14,0,0,0,152.14,20.09Z"/></g></g></svg>