<svg xmlns="http://www.w3.org/2000/svg" xmlns:xlink="http://www.w3.org/1999/xlink" viewBox="0 0 99.65 100"><defs><style>.cls-1{opacity:0.89;isolation:isolate;fill:url(#未命名漸層_2);}</style><radialGradient id="未命名漸層_2" cx="48.58" cy="-189.73" r="36.57" gradientTransform="matrix(1, 0, 0, -1, 0, -140.97)" gradientUnits="userSpaceOnUse"><stop offset="0" stop-color="#fff"/><stop offset="0.3" stop-color="#87898b"/><stop offset="0.51" stop-color="#87898b"/><stop offset="0.71" stop-color="#dfe0e1"/><stop offset="1" stop-color="#bdbfc1"/></radialGradient></defs><g id="圖層_2" data-name="圖層 2"><g id="圖層_1-2" data-name="圖層 1"><g id="Layer_2" data-name="Layer 2"><path d="M1,40.77a1.73,1.73,0,0,1,.34-1.29C1.32,39.75,1.13,40.25,1,40.77ZM53.17.5c.21,0,.3,0,.31,0C53.29.46,53.13.47,53.17.5ZM78,9.17l.53.51C78.22,9.45,77.87,9.22,78,9.17Zm9.72,8.59-.15-.17.37.22ZM92.41,25c.14,0,.4-.07.5.12a.27.27,0,0,1-.11.18A.77.77,0,0,0,92.41,25Zm6.64,25.06-.15,0v-.15ZM39.92.66h0C40,.62,40.15.59,39.92.66ZM99.23,49.93c0,.32-.14.83-.29.86l0-.74-.07,0c0-.05,0-.09,0-.14a49.23,49.23,0,0,0-.78-8.64l0,0,0-.12c-.08-.41-.15-.83-.23-1.24.06,0,.12.13.17.33,0-.85-.3-.68-.26-1.41,0-.08,0-.05.08,0l-.32-.75c.12.13.24-.19.31.3-.15-1.46-.87-2.18-.72-2.79l0,.11c-.5-1.33-.45-.83-.66-.89-.11-.33-.22-.66-.34-1l.2-.72L96,33c-.06-.19-.18-.58,0-.56-.43-.63-.1.11-.37-.17,0,0,0-.08,0-.12A6.31,6.31,0,0,0,95,30.6c-.26-.53-.46-1-.3-1.17-.35-.23.26.92-.34,0,.32-.48-.6-1.07-.79-2,.34.14.6,1,.4.05a1.59,1.59,0,0,1-.62-1,5,5,0,0,0-.58-1.24c-.31.14-1-1.35-1.76-2.4.2,0-1.24-2.08-1.87-3.12h.07c-.43,0-1.06-1-1.74-1.65.18-.1.36,0,.75.28-.18-.23-.39-.43-.57-.64a2.58,2.58,0,0,1-.84-.62h.34c-.79-.82-1.72-1.52-2.65-2.64-.15.08.06.59-.14.66l-.55-.51c.08,0,.18,0,.33.09a2,2,0,0,1-.58-.46l.6.26c-.42-.52-.39-.1-.76-.47.14-.13-.19-.36,0-.42s.29.37.49.45a5,5,0,0,1-1-1.25c0,.11-.16.19-.5-.09-.85-.76-.14-.43-.58-1-.27-.1-.77-.64-1-.43a.66.66,0,0,1-.29-.47c-.55-.26-2.22-1.62-1.86-1l0,0,0,0h0l.06,0-.09,0a10.57,10.57,0,0,1-1.22-.79l-1.22-.83a23.6,23.6,0,0,0-2.47-1.59l0-.08a20.14,20.14,0,0,0-3.08-1.25c-.3-.15-.64-.5-.47-.53a14.71,14.71,0,0,1-2-.87c.88.15-.23-.24.88.19a6.87,6.87,0,0,0-2.45-.87c.47-.08-.7-.58-1.23-.69l.69.43A14.13,14.13,0,0,1,64.6,2.5L65,2.31a9.28,9.28,0,0,0-3.08-.71A7.56,7.56,0,0,1,59.21.89c-.65.12,1.22.34.62.51a19.89,19.89,0,0,1-2.4-.86C56,.17,56,.73,54.52.48c.19.12.34.42-.8.47S52.45.42,53.13.37c.25,0,.38,0,.36.09.35,0,.8-.05.38-.2l-.14.11c-.52-.14-2-.2-1.64-.37-.82.06-.35.16.24.25A20.86,20.86,0,0,0,48.78.07c.23,0,.44.17.21.18-2.07,0-.9.26-2.29.37C45.9.5,47,.21,45.56.42c-.87-.07-.21-.28.13-.38a5.63,5.63,0,0,1-.93.11,7.93,7.93,0,0,1-.84.07c-.54,0-1,0-1.39,0L43.2.05a6.53,6.53,0,0,1-1.07.21l.42.16c-.4,0-.74.08-.74,0-.39.21.36.32-.41.64-.54,0-1.57.34-1.8.13C41.25,1,39.34.89,40.74.61a4.85,4.85,0,0,1-1,.16c-.06,0,0-.08.15-.11-1.62.12-.65.5-2.26.9.17-.21-.45-.21-.71-.1.66-.17.39.19-.17.46a6.9,6.9,0,0,0-1.64.5l.63-.1c-.16.21-.67.31-1.35.64-.1-.11.6-.32.34-.28-.68.55-1.84.35-2.85.93-.54.08-.16-.28-.63-.18-1.13.62-1.37.33-2.54,1.06.45,0,.49,0-.28.57L30.36,4l-1.16.91A16.72,16.72,0,0,1,30.8,4c-.56.41-.5.37-.15.39-.95.09-1.54,1-2.58,1.21l-.21-.51a6.92,6.92,0,0,0-2,1,13.33,13.33,0,0,1-2.2,1.46l.62-.26c-.12.33-1.07.69-1.59,1.11-.05-.19-.43,0-.74,0,0,0-.08,0-.22,0l.21,0c.1.09-1.23.9-1.16,1.31l-.88.36c-1.4.93-1.23,1.51-2.43,2.55.23-.47-.4-.09.31-.91-.4.35-.78.65-.7.75-.31.13-.9,1.13-1.38,1.36a.86.86,0,0,1,.31-.29,1.39,1.39,0,0,0-.41.35l.06,0c-.11.21,0,.4-.48.78-.07,0-.06-.06-.06-.06s-.58.75-.07.51a9.87,9.87,0,0,0-2.26,2.1c-.36.43-.73.84-1.08,1.2a4.51,4.51,0,0,1-.9.9l.12-.18-.27.3.1-.07-2,3c0-.08-.07-.05,0-.21-.9,1.16,0,1-1,2.36-.7.57.31-.84-.06-.44-.61-.11-1,1.73-1.8,2.56l.08-.27c-.56.69-.7,2-1.35,3.23,0,0,0-.09-.08-.05-.19,1-.65,2.72-1,4-.08-.47.09-.61-.22-.45-.18.57.42,0,.07,1.1-.24.33-.67,1.09-.92,1.14a10.52,10.52,0,0,1,.36-1.08,1.6,1.6,0,0,0-.47.93,5.85,5.85,0,0,1-.19,1L2,36.11c-.39,1.71,0,1.81-.53,3.61l.16-.16c.12,1-.35.79-.26,1.84L1,41.64c0,.68,0,2.37-.07,3.57a13.76,13.76,0,0,1-.16-3,11.13,11.13,0,0,0-.2,2.62A2.55,2.55,0,0,1,.6,44a15.29,15.29,0,0,1,.17,3.24C.08,46.92.39,50.62,0,51.6a30,30,0,0,1,.25,3.57C.39,56.39.48,57.66.72,59c.39-1.06.13.79.66.52a4.93,4.93,0,0,1,.2.91h0c-.08.14-.71-1.09-.58,0,0-.91.65,1.32.58,0l.16,1.93c-.05.49-.28-.56-.39-.47.31,1.38-.09.63,0,1.58.15-.24.41.4.53,1.2l0-1.17a5,5,0,0,1,.43,1.79,3.73,3.73,0,0,0,.55,1.77l-.38-.53c.22.46.55,1.35.91,2.21A6,6,0,0,0,4,70a4,4,0,0,0,.67.81c0,.2,0,.47-.25.09a23.12,23.12,0,0,0,1.89,3.36A16.85,16.85,0,0,1,8.1,77.18l-.21-.08a4.75,4.75,0,0,1,.84,1.07c-.06,0-.22-.07-.11.1a6.49,6.49,0,0,1,1.22,1.35l-.43-.32a11.83,11.83,0,0,0,1.88,2.29c.66.57,1.35,1,2,1.75-.29.26.81,1.79,1.47,2.45l-.06,0a30.72,30.72,0,0,0,2.86,2.37c.93.68,2,1.19,3,1.91a8.32,8.32,0,0,0,1.12,1.1,18.18,18.18,0,0,0,1.7,1.16c1.25.77,2.57,1.65,3.7,2.27-.32-.24.2-.26.63-.1.5.33,1.6.46,1.36.76l-.19-.1a4.57,4.57,0,0,0,2.31,1.32l.34-.4a12,12,0,0,0,4.07,1.65,10.38,10.38,0,0,1,3.4,1,13,13,0,0,0,2,.13l-.08.26c.83.16,1.45.28,2.13.38l1.08.17a7.6,7.6,0,0,0,1.35.1l-.44.16c1.18.08,1.54-.68,2.61-.64l.31.41a20.57,20.57,0,0,0,6.12-.13c0,.05-.08.17-.41.2,1,.06,3.74-.17,3.32-.64.07.33,2.09-.27,3.13-.63l-.11.3A5.65,5.65,0,0,1,62.1,97.8c.3,0,.31.13-.1.17,1-.13.7-.44,1.93-.61l-.4.27a2.21,2.21,0,0,0,1.4-.67A3.74,3.74,0,0,1,67,96.51a2,2,0,0,1,1.16-.71c.11,0-.08.19-.17.25a9.09,9.09,0,0,0,1.11-.38,7.61,7.61,0,0,0,.82-.48,5.19,5.19,0,0,1,1.54-.73.26.26,0,0,0,.25.05c-1.26.6-2.28,1.08-2.19,1,.09.22,1.13-.23.45.46a14,14,0,0,1,3-2,.33.33,0,0,1,.17,0l-.09.07a2.44,2.44,0,0,0,.61-.34,7.68,7.68,0,0,0,.81-.41c.21.1,1.17-.58,1.66-.87-.18-.2.47-.55-.23-.37.08,0-.07.07-.35.26l.08-.07-.22.07-.07.13.14-.08a1.67,1.67,0,0,0-.16.12l0,0-1.18.74a2.68,2.68,0,0,1,1.26-.88c.15-.29.33-.6.44-.77.85-.08,2.22-.7,2.5-.68.65-.57,1.44-1.2,2.15-1.81.34-.29.65-.59,1-.9a4.27,4.27,0,0,0,.57-.9c.32-.37.51-.27.7-.33a4.36,4.36,0,0,0-.5.6c.64-.75,2.11-2,2-2.39,1-.72-.26.72.9-.5l-.08.24A13.59,13.59,0,0,0,88,81.58a14.21,14.21,0,0,1,2.79-3.75c-.19.18-.28.27-.36.28,2.61-3.31,4.25-7.48,6-11.21a4.13,4.13,0,0,0,.42-2l.36-.15c0-.42,0-.85,0-1.28a7.55,7.55,0,0,1,.79-2.3,8.83,8.83,0,0,0,.48-1.2,5.48,5.48,0,0,0,.12-1.51l-.23.25c.15-.77.26-2.48.46-2.32a.61.61,0,0,1,0-.57H99c0-.33,0-.65,0-1l-.08-1c.19-1.5.58.28.71-1.93C99.64,51.13,99.34,49.62,99.23,49.93Zm-24,43,0,0a.37.37,0,0,1,0,.18h0c-.3.23-.43.25-.5.23Zm22.3-54.33ZM95.78,31.9c-.15-.46-.27-.93-.44-1.38.64,1.78.35-.48.71,1.35C95.8,31.26,95.78,31.62,95.78,31.9Zm-2.26-5.5c-.21-.55-.12-.46.19-.07C93.64,26.32,93.9,27.08,93.52,26.4ZM70.25,4.48l-.17.19C70.2,4.56,69.69,4.25,70.25,4.48ZM60.81,1.1,60.08,1l1,.17ZM11.65,18.24l-.34,0C11.68,17.63,11.89,17.91,11.65,18.24ZM32.56,96.85,33,97l-.89-.23Z"/><path class="cls-1" d="M41,52.56a2,2,0,0,1-.38,1.69,2.78,2.78,0,0,1-1,.6,2.68,2.68,0,0,1-.49.11,3.32,3.32,0,0,1-2.07-.6,1.4,1.4,0,0,1-.56-.66,2.28,2.28,0,0,1,.4-3,1.76,1.76,0,0,1,.58-.29,2.88,2.88,0,0,1,2.61.58A2.19,2.19,0,0,1,41,52.56ZM83.39,64.73c.33,1.07.29,1.9-.06,2.27a4.66,4.66,0,0,1-.75.5c0,.17-.07.35-.11.51a18.06,18.06,0,0,1-2.27,5.57,4.35,4.35,0,0,1-2.48,1.8,8.28,8.28,0,0,0-1.5.72l-.25.17a18.65,18.65,0,0,1-2,2.67,4.29,4.29,0,0,1-2.74,1.3,8,8,0,0,0-1.59.43l-1,.43C64.14,83,58.58,85.31,53.83,85l-.4,0a21,21,0,0,1-4.36-.63c-.31-.09-.63-.17-1-.25a11.4,11.4,0,0,1-2.75-.92c-.41-.22-.79-.45-1.16-.67a14,14,0,0,0-2-1.06c-1.54.14-3.09.26-4.66.31a1.48,1.48,0,0,1,0,1.3,3.28,3.28,0,0,1-2.83,1.52h-.13a2.38,2.38,0,0,1-2.45-3l-.46,0a12,12,0,0,1-2-.44,4,4,0,0,1-.91.17,2.42,2.42,0,0,1-3,1.45,1.2,1.2,0,0,1-1-1.32,1.09,1.09,0,0,1,.67-1.15,1,1,0,0,0,.17-.1l.37-.24a1.17,1.17,0,0,1-.09-.24s0,0,0,0l-.28,0-.37,0c-.51,0-.73-.36-.82-.82-.61-.31-1.21-.6-1.79-.87a6.35,6.35,0,0,1-2.05.61.73.73,0,0,1-.72-.64l-.29-.14a1.2,1.2,0,0,1-.71-1.49,1.55,1.55,0,0,1,.07-.23,8.14,8.14,0,0,1-1.59-2.22c-.16-.28-.34-.58-.53-.92-.07-.11-.12-.22-.18-.32a4,4,0,0,1-1.29.06.73.73,0,0,1,.27-1.43h0A6.15,6.15,0,0,1,13,67.3c-.1-.31-.21-.64-.34-1-1.87-5.27-.73-11.63,1.23-15.6a9.14,9.14,0,0,0,.88-3.49,8,8,0,0,1,1.65-4.65,39,39,0,0,0,3.06-5.23c.39-.72.77-1.45,1.16-2.16,0-.18.07-.36.1-.54a13.31,13.31,0,0,1,.66-2.53A12.7,12.7,0,0,1,22,31l-.12-.11a2.11,2.11,0,0,0-.23-.19,5.2,5.2,0,0,0-.46-.25c-.93-.49-1.59-.87-1.78-1.43a1.48,1.48,0,0,1,.06-1.2,2.44,2.44,0,0,1,1.57-1l.19-.06a9,9,0,0,1,1.68-.44,2.54,2.54,0,0,1,.71-1.2l.42-.38a1.73,1.73,0,0,1-.47-.87,1.54,1.54,0,0,1,.28-1.16,2.38,2.38,0,0,1,1.72-.73l.2,0,.26,0c0-.05,0-.1.05-.14a7.77,7.77,0,0,1,.48-.9,7.68,7.68,0,0,0,.41-.74,4.24,4.24,0,0,1,1.59-1.79,3.42,3.42,0,0,1,2-.36l.23,0a2.6,2.6,0,0,1,.56.06s0-.07.05-.1a8.27,8.27,0,0,1,.65-.79c.19-.21.36-.43.53-.65A4.06,4.06,0,0,1,34.52,15a3.27,3.27,0,0,1,2,0l.22.05a5,5,0,0,1,1.37.58,4.42,4.42,0,0,0,.79.38l.28.11a.58.58,0,0,0,.19,0,2,2,0,0,0,.44-.33c1.27-1.31,2.68-1.16,4-1H44a40.65,40.65,0,0,1,10.12-2.12l.34,0a42.68,42.68,0,0,1,6.49,0,29,29,0,0,1,4.67,1l1.46.4c3,.78,4.54,2.45,6.26,4.41a10.07,10.07,0,0,1,3.22,3.11c.26.19.53.36.79.54,1.57,1.05,3.19,2.15,3.74,4.15.22.8.43,1.6.64,2.4a6.46,6.46,0,0,1,2.06,4,55.4,55.4,0,0,1,0,10.85l-.09.8c.16,2.63.27,5.28.27,7.91v.33c0,2.52,0,5.13-.24,7.72,0,.16,0,.33,0,.5A2.44,2.44,0,0,1,85.2,62c.73,1.81,0,2.73-1.81,2.71Zm-11.88-6-.05.11c-.21.5-.39.93-.53,1.28a8.35,8.35,0,0,1-.14.88,24.54,24.54,0,0,0,0,4.37,1.1,1.1,0,0,0,0,.16c.38,2.34,1,2.49,1,2.51a5.86,5.86,0,0,0,.73.13,8.45,8.45,0,0,0,3.91-.44c.61-.21,1.21-.42,1.76-.63.09-.31.2-.62.29-.94.26-.93.49-1.85.7-2.77a5,5,0,0,1-.42-.37c-.26-.28-1.07-1.27-.17-2a1.47,1.47,0,0,1,1.16-.27q.2-1,.39-2l.07-.32c.86-4.44,1.4-9,1.93-13.43l.06-.58c-.11-1.93-.25-3.83-.39-5.72l-.12-1.63a45.89,45.89,0,0,0-1.35-7.65L79.92,29a15.91,15.91,0,0,1-2.35-2.81c-.3-.51-.59-1-.86-1.48-.41-.71-.79-1.37-1.2-2a11.51,11.51,0,0,1-1.87-1.61c-.41-.44-.79-.87-1.16-1.29l-.11-.12c-.14-.09-.3-.16-.45-.24l-1.37-.68A25.28,25.28,0,0,0,66.45,17a39.27,39.27,0,0,0-6.05-1.21l-.33-.05a39.49,39.49,0,0,0-10.29.24c-1.24.14-2.48.27-3.73.37a11.93,11.93,0,0,1-1.89,0l-.17,0-2.48.74c.64.26,1.3.53,2,.75l.14,0c1.31.43,2.56.83,3.84,1.16l.19-.2a2.6,2.6,0,0,1,.78-.54.89.89,0,0,1,.92-.38c.26.05.53.11.81.19s.77.12,1.08.18l.26.05.72.1a5,5,0,0,1,1.48.13l.51.09c.35.07.71.13,1.06.22a6.08,6.08,0,0,1,1.86,1c.79.55,1.3,2.8,1.31,3a6.43,6.43,0,0,1-1.39,3.76l-.13.19a11.19,11.19,0,0,1-1.2,2.6l-.15.23c-.81,1.18-1.28,1.87-1.38,2.07a4.19,4.19,0,0,1-.49.7l.36.17a14.26,14.26,0,0,0,1.56.52l.42.12c.24.08.5.15.77.22l1,.31A19.48,19.48,0,0,1,60,34.82l.28.16a5.47,5.47,0,0,1,1.82,1.32,15.62,15.62,0,0,1,2,3.14,12.43,12.43,0,0,1,1,2.83A5,5,0,0,1,65,44.6l-.08.38-.13.73a13.19,13.19,0,0,1-.46,2A9.71,9.71,0,0,0,64,49.15a7.41,7.41,0,0,1-1.09,3c-.24.31-.45.61-.66.87A8.67,8.67,0,0,1,61,54.79a5.4,5.4,0,0,1-4.14,1.79,4.39,4.39,0,0,1-.81,0c-.47-.05-.94-.13-1.42-.22a19.63,19.63,0,0,1-2.82-.78l-.89-.28a6.5,6.5,0,0,1-3.35-1.85c-1.72-2-3.47-5.63-2.81-8.94.08-.35.13-.73.2-1.12a9.49,9.49,0,0,1,.69-2.81l.11-.23c.42-.87.84-1.75,1.34-2.62l.24-.71a5.61,5.61,0,0,1,1-1.55,7.62,7.62,0,0,0,.48-.64c.16-.25.55-.81,1-1.49-.23-.13-.48-.26-.72-.42a7.39,7.39,0,0,1-2.48-1.13,4.43,4.43,0,0,1-1.27-2c0-.11-.19-.36-.38-.67A8.86,8.86,0,0,1,43.63,26s0-1.81,0-2.32a.88.88,0,0,1,1-.72h0a.64.64,0,0,1,.3.11,4.34,4.34,0,0,1,1-2.46c.08-.07.21-.22.37-.4-1.08-.3-2.13-.64-3.17-1L43,19.2c-.88-.29-1.71-.64-2.52-1l-1.2-.49a8.17,8.17,0,0,1-2.2.25c-.28,0-.53,0-.77,0a2,2,0,0,0-1.06.83h0l.2,0c.84.17,1.7.35,2.57.46l.15,0a45.18,45.18,0,0,0,5.89.45.71.71,0,0,1,.75.65v.08a.74.74,0,0,1-.74.74h0A44.54,44.54,0,0,1,38,20.8l-.16,0c-.93-.12-1.83-.3-2.7-.48L33.88,20a4.13,4.13,0,0,1-.75.32l0,.05a1.53,1.53,0,0,1,.5.81,1.27,1.27,0,0,1-.88,1.44,1.41,1.41,0,0,1-1.35,0c-.16.19-.33.37-.51.56s-.61.61-1,1c0,.11,0,.23,0,.33a1.55,1.55,0,0,1-.39,1.27,1.23,1.23,0,0,1-1,.26.7.7,0,0,1-.14,0s0,0-.05,0a1.82,1.82,0,0,1-.77.33,14.35,14.35,0,0,0-1.44,1.58,3.44,3.44,0,0,0-.3.53v0a1.54,1.54,0,0,1-.14,1.3,1.12,1.12,0,0,1-.59.39,10.31,10.31,0,0,1-1.19,2.4A24.48,24.48,0,0,0,22,35.61a8.89,8.89,0,0,1-.62,2.08,39.27,39.27,0,0,0-2.08,5.78,40.35,40.35,0,0,1-2.09,6,6.51,6.51,0,0,0-.6,4.1,10.57,10.57,0,0,1-.26,4.11,20.4,20.4,0,0,0,.8,12.8l.49.32A6.92,6.92,0,0,1,20,70.49l.29.06.23.29c.27.41.16,1,0,1.79,0,.07,0,.16-.05.25l.67.51a3.54,3.54,0,0,1,.52.25l.26.15a2.83,2.83,0,0,1,1.15.92c.3,0,.58.11.88.18a17.13,17.13,0,0,1,3.75,1.54,11,11,0,0,1,4.49-.18,4.91,4.91,0,0,0,.71-.48A2.49,2.49,0,0,1,34.75,75h0c1.08.21,1.33,1.32,1.5,2a2.93,2.93,0,0,0,.24.77,2.89,2.89,0,0,0,.32.29l1.48.14.33,0,.05,0a2.52,2.52,0,0,1,1.71-1.09h0c1,0,1.46.82,1.77,1.49,1.23.14,2.46.3,3.67.51a.61.61,0,0,1,.51.36c1.95-.19,3.92-.35,5.89-.39a.72.72,0,0,1,.75.68v0a.74.74,0,0,1-.73.74h0c-.8,0-1.61,0-2.42.11.63.17,1.26.36,1.87.59l1.22.42a10.9,10.9,0,0,0,2.55.32l1.07.06a20.73,20.73,0,0,0,4.15-.2l.41,0c4.45-.51,9.37-3.75,13.32-6.35l.44-.29a16.22,16.22,0,0,0,1-1.9c.52-1.22,1.06-2.52,1.56-3.88a11.56,11.56,0,0,1-4.75.45c-.36,0-.71-.1-1.07-.17l-.14,0c-2-.52-2.49-2.85-2.73-4-.53,1-1.78,2.9-3.84,3H64.6l-.2,0a3.49,3.49,0,0,1-2.75-3.43,6.3,6.3,0,0,1,0-.75c-.21.22-.4.42-.58.58a23.52,23.52,0,0,1-2.77,2.18,5.66,5.66,0,0,1-1.8.78,2.6,2.6,0,0,1-2.31-.46c-1.56-1.2-2-3.6-1.74-5.34A7.57,7.57,0,0,1,51,60.89l-.09-.09h0C49.36,59.13,48.71,59,48.61,59h0a.63.63,0,0,0-.3.24,5.67,5.67,0,0,0-.6,2.21.14.14,0,0,1,0,.06c0,.19.11.38.17.57s.09.3.13.44c.82,2.8,1.14,4.69.52,5.66a1.22,1.22,0,0,1-1.08.59,1.53,1.53,0,0,1-1.1-.53c-.7-.76-.83-2.1-.88-3.5,0-.12,0-.23,0-.35a29.62,29.62,0,0,1,0-3c-.14-.44-.28-.82-.4-1.14a8.59,8.59,0,0,0,0,.86c0,.15,0,.3,0,.45-.07,1.07-.2,2.57-.31,3.65s-.32,3.14-1.78,3.94a2.43,2.43,0,0,1-.47.19,1.64,1.64,0,0,1-1.53-.33c-1.2-.93-1.92-3.44-2.24-5.36A52.15,52.15,0,0,1,38,58.41V58.3a6.35,6.35,0,0,1-2.86.45,10,10,0,0,1,.5,1.39,40.68,40.68,0,0,1,1.11,5.1c.16,1.11.5,3.4-.41,4.63a1.66,1.66,0,0,1-1.51.77c-1.11-.08-2.08-1.26-2.89-2.21-.25-.3-.48-.6-.7-.9a28,28,0,0,1,.39,4.41c-.09,1.31-.43,2.14-1,2.45a1.16,1.16,0,0,1-.57.15c-1.32.06-2.83-2.51-3.12-3a20.35,20.35,0,0,1-2.14-5A29.68,29.68,0,0,1,23.91,61c-1.61.41-4.05.89-5.46-.41A1.57,1.57,0,0,1,18,59.7c-.05-.35.07-.3.28-.54l.19-.19c.44-.35.87-.2,1.35.23.06,0,.39,0,.91,0a13.72,13.72,0,0,0,3.24-.87c0-.18,0-.37,0-.56V57.7c.32-1.2,1.05-1.8,1.94-1.73A2.67,2.67,0,0,1,28,57.75a1.49,1.49,0,0,1-.76,2l-.16.1a6.71,6.71,0,0,1-.85.42,25.76,25.76,0,0,0,.67,6.13A17.19,17.19,0,0,0,28.6,70.5a10.08,10.08,0,0,0,.86,1.3,5.14,5.14,0,0,0,.06-.55,82.12,82.12,0,0,0-1.35-9,1.06,1.06,0,0,1,.41-1.11.65.65,0,0,1,.22-.11,1.28,1.28,0,0,1,1.38.54,7.32,7.32,0,0,1,.68,1.3.3.3,0,0,0,0,.08,6.65,6.65,0,0,0,.32.66l.46.77a20.13,20.13,0,0,0,1.56,2.41v0a7.48,7.48,0,0,0,1.32,1.39.34.34,0,0,0,.12-.12c.08-.1.32-.65-.07-2.8a38.89,38.89,0,0,0-1.17-4.76,14.77,14.77,0,0,0-.82-1.92l-.09-.2c-.14-.3-.3-.62-.45-1a1.11,1.11,0,0,1,.16-1.23A1.14,1.14,0,0,1,33.48,56a4.45,4.45,0,0,0,3.65,0c.38-.15.75-.33,1.11-.51l.22-.1s.06,0,.08,0a1.26,1.26,0,0,1,1.1.13,1.31,1.31,0,0,1,.64,1c0,.44,0,.87,0,1.31V58c0,.21,0,.4,0,.64a47.61,47.61,0,0,0,.46,5,9.87,9.87,0,0,0,1,3.49l.09,0c.43-.23.63-.88.75-2.31.08-1.06.16-2.5.19-3.51v-.42a4.66,4.66,0,0,1,.89-3.26.93.93,0,0,1,.18-.16,1.63,1.63,0,0,1,.38-.17,1.55,1.55,0,0,1,1.08.09,2.08,2.08,0,0,1,.91.72l.15-.22a2.29,2.29,0,0,1,2-.94c1.18.06,2.49.88,4.07,2.59a1.29,1.29,0,0,1,.19.21c.11.14.22.27.34.4a3.67,3.67,0,0,1,1.7-1.82,4.41,4.41,0,0,1,1.63-.45,4.32,4.32,0,0,1,2,.28A3,3,0,0,1,60,59.58c.59,1.27-1.14,2.49-2.48,3.08a5.32,5.32,0,0,1-3,.4,3.6,3.6,0,0,0,.79,2.9.83.83,0,0,0,.62.06,3.58,3.58,0,0,0,1.13-.5,18.87,18.87,0,0,0,2.43-1.95c.2-.2.45-.48.69-.74a7.86,7.86,0,0,1,1.39-1.25l.17-.11.19-.12a5.59,5.59,0,0,1,.5-.28,4.68,4.68,0,0,1,3.87-1.65,3.8,3.8,0,0,1,2.12.66c.05-.16.1-.3.13-.42s.07-.22.11-.36c0-.53,0-1.07,0-1.63a19.78,19.78,0,0,1,.11-2.55c0-.17,0-.33.07-.49.2-1.71.46-4.11,2.68-3.59a3,3,0,0,1,.4.12h0a2.71,2.71,0,0,1,1.18.91c.74,1.08.14,2.59-1.65,6.65Zm-5.23,3.51H66.1q-.31,0-.63,0a5.84,5.84,0,0,0-1.23.31,6,6,0,0,0-.49,2.72c.1,1.13.29,1.37.85,1.53.8,0,1.73-1,2.31-2.42.11-.27.39-1.09.74-2.09-.42,0-.89,0-1.38,0Zm-10.9-1.17.11,0a4.19,4.19,0,0,0,2.24-1.14,1.68,1.68,0,0,0-.8-.08,2.4,2.4,0,0,0-.91.27,2.1,2.1,0,0,0-1,1h.31ZM19.7,60.91a3.48,3.48,0,0,0,1.78.16,5.16,5.16,0,0,1-1.79-.16ZM34.83,77.4c-.07-.3-.2-.92-.35-1a4.27,4.27,0,0,0-.71.49,4.15,4.15,0,0,1-1.25.72c.81.11,1.63.21,2.45.3-.06-.19-.1-.38-.14-.56Zm-8.95.44,0-.08-.17-.06v.08ZM20,75a3.93,3.93,0,0,1,.54-.2l-.15-.12a4.94,4.94,0,0,0-.52-.13l-.36-.09-.11,0A3.72,3.72,0,0,0,20,75Zm7.33,3.38a3,3,0,0,1,1.33.68c.28,0,.57,0,.88,0a4,4,0,0,0-1.14-.67l-1-.24a.57.57,0,0,0-.11.11l-.06.07ZM18.9,73.52l-.14-.11a2.26,2.26,0,0,0,.16.26A.77.77,0,0,1,18.9,73.52ZM25,26.79l.36-.51.21-.34-.07-.09a2.74,2.74,0,0,0-.26-.22,4.69,4.69,0,0,0-.47.43,1.22,1.22,0,0,0-.27.33,2.2,2.2,0,0,1,.51.4Zm4.85-4.56c.33-.34.62-.68.88-1a4.69,4.69,0,0,0-1.41.67l-.06.05a.56.56,0,0,0,0,.08c-.05.08-.09.16-.13.24a1.8,1.8,0,0,1,.33.4,6.05,6.05,0,0,0,.44-.44ZM48.3,20.69l-.07.08-1,1.07a3,3,0,0,0-.55,1.62c0,.19-.06.4-.1.58A30.11,30.11,0,0,0,47.4,27a9,9,0,0,1,.41.82,8.86,8.86,0,0,0,.47.92c.21.35.4.72.58,1.1a8.83,8.83,0,0,0,.56,1.05,1.6,1.6,0,0,0,.46.4c.38.12.79.24,1.18.34C52,30.34,52.78,29.2,52.9,29l.67-.83c.57-.7,1.31-1.61,1.43-1.8s.2-.32.31-.47v0a6.07,6.07,0,0,0-.11-2.78c0-.14-.06-.26-.08-.36a.9.9,0,0,0-.09-.32l-.13-.27a2.92,2.92,0,0,0-.17-.36,2.51,2.51,0,0,0-.61-.69,4.09,4.09,0,0,0-2.38-1h0a9.7,9.7,0,0,1-1.85-.33h-.09a.72.72,0,0,1,.05.43.73.73,0,0,1-.86.58,4.94,4.94,0,0,1-.65-.12Zm2.3,30.7a32.86,32.86,0,0,0,4.25,3,4.94,4.94,0,0,0,1.93.4,4.28,4.28,0,0,0,2.49-1.29c.09-.09.23-.26.37-.43a3.77,3.77,0,0,1,.88-.9l.14-.16a15.86,15.86,0,0,0,1.14-3.82c.06-.28.13-.58.2-.86a8.81,8.81,0,0,0,.31-2.43,14.81,14.81,0,0,0-.6-2.73l-.17-.59a7.25,7.25,0,0,0-1.43-2.35c-.27-.34-.53-.67-.76-1a6.06,6.06,0,0,0-1.69-1.8,14.77,14.77,0,0,0-2.41-1c-.57-.22-1.15-.44-1.7-.69-.26-.12-.86-.33-1.45-.52l-.34.38c-.9,1-1.83,2-2.21,2.55a15.59,15.59,0,0,0-.84,1.33c-.24.7-.55,1.62-.67,2a21.49,21.49,0,0,0-.62,5.5,4,4,0,0,1,.11.58,2,2,0,0,0,.08.41,28.19,28.19,0,0,0,3,4.47Zm-1.23,1.28a15,15,0,0,1-1.67-2.18,11.46,11.46,0,0,0,1.23,1.8,2.38,2.38,0,0,0,.56.49ZM78.81,25.38a8,8,0,0,0,.73,1,4,4,0,0,0-1-1.47Zm1.18,41a4.85,4.85,0,0,0,1.25-.85c.08-.09.1-.5-.09-1.15l-.49-.17-.11,0C80.38,64.86,80.19,65.61,80,66.34Zm2.06-4.15c.09-.66.17-1.34.23-2,.19-2.12.22-4.19.23-6.34-.25,1.63-.51,3.26-.82,4.87l-.07.33c-.15.77-.3,1.54-.46,2.31l.09.06a5,5,0,0,1,.8.8Zm-21.27-48A28.55,28.55,0,0,0,57.71,14a24.53,24.53,0,0,1,2.57.23l.33,0c1.43.22,2.89.44,4.35.76A26.81,26.81,0,0,0,60.78,14.14ZM33.84,17.27h0a4.22,4.22,0,0,1,2.22-.73l.31-.08-.16,0a2,2,0,0,0-1.16-.07A2.57,2.57,0,0,0,33.84,17.27Zm-5.46,3.38h0a4.59,4.59,0,0,1,2.56-1.27l-.13,0h-.24a2.1,2.1,0,0,0-1.18.15A2.71,2.71,0,0,0,28.38,20.65Zm-3.06,3.17a4.15,4.15,0,0,1,.69-.28,1.48,1.48,0,0,0,0-.22l-.19,0a2.18,2.18,0,0,0-.77.18A2,2,0,0,0,25.32,23.82Zm-2.45,5.91.24-.35a2.64,2.64,0,0,1-.18-.38,3.51,3.51,0,0,1-.08-1.25,11.33,11.33,0,0,0-1.1.31l-.2.07a2.22,2.22,0,0,0-.72.31,5.13,5.13,0,0,0,1.09.67,4.5,4.5,0,0,1,.67.39C22.7,29.58,22.79,29.66,22.87,29.73ZM16.22,47.36c0,.31-.07.63-.12,1a42.78,42.78,0,0,0,1.83-5.27.84.84,0,0,0,.05-.17c-.13.19-.27.39-.4.55A6.6,6.6,0,0,0,16.22,47.36ZM14.83,68.1a22.46,22.46,0,0,1,.1-10.85,9,9,0,0,0,.2-3.6,11.8,11.8,0,0,1-.06-2.06C13.32,55.29,12.33,61,14,65.81c.14.38.25.72.35,1C14.54,67.33,14.68,67.74,14.83,68.1ZM27.14,81l-.13,0a3.67,3.67,0,0,0-.6.36l-.06,0A.81.81,0,0,0,27.14,81Zm6.48-1.07a6.39,6.39,0,0,1,1.18-.49c-1.23-.13-2.47-.29-3.7-.48a1.49,1.49,0,0,1,0,.36C32,79.45,32.81,79.66,33.62,79.9Zm2.49,2.34a3.18,3.18,0,0,0-1.35-.53l-1,0a.38.38,0,0,0-.09.13.82.82,0,0,0,.07.9c.19.35.73.37,1,.37a2,2,0,0,0,1.52-.65S36.2,82.35,36.11,82.24Zm19.36,1.27h0a12.63,12.63,0,0,1-2.93-.39c-.44-.14-.86-.29-1.27-.44a9.83,9.83,0,0,0-3.5-.77H46.17a11.2,11.2,0,0,0,2.29.73l1,.27a21,21,0,0,0,4.07.57l.4,0A13,13,0,0,0,55.47,83.51Zm25.4-15.24c-.58.22-1.16.41-1.67.58-.61,1.79-1.3,3.47-2,5.05,0,0,0,.09-.07.14h0a3,3,0,0,0,1.75-1.2A16.6,16.6,0,0,0,80.87,68.27Z"/></g></g></g></svg>