<svg xmlns="http://www.w3.org/2000/svg" viewBox="0 0 129.61 100"><defs><style>.cls-1{fill:#aa2429;}</style></defs><g id="圖層_2" data-name="圖層 2"><g id="圖層_1-2" data-name="圖層 1"><path class="cls-1" d="M71.71,87.78H64l-20.67.09L33,87.9c-3.53,0-7.06,0-10.59-.07-2.9,0-5.79-.14-8.69-.24-.58,0-1.16-.25-1.74-.25q-5.4,0-10.8.15c-1,0-1,.06-1-.93,0-6-.1-12.08-.11-18.12,0-3.2.07-6.4.11-9.6,0-2.46.14-4.92.11-7.39,0-5.2-.19-10.4-.24-15.6S0,25.73,0,20.67q0-3.29.09-6.57A35.14,35.14,0,0,1,.35,9.28,41.83,41.83,0,0,0,.44,1.37c0-.35,0-.69,0-1s0-.3.28-.3l3.89,0H6.51C9.9.12,13.28.19,16.67.2,18.11.21,19.55.06,21,.06c3,0,5.91.07,8.87.11l7.39.06c4.8,0,9.61,0,14.41,0,2.24,0,4.49-.19,6.73-.23,1.57,0,3.14,0,4.71.08.91,0,1.82.05,2.72.05,7.76,0,15.52,0,23.27,0,5.16,0,10.33,0,15.49-.06q9.2,0,18.38,0c2.08,0,4.16,0,6.23,0,.36,0,.44.13.43.44,0,1.77-.07,3.55-.1,5.32s-.08,3.48-.08,5.22c0,.95.13,1.9.13,2.84,0,3.1-.11,6.2-.14,9.3,0,3.92-.07,7.84,0,11.76,0,1.75.2,3.5.24,5.26,0,1.25-.08,2.5-.09,3.75q0,8.82-.07,17.64c0,1.17,0,2.34,0,3.51,0,5.83,0,11.67,0,17.51,0,1.54,0,3.08-.06,4.63,0,.29-.08.35-.36.35-4.86,0-9.71.07-14.57.09q-9.43,0-18.86,0c-3,0-5.94,0-8.91-.08-3.19,0-6.37-.13-9.55-.17-1.83,0-3.66,0-5.49,0Zm21.57-1v-.09h31.06l3.76,0c.18,0,.37.06.36-.26-.05-3.56-.15-7.12-.13-10.68,0-6.7.21-13.4.23-20.1,0-4.06-.15-8.12-.21-12.18,0-3.66-.08-7.33-.09-11q0-7.41,0-14.83,0-3,.12-6.05a10.06,10.06,0,0,1,.4-3.23c0-2.26-.09-4.52-.12-6.79,0-.34-.12-.42-.45-.41l-8.34.08-10.73.06-12.85,0c-3.15,0-6.31,0-9.47-.06s-6.31-.16-9.46-.16c-3.52,0-7,.14-10.55.18-4.32.05-8.64.07-13,.09-2.31,0-4.61,0-6.92,0-8.48,0-17-.09-25.43-.07C17.94,1.3,14.38.93,10.8.81,9.43.76,8.06.78,6.69.81,5,.85,3.32.92,1.64,1c-.09,0-.25.13-.25.2,0,.91-.09,1.81-.11,2.72C1.23,6,1.17,8.14,1.16,10.26c0,1.13.15,2.27.15,3.4,0,1.5-.08,3-.1,4.5,0,2.33-.05,4.67-.06,7,0,3.4,0,6.81,0,10.21,0,1.78.21,3.56.23,5.34,0,1.58-.13,3.17-.15,4.75,0,3.27,0,6.54,0,9.82,0,3.83,0,7.67,0,11.5s.05,7.81.05,11.72c0,2.58,0,5.16-.06,7.74,0,.23,0,.31.31.31,1.58,0,3.16,0,4.74,0,2.7,0,5.39.13,8.09.13,1.68,0,3.36-.17,5.05-.16,3,0,6.08.12,9.12.14q9.25.08,18.51.09c1.7,0,3.4,0,5.1,0h1.13c2-.08,4.11-.2,6.17-.24,1.16,0,2.33.09,3.5.11,3.33,0,6.65.09,10,.1Z"/><path class="cls-1" d="M31.58,95.33c.2-.85.4-1.7.59-2.55,0-.06,0-.11,0-.17.18-.81.18-.81,1-.76a3.1,3.1,0,0,0,.43,0c.22,0,.32.08.37.32.24,1.06.51,2.12.84,3.18.23-1,.48-2,.69-3,.07-.35.14-.59.59-.46a2.71,2.71,0,0,0,.64,0c.5,0,.51,0,.39.51-.23,1-.46,2-.68,3l-.84,3.7c0,.06,0,.13,0,.17-.32.4-.78.12-1.17.21-.08,0-.3-.22-.35-.38-.31-1.11-.6-2.24-.93-3.47-.19.86-.36,1.61-.53,2.36a8.51,8.51,0,0,1-.29,1.13c0,.14-.26.23-.41.34,0,0,0,0,0,0-.95,0-1,0-1.21-.89q-.78-3.07-1.54-6.15c-.12-.49,0-.58.47-.6,1.09,0,1.07,0,1.29,1,.18.83.42,1.64.63,2.46Z"/><path class="cls-1" d="M119.38,95.85c0,.52,0,1,0,1.54s0,1.12,0,1.67c0,.08-.13.17-.23.21s-.38-.1-.38.22c0,0-.07,0-.1,0-.09-.38-.36-.14-.56-.17s-.39-.14-.38-.46c0-1.81,0-3.62,0-5.43,0-.47,0-.93,0-1.4,0-.25.06-.35.36-.4a1.2,1.2,0,0,1,1.54.86,7.79,7.79,0,0,0,.52,1c.18.32.37.63.55,1,0-.82,0-1.62,0-2.42,0-.32.11-.44.37-.44a6.9,6.9,0,0,1,1.11.07c.07,0,.17.18.17.27q.07,3.09.12,6.16c0,.29-.05.57,0,.86,0,.1-.06.41.26.25,0,0,.06,0,.09.08s-.08.06-.11.06h-1.43l0,.33a2,2,0,0,1-.2-.28,9.67,9.67,0,0,0-.4-1.22c-.1-.21-.35-.29-.33-.64s-.22-.61-.36-.91-.29-.55-.43-.82Z"/><path class="cls-1" d="M8.33,99.29c-.34,0-.67,0-1,0S7,99.26,7,99c0-2.26.05-4.52.08-6.78,0-.11.12-.3.19-.31a5.81,5.81,0,0,1,2.71.22,2,2,0,0,1,.72,3.06c-.17.19-.23.28,0,.54a2.31,2.31,0,0,1,.26,2.49A1.88,1.88,0,0,1,9,99.29C8.79,99.28,8.56,99.29,8.33,99.29Zm.29-2.24c0,.2,0,.41,0,.61s.09.34.35.27a.76.76,0,0,0,.61-.69.88.88,0,0,0-.42-1c-.43-.23-.54-.17-.54.3Zm0-3h0c0,.22,0,.43,0,.65a.25.25,0,0,0,.17.16.69.69,0,0,0,.76-.61.79.79,0,0,0-.39-.92c-.4-.19-.54-.1-.54.33Z"/><path class="cls-1" d="M48.77,96.26c0,.89,0,1.76,0,2.62,0,.32-.1.38-.39.39-1.08,0-1.08,0-1.08-1.07,0-1.93,0-3.85,0-5.78,0-.39.12-.5.5-.45a10.6,10.6,0,0,0,1.38,0,2,2,0,0,1,2,2.91,2.23,2.23,0,0,1-.71.82c-.19.15-.22.23-.12.44.45.9.87,1.81,1.32,2.71.16.31.14.45-.24.4a.33.33,0,0,0-.17,0c-.89.19-1.32-.23-1.58-1.05a18.25,18.25,0,0,0-.85-1.93S48.84,96.3,48.77,96.26Zm0-2.22c0,.23,0,.46,0,.69a.28.28,0,0,0,.17.21.85.85,0,0,0,.93-.72.89.89,0,0,0-.5-1c-.48-.2-.61-.13-.61.39Z"/><path class="cls-1" d="M15.94,96.24c0,.89,0,1.77,0,2.65,0,.31-.09.37-.36.38-1.12,0-1.12,0-1.12-1.08,0-2,0-3.91.06-5.86,0-.13.14-.37.21-.36a17.08,17.08,0,0,1,2.27.14,1.76,1.76,0,0,1,1.53,1.6,1.86,1.86,0,0,1-.91,2.07c-.25.13-.15.26-.07.41.44.9.86,1.81,1.32,2.71.17.34.09.42-.26.39a4.49,4.49,0,0,0-.82,0c-.36,0-.51-.13-.63-.43-.38-.88-.78-1.75-1.17-2.63Zm0-2.18a4.73,4.73,0,0,0,0,.65.33.33,0,0,0,.2.23.83.83,0,0,0,.9-.65.9.9,0,0,0-.45-1c-.48-.22-.66-.11-.66.4Z"/><path class="cls-1" d="M93.1,99.36c-.37,0-.76.12-1-.37s-.2-.36-.64-.13c0,0-.15,0-.22-.07-.46-.3-.72-.2-.86.32,0,.08-.06.23-.09.23-.48,0-1,0-1.44,0a.5.5,0,0,1,0-.27c.55-2.23,1.11-4.46,1.65-6.69.09-.37.23-.52.64-.5.8,0,.8,0,1,.76l1.62,6.13c.15.57.15.57-.46.57Zm-1.78-4.1h-.09l-.3,1.42c-.12.6-.12.59.52.57.24,0,.3-.08.25-.31C91.56,96.38,91.44,95.82,91.32,95.26Z"/><path class="cls-1" d="M109.58,96.26a23.46,23.46,0,0,1,.33-2.7,2,2,0,0,1,2.78-1.47,2.12,2.12,0,0,1,.94.89,5.32,5.32,0,0,1,.52,3.19,8.72,8.72,0,0,1-.46,2.13,2,2,0,0,1-3.53.08A14.59,14.59,0,0,1,109.58,96.26Zm3.2-.3c-.08-.65-.18-1.46-.3-2.27a.63.63,0,0,0-.61-.56c-.36,0-.53.25-.58.53a8.16,8.16,0,0,0,0,4c.09.32.25.56.61.57a.58.58,0,0,0,.58-.54C112.63,97.15,112.68,96.64,112.78,96Z"/><path class="cls-1" d="M106.34,97c0,.51,0,1,0,1.51a.6.6,0,0,1-.4.6,2.58,2.58,0,0,1-3.84-1.82,6.45,6.45,0,0,1,.18-3.74,2.38,2.38,0,0,1,3.07-1.58c.63.18.71.37.4.94a2.91,2.91,0,0,0-.17.3c-.11.24-.19.34-.48.14a.83.83,0,0,0-1.35.47,10.16,10.16,0,0,0-.32,2.2,4,4,0,0,0,.22,1.31,1.36,1.36,0,0,0,.47.64,1,1,0,0,0,.69.09c.08,0,.12-.33.14-.52s0-.37,0-.56c0-.39,0-.72-.53-.62-.05,0-.19-.14-.2-.23a3,3,0,0,1,0-.73.31.31,0,0,1,.25-.19c.52,0,1,0,1.55,0,.09,0,.24.17.24.27,0,.51,0,1,0,1.51Z"/><path class="cls-1" d="M84.93,99.25c-.09,0-.19,0-.19.06s-.08.31-.12.47l-.06.22a.79.79,0,0,1-.12-.15c-.07-.31-.17-.35-.52-.28a2.45,2.45,0,0,1-2.25-.42c-.22-.21-.3-.41-.09-.67l.14-.22c.13-.2.22-.47.4-.59s.35.2.54.31.62.31.92,0a.77.77,0,0,0,0-1c-.42-.4-.92-.71-1.34-1.11-.17-.16-.23-.45-.37-.66a2.23,2.23,0,0,1-.21-2,1.87,1.87,0,0,1,2.06-1.28c.46,0,.95,0,1.28.38a.62.62,0,0,1,.1.46c-.07.3-.21.59-.31.89s-.23.32-.47.1l-.07.58a3.86,3.86,0,0,0-.21-.78.38.38,0,0,0-.36-.13c-.18.08-.44.24-.45.38a1,1,0,0,0,.22.74c.3.32.74.52,1,.85a5.84,5.84,0,0,1,.84,1.31,2.27,2.27,0,0,1-.11,2C85.07,98.91,85,99.13,84.93,99.25Z"/><path class="cls-1" d="M22.35,95.55c0-1,0-2.1,0-3.15,0-.31.09-.38.39-.39.65,0,1.3-.07,2-.09a3.07,3.07,0,0,1,.79.11c.07,0,.12.14.18.21s0,0,0,0c-.08.77-.08.77-.9.77s-.92,0-.9.92c0,.73,0,.73.75.76h.08c1,0,1,0,.95,1a.39.39,0,0,1-.24.23c-.21,0-.43,0-.65,0a2.18,2.18,0,0,0-.48.14l-.1,0c-.06-.21-.19-.29-.3-.08s.05.32.08.48a.26.26,0,0,1,0,.15,1.57,1.57,0,0,0-.11.35c0,1,0,.78.73.75h.21c1,0,1.05,0,.91,1a.36.36,0,0,1-.24.25c-1,0-1.93,0-2.89,0-.08,0-.22-.17-.22-.26,0-1.1,0-2.19,0-3.28Z"/><path class="cls-1" d="M57.65,94.11c.26-.66.51-1.28.74-1.89a.36.36,0,0,1,.44-.29,4.49,4.49,0,0,0,.82,0c.33,0,.46.09.32.43-.31.77-.55,1.58-.91,2.33a7,7,0,0,0-.72,3.7c.06,1,0,.94-1,1-.5,0-.61-.15-.57-.6s0-1.07,0-1.6a4.64,4.64,0,0,0-.5-2c-.38-.93-.74-1.87-1.12-2.8-.12-.29-.09-.4.27-.41,1.23,0,1.23,0,1.69,1.14Z"/><path class="cls-1" d="M40.58,95.56c0-1.07,0-2.13,0-3.2,0-.26.07-.34.34-.35.67,0,1.34-.06,2-.08a4.06,4.06,0,0,1,.78.1.29.29,0,0,1,.18.21c0,.81,0,.81-.82.81-1,0-1,0-1,1,0,.1,0,.2,0,.3,0,.29.08.41.39.4s.75,0,1.12,0c.21,0,.32.06.29.3a2.06,2.06,0,0,0,0,.43c0,.6,0,.59-.57.57-.28,0-.6-.18-.83.15H42.4c-.06-.24-.24-.24-.31-.06s.07.32.1.49a.2.2,0,0,1,0,.13c0,.08-.13.15-.14.24-.14.77,0,.89.73.87H43c1,0,1,0,.92,1,0,.09-.16.25-.24.25-1,0-2,0-2.93,0-.07,0-.19-.19-.19-.29,0-1.08,0-2.16,0-3.24Z"/><path class="cls-1" d="M98.61,95.67c0,1.09,0,2.19,0,3.28,0,.26-.07.37-.34.34a3.56,3.56,0,0,0-.73,0c-.32,0-.37-.15-.37-.39,0-1,0-1.94,0-2.92,0-1.22,0-2.44,0-3.67,0-.29.08-.39.39-.39,1.06,0,1.06,0,1.06,1.06Z"/><path class="cls-1" d="M70.84,96.35H69.51c-.23,0-.31-.08-.31-.33,0-1,0-1,1-1,.63,0,1.26,0,1.89,0,.23,0,.31.07.31.31,0,1.1,0,1.09-1,1.09Z"/><path class="cls-1" d="M84.88,94.5l-.27.33-.1-.08.27-.34Z"/><path class="cls-1" d="M42.11,91.84a2.58,2.58,0,0,1,.08-.26l.1,0-.08.28Z"/><path class="cls-1" d="M23.86,91.83l.13-.25.07,0-.1.27Z"/><path class="cls-1" d="M42.51,97.54l-.19-.1a.36.36,0,0,1,.14,0s.06,0,.09.06Z"/><path class="cls-1" d="M120.82,99.36c0-.07-.07-.1-.07-.14s0,0,.07-.08,0,.07,0,.1A.54.54,0,0,1,120.82,99.36Z"/><path class="cls-1" d="M84.51,95l-.05,0V95s0,0,0,0Z"/><path class="cls-1" d="M14.53,34.52v7.13c0,.25,0,.52.35.46,0,0,.16.12.15.14s-.12.28-.2.29c-.36.05-.32.26-.25.5a2.24,2.24,0,0,1-.18,1.79.72.72,0,0,1-.45.32c-.75.07-1.51.14-2.27.14-1.25,0-2.51-.08-3.76-.13a.83.83,0,0,1-.75-.86c0-.42.07-.85.07-1.27s-.06-1.13-.06-1.69c0-1,0-1.9,0-2.86s.07-1.84.08-2.76q0-4.24,0-8.49c0-1-.08-2.07-.1-3.11,0-.54.06-1.09.06-1.63,0-1.51,0-3,0-4.54,0-.58,0-1.16,0-1.74,0-2.26.11-4.53.14-6.79,0-.43-.24-.86,0-1.3.13-.23.23-.5.38-.72a.91.91,0,0,1,1-.42c1.13.19,2.26.43,3.4.56A8.2,8.2,0,0,0,14,7.46c.35,0,.47.08.52.38a12.3,12.3,0,0,1,.25,2.78A31.32,31.32,0,0,0,15,14c0,.11.26.44-.19.31a.38.38,0,0,0-.08.19c0,.31.07.63.07.95,0,1,0,1.92,0,2.88,0,.52,0,1-.05,1.55,0,.25.07.32.3.2a.31.31,0,0,1,.12-.05l1.75.07c.05,0,.1.05.12,0,.42-.24.84.05,1.25,0a2.52,2.52,0,0,1,1.22,0c.06,0,.22-.09.24-.17a3.11,3.11,0,0,0,.11-.68c0-1,0-1.92,0-2.88V8.77c0-1,.45-1.35,1.45-1.49,1.82-.26,3.52.31,5.26.63.16,0,.3.25.4.41s0,.25,0,.38c0,3.74,0,7.47,0,11.21,0,.6.08,1.2.11,1.81a4.34,4.34,0,0,1,0,.51c0,.54-.1,1.07-.1,1.6V44a5.4,5.4,0,0,1,0,.56.75.75,0,0,1-.83.75c-.81,0-1.63-.08-2.44-.08s-1.87.07-2.8.08-1.18-.22-1.17-1.17c0-2.51.09-5,.12-7.52,0-.76-.09-1.52-.09-2.28,0-1.26.08-2.52.11-3.78,0-.32-.06-.63-.06-.95a17.7,17.7,0,0,1,.06-1.93c.06-.65-.13-.92-.8-.91s-1.28.11-1.93.11-1.32-.08-2-.11c-.51,0-.57.06-.57.57Z"/><path class="cls-1" d="M86.58,26.13v.47c0,2.61,0,5.22,0,7.83,0,1,.1,2,.15,3a.28.28,0,0,1,0,.09,11.48,11.48,0,0,0,0,3.31c0,.64-.25,1-.89,1-1.73,0-3.46,0-5.2,0-.4,0-.52-.14-.52-.53,0-3,0-6,0-9,0-1.79-.07-3.58,0-5.38,0-2,0-4,0-6,0-1.11.1-2.22.1-3.33q0-4.65,0-9.3c0-.84.33-1.16,1.2-1.09s1.72.18,2.58.27a1,1,0,0,0,.3,0,13.34,13.34,0,0,1,3.4,0c.37,0,.74-.09,1.11-.1a3.55,3.55,0,0,1,1,.08,19.48,19.48,0,0,1,3.82,1.18,8.58,8.58,0,0,1,4.76,7.46,11.63,11.63,0,0,1-.54,4.22,7.5,7.5,0,0,1-4.11,4.65c-.51.23-.53.31-.29.82q4.48,9.48,8.95,19a1,1,0,0,1,.13.28c.11.41,0,.54-.41.52-.76,0-1.52-.1-2.28-.12a5.94,5.94,0,0,0-.93.13c-1,.1-1.93-.19-2.9,0a.61.61,0,0,1-.72-.41c-.75-1.49-1.57-2.94-2.24-4.47-2-4.6-4-9.22-6-13.84-.11-.24-.21-.48-.31-.73Zm0-9.11c0,1.14,0,2.28,0,3.42,0,.38.17.52.53.49l.77,0A3.53,3.53,0,0,0,91,19.31a7.56,7.56,0,0,0,.74-1.82,4,4,0,0,0-2.85-4.61,8.21,8.21,0,0,0-1.11-.14c-1.07-.09-1.16,0-1.17,1.08Zm9.5,18c-.09.13-.18.22-.16.24s.18.22.27.33c.06-.06.17-.15.16-.17A2.81,2.81,0,0,0,96.08,35Z"/><path class="cls-1" d="M68.51,36.5v0c-.09-.28-.1-.63-.28-.8s-.49,0-.75,0H65.05a5.51,5.51,0,0,1,.58.67c.14.24.09.5-.25.37a2.32,2.32,0,0,1-1-.59,1.22,1.22,0,0,0-1.12-.46,10.3,10.3,0,0,1-1.47,0,.66.66,0,0,0-.77.52c-.21.7-.43,1.4-.59,2.12a.59.59,0,0,1-.67.54H54c-.45,0-.65-.31-.54-.74.6-2.16,1.18-4.33,1.76-6.49l1.56-5.87q2.37-8.94,4.76-17.88c.18-.66.27-.71.94-.71,1.51,0,3,0,4.54,0a.61.61,0,0,1,.66.43c.14.43.26.88.38,1.32.52,1.87,1.05,3.74,1.56,5.61q3.21,11.59,6.4,23.2a1.66,1.66,0,0,1,.06.21c.11.67,0,.79-.68.79H69.86a.62.62,0,0,1-.67-.41c-.16-.4-.31-.81-.48-1.2a.33.33,0,0,0-.22-.16,1.64,1.64,0,0,0-.38,0c0-.11,0-.26,0-.3A1.56,1.56,0,0,1,68.51,36.5Zm-3.89-6.78H66.3c.3,0,.48-.1.39-.48-.65-2.69-1.28-5.39-1.92-8.08a1.29,1.29,0,0,0-.23-.36c-.08.12-.2.22-.23.35q-.89,4-1.76,8c-.1.43,0,.52.43.53Z"/><path class="cls-1" d="M45.4,7,45,6.79c0-.11.09-.29.17-.31s.34,0,.35.11c.09.52.47.46.85.46,1,0,1.9,0,2.85,0,.36,0,.42.13.38.42,0,0,0,0,0,0A11.3,11.3,0,0,0,49.39,11c0,.66-.21.79-.83.78-1.76,0-3.51,0-5.27,0-.45,0-.91-.08-1.36-.11a.65.65,0,0,0-.74.67c0,1.18.1,2.36.12,3.54,0,.7-.07,1.41-.11,2.11a3,3,0,0,0,0,.52c.1.81.21.93,1,1l6.35.16c.64,0,.78.22.76.85s0,1.48,0,2.23,0,1.63,0,2.45c0,.38-.3.46-.61.45l-2.15-.08c-.95,0-1.9,0-2.85-.06-.3,0-.43.08-.43.38a.5.5,0,0,1-.11.32,2.2,2.2,0,0,1-.44.28,1.55,1.55,0,0,1,0-.43c.08-.55.09-.55-.43-.55H41.9a.65.65,0,0,0-.71.72c0,.67,0,1.35,0,2a1.18,1.18,0,0,0,.1.3,1.34,1.34,0,0,1,.23-.13l.79-.1a.24.24,0,0,1,.08.16.41.41,0,0,1-.13.19l-.49.4c-.05,0-.12.1-.17.09-.47-.09-.42.22-.42.51,0,1.49,0,3,.09,4.45a7.28,7.28,0,0,0,.35,1.64.53.53,0,0,0,.37.33c.51,0,1,0,1.56-.07.84,0,1.69-.09,2.54-.07,1.11,0,2.21.1,3.32.14.24,0,.31.09.32.33.08,1.62,0,3.24,0,4.86a.64.64,0,0,1-.67.68c-1.13,0-2.25-.09-3.37-.13a4.53,4.53,0,0,0-.5.06c-.11,0-.24.09-.33.06-.68-.29-1.37,0-2.05,0-.47,0-.94-.06-1.41-.08s-1,0-1.53,0H35.14c-.29,0-.46,0-.46-.38,0-.55,0-1.09,0-1.64,0-.91,0-1.82,0-2.74,0-1.21,0-2.41,0-3.62,0-.4,0-.8,0-1.2s0-.57,0-.86c0-1.44-.07-2.89-.08-4.34,0-1,0-2.07,0-3.11,0-5.5.09-11,.11-16.51,0-.31.09-.39.39-.38.72,0,1.44,0,2.16,0a5.42,5.42,0,0,0,2-.2c.18-.07.5-.28.6.16,0,0,.19,0,.28,0,1.29,0,2.57.06,3.85,0A8.42,8.42,0,0,0,45.4,7Z"/><path class="cls-1" d="M108.88,29.19c0-5.28,0-10.56,0-15.83,0-.36,0-.61-.49-.55-1.44.19-2.89-.1-4.33,0-.47,0-1,0-1.42.09s-.46-.13-.46-.41c0-.92.06-1.84.06-2.76,0-.57,0-1.14-.06-1.71,0-.81,0-.71.79-.85a21.16,21.16,0,0,1,2.76,0c1,0,1.89-.09,2.84-.09.37,0,.73.15,1.1.15,2.19,0,4.38,0,6.57.06,1.23,0,2.46.1,3.69.16.52,0,1,.07,1.55.08a1.6,1.6,0,0,0,.42-.1c.45-.13.6,0,.61.46,0,.85,0,1.7,0,2.55,0,.65,0,1.3,0,2,0,.41-.16.52-.54.52h-5.62c-.64,0-.86.2-.85.85,0,.8.07,1.61.07,2.41s-.06,1.7-.08,2.54c0,.22.07.43.07.64,0,.63,0,1.25,0,1.88,0,.81.05,1.63,0,2.44s-.1,1.4-.11,2.1V44.49c0,1-.07,1.11-1.09,1.11h-4.93c-.57,0-.6,0-.6-.61Z"/><path class="cls-1" d="M76.31,75.92a6.93,6.93,0,0,0-.34-1c-.72-1.51-1.46-3-2.19-4.5-.15-.3-.26-.63-.4-.94a3,3,0,0,0-.18-.3l-.16.06.25.7a.38.38,0,0,1,0,.21,13.78,13.78,0,0,0-.17,4.1,6.44,6.44,0,0,1,0,1.86.56.56,0,0,0,.34.72s0,.21,0,.31-.13.13-.13.2a20.44,20.44,0,0,0-.06,2.07c0,.94,0,1.07-1,1a11.35,11.35,0,0,0-2.67.14,3.24,3.24,0,0,1-1.3-.37c-.06,0-.06-.24-.06-.36,0-1.62,0-3.24,0-4.86,0-2-.07-4-.08-6,0-2.4,0-4.81,0-7.21a6.39,6.39,0,0,1,0-2,2.74,2.74,0,0,0-.06-.94c-.07-.67.28-1,.94-.94a15.16,15.16,0,0,0,1.64-.09c.5,0,1.09-.22,1.48,0s.6.77.85,1.2l2.72,4.86c.43.78.87,1.55,1.31,2.32a3.11,3.11,0,0,0,.23.28c0-1,0-1.93,0-2.88,0-1.75-.1-3.49-.12-5.23a.61.61,0,0,1,.33-.47,4.71,4.71,0,0,1,2.58-.13,6.41,6.41,0,0,0,1.46.09c.45,0,.66.2.66.64,0,1.26,0,2.53,0,3.79,0,1.08.07,2.17.09,3.25s0,2.28,0,3.42,0,2.21.07,3.31,0,2.08,0,3.12c0,1.39,0,2.77,0,4.16a2.33,2.33,0,0,0,.27.86c.08.2.08.36-.17.35-.41,0-.81,0-1.22-.07-.18,0-.4-.22-.44.15-.17-.06-.43-.08-.48-.19s-.23-.17-.4-.19a12.61,12.61,0,0,1-1.49-.28c-.1,0-.17-.25-.23-.39l-.6-1.37c-.2-.48-.39-1-.61-1.42,0-.09-.09-.37-.25,0,0,0-.12,0-.19,0,.23-.3-.29-.46-.14-.76,0,0-.09-.15-.14-.23Zm5.52,4.26c0,.09-.07.15-.06.19a.22.22,0,0,0,.13.1s.07-.06.11-.09Z"/><path class="cls-1" d="M58.12,65c.12-.42.24-.84.35-1.26.5-1.78,1-3.55,1.48-5.32.16-.58.28-.65.89-.65H64c.91,0,1,.19.83,1.05l-2.18,8.66a1.21,1.21,0,0,0,0,.46q1.11,4.81,2.23,9.63c.15.64.36,1.27.54,1.91a1.17,1.17,0,0,0,.06.2c.07.13.15.26.23.38a2.28,2.28,0,0,1-.69.21c-1.39,0-2.78,0-4.17,0-.65,0-1-.19-1.06-.83-.25-2.35-1.21-4.53-1.56-6.85,0,0,0-.1-.13-.15,0,.62,0,1.25,0,1.87,0,.3-.06.6-.06.9,0,1.43,0,2.86,0,4.28,0,.71-.07.77-.76.78-.38,0-.78-.08-1.1.24,0,0-.16.06-.18,0-.5-.52-1.07-.25-1.62-.16-.11,0-.24-.1-.36-.1s-.54,0-.82,0a.56.56,0,0,1-.61-.61c0-1.43,0-2.85,0-4.28,0-2.7,0-5.4.05-8.09,0-2.45.06-4.89.08-7.33a13.4,13.4,0,0,0-.07-1.55.5.5,0,0,1,.36-.6,4.09,4.09,0,0,1,1.09-.24c.93,0,1.85,0,2.78.08a3.25,3.25,0,0,1,1,.22.47.47,0,0,1,.23.37c0,.4-.08.81-.07,1.21,0,1.05.07,2.1.07,3.16,0,.63,0,1.26-.08,1.89,0,.15,0,.3,0,.45Z"/><path class="cls-1" d="M7,73.36c0-2.07,0-4.15,0-6.23,0-1.57-.07-3.14-.09-4.72,0-1.35,0-2.71,0-4.06,0-.36.11-.49.47-.48.56,0,1.13,0,1.69,0a4.44,4.44,0,0,0,.6-.16,1.19,1.19,0,0,1,.42,0c.32,0,.64.17,1,.19a19.17,19.17,0,0,1,2.84.13c3.32.7,5.25,2.88,6.17,6.07a20.64,20.64,0,0,1,.49,8.05,10.35,10.35,0,0,1-2.36,5.79,7.54,7.54,0,0,1-5.65,2.58c-1.65.07-3.3.06-4.95.09-.34,0-.47-.11-.47-.48,0-2.25,0-4.49,0-6.74ZM16,69H15.9c0-.54,0-1.07,0-1.6a7.65,7.65,0,0,0-1.37-4.17,3.16,3.16,0,0,0-2.69-1.52c-.26,0-.34.06-.34.34,0,3.58.06,7.17.09,10.76,0,.34,0,.68,0,1,0,.73-.06,1.46-.1,2.19,0,.32.15.43.42.38a4.31,4.31,0,0,0,1.2-.3,4.52,4.52,0,0,0,2.41-3.17A33.87,33.87,0,0,0,16,69Z"/><path class="cls-1" d="M41.44,70.4c0,.13,0,.27,0,.41,0,1.91,0,3.83,0,5.75,0,1,.06,2,.09,3,0,.45-.15.63-.6.63-1.15,0-2.31,0-3.46,0-.32,0-.43-.09-.43-.42,0-1.77,0-3.54,0-5.32,0-1.13,0-2.26,0-3.4,0-1.56.07-3.13.07-4.69,0-2.74,0-5.47,0-8.2,0-.53.21-.75.75-.74.3,0,.6.08.9.09,1.26,0,2.53.16,3.79.08a8.1,8.1,0,0,1,2.65.39,6.1,6.1,0,0,1,4.24,6.58,7.12,7.12,0,0,1-1.13,3.32A4.78,4.78,0,0,1,46.4,69.5c-.35.16-.43.31-.25.69,1.5,3.14,3,6.29,4.46,9.43a2.22,2.22,0,0,1,.14.32c.07.27.06.46-.33.44-1.18,0-2.37-.07-3.55-.1h0c-.88.39-1.13-.28-1.38-.85-1.26-2.91-2.51-5.84-3.77-8.75a2.75,2.75,0,0,0-.14-.3Zm0-6.29c0,.77,0,1.55,0,2.33,0,.3.11.43.41.39A8.8,8.8,0,0,0,43,66.7a2.71,2.71,0,0,0,1.92-3.21,2.63,2.63,0,0,0-2.79-2.21c-.62,0-.67,0-.68.66S41.42,63.39,41.42,64.11Zm6.67,12.52-.25-.17s-.09.1-.08.11a.81.81,0,0,0,.19.18S48,76.69,48.09,76.63Z"/><path class="cls-1" d="M27.76,78.41a2.62,2.62,0,0,1,.3.33,1.72,1.72,0,0,1,.1.39,1.93,1.93,0,0,1-.42,0,.68.68,0,0,1-.3-.23,1.14,1.14,0,0,0-1.15-.47c-1.21,0-1.21,0-1.49,1.19s-.27,1.1-1.41,1.1h-3c-.4,0-.53-.2-.44-.58.5-2,1-4,1.49-6.07.57-2.24,1.19-4.47,1.76-6.72.71-2.8,1.37-5.61,2.09-8.41.27-1.07.06-1,1.34-1,.78,0,1.56,0,2.34,0a.64.64,0,0,1,.72.57c.23.92.45,1.84.69,2.76q2.41,9.27,4.85,18.53c0,.1,0,.2.07.29.06.48,0,.56-.49.56-1.2,0-2.39,0-3.59,0a.63.63,0,0,1-.72-.51l-.19-.52c-.05-.14-.05-.35-.3-.21,0,0-.14,0-.15-.08s0-.21.06-.22c.48-.14,0-.38.07-.56a1.3,1.3,0,0,0-.34-.08Zm-.32-4.3h1.13c.22,0,.35,0,.28-.33L27.56,68a1.28,1.28,0,0,0-.14-.25,1,1,0,0,0-.17.26c-.41,1.93-.8,3.86-1.2,5.78-.06.25,0,.36.27.35Z"/><path class="cls-1" d="M107.41,79.31a2.23,2.23,0,0,0-.32.38c-.08.16-.09.38-.36.28,0,.08,0,.17,0,.23.16.36.1.86-.19,1a.88.88,0,0,1-.53,0s-.06-.2-.06-.31,0-.39.07-.63c-.23.08-.41.13-.58.2a9,9,0,0,1-5.89.06,4.81,4.81,0,0,1-2.26-1.59,1,1,0,0,1,0-1.19c.42-.68.8-1.39,1.2-2.09a1.74,1.74,0,0,0,.1-.19c.48-.83.68-.86,1.35-.21a3.89,3.89,0,0,0,2.1,1.14c1.18.2,1.8-.3,2-1.49a2.28,2.28,0,0,0-.6-2.15c-.74-.76-1.5-1.5-2.28-2.23-.49-.45-1-.85-1.52-1.27l-.24.34a1.6,1.6,0,0,1-.25-.46,6.72,6.72,0,0,0-1.35-2.33,1.49,1.49,0,0,1-.22-.41,8.07,8.07,0,0,1,.81-6.77,3.41,3.41,0,0,1,1.83-1.42c1-.33,2.1-.49,3.13-.81.46-.15.79.22,1.2.11.13,0,.3,0,.4-.1.26-.18.44-.2.56.14,0,0,.16.13.19.11.28-.2.44,0,.67.14s.67.14,1-.21c-.25.6.23.76.51,1a.92.92,0,0,1,.29,1.08c-.42,1.14-.84,2.27-1.27,3.4a.49.49,0,0,1-.71.2,2.11,2.11,0,0,1-.23-.19l-.34-.23c0,.12,0,.25,0,.37,0,.39,0,.78-.07,1.25a1.58,1.58,0,0,1-.18-.38,1.88,1.88,0,0,0-.44-1.07.59.59,0,0,1,0-.59c.34-.28.05-.31-.12-.36a2.92,2.92,0,0,0-1-.19c-1.72.18-1.94,1.54-1.33,2.81a6,6,0,0,0,1.38,1.57c.69.65,1.44,1.23,2.17,1.84a1.21,1.21,0,0,0,.23.14,1,1,0,0,1,0-.31c0-.06.11-.09.17-.13s.14.16.12.18c-.3.4,0,.71.24.86.76.49,1,1.34,1.41,2a7.82,7.82,0,0,1,1,2.68,5.18,5.18,0,0,1-.09,2.21A8.7,8.7,0,0,1,107.77,79c-.06.08,0,.24,0,.35,0,.28-.11.55-.18.82,0,0-.15,0-.23.07a1.41,1.41,0,0,1,0-.2c0-.21.11-.42.16-.63l.05-.09Z"/><path class="cls-1" d="M120.69,79.25a2.12,2.12,0,0,0-.33.34c-.11.18-.08.48-.43.38a.81.81,0,0,0,0,.22.94.94,0,0,1-.12,1c-.2.22-.4.09-.57,0s-.08-.22-.08-.34,0-.37.08-.62l-.5.19a9,9,0,0,1-5.67.19,4.87,4.87,0,0,1-2.45-1.55,1,1,0,0,1-.09-1.42c.38-.63.72-1.28,1.09-1.91a8.19,8.19,0,0,1,.54-.77c.22-.31.41-.31.68,0a3.87,3.87,0,0,0,2.31,1.41c1.26.23,1.87-.27,2.09-1.53a2.23,2.23,0,0,0-.57-2c-.75-.78-1.52-1.52-2.3-2.26-.41-.39-.85-.74-1.29-1.09-.12-.1-.3-.4-.38,0,0,0-.16,0-.24,0s0-.07-.06-.11a4.14,4.14,0,0,0-1.17-2.29,5.13,5.13,0,0,1-.8-2.69,6.86,6.86,0,0,1,1.4-5.12,3.44,3.44,0,0,1,1.54-1.07c1-.36,2.09-.5,3.11-.82.47-.15.82.18,1.24.1.11,0,.26,0,.34,0,.29-.22.52-.29.68.13,0,0,.08.08.09.08.39-.34.61.17.91.18a3.34,3.34,0,0,0,.76-.12V57.6l.06,0c-.14.43.13.64.43.86a1,1,0,0,1,.35,1.26c-.42,1.09-.82,2.18-1.24,3.27a.49.49,0,0,1-.8.18l-.54-.45v1.61l-.08,0c-.07-.23-.13-.47-.22-.69a1.69,1.69,0,0,0-.23-.51c-.22-.29-.37-.56,0-.87a.28.28,0,0,0-.08-.21,2,2,0,0,0-2.32.25,2.11,2.11,0,0,0-.1,2.36,9.82,9.82,0,0,0,1.45,1.58c.65.6,1.35,1.15,2,1.72.08.06.17.1.25.15a.51.51,0,0,1,0-.22.69.69,0,0,1,.17-.17c0,.07.14.19.12.21-.33.39,0,.67.22.81a4.94,4.94,0,0,1,1.5,2.2,8.34,8.34,0,0,1,1,2.52,7,7,0,0,1-.24,2.72A20.85,20.85,0,0,1,121,79a2,2,0,0,0,0,.36c0,.28-.09.55-.16.82,0,0-.14.06-.22.09a.85.85,0,0,1,0-.22c.06-.24.13-.47.19-.7Z"/><path class="cls-1" d="M90.92,70.4l-.23,0c-.86,0-.89,0-.89.89v1.26c.15-.09.24-.18.33-.18a2.63,2.63,0,0,1,.48.06c-.1.08-.19.17-.29.24-.52.39-.52.39-.52,1.11v2c0,.55.22.69.77.67,1,0,2,0,3,0h1.58c.32,0,.42.12.41.44,0,1,0,2.06,0,3.1,0,.4-.18.59-.57.58-.73,0-1.47-.07-2.2-.08-.58,0-1.16,0-1.74,0-.82,0-1.64-.07-2.46-.08s-1.87,0-2.81,0c-.34,0-.47-.11-.48-.42s0-.34,0-.51c0-1.05.06-2.1.07-3.14s0-2,0-3c0-.57-.09-1.15-.09-1.72,0-4.59.07-9.18.09-13.77,0-.33.1-.41.42-.4.57,0,1.15,0,1.73,0,.25,0,.5-.08.76-.1s.45-.24.63.09c0,0,.16,0,.25,0h2.38l.68,0s.06-.1.09-.15l.18-.26a1.5,1.5,0,0,0,.24.2.91.91,0,0,0,.39.22c.67,0,1.33,0,2,0,.27,0,.38.07.31.34a10,10,0,0,0-.09,2.44c0,.51-.13.57-.62.55-.92-.05-1.85-.05-2.77-.06-.53,0-1.06,0-1.58,0s-.58.14-.57.5c0,.78,0,1.56,0,2.33,0,.58,0,1.15-.06,1.73a3,3,0,0,0,.07.51c0,.26.2.36.48.37,1.46,0,2.91.06,4.37.09.56,0,.64.13.59.67s0,.88,0,1.33c0,.61,0,1.22,0,1.83,0,.29-.21.34-.45.34l-3.24-.1c-.23,0-.44,0-.41.31a.27.27,0,0,1-.08.19,2.53,2.53,0,0,1-.27.18.86.86,0,0,1-.05-.27A1.89,1.89,0,0,1,90.92,70.4Z"/><path class="cls-1" d="M53.45,48a.89.89,0,0,1-.83.61c-.82.09-1.66.13-2.49.17-.44,0-.84-.1-1.26.3-.26.25-.86.17-1.31.2a4.21,4.21,0,0,1-.6-.11c-.09,0-.26,0-.27,0-.27.68-.84.39-1.29.39a2.74,2.74,0,0,1-1-.22,2.92,2.92,0,0,0-1.68-.12,7.81,7.81,0,0,1-1.28,0l-1.22,0c-.29,0-.58.06-.86.06-3.29,0-6.58,0-9.86,0s-6.45.23-9.67.27c-2.36,0-4.73-.08-7.09-.13a1.43,1.43,0,0,1-.5-.09,6.81,6.81,0,0,0-2.91-.13,15.13,15.13,0,0,1-2,0c-.12,0-.23-.12-.34-.18.1-.11.18-.27.29-.3a8.4,8.4,0,0,1,1.56-.29c1.6-.06,3.2-.06,4.79-.11,3.73-.13,7.46-.29,11.19-.39,1.59,0,3.19,0,4.79,0,2,0,4-.06,6-.07,2.34,0,4.69.15,7,0a76.57,76.57,0,0,1,8,.11C51.49,48.06,52.46,48,53.45,48Z"/><path class="cls-1" d="M57.34,48.91c.15-1.11.26-2.23.45-3.33a3.24,3.24,0,0,1,1.75-2.3,2.82,2.82,0,0,1,2-.18,2.75,2.75,0,0,1,2.06,1.71,7.55,7.55,0,0,1,.49,1.38A13,13,0,0,1,64,52a3.22,3.22,0,0,1-1.11,1.86A3.05,3.05,0,0,1,58,52.65,11.62,11.62,0,0,1,57.34,48.91Zm2.21-.33c.06.79.07,1.39.15,2A8.63,8.63,0,0,0,60,52a.9.9,0,0,0,.86.67.84.84,0,0,0,.82-.59,3.12,3.12,0,0,0,.29-.86,17,17,0,0,0-.19-5.28c-.15-.65-.55-1.06-1-1.07s-.82.34-.94,1.07C59.71,46.86,59.64,47.82,59.55,48.58ZM58.25,50l.07,0,0,0s0,0,0,0Zm5-1.2v0h0l0,0Zm-4.77-3s.07.08.1.08,0,0,.08,0,0-.07-.07-.08S58.51,45.77,58.46,45.79Zm0,4.21v.07h0s0,0,0,0A.08.08,0,0,0,58.51,50Z"/><path class="cls-1" d="M122.52,48.62a11.53,11.53,0,0,1-1.12.54,2.85,2.85,0,0,1-1,.18c-1.32,0-2.64-.16-4-.19-1,0-2,.08-3,.07-3,0-6-.09-9-.1-.84,0-1.68.17-2.53.21-.63,0-1.26-.07-1.89-.07-3.24,0-6.49-.06-9.73-.06-3.69,0-7.38,0-11.07,0-1.34,0-2.67-.1-4-.16L74.65,49l-.05-.13a3.07,3.07,0,0,1,.74-.29,28.56,28.56,0,0,1,2.92-.28c3.34-.06,6.69-.12,10-.11,2,0,4.09.17,6.13.19,1.51,0,3-.13,4.53-.14q7.33-.07,14.66-.08a13,13,0,0,1,3,.26,8.5,8.5,0,0,0,2.24.2c.76,0,1.52-.13,2.28-.17.45,0,.9,0,1.35.08Z"/><path class="cls-1" d="M66.46,54.26c-1.11,0-1.09,0-1.11-1.12,0-1.61-.09-3.22-.11-4.83s0-3.33,0-5c0-.28.1-.32.35-.32l4.17,0c.31,0,.45.06.41.41a7,7,0,0,0,0,1.12c0,.29-.09.37-.37.37-.68,0-1.35,0-2,0-.32,0-.41.11-.4.43,0,.63,0,1.25,0,1.88,0,.24.1.33.34.32l2.07-.08c.25,0,.37.08.36.35,0,.45,0,.9,0,1.34,0,.26-.09.31-.32.31-.68,0-1.36,0-2,0-.29,0-.37.08-.36.37,0,1.31,0,2.62,0,3.93,0,.35-.06.51-.44.45A3.06,3.06,0,0,0,66.46,54.26Z"/><path class="cls-1" d="M41.52,5.93c.08-.16.17-.32.25-.49a.26.26,0,0,0,0-.17c-.06-.19-.17-.38.17-.37s.47-.05.43.32.07.55-.29.67c-.08,0-.1.19-.16.29s-.15.17-.23.26c0-.1-.1-.2-.13-.3a.49.49,0,0,1,0-.17Z"/><path class="cls-1" d="M107.49,65a10.38,10.38,0,0,1-.56,1c-.08.12-.31.12-.47.18,0-.18,0-.4.09-.52a8.13,8.13,0,0,1,.79-.76Z"/><path class="cls-1" d="M120.58,64.92A1.42,1.42,0,0,1,120,66.1a1,1,0,0,1-.35.07c0-.12-.05-.28,0-.37s.41-.46.62-.69A2.61,2.61,0,0,1,120.58,64.92Z"/><path class="cls-1" d="M42.92,32.27l.4-.05.46-.08c-.19.22-.33.49-.41.47a5,5,0,0,1-1-.41.56.56,0,0,1,.09-.3.34.34,0,0,1,.27-.08c.06,0,.09.15.11.24A.78.78,0,0,1,42.92,32.27Z"/><path class="cls-1" d="M90,56.86c.06-.32.08-.53.14-.73s.13-.1.19-.09a.32.32,0,0,1,.22.12c.08.17-.2.89-.36.9S90.06,56.9,90,56.86Z"/><path class="cls-1" d="M78.93,81.39c-.39-.15-.72-.22-.72-.62,0-.09.07-.26.1-.26s.28,0,.33.11A5.78,5.78,0,0,1,78.93,81.39Z"/><path class="cls-1" d="M106.32,82.07a1.36,1.36,0,0,1-.23-.31c0-.21.06-.2.25-.18a2.44,2.44,0,0,0,.63-.13.48.48,0,0,1,.09.19C106.85,81.77,106.63,81.9,106.32,82.07Z"/><path class="cls-1" d="M119.57,82.07c-.1-.11-.22-.19-.24-.28s0-.26.25-.21.41-.1.62-.13c0,0,.08.12.12.19Z"/><path class="cls-1" d="M71.18,81.27c-.12-.21-.25-.33-.24-.44s.16-.23.24-.34a3,3,0,0,1,.37.43A3.51,3.51,0,0,1,71.18,81.27Z"/><path class="cls-1" d="M91.54,75.09c-.15.12-.23.23-.29.22a2.63,2.63,0,0,1-.59-.22s0-.19,0-.29l.25.09.32.14A1.22,1.22,0,0,0,91.54,75.09Z"/><path class="cls-1" d="M83.5,80.25l-.15.51c-.11-.11-.33-.24-.32-.33s.21-.25.33-.37Z"/><path class="cls-1" d="M66.26,36.62a5.44,5.44,0,0,1,.54.27s0,.17,0,.25l-.59-.29Z"/><path class="cls-1" d="M7.16,8.22c-.22.12-.33.22-.41.2s-.16-.15-.24-.23c.09-.09.17-.22.28-.25S7,8.07,7.16,8.22Z"/><path class="cls-1" d="M65.14,37.07l.73.38-.1.19L65,37.28Z"/><path class="cls-1" d="M77.63,80.61c-.06-.2-.12-.4-.17-.59l.21-.08.16.59Z"/><path class="cls-1" d="M76.3,75.91c0,.45-.37.43-.68.49.22-.19.28-.58.69-.48Z"/><path class="cls-1" d="M57.81,82a2.78,2.78,0,0,1,.54-.33c.08,0,.19.06.3.09-.08.08-.15.21-.24.23A2.76,2.76,0,0,1,57.81,82Z"/><path class="cls-1" d="M43.3,31.31c-.12.1-.2.21-.25.2a.37.37,0,0,1-.18-.19s.1-.16.16-.17S43.17,31.23,43.3,31.31Z"/><path class="cls-1" d="M119.72,66.61a2.46,2.46,0,0,1-.22.34s-.11,0-.17-.07l.23-.36Z"/><path class="cls-1" d="M65.91,77.28c0-.1-.08-.2,0-.29a.26.26,0,0,1,.2-.18c.07,0,.16.09.24.14l-.19.22Z"/><path class="cls-1" d="M53.16,80.65l.29.16c-.1,0-.2.12-.3.11a.93.93,0,0,1-.34-.15Z"/><path class="cls-1" d="M106.5,66.61a2.93,2.93,0,0,1-.24.34s-.11,0-.17-.07l.26-.37Z"/><path class="cls-1" d="M105.76,66.22l.25-.45.13.07-.25.46Z"/><path class="cls-1" d="M119.39,65.84l-.26.46-.13-.08.24-.46Z"/><path class="cls-1" d="M28.61,79.09l.35.24-.09.14-.36-.23Z"/><path class="cls-1" d="M96.62,65.73l.41-.18c0,.07,0,.18,0,.2s-.25.11-.38.17Z"/><path class="cls-1" d="M28.22,79.83l-.47-.26.07-.14.47.27Z"/><path class="cls-1" d="M109.85,65.74l.41-.19c0,.06.06.17,0,.19s-.25.12-.38.18Z"/><path class="cls-1" d="M65.75,76.49c-.13.07-.19.12-.24.11a.82.82,0,0,1-.19-.09s.09-.11.14-.11S65.6,76.44,65.75,76.49Z"/><path class="cls-1" d="M68.64,80.58c.06.15.12.22.11.28s-.09.1-.15.15-.08-.1-.08-.16A.87.87,0,0,1,68.64,80.58Z"/><path class="cls-1" d="M91,74.23c.08.09.15.13.15.18s-.07.1-.12.13-.1-.06-.11-.09A.86.86,0,0,1,91,74.23Z"/></g></g></svg>