<svg xmlns="http://www.w3.org/2000/svg" viewBox="0 0 75.78 99.62"><defs><style>.cls-1{fill:#cb3e3e;}</style></defs><g id="圖層_2" data-name="圖層 2"><g id="圖層_1-2" data-name="圖層 1"><path d="M0,0,38.64,0C62.08,0,77.45,22.66,68.7,44.35a2.1,2.1,0,0,0,.36,2.34C84.19,67.44,72.46,95.34,47,99.28c-.21,0-.39.22-.58.34H44.13A13.14,13.14,0,0,0,42,99.27q-21,0-42,0ZM32.12,59.28c3.18,0,6.18,0,9.18,0A7.34,7.34,0,1,1,41.64,74c-2.13.1-4.27,0-6.41,0H32.16V95.06c5.61.88,15.47.26,18.66-1.14V48.56H32.12Zm-19.4,4.6V95.13h17V63.88Zm17-59.34H12.7V33.35H29.77ZM32.15,44H58V20.07H32.18v5.64c1.92,0,3.74,0,5.55,0a6.16,6.16,0,0,1,6.45,6.15c0,3.56-2.56,6.12-6.36,6.18-1.86,0-3.73,0-5.67,0ZM53.23,70.62c5.74,0,11.26,0,16.77,0,1.34,0,1.27-.89,1.34-1.78a30.08,30.08,0,0,0-3.81-16.76c-1.42-2.63-3.09-4.27-6.28-3.65a11,11,0,0,1-2.07,0h-6Zm4.82-53c0-1.84.05-3.58,0-5.31a2,2,0,0,0-.76-1.2C50,4.72,41.39,3.69,32.2,4.58v13ZM12.67,59.34H29.74V48.52H12.67ZM10.35,33.42V4.48h-6V33.42Zm-6,54.15h5.94V63.83H4.39ZM60.41,20V44.05c4.4,0,3.56.93,5.09-3.39a25.42,25.42,0,0,0,0-17.33C64,19.07,64.85,20,60.41,20ZM70.78,72.81H60.4V89.16A28.94,28.94,0,0,0,70.78,72.81ZM29.77,38H12.71v6H29.77ZM53.19,93.35c1.6-.82,2.94-1.44,4.22-2.19A1.63,1.63,0,0,0,58.05,90c0-5.68,0-11.36,0-17.11H53.19ZM32.12,69.63c3.31,0,6.44.06,9.56,0a2.77,2.77,0,0,0,2.83-2.71,2.9,2.9,0,0,0-2.46-3.26c-3.29-.14-6.58,0-9.93,0ZM10.37,48.52h-6V59.3h6ZM4.37,44h6V37.94h-6Zm6,46H4.41v5.18h5.94ZM32.14,33.79A50.46,50.46,0,0,0,38,33.72a2.56,2.56,0,0,0,1.84-1.61,2.43,2.43,0,0,0-1.41-2,51.92,51.92,0,0,0-6.24-.1ZM63,17.65l-2.54-3.49v3.49Z"/><path d="M0,99.25q21,0,42,0a13.14,13.14,0,0,1,2.13.35q-21.31,0-42.63,0A6.82,6.82,0,0,1,0,99.25Z"/><path class="cls-1" d="M29.77,4.54V33.35H12.7V4.54Z"/></g></g></svg>