<svg xmlns="http://www.w3.org/2000/svg" viewBox="0 0 95.59 100"><defs><style>.cls-1{fill:#c6a348;}.cls-2{fill:#f7f3d9;}.cls-3{fill:#f5f1d6;}.cls-4{fill:#f3efd3;}.cls-5{fill:#c4a246;}.cls-6{fill:#f4f0d5;}.cls-7{fill:#f3efd4;}.cls-8{fill:#51a8d1;}.cls-9{fill:#f1c31d;}.cls-10{fill:#9d9375;}.cls-11{fill:#789555;}.cls-12{fill:#c1a716;}.cls-13{fill:#eade81;}.cls-14{fill:#788096;}.cls-15{fill:#f2e8b1;}.cls-16{fill:#f0e6af;}.cls-17{fill:#c1a718;}.cls-18{fill:#a08423;}.cls-19{fill:#f2c728;}.cls-20{fill:#a08523;}.cls-21{fill:#9a8425;}</style></defs><g id="圖層_2" data-name="圖層 2"><g id="圖層_1-2" data-name="圖層 1"><path class="cls-1" d="M43.38,0h8.83c.06,0,.12.11.18.11l2.67.14,2.31.12h.12l1.85.23c.48.05,1,.07,1.44.14.7.1,1.38.24,2.08.35.89.13,1.79.22,2.68.38,1.41.27,2.83.53,4.23.88q3.26.81,6.47,1.77c1.5.44,3,1,4.43,1.53S83.59,6.87,85,7.54c1,.44,1.9,1,2.84,1.47a20.83,20.83,0,0,1,4.07,2.57,5,5,0,0,1,1.45,2,6.29,6.29,0,0,1,.07,3.28c-.1.7-.22,1.39-.32,2.08-.06.4-.1.8-.15,1.2-.11.75-.23,1.5-.34,2.25s-.18,1.36-.28,2S92.15,26,92,26.7c-.06.44-.15.87-.21,1.3-.1.68-.2,1.36-.27,2a1.87,1.87,0,0,0,.15.95c.35.81.65,1.63,1,2.46a57.41,57.41,0,0,1,1.81,6.47c.17.78.27,1.58.39,2.37.1.61.18,1.23.26,1.85s.17,1.31.23,2,.09,1.37.14,2.06c0,0,.07.08.11.12V54.9a1,1,0,0,0-.12.25c0,.58-.11,1.17-.12,1.75A23.46,23.46,0,0,1,95,60.14c-.21,1.24-.36,2.5-.64,3.73-.33,1.44-.73,2.86-1.16,4.28a43.4,43.4,0,0,1-2.76,6.92A42.24,42.24,0,0,1,88,79.43c-.76,1.13-1.6,2.21-2.4,3.32a30.54,30.54,0,0,1-2.66,3.13,35.91,35.91,0,0,1-4.22,3.86c-.79.61-1.59,1.23-2.4,1.81a43.22,43.22,0,0,1-6.56,3.8,38.48,38.48,0,0,1-4.22,1.72c-1.16.39-2.32.77-3.5,1.09s-2.4.6-3.61.85c-.81.17-1.63.27-2.44.39s-1.79.26-2.68.35c-.69.07-1.37.09-2.06.14,0,0-.08.07-.13.11H44.49a3,3,0,0,0-.5-.12c-.75,0-1.5,0-2.24-.14-1-.12-2.06-.3-3.09-.47s-2-.3-2.95-.54a55.82,55.82,0,0,1-6.31-1.9,47.13,47.13,0,0,1-6.6-3.08,39.18,39.18,0,0,1-4.44-2.88,41.1,41.1,0,0,1-4.92-4.21c-.74-.75-1.49-1.5-2.17-2.31S9.89,82.58,9.2,81.69a35.19,35.19,0,0,1-3.31-5.23,39.6,39.6,0,0,1-2.64-5.87c-.45-1.33-.9-2.66-1.28-4S1.3,64,1,62.69C.84,61.87.74,61,.61,60.2c0-.38-.09-.76-.13-1.14C.4,58.42.31,57.79.25,57.15S.16,55.73.11,55C.11,55,0,54.94,0,54.9V48.28c0-.08.12-.16.12-.24A19.78,19.78,0,0,1,.36,45c.14-.87.26-1.75.37-2.62a33.91,33.91,0,0,1,.73-3.77,45,45,0,0,1,2.28-7.2,2.61,2.61,0,0,0,.12-1.61,11.77,11.77,0,0,1-.18-1.19c-.1-.67-.18-1.35-.28-2s-.23-1.42-.33-2.13-.16-1.4-.26-2.1c-.15-1-.32-2.1-.48-3.15-.07-.39-.14-.78-.2-1.18-.1-.7-.22-1.39-.29-2.09a4,4,0,0,1,.87-2.59,10.41,10.41,0,0,1,2-2.21,20.92,20.92,0,0,1,3.32-2.3c1.26-.67,2.54-1.3,3.85-1.87,1.52-.67,3.05-1.33,4.62-1.87C18.78,4.29,21,3.57,23.31,3s4.28-1,6.45-1.4C31,1.36,32.25,1.13,33.5,1S35.84.64,37,.5C37.88.39,38.74.31,39.6.25S41.51.16,42.46.12c.22,0,.45,0,.67,0A.82.82,0,0,0,43.38,0ZM89.44,44.39c-.21-.33-.39-.67-.62-1a8.43,8.43,0,0,0-2.08-1.87,31.22,31.22,0,0,0-5.61-2.94A65.2,65.2,0,0,0,74,36c-2.42-.71-4.86-1.32-7.33-1.8-1.48-.28-3-.54-4.44-.77-1.11-.17-2.22-.28-3.33-.4-1.56-.16-3.11-.34-4.67-.45-1.38-.09-2.77-.15-4.15-.14-2.41,0-4.81,0-7.22.12-1.58.06-3.16.22-4.74.36-.91.07-1.83.15-2.73.28-1.45.21-2.9.43-4.33.71-2.09.4-4.18.81-6.26,1.31-1.75.42-3.48,1-5.21,1.47a43,43,0,0,0-9.75,4.15,12.85,12.85,0,0,0-3,2.28,2.08,2.08,0,0,0-.69,1.57c0-.3-.08-.6-.13-.9-.23-1.61-.46-3.21-.7-4.82-.14-.9-.3-1.79-.45-2.69a9.85,9.85,0,0,0-.3-1.82,2.72,2.72,0,0,0-.16.36c-.27.89-.55,1.79-.79,2.69a52.13,52.13,0,0,0-1.5,8.33c-.19,1.78-.23,3.57-.31,5.35,0,.69.07,1.39.07,2.08a32.86,32.86,0,0,0,.25,4.08c.2,1.43.39,2.85.61,4.28a42.26,42.26,0,0,0,1.67,6.67,45,45,0,0,0,4.22,9.2,39.38,39.38,0,0,0,5.33,7c.86.89,1.75,1.77,2.69,2.58,1.17,1,2.38,2,3.63,2.89A41.45,41.45,0,0,0,29,94.74a45.66,45.66,0,0,0,8,2.41q2.6.52,5.24.79c1.91.19,3.82.26,5.73.31.52,0,1.05-.07,1.58-.07a35.54,35.54,0,0,0,5-.38c1.5-.23,3-.45,4.5-.75a43.87,43.87,0,0,0,11.13-3.92c1.17-.59,2.29-1.25,3.4-1.93a38.06,38.06,0,0,0,6.16-4.71A41.6,41.6,0,0,0,84,81.87a42.48,42.48,0,0,0,4.74-7.47A41.6,41.6,0,0,0,91.64,67c.43-1.51.79-3,1.12-4.56a34.59,34.59,0,0,0,.76-5.18c.12-1.66.29-3.32.31-5s-.1-3.37-.2-5.06c-.06-1-.13-2-.27-3a48.79,48.79,0,0,0-1.09-5.74c-.38-1.41-.8-2.81-1.2-4.21h-.14l-.22,1.86a.61.61,0,0,0-.11.21c-.1.62-.18,1.24-.27,1.86C90,40.26,89.74,42.32,89.44,44.39ZM6,41.06A.71.71,0,0,0,6.25,41a3.21,3.21,0,0,0,.3-.21,18.37,18.37,0,0,1,3.11-2,48.17,48.17,0,0,1,8-3.46q3-1,5.95-1.79c1.49-.4,3-.71,4.52-1s3.16-.57,4.74-.82c1-.16,2.06-.29,3.09-.41s2-.19,3-.27c1.46-.11,2.92-.29,4.38-.31,3.19-.06,6.37-.16,9.55.07,1.24.08,2.48.13,3.71.25,1.82.18,3.64.38,5.46.62,1.61.21,3.21.46,4.81.77a82.22,82.22,0,0,1,9.27,2.35,62,62,0,0,1,7.24,2.76,28.3,28.3,0,0,1,5.33,3.08l.64.5c0-.11.06-.16.07-.22.14-1,.26-1.93.41-2.9.18-1.28.38-2.57.57-3.85s.35-2.58.53-3.87c.15-1,.31-2.09.46-3.13s.27-1.93.41-2.9c.18-1.28.38-2.57.56-3.86.16-1,.26-2.1.47-3.13A3.27,3.27,0,0,0,92,14.13a7.7,7.7,0,0,0-1.12-1c-.88-.59-1.78-1.15-2.69-1.68A50.53,50.53,0,0,0,82.4,8.58a63.06,63.06,0,0,0-7.06-2.52c-2-.55-3.92-1.08-5.9-1.52s-4-.79-6-1.14c-1.32-.23-2.65-.41-4-.57-1-.12-2.06-.2-3.1-.28-1.58-.12-3.16-.28-4.75-.32-3.38-.08-6.77-.08-10.15.11h-.19c-1.62.16-3.24.3-4.86.47-1.39.15-2.79.3-4.17.53-1.68.27-3.35.61-5,.94a73.35,73.35,0,0,0-7.84,2,67.89,67.89,0,0,0-8,3.07,25.3,25.3,0,0,0-6.26,3.78,10.17,10.17,0,0,0-2.15,2.56,2.59,2.59,0,0,0-.3,1.94c.09.4.12.8.18,1.21.18,1.24.35,2.49.53,3.74s.39,2.65.58,4l.45,3c.14,1,.27,1.93.41,2.9s.29,2,.44,3,.27,1.93.41,2.9S5.9,40.15,6,41.06Z"/><path d="M4.81,36.32c.15.9.31,1.79.45,2.69.24,1.61.47,3.21.7,4.82,0,.3.09.6.13.9.06.46.39.58.78.63A6.24,6.24,0,0,0,9,45.15c2.27-.5,4.46-1.25,6.67-2l3.94-1.26c-.06.24-.11.48-.17.71a34.18,34.18,0,0,0-1,11.38,35.35,35.35,0,0,0,.4,3.71A30,30,0,0,0,22,67.09a26.64,26.64,0,0,0,8.16,9.14,30,30,0,0,0,16.16,5.24,33.43,33.43,0,0,0,6.4-.33,30.57,30.57,0,0,0,5.58-1.31,27.85,27.85,0,0,0,7.72-4,26.75,26.75,0,0,0,6.3-6.61,29.14,29.14,0,0,0,3.84-8.55,33.93,33.93,0,0,0,1.14-7.89c0-1.18,0-2.37-.08-3.55a29.58,29.58,0,0,0-.7-5.13c-.18-.8-.37-1.59-.56-2.38l3.19,1c2.37.74,4.73,1.49,7.1,2.18a10.42,10.42,0,0,0,2.28.36c.67,0,.83-.17.91-.86.3-2.07.59-4.13.89-6.2.09-.62.17-1.24.27-1.86a.61.61,0,0,1,.11-.21l0,.05a47.73,47.73,0,0,1,1.77,8.35,55,55,0,0,1,.41,8.61,60.19,60.19,0,0,1-.49,6.15,47.57,47.57,0,0,1-3,11.49A40.85,40.85,0,0,1,68.76,92.88a46.86,46.86,0,0,1-16.21,4.28,51.86,51.86,0,0,1-6.23.18c-1.72-.06-3.42-.18-5.13-.38A46.46,46.46,0,0,1,31,94.59a41.58,41.58,0,0,1-15.63-9.77A41.13,41.13,0,0,1,6.61,71.88a50.8,50.8,0,0,1-4-19.76,54.64,54.64,0,0,1,.7-9.38A44.24,44.24,0,0,1,4.81,36.32Zm43.9,56.5,2.65-.19,0-.78-.56-.37-.06-1.24c.33-.16.46.06.59.23.47.57.92,1.14,1.4,1.7.11.14.27.32.41.31.6,0,1.2-.08,1.82-.14l0-.77a2.63,2.63,0,0,1-.77-.3c-.53-.47-1-1-1.49-1.46a7.86,7.86,0,0,0,.64-.58A1.93,1.93,0,0,0,52.17,86,4.47,4.47,0,0,0,51,85.93c-.82,0-1.63.12-2.44.19l-.36.08a.9.9,0,0,0,.57,1.06l.34,4.34-.49.47ZM16.82,78.52a2.42,2.42,0,0,1-.14-.77c.14-.69.35-1.36.54-2.08a2.16,2.16,0,0,0,1.78.25,1.88,1.88,0,0,0,1.16-2.79,25.6,25.6,0,0,0-2-3c-.62.34-.62.34-.72,1.06l-1.8,1.24L13.89,73.6l-.63-.2-.63.46,1.51,2.19.64-.45.05-.65,1-.69c.31.21.2.42.12.63-.32.82-.62,1.64-.94,2.48L16.16,79a3.75,3.75,0,0,0,.35-.22Zm59.75-.26c.12-.1.18-.21.23-.2l3.06.2,1.26-1.48-.66-.54a1.61,1.61,0,0,1-1.32.38c-.48,0-1,0-1.43,0v-.75A1.92,1.92,0,0,0,76.6,74.1a1.71,1.71,0,0,0-1.9.14,3.3,3.3,0,0,0-.61.51c-.54.58-1.06,1.18-1.58,1.78l-.55.65.55.47c.3-.05.64-.1.82,0,1.08.86,2.12,1.78,3.16,2.68v.69l.58.46,1.72-2c-.58-.52-.58-.52-1.23-.4ZM41.86,92.49c1.22.05,2.43.11,3.65.15a2,2,0,0,0,.71-.18,1.83,1.83,0,0,0,.15-3.31,4.9,4.9,0,0,0,.39-.37,1.57,1.57,0,0,0-.37-2.46,1.9,1.9,0,0,0-.68-.27c-1.12-.12-2.26-.21-3.38-.32-.14.71-.14.71.38,1.31l-.3,4.25A.93.93,0,0,0,41.86,92.49ZM64.43,82.34c.12.46.27.77.74.79.11,0,.24.2.3.33.41.84.81,1.69,1.2,2.54A1.17,1.17,0,0,1,66,87.65a1.12,1.12,0,0,1-1.64-.55c-.46-.95-.89-1.91-1.33-2.84l.31-.61L63,83l-1.27.58-1.23.59.3.64.73.15.25.51c.38.81.75,1.63,1.13,2.44a2.14,2.14,0,0,0,1.84,1.31,3.32,3.32,0,0,0,2.31-.62A2.44,2.44,0,0,0,68,85.28c-.47-.9-.87-1.84-1.28-2.73l.37-.67-.33-.62ZM31.7,82.6c-1.22,1.26-2.4,2.47-3.57,3.69a1.92,1.92,0,0,1-1.22.75l-.28.65,2.35,1,.33-.7L29,87.49l.46-.53,1.95.88,0,.74c-.55,0-.69.41-.81.86l2.53,1.13c.15-.29.41-.55.21-.86a2.14,2.14,0,0,1-.16-1.36c.08-1.66.17-3.33.25-5Zm26.62,9a.78.78,0,0,0-.73-1l.09-.73,2.06-.5.41.58c-.36.54-.36.56,0,1.19l2.65-.68-.19-.72c-.52-.1-.77-.5-1-.88-.87-1.24-1.75-2.46-2.62-3.69l-.41-.54-1.76.44c0,.4-.09.78-.13,1.16-.15,1.46-.3,2.92-.46,4.38a1,1,0,0,1-.15.51.79.79,0,0,0,0,1.07Zm-30.71-10-3,2.31-.08-.06,1.12-3.67c.69,0,.69,0,1-.68l-2.3-1.63-.43.63a1.47,1.47,0,0,1,0,1.18c-.47,1.56-.9,3.13-1.34,4.7a4,4,0,0,0-.09.43l1.47,1,.51-.33c1.27-.85,2.55-1.68,3.81-2.55a1.76,1.76,0,0,1,1.35-.41.5.5,0,0,0,.15,0l.34-.53-2.26-1.6A.82.82,0,0,0,27.61,81.65ZM79.72,69.09l-1.44-.81-2.35,4.11.65.39.63-.24L81,74.69l.09.65.7.39,2.49-4.37-1.53-.86-.29.52.28.69-.9,1.54-1.49-.86c.12-.19.17-.4.3-.45a3.52,3.52,0,0,1,.76-.18l.28-.54-1.91-1.08c-.07.33-.23.61-.16.81a.78.78,0,0,1-.26.89L78,71.07c.2-.36.38-.65.54-1a.56.56,0,0,1,.46-.35C79.41,69.74,79.58,69.49,79.72,69.09Zm-8.28,17,4-3.06-1.09-1.4-.48.41v.71l-1.41,1.08-1-1.37.5-.36.71.2.48-.41-1.28-1.66c-.25.19-.53.27-.52.61s-.24.57-.57.73l-.93-1.22c.3-.23.56-.42.8-.63a.7.7,0,0,1,.68-.18.76.76,0,0,0,.85-.38l-1-1.29-3.76,2.88.46.61.67,0c.75,1,1.48,2,2.25,2.92a.91.91,0,0,1,.2,1.13Zm-59.74-17,1-.41c.17.35.3.67.47,1a2.08,2.08,0,0,0,2.17,1.16,2,2,0,0,0,2-2.43,4,4,0,0,0-.29-1c-.27-.68-.58-1.34-.88-2a4.23,4.23,0,0,0-.22-.42l-.64.28-.21.66-4,1.73-.6-.3-.68.31,1.07,2.47.71-.31ZM35.13,91.07l2.86.71.17-.85-.53-.39,1-4.2,1,.22.15,1,1,.24.53-2.14L35,84.13l-.52,2.14,1,.25.66-.83.9.25L36,90.1l-.71.23ZM79.87,67.34l3.83,1.52c.11,0,.26.17.28.27.1.5.46.61.9.7l1-2.48L85,67l-.54.36-4-1.6-.12-.63-.73-.26-1,2.53.72.27Zm-58.41,9-3.18,3-.67-.07-.55.52,1.87,2,.62-.57-.07-.68,3.13-3,.51.12.77-.57c-.39-.35-.73-.64-1.06-1s-.61-.63-.92-.94l-.56.48Z"/><path class="cls-2" d="M6,41.06c-.14-.91-.27-1.81-.41-2.71s-.27-1.93-.41-2.9-.3-2-.44-3-.27-1.93-.41-2.9l-.45-3c-.19-1.33-.39-2.65-.58-4s-.35-2.5-.53-3.74c-.06-.41-.09-.81-.18-1.21a2.59,2.59,0,0,1,.3-1.94,10.17,10.17,0,0,1,2.15-2.56,25.3,25.3,0,0,1,6.26-3.78,67.89,67.89,0,0,1,8-3.07,73.35,73.35,0,0,1,7.84-2c1.68-.33,3.35-.67,5-.94C33.63,3.11,35,3,36.42,2.81c1.62-.17,3.24-.31,4.86-.47h.19c3.38-.19,6.77-.19,10.15-.11,1.59,0,3.17.2,4.75.32,1,.08,2.07.16,3.1.28,1.33.16,2.66.34,4,.57,2,.35,4,.69,6,1.14s3.94,1,5.9,1.52A63.06,63.06,0,0,1,82.4,8.58a50.53,50.53,0,0,1,5.82,2.85c.91.53,1.81,1.09,2.69,1.68a7.7,7.7,0,0,1,1.12,1,3.27,3.27,0,0,1,.84,3.09c-.21,1-.31,2.09-.47,3.13-.18,1.29-.38,2.58-.56,3.86-.14,1-.27,1.93-.41,2.9s-.31,2.09-.46,3.13c-.18,1.29-.35,2.58-.53,3.87s-.39,2.57-.57,3.85c-.15,1-.27,1.94-.41,2.9,0,.06,0,.11-.07.22l-.64-.5a28.3,28.3,0,0,0-5.33-3.08,62,62,0,0,0-7.24-2.76,82.22,82.22,0,0,0-9.27-2.35c-1.6-.31-3.2-.56-4.81-.77-1.82-.24-3.64-.44-5.46-.62-1.23-.12-2.47-.17-3.71-.25-3.18-.23-6.36-.13-9.55-.07-1.46,0-2.92.2-4.38.31-1,.08-2,.16-3,.27s-2.06.25-3.09.41c-1.58.25-3.17.51-4.74.82s-3,.61-4.52,1q-3,.82-5.95,1.79a48.17,48.17,0,0,0-8,3.46,18.37,18.37,0,0,0-3.11,2,3.21,3.21,0,0,1-.3.21A.71.71,0,0,1,6,41.06ZM56.86,22.78,56.3,23a2.71,2.71,0,0,0-.77,4.44,4.8,4.8,0,0,0,1.13.82,9.69,9.69,0,0,0,4.36,1,7.59,7.59,0,0,0,3.58-.63,3.84,3.84,0,0,0,2.25-2.5,2.84,2.84,0,0,0-.67-3.1,4.6,4.6,0,0,0-1.8-1c-.72-.23-1.45-.42-2.17-.62s-1.38-.35-2.06-.55c-.49-.15-.53-.36-.19-.79a8.65,8.65,0,0,0,3,.12c1.88-.37,3.63-1.5,3.53-4.18,0-.28,0-.56,0-.88l1.06.27,2.07-2.39a2.23,2.23,0,0,0-.35-.17,43.44,43.44,0,0,0-6.74-1.69,8.47,8.47,0,0,0-3.81.21A4.12,4.12,0,0,0,56,13.68a4.64,4.64,0,0,0,1,5.19,2.6,2.6,0,0,0,.37.23C55.87,20.25,55.82,21.56,56.86,22.78ZM24.3,25.33l-7.85-14a51.55,51.55,0,0,0-4.88,2,.49.49,0,0,0-.28.43c-.16,1.23-.33,2.46-.5,3.69-.26,1.94-.51,3.88-.77,5.82L9.09,30C9,30.33,9,30.66,9,31L13.13,29l.44-3.44a37,37,0,0,1,4.78-1.82l1.54,2.83ZM42,22.74l4.18-.13c0-.15,0-.27,0-.38,0-2.19,0-4.37,0-6.55a1.41,1.41,0,0,1,.63-1.25,2.09,2.09,0,0,1,1.73-.38,1.31,1.31,0,0,1,1.22,1.42c0,.22,0,.45,0,.67l0,5.82c0,.21.05.42.07.66l4.17.15V20.08c0-1.89.06-3.79,0-5.69a3.92,3.92,0,0,0-3.45-3.92,7,7,0,0,0-1.88,0,4.87,4.87,0,0,0-2.61,1.16L46,10.73c-1.44.08-2.83,0-4.23.2ZM25.06,13.27l-4.24,1.12.39.68Q24,19.63,26.77,24.2a1.06,1.06,0,0,1,.17.86c-.32,1.26-.62,2.53-.92,3.8-.14.6-.27,1.21-.42,1.86l4.14-.86,4.55-18.28-4.52.71c-.49,2.41-.9,4.78-1.39,7.13h-.13Zm53.69,9.11a14.51,14.51,0,0,0,.32-3.17,5.88,5.88,0,0,0-.59-2.54,5.38,5.38,0,0,0-3.55-2.77,5.27,5.27,0,0,0-5,.9A6.61,6.61,0,0,0,68.38,23a5.79,5.79,0,0,0,3.47,2.71,15.83,15.83,0,0,0,3.71.73,6.6,6.6,0,0,0,2,0l.33-2.83c-1-.14-2-.24-3-.42A5.88,5.88,0,0,1,72.12,22a2.29,2.29,0,0,1-.88-1.55C73.79,21,76.22,21.79,78.75,22.38Zm8.47.37,1.15-3a4.08,4.08,0,0,0-4.07-.85l.08-1.05-3.56-1.45C80.4,20.22,80,24,79.57,27.77L83,29a2.06,2.06,0,0,0,.09-.26q.39-2.94.76-5.88a1,1,0,0,1,1.11-1.05,2.21,2.21,0,0,1,1.18.27C86.47,22.28,86.82,22.51,87.22,22.75ZM39.59,11l-4.47.46.45,11.83,4.34-.43C39.81,18.92,39.7,15,39.59,11ZM37.34,6.11a2.56,2.56,0,0,0-1.4.37,2,2,0,0,0-1,1.85A1.76,1.76,0,0,0,36.2,10a2.56,2.56,0,0,0,2.64-.42,1.81,1.81,0,0,0,.64-2A2,2,0,0,0,37.34,6.11Z"/><path class="cls-3" d="M89.44,44.39c-.08.69-.24.9-.91.86a10.42,10.42,0,0,1-2.28-.36c-2.37-.69-4.73-1.44-7.1-2.18L76,41.7a12.46,12.46,0,0,0-2-.54c.06.26.1.43.15.6a29.57,29.57,0,0,1,1.43,7.9,34.58,34.58,0,0,1-.43,7.73,29.3,29.3,0,0,1-2.11,7A25.3,25.3,0,0,1,66,73.68a26.39,26.39,0,0,1-7.72,4.38A29.76,29.76,0,0,1,50,79.75a32,32,0,0,1-6.77-.24A31.31,31.31,0,0,1,37.14,78,26.26,26.26,0,0,1,28,72.3a23.68,23.68,0,0,1-3-3.58,26.86,26.86,0,0,1-3.87-8.25A30.73,30.73,0,0,1,20,53.75a34,34,0,0,1,.19-6.22,34.93,34.93,0,0,1,.72-4c.19-.74.4-1.47.63-2.28l-2,.64-3.94,1.26c-2.21.71-4.4,1.46-6.67,2a6.24,6.24,0,0,1-2.11.21c-.39,0-.72-.17-.78-.63a2.08,2.08,0,0,1,.69-1.57,12.85,12.85,0,0,1,3-2.28,43,43,0,0,1,9.75-4.15c1.73-.51,3.46-1,5.21-1.47,2.08-.5,4.17-.91,6.26-1.31,1.43-.28,2.88-.5,4.33-.71.9-.13,1.82-.21,2.73-.28,1.58-.14,3.16-.3,4.74-.36,2.41-.09,4.81-.12,7.22-.12,1.38,0,2.77.05,4.15.14,1.56.11,3.11.29,4.67.45,1.11.12,2.22.23,3.33.4,1.48.23,3,.49,4.44.77,2.47.48,4.91,1.09,7.33,1.8a65.2,65.2,0,0,1,7.18,2.56,31.22,31.22,0,0,1,5.61,2.94,8.43,8.43,0,0,1,2.08,1.87C89.05,43.72,89.23,44.06,89.44,44.39Zm-19,22.88s.07,0,.09-.08A26.17,26.17,0,0,0,74,58.47s.07-.06.07-.09l.42-3a24.19,24.19,0,0,0,.21-4.17c0-.68-.08-1.36-.11-2,0-.44,0-.89-.11-1.33-.19-1.22-.42-2.44-.6-3.66a.72.72,0,0,0-.51-.62c-.91-.34-1.81-.74-2.74-1-1.27-.41-2.58-.72-3.86-1.11-1.06-.32-1.22-.64-1-1.7a2.55,2.55,0,0,1,1.71-.51,13.78,13.78,0,0,1,3.07.44c3.07.72,6.06,1.73,9.06,2.7,2.59.83,5.16,1.74,7.83,2.31a2.68,2.68,0,0,0,1.35,0,1.74,1.74,0,0,0-.08-.36,5,5,0,0,0-1.72-1.79,1.5,1.5,0,0,0-.34-.12c-1.58-.47-3.16-.92-4.73-1.43-3.38-1.08-6.74-2.27-10.21-3.07a17,17,0,0,0-4.65-.53,3.94,3.94,0,0,1-.46,0L67,35l-.48,0c-.06,0-.13-.1-.2-.11-1.3-.22-2.6-.45-3.91-.64-1.79-.25-3.58-.51-5.38-.69s-3.48-.32-5.23-.36q-3.92-.09-7.83,0c-1.61,0-3.21.21-4.81.33-1,.08-2.07.14-3.1.28-1.85.25-3.69.54-5.54.84-.55.09-1.09.24-1.64.36l-.46.07c.08.85.32,1.62.34,2.4-.67,0-1.28,0-1.88,0a28.07,28.07,0,0,0-4.25.77C19.55,39,16.53,40,13.47,41c-1.46.46-2.9,1-4.38,1.33A4.09,4.09,0,0,0,6.89,44a.76.76,0,0,0-.21.86,4.3,4.3,0,0,0,1.52,0c1.63-.43,3.27-.82,4.88-1.31,2.72-.84,5.42-1.75,8.13-2.61a37,37,0,0,1,5.84-1.48,3.38,3.38,0,0,1,2.61.35c.35,1.07,0,1.32-.7,1.58a7.4,7.4,0,0,1-1,.33,36.54,36.54,0,0,0-5.68,1.84.88.88,0,0,0-.57.7,32.69,32.69,0,0,0-.81,6.15,16.67,16.67,0,0,0,.1,3.6l.24,2.43c0,.17,0,.33,0,.49a28.33,28.33,0,0,0,3.32,9.53c.43.73.95,1.42,1.42,2.12a1.65,1.65,0,0,0,.18.32,21.48,21.48,0,0,0,3.07,3.39c.6.51,1.24,1,1.86,1.48.26.2.5.41.77.59a25.4,25.4,0,0,0,8,3.63c1.08.28,2.19.43,3.28.64s1.93.29,2.9.33a32.28,32.28,0,0,0,8.09-.57A25.79,25.79,0,0,0,65,73.41a18,18,0,0,0,3.11-2.94A17.49,17.49,0,0,0,70.48,67.27ZM73,40.82l-3.19-.75a9.48,9.48,0,0,0-2.55-.25,1.14,1.14,0,0,0-.83.3c-.22.22-.2.47.07.6a4.79,4.79,0,0,0,.92.33,46,46,0,0,1,4.89,1.49l1.26.51A13,13,0,0,0,73,40.82ZM21.89,43c.16,0,.2,0,.23,0A30.68,30.68,0,0,1,27,41.35c.65-.17,1.29-.36,1.93-.56.19-.06.42-.19.35-.43a.57.57,0,0,0-.36-.35,3.71,3.71,0,0,0-1.32-.13c-1.16.19-2.3.45-3.45.72-.57.13-1.12.32-1.66.48Z"/><path class="cls-4" d="M4.81,36.32a44.24,44.24,0,0,0-1.48,6.42,54.64,54.64,0,0,0-.7,9.38,50.8,50.8,0,0,0,4,19.76,41.13,41.13,0,0,0,8.74,12.94A41.58,41.58,0,0,0,31,94.59,46.46,46.46,0,0,0,41.19,97c1.71.2,3.41.32,5.13.38a51.86,51.86,0,0,0,6.23-.18,46.86,46.86,0,0,0,16.21-4.28A40.85,40.85,0,0,0,89.43,70.77a47.57,47.57,0,0,0,3-11.49,60.19,60.19,0,0,0,.49-6.15,55,55,0,0,0-.41-8.61,47.73,47.73,0,0,0-1.77-8.35l0-.05.22-1.86h.14c.4,1.4.82,2.8,1.2,4.21a48.79,48.79,0,0,1,1.09,5.74c.14,1,.21,2,.27,3,.1,1.69.22,3.37.2,5.06s-.19,3.33-.31,5a34.59,34.59,0,0,1-.76,5.18c-.33,1.53-.69,3-1.12,4.56a41.6,41.6,0,0,1-2.89,7.37A42.48,42.48,0,0,1,84,81.87a41.6,41.6,0,0,1-4.28,4.62,38.06,38.06,0,0,1-6.16,4.71c-1.11.68-2.23,1.34-3.4,1.93A43.87,43.87,0,0,1,59,97.05c-1.49.3-3,.52-4.5.75a35.54,35.54,0,0,1-5,.38c-.53,0-1.06.09-1.58.07-1.91,0-3.82-.12-5.73-.31q-2.64-.27-5.24-.79a45.66,45.66,0,0,1-8-2.41A41.45,41.45,0,0,1,20.22,90c-1.25-.9-2.46-1.88-3.63-2.89-.94-.81-1.83-1.69-2.69-2.58a39.38,39.38,0,0,1-5.33-7,45,45,0,0,1-4.22-9.2,42.26,42.26,0,0,1-1.67-6.67c-.22-1.43-.41-2.85-.61-4.28a32.86,32.86,0,0,1-.25-4.08c0-.69-.1-1.39-.07-2.08.08-1.78.12-3.57.31-5.35a52.13,52.13,0,0,1,1.5-8.33c.24-.9.52-1.8.79-2.69a2.72,2.72,0,0,1,.16-.36A9.85,9.85,0,0,1,4.81,36.32Z"/><path class="cls-5" d="M19.59,41.93l2-.64c-.23.81-.44,1.54-.63,2.28a34.93,34.93,0,0,0-.72,4A34,34,0,0,0,20,53.75a30.73,30.73,0,0,0,1.11,6.72A26.86,26.86,0,0,0,25,68.72a23.68,23.68,0,0,0,3,3.58A26.26,26.26,0,0,0,37.14,78a31.31,31.31,0,0,0,6.08,1.53,32,32,0,0,0,6.77.24,29.76,29.76,0,0,0,8.28-1.69A26.39,26.39,0,0,0,66,73.68,25.3,25.3,0,0,0,73,64.43a29.3,29.3,0,0,0,2.11-7,34.58,34.58,0,0,0,.43-7.73,29.57,29.57,0,0,0-1.43-7.9c-.05-.17-.09-.34-.15-.6a12.46,12.46,0,0,1,2,.54c.19.79.38,1.58.56,2.38a29.58,29.58,0,0,1,.7,5.13c0,1.18.11,2.37.08,3.55a33.93,33.93,0,0,1-1.14,7.89,29.14,29.14,0,0,1-3.84,8.55A26.75,26.75,0,0,1,66,75.81a27.85,27.85,0,0,1-7.72,4,30.57,30.57,0,0,1-5.58,1.31,33.43,33.43,0,0,1-6.4.33,30,30,0,0,1-16.16-5.24A26.64,26.64,0,0,1,22,67.09a30,30,0,0,1-3.22-9.36,35.35,35.35,0,0,1-.4-3.71,34.18,34.18,0,0,1,1-11.38C19.48,42.41,19.53,42.17,19.59,41.93Z"/><path class="cls-6" d="M48.71,92.82l-.07-.75.49-.47-.34-4.34a.9.9,0,0,1-.57-1.06l.36-.08c.81-.07,1.62-.15,2.44-.19a4.47,4.47,0,0,1,1.15.09,1.93,1.93,0,0,1,1.09,3.21,7.86,7.86,0,0,1-.64.58c.48.48,1,1,1.49,1.46a2.63,2.63,0,0,0,.77.3l0,.77c-.62.06-1.22.13-1.82.14-.14,0-.3-.17-.41-.31-.48-.56-.93-1.13-1.4-1.7-.13-.17-.26-.39-.59-.23l.06,1.24.56.37,0,.78ZM50.56,89a7.25,7.25,0,0,0,1-.2.81.81,0,0,0,.51-1,.75.75,0,0,0-.8-.67,8.23,8.23,0,0,0-.85,0Z"/><path class="cls-6" d="M16.82,78.52l-.31.24a3.75,3.75,0,0,1-.35.22L15,77.37c.32-.84.62-1.66.94-2.48.08-.21.19-.42-.12-.63l-1,.69-.05.65-.64.45-1.51-2.19.63-.46.63.2,1.78-1.22,1.8-1.24c.1-.72.1-.72.72-1.06a25.6,25.6,0,0,1,2,3A1.88,1.88,0,0,1,19,75.92a2.16,2.16,0,0,1-1.78-.25c-.19.72-.4,1.39-.54,2.08A2.42,2.42,0,0,0,16.82,78.52Zm0-4.94a8.8,8.8,0,0,0,.66.76.84.84,0,0,0,1.12,0,.73.73,0,0,0,.25-1c-.13-.27-.31-.51-.48-.79Z"/><path class="cls-7" d="M76.57,78.26l1,.85c.65-.12.65-.12,1.23.4l-1.72,2-.58-.46v-.69c-1-.9-2.08-1.82-3.16-2.68-.18-.15-.52-.1-.82,0L72,77.18l.55-.65c.52-.6,1-1.2,1.58-1.78a3.3,3.3,0,0,1,.61-.51,1.71,1.71,0,0,1,1.9-.14,1.92,1.92,0,0,1,1.11,1.76v.75c.47,0,1,0,1.43,0a1.61,1.61,0,0,0,1.32-.38l.66.54-1.26,1.48-3.06-.2S76.69,78.16,76.57,78.26Zm-.87-.73a8.65,8.65,0,0,0,.56-.82A.8.8,0,0,0,76,75.64a.73.73,0,0,0-1,0,8.42,8.42,0,0,0-.66.67Z"/><path class="cls-6" d="M41.86,92.49a.93.93,0,0,1,.55-1.2l.3-4.25c-.52-.6-.52-.6-.38-1.31,1.12.11,2.26.2,3.38.32a1.9,1.9,0,0,1,.68.27,1.57,1.57,0,0,1,.37,2.46,4.9,4.9,0,0,1-.39.37,1.83,1.83,0,0,1-.15,3.31,2,2,0,0,1-.71.18C44.29,92.6,43.08,92.54,41.86,92.49Zm2.3-2.66-.09,1.61c.38,0,.72,0,1,0a.46.46,0,0,0,.43-.38c.16-.64,0-1.15-.75-1.23C44.61,89.81,44.41,89.83,44.16,89.83ZM44.38,87l-.14,1.57c.48.08.89.15,1.17-.26a.75.75,0,0,0,.07-.86C45.24,87.05,44.84,87,44.38,87Z"/><path class="cls-6" d="M64.43,82.34l2.3-1.08.33.62-.37.67c.41.89.81,1.83,1.28,2.73a2.44,2.44,0,0,1-.92,3.34,3.32,3.32,0,0,1-2.31.62,2.14,2.14,0,0,1-1.84-1.31c-.38-.81-.75-1.63-1.13-2.44L61.52,85l-.73-.15-.3-.64,1.23-.59L63,83l.33.63-.31.61c.44.93.87,1.89,1.33,2.84a1.12,1.12,0,0,0,1.64.55A1.17,1.17,0,0,0,66.67,86c-.39-.85-.79-1.7-1.2-2.54-.06-.13-.19-.33-.3-.33C64.7,83.11,64.55,82.8,64.43,82.34Z"/><path class="cls-6" d="M31.7,82.6l1.68.75c-.08,1.67-.17,3.34-.25,5a2.14,2.14,0,0,0,.16,1.36c.2.31-.06.57-.21.86l-2.53-1.13c.12-.45.26-.84.81-.86l0-.74L29.45,87l-.46.53.32.55-.33.7-2.35-1,.28-.65a1.92,1.92,0,0,0,1.22-.75C29.3,85.07,30.48,83.86,31.7,82.6Zm0,1.85L30.26,86l1.31.57Z"/><path class="cls-6" d="M58.32,91.61,56,92.2a.79.79,0,0,1,0-1.07,1,1,0,0,0,.15-.51c.16-1.46.31-2.92.46-4.38,0-.38.09-.76.13-1.16l1.76-.44.41.54c.87,1.23,1.75,2.45,2.62,3.69.28.38.53.78,1,.88l.19.72-2.65.68c-.33-.63-.33-.65,0-1.19l-.41-.58-2.06.5-.09.73A.78.78,0,0,1,58.32,91.61Zm-.62-3,1.4-.37-1.21-1.75Z"/><path class="cls-7" d="M27.61,81.65a.82.82,0,0,1,.28-1.22L30.15,82l-.34.53a.5.5,0,0,1-.15,0,1.76,1.76,0,0,0-1.35.41c-1.26.87-2.54,1.7-3.81,2.55L24,85.9l-1.47-1a4,4,0,0,1,.09-.43c.44-1.57.87-3.14,1.34-4.7a1.47,1.47,0,0,0,0-1.18l.43-.63,2.3,1.63c-.33.63-.33.63-1,.68L24.51,83.9l.08.06Z"/><path class="cls-7" d="M79.72,69.09c-.14.4-.31.65-.7.67a.56.56,0,0,0-.46.35c-.16.31-.34.6-.54,1l1.31.77a.78.78,0,0,0,.26-.89c-.07-.2.09-.48.16-.81l1.91,1.08-.28.54a3.52,3.52,0,0,0-.76.18c-.13,0-.18.26-.3.45l1.49.86.9-1.54L82.43,71l.29-.52,1.53.86-2.49,4.37-.7-.39L81,74.69l-3.76-2.15-.63.24-.65-.39,2.35-4.11Z"/><path class="cls-7" d="M71.44,86.09l-.5-.65a.91.91,0,0,0-.2-1.13c-.77-1-1.5-1.94-2.25-2.92l-.67,0-.46-.61,3.76-2.88,1,1.29a.76.76,0,0,1-.85.38.7.7,0,0,0-.68.18c-.24.21-.5.4-.8.63l.93,1.22c.33-.16.59-.35.57-.73s.27-.42.52-.61l1.28,1.66-.48.41-.71-.2-.5.36,1,1.37,1.41-1.08V82l.48-.41L75.44,83Z"/><path class="cls-6" d="M11.7,69.14l-.14.64-.71.31L9.78,67.62l.68-.31.6.3,4-1.73.21-.66.64-.28a4.23,4.23,0,0,1,.22.42c.3.67.61,1.33.88,2a4,4,0,0,1,.29,1,2,2,0,0,1-2,2.43,2.08,2.08,0,0,1-2.17-1.16c-.17-.29-.3-.61-.47-1Zm4-1.75-1.85.81c.28.93.83,1.33,1.6,1S16.24,68.4,15.72,67.39Z"/><path class="cls-7" d="M35.13,91.07l.18-.74L36,90.1l1-4.16-.9-.25-.66.83-1-.25L35,84.13l6.33,1.56-.53,2.14-1-.24-.15-1-1-.22-1,4.2.53.39-.17.85Z"/><path class="cls-7" d="M79.87,67.34l-.54.35-.72-.27,1-2.53.73.26.12.63,4,1.6L85,67l.81.33-1,2.48c-.44-.09-.8-.2-.9-.7,0-.1-.17-.22-.28-.27Z"/><path class="cls-7" d="M21.46,76.36l-.11-.66.56-.48c.31.31.6.64.92.94s.67.6,1.06,1l-.77.57-.51-.12-3.13,3,.07.68-.62.57-1.87-2,.55-.52.67.07Z"/><path d="M56.86,22.78c-1-1.22-1-2.53.44-3.68a2.6,2.6,0,0,1-.37-.23,4.64,4.64,0,0,1-1-5.19,4.12,4.12,0,0,1,2.72-2.28,8.47,8.47,0,0,1,3.81-.21,43.44,43.44,0,0,1,6.74,1.69,2.23,2.23,0,0,1,.35.17l-2.07,2.39-1.06-.27c0,.32,0,.6,0,.88.1,2.68-1.65,3.81-3.53,4.18a8.65,8.65,0,0,1-3-.12c-.34.43-.3.64.19.79.68.2,1.37.36,2.06.55s1.45.39,2.17.62a4.6,4.6,0,0,1,1.8,1,2.84,2.84,0,0,1,.67,3.1,3.84,3.84,0,0,1-2.25,2.5,7.59,7.59,0,0,1-3.58.63,9.69,9.69,0,0,1-4.36-1,4.8,4.8,0,0,1-1.13-.82A2.71,2.71,0,0,1,56.3,23Zm4.47-5.33A1.6,1.6,0,0,0,63,15.72,1.63,1.63,0,0,0,61.28,14a1.71,1.71,0,0,0-1.57,1.88A1.54,1.54,0,0,0,61.33,17.45Zm.66,9a4.81,4.81,0,0,0,1.13-.32.71.71,0,0,0,0-1.33,3,3,0,0,0-.79-.32c-.81-.19-1.63-.37-2.45-.52a1,1,0,0,0-1.09.86A1.13,1.13,0,0,0,59.57,26,6.59,6.59,0,0,0,62,26.47Z"/><path d="M24.3,25.33l-4.41,1.21-1.54-2.83a37,37,0,0,0-4.78,1.82L13.13,29,9,31c0-.37.06-.7.11-1L10,23.29c.26-1.94.51-3.88.77-5.82.17-1.23.34-2.46.5-3.69a.49.49,0,0,1,.28-.43,51.55,51.55,0,0,1,4.88-2ZM14.05,21.6l2.84-1.13-2.06-3.66c-.1.14-.18.2-.19.26C14.45,18.56,14.25,20.05,14.05,21.6Z"/><path d="M42,22.74l-.29-11.81c1.4-.19,2.79-.12,4.23-.2l.14.91a4.87,4.87,0,0,1,2.61-1.16,7,7,0,0,1,1.88,0A3.92,3.92,0,0,1,54,14.39c.07,1.9,0,3.8,0,5.69v2.69l-4.17-.15c0-.24-.07-.45-.07-.66l0-5.82c0-.22,0-.45,0-.67a1.31,1.31,0,0,0-1.22-1.42,2.09,2.09,0,0,0-1.73.38,1.41,1.41,0,0,0-.63,1.25c0,2.18,0,4.36,0,6.55,0,.11,0,.23,0,.38Z"/><path d="M25.06,13.27l3.19,6.16h.13c.49-2.35.9-4.72,1.39-7.13l4.52-.71L29.74,29.86l-4.14.86c.15-.65.28-1.26.42-1.86.3-1.27.6-2.54.92-3.8a1.06,1.06,0,0,0-.17-.86Q24,19.64,21.21,15.07l-.39-.68Z"/><path d="M78.75,22.38c-2.53-.59-5-1.39-7.51-1.95A2.29,2.29,0,0,0,72.12,22a5.88,5.88,0,0,0,2.79,1.18c1,.18,2,.28,3,.42l-.33,2.83a6.6,6.6,0,0,1-2,0,15.83,15.83,0,0,1-3.71-.73A5.79,5.79,0,0,1,68.38,23a6.61,6.61,0,0,1,1.53-8.21,5.27,5.27,0,0,1,5-.9,5.38,5.38,0,0,1,3.55,2.77,5.88,5.88,0,0,1,.59,2.54A14.51,14.51,0,0,1,78.75,22.38Zm-3.22-3.2a1.94,1.94,0,0,0-1.37-2.5,1.87,1.87,0,0,0-2.45,1.54Z"/><path d="M87.22,22.75c-.4-.24-.75-.47-1.12-.68a2.21,2.21,0,0,0-1.18-.27,1,1,0,0,0-1.11,1.05q-.37,2.94-.76,5.88A2.06,2.06,0,0,1,83,29l-3.39-1.22c.42-3.78.83-7.55,1.25-11.4l3.56,1.45-.08,1.05a4.08,4.08,0,0,1,4.07.85Z"/><path d="M39.59,11c.11,4,.22,7.9.32,11.86l-4.34.43-.45-11.83Z"/><path d="M37.34,6.11a2,2,0,0,1,2.14,1.44,1.81,1.81,0,0,1-.64,2A2.56,2.56,0,0,1,36.2,10,1.76,1.76,0,0,1,35,8.33a2,2,0,0,1,1-1.85A2.56,2.56,0,0,1,37.34,6.11Z"/><path class="cls-8" d="M65.83,39.72c-.24,1.06-.08,1.38,1,1.7,1.28.39,2.59.7,3.86,1.11.93.29,1.83.69,2.74,1a.72.72,0,0,1,.51.62c.18,1.22.41,2.44.6,3.66.07.44.07.89.11,1.33-.16,0-.33-.05-.48-.09a8.19,8.19,0,0,0-4.85.19,7.59,7.59,0,0,0-3.12,1.94H56.24c-.29,0-.38.2-.53.35L52.21,55H50.75c0-.2,0-.4,0-.61,0-2.74,0-5.48,0-8.22.24,0,.44-.18.35-.39s.06-.56.19-.82a1.69,1.69,0,0,0,.18-.45,2.58,2.58,0,0,0-1.27-2.74c-.32-.18-.62-.4-.94-.57A3,3,0,0,1,48,39.71c0-.17-.12-.33,0-.52s.06-.34,0-.51-.08-.56-.12-.85a2.23,2.23,0,0,0,.44-.15c.05,0,.05-.13.08-.23l-.42-.11L48,36.92c-.36,0-.21.29-.33.38a3.22,3.22,0,0,1-.55.26l.65.32L47.47,39l.21.36-.22.72,0,.23h0a3.83,3.83,0,0,1-1.52,1.27,4.76,4.76,0,0,0-.57.34,2.47,2.47,0,0,0-.78,3.33.52.52,0,0,1,.08.5c-.09.26.08.42.34.46v9.3c-.15-.1-.31-.18-.46-.29A4.48,4.48,0,0,0,40,54.55c-.28-.1-.37-.51-.74-.48l-.24,0c0-.16-.09-.32-.12-.48a5.66,5.66,0,0,0-1.57-3.1,6.09,6.09,0,0,0-9.66,1.26c-.19.35-.34.72-.51,1.06-.05,0-.07,0-.09,0l-.23-.09a4.69,4.69,0,0,0-4.48.19,11,11,0,0,0-1.35,1,16.67,16.67,0,0,1-.1-3.6,32.69,32.69,0,0,1,.81-6.15.88.88,0,0,1,.57-.7,36.54,36.54,0,0,1,5.68-1.84,7.4,7.4,0,0,0,1-.33c.66-.26,1.05-.51.7-1.58l-.74-4.82c.55-.12,1.09-.27,1.64-.36,1.85-.3,3.69-.59,5.54-.84,1-.14,2.07-.2,3.1-.28,1.6-.12,3.2-.3,4.81-.33q3.91-.07,7.83,0c1.75,0,3.5.18,5.23.36s3.59.44,5.38.69c1.31.19,2.61.42,3.91.64.07,0,.14.08.2.11-.11.72-.23,1.44-.34,2.16C66.08,38,66,38.84,65.83,39.72Z"/><path d="M68.08,70.47A18,18,0,0,1,65,73.41a25.79,25.79,0,0,1-10.86,4.91,32.28,32.28,0,0,1-8.09.57c-1,0-1.93-.21-2.9-.33a21.35,21.35,0,0,1,5.44-8.13l5.09,0,.06.72h5.85l0-.72h3.22l4.32,0Z"/><path class="cls-9" d="M48.56,70.43a21.35,21.35,0,0,0-5.44,8.13c-1.09-.21-2.2-.36-3.28-.64a25.4,25.4,0,0,1-8-3.63c-.27-.18-.51-.39-.77-.59a26,26,0,0,1,6.62-5.8,1.58,1.58,0,0,1,.75-.16c1.77,0,3.54,0,5.31,0l.68,0v-1l0-.11,3.32,0V61l.76,0c0,1.41,0,2.81,0,4.21C48.54,67,48.55,68.7,48.56,70.43Z"/><path class="cls-10" d="M56.24,51.23h18.5a24.19,24.19,0,0,1-.21,4.17l-.42,3s0,.06-.07.09L74,58.21a5.56,5.56,0,0,0-1.78,1.17,9.52,9.52,0,0,0-1.71,2.28l-2,0a5.77,5.77,0,0,1-.58-.08l.31-.48-.91-.75c-1-.86-2.06-1.72-3.09-2.56l-3.07-2.5c-1-.83-2.05-1.65-3.07-2.49C57.42,52.28,56.83,51.75,56.24,51.23Z"/><path class="cls-11" d="M21,53.94a11,11,0,0,1,1.35-1,4.69,4.69,0,0,1,4.48-.19l.23.09s0,0,.09,0c.17-.34.32-.71.51-1.06a6.09,6.09,0,0,1,9.66-1.26,5.66,5.66,0,0,1,1.57,3.1c0,.16.08.32.12.48H25.28a1.64,1.64,0,0,0-1.15.42c-.83.72-1.7,1.37-2.56,2.06l-.37-.15Z"/><path d="M44.43,66.67v1l-.68,0c-1.77,0-3.54,0-5.31,0a1.58,1.58,0,0,0-.75.16,26,26,0,0,0-6.62,5.8c-.62-.5-1.26-1-1.86-1.48a21.48,21.48,0,0,1-3.07-3.39,1.65,1.65,0,0,1-.18-.32,4.39,4.39,0,0,0,2.42-1.62,3.65,3.65,0,0,1,.31-.24l3.2,0,.67,0H43.7Z"/><path class="cls-1" d="M28.92,34.92l.74,4.82a3.38,3.38,0,0,0-2.61-.35,37,37,0,0,0-5.84,1.48c-2.71.86-5.41,1.77-8.13,2.61-1.61.49-3.25.88-4.88,1.31a4.3,4.3,0,0,1-1.52,0A.76.76,0,0,1,6.89,44a4.09,4.09,0,0,1,2.2-1.63C10.57,42,12,41.47,13.47,41c3.06-1,6.08-2,9.2-2.84a28.07,28.07,0,0,1,4.25-.77c.6-.06,1.21,0,1.88,0,0-.78-.26-1.55-.34-2.4Z"/><path d="M28.69,66.65a3.65,3.65,0,0,0-.31.24A4.39,4.39,0,0,1,26,68.51c-.47-.7-1-1.39-1.42-2.12a28.33,28.33,0,0,1-3.32-9.53c0-.16,0-.32,0-.49l.37.15c.1.1.18.22.28.32a4.77,4.77,0,0,1,1.44,2.29,2.22,2.22,0,0,0,.19.41,2.82,2.82,0,0,0,.65,0,3.68,3.68,0,0,1,2.29.31,10.6,10.6,0,0,1,1.28.7c0,.31.27.43.47.59a4.65,4.65,0,0,1,.59,5.16A1.28,1.28,0,0,0,28.69,66.65Z"/><path class="cls-1" d="M65.83,39.72c.13-.88.25-1.76.39-2.64.11-.72.23-1.44.34-2.16L67,35l-.38,2.39a3.94,3.94,0,0,0,.46,0,17,17,0,0,1,4.65.53c3.47.8,6.83,2,10.21,3.07,1.57.51,3.15,1,4.73,1.43a1.5,1.5,0,0,1,.34.12,5,5,0,0,1,1.72,1.79,1.74,1.74,0,0,1,.08.36,2.68,2.68,0,0,1-1.35,0c-2.67-.57-5.24-1.48-7.83-2.31-3-1-6-2-9.06-2.7a13.78,13.78,0,0,0-3.07-.44A2.55,2.55,0,0,0,65.83,39.72Z"/><path class="cls-12" d="M67.86,61.56a5.77,5.77,0,0,0,.58.08l2,0c0,.15-.1.3-.14.46A9.39,9.39,0,0,0,70,63.58a7.39,7.39,0,0,0,.49,3.69,17.49,17.49,0,0,1-2.4,3.2l-.93,0q0-3.36,0-6.72c0-.81,0-1.63,0-2.44Z"/><path d="M70.48,67.27A7.39,7.39,0,0,1,70,63.58a9.39,9.39,0,0,1,.35-1.46c0-.16.1-.31.14-.46a9.52,9.52,0,0,1,1.71-2.28A5.56,5.56,0,0,1,74,58.21l.07.26a26.17,26.17,0,0,1-3.47,8.72S70.51,67.24,70.48,67.27Z"/><path d="M74.74,51.21H66.18a7.59,7.59,0,0,1,3.12-1.94,8.19,8.19,0,0,1,4.85-.19c.15,0,.32.06.48.09Z"/><path class="cls-1" d="M73,40.82a13,13,0,0,1,.57,2.23l-1.26-.51a46,46,0,0,0-4.89-1.49,4.79,4.79,0,0,1-.92-.33c-.27-.13-.29-.38-.07-.6a1.14,1.14,0,0,1,.83-.3,9.48,9.48,0,0,1,2.55.25Z"/><path class="cls-1" d="M21.89,43l.57-1.92c.54-.16,1.09-.35,1.66-.48,1.15-.27,2.29-.53,3.45-.72a3.71,3.71,0,0,1,1.32.13.57.57,0,0,1,.36.35c.07.24-.16.37-.35.43-.64.2-1.28.39-1.93.56A30.68,30.68,0,0,0,22.12,43S22.05,43,21.89,43Z"/><path d="M50.56,89l-.11-1.88a8.23,8.23,0,0,1,.85,0,.75.75,0,0,1,.8.67.81.81,0,0,1-.51,1A7.25,7.25,0,0,1,50.56,89Z"/><path d="M16.85,73.58l1.55-1.07c.17.28.35.52.48.79a.73.73,0,0,1-.25,1,.84.84,0,0,1-1.12,0A8.8,8.8,0,0,1,16.85,73.58Z"/><path d="M75.7,77.53,74.27,76.3a8.42,8.42,0,0,1,.66-.67.73.73,0,0,1,1,0,.8.8,0,0,1,.28,1.07A8.65,8.65,0,0,1,75.7,77.53Z"/><path d="M44.16,89.83c.25,0,.45,0,.64,0,.73.08.91.59.75,1.23a.46.46,0,0,1-.43.38c-.33,0-.67,0-1,0Z"/><path d="M44.38,87c.46,0,.86,0,1.1.45a.75.75,0,0,1-.07.86c-.28.41-.69.34-1.17.26Z"/><path d="M31.74,84.45l-.17,2.13L30.26,86Z"/><path d="M57.7,88.65l.19-2.12,1.21,1.75Z"/><path d="M15.72,67.39c.52,1,.45,1.45-.25,1.78s-1.32,0-1.6-1Z"/><path class="cls-6" d="M61.33,17.45a1.54,1.54,0,0,1-1.62-1.6A1.71,1.71,0,0,1,61.28,14,1.63,1.63,0,0,1,63,15.72,1.6,1.6,0,0,1,61.33,17.45Z"/><path class="cls-7" d="M62,26.47A6.59,6.59,0,0,1,59.57,26a1.13,1.13,0,0,1-.75-1.15A1,1,0,0,1,59.91,24c.82.15,1.64.33,2.45.52a3,3,0,0,1,.79.32.71.71,0,0,1,0,1.33A4.81,4.81,0,0,1,62,26.47Z"/><path class="cls-7" d="M14.05,21.6c.2-1.55.4-3,.59-4.53,0-.06.09-.12.19-.26l2.06,3.66Z"/><path class="cls-7" d="M75.53,19.18l-3.82-1a1.87,1.87,0,0,1,2.45-1.54A1.94,1.94,0,0,1,75.53,19.18Z"/><path d="M27.7,60.55a10.6,10.6,0,0,0-1.28-.7,3.68,3.68,0,0,0-2.29-.31,2.82,2.82,0,0,1-.65,0,2.22,2.22,0,0,1-.19-.41,4.77,4.77,0,0,0-1.44-2.29c-.1-.1-.18-.22-.28-.32.86-.69,1.73-1.34,2.56-2.06A1.64,1.64,0,0,1,25.28,54H39l.24,0c-.05.08-.08.18-.15.23-.91.75-1.83,1.48-2.74,2.22L32,60.08a1.87,1.87,0,0,1-1.37.49C29.66,60.51,28.68,60.55,27.7,60.55Z"/><path d="M67.86,61.56l-.68-.3L66.82,61a.78.78,0,0,0-.1-.15l-3.36-2.74-.75-.58L60.9,56.13l-.84-.74-3.31-2.7-.64-.52-3.28,3.29c-.21.21-.4.44-.61.67l-.36.36-2,1.95-.28.28L47.42,61c-.33,0-.44-.28-.6-.49l1-1.08,2.07-2.07L52.21,55l3.5-3.46c.15-.15.24-.4.53-.35.59.52,1.18,1.05,1.79,1.55,1,.84,2,1.66,3.07,2.49l3.07,2.5c1,.84,2.06,1.7,3.09,2.56l.91.75Z"/><path d="M47.46,40.09l.22-.72L47.47,39l.25-1.13-.65-.32a3.22,3.22,0,0,0,.55-.26c.12-.09,0-.4.33-.38l.15.42.42.11c0,.1,0,.21-.08.23a2.23,2.23,0,0,1-.44.15c0,.29.1.57.12.85s.05.4,0,.51,0,.35,0,.52a4.52,4.52,0,0,0,.13.82c.27.76.56,1.52.86,2.26a3.77,3.77,0,0,1,.23,2.54,5.74,5.74,0,0,0-.13.83v0l-.24,0a2.74,2.74,0,0,0-.39-.09H46.57a3.29,3.29,0,0,0-.23-.79,2.47,2.47,0,0,1,0-2.58c.31-.56.63-1.13.91-1.71a3.15,3.15,0,0,0,.16-.69h0C47.55,40.26,47.58,40.19,47.46,40.09Z"/><path class="cls-10" d="M27.7,60.55c1,0,2,0,2.93,0A1.87,1.87,0,0,0,32,60.08l4.32-3.56c.91-.74,1.83-1.47,2.74-2.22.07,0,.1-.15.15-.23.37,0,.46.38.74.48.43.44.84.89,1.27,1.32l3,3L46,60.65l-.62.39c-.34-.32-.67-.66-1-1s-.54-.48-.82-.71c0-.24-.22-.28-.4-.34A3.12,3.12,0,0,0,42,57.84l-.36-.35a1,1,0,0,0-.13-.2c-.44-.48-.87-.95-1.32-1.42-.29-.3-.6-.58-.93-.9l-.34.42c-.38.29-.78.56-1.16.86L31.87,61H28.75a4.15,4.15,0,0,0-.58.1C28,61,27.72,60.86,27.7,60.55Z"/><path class="cls-12" d="M45,55.51v-9.3h0l1.6,0v10.4l.47.07A1.88,1.88,0,0,1,45,56.12Zm1.35-5c0-1,0-1.88,0-2.79a.68.68,0,0,0-.57-.61c-.24,0-.39.28-.4.66v2.39a2.41,2.41,0,0,0,.07.35Z"/><path class="cls-13" d="M50.73,46.21c0,2.74,0,5.48,0,8.22,0,.21,0,.41,0,.61a.75.75,0,0,0-.08.27,1.58,1.58,0,0,1-.55,1.32h-1V46.16ZM49.4,50.47h1c0-1,0-1.95,0-2.9a.47.47,0,0,0-.5-.49.49.49,0,0,0-.46.48C49.39,48.52,49.4,49.47,49.4,50.47Z"/><path class="cls-11" d="M45,55.51v.61l-.74,1.23,0,1.48-3-3c-.43-.43-.84-.88-1.27-1.32a4.48,4.48,0,0,1,4.56.67C44.66,55.33,44.82,55.41,45,55.51Z"/><path class="cls-14" d="M50.73,46.21l-1.6-.05a5.74,5.74,0,0,1,.13-.83A3.77,3.77,0,0,0,49,42.79c-.3-.74-.59-1.5-.86-2.26a4.52,4.52,0,0,1-.13-.82,3,3,0,0,0,1.2,1.53c.32.17.62.39.94.57a2.58,2.58,0,0,1,1.27,2.74,1.69,1.69,0,0,1-.18.45c-.13.26-.36.46-.19.82S51,46.19,50.73,46.21Z"/><path d="M47.42,40.31a3.15,3.15,0,0,1-.16.69c-.28.58-.6,1.15-.91,1.71a2.47,2.47,0,0,0,0,2.58,3.29,3.29,0,0,1,.23.79h0c-.43,0-.85,0-1.28,0a1,1,0,0,0-.31.11h0c-.26,0-.43-.2-.34-.46a.52.52,0,0,0-.08-.5,2.47,2.47,0,0,1,.78-3.33,4.76,4.76,0,0,1,.57-.34A3.83,3.83,0,0,0,47.42,40.31Z"/><path d="M49.13,56.63h1a1.58,1.58,0,0,0,.55-1.32.75.75,0,0,1,.08-.27h1.46l-2.34,2.33H47.79v-1C48.23,56.49,48.64,56.78,49.13,56.63Z"/><path d="M47.46,40.09c.12.1.09.17,0,.23Z"/><path class="cls-15" d="M66.82,61l.36.29c0,.81,0,1.63,0,2.44q0,3.36,0,6.72l-4.32,0H59.61c0-.3,0-.6,0-.91,0-.71,0-1.42-.05-2.13l-1.77-1.73a.29.29,0,0,0-.16-.09l-1.49.07-1.1.78a1.89,1.89,0,0,0-1.4.1.52.52,0,0,1-.18,0h-.35V69l.59.24c0-.52,0-1,0-1.44a2.4,2.4,0,0,1,.12-.44h3.79l.12,0v3.75h-4l-.06-.72-5.09,0c0-1.73,0-3.46,0-5.2,0-1.4,0-2.8,0-4.21l.07,0h.25q8.73,0,17.46,0A3.88,3.88,0,0,0,66.82,61ZM63.62,69l.09,0H64c0,.05.07.14.1.14a3.86,3.86,0,0,0,2.1-.19V66.54l-.35,0a1.22,1.22,0,0,1-.34-.1,1.29,1.29,0,0,0-1.15,0l-.33.11-.36,0ZM52.16,69V66.57h-.43a1.76,1.76,0,0,0-1.64,0c-.05,0-.12,0-.18,0l-.36,0c0,.76,0,1.47,0,2.18,0,.22.06.36.32.3a2.52,2.52,0,0,0,1.87.06s0,0,0-.05H52Zm10.1-2.44a1.89,1.89,0,0,0-1.7,0h-.47v2.5h.33s.07.14.1.14h1.66s.06-.08.09-.13l.44,0c0-.43,0-.83,0-1.23a4.16,4.16,0,0,0-.08-1.26ZM54.8,68h-.43V70.6h.4c.06.06.12.19.18.19q.75,0,1.5,0c.06,0,.12-.13.18-.2l.35,0V68h-.39A2,2,0,0,0,54.8,68Zm.47-5.94a1.36,1.36,0,0,0-1.8,0v2.59h1.8ZM65.8,64.67c0-.8,0-1.53,0-2.27a.52.52,0,0,0-.31-.48,1.26,1.26,0,0,0-1.49.22v2.53Zm-14,0c0-.8,0-1.55,0-2.3,0-.37-.28-.57-.77-.62s-1,.14-1.1.45a.25.25,0,0,0,0,.12v2.35ZM57,62v2.67a17.1,17.1,0,0,0,1.77,0v-2.6A1.4,1.4,0,0,0,57,62Zm5.22,2.64V62.09A1.31,1.31,0,0,0,61,61.82c-.44.12-.55.27-.55.73s0,.94,0,1.4c0,.24,0,.48,0,.73Z"/><path class="cls-12" d="M59.54,67.41c0,.71,0,1.42.05,2.13,0,.31,0,.61,0,.91l0,.72H57.71V67.42Z"/><path class="cls-16" d="M31.87,61l5.93-4.79c.38-.3.78-.57,1.16-.86.56.57,1.14,1.11,1.66,1.7a1.08,1.08,0,0,0,1.06.4l.36.35-.63,0c.3.3.57.54.8.81a.9.9,0,0,0,.9.33c.18.06.38.1.4.34H43l.08.05c.36.39.74.78,1.09,1.18.14.16.25.35.38.53l0,5.43,0,.11-.73,0H32.56l-.67,0ZM35,65.94l.24.06c.38.33.8.21,1.23.11,0,0,0-.07,0-.1h.23l.09,0V64.6h-.32c0-.2-.16-.25-.34-.23s-.68-.13-.91.24h-.22A1.69,1.69,0,0,0,35,65.94Zm0-4.14s-.12.06-.12.1c0,.37,0,.74,0,1.12l.29.16c.38.33.8.21,1.23.11,0,0,0-.07,0-.1h.23l.09,0V61.79h-.32c0-.21-.16-.26-.34-.24s-.68-.12-.91.24ZM39,66l.08,0V64.6h-.31c0-.2-.16-.25-.34-.23s-.69-.13-.91.24c-.18,0-.27,0-.27.22,0,.37,0,.75,0,1.12.14.07.28.2.42.2.35,0,.75.23,1.06-.14Zm2.72,0,.08,0H42c.07.06.14.17.21.17A1.72,1.72,0,0,0,43.49,66c0-.37,0-.75,0-1.12,0-.18-.09-.25-.27-.22s-.24-.22-.37-.23a4.53,4.53,0,0,0-.82.06s0,.11-.06.16H41.7Zm0-2.82.08,0H42c.07.06.14.17.21.17a1.72,1.72,0,0,0,1.27-.23c0-.37,0-.75,0-1.12,0-.18-.09-.25-.27-.22s-.24-.22-.37-.23a4.53,4.53,0,0,0-.82.06s0,.11-.06.17H41.7ZM39.57,66h.24c.07.06.13.17.21.17A1.7,1.7,0,0,0,41.28,66c0-.37,0-.75,0-1.12,0-.18-.09-.25-.26-.22s-.25-.22-.38-.23a4.42,4.42,0,0,0-.81.06s0,.11-.06.16l-.39,0L39.48,66Zm0-2.82h.24c.07.06.13.17.21.17a1.7,1.7,0,0,0,1.26-.23c0-.37,0-.75,0-1.12,0-.18-.09-.25-.26-.22s-.25-.22-.38-.23a4.42,4.42,0,0,0-.81.06s0,.11-.07.17h-.38l.06,1.34Zm-.51,0V61.79h-.31c0-.21-.16-.26-.34-.24s-.69-.12-.91.24c-.18,0-.27,0-.27.22,0,.37,0,.75,0,1.12.14.07.28.2.42.21.35,0,.75.22,1.06-.15H39Zm-6,2.86c.11.06.21.18.33.18A1.67,1.67,0,0,0,34.65,66V64.61h-.33a.86.86,0,0,0-1.24,0c-.14,0-.3,0-.31.16,0,.36,0,.71,0,1.07C32.78,66,32.94,66,33.09,66Zm0-2.82c.11.07.21.18.33.19a1.77,1.77,0,0,0,1.23-.23V61.79h-.33a.88.88,0,0,0-1.24,0c-.14,0-.3,0-.31.16,0,.36,0,.72,0,1.07C32.78,63.22,32.94,63.2,33.09,63.18Zm6.44-4.92H36.8l0,.65L36.3,59v1.09h3.77V59l-.5-.15Z"/><path class="cls-12" d="M44.48,66.56l0-5.43.84-.09.62-.39-1.74-1.82,0-1.48,3.56,0v2.11l-1,1.08c.16.21.27.48.6.49l.38,0v5.49Z"/><path class="cls-10" d="M47.8,61l-.38,0,2.2-2.29,1,.16a2.73,2.73,0,0,1-.27.31c-.44.45-.89.89-1.32,1.34a4.17,4.17,0,0,0-.36.47l-.07,0Z"/><path class="cls-12" d="M31.87,61l0,5.58-3.2,0a1.28,1.28,0,0,1,.07-.35,4.65,4.65,0,0,0-.59-5.16,4.15,4.15,0,0,1,.58-.1Z"/><path class="cls-17" d="M48.63,61a4.17,4.17,0,0,1,.36-.47c.43-.45.88-.89,1.32-1.34a2.73,2.73,0,0,0,.27-.31l-1-.16.28-.28c.29,0,.57,0,.85,0a.65.65,0,0,0,.4-.1c.6-.57,1.17-1.16,1.86-1.85H51.86l.36-.36a5,5,0,0,1,.55,0,1.09,1.09,0,0,0,1-.4c.43-.49.91-.93,1.36-1.39l1.61-1.66,3.31,2.7c-.05,0-.1.1-.14.1a11.44,11.44,0,0,1-1.3-.24,5.68,5.68,0,0,0-2.53.06,5.86,5.86,0,0,0-2.93,1.41,2.83,2.83,0,0,0-1.08,2.21,3.73,3.73,0,0,1,0,.47l-1,.08.52.64-.59.66c1,0,2,0,3,0a1.33,1.33,0,0,0,1.35-1.48c0-.49,0-1,0-1.47,0-.14-.07-.36-.17-.4a.61.61,0,0,0-.49.07c-.3.21-.56.47-.84.7s-.56.42-.91.7c0-.18,0-.25,0-.29a5.43,5.43,0,0,1,1.57-1.33,5.24,5.24,0,0,1,2.69-.66,10.09,10.09,0,0,0,1.1,0A5.38,5.38,0,0,1,62,58c.22.18.51.35.54.7h0c-.26,0-.41-.11-.58-.27-.33-.3-.66-.6-1-.87a.61.61,0,0,0-.74-.12,2.59,2.59,0,0,0-.1.6,13.22,13.22,0,0,0,.11,1.39,1.32,1.32,0,0,0,1.52,1.35H63.9l.41,0-.51-.64.51-.65-1.06-.05c0-.47-.16-.91.11-1.33l3.36,2.74a.78.78,0,0,1,.1.15,3.88,3.88,0,0,1-.48,0q-8.73,0-17.46,0Zm7.31-3.51A8.92,8.92,0,0,0,56,60h3.88a8.6,8.6,0,0,0,0-2.52Z"/><path class="cls-18" d="M63.36,58.08c-.27.42-.07.86-.11,1.33l1.06.05-.51.65.51.64-.41,0H61.69a1.32,1.32,0,0,1-1.52-1.35A13.22,13.22,0,0,1,60.06,58a2.59,2.59,0,0,1,.1-.6.61.61,0,0,1,.74.12c.36.27.69.57,1,.87.17.16.32.32.58.27,0,0,0,0,0,0h0l-.06-.06c0-.35-.32-.52-.54-.7a5.38,5.38,0,0,0-3.72-1.39,10.09,10.09,0,0,1-1.1,0,5.24,5.24,0,0,0-2.69.66,5.43,5.43,0,0,0-1.57,1.33s0,.11,0,.29c.35-.28.63-.48.91-.7s.54-.49.84-.7a.61.61,0,0,1,.49-.07c.1,0,.17.26.17.4,0,.49,0,1,0,1.47a1.33,1.33,0,0,1-1.35,1.48c-1,0-1.91,0-3,0l.59-.66L51,59.48l1-.08a3.73,3.73,0,0,0,0-.47,2.83,2.83,0,0,1,1.08-2.21,5.86,5.86,0,0,1,2.93-1.41,5.68,5.68,0,0,1,2.53-.06,11.44,11.44,0,0,0,1.3.24s.09-.07.14-.1l.84.74c-.25-.06-.51-.12-.76-.2a7.64,7.64,0,0,0-4-.26,6,6,0,0,0-2.86,1.48,1.63,1.63,0,0,0-.66,1.18l0,0s0,0,0,0l.06-.06c.18-.16.37-.31.55-.48A5.63,5.63,0,0,1,57,56.25c.49,0,1,0,1.47,0a5.58,5.58,0,0,1,2.34.55,8.63,8.63,0,0,1,2,1.41l0,.18.08,0-.11-.14-.14-.71Zm-.51,1.16a2.22,2.22,0,0,1-1.3-.68c-.31-.31-.67-.56-1-.86-.15.57-.15.57.2.79a7.21,7.21,0,0,1,.62.47c.3.25.58.51.88.74a.51.51,0,0,0,.62,0Zm-8-1.56c-.35.29-.59.51-.84.71s-.72.73-1.26.8c-.21,0-.35.13-.32.36a.33.33,0,0,0,.48.23,2.85,2.85,0,0,0,.6-.4l1.34-1.1ZM52,60.42c.61,0,1.24,0,1.87,0s1-.36,1-1c-.35.16-.71.32-1.08.47-.2.08-.41.13-.61.21a.89.89,0,0,1-1-.22.57.57,0,0,0-.22-.09Zm11.49,0c-.16-.26-.25-.4-.52-.3a1,1,0,0,1-.59,0c-.6-.18-1.19-.39-1.78-.59a.87.87,0,0,0,.93.86C62.12,60.43,62.75,60.42,63.46,60.42Zm-.17-.56s0,0,0,0l.09,0,0,0A.29.29,0,0,0,63.29,59.86Z"/><path class="cls-12" d="M52.57,58.33a1.63,1.63,0,0,1,.66-1.18,6,6,0,0,1,2.86-1.48,7.64,7.64,0,0,1,4,.26c.25.08.51.14.76.2l1.71,1.37.14.71h0a8.63,8.63,0,0,0-2-1.41,5.58,5.58,0,0,0-2.34-.55c-.49,0-1,0-1.47,0a5.63,5.63,0,0,0-3.84,1.6c-.18.17-.37.32-.55.48Z"/><path class="cls-10" d="M56.75,52.69l-1.61,1.66c-.45.46-.93.9-1.36,1.39a1.09,1.09,0,0,1-1,.4,5,5,0,0,0-.55,0c.21-.23.4-.46.61-.67l3.28-3.29Z"/><path class="cls-10" d="M51.86,56.49H53c-.69.69-1.26,1.28-1.86,1.85a.65.65,0,0,1-.4.1c-.28,0-.56,0-.85,0Z"/><path class="cls-9" d="M47.8,59.44V57.38h2.08Z"/><path class="cls-19" d="M49.13,56.63c-.49.15-.9-.14-1.34-.26l-.74.27-.47-.07V46.22l2.31,0,.24,0Zm-2-5.82h1.34c0-1,0-2,0-3a.76.76,0,0,0-.8-.73.72.72,0,0,0-.52.61C47.18,48.71,47.18,49.75,47.18,50.81Zm-.14,2a.86.86,0,0,0,.84.87.91.91,0,0,0,.77-.82.86.86,0,0,0-.82-.87A.76.76,0,0,0,47,52.79Z"/><path class="cls-14" d="M48.89,46.17l-2.31,0v0a.28.28,0,0,1,0-.09H48.5A2.74,2.74,0,0,1,48.89,46.17Z"/><path d="M41.68,57.49a1.08,1.08,0,0,1-1.06-.4c-.52-.59-1.1-1.13-1.66-1.7L39.3,55c.33.32.64.6.93.9.45.47.88.94,1.32,1.42A1,1,0,0,1,41.68,57.49Z"/><path d="M45.34,61l-.84.09c-.13-.18-.24-.37-.38-.53-.35-.4-.73-.79-1.09-1.18l0-.05h.46c.28.23.56.46.82.71S45,60.72,45.34,61Z"/><path d="M43.11,59a.9.9,0,0,1-.9-.33c-.23-.27-.5-.51-.8-.81l.63,0A3.12,3.12,0,0,1,43.11,59Z"/><path class="cls-20" d="M46.32,50.47h-.91a2.41,2.41,0,0,1-.07-.35V47.73c0-.38.16-.63.4-.66a.68.68,0,0,1,.57.61C46.33,48.59,46.32,49.5,46.32,50.47Zm-.58-2.89v2.65A6.94,6.94,0,0,0,45.74,47.58Z"/><path d="M47.05,56.64l.74-.27v1l-3.56,0L45,56.12A1.88,1.88,0,0,0,47.05,56.64Z"/><path d="M46.57,46.08a.28.28,0,0,0,0,.09l-1.6,0a1,1,0,0,1,.31-.11C45.72,46.07,46.14,46.08,46.57,46.08Z"/><path class="cls-20" d="M49.4,50.47c0-1,0-1.95,0-2.91a.49.49,0,0,1,.46-.48.47.47,0,0,1,.5.49c0,1,0,1.91,0,2.9ZM50,47.56a6.53,6.53,0,0,0-.2,2.43c0,.06.09.09.2.19Z"/><path class="cls-20" d="M56.63,70.59c-.06.07-.12.2-.18.2q-.75,0-1.5,0c-.06,0-.12-.13-.18-.19l0-2.57a2,2,0,0,1,1.79,0Zm-1.15-2.37c-.13.07-.26.1-.26.14,0,.66,0,1.32,0,2h.27Zm.39.08c0,.68,0,1.37,0,2.08l.34,0c0-.61,0-1.22,0-1.82C56.24,68.34,56.13,68.24,55.87,68.3Z"/><path class="cls-20" d="M55.27,62.09v2.58h-1.8V62.08A1.36,1.36,0,0,1,55.27,62.09Zm-1.13,2.24V62.19c-.26,0-.35.14-.34.36,0,.55,0,1.1,0,1.65,0,0,0,.07.06.12Zm.78,0c0-.65,0-1.23,0-1.82,0-.23-.13-.32-.35-.3v2.12Z"/><path class="cls-20" d="M64,66.57l.33-.11a1.29,1.29,0,0,1,1.15,0,1.22,1.22,0,0,0,.34.1V69l.35,0a3.86,3.86,0,0,1-2.1.19s-.07-.09-.1-.14Zm1.46,2.3V67.12c0-.22-.06-.36-.34-.33v2.08Zm-.77,0V66.79c-.21,0-.34,0-.34.25,0,.54,0,1.09,0,1.64C64.33,68.88,64.45,68.9,64.67,68.86Z"/><path class="cls-20" d="M65.8,64.67H64V62.14a1.26,1.26,0,0,1,1.49-.22.52.52,0,0,1,.31.48C65.79,63.14,65.8,63.87,65.8,64.67Zm-.4-.34v-2l-.31-.11v2.15ZM64.68,62c-.17.2-.34.3-.34.41,0,.62,0,1.24,0,1.89l.35,0Z"/><path d="M55,66.44l1.1-.78,1.47,1.73H53.8v-.13l.36-.22Z"/><path class="cls-20" d="M51.81,64.68h-1.9V62.33a.25.25,0,0,1,0-.12c.09-.31.56-.5,1.1-.45s.77.25.77.62C51.82,63.13,51.81,63.88,51.81,64.68ZM51,62.16v2.18l.41,0c0-.61,0-1.18,0-1.75C51.45,62.32,51.37,62.16,51,62.16Zm-.35,0c-.38.15-.4.15-.4.37,0,.59,0,1.17,0,1.78h.41Z"/><path class="cls-20" d="M57,62a1.4,1.4,0,0,1,1.77,0v2.6a17.1,17.1,0,0,1-1.77,0Zm1.43,2.28c0-.63,0-1.2,0-1.77,0-.28-.12-.4-.41-.37v2.14Zm-.73,0c0-.4,0-.74,0-1.09a4.58,4.58,0,0,0-.08-1.18c-.15.19-.28.29-.28.39,0,.62,0,1.24,0,1.88Z"/><path class="cls-20" d="M62.23,64.68H60.46c0-.25,0-.49,0-.73,0-.46,0-.93,0-1.4s.11-.61.55-.73a1.31,1.31,0,0,1,1.23.27Zm-1-2.51c-.33,0-.42.15-.42.39,0,.53,0,1.06,0,1.59a.6.6,0,0,0,.07.18l.34,0Zm.7,2.14c0-.64,0-1.26,0-1.89,0-.2-.15-.25-.32-.24v2.15Z"/><path class="cls-20" d="M62.27,69.07c0,.05-.06.13-.09.13H60.52s-.07-.09-.1-.14l0-2.5h.12a1.89,1.89,0,0,1,1.7,0Zm-1.06-2.32c-.32,0-.42.13-.42.4,0,.53,0,1.07,0,1.6,0,0,0,.07.07.13l.33,0Zm.69,2.07c0-.6,0-1.22,0-1.84,0-.08-.14-.16-.22-.24l-.13.05c0,.64,0,1.28,0,1.92C61.55,68.9,61.69,68.92,61.9,68.82Z"/><path class="cls-10" d="M57.59,67.39l-1.47-1.73,1.49-.07a.29.29,0,0,1,.16.09l1.77,1.73H57.71Z"/><path class="cls-20" d="M51.76,69.07s0,.05,0,.05a2.52,2.52,0,0,1-1.87-.06l0-2.5c.06,0,.13,0,.18,0a1.76,1.76,0,0,1,1.64,0Zm-.32-.21c0-.61,0-1.22,0-1.83,0-.23-.16-.29-.43-.29,0,.65,0,1.3,0,1.94C51,68.9,51.14,69,51.44,68.86Zm-.74-2.1-.13-.07c-.1.1-.27.21-.27.32,0,.61,0,1.23,0,1.88l.41,0Z"/><path class="cls-20" d="M55,66.44l-.85.59-.1-.25c-.08,0-.21.06-.24.12a1.32,1.32,0,0,0,0,.35v.13a2.4,2.4,0,0,0-.12.44c0,.46,0,.92,0,1.44L53.09,69l.35,0v-2.4a.52.52,0,0,0,.18,0A1.89,1.89,0,0,1,55,66.44Z"/><path d="M54.8,68l0,2.57h-.4V68Z"/><path d="M62.27,69.07v-2.5l.37,0a4.16,4.16,0,0,1,.08,1.26c0,.4,0,.8,0,1.23Z"/><path d="M51.76,69.07l0-2.5h.43V69l-.18.06Z"/><path d="M56.63,70.59l0-2.56H57v2.54Z"/><path d="M60.44,66.56l0,2.5h-.33v-2.5Z"/><path d="M49.91,66.56l0,2.5c-.26.06-.32-.08-.32-.3,0-.71,0-1.42,0-2.18Z"/><path d="M64,66.57l0,2.5h-.24s0,0-.09,0V66.55Z"/><path d="M66.15,69l-.35,0v-2.4l.35,0Z"/><path d="M53.44,66.57V69l-.35,0V66.57Z"/><path class="cls-20" d="M52,69.07l.18-.06Z"/><path class="cls-20" d="M63.62,69c.05,0,.07,0,.09,0Z"/><path d="M39.53,58.26l0,.62.5.15v1.06H36.3V59l.46-.09,0-.65Zm-1.11.65c.07-.26,0-.37-.25-.37s-.32.1-.24.37Zm-1.29,0h.46c0-.26,0-.35-.24-.35S37.09,58.68,37.13,58.9Zm1.65.07c.15-.12.38.13.43-.18a.31.31,0,0,0-.17-.23C38.82,58.52,38.7,58.61,38.78,59Z"/><path class="cls-20" d="M33.08,61.79a.88.88,0,0,1,1.24,0v1.3l.33,0a1.77,1.77,0,0,1-1.23.23c-.12,0-.22-.12-.33-.19Zm.83,1.28V61.9l-.42,0V63Z"/><path class="cls-20" d="M33.08,64.61a.86.86,0,0,1,1.24,0v1.3l.33,0a1.67,1.67,0,0,1-1.23.23c-.12,0-.22-.12-.33-.18Zm.83,1.29V64.73l-.41,0v1.08Z"/><path class="cls-21" d="M42,61.79c0-.06,0-.16.06-.17a4.53,4.53,0,0,1,.82-.06c.13,0,.25.15.37.23,0,.36,0,.72,0,1.08,0,.18.08.25.25.26a1.72,1.72,0,0,1-1.27.23c-.07,0-.14-.11-.21-.17Zm.41.12V63c.26.07.42,0,.43-.22s0-.56,0-.87Z"/><path class="cls-21" d="M41.28,63.13a1.7,1.7,0,0,1-1.26.23c-.08,0-.14-.11-.21-.17v-1.4c0-.06,0-.16.07-.17a4.42,4.42,0,0,1,.81-.06c.13,0,.25.15.38.23,0,.36,0,.72,0,1.08A.23.23,0,0,0,41.28,63.13Zm-1.07-1.21V63c.4,0,.42,0,.43-.2s0-.6,0-.91Z"/><path class="cls-21" d="M37.5,61.79c.22-.36.59-.21.91-.24s.31,0,.34.24v1.4c-.31.37-.71.15-1.06.15-.14,0-.28-.14-.42-.21.16,0,.26-.08.25-.26C37.51,62.51,37.5,62.15,37.5,61.79Zm.41.13c0,.33,0,.59,0,.85s.2.35.46.23a2.83,2.83,0,0,0-.07-1.09Z"/><path class="cls-21" d="M43.49,66a1.72,1.72,0,0,1-1.27.23c-.07,0-.14-.11-.21-.17V64.6s0-.15.06-.16a4.53,4.53,0,0,1,.82-.06c.13,0,.25.15.37.23,0,.36,0,.72,0,1.08C43.23,65.86,43.32,65.94,43.49,66Zm-1.06-1.22v1.13c.26.06.41,0,.42-.24s0-.56,0-.87Z"/><path class="cls-21" d="M39.81,64.6s0-.15.06-.16a4.42,4.42,0,0,1,.81-.06c.13,0,.25.15.38.23,0,.36,0,.72,0,1.08a.23.23,0,0,0,.25.26,1.7,1.7,0,0,1-1.26.23c-.08,0-.14-.11-.21-.17Zm.39,1.24c.24.08.41.06.43-.15s0-.63,0-1l-.44,0Z"/><path class="cls-21" d="M37.5,64.61c.22-.37.59-.21.91-.24s.31,0,.34.23V66c-.31.37-.71.15-1.06.14-.14,0-.28-.13-.42-.2.16,0,.26-.09.25-.26C37.51,65.33,37.5,65,37.5,64.61Zm.41.15c0,.31,0,.59,0,.87s.21.29.43.21V64.73Z"/><path class="cls-21" d="M35.29,61.79c.23-.36.6-.21.91-.24s.32,0,.34.24v1.4s0,.1,0,.1c-.43.1-.85.22-1.23-.11Zm.41.14c0,.32,0,.58,0,.84s.2.35.49.21c-.07-.35.08-.72-.1-1.07Z"/><path class="cls-21" d="M35.29,64.61c.23-.37.6-.21.91-.24s.32,0,.34.23V66s0,.1,0,.1c-.43.1-.85.22-1.23-.11Zm.41.13c0,.33,0,.59,0,.85s.2.34.46.22a2.67,2.67,0,0,0-.07-1.09Z"/><path d="M33.08,61.79v1.39c-.15,0-.31,0-.32-.16,0-.35,0-.71,0-1.07C32.78,61.75,32.94,61.78,33.08,61.79Z"/><path d="M33.08,64.61V66c-.15,0-.31,0-.32-.16,0-.36,0-.71,0-1.07C32.78,64.57,32.94,64.59,33.08,64.61Z"/><path d="M36.54,63.19v-1.4h.32v1.35a.08.08,0,0,0-.09,0Z"/><path d="M38.75,63.19v-1.4h.31v1.35a.06.06,0,0,0-.08,0Z"/><path d="M39.8,61.79v1.4h-.24a.07.07,0,0,0-.09,0l-.06-1.34Z"/><path d="M39.81,64.6V66h-.24a.07.07,0,0,0-.09,0l-.06-1.34Z"/><path d="M42,61.79v1.4h-.23a.06.06,0,0,0-.08,0V61.79Z"/><path d="M42,64.6V66h-.23a.06.06,0,0,0-.08,0V64.6Z"/><path d="M36.54,66V64.6h.32V66a.08.08,0,0,0-.09,0Z"/><path d="M38.75,66V64.6h.31V66A.06.06,0,0,0,39,66Z"/><path d="M34.65,63.14l-.33,0v-1.3h.33Z"/><path d="M34.65,66l-.33,0v-1.3h.33Z"/><path d="M35.29,61.79l0,1.39L35,63l.09-1.22Z"/><path d="M35.29,64.61l0,1.39L35,65.94l0-1.32Z"/><path d="M43.49,66c-.17,0-.26-.09-.25-.26,0-.36,0-.72,0-1.08.18,0,.27,0,.27.22C43.51,65.2,43.5,65.58,43.49,66Z"/><path d="M43.49,63.13c-.17,0-.26-.08-.25-.26,0-.36,0-.72,0-1.08.18,0,.27,0,.27.22C43.51,62.38,43.5,62.76,43.49,63.13Z"/><path d="M37.5,64.61c0,.36,0,.72,0,1.08,0,.17-.09.25-.25.26,0-.37,0-.75,0-1.12C37.23,64.65,37.32,64.58,37.5,64.61Z"/><path d="M41.28,63.13a.23.23,0,0,1-.25-.26c0-.36,0-.72,0-1.08.17,0,.27,0,.26.22C41.31,62.38,41.29,62.76,41.28,63.13Z"/><path d="M37.5,61.79c0,.36,0,.72,0,1.08,0,.18-.09.25-.25.26,0-.37,0-.75,0-1.12C37.23,61.83,37.32,61.76,37.5,61.79Z"/><path d="M41.28,66a.23.23,0,0,1-.25-.26c0-.36,0-.72,0-1.08.17,0,.27,0,.26.22C41.31,65.2,41.29,65.58,41.28,66Z"/><path class="cls-11" d="M35.07,64.62l0,1.32A1.69,1.69,0,0,1,35.07,64.62Z"/><path class="cls-11" d="M35.07,61.8,35,63c0-.38,0-.75,0-1.12C35,61.86,35,61.83,35.07,61.8Z"/><path class="cls-21" d="M39,63.18a.06.06,0,0,1,.08,0Z"/><path class="cls-21" d="M36.77,63.18a.08.08,0,0,1,.09,0Z"/><path class="cls-21" d="M39.48,63.14a.07.07,0,0,1,.09,0Z"/><path class="cls-21" d="M41.7,66a.06.06,0,0,1,.08,0Z"/><path class="cls-21" d="M39.48,66a.07.07,0,0,1,.09,0Z"/><path class="cls-21" d="M39,66a.06.06,0,0,1,.08,0Z"/><path class="cls-21" d="M36.77,66a.08.08,0,0,1,.09,0Z"/><path class="cls-10" d="M43.05,59.37l0,.05L43,59.37Z"/><path class="cls-21" d="M41.7,63.14a.06.06,0,0,1,.08,0Z"/><path class="cls-20" d="M55.94,57.49h3.88a8.6,8.6,0,0,1,0,2.52H56A8.92,8.92,0,0,1,55.94,57.49Zm.33.36v1.83l.52,0v-1.8Zm1.4,1.8V57.87h-.53v1.78Zm1.84,0V57.87H59v1.78Zm-1.4-1.79v1.79h.46V57.86Z"/><path class="cls-12" d="M62.85,59.24v.48a.51.51,0,0,1-.62,0c-.3-.23-.58-.49-.88-.74a7.21,7.21,0,0,0-.62-.47c-.35-.22-.35-.22-.2-.79.35.3.71.55,1,.86A2.22,2.22,0,0,0,62.85,59.24Z"/><path class="cls-12" d="M54.89,57.68v.6l-1.34,1.1a2.85,2.85,0,0,1-.6.4.33.33,0,0,1-.48-.23c0-.23.11-.33.32-.36.54-.07.86-.5,1.26-.8S54.54,58,54.89,57.68Z"/><path class="cls-12" d="M52,60.42v-.61a.57.57,0,0,1,.22.09.89.89,0,0,0,1,.22c.2-.08.41-.13.61-.21.37-.15.73-.31,1.08-.47,0,.61-.27.94-1,1S52.58,60.42,52,60.42Z"/><path class="cls-12" d="M63.46,60.42c-.71,0-1.34,0-2,0a.87.87,0,0,1-.93-.86c.59.2,1.18.41,1.78.59a1,1,0,0,0,.59,0C63.21,60,63.3,60.16,63.46,60.42Z"/><path class="cls-12" d="M62.75,58.21l.11.14-.08,0,0-.18Z"/><path class="cls-12" d="M63.29,59.86a.29.29,0,0,1,.1,0l0,0-.09,0S63.3,59.88,63.29,59.86Z"/><path class="cls-12" d="M52.57,58.33l-.06.06s0,0,0,0l0,0Z"/><path class="cls-17" d="M62.5,58.7l.06.06h0s0,0,0,0Z"/><path class="cls-20" d="M47.18,50.81c0-1.06,0-2.1,0-3.13a.72.72,0,0,1,.52-.61.76.76,0,0,1,.8.73c0,1,0,2,0,3Zm.66-3.46c-.13.23-.27.37-.28.51,0,.85,0,1.7,0,2.6l.49,0A6.84,6.84,0,0,0,47.84,47.35Z"/><path class="cls-15" d="M47,52.79a.76.76,0,0,1,.79-.82.86.86,0,0,1,.82.87.91.91,0,0,1-.77.82A.86.86,0,0,1,47,52.79Z"/><path class="cls-7" d="M50,47.56v2.62c-.11-.1-.19-.13-.2-.19A6.53,6.53,0,0,1,50,47.56Z"/><path class="cls-16" d="M51,62.16c.33,0,.41.16.41.39,0,.57,0,1.14,0,1.75l-.41,0Z"/><path class="cls-4" d="M50.69,62.16v2.15h-.41c0-.61,0-1.19,0-1.78C50.29,62.31,50.31,62.31,50.69,62.16Z"/><path class="cls-4" d="M58.44,64.32H58V62.18c.29,0,.41.09.41.37C58.44,63.12,58.44,63.69,58.44,64.32Z"/><path class="cls-2" d="M57.71,64.32h-.37c0-.64,0-1.26,0-1.88,0-.1.13-.2.28-.39a4.58,4.58,0,0,1,.08,1.18C57.72,63.58,57.71,63.92,57.71,64.32Z"/><path class="cls-4" d="M61.21,62.17V64.3l-.34,0a.6.6,0,0,1-.07-.18c0-.53,0-1.06,0-1.59C60.79,62.32,60.88,62.17,61.21,62.17Z"/><path class="cls-2" d="M61.91,64.31l-.33,0V62.18c.17,0,.32,0,.32.24C61.91,63.05,61.91,63.67,61.91,64.31Z"/><path class="cls-4" d="M61.21,66.75v2.1l-.33,0c0-.06-.07-.1-.07-.13,0-.53,0-1.07,0-1.6C60.79,66.88,60.89,66.73,61.21,66.75Z"/><path class="cls-2" d="M61.9,68.82c-.21.1-.35.08-.35-.11,0-.64,0-1.28,0-1.92l.13-.05c.08.08.22.16.22.24C61.91,67.6,61.9,68.22,61.9,68.82Z"/><path class="cls-16" d="M51.44,68.86c-.3.1-.43,0-.43-.18,0-.64,0-1.29,0-1.94.27,0,.43.06.43.29C51.45,67.64,51.44,68.25,51.44,68.86Z"/><path class="cls-4" d="M50.7,66.76v2.09l-.41,0c0-.65,0-1.27,0-1.88,0-.11.17-.22.27-.32Z"/><path class="cls-4" d="M38.42,58.91h-.49c-.08-.27,0-.37.24-.37S38.49,58.65,38.42,58.91Z"/><path class="cls-7" d="M33.91,63.07,33.49,63V61.93l.42,0Z"/><path class="cls-7" d="M33.91,65.9l-.41-.06V64.76l.41,0Z"/><path class="cls-7" d="M42.42,61.91l.43,0c0,.31,0,.59,0,.87s-.17.29-.43.22Z"/><path class="cls-7" d="M40.21,61.92h.44c0,.31,0,.61,0,.91s0,.18-.43.2Z"/><path class="cls-7" d="M37.91,61.92h.39A2.83,2.83,0,0,1,38.37,63c-.26.12-.44.1-.46-.23S37.91,62.25,37.91,61.92Z"/><path class="cls-7" d="M42.43,64.73l.42,0c0,.31,0,.59,0,.87s-.16.3-.42.24Z"/><path class="cls-7" d="M40.2,65.84V64.76l.44,0c0,.34,0,.66,0,1S40.44,65.92,40.2,65.84Z"/><path class="cls-7" d="M37.91,64.76l.43,0v1.11c-.22.08-.41.08-.43-.21S37.91,65.07,37.91,64.76Z"/><path class="cls-7" d="M35.7,61.93l.39,0c.18.35,0,.72.1,1.07-.29.14-.47.12-.49-.21S35.7,62.25,35.7,61.93Z"/><path class="cls-7" d="M35.7,64.74l.39,0a2.67,2.67,0,0,1,.07,1.09c-.26.12-.44.11-.46-.22S35.7,65.07,35.7,64.74Z"/><path class="cls-2" d="M56.27,57.85h.52v1.8l-.52,0Z"/></g></g></svg>