<?xml version="1.0" encoding="utf-8"?>
<!-- Generator: Adobe Illustrator 25.2.0, SVG Export Plug-In . SVG Version: 6.00 Build 0)  -->
<svg version="1.1" id="圖層_1" xmlns="http://www.w3.org/2000/svg" xmlns:xlink="http://www.w3.org/1999/xlink" x="0px" y="0px"
	 viewBox="0 0 95.6 100" style="enable-background:new 0 0 95.6 100;" xml:space="preserve">
<style type="text/css">
	.st0{fill:#C6A348;}
	.st1{fill:#024928;}
	.st2{fill:#F7F3D9;}
	.st3{fill:#F5F1D6;}
	.st4{fill:#F3EFD3;}
	.st5{fill:#C4A246;}
	.st6{fill:#F4F0D5;}
	.st7{fill:#F3EFD4;}
	.st8{fill:#014A29;}
	.st9{fill:#51A8D1;}
	.st10{fill:#F1C31D;}
	.st11{fill:#9D9375;}
	.st12{fill:#789555;}
	.st13{fill:#457736;}
	.st14{fill:#C1A716;}
	.st15{fill:#12532D;}
	.st16{fill:#655023;}
	.st17{fill:#4D607F;}
	.st18{fill:#EADE81;}
	.st19{fill:#788096;}
	.st20{fill:#1D476B;}
	.st21{fill:#F2E8B1;}
	.st22{fill:#F0E6AF;}
	.st23{fill:#C1A718;}
	.st24{fill:#A08423;}
	.st25{fill:#F2C728;}
	.st26{fill:#A08523;}
	.st27{fill:#9A8425;}
</style>
<g id="圖層_2_2_">
	<g id="_0-ui_kits">
		<g id="logo_beer_ayinger">
			<path id="Path_31356" class="st0" d="M43.3,0h8.8c0,0,0,0,0.2,0h2.7h2.3l0,0l1.9,0.2c0.5,0,0.9,0,1.5,0L63,1.1
				c0.9,0,1.8,0.2,2.7,0.4C67.1,1.7,68.5,2,70,2.4c2.1,0.5,4.3,1.1,6.5,1.8c1.5,0.4,3,0.9,4.5,1.5c1.5,0.6,2.9,1.2,4.4,1.9
				c1.5,0.7,1.9,1,2.8,1.5c1.5,0.7,2.8,1.6,4.1,2.6c0.7,0.5,1.2,1.2,1.5,2c0.3,1,0.3,2.1,0,3.2c0,0.7-0.2,1.4-0.3,2.1
				c-0.1,0.7,0,0.8,0,1.2c0,0.4-0.2,1.5-0.3,2.3l-0.3,2c0,0.8-0.2,1.5-0.3,2.3c-0.1,0.8-0.2,0.9-0.2,1.3c-0.1,0.4-0.2,1.4-0.3,2
				c-0.1,0.3-0.1,0.6,0,0.9c0.3,0.8,0.7,1.6,0.9,2.5c0.7,2.2,1.3,4.4,1.8,6.6c0.2,0.8,0.3,1.6,0.4,2.4l0.3,1.8c0,0.6,0,1.3,0.2,2
				c0.2,0.7,0,1.4,0,2.1l0,0v6.6c0,0.1,0,0.2,0,0.3c0,0.6,0,1.2,0,1.7c0,1.1-0.2,2.1-0.4,3.2c-0.2,1.2-0.3,2.5-0.6,3.7
				s-0.7,2.9-1.2,4.3c-0.7,2.4-1.6,4.7-2.7,6.9c-0.7,1.5-1.6,3-2.5,4.4c-0.8,1.1-1.6,2.2-2.4,3.3c-0.8,1.1-1.7,2.2-2.7,3.2
				c-1.3,1.5-2.7,2.8-4.2,4l-2.4,1.8c-2.1,1.5-4.3,2.7-6.6,3.8c-1.4,0.7-2.8,1.2-4.2,1.7c-1.2,0.4-2.3,0.8-3.5,1.1s-2.4,0.6-3.6,0.9
				c-1.2,0.3-1.6,0.3-2.5,0.4l-2.7,0.3h-2.1l0,0h-6.6h-0.5c-0.8,0-1.5,0-2.2-0.2c-0.8-0.2-2.1-0.3-3.2-0.5c-1-0.1-2-0.3-3-0.5
				c-2.1-0.5-4.3-1.1-6.3-1.9c-2.3-0.9-4.5-1.9-6.6-3.2c-1.5-0.9-3-1.8-4.5-2.9c-1.8-1.2-3.5-2.6-5.1-4c-0.8-0.8-1.5-1.5-2.2-2.3
				c-0.7-0.8-1.4-1.8-2.1-2.7c-1.2-1.6-2.3-3.4-3.2-5.2c-1.1-1.9-2.1-3.8-2.9-5.9c-0.3-1.3-0.8-2.7-1.2-4s-0.7-2.6-0.9-3.9
				c0-0.8-0.3-1.6-0.4-2.5c-0.1-0.9,0-0.8-0.2-1.1s0-1.3-0.2-1.9s0-1.4,0-2.1l0,0v-6.8c0,0,0-0.2,0-0.2c0-1.1,0.1-2.1,0.3-3.2
				c0-0.9,0.3-1.7,0.3-2.6c0.2-1.3,0.4-2.5,0.7-3.8c0.5-2.4,1.3-4.7,2.1-7c0.2-0.5,0.2-1.1,0-1.6c0-0.4,0-0.8-0.2-1.2
				c-0.2-0.4,0-1.4-0.3-2S3,25.3,3,24.5s0-1.4-0.3-2.1s-0.3-2.1-0.5-3.2L2,18c-0.1-0.7-0.2-1.4-0.3-2.2c0-0.9,0.3-1.8,0.9-2.6
				c0.6-0.8,1.3-1.6,2.1-2.2c1-0.9,2-1.6,3.2-2.3C9,8,10.3,7.4,11.6,6.8c1.5-0.7,3.1-1.3,4.6-1.9c2.6-0.6,4.6-1.3,6.9-2
				c2.1-0.6,4.2-1,6.3-1.4C30.8,1.4,32,1.1,33.3,1c1.3-0.2,2.5-0.3,3.7-0.5s1.7-0.2,2.6-0.3h2.8h0.7L43.3,0z M89.5,44.5
				c-0.2-0.3-0.4-0.7-0.6-1c-0.6-0.8-1.3-1.4-2.1-1.9c-1.8-1.2-3.7-2.1-5.6-2.9c-2.3-1-4.8-1.9-7.2-2.6c-2.4-0.7-4.9-1.3-7.3-1.8
				l-4.5-0.8c-1.1,0-2.2-0.3-3.3-0.4l-4.7-0.5c-1.4,0-2.8,0-4.2,0c-2.4,0-4.8,0-7.2,0c-1.6,0-3.2,0.2-4.7,0.3
				c-0.9,0-1.8,0.1-2.7,0.3L31,34c-2.1,0.4-4.2,0.8-6.3,1.3c-2.1,0.5-3.5,1-5.2,1.5c-3.4,1-6.7,2.4-9.7,4.2
				c-1.1,0.6-2.2,1.4-3.2,2.3c-0.4,0.4-0.7,1-0.7,1.6c0-0.3,0-0.6,0-0.9c-0.3-1.6-0.5-3.2-0.7-4.8c0-0.9-0.3-1.8-0.4-2.7
				c-0.1-0.6-0.2-1.2-0.3-1.7l-0.2,0.3l-0.8,2.7c-0.7,2.7-1.2,5.5-1.5,8.4c-0.2,1.8-0.2,3.6-0.3,5.4c0,0.7,0,1.4,0,2.1
				c0,1.4,0.1,2.7,0.3,4.1c0.2,1.4,0.4,2.9,0.6,4.3c0.4,2.3,0.9,4.5,1.7,6.7c1,3.2,2.5,6.3,4.2,9.2c1.5,2.5,3.3,4.9,5.3,7
				c0.9,0.9,1.8,1.8,2.7,2.6c1.2,1,2.4,2,3.6,2.9c2.7,1.9,5.6,3.5,8.7,4.7c2.6,1.1,5.3,1.9,8,2.4c1.7,0.4,3.5,0.6,5.2,0.8
				c1.9,0.2,3.8,0.3,5.7,0.3h1.6c1.7,0,3.4-0.1,5.1-0.4c1.5-0.3,3.2-0.5,4.5-0.8c3.9-0.8,7.6-2.1,11.1-3.9c1.2-0.6,2.3-1.2,3.4-1.9
				c2.3-1.4,4.4-2.9,6.3-4.7c1.5-1.5,2.9-3.1,4.2-4.8c1.8-2.3,3.4-4.8,4.7-7.5c1.2-2.4,2.2-4.8,2.9-7.4c0.4-1.5,0.8-3,1.1-4.5
				c0.4-1.7,0.6-3.5,0.8-5.2c0-1.7,0.3-3.3,0.3-5s0-3.4-0.2-5.1c0-1.1-0.1-2.1-0.3-3.2c-0.2-1.9-0.6-3.9-1.1-5.7
				c-0.4-1.4-0.8-2.8-1.2-4.2H91l-0.2,1.9v0.2l-0.3,1.9C90.1,40.4,89.8,42.4,89.5,44.5z M5.9,41.1h0.3h0.3c1-0.8,2-1.5,3.2-2.1
				c2.6-1.4,5.3-2.6,8-3.5l6-1.8c1.5-0.4,3-0.7,4.5-1c1.5-0.3,3.2-0.6,4.7-0.8l3.2-0.4l3.2-0.3c1.5,0,2.9-0.3,4.4-0.3
				c3.2,0,6.3-0.2,9.5,0c1.3,0,2.5,0,3.7,0.3c1.8,0.2,3.7,0.4,5.5,0.6s3.2,0.5,4.8,0.8c3.1,0.6,6.2,1.4,9.3,2.3
				c2.5,0.8,4.9,1.7,7.3,2.8c1.9,0.8,3.7,1.9,5.3,3.2l0.7,0.5c0-0.1,0-0.1,0-0.2c0-0.9,0.3-1.9,0.4-2.9l0.6-3.9
				c0.2-1.3,0.3-2.6,0.5-3.9c0.2-1.3,0.3-2.1,0.4-3.2c0.2-1.1,0.3-1.9,0.4-2.9l0.6-3.9c0.2-1.1,0.3-2.1,0.5-3.2
				c0.3-1.1,0-2.3-0.9-3.2c-0.3-0.4-0.7-0.7-1.1-1c-0.9-0.6-1.8-1.2-2.7-1.7c-1.9-1.1-3.8-2-5.8-2.8c-2.3-1-4.7-1.8-7.1-2.5
				c-2-0.6-3.9-1.1-5.9-1.5c-2-0.4-4-0.8-6-1.1c-1.4-0.2-2.7-0.4-4-0.6c-1,0-2.1-0.2-3.2-0.3c-1.6,0-3.2-0.3-4.7-0.3
				c-3.4,0-6.8,0-10.2,0h-0.2c-1.6,0.2-3.2,0.3-4.9,0.5c-1.7,0.2-2.8,0.3-4.2,0.5c-1.4,0.2-3.4,0.6-5.1,0.9
				c-2.7,0.6-5.3,1.3-7.9,2.1c-2.7,0.9-5.4,1.9-8.1,3.2c-2.3,0.9-4.4,2.2-6.3,3.8c-0.8,0.7-1.6,1.6-2.1,2.5c-0.4,0.6-0.5,1.3-0.3,2
				c0.1,0.4,0.2,0.8,0.2,1.2c0.2,1.3,0.3,2.5,0.5,3.8l0.6,4c0.2,1,0.3,2,0.4,3.2s0.3,2,0.4,2.9c0.1,0.9,0.3,2,0.4,3s0.3,1.9,0.4,2.9
				c0.1,1,0.3,1.8,0.4,2.7V41.1z"/>
			<path id="Path_31357" class="st1" d="M4.7,36.4c0.2,0.9,0.3,1.8,0.4,2.7c0.3,1.6,0.5,3.2,0.7,4.8c0,0.3,0,0.6,0,0.9
				c0,0.5,0.4,0.6,0.8,0.6c0.7,0.1,1.4,0,2.1-0.2c2.3-0.5,4.5-1.3,6.7-2l3.9-1.3c0,0.2,0,0.5,0,0.7c-0.7,2.5-1.1,5.2-1.2,7.8
				c-0.1,1.2-0.1,2.3,0,3.5c0.1,1.3,0.3,2.6,0.6,3.8c0.5,3.3,1.6,6.5,3.2,9.5c2,3.6,4.8,6.8,8.1,9.2c4.8,3.3,10.4,5.1,16.2,5.2
				c2.1,0.1,4.2,0,6.3-0.3c1.9-0.3,3.8-0.7,5.6-1.3c2.9-0.9,5.6-2.3,8-4.1c2.5-1.8,4.6-4,6.3-6.5c1.7-2.6,3-5.5,3.9-8.6
				c0.7-2.6,1.1-5.2,1.1-7.9c0-1.2,0-2.4,0-3.6c-0.2-1.8-0.5-3.5-0.9-5.2c-0.2-0.8-0.4-1.6-0.6-2.4l3.2,1c2.4,0.8,4.7,1.5,7.1,2.2
				c0.7,0.2,1.5,0.3,2.3,0.4c0.7,0,0.8-0.2,0.9-0.9c0.3-2.1,0.6-4.1,0.9-6.3c0-0.6,0.2-1.2,0.3-1.9c0-0.1,0-0.1,0-0.2l0,0
				c0.9,2.7,1.5,5.5,1.8,8.4c0.4,2.9,0.5,5.7,0.4,8.6c0,2.1-0.2,4.1-0.5,6.3c-0.5,3.9-1.5,7.8-3,11.5C85.4,80.7,78,88.6,68.5,93.1
				c-5.1,2.4-10.6,3.9-16.3,4.3c-2.1,0.2-4.2,0.3-6.3,0.2c-1.7,0-3.4-0.1-5.1-0.4c-3.4-0.4-6.7-1.3-9.9-2.4
				c-5.9-2-11.3-5.4-15.8-9.8c-3.7-3.7-6.7-8.1-8.7-13c-2.6-6.3-3.9-13-3.9-19.7c-0.1-3.2,0.2-6.3,0.7-9.5C3.5,40.6,4,38.5,4.7,36.4
				z M48.7,93.1l2.7-0.2v-0.8l-0.6-0.5v-1.2c0.3-0.2,0.4,0,0.6,0.2l1.4,1.7c0,0,0.3,0.3,0.4,0.3s1.2,0,1.8-0.2v-0.8
				c-0.3-0.1-0.5-0.2-0.8-0.3c-0.5-0.4-1-1-1.5-1.5l0.6-0.6c0.8-0.8,0.8-2,0-2.7c-0.3-0.2-0.6-0.4-1-0.5c-0.4,0-0.8,0-1.2,0
				c-0.8,0-1.6,0-2.4,0.2h-0.4c-0.1,0.4,0.2,0.9,0.6,1.1l0.3,4.3l-0.5,0.5L48.7,93.1z M16.7,78.7c0-0.3,0-0.5,0-0.8
				c0-0.7,0.3-1.4,0.5-2.1c0.5,0.3,1,0.4,1.5,0.3c1-0.3,1.6-1.3,1.4-2.3c-0.1-0.2-0.1-0.3-0.2-0.5c-0.6-1.1-1.3-2.2-2-3.2
				c-0.6,0.3-0.6,0.3-0.7,1.1l-1.6,1.4l-1.8,1.2l-0.6-0.2l-0.6,0.4l1.5,2.2l0.6-0.5v-0.6l0.9-0.8c0.3,0.2,0.2,0.4,0,0.6l-0.9,2.5
				l1.1,1.6l0.6-0.2C16.4,79,16.7,78.7,16.7,78.7z M76.7,78.5c0,0,0.2-0.2,0.3-0.2l3.2,0.2l1.3-1.5l-0.7-0.6
				c-0.4,0.3-0.8,0.5-1.3,0.4c-0.5,0-1,0-1.4,0v-0.8c0-0.8-0.4-1.4-1.1-1.8c-0.6-0.4-1.4-0.3-1.9,0.2c-0.2,0.1-0.4,0.3-0.6,0.5
				c-0.5,0.6-1,1.2-1.6,1.8s-0.3,0.4-0.6,0.7l0.6,0.5c0.3-0.1,0.6-0.1,0.8,0l3.2,2.7v0.7l0.6,0.5l1.7-2c-0.6-0.5-0.6-0.5-1.2-0.4
				L76.7,78.5z M42,92.7h3.7c0.2,0,0.5-0.1,0.7-0.2c0.8-0.3,1.3-1.1,1.1-1.9c0-0.6-0.4-1.2-1-1.4l0.4-0.4c0.6-0.6,0.6-1.6,0-2.2
				c0,0,0,0,0,0c-0.1-0.1-0.2-0.2-0.3-0.3c-0.2-0.1-0.4-0.2-0.7-0.3l-3.4-0.3c0,0.7,0,0.7,0.4,1.3l-0.5,4.5
				c-0.5,0.2-0.7,0.7-0.6,1.2c0,0,0,0,0,0L42,92.7z M64.6,82.5c0,0.5,0.3,0.8,0.8,0.8c0.5,0,0.2,0.2,0.3,0.3
				c0.4,0.9,0.8,1.7,1.2,2.6c0.3,0.6,0.1,1.3-0.5,1.6h-0.2c-0.5,0.3-1.2,0.1-1.5-0.4v-0.2l-1.3-2.8l0.3-0.6l-0.3-0.7L62,83.7
				l-1.2,0.6l0.3,0.6h0.7c0,0.2,0,0.3,0.3,0.5c0.4,0.8,0.7,1.6,1.1,2.4c0.3,0.8,1,1.3,1.8,1.3c0.8,0.1,1.6-0.1,2.3-0.6
				c1.2-0.6,1.6-2.1,1-3.2c0,0,0,0,0-0.1l0,0c-0.5-0.9-0.9-1.8-1.3-2.7l0.4-0.7L67,81.3L64.6,82.5z M31.8,82.8l-3.7,3.7
				c-0.3,0.4-0.7,0.7-1.2,0.8l-0.3,0.7l2.3,1l0.3-0.7l-0.3-0.6l0.5-0.5l2,0.9v0.7c-0.6,0-0.7,0.4-0.8,0.9l2.5,1.1
				c0.2-0.3,0.4-0.5,0.2-0.9c-0.2-0.4-0.3-0.9-0.2-1.4c0-1.7,0.2-3.3,0.3-5L31.8,82.8z M58.5,91.8c0.1-0.4-0.1-0.9-0.5-1h-0.2v-0.7
				l2.1-0.5l0.4,0.6c-0.3,0.6-0.3,0.6,0,1.2l2.7-0.7L62.7,90c-0.4-0.2-0.8-0.5-1-0.9c-0.9-1.3-1.7-2.5-2.6-3.7l-0.4-0.6l-1.9,0.4
				c0,0.4,0,0.8,0,1.1c0,1.5-0.3,2.9-0.5,4.4c0,0.2,0,0.4,0,0.5c-0.3,0.3-0.3,0.8,0,1.1L58.5,91.8z M27.5,81.8l-3.2,2.3l0,0l1.1-3.7
				c0.7,0,0.7,0,1-0.7l-2.3-1.6l-0.4,0.6c0.2,0.4,0.2,0.8,0,1.2c-0.5,1.5-0.9,3.2-1.4,4.7c0,0,0,0.3,0,0.4l1.5,1l0.5-0.3
				c1.3-0.9,2.6-1.7,3.8-2.6c0.4-0.3,0.9-0.5,1.4-0.4h0.2l0.3-0.7l-2.3-1.6c-0.4,0.2-0.6,0.7-0.4,1.1c0,0,0,0,0,0l0,0L27.5,81.8z
				 M79.8,69.2l-1.5-0.8L76,72.6l0.7,0.4l0.6-0.3L81,75v0.7l0.9,0.2l2.5-4.4l-1.5-0.9l-0.3,0.5l0.3,0.7L82,73.3l-1.6-0.7
				c0-0.2,0.2-0.4,0.3-0.5h0.8l0.3-0.6l-1.9-1.1c0,0.3-0.2,0.6,0,0.8c0.1,0.3,0,0.7-0.3,0.9l-1.3-0.8c0.2-0.4,0.4-0.7,0.6-1
				c0.1-0.2,0.2-0.3,0.4-0.3c0.4,0,0.6-0.3,0.7-0.7L79.8,69.2z M71.5,86.2l4-3.2l-1.1-1.4l-0.5,0.4v0.7l-1.4,1.1l-1.1-1.4l0.5-0.3
				l0.7,0.2l0.5-0.2l-1.3-1.7c-0.3,0.2-0.5,0.3-0.5,0.6s-0.2,0.6-0.6,0.7l-0.9-1.2c0.3-0.2,0.5-0.4,0.8-0.6c0.2-0.2,0.5-0.2,0.7-0.2
				c0.3,0.1,0.7-0.1,0.9-0.4l-1-1.3L67.4,81l0.5,0.6h0.7c0.8,1,1.5,2,2.2,2.9c0.3,0.3,0.4,0.8,0.2,1.1L71.5,86.2z M11.6,69.5
				l0.9-0.6c0,0.3,0.3,0.7,0.4,1c0.4,0.8,1.3,1.3,2.2,1.2c1.1,0,2-1,2-2.1c0-0.1,0-0.2,0-0.3c-0.1-0.4-0.2-0.7-0.3-1.1l-0.9-2
				c0-0.2,0-0.3-0.2-0.4l-0.6,0.3L14.9,66l-4,1.7l-0.6-0.3l-0.7,0.3l1.1,2.5l0.7-0.3L11.6,69.5z M35.1,91.6l2.9,0.7v-0.9l-0.5-0.4
				l1.1-4.2l1,0.2l0.2,1l1,0.3l0.5-2.1l-6.3-1.6l-0.5,2.1l1,0.3l0.7-0.8l0.9,0.2l-1.1,4.2l-0.7,0.3L35.1,91.6z M79.9,67.8l3.9,1.5
				c0.1,0,0.2,0.1,0.3,0.3c0,0.5,0.4,0.6,0.9,0.7l1-2.5l-0.8-0.7l-0.5,0.4l-4-1.6v-0.6l-0.8-0.3l-1,2.5l0.7,0.3L79.9,67.8z
				 M21.4,76.6l-3.2,3.2h-0.7L17,80.3l1.8,1.9l0.6-0.6v-0.7l3.2-3h0.5l0.8-0.6l-1-0.9c-0.3-0.3-0.6-0.6-0.9-0.9l-0.6,0.4L21.4,76.6z
				"/>
			<path id="Path_31358" class="st2" d="M5.9,41.1c0-0.9-0.3-1.8-0.4-2.7c-0.1-0.9-0.3-1.9-0.4-2.9s-0.3-2-0.4-3
				c-0.2-1-0.3-2-0.4-2.9s-0.3-2-0.4-3.2l-0.6-3.7C3,21.4,3,20.2,2.7,19c0-0.4,0-0.8-0.2-1.2c-0.2-0.7,0-1.4,0.3-2
				c0.6-1,1.3-1.9,2.1-2.6c1.9-1.6,4-2.8,6.3-3.8c5-2.3,10.3-4,15.8-5.1l5.1-0.9c1.4-0.2,2.8-0.4,4.2-0.5l5-0.5h0.2
				c3.4-0.2,6.8-0.2,10.2,0c1.6,0,3.2,0.2,4.7,0.3c1,0,2.1,0,3.2,0.3s2.7,0.3,4,0.6c2,0.3,4,0.7,6,1.1s3.9,1,5.9,1.5
				c2.4,0.7,4.8,1.5,7.1,2.5c2,0.8,3.9,1.7,5.8,2.7c0.9,0.5,1.8,1.1,2.7,1.7c0.4,0.3,0.8,0.6,1.1,1c0.8,0.8,1.2,2,0.9,3.2
				c-0.2,1-0.3,2.1-0.5,3.2L92,24.4c0,0.9-0.3,1.9-0.4,2.9c-0.1,1-0.3,2.1-0.4,3.2c-0.1,1.1-0.3,2.6-0.5,3.9L90,37.9
				c0,1-0.3,2-0.4,2.9c0,0.1,0,0.1,0,0.2l-0.6-0.5c-1.7-1.3-3.5-2.3-5.4-3.2c-2.4-1-4.8-1.9-7.3-2.7c-3.1-1-6.3-1.8-9.5-2.3
				c-1.6-0.3-3.2-0.6-4.8-0.8c-1.7-0.2-3.5-0.4-5.2-0.5c-1.2,0-2.5-0.2-3.7-0.3c-3.2-0.2-6.3,0-9.5,0c-1.5,0-2.9,0.2-4.4,0.3
				s-2.1,0.2-3.2,0.3l-3.2,0.4c-1.6,0.3-3.2,0.5-4.7,0.8s-3.2,0.6-4.5,1c-1.4,0.4-4,1.1-6,1.8c-2.8,0.9-5.5,2.1-8,3.5
				c-1.1,0.6-2.2,1.3-3.2,2.1l-0.2,0.1H5.9z M56.9,22.8l-0.6,0.3c-1.4,0.6-2,2.2-1.4,3.6c0.2,0.3,0.4,0.6,0.6,0.9
				c0.4,0.3,0.8,0.6,1.2,0.9c1.4,0.7,2.9,1,4.4,1c1.2,0.1,2.4-0.2,3.6-0.6c1.1-0.4,1.9-1.4,2.3-2.5c0.5-1.1,0.2-2.4-0.7-3.2
				c-0.5-0.5-1.2-0.8-1.9-1l-2.2-0.6c-0.7-0.2-1.4-0.3-2.1-0.6s-0.5-0.3-0.2-0.8c1,0.2,2,0.2,3,0c2.1-0.2,3.6-2,3.5-4v-0.9l1,0.3
				l2.1-2.4h-0.3c-2.2-0.8-4.5-1.3-6.8-1.7c-1.3-0.2-2.6-0.2-3.8,0.2c-1.2,0.3-2.2,1.2-2.7,2.3c-0.7,1.7-0.4,3.7,1,5.1
				c0.1,0.1,0.2,0.2,0.3,0.2c-1.1,0.6-1.5,2-0.9,3.2C56.6,22.5,56.7,22.7,56.9,22.8z M24.2,25.3l-7.9-13.9c-1.7,0.6-3.3,1.3-4.9,2
				c-0.2,0.1-0.3,0.3-0.3,0.4c0,1.2-0.3,2.5-0.5,3.7l-0.8,5.8L9,30.1v1l4-2.1l0.4-3.5c1.6-0.7,3.2-1.3,4.8-1.8l1.5,2.8L24.2,25.3z
				 M42,22.7h4.2c0,0,0-0.3,0-0.4c0-2.2,0-4.4,0-6.6c0-0.5,0.2-1,0.6-1.2c0.5-0.4,1.1-0.5,1.7-0.4c0.7,0.1,1.3,0.7,1.2,1.4l0,0v0.7
				c0,1.9,0,3.9,0,5.8c0,0.2,0,0.4,0,0.7l4.2,0.2v-2.7c0-1.9,0-3.8,0-5.7c0-2-1.5-3.7-3.4-3.9c-0.6-0.1-1.3-0.1-1.9,0
				c-1,0.1-1.9,0.5-2.6,1.2v-0.9c-1.5,0-2.8,0-4.3,0.2L42,22.7z M25.1,13.3l-4.2,1.1l0.4,0.7l5.4,9.2c0.2,0.3,0.3,0.7,0.2,1
				c-0.3,1.3-0.6,2.5-0.9,3.8c0,0.6-0.3,1.2-0.4,1.9l4.1-0.9l4.5-18.4l-4.5,0.6c-0.5,2.4-0.9,4.8-1.4,7.1l0,0L25.1,13.3z M78.8,22.4
				c0.2-1,0.3-2.1,0.3-3.2c0-0.9-0.2-1.8-0.6-2.6c-0.7-1.4-2-2.4-3.6-2.8c-1.7-0.6-3.6-0.3-5,0.9c-2.4,2-3.1,5.5-1.5,8.2
				c0.8,1.3,2,2.3,3.5,2.7c1.2,0.4,2.5,0.6,3.8,0.7c0.7,0.1,1.4,0.1,2.1,0l0.3-2.8l-3.2-0.4c-1-0.2-1.9-0.5-2.7-1.1
				c-0.5-0.4-0.8-0.9-0.9-1.5C73.8,21.1,76.3,22,78.8,22.4L78.8,22.4z M87.3,22.8l1.2-3.2c-1.1-1-2.7-1.2-4.1-0.7v-1.1l-3.6-1.5
				c-0.4,3.9-0.8,7.6-1.3,11.4l3.4,1.2c0-0.1,0-0.2,0-0.3l0.8-5.9c0-0.6,0.5-1,1-1l0,0c0.4,0,0.8,0.1,1.2,0.3
				c0.4,0.2,0.8,0.4,1.1,0.7L87.3,22.8z M39.6,11.1l-4.5,0.4l0.4,11.9l4.4-0.4C39.9,19,39.6,15,39.6,11.1z M37.3,6.1
				c-0.5,0-1,0.1-1.4,0.4c-0.6,0.4-1,1.1-1,1.8c0,0.8,0.5,1.4,1.2,1.7c0.9,0.3,1.9,0.1,2.7-0.5c0.6-0.5,0.9-1.3,0.7-2
				c-0.3-0.9-1.2-1.6-2.1-1.5V6.1z"/>
			<path id="Path_31359" class="st3" d="M89.5,44.5c0,0.7-0.2,0.9-0.9,0.9c-0.8,0-1.5-0.2-2.3-0.4l-7.1-2.2l-3.2-1
				c-0.6-0.2-1.3-0.4-2-0.5c0.1,0.2,0.1,0.4,0.2,0.6c0.9,2.6,1.3,5.2,1.4,7.9c0.1,2.6,0,5.2-0.4,7.7c-0.4,2.4-1.1,4.8-2.1,7
				c-1.6,3.6-4,6.8-6.9,9.3c-2.3,1.9-4.9,3.4-7.8,4.4c-2.7,1-5.4,1.5-8.3,1.7c-2.3,0.2-4.5,0.1-6.8-0.2c-2.1-0.3-4.1-0.8-6.1-1.5
				c-3.4-1.2-6.6-3.1-9.3-5.5c-1.2-1.1-2.2-2.3-3.2-3.6c-1.7-2.6-3-5.4-3.8-8.4c-0.6-2.2-1-4.5-1.1-6.8c-0.1-2.1-0.1-4.2,0.2-6.3
				c0.2-1.3,0.4-2.7,0.7-4c0.2-0.7,0.4-1.5,0.6-2.3l-2,0.7l-3.9,1.3c-2.2,0.7-4.4,1.5-6.7,2c-0.7,0.2-1.4,0.3-2.1,0.2
				c-0.4,0-0.7-0.2-0.8-0.6c0-0.6,0.3-1.2,0.7-1.6c0.9-0.9,2-1.7,3.2-2.3c3-1.8,6.2-3.1,9.5-4.1c1.7-0.5,3.5-1,5.2-1.5
				c1.8-0.4,4.2-0.9,6.3-1.3c1.5-0.3,2.9-0.5,4.4-0.7l2.7-0.3c1.6,0,3.2-0.3,4.8-0.3c2.4,0,4.8,0,7.2,0c1.4,0,2.8,0,4.2,0
				s3.2,0.3,4.7,0.5c1.5,0.2,2.2,0.2,3.3,0.4l4.5,0.8c2.5,0.5,4.9,1.1,7.3,1.8c2.5,0.7,4.9,1.6,7.2,2.6c2,0.8,3.9,1.8,5.6,2.9
				c0.8,0.5,1.5,1.1,2.1,1.9C89.2,43.9,89.4,44.2,89.5,44.5z M70.6,67.4L70.6,67.4c1.7-2.7,2.9-5.6,3.5-8.7l0,0c0-1,0.3-2,0.4-3.2
				c0.2-1.4,0.3-2.8,0.2-4.2v-2c0-0.5,0-0.9,0-1.4c-0.2-1.2-0.4-2.4-0.6-3.7c0-0.3-0.2-0.5-0.5-0.6c-0.9-0.3-1.8-0.8-2.7-1
				c-0.9-0.3-2.6-0.7-3.9-1.1c-1.3-0.4-1.2-0.7-1-1.7c0.5-0.4,1.1-0.6,1.7-0.5c1.1,0,2.1,0.2,3.2,0.4c3.2,0.7,6.1,1.7,9.1,2.7
				c2.6,0.9,5.2,1.7,7.9,2.3c0.4,0.1,0.9,0.1,1.4,0c0-0.1,0-0.2,0-0.3c-0.4-0.7-1-1.4-1.7-1.8h-0.3L82,41.1
				c-3.4-1.1-6.8-2.3-10.2-3.2c-1.5-0.4-3.1-0.5-4.7-0.5h-0.5L67,35h-0.5h-0.2l-3.9-0.6c-1.8-0.3-3.6-0.5-5.4-0.7s-3.5-0.3-5.2-0.4
				c-2.6,0-5.3,0-7.9,0c-1.6,0-3.2,0.2-4.8,0.3c-1,0-2.1,0-3.2,0.3c-1.9,0.3-3.7,0.5-5.6,0.9c-0.6,0.1-1.1,0.2-1.6,0.3h-0.4
				c0,0.9,0.3,1.6,0.3,2.4c-0.6,0-1.3,0-1.9,0c-1.4,0.1-2.9,0.4-4.3,0.8c-3.2,0.8-6.2,1.9-9.2,2.8c-1.5,0.4-2.9,1-4.4,1.3
				c-0.9,0.3-1.7,0.9-2.2,1.6c-0.2,0.2-0.3,0.6-0.2,0.9c0.5,0.1,1,0.1,1.5,0c1.6-0.4,3.2-0.8,4.9-1.3l8.2-2.6
				c1.9-0.7,3.9-1.2,5.8-1.5c0.9-0.2,1.8-0.1,2.6,0.3c0.3,1.1,0,1.3-0.7,1.6c-0.3,0.1-0.7,0.3-1,0.3c-1.9,0.4-3.8,1.1-5.7,1.8
				c-0.3,0.1-0.5,0.4-0.6,0.7c-0.5,2.1-0.7,4.2-0.8,6.3c-0.1,1.2-0.1,2.4,0,3.6l0.2,2.4c0,0.2,0,0.3,0,0.5c0.5,3.3,1.5,6.5,3.2,9.5
				c0.4,0.7,0.9,1.4,1.4,2.1l0.2,0.3c0.9,1.2,2,2.4,3.2,3.4l1.9,1.5l0.8,0.6c2.4,1.7,5.2,2.9,8,3.6c1.1,0.3,2.2,0.4,3.2,0.6
				c1,0.2,1.9,0.3,2.9,0.3c2.7,0.2,5.4,0,8.1-0.6c4-0.8,7.7-2.5,10.9-4.9c1.2-0.8,2.2-1.8,3.2-2.9c0.9-1,1.7-2,2.4-3.2L70.6,67.4z
				 M73.1,40.9l-3.2-0.7c-0.8-0.2-1.7-0.3-2.6-0.3c-0.3,0-0.6,0.1-0.9,0.3c-0.2,0.2-0.2,0.5,0,0.6c0.3,0.1,0.6,0.3,0.9,0.3
				c1.7,0.4,3.4,0.9,5.1,1.5l1.3,0.5C73.6,42.4,73.4,41.6,73.1,40.9L73.1,40.9z M22,43.1L22,43.1c1.6-0.7,3.2-1.2,4.9-1.6
				c0.6,0,1.3-0.3,1.9-0.6c0.6-0.2,0.4-0.2,0.3-0.4c-0.1-0.2-0.2-0.3-0.3-0.4c-0.4-0.1-0.9-0.1-1.3,0c-1.2,0.2-2.3,0.5-3.5,0.7
				c-0.6,0-1.1,0.3-1.7,0.5L22,43.1z"/>
			<path id="Path_31360" class="st4" d="M4.7,36.4c-0.6,2.1-1.1,4.2-1.5,6.3c-0.5,3.1-0.7,6.3-0.7,9.5c0,6.8,1.3,13.6,4,19.8
				c2.1,4.8,5,9.3,8.7,13c4.5,4.4,9.9,7.8,15.8,9.8c3.3,1.2,6.7,2,10.2,2.4c1.7,0.2,3.4,0.3,5.1,0.4c2.1,0.1,4.2,0,6.3-0.2
				c5.6-0.4,11.1-1.9,16.2-4.3c9.5-4.5,16.9-12.4,20.7-22.1c1.5-3.7,2.5-7.6,3-11.5c0.3-2,0.4-4.1,0.5-6.2c0.1-2.9-0.1-5.8-0.4-8.6
				c-0.3-2.8-1-5.7-1.8-8.4l0,0l0.2-1.9l0,0c0.4,1.4,0.8,2.8,1.2,4.2c0.5,1.8,0.8,3.7,1,5.6c0.2,1,0.2,2.1,0.3,3.2
				c0,1.7,0.2,3.4,0.2,5.1c0,1.7-0.2,3.3-0.3,5c-0.1,1.7-0.4,3.5-0.8,5.2c-0.3,1.5-0.7,3.2-1.1,4.6c-0.7,2.5-1.7,5-2.9,7.4
				c-1.3,2.7-2.9,5.2-4.7,7.5c-1.3,1.6-2.8,3.2-4.3,4.6c-1.9,1.8-4.1,3.4-6.3,4.7c-1.1,0.7-2.2,1.3-3.4,1.9
				c-3.5,1.8-7.3,3.1-11.1,3.9c-1.5,0.3-3,0.5-4.5,0.8c-1.7,0.3-3.4,0.4-5.1,0.4c-0.5,0-1.1,0-1.6,0c-1.9,0-3.8,0-5.7-0.3
				s-3.5-0.4-5.2-0.8c-2.7-0.6-5.4-1.4-8-2.4c-3.1-1.2-6-2.8-8.7-4.7c-1.3-0.9-2.5-1.9-3.6-2.9c-1.2-1-1.8-1.7-2.7-2.6
				c-2-2.1-3.7-4.5-5.2-7c-1.8-2.9-3.2-6-4.2-9.2c-0.8-2.2-1.3-4.4-1.7-6.7c-0.2-1.4-0.4-2.9-0.6-4.3c-0.2-1.4-0.2-2.7-0.3-4.1
				c0-0.7,0-1.4,0-2.1c0-1.8,0-3.6,0.3-5.4c0.3-2.8,0.8-5.6,1.5-8.3c0.3-0.9,0.5-1.8,0.8-2.7l0.2-0.4C4.6,35.2,4.6,35.8,4.7,36.4z"
				/>
			<path id="Path_31361" class="st5" d="M19.5,42l2-0.7c-0.2,0.8-0.4,1.5-0.6,2.3c-0.3,1.3-0.5,2.6-0.7,4c-0.3,2.1-0.3,4.2-0.2,6.3
				c0.1,2.3,0.5,4.5,1.1,6.7c0.8,3,2.1,5.8,3.9,8.3c0.9,1.3,2,2.5,3.2,3.6c2.6,2.5,5.7,4.5,9.1,5.7c2,0.7,4,1.2,6.1,1.5
				c2.2,0.3,4.5,0.4,6.8,0.2c2.8-0.2,5.6-0.7,8.3-1.7c2.8-1,5.4-2.5,7.8-4.4c3-2.5,5.5-5.7,7-9.3c1-2.3,1.7-4.6,2.1-7.1
				c0.4-2.6,0.5-5.2,0.3-7.7c-0.1-2.7-0.6-5.3-1.4-7.9c-0.1-0.2-0.1-0.4-0.2-0.6c0.7,0.1,1.3,0.3,2,0.6l0.6,2.4
				c0.4,1.7,0.6,3.4,0.7,5.1c0,1.2,0,2.4,0,3.5c-0.1,2.7-0.4,5.3-1.1,7.9c-0.7,3.1-2,6-3.7,8.7c-1.7,2.6-3.8,4.8-6.3,6.6
				c-2.4,1.8-5,3.1-7.8,4.1c-1.8,0.6-3.7,1-5.6,1.3c-2.1,0.3-4.2,0.4-6.3,0.3c-5.8-0.2-11.4-2-16.2-5.3C26.8,74.2,24,71,22,67.2
				c-2.2-4-3.4-8.5-3.6-13.1c-0.1-1.2-0.1-2.3,0-3.5c0.1-2.7,0.4-5.3,1.1-7.9C19.4,42.5,19.4,42.3,19.5,42z"/>
			<path id="Path_31362" class="st6" d="M48.7,93.1v-0.8l0.5-0.5l-0.3-4.4c-0.4-0.1-0.7-0.6-0.6-1h0.3l2.5-0.2c0.4,0,0.8,0,1.1,0
				c1,0.2,1.8,1.2,1.6,2.2c0,0,0,0,0,0c-0.1,0.4-0.2,0.7-0.5,1L52.7,90c0.5,0.5,1,1,1.5,1.5c0.2,0.2,0.5,0.3,0.8,0.3v0.8l-1.8,0.2
				c-0.2,0-0.3-0.2-0.4-0.3l-1.4-1.7c0-0.2-0.3-0.4-0.6-0.2v1.2l0.6,0.4v0.8L48.7,93.1z M50.5,89.3c0.4,0,0.7-0.1,1-0.2
				c0.4-0.1,0.6-0.6,0.5-1c0,0,0,0,0,0l0,0c0-0.4-0.4-0.7-0.8-0.7c0,0,0,0,0,0h-0.9L50.5,89.3z"/>
			<path id="Path_31363" class="st6" d="M16.7,78.7L16.4,79l-0.4,0.2l-1.1-1.6c0.3-0.9,0.6-1.6,0.9-2.5c0-0.2,0.2-0.4,0-0.6l-1,0.7
				v0.7l-0.7,0.4L12.5,74l0.6-0.5l0.6,0.2l1.9-1.1l1.8-1.2c0-0.7,0-0.7,0.7-1.1c0.7,1,1.4,2.1,2,3.2c0.3,0.8,0,1.8-0.7,2.3l-0.6,0.3
				c-0.6,0.1-1.2,0-1.7-0.3c-0.2,0.7-0.4,1.4-0.5,2.1C16.6,78.1,16.6,78.4,16.7,78.7z M16.7,73.8c0.2,0.3,0.4,0.5,0.7,0.8
				c0.3,0.3,0.8,0.3,1.1,0c0.4-0.2,0.5-0.7,0.3-1l0,0c-0.1-0.3-0.3-0.6-0.5-0.9L16.7,73.8z"/>
			<path id="Path_31364" class="st7" d="M76.6,78.5l1,0.9c0.7,0,0.7,0,1.2,0.4l-1.7,2.1l-0.6-0.5v-0.7c-1-0.9-2.1-1.8-3.2-2.7
				c-0.2-0.2-0.5,0-0.8,0l-0.5-0.5l0.5-0.6c0.5-0.6,1-1.2,1.6-1.8c0.2-0.2,0.4-0.4,0.6-0.5c0.6-0.4,1.3-0.4,1.9,0
				c0.7,0.3,1.1,1,1.1,1.8V77h1.4c0.5,0.1,1-0.1,1.3-0.4l0.7,0.5l-1.3,1.5l-3.2-0.2C76.8,78.5,76.7,78.3,76.6,78.5z M75.7,77.7
				c0.2-0.2,0.4-0.5,0.6-0.8c0.2-0.4,0.1-0.9-0.3-1.1c-0.3-0.3-0.7-0.3-1,0l0,0c-0.2,0.2-0.5,0.4-0.7,0.7L75.7,77.7z"/>
			<path id="Path_31365" class="st6" d="M41.8,92.7c-0.2-0.5,0.1-1,0.5-1.2l0,0l0.3-4.3c-0.5-0.6-0.5-0.6-0.4-1.3l3.4,0.3
				c0.2,0,0.5,0.1,0.7,0.3c0.8,0.4,1,1.4,0.6,2.1c-0.1,0.1-0.2,0.2-0.3,0.3c-0.1,0.1-0.2,0.3-0.4,0.4c0.5,0.3,0.9,0.8,0.9,1.4
				c0.2,0.8-0.3,1.7-1.1,1.9c-0.2,0.1-0.5,0.2-0.7,0.2L41.8,92.7z M44.1,90.1l-0.1,1.5h1c0.2,0,0.4-0.2,0.4-0.4c0-0.6,0-1.2-0.8-1.2
				C44.6,90,44.3,90,44.1,90.1L44.1,90.1z M44.4,87.2v1.5c0.5,0,0.9,0.2,1.2-0.3c0.2-0.3,0.2-0.6,0-0.9
				C45.3,87.3,44.8,87.2,44.4,87.2L44.4,87.2z"/>
			<path id="Path_31366" class="st6" d="M64.4,82.5l2.3-1.1l0.3,0.6l-0.3,0.7c0.4,0.9,0.8,1.8,1.3,2.7c0.7,1.2,0.3,2.6-0.9,3.3
				c0,0,0,0,0,0l0,0c-0.7,0.5-1.5,0.7-2.3,0.6c-0.8,0-1.5-0.5-1.8-1.3c-0.4-0.8-0.8-1.6-1.1-2.5c0-0.2-0.2-0.3-0.3-0.5h-0.7
				l-0.3-0.6l1.2-0.6l1.3-0.6l0.3,0.6l-0.3,0.6l1.3,2.8c0.2,0.6,0.9,0.9,1.5,0.7H66c0.6-0.2,1-0.8,0.8-1.5c0,0,0,0,0,0
				c0,0,0,0,0-0.2c-0.4-0.9-0.8-1.7-1.2-2.6c0,0-0.2-0.3-0.3-0.3S64.6,83,64.4,82.5z"/>
			<path id="Path_31367" class="st6" d="M31.6,82.8l1.7,0.8c0,1.7-0.2,3.3-0.3,5c-0.1,0.5,0,0.9,0.2,1.4c0.2,0.3,0,0.6-0.2,0.9
				l-2.5-1.1c0-0.4,0.3-0.9,0.8-0.9V88l-2-0.9l-0.5,0.5l0.3,0.6L28.8,89l-2.4-1.1l0.3-0.7c0.5-0.1,0.9-0.3,1.2-0.7L31.6,82.8z
				 M31.6,84.6l-1.5,1.6l1.3,0.6L31.6,84.6z"/>
			<path id="Path_31368" class="st6" d="M58.3,91.8l-2.4,0.6c-0.3-0.3-0.3-0.8,0-1.1c0-0.2,0-0.3,0-0.5c0.2-1.5,0.3-2.9,0.5-4.4
				c0-0.4,0-0.8,0-1.2l1.8-0.4l0.4,0.5l2.6,3.7c0.3,0.4,0.5,0.8,1,0.9l0.2,0.7l-2.7,0.7c-0.3-0.6-0.3-0.7,0-1.2l0.1-0.6l-2.1,0.5
				v0.7c0.4,0,0.8,0.4,0.8,0.8c0,0,0,0,0,0C58.5,91.8,58.4,91.8,58.3,91.8z M57.7,88.9l1.4-0.4l-1.2-1.8L57.7,88.9z"/>
			<path id="Path_31369" class="st7" d="M27.5,81.8c-0.3-0.4-0.2-0.9,0.2-1.1l0,0l2.3,1.6l-0.3,0.5h-0.2c-0.5-0.1-1,0.1-1.4,0.4
				l-3.8,2.6l-0.5,0.3l-1.5-1c0-0.2,0-0.3,0-0.4c0.4-1.5,0.9-3.2,1.4-4.7c0.2-0.4,0.2-0.8,0-1.2l0.4-0.6l2.3,1.6
				c-0.3,0.6-0.3,0.6-1,0.7l-1.1,3.7l0,0L27.5,81.8z"/>
			<path id="Path_31370" class="st7" d="M79.8,69.3c0,0.4-0.3,0.6-0.7,0.7c-0.2,0-0.4,0.2-0.5,0.3c-0.2,0.3-0.3,0.7-0.5,1l1.3,0.8
				c0.3-0.2,0.4-0.6,0.3-0.9c0-0.2,0-0.5,0-0.8l1.9,1.1l-0.3,0.5c-0.3,0-0.5,0.1-0.8,0.2c0,0-0.2,0.3-0.3,0.4l1.5,0.9l0.9-1.5
				l-0.3-0.7l0.3-0.5l1.5,0.9L82,75.8l-0.7-0.4v-0.7l-4-2.1l-0.6,0.2l-0.7-0.2l2.4-4.1L79.8,69.3z"/>
			<path id="Path_31371" class="st7" d="M71.5,86.3L71,85.7c0.2-0.4,0.1-0.9-0.2-1.1c-0.8-0.9-1.5-2-2.2-2.9h-0.7L67.4,81l3.8-2.9
				l1,1.3c-0.2,0.3-0.5,0.4-0.9,0.3c-0.2-0.1-0.5,0-0.7,0.2l-0.8,0.6l0.9,1.2c0.3-0.2,0.6-0.3,0.6-0.7c0-0.4,0.3-0.4,0.5-0.6
				l1.3,1.7l-0.5,0.4l-0.7-0.2l-0.5,0.3l1.1,1.4l1.4-1.1v-0.9l0.5-0.4l1.1,1.4L71.5,86.3z"/>
			<path id="Path_31372" class="st6" d="M11.6,69.3L11.4,70l-0.7,0.3l-1.1-2.5l0.7-0.3l0.6,0.3l4-1.7l0.2-0.7l0.7-0.3l0.2,0.4
				c0.3,0.7,0.6,1.4,0.9,2c0.1,0.3,0.2,0.7,0.3,1.1c0.2,1.1-0.5,2.2-1.6,2.4h-0.3c-0.9,0.1-1.8-0.3-2.2-1.1c0-0.3-0.3-0.6-0.5-1
				L11.6,69.3z M15.6,67.6l-1.8,0.8c0.3,0.9,0.8,1.4,1.6,1S16.2,68.6,15.6,67.6L15.6,67.6z"/>
			<path id="Path_31373" class="st7" d="M35.1,91.3l0.2-0.7l0.7-0.3l1-4.2l-0.9-0.2l-0.7,0.8l-0.9-0.3l0.5-2.1l6.3,1.6l-0.5,2.1
				l-1-0.3l-0.2-1l-1-0.2l-1,4.2l0.5,0.4L38.1,92L35.1,91.3z"/>
			<path id="Path_31374" class="st7" d="M79.9,67.5l-0.5,0.3l-0.6-0.3l1-2.6l0.7,0.3V66l4,1.6l0.5-0.3l0.8,0.3L85,70
				c-0.4,0-0.8-0.2-0.9-0.7c-0.1-0.1-0.2-0.2-0.3-0.3L79.9,67.5z"/>
			<path id="Path_31375" class="st7" d="M21.4,76.5v-0.7l0.6-0.5l0.9,0.9c0.3,0.3,0.7,0.6,1.1,0.9l-0.8,0.6h-0.5l-3.2,3v0.7
				l-0.7,0.6l-1.9-2l0.5-0.5h0.7L21.4,76.5z"/>
			<path id="Path_31376" class="st8" d="M56.9,22.8c-0.8-0.9-0.8-2.3,0-3.2c0.2-0.2,0.3-0.3,0.5-0.4L56.9,19
				c-1.4-1.4-1.8-3.4-0.9-5.2c0.5-1.1,1.5-2,2.7-2.3c1.2-0.3,2.5-0.4,3.8-0.2c2.3,0.4,4.6,0.9,6.8,1.6h0.3l-2.1,2.4L66.5,15v0.9
				c0.3,2.1-1.2,4.1-3.4,4.3c0,0-0.1,0-0.1,0c-1,0.2-2,0.2-3,0c-0.3,0.4-0.3,0.6,0.2,0.8l2.1,0.6c0.7,0.2,1.5,0.4,2.2,0.6
				c0.7,0.2,1.3,0.5,1.8,1c0.8,0.8,1.1,2.1,0.7,3.2c-0.3,1.1-1.2,2-2.2,2.5c-1.1,0.5-2.4,0.7-3.6,0.6c-1.5,0-3.1-0.4-4.4-1.1
				c-0.4-0.2-0.8-0.5-1.1-0.8c-1.1-1.1-1.1-2.8,0-3.8c0,0,0,0,0,0c0.2-0.2,0.5-0.4,0.9-0.6L56.9,22.8z M61.3,17.5
				c0.9,0.1,1.6-0.6,1.7-1.5c0,0,0,0,0-0.1v-0.2c0.1-0.9-0.6-1.7-1.5-1.8h-0.2c-0.9,0.1-1.5,0.9-1.5,1.8l0,0
				C59.8,16.7,60.5,17.4,61.3,17.5L61.3,17.5z M62,26.5c0.3-0.1,0.7-0.2,1-0.3c0.4-0.1,0.6-0.5,0.5-0.9c-0.1-0.2-0.2-0.4-0.5-0.5
				c-0.3-0.1-0.5-0.3-0.8-0.3L59.9,24c-0.5-0.1-1,0.2-1.1,0.8c0,0,0,0,0,0l0,0c0,0.5,0.3,1,0.8,1.1C60.3,26.3,61.1,26.4,62,26.5
				L62,26.5z"/>
			<path id="Path_31377" class="st8" d="M24.2,25.3l-4.4,1.2l-1.5-2.8c-1.6,0.5-3.2,1.1-4.8,1.8L13,29l-4.2,2.1c0-0.3,0-0.7,0-1
				c0.3-2.2,0.6-4.5,0.9-6.7s0.5-3.9,0.8-5.8c0-1.2,0.3-2.5,0.5-3.7c0-0.2,0.1-0.4,0.3-0.4c1.6-0.8,3.2-1.4,4.9-2.1L24.2,25.3z
				 M13.9,21.6l2.8-1.1l-2.1-3.7c0,0-0.2,0.2-0.2,0.3C14.3,18.6,14.2,20.1,13.9,21.6z"/>
			<path id="Path_31378" class="st8" d="M42,22.8L41.7,11c1.4-0.2,2.8,0,4.2-0.2v0.9c0.7-0.7,1.6-1.1,2.6-1.2c0.6-0.1,1.3-0.1,1.9,0
				c2,0.2,3.5,1.9,3.4,3.9c0,1.9,0,3.8,0,5.7v2.7l-4.2-0.2c0-0.2,0-0.4,0-0.7c0-2,0-3.9,0-5.8v-0.7c0.1-0.7-0.5-1.4-1.2-1.4l0,0
				c-0.6-0.1-1.2,0-1.7,0.4c-0.4,0.3-0.7,0.8-0.6,1.3c0,2.2,0,4.4,0,6.6c0,0,0,0.2,0,0.4L42,22.8z"/>
			<path id="Path_31379" class="st8" d="M25.1,13.3l3.2,6.3l0,0c0.5-2.4,0.9-4.7,1.4-7.2l4.5-0.7l-4.5,18.2l-4.1,0.9
				c0-0.7,0.3-1.3,0.4-1.9c0.3-1.3,0.6-2.5,0.9-3.8c0.1-0.3,0-0.6-0.2-0.9l-5.6-9.2l-0.4-0.7L25.1,13.3z"/>
			<path id="Path_31380" class="st8" d="M78.8,22.4c-2.6-0.6-5-1.4-7.5-2c0.1,0.6,0.4,1.2,0.9,1.6c0.8,0.6,1.8,1,2.8,1.2
				c1,0.2,2,0.3,3,0.4l-0.3,2.8c-0.7,0.1-1.4,0.1-2,0c-1.3-0.1-2.5-0.3-3.7-0.7c-1.5-0.4-2.7-1.4-3.5-2.7c-1.5-2.8-0.8-6.2,1.5-8.2
				c1.4-1.2,3.3-1.5,5.1-0.9c1.5,0.4,2.8,1.4,3.5,2.8c0.4,0.8,0.6,1.7,0.6,2.6C79.1,20.3,79,21.4,78.8,22.4z M75.7,19.3
				c0.3-1-0.2-2.1-1.2-2.5h-0.2c-1-0.3-2,0.2-2.4,1.2c0,0,0,0,0,0v0.4L75.7,19.3z"/>
			<path id="Path_31381" class="st8" d="M87.3,22.8l-1.1-0.7c-0.3-0.2-0.7-0.3-1-0.3c-0.6,0-1.1,0.4-1.1,1c0,0,0,0,0,0l0,0l-0.8,5.9
				V29l-3.4-1.2l1.3-11.4l3.5,1.5v1.1c1.3-0.3,2.7,0,3.6,0.9L87.3,22.8z"/>
			<path id="Path_31382" class="st8" d="M39.6,11.1c0,4,0.2,7.9,0.3,11.9l-4.4,0.4l-0.4-11.9L39.6,11.1z"/>
			<path id="Path_31383" class="st8" d="M37.3,6.1c1-0.1,1.9,0.5,2.1,1.5c0.2,0.7,0,1.6-0.6,2c-0.7,0.6-1.8,0.8-2.7,0.4
				c-0.7-0.2-1.2-0.9-1.2-1.7c0-0.7,0.3-1.5,1-1.8C36.3,6.2,36.8,6.1,37.3,6.1z"/>
			<path id="Path_31384" class="st9" d="M65.8,39.8c-0.2,1,0,1.4,1,1.7c1,0.3,2.6,0.7,3.9,1.1s1.8,0.7,2.7,1
				c0.3,0.1,0.5,0.3,0.5,0.6c0.2,1.2,0.4,2.4,0.6,3.7c0,0.4,0,0.9,0,1.4H74c-1.6-0.4-3.3-0.4-4.9,0.2c-1.2,0.4-2.3,1-3.2,1.9h-9.8
				c-0.3,0-0.4,0.2-0.5,0.3l-3.5,3.5h-1.5c0-0.2,0-0.4,0-0.6v-8.3c0.3,0,0.4-0.2,0.3-0.4c-0.1-0.2,0-0.6,0.2-0.8
				c0.1-0.1,0.2-0.3,0.2-0.4c0.2-1.1-0.3-2.2-1.3-2.7l-0.9-0.6c-0.6-0.4-1-0.9-1.2-1.5c0,0,0-0.3,0-0.5c0-0.2,0-0.3,0-0.5
				c0-0.2,0-0.5,0-0.9h0.4c0,0,0-0.2,0-0.3h-0.4v-0.4c-0.3,0-0.2,0.3-0.3,0.4l-0.6,0.3l0.7,0.3l-0.3,1.1l0.2,0.3l-0.2,0.7v0.2l0,0
				c-0.4,0.5-0.9,1-1.5,1.3l-0.6,0.3c-1.1,0.7-1.5,2.2-0.8,3.3c0.1,0.2,0.1,0.3,0,0.5c0,0.3,0,0.4,0.3,0.4v9.3l-0.5-0.3
				c-1.3-1-3-1.3-4.5-0.7c-0.3,0-0.4-0.5-0.8-0.5h-0.3V54c-0.2-1.2-0.7-2.3-1.6-3.2c-1.2-1.3-2.9-2-4.6-1.8c-2.2,0-4.1,1.2-5.1,3.2
				c-0.2,0.3-0.3,0.7-0.5,1l0,0h-0.2c-1.4-0.7-3.1-0.6-4.5,0.2c-0.5,0.3-0.9,0.7-1.4,1c-0.1-1.2-0.1-2.4,0-3.6
				c0.1-2.1,0.3-4.2,0.8-6.3c0.1-0.3,0.3-0.6,0.6-0.7c1.8-0.8,3.7-1.4,5.7-1.8c0.4-0.1,0.7-0.2,1-0.3c0.7-0.3,1.1-0.5,0.7-1.6
				l-0.7-4.8c0.4-0.2,0.8-0.3,1.2-0.5c1.9-0.3,3.7-0.6,5.6-0.9c1,0,2.1-0.2,3.2-0.3c1.6,0,3.2-0.3,4.8-0.3h7.9
				c1.7,0,3.5,0.2,5.2,0.4c1.7,0.2,3.6,0.4,5.4,0.7l3.9,0.6h0.2l-0.4,2.1C66.2,38.1,66,38.9,65.8,39.8z"/>
			<path id="Path_31385" class="st1" d="M68.1,70.7c-0.9,1.1-2,2.1-3.2,2.9c-3.2,2.5-6.9,4.1-10.9,4.9C51.4,79,48.7,79.1,46,79
				c-0.9,0-1.9-0.2-2.9-0.3c1.2-3.1,3-5.9,5.5-8.1h5v0.7h6v-0.7h7.5L68.1,70.7z"/>
			<path id="Path_31386" class="st10" d="M48.5,70.6c-2.4,2.3-4.3,5.1-5.4,8.1c-1.1-0.2-2.2-0.3-3.2-0.6c-2.9-0.7-5.6-2-8-3.6
				l-0.8-0.6c1.9-2.3,4.1-4.3,6.6-5.8c0.2-0.1,0.5-0.2,0.7-0.2h6v-1l0,0h3.3v-5.7h0.8c0,1.4,0,2.8,0,4.2L48.5,70.6z"/>
			<path id="Path_31387" class="st11" d="M56.2,51.4h18.5c0.1,1.4,0,2.8-0.2,4.2c-0.2,1-0.3,2-0.4,3.2l0,0v-0.3
				c-0.7,0.3-1.3,0.7-1.8,1.2c-0.7,0.7-1.2,1.4-1.7,2.3h-2.1c-0.2,0-0.4,0-0.6,0l0.3-0.5l-0.9-0.8l-3.2-2.6l-3.2-2.5l-3.2-2.5
				L56.2,51.4z"/>
			<path id="Path_31388" class="st12" d="M20.9,54.1c0.4-0.4,0.9-0.7,1.3-1c1.4-0.8,3.1-0.9,4.5-0.2h0.2l0,0c0.2-0.3,0.3-0.7,0.5-1
				c1-1.9,2.9-3.1,5.1-3.2c3.1-0.2,5.8,1.9,6.3,4.9c0,0.2,0,0.3,0,0.5H25.1c-0.4,0-0.9,0.1-1.2,0.4c-0.8,0.7-1.7,1.4-2.6,2.1
				L21,56.4L20.9,54.1z"/>
			<path id="Path_31389" class="st8" d="M44.4,66.8v1h-6c-0.3,0-0.5,0.1-0.7,0.2c-2.5,1.5-4.8,3.5-6.7,5.8l-1.8-1.5
				c-1.2-1-2.2-2.2-3.2-3.4l-0.2-0.3c1-0.2,1.8-0.8,2.5-1.6c0.1-0.1,0.2-0.2,0.3-0.3L44.4,66.8L44.4,66.8z"/>
			<path id="Path_31390" class="st0" d="M28.8,35l0.8,4.8c-0.8-0.4-1.7-0.6-2.6-0.3c-2,0.4-3.9,0.9-5.8,1.6L13,43.7
				c-1.6,0.5-3.2,0.9-4.9,1.3c-0.5,0.1-1,0.1-1.5,0c-0.1-0.3,0-0.6,0.2-0.8c0.5-0.8,1.3-1.4,2.2-1.6c1.5-0.3,2.9-0.9,4.4-1.3
				c3.2-1,6.1-2.1,9.2-2.8c1.4-0.4,2.8-0.6,4.3-0.8c0.6,0,1.2,0,1.9,0c0-0.8-0.3-1.6-0.3-2.4L28.8,35z"/>
			<path id="Path_31391" class="st13" d="M28.6,66.8l-0.3,0.3c-0.6,0.8-1.5,1.4-2.4,1.6c-0.5-0.7-1-1.4-1.4-2.1
				c-1.6-2.9-2.7-6.2-3.2-9.5c0-0.2,0-0.3,0-0.5l0.4,0.2L22,57c0.7,0.6,1.2,1.4,1.5,2.3c0,0.1,0.1,0.3,0.2,0.4c0.2,0,0.4,0,0.6,0
				c0.8-0.2,1.6,0,2.3,0.3c0.4,0.2,0.9,0.4,1.3,0.7c0,0.3,0.3,0.4,0.5,0.6c1.2,1.4,1.5,3.5,0.6,5.2C28.8,66.6,28.7,66.7,28.6,66.8z"
				/>
			<path id="Path_31392" class="st0" d="M65.9,39.8l0.4-2.7c0-0.7,0.2-1.5,0.3-2.2h0.5l-0.4,2.4h0.4c1.6,0,3.1,0.2,4.7,0.5
				c3.5,0.8,6.9,2,10.2,3.2l4.7,1.4c0.1,0,0.2,0,0.3,0c0.7,0.4,1.3,1,1.7,1.8v0.4c-0.4,0.1-0.9,0.1-1.4,0c-2.7-0.6-5.3-1.4-7.9-2.3
				s-6-2-9.1-2.7c-1-0.3-2.1-0.4-3.2-0.4C66.8,39.2,66.3,39.5,65.9,39.8z"/>
			<path id="Path_31393" class="st14" d="M67.9,61.7h0.6h2.1c0,0.2,0,0.3,0,0.4c-0.2,0.5-0.3,1-0.3,1.5c-0.2,1.3,0,2.5,0.5,3.7
				c-0.7,1.1-1.5,2.2-2.4,3.2h-0.9v-6.6c0-0.8,0-1.6,0-2.5L67.9,61.7z"/>
			<path id="Path_31394" class="st13" d="M70.5,67.4C70,66.3,69.9,65,70,63.7c0.1-0.5,0.2-1,0.3-1.5c0,0,0-0.3,0-0.4
				c0.5-0.8,1-1.6,1.7-2.3c0.5-0.5,1.1-0.9,1.8-1.2v0.3C73.3,61.7,72.1,64.7,70.5,67.4L70.5,67.4z"/>
			<path id="Path_31395" class="st8" d="M74.8,51.3h-8.6c0.9-0.9,2-1.6,3.2-1.9c1.6-0.6,3.2-0.6,4.8-0.2h0.5L74.8,51.3z"/>
			<path id="Path_31396" class="st0" d="M73,41.1c0.3,0.7,0.4,1.5,0.6,2.2l-1.1-0.7c-1.7-0.6-3.4-1.2-5.1-1.6
				c-0.3-0.1-0.6-0.2-0.9-0.3c-0.2-0.1-0.3-0.2-0.2-0.4c0,0,0,0,0,0c0-0.1,0-0.1,0-0.2c0.2-0.2,0.5-0.3,0.9-0.3c0.9,0,1.7,0,2.6,0.3
				L73,41.1z"/>
			<path id="Path_31397" class="st0" d="M22,43.1l0.4-2.1c0.5,0,1.1-0.3,1.7-0.5c1.1-0.3,2.3-0.5,3.5-0.7c0.4-0.1,0.9-0.1,1.3,0
				c0.2,0.1,0.3,0.2,0.3,0.3c0,0.3,0,0.4-0.3,0.4l-1.9,0.6C25.2,41.7,23.6,42.3,22,43.1L22,43.1z"/>
			<path id="Path_31398" class="st8" d="M50.5,89.3v-1.9h0.9c0.4,0,0.7,0.3,0.8,0.7c0.1,0.4-0.1,0.9-0.5,1l0,0
				C51.3,89.2,50.9,89.2,50.5,89.3z"/>
			<path id="Path_31399" class="st8" d="M16.7,73.8l1.5-1.1c0.2,0.2,0.3,0.5,0.5,0.8c0.2,0.3,0.1,0.8-0.2,1c0,0,0,0,0,0l0,0
				c-0.3,0.3-0.8,0.3-1.1,0L16.7,73.8z"/>
			<path id="Path_31400" class="st8" d="M75.7,77.7l-1.5-1.2l0.7-0.7c0.3-0.3,0.7-0.3,1,0c0,0,0,0,0,0l0,0c0.3,0.2,0.5,0.7,0.3,1.1
				L75.7,77.7z"/>
			<path id="Path_31401" class="st8" d="M44.1,90.1c0.2,0,0.4,0,0.6,0c0.7,0,0.9,0.6,0.8,1.2c0,0.2-0.2,0.4-0.4,0.4h-0.9V90.1z"/>
			<path id="Path_31402" class="st15" d="M44.4,87.2c0.4,0,0.9,0,1.1,0.4c0.2,0.3,0.2,0.6,0,0.9c-0.3,0.4-0.7,0.3-1.2,0.3L44.4,87.2
				z"/>
			<path id="Path_31403" class="st15" d="M31.7,84.6l-0.2,2.1l-1.3-0.6L31.7,84.6z"/>
			<path id="Path_31404" class="st15" d="M57.7,88.9l0.2-2.1l1.2,1.8L57.7,88.9z"/>
			<path id="Path_31405" class="st8" d="M15.6,67.6c0.5,1,0.4,1.5-0.3,1.8s-1.3,0-1.6-1L15.6,67.6z"/>
			<path id="Path_31406" class="st6" d="M61.3,17.5c-0.8,0-1.5-0.7-1.5-1.5v-0.2c-0.1-0.9,0.6-1.8,1.5-1.9l0,0
				c0.9-0.1,1.7,0.6,1.7,1.5c0,0,0,0,0,0v0.3c0.1,0.9-0.6,1.7-1.5,1.7L61.3,17.5z"/>
			<path id="Path_31407" class="st7" d="M62,26.5c-0.8,0-1.7-0.2-2.4-0.5c-0.5-0.2-0.8-0.6-0.8-1.1c0-0.5,0.5-0.9,1-0.9c0,0,0,0,0,0
				l0,0l2.4,0.5c0.3,0.1,0.5,0.2,0.8,0.3c0.4,0.1,0.6,0.5,0.4,0.8c0,0,0,0.1,0,0.1c-0.1,0.2-0.2,0.3-0.4,0.4L62,26.5z"/>
			<path id="Path_31408" class="st7" d="M13.9,21.7c0.2-1.6,0.4-3.2,0.6-4.5c0,0,0,0,0.2-0.3l2.1,3.7L13.9,21.7z"/>
			<path id="Path_31409" class="st7" d="M75.7,19.2l-3.9-1c0.1-1,1.1-1.7,2.1-1.6h0.4c1,0.3,1.6,1.3,1.4,2.3
				C75.7,19,75.7,19.2,75.7,19.2z"/>
			<path id="Path_31410" class="st16" d="M27.6,60.7c-0.4-0.3-0.8-0.5-1.3-0.7c-0.7-0.4-1.5-0.5-2.3-0.3h-0.7l-0.2-0.4
				c-0.2-0.9-0.7-1.8-1.4-2.4l-0.3-0.3c0.9-0.7,1.7-1.3,2.6-2.1c0.3-0.2,0.7-0.3,1.1-0.3h14c0,0.1,0,0.2,0,0.3l-2.7,2.2L32,60.2
				c-0.4,0.3-0.9,0.5-1.4,0.5C29.6,60.6,28.6,60.7,27.6,60.7z"/>
			<path id="Path_31411" class="st16" d="M67.9,61.7l-0.7-0.3l-0.3-0.3V61l-3.4-2.7l-0.8-0.6L61,56.3l-0.9-0.7L57,52.8l-0.6-0.5
				l-3.2,3.2l-0.6,0.7l-0.4,0.4l-2,2L50,58.7L47.8,61c-0.3,0-0.4-0.3-0.6-0.5l1-1.1l2.1-2.1l2.3-2.3l3.5-3.5
				c0.2-0.2,0.3-0.4,0.5-0.3l1.8,1.5l3.2,2.5l3.2,2.5l3.2,2.6l0.9,0.8L67.9,61.7z"/>
			<path id="Path_31412" class="st17" d="M47.4,40.2l0.3-0.7l-0.2-0.3l0.3-1.1L47,37.7l0.6-0.3c0,0,0-0.4,0.3-0.4v0.4h0.4
				c0,0,0,0.2,0,0.2h-0.4c0,0.3,0,0.6,0,0.9c0,0.3,0,0.4,0,0.5s0,0.3,0,0.5c0,0.3,0,0.5,0,0.8l0.9,2.3c0.4,0.8,0.5,1.7,0.2,2.5
				c0,0.3,0,0.6,0,0.9h-0.2c-0.1,0-0.3,0-0.4,0h-1.9c0-0.3-0.1-0.5-0.2-0.8c-0.5-0.8-0.5-1.8,0-2.6c0.3-0.6,0.6-1.1,0.9-1.7
				c0.1-0.2,0.1-0.5,0.2-0.7l0,0C47.3,40.2,47.5,40.3,47.4,40.2z"/>
			<path id="Path_31413" class="st11" d="M27.6,60.7c0.9,0,2,0,2.9,0c0.5,0,1-0.1,1.4-0.5l4.3-3.6l2.7-2.2c0-0.1,0-0.1,0-0.2
				c0.4,0,0.4,0.4,0.7,0.5L41,56l3,3l1.7,1.8l-0.6,0.4l-1-1c-0.3-0.2-0.5-0.5-0.8-0.7c0-0.3-0.2-0.3-0.4-0.3
				c-0.3-0.5-0.6-0.9-1.1-1.2l-0.3-0.4c0-0.1,0-0.1,0-0.2L40.2,56l-0.9-0.9l-0.3,0.4l-1.2,0.9l-5.9,4.8h-3.2l-0.3,0.1
				C27.9,61.1,27.6,61,27.6,60.7z"/>
			<path id="Path_31414" class="st14" d="M44.9,55.7v-9.5h1.6v10.7H47c-0.7,0.3-1.5,0.1-2.1-0.5L44.9,55.7z M46.3,50.5v-2.8
				c0-0.3-0.3-0.6-0.6-0.6c-0.2,0-0.4,0.3-0.4,0.7v2.4c0,0.1,0,0.2,0,0.3H46.3z"/>
			<path id="Path_31415" class="st18" d="M50.7,46.3v8.2c0,0.2,0,0.4,0,0.6v0.3c0,0.5-0.2,1-0.5,1.3h-1V46.3H50.7z M49.4,50.5h1
				v-2.9c0-0.3-0.2-0.5-0.5-0.5l0,0c-0.3,0-0.5,0.2-0.5,0.5L49.4,50.5L49.4,50.5z"/>
			<path id="Path_31416" class="st12" d="M44.9,55.7v0.6l-0.9,1.2V59l-3-3l-1.3-1.3c1.5-0.6,3.3-0.4,4.6,0.7L44.9,55.7z"/>
			<path id="Path_31417" class="st19" d="M50.7,46.3h-1.6c0-0.3,0-0.5,0-0.8c0.2-0.9,0.1-1.8-0.2-2.6c-0.3-0.7-0.6-1.5-0.9-2.3
				c-0.1-0.3-0.1-0.5-0.2-0.8c0.2,0.6,0.7,1.2,1.2,1.5c0.3,0.2,0.6,0.4,0.9,0.6c1,0.5,1.5,1.6,1.3,2.7c0,0.2-0.1,0.3-0.2,0.4
				c0,0.3-0.3,0.5-0.2,0.8S51,46.3,50.7,46.3z"/>
			<path id="Path_31418" class="st20" d="M47.4,40.4c0,0.2-0.1,0.5-0.2,0.7c-0.3,0.6-0.6,1.1-0.9,1.7c-0.5,0.8-0.5,1.8,0,2.6
				c0.1,0.3,0.2,0.5,0.3,0.8h-1.3H45l0,0c-0.2,0-0.4-0.2-0.4-0.4c0,0,0-0.1,0-0.1c0.1-0.2,0.1-0.3,0-0.5c-0.6-1.1-0.2-2.5,0.8-3.2
				l0.5-0.3C46.5,41.4,47,40.9,47.4,40.4z"/>
			<path id="Path_31419" class="st17" d="M49.1,56.9h1c0.4-0.3,0.6-0.8,0.5-1.3v-0.3h1.5l-2.3,2.3h-2.1v-1
				C48.2,56.6,48.6,56.9,49.1,56.9z"/>
			<path id="Path_31420" class="st20" d="M47.4,40.2c0,0,0,0.2,0,0.2V40.2z"/>
			<path id="Path_31421" class="st21" d="M66.8,61.1l0.4,0.3c0,0.8,0,1.6,0,2.4v6.8h-7.6c0-0.3,0-0.6,0-0.9s0-1.4,0-2.1l-1.8-1.7
				c0,0,0,0-0.2,0h-1.5l-1.1,0.8c-0.4-0.2-0.9-0.2-1.4,0h-0.5v2.5l0.6,0.3v-1.5c0-0.1,0-0.3,0-0.4h3.9v3.8h-3.9v-0.7h-5.2
				c0-1.7,0-3.4,0-5.2c0-1.7,0-2.8,0-4.2L66.8,61.1L66.8,61.1z M63.7,69.2H64l0,0c0.7,0.2,1.5,0.2,2.2,0v-2.5h-0.3
				c-0.1,0-0.2,0-0.3,0c-0.4-0.2-0.8-0.2-1.1,0H64h-0.3L63.7,69.2z M52.2,69.2v-2.4h-0.4c-0.5-0.3-1.1-0.3-1.6,0h-0.5V69
				c0,0.2,0,0.3,0.3,0.3c0.6,0.3,1.3,0.3,1.9,0l0,0L52.2,69.2L52.2,69.2z M62.3,66.8c-0.5-0.3-1.2-0.3-1.7,0h-0.5v2.5h0.3v0.2h1.7
				c0,0,0,0,0-0.2h0.4V68c0.1-0.4,0.1-0.8,0-1.3L62.3,66.8z M54.8,68.2h-0.4v2.6h0.4c0,0,0,0.2,0.2,0.2h1.5c0,0,0,0,0.2-0.2H57v-2.6
				h-0.3C56.1,68,55.5,68,54.8,68.2L54.8,68.2z M55.3,62.3c-0.5-0.4-1.3-0.4-1.8,0v2.6h1.8V62.3z M65.9,64.8v-2.3
				c0-0.2-0.1-0.4-0.3-0.5c-0.5-0.3-1.1-0.2-1.5,0.2v2.5L65.9,64.8z M51.8,64.8v-2.3c0-0.4-0.3-0.6-0.8-0.6c-0.5-0.1-1,0.2-1.1,0.5
				v2.5H51.8z M57,62.2v2.7c0.6,0,1.2,0,1.8,0v-2.6C58.3,61.9,57.6,61.9,57,62.2L57,62.2z M62.3,64.8v-2.6c-0.3-0.3-0.8-0.4-1.2-0.3
				c-0.4,0-0.6,0.4-0.6,0.7v1.4c0,0.2,0,0.5,0,0.7L62.3,64.8z"/>
			<path id="Path_31422" class="st14" d="M59.5,67.6c0,0.7,0,1.4,0,2.1v1.6h-1.9v-3.8H59.5z"/>
			<path id="Path_31423" class="st22" d="M31.8,61.2l5.9-4.8l1.2-0.9c0.6,0.6,1.1,1.1,1.6,1.7c0.3,0.3,0.7,0.5,1.1,0.4L42,58h-0.6
				c0.3,0.3,0.6,0.5,0.8,0.8c0.2,0.3,0.6,0.4,0.9,0.3c0.2,0,0.3,0,0.4,0.3H43l1.1,1.2c0.1,0.2,0.3,0.3,0.4,0.5v5.6H31.8V61.2z
				 M35,66.1h0.3c0.4,0.2,0.9,0.2,1.2,0l0,0h0.2l0,0v-1.4h-0.3c0-0.2,0-0.3-0.3-0.2s-0.7,0-0.9,0.2h-0.2
				C34.7,65.2,34.7,65.7,35,66.1L35,66.1z M35,61.9L35,61.9c0,0,0,0.8,0,1.1l0.3,0.2c0.4,0.2,0.9,0.2,1.2,0l0,0h0.2l0,0v-1.4h-0.3
				c0-0.2,0-0.3-0.3-0.2c-0.3,0-0.7,0-0.9,0.2L35,61.9z M38.9,66.3L38.9,66.3v-1.6h-0.3c0-0.2-0.2-0.3-0.3-0.2c-0.2,0-0.7,0-0.9,0.2
				s-0.3,0-0.3,0.2s0,0.8,0,1.1s0.3,0.2,0.4,0.2s0.7,0.2,1-0.2L38.9,66.3z M41.7,66.3L41.7,66.3h0.3c0,0,0,0.2,0.2,0.2
				c0.4,0.1,0.9,0,1.3-0.2c0-0.4,0-0.8,0-1.1c0-0.4,0-0.3-0.3-0.2c-0.1-0.1-0.2-0.2-0.4-0.2c-0.3,0-0.5,0-0.8,0c0,0,0,0,0,0.2h-0.3
				L41.7,66.3z M41.7,63.5H42c0,0,0,0.2,0.2,0.2c0.4,0.1,0.9,0,1.3-0.3c0-0.3,0-0.7,0-1.1c0-0.4,0-0.2-0.3-0.2
				c-0.3,0-0.2-0.3-0.4-0.3H42c0,0,0,0,0,0.2h-0.3L41.7,63.5z M39.5,66.4h0.3c0,0,0,0.2,0.2,0.2c0.4,0.1,0.9,0,1.3-0.2
				c0-0.4,0-0.8,0-1.1s0-0.3-0.3-0.2s-0.3-0.2-0.4-0.2c-0.3,0-0.5,0-0.8,0c0,0,0,0,0,0.2h-0.4v1.4L39.5,66.4z M39.5,63.6h0.3
				c0,0,0,0.2,0.2,0.2c0.4,0.1,0.9,0,1.3-0.3c0-0.3,0-0.7,0-1.1s0-0.2-0.3-0.2c-0.3,0-0.3-0.3-0.4-0.3h-0.8c0,0,0,0,0,0.2h-0.4v1.3
				L39.5,63.6z M39,63.6v-1.4h-0.3c0-0.2-0.2-0.3-0.3-0.3s-0.7,0-0.9,0.3c-0.3,0.3-0.3,0-0.3,0.2c0,0.2,0,0.8,0,1.1s0.3,0.2,0.4,0.2
				s0.8,0.2,1.1-0.2L39,63.6L39,63.6z M33,66.4c0,0,0.2,0.2,0.3,0.2c0.4,0.1,0.9,0,1.2-0.2v-1.6h-0.3c-0.3-0.3-0.9-0.4-1.3,0
				c0,0,0,0,0,0c0,0-0.3,0-0.3,0.2v1c0,0.2,0.2,0.2,0.3,0.2V66.4z M33,63.6c0,0,0.2,0.2,0.3,0.2c0.5,0,0.9-0.3,1.2-0.6v-1.4h-0.3
				c-0.3-0.3-0.9-0.4-1.3,0c0,0,0,0,0,0c0,0-0.3,0-0.3,0.2v1.2c0,0.2,0.2,0.2,0.3,0.2V63.6z M39.5,58.7h-2.7v0.6h-0.4v1.1h3.8v-1.1
				h-0.5L39.5,58.7z"/>
			<path id="Path_31424" class="st14" d="M44.4,66.7v-5.4h0.9l0.6-0.4L44.1,59v-1.5h3.5v2.1l-1,1.1c0.2,0.2,0.3,0.5,0.6,0.5h0.4v5.5
				H44.4z"/>
			<path id="Path_31425" class="st11" d="M47.8,61.2h-0.4l2.2-2.3l1,0.2l-0.3,0.3c-0.4,0.4-0.9,0.9-1.3,1.3l-0.3,0.5
				C48.6,61.2,47.8,61.2,47.8,61.2z"/>
			<path id="Path_31426" class="st14" d="M31.8,61.2v5.6h-3.2c0-0.1,0-0.2,0-0.3c0.9-1.7,0.6-3.7-0.6-5.2h0.6L31.8,61.2z"/>
			<path id="Path_31427" class="st23" d="M48.6,61.1l0.3-0.5l1.3-1.3l0.3-0.3l-0.9-0.2l0.3-0.3h0.9c0.1,0,0.3,0,0.4,0l1.9-1.8h-1.1
				l0.3-0.4h0.6c0.4,0.1,0.8-0.1,1-0.4c0.4-0.5,0.9-0.9,1.4-1.4l1.6-1.6l3.3,2.7l0,0c-0.4,0-0.9-0.1-1.3-0.2c-0.8-0.2-1.7-0.2-2.5,0
				c-1.1,0.2-2.1,0.7-2.9,1.4c-0.7,0.5-1.1,1.3-1.1,2.2c0,0.2,0,0.3,0,0.5h-1l0.5,0.6l-0.6,0.7c1,0,2,0,3,0c0.7,0,1.3-0.6,1.4-1.3
				v-1.7c0-0.2-0.1-0.4-0.3-0.4c-0.1,0-0.3,0-0.4,0.1c-0.3,0.2-0.6,0.4-0.9,0.7L53,58.9c0-0.2,0-0.3,0-0.3c0.4-0.5,1-1,1.6-1.3
				c0.8-0.5,1.7-0.7,2.7-0.7c0.4,0,0.7,0,1.1,0c1.4,0,2.7,0.5,3.7,1.4c0.2,0.2,0.5,0.3,0.5,0.7l0,0c-0.3,0-0.4,0-0.6-0.3l-1-0.9
				c-0.2-0.2-0.5-0.2-0.7,0c0,0.2,0,0.4,0,0.6c0,0.5,0,0.9,0,1.4c0,0.7,0.6,1.3,1.3,1.4c0,0,0,0,0,0h2.8L64,60.3l0.5-0.7h-1.1
				c0-0.5,0-0.9,0-1.3l3.4,2.7v0.2L48.6,61.1L48.6,61.1z M55.9,57.6c-0.1,0.8-0.1,1.7,0,2.5h3.9c0.1-0.8,0.1-1.7,0-2.5H55.9z"/>
			<path id="Path_31428" class="st24" d="M63.4,58.2c-0.3,0.4,0,0.9,0,1.3h1l-0.5,0.7l0.5,0.6h-2.6c-0.7,0.1-1.4-0.4-1.5-1.1v-0.2
				c0-0.5,0-0.9,0-1.4c0-0.2,0-0.4,0-0.6c0.2-0.2,0.5-0.2,0.7,0l1,0.9c0.1,0.2,0.3,0.3,0.6,0.3l0,0l0,0l0,0c0-0.3-0.3-0.5-0.6-0.7
				c-1.1-0.8-2.5-1.2-3.8-1h-1.1c-0.9,0-1.9,0.2-2.7,0.7c-0.6,0.3-1.1,0.8-1.6,1.3c0,0,0,0,0,0.3l0.9-0.7c0.3-0.2,0.6-0.5,0.9-0.7
				c0.2-0.1,0.3-0.1,0.5,0c0,0,0.2,0.3,0.2,0.4c0,0.1,0,1,0,1.5c0.1,0.7-0.4,1.4-1.1,1.4c0,0,0,0,0,0h-0.2c-0.9,0-1.9,0-2.9,0
				l0.6-0.7L51,59.8h1c0-0.2,0-0.3,0-0.5c0-0.9,0.4-1.7,1.1-2.2c0.8-0.7,1.8-1.2,2.9-1.4c0.8-0.2,1.7-0.2,2.6,0l1.3,0.2l0,0l0.9,0.8
				L60,56.4c-1.3-0.4-2.7-0.5-4-0.3c-1.1,0.2-2.1,0.7-2.9,1.5c-0.4,0.3-0.6,0.7-0.7,1.2l0,0l0,0l0.6-0.5c1-1,2.4-1.6,3.9-1.6h1.5
				c0.8,0,1.6,0.2,2.4,0.6c0.7,0.4,1.4,0.9,2,1.4v0.2l0,0l0,0l-0.2-0.7L63.4,58.2z M63,59.4c-0.5-0.1-1-0.3-1.3-0.7l-1-0.9
				c-0.2,0.6,0,0.6,0.2,0.8l0.6,0.5l0.9,0.8c0.2,0.1,0.4,0.1,0.6,0L63,59.4z M55,57.8l-0.8,0.7c-0.4,0.3-0.7,0.7-1.3,0.8
				c-0.2,0-0.3,0.1-0.3,0.2c0,0,0,0.1,0,0.1c0,0.2,0.2,0.3,0.4,0.3c0,0,0,0,0,0l0,0c0.2-0.1,0.4-0.2,0.6-0.4l1.3-1.1L55,57.8z
				 M52.1,60.5H54c0.8,0,1-0.3,1-0.9l-1.1,0.5l-0.6,0.2c-0.3,0.1-0.7,0.1-0.9-0.2h-0.2V60.5z M63.6,60.5c-0.2-0.3-0.3-0.4-0.5-0.3
				c-0.2,0-0.4,0-0.6,0l-1.8-0.6c0,0.5,0.4,0.9,0.9,0.9L63.6,60.5L63.6,60.5z M63.3,60L63.3,60L63.3,60L63.3,60L63.3,60z"/>
			<path id="Path_31429" class="st14" d="M52.6,58.5c0-0.5,0.3-0.9,0.7-1.2c0.8-0.8,1.8-1.3,2.9-1.5c1.3-0.3,2.7-0.2,4,0.3
				c0.2,0.1,0.5,0.1,0.8,0.2l1.7,1.4v0.7l0,0c-0.6-0.6-1.3-1.1-2-1.4c-0.7-0.4-1.5-0.5-2.3-0.5c-0.5,0-1,0-1.5,0
				c-1.4,0-2.8,0.6-3.9,1.6c-0.2,0.2-0.3,0.4-0.5,0.5L52.6,58.5z"/>
			<path id="Path_31430" class="st11" d="M56.7,52.8l-1.6,1.7c-0.4,0.4-0.9,0.9-1.4,1.4c-0.2,0.3-0.6,0.5-1,0.4c-0.2,0-0.4,0-0.5,0
				c0.2-0.2,0.4-0.5,0.6-0.7c1.1-1.1,2.2-2.1,3.2-3.2L56.7,52.8z"/>
			<path id="Path_31431" class="st11" d="M51.8,56.6H53l-1.9,1.8c-0.1,0-0.3,0-0.4,0h-0.9L51.8,56.6z"/>
			<path id="Path_31432" class="st10" d="M47.8,59.6v-2.1h2.1L47.8,59.6z"/>
			<path id="Path_31433" class="st25" d="M49.1,56.9c-0.5,0.2-0.9,0-1.3-0.3L47,56.9h-0.5V46.3h2.3h0.2V56.9z M47.2,50.9h1.3v-3.2
				c0-0.1,0-0.2,0-0.3c0-0.3-0.4-0.6-0.7-0.6s-0.6,0.4-0.6,0.7v3.2L47.2,50.9z M47.1,52.9c0,0.5,0.4,0.8,0.9,0.9
				c0.4-0.1,0.7-0.4,0.8-0.8c0-0.5-0.3-0.9-0.8-0.9c0,0,0,0,0,0C47.4,52.1,47.1,52.4,47.1,52.9L47.1,52.9L47.1,52.9z"/>
			<path id="Path_31434" class="st19" d="M48.9,46.3h-2.3l0,0h1.9H48.9z"/>
			<path id="Path_31435" class="st16" d="M41.6,57.6c-0.4,0.1-0.8-0.1-1-0.4c-0.5-0.6-1.1-1.1-1.7-1.7l0.3-0.4
				c0.3,0.3,0.6,0.6,0.9,0.9l1.3,1.4C41.6,57.5,41.6,57.5,41.6,57.6z"/>
			<path id="Path_31436" class="st16" d="M45.3,61.2h-0.9l-0.4-0.4c-0.3-0.4-0.7-0.8-1.1-1.2l0,0h0.5l0.8,0.7L45.3,61.2z"/>
			<path id="Path_31437" class="st16" d="M43.1,59.2c-0.3,0.1-0.7-0.1-0.9-0.3c-0.2-0.3-0.5-0.6-0.8-0.8H42
				C42.4,58.3,42.8,58.7,43.1,59.2z"/>
			<path id="Path_31438" class="st26" d="M46.3,50.5h-0.9c0,0,0-0.3,0-0.3v-2.4c0-0.4,0.2-0.6,0.4-0.7c0.2,0,0.6,0.3,0.6,0.6
				C46.3,48.7,46.3,49.6,46.3,50.5z M45.7,47.6v2.7C45.9,49.4,45.9,48.5,45.7,47.6z"/>
			<path id="Path_31439" class="st20" d="M47,56.9l0.8-0.3v0.9h-3.7l0.8-1.2C45.4,57,46.2,57.2,47,56.9z"/>
			<path id="Path_31440" class="st17" d="M46.5,46.2L46.5,46.2H45c0.1,0,0.2,0,0.3,0C45.7,46.2,46.1,46.2,46.5,46.2z"/>
			<path id="Path_31441" class="st26" d="M49.4,50.5v-2.9c0-0.2,0.2-0.5,0.4-0.5c0.3,0,0.5,0.2,0.5,0.4c0,0,0,0,0,0v3H49.4z
				 M49.9,47.6c-0.2,0.8-0.3,1.6-0.2,2.5c0,0,0,0,0.2,0.2V47.6z"/>
			<path id="Path_31442" class="st26" d="M56.7,70.8c0,0,0,0.2-0.2,0.2H55c0,0,0,0-0.2-0.2v-2.6c0.6-0.3,1.2-0.3,1.8,0L56.7,70.8z
				 M55.5,68.4c0,0-0.3,0-0.3,0.2v2h0.3V68.4z M55.9,68.4c0,0.7,0,1.4,0,2.1h0.3v-1.8C56.3,68.4,56.3,68.4,55.9,68.4L55.9,68.4z"/>
			<path id="Path_31443" class="st26" d="M55.2,62.2v2.6h-1.7v-2.6C54,61.8,54.7,61.8,55.2,62.2z M54.1,64.5v-2.1
				c-0.2,0-0.3,0.1-0.3,0.3c0,0,0,0,0,0.1v1.6l0,0L54.1,64.5z M54.9,64.5v-1.8c0-0.2,0-0.3-0.3-0.3v2.1H54.9z"/>
			<path id="Path_31444" class="st26" d="M64,66.7h0.3c0.4-0.2,0.8-0.2,1.1,0h0.3v2.4h0.4c-0.7,0.3-1.4,0.3-2.1,0.2l0,0L64,66.7z
				 M65.5,69v-1.8c0-0.2,0-0.3-0.3-0.3V69H65.5z M64.7,69V67c-0.2,0-0.3,0-0.3,0.3v1.6C64.3,69,64.3,69.1,64.7,69L64.7,69z"/>
			<path id="Path_31445" class="st26" d="M65.8,64.8H64v-2.5c0.4-0.4,1-0.5,1.5-0.2c0.2,0.1,0.3,0.3,0.3,0.5
				C65.8,63.2,65.8,64,65.8,64.8z M65.4,64.5v-2.1h-0.3v2.1L65.4,64.5z M64.7,62.2c-0.2,0.2-0.3,0.3-0.3,0.4c0,0.6,0,1.2,0,1.9h0.3
				V62.2z"/>
			<path id="Path_31446" class="st16" d="M55,66.6l1.1-0.8l1.5,1.7h-3.8l0,0l0.3-0.3L55,66.6z"/>
			<path id="Path_31447" class="st26" d="M51.8,64.8h-1.9v-2.4l0,0c0-0.3,0.6-0.5,1.1-0.4c0.5,0.1,0.8,0.3,0.8,0.6
				C51.7,63,51.8,64,51.8,64.8z M51,62.3v2.2h0.4v-1.8C51.4,62.5,51.4,62.3,51,62.3L51,62.3z M50.7,62.3c-0.4,0.2-0.4,0.2-0.4,0.3
				v1.8h0.4V62.3z"/>
			<path id="Path_31448" class="st26" d="M57,62.2c0.5-0.4,1.3-0.4,1.8,0v2.6c-0.6,0-1.2,0-1.8,0V62.2z M58.4,64.5v-1.8
				c0-0.3,0-0.4-0.4-0.4v2.1H58.4z M57.7,64.5v-1.1c0.1-0.4,0.1-0.8,0-1.2c0,0.2-0.3,0.3-0.3,0.4v1.9H57.7z"/>
			<path id="Path_31449" class="st26" d="M62.2,64.8h-1.8v-2.1c0-0.5,0-0.6,0.6-0.7c0.4-0.1,0.9,0,1.2,0.3L62.2,64.8z M61.2,62.3
				c-0.3,0-0.4,0.2-0.4,0.4v1.6c0,0.1,0,0.1,0,0.2h0.3L61.2,62.3z M61.9,64.5v-1.9c0-0.2,0-0.3-0.3-0.3v2.2L61.9,64.5z"/>
			<path id="Path_31450" class="st26" d="M62.3,69.2L62.3,69.2h-1.7l0,0v-2.5l0,0c0.5-0.3,1.2-0.3,1.7,0L62.3,69.2z M61.2,66.9
				c-0.3,0-0.4,0-0.4,0.4v1.6l0,0h0.3L61.2,66.9z M61.9,69v-1.8c0,0,0-0.2-0.2-0.3l0,0v1.9c0,0.2,0,0.2,0.3,0L61.9,69z"/>
			<path id="Path_31451" class="st11" d="M57.6,67.6l-1.5-1.7h1.5h0.2c0.6,0.6,1.2,1.2,1.8,1.7C59.5,67.6,57.6,67.6,57.6,67.6z"/>
			<path id="Path_31452" class="st26" d="M51.7,69.2L51.7,69.2c-0.6,0.2-1.3,0.2-1.9,0v-2.5h0.2c0.5-0.3,1.1-0.3,1.6,0L51.7,69.2z
				 M51.4,69v-1.8c0-0.2,0-0.3-0.4-0.3v2C51,69.1,51.1,69.1,51.4,69z M50.7,66.9L50.7,66.9c0,0-0.3,0.2-0.3,0.3c0,0.6,0,1.2,0,1.9
				h0.4L50.7,66.9z"/>
			<path id="Path_31453" class="st26" d="M55,66.6l-0.9,0.6v-0.3c0,0-0.2,0-0.2,0c0,0.1,0,0.2,0,0.3l0,0c0,0.1,0,0.3,0,0.4v1.8
				l-0.6-0.3h0.2v-2.4l0,0C54,66.6,54.5,66.5,55,66.6z"/>
			<path id="Path_31454" class="st15" d="M54.8,68.2v2.6h-0.4v-2.6H54.8z"/>
			<path id="Path_31455" class="st15" d="M62.3,69.2v-2.5h0.4c0.1,0.4,0.1,0.8,0,1.3v1.2H62.3z"/>
			<path id="Path_31456" class="st15" d="M51.7,69.2v-2.5h0.4v2.4H52L51.7,69.2z"/>
			<path id="Path_31457" class="st1" d="M56.7,70.8v-2.6h0.4v2.6H56.7z"/>
			<path id="Path_31458" class="st15" d="M60.5,66.7v2.5h-0.3v-2.5H60.5z"/>
			<path id="Path_31459" class="st15" d="M49.9,66.7v2.5c-0.3,0-0.3,0-0.3-0.3v-2.2L49.9,66.7z"/>
			<path id="Path_31460" class="st15" d="M64,66.7v2.5h-0.3l0,0l0,0v-2.5H64z"/>
			<path id="Path_31461" class="st1" d="M66.2,69.2h-0.3v-2.4h0.3V69.2z"/>
			<path id="Path_31462" class="st1" d="M53.5,66.7v2.4h-0.3v-2.4L53.5,66.7z"/>
			<path id="Path_31463" class="st26" d="M52,69.2h0.2H52z"/>
			<path id="Path_31464" class="st26" d="M63.7,69.2L63.7,69.2L63.7,69.2z"/>
			<path id="Path_31465" class="st16" d="M39.5,58.4V59H40v1.1h-3.8V59h0.5v-0.6H39.5z M38.4,59.1c0-0.3,0-0.4-0.3-0.4
				c-0.3,0-0.3,0-0.3,0.4H38.4z M37.1,59.1h0.4c0-0.3,0-0.3-0.2-0.3C37.1,58.7,37,58.7,37.1,59.1z M38.7,59.1c0,0,0.4,0,0.4-0.2
				c0-0.1-0.1-0.2-0.2-0.3C38.8,58.7,38.6,58.7,38.7,59.1L38.7,59.1z"/>
			<path id="Path_31466" class="st26" d="M33,61.9c0.3-0.3,0.9-0.4,1.3,0c0,0,0,0,0,0l0,0v1.2h0.3c-0.4,0.2-0.8,0.3-1.2,0.2
				c0,0-0.2,0-0.3-0.2V61.9z M33.8,63.2v-1.1h-0.4v1.1L33.8,63.2z"/>
			<path id="Path_31467" class="st26" d="M33,64.8c0.3-0.3,0.9-0.4,1.3,0c0,0,0,0,0,0v1.3h0.3c-0.4,0.2-0.8,0.3-1.2,0.2
				c0,0-0.2,0-0.3-0.2V64.8z M33.8,66v-1.2h-0.4V66L33.8,66z"/>
			<path id="Path_31468" class="st27" d="M42,61.9v-0.2c0.3,0,0.5,0,0.8,0c0.2,0,0.3,0,0.4,0.2v1.2c0,0.2,0,0.3,0.2,0.3
				c-0.4,0.2-0.8,0.3-1.3,0.2c0,0,0,0-0.2-0.2L42,61.9z M42.4,61.9v1.2c0.3,0,0.4,0,0.4-0.2c0-0.3,0-0.6,0-0.9L42.4,61.9z"/>
			<path id="Path_31469" class="st27" d="M41.2,63.2c-0.4,0.2-0.8,0.3-1.3,0.2c0,0,0,0-0.2-0.2v-1.4v-0.2c0.3,0,0.5,0,0.8,0
				c0,0,0.3,0.2,0.4,0.2c0.1,0.1,0,0.7,0,1.1S41.1,63.2,41.2,63.2z M40.2,61.9v1.2c0.4,0,0.4,0,0.4-0.2c0-0.3,0-0.6,0-0.9L40.2,61.9
				z"/>
			<path id="Path_31470" class="st27" d="M37.4,61.9c0.3-0.4,0.6-0.2,0.9-0.3s0.3,0,0.3,0.3v1.4c-0.3,0.4-0.7,0.2-1.1,0.2
				c-0.4,0-0.3,0-0.4-0.2c-0.2-0.2,0.3,0,0.3-0.3S37.5,62.3,37.4,61.9z M37.8,61.9v0.9c0,0.3,0.2,0.3,0.5,0.2c0.1-0.4,0.1-0.7,0-1.1
				H37.8z"/>
			<path id="Path_31471" class="st27" d="M43.4,66.1c-0.4,0.2-0.8,0.3-1.3,0.2c0,0,0,0-0.2-0.2v-1.4v-0.2h0.8c0,0,0.3,0.2,0.4,0.2
				s0,0.7,0,1.1S43.3,66.1,43.4,66.1z M42.4,64.9V66c0.3,0,0.4,0,0.4-0.2v-0.9L42.4,64.9z"/>
			<path id="Path_31472" class="st27" d="M39.8,64.8v-0.2h0.8c0.2,0,0.3,0.2,0.4,0.2v1.1c0,0,0,0.3,0.2,0.3
				c-0.4,0.2-0.8,0.3-1.3,0.2c0,0,0,0-0.2-0.2L39.8,64.8z M40.2,66c0.3,0,0.4,0,0.4,0s0-0.6,0-1h-0.4V66z"/>
			<path id="Path_31473" class="st27" d="M37.4,64.8c0.3-0.3,0.6-0.2,0.9-0.2s0.3,0,0.3,0.2v1.6c-0.3,0.4-0.7,0.2-1.1,0.2
				c-0.4,0-0.3-0.2-0.4-0.2c0.1,0,0.2-0.1,0.3-0.2c0,0,0,0,0-0.1C37.5,65.5,37.5,65.1,37.4,64.8z M37.8,64.9v0.9
				c0,0.3,0.2,0.3,0.4,0.2v-1.1L37.8,64.9z"/>
			<path id="Path_31474" class="st27" d="M35.2,61.9c0.2-0.4,0.6-0.2,0.9-0.3s0.3,0,0.3,0.3v1.4l0,0c-0.4,0.2-0.9,0.2-1.2,0
				L35.2,61.9z M35.6,61.9v0.9c0,0.3,0.2,0.3,0.5,0.2c0.3-0.1,0-0.7,0-1.1H35.6z"/>
			<path id="Path_31475" class="st27" d="M35.2,64.8c0.2-0.3,0.6-0.2,0.9-0.2s0.3,0,0.3,0.2v1.6l0,0c-0.4,0-0.9,0.2-1.2,0L35.2,64.8
				z M35.6,64.9v0.9c0,0.3,0.2,0.3,0.5,0.2c0.1-0.4,0.1-0.7,0-1.1L35.6,64.9z"/>
			<path id="Path_31476" class="st15" d="M33,61.9v1.4c0,0-0.3,0-0.3-0.2v-1.1C32.7,61.9,32.9,61.9,33,61.9z"/>
			<path id="Path_31477" class="st15" d="M33,64.8v1.6c0,0-0.3,0-0.3-0.2v-1.1C32.7,64.7,32.9,64.8,33,64.8z"/>
			<path id="Path_31478" class="st15" d="M36.5,63.3v-1.4h0.3v1.2h-0.3V63.3z"/>
			<path id="Path_31479" class="st15" d="M38.7,63.3v-1.4H39v1.2h-0.3V63.3z"/>
			<path id="Path_31480" class="st15" d="M39.8,61.9v1.4h-0.3l0,0V62L39.8,61.9z"/>
			<path id="Path_31481" class="st15" d="M39.8,64.8v1.6h-0.3l0,0V65L39.8,64.8z"/>
			<path id="Path_31482" class="st15" d="M42,61.9v1.4h-0.3l0,0V62L42,61.9z"/>
			<path id="Path_31483" class="st15" d="M42,64.8v1.6h-0.3l0,0v-1.6H42z"/>
			<path id="Path_31484" class="st15" d="M36.5,66.3v-1.6h0.3v1.4h-0.3V66.3z"/>
			<path id="Path_31485" class="st15" d="M38.7,66.3v-1.6H39v1.4h-0.3V66.3z"/>
			<path id="Path_31486" class="st8" d="M34.6,63.2h-0.3v-1.3h0.3V63.2z"/>
			<path id="Path_31487" class="st8" d="M34.6,66.1h-0.3v-1.4h0.3V66.1z"/>
			<path id="Path_31488" class="st8" d="M35.2,61.9v1.4l-0.3-0.2v-1.2H35.2z"/>
			<path id="Path_31489" class="st8" d="M35.2,64.8v1.4H35v-1.3L35.2,64.8z"/>
			<path id="Path_31490" class="st8" d="M43.4,66.1c-0.2,0-0.3,0-0.2-0.3v-1.1c0.2,0,0.3,0,0.3,0.2S43.5,65.7,43.4,66.1z"/>
			<path id="Path_31491" class="st8" d="M43.4,63.2c-0.2,0-0.3,0-0.2-0.3v-1.1c0.2,0,0.3,0,0.3,0.2S43.5,62.9,43.4,63.2z"/>
			<path id="Path_31492" class="st8" d="M37.4,64.8c0,0.4,0,0.7,0,1.1c0,0.1-0.1,0.2-0.2,0.3c0,0,0,0-0.1,0c0-0.4,0-0.8,0-1.1
				S37.3,64.8,37.4,64.8z"/>
			<path id="Path_31493" class="st8" d="M41.2,63.2h-0.3v-1.1c0.2,0,0.3,0,0.3,0.2C41.2,62.5,41.3,62.9,41.2,63.2z"/>
			<path id="Path_31494" class="st8" d="M37.4,61.9c0,0.3,0,0.7,0,1.1c0,0.3,0,0.3-0.3,0.3s0-0.8,0-1.1
				C37.2,61.8,37.3,61.9,37.4,61.9z"/>
			<path id="Path_31495" class="st8" d="M41.2,66.1c0,0-0.3,0-0.2-0.3v-1.1c0.2,0,0.3,0,0.3,0.2S41.3,65.7,41.2,66.1z"/>
			<path id="Path_31496" class="st12" d="M35,64.8v1.3C34.8,65.7,34.8,65.2,35,64.8z"/>
			<path id="Path_31497" class="st12" d="M35,61.9v1.2C35,62.8,35,62.4,35,61.9C35,61.7,35,62,35,61.9z"/>
			<path id="Path_31498" class="st27" d="M38.9,63.3L38.9,63.3z"/>
			<path id="Path_31499" class="st27" d="M36.7,63.3L36.7,63.3z"/>
			<path id="Path_31500" class="st27" d="M39.4,63.2L39.4,63.2z"/>
			<path id="Path_31501" class="st27" d="M41.7,66.1L41.7,66.1z"/>
			<path id="Path_31502" class="st27" d="M39.4,66.1L39.4,66.1z"/>
			<path id="Path_31503" class="st27" d="M38.9,66.3L38.9,66.3z"/>
			<path id="Path_31504" class="st27" d="M36.7,66.3L36.7,66.3z"/>
			<path id="Path_31505" class="st11" d="M43,59.5L43,59.5L43,59.5z"/>
			<path id="Path_31506" class="st27" d="M41.7,63.2L41.7,63.2z"/>
			<path id="Path_31507" class="st26" d="M55.9,57.6h3.9c0.1,0.8,0.1,1.6,0,2.4H56C55.9,59.2,55.8,58.4,55.9,57.6z M56.3,58v1.8h0.4
				V58L56.3,58z M57.7,59.8V58h-0.5v1.8H57.7z M59.5,59.8V58H59v1.8H59.5z M58.1,58v1.8h0.4V58H58.1z"/>
			<path id="Path_31508" class="st14" d="M63,59.4V60c-0.2,0.1-0.4,0.1-0.6,0l-0.9-0.8l-0.6-0.5c-0.3-0.2-0.4-0.2-0.2-0.8l1,0.9
				C62.1,59.2,62.5,59.4,63,59.4z"/>
			<path id="Path_31509" class="st14" d="M54.9,57.8v0.6l-1.3,1.1c-0.2,0.2-0.4,0.3-0.6,0.4c-0.1,0.1-0.3,0.1-0.4,0l0,0
				c0-0.2,0-0.3,0.3-0.4s0.9-0.5,1.3-0.8L54.9,57.8z"/>
			<path id="Path_31510" class="st14" d="M52,60.5V60h0.2c0.2,0.3,0.6,0.3,0.9,0.2l0.6-0.2c0.4-0.1,0.7-0.3,1.1-0.5
				c0,0.6-0.3,0.9-1,1L52,60.5z"/>
			<path id="Path_31511" class="st14" d="M63.5,60.5h-2c-0.5,0-0.9-0.3-0.9-0.8c0,0,0,0,0,0l0,0l1.8,0.6c0.2,0,0.4,0,0.6,0
				C63.2,60.2,63.3,60.3,63.5,60.5z"/>
			<path id="Path_31512" class="st14" d="M62.8,58.3v0.2l0,0V58.3z"/>
			<path id="Path_31513" class="st14" d="M63.3,60L63.3,60z"/>
			<path id="Path_31514" class="st14" d="M52.6,58.5L52.6,58.5L52.6,58.5z"/>
			<path id="Path_31515" class="st23" d="M62.5,58.8L62.5,58.8L62.5,58.8L62.5,58.8z"/>
			<path id="Path_31516" class="st26" d="M47.2,50.9v-3.2c0-0.3,0.2-0.5,0.5-0.6c0.3,0,0.6,0.2,0.7,0.4c0,0.1,0,0.2,0,0.3V51
				L47.2,50.9z M47.9,47.5c0,0.2-0.3,0.3-0.3,0.5c0,0.9,0,1.7,0,2.6h0.5C48.3,49.5,48.2,48.5,47.9,47.5L47.9,47.5z"/>
			<path id="Path_31517" class="st21" d="M47,52.9c0-0.4,0.3-0.8,0.7-0.8l0,0c0.5,0,0.8,0.4,0.8,0.9c0,0,0,0,0,0
				c0,0.4-0.3,0.8-0.8,0.8C47.3,53.8,46.9,53.4,47,52.9L47,52.9z"/>
			<path id="Path_31518" class="st7" d="M49.9,47.7v2.7c0,0-0.2,0-0.2-0.2C49.7,49.3,49.7,48.5,49.9,47.7z"/>
			<path id="Path_31519" class="st22" d="M51,62.3c0.3,0,0.4,0.2,0.4,0.4v1.8H51V62.3z"/>
			<path id="Path_31520" class="st4" d="M50.7,62.3v2.1h-0.3v-1.8C50.4,62.5,50.4,62.5,50.7,62.3z"/>
			<path id="Path_31521" class="st4" d="M58.4,64.5H58v-2.1c0.3,0,0.4,0,0.4,0.4V64.5z"/>
			<path id="Path_31522" class="st2" d="M57.7,64.5h-0.4v-1.9c0,0,0-0.2,0.3-0.4c0,0.4,0,0.8,0,1.2C57.7,63.7,57.7,64.1,57.7,64.5z"
				/>
			<path id="Path_31523" class="st4" d="M61.2,62.3v2.1h-0.3c0-0.1,0-0.1,0-0.2v-1.6C60.8,62.5,60.9,62.3,61.2,62.3z"/>
			<path id="Path_31524" class="st2" d="M61.9,64.5h-0.3v-2.1c0.2,0,0.3,0,0.3,0.2V64.5z"/>
			<path id="Path_31525" class="st4" d="M61.2,66.9V69h-0.3l0,0v-1.6C60.8,67,60.9,66.9,61.2,66.9z"/>
			<path id="Path_31526" class="st2" d="M61.9,69c-0.2,0-0.3,0-0.3,0v-2l0,0c0,0,0.2,0.2,0.2,0.3L61.9,69z"/>
			<path id="Path_31527" class="st22" d="M51.4,69c-0.3,0-0.4,0-0.4-0.2v-2c0.3,0,0.4,0,0.4,0.3V69z"/>
			<path id="Path_31528" class="st4" d="M50.7,66.9V69h-0.3v-1.9c0,0,0.2-0.2,0.3-0.3V66.9z"/>
			<path id="Path_31529" class="st4" d="M38.4,59.1h-0.5c0-0.3,0-0.4,0.2-0.4C38.4,58.7,38.4,58.8,38.4,59.1z"/>
			<path id="Path_31530" class="st7" d="M33.8,63.2h-0.4v-1.1h0.4V63.2z"/>
			<path id="Path_31531" class="st7" d="M33.8,66h-0.4V65h0.4V66z"/>
			<path id="Path_31532" class="st7" d="M42.4,62.1h0.4v0.9c0,0.3,0,0.3-0.4,0.2V62.1z"/>
			<path id="Path_31533" class="st7" d="M40.2,62.1h0.4V63c0,0.2,0,0.2-0.4,0.2V62.1z"/>
			<path id="Path_31534" class="st7" d="M37.8,62.1h0.4c0.1,0.4,0.1,0.7,0,1.1c-0.3,0-0.4,0-0.5-0.2L37.8,62.1z"/>
			<path id="Path_31535" class="st7" d="M42.4,64.9h0.4v0.9c0,0.3,0,0.3-0.4,0.3V64.9z"/>
			<path id="Path_31536" class="st7" d="M40.2,66v-1.1h0.4c0,0.3,0,0.7,0,1S40.4,66.1,40.2,66z"/>
			<path id="Path_31537" class="st7" d="M37.8,64.9h0.4V66c-0.2,0-0.4,0-0.4-0.2C37.8,65.5,37.7,65.2,37.8,64.9z"/>
			<path id="Path_31538" class="st7" d="M35.6,62.1H36c0.2,0.3,0,0.7,0,1.1c0,0.4-0.5,0-0.5-0.2L35.6,62.1z"/>
			<path id="Path_31539" class="st7" d="M35.6,64.9H36c0.1,0.4,0.1,0.7,0,1.1c-0.3,0-0.4,0-0.5-0.2L35.6,64.9z"/>
			<path id="Path_31540" class="st2" d="M56.3,58h0.4v1.8h-0.5L56.3,58z"/>
		</g>
	</g>
</g>
</svg>
