<svg xmlns="http://www.w3.org/2000/svg" viewBox="0 0 77.38 100"><g id="圖層_2" data-name="圖層 2"><g id="圖層_1-2" data-name="圖層 1"><path d="M55.26,29.63l-7.12-2.58A11.06,11.06,0,1,1,63.05,14H61.89a2.94,2.94,0,1,0,0,5.88h9.33a2.94,2.94,0,1,0,0-5.88H69.11A16.89,16.89,0,1,0,46.05,32.52l7,2.58A30.81,30.81,0,1,1,11.4,72.74h1.16a2.94,2.94,0,1,0,0-5.88H3.22a2.94,2.94,0,1,0,0,5.88H5.16A37.09,37.09,0,0,0,40.67,100,36.69,36.69,0,0,0,55.26,29.63ZM2.91,52.24a2.94,2.94,0,0,0,0,5.86h26A1.09,1.09,0,0,0,30,57h0V50.26a2.92,2.92,0,1,0-5.83,0v2H10.86V19.75h2a2.92,2.92,0,1,0,0-5.83h-10a2.92,2.92,0,0,0,0,5.83H5V52.24Z"/></g></g></svg>