<svg xmlns="http://www.w3.org/2000/svg" viewBox="0 0 103.99 100"><defs><style>.cls-1{fill:#231815;}</style></defs><g id="圖層_2" data-name="圖層 2"><g id="圖層_1-2" data-name="圖層 1"><path id="Page-1" class="cls-1" d="M29.72,42.07c0-.36-.06-.73-.12-1.13v-.27c-.06.09-.12.12-.12.18a4.22,4.22,0,0,0,.12.67v.13c0,.09,0,.18,0,.27s.06,0,.09.06h0a4.72,4.72,0,0,0,0,.65h.06a.33.33,0,0,0,0-.37C29.72,42.2,29.75,42.14,29.72,42.07Zm18.1-.3c-.42.4-.82.79-1.25,1.16a9.68,9.68,0,0,1-1,.7,2.76,2.76,0,0,0-1,.74l-.09.06a1.27,1.27,0,0,0-.15.21.83.83,0,0,0,.27,0,11.07,11.07,0,0,0,1-.7c.52-.37,1-.76,1.53-1.13s.89-.61,1.31-.89c.16-.09.28-.18.43-.27s.43-.25.4-.55a.77.77,0,0,1,0-.25c-.06,0-.09,0-.12.06-.34.25-.67.46-1,.71C48,41.59,47.92,41.68,47.82,41.77ZM45.25,27.06h.52a2.8,2.8,0,0,0,.49,0c-.12-.21-.24-.34-.45-.31h-.28c-.18,0-.37,0-.58,0,0,.1,0,.13.06.16S45.1,27.06,45.25,27.06Zm-19,8.78a.1.1,0,0,1,.06,0c.15-.34.3-.68.42-1a.1.1,0,0,1-.06,0C26.51,35.19,26.39,35.53,26.24,35.84Zm13,4.09c.09.19.18.4.43.46,0,0,.06.06.09.06.25.25.37.55.64.8a7.38,7.38,0,0,0,1.47,1.07,2.75,2.75,0,0,0,1.47.37,2.33,2.33,0,0,0,1.31-.43c.74-.52,1.44-1.07,2.14-1.62a2.81,2.81,0,0,0,.8-1,6.49,6.49,0,0,1,.33-.64,3.15,3.15,0,0,1,.25-.28l.15-.15h0V38.5c.06-.31.16-.61.19-.92a8.8,8.8,0,0,0,0-.89c0-.33,0-.64-.06-1s0-.7-.07-1a9.28,9.28,0,0,0-.15-.92,11.06,11.06,0,0,0-.27-1.1c-.19-.52-.43-1-.68-1.53a2.52,2.52,0,0,0-.85-.95,2.37,2.37,0,0,0-1.07-.4,6.23,6.23,0,0,1-.74-.09,4.36,4.36,0,0,0-1.65,0,1.23,1.23,0,0,1-.33,0,.41.41,0,0,0-.37.15c0,.06-.09.1-.12.16l-1.32,1.22c-.46.43-.89.89-1.34,1.31a1.18,1.18,0,0,0-.49.86c0,.43-.1.86-.13,1.25,0,.68-.06,1.32-.06,2v2.42a.56.56,0,0,0,.06.21C39,39.51,39.11,39.72,39.2,39.93Zm-1.5-2.41c0,.37,0,.7,0,1.07A2.13,2.13,0,0,0,37.7,37.52ZM21.47,44s.06.09.09.12,0,0,.06,0,0-.09-.06-.12S21.53,44,21.47,44Zm16.2,1.22c0-.15.09-.3-.06-.39a1,1,0,0,1-.58-.58,0,0,0,0,1,0,0s0,.09-.06.12-.16,0-.22,0A2.76,2.76,0,0,0,37.67,45.22Zm5.93-19.6a.36.36,0,0,1,.22.07,1.3,1.3,0,0,1,.15,0c.12-.07.28-.13.4-.19v-.06h-.92C43.45,25.59,43.51,25.62,43.6,25.62Zm-7,18.6.15.09c0-.09-.06-.22-.09-.31s0-.15,0-.18a3.07,3.07,0,0,0-.27-.46l-.22,0a1.49,1.49,0,0,1,.09.31C36.23,44,36.33,44.15,36.6,44.22Zm-15,2.47c0-.09.06-.12.06-.18a.67.67,0,0,0-.22,0A.32.32,0,0,1,21.56,46.69Zm-.43.77c-.09,0-.18,0-.28,0a.23.23,0,0,1-.15.27.16.16,0,0,0-.09.15,1.13,1.13,0,0,0,.24.52s.07-.06.07-.09l.27-.73S21.16,47.46,21.13,47.46Zm9.6.7s.06.06.12.09,0-.09,0-.12c0-.21-.06-.46-.09-.67s0-.19-.21-.16c0,.13,0,.25.06.34A1.58,1.58,0,0,0,30.73,48.16Zm.18-9.6c0-.12,0-.25-.06-.37h0c0,.12,0,.25,0,.37ZM61.25,28c.18-.22.33-.22.55,0l.18.18a1.42,1.42,0,0,0,.61-.46.36.36,0,0,0,.09-.46c-.06-.15-.06-.15-.18,0a1.44,1.44,0,0,1-.58.4l-.46-.34c-.15.31-.27.62-.43.89A.57.57,0,0,0,61.25,28Zm-1.16-.34c.12-.27.27-.52.39-.79,0-.06.09-.13.06-.19a.57.57,0,0,0-.09-.24,3,3,0,0,1,.19-.4l0,0c-.15.15-.3.34-.45.49a.18.18,0,0,0,0,.21,1,1,0,0,1,.06.28c0,.18,0,.4-.13.58v.06Zm3.39,7.89v-.15h0a.41.41,0,0,1-.09-.12.75.75,0,0,0,0,.24s0,.06.06.09S63.48,35.56,63.48,35.53Zm1.1,8.62a8.1,8.1,0,0,0,1.68-.42.42.42,0,0,0,.12-.1,1.67,1.67,0,0,0-.55,0c-.3.07-.61.19-.91.28s-.62.15-.92.21a.46.46,0,0,1-.46-.12.45.45,0,0,0-.7.06c.18,0,.3.09.46.13A5.53,5.53,0,0,0,64.58,44.15Zm-16.27,1c-.27.19-.55.34-.82.52,0,0-.06.06-.09.06s0,0,0,.06l1.13-.55C48.5,45.07,48.44,45,48.31,45.13ZM60,43.05a.91.91,0,0,1,.13.16,2.46,2.46,0,0,0,1,.52c.1,0,.13,0,.1-.1s0-.24-.1-.3-.09-.25-.12-.34a.51.51,0,0,0-.18-.18.23.23,0,0,0-.12-.06A1.07,1.07,0,0,0,60,43.05Zm.46-7.34c0-.09.09-.18.12-.27a.33.33,0,0,0,0-.15s-.09-.06-.12,0a.66.66,0,0,0-.09.15s0,.09,0,.09S60.33,35.65,60.42,35.71Zm-31,3.09c0,.06,0,.09.06.16s0,0,.06,0,0-.31-.06-.46h-.06C29.39,38.62,29.35,38.71,29.39,38.8ZM72.13,26.39c-.09-.22-.18-.25-.33-.15l-.4.27a.41.41,0,0,0-.09.12C71.67,26.72,71.89,26.51,72.13,26.39Zm.25,4.52a.36.36,0,0,1,0-.3s0-.06,0-.09h-.06c0,.12-.06.27-.09.39a.18.18,0,0,0,.06.1A.41.41,0,0,0,72.38,30.91ZM73.81,32s.1-.09.1-.12,0-.33-.1-.39c0-.22,0-.43-.06-.62h0c0,.25,0,.46,0,.71a1,1,0,0,0,0,.3S73.75,32,73.81,32Zm-10.27,3.4c0-.06,0-.46-.09-.52,0,.18,0,.34,0,.52A0,0,0,0,1,63.54,35.41Zm7,5a2.77,2.77,0,0,0-.15-.24,1.12,1.12,0,0,0,0,.7C70.57,40.7,70.6,40.58,70.51,40.39Zm-1.07.16c0-.13,0-.22,0-.34h0v.34Zm-9.2-4.71c0,.12,0,.24-.06.36a.52.52,0,0,0,.3-.39.11.11,0,0,0-.09,0c0-.06,0-.09,0-.13S60.27,35.78,60.24,35.84Zm-7,22c0,.8,0,1.62,0,2.33s.18,1.28.33,1.86.34,1,.49,1.56a1.24,1.24,0,0,0,.64.8.35.35,0,0,0,.25,0,.88.88,0,0,1,.67.12,2.37,2.37,0,0,0,.4.28,4.84,4.84,0,0,0,.95.33A2.66,2.66,0,0,0,59.14,65c.3-.22.64-.4,1-.65a3.65,3.65,0,0,0,.45-.51,9.26,9.26,0,0,1,.86-.8.54.54,0,0,0,.21-.49,12.16,12.16,0,0,1,.16-1.8c.06-.31.09-.65.12-1,0-.61.06-1.25,0-1.87a12,12,0,0,0-.12-1.46,3.75,3.75,0,0,0-.22-.86,4.12,4.12,0,0,0-.15-.58,14.18,14.18,0,0,0-.64-1.38,1.66,1.66,0,0,0-1.1-1,2.88,2.88,0,0,1-.4-.12,2.63,2.63,0,0,0-1.44-.09c-.36.09-.7.18-1.07.25a1.86,1.86,0,0,0-1,.45c-.15.16-.39.28-.45.46a6.59,6.59,0,0,1-.49.77.62.62,0,0,1-.43.27c-.16,0-.22.09-.28.22-.12.3-.27.58-.4.88s-.27.74-.39,1.1S53.27,57.52,53.27,57.88ZM50.7,75.31c-.43,0-.86,0-1.32,0-.21,0-.21.16-.21.31v.95c0,.36,0,.76,0,1.13,0,.12.06.15.18.15h.37l1,.06s0,0,.06,0,0-.06-.06-.12.06,0,.09-.06,0,0,.06,0a.51.51,0,0,0,.46-.55c0-.06,0-.09.06-.16.15-.24.34-.48.49-.73a.26.26,0,0,0,0-.21A1.29,1.29,0,0,0,50.7,75.31ZM62,68.19a1.36,1.36,0,0,0,.25-.22,20.14,20.14,0,0,0,1.34-1.68,19.79,19.79,0,0,0,1.22-2.05c0-.06,0-.12,0-.18a.76.76,0,0,0-.52.37l-.58.76c-.18.25-.39.52-.55.77a.36.36,0,0,0,0,.42c.1.13.06.22-.06.31a2.64,2.64,0,0,0-.55.46,7.61,7.61,0,0,0-.61.95C62,68.16,62,68.16,62,68.19ZM49.69,36.66c0,.46-.09,1-.12,1.41h0C49.75,37.52,50,36.88,49.69,36.66ZM51.13,42c0-.12,0-.24.06-.39l-.09,0a.38.38,0,0,0-.1.21.56.56,0,0,0,.06.21ZM66.54,56.75a5.64,5.64,0,0,0,.15,1.41A2.49,2.49,0,0,0,66.54,56.75Zm-7-16.39.13-.12s.09-.06.09-.09a.8.8,0,0,0,0-.46.59.59,0,0,1,0-.21.29.29,0,0,1,0-.16c0-.06.06-.09.06-.15.06-.37.12-.7.15-1.07a.78.78,0,0,0,0-.4c0-.09-.06-.15.07-.21s0-.06,0-.09,0-.25,0-.37h0c.06-.12.15-.21.15-.31s-.15-.15-.25-.24c0,.09,0,.15,0,.18a.52.52,0,0,0,0,.55l-.15.09v.16c0,.09-.06.15-.09.24l-.09.64a3,3,0,0,1-.16.62,4.52,4.52,0,0,0-.12.64,3,3,0,0,0-.06.52C59.35,40.39,59.38,40.39,59.53,40.36Zm-10,24.56c.12.27.24.55.33.82,0,0,0,0,.06,0,0-.55-.06-1.07-.06-1.62C49.69,64.24,49.44,64.82,49.51,64.92Zm7.55-26.45c.06-.28.09-.52.15-.8,0,0,0-.12,0-.15a3.45,3.45,0,0,0-.46-.28,3.12,3.12,0,0,0,.34,1.41Zm.21,27.67h0c.46.06.92.09,1.38.12l.4,0v-.06c-.1-.06-.22-.18-.31-.18C58.25,66,57.76,66.08,57.27,66.14Zm-3.94-16-.4.39c.09.13.12.22.18.31A.44.44,0,0,0,53.33,50.12ZM36.94,51.68c-.22,0-.43,0-.64.06v0c.21,0,.39.09.61.12s.15,0,.15-.12S37,51.65,36.94,51.68Zm41.55-6.33a.85.85,0,0,0-.82.3,3.65,3.65,0,0,0,1.31.12s0,0,0-.06a1.05,1.05,0,0,0-.24-.15ZM78,28.25a.09.09,0,0,0,0-.06h0c-.12.06-.18.55-.06.74.09-.1.09-.1,0-.19s-.09-.09,0-.15.07-.18,0-.21S78,28.28,78,28.25ZM42.63,85.13l-.86-.37a2.24,2.24,0,0,0-1.16-.21c-.61.09-.52-.09-.49.58s.06,1.44.09,2.14h0c0,.09,0,.18,0,.24a.23.23,0,0,0,.12.16c.37,0,.77,0,1.13-.06.13,0,.28,0,.4,0,.61-.09,1-.12,1.22-.82a.25.25,0,0,1,.07-.12,2.67,2.67,0,0,0,.15-.8A1.24,1.24,0,0,0,42.63,85.13ZM85,48.47c-.65-.22-1.29-.43-1.93-.68v0a1.9,1.9,0,0,0,.4.25,3.68,3.68,0,0,1,.49.18,8,8,0,0,1,.88.43c.16.09.19,0,.22-.09s0-.12,0-.15A.1.1,0,0,0,85,48.47Zm-6.64-6.33s0,.09.06.09a.66.66,0,0,0,.19.15c.15,0,.21-.06.21-.21L79,42A.74.74,0,0,0,78.37,42.14Zm3.7,3.3c.12.06.25.09.37.15s0,0,0-.06a.69.69,0,0,0-.37-.15S82.07,45.41,82.07,45.44ZM57.82,77.64c-.15-.43-.33-.83-.49-1.26a.31.31,0,0,0-.18-.15s-.09.09-.12.15c-.12.31-.22.61-.34.92s-.27.7-.43,1-.18.4-.3.64c.12,0,.18,0,.24,0,.58,0,1.16,0,1.74-.06.28,0,.31,0,.22-.27S57.94,78,57.82,77.64Zm30.61-41a1.05,1.05,0,0,0-.15-.24.18.18,0,0,1-.12,0v0a1.94,1.94,0,0,1,.24.27A0,0,0,0,1,88.43,36.63ZM79.78,26.57a.11.11,0,0,0,0,.09c.09.13.21.25.3.37.22.28.43.52.68.8l.73.82s.09,0,.12.06l0,0c-.61-.73-1.22-1.44-1.89-2.11ZM89.5,39.2a1.34,1.34,0,0,1-.64-.46s-.09,0-.09-.06,0-.15-.16-.15l-.06-.06c-.12-.1-.21-.19-.33-.31s-.13-.09-.19-.15l0,0c0-.06,0-.09-.09-.12a.68.68,0,0,0-.18-.13c-.16-.15-.34-.3-.49-.45s-.09,0-.09-.07-.19-.21-.28-.3a.19.19,0,0,0,0,.27,2.62,2.62,0,0,0,.22.25c.12.15.24.33.39.49a9.2,9.2,0,0,0,.77.76c.33.34.67.64,1,.95a1.27,1.27,0,0,0,.21.15h.09s0-.06,0-.09A3.09,3.09,0,0,0,89.5,39.2Zm.64-15.44c0-.18,0-.37,0-.58,0,0,0-.09,0-.12s0-.1,0-.16a0,0,0,0,1,0,0c0-.06.06-.09.09-.15a.51.51,0,0,0-.15-.06.23.23,0,0,0-.06.15v.28c0,.15,0,.3-.06.45S89.93,23.76,90.14,23.76Zm-8.44,5c.1.09.19.22.28.31l0,0c-.09-.12-.18-.22-.28-.34C81.73,28.71,81.7,28.71,81.7,28.74ZM78.43,25a7.59,7.59,0,0,0-.52-.67.94.94,0,0,0,.28,1l.18-.12C78.46,25.17,78.49,25.1,78.43,25Zm.25,39.05a1.94,1.94,0,0,1-.83,0C78.16,64.3,78.43,64.15,78.68,64.06Zm-7.1-4.56v.31c.06-.06.09-.06.09-.09S71.74,59.53,71.58,59.5Zm13.7,4.87a.58.58,0,0,1-.15-.13s0,.1-.06.13l.15.06A.06.06,0,0,0,85.28,64.37ZM68.92,86.9c-.18-.06-.21-.12-.12-.3,0,0,0-.07,0-.07-.06-.27-.12-.51-.21-.79a1.57,1.57,0,0,0-.65-.7,1.7,1.7,0,0,0-1.1-.34c-.24,0-.3.06-.3.31v.61c0,.43-.06.82-.09,1.25v.74a6.34,6.34,0,0,0,1.83.12.84.84,0,0,0,.79-.4C69.2,87.09,69.2,87,68.92,86.9Zm1.47-28.5c0,.16,0,.34.06.49h0a2.74,2.74,0,0,0,0-.49Zm12,1.38c.06-.09.18-.15.18-.21s0-.31-.21-.19a.1.1,0,0,1-.06,0s-.1,0-.1,0a1.09,1.09,0,0,0,0,.31ZM73.75,54a.5.5,0,0,0-.15.49c0,.18,0,.37.06.55h0c.12-.46.22-.89.34-1.35,0,0,0,0-.06,0A1,1,0,0,1,73.75,54Zm-3.36,2.66a6.3,6.3,0,0,0,0,1.68A6.3,6.3,0,0,0,70.39,56.63Zm2.45,1.65s0-.06,0-.09a.16.16,0,0,1,0-.25s0-.06,0-.12L72.68,57h-.06c0,.15,0,.27,0,.42,0,.43,0,.89,0,1.32,0,.64.09,1.28.16,1.93a.5.5,0,0,0,.36.49c0-.13,0-.28,0-.4C73.08,59.93,73,59.11,72.84,58.28ZM29.45,39.11h-.06c.06.18,0,.37.15.52C29.51,39.48,29.48,39.29,29.45,39.11Zm56,21h0c.07-1.29.1-2.57.13-3.86,0,0,0,0-.06,0s-.1.09-.1.16c0,.67,0,1.37,0,2,0,.19,0,.37,0,.58C85.43,59.38,85.43,59.75,85.46,60.12ZM34.55,87a2.59,2.59,0,0,1,.43-.06,2.46,2.46,0,0,0,1-.3c.15-.1.31-.16.52-.28a.76.76,0,0,0,.09-.4,2,2,0,0,0-.3-.73,2.13,2.13,0,0,0-1.9-.7c-.12,0-.15.06-.15.18a4.16,4.16,0,0,0,0,.61c0,.52,0,1,.06,1.53C34.34,87,34.43,87,34.55,87ZM45,60.6a27.76,27.76,0,0,0-.73,4.78A11.09,11.09,0,0,0,45,60.6ZM29.08,47.4a.6.6,0,0,0,.21.52c.06,0,.06.12.1.18v.21c0,.16.06.19.21.13,0-.07-.09-.1-.12-.16l-.09-.36c-.07-.46-.13-.92-.22-1.38l-.09-.46h0v.49A6.8,6.8,0,0,1,29.08,47.4ZM44.74,58.16s.09-.09.09-.12a2.56,2.56,0,0,0-.13-.49c-.12.09-.24.49-.18.55S44.64,58.16,44.74,58.16Zm-8.57,29.6a7.85,7.85,0,0,1-.82.15c-.34,0-.67,0-1,0v0c0,.52,0,1.07,0,1.59,0,.12,0,.34.15.4a1.3,1.3,0,0,0,.89,0c.33-.12.67-.25,1-.34.12,0,.21-.06.21-.21a4.69,4.69,0,0,1,.09-.64,1,1,0,0,0-.27-1Zm67.64-38.84s.06-.12.06-.18.06-.18,0-.21c-.18-.19-.09-.43-.12-.61l-.09-2.21a6.42,6.42,0,0,0,0-.76c-.09-.61-.22-1.25-.31-1.87a4.14,4.14,0,0,0-.7-1.8,2.34,2.34,0,0,1-.28-.64c-.24-1-.45-2-.73-3l-.92-3.3c-.18-.61-.36-1.22-.52-1.84s-.36-1.34-.61-2a56.62,56.62,0,0,0-2.38-5.81c-.28-.58-.58-1.17-.86-1.75a1.39,1.39,0,0,0-.89-.76L94.85,22c0-.07,0-.13,0-.19a1.45,1.45,0,0,0-.18-1,15.81,15.81,0,0,0-1.41-2.2,23.77,23.77,0,0,0-2.11-2.51c-.7-.7-1.41-1.4-2.05-2.14a20.77,20.77,0,0,0-4-3.51,18,18,0,0,1-2.94-2.2,3,3,0,0,0-.76-.49l-1.62-.89c-1.1-.58-2.14-1.22-3.31-1.71-.7-.28-1.37-.64-2.07-.92-.92-.4-1.81-.79-2.76-1.1-.73-.25-1.53-.34-2.29-.55-1.22-.31-2.45-.67-3.7-1-1.07-.27-2.17-.46-3.24-.73a28.34,28.34,0,0,0-7-.89c-1.78,0-3.55.12-5.32.18a21.29,21.29,0,0,0-5,.8c-1,.27-2,.52-3,.82-1.59.49-3.22,1-4.81,1.5-1.43.46-2.87,1-4.28,1.47a14.46,14.46,0,0,0-1.4.55,9.21,9.21,0,0,0-1.2.64.62.62,0,0,1-.79,0,.31.31,0,0,0-.28-.09,3.84,3.84,0,0,0-.94.31,8.12,8.12,0,0,0-2.63,2.17c-.43.52-.8,1.07-1.23,1.59a2.15,2.15,0,0,0-.49.85.65.65,0,0,1-.45.55c-.19.1-.4.13-.62.22a2.83,2.83,0,0,0-.58.27,10.32,10.32,0,0,0-.82.8c-.31.33-.58.67-.92,1l-2.93,2.75A24.46,24.46,0,0,0,14,21c-.36.55-.67,1.13-1.07,1.65a25.7,25.7,0,0,0-2.5,3.94c-.37.67-.65,1.41-1,2.08A27.81,27.81,0,0,0,7,34.4c-.4,1.5-.82,3-1.22,4.46A28.57,28.57,0,0,0,5,45.68c0,1,0,2,0,2.94s-.09,1.92,0,2.87A26.66,26.66,0,0,0,5.53,56c.25.92.37,1.86.68,2.72.55,1.53,1.22,3.06,1.86,4.56.46,1.07,1,2.11,1.38,3.18a54.27,54.27,0,0,0,2.81,6.6c.67,1.28,1.41,2.54,2.14,3.82.31.52.61,1,.95,1.47.7,1,1.44,1.93,2.17,2.9.22.28.4.59.61.86.61.73,1.26,1.47,1.9,2.2.49.55.95,1.07,1.47,1.59.76.8,1.59,1.59,2.35,2.39.43.43.73,1,1.28,1.25.07,0,.13.12.19.15.67.55,1.31,1.17,2,1.69s1.62,1.13,2.44,1.68,1.84,1.28,2.82,1.83c1.43.83,2.93,1.59,4.4,2.36.33.18.73.27,1.1.43.7.27,1.41.58,2.11.79s1.31.34,2,.52a11.87,11.87,0,0,0,2.72.43c.85,0,1.71.06,2.57.12a5.12,5.12,0,0,1,.64.12c.4,0,.82,0,1.22,0,.8.06,1.59.13,2.42.22a17.74,17.74,0,0,0,4.77-.13,22.1,22.1,0,0,1,3.73-.45,2.08,2.08,0,0,0,1.22-.43,1.65,1.65,0,0,1,1-.31c.34,0,.67,0,1,0l1.5,0c.43,0,.82-.12,1.25-.12a1.19,1.19,0,0,0,1.22-.58,1.41,1.41,0,0,1,.83-.61C69.5,96.9,70.73,96.44,72,96c.55-.21,1.07-.46,1.62-.67a19.64,19.64,0,0,0,1.87-.86c.85-.45,1.65-1,2.47-1.49s1.59-.89,2.36-1.38c1.13-.7,2.23-1.47,3.36-2.2.46-.31.92-.67,1.38-1,.21-.15.36-.37.58-.55.43-.37.85-.7,1.28-1a2.23,2.23,0,0,0,.22-.21l.61-.62c.52-.49,1.13-.85,1.62-1.4a2.84,2.84,0,0,1,.49-.49c.21-.25.46-.49.67-.71l.64-.55a9,9,0,0,0,.67-.73l1.29-1.19c.06-.06.06-.15.12-.22s.34-.42.52-.67c.49.12.4-.34.52-.55s.12-.27.22-.3c.27-.1.3-.28.33-.52.15,0,.28,0,.4,0s.06-.13,0-.16c0-.36,0-.67.46-.76.09,0,.12-.12.21-.22s.19-.3.34-.36a.62.62,0,0,0,.27-.46l.1-.46c.24.09.3-.09.36-.24a5,5,0,0,1,.55-1c.13-.16.19-.37.31-.52a1.24,1.24,0,0,0,.24-.58.67.67,0,0,1,.4-.68.65.65,0,0,0,.15-.12,1.8,1.8,0,0,1,.62-1c.15-.12.15-.49.18-.76A3.27,3.27,0,0,1,100,70a1.66,1.66,0,0,0,.3-.61,2.18,2.18,0,0,1,.34-.83c.09-.09.09-.24.15-.36s.16-.37.22-.55a2.21,2.21,0,0,0,.15-.37,7.71,7.71,0,0,1,.31-.83,1.83,1.83,0,0,0,.15-.88.52.52,0,0,1,.06-.19,6.79,6.79,0,0,0,.28-1.68c0-.61.15-1.22.24-1.83a5.85,5.85,0,0,1,.12-.71c.12-.45.28-.94.37-1.4a3.69,3.69,0,0,1,.12-.83,11.4,11.4,0,0,0,.61-2.87,12.28,12.28,0,0,0,.22-2.17l.09-1.5c0-.4,0-.8,0-1.16C103.9,50.33,104.18,49.63,103.81,48.92Zm-96.75-5a2,2,0,0,1,.13-1.25l.39.12A1.67,1.67,0,0,1,7.06,43.94ZM78.22,7.67A5.24,5.24,0,0,0,78.8,8a7.88,7.88,0,0,1,1.1.61,9.1,9.1,0,0,1,1.19.74,2,2,0,0,1,.83,1.22.81.81,0,0,1-.71.24c-.06,0-.15,0-.18-.06-.24-.24-.49-.49-.73-.7a.65.65,0,0,0-.22-.18A3.09,3.09,0,0,1,79,8.71,1.65,1.65,0,0,0,78.31,8c-.09,0-.12-.15-.15-.24S78.19,7.71,78.22,7.67ZM55.38,34.4c0-.49.12-1,.18-1.47s.12-.76.21-1.13.25-.76.37-1.16c.06-.18.15-.4.21-.58s.13-.16.16-.25l.09-.27c0-.06.06-.09.06-.12s0-.22.06-.34a1,1,0,0,0,.09.18h0a.22.22,0,0,0,0-.15c-.09-.12,0-.21.1-.31s.09-.09.12-.15a.3.3,0,0,1,.12-.15c.12-.09.24-.19.21-.37a.35.35,0,0,1,.13-.21c.12-.12.12-.37.3-.43s0-.06.06-.09a.3.3,0,0,1,0-.09c.16,0,.16-.19.19-.28a.54.54,0,0,1,.15-.21c.18-.25.4-.52.61-.77.34-.4.7-.76,1.07-1.13a6.67,6.67,0,0,1,.67-.52,7.45,7.45,0,0,1,1-.67c.43-.25.86-.49,1.32-.71s.79-.33,1.19-.48a.58.58,0,0,1,.67.06s.19,0,.28,0a2.55,2.55,0,0,1,1-.16c.36,0,.76,0,1.16,0a1,1,0,0,0,.27-.09c.19-.09.25-.09.37.06a.54.54,0,0,0,.4.22,5,5,0,0,1,1.53.46,9.43,9.43,0,0,1,1.07.64.56.56,0,0,0,.21.06,1.43,1.43,0,0,1,.34.06,1,1,0,0,1,.09.18s-.06.1-.06.13a.8.8,0,0,0,.15.18l.12.12c.19.22.37.43.55.61s.19.13.37.1a1.27,1.27,0,0,1,.15.21.3.3,0,0,0,.09.34A1,1,0,0,1,73,26c.21.31.46.61.64.92a6,6,0,0,1,.49.86c.12.27.21.58.34.85a1.68,1.68,0,0,0,.15.34s0,.06,0,.09c-.09.24.06.43.09.64.06.43.16.86.22,1.26,0,.12,0,.24,0,.39a1.51,1.51,0,0,0,.06.37v.89c0,.18,0,.36,0,.58s0,.64,0,1c0,0,0,.09,0,.12v.18a.74.74,0,0,1,0,.25A1.07,1.07,0,0,0,75,35l-.1.46a2,2,0,0,1-.15.61c-.15.34-.12.77-.37,1.07a1.32,1.32,0,0,0-.12.31c-.15.33-.33.67-.52,1-.09.15-.18.27-.27.43a1.11,1.11,0,0,1-.16.24l-.45.7a2.18,2.18,0,0,1-.22.31c-.06.09-.15.15-.21.24a1.88,1.88,0,0,1-.28.43c-.24.28-.49.52-.73.77s-.52.55-.8.79c-.12.12-.3.25-.42.37a1.38,1.38,0,0,0-.31.33l-.09.1-1,.73a1.91,1.91,0,0,1-.43.21c-.52.19-1.07.37-1.62.52a11.56,11.56,0,0,1-1.5.34,8.4,8.4,0,0,1-1.22.12A11.8,11.8,0,0,1,62.53,45c-.61-.09-1.22-.25-1.83-.34a1.64,1.64,0,0,1-.92-.43.11.11,0,0,1,0-.09s0-.06,0-.09c-.25-.09-.28-.34-.46-.43l-.18.19a.43.43,0,0,1-.46,0,7.3,7.3,0,0,1-.71-.65,9.33,9.33,0,0,1-.67-1c-.15-.24-.27-.52-.4-.76a8.24,8.24,0,0,1-.88-1.9c-.16-.7-.34-1.4-.46-2.11a10.74,10.74,0,0,1-.06-1.71A5.19,5.19,0,0,1,55.38,34.4Zm14.8,41.92a5,5,0,0,1,0,.67c0,.37-.1.74-.13,1.11,0,.52-.06,1.07-.09,1.59,0,.33-.06.67-.06,1v1.66a1.58,1.58,0,0,1-.52.21,1.86,1.86,0,0,1-.7-.18.49.49,0,0,1-.22-.37c-.06-.61-.12-1.22-.12-1.84,0-.36.09-.76.09-1.13a21.15,21.15,0,0,1,.22-2.41,1.09,1.09,0,0,0,0-.31.23.23,0,0,0-.19-.09h-.79a.78.78,0,0,1-.34-.12,1.78,1.78,0,0,1-.24-.12.4.4,0,0,1-.31-.34c0-.06-.09-.12-.12-.15s-.09-.16.06-.25c.4-.27.83-.15,1.22-.21l1.65-.19c.52,0,1.07,0,1.59-.06a.35.35,0,0,1,.25.09c.21.16.49.22.55.52s0,.43-.31.49-.49.06-.73.1l-.4,0C70.24,76,70.18,76.05,70.18,76.32ZM55.07,47.64a1.05,1.05,0,0,0,.43-.15A5,5,0,0,1,57.15,47c.31-.06.61,0,.92-.09a1.2,1.2,0,0,0,.58-.22,1,1,0,0,1,.52-.21,2.05,2.05,0,0,1,.43,0h.52a2.24,2.24,0,0,1,1,.27c.28.16.59.28.86.43.52.28,1,.52,1.53.83a12.37,12.37,0,0,1,1,.73c.06.06.12.09.18.15a6,6,0,0,1,.67.65,13.32,13.32,0,0,1,1,1.16,2.65,2.65,0,0,1,.31.52c.18.36.33.7.49,1.07.06.15.09.33.15.49a3.89,3.89,0,0,1,.18.58A8.66,8.66,0,0,1,67.64,55a8.34,8.34,0,0,0,0,.85.37.37,0,0,0,.12.25.9.9,0,0,1,.21.67c0,.7,0,1.38-.06,2.08a6.65,6.65,0,0,1-.06.77l-.18,1.37c0,.12-.09.22-.12.34a7.24,7.24,0,0,0-.22.92,1.77,1.77,0,0,1-.18.42c-.18.34-.34.68-.52,1s-.34.52-.49.77l-.46.73c-.24.37-.52.7-.76,1.07a.56.56,0,0,0-.16.21,5.75,5.75,0,0,1-1.13,1.5l-.73.77a.38.38,0,0,0-.12.18c-.06.34-.34.46-.65.55s-.76.15-1.13.25c-.52.12-1,.24-1.56.39a2.23,2.23,0,0,1-.82.09,10,10,0,0,0-1.44,0,3.82,3.82,0,0,1-1.53-.25,6.56,6.56,0,0,1-.82-.27,6.78,6.78,0,0,0-1.38-.46,7.73,7.73,0,0,1-2.23-1.1c-.12-.1-.25-.22-.37-.34a.35.35,0,0,1,0-.25c.15-.12.37-.21.55-.33a0,0,0,0,0,0,0l-.4-.37c-.06-.06-.12-.09-.18,0l-.18.28s0,0,0-.06h-.19v.18l.09.37a.21.21,0,0,1-.12.3.24.24,0,0,1-.33-.09c-.16-.21-.34-.46-.49-.7-.28-.4-.55-.77-.8-1.17a12.43,12.43,0,0,1-.73-1.46,6.17,6.17,0,0,1-.43-1.32,9.59,9.59,0,0,1-.24-1.62,13.52,13.52,0,0,1-.1-1.68,4.43,4.43,0,0,1,.13-1c.06-.3.09-.61.15-.92a7.53,7.53,0,0,1,.24-.88c.16-.49.28-1,.46-1.5s.55-1.22.86-1.81c.21-.42.49-.85.76-1.28l.74-1.1a13.89,13.89,0,0,1,.79-1.16,7.8,7.8,0,0,1,1-1c.4-.31.83-.58,1.22-.86a5.59,5.59,0,0,0,.58-.46A2.13,2.13,0,0,1,55.07,47.64Zm-3,31.22a9.36,9.36,0,0,1,.68,1.19A3,3,0,0,1,53,81.31a.18.18,0,0,1,0,.12.68.68,0,0,1-.86.27,0,0,0,0,1,0,0c-.55,0-.61-.46-.7-.85a4.65,4.65,0,0,0-.64-1.65.16.16,0,0,0-.15-.1c-.43,0-.89,0-1.32,0-.09,0-.18.13-.21.22a1.69,1.69,0,0,0-.06.55v1a5.27,5.27,0,0,1-.07.79.44.44,0,0,1-.15.25A.86.86,0,0,1,48,82l-.25-.09a.55.55,0,0,1-.46-.58c0-.19,0-.34,0-.52h0c0-.55.07-1.1.07-1.65,0-.71.06-1.41.06-2.11s0-1.44,0-2.14a5.7,5.7,0,0,1,.06-.68A.47.47,0,0,1,48,74a5.65,5.65,0,0,0,1.59,0,4.28,4.28,0,0,1,1.83.3,3.72,3.72,0,0,1,1.35.86,2.74,2.74,0,0,1,.58.89,1.64,1.64,0,0,1-.06,1.4,2.46,2.46,0,0,1-.52.68c-.22.12-.4.27-.62.42S52,78.71,52.1,78.86ZM52.1,11a.11.11,0,0,0,0,.09l-.45.09a.13.13,0,0,1,0-.09Zm-.88.09c0,.18,0,.18-.25.15ZM50.67,9c-.22.4-.55.21-.86.27C50,9,50.06,9,50.67,9Zm-.89,2.54s.06,0,.12.06,0,.06-.06.09l-.09-.09S49.75,11.5,49.78,11.5Zm-1-2.17a1.07,1.07,0,0,1,.31,0,.14.14,0,0,1,.09.09c0,.06,0,.15-.06.15-.43,0-.83.25-1.26,0a.23.23,0,0,0,0-.09A8.44,8.44,0,0,0,48.8,9.33Zm-1.4.39s.09.06.09.1,0,.09-.09.18l-.13-.12A1.83,1.83,0,0,1,47.4,9.72Zm-1.29,2.82s.06,0,.12,0-.06.12-.09.12a.16.16,0,0,1-.12-.06S46.08,12.54,46.11,12.54Zm-.76.12.09,0a.06.06,0,0,1-.06.06h0Zm-12,24.06a4.48,4.48,0,0,0,.06-.64,10.66,10.66,0,0,1,.21-1.71c.1-.43.16-.86.28-1.28s.34-1,.49-1.56a7,7,0,0,1,.31-.83c.15-.34.33-.67.51-1s.34-.46.49-.67.16-.28.25-.4.34-.43.49-.64l.33-.43a2.73,2.73,0,0,1,.8-.79c.15-.1.27-.28.4-.37A4.38,4.38,0,0,1,39,25.72a2.7,2.7,0,0,0,.58-.31s0,0,.06,0a2.1,2.1,0,0,1,1-.7,8.32,8.32,0,0,1,1.19-.46,3.5,3.5,0,0,1,.55-.09A6.49,6.49,0,0,1,43.3,24c.46,0,.92,0,1.37,0,.22,0,.4,0,.62,0s.36,0,.55,0a7.62,7.62,0,0,1,1.59.37,4.07,4.07,0,0,1,.82.34c.43.15.86.3,1.26.48.15.07.24.22.39.34a.52.52,0,0,0,.22.12,1.74,1.74,0,0,1,.27.22.92.92,0,0,0,.46.36l0,0c.22.42.64.64.92,1a.68.68,0,0,1,.15.4c0,.06.06.12.09.19s.09.09.09.12a1.17,1.17,0,0,0,.62.82,1.29,1.29,0,0,1,.7.83,15.38,15.38,0,0,1,.46,1.68,14,14,0,0,1,.24,1.62,11.7,11.7,0,0,1,0,2.05c0,.49,0,1,0,1.44a1.51,1.51,0,0,1-.06.36c-.06.34-.12.65-.18,1a7.9,7.9,0,0,1-.12.83c0,.15-.1.3-.13.46s-.09.24-.12.39-.15.52-.24.77a3.71,3.71,0,0,1-.25.61,7.91,7.91,0,0,1-.52,1c-.09.15-.15.3-.24.46s-.34.49-.52.73-.19.25-.12.4a.34.34,0,0,1-.07.3,9.84,9.84,0,0,1-.52.86c0,.06-.12.06-.18.09-.24.19-.49.37-.73.58s-.28.25-.43.37l-.18.09c-.28.15-.52.31-.8.43a9.18,9.18,0,0,1-.89.34,2.14,2.14,0,0,0-.7.33l-.18.09s-.09,0-.09,0a2.92,2.92,0,0,1-.74.34,3.6,3.6,0,0,1-1.22.28,1.18,1.18,0,0,1-.43-.13c-.15-.06-.18-.18-.09-.33s0-.06,0-.09-.28,0-.4-.07l-.55-.18c-.06,0-.09,0-.15,0v.15a.28.28,0,0,0,0,.13l.27,0a.34.34,0,0,1,.34.24c0,.15-.09.24-.21.34a1.13,1.13,0,0,1-.83.15c-.64-.09-1.28-.15-1.93-.28a8.85,8.85,0,0,1-1.74-.52c-.3-.15-.64-.21-.95-.36s-.73-.4-1.1-.58l-.55-.37a3.75,3.75,0,0,1-.36-.34C36.17,45,36.11,45,36,45s-.06,0-.09-.06a3.18,3.18,0,0,1-.31-.34h.06c0-.06-.06-.12-.09-.12s-.18-.18-.24-.31a1,1,0,0,0-.28-.46c-.12-.09-.12-.27-.18-.42a1.47,1.47,0,0,1-.15-.31s0-.09,0-.12a.63.63,0,0,0-.12-.18s-.06-.07-.06-.1a2.36,2.36,0,0,0-.24-.55,1.79,1.79,0,0,1-.19-.49,6.47,6.47,0,0,0-.18-.73c0-.12-.12-.24-.15-.37a.83.83,0,0,1,0-.27,1.8,1.8,0,0,0-.13-.43c0-.09,0-.18-.06-.31a3.34,3.34,0,0,1-.06-.58l-.09-.73V37.7c0-.21-.09-.46.09-.67C33.27,37,33.3,36.88,33.33,36.72ZM28.77,8.35c.31-.28.65-.52,1-.77s.4-.18.71.16c-.34.24-.65.49-.95.73a.7.7,0,0,1-.8.15A.4.4,0,0,1,28.77,8.35ZM24,13.88c.25-.21.49-.46.74-.67a.23.23,0,0,1,.24-.06.24.24,0,0,1,.22.15s0,.18-.1.22c-.33.21-.7.39-1.1.64C24,14,24,13.91,24,13.88Zm-2.29,1.59s0,0,0,.06l-.18.1s0,0,0-.07Zm-1.07.89c0,.09.06.18.09.3a.15.15,0,0,0-.12,0c0-.1,0-.19-.06-.31S20.64,16.36,20.67,16.36Zm-1.56,1.28a5.19,5.19,0,0,1,.55-.49l.52-.45.18.09a.63.63,0,0,1-.09,1.13,3,3,0,0,1-1.53.27C18.65,17.86,19,17.83,19.11,17.64Zm-6.3,47.92s-.06,0-.09,0c-.12-.15-.24-.28-.34-.43A3.19,3.19,0,0,0,11,63.85c-.43-.28-.52-.49-.34-1,.09-.22.22-.43.31-.67a2.44,2.44,0,0,1,.92.91,1.83,1.83,0,0,1,.45,1c.43.28.34.77.46,1.16C12.84,65.41,12.81,65.47,12.81,65.56Zm.52-9c0-.06,0-.12,0-.22h.06v.22Zm1,11.47a1.44,1.44,0,0,0-.24-.25l.09-.09a1.81,1.81,0,0,1,.24.24S14.4,68,14.37,68Zm6.36,4.58,0,0s0,0,0-.06l.06.06A.1.1,0,0,1,20.73,72.62Zm.7,1.13a3.23,3.23,0,0,1-.45-.52.26.26,0,0,1,0-.42c.15-.1.21,0,.3.12a2.46,2.46,0,0,1,.64.95C21.74,74.06,21.59,73.88,21.43,73.75Zm1,1.35c0-.06-.06-.09-.06-.12a.22.22,0,0,1,.13-.06s.09.06.06.09S22.51,75.07,22.44,75.1Zm6-26.57a1.71,1.71,0,0,1,0-.4.2.2,0,0,0-.07-.15,3.29,3.29,0,0,0-.3-.46.18.18,0,0,1,0-.12c0-.37,0-.71-.09-1.07s-.09-.89-.16-1.35-.06-1-.12-1.47c0-.27,0-.55-.06-.79,0-.49-.09-1-.12-1.5l-.09-.77v-.27a.06.06,0,0,0-.06-.06s-.07,0-.07.06a7.83,7.83,0,0,0-.33.73,6.33,6.33,0,0,0-.31.8,6.13,6.13,0,0,1-.3.64c-.22.46-.46.92-.68,1.38l-.18.45s0,0,0,.07L25,45c-.12.27-.27.55-.39.83s-.28.52-.4.76c-.4.7-.77,1.41-1.13,2.14-.22.43-.37.89-.58,1.32-.1.21-.22.42-.31.64a.74.74,0,0,1-.7.24.54.54,0,0,0-.16.06c-.06,0-.12.06-.15,0l-.49-.21a0,0,0,0,1,0,0c-.09-.15-.18-.34-.27-.49s-.1-.21-.16-.28a3.5,3.5,0,0,1-.46-.82c0-.06-.09-.12-.12-.18-.21-.43-.43-.86-.64-1.26-.09-.21-.18-.4-.28-.61s-.21-.49-.33-.73-.31-.65-.46-1-.37-.74-.52-1.1-.34-.86-.52-1.29-.28-.67-.4-1c0-.09-.09-.18-.12-.27a.54.54,0,0,0-.4-.37c.09-.15.09-.15-.09-.18a2.49,2.49,0,0,0-.15,1,1.3,1.3,0,0,0,0,.15.35.35,0,0,0,.06.21A.6.6,0,0,1,16,43a.27.27,0,0,0,0,.16c.16.12.06.27,0,.39-.06.4-.15.83-.21,1.23s-.09.61-.15.88c-.07.43-.1.86-.13,1.32s-.09.79-.12,1.16-.06.82-.09,1.25l-.09,1.56V51c0,.13,0,.31,0,.4a1.12,1.12,0,0,1-.58.37h-.07a3.19,3.19,0,0,0-1.07.09,1.71,1.71,0,0,1-.39,0,.3.3,0,0,1-.13-.06.45.45,0,0,1-.39.09c-.09,0-.19.06-.28.12s-.27.09-.4,0a.32.32,0,0,0-.18-.06c-.12,0-.24.06-.34-.06s-.06,0-.09,0-.15,0-.12-.12.06-.28.25-.22c0,0,.09-.09.09-.12a3.44,3.44,0,0,1,.12-1.1c0-.15,0-.31,0-.46a.18.18,0,0,1,0-.12c.15-.06.12-.21.15-.34A1,1,0,0,1,12,49a2.55,2.55,0,0,0,.18-.51s0-.07,0-.13l-.09.09v.07l-.09.15a.38.38,0,0,1,0,.18s-.1.06-.1,0l-.15-.15-.09-.18.06-.06c-.15,0-.15-.13-.15-.25s0-.18,0-.27,0-.13-.06-.13-.1,0-.19,0,0-.09.06-.15.13-.34,0-.49,0-.09-.06-.12a0,0,0,0,0,0,0l-.09.18c0-.06,0-.12,0-.18,0-.21.06-.43.09-.67a.6.6,0,0,1,.06-.22,1.75,1.75,0,0,0,0-.4,4.07,4.07,0,0,0,.06-.61,3.63,3.63,0,0,1,0-.58c.07-.46.16-.92.22-1.34a7.36,7.36,0,0,1,.12-.8c0-.27.12-.52.15-.79l.28-1.47c.12-.61.21-1.22.34-1.84,0-.18,0-.33.06-.52s.09-.45.12-.7l.18-1.1c.06-.4.16-.76.22-1.16s.09-.61.12-.92c0-.09,0-.18,0-.27a11.49,11.49,0,0,1,.21-2.05c.06-.34.22-.68.31-1,0-.16.12-.34-.06-.46,0,0,0-.09,0-.12a2.55,2.55,0,0,1,.4-.28,1.27,1.27,0,0,1,.94,0c.09,0,.19,0,.31,0s.4-.06.55.09a1.57,1.57,0,0,1,.27.4c.19.4.31.8.49,1.19s.4.89.62,1.35.55,1,.79,1.53c.18.33.31.7.49,1,.24.52.49,1,.73,1.53.13.24.25.48.37.76s.31.64.46,1c.27.58.55,1.16.82,1.71.16.34.34.67.52,1s.22.4.31.61c0,0,0,.06.06.12a2.78,2.78,0,0,0,.15-.3c.19-.34.34-.71.52-1.07s.43-.77.62-1.16.33-.8.52-1.17c.09-.18.21-.36.3-.58s.15-.27.22-.43.3-.58.42-.85c.22-.43.4-.89.61-1.32.1-.21.22-.39.31-.61s.06-.24.12-.37a1.1,1.1,0,0,1,.16-.3c.12-.18.21-.4.33-.58s.09-.19.16-.28a3.1,3.1,0,0,0,.27-.58A8.56,8.56,0,0,1,27,31.19a.53.53,0,0,1,.12-.15s0,0,.06-.06c.1-.25.22-.49.31-.74a3.44,3.44,0,0,1,.21-.49l.1-.09c.12-.06.09-.27.27-.31a.53.53,0,0,1,0-.18,2,2,0,0,1,.15-.43s.07-.06.1-.09.3-.24.27-.49c0-.09,0-.18,0-.24s0,0-.06,0l.37-.25a2.44,2.44,0,0,1,1.59-.27.62.62,0,0,1,.49.46c.06.42.12.85.15,1.28.09.76.15,1.56.21,2.32,0,.31,0,.65.07,1L31.68,34c0,.46.06.95.12,1.41s.15.86.21,1.31c.1.74.19,1.5.28,2.24,0,.42.06.85.09,1.31s.12.89.12,1.32a17.39,17.39,0,0,0,.19,1.8c.09.64.15,1.25.21,1.9A3.71,3.71,0,0,1,33,46.48a.18.18,0,0,0,0,.12.29.29,0,0,1-.06.43s0,.06-.06.09a.37.37,0,0,1-.61.09c-.09-.09-.18-.21-.28-.3,0,.18.07.39.1.58,0,0,.06.06.09.06s.3.06.43.12a.79.79,0,0,1,.36.58,1,1,0,0,1-.06.67,1.1,1.1,0,0,1-.4.4.58.58,0,0,1-.58-.12.59.59,0,0,0-.7-.21c-.55.09-1.13.18-1.68.24a3.32,3.32,0,0,1-.55,0l-.12,0A1,1,0,0,1,28.41,48.53Zm2.87,43.08c-.12-.18-.27-.18-.43-.24a5.86,5.86,0,0,1-1.07-.52c-.12-.06-.15-.25-.27-.43.46.21.79.4,1.16.55a1.47,1.47,0,0,0,.4.09,3.29,3.29,0,0,1,.55.21c.3.22.52.59.91.71.07,0,.1.15.16.27A1.61,1.61,0,0,1,31.28,91.61Zm6.79-5.26c0,.22-.18.31-.31.46a1.36,1.36,0,0,1-.79.37,2.12,2.12,0,0,0,.37.24,1,1,0,0,1,.52,1,3.94,3.94,0,0,1,0,.7c0,.25-.09.46-.12.71,0,.06-.06.09-.09.12a3.79,3.79,0,0,0-.43.34,2.38,2.38,0,0,1-.73.55,6.77,6.77,0,0,1-.64.27,2.12,2.12,0,0,1-1,.09,4.81,4.81,0,0,1-1.32-.39,3,3,0,0,1-.52-.43.43.43,0,0,1-.06-.28V86.35c0-.3-.06-.64,0-.95a7,7,0,0,0-.09-1.59c0-.12.15-.3.28-.3a4.58,4.58,0,0,0,1.1-.09,3.85,3.85,0,0,1,1.07,0,3.24,3.24,0,0,1,2,.85,1.83,1.83,0,0,1,.46.52,1.94,1.94,0,0,1,.34,1ZM36.48,72.87A12.58,12.58,0,0,1,35,73.2a1.92,1.92,0,0,1-1-.09,2.89,2.89,0,0,1-.24.25s-.1,0-.16,0a3.94,3.94,0,0,1-.58-.06c-.15,0-.21.06-.21.21s-.28.4-.43.37a.16.16,0,0,1-.12-.1c-.09-.06-.15-.18-.31-.09,0-.21-.15-.21-.3-.18a5.91,5.91,0,0,1-1,.12,1,1,0,0,1-.43-.12c-.06-.06,0-.21,0-.34s0-.06.06-.12c-.49-.06-.52-.49-.7-.82,0,0,0-.1,0-.13s0-.09,0-.09-.06-.21-.09-.34-.13-.52-.16-.79,0-.37-.06-.55,0-.43-.06-.64a.22.22,0,0,1,0-.13.4.4,0,0,0,0,.19h.06c0-.12,0-.22,0-.34-.06-.33-.12-.64-.15-1s0-.67,0-1C29,66.72,29,66,29,65.28c0-.36,0-.73,0-1.13s-.06-1-.06-1.53,0-.91,0-1.34,0-.58,0-.86,0-.64,0-1v-.67c0-.34,0-.64,0-1,0-.7,0-1.4,0-2.11,0-.4.06-.76.06-1.16v-1a4.62,4.62,0,0,1,.06-.64v-.25a.11.11,0,0,1,.12-.12.3.3,0,0,0,.28-.4c0-.06,0-.15,0-.21s0-.24.21-.34a8.39,8.39,0,0,1,2-.55c.34-.06.64-.15,1-.21s.52-.06.79-.12a2.85,2.85,0,0,1,.49-.06c.49-.07,1-.13,1.44-.16a3.43,3.43,0,0,1,.55-.06.32.32,0,0,1,.18.06c.1.06.16.09.25,0a.87.87,0,0,1,.55-.06,2.74,2.74,0,0,0,.49,0,1.29,1.29,0,0,1,.67.15,2.29,2.29,0,0,0,.28.07l.36.09a2.07,2.07,0,0,0,.58.12,1.31,1.31,0,0,1,.58.21c.31.19.65.34,1,.52a.29.29,0,0,0,.16,0c.12,0,.24,0,.27.19,0,0,.12.06.15.06.19-.06.28.09.43.15a2,2,0,0,0,.58.25.5.5,0,0,1,.4.15l.31.18.45.46s0,.09.07.15a.51.51,0,0,0,.15.22,1.94,1.94,0,0,1,.24.27s0,0,0,0c-.06.19,0,.25.19.31s0,.06,0,.09a.54.54,0,0,0,.27.31.34.34,0,0,1,.22.27A.46.46,0,0,0,45,55a.7.7,0,0,1,.18.34c.09.21.22.42.31.67s.06.24.09.33.06.22.09.34c.06.28.12.58.19.86,0,.06,0,.09,0,.15s0,.21.06.31,0,.39.18.55v0c0,.42.06.85.12,1.28a2.12,2.12,0,0,0,.06.43v0c0,.37,0,.73,0,1.07,0,.12,0,.27,0,.4a6,6,0,0,0-.06.73c0,.31-.06.61-.12.92A4.52,4.52,0,0,1,46,64a.44.44,0,0,0,0,.21v.1a2.37,2.37,0,0,0-.25.82c-.12.37-.27.73-.39,1.1-.07.15-.13.34-.19.49A1.55,1.55,0,0,1,45,67c-.18.27-.37.58-.58.85-.31.43-.61.89-.95,1.29s-.64.7-1,1-.36.42-.55.61-.55.55-.82.79a6.41,6.41,0,0,1-.55.43,1.25,1.25,0,0,1-.83.37.56.56,0,0,1-.31-.09c-.09,0-.18-.1-.06-.25a.85.85,0,0,0,.19-.3.31.31,0,0,1-.16.06C38.41,72.1,37.46,72.5,36.48,72.87ZM44.7,86.05a.29.29,0,0,0-.09.3.69.69,0,0,1,0,.25,1.4,1.4,0,0,1-.55,1.31,1.93,1.93,0,0,1-.94.55s-.07,0-.16.09a1.84,1.84,0,0,1,.8.86,3.66,3.66,0,0,1,.33.79c0,.1-.06.25-.09.37a.58.58,0,0,1-.58.49.73.73,0,0,1-.4-.18c-.24-.4-.39-.8-.61-1.2s-.4-.58-.61-.88a.32.32,0,0,0-.18-.06c-.25,0-.46.06-.71.06a2.2,2.2,0,0,1-.64-.09c-.15-.07-.21,0-.21.12a3,3,0,0,0,0,.73,1.29,1.29,0,0,1-.06.89.6.6,0,0,1-.46.46,1.13,1.13,0,0,1-.34-.09s-.06-.07-.09-.07c-.4-.06-.34-.39-.43-.64a2.76,2.76,0,0,0-.15-.43.88.88,0,0,1-.06-.27,14.25,14.25,0,0,1,0-2c0-.4-.06-.79-.06-1.16,0-.61.06-1.22,0-1.83a1.88,1.88,0,0,1,.15-.62s.06-.06.09-.06a9.85,9.85,0,0,1,2.29-.3,3.35,3.35,0,0,1,1.53.33c.4.22.8.37,1.17.58a2.71,2.71,0,0,1,.79.86,1.25,1.25,0,0,1,.15.64C44.8,85.89,44.74,86,44.7,86.05Zm-.33-3.49h-.28a5.66,5.66,0,0,1-1.89-.4,4.93,4.93,0,0,1-.74-.43,3.53,3.53,0,0,1-1.37-1.34,4.17,4.17,0,0,1-.55-1.07,2.29,2.29,0,0,1-.06-1.53,4.94,4.94,0,0,1,.15-.64,3,3,0,0,1,.37-.89,3.15,3.15,0,0,1,.79-.92,3,3,0,0,1,.49-.36c.21-.1.46-.19.7-.28a4,4,0,0,1,.52-.18,2.84,2.84,0,0,1,.71-.06,3.44,3.44,0,0,1,.55,0,1.51,1.51,0,0,1,.36.06l.62.18.45.19a4,4,0,0,1,.55.27c.22.15.19.25-.06.37a.72.72,0,0,1-.61,0,10.4,10.4,0,0,0-1.31-.25.68.68,0,0,0-.22.09,1.11,1.11,0,0,1-.27.19,4,4,0,0,0-2.36,3.55,1.74,1.74,0,0,0,.4,1.1,1.68,1.68,0,0,0,.83.7c.21.06.42.09.64.15l.55.09a2.36,2.36,0,0,0,.46.1,1,1,0,0,0,.24-.07c.49-.21,1-.45,1.47-.67a6.91,6.91,0,0,1,.73-.24c.06,0,.16,0,.19.06a1.29,1.29,0,0,1,.27.3,2.51,2.51,0,0,1,.12.49v.06a2.5,2.5,0,0,1-.39.46c-.34.28-.68.49-1,.74A2.33,2.33,0,0,1,44.37,82.56Zm5.72,8.29a1.47,1.47,0,0,1-.8.33c-.43,0-.82.06-1.25.06s-.95-.09-1.44-.12a.83.83,0,0,1-.27,0c-.19,0-.37,0-.49-.21a1.66,1.66,0,0,0-.31-.22,1.67,1.67,0,0,1,.15-.24c.09-.09.19-.15.28-.25a.55.55,0,0,1-.46-.39s0-.07,0-.1v-1.4c0-.67-.09-1.35-.09-2s0-1.13,0-1.71c0-.22,0-.4,0-.58a.83.83,0,0,0,.15-.19.43.43,0,0,0,.06-.09c.28,0,.52-.27.83-.09a1.21,1.21,0,0,0,.33,0c.43,0,.89-.12,1.32-.12a3.61,3.61,0,0,1,1,.18c.12,0,.18.18.27.28v0c.06.09.15.21.12.24a1.65,1.65,0,0,1-.39.4,1.86,1.86,0,0,1-1.07.09c-.34,0-.71,0-1.07,0,0,0-.1.09-.1.15v1.47c0,.12,0,.34,0,.37a1,1,0,0,0,.49.09c.55,0,1.1,0,1.65,0,.13,0,.25.18.37.28l.09.09a.18.18,0,0,1,0,.12,1.41,1.41,0,0,1-.67.52,3.54,3.54,0,0,1-1.13.12h-.83a2.37,2.37,0,0,1,0,.46l-.09.83c0,.12,0,.27,0,.39a.62.62,0,0,1-.09.34,8.29,8.29,0,0,1,2.11.06c.31,0,.61,0,.89,0a.94.94,0,0,1,.42.19C50.36,90.42,50.33,90.66,50.09,90.85Zm9.14-5.66c-.09.31-.06.61-.15.92a2.87,2.87,0,0,1-.31.85,10,10,0,0,0-.67,1.87A4.41,4.41,0,0,1,57.49,90a2.62,2.62,0,0,0-.28.43c0,.06-.06.12-.12.12-.25.06-.43.24-.7.15-.65-1.53-1.23-3.09-1.78-4.68a3.33,3.33,0,0,0-.27,1.2,3.52,3.52,0,0,1-.19.76,11.87,11.87,0,0,1-.82,2,1.78,1.78,0,0,1-.8.89.37.37,0,0,1-.46,0c-.09-.06-.21-.1-.21-.25s0-.06,0-.12,0-.15,0-.18a2.41,2.41,0,0,1-.37-.92c-.12-.43-.15-.86-.24-1.29a13.68,13.68,0,0,0-.4-1.31c-.15-.49-.27-1-.46-1.44-.12-.3-.15-.64-.43-.85a.21.21,0,0,1,0-.13,1.64,1.64,0,0,1,.4-.33,3.73,3.73,0,0,1,.8-.06.48.48,0,0,1,.46.33,13.45,13.45,0,0,1,.58,1.41c.21.58.36,1.19.55,1.8l.06,0c0-.15.09-.3.12-.45l.64-2.33a1.42,1.42,0,0,1,.28-.49c0-.06.15-.09.21-.12s.09,0,.09,0c.16-.25.4-.15.58-.12a1,1,0,0,1,.49.27c.13.15.19.4.31.55a10.09,10.09,0,0,1,.89,2c.12.31.21.64.33,1,0,0,.09.06.12.12s.1-.09.1-.12c.21-.58.42-1.13.61-1.71l.27-.92c.09-.25.19-.46.28-.67a.41.41,0,0,1,.15-.25.49.49,0,0,1,.73.22A.7.7,0,0,1,59.23,85.19Zm0-3.73c-.18-.43-.34-.86-.52-1.29-.58,0-1.1.07-1.65.07A1.82,1.82,0,0,1,56,80a1,1,0,0,0-.43-.12.27.27,0,0,0-.15.12c-.28.46-.52.92-.8,1.38a.77.77,0,0,1-.64.36,2.41,2.41,0,0,1-.64-.12.2.2,0,0,1-.12-.21,5.07,5.07,0,0,1,.42-1.5c.25-.61.52-1.22.8-1.8.15-.34.3-.65.46-1s.18-.55.27-.83A3.31,3.31,0,0,1,56,74.85c.15-.15.3-.33.55-.3a1.69,1.69,0,0,0,.36-.12.21.21,0,0,1,.19,0c.36.24.82.33,1.07.7a10,10,0,0,1,.58,1,14.39,14.39,0,0,1,.67,1.37c.12.31.19.61.31.92s.24.7.33,1.07c.07.15.07.31.13.46a1.78,1.78,0,0,0,.12.24c.15.4.33.77.49,1.17a.49.49,0,0,1-.09.52.67.67,0,0,1-.77.15,3.18,3.18,0,0,1-.61-.31C59.29,81.61,59.26,81.52,59.26,81.46Zm5.08,9.36a.72.72,0,0,1-.89.15.14.14,0,0,0-.15,0,5.29,5.29,0,0,1-2,.15,1.28,1.28,0,0,1-1.32-1.44V87.82c0-.67-.09-1.38-.09-2,0-.46,0-.89,0-1.35v-.06c-.15-.3.12-.42.25-.61a.18.18,0,0,1,.12,0c.18,0,.36,0,.55,0s.18-.06.3-.06c.34,0,.65-.06,1-.06a14.12,14.12,0,0,1,1.59.09.72.72,0,0,1,.58.28c.13.18-.09.42-.24.55a1.29,1.29,0,0,1-.8.21l-1.77,0c-.28,0-.28,0-.21.31a7.14,7.14,0,0,1,.15,1.13c0,.21,0,.43.06.61a5.65,5.65,0,0,0,.64.06c.22,0,.43-.06.64-.06a5,5,0,0,1,1,.06.75.75,0,0,1,.37.28c.06.06.06.15,0,.27a1.32,1.32,0,0,1-1.07.46c-.43,0-.83,0-1.26,0-.15,0-.21.09-.21.18V89.9a.16.16,0,0,0,.18.18A4.61,4.61,0,0,0,63.05,90a.54.54,0,0,1,.67.21.21.21,0,0,0,.13,0,2.3,2.3,0,0,1,.42.13C64.43,90.51,64.46,90.69,64.34,90.82Zm-.77-11.35c-.46-.06-.46-.06-.52.37-.09.7-.15,1.4-.18,2.11a.26.26,0,0,1-.19.27.58.58,0,0,1-.79,0,.11.11,0,0,0-.09,0c-.25,0-.31-.15-.37-.3a3.55,3.55,0,0,1-.06-.55,2.85,2.85,0,0,1-.06-.49c0-.09,0-.19,0-.25.09-.64.18-1.31.24-1.95,0-.4,0-.83,0-1.23s0-.82,0-1.22-.06-.7-.09-1.07a.34.34,0,0,1,.19-.31c.27-.15.42,0,.64.13a.57.57,0,0,0,.24.06h1.62a3.46,3.46,0,0,0,1-.13,1.13,1.13,0,0,1,1.26.68c0,.09,0,.15-.07.18s-.27.21-.42.28a1.36,1.36,0,0,1-.49.12,8.18,8.18,0,0,1-1.23.09c-.33,0-.67,0-1,0a.16.16,0,0,0-.18.18c0,.55,0,1.13,0,1.68,0,.19.09.25.25.25a1.71,1.71,0,0,1,.39,0v0c.34,0,.65-.06,1-.06.12,0,.22.09.34.12s.09.09.12.09c.22.06.25.28.34.4s0,.12,0,.18a1,1,0,0,1-.55.34A3.39,3.39,0,0,1,63.57,79.47Zm6.64,12.26a.61.61,0,0,1-.62-.33c-.21-.43-.39-.89-.64-1.32-.12-.21-.27-.4-.39-.61s-.25-.34-.37-.52a.31.31,0,0,0-.34-.12,4.1,4.1,0,0,1-1.34-.09,8.73,8.73,0,0,1-.1,1,7.49,7.49,0,0,1-.18.79.31.31,0,0,1-.18.15c-.22.07-.4.25-.64.25a.23.23,0,0,1-.25-.18,2.74,2.74,0,0,1-.18-1c0-.37,0-.74,0-1.1a3.93,3.93,0,0,0-.06-.59,2.73,2.73,0,0,1-.1-.48c0-.8.1-1.62.13-2.42v-.76c0-.13,0-.22.15-.25a.63.63,0,0,0,.24-.18,1.42,1.42,0,0,1,.71-.31c.36-.06.76-.12,1.16-.15a2.09,2.09,0,0,1,1.41.3,3.61,3.61,0,0,1,1.19,1,3.84,3.84,0,0,1,.27.83c0,.09,0,.21.1.27a1.48,1.48,0,0,1,.33.77,1.55,1.55,0,0,1-.06.64,2.2,2.2,0,0,1-.73,1c-.13.09-.06.21,0,.28a5.66,5.66,0,0,1,.79,1.62,4.42,4.42,0,0,1,.25.7A.56.56,0,0,1,70.21,91.73ZM76,84.79c-.15.28-.33.55-.51.83s-.22.36-.34.52c-.31.36-.61.7-.89,1a.34.34,0,0,0-.09.24c0,.37.06.7.09,1.07a7.8,7.8,0,0,1,.09.83c0,.33,0,.67,0,1a1,1,0,0,1-.15.52.67.67,0,0,1-.79.18c-.19-.09-.22-.21-.25-.4-.06-.64-.18-1.25-.27-1.89a4.61,4.61,0,0,1-.07-.68,1.52,1.52,0,0,0-.33-1c-.28-.37-.55-.77-.83-1.14-.15-.18-.33-.36-.52-.55s-.43-.49-.61-.73a.9.9,0,0,1-.15-.31c-.06-.15.12-.12.18-.18a.79.79,0,0,1,.77-.15,1.64,1.64,0,0,1,.45.24,3.88,3.88,0,0,1,1,.8c.28.33.49.67.74,1,.12.15.15.18.3,0s.31-.4.46-.61.49-.62.73-.89.22-.28.34-.4.49-.12.73.09C76.05,84.33,76.05,84.64,76,84.79Zm2.91,1.47-.06-.12s.06-.06.09-.06.06,0,.09.06Zm2.54-1.84c0-.33.24-.42.46-.48C81.7,84.39,81.7,84.39,81.4,84.42ZM83,83.23c.06-.15.12-.24.21-.46C83.32,83.08,83.23,83.17,83,83.23Zm.7-.43-.12-.21s.09,0,.12-.06.06.15.09.21A.43.43,0,0,1,83.66,82.8Zm.58-.67a2.77,2.77,0,0,0,.22-.37C84.64,82,84.61,82.07,84.24,82.13Zm1.1-1.19.55-.46C85.92,81,85.8,81.15,85.34,80.94Zm1.53-34c-.06.09-.09.18-.15.27l.09.06c-.06.22,0,.46-.21.64a1.87,1.87,0,0,0-.16.28l-.18.37a3,3,0,0,0-.21.49c-.16.33-.34.67-.49,1a.84.84,0,0,1-.13.27c-.09.12-.12.28-.3.34s-.12.12-.19.18-.33.06-.48,0c-.37-.21-.71-.46-1.07-.64s-.74-.28-1.11-.43-.7-.21-1.07-.31a1.46,1.46,0,0,0-.36,0,5.66,5.66,0,0,0-2.17.22,6.28,6.28,0,0,0-.65.3,7,7,0,0,0-1.1,1c-.24.22-.52.4-.76.61a3,3,0,0,0-.22.31,9.73,9.73,0,0,0-.7,1.77c-.12.43-.21.86-.33,1.29-.07.27-.16.52-.22.79a9.29,9.29,0,0,0-.09,1,13.81,13.81,0,0,0,0,1.93,9.16,9.16,0,0,1,0,1.28,1.19,1.19,0,0,0,.18.73c.16.25.25.49.4.74a4.15,4.15,0,0,0,.43.58,3.25,3.25,0,0,0,1,.85,4.46,4.46,0,0,0,1.56.43,4.13,4.13,0,0,0,.61,0c.37,0,.7-.12,1.07-.15a3.06,3.06,0,0,0,1.31-.46c.13-.06.25-.15.4-.24a.3.3,0,0,0,.15-.34c0-.18,0-.4-.06-.58a5.9,5.9,0,0,0-.15-.73.26.26,0,0,0-.21-.19c-.28,0-.52,0-.8,0a.37.37,0,0,1-.27-.12l-.4-.34a.23.23,0,0,0,.06-.15.27.27,0,0,0,0-.15,9.54,9.54,0,0,1-.18-2.45c0-.3.06-.61.09-1a.2.2,0,0,1,.21-.21c.12,0,.12-.06.12-.15a1.14,1.14,0,0,1,0-.37.16.16,0,0,1,.21-.12,2.36,2.36,0,0,0,.46,0,7.49,7.49,0,0,1,.82,0,.42.42,0,0,0,.19,0l1.56-.09.7-.1c.37-.06.7-.15,1.07-.21a2.2,2.2,0,0,0,.43-.09c.09,0,.24.06.37.12a1.52,1.52,0,0,1,.36.31,1.2,1.2,0,0,1,.28.52,2.28,2.28,0,0,1,0,.64c0,.33,0,.67,0,1s0,.88-.06,1.34,0,.64,0,1c0,.49,0,1-.07,1.47,0,.33,0,.64-.06,1,0,.12,0,.27,0,.39V63a.91.91,0,0,0,0,.4c0,.09,0,.18,0,.3v.49c0,.06-.06.12-.09.19s0,.09,0,.12a.35.35,0,0,1-.27.33,1.4,1.4,0,0,0-.43.16c-.31.21-.55.49-.86.67a.23.23,0,0,1-.12.06c-.21,0-.34.12-.52.25a1.91,1.91,0,0,1-.21.06.21.21,0,0,0-.13,0,2.84,2.84,0,0,1-.82.4,7.34,7.34,0,0,0-.74.27l-.24.09c-.49.12-1,.28-1.5.4s-1,.24-1.56.34a9.56,9.56,0,0,1-1.59.18,5.28,5.28,0,0,1-1.68-.09,3.31,3.31,0,0,1-.61-.37,1.08,1.08,0,0,0-.22-.12c-.42-.12-.82-.25-1.25-.4a2.47,2.47,0,0,1-.7-.3A4.44,4.44,0,0,1,71.58,65c-.12-.25-.3-.43-.43-.68-.06-.09-.09-.21-.15-.3-.12-.25-.27-.49-.4-.73s-.12-.34-.21-.49a.93.93,0,0,1-.12-.4c0-.09-.06-.15-.16-.25a1,1,0,0,1-.3-.49c-.22-1.07-.4-2.17-.61-3.24a6.61,6.61,0,0,1-.13-1.77c0-.37.07-.73.1-1.1s.09-.77.18-1.16a9.34,9.34,0,0,1,.61-2c.25-.58.43-1.19.71-1.74a6.43,6.43,0,0,1,.76-1.29,11.45,11.45,0,0,1,.79-.91c.25-.25.49-.52.74-.77s.7-.67,1.1-1,.82-.58,1.25-.88a5,5,0,0,0,.49-.31s.06-.06.06-.09.13-.22.22-.25c.33-.18.67-.36,1-.55a2.58,2.58,0,0,1,.82-.24c.25-.06.52-.15.8-.19s.73,0,1.1,0c.21,0,.43-.06.64-.06l.82,0a5.2,5.2,0,0,1,.68.06c.27.07.55.13.82.22l.58.18a3.6,3.6,0,0,1,.4.22l.67.27c.28.12.59.25.86.4l.43.18a1.32,1.32,0,0,1,.4.28,1.44,1.44,0,0,0,.33.27C86.78,46.48,86.9,46.66,86.87,46.91Zm-3.18,3.63a.48.48,0,0,1,.18.65C83.57,51,83.78,50.73,83.69,50.54Zm3.88,12c0-.09-.09-.15-.12-.24l.06-.06a1.33,1.33,0,0,1,.19.21S87.64,62.47,87.57,62.5Zm.22-6.73-.06-.06.06-.06,0,0C87.82,55.74,87.82,55.77,87.79,55.77Zm.06-11s-.09,0-.12.06-.19-.16-.22-.28c-.12-.46-.21-.89-.33-1.34,0,0,.06-.06.12-.19C87.54,43.63,88,44.12,87.85,44.77Zm4.07-21.23c0,.49-.06.95-.06,1.44,0,.34,0,.71-.07,1,0,.58-.09,1.16-.09,1.71s0,.95-.06,1.41-.06.83-.06,1.22c0,.62,0,1.26,0,1.87s0,.92,0,1.37a8.22,8.22,0,0,0,0,.86c0,.31,0,.58,0,.89v1.43c0,.62,0,1.26.06,1.87,0,.43,0,.83,0,1.25a7.12,7.12,0,0,1,0,.8.53.53,0,0,1-.15.34,1.25,1.25,0,0,1-.61.42.92.92,0,0,1-.43.06h-.06c-.12-.12-.24,0-.37-.06a.22.22,0,0,1-.15,0,3.72,3.72,0,0,1-.61-.43,3.48,3.48,0,0,1-.74-.64c-.27-.27-.55-.49-.82-.76a3.38,3.38,0,0,0-.37-.31c-.18-.18-.36-.4-.55-.58L86.23,38,85.4,37c-.21-.25-.39-.52-.61-.8a5.27,5.27,0,0,0-.46-.48,4.73,4.73,0,0,0-.46-.52,5.45,5.45,0,0,0-.45-.49c-.34-.37-.68-.71-1-1.07-.19-.19-.34-.4-.52-.58s-.31-.28-.43-.4a3.63,3.63,0,0,0-.34-.34,1.66,1.66,0,0,0-.24-.18c0,.12,0,.21-.06.3,0,.52-.09,1-.13,1.56s0,.8-.06,1.2,0,.82-.06,1.22v1.07c0,.43-.06.82-.06,1.25v1.71c0,.31,0,.65.06,1a1.84,1.84,0,0,1,0,.4,1.16,1.16,0,0,1-.27.73c-.12.16-.34.16-.49.22a3.75,3.75,0,0,1-.52.15l-.46.12a1.34,1.34,0,0,1-.31-.09.51.51,0,0,0-.21,0,1.47,1.47,0,0,1-.4.09c-.27.06-.55.09-.82.13a.42.42,0,0,1-.43-.1.24.24,0,0,1,0-.33,1.42,1.42,0,0,0,.18-.22c-.12,0-.21,0-.3-.06s-.07-.06-.1-.09l-.09-.46c0-.52,0-1-.06-1.56s-.06-.79-.06-1.22,0-.74,0-1.1,0-1,0-1.44v-3.3c0-.22,0-.43,0-.64v-2c0-.37,0-.71,0-1.07s0-1,.06-1.47l.1-1.56c.06-.61.12-1.19.15-1.8a7.13,7.13,0,0,0,0-.8v-.06c0-.12.09-.21.06-.37s.15-.24.31-.3.39-.06.58-.12.33.06.49.18a5.74,5.74,0,0,1,.67.73l.46.58.09.19a7.39,7.39,0,0,0,.67.7c.25.25.49.52.71.77a5.27,5.27,0,0,0,.51.55c.22.21.4.42.62.64s.49.52.73.79.34.37.52.55.37.43.58.65c.4.42.8.82,1.16,1.25s.58.61.89.95.34.42.52.61.18.15.27.24.13,0,.13-.06a1.75,1.75,0,0,0,0-.4.65.65,0,0,1,0-.24s0-.09,0-.12c0-.25,0-.49.06-.74s.06-.76.09-1.16,0-.61.06-.95c0-.12,0-.24,0-.36,0-.49.09-1,.13-1.5s.06-.95.12-1.41.12-.82.15-1.25.09-.8.12-1.19v-.4l.09-.46a.17.17,0,0,1,.22-.12c.06,0,.12,0,.18,0h.34A7,7,0,0,1,90,21.77l1.34-.06a.27.27,0,0,1,.25.15c.09.19.21.34.31.52s0,.09.06.13A3.94,3.94,0,0,1,91.92,23.54Zm1,20.89c-.22-.18,0-.46-.07-.67H93c0,.21,0,.46.06.67ZM29.84,28.31c-.15.37-.27.68-.42,1l.52-.18C29.9,28.9,29.87,28.62,29.84,28.31Zm-.33,12.36v-.12l.09,0c0-.22,0-.43-.06-.61h-.06a1.38,1.38,0,0,0,0,.7Zm-.25-3.61a.75.75,0,0,0,.09.37c0-.25,0-.49,0-.74h0C29.29,36.82,29.26,36.94,29.26,37.06Zm0-.67c0-.09,0-.19,0-.28h0c0,.09,0,.19,0,.28S29.29,36.42,29.29,36.39Zm.13,2.11c0-.19,0-.4,0-.58h0A1.14,1.14,0,0,0,29.42,38.5ZM42.35,68.68s0,0,.06,0c.12-.19.28-.4.4-.58-.28-.19-.43-.09-.43.15A1.63,1.63,0,0,0,42.35,68.68ZM90,40.12c-.06,0-.12,0-.21,0s0,.06.06.06l.21.18.28.28a.22.22,0,0,0,.15,0s0-.09,0-.12a.44.44,0,0,0-.06-.22C90.39,40.18,90.11,40.06,90,40.12ZM34.49,71.43c-.3.12-.33.15-.3.52v.12c0,.15,0,.31,0,.46.27,0,.3-.09.21-.31a.2.2,0,0,1,0-.18C34.43,71.83,34.46,71.61,34.49,71.43Zm.22-2.6a1.57,1.57,0,0,0,0-.92A4.71,4.71,0,0,0,34.71,68.83Zm-2,3a.16.16,0,0,0-.06.12v.24c0,.37.06.4.43.28l0,0a2.22,2.22,0,0,0,0-.43A.32.32,0,0,0,32.72,71.86Zm2.93-1.16s0,0,0,.06a4,4,0,0,0,.52-.31,0,0,0,0,0,0,0Zm-5,2.11-.15.09s0,.06.06.09l.15-.09C30.67,72.84,30.67,72.81,30.64,72.81ZM42.38,52.56c-.06-.06-.09-.12-.15-.15a7,7,0,0,0-.77-.15v.06c.28.06.58.18.92.24Zm-10.73,19a3,3,0,0,0,0-.52c0-.33,0-.67-.06-1s0-.85-.06-1.25-.1-1.07-.16-1.59a1.84,1.84,0,0,0,0-.4c0-.12,0-.24,0-.33h-.06a46.55,46.55,0,0,0,.34,6.26.16.16,0,0,0,.09-.15c0-.12,0-.21,0-.33ZM7,68.71a4.3,4.3,0,0,0-4.25-1.19c-.49.12-1,.18-1.53.27a.59.59,0,0,0-.55.55c0,.12-.06.25-.09.34A5.28,5.28,0,0,0,0,71a9.58,9.58,0,0,0,.15,1,10.89,10.89,0,0,0,.68,1.62,2.15,2.15,0,0,0,.91,1,4.53,4.53,0,0,0,3.52.18l1-.27a1.31,1.31,0,0,0,1-.92A.61.61,0,0,1,7.8,73a.63.63,0,0,0,.49-.37,2.1,2.1,0,0,0,.21-1.22A4.89,4.89,0,0,0,7,68.71Zm-3.3,1.4c.09-.33.15-.64.21-.91H4c.06.27.15.52.24.88A3.2,3.2,0,0,0,3.73,70.11ZM4.8,65l0-.06a.23.23,0,0,0-.12.06s0,.06.06.09Zm30.55-1c-.09.37.15.58.36.86C36,64.4,35.56,64.24,35.35,64ZM83.29,49.41c-.09.25,0,.37.22.52C83.54,49.69,83.54,49.54,83.29,49.41Zm1.23,16.21c-.43.09-.43.09-.25.4A4.1,4.1,0,0,0,84.52,65.62Zm2.08-6.27a.82.82,0,0,0-.4-.85C86.23,58.8,86.23,59.14,86.6,59.35ZM29,45.56a3.42,3.42,0,0,0,0-.79s-.13,0-.19-.07c-.06.28-.12.49-.15.74a.46.46,0,0,0,.06.24A.2.2,0,0,0,29,45.56ZM60.12,86.35a.18.18,0,0,0-.1.06l.07.06.09-.09S60.15,86.32,60.12,86.35Z"/></g></g></svg>