<svg xmlns="http://www.w3.org/2000/svg" viewBox="0 0 50 36"><defs><style>.cls-1{fill:#193166;}.cls-2{fill:#e41c2d;}.cls-3{fill:#fff;}</style></defs><g id="圖層_2" data-name="圖層 2"><g id="_0-ui_kits" data-name="0-ui_kits"><g id="flag_uk_square"><polygon class="cls-1" points="3.46 36 20.82 36 20.82 24.57 3.46 36"/><polygon class="cls-1" points="47.09 0 29.07 0 29.07 11.86 47.09 0"/><polygon class="cls-1" points="0 21.97 0 31 13.71 21.97 0 21.97"/><polygon class="cls-1" points="0 6 0 13.75 11.77 13.75 0 6"/><polygon class="cls-1" points="20.82 0 1.94 0 20.82 12.43 20.82 0"/><polygon class="cls-1" points="29.07 36 45.58 36 29.07 25.14 29.07 36"/><polygon class="cls-1" points="50 13.75 50 15.58 50 20.14 50 21.97 35.32 21.97 50 31.63 50 5.36 37.26 13.75 50 13.75"/><polygon class="cls-2" points="18.7 21.97 0 34.28 0 36 0.62 36 20.82 22.71 20.82 21.97 18.7 21.97"/><polygon class="cls-2" points="50 3.5 50 1.37 31.19 13.75 34.43 13.75 50 3.5"/><polygon class="cls-2" points="0 2.01 0 4.14 14.6 13.75 17.84 13.75 0 2.01"/><polygon class="cls-2" points="29.07 21.97 29.07 23.27 48.41 36 50 36 50 34.92 30.33 21.97 29.07 21.97"/><polygon class="cls-3" points="50 0 47.09 0 29.07 11.86 29.07 0 27.23 0 27.23 13.07 27.23 15.58 28.41 15.58 31.64 15.58 34.48 15.58 50 15.58 50 13.75 37.26 13.75 50 5.36 50 3.5 34.43 13.75 31.19 13.75 50 1.37 50 0"/><polygon class="cls-3" points="21.48 20.14 21.48 20.14 21.49 20.14 21.48 20.14"/><polygon class="cls-3" points="27.55 20.14 27.55 20.14 27.56 20.14 27.55 20.14"/><polygon class="cls-3" points="21.49 20.14 21.48 20.14 21.48 20.14 16.5 20.14 0 20.14 0 21.97 13.71 21.97 0 31 0 34.28 18.7 21.97 20.82 21.97 20.82 22.71 0.62 36 3.46 36 20.82 24.57 20.82 36 22.66 36 22.66 23.36 22.66 21.5 22.66 20.91 22.66 20.14 21.49 20.14"/><polygon class="cls-3" points="20.82 0 20.82 12.43 1.94 0 0 0 0 2.01 17.84 13.75 14.6 13.75 0 4.14 0 6 11.77 13.75 0 13.75 0 15.58 14.55 15.58 17.39 15.58 20.62 15.58 22.66 15.58 22.66 13.64 22.66 0 20.82 0"/><polygon class="cls-3" points="30.33 21.97 50 34.92 50 31.63 35.32 21.97 50 21.97 50 20.14 32.53 20.14 27.56 20.14 27.55 20.14 27.55 20.14 27.23 20.14 27.23 20.35 27.23 22.06 27.23 23.92 27.23 36 29.07 36 29.07 25.14 45.58 36 48.41 36 29.07 23.27 29.07 21.97 30.33 21.97"/><polygon class="cls-2" points="34.48 15.58 31.64 15.58 28.41 15.58 27.23 15.58 27.23 13.07 27.23 0 22.66 0 22.66 13.64 22.66 15.58 20.62 15.58 17.39 15.58 14.55 15.58 0 15.58 0 20.14 16.5 20.14 21.48 20.14 21.49 20.14 22.66 20.14 22.66 20.91 22.66 21.5 22.66 23.36 22.66 36 27.23 36 27.23 23.92 27.23 22.06 27.23 20.35 27.23 20.14 27.55 20.14 27.56 20.14 32.53 20.14 50 20.14 50 15.58 34.48 15.58"/></g></g></g></svg>