<svg xmlns="http://www.w3.org/2000/svg" viewBox="0 0 50 36"><defs><style>.cls-1{fill:#193166;}.cls-2{fill:#e41c2d;}.cls-3{fill:#fff;}.cls-4{fill:#de1a2a;}.cls-5{fill:#fcfdfd;}</style></defs><g id="圖層_2" data-name="圖層 2"><g id="_0-ui_kits" data-name="0-ui_kits"><g id="flag_new_zealand_square"><rect class="cls-1" x="0.01" width="49.99" height="36"/><polygon class="cls-1" points="1.73 18.01 10.41 18.01 10.41 12.29 1.73 18.01"/><polygon class="cls-1" points="23.55 0 14.54 0 14.54 5.93 23.55 0"/><polygon class="cls-1" points="0 10.99 0 15.5 6.86 10.99 0 10.99"/><polygon class="cls-1" points="0 3 0 6.88 5.89 6.88 0 3"/><polygon class="cls-1" points="10.41 0 0.97 0 10.41 6.21 10.41 0"/><polygon class="cls-1" points="14.54 18.01 22.79 18.01 14.54 12.57 14.54 18.01"/><polygon class="cls-1" points="25 6.88 25 7.79 25 10.07 25 10.99 17.66 10.99 25 15.82 25 2.68 18.64 6.88 25 6.88"/><polygon class="cls-2" points="9.35 10.99 0 17.15 0 18.01 0.31 18.01 10.41 11.36 10.41 10.99 9.35 10.99"/><polygon class="cls-2" points="25 1.75 25 0.69 15.6 6.88 17.22 6.88 25 1.75"/><polygon class="cls-2" points="0 1 0 2.07 7.3 6.88 8.92 6.88 0 1"/><polygon class="cls-2" points="14.54 10.99 14.54 11.64 24.21 18.01 25 18.01 25 17.46 15.17 10.99 14.54 10.99"/><polygon class="cls-3" points="25 0 23.55 0 14.54 5.93 14.54 0 13.62 0 13.62 6.54 13.62 7.79 14.21 7.79 15.82 7.79 17.24 7.79 25 7.79 25 6.88 18.64 6.88 25 2.68 25 1.75 17.22 6.88 15.6 6.88 25 0.69 25 0"/><polygon class="cls-3" points="10.74 10.07 10.74 10.07 10.75 10.07 10.74 10.07"/><polygon class="cls-3" points="13.78 10.07 13.78 10.07 13.78 10.07 13.78 10.07"/><polygon class="cls-3" points="10.75 10.07 10.74 10.07 10.74 10.07 8.25 10.07 0 10.07 0 10.99 6.86 10.99 0 15.5 0 17.15 9.35 10.99 10.41 10.99 10.41 11.36 0.31 18.01 1.73 18.01 10.41 12.29 10.41 18.01 11.33 18.01 11.33 11.68 11.33 10.75 11.33 10.46 11.33 10.07 10.75 10.07"/><polygon class="cls-3" points="10.41 0 10.41 6.21 0.97 0 0 0 0 1 8.92 6.88 7.3 6.88 0 2.07 0 3 5.89 6.88 0 6.88 0 7.79 7.28 7.79 8.7 7.79 10.31 7.79 11.33 7.79 11.33 6.82 11.33 0 10.41 0"/><polygon class="cls-3" points="15.17 10.99 25 17.46 25 15.82 17.66 10.99 25 10.99 25 10.07 16.27 10.07 13.78 10.07 13.78 10.07 13.78 10.07 13.62 10.07 13.62 10.18 13.62 11.03 13.62 11.97 13.62 18.01 14.54 18.01 14.54 12.57 22.79 18.01 24.21 18.01 14.54 11.64 14.54 10.99 15.17 10.99"/><polygon class="cls-2" points="17.24 7.79 15.82 7.79 14.21 7.79 13.62 7.79 13.62 6.54 13.62 0 11.33 0 11.33 6.82 11.33 7.79 10.31 7.79 8.7 7.79 7.28 7.79 0 7.79 0 10.07 8.25 10.07 10.74 10.07 10.75 10.07 11.33 10.07 11.33 10.46 11.33 10.75 11.33 11.68 11.33 18.01 13.62 18.01 13.62 11.97 13.62 11.03 13.62 10.18 13.62 10.07 13.78 10.07 13.78 10.07 16.27 10.07 25 10.07 25 7.79 17.24 7.79"/><polygon class="cls-4" points="39.45 26.22 37.68 26.2 37.15 24.51 36.58 26.18 34.81 26.17 36.23 27.22 35.66 28.9 37.11 27.87 38.53 28.93 38.01 27.24 39.45 26.22"/><path class="cls-3" d="M40.22,26l-2.36,0-.7-2.25-.76,2.23-2.36,0,1.9,1.4-.76,2.23,1.93-1.36L39,29.59l-.7-2.25Zm-3.11,1.89-1.45,1,.57-1.68-1.42-1h1.77l.57-1.67.53,1.69,1.77,0-1.44,1,.53,1.69Z"/><polygon class="cls-4" points="34.07 16.72 32.49 16.7 32.02 15.2 31.52 16.69 29.95 16.67 31.21 17.61 30.71 19.1 31.99 18.19 33.26 19.12 32.79 17.63 34.07 16.72"/><path class="cls-3" d="M34.75,16.5l-2.09,0-.63-2-.67,2-2.09,0L31,17.69l-.67,2L32,18.46l1.68,1.25-.62-2ZM32,18.19l-1.28.91.5-1.49L30,16.67l1.57,0L32,15.2l.47,1.5,1.58,0-1.28.91.47,1.49Z"/><polygon class="cls-4" points="39.64 8.54 38.29 8.52 37.89 7.24 37.46 8.51 36.11 8.5 37.19 9.3 36.76 10.57 37.86 9.79 38.94 10.59 38.54 9.31 39.64 8.54"/><path class="cls-3" d="M40.22,8.35l-1.79,0-.54-1.7-.57,1.69-1.79,0L37,9.37l-.57,1.69,1.46-1,1.44,1.06-.54-1.7ZM37.86,9.79l-1.1.78.43-1.27-1.08-.8h1.35l.43-1.27.4,1.28,1.35,0-1.1.77.4,1.28Z"/><polygon class="cls-4" points="45.94 13.74 44.68 13.72 44.3 12.52 43.9 13.71 42.64 13.7 43.65 14.45 43.25 15.64 44.27 14.91 45.29 15.66 44.91 14.46 45.94 13.74"/><path class="cls-5" d="M46.48,13.56H44.81l-.5-1.6-.54,1.59-1.68,0,1.35,1-.53,1.58,1.36-1,1.35,1-.5-1.6Zm-2.21,1.35-1,.73.4-1.19-1-.75H43.9l.4-1.19.38,1.2,1.26,0-1,.72.38,1.2Z"/></g></g></g></svg>