<svg xmlns="http://www.w3.org/2000/svg" viewBox="0 0 50 36"><defs><style>.cls-1{fill:#193166;}.cls-2{fill:#e41c2d;}.cls-3{fill:#fff;}</style></defs><g id="圖層_2" data-name="圖層 2"><g id="_0-ui_kits" data-name="0-ui_kits"><g id="flag_australia_square"><rect class="cls-1" width="50" height="36"/><polygon class="cls-1" points="1.73 18 10.41 18 10.41 12.29 1.73 18"/><polygon class="cls-1" points="23.54 0 14.54 0 14.54 5.93 23.54 0"/><polygon class="cls-1" points="0 10.98 0 15.5 6.86 10.98 0 10.98"/><polygon class="cls-1" points="0 3 0 6.87 5.88 6.87 0 3"/><polygon class="cls-1" points="10.41 0 0.97 0 10.41 6.21 10.41 0"/><polygon class="cls-1" points="14.54 18 22.79 18 14.54 12.57 14.54 18"/><polygon class="cls-1" points="25 6.87 25 7.79 25 10.07 25 10.98 17.66 10.98 25 15.82 25 2.68 18.63 6.87 25 6.87"/><polygon class="cls-2" points="9.35 10.98 0 17.14 0 18 0.31 18 10.41 11.35 10.41 10.98 9.35 10.98"/><polygon class="cls-2" points="25 1.75 25 0.69 15.6 6.87 17.21 6.87 25 1.75"/><polygon class="cls-2" points="0 1 0 2.07 7.3 6.87 8.92 6.87 0 1"/><polygon class="cls-2" points="14.54 10.98 14.54 11.64 24.2 18 25 18 25 17.46 15.16 10.98 14.54 10.98"/><polygon class="cls-3" points="25 0 23.54 0 14.54 5.93 14.54 0 13.62 0 13.62 6.54 13.62 7.79 14.2 7.79 15.82 7.79 17.24 7.79 25 7.79 25 6.87 18.63 6.87 25 2.68 25 1.75 17.21 6.87 15.6 6.87 25 0.69 25 0"/><polygon class="cls-3" points="10.74 10.07 10.74 10.07 10.74 10.07 10.74 10.07"/><polygon class="cls-3" points="13.77 10.07 13.78 10.07 13.78 10.07 13.77 10.07"/><polygon class="cls-3" points="10.74 10.07 10.74 10.07 10.74 10.07 8.25 10.07 0 10.07 0 10.98 6.86 10.98 0 15.5 0 17.14 9.35 10.98 10.41 10.98 10.41 11.35 0.31 18 1.73 18 10.41 12.29 10.41 18 11.33 18 11.33 11.68 11.33 10.75 11.33 10.46 11.33 10.07 10.74 10.07"/><polygon class="cls-3" points="10.41 0 10.41 6.21 0.97 0 0 0 0 1 8.92 6.87 7.3 6.87 0 2.07 0 3 5.88 6.87 0 6.87 0 7.79 7.28 7.79 8.69 7.79 10.31 7.79 11.33 7.79 11.33 6.82 11.33 0 10.41 0"/><polygon class="cls-3" points="15.16 10.98 25 17.46 25 15.82 17.66 10.98 25 10.98 25 10.07 16.27 10.07 13.78 10.07 13.78 10.07 13.77 10.07 13.62 10.07 13.62 10.18 13.62 11.03 13.62 11.96 13.62 18 14.54 18 14.54 12.57 22.79 18 24.2 18 14.54 11.64 14.54 10.98 15.16 10.98"/><polygon class="cls-2" points="17.24 7.79 15.82 7.79 14.2 7.79 13.62 7.79 13.62 6.54 13.62 0 11.33 0 11.33 6.82 11.33 7.79 10.31 7.79 8.69 7.79 7.28 7.79 0 7.79 0 10.07 8.25 10.07 10.74 10.07 10.74 10.07 11.33 10.07 11.33 10.46 11.33 10.75 11.33 11.68 11.33 18 13.62 18 13.62 11.96 13.62 11.03 13.62 10.18 13.62 10.07 13.77 10.07 13.78 10.07 16.27 10.07 25 10.07 25 7.79 17.24 7.79"/><polygon class="cls-3" points="12.98 21.71 13.88 25.29 17.23 23.75 14.99 26.68 18.29 28.34 14.59 28.41 15.34 32.02 12.98 29.19 10.62 32.02 11.37 28.41 7.68 28.34 10.97 26.68 8.73 23.75 12.09 25.29 12.98 21.71"/><polygon class="cls-3" points="40.7 26.71 41.14 28.47 42.79 27.72 41.69 29.15 43.31 29.97 41.49 30.01 41.86 31.78 40.7 30.39 39.54 31.78 39.91 30.01 38.1 29.97 39.72 29.15 38.61 27.72 40.26 28.47 40.7 26.71"/><polygon class="cls-3" points="31.43 14.03 31.87 15.79 33.52 15.04 32.42 16.47 34.04 17.29 32.22 17.33 32.59 19.1 31.43 17.71 30.27 19.1 30.64 17.33 28.82 17.29 30.44 16.47 29.34 15.04 30.99 15.79 31.43 14.03"/><polygon class="cls-3" points="38.1 3.4 38.54 5.15 40.19 4.4 39.08 5.84 40.7 6.66 38.89 6.69 39.26 8.46 38.1 7.07 36.94 8.46 37.31 6.69 35.49 6.66 37.11 5.84 36.01 4.4 37.66 5.15 38.1 3.4"/><polygon class="cls-3" points="45.91 10.04 46.35 11.79 48 11.04 46.9 12.47 48.52 13.29 46.7 13.33 47.07 15.1 45.91 13.71 44.76 15.1 45.12 13.33 43.31 13.29 44.93 12.47 43.83 11.04 45.48 11.79 45.91 10.04"/><polygon class="cls-3" points="43.03 19.82 43.36 20.85 44.45 20.85 43.57 21.48 43.91 22.51 43.03 21.87 42.16 22.51 42.49 21.48 41.62 20.85 42.7 20.85 43.03 19.82"/></g></g></g></svg>