<svg xmlns="http://www.w3.org/2000/svg" viewBox="0 0 50.98 36.83"><defs><style>.cls-1{fill:#e73740;}.cls-2{fill:#fff;}.cls-3{fill:none;stroke:#666;stroke-miterlimit:10;stroke-width:0.75px;}</style></defs><g id="圖層_2" data-name="圖層 2"><g id="_0-ui_kits" data-name="0-ui_kits"><g id="flag_singapore_square"><rect class="cls-1" x="0.38" y="0.38" width="50" height="18"/><rect class="cls-2" x="0.38" y="18.38" width="50" height="18"/><path class="cls-2" d="M13.83,3.25A6.59,6.59,0,0,0,10.24,3,6.12,6.12,0,0,0,10,14.84a6.76,6.76,0,0,0,3.8,0s-5.51-.55-5.53-5.9S13.83,3.25,13.83,3.25Z"/><polygon class="cls-2" points="14.42 10.26 14.79 11.39 15.98 11.39 15.01 12.09 15.38 13.22 14.42 12.52 13.46 13.22 13.82 12.09 12.86 11.39 14.05 11.39 14.42 10.26"/><polygon class="cls-2" points="18.45 10.26 18.82 11.39 20.01 11.39 19.05 12.09 19.42 13.22 18.45 12.52 17.49 13.22 17.86 12.09 16.89 11.39 18.09 11.39 18.45 10.26"/><polygon class="cls-2" points="13.06 6.36 13.43 7.49 14.62 7.49 13.66 8.19 14.02 9.32 13.06 8.62 12.1 9.32 12.46 8.19 11.5 7.49 12.69 7.49 13.06 6.36"/><polygon class="cls-2" points="19.81 6.36 20.18 7.49 21.37 7.49 20.41 8.19 20.77 9.32 19.81 8.62 18.85 9.32 19.21 8.19 18.25 7.49 19.44 7.49 19.81 6.36"/><polygon class="cls-2" points="16.44 3.96 16.8 5.08 17.99 5.08 17.03 5.78 17.4 6.91 16.44 6.21 15.47 6.91 15.84 5.78 14.88 5.08 16.07 5.08 16.44 3.96"/></g><rect class="cls-3" x="0.38" y="0.38" width="50.23" height="36.08"/></g></g></svg>