<svg xmlns="http://www.w3.org/2000/svg" viewBox="0 0 35.74 60.8"><defs><style>.cls-1{fill:#e3d831;}</style></defs><g id="圖層_2" data-name="圖層 2"><g id="_0-ui_kits" data-name="0-ui_kits"><g id="Path_32024" data-name="Path 32024"><path class="cls-1" d="M34.93,46.9c1.06,0,.76-1.49.36-2,.21-.31.66-1,.25-1.28,0-.73-.83-.56-.82-.89.2-.33,1.17-.06.92-.63s-.61-2-1.33-2c.12-1-.33-3.86-1-4.6.22,0,.31-.19.4-.36.11-.73-.36-.88-.81-1.23a18.25,18.25,0,0,1-.5-2.53c-.4-.13-.58,1-1,.08,1-1-.25-2.93-.89-4.15-.4-.77-.36-1.85-1-2.47a3.06,3.06,0,0,0-.75-1.17,1.45,1.45,0,0,0-.4-1.56c0-.05-.06-.11-.1-.16a.85.85,0,0,0-.2-.8c-.18-.21-.64-.71-.68-.77a.35.35,0,0,0-.06-.09s-.26-.28-.21-.32c-.39-.57-1-1.52-1-1.51S25.76,17,25.76,17c.53-1.16-1.14-2.07-1.51-2.24-1-2.51-.6-3.51-1-5.92.14-.1.22-3.53.28-4.72-.51.85-.38-1-.57-1.33A23.52,23.52,0,0,1,21.51,0c-1.17.46-1.57,1.73-2.73,1.62a2.07,2.07,0,0,0-.55.72.54.54,0,0,1,.07.13c0,.1-.19.37-.22.36l0,0a8.68,8.68,0,0,0-.15,2.64c.28,0,.36.61.7.57a14.86,14.86,0,0,1-.38,2c-.14.4-.4.84-1,.81-.31.47-.12,1.31-.52,1.65-.3,1.95-.14,3.87-1.33,5.66-1-.32-.49.18-.41.67a5.8,5.8,0,0,0-.69,2.71l-.4-.21c-1,.71-.53,1.25-1,2.08-.32.55-1,.63-1.26,1a.42.42,0,0,0,.25.35c-.19,0-.72.42-.82.53.16-.17-.12,1-.13,1-.49.62-1.09,1.19-1.55,1.78s-.09,1.41-.88,2L8,28.25c.47.32.42.54-.15.67a1,1,0,0,0-.43,1.34h0A4.62,4.62,0,0,0,5.74,31a12.15,12.15,0,0,0-1.37,2.34c-.72-.43-1.23.18-1.38,1.27-.18,1.4-1.86,2.79-1.88,4.12,0,.09.16,1.61-.06,1.3.57.81-.23.83-.53,1.42a15.47,15.47,0,0,0-.31,2.24c-.5.31,0,2,.29,1.86.2,1-.19.52.31,1.47,0,.43.2,1.29.2,1.81S.68,49.44.83,50a9.47,9.47,0,0,0,.73,2.26c.46.12,1.29-.81,1.21.1-.2-.07-.16.68-.36.72a.36.36,0,0,0,.13.44c.25,0,.52.12.73-.11.25,1.21,1.48,1.49,1.7,2.45a12,12,0,0,0,1.79,1.92c.44.34,1.11.19,1.32.57-1.23.39,1.22,1.36,1,.6,1.17.22,2.57,1.44,4,1.39l2,0a3.66,3.66,0,0,1,1.1.41,2.48,2.48,0,0,1,0-1.27c.38.41.71.78,1,1.14a.54.54,0,0,1,.66-.07c.91.43.91.18,1.9.09.83-.07,1.63-.26,1.54-.11a20,20,0,0,0,4.14-.77c.58-.19,1.07-.78,1.72-.35a.49.49,0,0,0,.25-.12c-.15-.89.9-.81,1,.09v0c.7-.16,1.78-.76,1.55-1.28.19-.46-.46-.15-.43-.47.39-.11,1.48.49,1.72.12,1.11-.69.2-.3.29-1.06.17-.12,1-.67.92-.8.21-.06,1.16-1.44,1-1.64-.21-.36-.89,0-1.28-.3.25-.27.5-.2.82-.42,0,0,1.23-1.47.35-1.49.08-.3.94,0,1-.56s-.25-1-.19-1.36c.09.05.91.43.76,0-.13-.17.35-.63-.2-1.27a.5.5,0,0,1,.34-.24c.4-.2-.24-.41-.4-.51a.38.38,0,0,0,0-.1c.11-.21.68-.36.72-.38C36.34,47.25,35,47,34.93,46.9Z"/></g></g></g></svg>