<svg xmlns="http://www.w3.org/2000/svg" viewBox="0 0 76.95 94"><defs><style>.cls-1{fill:#b69564;stroke:#b69564;stroke-miterlimit:10;}</style></defs><g id="圖層_2" data-name="圖層 2"><g id="_0-ui_kits" data-name="0-ui_kits"><path class="cls-1" d="M71.87,13.37a8.85,8.85,0,0,0-6.85.57c.16-4.47-1.55-9.14-6.31-10.43-3.94-1.06-7.43.83-9.87,3.7A9.93,9.93,0,0,0,46.3,2.75,8.63,8.63,0,0,0,39.17.58C33.43,1.33,30,6,28.55,11.26A6.85,6.85,0,0,0,24.21,9a9.57,9.57,0,0,0-7.92,3.48,12.2,12.2,0,0,0-2.91,9.23c.38,4.63,3.58,8.51,7.07,11.3,0,.06,0,.12,0,.18,0,1.2-.06,2.41-.05,3.61-6.29-.5-12.08,1.78-15.86,7C.94,48.71.05,55.6.69,61.48A25.06,25.06,0,0,0,9.12,78.06a16.67,16.67,0,0,0,15.39,3.45l.53-.17c.2,2.46.33,4.91.38,7.37a1.2,1.2,0,0,0,.71,1A35,35,0,0,0,35.57,93a50.79,50.79,0,0,0,9.7.52,82.66,82.66,0,0,0,19-1.69c.56-.14,1.11-.42,1.17-1,2-19.56,2.08-39.3,2.11-58.95h0c2.17-1.42,4.87-2.24,6.59-4.26a11.08,11.08,0,0,0,2.12-8.43A7.23,7.23,0,0,0,71.87,13.37Zm-8.7,69.08a1.57,1.57,0,0,0-.86,0c-10.84,2.87-22.72,2-33.41-1.09a1.53,1.53,0,0,0-.82,0c-1.29-16-5.16-31.85-4.6-48a.94.94,0,0,0-.14-.56c13.73,1,27.45-1.78,41.2-1.13C64.51,48.59,64.48,65.58,63.17,82.45ZM24.22,73.34a2,2,0,0,0-.55,0c-7.21.76-10.91-7.09-11.54-13.1s1.45-14.3,8.61-14.8C21.46,54.74,23.08,64,24.22,73.34Zm-12.49,3c-4.51-3.42-7.11-8.84-8-14.31S3.39,50.32,6.24,45.57c3-5,8.29-6.71,13.87-6.11a1.58,1.58,0,0,0,.31,0c0,1.2.09,2.4.16,3.6C3.44,45.12,6.13,77.51,23.79,75.66a1.47,1.47,0,0,0,.67-.21c.14,1.16.26,2.32.37,3.48C20.26,80.47,15.51,79.18,11.73,76.31ZM37,90.89a30.64,30.64,0,0,1-8.56-2.72c0-1.55-.11-3.11-.21-4.66l.22.08c11,3.22,23.33,4,34.52,1.2-.14,1.67-.3,3.34-.47,5a81.63,81.63,0,0,1-16.66,1.4A53.27,53.27,0,0,1,37,90.89ZM71.23,27a24.85,24.85,0,0,1-4.5,2.61,2.15,2.15,0,0,0-.61-.13c-14.83-1-29.64,2.36-44.46.88C17.28,26.31,14.27,20.08,18,14.54A6.66,6.66,0,0,1,23,11.34c2.54-.11,4.16,2.44,4.95,4.51.48,1.26,2.91.92,3-.46.26-5.05,2.44-11.25,8-12.45,5-1.09,7.45,4.31,7.44,8.44,0,1.56,2.42,1.29,2.92.16,1.45-3.24,4.58-7.09,8.58-5.67,4.17,1.48,4.6,6.76,4,10.43-.24,1.39,1.85,1.13,2.5.7,1.91-1.27,4.53-2.47,6.72-1.14,1.84,1.12,2.49,3.43,2.46,5.46S72.73,25.7,71.23,27Z"/></g></g></svg>