<svg xmlns="http://www.w3.org/2000/svg" viewBox="0 0 178.05 100"><defs><style>.cls-1{fill:#db093b;}.cls-2{fill:#d4aa6a;}.cls-3{fill:#fff;}</style></defs><g id="圖層_2" data-name="圖層 2"><g id="圖層_1-2" data-name="圖層 1"><path class="cls-1" d="M134.54,92.72C115.77,93.92,97.17,100,84.76,100,71,100,51.35,93.64,35.34,92.72V0h99.2Z"/><rect class="cls-2" x="30.87" y="0.01" width="4.47" height="92.71"/><path d="M35.35,92.73h-4.5V0h4.5Zm-4.47,0h4.45V0H30.88Z"/><rect class="cls-2" x="134.54" y="0.01" width="4.47" height="92.71"/><path d="M139,92.73h-4.5V0H139Zm-4.48,0H139V0h-4.45Z"/><path class="cls-2" d="M12.53,23.61a5.05,5.05,0,0,0,0-1.74c-3,0-7.2,3.93-9.72,6.58a31.41,31.41,0,0,0-.68,3.85S8.08,25.05,12.53,23.61Z"/><path class="cls-2" d="M8.69,41.52c-.35-.78-2.82.52-4.83,1.75-.8,1.85-1.24,3.23-1.24,3.23a40.58,40.58,0,0,1,5.74-3.38C8.57,42.12,8.69,41.52,8.69,41.52Z"/><path class="cls-2" d="M19.68,41.71,17.26,54.19s-1.69,9.35.36,10.15c-.77.5-8,3.81-11.42,2.25,2,4.62,11.59-.8,13.14-1.13-2.56-.61-.65-9.78-.65-9.78L21.11,43.2S30,45.39,33.69,31.37A21.13,21.13,0,0,1,31.27,33C27.21,43.56,19.68,41.71,19.68,41.71Z"/><path class="cls-2" d="M46.54,11.83C45,22.51,32.72,21.4,32.72,21.4l-8.94-.28-3,12.11a7.31,7.31,0,0,0,1.74.22l2.67-10.84,8.94.28s14,1.26,14-11.83C47.6,11.34,47.07,11.6,46.54,11.83Z"/><path class="cls-2" d="M46.94,26.13a4.35,4.35,0,0,0-1.37,2.68,2.32,2.32,0,0,1,0,.61v27.1h1.85V30.79a2.51,2.51,0,0,0,0-.61c0-1.75,2.25-3.49,2.25-3.49v-.56H46.94Z"/><path class="cls-2" d="M57.94,56.69c-.57,2.55-1.44,5.6-1.44,5.6H34.28a7.35,7.35,0,0,1-.87.81v.56H58.35s1.92-6.78,1.94-8.54A6.31,6.31,0,0,1,57.94,56.69Z"/><path class="cls-2" d="M70.69,38.07A30.58,30.58,0,0,1,74,33.66a1.52,1.52,0,0,1-.87-1.58c0-3.23,3.42-5.72,2.86-5.22a48.24,48.24,0,0,0-7.14,8.37c-1.55,2.58-3.31,13.17,1.2,18.32C67.84,48.17,69.24,40.55,70.69,38.07Z"/><path class="cls-2" d="M95,33.57a19.66,19.66,0,0,1,2.32,9.27C97.35,54,88,63.1,76.39,63.1A21.18,21.18,0,0,1,59.59,55a21,21,0,0,0,18.64,11c11.58,0,21-9.07,21-20.26A19.74,19.74,0,0,0,95,33.57Z"/><path class="cls-2" d="M82.68,34.69c-1.85-1.86-5.35-.73-7.56-.81a4.08,4.08,0,0,0-.15,1c0,3.93,6.71-.23,9.55,2.61a7.58,7.58,0,0,1,.7.69A10.45,10.45,0,0,0,82.68,34.69Z"/><path class="cls-2" d="M124.08,45.06a10.27,10.27,0,0,0,.66-18.5,10.27,10.27,0,0,1-2.75,17c1.67,3.39,7.7,15,13.11,18.14H123.72a4.64,4.64,0,0,1-2-.44,6.07,6.07,0,0,0,4,1.91H137.2C131.79,60.07,125.76,48.45,124.08,45.06Z"/><path class="cls-2" d="M112.68,31.46h2.38a6.56,6.56,0,0,0-2-1.47h-2.49V42.61a6.69,6.69,0,0,0,2.1-.47Z"/><path class="cls-2" d="M112.75,59.15a3.43,3.43,0,0,0,0-.62l0-8.42-2.1-3.84,0,10.8a2.56,2.56,0,0,1,0,.62c0,1.74,2.13,3.48,2.13,3.48v.56H100.51a8.59,8.59,0,0,1-.92.91v.56h15.29v-.56S112.75,60.9,112.75,59.15Z"/><path class="cls-2" d="M148.46,48.82V30.05a3.43,3.43,0,0,0,0-.62c0-1.75,2.24-3.49,2.24-3.49v-.56h-2.59a4.16,4.16,0,0,0-1.21,2.51,2.36,2.36,0,0,1-.05.62V47.29h0v10.8a6.58,6.58,0,0,0,2.19,3v.56H135.57a9,9,0,0,1-1,1v.56h16.1v-.56a6.64,6.64,0,0,1-2.19-3V48.82Z"/><path class="cls-2" d="M174.08,33.72V26.23a13,13,0,0,0-1.91-.93v5.51s-.33-.07-.36-.1c-2.56-2.56-7.48-2.41-7.51-2.39a5.49,5.49,0,0,0-.58,0c-2.51,0-4.28,1.67-4.28,3.76a3.42,3.42,0,0,0,2.08,2.86,2.52,2.52,0,0,1-.17-.93c0-2.08,1.78-3.76,4.29-3.76a5.49,5.49,0,0,1,.58,0s5.21.82,7.77,3.38Z"/><path class="cls-2" d="M151.73,42.08a13.92,13.92,0,0,0,2.61,2.49c2.35,1.79,7.4,3.69,10.28,5.72-1.39-2.77-9.11-5.31-12.2-7.66C152.18,42.45,152,42.27,151.73,42.08Z"/><path class="cls-2" d="M173.54,41.89A12.46,12.46,0,0,1,176.13,50c0,6.62-6.35,12-14.18,12-2.73,0-8.16-.19-11.43-1.62.1.52.17.85.17.85,2.58,2.42,9.87,2.71,13.18,2.71,7.83,0,14.18-5.36,14.18-12A12.16,12.16,0,0,0,173.54,41.89Z"/><path class="cls-3" d="M13.82,12.05C1.9,12.05.22,30,.22,30s7.37-8.94,11.83-8.94C12.64,23,10,31.8,10,31.8,4.54,32.23.73,44.23.73,44.23s6.9-4.84,7.5-3.49c0,0-3.68,18.12-4.28,21.7.18,7.73,11.78,1.12,13.5.75-2.56-.61-.65-9.78-.65-9.78l2.42-12.48s8.9,2.19,12.58-11.83C25.33,34,20.34,32.45,20.34,32.45l3-12.11,8.94.28s14,1.26,14-11.83a27.59,27.59,0,0,1-12.57,3C30.51,11.77,25.74,12.05,13.82,12.05Z"/><path d="M7.68,66.34h0a4.32,4.32,0,0,1-2.36-.59,3.72,3.72,0,0,1-1.51-3.3v0c.58-3.44,4-20.47,4.27-21.64a.22.22,0,0,0-.13-.08c-.3-.08-1.22,0-4,1.69-1.61,1-3.06,2-3.08,2l-.41.29.15-.48a41.37,41.37,0,0,1,2.6-6.08,19.82,19.82,0,0,1,3-4.29,6.28,6.28,0,0,1,3.75-2.17c.14-.48.71-2.43,1.21-4.54s1.05-4.81.84-5.84a7.56,7.56,0,0,0-3.51,1.37,27,27,0,0,0-3.83,3.05A52.33,52.33,0,0,0,.35,30.14L0,30.56.05,30s.11-1.15.45-2.83A34.08,34.08,0,0,1,2.39,21a17.91,17.91,0,0,1,4.16-6.24,10.46,10.46,0,0,1,7.27-2.85c7.87,0,12.67-.12,15.85-.2,1.63,0,2.92-.08,4-.08a27.63,27.63,0,0,0,12.49-3l.25-.13v.28c0,3.75-1.14,6.7-3.39,8.76a11.34,11.34,0,0,1-3.46,2.13,16,16,0,0,1-3.5.93,18.1,18.1,0,0,1-3.8.18l-8.8-.27-2.9,11.81a9.89,9.89,0,0,0,3.1.1,13.79,13.79,0,0,0,3.58-.92A18.89,18.89,0,0,0,31.69,29l.4-.29-.13.47A22,22,0,0,1,28.42,37a11,11,0,0,1-4.22,3.46,9,9,0,0,1-3.53.79,7.15,7.15,0,0,1-1.31-.09L17,53.44a36.72,36.72,0,0,0-.63,4.64,13.41,13.41,0,0,0,.1,3.29c.18,1,.54,1.53,1,1.65l.73.17-.73.16A16.28,16.28,0,0,0,15.8,64a37.16,37.16,0,0,1-5.32,1.93A11.54,11.54,0,0,1,7.68,66.34ZM4.12,62.45a4.79,4.79,0,0,0,.39,1.91,2.65,2.65,0,0,0,1,1.1c2.41,1.55,7.47-.6,10.19-1.76.54-.23,1-.42,1.32-.54-.84-.59-1.17-2.3-1-5.1a40.18,40.18,0,0,1,.63-4.69l2.46-12.65.17,0a6.73,6.73,0,0,0,1.43.12,8.64,8.64,0,0,0,3.39-.77,10.75,10.75,0,0,0,4.08-3.36,21.49,21.49,0,0,0,3.35-7.23,19.5,19.5,0,0,1-4.17,2.32,14.42,14.42,0,0,1-3.68.93,8.93,8.93,0,0,1-3.37-.16l-.15,0,3.05-12.4,9.09.28A17.51,17.51,0,0,0,36,20.27a15.44,15.44,0,0,0,3.42-.91,10.94,10.94,0,0,0,3.35-2.06,10.87,10.87,0,0,0,3.28-8.23,28,28,0,0,1-12.4,2.87c-1.07,0-2.36,0-4,.08-3.18.08-8,.2-15.86.2A10.32,10.32,0,0,0,9.88,13a10.6,10.6,0,0,0-3.1,2A17.58,17.58,0,0,0,2.71,21.1,32,32,0,0,0,.84,27.24c-.2,1-.32,1.76-.38,2.25a52.82,52.82,0,0,1,3.89-4.06,27.86,27.86,0,0,1,3.88-3.09,7.48,7.48,0,0,1,3.82-1.42h.12l0,.11c.26.81,0,2.87-.8,6.15-.58,2.42-1.24,4.64-1.25,4.67l0,.11H10A5.83,5.83,0,0,0,6.37,34a19.68,19.68,0,0,0-2.9,4.21A41,41,0,0,0,1.06,43.8c.55-.37,1.58-1.06,2.67-1.71C6,40.75,7.37,40.19,8,40.36a.57.57,0,0,1,.38.31l0,0v.05C8.36,41,4.72,58.87,4.12,62.45Z"/><path class="cls-3" d="M51.89,55.37H44.73V28.28a2.67,2.67,0,0,0,0-.62c0-1.75,2.25-3.49,2.25-3.49v-.56H30.92v.56a6.64,6.64,0,0,1,2.19,3v30.2c0,1.74-2.24,3.49-2.24,3.49v.55H55.8s1.92-6.78,1.94-8.54C56,54.93,51.89,55.37,51.89,55.37Z"/><path d="M55.93,61.59H30.69v-.81l.07-.05s2.18-1.71,2.18-3.35V27.2a6.48,6.48,0,0,0-2.13-2.89l-.06,0v-.82H47.19v.82l-.07,0S44.94,26,44.94,27.66a3,3,0,0,1,0,.64V55.2h7a14.19,14.19,0,0,0,2.23-.47,7.64,7.64,0,0,0,3.5-2l.31-.36v.47c0,1.77-1.87,8.31-1.95,8.59ZM31,61.25H55.67a80.26,80.26,0,0,0,1.87-7.91,8.29,8.29,0,0,1-3.34,1.72,15.94,15.94,0,0,1-2.29.48H44.56V28.23a2.07,2.07,0,0,0,0-.57,4,4,0,0,1,1.17-2.51,8.79,8.79,0,0,1,1.08-1.06v-.31H31.09v.31a6.5,6.5,0,0,1,2.18,3.05V57.38a4,4,0,0,1-1.16,2.51A10.55,10.55,0,0,1,31,61Z"/><path class="cls-3" d="M78.83,25.36c-1,.42-5.68,3.12-5.68,6.38,0,3.93,6.71-.24,9.55,2.61,2.49,2.13,4.1,6.52,4.1,10.47,0,6.51-4.4,11.23-9.83,11.23-12.62,0-9.48-18.45-8.1-21.16,1.83-3.59,6.32-7.64,7.14-8.37,1.38-1.23,2-2.13,1.51-3.47s-4-.67-5.3-.4A20.45,20.45,0,0,0,55.45,42.5c0,11.19,9.39,20.25,21,20.25s21-9.06,21-20.25a20,20,0,0,0-7.05-15.16A11.94,11.94,0,0,0,78.83,25.36Z"/><path d="M76.41,62.92a21.68,21.68,0,0,1-8.22-1.6,21.15,21.15,0,0,1-6.72-4.38A20.2,20.2,0,0,1,57,50.45a19.58,19.58,0,0,1-1.67-8,19.81,19.81,0,0,1,1.29-7,20.06,20.06,0,0,1,3.55-6A21,21,0,0,1,65.48,25a21.34,21.34,0,0,1,6.7-2.54c2.23-.44,5-.7,5.5.5h0c.54,1.42-.13,2.38-1.56,3.66s-2.5,2.38-3.18,3.1A24.2,24.2,0,0,0,69,35a11.69,11.69,0,0,0-.79,2.67,30,30,0,0,0-.55,4.49C67.56,45,67.79,49,69.61,52A8.06,8.06,0,0,0,77,55.88a9.05,9.05,0,0,0,6.82-3.12,11.83,11.83,0,0,0,2.84-7.94A16.54,16.54,0,0,0,85.52,39a11.21,11.21,0,0,0-2.93-4.5h0c-1.28-1.29-3.44-1.07-5.35-.88-1.59.15-3,.29-3.71-.39A1.87,1.87,0,0,1,73,31.74a4.53,4.53,0,0,1,.77-2.41,9.05,9.05,0,0,1,1.73-2,14,14,0,0,1,3.29-2.16l.06.16-.06-.16a11.07,11.07,0,0,1,6.39-.46,12.1,12.1,0,0,1,5.27,2.47,21.22,21.22,0,0,1,2.95,3.12A20.08,20.08,0,0,1,95.62,34a19.87,19.87,0,0,1,.26,16.47,20.39,20.39,0,0,1-4.53,6.49,21,21,0,0,1-6.72,4.38A21.68,21.68,0,0,1,76.41,62.92Zm-1-40.47h-.17a17.15,17.15,0,0,0-2.94.36,20.69,20.69,0,0,0-6.6,2.49,20.9,20.9,0,0,0-5.27,4.4,19.86,19.86,0,0,0-3.49,5.88,19.55,19.55,0,0,0,.37,14.72,19.85,19.85,0,0,0,4.45,6.39A20.78,20.78,0,0,0,68.32,61a21.53,21.53,0,0,0,16.19,0,20.85,20.85,0,0,0,6.6-4.3,20,20,0,0,0,4.46-6.39A19.39,19.39,0,0,0,97.2,42.5a19.49,19.49,0,0,0-1.89-8.38,20.1,20.1,0,0,0-2.2-3.59,21,21,0,0,0-2.9-3.06,11.81,11.81,0,0,0-5.12-2.4,10.72,10.72,0,0,0-6.19.45,13.25,13.25,0,0,0-3.19,2.09c-1.09,1-2.39,2.45-2.39,4.13A1.54,1.54,0,0,0,73.75,33c.64.58,2,.44,3.45.3,2-.2,4.22-.42,5.62,1a11.54,11.54,0,0,1,3,4.62,17.08,17.08,0,0,1,1.13,6A12.2,12.2,0,0,1,84.05,53,9.41,9.41,0,0,1,77,56.22a8.37,8.37,0,0,1-7.65-4c-1.87-3.06-2.1-7.17-2-10.08a22.54,22.54,0,0,1,1.37-7.31,24.69,24.69,0,0,1,4-5.29c.69-.73,1.8-1.87,3.21-3.13a5.94,5.94,0,0,0,1.42-1.64,1.91,1.91,0,0,0,0-1.64C77.18,22.68,76.49,22.45,75.36,22.45Z"/><path class="cls-3" d="M121,43.29a10.27,10.27,0,0,0-4.12-19.68H97.37v.56s2.13,1.74,2.13,3.49v30.2a6.59,6.59,0,0,1-2.08,3v.55H112.7v-.55s-2.12-1.75-2.12-3.49a2.36,2.36,0,0,0,0-.62l0-10.8,5.38,9.82s2.85,5.64,6.83,5.64h11.38C128.68,58.3,122.65,46.67,121,43.29ZM110.5,29.68H113A6.64,6.64,0,0,1,110.5,42.3Z"/><path d="M134.73,61.59h-12a5.27,5.27,0,0,1-2.84-.9,10.41,10.41,0,0,1-2.2-2,16.22,16.22,0,0,1-1.94-2.85l-5.06-9.23,0,10.11a2.65,2.65,0,0,1,0,.64c0,1.64,2,3.34,2.06,3.35l.06.05v.81H97.25v-.81l.06-.05a6.42,6.42,0,0,0,2-2.89V27.66c0-1.64-2-3.34-2.07-3.36l-.06-.05v-.81h19.66a10.44,10.44,0,0,1,4.35,19.93,96.27,96.27,0,0,0,5.07,9,48.23,48.23,0,0,0,3.85,5.28,16.7,16.7,0,0,0,4.05,3.64Zm-24.4-16.3L116,55.71a16.1,16.1,0,0,0,1.91,2.79,9.91,9.91,0,0,0,2.12,1.9,4.85,4.85,0,0,0,2.65.85H133.5c-5.3-3.53-11-14.52-12.67-17.89l-.08-.16.16-.07a10.11,10.11,0,0,0,.33-18.35,10,10,0,0,0-4.38-1H97.54v.31a9.68,9.68,0,0,1,1,1.06,4.15,4.15,0,0,1,1.1,2.51V57.89a6.42,6.42,0,0,1-2.08,3v.31h14.94v-.31a8.21,8.21,0,0,1-1-1.06,4.1,4.1,0,0,1-1.1-2.5,2.6,2.6,0,0,0,0-.57v0Zm0-2.81v-13H113l0,0a6.81,6.81,0,0,1-2.55,12.94Zm.34-12.63V42.12A6.47,6.47,0,0,0,113,29.85Z"/><path class="cls-3" d="M146,47.05V28.27a2.51,2.51,0,0,0,0-.61c0-1.75,2.24-3.49,2.24-3.49v-.56H132.19v.56a6.64,6.64,0,0,1,2.19,3V39h0V56.76a2.61,2.61,0,0,0,0,.62c0,1.74-2.24,3.49-2.24,3.49v.55h16.09v-.55a6.64,6.64,0,0,1-2.19-3V47.05Z"/><path d="M148.35,61.59H131.91v-.81l.07-.05s2.18-1.71,2.18-3.35a3,3,0,0,1,0-.64V38.83h0V27.2a6.61,6.61,0,0,0-2.13-2.9l-.06-.05v-.81h16.44v.81l-.07.05s-2.18,1.72-2.18,3.36a3.12,3.12,0,0,1,0,.64V47.22h0V57.84a6.55,6.55,0,0,0,2.13,2.89l.06.05Zm-16.09-.34H148V61a6.54,6.54,0,0,1-2.18-3.06h0v-11h0V28.22a1.91,1.91,0,0,0,0-.56A4,4,0,0,1,147,25.15a8.7,8.7,0,0,1,1.08-1.06v-.31H132.36v.31a6.5,6.5,0,0,1,2.18,3.05v12h0V56.81a2,2,0,0,0,0,.57,4,4,0,0,1-1.16,2.51A10.55,10.55,0,0,1,132.26,61Z"/><path class="cls-3" d="M165,36c-1.59-.56-3.95-1.59-3.95-3.67s1.78-3.76,4.29-3.76a5.49,5.49,0,0,1,.58,0s5.21.81,7.77,3.37l.09.09V24.6c-2.58-1.56-6.2-2.25-10.21-2.25-7.83,0-14.18,5.37-14.18,12,0,3.39,1.25,6,4.65,8.61s12.41,5.4,12.41,8.49c0,2.09-2.24,3.65-5.75,3.65-3.22,0-9.2-2.17-12.05-5-.09.4,1.74,9.48,1.74,9.48,2.58,2.43,9.87,2.71,13.18,2.71,7.83,0,14.18-5.36,14.18-12C177.76,42,172.12,38.51,165,36Z"/><path d="M163.58,62.41a49.41,49.41,0,0,1-6.89-.44c-3.1-.46-5.26-1.24-6.41-2.31l0,0v0s-.46-2.3-.9-4.6c-.9-4.67-.85-4.87-.84-5l.07-.31.22.23a17.57,17.57,0,0,0,5.83,3.55,18.23,18.23,0,0,0,6.1,1.43,7.5,7.5,0,0,0,4.1-1,3.39,3.39,0,0,0,1.1-1.1,2.64,2.64,0,0,0,.38-1.36c0-.84-.75-1.75-2.29-2.79a44.94,44.94,0,0,0-5-2.76,35.34,35.34,0,0,1-5-2.81,12.35,12.35,0,0,1-3.64-4,9.83,9.83,0,0,1-1.07-4.69,10.53,10.53,0,0,1,1.13-4.74,12.42,12.42,0,0,1,3.08-3.86,14.87,14.87,0,0,1,4.56-2.6,16.6,16.6,0,0,1,5.58-.95,27.6,27.6,0,0,1,5.68.54,15.19,15.19,0,0,1,4.62,1.73l.08.05v8l-.28-.27a.94.94,0,0,1-.1-.1,12.27,12.27,0,0,0-4.67-2.58A19.72,19.72,0,0,0,166,28.8h-.07a5.12,5.12,0,0,0-.56,0,4.41,4.41,0,0,0-3,1,3.4,3.4,0,0,0-1.15,2.54,2.41,2.41,0,0,0,.37,1.28,3.79,3.79,0,0,0,.94,1,9.63,9.63,0,0,0,2.53,1.24,38.15,38.15,0,0,1,5,2.12,17.69,17.69,0,0,1,4.09,2.87,12.39,12.39,0,0,1,3.76,9.41A10.5,10.5,0,0,1,176.8,55a12.34,12.34,0,0,1-3.08,3.87,14.73,14.73,0,0,1-4.56,2.59A16.6,16.6,0,0,1,163.58,62.41Zm-13-3c1.1,1,3.18,1.75,6.18,2.19a48.75,48.75,0,0,0,6.84.44,16.1,16.1,0,0,0,5.46-.93,14.39,14.39,0,0,0,4.46-2.53,11.9,11.9,0,0,0,3-3.76,10.11,10.11,0,0,0,1.1-4.59,12.06,12.06,0,0,0-3.66-9.17,17.39,17.39,0,0,0-4-2.81,37.38,37.38,0,0,0-5-2.1h0a9.88,9.88,0,0,1-2.62-1.29,3.13,3.13,0,0,1-1.45-2.54c0-2.24,1.92-3.93,4.46-3.93a5.83,5.83,0,0,1,.59,0l.25,0,.64.12c.48.11,1.23.29,2.09.57a13.2,13.2,0,0,1,4.7,2.5v-7c-2.4-1.42-5.87-2.17-10-2.17a16.39,16.39,0,0,0-5.46.93A14.42,14.42,0,0,0,153.66,26a11.9,11.9,0,0,0-3,3.76,10.1,10.1,0,0,0-1.1,4.58c0,3.51,1.37,6,4.58,8.47a33.46,33.46,0,0,0,5,2.77c3.7,1.84,7.52,3.74,7.52,5.86A3.28,3.28,0,0,1,165,54.18a7.84,7.84,0,0,1-4.28,1.07,18.52,18.52,0,0,1-6.23-1.46,18.56,18.56,0,0,1-5.61-3.31C149.07,51.87,149.93,56.34,150.56,59.44Z"/></g></g></svg>