<svg xmlns="http://www.w3.org/2000/svg" viewBox="0 0 330.62 100"><defs><style>.cls-1{fill:#b1743e;}</style></defs><g id="圖層_2" data-name="圖層 2"><g id="圖層_1-2" data-name="圖層 1"><path class="cls-1" d="M296.93,70c.45-6.46,4.18-35.84,6.24-43.19,3.39-12.38,11.13-18.62,20.18-16.16a103.16,103.16,0,0,1,7.27-9.52c-8.81.3-15.31,1.39-23.39,10.39-6,6.69-8,11.86-10.4,19.68-4.18,13.44-6.53,35-8.09,46.81-2.78,2.39-5.81,5.12-8.13,6.77s-2.57.32-2.32-1.68,3.84-31.39,4-32.95c.51-3.83-1.67-4.33-5.82-1.76-1.25.79-7.49,5.9-9.76,8,2.49-13.8-5.08-9.23-7.72-6.76-1.33,1.25-7.15,6-7.93,7.08a31.37,31.37,0,0,0-2.57-7.77c-1.12-2-3-1.74-4.88-.49-1.58,1-4.54,3.09-6.33,4.49a56.92,56.92,0,0,1,3.38-6.12c-9.26,3.12-17.85,20.37-17.3,35.3a24.75,24.75,0,0,1-3.56,4.59c-2.16,1.76-3.07.64-3.09-1.38,0-23,6.08-59.14,11.83-71.58,4.22-9.14,10.22-9.82,14.55-5.49,1.37-1.67,5-5.93,6.57-7.76C238.12-2,226.82,5.1,221.58,17.59c-3.74,9-5.29,15.91-8.25,30.09-2.23-1.66-5.56-1.49-9.66,2.86-7.14,7.6-11.16,15.15-12.7,32.87-3,4-7.89,7.48-7.28,1.46.2-2,4.66-32.44,4.88-34.58.36-3.62-1.68-3.8-4-2.49-3.27,1.91-10.78,9-13.51,11.92.37-2.2.93-7.24,1.11-8.83.39-3.54-1-4.15-4.17-2.41a96.9,96.9,0,0,0-12.67,10c4.47-10,.23-13-3.88-10.25-11.46,7.76-17,20.54-18.71,33.3-2.83,21.75,12,17.58,23.57,5.31.56-.59.12-2.34-.83-1.56s-6.68,6.46-9.68,6.36c-6.24-.24-7.37-10.66-4.71-19.38,3.54-2.16,13.16-9.63,16.54-11.88,4.82-3.19,5.85-1.25,5.43,1.59-.2,1.36-4.77,36-4.77,36l8.36-6.24,3.26-25.81a25.22,25.22,0,0,1,7.28-7.66c1.84-1.25,2.65-.24,2.31,2.07-1.55,10.75-3.74,31.19-3.94,32.35-1.12,7.26,7.35,2.5,15.32-5.64a21.09,21.09,0,0,0,1.92,6.56c2.56,5.78,7.88,1.63,15.54-6.83a36.45,36.45,0,0,0,.3,6.6c1.31,6.56,6.6,4.7,14.88-6.7-.24,5.7,4.38,10.47,7.86,10.47,12,0,21.67-26.33,20-37.44,7.32-8.36,8.91-4.47,8.05.88C259,62.94,254,97.64,254,97.64l8.31-5.31,3.86-30.22c3.67-5.57,9.22-8.9,7.6-2.14-.6,2.5-3.06,23-3.42,25.72-1.36,10,.92,14,4,10.69.94-1,13.87-13.17,13.87-13.17L285.81,100l8.5-7.24,2-15.41a160.2,160.2,0,0,0,10.37,18.94,1.44,1.44,0,0,0,2,.54,1.4,1.4,0,0,0,.54-.54,117,117,0,0,1,10.49-11c.78-.87-.79-2.58-1.25-2.18-1.66,1.34-6.75,5-6.75,5-2.86-2.69-10-18.06-10-18.06,7.73-8.33,12.08-14.22,14.19-18.91,1.16-2.59,1.24-5.5-3.4-4a27,27,0,0,0-12.14,8.12c7.57-2.63,8.22,1.35,4.83,5.8C303.9,62.62,296.93,70,296.93,70ZM150.29,58.16c-1.38,5.62-4.43,8-8.21,10.39a79.51,79.51,0,0,1,4.16-11.71C147.83,53.4,151.28,54.07,150.29,58.16Zm60.14,3.21c-.09,1.4-1.73,18.11-1.85,19.59,0,.49-7.38,10.76-9.11,4.42-2.63-9.66-.42-24.41,4.8-31a2.73,2.73,0,0,1,4.78,1.06A21.33,21.33,0,0,1,210.43,61.37Zm26.88,28.7c-1.72,2.28-2,2.13-3.3.45-4.89-6.44-2.39-24.67,2.29-34.23,3.5-2.62,5.45-2.08,6.68,1.46,3.14,9.2.57,24.08-5.67,32.36Z"/><path class="cls-1" d="M110.66,56c3,1.11,3.54.73,6-1.25A54,54,0,0,0,123.41,48c.43-.53.19-1.63-.66-.78a27,27,0,0,1-2.5,2.28c-1.52,1.12-2.2.94-3.46-.21-.6-.54-1.58-1.25-2.15-1.84-.9-.81-1.25-1.17-2.75.19-1,.91-9.45,10.15-9.45,10.15a64.14,64.14,0,0,0,.37-7.33c-.17-4-1.94-3.48-4.47-2-4.06,2.36-8.88,6.69-12.67,10.26C83.53,45,79.5,47.87,71.94,53.26a29.39,29.39,0,0,1,2.29-5.39C62.6,52.5,56.3,67.07,56.05,84.69,44.89,92.5,33.76,91.08,24.93,84c-9.06-7.18-15-20.41-14.64-33.49.42-15.16,9.84-30.17,20.88-35.19A7.22,7.22,0,0,1,35.8,15a56.55,56.55,0,0,1,13.62,4.67c3.27,1.67,3.66,3.74,2.41,5.65a.38.38,0,0,0,.12.52.39.39,0,0,0,.52-.12L61.2,14.46s.45-.41-.39-.78c-5.65-2.49-10-4.42-18.4-4.42-5.43,0-6.81.93-12.36,3.16S16.62,20.28,10.86,26.74C2.09,36.5-1.27,48,.43,58.64c3,18.55,10.25,30.21,24.79,36.64,5.44,2.42,10.22,2.62,15.39,0,3-1.52,13.73-6.61,15.59-7.58.82,4.28,3.42,9.74,7.41,9.62,10.54-.31,21.75-21.21,22-34.94,1.86-1.91,4.58-4.28,5.49-5.06,2.09-1.81,3-1,2.79,1.62-.13,1.92-5.55,39.31-5.55,39.31l9.63-6.38,3.95-30a35,35,0,0,1,4.35-4.92A3.9,3.9,0,0,1,110.66,56ZM71.1,90.07c-1.73,2.28-2,2.13-3.32.45-4.88-6.44-2.37-24.67,2.3-34.23,3.49-2.62,5.44-2.08,6.67,1.46C80,66.91,77.33,81.8,71.1,90.07Z"/><path class="cls-1" d="M124.66,49.53c-1,1.11-6.48,6.71-7.1,7.69-2.58,4.05-2.65,7.48-1.64,11.84.87,3.74,5.12,12.31,6.08,14,1.76,3.18,1.45,6.58-.46,8.09-4.73,3.75-8.22-2.84-8.22-2.84l-7.15,8.16c1.76,1.25,10.72,2.78,17.69-4.31,5.15-5.24,7.66-10,4.43-17.73-.75-1.79-4.37-9.64-5.35-11.82-1.41-3.15-1.25-6.47.26-8.46,2-2.57,5.39-.26,7.58,2.12l7.89-8.19C136.2,46.16,128.3,45.64,124.66,49.53Z"/><path class="cls-1" d="M318.79,30.54a6.07,6.07,0,0,1-3-.77,5.42,5.42,0,0,1-1.25-.93,6.05,6.05,0,0,1-1-1.24,6.81,6.81,0,0,1-.63-1.5,6.53,6.53,0,0,1-.22-1.76,7.28,7.28,0,0,1,.24-1.85,6.4,6.4,0,0,1,.68-1.62,7,7,0,0,1,1-1.35,6.84,6.84,0,0,1,1.31-1,6.1,6.1,0,0,1,1.53-.66,6,6,0,0,1,3.15,0,6.38,6.38,0,0,1,1.41.56,5.57,5.57,0,0,1,2.22,2.16,5.58,5.58,0,0,1,.64,1.51,6.77,6.77,0,0,1,.24,1.79,7.15,7.15,0,0,1-.24,1.84,6.9,6.9,0,0,1-.66,1.62,7,7,0,0,1-1,1.35,6.18,6.18,0,0,1-1.25,1,6.26,6.26,0,0,1-3.18.9Zm.16-12a4.76,4.76,0,0,0-2.07.44,4.93,4.93,0,0,0-1.61,1.25,5.53,5.53,0,0,0-1,1.8,6.34,6.34,0,0,0-.39,2.2,5.65,5.65,0,0,0,.42,2.22A4.95,4.95,0,0,0,317,29.27a5.24,5.24,0,0,0,2,.4,5.05,5.05,0,0,0,2.06-.44,5.32,5.32,0,0,0,1.64-1.18,5.69,5.69,0,0,0,1.06-1.79,6.3,6.3,0,0,0,.37-2.19,6.17,6.17,0,0,0-.4-2.25,5.45,5.45,0,0,0-1.11-1.73A5.22,5.22,0,0,0,320.93,19a4.83,4.83,0,0,0-2-.43Z"/><path class="cls-1" d="M320,24.34a5.74,5.74,0,0,0,.5-.36,4.78,4.78,0,0,0,.45-.45,2.33,2.33,0,0,0,.32-.55,1.64,1.64,0,0,0,.13-.65,1.71,1.71,0,0,0-.16-.71,1.9,1.9,0,0,0-.49-.6,2.56,2.56,0,0,0-.79-.4,3.94,3.94,0,0,0-1-.14h-2.16v7h1.18V24.78h1.16l1.51,2.74h1l.24-.26Zm-.27-.62a2,2,0,0,1-.33.25h-1.45V21.33h.81a2.25,2.25,0,0,1,.64.09,1.43,1.43,0,0,1,.45.26,1.18,1.18,0,0,1,.27.4,1.43,1.43,0,0,1,.09.5,1.47,1.47,0,0,1-.06.42,1.34,1.34,0,0,1-.16.39,1.3,1.3,0,0,1-.26.31Z"/></g></g></svg>