<svg xmlns="http://www.w3.org/2000/svg" viewBox="0 0 75.02 86.23"><defs><style>.cls-1{fill:#7d2322;stroke:#7d2322;stroke-miterlimit:10;}</style></defs><g id="圖層_2" data-name="圖層 2"><g id="_0-ui_kits" data-name="0-ui_kits"><path class="cls-1" d="M.9,55.61c.17,7.54-1,15.2.07,22.71.37,2.54.94,5.4,3.62,6.46,3.61,1.44,7.75.69,11.39-.27a.62.62,0,0,0,.43-.76l-.06-.3c10.64.27,21,3.36,31.7,1.87a.43.43,0,0,0,.17-.06c.71.06,1.41.07,2,.07,3.52,0,7-.22,10.55-.48,2.39-.17,4.76-.22,6.94-1.31a5.08,5.08,0,0,0,1.39-8.26,10.11,10.11,0,0,0,3.17-1.73C76.43,70,74.05,65.91,70,64.38a7.64,7.64,0,0,0,4.12-4.23C75.75,55.76,72,54.24,68.33,54a11,11,0,0,0,4.07-2.7c2.09-2.28,1.61-6.4-.25-8.66-2.92-3.57-8-4.5-12.3-5.1-6.12-.85-12.36-.73-18.53-.7C43.48,27.49,45,17.26,42.46,7.89c-.88-3.3-3.88-9.34-8.34-6.77-1.85,1.06-1.59,4.56-1.72,6.3a35.42,35.42,0,0,1-5.94,17.3C23.71,29,21.3,33.24,18.82,37.64a93.42,93.42,0,0,0-5.08,9.53c-1.9-1.23-5.67-.31-7.34-.06C1.4,47.86.89,51.1.9,55.61ZM46.06,83.55a2.84,2.84,0,0,1-1-1,2.64,2.64,0,0,1,.08-3.09c1.18.22,2.39.21,3.57.39.83.12,3.14.83,2.42,2.1-.41.72-1.86.89-2.57,1A21,21,0,0,0,46.06,83.55Zm19.06-.33c-3.22.81-7.07.61-10.38.76a42.74,42.74,0,0,1-6.27.3c1.62-.27,3.3-.59,3.91-2.12.5-1.23-.74-2.53-1.73-3a12.74,12.74,0,0,0-4.35-.73,6,6,0,0,1,3.12-1,.54.54,0,0,0,.47-.24,44.61,44.61,0,0,0,5,.24,49.12,49.12,0,0,0,9.67-1c1-.21,2.22-.45,3.37-.79a.6.6,0,0,0,.16.33C71.24,79,68.54,82.35,65.12,83.22ZM73.31,69.3c.23,2.78-3,4.2-5.14,4.93a41.53,41.53,0,0,1-12.52,2c-3,.07-6.39,0-9.25-1.2,2.21-.38,5.19-.85,5.36-3,.3-3.55-5-3.31-7.76-3a4,4,0,0,1,1.09-1.18c1.38-.95,3.42-.82,5-1h0a78.11,78.11,0,0,0,10.27-.31,35.79,35.79,0,0,0,7.74-1.26C70.49,65.55,73.09,66.57,73.31,69.3ZM44.67,74.11a3.51,3.51,0,0,1-1.21-3.9c1.75-.2,7.68-.78,7,1.8-.24,1-2.26,1.34-3.07,1.54S45.58,73.87,44.67,74.11Zm28-13.65A7.81,7.81,0,0,1,68,63.9l-.06,0a33.9,33.9,0,0,1-6.66,1.16A65,65,0,0,1,44.94,65c-.3,0-.61-.1-.93-.17,1.91-.67,4.17-1.88,4.22-3.75,0-1.37-1.08-2.16-2.13-2.82-1.22-.77-2.85-.67-4.33-.57a8,8,0,0,1,3-1.31c4.26,1.14,9.68.2,13.59-.35,1.87-.27,4-.5,6.11-.94a.47.47,0,0,0,.46.18C68.33,54.84,75.5,55.29,72.62,60.46ZM42,64.11l-.11,0c-1.47-.67-2.59-1.79-2.18-3.67a4.31,4.31,0,0,1,.72-1.55l.09,0c1.17,0,2.33-.12,3.5,0,1,.06,3.16.9,2.94,2.19C46.69,62.85,43.44,63.78,42,64.11ZM33.76,5.66c.14-2,.87-3.93,2.56-3.85a.53.53,0,0,0-.18.42c0,1.51-.47,8.29-2.83,8.2C33.51,8.85,33.64,7.25,33.76,5.66Zm-18.89,42a50.65,50.65,0,0,1,4.65-8.8c2.09-3.16,3.47-6.75,5.59-9.93,2.57-3.84,5.11-7.57,6.71-11.94a26.24,26.24,0,0,0,1.31-5.29c3.6.58,4.21-7.21,4.24-9.45a.47.47,0,0,0,0-.17,5.2,5.2,0,0,1,.7.36c2,1.24,2.83,4.23,3.4,6.33,2.44,9.16.66,19.49-1.47,28.5a.67.67,0,0,0,0,.4,29.18,29.18,0,0,1-7.15,14.87c-.55.58.32,1.44.86.87A30.39,30.39,0,0,0,41.17,38c8.64-.06,18.62-.84,26.64,2.78,3.32,1.51,6,5.28,4.17,8.94S63.58,54,60.1,54.53c-4.65.75-9.76,1.46-14.47.61a.54.54,0,0,0-.35-.08h0L44.86,55l-.19-.06c2.39-.31,5-1.21,5.8-3.15.6-1.53-1.14-2.9-2.36-3.33a9.84,9.84,0,0,0-5.28-.05c.08-.06.15-.13.24-.19,3.13-2.15,7.73-2.51,11.38-2.85a99.06,99.06,0,0,1,12.66-.26.62.62,0,0,0,0-1.23,88.06,88.06,0,0,0-15.9.63c-3.65.55-8.29,1.27-10.65,4.44-1.46,1.95-.68,4.37.94,5.81a.6.6,0,0,0,.31.25,6.25,6.25,0,0,0,.6.4c.19.11.39.2.6.3-3.2,1.38-6.14,4.67-3.78,8,1.32,1.85,3.89,2.35,6.18,2.61a5.59,5.59,0,0,0-1.89,1.15,5.82,5.82,0,0,0-1.11,5.82,6.78,6.78,0,0,0,4.53,3.36,4.93,4.93,0,0,0-3.42,4.5,3.26,3.26,0,0,0,1.58,3.29c-9.74.7-19.25-2-29-2.2-1-6.14-.4-12.42-.13-18.61.21-4.7.77-11.1-1.38-15.48a1,1,0,0,0-.08-.14A.66.66,0,0,0,14.87,47.64Zm27.59,6.21a3.14,3.14,0,0,1-.87-4.06.47.47,0,0,0,.56.11,10.35,10.35,0,0,1,4.49-.49c1,.08,3.56,1,2.43,2.42C47.78,53.39,44.55,53.89,42.46,53.85Zm-31.68-6c4.07-.14,3.69,4.31,4,7.45C15.5,64.55,13.38,73.8,15,83A.19.19,0,0,0,15,83c0,.15.06.29.08.44-3.39.87-7.42,1.58-10.62-.11C1.87,82,2,77,1.87,74.51c-.32-6.3.39-12.6.25-18.9,0-2-.22-4.41,1.18-6.09S8.74,48,10.78,47.88Z"/></g></g></svg>