<svg xmlns="http://www.w3.org/2000/svg" viewBox="0 0 51.5 51.5"><defs><style>.cls-1,.cls-3{fill:#fff;}.cls-1{stroke:gray;stroke-miterlimit:10;stroke-width:1.5px;}.cls-2{fill:#e73740;}</style></defs><g id="圖層_2" data-name="圖層 2"><g id="_0-ui_kits" data-name="0-ui_kits"><path class="cls-1" d="M25.75.75a25,25,0,1,0,25,25A25,25,0,0,0,25.75.75Z"/><g id="flag_singapore_circle"><path class="cls-2" d="M25.75.75a25,25,0,0,0-25,25V26h50v-.28A25,25,0,0,0,25.75.75ZM18.2,16.17l-1-.76-1.05.76.4-1.23-1.05-.76h1.3l.4-1.23.39,1.23h1.3l-1.05.76Zm-4.33,6a6.66,6.66,0,0,1,.22-12.84,7.17,7.17,0,0,1,3.9.23s-6,.42-6,6.18,6,6.43,6,6.43A7.31,7.31,0,0,1,13.87,22.17Zm5.8-1.76-1-.76-1.05.76.4-1.23-1-.76h1.29l.4-1.23.4,1.23h1.29l-1.05.76Zm.1-6.87.4-1.23-1-.75h1.29l.4-1.23.4,1.23h1.29l-1.05.75.4,1.23-1-.76Zm4.28,6.87-1-.76L22,20.41l.4-1.23-1-.76h1.29l.4-1.23.4,1.23H24.7l-1.05.76Zm1.48-4.24-1.05-.76-1,.76.39-1.23-1-.76h1.29l.4-1.23.4,1.23h1.29l-1,.76Z"/><path class="cls-3" d="M25.75,50.75A25,25,0,0,0,50.75,26H.75A25,25,0,0,0,25.75,50.75Z"/><path class="cls-3" d="M12,15.74c0-5.76,6-6.18,6-6.18a7.17,7.17,0,0,0-3.9-.23,6.66,6.66,0,0,0-.22,12.84,7.31,7.31,0,0,0,4.12,0S12,21.57,12,15.74Z"/><polygon class="cls-3" points="19.03 18.42 18.63 17.19 18.23 18.42 16.94 18.42 17.98 19.18 17.58 20.41 18.63 19.65 19.67 20.41 19.27 19.18 20.32 18.42 19.03 18.42"/><polygon class="cls-3" points="23.41 18.42 23.01 17.19 22.61 18.42 21.32 18.42 22.36 19.18 21.96 20.41 23.01 19.65 24.05 20.41 23.65 19.18 24.7 18.42 23.41 18.42"/><polygon class="cls-3" points="17.55 14.18 17.16 12.95 16.76 14.18 15.46 14.18 16.51 14.94 16.11 16.17 17.16 15.41 18.2 16.17 17.8 14.94 18.85 14.18 17.55 14.18"/><polygon class="cls-3" points="24.88 14.18 24.48 12.95 24.08 14.18 22.79 14.18 23.83 14.94 23.43 16.17 24.48 15.41 25.53 16.17 25.13 14.94 26.17 14.18 24.88 14.18"/><polygon class="cls-3" points="21.46 12.31 22.51 11.55 21.22 11.55 20.82 10.33 20.42 11.55 19.13 11.55 20.17 12.31 19.77 13.54 20.82 12.78 21.86 13.54 21.46 12.31"/></g></g></g></svg>