<svg xmlns="http://www.w3.org/2000/svg" viewBox="0 0 50 50"><defs><style>.cls-1{fill:#193166;}.cls-2{fill:#e41c2d;}.cls-3{fill:#fff;}</style></defs><g id="圖層_2" data-name="圖層 2"><g id="_0-ui_kits" data-name="0-ui_kits"><g id="flag_australia_circle"><path class="cls-1" d="M25.18,0V25H0A25,25,0,1,0,25.18,0ZM12,38.07,9.41,35l-2.53,3,.8-3.88-4-.08,3.54-1.79L4.84,29.17l3.61,1.65,1-3.85,1,3.85L14,29.17l-2.41,3.15,3.54,1.79-4,.08ZM30.46,24.15l-1.24-1.5L28,24.15l.4-1.91-1.95,0,1.74-.88L27,19.78l1.78.81.47-1.89.47,1.89,1.77-.81-1.18,1.54L32,22.2l-2,0Zm3.12-13.4,1.74-.88L34.13,8.32l1.78.81.47-1.89.47,1.89,1.77-.81L37.44,9.87l1.73.88-1.94,0,.39,1.9-1.24-1.5-1.25,1.5.4-1.9Zm6.84,27.06-1.25-1.5-1.24,1.5.39-1.91-1.94,0L38.12,35l-1.19-1.54,1.77.81.47-1.89.48,1.89,1.77-.81L40.23,35l1.74.88L40,35.9Zm1.83-11.09.36,1.1-.94-.69-.94.69.37-1.1-1-.68h1.17l.35-1.11L42,26h1.16Zm2.52-12.33.47,1.89L47,15.47,45.83,17l1.74.88-2,0L46,19.84l-1.24-1.5-1.25,1.5.4-1.91-2,0L43.71,17l-1.18-1.55,1.77.81Z"/><path class="cls-1" d="M4.43,16.84.67,19.33A25.14,25.14,0,0,0,0,25H4.43Z"/><path class="cls-1" d="M21.7.24A24.78,24.78,0,0,0,10.3,4.81v3Z"/><polygon class="cls-1" points="10.3 25 22.04 25 10.3 17.25 10.3 25"/><polygon class="cls-1" points="25.18 9.12 25.18 3.14 16.12 9.12 25.18 9.12"/><polygon class="cls-1" points="25.18 21.88 25.18 14.99 14.74 14.99 25.18 21.88"/><path class="cls-2" d="M4.43,15H2.92l-1.13.74c-.26.66-.5,1.32-.71,2l3.35-2.21Z"/><polygon class="cls-2" points="14.11 9.12 25.18 1.81 25.18 0.29 11.81 9.12 14.11 9.12"/><polygon class="cls-2" points="10.3 14.99 10.3 15.92 24.05 25 25.18 25 25.18 24.23 11.19 14.99 10.3 14.99"/><path class="cls-3" d="M9,10.43H25.18V9.12H16.12l9.06-6V1.81L14.11,9.12h-2.3L25.18.29V0H25a25.63,25.63,0,0,0-3.3.24L10.3,7.78v-3c-.45.32-.89.65-1.31,1v4.62Z"/><polygon class="cls-3" points="4.9 13.68 4.9 13.68 4.9 13.68 4.9 13.68"/><polygon class="cls-3" points="9.22 13.68 9.21 13.68 9.22 13.68 9.22 13.68"/><path class="cls-3" d="M4.43,25H5.74V13.68h-3c-.34.67-.66,1.35-.94,2.05L2.92,15H4.43v.52L1.08,17.72c-.16.53-.28,1.07-.41,1.61l3.76-2.49Z"/><path class="cls-3" d="M5.74,9.07c-.37.43-.69.9-1,1.36h1Z"/><polygon class="cls-3" points="9.22 13.68 9.22 13.68 9.21 13.68 8.99 13.68 8.99 13.83 8.99 15.05 8.99 16.38 8.99 25 10.3 25 10.3 17.25 22.04 25 24.05 25 10.3 15.92 10.3 14.99 11.19 14.99 25.18 24.23 25.18 21.88 14.74 14.99 25.18 14.99 25.18 13.68 12.76 13.68 9.22 13.68"/><path class="cls-2" d="M4.9,13.68h.84V25H9V13.68H25.18V10.43H9V5.81A24.42,24.42,0,0,0,5.74,9.07v1.36h-1a24.94,24.94,0,0,0-2,3.25Z"/><polygon class="cls-3" points="11.57 32.32 13.98 29.16 10.37 30.82 9.41 26.97 8.45 30.82 4.84 29.16 7.26 32.32 3.72 34.11 7.68 34.19 6.88 38.07 9.41 35.02 11.95 38.07 11.14 34.19 15.11 34.11 11.57 32.32"/><polygon class="cls-3" points="40.23 34.98 41.42 33.44 39.65 34.25 39.17 32.36 38.7 34.25 36.93 33.44 38.12 34.98 36.38 35.86 38.33 35.9 37.93 37.81 39.17 36.31 40.42 37.81 40.02 35.9 41.97 35.86 40.23 34.98"/><polygon class="cls-3" points="30.28 21.32 31.46 19.78 29.69 20.59 29.22 18.7 28.75 20.59 26.98 19.78 28.16 21.32 26.42 22.2 28.37 22.24 27.98 24.15 29.22 22.65 30.46 24.15 30.07 22.24 32.02 22.2 30.28 21.32"/><polygon class="cls-3" points="36.38 11.2 37.62 12.7 37.23 10.79 39.17 10.75 37.44 9.87 38.62 8.32 36.85 9.13 36.38 7.24 35.91 9.13 34.13 8.32 35.32 9.87 33.58 10.75 35.53 10.79 35.13 12.7 36.38 11.2"/><polygon class="cls-3" points="43.71 17.02 41.97 17.9 43.92 17.93 43.52 19.84 44.77 18.34 46.02 19.84 45.62 17.93 47.57 17.9 45.83 17.02 47.01 15.47 45.24 16.28 44.77 14.39 44.3 16.28 42.53 15.47 43.71 17.02"/><polygon class="cls-3" points="41.67 24.93 41.32 26.04 40.15 26.04 41.1 26.72 40.73 27.82 41.67 27.13 42.61 27.82 42.25 26.72 43.19 26.04 42.03 26.04 41.67 24.93"/></g></g></g></svg>