<svg xmlns="http://www.w3.org/2000/svg" viewBox="0 0 50 50"><defs><style>.cls-1{fill:#c31e31;}.cls-2{fill:#fff;}.cls-3{fill:#37376c;}</style></defs><g id="圖層_2" data-name="圖層 2"><g id="_0-ui_kits" data-name="0-ui_kits"><g id="flag_us_circle"><path class="cls-1" d="M37.32,3.26a24.93,24.93,0,0,0-8.91-3v3Z"/><path class="cls-2" d="M28.41,3.26v4H42.56a25.07,25.07,0,0,0-5.24-4Z"/><path class="cls-1" d="M28.41,11.17H45.82a24.29,24.29,0,0,0-3.26-3.95H28.41Z"/><path class="cls-2" d="M28.41,15.12H48a23.87,23.87,0,0,0-2.14-3.95H28.41Z"/><path class="cls-1" d="M28.41,19.07H49.26a24,24,0,0,0-1.3-4H28.41Z"/><path class="cls-2" d="M28.41,23H49.9a24.47,24.47,0,0,0-.64-3.95H28.41Z"/><path class="cls-1" d="M28.41,26.91H.1V27H49.9c.05-.66.1-1.31.1-2s0-1.32-.1-2H28.41Z"/><path class="cls-2" d="M.74,30.93H49.26A24.47,24.47,0,0,0,49.9,27H.1A24.47,24.47,0,0,0,.74,30.93Z"/><path class="cls-1" d="M2,34.88H48a24,24,0,0,0,1.3-4H.74A24,24,0,0,0,2,34.88Z"/><path class="cls-1" d="M25,50a24.94,24.94,0,0,0,12.32-3.26H12.68A24.94,24.94,0,0,0,25,50Z"/><path class="cls-2" d="M4.18,38.83H45.82A23.87,23.87,0,0,0,48,34.88H2A23.87,23.87,0,0,0,4.18,38.83Z"/><path class="cls-1" d="M7.44,42.78H42.56a24.72,24.72,0,0,0,3.26-4H4.18A24.72,24.72,0,0,0,7.44,42.78Z"/><path class="cls-2" d="M12.68,46.74H37.32a25.07,25.07,0,0,0,5.24-4H7.44A25.07,25.07,0,0,0,12.68,46.74Z"/><path class="cls-3" d="M28.41,23V.26A25.57,25.57,0,0,0,25,0a24.93,24.93,0,0,0-6.21.81l.21.64h1.24l-1,.73.39,1.19-1-.73-1,.73L18,2.18l-1-.73h1.24L18.4.91A25.19,25.19,0,0,0,13.07,3l.11.35-.3-.23A25.67,25.67,0,0,0,9.73,5.23l.3.9-.76-.55A25.21,25.21,0,0,0,6.52,8.2l.23.7-.52-.38A25.32,25.32,0,0,0,2,15.27H2.2l.38-1.19L3,15.27H4.22l-1,.73.38,1.19-1-.73-1,.73L2,16l-.21-.15A25,25,0,0,0,.07,23.56H.94l-.9.65c0,.13,0,.25,0,.37l.29.9L0,25.26q0,.84.09,1.65H28.41ZM26.06,20l-1-.73L24,20l.38-1.18-1-.74h1.25l.39-1.18L25.43,18h1.25l-1,.74ZM8.63,20.8,9,19.61,9.4,20.8h1.25l-1,.73L10,22.72,9,22l-1,.74.39-1.19-1-.73Zm2.92-2-1-.74h1.25l.38-1.18L12.56,18h1.25l-1,.74L13.18,20l-1-.73-1,.73Zm2.27-9h1.25l.39-1.19.38,1.19h1.25l-1,.74.38,1.18-1-.73-1,.73.39-1.18Zm5.8,4.68-1-.73-1,.73L18,13.24l-1-.73h1.24l.39-1.19L19,12.51h1.24l-1,.73Zm-7.83-1.91.38-1.19.39,1.19h1.25l-1,.73.38,1.18-1-.73-1,.73.39-1.18-1-.73Zm3.67,1.57.38,1.19h1.25l-1,.73.38,1.19-1-.73-1,.73L14.83,16l-1-.73h1.25Zm1,8.64-1-.74-1,.74.39-1.19-1-.73h1.25l.39-1.19.38,1.19h1.25l-1,.73ZM18,18.77,17,18h1.24l.39-1.18L19,18h1.24l-1,.74L19.62,20l-1-.73-1,.73Zm4.91,3.95-1-.74-1,.74.39-1.19-1-.73H21.5l.39-1.19.39,1.19h1.24l-1,.73Zm-.62-7.45h1.24l-1,.73.39,1.19-1-.73-1,.73L21.27,16l-1-.73H21.5l.39-1.19Zm3.78-.85-1-.73-1,.73.38-1.18-1-.73h1.25l.39-1.19.38,1.19h1.25l-1,.73ZM22.9,11.66l-1-.73-1,.73.39-1.18-1-.74H21.5l.39-1.19.39,1.19h1.24l-1,.74ZM26.06,8.9l-1-.74L24,8.9l.38-1.19-1-.73h1.25l.39-1.19L25.43,7h1.25l-1,.73Zm-1.4-7.45L25.05.26l.38,1.19h1.25l-1,.73.39,1.19-1-.73-1,.73.38-1.19-1-.73ZM21.89,3l.39,1.18h1.24l-1,.74.39,1.18-1-.73-1,.73L21.27,5l-1-.74H21.5ZM18.22,7l.39-1.19L19,7h1.24l-1,.73.39,1.19-1-.74-1,.74L18,7.71,17,7ZM15.46,3l.38,1.18h1.25l-1,.74.38,1.18-1-.73-1,.73L14.83,5l-1-.74h1.25ZM10.54,7h1.25l.38-1.19L12.56,7h1.25l-1,.73.38,1.19-1-.74-1,.74.39-1.19ZM7.39,9.74H8.63L9,8.55,9.4,9.74h1.25l-1,.74L10,11.66l-1-.73-1,.73.39-1.18Zm-2,2.77.39-1.19.38,1.19H7.37l-1,.73.39,1.18-1-.73-1,.73.39-1.18-1-.73ZM9,14.08l.38,1.19h1.25l-1,.73L10,17.19l-1-.73-1,.73L8.4,16l-1-.73H8.63ZM4.1,18H5.35l.39-1.18L6.12,18H7.37l-1,.74L6.75,20l-1-.73-1,.73.39-1.18Zm-.51,4.69-1-.74-1,.74L2,21.53,1,20.8H2.2l.38-1.19L3,20.8H4.22l-1,.73Zm3.16,2.76-1-.73-1,.73.39-1.18-1-.74H5.35l.39-1.18.38,1.18H7.37l-1,.74Zm6.43,0-1-.73-1,.73.39-1.18-1-.74h1.25l.38-1.18.39,1.18h1.25l-1,.74Zm6.44,0-1-.73-1,.73L18,24.3l-1-.74h1.24l.39-1.18L19,23.56h1.24l-1,.74Zm6.44,0-1-.73-1,.73.38-1.18-1-.74h1.25l.39-1.18.38,1.18h1.25l-1,.74Z"/><path class="cls-2" d="M9.73,5.23l-.46.35.76.55Z"/><polygon class="cls-2" points="13.82 4.21 14.83 4.95 14.45 6.13 15.46 5.4 16.46 6.13 16.08 4.95 17.09 4.21 15.84 4.21 15.46 3.03 15.07 4.21 13.82 4.21"/><polygon class="cls-2" points="20.26 4.21 21.27 4.95 20.88 6.13 21.89 5.4 22.9 6.13 22.51 4.95 23.52 4.21 22.28 4.21 21.89 3.03 21.5 4.21 20.26 4.21"/><polygon class="cls-2" points="8.01 11.66 9.02 10.93 10.03 11.66 9.64 10.47 10.65 9.74 9.4 9.74 9.02 8.55 8.63 9.74 7.39 9.74 8.4 10.47 8.01 11.66"/><polygon class="cls-2" points="14.45 11.66 15.46 10.93 16.46 11.66 16.08 10.47 17.09 9.74 15.84 9.74 15.46 8.55 15.07 9.74 13.82 9.74 14.83 10.47 14.45 11.66"/><polygon class="cls-2" points="23.52 9.74 22.28 9.74 21.89 8.55 21.5 9.74 20.26 9.74 21.27 10.47 20.88 11.66 21.89 10.93 22.9 11.66 22.51 10.47 23.52 9.74"/><path class="cls-2" d="M1.57,17.19l1-.73,1,.73L3.21,16l1-.73H3l-.39-1.19L2.2,15.27H2c-.08.19-.13.39-.21.58L2,16Z"/><polygon class="cls-2" points="7.39 15.27 8.4 16 8.01 17.19 9.02 16.46 10.03 17.19 9.64 16 10.65 15.27 9.4 15.27 9.02 14.08 8.63 15.27 7.39 15.27"/><polygon class="cls-2" points="13.82 15.27 14.83 16 14.45 17.19 15.46 16.46 16.46 17.19 16.08 16 17.09 15.27 15.84 15.27 15.46 14.08 15.07 15.27 13.82 15.27"/><polygon class="cls-2" points="21.5 15.27 20.26 15.27 21.27 16 20.88 17.19 21.89 16.46 22.9 17.19 22.51 16 23.52 15.27 22.28 15.27 21.89 14.08 21.5 15.27"/><polygon class="cls-2" points="2.97 20.8 2.58 19.61 2.2 20.8 0.95 20.8 1.96 21.53 1.57 22.72 2.58 21.98 3.59 22.72 3.21 21.53 4.22 20.8 2.97 20.8"/><polygon class="cls-2" points="8.01 22.72 9.02 21.98 10.03 22.72 9.64 21.53 10.65 20.8 9.4 20.8 9.02 19.61 8.63 20.8 7.39 20.8 8.4 21.53 8.01 22.72"/><polygon class="cls-2" points="15.84 20.8 15.46 19.61 15.07 20.8 13.82 20.8 14.83 21.53 14.45 22.72 15.46 21.98 16.46 22.72 16.08 21.53 17.09 20.8 15.84 20.8"/><polygon class="cls-2" points="22.28 20.8 21.89 19.61 21.5 20.8 20.26 20.8 21.27 21.53 20.88 22.72 21.89 21.98 22.9 22.72 22.51 21.53 23.52 20.8 22.28 20.8"/><path class="cls-2" d="M13.18,3.37,13.07,3l-.19.12Z"/><path class="cls-2" d="M17,1.45l1,.73L17.6,3.37l1-.73,1,.73-.39-1.19,1-.73H19L18.79.81l-.39.1-.18.54Z"/><polygon class="cls-2" points="24.04 3.37 25.05 2.63 26.06 3.37 25.67 2.18 26.68 1.45 25.43 1.45 25.05 0.26 24.66 1.45 23.41 1.45 24.42 2.18 24.04 3.37"/><path class="cls-2" d="M6.52,8.2c-.09.11-.19.21-.29.32l.52.38Z"/><polygon class="cls-2" points="11.16 8.9 12.17 8.16 13.18 8.9 12.8 7.71 13.81 6.98 12.56 6.98 12.17 5.79 11.79 6.98 10.54 6.98 11.55 7.71 11.16 8.9"/><polygon class="cls-2" points="17.99 7.71 17.6 8.9 18.61 8.16 19.62 8.9 19.23 7.71 20.24 6.98 19 6.98 18.61 5.79 18.23 6.98 16.98 6.98 17.99 7.71"/><polygon class="cls-2" points="26.68 6.98 25.43 6.98 25.05 5.79 24.66 6.98 23.41 6.98 24.42 7.71 24.04 8.9 25.05 8.16 26.06 8.9 25.67 7.71 26.68 6.98"/><polygon class="cls-2" points="4.73 14.43 5.74 13.69 6.75 14.43 6.36 13.24 7.37 12.51 6.12 12.51 5.74 11.32 5.35 12.51 4.11 12.51 5.12 13.24 4.73 14.43"/><polygon class="cls-2" points="11.16 14.43 12.17 13.69 13.18 14.43 12.8 13.24 13.81 12.51 12.56 12.51 12.17 11.32 11.79 12.51 10.54 12.51 11.55 13.24 11.16 14.43"/><polygon class="cls-2" points="19 12.51 18.61 11.32 18.23 12.51 16.98 12.51 17.99 13.24 17.6 14.43 18.61 13.69 19.62 14.43 19.23 13.24 20.24 12.51 19 12.51"/><polygon class="cls-2" points="25.43 12.51 25.05 11.32 24.66 12.51 23.41 12.51 24.42 13.24 24.04 14.43 25.05 13.69 26.06 14.43 25.67 13.24 26.68 12.51 25.43 12.51"/><polygon class="cls-2" points="4.73 19.95 5.74 19.22 6.75 19.95 6.36 18.77 7.37 18.03 6.12 18.03 5.74 16.85 5.35 18.03 4.11 18.03 5.12 18.77 4.73 19.95"/><polygon class="cls-2" points="13.18 19.95 12.8 18.77 13.81 18.03 12.56 18.03 12.17 16.85 11.79 18.03 10.54 18.03 11.55 18.77 11.16 19.95 12.17 19.22 13.18 19.95"/><polygon class="cls-2" points="19.62 19.95 19.23 18.77 20.24 18.03 19 18.03 18.61 16.85 18.23 18.03 16.98 18.03 17.99 18.77 17.6 19.95 18.61 19.22 19.62 19.95"/><polygon class="cls-2" points="26.68 18.03 25.43 18.03 25.05 16.85 24.66 18.03 23.41 18.03 24.42 18.77 24.04 19.95 25.05 19.22 26.06 19.95 25.67 18.77 26.68 18.03"/><path class="cls-2" d="M.07,23.56l0,.65.9-.65Z"/><path class="cls-2" d="M0,24.58c0,.14,0,.28,0,.42s0,.17,0,.26l.3.22Z"/><polygon class="cls-2" points="6.12 23.56 5.74 22.38 5.35 23.56 4.11 23.56 5.12 24.3 4.73 25.48 5.74 24.75 6.75 25.48 6.36 24.3 7.37 23.56 6.12 23.56"/><polygon class="cls-2" points="12.56 23.56 12.17 22.38 11.79 23.56 10.54 23.56 11.55 24.3 11.16 25.48 12.17 24.75 13.18 25.48 12.8 24.3 13.81 23.56 12.56 23.56"/><polygon class="cls-2" points="19 23.56 18.61 22.38 18.23 23.56 16.98 23.56 17.99 24.3 17.6 25.48 18.61 24.75 19.62 25.48 19.23 24.3 20.24 23.56 19 23.56"/><polygon class="cls-2" points="25.43 23.56 25.05 22.38 24.66 23.56 23.41 23.56 24.42 24.3 24.04 25.48 25.05 24.75 26.06 25.48 25.67 24.3 26.68 23.56 25.43 23.56"/></g></g></g></svg>