<svg xmlns="http://www.w3.org/2000/svg" viewBox="0 0 50 50"><defs><style>.cls-1{fill:#e8453d;}.cls-2{fill:#fff;}</style></defs><g id="圖層_2" data-name="圖層 2"><g id="_0-ui_kits" data-name="0-ui_kits"><g id="flag_denmark_circle"><path class="cls-1" d="M25,0a24.9,24.9,0,0,0-6.78,1V21.11H49.67A25,25,0,0,0,25,0Z"/><path class="cls-1" d="M18.22,49A24.89,24.89,0,0,0,49.65,29H18.22Z"/><path class="cls-1" d="M.35,29a25,25,0,0,0,10,16.2V29Z"/><path class="cls-1" d="M10.32,4.79a25,25,0,0,0-10,16.32h10Z"/><path class="cls-2" d="M18.22,1a25,25,0,0,0-7.9,3.83V21.11H.33A24.9,24.9,0,0,0,0,25a25.23,25.23,0,0,0,.35,4h10v16.2A25,25,0,0,0,18.22,49V29H49.65A25.23,25.23,0,0,0,50,25a24.9,24.9,0,0,0-.33-3.89H18.22Z"/></g></g></g></svg>