<svg xmlns="http://www.w3.org/2000/svg" viewBox="0 0 50 50"><defs><style>.cls-1{fill:#006291;}.cls-2{fill:#f2bd00;}</style></defs><g id="圖層_2" data-name="圖層 2"><g id="_0-ui_kits" data-name="0-ui_kits"><g id="flag_sweden_circle"><path class="cls-1" d="M10.54,4.63A25,25,0,0,0,.43,20.48H10.54Z"/><path class="cls-1" d="M25,0A24.72,24.72,0,0,0,20,.51v20H49.57A25,25,0,0,0,25,0Z"/><path class="cls-1" d="M.49,29.89a25,25,0,0,0,10,15.48V29.89Z"/><path class="cls-1" d="M20,49.49A24.72,24.72,0,0,0,25,50,25,25,0,0,0,49.52,29.89H20Z"/><path class="cls-2" d="M20,.51a25,25,0,0,0-9.41,4.12V20.48H.43A24.91,24.91,0,0,0,0,25a24.65,24.65,0,0,0,.49,4.89h10V45.37A25,25,0,0,0,20,49.49V29.89H49.52A25.42,25.42,0,0,0,50,25a24.91,24.91,0,0,0-.43-4.52H20Z"/></g></g></g></svg>