<svg xmlns="http://www.w3.org/2000/svg" viewBox="0 0 52 100"><defs><style>.cls-1{fill:#e73740;}.cls-2{fill:#fff;}</style></defs><g id="圖層_2" data-name="圖層 2"><g id="_0-ui_kits" data-name="0-ui_kits"><g id="flag_singapore_stick"><rect class="cls-1" x="2" width="50" height="18"/><rect class="cls-2" x="2" y="18" width="50" height="18"/><path class="cls-2" d="M15.45,2.88a6.59,6.59,0,0,0-3.59-.21,6.06,6.06,0,0,0-4.6,6,6,6,0,0,0,4.4,5.78,6.68,6.68,0,0,0,3.79,0s-5.5-.55-5.53-5.9S15.45,2.88,15.45,2.88Z"/><polygon class="cls-2" points="16.04 9.89 16.41 11.02 17.6 11.02 16.64 11.71 17.01 12.84 16.04 12.15 15.08 12.84 15.45 11.71 14.48 11.02 15.68 11.02 16.04 9.89"/><polygon class="cls-2" points="20.08 9.89 20.45 11.02 21.64 11.02 20.67 11.71 21.04 12.84 20.08 12.15 19.11 12.84 19.48 11.71 18.52 11.02 19.71 11.02 20.08 9.89"/><polygon class="cls-2" points="14.69 5.99 15.05 7.12 16.24 7.12 15.28 7.82 15.65 8.95 14.69 8.25 13.72 8.95 14.09 7.82 13.13 7.12 14.32 7.12 14.69 5.99"/><polygon class="cls-2" points="21.44 5.99 21.8 7.12 22.99 7.12 22.03 7.82 22.4 8.95 21.44 8.25 20.47 8.95 20.84 7.82 19.88 7.12 21.07 7.12 21.44 5.99"/><polygon class="cls-2" points="18.06 3.58 18.43 4.71 19.62 4.71 18.66 5.41 19.02 6.54 18.06 5.84 17.1 6.54 17.46 5.41 16.5 4.71 17.69 4.71 18.06 3.58"/><rect class="cls-2" width="2" height="100"/></g></g></g></svg>