<svg xmlns="http://www.w3.org/2000/svg" viewBox="0 0 52 100"><defs><style>.cls-1{fill:#193166;}.cls-2{fill:#e41c2d;}.cls-3{fill:#fff;}</style></defs><g id="圖層_2" data-name="圖層 2"><g id="_0-ui_kits" data-name="0-ui_kits"><g id="flag_australia_stick"><rect class="cls-1" x="2" width="50" height="36"/><polygon class="cls-1" points="3.73 18 12.41 18 12.41 12.29 3.73 18"/><polygon class="cls-1" points="25.54 0 16.54 0 16.54 5.93 25.54 0"/><polygon class="cls-1" points="2 10.98 2 15.5 8.86 10.98 2 10.98"/><polygon class="cls-1" points="2 3 2 6.87 7.88 6.87 2 3"/><polygon class="cls-1" points="12.41 0 2.97 0 12.41 6.21 12.41 0"/><polygon class="cls-1" points="16.54 18 24.79 18 16.54 12.57 16.54 18"/><polygon class="cls-1" points="27 6.87 27 7.79 27 10.07 27 10.98 19.66 10.98 27 15.82 27 2.68 20.63 6.87 27 6.87"/><polygon class="cls-2" points="11.35 10.98 2 17.14 2 18 2.31 18 12.41 11.35 12.41 10.98 11.35 10.98"/><polygon class="cls-2" points="27 1.75 27 0.69 17.6 6.87 19.21 6.87 27 1.75"/><polygon class="cls-2" points="2 1 2 2.07 9.3 6.87 10.92 6.87 2 1"/><polygon class="cls-2" points="16.54 10.98 16.54 11.64 26.2 18 27 18 27 17.46 17.16 10.98 16.54 10.98"/><polygon class="cls-3" points="27 0 25.54 0 16.54 5.93 16.54 0 15.62 0 15.62 6.54 15.62 7.79 16.2 7.79 17.82 7.79 19.24 7.79 27 7.79 27 6.87 20.63 6.87 27 2.68 27 1.75 19.21 6.87 17.6 6.87 27 0.69 27 0"/><polygon class="cls-3" points="12.74 10.07 12.74 10.07 12.74 10.07 12.74 10.07"/><polygon class="cls-3" points="15.77 10.07 15.78 10.07 15.78 10.07 15.77 10.07"/><polygon class="cls-3" points="12.74 10.07 12.74 10.07 12.74 10.07 10.25 10.07 2 10.07 2 10.98 8.86 10.98 2 15.5 2 17.14 11.35 10.98 12.41 10.98 12.41 11.35 2.31 18 3.73 18 12.41 12.29 12.41 18 13.33 18 13.33 11.68 13.33 10.75 13.33 10.46 13.33 10.07 12.74 10.07"/><polygon class="cls-3" points="12.41 0 12.41 6.21 2.97 0 2 0 2 1 10.92 6.87 9.3 6.87 2 2.07 2 3 7.88 6.87 2 6.87 2 7.79 9.28 7.79 10.69 7.79 12.31 7.79 13.33 7.79 13.33 6.82 13.33 0 12.41 0"/><polygon class="cls-3" points="17.16 10.98 27 17.46 27 15.82 19.66 10.98 27 10.98 27 10.07 18.27 10.07 15.78 10.07 15.78 10.07 15.77 10.07 15.62 10.07 15.62 10.18 15.62 11.03 15.62 11.96 15.62 18 16.54 18 16.54 12.57 24.79 18 26.2 18 16.54 11.64 16.54 10.98 17.16 10.98"/><polygon class="cls-2" points="19.24 7.79 17.82 7.79 16.2 7.79 15.62 7.79 15.62 6.54 15.62 0 13.33 0 13.33 6.82 13.33 7.79 12.31 7.79 10.69 7.79 9.28 7.79 2 7.79 2 10.07 10.25 10.07 12.74 10.07 12.74 10.07 13.33 10.07 13.33 10.46 13.33 10.75 13.33 11.68 13.33 18 15.62 18 15.62 11.96 15.62 11.03 15.62 10.18 15.62 10.07 15.77 10.07 15.78 10.07 18.27 10.07 27 10.07 27 7.79 19.24 7.79"/><polygon class="cls-3" points="14.98 21.71 15.88 25.29 19.23 23.75 16.99 26.68 20.29 28.34 16.59 28.41 17.34 32.02 14.98 29.19 12.62 32.02 13.37 28.41 9.68 28.34 12.97 26.68 10.73 23.75 14.09 25.29 14.98 21.71"/><polygon class="cls-3" points="42.7 26.71 43.14 28.47 44.79 27.72 43.69 29.15 45.31 29.97 43.49 30.01 43.86 31.78 42.7 30.39 41.54 31.78 41.91 30.01 40.1 29.97 41.72 29.15 40.61 27.72 42.26 28.47 42.7 26.71"/><polygon class="cls-3" points="33.43 14.03 33.87 15.79 35.52 15.04 34.42 16.47 36.04 17.29 34.22 17.33 34.59 19.1 33.43 17.71 32.27 19.1 32.64 17.33 30.82 17.29 32.44 16.47 31.34 15.04 32.99 15.79 33.43 14.03"/><polygon class="cls-3" points="40.1 3.4 40.54 5.15 42.19 4.4 41.08 5.84 42.7 6.66 40.89 6.69 41.26 8.46 40.1 7.07 38.94 8.46 39.31 6.69 37.49 6.66 39.11 5.84 38.01 4.4 39.66 5.15 40.1 3.4"/><polygon class="cls-3" points="47.91 10.04 48.35 11.79 50 11.04 48.9 12.47 50.52 13.29 48.7 13.33 49.07 15.1 47.91 13.71 46.76 15.1 47.12 13.33 45.31 13.29 46.93 12.47 45.83 11.04 47.48 11.79 47.91 10.04"/><polygon class="cls-3" points="45.03 19.82 45.36 20.85 46.45 20.85 45.57 21.48 45.91 22.51 45.03 21.87 44.16 22.51 44.49 21.48 43.62 20.85 44.7 20.85 45.03 19.82"/><rect class="cls-3" width="2" height="100"/></g></g></g></svg>