<svg xmlns="http://www.w3.org/2000/svg" viewBox="0 0 52 100"><defs><style>.cls-1{fill:#193166;}.cls-2{fill:#e41c2d;}.cls-3{fill:#fff;}.cls-4{fill:#de1a2a;}.cls-5{fill:#fcfdfd;}</style></defs><g id="圖層_2" data-name="圖層 2"><g id="_0-ui_kits" data-name="0-ui_kits"><g id="flag_new_zealand_stick"><rect class="cls-1" x="2.01" width="49.99" height="36"/><polygon class="cls-1" points="3.73 18.01 12.41 18.01 12.41 12.29 3.73 18.01"/><polygon class="cls-1" points="25.55 0 16.54 0 16.54 5.93 25.55 0"/><polygon class="cls-1" points="2 10.99 2 15.5 8.86 10.99 2 10.99"/><polygon class="cls-1" points="2 3 2 6.88 7.89 6.88 2 3"/><polygon class="cls-1" points="12.41 0 2.97 0 12.41 6.22 12.41 0"/><polygon class="cls-1" points="16.54 18.01 24.79 18.01 16.54 12.57 16.54 18.01"/><polygon class="cls-1" points="27 6.88 27 7.79 27 10.07 27 10.99 19.66 10.99 27 15.82 27 2.68 20.64 6.88 27 6.88"/><polygon class="cls-2" points="11.35 10.99 2 17.15 2 18.01 2.31 18.01 12.41 11.36 12.41 10.99 11.35 10.99"/><polygon class="cls-2" points="27 1.75 27 0.69 17.6 6.88 19.22 6.88 27 1.75"/><polygon class="cls-2" points="2 1 2 2.07 9.3 6.88 10.92 6.88 2 1"/><polygon class="cls-2" points="16.54 10.99 16.54 11.64 26.21 18.01 27 18.01 27 17.47 17.17 10.99 16.54 10.99"/><polygon class="cls-3" points="27 0 25.55 0 16.54 5.93 16.54 0 15.62 0 15.62 6.54 15.62 7.79 16.21 7.79 17.82 7.79 19.24 7.79 27 7.79 27 6.88 20.64 6.88 27 2.68 27 1.75 19.22 6.88 17.6 6.88 27 0.69 27 0"/><polygon class="cls-3" points="12.74 10.07 12.74 10.07 12.75 10.07 12.74 10.07"/><polygon class="cls-3" points="15.78 10.07 15.78 10.07 15.78 10.07 15.78 10.07"/><polygon class="cls-3" points="12.75 10.07 12.74 10.07 12.74 10.07 10.25 10.07 2 10.07 2 10.99 8.86 10.99 2 15.5 2 17.15 11.35 10.99 12.41 10.99 12.41 11.36 2.31 18.01 3.73 18.01 12.41 12.29 12.41 18.01 13.33 18.01 13.33 11.69 13.33 10.75 13.33 10.46 13.33 10.07 12.75 10.07"/><polygon class="cls-3" points="12.41 0 12.41 6.22 2.97 0 2 0 2 1 10.92 6.88 9.3 6.88 2 2.07 2 3 7.89 6.88 2 6.88 2 7.79 9.28 7.79 10.7 7.79 12.31 7.79 13.33 7.79 13.33 6.82 13.33 0 12.41 0"/><polygon class="cls-3" points="17.17 10.99 27 17.47 27 15.82 19.66 10.99 27 10.99 27 10.07 18.27 10.07 15.78 10.07 15.78 10.07 15.78 10.07 15.62 10.07 15.62 10.18 15.62 11.04 15.62 11.97 15.62 18.01 16.54 18.01 16.54 12.57 24.79 18.01 26.21 18.01 16.54 11.64 16.54 10.99 17.17 10.99"/><polygon class="cls-2" points="19.24 7.79 17.82 7.79 16.21 7.79 15.62 7.79 15.62 6.54 15.62 0 13.33 0 13.33 6.82 13.33 7.79 12.31 7.79 10.7 7.79 9.28 7.79 2 7.79 2 10.07 10.25 10.07 12.74 10.07 12.75 10.07 13.33 10.07 13.33 10.46 13.33 10.75 13.33 11.69 13.33 18.01 15.62 18.01 15.62 11.97 15.62 11.04 15.62 10.18 15.62 10.07 15.78 10.07 15.78 10.07 18.27 10.07 27 10.07 27 7.79 19.24 7.79"/><polygon class="cls-4" points="41.45 26.22 39.68 26.2 39.15 24.51 38.58 26.19 36.81 26.17 38.23 27.22 37.66 28.9 39.11 27.88 40.53 28.93 40.01 27.24 41.45 26.22"/><path class="cls-3" d="M42.22,26l-2.36,0-.7-2.25-.76,2.23-2.36,0,1.89,1.4-.75,2.24,1.93-1.37L41,29.59l-.7-2.25Zm-3.11,1.89-1.45,1,.57-1.68-1.42-1,1.77,0,.57-1.68.53,1.69,1.77,0-1.44,1,.53,1.69Z"/><polygon class="cls-4" points="36.07 16.72 34.49 16.7 34.02 15.2 33.52 16.69 31.95 16.68 33.21 17.61 32.71 19.1 33.99 18.19 35.26 19.13 34.79 17.63 36.07 16.72"/><path class="cls-3" d="M36.75,16.5l-2.09,0-.63-2-.67,2-2.09,0L33,17.69l-.67,2L34,18.46l1.68,1.25-.62-2ZM34,18.19l-1.28.91.5-1.49L32,16.68h1.57L34,15.2l.47,1.5,1.58,0-1.28.91.47,1.5Z"/><polygon class="cls-4" points="41.64 8.54 40.29 8.52 39.89 7.24 39.46 8.51 38.11 8.5 39.19 9.3 38.76 10.57 39.86 9.79 40.94 10.59 40.54 9.31 41.64 8.54"/><path class="cls-3" d="M42.22,8.35l-1.79,0-.54-1.7-.57,1.69-1.79,0L39,9.37l-.57,1.69,1.46-1,1.44,1.06-.54-1.7ZM39.86,9.79l-1.1.78.43-1.27-1.08-.8h1.35l.43-1.27.4,1.28,1.35,0-1.1.77.4,1.28Z"/><polygon class="cls-4" points="47.94 13.74 46.68 13.72 46.3 12.53 45.9 13.71 44.64 13.7 45.65 14.45 45.25 15.64 46.27 14.91 47.28 15.66 46.91 14.46 47.94 13.74"/><path class="cls-5" d="M48.48,13.57l-1.67,0-.5-1.6-.54,1.59-1.68,0,1.35,1-.53,1.58,1.36-1,1.35,1-.5-1.6Zm-2.21,1.34-1,.73.4-1.19-1-.75H45.9l.4-1.19.38,1.2,1.26,0-1,.72.38,1.2Z"/><rect class="cls-3" width="2" height="100"/></g></g></g></svg>