<svg xmlns="http://www.w3.org/2000/svg" viewBox="0 0 52 100"><defs><style>.cls-1{fill:#193166;}.cls-2{fill:#e41c2d;}.cls-3{fill:#fff;}</style></defs><g id="圖層_2" data-name="圖層 2"><g id="_0-ui_kits" data-name="0-ui_kits"><g id="flag_uk_stick"><polygon class="cls-1" points="5.46 36 22.82 36 22.82 24.57 5.46 36"/><polygon class="cls-1" points="49.09 0 31.07 0 31.07 11.86 49.09 0"/><polygon class="cls-1" points="2 21.97 2 31 15.71 21.97 2 21.97"/><polygon class="cls-1" points="2 6 2 13.75 13.77 13.75 2 6"/><polygon class="cls-1" points="22.82 0 3.94 0 22.82 12.43 22.82 0"/><polygon class="cls-1" points="31.07 36 47.58 36 31.07 25.14 31.07 36"/><polygon class="cls-1" points="52 13.75 52 15.58 52 20.14 52 21.97 37.32 21.97 52 31.63 52 5.36 39.26 13.75 52 13.75"/><polygon class="cls-2" points="20.7 21.97 2 34.28 2 36 2.62 36 22.82 22.71 22.82 21.97 20.7 21.97"/><polygon class="cls-2" points="52 3.5 52 1.37 33.19 13.75 36.43 13.75 52 3.5"/><polygon class="cls-2" points="2 2.01 2 4.14 16.6 13.75 19.84 13.75 2 2.01"/><polygon class="cls-2" points="31.07 21.97 31.07 23.27 50.41 36 52 36 52 34.92 32.33 21.97 31.07 21.97"/><polygon class="cls-3" points="52 0 49.09 0 31.07 11.86 31.07 0 29.23 0 29.23 13.07 29.23 15.58 30.41 15.58 33.65 15.58 36.48 15.58 52 15.58 52 13.75 39.26 13.75 52 5.36 52 3.5 36.43 13.75 33.19 13.75 52 1.37 52 0"/><polygon class="cls-3" points="23.48 20.14 23.48 20.14 23.49 20.14 23.48 20.14"/><polygon class="cls-3" points="29.55 20.14 29.55 20.14 29.56 20.14 29.55 20.14"/><polygon class="cls-3" points="23.49 20.14 23.48 20.14 23.48 20.14 18.5 20.14 2 20.14 2 21.97 15.71 21.97 2 31 2 34.28 20.7 21.97 22.82 21.97 22.82 22.71 2.62 36 5.46 36 22.82 24.57 22.82 36 24.66 36 24.66 23.36 24.66 21.5 24.66 20.91 24.66 20.14 23.49 20.14"/><polygon class="cls-3" points="22.82 0 22.82 12.43 3.94 0 2 0 2 2.01 19.84 13.75 16.6 13.75 2 4.14 2 6 13.77 13.75 2 13.75 2 15.58 16.55 15.58 19.39 15.58 22.62 15.58 24.66 15.58 24.66 13.64 24.66 0 22.82 0"/><polygon class="cls-3" points="32.33 21.97 52 34.92 52 31.63 37.32 21.97 52 21.97 52 20.14 34.53 20.14 29.56 20.14 29.55 20.14 29.55 20.14 29.23 20.14 29.23 20.35 29.23 22.06 29.23 23.92 29.23 36 31.07 36 31.07 25.14 47.58 36 50.41 36 31.07 23.27 31.07 21.97 32.33 21.97"/><polygon class="cls-2" points="36.48 15.58 33.65 15.58 30.41 15.58 29.23 15.58 29.23 13.07 29.23 0 24.66 0 24.66 13.64 24.66 15.58 22.62 15.58 19.39 15.58 16.55 15.58 2 15.58 2 20.14 18.5 20.14 23.48 20.14 23.49 20.14 24.66 20.14 24.66 20.91 24.66 21.5 24.66 23.36 24.66 36 29.23 36 29.23 23.92 29.23 22.06 29.23 20.35 29.23 20.14 29.55 20.14 29.56 20.14 34.53 20.14 52 20.14 52 15.58 36.48 15.58"/><rect class="cls-3" width="2" height="100"/></g></g></g></svg>