<svg xmlns="http://www.w3.org/2000/svg" viewBox="0 0 51.5 51.5"><defs><style>.cls-1,.cls-2{fill:#fff;}.cls-1{stroke:gray;stroke-miterlimit:10;stroke-width:1.5px;}.cls-3{fill:#003e8e;}.cls-4{fill:#e63125;}</style></defs><g id="圖層_2" data-name="圖層 2"><g id="_0-ui_kits" data-name="0-ui_kits"><path class="cls-1" d="M25.75.75a25,25,0,1,0,25,25A25,25,0,0,0,25.75.75Z"/><g id="flag_russia_circle"><path class="cls-2" d="M25.75.75A25,25,0,0,0,2.34,17H49.16A25,25,0,0,0,25.75.75Z"/><path class="cls-3" d="M.75,25.75a25,25,0,0,0,1.48,8.41h47A24.67,24.67,0,0,0,49.16,17H2.34A25,25,0,0,0,.75,25.75Z"/><path class="cls-4" d="M25.75,50.75A25,25,0,0,0,49.27,34.16h-47A25,25,0,0,0,25.75,50.75Z"/></g></g></g></svg>