<svg xmlns="http://www.w3.org/2000/svg" viewBox="0 0 50 36"><defs><style>.cls-1{fill:#e73740;}.cls-2{fill:#fff;}</style></defs><g id="圖層_2" data-name="圖層 2"><g id="_0-ui_kits" data-name="0-ui_kits"><g id="flag_singapore_square"><rect class="cls-1" width="50" height="18"/><rect class="cls-2" y="18" width="50" height="18"/><path class="cls-2" d="M13.45,2.87a6.64,6.64,0,0,0-3.59-.2,6.06,6.06,0,0,0-4.6,6,6,6,0,0,0,4.4,5.78,6.68,6.68,0,0,0,3.79,0S8,13.9,7.92,8.55,13.45,2.87,13.45,2.87Z"/><polygon class="cls-2" points="14.04 9.89 14.41 11.02 15.6 11.02 14.64 11.71 15.01 12.84 14.04 12.14 13.08 12.84 13.45 11.71 12.48 11.02 13.68 11.02 14.04 9.89"/><polygon class="cls-2" points="18.08 9.89 18.45 11.02 19.64 11.02 18.67 11.71 19.04 12.84 18.08 12.14 17.11 12.84 17.48 11.71 16.52 11.02 17.71 11.02 18.08 9.89"/><polygon class="cls-2" points="12.69 5.99 13.05 7.12 14.24 7.12 13.28 7.82 13.65 8.95 12.69 8.25 11.72 8.95 12.09 7.82 11.13 7.12 12.32 7.12 12.69 5.99"/><polygon class="cls-2" points="19.44 5.99 19.8 7.12 20.99 7.12 20.03 7.82 20.4 8.95 19.44 8.25 18.47 8.95 18.84 7.82 17.88 7.12 19.07 7.12 19.44 5.99"/><polygon class="cls-2" points="16.06 3.58 16.43 4.71 17.62 4.71 16.66 5.41 17.02 6.54 16.06 5.84 15.1 6.54 15.46 5.41 14.5 4.71 15.69 4.71 16.06 3.58"/></g></g></g></svg>