<svg xmlns="http://www.w3.org/2000/svg" viewBox="0 0 52 100"><defs><style>.cls-1{fill:#c31e31;}.cls-2{fill:#fff;}.cls-3{fill:#37376c;}</style></defs><g id="圖層_2" data-name="圖層 2"><g id="_0-ui_kits" data-name="0-ui_kits"><g id="flag_us_stick"><rect class="cls-1" x="2" width="50" height="2.77"/><rect class="cls-2" x="2" y="2.77" width="50" height="2.77"/><rect class="cls-1" x="2" y="5.54" width="50" height="2.77"/><rect class="cls-2" x="2" y="8.31" width="50" height="2.77"/><rect class="cls-1" x="2" y="11.08" width="50" height="2.77"/><rect class="cls-2" x="2" y="13.85" width="50" height="2.77"/><rect class="cls-1" x="2" y="16.62" width="50" height="2.77"/><rect class="cls-2" x="2" y="19.38" width="50" height="2.77"/><rect class="cls-1" x="2" y="22.15" width="50" height="2.77"/><rect class="cls-1" x="2" y="33.23" width="50" height="2.77"/><rect class="cls-2" x="2" y="24.92" width="50" height="2.77"/><rect class="cls-1" x="2" y="27.69" width="50" height="2.77"/><rect class="cls-2" x="2" y="30.46" width="50" height="2.77"/><rect class="cls-3" x="2" width="27.41" height="19.34"/><polygon class="cls-2" points="6.73 2.6 7 3.44 7.88 3.44 7.17 3.95 7.44 4.78 6.73 4.27 6.02 4.78 6.29 3.95 5.58 3.44 6.46 3.44 6.73 2.6"/><polygon class="cls-2" points="11.26 2.6 11.53 3.44 12.4 3.44 11.69 3.95 11.96 4.78 11.26 4.27 10.55 4.78 10.82 3.95 10.11 3.44 10.98 3.44 11.26 2.6"/><polygon class="cls-2" points="15.78 2.6 16.05 3.44 16.93 3.44 16.22 3.95 16.49 4.78 15.78 4.27 15.07 4.78 15.34 3.95 14.63 3.44 15.51 3.44 15.78 2.6"/><polygon class="cls-2" points="20.3 2.6 20.58 3.44 21.45 3.44 20.74 3.95 21.01 4.78 20.3 4.27 19.59 4.78 19.87 3.95 19.16 3.44 20.03 3.44 20.3 2.6"/><polygon class="cls-2" points="24.83 2.6 25.1 3.44 25.98 3.44 25.27 3.95 25.54 4.78 24.83 4.27 24.12 4.78 24.39 3.95 23.68 3.44 24.56 3.44 24.83 2.6"/><polygon class="cls-2" points="6.73 6.48 7 7.31 7.88 7.31 7.17 7.82 7.44 8.65 6.73 8.14 6.02 8.65 6.29 7.82 5.58 7.31 6.46 7.31 6.73 6.48"/><polygon class="cls-2" points="11.26 6.48 11.53 7.31 12.4 7.31 11.69 7.82 11.96 8.65 11.26 8.14 10.55 8.65 10.82 7.82 10.11 7.31 10.98 7.31 11.26 6.48"/><polygon class="cls-2" points="15.78 6.48 16.05 7.31 16.93 7.31 16.22 7.82 16.49 8.65 15.78 8.14 15.07 8.65 15.34 7.82 14.63 7.31 15.51 7.31 15.78 6.48"/><polygon class="cls-2" points="20.3 6.48 20.58 7.31 21.45 7.31 20.74 7.82 21.01 8.65 20.3 8.14 19.59 8.65 19.87 7.82 19.16 7.31 20.03 7.31 20.3 6.48"/><polygon class="cls-2" points="24.83 6.48 25.1 7.31 25.98 7.31 25.27 7.82 25.54 8.65 24.83 8.14 24.12 8.65 24.39 7.82 23.68 7.31 24.56 7.31 24.83 6.48"/><polygon class="cls-2" points="6.73 10.35 7 11.18 7.88 11.18 7.17 11.7 7.44 12.53 6.73 12.01 6.02 12.53 6.29 11.7 5.58 11.18 6.46 11.18 6.73 10.35"/><polygon class="cls-2" points="11.26 10.35 11.53 11.18 12.4 11.18 11.69 11.7 11.96 12.53 11.26 12.01 10.55 12.53 10.82 11.7 10.11 11.18 10.98 11.18 11.26 10.35"/><polygon class="cls-2" points="15.78 10.35 16.05 11.18 16.93 11.18 16.22 11.7 16.49 12.53 15.78 12.01 15.07 12.53 15.34 11.7 14.63 11.18 15.51 11.18 15.78 10.35"/><polygon class="cls-2" points="20.3 10.35 20.58 11.18 21.45 11.18 20.74 11.7 21.01 12.53 20.3 12.01 19.59 12.53 19.87 11.7 19.16 11.18 20.03 11.18 20.3 10.35"/><polygon class="cls-2" points="24.83 10.35 25.1 11.18 25.98 11.18 25.27 11.7 25.54 12.53 24.83 12.01 24.12 12.53 24.39 11.7 23.68 11.18 24.56 11.18 24.83 10.35"/><polygon class="cls-2" points="6.73 14.22 7 15.06 7.88 15.06 7.17 15.57 7.44 16.4 6.73 15.89 6.02 16.4 6.29 15.57 5.58 15.06 6.46 15.06 6.73 14.22"/><polygon class="cls-2" points="11.26 14.22 11.53 15.06 12.4 15.06 11.69 15.57 11.96 16.4 11.26 15.89 10.55 16.4 10.82 15.57 10.11 15.06 10.98 15.06 11.26 14.22"/><polygon class="cls-2" points="15.78 14.22 16.05 15.06 16.93 15.06 16.22 15.57 16.49 16.4 15.78 15.89 15.07 16.4 15.34 15.57 14.63 15.06 15.51 15.06 15.78 14.22"/><polygon class="cls-2" points="20.3 14.22 20.58 15.06 21.45 15.06 20.74 15.57 21.01 16.4 20.3 15.89 19.59 16.4 19.87 15.57 19.16 15.06 20.03 15.06 20.3 14.22"/><polygon class="cls-2" points="24.83 14.22 25.1 15.06 25.98 15.06 25.27 15.57 25.54 16.4 24.83 15.89 24.12 16.4 24.39 15.57 23.68 15.06 24.56 15.06 24.83 14.22"/><polygon class="cls-2" points="4.42 0.67 4.7 1.5 5.57 1.5 4.86 2.01 5.13 2.84 4.42 2.33 3.72 2.84 3.99 2.01 3.28 1.5 4.16 1.5 4.42 0.67"/><polygon class="cls-2" points="8.95 0.67 9.22 1.5 10.1 1.5 9.39 2.01 9.66 2.84 8.95 2.33 8.24 2.84 8.51 2.01 7.8 1.5 8.68 1.5 8.95 0.67"/><polygon class="cls-2" points="13.47 0.67 13.74 1.5 14.62 1.5 13.91 2.01 14.18 2.84 13.47 2.33 12.77 2.84 13.04 2.01 12.33 1.5 13.2 1.5 13.47 0.67"/><polygon class="cls-2" points="18 0.67 18.27 1.5 19.15 1.5 18.44 2.01 18.71 2.84 18 2.33 17.29 2.84 17.56 2.01 16.85 1.5 17.73 1.5 18 0.67"/><polygon class="cls-2" points="22.52 0.67 22.79 1.5 23.67 1.5 22.96 2.01 23.23 2.84 22.52 2.33 21.81 2.84 22.09 2.01 21.38 1.5 22.25 1.5 22.52 0.67"/><polygon class="cls-2" points="27.05 0.67 27.32 1.5 28.2 1.5 27.49 2.01 27.76 2.84 27.05 2.33 26.34 2.84 26.61 2.01 25.9 1.5 26.78 1.5 27.05 0.67"/><polygon class="cls-2" points="4.42 4.54 4.7 5.37 5.57 5.37 4.86 5.88 5.13 6.72 4.42 6.2 3.72 6.72 3.99 5.88 3.28 5.37 4.16 5.37 4.42 4.54"/><polygon class="cls-2" points="8.95 4.54 9.22 5.37 10.1 5.37 9.39 5.88 9.66 6.72 8.95 6.2 8.24 6.72 8.51 5.88 7.8 5.37 8.68 5.37 8.95 4.54"/><polygon class="cls-2" points="13.47 4.54 13.74 5.37 14.62 5.37 13.91 5.88 14.18 6.72 13.47 6.2 12.77 6.72 13.04 5.88 12.33 5.37 13.2 5.37 13.47 4.54"/><polygon class="cls-2" points="18 4.54 18.27 5.37 19.15 5.37 18.44 5.88 18.71 6.72 18 6.2 17.29 6.72 17.56 5.88 16.85 5.37 17.73 5.37 18 4.54"/><polygon class="cls-2" points="22.52 4.54 22.79 5.37 23.67 5.37 22.96 5.88 23.23 6.72 22.52 6.2 21.81 6.72 22.09 5.88 21.38 5.37 22.25 5.37 22.52 4.54"/><polygon class="cls-2" points="27.05 4.54 27.32 5.37 28.2 5.37 27.49 5.88 27.76 6.72 27.05 6.2 26.34 6.72 26.61 5.88 25.9 5.37 26.78 5.37 27.05 4.54"/><polygon class="cls-2" points="4.42 8.41 4.7 9.25 5.57 9.25 4.86 9.76 5.13 10.59 4.42 10.08 3.72 10.59 3.99 9.76 3.28 9.25 4.16 9.25 4.42 8.41"/><polygon class="cls-2" points="8.95 8.41 9.22 9.25 10.1 9.25 9.39 9.76 9.66 10.59 8.95 10.08 8.24 10.59 8.51 9.76 7.8 9.25 8.68 9.25 8.95 8.41"/><polygon class="cls-2" points="13.47 8.41 13.74 9.25 14.62 9.25 13.91 9.76 14.18 10.59 13.47 10.08 12.77 10.59 13.04 9.76 12.33 9.25 13.2 9.25 13.47 8.41"/><polygon class="cls-2" points="18 8.41 18.27 9.25 19.15 9.25 18.44 9.76 18.71 10.59 18 10.08 17.29 10.59 17.56 9.76 16.85 9.25 17.73 9.25 18 8.41"/><polygon class="cls-2" points="22.52 8.41 22.79 9.25 23.67 9.25 22.96 9.76 23.23 10.59 22.52 10.08 21.81 10.59 22.09 9.76 21.38 9.25 22.25 9.25 22.52 8.41"/><polygon class="cls-2" points="27.05 8.41 27.32 9.25 28.2 9.25 27.49 9.76 27.76 10.59 27.05 10.08 26.34 10.59 26.61 9.76 25.9 9.25 26.78 9.25 27.05 8.41"/><polygon class="cls-2" points="4.42 12.29 4.7 13.12 5.57 13.12 4.86 13.63 5.13 14.46 4.42 13.95 3.72 14.46 3.99 13.63 3.28 13.12 4.16 13.12 4.42 12.29"/><polygon class="cls-2" points="8.95 12.29 9.22 13.12 10.1 13.12 9.39 13.63 9.66 14.46 8.95 13.95 8.24 14.46 8.51 13.63 7.8 13.12 8.68 13.12 8.95 12.29"/><polygon class="cls-2" points="13.47 12.29 13.74 13.12 14.62 13.12 13.91 13.63 14.18 14.46 13.47 13.95 12.77 14.46 13.04 13.63 12.33 13.12 13.2 13.12 13.47 12.29"/><polygon class="cls-2" points="18 12.29 18.27 13.12 19.15 13.12 18.44 13.63 18.71 14.46 18 13.95 17.29 14.46 17.56 13.63 16.85 13.12 17.73 13.12 18 12.29"/><polygon class="cls-2" points="22.52 12.29 22.79 13.12 23.67 13.12 22.96 13.63 23.23 14.46 22.52 13.95 21.81 14.46 22.09 13.63 21.38 13.12 22.25 13.12 22.52 12.29"/><polygon class="cls-2" points="27.05 12.29 27.32 13.12 28.2 13.12 27.49 13.63 27.76 14.46 27.05 13.95 26.34 14.46 26.61 13.63 25.9 13.12 26.78 13.12 27.05 12.29"/><polygon class="cls-2" points="4.42 16.16 4.7 16.99 5.57 16.99 4.86 17.51 5.13 18.34 4.42 17.82 3.72 18.34 3.99 17.51 3.28 16.99 4.16 16.99 4.42 16.16"/><polygon class="cls-2" points="8.95 16.16 9.22 16.99 10.1 16.99 9.39 17.51 9.66 18.34 8.95 17.82 8.24 18.34 8.51 17.51 7.8 16.99 8.68 16.99 8.95 16.16"/><polygon class="cls-2" points="13.47 16.16 13.74 16.99 14.62 16.99 13.91 17.51 14.18 18.34 13.47 17.82 12.77 18.34 13.04 17.51 12.33 16.99 13.2 16.99 13.47 16.16"/><polygon class="cls-2" points="18 16.16 18.27 16.99 19.15 16.99 18.44 17.51 18.71 18.34 18 17.82 17.29 18.34 17.56 17.51 16.85 16.99 17.73 16.99 18 16.16"/><polygon class="cls-2" points="22.52 16.16 22.79 16.99 23.67 16.99 22.96 17.51 23.23 18.34 22.52 17.82 21.81 18.34 22.09 17.51 21.38 16.99 22.25 16.99 22.52 16.16"/><polygon class="cls-2" points="27.05 16.16 27.32 16.99 28.2 16.99 27.49 17.51 27.76 18.34 27.05 17.82 26.34 18.34 26.61 17.51 25.9 16.99 26.78 16.99 27.05 16.16"/><rect class="cls-2" width="2" height="100"/></g></g></g></svg>