<svg xmlns="http://www.w3.org/2000/svg" viewBox="0 0 50 50"><defs><style>.cls-1{fill:#193166;}.cls-2{fill:#e41c2d;}.cls-3{fill:#fff;}</style></defs><g id="圖層_2" data-name="圖層 2"><g id="_0-ui_kits" data-name="0-ui_kits"><g id="flag_uk_circle"><path class="cls-1" d="M6.69,42A25,25,0,0,0,18.19,49V34.38Z"/><path class="cls-1" d="M43,7.63a25,25,0,0,0-13-7.14V16.24Z"/><path class="cls-1" d="M.67,30.67a24.07,24.07,0,0,0,1.29,4l6.12-4Z"/><path class="cls-1" d="M1.54,16.43c-.3.82-.55,1.65-.77,2.5H5.32Z"/><path class="cls-1" d="M18.19,1a25,25,0,0,0-12.31,8L18.19,17Z"/><path class="cls-1" d="M29.93,49.51a24.89,24.89,0,0,0,12.16-6.3l-12.16-8Z"/><path class="cls-1" d="M47.3,36.26a24.86,24.86,0,0,0,2-5.59H38.82Z"/><path class="cls-1" d="M49.23,18.93a25.33,25.33,0,0,0-1.41-4.12l-6.24,4.12Z"/><path class="cls-2" d="M18.19,30.67h-3L3.79,38.19a24.93,24.93,0,0,0,1.45,2.08l13-8.55Z"/><path class="cls-2" d="M37.56,18.93l9.26-6.12a25,25,0,0,0-1.36-2.14L33,18.93Z"/><path class="cls-2" d="M14,18.93,3.61,12.1a23,23,0,0,0-1.2,2.25l6.94,4.58Z"/><path class="cls-2" d="M29.93,30.67v1.85l13.73,9.07a23.46,23.46,0,0,0,1.6-2L31.72,30.67Z"/><path class="cls-3" d="M41.58,18.93l6.24-4.12c-.31-.68-.64-1.35-1-2l-9.26,6.12H33l12.51-8.26a25.09,25.09,0,0,0-2.5-3l-13,8.61V.49A25,25,0,0,0,27.31.12V21.55H49.73a25.24,25.24,0,0,0-.5-2.62Z"/><polygon class="cls-3" points="19.14 28.05 19.13 28.05 19.14 28.05 19.14 28.05"/><polygon class="cls-3" points="27.78 28.05 27.76 28.05 27.77 28.05 27.78 28.05"/><path class="cls-3" d="M20.81,30V28.05H.21a22.77,22.77,0,0,0,.46,2.62H8.08L2,34.71a24.52,24.52,0,0,0,1.83,3.48l11.39-7.52h3v1L5.24,40.27c.46.59.94,1.16,1.45,1.71l11.5-7.6V49a25.46,25.46,0,0,0,2.62.58V30Z"/><path class="cls-3" d="M13.31,21.55h7.5V.38A25.46,25.46,0,0,0,18.19,1V17L5.88,8.91A25.59,25.59,0,0,0,3.61,12.1L14,18.93H9.35L2.41,14.35c-.32.68-.61,1.37-.87,2.08l3.78,2.5H.77a25.24,25.24,0,0,0-.5,2.62h13Z"/><path class="cls-3" d="M27.78,28.05h-.47V49.88a25,25,0,0,0,2.62-.37V35.18l12.16,8c.55-.51,1.07-1.06,1.57-1.62L29.93,32.52V30.67h1.79l13.54,8.94a26.49,26.49,0,0,0,2-3.35l-8.48-5.59H49.33a22.77,22.77,0,0,0,.46-2.62h-22Z"/><path class="cls-2" d="M33.59,21.55H27.31V.12C26.55.05,25.78,0,25,0a25.21,25.21,0,0,0-4.19.38V21.55H.27A24.57,24.57,0,0,0,0,25a23.67,23.67,0,0,0,.21,3.05h20.6V49.62A25.21,25.21,0,0,0,25,50c.78,0,1.55,0,2.31-.12V28.05H49.79A23.67,23.67,0,0,0,50,25a24.57,24.57,0,0,0-.27-3.45H33.59Z"/></g></g></g></svg>