<svg xmlns="http://www.w3.org/2000/svg" viewBox="0 0 50.75 50.75"><defs><style>.cls-1,.cls-3{fill:#fff;}.cls-1{stroke:gray;stroke-miterlimit:10;stroke-width:0.75px;}.cls-2{fill:#008a42;}.cls-4{fill:#e02c35;}</style></defs><g id="圖層_2" data-name="圖層 2"><g id="_0-ui_kits" data-name="0-ui_kits"><path class="cls-1" d="M25.38.38a25,25,0,1,0,25,25A25,25,0,0,0,25.38.38Z"/><g id="flag_italy_circle"><path class="cls-2" d="M.38,25.38a25,25,0,0,0,16.5,23.48v-47A25,25,0,0,0,.38,25.38Z"/><path class="cls-3" d="M25.38.37a24.92,24.92,0,0,0-8.5,1.52v47a24.51,24.51,0,0,0,16.83.06V1.83A25,25,0,0,0,25.38.37Z"/><path class="cls-4" d="M33.71,1.83V48.92a25,25,0,0,0,0-47.09Z"/></g></g></g></svg>