<svg xmlns="http://www.w3.org/2000/svg" viewBox="0 0 50 50"><defs><style>.cls-1{fill:#e73740;}.cls-2{fill:#fff;}</style></defs><g id="圖層_2" data-name="圖層 2"><g id="_0-ui_kits" data-name="0-ui_kits"><g id="flag_singapore_circle"><path class="cls-1" d="M25,0A25,25,0,0,0,0,25v.28H50V25A25,25,0,0,0,25,0ZM17.45,15.42l-1-.76-1.05.76.4-1.23-1-.76H16l.4-1.23.39,1.23h1.3l-1.05.76Zm-4.33,6a6.66,6.66,0,0,1,.22-12.84,7.17,7.17,0,0,1,3.9.23s-6,.42-6,6.18,6,6.43,6,6.43A7.31,7.31,0,0,1,13.12,21.42Zm5.8-1.76-1-.76-1.05.76.4-1.23-1-.76h1.29l.4-1.23.4,1.23h1.29l-1.05.76Zm.1-6.87.4-1.23-1-.75h1.29l.4-1.23.4,1.23h1.29l-1.05.75.4,1.23-1-.76Zm4.28,6.87-1-.76-1.05.76.4-1.23-1-.76h1.29l.4-1.23.4,1.23H24l-1.05.76Zm1.48-4.24-1.05-.76-1,.76.39-1.23-1-.76h1.29l.4-1.23.4,1.23h1.29l-1,.76Z"/><path class="cls-2" d="M25,50A25,25,0,0,0,50,25.28H0A25,25,0,0,0,25,50Z"/><path class="cls-2" d="M11.24,15c0-5.76,6-6.18,6-6.18a7.17,7.17,0,0,0-3.9-.23,6.66,6.66,0,0,0-.22,12.84,7.31,7.31,0,0,0,4.12,0S11.26,20.82,11.24,15Z"/><polygon class="cls-2" points="18.28 17.67 17.88 16.44 17.48 17.67 16.19 17.67 17.23 18.43 16.83 19.66 17.88 18.9 18.92 19.66 18.52 18.43 19.57 17.67 18.28 17.67"/><polygon class="cls-2" points="22.66 17.67 22.26 16.44 21.86 17.67 20.57 17.67 21.61 18.43 21.21 19.66 22.26 18.9 23.3 19.66 22.9 18.43 23.95 17.67 22.66 17.67"/><polygon class="cls-2" points="16.8 13.43 16.41 12.2 16.01 13.43 14.71 13.43 15.76 14.19 15.36 15.42 16.41 14.66 17.45 15.42 17.05 14.19 18.1 13.43 16.8 13.43"/><polygon class="cls-2" points="24.13 13.43 23.73 12.2 23.33 13.43 22.04 13.43 23.08 14.19 22.68 15.42 23.73 14.66 24.78 15.42 24.38 14.19 25.42 13.43 24.13 13.43"/><polygon class="cls-2" points="20.71 11.56 21.76 10.8 20.47 10.8 20.07 9.58 19.67 10.8 18.38 10.8 19.42 11.56 19.02 12.79 20.07 12.03 21.11 12.79 20.71 11.56"/></g></g></g></svg>