<svg xmlns="http://www.w3.org/2000/svg" viewBox="0 0 50 50"><defs><style>.cls-1{fill:#193166;}.cls-2{fill:#e41c2d;}.cls-3{fill:#fff;}.cls-4{fill:#de1a2a;}.cls-5{fill:#fcfdfd;}</style></defs><g id="圖層_2" data-name="圖層 2"><g id="_0-ui_kits" data-name="0-ui_kits"><g id="flag_new_zealand_circle"><path class="cls-1" d="M25.19,0V25H0A25,25,0,1,0,25.19,0ZM36.91,13.94l.58-1.73L38,14l1.83,0L38.37,15l.55,1.74-1.47-1.09L36,16.73,36.55,15l-1.46-1.09ZM31.48,24.28l-1.73,1.24.68-2-1.71-1.27,2.13,0,.68-2,.64,2,2.13,0-1.74,1.23.64,2Zm7.14,11.35L36.69,34.2l-2,1.39.77-2.28-1.93-1.43,2.4,0,.77-2.28.72,2.29,2.4,0-2,1.39Zm5.39-18,.51,1.63,1.71,0-1.4,1,.51,1.62-1.36-1-1.4,1,.55-1.61-1.37-1,1.71,0Z"/><path class="cls-1" d="M4.43,16.88.66,19.37A24.86,24.86,0,0,0,0,25v0H4.43Z"/><path class="cls-1" d="M21.76.23A24.8,24.8,0,0,0,10.3,4.81v3Z"/><polygon class="cls-1" points="10.3 25.04 22.04 25.04 10.3 17.28 10.3 25.04"/><polygon class="cls-1" points="25.19 21.92 25.19 15.02 14.75 15.02 25.19 21.92"/><polygon class="cls-1" points="25.19 9.15 25.19 3.17 16.13 9.15 25.19 9.15"/><path class="cls-2" d="M4.43,15H2.92l-1.14.76c-.26.65-.5,1.31-.71,2l3.36-2.21Z"/><polygon class="cls-2" points="14.11 9.15 25.19 1.84 25.19 0.31 11.81 9.15 14.11 9.15"/><polygon class="cls-2" points="10.3 15.02 10.3 15.95 24.06 25.04 25.19 25.04 25.19 24.26 11.2 15.02 10.3 15.02"/><path class="cls-3" d="M9,10.46h16.2V9.15H16.13l9.06-6V1.84L14.11,9.15h-2.3L25.19.31V0H25a24.83,24.83,0,0,0-3.24.23L10.3,7.8v-3c-.45.33-.89.65-1.31,1v4.65Z"/><polygon class="cls-3" points="4.9 13.71 4.9 13.71 4.9 13.71 4.9 13.71"/><polygon class="cls-3" points="9.22 13.71 9.21 13.71 9.22 13.71 9.22 13.71"/><path class="cls-3" d="M4.43,25H5.74V13.71h-3q-.51,1-.93,2.07L2.92,15H4.43v.53L1.07,17.76c-.16.53-.28,1.07-.41,1.61l3.77-2.49Z"/><path class="cls-3" d="M5.74,9.07h0c-.37.44-.71.92-1,1.39h1Z"/><polygon class="cls-3" points="9.22 13.71 9.22 13.71 9.21 13.71 8.99 13.71 8.99 13.87 8.99 15.09 8.99 16.42 8.99 25.04 10.3 25.04 10.3 17.28 22.04 25.04 24.06 25.04 10.3 15.95 10.3 15.02 11.2 15.02 25.19 24.26 25.19 21.92 14.75 15.02 25.19 15.02 25.19 13.71 12.77 13.71 9.22 13.71"/><path class="cls-2" d="M4.9,13.71h.84V25H9V13.71h16.2V10.46H9V5.81A24.42,24.42,0,0,0,5.74,9.07h0v1.39h-1a25.62,25.62,0,0,0-2,3.25Z"/><polygon class="cls-4" points="37.27 32.17 36.73 30.45 36.15 32.16 34.35 32.15 35.8 33.22 35.22 34.93 36.69 33.89 38.14 34.96 37.6 33.24 39.07 32.2 37.27 32.17"/><path class="cls-3" d="M37.46,31.92l-.72-2.29L36,31.91l-2.4,0,1.93,1.43-.77,2.28,2-1.39,1.93,1.43-.72-2.29,2-1.39Zm.68,3-1.45-1.07-1.47,1,.58-1.71-1.45-1.08,1.8,0,.58-1.71.54,1.73h1.8L37.6,33.24Z"/><polygon class="cls-4" points="33.6 22.5 32 22.49 31.52 20.96 31.01 22.48 29.41 22.46 30.69 23.41 30.18 24.93 31.49 24.01 32.77 24.96 32.3 23.43 33.6 22.5"/><path class="cls-3" d="M34.3,22.29l-2.13,0-.64-2-.68,2-2.13,0,1.71,1.27-.68,2,1.73-1.24,1.72,1.28-.64-2ZM32.77,25,31.49,24l-1.31.92.51-1.51-1.28-1,1.6,0L31.52,21,32,22.49h1.6l-1.3.93Z"/><polygon class="cls-4" points="36.34 16.23 37.45 15.44 38.55 16.26 38.15 14.95 39.26 14.16 37.89 14.14 37.48 12.84 37.05 14.13 35.68 14.12 36.77 14.94 36.34 16.23"/><path class="cls-3" d="M36,16.73l1.48-1.05,1.47,1.09L38.37,15,39.86,14,38,14l-.54-1.74-.58,1.73-1.82,0L36.55,15Zm-.29-2.61H37l.44-1.29.41,1.3,1.37,0L38.14,15l.41,1.31-1.09-.82-1.12.79.44-1.29Z"/><polygon class="cls-4" points="43.34 20.19 42.93 21.41 43.98 20.66 45.01 21.43 44.62 20.2 45.67 19.46 44.39 19.45 44 18.23 43.6 19.44 42.31 19.43 43.34 20.19"/><path class="cls-5" d="M43.13,20.26l-.55,1.61,1.4-1,1.36,1-.51-1.62,1.4-1-1.71,0L44,17.64l-.54,1.62-1.71,0Zm.47-.82.4-1.21.39,1.22h1.28l-1.05.74L45,21.43l-1-.77-1,.75.41-1.22-1-.76Z"/></g></g></g></svg>