<svg xmlns="http://www.w3.org/2000/svg" viewBox="0 0 37.97 33.13"><defs><style>.cls-1{fill:#b69564;}.cls-2{fill:#b66496;}</style></defs><g id="圖層_2" data-name="圖層 2"><g id="_0-ori" data-name="0-ori"><g id="Group_7024" data-name="Group 7024"><g id="Group_7022" data-name="Group 7022"><path id="Path_2318" data-name="Path 2318" class="cls-1" d="M21.67.07A17.12,17.12,0,0,0,19,0c-.23,0-.55,0-.71,0-.32,0-.63.05-1,.09s-.74.1-.87.11a.77.77,0,0,0-.3.06,1,1,0,0,1-.33.07,23.9,23.9,0,0,0-2.37.54,1.82,1.82,0,0,1-.4.11,1.16,1.16,0,0,0-.37.13l-.34.14a2.88,2.88,0,0,0-.45.19,4.09,4.09,0,0,1-.49.18s-.07,0-.08.06h0a.07.07,0,0,1-.07.07,2.74,2.74,0,0,0-.79.27l-.56.29a9.69,9.69,0,0,1-1.09.45,5.26,5.26,0,0,0-.9.41.41.41,0,0,1-.25.13A18.47,18.47,0,0,0,5.51,5.05a.38.38,0,0,0,.08.17c.07.1.06.1,0,0s-.16-.06-.46.24a1.57,1.57,0,0,0-.35.42s0,0-.06,0S4,6.55,4,6.65s0,0,0,0-.24.15-.85,1.1a3.21,3.21,0,0,0-.39.7s0,.08-.09.12a.43.43,0,0,0-.15.28c0,.1-.06.2-.09.19C1.21,11.92-.21,14.71,0,18a.26.26,0,0,0,0,.15.6.6,0,0,1,0,.19.9.9,0,0,0,0,.28,1.16,1.16,0,0,1,0,.37.9.9,0,0,0,.06.46c.05.1.06.18,0,.18s0,0,0,.07.07.08,0,.08-.07,0,0,.2a.88.88,0,0,0,.12.26.14.14,0,0,1,0,.12.17.17,0,0,0,0,.1,1.49,1.49,0,0,1,0,.21,2.09,2.09,0,0,0,.26.8s0,.05,0,.11,0,.11,0,.12.07.05,0,.12,0,.09,0,.07a.3.3,0,0,0,.1-.19c0-.2.06-.15.09.12s0,.2,0,.16-.06,0,0,.07a.16.16,0,0,0,.11.13c.06,0,.05,0,0,.08s0,.13.09.28.13.17.06.13-.11,0-.09.1a.22.22,0,0,0,.08.17s.07.07.09.16.07.14.12.11.06,0,0,0,0,.18.07.31a1.39,1.39,0,0,1,.12.28,1.59,1.59,0,0,0,.3.49.79.79,0,0,1,.14.23,1.18,1.18,0,0,0,.11.19c.07.08.2.29.31.46a6,6,0,0,0,.4.58c.12.15.18.27.16.27.39.53.81,1,1.25,1.53.17.16.17.2.08.49a8.53,8.53,0,0,1-.45.91,4.42,4.42,0,0,0-.34.69c0,.05,0,.09-.07.09s-.08.07-.12.17-.1.18-.14.17-.07.05-.08.11-.08.2-.84,1.14c-.2.24-.43.54-.52.65a3.33,3.33,0,0,1-.55.51,2.64,2.64,0,0,0-.4.35c0,.14.47.28,1,.29a8,8,0,0,0,2.39-.26,4.38,4.38,0,0,1,.61-.1,22.27,22.27,0,0,0,2.89-.85c.33-.13.66-.28,1-.44.62-.35.69-.36,1.61-.23a5.73,5.73,0,0,1,.92.17,1.11,1.11,0,0,0,.36.13l.46.14a2.1,2.1,0,0,0,1,.11s0,0,.09,0a18.34,18.34,0,0,0,3.38.47,24.27,24.27,0,0,0,3.41.17h.6c.2,0,.4,0,.6,0l.41,0c.13,0,.55,0,1-.11,1-.15,2-.28,2.39-.3.67-.07,1.34-.17,2-.3.21-.08,1.48-.51,1.54-.51l.34-.14c.15-.07.37-.17.49-.21a1.9,1.9,0,0,0,.37-.2.44.44,0,0,1,.24-.11.08.08,0,0,0,.08-.07h0a.06.06,0,0,1,.07-.06,8.86,8.86,0,0,0,1.55-.75c.7-.43,1-.65,1-.72s0-.06,0,0,.32-.18.64-.45l.83-.74a1.1,1.1,0,0,0,.28-.29.71.71,0,0,1,.19-.23,2.59,2.59,0,0,0,.59-.76.12.12,0,0,1,.07-.1A10.61,10.61,0,0,0,36.5,23.9a.37.37,0,0,1,.1-.22,3.9,3.9,0,0,0,.38-1,3,3,0,0,1,.11-.32,1.56,1.56,0,0,0,.08-.42,1.13,1.13,0,0,1,.1-.44,4.75,4.75,0,0,0,.38-1.57,5.73,5.73,0,0,1,.17-.92s0-.08,0-.15-.06-.11,0-.06a5.52,5.52,0,0,0,.15-2.1c0-.4,0-.92,0-1.17s0-.55,0-.67a9.32,9.32,0,0,0-.15-1.06c0-.08-.11-.41-.18-.72a5.76,5.76,0,0,0-.4-1.12,3.52,3.52,0,0,1-.27-.63.77.77,0,0,0-.14-.32,8.8,8.8,0,0,1-.42-1A2.08,2.08,0,0,0,36,9.29s-.07,0-.06-.07a2.14,2.14,0,0,0-.35-.58,3.84,3.84,0,0,1-.35-.54,3.15,3.15,0,0,0-.35-.52,5.74,5.74,0,0,1-.36-.5,18.59,18.59,0,0,0-1.9-2.16,16.22,16.22,0,0,0-1.46-1.29c-.32-.26-.65-.53-.72-.6A8.57,8.57,0,0,0,29,2.13a.54.54,0,0,1-.2-.1,5.81,5.81,0,0,0-2.05-.82l-1-.22C25,.78,22.92.27,22.46.19l-.78-.1Zm-.1.44a.18.18,0,0,1,.12.05,2.63,2.63,0,0,0,.62.13A8.58,8.58,0,0,1,23.9,1a2.33,2.33,0,0,0,.52.13,5,5,0,0,1,.69.19,3.53,3.53,0,0,0,.78.18,1.48,1.48,0,0,1,.55.13s.09.06.2.07a3,3,0,0,1,.45.12c.6.23.67.24.62.14s0-.08.05,0a3.35,3.35,0,0,0,.45.27,3.43,3.43,0,0,1,.49.28,1.46,1.46,0,0,0,.38.18,3.2,3.2,0,0,1,.57.32c.17.13.37.26.43.3q.34.27.66.57a4,4,0,0,0,.63.53.07.07,0,0,1,.07.06.66.66,0,0,0,.2.22,4.4,4.4,0,0,1,.56.58,10.78,10.78,0,0,0,1,1,4.78,4.78,0,0,1,.47.54c.08.13.24.35.35.49a9,9,0,0,1,.52.77c.18.28.45.68.6.87a3.3,3.3,0,0,1,.42.73,1.54,1.54,0,0,0,.28.5c.08.06.14.14.13.18a4.11,4.11,0,0,0,.41,1,3.55,3.55,0,0,1,.34,1.06c0,.16.08.29.12.29a.09.09,0,0,1,.06.11.53.53,0,0,0,.12.29.64.64,0,0,1,.11.36.8.8,0,0,0,0,.31,2.54,2.54,0,0,1,.07.47,1,1,0,0,0,.06.38.81.81,0,0,1,0,.38,1.79,1.79,0,0,0,0,.4,4.87,4.87,0,0,1,0,1.08c0,.13,0,.24,0,.24s0,.12,0,.25a20.85,20.85,0,0,1-.22,2.09l-.27,1.31c-.09.49-.23,1.08-.3,1.32s-.17.63-.24.87a5,5,0,0,1-.64,1.55c-.09.14-.18.28-.26.43a2.82,2.82,0,0,1-.23.42,2.64,2.64,0,0,0-.23.44,2,2,0,0,1-.25.33,5.35,5.35,0,0,0-.44.62c-.12.18-.24.33-.27.32s-.11.08-.18.19a3,3,0,0,1-.38.42,21.92,21.92,0,0,1-2.29,1.78c-.6.34-1.94,1.05-2,1.05a1.62,1.62,0,0,0-.35.17,4.49,4.49,0,0,1-.76.31,4.84,4.84,0,0,0-.73.25,20.21,20.21,0,0,1-3.36.68c-.48.05-1.2.14-1.59.2A29.56,29.56,0,0,1,14,31.46,13.75,13.75,0,0,1,11.83,31a10.89,10.89,0,0,0-1.5-.35,9.66,9.66,0,0,1-1.07-.22c-.19-.07-.23-.06-.38.11a7.7,7.7,0,0,1-3,1.46,12.44,12.44,0,0,1-1.46.36l-1.07.22a4.2,4.2,0,0,1-1.54.07A3.85,3.85,0,0,1,2.37,32l.31-.3c.16-.15.21-.29.08-.23s-.08,0,.07-.12.12-.07.06,0,0,0,.11-.07.54-.68.5-.77,0-.06.08-.06.1,0,.09-.06a.05.05,0,0,1,0-.08h0s.09-.08.11-.16A1.55,1.55,0,0,1,4,29.82a10.4,10.4,0,0,0,.7-1.37,2,2,0,0,1,.36-.58c.2-.09.14-.3-.16-.54a3.3,3.3,0,0,0-.43-.3.93.93,0,0,1-.27-.22,8.49,8.49,0,0,1-1-1.2,8.24,8.24,0,0,0-.5-.8,8.13,8.13,0,0,1-1-1.6l-.4-1a2.64,2.64,0,0,1-.2-.6s0-.1-.08-.22A.79.79,0,0,1,1,21.16H1v-.05A.06.06,0,0,0,1,21H1c-.05,0-.08,0-.05,0a.83.83,0,0,0-.06-.44,5.18,5.18,0,0,1-.14-.66A2.23,2.23,0,0,0,.6,19.1a1.69,1.69,0,0,1-.06-.55,1.81,1.81,0,0,0,0-.46c-.42-3.38,1.24-6.32,2.65-9.32a2,2,0,0,1,.28-.49s.09-.09.13-.21.1-.21.14-.21.06,0,0-.06,0-.1.11-.14.11-.06,0-.08-.06,0,.07-.14.17-.17.15-.21,0-.07,0-.07.07,0,0,0,0-.12.16-.2a.72.72,0,0,0,.2-.19,1.88,1.88,0,0,1,.25-.24c.14-.12.24-.25.22-.29s0-.06.06,0,.1,0,.1,0,.35-.37.4-.32,0,0,0-.15,0-.19.11-.18a2,2,0,0,0,.79-.63.18.18,0,0,1,.16-.09c.13,0,.38-.25.34-.35s0-.08.09-.1a.18.18,0,0,0,.13-.15c0-.1,0-.1.07,0s.08.1.18,0A.31.31,0,0,0,7.64,4a.11.11,0,0,1,.09-.1c.1,0,.48-.21.43-.26s.06,0,.16,0a2.52,2.52,0,0,0,1-.42A1.29,1.29,0,0,1,9.71,3c.11,0,.21-.07.22-.13s.05-.09.12-.06.11,0,.11,0a0,0,0,0,1,.06-.05,3.14,3.14,0,0,0,1-.42.75.75,0,0,1,.25-.13s.08,0,.09,0A1.18,1.18,0,0,1,12,2a1.3,1.3,0,0,0,.43-.2s.08-.05.16-.05.15,0,.15-.06.07-.06.14,0a.46.46,0,0,0,.21,0,4.39,4.39,0,0,1,1.1-.3,1.37,1.37,0,0,0,.4-.09l.47-.12a1,1,0,0,0,.28-.1A.6.6,0,0,1,15.62.9l.36,0A14.76,14.76,0,0,1,17.49.7c.44,0,1-.1,1.21-.14A4.87,4.87,0,0,1,19.46.5h.74l.83,0a1.68,1.68,0,0,0,.5,0h0Zm-18.49,8s0,0,.07.08,0,.07,0,.07A.08.08,0,0,1,3,8.53S3.06,8.45,3.08,8.46ZM.35,19a.16.16,0,0,1,.06.1c0,.11,0,.12,0,0S.31,19,.33,19h0Z"/><path id="Path_2319" data-name="Path 2319" class="cls-1" d="M21.35,1.36a14.8,14.8,0,0,0-2.4,0,4.89,4.89,0,0,1-.64,0,6,6,0,0,0-.85.09l-.78.1a.81.81,0,0,0-.27.05,1.09,1.09,0,0,1-.3.07,16.76,16.76,0,0,0-2.12.5,2.22,2.22,0,0,1-.37.09,1,1,0,0,0-.33.12,1.94,1.94,0,0,1-.3.13,3,3,0,0,0-.41.17,2.11,2.11,0,0,1-.44.17.07.07,0,0,0-.07.06A.06.06,0,0,1,12,3h0a2.5,2.5,0,0,0-.71.25l-.5.26c-.18.09-.62.28-1,.42a3.91,3.91,0,0,0-.8.38.38.38,0,0,1-.23.11A17,17,0,0,0,6.86,5.94a.31.31,0,0,0,.06.16c.07.09.06.09,0,0s-.15-.05-.41.22a2,2,0,0,0-.32.39s0,0,0,0-.62.58-.58.66,0,0,0,0-.22.14-.77,1a2.82,2.82,0,0,0-.34.64A17.4,17.4,0,0,0,2,18.65a.86.86,0,0,0,0,.42c0,.09.05.16,0,.16s0,0,0,.07.06.07,0,.07-.07,0,0,.18a1.09,1.09,0,0,0,.1.25.1.1,0,0,1,0,.1.16.16,0,0,0,0,.1s0,.1,0,.18a1.69,1.69,0,0,0,.23.73s0,.05,0,.1a.07.07,0,0,0,0,.11c0,.2,0,.21.14,0,0,1,1,2.54,2.41,4.32,2,2.53,3.21,3.17,8.36,4.91,0,0,0,0,.08,0a14.66,14.66,0,0,0,3,.43,22.25,22.25,0,0,0,3.06.15h.53a4.87,4.87,0,0,0,.54,0l.37,0c.11,0,.49-.05.85-.1.9-.13,1.82-.25,2.14-.28a18,18,0,0,0,1.79-.28c.19-.08,1.33-.47,1.39-.47l.3-.13a3.9,3.9,0,0,1,.44-.19,1.57,1.57,0,0,0,.33-.19.51.51,0,0,1,.21-.1.06.06,0,0,0,.08-.06.06.06,0,0,1,.06-.06h0A8,8,0,0,0,30,28.35c.63-.4.9-.6.87-.66s0-.05,0,0,.29-.15.57-.41l.75-.67a1.07,1.07,0,0,0,.25-.27.68.68,0,0,1,.17-.21,2.16,2.16,0,0,0,.53-.7.11.11,0,0,1,.06-.09,9.62,9.62,0,0,0,1.33-2.22.4.4,0,0,1,.09-.2A2.94,2.94,0,0,0,35,22l.1-.3a1,1,0,0,0,.07-.38,1.07,1.07,0,0,1,.1-.4,4.51,4.51,0,0,0,.34-1.45,5.79,5.79,0,0,1,.16-.83.18.18,0,0,0,0-.14c0-.07,0-.1,0-.06a5.17,5.17,0,0,0,.14-1.92c0-.36,0-.84,0-1.06a4.28,4.28,0,0,0,0-.62,6.32,6.32,0,0,0-.13-1l-.16-.66a5.35,5.35,0,0,0-.35-1A3.23,3.23,0,0,1,35,11.6a1.08,1.08,0,0,0-.13-.29,9.35,9.35,0,0,1-.38-.92,2.07,2.07,0,0,0-.3-.66s-.06,0,0-.06a2.54,2.54,0,0,0-.31-.53,2.58,2.58,0,0,1-.32-.49,2.13,2.13,0,0,0-.31-.47,3.46,3.46,0,0,1-.32-.46,16.71,16.71,0,0,0-1.7-2,13.18,13.18,0,0,0-1.3-1.18c-.29-.24-.58-.48-.65-.55a7.06,7.06,0,0,0-1.27-.82.51.51,0,0,1-.18-.09,5.14,5.14,0,0,0-1.83-.75L25,2.18c-.67-.2-2.56-.65-3-.73l-.7-.09Zm-.1.4a.16.16,0,0,1,.11.05,2.17,2.17,0,0,0,.55.12,6.73,6.73,0,0,1,1.42.27,2,2,0,0,0,.47.12,4.37,4.37,0,0,1,.62.17,2.84,2.84,0,0,0,.7.16,1.36,1.36,0,0,1,.49.12s.08.06.18.07A2.08,2.08,0,0,1,26.2,3c.53.2.59.22.54.12s0-.08.05,0a1.63,1.63,0,0,0,.4.24l.44.26a1.54,1.54,0,0,0,.34.17,2.58,2.58,0,0,1,.51.29c.12.1.25.18.38.27a5.88,5.88,0,0,1,.6.52,3.16,3.16,0,0,0,.55.48.07.07,0,0,1,.07.06s.08.11.18.19a4.18,4.18,0,0,1,.5.53,8.77,8.77,0,0,0,.87,1,4.93,4.93,0,0,1,.42.49,4.5,4.5,0,0,0,.31.45,8.25,8.25,0,0,1,.47.7c.16.27.34.54.53.8a2.76,2.76,0,0,1,.38.67,1.24,1.24,0,0,0,.25.45c.07.05.12.13.11.17a3.69,3.69,0,0,0,.37.93,3.22,3.22,0,0,1,.3,1,.47.47,0,0,0,.1.27s.06,0,.06.1a.52.52,0,0,0,.1.26.56.56,0,0,1,.1.33.72.72,0,0,0,0,.29,1.52,1.52,0,0,1,.06.42,1,1,0,0,0,.05.35.66.66,0,0,1,0,.34,1.53,1.53,0,0,0,0,.37,5.35,5.35,0,0,1,0,1c0,.13,0,.23,0,.23s0,.1,0,.22a17.41,17.41,0,0,1-.2,1.91l-.24,1.2c-.08.44-.21,1-.27,1.2l-.21.8a4.88,4.88,0,0,1-.58,1.42,2.6,2.6,0,0,0-.23.4l-.21.38a3.72,3.72,0,0,0-.21.39,2.44,2.44,0,0,1-.22.31,4.49,4.49,0,0,0-.4.57,1.13,1.13,0,0,1-.24.3s-.1.07-.16.16a3.17,3.17,0,0,1-.34.39,20.2,20.2,0,0,1-2.06,1.63c-.53.32-1.73,1-1.77,1a1.91,1.91,0,0,0-.32.16,3.61,3.61,0,0,1-.68.28,5,5,0,0,0-.65.23,17.13,17.13,0,0,1-3,.63c-.43.05-1.07.13-1.43.19a25.64,25.64,0,0,1-7.57-.28c-4.95-1.61-7.14-2.19-9.25-5.3A9.57,9.57,0,0,1,3,21.12s0-.09-.06-.2a.49.49,0,0,1-.08-.23,0,0,0,0,1,0,0h0a.06.06,0,0,1,0,0,.06.06,0,0,0,0-.08h0s-.06,0,0,0a.77.77,0,0,0-.05-.4,4.25,4.25,0,0,1-.12-.6,2.34,2.34,0,0,0-.13-.7A15.8,15.8,0,0,1,5,8.92a.32.32,0,0,0,.11-.19c0-.11.1-.2.13-.19a0,0,0,0,0,0-.06s0-.1.1-.13.1-.06,0-.07,0,0,.06-.13S5.62,8,5.6,8s0-.07.05-.06.07,0,0,0,0-.11.15-.19A.69.69,0,0,0,6,7.51a1.67,1.67,0,0,1,.23-.23c.12-.11.21-.22.19-.26s0,0,0,0,.09,0,.09,0,.32-.34.36-.3,0,0,0-.13,0-.17.1-.16a2,2,0,0,0,.71-.58.13.13,0,0,1,.14-.08c.11,0,.34-.23.3-.32s0-.08.08-.1a.16.16,0,0,0,.12-.13c0-.1,0-.1.07,0s.06.09.16,0A.29.29,0,0,0,8.77,5a.09.09,0,0,1,.08-.08c.1,0,.43-.2.4-.24s0,0,.13,0a2.15,2.15,0,0,0,.89-.39,1.42,1.42,0,0,1,.36-.14c.1,0,.19-.07.2-.12s0-.09.1,0,.1,0,.1,0a0,0,0,0,1,.06-.05A2.62,2.62,0,0,0,12,3.47a.61.61,0,0,1,.23-.11s.07,0,.07,0a1,1,0,0,1,.39-.18A1,1,0,0,0,13.08,3s.06,0,.14,0a.13.13,0,0,0,.14,0s.06-.06.12-.06a.31.31,0,0,0,.19,0,4.86,4.86,0,0,1,1-.28A1.55,1.55,0,0,0,15,2.42l.41-.11a1.06,1.06,0,0,0,.25-.09.54.54,0,0,1,.25-.06l.32,0c.41-.07.69-.1,1.35-.16.39,0,.88-.09,1.09-.13a3.82,3.82,0,0,1,.68-.06H20l.75,0a1.63,1.63,0,0,0,.44,0h0ZM4.67,9.06s0,0,.07.08,0,.07,0,.06a.06.06,0,0,1-.06-.07s0-.07,0-.07ZM2.21,18.72a.21.21,0,0,1,.06.1c0,.1,0,.11,0,0s-.06-.11,0-.13h0Z"/></g><g id="プレゼントアイコン14"><path id="Path_73927" data-name="Path 73927" class="cls-2" d="M28,12.05l-2.07-.87a1.72,1.72,0,0,1-.88.42l-.25,0,2.29,1-1.83.77.53.34.05,0,1.56-.67v2.8l-3.45,1.46a.68.68,0,0,1,0,.12.87.87,0,0,1-.83.61.9.9,0,0,1-.5-.16l-3.44,1.46V16.57l1.65-.7c-.11-.16-.23-.32-.33-.48l-1.6.68-1.38-.58L17.1,16l1.44.61v2.79L15.26,18a.85.85,0,0,1-.38.09.87.87,0,0,1-.82-.6l-2.73-1.15v0L10.57,16V13.19l1.47.62.15-.11.41-.26-1.76-.75,2.5-1.06a1.75,1.75,0,0,1-.4,0,1.61,1.61,0,0,1-.83-.37l-2.38,1v4.3l.75.32v6.3l8.41,3.56,8.57-3.62V16.78l.76-.32v-4.3ZM18.54,25.64l-7.21-3.05V16.92L18.54,20Zm8.07-3.12-7.5,3.18V20l7.5-3.18Z"/><path id="Path_73928" data-name="Path 73928" class="cls-2" d="M13.05,10.87a33.63,33.63,0,0,0,3.89-.12,20.56,20.56,0,0,1-4.36,3.58c-.15.09-.08.21,0,.24l1.58.68a.3.3,0,0,1,.17.21s.38,1.63.42,1.76a.14.14,0,0,0,.19.09l.06,0a16.74,16.74,0,0,0,3.86-6h.19a16.87,16.87,0,0,0,3.86,6,.16.16,0,0,0,.21,0,.18.18,0,0,0,.05-.07c0-.13.41-1.76.41-1.76a.34.34,0,0,1,.18-.21l1.58-.68c.09,0,.16-.15,0-.24A20.86,20.86,0,0,1,21,10.75a36.19,36.19,0,0,0,3.89.12.94.94,0,0,0,.79-1.06.65.65,0,0,0,0-.13,11.31,11.31,0,0,0-1.5-2.91.92.92,0,0,0-1.23-.22c-.78.6-2,1.6-2.64,2.13a1.51,1.51,0,0,0-2.08-.49,1.46,1.46,0,0,0-.51.51c-.59-.5-1.82-1.52-2.63-2.15a.94.94,0,0,0-1.24.22,11.63,11.63,0,0,0-1.5,2.91.93.93,0,0,0,.62,1.16Z"/></g></g></g></g></svg>