<svg xmlns="http://www.w3.org/2000/svg" viewBox="0 0 119.52 84.04"><defs><style>.cls-1{fill:#fff;}</style></defs><g id="圖層_2" data-name="圖層 2"><g id="_0-ori" data-name="0-ori"><g id="Group_6995" data-name="Group 6995"><path id="Path_2359" data-name="Path 2359" class="cls-1" d="M42.23,83.38c8.11.3,16.23.52,24.34.17,5.72-.56,11.55-.31,17.25-.74,6-1.07,12.28-1.37,18.17-3,4.93-2,10.23-4.41,13-8.91,2.77-4,2.81-8.74,4-13.22.83-7.1-.24-14.27-1.5-21.27-.91-3.71-1-7.62-2.27-11.24-1.48-2.45-2.3-5.2-4-7.56-1.62-3.11-5.6-3.7-8.67-4.95-.14-3.64,2.83-6.51,5-9.31.39-.81,2.26-1.74,1.45-2.68-2.87-.76-5.89.55-8.67,1.26A31,31,0,0,0,88.87,7.64c-1.36,1.15-2.8,2.42-4.71,1.47-7.35-.89-14.82-.58-22.22-.87-8.78,0-17.6-.93-26.27.55a69.35,69.35,0,0,0-16.91,4.14c-4,1.25-7.25,4.08-10.19,6.83C7.88,21,7.48,22.38,6.73,23.61,4.27,29.34,1.58,35.15.93,41.34A82.06,82.06,0,0,0,2.76,72.12c1.09,4.95,6.13,8.2,11.23,9,9.32,1.41,18.81,1.75,28.25,2.25Z"/><path id="Path_2360" data-name="Path 2360" d="M41.75,83.76c1.91.08,6.07.15,9.63.15,1.69,0,4.38,0,6,.08a70.88,70.88,0,0,0,7.85-.14c.67-.06,1.89-.13,2.71-.16a18.46,18.46,0,0,0,2.23-.19,17.71,17.71,0,0,1,2.06-.18c.74,0,1.72,0,2.18-.07s2.25,0,4,.07c3.32.11,5.09-.08,10.68-1.13a1.7,1.7,0,0,1,.71-.06s.16,0,.36-.09a7.53,7.53,0,0,1,1.64-.22,45.57,45.57,0,0,0,5.09-.59,44.8,44.8,0,0,0,5.92-1.44c1-.39,5.9-2.76,7.16-3.49a31.33,31.33,0,0,0,4.18-3.71,8.49,8.49,0,0,0,1.75-2.89,3.37,3.37,0,0,1,.56-1.08.9.9,0,0,0,.27-.55c0-.19.1-.34.19-.33.36,0,.69-1,.8-2.5a3.58,3.58,0,0,1,.2-1.13,5.84,5.84,0,0,0,.31-1.55,24.81,24.81,0,0,1,1-4.67,8,8,0,0,0,.3-2.08c0-1.82,0-3.9-.05-5.14,0-.58,0-1.52,0-2.1s0-1.18,0-1.36-.09-.27-.2-.21-.18,0-.18-.07a.46.46,0,0,1,.22-.29c.12-.06.14-.18,0-.31a1.71,1.71,0,0,1-.13-.81,3.68,3.68,0,0,0-.23-1.77,3,3,0,0,1-.15-1c0-1.12,0-1.22-.2-1.22s-.09-.13,0-.27a5.55,5.55,0,0,0-.37-2.28,5.68,5.68,0,0,1-.2-1.3,2.75,2.75,0,0,0-.18-1.06.81.81,0,0,1-.12-.53,4.26,4.26,0,0,0-.36-1.86.54.54,0,0,1-.14-.36c.1-.38,0-.6-.22-.48s-.18.06,0-.15.2-.39.09-.73a2.76,2.76,0,0,1-.15-.8,2.67,2.67,0,0,0-.17-.83,1.57,1.57,0,0,1-.14-.64.44.44,0,0,0-.12-.35,2,2,0,0,1-.12-.94,2.72,2.72,0,0,0-.06-.9,3.93,3.93,0,0,1-.18-.84,4,4,0,0,0-.28-1.12c-.12-.24-.35-.79-.51-1.21a2.25,2.25,0,0,0-.61-.94.33.33,0,0,1-.21-.41c.06-.13,0-.35-.24-.49a.89.89,0,0,1-.36-.42c-.07-.78-.2-1.31-.33-1.32s-.2-.18-.26-.4a3.43,3.43,0,0,0-.44-.85,10,10,0,0,1-.89-1.72,8.18,8.18,0,0,0-5.69-4.54c-.92-.26-2.09-.64-2.59-.85l-.91-.38.13-1a7.58,7.58,0,0,1,.39-1.88,4.27,4.27,0,0,1,1-1.52c.09.09.32-.4.38-.81a2.4,2.4,0,0,1,.52-.58c.26-.24.44-.49.4-.53s0-.18.15-.3A5.3,5.3,0,0,0,107,4.38a4.27,4.27,0,0,1,.77-1c.26-.25.45-.49.4-.53s.08-.17.29-.26A2.78,2.78,0,0,0,109.52,1c0-.15-.38-.42-1-.66a3.41,3.41,0,0,0-2.11-.28,10.93,10.93,0,0,0-2,.45,10.53,10.53,0,0,1-1.21.37,1.66,1.66,0,0,0-.45.12,4.46,4.46,0,0,1-.8.2c-.34.06-.62.17-.62.25s-.13.11-.26.06a.57.57,0,0,0-.52.11,6.57,6.57,0,0,1-2.31.77,6.22,6.22,0,0,0-1,.27l-1.61.65a4.25,4.25,0,0,0-1.3.68c0,.08-.13.14-.26.13a10.71,10.71,0,0,0-2.25,1.3,3.32,3.32,0,0,1-.62.32,26.33,26.33,0,0,0-2.64,1.94c-1.34,1.1-2.2,1.68-2.37,1.62a7.43,7.43,0,0,0-1-.22,17.21,17.21,0,0,1-2.55-.52,8.87,8.87,0,0,0-2.41-.21C78.52,8.4,67.5,8.16,61.44,8c-1.95-.07-3.61-.08-3.71,0a9,9,0,0,1-1.64,0A4.18,4.18,0,0,0,54.33,8a.36.36,0,0,1-.51,0h0c-.17-.15-1.11-.21-3.2-.21-4,0-3.89,0-4,.11a3,3,0,0,1-1.12-.09,14.93,14.93,0,0,0-4,0c-.27,0-.76.09-1.08.11-.8.07-3.13.4-6.63,1-1.63.26-3.1.47-3.29.46a11.42,11.42,0,0,0-3.1.8c0,.08-.16.1-.36,0s-.41,0-.48.05a.21.21,0,0,1-.28.09A5.61,5.61,0,0,0,24,11c-.18.14-.38.21-.44.15a2.19,2.19,0,0,0-1,.29,4.93,4.93,0,0,1-1.18.38,6,6,0,0,0-1.25.38,5.61,5.61,0,0,1-1.2.39c-.13,0-.2.07-.14.17s0,.17-.19.17A1.48,1.48,0,0,0,18,13c-.39.15-.79.29-1.19.4a3.08,3.08,0,0,0-1.52.88,1.44,1.44,0,0,1-.77.51,5.25,5.25,0,0,0-2.17,1.64c0,.11-.1.16-.19.1A9.12,9.12,0,0,0,10,18.12C8.07,19.75,7.93,19.93,7.91,21a.19.19,0,0,1-.17.21h0c-.1,0-.13.07-.08.16a.19.19,0,0,1-.09.26h0a.33.33,0,0,0-.12.36c0,.13,0,.24-.06.24a15.36,15.36,0,0,0-1.6,3.19,3,3,0,0,1-.3.69,1.65,1.65,0,0,0-.22.44c-.18.74-.35,1.18-.49,1.25a.59.59,0,0,0-.19.43,2.64,2.64,0,0,1-.41,1,8.8,8.8,0,0,0-.79,1.93C2.5,34,2.3,34.69,2,35.52.86,38.77.66,40.08.3,47.27-.06,54.06-.07,54.34.13,56c.08.68.18,2.13.23,3.23A66.87,66.87,0,0,0,1.85,69c.57,3,1.41,5.69,1.88,6.06a4.18,4.18,0,0,1,.51.8A6,6,0,0,0,5.36,77.2,14.13,14.13,0,0,0,7.86,79,6.8,6.8,0,0,1,9,79.71a11,11,0,0,0,1.72.93A50.55,50.55,0,0,0,18.27,82c2.88.34,12.86,1.08,18.28,1.35,2.25.11,4.12.24,4.16.3a6.19,6.19,0,0,0,1,.08Zm.34-1.24c-4.35-.17-8.8-.37-9.38-.47s-3.41-.33-6.48-.56-6.2-.5-7-.63c-5.54-.87-7-1.14-7.47-1.4a2.75,2.75,0,0,0-.87-.31c-.18,0-.32-.08-.32-.16a8.09,8.09,0,0,0-2.25-1.58A10.31,10.31,0,0,1,6,75.23a.86.86,0,0,0-.2-.39c-1.11-1.27-1.39-2-2-5.12-.12-.58-.35-1.53-.51-2.11a13,13,0,0,1-.58-3.16c0-.24,0-.43-.11-.43s-.15-.19-.16-.4a17.69,17.69,0,0,0-.22-2.41,12.55,12.55,0,0,1-.23-1.93,2.54,2.54,0,0,0-.07-.61,33.36,33.36,0,0,1-.21-6.32,6.46,6.46,0,0,0-.09-1.64.79.79,0,0,1,.06-.6c.11-.24.11-.41,0-.45s-.11-.22,0-.49a1.33,1.33,0,0,0,0-.9A26.37,26.37,0,0,1,1.87,44c.18-2.08.34-3.94.35-4.13a6.22,6.22,0,0,1,.35-1.21c.34-.91,1.29-4.27,1.35-4.79,0-.16.09-.3.16-.3s.21-.36.31-.81a5.09,5.09,0,0,1,.48-1.3,3.11,3.11,0,0,0,.37-.86,15.31,15.31,0,0,1,1.23-2.95,3.56,3.56,0,0,0,.43-1.12,3.54,3.54,0,0,1,.42-1.12,5.62,5.62,0,0,0,.72-2,.93.93,0,0,1,.24-.51,7.18,7.18,0,0,0,.64-1.23,9,9,0,0,1,3-3.29c.63-.5,1.3-1,1.47-1.21a17.51,17.51,0,0,1,1.77-1.23c.8-.51,1.5-1,1.56-1a9.51,9.51,0,0,1,1.43-.62c.74-.27,1.5-.56,1.7-.65.87-.4,6.47-2.06,8.27-2.46,1.1-.25,3.05-.6,4.35-.79s3.07-.47,4-.62S38.9,9.38,40,9.28A17.06,17.06,0,0,0,42.1,9c.23-.11,10.85,0,21.77.34,4.65.13,8.52.2,8.59.16s2.26,0,4.87.09c4.24.14,4.9.2,6.38.59,3.84,1,3.64,1,4.11.1A15.47,15.47,0,0,1,91,7.13a26.76,26.76,0,0,1,7.57-3.7c1.1-.32,2.52-.76,3.17-1a4.83,4.83,0,0,1,1.19-.3c0,.06.12,0,.28-.1.54-.38,4.08-1,4.06-.66a8.12,8.12,0,0,1-1.22,2c-.38.51-1,1.41-1.34,2s-.7,1-.77,1-.13,0-.13.09a19.08,19.08,0,0,1-1.57,2.92,3.24,3.24,0,0,0-.32,1.1,3.32,3.32,0,0,1-.27,1c-.48.73-.13,2.24.51,2.27a3.62,3.62,0,0,1,1,.47,3.67,3.67,0,0,0,1.29.49,4.59,4.59,0,0,1,1.34.4,5.44,5.44,0,0,0,1.26.4,6.21,6.21,0,0,1,2.3,1.47,27.23,27.23,0,0,1,3,5.53,3.33,3.33,0,0,0,.45.93,8.71,8.71,0,0,1,1.2,2.76.68.68,0,0,0,.1.44.84.84,0,0,1,.15.38,15.25,15.25,0,0,0,.48,1.85c0,.12.08.23.11.35s.85,3.22,1,3.79c.08.29.28,1.39.43,2.45s.41,2.48.57,3.16a73,73,0,0,1,1.26,12.25c.14,3.18.07,4.87-.25,5.82a22.72,22.72,0,0,0-.66,3.65,4,4,0,0,1-.26,1.17,4.06,4.06,0,0,0-.18,1.2,9.63,9.63,0,0,1-.2,1.69,19.77,19.77,0,0,1-1.52,3.72c-.27.43-.28.55-.08.68s.17.16-.09.15a.31.31,0,0,0-.34.25,3,3,0,0,1-.55,1,5.26,5.26,0,0,0-.57.9,5.74,5.74,0,0,1-1.5,1.79c-.4.34-.8.71-.9.8a12.68,12.68,0,0,1-2.44,1.73,3.4,3.4,0,0,0-.77.42,33.45,33.45,0,0,1-3.34,1.8,6.7,6.7,0,0,0-1,.45,21.58,21.58,0,0,1-4.15,1.33l-1,.29c-.4.13-4.8.76-5.9.84a4.74,4.74,0,0,0-1.12.17,2.54,2.54,0,0,1-.78.12,21.42,21.42,0,0,0-2.38.38,39.05,39.05,0,0,1-8.07.9,5.67,5.67,0,0,0-1.88.1,2.43,2.43,0,0,1-1.17.1,59,59,0,0,0-8.19.54,30.46,30.46,0,0,1-3.31,0c-1.83-.05-3.57-.06-3.88,0-.58,0-8.91,0-9.89-.09a2.66,2.66,0,0,0-.84.07c-.19.06-4.45-.06-8.8-.22ZM28.53,78.07a1.47,1.47,0,0,0,.81-.24c1.06-.6,1.23-1.08.55-1.54a1.25,1.25,0,0,0-1.74.33l0,.09c-.35.47-.36.56-.12.94a.79.79,0,0,0,.55.42Zm8,.14c.17,0,.29,0,.29-.16A.11.11,0,0,1,37,78c.09.06.24-.18.33-.53.15-.54.1-.68-.26-1a1.37,1.37,0,0,0-1.67-.12.59.59,0,0,0-.14.81.6.6,0,0,0,.23.19.26.26,0,0,1,.11.34h0c-.08.11-.07.15,0,.09s.27,0,.41.14a.91.91,0,0,0,.51.27Zm13.14.34c.8,0,1.24-.18,1.06-.49-.09-.15-.07-.18.07-.1s.32-.17.29-.83a1.3,1.3,0,0,0-1.35-1c-1.13.06-1.57.91-1,1.94a.87.87,0,0,0,.93.51Zm-7.54-.49a2.64,2.64,0,0,0,.78-.2c.62-.22,1-.56.4-.37a.35.35,0,0,1-.38-.07c0-.09.08-.2.29-.26.46-.11.48-.23.15-.7-.21-.29-.31-.31-.65-.14s-.4.15-.38,0-.21,0-.48.19c-.57.45-.65,1-.21,1.31a.76.76,0,0,0,.48.24Zm14.52.37c.63,0,1.25-.47,1.16-1.09-.11-.83-.24-.91-1.4-.81-.1,0-.36.28-.57.6-.37.58-.38.61-.07,1a1,1,0,0,0,.61.33,1.22,1.22,0,0,0,.27,0ZM20.12,76.82c.87.07,1.62-.32,1.66-.92a1.56,1.56,0,0,0-.49-.79c-.51-.5-.52-.5-1.09-.21-1,.51-1.32,1.65-.46,1.86l.38.06Zm44.49,1.51a2.75,2.75,0,0,0,1.21-.83c.12-.24-.49-.94-.85-1a3.32,3.32,0,0,0-1.56.17c-.58.4-.1,1.32.77,1.5a.89.89,0,0,1,.35.14.08.08,0,0,0,.08,0Zm7.39-1a1.85,1.85,0,0,0,1.2-.4c.52-.41.55-.58.17-1a1.44,1.44,0,0,0-1.64-.18.83.83,0,0,0-.47,1.06.79.79,0,0,0,.2.3.81.81,0,0,0,.54.24Zm-67.48-3c-.2,0-.37-.1-.36-.19s.13-.17.28-.16a.44.44,0,0,1,.36.19C4.86,74.31,4.74,74.38,4.52,74.37Zm75.32,2.79a1.08,1.08,0,0,0,.76-.2c.31-.21.57-1,.33-1s-.15-.16-.14-.35c0-.45-1-.79-1.56-.5a1.18,1.18,0,0,0-.2,1.66l.08.09a1.11,1.11,0,0,0,.73.34Zm7.93-.1a7.31,7.31,0,0,0,2.35-1.48c0-.26-1.38-.81-2.08-.82-1,0-1.49.42-1.37,1.19a1.16,1.16,0,0,0,.56.83C87.49,76.92,87.73,77.05,87.77,77.06Zm6-.55A2.17,2.17,0,0,0,95.09,76c.57-.56.57-.76,0-1.14a1,1,0,0,0-1.42,0,1.34,1.34,0,0,0-.18.28c-.35.54-.38,1.33,0,1.15.09,0,.17,0,.16.07s.06.12.16.13ZM13.17,73.29a2.33,2.33,0,0,0,.85-.22l.63-.25L14.46,72c-.2-1-.66-1.16-1.47-.57-.63.46-.84,1.28-.41,1.62a.94.94,0,0,0,.59.24ZM102,74.55a1.22,1.22,0,0,0,1.26-.82c.1-.6,0-.75-.37-.89-.7-.26-.87-.26-1.15,0s-.32.18-.39.11-.17,0-.24.26-.21.37-.3.37c-.3,0,.19.72.58.88a1.83,1.83,0,0,0,.61.11ZM8.78,68.22A2,2,0,0,0,9.37,68c.83-.42,1.13-1.61.54-2.08-.32-.26-.64-.15-1.44.47-.64.52-.82,1.58-.28,1.73A1.7,1.7,0,0,0,8.78,68.22ZM107,70.11c.15,0,.3-.07.58-.26a2,2,0,0,0,.45-2.14,2.17,2.17,0,0,0-1.56-.4c-.32,0-.71.85-.56,1.2A.83.83,0,0,1,106,69a1.55,1.55,0,0,0,.44.67c.28.3.43.46.59.48ZM8.45,63.37c.27,0,1-.88,1.06-1.23a3.27,3.27,0,0,0-.72-1.7.76.76,0,0,0-1.08.17.57.57,0,0,0-.08.13c-.08.18-.2.33-.27.33s-.18.3-.22.67c-.07.58,0,.74.5,1.14a2.43,2.43,0,0,0,.8.49Zm-1.36-5.3A2,2,0,0,0,7.64,58c.35-.07.39-.15.27-.42s-.1-.36.14-.47.32-.7-.09-1a1.24,1.24,0,0,0-1.52.59c-.19.33-.17.5.09.87s.35.44.56.46Zm103.32,2.87a2.47,2.47,0,0,0,1.26-.52c.48-.31.61-.5.54-.78l-.16-.68c-.1-.42-.86-.6-1.52-.37-1,.33-1.37,1.64-.67,2.15a1,1,0,0,0,.55.2ZM7,52.86a1.22,1.22,0,0,0,.66-.2c.39-.26.65-1.39.38-1.66a1.29,1.29,0,0,0-1.55.11,1.06,1.06,0,0,0-.34,1.3.85.85,0,0,0,.85.45Zm-6-3s-.13-.08-.18-.18,0-.17.09-.17a.19.19,0,0,1,.19.18h0c0,.1-.05.18-.1.17ZM111.4,53.71a1.27,1.27,0,0,0,1.27-1.28v-.1c-.08-.35-.21-.45-.64-.47-.84,0-1.1.12-1.38.78s-.21.64.09.86a1,1,0,0,0,.66.2Zm-105.34-7a1.14,1.14,0,0,0,.58-.23A1,1,0,0,0,6.92,45l-.07-.09c-.34-.35-.32-.35-1,0a.83.83,0,0,0-.56,1,.8.8,0,0,0,.3.44c.21.22.34.33.49.35Zm105.65-.64c.14,0,.24-.09.54-.42.81-.86.68-1.68-.28-1.86s-1.17.06-1.21.86.06.93.57,1.23a1.93,1.93,0,0,0,.38.19ZM6.78,41.52c.38,0,.54-.1.74-.54.35-.78.34-1,0-1.4s-.36-.27-.94,0-.62.44-.64.9a1.22,1.22,0,0,0,.18.79,1.14,1.14,0,0,0,.69.23ZM8,35.46A1.33,1.33,0,0,0,8.78,35c.54-.53.58-.91.17-1.45-.3-.38-.35-.39-.9-.15a1.31,1.31,0,0,0-.71,1.68.65.65,0,0,0,.61.34Zm103,2.41a.77.77,0,0,0,.64-.25c1.18-1.2.5-2.53-1-2-.49.16-.57.28-.6.83a1.39,1.39,0,0,0,.32,1,1.14,1.14,0,0,0,.67.4ZM10.38,30.34c1,0,1.74-2.21.76-2.38A2.36,2.36,0,0,0,9.3,29.09c-.09.25,0,.51.3.8a1.41,1.41,0,0,0,.78.45Zm98,.82c1.68.05,2.52-2.18.9-2.4a1.34,1.34,0,0,0-1.3.36,1.06,1.06,0,0,0-.29,1.48,1,1,0,0,0,.19.22.94.94,0,0,0,.5.34ZM12.6,24.46c.7,0,.89-.1,1.15-.49s.29-.5-.11-.83a1.78,1.78,0,0,0-1.84-.2,1.59,1.59,0,0,0-.18,1.42,2.33,2.33,0,0,0,1,.1Zm3.7-4.07a1,1,0,0,0,.24,0,4.35,4.35,0,0,1,.8-.05c.71,0,1.2-.68.77-1.11a1.55,1.55,0,0,0-1.84-.14c-.43.37-.55,1.12-.2,1.27l.23.05ZM105.69,23a2.47,2.47,0,0,0,1.51-.27.52.52,0,0,0,.08-.4.21.21,0,0,1,.13-.27c.36-.1,0-.84-.49-1-1.25-.5-2.69.58-1.88,1.42.15.15.21.28.12.28s0,.08.12.17a1,1,0,0,0,.41.12ZM23.05,18.11c.21,0,.37-.05.38-.17s.09-.13.18-.08.31,0,.51-.7c.13-.46.1-.56-.27-.68a1.24,1.24,0,0,1-.53-.31c-.15-.25-1.48.12-1.49.41a1.63,1.63,0,0,1-.14.49c-.07.15,0,.43.25.64a1.78,1.78,0,0,0,1.11.41Zm5.81-1.37A1.26,1.26,0,0,0,30.19,16c.07-.24.16-.52.19-.62s-.89-.82-1.43-.84-1.08.57-1,1a4.63,4.63,0,0,0,.22.75.79.79,0,0,0,.7.48Zm72,1.74a1.35,1.35,0,0,0,.85-.37c.46-.36.5-.47.35-.9-.26-.76-.48-1-.87-.79-.19.08-.39.1-.44,0s-.9.45-.92.79a1.58,1.58,0,0,0,.34.77,1,1,0,0,0,.69.46ZM35.48,15.61a2.15,2.15,0,0,0,.79-.21c.55-.24.94-.9.74-1.26a1.27,1.27,0,0,0-.64-.3c-.59-.15-1.69.22-1.74.59a.94.94,0,0,0,.85,1.19ZM42,15.33a.88.88,0,0,0,.69-.3c.81-.7.42-1.62-.79-1.88-.83-.17-1.11.78-.5,1.68.21.3.4.47.6.5Zm8.34-.9a1.47,1.47,0,0,0,.6-.2,1.19,1.19,0,0,0,.73-1.33,1.85,1.85,0,0,0-1.45-.7,1.11,1.11,0,0,0-1,1.2v0a1.38,1.38,0,0,0,.59.71c.3.2.43.3.56.3Zm12.41.39a1.21,1.21,0,0,0,1.07-.49c.48-.52.49-.58.1-1a1.48,1.48,0,0,0-1.72-.23c-.13.14-.18.25-.1.26s0,.11-.07.22a.76.76,0,0,0,.17,1l.16.09a1.74,1.74,0,0,0,.39.11Zm18.86.66a2.21,2.21,0,0,0,1.19-.66c.55-.74-.09-1.29-1.4-1.22-.49,0-.66.13-.78.48a1.11,1.11,0,0,0,.68,1.28l.31.12ZM56.85,14.37c.47,0,1-.22,1-.61A1.19,1.19,0,0,0,57,12.47c-.78-.28-1.57.1-1.44.68a2.54,2.54,0,0,1,.07.61c0,.12.08.19.17.14s.26,0,.39.18a.9.9,0,0,0,.71.29Zm11.84.23a1.15,1.15,0,0,0,.26,0c.75-.14,1.21-.57,1.18-1.08S70,13,69.22,13s-.91,0-1.12.34a.71.71,0,0,0,.05.9c.18.29.31.39.54.4Zm7.37.15a.83.83,0,0,0,.76-.3c.54-.83.09-1.44-1-1.41-.91,0-1.23.72-.62,1.34a1.41,1.41,0,0,0,.9.38Z"/></g></g></g></svg>