<svg xmlns="http://www.w3.org/2000/svg" viewBox="0 0 59.14 40"><defs><style>.cls-1{fill:#ffd76c;}</style></defs><g id="圖層_2" data-name="圖層 2"><g id="_0-ui_kits" data-name="0-ui_kits"><path id="arrow-l-hover" class="cls-1" d="M28.37,0a.66.66,0,0,1,.53.19c.19.17.21.21.19.56,0,.2-.07.85-.14,1.42a31.54,31.54,0,0,0,.22,8.41c.11.39.21.45.92.61s1.82.19,7.37.11c5.28-.08,6.36-.07,10.11.13,1.42.07,8,.11,9.48.05.81,0,.83,0,1.16.15a1.34,1.34,0,0,1,.44.34c.15.22.2,1.42.28,6.43,0,2.38.1,4.41.14,4.66a12.37,12.37,0,0,1,0,2.72c-.07.34-.11.38-.7.87-.34.27-1.38,1.25-2.32,2.17s-1.82,1.75-2,1.84a3,3,0,0,1-.64.26c-.37.1-.56.1-3,0l-4.55-.17c-2.49-.08-14.71-.08-15.66,0a3,3,0,0,0-1.46.35A11.55,11.55,0,0,0,28.5,34a5.55,5.55,0,0,1-.21,1.94,11.33,11.33,0,0,1-1.38,1.56c-1.77,1.78-2.33,2.22-3.19,2.43a1.58,1.58,0,0,1-1.34-.13,7.74,7.74,0,0,1-1.86-1.24,2.15,2.15,0,0,0-.53-.41,6.09,6.09,0,0,1-1-.87,18,18,0,0,0-1.41-1.21,6.7,6.7,0,0,1-.89-.79,1.64,1.64,0,0,0-.56-.45,4.4,4.4,0,0,1-.66-.39,2.12,2.12,0,0,0-.51-.28,5.62,5.62,0,0,1-1.35-.91,8.31,8.31,0,0,0-.92-.63,4,4,0,0,1-.69-.53,2.61,2.61,0,0,0-.93-.6,26.13,26.13,0,0,1-4.47-2.79,3.29,3.29,0,0,0-.66-.52A11.6,11.6,0,0,1,3.36,26s-.1-.08-.21-.13a3.55,3.55,0,0,1-.75-.45,9.56,9.56,0,0,0-2-1.23c-.57-.15-.57-.61,0-1.3.17-.2.48-.59.68-.88a34.82,34.82,0,0,1,2.37-2.9,35.34,35.34,0,0,1,3.24-2.87c1.06-.87,1.92-1.59,3.9-3.31.29-.25,1-.8,1.54-1.21s1.37-1.07,1.82-1.44,1-.82,1.28-1a5.77,5.77,0,0,0,.78-.6,1.44,1.44,0,0,1,.46-.31A1.24,1.24,0,0,0,17,8.07a5.48,5.48,0,0,1,.92-.58,20.67,20.67,0,0,0,2.78-1.76c.72-.5,1.62-1.09,2-1.32a11.54,11.54,0,0,0,1.08-.75l1.86-1.58C26.4,1.4,27.2.7,27.37.52,27.78.1,28,0,28.36,0Zm-24,21L4,21.22a9.08,9.08,0,0,0-1.43,1.66.72.72,0,0,0-.09.43,4.43,4.43,0,0,0,1,.87l1,.78s.13,0,.23-.19.55-.66,1-1.16c.83-.86.87-.92.79-1.05a11,11,0,0,0-1.86-1.39Zm3.74,2.56a11.26,11.26,0,0,0-1.24,1.15c-.92.94-1.09,1.14-1,1.22.21.25,2.16,2,2.49,2.19.49.32.79.33,1.17.05A11.06,11.06,0,0,0,11,26.49c.18-.26.19-.29.11-.44a10.15,10.15,0,0,0-1.86-1.67,7.58,7.58,0,0,1-.92-.76.19.19,0,0,0-.23-.1Zm25.18,3a.29.29,0,0,0-.23.09,3.44,3.44,0,0,1-1.11.89,5.21,5.21,0,0,0-1.22,1,5.55,5.55,0,0,0-.66.71s.07.08.15.1a21.54,21.54,0,0,0,2.54,0c.7-.07,1.12-.43,1.66-1.41.18-.33.4-.74.5-.9a1,1,0,0,0,.13-.33,7.93,7.93,0,0,0-1-.08c-.26,0-.53,0-.79,0Zm-4.41.07a6.64,6.64,0,0,0,.05.89l.09.84.71-.75a5.21,5.21,0,0,0,.69-.8,7.9,7.9,0,0,0-1.54-.18Zm9,.16-.22,0a2.83,2.83,0,0,0-.81.69,11.17,11.17,0,0,0-1.4,1.67A17,17,0,0,0,39,29,8.81,8.81,0,0,0,41.13,27,3.07,3.07,0,0,0,40.6,27l-1-.1a17,17,0,0,0-1.74-.15Zm12.06.18c-.39,0-.47,0-.51.08s-.17.25-.28.43a1.38,1.38,0,0,1-.46.44,6.16,6.16,0,0,0-1.29,1.31,13.43,13.43,0,0,0,1.55.09c.84,0,2,.07,2.61.11s1.17.07,1.28.09.26,0,.89-.62A6.73,6.73,0,0,0,55.23,27a28.5,28.5,0,0,0-2.92-.11c-1.32,0-2,0-2.43,0Zm-4.7,0-1.34,0-.35.19a9,9,0,0,0-1.2,1l-.85.83.24,0c.14,0,.94.06,1.78.09l1.53,0,1-1a10.62,10.62,0,0,0,1-1.09c0-.12-.48-.15-1.88-.13Zm-32.63.22-.64.63a6.53,6.53,0,0,0-1.27,1.55s.07.12.17.17a4.46,4.46,0,0,1,.56.41,1.87,1.87,0,0,0,.45.33,6.79,6.79,0,0,1,.81.5l.74.51.58-.52A10.16,10.16,0,0,0,15.3,29.3a14.68,14.68,0,0,0-2.46-2Zm4.1,3.17-.41.42c-.23.23-.6.64-.81.9-.52.62-.51.69.12,1.14s1,.73,1.51,1.11a4.35,4.35,0,0,0,.57.38l.72.43a2,2,0,0,0,.53.26c.23,0,.95-.79,1.65-1.8l.32-.46-.22-.19a8,8,0,0,0-1.71-1,3.11,3.11,0,0,1-.75-.43,4.63,4.63,0,0,0-1.28-.72Zm5.48,3.09,0,.05c0,.06-.28.41-.54.77a15.13,15.13,0,0,0-.86,1.34l-.38.69.31.28a18.07,18.07,0,0,0,2,1.43,5.13,5.13,0,0,0,.65.36,4.29,4.29,0,0,0,1-.59,6.56,6.56,0,0,0,1.42-1.55.76.76,0,0,0-.21-.19c-.12-.07-.76-.58-1.42-1.13s-1.39-1.1-1.6-1.25-.34-.23-.4-.21Z"/></g></g></svg>