<svg xmlns="http://www.w3.org/2000/svg" viewBox="0 0 59.14 40"><defs><style>.cls-1{fill:#fff;}</style></defs><g id="圖層_2" data-name="圖層 2"><g id="_0-ui_kits" data-name="0-ui_kits"><path id="arrow-r" class="cls-1" d="M30.78,0c.4,0,.58.09,1,.51.17.18,1,.88,1.78,1.56s1.65,1.39,1.86,1.58a13,13,0,0,0,1.08.75c.39.23,1.29.82,2,1.32a20.06,20.06,0,0,0,2.78,1.76,5.4,5.4,0,0,1,.91.58,1.24,1.24,0,0,0,.46.29,1.33,1.33,0,0,1,.46.31,7.36,7.36,0,0,0,.78.6c.25.16.82.6,1.28,1s1.27,1,1.83,1.44,1.24,1,1.54,1.21c2,1.72,2.83,2.44,3.9,3.31a36.71,36.71,0,0,1,3.24,2.87A32.81,32.81,0,0,1,58,22c.21.29.51.68.68.88.56.69.56,1.15,0,1.3a9.63,9.63,0,0,0-2,1.23,3.75,3.75,0,0,1-.74.45c-.12.05-.21.1-.21.13a11.88,11.88,0,0,1-2.56,2.19,3.29,3.29,0,0,0-.66.52,26.13,26.13,0,0,1-4.47,2.79,2.57,2.57,0,0,0-.92.6,4.37,4.37,0,0,1-.69.53,7.58,7.58,0,0,0-.93.63,5.56,5.56,0,0,1-1.34.91,1.8,1.8,0,0,0-.51.28,4.5,4.5,0,0,1-.67.39,1.85,1.85,0,0,0-.56.45,6.7,6.7,0,0,1-.89.79,16.2,16.2,0,0,0-1.4,1.21,6.58,6.58,0,0,1-1,.87,2.35,2.35,0,0,0-.53.41,7.68,7.68,0,0,1-1.85,1.24,1.6,1.6,0,0,1-1.35.13c-.85-.21-1.42-.65-3.18-2.43a11.4,11.4,0,0,1-1.39-1.56c-.12-.25-.14-.47-.2-1.94a11.2,11.2,0,0,0-.27-2.88,2.94,2.94,0,0,0-1.46-.35c-1-.08-13.17-.08-15.66,0l-4.55.17c-2.46.1-2.65.1-3,0a3,3,0,0,1-.65-.26c-.13-.09-1-.92-2-1.84s-2-1.9-2.32-2.17c-.59-.49-.62-.53-.7-.87a12.37,12.37,0,0,1,0-2.72c0-.25.1-2.28.13-4.66.08-5,.14-6.21.28-6.43a1.45,1.45,0,0,1,.44-.34c.33-.17.35-.18,1.16-.15,1.47.06,8.06,0,9.48-.05,3.76-.2,4.84-.21,10.11-.13,5.55.08,6.6.07,7.37-.11s.81-.22.92-.61a31.92,31.92,0,0,0,.23-8.41C30.12,1.6,30.06,1,30.05.75c0-.35,0-.39.2-.56A.64.64,0,0,1,30.78,0ZM32,3S32,4.17,32,5.6a52.71,52.71,0,0,1-.26,6.62,1.06,1.06,0,0,1-.87.38,4.17,4.17,0,0,0-.6.1c-.25.08-4,.08-6,0s-6.93-.09-8.48,0c-.68,0-1.58.12-2,.17-.87.12-3.84.21-7.49.24a15.32,15.32,0,0,0-3.38.2,3.5,3.5,0,0,0-.9.23c-.11.18-.16,11.58-.05,11.7s4,.06,8.83.1c7.38.06,9,.06,10,0,1.63-.12,10.43-.14,10.74,0a.6.6,0,0,1,.28.22c.09.17.09.15.06,2.07A13.21,13.21,0,0,0,32,30.18c.08.61.22,1.75.29,2.54.14,1.45.18,1.79.24,1.79a3.13,3.13,0,0,0,.36-.19,6.2,6.2,0,0,0,.67-.47,28.12,28.12,0,0,1,4.5-3.1A41.08,41.08,0,0,0,42.43,28c1.23-.93,2.57-1.9,3.65-2.64.51-.35,1.3-.93,1.75-1.3A8.63,8.63,0,0,1,49,23.27a2.48,2.48,0,0,0,.49-.3,6.2,6.2,0,0,1,.73-.49,11.6,11.6,0,0,0,2.66-2.62,2.34,2.34,0,0,1,.26-.43,4.62,4.62,0,0,0-.87-1.27,35.59,35.59,0,0,0-2.86-2.77c-.42-.37-.92-.81-1.11-1a2.2,2.2,0,0,0-.51-.4,2.8,2.8,0,0,1-.49-.36c-.56-.48-1.7-1.36-2-1.55a7,7,0,0,1-.64-.47c-.19-.16-.94-.71-1.65-1.23s-1.42-1-1.55-1.15a1.82,1.82,0,0,0-.53-.33A24.28,24.28,0,0,1,37.73,7C35.79,5.67,34.21,4.57,33,3.68c-.5-.37-.94-.68-1-.68ZM54.4,21.17a11.4,11.4,0,0,0-1.86,1.39c-.08.13,0,.19.79,1.05.48.5.94,1,1,1.16s.19.22.23.19l1-.78a4.43,4.43,0,0,0,1-.87.72.72,0,0,0-.1-.43,9.08,9.08,0,0,0-1.43-1.66L54.81,21Zm-3.33,2.35a.19.19,0,0,0-.23.1,8.33,8.33,0,0,1-.91.76,9.9,9.9,0,0,0-1.87,1.67c-.07.15-.07.18.11.44a11.63,11.63,0,0,0,1.5,1.64.88.88,0,0,0,1.17-.05c.34-.23,2.29-1.94,2.49-2.19.07-.08-.1-.28-1-1.22a10.43,10.43,0,0,0-1.24-1.15Zm-25.18,3c-.26,0-.53,0-.79,0a7.77,7.77,0,0,0-1,.08.68.68,0,0,0,.13.33l.49.9c.54,1,1,1.34,1.67,1.41a21.51,21.51,0,0,0,2.54,0c.08,0,.14-.07.14-.1a6.29,6.29,0,0,0-.65-.71,5.27,5.27,0,0,0-1.23-1,3.67,3.67,0,0,1-1.11-.89c0-.05-.09-.08-.23-.09Zm4.41.07a8,8,0,0,0-1.54.18,6.61,6.61,0,0,0,.69.8l.72.75.08-.84a5.32,5.32,0,0,0,.05-.89Zm-9,.15a16.59,16.59,0,0,0-1.73.15l-1.05.1A3.21,3.21,0,0,0,18,27,8.81,8.81,0,0,0,20.11,29a17.07,17.07,0,0,0,3.64.13,11.1,11.1,0,0,0-1.39-1.67,3,3,0,0,0-.82-.69l-.22,0Zm-12.06.19c-.39,0-1.11,0-2.43,0A28.5,28.5,0,0,0,3.91,27a6.6,6.6,0,0,0,1.57,1.8c.63.6.7.65.88.62s.69-.06,1.29-.09,1.77-.08,2.6-.11a13.3,13.3,0,0,0,1.55-.09,6.16,6.16,0,0,0-1.29-1.31,1.35,1.35,0,0,1-.45-.44C10,27.22,9.81,27,9.77,27s-.11-.07-.51-.08Zm4.7,0c-1.4,0-1.88,0-1.88.13a10.72,10.72,0,0,0,1,1.09l1,1,1.53,0c.85,0,1.64-.07,1.78-.09l.25,0-.86-.83a8.4,8.4,0,0,0-1.2-1L15.3,27l-1.34,0Zm32.34.38a14.22,14.22,0,0,0-2.45,2,10.09,10.09,0,0,0,1.34,1.43l.58.52.74-.51a6.79,6.79,0,0,1,.81-.5,2.15,2.15,0,0,0,.46-.33,3.74,3.74,0,0,1,.55-.41c.1-.05.17-.13.17-.17a6.53,6.53,0,0,0-1.27-1.55l-.64-.63Zm-4,3.09a4.54,4.54,0,0,0-1.29.72,3.11,3.11,0,0,1-.75.43,7.91,7.91,0,0,0-1.7,1l-.23.19.32.46c.7,1,1.43,1.8,1.65,1.8a2,2,0,0,0,.53-.26l.72-.43a4.35,4.35,0,0,0,.57-.38c.5-.38,1-.78,1.51-1.11s.64-.52.12-1.14c-.21-.26-.58-.67-.8-.9l-.42-.42Zm-5.25,3s-.15,0-.4.21-.92.71-1.59,1.25S33.71,35.93,33.6,36a.55.55,0,0,0-.21.19,6.16,6.16,0,0,0,1.42,1.55,4.05,4.05,0,0,0,1,.59A5.25,5.25,0,0,0,36.5,38a18.9,18.9,0,0,0,2-1.43l.31-.28-.38-.69c-.21-.37-.59-1-.85-1.34s-.51-.71-.55-.77a.1.1,0,0,0,0-.05Z"/></g></g></svg>