<svg xmlns="http://www.w3.org/2000/svg" viewBox="0 0 95.01 51.54"><defs><style>.cls-1{fill:#163d50;}.cls-2{fill:#fff;}</style></defs><g id="圖層_2" data-name="圖層 2"><g id="_0-ui_kits" data-name="0-ui_kits"><g id="Group_3324" data-name="Group 3324"><path id="Path_20963" data-name="Path 20963" class="cls-1" d="M10.15,3.51V2.94H4.86V3.5a36.45,36.45,0,0,1-2,12L.71,21.56A12.7,12.7,0,0,0,0,25.74V49.3a2.23,2.23,0,0,0,2.23,2.24H12.78A2.23,2.23,0,0,0,15,49.3V25.75a12.72,12.72,0,0,0-.71-4.19l-2.11-6A36.38,36.38,0,0,1,10.15,3.51Z"/><path id="Path_20964" data-name="Path 20964" class="cls-2" d="M2.6,47.82V25.74a12.7,12.7,0,0,1,.71-4.18l2.13-6.08c1.34-3.85,1.28-7.9,1.28-12V2.94H6.16v.57a36.43,36.43,0,0,1-2,12L2,21.56a12.7,12.7,0,0,0-.71,4.18V47.82a2.23,2.23,0,0,0,2.24,2.23h1.3A2.23,2.23,0,0,1,2.6,47.82Z"/><g id="Group_3323" data-name="Group 3323"><path id="Path_20965" data-name="Path 20965" class="cls-1" d="M10,4H5a.65.65,0,0,1-.64-.65h0A.64.64,0,0,1,5,2.7h5a.65.65,0,0,1,.65.64h0A.65.65,0,0,1,10,4Z"/><rect id="Rectangle_1269" data-name="Rectangle 1269" class="cls-1" x="4.82" y="1.65" width="5.37" height="1.92"/><path id="Rectangle_1270" data-name="Rectangle 1270" class="cls-1" d="M5.77,0H9.24a1.39,1.39,0,0,1,1.39,1.39h0a.55.55,0,0,1-.55.54H4.94a.54.54,0,0,1-.55-.54h0A1.38,1.38,0,0,1,5.77,0Z"/></g></g><g id="Group_3324-2" data-name="Group 3324"><path id="Path_20963-2" data-name="Path 20963" class="cls-1" d="M30.15,3.51V2.94H24.86V3.5a36.45,36.45,0,0,1-2,12l-2.12,6.08A12.7,12.7,0,0,0,20,25.74V49.3a2.23,2.23,0,0,0,2.23,2.24H32.78A2.23,2.23,0,0,0,35,49.3V25.75a12.72,12.72,0,0,0-.71-4.19l-2.11-6A36.38,36.38,0,0,1,30.15,3.51Z"/><path id="Path_20964-2" data-name="Path 20964" class="cls-2" d="M22.6,47.82V25.74a12.7,12.7,0,0,1,.71-4.18l2.13-6.08c1.34-3.85,1.28-7.9,1.28-12V2.94h-.56v.57a36.43,36.43,0,0,1-2,12L22,21.56a12.7,12.7,0,0,0-.71,4.18V47.82a2.23,2.23,0,0,0,2.24,2.23h1.3A2.23,2.23,0,0,1,22.6,47.82Z"/><g id="Group_3323-2" data-name="Group 3323"><path id="Path_20965-2" data-name="Path 20965" class="cls-1" d="M30,4H25a.65.65,0,0,1-.64-.65h0A.64.64,0,0,1,25,2.7H30a.65.65,0,0,1,.65.64h0A.65.65,0,0,1,30,4Z"/><rect id="Rectangle_1269-2" data-name="Rectangle 1269" class="cls-1" x="24.82" y="1.65" width="5.37" height="1.92"/><path id="Rectangle_1270-2" data-name="Rectangle 1270" class="cls-1" d="M25.77,0h3.47a1.39,1.39,0,0,1,1.39,1.39h0a.55.55,0,0,1-.55.54H24.94a.54.54,0,0,1-.55-.54h0A1.38,1.38,0,0,1,25.77,0Z"/></g></g><g id="Group_3324-3" data-name="Group 3324"><path id="Path_20963-3" data-name="Path 20963" class="cls-1" d="M50.15,3.51V2.94H44.86V3.5a36.45,36.45,0,0,1-2,12l-2.12,6.08A12.7,12.7,0,0,0,40,25.74V49.3a2.23,2.23,0,0,0,2.23,2.24H52.78A2.23,2.23,0,0,0,55,49.3V25.75a12.72,12.72,0,0,0-.71-4.19l-2.11-6A36.38,36.38,0,0,1,50.15,3.51Z"/><path id="Path_20964-3" data-name="Path 20964" class="cls-2" d="M42.6,47.82V25.74a12.7,12.7,0,0,1,.71-4.18l2.13-6.08c1.34-3.85,1.28-7.9,1.28-12V2.94h-.56v.57a36.43,36.43,0,0,1-2,12L42,21.56a12.7,12.7,0,0,0-.71,4.18V47.82a2.23,2.23,0,0,0,2.24,2.23h1.3A2.23,2.23,0,0,1,42.6,47.82Z"/><g id="Group_3323-3" data-name="Group 3323"><path id="Path_20965-3" data-name="Path 20965" class="cls-1" d="M50,4H45a.65.65,0,0,1-.64-.65h0A.64.64,0,0,1,45,2.7H50a.65.65,0,0,1,.65.64h0A.65.65,0,0,1,50,4Z"/><rect id="Rectangle_1269-3" data-name="Rectangle 1269" class="cls-1" x="44.82" y="1.65" width="5.37" height="1.92"/><path id="Rectangle_1270-3" data-name="Rectangle 1270" class="cls-1" d="M45.77,0h3.47a1.39,1.39,0,0,1,1.39,1.39h0a.55.55,0,0,1-.55.54H44.94a.54.54,0,0,1-.55-.54h0A1.38,1.38,0,0,1,45.77,0Z"/></g></g><g id="Group_3324-4" data-name="Group 3324"><path id="Path_20963-4" data-name="Path 20963" class="cls-1" d="M70.15,3.51V2.94H64.86V3.5a36.45,36.45,0,0,1-2,12l-2.12,6.08A12.7,12.7,0,0,0,60,25.74V49.3a2.23,2.23,0,0,0,2.23,2.24H72.78A2.23,2.23,0,0,0,75,49.3V25.75a12.72,12.72,0,0,0-.71-4.19l-2.11-6A36.38,36.38,0,0,1,70.15,3.51Z"/><path id="Path_20964-4" data-name="Path 20964" class="cls-2" d="M62.6,47.82V25.74a12.7,12.7,0,0,1,.71-4.18l2.13-6.08c1.34-3.85,1.28-7.9,1.28-12V2.94h-.56v.57a36.43,36.43,0,0,1-2,12L62,21.56a12.7,12.7,0,0,0-.71,4.18V47.82a2.23,2.23,0,0,0,2.24,2.23h1.3A2.23,2.23,0,0,1,62.6,47.82Z"/><g id="Group_3323-4" data-name="Group 3323"><path id="Path_20965-4" data-name="Path 20965" class="cls-1" d="M70,4H65a.65.65,0,0,1-.64-.65h0A.64.64,0,0,1,65,2.7h5a.65.65,0,0,1,.65.64h0A.65.65,0,0,1,70,4Z"/><rect id="Rectangle_1269-4" data-name="Rectangle 1269" class="cls-1" x="64.82" y="1.65" width="5.37" height="1.92"/><path id="Rectangle_1270-4" data-name="Rectangle 1270" class="cls-1" d="M65.77,0h3.47a1.39,1.39,0,0,1,1.39,1.39h0a.55.55,0,0,1-.55.54H64.94a.54.54,0,0,1-.55-.54h0A1.38,1.38,0,0,1,65.77,0Z"/></g></g><g id="Group_3324-5" data-name="Group 3324"><path id="Path_20963-5" data-name="Path 20963" class="cls-1" d="M90.15,3.51V2.94H84.86V3.5a36.45,36.45,0,0,1-2,12l-2.12,6.08A12.7,12.7,0,0,0,80,25.74V49.3a2.23,2.23,0,0,0,2.23,2.24H92.78A2.23,2.23,0,0,0,95,49.3V25.75a12.72,12.72,0,0,0-.71-4.19l-2.11-6A36.38,36.38,0,0,1,90.15,3.51Z"/><path id="Path_20964-5" data-name="Path 20964" class="cls-2" d="M82.6,47.82V25.74a12.7,12.7,0,0,1,.71-4.18l2.13-6.08c1.34-3.85,1.28-7.9,1.28-12V2.94h-.56v.57a36.43,36.43,0,0,1-2,12L82,21.56a12.7,12.7,0,0,0-.71,4.18V47.82a2.23,2.23,0,0,0,2.24,2.23h1.3A2.23,2.23,0,0,1,82.6,47.82Z"/><g id="Group_3323-5" data-name="Group 3323"><path id="Path_20965-5" data-name="Path 20965" class="cls-1" d="M90,4H85a.65.65,0,0,1-.64-.65h0A.64.64,0,0,1,85,2.7h5a.65.65,0,0,1,.65.64h0A.65.65,0,0,1,90,4Z"/><rect id="Rectangle_1269-5" data-name="Rectangle 1269" class="cls-1" x="84.82" y="1.65" width="5.37" height="1.92"/><path id="Rectangle_1270-5" data-name="Rectangle 1270" class="cls-1" d="M85.77,0h3.47a1.39,1.39,0,0,1,1.39,1.39h0a.55.55,0,0,1-.55.54H84.94a.54.54,0,0,1-.55-.54h0A1.38,1.38,0,0,1,85.77,0Z"/></g></g></g></g></svg>