<svg xmlns="http://www.w3.org/2000/svg" viewBox="0 0 75.04 100.22"><defs><style>.cls-1{fill:#163d50;}.cls-2{fill:#fff;}</style></defs><g id="圖層_2" data-name="圖層 2"><g id="圖層_1-2" data-name="圖層 1"><rect class="cls-1" y="0.13" width="74.92" height="100.1"/><g id="圖層_2-2" data-name="圖層 2"><g id="_0-ori" data-name=" 0-ori"><path id="bg-deco" class="cls-2" d="M68.12,70.25a.59.59,0,0,1,.33-.53A13,13,0,0,0,74,64.61a.63.63,0,0,1,.84-.23.61.61,0,0,1,.22.23h0v2.14c-.19-.25-.38-.49-.55-.75a14.18,14.18,0,0,1-4.4,4.15,11.12,11.12,0,0,1,3.2,2.36A10.87,10.87,0,0,1,74.49,74c.17-.25.36-.5.55-.73V75.4h0a.62.62,0,0,1-.85.21A.7.7,0,0,1,74,75.4a10.94,10.94,0,0,0-1.56-2.09,9.93,9.93,0,0,0-3.89-2.54.6.6,0,0,1-.39-.52Zm-7.38,5.16a5,5,0,0,0-.41,7.06l.12.13a4.35,4.35,0,0,0,6,.24,3.73,3.73,0,0,0,1.16-2.3,2.48,2.48,0,0,0-1.37-2.86,1.14,1.14,0,0,0-.81.07,1.1,1.1,0,0,0-.52.62,1,1,0,0,0,.08.79,1.12,1.12,0,0,0,.63.5,1,1,0,0,0,.76-.06,2.21,2.21,0,0,1,0,.81,2.57,2.57,0,0,1-.7,1.59,3.12,3.12,0,0,1-4.34-.17,3.87,3.87,0,0,1,.16-5.46l.06-.06a5.24,5.24,0,0,1,7.27.28,6.75,6.75,0,0,1,1.75,5.7,8,8,0,0,1-7.67,6.42A12.07,12.07,0,0,1,53.75,84a.6.6,0,0,0-.71-.2.62.62,0,0,0-.34.53v.16a22.23,22.23,0,0,0,9.87,12.82.62.62,0,0,0,.84-.19.58.58,0,0,0-.18-.81h0a21.18,21.18,0,0,1-8.4-9.53A12.87,12.87,0,0,0,63,89.86a9.18,9.18,0,0,0,8.84-7.43,8,8,0,0,0-2-6.67A6.47,6.47,0,0,0,60.74,75.41ZM25.94,53.75a.59.59,0,0,0,.21-.81h0a.62.62,0,0,0-.84-.19,22.2,22.2,0,0,0-9.87,12.82v.16a.62.62,0,0,0,.34.53.6.6,0,0,0,.75-.18,12,12,0,0,1,9.16-4.7,8,8,0,0,1,7.66,6.42,6.71,6.71,0,0,1-1.74,5.7,5.23,5.23,0,0,1-7.27.28A3.84,3.84,0,0,1,24,68.35l.09-.1a3.14,3.14,0,0,1,4.35-.17,2.73,2.73,0,0,1,.77,1.56,2.21,2.21,0,0,1,0,.81,1,1,0,0,0-1.47,1.23,1.1,1.1,0,0,0,.51.61,1,1,0,0,0,.81.08c1-.29,1.54-1.47,1.38-2.86a3.76,3.76,0,0,0-1.15-2.3,4.36,4.36,0,0,0-6.06.24,5,5,0,0,0,.16,7.07l.13.12a6.44,6.44,0,0,0,9-.35,7.85,7.85,0,0,0,2-6.67,9.17,9.17,0,0,0-8.83-7.43,12.87,12.87,0,0,0-8.15,3.09A21.13,21.13,0,0,1,25.94,53.75ZM74.49,24.27a.62.62,0,0,0-.53.3,10.94,10.94,0,0,1-1.56,2.09,9.93,9.93,0,0,1-3.89,2.54.6.6,0,0,0-.39.52h0a.64.64,0,0,0,.33.54A12.89,12.89,0,0,1,74,35.37a.63.63,0,0,0,.86.21.58.58,0,0,0,.2-.21h0V33.22c-.19.25-.38.49-.55.75a14.18,14.18,0,0,0-4.4-4.15,10.63,10.63,0,0,0,3.2-2.36A10.61,10.61,0,0,0,74.49,26c.17.25.36.5.55.74V24.6h0A.57.57,0,0,0,74.49,24.27Zm-10,26.25A13,13,0,0,0,59.23,56a.59.59,0,0,1-.48.32.61.61,0,0,1-.54-.23,26.28,26.28,0,0,0-5.92-5.56.58.58,0,0,1-.18-.81.55.55,0,0,1,.18-.19A25.93,25.93,0,0,0,58.21,44a.63.63,0,0,1,.54-.23.58.58,0,0,1,.48.33,13,13,0,0,0,5.25,5.43.6.6,0,0,1,.14.85.62.62,0,0,1-.14.14ZM63,50a14.32,14.32,0,0,1-4.42-4.61A26.72,26.72,0,0,1,53.67,50a27.29,27.29,0,0,1,4.93,4.61A14.18,14.18,0,0,1,63,50ZM40,67.62a8.66,8.66,0,0,0-.09,1.25A7.92,7.92,0,0,0,42,74.29a6.45,6.45,0,0,0,9,.35,5,5,0,0,0,.42-7.06l-.13-.14a4.37,4.37,0,0,0-6-.23A3.7,3.7,0,0,0,44,69.51c-.16,1.4.4,2.57,1.37,2.86a1.08,1.08,0,0,0,1.33-.69,1,1,0,0,0-.08-.79,1.06,1.06,0,0,0-.63-.5,1,1,0,0,0-.76.06,2.68,2.68,0,0,1,0-.8A2.61,2.61,0,0,1,46,68.08a3.12,3.12,0,0,1,4.34.17,3.84,3.84,0,0,1-.14,5.44l-.09.08a5.15,5.15,0,0,1-3.69,1.33,5.24,5.24,0,0,1-3.58-1.61,6.84,6.84,0,0,1-1.74-5.7,8,8,0,0,1,7.67-6.42A12,12,0,0,1,58,66.07a.62.62,0,0,0,.84.16.6.6,0,0,0,.23-.67,22.19,22.19,0,0,0-9.87-12.82.62.62,0,0,0-.84.19.59.59,0,0,0,.17.8l0,0a21.06,21.06,0,0,1,8.4,9.53,12.82,12.82,0,0,0-8.15-3.09A9.19,9.19,0,0,0,40,67.62ZM59.44,99.56A26.06,26.06,0,0,1,53.52,94a.61.61,0,0,0-.54-.23.6.6,0,0,0-.48.33,12.9,12.9,0,0,1-5.25,5.43.62.62,0,0,0-.31.47h1.84a13.94,13.94,0,0,0,4.35-4.56A26.88,26.88,0,0,0,58,100h1.69A.59.59,0,0,0,59.44,99.56ZM6.36,70.28A.54.54,0,0,0,6,69.72,13,13,0,0,1,.52,64.61a.6.6,0,0,0-.48-.3v1.8a14.2,14.2,0,0,0,4.35,4.07,11.25,11.25,0,0,0-3.2,2.36A12.52,12.52,0,0,0,0,74v1.78a.57.57,0,0,0,.47-.3A12.06,12.06,0,0,1,2,73.34,9.89,9.89,0,0,1,6,70.8.57.57,0,0,0,6.36,70.28ZM74.49,88.91a.61.61,0,0,0-.6.49c-.88,4.91-3.37,8.22-7.59,10.11A.61.61,0,0,0,66,100h2a13.26,13.26,0,0,0,6.5-8c.16.51.35,1,.55,1.47V89.25A.6.6,0,0,0,74.49,88.91ZM31.2,80.34a.63.63,0,0,1-.34-.54h0a.61.61,0,0,1,.4-.52,9.93,9.93,0,0,0,3.89-2.54,11.72,11.72,0,0,0,1.56-2.09.63.63,0,0,1,.86-.21.58.58,0,0,1,.2.21,11.37,11.37,0,0,0,1.56,2.09,9.89,9.89,0,0,0,3.89,2.54.57.57,0,0,1,.39.52.55.55,0,0,1-.33.57,13.1,13.1,0,0,0-5.51,5.1.62.62,0,0,1-.83.23.72.72,0,0,1-.23-.23A12.94,12.94,0,0,0,31.2,80.34Zm1.64-.47A14.23,14.23,0,0,1,37.24,84a14.06,14.06,0,0,1,4.4-4.15,11.25,11.25,0,0,1-3.2-2.36A12.41,12.41,0,0,1,37.24,76,10.2,10.2,0,0,1,36,77.51,11.12,11.12,0,0,1,32.84,79.87ZM8.18,99.51C4,97.62,1.47,94.31.58,89.4A.58.58,0,0,0,0,88.91v3.28A13.34,13.34,0,0,0,6.49,100h2A.54.54,0,0,0,8.18,99.51Zm19.05,0A13,13,0,0,1,22,94.08a.58.58,0,0,0-.48-.33A.65.65,0,0,0,21,94,25.69,25.69,0,0,1,15,99.56a.63.63,0,0,0-.26.44h1.71a27.23,27.23,0,0,0,4.85-4.56A14.29,14.29,0,0,0,25.7,100h1.81a.56.56,0,0,0-.28-.47ZM21.82,28.9a5,5,0,0,0,1.38,3.66,4.37,4.37,0,0,0,6.05.24,3.75,3.75,0,0,0,1.16-2.31A2.47,2.47,0,0,0,29,27.63a1.07,1.07,0,0,0-.8.08,1,1,0,0,0,1,1.84,2.58,2.58,0,0,1-.75,2.37,3.12,3.12,0,0,1-4.34-.17,3.84,3.84,0,0,1,.13-5.43l.09-.09A5.17,5.17,0,0,1,28,24.9a5.1,5.1,0,0,1,3.57,1.61,6.7,6.7,0,0,1,1.74,5.7,8,8,0,0,1-7.66,6.42,12,12,0,0,1-9.16-4.7.6.6,0,0,0-.75-.18.62.62,0,0,0-.34.53v.16a22.2,22.2,0,0,0,9.87,12.82.62.62,0,0,0,.84-.19.58.58,0,0,0-.18-.81h0a21.18,21.18,0,0,1-8.4-9.53,12.87,12.87,0,0,0,8.15,3.09,9.17,9.17,0,0,0,8.83-7.43,7.85,7.85,0,0,0-2-6.67,6.44,6.44,0,0,0-9-.35A5,5,0,0,0,21.82,28.9Zm9-8.67h0a.59.59,0,0,1,.34-.53,13,13,0,0,0,5.51-5.11.63.63,0,0,1,.84-.23.61.61,0,0,1,.22.23,13,13,0,0,0,5.51,5.11.51.51,0,0,1,.33.56.57.57,0,0,1-.39.52,10.07,10.07,0,0,0-3.89,2.54,11.37,11.37,0,0,0-1.56,2.09.62.62,0,0,1-.85.21.7.7,0,0,1-.21-.21,11.72,11.72,0,0,0-1.56-2.09,10,10,0,0,0-3.89-2.54.59.59,0,0,1-.36-.55Zm2-.1A11.21,11.21,0,0,1,36,22.49,12.42,12.42,0,0,1,37.24,24a13.15,13.15,0,0,1,1.2-1.48,11.25,11.25,0,0,1,3.2-2.36A14.1,14.1,0,0,1,37.24,16a14.23,14.23,0,0,1-4.4,4.13ZM15,.44A25.8,25.8,0,0,1,21,6a.65.65,0,0,0,.55.23A.59.59,0,0,0,22,5.91,12.93,12.93,0,0,1,27.23.47a.55.55,0,0,0,.3-.47H25.7a14.39,14.39,0,0,0-4.36,4.56A27.23,27.23,0,0,0,16.49,0H14.78A.63.63,0,0,0,15,.44ZM45.78,50a.61.61,0,0,1-.35.54c-4.22,1.89-6.71,5.2-7.59,10.11a.6.6,0,0,1-.6.5.61.61,0,0,1-.6-.5c-.88-4.91-3.37-8.22-7.59-10.11a.6.6,0,0,1-.3-.78.62.62,0,0,1,.3-.3c4.22-1.89,6.71-5.2,7.59-10.11a.61.61,0,0,1,1.2,0c.88,4.91,3.37,8.22,7.59,10.11A.61.61,0,0,1,45.78,50Zm-2,0a13.35,13.35,0,0,1-6.59-8h0a13.29,13.29,0,0,1-6.59,8,13.29,13.29,0,0,1,6.59,8h0a13.34,13.34,0,0,1,6.64-8Zm-4-18.87a8.66,8.66,0,0,0,.09,1.25,9.19,9.19,0,0,0,8.84,7.43,12.82,12.82,0,0,0,8.15-3.09,21.06,21.06,0,0,1-8.4,9.53.59.59,0,0,0-.2.81h0a.62.62,0,0,0,.84.19A22.16,22.16,0,0,0,59,34.44a.6.6,0,0,0-.4-.75.62.62,0,0,0-.67.24,12,12,0,0,1-9.16,4.7,8,8,0,0,1-7.67-6.42,6.81,6.81,0,0,1,1.74-5.7,5.23,5.23,0,0,1,7.27-.28,3.83,3.83,0,0,1,.34,5.41l-.11.11a3.14,3.14,0,0,1-4.35.17,2.61,2.61,0,0,1-.74-2.37,1.09,1.09,0,0,0,1.54-1.12,1,1,0,0,0-.59-.72,1.09,1.09,0,0,0-.81-.08c-1,.29-1.53,1.47-1.37,2.86a3.76,3.76,0,0,0,1.15,2.3,4.36,4.36,0,0,0,6.06-.24A5.07,5.07,0,0,0,51,25.36a6.45,6.45,0,0,0-9,.35,7.92,7.92,0,0,0-2.18,5.42ZM11.28,3.7a21.08,21.08,0,0,1,8.41,9.53,12.82,12.82,0,0,0-8.15-3.09A9.19,9.19,0,0,0,2.7,17.57a8.66,8.66,0,0,0-.09,1.25,7.92,7.92,0,0,0,2.14,5.42,6.47,6.47,0,0,0,9,.35,5,5,0,0,0,.41-7.06L14,17.4a4.28,4.28,0,0,0-3-1.35A4.33,4.33,0,0,0,8,17.16a3.83,3.83,0,0,0-1.16,2.3,2.51,2.51,0,0,0,1.39,2.86,1,1,0,0,0,1.29-.6.29.29,0,0,0,0-.09,1,1,0,0,0-.62-1.27l-.08,0A1,1,0,0,0,8,20.4,3,3,0,0,1,8.79,18a3.14,3.14,0,0,1,4.35.17A3.84,3.84,0,0,1,13,23.61l-.09.08a5.23,5.23,0,0,1-7.27-.28,6.78,6.78,0,0,1-1.74-5.7,8,8,0,0,1,7.66-6.42A12,12,0,0,1,20.72,16a.62.62,0,0,0,.76.18.58.58,0,0,0,.31-.69,22.06,22.06,0,0,0-9.86-12.8.62.62,0,0,0-.84.19.59.59,0,0,0,.19.81ZM0,11.09a.58.58,0,0,0,.54-.49C1.47,5.69,4,2.38,8.18.49A.54.54,0,0,0,8.49,0h-2A13.34,13.34,0,0,0,0,7.81ZM4.75,75.76a7.92,7.92,0,0,0-2.14,5.42,8.66,8.66,0,0,0,.09,1.25,9.19,9.19,0,0,0,8.84,7.43,12.82,12.82,0,0,0,8.15-3.09,21.08,21.08,0,0,1-8.41,9.53.59.59,0,0,0-.19.81h0a.61.61,0,0,0,.83.19,22,22,0,0,0,9.87-12.82.58.58,0,0,0-.31-.69.62.62,0,0,0-.76.18,12,12,0,0,1-9.16,4.7A8,8,0,0,1,3.9,82.26a6.81,6.81,0,0,1,1.74-5.7,5.24,5.24,0,0,1,7.27-.28,3.85,3.85,0,0,1,.31,5.44l-.08.08a3.15,3.15,0,0,1-4.35.2A2.66,2.66,0,0,1,8,80.41a2.75,2.75,0,0,1,0-.81,1,1,0,0,0,.76.06,1,1,0,0,0,.7-1.29A1,1,0,0,0,9,77.75a1.13,1.13,0,0,0-.81-.07c-1,.29-1.54,1.46-1.38,2.86A3.83,3.83,0,0,0,8,82.84a4.36,4.36,0,0,0,6-.24,5,5,0,0,0-.16-7.07l-.13-.12A6.47,6.47,0,0,0,4.75,75.76ZM22.19,50.49a26.06,26.06,0,0,0-5.92,5.56.59.59,0,0,1-.54.23.63.63,0,0,1-.49-.28A12.74,12.74,0,0,0,10,50.52.63.63,0,0,1,9.68,50a.61.61,0,0,1,.31-.52,12.73,12.73,0,0,0,5.25-5.43.61.61,0,0,1,.49-.33.62.62,0,0,1,.54.23,26.06,26.06,0,0,0,5.92,5.56.58.58,0,0,1,.22.82A.29.29,0,0,1,22.19,50.49ZM20.8,50a27.91,27.91,0,0,1-4.92-4.61A14.14,14.14,0,0,1,11.45,50a14.14,14.14,0,0,1,4.43,4.61A27.91,27.91,0,0,1,20.8,50ZM6,29.2A9.89,9.89,0,0,1,2,26.66,12.6,12.6,0,0,1,.51,24.57a.57.57,0,0,0-.47-.3v1.78a13.09,13.09,0,0,0,1.15,1.41,10.76,10.76,0,0,0,3.2,2.36A14.36,14.36,0,0,0,0,33.9v1.79a.59.59,0,0,0,.48-.29A12.85,12.85,0,0,1,6,30.29a.59.59,0,0,0,.28-.79A.61.61,0,0,0,6,29.2ZM47.25.47A12.81,12.81,0,0,1,52.5,5.91a.62.62,0,0,0,.48.32A.61.61,0,0,0,53.52,6,26.49,26.49,0,0,1,59.44.44.55.55,0,0,0,59.68,0H58a27.64,27.64,0,0,0-4.86,4.56A14.09,14.09,0,0,0,48.78,0H46.94A.62.62,0,0,0,47.25.47Zm5.43,15v.16a.62.62,0,0,0,.34.53.6.6,0,0,0,.75-.18,12.06,12.06,0,0,1,9.16-4.7A8,8,0,0,1,70.6,17.7a6.75,6.75,0,0,1-1.75,5.7A5.1,5.1,0,0,1,65.28,25a5.19,5.19,0,0,1-3.7-1.33,3.86,3.86,0,0,1-.28-5.45l.06-.07A3.12,3.12,0,0,1,65.69,18a2.56,2.56,0,0,1,.77,1.55,2.21,2.21,0,0,1,0,.81,1,1,0,0,0-1.4.48,1.08,1.08,0,0,0-.07.75,1.06,1.06,0,0,0,1.33.69c1-.29,1.53-1.46,1.37-2.86a3.76,3.76,0,0,0-1.15-2.3,4.38,4.38,0,0,0-6.08.24,5,5,0,0,0,.16,7.07l.13.12a6.45,6.45,0,0,0,9-.35,7.89,7.89,0,0,0,2-6.67,9.2,9.2,0,0,0-8.84-7.43,12.87,12.87,0,0,0-8.15,3.09,21.18,21.18,0,0,1,8.4-9.53.59.59,0,0,0,.21-.81h0a.62.62,0,0,0-.84-.19,22.23,22.23,0,0,0-9.84,12.86ZM66.3.49C70.52,2.38,73,5.69,73.89,10.6a.61.61,0,0,0,.6.49.6.6,0,0,0,.55-.34V6.5c-.2.47-.39,1-.55,1.47A13.28,13.28,0,0,0,68,0H66A.59.59,0,0,0,66.3.49Z"/></g></g></g></g></svg>