<svg xmlns="http://www.w3.org/2000/svg" viewBox="0 0 448 512"><defs><style>.cls-1{fill:#b69564;}</style></defs><g id="圖層_2" data-name="圖層 2"><g id="圖層_1-2" data-name="圖層 1"><path class="cls-1" d="M448,384c-28,0-31.26-32-74.5-32-43.43,0-46.83,32-74.75,32-27.7,0-31.45-32-74.75-32-42.84,0-47.22,32-74.5,32-28.15,0-31.2-32-74.75-32S28.1,384,0,384V304a48,48,0,0,1,48-48H64V112h64V256h64V112h64V256h64V112h64V256h16a48,48,0,0,1,48,48Zm0,128H0V416c43.36,0,46.77-32,74.75-32S106,416,149.5,416c42.84,0,47.22-32,74.5-32,28.15,0,31.2,32,74.75,32,43.36,0,46.77-32,74.75-32,27.49,0,31.25,32,74.5,32ZM96,96A31.9,31.9,0,0,1,64,64C64,33,96,41,96,0c12,0,32,29.5,32,56S113.75,96,96,96Zm128,0a31.9,31.9,0,0,1-32-32c0-31,32-23,32-64,12,0,32,29.5,32,56S241.75,96,224,96Zm128,0a31.9,31.9,0,0,1-32-32c0-31,32-23,32-64,12,0,32,29.5,32,56S369.75,96,352,96Z"/></g></g></svg>