<svg xmlns="http://www.w3.org/2000/svg" viewBox="0 0 255.56 149.31"><defs><style>.cls-1{fill:#b69564;fill-rule:evenodd;opacity:0.15;isolation:isolate;}</style></defs><g id="圖層_2" data-name="圖層 2"><g id="_0-ui_kits" data-name="0-ui_kits"><path id="cloud1" class="cls-1" d="M44.48,79.45c-11.32-4.57-23.1,2.52-23.9,14.1-8.28-2.64-18.41,3.78-20.33,12S7,117.72,15.35,116.13A13,13,0,0,1,20,104.48c3.91-3.25,9.4-2.32,10.4,2.25C31.3,111,27.07,114,25,112.49c-.53-.4-.79-1.13.87-1.72a2.57,2.57,0,0,0,.46-4.44c-1.52-1.06-4.7-.73-6.82,1.53-3.91,4.1-3.05,10.39-.27,14.16a15.13,15.13,0,0,0,16.09,5.57c-3.77-11.92,6.42-28.94,24-23.24a12.69,12.69,0,0,1,2.78-10.06c-9.66-1.46-14.5-7.42-17.61-14.83Zm144,.93C181.81,81.7,177,88.46,178.69,97c1.13,5.56,8.15,9.86,15,7.55,5.89-2,6.35-9.74,2.91-11.79a4.34,4.34,0,0,0-5.83.86c-.86,1.26.46,1.86,1.06,1.19a2.39,2.39,0,0,1,3.37.23,2.09,2.09,0,0,1,.14.17c1.72,2.25.07,6.42-3.44,7.29-4.24.92-10.2-1.33-10.8-7.09-.92-8.08,5.7-12.11,9-12.11,2.18-7.69,11.45-12.59,16.69-13.25,10.66-1.39,17.94,4.9,20.46,12.25a14.3,14.3,0,0,1-4.57,15.49c-.6.47-.33,1.66.8,1.19a10.81,10.81,0,0,0,4-3.37c3.51-3.12,7.48-3,10.86-2.25,6.29,1.32,7.41,8.87,5.36,11.92,5.76-2.12,13.11,2.71,11.65,13.17a18.71,18.71,0,0,1-11.92,15c-7.41,2.65-19.2-.86-20.72-7.21-1.13-4.84-.6-11.26,4.77-14,2.78-1.39,7.74-1.13,9.73,3,1.65,3.38-1.39,7.75-4,5.3a.83.83,0,0,0-1.2,1.12c.6,1.2,3.18,2.06,5.37.73,2.71-1.59,3.37-7.15.92-10-3.9-4.5-11.18-4.37-15.22-.33s-4,10.6-3.51,14.5c.8,6.36-7,12.52-25.36,10.79-5.36-.52-13.71-3.5-15.69-7.41.33-2.65-.2-6.22-1.59-8a9.48,9.48,0,0,0-11.66-2.51A8,8,0,0,0,162.15,130c1.58,2.91,6.22,2.85,7.08.27.66-1.73-.6-1.79-.93-1.06-.53,1.32-3.31,1.19-4-.53a5,5,0,0,1,2.76-6.46,5.1,5.1,0,0,1,1.08-.3c2.91-.53,6.89,1.73,7,5.57.07,5.62-3.31,11.25-10.52,14a32.92,32.92,0,0,1-18.08,1c-9-2-13.25-10.6-22.12-16.43-2.51-1.65-6.82-2-9.13-1.58-1.86.4-1.33,2.25.33,2,4.3-.47,9.2.59,14.17,6.35A44.64,44.64,0,0,0,144,144.07c3.18,1.53,14.11,2.52,19.6.86-7.08,7-28.21,5.5-49-3.9-13.9-6.36-29.66-16-47.34-8.48.93-3.37,1.72-8.21-.53-10.86-2.91-3.37-6.75-3.7-9.4-2.38a4.84,4.84,0,0,0-2,7.28c.6.73,1.46-.2,1.2-1.06-.73-2.51,2.25-4.37,5.62-3.31,3.12,1,5,6.76,2.19,11.46-3.38,5.62-12.78,7.48-19.6,3.24-8.54-5.3-10.26-16.88-5.36-24.3,5.56-8.41,15.89-8.14,22.71-5.49-1.33-5-.66-9.8,2.71-13.11,5.76-5.63,17.68-4.44,21.79,3,1.78,3.25,2.12,9,1.32,11.32,1.92-2.84,7.55-4.5,11-1.39,2.45,2.19,1.59,6.29.86,7.68-.8,1.59.6,2.78,1.79,1.53,2-2.19,2.32-9,.13-11.52a9.78,9.78,0,0,0-10.06-2.32c.33-10.13,4.51-21.32,15.89-24,12.65-2.91,22.58,5,24,13.84.93,6.29-3.64,15.89-14.3,15.16-3.18-.2-6.62-3.84-5.89-7.41.59-3,5-3.38,5.43-.2.26,1.79,2.11,1.85,2.38-.27a4.59,4.59,0,0,0-4-5c-3.65-.47-6.29,1.45-6.89,5.76-.4,3,2.12,9.47,9.87,9.8,9.2.4,16.95-5,16.55-17.28-.46-11.92-12.85-21.13-27.55-17.62C94.88,78.13,90.57,88.59,89.12,96c-4-7.34-13.78-8.34-18.81-6.82,5-2.38,7.35-12.11,2.72-15.76-3.78-3-7.82-2.78-10.6.73-1.59,2-1.85,6.23.53,7.48,1.06.53,2-.79,1.13-1.39s-.86-2.31-.53-3a4,4,0,0,1,5.76-1.85c3.24,1.58,3.51,7.08,1.79,9.79C68.33,89.65,63,92.23,57,89.51a17.36,17.36,0,0,1-9.27-11.12C44.81,66.94,50.18,57.27,56,52s15.36-8,19-4c4.17-3.44,11.92.27,11.92,5.23,1.45-2.58,5.83-5.16,9.73-3.57,3,1.25,4,4.43,4,7.08S98.25,62.17,96,61.57a2,2,0,0,1-1.37-2.44s0-.09.05-.14a1.64,1.64,0,0,1,1.72-1c.66.06.8-1.13-.07-1.46a3,3,0,0,0-3.18,1.06,4.45,4.45,0,0,0,1.58,6.08l.28.15c3.24,1.52,7.61-.73,8.54-5.37.93-4.83-.2-9.33-5.29-11.52-2.85-1.26-8.22-1.26-10.6,1.86C86.6,43.17,79.58,42.11,76.07,44a19.3,19.3,0,0,1-2-12.25c1-7.75,8.34-15,17.28-16.42,7-1.13,15.1,2.71,17.81,8.61,2.85,6.09,2.19,14-2.51,15.76-5.56,2.05-9.34-2.39-8.15-6.49.4-1.53,2.58-2.92,3.64-2.59a.92.92,0,0,0,.67-1.72c-1.79-.92-5,.07-6.36,3.45-.86,2-.93,7.61,3.84,9.86,3.58,1.72,8.81.53,11.06-3,2.91-4.57,2.12-11.78.13-15.95a23,23,0,0,0-3.38-5C110.83,8,119.57-.07,136,0c18.21.07,32,19.86,21.13,33.77-2.85-1.26-9.67,1-11.39,6.16-1.26,3.9-.86,7.61.13,9.6.4.86,2,.46,1.52-.6a9.26,9.26,0,0,1,1.33-8.54c2.84-3.84,8.87-4.17,10.86-1.39.26-4.7,4.63-8.15,10.06-7.75,7.48.53,13.77,3.64,16,10.73S182.47,55.75,176.45,53c.2,4.56-5,10-10.4,8.8a7.64,7.64,0,0,1-6.16-8.21c.2-2.71,3-5.69,5.43-5.3a3,3,0,0,1,2.19,4.31c-.4.53.73,1.59,1.79.66s1.65-4.3.13-6a6.41,6.41,0,0,0-9.07-.33,10.58,10.58,0,0,0-3.18,8.81c.2,4.3,3,8.47,8.87,9.27,7.42.93,12.19-4.77,12-8.87,3.64,1,8-1.92,10.13-5.5,9.67-.66,17.28,6.29,18.14,16.69-7,.93-15.82,6.62-17.94,13Z"/></g></g></svg>