<svg xmlns="http://www.w3.org/2000/svg" viewBox="0 0 299.37 191.32"><defs><style>.cls-1{fill:#b69564;fill-rule:evenodd;opacity:0.15;isolation:isolate;}</style></defs><g id="圖層_2" data-name="圖層 2"><g id="_0-ui_kits" data-name="0-ui_kits"><path id="cloud2" class="cls-1" d="M96.43,78.66C93.09,74.18,95,65.22,98.7,60.58a13.37,13.37,0,0,1,18.76-2.36l.21.17C110.51,33.47,121,14.51,144,4c22.47-10.26,49.82,1.3,52.83,10.83,10.51-1.8,22.64,11.72,13.84,25.47,8.14-.24,15.55,5.62,13.27,17.1-1.79,9-10.09,17-24.74,17.42-14.82.49-25.81-6-28-15s4.56-17.34,12.95-16.28c6.51.9,9,6,7.65,11.4-.49,1.79,2.2,1.14,2.68-.08,1.88-5.62-.89-12.13-8.54-13.76-9.77-2.12-19.45,5.21-18.48,17.58,1,11,14.08,19.86,29.8,20.6S221.22,72.06,224,69c10-3.91,26.62,6.67,23.12,20.27-2.12.41-5,2.85-6.52,5.29-.89,1.55-2.36,5.78-1.3,8.14.57,1.3,2,.89,2-.25a11.33,11.33,0,0,1,2-6.18c5.21-6.76,14.17-8.39,22.39-5.62,4,1.38,8.22,5.62,7,9.28a14.62,14.62,0,0,0-11.64,5.7c-2.44,3.17-3.75,11.48,1.63,16.52,6,5.62,11.8,4.81,15.87,2.2,4.23-2.77,3.17-9.2-.25-10.5-1.79-.73-2.93.9-.89,2,2.69,1.54.65,7.65-4.88,7-4.64-.49-9.53-4.08-8.31-10.91,1.14-6.35,7.9-9.2,13.19-9,30.61.74,28.08,39.89-1,43.39,12.21-.65,17.58,12.46,13.76,22.79-4.56,12.46-19,18.89-33.13,13.52-5.46-2.12-10.91-7.74-11.48-14.82-3.58,1.87-6,.57-8.22-1.22-3.75,7.16-8.55,13-16.85,14.41-13.6,2.11-23.77-3.18-31.18-11.48-12.86-14.25-10.75-35.33,5.54-38.26,9.52-1.63,18.07,3.66,19.7,11.15a11.32,11.32,0,0,1-2.85,10c-2.77,2.61-11.24,2.28-12.54-2.93-.33-1.62-1.38-1.87-2-.48s.57,4.47,2.53,6c3.82,2.85,10.09,3.09,13.59,1,4.4-2.61,6.84-10.26,5.29-15.71-2.52-9-12.78-15.55-23.2-13.52-18.31,3.5-22.87,24.42-14.24,38.75-9.12,16.28-31.59,23.12-51.77,25.31-20.68,2.2-40.79-2.68-45.51-18.39-1.63-5.46,1.3-12.78,5.78-14.74,3.5-1.54,8.87-1,10.5,3.34.49,1.22-.08,3.42-1.54,3.83-1.06.4-.08,2.44,1.79,1.46,2.52-1.38,2.76-4.88,2-7-2-4.72-7.49-6.43-13.11-5-6.75,1.8-9.36,8.55-9.6,14.74-7.73,6.51-21.33,14.9-39.72,12.29-18-2.52-32.4-10.17-37.37-21.24-5.13-11.65-2.44-24,6.76-30a20,20,0,0,1,18.15-1.63c5.62,2.36,11.07,8.06,10.91,14.25-.16,3.74-2,7.57-5.78,8.38-2.36.49-5.37-.81-5.94-3.58-.25-1.55.81-3.26,2-3.34,2-.08.9-1.95.08-2.2a4.94,4.94,0,0,0-5.53,4c-.9,5.3,3.09,8.88,9.44,8.55,6-.33,9.61-5.7,9.77-10.91.32-9.2-6.27-17-14.57-19.54,5-9.93,16.44-14.08,25.15-11.8-1.14,1.79-1.55,8.22,1.71,12.62,5.45,7.08,12.62,7.32,18.07,4.88,6-2.77,7.08-10.5,5.21-13.68A5.84,5.84,0,0,0,68.67,115c-.9,1.14.24,2.77,1.22,2.12,2.93-1.95,6.35.41,5.29,5.13-1.3,5.86-9.36,6-13.59,3.42-7.33-4.4-6.35-12.13-3.1-16.77-3.5-8.14-.81-18.15,5.78-23.77,8.39-7.16,21.08-7.49,26.21-2.44C104,81.42,124,82.64,134,92.49c11.24,11.15,9.36,26.05-1,32.56,2.68,2.85,3.66,10.58.81,13.76-5.94,6.83-20,5.86-27.92,1.54-12-6.35-10.34-16.36-2-18.48,3.9-1,8.38.41,10.25,2.2,1.22,1.14,1.22,3.26.33,4.07-1.47,1.31.65,2,1.71,1.31,2-1.31,2.6-5.7-.65-8.31a14.8,14.8,0,0,0-16.29-1.54c-8.54,4.55-7.4,17.09,2.94,23.36,9.84,6,24.25,8.14,33.94-.73,4.64-4.32,5.45-12.21,2-16.12,9.28-5,14.57-24.42-.9-36.8C125.08,79.55,111.08,77.52,96.43,78.66Z"/></g></g></svg>