<svg xmlns="http://www.w3.org/2000/svg" viewBox="0 0 267.04 183.47"><defs><style>.cls-1{fill:#b69564;fill-rule:evenodd;opacity:0.14;isolation:isolate;}</style></defs><g id="圖層_2" data-name="圖層 2"><g id="_0-ui_kits" data-name="0-ui_kits"><path id="cloud3" class="cls-1" d="M26.48,118.48c.94-1,2.32-1.31,1.81,1.23-.58,3.05-6.61,4.58-10.1,2.25-4.87-3.19-5.88-10.46-2.61-15.11,3.19-4.43,14.67-7.41,22-1.67,5.52,4.29,6.47,11.7,5.67,17.51,5.67,1.16,9.15-.73,10.39-5.67-9.16-6.68-11.41-15.18-8.36-29.64-8.42-2.68-12.2-11-13.29-18.59-15.4,6.61-26.73,17.14-30.8,33C-1.49,112.52-.18,125,10.5,132.13c8.13,5.45,20.41,4.14,26.8-3.41,4.65-5.59,2.76-17-1.81-20.49S22.27,105,19.21,109.76c-1.81,2.76-1.67,6.46,1,8.35,1.75,1.31,4.79,1.74,6.25.36Zm118.61,23.46c9.37,1.52,18.82.72,23.83-1a42.94,42.94,0,0,0,9.8-4.65,40.34,40.34,0,0,0,12.43,11.55c9.58,6,20.7,7.19,31.3,8.28,10.17,1.09,20.42-1.09,30.37,1.09,8.71,1.89,14.89,8.36,14.16,17.22-.51,6.9-6.83,10.53-12.93,8.5-1.6-.58-2-2.25-.8-2.69,1.89-.65,3.78-.36,5-3.19,2-4.73-1.45-8.94-6.39-10.54-21.72-6.83-42.93,9.23-64.28,6.69-7.56-.88-16.05-5.59-18.82-8.72-3.05-4.14-5.67-8.72-9.15-12.57-4.14-4.65-9.81-7.7-14.53-9.95ZM56.62,120.36a47.1,47.1,0,0,0,18.09,6.83c-.44,3.63-2,5.74-5.09,5.81s-5.16-2-5.37-3.63c-.15-1.31-1.53-1.23-1.53.22a6.87,6.87,0,0,0,6.61,6.83c4.72.22,9.15-4.07,9.44-8.65,18.6-.5,26.37-5,36-18.08-.43,7.91,2,17.79,8,23.24,6.47,5.88,13.88,7.7,21.58,11.77,10.38,5.59,15.61,11,20.26,18.67,4.14,6.9,1.67,16-2.68,17.43-7.2,2.4-12.93-.73-15-5.3A2.07,2.07,0,0,1,150,173c2.69,2.62,5.09,3.85,8.43,2.18,2.61-1.3,3-6.39-1.24-9.51-14-10.1-31.52-11-54.18-10.24-11.05.36-20.42.58-29.86-1.53-13.37-3-26.59-10.1-21.86-26.59.94-3.27,3.48-6.32,5.3-6.9Zm125.3-94.72c8.86-1.37,15.4,9.67,10.24,16.78a51.23,51.23,0,0,0-9.44,5.38c-3.05-.51-5.81-1.31-6.54-4.07-.72-2.54,1.53-5.74,4.36-5.23a2.64,2.64,0,0,1,2.25,3,2,2,0,0,1-.07.35c-.22.66,1.16,1.09,1.67.15a4.3,4.3,0,0,0-1.84-5.79,4.22,4.22,0,0,0-1.5-.46c-4.72-.65-9,3-8,8.87.72,3.77,3.48,5.44,6.68,6.17a33,33,0,0,0-7.34,11.4c-2,4.94-3.85,12.28.22,19.33,2.54,4.57,9.3,6.75,14.24,6.1,4.58-.58,8.79-2.62,10.46-6.76,1.45-3.41,1-9.15-3.41-10.89-2.4-.95-5.59-.87-7.41,1.09a4.79,4.79,0,0,0-.88,4.72c.73,1.52,2.55,1.31,2.26.58a3,3,0,0,1,1-3.49c3.42-2,6.32,2,5.52,4.94-.79,3.34-4.57,6.76-8.06,6.83-4.79.07-9.52-2.61-11.19-6.54-2.32-5.37-1.3-11.62,1.31-16.56a35.14,35.14,0,0,1,18.67-16.64c13.58-5.09,27.6.51,34.94,7.19,9.88,9,14.45,32.62.73,40.68,2.9-1.38,12.35-5.3,18.16,2.47,2.47,3.19,1.81,11.18-1.24,16.34s-6.47,9.3-12.85,11.84c-8.21,3.34-16.13,1.67-21.21-2.76-3.35-2.83-2.4-10.53,1-12.57s5.74-1.16,7.12.51a4.57,4.57,0,0,1,.58,4.22c-.36,1,1.31,1.59,1.75.87,1.38-1.82,1-5.31-.22-6.83a8.46,8.46,0,0,0-11.19-1.31c-4.57,2.84-5,11.92-1.59,16.56,6.31,8.58,24.4,6.25,32.32,1.6,1.53,3.34,4.79,7.27,9.37,5.81a4.86,4.86,0,0,0,3.79-5.75,4.12,4.12,0,0,0-.23-.78c-.65-1.6-2.11-1.17-1.82.07a3.15,3.15,0,0,1-2.21,3.89,3.08,3.08,0,0,1-1.13.1c-3-.07-5.37-3.85-4.43-7.48.58-2.33,2.25-4.87,4.43-5.81,4.87-2,10.68,2,12.06,6.47,2.54,7.84-1.52,16.12-11.91,23.89A46.48,46.48,0,0,1,213.45,152c-13.58-2.9-24.19-8.06-32.54-19a15.65,15.65,0,0,0,4.5-9.15C186.65,113.53,176,109,169.94,113a7.59,7.59,0,0,0-1.89,10.56l.14.19c1.31,1.75,5.59,2.54,7.2,1.45,1.09-.72,1-2.54-.73-2a3.86,3.86,0,0,1-3.34-.58c-2.11-1.3-1.6-5.81,1.16-7,7-2.91,10.68,5.3,8.93,9.44C177.13,135.25,166.74,140,155.7,140c-17.65.15-35.74-4.5-36.83-26.66-.5-10.6,5.89-19.83,14.39-24.33,4.65-2.47,14.31-.94,15.11,7.63.29,3.41-2.47,9.08-7.63,8.57-2.47-.22-3-2.91-2.11-5.59.66-2-1.16-1.67-1.89-1.09-1.3,1.09-2,5.16-.5,7.48,2,3.34,8.86,3.42,12.13,1.09,5.44-3.85,6.46-13.73,2.76-18.74-3.93-5.23-12.72-6.47-19.25-3.7-16.71,7-18.82,29.2-34.07,35.73-12.35,5.38-28.84,4-41.91-4.72C47.18,109.83,44.13,97,48.63,86.3c-7.77-3.2-14-10.39-14-20.34,0-19.47,14.45-27.39,26.66-27.1,6.61.15,12.57,3.85,14.45,8.87,1.24,3.41.8,7.33-.58,11.11-1.67,4.5-5.16,8.64-9.73,10-5.16,1.6-11.55-.07-12.57-3.85-.87-3.05.36-7.62,4.29-8.2a4.58,4.58,0,0,1,5.3,3.34c.29,1.3,2,.94,2.18-.44.58-3.05-4-6.68-8.28-5.81s-8.07,6-6.47,11.77,8.79,8,14.53,7A19.46,19.46,0,0,0,79.93,59c1.6-5.45.58-10.46,3.27-15.4a18,18,0,0,1,22.23-8.43c5.3,1.89,13.29,8.86,13.95,15.76S115,63,110.15,63.85c-6.75,1.31-10.61-3.7-9.52-8.5A4.33,4.33,0,0,1,106.08,52c1.31.37,1.82-1.23.58-1.67a6.46,6.46,0,0,0-8.28,3C96,58.11,98.6,66.9,108,67.7c6.4.58,15.19-4.36,15-15.47-.07-9.08-7-16.63-16.78-20.27,1.6-13.65,12.21-23.39,26-28.62C159.26-6.9,183.16,8.06,181.92,25.64Z"/></g></g></svg>