<svg xmlns="http://www.w3.org/2000/svg" viewBox="0 0 786.85 655.98"><defs><style>.cls-1{fill:#b69564;}</style></defs><g id="圖層_2" data-name="圖層 2"><g id="_0-ori" data-name="0-ori"><g id="Group_4097" data-name="Group 4097"><path id="Path_28271" data-name="Path 28271" class="cls-1" d="M109,536.82c.64.15,6.9-16.13,7.51-17.6,2.66-6.45,5.22-13,7.53-19.55,8.26-23.63,17.18-47.07,25.24-70.86q11.67-34.43,23-69.06c-4.42-.9-8.84-1.87-13.26-2.78-.81-.17-1.64-.33-2.46-.48q-5.67,16-11.34,31.31c-10.73,29.08-20.93,54.74-31.17,78.49-2.12,4.92-4.39,9.86-6.58,14.62-3.39,7.37-6.89,15-9.89,22.61a32.49,32.49,0,0,0-2,16.69C96.7,527.49,101.35,535.11,109,536.82Z"/><path id="Path_28272" data-name="Path 28272" class="cls-1" d="M611.22,590.06c-97.12,15.12-89.7,19.39-89.7,19.39.24,7,80.68-7.85,91.33-10C667.35,588.43,668.47,581.27,611.22,590.06Z"/><path id="Path_28273" data-name="Path 28273" class="cls-1" d="M673.52,544c-7.32,1.67-14.52,4.2-22.45,6.59-7.73,2.32-15.41,4.8-23.22,6.88-15.27,4.07-30.8,7.88-46.39,10.54-16.69,2.84-32.65,4.21-49.66,5.49-7.27.55-14.56.94-21.84,1.27-7.79.36-15.12.47-23.82,1.46a2.93,2.93,0,0,0,.11.59c15.31,4,32.51,3.55,48.26,3.35,16-.21,32.22-2.31,48.06-4.91h0l.12,0,.13,0h0c15.8-2.79,31.76-6.16,47-11.28,14.82-5,31.09-10.17,44.15-18.93a.56.56,0,0,0,.14-.78A.57.57,0,0,0,673.52,544Z"/><path id="Path_28274" data-name="Path 28274" class="cls-1" d="M152.22,592.64c-56.56-17-56.45-9.59-3,9.23,10.45,3.7,89.58,30.1,90.82,23.06C240.06,624.93,248.16,621.67,152.22,592.64Z"/><path id="Path_28275" data-name="Path 28275" class="cls-1" d="M234.77,587.19c-17-3.7-32.93-7.35-49.38-12.58C170,569.72,154.89,563.67,140,557.4c-7.59-3.2-15-6.8-22.48-10.24-5.11-2.35-27.28-13.32-22.31-8.88,12,10.7,27.65,18.25,41.9,25.38,14.64,7.32,30.28,13,45.84,18h0l.13,0,.12,0h0c15.63,4.87,31.66,9.28,47.84,11.77C247,596,264.26,598.9,280.29,597a4,4,0,0,0,.2-.58c-8.65-2.23-16-3.38-23.85-4.85C249.33,590.19,242,588.78,234.77,587.19Z"/><path id="Path_28276" data-name="Path 28276" class="cls-1" d="M56.19,309.35a24.39,24.39,0,0,0,1.68-2.59c.43-.94.87-1.87,1.31-2.81,1-2.06,2-4,3.19-6a125,125,0,0,1,6.85-11,32.56,32.56,0,0,1,18.94-13.7,37.16,37.16,0,0,1,13-1.49,101.39,101.39,0,0,1,12.42,1.09,95.35,95.35,0,0,1,23.73,7,.22.22,0,0,0,.3-.09.23.23,0,0,0,0-.26c-5.62-7-14-10.16-22.66-11.6-9.09-1.52-19.06-2.17-27.87,1-4,1.44-7.1,3.95-10.28,6.68a60.51,60.51,0,0,0-8.5,8.88,62.14,62.14,0,0,0-7.31,12c-1,2.08-1.81,4.19-2.75,6.27-.51,1.14-1,2.27-1.5,3.41a22.6,22.6,0,0,0-.88,3.12.21.21,0,0,0,.18.22A.23.23,0,0,0,56.19,309.35Z"/><path id="Path_28277" data-name="Path 28277" class="cls-1" d="M398.68,58.39c1.44,4.2,6.05,21.2,19.37,22.2,8.09.6,21.28-9.43,9.37-36.95C403.9-10.68,330-9.46,343.16,20.93,352.44,42.41,390,33.1,398.68,58.39ZM374.08,5.32c41.87,9.53,54.66,55.44,47.09,64.12-2.23,2.57-5.48,2.44-8.23.06-8.53-7.37-3.14-22.36-23.7-33-9-4.63-19.14-6-28.31-10.11-19.63-8.79-16.17-27.77,13.16-21.1Z"/><path id="Path_28278" data-name="Path 28278" class="cls-1" d="M467.37,13.24c-12.66-6.91-37.22,13.86-26.45,27S485.49,23.14,467.37,13.24ZM459,16c18.08.42-3.86,23.3-11.87,19.24a1.31,1.31,0,0,0-.23-.24c-6.68-3.73,1.71-19.24,12.1-19Z"/><path id="Path_28279" data-name="Path 28279" class="cls-1" d="M439.65,88.1A9.87,9.87,0,0,0,451.44,94c4.21-1.2,7-4.93,10.18-7.67,8-6.88,26.09-1,35.84-13.78,4.91-6.42,5.82-25.24-19.13-23.9C449.86,50.18,435,76.79,439.65,88.1Zm40.64-33c5.24.42,13.55,3,11.33,9.94-3.53,11-24.68,5.55-36.64,16.59C436.15,99,442.85,52.11,480.29,55.09Z"/><path id="Path_28280" data-name="Path 28280" class="cls-1" d="M399.6,88.56c-5-2.19-10.66-3.25-16-1.93S373.56,92,372.32,97.3a16.74,16.74,0,0,0,1.29,10.32c5.08,11.77,18.8,24.57,32.56,22.73,11-1.48,20.22-14.6,10.16-28.49A38.89,38.89,0,0,0,399.6,88.56Zm5.67,33.91c-8,1.78-17.7-7.93-23.27-13.88-3.68-3.92-6.82-11.89-1.59-15.72,2.6-1.9,8-2.49,11-1.87,9.35,1.91,20.53,12.16,21.6,22.42.53,5-3.1,8-7.72,9Z"/><path id="Path_28281" data-name="Path 28281" class="cls-1" d="M578.75,227.55c12.09,8.29,33.07-3.6,32.53-23.42-.64-23.5-27.72-23.91-19.65-20.33,20.37,9,15.26,42.74-12,39.5C576.43,222.92,576.09,225.73,578.75,227.55Z"/><path id="Path_28282" data-name="Path 28282" class="cls-1" d="M415.56,249a15.24,15.24,0,0,0-2.86-2.46c-.88-.53-2.09-.53-1.69,1a18,18,0,0,0,1.84,3.47,38.2,38.2,0,0,1,3.14,7c3,10.24,3.28,21.77-1.56,31.51A31.83,31.83,0,0,1,403.29,302a36.64,36.64,0,0,1-8.45,4c-1.37.47-8,1.34-8.92,2.65a.54.54,0,0,0-.1.33c.15,2.36,6,3,7.63,3.1A26.64,26.64,0,0,0,406,309.5c27.95-13.05,23.06-42,13.92-55.26A40,40,0,0,0,415.56,249Z"/><path id="Path_28283" data-name="Path 28283" class="cls-1" d="M341.3,230.17a14.55,14.55,0,0,0-1-3.79c-.47-1-1.6-1.94-2.28-.65a13.19,13.19,0,0,0-.7,3.63,26.18,26.18,0,0,1-1.94,6.78c-4.07,8.38-11.17,15-20.91,16.51A31.74,31.74,0,0,1,299.27,251a46.64,46.64,0,0,1-8-3.77c-1.18-.69-6.16-4.63-7.37-4.57a.24.24,0,0,0-.21.09c-1,1.25,2.74,5.4,3.79,6.5a36.36,36.36,0,0,0,10.05,7.25c28.88,14.31,43.39-4.58,44.17-19.66A32.78,32.78,0,0,0,341.3,230.17Z"/><path id="Path_28284" data-name="Path 28284" class="cls-1" d="M781.48,355.89c-3.4-19.4-7.63-39.71-16-57.92a115.46,115.46,0,0,0-11.23-20.71,53.44,53.44,0,0,0-22.63-18.85c-10.08-4.4-21.72-4.48-32.52-3.68-21,1.56-44.88,8.53-63.93-3.53-.64-.4-.78-7.27-1.54-8.66a2.11,2.11,0,0,0-.18-.33c27-12.84,27.24-52.58-2.25-64.5,1.61-8.44-6.51-24.05-27.5-18.55,6.73-32.86-38.85-56.46-71.18-21.68-3.35-42.62-69.74-52-93.46,3.61h0a45.74,45.74,0,0,0-25.24,1.26c-21.36,7.15-34.5,23.48-34.24,23.9-9.79-16.29-32.55-16.76-43.93-2.77-34.19-27.43-74.2-19.27-95.64,6.75-.72.88-7.08,10.67-7.07,10.67-30.73-7.51-63.87,10.54-63.44,39.36.14,9.78,4.23,18.92,12.25,24.08a15.58,15.58,0,0,1-5.51,4.1c-4.81,2.12-10.31,2-15.45,2.4-10.85.81-21.6-1.84-32-4.62C116,242.79,103,238.66,89.61,239c-15.4.35-28.64,7.69-38.92,18.91C32,278.24,21.81,306.22,13.45,332.06c-24.57,76-18.72,112.41,44.83,163.67,29.67,23.95,12.23,41.4,2.56,65.19-2.09,5.12-5.2,12.06,3.31,23.23,5,6.52,9.24,8.5,28.64,17.14,21.44,9.54,45.89,18.44,68.54,25.88l7.11,2.3c10.21,3.24,21.26,6.54,32.82,9.79,17.16,4.77,30.56,8,43.36,10.8,64.79,14.31,64.05,4.25,73.51-47.42,12.51-68.33,36.78-156.18,54.18-223.12a32.68,32.68,0,0,0,17.24-10.94c6.86-8.29,9.58-19.31,11.74-29.61,13.88.76,18.26-5.51,22.46-16.4,4.95,36.45,1.58,12.41,6.09,43.35,4.8,32.94,9,65.48,12.48,96.73,3.85,34.58,6.48,65.77,8.05,95.36.33,6.16.5,12.44.66,18.51.25,9.41.51,19.14,1.37,28.7a35.76,35.76,0,0,0,6.9,18.49,23.4,23.4,0,0,0,7.67,6.63,19.67,19.67,0,0,0,5.22,1.79c5,2.09,11.36,2,16.57,2H491c6.62,0,13.82-.27,22.66-.87,12.83-.87,26.27-2.29,43.58-4.59,11.68-1.58,22.85-3.27,33.2-5,2.44-.41,4.84-.83,7.22-1.26,13.6-2.44,25.36-4.8,36-7.2,13.64-3,56.1-13.2,66.66-20.93,9.4-6.88,10.4-21,7.88-30.72-9.33-36.81-19.06-39.42,7.49-54.76A253.4,253.4,0,0,0,746,488.82c19.27-15.13,33.48-34.91,38.46-59C789.49,405.44,785.72,380.1,781.48,355.89ZM14.83,353.74c9.5-26.39,15.74-55.37,31-79.2,7.8-12.18,18.31-23.55,32.74-27.35,11.66-3.07,23.84-.88,35.35,1.78,12.9,3,25.68,6.71,39,7.6a85.07,85.07,0,0,0,9.58.12c6-.27,13.9-2.92,19.43-5C176.08,267.89,170,286.85,164.2,303c1.08-3-14.44-15.07-42.26-23-25.46-7.28-50-12.58-72.36,62.11C42,367.45,35,396.21,45.18,421.51c8.76,21.75,34.16,41.23,57.4,42.28,2.5.12,1.33.88-12.2,32.72-69.15-45.67-86.17-80.09-67.92-148.4,15-56.21,34.5-81.75,34.5-81.75C36.29,292,6.61,364.15,12,408.67c5.61,46.22,62.88,78.3,76,92.26-.61,5.24-2.52,7.53-3.13,8.24-18.56-25-105-58.31-70-155.43Zm146-40.47c-1.72,5-50.35,141.87-55.24,143.36-5.09,2.78-45-8.15-53.83-43.23-6.22-24.71-1.37-50.63,6.87-74.29,4.4-12.62,9.56-25.43,16.6-36.83,14.7-23.84,29.23-22.37,57.37-12.45,11.58,4.08,26.39,9.75,28.23,23.44ZM273.27,645.7l-.6-.09c-6.48-1-13.52-2.35-22.14-4.27-13.54-3.06-27.93-6.78-42.76-11-8.82-2.53-18.2-5.37-28.65-8.7q-5.52-1.76-10.88-3.5c-10.9-3.55-22.35-7.51-35-12.1-21.56-7.88-39.16-15.23-50.88-21.28l-.2-.1c-3.76-1.94-7.65-4-10.48-7A14.9,14.9,0,0,1,68,565.16a62.47,62.47,0,0,1,1.62-8.37s37-82,61.21-146c22.64-59.93,49.58-139.13,57.3-163.48,6.79,2.15,15.44,2,26-1.4,8.14-1.71,19.31-5.75,26-4.48,15.28,2.9,13.59,11.74,16,21.06,3.06,12,8.54,22.29,24.5,24.39,19,2.51,27.19-20.65,33.77,1.74,4.94,16.81,5.91,12.79,11.88,16.89,4.44,3,2.1,21.54,8.39,41.19-2.27,1.13-4.56,2.2-6.89,3.19a226.26,226.26,0,0,1-50.74,14.66q-6.9,1.15-13.87,1.87c-6.56.31-13.14.46-19.71.38-1.64,0-3.27-.05-4.91-.09l-1.14,0q-2,0-3.93-.12l-1,0c-1.43-.05-2.86-.11-4.28-.18l-.54,0-4.9-.25q-7.45-.41-14.9-1l-1.52-.12c-8,24.73-16.7,49.24-26.24,73.44q-8.94,22.65-18.57,44.95c-6.64,15.3-12.85,31.36-21.38,45.65-.28.47-1.05.19-.85-.36,5.36-15.06,12.9-29.51,19.23-44.26q10.39-24.21,20.08-48.8c9.14-23.39,17.94-47,26.18-70.76-2.49-.24-5-.51-7.45-.82l-.38,1.07c-8.58,24.1-17.93,47.74-27.9,71.23-10.23,24.1-20.48,48.37-32,71.68-5.56,11.23-10.43,22.77-15.6,34.16l-.52,1.18c2.47,1.18,5.12,2.4,8,3.69l.88.4.9.4.16.06q2.24,1,4.54,1.95l.07,0,2.11.89.07,0c2.79,1.16,5.68,2.32,8.72,3.5l.28.12,1.9.73.16.06,1.92.74.73.28h0l1.68.63.42.16,1.45.54,1,.36h0l1.7.63.65.24,1.28.47h0l.69.25.09,0,1.86.68,2.13.76c8.87,3.16,17.47,6.07,25.59,8.65,8.46,2.84,17.42,5.6,26.6,8.06a354.38,354.38,0,0,0,43.64,10.12l.36,0c4.63.84,8.89,1.5,12.73,2l1.17.15a47.7,47.7,0,0,0,10.34.56c1.92-11,4-22,6.41-33.06,5.21-23.76,9.86-47.77,15.77-71.45,9.5-38.07,25.36-75,39-111.93l.27.2q-1.38,4.17-2.75,8.34-6,18.3-11.72,36.68-10.64,34.26-20.14,68.87-7.65,27.93-14.44,56.1-2.9,12-5.67,24.07-1.29,5.58-2.56,11.18c-.24,1-1.73,10.35-2.37,10.45,17.4-2.92,22-27.91,25.59-45.85,1.72-8.67,3.67-17.3,5.72-25.9,5-21.06,10.7-42,16.63-62.81q8.17-28.77,17.1-57.31c1.92-6.16,3.81-12.35,5.83-18.49a30.4,30.4,0,0,0,5.78.83C287.69,640.78,317.15,652.29,273.27,645.7Zm33.51-258a4,4,0,0,1,2.64-2.65,3.46,3.46,0,0,1,3.43.76l.35.41a3.22,3.22,0,0,1,.8,3.1,3.61,3.61,0,0,1-2.39,2.4l-.51.17a3.4,3.4,0,0,1-4.32-4.19Zm-2.21-11a5.17,5.17,0,0,1,4.05-8.64l.34,0a5.16,5.16,0,1,1-.46,10.31l-.35,0A5.16,5.16,0,0,1,304.57,376.68Zm7.15,33.23c3.46.93,1.9,6.39-1.57,5.45s-1.88-6.38,1.57-5.45ZM315,362.75a4.31,4.31,0,0,1,4.45-4.07l.35,0a4.26,4.26,0,1,1-.39,8.52l-.34,0a4.29,4.29,0,0,1-4.07-4.45Zm-64,54.66a5.06,5.06,0,0,1,3.9-.69,4.68,4.68,0,0,1,2.14,1.16c.28.35.56.7.82,1.06a3,3,0,0,1,.52,1.28,5.32,5.32,0,0,1-.12,2.38,4.8,4.8,0,0,1-.34.89,5.48,5.48,0,0,1-1.19,1.6,3.57,3.57,0,0,1-.79.54,7.34,7.34,0,0,1-1.8.71,3.81,3.81,0,0,1-.75.07l-.36,0c-.36,0-.71-.07-1.06-.12a4.29,4.29,0,0,1-2.89-2.15,4.55,4.55,0,0,1-.47-1.17l-.06-.31a5.17,5.17,0,0,1-.07-1,5.35,5.35,0,0,1,2.52-4.27Zm-.2-25.24a3.18,3.18,0,0,1,1.74-1.4l.37-.09.37,0a3,3,0,0,1,.6.05,2.8,2.8,0,0,1,.89.37l.22.15.22.16.36.26.16.14s.09.1.14.15a2.6,2.6,0,0,1,.31,2.28,3.32,3.32,0,0,1-.24.59,4.59,4.59,0,0,1-.33.44,2.77,2.77,0,0,1-.67.56l-.31.16a3.26,3.26,0,0,1-1,.26l-.49.05a2.54,2.54,0,0,1-.39,0,2.35,2.35,0,0,1-.37,0,2.53,2.53,0,0,1-1.87-2,2.86,2.86,0,0,1,.31-2Zm8.77,10.54a5.76,5.76,0,0,1,5.94-2.38,5.44,5.44,0,0,1,2.48,1.43,5.1,5.1,0,0,1,1.49,3.49,4.87,4.87,0,0,1,0,.54,6.12,6.12,0,0,1-.2,1.12,5.4,5.4,0,0,1-.25.67,6.11,6.11,0,0,1-.35.67,4,4,0,0,1-.22.34,6.24,6.24,0,0,1-3.34,2.43l-.53.13a5.45,5.45,0,0,1-1.07.08,3.29,3.29,0,0,1-.54-.05,3.45,3.45,0,0,1-.54-.11,5.26,5.26,0,0,1-3.87-4.11,5.05,5.05,0,0,1-.08-.68s0-.1,0-.15a5.61,5.61,0,0,1,1.1-3.42Zm.3-16.44a3.49,3.49,0,0,1,1-1.52,2.41,2.41,0,0,1,.75-.52,2.14,2.14,0,0,1,.91-.34,7.5,7.5,0,0,1,1.25-.08,3.51,3.51,0,0,1,3.35,3.65c0,.13,0,.26,0,.38a3.49,3.49,0,0,1-1.12,2.58,3.55,3.55,0,0,1-5-.22,9.9,9.9,0,0,1-.83-1.1,4.07,4.07,0,0,1-.36-.93,3.5,3.5,0,0,1,.08-1.9Zm-12.6,84.8a5.1,5.1,0,0,1,1.16-2,4.26,4.26,0,0,1,.42-.43,4.88,4.88,0,0,1,4.52-1.19,4.93,4.93,0,0,1,2.92,2.25,4.52,4.52,0,0,1,.38.84,4.72,4.72,0,0,1,.05,2.88,5.26,5.26,0,0,1-.79,1.59,4.42,4.42,0,0,1-.44.53,4.88,4.88,0,0,1-.53.49,4.59,4.59,0,0,1-.44.33,5.27,5.27,0,0,1-2,.81l-.47.05a4.42,4.42,0,0,1-1.45-.15,5,5,0,0,1-2.06-1.17,4.37,4.37,0,0,1-.6-.69,4.74,4.74,0,0,1-.68-4.11Zm10.9-29.45a3.43,3.43,0,0,1,.12-1.35,3.61,3.61,0,0,1,4.2-2.54,3.49,3.49,0,0,1,1.42.79,2.5,2.5,0,0,1,.23.23,3.35,3.35,0,0,1,.3,3.89,4.41,4.41,0,0,1-.36.49,3.69,3.69,0,0,1-2.51,1.32,3,3,0,0,1-1-.1,3.3,3.3,0,0,1-2.27-2.1,3.6,3.6,0,0,1-.15-.63ZM265,419.43l.23-.17a2.48,2.48,0,0,1,.32-.17,2.38,2.38,0,0,1,1.66-.1c3,.81,1.9,5.33-.88,5.17a2.72,2.72,0,0,1-.57-.1c-2.29-.63-2.19-3.43-.76-4.63Zm-40,89.51a5.34,5.34,0,0,1,2-2.07l.41-.23a5.09,5.09,0,0,1,.6-.25,5,5,0,0,1,1.21-.24h.47a4.3,4.3,0,0,1,.94.16,5.5,5.5,0,0,1,1.28.59,5,5,0,0,1,.72.57,4.3,4.3,0,0,1,.59.69c.09.12.17.25.25.38a4.77,4.77,0,0,1,.37.83,3.17,3.17,0,0,1,.12.44,4.54,4.54,0,0,1,.09.51,4.91,4.91,0,0,1-.17,1.87,5.25,5.25,0,0,1-3.5,3.5.79.79,0,0,1-.22.06,4.26,4.26,0,0,1-2.24,0,4.93,4.93,0,0,1-2.31-1.49,4.66,4.66,0,0,1-.93-4.39,5,5,0,0,1,.36-.9Zm1.3-30.36.06-.19a6.24,6.24,0,0,1,.36-.88c.07-.13.14-.26.22-.38a5.21,5.21,0,0,1,.5-.66c.09-.09.18-.19.28-.28a4.5,4.5,0,0,1,.83-.6l.38-.17a3.84,3.84,0,0,1,.82-.23,3.42,3.42,0,0,1,.45,0,4.17,4.17,0,0,1,1.44.19,4,4,0,0,1,2.25,1.52,3.54,3.54,0,0,1,.42.73,4.27,4.27,0,0,1,.25.79,4.77,4.77,0,0,1,.11,1.25,3,3,0,0,1,0,.42,5.53,5.53,0,0,1-.47,1.63,6,6,0,0,1-.33.6,4.84,4.84,0,0,1-.33.46,4.12,4.12,0,0,1-.28.31,3.92,3.92,0,0,1-1.77,1.05,3.67,3.67,0,0,1-.87.14,4.74,4.74,0,0,1-1.45-.19,4.24,4.24,0,0,1-2.9-5.25,1.42,1.42,0,0,1,.07-.22Zm-9,64.47c0,.15,0,.29,0,.44s0,.07,0,.11-.05.24-.08.36a.19.19,0,0,1,0,.08,3,3,0,0,1-.14.42l0,.09-.15.32-.05.1c-.07.13-.15.25-.23.37l0,.06a3.11,3.11,0,0,1-.23.28l-.08.09-.31.3,0,0a3.64,3.64,0,0,1-.52.35,3.93,3.93,0,0,1-.43.18l-.2.06a2.7,2.7,0,0,1-.39.08h-.58l-.3,0-.14,0a2.66,2.66,0,0,1-.47-.11h0a2.09,2.09,0,0,1-.35-.13l-.1,0-.24-.12-.09,0a3.41,3.41,0,0,1-1-.89,1.64,1.64,0,0,1-.14-.22h0a3.38,3.38,0,0,1-.37-.82h0a2.71,2.71,0,0,1-.09-.41,0,0,0,0,0,0,0,4.05,4.05,0,0,1,0-1.3.09.09,0,0,1,0-.05c0-.13.05-.26.08-.39a0,0,0,0,1,0,0,3.66,3.66,0,0,1,.3-.8l0-.07.17-.3.05-.07a3.46,3.46,0,0,1,.22-.31l0,0a1.93,1.93,0,0,1,.27-.3l.07-.06.23-.2.1-.08.25-.16.09,0a2,2,0,0,1,.36-.16l.07,0,.31-.09.13,0,.3,0h.57a4.1,4.1,0,0,1,.61.11l.18,0h0a4.29,4.29,0,0,1,.5.19l.12.06a2.12,2.12,0,0,1,.36.21l.07,0a2.6,2.6,0,0,1,.36.3l.08.08.24.27.06.08a2.82,2.82,0,0,1,.24.36.36.36,0,0,0,0,.09,3.09,3.09,0,0,1,.14.32s0,.07,0,.11a2.77,2.77,0,0,1,.12.41.09.09,0,0,0,0,.05l.06.39a.49.49,0,0,0,0,.12c0,.13,0,.26,0,.4a.06.06,0,0,0,0,0ZM425.77,310c-.45-4.09-6.1-4.29-7.11-.33-8.39,32.86-20.59,16.71-24.6,19.95-2.29,1.85-1.55,5.87-1.65,8.43-1.11,29.49-33.23,50.15-47.93,6.65-6.7-19.84-5.1-35.36-5.23-39.69-.31-10.5-7.63-4.55-11.68-8.38-5.62-5.32-4.33-35.26-27.52-24-.28.13-9.07,3.61-10.41,4-25.49,7.38-26.29-26.16-34.17-35.9-15.76-19.5-44.29,4.19-63.66-2.79-12-4.33-17.25-17.59-13-29.32,8.08-22.56,37.67-27.46,57.93-21.72,2.37-5.65,4.8-10.34,9.14-14.85a56.78,56.78,0,0,1,13.35-10.33c32-18,67.24-1.66,74.6,11.22,2.38-2.1,4.6-4.63,7-6.56,14.21-11.29,33.28-2.28,36.11,13.31,4.74-5.21,25-36.25,54.05-33.48A31,31,0,0,1,452,157.15c5.21,6.48,5.76,14.86,4.72,22.84a28.54,28.54,0,0,0-12-3c-1,0-3-.12-3.8.69-1.15,1.25,1.16,1.58,1.87,1.76a35.06,35.06,0,0,1,8.83,3.24,26.07,26.07,0,0,1,9.34,9,25.66,25.66,0,0,1,1.6,23.58,24.33,24.33,0,0,1-2.65,4.52c-7.58,10.25-22.08,8.38-17.63,12,8.79,7.2,35.1-7.33,30.45-30.76a30,30,0,0,0-8.08-15.48c2.39-4.27.64-16.74.14-18.7-3.05-11.89-10.35-19.61-19.37-23.64,6.67-15.23,18.9-28.55,35.46-32.7,12.54-3.14,26.84-.43,35.84,9.32,8.51,9.23,8.88,22,10.28,33.77-.32-2.71,26.9-34.58,54.45-22.67,14.68,6.35,18.43,21.82,12.57,36.59,4.71-1.22,26.6-9.25,29.29,6.46a12.25,12.25,0,0,1-2.33,9.38c1.47-1.92,15.27,2.38,21.41,14.07,8,15.24.64,35.19-18.34,39.49,4.42-5.31,6.31-11.64,6.17-18.7-.1-5.13-2.18-7-3.69-2.09-7.2,23.4-37.14,48.13-92.53,33.88-5.26-1.42-10.61-2.59-15.66-4.53,0,4.36-2.11,9.56-3.88,13.55A32.2,32.2,0,0,1,506,270.7a29.77,29.77,0,0,1-15.14,6.75c-5,.69-11.93.54-16.39-1.91.4,7.36.15,14.72-.09,22.11-.3,9.1-1.44,18.32-5.24,26.69-7.72,17-21.88,17-32.19,7.35C431,326.11,426.21,314.12,425.77,310Zm254.4,281.86c-12.2,4.27-30.3,9-52.31,13.73-12.93,2.73-24.6,5-35.66,7l-11.05,1.92c-10.6,1.81-20.09,3.3-29,4.55-15,2.12-29.46,3.76-43,4.9-8.64.69-15.66,1-22.09,1.12h-.59c-4.74,0-9.65.09-14-1.31-12.82-4.18-13.4-22-13.79-33.8l0-.94c-1.14-34.15-4.82-86.19-10.73-137.17-6.2-53.46-11.71-88.15-15.41-116.81a29.2,29.2,0,0,0,9.57,6.64c3.64,11.91,5.13,11.78,14.56,86,3.71,29.19,6.34,55.3,8.05,79.89,2.36,34-2.68,61.47,28.06,62.38-3.39-47.19-29.28-207.38-30.67-215.72,34.79,36.67,40.36,162.91,44.23,215.59,50-1.71,142.29-19.51,161.37-31.44l.17.52c.43-.35.87-.67,1.32-1l-.21-.78c13.6-11.42,3.93-38.08-.91-55-8.5-29.68-15.2-59.93-21.83-90.07q-5.44-24.71-10.49-49.48l-1.69-8.33c-85.43,5.64-133.08-32.92-151.32-48.77l-.09-1c9.26.9,21.52-1.1,29.08-6.65a35.74,35.74,0,0,0,14.17-22.08c31.43,9.6,68.73,13.53,89.6-9.76a37.11,37.11,0,0,0,6.66-.64c.66,2.91,1.88,8.3,2.05,9.24,1.19,6.53,2.38,13,3.64,19.56l.13.72q.78,4,1.53,8c56.87,299.43,88.41,295.74,50.67,309Zm-183.31-230c22.26,118.59,21,201.29,19.1,187.52-2.71-19.15-2.71-83.6-20.14-187.3a.53.53,0,1,1,1-.22Zm54.91-8.75c-4.67.79-6.2-6.4-1.52-7.2s6.2,6.4,1.52,7.19Zm5.66,36.51c-.55,2.9-5.73,3.13-5.55-.51s6.22-3.05,5.55.5Zm32.5,137.47a3.8,3.8,0,0,1,.57,4c-1.42,2.86-6.54,2-6.38-2.13.13-3.17,4.06-4,5.81-1.85Zm-4.46-35.2c7.14-1.21,7.25,10.15.18,8.89-5.28-.94-4.66-8.12-.18-8.89Zm6.88-34.35A4.64,4.64,0,0,1,584,456c-1.83-8.7,13.23-6,8.4,1.57Zm-1.88-42.76a3.81,3.81,0,0,1,3.95-3.6l.7,0a3.78,3.78,0,0,1-.35,7.56l-.69,0a3.84,3.84,0,0,1-3.61-4Zm-10.85,10.66a3.18,3.18,0,0,1,6.29-.69c1,4.51-6.3,5.25-6.3.69Zm-.7-15.77c-3.36.58-4.13-4.93-.46-4.81,2.65.1,3.36,4.32.45,4.81Zm-5.55,64.45c-4.58-.16-5.81-7.46-.78-8.32,5.81-1,7.13,8.54.78,8.32Zm-2.18-59.24c-4.09,5.17-10.82.3-7.89-4.87a4.67,4.67,0,0,1,8.53,1.44,4.36,4.36,0,0,1-.65,3.42Zm-.93-14.63c-7.18,1.23-8.36-9.05-2.13-10.11a5.17,5.17,0,1,1,2.13,10.11Zm.54-29.14a5.24,5.24,0,0,1-3.74,1.35l-.69,0a5.19,5.19,0,0,1,.39-10.38h.08l.69,0a5.2,5.2,0,0,1,3.27,9ZM647.71,317c3.81-13.62,13-16.14,23.81-18.32,35.16-7.11,52.32-6.51,65.12,57.94,20,100.64-48.45,112.54-56,106.94h0c-4.46-2.07-31.47-138.56-33-146.55Zm119.1,134.2c-11,19-29.35,32.76-47.9,43.94-7.61,4.59-15.7,8.5-21.9,14.8-.5-.78-1.55-2-3.19-4.72,14.62-11.78,66.89-30.58,78.63-74.69,4.61-17.33,4.42-35.88,2.07-53.44-1.25-9.36-3-18.85-4.81-28-1.18-7.82-3.7-15.43-5.48-23a138.17,138.17,0,0,0-16.05-40c-.09-.16-.47.07-.38.23,7,12.39,11.52,26.28,14.73,40.09.06.24.1.48.15.72,2.78,14.21,6.12,28.76,7.87,43.05,8.42,68.82-6,95.11-79.37,130a50.57,50.57,0,0,1-5-19.93c28.71,2.62,51.81-19.38,60.54-46.93.63-2-.67-2.57-1.49-.36a66.18,66.18,0,0,1-59.42,43.27c-.12-1.14-.29-2.29-.48-3.43,46.87-2,86.2-57.32,50.94-153.37C725,289,707.7,284.45,683,287.92c-11.8,1.65-26.05,3.7-35.2,12.44-.51-1.28-1-2.55-1.57-3.8,13-10.54,63-24,80.33.09,1.39,1.93,2.38,1.11,1.11-.88-9.77-15.25-28.42-20.36-44.48-18-13.51,2-28,5.77-38.83,14.28a66.26,66.26,0,0,1-3.12-9.29c-.44-2.35-.88-4.71-1.31-7.06s-.53-4.77-.64-7.14c0-1.06,0-2.13,0-3.2a.9.9,0,0,0,.54.68c12.33,4.1,26.28,4.36,38.88,2.49a212.47,212.47,0,0,1,45.14-2.21.12.12,0,0,0,.12-.12.12.12,0,0,0-.08-.11c-12.38-4-22.23-3.18-38.85-.79a126.65,126.65,0,0,1-45-1.45c-.36-.08-.61.18-.73.55.05-1.33.1-2.65,0-4,18.35,7.32,39.5,2.48,58.82.7,12.73-1.18,26-.54,37.08,6.25,10.45,6.38,17.13,17.47,22.13,28.23,11.66,25.11,16.4,53.84,19.83,81.1,3.15,25.16,2.69,51.81-10.4,74.42Z"/></g></g></g></svg>