<svg xmlns="http://www.w3.org/2000/svg" viewBox="0 0 260 120.83"><defs><style>.cls-1{fill:#fff;}.cls-2{isolation:isolate;}</style></defs><g id="圖層_2" data-name="圖層 2"><g id="_0-ui_kits" data-name="0-ui_kits"><g id="對話框-募資計畫"><ellipse class="cls-1" cx="130" cy="66.83" rx="130" ry="54"/><g id="尋找_特殊風味..." data-name="尋找 特殊風味..." class="cls-2"><g class="cls-2"><path d="M45.64,37h.25c1.89,0,3,.29,3.27.85v6.54l1.1,0c1.15-.06,2.61-.19,4.39-.38,1,.25,1.46.46,1.46.62v.12a4.09,4.09,0,0,1-1.46.51l-.9,0c-.94,0-2.25.07-4,0a1.16,1.16,0,0,1-.48.17c0,.38.1,1.43.3,3.13l.23,0c.54-.92,1.13-1.4,1.79-1.44h.15a2.65,2.65,0,0,1,2.36.91v.1a51.24,51.24,0,0,1-3.48,4.7,6.19,6.19,0,0,0,1.26,2.45l.91-.49a1.16,1.16,0,0,0,.52.11c0-.15.24-.36.72-.65.11,0,.24.17.38.54-.18,2.56-.41,3.86-.71,3.9l-.6,0c-2.42.12-4-1.06-4.79-3.53l-.37,0a4.62,4.62,0,0,1-2.23.86l-.26-.4v-.13c0-.36.6-1.35,1.8-2.95a33.53,33.53,0,0,1-.89-6.82L43.26,46v.21c0,1.86.06,5.08.16,9.66-.28,2-1,3-2.06,3.07a2.42,2.42,0,0,1-2.4-1.1c-.22,0-.4-.48-.57-1.5h.1l1.55.09.16-1.58c0-.32-.05-1.29-.16-2.93h-.22a4.9,4.9,0,0,1-2.7,1.2,8.22,8.22,0,0,1-2.21-.33v-.37q.63,0,5.13-3.29V46.26l-1.11.22-3.47.18A1.87,1.87,0,0,1,34,46a.26.26,0,0,1,.26-.25l.45,0a9.93,9.93,0,0,1,1.51.09,17.46,17.46,0,0,1,3.61-.5H40V42.68l-.44-.58v-.24l.86-.19a3,3,0,0,1,2.8,1V45l2.65-.13.34-.18a11.13,11.13,0,0,1-.3-3.2V37.7l-.31-.43Zm-4,1.11a4.34,4.34,0,0,1,3.12,1v.11c-.26.44-2.35,1.34-6.29,2.69a8.06,8.06,0,0,0-1.21.36l-.7-.1v-.08l1.35-1.71c1.93-1.07,2.89-1.82,2.89-2.25Zm10,.87c1.87.27,2.81.65,2.81,1.16v.44c-.19.48-.73.75-1.62.8a3.68,3.68,0,0,1-1.91-2.13V39.2A1.56,1.56,0,0,0,51.64,39Z"/><path d="M63.33,37.58c1.1.08,1.66.28,1.66.58v.25a41,41,0,0,1,6.39-.83h.34c.74,0,1.16.18,1.27.54,0,.15-1.3.33-3.9.53v.05c1,0,1.63.22,1.75.59,0,.68,0,1.15,0,1.41s0,.53,0,1.22a9,9,0,0,1,1-.09h.39a2,2,0,0,1,1.91.88A4.23,4.23,0,0,1,74.31,44v.1c-.14,3.45-.35,5.18-.63,5.18a2.62,2.62,0,0,1-.83.14A2.54,2.54,0,0,1,71,48.91v-.1c.23-.16.34-.26.34-.29v-.15a4.05,4.05,0,0,1-.83.15v0c.17,0,.32,1.12.44,3.36a4.09,4.09,0,0,1,2.34,1.66c.53.58.9,1,1.13,1.18a.39.39,0,0,1,.05.14,1.43,1.43,0,0,1-.88.25,2.15,2.15,0,0,1-2.15-1.32A2.62,2.62,0,0,1,71,53.3v1q0,4.05-.39,4.05a2,2,0,0,1-.78.15,3.71,3.71,0,0,1-2.79-1.47,1.69,1.69,0,0,1-.53-.49c0-.11.18-.19.53-.24h.54a1.8,1.8,0,0,1,1.13.39l.09-3.27c0-1.59-.13-3.1-.29-4.54a.54.54,0,0,1-.24.05v.53c0,.11-.22.17-.64.2h-.49c-.88,0-1.32-.29-1.32-.88-.06-1.35-.09-2.78-.09-4.3V42c0-.14.31-.22.92-.24.92,0,1.44.19,1.57.59v.19h0l.34,0a.59.59,0,0,1-.34-.54v-.83c0-.47,0-1.2,0-2.19a.51.51,0,0,1,.29-.1v0h0c-1.89.29-2.83.51-2.83.64s-.2.1-.59.14l0,.1c.1,2.34.15,3.85.15,4.54a44.89,44.89,0,0,1-.93,10.4v0h.05A20.73,20.73,0,0,1,66,51.2a3.05,3.05,0,0,1,.64-.1,2.06,2.06,0,0,1,1.51.44A33.25,33.25,0,0,1,66,56.13l-.49,0h-.39a2.09,2.09,0,0,1-1.22-.34c-.43,1.27-.77,1.9-1,1.9a4.78,4.78,0,0,1-.49,0c-.9,0-1.39-.2-1.47-.44a19.5,19.5,0,0,0,1.22-5,59.79,59.79,0,0,0,.54-8.83c-.1-2.86-.19-4.78-.29-5.77A2,2,0,0,1,63.33,37.58Zm4.93,6.2v1.71a24.47,24.47,0,0,1,3.46-.59c0-.19,0-.53,0-1a7.65,7.65,0,0,0-.1-1A18.51,18.51,0,0,0,68.26,43.78Zm0,2.69v1.46c1.91-.36,3-.57,3.17-.63q.09-.64.15-1.47C70.68,46,69.58,46.24,68.31,46.47Zm.39-7.77v0h.19v0Zm12.59-1.22c1.34.11,2,.32,2,.64a.33.33,0,0,1,0,.14c0,.14-.86.26-2.58.34,0,0-.12,0-.35,0l.25.3v0a17.06,17.06,0,0,1-1.91,2.69h0a11.8,11.8,0,0,1,2.45-.34c1.59,0,2.39.6,2.39,1.81.06,0,.1.4.1,1.22v1.56a6.58,6.58,0,0,1,0,.68s0,0,0,0a2.91,2.91,0,0,1,0,.39c0,1.91,0,3.48,0,4.69,0,.39-.3.59-.88.59h-.44a2.2,2.2,0,0,1-1.86-.84V51.4a.55.55,0,0,1,.54-.25v-.83a19.18,19.18,0,0,1-3.12.59v.44c0,.15-.28.25-.83.29-1,0-1.52-.26-1.52-.63v-.35a.56.56,0,0,1-.19-.34s.11-.06.19-.19v-4l-.14-.19v-.1s0-.1.14-.15c0-2.08-.15-3.12-.29-3.12s-.1,0-.1-.1v-.1l.15-.19V42l-.05-.34a1.61,1.61,0,0,1,.88-.24,20.36,20.36,0,0,0,1.66-2.25v0a15,15,0,0,1-2,.34h-.4c-1.05,0-1.64-.22-1.75-.68,0-.13,1-.36,3-.68A25,25,0,0,1,81.29,37.48ZM77.92,51.64H78q1.4,0,1.71.54c-.65,2.12-1.3,3.41-2,3.86a2.44,2.44,0,0,1-1.52.68,2.33,2.33,0,0,1-1.7-.49v0A6,6,0,0,0,76.31,54a12.59,12.59,0,0,1,.88-2.24A1.4,1.4,0,0,1,77.92,51.64Zm-.29-8.79c.07.52.13,1.26.2,2.2a13.89,13.89,0,0,1,2.88-.54l.58.05v-.05a4.91,4.91,0,0,1,0-.73,4,4,0,0,0-.24-1.56Zm.2,3.66,0,.25v.29l3.37-.78v-.63Q80.4,45.84,77.83,46.51Zm0,3.37a10,10,0,0,1,2.44-.39h.24l.49.34v0c0-.14,0-.86.1-2.15H81.1c-1,.23-2.08.45-3.22.68Zm2.39,2.64h.14a3.08,3.08,0,0,1,2.35,1.56Q85,56.84,85.4,57.35v.1a1.27,1.27,0,0,1-.88.25h-.44c-1.13,0-1.77-.36-1.91-1.08a12.38,12.38,0,0,0-2.59-3.86Q79.58,52.57,80.27,52.52Z"/><path d="M97.28,42l1.19-.06c.78,0,1.16.7,1.16,2.2.09,0,.14.08.14.28l.82,0c1.53-.07,2.3-.48,2.3-1.21,0-1,.13-1.46.39-1.48l.91,0,1,.08V42l.14.89c0,.14-.27.52-.83,1.14l3-.15q3.33,0,3.39.54v.23l-.84,0a15.16,15.16,0,0,1-3-.15c-1.64.18-3.09.3-4.35.37h-.18l-.7.46-.09-.17c.07,0,.11-.08.11-.25l-1,0c-1.2.12-1.81.3-1.85.55a1,1,0,0,1-.38-.12q-6.17.6-7.16.66v-.35q1.56-.36,6.35-.91a3.79,3.79,0,0,1-.8-2.11v-.45C97.06,42,97.14,42,97.28,42ZM94.87,53.62l.55.12a4.54,4.54,0,0,0,.15,1.15c-.1,1.11-.15,2.12-.15,3v.31l.14.23-.7.18-.89,0-1-.08a13.69,13.69,0,0,1,1.18-4.76Zm5.28-16.17.58,0c.87-.05,1.31.55,1.31,1.81a1.62,1.62,0,0,1-1.36,1.08v.26h.2l7-.64.27.38v.4l-.71.18-10.37.52a3.72,3.72,0,0,1-1,.5c-1.46,0-2.19-.24-2.19-.58v-.14c0-.18.11-.27.26-.28q3.81-.34,5.6-.43v-.22a10.75,10.75,0,0,1-.31-2.62ZM97.73,46h.15c.87,0,1.3.23,1.3.83l2.91-.15a2.81,2.81,0,0,0,2.13-.85l.42,0c1,0,1.67.14,1.9.59-.1,1.36-.16,2.36-.16,3v2.66l-.7.17-1.2.06c-.49,0-.77-.09-.84-.36V51L103,51q-.92.06-3.51.48v.79c-.1.27-.38.42-.85.45q-1.74.09-1.74-.9a9.29,9.29,0,0,1-.16-1.95V47.33C96.73,46.46,97.06,46,97.73,46Zm.74,7.47c.46,0,.79,1,1,3,0,.84,1.62,1.19,4.87,1l.79,0v-.81a1.88,1.88,0,0,1,.71-1.63A2.81,2.81,0,0,1,108,57.71c0,.28-.43.43-1.15.47l-3.44.16C99.17,58.56,97,57.78,97,56S97.51,53.49,98.47,53.45Zm.85-6V48.6l4.32-.22V47.22Zm0,2v1.3l1.57-.22,2.75-.14V49l-2.47.13Zm3.07,3.4c.76,0,1.14.23,1.14.79v1l.61-.33.14.8c-.26,1.08-.74,1.64-1.45,1.67-1.06.05-1.58,0-1.58-.31v-.74c0-.53,0-1.37.14-2.51Zm5.13.36.57,0q2.1-.1,3,3.11v.44q0,.16-.87.75h-.12q-1.59-.72-2.82-4v-.1Z"/><path d="M128.75,36.73h.33c1,0,1.44.21,1.44.48a37.9,37.9,0,0,1-1.61,4.67H129a38.57,38.57,0,0,0,5.69-.64H135c.85,0,1.38.18,1.61.54v.1q-.3,1.14-2.79,3.66h0c2.3,0,3.45.28,3.45.85a19.53,19.53,0,0,1-2.37,3.07v0c1.07-.08,2.24-.11,3.49-.11,1,0,1.5.41,1.5,1.24a19.05,19.05,0,0,1-1.66,7.08,3,3,0,0,1-2.57,1.56,4.39,4.39,0,0,1-3-1.23.36.36,0,0,1,.38-.22h.48a2.42,2.42,0,0,1,1.5.54,3,3,0,0,0,1.34-1.77,31.61,31.61,0,0,0,1.14-6.34h-.07a10.57,10.57,0,0,0-4.29.54,3.5,3.5,0,0,1-.54.05h-.27a4.62,4.62,0,0,1-1.17-.16c-1.26.07-2.68.13-4.25.16s-2.46-.2-2.46-.48v-.06c0-.14.24-.21.74-.21h1.23c3.23,0,4.84-.18,4.84-.53a34.56,34.56,0,0,0,2.52-3h-.1a20.82,20.82,0,0,0-2.63.22H131a2.15,2.15,0,0,1-.91-.16l-.11,0h-.11c-.26,0-1,.05-2.09.16h-.22a3.53,3.53,0,0,1-1-.16,33.54,33.54,0,0,1-3.72,5.75c-1.44,1.43-2.33,2.15-2.68,2.15h-.38q-1-.09-1-.33v0a15.21,15.21,0,0,0,3.44-3.65q3.92-7,3.92-7.85h-.05a4,4,0,0,1-.6.06h-1.28c-2,0-3.07-.14-3.07-.42,0-.12.16-.19.48-.22a16.16,16.16,0,0,0,1.67.11c2.06,0,3.14-.09,3.23-.27q1.23-3.48,1.72-5.11A1.78,1.78,0,0,1,128.75,36.73Zm-6.28.8h.7a3.47,3.47,0,0,1,2.74,1.72,9.27,9.27,0,0,1,1,1.34v.11c-.05.14-.21.21-.47.21h-.81c-.86,0-1.69-.6-2.48-1.82a10.81,10.81,0,0,1-1.23-1.24V37.8C121.88,37.68,122.08,37.59,122.47,37.53ZM123.38,53h.7a1.54,1.54,0,0,1,1.18.38v.05a15.43,15.43,0,0,1-.54,3.06.61.61,0,0,1-.31.11h-.6a1.29,1.29,0,0,1-1.17-.44V56a19.66,19.66,0,0,1,.36-2.9A.59.59,0,0,1,123.38,53Zm3.82-.54c1.08,0,1.61.29,1.61.86.36,2.07.54,3.17.54,3.28a1,1,0,0,1-.65.16h-.22c-.92,0-1.44-.31-1.55-.92-.29-1.57-.47-2.64-.53-3.22A1.57,1.57,0,0,1,127.2,52.41Zm1.44-9.83c-.49,1.08-1,2.21-1.66,3.39a19,19,0,0,1,3.12-.22c.21,0,1.15-.94,2.79-2.8l.38-.48v-.06C131.34,42.53,129.8,42.58,128.64,42.58Zm1.78,9.4h.1a2,2,0,0,1,2,1.35,6.41,6.41,0,0,1,.7,2.15.64.64,0,0,1-.38.15h-.65c-.88,0-1.39-.3-1.55-.91a5.31,5.31,0,0,0-1.13-2.47C129.56,52.09,129.85,52,130.42,52Zm3.28-.11a2.21,2.21,0,0,1,2.3,1.46,2,2,0,0,1,.49,1,1.32,1.32,0,0,1-.87.22q-1.63,0-1.92-1.14a4.31,4.31,0,0,0-.81-1.23v0Q132.89,51.93,133.7,51.87Z"/><path d="M149.23,47.52h.39c1.17.06,1.76.35,1.76.88v.24a9.65,9.65,0,0,1-.83,2.15.38.38,0,0,1-.05.19,16.41,16.41,0,0,1,.54,3.23,3.72,3.72,0,0,1-1,2.68c0,.07.05.1.15.1a45.8,45.8,0,0,1,9.32,1.46,28,28,0,0,0,4.89.54h.24l3.66-.19h.29c.85.07,1.27.23,1.27.48s-1.66.65-5,.79a48.36,48.36,0,0,1-11.18-1.86,22.45,22.45,0,0,0-4.25-.54h-.34a9.78,9.78,0,0,1-1.22.15h-.15a1.4,1.4,0,0,1-1.07-.34v0c0-.08.28-.23.78-.44a3.19,3.19,0,0,0,1.08-2.15v-.68a12.56,12.56,0,0,0-.74-3.27v0l.64-2.1v-.15h-.05c-.94.13-1.53.2-1.76.2h-.05c-.75,0-1.22-.15-1.41-.44V48.3C145.13,48,146.49,47.75,149.23,47.52Zm-1.81-5.47a5.4,5.4,0,0,1,4.79,2.73,3.36,3.36,0,0,0,.09.39,3.15,3.15,0,0,1-1.51.34c-1,0-1.55-.27-1.76-.83A3.75,3.75,0,0,0,146.4,43c-.46-.14-.69-.29-.69-.44S146.28,42.11,147.42,42.05Zm11.72-6.11c1.09,0,1.76.39,2,1.18a5,5,0,0,1,.39,2.24v.88a59.34,59.34,0,0,1,6-.58,1.53,1.53,0,0,1,1.12.34v.09c0,.26-.52.41-1.56.44q-5.7.69-7,.93-.57,0-6.2.44h-.15c-.72-.06-1.13-.2-1.22-.44v-.05q0-.46,4.05-.63l1.76-.2c-.19-2.41-.4-3.61-.63-3.61a1.23,1.23,0,0,1-.35-.59A2.61,2.61,0,0,1,159.14,35.94Zm5,7.28h.44c1,.06,1.47.21,1.47.44v.05c0,.26-.95.45-2.84.58q-3.39.54-7.91.93c-1-.08-1.46-.23-1.46-.44v-.14c0-.25,1.43-.48,4.3-.69C161.61,43.46,163.62,43.22,164.12,43.22ZM166,46c.87.08,1.31.21,1.31.39v.1c0,.25-1.85.65-5.56,1.22q-2.16.45-6,.88h-.24q-1,0-1.32-.39v-.1c0-.23,1.41-.51,4.25-.83Zm-2,3.91c1.27,0,1.91.42,1.91,1.27a2.71,2.71,0,0,0,0,.59,11.93,11.93,0,0,1-.3,2.24.88.88,0,0,1,.74.34v.1c-.38.46-3,.86-7.91,1.22-.74,0-1.19-.16-1.37-.49,0-.13.1-.19.19-.19v0a1,1,0,0,1-.53-.24c-.07-1.59-.1-3-.1-4.11a2.09,2.09,0,0,1,1.32-.29c.66,0,1,.13,1.12.39A45.16,45.16,0,0,1,164,49.86Zm-4.83,1.66V54.6l3.66-.39a.37.37,0,0,0,0-.15,14.76,14.76,0,0,0,.3-2.78s0-.17,0-.39C161.06,51.24,159.78,51.45,159.19,51.52Z"/><path d="M183.4,48.9a3.62,3.62,0,0,1,1.76.78c0,.22-.91.45-2.74.68v1.71l.19.35a5.24,5.24,0,0,0,1.24-.38c1.68.31,2.52.7,2.52,1.19v.4l-.41,0a14.11,14.11,0,0,0-2.12.24c-.11,0-.45-.28-1-.85h-.23a1.15,1.15,0,0,1-.16.64c0,.16.06.23.16.22-.1,2.67-.74,4-1.91,4.08l-.6,0c-1.78-.05-2.66-.29-2.66-.72,0-.17.4-.38,1.19-.63a11,11,0,0,0,.63-3.56l-.55-.34a8.42,8.42,0,0,1-2.1,3.61h-.14a10.53,10.53,0,0,1-1.21-.25l-.46,0-1,.2-.12-.24a19.19,19.19,0,0,0,2-4.56,6,6,0,0,0,1.17-.38,6.41,6.41,0,0,1,2.14.51l.17-.34V51l-.34-.49a36.36,36.36,0,0,1-4.4.51.82.82,0,0,1-.85-.51q0-.48,3.12-1c.07,0,.1.06.1.17A55.75,55.75,0,0,1,183.4,48.9Zm-3.78-11.15c1.53-.07,2.46.22,2.8.88v.74l-.14.81a.3.3,0,0,1,.3.32l1.88-.27h.15c1.47.11,2.21.41,2.21.89v.37l.41,0c.17-2.53.41-3.8.71-3.82l.31-.16a5.74,5.74,0,0,1,2.79.89v.86a22.53,22.53,0,0,0-.45,2.34,2.53,2.53,0,0,0,1.27.26,3.2,3.2,0,0,0,1.83-.55l1,0c1.27.19,1.9.43,1.9.73a23.59,23.59,0,0,0-1,3.68l-1,.61a1.11,1.11,0,0,0-.5-.11c-.06.29-.44.46-1.16.5l-.49,0a10.09,10.09,0,0,0-.46,3c.36,0,1.17.74,2.43,2.27l1.66,2.5c1.1.7,1.65,1.26,1.65,1.67s-.59.75-1.76.81h-.15q-1.74.09-4.52-3.71h-.36a8.26,8.26,0,0,1-3.31,4.55l-3.16.76h-.15q-.28,0-.39-.63a12.57,12.57,0,0,0,3.33-4.43,4.33,4.33,0,0,1,.75-1.69l.3-2.3a1.17,1.17,0,0,1-.14-.54c.25,0,.4-.64.44-1.88,0-.74-.22-1.1-.66-1.09l-.61-.12a2.44,2.44,0,0,1-.83.33q0-.14-.27-.12c0,.09-.06.14-.18.14l.18.36c-.1.27-.38.41-.84.44l-2.42.12L182,47a1.56,1.56,0,0,1-.74.2l-1.21.06c-.07,0-.1,0-.1-.17l-1,.37-.91-.11-.3,0-.91.19c-1.17-.28-1.75-.53-1.75-.75v-.15c0-.26.48-.48,1.46-.65a7.82,7.82,0,0,0,1.36.09,10.42,10.42,0,0,0,1.36-.22c.06,0,.09,0,.09.16l.82-.21h.29a1.2,1.2,0,0,1,.6.12,1.38,1.38,0,0,1,.61-.18,1.07,1.07,0,0,1,.61.12,1.33,1.33,0,0,1,.44-.17l.3.13c.15,0,.22-.06.22-.16s.77.12,1.94.37a34.58,34.58,0,0,0,1.84-4.61,10.11,10.11,0,0,0-2.24.57l-.68-.11-1.37.07c-.17,0-.34.18-.5.52v.15c0,.25.15.37.35.36l.76-.2c1.47.33,2.21.62,2.21.88v.16c0,.27-.89.45-2.66.54l-.31,0a1.54,1.54,0,0,1-.61-.12,2.49,2.49,0,0,1-1.05.34,2.66,2.66,0,0,1-.91-.24l-2.59.73-1,.06c-1.36.07-2.05-.08-2.05-.45v-.32c0-.2.81-.48,2.42-.83,0-.19.6-.36,1.81-.52v-.35c0-.24-.68-.38-2-.42l-.32.17c-1.25-.09-1.88-.53-1.88-1.33a3.74,3.74,0,0,1,1.6-.36l.76,0a7.94,7.94,0,0,1,1.37.08c.43-.18.64-.35.64-.52V38.2C178.86,37.93,179.14,37.78,179.62,37.75ZM190,42.87a10.32,10.32,0,0,0-.76,2.27l.65,0a6.47,6.47,0,0,1,2.26.64l.36,0a24.05,24.05,0,0,0,.61-2.83l-.34-.18Z"/><path d="M202.84,44.11l1.92-.11a12,12,0,0,1,2.85,2.28c.15,0,.29.41.42,1.25l-.42.32h-.08V47.5a4,4,0,0,1-1.26.41q-1.1,0-3.28-3.45A1,1,0,0,1,202.84,44.11Zm2.27-6,.23.11,1.08-.05c.8,0,1.75.77,2.84,2.41a1.64,1.64,0,0,1,.28.85V42a7.88,7.88,0,0,0-1.48.23,2.08,2.08,0,0,1-2.19-1.67,13.27,13.27,0,0,0-1.66-1.74v-.53l.69,0C205,38.23,205.11,38.19,205.11,38.1Zm3.14,10.1c.05,0,.08.07.08.2l.38-.21.12,0c.21,0,.35.22.41.64-.3,0-.9,1.71-1.81,5.09h-.2l.19.36a7.49,7.49,0,0,1-.76,2.28l.16.91v.3c0,.21-.38.37-1.14.47a8.82,8.82,0,0,1-1.33-1.55v-.16q0-.56,3.18-7.55C207.53,48.65,207.77,48.4,208.25,48.2Zm12.41-10.44a9.68,9.68,0,0,0,1.5.08l.41,0c0,.23.2.46.59.7,0,.32-.71.57-2.14.78v-.15q-.27,0-.27.15l-.71-.11h-.21l-.14,1.89v.5a1.32,1.32,0,0,1,.5.14,3,3,0,0,0,.92-.36l.76.11.31-.15a10.26,10.26,0,0,1,2.35.6q-.65,14.07-.89,15.42l-1,.2q-.39-.12-.39-.3c-.18,0-.26.08-.26.18q-1.2.06-1.41-.93a4.13,4.13,0,0,0,.31-1.77l-.31.14v-.14l-.38.21s-.07-.06-.07-.18l-.39.2s-.06-.05-.06-.15q-.27,0-.27.15l-.7-.1-.31,0c-.23,0-.35.14-.35.3s0,0,0-.16l-1.13.22-3.46.19c-.07,0-.1-.07-.1-.21l-.37.21-.5-.32q0,.31.15.3l-.15.7v.77l.14.27-1,.33h-.15a5.45,5.45,0,0,1-2.21-.32v-.43q0-.51-.15-.51.6-6.28.6-8.59v-.45a1.2,1.2,0,0,0-.15-.61l.16-.3-.16-.3.15-.3c0-.14,0-.21-.13-.21l.13-.55-.15-1h.19l-.2-.34V42.4l2.38-.12c.07,0,.1.06.1.18l.37-.19c.45.1.68.29.68.56l.39,0a1.43,1.43,0,0,1,.78-.48c-.1-1.41-.14-2.3-.14-2.68l-.22,0-.92.19-2.69.12c-.37-.47-.61-.71-.73-.71v-.34a1,1,0,0,0,.5-.13v.13c.38-.14.58-.25.58-.33l.23.11.77,0c.14,0,.2-.06.2-.14l.26.12a1.12,1.12,0,0,1,.39-.18v.18l.37-.2a1.28,1.28,0,0,1,.44.13,5.14,5.14,0,0,0,1.36-.38,1.05,1.05,0,0,0,.48.14l.28-.16a1.29,1.29,0,0,0,.48.12l.28-.17.3.15.86-.2v.15c.17,0,.25-.07.25-.16l.86.11A11.13,11.13,0,0,0,220.66,37.76Zm-1.12,7.36c0,.18.05.27.15.26a1.24,1.24,0,0,1-.15.39,8.08,8.08,0,0,1,.15,1.42h.3c0,.13-.1.2-.3.2,0,.41.4.67,1.22.78v.57a.24.24,0,0,1-.26.26l-1.05,0c-1.38,0-2.08-.18-2.08-.44v-4.1l-.18-.36-.35.18h-.19L217,44l-.44,0v.79c-.53,2.88-1.28,4.82-2.24,5.84a4.26,4.26,0,0,0-1.4.54v.39l.55,0a4.93,4.93,0,0,1,2.29-.56v-.15l1,.1,3.32-.16c.16,0,.24.08.24.22v.31c0,.16-1.56.53-4.68,1.1,0,.09,0,.14-.1.14s-.09-.06-.09-.18l-.39.21c-.05,0-.07-.06-.07-.19l-.37.21-.9-.11-.43,0a1.68,1.68,0,0,1-.43-.74l-.25,0v2.22l.21,0a13.23,13.23,0,0,1,2.43,0c1.16-.16,2.27-.27,3.32-.32l1.51-.08a1.39,1.39,0,0,1,.61.13c.33-.13.5-.25.5-.36a25.24,25.24,0,0,0,.32-3.06v-.14a1.19,1.19,0,0,0-.16-.62,16.46,16.46,0,0,0,.3-2c-.09-1-.14-1.85-.14-2.7V42.75c-1.09,0-1.64.45-1.64,1.19S219.67,45.12,219.54,45.12ZM213,43.93l-.17.36v3.49c0,.06-.06.09-.19.1l.19.37a18.53,18.53,0,0,0-.16,2c.11,0,.16,0,.16,0s-.16.1-.16.28l.42,0a1.38,1.38,0,0,1,.2-.59H213c0,.11,0,.16,0,.16v-.39c0-.17.09-.26.2-.26v.31l.24,0a12.72,12.72,0,0,0,.77-3.71,7.74,7.74,0,0,0-.32-2.19l-.34.19A.9.9,0,0,0,213,43.93Zm3.47-3.44v.29q0,1.2.66,1.38c.23,0,.39-.34.5-1-.07-1.34-.24-2-.5-2H217C216.67,39.27,216.51,39.7,216.51,40.49Z"/><path d="M44.53,75.25c1.37.17,2,.62,2,1.36a6.09,6.09,0,0,1,.16,1.64,11.5,11.5,0,0,1-.16,1.69,3.48,3.48,0,0,1,.31,1.65v1.27c1.48-.26,2.22-.51,2.22-.77V80.73a15.1,15.1,0,0,0-.28-3.29,6.75,6.75,0,0,1,1.59-.81h.16c1.77-.09,2.66.25,2.66,1l.45,6.87a1.13,1.13,0,0,0-.56.34l-.89,0q-2.52-.08-2.52-.84l-.38.22h-.07c0-.3-.14-.44-.42-.43v.3s0-.06,0-.16l-1.11.38a1,1,0,0,0-.48-.14c-.43.11-.65.54-.65,1.3q.16,4,.16,6.55l1.88-.1,1.86-.25V86.88l1-.34h.15c1.57,0,2.47.26,2.67.72v7.24c0,.78-.29,1.18-.86,1.21l-.75,0q-2.2-.06-2.37-.6l.17-1.57-.23,0c-4.1.31-7.18.51-9.22.62H40.9l-1.52.52-.89.05a10,10,0,0,1-1.88-.19l.14-.27A5.41,5.41,0,0,1,36.27,92c-.1,0-.15,0-.15-.07a1.24,1.24,0,0,1,.15-.46l-.45-4.06c0-.37.43-.58,1.16-.62l.75,0a4.39,4.39,0,0,1,2.36.77,3.79,3.79,0,0,1-.3,1A40.79,40.79,0,0,1,40.25,93h.21a11.33,11.33,0,0,0,2.32-.44q-.16-4-.16-6.36v-.93l-.16-.79a1.15,1.15,0,0,0-.66.17l-.29-.14-.33.19H40.7c0,.71-.29,1.07-.87,1.1l-.44,0q-3.12-.07-3.12-.69-.15-1.06-.15-1.14h.15c0-.18-.05-.27-.13-.26l.29-3c0-.13,0-.2-.15-.2l.15-.69V78.33l-.15-.72,1-.48a7.6,7.6,0,0,1,3,.43c.09,2.94.13,4.86.13,5.76l1.43-.07.81-.21V78.63c0-2.19.38-3.3,1.16-3.34Z"/><path d="M81.11,84.14c1.62-.08,2.73.27,3.32,1.06v.23c0,.22-.45.39-1.34.5C81.75,86,80,86,77.85,86q-6.63.57-12,.84c-2.63.13-3.95-.07-3.95-.61v-.14q0-.47,16.85-1.41A7.15,7.15,0,0,0,80,84.7C80,84.5,80.39,84.32,81.11,84.14Z"/><path d="M96.51,75c1.37,0,2,.09,2,.28v.45a10.32,10.32,0,0,1-1.79,2.94,38,38,0,0,0-2.15,3.63,2.4,2.4,0,0,1,1.22,2l-.15.75v1.66A7.74,7.74,0,0,0,96,88.26a5.59,5.59,0,0,0-.31,1.25q.15,4.74.15,5.67l-.19,0,.19.36v.55c-.81.22-1.21.44-1.21.65h-.34c0-.34-.51-.56-1.52-.66v-3c0-.28.06-.42.17-.43l-.17-.8V89.06a8.47,8.47,0,0,1,.16-1.53l-.3-2.2c.09,0,.14-.09.14-.26h-.24c-.89,1.14-1.43,1.72-1.62,1.73s-.1,0-.1-.15l-.82.21c-1.07,0-1.6-.2-1.6-.76a38.23,38.23,0,0,0,4.38-6.26c.22-.78.52-1.24.91-1.39l1.8-3.26Zm5.89.6c.46,0,.69.07.69.2q-2.41,8.25-5.53,8.4-.21,0-.21.12A3.21,3.21,0,0,0,96.06,84q2-1.72,3.51-6.44c.23-1.21.72-1.83,1.47-1.87ZM102,82.76l.71.11,3.48-.17a1.23,1.23,0,0,0,.62-.2c1.67,0,2.5.19,2.5.43,0,.07-.06.11-.17.11l.17.66A41.49,41.49,0,0,1,108,94.57l-.71,0a1.55,1.55,0,0,0-.64.18c-1.47.08-2.25-.37-2.33-1.34a11.69,11.69,0,0,1-1.36-2v-.1l.64-.16v.18a3.72,3.72,0,0,1,1.1-.38,1.7,1.7,0,0,0,.93.24h.18c.32-2.62.52-5,.61-7q-.15-.81-.66-.78-.69,0-1.55,4.49-3.09,7.53-6.45,7.7a10.68,10.68,0,0,0-1.15-.1v-.19q1.5-.08,4.07-6.12c.47-.57,1-2.31,1.52-5.23V83.7a3.68,3.68,0,0,0-1.5-.23v-.36l.55,0C101.73,83.05,102,83,102,82.76Zm3.59-8.51h.29q.27,0,.87,1.44A34.68,34.68,0,0,1,111,80.49c.26,0,1.16.68,2.71,2.11.15.21.3.31.44.3v.35l-1.48.22-.75,0c-.48,0-1.12-.45-1.92-1.41q-1.33-.39-4.52-4.43c-1.47-1.4-2.28-2.45-2.41-3.13h.1C104.19,74.38,105,74.28,105.58,74.25Z"/><path d="M127.47,74.54l1-.06c.58,0,1.41.48,2.5,1.5v.14c0,.15-.24.24-.74.27v1.25a22.61,22.61,0,0,1-.46,3.68l1.13,0,.45-.32c1.45.12,2.24.18,2.38.17l2.43-.12.45-.32h.27c1.47-.07,2.2.42,2.2,1.49v.13q-1.26,12.9-4.16,13.83a3.4,3.4,0,0,1-3.68-2.75,1.4,1.4,0,0,0-.75-1.2v-.06h.24a6.25,6.25,0,0,1,2.87,1.38q1.53-2.46,2.6-11.67l-.37,0c-.88,0-1.89,0-3,0a31.39,31.39,0,0,1-3.19.31q-1.87,9.69-4.8,12.25l-3.13,2.1-.74.05q-.24,0-.24-.24v-.25c.45,0,1-1,1.79-2.81q1.67-1.48,3.78-10.93c-1.22,0-2.1-.06-2.62,0l-1.11.06c0,.25-.18.41-.53.49-1.57-.22-2.36-.6-2.36-1.14h.1c.13,0,.19-.06.19-.17l1.46.09.9,0c.85,0,2.22,0,4.1,0a27.14,27.14,0,0,0,.76-5V75.7A10.38,10.38,0,0,1,127.47,74.54Z"/><path d="M156.71,94h1.75v.22c0,2.59-.51,3.89-1.53,3.89a11.86,11.86,0,0,1-3,.44.19.19,0,0,0-.22-.22c.35-2.74.85-4.11,1.52-4.11Zm3.91-18.84h.21c.29,0,.43.22.43.66Q159,88.94,158,91.66a18.72,18.72,0,0,1-2.4.44c0-.15-.06-.22-.2-.22q.42-1.2.85-12.78c0-2.45.95-3.68,2.83-3.68A3,3,0,0,1,160.62,75.2Z"/></g></g><path class="cls-1" d="M109.39,21.74S103.71,10.21,121.28,0c0,0-24-.62-30.17,15.42"/></g></g></g></svg>