<svg xmlns="http://www.w3.org/2000/svg" viewBox="0 0 170 122.92"><defs><style>.cls-1{fill:#fff;}.cls-2{isolation:isolate;}</style></defs><g id="圖層_2" data-name="圖層 2"><g id="_0-ui_kits" data-name="0-ui_kits"><g id="對話框-新品上市"><ellipse class="cls-1" cx="85" cy="55.5" rx="85" ry="55.5"/><g id="尋找_特殊風味..." data-name="尋找 特殊風味..." class="cls-2"><g class="cls-2"><path d="M37,27.56c1,0,1.61.65,1.92,2.11v.5h.23l.27-.15.31.12a5.79,5.79,0,0,1,1.36-.36l.3,0c.66,0,1,.09,1,.28l.39-.2.07,0c0,.3.2.54.61.72,0,.45-.89.72-2.66.81l1.28,1.05a7.78,7.78,0,0,1-1.19,2v.22c1.13.17,1.78.43,2,.77v.54a.72.72,0,0,0-.35.14v-.16a2.58,2.58,0,0,1-.91.39c0-.1-.08-.15-.25-.14,0,.09,0,.14-.05.14v-.34l-.45.33c0-.17-.08-.25-.23-.24l-.59.33-.61-.14a1.53,1.53,0,0,1-.38.19c0-.1-.09-.15-.27-.14v.26c.16,0,.37.21.61.67l-.14.74v1h.19c.35,0,1.21-.11,2.58-.29.76.13,1.14.29,1.14.49v.14c0,.28-.78.46-2.35.54l-1.56.07v1c0,1.45-.06,3.41-.16,5.88,0,.48-.44.74-1.31.78a8.47,8.47,0,0,1-2.66-.45v-.23a1.54,1.54,0,0,0,.9-1.3,25.05,25.05,0,0,0,.16-2.86V39.87c-.36,0-1.33.12-2.93.3-.87-.06-1.3-.22-1.3-.48v-.26l1.46-.22L36,39.09a.34.34,0,0,0,.36-.39V38a5.31,5.31,0,0,0-.48-1.4l-1.54.08-.92-.11a6.48,6.48,0,0,1-1.14.38c0-.18-.51-.36-1.52-.53l-.3-.41v-.13q0-.29,1.32-.63c.06,0,.09.06.09.19l.37-.21h.13l.45.28,1.12-.07v-.5A5.71,5.71,0,0,0,33,32c-1.18.07-1.93-.23-2.24-.89v-.68l1.45-.09a12.21,12.21,0,0,1,1.51.23l2.48-.27a9.71,9.71,0,0,0-.74-2.4A3.66,3.66,0,0,1,37,27.56ZM33.54,40.87c1.47,0,2.21.22,2.21.58q0,1.83-3.29,4.2l-.85.19-.14-.69V45c.61-2.72,1.14-4.1,1.62-4.11Zm1.83-9.1a4.27,4.27,0,0,1,1.45,2c.09,0,.14.06.14.22l-.18.8.53.31h.35a1.41,1.41,0,0,0-.13-.66,6.49,6.49,0,0,0,1.34-2.81l-.34-.16c-.15,0-.22.05-.22.15l-.7-.11-.62,0Zm4.69,9.08.87-.05c1.18-.06,1.76.8,1.76,2.56v.43a2,2,0,0,1-1.3.66c-1.07,0-1.6-1.1-1.6-3.45ZM50.82,28.53q1.62.41,1.86,1V30C49.62,32,47.75,33,47.09,33v1.24a6.12,6.12,0,0,0,.3,1.42A24.83,24.83,0,0,0,51.82,35H52a3.62,3.62,0,0,1,2.05.46v.28c0,.12-.14.26-.41.42l-.59,0a11.8,11.8,0,0,0-2.2.39v-.47c-.1.34-.64.53-1.63.58v.25c1.82,0,2.73.21,2.73.7-.1,4-.16,7-.16,8.94v1l-.72.15-.28,0c-1.47.07-2.21-.42-2.21-1.48v-.45c0-.51.05-1.29.16-2.35-.11,0-.16,0-.16,0h.19l-.19-.36v-.44c0-.07.06-.11.19-.11l-.19-.35V42c0-.07.06-.11.19-.11l-.19-.35c0-.07.05-.1.15-.1,0-.17-.05-.25-.14-.25l.14-.7V38.7a7.19,7.19,0,0,0-.15-1.33,1.23,1.23,0,0,0,.15-.54l-1.27.06c-.36,0-.58,1.39-.66,4.12-.15,0-.35.83-.6,2.48-.93,2.54-2,3.85-3.26,3.9-.17,0-.25-.07-.25-.23v-.44c0-.07,0-.11.14-.11,0-.18,0-.27-.13-.27A12.28,12.28,0,0,1,43.25,44c0-.14,0-.22-.12-.22A21,21,0,0,0,44,39.84c0-.14,0-.21-.13-.2l.13-.71V35.15a5.83,5.83,0,0,0-.9-3.59v-.24A5.63,5.63,0,0,0,44.43,31a13.55,13.55,0,0,1,2.11.37c1.44-1,2.16-1.65,2.16-1.9l.25.1q.66-.27.66-.78l1,0C50.75,28.68,50.82,28.63,50.82,28.53Z"/><path d="M60.8,38.54l1.2-.07a5,5,0,0,1,1.51.52,5.24,5.24,0,0,1,2-.39l2-.09c1.17-.06,1.76.48,1.76,1.61H69l.18.35v1.8c0,.07-.06.11-.18.11l.18.35-.15.76A7.85,7.85,0,0,1,69.2,45H69l.18.36s-.06.09-.18.09l.18.37c0,.16-.11.24-.33.25l.18.36v.83c-.2,0-.3.05-.3.14a3.57,3.57,0,0,0-1.6-.18l-.77,0a.21.21,0,0,1-.24-.23V45.85c-.57.14-.9.22-1,.22s-.1,0-.1-.15a13.14,13.14,0,0,0-2.23.57l.15.74-1,.05c-1.27.07-1.91,0-1.91-.28v-.6l.31-.48V44.26a45.7,45.7,0,0,0-.31-5.55Zm2.5,1.56v3.07a1.21,1.21,0,0,0,.15.62c0,.06-.05.09-.15.1l.15.8v.51L65,45.12l1.1-.22v-5L66,39.49A12.23,12.23,0,0,1,63.3,40.1Zm1.88-11.6.76-.05L68,29a23.49,23.49,0,0,0,3.64-.65s.08.06.08.16a10.42,10.42,0,0,0,1.59-.39c1.46-.07,2.2.48,2.2,1.65,0,.41,0,1.3.16,2.68l-.16.32c0,.15,0,.22.14.22l-.14.7v1.91l-.55,0a1.22,1.22,0,0,0-.61.18l-.3-.14a8.25,8.25,0,0,1-1.35.23h-.11l-.15-.71v-.51a6.36,6.36,0,0,0-1.36.35v-.13a6.46,6.46,0,0,1-1.26.38q-.09,0-.09-.15l-4.28.67-.32-.14a1.62,1.62,0,0,1-.43.18l-.27-.39c.1-1.77.15-2.88.15-3.34l-.13-1.29h.16a6.93,6.93,0,0,1-.47-1.84v-.27Zm2.36,1.42v.21l.16,1.75h-.2l.2.34a11,11,0,0,0-.16,1.69v.15l.17.33c3.29-.46,4.93-.81,4.93-1a15.18,15.18,0,0,0-.33-4A34.14,34.14,0,0,1,67.54,29.92Zm10.18,7.62.3.12.33-.16q2.19-.11,2.19,2v.15A5.36,5.36,0,0,1,80.23,41l.16.92c0,.47-.11.71-.34.73l.34.64a7.7,7.7,0,0,0-.16,1.37l.3.43a1.21,1.21,0,0,0-.14.46l.14.28a1.25,1.25,0,0,0-.14.55l-.71-.1a12.37,12.37,0,0,1-1.77.25,9.16,9.16,0,0,1-.3-1.52l-2.31.14a1.31,1.31,0,0,0-.61.16,1.1,1.1,0,0,0-.49-.11l-.15.34v.87H74l-1.27-.09v.13l-.25-.1h-.15c-.24,0-.36.15-.36.32-.63,0-.94-.81-.94-2.48q-.32-5-.45-5.68l.7-.16.75,0a5.57,5.57,0,0,1,1.81.36l1.31-.36v.14Zm-4.19,2.24a14.07,14.07,0,0,1,.52,3.41l-.2,0a1.84,1.84,0,0,1,.2,1l1.88.06A11.12,11.12,0,0,1,77.62,44V42.79c0-.85-.05-2.14-.14-3.84A27,27,0,0,0,73.53,39.78Z"/><path d="M96.62,28.24,98,28.18c.52,0,.86.14,1,.5v6.81l6.22-.3c.56,0,.84.13.84.34v.12a7.91,7.91,0,0,1-2,.38l-5,.25v.2c0,1,.06,3.54.16,7.64L99,45.55l1,0c5.26-.26,7.9-.16,7.9.29q0,.41-1.44.48c-3-.05-4.89-.05-5.72,0l-5.11.25a25.41,25.41,0,0,0-5.1.7L89,47v-.25c0-.4,1.43-.7,4.31-.92l3-.15V28.52C96.4,28.34,96.48,28.25,96.62,28.24Z"/><path d="M125.13,26.51a4.85,4.85,0,0,1,2,.9,1.67,1.67,0,0,1,.44.93l-.17.3h.28v.05l-.12.65a1,1,0,0,1,.46.11v-.11l.15.07,1.72-.09.68.09a1.59,1.59,0,0,1,.33-.14.86.86,0,0,1,.34.12,5.9,5.9,0,0,1,1-.19h.11l.69.09.22-.13.67.08a.84.84,0,0,0,.47-.14l.22.1.67-.14a2.7,2.7,0,0,0,1.09.39c0,.06.26.31.8.74l.1.2v0a1.24,1.24,0,0,0-.5.26,1.24,1.24,0,0,0-.68-.19c-.2,0-.3,0-.3.11l-.5-.08-.47,0-.49.13v-.15l-.65.42h0c0-.18-.44-.31-1.31-.38a1,1,0,0,1-.44.14h-.24a1.13,1.13,0,0,1-.45-.09l-.23.12-.21-.1c-.12,0-.18.05-.18.11-.46,0-.68-.09-.68-.23l-.3.19a.92.92,0,0,1-.3-.11c-.51.08-.76.2-.76.33,0,1.31-.08,2-.23,2,0,.15,0,.23.11.23l-.11.51v.23c0,.19.13.28.29.27l1.36-.08s.06,0,.06.11.22,0,.22-.11l.51.08.48,0,.34-.23.89,0a2.68,2.68,0,0,1,2.32,1.2,10.67,10.67,0,0,0,.23,1.68c-.07.79-.16,1.2-.27,1.21l.16.26a11.58,11.58,0,0,1-.9,4H134s-.06,0-.06-.15l-.29.17h-.1l-.68-.08-.24.13c-.09,0-.22-.15-.4-.45-.66.06-1,.15-1,.26-.22-.08-.34-.16-.34-.25v-.36l-1.47-1v-.13h.06a19.36,19.36,0,0,1,2.18.46,7.6,7.6,0,0,0,.47-2.34v-3c0-.12-.21-.25-.63-.37l-.24.13a1,1,0,0,1-.54-.1l-.68.16h-.22s-.06,0-.06-.14l-.31.16-1.06,0,.22,2-.13,0,.14.28V38c0,.87-.08,1.31-.25,1.31a4.66,4.66,0,0,1,.24,1h-.13l.14.28v.56a13.41,13.41,0,0,1-.12,1.59l.12.23-.12.67a.85.85,0,0,0,.12.46s0,.05-.12.05l.12.63v.73h-.23V46h.23v.74a3.4,3.4,0,0,1-1.11,2.15h-.13v0l.13-.27-.3-.14H127c0,.23,0,.35-.17.36l-.45,0a1.32,1.32,0,0,1-1-.27s0-.92.12-2.67c0-.39,0-1.59-.12-3.59h.14a6,6,0,0,1-.25-2.07l.11-.47c0-.12,0-.18-.1-.17l.1-.51V38.8a1.19,1.19,0,0,0-.11-.58l.11-.68v-.35a.75.75,0,0,1-.22-.43,2.81,2.81,0,0,1,.23-.95l-.27-.12-.71,0-.5.12V35.7a3.06,3.06,0,0,1-1.29.34l-.87.05a1.52,1.52,0,0,1-.12.73l.12.23a15.17,15.17,0,0,0-.11,1.58V39s0,.06-.13.07l.12.27-.11.23.12.22a3.63,3.63,0,0,0-.11.81c0,.11,0,.17.1.16-.12,1.29-.24,1.94-.38,2l-1.48.07c-.8,0-1.19-.11-1.19-.45l-.11-.66a17.83,17.83,0,0,1,.34-2.07.92.92,0,0,1-.12-.28l.15,0L118.7,39v-.08s0-.07.12-.07c0-.16,0-.23-.11-.22a16.16,16.16,0,0,0,.22-3V34l.08-.2a2.68,2.68,0,0,1,2.43,1l.27.11a4.84,4.84,0,0,0,1.26-.28l.21.11.24-.13a5.93,5.93,0,0,0,.9.06l1.07-.16c-.08-1.43-.11-2.46-.11-3.1v-.11c0-.2-.33-.32-1-.37a1,1,0,0,1-.44.14L123.3,31c-.12,0-.17.05-.17.11l-.74-.07h-.24l-.67.15-.21-.1c-.12,0-.18.05-.18.11l-.51-.09-.69,0q-.39,0-.39.12l-.51-.06-1.38.06-.54.14a10.53,10.53,0,0,0-1.32-1.16v-.14l2.1-.09c.11,0,.16-.05.16-.11l.17.08,1.26-.07a1,1,0,0,0,.57-.14l.68.09c.26,0,1.34-.11,3.23-.29v.16l.31-.16.81-.05a5.25,5.25,0,0,0-.66-2l.11-.23a1.35,1.35,0,0,1-.23-.63h.39A1,1,0,0,0,125.13,26.51Z"/><path d="M37,64.73c.89,0,1.44.16,1.66.49-.13,2-.23,3.73-.29,5.12h0q1.41.16,1.41.54c0,.26-.5.49-1.51.68,0,.18-.08,1.13-.15,2.83l.25,0h.19c.86,0,1.38.14,1.57.44v.09a14.73,14.73,0,0,1-2.1,1.22c-.34,6.32-.71,9.48-1.13,9.48a2.14,2.14,0,0,1-.83.14,1.55,1.55,0,0,1-1.75-1.22,20.73,20.73,0,0,1-.93-2.1.83.83,0,0,1,.63-.19h.44a5.28,5.28,0,0,1,.69.09V80.55c0-.65,0-1.63,0-2.93h0a5.39,5.39,0,0,1-2,.78h-.49c-.8,0-1.27-.18-1.41-.44v-.1c0-.06,1.32-.73,4-2q.15-3.36.15-4h0L33,72.05c-1.18-.09-1.82-.3-1.91-.63s1.17-.52,3.52-.59l.83-.15a.38.38,0,0,0,.05-.19c0-.57.09-2.39.29-5.47A1.65,1.65,0,0,1,37,64.73Zm9.47-.1h.25c.59,0,.93.14,1,.29v0A4.68,4.68,0,0,1,47,66.24a19.45,19.45,0,0,1,6.25,2.69l0,.09v.2c0,.14-.28.22-.83.24h-.34a2,2,0,0,1-1.66-.68,11.36,11.36,0,0,0-3.91-1.9,20.58,20.58,0,0,1-1.76,2.05v0a3,3,0,0,1,.83-.14h.25c1,0,1.51.26,1.51.78.07.71.1,1.19.1,1.46v.35c1.2-.13,2.07-.2,2.59-.2h.34c.94.07,1.42.32,1.42.73a.42.42,0,0,0,0,.2c-.19,2.6-.5,3.9-.92,3.9a4,4,0,0,1-.64.1,2.81,2.81,0,0,0-.49-.05h-.19c0,.22-.23.37-.69.44a29.27,29.27,0,0,1-4.78.64c-.23.93-.34,1.44-.34,1.51h.54q1.17,0,1.17.54v.83a39,39,0,0,0,4.88-.83s.2,0,.59,0c1.05,0,1.66.33,1.8,1A3.8,3.8,0,0,1,53,81.28v2.64c0,.91-.23,1.36-.68,1.36a4.54,4.54,0,0,1-.54,0c-1.08,0-1.61-.21-1.61-.63v-.54c-2.36.23-3.9.34-4.64.34v.25c0,.52-.16.78-.49.78h-.73c-.75,0-1.13-.23-1.13-.69,0-.9,0-1.63,0-2.19V80.79h-.05a8.35,8.35,0,0,1-2.3,3.37,2.43,2.43,0,0,1-.58.1h-.3c-.75-.07-1.12-.18-1.12-.34v0Q40.7,82,41.92,77v0c-.05,0-.09,0-.14-.14v-.15a1,1,0,0,0,.39-.88,22.58,22.58,0,0,0,.63-3.56h-.1c-.74-.08-1.12-.21-1.12-.39v-.1c0-.16.36-.25,1.08-.29l.29,0c0-.22.21-.34.63-.34h.64a2.35,2.35,0,0,1,.83.2v-.05a21,21,0,0,1-.34-2.25C43,70.64,42,71.42,41.53,71.42H41a1.3,1.3,0,0,1-.93-.3V71a25.62,25.62,0,0,0,4.59-4.45,1.58,1.58,0,0,0-.2-.24v0c0-.07.2-.16.59-.24a5,5,0,0,1,1-1.37Zm-1.7,9.76c-.23,1.09-.35,1.7-.35,1.86h.05l3.66-.49h.44l.35,0,0-.1c0-.63.08-1.19.14-1.66C47.83,74.18,46.42,74.3,44.76,74.39Zm.29-2a8.65,8.65,0,0,0-.15,1.13H45c1.09-.07,2.49-.22,4.2-.44v0a3.42,3.42,0,0,1,.1-.88h0Zm.49,8.4v2.64a24.75,24.75,0,0,0,4.68-.49c0-.39,0-1.11.1-2.15a3.39,3.39,0,0,1,0-.58h-.05A44.06,44.06,0,0,1,45.54,80.79Z"/><path d="M70.62,63.87c1.31-.06,2.14.33,2.49,1.19a19.15,19.15,0,0,0-.3,3.49l.34.14,1.54-.07L75.6,68c1.25.11,1.88.31,1.88.6v.31c0,.23-1.5.54-4.48.91l-.19.37c0,.66,0,1.68-.14,3.07l1.85-.09c1,.15,1.52.23,1.66.23l.29,0A3.67,3.67,0,0,0,78.13,73c1.66.14,2.49.38,2.49.7v.41l-1,.35-1.49.07a43.2,43.2,0,0,0-4.66-.22,30.09,30.09,0,0,1-3.5.48V75q-.57,5.42-1.8,7.41a12,12,0,0,1-6,4.18v-.21q2.41-3.9,3-5.1.91-1.6,1.38-6.3l-3.37.16a7.17,7.17,0,0,0-2.27.56c-1.35-.15-2-.35-2-.58v-.4l2.5-.58,3.3-.16c1.12,0,2.57-.18,4.34-.38a1.24,1.24,0,0,0,.66.13c-.09-1-.13-1.81-.13-2.31V69.83l-1.27.06a7.38,7.38,0,0,0-1.34.22,1.6,1.6,0,0,0-.81-.11q0,.31-3.43,3.48l-.88,0c-.16,0-.24-.07-.24-.22V73l1.05-2.89a5.71,5.71,0,0,0,1.35-3l-.14-1,.69-.17c1.87-.09,2.8.34,2.8,1.3v.45A7.53,7.53,0,0,0,67,69l2.16-.11c.25,0,.37-.13.37-.36v-.31c0-.85,0-2.2.13-4A2,2,0,0,1,70.62,63.87ZM71.69,74.8l.88-.06a4.59,4.59,0,0,1,2.79.57l-.14,1.5c0,1.12,0,2.83-.15,5.1q0,2,1.86,1.92l1-.06a.32.32,0,0,0,.35-.35v-.18L78,82.8c.27-1,.54-1.46.83-1.47,1.26,1,2,1.67,2.37,2a.9.9,0,0,1,.58,1,6.33,6.33,0,0,1-3.1.88c-4.26,0-6.4-.53-6.4-1.64q-.51,0-.59-7v-.29c0-.55-.15-.82-.46-.81v-.23C71.27,75.09,71.41,75,71.69,74.8Z"/><path d="M101.86,64l.86,0c1.09-.07,1.63,0,1.63.28a14.38,14.38,0,0,1-4,2.58,7.51,7.51,0,0,0-1.26.22,1.1,1.1,0,0,0,.16.52l-.33,2h.22a9.79,9.79,0,0,0,2.43-.43c.06,0,.1.06.1.19a10,10,0,0,1,2.62-.47l1-.06c.12,0,.26.13.4.39,0,.47-2.06.8-6.2,1,0,.1-.34.17-1,.21a13.49,13.49,0,0,0-.91,2.27h.19c.92,0,4.4-.47,10.43-1.27a1.25,1.25,0,0,0,.71.12v.07c0,.35-.7.62-2.08.82-.06,0-.08,0-.08-.16q-9.36,1.29-10.25,1.91a1.71,1.71,0,0,1-.45.94v.22h.23l.3-.15c.45.1.68.3.68.57l.51,0c.25,0,.37-.11.37-.3a4.72,4.72,0,0,0,1.31.22,18.2,18.2,0,0,0,3.72-.63v.13c.16,0,.24-.06.24-.16a1.21,1.21,0,0,1,.42.13l1.34-.22a1.21,1.21,0,0,0,.4.13l-.14.71.16.76a15.17,15.17,0,0,1-.47,3.64,1.18,1.18,0,0,1,.16.38h-.18l.18.38c0,.06-.06.09-.18.1l.18.35V82a1.25,1.25,0,0,1-.16.62l.16.3L105.1,84a7.11,7.11,0,0,1,.15,1.13h-.18l.18.36v.29c0,.12-.25.32-.72.59l-1.89.09v-.39c0-.06,0-.1.15-.11,0-.18-.05-.26-.14-.25l.14-1v-.6a1.28,1.28,0,0,0-.14-.61,1.45,1.45,0,0,0,.14-.69l-.82.22a1.12,1.12,0,0,1-.58-.12,4.88,4.88,0,0,0-1.71.54s-.07,0-.07-.16L98,83.55l-.75,0c-.19,0-.36.38-.5,1.11a5,5,0,0,1-2.2.55A4.2,4.2,0,0,1,94.17,84a15.09,15.09,0,0,0,.45-4l-.14-.28a1.37,1.37,0,0,0,.14-.61V79a1.28,1.28,0,0,0-.14-.61,1.21,1.21,0,0,0,.14-.6v-.89q-3.87,3.75-4.91,4.57l-1,.18-.13-.26v-.12c.4-.8.69-1.2.85-1.21l.36.16V79.9q-.15,0-.15-.06a1.63,1.63,0,0,1,.78-.32l-.15-.29A10.32,10.32,0,0,0,92.35,77a12,12,0,0,0,2-2.93l-.41,0-1,.19v-.15a29.88,29.88,0,0,1-4.74.7c-.16,0-.24-.06-.24-.22v-.15q0-.51,6-1.16V73l.25.12.46,0c.35-.16.78-1,1.28-2.44l-.54,0c-.33,0-.5.07-.5.17l-2.61-.16v-.39c0-.29.53-.45,1.6-.5l2.48-.14a10,10,0,0,0,.3-1.55v-.55a14.41,14.41,0,0,1-2.91.63,1.31,1.31,0,0,0-.42-.14v-.21L95.58,67c0,.08.08.12.24.11,0-.19.13-.29.26-.3s.1,0,.1.17q4.95-1.45,4.95-2.39C101.31,64.62,101.56,64.4,101.86,64Zm-2,16.92a1.12,1.12,0,0,1-.45-.13,7.57,7.57,0,0,1-1.37.22l-.77,0a.37.37,0,0,0-.34.38v1.42q5.85-.54,5.85-1.09v-.3a1.84,1.84,0,0,0-.33-1l-.36.17-.27,0-.92-.11A4.32,4.32,0,0,1,99.87,80.9Zm-2.82-4.24a1.45,1.45,0,0,1,.18.48,1.23,1.23,0,0,0-.15.54c.1,0,.15,0,.15.17l.38-.18a5.93,5.93,0,0,1,1.81.19,29.72,29.72,0,0,1,3.51-.47l.16-.82-.16-.65Zm1.06,2.06v-.17l-.39.19-.48,0-.16.94v.53q5.86-.54,5.86-1.11v-.49a6.6,6.6,0,0,0-1.27-.41A29.66,29.66,0,0,0,98.11,78.72Z"/><path d="M134.65,73.49h.23v.08l-.16.64.16.28c0,.81-1,1.44-2.95,1.89a58.49,58.49,0,0,1-7.66-.82q-4.39,1-4.4,2.19l-.71.17-.43,0a1.12,1.12,0,0,0-.56-.28v-.08c0-1.08,1-1.87,3.13-2.37a3.87,3.87,0,0,1,1.62-.37l.45,0c1,0,3.47.13,7.52.52Z"/></g></g><ellipse class="cls-1" cx="29.38" cy="112.62" rx="6.88" ry="3.66"/><ellipse class="cls-1" cx="17.46" cy="119.59" rx="4.81" ry="2.55"/><ellipse class="cls-1" cx="7.43" cy="121.77" rx="2.17" ry="1.15"/></g></g></g></svg>