<svg xmlns="http://www.w3.org/2000/svg" viewBox="0 0 170 132"><defs><style>.cls-1{fill:#fff;}.cls-2{isolation:isolate;}</style></defs><g id="圖層_2" data-name="圖層 2"><g id="_0-ui_kits" data-name="0-ui_kits"><g id="對話框-風味輪"><ellipse class="cls-1" cx="85" cy="61.5" rx="85" ry="61.5"/><g id="尋找_特殊風味..." data-name="尋找 特殊風味..." class="cls-2"><g class="cls-2"><path d="M24.13,30.75h.16a1.57,1.57,0,0,1,1.6.77c0,.06-.05.09-.16.1l.32,1.4a24.18,24.18,0,0,0-.16,2.78.14.14,0,0,1,.16.15l.8-.19.82.11q.15-2.1.15-3.09v-.89l.13-.72.87-.05q.72,0,1.95,1.11c.48,0,.72,0,.72.16A7.31,7.31,0,0,1,33.36,32a17.42,17.42,0,0,0,2.11,0,1.4,1.4,0,0,0,.46-.16l.3.12a1.17,1.17,0,0,1,.39-.17V32A9.19,9.19,0,0,0,39,31.37c.05,0,.08.05.08.15l.82-.2a4.7,4.7,0,0,1,2,.63A24.63,24.63,0,0,1,41,35.69H41c0-.2-.13-.29-.38-.28a13.05,13.05,0,0,1-1.59.23c0-.2-.15-.29-.46-.28.09-1.37.14-2.29.14-2.74h-.22l-7.89.71c-.09,1-.2,1.53-.35,1.54l.2.35v1.45h-.1l-1.72-.4v.29c.11,0,.16,0,.16,0-1.16.15-2,.25-2.52.28h-.51c0,.21-.06.31-.18.31l.18.36v.28q0,.12-.18.12a1.45,1.45,0,0,1,.18.48c.1,1.74.15,2.78.15,3.1L27.61,41l.85.54v.38c-1.71.69-2.57,1.15-2.57,1.38v2.42c0,.09-.1,1.1-.29,3.05l.29.58a8.32,8.32,0,0,1-1.19,3l-.86,0a1.21,1.21,0,0,0-.64.19c-.83,0-1.36-.43-1.58-1.4l-.91-1.32a.81.81,0,0,1,.56-.56,3.1,3.1,0,0,1,1.53.41A4.05,4.05,0,0,0,23.13,48V44.29a16.5,16.5,0,0,0-2.93,1.06l-1.45-.23v-.5c.07,0,1.53-.54,4.38-1.6V42.4l.16-.93a1.12,1.12,0,0,1-.16-.39c.2,0,.3-.13.3-.37v-.3l-.14-.88a1.33,1.33,0,0,0,.14-.65l-.62-1.54-3.06.16c-.12,0-.25-.12-.39-.38v-.39a12.53,12.53,0,0,0,1.54-.38v.19l.39-.21.58,0c.07,0,.1.06.1.19l.37-.21.95-.05a1.29,1.29,0,0,1,.16-.66,1.17,1.17,0,0,1-.16-.44,1.32,1.32,0,0,1,.14-.46,11.77,11.77,0,0,1-.3-2.21h.18A3.45,3.45,0,0,1,23,31.08,2.55,2.55,0,0,1,24.13,30.75Zm10,7.51a1.7,1.7,0,0,1,2.05,1.91H36c.14.57.32.84.52.83l3-.14a2.08,2.08,0,0,1,1.9.77v.09L40,41.79c-.34,0-.51.08-.51.17l-.7-.11L36.33,42v.2q0,.33,4.24,3.76c1,1,1.61,1.46,1.8,1.46v.35a6.35,6.35,0,0,0-1.92.82,28.24,28.24,0,0,0-3.22-1.94l.13-.27c-.51-.25-.77-.51-.77-.76h-.22c-.23,0-.35.17-.35.37v.46a1.54,1.54,0,0,0,.15.77,6.67,6.67,0,0,1-.31,1.5,1,1,0,0,1,.16.54h-.15c0,.18.05.27.15.26l-.15,1.76V52l-1,.06c-.06,0-.1-.07-.1-.2l-.36.22h-.59a.71.71,0,0,1-.85-.64c.09-.52.2-2.1.3-4.75H33q-2.79,3-5.24,3.12l-.28-.39c0-.51.45-1.07,1.34-1.69a23,23,0,0,0,3.36-4.86v-.38l-2,.1a1.22,1.22,0,0,0-.61.18c-.47-.1-.7-.21-.7-.35v-.56a5.65,5.65,0,0,1,1.31-.37l.9.11c1.34-.07,2-.32,2-.76s.07-.55.2-.56l-.2-.36v-1.2Q33.1,38.5,34.12,38.26ZM32.9,33.79c.91,0,1.39.46,1.46,1.54,0,1.77-.59,2.69-1.76,2.74a13.77,13.77,0,0,0-2.22,1v-.17l-.37.22c-.05,0-.08-.06-.08-.19l-.37.22-.84,0c0-.14-.15-.32-.45-.55v-.3c0-.21.65-.48,2-.8v-.3h.1c.07,0,.1.06.1.19a1.4,1.4,0,0,0,1-1.35c0-.14,0-.2-.11-.19a.9.9,0,0,0,.11-.41l-.14-1.31A3.34,3.34,0,0,1,32.9,33.79ZM35,33.68l.6,0a3.74,3.74,0,0,1,2.07.49v.27a11.27,11.27,0,0,1-.16,1.67l.15.3a1.13,1.13,0,0,0-.15.54l.36-.19a7.33,7.33,0,0,0,2.87.29c.37.26.56.44.56.53v.24l-2.68.14c-2.58.13-3.88-.21-3.88-1h-.13l.13-.69V34C34.8,33.78,34.88,33.69,35,33.68Z"/><path d="M58.73,30.87c1,.21,1.44.43,1.44.65v.13L60,32.79q.15,0,.15.15.27,0,.27-.18l1,.11a1.41,1.41,0,0,0,.61-.18c.36.05.54.15.54.31l.38-.2h.07a1,1,0,0,0,.31.56v.43q0,.28-1,.6l-1.2-.25q-1.26.46-1.26,1.23c.3,0,.45.06.45.19-.34,0-.66.36-.94,1.05,1.53,0,2.29.07,2.29.23a1.85,1.85,0,0,1,.52-.22l1.83.07a1,1,0,0,1,.43-.18l.3.15.33-.19,2.66.47.15.52a33,33,0,0,0-2.41,3c-1.35-.09-2-.23-2-.43A6.1,6.1,0,0,0,65,37.57l-.82-.11-.9,0q-1.5.08-3.66,0a1.08,1.08,0,0,1-.53.18v-.18l-.35.19-.31-.13a1.31,1.31,0,0,1-.39.18v-.21l-.39.21h-.12c-.07,0-.1-.06-.1-.18l-.38.22-.58,0a6.43,6.43,0,0,0-2.3.52l.12-.26H54v.14l-.24-.11a1,1,0,0,0-.62.18,1,1,0,0,0-.51-.12c0,.11-.2.28-.59.5,0,.08-.06.77-.16,2.06.16,0,.31.12.45.38s-.54.45-1.61.62c-.77-.12-1.15-.43-1.15-.93s0-.66-.12-.66a.9.9,0,0,0,.12-.41l.16-2.43a1,1,0,0,1-.16-.39l1.32-.21a13.33,13.33,0,0,1,2.25.64h.18l.58-.35.31.15a9.53,9.53,0,0,1,2-.39,7.56,7.56,0,0,0,1.25.06l.21-.41c-.23,0-.34-.11-.34-.38,0-.09,0-.5.14-1.22v-.21l-.25,0v.29Q53,34.81,53,34.45c0-.2,1.4-.5,4.21-.92a1.5,1.5,0,0,0,.63-1,3.41,3.41,0,0,0-.29-1.07,1,1,0,0,0,.15-.4h.09c.07,0,.1.06.1.18ZM54.06,47.45c1.15.1,1.73.24,1.73.44a30.18,30.18,0,0,0-2.71,2.71,2.26,2.26,0,0,1-1.61.8l-1.37.08c-.17,0-.26-.07-.26-.22V51A3.82,3.82,0,0,0,52,48.9Zm4.07-9c.61.22.94.44,1,.65v.08q-.45,0-.45.54c0,.14-.46.61-1.37,1.42,0,.27-.15.42-.45.43v.26h.42c0-.26.41-.53,1.25-.8a.3.3,0,0,0,.37.25A4.58,4.58,0,0,0,60,39.14L60.7,39c1,.06,1.44.22,1.44.47-1.72,2.64-2.77,4-3.14,4.21l-.94.51v.26l.82-.21,1.21,0a11,11,0,0,0,1.64-.24,1.77,1.77,0,0,0,.87.25v.1c0,.23-.44.44-1.32.62-.06,0-.08,0-.08-.15q-1.32.22-1.32.57v.17l.6,4-.19,0,.19.34v1.06q0,1.06-1.92,1.56l-1.2.06L54.09,52v-.4c0-.13.14-.26.4-.42l2.13.05c.29-.06.51-.34.65-.84l-.15-.31.15-.28c0-.14-.05-.22-.15-.22l.15-.69V46.35l-.18-.83L56,45.74l-.81-.13c0,.21-.13.33-.4.35a1.34,1.34,0,0,1-.75-.12,13.29,13.29,0,0,1-1.68.23l-.84.06v-.8a3.78,3.78,0,0,0,1.45-.4l.3.15q3.34-1.06,4-2.29L55.68,43h-.14q-.09,0-.09-.18l-.38.21h-.28c-.5,0-.78-.09-.86-.36v-.26q3-2.26,3-3.78l.55,0A1.13,1.13,0,0,0,58.13,38.49Zm-.67,11.72a1.5,1.5,0,0,1-.19.73l.45,0V50.2Zm4.33-7.37,1-.05c.56,0,1.32.49,2.25,1.55h.13v.35l-.72.17-.88,0c-.79-1.07-1.39-1.6-1.79-1.59Zm1.32,3.71h.31c.66.18,1,.39,1,.63s.3.59.9.9c0,.17.66.83,2,2a1.23,1.23,0,0,0,.13.44l-.41.86-1.72.09c0-.41-.42-1.09-1.25-2-.33,0-.57-.23-.74-.72-.18,0-.68-.52-1.51-1.57v-.37s.05.07.05.2A2.52,2.52,0,0,1,63.11,46.55Z"/><path d="M25.46,67.6q2.19-.1,2.19,1.05l.16.59a23.21,23.21,0,0,0-.16,2.7v1.27l.81,0,1,.07v.52c-1.31.13-2,.33-2,.58v2.82a4.29,4.29,0,0,1,2-.74l-.35-.48c.09-.28.37-.43.85-.45l2.61-.14a32.92,32.92,0,0,1,.3-3.72c-1.3,0-2-.14-2-.43s.09-.28.23-.29l1.71-.07c0-1.9.34-2.87,1-2.91a1.36,1.36,0,0,1,.57-.18c1.26-.06,1.89.3,1.89,1.06v1.41l1-.07a7.22,7.22,0,0,1,1.75.21v.37c-1.9.19-2.84.44-2.84.77a28.48,28.48,0,0,0-.31,3.4l1.87-.26,1.79-.09c1.47-.07,2.2.07,2.2.43s-2.1.66-6.31,1c0,.09-.43.15-1.3.19l-3,.16-1.55-.08c0,.34-.75,1.25-2.26,2.7v9.64c0,1.36-.28,2-.84,2.08l-1.2.06c-1,0-1.56-.15-1.61-.61A15.36,15.36,0,0,0,24,87.74V81.93A4.63,4.63,0,0,1,21.56,83,11.1,11.1,0,0,1,20,82.8v-.51a22.29,22.29,0,0,0,4.2-3.08v-3l.15-1.88-1.75.1c0,.38-.71,1.57-2.12,3.59,0,.26-.27.46-.7.6-.56-.09-.83-.2-.83-.33q0-.49,1.5-6.85c0-.47.28-.71.85-.73l.59,0c1,.07,1.45.23,1.45.48v1A6.16,6.16,0,0,1,23,73.58l1.33-.06v-.2a28.43,28.43,0,0,1,.3-4.84,1.1,1.1,0,0,1-.15-.57V67.8Zm9.78,9.28,1.62-.07c1.57.09,2.36.58,2.36,1.46v1.27l.35,0c1.77,0,2.65.19,2.65.55s-1,.61-3.16.72v6.5l.16.89c0,.92-.64,1.54-1.92,1.85H37c-1.41.06-2.3-.33-2.66-1.18a1.67,1.67,0,0,1-.28-.87v-.25l1.13,0,.36.15V81c-1.7.18-3,.29-3.8.34l-.61,0q-1.89,0-1.89-.45v-.16q0-.39,6.3-1V78c0-.09-.25-.33-.75-.75Q34.82,77.12,35.24,76.88Zm-3.17,5.41c1.46-.07,2.19.72,2.19,2.39a2,2,0,0,1-1,1.49l-.86,0c-1.18-1.51-1.77-2.62-1.77-3.31v-.26A7.93,7.93,0,0,1,32.07,82.29Z"/><path d="M51.38,71.83c1.08-.06,1.61.09,1.61.45a8.48,8.48,0,0,1-1.27,3.9L52.91,76l.49,0c0-.3.08-.46.24-.46l.9,0c.87-.05,1.3.25,1.3.9v1.06q0,3.49-3.14,8a12.17,12.17,0,0,1-4.26,2.72v-.19a30.89,30.89,0,0,0,3.45-5.61v-.51c-.26,0-1.06-.58-2.39-1.79v-.22l1,0a3.44,3.44,0,0,1,2.12.82,8.23,8.23,0,0,0,.64-3.1v-.83l-1.92.09q0,.92-4,4.12H47.1v-.07a6.31,6.31,0,0,0,1-2.76,15.46,15.46,0,0,0,2.38-6.11ZM55.75,70a12.6,12.6,0,0,0,1.45.22v.34a1.64,1.64,0,0,0-1,.33,1.63,1.63,0,0,0-.74-.23c-.42,0-2.77.23-7.06.65l-.69-.1V70.8A78,78,0,0,1,55.75,70ZM61,68.2l.45,0c1.47,0,2.2.21,2.2.57v5.32h.21c.33,0,.5-.24.5-.63l1-.05c1,.06,1.44.22,1.44.47v.25l-2.21.4-.94.06v3.72c1.4-.17,2.42-.28,3.06-.3l1-.06,1,.1v.08a.23.23,0,0,1-.24.27l-4.86.39v1.4q0,.84,3.15,3.18a25.21,25.21,0,0,0,3.43,2.81q-.42.38-.42.57h-.4l-2-.65q-.52,0-3.66-2.57v5.36c0,.76-.44,1.17-1.3,1.21a2.87,2.87,0,0,1-2.81-1.19,1.09,1.09,0,0,0-.57-.29.22.22,0,0,1,.23-.2l.45,0,1.57.06V82.09c-2.36,2.58-4,3.9-5,4,0-1.05,1.42-3.38,4.26-7H60.4q-.42,0-3,.3c-.57-.06-.85-.18-.85-.34v-.11c2.4-.22,4-.4,4.66-.54V74.68l-1.74.09a44.55,44.55,0,0,1-2.7,3.75h-.51A53.88,53.88,0,0,0,57.61,71v-.16l-.15-.68.71-.19h.13c1.17-.06,1.75.3,1.75,1.06v1.49a6,6,0,0,1-.48,1.75l1.64-.07V71c0-.49,0-1.26.16-2.3l-.61-.13v-.09C60.78,68.29,60.86,68.2,61,68.2Z"/><path d="M79.56,70.23a37.65,37.65,0,0,0,4.81.36l5.9-.45c0-.3.23-.46.7-.47l1.65-.09c.65.07,1,.18,1,.33a10.73,10.73,0,0,0-.45,3.33v.3a32.94,32.94,0,0,0,2.42,11.84l.35-.2h.28l1,.1a1.24,1.24,0,0,1-.15.39,7.81,7.81,0,0,1,.15,1.21c0,.87-.63,1.33-1.9,1.39-1,0-1.71-.54-2-1.8a33.18,33.18,0,0,1-2.86-12.91c0-.41.06-1.34.16-2.8l-.39.2-6.74.33c-.49,0-1.26,0-2.3,0q-.6,10.85-1.65,14.69c-1,1.66-1.86,2.59-2.66,2.79l-.51,0A65.27,65.27,0,0,0,78.56,71.4q-.45-.14-.45-.81A4.52,4.52,0,0,1,79.56,70.23Zm8.25,2.29c.71,0,1.09.08,1.15.34s-.8.55-2.4.83c.1,1,.15,1.78.15,2.29v.2l.8,0a10.75,10.75,0,0,0,1.22-.37l1,0c.16,0,.24.12.24.38,0,3.27-.28,4.91-.84,4.94L88,81.12c-.26-.08-.39-.37-.39-.88l-.86,0v1.57l-.17,1.57,1.63-.08c0-.61.18-.92.55-.93l1.19-.08c.57,0,.86.16.86.36V83c0,1.64-.5,2.7-1.48,3.19l-.88,0c-.26,0-.39-.42-.39-1.13V83.8a31.57,31.57,0,0,1-5.31,1l-.9,0c-.17,0-.26-.08-.26-.23.33-.48,1.34-.77,3-.86V80.38l-1,.07c0,.59-.38.91-1.15,1s-1.09-.09-1.14-.35c-.1-1.8-.15-3-.15-3.58,0-1.37.28-2.07.84-2.09l1-.06c.27,0,.41.34.41,1l1.3-.08c0-.53.05-1.32.16-2.37-1,.15-1.81.24-2.32.27l-.68,0v-.37A21.39,21.39,0,0,1,87.81,72.52ZM83.41,77l.14,1.55V79.8l1.16,0V76.93Zm3.3-.18v2.83l.86-.05v-.95l.14-1.88Z"/><path d="M115.84,67.85l1.6-.08a4.8,4.8,0,0,1,1.62.36v1.94l.3.44v1.71l.66,0c2.38,0,3.58.17,3.58.67,0,.23-.68.45-2,.65v-.19l-.36.22h-.58l-.46-.27-.82,0a6.28,6.28,0,0,1-.24,2.29h-.22l.17,1.19.36-.2,1.2-.07a6.74,6.74,0,0,1,3.12.44v.22q-1.32.36-1.41.36v-.17l-2.42.58c0-.1-.08-.15-.25-.14v.27h.12l-.12.25a3.77,3.77,0,0,0,1.52,2.08c.5.94.91,1.43,1.23,1.48q.42.53,4.06,3.85v.12a.26.26,0,0,1-.26.28h-.29c-.07,0-.1-.07-.1-.21a4.45,4.45,0,0,1-1.57.75H124a26.61,26.61,0,0,1-4.91-4.22v.44a1.68,1.68,0,0,1,.3.86,1.73,1.73,0,0,0-.3.8c.1.52.15.81.15.89l-.15.91.14.31a1.64,1.64,0,0,0-.29.78q.15,1.49.15,2.22a1.78,1.78,0,0,0-.31.75h-.24a1.32,1.32,0,0,1-.6-.13,1.32,1.32,0,0,1-.62.19,6.82,6.82,0,0,1-.91-.11,1.19,1.19,0,0,1-.54.18,6.53,6.53,0,0,0-.3-2.24l.15-.7v-2c0-.06.06-.09.18-.1a1.31,1.31,0,0,1-.18-.5,1.22,1.22,0,0,0,.15-.58l-1,.86c-.13,0-.49.33-1.07,1h-.12l-.36-.16c0,.24-.31.57-.87,1l-1.21.06-1,.18c0-.29-.08-.44-.23-.43a2,2,0,0,0-.29.19q5.23-5.06,5.67-8.62h-.23a1.23,1.23,0,0,1-.39.17v-.2l-.37.21c-.05,0-.08,0-.08-.17l-.38.2-.59,0-1.57-.07c0,.1,0,.15,0,.15v-.31l-.58,0v.34a1.15,1.15,0,0,0,.15.61,3.14,3.14,0,0,0-.44,1.54v1.3l-.34,0,.18.34c0,.11-.14.25-.42.4l-.23,0c0-.2-.07-.3-.22-.3a6.39,6.39,0,0,1-1.35.37q-.39,0-.39-.45l-1.82.59a1.18,1.18,0,0,1,.19.73l-1.55.36v-.14c-.18,0-.26.07-.26.17-.94,0-1.41-.38-1.41-1.08l.6-10.2-.15-.28c0-.06.06-.09.16-.1l-.16-1.1v-1l.56.12.3-.18.3.15.32-.18a11.35,11.35,0,0,1,2,.49v.42c0,.47-.12.71-.35.73a1.54,1.54,0,0,1,.19.84l1.59-.23a4.54,4.54,0,0,1,2.77.53,2,2,0,0,1,.12-.82c.14,0,.21,0,.21.16a21.62,21.62,0,0,1,2.33-.28l1.87-.1C115.89,70.2,115.84,68.69,115.84,67.85Zm-9,7.3v.66l.15.9a3.62,3.62,0,0,0-.31,1.23l.16.59-.61,2.31c0,.14,0,.21.13.2l-.13.71V82a10.93,10.93,0,0,1,1.77.22V79.87l.16-1-.16-.29c.1-.87.21-1.31.3-1.32,0-.17,0-.26-.13-.26a11.21,11.21,0,0,0,.29-2.45A6.45,6.45,0,0,1,106.8,75.15Zm5-1.46-.15.37v.31a1.6,1.6,0,0,0,.13.75,15,15,0,0,0-.29,2,1.11,1.11,0,0,1,.16.49l2.62-.13c1.14-.06,1.71-.36,1.71-.89V75.21a3.73,3.73,0,0,0-.33-1.72l-.35.18-2,.1a1.14,1.14,0,0,1-.59-.12l-.31.15A1.41,1.41,0,0,0,111.8,73.69Z"/><path d="M134.12,83.17h.43c.2,0,.42.21.65.64v1.52c-.17.58-1.33.94-3.47,1.08a12.18,12.18,0,0,1-1.29-.22v-.64l.2-1.09a.37.37,0,0,1-.42-.43C130.22,83.46,131.52,83.17,134.12,83.17Z"/><path d="M141.89,83.17h.43c.2,0,.42.21.65.64v1.52c-.17.58-1.33.94-3.47,1.08a12.18,12.18,0,0,1-1.29-.22v-.64l.2-1.09A.37.37,0,0,1,138,84C138,83.46,139.29,83.17,141.89,83.17Z"/><path d="M149.66,83.17h.43c.2,0,.42.21.64.64v1.52c-.17.58-1.32.94-3.46,1.08a12.59,12.59,0,0,1-1.3-.22v-.64l.21-1.09a.38.38,0,0,1-.43-.43C145.75,83.46,147.06,83.17,149.66,83.17Z"/></g></g><ellipse class="cls-1" cx="142.88" cy="121.7" rx="6.88" ry="3.66"/><ellipse class="cls-1" cx="154.81" cy="128.68" rx="4.81" ry="2.55"/><ellipse class="cls-1" cx="164.83" cy="130.85" rx="2.17" ry="1.15"/></g></g></g></svg>