<svg xmlns="http://www.w3.org/2000/svg" viewBox="0 0 213 143.28"><defs><style>.cls-1{fill:#fff;}.cls-2{isolation:isolate;}</style></defs><g id="圖層_2" data-name="圖層 2"><g id="_0-ui_kits" data-name="0-ui_kits"><g id="對話框-啤酒地圖"><ellipse class="cls-1" cx="106.5" cy="61.5" rx="106.5" ry="61.5"/><g id="尋找_特殊風味..." data-name="尋找 特殊風味..." class="cls-2"><g class="cls-2"><path d="M28.49,42.54l1.2-.07A5,5,0,0,1,31.2,43a5.23,5.23,0,0,1,2-.39l2-.09c1.17-.06,1.76.48,1.76,1.61H36.7l.19.35v1.8c0,.07-.06.11-.19.11l.19.35-.15.76A7.85,7.85,0,0,1,36.89,49H36.7l.19.36s-.06.09-.19.09l.19.37c0,.16-.11.24-.33.25l.18.36v.83c-.2,0-.3.05-.3.14a3.57,3.57,0,0,0-1.6-.18l-.77,0c-.16,0-.25-.08-.25-.23V49.85c-.57.14-.89.22-1,.22s-.1,0-.1-.15a13.14,13.14,0,0,0-2.23.57l.14.74-1,.05c-1.27.07-1.91,0-1.91-.28v-.6l.31-.48V48.26a47.81,47.81,0,0,0-.31-5.55ZM31,44.1v3.07a1.21,1.21,0,0,0,.15.62c0,.06-.05.09-.15.1l.15.8v.51l1.59-.08,1.09-.22v-5l-.18-.37A12.23,12.23,0,0,1,31,44.1Zm1.88-11.6.76,0,2.1.51a23.73,23.73,0,0,0,3.64-.65c.05,0,.08.06.08.16A10.42,10.42,0,0,0,41,32.08c1.46-.07,2.2.48,2.2,1.65,0,.41,0,1.3.15,2.68l-.15.32c0,.15,0,.22.14.22l-.14.7v1.91l-.55,0a1.22,1.22,0,0,0-.61.18l-.3-.14a8.25,8.25,0,0,1-1.35.23h-.11l-.15-.71v-.51A6.75,6.75,0,0,0,38.8,39v-.13a6.24,6.24,0,0,1-1.25.38q-.09,0-.09-.15l-4.28.67-.32-.14a1.62,1.62,0,0,1-.43.18l-.27-.39c.1-1.77.15-2.88.15-3.34l-.13-1.29h.15a7.2,7.2,0,0,1-.46-1.84v-.27Zm2.36,1.42v.21l.16,1.75h-.2l.2.34a11,11,0,0,0-.16,1.69v.15l.17.33c3.29-.46,4.93-.81,4.93-1a15.18,15.18,0,0,0-.33-4A34.14,34.14,0,0,1,35.23,33.92Zm10.18,7.62.3.12L46,41.5q2.19-.11,2.19,2v.15A5.36,5.36,0,0,1,47.92,45l.16.92c0,.47-.11.71-.34.73l.34.64a7.7,7.7,0,0,0-.16,1.37l.3.43a1.21,1.21,0,0,0-.14.46l.14.28a1.25,1.25,0,0,0-.14.55l-.71-.1a12.37,12.37,0,0,1-1.77.25A8.18,8.18,0,0,1,45.3,49L43,49.11a1.31,1.31,0,0,0-.61.16,1.1,1.1,0,0,0-.49-.11l-.16.34v.87h-.09l-1.27-.09v.13l-.25-.1H40c-.23,0-.35.15-.35.32-.63,0-.94-.81-.94-2.48q-.31-5-.45-5.68l.69-.16.76,0a5.57,5.57,0,0,1,1.81.36l1.3-.36v.14Zm-4.19,2.24a13.81,13.81,0,0,1,.51,3.41l-.19,0a1.86,1.86,0,0,1,.19,1l1.88.06a11.4,11.4,0,0,1,1.7-.24V46.79c0-.85-.05-2.14-.15-3.84A27.08,27.08,0,0,0,41.22,43.78Z"/><path d="M67.08,30.35l1.6-.08a4.76,4.76,0,0,1,1.61.36v1.94l.31.44v1.71l.66,0c2.38,0,3.57.17,3.57.67,0,.23-.67.45-2,.65v-.19l-.37.22h-.57l-.47-.27-.81,0c0,1.52-.13,2.28-.25,2.29h-.22l.17,1.19.37-.2,1.2-.07a6.77,6.77,0,0,1,3.12.44v.22q-1.33.36-1.41.36v-.17l-2.42.58c0-.1-.09-.15-.26-.14v.27H71l-.12.25a3.85,3.85,0,0,0,1.53,2.08c.49.94.9,1.43,1.23,1.48q.42.53,4,3.85v.12a.25.25,0,0,1-.25.28h-.3q-.09,0-.09-.21a4.47,4.47,0,0,1-1.58.75h-.28A26.9,26.9,0,0,1,70.29,45v.44a1.71,1.71,0,0,1,.31.86,1.66,1.66,0,0,0-.31.8,7.71,7.71,0,0,1,.16.89l-.16.91.15.31a1.57,1.57,0,0,0-.3.78q.15,1.48.15,2.22A1.86,1.86,0,0,0,70,53h-.25a1.32,1.32,0,0,1-.6-.13,1.25,1.25,0,0,1-.62.19,7,7,0,0,1-.9-.11,1.23,1.23,0,0,1-.54.18,7.23,7.23,0,0,0-.3-2.24l.14-.7v-2c0-.06.06-.09.19-.1a1.21,1.21,0,0,1-.19-.5,1.13,1.13,0,0,0,.16-.58l-1,.86c-.13,0-.48.33-1.06,1h-.12l-.37-.16c0,.24-.3.57-.86,1l-1.21.06-1,.18c0-.29-.08-.44-.23-.43a1.86,1.86,0,0,0-.3.19q5.24-5.05,5.68-8.62H66.4a1.46,1.46,0,0,1-.39.17V41l-.37.21c-.06,0-.08-.05-.08-.17l-.38.2-.59,0L63,41.2q0,.15,0,.15V41l-.57,0v.34a1.25,1.25,0,0,0,.14.61,3.14,3.14,0,0,0-.44,1.54v1.3l-.34,0,.19.34c0,.11-.14.25-.42.4l-.23,0c0-.2-.07-.3-.22-.3a6.28,6.28,0,0,1-1.36.37q-.39,0-.39-.45l-1.81.59a1.25,1.25,0,0,1,.19.73L56.18,47v-.14c-.18,0-.27.07-.27.17-.93,0-1.4-.38-1.4-1.08l.6-10.2L55,35.44c0-.06,0-.09.16-.1L55,34.24v-1l.56.12.29-.18.31.15.32-.18a11.55,11.55,0,0,1,2.05.49v.42c0,.47-.12.71-.36.73a1.53,1.53,0,0,1,.2.84l1.59-.23a4.56,4.56,0,0,1,2.77.53,2,2,0,0,1,.12-.82c.14,0,.21,0,.21.16A21.34,21.34,0,0,1,65.35,35l1.87-.1C67.13,32.7,67.08,31.19,67.08,30.35Zm-9,7.3v.66l.14.9a3.81,3.81,0,0,0-.3,1.23L58,41l-.61,2.31c0,.14,0,.21.13.2l-.13.71v.22a11.18,11.18,0,0,1,1.77.22V42.37l.15-.95-.15-.29q.15-1.31.3-1.32c0-.17,0-.26-.13-.26a11.86,11.86,0,0,0,.29-2.45A6.72,6.72,0,0,1,58,37.65Zm5-1.46-.16.37v.31a1.58,1.58,0,0,0,.14.75,15.87,15.87,0,0,0-.3,2,1,1,0,0,1,.16.49L65.51,40c1.14-.06,1.71-.36,1.71-.89V37.71A3.73,3.73,0,0,0,66.89,36l-.36.18-1.94.1a1.2,1.2,0,0,1-.6-.12l-.3.15A1.41,1.41,0,0,0,63,36.19Z"/><path d="M94.54,46.63h1.31c.57,0,.86,1,.86,3q0,2.67-5,3.89c1.3-1.67,1.94-2.83,1.94-3.46v-.22q-1.29,0-1.29-2.16Q92.71,46.63,94.54,46.63Z"/><path d="M35.12,73.43c1.16,0,1.74.17,1.74.41a22.38,22.38,0,0,1-5.71,1v.4a.8.8,0,0,1,.75.52v3.36h.22l1.55-.25V78.1c0-.13.18-.27.54-.43,1.57-.07,2.35.33,2.35,1.19V81.4q-.75,7.32-2.22,8.18c-2.05.1-3.08-.18-3.08-.83a1.25,1.25,0,0,0-.27-.88l.21-.13a2.27,2.27,0,0,0,1.24.38,21.28,21.28,0,0,0,1.23-6.86V79.55l-1.76.09c-.8,4.44-1.45,6.68-2,6.7q0,.82-3,3.15l-.28.12q.54,0,2.46-9.18a13.41,13.41,0,0,0,.15-2.11V75.24c-1.6.09-2.4,0-2.4-.25v-.26C31.63,74.2,34.36,73.76,35.12,73.43Zm-4.51-3.08c1.49-.08,2.47.2,3,.85v.28c0,.79-.77,1.51-2.31,2.17-.34-1.88-.65-2.82-.94-2.8s-.25-.06-.25-.22v-.11Zm8.72-1.65.44,0c.86,0,1.29.53,1.29,1.68a6.89,6.89,0,0,1-.47,1.89l.83,0a31.41,31.41,0,0,0,4.37-.81l.58-.05.7.12v.21a24.38,24.38,0,0,1-4.75,1l-1.83.09A22.51,22.51,0,0,1,37,76.67h0A72.85,72.85,0,0,0,38.91,69ZM44,75.23c1,0,1.45.13,1.45.32v.13a12.42,12.42,0,0,1-4.66,2.76v.26c.89,0,1.81.68,2.74,2.15L46,78.28l1.17-.06c.37.17.56.29.56.34-1.38,1.76-2.69,2.67-4,2.73a41.66,41.66,0,0,0,5.18,7.07c.28,0,.43,0,.43.21v.26l-.56.16c-2.34.12-3.67-.56-4-2-.14,0-.71-.73-1.7-2.22a20.53,20.53,0,0,0-2.3,4c0,.26-.38.41-1.14.46a10.78,10.78,0,0,1-2.5-.19v-.34a1.51,1.51,0,0,0,1.35-.71,1.24,1.24,0,0,1-.14-.44q0-3.46-.16-10.93l.27-.16,1.32-.06c.57.35.85.69.85,1l.23,0C42.58,76,43.62,75.25,44,75.23Zm-3.21,5.56v4.82H41c1.23-.83,1.84-1.33,1.84-1.51A21,21,0,0,0,40.76,80.79Z"/><path d="M61.18,73.89l.27,0a5.07,5.07,0,0,1,1.75.79v.41c0,.7-.9,2.14-2.7,4.34v.22c.8,0,1.2.76,1.2,2.44v8c0,.16-.08.24-.25.25h-.14a4,4,0,0,1-2.2-.46l.15-1.77V81.89l-.17-1.15a14,14,0,0,1-4.16,2.66c0,.1,0,.15-.08.16h-.1v-.08q.51-1.64,3.9-5.27a22,22,0,0,0,2.43-3.62A1,1,0,0,1,60.9,74Zm-.61-6.29h.29a2.14,2.14,0,0,1,2,1,10.56,10.56,0,0,1-4.33,5.57,3.27,3.27,0,0,1-1.86.84q0-1,3.15-5.48l.6-1.1-.13-.72ZM76,75.09a1.52,1.52,0,0,1,1.44.64v.1a5.29,5.29,0,0,1-1.29.34l-2,.11v.27q.38,0,.9.81v3a1.27,1.27,0,0,0,.16.62c0,.05,0,.08-.16.08.11,1.21.16,2.07.16,2.6v4.2c0,1.87-.53,2.83-1.61,2.88A2.67,2.67,0,0,1,71.28,90l.13-.9c-.35-.92-.85-1.37-1.48-1.33v-.34a1.32,1.32,0,0,0,.4-.18,15.26,15.26,0,0,0,2,.21l.16-1.85v-8a1,1,0,0,0-.66-1.08l-5.11.7a8.76,8.76,0,0,0-1.45-.37v-.51A92.34,92.34,0,0,1,76,75.09Zm-.75-6.85c1.06,0,1.59.18,1.59.44v.16q0,.69-7.9,1.08l-.9,0a11.15,11.15,0,0,1-2.65-.3v-.5q3.73-.35,6-.46l2.12-.09Z"/><path d="M87.85,69.32c2.15.07,3.22.3,3.22.69v.13A17.8,17.8,0,0,0,89,74h.22a24.44,24.44,0,0,1,4.08-1c.36.05.54.11.54.2a38.32,38.32,0,0,0-1.06,7.72h-.18l.18.34-.14.92c0,.14,0,.21.13.21l-.13.69v1.21A3.89,3.89,0,0,1,92.24,86c.13,0,.19,0,.19,0l-2.37.42c-.44,0-.67-.33-.7-1l-2.52.76v2.15a1.78,1.78,0,0,1-1.46.92l-.3-.13-.32.17a1.44,1.44,0,0,1-1-.95l.16-1.07v-.15q0-1.19-.46-5.57c0-.07,0-.1.16-.11l-.16-1.11v-1a18.59,18.59,0,0,0-.3-3.44l.16-.33A5.58,5.58,0,0,1,83,74.07a1.86,1.86,0,0,1,.85-.33l2.32-.11a2.9,2.9,0,0,1,1.2-2l.31-1.08v-.16l-.13-.7C87.76,69.63,87.85,69.52,87.85,69.32Zm-1.62,7,.14.32L86.24,78c.06,1.65.23,2.47.51,2.45A18.47,18.47,0,0,1,89.61,80H90l.61-5.29h-.23A12.86,12.86,0,0,0,86.23,76.28Zm.14,5.59.32,1.66c0,.07-.06.1-.17.1l.17.82V85h.21a11.22,11.22,0,0,0,2.09-.4l.14.29a1.58,1.58,0,0,1,.54-.2c.1-1.21.15-2.08.15-2.62V80.74A9.64,9.64,0,0,0,86.37,81.87ZM96.9,68.43l.25.12.93,0,1.46.07a21.36,21.36,0,0,1-1.39,5.21l.69,0c.49,0,1.86-.24,4.09-.65,1.36-.07,2,.17,2,.74a2.54,2.54,0,0,1,.45,1.18,18.07,18.07,0,0,1-.6,3.3c0,.18,0,.27.13.26-.67,5.7-1.27,8.57-1.78,8.59-.34,1.74-.93,2.63-1.77,2.68h-.32c-.06,0-.09-.07-.09-.2l-.37.22-.73,0a6.18,6.18,0,0,1-2.24-1.85h-.13v-.34a1,1,0,0,1,.55.15,2.36,2.36,0,0,1,1.15-.39c0,.15.38.39,1.14.73a8.37,8.37,0,0,0,.79-2.51,86.58,86.58,0,0,0,1.2-8.95h.19l-.19-.36c.1-.26.21-.39.32-.4a5.22,5.22,0,0,0-.5-1.92c-3.07.47-4.6.81-4.6,1q-1.52,4.13-2.25,4.15a3.56,3.56,0,0,1-1.75.54l-.14-.23a11.06,11.06,0,0,1,.77-2l-.15-.31a34,34,0,0,0,2.71-7.53v-1Zm-.09,11.34v.17a2.06,2.06,0,0,1,.51-.22,1.5,1.5,0,0,1,1.47.82,5.24,5.24,0,0,1,1.65,2.61c0,.27-.54.53-1.62.79l-.58,0a6.57,6.57,0,0,1-1-1.74Q95.56,80.45,95.56,80l.57,0Z"/><path d="M118.34,73.12l1.19-.06c.78,0,1.16.7,1.16,2.2.09,0,.14.08.14.28l.81,0c1.54-.07,2.31-.47,2.31-1.21q0-1.46.39-1.47l.91,0,1,.08v.26l.14.89c0,.14-.27.52-.83,1.14l3-.15c2.22,0,3.36.17,3.4.54v.23l-.85,0a15.06,15.06,0,0,1-3-.15c-1.64.18-3.1.3-4.36.37h-.17l-.71.46-.08-.17c.07,0,.11-.08.11-.25l-1,0c-1.19.12-1.81.31-1.84.55a.91.91,0,0,1-.38-.12c-4.12.41-6.5.63-7.16.66v-.34c1-.25,3.15-.55,6.35-.92a3.72,3.72,0,0,1-.8-2.11v-.45C118.12,73.21,118.2,73.12,118.34,73.12Zm-2.41,11.67.55.12a4.48,4.48,0,0,0,.15,1.15c-.1,1.12-.15,2.12-.15,3v.3l.13.23-.69.19-.89,0-1-.08A13.47,13.47,0,0,1,115.22,85Zm5.27-16.17.59,0c.87,0,1.31.56,1.31,1.81a1.64,1.64,0,0,1-1.36,1.08v.26h.2c.37,0,2.72-.24,7-.64l.27.38v.41l-.71.17-10.38.52a3.65,3.65,0,0,1-1,.5c-1.46,0-2.19-.24-2.19-.58v-.14c0-.18.11-.27.26-.28q3.81-.34,5.6-.43v-.22a11,11,0,0,1-.32-2.62Zm-2.41,8.53h.14c.87-.05,1.31.23,1.31.83l2.91-.15a2.81,2.81,0,0,0,2.13-.85h.42c1-.06,1.67.13,1.9.58-.1,1.36-.16,2.37-.16,3v2.66l-.71.17-1.19.06c-.49,0-.77-.09-.84-.35v-1l-.65,0c-.61,0-1.78.2-3.52.49v.78c-.09.27-.38.43-.84.45-1.16.07-1.74-.24-1.74-.9a9.29,9.29,0,0,1-.16-2V78.5C117.79,77.63,118.12,77.18,118.79,77.15Zm.74,7.47c.46,0,.79,1,1,3,0,.85,1.63,1.19,4.87,1l.8,0v-.81a1.88,1.88,0,0,1,.71-1.63,2.81,2.81,0,0,1,2.18,2.67c-.05.28-.43.44-1.15.48l-3.44.15c-4.27.22-6.41-.56-6.41-2.31S118.57,84.66,119.53,84.62Zm.84-6v1.16l4.33-.22V78.39Zm0,2v1.3l1.58-.22,2.75-.14V80.19l-2.47.13Zm3.08,3.4c.76,0,1.14.23,1.14.8v1l.61-.33s0,.27.14.79c-.26,1.08-.74,1.64-1.45,1.67q-1.59.08-1.59-.3v-.75c0-.53,0-1.37.15-2.51Zm5.13.36.57,0q2.1-.11,3,3.11v.44q0,.16-.87.75h-.12c-1.06-.47-2-1.82-2.82-4v-.1Z"/><path d="M152.26,76.78h.59c.65,0,1,.25,1,.74l.68,3.41a15.12,15.12,0,0,0,2.54-.34c1.17.07,1.76.24,1.76.49s-1.29.59-3.86.68h-.2A14.48,14.48,0,0,0,155.88,85a10.27,10.27,0,0,1,2.1-1.91,4.11,4.11,0,0,1,.92-.1c.79.07,1.18.18,1.18.35v.09a29.62,29.62,0,0,1-3.52,3.18,12.83,12.83,0,0,0,1.37,2.2.56.56,0,0,1,.63-.64,3.42,3.42,0,0,1,.59,0h0c.65,0,1,.11,1.17.34-.1,2-.36,2.93-.78,2.93a1.81,1.81,0,0,1-.78.15h-.69a1.88,1.88,0,0,1-1.71-1.12,21.42,21.42,0,0,1-1.66-2.49h-.09a13.77,13.77,0,0,1-3.42,1.46,8.34,8.34,0,0,1-2,.54h-.49c-.53,0-.86-.12-1-.34s.42-.34,1.27-.54a16.23,16.23,0,0,0,4.74-2.39s0-.07.14-.1a21.76,21.76,0,0,1-1.61-4.25c0-.19-.09-.29-.14-.29-.22,0-2,.14-5.33.44,0,.84,0,1.41,0,1.71h0a6.18,6.18,0,0,1,2.15-.59c.81.07,1.22.18,1.22.34V84a19.7,19.7,0,0,1-3.51,1.42,20.32,20.32,0,0,1-1,5.32c-.16.49-.59.73-1.27.73h-.44A2.32,2.32,0,0,1,142,90s-.12-.1-.24-.3v-.09c.13-.2.44-.3.92-.3h.4a2.94,2.94,0,0,1,.68.1c.23-1.16.39-2.2.49-3.12A17.22,17.22,0,0,1,141,87.33h-.24c-.85-.07-1.27-.19-1.27-.34v-.1q0-.18,2.1-.93c.67-.26,1.57-.55,2.69-.88,0-.44,0-.76,0-1v-.78l.05-.59a0,0,0,0,1-.05,0q-1.95.3-3.66.39c-.81-.06-1.22-.23-1.22-.49s1.37-.4,4.1-.63a2.36,2.36,0,0,1,.83-.1V80.45l-.05-.59c-1,.16-1.68.26-2.1.29-.8-.06-1.22-.19-1.27-.39v-.1c0-.18,1.32-.45,4-.83a12.46,12.46,0,0,1,3-.53c.81.07,1.22.2,1.22.39v.14c-.13.33-.46.49-1,.49,0,0-.16.05-.49.05h-.14l-.3-.05c-.22,0-.34.09-.34.15v2.15c2.66-.26,4.36-.41,5.13-.44v-.05q-.63-3-.78-4A1.51,1.51,0,0,1,152.26,76.78Zm2.4-10h.19c.72.06,1.08.17,1.08.34v0a13.37,13.37,0,0,1-2.74,3.42,28.51,28.51,0,0,1,3.13-.19c.78,0,1.17.17,1.17.34v.14a1.34,1.34,0,0,1-1.12.39h-.05a2.18,2.18,0,0,1-.78-.09q-.3,0-4.2.39c.09,0,.21.62.34,1.85.42,0,.65-.09.68-.29a1.76,1.76,0,0,1,.88-.2h.39c.4,0,.89,0,1.47,0,.78.13,1.17.27,1.17.44v0c0,.24-1.52.53-4.54.88v1.13c0,.09-.07.14-.2.14v0h.1c4.12-.32,6.84-.49,8.15-.49,1.08.08,1.61.26,1.61.54s-.48.42-1.46.49c-.6-.07-1-.1-1.22-.1q-3.32,0-17.38,1.56c-.88-.07-1.32-.22-1.32-.44v0c0-.27,1.85-.57,5.56-.88.07,0,1.57-.2,4.5-.49v-.05c-.59,0-.88-.33-.88-1,0-.06,0-.09-.1-.09l-4.93.48c-.82-.09-1.22-.2-1.22-.34v-.14c0-.23,1.79-.47,5.37-.74,0,0,.26-.07.78-.1v0a7.38,7.38,0,0,0-.29-1.86l-6.16.83h-.48c-.62-.06-.93-.17-.93-.34v0c0-.23,1-.46,3.12-.68a24,24,0,0,1,2.74-.39v0q-1.08,0-1.08-.69a18.33,18.33,0,0,1-.73-2.93,1.8,1.8,0,0,1,1.08-.29H147c.72,0,1.07.33,1.07,1a21.68,21.68,0,0,1,.59,2.63s-.1,0-.15.15h0l2.3-.24v0c-.1,0-.15,0-.15-.1v-.1a16.56,16.56,0,0,0,2.78-3.51C153.6,66.93,154,66.85,154.66,66.82Zm1,11.23h.25a10.23,10.23,0,0,1,3.12.74.39.39,0,0,1,.05.14c0,.22-.36.35-1.07.39h-.54c-1.95-.34-2.93-.6-2.93-.78v-.1C154.51,78.25,154.88,78.12,155.63,78.05Z"/><path d="M169.68,83.17h.42c.21,0,.42.21.65.64v1.52c-.17.58-1.33.94-3.47,1.08-.1,0-.53-.07-1.29-.22v-.64l.21-1.09a.38.38,0,0,1-.43-.43C165.77,83.46,167.07,83.17,169.68,83.17Z"/><path d="M177.44,83.17h.43c.21,0,.42.21.65.64v1.52c-.17.58-1.33.94-3.47,1.08-.1,0-.53-.07-1.29-.22v-.64l.21-1.09a.38.38,0,0,1-.43-.43C173.54,83.46,174.84,83.17,177.44,83.17Z"/><path d="M185.21,83.17h.43c.2,0,.42.21.65.64v1.52c-.17.58-1.33.94-3.47,1.08a12.18,12.18,0,0,1-1.29-.22v-.64l.2-1.09a.37.37,0,0,1-.42-.43C181.31,83.46,182.61,83.17,185.21,83.17Z"/></g></g><path class="cls-1" d="M98.76,120.84s10.37,5.49,2.85,22.44c0,0,18.1-12.4,14-27.55"/></g></g></g></svg>