<svg xmlns="http://www.w3.org/2000/svg" viewBox="0 0 170 139"><defs><style>.cls-1{fill:#fff;}.cls-2{isolation:isolate;}</style></defs><g id="圖層_2" data-name="圖層 2"><g id="_0-ui_kits" data-name="0-ui_kits"><g id="對話框-新手入門"><ellipse class="cls-1" cx="85" cy="61.5" rx="85" ry="61.5"/><g id="尋找_特殊風味..." data-name="尋找 特殊風味..." class="cls-2"><g class="cls-2"><path d="M29.35,31.56c1,0,1.61.65,1.92,2.11v.5h.23l.27-.15.3.12a5.83,5.83,0,0,1,1.37-.36l.29,0c.67,0,1,.09,1,.28l.4-.2.07,0c0,.3.2.54.61.72,0,.45-.89.72-2.66.81l1.28,1a8.1,8.1,0,0,1-1.2,2v.22c1.13.17,1.79.43,2,.77v.54a.79.79,0,0,0-.36.14v-.16a2.49,2.49,0,0,1-.9.39c0-.1-.08-.15-.26-.14,0,.09,0,.14,0,.14v-.34l-.46.33c0-.17-.07-.25-.23-.24l-.58.33-.61-.14a1.73,1.73,0,0,1-.38.19c0-.1-.09-.15-.27-.14v.26c.16,0,.37.21.61.67l-.15.74v1h.2c.35,0,1.21-.11,2.57-.29.77.13,1.15.29,1.15.49v.14c0,.28-.78.46-2.35.54l-1.57.07v1q0,2.17-.16,5.88c0,.48-.43.74-1.3.78a8.42,8.42,0,0,1-2.66-.45v-.23a1.54,1.54,0,0,0,.9-1.3,25.05,25.05,0,0,0,.16-2.86V43.87c-.36,0-1.34.12-2.93.3-.87-.06-1.31-.22-1.31-.48v-.26l1.47-.22,2.56-.12a.34.34,0,0,0,.36-.39V42a5.31,5.31,0,0,0-.48-1.4l-1.54.08-.93-.11a6.22,6.22,0,0,1-1.13.38c0-.18-.51-.36-1.53-.53L22.76,40v-.13q0-.29,1.32-.63c.05,0,.08.06.08.19l.38-.21h.12l.46.28,1.12-.07v-.5A5.71,5.71,0,0,0,25.31,36c-1.19.07-1.94-.23-2.25-.89v-.68l1.46-.09a12.21,12.21,0,0,1,1.51.23l2.48-.27a9.46,9.46,0,0,0-.75-2.4A3.75,3.75,0,0,1,29.35,31.56ZM25.88,44.87c1.48,0,2.21.22,2.21.58q0,1.83-3.28,4.2l-.85.19-.14-.69V49c.6-2.72,1.14-4.1,1.61-4.11Zm1.84-9.1a4.27,4.27,0,0,1,1.45,2c.09,0,.13.06.13.22l-.17.8.53.31H30a1.41,1.41,0,0,0-.13-.66,6.49,6.49,0,0,0,1.34-2.81l-.34-.16c-.15,0-.22,0-.22.15l-.7-.11-.62,0Zm4.68,9.08.88-.05c1.17-.06,1.76.8,1.76,2.56v.43a2,2,0,0,1-1.31.66c-1.06,0-1.6-1.1-1.6-3.45ZM43.17,32.53q1.62.4,1.86,1V34c-3.06,2-4.93,3-5.6,3v1.24a6.31,6.31,0,0,0,.31,1.42A24.83,24.83,0,0,0,44.17,39h.15a3.62,3.62,0,0,1,2,.46v.28q0,.18-.42.42l-.58,0a11.66,11.66,0,0,0-2.2.39v-.47c-.1.34-.64.53-1.64.58v.25c1.83,0,2.74.21,2.74.7q-.17,6-.16,8.94v1l-.72.15-.28,0c-1.47.07-2.21-.42-2.21-1.48v-.45c0-.51.05-1.29.16-2.35-.11,0-.16,0-.16,0h.18l-.18-.36v-.44c0-.07.06-.11.18-.11l-.18-.35V46c0-.07.06-.11.18-.11l-.18-.35c0-.07.05-.1.15-.1,0-.17,0-.25-.14-.25l.14-.7V42.7a7.19,7.19,0,0,0-.15-1.33,1.23,1.23,0,0,0,.15-.54l-1.27.06c-.36,0-.58,1.39-.66,4.12-.16,0-.36.83-.6,2.48-.93,2.54-2,3.85-3.26,3.9-.17,0-.26-.07-.26-.23v-.44c0-.07,0-.11.15-.11,0-.18,0-.27-.13-.27A11.59,11.59,0,0,1,35.6,48c0-.14,0-.22-.12-.22a21,21,0,0,0,.88-3.91c0-.14,0-.21-.14-.2l.14-.71V39.15a5.76,5.76,0,0,0-.91-3.59v-.24A5.33,5.33,0,0,0,36.77,35a13.67,13.67,0,0,1,2.12.37c1.44-1,2.16-1.65,2.16-1.9l.25.1q.66-.27.66-.78l1-.05C43.1,32.68,43.17,32.63,43.17,32.53Z"/><path d="M67.54,30.32v.2l.37-.22c1.06.06,1.6.4,1.6,1L63.6,32.69v.39c.61.1.91.38.91.83s0,1.28.15,2.92L66,36.77c0-.21,0-.32.1-.32s.25,0,.25.16l1.11-.22.91,0a6.26,6.26,0,0,1,1.75.36v.09a1,1,0,0,1-.7,1.06,27.4,27.4,0,0,0-2.86,0,7.21,7.21,0,0,0-1.88.41v.4h.27l-.12.22V41.3c0,.24.16.36.36.35l.75,0a8.85,8.85,0,0,1,1.36.08q.21,0,.21-.15l.71.1,2.87-.14a1.46,1.46,0,0,1,.6.11h.45l1,.53a.8.8,0,0,1-.55.55c-2.9,0-5,.1-6.2.16a1.3,1.3,0,0,1-.46-.13,1.33,1.33,0,0,1-.46.19l-.5,0q0,.55-.15,2.64l.15.29c0,.06,0,.09-.15.1L65,47.51v3c0,1.58-.68,2.41-2.06,2.47l-.3,0c-1.58,0-2.37-.19-2.37-.59l.17-1.13h-.32v-.39c0-.07.06-.1.18-.11l-.18-.34.18-.38c-.19,0-.51-.31-1-1-1.09-.68-1.64-1.09-1.64-1.23v-.26l.86,0a7.49,7.49,0,0,1,2.61.65l.47-2q0-.22-.15-.21l.15-.71V42.92l-.83.21-2.12.11a1.39,1.39,0,0,0-.62.16c-.05,0-.07,0-.07-.14l-2.48.43-.29-.15c-.14,0-.21.06-.21.16l-.71-.11-1.34.08a1.11,1.11,0,0,1-.72-1.07l1-.22h.6q2.32-.12,7.59-.54l.19-.35V38.89c0-.22-.46-.36-1.37-.42q0-.16-.21-.15l-1.37.07a1.32,1.32,0,0,0-.61.17,14.42,14.42,0,0,0-1.73-.2l.13-.64a.82.82,0,0,0,.42.11,9.43,9.43,0,0,1,2-.4l2.63-.14-.3-3.57h-.22c-2.65.93-4.11,1.41-4.38,1.43a3.86,3.86,0,0,0-1-.1V34.8c0-.14,1.81-1.13,5.42-2.95A48,48,0,0,1,67.54,30.32Z"/><path d="M84,31.89h.44c.84,0,1.27.21,1.27.63a.78.78,0,0,0-.15.44c0,.15,0,.63.05,1.46l-.05.69a8.56,8.56,0,0,1,1.46-.1h.79c.94.11,1.41.25,1.41.44v.19c0,.2-.89.33-2.68.4-3.19.39-5.22.58-6.11.58l-.1.05c-1.1-.1-1.69-.29-1.75-.59V36c0-.22,1.58-.43,4.73-.64-.19-.06-.29-.32-.29-.78a.7.7,0,0,1,0-.34c0-1.5.16-2.25.49-2.25A1.32,1.32,0,0,1,84,31.89Zm2.73,6.54c1.2.11,1.81.29,1.81.54v0a3,3,0,0,1-2.15,1.22h-.15a2.11,2.11,0,0,1-1.51-.43,30.33,30.33,0,0,1-3,.43,2.74,2.74,0,0,1-1.85-.48V39.6Q79.89,39.17,86.77,38.43Zm.88,3.22Q89,41.76,89,42v.1c0,.23-.46.34-1.37.34-1,.23-2.83.55-5.52,1-1.07,0-1.61-.2-1.61-.59v0a.76.76,0,0,1,.69-.39h.58c.49,0,.73.11.73.2A49.45,49.45,0,0,1,87.65,41.65ZM82,44.19h.3c.55,0,.86.11.93.29a6.37,6.37,0,0,1-.2,1.08h.1a10.81,10.81,0,0,1,3.07-1h.44c1,0,1.57.24,1.57.73-.13,3.58-.37,5.37-.74,5.37a5.47,5.47,0,0,1-.92.1h0a3.28,3.28,0,0,1-1.08-.14,5.47,5.47,0,0,1-1.9.43H83l-.1,0c0,.13-.26.22-.78.24h-.19q-1.08,0-1.08-.54l0-.34q.18-6.15.83-6.15A2.7,2.7,0,0,1,82,44.19ZM82.91,47c0,.8,0,1.43,0,1.91v1A11.38,11.38,0,0,0,85,49.07c0-.22.12-1.21.34-3a7.48,7.48,0,0,1-2.39.79A.26.26,0,0,1,82.91,47ZM94.19,31.45h.69c1.07,0,1.61.29,1.61.87,0,1,.05,1.81.05,2.4v.14l-.05.35h.78c1.84,0,2.77.14,2.78.43v.1c0,.21-1.15.34-3.46.39-1.3,2-2.45,3.64-3.47,5h0c.88-.19,1.7-.34,2.44-.44,1.14-2,1.74-3,1.81-3a2,2,0,0,1,.58-.1h.44c.68,0,1,.17,1,.39a40.73,40.73,0,0,1-4.35,6.69q-2.5,2.92-3.22,2.93a1.6,1.6,0,0,1-.39,0c-.85-.07-1.27-.19-1.27-.34v-.1a32.05,32.05,0,0,0,4.59-5.37h0a14.07,14.07,0,0,1-3,.49,2.13,2.13,0,0,1-1.71-.54A13.08,13.08,0,0,1,92,39.26l2-2.88h0l-2.83.34h-.64a1.54,1.54,0,0,1-1.27-.44v-.1q0-.3,4.2-.78a25.64,25.64,0,0,1-.19-3.61v-.05C93.26,31.58,93.6,31.49,94.19,31.45Zm4.54,10.74h.64c.55,0,.91.13,1.07.39a31.76,31.76,0,0,1-2.59,4.73h.69a2.41,2.41,0,0,1,2.1,1.23c1.53,1.62,2.29,2.62,2.29,3v0a2.28,2.28,0,0,1-1.36.29c-1.08,0-1.75-.24-2-.73a18.75,18.75,0,0,0-2.44-3A14.59,14.59,0,0,1,93.56,51a3.41,3.41,0,0,1-1.86.83c-.91-.08-1.36-.21-1.36-.39v-.05a19.94,19.94,0,0,1,2.34-1.66,14.57,14.57,0,0,0,3-3,30.59,30.59,0,0,0,2.44-4.35A1.28,1.28,0,0,1,98.73,42.19Z"/><path d="M28.72,69.46a2.61,2.61,0,0,1,2.49,1v.14A48,48,0,0,1,30,75.39l2.05-.1.62-.63.87,0c1-.05,1.51.2,1.59.76L32.4,83.9v.19c1.91,1,2.86,1.88,2.86,2.53v.11l-.71.18-.13,0c-.59,0-1.55-.49-2.88-1.54a6.76,6.76,0,0,1-2.71,3,4,4,0,0,1-1.48.51l-.45,0q-.18,0-.39-.36v-.15c0-.06.44-.77,1.33-2.15a6.43,6.43,0,0,0,1.36-2.68l-1.75-1.19c0,.19-.54.68-1.61,1.48h-.2l.27-.69-.16-.76,1.37-6a12.46,12.46,0,0,1-2.71-.3v-.25c0-.18.1-.27.24-.28l2.75-.12a43.65,43.65,0,0,1,1.21-5.07l-.14-.87Zm1.14,6.88a20,20,0,0,1-1.69,5.14,12.62,12.62,0,0,1,1.79.86,43.08,43.08,0,0,1,2-6.11Zm7-2.49c1.47-.07,2.2.44,2.2,1.54h.19c.18,0,1.39-.22,3.62-.62l.14,0a1.78,1.78,0,0,1,1.75.76q-.64,11.1-1,11.12A1.65,1.65,0,0,1,43,87c-1.27-.13-1.9-.48-1.9-1v-.66l-1.15.06-.16.81v1.35c0,.18-.08.26-.24.26-1.29.07-2.12-.18-2.5-.73v-.73q0-1.7-.6-12.26A1.19,1.19,0,0,1,36.82,73.85Zm2.49,2.47.45,8.06.36,0,1.11.1q0-1.89.61-8.27Z"/><path d="M56.74,68.26c1.56-.07,2.57.28,3,1A72.51,72.51,0,0,1,56,75.73v.2c1.09.24,1.64.7,1.64,1.38,0,.84.08,2.58.24,5.24-.08,4.89-.36,7.34-.84,7.37a.93.93,0,0,1-.49.14c-1.71.09-2.56-.3-2.56-1.18v-.32c.54,0,.88-2.65,1-7.87-.08-1.54-.12-2.68-.12-3.43H54.7A11.48,11.48,0,0,1,50.91,80c0,.12-.11.24-.34.37h-.11c-.09,0-.19-.1-.32-.31a14.88,14.88,0,0,1,2.37-4.7A55.4,55.4,0,0,0,56,69.14l-.11-.59ZM66,74.7c1.55.21,2.32.48,2.32.81a1.92,1.92,0,0,0,.26.75q-.84,4.88-1.87,6.32a3,3,0,0,1-1.85.82,2.43,2.43,0,0,1-1.59-.92l-.41,0a9.33,9.33,0,0,1-1.76.7c-1.62-.18-2.42-.44-2.42-.8l.12-1.51V76q0-.84,1.32-.9a3.9,3.9,0,0,1,2.23.64l2.17-.11A1.93,1.93,0,0,1,66,74.7Zm-.57-4.09.57.07,6.13-.31q3.06-.15,3.06.42v.11c-.07.24-.3.36-.68.38l-2.57.13v.34c.92,0,1.38.63,1.38,2V74.9q-.24,14.85-1.46,14.9l-.26.14h-.23q-3.69.18-3.69-1.17a5.85,5.85,0,0,1-1.51-.88c0-.12.15-.28.46-.48l1.73-.09.25.12q.7,0,.94-11.74V72.44A.86.86,0,0,1,69.3,72a.94.94,0,0,0,.12-.44l-3.93.2c-.48,0-1.82.17-4,.45-1.62,0-2.43-.08-2.43-.32v-.24c.07-.23.31-.35.7-.37l1.36-.07c.14,0,1.15-.13,3-.4l.86,0C65.27,70.72,65.42,70.68,65.42,70.61ZM62.3,76.89c.08,1.83.13,3.18.13,4.06v.15l.68.1h.38c.39,0,.74-1.5,1.06-4.42l-1.32.06a1,1,0,0,1-.5-.09A1.05,1.05,0,0,1,62.3,76.89Z"/><path d="M94.78,68.34l.23,0a12.89,12.89,0,0,0,2.53,1.4v.09a5.46,5.46,0,0,1-.15,1.37,8,8,0,0,1,.15,1.51l-.15.91v.22l.25,0,.17-1.11V72l2.3.61c0,.06.26.28.76.68v.27a8.45,8.45,0,0,0-.9,2.15l-1.33.8a7.81,7.81,0,0,0-1.38-.23,6.94,6.94,0,0,0-.32,1.91,1,1,0,0,1,.15.53c-.1,0-.15.09-.15.26.19,0,.29.06.29.17L97.6,79,100,80.18v.41c0,.16-.07.25-.23.26a11.69,11.69,0,0,1-2.94-.63v.23a.91.91,0,0,0,.16.45l-.16.9v.62l.12.23c-.24,0-.38.29-.42.83l.14.87h-.18a1.18,1.18,0,0,1,.19.49,8.58,8.58,0,0,0-.15.94,1,1,0,0,1,.15.54h-.17c.08.57.51.84,1.31.79a1,1,0,0,1,.38-.16v.16c1.08-.06,1.62-1,1.62-2.82.2,0,.29-.38.29-1.12v-.25h.09l1.49,1.26a2.34,2.34,0,0,1,.28,1.16v.29c0,.66,0,1.66-.13,3-.87.15-1.41.23-1.63.25-4-.11-6-1.15-6-3.14a16.54,16.54,0,0,1-.16-2h.16q0-.27-.15-.27a39.26,39.26,0,0,0,.31-4.7l-.43,0a35,35,0,0,1-1.21,4.5,5.1,5.1,0,0,1-.3,1.53l.15.3c-.09.27-.21.41-.34.41l.17.36c-.17.37-.32.56-.46.57l.17.32a3.76,3.76,0,0,0-.89,1.84,14,14,0,0,1-1.9.54l-1.14-.42c0,.13,0,.19,0,.19v-.5q1.61-.08,2.43-5.84c-.1,0-.16,0-.16,0l.33,0a1.4,1.4,0,0,1-.18-.56c-1,.15-1.46.27-1.46.37s-.47-.42-1-1.27v-.23a7.06,7.06,0,0,0,2.23-1.61l.63.28.49-2.58c-2.23-.06-3.35-.41-3.35-1h-.2c-.38,0-.6.76-.66,2.21a2.53,2.53,0,0,1,.29.88l-.29.77c.11.55.2.82.28.82l-.12.69v1.07c0,.58-.06,1.4-.16,2.44l.16.29c-.31,2.4-.71,3.61-1.23,3.64,0,.8-.53,1.23-1.61,1.28l-.3,0c-1,0-1.7-.56-2.24-1.83a4.08,4.08,0,0,1-.73-1.74v-.11h.34v.3a1.37,1.37,0,0,0,.68-.17,2.39,2.39,0,0,0,1.19.22h.21c.3-2.8.45-4.43.45-4.88a6,6,0,0,1-2.53,1.11c0,.09,0,.14-.09.14l-1,.06c-.45-.48-.74-.73-.88-.72V82q4.49-2,4.54-2.68c0-.48.06-.72.18-.73l-.18-.35V76.62A17,17,0,0,0,82.3,77a3.65,3.65,0,0,0-1.07-.25,1.14,1.14,0,0,1-.57.17,2.38,2.38,0,0,1-.74-1c-.19,0-.29-.15-.29-.49l.26-.14a2.39,2.39,0,0,0,.92.25l.3-.18.89.11c1.24-.2,2-.45,2.17-.75,0-.15,0-.22-.13-.22l.13-.7V70.76l-.29-.42v-.25a4.87,4.87,0,0,1,3.53,1v.41c0,.07-.07.11-.2.11l.18.34a1.28,1.28,0,0,0-.14.48c0,.13,0,.19.14.19l-.14.7v.32c0,.76.61,1.21,1.83,1.33l.17.3.32-.15a5.16,5.16,0,0,0,2,.65l.15-1.58V72.84a16.63,16.63,0,0,0-.59-3.25h.08c1.88.71,2.83,1.35,2.83,1.93a10.15,10.15,0,0,1,.29,2.95l-.17,0,.17.35v.6c0,.16-.11.25-.33.25l.2.36v1.35l-.17.82c.27,0,.41-.13.41-.37.11-2.17.26-4.19.47-6.07C94.83,70.2,94.78,69.05,94.78,68.34Z"/><path d="M108.31,75.59h4c1.24.08,1.86.32,1.86.73a6.15,6.15,0,0,1-1.27,1.61v0a12.19,12.19,0,0,1,.54,3.86v.78a6.64,6.64,0,0,1-1,3.42h.05a24.34,24.34,0,0,1,8.3,1.9,9,9,0,0,0,2.93.73l4.2-.24c1.23.11,1.85.29,1.85.54v.14q0,.4-3.66.54a4.32,4.32,0,0,1-1.46.1,18.27,18.27,0,0,1-7.28-1.66,13.85,13.85,0,0,0-5.57-1.42,3.22,3.22,0,0,1-1.7.59H110c-.85,0-1.27-.17-1.27-.49s.52-.53,1.56-.73a5.18,5.18,0,0,0,1.13-3.18c-.17-3-.46-4.54-.88-4.69a1.24,1.24,0,0,1-.15-.39v-.14a13.32,13.32,0,0,1,.93-1.22H109c-.82,0-1.34-.17-1.56-.49v-.05C107.61,75.68,107.89,75.59,108.31,75.59Zm1.46-5.33h.49q1.48,0,3.81,2.1a4.61,4.61,0,0,1,.44.64c-.12.23-.45.34-1,.34h-.14a2.1,2.1,0,0,1-2-1.07,7,7,0,0,0-2.06-1.42c-.21-.08-.32-.16-.34-.24v0Q109.14,70.26,109.77,70.26Zm14,6.21h.05c1,0,1.46.26,1.46.78a6.78,6.78,0,0,0,0,.68,17.19,17.19,0,0,0,1.76-.24h.15c.84,0,1.36.14,1.56.44v.09c0,.26-1.13.45-3.37.59v0c.13,1.16.19,1.86.19,2.1.2,0,.75-.07,1.66-.1a2.11,2.11,0,0,1,1.32.39v.15c-.23.29-1.23.44-3,.44,0,.29-.32.44-1,.44a2.85,2.85,0,0,1-1.32-.3l-4.49.15c-2.57,0-3.86-.18-3.86-.54v-.14c0-.13.29-.22.88-.25.33,0,1.18,0,2.54.1v0c0-.91.08-1.66.14-2.25H118c-.88,0-1.42-.14-1.61-.44v-.09c.1-.2.43-.3,1-.3h1.22q0-1.17.39-1.17h.88a1,1,0,0,1,.88.34c0,.34,0,.6,0,.79h0l2.1,0v0c-.06-.73-.1-1.18-.1-1.37A2.07,2.07,0,0,1,123.74,76.47Zm-3-7.48a1.88,1.88,0,0,1,1.51.49v0a3.36,3.36,0,0,1-1.12,1.91c.33.09.49.18.49.29v0c-.09.18-1.34.57-3.76,1.17,0,.24,0,1,0,2.2a.43.43,0,0,0,.15,0c1.49-.11,2.24-.29,2.24-.54q0-.69.78-.69h.2c.65,0,1,.12,1.17.35v.34c0,.54-.81.9-2.44,1.07a6.47,6.47,0,0,1-1.22.1h-.44c-1.46,0-2.37-.28-2.73-.83v-.15c0-.52.06-2.18.19-5,0,0,0,0,0-.05-.23-.08-.34-.16-.34-.24v-.1c0-.22,1.38-.37,4.15-.44A5.45,5.45,0,0,1,120.76,69Zm.2,13.24c.74,0,1.12.17,1.12.34v.05q-3.36,3.16-3.71,3.17a.76.76,0,0,1-.39.1h-.44c-.6,0-.94-.14-1-.29v-.1q1.18-.87,3.76-3.18A2.91,2.91,0,0,1,121,82.23ZM118,70c0,1,0,1.56,0,1.81a2.49,2.49,0,0,1,.58-.15l-.09-.15v0a3.69,3.69,0,0,0,1.12-1.57h0Zm2.53,9c-.06,1.06-.09,1.81-.09,2.24h0c1.35-.06,2.18-.1,2.49-.1a.39.39,0,0,1,.14,0,7,7,0,0,0-.29-2.09Zm4-10.36c3.38.13,5.08.39,5.08.79v.19c-.4,1.53-.89,2.3-1.47,2.3-.63.22-1.5.47-2.59.73v0c0,.64,0,1.06,0,1.27s.23.34.39.34c1.62-.27,2.44-.64,2.44-1.13a1.82,1.82,0,0,1,.83-.14c.62,0,1,.13,1.07.29v.29c-.23.45-1,.81-2.34,1.08a5.75,5.75,0,0,1-1.56.19H126a2.94,2.94,0,0,1-2.39-.83c0-.19-.06-.29-.1-.29,0-.54,0-.94,0-1.22V71c0-.48,0-1.13,0-2l.69-.39Zm-.25,14.46h.05A2,2,0,0,1,126,84a19.82,19.82,0,0,1,1.71,1.57c.49.28.73.53.73.73s-.29.21-.87.24c-.9,0-1.42-.18-1.57-.53a22.34,22.34,0,0,0-2.44-2.74v0C123.59,83.12,123.84,83.06,124.32,83.06Zm1.23-13.72c0,.82,0,1.42,0,1.8v.49c1-.14,1.57-.43,1.57-.88a6.67,6.67,0,0,0,.44-1.27C127.45,69.48,126.77,69.43,125.55,69.34Z"/><path d="M139.28,71.23q4.22,0,5.37,2.94l.19,1.06v.34c0,1.31-1.22,3.15-3.65,5.55a9.76,9.76,0,0,0-2.08,3.11H137.9q0-.35-1.05-.87a1.52,1.52,0,0,1-.15-.69c0-.39,1.26-1.94,3.79-4.67a5,5,0,0,0,1.39-3,2.61,2.61,0,0,0-2.24-2.94h-.17c-1.85.58-2.77,1.33-2.77,2.24,0,.09.05.44.15,1h-1.38c-.92,0-1.39-.41-1.39-1.22v-.51A6.2,6.2,0,0,1,139.28,71.23Zm-.51,15.6h.87c.15,0,.44.28.85.85v.19c-.23,0-.51.23-.85.69h-.87l-1.22-.18v-1A2.41,2.41,0,0,0,138.77,86.83Z"/></g></g><ellipse class="cls-1" cx="45.12" cy="128.7" rx="6.88" ry="3.66"/><ellipse class="cls-1" cx="33.19" cy="135.68" rx="4.81" ry="2.55"/><ellipse class="cls-1" cx="23.17" cy="137.85" rx="2.17" ry="1.15"/></g></g></g></svg>