<svg xmlns="http://www.w3.org/2000/svg" viewBox="0 0 382.4 178.07"><defs><style>.cls-1{fill:#ffd76c;opacity:0.78;}</style></defs><g id="圖層_2" data-name="圖層 2"><g id="_0-ui_kits" data-name="0-ui_kits"><path id="Path_54892" data-name="Path 54892" class="cls-1" d="M1.48,149.69a9.68,9.68,0,0,1-1.48.89l.93,1.28c.29.41.53.84.82,1.25a38.33,38.33,0,0,0,3.58,4.37,17.5,17.5,0,0,0,2.12,1.91c.75.61,1.53,1.19,2.35,1.75,1.07.73,2.19,1.43,3.36,2.08a37.12,37.12,0,0,0,3.52,1.59c-.82.36-1.64.7-2.48,1a.83.83,0,0,0-.47,1.08.85.85,0,0,0,.24.33.49.49,0,0,0,.12.13c6.4,5.34,16.94,8.05,25.58,7.15l-.6.52A.81.81,0,0,0,39,176.2a.77.77,0,0,0,.37.24.51.51,0,0,0,.16.09,32,32,0,0,0,6.2,1.33,46.27,46.27,0,0,0,6.66.15,39.86,39.86,0,0,0,12.78-2.94.93.93,0,0,0,.47.31l.17.07a35.15,35.15,0,0,0,12.69.18,46.52,46.52,0,0,0,6.39-1.56,37.39,37.39,0,0,0,5.83-2.48.86.86,0,0,0,.49.27.49.49,0,0,0,.17.06c7.77,1,17.32-1.3,24.12-5.61a.87.87,0,0,0,.5.24.48.48,0,0,0,.17,0,30,30,0,0,0,6-.2q1.53-.18,3.09-.51l.19,0,.32-.08.09,0,.37-.09.74-.19c.49-.13,1-.26,1.47-.41a42,42,0,0,0,5.7-2.21c.92-.43,1.8-.89,2.67-1.39s1.79-1.09,2.63-1.67a.87.87,0,0,0,.5.22.57.57,0,0,0,.18,0,31.9,31.9,0,0,0,6-.48c1-.17,2.08-.38,3.1-.65s2-.59,3-.94a39.13,39.13,0,0,0,11-5.82.84.84,0,0,0,.51.19.51.51,0,0,0,.17,0,33.75,33.75,0,0,0,11.85-2.55,38.67,38.67,0,0,0,10.67-6.29.82.82,0,0,0,.52.18h.17a31.34,31.34,0,0,0,5.84-.95,36.12,36.12,0,0,0,5.85-2.1,44.67,44.67,0,0,0,5.53-3,36.34,36.34,0,0,0,4.82-3.74.8.8,0,0,0,.52.15l.18,0a31.54,31.54,0,0,0,5.76-1.2,38.26,38.26,0,0,0,5.74-2.36,43.53,43.53,0,0,0,5.37-3.21,37.89,37.89,0,0,0,4.64-3.94.86.86,0,0,0,.52.13.54.54,0,0,0,.18,0,31,31,0,0,0,5.69-1.44,39.52,39.52,0,0,0,5.6-2.6,41.92,41.92,0,0,0,5.22-3.43,38.42,38.42,0,0,0,4.44-4.12.89.89,0,0,0,.53.11h.17c8.28-1.55,17.2-7.68,22-14.55a15,15,0,0,0,1.71-3.24c.21-.55,3.39-1.27,3.91-1.42a25.6,25.6,0,0,0,4.92-2,27.41,27.41,0,0,0,6.37-4.7,15.74,15.74,0,0,0,4.19-6.59c.1.32.21.64.3,1a1.1,1.1,0,0,0,1.43.63,1.08,1.08,0,0,0,.47-.34,29.53,29.53,0,0,0,3.46-6.09,21.11,21.11,0,0,0,1.05-3.3,19.84,19.84,0,0,0,.46-3.52,15.34,15.34,0,0,0-.13-2.62,2.17,2.17,0,0,0,.29-.24c1-1.1,2-2.18,3.17-3.18a52.31,52.31,0,0,1,6.27-4.4s1.8-1.15,4.92-3.22,7.6-5,12.89-8.55C342,38.59,356,29,369.79,19.09q3.54-2.52,7-5.06l3.56-2.59a5.65,5.65,0,0,0,1.77-1.56,1.78,1.78,0,0,0,.06-1.65l-4.83-8a1.19,1.19,0,0,0-.15-.09c-1.09-.52-1.73.2-2.51.77-.59.42-1.19.81-1.78,1.23Q367.55,6.1,362.1,10l-1.2.85c-13.43,9.55-27,18.91-37.38,25.78C318.37,40.09,314,42.89,311,44.9l-3.53,2.3-1.26.81c-3.92,2.52-8.05,5.07-12.9,4.47a12.67,12.67,0,0,0-2-.9,17.2,17.2,0,0,0-12.61.84,25.46,25.46,0,0,0-10,7.85,14.94,14.94,0,0,0-2.5.1,31.11,31.11,0,0,0-5.93,1.45c-1,.34-2,.74-2.95,1.17s-2,.87-2.9,1.38A34.82,34.82,0,0,0,249,67.84,31,31,0,0,0,244.51,72a.64.64,0,0,0-.08.14.91.91,0,0,0-.17.5,34,34,0,0,0-5.4,1.47,40.62,40.62,0,0,0-5.3,2.27,35.73,35.73,0,0,0-4.84,3,28.28,28.28,0,0,0-4.13,3.6l-.09.14a.86.86,0,0,0-.18.49,35.33,35.33,0,0,0-5.48,1.24,37.59,37.59,0,0,0-5.41,2,38.27,38.27,0,0,0-5,2.82,29.53,29.53,0,0,0-4.29,3.44.6.6,0,0,0-.09.13.9.9,0,0,0-.21.49,40.49,40.49,0,0,0-11,2.82,34.85,34.85,0,0,0-9.59,5.86.71.71,0,0,0-.1.14.85.85,0,0,0-.24.47,40,40,0,0,0-11.18,2.35,34.61,34.61,0,0,0-9.84,5.45l-.11.13a.87.87,0,0,0-.25.47c-7.37.08-15.66,2.57-21.41,6.88a.68.68,0,0,0-.12.12.9.9,0,0,0-.27.46c-.92,0-1.86,0-2.8,0s-1.87.09-2.82.2a34.7,34.7,0,0,0-5.61,1.07c-.93.25-1.8.54-2.74.86s-1.89.67-2.8,1.06a31,31,0,0,0-5.08,2.73l-.13.13a.89.89,0,0,0-.3.44c-.48,0-1-.05-1.45-.06h-.8c-.19,0,.26-.07.19-.06h-.62c-1,0-1.9,0-2.87.09a44.74,44.74,0,0,0-5.75.83,36.53,36.53,0,0,0-5.5,1.63,28.52,28.52,0,0,0-4.94,2.4l-.12.11a.83.83,0,0,0-.31.43c-7.25-1-15.6.12-21.82,3.36l-.13.11a.92.92,0,0,0-.33.4,39.15,39.15,0,0,0-11.06-.86c-.94.06-1.86.16-2.78.3s-1.82.25-2.71.44a29.15,29.15,0,0,0-5.07,1.57.42.42,0,0,0-.14.09.87.87,0,0,0-.39,1.19.64.64,0,0,0,.13.19l.15.16a40.51,40.51,0,0,0-22.61,4.5.69.69,0,0,0-.13.11.9.9,0,0,0-.29,1.24l.1.12a14.68,14.68,0,0,0-4.92-.72,38.43,38.43,0,0,0-10,1.73q-1.26.38-2.55.84c-.86.3-1.69.67-2.61,1a40.48,40.48,0,0,0-5.23,2.3A15.16,15.16,0,0,0,1.48,149.69ZM42.15,169.9a25.51,25.51,0,0,1-9.64.89,36.39,36.39,0,0,1-4.74-.71c-1.56-.37-3.1-.8-4.62-1.26l-2.29-.7c-.76-.25-1.52-.53-2.28-.8.66-.1,1.31-.24,2-.4s1.31-.4,2-.63c1.29-.48,2.58-1,3.85-1.65,2.53-1.18,5-2.68,7.43-3.94,1.21-.64,2.41-1.21,3.6-1.7a21,21,0,0,1,3.55-1.22,12.49,12.49,0,0,1,3.55-.35,11.79,11.79,0,0,1,3.63.69A16.19,16.19,0,0,1,44.43,162a21.35,21.35,0,0,1-4.56,2.52c-.82.34-1.67.64-2.53.91s-1.74.46-2.63.66c-1.78.38-3.61.67-5.44,1-.11,0-.08.17,0,.18,7,1,16.16,1.11,21-4.58a11.07,11.07,0,0,1-1.2,2.38l-2.58,2.78a12.64,12.64,0,0,1-4.32,2.09Zm20.68,1.95a25.32,25.32,0,0,1-4.6,1.61,44.17,44.17,0,0,1-4.72.91c-1.6.21-3.21.3-4.82.39s-3.24.17-4.87.18a27,27,0,0,0,5.42-4.15,17.09,17.09,0,0,0,3.27-3.31,68.94,68.94,0,0,1,7.57-7.62,13.14,13.14,0,0,1,8.85-3.36c-2.1,7.17-8.42,11.17-15,14.54-.1.06,0,.18.08.16a41.5,41.5,0,0,0,10.78-3.51,19.24,19.24,0,0,0,4.53-3.17,13.3,13.3,0,0,0,3-4.44,11.4,11.4,0,0,1-1.11,4.61c-1.57,3.45-5,5.61-8.39,7.16Zm7,1.59a32.44,32.44,0,0,0,5.82-5.77c1.78-2.15,3.41-4.55,5.11-6.69.85-1.08,1.71-2.1,2.6-3a22.5,22.5,0,0,1,2.78-2.56,12.25,12.25,0,0,1,6.73-2.56,18.15,18.15,0,0,1-5,9.13,32.07,32.07,0,0,1-4,3.52c-1.45,1.08-3,2.09-4.52,3.09-.09.06,0,.19.09.16,1.69-.52,3.46-1.12,5.23-1.82a34.47,34.47,0,0,0,5.05-2.61,15.43,15.43,0,0,0,6.87-8.17,11.45,11.45,0,0,1-.74,4.67,12.05,12.05,0,0,1-3.11,4.55,24.58,24.58,0,0,1-4.53,3.24c-5.66,3.26-12,4-18.32,4.86Zm38.8-7.68a45.78,45.78,0,0,1-4.37,1.61c-3,.95-6,1.52-9.12,2.21a32.23,32.23,0,0,0,5.26-6.15c1.57-2.32,3-4.77,4.55-7a30.23,30.23,0,0,1,5-5.93,12.08,12.08,0,0,1,6.53-3,18.48,18.48,0,0,1-4.42,9.4,35.8,35.8,0,0,1-3.72,3.77c-1.36,1.18-2.79,2.28-4.24,3.38-.09.07,0,.18.1.15,6.51-2.47,14.31-6.53,16.11-13.62a11.63,11.63,0,0,1-.45,4.69c-1,3.55-4,6.24-7,8.2a28.29,28.29,0,0,1-4.14,2.29Zm24-6.23a36,36,0,0,1-4.08,1.79c-.69.26-1.39.51-2.09.75l-1.06.34-.53.17-.75.21L119.69,164a22.9,22.9,0,0,0,2.57-3c.39-.54.78-1.09,1.15-1.67l.28-.43,0,0h0c.07,0-.15,0,.16-.05v0l0,0,.07-.11.12-.22.52-.89c1.35-2.37,2.61-4.88,4-7.2a27.73,27.73,0,0,1,4.6-6.12,11.76,11.76,0,0,1,6.38-3.3,18.79,18.79,0,0,1-4,9.61,36.92,36.92,0,0,1-3.49,3.91c-1.25,1.22-2.57,2.39-3.89,3.54-.08.07,0,.18.11.14,6-2.69,13.79-7.18,15.26-14.29a11.37,11.37,0,0,1-.26,4.68c-.9,3.59-3.81,6.39-6.71,8.55q-1,.73-2,1.32c-.64.39-1.3.76-2,1.1Zm19.61-5.3c-1.4.6-2.83,1.13-4.27,1.65l-4.46,1.45c3.61-3.73,5.75-9.25,8.32-14s5.44-8.84,10.5-9.87C162,140.82,157,146.14,151.75,151c-.08.08,0,.18.11.14,6.13-3,13.44-7.79,14.6-14.92a11.66,11.66,0,0,1,0,4.67c-.72,3.61-3.45,6.5-6.18,8.76a32,32,0,0,1-8,4.62Zm23.35-8.13c-1.38.65-2.78,1.25-4.19,1.82s-2.87,1.08-4.3,1.62c3.33-3.83,5.24-9.46,7.58-14.29s5-9.07,10-10.3c-.07,7.35-4.8,12.89-9.8,17.92-.08.07,0,.17.12.13,1.48-.84,3-1.77,4.57-2.8a32.84,32.84,0,0,0,4.29-3.51c2.61-2.58,4.6-5.6,5-9.21a11.49,11.49,0,0,1,.18,4.67c-.55,3.62-3.13,6.62-5.76,9a31.29,31.29,0,0,1-7.74,5ZM198.51,137c-2.68,1.42-5.48,2.64-8.3,3.81a23.81,23.81,0,0,0,2.1-3.26c.63-1.18,1.2-2.42,1.74-3.69,1.06-2.53,2-5.17,3.07-7.63a38.41,38.41,0,0,1,1.69-3.53,21.33,21.33,0,0,1,2-3.12,11.49,11.49,0,0,1,5.82-4.05,18.59,18.59,0,0,1-2.6,9.92,33.17,33.17,0,0,1-2.92,4.33c-1.09,1.37-2.26,2.71-3.45,4-.07.07,0,.17.13.12,1.44-.9,2.95-1.89,4.43-3a33.51,33.51,0,0,0,4.11-3.7c2.49-2.68,4.35-5.75,4.58-9.39a11.43,11.43,0,0,1,.4,4.65c-.38,3.63-2.83,6.73-5.34,9.2A30.69,30.69,0,0,1,198.5,137ZM212.8,131a30.19,30.19,0,0,0,3.5-7.09c1-2.57,1.79-5.24,2.73-7.73a29.83,29.83,0,0,1,3.4-6.8,11.49,11.49,0,0,1,5.63-4.27,18.51,18.51,0,0,1-2.16,10,34.76,34.76,0,0,1-2.71,4.45c-1,1.42-2.14,2.79-3.26,4.16-.07.08,0,.17.13.12,1.39-1,2.87-2,4.27-3.17a34.2,34.2,0,0,0,3.94-3.86c2.37-2.77,4.07-5.91,4.15-9.55a11.64,11.64,0,0,1,.6,4.61c-.22,3.65-2.53,6.83-4.92,9.4a26.53,26.53,0,0,1-3.43,3.1,39.9,39.9,0,0,1-3.79,2.49c-2.6,1.51-5.32,2.87-8.08,4.16Zm22.06-10.69c2.75-4.23,3.9-10,5.56-15s3.75-9.58,8.51-11.41a18.47,18.47,0,0,1-1.71,10,38,38,0,0,1-2.51,4.55c-1,1.47-2,2.87-3.07,4.28-.06.09.06.17.14.12q2.15-1.57,4.12-3.35a34.61,34.61,0,0,0,3.75-4c2.24-2.86,3.8-6.08,3.71-9.71a11.56,11.56,0,0,1,.8,4.58c0,3.66-2.22,6.9-4.49,9.57a27.8,27.8,0,0,1-3.27,3.24,40.88,40.88,0,0,1-3.66,2.64c-2.54,1.61-5.19,3.08-7.88,4.49Zm32.69-19.2a36.34,36.34,0,0,1-3.53,2.79c-2.46,1.73-5,3.28-7.65,4.82,2.53-4.35,3.44-10.12,4.88-15.22s3.32-9.7,8-11.74A18.29,18.29,0,0,1,268,91.86a45.72,45.72,0,0,1-5.16,9c-.06.09.07.17.14.11a40.71,40.71,0,0,0,7.52-7.66A19.28,19.28,0,0,0,273,88.69a12.85,12.85,0,0,0,.75-5.17,11.36,11.36,0,0,1,1,4.52c.12,3.67-1.91,7-4.05,9.73a30.16,30.16,0,0,1-3.12,3.37Zm22-18.68a25,25,0,0,1-3.78,4.12c-1.29.7-2.62,1.32-3.86,1.94-.82.41-1.69.82-2.52,1.3,1.31-3.57,1.8-7.74,2.73-11.48s2.37-7,5.73-8.63c1.2,5.7-1.52,10.75-4.46,15.53-.05.07.06.13.11.08a33.82,33.82,0,0,0,5.72-6.4,12.17,12.17,0,0,0,2.29-8,9.32,9.32,0,0,1,.94,3.59c.21,2.92-1.29,5.64-2.9,7.91Zm8.7-5.54a18.33,18.33,0,0,0-.73-1.91,13.66,13.66,0,0,0-2.43-8.72A10.24,10.24,0,0,0,298,62.13a1.14,1.14,0,0,0,.23-.15L299,63a9.56,9.56,0,0,1,1.47,6.42,23.8,23.8,0,0,1-2.27,7.46ZM238,81.62c1.67-.08,3.36-.13,5-.12a34.18,34.18,0,0,1,4.95.3,18.77,18.77,0,0,1,9.25,3.79,11.07,11.07,0,0,1-6.55,2.31,23.18,23.18,0,0,1-7.3-1.11c-5-1.45-10.12-3.69-14.86-4,2.55-1.25,5-2.66,7.58-3.77a34.89,34.89,0,0,1,4-1.48,26.33,26.33,0,0,1,4.19-1c3.24-.48,7-.55,10.06,1.25a11.48,11.48,0,0,1,3.45,3,15.45,15.45,0,0,0-9.9-1.84,31.45,31.45,0,0,0-5.09,1c-1.66.47-3.29,1-4.8,1.51-.07,0-.07.19,0,.19Zm125.51-67c2.44-1.74,4.87-3.47,7.3-5.22l3.67-2.65c.42-.3.95-.91,1.46-.81a1.75,1.75,0,0,1,.85.74,2.87,2.87,0,0,1,.34.62c.29.79.14.73-.42,1.2-1.1.93-2.35,1.71-3.51,2.54l-7.3,5.23C352.08,26.1,338,35.78,327.36,42.87c-5.32,3.59-9.83,6.49-12.95,8.56-1.58,1-2.81,1.83-3.66,2.37l-1.29.84c-1.29.82-2.58,1.65-3.81,2.54a23.61,23.61,0,0,0-3.38,2.93,5.39,5.39,0,0,0-3.35-3,1.55,1.55,0,0,0-.37,0l-.12-.42a20.37,20.37,0,0,0,7.74-3.17l5-3.24,13.16-8.67c10.83-7.19,25.1-17,39.16-27ZM277.66,58.13A26.79,26.79,0,0,1,280.24,57a20.15,20.15,0,0,1,2.73-.87c2.57-.6,5.54-.92,8.12.33a9.21,9.21,0,0,1,3,2.18,12.06,12.06,0,0,0-8-.84A25.44,25.44,0,0,0,282,59c-1.3.48-2.57,1-3.74,1.54-.06,0,0,.15,0,.13,1.32-.17,2.65-.33,4-.43a28.66,28.66,0,0,1,3.93-.1,15.13,15.13,0,0,1,7.56,2.31,10.63,10.63,0,0,1-1.26,1.16,11.21,11.21,0,0,1-6.95,1.23,64.38,64.38,0,0,1-7.81-1.61A17.6,17.6,0,0,0,272.81,61,53.33,53.33,0,0,1,277.66,58.13Zm-21.84,9.35a38.93,38.93,0,0,1,3.88-1.65,26.66,26.66,0,0,1,4.13-1.17,21.31,21.31,0,0,1,5.46-.41c1.54.38,3.1.82,4.65,1.24a11.77,11.77,0,0,1,3.54,2.81,13.12,13.12,0,0,0-4.84-1.53,18.93,18.93,0,0,0-5.1.12,46.61,46.61,0,0,0-9.74,3c-.08,0-.07.19,0,.18a56.92,56.92,0,0,1,9.94-.24,18.8,18.8,0,0,1,9.39,3.37c-3.87,3.28-8.71,3-13.74,1.8s-10.26-3.27-15-3.4C250.91,70.2,253.3,68.7,255.82,67.48ZM215.88,89.65a32.84,32.84,0,0,1,8.28-2.12c3.27-.35,7-.27,10,1.68a11.56,11.56,0,0,1,3.33,3.13,15.46,15.46,0,0,0-9.84-2.27,31,31,0,0,0-5.15.82c-1.69.38-3.34.83-4.86,1.31-.09,0-.09.17,0,.17,1.67,0,3.36,0,5,.1a35.82,35.82,0,0,1,4.95.52,19,19,0,0,1,9.11,4.18,11.07,11.07,0,0,1-6.67,2,18,18,0,0,1-3.58-.39,32.85,32.85,0,0,1-3.68-1c-2.48-.83-5-1.87-7.45-2.76a33.91,33.91,0,0,0-7.27-1.93c2.61-1.13,5.12-2.44,7.76-3.45Zm-20.75,9.81a33,33,0,0,1,8.39-1.76c3.29-.21,7,0,10,2.11a11.93,11.93,0,0,1,3.2,3.29,15.43,15.43,0,0,0-9.77-2.7,31.25,31.25,0,0,0-5.19.59c-1.72.3-3.39.69-4.94,1.1-.08,0-.1.17,0,.17a57.69,57.69,0,0,1,10,1.06,18.89,18.89,0,0,1,8.94,4.57,11.1,11.1,0,0,1-6.77,1.77,18.57,18.57,0,0,1-3.56-.55,33.14,33.14,0,0,1-3.65-1.2c-2.45-.93-4.91-2.08-7.34-3.08-1.21-.5-2.42-1-3.62-1.35a23.19,23.19,0,0,0-3.58-.91c2.67-1,5.26-2.2,7.93-3.11Zm-25.25,10.28c1.34-.49,2.68-.95,4-1.35a34.74,34.74,0,0,1,4.15-1c.7-.12,1.42-.21,2.14-.27s1.45-.13,2.19-.15c3.31-.06,7,.33,9.89,2.54a11.92,11.92,0,0,1,3.07,3.45,15.37,15.37,0,0,0-9.66-3.14,35.42,35.42,0,0,0-5.24.37c-1.73.22-3.41.54-5,.88-.09,0-.11.17,0,.18,6.72.61,13.58,1.23,18.7,6.46-4.42,2.62-9.18,1.53-14-.58s-9.63-5-14.32-6l4-1.43Zm-21.7,7.83c1.36-.43,2.72-.84,4.1-1.18a31.62,31.62,0,0,1,8.55-1c3.31.07,7,.63,9.79,3a12,12,0,0,1,2.92,3.59c-5.37-4.8-13.46-3.79-19.83-2.77-.08,0-.11.17,0,.18,1.68.22,3.36.44,5,.75.83.16,1.66.34,2.48.54s1.61.4,2.4.66a18.77,18.77,0,0,1,8.54,5.35c-4.54,2.44-9.27,1.12-14-1.21s-9.41-5.42-14.07-6.63l4.11-1.24Zm-21.92,6.81c1.43-.36,2.74-.7,4.12-1a30.63,30.63,0,0,1,8.49-.6c3.31.22,7,.94,9.66,3.41a11.65,11.65,0,0,1,2.76,3.73,15.22,15.22,0,0,0-9.38-4,46.86,46.86,0,0,0-10.25.31c-.08,0-.12.16,0,.18a56.14,56.14,0,0,1,9.72,2.41,18.87,18.87,0,0,1,8.31,5.73,11.1,11.1,0,0,1-7,.89,23.53,23.53,0,0,1-6.95-2.73c-2.29-1.25-4.55-2.73-6.8-4.06a30.07,30.07,0,0,0-7-3.2l4.31-1.1Zm-24.61,6.33,2.09-.44c1.39-.29,2.78-.56,4.18-.76s2.83-.35,4.25-.42q1.08,0,2.16,0c.37,0,.73,0,1.1.06l.55.06.28,0h.07a1.5,1.5,0,1,0-.17,0h.21c3.41.33,7.17,1.19,9.73,3.77a11.58,11.58,0,0,1,2.58,3.86,15.24,15.24,0,0,0-9.33-4.38c-.44-.06-.89-.11-1.34-.15l-.68,0-.34,0h0a1.21,1.21,0,1,1,.92-1.45,1.21,1.21,0,0,1-.79,1.41h-.29q-1.32-.09-2.64-.09c-1.75,0-3.46.11-5.07.23-.09,0-.13.16,0,.18,1.64.38,3.3.74,4.93,1.19.81.23,1.62.48,2.41.75l1.19.43.14.06h0l-.1,0h0l.07,0,.3.11.58.24a18.48,18.48,0,0,1,8.15,6.08,11.29,11.29,0,0,1-7.07.59,25.21,25.21,0,0,1-6.83-3c-2.25-1.33-4.47-3-6.69-4.4a34.5,34.5,0,0,0-6.67-3.57ZM94,134.58c3.24.59,6.83,1.65,9.24,4.39a12,12,0,0,1,2.39,4,15.54,15.54,0,0,0-8.94-4.89,34.92,34.92,0,0,0-5.2-.69c-1.73-.11-3.43-.07-5-.09-.08,0-.13.15,0,.18a56.7,56.7,0,0,1,9.44,3.44,19.15,19.15,0,0,1,7.7,6.57,11,11,0,0,1-7.07.17,24.27,24.27,0,0,1-6.65-3.43c-2.15-1.49-4.26-3.26-6.36-4.85-1-.8-2.1-1.55-3.15-2.23a23.36,23.36,0,0,0-3.19-1.81c5.57-.67,11-1.83,16.85-.73Zm-35,2.9c1.38-.08,2.75-.15,4.13-.14a33,33,0,0,1,8.34,1,25.93,25.93,0,0,1,4.76,1.77,11.82,11.82,0,0,1,4,3.31,12.3,12.3,0,0,1,2.11,4.16A15.51,15.51,0,0,0,73.91,142a32.61,32.61,0,0,0-5.08-1.1c-.85-.12-1.7-.2-2.53-.28l-2.42-.24c-.08,0-.14.14-.05.18,6.15,2.48,12.58,4.95,16.24,11.34-5,1.49-9.38-1-13.4-4.3s-7.74-7.62-11.76-10Zm-18.55,4.31a33.38,33.38,0,0,1,4.12-.38,27,27,0,0,1,4.22.1c3.18.42,6.73,1.13,9.23,3.68a12.15,12.15,0,0,1,2.6,3.78,13.42,13.42,0,0,0-4.19-2.87,18.72,18.72,0,0,0-4.87-1.28,48.71,48.71,0,0,0-10.1-.09c-.09,0-.13.16,0,.18,6.38,1.6,13,3,17.46,8.77a11,11,0,0,1-7,.77,23.57,23.57,0,0,1-6.81-2.95c-2.22-1.4-4.37-3-6.49-4.48a32.36,32.36,0,0,0-6.34-3.75c2.78-.53,5.49-1,8.24-1.48ZM5.63,150.84c.82-.27,1.65-.52,2.48-.78l2.45-.82a48.29,48.29,0,0,1,4.75-1.3,30.46,30.46,0,0,1,4.84-.76c3.3-.13,7-.15,9.81,1.93a11.56,11.56,0,0,1,3.15,3.2c-.17-.12-.35-.22-.53-.33a4.25,4.25,0,0,1,.27.46l-2.42.08c-.81,0-1.61,0-2.42,0l-4.86,0c-4-.13-8.13.49-12.16.06a.14.14,0,0,0-.17.12.16.16,0,0,0,.11.17c.9.22,1.78.5,2.66.79l1.31.45,1.33.41c1.77.55,3.55,1.11,5.38,1.49,1.56.3,3.14.53,4.71.8s3.15.55,4.74.69c-1.46.76-2.91,1.47-4.37,2.24l-4.43,2.37a20.72,20.72,0,0,1-4.18-1A25,25,0,0,1,13.32,159a39.59,39.59,0,0,1-4.3-3c-.67-.54-1.34-1.08-2-1.63s-1.24-1.18-1.85-1.79c-.42-.43-.86-.83-1.28-1.25.57-.18,1.15-.34,1.72-.53Z"/></g></g></svg>