<svg xmlns="http://www.w3.org/2000/svg" viewBox="0 0 406.67 402.67"><defs><style>.cls-1{fill:#b69564;}</style></defs><g id="圖層_2" data-name="圖層 2"><g id="_0-ui_kits" data-name="0-ui_kits"><g id="Group_3320" data-name="Group 3320"><path id="Path_19136" data-name="Path 19136" class="cls-1" d="M199.22,402.62l-2.82-.79h-8.68l-2.52.84-6.88-.51-3.79-.37-6.38-.16-3.73-.74-1.2-.35-9.4-1.6-6.24-1.18L142,396.59l-4.77-1.73-5.92-2.3-6-2.1L117,387.35l-8.2-3.44-7.62-3.24-6.49-2.58-5.26-3.62-6.11-3.42-4.52-2.36-9.2-6.8-9.77-7-6.46-6.27-7-8.28-5.1-7.28-4-7.16-1.34-1.45-7.25-9.62-3.81-7.36-3.72-6.67L18,294.57l-2.93-7-1.32-4.25-.55-1.8-2.1-6.62-1.66-4.8-2-6.7L5,252.17,3.38,244.1l-1.12-5.58-.68-5-.51-5-1-7.16L.44,219,0,202.51l.24-1.26.64-5.66.17-15.34.77-5.67.46-5.06,1.18-4.38.18-5.64L5.13,154l1.1-5.33,2.28-5.52L10,137l1.14-3.64,4.17-8.59L18,119,20.61,114l3-5.59L26,104.59l4.82-7.47,4.28-7.06,2.7-3.52,3.93-4.21,3.86-5.78.61-1.91,5.1-5.59,1.29-1.42,8.9-10,7.17-7.28,2.83-2.58,10.75-7.93L98.16,29.26,99.57,28l.92-.83,7-3.12,6.27-3.13,6.86-3.39,7.6-3.29,1.23-.31L139,10.85l1.38-.63,9.79-1.73,4.87-1.3,4.82-1.57,1.2-.4,6.29-.84,6.33-.67,3.81-.27,8.17-1.33L191.22.94,208.37,0l12.78.07,5.67.72,2.5.33,6.88,1.1,7.48,1.35L251.1,5.4l5,.92,5.49,0,5.15,1.47,5.52,1.38,7.87,2.47,5.48,1.45,4.54,2.34,6,3.57,1,.81,4.49,2.39,3.76,2.41,4.45,2.46,1.14.59,13.2,5.92,1.16.85,10.5,9.31,6.83,5.74,4.83,5,3.24,3.92,3.29,3.9,2,2.46,6.57,7.8L368.37,81l1.6,2,4,5,7.55,10.28,4.58,8.33.6,1.8,4.29,9.92,5.42,14.27,2.47,8.52,2,6,1.49,5.54.35,1.21,1.18,8.82,1,5.63.31,2.5.48,12.52,1,5.87.07,5.76,0,.62-.33,21.1-.94,5-.07,5.11-.13.85-1.1,3,0,3.64-.51,3.11-.89,4.34-1,3.66L399,256.33l-1.68,6.09-2.7,7.13-2.44,5.87-2.38,5.9-.53,1.14L386,289.3l-6.9,12.9-3.64,6-5,6.58-3.38,4.62-2.25,3.07-3.54,4.51-3,3.33L354,334.94,351.74,338l-8,8.22L337,353.9l-3.62,3.55-7.14,6.13-7.6,5-9,5.94-9.38,3.95-9.82,4.33-5.12,2.52-5,2.81-3.64,1.1-19.24,6.53-1.8.64-6.22,1.22-5.58,1.29-9.41,1.41-1.27.17-8.8,1.23-5,.77L206,402.35l-6.73.26Zm69-17.49,2.49.33,1.71.79,2.19-.81,1.83-1.64,1.72.81,10.57-5.44,1.51-1.93-.22.22,3.13-.44,2.87-1.33,3.2-2.28,8.61-3.09,1-2.81,4.69-.48,3-1.66.26-1.27-1-1.63.32-1.16.59-.48h5.64l5.1-3.72.9-1.58,1.33-1.27.64,0,8.08-7.89.25-1.31-1.17-1.34-.85-1.51,2.48-.48,1.44,2.06,5.46-5.32.54-1.34-.28-2.28-1.18-1.64v-1.32l1.64-.55,3.94,2.19,3.16-4.16.38-2.21,6.19-4.71,1.73-3.9,3-1.93,1.67-2.89.88-3.66,3.11-1,1.51-2.67,9.68-15.74,1.36-2.87,2.41-5.84-1.51-4,3.95-2,2.82-5.76,2.85-8.41,2.59-8.48,1.93-5.39,1.62-6.11-.13-4.34-3-3,1.21-1.13,2.45.8.81-1.09.51-4.41.88-6.9-.27-5-2-1.4-.31-1.25,1.48-1.05.56.22,1.74-2.31.06-16.78-.4-5.59-.52-1.79-1.56-4.13,1.14-2.45,0-4.21-.29-6.28-2-1.63.85-2.47-2.41-4.27,1.45-3.05-.13-2.43L398,150.46l-3-4.08-.68-1.67,1.9-2.41,0-.69-.92-3-3.07-5.44-1-1.51.9-2.5-3-7.3-1.8.81H386.2l-.77-.79.14-.59,2.58-1.66L386.86,114l-4.18-4.77.19-3-2-1.47-2.35-1,.14-2.24-.42-3.17-1.38-1.06-1.69.75-1.73-2,.9-2.24L371,89.41l-2.41.85L367.39,89,369,86.19l-5.15-6.42-1.18.39L361,79.64l.16-1.76.3-1.95-1.51-1.62-1.42-.3-1.67-.66-.2-3.47-4.6-5-1-.72-1.69,1.18-2.36-.19-1.17-1.78,2.83-1.23.2-1.13-5.42-6h-.85l-1.14.5-1.16.43L339,54.85,340,51.63l-5.7-5.48-2-.28.19.19-.72-1-2.83-1.72-2.39.92L325.19,43l.57-1.74.14-1.84-1.28-1.49-3.22-2-6.35-3.71-1.71.81L313,35.5l-1.27,1-.86-1.49.81-3.83-7.54-4.38-4.57-2-.9,2.91-1.21.11-.13-3.42-2.54-2.84-5.28-3.55-4.62-1.61-3.14,3.31L280.43,17l.44-1.31-1.38-1.21-6.09-1.73-1.75.2-1.4,2.11-1.86-.33-.07-2,.83-.79-5-1.68-3-.17L258,9.47l-3-.15-2,.88-.53,1.14-1.57.8-1.32-1.29L249,8.44l-4.32-1-2.36.81-1.44-1.74-5.55-2-1.12,0-1.86,2.39L229,5.07l-8.54-1-.42.4-.33,1.89-1.49.83-.85-.81L216.44,4l-6.2-.57-3.72-.74-1.8.76L192,3.8,190.12,4l-.89,1.49.35,2.85-2.19-1-1.54-2.26-3,.92-13.15.57-2.14,1.64.88,1.69-.31,1.14-1.68-.15-.35-.51-.2-1.93-.42-.39-1.2-.24-3.66,1-4.25,1.23-6,2-1.59.68H144.3l-3.73,1.93-2.06,2.65-2.45-1.75L131.69,17l-4.34.94L119,22.51l-1.84,2.39-2.5-.59-9,4.45-7,4.33-9.51,6.34-.46.56.5,2.3-1.17,1.17-3.06-1.05-7.25,5-1.89,1.69-.43,1.16.24.57.3.57.23,1.2-1.54,1.1-2.8-1L56,68.77l-.2,3.17-.83.83-2.08.29-4.82,6.57-8,9.9-.46,1.14.38,1.2-.71,2-.59.22-1.51-.46-1.45,3.56L36,99.38l-2.9,1-3.66,6.28-.54,2.74-3,3.07-9.22,17.09-3.9,10.72-2.63,8.48-.27,3.77,1.82,3L7.67,157l-.51,3-.83,3.83,1.75,4.45-2.8,2.5L5,172l-1.25,8.81L4,182l1.91,1.58-.2,1.23-2.06,1.33L3.39,199l-.69,5,0,3.77,1.91,1.72.2,1.84-2.44,2,.24,4.43.84,5.63L4.41,231l.2,1.9,1.2,8.79L5.92,243l1.16,6.2,1.71,9.38.54,1.16,2,2.8v1.58l.73,6.24.53,1.82L19.37,290l1.07-.32.55-.31h1.2l.37,1.65L20.4,292.4l.44,1.78,4.09,7.95,4.38,7.71,7.8,11.64,4.08,5.59L42,328l3.36,2.87,1.09,4.05,7.84,9.27h3.55l.53.53.26,3.46.24.59.73,1,8.37,5.7,1.2,0,4.1-.78-.16,4.62,2.41,2.24,7.35,5,13.34,7.69,2.54-1.56,2.65,3.23,1,.78,4.76,1.67,1.12-.63-.79-2.31,2.74-1.36.43,2.81-.68,2.43,13.24,6,1.75.77.62.13,6.68,2.2,2.52-1.82,1.62.63.27,1.23,2.76,2.93,1.92.18,1.74-.79,1.7-.37,3,3.31,3.71-.18,1.27-2,2.48.48-.5,2.39.57.46,10,1.78,2.76.61,2-.53,2.83,1.14h3.33l2.83-1.33,1.23.67,1.75.47,1.6-3.4,1.66-.09,1.14,2.85,1,.94,2.19-.15,2.65-2,3.88,3.06,10.72.11,2.78-.89,6,.55,2.37-2.7.54.34,2,2.61,3.61-.9,4.45-.09,1.29-.1,3.81-1.34,3.58,0,1.2-.5,1.16-2.74,3.59,1.6,2.92-2,2.76,1.18,2.52-.19,5.59-1.26,2.32-1.05,1.05-.72,2.32-2.76,5.37,0,.31-3-.24.19Z"/><path id="Path_19137" data-name="Path 19137" class="cls-1" d="M369.7,213.08l-.23,10.32-1.1,3.09-.16,2.39-.2,3.83-.33,1.23-2,8.66-1.41,6.18-2.5,8.54-1.38,4.19-2.08,5.34L356.62,271l-3.9,8.68-5.24,8-3.33,4.67-5.54,7.79-5,7.41-7.77,7.6L325,316l-13,12.21-11.26,9.4L295,341.64l-5.63,3-8.11,5.08-14.88,7.23-5.87,2.46L255,360.94l-.59.26-8.3,3.16L236.9,367l-8.62,2.14-3.15.44-13.1.33-5.3,1-15.41.3-5.83,0-13.69-.33-5-.75-1.88-.33-8.16-1.24-9.95-2.11-1.86-.39-5.1-.33-4.25-1.18-4.95-1.21L126.44,362l-16.61-8-10.56-6.28-5-3.71-9.53-7.47-2.33-2.17L78.59,331l-4.12-3.88-3.26-3.89L70,321.81l-2.43-2L60.08,311l-5.3-7.95-2.9-5.66L49,291.72l-2.89-5-1.82-5.43-1.95-3.46L37.8,264.19l-1-3.67-1.49-6.18-1.1-5.59-.74-5L33,239.3,31.92,233l-.3-5.74-.51-2.61.26-3.59-.85-6.93.09-13.41.3-1.88.71-5-.07-7.67.37-14.05-1.24-4,.24-1.42,1.84-4.08,1.46-6.16L36,150.32l.92-3.68.26-1.23,3.05-7.69,9-15.29,1.8-2.59,4.17-5.63,4-5,3.7-4.38L76.29,90.3l5.53-6.16,4.28-4.75,4.56-4.49,4.87-4.06,4.14-4,2-1.5,2.05-1.51,8.35-6.94,5.5-3.12L131.31,47l5.26-2.21,8-3.79L148,39.38,157.85,37l9.4-1.45,5-.81,4.45-.39,1.82-.5,5-.18,4.4.57,16,.15,21.75.18,9.47.92,1.89.15,6.87,1.17,12.38,2.86.62.12,4.69,2,4.88,1.36L277,47.71l8.31,3.18,3.37,1.75.5.39,6.9,3.18,6.84,3.33,2.65,3.51,3.27,3,6.26,5.43,6.73,5.86,5.64,6,1.64,2,7.36,9.58L341,101l7,12.1,5.16,10.25,2.14,5.32,2.11,4.63.52,1.84.64,2.43,3.81,9.44,1.53,5.51,2.45,8.54.44,2.5,1.65,10,1.06,6.22.87,5,.39,2.48.22,7,.81,8.85,0,1.89Zm-297,78.66-.94.38.27.33.48-.9,1-.48-.33-.29-.46,1Zm149.7-64.2.5,1.05.38-.35-1.06-.52-.43-.88-.29.29.9.4Zm-53.9-5.12,1.3-1.25,1-.61-.43-.29-.4,1.07-1.29,1.27-1.06.44.31.4.57-1Zm-7.54-23,.38,1,.48-.46-1-.37-1.29-1.29-.5-1-.31.35,1,.46,1.25,1.3Zm-5.25-8.79-.4-.9-.36.07.93.67.39,1,.37-.29-.92-.54Zm90.85-19.35,1.33-1.22,1.77-.27,5-3.79,4.63-5.81v-1.74l1.32-1.27L262,156l2.33-.44,2.89-.88-.46,1.06-4.41,3.63-.89,1.38-1.56,1.89-.35,1.12-1,.54.38.33.43-1,2.74,0-.52,1.1-7.15,6.42-1.09,2.11,2.39.48,8.94-4.66,4.38-2.52,9.07-5.62,4.38-5.41,1.63-1,4.7-3.22.9-2.19-3.83-.57-4.3,2.19-5.13,2-6.15,4.78-5.68,4.75-1.45.22.18-.61,6.53-5.87,4.3-3.71.64-1.12v-1.22l-2.15-1.21-1.06,2.19-2,1.32-.37-3.62-2.41,1.86-3.09,2.26L262,156l-1.23,1.31-1.3,1.29-.59.2-10.58,10.12-.31.52-.06.62-1.23,1.35-1,.44.32.35.58-.94ZM102.15,138l.46,1,.33-.33-1-.46-.35-.92-.38,0,.9.7Zm167.46-1.3,1.31-1.25h1.42l-.28,1.93-4.1,3.85-4.25,4.58-1.51,1.12-2.37,2-7,8.1-6.91,8.16-.57,1.1.09,1.24-1.25,1.32-1.68.22-.38.35.92.44,1-1.2,1.37-1.23,1.93-.15L257,157.2l2.65-2.65,2.88-3.36,4.66-4.3,4.16-4.86,1.72-1.87,14.15-13.85,4.18-4.82,4.93-5,7.76-7.54,1.73-1.8L318,97.87,327,92l1.05-.68.33-2.39L317.5,78.23l-2.82,5.48-.4,3L307.16,99.9l-1.6,1-1.62,1.89-1.26,1.46-6.48,7L289.43,119l-7,6.43-1.6-1-.39.37.44.37,1.73.11-3.79,5.48-2.8,1.09-.75-2-4,4.09-.13,1.82-1.3,1.25-1,.48.31.33.46-1Zm-135.5-5.08.39.92.4-.07-.92-.72-.48-1-.38.37,1,.48Zm115,162.65L246.58,293,244,290.41l-.51-1.07-.33.4,1,.5-.08,1.16,1.46,1.46,1.16-.06,1.49,1.25,1.1,0,.84,1.27,1.68.05,0,.61,1.79,1.77-.7-2.27-1.26,0-1.45-1.32-1.12.05Zm44.76-190.82,1.7,0,.92-1.2,5-1.83-1.73-1.66-3.15,3,0,.63-1.1-.06-1.43,1.34-.9.78.39,0,.35-1ZM213.5,223.69l.42,2.3,1.56-1.54-2.19-.55-.4-2.27-1.56,1.57,2.17.5Zm-47.36,16.85-1.21-.11-.88,2.08,1.91-2.15,2.21-.59-2,.77ZM306.86,94.66l-1.74.14-.76.83.26,1.05.5,0,1.6-2.2,1-.48-.35-.33-.46.94ZM303,176.57h-4l.24-.59,6.2-3,6.18-3.08,2.15-1.32,9.4-8,1.1-2.67-1-1.52-3.51-1.51-9-.11-2.76,1.36-1.58,1-7.82,6.46-2.89,2.48-1.89.28,1.34-1.93,2.24-2.73-2.24-.51.64-1,7.95-3.84,7.5-4.4,6-5.89,1.1-2.37-.72-1.51-3.66-1.3-3.68.81-1.88-.85-3.27,2.85-2.34.87-.93-1.38-7.36.71-2.28-.81-3.53,1.48.51-1.14,6.2-5.47,3.19-3,2.94-4.71v-1.6l-1.82-3-3.72-1.34-3.66,1.67-3.22,3.63-7,8.22-1.14.44-.79-2.15-8.7,8.92.07.46,3.63.31,2.1-1.32v4.36l2.22.79,4.45-2.32,4.9-2.85v1.91l2,1.55,1.18,2.83,1.91.15-.59,1.08-6,4.62-1.64.95-1.72,2,1.65,1.6,9.7,0-.69,1-4.06.93-.13,1.68,1.58,1.58h2l-.38,1.05-3.63,1.69-.13-2-1.06-1.44L285.33,164l-7.07-.15-8.33,5.63-4.54,3.48-4.64,4.25.44,1.36,3.51,1.7,6.18-.14,7.95-2.18,3.35-1.76L285.4,174l1.53-2.69,2-1.3-1.12,4.15,2,2.06,9.34.15-1.06,2.12,1.56.44,1.58-1.09,1.73-.14-1.75,2.52-.33,1.12,1.71,2.8,9.07-1.09,4.2-1.27,6.44-2.35,2.44-.48-.46,1.14-2.59,2.76-.77,1.54,2,2.19,3.94.68,8,.1,3.09-.57,5.19-.33L346,184l1.42-1.85.42-6.52-.22-3.14,1.17,0,2.27-1.46-.46-.95h-1.68l.26-.57,5.1-2.17,5.12-2.4,1.23-.18.16,2.1,2.89,1.77.68-1-.48-4.93-1.91,1.4-1.56.88,1.29-8-3.19-4.71-3.83-1-10.28,10.34.59,3.17-2,4.68,1.12.52,5-.08-.46,1.14-.87,1.66-7.5.85h-.59l-1.32-.48-7.55,2.81-2.41.63,1.46-2,5.68-2.89,3.72-1.82,3.05-7.85L339,159.9h-4.21l-11.07,4.47-5.43,3.83-4.67,3.27-8.33,5.79-2.45.61,0-1.47,1-.44-.32-.31-.46.92Zm-61.4-11.52h-3.13l-1.65,1.51.75.86,3.64-2,.2-.56,1-.75-.46,0-.33,1Zm45.89-68,2.38-.77L291,93.94l-1.21-.26-2.1,3.51-.92.5.33.31.44-.93Zm-49.9,103.82-.38-.95-.35.26.92.51,3.22,3.7,1.2-.87L239.57,201l-1.93-.12Zm-2.53,161,1.85-.11,1.86-3-.68-1.62-2.91,3.19V362l-.9.44.32.3.46-.87Zm11.5-207.27,1.8,0,3.22-1.68.42-.55.32-1-1.14-.22-3.31,1.62-1.18,2-1,.55.4.32.48-1ZM172.36,57.57,171.83,54l-.52,2.28,1.24,1.09v3.07l2,.22.32-.53-.43-4.73-1,1.58-1,.57ZM241.49,161l1.86,0,5-2.48.2-1-1.1-.37-5.5,2.8-.29,1.13-.94.47.31.32.5-.92ZM84.1,176.55l-.6-.89-.53.9-1.59-.95-4.89-2.85L71,173l-.44.51,1.4,2,.75,2.32L69.5,175l-1.14-1-3.63-1.45H62.1L61,174l.17-.18-3.1-2.12-4.33,1.91.78,3.57,3.84,3.17L63,182.42l5.41,1.5,6.6-.12,1.47-2.29,7.65-.82v-3.06l3.52,2.52,3.55-.25-.32-1-4.19-2.39Zm130.48,64-.48-5.08-1.42,1.27-.25.57-1.13,4.19,1.51,1.18,1-1.73,1-.62-1.25,6.14.53,2.43,3.13-5.12ZM93.18,176.41l.51.88.3-.35-.94-.4,0-2.69,3.23,2.82L99.58,179l2.74,0,1-1.34,2.2,1.14,1.84.17,1.12-1.27,3.55.86,1.09-.7.37-1.69-4.3-4.41-5.7-2.85-1,.53,5.85,6.64.3,1.8L105.21,175l-5.85-5.9-2.87-2.52L96,168.32l2.12,2.92.16,1.47-4.82-3.82-2.83.81v1.76l-2.13-1.12-1.14.28,4.08,5.79Zm268.69,58.86.33.94.5-.44-.92-.4-.06-.61-8.29-8.13-1.4-.26-1.68,1.36-2.5-1.8-4.73-3-1.71.22v2l-5-3.79-5,.5,12.14,11.92,5.59,1.53,2.41-1.36,2.34.77,3.44,2.61.5-1.78-6.64-6.46-.94-1.56,2,.33,4.12,3.75,3.77,3.35,1.78.29Zm-60.08-17.76-1.14-.44-3.46-3.22-3,.26,7.08,6.84,1.07-2-.75-1.66,1.8.39,1.21,1.47.5.37,1.55-.72-.45-2.45-3.88-1.16-.51,2.3ZM72.57,157.36l-.4-.86-.33.26.9.46.79,1.54,1.79,2.47-3.55-.8v1.24L75,162.81l.09-1.79,1.14.44,6.22,4.44,1.16-.2-.4-1-4-4.1-4.77-3.15-1.87,0Zm201.05-38.53-.84.84-6,4.2-.18,1,1.1.4,4.56-2,3.35-3.72-2.14-.68,1.86-1.34,4.18-3.32v-1.15l-.95-.59.33-.54,5.94-5.37-.59-2.46-1.79,1.67-6.14,5,1.18,1.64,1.23-.07-.72.9-3.91.73L271.24,117l1.13,1.89,1.25-.05Zm-14,23-.59,1-4.32,2.32,1.82,1.32,5-3.75-2.12-.7.57-1,4.43-2.11,4.93-5.17-1.23-.39-3.51,2.74-1.12.59-3.2.5-3,4,2.41.64Zm-99.83,109-6.93,0-4.49,3.29,2.1,1.45,4.41-1.29,4.55-3.07.18-.59.57-.25,1.53-4.05-.22-.63-1.7-.2-4.3,2.52-.12,1,3.64-.39.57.37.22,1.8Zm175.25-22,.53.92.28-.35-1-.39-.37-1.12-7.19-7.49L324,219l-1.32.61,9.88,8.64,2.41.54ZM232.5,345.47l.7-2.38,1.49-2.74,1.4-3-1.44-4.76-1.78,2-.52,4.47-1.54,4.74-.54,1.79.26.55,2.17-.87-.7,2.38-2,4.52.53,3,3.63-4.23,1.06-.56-.83,2.36-3.1,5.46.53,2.3,1.21.06,3-4,2.8-4.65v-1.45l-.5-1.42-2-1,.84-3.53L235.71,342l-2.19,2.91-1,.53Zm54-231.8-1.29,1.2-4.58,1.86L279.26,118l-.08,1.66,1.12.2,4.51-2.17,3.7-3.28-2.26-.57,1.08-1.38,10.27-5.9.07-.62-1.16-1-7.34,3.42-4.95,3.48,1,1.75,1.25,0ZM111.16,291.53l-1.38,1.13-4,.44-3.25,4.24,1,.59,2.54.17,1.25,1.25-5.55.22-3.13,3,.52,1.16-2.78,3.16,6.75-1.74-.61-1.36,3.07-1.22,1.6-3.29,1.53-1.73,2-1.36,1.59-2.69L111,291.68l.78-.88,2.7-.7,1.58-2.93-1-.59-2.5.11-6.85,1-1.76.37,1.65,3.22,5.63.27Zm111.13-21.6,1.12-2.2-1.18-5.56-.74-.72-3.07,2.1.26-3.21-1.73-.63-1.93,4,1.56,1.9,2-2.25-1.13,4.8,1.57,5.49,2.1-1.29-.85,3.58,2.54,3.59,2.21-2.7-.28-5.7-.66-1.18ZM186.45,156.07l-.57-2.28-.57,2.28-.9-.73-2-5.32-1.88-6-.25-1v-9.11l-.26-1.29-1.71-3.16-3.74-1.4-3.18,2-.16,4.38,2.81,7.06,4.25,7.82,4.32,7.76.76,1,1.74-.9,0-1.27,1.49,0-.4,4.86-1.69.84.37,1.07,3.6,5.11.66,2.36-1.1-.52-6.23-7.94-6.31-6.85h-2l-.75,1.62,1.16,4.86,1.1,2.32,5,7.24,4.61,5.23,2.75,2.59,3.32-.62.85-1.71-2.19-4.6-.4-1.84,1.45.9,1.6,2.46,1,.52,0,4.4.37.47,1.87-1.36-1.4-2.81-1-.53-.83-6.06-.46-3,1,.64,1.58,4.12,2,3.9.35-.4.29-4.37-1-2.21.53-2.93L194,157.15l-2.47-6.22-2.81-7-2.8-5.58-3.2-.48.35,5,2.92,7,3,6.11.19,2.74L187.74,157l-1.29-.92Zm169.07,64-2.06-1.38-2.63-2.39h-2l-3.32,2,1.72.83,4.91,4.4,2.61,1.18,3.09.27.88-.57-2-2.43-1.36-2.07,1.8.38,3.82,3.33,2.14-.5-.19-1.43-3.49-3.37-3.81-2.1-1.29.61,1.21,3.27ZM66.19,170l2.8,1.4h6.14l1.27-1.46,2.85,1.42,3-.53-5.2-3-.5,2.28-4.82-3.93-7-2.43-2,.15,1,2.33L62,165.9,60.39,164l-4,1.7,2.81,3.95,3,1.6,2.85.26L66.18,170ZM231.41,323.72l-.19-.18L230,326.76l.55,5.26,2.06-1.27,2.49-1.6,1-5L234,321.26l-2.94-4.8L230,316l-.5-1-.33.33,1,.48.31,7.21,1,.66Zm101-176.62-2.68,0,.95-1.55,5.54-3,6.6-3.76,2.7-1.62,6.37-4.1.93-1.45-4.45-6.2h-1.51l-6.2,5.19-3.07,2.22-8,3.79-5.13,3.52L322.05,142l-.55-3.46-2.76,1.33.68,1,1,.74,1.83.22-.27,1.89-4.91,6.53.22,1.14.48.28,5.87-2.12,4.49-2.28,1.84-.37-.94,1.57-7.87,4.12.57,1,2.7,1.62,1.06,1.1,1.22,4.3,1.08-.66,2-4.62,2.3-6.55.24-1.82,1-.52-.35-.36-.51,1ZM36.72,231.36l8.2.11,1.75-.53-2.76-3.5-1.6-4.71L41,222.49l-6.46,3.56v1.87l1.1,1.58,1.35,2.05-1.22,1.65.46.39.43-.39.11-1.84ZM274.9,202.13l-2.41-1.87-2.65-1.88-3.35,1.18-4,1.73-.4,1.32,1.52,1.8,1.51,1.12,3.4,1.44,1-.55.22-1.88-.14.15,1.14.33,3.88,3.26,3.6-.2-.93-3.57,4.8,4.87,5.44-.37v-1.89l2.93,2.35,2.1-.51.24-.59-.17.17.61.07,4.19.86,1.1-.47.26-4.12-1.1-.81L291,200.81l-7.14-2.26-1.1.48-.15,1.85L280.18,199l-2.28-1.73-4.2,1.53.82,1.55.37,1.83ZM91.87,307l-7.56.13-3.64.94-4.09.83-1.91,2-1.84,4L73.7,317l3.71-.28,3.07-.6,3.09-.45L86.15,313l-.08-.48-.51-.27-3.62.92-4.4.09-.48-.4.14-.4,3.57-1,3.13-.35,5.65-.53,2.28-2.94,0-.63.9-.53-.33-.32-.52.9ZM300.28,83.16l1-1.51,7.21-3.84,3.3-1.84.9-1.36-2.06-1.73-4.88,2.35-2.23,1.16-5.18,6,2.17.61-1.18,1.3-3.7,3.28-.37,2.35-2.41,3,.54,1.66h2L294,95.8l-2.93,2.37-.31,1.07,1.07.38,6.18-3.12,5.72-3.94L303.48,91l-.61-.19.7-1,5.48-3.18,1.18-1.44-.08-.5-.5-.38-2.46.48-3,.75.15.15.09-.61,2.48-1.8,4.6-2,1.38-2,0-.61-1-.48-8.54,4.07-3,.88ZM223.55,254.6l.06-2.52-.4-1.33-1.49-1.14.15,4.73,1.85.09-1.21,2.74,2.06,4.71.63.13,1.69-.59.33.53-1,2.86,2.1,4,4,4.1,1.06.7,2.82-1.31,0-.66-3.29-7.49L228,258.86l.31-1.27-1.5-2-1.53-1.75-1.75.76ZM86.79,138l.57,1,.59-1,1.86.4L92.9,141l2.52,3.42,7.26,1.48,1.09,2,4.08,1.59,1.86-.46-.74-1.84-9-7.71-7.16-2.9-3.33-2.19-3.62-.11-1.38,1.78L86.79,138ZM44.6,166.12,40,164l-2.3,1-.85.9.15,4.56,1.47,1.77,5.59,1.12.61-.22,3.7-.67,4.14-1.4L54.68,168,50,163.65l-4.88,1.62-.68,1,.17-.19Zm214.75,186.8,1.71.77,1.26.37,4.65-2.93,0-4.41-5.72-11.33-1.68-.79-1.36,4-1.3,6.14,2.46,7.14.17,1.25-2.52-2.54-1.46-6.72-.72-1.1-1.56.63-.23,2,.32,1.84.64,5.55-.79,2.87,1.53,1,4.56-1.93v-1.88Zm-33.07-20.46-.13,2.54-2.26,4.54,1.91,1.75L229,336l-.22-3.2-.46-1.23-2.19,1.06,1.59-5-.36-12.27-1.78-5.7-1.73.33-1.56.9,1.45-4.15-.9-2.27h-2.32l-3,6.44,0,2.47,1.38,1.95.57-.06,2.1-3.84,1-.76L221.41,315l-2.74,6.09,1.6,4.49,2.1-3.61,2.24-4.43,1.1.2-1.82,3.9-2.81,7.17,0,5,1.86,2.41,2.32-3,1-.7Zm30.57-125.23,3.68.81,1.05-1.4-2-4-1.45-2.8-.94-1.6.57-.68,2.47,1.93,3-.88-.53-1.47-3.06-1.4-5.72-.26-6,.27-3.36,2.08,2,2.45,7.38,7.87,2.3,1.09.55-.3.24-1.82-.09.11Zm-132.94-4V206l-8.85-.31-2.48-.39-4.34-.66-10.17,0-2.85,1.22-2-2.06,6.38-1.4,5.87-2.26-1.59-1-.68-1,3.65-.65.93-2.77-4.37-.33-1-.64.53-.33,6.8-1.32,4.38-.74,1.42-1.1-.24-.53-3.61-1.22-4.13-1.56-1.14.35,0,2.87-4.19-4.54L96,184.05l-11.89.09-3,3.32L79.34,187l-1.16,1.47.9,1.5,9.25,2.6,3.11.57,3.11.57,5.54-.09.44.25-.59,2.4,2.87,1,.66,1L99,197.89l-5.57-1L91,196.38l-6.12-1.7-8.13-1.41-5.37-.08-4.93,2.41-4.27,2.74-1.64,2.08-.59-1.6-.71-1.63-.78-.08-4.83,1.25-3.39,1.55,0,.57,1.78.38,1.92.06,1.49.71-2.58,1.22-2-.77-11.22,1.69-1.32,1.51.55,3.86-.44.46L36,208.76l-1.14.29,2.93,4.34,3.77.83-6.2.15L33.47,213l-.2,3.09,1.1,5.61.88.87,1.23,0,3-1.07,3.11-.48.46-.4.28-1.91-.15.13,5.56,2.42L52.52,220l4.25-1.27,4.3-1,2.56-.11.7.5L61.5,219.3l.44,1.23-.89.59-6.35.37-6.83,1.15-2.8,1.66-.37.48.09,1.2L53,231.7l11.75,1.08,4.82-2.22,3.15-.3-.11-.13,0,.63-3.33,2.9-3.75.78L63.83,236l1.07,3.07,7.52-2.3,6.81-1.4,6.64-2,1.76.11,1.84-3.74-.09-2.17-.19.19,2.21,1.84-1.82,3.95,3.61-.84v1.63L95.76,238l-1.5,2.19-1.34,1.6-1.16.09.14-3.16L91.54,237l-5.82-.71-10.39,2.24-1.88.68H69.39l-3.88,1.24L61,243.75,63.61,248l12.33,1,4.78-1.93L85,244.5l4.51-2.3,2.43-.59-1,1.59-5.22,3.55-8.63,4.06-1.66,1.82,1.38,1.8.61.13,10.12-.86,6.77-.59,12.73-5.49,2.1-1.91,2.83-2.26,1-1.8,2.89-2.37-.68-2.3,5-.39,6.55-4,1.84-1.67-3.94-4.27-2.93.92-3.18.11.7-1,7.88-2,3.11-2.34L129,226l.94,2.87,2.3,0,11.33-5.13,7.2-5,2.55-.13-.64,1-3.66,2.47-5,4.26,1,4.58,4.35-2.55,6.16-3.2,5.18-5-.31-3.43-2.21.45-2.52.31.23-.59,5-2.65,1.21-1.29-1.95-1.63-5.65.93-2.45.67L142,216.67l-9.5,5.19-2.39.73,1-2.13-3.92-.24L123,222.39l-1.84.2-.09-1.84-.51-.42-5.59-.24-6,3.36-1.33-.11.44-1.71-1.71-.51-4.4,0,.17.16.57-1,5.53-2.34-6.18-3.09-2.43-.22-2.85-1-1.28.47-.59.17-11.3-.5-1.8,1.62-1.53,3.26L81,222.3l3.68,1.56,2.9.64-4.89.39L79.41,223l-.71-5-2.28-2,.18.2,2.74-3.35,1.23-.34,15.55-.34,2.11-.95,2.91,1,3.18.27,3.7.46-.24,2.36.29.44,3.55,1.32,4.13,1.46,1.93-.43,1.95-4-4.18-1.07.29-.33,9.31-2L127.7,209l-.7-1.44-2.6-.77-.7-.95,4.53.31,1.84,1.69,1.89,2,3.31-.2,2-2L132.1,207l-1.13-.92-1.62-3.75-1.76-.17.75-.95,3.94-2.05L130.16,197l-4.93-1.31-14.47.11-2.3,3,3.7,4.46ZM225,176.59l-1-2.1,4.6-2.7-.13-1.33L228,170h-3.09l.11.1.11-.61,4.75-2.72,1.53-8-.72-1-7.36,6-3,4.06-2.3,4.51-1.73,4.78,3,1.84,4.15.9,1.35-3.38.62-.79-.42,1ZM56.13,244.39l-7.55-.74-1.8.15-3.11.44-5.55.08-1,.94.22,3.73,3.42,2.87,9.82,0,2.52-1,5.47-1.57.71-1-1-2.12-1.65-1-.65-1,1.22-.09,1.32-1.71-3.29-.17.95,2.17Zm167.57-1.33-.13-.11.17,4.44,2.92,4.08,1.38,1.27,3,1.31,1.56-1.73-.18-6-2.21-3-.28-2.1-5.63-7.18-2.3,1-.36-.44.81-1.74,0-.63-.72-1.69-1.28-.31-3,6.7,1.8,1.76,1.22-.5,1,5.45,2.23-.67Zm20.51-15.34-3.07-.26-6.48-6-8,.39,3,2.19.48,1.1-1.86-.35-7.84-4.34-.22,1.64,3.5,3.47,4.43,3.54,3.68,3.51,2.11,1.4,11.1,6.07h.62l.48-.39-.29-.57-13.34-11.62-2.06-1.47-.55-1.1,1.23.13,9.37,6.18,7.48,7.21,5.87,2.93,3.07.27.59,1,.35-.37-1-.53-.26-1.12-2.21-3,.85-2.1,1.18-1.07-4-1.49-3.94-1.88-.62-1,3.11.48,4.61,2.06,1.88.25,6.14,2.36,4.1-.52.2-1.65-1.41-1.23-5.3-2.06-3.42-1.62-3.35-1.13-4.86-4.47-11-2.46-.55.46-.22,1.31L243,226.4l1.25,1.33ZM51,177.85l-2.94-.25L43,175.24l-4.75-.68-1.71.9-.06,3.94-.16,3.14,3.47,1.8,14.19.17,8.2.37L60.9,183.5l-4.6-2.12-4.58-2.13-.92-1.57,1.13-1.2-.37-1.12-1.32-1-1.45,1.73,1.58.83.66,1ZM237.63,248l.63.13,9.49,7.52,3.48.83.42-3.66-5.32-7.05-4-3.09-11.29-8.11-2.38-.46-.42-.94-.37.28.92.52.28,1.78,5.13,6.92,3.18,3.78.42,1.77-2.66-1.16-.76.55,1.51,1.71,1.71-1.32Zm-38.41,104.9,1.9-.15.57-1.08.55-5.63,1.42-5.5.27-6.18L200,325.13l-1.23-.18-2.85,6.94.52,2-.54,6.68,1,6.38,2.28,4.36.23,1.88-1.13-.44-2-3.2-1.8-1.86-1.67,6.81.6,11.09,1.73,1.6,5.69-.33.77-1.13,0-7-2.08-4-.33-1.84ZM235.28,191.7l-.68,1-4,2.5.57.43,3.83,0,3.05-.72,8.43-2.76,3.05-.5,5.59-3.11-7.43-.33-5.31,1.93-4.2,1.36-3.12.43.64-1,7.65-2.76,2.94-1.3,2-3.44,1.55-.5,6.47-3.79.23-1.09-10-.14L236.91,183l-8.13,7.21.13,1.67.9.89,5.47-1.1Zm-98.71.17,3.39.93,1.73-1.21v-2.37l1.28-1.84-1.85-2.85-2.63-1.36-1.82,1.05-2.28-.78L132,181.82l-3.39-.25-1,1.38.17-.19-5.49-1.1-2.06,1.14-1.69-.88-2.44-.42-1.22,1.17-.57,1-.59-.23h-1l-.17,1.14,3.31,3,3.37-.61,2.48,1.88,2.8,1.12.66-1.12-1.38-2-1.78-2.31,1.32-.19,2.45,2.76,4.21,4.56,3.07,1.38,2.37-.12,1.35-1.2-.13.11Zm119,83,4.82,2.9,4.95,2.83,4.89.8.94-.5,8.26-1.16-.83-2.28,3.64-.5,2.08,4.48,3.07,4.66.37,1.8-2.06-1.4L282.07,283l-3.84-.51-3.64-1-1.13.44-1.17,1.44.14,2.1L282,296.41l10.8,6.63,1.8-.85,2.7.4L292,292.64l-2.7-1.75-1.75-3.23,1.8.38,1.6,2,4.25,2.58,4.32-1.23.92-1.14-.28-6.68-5.77-5.89-4.8-4.76-5.9-4-8.08-3.29-1.2-.42-3.75-.26-.52.35-.22,1.3,8.69,9.22.2,1.86-1.55-1-5-4.95-1.07-.52-.66,0-4.91,1-12.37-4.65-1.2,1.1.1.74,3.12,3.9.46,1.82-2.08-1.23-1.69-.7,1.62,3.75,1.77-.81.18-1.25Zm-70.18-21.53-2.12,1.29L181.6,258l-.81,5.1-.78,4.36-.12,5.1-.85,5v1.17l1.55,3.51,1.74.17L187,279.1l.72-1,.16-.61-.11-16.35-2.46-5.58-.13-2.42,1.05.58,2.63,4.42.9-5.24-.65-4.21-.16-3.83-1-4.32v-1.1l1-3.17-.57-1.71-1.17-.24-3,3.92.6,1.62-.86,1.65v8.17l1.4,3.7ZM176.23,79.13l.16.17.09-6.37-.75-2.35L174,69.64l-.52-5-3-3.4L168,57.74l-1.16,4.75-.13,1.2.86,8.22,3.72,8.75L173,83.33l.81,2.37-1.09-.51L169,80.09l-2.71-5.82-.87-3.79-1.14-1.08-1.75.68-2.39-.68-.42.59.61,9.34.94,4.34,2.92,5.74,6.4,6.2,4.08-1.3,1.44-2.69-.61-1.12-.59-2.43,2.5,1.84,1.05.18.4-13.3-.59-1.06-1.06,2.81-1,.59Zm55,198.44-.84-3.66-2.19-1-.4.5-.22,1.23.2,6.42,2.3-1.07-1.18,4,10,16.69.13,1.25-1.12-.44-4.73-5.74L228.38,287l-2.26.85.71-3.48-.55-.27L222.55,286l-1,2.37,1.22,4.1,2.18-2.18-.66,3.7.09,5.42,1,2.19,1.85-.09.19,5.3,5.66,10.13,3.39,4.55,1.64.84,1.76-.27-.66-7.56,3.27-5.34.32-1.27-3.74-4.8-.22-1.34L241,303l2.87,2.41.59,0,.7-.87-.11-3.13-.63-1.78-2.32-7.15L241,290.26l-9.14-12.6-.63-.09ZM209.48,135.45l1.09,1.35,2,5.9.53-.08.94-.82.26-.57.53-4.41,1.07-4.93-.61-4.4.4-2.31-.77-3.11-.26-5.1-.33-2.49-1.25-5.24-3.27-3.4-1-.38.39,6.18-.74,2.11v4.82l.32,2.5.66,5,.24,9.57-.94-.66-.77-6.77-1.22-1.2-1.12-.39.68-4.93.52-1.78-.32-10.62-.7-7.22,1.1-3.78,1,.63,2.35,2.89,2.67,2.35.46-1.16.2-5.07.44-4.33-.35-4.41-.24-7.64L213,78.45l-4-14.07L205,59l-.61-.13-.5-.94-.29.33,1,.44-.28,5-1.15,5.54-.61,2.41-.31,8.06.73,2.39,2.14,8.52,1.74,5.4.32,2.5-2.38-2.66L202.4,88l-1.9-7.34L200,79.52,197.24,78l-1.74,1.4.11,10.8,1.58,8.7.79,3.68,1,3.64,1.46,8.07,1.6,8.08,1.87,4,1.9.11-.3,1.9-2.17,1.49,0,1.73,1.15,5.55.15,3,1,4.4,1.07,4.08.46,8.43,1.1,7.48.4,1.33,1.27,1.2,1.75-.39.25-1.69.17-4.43-1-9.42-.59-8.59-1.08-7.1ZM191.57,281.31l.14.12-.7-3.58-3.21,4.52.51,4.9L190,287l.35.72.07,3.82-.09,8.92.33,3.13,1.07,4.3,1.47,5.5.27.55,1.07.54.92-.65.26-5.08,1-5.59V290.63l-.82-2.41-.4-7.82-1.88-1.21-1,1.55-1,.57Zm-1.14,67.8.44,1,.33-.35-.92-.52,2.63-5.43-.22-14-.92-2.44-.22-10.87-1.35-4.45-1.87-3.4-1.63,3.25-.28,2.76.11,24.23.29,1.86,1.14,4.28,1.86,3.92.61.13Zm-48.6-72.76-.17-.16-.61,1-1.49,1,2.7,1.4,4.73-1.33,3.53-3.68,1.53-4.06-3.81-1.34,2.34-.39,2.8-.81,3.2-4.95-.3-.5-5.63-.16-3.45,1.56-2.87,2.65-1.1.55-1.1-.4-.3-2.11-4.06.35-5,2.2-4.36,2.6-.4,1,1.13.48,5.73-.22,1.24-.31,3.93-2.17,5.21,1.87-5.23,1-1.66,1.86,1.09,2.23.5.47,1.84.35Zm-2.54,42-.17,6.86,2.93.81,3.44-3.55,3.64-7.3.81-1.51,3.35-4-1.16-2.1-1-2.91-1.86-.18,1-1.55,3.27-5.26,3.94-9.34,1-.68-.14,2.68-4.64,12.25-.27,3.13.23.55,1-.05,4-4,2.24-2.21,1.66-.75,1.69,1.05,1.14-.3L167,296l1.64-4.73.91-4.62-3.16-3.73-.26-4.08-.68-1-1.78,1.64-2.82,3.27,2.85-6.27,2.82-2.32,2-4.16-.79-3.82-1.6.64-1.87,2.56-2,1.54-.94-.42,6.88-8.24,2.33.75.67-3.7.44-3.11.75-6.9-.64-1-3,2-.48,2.3-2.63,1.69-3.36,4.86-.5,2.32-2.28,1.32L154.65,270l.77,6.09,1.69-.63,3.33-2.57.13,1.2-4.17,6.36-5.84,5.7-5.62,9.2-1.34,4.76.29.67.66,5,1.53.92,2.3-2,1.14-.44-.39,1.78-1.2,1.4-3.82,7-.7,1.54-3.7,2.45-.59.13.73-2.39,3.26-6,0-2.08-.59-4.52-1.45.84-5.37,7.11-3.23,6.18-2.1,4-2.55,5.82-1.22,6.14,1.82,4h1.38l6.44-9.28.4-1.18.16-3.48,1.6-4.5.9-.81ZM80.43,97.23l-1.88.13-5.5,3.16-.15,4.84,11.72,7,1.88,0L93.32,111l.51-.35.41-.65-.57-1.62L93,106l.61.17,1,.7,1.71.29.22-1.76L94,103.72l-2.73-1.1-.68,1-2.28-.7-5.33-4-.2-.57,1.29-1.21-.29-1.82-2.7-4.2-1.44-.09L74.4,96.29l1.12.59,3-.83,1.9,1.18Zm24.28,173.83.59,1,.55-1h2l1.54-3.42,3-1L115,265l3.38-1.63,7.51-5.5,3.73-4.53,3.79-4.25,1.82-3.29-.26-1.14-1.12-.4-7.1,2.54L120.1,250l-3.42,3.14-1.87.2-.24-3.13-2.3-.62-5,1-1.86.39-7.8,2.63-4.15,2.77L92,259.84l1.1,2.3h5.3L103.2,260l8.11-4.81,1.12-.59,1.25-.11-.44,1.12L110,258.65l.87,2.32-1.17,2.58-.2-1.85-4-.59-7.37,4.32-4.53,4.27-1.87.27,2.44-3.56L93,264.75l-1.89,0L83.19,267l-12.65,3.9-3.13.37,2.11-2-2.07-.64-2.1,1.93,2.3.48-.57,1-5.65,2.78-1.45,1,.53,3L62,279.91l7.52-.74,6-1.84,14.67-7.23,1.83-.35-.53,1.1-4.2,3.89-1.71,2.5v4.45l1,.89,4.25-.7,3.22-2,9.12-7.84,1.57-1Zm124.12-125.4-2.17,4.91-2.83,1.36-.31,3.63-.92,4.26.44,1.1,1.16-.09,7-6,3.68-5.5,2.85-10.68.09-.89,1-2.11-.33-4.91-.44.23-1.6,2.7-3.37,6.81L231.21,142v-.64l1.68-4.77,1.3-2.13.9-1.66L239,122.24l1.1-7.65-.37-1.75-1.43.08-.9,1.56-1,.66.7-3.68,2.3-7.12,1.34-4.15,1-.63v1.79l1.1,2.28.69,6.05,1.06,1.14.59-.33,7.65-13.89,1.38-5.52.28-1.86,0-5.1-1.12-4.3L253,69l-.81-.61-2.48,4.34L243,87.22l-.22,8.72-.39,3.15-.92.72-.59-2.38,0-3.66.64-4.38-.81-5.61-.14-1.23L241.1,81l-1.23-3.87-.5,0-1,.74L237.7,79l-1.26,4.24-1.32,5.51-1.42,9.38-.34,1.22L231.52,105l.5,12.27,1.32.44,2.1-2.26,1.1-.52-.13,1.25-4.34,6.07-2.67-1.76-3.12,10.13.35,15.88,2.2-.83Zm94.53,69.26,3.7,2.35,4.79-.07.62-1.14-.18.16,1.16.35,2.1,1.91,3.95,1,2.63-1.44.13-1.3-.27-.55-1.37-1.26-1.91-.18.19.2-.24-.57-4.57-3.11-4.83-1.43-5.49-1.16-10,.14-.47.4-.2,1.86.14-.14-1.16-.3-2.65-1.89-5.06,1.9.77,2.78,8.81,1.16,1.09-.63,5.07,2.27,2.06-.19,1.31-1.25-.15.15Zm-203.29,124-1.24,2.8-2,1.45-1.7,1.62.33,2.7,4,2.61,4.3-3,.59-.59,3.31-5.13-1.78-3.44-1.31-3.7-1.83,2.58-1.57,1,.35-1.84,2.5-7,1.12-8-.13-5,1,.61,1.06,3h1.09l1.16-4.25,4.82-7.39,4.58-5.24,5.63-11.69-.23-7.33-.34-.74-4-1.1L137.53,286l-1,.64v-3.12l-.79-1.6,1.75-3.65-1.57-.68-3.14.24-5.9,1.38-2.73,3,4.68.5,3.18-1,1.93.42-3.37,1.62-6.64,1.22-1.87.24-1.73.79-1.1,3.64,1.41,1.56-3,1.33-1.27,2.48,1,1.62,2.52.29.79.56-2.5.51-2.91.94.3,9.43,1.43.89,4.42-1-.19,5.56-.92,1.78-4.54,14.24-4.12,5.67-.52,3.05.57,1.58,3.33,1.53,1.53-.17,3.57-2.54Zm51-217.54,2.28,1.38,1.47-.66-.13-1.4-2.43-8.5-1.07-4.91-.14-3.83.95.72.32,1.21.84,5,1.13,4.91,1.8,4.71,1.28,2.89,4.16,7,.55.31,2.08-4.52,2.39-4.18-1.47-3.62L183.79,111l-3.44-10,.58-2L178,96h-4.32l-1.16,1-1.27,6.68-1.18-1.34-.61-3.09-1.63-.6-1.6,1.92-.39,4.72-.72,1.6,4.55,8,.27,2.82-1-.7-2.77-5-3.66-5.87-4.88-4.88L155.24,100l-3,.52-1.4,2.74-.09.62,4.51,11.09,9.42,8.54.22.61L162,123l-5.6-4.92-.33,1.13,2.39,3.6L156.1,122l-2.83-1.63-2.41.82-2.82-.94-3.16-.86-.39.88,5.87,8.19,3.7,3.49.57,1.1-1.78-.24-2.6-2.06-4.32-1.21-1.41,1.77-.1,1.52,1.25,5.52,1.73,3.48,4.88,4.93,5.68,6,11.54,10.74,2.48,1.06.28-1.8-1.62-5.44-2.73-6.38-7-9.79-1.72-1.86-3.94-4.14-.64-1.08-.2-1.23.6.18,9.64,10,6.94,7.35,1.2.28,1.71-1.67L161.2,127.14l-.34-2,4.18,3.72,2.83,2.46.69-2.07-1.33-2.81h2.93l.93-1.14v-4Zm129.4,141-2.45-.56-2.37-.79-1.22.59,1.16,2.76,3.08,3.25,3,2.38,6.47,4,12.38,7.76,3.92,2.23h3.2l1-1.6,0-3.46L324.87,275l-5.39-5.26,2,.37,6.6,4.72,2.69,1.7,1.63.88,8.15,3.48,1,.29h4l1.93-1.56,1.32-3,0-.85-1.45-3.13-2-1.8-11.66-7.6-10.05-6.14h-2.15L314.6,256l-3-.33-.92,3,3.09,3.77.83,2.36-1.14-.43-4.33-4.67-.73-1.05L306,253.54l-15.15-6.7-6.63-.7.24,4.6,10.62,7.62,4,1.95,1.44,2Zm-78.24-156.1.52-4.42.9-6.25,0-12.73-.2-4.93L219,73l-2.18-.24-1.91,2.65.06,5.72,1,8.15.24,10.56,2.93,7.24,1.21.3,2.13-1.34-.95,2.41-1.68.25-3.71-2.83-.65-1.86-.7,1,.57,7.5.61,3.11.5,3.11.61,3.09v12.64l-.85,1.86.17,1.18,1-.1,1-.81,6.72-12.12,2.41-7.64,0-9.18-.35-1.21-3-2.46-.9,1.61-1,.69Zm-76.77,225.2-.42-4.65-3.09.77-1.22,1.75,1.34,5.41,1-.31,1.6-2.62,1-.59-1,4.29-1.57,2.76-3.22,6.86-1.06,4.3-2,4.68-.07.65.4,3.34,1,1.33,4,1.58,2.38-.33,4.91-8.35,0-4.95,1.16-4.69v-6.46l-2.89-5.68-2.23.92ZM56.09,188.06l-10-.2-9.38.22L38,186.87l2.33-.88-5.46-1.86-.68.73.81,3h1.91l-.5,1.1-2.08,2.65V197l.9,1.22,8.8.18,8-1.25,6.14-1.44,6-1.72L67,192.51l-.09-1.95-7.7-1.32-2.47-.46-.8-.9,7,.09,1.25.26,1.69,1,3.49.5L72,191.62l4.54-.66,1-5.89-.43-.42-1.87.66h-8l-2.14,1.2-8.27.39-.72,1.18ZM107.28,321l-.33,1.92-1.67,1.85-1.53,1.8,1.53,5.74,5.13-.07L111.7,331l1.26-2.17,3.22-6,2.08-5.9.59-4.33-.7-1.5-4-.15-2.25,4.34-1,.72.4-3.13,1.1-5.52.66-7.54-.64-1-1.38-.15-7.56,8.61-2.47,3.22L98.76,310l-1.88,3.55.2.61.66,1.08-3.59,4.07-1.08,2.07,1.23,3,4.58,1.87,4.4-1.89,4-3.39ZM308,315.85l2.43.62,3.92,2,2.44-.39,3.72-3.71-1.14-4.42-3.05-3.09L310,299.74l-4.84-4-3.85-1.58-3.09,1.91,1.84,6.79,3.11,6.13,3.31,3.75.39,2-2.15-.68.42,2.22.48,3,.72,2.46-1.22,2.65-1,.61-.09-7.18-2.93-5.33-4.91-6.4L290.73,304l-4.49-2.32-4.56-3.14-.42.51.2,1.86-.17,6.05-.11.76.72,1.6,2.63,2.74,5.17,5.24,1.23,2.83,6.88,4.66,6.51,0,.13,1.84,2.8.51,5.48-5.17.28-1.72-4.09-2.86-.94-1.54ZM125.05,120.09l1.66.28,3.16,1.87.15-3.68-2-3.29-4.58-.55-2.34-2.34,4.3.89,1.82.5,4.3-3.55-.16-1.64-4-6-3.52-6.22-3.17-2.87-5-2.66-1.66.2-1.41,2.72-2.93,1.67.2,5.94,2.82,5.36,2,1.6,6,3.31.64,1-3.44.48,4.21,3.55.48,1.06-2.39-.64-5.75-4-1.18-.48-2.54-.17L106,109.35l-6-1.56-.86,3.57.4.47,6.77,4.12,6.9,8L115,125.7l9.66,5.54,3.9-.66,1.89-.13,1-.66-.26-2.45L127,122.56l-1.93-2.46Zm-7.5,16.82-1.84-.33-4.62-2.1-2.21,0L104.76,138l.17,1.65,9.58,9.73,7.62,3.94,3.49.44,7.75,3.88.77.94-2.59-.15-8.17-3.29L115.8,152,113.74,151l-4.7.44.87,1.53,6,1.85,13.52,5.34,5.83,2.46,2.19,1.25,1.64.89,1-.55-1.32-2.7-4.12-2.05-.72-.95,3,.22.82-1-.13-1.21-.95-1.62L126.2,144.3l-8.45-6.47-.42-1.13,1.8.37,2.48,1.92,2,1.47.59,0,.77-.83,0-.61L123.49,133l-6.81-3.57-.71,1.68-.24,1.21-.57,1.9,1.93,1.65.46,1.09ZM106,97.25l-1.58-.94-1.8-2.72L100,92.06,98.05,90.5l-3.81-5-.79-1-2.87-1.54H87.64l-4.46,4.58L82.82,89l.09,2,3.27,4.71,4.95,3.75,5.11,3.73,10.56,4.09,1.82-.1.81-2.77-3-4.9-.64-2.41,1-.47.3-1-.74-.47-.37.42v1.76ZM277.4,85.66l-1.13.31L266.6,96.05l-3.19,7.6L257.51,119l-2,7.32-.59,3.79,1.82.19,1.67-.85,4.71-5.19.53-2,1.33-1.15,1-1.59,4.61-10.43,3.26-8.9.88-2.37,2.43-8.5.11-3.79,1-.59-.39-.35-.51,1ZM230.12,43.5l-.9-.75-.42-1.84-2.3-2.41-4.16-.11-1.93.13L219,39.78l-1.8,5.32-1.16,1.54-.19,1,1.55,7.08.7,1.75L219.47,62l1.58,6.76,1.88,4,1,1.37,1.69-.32,1.4-4.06.39-1.86,1-5.61.52-6.35.29-1.87.61-5.65,0-5.11,2.11,1,2.69-4.12-2.81-1.43L230.14,41l0,2.49Zm40.73,301.74,4.85,1.18,2.19-.83,1.75-3.33-1.14-7.43-2.76-7.15-12.29-10.34-4.08,0,1.31-3-6.2-10.08-.56-4.3-5.7-3-1.4.92.92,6.83,2.19,6.51,5.65,6.79,1.31.51,2.64-1.36-.64,2.45-.59,4.1,1.88,4.89,2.7,4.27,2.66,4.3,1.31,2.15,3.37,4.56.86,1.62-2.06.09-.48,1.64,1.75,3.13,4-1.73-2.21-2-1.2-1.3ZM246.7,134.17l1.21,1.17,3.79-1.93,1.21-1.51.26-4.12-1.47-1.15.22-2.76L255,118l2.19-4.47,2.17-5.21,1.53-5.41,1-3.64-.35-5.76-3.48,1.2,2.59-3.53,8.08-15.21,2.37-8.53.34-1.88.82-5-.09-8.32,1,.7,1,2.93,3.36-3-.75-1.5-2.45-1.14-1.93,2.24-1.55-2-4.1-2.89-3.09,1.17L261.1,52.9l-4,9.23-1.24,2.78-1.32,6.27.4,5.61-.23,1.79.68,1.84-.09,13.28-.48,1.6,3.49-.83-1.87,3.24-3.37,3.09-5.46,9.75-2.93,5.55-2,6.59L241,128.76l-.74,9.36.76.85,4.12-3.85,1.54-1Zm69.18,67.76-.2.61-2.14,1.23-4.89.4-3.68-.93-3.64-1-1.84.3,3.73,4.49,1.44,1.1,4.72-2,2.28,1,12.15.16,4.32,1,1.14-.33,1.14-2.78,2.35-1.2,6-2,.37-.9-3.59,0-3.79,1-5.63,0-5.54-1-5,1.12.62-1,2.84-1.6,1.15-3.59,1.7-3.42.13-1.41-2.8-4.07-3.3-1.41-6,.22L299.15,189l-10.69,1.91-1.61,1.77,3,4,9.05,3.88,4.65.7,5.61,1.09,2.34.53,4.41-1ZM126.52,57.59l-3-.83-2-.18L118.8,59.8l.11,1.74,3.14,7.53.87,3.33,4.18,5.84.7,2.39L125,78.21l-4.19-5.6-1-1.62-3.45-5-6.76-2-5.28,3.42-.9,2.52,1.14,2.63,7.76,10.93,5.47,3.29,6.45,2.54,6.83,1.36.62,0,.54-.33,0-.5-3.11-3.92-.79-3.09-.77-2.37,1.13.48,3.09,4,8.92,10.69,2.72,2.53L147,99.62l2.18-.79-.47-4.3L142.8,83.34l-3.25-6.18-6.15-9.45-2.83-3.39L126.4,58l-.11-.61,2-3.31-3,1.4,1.15,2.08Zm33.22,184,.48,1,.37-.35-1.05-.48.24-2,6.95-9.22,4.62-3.13,4.76-4.23,3.68-4.41,5.17-2.67h8.13l3.44,1.71,5.74,5.9,4.16,2.23,2.74-2.85,5-9.24,11.39-7,1-.79,3.22-2.19-2.54-3.6-2.15-4.62L224,191.46l-.07-5.42.55-1.29-1.16-1.42L217.21,181l-3.07-2.89-3.55-3.7-3.19-2.65-1-6.55-1.05-6.25-.74-1.84-.11-7-1.28-6.84-.7-4.38-.61-4.4-.77-3.09L199.49,124l-1.23-6.23-3-14.28-1.1-6.86-.18-5.5-1-3.87-.37-3.16-1.2-4.93-1.18-5-1.14-6.88L189,65.46,185.4,54.28l-.07-9.8-1.05-6.18-7.45.27-1.43,1.54,2.8,3.39,2.92,7.73.52,3.9,1.62,4.8,1,5.63.95,3,.2,4.47,1.07,5,.2,3.18,0,4.1,1,3.4,1.73,6.77.64,1.78,1.61,10.7.25,3.18.81,5.65L193.9,123l1.49,8.11,2.52,9.46,1.05,7.27.33,3.14.1,5.11.71,5.67.7,6.33-.5,7.71-3,4.13-4.15,2.84L187,184.31h-6.71l-8.31.28-3.81-.68L165.68,182l-5.5-3-2.94-1.2-4-2.06L141,167.79l-3.5-1.42-5-2.72-8.76-3.79-11.36-3.93-4.77-1.7-5.19-2.41L88.31,146l-4-1.84L78.71,141l-6.64-3.74-2.56-.94-8.64-6.14L58,127.74l-2-2.48-2.08-2-3,3.25L44,137.92l-1.77,3.36-2.7,8.47.66.77,2.45-1,16.3,1,2.35-.72,5.45,2.33h2.72L83,157.42,90.14,160l7,3.12,8.34,2.43,7.81,2.52,4.31,1.1,4.7,2,3.61,1.2,3.7.64,6.92,3.44,3.53,1.42,6.51,2.5,6.49,2.54,3.81,2.26,5.19,2.69,6.49,2.06,6.42,2.74,3.73,10.72V211l-1.49,4.32-2.1,3.19-4,4.93-10.5,10.26-2.39,2.11-5.41,4.42-2,1.51-3.93,3.22-1.88,1.68-2,.13.17.16-1-1.34-3.84.37-.53.29-.48.39-.83.93-3.4,5,2.39.77-.18-.18-1,1.54-7.49,4.74-2.63,1.75-5.59,4.21-6.48,5.08L105.22,274l-3.33,2.87-7,5.52L89.88,285l-8.79,5-10.27,5L66,296.53l-7.15,1.88-1.22,2.3,8.06,11.37,3.63,3.51,2.63-4.65,8.3-8.54,4-3.18,2.52-1.93,4.54-3.46,2.46-2,2.52-2.49,9.37-5.79,2.43-2,3.18-2.06,8.66-6.26.94-.84L129,265.3l1.4-1.28,10.94-7.36,4.66-3.81,2.83-3,5.79-4.89,3.29-3,1.84-.39Zm115.58-22.55,2.7,1.18,5.76,2.61,6,2,6.82,1.43,7.47,1.18,1.27,0,7.47,1.24,7,2.85,9.4,5.33.53.35,9.7,8.24,3.73,3.46,10.08,11.27,1.2,1.46,1.8.2,2-5.24,1.88-4.71,1.64-5.63v-4.87l-1-.84-5-.66-3.65-1-3.42-.95-2,.81-4.82-3.17-5.26-2.19-3.32-1.86-3.73-2.42L318.4,225l-2.45-.59-3.71-.68-5.12.05-4.37-.68-2.49-.5-4.32-.92-2.47-.47L291,221l-6.23-1-3.74-.68-5.66-.17ZM286.93,93.59l4.1-4.42,1.49-2,5.75-9.82,5.24-7.16.56-1.12-.54-3.9-5-3.44-1-.31L292.06,63l-3.35,4-1,2.3-3.83,11.4-2.8,7-.73,1.73-2.06,4.6-4.49,11.81.31,1.12,1.2.13,4.23-3.79,7.43-9.75Zm44.42,112.78,1.08,1.5,11.46,3.33,4.36.7,2.49.43,5.1.11,6.53-.39,4.48-3.18V205.1l-2-3.65,1.65-.11.3-.55-1.9-2.66h-7.63l-5,1-18,5.8-2.93,1.49Zm-29.1-82.9,3-.76,7.08-2.72,7.67-4.45,2.16-1.36,11.16-11.31,1.33-3.46-4.14-2.85-1.75-1.77-5.89,3.33-10.26,9.37-8.2,10.5-2.6,4.33.48,1.14ZM256,191.32l4.69,1.55,1.26.16,13.89-.84,1.9-.22,4.3-1,3.18-.59,6.53-3.11,4.07-4.1,1.91-.92-2.28-3.13-12.9,0-9.16,3.57-7.84,2.58-6.34,2.88L256,191.33ZM153.8,152l-10.92-11-9.11-6.79-6.31,0-.94.8,2.85,8.06,6.88,6.75,5.39,3.13,6.57,3.83,6.57,3.8,1.17.32,1-.59,0-3.22L153.8,152ZM128.2,92l-2.65,2.08,1,2.32,4,6.42,3.18,5.5,3.35,3.76,11,6.73H151l1.14-.87.74-1-2.21-4.56-6.57-10-1-1.58-1.67-1.86-2.69-2.63-5.4-3ZM234.76,72.53l2.42-2.7L242.56,59l3.9-11.4V45.88l-4.28-4.62-3.9-1.16-3.24,2.76-2.3,4.49-.13,1.27-1.14,11.32-.18,2.52.11,5.74.2,1.25,1.71,3.33,1.43-.26Zm105,177.36-11.87-10.45-12.47-4.3-1.27-.14-6.86-1-7-.26-1.77-.73-1.43.75,1.12,2.15,6.72,3.64,5.64,2.7L317,245l5.21,2.37,7.26,2.1,2.47.5,6.88.81.94-.84ZM276.38,57.72l-2,7.06-2.06,7.3L267.6,85.83l-2.84,5.66.28,1.18,1-.43,7.28-7.12,4-5.72,2-2.46,4.54-6.88L286,64.8l1.51-5.9-1.95-3.46-3.71-.68-2.27.09-3.2,2.87ZM257.71,293.63l.19-3.39-5.67-12-2.48-3.7L242.9,267l-3.25-2-1.79,1.07.89,3.71.53,9.6,9,11.83,6,2.74,3.38-.39ZM79.06,124.44l9.28,5.62,9.54,4.84,5.83.37,1.73-1.4-.55-1.21-4.32-3.7-12.49-8.7-7.6-6.55L74.1,110.6l-1.2-.16-2.62,1.69-.16.62v1.18l9,10.5ZM238.47,337.06l-.33,1.23,1.25,2.87,1.66-.15-1,3.52,2.14,8.28,1.2-.54-.63,3.19.65,3.71,1.27,1.09,3.23-.87,3.63-2.41V346.22l-3.69-8.77-4.14-7.82-1.38-2.14L239.6,324,237.81,326l-.2,2.94.15,6.16.72,2ZM151.6,56.56l-6.06-6.38-3-1.79-6,2.19.09,5.63,9.24,12.12,4.56,5,6,2.89.55-.31-.37-5.5L154.82,65ZM359.7,169.17l-4.88,1.36L351,175.35l-.34,1.18,1,2.54-1.09,2.67L348,186.1l0,1.15,4.63,3.19h5.3l2.82-1,4.74-3.78.06-12.13-.48-1.65Zm-195.06-72-2.36-5.92L153,77.07l-2.85-1.33-.59-.26-1.23-.25-2.52-.11-2.41-.74-1.57,1.49.15,1.25,2.78,5.69,8.66,11.62,8.65,8.41,1.07.27,1.49-5.92Zm76.15,220.65,2,5.26,1.93,4,4.54,8.33.66,1.13,3.63,3.44h1.21l1.93-3.33,1.29-6.18.07-3.09L256.33,321l-4-3.72-.92-.84-3.07-3.11-1.8-1.77-1.6-.55-3.31,3-.83,3.83ZM243.46,79l1.4-1.27L249,70.63l3.57-6,3.25-6.09,2.7-7.72.81-2.38-1.2-3.12-4.92-1.82-2.35,1.87L248,51l-1.16,2.95L246,56.28l-3,7.65.38,15.1Zm90.3,110.35-6.44,3.07-3.48,6.4,3.65,1.8,2.55-1.07,11.72-1.71,5.61-1,5.06-.53,6.4-.85,4.16-1.32,1.61-1,.5-1-3.18-1.12-1.32.5-9.4-.06L343.51,188l-4.27,1-5.48.32ZM59,261.66,62.91,258l6.15-2.37,2.33-1,1-.76-.52-4.25-4.1.28-6.11,1.64-1.85.29L53,253.18l-6.15,1.53-2.33,2.11v1.77l1,2.34-.72.82L43.36,260l-.29-4.93-4-1.68-.61,1,2.43,9.15,2,2.59,3.83-1.84,1.12-2,9.62-1.25,1.53.59Zm241.58-119.8,3.71-2,9.47-6.31,2.18-1.31,8.79-8.11,0-4.45-2.28-2.12-7.52,3.94-8.2,6-3.43,3.7-6.95,9-.61,1.09,4.86.62ZM200.82,296.15l-1.18,8.08.37,3.07.09,3.09-.16,6.84L205,331.5l.42,1,.75,3.25,1.82,1.4.13-31.29-2.17-5.2-.46-4.21-3.22-3.13-1.49,2.83ZM315.73,136.59l8,.08,3-1.36,8.67-3.85,3.29-1.84,6.12-6.27,1.57-7.5-2.82-2-5.18,4.6-9.44,6.22-12.78,10.45-.4,1.51Zm-36,168.5,0-3.88-5.06-8.08-2.8-3.45-1.34-1.37-5.76-5-6.31-4.23L257,280l.07,2.52,1.51,3.48,2.08,5.33,3.75,5.13.76,1,4.89,4.92,1.82,1.72,4,2,1.16.26Zm-109.93,18-1.16-5-.83-.85-1.69.5-.72,1.05-1.76,4-3.37,7.45-2,6.63-.51,3.1,0,7.36-.29,1.33,3.05,2.92,4.91-4.23,1.73-4.95.22-3.22.46-2.46.85-5.59.22-5.08.83-3ZM189.14,48.52l2.28,5.26,2.13,6.6,1.92,6.7,3.14,7.71L200,74,202,68.26l.11-6.75-.28-6.64L195.91,41.2l-.63-.11-4.85,1.07-1,.73-.27,5.63Zm-10.52,303.4-3.39-8-.42-5.32-1.6-3.07-1.18-.33-1,.66-2,3.5-1.18,7.32-1.69,7.47v8.31l2.39,3.28,2.85.16,3-2.48,1.4-2.1,1.79-6.09,1-3.35Zm-23.71-19.37,4.56-5.06,2.41-8.48.48-5,.33-3.75.57-6.88-.56-.94-1.06.67L156.25,310l-3.7,3.66-4.29,9,.13,5.43,6.51,4.43Zm190.9-192.92-4,2.39-4.55,3.44-2.63,2.74-1.93,3.28-1.62,5.42,1,1.6,5.26-1.71,3.44-1.64,4.07-1.8,6-3.53,2.8-2.59.86-1.25,0-2.34.09-3.2-1.33-1.23-7.35.42ZM149.31,47.31l.33,2.63,2.87,4.87,1.62,1.95L161.5,67l1.89-.06,1.2-2.89-.81-12,.26-4.21-2.39,1.42.29-2.17-1.3-2.23-1.58-2.78-3.13.15-2.15.28-4.46,4.79Zm75.75,31.86-.18,16.68.27,5.1.45,1.18,4.06.83,1.44-4.64,1.45-8.13,2.59-9.77,0-3.8-.61-1.05-2.6-.37-2.57-7.69-4.27,11.66ZM214.6,62.39l.07-.62-.92-9.46-.51-10.82-2.36-3.07-6,0-1.27.42-.9,1.57-.74,1.84.22,2.44,1.57,4.84L205,53.82l2.13,3.9,4.22,7.1,1.28,1.34,2-3.77ZM135.08,353.62l1.4-6,2.53-5.8.67-3.72.58-4.6-1.32-3.07-1.82.13-7.93,11.78-.46,2.65-3.2,3.33L124,351.61l.48,3.55,4.75,2.49,1.28.27,4.55-4.3ZM323.36,250.18l-5.13-2.24-5.13-2.5-5.21-2.28-5.62-2.67-5.78-.26-3.61,2.17v1.16l2.49,2L312,253.4l6,2.08,2.88.24,2.52-5.54Zm29.55,15.76-9.64-11.14-2.93-1.35-6.2-1.12-5-.31-1.87,4.52,2.37,1.8L343.27,267l3.38,1.16,4.38.4,1.88-2.57Zm-46.78,20.84-.78-.09-1,1.16,5.13,7.95,1.73,1.82,1.93,1.6,3.39,3.81,3.13,4,.84.94,4.82,1.34,4-4.12L328.22,301l-6.13-5.48-12.27-5.79-3.7-3ZM277.2,321.26l-.92,1.51,4.28,8.72,1.6,1.72,1.91,2.52,5.47,4,7-5.69v-4.19L295,327.71l-2.27-2.24-1.83-.5-6.72-1.64-1.82-.51-5.21-1.57Zm-76.49-52.67,4.73,10,.31,10.39.92,1.25,1.47-4.17V272.66l-.75-3.22.7-2.11v-5.6L207,256.4l-1.09-1.66-.57-3.36-2.81-2.95-1.35.2-1.76,4.57.88,8.86.15,1.9.29,4.63Zm19.76-131.43-3.81,5.78-3,10.28.79,3.06-.64,9.49-.35,7,.74.75.55-.23,5.3-10.84,2.24-6.7.28-5-.37-9.56-1.69-4Zm-106.9-6.32L113,127l-1.14-1.32L100,115.09l-3.25-2-1.22-.29-4.7,1.58L91,118.2l5.92,5.48,4.84,4,3.13,2.18,1.25.52H108l4.69,1.31Zm59.49,155.75-1.54,1.72-.67,2.41-4.91,13.62-1.29,6.14-.92,4.27.72.62,3.13-1.95,2.78,1.22,2.9-3.3,2.74-7L174.75,290l-1.69-3.36ZM110.94,88,109,84.39l-3-5.54-3.51-5.15L99,73.12l-3,3.14-1.55,3.26v2.59l9.35,9.6L107.87,93l3.07-5ZM142.78,229.4l-1.62-.22-8.79,3.53-5.63,2.83-5.9,2.47L118,240.34l-2.89,2.27.63,3.82,7.23-.31,4.54-2.23,7.74-5.46,6.5-6.74,1.08-2.3Zm29.6,101.94,2.32,3.05,2.1,3.9,1.1.43,3.51-4.86-1-7.65L180,310.59l-1.75-2.19-1.23.19-2.81,7.68-1,4.3-.88,4.35.07,6.42Zm-108-37.41,2.1-1.13,9.34-6.58,6.55-8.39-1.86-.11-8.88,3.4L57,288.66l-1.82,1.78,1,3.92,8.19-.44Zm99.86-125.68.56,2.73,1.36,1.3,9.2,6.66,8.68,3.5,1-.58.28-1.17-.5-1.14-11-11.44-2-1.53-9.57-4.89-1.76-.3.2,4.07,3.51,2.8Zm132.57,59.6-4.6-.44-4.87-1.3-10.14-3.68-3-1.1-4.27-1.22-2.39.39.22.53,4.73,4.73,17.42,6.46,4.91-1.53,1.1.37,5.7.5,3.9,1.14,8-.13.53-.33-8.14-3-7.12-.55-2.05-.81ZM181.5,344l-.59,6-.46,12.84,3.74,3,4.65-.37,1.42-1.71-.15-4.45-1.23-7.85-4.14-10.78-1.4-.22L181.5,344Zm141.64-58.2-5.4-3.18L311,279.14,305.67,277l-4.47-2-2.94.73,7,7.25,7.19,5.65,3.22,1.53,3.51.8,2.84,1.86,3,.22.92-2.31-2.87-4.95Zm-67.41,13.35L255.6,302l2,4,2.87,4.18,3.7,4.36,2.28,2.21,4.21,2.83,2.19,1,.76-2.68L272,316.13l-4.16-4-.64-1.06.13-2.93,1.93-1.67-1.12-2.87-8.68-6.92-3.72,2.39ZM287,256.49l-1.91-2.08-1.82-.29-.46-.35-.7-1.8-5.74-5.81-.28-2.65-.59-1.31-11.58-4.34-5.74,0-.61,1,3.88,3.87,3.05,2.22,4.58,3.35,4.71,3.13,4.42,2.3,1.73.77,5.88,2.26,1.18-.33ZM131.49,116v4.23l3.84,8.28,5.94,6.72,1.38-.56.81-5.26,2.12-2.3-.09-1.74L142.74,121l-3.27-3.9-4-3.22-1.6-.09Zm93.94,92.84-.42,1.23.57,1.05,8.13,5,9.67,3.9,5.32.17,4-2.19.2-1.4-7.49-3.29-6.32-2.91-8.3-3.31-5.38,1.73Zm49,52.3-3.59-.37-.28-1.32.06-1.84L269,253.66l.55-2.37-3.45-2.67L262.64,246l-1.34.39-6.88-3.31-2.48-.3-2.32-.31-.09,2.76,5.28,5L267.17,258l1,1-.83,1.42.26,1.75,1.63,1.2,5.61.16,1-.66-1.38-1.69ZM164.56,173.38l-3.2-3.62-3.68-3.5-11-7.65-5.85.53,1,3.74,6.64,5.83,5.47,3.18,9.67,4.34.9-2.85ZM71.58,257l-5.13,3-.43,4.8,1.16.88,4.62,1,6.44-1,7.39-3.6,3-2.38.57-1.71L88.41,257l-12.62-.15Zm101.24,4.38,2.45,3,1.49,3.42.62.09,1.1-1.36.59-3.09,2.12-9.18.33-6.33.75-4.34-1.43-2.8-1.2-.24-3,1.71-1.62,4.4-1.23,4.22-.22,5.07-.76,5.41ZM72.33,127.16l-.84.59-1.88.18-.64.9.57,1,3.62,1,3.66.87,3.62,1,.52-.24.15-.48L80,129.33l-5.75-6.2L70,119.34l-6.36-4.28H59.4l-1.79,2.5,2.3,4.43L68,126.48l2.41-.83,2,1.51Zm71.3,115.54L151.1,237l1.45-1.21,3.48-2.7,3.46-2.78,3.16-3,.54-1-.46-1-3.09.09-13.41,7-6.31,5.26-.65,1.05-.2,4.38.85.79,3.71-1.12Zm46.7,16.7v10l1.75,5.3,4.52,1.95.56-5,2.11-4.23-.77-5.93-.35-3.14-.22-6.39-.85-.6-3.2,4-2,.79-1.58,3.2Zm58-1.48-9.16-5.86-2.85-.22L234.15,255l1.07,1.54,6.95,7.29,3,2.35,3.25,2.12,2-2.08,5.11-1-7.21-7.32Zm49.5,13.8-.9-2.83-4.87-4.1-4.84-5-7-3.18-7.65-3-1.14.36-.18,1.18,3.2,1.4.53,2.63,8.52,6.66,9.73,6,1.47.7,3.16-.81ZM60.91,237.14l-5.58-2.06-2.39-.71-3.56-1.24-10.93,1.43-2.65,3.7,3.66,3.48,9.88-.18,4.47-1.16L60,238.93l1-1.79Zm135.71,9.48.13-2.05-.92-8.73-.27-2.5.05-4.44-1-3,.73-1.62-.29-1.13-.52-.11L192,224.65l.68,2.36-2.25,3.31,0,19.39,1.77,3.23,1.41.2,1.35-1.21,1.61-5.32ZM46.28,266.31l-2.85,3.44.39,1.2,1.2,2.23,5.78,1.71,6.67-2.7,6.79-3.42.28-2.25-1.7-1.64-5.77.54-1.71.4-3.59-1ZM163.53,360.2l1.23-6.58-.79-1.44-5,.68-3.58-3.35-1.18-.16-3.37,5.15.23,7.19,1.63,1.18,6.51.42,1.51-.48,2.85-2.61Zm21.14-75.92-.61.32-.5.38-3.29,5.15-.42,4-.81,8.11,2,4.53,6.71-4.51-.24-7.45-.76-5.63-.63-3.81-1.4-1.08ZM266.8,222.9l-7.91-2.53-5.61-.39-1.1.57-.22,1.31,5.74,4.61,8.31,3,8.46,2.48,6.66,1.86,3.13-.15.24-.36-2.27-.57L271,226.86ZM210.53,303l.33,5.81.64,5.56.61-1.12.15-6.35,1-4v-23l-1.62-12.07-1.54-2.65-.3.57-.14.61,0,34.32.81,2.32Zm.31,61.77-.26-3.68-1-8.81-2-9.27-1.31-1.29L205,343.31l-1.75,9.31,0,5.74.18,2.52,1.42,5.56,4.89-.74,1.05-.92Zm41.3-105.38,7.28,6.91,7,4.36,1.21.17.81-2.21-4.89-9.71-1.86-1.62-7-4.4-1.18-.27-.39,3.09-1,3.68Zm75-138.88,1,1,1.77-.14,5.66-4.09,3.22-3.81,2.08-2.31.57-1.07-.71-3.61L336.69,105l-4.93,3.85-4.62,7.41v4.29ZM99.8,339l3-4.46-.75-2.44.12-2.91-1-1.53-3.4,1-6.6-1-1.8,1.8.09,5.5,6.29,4,2.41.2,1.55-.17ZM245.67,138.73,238.53,148l-1.86,2.56-2.81,5.64-.17,3.76.88,1,4.3-4-.9-1.69,5.54-4.87-1.64-1.49,4.29-2.32,3-4.36.33-2.12,2.21-2.81-.85-1.38-5.19,2.85Zm-41.43,92.36-4.89-6.51-1.09,0-.4,4.88,0,5.7.33,1.84,1.29,6.78.44,1.13,2.45.84,3,1.53-.24-8-.55-3.07-.35-5.13Zm65.71,5,2.22,2.19,3.92,2.12,11.88,2.5,2.91-2.91-.7-.88-9.4-3.74-7.91-2.24-1.25-.08-1.67,3ZM132.91,205l1,.75,5.63-.55,1.85-.46,10.21-3.07.32-1.27-2-2.41-1.52-.94-8.74.35-4.53,4.27-1.51.59-.88,2.14.19.6Zm197.89,78-3.19,3-.33,1.25,2,2.94,5.67,2.72h2.52l2.5-2.31.18-1.77-.09-2.41-4.69-5.26-3.85-1.73-.72,3.6Zm-157.63.82,4.42-4.58-1.12-2.88v-1.88l-1.16-5.5-.44-1.84-.76-.88-1.29.16-2.52,5.52-1.06,4.42-.74,5.61,2.06,2,2.61-.11Zm110.57,37.19,2.23.11.62,0,.83-.76-.35-1.12L283.28,315l-3-3.26-5.39-3.33h-3.05l-3,1.66,3.83,4.14,4.1,3,2.15,1.34,4.84,2.46Zm-84.21-26.67,3.5-3.68,1.28-5.5-1-5.57-.24-2.39L200,272.9l-.55-.17-1.05.53-.35,1.82.17,23,.77.37.53-4.14ZM210.9,335.4l.28,8.57,1.1,8.8.38,3.75.68,5,.39,2.5,1.78,1.68,1.25,0,1.57-1.6L216,359.76l-.4-4.47-.84-6.28-.35-5.72-.8-3.7-.22-4.43-.6-1.1-1.88,1.34Zm-101.36-1.1-3.7-.35-1,.74-.37,1.21-4.82,6.62,5.74,3.92,2.43,1.09,3.07-3.79-1.25-4.3-.13-5.13Zm18.51-115.5,5.2-.27,5.52-4-3.17-3.33h-2.9l-6.25,1.58-6.14,3.92.6.5,4.51.35,2.63,1.23ZM87.47,316.34l-2.8,3,4.18,1-6.92,2.43-1.3,2.81,4.12,4,4.06-3.83,4.1-7.84-.59-1.5ZM271.9,218.08l-1.29-1.34-5.89-2.21-6.14-1.4-12.09-3.7L243,208l-1.73-.76-2.06.37,2.06,1.86,3.46,1.53,9.68,3.93L260.9,216l7.91,2.19,1.85.31,1.24-.42ZM184,130.38l1,2.35L190.83,144l.5-.18,1.38-2.78-1.2-5.1-1.78-1.62-.11-2.48.44-3.09-3.06-3-3,4.65Zm-41.41,77-2.67,1.28-.42.43,3.2,3,4.29-.39,4.17-1.38,4.2-1,2.65-2.72-.85-.65-10.61,1-4,.48Zm.46-137.58L136.88,62l-1.51-2-3.7-4.32-1.07-.43L129.26,58l4.64,6.53,2.74,1.34,4.63,5.26,1.79-1.31Zm27.1,147.8,3.51-5.1L173.1,211l-4.28.48-6.26,6.7-.2.59-.07,1.27,1.16,1.25,1.71,0,5-3.72ZM58.44,282.93v-1.75l-3.56-2.47-6.28.55-1.1,1.48,3.35,4.63,7.6-2.45Zm88.87,4.48,4.05-3.91,2.34-2.16,1.45-3.33-3.29-1.89-1.57,1.12-1.38,1.33-1.51,1.17L146,280.81l-.35,1.34.48,5,1.2.27ZM329,292l-2.48,4.12,6.29,5.23,4.25-6.68-3.5-.66L329,292ZM188.48,52.71l-.3,2.7,1,3,.92,3.65,1.23,4.23.57,4.38,1,4.26.61,2.43,2.1-3.82-.15-1.73L194,66.32l-1.71-4.69-1.78-4-2.06-4.93ZM181.5,310l.08,11,1,3.05v3.77l.63,4.29.35-.35.68-17.31.92-3.42.75-3.57-.5-.3-4,2.85Zm-29,24.27-.39,4.14L152,342.8l0,3.81.67.94,3.09-2.23.18-3.64,1.07-4.25,0-2.37-4.47-.83ZM299.12,122.47l2.39-3.15,2.61-3.55,4.95-6.49-.53-1.29-14.17,14.25,4.75.22ZM227,345.63l-.53.15-5.35,9.75v4.06l.34.54,1.53-.67,4.23-6.07,1.18-5.79-1.4-2ZM80.83,304.94l.68.74,7-.06,5.43-1.21,1.32-.39,1.22-1.26L96,300.7l-3.7.33-3.68.68-3.5.18Zm81.45-49.85-1.76-.51-5.39,1.62L151.06,259l0,1.36,1,.59,6.68-.37,3.49-5.52ZM62.2,110.53l4.58,3.11,4.08-5.46-4-3.11Zm39.43,184.13-6.07-.26-6,4.27.87.66,6.68-.09,4.58-4.58Zm117.16-79.28,3.57,3.11,8.79-.26L230,216.89l-7.49-3-3.75,1.51Zm.2-145,.7-1.08,0-.63L217.13,59l-.71-1.16-.52,3.84-.2,3.68-1.47,2.94L212.65,70l1.21,2.13.44-.17,2.27-1.73,2.42.13ZM180.25,285.83l-1.84-3.73-.47-.15-2.85,2.76,0,1.67.63,1.79.57,2.46.42,1.75,1.47.29,2-6.84Zm-63.84-.77,4.26-4.4-.57-.31-3,.73-3.79.13-1.23.35-3.28,2.94.74.7,6.9-.14ZM195,327.29,197,323l.68-6.13-.37-.37-2.92,1.25-1.29,4.8.39,2.5,1.43,2.23ZM219,279.19l-1.27,2.12-1.54,2.26,1.74,5.15,1-.9,2.9-6.07L219,279.19ZM121.78,351l-4.07.2-3.64-2.65-.53-1.21-.83-1.36-1.09.64-1.69,2,7.58,4.4,4.1,1.1.17-3.13ZM166.6,234.46l-1.28,2.9,2.41.4,5.3-1.54,3-3.28-.35-1-9,2.52Zm123.75-22.08-4.29,0-.5.31.15,1,5.57,4.91,3.55-.29-.13-.54-2-2.37-2.36-3Zm-124-7.74-2.62,1.71,3.24,1.91,6.81-.42,1-1.14-2.17-1.46-2-1.56-1.51,2.23-2.77-1.27Zm-.46-26.45,2.74,3.34,3.09,0,2.9.63.28-1.46-5.58-3.9-1.17-.36-1.33.27-.93,1.45ZM82.3,281.78l-2.32,3L77.8,287l-2.14,2.81,1.18.17L80,287.89l4-2.3-.46-4-1.2.17Zm137,61.81,1.84-3.64-.29-2.61-1.1-1.62-1.92-.22-.62,6.05.66,2.37,1.43-.33Zm80.24-10,4.41-4.15-3-2.05-2.92.65L298,332.9l1.55.69Zm-13.36,7.29-4.3-5.24-.55-.24h-.59l-.37.42.63,3.7.22,3.75.42.46,1.2.11,3.35-3ZM62.6,162.27l4.36-.44-3.77-4.14-1.49,1.73-2.6-1.62-.27,2.69,3.77,1.78Zm196.9,18-8.59,4.63,3.18.35,7.54-2.81-.31-1.58-1.82-.59Zm3-46.41,6.75-6.51-.87-.59-4.12,2-2.08,2.58.32,2.52Zm14.12,61.56,6.2.57,1.75.78,1.18-.19v-1l-1.26-3.34-6,1.12-1.94,1.45,0,.66Zm36.88,24.12,1.22,1.4,7.7,2.72.52-.31,0-.5-3.92-4-5.5.68Zm-35.11-4-4.56-4.3h-1.29l-1.36,1.66,2,2.35,1,.74,4.19-.44Zm7.63,1.27-4.71-5.06-3.53-.11.19.59.33.53,4.89,4.53ZM87.14,166.12l1.9.26,1.1-.46-.11-1-3.85-3.24-3.36-1.55-.78.76,5.1,5.26Zm14.06,16,1.23,1.34,5.83,2,1.1-.46-3.3-3.38-4.87.53Zm32.37-5.35-4.3-1.09v1.46l5.74,3.66,1.75.57.53-.22.07-.44-3.79-3.94Zm103.75,86-3-4.4-.39-.48-.47-.42-1.65.09-.3,1.23,3,4.44,2.74-.46Zm121.16-34.6,5.65,5.13.05-1.82-3.32-3.64ZM289.65,62.24l3.73-2.13-.05-1.51-3.83-2L289,61.34Zm-65.49,302,.66-.31,3.5-4.93,0-.75-.57-1-1.14.13-3.2,5.33.71,1.49ZM360,150.57l.42-.55-2.5-7-.83-.37-.6,2.38-.61,2.85,4.12,2.66ZM217.76,332.17l.4-.55-.13-6.06-1.05-.33-.44.33.13,6.6Zm37.12-196,2.21.46L259,135.4l1-4.56-5.1,5.35Zm111.53,84.43-1.71-2.5.55-1.63-2.84-1.26-1.78,1.88,4.65,3.92,1.13-.4ZM178.2,362.5l-2.58,4.18,5.61-.15-3-4ZM142,261.66h5.1l1.76-2.32-.59-.95L143.73,260l-.55.31L142,261.66Zm127.14-65,.17-1.32-.9-.7-3.77-.05-.81.59,2.7,2.75,2.61-1.26Zm-40.06-11.86,1,.53,4.27-2.44.57-1.05-.29-1.09-1.09-.14ZM112.69,62l4,1.71.16-4.61-3.31,1.28L112.69,62Zm68.13,21.41-.57,4.8-1,4.77,1.4,1.23.66-1-.51-9.8Zm81.33,126.7,3,2.93.8-2.65-2.12-2.69-1.69,2.41Zm-45.51,16.49-.9,3.55.9,2.31,1.89-3.07-.68-2.89-1.21.1Zm125,56.88-.08,3.07.28.51,1.05-.18,2-2.12.07-1.41-3.36.13ZM74.06,319.31l.59,1.51L80,319l-.59-.39-4.25,0Zm142.78-39.46-.2-6-1.38-1-.35,3.7,1.93,3.3ZM197.07,39.08l2.77,4.9.39-.09.42-4.36-.66-1ZM340.38,158l2.34.65,2.5-1.46.8-1.58-.7-.73L341,157.05l-.58,1Zm-173.63,90.6-5.26,3.73.66.68,3.83-1.82,1.1-1.45-.33-1.14Zm-18-54.34,1.94,0,1-.62-1.92-1.55-1.43-2-2,.3-.26.57,2.65,3.27Zm71.73,103.51.46-3.43L219.23,292l-.4.3,0,4.78,1.65.74Zm-33.3-68.75-1.67,3,2.67.51.82-2.15-1.82-1.32Zm-10.54,1,1.57-1.09.12-1-.53-.31-3,.16-1.23.7v1.8l3.05-.26Zm66.63-28.33.68-1.42-3.06-3.05-1.49,1.45Zm-89.07-15.66-5.79-2.48,1.87,2.94,3.92-.46ZM51.45,157.46l-1.25,1,.11,1.65,1.44,1,4.65-1Zm242.2,81.24,2.63-1.49L291.61,236l2,2.7Zm-75.76,14.43L218,247l-1.67,2.69-.43,1.16.7,2.3Zm132.92,21.44,1.71-1.6-.06-2.28-.46-.24-2.72,1.2,1.53,2.93Zm-67.64-200L280.25,79,282,80.2l1.6-3.26ZM178.45,340.37l-.22,5.83,1.82-5.34-1.6-.5ZM131.54,52.81l2.5,2.63h1l.26-.54-1.75-3.64-2,1.55ZM48.09,160.49l-1-.68-4.3.33-.43,1,5.52.55.24-1.2Zm205.21-21-2.63,3.9.25.5.46.08,3.77-4-.44-.44H253.3ZM132.17,274.39,132,274l-5.35.29-.08,1.25,1.07.5h.61l4-1.62Zm48.25-42.07.64,1.54,1.69-.36,1.14-1.57-.51-1.58-3,2ZM95.18,311.54l-1.07-.44-3,2.17-.13,1.07.51.37,2.89-.83.85-2.34Zm-10.6-197,2.56,2.63.81-.6-.22-1.83Zm50.15,81.79.24-1.16-.92-.68-4.3.29-.3.33,2.38.5,2.9.72ZM343,212.9l0,1.23,1.05.66,3.79-.09.46-.75L346,213.4l-2.94-.5ZM117.88,172.3l2.66,2.43,1.53-1.64-3.31-1.6Zm38.77,31.8-2.54-1.56-3,1.93,5.57-.37Zm-46.57-34.58,4.14,2.58,0-1.62-2.7-1.42-1.47.46Zm-27.8-41.28,1.59,3.39,1.82-.13.59-.42ZM179.45,63l-.3.53-.33,5.57.39.5.71-.44,0-5L179.45,63ZM147.71,44.66l-3,2.1.7,1,1,.63,1.09-.39.48-1-.3-2.26Zm102.44-2.19-3.44-1.36-.71.79,2.44,2.61ZM220.52,345.71l-1.93,4.17.94,1.12,1.34-3.44ZM123.14,175.94l1.73,1.66,2.3-.35-2.61-2.08-1.42.77Zm107.62,186.6-.33-.55-2-.07-.66,1,.29,1.12,1.14.24,1.54-1.77Zm47.67-239.7-3.68,1.92-.37,1.49h1.21ZM177,62.26l.19-5.55Zm37.16,195.9h.62l.9-1.84-1.74-1.47.22,3.31ZM90.74,79.92l0,.79.68.87,1.4-.87-.42-2.41-1.67,1.62ZM159.83,209l3.2,0-1.3-1.34-1.84.73-.06.63Zm121.94-49.9-1.62,1.78.89,1.33,1-.4-.31-2.7ZM119,278l2.77.3.19-1.53-1.26-.35ZM304.71,126.72l2.67-1.86,0-.42-4.22,1.62,1.51.66ZM50.46,186.1l-4.63-.5-.59.64.47.33,4.75-.47Zm275.08,4.47,1.12-.47-.68-1.43-1.16-.43-1.09.46.55,1.64,1.26.22ZM169.29,246.65l1.54-1.9.1-.58-1-.39-2.56,2.52,1.93.35Zm-55.94.66,0-.6-1.26-1-1.8,1.64.86.66,2.23-.74ZM37.68,202.8l-2.7-.59-.59.94.4,1,1.25.2,1.64-1.59Zm152.08-80.44.54-1.09-.13-2.5-.3-.53-.58.62.47,3.5ZM164.53,364.52l-1.14-.95-.9,1.3.86.63,1.18-1Zm135.07-153,2.8,1.56-.54-1.8-2.26.24ZM177,151.14l-.3,1.6L178,154l.44,0,.24-.5L177,151.14ZM302.63,292.77l1.59-.37-.28-1.33-1.56-.46-.4,1,.66,1.13Zm-251.19-4.2.64,1,1.45-.11.66-1-2.75.09ZM257.16,175.81l2.1.13,1.14-1.36-1.63-.44-1.6,1.67ZM118.25,177l-1.77-1.55-1,.3,1.49,1.67,1.32-.42Zm-63,98.8,2.89-.31v-1.1l-.46-.17-2.43,1.58Zm156.39-44.31-1.8,2,.26,1.28,1.69-1.26-.15-2ZM168,45.12l-.51,2.3.35.51.66-.64-.5-2.17Zm95,1.41-1.65-.29-.11,1.64L263,46.54Zm-82,192-2.22-.46-.5.35.62.71,2.1-.6ZM324.4,194.91l-.59-.54-1.46.92.17,1.14,1-.14.85-1.38ZM152.88,96.48l-1.51-.28-.13,1.58Zm135.44,3.88-2.1-.5-.59.64.48.33,2.21-.48Zm-54.67,99.35-.5.22.67,1.4,1,0,.07-.54-1.21-1.1Zm7.88-85.63.11,1.16.75.5.37-.46.14-1.18-.89-1-.48,1Zm106.76,6.44-.39.5-.11.6.61,1,1.16-.26-.28-1-1-.79ZM354,134.46l-.54.22.65,1.45h1l.13-.56-1.23-1.1Zm12.78,78.23-.35-1.1-1,.48-.52,1,.46.37,1.44-.75ZM141.51,155.27l-1.36-1.2-.51-.08-.37,1,2.24.22Zm43.6,71.1-.18-.5h-1l-.44.37-.35,1,1.54.15.43-1Zm4.14-1.16-1,.36.06,1.55,1-.26.4-.42.08-1-.48-.25ZM90,261.46l-1.14.53-.4,1,1.12.33.43-1.87Zm127.83,42.38.68-2.26-.76-.53-.42.44.5,2.35ZM61,283.7l1.2-1.05-.07-.53-.94,0-.66,1.36.48.26Zm75.49-9-.77-.44-.9.72-.11.94,1.07.16.72-1.38Zm34-226.93-.33.47,0,.61.37.44.51-.83-.51-.7ZM307.51,68.35l-.44-.39-1,.37.39.35,1.05-.33ZM239.56,71l.4-1.09-.39-.5-.4,1.1.39.48ZM185,79.42l-.39-1.06-.5,1,.61.55.27-.48ZM337.22,102.2l.58-.06.45-.42-1-.61-.48.28ZM194,148.59l-.44-1.1-.45.4-.05.6.64.61.3-.51ZM37.42,160.49l-.35,1,.35.42.35-.16,0-1-.33-.24Zm17.11,3.35,0-.56-.35-.44-.52.92.63.54.27-.46Zm30.73,5-.13-.52-.38-.26-.4.39.37,1,.55-.59ZM35.69,172.7l-.79.55,1,.44.45-.35Zm215.49,1.71-1.08-.24-.5.37.42.42,1.1-.16.06-.39Zm14.9,7.4-.9.51.4.42h.61l.48-.33-.59-.59Zm34.9,4.1-1.1-.2,0,.73,1.1-.16,0-.37Zm65.17,4.41.72-1.49-.74-.5-.35.4.37,1.58Zm-182.86,144-.33.51,0,.57.33.48.43-.81-.39-.75ZM117.91,192.46l.48.4.61,0,.48-.38-1.07-.39-.5.32Zm44.89,0-1.36-.07.73.51ZM78.27,323l-.42,1,.4.42.57-.71-.55-.71ZM237.13,206.38l-1.07-.16-.5.27.44.37,1.09-.13,0-.35Zm73,14.15-1-.42-.61.64,1,.35.63-.57Zm54.89,6.58.38-.44-.44-1-.37.42.43,1.07ZM46.9,277.41l1-.46-1-.52-.53.68.5.3ZM191,39.21l.26-.36-.44-.06.18.42Zm-19.39,3.48L172,43l0-.46Zm1.49,5.52.22-.37-.35,0,.13.4Zm-3.75,3.22-.2.38.31.06-.11-.44Zm10.13,7,.26-.46-.42,0,.16.5Zm-2.2,6.06-.3-.35-.05.66.35-.32Zm-19.47,1-.2.33.32,0-.11-.38Zm-56.06,5.4-.4-.25-.06.42.46-.17Zm135.62,2.49-.31-.26-.06.4.37-.15Zm43.28,9.95-.2.38.32,0-.11-.42ZM309.77,90l.35.22.06-.33-.4.11ZM166.66,94.84l-.35.37.68.06Zm125.75,6.77-.44-.24-.06.39.5-.15Zm-144.62,1.12-.33-.18-.37.35.31.36.39-.53Zm143.29,2.78-.33-.2-.05.35.38-.15ZM61.75,126.22l.26-.37-.42,0,.17.42Zm193.66,6.12-.33-.38-.07.7.4-.32Zm-8,16.36-.22.38.35.06-.13-.44ZM51.23,152.82l.35.24,0-.4-.39.16ZM160,159.09l.42.26,0-.44-.46.18ZM156.27,163l.35.22,0-.33-.4.11Zm77,1.64.26-.33-.43-.06.17.39Zm-64.92,27.9-.33-.33-.4.26.35.33.39-.26Zm103,2.52.3.22,0-.37-.35.15Zm-115.11,5.06.33.22.06-.33Zm-49.68,2.41-.23.28.35.05Zm141.8,3.92.34.24.06-.39-.4.15Zm20.6,2.85.23-.29-.38-.06ZM186.1,223.18l-.32-.24-.05.35.37-.11Zm-6.39,1.32-.33-.22,0,.33.38-.11Zm39.65,0-.26-.22-.06.33.32-.11ZM182.3,236l-.33-.24-.06.37.39-.13Zm-9.42,8.9.29.22.08-.35-.37.13Zm46.28,11.08-.39.46.74,0-.35-.5ZM147.51,360.86l-.4.4.75.06-.35-.46Zm93.39-.38.37-.37-.31-.42-.35.36Zm-106.23-2.12,0,.81.46-.37-.42-.44ZM85.83,331.87l.34.24,0-.38-.39.14Zm85.92-13.74.24-.42-.36,0Zm151.06-7-.35.3.65.07-.3-.37Zm-134.33-6.3-.24.36.36.06Zm18.19-11.2-.35-.24,0,.4.39-.17Zm98.15-19.08.22-.24-.35-.07.13.31Zm-2.1-1.42-.38-.36-.44.29.39.35.43-.28Z"/><path id="Path_19138" data-name="Path 19138" class="cls-1" d="M335.49,330.59l1.53.66.72,3,.55.29,2.47-.78,1.5.72L340.91,337l-4.15-.81-1.83-3.2.56-2.44Z"/><path id="Path_19139" data-name="Path 19139" class="cls-1" d="M329.92,354.37l-1.29,1.32-1.23-.21L322,354.23l-.43-1.38.89-.83,6.18.38,1.24,2Z"/><path id="Path_19140" data-name="Path 19140" class="cls-1" d="M72.46,343.39v5l-.9,1.3L70,349.64l-.76-1,.89-4.8.81-.79,1.57.32Z"/><path id="Path_19141" data-name="Path 19141" class="cls-1" d="M177.28,16.22l-1.43-2.85-2-1.47.32-2.35.52.1,4,4.08.12,1.93-1.55.57Z"/><path id="Path_19142" data-name="Path 19142" class="cls-1" d="M54.77,333.12l1.82-.51,1.2,1.32L57,337.12l-2-.61-.21-3.39Z"/><path id="Path_19143" data-name="Path 19143" class="cls-1" d="M237.42,14.4l.12,1.51-1.62.47-.57-.26-1.11-.33L233,16l-1.14-1.4,0-1.16,1-.43,4.52,1.42Z"/><path id="Path_19144" data-name="Path 19144" class="cls-1" d="M264,378.72l1.16.35.18,1.72-1.21,2.2-1.13.31-.72-.87,1.72-3.71Z"/><path id="Path_19145" data-name="Path 19145" class="cls-1" d="M109.16,367.33l1.58,1.76-1.64,1.66h-1.46l-1.44-1.57Z"/><path id="Path_19146" data-name="Path 19146" class="cls-1" d="M390.74,252.7l-2.61-2.4,4,0Z"/><path id="Path_19147" data-name="Path 19147" class="cls-1" d="M137.78,382.26l-2.23,1.36-1.59-1.9.79-1.51,1.81.28,1.22,1.76Z"/><path id="Path_19148" data-name="Path 19148" class="cls-1" d="M126.16,375.68l-.32,2.34-1.07.45-1.86-2.77,3.25,0Z"/><path id="Path_19149" data-name="Path 19149" class="cls-1" d="M396.71,192.07l1.7,3.18-.69,1-1.13.16-1.58-3.1,1.7-1.27Z"/><path id="Path_19150" data-name="Path 19150" class="cls-1" d="M32.79,301.48l-1.51,2.73-1.61-1.73,1.74-1.75,1.38.75Z"/><path id="Path_19151" data-name="Path 19151" class="cls-1" d="M394.07,243.9l1.37-.71,1.8,1.9-1.54,1.54Z"/><path id="Path_19152" data-name="Path 19152" class="cls-1" d="M352.23,324.26l-.51-3.27.76-.87,1.49.63Z"/><path id="Path_19153" data-name="Path 19153" class="cls-1" d="M160.33,390l-.47-2.87,1.43-.64,1.79,1.67L160.33,390Z"/><path id="Path_19154" data-name="Path 19154" class="cls-1" d="M299.54,30l1.73-1.71,1.49,2.6-2.07.38Z"/><path id="Path_19155" data-name="Path 19155" class="cls-1" d="M147.9,21.09l-1.44,1.26-1.86-1.42.25-2.76Z"/><path id="Path_19156" data-name="Path 19156" class="cls-1" d="M164.44,17.17l-1.4.73L161.31,16l.51-1.62,1.19.17,1.42,2.61Z"/><path id="Path_19157" data-name="Path 19157" class="cls-1" d="M155,13l1.24-1.22,2,.89-.55,2.3L155,13Z"/><path id="Path_19158" data-name="Path 19158" class="cls-1" d="M224.68,12.23l-.74,1.52-1.7-.49-.73-1-.12-.59.47-1.08L223,10.5l1.66,1.73Z"/><path id="Path_19159" data-name="Path 19159" class="cls-1" d="M193.33,9.47,194,8.42l2.2-.09v2.31l-1.1.47-.58-.21-.5-.38-.7-1Z"/><path id="Path_19160" data-name="Path 19160" class="cls-1" d="M38.85,310l-1.52,1.79-1.7-2.57,1.5-.8L38.85,310Z"/><path id="Path_19161" data-name="Path 19161" class="cls-1" d="M80.56,353.79l3.17.11-1.32,2.46-1.85-2.57Z"/><path id="Path_19162" data-name="Path 19162" class="cls-1" d="M81.12,359.33l1.5,1.21.14,1.2L81,363.07l-1.65-2,1.74-1.77Z"/><path id="Path_19163" data-name="Path 19163" class="cls-1" d="M90.49,363.72l-1.68,1.77-1.89-1.64,1.32-1.74,1.17.13,1.08,1.49Z"/><path id="Path_19164" data-name="Path 19164" class="cls-1" d="M43.92,320.88l-1.42-2,1.26-1.39,1.56,1-.77,2.32Z"/><path id="Path_19165" data-name="Path 19165" class="cls-1" d="M236.08,390.39l-.8.83-1.81-.22-.18-1.61,2.74.37Z"/><path id="Path_19166" data-name="Path 19166" class="cls-1" d="M171.65,392.55l-1.16-.1-.3-2.72,1.07-.44,1,.57-.6,2.68Z"/><path id="Path_19167" data-name="Path 19167" class="cls-1" d="M177,390l-.45-1.45,2.16-1.68,1,.91Z"/><path id="Path_19168" data-name="Path 19168" class="cls-1" d="M20,269l-1.45.61-.23-3.23L20,269Z"/><path id="Path_19169" data-name="Path 19169" class="cls-1" d="M190,384.57l-1.32,1.7-1.67-.52-.13-1.15,3.12,0Z"/><path id="Path_19170" data-name="Path 19170" class="cls-1" d="M380.27,268.68l.76.89-1.8,2.35-.13-3.14,1.17-.1Z"/><path id="Path_19171" data-name="Path 19171" class="cls-1" d="M341.78,328.41,339.42,327l2.36-1.55v3Z"/><path id="Path_19172" data-name="Path 19172" class="cls-1" d="M152.94,382.73l1.35.82.12,1.72-1.38.82L152,384.91l1-2.18Z"/><path id="Path_19173" data-name="Path 19173" class="cls-1" d="M44.92,87.56,46,86.26l1.64-.17L48,87.68l-.74.92H45.66l-.74-1Z"/><path id="Path_19174" data-name="Path 19174" class="cls-1" d="M390.83,167l-1.15,1.4-1.17.14-.67-1.52.7-1,1.55-.08Z"/><path id="Path_19175" data-name="Path 19175" class="cls-1" d="M375,279.65l1.5-2,1.74,1.12-.35,1.15-.46.4-1.18.5L375,279.65Z"/><path id="Path_19176" data-name="Path 19176" class="cls-1" d="M50.09,79.8l1-1.4,1.69.09.07,1.68-1.3,1.08-.65-.39-.82-1Z"/><path id="Path_19177" data-name="Path 19177" class="cls-1" d="M352.88,76.3l1.53-.77,1.07,1.32-.94,2-1.43-.81Z"/><path id="Path_19178" data-name="Path 19178" class="cls-1" d="M29.64,292l.71-1.48,1.76.1.54,1.57-.92.65L29.64,292Z"/><path id="Path_19179" data-name="Path 19179" class="cls-1" d="M332.6,51.87l1.66-1.58,1.57,1.56-.7.95-1.65.46-.88-1.4Z"/><path id="Path_19180" data-name="Path 19180" class="cls-1" d="M331.16,343.65l.39-.47,1.91.4-.5,2.88h-1.12l-.69-2.81Z"/><path id="Path_19181" data-name="Path 19181" class="cls-1" d="M306.86,40.23l1.47-.45.5,2.81-1.57.1-.48-1.09.07-1.37Z"/><path id="Path_19182" data-name="Path 19182" class="cls-1" d="M278.29,23.69,277,25.56l-1.2-.23-.69-1.76,1.59-.59,1.61.7Z"/><path id="Path_19183" data-name="Path 19183" class="cls-1" d="M288.32,25.13l-1.41-1.3L288.27,22l1.16.2.25,1.67Z"/><path id="Path_19184" data-name="Path 19184" class="cls-1" d="M211.35,12.32l-1.79-2,1.77-1.22Z"/><path id="Path_19185" data-name="Path 19185" class="cls-1" d="M204.86,8.26,204.3,8,204,6.12l1.6-.81,1,.44.08,1.15Z"/><path id="Path_19186" data-name="Path 19186" class="cls-1" d="M394.87,232.49l.08,1.23-1.81,1.17-.65-1.61.67-1.52.76.05.95.69Z"/><path id="Path_19187" data-name="Path 19187" class="cls-1" d="M317.17,351.63l-1.84.19-1.57-.8-.14-1.29,1.58-.62,1.51.73.22,2Z"/><path id="Path_19188" data-name="Path 19188" class="cls-1" d="M21.7,126.92v-1.34l1.68-1.27-.19,3.31-1.5-.7Z"/><path id="Path_19189" data-name="Path 19189" class="cls-1" d="M309.91,359.88l.24,2.65-1.06.4-.85-.67.12-1.76,1.55-.62Z"/><path id="Path_19190" data-name="Path 19190" class="cls-1" d="M16.57,248.48l-.14-1.34,1.63-1.25,0,3.23Z"/><path id="Path_19191" data-name="Path 19191" class="cls-1" d="M95.65,364.1l2.41.2,0,1.76-.85.7-1.08-.37-.44-2.29Z"/><path id="Path_19192" data-name="Path 19192" class="cls-1" d="M182.68,14.37l1,.54.33,1.78-.34.48-1-.06-.94-1.55,1-1.19Z"/><path id="Path_19193" data-name="Path 19193" class="cls-1" d="M200.27,18.36,198.15,16l1.48-.65,1,1.31-.37,1.67Z"/><path id="Path_19194" data-name="Path 19194" class="cls-1" d="M265.53,18.59l-1.17,1.34-1.67-.12,1-2.72Z"/><path id="Path_19195" data-name="Path 19195" class="cls-1" d="M257.29,19.89l1.5-1.63,1,.68-.19,2-.52.29Z"/><path id="Path_19196" data-name="Path 19196" class="cls-1" d="M131.69,21.36l.45-.4,1.12-.11.55,1L133,23.34l-1,.2-.5-1,.21-1.18Z"/><path id="Path_19197" data-name="Path 19197" class="cls-1" d="M391.39,155.05l.51-2.37,1.38.94.1,1.68-1.58.2-.41-.45Z"/><path id="Path_19198" data-name="Path 19198" class="cls-1" d="M113.58,32.24l1,1.1-.37,1.1-1.43.56-.44-1.06.26-1.13,1-.56Z"/><path id="Path_19199" data-name="Path 19199" class="cls-1" d="M107.65,35.37l1.6-1.77,1.27,1.15L109,36.38Z"/><path id="Path_19200" data-name="Path 19200" class="cls-1" d="M100.05,36.18l1,.59.35.52-1.33,1.83L99,38.48l0-1.6,1-.7Z"/><path id="Path_19201" data-name="Path 19201" class="cls-1" d="M91.28,50.65,89.47,49l.86-1.37,1.06.45.47,1.1-.58,1.5Z"/><path id="Path_19202" data-name="Path 19202" class="cls-1" d="M321.38,47.45,323,49.29l-1.54.57L320,49v-.6l1.37-.9Z"/><path id="Path_19203" data-name="Path 19203" class="cls-1" d="M394.52,203.79l.38,2.26-.76.79-1.26-.89-.06-.6.68-1,1-.58Z"/><path id="Path_19204" data-name="Path 19204" class="cls-1" d="M62.63,67l1-1.2,2.21,1.33-1.82,1.22L62.63,67Z"/><path id="Path_19205" data-name="Path 19205" class="cls-1" d="M13.14,258.06l-1.33-1.81,2.79.08Z"/><path id="Path_19206" data-name="Path 19206" class="cls-1" d="M390.46,214.11h.5l1.26,1.86-.53,1-1.48-.6-.11-1.8.36-.48Z"/><path id="Path_19207" data-name="Path 19207" class="cls-1" d="M20.87,274.22l1.18,3.2H20.88Z"/><path id="Path_19208" data-name="Path 19208" class="cls-1" d="M370.2,292.44l1.26-1.77,1.58.44-.6,1.55Z"/><path id="Path_19209" data-name="Path 19209" class="cls-1" d="M8.16,220.65l.18,2.29-1,.5-.82-1.33,1.65-1.46Z"/><path id="Path_19210" data-name="Path 19210" class="cls-1" d="M370.54,305.07l-1.82,2.55.28-3.2,1.54.65Z"/><path id="Path_19211" data-name="Path 19211" class="cls-1" d="M356.21,308.43l1.51.52-.25,1.67-1.39,1Z"/><path id="Path_19212" data-name="Path 19212" class="cls-1" d="M362.73,310l-1,1.61-1.67.16-.41-1.06,1.2-1.11Z"/><path id="Path_19213" data-name="Path 19213" class="cls-1" d="M359.76,315.19l.84,1.35-.68,1.5-1.65-.59.47-1.63.46-.4.56-.23Z"/><path id="Path_19214" data-name="Path 19214" class="cls-1" d="M348.64,325.54,346.9,327l.11-3,1.63,1.6Z"/><path id="Path_19215" data-name="Path 19215" class="cls-1" d="M330.47,337.15l-.46-2.37,1.52-.59.6,1-.26,1.12Z"/><path id="Path_19216" data-name="Path 19216" class="cls-1" d="M316.93,351.82l2.45,1.84-1.87,1.61-1.26-1.34.92-2.3-.24.19Z"/><path id="Path_19217" data-name="Path 19217" class="cls-1" d="M298.3,370.75l-1.11-.43.1-1.61L300,369Z"/><path id="Path_19218" data-name="Path 19218" class="cls-1" d="M279.58,374.05l-.92.71L278,375l-1.47-.87,1.25-1.39,1.8.73v.61Z"/><path id="Path_19219" data-name="Path 19219" class="cls-1" d="M395,182.13l-.23,1.2-1.61.44-.53-1,.86-1.52,1-.17.48,1.08Z"/><path id="Path_19220" data-name="Path 19220" class="cls-1" d="M141.3,387.49l-.65-1-.06-.62,1.73-1.67.67.9.06,1.21-.56,1.06-1.19.13Z"/><path id="Path_19221" data-name="Path 19221" class="cls-1" d="M257.38,386.85l1.86-1.47,1,.51-.39,1.58-1.8.12-.71-.74Z"/><path id="Path_19222" data-name="Path 19222" class="cls-1" d="M252,388.14l.18-1.14,3,.21L254,388.5l-2.07-.36Z"/><path id="Path_19223" data-name="Path 19223" class="cls-1" d="M203,389.17l-.91,1.32-1,.13-.49-1.06.35-1.12,1.56-.42.52,1.15Z"/><path id="Path_19224" data-name="Path 19224" class="cls-1" d="M234.75,394.77l-3.27-.08.57-1.53,1.16,0,1.54,1.65Z"/><path id="Path_19225" data-name="Path 19225" class="cls-1" d="M227.16,395.27l-.53,1-1.78.16-.6-.85,1.75-1.42,1.17,1.11Z"/><path id="Path_19226" data-name="Path 19226" class="cls-1" d="M385.41,127l1.7-.5,1.26,1.12-.9,1.34-.61.1Z"/><path id="Path_19227" data-name="Path 19227" class="cls-1" d="M382.87,235.82l2.26-.24.62,1.58-1.6.52Z"/><path id="Path_19228" data-name="Path 19228" class="cls-1" d="M7.92,191.28l1.64-1.5,1.26,1.37-1.05,1.38Z"/><path id="Path_19229" data-name="Path 19229" class="cls-1" d="M384.23,143.47h.56l.86,2.21-1.43,1Z"/><path id="Path_19230" data-name="Path 19230" class="cls-1" d="M8.84,243.44l.37-1.08h1.53L10.56,245l-1.72-1.57Z"/><path id="Path_19231" data-name="Path 19231" class="cls-1" d="M129.36,24.33l.6,1.48-1,.63-1-.55,1.42-1.56Z"/><path id="Path_19232" data-name="Path 19232" class="cls-1" d="M318.26,37,316.53,38l-.4-1.09,1.19-1.11.94,1.14Z"/><path id="Path_19233" data-name="Path 19233" class="cls-1" d="M96.69,47.8l-1.41.62-.58-1.57,1.48-.63.57.88-.06.7Z"/><path id="Path_19234" data-name="Path 19234" class="cls-1" d="M332.31,45.87l0,.62-.1,1.22-.38.46-1.65-.06-.27-.48.74-1.48,1.8-.1-.17-.18Z"/><path id="Path_19235" data-name="Path 19235" class="cls-1" d="M66.3,61.86v-.62l.62-.92,1.53.48-.18,1.14-1,.44-1-.52Z"/><path id="Path_19236" data-name="Path 19236" class="cls-1" d="M77.54,64.35l-1,.57-1.18-1,.37-1.07,1.58.36.23,1.15Z"/><path id="Path_19237" data-name="Path 19237" class="cls-1" d="M340.55,64.52l1.12-.45,1.8,1.6-.22.47-1.15.23Z"/><path id="Path_19238" data-name="Path 19238" class="cls-1" d="M58.93,83.24l1-1.23,1,.46-.57,1.58-1.4-.8Z"/><path id="Path_19239" data-name="Path 19239" class="cls-1" d="M360,85.75l1.14.35.22,1.61-1.09.35-.87-1.31.59-1Z"/><path id="Path_19240" data-name="Path 19240" class="cls-1" d="M204.31,396.55l-1-1.23,1.2-1.07,1.05,1.26Z"/><path id="Path_19241" data-name="Path 19241" class="cls-1" d="M367.42,93.94l2.21-.6.4,1.44-2.07.27Z"/><path id="Path_19242" data-name="Path 19242" class="cls-1" d="M194.59,393.35l-1.37-1.08,1.45-1.61.85,1.38Z"/><path id="Path_19243" data-name="Path 19243" class="cls-1" d="M44.24,98.58l-1.39.87-.64-1.55,1.63-.42.4,1.1Z"/><path id="Path_19244" data-name="Path 19244" class="cls-1" d="M242.11,386.76l1.62-.5,1,.46-.21.94-.94.69Z"/><path id="Path_19245" data-name="Path 19245" class="cls-1" d="M214,386.83l2.29-.58.6.85-1.27,1.16-1-.4Z"/><path id="Path_19246" data-name="Path 19246" class="cls-1" d="M232,384.33v2.61l-1.82-1.28,1.82-1.33Z"/><path id="Path_19247" data-name="Path 19247" class="cls-1" d="M369.79,105.72l1.25-.82.83,1.24-1.2.86-.88-1.28Z"/><path id="Path_19248" data-name="Path 19248" class="cls-1" d="M268.5,385l-2-1.17.58-1.31,2.25.53-1.05,2.12.22-.17Z"/><path id="Path_19249" data-name="Path 19249" class="cls-1" d="M254,381.79l-.61,1-2.06-.23.47-1.37Z"/><path id="Path_19250" data-name="Path 19250" class="cls-1" d="M281.05,378.88l1,.59-.79,1.4-1.08-.38-.15-1.13,1-.48Z"/><path id="Path_19251" data-name="Path 19251" class="cls-1" d="M36.11,108.66l.4.46-.08,1.59-1.62.15-.41-1,1.11-1.1.61,0Z"/><path id="Path_19252" data-name="Path 19252" class="cls-1" d="M268.56,377.73l.17-1.07,1-.46.94.6-.11,1.16-1.58.25Z"/><path id="Path_19253" data-name="Path 19253" class="cls-1" d="M290.28,377.23h-1.86l-.59-1.65,1.62-.48.63,2.35Z"/><path id="Path_19254" data-name="Path 19254" class="cls-1" d="M7.19,203.46l-1.27.87-.65-1.47,1.55-.49.37,1.09Z"/><path id="Path_19255" data-name="Path 19255" class="cls-1" d="M378.44,117l-.62,1.62-.74,0-1-1.24,1.22-1,1.1.62Z"/><path id="Path_19256" data-name="Path 19256" class="cls-1" d="M33.15,119l.87,1.28-1.5.79-.45-1.62Z"/><path id="Path_19257" data-name="Path 19257" class="cls-1" d="M379.59,122l-1,.56-1-.36.23-1.57,1.58.26.22,1.11Z"/><path id="Path_19258" data-name="Path 19258" class="cls-1" d="M286,368.74l-1.48.85L284,368l1.62-.35.38,1.1Z"/><path id="Path_19259" data-name="Path 19259" class="cls-1" d="M305.27,361.23l-1.51.56-.45-.36-.12-1.09.83-.63,1.25,1.52Z"/><path id="Path_19260" data-name="Path 19260" class="cls-1" d="M310.52,355.57l-.83-1.33,1.45-.75.45,1.61Z"/><path id="Path_19261" data-name="Path 19261" class="cls-1" d="M382.76,135.39l-.54,0-.93-1.26,1.2-.92.73,1.79-.46.43Z"/><path id="Path_19262" data-name="Path 19262" class="cls-1" d="M18.4,134.2l1.52.71-.29,1.27-1.52.25-.28-1.09.57-1.14Z"/><path id="Path_19263" data-name="Path 19263" class="cls-1" d="M324.59,344.67l-1.56.62-.57-1.09,1-1.2,1.18.94,0,.73Z"/><path id="Path_19264" data-name="Path 19264" class="cls-1" d="M385.53,138.63v0Z"/><path id="Path_19265" data-name="Path 19265" class="cls-1" d="M51.22,331.3l.5-1,1.35.87-.5,1-1.35-.9Z"/><path id="Path_19266" data-name="Path 19266" class="cls-1" d="M19,147.48v-.6l1.17-1,1,1.19-1.74.82-.45-.45Z"/><path id="Path_19267" data-name="Path 19267" class="cls-1" d="M14.69,147.33l1.51,2.53-.24.55-.93-.19L14,148l.26-.53Z"/><path id="Path_19268" data-name="Path 19268" class="cls-1" d="M397.68,220.71l.91-.61,1.37.69-.23,1.1-1.53.36-.52-1.54Z"/><path id="Path_19269" data-name="Path 19269" class="cls-1" d="M12.74,224.11l.83,1.28-1.23.88L11.5,225Z"/><path id="Path_19270" data-name="Path 19270" class="cls-1" d="M11.52,165.7l1-.62,1.06.41-.16,1.63-1.59-.27Z"/><path id="Path_19271" data-name="Path 19271" class="cls-1" d="M365.48,301.62l-.52-.26-.26-1.12,1.55-.68.33,1.62-1.1.44Z"/><path id="Path_19272" data-name="Path 19272" class="cls-1" d="M399.87,172.75l-1.27,1-.81-.73,1.52-1.32.56,1Z"/><path id="Path_19273" data-name="Path 19273" class="cls-1" d="M9.58,174.27l-1.52.57-.51-1.05.6-.95,1.1.33.34,1.1Z"/><path id="Path_19274" data-name="Path 19274" class="cls-1" d="M389.46,259.71l1.64,1.15-.9,1.26-1.33-.84v-.6l.59-1Z"/><path id="Path_19275" data-name="Path 19275" class="cls-1" d="M379.23,287.71l-1.29-.34-.43-1.06,1.3-.92.8.67Z"/><path id="Path_19276" data-name="Path 19276" class="cls-1" d="M12.9,182l.55,1.56-1,.49-.93-1.22Z"/><path id="Path_19277" data-name="Path 19277" class="cls-1" d="M293.6,33l-.92-1.32.73-.73,1,.62.28,1.05-1.1.38Z"/><path id="Path_19278" data-name="Path 19278" class="cls-1" d="M399.4,198.73l1.11-1.3.9.45-.57,1.54Z"/><path id="Path_19279" data-name="Path 19279" class="cls-1" d="M10.56,206.49l.66,2.22-.83.46-.42-.45Z"/><path id="Path_19280" data-name="Path 19280" class="cls-1" d="M400.2,178.24l-.08.78-.75.75-1.25-1.66.46-.4Z"/><path id="Path_19281" data-name="Path 19281" class="cls-1" d="M8,233.36l1.48-1.69.45,1L9,233.87l-1-.51Z"/><path id="Path_19282" data-name="Path 19282" class="cls-1" d="M118.09,373.28l.29-2.12,1.09.35,0,.54-1.33,1.23Z"/><path id="Path_19283" data-name="Path 19283" class="cls-1" d="M293.5,366.21l.28,1.6-1.64.06Z"/><path id="Path_19284" data-name="Path 19284" class="cls-1" d="M213.07,393.48l-1,.49-1.15-1.12.57-1,.6.16,1,1.45Z"/><path id="Path_19285" data-name="Path 19285" class="cls-1" d="M221.36,390.84l1.71-.52.39,1.1-.8.62-1.3-1.2Z"/><path id="Path_19286" data-name="Path 19286" class="cls-1" d="M117.35,380.19l-.72.45-.26-.49.54-.95.39.42,0,.57Z"/><path id="Path_19287" data-name="Path 19287" class="cls-1" d="M59.5,338.78l-.4-.33.58-.57.8.51-.42.36-.56,0Z"/><path id="Path_19288" data-name="Path 19288" class="cls-1" d="M369.91,298.51l1.09-.42.59.76-1,.47-.63-.8Z"/><path id="Path_19289" data-name="Path 19289" class="cls-1" d="M126,380.38l-.39.55-.32-.39.36-.35Z"/><path id="Path_19290" data-name="Path 19290" class="cls-1" d="M389.23,269.55l-.32-.35.38-.25-.06.6Z"/><path id="Path_19291" data-name="Path 19291" class="cls-1" d="M64.18,348.48l.39-.14-.06.38Z"/><path id="Path_19292" data-name="Path 19292" class="cls-1" d="M209.32,200.48l-.5,1.38L205.93,206l-5.59,0L199,203.85l-1.69-4.73-1.69-6.68.18-1.54L200,187l3.72,1.34,2,6.27,3.59,5.87Zm-9.7-1.82,1.22,1.69,1.17,2.21,1.64.66,2-4.08-2.25-2.82-1.84-5.39-1.12-.38-2,1.87,1.2,6.24Z"/><path id="Path_19293" data-name="Path 19293" class="cls-1" d="M140.35,249.31l-1.48,1.94-.77-.44.13-.62.46-.42,1.85-.28-.19-.18Z"/><path id="Path_19294" data-name="Path 19294" class="cls-1" d="M142.94,246.74,141.66,248l.19.18,1.26-1.29-.17-.16Z"/><path id="Path_19295" data-name="Path 19295" class="cls-1" d="M141.67,248l-1.32,1.3.2.18,1.3-1.3-.18-.18Z"/><path id="Path_19296" data-name="Path 19296" class="cls-1" d="M135.44,253.34l.47-1.05.4.33-1.05.55.18.17Z"/><path id="Path_19297" data-name="Path 19297" class="cls-1" d="M70.16,209.64l-.62.13-3.74,3-1.58-1.49-8,.69-3,.35-4.13,2-5.35,1.78-.63,0,.15.13-.17-1.9.34-1.42,3.29-1.55,5.47-1.56,1.26-.15,4.25-.39,8.12-.85,1.13-.5-9.3-5.18,4.27-.62,3.63,2.16L71,206.29,70,209.81l.15-.17Z"/><path id="Path_19298" data-name="Path 19298" class="cls-1" d="M120.11,223.71l-.63,1-4.24,2.3,3.58.54-.72.91-3.62.64-6.82,3.39-1.84.37v-1.69l-2.32-.77-6,1.19-1.86,0,.3-3.12,2.55-2.87,5-.41-.16-.17-.61,1-3,.78-1.25,1.67,1.9.36,2.4-.67,5-.53,5.42-1.47L117,224l3.11-.31Z"/><path id="Path_19299" data-name="Path 19299" class="cls-1" d="M72.71,230.26l.48-1.06,1.87-2.1.22-2.08-.12.13,1,.57.26,3.11-.72.93-3.11.37.12.14Z"/><path id="Path_19300" data-name="Path 19300" class="cls-1" d="M70,209.81l5.3.16,2,1.75-.53.32-6-1.45-.6-1-.15.17Z"/><path id="Path_19301" data-name="Path 19301" class="cls-1" d="M82.88,205.55l3.53-.76,3-.73,1,.37-.46,1-7,.14Z"/><path id="Path_19302" data-name="Path 19302" class="cls-1" d="M96.86,222.42l-.59,1-6.14.17-.48-.37.53-.32,6.85-.27-.17-.19Z"/><path id="Path_19303" data-name="Path 19303" class="cls-1" d="M77.67,205.8l-.2.56-4.39,0,4.77-.41-.17-.19Z"/><path id="Path_19304" data-name="Path 19304" class="cls-1" d="M77.84,206l.68-1,2.47.16-.77.56-2.55.06.17.19Z"/><path id="Path_19305" data-name="Path 19305" class="cls-1" d="M76.42,216l-.66.9-2.88-.09,3.72-.62-.18-.2Z"/><path id="Path_19306" data-name="Path 19306" class="cls-1" d="M65.4,221.82l2.36-.38.51.33-.63.65Z"/><path id="Path_19307" data-name="Path 19307" class="cls-1" d="M103.43,225.17l1.9-2.14-.26,1.85-1.8.12.16.16Z"/><path id="Path_19308" data-name="Path 19308" class="cls-1" d="M89.38,227.56l-3-.09-.47-.35.56-.67h1.78l.93,1.3.17-.19Z"/><path id="Path_19309" data-name="Path 19309" class="cls-1" d="M81.52,227.57l-.22.59-3,.22,3.39-.64-.17-.17Z"/><path id="Path_19310" data-name="Path 19310" class="cls-1" d="M43.15,216.05v2.72l.14-.13-1-1.24,1-1.22-.15-.13Z"/><path id="Path_19311" data-name="Path 19311" class="cls-1" d="M68.31,216.78l-.2.38-1.4-.38.5-.34h.61l.5.33Z"/><path id="Path_19312" data-name="Path 19312" class="cls-1" d="M97,222.61l1.21-1.14.93.5-.46.38-1.84.07.16.19Z"/><path id="Path_19313" data-name="Path 19313" class="cls-1" d="M72.71,223.73l-1.78-.22-.45-.37,2.11.73.12-.13Z"/><path id="Path_19314" data-name="Path 19314" class="cls-1" d="M75.28,225l-1.65-.1-.92-1.18-.12.13,1.65.09.92,1.19.12-.13Z"/><path id="Path_19315" data-name="Path 19315" class="cls-1" d="M95.8,231.38l-1.1,1.17-1.67.29Z"/><path id="Path_19316" data-name="Path 19316" class="cls-1" d="M96.28,209.37l-.1-.44.31,0-.21.4Z"/><path id="Path_19317" data-name="Path 19317" class="cls-1" d="M110.06,214.09l.5-.16,0,.4-.46-.24Z"/><path id="Path_19318" data-name="Path 19318" class="cls-1" d="M70.41,216.76l.49-.11,0,.34-.45-.23Z"/><path id="Path_19319" data-name="Path 19319" class="cls-1" d="M84.69,218.19l-.13-.3.34.07Z"/><path id="Path_19320" data-name="Path 19320" class="cls-1" d="M102,221.15l-.56.9-.3-.34,1-.39-.17-.17Z"/><path id="Path_19321" data-name="Path 19321" class="cls-1" d="M121.38,222.41l-1.49,1.51Z"/><path id="Path_19322" data-name="Path 19322" class="cls-1" d="M81.69,227.74l.51-1,.35.34-1,.45Z"/><path id="Path_19323" data-name="Path 19323" class="cls-1" d="M274.71,133.07l1.5-1.5Z"/><path id="Path_19324" data-name="Path 19324" class="cls-1" d="M273.42,134.35l1.5-1.5Z"/><path id="Path_19325" data-name="Path 19325" class="cls-1" d="M272.14,135.64l1.5-1.52Z"/><path id="Path_19326" data-name="Path 19326" class="cls-1" d="M95.57,237.78l7.3-1.52,1.85-2.4,1.28-1.22.1,2.06,1.4,1.47,3.43.58,2.4.63-.1,1.18-.49.38-9.64,0-3.9,1.32-3-1.48-.68-1Z"/><path id="Path_19327" data-name="Path 19327" class="cls-1" d="M300.28,262.09l3.66.72,2.27,1.08,7.57,3,.6-2.23,5.2,4.75.11.59-6.78-1.59L308.74,267l-7-3Z"/><path id="Path_19328" data-name="Path 19328" class="cls-1" d="M328.67,176.36l-4.08,2.77.85-1.48,3.23-1.29Z"/><path id="Path_19329" data-name="Path 19329" class="cls-1" d="M161,282.58l-1.69,4.84-1,.47,2.17-5,.55-.27Z"/><path id="Path_19330" data-name="Path 19330" class="cls-1" d="M166.44,260.27l.4-.08-.05.28Z"/><path id="Path_19331" data-name="Path 19331" class="cls-1" d="M288.78,170.18l1.5-1.51-1.51,1.51Z"/><path id="Path_19332" data-name="Path 19332" class="cls-1" d="M251.87,126.46l-2.75,4.07Z"/><path id="Path_19333" data-name="Path 19333" class="cls-1" d="M249.33,130.28l-1.45,2.77.07-1.18Z"/><path id="Path_19334" data-name="Path 19334" class="cls-1" d="M248,132.89l-1.47,1.47Z"/><path id="Path_19335" data-name="Path 19335" class="cls-1" d="M125.21,316.05,124,314.77l.79-6.07-.36-1.65h-2l1.46-1.93,5-6.2,1.44-1V300l-2.93,7.21-2,5.8Z"/><path id="Path_19336" data-name="Path 19336" class="cls-1" d="M136.73,286.38l-.26,2.72-2.33,4.69-3.42,4.2-.59.14.18-1.23,3.24-5.36,2.6-4.94.58-.22Z"/><path id="Path_19337" data-name="Path 19337" class="cls-1" d="M122.64,306.87l-1.47,1.5Z"/><path id="Path_19338" data-name="Path 19338" class="cls-1" d="M224.84,290.42l1.43-2.75Z"/><path id="Path_19339" data-name="Path 19339" class="cls-1" d="M230.85,296.15l-.37.12.06-.34.32.23Z"/><path id="Path_19340" data-name="Path 19340" class="cls-1" d="M293.9,151l.21-.58,3.45-2.59,3-.85-1.08,1.46Z"/><path id="Path_19341" data-name="Path 19341" class="cls-1" d="M300.31,147.15l2.77-2.77Z"/><path id="Path_19342" data-name="Path 19342" class="cls-1" d="M158.27,122.62l1.48,1.48Z"/><path id="Path_19343" data-name="Path 19343" class="cls-1" d="M159.55,123.9l1.5,1.49Z"/><path id="Path_19344" data-name="Path 19344" class="cls-1" d="M122.44,117.49l1.49,1.5Z"/><path id="Path_19345" data-name="Path 19345" class="cls-1" d="M123.71,118.77l1.5,1.49Z"/><path id="Path_19346" data-name="Path 19346" class="cls-1" d="M308.19,316l-1.5-1.5Z"/><path id="Path_19347" data-name="Path 19347" class="cls-1" d="M111.13,315.82l-1.68,3.66-1.07.4,2.75-4.05Z"/><path id="Path_19348" data-name="Path 19348" class="cls-1" d="M108.59,319.65l-1.49,1.48Z"/><path id="Path_19349" data-name="Path 19349" class="cls-1" d="M277.29,144.57,279,141l1-.43Z"/><path id="Path_19350" data-name="Path 19350" class="cls-1" d="M279.83,140.76,281.3,138l-.27,1.71-1.2,1.1Z"/><path id="Path_19351" data-name="Path 19351" class="cls-1" d="M169.81,117.5l1.11,1.19.34,2.86-1.17-1.14Z"/><path id="Path_19352" data-name="Path 19352" class="cls-1" d="M166.17,125.39l-1.5-1.5Z"/><path id="Path_19353" data-name="Path 19353" class="cls-1" d="M167.44,126.67l-1.5-1.5Z"/><path id="Path_19354" data-name="Path 19354" class="cls-1" d="M105.84,268.69l.12-1.16,1.34-1.63-1.46,2.79Z"/><path id="Path_19355" data-name="Path 19355" class="cls-1" d="M106,271.22l-1.47,0,.32-1.67,1.15-1.09v2.74Z"/><path id="Path_19356" data-name="Path 19356" class="cls-1" d="M113.48,254.63l1.5-1.52Z"/><path id="Path_19357" data-name="Path 19357" class="cls-1" d="M108.38,264.85l1.48-1.47Z"/><path id="Path_19358" data-name="Path 19358" class="cls-1" d="M107.09,266.14l1.5-1.49Z"/><path id="Path_19359" data-name="Path 19359" class="cls-1" d="M121.39,337.57l-1.5,1.49Z"/><path id="Path_19360" data-name="Path 19360" class="cls-1" d="M261.9,163.78l1.5-1.51Z"/><path id="Path_19361" data-name="Path 19361" class="cls-1" d="M332.47,216.06l-1.17-1,.47-.9.36.4.16,1.68.18-.17Z"/><path id="Path_19362" data-name="Path 19362" class="cls-1" d="M313.12,211.07l1,.56-.41.3-.44-1Z"/><path id="Path_19363" data-name="Path 19363" class="cls-1" d="M323.51,214.77l-1-.36.06-.45.77,1Z"/><path id="Path_19364" data-name="Path 19364" class="cls-1" d="M338.71,214.74l-.46,1-.27-.35.92-.44Z"/><path id="Path_19365" data-name="Path 19365" class="cls-1" d="M173.64,85.5l1.41,1.63.06,1.17-1.44-1.61,0-1.19Z"/><path id="Path_19366" data-name="Path 19366" class="cls-1" d="M231.41,141.8l-2.76,4.08,2.77-4.08Z"/><path id="Path_19367" data-name="Path 19367" class="cls-1" d="M80.21,97l1.19.06L83,98.51l-1.74-.22L80.21,97Z"/><path id="Path_19368" data-name="Path 19368" class="cls-1" d="M90.45,103.42,92,104.93Z"/><path id="Path_19369" data-name="Path 19369" class="cls-1" d="M91.73,104.7l1.51,1.5Z"/><path id="Path_19370" data-name="Path 19370" class="cls-1" d="M141.82,276.36l.47-.85.3.29-.94.39Z"/><path id="Path_19371" data-name="Path 19371" class="cls-1" d="M155.94,217.31l-1.08,1.2-1.71.27,1.61-1.4,1.18-.07Z"/><path id="Path_19372" data-name="Path 19372" class="cls-1" d="M191.57,281.31l-.13,2.52L191,285l-1.18-.15,1.33-3.24.61-.14-.15-.13Z"/><path id="Path_19373" data-name="Path 19373" class="cls-1" d="M229.94,280.2l1.41-2.72-.17,1.13Z"/><path id="Path_19374" data-name="Path 19374" class="cls-1" d="M176.22,79.13l-.42,1-.27-.32.87-.46Z"/><path id="Path_19375" data-name="Path 19375" class="cls-1" d="M128.86,184.27l2.56,2.49.17-.18-1.21-.08-1.2-1.21-.13-1.21-.19.19Z"/><path id="Path_19376" data-name="Path 19376" class="cls-1" d="M132.72,188.08l1.68.19.4.35-.91.44-1-1.17-.18.19Z"/><path id="Path_19377" data-name="Path 19377" class="cls-1" d="M127.56,182.94l1.3,1.33.19-.19-1.3-1.32-.18.18Z"/><path id="Path_19378" data-name="Path 19378" class="cls-1" d="M116.51,184.83l.34-.13,0,.35Z"/><path id="Path_19379" data-name="Path 19379" class="cls-1" d="M136.52,184l1.49,1.48Z"/><path id="Path_19380" data-name="Path 19380" class="cls-1" d="M137.81,185.32l1.46,1.45-1.46-1.45Z"/><path id="Path_19381" data-name="Path 19381" class="cls-1" d="M132.9,187.89l-1.3-1.3-.17.18,1.28,1.31.19-.19Z"/><path id="Path_19382" data-name="Path 19382" class="cls-1" d="M139.11,186.62l1.42,1.41Z"/><path id="Path_19383" data-name="Path 19383" class="cls-1" d="M140.4,187.91l1.43,1.43Z"/><path id="Path_19384" data-name="Path 19384" class="cls-1" d="M136.69,191.76l-.89-.4.06-.38.71.9.12-.12Z"/><path id="Path_19385" data-name="Path 19385" class="cls-1" d="M63.46,120.9l-1.65.17L60,119.6l.57-1.53,2.88,2.83Z"/><path id="Path_19386" data-name="Path 19386" class="cls-1" d="M61,174l1.27,1.28.18-.19-1.28-1.26L61,174Z"/><path id="Path_19387" data-name="Path 19387" class="cls-1" d="M62.31,175.27l1.29,1.26.19-.19-1.3-1.26Z"/><path id="Path_19388" data-name="Path 19388" class="cls-1" d="M65.06,177.63l-1.27-1.29-.18.19,1.26,1.3.19-.2Z"/><path id="Path_19389" data-name="Path 19389" class="cls-1" d="M64.86,177.82l.89.54-.33.24-.36-1Z"/><path id="Path_19390" data-name="Path 19390" class="cls-1" d="M72.56,177.66,74,179.08Z"/><path id="Path_19391" data-name="Path 19391" class="cls-1" d="M73.87,179l1.43,1.41Z"/><path id="Path_19392" data-name="Path 19392" class="cls-1" d="M75.13,180.22l1.46,1.45Z"/><path id="Path_19393" data-name="Path 19393" class="cls-1" d="M245.27,228.84l1.17.11,1.63,1.35Z"/><path id="Path_19394" data-name="Path 19394" class="cls-1" d="M244,227.53l1.47,1.48L244,227.53Z"/><path id="Path_19395" data-name="Path 19395" class="cls-1" d="M223.7,243.06l1.29-2.52-.18-.18,0,1.67-1.2.92Z"/><path id="Path_19396" data-name="Path 19396" class="cls-1" d="M225,240.54l.5-.94.29.35-1,.41.18.18Z"/><path id="Path_19397" data-name="Path 19397" class="cls-1" d="M227.58,246.91l.41-1.08.37.36-1,.54.19.18Z"/><path id="Path_19398" data-name="Path 19398" class="cls-1" d="M227.39,246.72l-.44,1.05-.34-.34,1-.52Z"/><path id="Path_19399" data-name="Path 19399" class="cls-1" d="M224.86,170l-.49,1-.35-.37.94-.49-.1-.1Z"/><path id="Path_19400" data-name="Path 19400" class="cls-1" d="M191.74,165.07l-.59-.22L189,158.43l.57.25,2.18,6.39Z"/><path id="Path_19401" data-name="Path 19401" class="cls-1" d="M127.77,202l-1.65,1.41-2.41,0,1.16-1.14,2.9-.31Z"/><path id="Path_19402" data-name="Path 19402" class="cls-1" d="M254.42,204.51l-.61-.07-4.42-4.27.24-1.23.44-.07,4,3.84.2,2,.16-.15Z"/><path id="Path_19403" data-name="Path 19403" class="cls-1" d="M255.68,205.82l-1.26-1.3-.16.15,1.28,1.29.14-.14Z"/><path id="Path_19404" data-name="Path 19404" class="cls-1" d="M255.54,206l1.31,1.26.1-.1-1.27-1.3-.14.14Z"/><path id="Path_19405" data-name="Path 19405" class="cls-1" d="M45.85,167.43l-1.27-1.31-.16.17,1.28,1.29.15-.15Z"/><path id="Path_19406" data-name="Path 19406" class="cls-1" d="M45.7,167.58,47,168.83l.1-.1-1.26-1.3-.15.15Z"/><path id="Path_19407" data-name="Path 19407" class="cls-1" d="M47,168.83l1,.43-.1.43-.76-1-.1.1Z"/><path id="Path_19408" data-name="Path 19408" class="cls-1" d="M88.12,138.17H86.61l1-.87.52.87Z"/><path id="Path_19409" data-name="Path 19409" class="cls-1" d="M304.17,85.54l-.91,1.16-1.62.14.15.17.84-1.24,1.69-.06Z"/><path id="Path_19410" data-name="Path 19410" class="cls-1" d="M299.2,88.26l.91-1.18,1.68-.07-.15-.17-2.58,1.27Z"/><path id="Path_19411" data-name="Path 19411" class="cls-1" d="M299.06,88.11l-2.19.67,2.33-.52-.14-.15Z"/><path id="Path_19412" data-name="Path 19412" class="cls-1" d="M303.07,90.65,302,91.85l-1.72.26,1.1-1.18Z"/><path id="Path_19413" data-name="Path 19413" class="cls-1" d="M300.51,91.93l-1.63,1.35-1.15.1,2.78-1.45Z"/><path id="Path_19414" data-name="Path 19414" class="cls-1" d="M298,93.2l-1,1.2-1.71.23L298,93.2Z"/><path id="Path_19415" data-name="Path 19415" class="cls-1" d="M292.8,208.38l-.62-.09-4.36-4.44.21-1.2,1,.31,3.47,3.64.19,1.94.17-.15Z"/><path id="Path_19416" data-name="Path 19416" class="cls-1" d="M286.41,206l-2.74-4.07Z"/><path id="Path_19417" data-name="Path 19417" class="cls-1" d="M283.88,202.16l-1.51-1.49Z"/><path id="Path_19418" data-name="Path 19418" class="cls-1" d="M287.68,207.24l-1.46-1.44Z"/><path id="Path_19419" data-name="Path 19419" class="cls-1" d="M341.25,225l2,.38,3.26,3.6-1.84-.29Z"/><path id="Path_19420" data-name="Path 19420" class="cls-1" d="M346.4,228.84l2.74,2.74Z"/><path id="Path_19421" data-name="Path 19421" class="cls-1" d="M348.91,231.36l1.51,1.51Z"/><path id="Path_19422" data-name="Path 19422" class="cls-1" d="M350.18,232.65l1.51,1.5Z"/><path id="Path_19423" data-name="Path 19423" class="cls-1" d="M269.77,204.55l-1.12-1-.11-1.62-.19.2,1.26,2.53.16-.14Z"/><path id="Path_19424" data-name="Path 19424" class="cls-1" d="M268.54,202l-.59-.16-.2-.43.6.79.19-.2Z"/><path id="Path_19425" data-name="Path 19425" class="cls-1" d="M274.7,202l1.5,1.49Z"/><path id="Path_19426" data-name="Path 19426" class="cls-1" d="M276,203.22l1.49,1.48Z"/><path id="Path_19427" data-name="Path 19427" class="cls-1" d="M82.78,176.37h1.49v1.48l-1.49-1.48Z"/><path id="Path_19428" data-name="Path 19428" class="cls-1" d="M231.41,323.71l.1-1.77.36-.44.48.88-1.13,1.17.19.16Z"/><path id="Path_19429" data-name="Path 19429" class="cls-1" d="M65.05,168.88l-1.42-2.73Z"/><path id="Path_19430" data-name="Path 19430" class="cls-1" d="M66.35,170.17l-1.46-1.46Z"/><path id="Path_19431" data-name="Path 19431" class="cls-1" d="M98.13,172.53l2.77,2.77Z"/><path id="Path_19432" data-name="Path 19432" class="cls-1" d="M92,172.73l-1.5-1.5Z"/><path id="Path_19433" data-name="Path 19433" class="cls-1" d="M93.22,174l-1.49-1.49Z"/><path id="Path_19434" data-name="Path 19434" class="cls-1" d="M100.69,175.08l1.5,1.5Z"/><path id="Path_19435" data-name="Path 19435" class="cls-1" d="M102,176.36l1.5,1.48L102,176.36Z"/><path id="Path_19436" data-name="Path 19436" class="cls-1" d="M222.43,269.77l-.24,1.72L221,272.54l.27-1.68Z"/><path id="Path_19437" data-name="Path 19437" class="cls-1" d="M268.3,153.54l1.5-1.51Z"/><path id="Path_19438" data-name="Path 19438" class="cls-1" d="M267,154.83l1.5-1.51Z"/><path id="Path_19439" data-name="Path 19439" class="cls-1" d="M235.06,350.58l1.46-2.79-1.45,2.79Z"/></g></g></g></svg>