<svg xmlns="http://www.w3.org/2000/svg" viewBox="0 0 269.45 253.22"><defs><style>.cls-1{opacity:0.78;}.cls-2{fill:#ffd76c;}</style></defs><g id="圖層_2" data-name="圖層 2"><g id="_0-ui_kits" data-name="0-ui_kits"><g class="cls-1"><path id="Path_54893" data-name="Path 54893" class="cls-2" d="M169.85,247.84a6.94,6.94,0,0,0,.51,1.15l-1.1.39c-.34.12-.67.27-1,.4a28.78,28.78,0,0,1-4,1.12,14.41,14.41,0,0,1-2.08.25c-.71,0-1.42.07-2.15.07-.95,0-1.92-.07-2.89-.17a26.35,26.35,0,0,1-2.79-.52c.34.56.7,1.11,1.06,1.65a.61.61,0,0,1-.17.85.59.59,0,0,1-.28.1l-.13,0c-6.09.51-13.56-2.29-18.37-6.46l.14.56a.61.61,0,0,1-.45.72.69.69,0,0,1-.32,0l-.13,0a22.71,22.71,0,0,1-4.28-1.81,33.46,33.46,0,0,1-4.07-2.71,29.21,29.21,0,0,1-6.44-7.14.64.64,0,0,1-.41,0l-.13,0a25.92,25.92,0,0,1-7.7-5.23,35.46,35.46,0,0,1-3.18-3.63,27.63,27.63,0,0,1-2.46-3.94.62.62,0,0,1-.4,0l-.13,0a28.31,28.31,0,0,1-12.13-13.51.68.68,0,0,1-.4-.06l-.13-.05a21.93,21.93,0,0,1-3.5-2.63c-.56-.5-1.11-1-1.65-1.6l-.1-.11-.15-.18,0,0L88.2,205l-.36-.42c-.24-.28-.48-.57-.71-.87a31,31,0,0,1-2.5-3.72c-.37-.65-.7-1.29-1-2s-.61-1.41-.87-2.1a.7.7,0,0,1-.4-.09l-.12-.05a24.21,24.21,0,0,1-3.41-2.82c-.55-.54-1.09-1.11-1.59-1.69s-1-1.2-1.41-1.84a28.43,28.43,0,0,1-4.15-8.11.64.64,0,0,1-.38-.1.43.43,0,0,1-.12,0,24.79,24.79,0,0,1-6-6.51,28.4,28.4,0,0,1-3.77-8.27.58.58,0,0,1-.38-.11l-.11-.06a23.44,23.44,0,0,1-3.11-3,26,26,0,0,1-2.62-3.72,32.51,32.51,0,0,1-2.07-4.13,26.37,26.37,0,0,1-1.32-4.27.65.65,0,0,1-.38-.13l-.11-.07a23.77,23.77,0,0,1-3-3.14,28,28,0,0,1-2.45-3.83A33.49,33.49,0,0,1,44,139.69a28.15,28.15,0,0,1-1.12-4.31.61.61,0,0,1-.37-.15.41.41,0,0,1-.11-.07,22.91,22.91,0,0,1-2.81-3.26A30.08,30.08,0,0,1,37.27,128a30.57,30.57,0,0,1-1.69-4.25,29.42,29.42,0,0,1-.93-4.34.66.66,0,0,1-.36-.16l-.11-.08c-4.31-4.41-7.1-11.84-7.09-18a10.37,10.37,0,0,1,.33-2.66c.11-.42-1.5-2.19-1.75-2.5a18.49,18.49,0,0,1-2.12-3.27,20.16,20.16,0,0,1-1.85-5.5A11.43,11.43,0,0,1,22,81.5c-.2.14-.4.29-.59.45a.8.8,0,0,1-1.26-.62,21.34,21.34,0,0,1,.48-5.11,15.91,15.91,0,0,1,.76-2.43,14.46,14.46,0,0,1,1.2-2.31A12.26,12.26,0,0,1,23.73,70a2.68,2.68,0,0,1-.07-.27,32.48,32.48,0,0,0-.57-3.25,38.25,38.25,0,0,0-1.91-5.28s-.6-1.45-1.61-4S17.1,51,15.43,46.62C12,37.89,7.68,26.22,3.56,14.51q-1.06-3-2.1-6l-1-3A4.29,4.29,0,0,1,0,3.76a1.31,1.31,0,0,1,.66-1L6.91,0H7c.87.14,1,.84,1.19,1.51.17.5.37,1,.54,1.49Q10.38,7.65,12,12.27l.36,1C16.43,24.67,20.66,36,24,44.49c1.63,4.25,3.07,7.77,4.05,10.25.49,1.23.88,2.21,1.15,2.86l.41,1c1.3,3.16,2.71,6.43,5.87,8.11a9.62,9.62,0,0,1,1.6.31,12.66,12.66,0,0,1,7.23,5.81A18.58,18.58,0,0,1,47,81.78a10.66,10.66,0,0,1,1.46,1.12,22.06,22.06,0,0,1,3,3.37c.45.62.87,1.27,1.28,1.94s.8,1.35,1.16,2.05a26,26,0,0,1,1.76,4.34A23.49,23.49,0,0,1,56.56,99a.49.49,0,0,1,0,.12.7.7,0,0,1-.11.37,24.73,24.73,0,0,1,2.62,3.15,28.26,28.26,0,0,1,2.23,3.59,26.73,26.73,0,0,1,1.63,3.86,20.2,20.2,0,0,1,1,3.9.28.28,0,0,1,0,.13.6.6,0,0,1-.09.37,25.76,25.76,0,0,1,2.76,3,26.7,26.7,0,0,1,2.39,3.5,28.59,28.59,0,0,1,1.81,3.79,20.92,20.92,0,0,1,1.13,3.87v.12a.73.73,0,0,1-.08.38,27.76,27.76,0,0,1,2.91,2.93,28.2,28.2,0,0,1,2.54,3.41,25.65,25.65,0,0,1,3.28,7.55.24.24,0,0,1,0,.12.63.63,0,0,1-.06.38,29.25,29.25,0,0,1,5.74,6.12,25.24,25.24,0,0,1,3.61,7.41.51.51,0,0,1,0,.13.71.71,0,0,1,0,.38,28.09,28.09,0,0,1,10,13.13.57.57,0,0,1,0,.13.65.65,0,0,1,0,.39c.57.37,1.12.77,1.67,1.2s1.08.84,1.61,1.3a27.58,27.58,0,0,1,2.92,3c.45.54.85,1.09,1.28,1.67s.85,1.2,1.24,1.82a22.28,22.28,0,0,1,1.9,3.78.5.5,0,0,1,0,.12.68.68,0,0,1,0,.4c.3.18.59.37.89.57l.44.31h0c.1.11-.12-.14-.09-.11l.06,0,.11.07.21.14c.57.4,1.14.82,1.69,1.26a34.21,34.21,0,0,1,3.1,2.92,26.92,26.92,0,0,1,2.62,3.3,20.44,20.44,0,0,1,2,3.51l0,.12a.74.74,0,0,1,0,.39,27.79,27.79,0,0,1,11.68,11.2.56.56,0,0,1,0,.12.7.7,0,0,1,0,.38,28.4,28.4,0,0,1,7,4.14c.54.42,1.05.87,1.55,1.34s1,.92,1.44,1.4a22.09,22.09,0,0,1,2.39,3.08.76.76,0,0,1,0,.11.66.66,0,0,1-.27.89l-.16.05-.15,0a29.68,29.68,0,0,1,11.68,12.21.56.56,0,0,1,0,.12.68.68,0,0,1-.35.87l-.11,0a10.53,10.53,0,0,1,3.26,1.64,27.69,27.69,0,0,1,5.29,5.25c.4.5.8,1,1.18,1.58s.74,1.11,1.16,1.67a29.73,29.73,0,0,1,2.18,3.58A11,11,0,0,1,169.85,247.84Zm-32.93-5a18.82,18.82,0,0,0,5.42,4.59,24.86,24.86,0,0,0,3.14,1.57c1.1.43,2.2.82,3.31,1.19l1.67.54c.56.17,1.13.32,1.7.48a14.66,14.66,0,0,1-1-1.07c-.32-.37-.61-.78-.91-1.2-.57-.83-1.11-1.71-1.62-2.61-1-1.77-1.88-3.72-2.8-5.49-.46-.89-.94-1.74-1.45-2.53a14.75,14.75,0,0,0-1.62-2.23,9.19,9.19,0,0,0-2-1.7,8.65,8.65,0,0,0-2.48-1.11,12.13,12.13,0,0,0,.58,3.88,15.45,15.45,0,0,0,1.68,3.44c.35.55.73,1.08,1.14,1.61s.85,1,1.3,1.5c.91,1,1.89,1.92,2.87,2.86.06.06,0,.13-.09.1-4.62-2.35-10.17-6.13-10.66-11.57a8,8,0,0,0-.28,1.94c.13.92.25,1.83.38,2.75a9.23,9.23,0,0,0,1.71,3.06Zm-13.24-7.53a17.52,17.52,0,0,0,2.08,2.91,32.51,32.51,0,0,0,2.45,2.53c.87.8,1.8,1.53,2.74,2.27s1.87,1.46,2.85,2.15a19.48,19.48,0,0,1-1.51-4.77,12.4,12.4,0,0,1-.58-3.36,49.57,49.57,0,0,0-1.34-7.76,9.61,9.61,0,0,0-3.9-5.75c-1.76,5.2.36,10.25,2.92,15.07,0,.07-.07.11-.12.06a30.07,30.07,0,0,1-5-6.65,13.89,13.89,0,0,1-1.4-3.8,10,10,0,0,1,0-4,8.58,8.58,0,0,0-1.27,3.24c-.51,2.73.67,5.48,2,7.82Zm-4.87-2a24.23,24.23,0,0,1-1.07-5.91c-.16-2-.13-4.17-.25-6.17-.06-1-.14-2-.29-2.92a15.81,15.81,0,0,0-.6-2.71,9,9,0,0,0-3-4.37,13.36,13.36,0,0,0-.81,7.6,23.79,23.79,0,0,0,.93,3.81c.42,1.26.91,2.51,1.42,3.76,0,.08-.08.11-.12.06-.79-1-1.61-2.13-2.37-3.29a24.59,24.59,0,0,1-1.94-3.7,11.27,11.27,0,0,1-.69-7.79,8.44,8.44,0,0,0-1.52,3.11,8.89,8.89,0,0,0-.05,4,18.54,18.54,0,0,0,1.36,3.85c2,4.34,5.52,7.44,9,10.63ZM98.74,212.43a30.4,30.4,0,0,0,2,2.8c1.37,1.82,3,3.46,4.54,5.17a24,24,0,0,1-.57-5.91c0-2.05.19-4.13.22-6.13a21.39,21.39,0,0,0-.48-5.64,8.87,8.87,0,0,0-2.67-4.54,13.59,13.59,0,0,0-1.3,7.5,26.12,26.12,0,0,0,.66,3.84c.31,1.27.71,2.54,1.12,3.8,0,.08-.09.11-.13.05-2.87-4.21-5.85-9.94-4-15a8.77,8.77,0,0,0-1.7,3c-.86,2.58-.19,5.46.78,7.89a20.49,20.49,0,0,0,1.53,3.12ZM86.91,198.57a27.46,27.46,0,0,0,1.7,2.8c.31.44.62.89.94,1.32l.49.65.25.33.36.44,2.16,2.63a16.32,16.32,0,0,1-.28-2.87c0-.49,0-1,0-1.49l0-.38v0h0c0-.05.07.08-.08-.1h0v-.12l0-.18.06-.75c.19-2,.49-4,.64-6a20.67,20.67,0,0,0-.19-5.61,8.57,8.57,0,0,0-2.45-4.66A13.78,13.78,0,0,0,88.94,192a27.09,27.09,0,0,0,.45,3.82c.24,1.26.54,2.52.84,3.76,0,.08-.09.1-.12.05-2.46-4.13-5.27-10.12-3.15-15a8.27,8.27,0,0,0-1.82,2.91c-1,2.54-.4,5.44.44,8,.19.58.39,1.1.61,1.61s.47,1,.72,1.49Zm-9.55-11.43c.6,1,1.23,1.87,1.88,2.79l2.07,2.74c-.6-3.75.43-8,.89-11.9s.45-7.61-2.16-10.35c-2.86,4.59-2.1,9.89-1,15,0,.09-.1.1-.13,0-2.4-4.4-4.79-10.33-2.49-15.1a8.45,8.45,0,0,0-2,2.81c-1.08,2.47-.66,5.35,0,7.86A23.1,23.1,0,0,0,77.36,187.14Zm-10.59-14.7c.55,1,1.14,1.92,1.75,2.86s1.26,1.85,1.89,2.78c-.38-3.7.84-7.89,1.47-11.78s.79-7.55-1.7-10.4c-3.05,4.44-2.54,9.76-1.64,14.88,0,.08-.1.09-.13,0-.54-1.13-1.09-2.34-1.57-3.6a24,24,0,0,1-1.1-3.92,11.38,11.38,0,0,1,.87-7.63,8.27,8.27,0,0,0-2.08,2.72c-1.19,2.41-.9,5.3-.32,7.82a22.68,22.68,0,0,0,2.56,6.24Zm-9.9-15.11c1,2,2.17,3.88,3.38,5.78a16.83,16.83,0,0,1,.1-2.84c.12-1,.3-2,.51-2.94.42-2,1-4,1.36-5.88.2-1,.37-1.91.47-2.83a15.51,15.51,0,0,0,.1-2.72A8.38,8.38,0,0,0,61,141a13.56,13.56,0,0,0-2.61,7,23.31,23.31,0,0,0-.07,3.83c.08,1.28.22,2.57.38,3.86,0,.09-.1.09-.13,0-.49-1.15-1-2.38-1.4-3.66a24.26,24.26,0,0,1-.93-3.94,11.24,11.24,0,0,1,1.21-7.58,8.59,8.59,0,0,0-2.2,2.63c-1.29,2.35-1.12,5.23-.66,7.77a22.86,22.86,0,0,0,2.27,6.32Zm-6.09-9.57a21.86,21.86,0,0,1,.87-5.74c.51-1.94,1.14-3.89,1.62-5.79a21.92,21.92,0,0,0,.81-5.52,8.39,8.39,0,0,0-1.58-4.93,13.53,13.53,0,0,0-2.9,6.9,25.71,25.71,0,0,0-.25,3.82c0,1.28.11,2.57.21,3.86,0,.08-.1.09-.13,0-.43-1.16-.88-2.41-1.23-3.7a25.49,25.49,0,0,1-.75-4A11.24,11.24,0,0,1,49,125.22a8.64,8.64,0,0,0-2.3,2.52c-1.4,2.29-1.35,5.16-1,7.71a18.87,18.87,0,0,0,.75,3.31,29.22,29.22,0,0,0,1.23,3.09C48.6,143.86,49.66,145.82,50.78,147.76ZM42,132.06c.13-3.7,1.86-7.64,3-11.37s1.78-7.32-.31-10.43A13.54,13.54,0,0,0,41.5,117a25.38,25.38,0,0,0-.4,3.79c-.05,1.28,0,2.57,0,3.86,0,.08-.11.08-.13,0-.41-1.23-.77-2.48-1.06-3.74a24.31,24.31,0,0,1-.57-4,11.06,11.06,0,0,1,1.85-7.39A8.38,8.38,0,0,0,38.81,112c-1.51,2.22-1.57,5.08-1.33,7.64a20.83,20.83,0,0,0,.6,3.32,31.31,31.31,0,0,0,1.09,3.13c.85,2,1.83,4,2.85,6ZM30.46,106.78a26.71,26.71,0,0,0,.95,3.16c.75,2.07,1.65,4.09,2.57,6.11.3-3.68,2.18-7.53,3.46-11.19s2.09-7.22.15-10.41A13.39,13.39,0,0,0,34.12,101a33.46,33.46,0,0,0-.7,7.6c0,.08-.11.07-.13,0a30.16,30.16,0,0,1-1.3-7.77A14,14,0,0,1,32.44,97a9.59,9.59,0,0,1,1.72-3.42,8.45,8.45,0,0,0-2.5,2.3c-1.61,2.15-1.79,5-1.66,7.54a22,22,0,0,0,.46,3.34ZM25.11,86.31a17.4,17.4,0,0,0,.54,4.06c.48,1,1,1.9,1.5,2.79.32.59.66,1.21,1,1.84.72-2.69,2.18-5.4,3.19-8s1.52-5.18.19-7.58c-3.11,2.92-3.6,7.09-3.85,11.2,0,.06-.09.05-.1,0a25.27,25.27,0,0,1-.75-6.25,8.94,8.94,0,0,1,2-5.74,6.87,6.87,0,0,0-2.08,1.75C25.34,82,25.09,84.27,25.11,86.31Zm-2.89-7a13.47,13.47,0,0,1,1.24-.84,10,10,0,0,1,5.12-4.21,7.6,7.6,0,0,1,0-3.73,1.08,1.08,0,0,1-.08-.19l-.93.3A7.05,7.05,0,0,0,24,73.89,17.29,17.29,0,0,0,22.22,79.32Zm34.19,28.15c-1-.75-2-1.49-3-2.19a25.92,25.92,0,0,0-3.1-1.89,13.84,13.84,0,0,0-7.16-1.63,8.12,8.12,0,0,0,3,4.15,17,17,0,0,0,4.84,2.4c3.63,1.24,7.64,2,10.64,3.83-1-1.82-1.89-3.7-3-5.45a25,25,0,0,0-1.75-2.55,18.23,18.23,0,0,0-2.11-2.36c-1.74-1.66-4-3.27-6.56-3.49a8.54,8.54,0,0,0-3.33.34,11.32,11.32,0,0,1,6.72,3.06,22.05,22.05,0,0,1,2.62,2.76c.8,1,1.57,2,2.24,2.92C56.53,107.42,56.47,107.52,56.41,107.47ZM9.22,14.41Q8.11,11.32,7,8.22c-.36-1-.73-2.09-1.09-3.14-.12-.35-.19-.94-.54-1.1a1.26,1.26,0,0,0-.81.09,2.12,2.12,0,0,0-.48.23c-.5.35-.39.38-.25.9.28,1,.7,2,1.05,3,.72,2.06,1.44,4.13,2.18,6.2,4.16,11.75,8.53,23.47,12,32.22,1.69,4.39,3.18,8,4.18,10.59.51,1.28.92,2.28,1.2,3s.43,1,.43,1c.42,1,.85,2.07,1.21,3.13a18.28,18.28,0,0,1,.8,3.18,3.94,3.94,0,0,1,3.28-.39,1.41,1.41,0,0,1,.24.13,2.73,2.73,0,0,1,.25-.2,14.85,14.85,0,0,1-3.32-5.16l-1.67-4.07c-1-2.59-2.49-6.3-4.25-10.74C17.91,38.23,13.45,26.34,9.22,14.41ZM42.48,76.69c-.33-.6-.69-1.19-1.08-1.76a15.73,15.73,0,0,0-1.28-1.67,9,9,0,0,0-5-3.22,7,7,0,0,0-2.7.07A8.82,8.82,0,0,1,37.59,73a17.63,17.63,0,0,1,1.92,2.39c.58.84,1.12,1.68,1.59,2.49,0,0,0,.12-.07.08-.72-.66-1.45-1.32-2.21-1.93a19.14,19.14,0,0,0-2.31-1.71A11,11,0,0,0,31,72.51a8.55,8.55,0,0,0,.26,1.22,8.15,8.15,0,0,0,3.66,3.66,48,48,0,0,0,5.36,2.33,13.36,13.36,0,0,1,3.91.71A40.58,40.58,0,0,0,42.48,76.69Zm9.18,14.8A27.34,27.34,0,0,0,50,88.87a18.6,18.6,0,0,0-2-2.44,15.83,15.83,0,0,0-3.1-2.55c-1.09-.41-2.21-.8-3.32-1.2a8.6,8.6,0,0,0-3.31.2A9.38,9.38,0,0,1,41.85,84a14,14,0,0,1,3,2.22,34.38,34.38,0,0,1,4.6,5.88s0,.14-.09.09a42.1,42.1,0,0,0-5.87-4.33,13.78,13.78,0,0,0-7-1.92c.94,3.59,4,5.46,7.49,6.86s7.54,2.35,10.43,4.26C53.47,95.19,52.66,93.29,51.66,91.49Zm14.67,30.12a24.7,24.7,0,0,0-4.08-4.76c-1.82-1.58-4.1-3.1-6.73-3.2a8.5,8.5,0,0,0-3.32.48,11.33,11.33,0,0,1,6.87,2.77,23.73,23.73,0,0,1,2.74,2.66c.86.94,1.66,1.9,2.38,2.83,0,0,0,.14-.08.1-1-.71-2-1.41-3.08-2.06a26,26,0,0,0-3.18-1.77,13.79,13.79,0,0,0-7.23-1.32,8.09,8.09,0,0,0,3.14,4,13.75,13.75,0,0,0,2.32,1.27,24.29,24.29,0,0,0,2.64.93c1.84.55,3.78,1,5.64,1.47a25.13,25.13,0,0,1,5.18,1.9c-1.1-1.78-2.05-3.62-3.21-5.33Zm8.33,14.61a24.3,24.3,0,0,0-4.3-4.59c-1.88-1.51-4.23-2.94-6.88-2.92a8.68,8.68,0,0,0-3.3.63,11.26,11.26,0,0,1,7,2.49,23.16,23.16,0,0,1,2.88,2.54c.9.9,1.74,1.84,2.5,2.73,0,.05,0,.15-.08.11A41.71,41.71,0,0,0,66,133.64a13.8,13.8,0,0,0-7.29-1,8.08,8.08,0,0,0,3.32,3.91,13.74,13.74,0,0,0,2.37,1.17,25.39,25.39,0,0,0,2.7.81c1.86.47,3.82.81,5.7,1.24.94.2,1.86.44,2.74.71a16.07,16.07,0,0,1,2.53,1C76.94,139.69,75.89,137.9,74.66,136.22ZM85.5,153c-.6-.86-1.21-1.7-1.86-2.51a25.45,25.45,0,0,0-2.08-2.33c-.37-.37-.76-.72-1.17-1.07s-.81-.68-1.25-1c-2-1.43-4.37-2.77-7-2.64a8.73,8.73,0,0,0-3.29.79A11.23,11.23,0,0,1,76,146.42a24.9,24.9,0,0,1,3,2.42c1,.86,1.83,1.77,2.62,2.63.05.05,0,.15-.07.11-4.29-2.45-8.67-5-14-4,1.56,3.43,4.87,4.78,8.66,5.54s7.88,1.05,11.12,2.42L85.51,153Zm9.74,13.83c-.63-.83-1.28-1.65-2-2.43a23.34,23.34,0,0,0-4.71-4.22c-2-1.35-4.48-2.57-7.13-2.33a8.8,8.8,0,0,0-3.26.93c5.24-.62,9.68,3.39,13.07,6.68,0,0,0,.15-.07.11-1.09-.58-2.2-1.14-3.33-1.66-.56-.25-1.13-.5-1.71-.72s-1.14-.44-1.72-.62a13.82,13.82,0,0,0-7.38-.37c1.7,3.37,5.1,4.57,8.92,5.16s7.93.7,11.24,1.94Zm10.3,13.31c-.71-.81-1.34-1.57-2.06-2.32a22.35,22.35,0,0,0-4.84-3.93c-2.08-1.26-4.61-2.38-7.24-2A8.77,8.77,0,0,0,88.18,173a11.23,11.23,0,0,1,7.31,1.55,33.92,33.92,0,0,1,6,4.49c0,.05,0,.15-.06.12a41,41,0,0,0-6.86-2.64,13.77,13.77,0,0,0-7.4,0A8.27,8.27,0,0,0,91,179.91a17.77,17.77,0,0,0,5.32,1.28c1.91.2,3.89.27,5.8.42a22.34,22.34,0,0,1,5.55,1c-.72-.82-1.43-1.64-2.13-2.47Zm12.12,14.15-1.07-1.15c-.71-.75-1.44-1.5-2.19-2.21a30.83,30.83,0,0,0-2.38-2c-.41-.31-.84-.62-1.29-.91l-.69-.42-.35-.2-.18-.1-.05,0h0a1.18,1.18,0,1,1,.08.09h0l-.09,0c-2.19-1.23-4.81-2.3-7.43-1.83a8.53,8.53,0,0,0-3.18,1.23,11.13,11.13,0,0,1,7.45,1.3c.29.15.58.3.86.46l.43.26.21.13h0a.89.89,0,0,0,1.26.06.89.89,0,1,0-1.32-.14l0,0,.06,0,.1.06c.56.33,1.1.69,1.63,1,1,.74,2,1.53,2.94,2.28.05,0,0,.15-.06.12-1.14-.47-2.29-.95-3.46-1.36-.58-.21-1.17-.4-1.76-.57l-.9-.24-.11,0h0c.11.12,0,0,0,.06h-.08l-.23-.06-.45-.11a13.39,13.39,0,0,0-7.45.23,8.3,8.3,0,0,0,4,3.32,18.28,18.28,0,0,0,5.37,1.05c1.92.14,3.94.11,5.87.17a25.54,25.54,0,0,1,5.51.66Zm3,5.53c-2.2-1-4.81-1.89-7.4-1.25A8.7,8.7,0,0,0,110.1,200a11.4,11.4,0,0,1,7.43.82,26.85,26.85,0,0,1,3.41,1.77c1.09.67,2.1,1.4,3.06,2.07,0,0,0,.14,0,.12a40.23,40.23,0,0,0-7.12-1.9,14,14,0,0,0-7.39.7,8,8,0,0,0,4.17,3.08,17.9,17.9,0,0,0,5.44.73c1.92,0,3.93-.16,5.86-.23,1,0,1.92,0,2.84,0a17.11,17.11,0,0,1,2.67.25c-3.06-2.74-5.86-5.73-9.81-7.52Zm19.81,16.47c-.8-.63-1.6-1.24-2.43-1.82a24.3,24.3,0,0,0-5.43-2.92,19.46,19.46,0,0,0-3.6-.94,8.79,8.79,0,0,0-6.84,1.9,11.33,11.33,0,0,1,7.45.25,22.1,22.1,0,0,1,3.51,1.48c.56.28,1.11.59,1.64.89s1.05.58,1.55.88c.06,0,0,.14,0,.12-4.74-1.09-9.64-2.32-14.52,0,2.37,3,6,3.35,9.85,3.05s7.86-1.32,11.27-1.07Zm9.33,10.39a25.32,25.32,0,0,0-2.32-2,19.88,19.88,0,0,0-2.58-1.71c-2.09-1.09-4.51-2.15-7.09-1.68a9,9,0,0,0-3.15,1.18,9.9,9.9,0,0,1,3.72,0,13.92,13.92,0,0,1,3.47,1.28,35.35,35.35,0,0,1,6.1,4.2s0,.14-.05.12c-4.51-1.73-9-3.68-14.18-2.08a8.07,8.07,0,0,0,3.91,3.43,17.39,17.39,0,0,0,5.33,1.09c1.92.09,3.89,0,5.78,0a23.73,23.73,0,0,1,5.39.41c-1.45-1.49-2.88-2.92-4.34-4.36Zm17.12,20.1c-.38-.52-.77-1-1.16-1.52s-.75-1-1.13-1.52c-.72-1-1.49-1.89-2.3-2.78a23.41,23.41,0,0,0-2.59-2.49c-1.92-1.47-4.12-3-6.7-3a8.27,8.27,0,0,0-3.23.59l.45,0-.35.17,1.42,1.06c.47.36,1,.68,1.45,1l2.9,2.06c2.48,1.61,4.68,3.71,7.29,5.15a.1.1,0,0,1,0,.15.11.11,0,0,1-.13,0c-.63-.24-1.27-.44-1.92-.64l-1-.28-1-.31c-1.29-.41-2.6-.83-3.86-1.37-1.07-.47-2.11-1-3.17-1.5s-2.12-1-3.13-1.57c.55,1.06,1.13,2.1,1.68,3.18s1.11,2.19,1.66,3.29a16.45,16.45,0,0,0,2.94,1.15,19.13,19.13,0,0,0,3.75.73,28.8,28.8,0,0,0,3.83,0c.64,0,1.26-.08,1.89-.14s1.24-.18,1.86-.29c.43-.08.87-.14,1.3-.21C167.42,247.49,167.14,247.15,166.87,246.79Z"/><path id="Path_54893-2" data-name="Path 54893" class="cls-2" d="M268.44,138.68a6.84,6.84,0,0,0,1,.76l-.77.87c-.24.27-.46.57-.69.84a28,28,0,0,1-2.95,2.92,13.5,13.5,0,0,1-1.69,1.23c-.6.39-1.21.76-1.85,1.1a27.34,27.34,0,0,1-2.61,1.26,25.72,25.72,0,0,1-2.69.9c.57.32,1.15.64,1.73.93a.61.61,0,0,1,.26.83.57.57,0,0,1-.19.22l-.1.09c-5.07,3.41-13,4.59-19.2,3.27l.4.43a.59.59,0,0,1-.33,1l-.13.05a23.07,23.07,0,0,1-4.61.5,33.22,33.22,0,0,1-4.88-.39,29,29,0,0,1-9.09-3.12.75.75,0,0,1-.37.2l-.13,0a25.69,25.69,0,0,1-9.27-.83,36.59,36.59,0,0,1-4.54-1.62,27.8,27.8,0,0,1-4.06-2.26.66.66,0,0,1-.37.17l-.14,0A28.38,28.38,0,0,1,184,142.16a.77.77,0,0,1-.38.14l-.14,0a22.77,22.77,0,0,1-4.34-.59c-.73-.17-1.48-.38-2.21-.61l-.14,0-.23-.09h-.07l-.26-.1-.52-.19-1-.41a31.86,31.86,0,0,1-4-2c-.64-.39-1.25-.79-1.85-1.23s-1.22-.92-1.78-1.41a.69.69,0,0,1-.39.12.29.29,0,0,1-.13,0,24.06,24.06,0,0,1-4.36-.8c-.73-.21-1.48-.44-2.2-.71s-1.43-.58-2.13-.91a28.88,28.88,0,0,1-7.57-5.08.64.64,0,0,1-.38.1h-.13a24.65,24.65,0,0,1-8.44-2.76,28.24,28.24,0,0,1-7.31-5.39.66.66,0,0,1-.39.09h-.13a23.07,23.07,0,0,1-4.18-1.14,26.33,26.33,0,0,1-4.11-2,33.11,33.11,0,0,1-3.8-2.6,27.07,27.07,0,0,1-3.24-3.09.65.65,0,0,1-.39.06.28.28,0,0,1-.13,0,23.68,23.68,0,0,1-4.11-1.31,28.48,28.48,0,0,1-4-2.15,32.91,32.91,0,0,1-3.68-2.75,27.67,27.67,0,0,1-3.08-3.23.66.66,0,0,1-.39.06h-.13a23.41,23.41,0,0,1-4-1.49,28.93,28.93,0,0,1-3.89-2.32,29.76,29.76,0,0,1-3.54-2.89,29.17,29.17,0,0,1-2.93-3.35.58.58,0,0,1-.39,0h-.13c-5.91-1.76-12-6.91-15-12.29a10.55,10.55,0,0,1-1-2.49c-.11-.42-2.38-1.18-2.75-1.33a18.51,18.51,0,0,1-3.43-1.83,19.45,19.45,0,0,1-4.29-3.91,11.32,11.32,0,0,1-2.56-5.13c-.1.23-.2.46-.29.69a.82.82,0,0,1-1.09.35.81.81,0,0,1-.32-.29,21.64,21.64,0,0,1-2.06-4.7,16.07,16.07,0,0,1-.52-2.48A15.18,15.18,0,0,1,54,56.1a12,12,0,0,1,.3-1.89l-.19-.2c-.67-.88-1.32-1.75-2.08-2.57a37.16,37.16,0,0,0-4.24-3.68s-1.22-1-3.34-2.72-5.17-4.19-8.76-7.21c-7.2-6-16.67-14.07-26-22.3L5,11.3,2.58,9.15A4.24,4.24,0,0,1,1.4,7.87a1.31,1.31,0,0,1,.09-1.2L5.61,1.22l.12-.05c.83-.3,1.24.28,1.77.75L8.71,3Q12.36,6.22,16,9.47l.81.71c9.07,8,18.28,15.84,25.3,21.63,3.5,2.93,6.47,5.3,8.52,7l2.41,2,.85.68c2.67,2.13,5.49,4.31,9.07,4.24a9.34,9.34,0,0,1,1.55-.5,12.59,12.59,0,0,1,9.13,1.56,18.58,18.58,0,0,1,6.72,6.49,11.26,11.26,0,0,1,1.82.27A23.18,23.18,0,0,1,86.43,55q1,.49,2.07,1.08c.68.39,1.36.79,2,1.23a26.39,26.39,0,0,1,3.65,2.94,22.56,22.56,0,0,1,2.94,3.38.54.54,0,0,1,.05.11.64.64,0,0,1,.08.38,24.66,24.66,0,0,1,3.83,1.48,27.78,27.78,0,0,1,3.69,2.06,25.69,25.69,0,0,1,3.3,2.58,20.62,20.62,0,0,1,2.74,2.94l.06.11a.69.69,0,0,1,.1.37,27.12,27.12,0,0,1,3.9,1.32,28.54,28.54,0,0,1,3.79,1.9,29.12,29.12,0,0,1,3.42,2.44,21.25,21.25,0,0,1,2.86,2.83.24.24,0,0,1,.06.11.58.58,0,0,1,.12.36,29.72,29.72,0,0,1,7.84,2.9,25.44,25.44,0,0,1,6.53,5,.41.41,0,0,1,.07.11.66.66,0,0,1,.13.36,29.41,29.41,0,0,1,8,2.56,25.43,25.43,0,0,1,6.77,4.72l.07.1a.7.7,0,0,1,.14.36,28,28,0,0,1,15.1,6.64.86.86,0,0,1,.07.1.6.6,0,0,1,.16.36c.67.05,1.36.13,2,.24s1.36.2,2,.35a26.47,26.47,0,0,1,4,1.21c.66.25,1.28.53,1.94.83s1.33.64,2,1a22.48,22.48,0,0,1,3.5,2.38.39.39,0,0,1,.08.1.64.64,0,0,1,.19.35q.53,0,1.05.06l.54,0h.05c.13,0-.18-.07-.13-.06h.19l.26,0c.69.07,1.39.16,2.08.28a32.44,32.44,0,0,1,4.13,1,27,27,0,0,1,3.89,1.6,21.53,21.53,0,0,1,3.43,2.12.39.39,0,0,1,.08.1.56.56,0,0,1,.19.33A27.87,27.87,0,0,1,217.14,122l.09.09a.64.64,0,0,1,.21.32,28.39,28.39,0,0,1,8.13.21q1,.17,2,.42c.66.16,1.3.33,1.94.53a21.3,21.3,0,0,1,3.58,1.53l.1.07a.67.67,0,0,1,.19.91l-.11.13-.13.1a29.74,29.74,0,0,1,16.15,5l.09.09a.67.67,0,0,1,.12.93l-.08.08a10.61,10.61,0,0,1,3.64-.15,28,28,0,0,1,7.18,2q.9.38,1.8.81c.6.28,1.18.61,1.83.9a28.43,28.43,0,0,1,3.64,2.07A9.8,9.8,0,0,1,268.44,138.68Zm-31.2,11.66a18.94,18.94,0,0,0,7,1.38,25.7,25.7,0,0,0,3.51-.16c1.17-.15,2.32-.35,3.47-.57l1.72-.33,1.72-.41c-.47-.12-.93-.27-1.4-.44s-.92-.39-1.37-.61c-.91-.45-1.81-1-2.69-1.5-1.76-1-3.45-2.33-5.12-3.43-.84-.56-1.67-1.07-2.49-1.51a14.53,14.53,0,0,0-2.5-1.16,9.42,9.42,0,0,0-2.56-.53,8.75,8.75,0,0,0-2.7.23,11.94,11.94,0,0,0,2.39,3.12,15.92,15.92,0,0,0,3.14,2.19c.57.3,1.16.59,1.77.85s1.23.47,1.87.68c1.27.41,2.58.76,3.89,1.1.09,0,0,.13,0,.13-5.18.2-11.87-.41-14.94-4.93a8,8,0,0,0,.7,1.83l1.67,2.22a9.16,9.16,0,0,0,3,1.85ZM222,150.19a18,18,0,0,0,3.23,1.53,33.65,33.65,0,0,0,3.38,1c1.15.28,2.32.46,3.49.65s2.35.37,3.54.5a19.45,19.45,0,0,1-3.64-3.44,12.15,12.15,0,0,1-2.13-2.66,50.27,50.27,0,0,0-4.95-6.13,9.63,9.63,0,0,0-6.2-3.12c1,5.39,5.3,8.78,9.87,11.74.07.05,0,.14-.07.12a30.2,30.2,0,0,1-7.59-3.38,13.93,13.93,0,0,1-3.07-2.66,9.71,9.71,0,0,1-1.89-3.47,8.45,8.45,0,0,0,.47,3.45c.87,2.63,3.24,4.47,5.57,5.85Zm-5.21.63a23.91,23.91,0,0,1-3.81-4.64c-1.13-1.71-2.14-3.58-3.22-5.27-.54-.85-1.08-1.66-1.66-2.41a16.58,16.58,0,0,0-1.84-2.08,9,9,0,0,0-4.72-2.38,13.42,13.42,0,0,0,3,7A22.78,22.78,0,0,0,207.2,144c1,.9,2,1.75,3.06,2.6.07,0,0,.13-.07.11-1.19-.51-2.44-1.08-3.67-1.73a24.63,24.63,0,0,1-3.49-2.28,11.29,11.29,0,0,1-4.39-6.48,8.42,8.42,0,0,0,.18,3.46,9,9,0,0,0,1.92,3.55,18.4,18.4,0,0,0,3.07,2.71c3.88,2.8,8.43,3.82,13,4.93Zm-27.72-8.54a32.33,32.33,0,0,0,3.07,1.51c2.09.91,4.3,1.57,6.48,2.3a24.1,24.1,0,0,1-3.37-4.88c-1-1.81-1.84-3.71-2.78-5.47a22,22,0,0,0-3.16-4.7,8.87,8.87,0,0,0-4.54-2.67,13.51,13.51,0,0,0,2.51,7.19,27.2,27.2,0,0,0,2.43,3c.9,1,1.86,1.87,2.83,2.78.06.05,0,.13-.08.1-4.56-2.29-9.95-5.85-10.72-11.15a8.53,8.53,0,0,0,0,3.45c.5,2.68,2.48,4.86,4.51,6.52a21.34,21.34,0,0,0,2.85,2ZM172,135.92a28.23,28.23,0,0,0,2.83,1.61c.49.25,1,.48,1.48.7l.74.33.37.17.53.21,3.16,1.25a18.19,18.19,0,0,1-1.64-2.37c-.25-.42-.48-.86-.71-1.31l-.17-.33,0-.05h0l-.11,0h0v0l0-.09-.08-.17-.3-.68c-.81-1.84-1.54-3.76-2.36-5.55a20.4,20.4,0,0,0-2.9-4.82,8.54,8.54,0,0,0-4.4-2.88,13.82,13.82,0,0,0,2.2,7.3,26.63,26.63,0,0,0,2.26,3.12c.81,1,1.69,1.94,2.56,2.88.06.06,0,.13-.09.09-4.15-2.41-9.52-6.28-10-11.57a8.28,8.28,0,0,0-.18,3.43c.39,2.69,2.31,4.95,4.26,6.74.44.41.88.77,1.31,1.11s.9.65,1.36.95Zm-13.91-5.36c1,.54,2,1,3,1.53l3.14,1.39c-2.35-3-3.49-7.18-5-10.84s-3.31-6.86-6.92-8c-.27,5.41,3,9.67,6.42,13.58.06.06,0,.13-.09.09-4.24-2.68-9.21-6.7-9.51-12a8.37,8.37,0,0,0-.34,3.41c.25,2.69,2,5,3.84,6.86A23.42,23.42,0,0,0,158.11,130.56Zm-16.4-7.7c.95.58,1.93,1.12,2.92,1.65s2,1,3,1.51c-2.14-3-3.1-7.3-4.45-11s-3-7-6.53-8.27c-.51,5.36,2.52,9.76,5.79,13.8.05.07,0,.13-.1.09-1-.73-2.08-1.52-3.12-2.39a23.66,23.66,0,0,1-2.86-2.89,11.3,11.3,0,0,1-3-7.09,8.35,8.35,0,0,0-.5,3.39c.13,2.69,1.79,5.07,3.53,7a22.5,22.5,0,0,0,5.26,4.21Zm-16-8.39c1.84,1.23,3.79,2.33,5.76,3.4a17.21,17.21,0,0,1-1.29-2.53c-.37-.91-.69-1.86-1-2.82-.59-1.93-1.08-3.92-1.67-5.8-.29-.93-.61-1.84-1-2.7a15.83,15.83,0,0,0-1.23-2.43,8.46,8.46,0,0,0-3.94-3.39,13.65,13.65,0,0,0,1.15,7.43,25.39,25.39,0,0,0,1.79,3.38c.7,1.08,1.45,2.15,2.22,3.2,0,.06,0,.12-.11.08-1-.77-2-1.6-3-2.51a24.89,24.89,0,0,1-2.72-3,11.21,11.21,0,0,1-2.63-7.21,8.41,8.41,0,0,0-.64,3.36c0,2.68,1.56,5.12,3.2,7.12a23.15,23.15,0,0,0,5,4.42Zm-10-5.41a22.14,22.14,0,0,1-2-5.44c-.5-2-.9-4-1.4-5.85a21.43,21.43,0,0,0-2-5.21A8.38,8.38,0,0,0,106.57,89a13.56,13.56,0,0,0,.82,7.45A26.53,26.53,0,0,0,109,99.91c.64,1.11,1.34,2.2,2.06,3.27,0,.07,0,.13-.1.08-.95-.8-1.94-1.67-2.88-2.63a24.61,24.61,0,0,1-2.58-3.11,11.16,11.16,0,0,1-2.3-7.29,8.3,8.3,0,0,0-.79,3.32c-.12,2.68,1.32,5.17,2.87,7.23a20,20,0,0,0,2.27,2.52,30.19,30.19,0,0,0,2.57,2.1C112,106.71,113.82,107.91,115.74,109.06Zm-15.28-9.47C98.78,96.3,98.38,92,97.54,88.2s-2-7.26-5.34-9a13.47,13.47,0,0,0,.49,7.44,25.85,25.85,0,0,0,1.49,3.51c.58,1.14,1.24,2.25,1.91,3.36,0,.07-.06.12-.11.07-1-.87-1.88-1.79-2.75-2.75a26.1,26.1,0,0,1-2.44-3.21,11.12,11.12,0,0,1-2-7.35,8.48,8.48,0,0,0-.93,3.27c-.24,2.68,1.1,5.21,2.55,7.32a21.46,21.46,0,0,0,2.14,2.62,30.31,30.31,0,0,0,2.47,2.2c1.73,1.37,3.55,2.64,5.41,3.87ZM78.08,83.11a25.59,25.59,0,0,0,2.36,2.3c1.66,1.45,3.43,2.78,5.21,4.1-1.52-3.37-1.74-7.64-2.41-11.47s-1.68-7.32-4.93-9.16a13.41,13.41,0,0,0,.18,7.43,33,33,0,0,0,3.08,7,.07.07,0,0,1-.11.07,30.09,30.09,0,0,1-4.91-6.16,14.12,14.12,0,0,1-1.49-3.59,9.5,9.5,0,0,1-.15-3.83A8.57,8.57,0,0,0,73.84,73c-.37,2.68.86,5.24,2.22,7.41a20.32,20.32,0,0,0,2,2.69ZM63.45,67.82a18.27,18.27,0,0,0,2.45,3.29c.89.61,1.81,1.16,2.66,1.71.57.36,1.17.73,1.74,1.14-.68-2.7-.72-5.78-1.12-8.58S68,60.1,65.66,58.65c-1.31,4.07.29,7.95,2.08,11.66,0,.06-.06.09-.1,0A25.58,25.58,0,0,1,64,65.27a8.88,8.88,0,0,1-1.06-6,6.7,6.7,0,0,0-1,2.55C61.56,63.94,62.45,66,63.45,67.82Zm-5.92-4.7a13,13,0,0,1,.68-1.34,10,10,0,0,1,2.43-6.18,7.44,7.44,0,0,1-1.82-3.25l-.15-.13-.68.71a7.12,7.12,0,0,0-1.56,4.58A17.69,17.69,0,0,0,57.53,63.12Zm43.56,8c-1.22-.19-2.44-.35-3.66-.47a24.44,24.44,0,0,0-3.63-.15,13.81,13.81,0,0,0-7,2.06,8.12,8.12,0,0,0,4.61,2.18,17.19,17.19,0,0,0,5.4-.25c3.77-.69,7.67-1.93,11.15-1.82-1.76-1.11-3.44-2.32-5.24-3.33A28.57,28.57,0,0,0,99.91,68a20,20,0,0,0-3-1c-2.32-.6-5-.93-7.43.14A8.44,8.44,0,0,0,86.75,69a11.29,11.29,0,0,1,7.36-.59,23.11,23.11,0,0,1,3.63,1.13c1.17.47,2.33,1,3.38,1.47C101.17,71,101.16,71.12,101.09,71.11ZM14.63,12.7,9.71,8.35,7.23,6.14c-.28-.25-.62-.74-1-.7a1.19,1.19,0,0,0-.67.47,1.84,1.84,0,0,0-.3.43c-.27.55-.16.52.22.91C6.21,8,7.06,8.67,7.85,9.37q2.45,2.19,4.92,4.36C22.12,22,31.63,30.1,38.87,36.09c3.61,3,6.68,5.47,8.8,7.22l2.48,2L51,46c.87.71,1.75,1.4,2.58,2.15a18.07,18.07,0,0,1,2.24,2.39,4,4,0,0,1,2.68-1.93,1.22,1.22,0,0,1,.27,0c0-.1.08-.2.13-.3a15,15,0,0,1-5.42-2.9l-3.43-2.74-8.94-7.32C33.8,29.3,24.13,21.07,14.63,12.7ZM74,51c-.58-.37-1.18-.71-1.79-1a17.32,17.32,0,0,0-1.93-.84,9,9,0,0,0-5.95-.37A6.84,6.84,0,0,0,62,50.11a8.87,8.87,0,0,1,5.93,0,17.85,17.85,0,0,1,2.83,1.15c.92.45,1.8.93,2.61,1.41,0,0,0,.11,0,.1-.94-.23-1.9-.45-2.86-.62a21.31,21.31,0,0,0-2.86-.37,11.09,11.09,0,0,0-5.69,1.11,9.41,9.41,0,0,0,.83,1,8.17,8.17,0,0,0,5,1.42,47,47,0,0,0,5.81-.57,12.93,12.93,0,0,1,3.77-1.28A37.65,37.65,0,0,0,74,51Zm15.22,8.47A25.47,25.47,0,0,0,86.47,58a19.34,19.34,0,0,0-2.92-1.17,15.63,15.63,0,0,0-4-.72c-1.16.16-2.32.37-3.49.56a8.46,8.46,0,0,0-2.79,1.78A9.48,9.48,0,0,1,77,57.66a13.71,13.71,0,0,1,3.72.48A33.79,33.79,0,0,1,87.56,61a.06.06,0,0,1,0,.12,42,42,0,0,0-7.23-.93A13.66,13.66,0,0,0,73.19,62c2.57,2.68,6.12,2.84,9.88,2.35S90.8,62.72,94.25,63C92.55,61.8,90.93,60.53,89.18,59.45Zm27.45,19.2a24.12,24.12,0,0,0-5.87-2.18c-2.36-.5-5.1-.72-7.45.47a8.64,8.64,0,0,0-2.66,2,11.3,11.3,0,0,1,7.35-.91,23.64,23.64,0,0,1,3.69,1c1.21.4,2.37.86,3.45,1.32.06,0,0,.13,0,.13-1.22-.13-2.46-.25-3.69-.31a24.7,24.7,0,0,0-3.65,0,13.8,13.8,0,0,0-7,2.36,8.17,8.17,0,0,0,4.71,2,13.7,13.7,0,0,0,2.64,0,26.3,26.3,0,0,0,2.77-.48c1.87-.41,3.77-1,5.64-1.45a25.06,25.06,0,0,1,5.45-.85c-1.82-1-3.56-2.17-5.4-3.1ZM131,87.37a24.14,24.14,0,0,0-6-1.92c-2.39-.4-5.13-.52-7.43.78A8.71,8.71,0,0,0,115,88.39a11.35,11.35,0,0,1,7.32-1.23,25.36,25.36,0,0,1,3.75.83c1.23.35,2.41.76,3.51,1.18.06,0,.06.13,0,.13a42,42,0,0,0-7.35,0A13.85,13.85,0,0,0,115.35,92a8.19,8.19,0,0,0,4.8,1.8,13.71,13.71,0,0,0,2.64-.13,26.1,26.1,0,0,0,2.76-.6c1.85-.49,3.73-1.15,5.58-1.69.92-.28,1.84-.52,2.74-.71a17.31,17.31,0,0,1,2.68-.39C134.69,89.3,132.9,88.24,131,87.37Zm17.64,9.41c-.94-.46-1.89-.9-2.85-1.29a25.1,25.1,0,0,0-3-1c-.5-.14-1-.26-1.54-.36s-1-.21-1.58-.27c-2.41-.3-5.16-.3-7.41,1.1a8.92,8.92,0,0,0-2.5,2.28,11.29,11.29,0,0,1,7.29-1.56,25.71,25.71,0,0,1,3.79.67c1.24.29,2.45.65,3.56,1,.07,0,.07.14,0,.14-4.94-.07-10-.14-14.12,3.29,3,2.24,6.58,1.81,10.26.63s7.39-2.9,10.89-3.28l-2.83-1.34Zm15.23,7.35c-1-.42-1.92-.81-2.9-1.17a23.23,23.23,0,0,0-6.16-1.39c-2.42-.2-5.17-.08-7.36,1.42a8.88,8.88,0,0,0-2.41,2.4c4.28-3.09,10.11-1.74,14.67-.52.07,0,.07.13,0,.14-1.24,0-2.48.06-3.72.16-.62,0-1.23.12-1.85.2s-1.2.18-1.8.3a13.77,13.77,0,0,0-6.63,3.26c3.13,2.12,6.67,1.51,10.3.18s7.28-3.25,10.77-3.77Zm15.47,6.63c-1-.37-1.94-.72-2.93-1a22.19,22.19,0,0,0-6.14-1.08c-2.43-.1-5.18.15-7.31,1.75a8.67,8.67,0,0,0-2.29,2.5,11.22,11.22,0,0,1,7.14-2.19,34.07,34.07,0,0,1,7.45,1c.06,0,.07.12,0,.13a40.66,40.66,0,0,0-7.28,1,13.84,13.84,0,0,0-6.49,3.55,8.23,8.23,0,0,0,5,1.18,17.24,17.24,0,0,0,5.27-1.47c1.77-.74,3.53-1.65,5.27-2.45a22.4,22.4,0,0,1,5.34-1.8l-3.06-1.13Zm17.47,6.48-1.49-.48c-1-.32-2-.62-3-.87s-2-.47-3.06-.63c-.52-.07-1.05-.13-1.58-.16l-.81,0h-.66a1.11,1.11,0,1,1,.12,0h-.15c-2.51,0-5.32.32-7.39,2a8.59,8.59,0,0,0-2.18,2.61,11.18,11.18,0,0,1,7.14-2.48c.33,0,.66,0,1,0h.76a.9.9,0,0,0,1.13-.56.89.89,0,1,0-1.22.52h.21c.65,0,1.29.07,1.93.13,1.28.14,2.52.35,3.69.56.06,0,.08.12,0,.13-1.23.15-2.46.29-3.68.5-.62.1-1.22.22-1.83.36-.3.07-.6.14-.89.23l-.11,0h0l.07,0h-.08l-.23.06-.45.13a13.6,13.6,0,0,0-6.4,3.81,8.22,8.22,0,0,0,5.12,1,18.44,18.44,0,0,0,5.2-1.7c1.74-.8,3.49-1.81,5.22-2.7a25.49,25.49,0,0,1,5.13-2.1Zm5.25,3.4c-2.41.19-5.11.69-7.07,2.5a8.76,8.76,0,0,0-2,2.72,11.39,11.39,0,0,1,6.89-2.89,25.9,25.9,0,0,1,3.84-.11c1.27,0,2.51.21,3.68.32.06,0,.08.12,0,.13a41.14,41.14,0,0,0-7.15,1.8,14,14,0,0,0-6.11,4.2,8.07,8.07,0,0,0,5.14.67,18,18,0,0,0,5.11-2c1.69-.93,3.36-2.06,5-3.06.83-.5,1.65-1,2.47-1.39a18,18,0,0,1,2.46-1.08c-4-.9-7.91-2.16-12.23-1.81Zm25.32,4.77c-1-.16-2-.31-3-.41a24.42,24.42,0,0,0-6.16.09,18.77,18.77,0,0,0-3.61.93,8.69,8.69,0,0,0-3.21,2.1,9.22,9.22,0,0,0-1.85,2.88,11.35,11.35,0,0,1,6.64-3.4,24,24,0,0,1,3.79-.42c.62,0,1.25,0,1.86,0h1.78c.07,0,.1.11,0,.13-4.67,1.35-9.56,2.66-12.7,7,3.52,1.47,6.91,0,10.09-2.12s6.22-5,9.34-6.41ZM240.6,130a25.36,25.36,0,0,0-3-.6,20.1,20.1,0,0,0-3.09-.24c-2.35.07-5,.31-7,2a9.08,9.08,0,0,0-2.18,2.56,10,10,0,0,1,3.27-1.77,14.17,14.17,0,0,1,3.65-.57,35.85,35.85,0,0,1,7.38.71c.06,0,.08.12,0,.13-4.78.68-9.7,1.18-13.4,5.07a8.14,8.14,0,0,0,5.08,1.1,17.55,17.55,0,0,0,5.19-1.64c1.72-.85,3.41-1.87,5.07-2.77a23.71,23.71,0,0,1,4.91-2.26c-2-.6-3.93-1.16-5.91-1.71Zm24.73,9.24c-.58-.27-1.17-.51-1.76-.76l-1.72-.78a31.31,31.31,0,0,0-3.37-1.31,21.9,21.9,0,0,0-3.47-.92c-2.39-.35-5.06-.64-7.3.66a8.35,8.35,0,0,0-2.53,2.09l.41-.2a2.62,2.62,0,0,0-.23.32l1.76.23c.59.08,1.18.13,1.76.2l3.54.39c3,.21,5.9,1,8.87,1a.11.11,0,0,1,.11.11.1.1,0,0,1-.09.1c-.67.1-1.33.23-2,.38l-1,.23-1,.2c-1.33.27-2.67.54-4,.68-1.16.1-2.32.15-3.49.23s-2.34.16-3.51.14c1,.66,2,1.29,3,2l3,2.06a15.1,15.1,0,0,0,3.13-.42,19.48,19.48,0,0,0,3.63-1.18,30.37,30.37,0,0,0,3.36-1.84l1.58-1c.5-.37,1-.77,1.48-1.16s.7-.54,1-.82C266.15,139.56,265.73,139.39,265.33,139.21Z"/></g></g></g></svg>