<svg xmlns="http://www.w3.org/2000/svg" viewBox="0 0 75 823.21"><defs><style>.cls-1{fill:#b69564;}</style></defs><g id="圖層_2" data-name="圖層 2"><g id="_0-ui_kits" data-name="0-ui_kits"><g id="frame"><path class="cls-1" d="M26.64,398.35l6.57,24.46-8.09-23.73a1.15,1.15,0,0,1,.47-1.39l.13,0h.13a.78.78,0,0,1,.79.7Zm36.07,21.1a.56.56,0,0,0-.29-.31l-.18,0a.45.45,0,0,0-.2,0,.41.41,0,0,0-.11.07L48.09,430.53l14.41-10A.9.9,0,0,0,62.71,419.45Zm-42.34-16a.8.8,0,0,0-.26-.05.66.66,0,0,0-.27.06.6.6,0,0,0-.15.09,1.16,1.16,0,0,0-.29,1.48l11.86,20.51L20.75,403.87A.71.71,0,0,0,20.37,403.47ZM60.49,411a.67.67,0,0,0-.4-.25H60a.6.6,0,0,0-.34.11l-.12.12-13.15,17,14.12-15.56A1.09,1.09,0,0,0,60.49,411Zm4.36,23.73a1.26,1.26,0,0,0-.77-.19l-12.22,1.92,12.16-1A1,1,0,0,0,64.85,434.69Zm10-40.09a4.26,4.26,0,0,1-2,2.63,3.81,3.81,0,0,1-.8.35V578.81H69.17V466.68H39.26V578.81H36.39V466.68H5.68V578.81H2.81V397.52A4.31,4.31,0,0,1,2,389.81a4.17,4.17,0,0,1,.77-.37v-145H5.68V356.53H36.39V244.4h2.87V356.53H69.17V244.4H72v145a4.26,4.26,0,0,1,2.81,5.19ZM36.39,437.89,11.65,434c-.58-.09-1.48.3-1.34.85a1.55,1.55,0,0,0,1.28,1.08L36.39,438Zm0-.32L11.68,427.13c-.58-.24-1.77-.09-1.83.53a1.51,1.51,0,0,0,1,1.48l25.58,8.57Zm0-1.4-19.8-25.54a1.1,1.1,0,0,0-1.54-.23,1.25,1.25,0,0,0-.23.23,1.6,1.6,0,0,0,0,2.05L36.1,436.12l.29.24Zm-.65.33L14.12,418.81a1,1,0,0,0-1.42.16.88.88,0,0,0-.14.23,1.43,1.43,0,0,0,.36,1.8l23.47,16.21Zm.65-1.14-.45-1.31L21.22,403.64a1.21,1.21,0,0,0-1.58-.64,1.28,1.28,0,0,0-.27.16A1.69,1.69,0,0,0,19,405.3l17.44,30.17Zm0-2.68-9.25-34.47a1.3,1.3,0,0,0-1.5-1.06.86.86,0,0,0-.23.06,1.65,1.65,0,0,0-.77,2.05l11.75,34.5Zm0-8.1L33.1,394.66a1.43,1.43,0,0,0-1.45-1.43h-.14a1.65,1.65,0,0,0-1.09,1.95l6,34.33Zm0-67H5.68v31.85a4.26,4.26,0,0,1,2.85,5.06,4.28,4.28,0,0,1-1.93,2.69,4,4,0,0,1-.92.42v68.07H36.39v-26.3l-2.73,1.15,2.73-1.89v-.1l-24.84-2.07A2.09,2.09,0,0,1,9.82,435a1,1,0,0,1,.25-1,2,2,0,0,1,1.65-.55l19.67,3.1-20.74-6.95a2,2,0,0,1-1.31-2,1.07,1.07,0,0,1,.55-.84,2.42,2.42,0,0,1,2-.13l21.43,9L12.63,421.42a1.93,1.93,0,0,1-.52-2.47,1.23,1.23,0,0,1,.19-.31,1.52,1.52,0,0,1,2.14-.23l19,15.49L14.43,413a2.12,2.12,0,0,1,0-2.73,1.14,1.14,0,0,1,.31-.31,1.61,1.61,0,0,1,2.26.34l16.72,21.56L18.5,405.56a2.13,2.13,0,0,1,.94-3,1.73,1.73,0,0,1,2.25.92l12.89,26.62L24.15,399.43a2.17,2.17,0,0,1,1-2.68,1.64,1.64,0,0,1,.38-.11,1.82,1.82,0,0,1,2.1,1.49l7.85,29.23-5.59-32.09a2.16,2.16,0,0,1,1.44-2.53l.11,0h.2a2,2,0,0,1,2,2l2.77,25.2V391.52c0-.06,0-.11,0-.17V374.79a5,5,0,0,1,0-9.56v-7.67Zm1.73,32.6a.93.93,0,0,0-.34.23,1.53,1.53,0,0,0-.36.91V392l.39,19.16.35-19.24c0-.17,0-.34,0-.52A3.73,3.73,0,0,0,38.12,390.16Zm1.14,39.67,6-34.64a1.64,1.64,0,0,0-1.1-1.95,1.45,1.45,0,0,0-1.58,1.29c0,.05,0,.09,0,.14l-3.34,30.39Zm0,4.08.08-.16,11.74-34.49a1.66,1.66,0,0,0-.77-2.06,1.31,1.31,0,0,0-1.67.78,1,1,0,0,0-.06.23L39.26,433Zm0,1.67,17.5-30.28a1.7,1.7,0,0,0-.42-2.14,1.22,1.22,0,0,0-1.85.49L39.82,434l-.56,1.63Zm0,.84.36-.29L60.9,412.69a1.63,1.63,0,0,0,0-2.06,1.1,1.1,0,0,0-1.54-.22,1,1,0,0,0-.23.23L39.26,436.25Zm.07.79L62.8,421a1.42,1.42,0,0,0,.36-1.8,1,1,0,0,0-1.33-.52,1,1,0,0,0-.23.13L40,436.5Zm-.07.49,25.58-8.56a1.51,1.51,0,0,0,1-1.48c-.06-.62-1.25-.77-1.83-.53L39.26,437.57Zm0,.3,24.81-2.08a1.54,1.54,0,0,0,1.27-1.08c.14-.55-.76-.94-1.33-.85l-24.75,3.89Zm29.91-80.44H39.26v7.67a5,5,0,0,1,0,9.56v45.54l2.83-25.72a.85.85,0,0,1,0-.13,2,2,0,0,1,2.15-1.76l.1,0a2.15,2.15,0,0,1,1.44,2.56l-5.6,32.17,7.89-29.4a1.5,1.5,0,0,1,.08-.27,1.8,1.8,0,0,1,2.32-1.09,2.19,2.19,0,0,1,1.09,2.71L41.17,430,54,403.42a2,2,0,0,1,.21-.36,1.73,1.73,0,0,1,1.14-.65,1.69,1.69,0,0,1,1.27.34,2.2,2.2,0,0,1,.56,2.8L42,431.88l16.72-21.56A1.44,1.44,0,0,1,59,410a1.59,1.59,0,0,1,1.19-.31,1.63,1.63,0,0,1,1.07.63,2.14,2.14,0,0,1,0,2.7l-19,20.89,19-15.49a1.38,1.38,0,0,1,.35-.22,1.52,1.52,0,0,1,2,.79,1.92,1.92,0,0,1-.51,2.41l-20.6,14.24,21.25-9a2.42,2.42,0,0,1,2,.13,1.05,1.05,0,0,1,.55.82,2,2,0,0,1-1.28,2l-20.77,6.95,19.67-3.09a2,2,0,0,1,1.65.55,1,1,0,0,1,.26.93,2.06,2.06,0,0,1-1.71,1.47l-24.87,2.08v.06l.52.35h0l1.77,1.24-2.27-.88v26.37H69.17V397.52a4.28,4.28,0,0,1-2.67-5.14,4.32,4.32,0,0,1,2.67-2.93V357.56ZM32.31,394a.93.93,0,0,0-.65-.27h0a1.1,1.1,0,0,0-.73,1.32l4.63,26.62-3-27A1,1,0,0,0,32.31,394Zm23.29,9.42h-.09a.72.72,0,0,0-.45.26.51.51,0,0,0-.09.16L44.43,425.6l11.88-20.55a1.16,1.16,0,0,0-.3-1.48A.66.66,0,0,0,55.6,403.43ZM11.46,434.5a.94.94,0,0,0-.65.25,1.06,1.06,0,0,0,.85.66l12.09,1L11.57,434.5Zm-.41-7a1,1,0,0,0-.69.18,1,1,0,0,0,.64.94l14.3,4.79-13.82-5.84A1.18,1.18,0,0,0,11.05,427.54Zm39-29.88-.2,0a.81.81,0,0,0-.74.53.57.57,0,0,0,0,.14l-6.58,24.52,8.09-23.75A1.15,1.15,0,0,0,50.07,397.66Zm-6-3.91h0a.93.93,0,0,0-.93.83v.14l-3,27,4.63-26.61A1.13,1.13,0,0,0,44.09,393.75Zm21.19,33.94a1.1,1.1,0,0,0-.67-.16,1.19,1.19,0,0,0-.44.08l-13.8,5.83,14.31-4.79A1,1,0,0,0,65.28,427.69Zm-49.58-17a.59.59,0,0,0-.35.12l-.12.12a1.12,1.12,0,0,0,0,1.42l14.08,15.5L16.18,411A.61.61,0,0,0,15.7,410.7Zm-2.21,8.41a.5.5,0,0,0-.39.18l-.07.11a.94.94,0,0,0,.21,1.19l14.4,10L13.79,419.21A.49.49,0,0,0,13.49,419.11Z"/><path class="cls-1" d="M26.64,642.75l6.57,24.47-8.09-23.74a1.14,1.14,0,0,1,.47-1.38l.13,0h.13a.77.77,0,0,1,.46.15A.84.84,0,0,1,26.64,642.75Zm36.07,21.1a.53.53,0,0,0-.29-.3.39.39,0,0,0-.18,0,.65.65,0,0,0-.2,0,.41.41,0,0,0-.11.07L48.09,674.93,62.5,665A.91.91,0,0,0,62.71,663.85Zm-42.34-16a.8.8,0,0,0-.26,0,.86.86,0,0,0-.27,0l-.15.09a1.17,1.17,0,0,0-.29,1.49L31.26,670l-10.51-21.7A.69.69,0,0,0,20.37,647.88Zm40.12,7.49a.59.59,0,0,0-.4-.25H60a.54.54,0,0,0-.34.12.34.34,0,0,0-.12.12l-13.15,17,14.12-15.56A1.09,1.09,0,0,0,60.49,655.37Zm4.36,23.72a1.36,1.36,0,0,0-.77-.18l-12.22,1.92,12.16-1A1,1,0,0,0,64.85,679.09Zm10-40.08a4.27,4.27,0,0,1-2,2.62,4.44,4.44,0,0,1-.8.36V823.21H69.17V711.09H39.26V823.21H36.39V711.09H5.68V823.21H2.81V641.92a4.31,4.31,0,0,1-.77-7.7,5,5,0,0,1,.77-.38v-145H5.68V600.93H36.39V488.81h2.87V600.93H69.17V488.81H72v145a4.28,4.28,0,0,1,2.81,5.2ZM36.39,682.29,11.65,678.4c-.58-.09-1.48.3-1.34.85a1.57,1.57,0,0,0,1.28,1.08l24.8,2.07Zm0-.31L11.68,671.54c-.58-.24-1.77-.1-1.83.53a1.53,1.53,0,0,0,1,1.48l25.58,8.56Zm0-1.4L16.59,655a1.1,1.1,0,0,0-1.54-.23,1.2,1.2,0,0,0-.23.22,1.61,1.61,0,0,0,0,2.06L36.1,680.53l.29.24Zm-.65.32L14.12,663.22a1,1,0,0,0-1.42.15,1.09,1.09,0,0,0-.14.23,1.43,1.43,0,0,0,.36,1.8l23.47,16.21Zm.65-1.13-.45-1.31L21.22,648.05a1.21,1.21,0,0,0-1.58-.64l-.27.15a1.71,1.71,0,0,0-.42,2.15l17.44,30.17Zm0-2.68-9.25-34.47a1.3,1.3,0,0,0-1.5-1.07.86.86,0,0,0-.23.06,1.65,1.65,0,0,0-.77,2l11.75,34.51Zm0-8.1L33.1,639.07a1.44,1.44,0,0,0-1.45-1.44h-.14a1.64,1.64,0,0,0-1.09,2l6,34.33Zm0-67H5.68v31.84A4.33,4.33,0,0,1,8,635.61a4.27,4.27,0,0,1,.53,3.27,4.31,4.31,0,0,1-1.93,2.69,4.49,4.49,0,0,1-.92.42v68.07H36.39V683.75l-2.73,1.15L36.39,683v-.1l-24.84-2.08a2.07,2.07,0,0,1-1.73-1.44,1,1,0,0,1,.25-1,2,2,0,0,1,1.65-.55L31.39,681,10.65,674a2,2,0,0,1-1.31-2,1.07,1.07,0,0,1,.55-.85,2.46,2.46,0,0,1,2-.13l21.43,9.06L12.63,665.83a2,2,0,0,1-.52-2.48,1,1,0,0,1,.19-.3,1.52,1.52,0,0,1,2.14-.23l19,15.49-19-20.87a2.13,2.13,0,0,1,0-2.74,1.51,1.51,0,0,1,.31-.31,1.61,1.61,0,0,1,2.26.34l16.72,21.56L18.5,650a2.2,2.2,0,0,1,.55-2.8,1.72,1.72,0,0,1,1.71-.24,1.76,1.76,0,0,1,.93.93l12.89,26.61L24.15,643.83a2.18,2.18,0,0,1,1-2.68,2.36,2.36,0,0,1,.38-.11,1.83,1.83,0,0,1,1.36.31,1.85,1.85,0,0,1,.74,1.18l7.85,29.24-5.59-32.09a2.15,2.15,0,0,1,1.44-2.53l.11,0,.2,0a2,2,0,0,1,1.38.57,2,2,0,0,1,.58,1.38l2.77,25.21V635.93c0-.06,0-.12,0-.17V619.19a5,5,0,0,1,0-9.55V602Zm1.73,32.59a1.08,1.08,0,0,0-.34.23,1.56,1.56,0,0,0-.36.91v.73l.39,19.15.35-19.24c0-.16,0-.34,0-.51A3.79,3.79,0,0,0,38.12,634.56Zm1.14,39.67,6-34.64a1.65,1.65,0,0,0-1.1-2,1.45,1.45,0,0,0-1.58,1.3s0,.09,0,.13l-3.34,30.39Zm0,4.08.08-.15,11.74-34.5a1.65,1.65,0,0,0-.77-2,1.3,1.3,0,0,0-1.67.78.86.86,0,0,0-.06.23l-9.32,34.73Zm0,1.67,17.5-30.27a1.69,1.69,0,0,0-.42-2.14,1.21,1.21,0,0,0-1.69.21,1.91,1.91,0,0,0-.16.27l-14.67,30.3L39.26,680Zm0,.84.36-.29L60.9,657.09a1.61,1.61,0,0,0,0-2.05,1.09,1.09,0,0,0-1.54-.22,1,1,0,0,0-.23.22L39.26,680.65Zm.07.8L62.8,665.4a1.42,1.42,0,0,0,.36-1.8,1,1,0,0,0-1.33-.52,1.09,1.09,0,0,0-.23.14L40,680.91Zm-.07.49,25.58-8.57a1.5,1.5,0,0,0,1-1.48c-.06-.62-1.25-.77-1.83-.52L39.26,682Zm0,.29,24.81-2.07a1.56,1.56,0,0,0,1.27-1.08c.14-.56-.76-.94-1.33-.85l-24.75,3.89ZM69.17,602H39.26v7.67a5,5,0,0,1,0,9.55v45.55L42.09,639a1,1,0,0,1,0-.14,2,2,0,0,1,2.15-1.75l.1,0a2.16,2.16,0,0,1,1.44,2.57l-5.6,32.16,7.89-29.4a1.88,1.88,0,0,1,1-1.29,1.81,1.81,0,0,1,1.39-.07,2.2,2.2,0,0,1,1.09,2.72l-10.4,30.53L54,647.83a1.47,1.47,0,0,1,.21-.36,1.7,1.7,0,0,1,2.41-.31,2.2,2.2,0,0,1,.56,2.8L42,676.29l16.72-21.56a1.72,1.72,0,0,1,.33-.33,1.54,1.54,0,0,1,1.19-.3,1.59,1.59,0,0,1,1.07.63,2.12,2.12,0,0,1,0,2.69l-19,20.9,19-15.5a1.13,1.13,0,0,1,.35-.21,1.51,1.51,0,0,1,2,.78,1.93,1.93,0,0,1-.51,2.42L42.52,680l21.25-9a2.42,2.42,0,0,1,2,.13,1.07,1.07,0,0,1,.55.83A2,2,0,0,1,65,674l-20.77,7,19.67-3.09a2,2,0,0,1,1.65.54,1,1,0,0,1,.26.94,2.07,2.07,0,0,1-1.71,1.47l-24.87,2.08V683l.52.36h0l1.77,1.23-2.27-.87v26.37H69.17V641.92a4.21,4.21,0,0,1-2.23-1.86,4.3,4.3,0,0,1,2.23-6.2V602ZM32.31,638.42a.89.89,0,0,0-.65-.27h0a1.1,1.1,0,0,0-.73,1.32l4.63,26.61-3-27A.92.92,0,0,0,32.31,638.42Zm23.29,9.41h-.09a.64.64,0,0,0-.45.26.6.6,0,0,0-.09.15L44.43,670l11.88-20.56A1.16,1.16,0,0,0,56,648,.66.66,0,0,0,55.6,647.83ZM11.46,678.9a.9.9,0,0,0-.65.26,1,1,0,0,0,.85.65l12.09,1-12.18-1.92Zm-.41-7a1,1,0,0,0-.69.19,1,1,0,0,0,.64.93l14.3,4.79L11.48,672A1.18,1.18,0,0,0,11.05,671.94Zm39-29.88-.2,0a.81.81,0,0,0-.74.53,1,1,0,0,0,0,.14l-6.58,24.52,8.09-23.74A1.16,1.16,0,0,0,50.07,642.06Zm-6-3.91h0a.94.94,0,0,0-.93.84v.14l-3,27,4.63-26.61A1.15,1.15,0,0,0,44.09,638.15Zm21.19,33.94a1.51,1.51,0,0,0-1.11-.08l-13.8,5.83,14.31-4.79A1,1,0,0,0,65.28,672.09Zm-49.58-17a.66.66,0,0,0-.35.11l-.12.12a1.12,1.12,0,0,0,0,1.42l14.08,15.51L16.18,655.35A.6.6,0,0,0,15.7,655.11Zm-2.21,8.4a.48.48,0,0,0-.39.19.41.41,0,0,0-.07.11.94.94,0,0,0,.21,1.19l14.4,9.94L13.79,663.62A.5.5,0,0,0,13.49,663.51Z"/><path class="cls-1" d="M26.64,153.94l6.57,24.47-8.09-23.74a1.14,1.14,0,0,1,.47-1.38l.13,0h.13a.77.77,0,0,1,.46.15A.84.84,0,0,1,26.64,153.94ZM62.71,175a.53.53,0,0,0-.29-.3.39.39,0,0,0-.18,0,.65.65,0,0,0-.2,0,.41.41,0,0,0-.11.07L48.09,186.12l14.41-10A.91.91,0,0,0,62.71,175Zm-42.34-16a.8.8,0,0,0-.26,0,.86.86,0,0,0-.27,0l-.15.09a1.17,1.17,0,0,0-.29,1.49l11.86,20.51-10.51-21.7A.69.69,0,0,0,20.37,159.07Zm40.12,7.49a.59.59,0,0,0-.4-.25H60a.54.54,0,0,0-.34.12.34.34,0,0,0-.12.12l-13.15,17,14.12-15.56A1.09,1.09,0,0,0,60.49,166.56Zm4.36,23.73a1.26,1.26,0,0,0-.77-.19L51.86,192,64,191A1,1,0,0,0,64.85,190.29Zm10-40.09a4.27,4.27,0,0,1-2,2.62,3.84,3.84,0,0,1-.8.36V334.4H69.17V222.28H39.26V334.4H36.39V222.28H5.68V334.4H2.81V153.11a4.31,4.31,0,0,1-.77-7.7,5,5,0,0,1,.77-.38V0H5.68V112.12H36.39V0h2.87V112.12H69.17V0H72V145a4.28,4.28,0,0,1,2.81,5.2ZM36.39,193.48l-24.74-3.89c-.58-.09-1.48.3-1.34.85a1.55,1.55,0,0,0,1.28,1.08l24.8,2.07Zm0-.31L11.68,182.73c-.58-.24-1.77-.1-1.83.53a1.53,1.53,0,0,0,1,1.48l25.58,8.56Zm0-1.4-19.8-25.54a1.1,1.1,0,0,0-1.54-.23,1.2,1.2,0,0,0-.23.22,1.61,1.61,0,0,0,0,2.06L36.1,191.72l.29.24Zm-.65.32L14.12,174.41a1,1,0,0,0-1.42.15,1.09,1.09,0,0,0-.14.23,1.43,1.43,0,0,0,.36,1.8L36.39,192.8Zm.65-1.13-.45-1.31L21.22,159.24a1.21,1.21,0,0,0-1.58-.64,1.82,1.82,0,0,0-.27.15A1.71,1.71,0,0,0,19,160.9l17.44,30.17Zm0-2.68-9.25-34.47a1.3,1.3,0,0,0-1.5-1.07,1.55,1.55,0,0,0-.23.06,1.65,1.65,0,0,0-.77,2l11.75,34.51Zm0-8.1L33.1,150.26a1.44,1.44,0,0,0-1.45-1.44h-.14a1.64,1.64,0,0,0-1.09,1.95l6,34.33Zm0-67H5.68V145A4.33,4.33,0,0,1,8,146.8a4.27,4.27,0,0,1,.53,3.27,4.31,4.31,0,0,1-1.93,2.69,4.49,4.49,0,0,1-.92.42v68.07H36.39V194.94l-2.73,1.16,2.73-1.89v-.1L11.55,192a2.07,2.07,0,0,1-1.73-1.44,1,1,0,0,1,.25-1,2,2,0,0,1,1.65-.55l19.67,3.09-20.74-6.94a2,2,0,0,1-1.31-2,1.07,1.07,0,0,1,.55-.85,2.46,2.46,0,0,1,2-.13l21.43,9.06L12.63,177a2,2,0,0,1-.52-2.48,1,1,0,0,1,.19-.3,1.52,1.52,0,0,1,2.14-.23l19,15.49-19-20.87a2.13,2.13,0,0,1,0-2.74,1.51,1.51,0,0,1,.31-.31,1.61,1.61,0,0,1,2.26.34l16.72,21.56L18.5,161.15a2.2,2.2,0,0,1,.55-2.8,1.72,1.72,0,0,1,1.71-.24,1.76,1.76,0,0,1,.93.93l12.89,26.61L24.15,155a2.17,2.17,0,0,1,1-2.67,1.76,1.76,0,0,1,.38-.12,1.83,1.83,0,0,1,1.36.31,1.87,1.87,0,0,1,.74,1.18L35.5,183l-5.59-32.09a2.15,2.15,0,0,1,1.44-2.53l.11,0a.66.66,0,0,1,.2,0,1.95,1.95,0,0,1,2,1.95l2.77,25.2V147.12c0-.06,0-.12,0-.17V130.38a5,5,0,0,1,0-9.55v-7.67Zm1.73,32.59a1.11,1.11,0,0,0-.34.24,1.5,1.5,0,0,0-.36.9v.73l.39,19.15.35-19.24c0-.16,0-.34,0-.51A3.79,3.79,0,0,0,38.12,145.75Zm1.14,39.67,6-34.64a1.65,1.65,0,0,0-1.1-1.95,1.45,1.45,0,0,0-1.58,1.3s0,.09,0,.13l-3.34,30.39Zm0,4.08.08-.15,11.74-34.5a1.65,1.65,0,0,0-.77-2,1.3,1.3,0,0,0-1.67.78.86.86,0,0,0-.06.23l-9.32,34.73Zm0,1.67,17.5-30.27a1.69,1.69,0,0,0-.42-2.14,1.21,1.21,0,0,0-1.69.21,1.91,1.91,0,0,0-.16.27l-14.67,30.3-.56,1.63Zm0,.84.36-.29L60.9,168.28a1.61,1.61,0,0,0,0-2.05,1.09,1.09,0,0,0-1.54-.22,1,1,0,0,0-.23.22L39.26,191.84Zm.07.8L62.8,176.59a1.42,1.42,0,0,0,.36-1.8,1,1,0,0,0-1.33-.52,1.09,1.09,0,0,0-.23.14L40,192.1Zm-.07.49,25.58-8.57a1.5,1.5,0,0,0,1-1.48c-.06-.62-1.25-.77-1.83-.52L39.26,193.17Zm0,.29,24.81-2.07a1.54,1.54,0,0,0,1.27-1.08c.14-.56-.76-.94-1.33-.85l-24.75,3.89Zm29.91-80.43H39.26v7.67a5,5,0,0,1,0,9.55v45.55l2.83-25.72a1,1,0,0,1,0-.14,2,2,0,0,1,2.15-1.75l.1,0a2.16,2.16,0,0,1,1.44,2.57l-5.6,32.16,7.89-29.4a1.88,1.88,0,0,1,1-1.29,1.81,1.81,0,0,1,1.39-.07A2.2,2.2,0,0,1,51.57,155l-10.4,30.53L54,159a2,2,0,0,1,.21-.36,1.7,1.7,0,0,1,1.14-.66,1.74,1.74,0,0,1,1.27.35,2.2,2.2,0,0,1,.56,2.8L42,187.48l16.72-21.56a1.72,1.72,0,0,1,.33-.33,1.54,1.54,0,0,1,1.19-.3,1.59,1.59,0,0,1,1.07.63,2.12,2.12,0,0,1,0,2.69l-19,20.9,19-15.5a1.13,1.13,0,0,1,.35-.21,1.5,1.5,0,0,1,1.16,0,1.47,1.47,0,0,1,.84.8,1.93,1.93,0,0,1-.51,2.42l-20.6,14.23,21.25-9a2.42,2.42,0,0,1,2,.13,1.07,1.07,0,0,1,.55.83,2,2,0,0,1-1.28,2l-20.77,6.95,19.67-3.09a2,2,0,0,1,1.65.54,1,1,0,0,1,.26.94A2.07,2.07,0,0,1,64.13,192l-24.87,2.08v0l.52.36h0l1.77,1.23-2.27-.87v26.37H69.17V153.11a4.21,4.21,0,0,1-2.23-1.86,4.3,4.3,0,0,1,2.23-6.2V113.16ZM32.31,149.61a.89.89,0,0,0-.65-.27h0a1.1,1.1,0,0,0-.73,1.32l4.63,26.61-3-27A.93.93,0,0,0,32.31,149.61ZM55.6,159h-.09a.64.64,0,0,0-.45.26.6.6,0,0,0-.09.15L44.43,181.2l11.88-20.56a1.16,1.16,0,0,0-.3-1.48A.66.66,0,0,0,55.6,159ZM11.46,190.09a.9.9,0,0,0-.65.26,1.08,1.08,0,0,0,.85.66l12.09,1L11.57,190.1Zm-.41-7a1,1,0,0,0-.69.19,1,1,0,0,0,.64.94L25.3,189l-13.82-5.83A1,1,0,0,0,11.05,183.13Zm39-29.87a.51.51,0,0,0-.2,0,.81.81,0,0,0-.74.53,1,1,0,0,0,0,.14l-6.58,24.52,8.09-23.74A1.14,1.14,0,0,0,50.07,153.26Zm-6-3.92h0a.94.94,0,0,0-.93.84v.14l-3,27,4.63-26.61A1.15,1.15,0,0,0,44.09,149.34Zm21.19,33.94a1.51,1.51,0,0,0-1.11-.08L50.37,189l14.31-4.79A1,1,0,0,0,65.28,183.28Zm-49.58-17a.66.66,0,0,0-.35.11l-.12.12a1.12,1.12,0,0,0,0,1.42l14.08,15.51L16.18,166.55A.58.58,0,0,0,15.7,166.3Zm-2.21,8.4a.51.51,0,0,0-.39.19A.41.41,0,0,0,13,175a.94.94,0,0,0,.21,1.19l14.4,9.94L13.79,174.81A.5.5,0,0,0,13.49,174.7Z"/></g></g></g></svg>