<svg xmlns="http://www.w3.org/2000/svg" viewBox="0 0 359 611.5"><defs><style>.cls-1{fill:#173d4f;}.cls-2,.cls-4{fill:none;stroke-miterlimit:10;}.cls-2{stroke:#b69564;stroke-width:3px;}.cls-3{fill:#b69564;}.cls-4{stroke:#173d4f;stroke-width:2px;}</style></defs><g id="圖層_2" data-name="圖層 2"><g id="_0-ui_kits" data-name="0-ui_kits"><g id="door-1"><g id="door"><path class="cls-1" d="M1.5,611.5v-435c0-96.63,79-175,176.43-175h3.14c97.44,0,176.43,78.34,176.43,175V608.38"/><path class="cls-2" d="M1.5,611.5v-435c0-96.63,79-175,176.43-175h3.14c97.44,0,176.43,78.34,176.43,175V608.38"/></g><g id="啤女"><path id="BEERU" class="cls-3" d="M191.58,181a4.63,4.63,0,0,0,1.36-1.54,3.48,3.48,0,0,0,.39-2.19,3.9,3.9,0,0,0-1.76-3,6.44,6.44,0,0,0-4.29-.67,16.82,16.82,0,0,0-1.91.33,7.47,7.47,0,0,0-1.54.53,1.77,1.77,0,0,0-.59.45.9.9,0,0,0-.15.67l1.09,9.42a2.54,2.54,0,0,0,.22.82,1.09,1.09,0,0,0,.41.46,1.29,1.29,0,0,0,.61.18,3.84,3.84,0,0,0,.82,0,7.78,7.78,0,0,0,.92-.17,4,4,0,0,0,.67-.2l-.44-3.84,1.06-.12,2,2.5a4.54,4.54,0,0,0,.45.52,2,2,0,0,0,.49.39,1.8,1.8,0,0,0,.59.21,2.18,2.18,0,0,0,.77,0,2.1,2.1,0,0,0,1.15-.5,2,2,0,0,0,.6-1.16,12.66,12.66,0,0,0-1.28-1.43C192.68,182.11,192.13,181.55,191.58,181Zm-2.09-2.08a1.78,1.78,0,0,1-1.15.53l-1.28.15-.35-3,.39-.11.48-.07a2.55,2.55,0,0,1,1.6.21,1.39,1.39,0,0,1,.62,1.09A1.46,1.46,0,0,1,189.49,178.88Zm-37.13-8.82a20.74,20.74,0,0,0-2.05-.54,7.85,7.85,0,0,0-1.74-.19,1.65,1.65,0,0,0-.71.16.86.86,0,0,0-.42.55l-2.88,9a1.49,1.49,0,0,0,.6,1.74,5.58,5.58,0,0,0,.76.51l.89.44c.3.14.59.26.88.37l.76.27a8,8,0,0,0,4.35.39,3.27,3.27,0,0,0,2.31-2.35,2.67,2.67,0,0,0-.07-2,3.48,3.48,0,0,0-1.28-1.49,3,3,0,0,0,1.63-.48,2.49,2.49,0,0,0,1-1.32,2.94,2.94,0,0,0-.51-3A7.55,7.55,0,0,0,152.36,170.06Zm-.63,9a1.13,1.13,0,0,1-.83.82,2.43,2.43,0,0,1-1.37-.09c-.26-.08-.52-.18-.8-.29a3.53,3.53,0,0,1-.65-.33l.75-2.33,1.57.5a2.7,2.7,0,0,1,1.2.68A1.06,1.06,0,0,1,151.73,179.1Zm1.21-4.81a1.15,1.15,0,0,1-.66.78A2,2,0,0,1,151,175l-1.4-.45.73-2.26a4.46,4.46,0,0,1,.6.13l.67.19a2.36,2.36,0,0,1,1.19.73A1,1,0,0,1,152.94,174.29Zm-13.5-4.3a3.14,3.14,0,0,1-1.95,3.7,2.5,2.5,0,0,1-.89.16,3.1,3.1,0,0,1-1.44-.38,2.83,2.83,0,0,1-1.5-1.8,3,3,0,0,1,.27-2.22,3,3,0,0,1,1.68-1.48,3.09,3.09,0,0,1,3.83,2Zm80.22,3.1a2.91,2.91,0,0,1-1.57,1.74,3.09,3.09,0,0,1-1.36.33,2.69,2.69,0,0,1-1-.18,3.16,3.16,0,0,1-1.83-3.77,2.85,2.85,0,0,1,1.57-1.74,2.89,2.89,0,0,1,2.33-.15,3,3,0,0,1,1.63,1.54A3,3,0,0,1,219.66,173.09Zm-51.13.93a2.58,2.58,0,0,1,.15.61,2.5,2.5,0,0,1,0,.77,1.45,1.45,0,0,1-.5,1,1.19,1.19,0,0,1-.92.18l-4.19-.69-.3,1.84,4.47.74a2.17,2.17,0,0,1,.15.61,2.43,2.43,0,0,1,0,.76,1.49,1.49,0,0,1-.5,1,1.14,1.14,0,0,1-.9.18l-3.66-.61-.34,2.09,5.1.84a2.64,2.64,0,0,1,.16.62,2.86,2.86,0,0,1,0,.77,1.52,1.52,0,0,1-.5,1,1.2,1.2,0,0,1-.92.18L160,185a1.9,1.9,0,0,1-1.27-.72,1.81,1.81,0,0,1-.27-1.43l1.38-8.4a1.9,1.9,0,0,1,.72-1.27,1.81,1.81,0,0,1,1.43-.27Zm39.26,3.28a5.18,5.18,0,0,1,.17,2,4.17,4.17,0,0,1-.62,1.76,4.87,4.87,0,0,1-1.39,1.4,7.06,7.06,0,0,1-2.09.95,7.28,7.28,0,0,1-2.29.28,4.94,4.94,0,0,1-1.91-.48,4.22,4.22,0,0,1-1.45-1.18,5.19,5.19,0,0,1-.89-1.81l-2.07-7.4c.13-.07.35-.17.65-.3a6.11,6.11,0,0,1,.87-.32,4.6,4.6,0,0,1,.8-.15,1.47,1.47,0,0,1,.64.08,1.21,1.21,0,0,1,.49.39,2.6,2.6,0,0,1,.34.78l1.66,5.91a2,2,0,0,0,.92,1.31,2,2,0,0,0,2.66-.74,2.11,2.11,0,0,0,.1-1.6l-2.06-7.34.65-.3a7.16,7.16,0,0,1,.87-.32,4.7,4.7,0,0,1,.81-.15,1.42,1.42,0,0,1,.63.08,1.14,1.14,0,0,1,.49.39,2.39,2.39,0,0,1,.34.78Zm-33-.17,0,1.87,4.52.13a2.47,2.47,0,0,1,.24.58,2.31,2.31,0,0,1,.09.75,1.54,1.54,0,0,1-.35,1.08,1.17,1.17,0,0,1-.88.3l-3.7-.1-.05,2.11,5.17.14a3.16,3.16,0,0,1,.23.59,2.46,2.46,0,0,1,.09.77,1.5,1.5,0,0,1-.36,1.09,1.2,1.2,0,0,1-.88.31l-5.88-.16a1.74,1.74,0,0,1-1.82-1.92l.23-8.51a1.9,1.9,0,0,1,.54-1.36,1.84,1.84,0,0,1,1.38-.46l6.64.18a2.39,2.39,0,0,1,.24.59,3.1,3.1,0,0,1,.09.76,1.5,1.5,0,0,1-.37,1.08,1.18,1.18,0,0,1-.88.3Z"/><path id="circle" class="cls-3" d="M198.17,58a53,53,0,0,0-21.67,4.62,53.34,53.34,0,1,0,0,97.41A53.32,53.32,0,1,0,198.17,58Zm0,103.64h0c-1.44,0-2.86-.08-4.27-.2l-.75-.07c-1.39-.14-2.76-.33-4.11-.58l-.48-.1a50,50,0,0,1-8.27-2.36l-.18-.06h0c-1.23-.47-2.44-1-3.62-1.54h0c-1.18.57-2.39,1.07-3.62,1.54h0l-.18.06a50,50,0,0,1-8.27,2.36l-.48.1c-1.35.25-2.72.44-4.11.58l-.75.07c-1.41.12-2.83.2-4.27.2h0a50.36,50.36,0,0,1-45.89-29.74c-.29-.63-.56-1.27-.82-1.91a49.73,49.73,0,0,1-2.45-8l-.21-1a50.31,50.31,0,0,1,49.37-60c1.44,0,2.86.08,4.28.2l.74.06c1.39.14,2.76.34,4.11.59l.47.09a49.93,49.93,0,0,1,8.29,2.37l.17.06h0c1.23.48,2.44,1,3.62,1.55,1.18-.57,2.39-1.07,3.62-1.55h0l.17-.06a49.93,49.93,0,0,1,8.29-2.37l.47-.09c1.35-.25,2.72-.45,4.11-.59l.74-.06c1.42-.12,2.84-.2,4.28-.2a50.37,50.37,0,0,1,50.31,50.31h0A50.37,50.37,0,0,1,198.17,161.6Zm0-96a45.43,45.43,0,0,0-21.67,5.47,45.69,45.69,0,1,0,0,80.41,45.68,45.68,0,1,0,21.67-85.88Zm41.49,60.85a44,44,0,0,1-7.41,12.91,44.61,44.61,0,0,1-6,6,44,44,0,0,1-28.09,10.1c-.94,0-1.88,0-2.81-.09-.33,0-.64-.06-1-.09-.6-.05-1.2-.1-1.79-.18l-1.15-.17c-.52-.08-1-.16-1.57-.26l-1.2-.26c-.49-.11-1-.21-1.45-.34s-.82-.22-1.23-.34-.91-.26-1.35-.41-.83-.27-1.24-.42l-1.29-.48-1.21-.5-1.26-.56-1.15-.55-.44-.21h0c-.53-.27-1.06-.54-1.58-.83h0c-.52.29-1.05.56-1.58.83h0l-.44.21-1.15.55-1.26.56-1.21.5-1.29.48c-.41.15-.82.29-1.24.42s-.9.28-1.35.41-.82.24-1.23.34-1,.23-1.45.34l-1.2.26c-.52.1-1.05.18-1.57.26l-1.14.17c-.6.08-1.2.13-1.8.18-.33,0-.64.07-1,.09-.93.06-1.87.09-2.81.09h0a44,44,0,0,1-29.48-11.3l-.28-.25a44.15,44.15,0,0,1,29.76-76.79h0c.94,0,1.88,0,2.81.09.33,0,.64.06,1,.09.6,0,1.2.1,1.8.17.38,0,.76.12,1.14.18s1,.16,1.57.26l1.2.26c.49.1,1,.21,1.45.33l1.23.35c.45.13.91.26,1.35.41s.83.27,1.24.42.86.31,1.29.48l1.21.49,1.26.57,1.15.55.44.21h0c.53.27,1.06.54,1.58.83h0c.52-.29,1.05-.56,1.58-.83h0l.44-.21,1.15-.55,1.26-.57,1.21-.49q.65-.25,1.29-.48c.41-.15.82-.29,1.24-.42s.9-.28,1.35-.41l1.23-.35c.48-.12,1-.23,1.45-.33l1.2-.26c.52-.1,1.05-.18,1.57-.26s.76-.13,1.15-.18c.59-.07,1.19-.12,1.79-.17.33,0,.64-.07,1-.09.93-.06,1.87-.09,2.81-.09a44,44,0,0,1,28.09,10.09,44.69,44.69,0,0,1,6,6,44,44,0,0,1,10.1,28.08h0A43.85,43.85,0,0,1,239.66,126.46Z"/><path id="啤女-2" data-name="啤女" class="cls-3" d="M140.18,119.33c-.05.41-2.56,1.46-4.37,1.46H135V117h-3.77v4.22c0,.61-2.11,1.82-4.38,1.82H126V90.92l5.38,2.31h3.07L137,90.41l5.18,4.13a3.38,3.38,0,0,1-2,1ZM135,115.51V94.69h-3.77v20.82Zm32,1.66s3.17,2.82,5,4.68c-.15.55-.7.8-1.41.8H162v9.66c0,.45-2.56,1.41-4.78,1.41h-1.05V122.65H139.28l-.4-1.41h17.25v-8.6l7.54.71c-.1.6-.45,1.05-1.71,1.26v6.63h2.32Zm-18.86-5.08c0,.35-1.66,1.56-4.38,1.56h-.9V91.07l5.93,2.26h2.82c.35-2,.86-4.78,1.11-6.74l8.09,1.66c-.2.81-.9,1.21-2,1.21-1.26,1.1-3.22,2.66-4.72,3.87h9.15l2.56-2.82,5.34,4.13a3.6,3.6,0,0,1-1.87,1v15.8c-.05.4-2.76,1.56-4.62,1.56h-.91v-2.07h-6.64c-1.81,3.78-5.93,7.09-15.29,9.16l-.35-.6c6-2.42,9.1-5.29,10.56-8.56h-3.87Zm0-17.35v6.39h5.08V94.74Zm4.38,14.74a19.14,19.14,0,0,0,.7-5.69v-1.2h-5.08v6.89Zm11.21,0v-6.89h-5.28v1.15a18.53,18.53,0,0,1-.75,5.74Zm-5.28-14.74v6.39h5.28V94.74Zm63.64,1.41s4,3.12,6.39,5.23c-.15.55-.71.8-1.46.8H217.4c-1.1,6.84-3.12,12.83-7,17.76,20.52,7.69,13.78,15.44,8.5,13.07a59.51,59.51,0,0,0-12.27-9.2c-5.43,4.63-13.38,8-25.1,9.76l-.3-.61c9.81-2.91,16.45-6.84,21-11.61a112,112,0,0,0-14.43-6.19,137,137,0,0,0,5-13H182l-.4-1.46h11.77c1.91-5.58,3.62-11.06,4.28-14.08L206,88.8c-.15.56-.55,1.06-2.11,1.06-.85,2.67-2.21,6.59-3.77,10.86h10.76c.25-2.11.41-4.32.51-6.48l8.7,1.86c-.2.85-.86,1.25-2,1.25-.11,1.16-.26,2.27-.41,3.37h.86Zm-22.53,6c-1.66,4.63-3.52,9.41-5.23,13.18,4,.91,7.44,1.81,10.51,2.72a36,36,0,0,0,5.88-15.9Z"/></g><g id="handle"><rect class="cls-3" x="29.75" y="315.53" width="15" height="80" rx="7.5"/><line class="cls-4" x1="37.25" y1="334.1" x2="37.25" y2="376.96"/><circle class="cls-1" cx="37.25" cy="334.29" r="3.76"/><circle class="cls-1" cx="37.25" cy="376.77" r="3.76"/></g></g></g></g></svg>