<svg xmlns="http://www.w3.org/2000/svg" viewBox="0 0 8.5 15"><defs><style>.cls-1{fill:#ffd76c;}</style></defs><g id="圖層_2" data-name="圖層 2"><g id="_0-ui_kits" data-name="0-ui_kits"><path id="ear-l" class="cls-1" d="M7,7.24A6.3,6.3,0,0,1,2.59,5.13c-.7-1-.18-1.77.44-1.9A1,1,0,0,1,4.19,4,7.4,7.4,0,0,0,7,7.24Zm0,.52A6.3,6.3,0,0,0,2.59,9.87c-.7,1-.18,1.77.44,1.9A1,1,0,0,0,4.19,11,7.4,7.4,0,0,1,7,7.76ZM0,7.5S1,9.05,2.26,8.68a18.45,18.45,0,0,0,3-1.18,18.45,18.45,0,0,0-3-1.18C1,6,0,7.5,0,7.5ZM8.11,1.94C7.23,2.65,6.43,1.36,7,1,5.08,1,5.74,4.74,8,6.55,5.9,5.74,4.16,1.78,6.08.41,7.82-.84,9.19,1.07,8.11,1.94Zm0,11.12c-.88-.71-1.68.58-1.12,1C5.09,14,5.74,10.26,8,8.45c-2.08.81-3.82,4.77-1.91,6.14C7.82,15.84,9.19,13.93,8.11,13.06Z"/></g></g></svg>