<svg xmlns="http://www.w3.org/2000/svg" viewBox="0 0 156.21 80"><defs><style>.cls-1{fill:#fff;}</style></defs><g id="圖層_2" data-name="圖層 2"><g id="_0-ui_kits" data-name="0-ui_kits"><path id="frame-sun" class="cls-1" d="M77.58,0c-.24,0-.45.62-.51,2,.14.55-.13,4.27,0,8.47s.35,7.71.44,7.79a.34.34,0,0,0,.24.06.78.78,0,0,0,.33-.07c.44-.19.63-3.34.51-7.49,0-.59,0-1.2-.07-1.82-.08-1.67.3-2.14.14-3.91.15-2.54-.59-5.1-1.12-5ZM98.12,2.63l-.27.1c-.91.43-.75,1.81,0,1.92a.74.74,0,0,0,.36,0c.36-.11.57-.26.64-.48a1.34,1.34,0,0,0-.18-.91c-.22-.47-.35-.62-.57-.6ZM58.34,5c-.34.15-.13,1.4,1,5.72h0c.51,1.93,1.19,4.45,2.1,7.76.25.91.53,1.4.73,1.41.45,0,.56-2.27-.76-7.44a22.35,22.35,0,0,0-1-3.61c-.85-2.61-1.22-3.46-1.62-3.69C58.62,5,58.45,5,58.34,5ZM96.89,6.34c-.35.1-.63,1.15-2,6.58-.83,2.74-.95,5.78-.35,5.52.36-.15,1-1.49,1.88-4.79C98,6.85,98,6.61,97,6.34Zm19.24,4.51a31.78,31.78,0,0,0-2.87,4.65c-.5.89-.32,1.26.06,1.3a1.64,1.64,0,0,0,1.28-.69,11.78,11.78,0,0,0,.93-1.8c1.27-2.4,1.48-3,1.24-3.23a.68.68,0,0,0-.64-.23Zm-77.26.77a.68.68,0,0,0-.52.44,46.87,46.87,0,0,0,3.19,5.82c1.8,3,3.86,6.53,4.55,7.82.94,1.73,2.8,4.83,4.54,7.64.88,1.41,1.76,2.72,2.41,3.8a.8.8,0,0,0,1.06.39.79.79,0,0,0,.39-1.05,1,1,0,0,0-.08-.14c-.78-1.33-1.67-2.8-2.78-4.6-2.64-4.26-5.11-8.4-5.49-9.2a36.35,36.35,0,0,0-2-3.47C43.4,18,42,15.83,41.06,14.3c-1.46-2.3-1.83-2.75-2.19-2.68Zm73.52,6.84a1.43,1.43,0,0,0-1.26.81c-1.23,2.19-2.4,4.23-2.95,5.11-1,1.67-2.79,4.83-4.35,7.74-1.06,2-1.91,3.57-2.46,4.78s.64,2.16,1.31.81,1.86-3.34,3-5.52c2.38-4.42,4.74-8.63,5.24-9.35a36.45,36.45,0,0,0,1.84-3.21c.28-.77,0-1.14-.4-1.17Zm-34.31,2.1a1,1,0,0,0-.38.08c-.48.21-.46.83.06,1.22a.63.63,0,0,0,.51.17c.25-.05.42-.31.41-.73s-.26-.72-.61-.74Zm54.79,3.31c-1.05-.39-10.2,8.14-10.79,10.84.06.41.21.6.41.56,5.33-5.56,6.14-6.12,8-8.16S132.88,24.33,132.87,23.87Zm-54.64.43c-.12,0-.22.1-.37.26s-.35,1.46-.27,4.78a10.84,10.84,0,0,1,0,1.14c-.09,1.15,1.53,1.7,1.62.09,0-.73,0-1.48,0-2.12-.09-3-.19-3.69-.54-4a.65.65,0,0,0-.41-.19Zm-54.55.47c-.4,0-.61.28-.64.92a18.61,18.61,0,0,0,4.41,3.94,1.45,1.45,0,0,0,.72-.55c.12-.22.06-.43-.84-1.36-.29-.3-.68-.69-1.19-1.18s-1.44-1.3-2-1.61a1.06,1.06,0,0,0-.45-.16ZM30,30.85c-.7-.06-.82,0-.86.48a1.13,1.13,0,0,0,1.06,1.2h.06a.68.68,0,0,0,.7-.59.89.89,0,0,0-.08-.79,1.4,1.4,0,0,0-.88-.3ZM33.55,34a.79.79,0,0,0-.3.12,2,2,0,0,0-.56.63c-.21.48,1.57,2.26,2.19,2.2s.85-.76.32-1.37c-.37-.41-.64-.73-.87-1s-.3-.3-.4-.4a.68.68,0,0,0-.38-.21Zm111.5,4.37c-.22,0-.45.1-.89.53s-3.65,2.54-7.22,4.77-6.5,4.15-6.53,4.27.1.35.3.49a.1.1,0,0,0,.1,0c.64.09,3.33-1.29,6.65-3.32l1.55-1c1.41-.9,2.88-1.88,4.33-2.91,2.16-1.52,2.65-2.22,1.93-2.76a.48.48,0,0,0-.22-.12ZM10.63,40.57c-.53,0-.77.15-.83.6s.12.53.92.76c.54.15,4,1.89,7.73,3.86s6.85,3.56,7,3.53a.69.69,0,0,0,.29-.5c.05-.5-2.6-2.23-6.24-4.2l-1.62-.86c-1.48-.77-3.07-1.55-4.69-2.3a9.19,9.19,0,0,0-2.53-.89Zm117.48,8.58c-.33,0-.64.28-.71.77s.18.73.55.68a1.49,1.49,0,0,0,.4-.15.66.66,0,0,0,.34-.88.63.63,0,0,0-.26-.3.55.55,0,0,0-.33-.12Zm-99.85.57a.64.64,0,0,0-.69.58v.05c-.05.39.25.65.66.66a1.25,1.25,0,0,0,.42-.08c.58-.24.58-.78,0-1.08a1.07,1.07,0,0,0-.38-.13Zm96.85,1.64c-.39-.08-1.44.44-4.28,2.16-.72.44-1.06.64-1.77,1-1.42.72-.23,1.95.81,1.41.89-.46,1.78-1,2.53-1.48,2.51-1.56,3.1-2,3.15-2.44s0-.56-.44-.65Zm-93.34.08a.85.85,0,0,0-.39,0c-.41.18-.47.3-.34.71s1.1,1,4,2.63l.35.2c1.23.59,1.62-.8.84-1.37-.39-.22-.81-.47-1.16-.65a15.13,15.13,0,0,0-3.31-1.55Zm121.7,6a37.3,37.3,0,0,0-5.13,1.15l-7.77,2.1c0,.74.49,1,1.3.94,1.35,0,3.42-.78,4.75-1a20.33,20.33,0,0,0,3.6-1c2.61-.84,3.47-1.22,3.69-1.62s.3-.68-.44-.63ZM3.61,58.23a.91.91,0,0,0-.42.11c-.86.5-.67.77,5.08,2.34,7.12,1.29,4.91,1.24,10.55,2.42a1.88,1.88,0,0,0,.53.07c1,0,.5-.89.37-1a85.63,85.63,0,0,0-8.92-2.4,21.34,21.34,0,0,0-3.61-1,16.69,16.69,0,0,0-3.58-.56ZM139,61.09a3.15,3.15,0,0,0-1.29.21A10.54,10.54,0,0,0,135,62.42c-.53.52-.38.85.36.79a12.9,12.9,0,0,0,2.11-.49c1.12-.34,1.55-.6,1.66-1s0-.57-.1-.65ZM155.79,77a2.35,2.35,0,0,0-.83.11c-2.47.2-5.15-.29-8.61.5a.61.61,0,0,0,0,.57c3.2.71,4.44.4,6.71.56h0c2.63-.25,3.4-.61,3-1.44a.45.45,0,0,0-.34-.31Zm-12.36.42a1,1,0,0,0-.68.4c-.39.49-.11,1,.55.92s.89-.44.67-1a.52.52,0,0,0-.54-.34Zm-8.16.23c-1.64,0-6.15.23-9.67.31-1.71,0-1,1.59,0,1.59,3.34,0,7.75-.27,9-.28.57,0,1.12,0,1.62,0,3-.09,3.69-.19,4-.54s.26-.49-.06-.78-1.46-.33-4.79-.27ZM29.17,78c-1.54,0-3.23,0-5.33.11-5,.15-9.83.22-10.72.14a24.23,24.23,0,0,0-3.3,0c-2.7,0-3.21,1.65-.51,1.62h0c3,0,5.32,0,6.54,0,2,.06,5.58,0,8.88-.11,1.64,0,3.19-.12,4.44-.18,0-.31,1.08,0,1-.81s-1-.55-1-.77Zm-25.71.54c-2.72.11-3.3.2-3.42.55a.68.68,0,0,0,.12.67A22.66,22.66,0,0,0,4.28,80c2.81-.64,1.24-1.47-.82-1.39Z"/></g></g></svg>