<svg xmlns="http://www.w3.org/2000/svg" viewBox="0 0 130.22 77.78"><defs><style>.cls-1{fill:#173d4f;}</style></defs><g id="圖層_2" data-name="圖層 2"><g id="_0-ori" data-name="0-ori"><path id="h1_2_b" class="cls-1" d="M91.33,0A38.72,38.72,0,0,0,65.11,10.2a38.89,38.89,0,1,0,0,57.38A38.88,38.88,0,1,0,91.33,0Zm0,75.78c-.62,0-1.24,0-1.85,0l-.59,0-1.23-.1L87,75.51l-1.12-.14-.71-.12-1.06-.2c-.24,0-.48-.1-.71-.15l-1.05-.24-.69-.19-1-.29L79.94,74c-.35-.12-.7-.23-1-.36l-.62-.23q-.52-.19-1-.42l-.57-.23-1.08-.5-.5-.24c-.38-.19-.76-.38-1.14-.59l-.4-.21c-.42-.23-.83-.48-1.25-.72L72,70.32a37,37,0,0,1-5.49-4.13h0c-.49-.45-1-.9-1.44-1.38-.47.48-1,.94-1.45,1.38h0a37.62,37.62,0,0,1-5.5,4.13l-.25.15c-.41.25-.82.49-1.24.72l-.41.22c-.37.2-.75.39-1.13.58l-.5.24c-.36.17-.72.34-1.08.49L53,73l-1.05.41-.63.23c-.34.13-.68.24-1,.36l-.66.21-1,.29-.69.19-1,.24c-.24,0-.47.11-.71.15l-1.06.2-.72.12-1.11.14-.69.08-1.24.1-.58,0c-.62,0-1.23,0-1.85,0s-1.27,0-1.9,0A36.87,36.87,0,0,1,2.19,42.65a37.4,37.4,0,0,1,0-7.53,36.68,36.68,0,0,1,.56-3.66A36.92,36.92,0,0,1,37,2.05c.63,0,1.26,0,1.9,0s1.23,0,1.85,0l.58,0c.42,0,.83.05,1.24.09l.69.09c.37,0,.74.08,1.11.14l.72.12,1.06.19.71.16c.35.07.7.15,1,.24l.69.18c.35.1.7.19,1,.3l.66.21,1,.35.62.23L53,4.81l.57.24,1.08.5.5.23,1.14.59.4.22c.42.23.83.47,1.24.72l.25.15a37.62,37.62,0,0,1,5.5,4.13h0c.5.45,1,.91,1.45,1.38q.7-.7,1.44-1.38h0a36.41,36.41,0,0,1,5.5-4.13l.24-.15c.41-.25.83-.49,1.25-.73l.4-.2c.37-.21.76-.41,1.14-.6l.49-.23,1.09-.5.56-.24,1.06-.42.62-.23,1-.35.66-.21c.34-.11.69-.2,1-.3l.68-.18,1.05-.25.71-.15,1.06-.19.71-.12c.37-.06.75-.1,1.12-.14l.69-.09c.41,0,.82-.06,1.24-.09l.58,0c.61,0,1.23,0,1.85,0a36.89,36.89,0,0,1,0,73.78Zm0-70.28A33.33,33.33,0,0,0,65.11,18.25a33.4,33.4,0,1,0,0,41.27,33.38,33.38,0,1,0,26.22-54Zm0,65.78c-.66,0-1.32,0-2-.06l-.65-.06q-.64,0-1.29-.12l-.77-.11-1.14-.18-.82-.17c-.35-.07-.7-.14-1-.23l-.84-.22-1-.28L81,69.57c-.31-.11-.63-.21-.94-.33s-.55-.22-.83-.33l-.9-.37-.83-.39-.85-.41-.81-.44L75,66.84c-.27-.15-.53-.32-.8-.48l-.77-.5-.77-.53-.73-.53c-.26-.19-.5-.39-.75-.58l-.69-.57c-.25-.2-.48-.41-.72-.62l-.66-.61c-.23-.21-.45-.43-.68-.66s-.42-.42-.62-.64-.43-.46-.64-.7l-.59-.67L66,59c-.08-.11-.17-.21-.25-.31h0c-.22-.28-.44-.55-.64-.83l-.64.83h0l-.26.31-.59.72-.59.69-.64.69-.63.64c-.22.23-.44.45-.67.66l-.67.61-.71.62-.7.57c-.24.2-.49.39-.74.58l-.74.53c-.25.18-.5.36-.76.53l-.78.5c-.26.16-.52.33-.79.48l-.81.46c-.27.15-.54.3-.82.44l-.85.41-.82.39-.9.37c-.28.11-.55.23-.84.33s-.62.22-.94.33l-.84.28-1,.28-.83.22c-.35.09-.7.16-1,.23l-.82.17c-.37.07-.76.12-1.14.18L42.8,71c-.43,0-.86.09-1.3.12l-.64.06c-.65,0-1.31.06-2,.06a32.16,32.16,0,0,1-16.78-4.7q-.67-.4-1.32-.84a33.12,33.12,0,0,1-5.87-5.09,30.24,30.24,0,0,1-2-2.39A32.33,32.33,0,0,1,6.5,38.89a30.19,30.19,0,0,1,.17-3.31A32.62,32.62,0,0,1,19.52,12.94c.83-.62,1.69-1.2,2.59-1.75A32.15,32.15,0,0,1,38.89,6.5c.66,0,1.32,0,2,.06l.66.06c.43,0,.86.06,1.28.11l.78.12L44.7,7c.28.05.55.12.83.18l1,.22.84.23,1,.28c.29.08.57.18.85.28l.93.32.84.34.89.37c.28.12.56.25.83.39l.85.41c.28.14.55.29.82.44l.81.45.79.49.78.49.77.54.73.53c.25.19.5.38.74.58s.47.37.7.57l.71.62.67.6.67.66.63.65.64.69.59.68c.2.24.4.48.59.73a3.88,3.88,0,0,1,.26.31h0c.21.27.43.54.64.83.2-.29.42-.56.64-.83h0c.08-.11.17-.21.25-.31l.6-.73c.19-.23.39-.45.59-.68s.42-.47.64-.7l.62-.63.68-.67.66-.6.72-.63.69-.56c.25-.2.49-.39.75-.58s.48-.36.73-.53l.77-.54.77-.49.8-.49.81-.45.81-.44.85-.41c.28-.13.55-.27.83-.39l.89-.37L80,8.53,81,8.21c.28-.1.56-.2.84-.28l1-.28.85-.23,1-.22L85.51,7l1.13-.17.78-.12c.42-.05.85-.08,1.28-.11l.66-.06c.65,0,1.31-.06,2-.06a30.19,30.19,0,0,1,3.31.17A32.14,32.14,0,0,1,109,11.74l.68.45A32.38,32.38,0,0,1,91.33,71.28Z"/></g></g></svg>