<svg xmlns="http://www.w3.org/2000/svg" viewBox="0 0 235.1 77.78"><defs><style>.cls-1{fill:#173d4f;}</style></defs><g id="圖層_2" data-name="圖層 2"><g id="_0-ori" data-name="0-ori"><path id="h1_4_b" class="cls-1" d="M196.21,0A38.74,38.74,0,0,0,170,10.2a38.8,38.8,0,0,0-52.44,0,38.8,38.8,0,0,0-52.44,0,38.89,38.89,0,1,0,0,57.38,38.8,38.8,0,0,0,52.44,0,38.8,38.8,0,0,0,52.44,0A38.88,38.88,0,1,0,196.21,0Zm0,75.78c-.62,0-1.23,0-1.85,0l-.59,0-1.23-.1-.69-.08-1.11-.14-.72-.12c-.35-.06-.71-.12-1.06-.2s-.47-.1-.71-.15l-1-.24-.69-.19-1-.29-.66-.21-1-.36-.62-.23q-.53-.19-1-.42l-.57-.23-1.08-.5L180,72c-.38-.19-.76-.38-1.14-.59l-.4-.21c-.42-.23-.83-.47-1.24-.72l-.25-.15a37.62,37.62,0,0,1-5.5-4.13h0c-.5-.45-1-.9-1.45-1.38-.47.48-1,.93-1.45,1.38h0a37,37,0,0,1-5.49,4.13l-.26.15c-.41.25-.82.49-1.24.72l-.41.22c-.37.2-.75.39-1.13.58l-.5.24c-.36.17-.72.34-1.08.49l-.57.25-1.05.41-.62.23-1,.36-.66.21-1,.29-.7.19-1,.24c-.23,0-.47.11-.71.15l-1.06.2-.72.12-1.11.14-.69.08-1.23.1-.59,0c-.62,0-1.23,0-1.85,0s-1.23,0-1.85,0l-.59,0-1.23-.1-.69-.08-1.12-.14-.71-.12-1.06-.2c-.24,0-.48-.1-.71-.15l-1.05-.24-.69-.19-1-.29-.66-.21-1-.36-.62-.23L129.67,73l-.57-.25c-.36-.15-.72-.32-1.08-.49l-.5-.24c-.38-.19-.76-.38-1.13-.58l-.41-.22c-.42-.23-.83-.47-1.24-.72l-.26-.15A37,37,0,0,1,119,66.19h0c-.5-.45-1-.9-1.45-1.38h0c-.47.48-1,.93-1.45,1.38h0a37.62,37.62,0,0,1-5.5,4.13l-.25.15c-.41.25-.82.49-1.24.72l-.41.22c-.37.2-.75.39-1.13.58l-.5.24c-.36.17-.72.34-1.08.49l-.57.25-1.05.41-.62.23-1,.36-.66.21-1,.29-.69.19-1,.24c-.24,0-.47.11-.71.15l-1.06.2-.72.12-1.11.14-.69.08-1.23.1-.59,0c-.62,0-1.23,0-1.85,0s-1.24,0-1.85,0l-.59,0-1.23-.1L87,75.51l-1.12-.14-.71-.12c-.35-.06-.71-.12-1.06-.2s-.48-.1-.71-.15l-1.05-.24-.69-.19-1-.29L79.94,74c-.35-.12-.7-.23-1-.36l-.62-.23c-.35-.13-.71-.27-1-.42l-.57-.23-1.08-.5-.5-.24c-.38-.19-.76-.38-1.14-.59l-.4-.21c-.42-.23-.83-.47-1.24-.72L72,70.32a37,37,0,0,1-5.49-4.13h0c-.49-.45-1-.9-1.44-1.38-.47.48-1,.93-1.45,1.38h0a37.62,37.62,0,0,1-5.5,4.13l-.25.15c-.41.25-.82.49-1.24.72l-.4.21c-.38.21-.76.4-1.14.59l-.5.24-1.08.5L53,73q-.52.23-1.05.42l-.62.23-1,.36-.66.21-1,.29-.69.19-1,.24c-.24,0-.47.11-.71.15s-.71.14-1.07.2l-.71.12-1.11.14-.69.08-1.23.1-.6,0c-.61,0-1.22,0-1.84,0A36.89,36.89,0,0,1,38.89,2c.62,0,1.23,0,1.85,0l.58,0c.42,0,.83.05,1.24.09l.69.09c.37,0,.74.08,1.11.14l.71.12,1.07.19.71.16c.35.07.7.15,1,.24l.69.18,1,.3.66.21,1,.35.62.23L53,4.81l.57.24,1.08.5.5.23,1.14.59.4.22c.42.23.83.47,1.24.72l.25.15a37.62,37.62,0,0,1,5.5,4.13h0c.5.45,1,.91,1.45,1.38q.7-.7,1.44-1.38h0A37,37,0,0,1,72,7.46l.25-.15c.42-.25.83-.49,1.25-.72l.4-.22,1.14-.59.5-.23,1.08-.5.57-.24,1-.42.62-.23,1-.35.66-.21,1-.3.69-.18q.53-.14,1.05-.24l.71-.16,1.06-.19.71-.12c.37-.06.75-.1,1.12-.14l.69-.09c.41,0,.82-.06,1.23-.09l.59,0c.61,0,1.23,0,1.85,0s1.23,0,1.85,0l.58,0c.42,0,.83.05,1.24.09l.69.09c.37,0,.74.08,1.11.14l.72.12,1.06.19.71.16c.35.07.7.15,1,.24l.69.18c.35.1.7.19,1,.3l.66.21,1,.35.62.23,1.05.42.57.24,1.08.49.5.24,1.13.59.41.22c.42.23.83.47,1.24.72l.26.15a38.08,38.08,0,0,1,5.49,4.13h0c.5.45,1,.91,1.45,1.38.47-.47,1-.93,1.45-1.38h0a37,37,0,0,1,5.49-4.13l.26-.15c.41-.25.82-.49,1.24-.72l.4-.22,1.14-.59.5-.23,1.08-.5.57-.24,1.05-.42.62-.23,1-.35L133,3.6l1-.3.69-.18,1.05-.24.71-.16,1.06-.19.71-.12c.37-.06.75-.1,1.12-.14l.69-.09c.41,0,.82-.06,1.24-.09l.58,0c.61,0,1.23,0,1.85,0s1.24,0,1.85,0l.58,0c.42,0,.83.05,1.24.09l.69.09c.37,0,.75.08,1.11.14l.72.12,1.06.19.71.16c.35.07.7.15,1,.24l.7.18c.34.1.69.19,1,.3l.66.21,1,.35.62.23,1.05.42.57.24,1.08.49.5.24,1.13.59c.14.07.28.14.41.22.42.23.83.47,1.24.72l.26.15a37,37,0,0,1,5.49,4.13h0c.5.45,1,.91,1.45,1.38.47-.47.95-.93,1.45-1.38h0a37.62,37.62,0,0,1,5.5-4.13l.25-.15c.41-.25.82-.49,1.24-.72l.4-.22L180,5.78l.5-.23,1.08-.5.57-.24,1-.42.62-.23,1-.35.66-.21,1-.3.69-.18c.34-.09.69-.17,1-.24l.71-.16L190,2.53l.72-.12c.36-.06.74-.1,1.11-.14l.69-.09c.41,0,.82-.06,1.24-.09l.58,0c.62,0,1.23,0,1.85,0a36.89,36.89,0,0,1,0,73.78Zm0-70.28A33.33,33.33,0,0,0,170,18.25a33.34,33.34,0,0,0-52.44,0,33.34,33.34,0,0,0-52.44,0,33.4,33.4,0,1,0,0,41.27,33.32,33.32,0,0,0,52.44,0,33.32,33.32,0,0,0,52.44,0,33.38,33.38,0,1,0,26.22-54Zm0,65.78c-.66,0-1.32,0-2-.06l-.63-.06c-.44,0-.88-.07-1.31-.12l-.76-.11c-.38-.06-.77-.11-1.15-.18l-.81-.17c-.35-.07-.7-.14-1.05-.23l-.83-.22-1-.28-.83-.28-1-.33c-.28-.1-.55-.22-.83-.33l-.9-.37-.82-.39-.86-.41-.8-.44-.82-.46c-.27-.15-.53-.32-.79-.48l-.78-.5c-.26-.17-.51-.35-.76-.53l-.74-.53c-.25-.19-.5-.38-.74-.58l-.7-.57-.71-.62-.67-.61c-.23-.21-.45-.43-.67-.66s-.42-.42-.63-.64l-.64-.69-.59-.69-.6-.72c-.08-.11-.17-.21-.25-.31h0l-.64-.83h0c-.2.28-.42.55-.64.83h0a3.88,3.88,0,0,1-.26.31l-.59.72q-.28.34-.6.69c-.2.23-.41.46-.62.68s-.42.44-.64.66-.44.44-.67.65l-.67.61c-.23.21-.46.42-.7.62l-.71.57-.73.58-.75.53c-.25.18-.5.36-.76.53l-.78.5c-.26.17-.52.33-.79.48l-.82.46-.8.44-.86.41-.82.39-.9.37c-.28.11-.55.23-.83.33l-.95.33-.83.28-1,.28-.83.22c-.35.09-.7.16-1.06.23l-.8.17c-.38.07-.77.12-1.16.18l-.75.11c-.43,0-.88.09-1.32.12l-.62.06c-.65,0-1.31.06-2,.06s-1.32,0-2-.06l-.62-.06q-.68,0-1.32-.12l-.75-.11c-.39-.06-.78-.11-1.16-.18l-.8-.17c-.36-.07-.71-.14-1.06-.23l-.83-.22-1-.28-.83-.28-1-.33c-.28-.1-.55-.22-.83-.33l-.9-.37-.82-.39-.86-.41-.8-.44-.82-.46c-.27-.15-.53-.32-.79-.48l-.78-.5c-.26-.17-.51-.35-.76-.53l-.75-.53-.73-.58-.71-.57c-.24-.2-.47-.41-.7-.62l-.67-.61c-.23-.21-.45-.43-.67-.65s-.43-.43-.63-.65l-.64-.69-.59-.69-.6-.72c-.08-.11-.17-.21-.25-.31h0c-.22-.28-.44-.55-.64-.83l-.64.83h0l-.26.31-.59.72-.59.69-.64.69c-.21.22-.41.43-.63.64s-.44.45-.67.66l-.67.61-.71.62-.7.57c-.24.2-.49.39-.74.58l-.73.53-.77.53-.78.5c-.26.16-.52.33-.79.48l-.82.46-.8.44-.86.41-.82.39-.9.37c-.28.11-.55.23-.83.33l-1,.33-.83.28-1,.28-.83.22c-.35.09-.7.16-1.06.23l-.8.17c-.38.07-.77.12-1.16.18l-.75.11c-.43,0-.88.09-1.32.12l-.62.06c-.65,0-1.31.06-2,.06s-1.32,0-2-.06l-.63-.06c-.44,0-.88-.07-1.31-.12l-.76-.11c-.38-.06-.77-.11-1.15-.18l-.8-.17c-.36-.07-.71-.14-1.06-.23l-.83-.22-1-.28L81,69.57c-.32-.11-.64-.21-.95-.33s-.55-.22-.82-.33l-.91-.37-.82-.38-.86-.43c-.27-.13-.54-.28-.8-.43L75,66.84q-.39-.23-.78-.48l-.78-.5-.76-.52-.75-.55c-.25-.18-.49-.37-.73-.57l-.71-.57c-.24-.2-.47-.41-.7-.62l-.67-.61-.67-.65c-.22-.22-.43-.43-.64-.66l-.63-.68-.6-.69L66,59a3.88,3.88,0,0,1-.26-.31h0c-.22-.28-.44-.55-.64-.83h0l-.64.83h0l-.26.31-.59.72-.59.69-.64.69-.63.65c-.22.22-.44.44-.67.65l-.67.61-.71.62-.7.57c-.24.2-.49.39-.74.58l-.74.53c-.25.18-.5.36-.76.53s-.52.34-.79.5-.51.33-.78.48l-.82.46c-.27.15-.53.3-.8.43l-.87.43-.81.38-.91.37-.82.33-1,.33-.83.28-1,.28-.83.22c-.35.09-.7.16-1.06.23l-.8.17-1.16.18L42.8,71q-.66.08-1.32.12l-.62.06c-.65,0-1.31.06-2,.06A32.44,32.44,0,0,1,6.54,40.55c0-.55,0-1.1,0-1.66A32.43,32.43,0,0,1,38.89,6.5H39c.63,0,1.24,0,1.86.06l.7.06,1.24.11.79.12L44.7,7l.84.18,1,.22.85.23,1,.28.85.28.93.32.85.34.88.37c.28.12.56.25.83.39l.85.41c.28.14.55.29.82.44l.81.45.79.49.78.49.77.54.73.53c.25.19.5.38.74.58s.47.37.7.57l.71.62.67.6.67.66.63.65.64.69.59.68.6.73c.08.1.17.2.25.31h0c.21.27.43.54.64.83.2-.29.42-.56.64-.83h0c.08-.11.17-.21.25-.31l.6-.73c.19-.23.39-.46.59-.68l.64-.69c.2-.22.41-.44.63-.65s.44-.44.67-.65l.66-.61.71-.62c.23-.2.47-.39.7-.57s.49-.39.75-.58.48-.36.73-.53l.77-.54.78-.49.79-.49.81-.45.81-.44.85-.41c.28-.14.55-.27.83-.39l.89-.37.85-.34L81,8.21l.86-.28,1-.28.85-.23,1-.22L85.52,7l1.1-.17.8-.12,1.24-.11c.23,0,.46,0,.7-.06.61,0,1.23-.06,1.85-.06h.24c.62,0,1.23,0,1.85.06l.7.06,1.24.11.79.12L97.14,7,98,7.2l1,.22.85.23,1,.28.86.28.92.32.85.34.88.37c.28.12.56.26.84.39L106,10c.28.14.55.29.82.44l.81.45.8.49.76.49.78.54c.25.17.49.35.73.53l.75.58q.34.27.69.57l.72.62.65.6c.24.22.46.44.69.67l.62.64c.22.22.43.46.64.69s.4.45.59.68l.6.73c.08.1.17.2.25.31h0c.21.27.43.54.64.83.2-.29.42-.56.64-.83h0c.08-.11.17-.21.25-.31L119,18c.19-.23.39-.45.59-.68l.64-.69c.2-.22.41-.44.62-.65l.68-.66.66-.6c.24-.21.47-.42.72-.62l.69-.57.75-.58c.24-.18.48-.36.73-.53l.77-.54.78-.49.79-.49.81-.45.81-.44.85-.41c.28-.13.55-.27.83-.39l.89-.37.85-.34.92-.32.86-.28,1-.28.85-.23,1-.22L138,7l1.1-.17.8-.12,1.24-.11.7-.06c.61,0,1.23-.06,1.85-.06h.24c.62,0,1.24,0,1.85.06l.7.06,1.24.11.8.12,1.1.17.84.18,1,.22.85.23,1,.28.86.28.92.32.85.34.88.37c.29.12.56.26.84.39l.84.41c.28.14.55.29.82.44l.81.45.79.49.78.49.77.54c.25.17.49.35.73.53l.75.58q.34.27.69.57l.72.62.66.6.67.66c.22.21.43.43.63.65l.64.69c.2.23.4.45.59.68l.6.73c.08.1.17.2.25.31h0c.22.27.44.54.64.83.21-.29.42-.56.64-.83h0c.08-.11.17-.21.25-.31l.6-.73.59-.68c.21-.23.42-.47.64-.7l.62-.63.68-.67.66-.6.72-.63.69-.56.75-.58c.24-.18.48-.36.73-.53l.78-.54.76-.49.8-.49.81-.45c.27-.15.54-.3.82-.44l.84-.41c.28-.13.55-.27.84-.39l.88-.37.85-.34.92-.32.86-.28,1-.28.86-.23,1-.22L190.4,7l1.1-.17.8-.12,1.24-.11.7-.06c.61,0,1.23-.06,1.85-.06h.12A32.43,32.43,0,0,1,228.6,38.89c0,.56,0,1.11,0,1.66A32.44,32.44,0,0,1,196.21,71.28Z"/></g></g></svg>