<svg xmlns="http://www.w3.org/2000/svg" viewBox="0 0 235.1 77.78"><defs><style>.cls-1{fill:#173d4f;}</style></defs><g id="圖層_2" data-name="圖層 2"><g id="_0-ui_kits" data-name="0-ui_kits"><path class="cls-1" d="M196.21,2A36.89,36.89,0,1,1,170,64.8a36.8,36.8,0,0,1-52.44,0,36.8,36.8,0,0,1-52.44,0,36.89,36.89,0,1,1,0-51.83,36.82,36.82,0,0,1,52.44,0A36.82,36.82,0,0,1,170,13,36.76,36.76,0,0,1,196.21,2m0-2A38.57,38.57,0,0,0,170,10.2a38.8,38.8,0,0,0-52.44,0,38.8,38.8,0,0,0-52.44,0A38.88,38.88,0,1,0,38.89,77.78a38.57,38.57,0,0,0,26.22-10.2,38.8,38.8,0,0,0,52.44,0,38.8,38.8,0,0,0,52.44,0A38.88,38.88,0,1,0,196.21,0Z"/><path class="cls-1" d="M196.21,6.5A32.39,32.39,0,1,1,170,57.87a32.34,32.34,0,0,1-52.44,0,32.34,32.34,0,0,1-52.44,0,32.39,32.39,0,1,1,0-38,32.34,32.34,0,0,1,52.44,0,32.34,32.34,0,0,1,52.44,0A32.35,32.35,0,0,1,196.21,6.5m0-1A33.51,33.51,0,0,0,170,18.25a33.34,33.34,0,0,0-52.44,0,33.34,33.34,0,0,0-52.44,0,33.39,33.39,0,1,0,0,41.28,33.34,33.34,0,0,0,52.44,0,33.34,33.34,0,0,0,52.44,0,33.38,33.38,0,1,0,26.22-54Z"/></g></g></svg>