<?xml version="1.0" encoding="utf-8"?>
<!-- Generator: Adobe Illustrator 25.2.0, SVG Export Plug-In . SVG Version: 6.00 Build 0)  -->
<svg version="1.1" id="圖層_1" xmlns="http://www.w3.org/2000/svg" xmlns:xlink="http://www.w3.org/1999/xlink" x="0px" y="0px"
	 viewBox="0 0 235.1 77.8" style="enable-background:new 0 0 235.1 77.8;" xml:space="preserve">
<style type="text/css">
	.st0{fill:#FFFFFF;}
</style>
<g>
	<path class="st0" d="M222.5,10.2C215.3,3.6,205.9,0,196.2,0c-9.7,0-19.1,3.6-26.2,10.2c-6.8-6.2-15.2-9.6-23.7-10.1
		c-0.1,0-0.1,0-0.2,0c-0.4,0-0.8,0-1.3-0.1c-0.2,0-0.3,0-0.5,0c-0.4,0-0.7,0-1.1,0c-0.2,0-0.4,0-0.7,0c-0.3,0-0.6,0-0.9,0
		c-0.3,0-0.6,0-0.9,0.1c-0.2,0-0.5,0-0.7,0.1c-0.4,0-0.8,0.1-1.1,0.1c-0.2,0-0.3,0-0.5,0.1c-0.5,0.1-1,0.2-1.6,0.3c0,0,0,0-0.1,0
		c-7,1.3-13.6,4.4-19.2,9.5C110.6,3.8,101.9,0.4,93.1,0c-0.2,0-0.4,0-0.7,0c-0.3,0-0.7,0-1,0c-0.4,0-0.7,0-1.1,0c-0.2,0-0.4,0-0.6,0
		c-0.4,0-0.8,0-1.3,0.1c-0.1,0-0.3,0-0.4,0c-0.5,0-0.9,0.1-1.4,0.1c-0.1,0-0.2,0-0.3,0c-0.5,0.1-1,0.1-1.5,0.2c0,0-0.1,0-0.1,0
		c-0.5,0.1-1,0.2-1.6,0.3c0,0,0,0,0,0c-6.6,1.4-12.9,4.5-18.2,9.4C57.9,3.6,48.6,0,38.9,0c-9.7,0-19.1,3.6-26.2,10.2
		c-15.9,14.5-17,39.1-2.5,54.9c14.5,15.9,39.1,17,54.9,2.5C71.7,73.7,80,77,88.4,77.7c0,0,0,0,0.1,0c0.5,0,1.1,0.1,1.6,0.1
		c0.1,0,0.2,0,0.3,0c0.5,0,0.9,0,1.4,0c0.2,0,0.3,0,0.5,0c0.4,0,0.8,0,1.2,0c0.2,0,0.5,0,0.7,0c0.3,0,0.6,0,1-0.1
		c0.3,0,0.6-0.1,1-0.1c0.2,0,0.5-0.1,0.7-0.1c0.4-0.1,0.8-0.1,1.2-0.2c0.1,0,0.3,0,0.4-0.1c0.5-0.1,1-0.2,1.5-0.3c0.1,0,0.1,0,0.2,0
		c6.3-1.5,12.4-4.5,17.5-9.2c6,5.5,13.4,8.8,20.9,9.8c0.1,0,0.2,0,0.3,0c0.5,0.1,0.9,0.1,1.4,0.2c0.3,0,0.6,0,0.9,0.1
		c0.2,0,0.5,0,0.7,0c0.4,0,0.8,0,1.2,0c0.2,0,0.3,0,0.5,0c0.4,0,0.9,0,1.3,0c0.1,0,0.2,0,0.3,0c0.5,0,1,0,1.5-0.1c0,0,0.1,0,0.1,0
		c8.4-0.6,16.7-4,23.4-10.1c15.9,14.5,40.4,13.4,54.9-2.5C239.4,49.3,238.3,24.7,222.5,10.2z M196.2,75.9L196.2,75.9l-2.4-0.1
		l-1.2-0.1l-0.7-0.1l-1.1-0.1l-0.7-0.1c-0.4-0.1-0.7-0.1-1.1-0.2c-0.3-0.1-0.5-0.1-0.7-0.1l-1-0.2l-0.7-0.2l-1-0.3l-0.7-0.2
		c-0.4-0.1-0.7-0.2-1-0.4l-0.6-0.2c-0.4-0.1-0.7-0.3-1-0.4l-0.6-0.2l-1.1-0.5L180,72c-0.4-0.2-0.8-0.4-1.1-0.6l-0.4-0.2
		c-0.4-0.2-0.8-0.5-1.2-0.7l-0.2-0.2c-2-1.2-3.8-2.6-5.5-4.1c-0.5-0.4-1-0.9-1.5-1.4c-0.5,0.5-1,0.9-1.5,1.4c-1,0.9-2.1,1.8-3.2,2.6
		c0,0,0,0,0,0c-0.7,0.5-1.5,1.1-2.3,1.5l-0.4,0.2c-0.4,0.2-0.8,0.5-1.2,0.7l-0.4,0.2c-0.4,0.2-0.8,0.4-1.1,0.6l-0.5,0.2l-1.1,0.5
		l-0.6,0.2c-0.3,0.2-0.6,0.3-1,0.4l-0.6,0.2c-0.1,0-0.2,0.1-0.3,0.1l-0.3,0.1c-0.1,0-0.2,0.1-0.4,0.1l-0.7,0.2l-1,0.3l-0.7,0.2
		l-1,0.2c-0.2,0.1-0.4,0.1-0.7,0.2s-0.7,0.1-1.1,0.2l-0.7,0.1l-1.1,0.1l-0.8,0.1l-1.2,0.1h-4.7l-1.1-0.1l-0.7-0.1l-1.1-0.1l-0.7-0.1
		l-1.1-0.2c-0.2,0-0.5-0.1-0.7-0.2l-1.1-0.2l-0.7-0.2l-1-0.3l-0.7-0.2l-1-0.4l-0.6-0.2l-0.9-0.3l-0.4-0.1l-0.6-0.2
		c-0.4-0.1-0.7-0.3-1.1-0.5l-0.5-0.2c-0.4-0.2-0.8-0.4-1.1-0.6l-0.4-0.2c-0.4-0.2-0.8-0.5-1.2-0.7l-0.2-0.1
		c-1.5-0.9-2.9-1.9-4.3-3.1c-0.4-0.3-0.8-0.7-1.2-1.1c-0.1-0.1-0.3-0.3-0.4-0.4c-0.2-0.2-0.4-0.4-0.6-0.6c-0.1-0.1-0.3-0.3-0.4-0.4
		c0,0,0,0,0,0c0,0,0,0,0,0c-0.1,0.1-0.3,0.3-0.4,0.4c-0.2,0.2-0.4,0.4-0.6,0.6c-0.1,0.1-0.3,0.3-0.4,0.4c-0.4,0.4-0.8,0.7-1.2,1.1
		c-1.4,1.1-2.8,2.1-4.3,3.1l-0.2,0.2c-0.4,0.2-0.8,0.5-1.2,0.7l-0.4,0.2c-0.4,0.2-0.8,0.4-1.1,0.6l-0.5,0.2
		c-0.4,0.2-0.7,0.3-1.1,0.5l-0.6,0.2l-0.4,0.1l-0.9,0.3l-0.6,0.2l-1,0.4l-0.7,0.2l-1,0.3l-0.7,0.2l-1,0.2c-0.2,0.1-0.5,0.2-0.7,0.2
		l-1.1,0.2l-0.7,0.1l-1.1,0.1l-0.7,0.1l-1.1,0.1H89l-1.2-0.1L87,75.5l-1.1-0.1l-0.7-0.1c-0.3-0.1-0.7-0.1-1.1-0.2
		c-0.3-0.1-0.5-0.1-0.7-0.2l-1.1-0.2l-0.7-0.2l-1-0.3L79.9,74c-0.1,0-0.2-0.1-0.4-0.1l-0.3-0.1c-0.1,0-0.2-0.1-0.3-0.1l-0.6-0.2
		c-0.3-0.1-0.7-0.3-1-0.4l-0.6-0.2l-1.1-0.5L75.2,72c-0.4-0.2-0.8-0.4-1.1-0.6l-0.4-0.2c-0.4-0.2-0.8-0.5-1.2-0.7L72,70.3
		c-1.9-1.2-3.6-2.5-5.3-3.9c0,0,0,0,0,0c-0.1-0.1-0.1-0.1-0.2-0.2c-0.4-0.5-1-0.9-1.4-1.4c-0.5,0.5-1,0.9-1.5,1.4
		c-1.7,1.5-3.5,2.9-5.5,4.1l-0.2,0.1c-0.4,0.2-0.8,0.5-1.2,0.7l-0.4,0.2c-0.4,0.2-0.8,0.4-1.1,0.6l-0.6,0.3l-1.1,0.5l-0.6,0.2
		c-0.3,0.2-0.6,0.3-1,0.4l-0.6,0.2c-0.3,0.1-0.7,0.2-1,0.4l-0.7,0.2l-1,0.3l-0.7,0.2l-1,0.2c-0.2,0-0.4,0.1-0.7,0.2
		c-0.4,0.1-0.7,0.1-1.1,0.2l-0.7,0.1l-1.1,0.1l-0.7,0.1l-1.2,0.1h-2.4l0,0.1C18.5,75.9,2,59.4,2,39C2,18.6,18.5,2.1,38.9,2.1h2.4
		c0.4,0,0.8,0.1,1.2,0.1l0.7,0.1c0.4,0,0.8,0.1,1.1,0.1l0.7,0.1l1.2,0.2L47,2.9C47.3,3,47.6,3,48,3.1l0.7,0.2l1,0.3l0.7,0.2l1,0.3
		l0.6,0.2l1,0.4l0.6,0.2l1.1,0.5l0.5,0.2l1.3,0.6l0.4,0.2c0.4,0.2,0.8,0.5,1.2,0.7l0.2,0.1c2,1.2,3.8,2.6,5.5,4.1
		c0.5,0.5,1,0.9,1.4,1.4c0.5-0.5,1-0.9,1.5-1.4c1.7-1.5,3.5-2.9,5.5-4.1l0.3-0.1c0.4-0.2,0.8-0.5,1.2-0.7c0.1-0.1,0.3-0.1,0.4-0.2
		l1.1-0.6l0.5-0.2l1.1-0.5l0.6-0.2l1-0.4l0.6-0.2l1-0.3l0.7-0.2c0.3-0.1,0.7-0.2,1-0.3l0.7-0.2c0.3-0.1,0.7-0.2,1-0.2l0.7-0.2
		l1.1-0.2l0.7-0.1c0.4-0.1,0.7-0.1,1.1-0.1l0.7-0.1c0.1,0,0.2,0,0.3,0c0.2,0,0.3,0,0.5,0c0.2,0,0.3,0,0.5,0h4.6c0.2,0,0.3,0,0.5,0
		c0.2,0,0.3,0,0.5,0c0.1,0,0.2,0,0.3,0l0.7,0.1c0.4,0,0.7,0.1,1.1,0.1l0.7,0.1l1.1,0.2l0.7,0.2c0.4,0.1,0.7,0.2,1,0.2l0.7,0.2
		c0.4,0.1,0.7,0.2,1,0.3l0.7,0.2l1,0.3l0.6,0.2l1,0.4l0.6,0.2l1.1,0.5l0.5,0.2l1.1,0.6l0.4,0.2c0.4,0.2,0.8,0.5,1.2,0.7l0.3,0.1
		c2,1.2,3.8,2.6,5.5,4.1c0.5,0.5,1,0.9,1.5,1.4c0.1-0.1,0.2-0.2,0.3-0.2c0.1,0.1,0.2,0.2,0.3,0.2c0.5-0.5,1-0.9,1.5-1.4
		c1.7-1.5,3.5-2.9,5.5-4.1l0.3-0.1c0.4-0.2,0.8-0.5,1.2-0.7l0.4-0.2l1.1-0.6l0.5-0.2l1.1-0.5l0.6-0.2l1.1-0.4l0.6-0.2l1-0.3l0.7-0.2
		c0.3-0.1,0.7-0.2,1-0.3l0.7-0.2c0.3-0.1,0.7-0.2,1-0.2l0.7-0.2l1.1-0.2l0.7-0.1c0.4-0.1,0.7-0.1,1.1-0.1l0.7-0.1c0.1,0,0.2,0,0.3,0
		c0.2,0,0.3,0,0.5,0c0.2,0,0.3,0,0.5,0h4.6c0.2,0,0.3,0,0.5,0c0.2,0,0.3,0,0.5,0c0.1,0,0.2,0,0.3,0l0.7,0.1c0.4,0,0.8,0.1,1.1,0.1
		l0.7,0.1l1.1,0.2l0.7,0.2c0.4,0.1,0.7,0.2,1,0.2l0.7,0.2c0.3,0.1,0.7,0.2,1,0.3l0.7,0.2l1,0.3l0.6,0.2l1,0.4l0.6,0.2l1.1,0.5
		l0.5,0.2l1.1,0.6c0.1,0.1,0.3,0.1,0.4,0.2c0.4,0.2,0.8,0.5,1.2,0.7l0.3,0.1c2,1.2,3.8,2.6,5.5,4.1c0.5,0.5,1,0.9,1.5,1.4
		c0.5-0.5,1-0.9,1.5-1.4c1.7-1.5,3.5-2.9,5.5-4.1l0.2-0.1c0.4-0.2,0.8-0.5,1.2-0.7l0.4-0.2l1.3-0.6l0.5-0.2l1.1-0.5l0.6-0.2l1-0.4
		l0.6-0.2l1-0.3l0.7-0.2l1-0.3l0.7-0.2c0.3-0.1,0.7-0.2,1-0.2l0.7-0.2l1.2-0.2l0.7-0.1c0.4-0.1,0.7-0.1,1.1-0.1l0.7-0.1
		c0.4,0,0.8-0.1,1.2-0.1h2.4c20.4,0,36.9,16.5,36.9,36.9C233.1,59.4,216.6,75.9,196.2,75.9z"/>
	<path class="st0" d="M222.5,18.3c-6.3-8.1-16-12.8-26.3-12.8l0,0c-10.2,0-19.9,4.7-26.2,12.8c-7.7-9.8-19.8-14.1-31.4-12.3
		c-0.1,0-0.1,0-0.2,0c-0.4,0.1-0.7,0.1-1.1,0.2c-0.2,0-0.3,0.1-0.5,0.1c-0.3,0.1-0.6,0.1-0.9,0.2c-0.2,0.1-0.5,0.1-0.7,0.2
		c-0.2,0.1-0.4,0.1-0.7,0.2c-0.3,0.1-0.6,0.2-0.9,0.3c-0.1,0-0.3,0.1-0.4,0.1c-0.4,0.1-0.8,0.3-1.2,0.4c-0.1,0-0.1,0-0.2,0.1
		c-5.4,2.1-10.4,5.6-14.3,10.5c-4.6-5.9-10.8-9.7-17.4-11.6c-0.2-0.1-0.5-0.1-0.7-0.2c-0.3-0.1-0.5-0.1-0.8-0.2
		c-0.5-0.1-0.9-0.2-1.4-0.3c-0.1,0-0.1,0-0.2,0c-2.1-0.4-4.2-0.5-6.3-0.5c0,0,0,0,0,0c-0.5,0-1,0-1.5,0.1c0,0,0,0-0.1,0
		c-0.5,0-1,0.1-1.6,0.1c0,0,0,0,0,0c-8.5,1-16.7,5.2-22.5,12.5c-6.3-8-16-12.7-26.2-12.8l0,0c-10.3,0-19.9,4.7-26.3,12.8
		C1.2,32.8,3.7,53.8,18.2,65.1c14.5,11.4,35.5,8.9,46.9-5.6c1.7,2.1,3.6,4,5.7,5.7c6.4,5,14.1,7.3,21.6,7.1
		c6.9-0.2,13.7-2.5,19.6-7.1c2.1-1.6,4-3.5,5.6-5.6c1.6,2.1,3.5,4,5.6,5.6c5.4,4.2,11.7,6.5,18.1,7c0.1,0,0.2,0,0.3,0
		c0.4,0,0.8,0,1.1,0.1c0.2,0,0.4,0,0.6,0c0.2,0,0.5,0,0.7,0c0.3,0,0.6,0,0.9,0c0,0,0.1,0,0.1,0c6.8-0.2,13.6-2.6,19.3-7.1
		c2.1-1.7,4-3.6,5.7-5.7c11.4,14.5,32.4,17,46.9,5.6C231.4,53.8,233.9,32.8,222.5,18.3z M196.2,71.3c-0.7,0-1.3,0-2-0.1l-0.6-0.1
		c-0.4,0-0.9-0.1-1.3-0.1l-0.8-0.1c-0.4-0.1-0.8-0.1-1.1-0.2l-0.8-0.2c-0.4-0.1-0.7-0.1-1.1-0.2l-0.8-0.2l-1-0.3l-0.8-0.3l-1-0.3
		c-0.3-0.1-0.5-0.2-0.8-0.3l-0.9-0.4l-0.8-0.4l-0.9-0.4l-0.8-0.4l-0.8-0.5c-0.3-0.2-0.5-0.3-0.8-0.5l-0.8-0.5
		c-0.3-0.2-0.5-0.3-0.8-0.5l-0.7-0.5c-0.2-0.2-0.5-0.4-0.7-0.6l-0.7-0.6l-0.7-0.6l-0.7-0.6c-0.2-0.2-0.4-0.4-0.7-0.7
		c-0.2-0.2-0.4-0.4-0.6-0.6l-0.6-0.7l-0.6-0.7l-0.6-0.7c-0.1-0.1-0.2-0.2-0.2-0.3l-0.6-0.8c-0.2,0.3-0.4,0.5-0.6,0.8
		c-0.1,0.1-0.2,0.2-0.3,0.3l-0.6,0.7c-0.2,0.2-0.4,0.5-0.6,0.7c-0.2,0.2-0.4,0.5-0.6,0.7c-0.2,0.2-0.4,0.4-0.6,0.7
		c-0.2,0.2-0.4,0.4-0.7,0.7l-0.7,0.6c-0.2,0.2-0.5,0.4-0.7,0.6l-0.7,0.6l-0.7,0.6l-0.8,0.5c-0.2,0.2-0.5,0.4-0.8,0.5l-0.8,0.5
		c-0.3,0.2-0.5,0.3-0.8,0.5l-0.8,0.5l-0.8,0.4l-0.9,0.4l-0.8,0.4l-0.9,0.4c-0.3,0.1-0.6,0.2-0.8,0.3l-1,0.3l-0.8,0.3l-1,0.3
		l-0.8,0.2c-0.4,0.1-0.7,0.2-1.1,0.2l-0.8,0.2c-0.4,0.1-0.8,0.1-1.2,0.2l-0.8,0.1c-0.4,0-0.9,0.1-1.3,0.1l-0.6,0.1
		c-0.6,0-1.2,0-1.8,0.1c-0.6,0-1.2-0.1-1.8-0.1l-0.6-0.1c-0.4,0-0.9-0.1-1.3-0.1l-0.8-0.1c-0.4-0.1-0.8-0.1-1.2-0.2l-0.8-0.2
		c-0.4-0.1-0.7-0.1-1.1-0.2l-0.8-0.2l-1-0.3l-0.8-0.3l-1-0.3c-0.3-0.1-0.5-0.2-0.8-0.3l-0.9-0.4l-0.8-0.4l-0.9-0.4l-0.8-0.4
		l-0.8-0.5c-0.3-0.1-0.5-0.3-0.8-0.5l-0.8-0.5l-0.8-0.5l-0.7-0.5c-0.2-0.2-0.5-0.4-0.7-0.6l-0.7-0.6l-0.7-0.6l-0.7-0.6
		c-0.2-0.2-0.5-0.5-0.7-0.7c-0.2-0.2-0.4-0.4-0.6-0.6l-0.6-0.7l-0.6-0.7l-0.6-0.7l-0.3-0.3l-0.6-0.8c-0.1,0.1-0.1,0.2-0.2,0.3
		c-0.1-0.1-0.1-0.2-0.2-0.3l-0.6,0.8l-0.3,0.3l-0.6,0.7l-0.6,0.7l-0.6,0.7c-0.2,0.2-0.4,0.4-0.6,0.6c-0.2,0.2-0.4,0.5-0.7,0.7
		l-0.7,0.6l-0.7,0.6l-0.7,0.6c-0.2,0.2-0.5,0.4-0.7,0.6l-0.7,0.5l-0.8,0.5l-0.8,0.5c-0.3,0.2-0.5,0.3-0.8,0.5l-0.8,0.5l-0.8,0.4
		l-0.9,0.4l-0.8,0.4l-0.9,0.4c-0.3,0.1-0.6,0.2-0.8,0.3l-1,0.3l-0.8,0.3l-1,0.3l-0.8,0.2c-0.3,0.1-0.7,0.2-1.1,0.2l-0.8,0.2
		c-0.4,0.1-0.8,0.1-1.2,0.2L95,71c-0.4,0-0.9,0.1-1.3,0.1L93,71.2c-0.6,0-1.2,0-1.8,0.1c-0.6,0-1.2-0.1-1.8-0.1l-0.6-0.1
		c-0.4,0-0.9-0.1-1.3-0.1l-0.8-0.1c-0.4-0.1-0.8-0.1-1.2-0.2l-0.8-0.2c-0.4-0.1-0.7-0.1-1.1-0.2l-0.8-0.2l-1-0.3l-0.8-0.3l-0.9-0.3
		c-0.3-0.1-0.6-0.2-0.8-0.3l-0.9-0.4l-0.8-0.4l-0.9-0.4l-0.8-0.4l-0.8-0.5c-0.3-0.1-0.5-0.3-0.8-0.5l-0.8-0.5
		c-0.3-0.2-0.5-0.3-0.8-0.5L72,64.8l-0.7-0.6l-0.7-0.6c-0.2-0.2-0.5-0.4-0.7-0.6l-0.7-0.6c-0.2-0.2-0.4-0.4-0.7-0.7
		c-0.2-0.2-0.4-0.4-0.6-0.7c-0.2-0.2-0.4-0.5-0.6-0.7c-0.2-0.2-0.4-0.5-0.6-0.7L66.1,59c-0.1-0.1-0.2-0.2-0.3-0.3
		c-0.2-0.3-0.4-0.5-0.6-0.8l-0.6,0.8c-0.1,0.1-0.2,0.2-0.2,0.3l-0.6,0.7l-0.6,0.7l-0.6,0.7c-0.2,0.2-0.4,0.4-0.6,0.6
		c-0.2,0.2-0.4,0.5-0.7,0.7L60.5,63l-0.7,0.6l-0.7,0.6c-0.2,0.2-0.5,0.4-0.7,0.6l-0.7,0.5c-0.2,0.2-0.5,0.4-0.8,0.5l-0.8,0.5
		c-0.3,0.2-0.5,0.3-0.8,0.5l-0.8,0.5l-0.8,0.4l-0.9,0.4L52,68.5l-0.9,0.4c-0.3,0.1-0.5,0.2-0.8,0.3l-1,0.3l-0.8,0.3l-1,0.3l-0.8,0.2
		c-0.3,0.1-0.7,0.2-1,0.2l-0.8,0.2c-0.4,0.1-0.8,0.1-1.2,0.2L42.8,71c-0.4,0-0.9,0.1-1.3,0.1l-0.6,0.1c-0.7,0.1-1.3,0.1-2,0.1
		c-17.2,0-31.5-13.5-32.4-30.7v-1.7C6.5,21,21,6.5,38.9,6.5H39c0.6,0,1.2,0.1,1.8,0.1l0.7,0.1l1.2,0.1l0.8,0.1L44.7,7l0.8,0.2l1,0.2
		l0.9,0.2l1,0.3l0.9,0.3l0.9,0.3l0.9,0.3l0.9,0.4c0.3,0.1,0.6,0.3,0.8,0.4l0.8,0.4c0.3,0.1,0.5,0.3,0.8,0.4l0.8,0.5l0.8,0.5l0.8,0.5
		l0.8,0.5c0.2,0.2,0.5,0.3,0.7,0.5l0.8,0.6l0.7,0.6l0.7,0.6l0.7,0.6l0.7,0.7l0.6,0.6c0.2,0.2,0.4,0.5,0.6,0.7l0.6,0.7l0.6,0.7
		c0.1,0.1,0.2,0.2,0.2,0.3c0.2,0.3,0.4,0.5,0.6,0.8c0.2-0.3,0.4-0.6,0.6-0.8c0.1-0.1,0.2-0.2,0.2-0.3l0.6-0.7
		c0.2-0.2,0.4-0.5,0.6-0.7l0.6-0.7c0.2-0.2,0.4-0.4,0.6-0.7l0.7-0.7l0.7-0.6l0.7-0.6c0.2-0.2,0.5-0.4,0.7-0.6l0.2-0.1c0,0,0,0,0,0
		c0.2-0.2,0.4-0.3,0.6-0.5c0.3-0.2,0.5-0.4,0.7-0.5l0.8-0.5l0.8-0.5l0.8-0.5l0.8-0.5l0.8-0.4l0.9-0.4c0.3-0.1,0.5-0.3,0.8-0.4
		l0.9-0.4l0.9-0.3L81,8.2l0.9-0.3l1-0.3l0.9-0.2l1-0.2L85.5,7l1.1-0.2l0.8-0.1l1.2-0.1c0.2,0,0.5,0,0.7-0.1c0.6,0,1.2-0.1,1.9-0.1
		h0.2c0.6,0,1.2,0.1,1.9,0.1l0.7,0.1l1.2,0.1L96,6.8L97.1,7l0.3,0.1L98,7.2l1,0.2l0.8,0.2l1,0.3l0.9,0.3l0.9,0.3l0.8,0.3l0.9,0.4
		c0.3,0.1,0.6,0.3,0.8,0.4L106,10c0.3,0.1,0.5,0.3,0.8,0.4l0.8,0.5l0.8,0.5l0.8,0.5l0.8,0.5c0.2,0.2,0.5,0.3,0.7,0.5l0.8,0.6
		c0.2,0.2,0.5,0.4,0.7,0.6l0.7,0.6l0.7,0.6c0.2,0.2,0.5,0.4,0.7,0.7l0.6,0.6c0.2,0.2,0.4,0.5,0.6,0.7c0.2,0.2,0.4,0.4,0.6,0.7
		l0.6,0.7c0.1,0.1,0.2,0.2,0.2,0.3c0.2,0.3,0.4,0.5,0.6,0.8c0,0,0,0,0,0c0,0,0,0,0,0c0.2-0.3,0.4-0.6,0.6-0.8
		c0.1-0.1,0.2-0.2,0.2-0.3L119,18c0.2-0.2,0.4-0.5,0.6-0.7c0.2-0.2,0.4-0.5,0.6-0.7l0.6-0.6c0.2-0.2,0.5-0.5,0.7-0.7l0.7-0.6
		l0.7-0.6c0.2-0.2,0.5-0.4,0.7-0.6l0.8-0.6c0.2-0.2,0.5-0.4,0.7-0.5l0.8-0.5l0.8-0.5l0.8-0.5l0.8-0.5c0.3-0.2,0.5-0.3,0.8-0.4
		l0.8-0.4c0.3-0.1,0.6-0.3,0.8-0.4l0.9-0.4l0.8-0.3l0.9-0.3l0.9-0.3l1-0.3l0.8-0.2l1-0.2l0.6-0.1L138,7l1.1-0.2l0.8-0.1l1.2-0.1
		l0.7-0.1c0.6,0,1.2-0.1,1.8-0.1h0.2c0.6,0,1.2,0.1,1.8,0.1c0.2,0.1,0.5,0.1,0.7,0.1l1.2,0.1l0.8,0.1l1.1,0.2l0.8,0.2l1,0.2l0.8,0.2
		l1,0.3l0.9,0.3l0.9,0.3l0.8,0.3l0.9,0.4c0.3,0.1,0.5,0.2,0.8,0.4l0.8,0.4l0.8,0.4l0.8,0.5l0.8,0.5l0.7,0.5c0,0,0,0,0,0l0.1,0.1
		l0.8,0.5c0.2,0.2,0.5,0.3,0.7,0.5l0.8,0.6c0.2,0.2,0.5,0.4,0.7,0.6l0.7,0.6l0.7,0.6l0.7,0.7c0.2,0.2,0.4,0.4,0.6,0.6l0.6,0.7
		c0.2,0.2,0.4,0.5,0.6,0.7l0.6,0.7c0.1,0.1,0.2,0.2,0.2,0.3c0.2,0.3,0.4,0.5,0.6,0.8c0.2-0.3,0.4-0.6,0.6-0.8
		c0.1-0.1,0.2-0.2,0.2-0.3l0.6-0.7l0.6-0.7c0.2-0.2,0.4-0.5,0.6-0.7l0.6-0.6l0.7-0.7l0.7-0.6l0.7-0.6l0.7-0.6l0.8-0.6
		c0.2-0.2,0.5-0.4,0.7-0.5l0.8-0.5l0.8-0.5l0.8-0.5l0.8-0.5c0.3-0.2,0.5-0.3,0.8-0.4l0.8-0.4c0.3-0.1,0.5-0.3,0.8-0.4l0.9-0.4
		l0.8-0.3l0.9-0.3l0.9-0.3l1-0.3l0.9-0.2l1-0.2l0.8-0.2l1.1-0.2l0.8-0.1l1.2-0.1l0.7-0.1c0.6,0,1.2-0.1,1.9-0.1h0.1
		c17.9,0,32.4,14.5,32.4,32.4v1.7C227.7,57.8,213.5,71.3,196.2,71.3z"/>
</g>
</svg>
