<svg xmlns="http://www.w3.org/2000/svg" viewBox="0 0 235.1 77.78"><defs><style>.cls-1{fill:#fff;}.cls-2{fill:#173d4f;}</style></defs><g id="圖層_2" data-name="圖層 2"><g id="_0-ui_kits" data-name="0-ui_kits"><path class="cls-1" d="M143.77,2a36.89,36.89,0,1,1-36.89,36.89A36.93,36.93,0,0,1,143.77,2m0-2a38.89,38.89,0,1,0,38.89,38.89A38.94,38.94,0,0,0,143.77,0Z"/><path class="cls-1" d="M38.89,2A36.89,36.89,0,1,1,2,38.89,36.93,36.93,0,0,1,38.89,2m0-2A38.89,38.89,0,1,0,77.78,38.89,38.94,38.94,0,0,0,38.89,0Z"/><path class="cls-1" d="M196.21,2a36.89,36.89,0,1,1-36.89,36.89A36.93,36.93,0,0,1,196.21,2m0-2A38.89,38.89,0,1,0,235.1,38.89,38.94,38.94,0,0,0,196.21,0Z"/><path class="cls-1" d="M91.33,2A36.89,36.89,0,1,1,54.44,38.89,36.93,36.93,0,0,1,91.33,2m0-2a38.89,38.89,0,1,0,38.89,38.89A38.94,38.94,0,0,0,91.33,0Z"/><circle class="cls-2" cx="143.77" cy="38.89" r="36.89"/><circle class="cls-2" cx="38.89" cy="38.89" r="36.89"/><circle class="cls-2" cx="196.21" cy="38.89" r="36.89"/><circle class="cls-2" cx="91.33" cy="38.89" r="36.89"/><path class="cls-1" d="M143.77,6.5a32.39,32.39,0,1,1-32.39,32.39A32.43,32.43,0,0,1,143.77,6.5m0-1a33.39,33.39,0,1,0,33.39,33.39A33.43,33.43,0,0,0,143.77,5.5Z"/><path class="cls-1" d="M38.89,6.5A32.39,32.39,0,1,1,6.5,38.89,32.43,32.43,0,0,1,38.89,6.5m0-1A33.39,33.39,0,1,0,72.28,38.89,33.43,33.43,0,0,0,38.89,5.5Z"/><path class="cls-1" d="M196.21,6.5a32.39,32.39,0,1,1-32.39,32.39A32.43,32.43,0,0,1,196.21,6.5m0-1A33.39,33.39,0,1,0,229.6,38.89,33.43,33.43,0,0,0,196.21,5.5Z"/><path class="cls-1" d="M91.33,6.5A32.39,32.39,0,1,1,58.94,38.89,32.43,32.43,0,0,1,91.33,6.5m0-1a33.39,33.39,0,1,0,33.39,33.39A33.43,33.43,0,0,0,91.33,5.5Z"/><circle class="cls-2" cx="143.77" cy="38.89" r="32.39"/><circle class="cls-2" cx="38.89" cy="38.89" r="32.39"/><circle class="cls-2" cx="196.21" cy="38.89" r="32.39"/><circle class="cls-2" cx="91.33" cy="38.89" r="32.39"/></g></g></svg>