<svg xmlns="http://www.w3.org/2000/svg" viewBox="0 0 287.54 77.78"><defs><style>.cls-1{fill:#fff;}</style></defs><g id="圖層_2" data-name="圖層 2"><g id="_0-ori" data-name="0-ori"><path id="h1_5_w" class="cls-1" d="M248.65,0a38.74,38.74,0,0,0-26.22,10.2,38.8,38.8,0,0,0-52.44,0,38.8,38.8,0,0,0-52.44,0,38.8,38.8,0,0,0-52.44,0,38.89,38.89,0,1,0,0,57.38,38.8,38.8,0,0,0,52.44,0,38.8,38.8,0,0,0,52.44,0,38.8,38.8,0,0,0,52.44,0A38.88,38.88,0,1,0,248.65,0ZM278.2,60.94c-.35.48-.72.94-1.09,1.4a37.57,37.57,0,0,1-5,5c-.45.38-.92.74-1.39,1.1-.95.71-1.93,1.37-2.95,2-.5.31-1,.6-1.54.89a36.7,36.7,0,0,1-17.57,4.46h0c-.62,0-1.23,0-1.85,0l-.58,0-1.24-.1-.69-.08-1.11-.14-.72-.12-1.06-.2c-.24,0-.47-.1-.71-.15l-1-.24-.69-.19-1-.29-.66-.21-1-.36-.62-.23-1-.41-.57-.24-1.08-.5-.5-.24c-.38-.19-.76-.38-1.14-.59l-.4-.21c-.42-.23-.83-.47-1.24-.72l-.25-.15a37.62,37.62,0,0,1-5.5-4.13h0c-.5-.45-1-.9-1.45-1.38q-.7.72-1.44,1.38h0a37,37,0,0,1-5.49,4.13l-.26.15c-.41.25-.82.49-1.24.72l-.4.21c-.38.21-.76.4-1.14.59l-.5.24c-.36.17-.72.34-1.08.49l-.57.25-1.05.41-.62.23c-.34.13-.69.24-1,.36l-.66.21-1,.29-.69.19-1.05.24c-.23,0-.47.11-.71.15l-1.06.2-.71.12-1.12.14-.69.08-1.23.1-.59,0c-.61,0-1.23,0-1.85,0s-1.23,0-1.85,0l-.58,0-1.24-.1-.69-.08-1.11-.14-.72-.12-1.06-.2c-.24,0-.47-.1-.71-.15l-1-.24-.69-.19-1-.29-.66-.21-1-.36-.62-.23-1-.41-.57-.25c-.36-.15-.72-.32-1.08-.49L180,72c-.38-.19-.76-.38-1.14-.59l-.4-.21c-.42-.23-.83-.47-1.24-.72l-.26-.15a37.54,37.54,0,0,1-5.49-4.13h0c-.5-.45-1-.9-1.45-1.38-.47.48-1,.94-1.45,1.38h0a37.54,37.54,0,0,1-5.49,4.13l-.26.15c-.41.25-.82.49-1.24.72l-.4.21c-.38.21-.76.4-1.14.59l-.5.24c-.36.17-.72.34-1.08.49l-.57.25-1.05.41-.62.23-1,.36-.66.21-1,.29-.68.19-1.05.24c-.23,0-.47.11-.71.15l-1.06.2-.71.12-1.12.14-.69.08-1.24.1-.58,0c-.61,0-1.23,0-1.85,0s-1.24,0-1.85,0l-.58,0-1.24-.1-.69-.08-1.12-.14-.71-.12-1.06-.2c-.24,0-.48-.1-.71-.15l-1.05-.24-.69-.19-1-.29-.66-.21-1-.36-.62-.23L129.67,73l-.57-.25c-.36-.15-.72-.32-1.08-.49l-.5-.24c-.38-.19-.76-.38-1.13-.58l-.41-.22c-.42-.23-.83-.47-1.24-.72l-.26-.15A37,37,0,0,1,119,66.19h0c-.5-.45-1-.9-1.45-1.38-.47.48-1,.93-1.45,1.38h0a37.54,37.54,0,0,1-5.49,4.13l-.27.15q-.6.38-1.23.72l-.41.22c-.37.2-.75.39-1.13.58l-.5.24c-.36.17-.72.34-1.08.49l-.57.25-1.05.41-.63.23c-.34.13-.68.24-1,.36l-.66.21-1,.29-.7.19-1,.24c-.23,0-.47.11-.71.15l-1.06.2-.72.12-1.11.14-.69.08-1.24.1-.58,0c-.62,0-1.23,0-1.85,0s-1.24,0-1.85,0l-.59,0-1.23-.1L87,75.51l-1.12-.14-.71-.12-1.06-.2c-.24,0-.48-.1-.71-.15l-1.05-.24-.69-.19-1-.29L79.94,74c-.35-.12-.7-.23-1-.36l-.62-.23-1-.41-.57-.24-1.08-.5-.5-.24c-.38-.19-.76-.38-1.14-.59l-.4-.21c-.42-.23-.83-.47-1.24-.72L72,70.32a37,37,0,0,1-5.49-4.13h0c-.49-.45-1-.9-1.44-1.38-.47.48-1,.94-1.45,1.38h0a37.62,37.62,0,0,1-5.5,4.13l-.25.15c-.41.25-.82.49-1.24.72l-.41.22c-.37.2-.75.39-1.13.58l-.5.24c-.36.17-.72.34-1.08.49L53,73l-1.05.41-.63.23c-.34.13-.68.24-1,.36l-.66.21-1,.29-.69.19-1,.24c-.24,0-.47.11-.71.15l-1.06.2-.72.12-1.11.14-.69.08-1.24.1-.58,0c-.62,0-1.23,0-1.85,0A36.89,36.89,0,0,1,38.89,2c.62,0,1.23,0,1.85,0l.58,0c.42,0,.83.05,1.24.09l.69.09c.37,0,.74.08,1.11.14l.72.12,1.06.19.71.16c.35.07.7.15,1,.24l.69.18c.35.1.7.19,1,.3l.66.21,1,.35.62.23L53,4.81l.57.24,1.08.49.5.24,1.13.59.41.22c.42.23.83.47,1.24.72l.25.15a37.62,37.62,0,0,1,5.5,4.13h0c.5.45,1,.91,1.45,1.38h0q.7-.7,1.44-1.38h0A37,37,0,0,1,72,7.46l.25-.15c.41-.25.83-.49,1.25-.72l.4-.22,1.14-.59.5-.23,1.08-.5.57-.24,1-.42.62-.23,1-.35.66-.21c.34-.11.69-.2,1-.3l.68-.18q.53-.14,1.05-.24l.71-.16,1.06-.19.71-.12c.37-.06.75-.1,1.12-.14l.69-.09c.41,0,.82-.06,1.23-.09l.59,0c.61,0,1.23,0,1.85,0s1.23,0,1.85,0l.59,0c.41,0,.82.05,1.23.09l.69.09c.37,0,.74.08,1.11.14l.72.12,1.06.19.71.16c.35.07.7.15,1,.24l.7.18c.34.1.69.19,1,.3l.66.21,1,.35.62.23,1.05.42.57.24,1.07.49.51.24,1.13.59.41.22c.42.23.83.47,1.23.71l.27.16a37.54,37.54,0,0,1,5.49,4.13h0c.5.45,1,.91,1.45,1.38.47-.47,1-.93,1.45-1.38h0a37,37,0,0,1,5.49-4.13,2.26,2.26,0,0,0,.26-.16c.41-.24.82-.48,1.24-.71.13-.08.27-.15.41-.22l1.13-.59.5-.24,1.08-.49.57-.24,1.05-.42.62-.23,1-.35L133,3.6c.34-.11.69-.2,1-.3l.7-.18c.34-.09.69-.17,1-.24l.71-.16,1.06-.19.71-.12c.37-.06.75-.1,1.12-.14l.69-.09c.41,0,.82-.06,1.23-.09l.59,0c.62,0,1.23,0,1.85,0s1.24,0,1.85,0l.58,0c.42,0,.83.05,1.24.09l.69.09c.37,0,.75.08,1.12.14l.71.12,1.06.19.71.16q.53.11,1.05.24l.68.18c.35.1.7.19,1,.3l.66.21,1,.35.62.23,1.05.42.57.24,1.08.5.5.23,1.14.59.4.22c.42.23.83.47,1.25.72l.24.15a37.1,37.1,0,0,1,5.5,4.13h0c.5.45,1,.91,1.45,1.38.47-.47.95-.93,1.45-1.38h0a37.1,37.1,0,0,1,5.5-4.13l.25-.15c.41-.25.82-.49,1.24-.72l.4-.22L180,5.78l.5-.23,1.08-.5.57-.24,1-.42.62-.23,1-.35.66-.21c.34-.11.69-.2,1-.3l.68-.18,1.05-.24.71-.16L190,2.53l.72-.12c.36-.06.74-.1,1.11-.14l.69-.09c.41,0,.82-.06,1.24-.09l.58,0c.62,0,1.23,0,1.85,0s1.24,0,1.85,0l.59,0,1.23.09.69.09c.37,0,.75.08,1.12.14l.71.12,1.06.19.71.16q.53.11,1.05.24l.68.18c.35.1.7.19,1,.3l.66.21,1,.35.62.23,1.05.42.57.24,1.08.5.5.23,1.14.59.4.22c.42.23.84.47,1.25.72l.25.15A37.54,37.54,0,0,1,221,11.59h0q.73.67,1.44,1.38c.47-.47.95-.93,1.45-1.38h0a37.62,37.62,0,0,1,5.5-4.13l.25-.15c.41-.25.82-.49,1.24-.72l.4-.22,1.14-.59.5-.23,1.08-.5.57-.24,1-.42.62-.23,1-.35.66-.21c.34-.11.69-.2,1-.3l.69-.18c.34-.09.69-.17,1-.24l.71-.16,1.06-.19.72-.12c.37-.06.74-.1,1.11-.14l.69-.09c.41,0,.82-.06,1.24-.09l.58,0c.62,0,1.23,0,1.85,0h0a36.7,36.7,0,0,1,17.57,4.46c.52.28,1,.58,1.54.89a34.61,34.61,0,0,1,2.95,2c.47.35.94.72,1.39,1.09a37.65,37.65,0,0,1,5,5c.37.45.74.92,1.09,1.39.71,1,1.37,1.93,2,2.94a36.82,36.82,0,0,1,0,38.23A35.22,35.22,0,0,1,278.2,60.94ZM248.65,5.5a33.34,33.34,0,0,0-26.22,12.75,33.34,33.34,0,0,0-52.44,0,33.34,33.34,0,0,0-52.44,0,33.34,33.34,0,0,0-52.44,0,33.4,33.4,0,1,0,0,41.27,33.32,33.32,0,0,0,52.44,0,33.32,33.32,0,0,0,52.44,0,33.32,33.32,0,0,0,52.44,0,33.38,33.38,0,1,0,26.22-54Zm21.77,57.35a32.56,32.56,0,0,1-6.34,4.51c-.92.5-1.86,1-2.83,1.37-.49.2-1,.4-1.47.58a32.33,32.33,0,0,1-11.13,2h0c-.66,0-1.32,0-2-.06l-.66-.06c-.43,0-.86-.07-1.28-.12l-.78-.11c-.37-.06-.75-.11-1.12-.18l-.82-.17c-.35-.07-.7-.14-1.05-.23l-.84-.23c-.33-.08-.66-.17-1-.27l-.85-.28c-.31-.11-.63-.21-.93-.33s-.56-.22-.84-.33l-.89-.37-.83-.39-.85-.41c-.28-.14-.55-.29-.82-.44l-.81-.46c-.27-.15-.53-.32-.79-.48l-.78-.5-.77-.53-.73-.53-.74-.58-.7-.57-.71-.62-.67-.61c-.23-.21-.45-.43-.67-.66l-.63-.64c-.22-.23-.43-.46-.64-.7s-.39-.45-.59-.68l-.6-.72c-.08-.11-.17-.21-.25-.31h0l-.64-.83h0c-.2.28-.42.55-.64.83h0a3.88,3.88,0,0,1-.26.31l-.59.72-.59.69-.64.69c-.2.22-.41.43-.63.64s-.44.45-.67.66l-.66.61-.71.62-.7.57-.75.58c-.24.18-.48.36-.73.53l-.77.53-.78.5c-.26.16-.52.33-.79.48l-.81.46-.81.44-.85.41-.83.39-.89.37c-.28.11-.56.23-.84.33s-.63.22-.94.33l-.84.28-1,.27-.85.23c-.34.09-.69.16-1,.23l-.82.17-1.13.18-.78.11c-.42,0-.85.08-1.28.12l-.66.06c-.65,0-1.31.06-2,.06s-1.32,0-2-.06l-.66-.06c-.43,0-.86-.07-1.28-.12l-.78-.11c-.37-.06-.75-.11-1.12-.18l-.83-.17c-.35-.07-.7-.14-1-.23l-.84-.23c-.33-.09-.66-.17-1-.27l-.85-.28c-.31-.11-.63-.21-.93-.33s-.57-.22-.85-.33l-.88-.37-.84-.39-.84-.41c-.28-.14-.55-.29-.82-.44l-.81-.46c-.27-.15-.53-.32-.79-.48l-.78-.5-.77-.53-.73-.53-.75-.58-.69-.57-.72-.62-.66-.61c-.23-.21-.45-.43-.68-.66l-.62-.64c-.22-.23-.43-.46-.64-.7l-.59-.67-.6-.73c-.08-.11-.17-.21-.25-.31h0l-.64-.83c-.2.28-.42.55-.64.83h0l-.26.31-.59.72-.59.69-.64.69c-.2.22-.41.43-.63.64s-.44.45-.67.66l-.66.61-.72.62-.69.57-.75.58-.73.53-.77.53-.78.5c-.26.16-.52.33-.79.48l-.81.46-.81.44-.85.41-.83.39-.89.37c-.28.11-.56.23-.85.33s-.62.22-.93.33l-.85.28c-.32.1-.65.18-1,.27l-.84.23c-.34.09-.69.16-1,.23l-.83.17c-.37.07-.74.12-1.12.18l-.78.11c-.42,0-.85.08-1.28.12l-.66.06c-.65,0-1.31.06-2,.06s-1.32,0-2-.06l-.66-.06c-.43,0-.86-.07-1.28-.12l-.78-.11L138,70.75l-.82-.17c-.35-.07-.7-.14-1-.23l-.85-.23c-.32-.09-.65-.17-1-.27l-.85-.28c-.31-.11-.63-.21-.93-.33s-.57-.22-.85-.33l-.89-.37-.83-.39-.85-.41-.81-.44-.81-.46c-.27-.15-.53-.32-.79-.48l-.78-.5-.77-.53-.73-.53-.75-.58-.69-.57c-.25-.2-.48-.41-.72-.62l-.66-.61c-.23-.21-.45-.43-.67-.66s-.43-.42-.63-.64-.43-.46-.64-.7-.4-.45-.59-.68l-.6-.72c-.08-.11-.17-.21-.25-.31h0c-.22-.28-.44-.55-.64-.83l-.64.83h0a3.88,3.88,0,0,1-.26.31l-.59.72-.59.69-.64.69c-.2.22-.42.43-.63.65s-.44.44-.67.65l-.67.61-.71.62-.7.57c-.24.2-.49.39-.74.58l-.73.53-.77.53-.78.5c-.26.16-.52.33-.79.48l-.81.46c-.27.15-.54.3-.82.44l-.85.41-.83.39-.89.37c-.28.11-.55.23-.84.33s-.62.22-.93.33l-.85.28c-.32.1-.65.18-1,.27l-.84.23c-.35.09-.7.16-1,.23l-.83.17c-.37.07-.75.12-1.13.18l-.77.11c-.42,0-.85.08-1.28.12l-.66.06c-.65,0-1.31.06-2,.06s-1.32,0-2-.06l-.66-.06c-.43,0-.86-.07-1.28-.12l-.78-.11-1.13-.18-.82-.17c-.35-.07-.7-.14-1-.23l-.85-.23-1-.27L81,69.57c-.31-.11-.63-.21-.94-.33s-.56-.22-.83-.33l-.9-.37-.82-.39-.86-.41-.81-.44L75,66.84c-.27-.15-.53-.32-.79-.48l-.78-.5-.77-.53-.74-.53-.73-.58-.71-.57L69.78,63l-.66-.61c-.23-.21-.45-.43-.67-.65l-.64-.65-.63-.69-.59-.69L66,59c-.08-.11-.17-.21-.25-.31h0c-.22-.28-.44-.55-.64-.83l-.64.83h0l-.26.31-.59.72-.59.69-.64.69-.63.64c-.22.23-.44.45-.67.66l-.67.61-.71.62-.7.57-.74.58-.73.53-.77.53-.78.5c-.26.16-.52.33-.79.48l-.81.46c-.27.15-.54.3-.82.44l-.85.41-.83.39-.89.37c-.28.11-.55.23-.84.33s-.62.22-.93.33l-.85.28c-.32.1-.65.18-1,.27l-.84.23c-.34.09-.69.16-1,.23l-.83.17c-.37.07-.75.12-1.12.18L42.8,71c-.42,0-.85.08-1.28.12l-.66.06c-.65,0-1.31.06-2,.06A32.44,32.44,0,0,1,8,48.51c-.16-.51-.31-1-.44-1.54a32.14,32.14,0,0,1-.65-3.16,33,33,0,0,1,0-9.85c.17-1.07.38-2.12.65-3.16.13-.51.28-1,.44-1.53A32.44,32.44,0,0,1,38.89,6.5c.66,0,1.32,0,2,.06l.66.06c.43,0,.86.06,1.28.11l.78.12L44.7,7c.28.05.55.12.83.18l1,.22.84.23,1,.28c.29.08.57.18.85.28l.93.32.84.34.89.37c.28.12.56.25.83.39l.85.41c.28.14.55.29.82.44l.81.45.79.49.78.49.77.54.73.53c.25.19.5.38.74.58s.47.37.7.57l.71.62.67.6.67.66.63.65.64.69.59.68c.2.24.4.48.59.73a3.88,3.88,0,0,1,.26.31h0c.21.27.43.54.64.83.2-.29.42-.56.64-.83h0c.08-.11.17-.21.25-.31q.3-.37.6-.72c.19-.24.39-.47.59-.69l.63-.69c.21-.22.42-.44.64-.65s.44-.44.67-.65l.67-.62.7-.61c.23-.2.47-.39.71-.58l.73-.57.74-.54.77-.53.78-.5.79-.48.81-.46.81-.43.86-.42.82-.38.9-.37L80,8.53,81,8.21c.28-.1.56-.2.84-.28l1-.28.84-.23,1-.22L85.51,7l1.13-.17.78-.12c.42-.05.85-.08,1.28-.11l.66-.06c.65,0,1.31-.06,2-.06s1.32,0,2,.06l.66.06c.43,0,.86.06,1.28.11l.77.12L97.14,7c.28.05.55.12.83.18l1,.22.84.23,1,.28c.29.08.57.18.85.28l.93.32.84.34.89.37c.28.12.56.26.84.39L106,10c.28.14.55.29.82.44l.81.45.79.49.78.49.77.54.73.53.75.58q.34.27.69.57l.71.62.67.6.67.66c.22.21.42.43.63.65l.64.69c.2.23.4.45.59.69s.4.47.59.72a3.88,3.88,0,0,1,.26.31h0c.21.27.43.54.64.83.2-.29.42-.56.64-.83h0c.08-.11.17-.21.25-.31L119,18c.19-.23.39-.45.59-.68s.42-.47.64-.69l.62-.65.68-.66.66-.6.72-.62.69-.57.75-.58c.24-.18.48-.36.73-.53l.77-.54.77-.49.8-.49.81-.45c.27-.15.54-.3.82-.44l.84-.41c.28-.13.55-.27.83-.39l.89-.37.85-.34.93-.32c.28-.1.56-.2.85-.28l1-.28.85-.23,1-.22L138,7l1.13-.17.78-.12c.42-.05.85-.08,1.28-.11l.66-.06c.65,0,1.31-.06,2-.06s1.32,0,2,.06l.66.06c.43,0,.86.06,1.28.11l.78.12,1.12.17.83.18,1,.22.84.23,1,.28c.29.08.57.18.85.28l.93.32.85.34.89.37c.28.12.55.26.83.39l.85.41.81.44.81.45.79.49.78.49.77.54c.25.17.49.35.73.53l.75.58q.34.27.69.57l.72.62.66.6.67.66c.22.21.43.43.63.65l.64.69c.2.23.4.45.59.68s.4.48.59.73a3.88,3.88,0,0,1,.26.31h0c.22.27.44.54.64.83.21-.29.42-.56.64-.83h0c.08-.11.17-.21.25-.31l.6-.73.59-.68c.21-.23.42-.47.64-.7l.62-.64.68-.66.66-.6.72-.62.69-.57.75-.58c.24-.18.48-.36.73-.53l.77-.54.78-.49.79-.49.81-.45c.27-.15.54-.3.82-.44l.84-.41c.28-.13.56-.27.84-.39l.88-.37.85-.34.93-.32c.28-.1.56-.2.85-.28l1-.28.84-.23,1-.22L190.4,7l1.12-.17.78-.12c.42-.05.85-.08,1.28-.11l.66-.06c.65,0,1.31-.06,2-.06s1.32,0,2,.06l.66.06c.43,0,.86.06,1.28.11l.78.12L202,7l.82.18,1,.22.85.23,1,.28c.28.08.56.18.84.28l.94.32.84.34.89.37c.28.12.55.26.83.39l.85.41.81.44.81.45.79.49.78.49.77.54c.25.17.49.35.73.53l.75.58c.23.18.47.37.7.57l.71.62.66.6.67.66c.22.21.43.43.63.65l.64.69c.2.22.4.45.59.69s.4.47.59.72a3.88,3.88,0,0,1,.26.31h0c.22.27.44.54.64.83h0c.21-.29.43-.56.64-.83h0c.08-.11.17-.21.25-.31l.6-.73.59-.68.64-.69.63-.65.67-.66.67-.6.71-.62.7-.58.74-.57.74-.54.76-.53.78-.49.79-.49c.27-.16.54-.3.81-.45s.54-.3.82-.44l.85-.41c.27-.14.55-.27.83-.39l.89-.37.84-.34.93-.32c.28-.1.56-.2.85-.28l1-.28.84-.23,1-.22c.28-.06.55-.13.83-.18L244,6.85l.78-.12c.42-.05.85-.08,1.28-.11l.66-.06c.65,0,1.31-.06,2-.06h0a32.09,32.09,0,0,1,11.13,2c.49.18,1,.37,1.47.58,1,.41,1.91.86,2.83,1.36a33,33,0,0,1,6.34,4.51,32.35,32.35,0,0,1,0,47.93Z"/></g></g></svg>