<?xml version="1.0" encoding="utf-8"?>
<!-- Generator: Adobe Illustrator 25.2.0, SVG Export Plug-In . SVG Version: 6.00 Build 0)  -->
<svg version="1.1" id="圖層_1" xmlns="http://www.w3.org/2000/svg" xmlns:xlink="http://www.w3.org/1999/xlink" x="0px" y="0px"
	 viewBox="0 0 287.5 77.8" style="enable-background:new 0 0 287.5 77.8;" xml:space="preserve">
<style type="text/css">
	.st0{fill:#FFFFFF;}
</style>
<g>
	<path class="st0" d="M274.9,10.2C267.7,3.6,258.4,0,248.7,0c-9.7,0-19.1,3.6-26.2,10.2c-6.7-6.1-15-9.5-23.5-10.1c0,0-0.1,0-0.1,0
		c-0.5,0-1-0.1-1.5-0.1c-0.1,0-0.2,0-0.3,0c-0.4,0-0.9,0-1.3,0c-0.2,0-0.3,0-0.5,0c-0.4,0-0.8,0-1.2,0c-0.2,0-0.5,0-0.7,0
		c-0.3,0-0.6,0-0.9,0.1c-0.4,0-0.7,0.1-1.1,0.1c-0.2,0-0.3,0-0.5,0.1c-7.6,1-14.9,4.3-20.9,9.8C162.6,3.4,153.2,0,143.8,0
		c-9.4,0-18.8,3.4-26.2,10.2c-5.1-4.7-11.1-7.7-17.4-9.2c-0.1,0-0.1,0-0.2,0c-0.5-0.1-0.9-0.2-1.4-0.3c-0.1,0-0.3-0.1-0.4-0.1
		c-0.4-0.1-0.8-0.1-1.2-0.2c-0.2,0-0.4-0.1-0.6-0.1c-0.3,0-0.6-0.1-1-0.1c-0.3,0-0.5-0.1-0.8-0.1c-0.2,0-0.5,0-0.7,0
		c-0.3,0-0.7,0-1-0.1c-0.1,0-0.1,0-0.2,0c-9.9-0.3-19.8,3-27.6,10.2C57.9,3.6,48.6,0,38.9,0c-9.7,0-19.1,3.6-26.2,10.2
		c-15.9,14.5-17,39.1-2.5,54.9c14.5,15.9,39.1,17,54.9,2.5C73.2,75,83.7,78.4,94,77.7c0.1,0,0.2,0,0.3,0c0.8-0.1,1.7-0.2,2.5-0.3
		c0.2,0,0.3-0.1,0.5-0.1c0.7-0.1,1.3-0.2,2-0.4c0.2,0,0.4-0.1,0.6-0.1c0.7-0.2,1.4-0.4,2.1-0.6c0.3-0.1,0.6-0.2,0.9-0.3
		c0.5-0.2,1-0.3,1.5-0.5c0.5-0.2,1-0.4,1.5-0.6c0.4-0.2,0.8-0.3,1.2-0.5c0.4-0.2,0.8-0.4,1.2-0.5c0.3-0.2,0.7-0.3,1-0.5
		c0.7-0.3,1.3-0.7,1.9-1.1c0.2-0.1,0.4-0.3,0.7-0.4c0.9-0.6,1.8-1.2,2.7-1.8c0,0,0,0,0,0c0.5-0.3,0.9-0.7,1.4-1.1
		c0.1-0.1,0.2-0.2,0.3-0.2c0.4-0.3,0.8-0.7,1.2-1.1c7.4,6.8,16.8,10.2,26.2,10.2c9.4,0,18.8-3.4,26.2-10.2c0.4,0.4,0.8,0.7,1.3,1.1
		c0.1,0.1,0.2,0.1,0.2,0.2c0.5,0.4,0.9,0.7,1.4,1.1c0,0,0,0,0.1,0c0.9,0.6,1.7,1.3,2.7,1.8c0.2,0.1,0.4,0.3,0.6,0.4
		c0.6,0.4,1.3,0.8,2,1.1c0.3,0.2,0.6,0.3,1,0.5c0.4,0.2,0.8,0.4,1.2,0.6c0.4,0.2,0.7,0.3,1.1,0.5c0.5,0.2,1,0.4,1.4,0.6
		c0.5,0.2,1,0.4,1.5,0.5c0.3,0.1,0.6,0.2,0.9,0.3c0.7,0.2,1.4,0.4,2.1,0.6c0.2,0,0.4,0.1,0.6,0.1c0.7,0.1,1.3,0.3,2,0.4
		c0.2,0,0.4,0.1,0.5,0.1c0.8,0.1,1.6,0.2,2.5,0.3c0.1,0,0.2,0,0.3,0c10.3,0.8,20.9-2.6,29.1-10.1c15.9,14.5,40.4,13.4,54.9-2.5
		C291.8,49.3,290.7,24.7,274.9,10.2z M278.2,60.9c-0.3,0.5-0.7,0.9-1.1,1.4c-1.5,1.8-3.2,3.5-5,5c-0.5,0.4-0.9,0.7-1.4,1.1
		c-1,0.7-1.9,1.4-3,2c-0.5,0.3-1,0.6-1.5,0.9c-5.4,2.9-11.4,4.5-17.6,4.5h-2.4l-1.2-0.1l-0.7-0.1l-1.1-0.1l-0.7-0.1l-1.1-0.2
		c-0.2,0-0.5-0.1-0.7-0.2l-1-0.2l-0.7-0.2l-1-0.3l-0.7-0.2l-1-0.4l-0.6-0.2l-1-0.4l-0.6-0.2l-1.1-0.5l-0.5-0.2
		c-0.4-0.2-0.8-0.4-1.1-0.6l-0.4-0.2c-0.4-0.2-0.8-0.5-1.2-0.7l-0.2-0.1c-2-1.2-3.8-2.6-5.5-4.1c-0.5-0.5-1-0.9-1.4-1.4
		c-0.5,0.5-0.9,0.9-1.4,1.4c-1.7,1.5-3.5,2.9-5.5,4.1l-0.3,0.1c-0.4,0.2-0.8,0.5-1.2,0.7l-0.4,0.2c-0.4,0.2-0.8,0.4-1.1,0.6
		l-0.5,0.2c-0.2,0.1-0.4,0.2-0.6,0.3c0-0.1-0.1-0.1-0.1-0.2l-0.7,0.3l-0.6,0.2l-1,0.4l-0.6,0.2c-0.3,0.1-0.6,0.2-1,0.4l-0.7,0.2
		l-1,0.3l-0.7,0.2l-1,0.2c-0.2,0.1-0.5,0.2-0.7,0.2l-1.1,0.2l-0.7,0.1l-1.1,0.1l-0.8,0.1l-1.2,0.1h-4.9l-1.2-0.1l-0.7-0.1l-1.1-0.1
		l-0.7-0.1l-1.1-0.2c-0.2,0-0.5-0.1-0.7-0.1l-1-0.2l-0.3-0.1l-1-0.3l-0.7-0.2l-1-0.4l-0.6-0.2l-1-0.4l-0.6-0.2
		c-0.4-0.2-0.7-0.3-1.1-0.5L180,72c-0.4-0.2-0.8-0.4-1.1-0.6l-0.4-0.2c-0.4-0.2-0.8-0.5-1.2-0.7l-0.3-0.2c-2-1.2-3.8-2.6-5.5-4.1
		c-0.5-0.4-1-0.9-1.5-1.4c0,0,0,0,0,0c0,0,0,0,0,0c-0.5,0.5-1,0.9-1.5,1.4c-1.7,1.6-3.5,2.9-5.5,4.2l-0.3,0.2
		c-0.4,0.2-0.8,0.5-1.2,0.7l-0.4,0.2c-0.4,0.2-0.8,0.4-1.1,0.6l-0.5,0.2c-0.4,0.2-0.7,0.3-1.1,0.5l-0.6,0.2l-1.2,0.4l-0.6,0.2
		l-1,0.4l-0.7,0.2l-1,0.3l-0.7,0.2l-1,0.2c-0.2,0.1-0.5,0.2-0.7,0.2l-1.1,0.2l-0.7,0.1l-1.1,0.1l-0.7,0.1l-1.2,0.1h-4.6l-1.2-0.1
		l-0.7-0.1l-1.1-0.1l-0.7-0.1l-1.1-0.2c-0.2,0-0.5-0.1-0.7-0.2l-1-0.2l-0.7-0.2l-1-0.3l-0.7-0.2l-1-0.4l-0.6-0.2l-1.2-0.4l-0.6-0.2
		c-0.4-0.1-0.7-0.3-1.1-0.5l-0.5-0.2c-0.4-0.2-0.8-0.4-1.1-0.6l-0.4-0.2c-0.4-0.2-0.8-0.5-1.2-0.7l-0.3-0.1c-2-1.2-3.8-2.6-5.5-4.2
		c-0.5-0.4-1-0.9-1.5-1.4c0,0,0,0,0,0c0,0,0,0,0,0c-0.5,0.5-1,0.9-1.5,1.4c-1.7,1.5-3.5,2.9-5.5,4.1l-0.3,0.1
		c-0.4,0.2-0.8,0.5-1.2,0.7l-0.4,0.2c-0.4,0.2-0.8,0.4-1.1,0.6l-0.9,0.3c-0.4,0.2-0.7,0.3-1.1,0.5l-0.6,0.2l-1,0.4l-0.6,0.2l-1,0.4
		l-0.7,0.2l-1,0.3l-0.3,0.1l-1,0.2c-0.2,0-0.5,0.1-0.7,0.2l-1.1,0.2l-0.7,0.1l-1.1,0.1l-0.7,0.1l-1.2,0.1H89l-1.2-0.1L87,75.5
		l-1.1-0.1l-0.7-0.1l-1.1-0.2c-0.2,0-0.5-0.1-0.7-0.2l-1.1-0.2l-0.7-0.2l-1-0.3L79.9,74c-0.3-0.1-0.7-0.2-1-0.4l-0.6-0.2l-1-0.4
		l-0.6-0.2l-1.1-0.5l-0.1,0c0,0.1,0,0.1-0.1,0.2c-0.1,0-0.1,0-0.2-0.1l-0.5-0.2c-0.4-0.2-0.8-0.4-1.1-0.6l-0.4-0.2
		c-0.4-0.2-0.8-0.5-1.2-0.7l-0.3-0.2c-2-1.2-3.8-2.6-5.5-4.1c-0.5-0.4-1-0.9-1.4-1.4c-0.5,0.5-1,0.9-1.5,1.4
		c-1.7,1.5-3.5,2.9-5.5,4.1l-0.2,0.2c-0.4,0.2-0.8,0.5-1.2,0.7l-0.4,0.2c-0.4,0.2-0.8,0.4-1.1,0.6l-0.5,0.2l-1.1,0.5l-0.6,0.2
		l-1,0.4l-0.6,0.2l-1,0.4l-0.7,0.2l-1,0.3l-0.7,0.2l-1,0.2c-0.2,0-0.5,0.1-0.7,0.1L45,75.4l-0.7,0.1l-1.1,0.1l-0.7,0.1l-1.2,0.1
		h-2.4c-6.1,0-12.2-1.5-17.6-4.5c-0.5-0.3-1-0.6-1.5-0.9c-1-0.6-2-1.3-3-2c-0.5-0.4-0.9-0.7-1.4-1.1c-1.8-1.5-3.5-3.2-5-5
		c-0.4-0.5-0.7-0.9-1.1-1.4C8.6,60,8,59.1,7.5,58.1c-7.1-11.7-7.1-26.5,0-38.2c0.6-1,1.3-1.9,2-2.9c0.3-0.5,0.7-0.9,1.1-1.4
		c1.5-1.8,3.2-3.5,5-5c0.5-0.4,0.9-0.7,1.4-1.1c0.9-0.7,1.9-1.4,3-2c0.5-0.3,1-0.6,1.5-0.9C26.8,3.6,32.9,2.1,39,2.1h2.4
		c0.4,0,0.8,0.1,1.2,0.1l0.7,0.1c0.4,0,0.7,0.1,1.1,0.1l0.7,0.1l1.1,0.2L47,2.9C47.3,3,47.6,3,48,3.1l0.7,0.2c0.3,0.1,0.7,0.2,1,0.3
		l0.7,0.2l1,0.3l0.6,0.2l1,0.4l0.6,0.2l1.1,0.5l0.5,0.2l1.1,0.6l0.4,0.2c0.4,0.2,0.8,0.5,1.2,0.7l0.2,0.1c2,1.2,3.8,2.6,5.5,4.1
		c0.5,0.5,1,0.9,1.4,1.4c0.5-0.5,1-0.9,1.4-1.4c1.7-1.5,3.6-2.9,5.6-4.1l0.2-0.1c0.4-0.2,0.8-0.5,1.2-0.7L74,6.4l1.1-0.6l0.5-0.2
		l1.1-0.5l0.6-0.2l1.1-0.4L79,4.2l1-0.3l0.7-0.2c0.3-0.1,0.7-0.2,1-0.3l0.7-0.2C82.7,3,83,3,83.4,2.9l0.7-0.2l1.1-0.2l0.7-0.1
		c0.2,0,0.3-0.1,0.5-0.1c0.1,0,0.1,0,0.2,0c0.2,0,0.3,0,0.5,0l0.7-0.1l1.2-0.1h4.7c0.1,0,0.2,0,0.3,0c0.2,0,0.5,0,0.7,0.1
		c0.1,0,0.1,0,0.2,0l0.7,0.1c0.2,0,0.3,0,0.5,0c0.1,0,0.1,0,0.2,0c0.2,0,0.3,0.1,0.5,0.1l0.7,0.1l1.1,0.2l0.7,0.2
		c0.4,0.1,0.7,0.2,1,0.2l0.7,0.2c0.3,0.1,0.7,0.2,1,0.3l0.7,0.2l1,0.3l0.6,0.2l1,0.4l0.6,0.2l1.1,0.5l0.5,0.2l1.1,0.6l0.4,0.2
		c0.4,0.2,0.8,0.5,1.2,0.7l0.3,0.2c2,1.2,3.8,2.6,5.5,4.1c0.5,0.5,1,0.9,1.5,1.4c0.1-0.1,0.1-0.1,0.2-0.2c0.1,0.1,0.1,0.1,0.2,0.2
		c0.5-0.5,1-0.9,1.5-1.4c1.7-1.5,3.5-2.9,5.5-4.1l0.2-0.1c0.4-0.2,0.8-0.5,1.2-0.7l0.4-0.2l1.1-0.6l0.5-0.2l1.1-0.5l0.6-0.2l1-0.4
		l0.6-0.2l1-0.3l0.7-0.2c0.3-0.1,0.6-0.2,1-0.3l0.7-0.2c0.3-0.1,0.7-0.2,1-0.2l0.7-0.2l1.1-0.2l0.7-0.1c0.4-0.1,0.8-0.1,1.1-0.1
		l0.7-0.1c0.1,0,0.2,0,0.2,0c0.2,0,0.4,0,0.6,0c0.1,0,0.3,0,0.4,0h4.7c0.1,0,0.3,0,0.4,0c0.2,0,0.4,0,0.6,0c0.1,0,0.2,0,0.2,0
		l0.7,0.1c0.4,0,0.8,0.1,1.1,0.1l0.7,0.1l1.1,0.2l0.7,0.2c0.4,0.1,0.7,0.2,1,0.2l0.7,0.2c0.3,0.1,0.7,0.2,1,0.3l0.7,0.2l1,0.3
		l0.6,0.2l1.1,0.4l0.6,0.2l1.1,0.5l0.5,0.2l1.1,0.6l0.4,0.2c0.4,0.2,0.8,0.5,1.2,0.7l0.2,0.1c2,1.2,3.8,2.6,5.5,4.1
		c0.5,0.5,1,0.9,1.5,1.4c0.1-0.1,0.1-0.1,0.2-0.2c0.1,0.1,0.1,0.1,0.2,0.2c0.4-0.5,0.9-0.9,1.4-1.4c1.7-1.5,3.5-2.9,5.5-4.1l0.3-0.2
		c0.4-0.2,0.8-0.5,1.2-0.7l0.4-0.2l1.1-0.6l0.5-0.2l1.1-0.5l0.6-0.2l1-0.4l0.6-0.2l1-0.3l0.7-0.2c0.3-0.1,0.7-0.2,1-0.3l0.7-0.2
		c0.3-0.1,0.7-0.2,1-0.2l0.7-0.2l1.1-0.2l0.7-0.1c0.2,0,0.3-0.1,0.5-0.1c0.1,0,0.1,0,0.2,0c0.2,0,0.3,0,0.5,0l0.7-0.1
		c0.1,0,0.1,0,0.2,0c0.2,0,0.5,0,0.7-0.1c0.1,0,0.2,0,0.3,0h4.7l1.2,0.1l0.7,0.1c0.2,0,0.3,0,0.5,0c0.1,0,0.1,0,0.2,0
		c0.2,0,0.3,0.1,0.5,0.1l0.7,0.1l1.1,0.2l0.7,0.2c0.4,0.1,0.7,0.2,1,0.2l0.7,0.2c0.4,0.1,0.7,0.2,1,0.3l0.7,0.2l1,0.3l0.6,0.2l1,0.4
		l0.6,0.2l1.1,0.5l0.5,0.2l1.1,0.6l0.4,0.2c0.4,0.2,0.8,0.5,1.2,0.7l0.2,0.1c2,1.2,3.9,2.6,5.6,4.1c0.5,0.4,1,0.9,1.4,1.4
		c0.5-0.5,1-0.9,1.5-1.4c1.7-1.5,3.5-2.9,5.5-4.1l0.2-0.1c0.4-0.2,0.8-0.5,1.2-0.7l0.4-0.2l1.1-0.6l0.5-0.2l1.1-0.5l0.6-0.2l1-0.4
		l0.6-0.2l1-0.3l0.7-0.2c0.3-0.1,0.7-0.2,1-0.3l0.7-0.2c0.3-0.1,0.7-0.2,1-0.2l0.7-0.2l1.1-0.2l0.7-0.1c0.4-0.1,0.7-0.1,1.1-0.1
		l0.7-0.1c0.4,0,0.8-0.1,1.2-0.1h2.4c6.1,0,12.2,1.5,17.6,4.5c0.5,0.3,1,0.6,1.5,0.9c1,0.6,2,1.3,3,2c0.5,0.4,0.9,0.7,1.4,1.1
		c1.8,1.5,3.5,3.2,5,5c0.4,0.5,0.7,0.9,1.1,1.4c0.7,1,1.4,1.9,2,2.9c7.1,11.7,7.1,26.5,0,38.2C279.5,59.1,278.9,60,278.2,60.9z"/>
	<path class="st0" d="M274.9,18.3c-6.3-8.1-16-12.8-26.3-12.8v0c-10.2,0-19.9,4.7-26.2,12.8c-5.1-6.5-12.1-10.5-19.5-12.1
		c0,0,0,0,0,0c-0.5-0.1-1-0.2-1.5-0.3c0,0,0,0-0.1,0c-0.5-0.1-1-0.1-1.5-0.2c0,0,0,0,0,0c-3-0.3-5.9-0.3-8.9,0.2c0,0-0.1,0-0.1,0
		c-0.4,0.1-0.7,0.1-1.1,0.2c-0.2,0-0.3,0.1-0.5,0.1c-0.3,0.1-0.6,0.1-0.8,0.2c-0.3,0.1-0.5,0.1-0.8,0.2c-0.2,0.1-0.4,0.1-0.6,0.2
		c-0.3,0.1-0.7,0.2-1,0.3c-0.1,0-0.3,0.1-0.4,0.1c-0.4,0.1-0.8,0.3-1.3,0.4c0,0-0.1,0-0.1,0c-5.5,2.1-10.4,5.6-14.3,10.5
		c-5.3-6.7-12.6-10.8-20.3-12.2c-0.1,0-0.2,0-0.3-0.1c-0.1,0-0.2,0-0.4-0.1c-1.4-0.2-2.9-0.4-4.3-0.4c0,0,0,0-0.1,0
		c-0.2,0-0.5,0-0.7,0c-1.8,0-3.6,0.1-5.4,0.4c-0.1,0-0.2,0-0.3,0c-0.1,0-0.2,0-0.3,0.1c-7.8,1.4-15,5.5-20.3,12.2
		c-3.9-4.9-8.9-8.5-14.4-10.5c0,0,0,0-0.1,0c-0.4-0.2-0.9-0.3-1.3-0.5c-0.1,0-0.3-0.1-0.4-0.1c-0.3-0.1-0.7-0.2-1-0.3
		c-0.2-0.1-0.4-0.1-0.6-0.2c-0.2-0.1-0.5-0.1-0.7-0.2c-0.3-0.1-0.5-0.1-0.8-0.2c-0.1,0-0.3-0.1-0.4-0.1c-1.7-0.3-3.4-0.5-5.2-0.6
		c-0.1,0-0.1,0-0.2,0c-0.4,0-0.8,0-1.2,0c-0.1,0-0.2,0-0.2,0c-0.4,0-0.8,0-1.2,0c-0.1,0-0.2,0-0.3,0c-0.4,0-0.8,0-1.2,0.1
		c-0.1,0-0.1,0-0.2,0C79.4,6.5,71,10.8,65.1,18.3c-6.3-8-16-12.7-26.2-12.8v0c-10.3,0-19.9,4.7-26.3,12.8
		C1.2,32.8,3.7,53.8,18.2,65.1s35.5,8.9,46.9-5.6c1.7,2.1,3.6,4,5.7,5.7c5.7,4.4,12.3,6.7,19,7.1c0.1,0,0.2,0,0.3,0
		c0.7,0,1.4,0,2.1,0c0.1,0,0.3,0,0.4,0c0.5,0,1,0,1.5-0.1c0.3,0,0.6-0.1,1-0.1c0.3,0,0.6-0.1,0.9-0.1c0.8-0.1,1.5-0.2,2.3-0.4
		c0.1,0,0.2,0,0.3-0.1c0.5-0.1,0.9-0.2,1.4-0.3c0.1,0,0.2-0.1,0.4-0.1c1.4-0.4,2.8-0.9,4.2-1.5c0.1-0.1,0.3-0.1,0.4-0.2
		c1.3-0.6,2.5-1.2,3.8-2c0.2-0.1,0.4-0.3,0.6-0.4c0.9-0.6,1.8-1.2,2.7-1.9c2.1-1.6,4-3.5,5.6-5.6c1.6,2.1,3.5,4,5.6,5.6
		c6.1,4.8,13.4,7.1,20.6,7.1c7.2,0,14.5-2.3,20.6-7.1c2.1-1.6,4-3.5,5.6-5.6c1.6,2.1,3.5,4,5.6,5.6c0.9,0.7,1.8,1.3,2.7,1.9
		c0.2,0.1,0.4,0.3,0.6,0.4c0.4,0.2,0.7,0.4,1.1,0.7c0.1,0,0.1,0.1,0.2,0.1c0.8,0.4,1.6,0.8,2.5,1.2c0.1,0.1,0.3,0.1,0.4,0.2
		c0.4,0.2,0.9,0.4,1.3,0.5c0.1,0,0.1,0,0.2,0.1c0.9,0.3,1.8,0.6,2.6,0.9c0.1,0,0.2,0.1,0.4,0.1c0.4,0.1,0.8,0.2,1.3,0.3
		c0.2,0.1,0.5,0.1,0.7,0.1c0.5,0.1,1,0.2,1.5,0.3c0.5,0.1,0.9,0.1,1.4,0.2c0.2,0,0.5,0,0.7,0.1c0.5,0,1,0.1,1.5,0.1
		c0.1,0,0.3,0,0.4,0c7.6,0.3,15.3-2,21.7-7.1c2.1-1.7,4-3.6,5.7-5.7c11.4,14.5,32.4,17,46.9,5.6C283.8,53.8,286.3,32.8,274.9,18.3z
		 M270.5,62.9L270.5,62.9c-2,1.7-4.1,3.2-6.4,4.5c-0.9,0.5-1.9,1-2.8,1.4c-0.5,0.2-1,0.4-1.5,0.6c-3.6,1.3-7.3,2-11.1,2
		c-0.7,0-1.3,0-2-0.1l-0.7-0.1c-0.4,0-0.9-0.1-1.3-0.1l-0.8-0.1c-0.4-0.1-0.8-0.1-1.1-0.2l-0.8-0.2c-0.3-0.1-0.7-0.1-1-0.2l-0.8-0.2
		c-0.3-0.1-0.7-0.2-1-0.3l-0.8-0.3c-0.3-0.1-0.6-0.2-0.9-0.3s-0.6-0.2-0.8-0.3l-0.9-0.4l-0.8-0.4l-0.9-0.4c-0.3-0.1-0.5-0.3-0.8-0.4
		l-0.8-0.5c-0.3-0.1-0.5-0.3-0.8-0.5l-0.8-0.5l-0.8-0.5l-0.7-0.5l-0.7-0.6l-0.7-0.6l-0.7-0.6l-0.7-0.6c-0.2-0.2-0.5-0.4-0.7-0.7
		l-0.6-0.6c-0.2-0.2-0.4-0.5-0.6-0.7c-0.2-0.2-0.4-0.5-0.6-0.7l-0.6-0.7c-0.1-0.1-0.2-0.2-0.2-0.3l-0.6-0.8
		c-0.2,0.3-0.4,0.5-0.6,0.8c-0.1,0.1-0.2,0.2-0.3,0.3l-0.6,0.7l-0.6,0.7l-0.6,0.7c-0.2,0.2-0.4,0.4-0.6,0.6
		c-0.2,0.2-0.4,0.4-0.7,0.7l-0.7,0.6l-0.7,0.6l-0.7,0.6l-0.8,0.6c-0.2,0.2-0.5,0.4-0.7,0.5l-0.8,0.5l-0.8,0.5
		c-0.3,0.2-0.5,0.3-0.8,0.5l-0.8,0.5l-0.8,0.4l-0.7,0.4c0,0,0,0,0,0l-0.1,0.1l-0.8,0.4l-0.9,0.4c-0.3,0.1-0.5,0.2-0.8,0.3
		c-0.3,0.1-0.6,0.2-0.9,0.3l-0.8,0.3l-1,0.3l-0.9,0.2c-0.3,0.1-0.6,0.2-1,0.2l-0.8,0.2l-1.1,0.2l-0.8,0.1c-0.2,0-0.4,0-0.5,0.1
		c-0.1,0-0.1,0-0.2,0c-0.2,0-0.4,0-0.5,0l-0.7,0.1c-0.7,0.1-1.3,0.1-2,0.1s-1.3-0.1-2-0.1l-0.7-0.1c-0.4,0-0.9-0.1-1.3-0.1l-0.8-0.1
		c-0.4-0.1-0.8-0.1-1.1-0.2l-0.8-0.2c-0.3-0.1-0.7-0.1-1-0.2l-0.8-0.2c-0.3-0.1-0.7-0.2-1-0.3l-0.8-0.3c-0.3-0.1-0.6-0.2-0.9-0.3
		c-0.3-0.1-0.6-0.2-0.8-0.3l-0.9-0.4l-0.8-0.4l-0.9-0.4c-0.3-0.1-0.5-0.3-0.8-0.4l-0.8-0.5c-0.3-0.1-0.5-0.3-0.8-0.5l-0.8-0.5
		l-0.8-0.5l-0.7-0.5c-0.2-0.2-0.5-0.4-0.7-0.6l-0.7-0.6l-0.7-0.6l-0.7-0.6c-0.2-0.2-0.5-0.4-0.7-0.7c-0.2-0.2-0.4-0.4-0.6-0.6
		l-0.6-0.7l-0.6-0.7l-0.6-0.7c-0.1-0.1-0.2-0.2-0.3-0.3l-0.6-0.8c-0.2,0.3-0.4,0.6-0.6,0.8c-0.1,0.1-0.2,0.2-0.2,0.3l-0.6,0.7
		c-0.2,0.2-0.4,0.4-0.6,0.7c-0.2,0.2-0.4,0.5-0.6,0.7c-0.2,0.2-0.4,0.4-0.6,0.6c-0.2,0.2-0.4,0.5-0.7,0.7l-0.7,0.6
		c-0.2,0.2-0.5,0.4-0.7,0.6l-0.7,0.6l-0.8,0.6l-0.7,0.5l-0.8,0.5l-0.8,0.5c-0.3,0.2-0.5,0.3-0.8,0.5l-0.8,0.5l-0.8,0.4l-0.9,0.4
		l-0.8,0.4l-0.9,0.4c-0.3,0.1-0.6,0.2-0.9,0.3s-0.6,0.2-0.9,0.3l-0.8,0.3c-0.4,0.1-0.7,0.2-1,0.3l-0.9,0.2c-0.3,0.1-0.6,0.2-1,0.2
		l-0.8,0.2l-0.4,0.1c-0.2,0-0.5,0.1-0.7,0.1l-0.8,0.1c-0.4,0-0.9,0.1-1.3,0.1l-0.7,0.1c-0.6,0-1.2,0.1-1.9,0.1
		c-0.7,0-1.3-0.1-1.9-0.1l-0.7-0.1c-0.4,0-0.9-0.1-1.3-0.1l-0.8-0.1c-0.2,0-0.5-0.1-0.7-0.1l-0.4-0.1l-0.8-0.2
		c-0.3-0.1-0.7-0.1-1-0.2l-0.8-0.2c-0.3-0.1-0.7-0.2-1-0.3l-0.9-0.3c-0.3-0.1-0.6-0.2-0.9-0.3c-0.3-0.1-0.6-0.2-0.8-0.3l-0.9-0.4
		l-0.8-0.4l-0.8-0.4l-0.8-0.4l-0.8-0.5c-0.3-0.2-0.5-0.3-0.8-0.5l-0.8-0.5l-0.8-0.5l-0.7-0.5l-0.8-0.6l-0.7-0.6
		c-0.2-0.2-0.5-0.4-0.7-0.6l-0.7-0.6c-0.2-0.2-0.5-0.4-0.7-0.7c-0.2-0.2-0.4-0.4-0.6-0.6c-0.2-0.2-0.4-0.5-0.6-0.7
		c-0.2-0.2-0.4-0.5-0.6-0.7l-0.6-0.7c-0.1-0.1-0.2-0.2-0.2-0.3c-0.2-0.3-0.4-0.5-0.6-0.8l-0.6,0.8c-0.1,0.1-0.2,0.2-0.3,0.3
		l-0.6,0.7l-0.6,0.7l-0.6,0.7c-0.2,0.2-0.4,0.4-0.6,0.7c-0.2,0.2-0.4,0.4-0.7,0.7l-0.7,0.6l-0.7,0.6l-0.7,0.6
		c-0.2,0.2-0.5,0.4-0.7,0.6l-0.7,0.5l-0.8,0.5l-0.8,0.5c-0.3,0.2-0.5,0.3-0.8,0.5l-0.8,0.5c-0.3,0.2-0.5,0.3-0.8,0.4l-0.8,0.4
		l-0.8,0.4l-0.9,0.4c-0.3,0.1-0.5,0.2-0.8,0.3c-0.3,0.1-0.6,0.2-0.9,0.3l-0.9,0.3c-0.3,0.1-0.6,0.2-1,0.3L99,70.4
		c-0.4,0.1-0.7,0.2-1,0.2l-0.8,0.2c-0.4,0.1-0.8,0.1-1.1,0.2L95.3,71c-0.4,0-0.9,0.1-1.3,0.1l-0.7,0.1c-0.7,0-1.3,0.1-2,0.1
		s-1.3,0-2-0.1l-0.7-0.1c-0.2,0-0.4,0-0.5,0c-0.1,0-0.1,0-0.2,0c-0.2,0-0.4,0-0.5-0.1l-0.8-0.1l-1.1-0.2l-0.8-0.2
		c-0.3-0.1-0.7-0.1-1-0.2l-0.8-0.2l-1-0.3L81,69.6c-0.3-0.1-0.6-0.2-0.9-0.3c-0.3-0.1-0.6-0.2-0.8-0.3l-0.9-0.4l-0.8-0.4l-0.7-0.3
		c0,0,0,0,0,0l-0.1-0.1l-0.8-0.4L75,66.9c-0.3-0.2-0.5-0.3-0.8-0.5l-0.8-0.5l-0.8-0.5c-0.2-0.2-0.5-0.3-0.7-0.5l-0.8-0.6l-0.7-0.6
		l-0.7-0.6l-0.7-0.6c-0.2-0.2-0.5-0.4-0.7-0.7c-0.2-0.2-0.4-0.4-0.6-0.6l-0.6-0.7l-0.6-0.7L66,59.1c-0.1-0.1-0.2-0.2-0.3-0.3
		c-0.2-0.3-0.4-0.5-0.6-0.8l-0.6,0.8c-0.1,0.1-0.2,0.2-0.2,0.3l-0.6,0.7c-0.2,0.2-0.4,0.4-0.6,0.7c-0.2,0.2-0.4,0.5-0.6,0.7
		l-0.6,0.6c-0.2,0.2-0.4,0.5-0.7,0.7l-0.7,0.6l-0.7,0.6L59,64.3l-0.7,0.6l-0.7,0.5l-0.8,0.5L56,66.4c-0.3,0.2-0.5,0.3-0.8,0.5
		l-0.8,0.5c-0.3,0.2-0.5,0.3-0.8,0.4l-0.8,0.4l-0.8,0.4L51,68.9c-0.3,0.1-0.5,0.2-0.8,0.3c-0.3,0.1-0.6,0.2-0.9,0.3l-0.9,0.3
		c-0.3,0.1-0.7,0.2-1,0.3l-0.8,0.2c-0.4,0.1-0.7,0.2-1.1,0.2l-0.8,0.2c-0.4,0.1-0.8,0.1-1.1,0.2l-0.8,0.1c-0.4,0-0.9,0.1-1.3,0.1
		l-0.7,0.1c-0.7,0.1-1.3,0.1-2,0.1c-3.8,0-7.6-0.7-11.1-2c-0.5-0.2-1-0.4-1.5-0.6c-1-0.4-1.9-0.9-2.8-1.4c-2.3-1.2-4.4-2.8-6.3-4.5
		l-0.1,0c-0.8-0.7-1.5-1.5-2.2-2.2C2.8,47.4,3.8,27,17,15c1.9-1.7,4.1-3.3,6.3-4.5c0.9-0.5,1.8-1,2.8-1.4c0.5-0.2,1-0.4,1.5-0.6
		c3.6-1.3,7.3-2,11.1-2c0.7,0,1.3,0.1,2,0.1l0.7,0.1c0.4,0,0.9,0.1,1.3,0.1l0.8,0.1L44.7,7c0.3,0,0.5,0.1,0.8,0.2l1,0.2l0.8,0.2
		l1,0.3C48.7,8,49,8.1,49.2,8.2l0.9,0.3L51,8.9l0.9,0.4c0.3,0.1,0.6,0.2,0.8,0.4l0.8,0.4c0.3,0.1,0.5,0.3,0.8,0.4
		c0.3,0.2,0.5,0.3,0.8,0.5l0.8,0.5l0.8,0.5l0.8,0.5l0.7,0.5l0.7,0.6l0.7,0.6l0.7,0.6l0.7,0.6l0.7,0.7l0.6,0.7l0.6,0.7l0.6,0.7
		l0.6,0.7c0.1,0.1,0.2,0.2,0.2,0.3c0.2,0.3,0.4,0.5,0.6,0.8c0.2-0.3,0.4-0.6,0.6-0.8c0.1-0.1,0.2-0.2,0.3-0.3
		c0.2-0.2,0.4-0.5,0.6-0.7c0.2-0.2,0.4-0.5,0.6-0.7l0.6-0.7c0.2-0.2,0.4-0.4,0.6-0.7l0.7-0.7l0.7-0.6l0.7-0.6
		c0.2-0.2,0.5-0.4,0.7-0.6L72,13c0.2-0.2,0.5-0.4,0.7-0.5l0.8-0.5l0.8-0.5l0.8-0.5l0.8-0.5l0.8-0.4l0.8-0.4c0.3-0.1,0.6-0.3,0.8-0.4
		l0.9-0.4L80,8.5l1-0.3c0.3-0.1,0.6-0.2,0.8-0.3l1-0.3l0.8-0.2l1-0.2L85.5,7l1.1-0.2l0.8-0.1c0.4,0,0.9-0.1,1.3-0.1l0.7-0.1
		c0.6,0,1.3-0.1,2-0.1c0.7,0,1.3,0.1,2,0.1l0.7,0.1c0.4,0,0.9,0.1,1.3,0.1L96,6.8L97.1,7l0.7,0.2l1,0.2l0.8,0.2l1,0.3
		c0.3,0.1,0.6,0.2,0.8,0.3l0.9,0.3l0.9,0.3l0.9,0.4c0.3,0.1,0.6,0.3,0.8,0.4l0.8,0.4c0.3,0.1,0.5,0.3,0.8,0.4l0.8,0.5l0.8,0.5
		l0.8,0.5l0.8,0.5c0.2,0.2,0.5,0.3,0.7,0.5l0.8,0.6l0.7,0.6l0.7,0.6l0.7,0.6l0.7,0.7l0.6,0.6c0.2,0.2,0.4,0.5,0.6,0.7l0.6,0.7
		l0.6,0.7c0.1,0.1,0.2,0.2,0.2,0.3c0.2,0.3,0.4,0.5,0.6,0.8c0,0,0-0.1,0.1-0.1c0,0,0,0,0.1,0.1c0.2-0.3,0.4-0.6,0.6-0.8
		c0.1-0.1,0.2-0.2,0.2-0.3L119,18c0.2-0.2,0.4-0.4,0.6-0.7c0.2-0.2,0.4-0.5,0.6-0.7l0.6-0.6l0.7-0.7l0.7-0.6l0.7-0.6l0.7-0.6
		l0.8-0.6c0.2-0.2,0.5-0.4,0.7-0.5l0.8-0.5l0.8-0.5l0.8-0.5l0.8-0.5c0.3-0.1,0.5-0.3,0.8-0.4l0.8-0.4c0.3-0.1,0.5-0.3,0.8-0.4
		l0.9-0.4l0.8-0.3l0.9-0.3c0.3-0.1,0.6-0.2,0.9-0.3l1-0.3l0.8-0.2l1-0.2L138,7l1.1-0.2l0.8-0.1c0.4,0,0.8-0.1,1.3-0.1l0.7-0.1
		c0.6,0,1.2-0.1,1.9-0.1c0.7,0,1.3,0.1,1.9,0.1l0.7,0.1c0.4,0,0.9,0.1,1.3,0.1l0.8,0.1l1.1,0.2l0.9,0.2l1,0.2l0.9,0.2l1,0.3
		c0.3,0.1,0.6,0.2,0.8,0.3l0.9,0.3l0.9,0.3l0.9,0.4c0.3,0.1,0.5,0.3,0.8,0.4l0.8,0.4c0.3,0.1,0.5,0.3,0.8,0.4l0.8,0.4l0.8,0.5
		l0.8,0.5l0.8,0.5c0.2,0.2,0.5,0.3,0.7,0.5l0.8,0.6l0.7,0.6l0.7,0.6l0.7,0.6l0.7,0.7l0.6,0.7c0.2,0.2,0.4,0.5,0.6,0.7
		c0.2,0.2,0.4,0.5,0.6,0.7l0.6,0.7c0.1,0.1,0.2,0.2,0.2,0.3c0.2,0.3,0.4,0.5,0.6,0.8c0,0,0,0,0.1-0.1c0,0,0,0.1,0.1,0.1
		c0.2-0.3,0.4-0.6,0.6-0.8c0.1-0.1,0.2-0.2,0.2-0.3l0.6-0.7l0.6-0.7c0.2-0.2,0.4-0.5,0.6-0.7l0.6-0.6l0.7-0.7l0.7-0.6l0.7-0.6
		l0.7-0.6l0.8-0.6c0.2-0.2,0.5-0.4,0.7-0.5l0.8-0.5l0.8-0.5l0.8-0.5l0.8-0.5c0.3-0.1,0.5-0.3,0.8-0.4l0.8-0.4
		c0.3-0.1,0.6-0.3,0.8-0.4l0.9-0.4l0.8-0.3l0.9-0.3c0.3-0.1,0.6-0.2,0.9-0.3l1-0.3l0.8-0.2l1-0.2l0.7-0.2l1.1-0.2l0.8-0.1
		c0.4,0,0.9-0.1,1.3-0.1l0.7-0.1c0.6,0,1.3-0.1,2-0.1c0.7,0,1.3,0.1,2,0.1l0.7,0.1c0.4,0,0.9,0.1,1.3,0.1l0.8,0.1L202,7l0.8,0.2
		l1,0.2l0.8,0.2l1,0.3c0.3,0.1,0.6,0.2,0.8,0.3l1,0.3l0.8,0.3l0.9,0.4c0.3,0.1,0.6,0.3,0.8,0.4l0.9,0.4l0.8,0.4l0.8,0.5l0.8,0.5
		l0.8,0.5l0.8,0.5c0.2,0.2,0.5,0.3,0.7,0.5l0.8,0.6c0.2,0.2,0.5,0.4,0.7,0.6l0.7,0.6l0.7,0.6L219,16c0.2,0.2,0.4,0.4,0.6,0.6
		l0.6,0.7c0.2,0.2,0.4,0.5,0.6,0.7s0.4,0.5,0.6,0.7c0.1,0.1,0.2,0.2,0.3,0.3c0.2,0.3,0.4,0.5,0.6,0.8c0.2-0.3,0.4-0.6,0.6-0.8
		c0.1-0.1,0.2-0.2,0.2-0.3l0.6-0.7l0.6-0.7l0.6-0.7l0.6-0.6l0.7-0.7l0.7-0.6l0.7-0.6l0.7-0.6l0.7-0.6l0.7-0.5l0.8-0.5l0.8-0.5
		l0.8-0.5c0.3-0.2,0.5-0.3,0.8-0.5c0.3-0.1,0.5-0.3,0.8-0.4l0.9-0.4c0.3-0.1,0.5-0.3,0.8-0.4l0.9-0.4l0.8-0.3l0.9-0.3
		c0.3-0.1,0.6-0.2,0.8-0.3l1-0.3l0.8-0.2l1-0.2c0.3-0.1,0.5-0.1,0.8-0.2l1.2-0.1l0.8-0.1c0.4,0,0.8-0.1,1.3-0.1l0.7-0.1
		c0.6,0,1.3-0.1,2-0.1c3.8,0,7.6,0.7,11.1,2c0.5,0.2,1,0.4,1.5,0.6c1,0.4,1.9,0.9,2.8,1.4c2.3,1.2,4.4,2.8,6.3,4.5
		c13.2,12,14.2,32.5,2.2,45.7C272,61.4,271.3,62.2,270.5,62.9z"/>
</g>
</svg>
