<svg xmlns="http://www.w3.org/2000/svg" viewBox="0 0 137.58 35"><defs><style>.cls-1{fill:#fff;}</style></defs><g id="圖層_2" data-name="圖層 2"><g id="_0-ui_kits" data-name="0-ui_kits"><path id="Path_32019" data-name="Path 32019" class="cls-1" d="M109.43,0C94.16-.47,80.8,10.11,67.66,16.58,63.81,18.82,55.82,23,52.53,24.44c-.45.19-2.19.8-3.87,1.36S45.3,26.9,44.92,27s-1.41-.38-2.84-1.66A13.28,13.28,0,0,1,38.8,10.55c2-4.41,8.91-5.34,11.87-1.59,1,1.28.85,2.43-.68,4.62C49,15,48.76,15.13,47.4,15c-1-.08-1.59.05-1.72.42-.53,1.55,3.06,1.92,5.13.53,1.82-1.22,2.38-2.31,2.56-4.94.27-3.88-1.83-5.88-6.86-6.54a9.33,9.33,0,0,0-8,2.82C36.05,10,35.75,11,35.9,16c.15,4,.25,4.58,1.32,6.37A21.26,21.26,0,0,0,39,25a2.19,2.19,0,0,1,.61.92,2,2,0,0,0,.68.91c.35.34.56.71.46.82-.58.62-9.32,2.35-15.78,3.1-8.9,1.05-15-.16-19.59-3.86-2.57-2.1-3.34-4.8-2.54-8.9A5.52,5.52,0,0,1,4.79,14.4c2.94-2.7,8.4-3.3,10.78-1.21a8.16,8.16,0,0,1,.66,3.2c.18,2.56.09,2.88-.84,3.84a3.33,3.33,0,0,1-5,.15c-.67-.69-1-.81-1.37-.45-.8.85-.4,1.87,1,2.69a6.08,6.08,0,0,0,8.81-4.16c1-4.19-2-8.72-5.8-8.72s-4.9.19-6.59,1.09C4.2,12,.88,15.41.27,17.15a13.39,13.39,0,0,0,.78,7.68c1.11,2,4,5,4.75,5a2.51,2.51,0,0,1,1.06.55c1,.84,4.94,2.15,7.52,2.49,4,.54,11.35,0,18.66-1.28,3.82-.7,7.61-1.44,8.43-1.69a5.63,5.63,0,0,1,3.71.3C50.85,32,59.8,30.8,70.07,26.9a101.29,101.29,0,0,0,13.53-7c7.31-4.35,14.22-7.66,22.67-9.41a44.37,44.37,0,0,1,8.85-.34,29.68,29.68,0,0,1,7.23,1.91,21,21,0,0,1,5.7,3.22c1,.75,1.89,1.46,2,1.55a39.88,39.88,0,0,1,3.85,4.86c1.77,2.69,1.23,6.28-1.37,8.93-1.51,1.54-3.63,2.29-6.88,2.39-2,.07-2.54-.07-3.83-1.14a3.59,3.59,0,0,1-1.54-2.21c0-1.16,1.7-3.09,2.83-3.13.91,0,1-.57.12-1.22s-2.55-.17-3.88.92c-.83.69-1,1.16-.89,3.09s.25,2.46,1.22,3.41c2.82,2.74,8.95,3.05,13,.67,2.8-1.66,4.13-4.47,4.61-9.65.35-3.91.33-6.54-.08-7.57-.14-.34-.82-1.74-1.52-3.14a20.07,20.07,0,0,1-1.28-2.84c0-.44-4.17-4.14-5.88-5.21C123.54,1.8,118.5.49,109.42,0Zm.85,2.24a7,7,0,0,1,2.49.15,16.92,16.92,0,0,0,3,.55c8.41,1.18,16.2,4.91,19.18,13.92.73,3.28.76,3.55.27,3.28a.92.92,0,0,1-.43-.68c0-.63-4.14-4.72-6.09-6.07a32,32,0,0,0-13.41-5.3c-5.65-.76-16.12,1.35-22.06,4.42L88,15.19c-1.77.9-4.71,2.59-6.56,3.77a31.2,31.2,0,0,1-4.34,2.42,3.07,3.07,0,0,0-1.45.88,1.51,1.51,0,0,1-.88.6,7.29,7.29,0,0,0-1.67.67A102.42,102.42,0,0,1,59.57,28.3c-4.32.94-7.8,1.2-10.28.76-1.3-.22-2.11-.51-1.77-.63s1.15-.48,1.82-.8,2.18-.9,3.35-1.28A19.15,19.15,0,0,0,55.93,25c.61-.35,2.29-1.18,3.74-1.84,2.31-1,5.71-2.89,14.11-7.74a20.17,20.17,0,0,0,2.6-1.67,2.07,2.07,0,0,1,1.14-.42c6.61-2.85,12.35-7.08,19-8.89a69.72,69.72,0,0,1,13.81-2.16Z"/></g></g></svg>