<svg xmlns="http://www.w3.org/2000/svg" viewBox="0 0 137.58 35"><defs><style>.cls-1{fill:#fff;}</style></defs><g id="圖層_2" data-name="圖層 2"><g id="_0-ui_kits" data-name="0-ui_kits"><path id="Path_32019" data-name="Path 32019" class="cls-1" d="M28.15,0C19.08.49,14,1.8,9,5,7.3,6.06,3.14,9.76,3.13,10.2A21.27,21.27,0,0,1,1.85,13c-.71,1.4-1.38,2.8-1.52,3.14-.41,1-.44,3.66-.08,7.57.47,5.18,1.81,8,4.61,9.65,4.05,2.38,10.18,2.07,13-.67,1-.95,1.15-1.48,1.22-3.41s-.07-2.4-.9-3.09c-1.33-1.09-3.11-1.51-3.87-.92s-.79,1.19.12,1.22c1.13,0,2.87,2,2.83,3.13a3.59,3.59,0,0,1-1.54,2.21c-1.29,1.07-1.81,1.21-3.83,1.14-3.25-.1-5.37-.85-6.89-2.39C2.41,28,1.86,24.38,3.63,21.69a41.92,41.92,0,0,1,3.85-4.86c.15-.09,1.07-.8,2-1.55a21.31,21.31,0,0,1,5.7-3.22,29.63,29.63,0,0,1,7.24-1.91,44.4,44.4,0,0,1,8.85.34C39.76,12.24,46.66,15.55,54,19.9a101.29,101.29,0,0,0,13.53,7C77.78,30.8,86.73,32,92.4,30.15a5.62,5.62,0,0,1,3.71-.3c.82.25,4.61,1,8.43,1.69,7.3,1.32,14.62,1.82,18.66,1.28,2.58-.34,6.52-1.65,7.52-2.49a2.45,2.45,0,0,1,1.06-.55c.74,0,3.64-3,4.74-5a13.31,13.31,0,0,0,.79-7.68c-.61-1.74-3.93-5.13-6.2-6.32-1.7-.9-3-1.1-6.6-1.09s-6.77,4.53-5.79,8.72a6.07,6.07,0,0,0,8.8,4.16c1.43-.82,1.82-1.84,1-2.69-.32-.36-.69-.24-1.36.45a3.33,3.33,0,0,1-5-.15c-.94-1-1-1.28-.84-3.84a8.42,8.42,0,0,1,.65-3.2c2.38-2.09,7.85-1.49,10.78,1.21A5.48,5.48,0,0,1,134.73,18c.8,4.1,0,6.8-2.54,8.9-4.57,3.7-10.69,4.91-19.6,3.86-6.46-.75-15.19-2.48-15.77-3.1-.1-.11.11-.48.46-.82a2,2,0,0,0,.68-.91,2.19,2.19,0,0,1,.61-.92,21.18,21.18,0,0,0,1.78-2.62c1.08-1.79,1.17-2.32,1.32-6.37.15-5-.15-6-2.59-8.65a9.35,9.35,0,0,0-8-2.82c-5,.66-7.13,2.66-6.86,6.54.18,2.63.73,3.72,2.56,4.94,2.06,1.39,5.66,1,5.12-.53-.12-.37-.69-.5-1.71-.42-1.36.1-1.62,0-2.6-1.45C86.06,11.39,85.9,10.24,86.9,9c3-3.75,9.89-2.82,11.88,1.59A13.32,13.32,0,0,1,95.5,25.38c-1.43,1.28-2.37,1.83-2.84,1.66s-2.07-.7-3.74-1.24-3.42-1.17-3.87-1.36C81.76,23,73.77,18.82,69.92,16.58,56.78,10.11,43.42-.47,28.14,0ZM27.3,2.27A69.72,69.72,0,0,1,41.11,4.43c6.6,1.81,12.33,6,19,8.89a2.07,2.07,0,0,1,1.14.42,20.77,20.77,0,0,0,2.59,1.67c8.4,4.85,11.81,6.72,14.12,7.74,1.44.66,3.13,1.49,3.74,1.84a19.15,19.15,0,0,0,3.24,1.36c1.17.38,2.67,1,3.34,1.28s1.5.68,1.82.8-.46.41-1.76.63c-2.48.44-6,.18-10.29-.76a103.45,103.45,0,0,1-13.53-4.77,7.29,7.29,0,0,0-1.67-.67,1.52,1.52,0,0,1-.87-.6,3.11,3.11,0,0,0-1.45-.88A31.2,31.2,0,0,1,56.14,19c-1.85-1.18-4.79-2.87-6.56-3.77l-5.22-2.66C38.42,9.46,27.94,7.35,22.3,8.11a32,32,0,0,0-13.41,5.3c-2,1.35-6.06,5.44-6.09,6.07a.92.92,0,0,1-.43.68c-.49.27-.46,0,.27-3.28,3-9,10.77-12.74,19.17-13.92a17,17,0,0,0,3-.55,6.94,6.94,0,0,1,2.49-.15Z"/></g></g></svg>