<svg xmlns="http://www.w3.org/2000/svg" viewBox="0 0 70.43 42"><defs><style>.cls-1{fill:#fff;}</style></defs><g id="圖層_2" data-name="圖層 2"><g id="_0-ui_kits" data-name="0-ui_kits"><g id="_2" data-name="2"><path class="cls-1" d="M49.43,1A20,20,0,1,1,35.22,35.05a20,20,0,1,1,0-28.1A19.92,19.92,0,0,1,49.43,1m0-1A20.83,20.83,0,0,0,35.22,5.56,21,21,0,1,0,21,42a20.87,20.87,0,0,0,14.22-5.56A21,21,0,1,0,49.43,0Z"/><path class="cls-1" d="M49.43,3.44A17.56,17.56,0,1,1,35.22,31.27a17.56,17.56,0,1,1,0-20.54A17.51,17.51,0,0,1,49.43,3.44m0-.5a18.11,18.11,0,0,0-14.21,7,18.06,18.06,0,1,0,0,22.2A18,18,0,1,0,49.43,2.94Z"/></g></g></g></svg>