<svg xmlns="http://www.w3.org/2000/svg" viewBox="0 0 98.87 42"><defs><style>.cls-1{fill:#fff;}.cls-2{fill:#173d4f;}</style></defs><g id="圖層_2" data-name="圖層 2"><g id="_0-ui_kits" data-name="0-ui_kits"><path class="cls-1" d="M77.87,1a20,20,0,1,1-20,20,20,20,0,0,1,20-20m0-1a21,21,0,1,0,21,21,21,21,0,0,0-21-21Z"/><path class="cls-1" d="M21,1A20,20,0,1,1,1,21,20,20,0,0,1,21,1m0-1A21,21,0,1,0,42,21,21,21,0,0,0,21,0Z"/><path class="cls-1" d="M49.43,1a20,20,0,1,1-20,20,20,20,0,0,1,20-20m0-1a21,21,0,1,0,21,21,21,21,0,0,0-21-21Z"/><circle class="cls-2" cx="77.87" cy="21" r="20"/><circle class="cls-2" cx="21" cy="21" r="20"/><circle class="cls-2" cx="49.43" cy="21" r="20"/><path class="cls-1" d="M77.87,3.44A17.56,17.56,0,1,1,60.3,21,17.58,17.58,0,0,1,77.87,3.44m0-.5A18.06,18.06,0,1,0,95.93,21,18.09,18.09,0,0,0,77.87,2.94Z"/><path class="cls-1" d="M21,3.44A17.56,17.56,0,1,1,3.44,21,17.58,17.58,0,0,1,21,3.44m0-.5A18.06,18.06,0,1,0,39.06,21,18.08,18.08,0,0,0,21,2.94Z"/><path class="cls-1" d="M49.43,3.44A17.56,17.56,0,1,1,31.87,21,17.58,17.58,0,0,1,49.43,3.44m0-.5A18.06,18.06,0,1,0,67.49,21,18.08,18.08,0,0,0,49.43,2.94Z"/><circle class="cls-2" cx="77.87" cy="21" r="17.56"/><circle class="cls-2" cx="21" cy="21" r="17.56"/><circle class="cls-2" cx="49.43" cy="21" r="17.56"/></g></g></svg>