<svg xmlns="http://www.w3.org/2000/svg" viewBox="0 0 38 38"><defs><style>.cls-1{fill:#fff;}.cls-2{fill:#173d4f;}</style></defs><g id="圖層_2" data-name="圖層 2"><g id="_0-ui_kits" data-name="0-ui_kits"><g id="circle-3"><path class="cls-1" d="M18.73,37.25A17.7,17.7,0,0,1,6.08,31.88,17.67,17.67,0,0,1,.75,19,17.67,17.67,0,0,1,6.1,6.1,17.68,17.68,0,0,1,18.73.75h.54A17.66,17.66,0,0,1,31.91,6.12,17.64,17.64,0,0,1,37.25,19,17.67,17.67,0,0,1,31.9,31.9a17.68,17.68,0,0,1-12.63,5.35Z"/><path class="cls-1" d="M18.73,1.5h.54A16.84,16.84,0,0,1,31.38,6.64,16.88,16.88,0,0,1,36.5,19a16.88,16.88,0,0,1-5.12,12.36A16.84,16.84,0,0,1,19.27,36.5h-.54A16.84,16.84,0,0,1,6.62,31.36,16.88,16.88,0,0,1,1.5,19,16.88,16.88,0,0,1,6.62,6.64,16.84,16.84,0,0,1,18.73,1.5m0-1.5h0A18.43,18.43,0,0,0,5.55,5.59,18.44,18.44,0,0,0,0,19,18.42,18.42,0,0,0,5.58,32.44,18.41,18.41,0,0,0,18.73,38h.54a18.43,18.43,0,0,0,13.18-5.59A18.42,18.42,0,0,0,38,19,18.44,18.44,0,0,0,32.42,5.56,18.41,18.41,0,0,0,19.27,0h-.54Z"/></g><path id="logo-instagram-outline" class="cls-2" d="M23.22,10.72a4.23,4.23,0,0,1,4.21,4.22v8.43a4.23,4.23,0,0,1-4.21,4.22H14.78a4.23,4.23,0,0,1-4.21-4.22V14.94a4.23,4.23,0,0,1,4.21-4.22h8.44m0-1.68H14.78a5.92,5.92,0,0,0-5.9,5.9v8.43a5.92,5.92,0,0,0,5.9,5.9h8.44a5.93,5.93,0,0,0,5.9-5.9V14.94A5.93,5.93,0,0,0,23.22,9Zm1.26,5.9a1.27,1.27,0,0,1,0-2.53,1.27,1.27,0,0,1,.89,2.16A1.26,1.26,0,0,1,24.48,14.94ZM19,15.78a3.38,3.38,0,1,1-3.37,3.37A3.37,3.37,0,0,1,19,15.78m0-1.69a5.06,5.06,0,1,0,5.06,5.06h0A5.07,5.07,0,0,0,19,14.09Z"/><path id="logo-instagram-outline-2" data-name="logo-instagram-outline" class="cls-2" d="M23.22,10.72a4.23,4.23,0,0,1,4.21,4.22v8.43a4.23,4.23,0,0,1-4.21,4.22H14.78a4.23,4.23,0,0,1-4.21-4.22V14.94a4.23,4.23,0,0,1,4.21-4.22h8.44m0-1.68H14.78a5.92,5.92,0,0,0-5.9,5.9v8.43a5.92,5.92,0,0,0,5.9,5.9h8.44a5.93,5.93,0,0,0,5.9-5.9V14.94A5.93,5.93,0,0,0,23.22,9Zm1.26,5.9a1.27,1.27,0,0,1,0-2.53,1.27,1.27,0,0,1,.89,2.16A1.26,1.26,0,0,1,24.48,14.94ZM19,15.78a3.38,3.38,0,1,1-3.37,3.37A3.37,3.37,0,0,1,19,15.78m0-1.69a5.06,5.06,0,1,0,5.06,5.06h0A5.07,5.07,0,0,0,19,14.09Z"/></g></g></svg>