<svg xmlns="http://www.w3.org/2000/svg" viewBox="0 0 38 38"><defs><style>.cls-1{fill:#fff;}.cls-2{fill:#163d50;}.cls-3{fill:none;}</style></defs><g id="圖層_2" data-name="圖層 2"><g id="_0-ui_kits" data-name="0-ui_kits"><g id="circle"><path class="cls-1" d="M18.73,37.25A17.7,17.7,0,0,1,6.08,31.88,17.67,17.67,0,0,1,.75,19,17.67,17.67,0,0,1,6.1,6.1,17.68,17.68,0,0,1,18.73.75h.54A17.66,17.66,0,0,1,31.91,6.12,17.64,17.64,0,0,1,37.25,19,17.67,17.67,0,0,1,31.9,31.9a17.68,17.68,0,0,1-12.63,5.35Z"/><path class="cls-1" d="M18.73,1.5h.54A16.84,16.84,0,0,1,31.38,6.64,16.88,16.88,0,0,1,36.5,19a16.88,16.88,0,0,1-5.12,12.36A16.84,16.84,0,0,1,19.27,36.5h-.54A16.84,16.84,0,0,1,6.62,31.36,16.88,16.88,0,0,1,1.5,19,16.88,16.88,0,0,1,6.62,6.64,16.84,16.84,0,0,1,18.73,1.5m0-1.5h0A18.43,18.43,0,0,0,5.55,5.59,18.44,18.44,0,0,0,0,19,18.42,18.42,0,0,0,5.58,32.44,18.41,18.41,0,0,0,18.73,38h.54a18.43,18.43,0,0,0,13.18-5.59A18.42,18.42,0,0,0,38,19,18.44,18.44,0,0,0,32.42,5.56,18.41,18.41,0,0,0,19.27,0h-.54Z"/></g><path id="Path_29977" data-name="Path 29977" class="cls-2" d="M14.51,28.56h4V20.48h3.63l.4-4h-4v-2a1,1,0,0,1,1-1h3v-4h-3a5,5,0,0,0-5,5v2h-2l-.4,4h2.41v8.08Z"/><path id="Path_29977-2" data-name="Path 29977" class="cls-3" d="M16.17,28.56h4V20.48h3.63l.4-4h-4v-2a1,1,0,0,1,1-1h3v-4h-3a5,5,0,0,0-5,5v2h-2l-.4,4h2.41v8.08Z"/></g></g></svg>