<svg xmlns="http://www.w3.org/2000/svg" viewBox="0 0 40 40"><defs><style>.cls-1{fill:#b33322;}.cls-2{fill:#040000;}</style></defs><g id="圖層_2" data-name="圖層 2"><g id="_0-ui_kits" data-name="0-ui_kits"><g id="icon-dont_drive_drink"><path class="cls-1" d="M40,19.27v1.6a.14.14,0,0,0,0,.06A20,20,0,0,1,21.26,40l-.55,0H19.13l-.06,0a20,20,0,0,1-13.66-6.3A19.94,19.94,0,0,1,0,21.31c0-.13,0-.25,0-.38V19.18a.14.14,0,0,0,0-.06c.05-.59.09-1.19.16-1.78a18.64,18.64,0,0,1,.91-3.89,20.07,20.07,0,0,1,11.36-12A19.75,19.75,0,0,1,18.7,0l.48,0h1.73L21,0a20.37,20.37,0,0,1,3.1.39A20,20,0,0,1,34.6,6.33,20,20,0,0,1,40,18.73C40,18.91,40,19.09,40,19.27ZM26.4,29.42l-.71-.72-.78-.77-2.64-2.62-3.86-3.84-3.93-3.91L11.91,15,8.34,11.45,7.09,10.2,7,10.12l-.09.12a16.11,16.11,0,0,0-3.22,9.15c0,.53,0,1.07,0,1.61l0,.47v.07a16.93,16.93,0,0,0,.45,2.56A16.29,16.29,0,0,0,8.88,32a16.32,16.32,0,0,0,21,1l.09-.07-.27-.19-.57-.57-.08-.09-2.61-2.6Zm0-6.16.1.1,2.39,2.37,3.82,3.79c.1.1.19.21.29.32a16.32,16.32,0,0,0-23-22.77.52.52,0,0,1,.11.1l2.31,2.27L15.09,12l2.65,2.62,2.61,2.59L23.14,20l2.35,2.34.21.17Z"/><path class="cls-2" d="M25.7,22.52c0-.28,0-.56-.09-.84a1,1,0,0,0-.42-.67c-.46-.34-.93-.68-1.41-1a11.8,11.8,0,0,1-1.93-1.53,4.54,4.54,0,0,1-1.24-2,4,4,0,0,1-.08-1.64c.14-.78.31-1.56.48-2.34a38.38,38.38,0,0,1,1.28-4.33.14.14,0,0,1,0-.06h5.51l2,0a.12.12,0,0,1,.13.09,37,37,0,0,1,1.57,4.95,13.31,13.31,0,0,1,.35,2.51,2.91,2.91,0,0,1-.66,2A11.41,11.41,0,0,1,28,20.42c-.29.17-.59.33-.86.52a1.52,1.52,0,0,0-.61,1.2l-.06,1.12Zm3.44,9.63a6.51,6.51,0,0,1-1.39-.23,1.73,1.73,0,0,1-1.26-1.48c-.06-.33-.06-.68-.09-1l-.71-.72a1.48,1.48,0,0,0,0,.21,6.69,6.69,0,0,1-.13,1.61,1.65,1.65,0,0,1-.87,1.23,3.47,3.47,0,0,1-.9.27c-.57.11-1.14.18-1.71.27a1.5,1.5,0,0,0-.36.11.2.2,0,0,0-.11.27c0,.12.12.07.18.08h7.16l.77,0Z"/><path class="cls-2" d="M11.21,30.31H10c-.39,0-.57-.16-.56-.55a7,7,0,0,1,.08-.92c0-.2.06-.39.09-.59a.67.67,0,0,1,.44-.52l.73-.25a1.52,1.52,0,0,0,.72-.5,6.48,6.48,0,0,1,3.14-2,4.23,4.23,0,0,1,1.46-.15c.62,0,1.25.07,1.87.13a2.85,2.85,0,0,1,1.34.53l1.93,1.33a1.1,1.1,0,0,0,.58.18,6.13,6.13,0,0,1,1.47.26,1.43,1.43,0,0,1,.73.47c.17.24.4.44.59.67A1.92,1.92,0,0,1,25,30a.71.71,0,0,1-.38.52v-.26a2.44,2.44,0,0,0-.25-1.07A1.46,1.46,0,0,0,23,28.37a1.78,1.78,0,0,0-1.88,1.49c-.05.2-.08.39-.11.59H14.86a5.58,5.58,0,0,0-.08-.57,1.87,1.87,0,0,0-1.25-1.46,1.7,1.7,0,0,0-2.28,1.47C11.23,30,11.22,30.16,11.21,30.31ZM13,31.56a1.39,1.39,0,1,0-1.41-1.38A1.4,1.4,0,0,0,13,31.56Zm9.92,0a1.39,1.39,0,1,0-1.41-1.39A1.4,1.4,0,0,0,22.91,31.56Z"/><path class="cls-2" d="M15.94,20.17a.61.61,0,0,1-.13,0,3,3,0,0,0-1-.3A2.17,2.17,0,0,0,12.67,21a6.19,6.19,0,0,0-.32.81c-.22.66-.43.86-1.12.88-1.11,0-2.22,0-3.34,0l0,0a2,2,0,0,0-1.2-2.64,1.87,1.87,0,0,0-2.21.55c-.21.24-.42.5-.62.75l-.1.09,0-.47a.15.15,0,0,0,.14-.13,3.17,3.17,0,0,1,.76-1.15c.22-.21.22-.28,0-.53-.05-.08,0-.21-.08-.31a.31.31,0,0,0-.1-.15c-.1-.08-.23-.12-.33-.19A.55.55,0,0,1,4,18.4c.05,0,.1-.09.16-.09l.65,0h.1c.06-.18.19-.27.35-.2a3.49,3.49,0,0,0,1,.13A3,3,0,0,0,7,18.15a1.64,1.64,0,0,1,.76.05c.43.07.87.12,1.3.17.12,0,.25,0,.37,0a.52.52,0,0,1,.46.35,1.18,1.18,0,0,1,.05.72.2.2,0,0,1-.06.13c-.09.06-.08.14-.07.23a7.81,7.81,0,0,0,.34,1.58c.12.35.12.35.48.35.16,0,.32,0,.49,0a.19.19,0,0,0,.22-.15,6.48,6.48,0,0,0,.24-.83,8,8,0,0,0,0-2.53,1.5,1.5,0,0,0-.17-.46.39.39,0,0,0-.46-.22.3.3,0,0,1-.21,0,.19.19,0,0,1,.08-.35,2.1,2.1,0,0,0,.61-.32l-.31-.41-.23.09a.17.17,0,0,1-.21-.05.59.59,0,0,1,0-.66c.07-.11.15-.15.26-.08s.4.24.38.52c0,0,0,0,0,.05l.32.43.41-.17-.16-.21c-.11,0-.21.13-.3,0s-.08-.4,0-.47a.14.14,0,0,1,.15,0,.84.84,0,0,1,.23.23l.26.4s.07,0,.1,0a3.13,3.13,0,0,1,.43,0,.27.27,0,0,1,.23.29,3.21,3.21,0,0,1-.1.62c0,.08-.16.15-.24.22l-.12.05a2.44,2.44,0,0,1,1.39,1.49,3.3,3.3,0,0,1,1.1.24,2.05,2.05,0,0,1,.88.66s0,0,0,0Zm.29,1.88a1.68,1.68,0,1,0-1.69,1.67A1.68,1.68,0,0,0,16.23,22.05Zm-1.67-1.11a1.13,1.13,0,1,1-1.12,1.13A1.12,1.12,0,0,1,14.56,20.94Zm-7,1.1A1.68,1.68,0,1,0,5.9,23.72,1.68,1.68,0,0,0,7.58,22ZM5.9,23.19a1.13,1.13,0,0,1,0-2.25,1.13,1.13,0,0,1,0,2.25Zm10-3h0s0,0,0,0Z"/></g></g></g></svg>