<svg xmlns="http://www.w3.org/2000/svg" viewBox="0 0 38 38"><defs><style>.cls-1{fill:#fff;}.cls-2{fill:#163d50;}</style></defs><g id="圖層_2" data-name="圖層 2"><g id="_0-ui_kits" data-name="0-ui_kits"><g id="circle-2"><path class="cls-1" d="M18.73,37.25A17.7,17.7,0,0,1,6.08,31.88,17.67,17.67,0,0,1,.75,19,17.67,17.67,0,0,1,6.1,6.1,17.68,17.68,0,0,1,18.73.75h.54A17.66,17.66,0,0,1,31.91,6.12,17.64,17.64,0,0,1,37.25,19,17.67,17.67,0,0,1,31.9,31.9a17.68,17.68,0,0,1-12.63,5.35Z"/><path class="cls-1" d="M18.73,1.5h.54A16.84,16.84,0,0,1,31.38,6.64,16.88,16.88,0,0,1,36.5,19a16.88,16.88,0,0,1-5.12,12.36A16.84,16.84,0,0,1,19.27,36.5h-.54A16.84,16.84,0,0,1,6.62,31.36,16.88,16.88,0,0,1,1.5,19,16.88,16.88,0,0,1,6.62,6.64,16.84,16.84,0,0,1,18.73,1.5m0-1.5h0A18.43,18.43,0,0,0,5.55,5.59,18.44,18.44,0,0,0,0,19,18.42,18.42,0,0,0,5.58,32.44,18.41,18.41,0,0,0,18.73,38h.54a18.43,18.43,0,0,0,13.18-5.59A18.42,18.42,0,0,0,38,19,18.44,18.44,0,0,0,32.42,5.56,18.41,18.41,0,0,0,19.27,0h-.54Z"/></g><path id="twitter-bird" class="cls-2" d="M30.79,11.67a9.88,9.88,0,0,1-2.41,2.5c0,.19,0,.39,0,.63a14,14,0,0,1-2.29,7.6,14.88,14.88,0,0,1-2.77,3.15,12.37,12.37,0,0,1-3.87,2.19,14.23,14.23,0,0,1-4.84.82,13.51,13.51,0,0,1-7.41-2.17,10.93,10.93,0,0,0,1.15.06,9.49,9.49,0,0,0,6-2.07A4.86,4.86,0,0,1,9.85,21,4.91,4.91,0,0,0,12,20.94a4.69,4.69,0,0,1-2.78-1.67,4.61,4.61,0,0,1-1.1-3.07v-.06a4.8,4.8,0,0,0,2.19.61A4.82,4.82,0,0,1,8.78,15a4.77,4.77,0,0,1-.59-2.3,4.85,4.85,0,0,1,.66-2.44,13.89,13.89,0,0,0,4.41,3.58,13.5,13.5,0,0,0,5.56,1.48,5.09,5.09,0,0,1-.13-1.1,4.68,4.68,0,0,1,1.42-3.42,4.85,4.85,0,0,1,6.85,0l.11.11a9.49,9.49,0,0,0,3.07-1.18A4.7,4.7,0,0,1,28,12.43,9.56,9.56,0,0,0,30.79,11.67Z"/></g></g></svg>