<svg xmlns="http://www.w3.org/2000/svg" viewBox="0 0 37 37"><defs><style>.cls-1{fill:#173d4f;}.cls-2{fill:#fff;}.cls-3{fill:none;stroke:#fff;stroke-linecap:round;stroke-linejoin:round;}</style></defs><g id="圖層_2" data-name="圖層 2"><g id="_0-ui_kits" data-name="0-ui_kits"><g id="circle-2"><path class="cls-1" d="M18.23,36.5A17.47,17.47,0,0,1,5.76,31.21,17.43,17.43,0,0,1,.5,18.49,17.41,17.41,0,0,1,5.78,5.78,17.42,17.42,0,0,1,18.23.5h.54A17.47,17.47,0,0,1,31.24,5.79,17.44,17.44,0,0,1,36.5,18.51a17.39,17.39,0,0,1-5.28,12.71A17.42,17.42,0,0,1,18.77,36.5Z"/><path class="cls-2" d="M18.23,1h.54A16.84,16.84,0,0,1,30.88,6.14,16.88,16.88,0,0,1,36,18.5a16.88,16.88,0,0,1-5.12,12.36A16.84,16.84,0,0,1,18.77,36h-.54A16.84,16.84,0,0,1,6.12,30.86,16.88,16.88,0,0,1,1,18.5,16.88,16.88,0,0,1,6.12,6.14,16.84,16.84,0,0,1,18.23,1m0-1h0A17.9,17.9,0,0,0,5.41,5.44,17.94,17.94,0,0,0,0,18.52,17.92,17.92,0,0,0,5.43,31.58,17.88,17.88,0,0,0,18.23,37h.54a17.9,17.9,0,0,0,12.82-5.44A17.92,17.92,0,0,0,37,18.49,17.94,17.94,0,0,0,31.57,5.42,17.88,17.88,0,0,0,18.77,0h-.54Z"/></g><path id="twitter-bird" class="cls-3" d="M30.26,11.17a9.92,9.92,0,0,1-2.42,2.5c0,.19,0,.39,0,.63a13.89,13.89,0,0,1-2.29,7.6,14.61,14.61,0,0,1-2.77,3.15,12.37,12.37,0,0,1-3.87,2.19,14.21,14.21,0,0,1-4.83.82,13.54,13.54,0,0,1-7.42-2.17A11.07,11.07,0,0,0,7.82,26a9.49,9.49,0,0,0,6-2.07,4.83,4.83,0,0,1-4.52-3.36,4.91,4.91,0,0,0,2.19-.08A4.84,4.84,0,0,1,7.62,15.7v-.06a4.8,4.8,0,0,0,2.19.61,4.82,4.82,0,0,1-1.57-1.73,4.65,4.65,0,0,1-.58-2.3,4.75,4.75,0,0,1,.65-2.44,13.89,13.89,0,0,0,4.41,3.58,13.5,13.5,0,0,0,5.56,1.48,4.52,4.52,0,0,1-.12-1.1,4.67,4.67,0,0,1,1.41-3.42,4.85,4.85,0,0,1,6.85,0l.11.11A9.49,9.49,0,0,0,29.6,9.25a4.65,4.65,0,0,1-2.12,2.68A9.74,9.74,0,0,0,30.26,11.17Z"/></g></g></svg>