<svg xmlns="http://www.w3.org/2000/svg" viewBox="0 0 37 37"><defs><style>.cls-1{fill:#173d4f;}.cls-2{fill:#fff;}</style></defs><g id="圖層_2" data-name="圖層 2"><g id="_0-ui_kits" data-name="0-ui_kits"><g id="circle-3"><path class="cls-1" d="M18.23,36.5A17.47,17.47,0,0,1,5.76,31.21,17.43,17.43,0,0,1,.5,18.49,17.41,17.41,0,0,1,5.78,5.78,17.42,17.42,0,0,1,18.23.5h.54A17.47,17.47,0,0,1,31.24,5.79,17.44,17.44,0,0,1,36.5,18.51a17.39,17.39,0,0,1-5.28,12.71A17.42,17.42,0,0,1,18.77,36.5Z"/><path class="cls-2" d="M18.23,1h.54A16.84,16.84,0,0,1,30.88,6.14,16.88,16.88,0,0,1,36,18.5a16.88,16.88,0,0,1-5.12,12.36A16.84,16.84,0,0,1,18.77,36h-.54A16.84,16.84,0,0,1,6.12,30.86,16.88,16.88,0,0,1,1,18.5,16.88,16.88,0,0,1,6.12,6.14,16.84,16.84,0,0,1,18.23,1m0-1h0A17.9,17.9,0,0,0,5.41,5.44,17.94,17.94,0,0,0,0,18.52,17.92,17.92,0,0,0,5.43,31.58,17.88,17.88,0,0,0,18.23,37h.54a17.9,17.9,0,0,0,12.82-5.44A17.92,17.92,0,0,0,37,18.49,17.94,17.94,0,0,0,31.57,5.42,17.88,17.88,0,0,0,18.77,0h-.54Z"/></g><path id="logo-instagram-outline" class="cls-2" d="M22.83,10.22A4.23,4.23,0,0,1,27,14.44v8.43a4.23,4.23,0,0,1-4.21,4.22H14.4a4.23,4.23,0,0,1-4.22-4.22V14.44a4.23,4.23,0,0,1,4.22-4.22h8.43m0-1.68H14.4a5.91,5.91,0,0,0-5.9,5.9v8.43a5.92,5.92,0,0,0,5.9,5.9h8.43a5.92,5.92,0,0,0,5.9-5.9V14.44a5.92,5.92,0,0,0-5.9-5.9Zm1.26,5.9a1.26,1.26,0,1,1,.9-.37A1.26,1.26,0,0,1,24.09,14.44Zm-5.48.84a3.38,3.38,0,1,1-3.37,3.37,3.37,3.37,0,0,1,3.37-3.37m0-1.68a5.06,5.06,0,1,0,5.06,5h0A5.06,5.06,0,0,0,18.61,13.6Z"/></g></g></svg>