<svg xmlns="http://www.w3.org/2000/svg" viewBox="0 0 334.66 28.7"><defs><style>.cls-1{fill:#b69564;}</style></defs><g id="圖層_2" data-name="圖層 2"><g id="_0-ui_kits" data-name="0-ui_kits"><path id="line" class="cls-1" d="M167.31,0c0,.05-1,.6-2.1,1.25a10,10,0,0,0-2.14,1.5A7.14,7.14,0,0,1,161,3.94a6.64,6.64,0,0,0-2.18,1.27c-.15.41-3.49,2.43-6.79,4.1-4.75,2.39-5.66,2.9-6.28,3.58a.3.3,0,0,1,0,.08l-1.36-.79a34.67,34.67,0,0,1-3.77-2.44c-1.06-.92-.85-1-5.79,2.22-3.55,2.31-4.61,2.73-6.66,2.62-1.81-.08-5.67-2.09-8.71-4.5-1.9-1.5-1.91-1.5-6.57,1-3.14,1.66-8.47,2.73-13.26,2.63a22.29,22.29,0,0,0-3.83.17c-17.06,0-43,.4-73.93.16-4.23-1.11-6-3.4-6.67-7.07a2.86,2.86,0,0,1,.53-1.84c1-1.39,3.74-1.6,6.27-.46,2.86,1.28,3.51.78,1.46-1.13-1.26-1.21-4.55-1.73-7.1-1.15-1.75.4-1.82.47-2.6,2.44a6.9,6.9,0,0,0,3.22,9C19.12,15,19.09,15,15.68,17.1c-2.91,1.8-4.55,4.32-4.3,6.65a9.27,9.27,0,0,0,.27,1.66c.07.09.37.59.68,1.12a5.72,5.72,0,0,0,2.27,1.71c3,.36,5.36-1,8.38-3,.13-.09.16-.4,0-.72s-.41-.41-.84-.08c-3.86,3-8.21,4.35-8.28-2,.59-2.73,5-5.62,9.36-6.16,25.84-.19,45-.87,74.94-.5a34.68,34.68,0,0,0,5.2-.13c3.8-.39,5.57-.27,5.82.38a11,11,0,0,0,2.46,2,17.17,17.17,0,0,1,2.39,1.77,5,5,0,0,0,1.37.95c1.68,1,3.31.61,7-1.51,1.71-1,3.26-1.85,3.45-1.94,1.38-.7,2.37-.51,6.32,1.23,5.85,2.56,6.2,2.59,8.56.59a14.76,14.76,0,0,1,4.29-2.92,3.7,3.7,0,0,0,1.41-1.25c.24.1.33.17.62.3a60.69,60.69,0,0,1,9.76,5.4c3.57,2.15,7.24,4.76,10.53,7,1.63,1.08,2,1.22,3,1,1.26-.26,3.77-1.82,6-3.75a73.62,73.62,0,0,1,9.65-6.9,12.34,12.34,0,0,0,2-1.31,2.89,2.89,0,0,0,.4-.38,3.28,3.28,0,0,0,1.11.88A14.81,14.81,0,0,1,194,20c2.35,2,2.71,2,8.54-.64,3.95-1.75,4.94-1.94,6.32-1.25.19.09,1.74,1,3.45,1.93,3.71,2.09,5.35,2.43,7,1.47a5.89,5.89,0,0,0,1.37-.95A15.84,15.84,0,0,1,223,18.81a10.42,10.42,0,0,0,2.44-2c.27-.66,2-.78,5.82-.42a33.46,33.46,0,0,0,5.2.11c29.94-.51,49.12.06,75,.12,4.36.52,8.76,3.39,9.38,6.12,0,6.39-4.4,5.11-8.28,2.09-.42-.34-.68-.33-.84.07s-.1.65,0,.72c3,2,5.37,3.32,8.38,3a5.75,5.75,0,0,0,2.27-1.72c.31-.53.6-1,.66-1.12a7.18,7.18,0,0,0,.26-1.66c.24-2.33-1.41-4.85-4.34-6.62-3.4-2.08-3.42-2.13-1.21-3.33a6.89,6.89,0,0,0,3.16-9c-.78-2-.86-2-2.62-2.43-2.54-.57-5.82,0-7.09,1.18-2.05,1.93-1.39,2.43,1.46,1.13,2.52-1.16,5.29-1,6.29.42a2.86,2.86,0,0,1,.53,1.84c-.61,3.68-2.4,6-6.64,7.1-30.87.41-56.87.18-73.94.22a22.2,22.2,0,0,0-3.82-.15c-4.78.12-10.13-.91-13.27-2.56-4.66-2.45-4.68-2.46-6.57-.94-3,2.44-6.88,4.46-8.69,4.55-2.05.12-3.12-.3-6.69-2.6-4.93-3.18-4.73-3.1-5.79-2.18a31.07,31.07,0,0,1-3.76,2.45l-1.78,1.05a22.22,22.22,0,0,0-4.2-3.14,31.74,31.74,0,0,1-3.05-2.39A37.85,37.85,0,0,0,176,5.13c-2-1.12-4.75-2.76-6.1-3.63a19.25,19.25,0,0,0-2.6-1.5Zm-.14,2.5a2,2,0,0,1,1,.42l2.45,1.41a16.06,16.06,0,0,1,2.1,1.46,8.09,8.09,0,0,0,1.9,1.13c1.09.44,3.86,2.37,8.8,6.14,2.68,2,2.62,2.55-.42,4.16a15.06,15.06,0,0,0-2.83,2.06,22.94,22.94,0,0,1-2.91,2.27,6.5,6.5,0,0,0-1.86,1.52,12.23,12.23,0,0,1-2.78,2.13L170,26.85l-1.25-1.06A45.92,45.92,0,0,1,163,21.74c-1.26-.76-4.24-2.59-6.61-4.06a54.34,54.34,0,0,0-6-3.32c-.9-.34-1.59-.75-1.53-.91a11.48,11.48,0,0,1,2.31-1.38c4.57-2.23,5.5-2.75,6.26-3.41a13.83,13.83,0,0,1,2.25-1.4,5.44,5.44,0,0,0,1.58-1,13.3,13.3,0,0,1,2.42-1.59,17.88,17.88,0,0,0,2.83-1.89.79.79,0,0,1,.63-.32Zm.24,4.94a5.34,5.34,0,0,0-1.54.59,5.67,5.67,0,0,0-2,1.31.86.86,0,0,1-.75.41c-.65,0-5.37,3.14-5.77,3.83s.83,1.94,7,6.78c3.68,2.88,3.16,3,12-2.63a20,20,0,0,0,3.14-2.21c.17-.44-.28-1-1.37-1.61-.52-.31-2-1.24-3.3-2.07s-3.23-1.94-4.28-2.5a10.89,10.89,0,0,1-2.42-1.62.81.81,0,0,0-.79-.28ZM8.68,10.34a6.45,6.45,0,0,0-.85.27c-.81.27-2.95,1-4.76,1.53-3,.92-3.26,1.06-3,1.64a5.08,5.08,0,0,0,.55,1c.14.16.9,1.17,1.67,2.18A5.31,5.31,0,0,0,4.7,19c1.45.29,5.23-.82,6.63-1.95S13,15.29,12.6,14.52a3.65,3.65,0,0,0-.69-.78,10.3,10.3,0,0,1-1.83-2.28c-.56-1-.74-1.27-1.4-1.12Zm157.84,0a2.9,2.9,0,0,1,1.53.3,58.8,58.8,0,0,1,7.18,3.83c.41.26.7.6.62.75-.39.66-2.39,2.15-4.85,3.61-3,1.8-3.07,1.78-6.57-1.05-2.77-2.24-3.89-3.2-3.92-3.75,0-.34.37-.54,1-.77a2.19,2.19,0,0,0,1.14-.74,6.82,6.82,0,0,1,2.05-1.43,6.25,6.25,0,0,1,1.81-.75ZM326,10.65c-.65-.15-.84.12-1.4,1.13a9.74,9.74,0,0,1-1.8,2.29,3,3,0,0,0-.69.8c-.41.76,0,1.47,1.27,2.5s5.2,2.22,6.64,1.91a5.15,5.15,0,0,0,2.4-2.07c.77-1,1.52-2,1.66-2.2a6.59,6.59,0,0,0,.55-1c.25-.6,0-.73-3-1.64-1.82-.54-4-1.22-4.78-1.52-.28-.09-.56-.18-.85-.25Zm-209.24.87c1,.07,3.46,1.48,5.82,3.38l1.31,1-2.3,1.56c-2.62,1.78-3.68,2.25-4.64,2.05-.38-.08-.57-.19-.42-.26s-.59-.63-1.65-1.27-2-1.58-3-2.36c-.89-.3-1.29-1.17-.67-1.43,1.09-.47,4.73-2.32,5.25-2.66a.7.7,0,0,1,.32-.05Zm22.76.6c.93,0,2,.29,2.15.78a3.26,3.26,0,0,0,1.2.84l1.06.51-.85.84a6.39,6.39,0,0,1-1.8,1.23,8.47,8.47,0,0,0-2.06,1.46l-1.11,1.07-2.49-1a6.72,6.72,0,0,1-2.75-1.69c-.15-.36-.11-.65.1-.6a9.39,9.39,0,0,0,2.49-1.4,21.75,21.75,0,0,1,3.2-1.87,3.61,3.61,0,0,1,.87-.16Zm78.46.25a.44.44,0,0,1,.31.06c.53.34,4.16,2.15,5.27,2.62.62.27.22,1.15-.66,1.44-1.05.78-2.08,1.68-3,2.37s-1.8,1.23-1.65,1.3,0,.17-.41.24c-1,.21-2-.25-4.66-2l-2.3-1.55,1.3-1c2.36-1.9,4.83-3.33,5.8-3.41ZM8,12.57c3.21,2.72,4.18,2.38-.12,4.57-1.93.77-2,.75-3.3-.49A8,8,0,0,1,3,14.72C2.67,14.11,2.88,14,5,13.37c1.31-.38,2.66-.74,3-.8Zm318.62.31c.35.06,1.69.4,3,.77,2.15.6,2.36.74,2.08,1.34a8,8,0,0,1-1.64,1.94c-1.33,1.25-1.36,1.27-3.3.52-4.31-2.18-3.34-1.84-.14-4.57Zm-131.46.21a2.3,2.3,0,0,1,.86.16,20.13,20.13,0,0,1,3.22,1.84,8.92,8.92,0,0,0,2.5,1.4c.2,0,.25.24.1.6a6.88,6.88,0,0,1-2.76,1.7l-2.49,1-1.1-1.06a8.43,8.43,0,0,0-2.06-1.45,7,7,0,0,1-1.82-1.22l-.87-.84,1.08-.52a2.89,2.89,0,0,0,1.18-.83c.19-.49,1.22-.83,2.15-.8Zm-27.32,1.28a5.6,5.6,0,0,0-2.09.56.82.82,0,0,0-.12.57c.13.71,1.59,1.52,2.72,1.54,1.5,0,1.7-1.49.31-2.47a2.53,2.53,0,0,0-.82-.2Z"/></g></g></svg>