<svg xmlns="http://www.w3.org/2000/svg" viewBox="0 0 375.82 364.18"><defs><style>.cls-1,.cls-2{fill:#b66496;}.cls-2{stroke:#fff;stroke-miterlimit:10;stroke-width:3px;}</style></defs><g id="圖層_2" data-name="圖層 2"><g id="_0-ui_kits" data-name="0-ui_kits"><g id="Group_6667" data-name="Group 6667"><g id="Group_6655" data-name="Group 6655"><g id="Group_6654" data-name="Group 6654"><path id="Path_31995" data-name="Path 31995" class="cls-1" d="M63.89,127.93a23.06,23.06,0,0,1-5.3-18.38C63.78,97,69.07,115.36,135.15,151c7.73,4.18,23.4,12.33,23.4,12.33C113.13,162.49,73.74,140.51,63.89,127.93Z"/><path id="Path_31996" data-name="Path 31996" class="cls-1" d="M.13,199.59a106.08,106.08,0,0,1,21.56,6.11,36.92,36.92,0,0,1,11,3.73c5.14,3.72,5.9,10.12,8.45,15.34,2,4.06,4.21,8,6.59,11.89a43.66,43.66,0,0,0,5.37,8A18.12,18.12,0,0,0,63,248.52a122.57,122.57,0,0,0,22,2.41c3.6,0,7.21,0,10.8-.23a17.24,17.24,0,0,0,5.29-.77h0c19.67-7-10-28.63,23.35-48.84a33.25,33.25,0,0,0-12.57,35.47c1.54,4.44-2.68,7.91-4.7,11.73-.37.71-3.33,7.74-3.85,9.49a5.58,5.58,0,0,1-.63,2.77c-1.53,4.47-1.54,9.27-3.29,13.69a39.51,39.51,0,0,1-7.18,12.3,17.51,17.51,0,0,1-2.21,2,121.28,121.28,0,0,0,30.85,4.16c17.08-.46,34.35-22,41.95-34.5a67.91,67.91,0,0,0,7.42-34.44,80,80,0,0,1-1,27.47c10.84-.68,37-.14,48.77-25.33l22.55,31.6c-7.92,17.19,10,19.41,12,12.48a5.59,5.59,0,0,0,.22-1.08,5.23,5.23,0,0,0-4.68-5.71,1.17,1.17,0,0,1-1.12-.86l.14-.09-.19-.2c-.13-2.51,4.21-8.31,9.75-12.37,37.4-27.49,70.07-45.1,60.61-82,3.36-1.75,5.66-4.2,4.53-7.37a13.7,13.7,0,0,0,1.29-2.38c.18-.46.47-.85.67-1.3a3.12,3.12,0,0,0,.15-.43L324,156l-.24-2.63c-.16-.48-.31-1-.31-1,7.09-5.1.65-12.24-7.08-9.23,12.12-39.23-21.47-56.78-59.91-84.64a26.81,26.81,0,0,1-9.69-11.42l.08-.11-.12-.08c-.23-1.05.11-1.75,1.11-1.88a5.27,5.27,0,0,0,4.44-6.84c-2-7-20.3-4.48-11.67,13.1l-5.92,8.44a13.93,13.93,0,0,0-3.65-.13,12.93,12.93,0,0,0-19.86-7.33l-.5,0a18.1,18.1,0,0,0-8.7-3c.58-.18-15.15-1.64-17.16,8.74A16.44,16.44,0,0,0,159.6,69.55c-18.5.1-18.77,15.84-9.86,21.14a8.08,8.08,0,0,0,.14,16.13A9.6,9.6,0,0,0,144.82,119a10.34,10.34,0,0,0,13.29,4,9.41,9.41,0,0,0,7.7,16.89,4.72,4.72,0,0,0,3.13,4.2,3.94,3.94,0,0,0,.27,1.06c-16.5,1.4-15.38-3.39-38.2-20.83a79,79,0,0,0-27.82-8.71A424.82,424.82,0,0,1,25,84.92c.54.27,1.86,7.72,2.34,8.82a37.05,37.05,0,0,0,29,21.73,326.09,326.09,0,0,1-41-8.56c-1.9,2.14-3.07,7.67,6.15,13.09a56.59,56.59,0,0,0,36.76,6.11,143.52,143.52,0,0,1-37.65,3.4c-3.4,13.64,26.48,13.71,35.21,13.19-14.21.85-11.93,14.27-.06,15.32a29.71,29.71,0,0,0,8.66-.83C54.53,159.43,57,175.24,80.05,168c-6.88,8.51,8.41,14.14,24.67,8.2l.14.08c.54,8.84,17.24,5.37,26.15,2.46a9.23,9.23,0,0,1,4.85,2.13,19.84,19.84,0,0,0-3.18,6.14c-9.73.28-32,6-32.56,20.91A129.57,129.57,0,0,0,75.34,215c-10.66-14.72-26.42-7.5-24-20.26a6,6,0,0,0-2.16-6.07c-6-5.17-13.83.72-19.7,3.15-4.3,1.78-24.18,2.12-28.46,6C.85,198-.4,199.49.13,199.59ZM230.78,67.06l-54.62,75.85-.12-.07-.36-.31-.22-.2,54.37-75.5Zm7.54,36.73a24.23,24.23,0,0,0-6.87-3.26c-5.75-1.54-5.95.28-7.38-1.38-.38-.48.28-1.36.79-1.55a15.63,15.63,0,0,1,13.33,5.1C239.16,103.71,238.59,104,238.32,103.79Zm-12.75,3.37c0-.74,1.14-1,1.74-1a13.73,13.73,0,0,1,4.38.25,7.19,7.19,0,0,1,4.63,3.26,11.8,11.8,0,0,0-2.69-.75,16.63,16.63,0,0,0-2.22-.39,13.59,13.59,0,0,0-3,0c-.83.08-2.43,0-2.77-.89A1.13,1.13,0,0,1,225.57,107.16Zm76.57,34.91a11.9,11.9,0,0,0-8.34,2.25,4.22,4.22,0,0,0-.92,2.16,23,23,0,0,0,.52,2.44c-6.36,1.33-28.7-5.08-43.88.63l-3.44.12a71.32,71.32,0,0,0-28.68-2.55,7.37,7.37,0,0,0,.13-1.69,25.57,25.57,0,0,0,1.85-2.56,34.29,34.29,0,0,0,18.32-6.41c6.29-4.94,4.89-11.6,5.72-14.37.55-1.79,2.37-3.65,2.2-5.56-.24-2.71-3.47-3.49-4.16-5.81-1.24-4.18,3.56-7.26,2.11-18A9.21,9.21,0,0,0,245,74.34a12.72,12.72,0,0,0-7.68-13.8L242,53.9C256,76.88,307.87,99.13,302.14,142.07Zm-82.92,81.25c3.05-7.76,3-12.69,4.91-16.51a41.51,41.51,0,0,0,12-26.79c3.6-1.78,4.29-2.49,9.43-4.92a76.82,76.82,0,0,1,9.35-.21,341.58,341.58,0,0,0,38.31-7.38,3.75,3.75,0,0,0,.65.2,5.41,5.41,0,0,0,1.47,2.69,28.71,28.71,0,0,0,7.24,1.26c.62,39.4-47.75,61.13-60.59,83.38Zm-10.37-67.57-.06-1.84,93.91-.48a9.45,9.45,0,0,0,1.44,1.83ZM185.2,180.39l.88-.36,27.39,37.69-.47.92Zm-5.6-12.16a16.23,16.23,0,0,1-17-.16,8.05,8.05,0,0,1,.11-1.3,15.48,15.48,0,0,0,16.79.39c.48-.32,2,1.68,2.39,2s1.07,1.18.33,1.55c-.31.15-1.58-.31-1.91-.37h-.11a1.22,1.22,0,0,0-.36.27,1.18,1.18,0,0,0,.08,1.65c1,1.12,3.49.41,4.72.23s1.17-.23,1.39-1.42a5.69,5.69,0,0,0,.11-3.09c-.39-.88-1.57-1.47-2.34-2-1-.68-2-1.41-2.94-2.19a.27.27,0,1,1,.3-.46c1.18.52,2.17,1.36,3.35,1.88a5.45,5.45,0,0,1,2.56,1.56,4.13,4.13,0,0,1,.65,2.82,5.23,5.23,0,0,0,2.69-1.47c1.07-1.26,1.47-2.79.05-4a18.4,18.4,0,0,0-1.83-1.31c-1.29-.82-2.62-1.65-3.85-2.61-.31-.25.08-.29.31-.34s1,.43,1.18.53c.77.35,1.54.7,2.28,1.09,1.21.64,3.43,1.65,4,2.9a4,4,0,0,1-1.23,4.16,9,9,0,0,1-3.8,1.92c-.35,1.42-.72,2.7-2.42,3.18a12.56,12.56,0,0,1-2.29.36,4.44,4.44,0,0,1-4-1.08c-.06-.07-.4-1.17-.4-1.17a2.49,2.49,0,0,1,2.27-2.12c-.37-.48-.73-1-1.08-1.45Zm-20.43,1.89A48.86,48.86,0,0,1,139.43,175a47.31,47.31,0,0,1-30.38-9.8,53.51,53.51,0,0,1-4.67-4.23c-.16-.16-.47-.64-.7-.63l-.51-.13a3.5,3.5,0,0,1-.82-.41,3.75,3.75,0,0,1-1.26-1.48l0,0a2.76,2.76,0,0,1,.74-3.81,36.28,36.28,0,0,1,5.4-2.61,88.85,88.85,0,0,1,37-6.35c5.3.17,10.48.55,15.86,1.05s10.83.92,16.11,1.49,10.55,1.14,15.83,1.57a6.77,6.77,0,0,1,5.25,2.26,3.67,3.67,0,0,1,0,4.55l-.14.15c-.08,1.19.71,2.29.12,3.45a2.61,2.61,0,0,1-1.57,1.29,41,41,0,0,0,.24-4.7,41.67,41.67,0,0,0-4.93-1.08c-.9-.2-2.83-.3-3.45-1,.82-.85,3.23,0,4.27.15,1.47.18,2.95.38,4.41.6a2,2,0,0,0-.28-2.83,6.66,6.66,0,0,0-3.62-1.52c-3.2-.53-6.44-.64-9.63-.9-6.68-.54-13.36-1-20-1.68a153.63,153.63,0,0,0-32-.86,83.88,83.88,0,0,0-14.29,2.93A89.74,89.74,0,0,0,104.15,155c-1.18.59-2.78.37-2.51,2a3.6,3.6,0,0,0,1.8,2.44c.55.2.72.16,1.12.6s.84.82,1.27,1.24c.78.75,1.6,1.48,2.45,2.17A46.48,46.48,0,0,0,132,173.63a48,48,0,0,0,27.4-4.69,6.75,6.75,0,0,0-.11,1.19Z"/><path id="Path_31997" data-name="Path 31997" class="cls-1" d="M125.64,238.12a149.86,149.86,0,0,0,1.85,16.52,44.23,44.23,0,0,0-34.3,19l-16.38,16.4a61.87,61.87,0,0,0-14.59-1.86,14.62,14.62,0,0,0-10.48,9.89c-1.85,6.12,1.13,10.72,1.06,16.54-.14,11.07-12.09,21.09-8.25,31.93a26.85,26.85,0,0,0,2.15,3.85c-4.78,5.37,1.2,14.42,3.51,13.71,1.26-.4,2-2.49,2.62-3.55a213.5,213.5,0,0,1,19.06-27.53,48.85,48.85,0,0,1,9.65-7.91,192.61,192.61,0,0,1,49.2-18.85,173.17,173.17,0,0,0,44.75-14.93c22.3-12,30-53.84,31.14-76.54"/></g><path id="Path_31998" data-name="Path 31998" class="cls-1" d="M81.89,31.25a39,39,0,0,0,3.28,15.57,26.51,26.51,0,0,0,19.13,15.3,94,94,0,0,0,14.3,1.39h1.85a14.4,14.4,0,0,1-10.89.05,2.06,2.06,0,0,0-2.16.16,1.92,1.92,0,0,0-.69,2.06,17.55,17.55,0,0,0,13,10.35,27.41,27.41,0,0,0,16.63-2.64c5-2.33,9.59-5.58,14.58-8a55.64,55.64,0,0,1,16.67-5.09,14.29,14.29,0,0,1,7.93.52,5.11,5.11,0,0,1,3.23,4.92,1.59,1.59,0,0,0,1,1.75,10.89,10.89,0,0,0,2,6,2.9,2.9,0,0,0,.73.71A15.77,15.77,0,0,0,179.65,76c.56.25,1.12.48,1.64.68a20.51,20.51,0,0,0,3.7,1,13.11,13.11,0,0,1,12.35.15l1.28,0a22.88,22.88,0,0,1,3-4.22c1.17-2.67,2.84-5.12,4.12-7.91l-.36.15a17.16,17.16,0,0,0-2.28-5.25,10.67,10.67,0,0,0,3.19-5.22,22.67,22.67,0,0,0,.93-8.7,30.17,30.17,0,0,0-6.86-16.44,58.06,58.06,0,0,0-36.27-19.5,43.15,43.15,0,0,0-16.29,1.64A47.71,47.71,0,0,1,131.23,17a22.65,22.65,0,0,1-8.07-2.46c-2.43-1.15-4.84-2.44-7.16-3.73a20,20,0,0,1-9.69-9.71c-.69-2-3.79-1.09-3.1.86a23.44,23.44,0,0,0,11.5,11.94,42.56,42.56,0,0,0,15.74,6.31,16.64,16.64,0,0,0,4.11-.14c-3.5,1.82-6.81,3.78-10.23,5.64a29.36,29.36,0,0,1-7.7,3.42,23.71,23.71,0,0,1-8.8-.43A35.6,35.6,0,0,1,92.68,23a17.58,17.58,0,0,1-7.37-11.59,2.34,2.34,0,0,0-2-2.25,2.31,2.31,0,0,0-2.46,1.65,24,24,0,0,0,2,18.75A1.73,1.73,0,0,0,81.89,31.25Z"/></g><path id="Path_31999" data-name="Path 31999" class="cls-2" d="M374.28,154.79a4.42,4.42,0,0,0-2.45-4.09,3.54,3.54,0,0,0-4.08,1,2.87,2.87,0,0,0-.31-.29.51.51,0,0,0-.15-.37,4.51,4.51,0,0,0-4.43-.43,9.25,9.25,0,0,0-1.88.89c-.52.22-1.09.49-1.62.7h0a25.55,25.55,0,0,0-5.3-1.89c-1.85-.59-3.71-1.13-5.55-1.69-3.76-1.16-7.43-2.57-11.11-3.81-1.75-.61-3.5-1.21-5.21-2a50.84,50.84,0,0,0-4.94-1.9c-1.68-.53-3.37-.65-5.08-1-.81-.17-1.6-.44-2.39-.69l.12-.14-.64-.25a26.43,26.43,0,0,0-8.12-.76c-2.92,0-5.91.06-8.78,0s-5.74-.25-8.63-.39c-8.51-.38-42.15-.19-50.63-.1-8.88.13-17.77-.63-26.66-.62a1,1,0,0,0-.64.26,8.22,8.22,0,0,0-5.39,2.56.9.9,0,0,0-.15.19,1.07,1.07,0,0,0,.38,1.45,16.9,16.9,0,0,0-2.65,5,37,37,0,0,0-1.57,5.13A43,43,0,0,0,207.5,175a29.75,29.75,0,0,0,2,4.7,1.11,1.11,0,0,0,.26.8,8,8,0,0,0,.76.78,8.21,8.21,0,0,0,5.3,3.38,42.09,42.09,0,0,0,6.64.32l6.4.06c8.46.08,42-.07,50.48-.12s17-.14,25.43-.27l3.5-.12h2.21a24.66,24.66,0,0,0,8.21-.57l.65-.22-.12-.16c.82-.23,1.61-.49,2.42-.66a49.47,49.47,0,0,0,5.12-.92,50.31,50.31,0,0,0,5-1.87c.78-.35,1.58-.65,2.38-.94a5.2,5.2,0,0,0,.72-.26l2.18-.75c3.74-1.25,7.45-2.6,11.21-3.72,1.88-.49,3.76-1,5.61-1.57a33.28,33.28,0,0,0,4.68-1.54,16.69,16.69,0,0,0,3.28.64,9.41,9.41,0,0,0,3.38-.29,4.84,4.84,0,0,1,1-.27h.19l.28.17.2.13a4.26,4.26,0,0,0,2.28,1.06,3.87,3.87,0,0,0,4.13-2.89,10.67,10.67,0,0,0,.37-2,41.22,41.22,0,0,0,.51-6.75C374.17,159.06,374.42,156.9,374.28,154.79Z"/></g></g></g></svg>