<svg xmlns="http://www.w3.org/2000/svg" viewBox="0 0 1147.21 1114.55"><defs><style>.cls-1{fill:#173d4f;}.cls-2{fill:#fff;stroke:#fff;stroke-miterlimit:10;stroke-width:3.13px;}.cls-3{fill:#f2a4ce;}.cls-4{fill:none;stroke:#f2a4ce;stroke-miterlimit:10;}</style></defs><g id="圖層_2" data-name="圖層 2"><g id="_0-ori" data-name="0-ori"><g id="Group_3492" data-name="Group 3492"><g id="Layer_1" data-name="Layer 1"><g id="Group_3486" data-name="Group 3486"><g id="Group_3430" data-name="Group 3430"><path id="Path_25193" data-name="Path 25193" class="cls-1" d="M502.4,276.2a3.56,3.56,0,0,0,3.84-5.32,3.48,3.48,0,0,0-6.39.75,3.6,3.6,0,0,0,2.35,4.52Z"/></g><g id="Group_3431" data-name="Group 3431"><path id="Path_25194" data-name="Path 25194" class="cls-1" d="M517.15,226.59a35.42,35.42,0,0,1,15.08,1.82c4.46,1.07,7.21-2.83,5.22-7-4.31-9.1-29.12-11.3-31.26-.34C504.91,227.55,512.3,233.23,517.15,226.59Z"/></g><g id="Group_3432" data-name="Group 3432"><path id="Path_25195" data-name="Path 25195" class="cls-1" d="M520.92,152.22c-16.24,13.58-5.15,49.17,23.78,45.77a37.34,37.34,0,0,0,8.22,19.25c-11.67,8.72-9,29.22,12.93,36.44,1.65,1.81,5.29,1.8,8.36,1.82,5.76.05,6.74-9.07,1-9.77-21.85-2.73-23.56-18.87-16.45-24.15a12.39,12.39,0,0,0,9.6.09h0a4.35,4.35,0,0,0-1.24-8.46c-5.23-.39-11.52-2.77-14-17.65,4.46-2.26,9-6.6,9-9.91.05-5.28-11.36-7.29-16.25.26-17.59,4.35-29.55-10.9-20.12-30.1a3,3,0,0,0-4.77-3.59Z"/></g><g id="Group_3433" data-name="Group 3433"><path id="Path_25196" data-name="Path 25196" class="cls-1" d="M581.8,260.78a3.08,3.08,0,0,0,5.35,2.56,22.93,22.93,0,0,1,17.67-8.47c-7,1.32-14.48,7.45-14.24,14.36a4.53,4.53,0,0,0,7.77,3c3.86-4.05,4.2-11.23,15-6.87,2.8,1.1,6.28,2.47,8.24-1,1.59-2.83-.62-6.66-5.82-8.67,1.54.29,3,.62,4.21,1a10,10,0,0,1,8.24,11.57c0,.14-.05.28-.08.42-1.11,7.47-12.57,20.19-5.35,22.44a3.79,3.79,0,0,0,2.69-.19c14.64-6.57,23.13-35.17,1-44.08C612.24,241,584.11,241.14,581.8,260.78Z"/></g><g id="Group_3434" data-name="Group 3434"><path id="Path_25197" data-name="Path 25197" class="cls-1" d="M585.46,296.09a14.89,14.89,0,0,0,6.7-.36c5.92-1.11,9.08-14.54,3.16-19.67a5.74,5.74,0,0,0-7-.26c-1.72.81-3.85,1.82-3.93,3.8-.08,1.64,1.33,2.85,2.59,3.67a5.91,5.91,0,0,1,0,1.68C578.05,287.43,580.29,294.76,585.46,296.09Z"/></g><g id="Group_3435" data-name="Group 3435"><path id="Path_25198" data-name="Path 25198" class="cls-1" d="M568.18,313.11c10.93,10.75,40,9.64,47.37-6.81.24-.52,1-2.11-.11-3.19-1.29-1.32-3.28-.46-7.63,1.41-8.9,3.82-14.8,5.91-24.3,4.06a38.55,38.55,0,0,1-8.14-3.22,5.84,5.84,0,0,0-3.54-1.11,5.17,5.17,0,0,0-3.65,8.86Z"/></g><path id="Path_25199" data-name="Path 25199" class="cls-1" d="M540.5,250.6a41.25,41.25,0,0,1-6.07-3.77c-3.71-2.44-17.76-4.29-26,1.9a7.66,7.66,0,0,0-2.15,10.64,8,8,0,0,0,1.19,1.4c-.1.17-.2.33-.29.51a10.56,10.56,0,0,0,1.16,10.84c2.29,3,7.22,5.06,10.39,2.07a5.15,5.15,0,0,0,1.55-3.09,4.38,4.38,0,0,0,.4-1,3.9,3.9,0,0,0-.25-2.81l0-7.4c8.26-4.11,15-5.89,18.4-4.78a2.39,2.39,0,1,0,1.72-4.47Z"/><g id="Group_3436" data-name="Group 3436"><path id="Path_25200" data-name="Path 25200" class="cls-1" d="M510.86,276.57a3.77,3.77,0,1,0,2.53,4.68,3.67,3.67,0,0,0,.13-1.51A3.72,3.72,0,0,0,510.86,276.57Z"/></g><g id="Group_3437" data-name="Group 3437"><path id="Path_25201" data-name="Path 25201" class="cls-1" d="M240.3,343.68c.12-4.17-8.14-8.27-9.84-10.5-2-2.62-2.42-15.95-4.75-16.91-3.91-1.62-7.36,6.29-7.47,8.56A23.45,23.45,0,0,0,229,346.06C235.3,349.68,240.21,346.67,240.3,343.68Z"/></g><g id="Group_3438" data-name="Group 3438"><path id="Path_25202" data-name="Path 25202" class="cls-1" d="M232.38,379.87l-.69.82h0l.69-.82h0c-2.23-1.84,3.14-5.84,3.75-11.49,1-8.77-7.54-10.35-6.91-14.18a4.26,4.26,0,0,0-7.61-3.45c-2.35,2.55-2.58,8.16,3.34,13.63,2.65,2.45,2.68,2.88.78,6.34-4.92,8.87-4.14,12.08,2.6,19.21a5,5,0,0,0,8.25-.7C239.11,385.44,234.4,381.53,232.38,379.87Z"/></g><g id="Group_3439" data-name="Group 3439"><path id="Path_25203" data-name="Path 25203" class="cls-1" d="M444.83,427.63a11.47,11.47,0,0,0,7.72,5.73c5.55,1.43,11.94-.12,14.25-5.24a5.91,5.91,0,0,0-6.7-8.37c-4.13.9-3.15,2.27-7.55-.05a5.79,5.79,0,0,0-7.72,7.93Z"/></g><g id="Group_3440" data-name="Group 3440"><path id="Path_25204" data-name="Path 25204" class="cls-1" d="M437.6,372.66c-22.54-9.45-84.29-15.53-106.3-14.64-1.16.05-2.75.11-2.83,1.63-.19,3.57,9.51,1.76,71.23,13.24,27.93,5.18,39.83,6.87,52.89,20.87a2.89,2.89,0,0,0,3.13,1,3,3,0,0,0,1.71-3C457.49,387.76,453.38,379.28,437.6,372.66Z"/></g><g id="Group_3441" data-name="Group 3441"><path id="Path_25205" data-name="Path 25205" class="cls-1" d="M752.55,755.17c-42.81,11.4-72.61,2.49-93.5,2.52a3,3,0,0,0-1.43,5.66c50.21,28.12,185-4.31,218.42-100,1.1-3.13-3.33-4.8-5-2.22s-3,5-4.42,7.53C852.4,693.31,812.39,739.23,752.55,755.17Z"/></g><g id="Group_3442" data-name="Group 3442"><path id="Path_25206" data-name="Path 25206" class="cls-1" d="M882,1081.93a2.4,2.4,0,0,0-2.41,4.13,9.54,9.54,0,0,1,3.71,11,2.43,2.43,0,0,0,1.55,3C889.88,1102,891.87,1086.33,882,1081.93Z"/></g><g id="Group_3443" data-name="Group 3443"><path id="Path_25207" data-name="Path 25207" class="cls-1" d="M873.83,1092.16c-.56-2.72-3.45-4.29-4.39-7-8.39-24.37-21-29.28-44.24-65.36C811,997.68,787,984.12,758.25,972c-13.49-5.7-27-11.45-40-18.34-5.1-2.71-9.82-6.13-14.94-8.77-6.87-3.55-14.34-4.9-21-9.36a110.83,110.83,0,0,1-17.41-15,57.39,57.39,0,0,1-10.21-14.17c-1.12-2.52-3.46-7.38-6.41-8.12-5.37-1.34-1.84,8.69-1,11.12A42,42,0,0,0,663,930.62c3.25,2.26,5.87,5.18,9.18,7.31a142.25,142.25,0,0,0,15.44,8.4c9.81,4.69,19,10.49,28.43,15.9a379.43,379.43,0,0,0,39.36,18.26c82.25,35.28,52.73,45.23,89.3,78.82,10.89,10,16.29,25.16,22.91,38.29,3.2,6.36,8.19,3.81,7.73-.18C875.17,1095.57,874.17,1093.76,873.83,1092.16ZM645,898.67a4.44,4.44,0,0,0-.93,1.23.88.88,0,0,1,.45-1.16A1,1,0,0,1,645,898.67Z"/></g><g id="Group_3444" data-name="Group 3444"><path id="Path_25208" data-name="Path 25208" class="cls-1" d="M908.89,1076a36.82,36.82,0,0,0,3.8-18.36c-1.12-20.41-21.85-32.3-24.33-48.07-1.43-9,4.39-17.9,8.54-26.35,12.75-26,1.91-45.24-32.57-42.3a3.61,3.61,0,0,0,.33,7.21c19.23,0,32.39,3,28.42,21.77-3.16,15-15.86,26.47-12.43,43.27,4.68,22.83,35.36,30.34,17.57,64.79-1.25,2.41-4.52,3.55-5.61,6.66-1.66,4.73,3.22,4.5,3.95,5.79.82,1.45-1.79,10.25-6.72,14.14-1.9,1.5-4.18,1.24-6.48,2.84-3.06,2.13-2.55,6.81,1.16,7.16,2.79.26,4.36-1.64,7.61-4.11a32.55,32.55,0,0,0,5.4-4.82,2.82,2.82,0,0,0,3.17,4.09c6.5-1.77,11.08-9.4,12.24-16A25,25,0,0,0,908.89,1076Zm-10.42,28.4a24,24,0,0,0,3.69-10.81c.3-3-.6-3.62-.15-8.63a25,25,0,0,0,2.1-2,16.06,16.06,0,0,1-.74,16.21,40,40,0,0,1-4.91,5.25Z"/></g><g id="Group_3445" data-name="Group 3445"><path id="Path_25209" data-name="Path 25209" class="cls-1" d="M877.29,976.77c-13.67,13.45-15.85,26.08-12.39,27.15,1.73.53,2.25-1.4,3.06-3.21a43.91,43.91,0,0,0-.76,7.14,2.81,2.81,0,0,0,2.13,2.89c2.5.64,3.47-1,6.78-6a1.85,1.85,0,0,0,1.54-.16c1.4-.83,1-2.77.58-4.41a3,3,0,0,0-3.28-2.57l-.3,0a50.43,50.43,0,0,1,5.73-13.85c1.16-1.92-.54-3.33-2-2.6.51-.62,1-1.23,1.6-1.82a1.89,1.89,0,1,0-2.71-2.64Z"/></g><g id="Group_3446" data-name="Group 3446"><path id="Path_25210" data-name="Path 25210" class="cls-1" d="M671.79,348.28c-9.45,2.65-27.06,7.57-34-12.74-1.92-5.64-.57-10.8.44-16.61a2.91,2.91,0,0,0-2.3-3.42,3,3,0,0,0-2.72.9c-9.89,11.87-3,37.41,17.68,42.73,18.27,4.71,29.24-8.09,27.09-11-1-1.3-2.61-.84-6.23.17l.28,1.05h0Z"/></g><g id="Group_3447" data-name="Group 3447"><path id="Path_25211" data-name="Path 25211" class="cls-1" d="M834.52,645.47c-26.92,13.27-42.52,21.22-86.34,22.68-17,.56-34.24-.19-51.28.1-27,.45-52.51,3.38-53.64,5.62l-.39.82c.79,1.11,1,1.51,2.42,1.33,34.79-4.51,70.6,2.27,105.73,1.5,28-.6,68-6.53,87.42-27a3.25,3.25,0,0,0-3.92-5.06Z"/></g><g id="Group_3448" data-name="Group 3448"><path id="Path_25212" data-name="Path 25212" class="cls-1" d="M1118.37,666.2a2.48,2.48,0,0,0,2.46,4.3A11.41,11.41,0,0,1,1135.1,674a33.42,33.42,0,0,1,5.37,9,2,2,0,0,0,2.49,1.33,2,2,0,0,0,1.33-1.31C1149.51,668.06,1134.4,656.15,1118.37,666.2Z"/></g><g id="Group_3449" data-name="Group 3449"><path id="Path_25213" data-name="Path 25213" class="cls-1" d="M1135.43,658.89a6.79,6.79,0,0,1,5.49,5.7,3.15,3.15,0,0,0,6.28-.53,2.7,2.7,0,0,0-.06-.41c-1.48-9.64-12.94-13.44-13.78-8.15A2.93,2.93,0,0,0,1135.43,658.89Z"/></g><g id="Group_3450" data-name="Group 3450"><path id="Path_25214" data-name="Path 25214" class="cls-1" d="M1022.73,602.88c-10,2.35-16.25,11.22-20.11,20.87a15.94,15.94,0,0,1,2.69,1.83c14.33-25.67,26.58-19.71,47.24,1.07,10.94,11,14,13.94,33.51,17.09,10.84,1.74,22,3.54,29.89,15.3,2.11,3.19,6.38-1,4.32-4-8.31-12.21-19.94-16-33.33-18.34s-20.55-5.09-34.27-19.54C1047.07,611.24,1036.57,599.64,1022.73,602.88Z"/></g><g id="Group_3451" data-name="Group 3451"><path id="Path_25215" data-name="Path 25215" class="cls-1" d="M1047.82,631.49a2.26,2.26,0,0,0-3.26,3c8,10.82,23.86,16.79,25.22,11.43a2.53,2.53,0,0,0-1.1-2.78,20,20,0,0,0-6-2.66l-.31,1h0l.28-1C1061.55,639.9,1060.15,641,1047.82,631.49Z"/></g><g id="Group_3452" data-name="Group 3452"><path id="Path_25216" data-name="Path 25216" class="cls-1" d="M1017.74,651.32a2.67,2.67,0,0,0,0-2.37c-2.1-4.79-9.29-2.93-12.35,2.08-2.78,4.56-.63,10.19,2.36,10.46,2.36.22,3.29-1.87,3.08-4.28C1010.25,651.07,1016,654.59,1017.74,651.32Z"/></g><g id="Group_3453" data-name="Group 3453"><path id="Path_25217" data-name="Path 25217" class="cls-1" d="M915.18,697.32c33.37-38,63.56-31.73,79.36-38.8,12.68-5.66,14.21-15.57,13.12-20.53-1-4.43-4.22-4-4.8-1-3.92,20.51-27.07,15.94-48.62,24.67-24.64,10-42.77,30.85-42.19,36.27C913.25,698.33,913.9,698.78,915.18,697.32Z"/></g><g id="Group_3454" data-name="Group 3454"><path id="Path_25218" data-name="Path 25218" class="cls-1" d="M914.14,698.8c-10.15,10.28-10.16,10.26-11.73,12,7.3-11.34,10.33-12.2,8.48-14.16a1.72,1.72,0,0,0-2.27-.22A56.5,56.5,0,0,0,896,709.16a46,46,0,0,1,12.89-13c1.32-.88,1-1.59.74-2.77l-.85-.26c-1.61-.5-8.14,3.19-13.1,8.69-11.81,13.07-6.7,17-4.41,14.83-8.78,16.19-2.93,18.77-.2,15.76-1.27,7.15,1.21,8.9,3.13,8.19.37,5.67,3,5.65,5.38,6.28C897,723.63,905.21,713.28,914.14,698.8Z"/></g><g id="Group_3455" data-name="Group 3455"><path id="Path_25219" data-name="Path 25219" class="cls-1" d="M1140.63,688.8h0c-22-21.24-57.9-7.9-81.06-7.89-44.2,0-55.71,74.48-110.77,100.45a235.16,235.16,0,0,1-133.72-3.72c46.76-45.17,74.19-100.26,77.76-112.45,12.7,6.94,13.69,10.14,19.53,13.53,2.15,1.25,14.3-1.58-16.73-18.82a102.71,102.71,0,0,0-24.29-9.54c9.95-34.18-10.18-70.44-42.94-75.73-1-.17-2-.32-2.84-.5a2.64,2.64,0,0,0-1.7,5,33.65,33.65,0,0,1,7.48,5,72.1,72.1,0,0,1,17.33,17.65,52.64,52.64,0,0,1,6.93,46.1c-1.21,4.35-2.09,7.48-.53,9.89A8.83,8.83,0,0,0,869.32,656a96.53,96.53,0,0,1,19.8,7.26c-4.16,6.08-8.34,15.89-19.46,34.22-50,82.4-133.95,146.65-228.87,139.94.83,4.16,1,5.33,1.85,9.75a224,224,0,0,0,125.93-33.35c-4,31.35-22,46.15-9.81,46.51,7.45.23,18.93-29.8,19.28-52.55a259.47,259.47,0,0,0,28.35-22.07l2.7.93-.85,1c60.27,21.17,142.24,17.05,168.45-10,61.58-63.68,42.77-79.73,89.71-85.42s48.72-5.9,71.9.62a2.38,2.38,0,0,0,2.69-1.2A2.27,2.27,0,0,0,1140.63,688.8Z"/></g><g id="Group_3456" data-name="Group 3456"><path id="Path_25220" data-name="Path 25220" class="cls-1" d="M825.48,907.71C794.32,869,755.73,858.82,750.3,864.2l0-.05s-1,1-1,1-.24.26-.36.37l.27.66.17-.31a4,4,0,0,0-.08.78,19.07,19.07,0,0,1,.65,2.11,4.14,4.14,0,0,0,2.53,2c11.25,2.5,14.36.58,30.23,9.33,26.41,14.58,42.59,41,57.11,66.06,1.57,2.71,3.62,4.91,5,7.3a3.23,3.23,0,0,0,4.41,1.19,3.16,3.16,0,0,0,.92-.78C852.75,950.81,840.56,926.42,825.48,907.71Z"/></g><g id="Group_3457" data-name="Group 3457"><path id="Path_25221" data-name="Path 25221" class="cls-1" d="M619.45,382.2c4.63,1.89,10.27,3.94,12.33-1,2.78-6.7-17.15-19-38-14.71-3.88.8-10,4.9-13.74,4,6.18-4,14.51-9.91,16-17.62.38-1.92-1.55-5.07-4.89-.84C582.8,362.6,566.8,366,553.3,366.57c-24,.95-66.94-14.08-57.1-36.06,1.55-3.47,3.16-2.92,6.37-4.12,2.28-.86,5.3-3.54,7.11-4.09,3.22-1,8.71-3,9.24-3.22a5,5,0,0,0,1.28-8.45c-2.07-1.61-4-.51-6.26.39a89.07,89.07,0,0,0-9.72,4.37c-4.07-.32-13.39,1.48-21.59-6.22A15.86,15.86,0,0,0,484,286.79a17.23,17.23,0,0,0-1.55-1.53,8.64,8.64,0,0,1-3.49-7c-.56-7.24,9.89-10.32,15.32-14.57,18.85-14.77,2.81-43.6,11.2-59.83,3.46-6.68,10.38-7.15,8.49-11.79-2.51-6.2-16.91,0-19.85,14.67-2.09,10.4.21,20.66.75,30.74,1.44,27.25-20.62,17.32-24.8,36.76-2.42,11.3,8.7,18,7.39,24-1.24,5.67-8,3.37-8.25,8.6-.24,4.44,6.05,10.53,12.31,14.44-5.34.61-5.11,9.15,3.79,13.12-.1,19.57,22.51,31.76,41.27,37.33-58.34-13.28-194.72-46.37-214.19-51.1-6-6.83-3.28-8.6-4.69-12.31-2.27-6-12.15-1.68-7.72,10.61,4,11.08,20,16.64,12.89,30.88a5.16,5.16,0,0,0,6,7.15,4.84,4.84,0,0,0,3.51-4.09,26.06,26.06,0,0,0-1.19-21.47C418.1,355,499.72,375.61,499.4,375.52c-13.57,1.8-19,4.94-25.21,6a1.94,1.94,0,0,0-1.57,2.24c.71,5.09,22.63-3.08,26-3.51,26.42-3.37,53,7.28,78.43.6A70.3,70.3,0,0,1,619.45,382.2Z"/></g><g id="Group_3458" data-name="Group 3458"><path id="Path_25222" data-name="Path 25222" class="cls-1" d="M315.86,419.44c11.35,2.63,15.3,8.27,30.24,15.65,19.41,9.58,40.88,25.72,83.17,28.31,5.66,1.15,12.33-2.74,29.25,8.12,12.81,8.22,39.16,20,58.75,18.2,28-2.63,45,9.48,49.11,10,6.26.79,11.44-7.46-5.75-17.7-10.81-6.48-23-6.5-34.84-6.48-17.39,0-28.83-.73-61-15.9a86.34,86.34,0,0,0-21.17-8.08c-.36,0-36.3-3.3-66.5-15.41-17.89-7.18-26-13-46.59-20.48-6.94-2.5-12.14-8.13-20-9.78a108.35,108.35,0,0,0-20.2-1.13c-18.29-.37-35.49-5.44-41.15-8.88a12.93,12.93,0,0,0-7.85-2.87c-4.79,1-5.21,5.63-2.18,9.34,2.73,3.36,8.63,4.95,12.93,6.12C278,415.45,280,411.13,315.86,419.44Z"/></g><g id="Group_3459" data-name="Group 3459"><path id="Path_25223" data-name="Path 25223" class="cls-1" d="M240.08,414.93c.89.43,1.2.69,2.23,1.21L244,415l-1.41-1.38L241,413Z"/></g><g id="Group_3460" data-name="Group 3460"><path id="Path_25224" data-name="Path 25224" class="cls-1" d="M562.52,649.08a10.65,10.65,0,0,1-1.23-1.37c-.29-.4-.46-.88-.72-1.29C546.55,662.5,447,776.91,447,776.91c1.65,5.76,1.69,6,2.59,9.11,6.16-6.37,88-100.93,114.79-131.89.21-.53.43-1.06.87-2A21.43,21.43,0,0,0,562.52,649.08Z"/></g><path id="Path_25225" data-name="Path 25225" class="cls-1" d="M828,583.26A98.51,98.51,0,0,1,796.71,618c-13.79-20.16-30.93-25.47-33.43-25a1.66,1.66,0,0,0-1.4,1.3c-.31,1.43,1,2,4.21,4.21,10.48,7.2,17.5,12,24.64,23.26-49.23,28.66-119.34,12.79-173.29,39.4a104.79,104.79,0,0,0-8.71,10.56q-3-2.16-5.93-4.43A229.19,229.19,0,0,1,572,638.66a247.43,247.43,0,0,1-44.63-71.72,277.12,277.12,0,0,1-14.48-45.88,1.64,1.64,0,0,0-3.25.49A200.9,200.9,0,0,0,534.9,605a239.88,239.88,0,0,0,56.61,68.26A225.63,225.63,0,0,0,611,687.75c3.57,2.37,7.22,4.73,11,6.78A27.14,27.14,0,0,0,634.4,699a4.34,4.34,0,0,0,3.77-6.94,28.69,28.69,0,0,0-8.58-6.83c-3-1.94-6.08-3.64-9.08-5.52q-5.46-3.45-10.72-7.2c62.23-34.74,125.34-8.59,185.66-42,2.17,4.83,3.81,11.49,7.49,10.39a3,3,0,0,0,2.1-2.26,19,19,0,0,0-3.22-12,92,92,0,0,0,25.07-23.9,49.3,49.3,0,0,0,7.48-17.37C835.41,581.46,829.84,580,828,583.26Z"/><g id="Group_3461" data-name="Group 3461"><path id="Path_25226" data-name="Path 25226" class="cls-1" d="M483.48,197.87a5,5,0,0,0,5.16-8.2c-1.68-2.07-13.07-8.11-12.75-23a21.88,21.88,0,0,1,5-12.65,33,33,0,0,1,11.67-8.75,3.23,3.23,0,0,0-.82-6.37l-4.65.22c7.12-6.73,16.51-7.06,30-1.17a3,3,0,0,0,3.49-.82c1.35-1.58.39-2.93-.39-4.2a11.11,11.11,0,0,0-4-4.41c-24.16-13.33-44.95,10.18-41.74,17.54a3.44,3.44,0,0,0,1.12,1.39C456.27,167.66,472.16,195,483.48,197.87Z"/></g><g id="Group_3462" data-name="Group 3462"><path id="Path_25227" data-name="Path 25227" class="cls-1" d="M641.89,122.84a1.85,1.85,0,0,0,1.24,3.48c46-16.46,67.85,20.3,49.86,36.72-3,2.76.72,7.11,4.08,5.41a15.29,15.29,0,0,1,19.18,23.05,4.36,4.36,0,0,0,4.45,7.06c6.78-2.18,16.45,5.67,11.47,16.77C727,226.88,713,228.58,701.63,230.84a3.48,3.48,0,0,0-.23,6.66,42,42,0,0,0,23.77-3.27c23.64-10.38,21.45-41.08,1.28-44.5a22.82,22.82,0,0,0-23.08-29.81C713.49,136.84,689.44,104.29,641.89,122.84Z"/></g><g id="Group_3463" data-name="Group 3463"><path id="Path_25228" data-name="Path 25228" class="cls-1" d="M706.3,256a2.74,2.74,0,0,0-3.74,4,21.21,21.21,0,0,1,1.62,25.58c-7.64,10.31-19.45,8-25.2,7.41a3.72,3.72,0,0,0-3.81,3.61,3.69,3.69,0,0,0,1.16,2.8c6,5.54,16.92,5.87,26.14.9C719.26,291.21,721.7,269.08,706.3,256Z"/></g><path id="Path_25229" data-name="Path 25229" class="cls-1" d="M985.25,85.91A51.82,51.82,0,0,0,1000,47.81,5,5,0,0,0,995.64,43a5.08,5.08,0,0,0-5.43,3.6,38.19,38.19,0,0,1-21.85,20.2,77.1,77.1,0,0,1-34.89,3.56,51.56,51.56,0,0,1-18.65-4,63.47,63.47,0,0,1-14.21-11.44c-6.12-5.8-12.1-11.74-18.28-17.48a35.63,35.63,0,0,0,8.58,2.44c12.05,1.82,24.87-1.53,36.48-4.62,11.87-3.15,23.61-8.2,30.71-18.7,2.52-3.72-3.5-7.22-6-3.53C946.22,21.7,936,25.7,926.28,28.35c-5.61,1.52-11.33,2.79-17,3.84a48.9,48.9,0,0,1-18.24.68C878.53,30.42,869.38,20.49,859,14A94,94,0,0,0,825.79,1.46,95.78,95.78,0,0,0,785.42,3,3.1,3.1,0,0,0,783,5.31a100.75,100.75,0,0,0-44,16.88,65.56,65.56,0,0,0-23.42,30.62,49.38,49.38,0,0,0-2.88,18.74,23,23,0,0,0,3.8,12.67,37.55,37.55,0,0,0-7.7,9.72,47.73,47.73,0,0,0-58.32-1.68C645.37,83.67,620,65.86,589,79.39c-9.23,4-21,12.68-21.54,22A43.8,43.8,0,0,0,520.7,128a2.17,2.17,0,0,0,1.18,2.82l.2.07a2.06,2.06,0,0,0,2.43-1c16-29.9,60.19-26.2,52.6-5.32a2.74,2.74,0,0,0,1.83,3.42,2.69,2.69,0,0,0,2.26-.3c8-5.3,6.61-20.34-9.6-25.31,5.3-4.55,31.54-34.83,65.83-9.85,2.59,1.89,4.83,4.11,7.6,6a2.51,2.51,0,0,0,.16,3c2.4,2.26,9.52-4.36,12.75-6.16C679,83.68,709.52,92.49,716.6,124c13.84-3.66,25.16,1,30.87,8.92,4.06,5.61,7.18,13.39,2.51,18.55-2.45,2.71-6.61.73-8.25,4a2.71,2.71,0,0,0-.13,3.43,5.9,5.9,0,0,0,6.86,3.28,84.05,84.05,0,0,1,27,19.4,5.23,5.23,0,0,0-.62,9.22c11.13,7.38,24.14,24.37,19.27,24.79-3.32.28-6.39-3.82-8.61-6.52-4.13-4.92-11.64.35-10.17,5.84,9.5,35.43,14.32,65.85-19,85.57A4.59,4.59,0,0,0,758,308.9a19.35,19.35,0,0,1,8.75,11.34,18.9,18.9,0,0,1-3.34,16.53c-9.78,14.59-26.11,12.74-32.42,14.42a4.5,4.5,0,0,0-4,8c6.12,3.72,7.18,14.44-1.5,15.24a9.87,9.87,0,0,1-6.82-2.45c-2.93-1.93-8.25.21-6.9,6.34-14.72,10.22-28.43-1-21.87-8.77a2.87,2.87,0,0,0-2.88-4.66c-5,1.25-8.44,5.94-12.39,8a25.05,25.05,0,0,1-27.27-1.83c-3-4.11-3.18-6-5.17-6.24-1.29-1.09-3.18-.53-3.09,1.9-1.13,3.14,1.82,16.51,19.37,21a28.67,28.67,0,0,0,17.92-1.24c7.83,12.48,36.8,11.43,42.06-3.78,13.07,4.37,28.35-6.62,23.2-21.1,33.53-3.88,43.8-36.86,27.27-54.79a33.29,33.29,0,0,0,12.94-10.11c18-21.32,14.74-48.12,9.45-69.49,11.9,1.8,26.67-9.61,2.85-34,1.48-7.14-20.17-27.61-37.45-34.74,10.52-8.48,6.79-24.39-4.74-34.25a6,6,0,0,0,1.94-1.1,23.76,23.76,0,0,0,7.52-11.37,3.46,3.46,0,0,0,3-3,11.11,11.11,0,0,1,9.49-8.5,30.83,30.83,0,0,1,16.89,3.3,120.51,120.51,0,0,1,32.08,19.89c9.09,7.86,16.82,17.17,26.08,24.84A59.19,59.19,0,0,0,882.3,163a38,38,0,0,0,33-14.46,4.15,4.15,0,0,0-.31-4.68,4.36,4.36,0,0,0-4.44-1.53,31.34,31.34,0,0,1-22.77-6.16c1.29.35,2.6.67,3.91,1a203,203,0,0,0,30.7,5,57.3,57.3,0,0,0,48.51-21.44A84.36,84.36,0,0,0,986.46,90,3.76,3.76,0,0,0,985.25,85.91ZM721.64,111.08a17.73,17.73,0,0,0,4.47,4.63l0,.07c-.89.06-1.78.15-2.68.25a48.58,48.58,0,0,0-1.82-4.93Zm17.18,6.09,3.79-.66q.63.39,1.29.75a3.7,3.7,0,0,0,1.84.49,5,5,0,0,0-.3,2.12,35,35,0,0,0-6.63-2.69ZM749,114.09a.66.66,0,0,0,0-.14,4,4,0,0,0,.27-1.45c.23.12.48.23.72.34a13.48,13.48,0,0,1-1,1.26ZM974.64,82.18c-9.2,7.25-21.8,10-33.2,11.2A118.24,118.24,0,0,1,873.35,80a113.94,113.94,0,0,1-31-24.23C838,51,831,58,835.28,62.77A126.19,126.19,0,0,0,901.93,101a124.72,124.72,0,0,0,38.82,2.39c12.3-1.23,25.41-3.87,36-10.62-5.13,14.79-14.3,28.29-28.37,35.83a45.8,45.8,0,0,1-23.8,5.27,169.71,169.71,0,0,1-27.64-4.17A69.77,69.77,0,0,1,868,117.91c-3.94-3-8.24,3.25-5.15,6.62C873.4,136,885.66,148,901,150.5a32.75,32.75,0,0,1-21.08,3.87c-12.19-1.78-22.24-9.1-30.95-17.35-9-8.55-17.27-17.7-27.21-25.23a115,115,0,0,0-34-18.29,29,29,0,0,0-20.17,0,18.92,18.92,0,0,0-10.82,11.2c-4.54-.32-8.76-4.85-12.1-7.56a149.18,149.18,0,0,1-12.14-10.75,37.44,37.44,0,0,0-5-5.08,4.77,4.77,0,0,0-1.92-2c-3.44-2-3-8.28-2.88-11.65A41.5,41.5,0,0,1,726.22,53,56,56,0,0,1,746,29.43a88.7,88.7,0,0,1,31-12.68,145.18,145.18,0,0,1,34.9-3.43,75.18,75.18,0,0,1,34.24,9,141,141,0,0,1,27.37,20.48c8.7,8,16.92,16.48,25.7,24.37a45.07,45.07,0,0,0,17,10.3,88.82,88.82,0,0,0,18.68,2.9A81.25,81.25,0,0,0,974.3,75,51.64,51.64,0,0,0,986,67.85a39.72,39.72,0,0,1-11.4,14.34Z"/><g id="Group_3464" data-name="Group 3464"><path id="Path_25230" data-name="Path 25230" class="cls-1" d="M563.79,43.81A493.28,493.28,0,0,0,407.08,99c-46.69,26.1-106.16,71.59-133.76,114.36a129.31,129.31,0,0,0-21.63,64.11,80.73,80.73,0,0,0,2.7,27.06c.19,1.32.4,1.88-8.29,0A55.84,55.84,0,0,1,255.8,316c13.63,5.71,19.46,5.83,25.09,6a45.65,45.65,0,0,1,9.47.91c.32-8.56-2.1-6.8-28.76-9.82,3.15-5.43.77-12.24.18-15.32-4.29-22.41,1-48,14.86-72.08C307.29,172.43,420.9,75.73,565.05,57.9a7.43,7.43,0,0,0,6.22-4.53,6.78,6.78,0,0,0-7.48-9.56Z"/></g><g id="Group_3465" data-name="Group 3465"><path id="Path_25232" data-name="Path 25232" class="cls-1" d="M578.42,42.58a3.18,3.18,0,0,0,0,3.31c.35,4.17,3,10.55,7.11,8.38,4.38-2.35-.35-7-1.3-13.05a17.52,17.52,0,0,1,1.07-9.86,1.18,1.18,0,0,0-.57-1.56,1.16,1.16,0,0,0-1.47.41,29.3,29.3,0,0,0-3.29,6.24,1.2,1.2,0,0,0-1.62,1.21C578.63,43,578.67,40.16,578.42,42.58Z"/></g><g id="Group_3466" data-name="Group 3466"><path id="Path_25233" data-name="Path 25233" class="cls-1" d="M594.33,53.81c-.31.64-.25,1.11-.35,3a111,111,0,0,1-1.15,12.74c-1.32,7.76,10.78,6.89,8.88,0C598.15,56.7,600,53,597,52.49a4.56,4.56,0,0,0,.68-.83,4.9,4.9,0,0,0,5.19-.63c6.35-4.93-5.76-10-1.11-19.39,1.5-3-2.58-6.52-4.94-3.62a18.39,18.39,0,0,0-1.66,2.44A3.11,3.11,0,0,0,591.05,29a3.34,3.34,0,0,0-.65.4,15.11,15.11,0,0,0-4.55,11.59C586,47.65,589.11,54.6,594.33,53.81Z"/></g><g id="Group_3467" data-name="Group 3467"><path id="Path_25234" data-name="Path 25234" class="cls-1" d="M613.24,38.19c-1.36,2.67-2.57,4.94-.39,7,3.27,3.1,7.28.18,11.12-2.54,5.18-.88,9.86-6.7,7.76-12a7.74,7.74,0,0,0-7.09-5,76.73,76.73,0,0,0-8.42.86,6.5,6.5,0,0,0-3,11.67Z"/></g><g id="Group_3468" data-name="Group 3468"><path id="Path_25235" data-name="Path 25235" class="cls-1" d="M421.72,773.4c-32.53-37.88-69.4-80.82-101.31-126.43-56.93-81.37-83.13-155.45-85.09-187.11a49.79,49.79,0,0,1,4.79-27.62c.88-1.91,3.35-6.25,1.48-10.14a3.08,3.08,0,0,0-1.91-1.74,7.22,7.22,0,0,0-8.58,2.84c-14.81,19.77-8.48,49.66-1.41,73.34C262.55,606.73,337.63,696,412.55,783.25a5.48,5.48,0,0,0,4.2,1.85,6.87,6.87,0,0,0,5-11.7Z"/></g><g id="Group_3469" data-name="Group 3469"><path id="Path_25236" data-name="Path 25236" class="cls-1" d="M439.5,794.2a15.52,15.52,0,0,0,4-2.7c4.61-3.68-1-11.11-5.91-8.12-.52.32-1.05.65-1.56,1-2.69-4.46-8.43-.62-12.54,2.31-7.5,5.34-7.49,5.19-7.93,8a1.84,1.84,0,0,0,1.1,2.3c2.67,1,2.85.9,6.85-1A23.67,23.67,0,0,0,420.9,801a4.31,4.31,0,0,0,2.62,5.5,4.24,4.24,0,0,0,.61.17C429.43,808,430,801,439.5,794.2Z"/></g><g id="Group_3470" data-name="Group 3470"><path id="Path_25237" data-name="Path 25237" class="cls-1" d="M444.34,801.89a3.85,3.85,0,0,0-4.19-5.69,11.3,11.3,0,0,0-4.5,3c-3.25,3.08-3.62,2.84-5,5.46a2.69,2.69,0,0,0,3.11,3.88c2.7-.53,2.44-.91,6.4-3.23A11.41,11.41,0,0,0,444.34,801.89Z"/></g><g id="Group_3471" data-name="Group 3471"><path id="Path_25238" data-name="Path 25238" class="cls-1" d="M445.61,806.46a5.22,5.22,0,0,0-6.59,4.89c-.23,5.5,4.74,8.88,5.14,20.68a64.54,64.54,0,0,1-1.27,12.32c-.6,4.93-2.12,7-.33,10.19a4.87,4.87,0,0,0,3.08,2.4c7.85,2,13.89-11.55,12.7-25.64C457.66,823.3,453.21,808.69,445.61,806.46Z"/></g><g id="Group_3472" data-name="Group 3472"><path id="Path_25239" data-name="Path 25239" class="cls-1" d="M684.47,413.09a4.06,4.06,0,0,0-4,4.14v.14a3.74,3.74,0,0,0,3.66,3.81h.24c44-.94,76.28-30.13,107.52-58.35,20.57-18.59,37.67-34.14,62.42-46,44.17-21.1,90-23.35,207.9-87-6.6,26.48-28.85,51-52.05,66.66-42.71,12-72.47,22.34-113.74,36.76a2.88,2.88,0,0,0,1.33,5.59c44.48-5,83.43-17.84,112.66-37,47.55-13,84.55-19.92,94.63-22.3,8.64-2,14.4-3.27,17.17.45,8.22,11-23.6,26.39-36.16,31.87-25.43,11.09-33.9,7.55-33.26,14.2a4.55,4.55,0,0,0,3.1,3.94v.28c17-1.16,16.51-3.34,30-5.07-4.7,8.13-9.57,10.94-14.78,14.81-5.84,4.33-17.85,14.27-51.72,22.37-42.16,10.07-80.89,9.07-120.93.93a211.06,211.06,0,0,1-25.92-6.08c-4.1-1.39-6,5-1.92,6.36,8,2.71,16,6,24.29,8.27A271,271,0,0,0,976,379.3c2.61,6.7,86-2.19,123-15.17,4.54-1.6,10.74-3.79,13.68-1,6.82,6.42-8.61,17.44-14.59,22a144.53,144.53,0,0,1-68.06,26.8c-15.18-2.29-61.59-8.83-76.84-7.41a4.38,4.38,0,0,0-3.53,8,4.3,4.3,0,0,0,.54.2,166.42,166.42,0,0,0,77,6.7c34,5.32,44,7.38,47.85,12.69,1.42,1.95,4.58.07,3.22-2-6.73-10.42-13-12-30.44-15.24a186.6,186.6,0,0,0,52.41-24.32c8.1-5.28,19.53-12.16,20.29-22.47a11.5,11.5,0,0,0-6-11.41c-4.87-2.37-10.22-.79-14.94.58a500.12,500.12,0,0,1-78.83,15.68,154.59,154.59,0,0,0,41-14.45c6.8-3.8,14.45-8.37,19.15-14.64A81.62,81.62,0,0,0,1092.51,323a2.25,2.25,0,0,0-.22-2c6-2.73,10.15-5.18,21.34-14.15,6.78-5.44,16.07-12.87,15.5-22.82a12.44,12.44,0,0,0-5.64-10c-4.19-2.67-9.39-2-14-1.1-28,5.37-57.26,12.17-87.06,20.26A143.93,143.93,0,0,0,1071,223.94a3.65,3.65,0,0,0-5.16-4.2c-40,18.17-77.08,38-124.11,55.45-13.34,4.94-27.1,9.24-40.54,13.77-85.12,28.68-87,46.34-139.73,89.74C734,401.28,708.81,412.53,684.47,413.09ZM992.76,306.82c-22.45,11.49-43.62,16.79-66.35,21.24C946.8,320.72,968.68,313.72,992.76,306.82Z"/></g><g id="Group_3473" data-name="Group 3473"><path id="Path_25240" data-name="Path 25240" class="cls-1" d="M1076.41,437.55a.15.15,0,0,0-.18.1.14.14,0,0,0,.1.18h0a.14.14,0,0,0,.18-.1A.15.15,0,0,0,1076.41,437.55Z"/></g><g id="Group_3474" data-name="Group 3474"><path id="Path_25241" data-name="Path 25241" class="cls-1" d="M1076.06,438.87a1.22,1.22,0,0,0,1.49-.88h0l.09-.49-.48-.87-.48-.13a1.22,1.22,0,0,0-1.48.89h0l-.09.49.48.86Zm.54-2.08a.93.93,0,0,1,.66,1.15h0a.94.94,0,1,1-.66-1.15Z"/></g><g id="Group_3475" data-name="Group 3475"><path id="Path_25242" data-name="Path 25242" class="cls-1" d="M1073.05,438.05a28.09,28.09,0,0,1-13.15,5.35,1.44,1.44,0,0,0-1.11,1.71,1.42,1.42,0,0,0,1,1.09,22.87,22.87,0,0,0,15.06-6,1.4,1.4,0,1,0-1.82-2.13Z"/></g><g id="Group_3476" data-name="Group 3476"><path id="Path_25243" data-name="Path 25243" class="cls-1" d="M954.66,540.76c19.47-1,24.81-15,15.79-31.5,24.57,5.65,73.23,7.14,67.6-16.86-2-8.79-12.39-14.14-21.88-18.6a199.22,199.22,0,0,0,38.25-4.53,1.65,1.65,0,0,0-.64-3.24,164.51,164.51,0,0,1-49.2,2.8,191.06,191.06,0,0,0-54.27-13.3,3.49,3.49,0,0,0-1.56,6.71A171.38,171.38,0,0,0,998,473.3c7.08,2.72,25.36,10.42,30.76,16.45a7.14,7.14,0,0,1-2.19,11.94c-9.45,5.08-37.76,5.37-64.62-4.1a54.4,54.4,0,0,0-35.48-18,4.71,4.71,0,0,0-3.18,8.48,131.34,131.34,0,0,0,36.66,18.32c6.68,7.53,13,21.33,4.24,26a15.59,15.59,0,0,1-10.41.61,110.07,110.07,0,0,1-28.54-8.23,52.18,52.18,0,0,0-34.85-21.57c-4.91-.75-6.37,5.36-3.25,8.19a113.1,113.1,0,0,0,32.6,20.94c15.44,26.56-8.82,26.23-37.33,5.39a17.13,17.13,0,0,0-4.33-5.83,48.58,48.58,0,0,0-17-15.85,4.2,4.2,0,0,0-5.37.73,4.15,4.15,0,0,0-.2,5.35A96.47,96.47,0,0,0,872,539.71c7.7,24.11-33.32,39.48-51-3.27-.74-2.27-1.59-4.52-2.31-6.42a4.34,4.34,0,0,0-5.45-2.81l-.3.1a5.33,5.33,0,0,0-3.36,6.67c.46,1.42,1,2.85,1.46,4.21,1.76,5.32,3.42,12.13.7,17.42a14,14,0,0,1-13.22,6.47c-14.24-.48-22.41-14.36-28.53-27.88-2.18-4.83-10.5-2.6-9,2.84,1.91,7.07,4.26,15.24.93,22.08-6.79,13.93-29.29,1-40.43-15.14.33-9.82-7.39-16.87-11.56-13.13-2.44,2.2-.72,4.61.9,8.73.66,1.67,1.34,3.39,2.09,5.07-1.58,6.31-10.69,10.92-20.67,5.7A2.26,2.26,0,0,0,694.3,548a2.44,2.44,0,0,0-.07-.46c-4.06-15.19-8-31.4-7.45-48.18a11.67,11.67,0,0,0,6-5.05,37.41,37.41,0,0,0,31.35,12.39c1.28,5.47,10.15,34.3,21.2,48a2.46,2.46,0,0,0,4.16-2.35c-3.37-8.82-8.12-17.17-11.77-25.81a221.1,221.1,0,0,1-7.65-21,15.9,15.9,0,0,0,10.53-9.1,62.36,62.36,0,0,0,7.87,6.43c22.09,15.7,34.41,7.47,36.69-4.09q.17-.85.27-1.74c17.3,12.55,38.13,3.1,38.67-17.5,19.85,10.23,43.44,1.06,41.42-18.09,31.84,9.32,52.57-9.87,48.13-26.37,12.67,0,22.17-5.89,26.18-16.21,4.66-12,.24-29.76-26.43-29.62a2.44,2.44,0,0,0-2.46,2c-.43,2.4,1.85,2.95,2.87,3.32,5.2,1.91,11.09,4.07,14.69,8.19,7,8.07-.79,26.23-23.25,22a14.94,14.94,0,0,0-6.38-1.57,4.58,4.58,0,0,0-1.42,8.92,48.28,48.28,0,0,0,5.41,1.66c4.83,4,4,13.75-9.09,18.69a41.85,41.85,0,0,1-17.18,2.43c-9.74-.59-12-3.16-16-3.82a17.33,17.33,0,0,0-2.19-1.82c-4.12-2.84-9.29,3.66-5.26,6.82,5.24,4.13,2.72,15.56-9.14,17.09-5.89.75-16.71-.87-21.94-5.85a53.14,53.14,0,0,0-3.5-7.91,4.1,4.1,0,0,0-4.85-1.85,3.66,3.66,0,0,0-2.79,3.82,19.76,19.76,0,0,0,3.47,9.92c.83,3.84,2.44,15.63-7.69,20.4-10.37,4.89-20.42-5.54-27-15.16a4.73,4.73,0,0,0-6.53-1.29,4.13,4.13,0,0,0-1.43,5.68,1,1,0,0,0,.08.14l.43.72c2.7,4.57,5.76,9.75,4.7,14.8a7.15,7.15,0,0,1-3.21,4.94c-5.94,3.53-17.31-3.49-22.89-7.58-4.18-3.07-8.11-6.71-12.1-10.09-2.5-2.11-5.79-1.77-5,1.31a19.12,19.12,0,0,0,1.46,3.95c-2.13,7.58-8.14,7.76-13.78,8.17a26.69,26.69,0,0,1-24.21-11.11,44.58,44.58,0,0,1-5.64-12.76,3.73,3.73,0,0,0-7.31.83A26.78,26.78,0,0,0,688,487.58c-1.25,4.37-6.67,4.4-12.56-.76-10.78-9.46-11.74-18.85-13.24-23.22a4.18,4.18,0,0,0-8.11,1.95,47.27,47.27,0,0,0,2,8.7,8.34,8.34,0,0,1-5.31,8.87c-7.32,1.71-13.52-11.9-16.46-18.74-3.74-8.72-4.46-9.32-5.61-9.14a1.34,1.34,0,0,0-1.12,1c-2.7,10.43,6.1,31.76,18.49,35.29a14.11,14.11,0,0,0,15.42-6c4.26,6.53,11,12.55,17.87,14.12-.61,19.65,2.93,36.23,10.53,49.32C673,538.4,667,517.22,666.41,516l-.29-.89c-1.59-4.81-9.19-2.45-8.27,2.41,1.27,6.65,2.85,14.92-1.37,20.75-5.76,7.95-17.6,2.78-23.05-17.85,4.5-8.76,2.26-19.41-.21-28.72a3.15,3.15,0,0,0-3.27-2.38,2.86,2.86,0,0,0-2.71,2.63c-.27,2-.65,4.09-1,6.08a58.81,58.81,0,0,0-1.15,19c-13.69,18.26-38.64-18.44-23.22-55.94a3,3,0,0,0-.73-4.11,4.39,4.39,0,0,0-.47-.27,3.16,3.16,0,0,0-4.15,1.48c-17.31,34.5,6.22,86.25,30.58,69.52,9.46,34.83,37.44,27.84,41.43,8.06,17,29.76,41.38,29.18,49.67,18,19.35,26.19,49.6,28.27,54.46,4.23,17.11,21.9,42.79,16.4,49.13.39,21.68,28.14,61.15,20.41,62.44-10.16,15.68,9,41,16.2,47.48-.82a16.36,16.36,0,0,0-.53-10.89q3,.91,6,1.65A62.39,62.39,0,0,0,954.66,540.76Z"/></g><g id="Group_3477" data-name="Group 3477"><path id="Path_25244" data-name="Path 25244" class="cls-1" d="M757.76,422.35c-5.27-1.74-9.79-5.43-15.21-7.4a2.57,2.57,0,0,0-2.65,4.18c9.7,11.18,28,17.1,39.8,8.09a14.88,14.88,0,0,0,5.63-14.68c20,4.27,40.24-7.93,33.94-21.79,7.43-1.93,17.16-6.26,22.32-12a9.5,9.5,0,0,0,.25-13.39,81.14,81.14,0,0,0,14.91-10.5c3-2.67,8.48-7.47,6-12.37l.08-.05-.1,0c-2.54-5.07-9.45-4.36-9.3.75.2,6.6-2.16,8.92-7.78,10.92-6,2.13-11.26,6.69-17.34,9-1.53.47-3,1.06-4,1.46-4.18,1.73-1.5,8.6,2.77,7.17,2-.68,8.62-3.61,9.2-.51.44,2.34-5.74,5.58-7.52,6.61a47.41,47.41,0,0,1-21.41,6.38v0a4,4,0,0,0-3,4.59,3.88,3.88,0,0,0,4.09,3.66h0l.67-.06c3.23-.33,6.06,8.65-10.36,11.88a36.26,36.26,0,0,1-20-1.91c-9-6.54-11.23,1.32-7.93,3.74a36.62,36.62,0,0,0,7,4,9.18,9.18,0,0,1,.62,4.61C777.71,420.56,769.16,426.12,757.76,422.35Z"/></g><g id="Group_3478" data-name="Group 3478"><path id="Path_25245" data-name="Path 25245" class="cls-1" d="M678.19,470.39c1-1,.88-1.68-2.52-8.36-8.27-16.22-2.26-20.4-3.16-27.45-.55-4.32-10.35-.16-7.41,18.61C667.27,467.06,676,472.59,678.19,470.39Z"/></g><g id="Group_3479" data-name="Group 3479"><path id="Path_25246" data-name="Path 25246" class="cls-1" d="M710.3,484.07a1.9,1.9,0,0,0,2.35-1.29,1.93,1.93,0,0,0-.23-1.57A95.06,95.06,0,0,1,695,441.07c-.5-3.34-5.47-2.28-5.07,1C693.3,469.85,708.91,483.72,710.3,484.07Z"/></g><g id="Group_3480" data-name="Group 3480"><path id="Path_25247" data-name="Path 25247" class="cls-1" d="M727.75,435.18c-6.68,2,12.87,40.64,31.87,48.42a2,2,0,0,0,2.52-.74c1.48-2.1-.38-3.68-6.23-8.7a77.76,77.76,0,0,1-22.06-30.25C733,441.52,730.34,434.43,727.75,435.18Z"/></g><g id="Group_3481" data-name="Group 3481"><path id="Path_25248" data-name="Path 25248" class="cls-1" d="M836,406.52h0a2.25,2.25,0,0,0-4.35,1.14,31.72,31.72,0,0,0,13.75,20.42,1.58,1.58,0,0,0,2-2.38A59.2,59.2,0,0,1,836,406.52Z"/></g><g id="Group_3482" data-name="Group 3482"><path id="Path_25249" data-name="Path 25249" class="cls-1" d="M850.25,411.66a1.71,1.71,0,0,0-3.32.82c4,21.16,25,30.74,24.91,23.11,0-3.32-8.21-6.48-9.46-7.39A31.86,31.86,0,0,1,850.25,411.66Z"/></g><g id="Group_3483" data-name="Group 3483"><path id="Path_25250" data-name="Path 25250" class="cls-1" d="M864.4,422.37c13.44,14.78,13,16.43,17.16,17.49a2.56,2.56,0,0,0,3.16-3.05c-.94-4-5.05-6.47-7.76-8.79-8.34-7.12-10-11.19-12.47-8.78A2.23,2.23,0,0,0,864.4,422.37Z"/></g><g id="Group_3484" data-name="Group 3484"><path id="Path_25251" data-name="Path 25251" class="cls-1" d="M906.51,348.86c51.76-1.1,123.25-19.89,155.47-36.15a2.35,2.35,0,0,0-1.74-4.35c-19.54,6.47-38.92,14.08-58.76,19.69C964,338.64,936.2,342,908,345.49c-1.47.19-3.2.12-3.09,1.87A1.57,1.57,0,0,0,906.51,348.86Z"/></g><g id="Group_3485" data-name="Group 3485"><path id="Path_25252" data-name="Path 25252" class="cls-1" d="M802.09,334.77h0c6.46-6.33,13.49-12.33,20.12-17.87,15.73-13.13,20.12-16.44,52.19-33.81C987.25,222,986.77,196.38,1002,176.65c4.43,7.81,4.83,18.83,1,29.83-4.83,14-16.07,24.9-24.68,36.74-2.35,3.22,2.18,6.34,5,4.2,38.34-29.29,37.27-62.58,21-79a3.38,3.38,0,0,0-5.57,1.32c-.84,2.07-1.1,4.22-1.8,6.17-4.27,12-17.69,26.48-26.13,35-40.6,41.12-73.56,48.58-126.09,85.53-15.55,10.92-27.64,16.92-44.93,36.08a1.58,1.58,0,1,0,2.26,2.2Z"/></g><path id="Path_25253" data-name="Path 25253" class="cls-1" d="M650.36,887.73a448.54,448.54,0,0,1-14-74c-1.29-12.5-2-25-2.66-37.51-.33-6.26-.45-12.51-.58-18.77s-.78-12.46-.78-18.68c0-7.16.74-14.41,1.34-21.54.57-6.9,1.71-13.8,1.71-20.73,0-.25-.42-.35-.51-.09a110.73,110.73,0,0,0-3.57,18q-1.41,9.51-2.36,19.08c-.63,6.35-1.6,12.66-2.39,19s-.9,12.81-1.06,19.22A385.25,385.25,0,0,0,632,848.42q3.81,21.36,9.6,42.31C643.22,896.46,652,893.44,650.36,887.73Z"/></g><path id="Path_25254" data-name="Path 25254" class="cls-2" d="M277.17,325a5.23,5.23,0,0,1-5.09,3.87,15.22,15.22,0,0,1-6.63-1.78l-12-5.3,7.83,1.4"/><g id="Group_3490" data-name="Group 3490"><path id="Path_25256" data-name="Path 25256" class="cls-3" d="M9.5,259.22a10.94,10.94,0,0,0-8.95,7.31,12.49,12.49,0,0,0,1.23,10.09A41.22,41.22,0,0,0,20,292.73c11.25,5.65,23.73,6.13,36.05,6.35,0,0,0,0,0,0h0c-6.54-1.24-13.17-1.94-19.69-3.28a62.6,62.6,0,0,1-15.05-5.22c-7.06-3.48-15-9.61-17.86-17.16a8.33,8.33,0,0,1,3.39-10.24c4.16-2.32,9.78-.51,13.36,2.1a19.37,19.37,0,0,1,4.88,5.92,77.36,77.36,0,0,0,4.66,7.23,64.72,64.72,0,0,0,11,11.19,62.37,62.37,0,0,0,14.13,8.94,1.39,1.39,0,0,0,1.77-.83,1.37,1.37,0,0,0-.46-1.56c-4.45-3.17-9.28-5.67-13.59-9.08a62.77,62.77,0,0,1-11.24-11.73c-3.18-4.23-5.07-9.18-9.34-12.54a25,25,0,0,0-6.16-2.92A12.78,12.78,0,0,0,9.5,259.22Z"/><path id="Path_25257" data-name="Path 25257" class="cls-3" d="M41.86,250.77c-6.19,2.57-3.15,9.62-.54,13.67a60.64,60.64,0,0,0,7.49,9.42,55,55,0,0,0,11.5,8.36.25.25,0,0,0,.29-.4h0c-3.16-2.7-6.52-5.18-9.49-8.08a63.19,63.19,0,0,1-7-8.58,21.32,21.32,0,0,1-3.8-7.49c-.71-3.14,1.26-4.84,4.15-5.54,3.21-.76,6-.35,6.75,3.18a45.52,45.52,0,0,1,.22,7.83,28.27,28.27,0,0,0,4.17,11.29,44.79,44.79,0,0,0,3.26,5.05,9.89,9.89,0,0,0,3.83,3.71,1,1,0,0,0,1.24-.57.94.94,0,0,0,0-.72,23.84,23.84,0,0,0-3.81-5.23,40.41,40.41,0,0,1-4-7.2,19.63,19.63,0,0,1-2.13-6.72c-.07-1.6,0-3.21-.09-4.81a9.18,9.18,0,0,0-2.74-7.17C48.65,248.74,44.47,249.68,41.86,250.77Z"/><path id="Path_25258" data-name="Path 25258" class="cls-3" d="M7.52,262.77a28.47,28.47,0,0,0,2.67,1.68,41.07,41.07,0,0,0-4.32-1.54A1.25,1.25,0,0,0,4.69,265a70.37,70.37,0,0,0,10.71,6.87,1.49,1.49,0,0,0-.05.36c-3.87-2.47-7.74-5-12.39-4.32a1.15,1.15,0,0,0-.91,1.34,1.17,1.17,0,0,0,.43.69,70.68,70.68,0,0,0,7.83,5.83.13.13,0,0,0-.11.16.12.12,0,0,0,0,.08l.45.35a32.12,32.12,0,0,0-3.47-1.74,1,1,0,0,0-1.13,1.54c.23.27.48.54.72.79-.79-.28-1.59-.54-2.42-.75a.86.86,0,0,0-1.1.53.88.88,0,0,0,.28,1,81,81,0,0,0,14.82,9,1.43,1.43,0,0,0,.45,2,1.23,1.23,0,0,0,.26.12l1.64.65a85.85,85.85,0,0,0,15.89,5.94l1.86.67a1.39,1.39,0,0,0,1.5-.3,19.34,19.34,0,0,0,2.84-.12A1.49,1.49,0,0,0,44,293.9c0-.06,0-.13,0-.19a19.62,19.62,0,0,0,2.95.64c1.75.22,2.07-2.1.69-2.82-4-2.09-8.33-3.95-12.52-6.08-1.64-1.37-3.29-2.75-5-4.08a.21.21,0,0,0,0-.06,51.45,51.45,0,0,0-3.52-3.86l-1.71-2.07a7.49,7.49,0,0,0-2.41-5.48A33.21,33.21,0,0,0,8.8,260.53a1.31,1.31,0,0,0-1.28,2.24Zm-1,7.62A24.14,24.14,0,0,1,13,273.57c1.55.95,3.09,2,4.69,2.88A26,26,0,0,0,20,279.06a2.51,2.51,0,0,0,0,1.09c-1.3-1-2.67-1.95-3.92-2.88-3.18-2.35-6.52-4.45-9.61-6.9ZM29.94,286.7a1.72,1.72,0,0,0-.23.32c-1.14-.57-2.28-1.16-3.39-1.79a1.5,1.5,0,0,0,.26-.73c1.09.78,2.21,1.52,3.36,2.21Zm7.9,5.89-2.59-1a1.64,1.64,0,0,0,.33-.66,12.84,12.84,0,0,1,3.94,1.86,16.35,16.35,0,0,1-1.69-.16Zm-25.4-15.33c.52.37,1,.74,1.55,1.12.31.23.64.46,1,.69l-.89-.59-1.64-1.21Zm1.25,4.9c-1-.58-2-1.19-3-1.83.43.22.86.44,1.28.67Z"/><path id="Path_25259" data-name="Path 25259" class="cls-3" d="M38.62,254.54l1.48,1.82a4.31,4.31,0,0,0-1,.14,1.48,1.48,0,0,0-1.19,1.67,11.73,11.73,0,0,0,3.73,7.31,1.47,1.47,0,0,0,.24.7,35.58,35.58,0,0,0,14.23,12.3,1.35,1.35,0,0,0,1.27-2.34c-1-.66-2-1.37-3-2.09a22.34,22.34,0,0,0,2.1.83,1.18,1.18,0,0,0,.86-2.2,16,16,0,0,1-8.72-10.54,1,1,0,0,0-1-.85l-.15,0a1.35,1.35,0,0,0-.33-1l-2.38-2.95a1.38,1.38,0,0,0,1.21-.57c1.47.39,3,.81,3.8-.89s-2-2.85-2.81-1.1c.49-1.05.69-.61-.4-.93a15.35,15.35,0,0,0-1.52-.38,1.41,1.41,0,0,0-1.24.48,17.87,17.87,0,0,0-3.86-1.87,1.5,1.5,0,0,0-1.29,2.41Zm8,8a11.73,11.73,0,0,0,1,3.38,13,13,0,0,0-2.74-1.48,12.4,12.4,0,0,1-3.73-5,9,9,0,0,1,3.71,2.74,1.42,1.42,0,0,0,1.77.36Z"/><g id="Group_3488" data-name="Group 3488"><g id="Group_3487" data-name="Group 3487"><path id="Path_25260" data-name="Path 25260" class="cls-3" d="M73.21,308.49l0,.06h0a49.62,49.62,0,0,0-1.91,18.29,24.94,24.94,0,0,0,5.35,14.84,9.05,9.05,0,0,0,6.71,2.66c2.2-.09,3.53-2.11,5-3.42,1.12-1,3-.1,4.24.31a25.66,25.66,0,0,0,4.1,1.12,22.07,22.07,0,0,0,9.78-1c2.06-.72.87-3.55-1-3.39a51.93,51.93,0,0,1-8.35.74c-2.71-.2-5.08-1.88-7.88-1.78a6.45,6.45,0,0,0-4.63,2.78,3.13,3.13,0,0,1-1.79,1.18A6.42,6.42,0,0,1,79,339.2c-3.4-3.42-4.09-8.86-4.64-13.41-.67-5.68.76-11.36.32-17.07h0v-.06a.75.75,0,0,0-.88-.58.73.73,0,0,0-.52.43Z"/><path id="Path_25261" data-name="Path 25261" class="cls-3" d="M111.64,340.53a7.2,7.2,0,0,1,4.07-3.67,30.18,30.18,0,0,0-9.39.18,1.93,1.93,0,0,0,.64,3.8h0A27.2,27.2,0,0,1,111.64,340.53Z"/></g><path id="Path_25262" data-name="Path 25262" class="cls-3" d="M459.93,291.51c1.09,9.68,4.75,18.85,5.14,28.65a168.17,168.17,0,0,1-1.67,30.66,135.21,135.21,0,0,1-7.28,29.26c-1.8,4.72-2.73,9.72-4.52,14.44a16.62,16.62,0,0,1-3.73,6.44,9.46,9.46,0,0,0-2.88,4.7.63.63,0,0,0,1,.58,49.42,49.42,0,0,1,5.24-3.86,13.84,13.84,0,0,0,4.23-5.41,134.85,134.85,0,0,0,5.06-15,155.11,155.11,0,0,0,7.58-29.69A175.38,175.38,0,0,0,470,321c-.26-10.28-3.48-20.11-5.23-30.18a2.45,2.45,0,0,0-4.85.67Z"/><path id="Path_25263" data-name="Path 25263" class="cls-3" d="M89.77,284.88a64.22,64.22,0,0,0,3.3,8.59,32,32,0,0,1,1.67,8.27c.59,5,1.7,11.39-.88,16,0,0,0,0,0,0,2.8-4.32,2.6-10.22,2.43-15.14a57.37,57.37,0,0,0-.54-8.49,64.49,64.49,0,0,0-3.28-10.08C91.94,282.56,89.39,283.33,89.77,284.88Z"/><path id="Path_25264" data-name="Path 25264" class="cls-3" d="M92.6,329.74a16.49,16.49,0,0,1-3.46,7A13,13,0,0,1,86.71,339c-.89.66-1.48.88-1.6,2a1.06,1.06,0,0,0,.68,1.1c2.28.74,4-2.21,4.9-3.91a19.32,19.32,0,0,0,1.94-8.51Z"/><path id="Path_25265" data-name="Path 25265" class="cls-3" d="M82.08,292.47a14.67,14.67,0,0,0-2.1,8.35,42.44,42.44,0,0,1-2.52,10.6,32.74,32.74,0,0,0-.91,10.15,23,23,0,0,0,2.27,10.12,1.52,1.52,0,0,0,1.84.81c.09.28.17.56.26.84.32.93,1.7.57,1.81-.29,1-8,2-16,3.38-24,.9-5.1,2.49-12.93-2-16.88A1.49,1.49,0,0,0,82.08,292.47Zm-1.3,29.95q-.09,1-.24,2c-.1-.55-.18-1.1-.26-1.65a1.73,1.73,0,0,0,.5-.39ZM83.32,297c.06-.29.13-.57.21-.86a6.76,6.76,0,0,1,.39,1.23,1.31,1.31,0,0,0-.6-.38Z"/><path id="Path_25266" data-name="Path 25266" class="cls-3" d="M80.7,293.85c-3.23,3.75-2.84,10.36-2.64,15.15-1.26,8.4-1.76,17.07,2.43,24.52a1.44,1.44,0,0,0,2.61-.07,30.24,30.24,0,0,0,1.39-5.78,1.41,1.41,0,0,0,.55-.82,105.07,105.07,0,0,0,3.37-17.94c.42-5.39.32-13.07-5.5-15.69A1.93,1.93,0,0,0,80.7,293.85Zm4,10.27c0-.54,0-1.09,0-1.64.06.52.1,1.06.12,1.59l-.14.06Zm-.19-2.94a1.7,1.7,0,0,0-2.37-.39l-.08.06a12.51,12.51,0,0,1,.71-3.25,7,7,0,0,1,1.77,3.59Z"/><path id="Path_25267" data-name="Path 25267" class="cls-3" d="M248.24,267.32a155.36,155.36,0,0,1,2.6,28.47c-.17,10.37-.89,20.63-1.68,31-.78,10.06-1.26,20.14-2.27,30.18a150.56,150.56,0,0,1-5.55,28l1.56.24A94.86,94.86,0,0,0,249.8,359c1.59-10.56,2.17-21.25,3.17-31.89s1.7-21.18,1.95-31.86A87.5,87.5,0,0,0,251.83,266C251.06,263.74,247.84,264.91,248.24,267.32Z"/><path id="Path_25268" data-name="Path 25268" class="cls-3" d="M359.72,280.23c1.13,4.69,2.56,9.15,3.31,14a107.55,107.55,0,0,1,1.16,15.1,274.3,274.3,0,0,1-1.72,30.32,255.31,255.31,0,0,1-4.91,34,96.38,96.38,0,0,1-5.75,16.15q-1.29,3-2.6,5.95c.82-.08,1.63-.15,2.45-.21.62-1.17,1.24-2.35,1.85-3.54,1.36-2.68,2.64-5.43,3.85-8.2,4.94-11.35,6.66-24.67,8.13-37.05a331.54,331.54,0,0,0,2.82-35.32,126,126,0,0,0-.88-16.47,53.45,53.45,0,0,0-3.92-16.12,2,2,0,0,0-3.79,1.39Z"/><path id="Path_25269" data-name="Path 25269" class="cls-3" d="M109.69,324.87a7.38,7.38,0,0,1,1.64,1.36,11,11,0,0,1,1.21,2c.53,1,2.24.6,2-.59a7.46,7.46,0,0,0-3.44-4.59C109.82,322.21,108.45,324.06,109.69,324.87Z"/><path id="Path_25270" data-name="Path 25270" class="cls-3" d="M113.45,321.45a29.61,29.61,0,0,0,7.45,6.89c.72.43,1.7-.42,1.07-1.13-2.2-2.47-4.88-4.44-7-7a1,1,0,0,0-1.5,1.22Z"/><path id="Path_25271" data-name="Path 25271" class="cls-3" d="M119.79,318.67c3.3,4.22,5.49,10.24,10.54,12.71,1.06.52,1.95-1.15,1-1.79-4.48-2.95-6.63-8.19-9.88-12.26a1.06,1.06,0,0,0-1.65,1.34Z"/><path id="Path_25272" data-name="Path 25272" class="cls-3" d="M128.13,319.91c-.71.09-.69,1.26,0,1.27,2.52,0,4.47,4.25,5.53,6.06a24.53,24.53,0,0,0,4.13,6.4c.63.56,1.63-.29,1.25-1a86.57,86.57,0,0,0-4.92-8.16C132.9,322.54,130.81,319.53,128.13,319.91Z"/><path id="Path_25273" data-name="Path 25273" class="cls-3" d="M136.13,319.17a.45.45,0,0,0,.15.89c1.92-.14,2.79,2.28,3.51,3.66.82,1.56,1.67,3.13,2.55,4.66a51.34,51.34,0,0,0,7.2,9,.83.83,0,0,0,1.16.12.82.82,0,0,0,.12-1.16c-1.39-1.92-3-3.66-4.49-5.47s-2.68-4.28-4.24-6.23S139.38,318.59,136.13,319.17Z"/><path id="Path_25274" data-name="Path 25274" class="cls-3" d="M147.39,324.6a54.94,54.94,0,0,0,15.85,17.72c.66.5,1.6-.44,1-1.07-5.38-5.76-11.52-10.56-15.78-17.32C148.08,323.31,147,324,147.39,324.6Z"/><path id="Path_25275" data-name="Path 25275" class="cls-3" d="M158.16,328c5.21,5.68,8.35,13.73,15.34,17.56,1.09.6,1.92-1.13,1-1.84-6.06-4.79-9.37-11.62-14.57-17.16C158.92,325.45,157.16,326.87,158.16,328Z"/><path id="Path_25276" data-name="Path 25276" class="cls-3" d="M165.56,327.78a39.49,39.49,0,0,1,8,9.13c3.09,4.07,6.27,8.12,9.74,11.86a.9.9,0,0,0,1.25.1.88.88,0,0,0,.12-1.22c-3.07-4.34-6.65-8.28-10-12.44a38.61,38.61,0,0,0-8.16-8.81C165.65,325.79,164.65,327.15,165.56,327.78Z"/><path id="Path_25277" data-name="Path 25277" class="cls-3" d="M175.58,328.57a175,175,0,0,0,17,22.17,1.08,1.08,0,0,0,1.68-1.36c-5.64-7.34-12-14-17.08-21.81C176.61,326.65,175,327.64,175.58,328.57Z"/><path id="Path_25278" data-name="Path 25278" class="cls-3" d="M187,330.75c6.09,7.78,11.44,16.65,19.65,22.44a1,1,0,0,0,1.22-1.66c-7.66-6.33-13.22-14.3-19.52-21.88a.87.87,0,0,0-1.35,1.1Z"/><path id="Path_25279" data-name="Path 25279" class="cls-3" d="M198.92,333.72c5.45,8,10.5,16.69,17.79,23.17.88.79,2.28-.68,1.43-1.51a182,182,0,0,1-17.93-22.72C199.58,331.79,198.32,332.84,198.92,333.72Z"/><path id="Path_25280" data-name="Path 25280" class="cls-3" d="M209.82,336.47a97.41,97.41,0,0,0,7.32,11,44.79,44.79,0,0,0,10.05,10.33.91.91,0,0,0,1.07-1.47,90.47,90.47,0,0,1-16.79-20.68C210.9,334.72,209.24,335.44,209.82,336.47Z"/><path id="Path_25281" data-name="Path 25281" class="cls-3" d="M219.33,338.29a80.72,80.72,0,0,0,7.79,9.8.93.93,0,1,0,1.45-1.18,101.77,101.77,0,0,1-7.84-9.49C220.22,336.63,218.86,337.48,219.33,338.29Z"/><path id="Path_25282" data-name="Path 25282" class="cls-3" d="M235.62,357.84a37.69,37.69,0,0,0,8.28,7.09c.92.6,2.25-.61,1.39-1.47-2.51-2.52-5.65-4.26-8-7C236.41,355.39,234.72,356.75,235.62,357.84Z"/><path id="Path_25283" data-name="Path 25283" class="cls-3" d="M241.11,341a32.17,32.17,0,0,0,5.95,4.21c1.06.43,2-1.22,1-1.79-2.07-1.14-3.72-2.83-5.69-4.11C241.23,338.63,240,340.26,241.11,341Z"/><path id="Path_25284" data-name="Path 25284" class="cls-3" d="M429.53,381.55c2.72,2,5.45,4,8.11,6.05,1,.76,2.08-.77,1.13-1.55-2.55-2.09-5.21-4.07-7.86-6.07C430.46,380.51,430,381,429.53,381.55Z"/><path id="Path_25285" data-name="Path 25285" class="cls-3" d="M433.5,376.37A60.22,60.22,0,0,0,444,385.58a.9.9,0,0,0,1.06-1.45,97.2,97.2,0,0,1-10.59-9.59A17.84,17.84,0,0,1,433.5,376.37Z"/><path id="Path_25286" data-name="Path 25286" class="cls-3" d="M436.71,369.8c3,4.73,7,10.35,12.25,12.74.83.38,1.31-.77.72-1.31-2.12-1.92-4.38-3.61-6.34-5.71a52.55,52.55,0,0,1-5.23-6.85C437.46,367.7,436.1,368.84,436.71,369.8Z"/><path id="Path_25287" data-name="Path 25287" class="cls-3" d="M444.54,369.79a16.33,16.33,0,0,0,6.89,5.29c.95.31,1.8-1,.88-1.6a25.73,25.73,0,0,1-6.27-4.92,1,1,0,1,0-1.5,1.23Z"/><path id="Path_25288" data-name="Path 25288" class="cls-3" d="M450.27,365.13c.53.63,1,1.29,1.6,1.88a.91.91,0,0,0,1.29.1.92.92,0,0,0,.13-1.26c-.46-.67-1-1.3-1.51-1.94a1,1,0,0,0-1.51,1.22Z"/><path id="Path_25289" data-name="Path 25289" class="cls-3" d="M176.93,294a26.26,26.26,0,0,0,7.69,4.23c.75.26,1.44-.85.7-1.26a51,51,0,0,1-7.34-4.41C177.08,291.82,176,293.26,176.93,294Z"/><path id="Path_25290" data-name="Path 25290" class="cls-3" d="M183.32,293.11c3.58,1.44,6.43,4.46,10.22,5.36a.92.92,0,0,0,.63-1.64,78.6,78.6,0,0,0-10.11-5.62,1,1,0,0,0-.74,1.9Z"/><path id="Path_25291" data-name="Path 25291" class="cls-3" d="M189,290c5.31,1.75,9.41,7.38,15.18,7.67a.77.77,0,0,0,.36-1.47c-2.73-1.42-5.44-2.65-8-4.32a25.7,25.7,0,0,0-6.9-3.42C188.55,288.18,187.92,289.67,189,290Z"/><path id="Path_25292" data-name="Path 25292" class="cls-3" d="M196.78,288.17c5.53,3.15,11,6.41,16.48,9.63,1,.6,2.17-.83,1.13-1.54-5.32-3.62-11.1-6.59-16.75-9.66C196.74,286.1,195.89,287.67,196.78,288.17Z"/><path id="Path_25293" data-name="Path 25293" class="cls-3" d="M206,284.22c-.78.25-.36,1.49.42,1.36,1.36-.25,3,1.21,4,2a25.35,25.35,0,0,1,2.21,1.94,8.57,8.57,0,0,0,1.3,1.39c4,2.19,7.55,5.67,12.08,6.45.93.16,1.1-1.13.37-1.52A56.4,56.4,0,0,1,214,288.12C212.13,286.43,208.82,283.35,206,284.22Z"/><path id="Path_25294" data-name="Path 25294" class="cls-3" d="M216.34,283.09a43.74,43.74,0,0,0,10.79,9.13A33.82,33.82,0,0,0,240,297.9c.73.08,1.22-1,.54-1.4-3.66-2.19-7.83-3.49-11.56-5.63a41.53,41.53,0,0,1-11.14-9,1,1,0,0,0-1.36-.09A1,1,0,0,0,216.34,283.09Z"/><path id="Path_25295" data-name="Path 25295" class="cls-3" d="M231.28,284a69.58,69.58,0,0,0,7.1,6.2c1.86,1.33,4.63,3,7,2a.74.74,0,0,0,.35-1,.72.72,0,0,0-.38-.37,22.06,22.06,0,0,1-6.68-3.08,73.27,73.27,0,0,1-6.12-5.43C231.53,281.41,230.33,283.09,231.28,284Z"/><path id="Path_25296" data-name="Path 25296" class="cls-3" d="M240,281.38c2.17.35,3.71,2.13,5.86,2.51,1.32.24,1.56-1.89.23-2.06a8.07,8.07,0,0,1-2.65-1.17,9.1,9.1,0,0,0-3.25-1,.89.89,0,0,0-.19,1.76Z"/><path id="Path_25297" data-name="Path 25297" class="cls-3" d="M416.39,297.76a48.79,48.79,0,0,0,14.24,7.79c1.14.29,1.86-1.36.69-1.76a67.18,67.18,0,0,1-13.94-7.39C416.47,295.84,415.48,297.15,416.39,297.76Z"/><path id="Path_25298" data-name="Path 25298" class="cls-3" d="M435.18,297.84h0l.15.05.05,0,0,0v.17a.59.59,0,0,0,1.18.12,1.45,1.45,0,0,0-1.3-1.61h0a.6.6,0,0,0-.63.58A.61.61,0,0,0,435.18,297.84Z"/><path id="Path_25299" data-name="Path 25299" class="cls-3" d="M438.67,327.77a3.74,3.74,0,0,0,2.89,1.28.52.52,0,0,0,.57-.46.52.52,0,0,0-.46-.57,3.25,3.25,0,0,1-2.11-1C439.09,326.46,438.17,327.2,438.67,327.77Z"/><path id="Path_25300" data-name="Path 25300" class="cls-3" d="M212.23,312.36c3.06.48,5.37,3.08,8.18,4.23.52.21,1-.6.49-.89a27.37,27.37,0,0,0-8.54-4.55C211.58,311,211.46,312.24,212.23,312.36Z"/><path id="Path_25301" data-name="Path 25301" class="cls-3" d="M219.09,312.16c2.72,1.08,4.78,3.16,7.42,4.32.78.33,1.19-.83.47-1.2a68.4,68.4,0,0,0-7.45-4.24.61.61,0,0,0-.76.38A.59.59,0,0,0,219.09,312.16Z"/><path id="Path_25302" data-name="Path 25302" class="cls-3" d="M226.37,311.13a45.14,45.14,0,0,1,8.24,3.48c.59.22,1.1-.65.53-1a24.33,24.33,0,0,0-8.66-3.58.55.55,0,0,0-.6.48A.55.55,0,0,0,226.37,311.13Z"/><path id="Path_25303" data-name="Path 25303" class="cls-3" d="M236.67,313.05c1.5.23,2.76,1.14,4.23,1.4.76.14.89-1.09.12-1.2a8.11,8.11,0,0,1-1.78-.6,10.47,10.47,0,0,0-2.46-.63.52.52,0,0,0-.57.46A.51.51,0,0,0,236.67,313.05Z"/><path id="Path_25304" data-name="Path 25304" class="cls-3" d="M248.06,313a.76.76,0,0,0-.16,1.5,4.07,4.07,0,0,0,2.08,0,.66.66,0,0,0,.31-.87.76.76,0,0,0-.2-.24A4.18,4.18,0,0,0,248.06,313Z"/><path id="Path_25305" data-name="Path 25305" class="cls-3" d="M234.8,277.59c-4.91-.09-11.66-.14-15.49,3.44-3.55,3.33-.88,8.13,1.22,11.4a43.4,43.4,0,0,1,6.94,16.64,59,59,0,0,1-5.25,33.21A59.58,59.58,0,0,0,216,362.76a7.23,7.23,0,0,0,5.12,8.3c3.13.91,6.73-.55,9.79-1.15a57.49,57.49,0,0,1,12.09.23.94.94,0,0,0,.19-1.85c-2.86-.53-5.74-.92-8.61-1.33a23.78,23.78,0,0,0-8,1c-3.17.67-6.91,1-7.57-2.88a23,23,0,0,1,1.48-10,97.14,97.14,0,0,1,3.92-10.36,86.72,86.72,0,0,0,4-10.46,65.82,65.82,0,0,0,2.81-19.72,41.7,41.7,0,0,0-4.08-17.46,75.81,75.81,0,0,0-4-6.74c-1.11-1.74-3.14-4.59-1.7-6.64s4.9-2.17,7.05-2.45a47.19,47.19,0,0,1,8.15-.22c4.9.2,9.73,1,14.61,1.42a1.65,1.65,0,0,0,.34-3.29A149.73,149.73,0,0,0,234.8,277.59Z"/><path id="Path_25306" data-name="Path 25306" class="cls-3" d="M397.68,298.4A161.7,161.7,0,0,1,367,297.25c-2.11-.33-2.43,2.95-.34,3.29,13.35,2.13,26.77,1.16,40.22.88,9.46-.2,18.82.34,26.44,6.67a22,22,0,0,1,7.1,12,27.82,27.82,0,0,1-.08,9.15c-.37,3.54-.92,7.07-1.4,10.59-.84,6.49-1,13-1.61,19.53a45.59,45.59,0,0,1-3.64,16.56c-5.22,10.19-18.76,9.52-28.28,7.69-7.84-1.51-15.37-4.3-23.25-5.61a80.28,80.28,0,0,0-24.84,1,1.25,1.25,0,0,0,.41,2.43,97.09,97.09,0,0,1,20-1.24,124.62,124.62,0,0,1,21,4.65c8.21,2,16.88,3.85,25.26,1.66a20.36,20.36,0,0,0,14.79-16.75,150.73,150.73,0,0,0,2.32-19.41c.49-6.72,1.6-13.34,2.4-20a31.49,31.49,0,0,0-.3-12.57,25.51,25.51,0,0,0-4.69-9,30,30,0,0,0-16.9-9.73C413.83,297.17,405.55,298.13,397.68,298.4Z"/><path id="Path_25307" data-name="Path 25307" class="cls-3" d="M232.06,353.19a18.71,18.71,0,0,0,1.52,8.61,7.71,7.71,0,0,1-.14,1.26,22.23,22.23,0,0,1-1.54-3.75l-.15-.5a29.72,29.72,0,0,0-1.54-6.45c-.5-1.41-2.64-.66-2.43.73a44.23,44.23,0,0,0,1.61,7.3,12.36,12.36,0,0,1-.42,4.28,11,11,0,0,1-1.29-2.2,23.53,23.53,0,0,0-1.34-7,1,1,0,0,0-.72-.67l.21-2.26a1.13,1.13,0,0,0-2.24-.23c-.25,2.22-.75,4.4-1.2,6.58,0-.19,0-.38,0-.58a.94.94,0,0,0-1.85-.19,8.81,8.81,0,0,0,1.3,6.13,1,1,0,0,0,1.42.19.88.88,0,0,0,.21-.22,24.69,24.69,0,0,0,1.12,4.56,1.21,1.21,0,0,0,1.6.58,1.23,1.23,0,0,0,.61-.64,15.31,15.31,0,0,0,.54-2.12,11.84,11.84,0,0,0,1.24,1.31,1.26,1.26,0,0,0,1.75-.26h0a11,11,0,0,0,1.12-2.87,10.39,10.39,0,0,0,1.61,1.89,1.28,1.28,0,0,0,1.8-.26v0a7.58,7.58,0,0,0,.62-1.36,12.07,12.07,0,0,0,1.09,1.17,1.34,1.34,0,0,0,1.64-.05,4.68,4.68,0,0,0,.68-.86,8,8,0,0,0,1.13,1.27,1.32,1.32,0,0,0,1.66,0,3.25,3.25,0,0,0,.35-.39,6.56,6.56,0,0,0,3.76,2.11,1.38,1.38,0,0,0,1.51-1.21,3.71,3.71,0,0,0-2.42-4,1.1,1.1,0,0,0-1.43.57v0c-.11-.15-.2-.31-.3-.47a10.51,10.51,0,0,0-2.18-6.54,1.32,1.32,0,0,0-1.86-.23,1.18,1.18,0,0,0-.25.25c0-.17-.09-.34-.13-.52-.38-1.69-3-1.27-2.66.44s.62,3.36,1.09,5a5.52,5.52,0,0,1-.06,1.28,11.81,11.81,0,0,1-1-1.83,41.46,41.46,0,0,0-1.42-7.89,1.32,1.32,0,0,0-2.61.07Z"/><path id="Path_25308" data-name="Path 25308" class="cls-3" d="M240.79,277.88a58.89,58.89,0,0,0-10-.95,1.61,1.61,0,0,0-1.71,1.05,18.88,18.88,0,0,0-5.86,0,1.72,1.72,0,0,0-.34,3.27,33.65,33.65,0,0,0,5.25,1.14,8.28,8.28,0,0,0-1.45.5,1.55,1.55,0,0,0-.89,2v0c-.6-.5-1.21-1-1.85-1.46a1.71,1.71,0,0,0-2.56,2.07c.14.34.28.67.43,1a1.72,1.72,0,0,0-1.79,1.64,1.74,1.74,0,0,0,.14.74,59.17,59.17,0,0,0,7.21,12c.59.83,1.17,1.68,1.75,2.52.2,1.15.42,2.29.65,3.43.17.91.35,1.81.52,2.71a1.74,1.74,0,0,0-1,.88,23.51,23.51,0,0,0-1.49,10.79,27.23,27.23,0,0,0,1.5,9.47q-.58,6.21-1.2,12.41a1.06,1.06,0,0,0,2.11.22l.39-3.58a18.53,18.53,0,0,0,3,10.13,1.34,1.34,0,0,0,2.35-.7,21.92,21.92,0,0,0,.53-4.12,8,8,0,0,0,2,2.12,1.44,1.44,0,0,0,2-.31,8.75,8.75,0,0,0,1.43-3.82,11.11,11.11,0,0,0,1.22,1.16,1.49,1.49,0,0,0,2.08-.32,6.52,6.52,0,0,0,1-2.28,1.34,1.34,0,0,0,.32-.57,31.3,31.3,0,0,0,1.14-7.57,1.7,1.7,0,0,0,2.34-.52,1.8,1.8,0,0,0,.25-.68,13.1,13.1,0,0,0,.33-2.93,1.84,1.84,0,0,0,1-1.31c1.31-5.91-1-12.06-2.45-17.75-.17-.67-.31-1.35-.43-2a1.55,1.55,0,0,0,2.13-.45h0a9.9,9.9,0,0,0,.92-6.35,18.55,18.55,0,0,0-1.08-8.64c-.51-1.63-1.08-3.25-1.74-4.84a15.76,15.76,0,0,0-2.47-6.06,1.47,1.47,0,0,0,.92-.55c.7,0,1.39,0,2.09.1a1.78,1.78,0,0,0,.37-3.53C246.88,277.72,243.83,278.07,240.79,277.88Zm-1.85,24.37a1.75,1.75,0,0,0,1.45.9,33,33,0,0,0,2.18,4.47c.06.31.13.63.19.94.52,2.79.7,5.62,1.49,8.35.14.5.3,1,.46,1.5l-.11-.07c-1.28-4.55-2.41-9.13-3.71-13.68-.57-2-3.74-1.57-3.26.55s1,4.27,1.6,6.39a6.62,6.62,0,0,0-1.23-1.46,27.79,27.79,0,0,0-.81-3,1.93,1.93,0,0,0,0-.24,14.29,14.29,0,0,0-.61-3.61,1.74,1.74,0,0,0,.06-1.23c-.07-.24-.15-.47-.23-.71a28.91,28.91,0,0,0-1.48-3.55,22.53,22.53,0,0,0,2.31,1.4c.54,1.06,1.11,2.08,1.69,3.06Zm4.92,27.06h-.06c-.22-.39-.43-.78-.65-1.2,0-.93-.07-1.86-.05-2.79.1.32.21.65.31,1a14,14,0,0,1,.45,3Zm-10-21.07a17.08,17.08,0,0,0,.25,2.77l-.15.31c-.29-1.16-.55-2.33-.79-3.51.22.15.45.29.68.43Zm.69-22.3a1.24,1.24,0,0,0-.17.23l-.69-.38Zm-3,3.08c.34.37.65.77.86,1a20.45,20.45,0,0,1,1.85,2.76L233,291.68l-1.15-1.06a14.68,14.68,0,0,1-.29-1.61Zm.8,43.31c.1-.11.2-.22.29-.34h0c.34,4.19,1.22,8.37,1.17,12.56a75.07,75.07,0,0,1-1.46-12.23Zm3.09-15.74c0-.15.06-.29.09-.43l.75,2c.13.66.27,1.31.43,2,.42,1.68,1.32,3.21,1.81,4.89.11.4.21.81.3,1.21-.92-2.16-1.56-4.48-2.36-6.66-.36-1-.69-2-1-3Zm5.68,17.15a1.71,1.71,0,0,0,.87,0,18.51,18.51,0,0,0,1.34,6.36,18.12,18.12,0,0,1-2.53-6.38,1.66,1.66,0,0,0,.32,0Zm2.07-50.26a16.11,16.11,0,0,0-.83,3.42,7.46,7.46,0,0,0-2-1.71c-.84-.49-2.3-.41-2.59.75l-.06.21a6,6,0,0,0-.6-.37,1.63,1.63,0,0,0,.63-1.6,4.88,4.88,0,0,0-1.11-2.21,15.13,15.13,0,0,0,4.24-.48l2.71.27a1.63,1.63,0,0,0-.17.38,12.19,12.19,0,0,0-.26,1.34Zm-15.13,3.23V287l-.64-.6Zm2.82,34.61a36.52,36.52,0,0,1,0-4.56,41.89,41.89,0,0,1,.84,9.47,10.41,10.41,0,0,1-.23,1.24,34.41,34.41,0,0,1-.64-6.15Zm3.85,8.11c.06-.89.1-1.79.13-2.71.08-.48.13-1,.17-1.48a33.68,33.68,0,0,0,1.42,3.47c.39,2.47,1.17,4.9,1.73,7.34a4.56,4.56,0,1,1-1.45,2.1,46.33,46.33,0,0,1-1.41-7.75,1.19,1.19,0,0,0-.59-1Z"/><path id="Path_25309" data-name="Path 25309" class="cls-3" d="M228.23,351.87c-2.12,1.05-2.93,1.69-2.06,4.07a18,18,0,0,1,1.26,5.66,26.2,26.2,0,0,0-.23,4.34.49.49,0,0,0,.57.38.52.52,0,0,0,.35-.28,12.53,12.53,0,0,0,.33-6.84,22.69,22.69,0,0,0-.95-3.31c-.7-1.71-1-2.75.77-3.94C228.34,351.93,228.29,351.85,228.23,351.87Z"/><path id="Path_25310" data-name="Path 25310" class="cls-3" d="M232.17,278.33l-3.49-.21a74.14,74.14,0,0,0-10.43.4,151.63,151.63,0,0,0-22.48,3.89c-3.32.79-6.74,1.51-10,2.59a21.81,21.81,0,0,0-4.19,2l-3,.69a31.78,31.78,0,0,0-11.94,4.87,26.49,26.49,0,0,0-11.53,6.07c-3.91,4-6.14,14.45.26,17.46,7,3.29,12.63-6.1,15.92-10.66a42.31,42.31,0,0,1,9.93-10.74,1.44,1.44,0,0,0,1.89.76l.2-.1q1-.5,1.92-1a31.24,31.24,0,0,1,9.6,5.77c.21.16.41.34.61.51a27.21,27.21,0,0,0,8.07,9.19,38.87,38.87,0,0,1,2.5,4.51,30.09,30.09,0,0,0,2.13,9.4q.3,2.75.54,5.48a1.51,1.51,0,0,0-.9,1.29,50.67,50.67,0,0,0,1.31,17.9,34.38,34.38,0,0,0,.68,5.27,27.33,27.33,0,0,0,4.71,9.88,13.28,13.28,0,0,0,7.35,5.71,15.76,15.76,0,0,0,4.7.14c1.78-.13,3.48-1.19,5.25-1.19,1.39,0,1.64-2.14.22-2.17a7.4,7.4,0,0,0-2.55.4,20.78,20.78,0,0,1-4,.66,8.54,8.54,0,0,1-7.87-3.57,22.76,22.76,0,0,1-4.79-9.12,1.56,1.56,0,0,0,1.21-1.39,40.06,40.06,0,0,0,0-6.48c1.52,4.42,3,8.85,5,13.09.84,1.84,3.19.81,3.13-.95-.15-4.67-1.2-9.24-1.55-13.84a23.2,23.2,0,0,0,4.65,7.9c1.05,1.09,3.3.43,2.91-1.32-.66-2.94-1.39-5.87-2.13-8.8a59.78,59.78,0,0,0-2.44-8.8c-.61-1.47-1.27-2.93-2-4.38a10.48,10.48,0,0,0,6.88,3.21,1.78,1.78,0,0,0,1.91-1.62,1.88,1.88,0,0,0,0-.41,17.14,17.14,0,0,0-1.35-4.31l.07,0a1.71,1.71,0,0,0,1-1.78,9.08,9.08,0,0,0-1.63-3.83,2,2,0,0,0,.75-.74,4.27,4.27,0,0,0,.28-3.1,11.18,11.18,0,0,0,2.37.47,1.81,1.81,0,0,0,1.93-1.68,1.82,1.82,0,0,0-1.09-1.78c-2-1-4.13-1.86-6.23-2.71a18.68,18.68,0,0,0-1.24-1.43,15.67,15.67,0,0,0,1.67.14l1.7.8c1.86.86,2.84-1.7,1.58-2.88a21.93,21.93,0,0,0-2-1.65c-.28-.29-.57-.59-.87-.88a14,14,0,0,0,4.21-.65,4.07,4.07,0,0,0,2.81-5c0-.11-.07-.22-.11-.33a.61.61,0,0,0,0-.12h0a1.81,1.81,0,0,0,1.47-2.06,4.39,4.39,0,0,0-2.22-2.84,2.47,2.47,0,0,0-.13-1c1.5.08,3,.16,4.5.13a1.68,1.68,0,0,0,.78-3.21,42.52,42.52,0,0,0-15.91-3.44c-1.27-.09-2.63-.08-4-.08-1.31-.24-2.64-.44-3.94-.61,1.88-.15,3.77-.19,5.72-.16a32.21,32.21,0,0,0,11.26-1.19,1.72,1.72,0,0,0,.84-2.27,1.79,1.79,0,0,0-.52-.64l.28-.05a32.73,32.73,0,0,0,8.09-.38,1.67,1.67,0,0,0-.09-3.29A34.73,34.73,0,0,0,232.17,278.33Zm-13.26,57.1a1.82,1.82,0,0,0-1.25,1.39c0,.1,0,.21,0,.31a29.23,29.23,0,0,1-4-8.2,24.37,24.37,0,0,0-1-3.25c-.11-.23-.2-.46-.3-.69a39.47,39.47,0,0,0-1.46-6.89l-.11-.87c2.4,4.55,4.66,9.19,6.6,13.94C217.9,332.56,218.46,334,218.91,335.43Zm-59.07-24.16a5.5,5.5,0,0,0,1.47-.58,4.12,4.12,0,0,1-.39.63c-.69.86-1,.57-1.08-.05Zm.32-3.76c.09-.51.18-1,.25-1.52a9.12,9.12,0,0,0,1.9-.6,10.49,10.49,0,0,1-2.14,2.12Zm31-14.95a2,2,0,0,0-.35.51l-.74-.41Zm26.07,49a42.56,42.56,0,0,0,.24,4.79c-.82-2.37-1.62-4.73-2.49-7.07a11.57,11.57,0,0,0,2.25,2.28Zm8.32-14.44a14.44,14.44,0,0,1,.65,1.38,11.74,11.74,0,0,1-2.54-1.89,6.87,6.87,0,0,0,1.89.51Zm.19-9.62-.38-.39c-1.63-1.64-3.39-3.14-5.08-4.71,1.38.62,2.78,1.19,4.18,1.77a10.3,10.3,0,0,1,1.45,3.35Zm-18.36-15.35-.65-.52.57.29.08.24Zm-41.42,5a12.28,12.28,0,0,0,.11-1.35,16.54,16.54,0,0,0,2.73-5.33c.51-.56,1-1.11,1.41-1.66a17.28,17.28,0,0,0,2.63-.88c-2.44,2.95-4.61,6.21-6.89,9.22Zm64.16-7.53a2.83,2.83,0,0,1,.95,1.19s0,0,0,.05a2.65,2.65,0,0,1-1.46.64,17.44,17.44,0,0,1-5.63-.08c-.7-.08-1.4-.18-2.1-.28-1-.57-1.91-1.1-2.86-1.61a18.54,18.54,0,0,0-8.66-2.64l-.3-.18c3.61.45,7.22,1.08,10.85,1.39,1.28.23,2.57.45,3.84.71a38.26,38.26,0,0,0,5.22.69Z"/><path id="Path_25311" data-name="Path 25311" class="cls-3" d="M186.72,292.69c-6,.25-11.42,4.23-15.88,7.93-.87.55-.06,2.15.91,1.6,5-2.87,9.63-6.66,15.69-6.73A22.2,22.2,0,0,1,203,302.77c7.32,7.6,9.69,18.42,15.31,27.12.78,1.22,2.72,0,2.11-1.3-4.88-10.07-8.4-21.78-16.92-29.5A24.09,24.09,0,0,0,186.72,292.69Z"/><path id="Path_25312" data-name="Path 25312" class="cls-3" d="M200.37,301c-5.39-4-12.36-6.37-18.81-3.45A7.33,7.33,0,0,0,177,306a6.91,6.91,0,0,0,8.66,4.52c.23-.07.46-.16.68-.25a55.51,55.51,0,0,0,6.1-3.11,20.35,20.35,0,0,1,8.05-1.83c.41,0,.82,0,1.22,0l.34.28a56.94,56.94,0,0,1,13,17.17.62.62,0,0,0,.85.24.62.62,0,0,0,.28-.76,54.8,54.8,0,0,0-7.22-12.61,22.57,22.57,0,0,0,5.5,2.94,1.65,1.65,0,0,0,2.11-1,1.67,1.67,0,0,0-.24-1.57,21.33,21.33,0,0,0-12.64-7.64A31.78,31.78,0,0,0,200.37,301Zm-18.27,1.05c-.12,0-.08-.09.05-.21a3.36,3.36,0,0,1,1.58-.6l-1.19.84a3.15,3.15,0,0,1-.44,0Zm-1.22,4.56a1.5,1.5,0,0,0,.43.1c.6.05,1.24.07,1.91.06a5.57,5.57,0,0,0,1.24.74,3.69,3.69,0,0,1-3.58-.9Z"/><path id="Path_25313" data-name="Path 25313" class="cls-3" d="M426.1,366.36a7,7,0,0,0-.85,6.37,3,3,0,0,0,2.17,1.43,24.3,24.3,0,0,1,0,3.62c-.14,2-.59,2-1.77.38a39.46,39.46,0,0,1-2.75-5.57c-.77-1.51-3.32-.89-2.94.9.28,1.37,1.33,5.64-.59,6-1.75.36-2.76-4.81-3-5.92-.43-1.91-3.41-1.44-3,.51a10.7,10.7,0,0,1,.17,3c-.09,1.07-.31,1.68-.87.51a29.77,29.77,0,0,1-1.24-7.13,1.51,1.51,0,0,0-1.77-1.2,1.54,1.54,0,0,0-1.22,1.29c-.11,1.27-.19,2.56-.35,3.84-.14,1.13-.34,3.67-1.48,4.3-.94.51-3.4-7.94-3.82-8.82a1.49,1.49,0,0,0-2.54-.26c-1.09,1.55-.85,5.24-2.74,5.77-.84.23-2.53-3.69-3.27-4.28a1.46,1.46,0,0,0-2,.31h0a18.09,18.09,0,0,0-1.11,2.65,6.51,6.51,0,0,1-.66,1.32c-.41.63-.48.13-.77-.38-1-1.79-1-4-2.17-5.67a1.45,1.45,0,0,0-2.05-.18,1.42,1.42,0,0,0-.51.94,17.39,17.39,0,0,1-.43,2.68,3.73,3.73,0,0,1-.37,1,2.6,2.6,0,0,1-.1-.4,11.32,11.32,0,0,0-1.11-4.53c-.65-1-2-.47-2.43.38-.71,1.36-.45,3.37-1.6,4.49-.44.42-1.55-4-1.71-4.51-.45-1.36-2.52-.86-2.65.44-.07.62-.72,3.29-.67,1.28a5.64,5.64,0,0,0-1.21-4.42,1.4,1.4,0,0,0-2-.15,1.42,1.42,0,0,0-.37.51c-1,2.11-1.27,4.57-2.22,6.69.05-.45.16-.93.18-1.21a3.73,3.73,0,0,0-.65-2.36c-.55-.88-1.82-.42-2.18.34-.07.15-.13.31-.2.46a7.38,7.38,0,0,0-.71-2.09,1.13,1.13,0,0,0-1.51-.5,1,1,0,0,0-.38.32,62,62,0,0,0-5.16,11.56,1,1,0,0,0,1.76,1,3.83,3.83,0,0,0,.59-1.3,82.79,82.79,0,0,1,3.3-7.84,41.1,41.1,0,0,1-1.29,8.24c-.18,1.42,1.74,1.7,2.31.56a34.36,34.36,0,0,0,1.79-4.57,4.18,4.18,0,0,0,1.63,1.29,1.33,1.33,0,0,0,1.55-.45,12.37,12.37,0,0,0,2.24-4.68,2.28,2.28,0,0,0,2.3,2.24h.08a2.68,2.68,0,0,0,1.92-.5c.58,1.65,1.51,3.07,3.22,2.68a3.74,3.74,0,0,0,2.6-1.85,2.24,2.24,0,0,0,2,1.94,2.92,2.92,0,0,0,3.19-1.68,4.38,4.38,0,0,0,2.41,3.21c2.62,1.09,3.74-1.11,4.62-3.19a11.29,11.29,0,0,0,.77,1.46,3.78,3.78,0,0,0,3.57,1.66,3.58,3.58,0,0,0,3.37-3.26c1,3.35,2.37,7.11,5.54,6.65a4.1,4.1,0,0,0,3.13-2.52,4.06,4.06,0,0,0,2.51,2,2.57,2.57,0,0,0,3-.9,4.39,4.39,0,0,0,3.92,2.28,3.68,3.68,0,0,0,3.59-2.7,10.63,10.63,0,0,0,1,1.31,3.44,3.44,0,0,0,4.81.72,3.38,3.38,0,0,0,.75-.76,11.87,11.87,0,0,0,.76-7.48c1.33.27,2.75-1.25,1.59-2.43a2.64,2.64,0,0,0-2.06-.94,15.65,15.65,0,0,0-1.15-3.67,1.57,1.57,0,0,0-2.06-.81A1.55,1.55,0,0,0,426.1,366.36Z"/><path id="Path_25314" data-name="Path 25314" class="cls-3" d="M416.53,338.6a1.83,1.83,0,0,0-2.57-.25,1.34,1.34,0,0,0-.31.32,35.79,35.79,0,0,0-2.79,10.39c-.35,1.43-.52,2.9-.81,4.34a7,7,0,0,1-.43,1.5,15.67,15.67,0,0,1-1.53-7.1c-.22-2.2-.14-4.51-.56-6.68-.32-1.62-2.89-2.13-3.41-.36-1.67,5.71-1.45,12-3.92,17.51l-.05-.15a20.69,20.69,0,0,1-.53-5.71c0-1.78-.21-3.53-.31-5.31a30.28,30.28,0,0,0-1-8,1.73,1.73,0,0,0-2.95-.31,20.59,20.59,0,0,0-1.69,7.54c-.31,2.35-.52,4.74-.88,7.09,0-.85,0-1.69,0-2.45,0-4.35.79-9.07-.93-13.19a1.7,1.7,0,0,0-3.09.08c-1.78,3.73-1.23,7.76-2.06,11.69a42.13,42.13,0,0,1-1.6,8.09,22.54,22.54,0,0,1-.49-6.75,37.78,37.78,0,0,0-.3-8.89c-.36-1.41-2.64-2-3.12-.33a67.28,67.28,0,0,0-1.3,6.91,13.71,13.71,0,0,1-2.41,7.05c-1.79,1.73-2.57-3.45-2.65-4.18a54.27,54.27,0,0,0-.6-7.85,1.56,1.56,0,0,0-3-.31c-1.48,3.6-1.34,7.82-3.29,11.26v0a7.8,7.8,0,0,1-.15-3.78c.24-2.68.91-5.31,1.2-8a1.44,1.44,0,0,0-2.74-.67c-2.42,5.35-1.91,11.47-2.66,17.18-.17,1,1.55,1.47,1.83.44.23-.88.43-1.77.59-2.67a2.36,2.36,0,0,0,2.41.87c2-.4,2.91-3.1,3.48-5.06.51,3.74,1.85,6.9,6,6.05a5.52,5.52,0,0,0,3.64-3.82c.18,2.64.79,5.78,3.34,6.68a1.7,1.7,0,0,0,1.93-.56,16.54,16.54,0,0,0,2.72-8.39c0,.36,0,.71,0,1.06a9.62,9.62,0,0,0,1.58,5.23,2.23,2.23,0,0,0,3.1.55,2.37,2.37,0,0,0,.46-.43,10.34,10.34,0,0,0,1.57-4.85c0,.35,0,.7.05,1,.12,2.48,1.68,9,5.55,6.32,2.28-1.6,2.92-5.54,3.45-8.35a7.3,7.3,0,0,0,2.68,4.8c3.56,2.27,5.26-2.31,5.79-4.95.29-1.41.81-3,1-4.41s.26-2.61.5-3.92a50.22,50.22,0,0,1,0,6,14.85,14.85,0,0,0,2.35,9.37,1.86,1.86,0,0,0,2.2.52,5,5,0,0,0,2.64-2.27,6.46,6.46,0,0,0,2.05,1.46,3.77,3.77,0,0,0,2.19.39,12.25,12.25,0,0,0,3.67,6.84,1.86,1.86,0,0,0,1.95.2,5.78,5.78,0,0,0,2.64-3.21l.09-.07c2.61-2.5,2.65-7,2.27-10.79a9.14,9.14,0,0,0,1.18-4.05,2,2,0,0,0-4-.41.32.32,0,0,0,0,.14,1.89,1.89,0,0,0-.6.26,2.05,2.05,0,0,0-2.9.05,2,2,0,0,0-.54,1.1,21.83,21.83,0,0,0,1,12.08,0,0,0,0,1,0,0,19.35,19.35,0,0,1-1.15-10.82,1.93,1.93,0,0,0-3.83-.4c0,.38-.07.77-.1,1.16-.06.75-.12,1.51-.22,2.26a8.4,8.4,0,0,1-.36,1.56l-.2-.16A4.91,4.91,0,0,1,424,352.8c.19-2.29.13-4.6.29-6.23a1.89,1.89,0,0,0-3.75-.39,44.51,44.51,0,0,0-.3,5.16c0,.36,0,.72-.08,1.08a13.81,13.81,0,0,1-.61,3.66,25.38,25.38,0,0,1-.54-8.15A14.9,14.9,0,0,0,416.53,338.6Z"/><path id="Path_25315" data-name="Path 25315" class="cls-3" d="M424,312.26c-.81.64-1.33,1.73-2.21,2.28-.27.17-1.86-1.62-2.26-1.8-2.32-1-4.13.55-5.19,2.44-.5.89-1.33-.59-1.62-.92a4.76,4.76,0,0,0-2.69-1.61c-1.3-.3-2,1.27-1.64,2.29a9.49,9.49,0,0,1,.78,3.1c0,1.25-1.14-.67-1.33-1-1.15-1.73-2.52-3.8-4.92-3.13a1.64,1.64,0,0,0-1.36,1.43c0,1,.12,1.92.12,2.88l0,.45,0,.08a6.34,6.34,0,0,1-.94-1.13c-1.14-1.57-1.87-3.78-3.64-4.79a1.64,1.64,0,0,0-2.28.43,1.56,1.56,0,0,0-.16.28c-1.22,2.39.1,4.85.09,7.25-2.18-2-2.91-5.85-5.59-7.45a1.59,1.59,0,0,0-2.22.39,1.56,1.56,0,0,0-.28.72c-.11,2.13.76,4.41.74,6.58a12.1,12.1,0,0,1-1.89-3,11.38,11.38,0,0,0-3-4,1.56,1.56,0,0,0-2.17.34,5.37,5.37,0,0,0-.94,2.83,15.56,15.56,0,0,0,.21,2.36,17.14,17.14,0,0,1-1.54-2.57,32.26,32.26,0,0,0-2.41-4,1.49,1.49,0,0,0-2.09-.19,1.57,1.57,0,0,0-.53,1,15.24,15.24,0,0,0,.6,4.46,10.83,10.83,0,0,1,.57,3.29,14,14,0,0,1-1.3-2.87,34,34,0,0,0-1.91-4.43c-.58-1-2.38-1-2.45.4-.08,1.56-.21,3.12-.36,4.68a1,1,0,0,0-1.83.35,8.39,8.39,0,0,0,1.59,5.56,1.14,1.14,0,0,0,1.59.13,1.1,1.1,0,0,0,.39-.73c.2-1.56.36-3.14.53-4.69a8.24,8.24,0,0,0,3.83,5.19,1.41,1.41,0,0,0,1.64-.48A5.06,5.06,0,0,0,377,321.1a4.87,4.87,0,0,0,4.13,2.19,1.5,1.5,0,0,0,1.17-1,10.62,10.62,0,0,0,.06-3.73c1.58,2.66,2.54,6.24,6.08,6.19a1.6,1.6,0,0,0,1.62-1,10.47,10.47,0,0,0,.1-4.56,10.06,10.06,0,0,0,5.07,5.56,1.62,1.62,0,0,0,2.06-.9,8.09,8.09,0,0,0,.49-4.46l-.09-.54a7.28,7.28,0,0,0,3.35,3.21c1.56.61,2.88-.5,3.54-1.83a4.14,4.14,0,0,0,.34-1.9c.34.53.63,1.11.85,1.42a4.16,4.16,0,0,0,3.76,1.93c2.1-.09,2.77-1.59,2.79-3.34a2.89,2.89,0,0,0,1.72.43,4.47,4.47,0,0,0,2.63-1.35c.55-.6,1-2.39,2-1.28a3.66,3.66,0,0,0,5.09,1l.14-.09c.83-.69,1.45-1.56,2.23-2.3,1.4-1.28,3.76-.75,5.45-.58a1.64,1.64,0,0,0,.34-3.27A10.31,10.31,0,0,0,424,312.26Z"/><path id="Path_25316" data-name="Path 25316" class="cls-3" d="M414.2,299.42c-.91-.19-1.81-.36-2.73-.47a1.49,1.49,0,0,0-1.4.52l-1.34-.15-.39-.05-.18,0a37.62,37.62,0,0,0-7.19-.46,54.37,54.37,0,0,0-10.35.69,1.64,1.64,0,0,0-1.08.6l-3.72.62a5,5,0,0,0-1.2-.94,1.64,1.64,0,0,0-2.27.42,2.69,2.69,0,0,0-.16.29,4.22,4.22,0,0,0-.2.6c-1.12,0-2.26,0-3.4.06a1.73,1.73,0,0,0-2,0,26.62,26.62,0,0,0-4.54.5,1.68,1.68,0,0,0-1.53.41,12.29,12.29,0,0,0-1.84.76,14.77,14.77,0,0,0-1.63-3.19c-.94-1.3-2.85,0-2.3,1.42.23.58.48,1.17.73,1.76a.89.89,0,0,0-.79.82,8,8,0,0,0,3,6.62,1.24,1.24,0,0,0,1.74-.31,1.29,1.29,0,0,0,.22-.56,1.47,1.47,0,0,0,0-.21,5.59,5.59,0,0,0,.65.32,2.73,2.73,0,0,0,3.53-1.37,11.27,11.27,0,0,0,3.84,2.93,1.55,1.55,0,0,0,2-.88,4.33,4.33,0,0,0,.46-1.26l.27,0a4.07,4.07,0,0,0,2.93,1,2.56,2.56,0,0,0,1.5-.68q7.47.42,14.95.26c4.65-.1,9.32-.09,14-.19a9,9,0,0,0,5.57,3.11,3.45,3.45,0,0,0,3.67-2.16,4.7,4.7,0,0,0,1.39.53c1.32.28,2.76.79,3.93-.18l.17-.15,2.12.47a1.53,1.53,0,0,0,1.05-.11c.84.71,1.66,1.42,2.5,2.11,1.65,1.38,3.56-1.31,2-2.68a26.93,26.93,0,0,0-5.45-4.35,30.28,30.28,0,0,0-5.2-3.08l-.14-.06a1.77,1.77,0,0,0-.75-3.22A38.76,38.76,0,0,0,414.2,299.42Z"/><path id="Path_25317" data-name="Path 25317" class="cls-3" d="M432.82,356.42a15.42,15.42,0,0,0-2.75,9.27,1.7,1.7,0,0,0-2.38-.37l-.14.11c-.08-.34-.17-.69-.27-1a3.38,3.38,0,0,0-4.65-.05,31.58,31.58,0,0,1-1.56,4c-.11-.13-.23-.27-.35-.39l-.21-.18a6.88,6.88,0,0,0-.89-1.9,1.81,1.81,0,0,0-2.55-.27h0a9.57,9.57,0,0,0-2.08,2.95,3,3,0,0,0-1-.45,1.87,1.87,0,0,0-2.12.61,13.22,13.22,0,0,0-1,1.66,3.84,3.84,0,0,0-3.65-2.56,3.69,3.69,0,0,0-3.16,2.56,3.75,3.75,0,0,0-.53-.44c-2.42-1.62-4.16-.28-5.35,1.87a3.07,3.07,0,0,0-4-1.66,2.87,2.87,0,0,0-.82.5,5,5,0,0,0-1.39,1.89c-3.55-.48-7.17-1.23-10.75-1.37a40.81,40.81,0,0,0-15.76.75,1.5,1.5,0,0,0-.63,2.66l.26.17-.83-.08c-1.47-.31-1.79,2.18-.25,2.35a82.92,82.92,0,0,0,21.29.4,1.42,1.42,0,0,0,.66,1.46,29.36,29.36,0,0,0,5,2.44,1.76,1.76,0,0,0,1.65.59A52,52,0,0,0,403.45,384a1.82,1.82,0,0,0,2.24.2c4.24.34,8.51.48,12.63.89a1.65,1.65,0,0,0,1.78-1.51,1.76,1.76,0,0,0-.15-.84,1.88,1.88,0,0,0,1.26-.33l.51-.32a10.48,10.48,0,0,0,8.62-4.39,3.21,3.21,0,0,0,3.24,0,5.62,5.62,0,0,0,2.39-2.81,1.88,1.88,0,0,0,3-1.1c.3-2.72.71-5.42.81-8.16a10.69,10.69,0,0,0-1.64-7.64,1.89,1.89,0,0,0-2-.55v-.2C435.92,355.49,433.75,355.37,432.82,356.42Zm-3,12c0,.31-.08.6-.13.89a8.67,8.67,0,0,1-2.87,5.12h-.07c.23-.68.43-1.37.59-2.06s.58-1.14.89-1.71C428.77,370,429.33,369.22,429.82,368.45Zm-16.24,5c0,.36-.07.72-.09,1.07l-.42-.11a11.1,11.1,0,0,1,.45-1.26c0,.09,0,.19.08.28Zm-6.6-.62,0-.06a7.63,7.63,0,0,1,.41-1.07,7.06,7.06,0,0,1,.29.81c.05.16.08.32.12.48l-.82-.17Z"/><path id="Path_25318" data-name="Path 25318" class="cls-3" d="M433.05,308.88a2.22,2.22,0,0,0-2.06.52l-.19-.22a1.93,1.93,0,0,0-2.72-.23,2,2,0,0,0-.53.73,21,21,0,0,0-1.24,4.87,17,17,0,0,0-1.7-2.72,1.92,1.92,0,0,0-3.24.5,8,8,0,0,0,.08,5.62,35.07,35.07,0,0,1,.59,4.2l-.36,0a4.2,4.2,0,0,0-.85.27,78.25,78.25,0,0,0-3.24-9.66c-.7-1.62-3.66-1.36-3.61.59a43.88,43.88,0,0,0,3.49,14.48l-.08.3a10.12,10.12,0,0,0-.87-1.45,1.84,1.84,0,0,0-1.16-.67,16.23,16.23,0,0,0-2.68-6.92,1.89,1.89,0,0,0-2.68-.23,1.92,1.92,0,0,0-.67,1.23,17.55,17.55,0,0,0,.24,4.22,8.34,8.34,0,0,0-3.82-4.94h0a2.08,2.08,0,0,0-1.76-.27,2.78,2.78,0,0,0-2.22-.91,1.83,1.83,0,0,0-1.54,1.64l-.06.79a2.09,2.09,0,0,0-1.57,2.17,37.52,37.52,0,0,0,1.31,6.9l-.45.3a3.71,3.71,0,0,0-.58.54c-.32-1.74-.69-3.46-1.11-5.18a22.43,22.43,0,0,0-1.86-5.65c-.87-1.56-3.54-1.47-3.68.6a.53.53,0,0,0,0,.13,2.06,2.06,0,0,0-2.67,1,6.19,6.19,0,0,0-.43,1.3,7.35,7.35,0,0,0-.9-1.62,1.91,1.91,0,0,0-2.69-.24,1.87,1.87,0,0,0-.65,1.1,21.4,21.4,0,0,0-.77-2.85,1.89,1.89,0,0,0-3.24-.34,12,12,0,0,0-1.36,5.5,4.85,4.85,0,0,0-1.12-1.14,1.7,1.7,0,0,0-1.72-.21,26.21,26.21,0,0,0-1.14-4.62c-.64-1.81-3-1-3.31.54-.2.94-.38,1.9-.54,2.86a1.65,1.65,0,0,0-2.31-.42,1.55,1.55,0,0,0-.58.71,12.61,12.61,0,0,0-.69,4.64,1.5,1.5,0,0,0-.39.54,22.57,22.57,0,0,0-2,10.68,4.69,4.69,0,0,0-2.16,2.69,12.8,12.8,0,0,0,.73,11.31,1.42,1.42,0,0,0,2,.21,9.59,9.59,0,0,0,2.85-7.65,1.76,1.76,0,0,0,1-.13v0a9.37,9.37,0,0,0,2.54,4.78,5.81,5.81,0,0,0,1,1.31,2.66,2.66,0,0,0,2.47.73,14.55,14.55,0,0,0,.7,1.43,5.76,5.76,0,0,0,4.21,3.24c3.12.42,3.91-5.55,4.25-7.71,1.37,1.43,3,2,4.57.4a3,3,0,0,0,.66.35c2,.8,3.56-.38,4.47-2.11.09-.17.16-.35.24-.53a4.18,4.18,0,0,0,1.32.05,3,3,0,0,0,2-1.1,38.25,38.25,0,0,0,1.6,4.38c1,2.25,2.54,5.15,5.24,5.55s3-3.5,3.18-5.26v0a10.9,10.9,0,0,0,3,2.37c1.64.81,3.21-.36,4.16-1.85l.29,0c2.23-.22,2.65-3,2.59-5.48.32.5.66,1,1,1.45,1.31,1.72,4.63,4.33,6.62,2.16a5.43,5.43,0,0,0,.62-.81,8.27,8.27,0,0,0,3,1.92,7,7,0,0,0,3.69,3.13,1.9,1.9,0,0,0,1.89-.29,4,4,0,0,0,.27-.31h0c3-1.13,3.58-4.91,3.72-7.74.05-1,0-2,0-3a2.12,2.12,0,0,0,.78-.61c3.65-4.92.58-12,.1-17.42a38.38,38.38,0,0,0-1.84-8,10,10,0,0,0-4.65-6.28A1.53,1.53,0,0,0,433.05,308.88ZM422.25,326l.14.09a2.22,2.22,0,0,1,.38.37c.4,1.7.85,3.38,1.31,5.06a53.18,53.18,0,0,1-2.11-5.19A3,3,0,0,1,422.25,326Zm9.65,8.41c-.06-.57-.13-1.15-.19-1.7-.23-1.86-.58-3.74-.9-5.63l0-1.46a21.76,21.76,0,0,0,1,2.62c.4,3,.89,5.89,1.24,8.85,0,.28.06.56.1.83-.4-1.24-.84-2.42-1.26-3.53ZM420.74,336a60.53,60.53,0,0,0,3.39,7.79,4.63,4.63,0,0,1-.2,1.34,8.85,8.85,0,0,1-2.7-3.39c-.54-.94-1-1.92-1.49-2.9.14-1.43.27-2.87.43-4.3l.57,1.45ZM392,343.65a6.18,6.18,0,0,1-.33,1.21,2.33,2.33,0,0,1-.17-.26c.08-.63.11-1.25.16-1.8a8,8,0,0,0,.38.71.28.28,0,0,0,0,.13Zm11.3,1.37.11,0c.07.34.13.7.19,1.06-.1-.37-.2-.71-.3-1.06Zm-15.77,0a12.33,12.33,0,0,1-1.43-2.46c.05-.88.06-1.75.05-2.63.28,1,.57,2.1.86,3.15.16.55.33,1.18.56,1.82a.29.29,0,0,0,0,.1Zm-5.93.7a30.11,30.11,0,0,1-.31-5.45c.05.2.1.4.16.6.22.7.48,1.4.77,2.08,0,.74-.07,1.49-.12,2.24-.1.47-.21.94-.34,1.4-.06-.31-.11-.6-.16-.89Zm-15.9,2.7a14.78,14.78,0,0,1-.21-5,8.09,8.09,0,0,1,.76-2.94l.16.46c0,.1,0,.21,0,.32a21,21,0,0,1-.69,7.18Z"/><path id="Path_25319" data-name="Path 25319" class="cls-3" d="M395.05,287.7a103.58,103.58,0,0,0-28.24-1,1.65,1.65,0,0,0-1.53,1.77,1.52,1.52,0,0,0,.1.47,2.17,2.17,0,0,0-.13,1.86l-.35.09c-1.74.53-2.52,3.37-.34,4,.73.2,1.47.38,2.21.53a1.53,1.53,0,0,0-.12.67,1.29,1.29,0,0,0,.48,1.35,1.83,1.83,0,0,0,1.45.84c6,.5,12,1.06,17.95,1.43a1.74,1.74,0,0,0,1.25-.31c2.59.14,5.19.31,7.78.53a1.88,1.88,0,0,0,1.95-1.06c3.1.38,6.22.58,9.34.75a2,2,0,0,0,1.47.78c2.89.3,5.88,1,8.84,1.28,1.37.24,2.73.47,4.11.67a52.56,52.56,0,0,0,11.44,1.59,1.73,1.73,0,0,0,1-.39,29,29,0,0,1,1.67,3.83,24.54,24.54,0,0,1,1.73,9.88,2.19,2.19,0,0,0,4.33.38,31.1,31.1,0,0,0-2.3-19.68c-3.1-6-9.28-6.65-15.33-6.81a16,16,0,0,0-7-.3C409.52,290.23,402.26,288.74,395.05,287.7Zm33.16,9.95a8.35,8.35,0,0,0,.29,1.8c-.93-.14-1.85-.33-2.78-.55a2.42,2.42,0,0,0-.63-1.58,9.7,9.7,0,0,0,2-.82,2.49,2.49,0,0,0,1-1,15.54,15.54,0,0,1,1.68.31,1.85,1.85,0,0,0-1.55,1.84Z"/><path id="Path_25320" data-name="Path 25320" class="cls-3" d="M437.12,304a21.68,21.68,0,0,1,1.58,5.88,43.21,43.21,0,0,0,.35,5.08,2.19,2.19,0,0,0,.51.93,6,6,0,0,1-.57,1.83c-.92,1.79,2.15,3.4,3.12,1.64a14.25,14.25,0,0,0,1.05-8.2,22,22,0,0,0-2.34-8.91,2,2,0,0,0-3.7,1.75Z"/><path id="Path_25321" data-name="Path 25321" class="cls-3" d="M435.85,343.85a6.33,6.33,0,0,1,.46,4.52,21.53,21.53,0,0,0-.11,5,57.57,57.57,0,0,1,0,12.24c-.68,6.76-2.9,16.5-10.48,18.63a23,23,0,0,1-8.91-.16c-3.49-.42-7-.64-10.52-.85l-.08,0a64.51,64.51,0,0,0-14.59-2.5c-8.94-4.66-18.9-2-28.5-2.74a2.11,2.11,0,0,0-2.28,1.92,2.08,2.08,0,0,0,0,.5,2.26,2.26,0,0,0-.63.64c-.74.2-1.48.42-2.22.67-2.08.72-1.1,3.59.7,3.87a49.66,49.66,0,0,0,10.83.29l6.74.58a2,2,0,0,0,.43.08c12.21,1.09,24.41,2.22,36.63,3.25a2,2,0,0,0,2.13-1.2c1.67.18,3.34.36,5,.52a16.37,16.37,0,0,0,10.16-2c7.36-4.45,9.77-13.89,10.72-21.84a60.73,60.73,0,0,0-.21-13.61,51.86,51.86,0,0,1,.47-5.57,9.15,9.15,0,0,0-1.82-5.56C437.86,337.8,433.88,341.16,435.85,343.85Z"/><path id="Path_25322" data-name="Path 25322" class="cls-3" d="M432.14,296.58c4.42,3.87,6,10.07,7,15.62a134,134,0,0,1,2.42,22.25c.31,14.42,0,30.11-8.58,42.41a2.12,2.12,0,0,0,3.46,2.45c10.27-13.24,10.75-30.2,10.41-46.23a132.2,132.2,0,0,0-2.75-23.87c-1.28-6.11-3.55-13.24-8.85-17C432.37,290.07,429.57,294.33,432.14,296.58Z"/><path id="Path_25323" data-name="Path 25323" class="cls-3" d="M244.18,368.65c-1.67-.15-3.34-.27-5-.32L224,367a1.69,1.69,0,0,0-1.87,1.48c0,.05,0,.1,0,.15a1.88,1.88,0,0,0,.41,1.37,2.11,2.11,0,0,0,1.76,2.27,175.74,175.74,0,0,0,20.25,1.05c2.26-.06,2.78-3.2,1.08-3.83A1.77,1.77,0,0,0,244.18,368.65Z"/><path id="Path_25324" data-name="Path 25324" class="cls-3" d="M438,365.12a41.33,41.33,0,0,0-1.25,9.84,14.21,14.21,0,0,1-4.55,9.6,11.9,11.9,0,0,1-8.05,2.87l-11.29-1A1.78,1.78,0,0,0,411,388a2,2,0,0,0,0,.6,1,1,0,0,0,.68,1.25l.15,0h0l.28,0a1.82,1.82,0,0,0,.46.11,102,102,0,0,0,11.58,1l4.13.34a1.6,1.6,0,0,0,1.8-1.27,15.21,15.21,0,0,0,4.68-2.5c6.26-4.94,7.73-14.71,6.39-22.18a1.65,1.65,0,0,0-1.93-1.28A1.62,1.62,0,0,0,438,365.12Z"/><path id="Path_25325" data-name="Path 25325" class="cls-3" d="M418.54,289.4c-5.24-.34-10.45.18-15.7.14-11.38-.11-22.72-1.42-34.08-2.06a1.25,1.25,0,0,0-.22,2.48c11,1.32,21.95,3,33,3.38,5.25.16,10.47-.33,15.72,0,5.48.29,10.91,1.14,16.38,1.56a2,2,0,0,0,.34-4C428.85,290.37,423.71,289.73,418.54,289.4Z"/></g><path id="Path_25326" data-name="Path 25326" class="cls-3" d="M265.64,292.84a55.62,55.62,0,0,1,7,3.75,7.11,7.11,0,0,1,.57-2,57,57,0,0,0-6.84-3.58C265.2,290.56,264.52,292.34,265.64,292.84Z"/><path id="Path_25327" data-name="Path 25327" class="cls-3" d="M271.41,287c2.32,1.34,4.63,2.72,6.92,4.12.81-.09,1.61-.2,2.41-.33-2.83-1.65-5.66-3.29-8.52-4.89C271.46,285.44,270.64,286.52,271.41,287Z"/><path id="Path_25328" data-name="Path 25328" class="cls-3" d="M285,282.33a68.27,68.27,0,0,0,8,5.91c.67-.15,1.34-.27,2-.39l.21-.26a69.16,69.16,0,0,1-9.33-6.5C285.13,280.45,284.24,281.68,285,282.33Z"/><path id="Path_25329" data-name="Path 25329" class="cls-3" d="M254.49,365.91A35.12,35.12,0,0,0,265,374.66a1,1,0,0,0,1-1.76,49,49,0,0,1-9.82-8.35C255.21,363.55,253.54,364.87,254.49,365.91Z"/><path id="Path_25330" data-name="Path 25330" class="cls-3" d="M256.27,358.69a5.1,5.1,0,0,0,.55.82,47.08,47.08,0,0,0,9.43,8.22,97,97,0,0,0,12.45,8.54c.93.53,1.91-.71,1-1.36a231.81,231.81,0,0,1-22.37-17.08C256.8,357.33,256,358.08,256.27,358.69Z"/><path id="Path_25331" data-name="Path 25331" class="cls-3" d="M281.56,370.83c.82.63,1.65,1.24,2.5,1.82a11.27,11.27,0,0,0-1.14-1.44l-.35-.34Z"/><path id="Path_25332" data-name="Path 25332" class="cls-3" d="M264.49,353.47a3.36,3.36,0,0,0-1.93-.24.52.52,0,0,0-.43.59.51.51,0,0,0,.59.43,3.13,3.13,0,0,1,1.76.57A7.61,7.61,0,0,1,264.49,353.47Z"/><path id="Path_25333" data-name="Path 25333" class="cls-3" d="M316.69,371a6,6,0,0,1-1.85,0l-.21.05a56.34,56.34,0,0,0,10.11,6.21c.9.42,1.7-1,.84-1.53q-4-2.31-7.83-4.93Z"/><path id="Path_25334" data-name="Path 25334" class="cls-3" d="M322.81,369.61a47.15,47.15,0,0,0,10.78,6.75.86.86,0,0,0,1.1-.51.88.88,0,0,0-.29-1c-3.06-2-6.09-3.93-9.06-6C324.51,369.15,323.67,369.39,322.81,369.61Z"/><path id="Path_25335" data-name="Path 25335" class="cls-3" d="M331.87,366.23a9.54,9.54,0,0,0,5.27,3.5c1,.18,1.16-1.2.38-1.58a14.07,14.07,0,0,1-4.43-3.41A6.27,6.27,0,0,1,331.87,366.23Z"/><path id="Path_25336" data-name="Path 25336" class="cls-3" d="M326.73,289.18a6,6,0,0,1,2.7,2.61l3.77,1.12c-1.74-1.33-3.47-2.68-5.15-4.08a.82.82,0,0,0-1.16.07A.71.71,0,0,0,326.73,289.18Z"/><path id="Path_25337" data-name="Path 25337" class="cls-3" d="M341,294l1.48,1.44a6.68,6.68,0,0,1,3.68,2.75c.53,0,1.05-.09,1.57-.16a4.19,4.19,0,0,1,.5,0c-2-1.84-4.07-3.68-6.1-5.55C341.22,291.59,340.12,293.15,341,294Z"/><path id="Path_25338" data-name="Path 25338" class="cls-3" d="M349.94,293.42a.82.82,0,0,0,.49,1.08l.18,0,.05,0,.09,0a2,2,0,0,1,.36.18,2,2,0,0,0,.76.24.72.72,0,0,0,.74-.45.71.71,0,0,0-.4-.92s-.25-.11-.17-.05a3.43,3.43,0,0,1-.33-.24A2.12,2.12,0,0,0,351,293,.84.84,0,0,0,349.94,293.42Z"/><path id="Path_25339" data-name="Path 25339" class="cls-3" d="M110.28,297.59c2.69,1.77,2.64,5.49,4.82,7.7.73.74,2-.24,1.26-1-2.12-2.35-2.4-6-5.36-7.65C110.33,296.23,109.61,297.15,110.28,297.59Z"/><path id="Path_25340" data-name="Path 25340" class="cls-3" d="M115.25,297.31c1.12,1,1.68,2.54,2.81,3.57a42.18,42.18,0,0,1,3.83,4.19.71.71,0,0,0,1,.08.69.69,0,0,0,.19-.82,16.42,16.42,0,0,0-3.35-4.65,39.37,39.37,0,0,0-3.3-4C115.48,294.81,114.3,296.45,115.25,297.31Z"/><path id="Path_25341" data-name="Path 25341" class="cls-3" d="M122.2,298.08a53.7,53.7,0,0,0,5.3,5,.7.7,0,0,0,1-.14.69.69,0,0,0-.15-1c-1.86-1.51-3.44-3.29-5.19-4.91C122.56,296.58,121.64,297.55,122.2,298.08Z"/><path id="Path_25342" data-name="Path 25342" class="cls-3" d="M130.71,298.7a9.51,9.51,0,0,0,3.64,2.76c1.07.45,1.6-1.13.64-1.64a9.81,9.81,0,0,1-2.84-2.29.94.94,0,0,0-1.44,1.17Z"/><path id="Path_25343" data-name="Path 25343" class="cls-3" d="M93.91,281.8a1.49,1.49,0,0,0-.15,2.1,1.51,1.51,0,0,0,1,.5c2,0,3.74-.67,5.74-.54a15.09,15.09,0,0,1,6.28,2.29c2.53,1.47,4.61,3.68,7.29,4.9,1.47.67,2.75-1.73,1.32-2.51a23.85,23.85,0,0,1-4.11-3.31,23.11,23.11,0,0,0-5.26-3.32C102.64,280.23,97,279.16,93.91,281.8Z"/><g id="Group_3489" data-name="Group 3489"><path id="Path_25344" data-name="Path 25344" class="cls-3" d="M450.79,396.15c-4.47,2.48-8.67,6.85-14,6a2.27,2.27,0,0,0-1.1.08c-16.36-1.75-32.75-3.41-49.13-5.08s-32.64-2.19-48.95-3.55-32.86-2.54-49.21-4.44c-8-.93-16-1.94-24-2.64-8.17-.71-16.37-1-24.54-1.72a79,79,0,0,1-12.06-1.66,2.71,2.71,0,0,0-2.17-1.56c-4.32-.53-8.48-3.09-12.67-4.33a137.56,137.56,0,0,1-13.94-4,130.89,130.89,0,0,1-13.38-6.62c-4.62-2.54-9.45-4.59-14.25-6.73-9.74-4.35-19.42-8.89-29.31-12.8-5.06-2-10.12-4-15.21-5.86A83.32,83.32,0,0,0,112,335.94V336a2,2,0,0,0-1.22,3.56,66.75,66.75,0,0,0,14.39,6.68c5,2.12,10.08,4.07,15.11,6.15,10.14,4.19,20.07,9,30.09,13.56,4.76,2.17,9.52,4.33,14.13,6.9a135.39,135.39,0,0,0,13.38,6.65,143.54,143.54,0,0,0,14,4c2.21.68,4.35,1.65,6.52,2.54l-.35.42c.57.27,1.15.54,1.73.78,7,3.08,15,3.31,22.5,3.92,8.15.65,16.32,1,24.47,1.8s16,1.86,24,2.79c23.66,2.75,47.45,4.34,71.22,5.7,24.83,1.43,49.46,5.35,74.28,7a2.59,2.59,0,0,0,2-.66,22.63,22.63,0,0,0,15.44-6.63C456.08,399,453.64,394.57,450.79,396.15Z"/><path id="Path_25345" data-name="Path 25345" class="cls-3" d="M116.46,290.94A89.28,89.28,0,0,0,132,288.58c5.33-.87,10.64-1.84,15.95-2.85,10.38-1.93,20.67-4.49,31-6.84,5.07-1.16,10.17-2.24,15.15-3.79a140.11,140.11,0,0,1,14.26-3.84c4.82-.95,9.53-.83,14.38-1.32a88.92,88.92,0,0,1,13.19-1.86,2.73,2.73,0,0,0,2.39-1.07,85,85,0,0,1,12.15.48c8.16.72,16.28,1.77,24.44,2.49,8,.7,16,1.09,24,1.58,16.4,1,32.79,2.64,49.16,4.12s32.45,3.7,48.77,4.88,32.79,2.4,49.19,3.51a2.34,2.34,0,0,0,1.07.25c5.38.09,8.78,4.78,12.77,7.8,2.54,1.91,5.67-1.72,3.7-4.19a23.12,23.12,0,0,0-14.1-8.63,2.69,2.69,0,0,0-1.85-.94c-24.7-2.59-49.6-3.09-74.27-5.91-23.62-2.7-47.3-5.2-71-6.6-8-.48-16.07-.82-24.09-1.44s-16.25-1.66-24.38-2.41c-7.45-.71-15.38-1.81-22.79-.16l-1.83.44.27.45c-2.27.45-4.54,1-6.83,1.23-4.85.54-9.59.38-14.41,1.36a140.44,140.44,0,0,0-14.27,3.87c-5,1.58-10,2.76-15.06,4-10.61,2.5-21.18,5.27-31.86,7.41-5.29,1.07-10.6,2-15.89,3.12a71.09,71.09,0,0,0-15.27,3.72,1.85,1.85,0,0,0-.8,2.48,1.82,1.82,0,0,0,1.42,1S116.46,290.92,116.46,290.94Z"/><path id="Path_25346" data-name="Path 25346" class="cls-3" d="M81.48,279.52c-4.92,1.31-7.08,6.23-7.89,10.79-1,5.73-.93,11.8-1.45,17.6a112.59,112.59,0,0,0-.46,19.43c.15,1.75,2.76,1.21,2.67-.49-.57-10.1,1.46-20.1,2.4-30.11A23.27,23.27,0,0,1,79.2,286c2.67-4.16,7.39-2.78,10.26.21a2,2,0,0,0,3.31-2.13A9.72,9.72,0,0,0,81.48,279.52Z"/></g><g id="Group_1096" data-name="Group 1096"><path class="cls-3" d="M325.24,311.91a24.07,24.07,0,1,0-42.7,22.21c.11-.19.22-.37.35-.56a.38.38,0,0,0,0-.4A23.28,23.28,0,1,1,323,335.5a.42.42,0,0,0-.06.21h0a.42.42,0,0,0,0,.19c.11.21.2.43.3.64a24.08,24.08,0,0,0,1.93-24.64Z"/><path class="cls-4" d="M323.31,336.55a.76.76,0,0,0-.08.11,8.14,8.14,0,0,1,1.1,4.89,8.14,8.14,0,0,0-1.1-4.89,24.06,24.06,0,0,1-40.69-2.54,23.27,23.27,0,1,0,40.77,2.43Z"/><g id="Group_1091" data-name="Group 1091"><path id="Path_8925" data-name="Path 8925" class="cls-3" d="M306.84,352.88a3.75,3.75,0,0,1,.64,2.29l0,.44-2-.09-.1,1.93,2.17.11c.32,0,.88,1.13.82,2.3l0,.41-16.5-.8,1.32-2.71.08-1.58-1.39-1.39,2.26-2.56a1.77,1.77,0,0,1,.49,1.06Zm-2.09,2.6L294,355l-.09,1.93,10.71.53ZM306.4,339s1.53-1.56,2.54-2.45c.28.08.39.38.37.75l-.21,4.42,5,.25c.24,0,.66,1.35.61,2.49l0,.54-5.69-.28-.42,8.67-.74.18.44-8.88-4.43-.21.55-3.87c.31.09.54.27.61.92l3.41.16.06-1.19Zm-3.08,9.57c.18,0,.76.89.68,2.29l0,.47-11.61-.57,1.31-3,.07-1.45c-1-.23-2.44-.56-3.44-.74l1.05-4.12c.41.11.6.48.58,1.06.53.68,1.29,1.73,1.87,2.53l.23-4.71L292.64,339l2.26-2.63a1.8,1.8,0,0,1,.44,1l8.13.4a4.13,4.13,0,0,1,.68,2.42l0,.46-1.06-.05L302.9,344c1.89,1,3.5,3.23,4.32,8.09l-.32.17a9.08,9.08,0,0,0-4.13-5.64l-.1,2Zm-8.93-.45,3.29.16.13-2.61-3.29-.16Zm7.7-1.88a9.93,9.93,0,0,0-2.91-.5l-.62,0-.13,2.61,3.55.17Zm.28-5.77-3.55-.17-.13,2.71.6,0a9.2,9.2,0,0,1,2.93.54Zm-7.72,2.35,3.29.16.13-2.72-3.29-.16Z"/></g><g id="Group_1092" data-name="Group 1092"><path id="Path_8926" data-name="Path 8926" class="cls-3" d="M297,310.38s1.7-2,2.85-3.15c.28.09.39.38.38.77l-.24,4.94a19.46,19.46,0,0,1,9,4c4.47-10.37,8.29-6.7,6.94-4A30.42,30.42,0,0,0,310.8,319a25.07,25.07,0,0,1,4.39,13.15l-.32.14a23.68,23.68,0,0,0-5.44-11.08,58.14,58.14,0,0,0-3.55,7.27,70.91,70.91,0,0,0-6.55-2.91l-.27,5.56-.76.17.3-6.07c-2.82-1.12-5.6-2.15-7.14-2.56l1.33-4.24c.28.09.52.31.49,1.1,1.35.51,3.33,1.31,5.49,2.22l.27-5.54c-1.08-.18-2.21-.32-3.32-.42l1.19-4.43c.43.12.62.47.59,1.07.6.08,1.16.18,1.73.29l0-.44Zm2.54,11.74c2.33,1,4.75,2.05,6.63,3,.57-2,1.12-3.78,1.66-5.34a18.49,18.49,0,0,0-8-3.42Z"/></g><g id="Group_1093" data-name="Group 1093"><path id="Path_8927" data-name="Path 8927" class="cls-3" d="M331.31,324.23a27.8,27.8,0,0,0-1.14,23.44A27.72,27.72,0,1,1,274.79,345v0a27.75,27.75,0,0,0,1.14-23.45,27.72,27.72,0,0,1,55.38,2.67Zm-4.87,11.51a.86.86,0,0,1,.09-.35,26.12,26.12,0,1,0-49-13.95v.17a25.88,25.88,0,0,0,2.05,11.49.84.84,0,0,1,0,.71,26.12,26.12,0,1,0,49,13.95v-.17a25.88,25.88,0,0,0-2.05-11.49.72.72,0,0,1-.06-.36Z"/></g><g id="Group_1095" data-name="Group 1095"><g id="Group_1094" data-name="Group 1094"><path id="Path_8928" data-name="Path 8928" class="cls-3" d="M339.13,351.27a3.94,3.94,0,0,1-.14.4c-.07.14-.11.29-.19.46a4.93,4.93,0,0,1-.23.46,2.19,2.19,0,0,1-.26.41.79.79,0,0,1-.91.32l-4.69-1.46a.46.46,0,0,1-.29-.22.84.84,0,0,1-.09-.37,4.6,4.6,0,0,1,.09-.91c.08-.36.18-.72.29-1.07a4,4,0,0,1,1.05-1.85,1.54,1.54,0,0,1,1.55-.27,1.21,1.21,0,0,1,.7.51,1.52,1.52,0,0,1,.26.85,1.75,1.75,0,0,1,.77-.68,1.39,1.39,0,0,1,1,0,1.68,1.68,0,0,1,1.24,1.19A4.18,4.18,0,0,1,339.13,351.27Zm-1.63.21a1.54,1.54,0,0,0,.17-.34,4.29,4.29,0,0,0,.15-.42,1.36,1.36,0,0,0,.05-.72.63.63,0,0,0-.44-.44.56.56,0,0,0-.54.08,1.35,1.35,0,0,0-.35.63l-.25.82Zm-2.45-.76.23-.73a1.06,1.06,0,0,0,0-.68.62.62,0,0,0-.41-.35.55.55,0,0,0-.51.1,1.23,1.23,0,0,0-.37.62l-.09.35a1.55,1.55,0,0,0-.06.31Z"/><path id="Path_8929" data-name="Path 8929" class="cls-3" d="M335,345.18a.91.91,0,0,1-.82-1h0s0-.09,0-.14l.6-3.42a1.16,1.16,0,0,1,.32-.08,1.34,1.34,0,0,1,.4,0,.76.76,0,0,1,.53.27.58.58,0,0,1,.09.48l-.38,2.19,1,.17.41-2.33a1.16,1.16,0,0,1,.32-.08,1.08,1.08,0,0,1,.4,0,.79.79,0,0,1,.53.26.68.68,0,0,1,.09.48l-.34,1.91,1.09.19.47-2.67a1.67,1.67,0,0,1,.32-.08,1.33,1.33,0,0,1,.4,0,.81.81,0,0,1,.54.27.58.58,0,0,1,.09.48l-.53,3a.92.92,0,0,1-1,.82l-.14,0Z"/><path id="Path_8930" data-name="Path 8930" class="cls-3" d="M336,339a.91.91,0,0,1-.93-.89h0c0-.05,0-.1,0-.15l.22-3.46a1.66,1.66,0,0,1,.31-.12,1.35,1.35,0,0,1,.4,0,.73.73,0,0,1,.56.21.6.6,0,0,1,.14.46l-.14,2.23,1,.06.14-2.36a1.15,1.15,0,0,1,.31-.11,1.33,1.33,0,0,1,.4,0,.75.75,0,0,1,.55.2.64.64,0,0,1,.15.46l-.12,1.93,1.1.07.16-2.7a1.21,1.21,0,0,1,.32-.11,1.75,1.75,0,0,1,.4,0,.83.83,0,0,1,.56.21.61.61,0,0,1,.14.47l-.17,3.07a.91.91,0,0,1-.89.93h-.16Z"/><path id="Path_8931" data-name="Path 8931" class="cls-3" d="M339.5,330.58l2-.13a2.14,2.14,0,0,1,.09.34,4.1,4.1,0,0,1,.06.49,2.06,2.06,0,0,1,0,.43.68.68,0,0,1-.11.31.55.55,0,0,1-.25.2,1.12,1.12,0,0,1-.44.09l-4.94.32a.44.44,0,0,1-.35-.1.74.74,0,0,1-.22-.32,3.75,3.75,0,0,1-.23-.81,6.8,6.8,0,0,1-.13-1,3.39,3.39,0,0,1,.47-2.22,2,2,0,0,1,1.61-.84,1.81,1.81,0,0,1,1.13.27,2.3,2.3,0,0,1,.77.75c.33-.28.63-.55.92-.81a7.68,7.68,0,0,1,.78-.63,1,1,0,0,1,.59.35,1,1,0,0,1,.23.61,1.13,1.13,0,0,1,0,.41,1.08,1.08,0,0,1-.13.29,1.21,1.21,0,0,1-.21.24,3.15,3.15,0,0,1-.29.22l-1.36,1Zm-1.43-.58a.91.91,0,0,0-.25-.61.71.71,0,0,0-.62-.19.7.7,0,0,0-.59.29,1.32,1.32,0,0,0-.15.83,2.42,2.42,0,0,0,0,.25,1.77,1.77,0,0,0,0,.2l1.58-.1Z"/><path id="Path_8932" data-name="Path 8932" class="cls-3" d="M337.61,319.62a2.7,2.7,0,0,1,1.06,0,2.09,2.09,0,0,1,.89.39,2.43,2.43,0,0,1,.68.78,4,4,0,0,1,.48,2.33,2.53,2.53,0,0,1-.33,1,2.24,2.24,0,0,1-.67.7,2.54,2.54,0,0,1-1,.39l-3.95.8-.12-.36a2.52,2.52,0,0,1-.13-.47,1.51,1.51,0,0,1-.05-.42.75.75,0,0,1,.06-.33.64.64,0,0,1,.22-.24,1.62,1.62,0,0,1,.42-.15l3.15-.64a1,1,0,0,0,.72-.43,1.06,1.06,0,0,0-.29-1.42,1.12,1.12,0,0,0-.82-.11l-3.91.8c0-.08-.08-.19-.13-.36a2.52,2.52,0,0,1-.13-.47,2,2,0,0,1-.05-.42.72.72,0,0,1,.07-.33.47.47,0,0,1,.22-.24,1.06,1.06,0,0,1,.42-.15Z"/></g></g><circle id="Ellipse_83" data-name="Ellipse 83" class="cls-3" cx="333.92" cy="357.09" r="1.82"/><circle id="Ellipse_84" data-name="Ellipse 84" class="cls-3" cx="335.99" cy="314.64" r="1.82"/></g></g></g></g></g></g></svg>