<?xml version="1.0" encoding="utf-8"?>
<!-- Generator: Adobe Illustrator 25.2.1, SVG Export Plug-In . SVG Version: 6.00 Build 0)  -->
<svg version="1.1" id="圖層_1" xmlns="http://www.w3.org/2000/svg" xmlns:xlink="http://www.w3.org/1999/xlink" x="0px" y="0px"
	 viewBox="0 0 218.6 241.1" style="enable-background:new 0 0 218.6 241.1;" xml:space="preserve">
<style type="text/css">
	.st0{fill:#FFFFFF;}
	.st1{fill:#FFFFFF;stroke:#000000;stroke-width:0.599;stroke-miterlimit:10;}
	.st2{fill:#FFFFFF;stroke:#FFFFFF;stroke-width:0.599;stroke-miterlimit:10;}
	.st3{fill:#163D50;}
</style>
<g id="Group_6379" transform="translate(-1.583 36.586)">
	<g id="Group_6377" transform="matrix(-0.891, -0.454, 0.454, -0.891, 112.932, 179.7)">
		<g id="Group_6311" transform="translate(23.938 76.115)">
			<path id="Path_30381" class="st0" d="M31.2,5.3c3,1.7,6.2,4.3,7.8,7.4c0.6,1.2,0.1,2.5-0.3,3.7c-1.1,3.1-2.6,6.1-3.8,9.2
				c-0.1,0.3-0.4,0.5-0.7,0.4c-4.2-0.8-7.7-3.1-11.5-5C18.2,18.6,13,15.3,8,14.5c-0.4-0.1-0.6-0.3-0.7-0.7c-0.6-4.2,1.7-7.6,3-11.4
				C12-2.7,13.5-8,15.9-12.9c4.3-8.9,16.4-3.4,23.1-2.7c0.9,0.1,0.7,1.5-0.2,1.4c-3.9-0.4-7.8-1.2-11.6-2.3
				c-2.5-0.7-6.3,1.1-8.4,2.5c-1.7,1.2-2.3,3.8-3.1,5.6C14-4.4,12.8-0.1,11.4,4.1C10.7,6.3,9.6,8.2,9,10.4c-0.7,2.5,1.1,2.7,2.9,3.4
				c3.4,1.2,6.3,3.5,9.5,4.8C25,20.1,28,22.4,31.5,24c3.1,1.4,3.1-1.9,3.9-4.3c0.7-2,2.9-4.2,2.2-6.4c-1-3-4.7-5.1-6.9-7.2
				C30.3,5.8,30.7,5,31.2,5.3L31.2,5.3z"/>
		</g>
		<g id="Group_6312" transform="translate(45.433 61.041)">
			<path id="Path_30382" class="st0" d="M20.6,2.2c-3.1-1.6-5.9-3.7-8.3-6.2c-2.7-2.8-5.8-5.3-7.7-8.7c-0.2-0.4,0-0.8,0.4-1
				c0,0,0,0,0,0c1.7-0.6,3.4-1.3,5-2.2c0.6-0.3,1.3,0.7,0.6,1.1c-1.6,1-3.3,1.8-5.1,2.4l0.3-1.1c1.9,3,4.5,5.2,6.9,7.7
				c2.5,2.7,5.8,4.9,8,7.8C20.8,2.1,20.8,2.1,20.6,2.2C20.7,2.2,20.7,2.2,20.6,2.2L20.6,2.2z"/>
		</g>
		<g id="Group_6313" transform="translate(41.054 33.45)">
			<path id="Path_30383" class="st0" d="M14.5,12.5c-2.8-0.6-7.1-1-7.1-4.7c0.1-2.6,0.5-5.1,1.1-7.6c0.6-2.8,1.5-4.9-0.4-7.7
				c-0.9-1.3-2-2.5-3-3.8c-0.6-0.8,0.7-1.8,1.2-0.9c2.7,4.5,5.1,5.9,3.8,11.4C9.8,1.5,9.2,3.7,8.8,6c-0.7,4.6,3.2,4.4,5.9,5.6
				C15.2,11.9,15,12.6,14.5,12.5L14.5,12.5z"/>
		</g>
		<g id="Group_6314" transform="translate(39.872 29.505)">
			<path id="Path_30384" class="st0" d="M5.4-7.8c1.6-1.7,4.2-2.6,6.4-3.2c2.4-0.6,6.4-1.9,8.7-0.6c0.3,0.1,0.5,0.5,0.3,0.8
				c-0.1,0.1-0.2,0.3-0.3,0.3c-2.1,0.7-4.7,0.4-6.9,0.8C11-9,8.5-8.1,6.1-6.8C5.6-6.6,5-7.3,5.4-7.8z"/>
		</g>
		<g id="Group_6315" transform="translate(56.184 17.145)">
			<path id="Path_30385" class="st0" d="M3.7,4.2C3,1,3.2-2.8,3.4-6.1c0.1-1.2,0.4-4.2,2.1-4.3c3.1-0.3,6.5,0.2,9.7,0.1
				c2,0,4.3-0.5,6.1,0.6c1.4,0.9,1,5,1.2,6.3c0.2,1.5,1,6.3-0.6,7.4c-1.5,1.1-3.3,0.9-5.1,0.7C12.7,4.4,8.5,4.6,4.3,4.5
				c-0.9,0-0.7-1.4,0.2-1.3c4.5,0,8.8-0.4,13.2,0.2c3.6,0.5,3.7-2.3,3.4-5.3c-0.1-1.1-0.2-6.5-1.7-6.8c-1.3-0.3-4,0.1-5.3,0.1
				c-2.2,0-4.4,0-6.6-0.1C3.5-9,4.7,1.6,4.6,4.2C4.6,4.7,3.8,4.6,3.7,4.2L3.7,4.2z"/>
		</g>
		<g id="Group_6316" transform="translate(60.522 20.579)">
			<path id="Path_30386" class="st0" d="M2.8-2.1C2.5-3.7,2.8-5.3,2.7-7C2.7-7.9,2.8-8.8,3-9.7c0.6-1.6,3.5-1.2,4.7-1.1
				c1.5,0.1,5.2-0.6,6.1,1.2c1.1,2.2-0.1,5.7-1.1,7.8c-0.1,0.2-0.3,0.1-0.3-0.1c0.2-1.7,0.4-3.4,0.4-5.1c0.3-3.1-3-2.3-4.9-2.4
				c-0.7,0-1.3-0.1-2-0.2c-1.9-0.2-2.3,1-2.2,2.4c0.1,1.7-0.1,3.3-0.5,5c0,0.1-0.2,0.2-0.3,0.2C2.9-2,2.8-2,2.8-2.1L2.8-2.1z"/>
		</g>
		<g id="Group_6317" transform="translate(60.79 24.607)">
			<path id="Path_30387" class="st0" d="M2.7-6.3c2-0.9,4.7-0.3,6.9-0.2c0.7,0.1,1.5,0,2.2-0.1c0.9-0.1,0.7-1.5,0.8-2.2
				c0.2-0.9,0.4-1.8,0.8-2.6c0.1-0.1,0.2-0.2,0.4-0.1c0.1,0,0.1,0.1,0.2,0.2c0.1,1.4-0.5,2.9-0.8,4.3c0,0.5-0.3,1-0.8,1.2
				c-1.1,0.5-2.6,0.2-3.8,0.2c-2,0-4-0.1-5.9-0.4C2.7-5.9,2.6-6,2.6-6.1C2.6-6.2,2.7-6.2,2.7-6.3z"/>
		</g>
		<g id="Group_6318" transform="translate(60.576 25.338)">
			<path id="Path_30388" class="st0" d="M3.3-11.4c1.1,0,2.1,0,3.2,0c0.8,0,1.8-0.4,2.5,0.1c0.2,0.1,0.2,0.4,0.1,0.6
				c-0.5,0.7-1.6,0.6-2.4,0.6c-1.2,0.1-2.3,0-3.5-0.2C2.4-10.4,2.6-11.4,3.3-11.4z"/>
		</g>
		<g id="Group_6319" transform="translate(36.354 20.46)">
			<path id="Path_30389" class="st0" d="M8.7,2c-0.5-1.1-3.3-3.8-3-5.2C6-5,7.6-5.7,9.1-6.5c2.8-1.5,5.9-2.7,9-3.5
				c2.1-0.5,4.4-1.3,6.5-0.6c0.8,0.3,0.4,1.5-0.4,1.4c-3.8-0.6-8,1.1-11.4,2.6c-1.2,0.5-6.8,2.2-5,4.6C8.6-1,9.3,0.2,9.8,1.6
				c0.1,0.3-0.1,0.6-0.4,0.7C9.2,2.4,8.9,2.3,8.7,2L8.7,2z"/>
		</g>
		<g id="Group_6320" transform="translate(75.771 19.373)">
			<path id="Path_30390" class="st0" d="M2.4-0.1c2.5-0.5,5,0.9,7.3,1.6c1.4,0.4,2.9,1.7,3.9-0.2c0.5-1.1,1.1-2.1,1.7-3.1
				c1.5-2-5.4-5.6-6.3-5.8C7.9-7.9,6.8-8.4,5.7-8.8C4.1-9.3,2.5-9.3,1-9.8c-0.2-0.1-0.3-0.3-0.2-0.5c0-0.1,0.1-0.2,0.2-0.2
				c1.6-0.5,2.7,0,4.1,0.6c1.8,0.8,3.8,1.3,5.6,2c2.4,1,5.8,2.4,6.3,5.4c0.2,1.1-1.5,3.1-1.9,3.7c-0.4,0.8-1,2.2-1.9,2.6
				C12.3,4.2,11,3.3,10.2,3C7.6,2.1,5,1.3,2.4,0.6c-0.2,0-0.3-0.2-0.3-0.4C2.1,0.1,2.3,0,2.4-0.1z"/>
		</g>
		<g id="Group_6321" transform="translate(0 1.471)">
			<path id="Path_30391" class="st0" d="M43.2,17.9c-4.6-1.3-10.7,0.6-15.4,1.4c-4.4,0.8-8.6,2.1-13,0.9C7,18.2,10.7,9.9,14.8,5.9
				c4-3.9,9-6.5,13.6-9.6c4.1-2.9,9-4.6,14-4.8c5.3-0.2,11,1.2,16.1,2.6c5,1.3,8.6,4.6,12.9,7.3c0.5,0.3,0,1.2-0.6,0.9
				c-3.7-1.6-6.6-4.4-10.4-5.8C56.3-5.2,51.5-5.7,47-6.3C36.2-7.7,28.1-1.4,19.6,4.3c-3.3,2.2-8.9,7.2-7.5,11.8
				c1.2,4,8.3,2.9,11.1,2.4c4.1-0.7,8.2-1.3,12.3-2.1c2.7-0.5,5.6-1.2,8.2,0.1C44.4,16.8,44.1,18.2,43.2,17.9L43.2,17.9z"/>
		</g>
		<g id="Group_6322" transform="translate(64.383 3.488)">
			<path id="Path_30392" class="st0" d="M2.3-3.1C7.7,0.4,13.8,2.1,20-0.3c4.6-1.8,8.7-5,13.2-7c8.2-3.6,14.3-0.2,19.2,6.5
				c3.8,5.3,7.1,12.8,0.7,17.4c-8.3,5.8-17.4-2.7-26.3-0.2c-0.8,0.2-1.4-1-0.5-1.3c6.9-2.4,13.5,1.6,20.4,1.5c2.2-0.2,4.3-1,6-2.3
				c3.2-2.3,2.2-6,1-9c-1.5-4-4.1-7.5-7.4-10.1c-8-6.2-18.3,3-25.5,6.3C14.3,4.4,6.9,1.8,2.2-3C2.2-3,2.2-3,2.3-3.1
				C2.2-3.1,2.3-3.1,2.3-3.1z"/>
		</g>
		<g id="Group_6323" transform="translate(33.815 0)">
			<path id="Path_30393" class="st0" d="M6.3-6.7C19.2-11.1,33-5.4,46.1-5.5c6.5,0,12.7-2.1,19.2-2.1c6,0,9.2,2.6,13.8,6
				c0.4,0.3-0.1,0.9-0.5,0.6C73.2-4.3,68.2-6,61.7-5.5c-5.8,0.5-11.2,2-17.1,1.8C31.8-4,19.4-8.2,6.5-5.8C6.3-5.8,6-6,6-6.3
				C6-6.4,6.1-6.6,6.3-6.7z"/>
		</g>
		<g id="Group_6324" transform="translate(37.321 104.491)">
			<path id="Path_30394" class="st0" d="M19-21.5c4.6,2.1,4,7.5,1.1,10.7c-1.3,1.5-3.6,0.5-5.1-0.1C12-12,8.5-13,5.8-14.8
				c-0.5-0.4,0-1.2,0.6-0.9c3.4,1.3,6.7,2.7,10,4.1c2.8,1.1,3.9-1.1,4.6-3.3C22-17.6,20.2-19.2,19-21.5C18.9-21.4,19-21.5,19-21.5
				L19-21.5z"/>
		</g>
		<g id="Group_6325" transform="translate(35.895 34.384)">
			<path id="Path_30395" class="st0" d="M8,57.5c-2.4-1.9-2.5-5.7-2.1-8.5c0.5-3.4,3.8-6,6.8-7.2c4.3-1.8,9.5-0.3,13.8,0.4
				c6.1,0.9,12.1,2,18.2,1.1c1.8-0.3,3.6-0.8,5.3-1.6c4-1.9,2.6-5.5,1.4-8.8c-2.1-6-5.2-11.6-8.2-17.2c-2.3-4.3-3.9-9.2-2.4-14.1
				c1.6-5.3,7.3-9.4,10.2-13.9c0.3-0.5,1.2,0,0.9,0.6c-2.6,4.7-6.7,8.3-9.2,13c-3.3,6.2,1.8,13.6,4.7,18.9c2.6,4.8,5.3,9.7,6.7,15.1
				c0.8,3,0.6,5.3-2,7.3c-5.6,4.4-15.6,3-21.9,2c-5.4-0.9-11.6-2.8-17-1.2c-7.2,2.1-6.4,8.6-5.1,14.2C8.2,57.5,8.1,57.6,8,57.5
				L8,57.5z"/>
		</g>
		<g id="Group_6326" transform="translate(47.698 36.685)">
			<path id="Path_30396" class="st0" d="M6.9,2.6c0.3-2.4,0.2-4.8-0.1-7.2c-0.4-2.8-1.7-5.3-2.5-8c-0.1-0.2,0.2-0.5,0.4-0.2
				c3,4.2,4.4,10.6,2.5,15.5C7.1,2.8,6.9,2.7,6.9,2.6z"/>
		</g>
		<g id="Group_6327" transform="translate(45.848 31.698)">
			<path id="Path_30397" class="st0" d="M5.4-9.9C5.3-10,5.2-10.1,5-10.2c-0.1-0.1-0.2-0.3-0.3-0.4c-0.2-0.4-0.3-0.8-0.3-1.2
				c0-0.6,0.9-0.8,1-0.1c0,0.4,0.1,0.7,0.2,1c0.1,0.3,0,0.5,0.1,0.8C5.8-9.9,5.5-9.7,5.4-9.9L5.4-9.9z"/>
		</g>
		<g id="Group_6328" transform="translate(66.068 41.913)">
			<path id="Path_30398" class="st0" d="M2-8C2-8.9,2.2-9.7,2.4-10.5c0.3-1,0.4-2,0.7-3c0.1-0.3,0.4-0.1,0.5,0.1
				C4-11.6,2.8-9.6,2.1-8C2.1-8,2-8,2-8C2-8,2-8,2-8z"/>
		</g>
		<g id="Group_6329" transform="translate(68.201 33.239)">
			<path id="Path_30399" class="st0" d="M1.7-9.1c-0.1-1,0.1-2,0.3-3c0-0.3,0.3-0.5,0.6-0.5c0.3,0,0.5,0.3,0.5,0.6
				c-0.2,1-0.4,2-0.7,2.9C2.3-8.8,2.1-8.7,1.9-8.8C1.8-8.9,1.7-9,1.7-9.1z"/>
		</g>
		<g id="Group_6330" transform="translate(79.284 32.324)">
			<path id="Path_30400" class="st0" d="M0.3-7.3C0.4-8.2,0.7-9,1.2-9.8c0.3-0.5,0.5-1.1,0.7-1.7c0.1-0.4,0-0.7,0.4-0.9
				c0.1,0,0.2,0,0.2,0l0.1,0.1c0.1,0.1,0.2,0.2,0.2,0.4c-0.2,1.8-1.3,3.3-2.3,4.7C0.4-7,0.3-7.1,0.3-7.3L0.3-7.3z"/>
		</g>
		<g id="Group_6331" transform="translate(73.355 76.91)">
			<path id="Path_30401" class="st0" d="M1.1-2.4c3.7-0.9,7.9-2,8.7-6.4c0.6-3-1.9-6.2-2.6-9.1c0-0.2,0.2-0.2,0.3-0.1
				c2.4,3.2,4.4,7.2,2.9,11.2c-1.3,3.5-6,4.6-9.3,4.6C1-2.2,1-2.4,1.1-2.4z"/>
		</g>
		<g id="Group_6332" transform="translate(78.93 72.62)">
			<path id="Path_30402" class="st0" d="M1.2-15.2c-0.2-0.3-0.4-0.6-0.6-0.9c-0.2-0.3-0.3-0.8-0.2-1.1c0-0.1,0.1-0.2,0.3-0.2
				c0,0,0.1,0,0.1,0c0.3,0.2,0.4,0.5,0.5,0.8c0.1,0.4,0.2,0.8,0.3,1.1C1.7-15.2,1.3-14.9,1.2-15.2L1.2-15.2z"/>
		</g>
		<g id="Group_6333" transform="translate(32.652 79.652)">
			<path id="Path_30403" class="st0" d="M6.1-4.3C6.4-6,6.8-7.6,7.5-9.2c0.7-2,1.5-4,2.4-5.9c1.2-2.1,4.2-3.3,6.5-3.2
				c0.4,0,0.4,0.5,0.1,0.7c-2.9,1.4-5.3,1.3-6.6,4.9c-1,2.9-2.4,5.7-3.3,8.7C6.5-3.9,6.1-4,6.1-4.3L6.1-4.3z"/>
		</g>
		<g id="Group_6334" transform="translate(48.403 79.527)">
			<path id="Path_30404" class="st0" d="M4.2-17.9c0.1-0.1,0.3-0.2,0.4-0.3c0.2-0.1,0.4-0.1,0.6-0.1c0.4-0.1,0.9,0,1.2,0.3
				c0.2,0.2,0,0.5-0.2,0.5c-0.4,0-0.7,0-1.1,0c-0.2,0-0.3,0-0.5,0c-0.2,0-0.3-0.2-0.5-0.2C4.2-17.7,4.2-17.8,4.2-17.9
				C4.2-17.8,4.2-17.8,4.2-17.9z"/>
		</g>
		<g id="Group_6335" transform="translate(5.724 23.557)">
			<path id="Path_30405" class="st0" d="M9.9-11.3c0.7,7.1,12,2.7,16.5,3.7c0.1,0,0.2,0.2,0.2,0.3c0,0.1-0.1,0.2-0.2,0.2
				C23.6-6.7,7.1-3.5,9.9-11.3C9.8-11.3,9.9-11.3,9.9-11.3C9.9-11.3,9.9-11.3,9.9-11.3z"/>
		</g>
		<g id="Group_6336" transform="translate(29.372 26.541)">
			<path id="Path_30406" class="st0" d="M6.8-11.1c0.6-0.3,1.2-0.5,1.9-0.6c0.2,0,0.4,0.1,0.5,0.4c0,0.2-0.1,0.4-0.4,0.5
				c-0.6,0.1-1.1,0.3-1.7,0.4c-0.2,0.1-0.4,0-0.5-0.2C6.5-10.8,6.6-11,6.8-11.1z"/>
		</g>
		<g id="Group_6337" transform="translate(21.448 6.368)">
			<path id="Path_30407" class="st0" d="M7.6-4c6.8-4,16.3-7,23.9-4c0.1,0,0.1,0.1,0.1,0.2c0,0.1-0.1,0.1-0.1,0.1
				c-8.6-1.5-15.8,1-23.7,4C7.6-3.6,7.5-3.9,7.6-4L7.6-4z"/>
		</g>
		<g id="Group_6338" transform="translate(51.065 7.734)">
			<path id="Path_30408" class="st0" d="M3.9-9.1c0.4-0.4,1-0.4,1.4,0C5.4-9,5.5-8.9,5.5-8.8c0.1,0.1,0,0.3-0.2,0.4c0,0-0.1,0-0.1,0
				c-0.4,0-0.8-0.1-1.2-0.2c-0.1,0-0.2-0.2-0.2-0.3C3.8-9,3.9-9,3.9-9.1z"/>
		</g>
		<g id="Group_6339" transform="translate(113.999 9.65)">
			<path id="Path_30409" class="st0" d="M-1.6,8.4c0.7-1.1,1.6-2.1,2.3-3.3C1.6,3.6,1.1,1,0.9-0.7C0.7-4.1-1.8-6.9-4-9.3
				c-0.1-0.1,0.1-0.3,0.2-0.2C2.1-5.9,5.3,4.1-1.6,8.4C-1.6,8.4-1.6,8.4-1.6,8.4C-1.6,8.4-1.6,8.4-1.6,8.4L-1.6,8.4z"/>
		</g>
		<g id="Group_6340" transform="translate(109.212 7.43)">
			<path id="Path_30410" class="st0" d="M-1.1-8.1c-0.7-0.3-1.4-0.5-2.2-0.6c-0.1,0-0.1,0-0.1-0.1c0,0,0-0.1,0.1-0.1
				c0.9-0.4,2.2-0.6,2.6,0.4C-0.6-8.3-0.9-8.1-1.1-8.1L-1.1-8.1z"/>
		</g>
		<g id="Group_6341" transform="translate(23.232 18.455)">
			<path id="Path_30411" class="st0" d="M7.9-9.5c-0.4-0.2-0.7-0.7-0.5-1.1c0-0.1,0.1-0.1,0.2,0c0,0,0,0,0,0c0.3,0.3,0.3,0.7,0.4,1
				C8.1-9.5,8-9.5,7.9-9.5C8-9.5,7.9-9.5,7.9-9.5L7.9-9.5z"/>
		</g>
		<g id="Group_6342" transform="translate(24.339 17.296)">
			<path id="Path_30412" class="st0" d="M7.3-9.7c-0.1-0.2-0.2-0.5-0.1-0.8c0-0.1,0.1-0.1,0.1-0.1c0,0,0.1,0,0.1,0.1
				c0.1,0.2,0.1,0.5,0.1,0.8C7.5-9.6,7.5-9.6,7.3-9.7C7.4-9.6,7.3-9.6,7.3-9.7L7.3-9.7L7.3-9.7z"/>
		</g>
		<g id="Group_6343" transform="translate(45.793 12.882)">
			<path id="Path_30413" class="st0" d="M4.6-9.6c0.3-0.2,0.9-0.6,1.3-0.3C6-9.8,6-9.7,5.9-9.6C5.6-9.3,5.2-9.1,4.7-9.1
				C4.5-9.1,4.4-9.4,4.6-9.6z"/>
		</g>
		<g id="Group_6344" transform="translate(96.829 20.845)">
			<path id="Path_30414" class="st0" d="M-0.1-9.2c-0.8-0.3-1.7-0.6-1.8-1.5c0-0.1,0.1-0.2,0.2-0.2c0,0,0.1,0,0.1,0
				c0.6,0.5,1.2,1,1.7,1.5C0.2-9.4,0.1-9.2-0.1-9.2z"/>
		</g>
		<g id="Group_6345" transform="translate(97.428 19.026)">
			<path id="Path_30415" class="st0" d="M-1.4-9.5c-0.3-0.3-0.6-0.7-0.5-1.2c0-0.1,0.1-0.1,0.2-0.1c0,0,0,0,0.1,0
				c0.1,0.1,0.1,0.2,0.2,0.4c0.1,0.2,0.2,0.4,0.4,0.6C-0.9-9.5-1.3-9.3-1.4-9.5z"/>
		</g>
		<g id="Group_6346" transform="translate(103.62 26.868)">
			<path id="Path_30416" class="st0" d="M-2.7-11.7c0.4-0.1,0.9,0,1.3,0.1c0.4,0.1,0.9,0.3,1.2,0.5c0,0,0.1,0.1,0,0.2c0,0,0,0-0.1,0
				c-0.4,0-0.7-0.1-1-0.3C-1.7-11.4-2.2-11.6-2.7-11.7C-2.7-11.6-2.7-11.6-2.7-11.7C-2.7-11.7-2.7-11.7-2.7-11.7L-2.7-11.7z"/>
		</g>
		<g id="Group_6347" transform="translate(53.977 64.289)">
			<path id="Path_30417" class="st0" d="M3.6-15.4c0.5-0.4,1.7-1.3,2.3-0.8c0.1,0.1,0.1,0.2,0,0.2c0,0,0,0,0,0
				c-0.3,0.2-0.7,0.2-1,0.3c-0.4,0.2-0.7,0.4-1,0.6C3.6-15,3.3-15.3,3.6-15.4L3.6-15.4z"/>
		</g>
		<g id="Group_6348" transform="translate(54.511 62.103)">
			<path id="Path_30418" class="st0" d="M3.5-15.7c0.4-0.2,1.1-0.5,1.5-0.3c0.1,0,0.1,0.2,0.1,0.3c0,0,0,0.1-0.1,0.1
				c-0.1,0.1-0.3,0.2-0.5,0.2c-0.3,0-0.5,0.1-0.8,0.3C3.6-15.1,3.2-15.6,3.5-15.7z"/>
		</g>
		<g id="Group_6349" transform="translate(101.965 9.55)">
			<path id="Path_30419" class="st0" d="M-2.3-9.5c0.5-0.1,1,0,1.4,0.3c0,0.1,0,0.2,0,0.2C-1-9-1-9-1-9c-0.4,0-0.8,0-1.2,0
				c-0.1,0-0.3-0.1-0.3-0.2C-2.6-9.4-2.5-9.5-2.3-9.5C-2.3-9.5-2.3-9.5-2.3-9.5L-2.3-9.5z"/>
		</g>
		<g id="Group_6350" transform="translate(62.748 3.24)">
			<path id="Path_30420" class="st0" d="M2.6-6.3c0-0.8-0.1-1.5-0.3-2.3c0-0.1,0.1-0.2,0.1-0.2c0,0,0.1,0,0.1,0
				c0.7,0.6,0.7,1.7,0.6,2.5C3.2-6.1,3-6,2.9-6C2.7-6,2.6-6.2,2.6-6.3L2.6-6.3z"/>
		</g>
		<g id="Group_6351" transform="translate(89.999 2.765)">
			<path id="Path_30421" class="st0" d="M-1-5.3C-0.9-5.9-0.7-6.5-0.4-7c0.3-0.5,0.4-1.1,0.7-1.6c0.1-0.1,0.1-0.1,0.2,0
				c0,0,0,0,0,0.1C0.9-7.4-0.4-6.2-1-5.3C-1-5.2-1.1-5.3-1-5.3L-1-5.3z"/>
		</g>
		<g id="Group_6352" transform="translate(76.005 8.458)">
			<path id="Path_30422" class="st0" d="M0.9-8C0.8-8.5,0.7-8.9,0.7-9.4c0,0,0-0.1,0.1,0c0,0,0,0,0,0C1-8.9,1-8.5,1-8C1-8,1-8,0.9-8
				C0.9-8,0.9-8,0.9-8L0.9-8z"/>
		</g>
		<g id="Group_6353" transform="translate(77.294 8.369)">
			<path id="Path_30423" class="st0" d="M0.6-8.7c0-0.2-0.1-0.5,0.2-0.7c0.1-0.1,0.2,0,0.3,0c0,0,0,0.1,0,0.1c0,0.2,0,0.3,0,0.5
				c0,0.1-0.1,0.2-0.2,0.2C0.7-8.5,0.6-8.6,0.6-8.7z"/>
		</g>
		<g id="Group_6354" transform="translate(95.454 4.959)">
			<path id="Path_30424" class="st0" d="M-1.7-9c0.1,0,0.2,0,0.3,0c0,0,0,0,0,0s0,0,0,0l-0.3,0.1C-1.7-8.8-1.8-8.9-1.7-9z"/>
		</g>
		<g id="Group_6355" transform="translate(59.93 86.506)">
			<path id="Path_30425" class="st0" d="M2.8-16.6c0.8-0.6,1-1.7,1.3-2.5c0-0.1,0.1-0.1,0.2-0.1c0,0,0.1,0.1,0.1,0.1
				C4.6-18,4-16.9,3.1-16.3C2.8-16.1,2.6-16.4,2.8-16.6L2.8-16.6z"/>
		</g>
		<g id="Group_6356" transform="translate(62.572 86.224)">
			<path id="Path_30426" class="st0" d="M2.4-17.6c0.1-0.2,0.3-0.5,0.3-0.8c0.1-0.2,0.2-0.5,0.2-0.7c0-0.1,0.2-0.1,0.2,0
				c0,0.3,0,0.5-0.1,0.8C3-18,2.8-17.7,2.6-17.5C2.5-17.4,2.3-17.5,2.4-17.6L2.4-17.6z"/>
		</g>
		<g id="Group_6357" transform="translate(29.909 106.943)">
			<path id="Path_30427" class="st0" d="M6.7-21.7c0.2,0.2,0.4,0.5,0.7,0.8c0.3,0.2,0.5,0.5,0.7,0.7c0,0.1,0,0.1,0,0.2
				c0,0-0.1,0-0.1,0c-0.7-0.3-1.3-0.8-1.5-1.6C6.5-21.7,6.6-21.8,6.7-21.7z"/>
		</g>
		<g id="Group_6358" transform="translate(31.089 105.867)">
			<path id="Path_30428" class="st0" d="M6.5-21.6c0.4,0.1,0.8,0.4,1.1,0.6c0,0.1,0,0.2,0,0.2c0,0,0,0,0,0c-0.5,0.3-1-0.2-1.2-0.7
				C6.3-21.5,6.4-21.7,6.5-21.6z"/>
		</g>
		<g id="Group_6359" transform="translate(44.352 116.108)">
			<path id="Path_30429" class="st0" d="M4.8-22c2,1.1,4.2,1.8,6.5,1.9c1.7,0,2.3-1.9,3.6-2.8c0.1-0.1,0.2,0,0.2,0
				c0,0.1,0,0.1,0,0.2c-0.9,1.5-2,2.8-3.8,3.1c-2.4,0.3-4.7-1.1-6.7-2.2C4.6-21.9,4.7-22,4.8-22L4.8-22z"/>
		</g>
		<g id="Group_6360" transform="translate(55.628 106.184)">
			<path id="Path_30430" class="st0" d="M4.2-14.3c0-1.1,0-2.3,0-3.4c-0.1-1.3-0.4-2.6-1-3.8c0-0.1,0-0.1,0.1-0.1c0,0,0.1,0,0.1,0
				C5.3-19.6,5.1-16.8,4.2-14.3C4.3-14.3,4.3-14.3,4.2-14.3C4.2-14.3,4.2-14.3,4.2-14.3L4.2-14.3z"/>
		</g>
		<g id="Group_6361" transform="translate(72.338 57.452)">
			<path id="Path_30431" class="st0" d="M2-14.2c-0.3,0-0.5-0.2-0.7-0.4c-0.2-0.3-0.2-0.6-0.1-0.9c0.1-0.1,0.2-0.1,0.2,0
				c0.4,0.2,0.4,0.8,0.6,1.1C2.2-14.4,2.2-14.3,2-14.2C2.1-14.2,2.1-14.2,2-14.2z"/>
		</g>
		<g id="Group_6362" transform="translate(72.715 55.477)">
			<path id="Path_30432" class="st0" d="M1.4-14.4c-0.3-0.1-0.4-0.4-0.3-0.7c0-0.1,0.1-0.2,0.2-0.2c0.1,0,0.1,0.1,0.2,0.1
				c0.1,0.2,0.1,0.3,0.2,0.5C1.8-14.5,1.6-14.3,1.4-14.4L1.4-14.4z"/>
		</g>
		<g id="Group_6363" transform="translate(40.646 26.811)">
			<path id="Path_30433" class="st0" d="M5.2-9.4c2.4-1.5,5.3-2.3,8.2-2.3c0.1,0,0.1,0.1,0.1,0.2c0,0.1,0,0.1-0.1,0.1
				c-2.7,0.9-5.5,1.1-8.1,2.2C5.2-9.2,5.1-9.3,5.2-9.4z"/>
		</g>
		<g id="Group_6364" transform="translate(52.141 25.632)">
			<path id="Path_30434" class="st0" d="M3.7-10.9c1.3-0.4,3.2-1.1,4.6-0.5c0.1,0,0.1,0.2,0.1,0.3C8.4-11,8.4-11,8.3-11
				c-0.7,0.1-1.4,0-2.1,0.1c-0.8,0.1-1.6,0.1-2.4,0.1C3.7-10.8,3.7-10.8,3.7-10.9z"/>
		</g>
		<g id="Group_6365" transform="translate(77.44 25.139)">
			<path id="Path_30435" class="st0" d="M10-7.1c-1.4-1-3-1.9-4.6-2.6c-1.5-0.7-3.1-0.7-4.7-1.2c-0.3-0.1-0.3-0.7,0.1-0.7
				c3.4-0.1,6.8,2.3,9.3,4.3C10.1-7.2,10.2-7.1,10-7.1C10.1-7,10.1-7,10-7.1L10-7.1z"/>
		</g>
		<g id="Group_6366" transform="translate(74.344 29.146)">
			<path id="Path_30436" class="st0" d="M1.7-10.7c-0.3-0.2-0.9-0.8-0.7-1.2C1-12,1.1-12,1.1-12c0,0,0,0,0,0
				c0.1,0.1,0.2,0.2,0.2,0.4c0.1,0.3,0.3,0.5,0.5,0.7C1.9-10.8,1.8-10.6,1.7-10.7L1.7-10.7z"/>
		</g>
		<g id="Group_6367" transform="translate(74.875 28.167)">
			<path id="Path_30437" class="st0" d="M1-11.2c-0.1-0.2-0.2-0.4-0.2-0.6c0-0.1,0.1-0.1,0.1-0.1c0,0,0.1,0,0.1,0.1
				c0.1,0.2,0.1,0.3,0.2,0.5S1.1-11.1,1-11.2z"/>
		</g>
		<g id="Group_6368" transform="translate(58.904 22.815)">
			<path id="Path_30438" class="st0" d="M3-10.5c-0.1-0.2-0.1-0.5,0-0.7c0,0,0.1,0,0.1,0c0.2,0.2,0.2,0.5,0.2,0.7
				c0,0.1-0.1,0.1-0.2,0.1C3-10.4,3-10.4,3-10.5z"/>
		</g>
		<g id="Group_6369" transform="translate(59.291 21.411)">
			<path id="Path_30439" class="st0" d="M3.1-10.1c-0.3-0.2-0.4-0.6-0.2-0.9C2.9-11,3-11.1,3.1-11c0,0,0,0,0,0
				c0.3,0.2,0.4,0.6,0.2,0.9C3.3-10.1,3.2-10,3.1-10.1C3.1-10.1,3.1-10.1,3.1-10.1L3.1-10.1z"/>
		</g>
		<g id="Group_6370" transform="translate(69.721 27.517)">
			<path id="Path_30440" class="st0" d="M1.7-11.1c-0.1-0.2-0.2-0.4-0.1-0.7c0,0,0-0.1,0.1-0.1c0,0,0.1,0,0.1,0.1
				c0.1,0.2,0.1,0.4,0.2,0.6C2-11,1.7-10.9,1.7-11.1z"/>
		</g>
		<g id="Group_6371" transform="translate(43.071 29.866)">
			<path id="Path_30441" class="st0" d="M5-11.4c0-0.2-0.1-0.4-0.2-0.6c0-0.1,0-0.1,0.1-0.1c0,0,0.1,0,0.1,0
				c0.1,0.2,0.2,0.4,0.2,0.6c0,0,0,0.1-0.1,0.1C5.1-11.3,5-11.3,5-11.4L5-11.4L5-11.4z"/>
		</g>
		<g id="Group_6372" transform="translate(44.547 29.693)">
			<path id="Path_30442" class="st0" d="M4.7-11.8c0-0.1,0-0.1,0.1-0.2c0,0,0.1-0.1,0.1-0.1c0,0,0,0,0,0c0,0.1,0.1,0.1,0.1,0.2
				c0,0.1,0,0.2-0.1,0.2S4.7-11.7,4.7-11.8C4.7-11.8,4.7-11.8,4.7-11.8z"/>
		</g>
		<g id="Group_6373" transform="translate(84.607 24.887)">
			<path id="Path_30443" class="st0" d="M-0.3-10.7c0-0.3,0-0.6,0.3-0.8c0.1,0,0.2,0,0.2,0.1C0-11.1,0-10.9,0-10.7
				c0,0.1-0.1,0.2-0.2,0.2C-0.2-10.5-0.3-10.6-0.3-10.7z"/>
		</g>
		<g id="Group_6374" transform="translate(85.683 25.496)">
			<path id="Path_30444" class="st0" d="M-0.5-11.3c0.1-0.2,0.4-0.3,0.6-0.2c0.1,0,0.1,0.1,0.1,0.2c0,0,0,0,0,0
				C0.1-11.2,0-11.1-0.1-11c-0.1,0.1-0.2,0.1-0.3,0C-0.5-11.1-0.5-11.2-0.5-11.3L-0.5-11.3z"/>
		</g>
		<g id="Group_6375" transform="translate(86.689 32.181)">
			<path id="Path_30445" class="st0" d="M-0.5-12.3c0.2,0,0.3-0.1,0.5-0.1c0,0,0.1,0,0.1,0.1c0,0,0,0.1,0,0.1C0-12.1-0.2-12-0.5-12
				c-0.1,0-0.2-0.1-0.2-0.2C-0.6-12.2-0.6-12.3-0.5-12.3z"/>
		</g>
		<g id="Group_6376" transform="translate(52.81 23.197)">
			<path id="Path_30446" class="st0" d="M3.8-10.6c-0.1-0.2-0.2-0.4-0.1-0.6c0-0.1,0.1-0.1,0.2-0.1c0,0,0,0,0,0
				C3.9-11.1,4-11,4.1-10.9C4.3-10.7,4-10.4,3.8-10.6z"/>
		</g>
	</g>
	<g id="Group_6378" transform="translate(116.973 -36.586)">
		<path id="Path_29889" class="st1" d="M23.1,56.1"/>
		<g id="Group_5837" transform="translate(0.622)">
			<g id="Group_5819" transform="translate(20.997 59.243)">
				<path id="Path_29890" class="st0" d="M-15.6,23.2c0.2-0.1,0.2-0.3,0.1-0.5c0-0.1-0.1-0.1-0.2-0.2c-0.2-0.1-0.4,0-0.5,0.2
					c0,0.1,0,0.2,0,0.3C-16,23.2-15.8,23.3-15.6,23.2C-15.6,23.2-15.6,23.2-15.6,23.2z"/>
			</g>
			<g id="Group_5820" transform="translate(17.462 52.31)">
				<path id="Path_29891" class="st0" d="M-14.3,25.2c0.4-0.4,0.8-0.7,1.3-0.9c0.2-0.1,0.3-0.4,0.2-0.6c-0.1-0.1-0.2-0.2-0.3-0.3
					c-1-0.4-3,1.1-2.4,2.1C-15.2,26.2-14.3,26.1-14.3,25.2z"/>
			</g>
			<g id="Group_5821" transform="translate(13.393 47.11)">
				<path id="Path_29892" class="st0" d="M-15.2,24.4c-0.3,2.2,3,4.2,5,1.9c0.6,0.5,1.2,0.8,2,0.9c-0.3,1.5,1.3,2.9,3.5,1.9
					c0.3,0,0.5-0.2,0.8-0.4c0.5-0.4-0.1-1.2-0.6-0.8c-1.9,1.3-3.1,0.2-3-0.7c0.3-0.1,0.6-0.3,0.8-0.7l0,0c0.1-0.2,0-0.5-0.2-0.6
					c-0.2-0.1-0.4-0.1-0.5,0c-0.4,0.3-1.1,0.6-2.3-0.4c0.2-0.4,0.2-1,0-1.4c-0.4-0.4-1.4,0.2-1.2,1.2c-1.1,1.6-3.1,1.2-3.7-0.9
					c0-0.2-0.2-0.3-0.4-0.2C-15.1,24.2-15.1,24.3-15.2,24.4z"/>
			</g>
			<g id="Group_5822" transform="translate(27.068 47.386)">
				<path id="Path_29893" class="st0" d="M-16.6,28.3c0.1,0.2,0.3,0.2,0.4,0.1c0.1-0.1,0.2-0.2,0.2-0.3c0-0.7,0.3-1.4,0.8-1.9
					c-0.5,0.6-0.5,1.5-0.1,2.1c0.2,0.2,0.5,0.2,0.7,0c0.1-0.1,0.1-0.2,0.1-0.3c0-0.6-0.5-1.2,0.7-1.6c0.3-0.1,0.7-0.2,0.6-0.7
					c-0.1-0.3-0.5-0.5-1.1-0.3c0.1-0.1,0.3-0.2,0.4-0.2c0.5-0.3,1.1-0.2,1.4,0.3c0,0,0,0,0,0c0.4,0.7,0.4,2.4,1.1,2.1
					c0.1,0,0.2-0.1,0.2-0.2c0.7-1.5-0.7-4.3-3-3.5C-15.6,24.7-17.7,26.6-16.6,28.3z"/>
			</g>
			<g id="Group_5823" transform="translate(29.108 52.641)">
				<path id="Path_29894" class="st0" d="M-15.9,25.6c0.2-0.1,0.4-0.3,0.5-0.5c0.4-0.5-0.3-1.8-1.1-1.7c-0.3,0-0.5,0.2-0.6,0.5
					c-0.1,0.2-0.2,0.4,0,0.6c0.1,0.1,0.3,0.2,0.5,0.1c0,0,0.1,0.1,0.1,0.1C-17,25.4-16.4,25.8-15.9,25.6z"/>
			</g>
			<g id="Group_5824" transform="translate(29.808 53.442)">
				<path id="Path_29895" class="st0" d="M-16.7,27.3c1.6,0.1,3.8-2,3.2-3.8c0-0.1-0.1-0.2-0.2-0.2c-0.2,0-0.3,0.2-0.5,0.6
					c-0.3,0.8-0.9,1.5-1.6,2c-0.3,0.1-0.6,0.2-0.9,0.3c-0.1,0-0.3,0.1-0.3,0.2c-0.2,0.2-0.2,0.5,0,0.8C-17,27.2-16.9,27.3-16.7,27.3
					z"/>
			</g>
			<path id="Path_29896" class="st0" d="M6.6,77.8c-0.2,0.1-0.5,0.1-0.7,0.1c-0.9,0.3-1.6,1-1.9,2c-0.1,0.4,0.1,0.9,0.6,1
				c0.1,0,0.1,0,0.2,0c0,0,0,0,0,0.1c0.1,0.4,0.4,0.7,0.8,0.8c0.4,0.1,0.9-0.1,0.9-0.6c0-0.1,0-0.2-0.1-0.3c0,0,0-0.1,0-0.1
				c0-0.1-0.1-0.2-0.2-0.2c-0.2-0.2-0.3-0.4-0.5-0.6c0.2-0.7,0.6-1.2,1.1-1.7c0.1-0.1,0.2-0.2,0.1-0.3C6.8,77.8,6.7,77.8,6.6,77.8z"
				/>
			<g id="Group_5825" transform="translate(22.173 59.359)">
				<path id="Path_29897" class="st0" d="M-16.1,22.5c-0.2,0.1-0.3,0.3-0.2,0.5c0.1,0.2,0.3,0.3,0.5,0.2c0.2-0.1,0.3-0.3,0.2-0.5
					c0,0-0.1-0.1-0.1-0.1C-15.8,22.5-15.9,22.4-16.1,22.5z"/>
			</g>
			<g id="Group_5826" transform="translate(0 85.599)">
				<path id="Path_29898" class="st0" d="M-10.2,20.3c-0.3-0.3-1.2-0.1-1.5-0.1c-0.3-0.1-1.3-1.1-1.5-1c-0.4,0.1-0.1,1,0,1.2
					c0.5,0.7,1.4,1,2.3,0.9C-10.2,21.1-10,20.5-10.2,20.3z"/>
			</g>
			<g id="Group_5827" transform="translate(2.627 88.422)">
				<path id="Path_29899" class="st0" d="M-11,20.8V21l0,0V20.8L-11,20.8c-0.3,0-0.2-0.7-0.5-1.2c-0.5-0.7-1.3-0.3-1.5-0.6
					c-0.1-0.2-0.4-0.3-0.6-0.2c-0.2,0.1-0.3,0.3-0.2,0.4c0,0.4,0.4,0.8,1.2,0.8c0.4,0,0.4,0,0.5,0.4c0.2,1,0.5,1.2,1.5,1.3
					c0.3,0,0.6-0.2,0.6-0.4c0-0.1,0-0.1,0-0.2C-10.1,20.8-10.7,20.8-11,20.8z"/>
			</g>
			<g id="Group_5828" transform="translate(28.103 75.845)">
				<path id="Path_29900" class="st0" d="M-16.6,22.3c0.3,0.1,0.7,0.1,1-0.1c0.6-0.2,0.9-0.8,0.7-1.4c-0.1-0.3-0.4-0.5-0.7-0.4
					c-0.1,0-0.3,0.1-0.4,0.3c-0.3,0.4-0.1,0.4-0.6,0.5c-0.3,0.1-0.5,0.4-0.4,0.7C-17,22.1-16.8,22.3-16.6,22.3z"/>
			</g>
			<g id="Group_5829" transform="translate(12.782 73.412)">
				<path id="Path_29901" class="st0" d="M-5.7,21c-2.4,0.8-7.6,4.7-9.3,6.3c-0.1,0.1-0.2,0.2-0.1,0.3c0.2,0.3,0.9-0.5,6.5-3.9
					c2.5-1.5,3.6-2.2,5.6-2.1c0.1,0,0.2,0,0.3-0.1c0.1-0.1,0-0.3-0.1-0.4C-3.1,20.8-4,20.4-5.7,21z"/>
			</g>
			<g id="Group_5830" transform="translate(36.449 52.456)">
				<path id="Path_29902" class="st0" d="M-12.9,23.8c-0.6,0.9-1.6,2.5-3.5,1.4c-0.5-0.3-0.9-0.8-1.1-1.3c-0.1-0.1-0.3-0.2-0.4-0.1
					c-0.1,0.1-0.1,0.2-0.1,0.3c0.1,1.6,2.4,3.1,4.3,2.1c1.7-0.9,1.7-2.7,1.3-2.7C-12.6,23.3-12.7,23.5-12.9,23.8L-12.9,23.8
					L-12.9,23.8L-12.9,23.8z"/>
			</g>
			<g id="Group_5831" transform="translate(6.204 51.602)">
				<path id="Path_29903" class="st0" d="M-9.6,47c-0.3-0.1-0.6-0.3-0.7-0.5c0,0,0-0.1,0-0.1l-2.1,1.1c-0.9-0.1-0.9-0.4-1.2-0.6
					c-0.6-0.3-1.1,0.7,0.1,1.4c1.1,0.6,2.7-0.1,3.1,1.5c0.1,0.3,0.4,0.4,0.7,0.4c0.1,0,0.2-0.1,0.3-0.2c0.1-0.2,0.1-0.4,0-0.6
					c-0.3-0.7-0.9-1.3-1.6-1.6L-9.6,47z"/>
				<path id="Path_29904" class="st0" d="M12.6,31.5c-0.2,0.3-0.4,1.1-0.8,1.3c0.3-0.8,0.3-1.7,0-2.5c-0.1-0.2-0.5-0.3-0.4,0.3
					c0.1,1.4-0.9,2.8-1.9,3.8c-1.8,1.7-6.2,3.6-6.9,1.2c-0.1-0.4,0-0.4,0.2-0.8c0.1-0.2,0.2-0.6,0.3-0.8c0.2-0.3,0.5-0.8,0.5-0.9
					c0.1-0.3,0-0.6-0.3-0.7c-0.1,0-0.2-0.1-0.2,0c-0.3,0-0.3,0.2-0.5,0.5c-0.2,0.3-0.3,0.7-0.5,1c-0.5,0.6-1.3,1-2.1,1
					c0.1-0.9-0.5-1.7-1.4-1.8c-0.1,0-0.2,0-0.2,0c-0.3,0-0.6-0.1-0.8-0.3c-0.5-0.5,0.1-1.5,0.2-2.2c0.4-2.5-2.8-3.6-3.3-5.4
					c-0.2-0.8,0.3-1.3-0.2-1.5C-6.4,23.2-7,24.7-6.3,26c0.6,0.9,1.4,1.7,2.2,2.3c2,2-0.4,2.8,0.6,4.6c0.6,1,1.9,0.8,2.2,1.3
					c0.3,0.5-0.4,0.8,0,1.2c0.3,0.4,1.2,0.4,2,0.3c-0.4,0.4,0.2,1.1,1.2,0.8c1.4,1.5,4,0.9,5.8,0c-0.9,0.5-2,1.1-3.2,1.8
					c0.1,0.4,0,0.8-0.3,1.1c-0.1,0.2-0.3,0.3-0.4,0.5c1.3-0.7,2.1-1.1,2-1.1c-0.6,0.7-1.1,1.4-1.5,2.2c-0.1,0.1-0.1,0.2,0,0.3
					c0.4,0.3,1.5-1.8,1.8-2.1c1.8-2.1,4.6-3.1,6.1-5.4c0.8-1.3,2-2.3,3.4-2.8c0.5-0.2,1.1-0.4,0.9-0.9
					C16.3,29.3,13.9,29.7,12.6,31.5z"/>
			</g>
			<g id="Group_5832" transform="translate(7.601 73.582)">
				<path id="Path_29905" class="st0" d="M-6.7,32.9c1.1-0.6,1.8-0.4,3.4-0.9c2.2-0.6,5-0.8,8.4-3.6c0.8-0.8,1.8-1.3,2.8-1.4
					c1.6-0.3,4.4-1.2,5.8-2.7c1.2-1.3,2.8-2.2,4.5-2.6c0.5-0.4,0.4-1.4-1.7-1c-1.2,0.3-2.3,1-3.2,1.9c-1.4,1.2-2.3,1.9-5.8,3
					c-0.8,0.2-1.5,0.5-2.2,0.8c-1.9,1.4-4,2.6-6.2,3.4c-1.9,0.7-2.9,0.8-5,1.7c-0.8,0.2-1.5,0.4-2.2,0.6c-0.6,0.4-1.1,0.8-1.6,1.3
					c-1.1,1-2.4,1.7-3.8,2.2c-0.3,0-0.6,0.1-0.8,0.3c-0.3,0.4,0,0.8,0.5,0.9c0.5,0,1-0.2,1.4-0.4C-9.9,35.3-10.1,34.8-6.7,32.9z"/>
			</g>
			<g id="Group_5833" transform="translate(9.293 92.911)">
				<path id="Path_29906" class="st0" d="M-14.6,18.5c0.1,0,0.1,0,0.3-0.1l0-0.2l-0.2,0l-0.2,0.1L-14.6,18.5z"/>
			</g>
			<g id="Group_5834" transform="translate(8.303 45.802)">
				<path id="Path_29907" class="st0" d="M-9.8,31.9c0.3-0.1,0.4-0.4,0.2-0.7c-0.1-0.2-0.2-0.3-0.4-0.3c-1,0.1-1.9-0.2-2.6-0.9
					c-0.3-0.4-0.5-0.8-0.5-1.3c0-0.5,0.1-1,0.3-1.5c0.3-0.3-0.2-0.7-0.5-0.4c-0.1,0.1-0.2,0.2-0.3,0.3c0.1-1,0.8-1.7,2.3-2.2
					c0.1,0,0.2-0.2,0.2-0.3c0-0.2-0.2-0.3-0.3-0.3c-0.2-0.1-0.4-0.1-0.6-0.1c-2.8,0.6-2.8,3.9-2,4.3c0.1,0,0.1,0,0.2,0
					C-14,31.4-10.9,32.4-9.8,31.9z"/>
			</g>
			<g id="Group_5835" transform="translate(21.798 31.422)">
				<path id="Path_29908" class="st0" d="M-16.2,29.4c0,0.1,0,0.2,0.1,0.3c0.1,0,0.2,0,0.2-0.1c2.4-4.5,6.7-3.1,6.4-0.6
					c0,0.2,0.1,0.4,0.3,0.4c0.2,0,0.3-0.1,0.4-0.2c0.3-0.8,1.2-1.3,2-1c0.6,0.2,1,0.8,1.1,1.4c0,0.3,0.2,0.5,0.5,0.5
					c0.2,0,0.3-0.1,0.4-0.2c0.4-0.5,1.1-0.6,1.6-0.2c0.2,0.2,0.4,0.4,0.4,0.7c0.4,1.3-0.6,2.4-1.3,3.3C-4.2,33.8-4.1,34-4,34.1
					c0.1,0.1,0.2,0.1,0.3,0c0.7-0.5,1.3-1.1,1.6-1.9c1.1-2.4-1.2-4.7-3-3.5c-0.5-1.2-1.9-1.7-3.1-1.2c-0.3,0.1-0.5,0.3-0.7,0.5
					C-9.7,25.5-13.8,24.6-16.2,29.4z"/>
			</g>
			<g id="Group_5836" transform="translate(37.814 42.032)">
				<path id="Path_29909" class="st0" d="M-18,24.6c-0.2,0-0.3,0.1-0.3,0.3c0,0.2,0.1,0.3,0.3,0.3l0,0c1,0.1,1.8,0.9,1.9,1.9
					c0,1-0.6,1.9-1.4,2.3c-0.2,0.1-0.2,0.4,0,0.5c0.1,0.1,0.2,0.1,0.3,0.1c1-0.1,1.8-0.8,2.1-1.7c0.5-1.4-0.2-3-1.6-3.5
					C-17.2,24.7-17.6,24.6-18,24.6z"/>
			</g>
			<path id="Path_29910" class="st0" d="M29.7,34.1c0.1-1.5-0.5-2.9-1.5-4c-0.2-0.2-0.5-0.2-0.7-0.1c-0.2,0.1-0.3,0.4-0.2,0.7
				c0.3,1,0.2,2.1-0.3,3.1c-0.6,1.1-1.4,2-2.5,2.7c-0.5,0.4-1.1,0.8-1.7,1c-0.6,0.1-1.3,0.2-1.9,0.1c-0.9,0-1.8-0.1-2.6-0.1
				c0.3-0.1,0.6-0.2,0.8-0.4c1-0.8,1.9-1.8,2.5-2.9c0.8-1,1.2-2.3,1.1-3.6c-0.1-0.5-0.8-0.3-0.7,0.1c0.1,1.1-0.3,2.1-0.9,3
				c-0.3,0.5-0.7,1-1.1,1.5c-0.4,0.5-0.8,1-1.4,1.3c-1.1,0.7-2.5,0.5-3.8,0.8c-1.2,0.2-2.4,0.7-3.4,1.3c-1.2,0.7-2.2,1.7-3,2.9
				c-0.1,0.1-0.1,0.2,0,0.3c-1.1,1.3-1.9,2.8-2.2,4.4c-0.3,1.3-0.2,2.7,0.3,4c0.2,0.6,0.6,1.2,1.1,1.7c0.3,0.4,0.7,0.6,1.2,0.7
				c0,0.4,0,0.9,0.1,1.3c-2.3,0.1-4.2,1.7-4.6,3.9c-2.4-0.3-4.7,1-5.7,3.3c-0.4,1-0.7,2.4-0.1,3.2c-1.7,1.2-2.5,3.3-1.8,5.3
				c0,0.1,0.2,0.2,0.3,0.1c0,0,0,0,0,0c0.1,0,0.1-0.1,0.1-0.2c-0.8-3.4,2.9-6.2,3.7-4.1c0.1,0.1,0.2,0.2,0.4,0.1
				c0.1,0,0.1-0.1,0.2-0.2c0.3-1-0.9-2-2.5-1.3c0.1-0.7,0-4.9,4.4-5.3c0.3,0,0.7,0,1-0.1c0,0.1,0.1,0.2,0.2,0.2c0.3,0,0.4-1,0.6-1.4
				c0.8-2.2,3.1-3.3,5.3-2.5c0.4,0.2,0.9,0.4,1.2,0.7c0.6-1.1,1.8-1.7,3-1.5c0.7,0.2,1.5,0.5,1.5,1.3c0,0.4-0.5,0.5-0.4,0.9
				c0,0.1,0.1,0.2,0.2,0.3c0.3,0.1,0.6,0,0.8-0.2c1.1-0.4,2.3-0.5,3.4-0.4c-0.1,0.3,0,0.6,0.3,0.7c0.1,0,0.2,0.1,0.3,0
				c1.4-0.2,3.6,0.2,3.2,0.6c-0.2,0.3-0.8,0.1-1.1,0.1c-0.7-0.1-0.9,0.8-0.4,1.2c3.2,2.1,5.7,4.1,4.5,8c-0.1,0.3,0.1,0.5,0.3,0.6
				c0.1,0,0.3,0,0.4-0.1c0.5-0.1,1,0,1.5,0.3c0.5,0.3,0.8,0.9,0.9,1.5c0.3,1.8-1.1,2.8-1.5,3.4c-0.2,0.1-0.4,0.3-0.3,0.6
				c0.1,0.2,0.3,0.4,0.5,0.3c0.7-0.1,1.6,0.6,0.9,1.3c-0.2,0.2-0.4,0.3-0.7,0.3c-0.4,0.1-0.6,0.6-0.1,1c-0.4,1.8-2.3,1.9-2.3,0.8
				c0-0.2-0.1-0.3-0.3-0.3c-0.1,0-0.2,0.1-0.2,0.1c-0.3,0.4-0.2,1-0.4,1.5c-0.3,1-1.2,1.7-2.2,1.8c-0.5-0.1-0.7-0.2-0.8-0.1
				c-0.2,0-0.3,0.2-0.1,0.4c0.1,0.3,1.3,1.2,3,0.3c0.6-0.3,1-0.8,1.3-1.3c1.5,0.4,3.7-1.7,3-3.2c0.9-0.3,1.4-1.4,1.1-2.3
				c-0.1-0.4-0.4-0.7-0.8-0.9c2.3-2.6,0.8-5.9-1.7-6.2c0.2-0.5,0.3-1.1,0.3-1.7c-0.1-2.9-2.2-4.8-4.1-6.1c1-0.7,1.4-2.6-2.1-2.8
				c-0.4-0.7-3.5-0.7-5.3-0.1c0.2-1.4-1.2-2.4-2.8-2.3c0-0.1,0.1-0.1,0.1-0.2c0.1-0.5,0-1-0.2-1.4c0.1-0.1,0.1-0.3,0-0.4
				c-0.2-0.4-0.2-1,0.1-1.3c0.4-0.4,1-0.8,1.5-0.9c1.2-0.4,2.6-0.7,3.9-0.7c1.3,0,2.5,0.2,3.8,0.1c1.3,0,2.6-0.4,3.6-1.2
				c1.1-0.8,1.6-2.1,1.6-3.4c0-0.2-0.2-0.3-0.3-0.3c-0.2,0-0.4,0-0.5,0.2c-0.6,0.6-1.3,1-2.2,1.1c0.1-0.1,0.2-0.1,0.4-0.2
				c1-0.5,1.9-1.1,2.7-1.7c1.5-1.2,2.4-3.1,2.3-5c-0.1-1.2-0.4-2.4-0.9-3.5C30,34.2,29.8,34.1,29.7,34.1z M11,54.4
				c0.2,0.1,0.4,0.1,0.7,0l0,0c-0.1,0.1-0.1,0.1-0.2,0.2C11.3,54.5,11.1,54.4,11,54.4L11,54.4z M12.7,53.6l0.2-0.3c0,0,0.1,0,0.2,0
				c0.1,0,0.1,0,0.2-0.1c0,0.1,0.1,0.1,0.1,0.2C13.2,53.4,12.9,53.5,12.7,53.6L12.7,53.6z M13.3,52.7L13.3,52.7
				c0-0.1-0.1-0.1-0.1-0.1l0.1,0C13.3,52.6,13.3,52.6,13.3,52.7L13.3,52.7z M28.6,34.5c-0.3,1.2-0.9,2.3-1.8,3.2
				c-1.7,1.8-3.8,3.1-6.2,3.7c-1.3,0.3-2.7,0.4-4.1,0.3c-0.7-0.1-0.7,1-0.1,1c2.7,0.3,5.5-0.3,7.8-1.7c1.2-0.7,2.3-1.5,3.2-2.5
				c0.9-0.9,1.6-2.1,2.1-3.3c0.7,1.5,0.8,3.2,0.3,4.8c-0.3,0.8-0.8,1.5-1.5,2.1c-0.8,0.6-1.6,1.1-2.4,1.6c-0.9,0.6-2,1-3.1,1.1
				c-0.5,0-0.4,0.8,0.1,0.9c1.6,0.2,3.4,0.2,4.8-0.6c-0.2,0.7-0.7,1.3-1.4,1.8c-1.1,0.6-2.4,0.9-3.6,0.8c-1.3-0.1-2.6-0.1-3.9-0.1
				c-1.3,0.1-2.7,0.4-3.9,0.9c-0.7,0.3-1.2,0.8-1.6,1.4c-0.3,0.5-0.3,1.1-0.1,1.6c-0.5,0.2-1,0.3-1.5,0.3c-0.6,0-1.1,0-1.7,0
				c-0.2,0-0.5-0.1-0.7,0c-0.1,0-0.2,0-0.3,0c-0.4,0.1-0.8-0.4-1-0.7c-0.3-0.4-0.6-0.9-0.7-1.4c-0.3-1-0.4-2.2-0.1-3.2
				c0.3-1.1,0.8-2.2,1.5-3.1c0.7-1,1.5-1.9,2.5-2.7c0.9-0.8,2.1-1.4,3.3-1.7c1.2-0.2,2.4-0.4,3.6-0.3c1.2,0,2.5,0.1,3.7,0.1
				c0.7,0,1.4-0.1,2-0.4c0.6-0.3,1.1-0.7,1.7-1.1c1.1-0.8,2.1-1.9,2.7-3.2c0.2-0.4,0.3-0.9,0.4-1.4C28.7,33.2,28.7,33.9,28.6,34.5
				L28.6,34.5z"/>
		</g>
		<path id="Path_29911" class="st2" d="M-8.1,101.9c0.1,0.2,0.1,0.5-0.1,0.7c-0.2,0.2-0.4,0.3-0.6,0.3l-1.3,0.4l0.7-0.4"/>
		<g id="Group_5838" transform="translate(0.845 67.255)">
			<path id="Path_29912" class="st3" d="M15.8,21.5c-0.7,0-1.4,0.3-1.9,0.7c-2,1.2-3.4,3.1-4.1,5.3c-0.1,0.3-0.1,0.5-0.2,0.8
				c0,0,0,0,0,0c-0.7-0.2-1.3-0.2-2,0c-0.1,0-0.2,0-0.3,0.1c-0.4-0.1-0.8-0.1-1.1,0c-2.1,0.9-4.1,2-6.1,3.1C-1,32.2-2,32.8-3,33.5
				c-0.5,0.3-0.9,0.6-1.4,1c-0.2,0.2-0.4,0.4-0.6,0.6c-0.5-0.3-1-0.5-1.6-0.6c-0.5-0.1-0.9-0.1-1.4-0.1c-0.6,0-1.2,0-1.7,0.2
				c-0.4,0.1-0.8,0.3-1.2,0.6c-0.2,0.2-0.4,0.3-0.6,0.5c0,0-0.1,0.1-0.1,0.1l0,0l-0.1,0c-0.3-0.1-0.7-0.1-1,0.1
				c-0.3,0.1-0.5,0.4-0.6,0.6c-0.3,0.6-0.1,1.3,0.5,1.7c0.3,0.2,0.8,0.4,1.2,0.4c0.3,0.1,0.7,0.2,1,0.4h0l0.2,0.1
				c0.1,0.1,0.3,0.1,0.4,0.2c0.1,0.1,0.2,0.1,0.3,0.2c-0.2,0.4-0.2,0.8,0,1.2c0.3,0.7,1.1,0.9,1.8,0.6c0.2-0.1,0.4-0.2,0.6-0.3
				l0.1,0c0.1,0,0.2,0,0.3-0.1c0.4-0.1,0.8-0.2,1.3-0.2c0.8-0.1,1.6-0.3,2.4-0.5c0.8-0.2,1.5-0.7,2.1-1.2c0.4-0.4,0.8-0.9,1-1.5
				c0.8-0.2,1.6-0.6,2.4-1.1c0.3-0.2,0.6-0.4,0.7-0.8c0,0,0,0,0-0.1c2.3-1.1,4.5-2.4,6.6-3.8c0.1,0.1,0.2,0.2,0.3,0.2
				c0.9,0.7,2.2,0.6,3-0.2c0.2-0.2,0.4-0.5,0.6-0.7c0.2-0.2,0.4-0.4,0.7-0.5l0.1-0.1c0.1-0.1,0.3-0.2,0.4-0.3
				c0.6-0.3,1.2-0.7,1.6-1.2c0.4-0.5,0.5-1.1,0.6-1.7c0-0.4-0.1-0.8,0-1.3c0-0.1,0-0.2,0-0.2l0,0c0,0,0-0.1,0-0.1v0c0,0,0,0,0,0
				c0-0.1,0-0.1,0-0.1c0,0,0,0,0-0.1c0,0,0,0,0,0c0.1-0.1,0.2-0.2,0.2-0.3c0.5-0.6,0.7-1.3,0.6-2C17.4,22.3,16.7,21.6,15.8,21.5z"/>
			<path id="Path_29913" class="st3" d="M16.7,25.5C16.7,25.5,16.7,25.5,16.7,25.5L16.7,25.5C16.7,25.6,16.7,25.6,16.7,25.5
				L16.7,25.5c0,0.1,0,0.1,0,0.1l0,0v0c0,0,0,0,0,0C16.7,25.7,16.7,25.6,16.7,25.5C16.7,25.6,16.8,25.5,16.7,25.5L16.7,25.5
				L16.7,25.5z"/>
		</g>
		<path id="Path_29914" class="st0" d="M-4.1,101.7c-1.3-0.9-3-1-4.5-0.3c-0.4,0.2-0.8,0.3-1.2,0.3c-0.5,0-1,0-1.4,0
			c-0.4-0.1-0.9,0-1.3,0c-0.5,0.1-0.7,0.6-0.7,1.1c-0.2,0.9-0.1,1.9,0.3,2.8c0.3,0.6,1.2,0.1,0.9-0.5c-0.2-0.4-0.3-0.8-0.3-1.2
			c0-0.2,0-0.4,0-0.7c0-0.1,0-0.2,0.1-0.3c0,0,0.1-0.2,0.1-0.3h0c0.1,0,0.3,0,0.4,0l0.8,0h0c0.1,0.2,0.3,0.3,0.5,0.2
			c1-0.1,2.1-0.2,3.1-0.3c0.9-0.1,1.8-0.1,2.7,0c0.2,0.1,0.5,0,0.6-0.3C-3.9,102.1-3.9,101.9-4.1,101.7z"/>
		<g id="Group_5854" transform="translate(42.346 42.823)">
			<g id="Group_5839" transform="translate(31.994 21.694)">
				<path id="Path_29915" class="st0" d="M-15.6,37.7c-2.5,3.9-5.5,5.2-7.1,6.7c-0.1,0.1-0.1,0.3,0,0.4c0.1,0.1,0.2,0.1,0.3,0.1
					c5.9-1.3,14.1-13.2,10-23c-0.1-0.3-0.6-0.1-0.5,0.2c0,0.3,0.1,0.6,0.2,0.9C-11.8,28.1-12.8,33.3-15.6,37.7z"/>
			</g>
			<g id="Group_5840" transform="translate(77.481 58.52)">
				<path id="Path_29916" class="st0" d="M-28.3,17.3c-0.1,0-0.2,0.2-0.2,0.3c0,0.1,0.2,0.2,0.3,0.2c0.4-0.1,0.9,0.2,1,0.6
					c0.1,0.1,0.2,0.2,0.3,0.1C-26.3,18.3-27.2,16.9-28.3,17.3z"/>
			</g>
			<g id="Group_5841" transform="translate(42.028 57.216)">
				<path id="Path_29917" class="st0" d="M7.3,19.9c-0.2-0.2-0.6-0.1-0.8-0.2c-2.3-1.3-3.7-0.8-8-2c-2.6-0.7-5.4-0.1-8.5,0.9
					c-1.4,0.5-2.9,1-4.4,1.4c-0.6,0.1-1.2,0.2-1.8,0.4c-0.7,0.3-1.5,0.5-2.3,0.7c-0.8,0.1-1.6,0.1-2.4,0c-0.6,0-1.2-0.2-1.8-0.4
					c-0.3-0.1-0.8-0.3-1.1-0.2c-0.5,0.3,0.5,0.8,0.7,0.9c0.8,0.5,1.8,0.7,2.7,0.6c0.4-0.1,0.8,0,1.2-0.1c0.6-0.1,1.2-0.2,1.8-0.4
					c1.1-0.3,2.2-0.5,3.3-0.7c1.5-0.4,2.9-0.8,4.3-1.3c8.8-3,7.2-0.2,12.4-0.1c1.5,0,3,0.8,4.4,1.4c0.7,0.3,0.9-0.3,0.6-0.6
					C7.6,20.1,7.4,20,7.3,19.9z M-24,20.8c0,0.1,0,0.1,0,0.2C-24,21-24,20.9-24,20.8C-24,20.8-24,20.8-24,20.8L-24,20.8z"/>
			</g>
			<g id="Group_5842" transform="translate(64.786 45.613)">
				<path id="Path_29918" class="st0" d="M-13.9,27.8c-0.2-0.6-0.5-1.2-1-1.7c-1.5-1.5-3.9-1-5.2-2c-0.7-0.6-0.9-1.7-1.2-2.6
					c-0.8-2.9-3-3.6-5.5-1c-0.1,0.2-0.1,0.4,0,0.5c0.1,0.1,0.4,0.1,0.5,0c1.5-1.3,2.7-2,3.7-0.3c0.8,1.4,0.6,3.2,2,4.2
					c2,1.4,4.9-0.1,5.9,3.8c0.1,0.3-0.1,0.6,0,0.9c0.2,0.5,0.6,0.1,0.7,0.2c0.4,0.4,0.5,1,0.5,1.6c0,0.2-0.2,0.4-0.3,0.7
					c-0.1,0.4,0.3,0.7,0.6,0.5c0.2-0.2,0.2-0.4,0.3-0.8c0.1-0.2,0.1-0.5,0.1-0.8c0,0.2,0.2,0.3,0.4,0.2c0.1,0,0.1-0.1,0.2-0.1
					c0.3-0.7,0.3-1.5-0.2-2.1C-12.7,28.4-13.3,28-13.9,27.8z M-12.7,30.8c-0.1-0.4-0.2-0.8-0.5-1.1c-0.2-0.3-0.3-0.2-0.6-0.7
					c0-0.1,0-0.2,0-0.3c0.6,0.2,1,0.7,1.1,1.3C-12.7,30.3-12.7,30.5-12.7,30.8z"/>
			</g>
			<g id="Group_5843" transform="translate(68.896 49.406)">
				<path id="Path_29919" class="st0" d="M-27.4,18.5c-0.1,2,0.6,3.1,0.9,3c0.2-0.1,0.1-0.3,0-0.5c0.1,0.2,0.3,0.4,0.4,0.6
					c0.1,0.1,0.2,0.1,0.4,0.1c0.2-0.1,0.2-0.3,0.1-0.9c0.1,0,0.1-0.1,0.1-0.1c0.1-0.2-0.1-0.3-0.3-0.4c-0.1-0.1-0.3-0.1-0.4,0
					c0,0,0,0,0,0c-0.2-0.5-0.4-1-0.5-1.5c0-0.2-0.3-0.2-0.3-0.1c0-0.1,0-0.2,0-0.3c0-0.1-0.1-0.2-0.2-0.2
					C-27.3,18.3-27.4,18.4-27.4,18.5L-27.4,18.5z"/>
			</g>
			<g id="Group_5844" transform="translate(24.04 23.348)">
				<path id="Path_29920" class="st0" d="M-8.9,21.8c-1,3-2.8,5.7-5.1,7.8c-1.3,1.2-2.7,2.4-4,3.6c-2.1,1.9-3.8,3.9-3.8,4.2l0,0.1
					c0.1,0,0.2,0,0.3-0.1c2.4-2.8,5.6-4.7,8.3-7.2c2.1-2,4.8-5.2,4.9-8.2c0-0.2-0.2-0.3-0.3-0.3C-8.7,21.6-8.8,21.7-8.9,21.8z"/>
			</g>
			<g id="Group_5845" transform="translate(65.61 1.104)">
				<path id="Path_29921" class="st0" d="M-27,25.9c0,0.1,0.1,0.3,0.2,0.3c0.1,0,0.2,0,0.3-0.1c0.2-0.5,0.8-0.8,1.4-0.7
					c0.4,0.1,0.7,0.2,1,0.3c0.1,0.1,0.2,0,0.3-0.1c0-0.1,0-0.1,0-0.2C-24.4,23.9-26.4,24.1-27,25.9z"/>
			</g>
			<g id="Group_5846" transform="translate(66.047 0)">
				<path id="Path_29922" class="st0" d="M-26.6,25.3c0.3-0.2,0.6-0.1,0.8,0.1c0.1,0.1,0.3,0.1,0.5,0c0.1-0.1,0.1-0.3,0-0.5
					c0,0,0,0,0,0c-0.8-0.6-1.9-0.1-1.6,0.3C-26.9,25.3-26.7,25.4-26.6,25.3z"/>
			</g>
			<g id="Group_5847" transform="translate(51.609 1.581)">
				<path id="Path_29923" class="st0" d="M-24.8,27.2c-0.5,0.9-0.6,2.1-0.1,3c0.1,0,0.2,0,0.3,0c-0.7-3,0.7-3.4,3.7-3.2
					c1.3,0.2,2.7-0.1,3.8-1c1-0.6,2-1.3,3.4-0.9c0.4,0.1,0.4-0.5,0.1-0.6c-1.4-0.3-2.8,0-3.9,0.9c-1.2,0.8-2.6,1.1-4,0.9
					C-22.3,26.2-23.9,26-24.8,27.2z"/>
			</g>
			<g id="Group_5848" transform="translate(56.346 4.769)">
				<path id="Path_29924" class="st0" d="M-25.6,24.5c-0.1,0-0.2,0.1-0.2,0.2c0,0.1,0.1,0.2,0.2,0.2c1.4,0.3,3-0.4,2.8-0.9
					c-0.1-0.1-0.2-0.2-0.3-0.1c-0.2,0-0.4,0.1-0.7,0.2l0,0.1l0,0l0-0.1C-23.9,24.2-24,24.4-25.6,24.5z"/>
			</g>
			<g id="Group_5849" transform="translate(54.362 9.286)">
				<path id="Path_29925" class="st0" d="M-24.6,23.6c0-0.1-0.1-0.2-0.2-0.2c-0.5-0.2-0.9,0.4-0.8,1c0.1,0.5,0.7,0.8,0.9,0.6
					c0.2-0.1,0.1-0.4-0.1-0.5C-25.2,24.1-24.5,24-24.6,23.6z"/>
			</g>
			<g id="Group_5850" transform="translate(49.516 9.028)">
				<path id="Path_29926" class="st0" d="M-24.5,34.6c-0.1-5.3,2.7-6.9,3.5-8.5c0.5-0.8,0.3-1.9-0.4-2.5c-0.4-0.3-0.6,0-0.4,0.3
					c1.1,1.9-1,3.1-2.1,5.3c-1.2,2.5-1.2,5.4-0.8,5.8C-24.6,34.8-24.5,34.8-24.5,34.6z"/>
			</g>
			<g id="Group_5851" transform="translate(48.675 21.879)">
				<path id="Path_29927" class="st0" d="M-23.6,21.9c-0.1,1.5-0.1,1.5-0.1,1.7c-0.2-1.4,0-1.7-0.3-1.7c-0.1,0-0.2,0.1-0.2,0.1
					c-0.1,0.6-0.2,1.2-0.1,1.9c-0.1-0.6-0.1-1.3,0.1-1.9c0-0.2,0-0.2-0.1-0.3l-0.1,0c-0.3,0.5-0.5,1-0.4,1.6c0,1.8,0.7,1.8,0.7,1.5
					c0.4,1.9,1.1,1.7,1.1,1.2c0.4,0.6,0.7,0.6,0.8,0.4c0.4,0.4,0.6,0.2,0.9,0.1C-23.2,25-23.3,23.7-23.6,21.9z"/>
			</g>
			<g id="Group_5852" transform="translate(32.144 3.1)">
				<path id="Path_29928" class="st0" d="M9.8,24.2L9.8,24.2c-3.2-0.1-5,3.4-6.8,5c-3.4,3.1,0.9,9.7-1.6,15.5c-2.6,4-6.3,7.1-10.6,9
					c0.5-6.8-1.2-12.9-1.8-14.1c0.8-0.2,1.6-0.3,2.5-0.3c0.3-0.1,1-1.1-2.6-0.3c-0.9,0.2-1.7,0.5-2.6,0.9c-1.6-3.3-5.7-4.8-8.6-2.9
					c-0.1,0.1-0.2,0.1-0.3,0.2c-0.1,0.1-0.2,0.2-0.1,0.4c0.1,0.1,0.2,0.2,0.3,0.1c0.3-0.1,0.6-0.1,0.9-0.1c0.9-0.1,1.7,0,2.6,0.2
					c1.7,0.4,3,1.5,3.7,3.1c0.2,0.4,0.4,0.7,0.6,0.8c0.5,0.1,1-0.3,1-0.8c0-0.1,0-0.2,0-0.3c0.6-0.3,1.3-0.6,2-0.8
					c0.1,0.8,0.5,1.8,0.9,4c1.8,9.9-0.2,20.7-8,26.8c0.3,0.3,0.5,0.3,0.8,0.6c3.6-3,6.2-6.9,7.5-11.3c1.9,2.7,1.5,5.1,2.5,4.3
					c0.6-0.5-0.6-3.6-2.2-5.4c0.3-1.2,0.5-2.4,0.7-3.7c0.1,0,0.2-0.1,0.3-0.1V55C-3,52.4,3.1,46.4,3.3,42.5c0.4-9.2-2.2-9.2,1-12.9
					c3.2-3.7,3.4-3.8,5.6-5c0.1-0.1,0.2-0.2,0.1-0.3C10,24.2,9.9,24.2,9.8,24.2z"/>
			</g>
			<g id="Group_5853" transform="translate(48.669 47.365)">
				<path id="Path_29929" class="st0" d="M-16,18.8c-5.1-0.8-8.8,1.1-8.9,1.8c0,0,0,0,0,0c0,0,0,0.2,0,0.1c0,0,0,0,0,0.1l0.1,0l0,0
					c0,0,0,0,0,0.1c0.1,0,0.1,0.1,0.2,0.1c0.1,0,0.2,0,0.3,0c0.9-0.7,1.9-1.1,3-1.4c3.1-0.7,6.2,0.2,9,1.2c0.3,0.1,0.6,0.1,0.9,0.2
					c0.2,0.1,0.4,0,0.4-0.2c0,0,0-0.1,0-0.1C-10.8,20.3-13.5,19.2-16,18.8z"/>
			</g>
			<path id="Path_29930" class="st0" d="M10.3,40.8c0.4,1.6,0.4,3.3,0,4.9c-2.5-0.6-4.2,0.2-4.3,0.4c0,0.1-0.1,0.1,0,0.2
				c0.1,0.1,0.2,0.1,0.6,0c1.2-0.2,2.4-0.2,3.5,0.1C8.3,52,1.7,55.7-0.6,61.5c0,0.5,0,1,0.1,1.4C-0.8,63-1,63-1.3,63
				c-1.5,0.1-2.9,0.1-4.4-0.1c-2.9-0.3-5.8-1.2-8.5-2.5c-1.5-0.7-3-1.6-4.3-2.6c-0.1,0-0.2,0-0.2,0.1c0,0.1,0,0.1,0,0.2
				c2.2,2.1,4.9,3.7,7.8,4.7c2.9,1,6,1.5,9.1,1.4c0.8,0,1.7-0.1,2.5-0.2c0.4-0.1,0.9-0.1,1.3-0.2c0.5-0.1,0.9-0.2,1.3-0.5
				c0.2-0.2,0.2-0.4,0.1-0.6c-0.1-0.1-0.2-0.1-0.3-0.2c-0.4-0.1-0.8,0-1.1,0.1c-0.4,0.1-0.7,0.1-1.1,0.2c-0.4,0.1-0.9,0.1-1.3,0.2
				c2.4-7,9.1-9.4,11.5-16.2c0.5,0.2,1.1,0.6,1.3,0.3c0.1-0.1,0.1-0.2,0-0.3c-0.3-0.3-0.7-0.6-1.1-0.7c0.3-1.2,0.4-2.4,0.3-3.6
				c-0.1-0.7-0.3-1.3-0.6-1.9C10.8,40.2,10.3,40.4,10.3,40.8z"/>
			<path id="Path_29931" class="st0" d="M17.7,76.8c-2.2-1.4-4.3-3-6.2-4.8c-1-0.9-1.9-1.8-2.8-2.7c-0.5-0.5-0.9-0.9-1.4-1.4
				C6.9,67.4,6.4,67,6,66.5c-0.5-0.6-0.9-1.2-1.4-1.8c-0.4-0.6-0.8-1.2-1.3-1.7c0,0-0.1,0,0,0c0.3,0.6,0.6,1.1,1,1.7
				c0.4,0.6,0.8,1.1,1.1,1.6c0.4,0.5,0.8,1.1,1.1,1.6c0.4,0.5,0.8,1.1,1.3,1.6c1.8,2,3.7,3.9,5.8,5.5c1.2,0.9,2.4,1.8,3.7,2.6
				C17.8,78,18.2,77.1,17.7,76.8z"/>
		</g>
		<g id="Group_5869" transform="translate(45.057 9.948)">
			<g id="Group_5855" transform="translate(4.097 0)">
				<path id="Path_29932" class="st0" d="M-19.5,70.4c-0.2,0.2-0.2,0.4,0,0.6c0,0,0,0,0,0c0.1,0.2,0.4,0.2,0.6,0c0,0,0,0,0,0
					c3.4-3.1,3.8-7.6,4.3-12c0.1-2.7,0.7-5.4,1.7-7.9c2-4.7,5.4-8.1,10.1-21.2c1.3,2.5,1.3,6,0.6,8.8c-2.5,3.9-4.1,6.8-6.3,10.8
					c-0.1,0.1,0,0.3,0.1,0.4c0.1,0.1,0.3,0,0.4-0.1c2.9-3,5-6.7,6.2-10.7c2.8-4.3,5.2-7.4,5.8-8.3c0.5-0.8,0.9-1.3,1.4-1.2
					c1.4,0.3,0,3.7-0.6,5c-1.2,2.6-2.1,2.9-1.6,3.4c0.1,0.1,0.3,0.2,0.5,0.1l0,0c0.7-0.8,1.4-1.6,2-2.5c0.1,0.7,0.1,1.5-0.1,2.2
					c-0.2,0.7-0.4,2.4-2.5,5.3c-2.4,3.5-5.6,6.4-9.3,8.5c-0.8,0.5-1.6,0.9-2.4,1.3c-0.4,0.2-0.1,0.8,0.3,0.6c0.8-0.3,1.7-0.7,2.5-1
					c2.5-1.3,4.8-3,6.8-5.1c0.7,0.3,6.5-6.2,8.5-9.7c0.2-0.4,0.6-1,1-1c1,0,0.5,2,0.4,2.7C10.2,42,9,44.4,7.3,46.3
					c-1.3,0.9-5.4,3.6-6.5,4.8c-0.2,0.1-0.4,0.3-0.3,0.6c0.1,0.2,0.3,0.4,0.6,0.3c0,0,0,0,0,0c2.5-1.1,4.7-2.7,6.4-4.8
					c3-2,3.9-2.5,4.6-2.3c0.2,0.1,0.4-0.3,0.1-0.4c-1.2-0.3-1.8,0-3.4,0.9c1.1-1.7,1.9-3.6,2.4-5.5c0.3-1,0.7-2.3,0-3.2
					C11,36.2,10.5,36,10,36.2c-0.5,0.2-0.9,0.6-1.1,1.1c-1.5,2.4-3.2,4.6-5,6.7c0.9-1.2,1.6-2.6,2.2-4c0.3-0.8,0.5-1.6,0.5-2.5
					c-0.1-0.8-0.2-1.6-0.5-2.4c0-0.1-0.1-0.1-0.2-0.1c0.3-0.8,0.6-1.7,0.7-2.6c0.1-0.9,0.3-2.1-0.4-2.9C5.8,29.2,5.4,29,5,29.1
					c-0.5,0.1-0.9,0.5-1.2,0.9c-1.8,2.4-3.6,4.9-5.4,7.6c0.2-1.3,0.3-2.7,0.2-4c-0.2-1.6-0.6-3.2-1.2-4.7c-0.1-0.2-0.3-0.3-0.5-0.2
					c-0.1,0-0.1,0.1-0.2,0.2c-1.8,4.2-3.3,8.3-5.8,12.9c-0.7,1.3-1.5,2.6-2.2,3.9c-4.6,8.1-3.5,9.6-4.6,16.7
					C-16.4,66.1-17.6,68.7-19.5,70.4z M-2.9,40.8C-3.8,43-5.1,45.1-6.6,47C-5.5,45-4.3,43-2.9,40.8L-2.9,40.8z"/>
			</g>
			<g id="Group_5856" transform="translate(40.993 18.772)">
				<path id="Path_29933" class="st0" d="M-24.2,26.3C-24.2,26.3-24.2,26.4-24.2,26.3C-24.2,26.3-24.2,26.3-24.2,26.3
					C-24.2,26.3-24.2,26.3-24.2,26.3L-24.2,26.3z"/>
			</g>
			<g id="Group_5857" transform="translate(40.866 18.634)">
				<path id="Path_29934" class="st0" d="M-24,26.6c0.1,0,0.1-0.1,0.1-0.2c0,0,0,0,0,0l0,0l-0.1,0l0,0c-0.1,0-0.1,0.1-0.1,0.2
					c0,0,0,0,0,0l0,0L-24,26.6L-24,26.6z M-24.1,26.4c0,0,0.1,0,0.1,0c0,0,0,0.1,0,0.1c0,0-0.1,0-0.1,0
					C-24.2,26.5-24.2,26.4-24.1,26.4z"/>
			</g>
			<g id="Group_5858" transform="translate(39.965 18.945)">
				<path id="Path_29935" class="st0" d="M-23.4,26.4c-0.1,0.5-0.3,1-0.6,1.3c0,0.1,0,0.2,0,0.2c0,0,0.1,0,0.2,0
					c0.4-0.4,0.7-0.9,0.7-1.5c0-0.1,0-0.2-0.1-0.2C-23.3,26.3-23.4,26.3-23.4,26.4z"/>
			</g>
			<g id="Group_5859" transform="translate(0 23.022)">
				<path id="Path_29936" class="st0" d="M14.5,38.6c1.4-1.4,0.9-2.9-1-3.5c2.3-1.3,6.2-4.5,4.1-6c-0.8-0.5-1.9-0.2-3,0.1
					c1-0.9,1.9-1.9,2.7-3c0-0.1,0-0.2-0.1-0.2c-0.1,0-0.1,0-0.2,0c-1,1.4-2.2,2.6-3.6,3.6c-1.8,0.7-3.6,1.6-5.1,2.7
					c-0.2,0.1-0.2,0.3-0.1,0.5c0.1,0.1,0.3,0.2,0.4,0.1c1.6-0.6,3.2-1.5,4.6-2.6c1.1-0.5,2.3-0.8,3.5-0.9c0.4,0,0.7,0.3,0.7,0.7
					c0,0.1,0,0.2-0.1,0.3c-0.4,1-2.6,3-5.3,4.2c-1.4-0.2-2.9,0.2-4,1.1c-0.2,0.2-0.3,0.5-0.1,0.7c0.1,0.1,0.3,0.2,0.4,0.2
					c1.4-0.2,2.8-0.5,4.1-1.1c1,0.1,2.5,0.8,2.1,1.7c-0.2,0.3-0.4,0.6-0.8,0.8c-0.9,0.6-1.8,1-2.8,1.3c-1.4-0.3-3-0.1-4.2,0.7
					C6.5,40.4,6.8,41,7.2,41c1.4,0,2.7-0.2,4-0.6c3,1,1.1,2.7-2.5,3c-0.2-0.1-0.5-0.2-0.7-0.2c-0.8-0.2-1.6-0.2-2.4,0
					c-0.2,0-0.4,0.2-0.4,0.4c0,0.2,0.1,0.4,0.4,0.4c0.8,0.2,1.7,0.2,2.5,0.2c2.3,1.3,0.2,5.4-4.2,3.3c-0.2-0.1-0.4-0.2-0.6-0.3
					c-0.2-0.1-0.5-0.1-0.6,0.2c0,0,0,0,0,0c-0.1,0.3-0.1,0.6,0.2,0.8c0.1,0.1,0.3,0.2,0.4,0.2c0.6,0.3,1,0.7,1.3,1.3
					c0.1,0.5-0.1,1.1-0.6,1.4c-1.1,1-2.7,0.4-4.2-0.2c-0.5-0.2-1,0.5-0.5,0.8c0.6,0.4,1.4,0.9,1.6,1.6c0.4,1.6-2.2,2.1-4.2,1.6
					c-0.7-0.8-1.7-0.8-1.8-0.2c0,0.3,0.3,0.4,0.7,0.6c0.2,0.1,0.3,0.2,0.5,0.2c0.3,0.6-0.1,1.6-1.2,1.9c0.1-0.1,0.1-0.2,0-0.3
					c0,0,0,0,0,0c-1.5-0.9-2.8-2-3.9-3.2c0.1-0.2,0.2-0.5,0.1-0.8c1.2,0.1,2.5-0.3,3.3-1.2c1.5,1,3.2,1.8,5,2.3
					c0.1,0,0.3-0.1,0.3-0.2c0-0.1,0-0.2-0.1-0.2c-0.9-0.4-1.8-0.8-2.7-1.2c-0.7-0.3-1.4-0.7-2.1-1.1c0.3-0.4,0.3-1,0.2-1.4
					c0.4,0,0.7,0,1.1,0c2.8-0.3,3.2-1.8,2.6-2.9c0-0.1-0.1-0.1-0.1-0.2c2.2-0.2,3.2-2.4,1.8-4c2.3-0.6,3.4-2.9,2-4.3
					c3.1-1.5,3.4-4.4,1.9-5.4c0.9-0.7,1.3-2,0.9-3.1c-0.5-1.3-2.1-2.3-4.1-0.5c-0.1,0.1-0.1,0.2,0,0.3c0.1,0.2,0.3,0.1,0.5,0.1
					c0.5-0.3,1.1-0.4,1.7-0.4C4,29.8,4.6,31.7,2.6,33C2.4,33,2.2,33.1,2,33.3c-0.2,0.2-0.2,0.5,0,0.7c0.1,0.2,0.4,0.2,0.5,0.1
					C2.7,34,2.9,33.9,3,33.8c0.7,0,1.3,0.8,0.6,2.1c-0.3,0.5-0.7,1-1.2,1.4c-0.5,0.3-1,0.6-1.5,0.8c-0.1,0-0.2,0-0.3,0
					c-0.5,0.1-0.5,0.9,0.1,0.9c0.7,0,1.3,1,0.5,2c-0.5,0.6-1.3,1-2.1,1.1c-0.3-0.1-0.5-0.3-0.8-0.4c-0.2-0.1-0.4,0-0.5,0.2
					c-0.1,0.2-0.1,0.4,0,0.5c0.3,0.3,0.6,0.4,1,0.5c0.7,0.4,1.1,1.3,0.8,2.1c-0.5,1.1-2,1-3.2,0.7c-0.3-0.1-0.5,0.1-0.6,0.3
					c-0.1,0.2,0.1,0.5,0.3,0.5c0,0,0,0,0,0l0.1,0c0.6,0.1,1,0.4,1.4,0.8c0.1,0.2,0.2,0.4,0.1,0.6c-0.2,0.7-1.6,0.9-2.3,1
					c-0.5,0.1-1.1,0-1.6,0.1c-0.3,0-0.6,0.3-0.3,0.5c0.1,0.1,0.3,0.2,0.4,0.2c0.4,0.7-0.1,1.2-0.5,1.6c-0.7,0.7-1.7,1-2.7,0.8
					c-0.5-0.1-0.9-0.3-1.3-0.6c-0.2-0.1-0.4-0.1-0.5,0.1c-0.1,0.1-0.1,0.3,0,0.5c0.3,0.4,0.8,0.6,1.2,0.8c0.2,0.4-0.2,0.8-1,0.8
					c-1,0-1.9-0.3-2.6-0.9c-0.2-0.1-0.5,0-0.6,0.2c-0.1,0.2-0.1,0.4,0.1,0.5c0.2,0.2,0.5,0.4,0.8,0.5c0.3,0.3,0.4,0.7,0.2,1.1
					c-0.4,0.6-1.9,0-2.6-0.3c-0.9-0.4-1-0.4-1.1-0.3c0,0,0,0.1,0,0.2c0.5,1,2.7,2,3.9,1.5c0.6-0.3,0.9-0.9,0.8-1.5
					c0.8,0.2,1.6,0.2,2.4-0.1c1.1,1.4,2.6,2.5,4.2,3.1c-1.4,0.1-2.9-0.2-4.1-0.9l-0.1,0c-0.5-0.3-0.9,0.4-0.5,0.8
					c0.6,0.4,1.3,1,1.3,1.7c0.1,1-1.2,1.4-3,0.2c-0.4-1-1.1-1.7-2-2.2c-0.1-0.1-0.3-0.1-0.4,0c-0.1,0.1-0.1,0.3,0,0.4
					c0.1,0.2,0.2,0.4,0.3,0.5c0.3,0.6,0.7,1.1,1.2,1.6c0.2,2.4-4.3,1.3-5.7-2.7c0-0.2-0.2-0.3-0.3-0.3c0,0,0,0-0.1,0
					c-0.2,0.1-0.3,0.2-0.2,0.4c1.1,3.9,6.5,6.3,7.2,3.3c3.2,2,4.8-0.4,3.8-2.3c3.4,1.1,5.2-0.6,5.1-2.1c3.3,0.7,5.8-1.3,4.5-3.5
					c2.9,0.5,4.5-1.7,3.8-3.4c3.6,0.7,6.2-2.7,4.1-5.1c1.8-0.4,4.3-1.6,3.6-3.4c-0.2-0.4-0.4-0.6-0.8-0.8c0.2-0.1,0.4-0.2,0.6-0.3
					C13.5,39.3,14,39,14.5,38.6z"/>
			</g>
			<g id="Group_5860" transform="translate(9.378 27.259)">
				<path id="Path_29937" class="st0" d="M-18.4,38.8c-0.5,0.2-1.1,0.3-1.7,0.5c-0.1,0.1-0.2,0.2-0.1,0.4c0,0.1,0.1,0.1,0.2,0.2
					c1.5,0.2,3.4-0.6,3.7-2.1c0.1-0.6-0.1-1.2-0.6-1.5c1.9-1.1,2.6-3.4,1.1-4.1c0.5-0.7,0.8-1.6,0.9-2.5c0-0.5-0.4-1-0.9-1.1
					c0.2-0.6,0.4-1.2,0.4-1.9c0-0.4,0.1-1.2-0.4-1.4v0l0,0c-0.5-0.2-1,0.3-0.7,0.7c0.4,0.3,0.5,1,0.2,1.4v0
					c-0.3,0.6-0.4,1.3-0.7,1.9c-0.1,0.1-0.2,0.3-0.2,0.4c-0.2,0.4,0.5,0.8,0.7,0.4c0.1-0.2,0.4-0.9,0.7-0.7c0.2,0.2-0.1,0.8-0.1,1
					c-0.2,0.7-0.7,1.4-1.2,2l0,0c-0.1,0.2-0.1,0.4,0.1,0.6c0.2,0.2,0.4,0.2,0.6,0c0,0,0,0,0,0l0-0.1c0.2-0.3,1.1,0.3,0,1.6
					c-0.4,0.6-1,1-1.7,1.2c-1.2,0.1-0.8,0.9-0.4,0.8c0.3,0,0.6-0.1,0.8-0.2c0.1,0.1,0.3,0.2,0.4,0.3C-17,37.3-17.2,38.3-18.4,38.8z"
					/>
			</g>
			<g id="Group_5861" transform="translate(4.502 50.571)">
				<path id="Path_29938" class="st0" d="M-16.4,24.8c0-0.1,0-0.2-0.8-0.5c-1.8-0.7-1.6-1.4-2.2-1.9c-0.3-0.3-0.8,0.7,0.7,2
					C-17.4,25.3-16.4,25.1-16.4,24.8z"/>
			</g>
			<g id="Group_5862" transform="translate(6.935 49.345)">
				<path id="Path_29939" class="st0" d="M-15.3,24.8c0.1,0,0.1-0.2,0.1-0.3c0-0.1-0.1-0.1-0.1-0.1c-1.5-0.3-2.9-1-4.1-1.9
					c-0.3-0.2-0.6,0.2-0.3,0.4C-18.6,24.2-17,24.8-15.3,24.8z"/>
			</g>
			<g id="Group_5863" transform="translate(9.825 46.202)">
				<path id="Path_29940" class="st0" d="M-20.3,23c-0.4,0.6,3.8,2.3,5.8,1.5c0.1,0,0.2-0.1,0.1-0.2c0-0.3-0.3-0.3-1.1-0.2
					c-1.3,0-2.6-0.2-3.8-0.8C-19.4,23.1-20.1,22.7-20.3,23z"/>
			</g>
			<g id="Group_5864" transform="translate(16.769 35.097)">
				<path id="Path_29941" class="st0" d="M-20.8,24.3L-20.8,24.3c-0.1-0.1-0.3,0-0.3,0.1c-0.1,0.1,0,0.3,0.1,0.3l0,0
					c0.7,0.5,1.6,0.8,2.5,0.6c0.1,0,0.1-0.1,0.1-0.2c0-0.1-0.1-0.1-0.1-0.1C-19.4,24.9-20.1,24.7-20.8,24.3z"/>
			</g>
			<g id="Group_5865" transform="translate(18.546 34.428)">
				<path id="Path_29942" class="st0" d="M-21.1,24.4c-0.1-0.1-0.2,0-0.2,0c-0.1,0.1,0,0.2,0,0.2l0,0c1.8,1.4,4.1,0.7,3.5,0.1
					c-0.2-0.3-1.1,0.1-1.2,0.1C-19.8,24.9-20.5,24.8-21.1,24.4z"/>
			</g>
			<g id="Group_5866" transform="translate(20.726 33.753)">
				<path id="Path_29943" class="st0" d="M-21.5,24.9c2.1,0.2,2.2,0.4,2.5,0.2c0.1-0.1,0.2-0.2,0.1-0.4c0,0,0-0.1-0.1-0.1
					c-0.4-0.2-0.8-0.2-1.2-0.1c-1.1,0-1.6-0.2-1.6,0.2C-21.7,24.8-21.6,24.9-21.5,24.9z"/>
			</g>
			<g id="Group_5867" transform="translate(18.543 8.457)">
				<path id="Path_29944" class="st0" d="M-21.1,41.6c3.9-3.7,8.2-10.1,9.6-13.6c0-0.1,0-0.3-0.1-0.3c-0.1,0-0.2,0-0.3,0.1
					c-1.1,1.9-2,3.8-3.2,5.6c-1.8,2.8-3.8,5.4-6,7.9c-0.1,0.1-0.2,0.2-0.1,0.4C-21.3,41.6-21.2,41.6-21.1,41.6z"/>
			</g>
			<g id="Group_5868" transform="translate(8.093 0.606)">
				<path id="Path_29945" class="st0" d="M-19.8,55.6L-19.8,55.6c0.1-0.9,0.2-1.9,0.3-2.8c0.3-2.2,0.9-4.3,1.7-6.3
					c4.5-12.6,2.7-14.6,2.5-17.1c1,0.4,1.8,1.2,2.2,2.2c0.6,1.4,0.5,3.1,0.6,4.6c0,0.4,0.6,0.3,0.7,0c0.9-4.9-1.5-7.5-3.9-7.6
					c-0.2,0-0.4,0.1-0.4,0.3c0,0.1,0,0.1,0,0.2c0.1,0.2,0.2,0.4,0.3,0.6c0.4,1.5,0.6,3,0.4,4.5c-0.3,6-2.3,8.9-3.8,15.4
					c-0.6,1.9-0.9,3.9-1,5.9c0,0.1,0.1,0.2,0.2,0.2C-19.8,55.7-19.8,55.7-19.8,55.6L-19.8,55.6z"/>
			</g>
		</g>
		<g id="Group_5884" transform="translate(45.057 9.948)">
			<g id="Group_5870" transform="translate(4.097 0)">
				<path id="Path_29946" class="st0" d="M-19.5,70.4c-0.2,0.2-0.2,0.4,0,0.6c0,0,0,0,0,0c0.1,0.2,0.4,0.2,0.6,0c0,0,0,0,0,0
					c3.4-3.1,3.8-7.6,4.3-12c0.1-2.7,0.7-5.4,1.7-7.9c2-4.7,5.4-8.1,10.1-21.2c1.3,2.5,1.3,6,0.6,8.8c-2.5,3.9-4.1,6.8-6.3,10.8
					c-0.1,0.1,0,0.3,0.1,0.4c0.1,0.1,0.3,0,0.4-0.1c2.9-3,5-6.7,6.2-10.7c2.8-4.3,5.2-7.4,5.8-8.3c0.5-0.8,0.9-1.3,1.4-1.2
					c1.4,0.3,0,3.7-0.6,5c-1.2,2.6-2.1,2.9-1.6,3.4c0.1,0.1,0.3,0.2,0.5,0.1l0,0c0.7-0.8,1.4-1.6,2-2.5c0.1,0.7,0.1,1.5-0.1,2.2
					c-0.2,0.7-0.4,2.4-2.5,5.3c-2.4,3.5-5.6,6.4-9.3,8.5c-0.8,0.5-1.6,0.9-2.4,1.3c-0.4,0.2-0.1,0.8,0.3,0.6c0.8-0.3,1.7-0.7,2.5-1
					c2.5-1.3,4.8-3,6.8-5.1c0.7,0.3,6.5-6.2,8.5-9.7c0.2-0.4,0.6-1,1-1c1,0,0.5,2,0.4,2.7C10.2,42,9,44.4,7.3,46.3
					c-1.3,0.9-5.4,3.6-6.5,4.8c-0.2,0.1-0.4,0.3-0.3,0.6c0.1,0.2,0.3,0.4,0.6,0.3c0,0,0,0,0,0c2.5-1.1,4.7-2.7,6.4-4.8
					c3-2,3.9-2.5,4.6-2.3c0.2,0.1,0.4-0.3,0.1-0.4c-1.2-0.3-1.8,0-3.4,0.9c1.1-1.7,1.9-3.6,2.4-5.5c0.3-1,0.7-2.3,0-3.2
					C11,36.2,10.5,36,10,36.2c-0.5,0.2-0.9,0.6-1.1,1.1c-1.5,2.4-3.2,4.6-5,6.7c0.9-1.2,1.6-2.6,2.2-4c0.3-0.8,0.5-1.6,0.5-2.5
					c-0.1-0.8-0.2-1.6-0.5-2.4c0-0.1-0.1-0.1-0.2-0.1c0.3-0.8,0.6-1.7,0.7-2.6c0.1-0.9,0.3-2.1-0.4-2.9C5.8,29.2,5.4,29,5,29.1
					c-0.5,0.1-0.9,0.5-1.2,0.9c-1.8,2.4-3.6,4.9-5.4,7.6c0.2-1.3,0.3-2.7,0.2-4c-0.2-1.6-0.6-3.2-1.2-4.7c-0.1-0.2-0.3-0.3-0.5-0.2
					c-0.1,0-0.1,0.1-0.2,0.2c-1.8,4.2-3.3,8.3-5.8,12.9c-0.7,1.3-1.5,2.6-2.2,3.9c-4.6,8.1-3.5,9.6-4.6,16.7
					C-16.4,66.1-17.6,68.7-19.5,70.4z M-2.9,40.8C-3.8,43-5.1,45.1-6.6,47C-5.5,45-4.3,43-2.9,40.8L-2.9,40.8z"/>
			</g>
			<g id="Group_5871" transform="translate(40.993 18.772)">
				<path id="Path_29947" class="st0" d="M-24.2,26.3C-24.2,26.3-24.2,26.4-24.2,26.3C-24.2,26.3-24.2,26.3-24.2,26.3
					C-24.2,26.3-24.2,26.3-24.2,26.3L-24.2,26.3z"/>
			</g>
			<g id="Group_5872" transform="translate(40.866 18.634)">
				<path id="Path_29948" class="st0" d="M-24,26.6c0.1,0,0.1-0.1,0.1-0.2c0,0,0,0,0,0l0,0l-0.1,0l0,0c-0.1,0-0.1,0.1-0.1,0.2
					c0,0,0,0,0,0l0,0L-24,26.6L-24,26.6z M-24.1,26.4c0,0,0.1,0,0.1,0c0,0,0,0.1,0,0.1c0,0-0.1,0-0.1,0
					C-24.2,26.5-24.2,26.4-24.1,26.4z"/>
			</g>
			<g id="Group_5873" transform="translate(39.965 18.945)">
				<path id="Path_29949" class="st0" d="M-23.4,26.4c-0.1,0.5-0.3,1-0.6,1.3c0,0.1,0,0.2,0,0.2c0,0,0.1,0,0.2,0
					c0.4-0.4,0.7-0.9,0.7-1.5c0-0.1,0-0.2-0.1-0.2C-23.3,26.3-23.4,26.3-23.4,26.4z"/>
			</g>
			<g id="Group_5874" transform="translate(0 23.022)">
				<path id="Path_29950" class="st0" d="M14.5,38.6c1.4-1.4,0.9-2.9-1-3.5c2.3-1.3,6.2-4.5,4.1-6c-0.8-0.5-1.9-0.2-3,0.1
					c1-0.9,1.9-1.9,2.7-3c0-0.1,0-0.2-0.1-0.2c-0.1,0-0.1,0-0.2,0c-1,1.4-2.2,2.6-3.6,3.6c-1.8,0.7-3.6,1.6-5.1,2.7
					c-0.2,0.1-0.2,0.3-0.1,0.5c0.1,0.1,0.3,0.2,0.4,0.1c1.6-0.6,3.2-1.5,4.6-2.6c1.1-0.5,2.3-0.8,3.5-0.9c0.4,0,0.7,0.3,0.7,0.7
					c0,0.1,0,0.2-0.1,0.3c-0.4,1-2.6,3-5.3,4.2c-1.4-0.2-2.9,0.2-4,1.1c-0.2,0.2-0.3,0.5-0.1,0.7c0.1,0.1,0.3,0.2,0.4,0.2
					c1.4-0.2,2.8-0.5,4.1-1.1c1,0.1,2.5,0.8,2.1,1.7c-0.2,0.3-0.4,0.6-0.8,0.8c-0.9,0.6-1.8,1-2.8,1.3c-1.4-0.3-3-0.1-4.2,0.7
					C6.5,40.4,6.8,41,7.2,41c1.4,0,2.7-0.2,4-0.6c3,1,1.1,2.7-2.5,3c-0.2-0.1-0.5-0.2-0.7-0.2c-0.8-0.2-1.6-0.2-2.4,0
					c-0.2,0-0.4,0.2-0.4,0.4c0,0.2,0.1,0.4,0.4,0.4c0.8,0.2,1.7,0.2,2.5,0.2c2.3,1.3,0.2,5.4-4.2,3.3c-0.2-0.1-0.4-0.2-0.6-0.3
					c-0.2-0.1-0.5-0.1-0.6,0.2c0,0,0,0,0,0c-0.1,0.3-0.1,0.6,0.2,0.8c0.1,0.1,0.3,0.2,0.4,0.2c0.6,0.3,1,0.7,1.3,1.3
					c0.1,0.5-0.1,1.1-0.6,1.4c-1.1,1-2.7,0.4-4.2-0.2c-0.5-0.2-1,0.5-0.5,0.8c0.6,0.4,1.4,0.9,1.6,1.6c0.4,1.6-2.2,2.1-4.2,1.6
					c-0.7-0.8-1.7-0.8-1.8-0.2c0,0.3,0.3,0.4,0.7,0.6c0.2,0.1,0.3,0.2,0.5,0.2c0.3,0.6-0.1,1.6-1.2,1.9c0.1-0.1,0.1-0.2,0-0.3
					c0,0,0,0,0,0c-1.5-0.9-2.8-2-3.9-3.2c0.1-0.2,0.2-0.5,0.1-0.8c1.2,0.1,2.5-0.3,3.3-1.2c1.5,1,3.2,1.8,5,2.3
					c0.1,0,0.3-0.1,0.3-0.2c0-0.1,0-0.2-0.1-0.2c-0.9-0.4-1.8-0.8-2.7-1.2c-0.7-0.3-1.4-0.7-2.1-1.1c0.3-0.4,0.3-1,0.2-1.4
					c0.4,0,0.7,0,1.1,0c2.8-0.3,3.2-1.8,2.6-2.9c0-0.1-0.1-0.1-0.1-0.2c2.2-0.2,3.2-2.4,1.8-4c2.3-0.6,3.4-2.9,2-4.3
					c3.1-1.5,3.4-4.4,1.9-5.4c0.9-0.7,1.3-2,0.9-3.1c-0.5-1.3-2.1-2.3-4.1-0.5c-0.1,0.1-0.1,0.2,0,0.3c0.1,0.2,0.3,0.1,0.5,0.1
					c0.5-0.3,1.1-0.4,1.7-0.4C4,29.8,4.6,31.7,2.6,33C2.4,33,2.2,33.1,2,33.3c-0.2,0.2-0.2,0.5,0,0.7c0.1,0.2,0.4,0.2,0.5,0.1
					C2.7,34,2.9,33.9,3,33.8c0.7,0,1.3,0.8,0.6,2.1c-0.3,0.5-0.7,1-1.2,1.4c-0.5,0.3-1,0.6-1.5,0.8c-0.1,0-0.2,0-0.3,0
					c-0.5,0.1-0.5,0.9,0.1,0.9c0.7,0,1.3,1,0.5,2c-0.5,0.6-1.3,1-2.1,1.1c-0.3-0.1-0.5-0.3-0.8-0.4c-0.2-0.1-0.4,0-0.5,0.2
					c-0.1,0.2-0.1,0.4,0,0.5c0.3,0.3,0.6,0.4,1,0.5c0.7,0.4,1.1,1.3,0.8,2.1c-0.5,1.1-2,1-3.2,0.7c-0.3-0.1-0.5,0.1-0.6,0.3
					c-0.1,0.2,0.1,0.5,0.3,0.5c0,0,0,0,0,0l0.1,0c0.6,0.1,1,0.4,1.4,0.8c0.1,0.2,0.2,0.4,0.1,0.6c-0.2,0.7-1.6,0.9-2.3,1
					c-0.5,0.1-1.1,0-1.6,0.1c-0.3,0-0.6,0.3-0.3,0.5c0.1,0.1,0.3,0.2,0.4,0.2c0.4,0.7-0.1,1.2-0.5,1.6c-0.7,0.7-1.7,1-2.7,0.8
					c-0.5-0.1-0.9-0.3-1.3-0.6c-0.2-0.1-0.4-0.1-0.5,0.1c-0.1,0.1-0.1,0.3,0,0.5c0.3,0.4,0.8,0.6,1.2,0.8c0.2,0.4-0.2,0.8-1,0.8
					c-1,0-1.9-0.3-2.6-0.9c-0.2-0.1-0.5,0-0.6,0.2c-0.1,0.2-0.1,0.4,0.1,0.5c0.2,0.2,0.5,0.4,0.8,0.5c0.3,0.3,0.4,0.7,0.2,1.1
					c-0.4,0.6-1.9,0-2.6-0.3c-0.9-0.4-1-0.4-1.1-0.3c0,0,0,0.1,0,0.2c0.5,1,2.7,2,3.9,1.5c0.6-0.3,0.9-0.9,0.8-1.5
					c0.8,0.2,1.6,0.2,2.4-0.1c1.1,1.4,2.6,2.5,4.2,3.1c-1.4,0.1-2.9-0.2-4.1-0.9l-0.1,0c-0.5-0.3-0.9,0.4-0.5,0.8
					c0.6,0.4,1.3,1,1.3,1.7c0.1,1-1.2,1.4-3,0.2c-0.4-1-1.1-1.7-2-2.2c-0.1-0.1-0.3-0.1-0.4,0c-0.1,0.1-0.1,0.3,0,0.4
					c0.1,0.2,0.2,0.4,0.3,0.5c0.3,0.6,0.7,1.1,1.2,1.6c0.2,2.4-4.3,1.3-5.7-2.7c0-0.2-0.2-0.3-0.3-0.3c0,0,0,0-0.1,0
					c-0.2,0.1-0.3,0.2-0.2,0.4c1.1,3.9,6.5,6.3,7.2,3.3c3.2,2,4.8-0.4,3.8-2.3c3.4,1.1,5.2-0.6,5.1-2.1c3.3,0.7,5.8-1.3,4.5-3.5
					c2.9,0.5,4.5-1.7,3.8-3.4c3.6,0.7,6.2-2.7,4.1-5.1c1.8-0.4,4.3-1.6,3.6-3.4c-0.2-0.4-0.4-0.6-0.8-0.8c0.2-0.1,0.4-0.2,0.6-0.3
					C13.5,39.3,14,39,14.5,38.6z"/>
			</g>
			<g id="Group_5875" transform="translate(9.378 27.259)">
				<path id="Path_29951" class="st0" d="M-18.4,38.8c-0.5,0.2-1.1,0.3-1.7,0.5c-0.1,0.1-0.2,0.2-0.1,0.4c0,0.1,0.1,0.1,0.2,0.2
					c1.5,0.2,3.4-0.6,3.7-2.1c0.1-0.6-0.1-1.2-0.6-1.5c1.9-1.1,2.6-3.4,1.1-4.1c0.5-0.7,0.8-1.6,0.9-2.5c0-0.5-0.4-1-0.9-1.1
					c0.2-0.6,0.4-1.2,0.4-1.9c0-0.4,0.1-1.2-0.4-1.4v0l0,0c-0.5-0.2-1,0.3-0.7,0.7c0.4,0.3,0.5,1,0.2,1.4v0
					c-0.3,0.6-0.4,1.3-0.7,1.9c-0.1,0.1-0.2,0.3-0.2,0.4c-0.2,0.4,0.5,0.8,0.7,0.4c0.1-0.2,0.4-0.9,0.7-0.7c0.2,0.2-0.1,0.8-0.1,1
					c-0.2,0.7-0.7,1.4-1.2,2l0,0c-0.1,0.2-0.1,0.4,0.1,0.6c0.2,0.2,0.4,0.2,0.6,0c0,0,0,0,0,0l0-0.1c0.2-0.3,1.1,0.3,0,1.6
					c-0.4,0.6-1,1-1.7,1.2c-1.2,0.1-0.8,0.9-0.4,0.8c0.3,0,0.6-0.1,0.8-0.2c0.1,0.1,0.3,0.2,0.4,0.3C-17,37.3-17.2,38.3-18.4,38.8z"
					/>
			</g>
			<g id="Group_5876" transform="translate(4.502 50.571)">
				<path id="Path_29952" class="st0" d="M-16.4,24.8c0-0.1,0-0.2-0.8-0.5c-1.8-0.7-1.6-1.4-2.2-1.9c-0.3-0.3-0.8,0.7,0.7,2
					C-17.4,25.3-16.4,25.1-16.4,24.8z"/>
			</g>
			<g id="Group_5877" transform="translate(6.935 49.345)">
				<path id="Path_29953" class="st0" d="M-15.3,24.8c0.1,0,0.1-0.2,0.1-0.3c0-0.1-0.1-0.1-0.1-0.1c-1.5-0.3-2.9-1-4.1-1.9
					c-0.3-0.2-0.6,0.2-0.3,0.4C-18.6,24.2-17,24.8-15.3,24.8z"/>
			</g>
			<g id="Group_5878" transform="translate(9.825 46.202)">
				<path id="Path_29954" class="st0" d="M-20.3,23c-0.4,0.6,3.8,2.3,5.8,1.5c0.1,0,0.2-0.1,0.1-0.2c0-0.3-0.3-0.3-1.1-0.2
					c-1.3,0-2.6-0.2-3.8-0.8C-19.4,23.1-20.1,22.7-20.3,23z"/>
			</g>
			<g id="Group_5879" transform="translate(16.769 35.097)">
				<path id="Path_29955" class="st0" d="M-20.8,24.3L-20.8,24.3c-0.1-0.1-0.3,0-0.3,0.1c-0.1,0.1,0,0.3,0.1,0.3l0,0
					c0.7,0.5,1.6,0.8,2.5,0.6c0.1,0,0.1-0.1,0.1-0.2c0-0.1-0.1-0.1-0.1-0.1C-19.4,24.9-20.1,24.7-20.8,24.3z"/>
			</g>
			<g id="Group_5880" transform="translate(18.546 34.428)">
				<path id="Path_29956" class="st0" d="M-21.1,24.4c-0.1-0.1-0.2,0-0.2,0c-0.1,0.1,0,0.2,0,0.2l0,0c1.8,1.4,4.1,0.7,3.5,0.1
					c-0.2-0.3-1.1,0.1-1.2,0.1C-19.8,24.9-20.5,24.8-21.1,24.4z"/>
			</g>
			<g id="Group_5881" transform="translate(20.726 33.753)">
				<path id="Path_29957" class="st0" d="M-21.5,24.9c2.1,0.2,2.2,0.4,2.5,0.2c0.1-0.1,0.2-0.2,0.1-0.4c0,0,0-0.1-0.1-0.1
					c-0.4-0.2-0.8-0.2-1.2-0.1c-1.1,0-1.6-0.2-1.6,0.2C-21.7,24.8-21.6,24.9-21.5,24.9z"/>
			</g>
			<g id="Group_5882" transform="translate(18.543 8.457)">
				<path id="Path_29958" class="st0" d="M-21.1,41.6c3.9-3.7,8.2-10.1,9.6-13.6c0-0.1,0-0.3-0.1-0.3c-0.1,0-0.2,0-0.3,0.1
					c-1.1,1.9-2,3.8-3.2,5.6c-1.8,2.8-3.8,5.4-6,7.9c-0.1,0.1-0.2,0.2-0.1,0.4C-21.3,41.6-21.2,41.6-21.1,41.6z"/>
			</g>
			<g id="Group_5883" transform="translate(8.093 0.606)">
				<path id="Path_29959" class="st0" d="M-19.8,55.6L-19.8,55.6c0.1-0.9,0.2-1.9,0.3-2.8c0.3-2.2,0.9-4.3,1.7-6.3
					c4.5-12.6,2.7-14.6,2.5-17.1c1,0.4,1.8,1.2,2.2,2.2c0.6,1.4,0.5,3.1,0.6,4.6c0,0.4,0.6,0.3,0.7,0c0.9-4.9-1.5-7.5-3.9-7.6
					c-0.2,0-0.4,0.1-0.4,0.3c0,0.1,0,0.1,0,0.2c0.1,0.2,0.2,0.4,0.3,0.6c0.4,1.5,0.6,3,0.4,4.5c-0.3,6-2.3,8.9-3.8,15.4
					c-0.6,1.9-0.9,3.9-1,5.9c0,0.1,0.1,0.2,0.2,0.2C-19.8,55.7-19.8,55.7-19.8,55.6L-19.8,55.6z"/>
			</g>
		</g>
	</g>
</g>
</svg>
