<svg xmlns="http://www.w3.org/2000/svg" viewBox="0 0 384.08 390.76"><defs><style>.cls-1{opacity:0.3;}.cls-2{fill:#b69564;}</style></defs><g id="圖層_2" data-name="圖層 2"><g id="_0-ui_kits" data-name="0-ui_kits"><g id="Group_3429" data-name="Group 3429" class="cls-1"><g id="Group_3423" data-name="Group 3423"><path id="Path_25037" data-name="Path 25037" class="cls-2" d="M341.13,94.06a22.84,22.84,0,0,1-5.33-.81c-2.9-.94-5-4.72-5.81-7.77-2.1-8,5.69-14,4.46-21.83-1.08-6.9-7.08-10.55-13.51-11.39-6.59-.86-12.71,2.17-19.18,2.23-7,.06-11.33-5-12.5-11.5-1.11-6.18-1.52-12.29-5.09-17.71A12.66,12.66,0,0,0,270,20c-3.48.9-6.15,3.72-9.11,5.58-3.84,2.4-9.05,1-13-.41-8.49-3.14-10-13.07-15.06-19.49C229,.74,222.44-.38,216.54.44c-5.57.77-9,4.49-12.16,8.76s-7.54,7.76-13.1,5c-4.36-2.14-6.34-7.59-9.5-11-4.5-4.9-10.15-3-15,.07-.56.36-.39,1.41.36,1.34,3.23-.32,7-1.59,9.9.26,2.06,1.31,3.43,3.92,4.73,5.9,2.93,4.47,6.51,8.58,12.17,9.13,5.88.57,10.19-2.23,13.75-6.64a42.56,42.56,0,0,1,4.87-5.52c2.56-2.23,5.86-2.24,9.06-2.07,8.29.42,10.12,9.4,13.77,15.34a20.92,20.92,0,0,0,8.41,8.3,27.77,27.77,0,0,0,13,3c3.88-.06,6.93-1.76,10-4,2.83-2.1,6.14-4.31,9.74-2.63,5.15,2.41,6.26,10.7,6.88,15.63.68,5.52,2,10.55,6.24,14.47s10.07,5,15.55,4.29,10.82-2.84,16.5-1.85a8.76,8.76,0,0,1,6.33,4.25c2,3.28-.28,7.07-1.71,10.08-2.88,6.07-3.26,12.38-.48,18.55a14.75,14.75,0,0,0,10.9,8.44c3.84.61,20.48-.48,19,6.13-.8,3.72,4.89,5.31,5.72,1.58C364.05,95.23,349.29,94.67,341.13,94.06Z"/><path id="Path_25038" data-name="Path 25038" class="cls-2" d="M76,54.2c-5.21,2.43-11.38,0-16,3.83-6.17,5.11-4,15.78-4.4,22.62C55.1,88.74,50.7,93.31,42.9,94.83,36.79,96,30.3,96.7,25.45,101a15.73,15.73,0,0,0-4.26,7.75,25.83,25.83,0,0,0-.2,12.08c1,3.91,4.23,6.76,4.76,11,.44,3.53-1.66,6.37-4,8.75-4.59,4.68-10.5,7.87-14.18,13.44-3.77,5.72-2,13.21,1.47,18.47,3.53,5.42,10.92,11.85,8.61,19-1.7,5.26-9,8.46-12.75,12.07-5.06,4.84-6.66,11.86-2.69,17.94s11.85,9.11,18.6,10.68c3.43.8,4.88-4.48,1.45-5.27-5.91-1.35-12.94-3.78-16.16-9.33s2.43-10.5,6.42-13.61,8.22-6.11,10.15-11.1c2.35-6.05-1.47-12.48-4.89-17.22-4-5.61-8.63-10.42-6.24-17.76,1-3.08,4.06-5.36,6.46-7.36a103.84,103.84,0,0,0,8-6.86c4.93-5,6.27-11.45,3.35-18-.8-1.79-1.74-3.49-2.68-5.21-1.14-2-1-4-.81-6.27.32-3.86.78-7.27,3.82-10,4.48-4,12.28-3.6,17.72-5.28A17.58,17.58,0,0,0,59.6,86.34c2.07-8.07-2-17.46,2.56-24.9,1.42-2.31,4.73-2.46,7.08-3,2.82-.69,5.23-1.32,7.43-3.3C77.19,54.64,76.52,53.93,76,54.2Z"/><path id="Path_25039" data-name="Path 25039" class="cls-2" d="M383.52,206.47c-1.83-6.94-7.5-10.8-12.33-15.54-3.06-3-6.22-7.12-5.6-11.68.57-4.21,4.61-7,7.24-10,5.69-6.46,4.6-16.3.09-23.13-3.79-5.76-10.85-7.84-14.95-13.13a7.13,7.13,0,0,1-4.2,1.94c2.11,3.05,5.38,5.36,8.4,7.46,6.33,4.41,10.81,10.74,9.27,18.89-.61,3.25-3.33,5.51-5.55,7.73-2.76,2.76-4.94,5.75-5.51,9.7-1.08,7.47,4.48,13.78,9.66,18.37,4.54,4,10.3,9.34,8.39,16.15-.95,3.39-4.55,4.59-7.42,5.78a23.09,23.09,0,0,0-8.22,5.6c-4.74,5.12-5.68,12.66-4.77,19.32,1.2,8.72,9.2,14.85,9.48,23.67.24,7.52-8.48,8.73-13.82,11.07-7.35,3.23-12.16,9.15-12.72,17.3-.3,4.54,1.71,8.41,3.24,12.53,1.94,5.22-1.95,8.45-4.67,12.4-2,3,2.79,5.76,4.82,2.82,2.2-3.18,4.86-5.8,5.81-9.64,1-4.24-1-8.25-2.59-12.06-3.08-7.52.92-14.54,7.69-18,5-2.54,10.9-3.27,14.79-7.7,4.85-5.55,3-13.68-.11-19.55-1.85-3.46-4.31-6.57-5.67-10.28a22.5,22.5,0,0,1-.55-11.74,14.42,14.42,0,0,1,4.57-7.84c2.75-2.52,6.5-3.23,9.63-5.1C383.4,218.6,385.08,212.37,383.52,206.47Z"/><path id="Path_25040" data-name="Path 25040" class="cls-2" d="M115.71,348.34c-7.7-3.42-14.31.75-21.14,4.21-5.94,3-13.25,3.79-15.74-3.6-2.08-6.15,0-13-.92-19.3-1-7.18-6.41-11.7-13.8-11.23-4.17.27-8.38,2.14-12.56,1.06-3.87-1-8.56-4.76-10.62-8.12-2.18-3.53,1.08-7.57,2.62-10.65,1.63-3.27,1.44-7.29.67-10.76-1.52-6.86-7.58-11.56-13.76-14-6-2.38-13.67-1.51-15.59-9.27-2.38-9.62,8.52-14.21,12-21.58a13.56,13.56,0,0,0-.34-11.81c-1.93-3.54-6-5.25-9.68-6.27a.63.63,0,0,0-.78.46.64.64,0,0,0,.15.61c2.25,2.35,5.27,4.55,6.5,7.64,1.37,3.43,0,7.34-2.22,10C16,251,10.82,254.5,9.7,261.86a14.72,14.72,0,0,0,7.1,15.3,21.61,21.61,0,0,0,8.78,2.73c3.8.44,7.57,2.75,10.22,5.39A13.13,13.13,0,0,1,39.51,295c-.08,3.82-3,7.36-4.25,11-2.67,7.78,5.82,14,11.53,17.25,3.55,2,7.1,2.06,11.05,1.63,4.4-.47,9.17-2.58,12.94.93,2.12,2,2,5.9,2.06,8.53,0,3.38-.36,6.75-.21,10.13.33,7.76,4.26,14.71,12.43,15.74,4.47.57,9.18-1.45,13.07-3.41,4.42-2.24,9.74-6.06,14.86-3.79C116.15,354.4,118.89,349.75,115.71,348.34Z"/><path id="Path_25041" data-name="Path 25041" class="cls-2" d="M342.5,316.07c-4.08,7.19-13.77-.6-19.38-1.61-6.83-1.21-13.42,2.93-16.3,9.07-4.5,9.6,1.57,25.43-9.49,31.25-5.67,3-12.61-3.06-17.42-5.35-5.78-2.75-12.36-2.42-17.37,1.87a15.36,15.36,0,0,0-4.67,7.38c-1,3.4-.42,7-1,10.42-.55,3.13-2.57,4.8-5.29,6.18-3.19,1.6-6.1,2.87-9.67,1.81-5.51-1.63-9.72-7.24-14.53-10.21-4.4-2.7-9.88-4.22-14.53-1.3-7.48,4.72-8.14,18.69-17.87,19.68-10.45,1.05-12.73-12.2-17.83-18.61a15.42,15.42,0,0,0-12.72-6c-6.36,0-11.14,4.19-15.15,8.65-3.38,3.76-8.3,10.33-14.18,8.58-4.07-1.21-6.3-7.07-7.76-10.55-2.18-5.15-6.3-21.1-14.92-15.43a1.92,1.92,0,0,0,1.94,3.32c2.41-1.31,3.62,1.89,4.5,3.75,1.8,3.79,3,7.85,4.66,11.7,3.19,7.45,8.78,15.08,17.91,11.75,9.51-3.47,16.66-22.14,28.68-15.2,3.81,2.2,5.73,7.16,7.63,10.87,2.11,4.12,4.53,8.16,8.55,10.66s10.11,2.5,14.46.5,6.8-6.88,9-10.76c1.71-3.08,4-8.73,8.13-9.17,5.62-.61,11.1,5.38,15.06,8.54,4.71,3.76,9.76,6.06,15.84,4.51s12-5.55,13.4-11.86c.72-3.19.21-6.48.84-9.66a9.66,9.66,0,0,1,6.56-7.31c6-2.22,11.75,3.15,16.9,5.51,7,3.2,15,2,19.6-4.53,4.2-5.94,3.75-13.63,4.18-20.55.2-3.23.64-6.51,2.31-9.34,2.83-4.77,7.87-5.52,12.73-3.91,4.17,1.38,7.54,3.55,12,3.9,4.33.34,8-2.14,10-5.82C348.94,315.73,344.26,313,342.5,316.07Z"/><path class="cls-2" d="M91.68,51.31c-.86-.43-1.71-.88-2.59-1.27C86.81,52,84,53.88,81.37,53.46a31.36,31.36,0,0,0-8.59-.53c-5.35.61-11.22,3.33-14.12,8-.79,1.27,1.14,2.34,2,1.15,3.94-5.58,11.85-6.6,18-5.27,3.16.68,4.86,1.06,7.92-.24a33.55,33.55,0,0,0,6.58-4.2c-.44-.3-.86-.64-1.27-1A2.4,2.4,0,0,1,91.68,51.31Z"/><path class="cls-2" d="M171.93.2c-2.74,1.3-6,1.61-8.37,3.58a74.85,74.85,0,0,0-7.18,7.51c-4.69,5.13-7.89,11.28-15,13.3-7.44,2.12-13.62-1.7-19.88-4.95a16.66,16.66,0,0,0-17.63,1.25c-3.94,3-5.25,7.87-6.16,12.51a59.82,59.82,0,0,1-1.6,6.82c.84.65,1.59,1.39,2.4,2.08a8.65,8.65,0,0,1,1.34,1.37,41.16,41.16,0,0,0,2-6.93c1-4.7,1.56-10.23,6.11-12.87,7.22-4.19,12.75,1.56,19.1,4.11a25.65,25.65,0,0,0,18.88.09c6.11-2.49,9.67-8.62,13.84-13.37,2.32-2.64,4.7-5.67,7.56-7.73,1-.72,2.89-.84,4-1.27A6.55,6.55,0,0,0,174.71,3C176,1.15,173.6-.6,171.93.2Z"/><path id="Path_25043" data-name="Path 25043" class="cls-2" d="M362.49,135.84a15.05,15.05,0,0,1-5.35-5.43c-2-3.51,0-8.21,1.71-11.44,3-5.48,5.1-12.31.41-17.58-1.14-1.28-2.9.15-2.55,1.53l0,0c.34,2.38,1.17,4.46.82,6.92a18.49,18.49,0,0,1-2.26,5.74c-1.86,3.54-3.44,7.08-3.85,11.1-.46,4.51,4.94,15,10.6,13a2.13,2.13,0,0,0,.51-3.85Z"/><path id="Path_25044" data-name="Path 25044" class="cls-2" d="M338.73,183.7c-.77-5.14-1.72-10.24-2.71-15.34-1.71-8.81-3.66-18-6.95-26.42-3.17-8.08-8.38-15.91-13.79-22.68-7.68-9.61-16.71-18-26-26-2.49-2.14-6.07,1.29-3.66,3.62,6.69,6.44,13.5,12.79,19.72,19.68,6.36,7,11.22,14.77,15.86,23,4.46,7.86,5.51,17.32,7.83,25.91,2.57,9.5,3.81,19.78,4.83,29.53.49,4.75-.53,10.07-1.32,14.74a124.27,124.27,0,0,1-3.63,15,216,216,0,0,1-9.79,25.58c-7.16,16.24-16,32-27.85,45.36-23.71,26.82-60.28,40.63-95.58,43.6a135.53,135.53,0,0,1-56.8-7.15c-18.89-6.67-34.44-18-49.55-30.73-2.65-2.24-5.41-4.36-8.11-6.54-.08-.06-.18,0-.11.11,12.9,13.45,27,26.22,44,34.48a140.18,140.18,0,0,0,54.45,14.48c34.71,1.82,72.08-8.88,99.74-29.76,14-10.53,24.93-24.16,33.83-39a229.65,229.65,0,0,0,21.87-48.75,110.61,110.61,0,0,0,5.23-28.91C340.33,192.85,339.41,188.21,338.73,183.7Z"/><path id="Path_25045" data-name="Path 25045" class="cls-2" d="M69.93,100.88a201.24,201.24,0,0,0-18.29,29.8A112.06,112.06,0,0,0,40.39,163,153.18,153.18,0,0,0,39,202.21c1.21,12.69,8.7,24,11.16,36.48,0,.11.19.06.17-.05-1.83-11.67-6.41-22.72-8.4-34.35-1.1-6.46-.26-13.65.24-20.13.51-6.7,1.07-13.5,2.21-20.12,1.95-11.29,6.43-21.94,11.8-32s12.08-19.11,17.33-29.11C74.72,100.54,71.49,98.83,69.93,100.88Z"/><path id="Path_25046" data-name="Path 25046" class="cls-2" d="M265.57,68.56c-4.39-4.35-10.41-7.39-15.93-10.05a113.76,113.76,0,0,0-18-6.66A284.93,284.93,0,0,0,192.85,44a68.35,68.35,0,0,0-19.27.14c-7.35,1.07-14.09,3.83-21.1,6.16-6.4,2.13-13.12,3.9-19.21,6.84-6.37,3.08-11.81,7.7-18,11.14a.06.06,0,1,0,.06.1c5.73-2.67,11.13-6,16.8-8.79,6.2-3,13.22-4.6,19.81-6.58S165,48.79,171.8,47.92a69.93,69.93,0,0,1,20.87.88c12.22,2.16,24.62,4.59,36.58,7.93A113,113,0,0,1,246,62.78c5.9,2.71,11,6.57,16.58,9.71C265,73.87,267.62,70.59,265.57,68.56Z"/><path id="Path_25047" data-name="Path 25047" class="cls-2" d="M177.53,13.26c.54-1-.52-2.49-1.7-1.73-3.09,2-5.27,5.8-6.82,9a1.09,1.09,0,0,0,.45,1.49,1.11,1.11,0,0,0,1.27-.16,27.68,27.68,0,0,0,3.44-4c.8-1.08,1.68-2.16,2.48-3.27a.65.65,0,0,0,.53-.5,1.56,1.56,0,0,1,.14-.48l.24-.38Z"/><path id="Path_25048" data-name="Path 25048" class="cls-2" d="M181.62,13.22c-4.84,4.42-8.3,10.7-10.77,16.69-.5,1.23,1.34,1.78,2,.85,3.56-5,6.53-10.45,9.86-15.6a.89.89,0,0,0,.45-.54l.13-.43a1,1,0,0,0-1.67-1Z"/><path id="Path_25049" data-name="Path 25049" class="cls-2" d="M186.26,18.51a.58.58,0,0,0-.74-.39.55.55,0,0,0-.39.39c-1,3.21-3.7,6.4-5.48,9.22s-4.46,6.16-4.75,9.64a.92.92,0,0,0,.94.9.93.93,0,0,0,.77-.44c1.85-3.38,4-6.62,5.88-10C183.6,25.79,187.18,21,186.26,18.51Z"/><path id="Path_25050" data-name="Path 25050" class="cls-2" d="M187.18,26.67c-.71,2.26-2.07,4.18-3.14,6.27-.51,1,.83,2.19,1.62,1.25a15.9,15.9,0,0,0,3.53-7,1,1,0,0,0-2-.56Z"/><path id="Path_25051" data-name="Path 25051" class="cls-2" d="M229.57,13.62c-1.45,1.41-2.9,2.82-4.3,4.28-1.2,1.24-2.5,2.5-3,4.21a1.07,1.07,0,0,0,1.57,1.2,15,15,0,0,0,3.42-3.37c1.34-1.52,2.75-3,4.16-4.41a1.35,1.35,0,0,0-1.9-1.91Z"/><path id="Path_25052" data-name="Path 25052" class="cls-2" d="M233.47,18.21c-.29-1.33-2.16-.73-2,.55.24,1.75-3.3,4.3-4.32,5.61a80.73,80.73,0,0,0-4.72,6.6c-.62,1,.85,2.18,1.66,1.28,2.43-2.7,4.26-6.06,6.86-8.57C232.54,22.17,234,20.5,233.47,18.21Z"/><path id="Path_25053" data-name="Path 25053" class="cls-2" d="M236.79,22.15c-4.73,5.26-9.83,10.26-13.1,16.61a1.12,1.12,0,0,0,1.94,1.13c4-5.58,8.45-10.75,12.94-16C239.62,22.71,237.88,20.93,236.79,22.15Z"/><path id="Path_25054" data-name="Path 25054" class="cls-2" d="M237.23,30.86c-.27,4-4.12,6.4-5,10.17a.92.92,0,0,0,.68,1.11.93.93,0,0,0,1-.4c2.27-3.33,5.4-6.64,5.52-10.88C239.48,29.42,237.32,29.45,237.23,30.86Z"/><path id="Path_25055" data-name="Path 25055" class="cls-2" d="M241.74,37.34c-.74,1.46-1.54,2.9-1.32,4.59a1.2,1.2,0,0,0,.86,1.12,1.18,1.18,0,0,0,1.44-.81,14.89,14.89,0,0,1,1.33-3.55C244.8,37.16,242.53,35.8,241.74,37.34Z"/><path id="Path_25056" data-name="Path 25056" class="cls-2" d="M278.44,33.85a83.87,83.87,0,0,0-7.5,6.86c-1.89,2-3.94,4.26-4.28,7.08-.1.86,1.13,1.27,1.67.69,1.86-2,3.25-4.4,5.12-6.43a76,76,0,0,1,6.82-6.37C281.56,34.59,279.72,32.79,278.44,33.85Z"/><path id="Path_25057" data-name="Path 25057" class="cls-2" d="M280.14,39.94c0-.14-.21-.1-.25,0-1.36,3.61-4.82,5.49-7.42,8.07s-5.18,5.66-6.41,9.29c-.38,1.11,1.16,1.57,1.76.74,2.83-3.85,5.15-8,8.82-11.12C278.64,45.21,280.54,42.67,280.14,39.94Z"/><path id="Path_25058" data-name="Path 25058" class="cls-2" d="M283,45.27c-2.83,5.06-7.52,8.93-9.89,14.26a1.26,1.26,0,0,0,2.18,1.27c3-4.93,7.09-9.2,9.65-14.4C285.52,45.12,283.67,44,283,45.27Z"/><path id="Path_25059" data-name="Path 25059" class="cls-2" d="M287.08,50.29c-2.73,3.27-5.73,6.68-6.89,10.86-.34,1.25,1.6,2.14,2.14.9a49.59,49.59,0,0,1,6.43-10.47C289.49,50.62,287.85,49.36,287.08,50.29Z"/><path id="Path_25060" data-name="Path 25060" class="cls-2" d="M289.85,56.19a16.17,16.17,0,0,0-2.62,7.23c-.17,1.52,2,1.51,2.45.33a36.87,36.87,0,0,1,2.63-6.13C293.3,56.06,290.86,54.67,289.85,56.19Z"/><path id="Path_25061" data-name="Path 25061" class="cls-2" d="M318.7,65.64c-6.91,5.57-14.71,12.94-17.53,21.6-.38,1.18,1.22,1.65,1.86.78,5.48-7.37,10.58-14.44,17.74-20.32C322.24,66.51,320.16,64.48,318.7,65.64Z"/><path id="Path_25062" data-name="Path 25062" class="cls-2" d="M322.67,66.75c-5.32,8.8-14.07,15.87-17.53,25.72-.37,1.06,1.19,1.62,1.75.74a149.5,149.5,0,0,1,9-12.93,100,100,0,0,0,8.77-12.38,1.13,1.13,0,0,0-1.95-1.15Z"/><path id="Path_25063" data-name="Path 25063" class="cls-2" d="M321.48,78.84c-4,5.12-8.35,10-10.65,16.19-.45,1.22,1.46,2,2.07.87a151.26,151.26,0,0,1,10.5-15.59C324.22,79.2,322.33,77.74,321.48,78.84Z"/><path id="Path_25064" data-name="Path 25064" class="cls-2" d="M324.29,86.86c-3.06,3.66-5.91,7.55-7.39,12.13a.92.92,0,0,0,.68,1.11.93.93,0,0,0,1-.4A109.63,109.63,0,0,1,325.75,88C326.38,87.14,325,86.05,324.29,86.86Z"/><path id="Path_25065" data-name="Path 25065" class="cls-2" d="M329.52,92.28c-4,2.79-6.46,7.18-7.76,11.82-.46,1.64,1.88,2.19,2.48.69,1.54-3.86,3.07-7.79,6.56-10.32C332.11,93.53,330.88,91.34,329.52,92.28Z"/><path id="Path_25066" data-name="Path 25066" class="cls-2" d="M335,96.87c-.63.62-1.32,1.16-1.95,1.79a6.42,6.42,0,0,0-1.61,2.8c-.43,1.5,1.94,2.59,2.58,1.09s1.93-2.41,3.1-3.56C338.47,97.64,336.34,95.52,335,96.87Z"/><path id="Path_25067" data-name="Path 25067" class="cls-2" d="M342.17,116.88c-2,3.41-4.49,7-5,11-.12.86,1.15,1.07,1.54.42,2-3.33,3.5-6.91,5.5-10.25a1.17,1.17,0,0,0-2-1.18Z"/><path id="Path_25068" data-name="Path 25068" class="cls-2" d="M350.16,112.42c-4.61,7.18-9,15.21-10.38,23.72a.83.83,0,0,0,1.6.44c2.89-8.06,6-15.86,10.46-23.18C352.48,112.33,350.83,111.38,350.16,112.42Z"/><path id="Path_25069" data-name="Path 25069" class="cls-2" d="M357.2,114.29c-.56-1.18-2.49-.34-2.09.88,0,.1-1.69,2.6-2.17,3.29-1.06,1.53-2.11,3-3.08,4.63a92.39,92.39,0,0,0-8.48,18.16c-.44,1.27,1.61,2.15,2.19.92,3-6.54,5.82-13.23,9.56-19.42C354.31,120.79,358.39,116.81,357.2,114.29Z"/><path id="Path_25070" data-name="Path 25070" class="cls-2" d="M353.85,128.58c-3.2,6.18-6.88,12.19-8,19.17-.23,1.53,2,2.24,2.38.66,1.63-6.64,4.68-12.51,7.68-18.6C356.65,128.41,354.58,127.17,353.85,128.58Z"/><path id="Path_25071" data-name="Path 25071" class="cls-2" d="M355.34,138.45a20.15,20.15,0,0,0-3.31,8.07,1,1,0,0,0,1.84.5,24.86,24.86,0,0,1,3.2-7.56C357.83,138.41,356.09,137.42,355.34,138.45Z"/><path id="Path_25072" data-name="Path 25072" class="cls-2" d="M364.86,142a1.18,1.18,0,0,0-1.67,0l-1.28,1.33a1.15,1.15,0,0,0,1.62,1.62h0l1.33-1.28A1.18,1.18,0,0,0,364.86,142Z"/><path id="Path_25073" data-name="Path 25073" class="cls-2" d="M352.43,164c-1.3,4.3-3.4,8.25-5,12.43-.43,1.12,1.27,1.73,1.86.79a49.94,49.94,0,0,0,5.51-12.57,1.22,1.22,0,0,0-2.35-.65Z"/><path id="Path_25074" data-name="Path 25074" class="cls-2" d="M359.68,163.07c-4.71,9.15-10.53,18.26-13,28.34-.3,1.2,1.54,2.08,2.07.87,4.16-9.44,8.59-18.67,13.14-27.94C362.56,162.9,360.43,161.62,359.68,163.07Z"/><path id="Path_25075" data-name="Path 25075" class="cls-2" d="M363.82,165.16c-5.39,10.9-11.11,21.71-14.64,33.39-.46,1.52,1.8,2.08,2.33.65,4.2-11.22,9.12-22.11,14-33C366,165,364.39,164,363.82,165.16Z"/><path id="Path_25076" data-name="Path 25076" class="cls-2" d="M359.93,184.06c-2.83,4.21-5.44,9.64-5.3,14.82a.94.94,0,0,0,1.83.24c1.54-4.9,2.4-9.62,5.14-14.08C362.26,184,360.62,183,359.93,184.06Z"/><path id="Path_25077" data-name="Path 25077" class="cls-2" d="M363.25,191.59c-2,2-3.83,6.56-.42,8.21a1.08,1.08,0,0,0,1.09-1.86c-1.59-1.05-.05-3.8.88-4.8S364.24,190.58,363.25,191.59Z"/><path id="Path_25078" data-name="Path 25078" class="cls-2" d="M350.76,213.33c-2.5,3.56-5.29,6.89-7.85,10.4-.71,1,.88,2.2,1.68,1.3a89.6,89.6,0,0,0,8-10.65C353.27,213.24,351.51,212.26,350.76,213.33Z"/><path id="Path_25079" data-name="Path 25079" class="cls-2" d="M354.5,215.19c-4.71,6.5-11,13-12.42,21.15a1.15,1.15,0,0,0,.85,1.38,1.16,1.16,0,0,0,1.36-.77c2.88-7.67,7.71-13.86,12.32-20.53C357.52,215.12,355.41,213.93,354.5,215.19Z"/><path id="Path_25080" data-name="Path 25080" class="cls-2" d="M360.65,217c-7.11,8.83-15.9,17.73-18.34,29.18a.9.9,0,1,0,1.74.48c4.34-10.6,11.19-19.16,18.13-28.13C363,217.45,361.53,215.9,360.65,217Z"/><path id="Path_25081" data-name="Path 25081" class="cls-2" d="M363.37,219.72c-6.3,6.87-12.5,15.26-14.73,24.45a1.1,1.1,0,0,0,2.11.58A84.39,84.39,0,0,1,364.67,221C365.43,220.13,364.18,218.84,363.37,219.72Z"/><path id="Path_25082" data-name="Path 25082" class="cls-2" d="M356.44,240.79a9.63,9.63,0,0,0-2.79,5.28c-.22,1.37,1.63,2.39,2.38,1a17.3,17.3,0,0,1,2.55-4.14C359.94,241.53,357.81,239.39,356.44,240.79Z"/><path id="Path_25083" data-name="Path 25083" class="cls-2" d="M115.74,24.14c-1.28,2.66-2.51,5.66-2.38,8.67A1.24,1.24,0,0,0,114.64,34a1.22,1.22,0,0,0,1-.59c1.4-2.35,1.81-5.13,3-7.58C119.62,23.89,116.69,22.18,115.74,24.14Z"/><path id="Path_25084" data-name="Path 25084" class="cls-2" d="M122.83,27a1.07,1.07,0,0,0-2.14,0c-.54,4.66-3.55,8.94-3.25,13.67a1.07,1.07,0,0,0,1.1,1.05,1.09,1.09,0,0,0,1-.76C121.12,36.68,123.05,31.52,122.83,27Z"/><path id="Path_25085" data-name="Path 25085" class="cls-2" d="M126.55,29.58c-2,4.46-4.06,8.77-4.69,13.65-.18,1.35,2.11,1.65,2.37.32.88-4.46,2.7-8.55,4.47-12.72C129.32,29.38,127.2,28.1,126.55,29.58Z"/><path id="Path_25086" data-name="Path 25086" class="cls-2" d="M131,34.11a47.79,47.79,0,0,1-.42,7.56,1,1,0,0,0,.71,1.18,1,1,0,0,0,1.18-.66,27.53,27.53,0,0,0,.87-8.08,1.17,1.17,0,0,0-2.34,0Z"/><path id="Path_25087" data-name="Path 25087" class="cls-2" d="M77.09,54.3c-.13,3.07-1.63,6-1.23,9.12.13,1,1.68,1.43,1.9.25a54.78,54.78,0,0,0,1.41-9.37,1,1,0,0,0-2.08,0Z"/><path id="Path_25088" data-name="Path 25088" class="cls-2" d="M83,56.64c-1.35,5.06-3.51,10-3.64,15.24a.72.72,0,0,0,1.4.19c1.33-5,2.93-9.9,4.2-14.9a1,1,0,0,0-2-.53Z"/><path id="Path_25089" data-name="Path 25089" class="cls-2" d="M88.16,55.6C87.94,61,85.49,65.89,85,71.23c-.11,1.09,1.68,1.32,1.9.26C88,66.18,90.09,61.07,90.24,55.6,90.28,54.26,88.21,54.26,88.16,55.6Z"/><path id="Path_25090" data-name="Path 25090" class="cls-2" d="M93.27,61.46c0,1.62-.53,3.15-.28,4.78.12.79,1.39.74,1.54,0s.45-1.39.66-2.08a10.27,10.27,0,0,0,.36-2.7,1.14,1.14,0,0,0-2.28,0Z"/><path id="Path_25091" data-name="Path 25091" class="cls-2" d="M44.27,98.12a1.1,1.1,0,0,0-1.08,1.14,1.07,1.07,0,0,0,.32.75s0,0,0,.08a1.85,1.85,0,0,1,0,.47,13.45,13.45,0,0,1-.21,1.79,16.17,16.17,0,0,0-.3,3.4,1.25,1.25,0,0,0,2.49,0C45.69,104.39,47.57,97.82,44.27,98.12Z"/><path id="Path_25092" data-name="Path 25092" class="cls-2" d="M51.31,97.93a1.19,1.19,0,0,0-2.37,0,63.29,63.29,0,0,0,.29,10,1,1,0,0,0,1.16.63A.93.93,0,0,0,51,108,63.29,63.29,0,0,0,51.31,97.93Z"/><path id="Path_25093" data-name="Path 25093" class="cls-2" d="M56.51,97.93a1.18,1.18,0,0,0-1.22-1.12,1.17,1.17,0,0,0-1.12,1.12,54.54,54.54,0,0,1-.48,8.85,1,1,0,0,0,2,.54A33.28,33.28,0,0,0,56.51,97.93Z"/><path id="Path_25094" data-name="Path 25094" class="cls-2" d="M18.38,147.11c-.7,2-2.47,5.25-.93,7.28a.9.9,0,0,0,1.66-.45,18.7,18.7,0,0,1,.46-3.15c.3-1,.74-2,1.09-3C21.16,146.3,18.87,145.68,18.38,147.11Z"/><path id="Path_25095" data-name="Path 25095" class="cls-2" d="M25.16,141.51c-1,3.8-2.06,7.81-1.82,11.78a.74.74,0,0,0,1.47,0c.33-3.9.54-7.82.8-11.72C25.63,141.3,25.23,141.26,25.16,141.51Z"/><path id="Path_25096" data-name="Path 25096" class="cls-2" d="M30.4,141.26c-.19-1.29-2.43-1-2.27.31.46,3.82-.67,7.56.09,11.36a1.11,1.11,0,0,0,2.17-.29C30.12,148.83,31,145.06,30.4,141.26Z"/><path id="Path_25097" data-name="Path 25097" class="cls-2" d="M37.14,147c-.5-1.16.08-5.18-2-5.08a.28.28,0,0,0-.28.28.23.23,0,0,0,0,.14c.8,1.72.07,3.72.85,5.47C36.18,148.78,37.54,148,37.14,147Z"/><path id="Path_25098" data-name="Path 25098" class="cls-2" d="M19.6,195c0,2.71-.78,5.38-.39,8.08.14,1,1.75.93,1.92,0A52.32,52.32,0,0,0,22,195a1.22,1.22,0,0,0-2.44,0Z"/><path id="Path_25099" data-name="Path 25099" class="cls-2" d="M27,201.22c-1.35-3.37-1.15-6.61-1.13-10.16a1.13,1.13,0,0,0-2.26,0c-.07,3.69-.7,7.73,1.57,10.92C25.78,202.83,27.43,202.33,27,201.22Z"/><path id="Path_25100" data-name="Path 25100" class="cls-2" d="M31.45,198a41.21,41.21,0,0,1-.29-6.28,1.23,1.23,0,0,0-1.27-1.17,1.21,1.21,0,0,0-1.17,1.17c0,2.44,0,4.73,1.1,7C30.29,199.66,31.58,198.9,31.45,198Z"/><path id="Path_25101" data-name="Path 25101" class="cls-2" d="M27.47,235c-.32-1.9-3.15-1.08-2.87.79.56,3.87.27,7.93,1.5,11.67a1.29,1.29,0,0,0,2.52-.35A104.66,104.66,0,0,0,27.47,235Z"/><path id="Path_25102" data-name="Path 25102" class="cls-2" d="M34.81,245.5a26.75,26.75,0,0,1-1-7.55,1.3,1.3,0,0,0-2.6,0c0,2.91.09,5.82,1.73,8.32a1,1,0,0,0,1.39.35A1,1,0,0,0,34.81,245.5Z"/><path id="Path_25103" data-name="Path 25103" class="cls-2" d="M321.89,278.33a49.67,49.67,0,0,1-1,8.05,1.54,1.54,0,0,0,3,.82,31.21,31.21,0,0,0,1.57-8.87C325.45,276.06,321.92,276.06,321.89,278.33Z"/><path id="Path_25104" data-name="Path 25104" class="cls-2" d="M331.29,269.21c-.21,7.55-3.29,14.62-3.81,22.14-.1,1.53,2.47,1.9,2.7.36,1.12-7.54,3.94-14.81,4.06-22.5C334.27,267.3,331.34,267.31,331.29,269.21Z"/><path id="Path_25105" data-name="Path 25105" class="cls-2" d="M338.72,270.51c-.22,5.18-1.8,10.28-2.77,15.36a134.42,134.42,0,0,0-1.82,15.25c-.1,1.38,2.23,1.71,2.43.33.77-5.32,1.37-10.67,2.31-16,.87-5,2.2-9.92,2.26-15a1.21,1.21,0,0,0-2.41,0Z"/><path id="Path_25106" data-name="Path 25106" class="cls-2" d="M344.06,268.26c-2,7.54-2.24,15.34-2.34,23.09,0,.9,1.46,1.14,1.6.22,1.1-7.56,1-15.28,2.9-22.71a1.13,1.13,0,0,0-.78-1.38A1.11,1.11,0,0,0,344.06,268.26Z"/><path id="Path_25107" data-name="Path 25107" class="cls-2" d="M351.12,272.46c-.08,2.86-.81,5.63-1.07,8.47-.11,1.17,1.5,1.16,1.87.25a23.19,23.19,0,0,0,1.56-8.71,1.18,1.18,0,0,0-2.36,0Z"/><path id="Path_25108" data-name="Path 25108" class="cls-2" d="M357.7,276.57l-1.84,2.06a.5.5,0,0,0,.1.7.51.51,0,0,0,.6,0l2.06-1.85C359.25,276.92,358.26,275.94,357.7,276.57Z"/><path id="Path_25109" data-name="Path 25109" class="cls-2" d="M292.1,316.75c-.2-1.5-2.29-1.05-2,.1,0,.25-.06.52-.09.77a.68.68,0,0,0-.08.77,49.5,49.5,0,0,0-.12,8.78,1.31,1.31,0,0,0,2.62,0A49.72,49.72,0,0,0,292.1,316.75Z"/><path id="Path_25110" data-name="Path 25110" class="cls-2" d="M300,309.41c-.86.33-.8,1.71.22,1.68-.83,0-.8,2-1,3-.32,1.64-.46,3.31-.65,5a106.89,106.89,0,0,0-.92,15.28,1.26,1.26,0,0,0,2.52,0c.23-6.46.35-13.22,1.35-19.62C301.69,313.61,302.66,308.4,300,309.41Z"/><path id="Path_25111" data-name="Path 25111" class="cls-2" d="M308.19,306.5c-.62-1.1-2.13-.14-1.65,1,.87,2-.33,5-.87,7a36.44,36.44,0,0,0-1.15,6.39q-1,9.33-1.62,18.7c-.11,1.58,2.25,1.52,2.42,0,.77-7,1.32-14,1.84-21C307.45,314.77,310.24,310.16,308.19,306.5Z"/><path id="Path_25112" data-name="Path 25112" class="cls-2" d="M311.42,303.72c-.67,5.83-1.68,11.72-1.61,17.59a.82.82,0,0,0,.83.8.83.83,0,0,0,.77-.59c1.38-5.8,1.69-11.87,2.33-17.8C313.89,302.24,311.59,302.26,311.42,303.72Z"/><path id="Path_25113" data-name="Path 25113" class="cls-2" d="M319.13,306.61c-.52-1.72-3.23-1-2.7.74a24,24,0,0,1,.73,6.14,1.28,1.28,0,0,0,2.55,0A20.18,20.18,0,0,0,319.13,306.61Z"/><path id="Path_25114" data-name="Path 25114" class="cls-2" d="M323.42,309.58l.06,2a.16.16,0,0,0,.16.16.16.16,0,0,0,.17-.16l.06-2a.23.23,0,0,0-.45,0Z"/><path id="Path_25115" data-name="Path 25115" class="cls-2" d="M250.93,342.15c0,3.05.07,6.07.32,9.11a.76.76,0,0,0,1.52,0c.25-3,.3-6.06.32-9.11a1.08,1.08,0,0,0-2.16,0Z"/><path id="Path_25116" data-name="Path 25116" class="cls-2" d="M258.17,340.57c-2.7,9.47-5,19.05-5.32,28.93,0,1.47,2.08,1.4,2.24,0a225.58,225.58,0,0,1,5.1-28.38,1,1,0,0,0-2-.55Z"/><path id="Path_25117" data-name="Path 25117" class="cls-2" d="M265.11,337.9a74.1,74.1,0,0,0-3.17,18.57c-.08,1.28,2.07,1.59,2.25.31.87-6.13,1.51-12.27,3.38-18.2C268.06,337,265.61,336.35,265.11,337.9Z"/><path id="Path_25118" data-name="Path 25118" class="cls-2" d="M276.31,333.44a.88.88,0,0,0-1.11-.58.89.89,0,0,0-.6,1.06c.55,2.79-.79,5.73-1,8.55s-.6,5.83-.59,8.79a1.1,1.1,0,0,0,1.2,1,1.12,1.12,0,0,0,1-1c.11-3.31.5-6.6.61-9.91C276,338.54,277.07,336.28,276.31,333.44Z"/><path id="Path_25119" data-name="Path 25119" class="cls-2" d="M280.89,338.59a28.38,28.38,0,0,0-.47,8.77.9.9,0,0,0,.92.86.91.91,0,0,0,.87-.86,53.37,53.37,0,0,1,.84-8.17C283.38,337.78,281.21,337.19,280.89,338.59Z"/><path id="Path_25120" data-name="Path 25120" class="cls-2" d="M288.5,346c-.8-.93-2.18.44-1.35,1.35.55.6.41,1.84.45,2.58a.88.88,0,1,0,1.76,0A5.41,5.41,0,0,0,288.5,346Z"/><path id="Path_25121" data-name="Path 25121" class="cls-2" d="M150.58,356.16c-2.8,7.07-6.84,13.56-9.13,20.84-.4,1.27,1.64,2.17,2.19.92,3.07-7.05,6.66-13.87,9.22-21.13C153.38,355.33,151.13,354.77,150.58,356.16Z"/><path id="Path_25122" data-name="Path 25122" class="cls-2" d="M158.24,353.11a90,90,0,0,0-5.8,16.7,1.27,1.27,0,0,0,.95,1.55,1.3,1.3,0,0,0,1.53-.86c2.06-5.26,3.47-10.76,5.91-15.87C161.66,352.89,159.09,351.37,158.24,353.11Z"/><path id="Path_25123" data-name="Path 25123" class="cls-2" d="M165,354.87a19.85,19.85,0,0,0-1.27,7.47,1,1,0,0,0,2.09,0,32,32,0,0,1,1.34-6.87C167.56,354.09,165.43,353.52,165,354.87Z"/><path id="Path_25124" data-name="Path 25124" class="cls-2" d="M205.79,355.82c-.26,5.2-4.64,9.22-6.09,14.09a.9.9,0,0,0,1.63.69c2.83-4.47,6.75-9.28,7-14.78C208.44,354.17,205.87,354.17,205.79,355.82Z"/><path id="Path_25125" data-name="Path 25125" class="cls-2" d="M211.33,356.21c-2.11,6.75-4.16,13.53-6.61,20.16-.5,1.34,1.58,1.85,2.11.58,2.72-6.55,4.48-13.4,6.41-20.21a1,1,0,0,0-.72-1.21A1,1,0,0,0,211.33,356.21Z"/><path id="Path_25126" data-name="Path 25126" class="cls-2" d="M219.7,355.21c-2.57,5.32-4.12,11-5.72,16.64-.28,1,1.28,1.72,1.72.73,2.37-5.27,3.62-10.93,6.1-16.14C222.48,355,220.38,353.79,219.7,355.21Z"/><path id="Path_25127" data-name="Path 25127" class="cls-2" d="M225,362.71a1,1,0,0,0-2,.55,13.34,13.34,0,0,1,.41,3.07,8.19,8.19,0,0,0,.24,2.79,1,1,0,0,0,2,0C226.36,367.26,225.65,364.52,225,362.71Z"/><path id="Path_25128" data-name="Path 25128" class="cls-2" d="M96.51,342.12c-2.06,3.54-3,7.5-3.94,11.42a1.24,1.24,0,0,0,2.38.66c1.4-3.54,2-7.37,3.87-10.73a1.34,1.34,0,0,0-2.31-1.35Z"/><path id="Path_25129" data-name="Path 25129" class="cls-2" d="M102.4,340.53c-1.25,3.86-2.08,7.84-3.16,11.75a1.07,1.07,0,0,0,2.06.57c1.41-3.81,2.12-7.82,3.36-11.7C105.12,339.71,102.86,339.1,102.4,340.53Z"/><path id="Path_25130" data-name="Path 25130" class="cls-2" d="M110.85,336.94c-.24,5.38-3.67,9.74-4.27,15-.1.86,1.21,1.15,1.59.43,2.46-4.66,4.8-10.07,5-15.4C113.19,335.46,110.91,335.47,110.85,336.94Z"/><path id="Path_25131" data-name="Path 25131" class="cls-2" d="M116.57,339.54a49.12,49.12,0,0,1-1.07,7.53,1.09,1.09,0,0,0,.9,1.26,1.1,1.1,0,0,0,1.21-.68,28,28,0,0,0,1.53-8.11,1.29,1.29,0,0,0-2.57,0Z"/><path id="Path_25132" data-name="Path 25132" class="cls-2" d="M122.58,346.39c-.72,2.66-1.9,5.15-2.46,7.86a1,1,0,0,0,.75,1.24,1,1,0,0,0,1.24-.7c.85-2.61,2-5.1,2.75-7.77a1.18,1.18,0,0,0-2.28-.63Z"/><path id="Path_25133" data-name="Path 25133" class="cls-2" d="M54.3,313.53a21,21,0,0,0-2.66,6.82c-.27,1.2,1.54,2.1,2.07.88.93-2.15,1.43-4.47,2.67-6.48C57.21,313.42,55.14,312.24,54.3,313.53Z"/><path id="Path_25134" data-name="Path 25134" class="cls-2" d="M63.45,309.5a.32.32,0,0,0-.38-.21.31.31,0,0,0-.22.29c.11,3.77-2.13,7.34-3.7,10.64-.48,1,1,1.87,1.49.87C62.4,317.73,64.49,313.38,63.45,309.5Z"/><path id="Path_25135" data-name="Path 25135" class="cls-2" d="M70.3,309.22a96.1,96.1,0,0,0-4.35,15,1.15,1.15,0,0,0,2.21.61c1.56-5,3-10,4.77-14.92C73.54,308.3,70.91,307.59,70.3,309.22Z"/><path id="Path_25136" data-name="Path 25136" class="cls-2" d="M75.78,314.51c-.57,2.84-1.26,5.66-1.75,8.52a.88.88,0,0,0,1.69.46,73.5,73.5,0,0,0,2.15-8.41C78.15,313.72,76.06,313.14,75.78,314.51Z"/><path id="Path_25137" data-name="Path 25137" class="cls-2" d="M84.55,317.24a17.08,17.08,0,0,0-1.09,10.25,1.23,1.23,0,0,0,2.36,0c.5-2.85.28-6,1.52-8.62C88.21,317,85.41,315.34,84.55,317.24Z"/><path id="Path_25138" data-name="Path 25138" class="cls-2" d="M28.07,267.61a.32.32,0,0,0-.35.14c-.37.59-.2,1.57-.34,2.25a10.16,10.16,0,0,1-.9,2.62c-.6,1.15,1.22,2.15,1.71,1a10.05,10.05,0,0,0,.84-3.4C29.08,269.45,29.07,267.81,28.07,267.61Z"/><path id="Path_25139" data-name="Path 25139" class="cls-2" d="M36,266c-.14,3.58-2,6.83-3.08,10.17-.33,1,1.25,1.69,1.72.73,1.67-3.42,3.4-7,3.52-10.9C38.23,264.56,36.07,264.56,36,266Z"/><path id="Path_25140" data-name="Path 25140" class="cls-2" d="M43.5,264.76a.76.76,0,0,0-1.08,0,.73.73,0,0,0-.19.71c.81,3.78-1.95,8.28-2.82,11.91a1,1,0,0,0,1.89.53c.76-2.55,1.73-5,2.38-7.58C44.09,268.75,44.78,266.14,43.5,264.76Z"/><path id="Path_25141" data-name="Path 25141" class="cls-2" d="M48.88,269.21c0,2,0,3.9.2,5.86a1,1,0,0,0,1.09,1,1.06,1.06,0,0,0,1-1c.15-2,.19-3.9.2-5.86a1.25,1.25,0,0,0-2.49,0Z"/><path id="Path_25142" data-name="Path 25142" class="cls-2" d="M17.33,221a9.53,9.53,0,0,1-.39,3.56c-.53,1.43,1.69,2.3,2.42,1A9.33,9.33,0,0,0,20.41,221C20.46,219,17.28,219,17.33,221Z"/><path id="Path_25143" data-name="Path 25143" class="cls-2" d="M25.46,218.72a17.3,17.3,0,0,0-1.17,6.85,1.1,1.1,0,0,0,2.18,0,32.71,32.71,0,0,1,1.44-6.17C28.42,217.84,26,217.17,25.46,218.72Z"/><path id="Path_25144" data-name="Path 25144" class="cls-2" d="M34.2,218.31a.37.37,0,0,0-.71.2h0c.42,1.92-.14,3.84-.22,5.77,0,.73,1.15.74,1.15,0C34.42,222.24,34.91,220.29,34.2,218.31Z"/><path id="Path_25145" data-name="Path 25145" class="cls-2" d="M18,170.36c-1.18,1.92-1.39,4-1.87,6.16a.81.81,0,0,0,1.57.43c.76-1.85.94-3.86,2-5.57C20.43,170.29,18.68,169.26,18,170.36Z"/><path id="Path_25146" data-name="Path 25146" class="cls-2" d="M26.5,170.72a.93.93,0,0,0-.94,1.6c.36.27.17,1.33.14,1.69a7.17,7.17,0,0,0,.11,2.31.91.91,0,0,0,1.13.61.86.86,0,0,0,.61-.61C28,174.62,28.54,171.67,26.5,170.72Z"/><path id="Path_25147" data-name="Path 25147" class="cls-2" d="M32.36,118.12a3.53,3.53,0,0,1-.43,2.25c-.51.66.55,1.38,1.12.86a4.22,4.22,0,0,0,1-3.11.84.84,0,0,0-1.67,0Z"/></g><g id="Group_3425" data-name="Group 3425"><path id="Path_25148" data-name="Path 25148" class="cls-2" d="M229.83,70.7c-2.27,2.46-3.74,5.47-5.31,8.39a1.18,1.18,0,0,0,2,1.19c1.77-2.69,3.36-5.48,5-8.27a1.09,1.09,0,0,0-1.7-1.31Z"/><path id="Path_25149" data-name="Path 25149" class="cls-2" d="M239.85,76.3a6.16,6.16,0,0,1-1.21.86.59.59,0,0,0-.47.7.71.71,0,0,0,.15.3,47,47,0,0,0-5,7.88,1.19,1.19,0,1,0,2,1.2c2.19-3.11,4.15-6.36,6.35-9.47C242.6,76.57,240.84,75.46,239.85,76.3Z"/><path id="Path_25150" data-name="Path 25150" class="cls-2" d="M252.45,83.13a8.21,8.21,0,0,1-1,.33.66.66,0,0,0-.63.68.4.4,0,0,0,0,.15c-2.46,2.06-4.77,4.8-4.8,8a1,1,0,0,0,1,1,1,1,0,0,0,.82-.46c1.49-3.11,3.71-5.46,5.73-8.2C254.15,83.88,253.25,82.89,252.45,83.13Z"/><path id="Path_25151" data-name="Path 25151" class="cls-2" d="M262.57,90.07a1.17,1.17,0,0,1-.36.08.91.91,0,0,0-.87.94.77.77,0,0,0,0,.15,39.37,39.37,0,0,0-5.1,8.15,1,1,0,0,0,1.79,1c2.15-2.82,4.48-5.77,5.78-9.1a1,1,0,0,0-.73-1.27A1,1,0,0,0,262.57,90.07Z"/><path id="Path_25152" data-name="Path 25152" class="cls-2" d="M270.45,98a.93.93,0,0,0-1.55.9c.34,1.25-1.47,2.93-2.19,3.75a32.24,32.24,0,0,0-2.95,3.65c-.82,1.26,1.1,2.28,2,1.14C267.26,105.4,273,101,270.45,98Z"/><path id="Path_25153" data-name="Path 25153" class="cls-2" d="M281.18,105.8a21.46,21.46,0,0,0-8,7.4c-.77,1.17,1,2.56,1.94,1.5,2.15-2.44,4.47-5.15,7.34-6.76C283.83,107.15,282.6,105.1,281.18,105.8Z"/><path id="Path_25154" data-name="Path 25154" class="cls-2" d="M291.59,115.18a1.08,1.08,0,0,0-2,.83c.4,1.3-1.2,2.74-2,3.56-1.17,1.18-2.34,2.33-3.39,3.62a1.06,1.06,0,0,0,1.5,1.5C288.27,122.7,293.59,119.07,291.59,115.18Z"/><path id="Path_25155" data-name="Path 25155" class="cls-2" d="M299.79,124.22a56.29,56.29,0,0,0-6.18,6.82c-.56.78.55,1.9,1.34,1.33a57,57,0,0,0,6.81-6.18,1.4,1.4,0,0,0-2-2Z"/><path id="Path_25156" data-name="Path 25156" class="cls-2" d="M307.61,135.21c-1.95,2.38-4.54,4.11-6.35,6.61-.52.73.51,1.75,1.24,1.24a28.2,28.2,0,0,0,6.78-6.57C310,135.51,308.38,134.28,307.61,135.21Z"/><path id="Path_25157" data-name="Path 25157" class="cls-2" d="M315,147.64c-1.93,2.29-4.37,4.05-6.29,6.36a1.31,1.31,0,0,0,1.85,1.85,32.16,32.16,0,0,0,6.57-6.56C318,148,316,146.46,315,147.64Z"/><path id="Path_25158" data-name="Path 25158" class="cls-2" d="M316,161.18a45.61,45.61,0,0,1-3.91,5.07c-.6.65,0,2,.95,1.63,2.52-1,3.93-3.08,5.37-5.3C319.4,161.06,317,159.71,316,161.18Z"/><path id="Path_25159" data-name="Path 25159" class="cls-2" d="M317.92,175.22a1.39,1.39,0,0,0-1.91.5c-.3.57-.59,1.14-.91,1.7a12.77,12.77,0,0,1-.88,1.52,1.27,1.27,0,0,0,.2,1.54,1.3,1.3,0,0,0,1.8,0,9.65,9.65,0,0,0,2.2-3.36A1.42,1.42,0,0,0,317.92,175.22Z"/><path id="Path_25160" data-name="Path 25160" class="cls-2" d="M318.31,193a1.58,1.58,0,0,0-2.19,0,3,3,0,0,0-.92,2.74,1.43,1.43,0,0,0,2.76,0,.14.14,0,0,1,0-.06c0-.1.12-.2.18-.3v0a2.2,2.2,0,0,1,.14-.18A1.56,1.56,0,0,0,318.31,193Z"/><path id="Path_25161" data-name="Path 25161" class="cls-2" d="M174.92,55.93c-.6,1.78-1.58,3.5-1.51,5.42,0,.73,1,1.3,1.56.64a16.34,16.34,0,0,0,2.55-5.34C178.08,55,175.48,54.3,174.92,55.93Z"/><g id="Group_3424" data-name="Group 3424"><path id="Path_25162" data-name="Path 25162" class="cls-2" d="M190.55,57.44c-.49-.2-1.26,0-1.28.63-.3.56-.49,1.24-.8,1.79a14.14,14.14,0,0,0-1.38,3.07c-.45,1.51,1.72,2,2.29.63.66-1.59,2.06-3.25,2-5.05A1.15,1.15,0,0,0,190.55,57.44Z"/><path id="Path_25163" data-name="Path 25163" class="cls-2" d="M190.55,57.44Z"/></g><path id="Path_25164" data-name="Path 25164" class="cls-2" d="M199.14,60.7a29.13,29.13,0,0,0-2.5,7.94,1.12,1.12,0,0,0,2.16.6A59.22,59.22,0,0,1,201.36,62C202.07,60.51,199.86,59.21,199.14,60.7Z"/><path id="Path_25165" data-name="Path 25165" class="cls-2" d="M210.89,64.76c-.61,2.4-1.55,4.68-2.09,7.08-.2.87.95,1.73,1.61.94a17.74,17.74,0,0,0,3.22-7.26,1.42,1.42,0,0,0-2.74-.76Z"/><path id="Path_25166" data-name="Path 25166" class="cls-2" d="M219.67,70.2a1.09,1.09,0,0,0-2.18,0,7.31,7.31,0,0,1-.1,1.14,2.19,2.19,0,0,1-.1.34.41.41,0,0,0,0,.09l0,.06a.3.3,0,0,0-.08.08c-1,1.09.59,2.71,1.64,1.64A4,4,0,0,0,219.67,70.2Z"/></g><g id="Group_3427" data-name="Group 3427"><path id="Path_25167" data-name="Path 25167" class="cls-2" d="M63,224.65c-1.1.57-2.06,1.35-3.12,2a1.17,1.17,0,0,0,1.18,2c1.14-.51,2.11-1.26,3.2-1.82C65.76,226.08,64.48,223.91,63,224.65Z"/><path id="Path_25168" data-name="Path 25168" class="cls-2" d="M70,234a49.45,49.45,0,0,1-6.1,4.37c-.68.45-.27,1.69.58,1.38a17,17,0,0,0,6.72-4.55A.85.85,0,0,0,70,234Z"/><path id="Path_25169" data-name="Path 25169" class="cls-2" d="M76,245.25a9.45,9.45,0,0,0-2.87,1.53,11.85,11.85,0,0,0-2.17,2.41c-.66.9.66,2.22,1.56,1.56A18.29,18.29,0,0,1,76.69,248C78.37,247.34,77.68,244.65,76,245.25Z"/><path id="Path_25170" data-name="Path 25170" class="cls-2" d="M80.55,254c-2,2-4.23,3.78-6.12,5.89a.89.89,0,0,0,1.07,1.4c2.69-1.33,4.66-3.48,6.7-5.62A1.17,1.17,0,0,0,80.55,254Z"/><path id="Path_25171" data-name="Path 25171" class="cls-2" d="M87.56,263.53c-2,2.54-4.62,4.52-6.52,7.16-.74,1,.95,2.35,1.76,1.37,2.06-2.5,4.54-4.6,6.48-7.2C90,263.86,88.33,262.56,87.56,263.53Z"/><path id="Path_25172" data-name="Path 25172" class="cls-2" d="M93.78,270.84c-.93,3.48-4.82,5.52-6.47,8.67A1.19,1.19,0,0,0,89.17,281c2.9-2.57,6.7-5.27,7.63-9.27C97.26,269.71,94.29,268.89,93.78,270.84Z"/><path id="Path_25173" data-name="Path 25173" class="cls-2" d="M101.78,279.65c-2.58,3.22-5.45,6.39-6.94,10.28-.4,1.06,1.15,1.9,1.87,1.09,2.61-2.9,4.83-6.13,7.26-9.18C105.19,280.3,103,278.1,101.78,279.65Z"/><path id="Path_25174" data-name="Path 25174" class="cls-2" d="M108.06,289.56a32.44,32.44,0,0,0-3.19,7.93,1.21,1.21,0,0,0,2.33.65,56.72,56.72,0,0,1,3.14-7.24C111.09,289.38,108.82,288,108.06,289.56Z"/><path id="Path_25175" data-name="Path 25175" class="cls-2" d="M117.41,297.82c-.09,3-1,5.87-.88,8.85,0,.82,1.27,1.3,1.65.45a22.33,22.33,0,0,0,1.77-9.3,1.27,1.27,0,0,0-2.54,0Z"/><path id="Path_25176" data-name="Path 25176" class="cls-2" d="M128,307.3a26.9,26.9,0,0,0,.3,4.74,1.17,1.17,0,0,0,2.24,0,26.9,26.9,0,0,0,.3-4.74,1.42,1.42,0,0,0-2.84,0Z"/><path id="Path_25177" data-name="Path 25177" class="cls-2" d="M141.6,311.73a1.42,1.42,0,0,0-2.84,0c-.1,1.74-.63,4.14.34,5.68a1.26,1.26,0,0,0,1.74.42,1.3,1.3,0,0,0,.42-.42C142.23,315.87,141.7,313.47,141.6,311.73Z"/><path id="Path_25178" data-name="Path 25178" class="cls-2" d="M153,314.71a1.14,1.14,0,0,0-1.62.05,1.16,1.16,0,0,0,0,1.57,11.67,11.67,0,0,1,1.18,1.61,9.31,9.31,0,0,0,1.32,2.21,1.21,1.21,0,0,0,2-.84C156.16,317.36,154.36,315.83,153,314.71Z"/><path id="Path_25179" data-name="Path 25179" class="cls-2" d="M167.81,320a2.65,2.65,0,0,0-2.34-1.44,1.43,1.43,0,0,0-.07,2.86h0a2,2,0,0,0,.25.14c.24.11.48.16.71.26a1.25,1.25,0,0,0,1.22-.32A1.3,1.3,0,0,0,167.81,320Z"/><path id="Path_25180" data-name="Path 25180" class="cls-2" d="M182.65,316.15a3,3,0,0,0-.91-.3l-.64-.09a1.88,1.88,0,0,0-1.32.17,1.72,1.72,0,0,0-.62,2.35,1.31,1.31,0,0,0,.27.35,1.8,1.8,0,0,0,1.67.44l.64-.08a3.6,3.6,0,0,0,.91-.3,1.45,1.45,0,0,0,.65-2A1.16,1.16,0,0,0,182.65,316.15Z"/><g id="Group_3426" data-name="Group 3426"><path id="Path_25181" data-name="Path 25181" class="cls-2" d="M55.62,195.39a1.43,1.43,0,0,0-1-1.38,2.55,2.55,0,0,0-2.79,1.15c-.08.16-.14.33-.21.49a1.41,1.41,0,0,0,1,1.73,1.5,1.5,0,0,0,.73,0,5.21,5.21,0,0,0,.74-.3l.13-.08.08,0c-.35.14-.3.12.15-.07a1.61,1.61,0,0,0,.28-.17h0A1.42,1.42,0,0,0,55.62,195.39Z"/><path id="Path_25182" data-name="Path 25182" class="cls-2" d="M54.69,196.73h0C54.85,196.67,54.77,196.68,54.69,196.73Z"/></g><path id="Path_25183" data-name="Path 25183" class="cls-2" d="M56.72,206.11a5.28,5.28,0,0,0-2,.11,9.77,9.77,0,0,1-1.77.37c-1.85.1-1.88,2.92,0,2.89a24.48,24.48,0,0,0,4.14-.83,1.29,1.29,0,0,0,1-1.25A1.32,1.32,0,0,0,56.72,206.11Z"/><path id="Path_25184" data-name="Path 25184" class="cls-2" d="M56.92,218.07a.74.74,0,0,0-.86.4H56l-.22,0a1,1,0,1,0,0,2c.84-.15,1.87-.56,1.73-1.62A.76.76,0,0,0,56.92,218.07Z"/></g><g id="Group_3428" data-name="Group 3428"><path id="Path_25185" data-name="Path 25185" class="cls-2" d="M79.42,124.87a5.51,5.51,0,0,0-1.83-.91,10.63,10.63,0,0,1-1.84-.58,1.41,1.41,0,0,0-1.89.5,1.38,1.38,0,0,0,.5,1.89,22.64,22.64,0,0,0,4.19,1.16,1.13,1.13,0,0,0,.87-2.06Z"/><path id="Path_25186" data-name="Path 25186" class="cls-2" d="M87.14,116.92c-1.42-1.63-3.54-2.09-5.55-2.59a.79.79,0,0,0-.42,1.52,20,20,0,0,1,4.57,2.47,1,1,0,1,0,1.4-1.4Z"/><path id="Path_25187" data-name="Path 25187" class="cls-2" d="M94.61,107.77c-2.09-1-3.62-2.75-5.94-3.39a1.27,1.27,0,0,0-.67,2.45c2.14.61,3.55,2.49,5.72,3.06C95,110.21,95.82,108.36,94.61,107.77Z"/><path id="Path_25188" data-name="Path 25188" class="cls-2" d="M100,100.93c-.77-2.05-3.73-2.84-5.66-2.25a1.28,1.28,0,0,0,.68,2.47c1.64-.45,2.7,1.35,4.33.92A.93.93,0,0,0,100,100.93Z"/><path id="Path_25189" data-name="Path 25189" class="cls-2" d="M105.48,93.52c-.88-1-2-1-3.24-.9a1,1,0,0,0-.94,1,1,1,0,0,0,.94.95,7.59,7.59,0,0,1,1.17.09,2.64,2.64,0,0,1,.4.12,1.74,1.74,0,0,0,.26.15,1,1,0,0,0,1.41-1.41Z"/><path id="Path_25190" data-name="Path 25190" class="cls-2" d="M115.21,86.08A3,3,0,0,0,113.74,85a3.23,3.23,0,0,0-1.38-.12,1.18,1.18,0,0,0,0,2.35s.5.06.2,0l.42.07a2.84,2.84,0,0,0,.3.08,2.91,2.91,0,0,1,.42.25C114.6,88.15,115.85,87,115.21,86.08Z"/></g></g></g></g></svg>