<svg xmlns="http://www.w3.org/2000/svg" viewBox="0 0 200.36 126.47"><defs><style>.cls-1{fill:#b69564;}.cls-2{fill:#fff;}.cls-3{fill:#ffd76c;}</style></defs><g id="圖層_2" data-name="圖層 2"><g id="_0-ui_kits" data-name="0-ui_kits"><g id="Group_6017" data-name="Group 6017"><g id="Group_5995" data-name="Group 5995"><g id="Group_5947" data-name="Group 5947"><g id="Group_5929" data-name="Group 5929"><path id="Path_30058" data-name="Path 30058" class="cls-1" d="M132.66,78.46a.51.51,0,0,1-.06-.73.48.48,0,0,1,.35-.18.5.5,0,0,1,.57.43.51.51,0,0,1-.1.38.53.53,0,0,1-.74.12Z"/></g><g id="Group_5930" data-name="Group 5930"><path id="Path_30059" data-name="Path 30059" class="cls-1" d="M137.2,72.41a5.15,5.15,0,0,0-1.53-1.62.68.68,0,0,1,.37-1.22c1.45-.29,3.86,2.43,2.77,3.64C138.15,73.93,136.84,73.55,137.2,72.41Z"/></g><g id="Group_5931" data-name="Group 5931"><path id="Path_30060" data-name="Path 30060" class="cls-1" d="M145.6,65.49c-.18,3.09-5.32,4.88-7.44,1.19a5.46,5.46,0,0,1-3,.71c0,2.13-2.65,3.61-5.4,1.66-.36,0-.68-.47-.94-.83-.51-.67.48-1.58,1.06-1,2.22,2.33,4.27,1.12,4.27-.17a1.81,1.81,0,0,1-.85-1.12h0a.64.64,0,0,1,.41-.8.63.63,0,0,1,.69.21c.5.58,1.33,1.11,3.3.11a2.27,2.27,0,0,1,.38-1.92c.62-.47,1.85.7,1.38,1.93,1,2.45,3.86,2.52,5.29-.26a.46.46,0,0,1,.6-.18A.43.43,0,0,1,145.6,65.49Z"/></g><g id="Group_5932" data-name="Group 5932"><path id="Path_30061" data-name="Path 30061" class="cls-1" d="M127.55,67.79a.44.44,0,0,1-.76-.4,3.34,3.34,0,0,0-.55-2.82,2.44,2.44,0,0,1-.44,2.93.66.66,0,0,1-.92-.18.63.63,0,0,1-.11-.48c.14-.8,1-1.47-.5-2.35-.37-.24-.83-.53-.6-1.06s.84-.51,1.53-.07l-.48-.41a1.46,1.46,0,0,0-2.08,0l0,0c-.78.78-1.28,3.24-2.17,2.58a.52.52,0,0,1-.21-.33c-.51-2.29,2.11-5.78,5.08-4C127.22,62.5,129.66,65.81,127.55,67.79Z"/></g><g id="Group_5933" data-name="Group 5933"><path id="Path_30062" data-name="Path 30062" class="cls-1" d="M123.09,70.44a2.13,2.13,0,0,1-.54-.82c-.39-.79.91-2.34,2-2.08a.83.83,0,0,1,.64.8c0,.27.12.61-.11.79a.66.66,0,0,1-.65,0,1,1,0,0,0-.2.15C124.75,70.55,123.69,70.93,123.09,70.44Z"/></g><g id="Group_5934" data-name="Group 5934"><path id="Path_30063" data-name="Path 30063" class="cls-1" d="M122.59,74c-2.21-.35-4.61-3.87-3.32-6.17,0-.07.16-.29.38-.26s.34.35.5,1a5.36,5.36,0,0,0,1.64,3.21,5.85,5.85,0,0,0,1.09.68.83.83,0,0,1,.44.32.75.75,0,0,1-.16,1.06A.77.77,0,0,1,122.59,74Z"/></g><path id="Path_30064" data-name="Path 30064" class="cls-1" d="M132.35,71.76a6.3,6.3,0,0,0,1,.38,4.16,4.16,0,0,1,2,3.22,1.13,1.13,0,0,1-1.07,1.18.78.78,0,0,1-.26,0l0,.08a1.56,1.56,0,0,1-1.38.81,1.07,1.07,0,0,1-1.14-1,.09.09,0,0,1,0,0,.85.85,0,0,1,.23-.45.42.42,0,0,1,.09-.14.62.62,0,0,1,.35-.22l.87-.64a4.49,4.49,0,0,0-1-2.58.35.35,0,0,1-.06-.49A.35.35,0,0,1,132.35,71.76Z"/><g id="Group_5935" data-name="Group 5935"><path id="Path_30065" data-name="Path 30065" class="cls-1" d="M131.88,77.5a.55.55,0,0,1-.66.88.54.54,0,0,1-.11-.77.57.57,0,0,1,.16-.15A.54.54,0,0,1,131.88,77.5Z"/></g><g id="Group_5936" data-name="Group 5936"><path id="Path_30066" data-name="Path 30066" class="cls-1" d="M147.55,115.12c.48-.38,1.68.23,2.09.24s2.09-1.11,2.4-.92c.53.32-.09,1.42-.35,1.63a3.44,3.44,0,0,1-3.43.59C147.29,116.23,147.21,115.39,147.55,115.12Z"/></g><g id="Group_5937" data-name="Group 5937"><path id="Path_30067" data-name="Path 30067" class="cls-1" d="M144,119.2l0,.15h0l0-.15h0c.41.1.42-.88,1-1.44.94-.88,1.87,0,2.26-.43s1.19,0,1.07.6-.73,1-1.89.79c-.52-.1-.57-.06-.81.46-.62,1.35-1.06,1.54-2.48,1.37a.74.74,0,0,1-.7-.77.58.58,0,0,1,.06-.26C142.75,118.89,143.62,119.11,144,119.2Z"/></g><g id="Group_5938" data-name="Group 5938"><path id="Path_30068" data-name="Path 30068" class="cls-1" d="M119.89,98.4a1.7,1.7,0,0,1-1.35-.4,1.75,1.75,0,0,1-.62-2.13.86.86,0,0,1,1.16-.38.84.84,0,0,1,.4.43c.26.57,0,.57.67.89a.86.86,0,0,1,.38,1.14A.88.88,0,0,1,119.89,98.4Z"/></g><g id="Group_5939" data-name="Group 5939"><path class="cls-1" d="M137.94,105.68c-1.81-2.66-7.9-9.39-11-11.21-2.15-1.28-3.51-1-4-.67a.46.46,0,0,0-.21.47.45.45,0,0,0,.39.28c2.78.31,4,1.56,7.06,4.39.9.84,1.68,1.58,2.38,2.25a11.5,11.5,0,0,1,1,.86,7.36,7.36,0,0,1,.7.78c3,2.91,3.39,3.57,3.69,3.32S138,105.82,137.94,105.68Z"/></g><g id="Group_5940" data-name="Group 5940"><path id="Path_30070" data-name="Path 30070" class="cls-1" d="M109.44,64.84c.52,1.34,1.47,3.84,4.46,2.88a4.7,4.7,0,0,0,1.9-1.49.43.43,0,0,1,.74.37c-.53,2.19-4.13,3.61-6.56,1.64-2.14-1.74-1.59-4.14-1.06-4.14.23,0,.32.23.52.74l-.15.06h0Z"/></g><g id="Group_5941" data-name="Group 5941"><path id="Path_30071" data-name="Path 30071" class="cls-1" d="M140.23,103.1a1.49,1.49,0,0,0,1.11-.51.86.86,0,0,0,.07-.1l2.57,2.15c1.32.1,1.29-.37,1.86-.52.89-.26,1.25,1.28-.58,1.83-1.65.49-3.69-.9-4.75,1.17a.75.75,0,0,1-1,.31.74.74,0,0,1-.34-.4.68.68,0,0,1,.17-.76,3.8,3.8,0,0,1,2.63-1.73Z"/><path id="Path_30072" data-name="Path 30072" class="cls-1" d="M114.09,75.59c.25.52.3,1.6.73,2-.07-1.07-.09-2.57.68-3.42.19-.21.73-.25.52.51-.51,1.91.47,4.09,1.58,5.72,2,2.9,7.49,6.63,9.21,3.57.27-.49.07-.63-.07-1.12s0-.93-.14-1.19c-.17-.46-.41-1.28-.43-1.37a.73.73,0,0,1,.54-.88.65.65,0,0,1,.34,0c.37.1.41.43.5.77a12.84,12.84,0,0,1,.33,1.52,4.19,4.19,0,0,0,2.62,2,2.31,2.31,0,0,1,2.5-2.11l.32,0a1.22,1.22,0,0,0,1.12-.2c.9-.56.35-2.06.38-3.06.09-3.5,4.88-4.13,6.05-6.52.48-1-.07-1.85.64-2,1-.24,1.47,2,0,3.61A17.83,17.83,0,0,1,137.84,76c-3.33,2.2-.24,3.92-2.16,6.11-1.11,1.27-2.86.54-3.45,1.22s.3,1.22-.29,1.71-1.76.21-2.77-.19c.4.68-.62,1.4-1.87.7-2.29,1.72-5.69.12-8-1.6,1.09.94,2.42,2.07,3.9,3.31a1.6,1.6,0,0,0,.08,1.53q.21.39.45.75l-2.5-2.06a31.48,31.48,0,0,1,1.48,3.49.28.28,0,0,1-.12.38c-.66.36-1.61-2.93-1.85-3.36-1.91-3.39-5.48-5.59-6.91-9.15A10.26,10.26,0,0,0,110,73.94c-.62-.38-1.35-.86-1-1.54C109.61,71.5,112.78,72.77,114.09,75.59Z"/></g><g id="Group_5942" data-name="Group 5942"><path class="cls-1" d="M141.66,119.29c-.14-.32-.61-.51-1-.68a14.66,14.66,0,0,1-4.63-4.06,16.37,16.37,0,0,0-1.89-2.27c-.88-.78-2-.9-2.89-1.49-2.56-1.7-4-2.19-6.17-3.52a2.37,2.37,0,0,1-.65-.43,39.36,39.36,0,0,1-7.24-6.21,13,13,0,0,0-2.79-1.78c-4.58-2.46-5.66-3.74-7.18-5.78a9.47,9.47,0,0,0-3.79-3.53c-2.7-1.13-3.23.2-2.58.87.42.44,3.32,1.38,5.44,4.89,1.5,2.46,5.18,4.53,7.26,5.32,2.75,1,2.87,2.16,3.5,2.73,4,4.74,7.75,5.85,10.57,7.3,2.16,1.11,3.17,1.09,4.47,2.19,4.1,3.49,3.76,4.1,6.84,6.53a3.94,3.94,0,0,0,1.84,1C141.46,120.39,142,119.93,141.66,119.29Z"/></g><g id="Group_5943" data-name="Group 5943"><path id="Path_30074" data-name="Path 30074" class="cls-1" d="M139.2,121.35c-.12-.07-.18-.08-.33-.16v-.29l.28,0,.22.13Z"/></g><g id="Group_5944" data-name="Group 5944"><path id="Path_30075" data-name="Path 30075" class="cls-1" d="M143.5,73.86a.73.73,0,0,1-.16-1,.72.72,0,0,1,.68-.3,4.11,4.11,0,0,0,3.81-.51,3.22,3.22,0,0,0,1.06-1.69,4.94,4.94,0,0,0,0-2.13.47.47,0,0,1,.81-.46l.38.57c.17-1.42-.6-2.56-2.48-3.63a.44.44,0,0,1-.2-.48c.07-.3.31-.3.53-.32a1.68,1.68,0,0,1,.86.08c3.67,1.68,2.72,6.17,1.57,6.43a.46.46,0,0,1-.26,0C149.42,74.43,144.84,74.93,143.5,73.86Z"/></g><g id="Group_5945" data-name="Group 5945"><path class="cls-1" d="M138.1,47.71l.14.16c-2.19-6.32-7.67-6.2-9.42-3.13a3.35,3.35,0,0,0-5.51-.12c-2.16-2.07-6,.35-5.12,4a6.11,6.11,0,0,0,1.69,3.07.51.51,0,0,0,.48.06.5.5,0,0,0,.28-.66c-.72-1.54-1.74-3.33-.84-4.94a1.63,1.63,0,0,1,3-.12A.64.64,0,0,0,124,46a2.23,2.23,0,0,1,4.37.25.5.5,0,0,0,1,0c.33-3.18,5.36-4,7.89.81A4.77,4.77,0,0,1,138.1,47.71Z"/></g><g id="Group_5946" data-name="Group 5946"><path id="Path_30077" data-name="Path 30077" class="cls-1" d="M117.27,52.75a.4.4,0,0,1-.14.79,3.09,3.09,0,0,0-3.14,2c-.55,1.79.75,3,1.32,3.6a.54.54,0,0,1-.1.76.53.53,0,0,1-.42.11,3.42,3.42,0,0,1-2.38-3,3.86,3.86,0,0,1,3.22-4.41A3.94,3.94,0,0,1,117.27,52.75Z"/></g><path class="cls-1" d="M140,21.92a.46.46,0,0,0,.07-.48,14,14,0,0,0-3.34-4.87,13.6,13.6,0,0,0-4.36-2.81c-1.67-.66-3.63-.87-5-2.12a7.08,7.08,0,0,1-1.51-2.2c-.38-.76-.73-1.54-1-2.33a6.41,6.41,0,0,1-.45-4.37c.22-.62-.71-1-.93-.4A7.44,7.44,0,0,0,124,7.57a13.42,13.42,0,0,0,2.63,4.69,5,5,0,0,0,1,.79c-1.22-.23-2.44-.41-3.65-.62a9.19,9.19,0,0,1-2.58-.68,7.37,7.37,0,0,1-2.09-1.84,11.27,11.27,0,0,1-2.62-4.41,5.55,5.55,0,0,1,.47-4.33.75.75,0,0,0-.05-.95.73.73,0,0,0-.95-.08,7.55,7.55,0,0,0-3.19,5,.55.55,0,0,0-.59.24,12.46,12.46,0,0,0-2.25,4.5,8.38,8.38,0,0,0,1.71,7.56,28.72,28.72,0,0,0,3.26,3.17l.45.37a4.6,4.6,0,0,1-2.7-2.13.65.65,0,0,0-.57-.39.61.61,0,0,0-.58.37A5.56,5.56,0,0,0,112.87,24a8.63,8.63,0,0,0,4.64,2.64c1.7.42,3.47.51,5.18.9a17.51,17.51,0,0,1,5.13,2,4.49,4.49,0,0,1,1.86,1.7,1.63,1.63,0,0,1-.17,1.86.52.52,0,0,0-.1.62,3.49,3.49,0,0,0-.68,1.87,1.12,1.12,0,0,0,0,.32c-2.16-.49-4.35.45-4.43,2.43C122,37,117.71,36.2,117,37c-5-.67-5,2.06-3.75,3.3-3,1.24-6.41,3.18-7.34,7.16a4.88,4.88,0,0,0-.06,2.4c-3.54-.38-6.53,3.7-4.06,8-2.15.66-2.11,3.41-.46,4.56-1.33,1.95,1.07,5.44,3.22,5.27A4.13,4.13,0,0,0,106,69.86c2,1.67,3.88.85,4.15.45.29-.2.2-.48-.05-.53-.19-.22-.43-.07-1.18-.07a3.67,3.67,0,0,1-2.59-3,8.81,8.81,0,0,0-.13-2.15.44.44,0,0,0-.3-.25.42.42,0,0,0-.5.32c-.35,1.44-2.85.81-2.94-1.81.84-.38.63-1.19.15-1.36a1.43,1.43,0,0,1-.88-.59c-.66-1.09.68-1.9,1.66-1.5a.66.66,0,0,0,.59-1.18c-.35-.88-2-2.64-1.13-5.06a2.77,2.77,0,0,1,1.65-1.83,2.8,2.8,0,0,1,2.09,0,.68.68,0,0,0,1.14-.54c-.58-5.63,3.41-7.71,8.39-9.68.78-.3.74-1.65-.2-1.7-.5,0-1.25,0-1.51-.45-.37-.61,2.75-.56,4.59.11a.77.77,0,0,0,1-.88,12.27,12.27,0,0,1,4.63,1.48c.26.44.62.63,1,.52a.4.4,0,0,0,.39-.32c.24-.47-.36-.79-.25-1.31.2-1,1.38-1.31,2.4-1.32a4.09,4.09,0,0,1,3.73,2.85,5.72,5.72,0,0,1,1.71-.56,1.69,1.69,0,0,1,2.29.06A5.86,5.86,0,0,1,139,41.5a.39.39,0,0,1,.1-.08.46.46,0,0,1,.26-.06,11.25,11.25,0,0,0-3.14-2.57.51.51,0,0,1-.17-.69.4.4,0,0,1,.17-.17,5.07,5.07,0,0,0,.32-1.33,3.42,3.42,0,0,0,1.82-.66,7.17,7.17,0,0,0,1.95-2,9.62,9.62,0,0,0,1.56-5.41A14.87,14.87,0,0,0,140,21.92ZM129.86,36.3a.87.87,0,0,0,.22-.21.58.58,0,0,0,.21.17l.2.09.25.49A5.33,5.33,0,0,0,129.86,36.3Zm2.35,2.26a3.79,3.79,0,0,0-.2-.34h0a2.46,2.46,0,0,0,.93.12C132.7,38.4,132.45,38.47,132.21,38.56Zm7.17-5.82A6,6,0,0,1,138,34.42c-.39.31-1.08.9-1.62.68a.62.62,0,0,0-.4-.05,6.06,6.06,0,0,0-1-.15,20.81,20.81,0,0,1-2.32-.49,3.75,3.75,0,0,1-1.94-.76A2.75,2.75,0,0,0,131,31.4,4.2,4.2,0,0,0,129.27,29a16.84,16.84,0,0,0-5.11-2.4,48.54,48.54,0,0,0-5.33-1,8.51,8.51,0,0,1-4.74-2.13,4.76,4.76,0,0,1-1.38-2.81c1.63,1.58,4.11,2,6.37,2.21.66.07,1-1,.33-1.17a10.34,10.34,0,0,1-3.91-2.37,24.57,24.57,0,0,1-2.89-2.88,6.72,6.72,0,0,1-1.46-3.26,9.19,9.19,0,0,1,1.74-6.45,12,12,0,0,0,1.89,5.15,18,18,0,0,0,3.66,4.36,18.44,18.44,0,0,0,10.29,4.49c.93.09,1.15-1.35.21-1.44a16.57,16.57,0,0,1-5.55-1.53A17.24,17.24,0,0,1,115.9,11a9.54,9.54,0,0,1-1.58-4.87h0a5.86,5.86,0,0,1,.7-2.58,7.49,7.49,0,0,0,.18,2,12,12,0,0,0,2.8,5.1,13.39,13.39,0,0,0,2,1.94,6.56,6.56,0,0,0,2.68,1.09c1.7.35,3.41.57,5.1.9A20.49,20.49,0,0,1,132.54,16a10.9,10.9,0,0,1,4,3.24,20.88,20.88,0,0,1,2.64,4.4,13,13,0,0,1,1.21,4.74A8.17,8.17,0,0,1,139.38,32.74Z"/><path class="cls-1" d="M148.86,58.72a1,1,0,0,0,0,.17l.08.21,0,.09h0s.05.1.07.16l.18.28.11.19a6.39,6.39,0,0,0-1.83-4.23,1.47,1.47,0,0,0,.23-.26l-.06-.07h0v0l0,0h0l0-.12h0V55a4.87,4.87,0,0,1-.32-.47l0,0-.08-.09a.25.25,0,0,1,0-.07c0,.28-.06.5-.08.67a.67.67,0,0,1,.08.17,4.85,4.85,0,0,0,.93,1.75A4.37,4.37,0,0,1,148.86,58.72Z"/><path class="cls-1" d="M130.22,35.39h0a.57.57,0,0,1,.15-.16l-.11-.06a1.89,1.89,0,0,0-.05.23Z"/></g><path id="Path_30082" data-name="Path 30082" class="cls-1" d="M141.21,107.82a6.34,6.34,0,0,1,6.24.81,4.36,4.36,0,0,0,1.55.78c.65.14,1.31.25,2,.37a6.41,6.41,0,0,1,1.83.42,1.7,1.7,0,0,1,.73,1.67,6.34,6.34,0,0,1-1.24,3.78c-.55.76-1.69-.15-1.13-.9a4.92,4.92,0,0,0,.76-1.56,4.75,4.75,0,0,0,.15-.93,2.67,2.67,0,0,0,0-.4s0-.29,0-.41h0a2.13,2.13,0,0,1-.56-.1l-1.11-.21h-.06a.78.78,0,0,1-.82.17L145.28,110a13.1,13.1,0,0,0-3.72-.76.73.73,0,0,1-.35-1.4Z"/><g id="Group_5964" data-name="Group 5964"><g id="Group_5949" data-name="Group 5949"><path id="Path_30083" data-name="Path 30083" class="cls-1" d="M54.62,90.78c2.39,6,6,8.75,7.85,11.21a.44.44,0,0,1-.11.61.46.46,0,0,1-.44.05c-7.67-3.45-15.59-22.1-7.27-34.36.27-.4.85,0,.69.39s-.33.79-.5,1.18A29.19,29.19,0,0,0,54.62,90.78Z"/></g><g id="Group_5950" data-name="Group 5950"><path id="Path_30084" data-name="Path 30084" class="cls-1" d="M5,104a.34.34,0,0,1,.17.46.35.35,0,0,1-.45.18,1.39,1.39,0,0,0-1.6.52.36.36,0,0,1-.5.08C1.93,104.86,3.6,103.26,5,104Z"/></g><g id="Group_5951" data-name="Group 5951"><path id="Path_30085" data-name="Path 30085" class="cls-1" d="M4.48,105.88c.37-.17.81,0,1.21-.09,3.6-1.14,5.27-.09,11.53-.5,3.83-.25,7.51,1.38,11.44,3.7,1.85,1.09,3.7,2.18,5.64,3.1.76.37,1.57.62,2.33,1a29.06,29.06,0,0,0,2.93,1.66,16.65,16.65,0,0,0,3.27.74,8.14,8.14,0,0,0,2.56,0c.39-.08,1.17-.23,1.51,0,.62.52-.86,1-1.22,1.1a6.17,6.17,0,0,1-3.87,0c-.55-.19-1.12-.24-1.66-.44-.79-.32-1.57-.68-2.33-1.08-1.4-.75-2.88-1.32-4.34-2a56.58,56.58,0,0,1-5.57-3c-11.31-6.59-9.9-2.25-17-3.63-2.13-.41-4.38.28-6.49.65-1,.17-1.17-.63-.65-.93A6.88,6.88,0,0,1,4.48,105.88Zm42.65,10a.43.43,0,0,1-.06.22.14.14,0,0,0,.1-.16l0-.06Z"/></g><g id="Group_5952" data-name="Group 5952"><path id="Path_30086" data-name="Path 30086" class="cls-1" d="M3.33,100.36a5.45,5.45,0,0,1,1.82-2c2.5-1.64,5.7-.24,7.77-1.33,1.18-.62,1.72-2.07,2.35-3.29,1.95-3.77,5.15-4.17,7.8.14a.53.53,0,0,1-.87.59c-1.68-2.26-3.17-3.55-5-1.44-1.49,1.67-1.73,4.16-4,5.22-3.1,1.44-6.65-1.51-9.14,3.58-.17.36,0,.84-.29,1.24-.41.61-.81,0-1,0a2.86,2.86,0,0,0-1.07,2c0,.35.22.6.23,1a.56.56,0,0,1-.47.64.55.55,0,0,1-.47-.16c-.28-.3-.19-.65-.18-1.25a4.66,4.66,0,0,1,.09-1,.41.41,0,0,1-.55.2.4.4,0,0,1-.2-.22,2.92,2.92,0,0,1,.81-2.83A3.61,3.61,0,0,1,3.33,100.36ZM.9,104.05a3.53,3.53,0,0,1,1-1.37c.33-.3.48-.25,1-.74,0-.14,0-.28.05-.42A2.34,2.34,0,0,0,1.09,103,7.18,7.18,0,0,0,.9,104.05Z"/></g><g id="Group_5953" data-name="Group 5953"><path id="Path_30087" data-name="Path 30087" class="cls-1" d="M17.74,95.43c-.39,2.78-1.69,4.13-2.11,3.82-.22-.16,0-.39.11-.64a6.57,6.57,0,0,1-.78.71.4.4,0,0,1-.52,0c-.29-.24-.18-.5.11-1.31a.27.27,0,0,1-.11-.2c0-.24.24-.35.46-.45a.43.43,0,0,1,.59.16.05.05,0,0,1,0,0,7.35,7.35,0,0,0,1.13-1.88c.13-.3.44-.23.48,0,0-.12.05-.23.07-.35a.28.28,0,0,1,.55.09Z"/></g><g id="Group_5954" data-name="Group 5954"><path id="Path_30088" data-name="Path 30088" class="cls-1" d="M60.37,71.61c.78,4.31,1.21,6.84,4.86,12.11,1.41,2,3,4,4.45,6,2.3,3.22,4.17,6.46,4,6.79l-.06.12c-.2,0-.27,0-.37-.17-2.5-4.48-6.41-8.09-9.38-12.28-2.37-3.34-5.15-8.55-4.45-12.62a.48.48,0,0,1,.94,0Z"/></g><g id="Group_5955" data-name="Group 5955"><path id="Path_30089" data-name="Path 30089" class="cls-1" d="M33.22,40.07a.36.36,0,0,1-.72.09,1.67,1.67,0,0,0-1.66-1.37,4.85,4.85,0,0,0-1.52.15A.29.29,0,0,1,29,38.5C30.29,36.58,33,37.32,33.22,40.07Z"/></g><g id="Group_5956" data-name="Group 5956"><path id="Path_30090" data-name="Path 30090" class="cls-1" d="M32.59,37.43a1,1,0,0,0-1.14-.14.47.47,0,0,1-.64-.15.46.46,0,0,1,.15-.63l.06,0c1.26-.67,2.7.35,2.15.9A.42.42,0,0,1,32.59,37.43Z"/></g><g id="Group_5957" data-name="Group 5957"><path id="Path_30091" data-name="Path 30091" class="cls-1" d="M49,45.79a4.54,4.54,0,0,1-.7,4.18,2.16,2.16,0,0,0-.45-.15c1.77-3.92,0-4.84-4.24-5.46-2.24-.32-2.85-.43-4.92-2.45-1.15-1.12-2.34-2.28-4.4-2.17-.56,0-.44-.84.1-.86,2.16-.09,3.61.95,5.06,2.32s2.38,2,5.28,2.32C45.88,43.66,48.16,43.89,49,45.79Z"/></g><g id="Group_5958" data-name="Group 5958"><path id="Path_30092" data-name="Path 30092" class="cls-1" d="M43.44,45.34a.33.33,0,0,1,.23.41.34.34,0,0,1-.3.24c-2,0-4-1.35-3.54-2a.36.36,0,0,1,.42-.11,3,3,0,0,1,.83.47L41,44.5h0l.1-.12C41.25,44.46,41.24,44.72,43.44,45.34Z"/></g><g id="Group_5959" data-name="Group 5959"><path id="Path_30093" data-name="Path 30093" class="cls-1" d="M43.73,50.6a.4.4,0,0,1,.28-.21c.75-.17,1.15.84.83,1.64s-1.14,1-1.44.63-.06-.55.24-.73C44.41,51.45,43.5,51.09,43.73,50.6Z"/></g><g id="Group_5960" data-name="Group 5960"><path id="Path_30094" data-name="Path 30094" class="cls-1" d="M47.26,66.65c1.55-7.23-1.81-10.23-2.35-12.7a2.75,2.75,0,0,1,1.27-3.33c.6-.27.84.14.53.47-2.06,2.25.49,4.57,1.34,7.86,1,3.76.1,7.71-.59,8.11C47.31,67,47.2,66.93,47.26,66.65Z"/></g><g id="Group_5961" data-name="Group 5961"><path id="Path_30095" data-name="Path 30095" class="cls-1" d="M47.17,66.9c-.32,2.09-.32,2.09-.39,2.43.7-1.85.54-2.28.92-2.23a.25.25,0,0,1,.23.24,8.49,8.49,0,0,1-.39,2.6A6.85,6.85,0,0,0,48,67.29c0-.24.09-.26.26-.33l.1.07a3.63,3.63,0,0,1,.12,2.3c-.5,2.52-1.41,2.26-1.36,1.81-1.13,2.44-1.94,2-1.83,1.39-.73.77-1.15.64-1.23.35-.7.45-.93.15-1.21-.09C45.75,71.07,46.25,69.21,47.17,66.9Z"/></g><g id="Group_5962" data-name="Group 5962"><path id="Path_30096" data-name="Path 30096" class="cls-1" d="M28.63,39.43h0c4.41.74,6,6.11,8,8.83,3.85,5.19-3.89,13-2.15,21.76A34.36,34.36,0,0,0,46.54,85.4C47.77,76,51.85,68,53,66.48a25.49,25.49,0,0,0-3.29-1.12c-.34-.14-1.06-1.81,3.66.33a14.9,14.9,0,0,1,3.24,2c3.15-4.15,9.16-4.94,12.63-1.55.11.1.21.2.31.28a.39.39,0,0,1,0,.55.38.38,0,0,1-.47.08,4.88,4.88,0,0,0-1.23-.44,10.62,10.62,0,0,0-3.58-.5,7.7,7.7,0,0,0-6,3.2c-.4.52-.7.9-1.11.93A1.3,1.3,0,0,1,56,68.85a1.19,1.19,0,0,1,.11-.42,14.34,14.34,0,0,0-2.58-1.69c-.35,1-1.14,2.36-2.32,5.27-5.32,13-5.56,28.5,3.49,39.06l-1.3.64a32.73,32.73,0,0,1-7-17.7c-3.34,3.2-3.5,6.61-4.61,5.2-.68-.85,1.85-4.82,4.49-6.84a36.83,36.83,0,0,1,.13-5.25L46,86.88l0,.19c-7.74-5.23-14.39-15.22-13.49-20.66,2.12-12.77,5.64-12,2.22-18s-3.55-6.24-6.33-8.39a.36.36,0,0,1-.1-.42A.34.34,0,0,1,28.63,39.43Z"/></g><g id="Group_5963" data-name="Group 5963"><path id="Path_30097" data-name="Path 30097" class="cls-1" d="M30.36,95.5c7.26.29,11.82,3.94,11.65,5h0s0,.21,0,.2,0,.05,0,.08l-.1,0,0,0a.6.6,0,0,1-.08.08l-.31.1a.61.61,0,0,1-.45-.12c-1.28-1.1-1.32-1.64-3.73-2.74-4-1.83-8.53-1.43-12.73-1-.46,0-.89,0-1.3,0a.47.47,0,0,1-.52-.42.33.33,0,0,1,0-.17C22.92,96.05,26.85,95.36,30.36,95.5Z"/></g><path id="Path_30098" data-name="Path 30098" class="cls-1" d="M68.24,67a14.33,14.33,0,0,0-1.35,6.7c3.56-.13,5.68,1.42,5.84,1.75a.24.24,0,0,1,0,.28c-.14.16-.31.06-.86-.13A10.76,10.76,0,0,0,67,74.69c.92,8.27,8.89,15.12,10.46,23.78a16.64,16.64,0,0,1-.48,1.94l1,.31a33.6,33.6,0,0,0,6,1.13,36.22,36.22,0,0,0,12.31-1A41,41,0,0,0,103,98.55a.24.24,0,0,1,.32.12.23.23,0,0,1-.09.3,29.37,29.37,0,0,1-12,4.3,35.23,35.23,0,0,1-12.94-.7,33.35,33.35,0,0,1-3.4-1c-.59-.22-1.18-.44-1.75-.7a3.8,3.8,0,0,1-1.6-1.07.63.63,0,0,1,.06-.89.66.66,0,0,1,.42-.15,4.34,4.34,0,0,1,1.55.41c.49.18,1,.4,1.44.59s1.18.44,1.78.63C75.42,90,66.85,84.88,65.52,74.89c-.75.16-1.68.55-1.87,0a.44.44,0,0,1,.08-.44,2.82,2.82,0,0,1,1.69-.66,13.4,13.4,0,0,1,.62-5,7.35,7.35,0,0,1,1.39-2.39C67.81,65.93,68.47,66.45,68.24,67Z"/><path id="Path_30099" data-name="Path 30099" class="cls-1" d="M48,114.33a66.08,66.08,0,0,0,9.91-4.8c1.58-.94,3.11-1.94,4.64-3,.76-.51,1.51-1,2.26-1.57s1.52-1,2.26-1.54,1.62-1.34,2.41-2,1.47-1.4,2.29-2a0,0,0,0,1,0,0,16.25,16.25,0,0,1-1.81,2c-.66.66-1.34,1.31-2,1.94s-1.35,1.29-2,1.93-1.43,1.22-2.17,1.8a56.74,56.74,0,0,1-9.58,5.91q-2.83,1.41-5.8,2.55C47.55,115.93,47.14,114.64,48,114.33Z"/></g><g id="Group_5979" data-name="Group 5979"><g id="Group_5965" data-name="Group 5965"><path id="Path_30100" data-name="Path 30100" class="cls-2" d="M100.73,69a.59.59,0,0,1-.14.82l0,0a.55.55,0,0,1-.77-.1l0,0c-3.72-5.24-3.1-11.58-2.5-17.71.39-4,.73-7.39,0-11.33-1.37-7-5.09-12.6-7.89-32-2.54,3.08-3.48,7.84-3.3,11.92,2.31,6.06,3.69,10.46,5.59,16.56a.42.42,0,0,1-.77.33A37.93,37.93,0,0,1,85.41,21c-2.62-6.71-5-11.66-5.62-13-.51-1.19-.87-2-1.55-2-2,0-1,5.07-.59,7,.91,3.95,2.06,4.64,1.22,5.14a.65.65,0,0,1-.73,0l0,0a40.54,40.54,0,0,1-2-4,6.35,6.35,0,0,0-.44,3c0,1.07-.12,3.34,1.87,8A39.83,39.83,0,0,0,87.94,39.54a32.41,32.41,0,0,0,3,2.52c.52.36-.06,1.13-.57.77-1-.7-2.1-1.36-3.09-2.13a39.3,39.3,0,0,1-7.93-8.89c-1,.28-7.24-10.29-8.93-15.76-.2-.67-.49-1.59-1.07-1.69C68,14.12,68,16.89,68,18a21.11,21.11,0,0,0,2.78,10.32c1.59,1.59,6.4,6.47,7.56,8.38a.64.64,0,0,1-.7,1.07h0a24.33,24.33,0,0,1-7.49-8.45c-3.59-3.54-4.7-4.52-5.66-4.52-.35,0-.41-.53,0-.55,1.81-.12,2.53.48,4.44,2.25a27.65,27.65,0,0,1-1.71-8.28c-.08-1.4-.27-3.35.88-4.34a1.68,1.68,0,0,1,1.86-.28,3,3,0,0,1,1.23,1.8,73.1,73.1,0,0,0,5,10.62,22.63,22.63,0,0,1-1.88-6.07,8.93,8.93,0,0,1,0-3.53,12.21,12.21,0,0,1,1.42-3.17.35.35,0,0,1,.26-.15,13,13,0,0,1-.19-3.74c.05-1.27.11-3,1.33-3.81a1.8,1.8,0,0,1,1.67-.21,2.82,2.82,0,0,1,1.34,1.54c1.81,3.76,3.56,7.79,5.2,12A21,21,0,0,1,89.3,7.14a.54.54,0,0,1,.75-.1.55.55,0,0,1,.19.34c1.35,6.27,2.25,12.36,4.3,19.4.58,2,1.27,4,1.91,6,4,12.49,2.13,14.25,1.63,24.22C97.8,62.15,98.67,66.09,100.73,69ZM86.36,23.54a35.13,35.13,0,0,0,3.29,9.64C88.73,30.14,87.65,27,86.36,23.54Z"/></g><g id="Group_5966" data-name="Group 5966"><path id="Path_30101" data-name="Path 30101" class="cls-2" d="M63.73,25.09s0,.05,0,0S63.7,25.08,63.73,25.09Z"/></g><g id="Group_5967" data-name="Group 5967"><path id="Path_30102" data-name="Path 30102" class="cls-2" d="M63.6,25.25a.19.19,0,0,1,0-.25l0-.05.15,0,0,0a.18.18,0,0,1,0,.25l-.05.05-.14,0Zm.2-.25a.15.15,0,0,0-.19,0,.14.14,0,1,0,.21.17A.13.13,0,0,0,63.8,25Z"/></g><g id="Group_5968" data-name="Group 5968"><path id="Path_30103" data-name="Path 30103" class="cls-2" d="M64,25.53a4.15,4.15,0,0,0,.52,2,.22.22,0,0,1-.11.28.22.22,0,0,1-.21,0,3.38,3.38,0,0,1-.61-2.3.21.21,0,0,1,.41,0Z"/></g><g id="Group_5969" data-name="Group 5969"><path id="Path_30104" data-name="Path 30104" class="cls-2" d="M62.21,48.38c-1.58-2.37-.41-4.22,2.32-4.6-2.8-2.39-7.21-8-3.9-9.4,1.21-.53,2.74.22,4.09.95a28.9,28.9,0,0,1-2.8-4.89.25.25,0,0,1,.13-.32.26.26,0,0,1,.31.11,23.65,23.65,0,0,0,4,6,28.16,28.16,0,0,1,6.29,5.22.51.51,0,0,1-.65.77,25.24,25.24,0,0,1-5.59-4.82c-.93-.59-3.43-2.07-4.6-2.18a1,1,0,0,0-1.23.81,1,1,0,0,0,0,.49c.23,1.55,2.66,4.9,6.11,7.23a8,8,0,0,1,5.2,2.6.68.68,0,0,1-.07,1,.67.67,0,0,1-.65.14,19.21,19.21,0,0,1-5.34-2.71c-1.47-.13-3.63.34-3.43,1.77a2.32,2.32,0,0,0,.84,1.28,15.83,15.83,0,0,0,3.45,2.63,7.64,7.64,0,0,1,5.57,2.22c.51.51-.08,1.21-.68,1.09a16.77,16.77,0,0,1-5.3-2c-4.47.49-2.31,3.32,2.61,4.85a2.42,2.42,0,0,1,1.07,0,7.13,7.13,0,0,1,3.34.62.61.61,0,0,1,.38.69.6.6,0,0,1-.61.49,14.2,14.2,0,0,1-3.5-.41c-3.5,1.2-1.74,7.35,4.83,5.71l1-.29a.64.64,0,0,1,.81.4v0a.78.78,0,0,1-.49,1L75,65a3.45,3.45,0,0,0-2.11,1.44,2,2,0,0,0,.39,2.11c1.3,1.63,3.64,1.38,5.76.93.76-.17,1.22,1,.45,1.3a4.71,4.71,0,0,0-2.67,1.82c-1,2,2.43,3.53,5.3,3.43,1.12-.9,2.62-.6,2.55.21,0,.48-.48.49-1.11.66l-.78.19c-.6.74-.35,2.21,1.13,2.93a.35.35,0,0,1,.1-.46l.06,0a24.42,24.42,0,0,0,6.31-3.32,1.69,1.69,0,0,1,.07-1.15,5.46,5.46,0,0,1-4.19-2.6c-.75.33-4.91,1.79-7.48,1.69a.36.36,0,0,1-.32-.4.4.4,0,0,1,.23-.3c1.33-.37,2.73-.54,4.06-.86,1.06-.26,2.11-.57,3.14-.93a2.34,2.34,0,0,1,.15-2,9,9,0,0,1-1.44-.37c-3.77-1.22-3.87-3.39-2.71-4.66a1.07,1.07,0,0,1,.18-.19c-3-.93-3.69-4.21-1.31-6.06-2.93-1.44-3.91-5-1.48-6.44-3.87-2.93-3.42-7-1.1-7.95a3.84,3.84,0,0,1-.37-4.49c1-1.59,3.47-2.62,5.78.53a.35.35,0,0,1,0,.47c-.24.25-.5,0-.64,0a5.15,5.15,0,0,0-2.24-1c-1.56-.12-3,2.38-.55,4.65a2.07,2.07,0,0,1,.74.61.66.66,0,0,1-.15.93.65.65,0,0,1-.77,0,5.49,5.49,0,0,1-.67-.49c-.89-.22-2,.73-1.4,2.7a6,6,0,0,0,1.21,2.23A9.07,9.07,0,0,0,81,51.61a2.92,2.92,0,0,1,.4.1c.69.24.38,1.41-.34,1.21-.94-.26-2.06,1-1.21,2.56a4.55,4.55,0,0,0,2.6,2.07,7.31,7.31,0,0,1,1.23-.28.61.61,0,0,1,.64.41.53.53,0,0,1-.21.66,2.92,2.92,0,0,1-1.46.46c-.53.24-2,1.07-1.73,2.68S83.3,63.39,85,63.33a.71.71,0,0,1,.73.66.61.61,0,0,1-.55.66H85a3.25,3.25,0,0,0-2.15.74,1,1,0,0,0-.3.8c.1,1,1.92,1.74,2.88,2,.73.22,1.5.37,2.24.54.47.11.71.52.29.7a2.43,2.43,0,0,1-.6.17c-.7.91-.2,1.63.24,2.33a3.94,3.94,0,0,0,3.42,1.88,6.84,6.84,0,0,0,2-.45.54.54,0,0,1,.7.31.53.53,0,0,1-.17.62,3.83,3.83,0,0,1-1.9.73c-.4.53.07,1.17,1.19,1.41A6.05,6.05,0,0,0,96.75,76a.6.6,0,0,1,.77.38.62.62,0,0,1-.3.75,7.4,7.4,0,0,1-1.19.52,1.21,1.21,0,0,0-.58,1.4c.43,1,2.57.55,3.63.3,1.35-.32,1.49-.29,1.56-.14a.2.2,0,0,1,0,.22c-1,1.23-4.26,2-5.76.9A2.07,2.07,0,0,1,94.22,78,4.72,4.72,0,0,1,91,77.14a13.44,13.44,0,0,1-6.71,3,9.37,9.37,0,0,0,5.92-.12l.13,0c.71-.24,1.09.86.44,1.18-.89.43-2,1-2.32,2-.43,1.36,1.21,2.3,4.11,1.15.64-1.3,2.08-2,3.39-2.48a.46.46,0,0,1,.56.18.43.43,0,0,1-.07.55c-.22.2-.43.43-.63.65A8.67,8.67,0,0,1,93.7,85c-1,3.2,5.53,2.93,8.59-2.14a.43.43,0,0,1,.55-.27l.07,0a.45.45,0,0,1,.19.61c-2.54,5-10.67,6.78-10.83,2.47-4.91,1.92-6.53-2-4.55-4.17-5,.59-7-2.32-6.44-4.27-4.76,0-7.64-3.36-5.24-6-4.06-.1-5.65-3.6-4.32-5.74-5.19-.1-7.72-5.4-4.25-8.22-2.42-1.06-5.47-3.4-4-5.64a2.33,2.33,0,0,1,1.32-.89c-.25-.19-.49-.37-.72-.56A9.28,9.28,0,0,1,62.21,48.38Z"/></g><g id="Group_5970" data-name="Group 5970"><path id="Path_30105" data-name="Path 30105" class="cls-2" d="M93.26,61.19c.66.47,1.49.68,2.19,1.14a.38.38,0,0,1-.26.68c-2.16-.17-4.44-1.8-4.41-4A2.15,2.15,0,0,1,92,57.1c-2.24-2-2.57-5.41-.4-5.88a7.21,7.21,0,0,1-.53-3.67,1.4,1.4,0,0,1,1.55-1.2,11.83,11.83,0,0,1-.06-2.66c.05-.59.14-1.65.93-1.79h0c.82-.14,1.34.73.73,1.16a1.37,1.37,0,0,0-.61,1.86c.27.89.19,1.9.45,2.82a4.8,4.8,0,0,1,.17.59.56.56,0,0,1-1.08.3c-.1-.3-.33-1.32-.74-1.12s-.16,1.16-.13,1.45A7,7,0,0,0,93.41,52h0a.62.62,0,0,1-1.07.58h0l0-.09c-.24-.41-1.54,0-.49,2.25a5.22,5.22,0,0,0,2,2.18c1.56.49.83,1.43.25,1.26a6.09,6.09,0,0,1-1.08-.47,1.38,1.38,0,0,0-.59.33C91.73,58.69,91.82,60.18,93.26,61.19Z"/></g><g id="Group_5971" data-name="Group 5971"><path id="Path_30106" data-name="Path 30106" class="cls-2" d="M94.54,74.72c0-.2.12-.25,1.2-.43,2.64-.44,2.6-1.51,3.5-2,.56-.31.93,1.2-1.54,2.49C95.89,75.71,94.48,75.17,94.54,74.72Z"/></g><g id="Group_5972" data-name="Group 5972"><path id="Path_30107" data-name="Path 30107" class="cls-2" d="M90.14,72.14a.27.27,0,0,1,0-.39.29.29,0,0,1,.2-.11,13.9,13.9,0,0,0,6.23-1.45c.43-.23.74.45.32.68C93.29,72.9,90.3,72.27,90.14,72.14Z"/></g><g id="Group_5973" data-name="Group 5973"><path id="Path_30108" data-name="Path 30108" class="cls-2" d="M94.36,65.84c.35,1-5.89,2-8.46.47a.31.31,0,0,1-.13-.36c.12-.36.46-.28,1.56,0a11.42,11.42,0,0,0,5.48,0C93.17,65.78,94.23,65.47,94.36,65.84Z"/></g><g id="Group_5974" data-name="Group 5974"><path id="Path_30109" data-name="Path 30109" class="cls-2" d="M88.31,50.63h0a.33.33,0,0,1,.42.2.33.33,0,0,1-.18.41A4.66,4.66,0,0,1,85,51.4a.23.23,0,0,1,.1-.44A8.9,8.9,0,0,0,88.31,50.63Z"/></g><g id="Group_5975" data-name="Group 5975"><path id="Path_30110" data-name="Path 30110" class="cls-2" d="M86.46,49.4a.25.25,0,0,1,.2.46h0c-2.84,1.38-5.79-.25-4.89-.91.39-.28,1.48.4,1.69.47A4.67,4.67,0,0,0,86.46,49.4Z"/></g><g id="Group_5976" data-name="Group 5976"><path id="Path_30111" data-name="Path 30111" class="cls-2" d="M84,48.67c-2.91-.29-3.06-.1-3.55-.49a.38.38,0,0,1-.06-.53.49.49,0,0,1,.14-.11,2.77,2.77,0,0,1,1.71.15c1.56.36,2.19.2,2.12.7A.33.33,0,0,1,84,48.67Z"/></g><g id="Group_5977" data-name="Group 5977"><path id="Path_30112" data-name="Path 30112" class="cls-2" d="M88.93,37.32c-4.37-6.17-8.39-16.2-9.29-21.4a.35.35,0,0,1,.3-.39.32.32,0,0,1,.36.21c1,2.86,1.74,5.8,2.81,8.62A82.85,82.85,0,0,0,89.2,36.85c.11.19.26.39,0,.53A.24.24,0,0,1,88.93,37.32Z"/></g><g id="Group_5978" data-name="Group 5978"><path id="Path_30113" data-name="Path 30113" class="cls-2" d="M99.68,48.36h0c.19-1.31.28-2.66.35-3.92.17-3,.18-3.8-.57-9.07-2.65-18.58.4-20.75,1.39-24.26a5.45,5.45,0,0,0-3.6,2.48c-1.21,1.78-1.52,4.06-2.16,6.1-.17.56-.93.3-.93-.22.1-7,4.11-9.83,7.45-9.35a.5.5,0,0,1,.33.77c-.17.28-.4.5-.57.75-1,1.54-1.57,4.39-1.84,6.12-1.29,8.35.7,12.87.94,22.26.06,2.77.41,4.72-.33,8.41a.23.23,0,0,1-.26.2A.24.24,0,0,1,99.68,48.36Z"/></g></g><g id="Group_5994" data-name="Group 5994"><g id="Group_5980" data-name="Group 5980"><path id="Path_30114" data-name="Path 30114" class="cls-1" d="M100.73,69a.59.59,0,0,1-.14.82l0,0a.55.55,0,0,1-.77-.1l0,0c-3.72-5.24-3.1-11.58-2.5-17.71.39-4,.73-7.39,0-11.33-1.37-7-5.09-12.6-7.89-32-2.54,3.08-3.48,7.84-3.3,11.92,2.31,6.06,3.69,10.46,5.59,16.56a.42.42,0,0,1-.77.33A37.93,37.93,0,0,1,85.41,21c-2.62-6.71-5-11.66-5.62-13-.51-1.19-.87-2-1.55-2-2,0-1,5.07-.59,7,.91,3.95,2.06,4.64,1.22,5.14a.65.65,0,0,1-.73,0l0,0a40.54,40.54,0,0,1-2-4,6.35,6.35,0,0,0-.44,3c0,1.07-.12,3.34,1.87,8A39.83,39.83,0,0,0,87.94,39.54a32.41,32.41,0,0,0,3,2.52c.52.36-.06,1.13-.57.77-1-.7-2.1-1.36-3.09-2.13a39.3,39.3,0,0,1-7.93-8.89c-1,.28-7.24-10.29-8.93-15.76-.2-.67-.49-1.59-1.07-1.69C68,14.12,68,16.89,68,18a21.11,21.11,0,0,0,2.78,10.32c1.59,1.59,6.4,6.47,7.56,8.38a.64.64,0,0,1-.7,1.07h0a24.33,24.33,0,0,1-7.49-8.45c-3.59-3.54-4.7-4.52-5.66-4.52-.35,0-.41-.53,0-.55,1.81-.12,2.53.48,4.44,2.25a27.65,27.65,0,0,1-1.71-8.28c-.08-1.4-.27-3.35.88-4.34a1.68,1.68,0,0,1,1.86-.28,3,3,0,0,1,1.23,1.8,73.1,73.1,0,0,0,5,10.62,22.63,22.63,0,0,1-1.88-6.07,8.93,8.93,0,0,1,0-3.53,12.21,12.21,0,0,1,1.42-3.17.35.35,0,0,1,.26-.15,13,13,0,0,1-.19-3.74c.05-1.27.11-3,1.33-3.81a1.8,1.8,0,0,1,1.67-.21,2.82,2.82,0,0,1,1.34,1.54c1.81,3.76,3.56,7.79,5.2,12A21,21,0,0,1,89.3,7.14a.54.54,0,0,1,.75-.1.55.55,0,0,1,.19.34c1.35,6.27,2.25,12.36,4.3,19.4.58,2,1.27,4,1.91,6,4,12.49,2.13,14.25,1.63,24.22C97.8,62.15,98.67,66.09,100.73,69ZM86.36,23.54a35.13,35.13,0,0,0,3.29,9.64C88.73,30.14,87.65,27,86.36,23.54Z"/></g><g id="Group_5981" data-name="Group 5981"><path id="Path_30115" data-name="Path 30115" class="cls-1" d="M63.73,25.09s0,.05,0,0S63.7,25.08,63.73,25.09Z"/></g><g id="Group_5982" data-name="Group 5982"><path id="Path_30116" data-name="Path 30116" class="cls-1" d="M63.6,25.25a.19.19,0,0,1,0-.25l0-.05.15,0,0,0a.18.18,0,0,1,0,.25l-.05.05-.14,0Zm.2-.25a.15.15,0,0,0-.19,0,.14.14,0,1,0,.21.17A.13.13,0,0,0,63.8,25Z"/></g><g id="Group_5983" data-name="Group 5983"><path id="Path_30117" data-name="Path 30117" class="cls-1" d="M64,25.53a4.15,4.15,0,0,0,.52,2,.22.22,0,0,1-.11.28.22.22,0,0,1-.21,0,3.38,3.38,0,0,1-.61-2.3.21.21,0,0,1,.41,0Z"/></g><g id="Group_5984" data-name="Group 5984"><path id="Path_30118" data-name="Path 30118" class="cls-1" d="M62.21,48.38c-1.58-2.37-.41-4.22,2.32-4.6-2.8-2.39-7.21-8-3.9-9.4,1.21-.53,2.74.22,4.09.95a28.9,28.9,0,0,1-2.8-4.89.25.25,0,0,1,.13-.32.26.26,0,0,1,.31.11,23.65,23.65,0,0,0,4,6,28.16,28.16,0,0,1,6.29,5.22.51.51,0,0,1-.65.77,25.24,25.24,0,0,1-5.59-4.82c-.93-.59-3.43-2.07-4.6-2.18a1,1,0,0,0-1.23.81,1,1,0,0,0,0,.49c.23,1.55,2.66,4.9,6.11,7.23a8,8,0,0,1,5.2,2.6.68.68,0,0,1-.07,1,.67.67,0,0,1-.65.14,19.21,19.21,0,0,1-5.34-2.71c-1.47-.13-3.63.34-3.43,1.77a2.32,2.32,0,0,0,.84,1.28,15.83,15.83,0,0,0,3.45,2.63,7.64,7.64,0,0,1,5.57,2.22c.51.51-.08,1.21-.68,1.09a16.77,16.77,0,0,1-5.3-2c-4.47.49-2.31,3.32,2.61,4.85a2.42,2.42,0,0,1,1.07,0,7.13,7.13,0,0,1,3.34.62.61.61,0,0,1,.38.69.6.6,0,0,1-.61.49,14.2,14.2,0,0,1-3.5-.41c-3.5,1.2-1.74,7.35,4.83,5.71l1-.29a.64.64,0,0,1,.81.4v0a.78.78,0,0,1-.49,1L75,65a3.45,3.45,0,0,0-2.11,1.44,2,2,0,0,0,.39,2.11c1.3,1.63,3.64,1.38,5.76.93.76-.17,1.22,1,.45,1.3a4.71,4.71,0,0,0-2.67,1.82c-1,2,2.43,3.53,5.3,3.43,1.12-.9,2.62-.6,2.55.21,0,.48-.48.49-1.11.66l-.78.19c-.6.74-.35,2.21,1.13,2.93a.35.35,0,0,1,.1-.46l.06,0a24.42,24.42,0,0,0,6.31-3.32,1.69,1.69,0,0,1,.07-1.15,5.46,5.46,0,0,1-4.19-2.6c-.75.33-4.91,1.79-7.48,1.69a.36.36,0,0,1-.32-.4.4.4,0,0,1,.23-.3c1.33-.37,2.73-.54,4.06-.86,1.06-.26,2.11-.57,3.14-.93a2.34,2.34,0,0,1,.15-2,9,9,0,0,1-1.44-.37c-3.77-1.22-3.87-3.39-2.71-4.66a1.07,1.07,0,0,1,.18-.19c-3-.93-3.69-4.21-1.31-6.06-2.93-1.44-3.91-5-1.48-6.44-3.87-2.93-3.42-7-1.1-7.95a3.84,3.84,0,0,1-.37-4.49c1-1.59,3.47-2.62,5.78.53a.35.35,0,0,1,0,.47c-.24.25-.5,0-.64,0a5.15,5.15,0,0,0-2.24-1c-1.56-.12-3,2.38-.55,4.65a2.07,2.07,0,0,1,.74.61.66.66,0,0,1-.15.93.65.65,0,0,1-.77,0,5.49,5.49,0,0,1-.67-.49c-.89-.22-2,.73-1.4,2.7a6,6,0,0,0,1.21,2.23A9.07,9.07,0,0,0,81,51.61a2.92,2.92,0,0,1,.4.1c.69.24.38,1.41-.34,1.21-.94-.26-2.06,1-1.21,2.56a4.55,4.55,0,0,0,2.6,2.07,7.31,7.31,0,0,1,1.23-.28.61.61,0,0,1,.64.41.53.53,0,0,1-.21.66,2.92,2.92,0,0,1-1.46.46c-.53.24-2,1.07-1.73,2.68S83.3,63.39,85,63.33a.71.71,0,0,1,.73.66.61.61,0,0,1-.55.66H85a3.25,3.25,0,0,0-2.15.74,1,1,0,0,0-.3.8c.1,1,1.92,1.74,2.88,2,.73.22,1.5.37,2.24.54.47.11.71.52.29.7a2.43,2.43,0,0,1-.6.17c-.7.91-.2,1.63.24,2.33a3.94,3.94,0,0,0,3.42,1.88,6.84,6.84,0,0,0,2-.45.54.54,0,0,1,.7.31.53.53,0,0,1-.17.62,3.83,3.83,0,0,1-1.9.73c-.4.53.07,1.17,1.19,1.41A6.05,6.05,0,0,0,96.75,76a.6.6,0,0,1,.77.38.62.62,0,0,1-.3.75,7.4,7.4,0,0,1-1.19.52,1.21,1.21,0,0,0-.58,1.4c.43,1,2.57.55,3.63.3,1.35-.32,1.49-.29,1.56-.14a.2.2,0,0,1,0,.22c-1,1.23-4.26,2-5.76.9A2.07,2.07,0,0,1,94.22,78,4.72,4.72,0,0,1,91,77.14a13.44,13.44,0,0,1-6.71,3,9.37,9.37,0,0,0,5.92-.12l.13,0c.71-.24,1.09.86.44,1.18-.89.43-2,1-2.32,2-.43,1.36,1.21,2.3,4.11,1.15.64-1.3,2.08-2,3.39-2.48a.46.46,0,0,1,.56.18.43.43,0,0,1-.07.55c-.22.2-.43.43-.63.65A8.67,8.67,0,0,1,93.7,85c-1,3.2,5.53,2.93,8.59-2.14a.43.43,0,0,1,.55-.27l.07,0a.45.45,0,0,1,.19.61c-2.54,5-10.67,6.78-10.83,2.47-4.91,1.92-6.53-2-4.55-4.17-5,.59-7-2.32-6.44-4.27-4.76,0-7.64-3.36-5.24-6-4.06-.1-5.65-3.6-4.32-5.74-5.19-.1-7.72-5.4-4.25-8.22-2.42-1.06-5.47-3.4-4-5.64a2.33,2.33,0,0,1,1.32-.89c-.25-.19-.49-.37-.72-.56A9.28,9.28,0,0,1,62.21,48.38Z"/></g><g id="Group_5985" data-name="Group 5985"><path id="Path_30119" data-name="Path 30119" class="cls-1" d="M93.26,61.19c.66.47,1.49.68,2.19,1.14a.38.38,0,0,1-.26.68c-2.16-.17-4.44-1.8-4.41-4A2.15,2.15,0,0,1,92,57.1c-2.24-2-2.57-5.41-.4-5.88a7.21,7.21,0,0,1-.53-3.67,1.4,1.4,0,0,1,1.55-1.2,11.83,11.83,0,0,1-.06-2.66c.05-.59.14-1.65.93-1.79h0c.82-.14,1.34.73.73,1.16a1.37,1.37,0,0,0-.61,1.86c.27.89.19,1.9.45,2.82a4.8,4.8,0,0,1,.17.59.56.56,0,0,1-1.08.3c-.1-.3-.33-1.32-.74-1.12s-.16,1.16-.13,1.45A7,7,0,0,0,93.41,52h0a.62.62,0,0,1-1.07.58h0l0-.09c-.24-.41-1.54,0-.49,2.25a5.22,5.22,0,0,0,2,2.18c1.56.49.83,1.43.25,1.26a6.09,6.09,0,0,1-1.08-.47,1.38,1.38,0,0,0-.59.33C91.73,58.69,91.82,60.18,93.26,61.19Z"/></g><g id="Group_5986" data-name="Group 5986"><path id="Path_30120" data-name="Path 30120" class="cls-1" d="M94.54,74.72c0-.2.12-.25,1.2-.43,2.64-.44,2.6-1.51,3.5-2,.56-.31.93,1.2-1.54,2.49C95.89,75.71,94.48,75.17,94.54,74.72Z"/></g><g id="Group_5987" data-name="Group 5987"><path id="Path_30121" data-name="Path 30121" class="cls-1" d="M90.14,72.14a.27.27,0,0,1,0-.39.29.29,0,0,1,.2-.11,13.9,13.9,0,0,0,6.23-1.45c.43-.23.74.45.32.68C93.29,72.9,90.3,72.27,90.14,72.14Z"/></g><g id="Group_5988" data-name="Group 5988"><path id="Path_30122" data-name="Path 30122" class="cls-1" d="M94.36,65.84c.35,1-5.89,2-8.46.47a.31.31,0,0,1-.13-.36c.12-.36.46-.28,1.56,0a11.42,11.42,0,0,0,5.48,0C93.17,65.78,94.23,65.47,94.36,65.84Z"/></g><g id="Group_5989" data-name="Group 5989"><path id="Path_30123" data-name="Path 30123" class="cls-1" d="M88.31,50.63h0a.33.33,0,0,1,.42.2.33.33,0,0,1-.18.41A4.66,4.66,0,0,1,85,51.4a.23.23,0,0,1,.1-.44A8.9,8.9,0,0,0,88.31,50.63Z"/></g><g id="Group_5990" data-name="Group 5990"><path id="Path_30124" data-name="Path 30124" class="cls-1" d="M86.46,49.4a.25.25,0,0,1,.2.46h0c-2.84,1.38-5.79-.25-4.89-.91.39-.28,1.48.4,1.69.47A4.67,4.67,0,0,0,86.46,49.4Z"/></g><g id="Group_5991" data-name="Group 5991"><path id="Path_30125" data-name="Path 30125" class="cls-1" d="M84,48.67c-2.91-.29-3.06-.1-3.55-.49a.38.38,0,0,1-.06-.53.49.49,0,0,1,.14-.11,2.77,2.77,0,0,1,1.71.15c1.56.36,2.19.2,2.12.7A.33.33,0,0,1,84,48.67Z"/></g><g id="Group_5992" data-name="Group 5992"><path id="Path_30126" data-name="Path 30126" class="cls-1" d="M88.93,37.32c-4.37-6.17-8.39-16.2-9.29-21.4a.35.35,0,0,1,.3-.39.32.32,0,0,1,.36.21c1,2.86,1.74,5.8,2.81,8.62A82.85,82.85,0,0,0,89.2,36.85c.11.19.26.39,0,.53A.24.24,0,0,1,88.93,37.32Z"/></g><g id="Group_5993" data-name="Group 5993"><path id="Path_30127" data-name="Path 30127" class="cls-1" d="M99.68,48.36h0c.19-1.31.28-2.66.35-3.92.17-3,.18-3.8-.57-9.07-2.65-18.58.4-20.75,1.39-24.26a5.45,5.45,0,0,0-3.6,2.48c-1.21,1.78-1.52,4.06-2.16,6.1-.17.56-.93.3-.93-.22.1-7,4.11-9.83,7.45-9.35a.5.5,0,0,1,.33.77c-.17.28-.4.5-.57.75-1,1.54-1.57,4.39-1.84,6.12-1.29,8.35.7,12.87.94,22.26.06,2.77.41,4.72-.33,8.41a.23.23,0,0,1-.26.2A.24.24,0,0,1,99.68,48.36Z"/></g></g></g><path class="cls-1" d="M141.81,30.17l-1-.36a1.35,1.35,0,0,0-.28,0A1.21,1.21,0,0,0,139.34,31c0,1.61-3.71,2.9-2.21,4.89a1.32,1.32,0,0,0,.88.53.14.14,0,0,0,0,.07.47.47,0,0,1,.4,0c.18.1.35.23.52.34a.41.41,0,0,1,.22,0,3,3,0,0,1,1.47.67c0-.05,0-.1,0-.15a2.24,2.24,0,0,1,.12-2c.3-.46.8-.82.92-1.39a1.66,1.66,0,0,0-.3-1.31l0-.06C142.68,32.81,143.18,30.67,141.81,30.17Z"/><path class="cls-1" d="M164.42,65.42a11.33,11.33,0,0,1-1.33-3.91,68.13,68.13,0,0,1-1.51-9.2c-.07-.92-.28-1.83-.41-2.74-.27-1.77-.55-3.54-.77-5.33-.15-1.2-.23-2.41-.33-3.62s-.2-2.52-.27-3.78c0-.4.07-.83-.3-1.12a.74.74,0,0,0-.51-.2,5.56,5.56,0,0,1-2.8-.24c-.47-.15-1-.25-1.44-.4-1.05-.32-2.09-.67-3.13-1l-.83-.25c-.93-.34-1.86-.67-2.78-1s-2-.89-3.08-1.3c-1.43-.56-2.88-1.06-4.31-1.61-2-.75-4-1.54-6-2.29-.87-.33-1.75-.65-2.64-.91a.69.69,0,0,0-.51,0,.68.68,0,0,0-.35.91c.18.72.46,1.42.65,2.14.24.93.44,1.87.66,2.79a7.32,7.32,0,0,0,.27.83,6.67,6.67,0,0,1,.46,1.91,9,9,0,0,0,.44,2,1.18,1.18,0,0,1-.31,1.37,13.12,13.12,0,0,0-1.88,2.26c-.29.44-.8,1-.35,1.61.16.24.31.58.7.24a.27.27,0,0,1,.26,0c.78.57,1.58,1.11,2.32,1.73s1.57,1.41,2.31,2.15c.21.21.42.44.62.66a4.59,4.59,0,0,1,.8.64,2.15,2.15,0,0,1,.55.88c.68.78,1.35,1.57,2,2.36.53.62,1.09,1.23,1.59,1.88s1,1.34,1.54,2c.14.17.29.34.43.52a3.16,3.16,0,0,1,.35.59c.07.11.15.2.22.31a25.49,25.49,0,0,1,1.27,2.5c.32.62.69,1.21,1,1.84s.42,1.33.68,2a11.56,11.56,0,0,0,.87,1.72c.19.34.46.41.93.22A9.64,9.64,0,0,0,152,62.7a10,10,0,0,1,1.95-1.33,1.77,1.77,0,0,1,1.22.19c1.72.73,3.43,1.5,5.14,2.25l1.85.82c.41.18.29.53.24.84s-.3.25-.53.26h0a.64.64,0,0,0-.64.64c0,.3,0,.61-.08.93l-.54,0h0a.71.71,0,0,0-.71.72c0,.28-.13.38-.39.46a2.73,2.73,0,0,0-.54.37,2.64,2.64,0,0,0-3.69.3,9.16,9.16,0,0,0-.79,1,1,1,0,0,1-.84.49,4.44,4.44,0,0,0-2.48.52,12.61,12.61,0,0,1-1.74.65,4,4,0,0,1,.24.84,2.2,2.2,0,0,1-.18.95c-.13.26-.49.44-.57.7a2,2,0,0,0,.12.9c.09.21.19.41.3.61.22.52.39,1.06.64,1.56a.76.76,0,0,0,1,.33,5.6,5.6,0,0,1,.81-.3,1.29,1.29,0,0,1,.67.12c.37.15.71.4,1.08.53a.93.93,0,0,0,1.14-.48c.45-1,.87-1.95,1.3-2.93.16-.36.3-.74.47-1.17A3.89,3.89,0,0,0,159.56,71a.6.6,0,0,0,.06-.19c0-.49.06-1,.68-1.13.07,0,.07-.24.15-.34a.72.72,0,0,1,.33-.27c.75-.14.9-.27,1-1a1.27,1.27,0,0,0,1.27-1.1c0-.1.19-.2.3-.25a6.26,6.26,0,0,0,.8-.35.3.3,0,0,0,.11-.06A.6.6,0,0,0,164.42,65.42ZM154.27,76.69c-.41.78-.85.76-1.43.09a1,1,0,0,0-.69-.34,2.11,2.11,0,0,0-.92.25c-.83.41-1.08,0-1.24-.82,0-.15,0-.32,0-.48a1.1,1.1,0,0,0-.15-.59c-.22-.25-.15-.42,0-.61a1.66,1.66,0,0,0,.48-1.55.5.5,0,0,1,.23-.42c.48-.26,1-.47,1.49-.69a2.11,2.11,0,0,1,.49-.09l0,.13-.59.26h0c.38.6.94.17,1.4.3,0,.84-.87,1.07-1.27,1.76.28,0,.5,0,.61,0,.53-.4,1-.84,1.6-1.31,0,0,0,0,.06,0a.39.39,0,0,1,0,.18,4.4,4.4,0,0,1-1,2.56,1.19,1.19,0,0,0-.11.44c.15,0,.38,0,.45-.13.41-.57.79-1.16,1.16-1.75a5.6,5.6,0,0,0,.27-.55A5.94,5.94,0,0,1,154.27,76.69Zm1.95-4a.67.67,0,0,1-.37-.08c-.36-.19-.71-.38-1-.6s-.48-.42-.16-.78c.5-.58,1-1.19,1.47-1.76a.84.84,0,0,1,.61-.19,2.46,2.46,0,0,1,.74.28,1.32,1.32,0,0,1,.25.16l-1.61.91.06.16h0c.56.22,1.07-.19,1.64-.12l-1,.57c.53.39,1,0,1.53,0A2.4,2.4,0,0,1,156.22,72.69Zm-1.53-15c-.49-1-.91-2-1.43-2.88a19.64,19.64,0,0,0-3.89-5.49,10.27,10.27,0,0,0-1-.72l-.13.15a3,3,0,0,0,.28.33,17.26,17.26,0,0,1,3.29,4.18c.49.85,1,1.69,1.4,2.57.35.71.64,1.47.94,2.23.17.43.32.87.46,1.31a.46.46,0,0,1,0,.38,4.81,4.81,0,0,1-.62.47,18.86,18.86,0,0,0-5.28-8.84.42.42,0,0,0,.06.27c1,1.49,2,2.94,3,4.46a25.34,25.34,0,0,1,1.16,2.54,5.59,5.59,0,0,1,.16,1.95c0,.42-.12.51-.41.55-.42-1-.78-2.06-1.25-3a30.68,30.68,0,0,0-1.56-2.8c-.27-.43-.55-.85-.84-1.27a.53.53,0,0,1,0,.12l-.08.1-.07,0a1.88,1.88,0,0,1,.05.33l1.68,3a13.77,13.77,0,0,1,1.16,3.49.25.25,0,0,0,0,.07.78.78,0,0,1-.54,1A.77.77,0,0,1,151,62c-.12-.28-.22-.57-.36-.84-1.06-2.14-2-4.32-3.22-6.38-1-1.81-2.27-3.51-3.46-5.23a1.67,1.67,0,0,0-.23-.23l-.29-.06h0c.67,1.08,1.39,2.12,2.07,3.19.52.83,1,1.67,1.54,2.51a.44.44,0,0,1,.17.26s0,.05,0,.08c.33.56.67,1.13,1,1.71l.09.19a4.33,4.33,0,0,1,.53,1.16q.33.78.63,1.56a2.44,2.44,0,0,1,.1.24l.31.78a7.88,7.88,0,0,1,.47,1.42c0,.2-.1.45-.16.68l-.06-.08,0,0,0,0a.5.5,0,0,1-.41.24s0,0,0,0l-.12.05a.42.42,0,0,1-.27,0h0v.06l-.18.06c-.13-.25-.27-.5-.39-.77-.61-1.38-1.2-2.77-1.85-4.14-.38-.85-.82-1.68-1.29-2.5h0l0-.06-.22-.38a1.58,1.58,0,0,1-.12-.15,1.47,1.47,0,0,1-.06-.14c-.12-.17-.23-.34-.36-.5a.43.43,0,0,1-.13-.17c-.46-.58-1-1.13-1.41-1.73a86.07,86.07,0,0,0-5.62-6.59c-1-1.05-2-2-3-3a8.92,8.92,0,0,0-1.95-1.56c-.61-.31-.36-.5-.13-.79s.45-.54.68-.8a2.33,2.33,0,0,1,.37-.46c.09-.13.2-.24.29-.37h0c.22-.31.4-.3.62-.17h0a1.63,1.63,0,0,1,1,.13l-.28-.29c-.45-.44-.5-.62.07-.88a.52.52,0,0,1,.44,0l.38.34a.53.53,0,0,1,.06-.35.49.49,0,0,1,.16-.16l-.1-.08c-.08-.07-.17-.24-.14-.3a.44.44,0,0,1,.32-.17.68.68,0,0,1,.38.18c.31.28.61.57.91.86a14.3,14.3,0,0,1,2.3,2H140v-.14c0-.15,0-.31-.07-.39a11.16,11.16,0,0,0-3-2.76.35.35,0,0,1-.11-.34,1.07,1.07,0,0,1,1.29-.47c.28.12.58.18.86.3l.37.16a3.12,3.12,0,0,1,1.17.54l.48.23a7.58,7.58,0,0,1,.88.6,21.6,21.6,0,0,1,1.9,1.4A12.23,12.23,0,0,1,145,41.09a6.31,6.31,0,0,0,.53.63,31.86,31.86,0,0,1,2.37,2.42,59.81,59.81,0,0,1,4.48,6.45,19.31,19.31,0,0,1,2.16,3.84c.38,1.18.73,2.38,1.07,3.58a5.37,5.37,0,0,1,.07.9l-.2,0C155.22,58.51,154.93,58.09,154.69,57.64Zm.46,2.91,0-.2c.42-.28.85-.54,1.26-.83.26-.18.57-.38.4-.77h0a11.16,11.16,0,0,1-.54-1.1c-.4-1.12-.71-2.27-1.14-3.37a33.09,33.09,0,0,0-3.79-6.44A37.53,37.53,0,0,0,146.8,42c-1.1-1.09-2.13-2.26-3.22-3.37a12.91,12.91,0,0,0-3.67-2.48c-.57-.26-1.21-.37-1.77-.65a1,1,0,0,0-1.28.16c-.64.52-1.29,1-1.94,1.52l-.26.14c-.06-.18-.12-.33-.16-.48-.24-1-.46-2-.73-3-.44-1.58-.91-3.14-1.36-4.71-.12-.4-.23-.81-.32-1.22s.07-.52.43-.39.75.24,1.11.38c1.05.39,2.08.81,3.14,1.19l4.76,1.66c.55.19,1.09.41,1.63.63,1.29.51,2.58,1.05,3.88,1.55,1.91.73,3.81,1.56,5.78,2.11a36.71,36.71,0,0,0,5.75,1.37.42.42,0,0,1,.29.24c.16,1,.3,2,.42,3.08.16,1.4.28,2.8.46,4.2.2,1.56.45,3.11.67,4.67.08.57.11,1.16.19,1.73.14.88.31,1.75.44,2.62.27,1.83.48,3.66.79,5.48.19,1.12.5,2.21.76,3.31.11.45.24.9.32,1.36a8.42,8.42,0,0,1,.09,1.07Z"/><g id="Group_6016" data-name="Group 6016"><g id="Group_5997" data-name="Group 5997"><g id="Group_5996" data-name="Group 5996"><path id="Path_30131" data-name="Path 30131" class="cls-3" d="M182.49,110.63c-1.33.4-3.05.05-4.42,0l-5.28-.28q-5.39-.28-10.76-.6l-11.14-.62-5.71-.32a30.37,30.37,0,0,1-5.94-.67c-.53-.14-.28-.88.15-1a24.65,24.65,0,0,1,5.43,0l5.69.33,11.1.64,10.27.59,5.18.32c1.77.11,3.77,0,5.47.52a.57.57,0,0,1,0,1.08Z"/></g></g><g id="Group_5999" data-name="Group 5999"><g id="Group_5998" data-name="Group 5998"><path id="Path_30132" data-name="Path 30132" class="cls-3" d="M188.79,113.49a24,24,0,0,1,3.47-1.35c.23-.08,2.61-.63.92-1.4-.66-.3-1.31-.63-2-.95-1.34-.69-2.14-1-2.5-2.55-.24-1-.34-2-.49-3,0-.28-.08-.56-.13-.84-.63-.31-1-.18-1,.4-.28.69-.56,1.39-.86,2.08-.8,1.8-2.19,1.46-3.6.5-.42-.28-.85-.53-1.25-.83a1.49,1.49,0,0,0,.2,1.54l.46.8c.41.69,1.22,1.61.9,2.49a7.85,7.85,0,0,1-1.88,2.22l-.66.76c-.43.31-.4.7.08,1.17.61-.08,1.2-.16,1.8-.29s1.51-.57,2.16-.06.79,1.49,1.18,2.37a10.69,10.69,0,0,0,.73,1.27c.69,1.11,1.16-1,1.27-1.32a10.13,10.13,0,0,0,.71-2.71c0-.82,1.42-.6,1.35.23a15.13,15.13,0,0,1-1.07,3.65c-.29.85-.73,2-1.86,1.83s-1.66-1.19-2.21-2.16c-.16-.28-.7-2.22-1.13-2.15-.88.13-1.74.41-2.63.54s-2,0-2.27-1c-.35-1.28.9-2.34,1.64-3.21.35-.41,1.6-1.35,1.18-2s-1-1.6-1.41-2.41-.81-2,.18-2.59,1.87-.14,2.74.56a10,10,0,0,0,1.21.83c.81.47,1.1-.74,1.26-1.13a15.78,15.78,0,0,1,.95-2.29,1.68,1.68,0,0,1,2.12-.75c1.19.61,1.09,2.09,1.25,3.26.13.93.07,2.63,1,3.16.55.32,1.11.61,1.67.92a7.27,7.27,0,0,1,2.35,1.39,1.54,1.54,0,0,1-.32,2.1,6.24,6.24,0,0,1-2.13.84c-1,.35-2,.74-3.1,1-.57.16-.73-.66-.26-.9Z"/></g></g><g id="Group_6001" data-name="Group 6001"><g id="Group_6000" data-name="Group 6000"><path id="Path_30133" data-name="Path 30133" class="cls-3" d="M198.1,106.5l0,.36a.52.52,0,0,1,0-.18.66.66,0,0,1,.12-.27,5,5,0,0,1,.57-.72,10.82,10.82,0,0,1,1.29-1.15c.15-.12.39.08.33.26a5.39,5.39,0,0,1-1.78,2.18.34.34,0,0,1-.47-.07.35.35,0,0,1,0-.41Z"/></g></g><g id="Group_6003" data-name="Group 6003"><g id="Group_6002" data-name="Group 6002"><path id="Path_30134" data-name="Path 30134" class="cls-3" d="M190.44,98a2.28,2.28,0,0,1,0-2.41.2.2,0,0,1,.32,0,1.29,1.29,0,0,1,.17.92c0,.46,0,.92-.12,1.37a.21.21,0,0,1-.24.16.24.24,0,0,1-.12-.07Z"/></g></g><g id="Group_6005" data-name="Group 6005"><g id="Group_6004" data-name="Group 6004"><path id="Path_30135" data-name="Path 30135" class="cls-3" d="M180.55,98.37a10.11,10.11,0,0,0-.7-1.13c-.09-.15-.17-.3-.25-.45s-.06-.4,0-.63a.24.24,0,0,1,.29-.2h0c.83.32.93,1.6,1,2.34,0,.21-.27.21-.35.06Z"/></g></g><g id="Group_6007" data-name="Group 6007"><g id="Group_6006" data-name="Group 6006"><path id="Path_30136" data-name="Path 30136" class="cls-3" d="M176,103.88a7.55,7.55,0,0,1-2.06-1.18c-.41-.28.07-1,.51-.8a6.58,6.58,0,0,1,1.72,1.65c.12.13,0,.38-.17.33Z"/></g></g><g id="Group_6009" data-name="Group 6009"><g id="Group_6008" data-name="Group 6008"><path id="Path_30137" data-name="Path 30137" class="cls-3" d="M200.1,118.05a8.84,8.84,0,0,0-1.57-.92c-.47-.24-1.09-.42-1.29-1a.21.21,0,0,1,0-.24c.47-.38,1.1.18,1.44.48.53.49,1,1,1.52,1.53.1.09-.05.18-.14.11Z"/></g></g><g id="Group_6011" data-name="Group 6011"><g id="Group_6010" data-name="Group 6010"><path id="Path_30138" data-name="Path 30138" class="cls-3" d="M189.21,126.28A1.26,1.26,0,0,0,189,126c-.15-.26-.25-.54-.38-.81a2.82,2.82,0,0,1-.42-1.12.5.5,0,0,1,.49-.51.54.54,0,0,1,.28.08,2.16,2.16,0,0,1,.6,1.29l.09.66a5.85,5.85,0,0,1-.07.72c0,.28-.34.16-.4,0Z"/></g></g><g id="Group_6013" data-name="Group 6013"><g id="Group_6012" data-name="Group 6012"><path id="Path_30139" data-name="Path 30139" class="cls-3" d="M179.41,125.24c0-.81.17-2.36,1.05-2.71.14-.06.28.11.29.23a2.53,2.53,0,0,1-.37,1.26c-.21.44-.39.89-.56,1.34-.09.22-.41.08-.41-.11Z"/></g></g><g id="Group_6015" data-name="Group 6015"><g id="Group_6014" data-name="Group 6014"><path id="Path_30140" data-name="Path 30140" class="cls-3" d="M173.08,117.56a10,10,0,0,1-1.85.53.32.32,0,0,1-.3-.19c-.14-.35.06-.53.4-.63a12.64,12.64,0,0,1,1.61-.29c.34-.07.47.5.14.58Z"/></g></g></g><polygon class="cls-3" points="179.52 114.07 181.76 110.59 180.64 105.2 181.32 104.73 184.56 106.86 186.51 104.23 187.21 102.22 188.56 102.86 189.68 107.96 193.87 110.59 194.56 111.86 189.04 114.39 187.54 118.85 186.29 118.67 184.56 114.86 183.56 114.86 181.14 115.34 179.52 114.07"/></g></g></g></svg>