<svg xmlns="http://www.w3.org/2000/svg" viewBox="0 0 61.34 19.2"><defs><style>.cls-1{fill:#b69564;stroke:#173d4f;stroke-miterlimit:10;}</style></defs><g id="圖層_2" data-name="圖層 2"><g id="圖層_1-2" data-name="圖層 1"><path class="cls-1" d="M.63,11.08a15,15,0,0,0,.27,2.4,3.42,3.42,0,0,0,.16.72,1.37,1.37,0,0,0,1.5,1,1.52,1.52,0,0,0,.8-.4l.07-.07.1-.07H3.6l.36.08a3.28,3.28,0,0,0,1.21.06,5.88,5.88,0,0,0,1.16-.26A12.46,12.46,0,0,0,8,15c.67.18,1.34.34,2,.51,1.35.35,2.69.79,4,1.19l.79.24.26.08c.29.1.57.19.86.31a16,16,0,0,0,1.81.6c.61.16,1.22.17,1.83.27a8.44,8.44,0,0,1,.87.2l0,.06.23.07a8.62,8.62,0,0,0,2.91.1l.81-.05h1.25q4.53-.06,9.06-.19c3-.08,15-.45,18-.58L55,17.69a16.82,16.82,0,0,0,2.36-.19,2.94,2.94,0,0,0,1.85-1.28,3.32,3.32,0,0,0,.26-.28.4.4,0,0,0,.09-.29,11,11,0,0,0,.64-1.7,15.42,15.42,0,0,0,.1-8.36,14.92,14.92,0,0,0-.63-1.81,6,6,0,0,0-1-1.76.38.38,0,0,0,.06-.59A2.94,2.94,0,0,0,56.81.59.37.37,0,0,0,56.55.5c-3.16.11-6.32.48-9.49.56s-15,.43-18,.66C28,1.8,27,1.9,25.93,2s-2.08.08-3.12.13a9.37,9.37,0,0,0-2.89.38l-.22.08,0,.05c-.28.1-.56.21-.84.28a18.13,18.13,0,0,0-1.8.43A17.74,17.74,0,0,0,15.36,4c-.6.29-1.22.53-1.84.77-1.29.5-2.58,1-3.9,1.5L7.67,7a8.88,8.88,0,0,0-1.87.74h0a5,5,0,0,0-.58-.24,3.19,3.19,0,0,0-.68-.3,1.61,1.61,0,0,0-1.59.21.24.24,0,0,0-.05.13l-.1.11a1.29,1.29,0,0,0-1.47-.32A1.59,1.59,0,0,0,.5,8.83C.48,9.57.59,10.33.63,11.08Z"/></g></g></svg>