<svg xmlns="http://www.w3.org/2000/svg" xmlns:xlink="http://www.w3.org/1999/xlink" viewBox="0 0 195.41 182.99"><defs><style>.cls-1{fill:#fff;}.cls-2{mask:url(#mask);}</style><mask id="mask" x="-6.24" y="62" width="86.27" height="35.74" maskUnits="userSpaceOnUse"><path class="cls-1" d="M74.23,74.34a4.54,4.54,0,0,0-1-2.47,3.11,3.11,0,0,0-2.08-3,3,3,0,0,0-1.59-4.06,2.93,2.93,0,0,0-1.82-1.71c-5.39-1.9-11.13-1.18-16.33,1a3.09,3.09,0,0,0-1.9,2.31l-.33,0c-1.73.27-3.44.57-5.14,1a22.34,22.34,0,0,0-5.42.67l-.11,0A10.79,10.79,0,0,0,32,69.36a2.73,2.73,0,0,0-1.43,1.92c-1.3.42-2.59.87-3.85,1.42a2.46,2.46,0,0,0-1.35,1.74,2.68,2.68,0,0,0-.92.2l-2.35.91A2.93,2.93,0,0,0,20,72.4a14.25,14.25,0,0,0-5.1.23,2.67,2.67,0,0,0-1.85,0L8.63,74.12a1.68,1.68,0,0,0-.24-.06c-1.31-.92-2.63-1.84-4-2.61-1.73-1-3.8-1.33-5.44.07s-2.48,4-3.24,5.87l-.17.42a4.34,4.34,0,0,0-.2.5c-.81,2-1.69,4.41-1.57,6.47a3,3,0,0,0,1.49,2.59,8.31,8.31,0,0,0,5.63.17,2.7,2.7,0,0,0,2.95.87l.09,0a3.13,3.13,0,0,0,1.43.45l.62,0A3.25,3.25,0,0,0,5.78,91c-2,1.46-1.46,5.48,1.71,5.48H19.34c1.54,0,3.18.16,4.76,0l.36.4a3,3,0,0,0,4.71-.61,11.32,11.32,0,0,0,1.11-3.63,10.15,10.15,0,0,0,3.37,1A2.57,2.57,0,0,0,36,92.55c-3.07-1.14-5.27-4.34-5.9-7.73l0,0,0-.29c0-.1,0-.21,0-.31s0-.23,0-.34,0-.16-.05-.25l0-.06A9.42,9.42,0,0,1,30,81.15a6.74,6.74,0,0,1,.26-1,6.76,6.76,0,0,1,.16-.85v0a3.21,3.21,0,0,1,1.06-2l.06,0a1.14,1.14,0,0,1,.19-.19,3.24,3.24,0,0,0,.56.47A3.32,3.32,0,0,1,34.16,77a4.36,4.36,0,0,1,1,.14,2.27,2.27,0,0,1,.62-2.2A3.09,3.09,0,0,1,37.37,74l.13,0a3.57,3.57,0,0,1,.92-.07,3.31,3.31,0,0,1,.88.15c.1,0,.19.08.29.12l.15,0a3.32,3.32,0,0,1,.47.2h0a4,4,0,0,1,2,1.56A1.62,1.62,0,0,1,43.33,77a1.35,1.35,0,0,1,0,.66c.28.32.56.65.81,1a2.86,2.86,0,0,0,2.91-.73c.19-.22.37-.44.56-.65h.08a3,3,0,0,0,2,1c2.78.22,5.53.39,8.28.48a4.92,4.92,0,0,1,3-1c2.61,0,5.2.41,7.81.28a4.15,4.15,0,0,1,2.22.49,3.34,3.34,0,0,0,1.7-.5A2.5,2.5,0,0,0,74.23,74.34Z"/></mask></defs><g id="圖層_2" data-name="圖層 2"><g id="_0-ui_kits" data-name="0-ui_kits"><g id="pipi-0"><path class="cls-1" d="M73.78,62.19a.6.6,0,0,0,.41-1,.59.59,0,0,0-1,.39A.61.61,0,0,0,73.78,62.19Z"/><path class="cls-1" d="M74.11,53.47a6,6,0,0,1,2.54-.33c.77,0,1-.77.55-1.37-1.08-1.3-5.22-.62-5.11,1.26C72.15,54.14,73.6,54.76,74.11,53.47Z"/><path class="cls-1" d="M71.61,41.18c-2.08,2.9,1.22,8.24,5.8,6.47a6.31,6.31,0,0,0,2.15,2.8c-1.54,1.91-.25,5.15,3.63,5.4.35.23.94.08,1.44-.05,1-.23.72-1.76-.25-1.64-3.68.47-4.63-2.09-3.69-3.25a2.09,2.09,0,0,0,1.57-.38h0a.73.73,0,0,0-.56-1.33c-.87.15-2,0-3-2.29.63-.56,1.19-1.46,1-2-.21-.86-2.16-.71-2.64.73-2.69,1.44-5.28-.55-4.54-4.07A.51.51,0,0,0,71.61,41.18Z"/><path class="cls-1" d="M86.09,56.34c.07.5.77.7,1,.2a3.89,3.89,0,0,1,2.53-2.13c-1.08.51-2,1.82-1.72,2.94a.76.76,0,0,0,1.39.17c.46-.82.22-2,2.16-1.75.5.06,1.13.14,1.3-.51s-.38-1.06-1.31-1.17c.26,0,.51,0,.73,0A1.7,1.7,0,0,1,94,55.69c.13,1.26-1.21,3.82.07,3.88a.6.6,0,0,0,.43-.14c2.11-1.69,2.3-6.71-1.68-7.24C90.23,51.85,85.65,53,86.09,56.34Z"/><path class="cls-1" d="M88.17,62a2.45,2.45,0,0,0,1.08-.34c.92-.43.87-2.75-.31-3.34a1,1,0,0,0-1.16.25c-.24.21-.55.46-.48.79s.34.41.58.49a.88.88,0,0,1,.06.28C86.6,60.85,87.27,62,88.17,62Z"/><path class="cls-1" d="M86.06,65.45c2.24,1.3,6.94-.1,7.45-3.09,0-.1.06-.39-.16-.52s-.55.06-1.18.55a6.11,6.11,0,0,1-3.8,1.68,6.63,6.63,0,0,1-1.46-.18.9.9,0,0,0-.62,0A.87.87,0,0,0,86.06,65.45Z"/><path class="cls-1" d="M78.93,56.41a6.35,6.35,0,0,1-1.15-.36,4.82,4.82,0,0,0-4.17,1.4,1.3,1.3,0,0,0,.35,2l0,.09a1.78,1.78,0,0,0,.65,1.72,1.24,1.24,0,0,0,1.78-.09.93.93,0,0,0,.12-.58.52.52,0,0,0,0-.18.6.6,0,0,0-.16-.45L76,58.76a5.25,5.25,0,0,1,2.8-1.55A.4.4,0,0,0,78.93,56.41Z"/><path class="cls-1" d="M75.18,61.89a.63.63,0,1,0,.57.41A.64.64,0,0,0,75.18,61.89Z"/><path class="cls-1" d="M70.73,89.31a2,2,0,0,0,1.5.61,2,2,0,0,0,2.11-1.45,1,1,0,0,0-1.45-1.09c-.63.32-.41.5-1.23.31A1,1,0,0,0,70.73,89.31Z"/><path class="cls-1" d="M67.25,80.64c-4.07-.59-14.41,1-18,2.07-.19.06-.44.13-.39.38.11.6,1.62-.11,12.18-.82,4.77-.33,6.78-.55,9.5,1.19a.48.48,0,0,0,.55,0,.51.51,0,0,0,.15-.57C71.13,82.27,70.1,81.06,67.25,80.64Z"/><path class="cls-1" d="M134.67,129.87c-6.5,3.65-11.74,3.44-15.15,4.33a.51.51,0,0,0,0,1c9.37,2.48,30-8.45,31.45-25.47.05-.55-.74-.64-.91-.15s-.28,1-.41,1.41A33.58,33.58,0,0,1,134.67,129.87Z"/><path class="cls-1" d="M169.48,177.77a.4.4,0,0,0-.22.77,1.61,1.61,0,0,1,1.07,1.63.4.4,0,0,0,.38.43C171.62,180.71,171.29,178.07,169.48,177.77Z"/><path class="cls-1" d="M168.59,179.78c-.21-.43-.74-.56-1-1-2.4-3.62-4.65-3.9-10-8.81-3.25-3-7.73-4.22-12.93-5-2.44-.37-4.89-.74-7.29-1.32-1-.23-1.86-.59-2.81-.81a34.21,34.21,0,0,1-3.82-.64,19.28,19.28,0,0,1-3.47-1.71,9.72,9.72,0,0,1-2.26-1.89c-.29-.36-.87-1.06-1.39-1.06-.93,0,.07,1.5.3,1.86a7.06,7.06,0,0,0,3.47,2.81c.62.23,1.17.6,1.8.8a24.14,24.14,0,0,0,2.87.73c1.8.35,3.54.91,5.31,1.4a63.69,63.69,0,0,0,7.19,1.33c14.9,2.31,10.5,5.17,17.88,9.12,2.19,1.18,3.71,3.43,5.34,5.29.79.9,1.5.28,1.25-.35A8.24,8.24,0,0,0,168.59,179.78Zm-45.46-22a.87.87,0,0,0-.1.24A.15.15,0,0,1,123.13,157.79Z"/><path class="cls-1" d="M173.63,175.67a6.28,6.28,0,0,0-.15-3.16c-1-3.28-4.92-4.35-6-6.82-.61-1.42,0-3.11.29-4.66,1-4.78-1.59-7.46-7.09-5.54a.61.61,0,0,0,.35,1.17c3.14-.81,5.41-.88,5.55,2.36.12,2.57-1.48,5-.21,7.58,1.72,3.53,7,3.47,5.58,9.84-.1.44-.59.77-.63,1.32-.08.84.71.6.88.78a3.25,3.25,0,0,1-.5,2.58c-.25.33-.63.38-.94.74s-.13,1.22.49,1.12c.47-.07.64-.45,1.07-1a5.41,5.41,0,0,0,.68-1,.47.47,0,0,0,.69.53,3.41,3.41,0,0,0,1.32-3.13A4.17,4.17,0,0,0,173.63,175.67Zm-.51,5.07a4,4,0,0,0,.15-1.92c-.08-.51-.25-.57-.39-1.4a4.28,4.28,0,0,0,.26-.42,2.7,2.7,0,0,1,.56,2.68A7.93,7.93,0,0,1,173.12,180.74Z"/><path class="cls-1" d="M164.32,160.8c-1.67,2.77-1.5,4.92-.89,4.95.31,0,.31-.32.37-.65a6.79,6.79,0,0,0,.17,1.2.48.48,0,0,0,.47.38c.44,0,.52-.31.86-1.26a.3.3,0,0,0,.24-.09c.19-.2,0-.49-.09-.74a.5.5,0,0,0-.69-.27,8.53,8.53,0,0,1,.35-2.5c.11-.36-.22-.52-.43-.34.06-.12.12-.24.19-.36A.32.32,0,0,0,164.32,160.8Z"/><path class="cls-1" d="M104.44,66.85c-1.43.83-4.09,2.37-6.07-.65a5.41,5.41,0,0,1-.63-2.73.49.49,0,0,0-.92-.2c-1.12,2.35,1.07,6.23,4.68,6.23,3.18,0,4.43-2.55,4-2.94-.21-.17-.46,0-1,.29l.09.16h0Z"/><path class="cls-1" d="M143.45,108.53c-3.83,3.29-6,5.24-13.14,7.32-2.75.8-5.59,1.4-8.36,2.16-4.39,1.21-8.43,2.76-8.52,3.17l0,.15c.18.15.22.2.45.11,5.49-2.19,11.62-2.58,17.32-4.18,4.54-1.27,10.81-3.91,13.13-8.07A.55.55,0,0,0,143.45,108.53Z"/><path class="cls-1" d="M172.38,93.69c-1.54.8-2.18,2.52-2.4,4.25a2.83,2.83,0,0,1,.51.19c1.26-4.79,3.51-4.33,7.75-1.81,2.25,1.34,2.87,1.69,6.19,1.39,1.84-.17,3.74-.35,5.51,1.24.48.43,1-.43.54-.84-1.87-1.64-3.92-1.77-6.21-1.6s-3.56,0-6.41-1.75C176.7,94,174.5,92.58,172.38,93.69Z"/><path class="cls-1" d="M177.68,97.31a.38.38,0,0,0-.41.63c1.77,1.43,4.6,1.74,4.6.81a.43.43,0,0,0-.3-.41,3.49,3.49,0,0,0-1.09-.18v.18h0v-.18C180.27,98.11,180.09,98.35,177.68,97.31Z"/><path class="cls-1" d="M173.6,101.81a.44.44,0,0,0-.11-.39c-.54-.69-1.63-.09-1.92.86s.32,1.69.82,1.6.46-.44.32-.82C172.37,102.08,173.45,102.41,173.6,101.81Z"/><path class="cls-1" d="M158.79,113.61c3.85-7.6,9-7.84,11.32-9.66,1.84-1.45,1.67-3.13,1.28-3.9s-.85-.48-.82,0c.22,3.51-3.75,3.73-6.9,6.06-3.6,2.66-5.69,6.82-5.37,7.68C158.52,113.86,158.64,113.9,158.79,113.61Z"/><path class="cls-1" d="M158.68,113.9c-1.22,2.1-1.23,2.1-1.41,2.45.72-2.15,1.18-2.42.79-2.66a.28.28,0,0,0-.38.06,9.56,9.56,0,0,0-1.53,2.6,7.62,7.62,0,0,1,1.56-2.67c.17-.2.1-.3,0-.48h-.15c-.28,0-1.19.86-1.77,2-1.38,2.62-.38,3-.1,2.6-.75,3,.31,3.19.63,2.58.09,1.22.57,1.4.85,1.21.3.91.72.8,1.14.8C156.93,118.67,157.83,116.63,158.68,113.9Z"/><path class="cls-1" d="M195.22,102.77h0c-4.48-2.54-9.78,1.14-13.56,2.11-7.21,1.86-6,14.49-13.86,21a39.65,39.65,0,0,1-22,5c5.74-9.33,7.9-19.47,8-21.6a28.86,28.86,0,0,1,3.76,1.38c.4.12,2.27-.85-3.52-2.37a18,18,0,0,0-4.36-.54c.19-6-4.62-11.06-10.18-10.55l-.49,0a.45.45,0,0,0-.07.88,5.65,5.65,0,0,1,1.43.5,12.1,12.1,0,0,1,3.57,2.15A8.88,8.88,0,0,1,147,108c0,.76,0,1.3.33,1.63a1.48,1.48,0,0,0,2.25-.87,16.11,16.11,0,0,1,3.54.36c-.43,1.16-.7,2.94-1.74,6.4-4.71,15.54-15.72,29.54-31.49,32.42.31.65.39.83.71,1.52a37.75,37.75,0,0,0,19.15-10.72c.67,5.28-1.66,8.45.35,8,1.23-.28,1.84-5.66.95-9.39a42.23,42.23,0,0,0,3.7-4.79l.48,0-.1.2c10.72.93,23.93-3.18,27.07-8.7,7.38-13,3.64-14.8,11.06-17.69s7.7-3,11.76-2.92a.39.39,0,0,0,.39-.3A.39.39,0,0,0,195.22,102.77Z"/><path class="cls-1" d="M153,151.7c-6.71-5-13.43-5-14.09-3.95h0l-.13.21s0,.05,0,.08l.07.09,0-.06a.51.51,0,0,0,0,.13,3.37,3.37,0,0,1,.19.32.7.7,0,0,0,.5.22c1.94-.06,2.37-.51,5.32.26,4.92,1.27,8.67,4.91,12.09,8.38.37.38.8.65,1.13,1a.54.54,0,0,0,.88-.15C159.22,157.59,156.21,154.12,153,151.7Z"/><path class="cls-1" d="M97.32,74.58c.84.12,1.84.21,2-.68.18-1.21-3.59-2.38-6.81-.81-.6.29-1.43,1.22-2.08,1.22.84-.9,1.95-2.22,1.88-3.54,0-.33-.47-.76-.84.07-.92,2.08-3.38,3.31-5.56,4C82,76,74.36,75.31,75.05,71.31c.1-.63.39-.61.86-.94s.72-.8,1-1c.49-.3,1.3-.85,1.37-.92a.84.84,0,0,0-.14-1.43c-.41-.17-.68.09-1,.33a14.61,14.61,0,0,0-1.4,1.12,4.77,4.77,0,0,1-3.78-.11,2.68,2.68,0,0,0-1-3.9,1.43,1.43,0,0,1-.86-1c-.4-1.15,1.18-2.09,1.89-3,2.46-3.21-1.37-7.24-.68-10.24.28-1.23,1.39-1.6.89-2.28-.67-.9-2.76.71-2.62,3.23a20,20,0,0,0,1.41,5c1.38,4.39-2.64,3.69-2.51,7,.08,2,2.17,2.57,2.21,3.6s-1.16.88-1,1.75,1.42,1.47,2.61,1.84c-.85.32-.45,1.71,1.17,2,.8,3.2,5,4.24,8.3,4.37-10.08.27-33.72.59-37.1.63-1.26-.86-.89-1.26-1.28-1.81-.62-.88-2,.24-.81,2.06,1.11,1.64,4,1.88,3.39,4.49a.87.87,0,0,0,1.29.92.81.81,0,0,0,.4-.82,4.38,4.38,0,0,0-1.09-3.45c16.79-.2,31-.26,30.91-.26a36.64,36.64,0,0,0-3.86,2,.33.33,0,0,0-.16.43c.33.8,3.56-1.45,4.09-1.66,4.17-1.66,9-1,12.83-3.19A11.8,11.8,0,0,1,97.32,74.58Z"/><path class="cls-1" d="M49.34,93.38c2,0,2.85.71,5.59,1.29,3.57.75,7.75,2.48,14.76,1.13,1,0,1.9-1,5.12.1,2.43.8,7.23,1.63,10.35.51,4.45-1.6,7.73-.34,8.43-.43,1-.13,1.55-1.7-1.68-2.65-2-.6-4-.09-6,.41-2.84.72-4.74,1.08-10.62,0a14.08,14.08,0,0,0-3.79-.43,46,46,0,0,1-11.5.27c-3.22-.42-4.78-1-8.46-1.39-1.24-.12-2.32-.82-3.67-.76a18.63,18.63,0,0,0-3.34.66,17,17,0,0,1-7.09.28,2.14,2.14,0,0,0-1.4-.14c-.74.36-.61,1.13,0,1.61a4.38,4.38,0,0,0,2.37.46C43,94.32,43.14,93.53,49.34,93.38Z"/><path class="cls-1" d="M99.22,120.52l-.26-.17-.17-.19c-1.62,3.22-13.07,26.06-13.07,26.06l.8,1.38c.74-1.3,10.13-20.16,13.21-26.33a2.71,2.71,0,0,1,.06-.37A4.35,4.35,0,0,0,99.22,120.52Z"/><path class="cls-1" d="M139.79,98.65a16.58,16.58,0,0,1-3.66,7c-3.09-2.71-6.11-2.86-6.5-2.68a.29.29,0,0,0-.17.27c0,.25.24.29.86.52a12.41,12.41,0,0,1,5,2.76c-6.84,6.74-18.94,7.09-26.63,13.69a18.74,18.74,0,0,0-1,2.09c-.38-.15-.77-.31-1.15-.48a38.65,38.65,0,0,1-6.23-3.38A41.62,41.62,0,0,1,90,108.59a47,47,0,0,1-4.28-6.88.28.28,0,0,0-.51.21,33.92,33.92,0,0,0,7.62,12.57,40.59,40.59,0,0,0,12.1,8.76,37.59,37.59,0,0,0,3.79,1.54c.69.24,1.38.47,2.08.65a4.64,4.64,0,0,0,2.21.21.73.73,0,0,0,.32-1.29,4.64,4.64,0,0,0-1.68-.75c-.57-.2-1.15-.34-1.72-.53s-1.37-.46-2-.72c8.7-8.28,20.09-6.65,28.54-14.64.55.7,1.1,1.72,1.66,1.38a.49.49,0,0,0,.24-.45,3.17,3.17,0,0,0-1-1.82,15.41,15.41,0,0,0,3.09-5,8.4,8.4,0,0,0,.49-3.15C140.92,98.05,139.94,98,139.79,98.65Z"/><path class="cls-1" d="M67.41,50.2a.85.85,0,0,0,.5-1.56,4.75,4.75,0,0,1-3-3.22,3.8,3.8,0,0,1,.29-2.28,5.59,5.59,0,0,1,1.54-1.91.55.55,0,0,0-.4-1l-.75.23c.88-1.39,2.4-1.84,4.85-1.45a.51.51,0,0,0,.54-.28c.15-.31-.06-.49-.24-.67a2,2,0,0,0-.84-.55c-4.5-1.16-6.91,3.55-6.07,4.61a.43.43,0,0,0,.24.18C61.71,46.41,65.44,50.2,67.41,50.2Z"/><path class="cls-1" d="M90.12,31.32a.31.31,0,0,0,.35.51c6.82-4.61,11.92.47,9.67,3.9-.37.58.42,1.13.89.72a2.58,2.58,0,0,1,4.1,2.95.73.73,0,0,0,1,1,1.88,1.88,0,0,1,2.58,2.26c-.37,2.1-2.58,3-4.34,3.81a.58.58,0,0,0,.25,1.09A7.11,7.11,0,0,0,108.38,46c3.42-2.68,1.78-7.6-1.66-7.31a3.84,3.84,0,0,0-5-3.9C102.39,30.6,97.1,26.3,90.12,31.32Z"/><path class="cls-1" d="M106.21,50.35a.46.46,0,0,0-.44.8,3.58,3.58,0,0,1,1.33,4.11c-.81,2-2.84,2.12-3.8,2.27a.62.62,0,0,0-.16,1.15,3.92,3.92,0,0,0,4.3-1A4.44,4.44,0,0,0,106.21,50.35Z"/><path class="cls-1" d="M144.6,10.9a8.71,8.71,0,0,0,.81-6.83.84.84,0,0,0-.91-.61.86.86,0,0,0-.74.81A6.39,6.39,0,0,1,141,8.48a12.93,12.93,0,0,1-5.54,2,8.68,8.68,0,0,1-3.21.13,10.72,10.72,0,0,1-2.8-1.27C128.25,8.7,127,8,125.77,7.3a6.32,6.32,0,0,0,1.51,0A15.67,15.67,0,0,0,133,5.06,8.54,8.54,0,0,0,137.26.72c.26-.71-.87-1-1.12-.32A7.35,7.35,0,0,1,132.57,4c-.86.48-1.74.93-2.63,1.34a8.05,8.05,0,0,1-2.94.87c-2.14.13-4-1.11-6-1.73A15.72,15.72,0,0,0,115,3.8a16.06,16.06,0,0,0-6.52,1.94.52.52,0,0,0-.29.48,16.91,16.91,0,0,0-6.47,4.6,11,11,0,0,0-2.54,6A8.27,8.27,0,0,0,99.53,20a3.87,3.87,0,0,0,1.16,1.91,6.28,6.28,0,0,0-.85,1.91A8.06,8.06,0,0,0,90.25,26c-1.2-1.18-6.09-3-10.59.48-1.34,1-2.89,2.95-2.59,4.49a7.38,7.38,0,0,0-6.51,6.31.36.36,0,0,0,.34.41.35.35,0,0,0,.36-.27c1.35-5.55,8.72-6.8,8.36-3.07a.47.47,0,0,0,.8.34c1.09-1.21.22-3.6-2.63-3.73.67-1,3.69-7,10.33-4.37.5.2,1,.47,1.49.65,0,.18,0,.39.15.49.49.27,1.37-1.11,1.83-1.53,3-2.79,8.29-2.63,10.77,2.22a4.71,4.71,0,0,1,5.41.16c.9.75,1.74,1.89,1.19,2.92-.29.55-1,.4-1.18,1a.45.45,0,0,0,.12.56,1,1,0,0,0,1.26.25,14.23,14.23,0,0,1,5.21,2,.88.88,0,0,0,.29,1.53c2.12.74,5,3,4.18,3.24-.53.19-1.2-.35-1.68-.7-.88-.63-1.88.55-1.41,1.38,3,5.38,5.1,10.15.49,14.76a.77.77,0,0,0,.62,1.3,3.31,3.31,0,0,1,1.91,1.49,3.18,3.18,0,0,1,.14,2.83c-1,2.8-3.72,3.18-4.68,3.72a.75.75,0,0,0-.32,1.47c1.15.36,1.77,2.06.39,2.55a1.61,1.61,0,0,1-1.21-.11c-.56-.19-1.34.38-.86,1.33-2,2.28-4.68,1-3.94-.52a.49.49,0,0,0-.67-.64c-.76.42-1.12,1.33-1.68,1.83a4.22,4.22,0,0,1-4.53.84c-.66-.54-.77-.85-1.1-.8-.26-.12-.54,0-.43.44,0,.56,1,2.62,4,2.62a4.83,4.83,0,0,0,2.88-1c1.8,1.71,6.48.32,6.7-2.38,2.32.17,4.35-2.27,2.9-4.41,5.31-2,5.61-7.86,2.16-10.09a5.49,5.49,0,0,0,1.68-2.19c2.06-4.24.39-8.47-1.37-11.74,2-.2,3.95-2.68-1-5.67,0-1.23-4.45-3.66-7.56-4.1,1.36-1.82.08-4.26-2.21-5.39a1.1,1.1,0,0,0,.27-.26,4,4,0,0,0,.75-2.17.59.59,0,0,0,.36-.62,1.87,1.87,0,0,1,1.19-1.79,5.29,5.29,0,0,1,2.9-.17,20.26,20.26,0,0,1,6.07,1.91c1.81.9,3.46,2.09,5.29,3a10,10,0,0,0,6.06,1,6.39,6.39,0,0,0,4.78-3.74.7.7,0,0,0-.25-.75.73.73,0,0,0-.79-.06,5.25,5.25,0,0,1-4-.05h.68a33.76,33.76,0,0,0,5.22-.47,9.66,9.66,0,0,0,7-5.53A14.36,14.36,0,0,0,145,11.52.62.62,0,0,0,144.6,10.9Zm-42,15.16a3,3,0,0,0,.92.56v0a3.66,3.66,0,0,0-.43.15A6.27,6.27,0,0,0,102.64,26.06Zm3.06.27.59-.27.24.07a.7.7,0,0,0,.32,0,.84.84,0,0,0,0,.35A6.56,6.56,0,0,0,105.7,26.33Zm1.52-.93v0a.71.71,0,0,0,0-.25l.13,0A1.28,1.28,0,0,1,107.22,25.4Zm35.49-14.66A10.89,10.89,0,0,1,137.77,14a20,20,0,0,1-11.68.67A19,19,0,0,1,120,12c-.9-.59-1.76.85-.86,1.44a21.27,21.27,0,0,0,12.48,3.45,20.83,20.83,0,0,0,6.43-1.24,13.68,13.68,0,0,0,5.43-3.24,10.58,10.58,0,0,1-3.13,7,7.69,7.69,0,0,1-3.66,1.85,28.36,28.36,0,0,1-4.69.48,11.83,11.83,0,0,1-5.21-.71c-.77-.33-1.21.87-.57,1.29,2.2,1.43,4.71,2.87,7.31,2.64a5.53,5.53,0,0,1-3.27,1.52A9.86,9.86,0,0,1,124.5,25a57.19,57.19,0,0,0-5.5-3,19.43,19.43,0,0,0-6.31-1.56,5,5,0,0,0-3.3.84,3.22,3.22,0,0,0-1.29,2.29,4.43,4.43,0,0,1-2.29-.73,25.5,25.5,0,0,1-2.44-1.25,7.12,7.12,0,0,0-1-.62.84.84,0,0,0-.4-.24c-.65-.19-.84-1.23-1-1.79a6.89,6.89,0,0,1,0-2.52,9.39,9.39,0,0,1,2.24-4.68,15,15,0,0,1,4.52-3.37,24,24,0,0,1,5.56-2,12.64,12.64,0,0,1,6,0,23.4,23.4,0,0,1,5.33,2.2c1.75.93,3.45,2,5.21,2.9a7.59,7.59,0,0,0,3.2,1,14.63,14.63,0,0,0,3.17-.31,13.7,13.7,0,0,0,6.21-2.53A8.77,8.77,0,0,0,144,7.92,6.71,6.71,0,0,1,142.71,10.74Z"/><path class="cls-1" d="M74.06,21.69A83.13,83.13,0,0,0,50.8,37.26c-6.52,6.22-14.32,16.13-17,24.27a21.83,21.83,0,0,0-.85,11.37,13.43,13.43,0,0,0,1.58,4.3c.08.21.14.29-1.36.34A9.72,9.72,0,0,1,35.21,79a9.74,9.74,0,0,0,4.34-.08,8.24,8.24,0,0,1,1.58-.25c-.3-1.41-.62-1-5.1-.39a3.64,3.64,0,0,0-.62-2.51,18,18,0,0,1-.59-12.38c2.77-10,17.26-30.51,40-39.46a1.24,1.24,0,0,0,.82-1A1.14,1.14,0,0,0,74.06,21.69Z"/><polygon class="cls-1" points="34.66 77.12 34.66 77.12 34.66 77.12 34.66 77.12"/><path class="cls-1" d="M79.46,22a1.53,1.53,0,0,0,.07.51,18.55,18.55,0,0,1,.35,2.13c.11,1.32,2.05.67,1.45-.37-1.12-1.95-1-2.63-1.48-2.59a1.22,1.22,0,0,0,.07-.17.81.81,0,0,0,.82-.32c.83-1.07-1.36-1.39-1-3.11.12-.56-.7-1-1-.39a3.75,3.75,0,0,0-.17.47.52.52,0,0,0-.82,0,2.49,2.49,0,0,0-.26,2.08C77.84,21.39,78.65,22.39,79.46,22Z"/><path class="cls-1" d="M81.45,146.71c-6.89-4.82-14.71-10.28-21.83-16.39-12.7-10.89-20.08-21.88-21.73-27a8.4,8.4,0,0,1-.37-4.71,2.06,2.06,0,0,0-.18-1.71.54.54,0,0,0-.39-.21,1.23,1.23,0,0,0-1.28.83c-1.59,3.84.7,8.45,2.84,12,10,16.61,26,28,41.86,39.13a.92.92,0,0,0,.76.12A1.15,1.15,0,0,0,81.45,146.71Z"/><path class="cls-1" d="M85.23,149.35a2.75,2.75,0,0,0,.53-.6c.6-.8-.63-1.77-1.31-1.08l-.21.23c-.63-.62-1.4.25-1.95.9-1,1.19-1,1.16-1,1.65,0,.21.12.31.28.32.48,0,.5,0,1.08-.44a4.62,4.62,0,0,0-.22.91.73.73,0,0,0,.77.79C84.16,152,84,150.86,85.23,149.35Z"/><path class="cls-1" d="M86.34,150.41a.65.65,0,0,0-.93-.76,1.88,1.88,0,0,0-.6.69c-.4.64-.48.62-.59,1.1a.45.45,0,0,0,.67.5c.42-.19.36-.25.91-.79A2,2,0,0,0,86.34,150.41Z"/><path class="cls-1" d="M86.73,151.1a.89.89,0,0,0-.87,1.07c.2.91,1.15,1.25,1.71,3.16a11.18,11.18,0,0,1,.31,2.07c.11.83,0,1.23.37,1.67a.79.79,0,0,0,.6.26c1.37,0,1.79-2.46,1-4.71C89.41,153.34,88.07,151.15,86.73,151.1Z"/><path class="cls-1" d="M123.55,155.78a75.64,75.64,0,0,1-5.39-11.49c-.73-2-1.38-4-2-6-.31-1-.59-2-.88-3s-.65-2-.91-3c-.3-1.17-.48-2.38-.68-3.57s-.3-2.33-.59-3.46a0,0,0,0,0-.09,0,18.85,18.85,0,0,0,.18,3.09c.11,1.08.25,2.15.41,3.22s.27,2.13.41,3.19a31.36,31.36,0,0,0,.63,3.18,64.6,64.6,0,0,0,4.28,12.24c1,2.22,2.13,4.39,3.34,6.51C122.75,157.51,124.05,156.65,123.55,155.78Z"/><g class="cls-2"><path class="cls-1" d="M1.16,78.06A1.84,1.84,0,0,0,0,79.62a2.13,2.13,0,0,0,.62,1.6,6.92,6.92,0,0,0,3.65,1.86,13.78,13.78,0,0,0,6.15-.47s0,0,0,0c-1.12.07-2.23.24-3.35.29a10.48,10.48,0,0,1-2.68-.22,6.11,6.11,0,0,1-3.63-2A1.4,1.4,0,0,1,.9,78.81a2.19,2.19,0,0,1,2.26-.22,3.29,3.29,0,0,1,1,.76,12.3,12.3,0,0,0,1.06,1A11.08,11.08,0,0,0,7.53,81.7a10.64,10.64,0,0,0,2.68.87.24.24,0,0,0,.12-.45c-.86-.33-1.75-.54-2.6-.91A10.77,10.77,0,0,1,5.4,79.77a9.63,9.63,0,0,0-2.05-1.66,4.28,4.28,0,0,0-1.12-.22A2.2,2.2,0,0,0,1.16,78.06Z"/><path class="cls-1" d="M6.09,75.32c-.9.68-.11,1.7.48,2.25a10.11,10.11,0,0,0,1.62,1.22,9.36,9.36,0,0,0,2.23.89c.05,0,.08-.06,0-.08-.63-.31-1.28-.57-1.89-.92a10.76,10.76,0,0,1-1.5-1.11,3.49,3.49,0,0,1-.93-1.06c-.25-.48,0-.85.44-1.08s1-.31,1.24.24a7.59,7.59,0,0,1,.36,1.26A4.79,4.79,0,0,0,9.33,78.6a8.06,8.06,0,0,0,.74.69,1.65,1.65,0,0,0,.78.44.16.16,0,0,0,.14-.26,3.78,3.78,0,0,0-.84-.69,7.65,7.65,0,0,1-1-1,3.56,3.56,0,0,1-.63-1c-.08-.26-.14-.52-.21-.78a1.57,1.57,0,0,0-.75-1.06A1.66,1.66,0,0,0,6.09,75.32Z"/><path class="cls-1" d="M1,78.72l.51.16a5.12,5.12,0,0,0-.77-.07.21.21,0,0,0-.11.4,13.17,13.17,0,0,0,2,.67.13.13,0,0,0,0,.06,3.15,3.15,0,0,0-2.21-.19.19.19,0,0,0,0,.35A11.86,11.86,0,0,0,2,80.73a0,0,0,0,0,0,0l.09,0a4.89,4.89,0,0,0-.64-.14.17.17,0,0,0-.12.3l.15.1a2,2,0,0,0-.43,0c-.15,0-.23.21-.07.27a13.52,13.52,0,0,0,2.8.85.23.23,0,0,0,.2.31l.29,0a14.44,14.44,0,0,0,2.84.31l.33,0a.26.26,0,0,0,.24-.11,3.88,3.88,0,0,0,.45-.14.24.24,0,0,0,.11-.36,4.35,4.35,0,0,0,.51,0c.3,0,.25-.43,0-.49-.74-.18-1.53-.3-2.3-.47l-1-.46h0c-.24-.17-.49-.33-.74-.48L4.34,80a1.25,1.25,0,0,0-.62-.79,5.67,5.67,0,0,0-2.62-1A.22.22,0,0,0,1,78.72ZM1.14,80a4.08,4.08,0,0,1,1.2.25c.29.09.58.19.88.27a5.25,5.25,0,0,0,.49.33.41.41,0,0,0,0,.18L3,80.72C2.38,80.47,1.75,80.27,1.14,80Zm4.51,1.69a.11.11,0,0,0,0,.06L5,81.6a.3.3,0,0,0,0-.13Zm1.54.63-.47-.07a.21.21,0,0,0,0-.12,2.42,2.42,0,0,1,.72.14ZM2.4,80.88l.3.11.19.08L2.72,81Zm.41.75-.57-.18.23.06Z"/><path class="cls-1" d="M5.72,76.07l.32.24a.44.44,0,0,0-.16.06.25.25,0,0,0-.13.32,2,2,0,0,0,.92,1,.14.14,0,0,0,.07.1,6,6,0,0,0,2.83,1.42.23.23,0,0,0,.11-.44c-.19-.06-.38-.14-.57-.22l.38,0a.2.2,0,0,0,0-.4,2.7,2.7,0,0,1-1.87-1.35.16.16,0,0,0-.23-.08.2.2,0,0,0-.09-.15l-.51-.38A.23.23,0,0,0,7,76.13c.26,0,.52,0,.58-.3s-.44-.38-.5-.06c0-.19.08-.13-.11-.14H6.72a.24.24,0,0,0-.18.13,3.31,3.31,0,0,0-.71-.14C5.6,75.63,5.56,76,5.72,76.07Zm1.64,1a1.9,1.9,0,0,0,.3.51,2.39,2.39,0,0,0-.51-.13,2.05,2.05,0,0,1-.82-.66,1.46,1.46,0,0,1,.72.3A.25.25,0,0,0,7.36,77Z"/><path class="cls-1" d="M13.62,83.43h0a8.37,8.37,0,0,0,.46,3.06,4.22,4.22,0,0,0,1.49,2.2,1.51,1.51,0,0,0,1.21.15c.35-.1.49-.49.67-.76s.49-.15.7-.13a4.33,4.33,0,0,0,.72,0,3.61,3.61,0,0,0,1.55-.58c.31-.2,0-.61-.31-.51a7.78,7.78,0,0,1-1.33.47c-.45.09-.91-.09-1.36,0a1.08,1.08,0,0,0-.64.65.57.57,0,0,1-.24.27,1.1,1.1,0,0,1-.69-.11,3.81,3.81,0,0,1-1.32-2c-.35-.9-.35-1.88-.67-2.8h0a.11.11,0,0,0-.13-.07A.13.13,0,0,0,13.62,83.43Z"/><path class="cls-1" d="M21.24,87a1.21,1.21,0,0,1,.51-.77,5.49,5.49,0,0,0-1.53.43.32.32,0,0,0,.27.59A3.89,3.89,0,0,1,21.24,87Z"/><path class="cls-1" d="M76,64.45c.58,1.53,1.57,2.88,2,4.46a28.27,28.27,0,0,1,1,5.07,22.71,22.71,0,0,1,0,5.08c-.1.85,0,1.7-.13,2.55a2.85,2.85,0,0,1-.34,1.21,1.58,1.58,0,0,0-.27.89.1.1,0,0,0,.18.05,9.81,9.81,0,0,1,.69-.85,2.36,2.36,0,0,0,.47-1.06,21.51,21.51,0,0,0,.19-2.67,25.42,25.42,0,0,0,0-5.16,29.44,29.44,0,0,0-1-5.18,34.27,34.27,0,0,0-2.12-4.71A.41.41,0,0,0,76,64.45Z"/><path class="cls-1" d="M15.34,78.88a9.31,9.31,0,0,0,.9,1.26,5.57,5.57,0,0,1,.61,1.28,4.62,4.62,0,0,1,.53,2.66h0a4.56,4.56,0,0,0-.24-2.58,10.83,10.83,0,0,0-.45-1.36,10.34,10.34,0,0,0-.95-1.51C15.59,78.41,15.21,78.64,15.34,78.88Z"/><path class="cls-1" d="M17.68,86.08a2.81,2.81,0,0,1-.27,1.28,2.15,2.15,0,0,1-.3.48c-.12.15-.21.21-.18.4a.17.17,0,0,0,.16.15c.4,0,.56-.52.64-.84a3.32,3.32,0,0,0-.05-1.47Z"/><path class="cls-1" d="M14.4,80.44a2.47,2.47,0,0,0,0,1.45,7.07,7.07,0,0,1,0,1.84,5.44,5.44,0,0,0,.28,1.69A3.85,3.85,0,0,0,15.51,87a.26.26,0,0,0,.34,0l.07.13c.09.14.31,0,.29-.13-.18-1.35-.35-2.69-.46-4-.06-.87-.13-2.22-1-2.68A.26.26,0,0,0,14.4,80.44Zm1,4.94c0,.12,0,.23.05.35l-.11-.26S15.43,85.42,15.44,85.38Zm-.65-4.26V81a1.4,1.4,0,0,1,.12.18Z"/><path class="cls-1" d="M14.23,80.72a3.83,3.83,0,0,0,.21,2.59,6.36,6.36,0,0,0,1.42,3.9c.14.13.41.09.43-.12a4.85,4.85,0,0,0,0-1,.2.2,0,0,0,.06-.15,18.49,18.49,0,0,0-.21-3.07c-.15-.9-.49-2.15-1.55-2.33A.32.32,0,0,0,14.23,80.72Zm1.1,1.51a2.68,2.68,0,0,1-.07-.27,2,2,0,0,1,.09.26Zm-.15-.47a.29.29,0,0,0-.42,0,2.12,2.12,0,0,1,0-.56A1.11,1.11,0,0,1,15.18,81.76Z"/><path class="cls-1" d="M40.46,69.37a25.82,25.82,0,0,1,1.62,4.54c.41,1.7.72,3.4,1,5.12s.64,3.34.9,5a25.67,25.67,0,0,1,.27,4.79l.26,0a15.76,15.76,0,0,0,0-4.55c-.18-1.79-.53-3.56-.82-5.34s-.61-3.53-1-5.28A14.39,14.39,0,0,0,41,69C40.77,68.67,40.3,69,40.46,69.37Z"/><path class="cls-1" d="M59.19,66.81c.39.72.81,1.38,1.13,2.14a18.12,18.12,0,0,1,.82,2.42,44.54,44.54,0,0,1,1,5,42.66,42.66,0,0,1,.63,5.75A16.24,16.24,0,0,1,62.5,85l-.18,1.08.39-.14c.06-.21.11-.43.16-.65.11-.5.2-1,.28-1.5a22.5,22.5,0,0,0-.23-6.39,53.14,53.14,0,0,0-1-5.88,20.35,20.35,0,0,0-.83-2.65,9,9,0,0,0-1.31-2.47A.35.35,0,0,0,59.19,66.81Z"/><path class="cls-1" d="M20.26,84.57a1.24,1.24,0,0,1,.33.15,2.4,2.4,0,0,1,.28.27c.13.14.39,0,.29-.18a1.22,1.22,0,0,0-.75-.6C20.17,84.13,20,84.49,20.26,84.57Z"/><path class="cls-1" d="M20.73,83.85a5.15,5.15,0,0,0,1.51.82c.13,0,.26-.14.13-.23-.47-.31-1-.52-1.44-.85C20.76,83.47,20.56,83.73,20.73,83.85Z"/><path class="cls-1" d="M21.65,83.14c.72.55,1.33,1.44,2.26,1.63a.17.17,0,0,0,.08-.33,8.59,8.59,0,0,1-2.12-1.59A.18.18,0,0,0,21.65,83.14Z"/><path class="cls-1" d="M23.06,83c-.11,0-.06.23.06.2.42-.1.91.51,1.16.76a4.07,4.07,0,0,0,.94.87c.13.07.26-.11.17-.22a15.2,15.2,0,0,0-1.15-1.12C24,83.22,23.49,82.81,23.06,83Z"/><path class="cls-1" d="M24.34,82.53a.08.08,0,0,0,.06.14c.31-.1.55.26.73.45l.61.66a8.83,8.83,0,0,0,1.55,1.16.14.14,0,0,0,.16-.23c-.3-.25-.63-.47-1-.7s-.61-.59-.95-.84S24.85,82.3,24.34,82.53Z"/><path class="cls-1" d="M26.4,83a9.36,9.36,0,0,0,3.33,2.22c.13.06.25-.13.12-.21a21.11,21.11,0,0,1-3.3-2.17C26.46,82.71,26.32,82.86,26.4,83Z"/><path class="cls-1" d="M28.3,83c1.09.71,1.94,1.89,3.24,2.23.21,0,.27-.27.09-.35a23.77,23.77,0,0,1-3.1-2.19C28.32,82.6,28.09,82.91,28.3,83Z"/><path class="cls-1" d="M29.5,82.7a6.52,6.52,0,0,1,1.69,1.16c.68.53,1.37,1.06,2.09,1.52a.15.15,0,0,0,.18-.24c-.68-.58-1.43-1.07-2.15-1.61a6.33,6.33,0,0,0-1.7-1.09C29.44,82.38,29.33,82.64,29.5,82.7Z"/><path class="cls-1" d="M31.17,82.41a29,29,0,0,0,3.71,2.91A.18.18,0,0,0,35.1,85c-1.23-1-2.56-1.79-3.71-2.85C31.26,82.06,31,82.28,31.17,82.41Z"/><path class="cls-1" d="M33.12,82.29a17,17,0,0,0,4.15,2.84.17.17,0,0,0,.12-.32,26.69,26.69,0,0,1-4.1-2.75A.14.14,0,0,0,33.12,82.29Z"/><path class="cls-1" d="M35.2,82.28a20.21,20.21,0,0,0,3.87,3c.18.09.34-.2.17-.31a30.75,30.75,0,0,1-3.88-3C35.22,81.93,35.06,82.16,35.2,82.28Z"/><path class="cls-1" d="M37.09,82.27a16.8,16.8,0,0,0,1.66,1.49A7.74,7.74,0,0,0,40.82,85c.19.07.28-.19.11-.29a15.16,15.16,0,0,1-3.6-2.67C37.19,81.94,37,82.12,37.09,82.27Z"/><path class="cls-1" d="M38.72,82.17a14,14,0,0,0,1.68,1.27.16.16,0,0,0,.19-.25A20.59,20.59,0,0,1,38.91,82C38.79,81.86,38.61,82.05,38.72,82.17Z"/><path class="cls-1" d="M42.2,84.67a6,6,0,0,0,1.64.81c.18.06.35-.19.17-.29-.52-.31-1.1-.46-1.59-.81C42.22,84.24,42,84.53,42.2,84.67Z"/><path class="cls-1" d="M42.39,81.7a5.84,5.84,0,0,0,1.14.44c.2,0,.28-.29.09-.34-.39-.1-.73-.3-1.1-.43C42.31,81.3,42.17,81.62,42.39,81.7Z"/><path class="cls-1" d="M74.83,80.42l1.58.64c.19.09.31-.21.12-.3-.5-.23-1-.44-1.54-.66C74.94,80.21,74.89,80.31,74.83,80.42Z"/><path class="cls-1" d="M75.26,79.41a10.61,10.61,0,0,0,2.1,1.06c.19.06.3-.21.12-.28a17.22,17.22,0,0,1-2.13-1.12C75.32,79.18,75.3,79.29,75.26,79.41Z"/><path class="cls-1" d="M75.51,78.2A5.59,5.59,0,0,0,78,79.76c.16,0,.19-.18.07-.24a13,13,0,0,1-1.28-.67A9.71,9.71,0,0,1,75.69,78C75.55,77.82,75.37,78.07,75.51,78.2Z"/><path class="cls-1" d="M76.79,77.87a2.71,2.71,0,0,0,1.35.57c.16,0,.25-.24.07-.29A4.51,4.51,0,0,1,77,77.61.16.16,0,0,0,76.79,77.87Z"/><path class="cls-1" d="M77.53,76.87a4.15,4.15,0,0,0,.34.24.15.15,0,0,0,.18-.25,4.08,4.08,0,0,0-.33-.25C77.56,76.48,77.36,76.75,77.53,76.87Z"/><path class="cls-1" d="M29.94,76.71a4.26,4.26,0,0,0,1.43.37c.14,0,.2-.2.07-.24a8.51,8.51,0,0,1-1.39-.41C29.88,76.35,29.77,76.63,29.94,76.71Z"/><path class="cls-1" d="M31,76.3a12.65,12.65,0,0,0,1.89.45c.15,0,.18-.26,0-.3A13.81,13.81,0,0,0,31,76,.17.17,0,0,0,31,76.3Z"/><path class="cls-1" d="M31.74,75.56c.94.06,1.84.81,2.8.61a.13.13,0,0,0,0-.25c-.5-.12-1-.2-1.49-.37a4.24,4.24,0,0,0-1.27-.27C31.59,75.28,31.56,75.55,31.74,75.56Z"/><path class="cls-1" d="M32.94,74.93c1,.28,2.06.59,3.09.88.2.06.32-.22.12-.29A31.11,31.11,0,0,0,33,74.64C32.85,74.6,32.77,74.89,32.94,74.93Z"/><path class="cls-1" d="M34.28,73.9c-.11.07,0,.26.13.2s.54.08.73.16a3.74,3.74,0,0,1,.45.22,1.11,1.11,0,0,0,.27.17,6.76,6.76,0,0,0,2.24.55c.16,0,.13-.23,0-.26a9.59,9.59,0,0,1-2.35-.74C35.37,74,34.7,73.64,34.28,73.9Z"/><path class="cls-1" d="M35.92,73.28a7.08,7.08,0,0,0,2.14,1,5.68,5.68,0,0,0,2.34.39.13.13,0,0,0,0-.25c-.69-.21-1.43-.24-2.13-.44a6.9,6.9,0,0,1-2.19-1C35.94,72.9,35.75,73.16,35.92,73.28Z"/><path class="cls-1" d="M38.39,72.8a11.83,11.83,0,0,0,1.42.72c.36.14.88.3,1.22,0a.13.13,0,0,0-.06-.22,3.65,3.65,0,0,1-1.22-.22,11.88,11.88,0,0,1-1.23-.63C38.32,72.37,38.2,72.7,38.39,72.8Z"/><path class="cls-1" d="M39.7,72c.37,0,.69.2,1.06.17s.18-.38,0-.35a1.31,1.31,0,0,1-.48-.08,1.61,1.61,0,0,0-.58,0A.15.15,0,0,0,39.7,72Z"/><path class="cls-1" d="M69.18,67.29a8.16,8.16,0,0,0,2.65.68c.2,0,.24-.3,0-.32A11,11,0,0,1,69.28,67C69.11,67,69,67.23,69.18,67.29Z"/><path class="cls-1" d="M72.25,66.52h0v0a.1.1,0,0,0,.2,0,.25.25,0,0,0-.28-.21A.1.1,0,0,0,72.25,66.52Z"/><path class="cls-1" d="M74.07,71.26a.66.66,0,0,0,.53.09.09.09,0,0,0,0-.18.51.51,0,0,1-.38-.07C74.08,71,74,71.19,74.07,71.26Z"/><path class="cls-1" d="M36.47,78.23c.52,0,1,.28,1.52.35.09,0,.13-.14,0-.17A4.68,4.68,0,0,0,36.44,78C36.31,78,36.34,78.24,36.47,78.23Z"/><path class="cls-1" d="M37.59,77.91c.48.06.91.32,1.39.4.14,0,.16-.19,0-.22a11,11,0,0,0-1.39-.38A.1.1,0,0,0,37.59,77.91Z"/><path class="cls-1" d="M38.73,77.44a7.55,7.55,0,0,1,1.49.22c.1,0,.15-.15.05-.18a4.24,4.24,0,0,0-1.57-.22C38.58,77.27,38.61,77.45,38.73,77.44Z"/><path class="cls-1" d="M40.49,77.32c.25,0,.5.07.75.05s.1-.21,0-.2a1.77,1.77,0,0,1-.32,0,1.55,1.55,0,0,0-.43,0C40.35,77.16,40.38,77.33,40.49,77.32Z"/><path class="cls-1" d="M42.34,76.83c-.16,0-.12.27,0,.25s.25,0,.34-.09a.11.11,0,0,0,0-.18A.7.7,0,0,0,42.34,76.83Z"/><path class="cls-1" d="M38.7,71.61a3.81,3.81,0,0,0-2.38,1.21c-.44.69.19,1.37.67,1.81a7.39,7.39,0,0,1,1.83,2.43,9.88,9.88,0,0,1,.54,5.64,9.92,9.92,0,0,0-.16,3.6,1.23,1.23,0,0,0,1.18,1.14,3.56,3.56,0,0,0,1.55-.6,9.61,9.61,0,0,1,2-.47.16.16,0,0,0-.05-.31c-.49,0-1,.09-1.46.15a3.82,3.82,0,0,0-1.26.5c-.49.24-1.09.44-1.36-.16a3.87,3.87,0,0,1-.18-1.69A16.28,16.28,0,0,1,39.82,83a14.64,14.64,0,0,0,.2-1.87,10.78,10.78,0,0,0-.37-3.34,7.09,7.09,0,0,0-1.39-2.68c-.29-.33-.61-.63-.93-.93s-.71-.62-.56-1,.71-.56,1-.7a7.37,7.37,0,0,1,1.32-.37c.81-.18,1.63-.24,2.44-.38a.28.28,0,0,0-.08-.56C40.56,71.28,39.62,71.4,38.7,71.61Z"/><path class="cls-1" d="M66.15,68.18a26.56,26.56,0,0,1-5.06,1.1c-.36,0-.27.59.08.55a37.42,37.42,0,0,0,6.6-1.54,6.4,6.4,0,0,1,4.6,0A3.73,3.73,0,0,1,74,69.92a5.16,5.16,0,0,1,.37,1.5c.08.6.14,1.19.21,1.79.14,1.09.38,2.17.56,3.25a7.65,7.65,0,0,1,.1,2.86c-.43,1.88-2.66,2.34-4.29,2.44-1.35.08-2.69-.06-4,.06a13.47,13.47,0,0,0-4,1.21c-.25.1-.08.48.17.38a16.29,16.29,0,0,1,3.21-1,21.84,21.84,0,0,1,3.62-.11,8.74,8.74,0,0,0,4.19-.79,3.43,3.43,0,0,0,1.71-3.35,25.67,25.67,0,0,0-.43-3.27c-.2-1.12-.3-2.24-.45-3.37a5.11,5.11,0,0,0-.58-2,4.13,4.13,0,0,0-1.14-1.28,5,5,0,0,0-3.16-.88A15.68,15.68,0,0,0,66.15,68.18Z"/><path class="cls-1" d="M41.42,84.06A3.22,3.22,0,0,0,42,85.41l0,.21a4.13,4.13,0,0,1-.41-.55l0-.08a4.43,4.43,0,0,0-.52-1c-.14-.2-.46,0-.36.23a8.35,8.35,0,0,0,.56,1.12,1.81,1.81,0,0,1,.11.72,2.22,2.22,0,0,1-.3-.31,3.82,3.82,0,0,0-.51-1.08.15.15,0,0,0-.14-.08l-.06-.38a.19.19,0,0,0-.38.06c0,.37.06.74.08,1.12,0,0,0-.06,0-.1a.16.16,0,0,0-.31,0,1.49,1.49,0,0,0,.47,1,.17.17,0,0,0,.26-.08,4,4,0,0,0,.38.7.2.2,0,0,0,.35-.1,2.29,2.29,0,0,0,0-.37,1.83,1.83,0,0,0,.26.16.21.21,0,0,0,.28-.11,2.24,2.24,0,0,0,.06-.52,1.91,1.91,0,0,0,.34.24.22.22,0,0,0,.29-.12,2.17,2.17,0,0,0,0-.25,1.14,1.14,0,0,0,.23.15.22.22,0,0,0,.26-.08.53.53,0,0,0,.08-.17,1,1,0,0,0,.24.16.22.22,0,0,0,.27-.07.2.2,0,0,1,0-.08,1.12,1.12,0,0,0,.7.19.24.24,0,0,0,.19-.27.63.63,0,0,0-.56-.55.2.2,0,0,0-.21.16l-.07-.06a1.75,1.75,0,0,0-.63-1,.22.22,0,0,0-.34.1.59.59,0,0,0,0-.08c-.14-.26-.55-.08-.42.18s.24.52.39.76a1,1,0,0,1,0,.21,2,2,0,0,1-.25-.25,6.83,6.83,0,0,0-.56-1.23C41.73,83.73,41.37,83.81,41.42,84.06Z"/><path class="cls-1" d="M39.69,71.41a9.51,9.51,0,0,0-1.67.26.29.29,0,0,0-.24.25,3.09,3.09,0,0,0-1,.24.29.29,0,0,0,.08.55,5.43,5.43,0,0,0,.9,0,1.37,1.37,0,0,0-.21.15.25.25,0,0,0-.06.37L37.18,73a.29.29,0,0,0-.33.44l.11.15a.28.28,0,0,0-.17.45,10.15,10.15,0,0,0,1.68,1.66l.39.34c.08.18.17.36.25.53l.2.42a.33.33,0,0,0-.13.19A3.91,3.91,0,0,0,39.39,79,4.58,4.58,0,0,0,40,80.52c.11.69.22,1.38.32,2.07a.18.18,0,0,0,.21.15.19.19,0,0,0,.15-.2l-.09-.6a3.18,3.18,0,0,0,.92,1.52c.17.14.36,0,.36-.21a3.83,3.83,0,0,0-.09-.69,1.29,1.29,0,0,0,.42.26.24.24,0,0,0,.31-.13,1.49,1.49,0,0,0,.07-.69,2,2,0,0,0,.25.14.26.26,0,0,0,.33-.14,1.14,1.14,0,0,0,.07-.41.35.35,0,0,0,0-.11,5.56,5.56,0,0,0-.13-1.28.29.29,0,0,0,.37-.31,2.07,2.07,0,0,0-.07-.49.3.3,0,0,0,.11-.25,6.65,6.65,0,0,0-1.14-2.8c-.06-.1-.11-.21-.16-.31a.26.26,0,0,0,.33-.16,1.67,1.67,0,0,0-.12-1.08,3,3,0,0,0-.54-1.36q-.22-.37-.48-.72a2.83,2.83,0,0,0-.66-.89.25.25,0,0,0,.13-.12l.34-.08a.3.3,0,0,0-.08-.59C40.68,71.13,40.19,71.31,39.69,71.41Zm.72,4a.27.27,0,0,0,.27.09,5.52,5.52,0,0,0,.55.63,1,1,0,0,0,.07.15,13.92,13.92,0,0,0,.59,1.3c0,.08.09.15.14.23h0c-.4-.69-.78-1.39-1.18-2.08-.18-.3-.68-.1-.51.23s.35.65.53,1a1.1,1.1,0,0,0-.26-.18c-.08-.16-.17-.31-.26-.46s0,0,0,0a2.58,2.58,0,0,0-.25-.56.32.32,0,0,0,0-.21l-.07-.1a6.41,6.41,0,0,0-.39-.52A3.52,3.52,0,0,0,40,75C40.14,75.18,40.27,75.33,40.41,75.46Zm1.94,4.21h0c-.06,0-.11-.11-.16-.16s-.09-.31-.12-.46l.09.15A3,3,0,0,1,42.35,79.67Zm-2.51-3a2.84,2.84,0,0,0,.15.44s0,0,0,.06l-.28-.54ZM39,73s0,0,0,0l-.12,0Zm-.36.63.18.13a3,3,0,0,1,.42.37L39,74l-.23-.12A1.92,1.92,0,0,1,38.65,73.61Zm2,7,0-.07h0c.23.67.55,1.31.72,2A12.45,12.45,0,0,1,40.6,80.65ZM40.44,78v-.08l.21.31.15.3c.14.25.35.46.5.72l.1.18c-.24-.31-.44-.66-.67-1C40.63,78.25,40.54,78.1,40.44,78Zm1.65,2.56a.32.32,0,0,0,.14,0,3.11,3.11,0,0,0,.49,1,2.84,2.84,0,0,1-.68-.94Zm-1.77-8.29a2.32,2.32,0,0,0,0,.59,1.34,1.34,0,0,0-.4-.19c-.15-.05-.39,0-.39.23v0l-.12,0a.28.28,0,0,0,0-.29.77.77,0,0,0-.28-.31,2.81,2.81,0,0,0,.68-.26l.45-.07a.17.17,0,0,0,0,.07A1.69,1.69,0,0,0,40.32,72.22ZM38,73.38v0l-.12-.07Zm1.91,5.53c-.07-.23-.14-.49-.19-.74a7.14,7.14,0,0,1,.54,1.51c0,.07,0,.14,0,.21A5.27,5.27,0,0,1,39.9,78.91Zm1,1.16a3.82,3.82,0,0,0-.09-.44l0-.25c.12.17.24.34.37.5.17.39.4.75.59,1.13a2.94,2.94,0,0,1,.44,1.2,2.77,2.77,0,0,1-.58-.8,7.69,7.69,0,0,1-.56-1.2A.22.22,0,0,0,40.86,80.07Z"/><path class="cls-1" d="M40.74,84c-.3.26-.41.4-.16.75a3.1,3.1,0,0,1,.44.87,4.36,4.36,0,0,0,.14.72.09.09,0,0,0,.16,0,2.19,2.19,0,0,0-.23-1.13,4.14,4.14,0,0,0-.3-.5c-.18-.25-.28-.41,0-.68C40.76,84,40.75,84,40.74,84Z"/><path class="cls-1" d="M38.3,71.84l-.58.11a14.13,14.13,0,0,0-1.68.51A25.06,25.06,0,0,0,32.53,74c-.51.27-1,.53-1.52.84a3.6,3.6,0,0,0-.6.51l-.45.24a5.21,5.21,0,0,0-1.75,1.29,4.61,4.61,0,0,0-1.63,1.47c-.46.82-.39,2.62.78,2.84s1.8-1.52,2.15-2.41a7.14,7.14,0,0,1,1.17-2.16.25.25,0,0,0,.37,0l.27-.24a5.39,5.39,0,0,1,1.81.54l.12.06A4.72,4.72,0,0,0,35,78.19a7.18,7.18,0,0,1,.6.63,4.92,4.92,0,0,0,.74,1.44c.11.29.22.59.32.88a.23.23,0,0,0-.09.24,8.39,8.39,0,0,0,1,2.87,6.52,6.52,0,0,0,.33.83A4.89,4.89,0,0,0,39,86.5a2.27,2.27,0,0,0,1.44.62A2.87,2.87,0,0,0,41.2,87c.29-.1.52-.34.81-.42s.18-.41,0-.36a1.18,1.18,0,0,0-.4.17,3.55,3.55,0,0,1-.63.28,1.46,1.46,0,0,1-1.43-.25,3.85,3.85,0,0,1-1.16-1.29.28.28,0,0,0,.14-.28,6.63,6.63,0,0,0-.28-1.06c.44.66.87,1.32,1.36,1.93.22.26.56,0,.48-.29-.23-.75-.59-1.45-.84-2.19a4,4,0,0,0,1.09,1.09c.22.14.56-.06.42-.33-.23-.46-.47-.9-.71-1.35a11,11,0,0,0-.77-1.33c-.16-.22-.33-.43-.51-.64a1.77,1.77,0,0,0,1.26.24.3.3,0,0,0,.23-.41,3.11,3.11,0,0,0-.41-.65h0a.3.3,0,0,0,.08-.33,1.68,1.68,0,0,0-.43-.56.38.38,0,0,0,.09-.15.74.74,0,0,0-.08-.52,1.79,1.79,0,0,0,.4,0,.3.3,0,0,0,0-.6c-.37-.08-.75-.13-1.13-.18a2.4,2.4,0,0,0-.26-.18l.28-.05.31.06c.34.06.39-.39.14-.54a3.39,3.39,0,0,0-.39-.18l-.18-.11a2.15,2.15,0,0,0,.66-.28.68.68,0,0,0,.22-1v0h0a.31.31,0,0,0,.15-.4.74.74,0,0,0-.48-.37.46.46,0,0,0-.07-.16c.25,0,.5-.1.74-.17a.28.28,0,0,0,0-.56,7.29,7.29,0,0,0-2.75.11c-.21,0-.43.1-.65.16s-.45,0-.67.06a8.89,8.89,0,0,1,.92-.26,5.6,5.6,0,0,0,1.79-.67.29.29,0,0,0-.07-.49l0,0a5.58,5.58,0,0,0,1.3-.4.29.29,0,0,0-.16-.54A6.42,6.42,0,0,0,38.3,71.84Zm.23,9.88a.32.32,0,0,0-.15.28.07.07,0,0,1,0,0,4.85,4.85,0,0,1-1-1.17,3.23,3.23,0,0,0-.3-.49l-.08-.1a6.51,6.51,0,0,0-.52-1.06l-.06-.14a24.45,24.45,0,0,1,1.66,2A7.07,7.07,0,0,1,38.53,81.72ZM27.88,80.25a.83.83,0,0,0,.21-.16,1,1,0,0,1,0,.12C28,80.38,27.92,80.35,27.88,80.25Zm-.11-.63a2.46,2.46,0,0,0,0-.26,1.17,1.17,0,0,0,.28-.17A1.45,1.45,0,0,1,27.77,79.62Zm4.43-3.73a.36.36,0,0,0,0,.09L32,76Zm6.31,6.9a5.4,5.4,0,0,0,.24.78c-.23-.36-.47-.71-.7-1A1.64,1.64,0,0,0,38.51,82.79Zm.75-2.7a1.56,1.56,0,0,1,.16.2,1.91,1.91,0,0,1-.49-.21A.92.92,0,0,0,39.26,80.09Zm-.37-1.58-.08-.05c-.33-.2-.68-.37-1-.55l.76.11a1.84,1.84,0,0,1,.38.49Zm-3.64-1.73-.13-.06.1,0ZM28.7,79.32a1.7,1.7,0,0,0,0-.22,2.92,2.92,0,0,0,.22-1c.06-.12.12-.23.16-.33a2.65,2.65,0,0,0,.39-.26C29.16,78.11,28.94,78.74,28.7,79.32Zm10.15-3.91a.56.56,0,0,1,.21.15h0a.44.44,0,0,1-.21.17,2.88,2.88,0,0,1-.92.22l-.36,0L37,75.86a3.13,3.13,0,0,0-1.52-.07h-.06c.61-.08,1.22-.13,1.83-.23l.65,0a6.76,6.76,0,0,0,.89-.11Z"/><path class="cls-1" d="M31.48,76.09a4.76,4.76,0,0,0-2.25,2c-.12.13.08.35.21.22a5.58,5.58,0,0,1,2.28-1.75,3.75,3.75,0,0,1,2.84.53c1.51.94,2.35,2.6,3.63,3.79.18.17.45-.12.3-.3-1.22-1.44-2.29-3.2-4-4.11A4.1,4.1,0,0,0,31.48,76.09Z"/><path class="cls-1" d="M34.06,76.88a3.13,3.13,0,0,0-3.21.23,1.22,1.22,0,0,0-.4,1.57,1.16,1.16,0,0,0,1.7.3,8.93,8.93,0,0,0,.87-.76,3.53,3.53,0,0,1,1.23-.64l.2,0,.07,0a9.71,9.71,0,0,1,2.84,2.26.11.11,0,0,0,.17-.13,9.82,9.82,0,0,0-1.71-1.76,3.55,3.55,0,0,0,1,.25.27.27,0,0,0,.2-.49A3.68,3.68,0,0,0,34.65,77,5.58,5.58,0,0,0,34.06,76.88Zm-2.94.94s0,0,0,0a.5.5,0,0,1,.23-.16l-.16.18Zm0,.79a.09.09,0,0,0,.07,0l.32-.07a.88.88,0,0,0,.23.07A.62.62,0,0,1,31.12,78.61Z"/><path class="cls-1" d="M73.64,78.08a1.18,1.18,0,0,0,.12,1.08.54.54,0,0,0,.42.14,3.41,3.41,0,0,1,.15.59c.06.34,0,.36-.27.14a6.4,6.4,0,0,1-.68-.8c-.19-.21-.58,0-.45.27s.46.87.16,1-.65-.67-.74-.84-.61-.09-.47.21a1.7,1.7,0,0,1,.16.48c0,.18,0,.29-.12.12a4.86,4.86,0,0,1-.51-1.11.25.25,0,0,0-.48.14c0,.21.08.42.1.64s.1.61-.06.76-.89-1.15-1-1.28a.26.26,0,0,0-.43.07c-.11.3.08.89-.2,1-.13.08-.57-.49-.72-.56a.25.25,0,0,0-.32.14,4,4,0,0,0-.07.48.69.69,0,0,1,0,.24c0,.12-.07,0-.14,0-.24-.25-.33-.61-.59-.83a.25.25,0,0,0-.39.23,2.3,2.3,0,0,1,.05.45.68.68,0,0,1,0,.19l0-.06a1.82,1.82,0,0,0-.37-.7c-.14-.13-.34,0-.38.17s.07.57-.07.8-.42-.59-.47-.67-.45,0-.41.18,0,.57-.06.24a.92.92,0,0,0-.38-.67.24.24,0,0,0-.37.16c-.08.39,0,.8-.08,1.18a1.68,1.68,0,0,1,0-.2.63.63,0,0,0-.21-.36c-.13-.12-.31,0-.34.15a.22.22,0,0,0,0,.08,1.06,1.06,0,0,0-.21-.31.19.19,0,0,0-.32,0A10.59,10.59,0,0,0,63,83.2c0,.19.26.27.32.09a.55.55,0,0,0,.05-.24,11.3,11.3,0,0,1,.21-1.42,7.45,7.45,0,0,1,.13,1.4.2.2,0,0,0,.4,0,5.87,5.87,0,0,0,.1-.83.78.78,0,0,0,.32.15.23.23,0,0,0,.24-.14,2.16,2.16,0,0,0,.17-.86.39.39,0,0,0,.48.27.49.49,0,0,0,.29-.17c.17.25.38.44.64.31a.64.64,0,0,0,.35-.42.37.37,0,0,0,.4.24.49.49,0,0,0,.45-.41.71.71,0,0,0,.53.42c.47.07.56-.33.62-.71a2,2,0,0,0,.18.21.66.66,0,0,0,.66.12.61.61,0,0,0,.41-.68c.3.51.68,1.07,1.18.86a.69.69,0,0,0,.41-.54.68.68,0,0,0,.49.22.44.44,0,0,0,.46-.27.75.75,0,0,0,.74.21.63.63,0,0,0,.47-.59,1.84,1.84,0,0,0,.22.17.59.59,0,0,0,.91-.24,2.07,2.07,0,0,0-.19-1.25c.22,0,.39-.32.15-.47a.47.47,0,0,0-.37-.07,3.38,3.38,0,0,0-.34-.55C74,77.88,73.69,77.88,73.64,78.08Z"/><path class="cls-1" d="M70.91,74a.32.32,0,0,0-.47.14,6.1,6.1,0,0,0,0,1.81c0,.25,0,.49,0,.74a.76.76,0,0,1,0,.26,2.72,2.72,0,0,1-.54-1.09c-.13-.35-.22-.73-.38-1.07s-.56-.23-.57.09a21.78,21.78,0,0,1,.1,3l0,0a3.79,3.79,0,0,1-.32-.91c-.08-.29-.18-.57-.28-.86A5.07,5.07,0,0,0,68,74.8a.3.3,0,0,0-.5.07,3.56,3.56,0,0,0,0,1.3c.06.4.12.8.16,1.2,0-.14-.08-.28-.11-.4a5.54,5.54,0,0,0-.7-2.11.28.28,0,0,0-.5.14,7.83,7.83,0,0,0,.15,2,7.16,7.16,0,0,1,.08,1.39,3.5,3.5,0,0,1-.36-1.08,6.46,6.46,0,0,0-.43-1.44c-.11-.21-.51-.22-.52.08a11.69,11.69,0,0,0,.08,1.18,2.3,2.3,0,0,1-.1,1.25c-.22.36-.56-.45-.61-.57a8.74,8.74,0,0,0-.42-1.25.26.26,0,0,0-.5.07,14.56,14.56,0,0,1-.07,2h0a1.28,1.28,0,0,1-.18-.61c-.08-.45-.08-.9-.14-1.35a.24.24,0,0,0-.48,0,9.93,9.93,0,0,0,.29,2.92.16.16,0,0,0,.31,0,3.57,3.57,0,0,0,0-.46.41.41,0,0,0,.43,0c.31-.15.34-.63.35-1,.24.59.59,1,1.23.74a.93.93,0,0,0,.43-.77c.15.42.38.9.83.94A.26.26,0,0,0,67,78.9a2.75,2.75,0,0,0,.09-1.48l.06.17a1.6,1.6,0,0,0,.47.79.38.38,0,0,0,.59-.13,1.75,1.75,0,0,0,.05-.86l0,.17c.12.4.65,1.41,1.17.8a2.2,2.2,0,0,0,.21-1.51,1.21,1.21,0,0,0,.64.67c.68.22.76-.6.74-1a6.44,6.44,0,0,0,0-.76c0-.21-.07-.44-.08-.66a9.5,9.5,0,0,1,.26,1A2.46,2.46,0,0,0,72,77.46a.31.31,0,0,0,.38,0,.83.83,0,0,0,.34-.48,1.09,1.09,0,0,0,.4.16.73.73,0,0,0,.37,0,2.1,2.1,0,0,0,.88,1,.33.33,0,0,0,.33,0,1,1,0,0,0,.3-.63v0a2.23,2.23,0,0,0-.08-1.85,1.56,1.56,0,0,0,0-.71.34.34,0,0,0-.67.1v0a.31.31,0,0,0-.09.07.34.34,0,0,0-.51.33,3.67,3.67,0,0,0,.66,1.93h0a3.35,3.35,0,0,1-.64-1.71.32.32,0,0,0-.64.09l0,.2a2.38,2.38,0,0,1,.06.37,1.22,1.22,0,0,1,0,.27h0a.84.84,0,0,1-.41-.49c-.07-.39-.17-.76-.22-1a.31.31,0,0,0-.62.09,6.09,6.09,0,0,0,.16.86,1.16,1.16,0,0,1,0,.18,2.36,2.36,0,0,1,.05.62,4.38,4.38,0,0,1-.43-1.31A2.54,2.54,0,0,0,70.91,74Z"/><path class="cls-1" d="M71,69.34c-.11.14-.14.34-.26.46s-.37-.18-.45-.19c-.42-.07-.65.26-.74.61,0,.17-.25,0-.31-.08a.76.76,0,0,0-.5-.15c-.23,0-.28.29-.18.44a1.81,1.81,0,0,1,.26.47c.05.21-.21-.06-.26-.1-.26-.23-.57-.51-.93-.3a.28.28,0,0,0-.16.29c0,.16.1.31.14.47v.07h0a.9.9,0,0,1-.2-.14c-.25-.21-.46-.54-.8-.63a.27.27,0,0,0-.36.22c-.1.44.22.78.32,1.18-.45-.24-.73-.84-1.23-1a.27.27,0,0,0-.36.29c.07.35.31.69.4,1A1.74,1.74,0,0,1,65,71.9a1.78,1.78,0,0,0-.66-.53.27.27,0,0,0-.34.14.86.86,0,0,0,0,.5,2.43,2.43,0,0,0,.13.38,3.06,3.06,0,0,1-.36-.35,4.94,4.94,0,0,0-.56-.56.25.25,0,0,0-.39.24,2.63,2.63,0,0,0,.28.7,1.67,1.67,0,0,1,.23.51,2.47,2.47,0,0,1-.33-.41,5.23,5.23,0,0,0-.5-.64c-.14-.15-.43-.07-.38.16s.1.52.14.78a.17.17,0,0,0-.29.14,1.51,1.51,0,0,0,.49.84.19.19,0,0,0,.3-.18c0-.27-.07-.53-.11-.79a1.39,1.39,0,0,0,.85.68.23.23,0,0,0,.24-.14.89.89,0,0,0,0-.62.84.84,0,0,0,.76.19.25.25,0,0,0,.15-.21,1.74,1.74,0,0,0-.14-.61c.37.37.67.91,1.25.75a.25.25,0,0,0,.22-.23,1.68,1.68,0,0,0-.17-.74c.3.3.57.66,1.06.69a.28.28,0,0,0,.3-.23,1.38,1.38,0,0,0-.11-.75.2.2,0,0,0,0-.08,1.32,1.32,0,0,0,.68.38c.29,0,.45-.2.51-.45a.69.69,0,0,0,0-.32l.2.19a.68.68,0,0,0,.69.16.48.48,0,0,0,.32-.66.51.51,0,0,0,.3,0,.79.79,0,0,0,.37-.33c.06-.13.06-.44.26-.3a.62.62,0,0,0,.9-.06c.1-.15.17-.32.27-.47s.58-.28.86-.32a.28.28,0,0,0-.08-.55A1.75,1.75,0,0,0,71,69.34Z"/><path class="cls-1" d="M68.89,67.66l-.47,0a.24.24,0,0,0-.2.14l-.23,0H67.9a6.88,6.88,0,0,0-1.2.23,9.19,9.19,0,0,0-1.66.54.31.31,0,0,0-.15.15l-.58.26a.7.7,0,0,0-.23-.11.28.28,0,0,0-.37.22.37.37,0,0,0,0,.11l-.55.15a.3.3,0,0,0-.32.09,4.44,4.44,0,0,0-.72.27.29.29,0,0,0-.23.13,1.89,1.89,0,0,0-.27.2,2.43,2.43,0,0,0-.4-.45c-.21-.17-.46.13-.32.33s.13.17.2.26a.14.14,0,0,0-.1.16,1.35,1.35,0,0,0,.76,1c.14.08.31-.08.28-.22v0a.35.35,0,0,0,.11,0,.46.46,0,0,0,.52-.37,2.08,2.08,0,0,0,.75.32.27.27,0,0,0,.29-.23.62.62,0,0,0,0-.23h.05a.67.67,0,0,0,.52,0,.41.41,0,0,0,.21-.17c.83-.16,1.64-.36,2.45-.59l2.27-.61a1.57,1.57,0,0,0,1,.27.58.58,0,0,0,.51-.51.55.55,0,0,0,.25,0c.23,0,.49,0,.64-.19l0,0,.37,0a.21.21,0,0,0,.16-.06c.17.08.33.17.5.24.33.16.52-.36.21-.52a8,8,0,0,0-2-.76h0a.3.3,0,0,0-.26-.49A6.62,6.62,0,0,0,68.89,67.66Z"/><path class="cls-1" d="M74.32,76.18a2.51,2.51,0,0,0-.06,1.63.29.29,0,0,0-.43.06.83.83,0,0,0-.09-.16.27.27,0,0,0-.39-.06.28.28,0,0,0-.37.25,5.51,5.51,0,0,1-.08.71l-.08,0,0,0a1.13,1.13,0,0,0-.22-.27.3.3,0,0,0-.43.06,1.58,1.58,0,0,0-.22.57.57.57,0,0,0-.18,0,.31.31,0,0,0-.32.19,1.81,1.81,0,0,0-.09.31.65.65,0,0,0-.71-.26.61.61,0,0,0-.4.54l-.11,0c-.46-.17-.69.12-.79.53a.52.52,0,0,0-.84,0,.93.93,0,0,0-.15.37c-.6.07-1.22.1-1.81.22a6.79,6.79,0,0,0-2.54.79A.25.25,0,0,0,64,82H64l-.14,0c-.25,0-.2.43.06.39a14,14,0,0,0,3.49-.83.22.22,0,0,0,.17.21,4.18,4.18,0,0,0,.92.19.29.29,0,0,0,.29,0,8.81,8.81,0,0,0,1.85-.11.32.32,0,0,0,.38-.07c.7-.12,1.41-.27,2.1-.38a.27.27,0,0,0,.16-.45.31.31,0,0,0,.2-.11.46.46,0,0,1,.07-.07,1.77,1.77,0,0,0,1.22-1.08.53.53,0,0,0,.52-.14.94.94,0,0,0,.28-.56.31.31,0,0,0,.44-.3c-.06-.46-.11-.92-.21-1.37a1.8,1.8,0,0,0-.58-1.18.33.33,0,0,0-.36,0v0C74.78,75.89,74.43,76,74.32,76.18Zm0,2.09s0,.1,0,.15a1.45,1.45,0,0,1-.26,1h0a2.17,2.17,0,0,0,0-.36c0-.11,0-.21.08-.32Zm-2.44,1.5,0,.18h-.07a1.64,1.64,0,0,1,0-.22Zm-1.1.17h0a1.23,1.23,0,0,1,0-.19.83.83,0,0,1,.08.12l0,.07Z"/><path class="cls-1" d="M72.36,68.41a.39.39,0,0,0-.31.17l0,0a.33.33,0,0,0-.51.22,3.45,3.45,0,0,0,0,.85,3.5,3.5,0,0,0-.39-.38.33.33,0,0,0-.51.22,1.39,1.39,0,0,0,.25.92,4.34,4.34,0,0,1,.27.66l-.06,0-.12.08A12.72,12.72,0,0,0,70,69.7c-.18-.24-.65-.07-.56.24a7.39,7.39,0,0,0,1.17,2.22v0a1.89,1.89,0,0,0-.2-.2.4.4,0,0,0-.22-.06,2.68,2.68,0,0,0-.72-1,.32.32,0,0,0-.51.3,3.18,3.18,0,0,0,.22.68,1.43,1.43,0,0,0-.83-.65h0a.33.33,0,0,0-.29,0,.47.47,0,0,0-.4-.06.32.32,0,0,0-.19.33l0,.14a.34.34,0,0,0-.17.42,6.48,6.48,0,0,0,.5,1.07l-.06.07a.41.41,0,0,0-.07.11c-.12-.27-.26-.54-.4-.8a3.35,3.35,0,0,0-.54-.84c-.21-.22-.64-.1-.57.25v0a.35.35,0,0,0-.39.28,1.79,1.79,0,0,0,0,.23,1.51,1.51,0,0,0-.21-.23.33.33,0,0,0-.51.28,4.63,4.63,0,0,0-.24-.43.33.33,0,0,0-.55.08,2.08,2.08,0,0,0,0,1A.79.79,0,0,0,64,73a.27.27,0,0,0-.29,0,4.74,4.74,0,0,0-.38-.7c-.18-.27-.53,0-.52.22l0,.49a.27.27,0,0,0-.45.17,2.13,2.13,0,0,0,.08.79.18.18,0,0,0,0,.1A3.83,3.83,0,0,0,62.59,76a.78.78,0,0,0-.24.53,2.14,2.14,0,0,0,.59,1.81.23.23,0,0,0,.33,0,1.63,1.63,0,0,0,.15-1.37.31.31,0,0,0,.16-.06h0a1.63,1.63,0,0,0,.62.68,1,1,0,0,0,.22.17.44.44,0,0,0,.43,0l.17.21a1,1,0,0,0,.83.35c.52-.06.4-1.07.37-1.44.28.18.56.21.76-.12l.12,0a.59.59,0,0,0,.64-.54s0-.06,0-.09A1,1,0,0,0,68,76a.47.47,0,0,0,.28-.27,6.22,6.22,0,0,0,.45.65c.25.33.63.74,1.09.69s.34-.7.29-1h0a1.74,1.74,0,0,0,.6.26c.3.07.51-.19.6-.47l0,0c.35-.13.3-.6.19-1a2.11,2.11,0,0,0,.23.19c.28.23.93.52,1.17.08A.52.52,0,0,0,73,75a1.48,1.48,0,0,0,.57.19,1.24,1.24,0,0,0,.73.36.34.34,0,0,0,.3-.13l0-.06h0c.45-.32.38-1,.29-1.42,0-.17-.08-.33-.13-.5a.32.32,0,0,0,.1-.13c.39-1-.41-2-.71-2.85a6.46,6.46,0,0,0-.64-1.22,1.62,1.62,0,0,0-1-.83A.2.2,0,0,0,72.36,68.41Zm-1,3.25h0l.08,0,.43.77a8.26,8.26,0,0,1-.56-.76Zm1.93,1-.11-.27c-.11-.29-.25-.59-.38-.88l-.06-.24a4.56,4.56,0,0,0,.27.39c.19.46.4.92.58,1.39a1.12,1.12,0,0,0,0,.13Zm-1.76.72a9,9,0,0,0,.88,1.13.62.62,0,0,1,0,.23,1.57,1.57,0,0,1-.58-.44,4.59,4.59,0,0,1-.36-.41l-.12-.72ZM67.11,75.8a.81.81,0,0,1,0,.22l0,0c0-.1,0-.21,0-.3l.09.1Zm1.9-.25h0s0,.1.08.16A.86.86,0,0,1,69,75.55Zm-2.57.66a1.82,1.82,0,0,1-.34-.34c0-.15-.06-.29-.1-.43l.27.47.17.28Zm-.94.36a5.19,5.19,0,0,1-.28-.87l0,.09a2.7,2.7,0,0,0,.22.31c0,.12.05.24.07.37v.24ZM63,77.68a2.58,2.58,0,0,1-.25-.82,1.74,1.74,0,0,1,0-.51l0,.07v0A3.61,3.61,0,0,1,63,77.68Z"/><path class="cls-1" d="M65.27,66.55a17.67,17.67,0,0,0-4.65,1,.29.29,0,0,0-.14.43.39.39,0,0,0,.06.3.1.1,0,0,0,0,0c-.27.15-.27.65.11.66H61a.2.2,0,0,0,0,.11.22.22,0,0,0,.13.21.32.32,0,0,0,.28.07c1-.17,2-.33,3-.52a.32.32,0,0,0,.19-.1q.65-.14,1.29-.24a.32.32,0,0,0,.27-.25c.52-.07,1-.17,1.56-.27a.34.34,0,0,0,.27.06c.48-.07,1-.08,1.5-.16l.69-.06a9,9,0,0,0,1.94-.22.3.3,0,0,0,.14-.1,4.13,4.13,0,0,1,.43.55,4.06,4.06,0,0,1,.7,1.54.37.37,0,0,0,.72-.12,5.18,5.18,0,0,0-1.2-3.11c-.76-.86-1.79-.7-2.79-.47a2.49,2.49,0,0,0-1.14.24C67.74,66.35,66.49,66.41,65.27,66.55Zm5.83.23a1,1,0,0,0,.13.28,3.87,3.87,0,0,1-.48,0,.44.44,0,0,0-.17-.23,1.91,1.91,0,0,0,.3-.22.49.49,0,0,0,.11-.2,1.42,1.42,0,0,1,.29,0A.31.31,0,0,0,71.1,66.78Z"/><path class="cls-1" d="M72.82,67.44a3.74,3.74,0,0,1,.51.89,7.13,7.13,0,0,0,.26.82.4.4,0,0,0,.13.13.85.85,0,0,1,0,.32c-.07.33.49.47.58.14a2.42,2.42,0,0,0-.17-1.38A3.88,3.88,0,0,0,73.35,67,.34.34,0,0,0,72.82,67.44Z"/><path class="cls-1" d="M74.28,74a1.09,1.09,0,0,1,.27.72,3.9,3.9,0,0,0,.19.82,9.81,9.81,0,0,1,.52,2c.17,1.13.22,2.81-.93,3.48a4,4,0,0,1-1.46.35c-.59.07-1.17.18-1.75.3h0a10.84,10.84,0,0,0-2.48.2c-1.66-.39-3.17.46-4.77.75a.35.35,0,0,0-.27.49.27.27,0,0,0-.07.13,3.79,3.79,0,0,0-.34.2c-.31.2,0,.63.28.6a9,9,0,0,0,1.78-.4l1.12-.19h.08l6.11-1a.35.35,0,0,0,.3-.29l.84-.12a2.77,2.77,0,0,0,1.57-.76c1-1,1-2.67.84-4a10.66,10.66,0,0,0-.61-2.21c-.11-.29-.08-.63-.16-.93a1.48,1.48,0,0,0-.53-.83C74.36,72.93,73.85,73.64,74.28,74Z"/><path class="cls-1" d="M71.7,66.44a4.54,4.54,0,0,1,1.8,2.26,22,22,0,0,1,1.32,3.53c.66,2.34,1.26,4.91.38,7.28a.36.36,0,0,0,.67.25c1.12-2.59.49-5.38-.24-8A22.49,22.49,0,0,0,74.18,68,4.6,4.6,0,0,0,72,65.59C71.46,65.37,71.18,66.18,71.7,66.44Z"/><path class="cls-1" d="M44.05,86.08a7.6,7.6,0,0,0-.83.16l-2.54.42a.29.29,0,0,0-.24.35.34.34,0,0,0,.13.2.35.35,0,0,0,.38.3,29.67,29.67,0,0,0,3.35-.68c.36-.1.32-.64,0-.67A.29.29,0,0,0,44.05,86.08Z"/><path class="cls-1" d="M75.53,77.38A7.26,7.26,0,0,0,75.74,79a2.35,2.35,0,0,1-.34,1.75,2,2,0,0,1-1.19.81l-1.89.31a.29.29,0,0,0-.21.43.17.17,0,0,0,.19.18h.12a15.56,15.56,0,0,0,1.93-.33l.69-.11a.27.27,0,0,0,.24-.28,2.54,2.54,0,0,0,.66-.61,4,4,0,0,0,.11-3.89A.28.28,0,0,0,75.53,77.38Z"/><path class="cls-1" d="M69.18,65.84c-.87.16-1.7.47-2.56.68-1.86.46-3.77.72-5.65,1.09A.21.21,0,0,0,61,68c1.85-.25,3.71-.43,5.53-.84.86-.19,1.7-.49,2.56-.66s1.83-.27,2.74-.43a.33.33,0,0,0-.11-.66C70.9,65.57,70,65.68,69.18,65.84Z"/><path class="cls-1" d="M44.37,72.81a8.5,8.5,0,0,1,1.3.32,1,1,0,0,1,0-.35,9.33,9.33,0,0,0-1.27-.29C44.2,72.45,44.17,72.77,44.37,72.81Z"/><path class="cls-1" d="M45.07,71.61l1.3.38.38-.15c-.53-.16-1.06-.3-1.6-.45C45,71.36,44.92,71.57,45.07,71.61Z"/><path class="cls-1" d="M47.09,70.28a10.94,10.94,0,0,0,1.55.63l.32-.15s0,0,0-.05a11.44,11.44,0,0,1-1.8-.67C47,70,46.94,70.21,47.09,70.28Z"/><path class="cls-1" d="M45.61,85.2a5.91,5.91,0,0,0,2.09,1c.19,0,.27-.28.08-.33a8.38,8.38,0,0,1-2-1C45.63,84.78,45.42,85.07,45.61,85.2Z"/><path class="cls-1" d="M45.6,84l.12.11a8.14,8.14,0,0,0,1.89.94,16.67,16.67,0,0,0,2.39.88c.17,0,.28-.2.1-.27a38.77,38.77,0,0,1-4.36-1.85C45.63,83.7,45.52,83.86,45.6,84Z"/><path class="cls-1" d="M50.24,84.87l.48.19-.25-.19-.07,0Z"/><path class="cls-1" d="M46.72,82.75a.58.58,0,0,0-.32,0,.09.09,0,0,0,.07.16.48.48,0,0,1,.31,0A1.41,1.41,0,0,1,46.72,82.75Z"/><path class="cls-1" d="M56,83.42a1.11,1.11,0,0,1-.3.08h0a9.18,9.18,0,0,0,1.91.59c.17,0,.24-.24.08-.28-.51-.14-1-.3-1.49-.48Z"/><path class="cls-1" d="M56.92,82.94a7.82,7.82,0,0,0,2,.65.15.15,0,0,0,.07-.28c-.58-.19-1.16-.38-1.73-.59Z"/><path class="cls-1" d="M58.25,82a1.63,1.63,0,0,0,1,.35c.16,0,.14-.25,0-.27a2.51,2.51,0,0,1-.87-.38A.83.83,0,0,1,58.25,82Z"/><path class="cls-1" d="M54.19,69.65a1.08,1.08,0,0,1,.55.31l.66,0c-.34-.15-.68-.29-1-.45A.13.13,0,0,0,54.19,69.65Z"/><path class="cls-1" d="M56.72,69.84,57,70a1.17,1.17,0,0,1,.72.3l.25-.1.08,0-1.23-.65C56.65,69.44,56.54,69.74,56.72,69.84Z"/><path class="cls-1" d="M58.15,69.37a.15.15,0,0,0,.16.16h.23a.13.13,0,0,0,.1-.11.12.12,0,0,0-.11-.13s0,0,0,0l-.06,0a.31.31,0,0,0-.13,0A.15.15,0,0,0,58.15,69.37Z"/><path class="cls-1" d="M19.36,80.18c.53.18.69.82,1.15,1.1.16.09.33-.13.17-.23-.46-.31-.67-.91-1.24-1.07C19.31,80,19.23,80.13,19.36,80.18Z"/><path class="cls-1" d="M20,79.84c.22.12.38.34.6.46a7.53,7.53,0,0,1,.81.53.12.12,0,0,0,.16-.17,2.75,2.75,0,0,0-.74-.62,6.16,6.16,0,0,0-.71-.52C20,79.42,19.83,79.74,20,79.84Z"/><path class="cls-1" d="M21.18,79.67a8.81,8.81,0,0,0,1.08.61.12.12,0,0,0,.09-.22c-.37-.17-.7-.39-1.06-.58C21.18,79.41,21.07,79.61,21.18,79.67Z"/><path class="cls-1" d="M22.6,79.42a1.66,1.66,0,0,0,.71.3c.19,0,.21-.25,0-.3a1.75,1.75,0,0,1-.56-.25A.15.15,0,0,0,22.6,79.42Z"/><path class="cls-1" d="M15.89,78.21a.26.26,0,0,0,.25.41c.34-.08.61-.28,1-.34a2.55,2.55,0,0,1,1.16.11c.5.14.94.43,1.45.52.28,0,.39-.42.12-.49A4.6,4.6,0,0,1,19,78a4,4,0,0,0-1-.34A2.15,2.15,0,0,0,15.89,78.21Z"/><path class="cls-1" d="M78.91,81.91c-.62.59-1.12,1.48-2,1.56a.38.38,0,0,0-.17.06q-4.12.6-8.23,1.23c-2.73.41-5.42,1-8.14,1.47s-5.47,1-8.22,1.34c-1.34.18-2.68.35-4,.57s-2.71.52-4.08.75a12.62,12.62,0,0,1-2,.23.45.45,0,0,0-.42-.16,14.22,14.22,0,0,1-2.25-.18c-.83,0-1.62,0-2.44-.06s-1.65-.32-2.46-.52-1.74-.36-2.61-.5c-1.77-.3-3.54-.64-5.32-.86-.91-.12-1.82-.23-2.73-.32a14,14,0,0,0-2.65-.24h0a.34.34,0,0,0-.06.63,11.3,11.3,0,0,0,2.63.49c.91.14,1.82.24,2.73.37,1.83.26,3.65.63,5.47,1,.87.16,1.74.31,2.6.54a22.88,22.88,0,0,0,2.46.52,22.28,22.28,0,0,0,2.45.07c.39,0,.78.09,1.17.14l0,.09.31.06a11.83,11.83,0,0,0,3.84-.31c1.36-.23,2.71-.52,4.07-.73s2.69-.37,4-.55c4-.54,7.93-1.28,11.86-2,4.12-.81,8.3-1.2,12.42-2a.46.46,0,0,0,.3-.19,3.81,3.81,0,0,0,2.24-1.73C79.89,82.15,79.31,81.53,78.91,81.91Z"/><path class="cls-1" d="M20,78.75a16.09,16.09,0,0,0,2.43-1c.83-.37,1.66-.75,2.48-1.14,1.62-.75,3.19-1.59,4.77-2.41.78-.4,1.57-.79,2.31-1.25a23.24,23.24,0,0,1,2.17-1.23c.75-.35,1.52-.53,2.29-.82A14.89,14.89,0,0,1,38.48,70a.47.47,0,0,0,.34-.28,15.15,15.15,0,0,1,2-.43c1.36-.22,2.73-.39,4.1-.61s2.65-.5,4-.75c2.72-.53,5.46-1,8.2-1.39s5.45-.76,8.16-1.25,5.45-1,8.17-1.49h.19c.88-.21,1.63.41,2.41.73.49.21.85-.51.43-.83a3.91,3.91,0,0,0-2.66-.82.5.5,0,0,0-.35-.08c-4.14.62-8.22,1.58-12.36,2.15-4,.55-7.94,1.14-11.87,1.9-1.33.26-2.66.54-4,.78s-2.73.41-4.08.62a12.53,12.53,0,0,0-3.73.93l-.28.15.06.06c-.35.17-.7.35-1.06.49a23.16,23.16,0,0,0-2.29.83A20.16,20.16,0,0,0,31.68,72c-.74.46-1.52.87-2.29,1.27-1.63.86-3.24,1.75-4.89,2.55-.82.39-1.65.77-2.46,1.17A11.94,11.94,0,0,0,19.7,78.2a.31.31,0,0,0,.25.54Z"/><path class="cls-1" d="M13.76,78.35a2.09,2.09,0,0,0-.84,2.09c.08,1,.35,2,.51,2.94a18.64,18.64,0,0,0,.73,3.19c.1.28.51.08.42-.2a33.87,33.87,0,0,1-.87-5,3.87,3.87,0,0,1-.05-1.85c.26-.79,1.09-.76,1.68-.4.32.2.71-.18.46-.48A1.64,1.64,0,0,0,13.76,78.35Z"/><g id="Group_1096" data-name="Group 1096"><g id="Group_1090" data-name="Group 1090"><path id="Path_8924" data-name="Path 8924" class="cls-1" d="M55.78,75.26a4.08,4.08,0,0,1-.12,2.08,4.06,4.06,0,1,1-6.9,1.42,4.06,4.06,0,1,1,6.09-5.36A4,4,0,0,1,55.78,75.26Zm-.26,2.11v0a3.92,3.92,0,1,0-6.63,1.37.06.06,0,0,1,0,.06,3.92,3.92,0,1,0,6.63-1.36S55.52,77.38,55.52,77.37Z"/></g><g id="Group_1091" data-name="Group 1091"><path id="Path_8925" data-name="Path 8925" class="cls-1" d="M53.61,80.88a.6.6,0,0,1,.2.35l0,.07-.33.07.07.32.36-.08s.19.15.23.34V82l-2.73.56.11-.5-.06-.26-.28-.17.26-.51a.28.28,0,0,1,.12.16Zm-.23.51-1.77.37.06.32,1.77-.37ZM53,78.64s.18-.32.31-.51a.12.12,0,0,1,.09.11l.15.73.82-.17s.17.2.21.38v.09l-.94.2.3,1.43L53.8,81l-.31-1.47-.73.15L52.69,79c.05,0,.1,0,.14.12l.56-.11,0-.2Zm-.1,1.69s.16.11.2.35l0,.07-1.92.4.09-.55,0-.24c-.17,0-.42,0-.59,0v-.72c.07,0,.12.06.14.15l.41.33L51,79.38l-.29-.17.26-.53a.36.36,0,0,1,.11.14l1.35-.27a.74.74,0,0,1,.21.36l0,.08-.18,0,.12.56c.35.09.7.38,1,1.14l0,0a1.55,1.55,0,0,0-.91-.75l.06.33Zm-1.48.3.54-.11-.08-.43-.55.11ZM52.56,80a2.07,2.07,0,0,0-.5,0l-.1,0,.09.43.58-.12Zm-.2-1-.58.12.09.45.1,0a1.67,1.67,0,0,1,.5,0Zm-1.16.71.54-.11-.09-.45-.54.11Z"/></g><g id="Group_1092" data-name="Group 1092"><path id="Path_8926" data-name="Path 8926" class="cls-1" d="M50.22,74.36s.19-.39.33-.64a.12.12,0,0,1,.09.11l.17.82a3.23,3.23,0,0,1,1.63.28c.3-1.87,1.07-1.44,1-1a5,5,0,0,0-.57,1.21,4.29,4.29,0,0,1,1.27,2l0,0a4,4,0,0,0-1.35-1.58,8.49,8.49,0,0,0-.28,1.33,11.82,11.82,0,0,0-1.19-.2l.19.92-.12.06-.2-1a11.49,11.49,0,0,0-1.27-.12l0-.75c.05,0,.1,0,.13.17.24,0,.6.07,1,.13l-.19-.92-.56.07v-.77c.07,0,.12,0,.14.15l.29,0v-.07Zm.9,1.81c.43.06.86.13,1.21.21,0-.36,0-.66.05-.94a3.1,3.1,0,0,0-1.45-.22Z"/></g><g id="Group_1093" data-name="Group 1093"><path id="Path_8927" data-name="Path 8927" class="cls-1" d="M56.4,75.18a4.59,4.59,0,0,1,0,2,4.67,4.67,0,1,1-8.32,3.74h0a4.59,4.59,0,0,1,0-2,4.67,4.67,0,1,1,8.32-3.74Zm-.31,2.08V77.2A4.4,4.4,0,1,0,47.51,77v0a4.24,4.24,0,0,0,.82,1.79.17.17,0,0,1,0,.12,4.4,4.4,0,1,0,8.58.22v0a4.24,4.24,0,0,0-.82-1.79A.14.14,0,0,1,56.09,77.26Z"/></g><g id="Group_1095" data-name="Group 1095"><g id="Group_1094" data-name="Group 1094"><path id="Path_8928" data-name="Path 8928" class="cls-1" d="M58.81,79.26v.07s0,.06,0,.09,0,.06,0,.08l0,.08a.12.12,0,0,1-.13.09l-.83,0-.06,0,0-.06a.77.77,0,0,1,0-.15v-.19a.73.73,0,0,1,.09-.35.29.29,0,0,1,.24-.11.35.35,0,0,1,.14.06.29.29,0,0,1,.08.13.38.38,0,0,1,.09-.15.34.34,0,0,1,.17-.05.31.31,0,0,1,.26.15A.65.65,0,0,1,58.81,79.26Zm-.25.11s0-.05,0-.07v-.07a.17.17,0,0,0,0-.12.11.11,0,0,0-.09,0,.08.08,0,0,0-.08,0,.27.27,0,0,0,0,.12v.15Zm-.44,0v-.12a.17.17,0,0,0,0-.12.1.1,0,0,0-.16,0,.19.19,0,0,0,0,.12v.11Z"/><path id="Path_8929" data-name="Path 8929" class="cls-1" d="M57.89,78.44a.16.16,0,0,1-.18-.13v0l0-.58,0,0h.06a.12.12,0,0,1,.1,0,.09.09,0,0,1,0,.07l0,.37h.17l0-.4,0,0,.07,0a.18.18,0,0,1,.1,0,.11.11,0,0,1,0,.08l0,.32h.18l0-.46,0,0,.06,0a.17.17,0,0,1,.1,0,.08.08,0,0,1,0,.07l0,.52a.16.16,0,0,1-.13.17h0Z"/><path id="Path_8930" data-name="Path 8930" class="cls-1" d="M57.79,77.38a.14.14,0,0,1-.19-.1v0l-.11-.57.05,0,.06,0a.12.12,0,0,1,.1,0s0,0,.05.07l.07.36L58,77l-.08-.39,0,0,.06,0a.12.12,0,0,1,.1,0,.08.08,0,0,1,0,.07l.06.32.19,0-.09-.45.05,0,.06,0a.11.11,0,0,1,.15.08l.09.51a.15.15,0,0,1-.1.19h0Z"/><path id="Path_8931" data-name="Path 8931" class="cls-1" d="M58,75.87l.33-.1,0,0,0,.08a.15.15,0,0,1,0,.07,0,0,0,0,1,0,0l0,0-.07,0-.79.26a.09.09,0,0,1-.07,0l0,0a.5.5,0,0,1-.08-.12L57.26,76a.56.56,0,0,1,0-.38.37.37,0,0,1,.23-.21.34.34,0,0,1,.2,0,.38.38,0,0,1,.15.09,1.77,1.77,0,0,0,.12-.17.64.64,0,0,1,.1-.13.11.11,0,0,1,.11,0,.22.22,0,0,1,.07.09s0,0,0,.06a.13.13,0,0,1,0,.06l0,0,0,0-.18.21Zm-.25,0a.16.16,0,0,0-.07-.09.14.14,0,0,0-.11,0,.11.11,0,0,0-.08.07.26.26,0,0,0,0,.15s0,0,0,0l0,0,.25-.08Z"/><path id="Path_8932" data-name="Path 8932" class="cls-1" d="M57.24,74.16a.47.47,0,0,1,.17,0,.3.3,0,0,1,.16,0,.71.71,0,0,1,.14.1.65.65,0,0,1,.18.36.47.47,0,0,1,0,.17.53.53,0,0,1-.08.15.4.4,0,0,1-.15.1l-.6.3,0,0a.25.25,0,0,1,0-.07l0-.07v-.06a.05.05,0,0,1,0,0A.1.1,0,0,1,57,75l.48-.23a.16.16,0,0,0,.1-.1.18.18,0,0,0-.1-.22.22.22,0,0,0-.14,0l-.61.3,0,0,0-.07,0-.07s0,0,0-.06,0,0,0,0l.07,0Z"/></g></g><circle id="Ellipse_83" data-name="Ellipse 83" class="cls-1" cx="58.2" cy="80.43" r="0.31"/><circle id="Ellipse_84" data-name="Ellipse 84" class="cls-1" cx="56.76" cy="73.42" r="0.31"/></g></g><path class="cls-1" d="M44.82,82.26a7.34,7.34,0,0,0-6.17-3.8,4.87,4.87,0,0,1-2-.43c-.69-.34-1.36-.73-2-1.1a8.22,8.22,0,0,0-1.95-1,2,2,0,0,0-1.86,1,7.21,7.21,0,0,0-1.64,4.28c-.05,1.07,1.62,1.09,1.67,0a5.26,5.26,0,0,1,1-2.88c.09-.13.18-.25.28-.37s.25-.23.34-.33h0a2.85,2.85,0,0,0,.57.31l1.15.62.06,0a.88.88,0,0,0,.6.74l4.71,1.86a15.31,15.31,0,0,1,3.89,2,.86.86,0,0,0,1.1.08A.85.85,0,0,0,44.82,82.26Z"/><path class="cls-1" d="M110.61,86.51c.12-.2.07-.31-.76-1.26-2-2.3-1.23-3.23-1.67-4.35-.27-.68-1.7.41-.43,3.35C108.68,86.42,110.34,87,110.61,86.51Z"/><path class="cls-1" d="M116.42,87.4a.33.33,0,0,0,.23-.56A16,16,0,0,1,112.13,81c-.22-.52-1-.14-.79.38C113.05,85.79,116.18,87.4,116.42,87.4Z"/><path class="cls-1" d="M117.22,78.69c-1,.6,3.8,6.09,7.23,6.56a.33.33,0,0,0,.38-.22c.15-.41-.22-.59-1.38-1.16a13.1,13.1,0,0,1-4.87-4C118.33,79.5,117.61,78.46,117.22,78.69Z"/><path class="cls-1" d="M109.23,76.9a.68.68,0,0,0-.47.86.63.63,0,0,0,.79.46c7.14-2,11.19-8.11,15.1-14,2.58-3.89,4.72-7.15,8.27-10.11,6.32-5.3,13.7-7.59,30.28-22.91,0,4.6-2.57,9.54-5.7,13.06C151,48,146.61,50.91,140.47,55a.48.48,0,0,0,.46.85c7-2.68,12.86-6.4,16.83-10.76,7.21-4.11,13-6.79,14.51-7.6,1.32-.7,2.21-1.14,2.82-.65,1.8,1.46-2.75,5.3-4.57,6.72-3.68,2.87-5.21,2.65-4.83,3.71a.76.76,0,0,0,.67.51v0c2.72-.9,2.56-1.24,4.68-2.09a7.33,7.33,0,0,1-1.79,3c-.77.95-2.32,3.08-7.51,5.82a45.69,45.69,0,0,1-19.69,5.22,37.22,37.22,0,0,1-4.49.09c-.72,0-.76,1.06,0,1.12,1.42.11,2.87.3,4.31.33a45.53,45.53,0,0,0,13.55-2.2c.71,1,14-4,19.43-7.62.67-.45,1.59-1.07,2.19-.74,1.38.76-.68,3.2-1.46,4.19a24.3,24.3,0,0,1-10,7.23c-2.57.26-10.42,1.14-12.84,2a.73.73,0,1,0-.15,1.46,27.94,27.94,0,0,0,12.84-2.12c5.77-.56,7.49-.64,8.34.06.31.26.75-.18.44-.46-1.54-1.42-2.62-1.41-5.61-1.22a31.18,31.18,0,0,0,7.54-6.16c1.1-1.2,2.67-2.8,2.37-4.52A1.94,1.94,0,0,0,177,49.66a3.51,3.51,0,0,0-2.42.72,82.56,82.56,0,0,1-12.2,5.86,25.76,25.76,0,0,0,6.08-4.07A10.2,10.2,0,0,0,171,49a13.85,13.85,0,0,0,1-3.88.38.38,0,0,0-.12-.32,15,15,0,0,0,2.89-3.2c.88-1.17,2.08-2.78,1.57-4.38A2.09,2.09,0,0,0,175,35.8a3.22,3.22,0,0,0-2.32.41c-4.34,2-8.83,4.38-13.36,6.95a24.15,24.15,0,0,0,5-13.33.61.61,0,0,0-1-.46c-5.76,4.64-11,9.43-17.93,14.24-2,1.37-4,2.65-6,4-12.69,8.25-12.26,11.21-19,20.5C116.82,72.9,113.18,75.79,109.23,76.9Zm45.85-30.26a40.5,40.5,0,0,1-9.93,6.24C148.17,50.83,151.45,48.77,155.08,46.64Z"/><path class="cls-1" d="M174.21,64.46a0,0,0,0,0,0,.05S174.25,64.46,174.21,64.46Z"/><path class="cls-1" d="M174.21,64.69a.2.2,0,0,0,.21-.2V64.4l-.11-.12h-.09a.21.21,0,0,0-.2.21v.08l.12.12Zm0-.36a.16.16,0,0,1,.16.16.16.16,0,1,1-.16-.16Z"/><path class="cls-1" d="M173.69,64.69a4.77,4.77,0,0,1-1.93,1.42.24.24,0,0,0,.11.46,3.83,3.83,0,0,0,2.2-1.61A.23.23,0,0,0,173.69,64.69Z"/><path class="cls-1" d="M158.67,86.41c3.14-1,3.42-3.48,1.26-5.8,4.24-.11,12.25-1.91,10.32-5.59-.7-1.35-2.61-1.79-4.35-2.12a33.59,33.59,0,0,0,6-2.34.28.28,0,0,0-.24-.5,27.93,27.93,0,0,1-7.91,2.52,32.09,32.09,0,0,0-9.41.1.59.59,0,0,0,0,1.16,28.63,28.63,0,0,0,8.5-.26c1.27.15,4.57.64,5.7,1.4a1.2,1.2,0,0,1,.15,2c-1.33,1.23-5.94,2.46-10.72,2a9.13,9.13,0,0,0-6.54-1.45.79.79,0,0,0-.17,1.51,22,22,0,0,0,6.75,1.46c1.41,1,3,2.94,1.79,4.07a2.66,2.66,0,0,1-1.68.54,18.92,18.92,0,0,1-5-.15A8.81,8.81,0,0,0,146.6,83c-.83.08-.82,1.14-.19,1.47a18.93,18.93,0,0,0,6.2,2c3.63,3.69-.34,4.65-5.87,2.45a2.72,2.72,0,0,0-1-.77,8.12,8.12,0,0,0-3.44-1.88.7.7,0,0,0-.84.35.69.69,0,0,0,.19.88,16,16,0,0,0,3.43,2.17c2.27,3.61-3.78,7.84-8.47,1.61-.21-.34-.44-.68-.64-1a.74.74,0,0,0-1.06-.21.89.89,0,0,0-.26,1.23c.13.21.27.43.41.63a4,4,0,0,1,.85,2.81,2.34,2.34,0,0,1-1.89,1.61c-2.34.52-4.26-1.4-5.82-3.35-.56-.7-1.82,0-1.36.84.61,1.07,1.34,2.31,1.08,3.56-.52,2.56-4.74,1.4-7.23-.77-.36-1.62-1.91-2.44-2.44-1.66-.3.46.08.78.52,1.39.18.24.36.5.55.74,0,1.09-1.28,2.23-3.13,1.79a.38.38,0,0,0,.21-.55,28,28,0,0,1-3.23-7.54A2,2,0,0,0,114,89.8a6.31,6.31,0,0,0,5.63.71c.44.84,3.1,5.17,5.47,6.94.35.25.83-.21.58-.56-.91-1.3-2-2.46-3-3.72s-1.85-2.61-2.13-3.11a2.7,2.7,0,0,0,1.34-1.93,10.42,10.42,0,0,0,1.55.72c4.26,1.64,5.93-.22,5.81-2.2a1.53,1.53,0,0,0,0-.3c3.35,1.32,6.36-1.09,5.58-4.48,3.67.84,7.13-1.64,6-4.68,5.59.18,8.17-3.82,6.75-6.32a4.41,4.41,0,0,0,3.59-3.75c.26-2.14-1.2-4.86-5.55-3.72a.41.41,0,0,0-.32.43c0,.41.43.41.61.43a5.79,5.79,0,0,1,2.74.72c1.49,1,1,4.31-2.87,4.56a2.45,2.45,0,0,0-1.11,0,.77.77,0,0,0,.14,1.51,7.46,7.46,0,0,0,.95,0c1,.45,1.22,2.07-.7,3.43a7,7,0,0,1-2.7,1.11,9.9,9.9,0,0,1-2.77,0,2.76,2.76,0,0,0-.43-.2c-.79-.3-1.37,1-.58,1.33,1,.45,1.1,2.42-.77,3.17A5.25,5.25,0,0,1,134,80a9.35,9.35,0,0,0-.91-1.15.7.7,0,0,0-.87-.1.61.61,0,0,0-.29.74,3.3,3.3,0,0,0,1,1.48c.29.59,1,2.44-.4,3.65s-3.57,0-5.05-1.34a.8.8,0,0,0-1.12.06.69.69,0,0,0,0,1l.1.1a3.75,3.75,0,0,1,1.38,2.21,1.2,1.2,0,0,1-.31.94c-.82.83-3,.16-4.06-.27-.81-.33-1.6-.76-2.39-1.14-.5-.24-1,0-.77.42a3.22,3.22,0,0,0,.41.58c0,1.33-1,1.61-1.91,1.91a4.46,4.46,0,0,1-4.41-.8,7.27,7.27,0,0,1-1.46-1.84.63.63,0,0,0-1.16.44,4.63,4.63,0,0,0,1.17,2c0,.76-.9,1-2.08.4a7,7,0,0,1-3.13-3.24.7.7,0,0,0-1.24.66,8.11,8.11,0,0,0,.69,1.34,1.42,1.42,0,0,1-.5,1.67c-1.12.58-2.7-1.38-3.47-2.37-1-1.27-1.12-1.34-1.3-1.26a.24.24,0,0,0-.14.21c0,1.82,2.33,4.93,4.5,5a2.37,2.37,0,0,0,2.26-1.62A5.39,5.39,0,0,0,112,91.24a15.45,15.45,0,0,0,3.79,7.61c-3.21-1-5.06-4.23-5.22-4.41l-.08-.14c-.46-.71-1.6,0-1.25.74.49,1,1.09,2.32.65,3.45-.61,1.54-2.76,1.19-4.51-1.95.36-1.62-.45-3.26-1.24-4.68a.54.54,0,0,0-.63-.25.49.49,0,0,0-.34.54c0,.35.07.7.09,1a9.86,9.86,0,0,0,.61,3.15c-1.47,3.55-7.08-1.4-6.13-8.16a.5.5,0,0,0-.38-.66.54.54,0,0,0-.62.41c-1.38,6.36,4.63,13.82,7.91,10.07,3,5.28,7.27,3,7.09-.43,4,4.15,8,3,8.86.86,4.26,3.46,9.28,2.54,9.07-1.59,3.71,2.86,7.67.88,8-2,4.72,3.69,10.83.77,9.77-4.27,2.93.81,7.36.93,7.71-2.12a2.79,2.79,0,0,0-.54-1.76c.35,0,.7,0,1,0A10.64,10.64,0,0,0,158.67,86.41Z"/><path class="cls-1" d="M121.58,75.34c-.94-.07-1.83-.48-2.8-.57a.43.43,0,0,0-.25.79c2,1.42,5.28,1.62,6.83-.35a2.51,2.51,0,0,0,.31-2.63c3.44-.14,6.23-3,4.62-5a8.19,8.19,0,0,0,3.14-2.9,1.6,1.6,0,0,0-.52-2.19,13.75,13.75,0,0,0,2-2.34c.39-.56,1.07-1.57.47-2.27h0c-.63-.72-1.73-.31-1.49.52a1.59,1.59,0,0,1-.81,2.1c-.89.6-1.56,1.57-2.45,2.2a6.39,6.39,0,0,0-.59.41c-.61.46.12,1.47.75,1.05.31-.2,1.26-1,1.48-.47s-.7,1.15-.95,1.4A8,8,0,0,1,128.09,67h0a.68.68,0,0,0-.29.87.65.65,0,0,0,.83.43l.1,0c.51-.19,1.35,1.16-1.19,2.38a6.12,6.12,0,0,1-3.35.52c-1.74-.69-1.77.69-1.13,1a6.93,6.93,0,0,0,1.3.36,1.61,1.61,0,0,1,.3.72C124.76,74.21,123.6,75.47,121.58,75.34Z"/><path class="cls-1" d="M133.68,69.47h0a.38.38,0,0,0-.66.37,5.34,5.34,0,0,0,3.1,2.76.27.27,0,0,0,.22-.48A10,10,0,0,1,133.68,69.47Z"/><path class="cls-1" d="M136.22,69.72a.29.29,0,0,0-.51.27c1.55,3.28,5.37,4,5,2.73-.15-.55-1.61-.72-1.86-.81A5.36,5.36,0,0,1,136.22,69.72Z"/><path class="cls-1" d="M139,70.87c2.81,1.85,2.82,2.13,3.53,2.14a.43.43,0,0,0,.39-.63c-.32-.62-1.09-.85-1.63-1.11-1.66-.81-2.11-1.41-2.41-.91A.38.38,0,0,0,139,70.87Z"/><path class="cls-1" d="M142.77,57.11c8.4-2.35,19.28-8.41,23.86-12.41a.4.4,0,0,0-.47-.64c-2.92,1.88-5.76,3.93-8.76,5.68a96,96,0,0,1-14.52,6.76c-.23.09-.52.16-.43.43A.27.27,0,0,0,142.77,57.11Z"/><path class="cls-1" d="M125.14,59.19h0c.79-1.31,1.69-2.58,2.54-3.76,2-2.8,2.59-3.53,7.1-7.71C150.63,33,149.48,28.86,151.14,25a6.23,6.23,0,0,1,1.42,4.82c-.21,2.48-1.58,4.74-2.49,7-.25.63.62.94,1,.48,5-6.39,3.46-11.78.12-13.77a.56.56,0,0,0-.85.45c-.06.37,0,.73,0,1.08-.2,2.13-1.78,5.06-2.8,6.81-4.9,8.41-10,11-17,19.24-2.08,2.44-3.8,3.92-5.82,7.77A.27.27,0,0,0,125.14,59.19Z"/></g></g></g></svg>