<svg xmlns="http://www.w3.org/2000/svg" viewBox="0 0 172.61 183.12"><defs><style>.cls-1{fill:#b69564;}</style></defs><g id="圖層_2" data-name="圖層 2"><g id="圖層_1-2" data-name="圖層 1"><path class="cls-1" d="M103,58.42s5.65-2.79,8.44-4.23C135.25,42,137.28,35.48,139,40c.74,1.9-.84,5.06-2,6.51C133.4,50.93,119.19,58.47,103,58.42Z"/><path class="cls-1" d="M49.87,24.52l-3-4.78c4.82-9.84-4.85-11.46-6-7.54a3,3,0,0,0,2.27,3.89c.52.08.69.48.57,1.07l-.07,0,0,.07c-.4,1.57-2.6,4.35-5.29,6.32C17.56,38.84-.48,48.4,5.43,70.59c-4.06-1.75-7.57,2.18-3.87,5.13,0,0-.09.3-.17.58l-.16,1.47,0,.13a1.18,1.18,0,0,0,.07.2c.1.25.25.48.34.74a7.58,7.58,0,0,0,.64,1.35c-.64,1.77.53,3.17,2.31,4.19C-.87,105,16.23,115.3,35.72,131.13c2.89,2.34,5.12,5.65,5,7.05l-.1.14.06.05a.61.61,0,0,1-.6.48,3,3,0,0,0-2.46,3.78c1,3.93,10.5,2.85,6.53-6.9l12.38-17.55c5.92,14.29,19.8,14.28,25.54,14.74a47.7,47.7,0,0,1-.16-15.46c-.15,6.42.43,13.8,3.49,19.44,3.88,7.12,12.79,19.4,21.81,19.83,5.57.25,11-.8,16.43-2a8.4,8.4,0,0,1-1.15-1.16,22.24,22.24,0,0,1-3.65-7c-.87-2.51-.81-5.21-1.57-7.73a3.19,3.19,0,0,1-.3-1.55c-.25-1-1.73-5-1.93-5.38-1-2.17-3.21-4.16-2.33-6.64,2.41-6.82-.48-15-6.22-20.07,17.42,11.7,1.41,23.54,11.76,27.67h0a8.33,8.33,0,0,0,2.8.49,54.79,54.79,0,0,0,5.73.24,62.31,62.31,0,0,0,11.72-1.13c1.93-.39,3.92-.63,5.33-2.09a24.74,24.74,0,0,0,2.95-4.43c1.32-2.15,2.55-4.36,3.65-6.62,1.43-2.91,1.91-6.51,4.69-8.55,1.53-1.12,4-1.46,5.85-2,9.08-2.53,5.4-2.41,11.52-3.24.29,0-.36-.91-.44-1-2.22-2.26-12.77-2.65-15-3.69-3.08-1.43-7.17-4.82-10.41-2a3.51,3.51,0,0,0-1.23,3.39c1.11,7.2-7.16,3-13,11.15.52-.73-9.38-3.1-13.06-4.23-.12-8.38-11.85-11.83-17-12.09a11.41,11.41,0,0,0-1.61-3.49,4.84,4.84,0,0,1,2.6-1.15c4.69,1.72,13.5,3.87,13.89-1.12l.08,0c8.56,3.5,16.71.49,13.19-4.37,12.16,4.32,13.65-4.55,8.42-5.91a14.57,14.57,0,0,0,4.59.56c6.31-.48,7.69-8,.16-8.62,4.63.38,20.49.64,18.86-7.07-3.6-.16-9.18.44-19.9-2.28,5.72.35,11.66,1.65,19.58-3.06,5-3,4.42-6.09,3.44-7.31.13.17-18.61,4.57-21.89,4.41,5-1.25,11.84-3,15.7-11.93.26-.62,1.06-4.79,1.35-4.94A218.24,218.24,0,0,1,119,57.31c-4.9,1.38-10.66,1.34-14.88,4.62-12.34,9.59-11.8,12.29-20.53,11.33a3,3,0,0,0,.16-.59,2.67,2.67,0,0,0,1.71-2.34c6.18,1.19,8.42-6.25,4.3-9.42a5.35,5.35,0,0,0,7.11-2.14c1.26-2.59-.21-5.53-2.51-6.92,6.5-1.39,4.75-8.57.29-9.07,4.8-2.89,4.85-11.75-5-12A8.65,8.65,0,0,0,76.36,24c-.94-5.87-9.31-5.19-9-5.08a9.19,9.19,0,0,0-4.66,1.58l-.26,0c-3.55-3.19-9-.88-10.63,3.93a7,7,0,0,0-1.94,0m2.5,4,27.87,43-.12.11-.2.17-.06,0-28-43.22Zm-4.9,20.09c3.05-3.2,6.65-2.94,7.14-2.73.27.11.61.61.39.88-.75.93-.86-.11-3.93.71a12.29,12.29,0,0,0-3.69,1.76C47.24,49.36,46.93,49.2,47.47,48.64Zm6.59,2.91c-.2.5-1,.53-1.48.47A7.05,7.05,0,0,0,51,52c-.39,0-.79.11-1.18.19a6.05,6.05,0,0,0-1.43.41,3.85,3.85,0,0,1,2.48-1.76,7,7,0,0,1,2.33-.09c.32,0,.91.17.91.58A.61.61,0,0,1,54.06,51.55Zm-8-30.42,2.41,3.79a7.26,7.26,0,0,0-4.26,7.68c-6.68.9-5.77,10.33.52,10.34-.91,6,1.6,7.84.89,10.16-.39,1.3-2.11,1.7-2.28,3.23-.12,1.07.83,2.14,1.09,3.16.41,1.56-.42,5.3,2.86,8.14A17.42,17.42,0,0,0,57,71.43a14,14,0,0,0,.94,1.46,4.3,4.3,0,0,0,.05,1c-5.08-1.06-10.25,0-15.25,1.15l-1.82-.08c-8-3.37-19.92,0-23.26-.8a12.35,12.35,0,0,0,.3-1.37,2.31,2.31,0,0,0-.46-1.21c-.9-1.06-3-1.43-4.39-1.36C10.54,45.94,38.33,33.94,46.07,21.13ZM43.5,134.27C37,121.63,11.59,108.92,12.42,86.76a14.47,14.47,0,0,0,3.86-.63,3.14,3.14,0,0,0,.79-1.52,2.35,2.35,0,0,0,.35-.11c3.35,0,14.06,4.73,20.23,4.53a37.46,37.46,0,0,1,5,.21c2.69,1.42,3,1.83,5,2.86-.11,4.41,2,10.66,6,15.19.95,2.17.87,4.94,2.39,9.33ZM11.79,77.55a5.57,5.57,0,0,0,.79-1l49.79,1.21,0,1Zm47.54,36.56c-.08-.17-.15-.35-.23-.52l15-20.92.46.21Z"/><path class="cls-1" d="M84,128.66c.24,8.11,2.66,23.08,10.52,27.54,4.94,2.78,10.39,4.31,15.86,5.66,3.24.8,14.36,4.51,17.42,7.09a17.64,17.64,0,0,1,3.38,2.9,75.6,75.6,0,0,1,6.59,10c.21.39.46,1.14.93,1.29.82.27,3-2.91,1.36-4.86a9.09,9.09,0,0,0,.79-1.36c1.45-3.84-2.74-7.48-2.7-11.45,0-2.08,1.12-3.69.5-5.89a5.21,5.21,0,0,0-3.66-3.61c-1.34-.41-4.77.65-5.22.56l-5.75-6c-3.74-5.13-8.71-7.12-12.1-7.09a51.65,51.65,0,0,0,.79-5.88"/><path class="cls-1" d="M121.82,10.77a8.53,8.53,0,0,0,.88-6.68.79.79,0,0,0-.88-.6.83.83,0,0,0-.73.78,6.27,6.27,0,0,1-2.72,4.08,12.57,12.57,0,0,1-5.45,1.93,8.72,8.72,0,0,1-3.14.09,10.76,10.76,0,0,1-2.72-1.29c-1.2-.69-2.39-1.41-3.6-2.09a5.53,5.53,0,0,0,1.47.06,15.2,15.2,0,0,0,5.66-2.15A8.38,8.38,0,0,0,114.78.71c.26-.69-.84-1-1.09-.33a7.2,7.2,0,0,1-3.55,3.46c-.83.46-1.7.88-2.58,1.27a8.18,8.18,0,0,1-2.89.82c-2.09.09-3.94-1.15-5.86-1.78A15.62,15.62,0,0,0,93,3.42a20.76,20.76,0,0,0-13.09,6.69,10.84,10.84,0,0,0-2.56,5.81A8.17,8.17,0,0,0,77.63,19a3.77,3.77,0,0,0,1.1,1.88,6.17,6.17,0,0,0-.86,1.86l-.12-.06c.42,1,1,1.89,1.4,2.86a7.78,7.78,0,0,1,1,1.52l.45,0a4.71,4.71,0,0,1,4.43,0,6.64,6.64,0,0,0,1.3-.31,5.5,5.5,0,0,0,.59-.23,6,6,0,0,0-1-.65.81.81,0,0,0,.27-.25A3.93,3.93,0,0,0,87,23.6a.57.57,0,0,0,.36-.61,1.84,1.84,0,0,1,1.19-1.73,5.13,5.13,0,0,1,2.83-.12,19.83,19.83,0,0,1,5.91,1.94c1.76.9,3.36,2.1,5.14,3a9.73,9.73,0,0,0,5.91,1.06,6.26,6.26,0,0,0,4.73-3.59.69.69,0,0,0-.23-.74.73.73,0,0,0-.78-.07,5.16,5.16,0,0,1-3.88-.1h.66a33.75,33.75,0,0,0,5.12-.39,9.43,9.43,0,0,0,6.93-5.31,13.92,13.92,0,0,0,1.3-5.53A.6.6,0,0,0,121.82,10.77Z"/></g></g></svg>