<svg xmlns="http://www.w3.org/2000/svg" viewBox="0 0 51.69 17.36"><defs><style>.cls-1{fill:#173d4f;}</style></defs><g id="圖層_2" data-name="圖層 2"><g id="圖層_1-2" data-name="圖層 1"><path class="cls-1" d="M10.16,14c-.17.28-.35.56-.53.84A1.33,1.33,0,0,1,10.89,16s-.15.63-.17.67a2.28,2.28,0,0,1-2.09.73,7.23,7.23,0,0,1-1.23-.13C6.49,17,6.26,16.29,6,15.5a4.62,4.62,0,0,1-2.07-1,2.34,2.34,0,0,1-.78-2.27c.28-.72,1.44-1.35,2.06-1.75.38-.24.77-.46,1.17-.68.12-.06.49-.35.61-.33s.33,0,.17.17c-.62.58-1.3,1.09-2,1.61a11.55,11.55,0,0,0-.94.76c-.69.7-.46,1.52.15,2.23A2.72,2.72,0,0,0,5.89,15a2.42,2.42,0,0,1,.26-1.6c.34-.55.8-.67,1.31-.95s1.11-.84,1.72-1.16a.16.16,0,0,1,.18.25,18.63,18.63,0,0,1-1.5,1.32c-.39.34-1,.7-1.18,1.21a3.42,3.42,0,0,0,.17,1.73c.16.66.13.69.79.76s2,.38,2.48-.27a.67.67,0,0,0-.2-1.07l-.06,0c-.17,0-.83.34-1,.26-.4-.19-.06-.68.13-.89s.94-1.37,1.21-1.21a7.84,7.84,0,0,0,8.89-.72c0,.23.05.46.06.68A8.2,8.2,0,0,1,10.16,14Z"/><path class="cls-1" d="M21,14.44a3.62,3.62,0,0,0-.09-.66,24.23,24.23,0,0,0,14.66,1.81A24.12,24.12,0,0,0,47.83,9.2c.43-.41.84-.85,1.24-1.3.21-.24.43-.46.63-.72s.29-.25.58-.38a2,2,0,0,0,.88-1.42c.1-.93-.71-.77-1.39-1A44.76,44.76,0,0,0,43.2,2.15,41.44,41.44,0,0,0,35.54.93C29.85.58,24.2,1.46,18.6,2.37c-3.51.57-7,1-10.56,1.54-1.69.25-3.4.4-5.06.8a3.48,3.48,0,0,0-1.87,1,1.2,1.2,0,0,0-.06,1.6C1.82,7.1,2.59,7,3.36,6.8c.55-.11,1.81-.67,2.26-.22-.31.42-1.33.53-1.8.68A19.44,19.44,0,0,0,1.23,8c-.06.85.24,1.77.27,2.64A1.45,1.45,0,0,1,.63,10C.29,9.34.67,8.69.57,8L.48,8A2.19,2.19,0,0,1,.35,5.39,3.52,3.52,0,0,1,3.06,4c2.79-.4,5.57-.87,8.34-1.35s5.66-.91,8.49-1.32S25.47.48,28.27.22A44.49,44.49,0,0,1,40.08.6a43.82,43.82,0,0,1,8,2.06A19.14,19.14,0,0,1,51,4a1.63,1.63,0,0,1,.49,2.14,2.24,2.24,0,0,1-.63.87,1.61,1.61,0,0,1-.42.25,1.43,1.43,0,0,1-.27.09c-.12,0-.27.29-.35.38a27.82,27.82,0,0,1-2.35,2.51,24.17,24.17,0,0,1-2.64,2.11,24.34,24.34,0,0,1-13.16,4.31A24.78,24.78,0,0,1,21,14.44Z"/></g></g></svg>