<svg xmlns="http://www.w3.org/2000/svg" viewBox="0 0 218.64 241.05"><defs><style>.cls-1{fill:#fff;}.cls-2{fill:#173d4f;}</style></defs><g id="圖層_2" data-name="圖層 2"><g id="_0-ui_kits" data-name="0-ui_kits"><g id="pipi-pick"><path class="cls-1" d="M217.14,105.85c-.29-1-.64-1.87-.84-2.84-1.26-1.48-3.55-2-4.94-.48a6.64,6.64,0,0,0-1.38,0,3.27,3.27,0,0,0-2.24,1.89c-1.63.46-3.36.76-5,1.33a3.65,3.65,0,0,0,.31-.36,6.25,6.25,0,0,0,.4-.6,2.56,2.56,0,0,0,.27-1.93,4.06,4.06,0,0,0-2.33-2.37,1,1,0,0,0-1.37.36,1.06,1.06,0,0,0-.1.72.58.58,0,0,0-.08.18,1.09,1.09,0,0,0,.32,1,5.93,5.93,0,0,0-2.56,2.35,7,7,0,0,0-.91,2.92l-.1.06a3.27,3.27,0,0,1-.81.33,16.54,16.54,0,0,1-2.62.58c-.61.08-1.22.09-1.83.11a1.51,1.51,0,0,0-2.41.35,17.48,17.48,0,0,0,0,4.57,3.08,3.08,0,0,0,.3,1.66,17,17,0,0,0,1.48,4l.12.36a1,1,0,0,0,.34.48v0a1,1,0,0,0,1.67,0,9.67,9.67,0,0,0,2.44,1.69c3,1.48,6.39,1,9.54.22l2.15-.53a.36.36,0,0,1,0-.09,1.69,1.69,0,0,1,2.3-.6h0l.24-.07q.38-.12.75-.27l.54-.25a9.19,9.19,0,0,0,2.09-1.25,2,2,0,0,0,.73-1.08c0-.48-.27-1.06-.28-1.55a3.4,3.4,0,0,1,1.65-2.8l.21-.18a.28.28,0,0,0,0-.13,3.36,3.36,0,0,1-.07-1.91,7.73,7.73,0,0,1,1.44-2.47,3.73,3.73,0,0,0-.74-1.14,5.4,5.4,0,0,0,1-1.41A3.52,3.52,0,0,0,217.14,105.85Z"/><path class="cls-2" d="M160.34,81.78a.8.8,0,0,0,.81-.84.77.77,0,0,0-1.34-.51A.79.79,0,0,0,160.34,81.78Z"/><path class="cls-2" d="M162.56,69.71c.14-2.47-5.31-3.36-6.74-1.64a1,1,0,0,0,.74,1.8,7.77,7.77,0,0,1,3.34.43C160.57,72,162.48,71.18,162.56,69.71Z"/><path class="cls-2" d="M146.37,71.23c-1.28-.16-1.57,1.85-.33,2.16.66.16,1.45.37,1.9.07,5.11-.35,6.81-4.61,4.78-7.13a8.29,8.29,0,0,0,2.82-3.68c6,2.31,10.37-4.73,7.63-8.54a.67.67,0,0,0-1.22.51c1,4.65-2.44,7.27-6,5.37-.64-1.89-3.2-2.09-3.48-1-.18.71.56,1.89,1.39,2.63-1.36,3.06-2.84,3.22-4,3a1,1,0,0,0-.73,1.75h0a2.8,2.8,0,0,0,2.07.51C152.47,68.47,151.22,71.84,146.37,71.23Z"/><path class="cls-2" d="M135.28,68.65c-5.24.7-5,7.32-2.2,9.53a.85.85,0,0,0,.57.19c1.68-.09-.09-3.45.08-5.12a2.24,2.24,0,0,1,2.42-2.13l.95,0c-1.22.14-1.91.85-1.72,1.54.23.86,1.05.76,1.71.67,2.56-.34,2.24,1.22,2.84,2.3a1,1,0,0,0,1.84-.22c.43-1.47-.85-3.2-2.27-3.87a5.11,5.11,0,0,1,3.33,2.79.68.68,0,0,0,1.29-.25C144.7,69.76,138.66,68.19,135.28,68.65Z"/><path class="cls-2" d="M142.54,78c.09-.44-.32-.77-.64-1a1.26,1.26,0,0,0-1.52-.33c-1.56.78-1.62,3.84-.41,4.4a3.29,3.29,0,0,0,1.43.45c1.18,0,2.07-1.46.29-2.47a1.54,1.54,0,0,1,.09-.37A1,1,0,0,0,142.54,78Z"/><path class="cls-2" d="M134.57,81.36c-.29.17-.22.56-.2.68.67,3.94,6.87,5.77,9.81,4.06a1.14,1.14,0,0,0-.3-2.1,1.3,1.3,0,0,0-.82,0,8,8,0,0,1-1.93.25c-2.14-.12-3.29-.9-5-2.21C135.3,81.44,134.92,81.15,134.57,81.36Z"/><path class="cls-2" d="M160.14,78.31l0-.13a1.71,1.71,0,0,0,.45-2.64,6.31,6.31,0,0,0-5.49-1.83,9,9,0,0,1-1.51.47.54.54,0,0,0,.13,1.06c.79,0,2.14.7,3.69,2-.14.53-.28,1.06-.41,1.59a.84.84,0,0,0-.21.59,1,1,0,0,0,0,.24,1.18,1.18,0,0,0,.16.75,1.63,1.63,0,0,0,2.35.13A2.35,2.35,0,0,0,160.14,78.31Z"/><path class="cls-2" d="M158.51,81.39a.84.84,0,1,0,.41,1.59A.85.85,0,0,0,158.51,81.39Z"/><path class="cls-2" d="M163.19,115.36c-1.08.26-.79,0-1.63-.4a1.31,1.31,0,0,0-1.9,1.43,2.66,2.66,0,0,0,2.78,1.91,2.53,2.53,0,0,0,2-.81A1.28,1.28,0,0,0,163.19,115.36Z"/><path class="cls-2" d="M177.12,108.2c13.9.92,15.88,1.85,16,1.07.06-.33-.27-.44-.52-.51-4.68-1.4-18.29-3.48-23.66-2.69-3.75.56-5.1,2.16-5.31,3a.67.67,0,0,0,.2.74.63.63,0,0,0,.73,0C168.18,107.5,170.83,107.78,177.12,108.2Z"/><path class="cls-2" d="M123.86,91.46c4.75,0,7.63-5.12,6.15-8.22a.65.65,0,0,0-1.22.27A7.08,7.08,0,0,1,128,87.1c-2.6,4-6.12,2-8,.88l-.11.21L120,88c-.72-.42-1-.61-1.33-.38C118,88.12,119.67,91.47,123.86,91.46Z"/><path class="cls-2" d="M167.39,83.13c.17-4.41-5.12-3.48-3.31-9.26.67-2.14,1.73-4.22,1.85-6.57.17-3.32-2.58-5.44-3.46-4.24-.67.89.8,1.37,1.17,3,.92,4-4.11,9.26-.87,13.48.93,1.21,3,2.44,2.49,4a1.91,1.91,0,0,1-1.13,1.31A3.51,3.51,0,0,0,162.79,90c-2.19,1.21-4.09.31-5,.16A18.45,18.45,0,0,0,156,88.63c-.43-.31-.79-.66-1.32-.42a1.1,1.1,0,0,0-.19,1.88c.1.09,1.17.82,1.81,1.2.36.22.86,1,1.3,1.27.63.44,1,.41,1.15,1.24.91,5.27-9.15,6.14-14.26,4.62-2.87-.86-6.12-2.47-7.34-5.22-.48-1.09-1.07-.52-1.09-.09-.1,1.74,1.36,3.48,2.47,4.67-.85,0-1.94-1.22-2.73-1.61-4.25-2.06-9.21-.51-9,1.08.17,1.18,1.49,1,2.59.89a15.67,15.67,0,0,1,9.2,2c5.09,2.83,11.39,2,16.89,4.17.7.28,5,3.24,5.39,2.18a.42.42,0,0,0-.21-.56c-1.63-.74-3.08-1.8-4.72-2.53l-.37-.16c-1.86-.81-3.76-1.54-5.64-2.31,4.34-.17,9.87-1.55,10.92-5.76,2.13-.37,2.65-2.19,1.53-2.61,1.56-.5,3.25-1.46,3.44-2.43.23-1.14-1.34-1-1.3-2.3S167.29,85.69,167.39,83.13Z"/><path class="cls-2" d="M178.51,124.51A11.2,11.2,0,0,0,175,124a3.14,3.14,0,0,1-1.69,0c-1.39.07-2.78.22-4.13.23a3.53,3.53,0,0,1-2.85-1.21c-1.8-.18-3-.36-3-.37a19.38,19.38,0,0,0-5,.58c-7.74,1.5-10.24,1-14,.07-2.54-.65-5.17-1.32-7.85-.52-4.26,1.26-3.6,3.32-2.2,3.49.91.12,5.23-1.55,11.1.55,4.11,1.47,10.42.37,13.63-.69a10.66,10.66,0,0,1,5.26-.35,18.86,18.86,0,0,0,4,.28,58.71,58.71,0,0,0,10.29-1.58Z"/><path class="cls-2" d="M164.06,50.87a.66.66,0,0,0,.71.37c3.23-.52,5.23.06,6.39,1.9l-1-.3a.71.71,0,0,0-.52,1.32,7.39,7.39,0,0,1,2,2.52,4.88,4.88,0,0,1,.38,3c-.75,3.23-3.53,3.9-4,4.25a1.11,1.11,0,0,0,.66,2.05c2.6,0,7.51-5,4.46-10.42a.79.79,0,0,0,.32-.23c1.09-1.41-2.09-7.61-8-6.07a2.56,2.56,0,0,0-1.1.73C164.14,50.22,163.86,50.46,164.06,50.87Z"/><path class="cls-2" d="M116.92,50.89c-4.52-.37-6.68,6.11-2.17,9.64a9.36,9.36,0,0,0,4.94,2,.77.77,0,0,0,.31-1.45c-2.32-1.11-5.23-2.24-5.71-5s2-3.81,3.38-3A1,1,0,0,0,119,51.83a3.39,3.39,0,0,1,5.39-3.9c.63.55,1.67-.18,1.17-.94-3-4.51,3.74-11.22,12.74-5.16a.4.4,0,0,0,.45-.67c-9.2-6.6-16.16-.93-15.25,4.59A5.07,5.07,0,0,0,116.92,50.89Z"/><path class="cls-2" d="M121.68,77.22a.82.82,0,0,0-.22-1.52c-1.27-.2-3.93-.34-5-3a4.71,4.71,0,0,1,1.75-5.41.6.6,0,0,0-.58-1.06A5.85,5.85,0,0,0,116,76C117.72,77.55,120.09,78.08,121.68,77.22Z"/><path class="cls-2" d="M66.5,15.19a18.61,18.61,0,0,0,1.66,7.46,12.71,12.71,0,0,0,9.25,7.27,44.09,44.09,0,0,0,6.88.61h.89a6.91,6.91,0,0,1-5.23.07,1,1,0,0,0-1,.09.94.94,0,0,0-.33,1,8.46,8.46,0,0,0,6.3,4.92,13.22,13.22,0,0,0,8-1.34c2.42-1.14,4.59-2.72,7-3.91a27.06,27.06,0,0,1,8-2.52,6.89,6.89,0,0,1,3.82.22,2.47,2.47,0,0,1,1.57,2.35.76.76,0,0,0,.48.82,5.3,5.3,0,0,0,1,2.86,1.46,1.46,0,0,0,.36.34c-3,1.49-4.7,4.7-2.9,7.1-4.11.58-9.89,3.8-10,5.41-6.46,3.94-3.91,7.21-1.26,7.47-2.31,4.31-4.49,9.89-1.78,15.46a7.4,7.4,0,0,0,2.23,2.89c-4.54,2.94-4.14,10.6,2.85,13.27-1.9,2.83.78,6,3.83,5.81.3,3.56,6.47,5.37,8.84,3.12a6.35,6.35,0,0,0,3.78,1.25c4,0,5.39-2.72,5.32-3.46.15-.51-.22-.74-.56-.57-.44-.07-.58.33-1.45,1a5.59,5.59,0,0,1-6-1.1c-.73-.66-1.21-1.86-2.22-2.4a.64.64,0,0,0-.88.84c1,2-2.58,3.69-5.18.68.63-1.24-.4-2-1.14-1.74a2.14,2.14,0,0,1-1.6.15c-1.82-.65-1-2.89.52-3.36a1,1,0,0,0-.42-1.94c-1.27-.71-4.88-1.21-6.18-4.88a4.2,4.2,0,0,1,.18-3.74,4.3,4.3,0,0,1,2.51-2,1,1,0,0,0,.82-1.72c-6.08-6.06-3.37-12.34.61-19.43.62-1.1-.7-2.65-1.86-1.82-.62.46-1.51,1.17-2.21.93-1-.36,2.71-3.3,5.51-4.27a1.16,1.16,0,0,0,.37-2,18.72,18.72,0,0,1,6.86-2.69,1.31,1.31,0,0,0,1.66-.33.59.59,0,0,0,.16-.74c-.18-.79-1.18-.59-1.56-1.31-.72-1.36.38-2.86,1.56-3.85,1.66-1.38,4.35-1.76,7.13-.22,3.25-6.39,10.29-6.61,14.18-3,.6.56,1.77,2.38,2.41,2a.56.56,0,0,0,.2-.64c.69-.24,1.3-.6,2-.86,8.74-3.49,12.72,4.46,13.61,5.73-3.76.17-4.89,3.33-3.45,4.91a.61.61,0,0,0,1.05-.44c-.49-4.91,9.22-3.28,11,4a.46.46,0,0,0,.47.35.47.47,0,0,0,.45-.54,9.73,9.73,0,0,0-8.58-8.3c.39-2-1.66-4.53-3.43-5.9-5.92-4.61-12.36-2.18-13.94-.61A10.57,10.57,0,0,0,126,31.27a8.38,8.38,0,0,0-1.12-2.52,5.06,5.06,0,0,0,1.51-2.51,11,11,0,0,0,.41-4.19,14.56,14.56,0,0,0-3.35-7.87,22.25,22.25,0,0,0-8.53-6,.68.68,0,0,0-.38-.63A21.11,21.11,0,0,0,105.9,5a20.71,20.71,0,0,0-7.82.88C95.49,6.66,93,8.3,90.16,8.14A10.81,10.81,0,0,1,86.28,7c-1.17-.54-2.34-1.12-3.46-1.76C80.88,4.13,78.9,2.71,78.11.52,77.78-.41,76.29,0,76.63,1c1,2.65,3.2,4.38,5.57,5.71s4.9,2.72,7.59,3a8.15,8.15,0,0,0,2-.05c-1.64.89-3.25,1.84-4.89,2.75A13.75,13.75,0,0,1,83.2,14,11.38,11.38,0,0,1,79,13.86a17,17,0,0,1-7.3-2.68,8.44,8.44,0,0,1-3.59-5.54,1.12,1.12,0,0,0-1-1.07,1.1,1.1,0,0,0-1.2.8,11.49,11.49,0,0,0,1.07,9A.84.84,0,0,0,66.5,15.19Zm50.18,19.64a1.07,1.07,0,0,0,0-.47.75.75,0,0,0,.42,0l.32-.09.78.35A8,8,0,0,0,116.68,34.83Zm4.93.39a5.31,5.31,0,0,0-.56-.2v0a3.94,3.94,0,0,0,1.22-.75A11.11,11.11,0,0,0,121.61,35.22ZM69.94,12.62A18.06,18.06,0,0,0,78.13,16a20.12,20.12,0,0,0,4.17.4,9.94,9.94,0,0,0,4.21-1.29c2.32-1.21,4.56-2.59,6.87-3.83a31.72,31.72,0,0,1,7-2.9,16.58,16.58,0,0,1,7.86-.05,31.9,31.9,0,0,1,7.32,2.65,19.66,19.66,0,0,1,6,4.42,12.5,12.5,0,0,1,3,6.17,9.26,9.26,0,0,1-.06,3.32c-.15.74-.4,2.1-1.26,2.35a1.06,1.06,0,0,0-.52.33,7.85,7.85,0,0,0-1.35.82A34.43,34.43,0,0,1,118.1,30c-.87.4-2,1.14-3,1a4.19,4.19,0,0,0-1.71-3,6.39,6.39,0,0,0-4.34-1.1,25.75,25.75,0,0,0-8.31,2.06,76.5,76.5,0,0,0-7.23,3.93,13,13,0,0,1-7.61,2,7.34,7.34,0,0,1-4.32-2c3.44.29,6.73-1.6,9.62-3.49.85-.56.27-2.14-.74-1.71a15.46,15.46,0,0,1-6.87,1A38.63,38.63,0,0,1,77.4,28a10.24,10.24,0,0,1-4.83-2.44,13.91,13.91,0,0,1-4.13-9.26,18.29,18.29,0,0,0,7.15,4.26,27.63,27.63,0,0,0,8.48,1.61,28,28,0,0,0,16.43-4.56c1.18-.79,0-2.68-1.14-1.89a25.49,25.49,0,0,1-8,3.51A26.22,26.22,0,0,1,76,18.38c-2.38-.89-4.94-2.17-6.52-4.23a8.63,8.63,0,0,1-1.65-3.71A10.94,10.94,0,0,0,69.94,12.62Z"/><path class="cls-2" d="M116.24,33.37v0l-.14-.32.17,0A1.22,1.22,0,0,0,116.24,33.37Z"/><path class="cls-2" d="M60,144.31c-.22-.65-1.27-.53-1.2.2,1.94,22.4,29.13,36.77,41.47,33.48a.67.67,0,0,0,0-1.29c-4.49-1.16-11.38-.88-20-5.68-12-6.71-18.07-18.78-19.78-24.85C60.33,145.55,60.18,144.92,60,144.31Z"/><path class="cls-2" d="M34.53,234.17c-2.38.4-2.81,3.89-1.61,3.74a.54.54,0,0,0,.5-.57,2.12,2.12,0,0,1,1.4-2.15A.53.53,0,0,0,34.53,234.17Z"/><path class="cls-2" d="M95.66,208.09a.19.19,0,0,0-.13-.31A.79.79,0,0,1,95.66,208.09Z"/><path class="cls-2" d="M94.84,207.51c-.67,0-1.44.91-1.82,1.39a13,13,0,0,1-3,2.49,24.91,24.91,0,0,1-4.57,2.26c-1.68.59-3.36.47-5,.85-1.25.29-2.45.77-3.69,1.07-3.16.77-6.39,1.26-9.6,1.75-6.86,1-12.75,2.63-17,6.6-7,6.48-10,6.84-13.1,11.62-.35.54-1.06.72-1.33,1.27-.16.33-.47.66-.62,1.05-.32.83.61,1.65,1.65.46,2.14-2.46,4.14-5.42,7-7,9.7-5.22,3.9-9,23.52-12a84,84,0,0,0,9.46-1.76c2.33-.65,4.62-1.39,7-1.86a30.77,30.77,0,0,0,3.78-1c.83-.27,1.55-.76,2.38-1.07a9.26,9.26,0,0,0,4.56-3.7C94.76,209.47,96.07,207.51,94.84,207.51Z"/><path class="cls-2" d="M31.59,238.6a4.36,4.36,0,0,1-.67-3.41c.23-.24,1.27.08,1.17-1-.07-.73-.71-1.15-.84-1.74-1.94-8.38,5.07-8.31,7.33-13,1.66-3.43-.44-6.6-.3-10,.18-4.26,3.17-4.17,7.31-3.12a.8.8,0,0,0,.46-1.53c-7.25-2.53-10.63,1-9.32,7.3.43,2,1.19,4.27.39,6.14-1.4,3.25-6.51,4.67-7.87,9a8.12,8.12,0,0,0-.19,4.15A5.6,5.6,0,0,0,27.22,235c-.11,1.49.45,3.38,1.75,4.12a.63.63,0,0,0,.91-.7,7.07,7.07,0,0,0,.9,1.33c.56.71.79,1.2,1.4,1.3.82.13,1.19-.85.65-1.48C32.42,239.09,31.92,239,31.59,238.6Zm-2.05-3a5.43,5.43,0,0,0,.2,2.53,9.14,9.14,0,0,1-.76-1.4,3.55,3.55,0,0,1,.73-3.53,5.93,5.93,0,0,0,.34.56C29.87,234.82,29.64,234.9,29.54,235.56Z"/><path class="cls-2" d="M39.81,216.8c-.17.34-.37.73-.11,1a.38.38,0,0,0,.32.12c.44,1.25.55,1.66,1.13,1.66a.64.64,0,0,0,.62-.51,10.37,10.37,0,0,0,.22-1.57c.08.43.08.87.49.86.8-.05,1-2.88-1.18-6.52a.42.42,0,0,0-.73.42c.09.15.17.31.25.47-.27-.23-.71,0-.57.46a11.14,11.14,0,0,1,.47,3.29A.66.66,0,0,0,39.81,216.8Z"/><path class="cls-2" d="M84.87,154.41c7.51,2.1,15.58,2.6,22.81,5.48.31.12.37,0,.6-.15l0-.2c-.12-.54-5.44-2.57-11.22-4.15-3.65-1-7.4-1.78-11-2.84-9.35-2.71-12.26-5.28-17.32-9.61a.72.72,0,0,0-1.12.87C70.62,149.28,78.9,152.75,84.87,154.41Z"/><path class="cls-2" d="M.84,134.23a7.38,7.38,0,0,1,1.65-1.65,2.52,2.52,0,0,1,3.26,0,.55.55,0,0,0,.77-.79c-2.9-3-6.8-1.31-6.5,2.2A.44.44,0,0,0,.84,134.23Z"/><path class="cls-2" d="M1.76,130.24a1.5,1.5,0,0,1,1.49-.93.65.65,0,0,0,.63-.61c.11-1.19-2.56-1-3.41,1A.7.7,0,1,0,1.76,130.24Z"/><path class="cls-2" d="M7.43,130.41c2.33-2.1,4.84-1.87,7.26-1.65,4.38.4,5.19-.07,8.15-1.83,5.58-3.34,8.54-3.94,10.21,2.36a3.13,3.13,0,0,1,.68-.24c-.3-2.29-1.15-4.54-3.18-5.6-2.79-1.45-5.69.46-7.21,1.42-3.74,2.36-5.42,2.55-8.44,2.32s-5.71,0-8.17,2.12C6.12,129.85,6.8,131,7.43,130.41Z"/><path class="cls-2" d="M18.46,129.6a.56.56,0,0,0-.39.53c0,1.23,3.73.82,6.05-1.07a.5.5,0,0,0-.53-.83c-3.18,1.37-3.41,1.05-3.69,1.12v0A4.47,4.47,0,0,0,18.46,129.6Z"/><path class="cls-2" d="M30.56,136.88c.66.1,1.43-1,1.08-2.12s-1.82-2-2.54-1.12a.56.56,0,0,0-.13.5c.19.8,1.62.36,1.17,1.65C30,136.29,30,136.79,30.56,136.88Z"/><path class="cls-2" d="M33.56,137c3,2.39,9.84,2.7,14.93,12.7.2.39.36.32.64.29.42-1.13-2.33-6.61-7.08-10.11-4.15-3.06-9.38-3.34-9.1-8,0-.68-.63-.94-1.08,0S31.14,135.05,33.56,137Z"/><path class="cls-2" d="M49.45,149.76c-.51.32.1.67,1,3.51-.24-.47-.25-.47-1.87-3.23,1.13,3.6,2.32,6.27.5,11.12.56,0,1.11.15,1.5-1,.38.26,1,0,1.13-1.59.42.79,1.82.56.82-3.4.37.59,1.69,0-.13-3.43-.77-1.46-2-2.61-2.34-2.59h-.2c-.13.24-.23.38,0,.64a10,10,0,0,1,2,3.51,12.43,12.43,0,0,0-2-3.42A.39.39,0,0,0,49.45,149.76Z"/><path class="cls-2" d="M56.23,199.82C52,203,48,207.58,48.38,208.38a.72.72,0,0,0,1.17.2c.44-.43,1-.79,1.49-1.29,4.49-4.58,9.42-9.38,15.9-11.07,3.89-1,4.45-.42,7-.34a.91.91,0,0,0,.65-.29,3.35,3.35,0,0,1,.26-.42,1,1,0,0,0,0-.17l0,.07L75,195l-.06-.11-.16-.26h0C73.91,193.13,65.05,193.21,56.23,199.82Z"/><path class="cls-2" d="M144.65,133.85a61.48,61.48,0,0,1-5.63,9.07,54.82,54.82,0,0,1-13.53,13,50.49,50.49,0,0,1-8.2,4.47c-.5.22-1,.43-1.52.63a22.44,22.44,0,0,0-1.29-2.75c-10.14-8.68-26.08-9.12-35.09-18,2.15-2,3.92-2.68,6.57-3.65.83-.3,1.13-.35,1.14-.67a.38.38,0,0,0-.23-.36c-.51-.24-4.49,0-8.56,3.54a21.75,21.75,0,0,1-4.82-9.19.82.82,0,0,0-.14-.28,5.74,5.74,0,0,1,1.26-.39.59.59,0,0,0-.09-1.16c-.2,0-.41,0-.64,0-7.33-.66-13.65,6-13.38,13.92a23.1,23.1,0,0,0-5.75.72c-7.62,2-5.16,3.28-4.63,3.13,1.44-.41,1.83-1,4.94-1.84.1,2.82,3,16.17,10.55,28.44a52.24,52.24,0,0,1-29-6.54c-10.41-8.6-8.79-25.24-18.3-27.67-5-1.27-12-6.11-17.86-2.75h0a.51.51,0,0,0-.23.58.53.53,0,0,0,.51.4c5.35-.13,5.73,0,15.5,3.82s4.85,6.21,14.59,23.28C35,170.81,52.41,176.19,66.53,175l-.13-.26.63-.06a58.46,58.46,0,0,0,4.88,6.31c-1.17,4.91-.35,12,1.27,12.35,2.64.6-.43-3.58.44-10.54a49.7,49.7,0,0,0,25.24,14.08l.93-2C79,191.07,64.5,172.65,58.27,152.19c-1.38-4.54-1.74-6.89-2.3-8.42a21.67,21.67,0,0,1,4.65-.48,2,2,0,0,0,3,1.15c.47-.43.45-1.16.43-2.16a11.68,11.68,0,0,1,4-9.53,14.6,14.6,0,0,1,4-2.51,10.79,10.79,0,0,0,.65,3.94,20.45,20.45,0,0,0,4.08,6.51,4.22,4.22,0,0,0-1.35,2.4.69.69,0,0,0,.33.6c.73.44,1.45-.91,2.18-1.82C89,152.36,104,150.2,115.5,161.09q-1.34.51-2.7,1c-.75.24-1.51.43-2.26.68a6.38,6.38,0,0,0-2.22,1,1,1,0,0,0,.26,1.63c-.29,1.33-.43,2.69-.65,4-.27,1.57-.5,3.16-.9,4.7-.34,1.34-.82,2.65-1.19,4s-.74,2.67-1.15,4c-.83,2.66-1.67,5.3-2.64,7.92A98.35,98.35,0,0,1,95,205.13c-.65,1.14,1.06,2.27,1.72,1.12q2.4-4.17,4.39-8.56a85.62,85.62,0,0,0,5.61-16.13c.32-1.39.65-2.78.83-4.19s.32-2.82.53-4.21.39-2.82.54-4.24a29,29,0,0,0,.23-3.48,6.4,6.4,0,0,0,2.84-.29c.92-.24,1.83-.54,2.73-.86a51.6,51.6,0,0,0,5-2,53.07,53.07,0,0,0,15.92-11.57,44.58,44.58,0,0,0,10-16.56A.36.36,0,0,0,144.65,133.85Z"/><path class="cls-2" d="M35.5,81.65c-3.94-.26-5.37-.26-7.39,1.61-.4.37.17.95.59.61,1.12-.93,3.37-.83,11-.1a37,37,0,0,0,16.91,2.78,1,1,0,1,0-.19-1.93C53.2,83.48,42.86,82.33,39.47,82A32.11,32.11,0,0,1,26.31,72.5c-1-1.31-3.75-4.52-1.93-5.53.78-.43,2,.38,2.89,1,7.22,4.82,24.67,11.31,25.6,10a59.83,59.83,0,0,0,17.85,2.87c1.9,0,3.8-.3,5.67-.45,1-.07.9-1.54-.06-1.47a48.43,48.43,0,0,1-5.91-.11A60.2,60.2,0,0,1,44.48,72c-6.84-3.6-8.88-6.4-9.9-7.65a9.73,9.73,0,0,1-2.36-4c2.8,1.1,2.58,1.55,6.17,2.73V63a1,1,0,0,0,.88-.68c.5-1.39-1.51-1.1-6.37-4.88-2.4-1.86-8.4-6.91-6-8.83.81-.65,2-.07,3.72.84,2,1.07,9.61,4.59,19.12,10C55,65.15,62.62,70,71.91,73.56a.63.63,0,0,0,.59-1.12c-8.08-5.37-13.91-9.22-22.44-14.15-4.13-4.63-7.56-11.13-7.53-17.19C64.39,61.25,74.12,64.25,82.46,71.21c4.67,3.9,7.49,8.18,10.89,13.31,5.17,7.78,10.51,15.82,19.91,18.44a.83.83,0,0,0,1-.6.9.9,0,0,0-.62-1.14c-5.2-1.46-10-5.26-14.66-11.62-9-12.22-8.39-16.12-25.11-27-2.64-1.71-5.36-3.39-8-5.19-9.16-6.32-16-12.63-23.64-18.73a.81.81,0,0,0-1.34.62,33.22,33.22,0,0,0,2.32,10.1,33.47,33.47,0,0,0,4.3,7.45c-6-3.38-11.88-6.45-17.6-9.14a4.22,4.22,0,0,0-3.06-.53,2.76,2.76,0,0,0-1.76,1.85c-.66,2.11.92,4.22,2.08,5.76A19.87,19.87,0,0,0,31.07,59a.54.54,0,0,0-.16.42,18.36,18.36,0,0,0,1.37,5.1,13.46,13.46,0,0,0,3.31,4.2,34.51,34.51,0,0,0,8,5.36,111.65,111.65,0,0,1-16.09-7.7,4.5,4.5,0,0,0-3.18-.94,2.53,2.53,0,0,0-1.91,2.12C22,69.86,24.11,72,25.56,73.54A41.29,41.29,0,0,0,35.5,81.65Zm30.84-12a53.27,53.27,0,0,1-13.09-8.21C58,64.26,62.36,67,66.34,69.66Z"/><path class="cls-2" d="M28.09,85a0,0,0,1,0,0-.06C28,85,28.05,85,28.09,85Z"/><path class="cls-2" d="M28.36,85a.28.28,0,0,0-.27-.27H28l-.15.16V85a.27.27,0,0,0,.27.27h.11l.15-.16Zm-.12.13a.2.2,0,0,1-.36-.13.21.21,0,0,1,.21-.21A.2.2,0,0,1,28.24,85.13Z"/><path class="cls-2" d="M31.18,87.74a.32.32,0,0,0,.14-.61,6.21,6.21,0,0,1-2.54-1.87.31.31,0,0,0-.5.36A5.09,5.09,0,0,0,31.18,87.74Z"/><path class="cls-2" d="M119.75,129c4.32,4.94,12.22-4.9,10.4-13.26a.71.71,0,0,0-.82-.55.65.65,0,0,0-.49.88c1.25,8.9-6.13,15.43-8.07,10.75a13.12,13.12,0,0,0,.8-4.15c0-.44.06-.91.11-1.36a.63.63,0,0,0-.44-.71.69.69,0,0,0-.83.33c-1,1.87-2.11,4-1.62,6.16-2.31,4.14-5.13,4.6-5.94,2.57-.58-1.48.21-3.17.85-4.53.46-1-1-1.92-1.65-1a1.74,1.74,0,0,1-.11.18c-.2.24-2.64,4.47-6.86,5.82a20.25,20.25,0,0,0,5-10,7.17,7.17,0,0,0,4.62-2.06,3.12,3.12,0,0,0,3,2.13c2.85-.08,5.92-4.18,5.91-6.57a.3.3,0,0,0-.19-.28c-.23-.1-.42,0-1.7,1.66-1,1.31-3.09,3.89-4.57,3.12a1.83,1.83,0,0,1-.65-2.2,10.83,10.83,0,0,0,.9-1.76.93.93,0,0,0-1.64-.86,9.18,9.18,0,0,1-4.12,4.27c-1.55.78-2.71.48-2.74-.53a5.89,5.89,0,0,0,1.54-2.68.83.83,0,0,0-1.53-.58,9.87,9.87,0,0,1-1.91,2.43,5.91,5.91,0,0,1-5.81,1.06c-1.19-.4-2.48-.76-2.52-2.51a3.91,3.91,0,0,0,.53-.77c.34-.62-.35-.87-1-.55-1,.51-2.09,1.07-3.16,1.5-1.42.57-4.25,1.46-5.33.37a1.57,1.57,0,0,1-.42-1.23c0-1.15,1-2.09,1.82-2.93l.13-.13a.91.91,0,0,0,0-1.32,1,1,0,0,0-1.47-.09c-2,1.71-4.69,3.4-6.65,1.78s-.92-4-.53-4.81a4.4,4.4,0,0,0,1.29-1.94.83.83,0,0,0-.39-1,.92.92,0,0,0-1.15.14,12.09,12.09,0,0,0-1.18,1.5,6.91,6.91,0,0,1-5,.06c-2.47-1-2.38-3.58-1-4.18,1-.46.29-2.14-.75-1.75a3,3,0,0,0-.57.27,13.48,13.48,0,0,1-3.65-.06,9.21,9.21,0,0,1-3.56-1.46c-2.53-1.78-2.19-3.92-.93-4.52.42,0,.84,0,1.25-.06a1,1,0,0,0,.19-2,3.42,3.42,0,0,0-1.46,0c-5.07-.32-5.75-4.65-3.79-6a7.72,7.72,0,0,1,3.6-1c.24,0,.76,0,.8-.56a.54.54,0,0,0-.42-.57c-5.72-1.5-7.65,2.09-7.3,4.92.29,2.43,2,4.21,4.74,4.92-1.87,3.3,1.54,8.56,8.9,8.31-1.49,4,3.08,7.27,7.91,6.16-1,4.46,2.94,7.63,7.35,5.88,0,.13,0,.26,0,.39-.15,2.62,2.05,5.06,7.66,2.9a14,14,0,0,0,2-.95,3.52,3.52,0,0,0,1.76,2.53,47.58,47.58,0,0,1-2.8,4.1c-1.26,1.66-2.74,3.2-4,4.91-.33.46.31,1.07.77.73,3.12-2.33,6.61-8,7.19-9.15a8.32,8.32,0,0,0,7.42-.94,2.57,2.57,0,0,0,1,1.41,36.56,36.56,0,0,1-4.24,10,.51.51,0,0,0,.28.73c-2.43.57-4.14-.92-4.13-2.36.25-.32.5-.66.73-1,.58-.8,1.08-1.22.67-1.83-.69-1-2.73.06-3.2,2.19-3.28,2.86-8.83,4.4-9.52,1-.34-1.66.61-3.29,1.41-4.7.61-1.09-1-2-1.79-1.11-2,2.57-4.57,5.11-7.66,4.43a3.08,3.08,0,0,1-2.48-2.11c-.3-1.29.43-2.66,1.1-3.71.19-.27.37-.55.55-.83a1.18,1.18,0,0,0-.36-1.61,1,1,0,0,0-1.38.26c-.26.37-.57.81-.85,1.25-6.16,8.22-14.13,2.67-11.15-2.09A21.64,21.64,0,0,0,71,115.28a.93.93,0,0,0-.86-1.61,10.71,10.71,0,0,0-4.53,2.47,4,4,0,0,0-1.25,1C57,120.07,51.8,118.81,56.58,114a25.2,25.2,0,0,0,8.16-2.71,1,1,0,0,0-.25-1.94A11.57,11.57,0,0,0,55.81,112a24.24,24.24,0,0,1-6.59.2,3.45,3.45,0,0,1-2.2-.7c-1.62-1.49.49-4.11,2.34-5.36a29.35,29.35,0,0,0,8.89-1.93,1,1,0,0,0-.22-2,12.06,12.06,0,0,0-8.62,1.93c-6.29.56-12.36-1.06-14.11-2.67a1.58,1.58,0,0,1,.18-2.69C37,97.81,41.32,97.15,43,97a37.91,37.91,0,0,0,11.18.32.77.77,0,0,0,0-1.53,42.38,42.38,0,0,0-12.4-.12,36.25,36.25,0,0,1-10.42-3.3.36.36,0,0,0-.31.66,44.77,44.77,0,0,0,8,3.08c-2.29.43-4.8,1-5.73,2.79-2.52,4.85,8,7.2,13.61,7.34-2.85,3.06-2.47,6.36,1.67,7.64a14.28,14.28,0,0,0,3.91.39l1.39,0a3.61,3.61,0,0,0-.71,2.31c.46,4,6.3,3.86,10.16,2.79-1.4,6.64,6.66,10.46,12.87,5.61.48,3.79,5.7,6.38,10.58,2.61-.27,5.43,6.34,6.65,11.94,2.08,1.17,2.86,6.37,4.32,11.67-1.15C110.18,132.92,115.81,136,119.75,129Z"/><path class="cls-2" d="M79.85,79.24a18.32,18.32,0,0,0,2.63,3.07,2.11,2.11,0,0,0-.68,2.9A10.78,10.78,0,0,0,85.94,89c-2.12,2.63,1.56,6.36,6.1,6.55a3.3,3.3,0,0,0,.4,3.46c2,2.58,6.3,2.31,9,.44a.57.57,0,0,0-.34-1c-1.27.13-2.45.67-3.67.76-2.66.18-4.19-1.48-4.06-2.77a2.06,2.06,0,0,1,.38-1A7.53,7.53,0,0,0,95.47,95c.85-.34.8-2.16-1.49-1.24a8.1,8.1,0,0,1-4.41-.69c-3.35-1.6-2.25-3.37-1.58-3.12l.14,0a.87.87,0,0,0,1.09-.57.88.88,0,0,0-.39-1.14h0a10.67,10.67,0,0,1-4.26-2.55c-.32-.32-1.47-1.36-1.25-1.83.3-.64,1.55.35,2,.61.84.54,1.8-.79,1-1.39a8.55,8.55,0,0,0-.78-.53c-1.17-.84-2.06-2.1-3.23-2.89a2.12,2.12,0,0,1-1.07-2.78c.31-1.09-1.13-1.62-2-.67h0l0,0C78.44,77.17,79.34,78.5,79.85,79.24Z"/><path class="cls-2" d="M115.65,110.9c1.67-3.87-.21-5.3-.57-4.41-.58,1.47.49,2.7-2.18,5.73-1.1,1.25-1.17,1.39-1,1.66C112.25,114.48,114.43,113.76,115.65,110.9Z"/><path class="cls-2" d="M110.92,107.15c.26-.69-.75-1.19-1-.49a21,21,0,0,1-5.94,7.67.42.42,0,0,0,.3.73C104.56,115.06,108.68,112.94,110.92,107.15Z"/><path class="cls-2" d="M95,110.42c-1.53.76-2,1-1.82,1.53a.45.45,0,0,0,.5.3c4.52-.63,10.84-7.87,9.51-8.66-.51-.3-1.46,1.08-1.79,1.54A17.14,17.14,0,0,1,95,110.42Z"/><path class="cls-2" d="M78.27,95.6A7,7,0,0,0,82.35,92a.5.5,0,0,0-.87-.48h0A13.2,13.2,0,0,1,78,95,.35.35,0,0,0,78.27,95.6Z"/><path class="cls-2" d="M78.13,91.81a7,7,0,0,1-3.52,2.89c-.32.13-2.25.36-2.43,1.07-.44,1.64,4.59.73,6.62-3.6A.38.38,0,0,0,78.13,91.81Z"/><path class="cls-2" d="M71.49,93.86c-.71.35-1.73.65-2.15,1.47a.57.57,0,0,0,.51.83c1,0,1-.38,4.65-2.82a.5.5,0,0,0,.15-.68C74.25,92,73.67,92.79,71.49,93.86Z"/><path class="cls-2" d="M50.2,65.54c-4-2.3-7.7-5-11.55-7.46a.52.52,0,0,0-.61.84c6,5.26,20.37,13.22,31.44,16.3A.35.35,0,0,0,69.9,75c.12-.37-.26-.45-.56-.57A126.33,126.33,0,0,1,50.2,65.54Z"/><path class="cls-2" d="M59.83,48.57c-1.2-3-3-6-3.29-9.25A8.22,8.22,0,0,1,58.4,33C60.59,38,59.08,43.52,80,62.84c6,5.5,6.71,6.45,9.37,10.14,1.12,1.55,2.3,3.23,3.34,4.94h0a.35.35,0,0,0,.61-.35c-2.67-5.06-4.94-7-7.68-10.22C76.36,56.53,69.69,53.11,63.21,42c-1.34-2.3-3.43-6.16-3.69-9,0-.46,0-.93-.05-1.43a.75.75,0,0,0-1.12-.59C54,33.7,51.9,40.8,58.53,49.2,59,49.81,60.16,49.39,59.83,48.57Z"/><path class="cls-2" d="M212.4,118.67l.11.21h0l-.1-.21h0c.57-.27-.37-1.41-.2-2.65.26-1.93,2.16-1.82,2.23-2.67a.94.94,0,0,1,1.81-.33c.37.67.12,1.88-1.44,2.73-.69.39-.72.48-.5,1.32.58,2.15.25,2.8-1.57,4a1.12,1.12,0,0,1-1.73-.59C210.67,119.5,211.89,118.92,212.4,118.67Z"/><path class="cls-2" d="M192.47,122.71c-2.57,0-3.71,1-7.3,1.74-4.65,1-10.1,3.34-19.27,1.65-1.27,0-2.49-1.24-6.68.19-3.18,1.08-9.43,2.21-13.53.78-5.84-2-10.11-.36-11-.46-1.38-.17-2-2.2,2.17-3.48,2.65-.82,5.26-.17,7.79.46,3.72.92,6.2,1.37,13.87-.17a19.32,19.32,0,0,1,5-.61,60,60,0,0,0,15,.23c4.2-.59,6.23-1.4,11-1.91,1.62-.17,3-1.1,4.78-1a23.7,23.7,0,0,1,4.38.83,22.15,22.15,0,0,0,9.27.28,2.87,2.87,0,0,1,1.83-.2c1,.47.81,1.48,0,2.12a5.77,5.77,0,0,1-3.09.62C200.77,123.86,200.58,122.83,192.47,122.71Z"/><path class="cls-2" d="M216.45,101A2.56,2.56,0,0,0,214,99.78a9.84,9.84,0,0,0-2.53,1.27c-.88.49-1.75,1-2.65,1.45a6.22,6.22,0,0,1-2.55.59,9.57,9.57,0,0,0-8,5,1.1,1.1,0,0,0,1.74,1.3l.06,0a6.62,6.62,0,0,1,2.17-2.61c2.3-1.63,5.13-1.68,7.71-2.59a15.53,15.53,0,0,0,2.38-1.09c.49-.26,1-.47,1.47-.75.2-.12.4-.35.62-.29s.44.47.55.61a6.94,6.94,0,0,1,1.39,3.06,3.88,3.88,0,0,1-1.06,3.07c-.48.39-2.47.83-2.66,1.73-.14.64.75,1.54,2.3,1.11,2.07-.59,2.93-2.43,3.54-4.3C219.14,105.28,217.74,102.58,216.45,101Z"/><path class="cls-2" d="M200.09,99.38a10.2,10.2,0,0,0-.48,1.19A5.86,5.86,0,0,1,198,102.2c-1.22,1-2.63,1.86-3.13,3.42a6.41,6.41,0,0,0-.24,2.5,1.05,1.05,0,0,0,.53,1.06,1.13,1.13,0,0,0,1.67-1.2c-.75-3.42,2.95-3.77,4.39-5.92C202.77,99.66,200.89,98.23,200.09,99.38Z"/></g></g></g></svg>