<svg xmlns="http://www.w3.org/2000/svg" viewBox="0 0 37.08 109.28"><defs><style>.cls-1,.cls-2{fill:#fff;}.cls-1{fill-rule:evenodd;}</style></defs><g id="圖層_2" data-name="圖層 2"><g id="圖層_1-2" data-name="圖層 1"><path class="cls-1" d="M12.17,12.79c0-1.28,0-2.27,0-3.25a19.48,19.48,0,0,1,.43-4.45,1,1,0,0,0-.19-.87,3,3,0,0,1-.39-2A1.38,1.38,0,0,1,13.15.74,9.41,9.41,0,0,1,15.47.1a13.63,13.63,0,0,1,2.39,0A37.89,37.89,0,0,0,22.12,0c.63,0,1.24.07,1.86.09S25,.82,25.1,1.4A4.55,4.55,0,0,1,25,3.66a1.33,1.33,0,0,0-.1.72,11.92,11.92,0,0,1,.2,3.42A33.49,33.49,0,0,1,25,11.68,12.9,12.9,0,0,0,24.89,14c.16,2,.08,3.93.12,5.89a23.7,23.7,0,0,0,1.08,6.9A12,12,0,0,0,27.64,30a36.52,36.52,0,0,0,3.76,4.75,15.25,15.25,0,0,1,4.07,8.21c.24,1.45.36,2.92.56,4.38.24,1.73.31,3.48.42,5.23.26,3.83,0,7.66.17,11.48.19,4,0,8,.14,12,.07,2.28.2,4.56.29,6.84a43.44,43.44,0,0,1-.12,5.35,16.33,16.33,0,0,0-.08,2.21c.1,2.78-.09,5.56-.06,8.33a16,16,0,0,1-.78,4.84,4.51,4.51,0,0,1-2.47,2.86,24.14,24.14,0,0,1-7.21,2.15l-.27,0c-2.57.59-5.18.38-7.76.6a35.33,35.33,0,0,1-5.15-.19,29.14,29.14,0,0,1-4.36-1,12.25,12.25,0,0,1-4.9-2.36,8.72,8.72,0,0,1-3.31-5.29,5.65,5.65,0,0,1-.13-1.36c0-2.13-.06-4.27-.1-6.4,0-1.71,0-3.44,0-5.15,0-3.23-.19-6.46-.27-9.69-.07-2.73-.15-5.46,0-8.2.11-2.45,0-4.92,0-7.38,0-2.28.18-4.55.35-6.83a8.92,8.92,0,0,0,0-1.79,27.61,27.61,0,0,1-.07-3.15A20.65,20.65,0,0,1,.25,48,18.46,18.46,0,0,1,4.08,38a25.44,25.44,0,0,1,2.06-2.32,14.35,14.35,0,0,0,2.51-3.53,23.06,23.06,0,0,0,2.12-4.84,25.7,25.7,0,0,0,.88-4.94c.15-1.71.28-3.42.44-5.13S12.12,14.07,12.17,12.79ZM35,61.28c0-3.06.06-5.34-.08-7.62-.1-1.75-.12-3.51-.32-5.25-.15-1.28-.42-2.55-.52-3.83a17.33,17.33,0,0,0-1.59-5.65.9.9,0,0,0-1.11-.6c-.47.1-.94.13-1.41.2a20.93,20.93,0,0,0-5.8,1.54,8.2,8.2,0,0,1-6.52.48c-.54-.19-1.1-.32-1.63-.52a6.13,6.13,0,0,0-4-.14,15,15,0,0,1-2.89.51,5.14,5.14,0,0,1-3.5-.86c-.29-.19-.46-.19-.68.09a17.31,17.31,0,0,0-1.36,2.08,15.75,15.75,0,0,0-1.12,3.2,13.46,13.46,0,0,0-.63,5.47A71,71,0,0,1,1.61,61.1q-.13,3,0,6c0,.84.09,1.69,0,2.52-.09,1.29-.13,2.59-.12,3.88,0,1,.13,2,.11,2.95-.05,2.52.07,5.05.13,7.57.05,2,.07,4,.08,6s0,4.29.17,6.42c.06.88-.13,1.74,0,2.61a7.71,7.71,0,0,0,3.67,5.83A11.5,11.5,0,0,0,9,106.2a27,27,0,0,0,5.61,1.06c1.15,0,2.29.18,3.46.07,1.41-.13,2.83-.12,4.25-.19a16.83,16.83,0,0,0,2.56-.14c1.43-.3,2.87-.57,4.28-1a19.86,19.86,0,0,0,4.62-1.83,1.55,1.55,0,0,0,.73-1,16.18,16.18,0,0,0,.67-4.44c0-2.21,0-4.42,0-6.64,0-1.72.14-3.43.18-5.15.06-2.87,0-5.76-.06-8.63a2.22,2.22,0,0,0-.07-.63A7,7,0,0,1,35.09,76c0-2.91,0-5.82,0-8.73C35.09,65,35,62.75,35,61.28ZM30.8,36.56a2.6,2.6,0,0,0-.75-1A20.33,20.33,0,0,1,26.47,31a15.82,15.82,0,0,1-2.07-4.39c-.25-.9-.25-.9-1-.73a13.15,13.15,0,0,1-5.92,0,32.65,32.65,0,0,1-4.58-1.34,24.49,24.49,0,0,1-6.8,13.51,4.27,4.27,0,0,0,2.39.64,16.64,16.64,0,0,0,4.11-.76,3.82,3.82,0,0,1,2.11-.14c.86.27,1.74.45,2.59.77a7,7,0,0,0,5.82,0,19.1,19.1,0,0,1,4.27-1.41C28.46,36.88,29.58,36.85,30.8,36.56ZM13.7,12.09a2,2,0,0,0-.1.85c-.07,1.75,0,3.5-.12,5.26-.12,1.28-.27,2.57-.29,3.87,0,.57.11.83.63,1a43.35,43.35,0,0,0,4.43,1.09,11.24,11.24,0,0,0,4.93-.08c.55-.13.62-.25.51-.95a21,21,0,0,1-.25-2.61c0-2.28,0-4.56-.07-6.84,0-.87-.05-.91-.77-.69a11,11,0,0,1-4.5.13,16.18,16.18,0,0,1-4.07-1A1,1,0,0,0,13.7,12.09ZM16.42,1.62a10.94,10.94,0,0,0-2.14.12c-.95.17-1.16.55-.95,1.63.12.63.62,1,.8,1.62,0,.07.21.11.32.1A10.61,10.61,0,0,0,17,5a5.92,5.92,0,0,1,2.54.29.56.56,0,0,1,.42.6.82.82,0,0,1-.46.83,1.12,1.12,0,0,1-.7.06c-1.55-.39-3.13.06-4.68-.18-.22,0-.44,0-.4.39.09.85-.16,1.67-.15,2.51s0,1,.78,1.21a24,24,0,0,0,4.74.83,6.73,6.73,0,0,0,3.77-.42.85.85,0,0,0,.6-.86,23,23,0,0,0,0-5.31,2.29,2.29,0,0,1,0-.94c.1-.4.18-.81.26-1.22.15-.75,0-.9-.6-1a11.54,11.54,0,0,0-1.95,0C19.61,1.68,18,1.79,16.42,1.62Z"/><path class="cls-1" d="M33.1,58.13c0,1.49-.05,3.55,0,5.61,0,1.37.08,2.74.06,4.11,0,2.59.12,5.19-.13,7.78a10.78,10.78,0,0,0,.08,2.2c.22,1.92,0,3.85.1,5.78.08,1.61.17,3.22.21,4.83a21.89,21.89,0,0,1,0,4.72,2.6,2.6,0,0,0,.08.82A2.22,2.22,0,0,1,33,95.87a6.13,6.13,0,0,1-3.34,2.27,29.3,29.3,0,0,1-4.59,1.22c-1.8.21-3.6.24-5.4.29a41,41,0,0,1-6.91-.48,8.18,8.18,0,0,1-1.48-.35c-1.81-.56-3.65-.94-5.42-1.66-.44-.19-.88-.41-1.32-.6a.8.8,0,0,1-.47-.7,20.56,20.56,0,0,1-.35-3.43c0-2.32-.14-4.63-.13-6.94s.11-4.7.07-7c0-3,0-6-.18-9,0-.55.11-1.12.09-1.68-.17-3.68,0-7.37-.11-11.06,0-2,0-4,.09-6,0-1,.47-1.35,1.27-1a18.12,18.12,0,0,0,5,1.54c1.2.2,2.39.54,3.59.71a36,36,0,0,0,5.87.13,44.53,44.53,0,0,0,7-.71c1.87-.32,3.73-.71,5.59-1.15.72-.17.79-.11,1,.73a4.25,4.25,0,0,1,.17.92A45.44,45.44,0,0,1,33.1,58.13ZM5,51.76a1.64,1.64,0,0,0-.07.44A39.54,39.54,0,0,1,5,56.82c.15,3.78.12,7.58.17,11.37,0,3.37.11,6.73.14,10.09,0,1.83,0,3.66,0,5.49,0,.74-.15,1.47-.11,2.21.13,2.12.14,4.25.17,6.38a16.06,16.06,0,0,0,.15,2.3c.1.59.33.89.86,1,1.25.27,2.48.64,3.73,1a33.94,33.94,0,0,0,4.1.86,56.9,56.9,0,0,0,9.23.19A18.06,18.06,0,0,0,29,96.42,11,11,0,0,0,31,95.69a1.67,1.67,0,0,0,1-2,2.23,2.23,0,0,1,0-.63,25.25,25.25,0,0,0-.12-4.52c-.24-2.55-.23-5.12-.31-7.68,0-.58.06-1.17,0-1.77a15.74,15.74,0,0,1-.15-3.36,25.83,25.83,0,0,0,.1-3c0-3.82-.13-7.65,0-11.47.06-2.35,0-4.71.16-7.05,0-.42-.05-.85-.05-1.27s-.11-.73-.57-.55a28.58,28.58,0,0,1-4.54,1A32.81,32.81,0,0,1,21.3,54c-2,.09-4.08,0-6.13,0a30,30,0,0,1-8.66-1.64C6,52.21,5.51,52,5,51.76Z"/><path class="cls-1" d="M14.38,32.46a.35.35,0,0,0-.32-.27.5.5,0,0,1-.45-.63c.06-.49.3-.81.66-.78.93.07,1.39.68,1.19,1.72a4.46,4.46,0,0,1-.18.72c-.16.44-.42.69-.85.66a2.25,2.25,0,0,1-1.22-.24.79.79,0,0,1-.35-1c.1-.35.25-.55.58-.31A.79.79,0,0,0,14.38,32.46Z"/><path class="cls-1" d="M21.53,34.69c0-.3-.08-.57-.08-.84a.7.7,0,0,1,.3-.62c.23-.12.4,0,.57.2a1.86,1.86,0,0,1-.18,2.4,1.61,1.61,0,0,1-2.21-.4,1.56,1.56,0,0,1-.21-1A.66.66,0,0,1,20,33.9c.19-.12.33.11.44.27A1,1,0,0,0,21.53,34.69Z"/><path class="cls-1" d="M17.56,46c.82,0,1,.19,1.18.9.21,1,.11,1.52-.34,1.86a1.68,1.68,0,0,1-1.92-.19.64.64,0,0,1-.18-.67c.09-.3.28-.3.51-.24a5.26,5.26,0,0,0,.78.12.19.19,0,0,0,.23-.18.28.28,0,0,0-.17-.28.88.88,0,0,0-.23-.07.56.56,0,0,1-.48-.7.56.56,0,0,1,.63-.55Z"/><path class="cls-1" d="M20.1,41.13c.35.09.7-.22.82.3a.94.94,0,0,1-.44,1c-.55.4-1,.09-1.43-.28a1.86,1.86,0,0,1-.43-1.52.89.89,0,0,1,.52-.64,7.54,7.54,0,0,1,.74-.29c.48-.16.76,0,.86.46S20.67,40.92,20.1,41.13Z"/><path class="cls-1" d="M10.74,39.48a1.19,1.19,0,0,1-1.07-1.59c.11-.29.29-.48.54-.19.4.45.75.4,1.16,0a1.79,1.79,0,0,1,1.27-.61c.26,0,.49,0,.55.37s0,.83-.26.89a6.46,6.46,0,0,0-1.88,1.05A1.18,1.18,0,0,1,10.74,39.48Z"/><path class="cls-1" d="M27.36,46.35c-.12.64-.16,1.29-.73,1.59a1.26,1.26,0,0,1-1.52-.36,1,1,0,0,1-.25-.67c0-.37.22-.54.52-.43s.29.15.44.19c.41.11.53,0,.59-.52,0-.13,0-.25,0-.37s.19-.4.38-.42.34.13.4.37S27.32,46.16,27.36,46.35Z"/><path class="cls-1" d="M15.36,37.52a2.92,2.92,0,0,1,.27-1.18.61.61,0,0,1,.94-.3,1.65,1.65,0,0,1,.61,1.35,1.11,1.11,0,0,1-.64,1.08C15.81,38.86,15.36,38.51,15.36,37.52Zm.87.47c.32-.43.4-.74,0-1.06A1.47,1.47,0,0,0,16.23,38Z"/><path class="cls-1" d="M9.79,43.47c.36.27.59.46.84.63a.45.45,0,0,0,.59-.06c.21-.19.12-.44,0-.67a.68.68,0,0,1-.12-.24c-.09-.4.08-.87.35-.93a.6.6,0,0,1,.66.52A2.37,2.37,0,0,1,12,44.36a1,1,0,0,1-1.8.22A2,2,0,0,1,9.79,43.47Z"/><path class="cls-1" d="M13.06,48.27a.82.82,0,0,1-.71-.3,9.13,9.13,0,0,1-.71-1c-.12-.19-.25-.48-.07-.68a.48.48,0,0,1,.72,0,5.2,5.2,0,0,0,1.35,1.22.3.3,0,0,1,0,.52A3.12,3.12,0,0,1,13.06,48.27Z"/><path class="cls-1" d="M15.94,101.14c0-.3-.26-.24-.41-.33a.86.86,0,0,1-.39-1,.58.58,0,0,1,.87-.3,2.31,2.31,0,0,1,.64,2.78c-.22.41-.63.37-1,.45-1.17.29-1.62-.92-1.31-2,.06-.19.11-.36.28-.39s.3.19.38.38C15.3,101.45,15.29,101.45,15.94,101.14Z"/><path class="cls-1" d="M26.15,104.88c-.49-.06-.87,0-1.13-.42-.11-.18-.25-.35-.18-.59s.25-.29.44-.29a2.36,2.36,0,0,1,.46,0c.59.11.87-.48,1.27-.78.14-.1.06-.27,0-.43a3.44,3.44,0,0,1,0-.64c0-.23.1-.44.32-.47s.27.15.35.32.17.45.28.67a1.5,1.5,0,0,1,0,1.26A3,3,0,0,1,26.15,104.88Z"/><path class="cls-1" d="M31,96a.58.58,0,0,0,0-.18c-.13-.4-.38-.84.06-1.16s1.14.39,1.27.84a1.76,1.76,0,0,1-.69,1.81,1,1,0,0,1-1.58-.64c-.18-.45-.08-.66.32-.64a2.84,2.84,0,0,1,.31.06A.28.28,0,0,0,31,96Z"/><path class="cls-1" d="M12.92,104a1.33,1.33,0,0,1-.61,1.3,4.29,4.29,0,0,1-.79.36c-.56.18-.82,0-1-.69s0-.69.44-.53a1.26,1.26,0,0,0,1-.29c.23-.13.19-.41.15-.66a1.75,1.75,0,0,1-.09-.82c0-.15.1-.29.24-.33s.24.08.32.21A4,4,0,0,1,12.92,104Z"/><path class="cls-1" d="M24.72,98a1.07,1.07,0,0,0,.05-.16c0-.37-.09-.86.29-1s.51.47.62.81c.34,1-.12,1.7-1.05,1.6s-1.22-.42-1.26-1.18c0-.19,0-.38.13-.5a.25.25,0,0,1,.41.09C24.12,98,24.41,97.94,24.72,98Z"/><path class="cls-1" d="M10,98.31c0,.12,0,.18,0,.24,0,.8-.29,1.29-.65,1.32a1.52,1.52,0,0,1-1.5-1.23c-.07-.34.09-.39.3-.34a3.24,3.24,0,0,1,.35.21c.59.29.65.23.75-.56,0-.26,0-.65.32-.64s.37.37.42.68C10,98.11,10,98.24,10,98.31Z"/><path class="cls-1" d="M19.43,19.08c0,1-.54,1.76-1.26,1.76a1.22,1.22,0,0,1-.92-1.52c.12-.46.33-.53.6-.19,0,.07.08.17.13.23.26.33.38.32.58-.09a3.07,3.07,0,0,0,.17-.42c.09-.25.22-.43.47-.39S19.43,18.66,19.43,19.08Z"/><path class="cls-1" d="M18.9,14.66c0,.6-.47,1.05-.93.83a1.08,1.08,0,0,1-.68-1c0-.45.22-.63.55-.42s.44.3.72.22S18.88,14.42,18.9,14.66Z"/><g id="Group_1096" data-name="Group 1096"><g id="Group_1090" data-name="Group 1090"><path id="Path_8924" data-name="Path 8924" class="cls-2" d="M21.13,75.21a6.46,6.46,0,0,1-3.18-.9,6.44,6.44,0,1,1,.18-11.19,6.44,6.44,0,1,1,3,12.09ZM18,74.08H18a6.23,6.23,0,1,0,.17-10.75.11.11,0,0,1-.11,0,6.23,6.23,0,1,0-.17,10.75Z"/></g><g id="Group_1091" data-name="Group 1091"><path id="Path_8925" data-name="Path 8925" class="cls-2" d="M13.17,69.91a1.1,1.1,0,0,1-.61.19h-.12v-.53h-.52v.58c0,.09-.29.25-.6.24h-.11L11.28,66l.73.33h.43l.36-.38.7.58a.53.53,0,0,1-.28.14Zm-.71-.54,0-2.87H12l0,2.87Zm4.41.3s.43.4.67.66a.17.17,0,0,1-.19.1l-1.19,0,0,1.33c0,.07-.36.19-.66.19h-.15l0-1.53-2.32,0L13,70.17l2.38,0,0-1.19,1,.12c0,.08-.07.14-.24.17v.91h.31Zm-2.59-.74s-.23.21-.61.2h-.12l0-3.11.81.33h.39c0-.27.13-.65.17-.92l1.11.24a.24.24,0,0,1-.28.16l-.66.53,1.26,0,.36-.38.73.58a.56.56,0,0,1-.26.12l0,2.18a1.1,1.1,0,0,1-.64.2h-.12V68.8l-.91,0c-.26.52-.84,1-2.13,1.23l-.05-.09a2.39,2.39,0,0,0,1.48-1.15h-.54Zm0-2.39,0,.88H15l0-.88Zm.57,2A2.63,2.63,0,0,0,15,67.8v-.17h-.7v.95Zm1.54,0,0-.95h-.73v.16a2.66,2.66,0,0,1-.12.79Zm-.69-2v.88h.72l0-.88Z"/></g><g id="Group_1092" data-name="Group 1092"><path id="Path_8926" data-name="Path 8926" class="cls-2" d="M24.45,66.9s.54.44.87.73c0,.08-.1.11-.21.11l-1.32,0a5.25,5.25,0,0,1-1,2.43c2.81,1.1,1.86,2.16,1.14,1.82a8.35,8.35,0,0,0-1.67-1.3A6.73,6.73,0,0,1,18.78,72l0-.08a6.26,6.26,0,0,0,2.91-1.56,15.15,15.15,0,0,0-2-.88,18.39,18.39,0,0,0,.72-1.78l-1.49,0-.05-.2,1.62,0a19.94,19.94,0,0,0,.62-1.93l1.15.32c0,.07-.08.14-.3.14-.12.36-.32.9-.54,1.49l1.48,0c0-.29.07-.59.09-.89l1.19.27c0,.12-.12.18-.28.17l-.06.47H24Zm-3.12.78c-.24.63-.51,1.29-.75,1.8.55.14,1,.27,1.44.4a4.94,4.94,0,0,0,.85-2.18Z"/></g><g id="Group_1093" data-name="Group 1093"><path id="Path_8927" data-name="Path 8927" class="cls-2" d="M21,76.2a7.2,7.2,0,0,1-3.12-.75,7.3,7.3,0,0,1-3.15.65A7.42,7.42,0,0,1,15,61.27h0a7.35,7.35,0,0,1,3.12.75,7.3,7.3,0,0,1,3.15-.65,7.42,7.42,0,1,1-.23,14.83ZM17.92,75l.1,0a7,7,0,1,0,3.3-13.21h0a7,7,0,0,0-3.06.64.21.21,0,0,1-.19,0,7,7,0,1,0-3.3,13.22h0A7,7,0,0,0,17.83,75,.15.15,0,0,1,17.92,75Z"/></g><g id="Group_1095" data-name="Group 1095"><g id="Group_1094" data-name="Group 1094"><path id="Path_8928" data-name="Path 8928" class="cls-2" d="M13.88,78.53l-.11,0-.12,0-.13-.06-.11-.07a.21.21,0,0,1-.09-.24l.35-1.26a.1.1,0,0,1,.05-.08.19.19,0,0,1,.1,0,1.06,1.06,0,0,1,.25,0l.29.06a1.1,1.1,0,0,1,.5.26.46.46,0,0,1,.09.42.41.41,0,0,1-.13.19.48.48,0,0,1-.23.07.48.48,0,0,1,.19.21.36.36,0,0,1,0,.27.43.43,0,0,1-.31.34A1.17,1.17,0,0,1,13.88,78.53Zm-.07-.44.09,0,.12,0a.41.41,0,0,0,.19,0,.16.16,0,0,0,.11-.12.16.16,0,0,0,0-.15.56.56,0,0,0-.17-.09l-.23-.06Zm.18-.66.2.06a.28.28,0,0,0,.18,0,.16.16,0,0,0,.06-.25.31.31,0,0,0-.17-.09l-.09,0-.09,0Z"/><path id="Path_8929" data-name="Path 8929" class="cls-2" d="M15.47,77.38a.25.25,0,0,1,.26-.23h0l.92.13a.24.24,0,0,1,0,.08.36.36,0,0,1-.06.26.2.2,0,0,1-.13,0l-.59-.08,0,.26.63.09,0,.08v.11a.23.23,0,0,1-.07.14.15.15,0,0,1-.13,0l-.51-.07,0,.29.72.1s0,.06,0,.09v.11a.21.21,0,0,1-.07.14.15.15,0,0,1-.13,0l-.81-.12a.24.24,0,0,1-.23-.25s0,0,0,0Z"/><path id="Path_8930" data-name="Path 8930" class="cls-2" d="M17.15,77.59a.24.24,0,0,1,.23-.26h0l.93,0,0,.08a.41.41,0,0,1,0,.11.16.16,0,0,1-.17.19l-.6,0V78l.63,0a.41.41,0,0,1,0,.08.43.43,0,0,1,0,.11.27.27,0,0,1-.05.15.16.16,0,0,1-.13,0h-.51v.29l.72,0a.32.32,0,0,1,0,.09.36.36,0,0,1,0,.1.25.25,0,0,1-.06.16.16.16,0,0,1-.12,0l-.82,0a.24.24,0,0,1-.26-.22v0Z"/><path id="Path_8931" data-name="Path 8931" class="cls-2" d="M19.42,78.45l0,.53a.29.29,0,0,1-.1,0l-.12,0a.24.24,0,0,1-.12,0l-.08,0a.13.13,0,0,1-.06-.07.27.27,0,0,1,0-.12l-.13-1.32a.16.16,0,0,1,0-.09.16.16,0,0,1,.08-.06.81.81,0,0,1,.22-.07l.27,0a.89.89,0,0,1,.59.1.55.55,0,0,1,.24.43.46.46,0,0,1-.06.3.55.55,0,0,1-.19.21,2.61,2.61,0,0,0,.22.24l.18.2a.24.24,0,0,1-.09.16.26.26,0,0,1-.16.07h-.11l-.08,0-.07-.06-.06-.07-.27-.36Zm.14-.39a.29.29,0,0,0,.16-.07.22.22,0,0,0,.05-.17.22.22,0,0,0-.09-.16.41.41,0,0,0-.22,0h-.12l0,.42Z"/><path id="Path_8932" data-name="Path 8932" class="cls-2" d="M22.33,77.84a.71.71,0,0,1,0,.29.54.54,0,0,1-.09.24.76.76,0,0,1-.21.19,1,1,0,0,1-.61.14.6.6,0,0,1-.27-.07.86.86,0,0,1-.2-.18.71.71,0,0,1-.11-.25l-.25-1,.09,0,.13,0,.11,0,.09,0a.13.13,0,0,1,.07.06.36.36,0,0,1,0,.11l.2.83a.25.25,0,0,0,.12.19.28.28,0,0,0,.38-.09.34.34,0,0,0,0-.22l-.25-1,.09,0,.13,0H22l.07.06a.36.36,0,0,1,0,.11Z"/></g></g><circle id="Ellipse_83" data-name="Ellipse 83" class="cls-2" cx="12.28" cy="77.18" r="0.49"/><circle id="Ellipse_84" data-name="Ellipse 84" class="cls-2" cx="23.65" cy="77.37" r="0.49"/></g></g></g></svg>