<svg xmlns="http://www.w3.org/2000/svg" viewBox="0 0 36.04 70.16"><defs><style>.cls-1,.cls-2{fill:#fff;}.cls-1{fill-rule:evenodd;}</style></defs><g id="圖層_2" data-name="圖層 2"><g id="圖層_1-2" data-name="圖層 1"><path class="cls-1" d="M.73,51.84c0-1.68,0-3.36-.06-5C.53,44,.51,41.28.46,38.52a15.73,15.73,0,0,0-.21-2.47,2.83,2.83,0,0,1,0-.82,26.49,26.49,0,0,0,0-5.56c-.07-.76,0-1.5,0-2.25,0-1.54.05-3.08-.05-4.6S.07,20,.06,18.63c0-2.51-.15-5,0-7.53.06-.8,0-1.61,0-2.41A8.76,8.76,0,0,1,.52,5.61,6.73,6.73,0,0,1,2.35,3.26,10.25,10.25,0,0,1,7.45.85,43.55,43.55,0,0,1,12.66.11a36.28,36.28,0,0,1,4.89,0c2,.11,4,.23,5.92.48a30.84,30.84,0,0,1,7.35,1.54A12,12,0,0,1,34.6,4.62a1.89,1.89,0,0,1,.53,1A25.46,25.46,0,0,1,35.57,12c0,1.25,0,2.51,0,3.76a12.1,12.1,0,0,0,.19,2.47,4.57,4.57,0,0,1,0,.83c0,1.78.08,3.56.1,5.34,0,3.34.22,6.68.18,10,0,1.65-.06,3.31-.14,5-.14,2.63-.21,5.26-.23,7.88,0,1.76-.17,3.5-.06,5.26.06.95,0,1.91,0,2.86,0,.75.1,1.5.1,2.25,0,1,0,2.06-.08,3.09a9.5,9.5,0,0,1-.23,1.4c-.12.62-.25,1.23-.39,1.84a7.15,7.15,0,0,1-1.58,3,3.36,3.36,0,0,1-1.56.87,37.58,37.58,0,0,1-9.59,2.17,40.13,40.13,0,0,1-8.2.08,33.39,33.39,0,0,1-6.8-1.18,13.4,13.4,0,0,1-3.21-1.48,5.44,5.44,0,0,1-2.25-2.93,20.05,20.05,0,0,1-.72-3.83A84.7,84.7,0,0,1,.73,51.84Zm.9-30.07a2,2,0,0,0-.08.76c0,1.53.09,3.07.09,4.6,0,1,0,2,0,3a28,28,0,0,1,.11,3.3c-.09,1.53.09,3.05.08,4.58,0,3.17.2,6.33.23,9.49a1.32,1.32,0,0,0,1,1.46,30.36,30.36,0,0,0,4.46,1.6,40.17,40.17,0,0,0,6.91,1,53.3,53.3,0,0,0,6.32,0,42.89,42.89,0,0,0,7.37-1,31.28,31.28,0,0,0,5.81-1.81c.22-.1.31-.2.3-.43,0-.4-.05-.8-.05-1.2,0-1.61.07-3.21.1-4.82,0-.28,0-.55,0-.83.13-2.35.23-4.71.23-7.07,0-.7,0-1.41,0-2.11q-.07-4.94-.17-9.88c0-.21,0-.44-.11-.62a.73.73,0,0,0-.51.14c-.67.31-1.33.6-2,.85A41,41,0,0,1,25,24.58a35.21,35.21,0,0,1-4.32.66c-1.36.08-2.74.12-4.12.11a36.46,36.46,0,0,1-6.51-.56,25.64,25.64,0,0,1-7-2.26ZM2.2,49.86a5,5,0,0,0,0,1.56c0,1.3,0,2.61,0,3.91a47,47,0,0,0,.36,5.56,12.4,12.4,0,0,0,.93,3.85,2.38,2.38,0,0,0,1,1.14,15.76,15.76,0,0,0,5.56,2.2c1.45.19,2.86.55,4.32.64,1.15.07,2.3,0,3.45,0a40.25,40.25,0,0,0,8.89-1A35.68,35.68,0,0,0,32,66.21a2.41,2.41,0,0,0,1.49-1.66,18.6,18.6,0,0,0,.88-6.29c-.09-2.53-.18-5.06-.14-7.59a.35.35,0,0,0-.19-.42,11.86,11.86,0,0,1-2.47,1A55.66,55.66,0,0,1,24,52.77c-1.73.16-3.45.3-5.18.35a41.46,41.46,0,0,1-6.68-.3,29,29,0,0,1-7.79-2C3.62,50.57,3,50.22,2.2,49.86ZM1.37,10.19c0,.88,0,1.77,0,2.67,0,1.13.14,2.26.08,3.38-.09,1.36.06,2.7.06,4.06a.46.46,0,0,0,.31.46c.92.4,1.81.87,2.75,1.21a33.14,33.14,0,0,0,5.88,1.58,33.39,33.39,0,0,0,6.07.51c1,0,2.05-.1,3.08-.12a33.21,33.21,0,0,0,4.77-.57A35.62,35.62,0,0,0,29.87,22a24,24,0,0,0,3.73-1.4,1.06,1.06,0,0,0,.68-1.1c0-1-.19-2-.19-2.93,0-2.28,0-4.57.14-6.85a1.12,1.12,0,0,0-.12-.82,14.56,14.56,0,0,1-1.43,1.16,20.69,20.69,0,0,1-6.2,2.67c-1.63.4-3.29.68-4.94,1a11.81,11.81,0,0,1-1.78.3,48.63,48.63,0,0,1-5.79,0,25.09,25.09,0,0,1-5.5-.85c-.31-.09-.63-.15-.94-.25a17.25,17.25,0,0,1-5.64-2.6C1.76,10.3,1.65,10.12,1.37,10.19Zm15.3,2.59a17.57,17.57,0,0,0,3.79-.22c1.92-.37,3.86-.68,5.76-1.19A22,22,0,0,0,30,10,13.42,13.42,0,0,0,33.68,7.5a1.38,1.38,0,0,0,.14-2,9.38,9.38,0,0,0-2.38-1.7,25,25,0,0,0-7.87-1.88c-2-.23-4.1-.37-6.15-.46a42.07,42.07,0,0,0-7.36.33A17.51,17.51,0,0,0,5,3a8,8,0,0,0-3.35,2.7,2.32,2.32,0,0,0,.39,3.18A9.58,9.58,0,0,0,5,10.62a26.39,26.39,0,0,0,7.11,1.88A28.75,28.75,0,0,0,16.67,12.78Z"/><path class="cls-1" d="M16.38,57.44c-.58-.09-1.1-.19-1.63-.24a32.85,32.85,0,0,1-5-.8,19.51,19.51,0,0,1-6-2.48c-.27-.18-.48-.38-.29-.73s.47-.32.77-.23a1.41,1.41,0,0,1,.22.06c.58.31,1.21.48,1.81.73a28.36,28.36,0,0,0,6.88,1.85c1,.14,2,.3,3,.45a2.77,2.77,0,0,1,.58.17c.23.1.44.24.38.56S16.69,57.44,16.38,57.44Z"/><path class="cls-1" d="M12.79,61a9.55,9.55,0,0,1-2.06-.35c-1-.31-2-.38-2.92-.72a35.08,35.08,0,0,1-3.55-1.43,2.63,2.63,0,0,1-.63-.41.53.53,0,0,1-.1-.74.52.52,0,0,1,.69-.26c.94.36,1.88.71,2.8,1.08a17.51,17.51,0,0,0,3.39,1c.86.15,1.69.44,2.57.54.44,0,.65.32.62.62A.73.73,0,0,1,12.79,61Z"/><path class="cls-1" d="M4.89,61.77c.27.06.66.3,1.08.45A18.58,18.58,0,0,0,9.4,63a2.54,2.54,0,0,1,1,.34.52.52,0,0,1,.28.69c-.14.37-.38.55-.73.47a28.48,28.48,0,0,1-4.46-1,11.61,11.61,0,0,1-1.24-.7A.52.52,0,0,1,4,62.1C4.17,61.83,4.4,61.69,4.89,61.77Z"/><path class="cls-1" d="M2.24,12.33c.58.29,1.15.59,1.74.87a30.1,30.1,0,0,0,8.45,2.59,21.08,21.08,0,0,0,4.35.07c.9-.06,1.8-.16,2.69-.22.5,0,.76.17.8.57a.72.72,0,0,1-.71.79c-.92.09-1.84.2-2.77.24a21,21,0,0,1-4.12,0,28.67,28.67,0,0,1-6.74-1.79,15,15,0,0,1-2.76-1.35,7.4,7.4,0,0,1-.82-.66C2,13,2,12.94,2.24,12.33Z"/><path class="cls-1" d="M9.86,3.79a11.13,11.13,0,0,1,3.87.73,1.56,1.56,0,0,1,.82.82,5.51,5.51,0,0,1,.56,1.94,3.8,3.8,0,0,1-1.07,3,2.3,2.3,0,0,1-1.15.52A10.08,10.08,0,0,1,5.6,9.45,5.6,5.6,0,0,1,4.12,8.3a1.82,1.82,0,0,1-.18-2.42,3,3,0,0,1,1.9-1.49,20.63,20.63,0,0,1,2.21-.46A17,17,0,0,0,9.86,3.79ZM11.41,9.9c.37,0,.75,0,1.12,0A1.54,1.54,0,0,0,14,8.84,3.41,3.41,0,0,0,13.73,6a.93.93,0,0,0-.43-.4,4.69,4.69,0,0,0-2.5-.69,19.57,19.57,0,0,0-4,.38A3,3,0,0,0,5,6.29c-.33.43-.35.68,0,1.06a5.5,5.5,0,0,0,1,.85A8.8,8.8,0,0,0,11.41,9.9Z"/><path class="cls-1" d="M16.14,2.18c1,.06,2.14.1,3.28.21.88.09,1.76,0,2.64.06a39.47,39.47,0,0,1,5.17.94,23.26,23.26,0,0,1,3.26,1.13,16.7,16.7,0,0,1,2.08,1.2,1.39,1.39,0,0,1,.32.32.36.36,0,0,1,0,.42c-.1.13-.23,0-.34,0l-3-1.24a27.11,27.11,0,0,0-5-1.29,42.41,42.41,0,0,0-5.85-.33c-1-.08-2-.1-3-.17-.56,0-.71-.18-.73-.57a.54.54,0,0,1,.54-.66C15.67,2.17,15.82,2.18,16.14,2.18Z"/><path class="cls-1" d="M10.32,5.75a12.49,12.49,0,0,1,1.92,0c.4.11.91.08,1.09.55a2.29,2.29,0,0,1,.06,1.9,1.68,1.68,0,0,1-1.54,1,14.31,14.31,0,0,1-3.13-.18c-1-.19-1.27-.49-1.39-1.48a2.53,2.53,0,0,1,.31-1.45c.2-.37.59-.33.93-.4h1.75Zm.33,2.34c.51,0,.86,0,1.21,0s.69-.19.73-.49-.21-.63-.66-.68A13,13,0,0,0,8.58,7c-.27,0-.28.21-.16.37a1.46,1.46,0,0,0,1,.64A9.87,9.87,0,0,0,10.65,8.09Z"/><g id="Group_1096" data-name="Group 1096"><g id="Group_1090" data-name="Group 1090"><path id="Path_8924" data-name="Path 8924" class="cls-2" d="M21.07,44.19a6.77,6.77,0,0,1-3.35-.92,6.78,6.78,0,1,1,.1-11.78,6.78,6.78,0,1,1,3.25,12.7ZM17.72,43l.06,0a6.55,6.55,0,1,0,.09-11.32.11.11,0,0,1-.11,0A6.55,6.55,0,1,0,17.66,43Z"/></g><g id="Group_1091" data-name="Group 1091"><path id="Path_8925" data-name="Path 8925" class="cls-2" d="M12.65,38.68a1,1,0,0,1-.64.2h-.12v-.55h-.54v.62c0,.08-.31.26-.64.25h-.11l0-4.65.77.34h.45l.38-.4.74.6a.43.43,0,0,1-.29.15Zm-.75-.56,0-3h-.55l0,3Zm4.64.28s.46.41.72.68a.21.21,0,0,1-.21.12H15.8v1.4a1.05,1.05,0,0,1-.69.19h-.16l0-1.6-2.45,0,0-.21L15,39V37.73l1.09.11c0,.09-.06.15-.25.18v1h.33Zm-2.73-.76s-.24.22-.64.22H13l0-3.28.86.34h.41c.05-.28.13-.69.17-1l1.17.25q0,.18-.3.18c-.18.16-.47.38-.69.55H16l.38-.4.77.6a.5.5,0,0,1-.28.14l0,2.29a1.13,1.13,0,0,1-.67.22h-.13v-.3h-1c-.27.55-.87,1-2.23,1.31l-.05-.09a2.52,2.52,0,0,0,1.54-1.22h-.56Zm0-2.52v.93h.74v-.92Zm.62,2.14a2.85,2.85,0,0,0,.11-.82v-.18h-.74v1Zm1.63,0v-1h-.76v.17a2.92,2.92,0,0,1-.12.83Zm-.75-2.15v.93h.77v-.93Z"/></g><g id="Group_1092" data-name="Group 1092"><path id="Path_8926" data-name="Path 8926" class="cls-2" d="M24.5,35.41s.57.46.92.77a.21.21,0,0,1-.22.12l-1.39,0a5.47,5.47,0,0,1-1,2.57c3,1.14,2,2.26,1.22,1.91a8.12,8.12,0,0,0-1.77-1.35,7.11,7.11,0,0,1-3.65,1.38l0-.09a6.63,6.63,0,0,0,3-1.66,17.46,17.46,0,0,0-2.08-.91,17.89,17.89,0,0,0,.74-1.88H18.67L18.62,36h1.71c.28-.8.53-1.6.63-2l1.21.32c0,.08-.08.15-.31.15-.12.39-.33,1-.56,1.57h1.56a9.4,9.4,0,0,0,.08-.94l1.26.28c0,.13-.12.19-.29.18l-.06.49H24Zm-3.28.85c-.25.67-.52,1.36-.77,1.91.58.13,1.07.27,1.52.4a5.28,5.28,0,0,0,.87-2.29Z"/></g><g id="Group_1093" data-name="Group 1093"><path id="Path_8927" data-name="Path 8927" class="cls-2" d="M21,45.24a7.85,7.85,0,0,1-3.3-.76A7.81,7.81,0,1,1,14.5,29.57h0a7.82,7.82,0,0,1,3.3.76,7.58,7.58,0,0,1,3.31-.7A7.81,7.81,0,0,1,21,45.24ZM17.69,44a.16.16,0,0,1,.1,0,7.36,7.36,0,1,0,3.38-13.94h-.05a7.27,7.27,0,0,0-3.21.71.23.23,0,0,1-.2,0,7.14,7.14,0,0,0-3.2-.76,7.35,7.35,0,1,0-.17,14.69h0A7.33,7.33,0,0,0,17.6,44,.1.1,0,0,1,17.69,44Z"/></g><g id="Group_1095" data-name="Group 1095"><g id="Group_1094" data-name="Group 1094"><path id="Path_8928" data-name="Path 8928" class="cls-2" d="M13.47,47.74l-.11,0-.14-.05-.13-.06L13,47.53a.22.22,0,0,1-.1-.25l.36-1.34a.16.16,0,0,1,.06-.08.19.19,0,0,1,.1,0,1.13,1.13,0,0,1,.26,0l.3.07a1.12,1.12,0,0,1,.53.27.45.45,0,0,1,.1.44.39.39,0,0,1-.13.2.43.43,0,0,1-.24.08.58.58,0,0,1,.2.21.42.42,0,0,1,0,.29.48.48,0,0,1-.32.37A1.19,1.19,0,0,1,13.47,47.74Zm-.08-.45.1,0,.12,0a.34.34,0,0,0,.2,0,.18.18,0,0,0,.12-.13.14.14,0,0,0,0-.15.38.38,0,0,0-.18-.09l-.23-.06Zm.19-.7.21,0a.25.25,0,0,0,.19,0,.18.18,0,0,0,.09-.12.14.14,0,0,0,0-.14.32.32,0,0,0-.18-.1l-.1,0-.09,0Z"/><path id="Path_8929" data-name="Path 8929" class="cls-2" d="M15.14,46.52a.25.25,0,0,1,.27-.24h0l1,.14a.2.2,0,0,1,0,.09.2.2,0,0,1,0,.11.18.18,0,0,1-.07.15.15.15,0,0,1-.13,0l-.62-.08,0,.27.66.09a.32.32,0,0,1,0,.09.41.41,0,0,1,0,.11.21.21,0,0,1-.07.15.15.15,0,0,1-.13,0l-.54-.07,0,.31.75.1,0,.09V48a.24.24,0,0,1-.07.16.17.17,0,0,1-.14,0l-.85-.12A.26.26,0,0,1,15,47.8s0,0,0,0Z"/><path id="Path_8930" data-name="Path 8930" class="cls-2" d="M16.9,46.72a.26.26,0,0,1,.24-.27h0l1,0a.2.2,0,0,1,0,.08.49.49,0,0,1,0,.12.27.27,0,0,1-.05.15.18.18,0,0,1-.13.05H17.4v.27h.66a.36.36,0,0,1,0,.09.41.41,0,0,1,0,.11.18.18,0,0,1-.05.16.19.19,0,0,1-.13.05l-.54,0v.31l.76,0a.36.36,0,0,1,0,.09.37.37,0,0,1,0,.11.18.18,0,0,1-.05.16.21.21,0,0,1-.13.05l-.87,0a.26.26,0,0,1-.27-.24v0Z"/><path id="Path_8931" data-name="Path 8931" class="cls-2" d="M19.3,47.61l.05.57-.1,0-.13,0a.48.48,0,0,1-.12,0l-.09,0a.12.12,0,0,1-.06-.06.28.28,0,0,1,0-.13l-.15-1.38a.15.15,0,0,1,0-.1.22.22,0,0,1,.09-.07.81.81,0,0,1,.22-.07l.28,0a1,1,0,0,1,.64.11.61.61,0,0,1,.19.76.56.56,0,0,1-.21.22c.09.09.16.18.24.25a2,2,0,0,1,.19.22.32.32,0,0,1-.09.17.36.36,0,0,1-.17.07H20l-.08,0a.13.13,0,0,1-.07-.06L19.74,48l-.29-.37Zm.14-.41a.24.24,0,0,0,.17-.07.24.24,0,0,0,.05-.18.19.19,0,0,0-.09-.16.4.4,0,0,0-.24,0h-.07l-.05,0,0,.44Z"/><path id="Path_8932" data-name="Path 8932" class="cls-2" d="M22.36,47a.7.7,0,0,1,0,.29.64.64,0,0,1-.1.26.67.67,0,0,1-.21.2,1.13,1.13,0,0,1-.65.16.66.66,0,0,1-.49-.26.93.93,0,0,1-.12-.27l-.27-1.1a.34.34,0,0,1,.1,0l.13-.05h.12a.14.14,0,0,1,.09,0,.13.13,0,0,1,.07.06.43.43,0,0,1,.05.12l.21.87a.31.31,0,0,0,.13.2.29.29,0,0,0,.4-.1.3.3,0,0,0,0-.23L21.58,46l.1,0,.13,0,.12,0H22l.07.06a.61.61,0,0,1,.05.12Z"/></g></g><circle id="Ellipse_83" data-name="Ellipse 83" class="cls-2" cx="11.77" cy="46.34" r="0.51"/><circle id="Ellipse_84" data-name="Ellipse 84" class="cls-2" cx="23.74" cy="46.44" r="0.51"/></g></g></g></svg>