<svg xmlns="http://www.w3.org/2000/svg" viewBox="0 0 60.96 82.88"><defs><style>.cls-1{fill:#fff;fill-rule:evenodd;}</style></defs><g id="圖層_2" data-name="圖層 2"><g id="圖層_1-2" data-name="圖層 1"><path class="cls-1" d="M43.5,21.08a14.11,14.11,0,0,1,2.4-1.24A15.43,15.43,0,0,1,52,18.58a6.82,6.82,0,0,1,4.77,2,13.68,13.68,0,0,1,3.73,5.57A7.69,7.69,0,0,1,61,28.86a29.39,29.39,0,0,1-.45,6.35c-.28,1.16-.6,2.31-1,3.44a52.5,52.5,0,0,1-3.91,9.05c-.92,1.62-1.92,3.2-3,4.74-.42.62-.81,1.27-1.18,1.92a57.31,57.31,0,0,1-6.1,8.42,31.41,31.41,0,0,1-2.57,2.59c-.23.22-.39.39-.36.71a.9.9,0,0,1-.32.82,3.94,3.94,0,0,0-.68,1.3,17.63,17.63,0,0,0-1.71,5,52.41,52.41,0,0,0-.61,5.71.83.83,0,0,1-.5.78A30.69,30.69,0,0,1,32.77,82a21,21,0,0,1-3.06.52,60.21,60.21,0,0,1-9.4.3c-1.68,0-3.35-.25-5-.37A33.08,33.08,0,0,1,6,80.15a6.5,6.5,0,0,1-2.35-1.34,1.43,1.43,0,0,1-.5-1,35.7,35.7,0,0,0-.62-4.61,28.62,28.62,0,0,0-1-3.26A15,15,0,0,0,.12,66.42,1.23,1.23,0,0,1,0,65.74C0,64.29.13,62.85.2,61.4a43.82,43.82,0,0,0,0-5.73c-.07-.94.18-1.86.16-2.79,0-1.11.12-2.22.08-3.33C.34,47.19.3,44.84.33,42.48c0-3.24.19-6.47.27-9.71,0-.47-.08-.94,0-1.4.09-1.6.18-3.21.15-4.81s0-3.43-.07-5.14c0-1.24.31-2.47.19-3.71a14.43,14.43,0,0,1,.91-5.34,8.46,8.46,0,0,1,4-5c1.18-.7,2.4-1.33,3.59-2A7.68,7.68,0,0,0,11,4.14a16.35,16.35,0,0,1,4.5-3A9.87,9.87,0,0,1,20.67,0a7.38,7.38,0,0,1,3.56,1.45A16.65,16.65,0,0,1,26,2.94a5.16,5.16,0,0,0,4.35,1.21,13.68,13.68,0,0,1,4.86,0,5.94,5.94,0,0,1,4.57,4,9.3,9.3,0,0,0,.79,1.69,37.26,37.26,0,0,1,2,3.85,1.4,1.4,0,0,0,.16.26,5.11,5.11,0,0,1,.91,4C43.61,18.92,43.57,19.93,43.5,21.08ZM2.24,17.28a18.31,18.31,0,0,1,0,3.47c-.07,1.93,0,3.87.09,5.81.08,1.76-.2,3.52-.15,5.28s0,3.36-.06,5c0,2.33-.14,4.66-.19,7,0,.59.1,1.19.07,1.78C2,47.52,2,49.38,2,51.25c0,.21,0,.41,0,.62-.06,1.39-.23,2.78-.16,4.18a58.12,58.12,0,0,1-.11,6.05,23.1,23.1,0,0,0-.17,3.1c.07.8-.16.93.87,1a3.66,3.66,0,0,1,.44.13c1.63.45,3.23,1,4.88,1.34a51.17,51.17,0,0,0,9.71,1.13c3.19.09,6.38,0,9.56-.22,1.34-.09,2.68-.28,4-.39a55.35,55.35,0,0,0,7.59-1.13,10.9,10.9,0,0,0,1.55-.53.73.73,0,0,0,.49-.61,24.54,24.54,0,0,0,.32-2.7A51.4,51.4,0,0,0,41.32,58c0-1.36,0-2.74.09-4.11.09-2.51.18-5,.09-7.53,0-.83,0-1.66-.09-2.48a26.12,26.12,0,0,1,0-3.19,33.79,33.79,0,0,0,0-4.27,35,35,0,0,1-.08-4.8c.07-1.63.17-3.26.17-4.89,0-1.84.17-3.67.33-5.5.08-1,.19-2.06.29-3.09,0-.06,0-.15-.19-.19l-.43.19a24.14,24.14,0,0,1-5.17,1.65,29,29,0,0,1-7.72.8c-.28,0-.57.07-.85.07-3.66,0-7.31.09-11-.07a44.78,44.78,0,0,1-6.63-.8,33,33,0,0,1-5.77-1.56C3.68,17.94,3,17.62,2.24,17.28Zm21.4.35,4.43-.15a11.74,11.74,0,0,0,1.78-.12c1.51-.27,3-.32,4.55-.51a14.66,14.66,0,0,0,6-2.14,4,4,0,0,0,.6-.49.63.63,0,0,0,.15-.89c-.55-1-1-2-1.58-2.94a13.21,13.21,0,0,1-1.06-2.25,3.72,3.72,0,0,0-.66-1.22,5,5,0,0,0-3.55-1.68,17.33,17.33,0,0,0-3.87.23A5.81,5.81,0,0,1,25.4,3.81,10,10,0,0,0,22,1.6a6.26,6.26,0,0,0-4.27.16,14.9,14.9,0,0,0-5.78,3.41,8.46,8.46,0,0,1-1.75,1.28c-1.26.67-2.52,1.33-3.73,2.08a8.54,8.54,0,0,0-3.61,4.62c-.22.57-.17.58.34.93a13.1,13.1,0,0,0,5.49,2.27,48.82,48.82,0,0,0,6.38.82c.85,0,1.7-.09,2.56,0A42,42,0,0,0,23.64,17.63Zm19.53,8.62a.46.46,0,0,0,.51-.13,19.86,19.86,0,0,1,2.39-1.43,6.51,6.51,0,0,1,3.72-.85,4.53,4.53,0,0,1,3.65,1.79,9.2,9.2,0,0,1,1.47,2.81,15.62,15.62,0,0,1,.3,5.78,17.59,17.59,0,0,1-1.15,4q-.89,2.63-2,5.14c-.77,1.74-2,3.23-2.86,4.9a56.64,56.64,0,0,1-3.45,5.26c-.8,1.14-1.44,2.4-2.35,3.47a1.51,1.51,0,0,0-.4,1.12,30.07,30.07,0,0,1-.24,4.65c0,.14-.07.31.15.43a4,4,0,0,0,.74-.64,55,55,0,0,0,3.65-4.52c.94-1.34,1.85-2.69,2.71-4.08s1.87-3,2.85-4.55a36.86,36.86,0,0,0,2.77-5,64.39,64.39,0,0,0,3.1-8.21,17.1,17.1,0,0,0,.82-4.18c.05-1.27,0-2.54.12-3.81a2.59,2.59,0,0,0-.15-.91A14.52,14.52,0,0,0,57.42,23a6.89,6.89,0,0,0-4-2.95,8.43,8.43,0,0,0-2.7,0,14.87,14.87,0,0,0-7.18,2.48c-.14.09-.26.18-.27.35A28.61,28.61,0,0,0,43.17,26.25Zm-.09,28.42c.25-.06.32-.23.41-.38.28-.44.55-.88.84-1.31.63-.94,1.31-1.86,1.92-2.83,1-1.57,1.93-3.18,2.9-4.77a26.62,26.62,0,0,0,2-3.69c.8-2,1.41-4,2.21-6,.06-.16.08-.35.13-.52a15.53,15.53,0,0,0,.33-4.56,8.08,8.08,0,0,0-1.5-4.34,2.18,2.18,0,0,0-1-.84,4.46,4.46,0,0,0-3.76.11c-1.41.72-2.66,1.7-4,2.5a.8.8,0,0,0-.45.75c0,1.51,0,3-.15,4.5a16,16,0,0,0,.15,2.4c.15,1.87,0,3.73,0,5.59,0,1.4,0,2.8.05,4.2,0,1,.14,2,.09,2.94C43.08,50.51,43.25,52.57,43.08,54.67ZM30.89,69.84c-1.24.12-2.34.24-3.45.33-.31,0-.46.1-.47.45,0,.51-.08,1-.11,1.54-.14,2-.21,4-.46,6l-.3,2.54c0,.28,0,.46.35.44.78,0,1.55,0,2.33-.11a.72.72,0,0,0,.74-.72c.06-.51.11-1,.18-1.54.32-2.38.6-4.77,1-7.14C30.78,71.08,30.82,70.49,30.89,69.84ZM11.56,70a22.32,22.32,0,0,1,.87,4.63,50.37,50.37,0,0,1,.65,5.47.5.5,0,0,0,.48.56c.74.15,1.49.16,2.24.24.31,0,.41-.13.42-.4s.05-.78,0-1.17c-.06-1.78-.15-3.57-.38-5.34-.13-1-.32-2.09-.48-3.14-.06-.41-.21-.63-.68-.63-.67,0-1.34-.12-2-.17A3.1,3.1,0,0,0,11.56,70ZM22,78.1A18.73,18.73,0,0,1,22,80.72c0,.37.13.52.5.51.54,0,1.09,0,1.63,0,.31,0,.49-.1.52-.43.08-.72.17-1.44.26-2.16.32-2.64.35-5.31.73-8,.05-.36,0-.49-.38-.47l-3,.15c-.26,0-.38.12-.37.38s0,.36,0,.54C21.8,73.55,22,75.77,22,78.1Zm-5.09-7.7c.08.62.15,1.18.23,1.74a35.79,35.79,0,0,1,.51,5.16,23.65,23.65,0,0,1,0,3.26c0,.3.06.49.41.51.7,0,1.4.1,2.09.15.34,0,.53-.06.5-.47,0-.77-.05-1.55,0-2.33,0-2.51-.1-5,.15-7.53,0-.23,0-.49-.33-.49ZM6.8,69.05c.35,1.52.71,2.92,1,4.34a27.74,27.74,0,0,1,.61,5.45c0,.37.12.57.49.66.63.15,1.25.34,1.87.52,1,.29,1.11.26.9-.78-.39-2.06-.63-4.14-.94-6.21A12.43,12.43,0,0,0,10,70c-.08-.19-.13-.4-.39-.43C8.69,69.48,7.81,69.13,6.8,69.05Zm28.52.27a24.34,24.34,0,0,1-2.61.3c-.31,0-.45.14-.47.47-.06,1.22-.28,2.41-.45,3.61-.15,1-.27,2-.4,3-.16,1.23-.31,2.46-.47,3.69,0,.3.1.36.36.31.45-.09.92-.14,1.36-.27.79-.22.8-.24.84-1.06s.1-1.91.22-2.86a23.65,23.65,0,0,1,.88-4.32C34.87,71.28,35.06,70.34,35.32,69.32ZM35,79.58a13.29,13.29,0,0,0,2.35-1c.19-.09.2-.28.21-.46l.15-1.86A25.49,25.49,0,0,1,38.92,70c.18-.5.39-1,.63-1.6-.84.19-1.56.37-2.29.49a.6.6,0,0,0-.56.52c-.2.85-.39,1.71-.64,2.55A29.92,29.92,0,0,0,35,77.61C34.93,78.24,35,78.89,35,79.58ZM2.46,67.72c.07.26.09.41.14.55.42,1.23.82,2.45,1.26,3.67a13.66,13.66,0,0,1,.51,2.26,30.63,30.63,0,0,1,.39,3.16c0,.21,0,.53.21.63a5.71,5.71,0,0,0,2,.79,5.16,5.16,0,0,0,0-.66c-.1-.92-.24-1.84-.33-2.77a28.65,28.65,0,0,0-.6-3,23.16,23.16,0,0,0-.87-3.37c-.09-.26-.17-.47-.47-.55C4,68.2,3.3,68,2.46,67.72ZM2.34,15.11c-.25.66-.27.68.2.93a13.52,13.52,0,0,0,2,.95,35.51,35.51,0,0,0,3.68,1,48.22,48.22,0,0,0,6.66,1.12,51.12,51.12,0,0,0,5.81.15,1.47,1.47,0,0,0,.89-.24A18.11,18.11,0,0,1,18,18.69a6.64,6.64,0,0,0-1.09-.06A22.67,22.67,0,0,1,12,18.4c-1.31-.16-2.59-.49-3.9-.68A11,11,0,0,1,4,16.18C3.47,15.85,2.93,15.49,2.34,15.11Zm20.81,4.1c1.63.06,3.25-.06,4.86,0a36.17,36.17,0,0,0,7.63-.75c1.36-.26,2.66-.68,4-1.07a9.25,9.25,0,0,0,1.92-.82,2.28,2.28,0,0,0,.77-.64c.16-.22,0-.41-.1-.56s-.27-.05-.38.07a8.67,8.67,0,0,1-3.26,1.91A19.84,19.84,0,0,1,33,18.49c-1.42.1-2.83.37-4.24.43C26.87,19,25,19.14,23.15,19.21Zm-.93,0,.13,0-.13,0h-.07S22.14,19.25,22.22,19.24Z"/><path class="cls-1" d="M14.55,52.77c-.13,1.76.07,4-.14,6.21a18.34,18.34,0,0,0-.07,2.1A26.46,26.46,0,0,1,14,64.63a1.69,1.69,0,0,1-.74,1.23,3.82,3.82,0,0,1-2.67.82,23.3,23.3,0,0,1-3.3-.43c-.59-.14-1.23-.13-1.83-.3A3.36,3.36,0,0,1,2.92,63a53.07,53.07,0,0,1-.08-6.67c0-1.52.13-3.05.2-4.57.09-2.25.3-4.5.29-6.75,0-1.89-.05-3.79,0-5.67.09-2.31.26-4.61.23-6.91,0-1.16-.12-2.32-.08-3.47.07-1.53-.07-3,0-4.58,0-.85.12-1.7.14-2.55a1.64,1.64,0,0,1,2.21-1.48c1.38.42,2.83.56,4.25.86a15.47,15.47,0,0,1,2.39.68c1.42.55,1.79,1.06,1.85,2.45a22.56,22.56,0,0,0,.14,2.32,13.52,13.52,0,0,1-.08,2c0,1.95,0,3.89,0,5.83,0,3.76.12,7.52.16,11.28C14.54,48,14.46,50.13,14.55,52.77ZM4.22,60.14a17.44,17.44,0,0,0,.3,3.21,1.59,1.59,0,0,0,.84,1.23A4.13,4.13,0,0,0,7,65.14a34.47,34.47,0,0,0,3.92.52,2.14,2.14,0,0,0,1.44-.5,2.45,2.45,0,0,0,.81-2.09c0-4.43,0-8.87,0-13.3,0-2-.18-4-.07-6.05s-.21-4.14-.14-6.22c0-.36.11-.7.09-1.07-.1-2.33-.3-4.65-.26-7,0-.18,0-.37,0-.55l0-3.94a.86.86,0,0,1,.05-.23c.21-1,0-1.45-1-1.78-.62-.2-1.25-.35-1.88-.52A16.48,16.48,0,0,0,7.68,22c-.56-.08-1.09-.31-1.66-.4-1-.15-1.11-.05-1.12.91s0,2.23,0,3.34c0,2.46,0,4.92,0,7.39A9.19,9.19,0,0,1,5,34.67a39,39,0,0,0-.22,4.71c-.06,2,0,4.09,0,6.14,0,1.22,0,2.44,0,3.65,0,2.39-.08,4.77-.26,7.15A30.13,30.13,0,0,0,4.22,60.14Z"/><path class="cls-1" d="M39.94,39.72c0,2.44-.06,4.88,0,7.31.07,2.12.11,4.24.39,6.35a20,20,0,0,1,0,2.57c0,1.19.13,2.38.23,3.56a8.73,8.73,0,0,1-.4,3.37,3.09,3.09,0,0,1-1.83,2,16.2,16.2,0,0,1-3.11,1.18,9.21,9.21,0,0,1-2.77.15c-.25,0-.51-.07-.77-.09A1.75,1.75,0,0,1,30,64.45c-.16-1-.13-2.06-.2-3.09-.13-1.74,0-3.48-.12-5.21-.1-1.45,0-2.9-.26-4.34a15.34,15.34,0,0,1-.05-2.25c0-2.36.05-4.72,0-7.08,0-2.93-.1-5.86-.22-8.79C29,31.08,29,28.46,29,25.85a2.82,2.82,0,0,1,2.42-2.76c1.53-.19,3.07-.44,4.6-.72a3.71,3.71,0,0,1,2.82.86,1,1,0,0,1,.34.84c.09,1.75.35,3.49.51,5.24.2,2.23.28,4.45.27,6.68C39.93,37.23,39.94,38.48,39.94,39.72ZM31.13,58.58c.08,1.84.15,3.67.25,5.51.05.85.08.86,1,1,.26,0,.52,0,.77,0A9.65,9.65,0,0,0,38,63.63a1.47,1.47,0,0,0,.72-1.14c.09-.56.13-1.13.2-1.69A21.7,21.7,0,0,0,39,58c0-1-.15-2.07-.15-3.1,0-.83,0-1.66-.07-2.49-.24-2.94-.42-5.88-.38-8.83,0-2.46,0-4.92.07-7.39a54.49,54.49,0,0,0-.24-6.51c-.13-1.73-.46-3.44-.52-5.17,0-.26,0-.57-.25-.7A2,2,0,0,0,36,23.43c-1.51.34-3.06.51-4.58.82a1,1,0,0,0-.92.88,5.55,5.55,0,0,0,0,1.08c0,1.25,0,2.49.11,3.73.06,1,0,2,0,2.95.07,1.76.12,3.52.17,5.28,0,.67,0,1.34.06,2a60.34,60.34,0,0,1,.06,6.45c0,1.79,0,3.58.07,5.36C31.06,54.18,31.13,56.38,31.13,58.58Z"/><path class="cls-1" d="M19.56,23c1.69,0,3.36.13,5,.22a2.87,2.87,0,0,1,2.57,2.32,38,38,0,0,1,.45,4.64,22.43,22.43,0,0,0,.23,3.17,2.64,2.64,0,0,1,0,1,4,4,0,0,0-.06.85c.16,2.53-.08,5.07,0,7.61,0,2-.12,4.09,0,6.13,0,1.16.1,2.33.22,3.48.07.7.1,1.4.12,2.1,0,1.45.08,2.9.16,4.34,0,1,.17,2,.24,2.94a4.09,4.09,0,0,1,0,1.16,7,7,0,0,0-.11,1.71A1.85,1.85,0,0,1,27,66.6a13.42,13.42,0,0,1-3.55.78c-.59,0-1.18.17-1.77.19A15.82,15.82,0,0,1,17,66.64a1.54,1.54,0,0,1-1-1.34,13.81,13.81,0,0,1-.22-2.23c-.05-1.19,0-2.38,0-3.57,0-.8-.05-1.59-.1-2.39-.08-1.2.2-2.37.2-3.56S16,51.4,16,50.32c0-.75.09-1.5.11-2.25.07-2,.18-4,.24-6s.07-3.78.05-5.67c0-1.61-.11-3.21-.18-4.81a42.46,42.46,0,0,1-.12-5.75,5,5,0,0,1,.5-1.94A1.56,1.56,0,0,1,18.16,23C18.63,23,19.1,23,19.56,23Zm6.83,17.91c0-2.3,0-4.21,0-6.13,0-2.15-.33-4.29-.35-6.43a13.65,13.65,0,0,0-.29-2.55,1.87,1.87,0,0,0-1.83-1.62,38.21,38.21,0,0,0-5.35,0c-.72.08-.84.18-1,.87a16.61,16.61,0,0,0-.12,4.34c.15,1.6.18,3.2.24,4.8a44.09,44.09,0,0,1,0,4.74,10.44,10.44,0,0,0,0,1.25,39.46,39.46,0,0,1,0,4.35c0,2-.19,4-.29,6-.05,1.06-.1,2.12-.2,3.17a33.77,33.77,0,0,0-.17,4.71c.07,1.66,0,3.32.06,5a7,7,0,0,0,.06.92c.21,1.3.22,1.3,1.49,1.67.15,0,.3.1.45.13a7,7,0,0,0,1.9.35,20.92,20.92,0,0,0,4.38-.55,1.48,1.48,0,0,0,1.23-1.29,9.09,9.09,0,0,0,.15-.91c.08-2.23.05-4.45,0-6.67,0-.6-.11-1.19-.09-1.79.05-1.6-.12-3.2-.22-4.8a31.9,31.9,0,0,1-.14-3.65C26.44,44.7,26.29,42.61,26.39,40.89Z"/><path class="cls-1" d="M4.61,12.81a3.79,3.79,0,0,1,1.2-2.2,10,10,0,0,1,4-2.32,6.85,6.85,0,0,0,3-2.1,11.45,11.45,0,0,1,6.66-3,5.25,5.25,0,0,1,3.05.72,2.27,2.27,0,0,1,.54.44c.19.18.46.42.29.65s-.46,0-.66-.14a3.93,3.93,0,0,0-1.55-.47A6.09,6.09,0,0,0,18,4.66a11.23,11.23,0,0,0-3.71,2.08c-.63.62-1.3,1.17-2,1.73a4.79,4.79,0,0,1-1.77.93A9.15,9.15,0,0,0,7,11.52a2.85,2.85,0,0,0-1,1.63c-.12.63-.26.73-.65.64A1,1,0,0,1,4.61,12.81Z"/></g></g></svg>