<svg xmlns="http://www.w3.org/2000/svg" viewBox="0 0 52.17 96.15"><defs><style>.cls-1,.cls-2{fill:#fff;}.cls-1{fill-rule:evenodd;}</style></defs><g id="圖層_2" data-name="圖層 2"><g id="圖層_1-2" data-name="圖層 1"><path class="cls-1" d="M7.25,86.05c0-1.54.12-3.08.16-4.61,0-1,.07-2.08,0-3.13a14.2,14.2,0,0,1,0-2.06c.1-1.45.19-2.9.36-4.34a56.72,56.72,0,0,0,.24-7.82c0-1.48-.14-3-.24-4.44-.12-1.86-.17-3.72-.37-5.58-.17-1.52-.23-3.06-.37-4.59A5.33,5.33,0,0,0,6.78,48a10.42,10.42,0,0,1-.36-2.44c-.51-3.28-1.1-6.54-1.68-9.81-.24-1.35-.37-2.72-.68-4.06C3.45,29,2.9,26.34,2.2,23.72a27.7,27.7,0,0,1-1-5.16,3.17,3.17,0,0,0-.34-1A7.91,7.91,0,0,1,.07,13a1.93,1.93,0,0,1,.09-.49A26.41,26.41,0,0,1,2.36,8,11,11,0,0,1,8.93,3.6c1.24-.27,2.47-.57,3.72-.74a4.52,4.52,0,0,0,1.83-.71A23.23,23.23,0,0,1,16.7.87,6,6,0,0,1,19.23.22,10.93,10.93,0,0,0,20.62.07a7.29,7.29,0,0,1,4.09.65A21.19,21.19,0,0,0,30.5,2.31a13.19,13.19,0,0,0,3.2-.07,12.07,12.07,0,0,1,2.55,0,27.35,27.35,0,0,1,7,1.74,16.41,16.41,0,0,1,4,2,13.16,13.16,0,0,1,3.51,3.88A9.54,9.54,0,0,1,52.1,13.3,4,4,0,0,1,52,15.41c-.46,1.15-.63,2.38-1,3.55-.55,1.67-1.06,3.35-1.56,5-1.13,3.76-2.33,7.49-3.28,11.3-.58,2.29-1.11,4.59-1.55,6.91a30.06,30.06,0,0,0-.76,5.61c0,1.69-.3,3.38-.4,5.08-.14,2.36-.33,4.71-.39,7.07-.07,3.18-.13,6.37-.05,9.55.07,3,.24,5.92.5,8.88a25.3,25.3,0,0,0,.44,3.9c.44,1.79.66,3.61.95,5.42a5.65,5.65,0,0,1-.7,3.42,3.8,3.8,0,0,1-1.79,1.41,25.06,25.06,0,0,1-5.82,2.25,52.26,52.26,0,0,1-8.13,1.27,31,31,0,0,1-6.09-.17,48.91,48.91,0,0,1-10.44-2.65,8.48,8.48,0,0,1-1.74-.71,5.76,5.76,0,0,1-2.81-4.68c0-.6-.06-1.21-.09-1.81ZM3.12,20.66c.57,2,1,4,1.47,5.95.55,2.43,1.27,4.83,1.58,7.32.13,1,.35,2,.46,3,.17,1.47.61,2.89.77,4.37A35.33,35.33,0,0,0,8,45.13c.26,1.23.46,2.48.7,3.71a60.53,60.53,0,0,1,.59,6.72q.27,3.52.45,7a55.72,55.72,0,0,1-.08,7.08c-.12,1.51-.25,3-.39,4.51a47.93,47.93,0,0,0-.2,5.36c0,1.12,0,2.25-.08,3.37a38.43,38.43,0,0,0-.09,5,3.3,3.3,0,0,0,1.6,2.83,12.9,12.9,0,0,0,3.2,1.46,63.88,63.88,0,0,0,8.52,1.9,28.42,28.42,0,0,0,5.68.2A47.39,47.39,0,0,0,36.53,93a28,28,0,0,0,5.78-2.38,1.93,1.93,0,0,0,1.06-1.8,5.56,5.56,0,0,0,0-1.15c-.32-2-.64-4-.9-6-.23-1.8-.33-3.61-.56-5.4-.3-2.3-.33-4.6-.43-6.9s0-4.4,0-6.6a23.83,23.83,0,0,1,0-2.39q.16-2.55.3-5.1c.06-1.37.14-2.74.26-4.11.15-1.6.18-3.22.44-4.82.3-1.84.47-3.7.79-5.54a53.78,53.78,0,0,1,1.22-5.28c.83-3,1.54-6,2.63-8.93,0-.13.16-.3-.05-.44-.43.22-.86.47-1.31.68a5.86,5.86,0,0,0-3.12,3.43c-.26.67-.46,1.36-.68,2a5.08,5.08,0,0,1-1.56,2.57,8,8,0,0,1-6.94,1.79,11.71,11.71,0,0,1-2.48-.85,5,5,0,0,0-3.69-.3c-1.11.31-2.22.62-3.34.86a6.62,6.62,0,0,1-4-.32c-.56-.23-1.06-.58-1.6-.84a2.12,2.12,0,0,1-.81-.67c-.85-1.15-1.8-2.22-2.76-3.28a13.3,13.3,0,0,1-2.92-5,4,4,0,0,0-1-1.56,9.28,9.28,0,0,0-3.22-2.09C6.07,21.93,4.44,21.72,3.12,20.66ZM34.29,35a7,7,0,0,0,4.54-1.15,3.6,3.6,0,0,0,1.6-2c.18-.6.34-1.22.57-1.8.82-2.16,2-4.07,4.24-5,.28-.11.53-.29.81-.42a1.71,1.71,0,0,0,.75-.73,17.86,17.86,0,0,0,1.63-3.69A18.62,18.62,0,0,1,50.53,15a2.54,2.54,0,0,0-.21-3,7.5,7.5,0,0,1-.49-.66,13,13,0,0,0-3.74-4A4,4,0,0,0,45.45,7a40.72,40.72,0,0,0-5-2A19.06,19.06,0,0,0,32.79,4a13.73,13.73,0,0,1-5.45-.61C26,3,24.72,2.57,23.44,2.1a4.69,4.69,0,0,0-2-.3c-.39,0-.77,0-1.15.08A8.1,8.1,0,0,0,17,2.55c-.53.29-1,.61-1.55.92a6.81,6.81,0,0,1-2.41,1c-1.17.17-2.32.42-3.48.68a9.75,9.75,0,0,0-6.86,5.17c-.36.69-.58,1.43-.94,2.1a5.38,5.38,0,0,0-.41,2.81,1.68,1.68,0,0,0,.23.79A22.32,22.32,0,0,0,3,18.26a5.58,5.58,0,0,0,3.11,2.16,12.52,12.52,0,0,1,4.5,2.17A6.56,6.56,0,0,1,13,25.65a12,12,0,0,0,2.3,4.06,31.51,31.51,0,0,1,2.59,3.08,4.28,4.28,0,0,0,2.37,1.69,6.61,6.61,0,0,0,3.34.15c1.06-.18,2.05-.61,3.1-.83a6.51,6.51,0,0,1,4.49.41A5.6,5.6,0,0,0,34.29,35Z"/><path class="cls-1" d="M25,89.29a18,18,0,0,0,3.88-.15,59.41,59.41,0,0,0,6.5-1,23.94,23.94,0,0,0,4.91-1.4c.62-.28.62-.27.46-1-.24-1-.56-2.08-.71-3.13-.22-1.6-.43-3.2-.6-4.81s-.24-3.44-.44-5.16c-.18-1.56-.36-3.11-.45-4.67,0-.84,0-1.68,0-2.52-.07-2.37,0-4.73.15-7.08a38.67,38.67,0,0,1,.66-6,.93.93,0,0,0,.05-.32,27.47,27.47,0,0,1,.8-5.78c.38-2.41.82-4.81,1.16-7.23.23-1.66.78-3.24,1.16-4.87L43,32.12c.13-.55.3-.68.77-.63s.56.2.58.74a2.67,2.67,0,0,1-.12,1,31.85,31.85,0,0,0-1.6,7.13c-.11,1.63-.68,3.17-.85,4.78-.23,2.07-.84,4.08-1.07,6.15,0,.11-.07.22-.07.32.15,2.07-.37,4.08-.5,6.13-.07,1.12-.14,2.25-.18,3.37-.1,2.5.07,5,.19,7.49s.25,4.77.33,7.16c0,.22.06.43.09.65.25,2.07.4,4.15.85,6.19.22,1,.43,2,.66,3,.28,1.17.24,1.26-.79,1.82a22.61,22.61,0,0,1-5.87,2.1,54,54,0,0,1-6.91,1.11,30.23,30.23,0,0,1-7.72-.19,41.9,41.9,0,0,1-6-1.24,15.76,15.76,0,0,1-3.31-1.45,3,3,0,0,1-1.37-2.63,14.5,14.5,0,0,1,.14-2.79c.17-1.33.22-2.68.3-4,.14-2.49.49-5,.52-7.47,0-1.62-.11-3.24-.19-4.86a39.93,39.93,0,0,1-.09-4.77,24.9,24.9,0,0,0-.1-3.45c-.11-2.08-.32-4.16-.37-6.24a27.56,27.56,0,0,0-.84-5.58c-.36-1.61-.64-3.23-1-4.85-.22-1.16-.4-2.33-.64-3.48-.28-1.38-.31-2.79-.53-4.17a17.83,17.83,0,0,0-.47-2.59,11.74,11.74,0,0,1-.33-1.69A1,1,0,0,1,7.47,28a.31.31,0,0,1,.36.25c.08.27.15.53.21.8a55.32,55.32,0,0,1,1,6.42c.12,1.36.44,2.7.69,4.05.3,1.65.67,3.28.91,4.94A3.51,3.51,0,0,0,11,45.71a5,5,0,0,1,.3,1.68c.49,2.68.49,5.4.71,8.1.12,1.54,0,3.08.25,4.61a13.48,13.48,0,0,1-.09,1.8c0,1.73.15,3.45.27,5.18a41.87,41.87,0,0,1-.14,7.08c-.18,1.8-.28,3.61-.43,5.42-.13,1.5-.29,3-.43,4.5,0,.52-.05,1-.1,1.56a.62.62,0,0,0,.32.61,10.36,10.36,0,0,0,3.2,1.48c.8.2,1.58.47,2.39.63A33,33,0,0,0,25,89.29Z"/><path class="cls-1" d="M20.13,76.75a1.63,1.63,0,0,1-1.75-1.53c0-.21-.14-.42-.17-.63a.93.93,0,0,1,.7-1.12,2,2,0,0,1,2.66,2A1.34,1.34,0,0,1,20.13,76.75Zm-.79-2.53c0,.32-.05.59-.06.86a.78.78,0,0,0,.89.8c.21,0,.26-.18.25-.35A1.28,1.28,0,0,0,19.34,74.22Z"/><path class="cls-1" d="M16.24,59.59a1.54,1.54,0,0,1,1.56,1.79s0,.06,0,.08a2.07,2.07,0,0,1-3,.65,1.74,1.74,0,0,1-.3-.49.51.51,0,0,1,.22-.71.54.54,0,0,1,.74.08,4.08,4.08,0,0,1,.25.33.4.4,0,0,0,.5.16c.14,0,.25-.13.25-.29a.55.55,0,0,0-.3-.54,2.57,2.57,0,0,0-.4,0,.43.43,0,0,1-.4-.36.49.49,0,0,1,.33-.52A2,2,0,0,1,16.24,59.59Z"/><path class="cls-1" d="M34.57,86.09a2.19,2.19,0,0,1-1.65-.53,1.06,1.06,0,0,1-.3-1.13A.54.54,0,0,1,33,84c.24,0,.36.13.44.3s.23.48.53.59a1.16,1.16,0,0,0,1.61-.68c.1-.19.13-.42.24-.61a.52.52,0,0,1,.64-.23.45.45,0,0,1,.3.45,3.56,3.56,0,0,1-1.9,2.22A1.13,1.13,0,0,1,34.57,86.09Z"/><path class="cls-1" d="M15.19,81.37a1.91,1.91,0,0,1,2.21.37,1.12,1.12,0,0,1,0,1.17,1.89,1.89,0,0,1-2.61.77.92.92,0,0,1-.21-.13c-.22-.23-.53-.44-.38-.82s.55-.32,1,0a1.53,1.53,0,0,0,.75.3.47.47,0,0,0,.5-.35c.06-.2-.08-.3-.23-.38A5.9,5.9,0,0,1,15.19,81.37Z"/><path class="cls-1" d="M25.9,62.88a2.3,2.3,0,0,1-1.33,1.76,1.34,1.34,0,0,1-1.52-.71,1,1,0,0,1-.17-.62c0-.25,0-.53.28-.62s.36.16.48.34.22.32.34.47.27.31.49.16a.46.46,0,0,0,.21-.63,1.51,1.51,0,0,0-.18-.26c-.33-.42-.34-.62,0-.87a.67.67,0,0,1,1,0A1.87,1.87,0,0,1,25.9,62.88Z"/><path class="cls-1" d="M15.32,39.63c-.18,0-.39.1-.61.13a1.78,1.78,0,0,1-1.58-.49,1,1,0,0,1-.34-.55c0-.23-.14-.52.14-.67s.39.11.52.28a1.29,1.29,0,0,0,1.54.44,2.21,2.21,0,0,1,1.74.22,1.36,1.36,0,0,1,.34.23c.39.38.47.83.2,1.08s-.57.21-1-.19A1.42,1.42,0,0,0,15.32,39.63Z"/><path class="cls-1" d="M25.48,83.64a5.44,5.44,0,0,1-1.71-.59,1.42,1.42,0,0,1-.36-.33.51.51,0,0,1,0-.74.45.45,0,0,1,.66,0,2.4,2.4,0,0,0,1.19.51.66.66,0,0,0,.88-.35,1,1,0,0,1,.19-.27.49.49,0,0,1,.72-.12c.24.19.16.44,0,.66C26.72,83,26.34,83.61,25.48,83.64Z"/><path class="cls-1" d="M27.3,38.9A2,2,0,0,1,25.79,38a.75.75,0,0,1,0-.85.45.45,0,0,1,.71-.12,5.28,5.28,0,0,1,.36.44c.54.59.74.6,1.35.11a1.14,1.14,0,0,1,.43-.24.49.49,0,0,1,.51.16.37.37,0,0,1,0,.46A1.86,1.86,0,0,1,27.3,38.9Z"/><path class="cls-1" d="M33.68,64c-1.11,0-1.72-.35-2-1.09a1.14,1.14,0,0,1-.07-.32c0-.25,0-.52.31-.6s.38.16.45.36a1.1,1.1,0,0,0,1.08.73c.34,0,.66,0,.82-.38a.55.55,0,0,1,.28-.28.47.47,0,0,1,.54,0,.4.4,0,0,1,.12.45,1.16,1.16,0,0,1-.84.92A6.35,6.35,0,0,1,33.68,64Z"/><path class="cls-1" d="M36,56.05a1,1,0,0,1-1-.53c-.24-.51-.52-1-.17-1.59.06-.11.14-.2.27-.18a.27.27,0,0,1,.26.28,1.72,1.72,0,0,0,.31.85c.24.36.37.4.75.19a1.25,1.25,0,0,1,.71-.25c.28,0,.39.22.22.43A2,2,0,0,1,36,56.05Z"/><path class="cls-1" d="M37.3,41.23h-.16c-.23-.06-.56,0-.58-.34s.26-.35.52-.41a1,1,0,0,0,.75-1.28c0-.23-.13-.42.1-.58a.57.57,0,0,1,.69.07.77.77,0,0,1,.32,1.11,3.2,3.2,0,0,1-.74,1.08A1.56,1.56,0,0,1,37.3,41.23Z"/><path class="cls-1" d="M31.28,74.29l.32.13c.75.3,1.17.17,1.5-.57.14-.34.28-.44.59-.29s.35.44.12.75a3.66,3.66,0,0,1-1,.86A1.26,1.26,0,0,1,31,74.7C30.9,74.5,31,74.29,31.28,74.29Z"/><path class="cls-1" d="M23.22,33c-.82-.1-1.68-.13-2.5-.31a7.53,7.53,0,0,1-4-2.47c-.16-.18-.34-.35-.5-.54a1.65,1.65,0,0,1-.13-1.78.37.37,0,0,1,.67,0,5.82,5.82,0,0,0,.92,1.05,7,7,0,0,0,4.55,2.37,13.67,13.67,0,0,0,4.14-.43c.37-.07.71-.2.9.26a.84.84,0,0,1-.5,1.08,11.16,11.16,0,0,1-2.55.68C23.91,32.94,23.58,33,23.22,33Z"/><path class="cls-1" d="M31.57,20.5A6,6,0,0,1,29.38,20a2,2,0,0,0-1.95.2,3.72,3.72,0,0,1-2,.65,3.64,3.64,0,0,1-2.64-1.12,2.05,2.05,0,0,1-.42-.71.47.47,0,0,1,.15-.59.43.43,0,0,1,.59.06,4,4,0,0,0,1.54.91,2.71,2.71,0,0,0,2.14-.25l.71-.41a2.19,2.19,0,0,1,2.12-.13,5.44,5.44,0,0,0,2.16.42,2.6,2.6,0,0,0,1.87-.71l.3-.28c.23-.26.48-.48.85-.29s.33.63,0,1a3.7,3.7,0,0,1-2.24,1.56C32.23,20.44,31.84,20.46,31.57,20.5Z"/><path class="cls-1" d="M34.1,33.15a3,3,0,0,1-1.89-.67c-.27-.21-.64-.5-.48-.85s.66-.16.95-.05a4.42,4.42,0,0,0,4-.26,5.31,5.31,0,0,0,2-2.26c.31-.58.56-1.19.84-1.79a4.63,4.63,0,0,1,1.8-2.09c.28-.18.58-.38.89-.1s.19.65.06,1a.93.93,0,0,1-.38.43,4.58,4.58,0,0,0-1.7,2.06,14.75,14.75,0,0,1-1.63,2.75C37.46,32.64,36.07,33.1,34.1,33.15Z"/><path class="cls-1" d="M40.58,7a6.28,6.28,0,0,1,3.67,1.28,11.31,11.31,0,0,1,2.56,2.42,5.91,5.91,0,0,1,1.12,4.56,3.23,3.23,0,0,1-.58,1.26c-.15.22-.35.49-.67.32s-.23-.47-.17-.74a1,1,0,0,1,.08-.31c.8-1.51.17-2.83-.61-4.08a10.51,10.51,0,0,0-2.83-2.73,6.31,6.31,0,0,0-2.52-1l-.72-.18c-.19-.06-.37-.19-.35-.4A.49.49,0,0,1,40,7,3.62,3.62,0,0,1,40.58,7Z"/><path class="cls-1" d="M25.87,7.47A9.26,9.26,0,0,1,23,6.87a9.25,9.25,0,0,0-3.29-.63A3.53,3.53,0,0,0,17.57,7c-.2.14-.39.53-.67.26s-.12-.62.12-.89A3.69,3.69,0,0,1,20.36,5,13.07,13.07,0,0,1,24,5.76a6.7,6.7,0,0,0,2.35.39c.33,0,.69,0,.76.42a1,1,0,0,1-.71.89A2.77,2.77,0,0,1,25.87,7.47Z"/><path class="cls-1" d="M3.7,14.2A5.76,5.76,0,0,1,5.92,9.5c.55-.44,1.14-.85,1.71-1.28.28-.21.57-.37.87,0a.72.72,0,0,1-.08,1,14.09,14.09,0,0,1-1.32,1A5.43,5.43,0,0,0,5,12.55a3.81,3.81,0,0,0,1,4.14,2.62,2.62,0,0,1,.28.3c.19.24.1.46-.07.67s-.39.11-.57,0A4.07,4.07,0,0,1,3.7,14.2Z"/><path class="cls-1" d="M17.83,24.65A6.22,6.22,0,0,1,14,22.94a3.18,3.18,0,0,1-.74-.77,1,1,0,0,1-.2-.69.65.65,0,0,1,.38-.59c.29-.12.46.05.63.24a7.66,7.66,0,0,0,2.07,1.6,2.82,2.82,0,0,0,1.72.45,1.08,1.08,0,0,1,.4,0c.35.07.74.1.78.58a.94.94,0,0,1-.81.88A2.8,2.8,0,0,1,17.83,24.65Z"/><path class="cls-1" d="M14.28,17.05a3.59,3.59,0,0,1-3-2.59.91.91,0,0,1,.12-.47c.18-.33.42-.35.64-.05a3.68,3.68,0,0,1,.37.64,2.56,2.56,0,0,0,1.2,1.19A1.63,1.63,0,0,0,15,16a8.1,8.1,0,0,1,1.71-.24,1.61,1.61,0,0,1,1.54.57c.13.19.24.38.1.61a.62.62,0,0,1-.59.22h-.08c-1-.6-2.13-.22-3.21-.1Z"/><g id="Group_1096" data-name="Group 1096"><g id="Group_1090" data-name="Group 1090"><path id="Path_8924" data-name="Path 8924" class="cls-2" d="M27.4,54.24a5.54,5.54,0,0,1-2.68-.85,5.49,5.49,0,1,1,.43-9.52A5.49,5.49,0,1,1,27.4,54.24Zm-2.67-1.05,0,0a5.3,5.3,0,1,0,.42-9.15.1.1,0,0,1-.09,0,5.3,5.3,0,1,0-.42,9.14Z"/></g><g id="Group_1091" data-name="Group 1091"><path id="Path_8925" data-name="Path 8925" class="cls-2" d="M20.76,49.52a.84.84,0,0,1-.52.15h-.1l0-.45-.44,0,0,.49c0,.07-.25.2-.52.19h-.09l.17-3.76.62.3h.36l.31-.31.59.51a.44.44,0,0,1-.24.11Zm-.59-.47.11-2.44-.44,0L19.73,49Zm3.74.36s.36.35.56.58c0,.06-.08.09-.17.09l-1,0-.06,1.13c0,.06-.3.15-.56.14h-.13l.06-1.3-2-.09,0-.17,2,.09.05-1,.88.12c0,.07-.06.12-.21.14l0,.78h.27Zm-2.18-.69s-.2.17-.52.16H21.1l.13-2.64.68.29.33,0c.05-.23.12-.56.16-.79l.94.24c0,.1-.11.14-.24.13s-.39.3-.57.43l1.07.05.32-.32.6.52a.44.44,0,0,1-.22.1l-.09,1.85a.91.91,0,0,1-.55.16h-.11v-.24l-.77,0c-.24.44-.74.8-1.84,1l0-.08a2.07,2.07,0,0,0,1.28-.94l-.45,0Zm.09-2,0,.75.6,0,0-.75Zm.44,1.75a2.08,2.08,0,0,0,.11-.66v-.14l-.6,0,0,.81Zm1.31.07,0-.81-.62,0v.13a2.14,2.14,0,0,1-.11.67ZM23,46.74l0,.75.62,0,0-.75Z"/></g><g id="Group_1092" data-name="Group 1092"><path id="Path_8926" data-name="Path 8926" class="cls-2" d="M30.44,47.24s.45.39.72.65c0,.07-.09.09-.18.09l-1.12,0a4.49,4.49,0,0,1-.92,2c2.37,1,1.53,1.88.93,1.58a7.59,7.59,0,0,0-1.39-1.15,5.64,5.64,0,0,1-3,1l0-.07A5.3,5.3,0,0,0,28,50.09a13.37,13.37,0,0,0-1.66-.8,14.23,14.23,0,0,0,.66-1.5l-1.26,0,0-.18,1.38.07c.25-.65.48-1.28.57-1.63l1,.3c0,.06-.07.12-.25.11-.12.31-.3.76-.5,1.25l1.26.06c0-.25.07-.5.09-.76l1,.27c0,.1-.11.14-.24.13s0,.27-.07.4H30Zm-2.68.59c-.22.53-.46,1.08-.68,1.52.47.13.86.25,1.22.37a4.21,4.21,0,0,0,.77-1.83Z"/></g><g id="Group_1093" data-name="Group 1093"><path id="Path_8927" data-name="Path 8927" class="cls-2" d="M27.3,55.08a6.26,6.26,0,0,1-2.64-.71,6.21,6.21,0,0,1-2.7.46,6.31,6.31,0,1,1,.58-12.61h0a6.27,6.27,0,0,1,2.65.71,6.32,6.32,0,1,1,2.12,12.15ZM24.68,54l.08,0a5.88,5.88,0,0,0,2.56.71,5.95,5.95,0,0,0,.59-11.88h0a6,6,0,0,0-2.62.47.18.18,0,0,1-.16,0,5.78,5.78,0,0,0-2.56-.71,5.94,5.94,0,1,0-.59,11.87h0A5.9,5.9,0,0,0,24.6,54Z"/></g><g id="Group_1095" data-name="Group 1095"><g id="Group_1094" data-name="Group 1094"><path id="Path_8928" data-name="Path 8928" class="cls-2" d="M21.15,56.88l-.09,0L21,56.8l-.1,0a.15.15,0,0,1-.09-.06.18.18,0,0,1-.08-.2L21,55.42a.13.13,0,0,1,0-.07l.09,0,.2,0,.25.06a.89.89,0,0,1,.42.24.34.34,0,0,1,.06.35.31.31,0,0,1-.11.16.36.36,0,0,1-.2.06.4.4,0,0,1,.16.18.31.31,0,0,1,0,.23.4.4,0,0,1-.27.29A1,1,0,0,1,21.15,56.88Zm0-.37.08,0,.09,0a.33.33,0,0,0,.17,0,.14.14,0,0,0,.1-.1.13.13,0,0,0,0-.12.28.28,0,0,0-.15-.08l-.18-.06Zm.17-.56.17,0a.26.26,0,0,0,.15,0,.14.14,0,0,0,.08-.1.09.09,0,0,0,0-.11.29.29,0,0,0-.14-.08l-.08,0h-.07Z"/><path id="Path_8929" data-name="Path 8929" class="cls-2" d="M22.53,55.94a.23.23,0,0,1,.23-.19h0l.78.13a.24.24,0,0,1,0,.08v.09a.23.23,0,0,1-.06.12.15.15,0,0,1-.11,0l-.5-.09,0,.22.53.1a.14.14,0,0,1,0,.07v.09a.23.23,0,0,1-.06.12.14.14,0,0,1-.11,0l-.43-.07,0,.24.61.11s0,.05,0,.07a.28.28,0,0,1,0,.09.16.16,0,0,1-.06.13.14.14,0,0,1-.11,0l-.69-.12a.21.21,0,0,1-.18-.23v0Z"/><path id="Path_8930" data-name="Path 8930" class="cls-2" d="M24,56.16a.21.21,0,0,1,.21-.21h0L25,56l0,.07a.27.27,0,0,1,0,.09.16.16,0,0,1,0,.13.2.2,0,0,1-.11,0l-.5,0,0,.22.54,0,0,.07s0,.06,0,.09a.19.19,0,0,1-.05.13.14.14,0,0,1-.11,0l-.44,0v.25l.61,0a.26.26,0,0,1,0,.08.28.28,0,0,1,0,.09.18.18,0,0,1-.05.12.15.15,0,0,1-.11,0l-.69,0a.22.22,0,0,1-.22-.2s0,0,0,0Z"/><path id="Path_8931" data-name="Path 8931" class="cls-2" d="M25.86,57l0,.46-.09,0H25.7a.14.14,0,0,1-.09,0l-.08,0,0-.06a.36.36,0,0,1,0-.1l-.08-1.13a.24.24,0,0,1,0-.08l.08,0,.18,0,.23,0a.78.78,0,0,1,.51.11.44.44,0,0,1,.19.36.4.4,0,0,1-.06.26.46.46,0,0,1-.17.17l.18.21a1.19,1.19,0,0,1,.15.18.29.29,0,0,1-.08.14.24.24,0,0,1-.14,0h-.09a.09.09,0,0,1-.07,0l-.06,0-.05-.06L26,56.94Zm.13-.33a.18.18,0,0,0,.19-.2.17.17,0,0,0-.07-.13.31.31,0,0,0-.19,0h-.1l0,.36Z"/><path id="Path_8932" data-name="Path 8932" class="cls-2" d="M28.36,56.51a.49.49,0,0,1,0,.24.48.48,0,0,1-.09.21.5.5,0,0,1-.17.15.89.89,0,0,1-.53.11.62.62,0,0,1-.23-.07.49.49,0,0,1-.16-.16.73.73,0,0,1-.09-.22l-.18-.9.07,0,.11,0h.1l.07,0s0,0,.06,0a.32.32,0,0,1,0,.09l.15.72a.21.21,0,0,0,.1.16.24.24,0,0,0,.32-.06.32.32,0,0,0,0-.19l-.19-.89.08,0,.11,0h.17l.05,0a.3.3,0,0,1,0,.1Z"/></g></g><circle id="Ellipse_83" data-name="Ellipse 83" class="cls-2" cx="19.82" cy="55.69" r="0.42"/><circle id="Ellipse_84" data-name="Ellipse 84" class="cls-2" cx="29.49" cy="56.14" r="0.42"/></g></g></g></svg>