<svg xmlns="http://www.w3.org/2000/svg" viewBox="0 0 129.05 134.42"><defs><style>.cls-1{fill:#163d50;}.cls-2{fill:#b66496;}.cls-3,.cls-4,.cls-5,.cls-6,.cls-7{fill:none;stroke-linejoin:round;}.cls-3,.cls-4{stroke:#163d50;stroke-width:4.27px;}.cls-4,.cls-5,.cls-6{stroke-linecap:round;}.cls-5,.cls-6,.cls-7{stroke:#b66496;}.cls-5{stroke-width:3px;}.cls-6{stroke-width:2.29px;}.cls-7{stroke-width:2.5px;}</style></defs><g id="圖層_2" data-name="圖層 2"><g id="圖層_1-2" data-name="圖層 1"><g id="Group_6754" data-name="Group 6754"><path id="Path_54940" data-name="Path 54940" class="cls-1" d="M56,13.69a1.73,1.73,0,1,1-1.13-2.18h0A1.74,1.74,0,0,1,56,13.69Z"/><path id="Path_54941" data-name="Path 54941" class="cls-1" d="M62.17,13.51a1.14,1.14,0,1,1-.74-1.43h0A1.14,1.14,0,0,1,62.17,13.51Z"/><path id="Path_54942" data-name="Path 54942" class="cls-1" d="M57,4.56a.55.55,0,0,1-.68.35A.53.53,0,0,1,56,4.23a.54.54,0,0,1,.68-.35h0A.54.54,0,0,1,57,4.56Z"/><path id="Path_54943" data-name="Path 54943" class="cls-1" d="M65.15,1A.77.77,0,0,1,63.69.53.77.77,0,1,1,65.15,1Z"/><path id="Path_54944" data-name="Path 54944" class="cls-1" d="M58.32,20.48a.76.76,0,0,1-1,.49.76.76,0,1,1,1-.5Z"/></g><g id="Group_6782" data-name="Group 6782"><g id="Group_6775" data-name="Group 6775"><g id="Group_6771" data-name="Group 6771"><g id="Group_6770" data-name="Group 6770"><path id="Path_55044" data-name="Path 55044" class="cls-2" d="M94.5,90.89,85.79,120.5a1,1,0,0,0,.68,1.24h0L94,124l9.27-31.53-7.57-2.22a1,1,0,0,0-1.24.67Z"/></g><path id="Path_55045" data-name="Path 55045" class="cls-2" d="M103.85,90.39a1,1,0,0,0-1.24.67c-1.59,5.42-9.48,32.28-11.06,37.69a1,1,0,0,0,.67,1.23h0l14.86,4.36a2.17,2.17,0,0,0,2.13-.59h0l0,0a2.69,2.69,0,0,0,.7-2.82c-2.89-8.51-5.88-17.55-9-27.37a.34.34,0,0,1,0-.2l.3-1a.34.34,0,0,1,.42-.23.37.37,0,0,1,.23.24l.07.27a69.71,69.71,0,0,0,2.73,8.67c2.63,6.41,4.81,13,6.88,19.4a.34.34,0,0,0,.43.22.38.38,0,0,0,.15-.09l.37-.4a.38.38,0,0,0,.08-.34c-2.06-6.36-4.22-12.86-6.83-19.24a69,69,0,0,1-2.68-8.52c-.27-1-.55-2-.85-3.07a.34.34,0,0,1,0-.2l.3-1a.36.36,0,0,1,.44-.23.37.37,0,0,1,.22.22c3,9.42,6.37,19.33,10.1,30.14l0,.32a.77.77,0,0,0,.22,1.06.72.72,0,0,0,.55.11.31.31,0,0,0,.24-.12,68.94,68.94,0,0,0,14.23-25.42.73.73,0,0,0-.49-.91.57.57,0,0,0-.22,0,.31.31,0,0,1-.31-.23c-.44-1.33-.87-2.65-1.31-4a.35.35,0,0,1,.22-.44.37.37,0,0,1,.21,0l1,.3a.33.33,0,0,1,.22.21l0,.1a.64.64,0,0,0,.82.39.64.64,0,0,0,.41-.46.8.8,0,0,0-.11-.35,3,3,0,0,0-1.87-1.55Zm22,15.15-.23-.66q-1.14-3.33-2.31-6.7a.35.35,0,0,1,.21-.44.3.3,0,0,1,.21,0l.69.2.23.23,2.11,6.4a.3.3,0,0,1,0,.21c-.08.26-.16.52-.25.77a.35.35,0,0,1-.44.22A.35.35,0,0,1,125.83,105.54Zm-1.13,4.6c-1-2.52-1.81-5.08-2.58-7.55-.55-1.73-1.12-3.51-1.75-5.28a.34.34,0,0,1,.2-.44.33.33,0,0,1,.22,0l.74.22a.32.32,0,0,1,.22.22l2.75,8,1,2.84a.49.49,0,0,1,0,.24c-.25.62-.5,1.25-.76,1.86Zm-1.81,2.69-.25-.71c-1.61-4.8-3.27-9.62-4.88-14.27l-.51-1.46a.35.35,0,0,1,.21-.44.33.33,0,0,1,.22,0l.89.27a.35.35,0,0,1,.23.21c.82,2.19,1.52,4.39,2.2,6.52.78,2.49,1.59,5.07,2.6,7.6l.38,1.12a.39.39,0,0,1,0,.26c-.15.31-.3.63-.44,1a.36.36,0,0,1-.47.16.37.37,0,0,1-.17-.2Zm-1.58,3.1c-.52-1.56-1-3.1-1.56-4.64-1.74-5.18-3.52-10.46-5.33-15.75a.33.33,0,0,1,.21-.43.3.3,0,0,1,.21,0l.64.19a.34.34,0,0,1,.23.22l.94,2.73c1.61,4.64,3.27,9.45,4.89,14.26l.84,2.44a.36.36,0,0,1,0,.27c-.14.26-.27.52-.42.78a.33.33,0,0,1-.46.14.34.34,0,0,1-.17-.2Zm-1.68,2.94-1.47-4.18c-2.33-6.59-4.7-13.32-7-20.11a.36.36,0,0,1,.22-.44.37.37,0,0,1,.21,0l1.06.31a.37.37,0,0,1,.22.22c2,5.71,3.88,11.4,5.76,17q1,3.09,2.1,6.23a.37.37,0,0,1,0,.29c-.15.25-.3.51-.46.76a.34.34,0,0,1-.47.11.38.38,0,0,1-.15-.18Zm-1.95,3c-3.32-9.67-6.49-19.21-9.43-28.19a.34.34,0,0,1,.22-.43.28.28,0,0,1,.2,0l.75.22a.35.35,0,0,1,.23.23c2.41,7.2,4.94,14.37,7.41,21.36.65,1.84,1.3,3.7,2,5.56a.34.34,0,0,1,0,.31c-.22.35-.45.69-.69,1a.34.34,0,0,1-.48.09.31.31,0,0,1-.13-.17ZM105.27,92.82a.34.34,0,0,1,.23-.43.31.31,0,0,1,.19,0l.82.24a.36.36,0,0,1,.23.22c3.18,9.73,6.63,20.15,10.27,30.7a.32.32,0,0,1-.05.31l-.4.54a.34.34,0,0,1-.48.07.28.28,0,0,1-.12-.16c-3.65-10.25-7.4-20.81-10.69-31.49ZM103.46,95l.3-1a.34.34,0,0,1,.66,0c3.36,10.8,7.16,21.46,10.84,31.8,0,.1,0,.23-.06.33-.19.25-.39.49-.59.74a.36.36,0,0,1-.49,0,.33.33,0,0,1-.11-.15c-3.91-11.37-7.37-21.72-10.54-31.59a.26.26,0,0,1,0-.21Zm-6.86,22.3.11.32q1,3,2,5.93a.35.35,0,0,1-.13.38,2.74,2.74,0,0,0-.36.32,1.63,1.63,0,0,0-.17.2.34.34,0,0,1-.48.06.3.3,0,0,1-.12-.17c-.5-1.51-1-3-1.52-4.57a.26.26,0,0,1,0-.21Zm.85-2.78a.35.35,0,0,1,.43-.23.37.37,0,0,1,.23.23l1.24,3.6,1.05,3.06c.26.76.51,1.5.75,2.25a.35.35,0,0,1-.22.44.37.37,0,0,1-.21,0l-.78-.24h0c-.68-2.1-1.38-4.25-2.12-6.39l-.6-1.72a.38.38,0,0,1,0-.21ZM108,131.74c-.64-2-.85-2.39-1.56-4.33-.36-1-.71-2-1.06-3-1.44-4.16-2.8-8.29-4.12-12.28-.51-1.55-1-3.12-1.56-4.69a.38.38,0,0,1,0-.21l.25-.8a.34.34,0,0,1,.43-.23.32.32,0,0,1,.22.22c3.1,9.58,5.51,16.88,8.35,25.21.09.26.14.48-.12.4l-.6-.06a.35.35,0,0,1-.23-.21Zm-5.71-1.65a3.11,3.11,0,0,0,.33-.29,4,4,0,0,0,.43-.56l.06.19c.3.87.6,1.75.91,2.63v0l-1.3-.39a.37.37,0,0,1-.23-.23l-.33-1a.36.36,0,0,1,.12-.38Zm-2.37,0,1,.3h.06l0,.16a.35.35,0,0,1-.22.44.34.34,0,0,1-.2,0l-.85-.25a.32.32,0,0,1-.22-.22.34.34,0,0,1,.22-.43.3.3,0,0,1,.21,0Zm-1.2-1.9a.34.34,0,0,1-.23-.22,3.42,3.42,0,0,1,.88-2.86.32.32,0,0,1,.32-.07l1.57.48a.33.33,0,0,0,.33-.07l.2-.17a3.59,3.59,0,0,0,.7-1.27.35.35,0,0,0,0-.25q-.48-1.49-1-3l-1.05-3.06c-.68-2-1.38-4-2.07-6a.41.41,0,0,1,0-.22l.38-1.21a.35.35,0,0,1,.43-.23.37.37,0,0,1,.23.23c.24.74.49,1.48.73,2.21,1.32,4,2.69,8.13,4.13,12.3l1.06,3c.56,1.51,1.13,3.05,1.65,4.58a.35.35,0,0,1-.21.44.33.33,0,0,1-.22,0l-1-.3a.32.32,0,0,1-.22-.22l-.23-.65c-.31-.88-.61-1.75-.91-2.63a1.52,1.52,0,0,0-2-.87,1.6,1.6,0,0,0-.77.66.38.38,0,0,1-.38.13Zm-1.86,1.55q-1-3.11-2.13-6.18a.38.38,0,0,1,0-.21l.24-.78a.35.35,0,0,1,.66,0c.4,1.21.79,2.41,1.19,3.6l.19.58a.38.38,0,0,1,0,.15,4.1,4.1,0,0,0,0,1.16,2.05,2.05,0,0,0,.6,1.22,2,2,0,0,0,.55.3l-.23.65-.86-.26a.34.34,0,0,1-.23-.22Zm-3.27-2.72.21-.68a.35.35,0,0,1,.44-.23.34.34,0,0,1,.22.22l.87,2.53a.35.35,0,0,1-.22.44.37.37,0,0,1-.21,0l-.45-.14a.33.33,0,0,1-.22-.21l-.63-1.71a.41.41,0,0,1,0-.22Z"/></g><g id="Group_6772" data-name="Group 6772"><path id="Path_55046" data-name="Path 55046" class="cls-2" d="M79.43,104.31a.72.72,0,0,1-1,.25h0a17.86,17.86,0,0,1-3.37-2.69,5.43,5.43,0,0,0,.86-1.21,17.34,17.34,0,0,0,3.26,2.65A.74.74,0,0,1,79.43,104.31Z"/><path id="Path_55047" data-name="Path 55047" class="cls-2" d="M63.45,111.36a75.45,75.45,0,0,0,10.73,3.58A5.09,5.09,0,0,0,78,114.2a.72.72,0,0,1,.59-.1l7.8,2.11,7-23c-.54-.86-1.41-3.46-2.77-12.35a12.47,12.47,0,0,0-1.56-4.39c-1.6-2.72-4.14-7.2-4.55-8.2-.07-.16-.14-.33-.22-.5a8.49,8.49,0,0,1-.59-6.35,25,25,0,0,1,1.15-3.28l.38-.93a2,2,0,0,0,.14-1.53,2.07,2.07,0,0,0-1.4-.81c-1.58-.39-4,1.48-5.2,3.41l-.35.58C76.92,61.41,75,64.6,76.92,69.42a1,1,0,0,1,0,.17c0,.28.13.69.27,1.29A22.71,22.71,0,0,1,77.05,82a7.43,7.43,0,0,0-1.32-.74,21.26,21.26,0,0,0,.08-10c-.14-.6-.23-1-.28-1.33-2.16-5.47.16-9.27,1.69-11.79.12-.2.24-.38.35-.57,1.44-2.41,4.45-4.66,6.8-4.08A3.35,3.35,0,0,1,86.71,55a3.26,3.26,0,0,1-.07,2.73l-.39.95a24.38,24.38,0,0,0-1.09,3.11,7,7,0,0,0,.51,5.37q.14.28.24.54c.33.81,2.62,4.88,4.46,8a13.87,13.87,0,0,1,1.74,4.91c1.21,7.89,2.14,11.27,2.57,11.79a.73.73,0,0,1,.28.81l-7.39,24.08a.72.72,0,0,1-.89.49l-8.17-2.2a6.57,6.57,0,0,1-4.61.78c-1.2-.24-2.48-.52-3.7-.88-1-.3-6.56-2.4-7.42-2.84a.73.73,0,0,1,.67-1.3Z"/></g><g id="Group_6773" data-name="Group 6773"><path id="Path_55048" data-name="Path 55048" class="cls-2" d="M76.66,65.83a9.41,9.41,0,0,0-1.13-1.39.44.44,0,0,1,0-.62.43.43,0,0,1,.62,0,11.32,11.32,0,0,1,1.27,1.57C77.74,65.87,77,66.3,76.66,65.83Z"/><path id="Path_55049" data-name="Path 55049" class="cls-2" d="M78.72,60.49a7.25,7.25,0,0,0-.9-1.22.44.44,0,0,1,0-.62.43.43,0,0,1,.62,0,8.2,8.2,0,0,1,1,1.39C79.8,60.52,79,61,78.72,60.49Z"/><path id="Path_55050" data-name="Path 55050" class="cls-2" d="M77.54,64.18l-1.42-1.82c-.34-.44.29-1.06.63-.61l1.42,1.82C78.51,64,77.89,64.63,77.54,64.18Z"/><path id="Path_55051" data-name="Path 55051" class="cls-2" d="M78.06,62.4c-.41-.58-.84-1.14-1.28-1.69s.28-1.05.63-.61c.49.61,1,1.23,1.41,1.87C79.15,62.43,78.38,62.85,78.06,62.4Z"/><path id="Path_55052" data-name="Path 55052" class="cls-2" d="M82.94,62.65a2.32,2.32,0,0,0,.91,0,.44.44,0,0,0-.18-.86,1.23,1.23,0,0,1-.8-.09c-.5-.29-.52-1.9.76-4.19a2.17,2.17,0,0,1,2.4-.6.44.44,0,0,0,.37-.8,3,3,0,0,0-3.53,1c-1.41,2.52-1.58,4.74-.43,5.39A2.34,2.34,0,0,0,82.94,62.65Z"/></g><path id="Path_55053" data-name="Path 55053" class="cls-2" d="M91.47,99.3l-5.18,4c-.45.34.13,1,.58.66l5.18-4C92.5,99.61,91.92,99,91.47,99.3Z"/><path id="Path_55054" data-name="Path 55054" class="cls-2" d="M90.62,102.26l-8.19,6.28c-.45.34.13,1,.58.66l8.19-6.28C91.65,102.58,91.07,101.92,90.62,102.26Z"/><path id="Path_55055" data-name="Path 55055" class="cls-2" d="M89.43,105.75,78.73,114c-.45.34.13,1,.57.66L90,106.41C90.46,106.06,89.88,105.41,89.43,105.75Z"/><path id="Path_55056" data-name="Path 55056" class="cls-2" d="M88.48,108.87l-7.32,5.61c-.45.34.13,1,.57.66l6.88-5.27C89.06,109.53,88.93,108.53,88.48,108.87Z"/><path id="Path_55057" data-name="Path 55057" class="cls-2" d="M87.46,112.41l-3.77,2.89c-.45.35.13,1,.57.66l3.33-2.54C88,113.07,87.9,112.07,87.46,112.41Z"/><g id="Group_6774" data-name="Group 6774"><path id="Path_55058" data-name="Path 55058" class="cls-2" d="M77.65,80.94a14.08,14.08,0,0,0,1.87,1.58c.46.32-.14,1-.59.64a14,14,0,0,1-1.87-1.57C76.66,81.19,77.25,80.54,77.65,80.94Z"/><path id="Path_55059" data-name="Path 55059" class="cls-2" d="M77.62,78.92c.68.58,1.38,1.13,2.09,1.66.46.33-.14,1-.59.65-.72-.53-1.42-1.08-2.09-1.66C76.59,79.2,77.19,78.56,77.62,78.92Z"/><path id="Path_55060" data-name="Path 55060" class="cls-2" d="M77.59,77a19.8,19.8,0,0,0,1.78,1.39c.47.3.07,1.08-.4.78a22.29,22.29,0,0,1-2-1.52C76.56,77.29,77.15,76.64,77.59,77Z"/><path id="Path_55061" data-name="Path 55061" class="cls-2" d="M77.51,75.09l1.83,1.46c.44.35-.15,1-.59.65l-1.83-1.46C76.48,75.39,77.07,74.74,77.51,75.09Z"/><path id="Path_55062" data-name="Path 55062" class="cls-2" d="M78,83.29l1.83,1.45c.44.36-.16,1-.6.65l-1.82-1.46C76.93,83.58,77.53,82.94,78,83.29Z"/><path id="Path_55063" data-name="Path 55063" class="cls-2" d="M77.43,73.16c.59.55,1.19,1.08,1.81,1.58.44.36-.15,1-.59.65-.62-.5-1.23-1-1.81-1.58C76.43,73.42,77,72.78,77.43,73.16Z"/><path id="Path_55064" data-name="Path 55064" class="cls-2" d="M77.74,71.29A15.58,15.58,0,0,0,79,72.57c.44.36-.15,1-.59.65a17.43,17.43,0,0,1-1.3-1.28A.44.44,0,0,1,77.74,71.29Z"/></g><path id="Path_55065" data-name="Path 55065" class="cls-2" d="M68.17,111.81a14.34,14.34,0,0,1,1.23,2.11c.24.51,1,0,.73-.47a13.06,13.06,0,0,0-1.23-2.11C68.58,110.88,67.84,111.35,68.17,111.81Z"/><path id="Path_55066" data-name="Path 55066" class="cls-2" d="M65.46,111.14a13.84,13.84,0,0,1,1.23,2.11c.24.51,1,0,.74-.47a14.44,14.44,0,0,0-1.23-2.12C65.87,110.2,65.13,110.67,65.46,111.14Z"/><path id="Path_55067" data-name="Path 55067" class="cls-2" d="M72.89,113.11a22.45,22.45,0,0,1,1.07,2c.21.52,1.05.26.83-.27a20.85,20.85,0,0,0-1.16-2.19C73.36,112.15,72.62,112.62,72.89,113.11Z"/><path id="Path_55068" data-name="Path 55068" class="cls-2" d="M70.42,112.52l1.13,2.06c.27.5,1,0,.73-.48l-1.12-2C70.89,111.56,70.15,112,70.42,112.52Z"/></g><g id="Group_6781" data-name="Group 6781"><g id="Group_6776" data-name="Group 6776"><path id="Path_55069" data-name="Path 55069" class="cls-3" d="M50.47,109.15l0-3c.05-.6.11-1.23.19-1.87s.18-1.17.29-1.77c1.14.28,2.23.63,3.26,1a6.6,6.6,0,0,0,1.33,3c.73,1,5.68,3.44,5.68,3.44a16.5,16.5,0,0,0,4.6-.16c-5.37,5.73-10.91.81-15.06,1.89A14,14,0,0,1,50.47,109.15Z"/><path id="Path_55070" data-name="Path 55070" class="cls-3" d="M59.78,67.69h0c.82-3.32,1.48-6,2.09-8.47C76.17,61.13,75,66,75.12,66.83a12,12,0,0,0,.75,2.76c0,.34.15.81.29,1.37a21.94,21.94,0,0,1-.11,10.44,13.77,13.77,0,0,0-6.69-1.29c-.21,0-.41-.08-.62-.12.24-1.1.41-2,.49-2.56C69.82,73.28,70.66,68.65,59.78,67.69Z"/></g><g id="Group_6778" data-name="Group 6778"><g id="Group_6777" data-name="Group 6777"><path id="Path_55081" data-name="Path 55081" d="M58.56,70.26a.64.64,0,0,1-.25-.15c-.76-.82-.52-.6-1.28-1.42a.57.57,0,0,1,.83-.77h0c.76.82.51.6,1.27,1.42a.55.55,0,0,1,0,.79.56.56,0,0,1-.55.13Z"/><path id="Path_55082" data-name="Path 55082" d="M59.31,67.18a.56.56,0,0,1-.26-.17c-.33-.37-.65-.67-.95-1s.29.34-.12-.11a.57.57,0,0,1,.85-.75c.37.42-.31-.29.05,0s.64.63,1,1a.56.56,0,0,1,0,.79A.59.59,0,0,1,59.31,67.18Z"/></g><path id="Path_55088" data-name="Path 55088" class="cls-4" d="M12.73,97a11.13,11.13,0,0,1-2.68-1.77h0L18.5,69.5"/><path id="Path_55089" data-name="Path 55089" class="cls-4" d="M19.36,93.91,18,98.28l-2.32-.37"/><line id="Line_7" data-name="Line 7" class="cls-4" x1="28.34" y1="65.07" x2="19.99" y2="91.9"/><path id="Path_55090" data-name="Path 55090" class="cls-4" d="M29.37,54.42,31.17,56l-.47,1.53"/><path id="Path_55091" data-name="Path 55091" class="cls-4" d="M46.9,106.05h0a11.12,11.12,0,0,1-6.19-.79l-2.16-.94L47.83,70.8l2.91-9.9"/><path id="Path_55092" data-name="Path 55092" class="cls-4" d="M56.48,69.18l1.58-6.06L57.93,63a5.63,5.63,0,0,0-2.6-1.59"/><path id="Path_55093" data-name="Path 55093" class="cls-4" d="M39,79.18,32.2,102.45H32a13.23,13.23,0,0,1-7.9-2.4h0l5.46-18.6"/><path id="Path_55094" data-name="Path 55094" class="cls-4" d="M40.53,57.9a12.08,12.08,0,0,1,4.17,2h0L40,75.83"/><path id="Path_55095" data-name="Path 55095" class="cls-4" d="M37,57.51a10.27,10.27,0,0,1,3.57.39"/><line id="Line_8" data-name="Line 8" class="cls-4" x1="30.65" y1="77.59" x2="32.72" y2="70.54"/><path id="Path_55096" data-name="Path 55096" class="cls-4" d="M42.37,110.81q1.55.14,3.06.21"/><path id="Path_55097" data-name="Path 55097" class="cls-4" d="M5.09,95.72c1.06,4.7,13.59,10.63,27.38,13.56"/><path id="Path_55098" data-name="Path 55098" class="cls-3" d="M14.8,70.72c2.55-7.76,4.51-13.29,6-17.71a7.64,7.64,0,0,0,1.95.37c4.31.28-.52,9.12-3.74,14.28a3.22,3.22,0,0,0,1,4.43,2.83,2.83,0,0,0,.79.36h0a3.16,3.16,0,0,0,3.88-2.22,3.05,3.05,0,0,0,.11-1,34.75,34.75,0,0,1,.42-6.75c1.09-7.07,5.58-10.72,8.86-9.75,2.63.77-1.42,5.29-3,7.83A3.17,3.17,0,1,0,37,62.19c-.06-1.5-.81-5.35.35-7.57a1.5,1.5,0,0,1,1.74-.72c2.21.63,16.35,4.19,23.38,1.43l.33.1c-1.75,5.7-2.94,11.88-6.57,25.42-3.4,12.64-7.12,24.91-5.3,31.19C54.38,124-6.23,106.13,3.12,98,7.76,93.93,11,82.4,14.8,70.72Z"/><path id="Path_55099" data-name="Path 55099" class="cls-4" d="M18.44,40.54a14.06,14.06,0,0,1,4.47-5.94A25.17,25.17,0,0,0,28.61,29c1.89-2.5,5.59-4.51,10.54-3.44C51,28.07,48.37,38.2,57.55,40.09c10.8,2.24,10.73,12.95,4.9,15.24-7,2.76-21.16-.8-23.37-1.43a1.5,1.5,0,0,0-1.74.72c-1.17,2.22-.41,6.06-.35,7.57a3.17,3.17,0,1,1-6.33.22,3.11,3.11,0,0,1,.48-1.8c1.59-2.54,5.64-7.06,3-7.83-3.28-1-7.77,2.68-8.86,9.75a34.75,34.75,0,0,0-.42,6.75,3.16,3.16,0,0,1-3,3.28,3.38,3.38,0,0,1-.95-.11h0a3.22,3.22,0,0,1-2.18-4,3.28,3.28,0,0,1,.35-.79c3.22-5.16,8.06-14,3.74-14.28C16.69,53,15.47,47,18.44,40.54Z"/></g><g id="Group_6779" data-name="Group 6779"><path id="Path_55100" data-name="Path 55100" class="cls-1" d="M31.33,37.47a1.59,1.59,0,1,1-1.55-1.62A1.59,1.59,0,0,1,31.33,37.47Z"/><path id="Path_55101" data-name="Path 55101" class="cls-1" d="M29.42,48.23a1,1,0,1,1-1-1.07h0A1,1,0,0,1,29.42,48.23Z"/><path id="Path_55102" data-name="Path 55102" class="cls-1" d="M56.75,41.27a.5.5,0,0,1-1,0,.51.51,0,0,1,.5-.5h0A.51.51,0,0,1,56.75,41.27Z"/><path id="Path_55103" data-name="Path 55103" class="cls-1" d="M52.13,41.24a1.27,1.27,0,1,1-.26-1.77,1.26,1.26,0,0,1,.26,1.77Z"/><path id="Path_55104" data-name="Path 55104" class="cls-1" d="M36.63,38.19a1.27,1.27,0,1,1-.26-1.77A1.26,1.26,0,0,1,36.63,38.19Z"/><path id="Path_55105" data-name="Path 55105" class="cls-1" d="M22.88,46a.59.59,0,1,1-.57-.6.59.59,0,0,1,.57.6Z"/><path id="Path_55106" data-name="Path 55106" class="cls-1" d="M44.33,33.57a.59.59,0,1,1-.58-.61.6.6,0,0,1,.58.6Z"/><path id="Path_55107" data-name="Path 55107" class="cls-1" d="M25.92,43a.7.7,0,1,1-.68-.71h0A.7.7,0,0,1,25.92,43Z"/><path id="Path_55108" data-name="Path 55108" class="cls-1" d="M50.44,47.76a.67.67,0,0,1-.94.14.68.68,0,1,1,.81-1.09h0A.67.67,0,0,1,50.44,47.76Z"/><path id="Path_55109" data-name="Path 55109" class="cls-1" d="M37.53,32.69a.68.68,0,0,1-1,.13.67.67,0,0,1-.13-.95.66.66,0,0,1,.94-.13A.67.67,0,0,1,37.53,32.69Z"/><path id="Path_55110" data-name="Path 55110" class="cls-1" d="M61.87,48.57a.67.67,0,0,1-.93.13.66.66,0,1,1,.79-1.05A.65.65,0,0,1,61.87,48.57Z"/><path id="Path_55111" data-name="Path 55111" class="cls-1" d="M41.56,42.23a.49.49,0,0,1-.5.49.5.5,0,0,1-.5-.5.51.51,0,0,1,.5-.5h0A.51.51,0,0,1,41.56,42.23Z"/><path id="Path_55112" data-name="Path 55112" class="cls-1" d="M36.72,49.45a.66.66,0,1,1-1-.79.66.66,0,1,1,1,.79Z"/></g><path id="Path_55113" data-name="Path 55113" class="cls-2" d="M59.47,103.5c.71-.45,1.45-.85,2.2-1.23.5-.25.8.57.3.82-.69.35-1.36.72-2,1.12C59.49,104.51,59,103.79,59.47,103.5Z"/><path id="Path_55114" data-name="Path 55114" class="cls-2" d="M57.75,103.22c.9-.52,1.8-1,2.71-1.53.49-.26,1,.45.5.72-.91.5-1.81,1-2.71,1.53C57.77,104.22,57.27,103.51,57.75,103.22Z"/><path id="Path_55115" data-name="Path 55115" class="cls-2" d="M56.53,102.5a23.81,23.81,0,0,0,2.41-1.24c.49-.28,1,.43.5.72a23.07,23.07,0,0,1-2.62,1.34C56.31,103.55,56,102.72,56.53,102.5Z"/><path id="Path_55116" data-name="Path 55116" d="M55.54,101.56c.79-.38,1.57-.78,2.34-1.22.48-.28,1,.44.49.72-.83.47-1.67.91-2.54,1.32C55.32,102.62,55,101.8,55.54,101.56Z"/><path id="Path_55117" data-name="Path 55117" class="cls-5" d="M56.17,98.1a10.31,10.31,0,0,0,2.55,2.38c2.1.63,5.29,1.67,6.64,2a10.61,10.61,0,0,0,2,.14,3.74,3.74,0,0,0,1.24.71c1.05.78,1.29,2.91.05,4.59-.42.57-5.92,1.27-7.42.89,0,0-4.94-2.41-5.68-3.44-2.22-2.9-1.5-5.92-.14-7.18C55.5,98.29,55.77,98.23,56.17,98.1Z"/><path id="Path_55118" data-name="Path 55118" class="cls-5" d="M58,93.36c2.06.56,7.2,2.92,8.66,3.32s7.63.08,8.1.06h0c3.49,2.13.22,6.09-2,6.55-.85.18-6.09.56-7.44.21s-4.55-1.39-6.64-2a12.21,12.21,0,0,1-3.68-4A8.92,8.92,0,0,1,57,93,4.1,4.1,0,0,0,58,93.36Z"/><path id="Path_55119" data-name="Path 55119" class="cls-2" d="M58.84,95.85c.64-.54,1.31-1,2-1.53.46-.32.87.46.41.78-.63.43-1.23.9-1.82,1.39C59,96.85,58.4,96.21,58.84,95.85Z"/><path id="Path_55120" data-name="Path 55120" d="M62.48,96.35c.49-.42,1-.81,1.53-1.19s.91.42.45.75-.91.69-1.35,1S62,96.71,62.48,96.35Z"/><path id="Path_55121" data-name="Path 55121" d="M60.71,96.09a16.82,16.82,0,0,0,1.46-1.19c.42-.37,1,.24.63.62s-1.07.91-1.64,1.33S60.26,96.42,60.71,96.09Z"/><path id="Path_55122" data-name="Path 55122" class="cls-2" d="M57.17,95.67q1.21-1,2.46-1.89c.45-.34,1,.3.6.64q-1.24.93-2.46,1.89C57.32,96.66,56.73,96,57.17,95.67Z"/><path id="Path_55123" data-name="Path 55123" class="cls-5" d="M55.83,86.32c.3-.77,1.8-1.25,3.3-1.4a4.41,4.41,0,0,0,.72.5A53.38,53.38,0,0,0,68,88.63a34.65,34.65,0,0,0,7.55,0h0a2.62,2.62,0,0,1,1.08.57c2.89,3.26.67,7.37-1.92,7.5-.46,0-6.64.34-8.1-.06S60,93.92,58,93.37a5.15,5.15,0,0,1-3.35-3.19C54.05,89.09,55.55,87,55.83,86.32Z"/><path id="Path_55124" data-name="Path 55124" class="cls-2" d="M59.89,88.23c.71-.5,1.45-1,2.2-1.41.49-.28.86.52.37.8-.69.4-1.36.82-2,1.28C60,89.22,59.43,88.55,59.89,88.23Z"/><path id="Path_55125" data-name="Path 55125" class="cls-2" d="M61.64,88.72c.71-.5,1.44-1,2.19-1.4.49-.28.86.51.38.79-.69.4-1.36.83-2,1.28C61.74,89.72,61.18,89.05,61.64,88.72Z"/><path id="Path_55126" data-name="Path 55126" class="cls-2" d="M58.93,87.25c.54-.36,1.09-.71,1.65-1s.86.51.37.79-1,.59-1.45.91S58.46,87.57,58.93,87.25Z"/><path id="Path_55127" data-name="Path 55127" class="cls-2" d="M65.07,93.62c.26-.86.49-1.72.68-2.59.12-.55,1-.44.87.11-.21,1-.46,1.88-.74,2.81C65.72,94.49,64.91,94.15,65.07,93.62Z"/><path id="Path_55128" data-name="Path 55128" class="cls-6" d="M68.28,105.66c.93.24.37,2.32,0,2.81a4.14,4.14,0,0,1-1.14.55.85.85,0,0,1-1.08-.56.91.91,0,0,1,0-.4,4.11,4.11,0,0,0,.05-1,1,1,0,0,1,.62-1A4.5,4.5,0,0,1,68.28,105.66Z"/><path id="Path_55129" data-name="Path 55129" class="cls-6" d="M74.85,98.08c1,.1.52,2.66.19,3.2a3.77,3.77,0,0,1-1.8.47,1.05,1.05,0,0,1-1.12-1,.34.34,0,0,1,0-.1c0-.35,0-.72,0-1a1.23,1.23,0,0,1,.94-1.25A13.79,13.79,0,0,1,74.85,98.08Z"/><g id="Group_6780" data-name="Group 6780"><path id="Path_55130" data-name="Path 55130" class="cls-7" d="M68.83,80l-4-1.6h0c-.78-.27-3.42-1.12-4.94-.68a7.53,7.53,0,0,1,4.39-1.62c.36,0,4.72-.2,5.1-.16C69.32,76.32,68.84,80,68.83,80Z"/></g><path id="Path_55131" data-name="Path 55131" class="cls-5" d="M65.11,78.5s-3.37-1.28-5.17-.77-2.25,3.57-2.08,4.8a3.79,3.79,0,0,0,2,2.89A52.58,52.58,0,0,0,68,88.63a35.19,35.19,0,0,0,7.54,0c1.54-.52,3.78-3.67,1.92-6.26-.78-1.08-4.81-2.61-8.12-2.31A14,14,0,0,1,65.11,78.5Z"/><path id="Path_55132" data-name="Path 55132" class="cls-6" d="M73.45,86.23c0,.23,0,.46-.08.67a.78.78,0,0,0,.66.85,4.85,4.85,0,0,0,2.55-.38c.52-.19,1.14-2.62.75-3.71-.1-.29-1,0-2,.29A2.69,2.69,0,0,0,73.45,86.23Z"/><path id="Path_55133" data-name="Path 55133" class="cls-2" d="M70.23,82.21c.06-.65.13-1.29.23-1.93s.94-.35.85.2-.15,1.14-.2,1.71S70.18,82.77,70.23,82.21Z"/><path id="Path_55134" data-name="Path 55134" class="cls-2" d="M68.82,82.67c.09-.63.16-1.25.19-1.88s.9-.58.87,0a18.21,18.21,0,0,1-.21,2.1C69.59,83.43,68.74,83.22,68.82,82.67Z"/><path id="Path_55135" data-name="Path 55135" class="cls-2" d="M67.31,82.05a8.68,8.68,0,0,0,.13-1.25c0-.56.9-.58.88,0a10.49,10.49,0,0,1-.16,1.47C68.08,82.82,67.23,82.6,67.31,82.05Z"/><path id="Path_55136" data-name="Path 55136" class="cls-6" d="M73.33,93c0,.41-.07.82-.12,1.19a1.1,1.1,0,0,0,.91,1.26h.06a4.91,4.91,0,0,0,2.31-.26,3.52,3.52,0,0,0,.5-4.27c-.18-.26-1,0-2,.18A2.09,2.09,0,0,0,73.33,93Z"/><path id="Path_55137" data-name="Path 55137" class="cls-2" d="M66.51,81.69a.72.72,0,0,0,.5,0,15.74,15.74,0,0,1,2.51-.84.72.72,0,0,0,.53-.88.74.74,0,0,0-.85-.55,17,17,0,0,0-2.77.93.73.73,0,0,0-.38,1,.74.74,0,0,0,.47.41Z"/></g></g></g></g></svg>