<svg xmlns="http://www.w3.org/2000/svg" viewBox="0 0 129.05 118.84"><defs><style>.cls-1{fill:#163d50;}.cls-2{fill:#b66496;}.cls-3,.cls-4,.cls-5,.cls-6,.cls-7{fill:none;stroke-linejoin:round;}.cls-3,.cls-4{stroke:#163d50;stroke-width:4.27px;}.cls-4,.cls-5,.cls-6{stroke-linecap:round;}.cls-5,.cls-6,.cls-7{stroke:#b66496;}.cls-5{stroke-width:3px;}.cls-6{stroke-width:2.29px;}.cls-7{stroke-width:2.5px;}</style></defs><g id="圖層_2" data-name="圖層 2"><g id="圖層_1-2" data-name="圖層 1"><g id="Group_6754" data-name="Group 6754"><path id="Path_54945" data-name="Path 54945" class="cls-1" d="M70.13,15.68a1.73,1.73,0,1,1-2-1.36h0A1.72,1.72,0,0,1,70.13,15.68Z"/><path id="Path_54946" data-name="Path 54946" class="cls-1" d="M67.36,5.1A1.14,1.14,0,1,1,66,4.2a1.15,1.15,0,0,1,1.34.9Z"/><path id="Path_54947" data-name="Path 54947" class="cls-1" d="M57.58.44A.54.54,0,1,1,57,0h0A.53.53,0,0,1,57.58.44Z"/><path id="Path_54948" data-name="Path 54948" class="cls-1" d="M72.25,9.25a.76.76,0,0,1-1.5.3.76.76,0,1,1,1.5-.3Z"/><path id="Path_54949" data-name="Path 54949" class="cls-1" d="M60.39,12.11a.76.76,0,0,1-1.5.3.76.76,0,1,1,1.5-.3Z"/></g><g id="Group_6769" data-name="Group 6769"><g id="Group_6762" data-name="Group 6762"><g id="Group_6758" data-name="Group 6758"><g id="Group_6757" data-name="Group 6757"><path id="Path_54950" data-name="Path 54950" class="cls-2" d="M33.33,74.66l-7.56,2.2L35,108.41l7.57-2.2a1,1,0,0,0,.69-1.23h0L34.58,75.34a1,1,0,0,0-1.24-.68Zm-4.18,3.61a.29.29,0,0,1,.16-.36c1.29-.58,2.54-1.14,3.78-1.68a.31.31,0,0,1,.39.16v0l.12.39a.28.28,0,0,1-.16.35l-3.77,1.7a.29.29,0,0,1-.39-.15,0,0,0,0,0,0,0Zm.63,2.1A.31.31,0,0,1,30,80l3.77-1.7a.29.29,0,0,1,.38.15l0,0,0,.07-.17.36-3.78,1.65a.29.29,0,0,1-.39-.16v0Zm.53,1.71a.3.3,0,0,1,.16-.35L34,80.18l.25-.11a.31.31,0,0,1,.39.16v0l.08.27a.3.3,0,0,1-.16.35c-1.16.53-2.34,1-3.55,1.51l-.25.11a.3.3,0,0,1-.39-.16v0ZM30.89,84a.29.29,0,0,1,.17-.35l.42-.19c1.15-.44,2.27-.93,3.37-1.43a.29.29,0,0,1,.39.15v0l0,.18a.28.28,0,0,1-.16.35c-1.26.56-2.52,1.11-3.78,1.68a.29.29,0,0,1-.38-.15s0,0,0,0Zm.52,1.68,0,0,4-1.76a.29.29,0,0,1,.39.15,0,0,0,0,1,0,0l0,.15a.3.3,0,0,1-.16.35L33,85.8l-1,.47a.3.3,0,0,1-.39-.16v0Zm.64,2.1a.29.29,0,0,1,.16-.36l1.24-.55L36,85.74a.3.3,0,0,1,.4.16v0l.1.31a.3.3,0,0,1-.17.36l-3.79,1.63a.3.3,0,0,1-.39-.15s0,0,0,0Zm.59,1.94a.3.3,0,0,1,.16-.35l3.8-1.63a.28.28,0,0,1,.38.15l0,0,.1.33a.3.3,0,0,1-.16.35l-3.78,1.69a.3.3,0,0,1-.39-.17v0Zm.63,2.08a.31.31,0,0,1,.16-.36l3.78-1.68a.29.29,0,0,1,.39.15s0,0,0,0l.07.23a.3.3,0,0,1-.16.35l-3.79,1.64a.29.29,0,0,1-.39-.15,0,0,0,0,1,0,0Zm.57,1.87a.31.31,0,0,1,.17-.36l3.79-1.63a.29.29,0,0,1,.39.16v0l0,.16a.32.32,0,0,1-.16.36l-3.78,1.68a.3.3,0,0,1-.39-.16v0Zm.58,1.9a.31.31,0,0,1,.17-.36l3.77-1.68a.29.29,0,0,1,.39.15v0l.08.25a.29.29,0,0,1-.18.36c-1.28.5-2.55,1-3.81,1.55a.29.29,0,0,1-.38-.16v0Zm.55,1.8a.29.29,0,0,1,.17-.35c1.27-.54,2.54-1.06,3.82-1.56a.3.3,0,0,1,.39.18h0l0,.17a.29.29,0,0,1-.16.36l-3.76,1.71a.31.31,0,0,1-.39-.15.06.06,0,0,1,0,0ZM35.75,99l3.77-1.7a.29.29,0,0,1,.39.16v0a.28.28,0,0,1-.16.35L36,99.58a.29.29,0,0,1-.38-.16.3.3,0,0,1,.14-.38Zm.36,2a.3.3,0,0,1,.16-.35L40,99.05a.29.29,0,0,1,.39.15,0,0,0,0,1,0,0l.07.21a.29.29,0,0,1-.17.35l-.92.4-2.29,1-.57.25a.28.28,0,0,1-.38-.15l0,0Zm.57,1.88a.31.31,0,0,1,.16-.36l.76-.34,2.3-1,.72-.32a.29.29,0,0,1,.39.15,0,0,0,0,1,0,0l.1.3h0c-1.35.59-2.68,1.19-4,1.79a.28.28,0,0,1-.38-.15l0,0Zm.62,2-.08-.26a.3.3,0,0,1,.16-.35c1.24-.57,2.5-1.14,3.77-1.7a.31.31,0,0,1,.4.16v0l.09.27a.3.3,0,0,1-.17.36c-1.27.55-2.52,1.12-3.77,1.68a.3.3,0,0,1-.39-.14v0Zm2.2.66,2.56-1.14.1.33Z"/></g><path id="Path_54951" data-name="Path 54951" class="cls-2" d="M2,81.58A3,3,0,0,0,.11,83.12a.89.89,0,0,0-.11.35A.65.65,0,0,0,.77,84a.65.65,0,0,0,.46-.42l0-.1a.33.33,0,0,1,.22-.21l1-.29a.34.34,0,0,1,.43.23.37.37,0,0,1,0,.21C2.48,84.69,2,86,1.6,87.34a.32.32,0,0,1-.31.24.83.83,0,0,0-.22,0,.73.73,0,0,0-.49.91h0A69,69,0,0,0,14.74,114a.35.35,0,0,0,.23.12.77.77,0,0,0,.89-.62.71.71,0,0,0-.11-.55l0-.32c3.76-10.8,7.1-20.7,10.18-30.11a.34.34,0,0,1,.43-.22.35.35,0,0,1,.23.23l.3,1a.34.34,0,0,1,0,.2c-.3,1-.58,2-.85,3.06a70.25,70.25,0,0,1-2.7,8.52c-2.64,6.37-4.81,12.87-6.88,19.22a.35.35,0,0,0,.07.34l.37.4a.35.35,0,0,0,.49,0,.29.29,0,0,0,.09-.15c2.09-6.41,4.28-13,6.94-19.38a71.33,71.33,0,0,0,2.74-8.66,2.68,2.68,0,0,0,.07-.27.34.34,0,0,1,.42-.24.33.33,0,0,1,.24.23l.29,1a.34.34,0,0,1,0,.2C25,97.78,21.94,106.82,19,115.32a2.68,2.68,0,0,0,.7,2.82l0,0h0a2.17,2.17,0,0,0,2.12.6l14.87-4.33a1,1,0,0,0,.68-1.23h0c-1.57-5.42-9.39-32.29-11-37.71a1,1,0,0,0-1.23-.68Zm.57,8.32c-.09-.25-.17-.51-.25-.76a.28.28,0,0,1,0-.22q1.07-3.21,2.12-6.39l.23-.22.69-.2a.33.33,0,0,1,.42.23.37.37,0,0,1,0,.21l-2.33,6.7-.23.66a.35.35,0,0,1-.44.21.35.35,0,0,1-.21-.22Zm1.75,4.67c-.26-.61-.51-1.24-.75-1.86a.33.33,0,0,1,0-.24c.33-1,.66-1.9,1-2.83.91-2.63,1.83-5.29,2.76-8a.36.36,0,0,1,.23-.22l.74-.22a.36.36,0,0,1,.43.24.38.38,0,0,1,0,.21C8.06,83.46,7.49,85.24,6.94,87c-.79,2.47-1.6,5-2.6,7.54Zm1.18,2.67c-.15-.32-.29-.64-.43-.95A.34.34,0,0,1,5,96l.39-1.12c1-2.53,1.83-5.1,2.62-7.59.68-2.13,1.38-4.33,2.21-6.52a.35.35,0,0,1,.23-.21l.9-.26a.35.35,0,0,1,.43.23.37.37,0,0,1,0,.21l-.51,1.47C9.68,86.89,8,91.69,6.38,96.49l-.25.71a.35.35,0,0,1-.44.22.35.35,0,0,1-.2-.18Zm1.57,3.13c-.13-.26-.27-.52-.41-.78a.39.39,0,0,1,0-.28c.29-.81.57-1.62.85-2.43,1.63-4.8,3.3-9.61,4.92-14.25.32-.9.63-1.82.95-2.73a.35.35,0,0,1,.23-.21l.64-.19a.34.34,0,0,1,.43.23.3.3,0,0,1,0,.21C12.82,85.22,11,90.49,9.27,95.67c-.52,1.53-1,3.08-1.58,4.64a.34.34,0,0,1-.43.22.4.4,0,0,1-.2-.16Zm1.69,2.95-.46-.77a.34.34,0,0,1,0-.28L10.38,96c1.89-5.58,3.83-11.27,5.8-17a.39.39,0,0,1,.23-.22l1.05-.31a.35.35,0,0,1,.43.24.38.38,0,0,1,0,.21c-2.3,6.77-4.69,13.51-7,20.09-.49,1.38-1,2.77-1.48,4.17a.36.36,0,0,1-.45.21.39.39,0,0,1-.17-.14Zm1.95,3.05-.69-1a.38.38,0,0,1,0-.31l2-5.56c2.49-7,5-14.14,7.47-21.34a.32.32,0,0,1,.23-.22l.75-.22a.32.32,0,0,1,.42.23.28.28,0,0,1,0,.2c-3,9-6.16,18.5-9.51,28.17a.35.35,0,0,1-.44.21.31.31,0,0,1-.17-.13ZM13,108.7a.35.35,0,0,1-.44.21.28.28,0,0,1-.16-.12l-.4-.54a.32.32,0,0,1,0-.31c3.66-10.54,7.14-21,10.35-30.67a.36.36,0,0,1,.23-.22l.82-.24a.35.35,0,0,1,.43.23.38.38,0,0,1,0,.21C20.48,87.92,16.71,98.47,13,108.7ZM25.6,79.63c-3.2,9.85-6.69,20.2-10.63,31.55a.36.36,0,0,1-.44.22.46.46,0,0,1-.16-.11c-.2-.25-.4-.49-.59-.74l-.06-.33c3.71-10.33,7.54-21,10.93-31.77a.35.35,0,0,1,.66,0l.29,1a.37.37,0,0,1,0,.21ZM33.1,104a.37.37,0,0,1,0,.21q-.8,2.3-1.54,4.56a.34.34,0,0,1-.43.22.3.3,0,0,1-.17-.12l-.17-.19a2.74,2.74,0,0,0-.36-.32.33.33,0,0,1-.12-.38c.64-2,1.3-3.94,2-5.92l.11-.32Zm-1.3-4.26a.41.41,0,0,1,0,.22l-.6,1.71c-.75,2.14-1.46,4.28-2.15,6.39h0l-.78.23a.33.33,0,0,1-.43-.22.26.26,0,0,1,0-.21c.24-.75.5-1.5.76-2.26l1.06-3c.41-1.19.83-2.39,1.24-3.6a.36.36,0,0,1,.44-.22.34.34,0,0,1,.22.23ZM20.74,116.38l-.6.05c-.26.08-.21-.13-.12-.4,2.87-8.32,5.3-15.61,8.42-25.18a.34.34,0,0,1,.65,0l.25.8a.37.37,0,0,1,0,.21c-.53,1.57-1.06,3.14-1.57,4.69-1.33,4-2.71,8.11-4.16,12.27-.35,1-.7,2-1.06,3-.72,1.93-.93,2.36-1.58,4.32A.32.32,0,0,1,20.74,116.38Zm6.06-1.48-.33,1a.36.36,0,0,1-.23.22l-1.3.39v0c.31-.88.61-1.76.92-2.63l.06-.19a3.33,3.33,0,0,0,.43.56,2.89,2.89,0,0,0,.32.29.33.33,0,0,1,.12.38Zm2.68.1a.31.31,0,0,1-.22.22l-.84.25a.34.34,0,0,1-.43-.23.38.38,0,0,1,0-.21l.05-.16h.06l1-.3a.35.35,0,0,1,.43.23.38.38,0,0,1,0,.21Zm-1.62-1.6a.36.36,0,0,1-.38-.12,1.51,1.51,0,0,0-2.72.2c-.3.88-.61,1.75-.92,2.63l-.23.65a.34.34,0,0,1-.23.22l-1,.29A.35.35,0,0,1,22,117a.37.37,0,0,1,0-.21c.53-1.54,1.1-3.07,1.67-4.59.36-1,.72-2,1.07-3,1.45-4.17,2.83-8.3,4.16-12.29.25-.73.49-1.47.74-2.21a.35.35,0,0,1,.44-.22.34.34,0,0,1,.22.23l.37,1.21a.37.37,0,0,1,0,.21c-.7,2-1.4,4-2.08,6l-1.06,3.06c-.35,1-.68,2-1,3a.36.36,0,0,0,0,.25,3.4,3.4,0,0,0,.7,1.26l.19.18a.33.33,0,0,0,.33.07l1.57-.48a.35.35,0,0,1,.33.07,3.45,3.45,0,0,1,.87,2.86.35.35,0,0,1-.23.23Zm4,1-.86.26-.22-.66a1.69,1.69,0,0,0,.54-.3,2,2,0,0,0,.61-1.21,4.1,4.1,0,0,0,0-1.16.38.38,0,0,1,0-.15l.19-.58q.6-1.78,1.2-3.6a.34.34,0,0,1,.44-.21.31.31,0,0,1,.22.22l.24.78a.41.41,0,0,1,0,.22c-.73,2-1.44,4.1-2.15,6.17a.35.35,0,0,1-.23.21Zm3.49-2.71-.63,1.71a.35.35,0,0,1-.22.21l-.46.14a.35.35,0,0,1-.43-.24.31.31,0,0,1,0-.21l.87-2.52a.37.37,0,0,1,.45-.22.35.35,0,0,1,.21.23l.21.68a.3.3,0,0,1,0,.21Z"/></g><g id="Group_6759" data-name="Group 6759"><path id="Path_54952" data-name="Path 54952" class="cls-2" d="M49.61,88.8a.73.73,0,0,0,1,.26h0A18.25,18.25,0,0,0,54,86.37a5.43,5.43,0,0,1-.86-1.21,18,18,0,0,1-3.26,2.64A.73.73,0,0,0,49.61,88.8Z"/><path id="Path_54953" data-name="Path 54953" class="cls-2" d="M65.57,95.89a76.78,76.78,0,0,1-10.74,3.56A5.11,5.11,0,0,1,51,98.69a.76.76,0,0,0-.59-.1l-7.8,2.09-7-23c.54-.86,1.42-3.46,2.81-12.34A12.3,12.3,0,0,1,40,60.93c1.6-2.71,4.16-7.19,4.57-8.19.06-.15.14-.32.22-.49a8.5,8.5,0,0,0,.61-6.35,25.64,25.64,0,0,0-1.15-3.29c-.12-.3-.25-.61-.37-.92a1.94,1.94,0,0,1-.13-1.53,2,2,0,0,1,1.4-.81c1.57-.39,4,1.49,5.18,3.42l.35.58c1.55,2.56,3.48,5.75,1.53,10.57a.84.84,0,0,0,0,.17c0,.28-.12.69-.27,1.29a22.71,22.71,0,0,0,.15,11.11,7.43,7.43,0,0,1,1.32-.74,21.26,21.26,0,0,1,0-10c.14-.6.23-1,.28-1.33,2.17-5.46-.13-9.27-1.66-11.79L51.6,42c-1.44-2.42-4.44-4.67-6.79-4.1a3.34,3.34,0,0,0-2.35,1.55,3.22,3.22,0,0,0,.07,2.73c.12.32.25.64.38.95A26,26,0,0,1,44,46.27a7,7,0,0,1-.54,5.37l-.23.54c-.34.81-2.63,4.87-4.48,8A13.86,13.86,0,0,0,37,65.08c-1.23,7.89-2.16,11.27-2.6,11.79a.73.73,0,0,0-.28.81l7.32,24.09a.71.71,0,0,0,.88.49l8.18-2.18a6.6,6.6,0,0,0,4.62.79c1.19-.23,2.47-.51,3.7-.87,1-.3,6.56-2.38,7.42-2.82a.72.72,0,0,0,.31-1,.73.73,0,0,0-1-.32Z"/></g><g id="Group_6760" data-name="Group 6760"><path id="Path_54954" data-name="Path 54954" class="cls-2" d="M52.48,50.33a9.41,9.41,0,0,1,1.13-1.39.44.44,0,0,0,0-.62.43.43,0,0,0-.62,0h0a10.64,10.64,0,0,0-1.27,1.57C51.4,50.37,52.17,50.8,52.48,50.33Z"/><path id="Path_54955" data-name="Path 54955" class="cls-2" d="M50.43,45a7.68,7.68,0,0,1,.9-1.22.43.43,0,0,0,0-.62.45.45,0,0,0-.62,0,8.86,8.86,0,0,0-1,1.4C49.35,45,50.12,45.44,50.43,45Z"/><path id="Path_54956" data-name="Path 54956" class="cls-2" d="M51.61,48.68,53,46.86c.34-.44-.28-1.06-.63-.61L51,48.07C50.64,48.5,51.26,49.12,51.61,48.68Z"/><path id="Path_54957" data-name="Path 54957" class="cls-2" d="M51.09,46.89q.61-.86,1.29-1.68c.35-.44-.28-1.05-.63-.62-.49.61-1,1.23-1.42,1.87C50,46.92,50.77,47.35,51.09,46.89Z"/><path id="Path_54958" data-name="Path 54958" class="cls-2" d="M46.21,47.13a2.32,2.32,0,0,1-.91,0,.44.44,0,1,1,.18-.86,1.17,1.17,0,0,0,.8-.09c.51-.28.53-1.9-.75-4.19a2.18,2.18,0,0,0-2.39-.61.44.44,0,0,1-.58-.22.43.43,0,0,1,.21-.58h0a3,3,0,0,1,3.53,1c1.4,2.52,1.57,4.73.41,5.38A1.78,1.78,0,0,1,46.21,47.13Z"/></g><path id="Path_54959" data-name="Path 54959" class="cls-2" d="M37.58,83.75l5.17,4c.45.35-.13,1-.58.66l-5.17-4C36.55,84.07,37.14,83.41,37.58,83.75Z"/><path id="Path_54960" data-name="Path 54960" class="cls-2" d="M38.42,86.72,46.6,93c.45.34-.14,1-.58.66l-8.18-6.3C37.39,87,38,86.38,38.42,86.72Z"/><path id="Path_54961" data-name="Path 54961" class="cls-2" d="M39.6,90.21l10.69,8.23c.45.35-.13,1-.58.66L39,90.87C38.58,90.53,39.16,89.87,39.6,90.21Z"/><path id="Path_54962" data-name="Path 54962" class="cls-2" d="M40.54,93.33,47.86,99c.44.35-.14,1-.58.66l-6.87-5.29C40,94,40.1,93,40.54,93.33Z"/><path id="Path_54963" data-name="Path 54963" class="cls-2" d="M41.56,96.88l3.76,2.9c.45.35-.13,1-.58.66l-3.31-2.55C41,97.54,41.12,96.54,41.56,96.88Z"/><g id="Group_6761" data-name="Group 6761"><path id="Path_54964" data-name="Path 54964" class="cls-2" d="M51.46,65.44A14.9,14.9,0,0,1,49.58,67c-.46.32.14,1,.59.64a14.1,14.1,0,0,0,1.88-1.57C52.44,65.69,51.86,65,51.46,65.44Z"/><path id="Path_54965" data-name="Path 54965" class="cls-2" d="M51.49,63.42q-1,.86-2.1,1.65c-.45.33.14,1,.59.65q1.08-.8,2.1-1.65C52.52,63.7,51.92,63.06,51.49,63.42Z"/><path id="Path_54966" data-name="Path 54966" class="cls-2" d="M51.52,61.49a21.68,21.68,0,0,1-1.78,1.38c-.47.3-.07,1.08.4.78a24,24,0,0,0,2-1.52C52.56,61.78,52,61.14,51.52,61.49Z"/><path id="Path_54967" data-name="Path 54967" class="cls-2" d="M51.61,59.59,49.78,61c-.45.35.15,1,.59.65l1.83-1.45C52.64,59.89,52.05,59.24,51.61,59.59Z"/><path id="Path_54968" data-name="Path 54968" class="cls-2" d="M51.13,67.78,49.3,69.23c-.45.35.15,1,.59.65l1.83-1.45C52.16,68.08,51.57,67.43,51.13,67.78Z"/><path id="Path_54969" data-name="Path 54969" class="cls-2" d="M51.69,57.66c-.59.55-1.19,1.07-1.82,1.58-.44.35.16,1,.59.64.63-.5,1.23-1,1.82-1.57C52.69,57.92,52.1,57.27,51.69,57.66Z"/><path id="Path_54970" data-name="Path 54970" class="cls-2" d="M51.4,55.79c-.41.45-.85.87-1.3,1.28s.15,1,.59.64.88-.83,1.3-1.27S51.8,55.4,51.4,55.79Z"/></g><path id="Path_54971" data-name="Path 54971" class="cls-2" d="M60.86,96.33a13.11,13.11,0,0,0-1.24,2.11c-.24.51-1,0-.74-.48a14,14,0,0,1,1.24-2.11C60.44,95.39,61.18,95.87,60.86,96.33Z"/><path id="Path_54972" data-name="Path 54972" class="cls-2" d="M63.56,95.67a13.84,13.84,0,0,0-1.23,2.11c-.24.51-1,0-.74-.48a14,14,0,0,1,1.24-2.11C63.15,94.73,63.89,95.2,63.56,95.67Z"/><path id="Path_54973" data-name="Path 54973" class="cls-2" d="M56.13,97.62a21.22,21.22,0,0,0-1.08,2c-.21.51-1,.25-.83-.27a23,23,0,0,1,1.17-2.19C55.66,96.65,56.4,97.13,56.13,97.62Z"/><path id="Path_54974" data-name="Path 54974" class="cls-2" d="M58.59,97l-1.12,2c-.28.5-1,0-.74-.48l1.13-2C58.13,96.07,58.86,96.55,58.59,97Z"/></g><g id="Group_6768" data-name="Group 6768"><g id="Group_6763" data-name="Group 6763"><path id="Path_54975" data-name="Path 54975" class="cls-3" d="M78.55,93.72l0-3c0-.61-.1-1.23-.18-1.88s-.18-1.17-.28-1.77c-1.14.28-2.23.63-3.26,1a6.74,6.74,0,0,1-1.34,2.94c-.74,1-5.7,3.43-5.7,3.43a16.5,16.5,0,0,1-4.6-.17c5.36,5.75,10.91.83,15.06,1.93A14,14,0,0,0,78.55,93.72Z"/><path id="Path_54976" data-name="Path 54976" class="cls-3" d="M69.37,52.24h0c-.82-3.32-1.47-6.06-2.07-8.48C53,45.63,54.16,50.48,54,51.33a11.88,11.88,0,0,1-.76,2.76c-.05.34-.16.81-.29,1.37a21.86,21.86,0,0,0,.08,10.45,13.76,13.76,0,0,1,6.69-1.28,6.18,6.18,0,0,0,.62-.12c-.23-1.1-.4-2-.49-2.56C59.3,57.8,58.48,53.16,69.37,52.24Z"/></g><g id="Group_6765" data-name="Group 6765"><g id="Group_6764" data-name="Group 6764"><path id="Path_54987" data-name="Path 54987" d="M70.57,54.81a.56.56,0,0,0,.25-.16c.77-.81.52-.6,1.29-1.41a.57.57,0,0,0-.83-.77h0c-.76.82-.51.6-1.28,1.41a.58.58,0,0,0,0,.8.61.61,0,0,0,.55.13Z"/><path id="Path_54988" data-name="Path 54988" d="M69.83,51.72a.63.63,0,0,0,.26-.16c.34-.37.65-.68,1-1s-.29.34.11-.12a.56.56,0,0,0,0-.79.57.57,0,0,0-.8,0c-.37.42.31-.29,0,.05s-.65.62-1,1a.58.58,0,0,0,0,.8.56.56,0,0,0,.54.12Z"/></g><path id="Path_54994" data-name="Path 54994" class="cls-4" d="M116.33,81.66A11.38,11.38,0,0,0,119,79.89h0l-8.38-25.73"/><path id="Path_54995" data-name="Path 54995" class="cls-4" d="M109.71,78.56l1.35,4.38,2.32-.37"/><line id="Line_5" data-name="Line 5" class="cls-4" x1="100.81" y1="49.69" x2="109.09" y2="76.55"/><path id="Path_54996" data-name="Path 54996" class="cls-4" d="M99.8,39,98,40.57l.47,1.53"/><path id="Path_54997" data-name="Path 54997" class="cls-4" d="M82.14,90.62h0a11,11,0,0,0,6.19-.77l2.16-.93L81.3,55.37l-2.89-9.9"/><path id="Path_54998" data-name="Path 54998" class="cls-4" d="M72.65,53.73l-1.56-6.06.13-.13A5.68,5.68,0,0,1,73.82,46"/><path id="Path_54999" data-name="Path 54999" class="cls-4" d="M90.07,63.78l6.78,23.29h.25A13.3,13.3,0,0,0,105,84.7h0L99.59,66.08"/><path id="Path_55000" data-name="Path 55000" class="cls-4" d="M88.64,42.5a12.08,12.08,0,0,0-4.18,2h0L89.1,60.43"/><path id="Path_55001" data-name="Path 55001" class="cls-4" d="M92.21,42.11a10.24,10.24,0,0,0-3.57.39"/><line id="Line_6" data-name="Line 6" class="cls-4" x1="98.46" y1="62.21" x2="96.41" y2="55.15"/><path id="Path_55002" data-name="Path 55002" class="cls-4" d="M86.65,95.4c-1,.09-2.05.16-3.06.2"/><path id="Path_55003" data-name="Path 55003" class="cls-4" d="M124,80.4C122.9,85.11,110.36,91,96.55,93.9"/><path id="Path_55004" data-name="Path 55004" class="cls-3" d="M114.33,55.38c-2.53-7.76-4.47-13.3-6-17.72a8.07,8.07,0,0,1-2,.36c-4.31.27.51,9.12,3.7,14.29a3.22,3.22,0,0,1-1,4.43,2.89,2.89,0,0,1-.8.36h0a3.16,3.16,0,0,1-3.87-2.24,3.27,3.27,0,0,1-.11-.94,35.44,35.44,0,0,0-.4-6.75c-1.07-7.08-5.55-10.74-8.83-9.78-2.64.77,1.4,5.29,3,7.84a3.17,3.17,0,1,1-5.38,3.35,3.13,3.13,0,0,1-.48-1.79c.06-1.5.83-5.35-.33-7.56a1.49,1.49,0,0,0-1.74-.73c-2.2.62-16.35,4.15-23.37,1.37l-.34.1c1.73,5.7,2.91,11.89,6.51,25.43,3.36,12.65,7,24.93,5.21,31.21-3.49,11.9,57.17-5.76,47.84-13.93C121.31,78.61,118.14,67.07,114.33,55.38Z"/><path id="Path_55005" data-name="Path 55005" class="cls-4" d="M110.77,25.19a14.13,14.13,0,0,0-4.46-6,25.17,25.17,0,0,1-5.68-5.65c-1.89-2.5-5.58-4.52-10.53-3.47-11.81,2.52-9.26,12.65-18.44,14.52-10.8,2.2-10.76,12.92-4.94,15.23,7,2.78,21.17-.75,23.37-1.37a1.49,1.49,0,0,1,1.74.73c1.16,2.21.4,6.06.33,7.56A3.17,3.17,0,0,0,98.5,47a3.25,3.25,0,0,0-.48-1.8c-1.58-2.55-5.62-7.08-3-7.84,3.28-1,7.77,2.7,8.84,9.78a36.28,36.28,0,0,1,.4,6.75,3.16,3.16,0,0,0,3,3.28,3.38,3.38,0,0,0,1-.1h0a3.23,3.23,0,0,0,2.19-4,3.19,3.19,0,0,0-.35-.8c-3.2-5.17-8-14-3.7-14.29C112.48,37.64,113.72,31.64,110.77,25.19Z"/></g><g id="Group_6766" data-name="Group 6766"><path id="Path_55006" data-name="Path 55006" class="cls-1" d="M97.89,22.09a1.59,1.59,0,1,0,1.56-1.62,1.59,1.59,0,0,0-1.56,1.62Z"/><path id="Path_55007" data-name="Path 55007" class="cls-1" d="M99.77,32.85a1,1,0,1,0,1-1.06,1,1,0,0,0-1,1.06Z"/><path id="Path_55008" data-name="Path 55008" class="cls-1" d="M72.46,25.82a.5.5,0,0,0,.5.5.51.51,0,0,0,.5-.5.5.5,0,0,0-.5-.5h0A.49.49,0,0,0,72.46,25.82Z"/><path id="Path_55009" data-name="Path 55009" class="cls-1" d="M77.08,25.8A1.27,1.27,0,1,0,77.34,24h0A1.26,1.26,0,0,0,77.08,25.8Z"/><path id="Path_55010" data-name="Path 55010" class="cls-1" d="M92.59,22.79A1.27,1.27,0,1,0,92.85,21h0A1.26,1.26,0,0,0,92.59,22.79Z"/><path id="Path_55011" data-name="Path 55011" class="cls-1" d="M106.31,30.64a.59.59,0,1,0,.58-.6.6.6,0,0,0-.58.6Z"/><path id="Path_55012" data-name="Path 55012" class="cls-1" d="M84.9,18.15a.58.58,0,0,0,.6.57.59.59,0,0,0,.57-.6.6.6,0,0,0-.6-.57.59.59,0,0,0-.57.6Z"/><path id="Path_55013" data-name="Path 55013" class="cls-1" d="M103.28,27.63a.7.7,0,0,0,.72.68.69.69,0,0,0,.68-.71.7.7,0,0,0-.71-.69h0A.71.71,0,0,0,103.28,27.63Z"/><path id="Path_55014" data-name="Path 55014" class="cls-1" d="M78.75,32.33a.68.68,0,1,0,.14-.95.67.67,0,0,0-.14.95Z"/><path id="Path_55015" data-name="Path 55015" class="cls-1" d="M91.69,17.29a.68.68,0,1,0,.14-.95.68.68,0,0,0-.14.95Z"/><path id="Path_55016" data-name="Path 55016" class="cls-1" d="M67.32,33.11a.66.66,0,0,0,.92.13.65.65,0,0,0,.14-.92.67.67,0,0,0-.92-.14A.66.66,0,0,0,67.32,33.11Z"/><path id="Path_55017" data-name="Path 55017" class="cls-1" d="M87.64,26.82a.51.51,0,0,0,.5.5.5.5,0,0,0,.5-.5.5.5,0,0,0-.5-.5h0A.5.5,0,0,0,87.64,26.82Z"/><path id="Path_55018" data-name="Path 55018" class="cls-1" d="M92.46,34.05a.68.68,0,0,0,.93.14.67.67,0,0,0,.13-.93.66.66,0,0,0-1.06.79Z"/></g><path id="Path_55019" data-name="Path 55019" class="cls-2" d="M69.58,88c-.72-.44-1.45-.85-2.2-1.23-.5-.26-.8.57-.3.82.68.35,1.35.72,2,1.13C69.55,89.05,70.06,88.33,69.58,88Z"/><path id="Path_55020" data-name="Path 55020" class="cls-2" d="M71.29,87.77c-.89-.52-1.79-1-2.7-1.53-.49-.27-1,.44-.5.71.91.5,1.81,1,2.7,1.54C71.27,88.77,71.78,88.06,71.29,87.77Z"/><path id="Path_55021" data-name="Path 55021" class="cls-2" d="M72.52,87.05a24,24,0,0,1-2.42-1.24c-.48-.29-1,.43-.5.72a28.07,28.07,0,0,0,2.62,1.34C72.74,88.1,73,87.28,72.52,87.05Z"/><path id="Path_55022" data-name="Path 55022" d="M73.51,86.12q-1.19-.57-2.34-1.23c-.48-.27-1,.44-.5.72.83.48,1.68.92,2.54,1.33C73.72,87.18,74,86.35,73.51,86.12Z"/><path id="Path_55023" data-name="Path 55023" class="cls-5" d="M72.89,82.65A10.54,10.54,0,0,1,70.33,85c-2.1.62-5.29,1.65-6.65,2a9.85,9.85,0,0,1-2,.13,3.53,3.53,0,0,1-1.23.71c-1.06.77-1.3,2.9-.07,4.59.42.57,5.92,1.28,7.42.91,0,0,5-2.4,5.69-3.43,2.22-2.89,1.52-5.91.16-7.17C73.55,82.84,73.29,82.79,72.89,82.65Z"/><path id="Path_55024" data-name="Path 55024" class="cls-5" d="M71.09,77.91c-2.06.55-7.2,2.9-8.67,3.3s-7.63.05-8.1,0h0c-3.5,2.12-.24,6.09,2,6.56.86.18,6.09.57,7.44.23s4.55-1.38,6.65-2A12.3,12.3,0,0,0,74,82a8.81,8.81,0,0,0-1.93-4.48A4.1,4.1,0,0,1,71.09,77.91Z"/><path id="Path_55025" data-name="Path 55025" class="cls-2" d="M70.23,80.4c-.65-.54-1.31-1.05-2-1.53-.46-.33-.87.45-.42.77A22.53,22.53,0,0,1,69.63,81C70.06,81.4,70.66,80.76,70.23,80.4Z"/><path id="Path_55026" data-name="Path 55026" d="M66.58,80.89q-.73-.63-1.53-1.2c-.45-.34-.9.42-.45.75s.91.69,1.35,1.06S67,81.25,66.58,80.89Z"/><path id="Path_55027" data-name="Path 55027" class="cls-2" d="M68.35,80.63c-.5-.37-1-.77-1.46-1.19s-1,.23-.63.61,1.07.92,1.64,1.34S68.8,81,68.35,80.63Z"/><path id="Path_55028" data-name="Path 55028" class="cls-2" d="M71.9,80.22c-.81-.65-1.63-1.28-2.46-1.9-.45-.34-1,.3-.6.64.83.62,1.65,1.26,2.46,1.9C71.73,81.21,72.34,80.57,71.9,80.22Z"/><path id="Path_55029" data-name="Path 55029" class="cls-5" d="M73.26,70.87c-.3-.76-1.8-1.25-3.3-1.41a4.41,4.41,0,0,1-.72.5,52.39,52.39,0,0,1-8.17,3.19,34.65,34.65,0,0,1-7.55,0h0a2.85,2.85,0,0,0-1.09.57c-2.89,3.25-.69,7.37,1.9,7.5.46,0,6.64.36,8.1,0s6.6-2.75,8.66-3.3a5.11,5.11,0,0,0,3.36-3.17C75,73.64,73.53,71.58,73.26,70.87Z"/><path id="Path_55030" data-name="Path 55030" class="cls-2" d="M69.19,72.77Q68.13,72,67,71.36c-.49-.28-.86.51-.38.79.69.4,1.36.83,2,1.29C69.08,73.76,69.65,73.1,69.19,72.77Z"/><path id="Path_55031" data-name="Path 55031" class="cls-2" d="M67.44,73.26q-1.06-.75-2.19-1.41c-.49-.28-.86.51-.37.79.68.4,1.35.83,2,1.29C67.34,74.25,67.9,73.59,67.44,73.26Z"/><path id="Path_55032" data-name="Path 55032" class="cls-2" d="M70.15,71.8c-.53-.37-1.08-.71-1.64-1s-.86.51-.38.79,1,.59,1.46.92S70.62,72.11,70.15,71.8Z"/><path id="Path_55033" data-name="Path 55033" class="cls-2" d="M64,78.14c-.26-.85-.48-1.71-.67-2.58-.13-.55-1-.44-.87.11.21.94.45,1.88.72,2.8C63.34,79,64.15,78.68,64,78.14Z"/><path id="Path_55034" data-name="Path 55034" class="cls-6" d="M60.76,90.18c-.94.23-.38,2.32,0,2.81a4.32,4.32,0,0,0,1.14.56.87.87,0,0,0,1.11-1,4.11,4.11,0,0,1,0-1,1,1,0,0,0-.61-1A4.57,4.57,0,0,0,60.76,90.18Z"/><path id="Path_55035" data-name="Path 55035" class="cls-6" d="M54.2,82.58c-1,.1-.52,2.66-.19,3.2a3.65,3.65,0,0,0,1.79.47,1,1,0,0,0,1.13-1,.34.34,0,0,0,0-.1c0-.35,0-.72,0-1.05A1.23,1.23,0,0,0,56,82.89,12.22,12.22,0,0,0,54.2,82.58Z"/><g id="Group_6767" data-name="Group 6767"><path id="Path_55036" data-name="Path 55036" class="cls-7" d="M60.28,64.53l4-1.59h0c.77-.27,3.42-1.11,4.94-.67a7.61,7.61,0,0,0-4.39-1.63c-.36,0-4.71-.22-5.1-.17C59.8,60.84,60.27,64.48,60.28,64.53Z"/></g><path id="Path_55037" data-name="Path 55037" class="cls-5" d="M64,63s3.37-1.27,5.17-.74,2.24,3.57,2.06,4.8a3.76,3.76,0,0,1-2,2.88,53.29,53.29,0,0,1-8.16,3.19,34.65,34.65,0,0,1-7.55,0c-1.53-.52-3.77-3.67-1.9-6.26.79-1.08,4.81-2.6,8.13-2.29A14.11,14.11,0,0,0,64,63Z"/><path id="Path_55038" data-name="Path 55038" class="cls-6" d="M55.64,70.73c0,.24,0,.47.07.68a.77.77,0,0,1-.66.85,4.85,4.85,0,0,1-2.55-.39c-.51-.19-1.13-2.62-.74-3.71.1-.29,1,0,2,.29A2.68,2.68,0,0,1,55.64,70.73Z"/><path id="Path_55039" data-name="Path 55039" class="cls-2" d="M58.87,66.73c-.06-.65-.13-1.3-.23-1.94s-.93-.35-.85.21.15,1.13.2,1.71S58.91,67.29,58.87,66.73Z"/><path id="Path_55040" data-name="Path 55040" class="cls-2" d="M60.28,67.19c-.09-.63-.15-1.25-.18-1.88s-.9-.59-.88,0,.1,1.4.2,2.1S60.36,67.74,60.28,67.19Z"/><path id="Path_55041" data-name="Path 55041" class="cls-2" d="M61.79,66.57a8.69,8.69,0,0,1-.13-1.24c0-.57-.9-.59-.87,0a9.16,9.16,0,0,0,.15,1.47C61,67.34,61.87,67.12,61.79,66.57Z"/><path id="Path_55042" data-name="Path 55042" class="cls-6" d="M55.74,77.46c0,.41.07.83.12,1.19A1.1,1.1,0,0,1,55,79.91h-.06a4.9,4.9,0,0,1-2.31-.28,3.5,3.5,0,0,1-.49-4.27c.18-.25,1-.05,2,.19A2.07,2.07,0,0,1,55.74,77.46Z"/><path id="Path_55043" data-name="Path 55043" class="cls-2" d="M62.58,66.22a.69.69,0,0,1-.49,0,16,16,0,0,0-2.5-.85.73.73,0,0,1-.56-.87.74.74,0,0,1,.87-.56h0a16.9,16.9,0,0,1,2.76.93.73.73,0,0,1,.38,1,.69.69,0,0,1-.47.41Z"/></g></g></g></g></svg>