<svg xmlns="http://www.w3.org/2000/svg" viewBox="0 0 134.33 56.11"><defs><style>.cls-1{fill:#b69564;}</style></defs><g id="圖層_2" data-name="圖層 2"><g id="圖層_1-2" data-name="圖層 1"><g id="Group_6784" data-name="Group 6784"><path id="Path_55138" data-name="Path 55138" class="cls-1" d="M4.92,50.89l-.37-.59A29.16,29.16,0,0,1,.09,37,25.14,25.14,0,0,1,2.16,24.64a16.54,16.54,0,0,1,7.15-8.09,8.63,8.63,0,0,1,6.75-.86,7.53,7.53,0,0,1,4.32,3.43,10.14,10.14,0,0,1,1,7.32,9.72,9.72,0,0,1-1.67,4.07,3.57,3.57,0,0,1-1.22,1.13,3.45,3.45,0,0,1-1.37.4A4.75,4.75,0,0,1,15.73,32,2.81,2.81,0,0,1,14,31a1.08,1.08,0,0,1-.18-1.08c1.55-3,2.31-5.62,2.2-7.84a4.48,4.48,0,0,0-.65-2.23c-.83-1.34-2-1.61-3.51-.82-2.36,1.24-4.06,3.63-5.07,7.11A25.33,25.33,0,0,0,6.1,36.68a24.66,24.66,0,0,0,3.13,9.76l.47.78c2,3,3.9,4.63,5.85,4.79a3.52,3.52,0,0,0,2.05-.5,8.7,8.7,0,0,0,1.78-1.35,13.71,13.71,0,0,0,1.42-1.71,30.5,30.5,0,0,0,2.37-4.62.82.82,0,0,1,1-.59.71.71,0,0,1,.25.11,2.43,2.43,0,0,1,1.12,1,3.16,3.16,0,0,1,.57,1.81,6.87,6.87,0,0,1-.6,1.64A12.23,12.23,0,0,1,24.13,50a15.77,15.77,0,0,1-4.62,4.14A14,14,0,0,1,15,56a8.88,8.88,0,0,1-3.7-.12A11.3,11.3,0,0,1,4.92,50.89Z"/><path id="Path_55139" data-name="Path 55139" class="cls-1" d="M37,20.06c-.75.31-1.6,1.88-2.49,4.71-.24.85-.49,1.7-.73,2.55-.42,1.72-.83,3.43-1.22,5.15-.08,1.64-.1,3-.07,4.06l0,2.54a5.5,5.5,0,0,1-.13,1.4,1.09,1.09,0,0,1-.62.69,2.78,2.78,0,0,1-1,.29,3.11,3.11,0,0,1-1,0,1.86,1.86,0,0,1-1.35-.88,3.42,3.42,0,0,1-.17-1.23c0-.6,0-1.2,0-1.8a98.12,98.12,0,0,0-2.77-20.32,59.18,59.18,0,0,0-2.23-7.64,1.56,1.56,0,0,1,.6-2.14,1.34,1.34,0,0,1,.3-.12,3.41,3.41,0,0,1,1.86-.35A2.5,2.5,0,0,1,28,8a11.7,11.7,0,0,1,.77,2.07c.23.79.44,1.67.63,2.63s.37,2,.54,3.06c.37,2.77.61,4.78.74,6,.36,3.77.55,6,.53,6.68.09-.3.19-.71.31-1.22.93-3.92,1.59-6.29,1.89-7.09a14.94,14.94,0,0,1,.85-1.92,5.3,5.3,0,0,1,2.83-2.38,4.21,4.21,0,0,1,3.14-.11,3.37,3.37,0,0,1,1.91,1.66,7.26,7.26,0,0,1,.65,2.09A14.37,14.37,0,0,1,43,21.59c0,.72,0,1.46-.08,2.24s-.08,1.55-.13,2.31A12.26,12.26,0,0,0,43.31,31c.3.66.73.87,1.3.64A3.67,3.67,0,0,0,46,30.7a2.92,2.92,0,0,1,.73-.67.4.4,0,0,1,.55.15.59.59,0,0,1,0,.08,3.36,3.36,0,0,1-.6,3.42,4.56,4.56,0,0,1-1.86,1.62,6.48,6.48,0,0,1-1.72.48,3.42,3.42,0,0,1-1.42-.15,4.15,4.15,0,0,1-2.48-2.39,13.89,13.89,0,0,1-1-5.74c.05-1.68.1-3.37.16-5.05a4.45,4.45,0,0,0-.25-2.08C37.92,19.93,37.53,19.82,37,20.06Z"/><path id="Path_55140" data-name="Path 55140" class="cls-1" d="M48.4,25a11.6,11.6,0,0,1-.72-3.29,14.86,14.86,0,0,1,.17-3.33,16.06,16.06,0,0,1,1-3.33,14.17,14.17,0,0,1,1.7-3A10.6,10.6,0,0,1,56,8c2.52-.77,4.57-.36,6.06,1.18a5.07,5.07,0,0,1,1.21,2,5.32,5.32,0,0,1,.28,2.44A6.53,6.53,0,0,1,62.8,16a9.92,9.92,0,0,1-1.6,2.16,16.22,16.22,0,0,1-2.27,1.95,24,24,0,0,1-6,3,3.28,3.28,0,0,0,.2.82A5.21,5.21,0,0,0,53.77,25a3.77,3.77,0,0,0,.93,1,2.69,2.69,0,0,0,2.55.43,9.67,9.67,0,0,0,4.18-2.73,6.28,6.28,0,0,0,1-1.29,1.46,1.46,0,0,1,.73-.72.89.89,0,0,1,.8.22,1.7,1.7,0,0,1,.6.84,2.65,2.65,0,0,1,0,1.92c-1.2,2.09-3.49,3.63-6.82,4.71a7.48,7.48,0,0,1-5.37,0A7.16,7.16,0,0,1,48.4,25Zm8.11-14.36c-1.53.46-2.63,1.82-3.28,4.06a18.6,18.6,0,0,0-.57,6.39,11.15,11.15,0,0,0,5.14-4.43c1.09-1.84,1.42-3.38.94-4.62s-1.22-1.71-2.23-1.4Z"/><path id="Path_55141" data-name="Path 55141" class="cls-1" d="M66.34,26.33A11.77,11.77,0,0,1,65.92,23a13.24,13.24,0,0,1,.48-3.31,15.72,15.72,0,0,1,1.27-3.23,14.36,14.36,0,0,1,2-2.88,10.94,10.94,0,0,1,5.94-3.49c2.64-.53,4.69.06,6.08,1.73a5.3,5.3,0,0,1,1,2.13,5.21,5.21,0,0,1,.07,2.45,6.58,6.58,0,0,1-1,2.24,10.54,10.54,0,0,1-1.83,2,16,16,0,0,1-2.5,1.74,24.85,24.85,0,0,1-6.34,2.47,3.35,3.35,0,0,0,.14.83,5.47,5.47,0,0,0,.49,1.17,4,4,0,0,0,.87,1.06,2.79,2.79,0,0,0,2.56.65,10,10,0,0,0,4.52-2.34A7.14,7.14,0,0,0,80.9,25a1.4,1.4,0,0,1,.8-.65.92.92,0,0,1,.8.29,1.71,1.71,0,0,1,.54.89,2.59,2.59,0,0,1-.2,1.91c-1.42,2-3.88,3.3-7.39,4.07A7.85,7.85,0,0,1,70,31,7.23,7.23,0,0,1,66.34,26.33Zm9.58-13.58q-2.4.5-3.71,3.75a18.64,18.64,0,0,0-1.16,6.31,11.29,11.29,0,0,0,5.64-3.95c1.28-1.73,1.75-3.23,1.38-4.51S77,12.54,75.92,12.75Z"/><path id="Path_55142" data-name="Path 55142" class="cls-1" d="M88.47,23.36a3,3,0,0,1-.9-.45,1.65,1.65,0,0,1-.49-.53,1.63,1.63,0,0,1-.1-.66c0-.27,0-.6.06-1,.69-7.14.7-11.8-.11-14a1.79,1.79,0,0,0-1.24-1.09l-.55-.14a.66.66,0,0,1-.4-.4.84.84,0,0,1,.05-.71,2.41,2.41,0,0,1,.57-.74,4.82,4.82,0,0,1,1.88-1A5.57,5.57,0,0,1,89,2.48a3.85,3.85,0,0,1,1.2.26A2.32,2.32,0,0,1,91.57,4a5.79,5.79,0,0,1,.34,1.59c0,.56,0,1.11,0,1.66s-.06,1.08-.1,1.58a7.9,7.9,0,0,0,0,1.09,2.16,2.16,0,0,0,.15.87,1.49,1.49,0,0,0,.38-.94c.14-.54.27-1.08.4-1.62C93.68,4.75,95,2.32,96.6.93A4.2,4.2,0,0,1,98.5.08a3,3,0,0,1,2.15.3,2.56,2.56,0,0,1,1.25,1.36,4,4,0,0,1,.29,1.41,3.42,3.42,0,0,1-.2,1.14,2,2,0,0,1-1.53,1.45,1.05,1.05,0,0,1-.61-.06l-.63-.26a2.77,2.77,0,0,0-1.65-.25,2.77,2.77,0,0,0-1.46,1.15A12.9,12.9,0,0,0,94.7,8.76a31.17,31.17,0,0,0-2.77,10.33c-.08.82-.15,1.64-.22,2.45a5.48,5.48,0,0,1-.26,1.34.94.94,0,0,1-.7.57,3.75,3.75,0,0,1-1.15.11A4.87,4.87,0,0,1,88.47,23.36Z"/><path id="Path_55143" data-name="Path 55143" class="cls-1" d="M100,24.65a2.13,2.13,0,0,1,.12-1.17,3.06,3.06,0,0,1,2.52-1.86.84.84,0,0,1,1,.75,3.33,3.33,0,0,0,2,2.79,2.63,2.63,0,0,0,1.23.24,4,4,0,0,0,1-.17,2.23,2.23,0,0,0,.75-.42,1.5,1.5,0,0,0,.65-1.41,2.8,2.8,0,0,0-.61-1.45,13.24,13.24,0,0,0-1.23-1.36L106,19.06c-2.19-2-3.47-3.92-3.78-5.71a4.6,4.6,0,0,1,1.56-4.19,9.18,9.18,0,0,1,6.39-2.39A10,10,0,0,1,116,8.11a3.87,3.87,0,0,1,2,2.7,2.54,2.54,0,0,1-1.14,2.54,3.4,3.4,0,0,1-2.52.66,1.64,1.64,0,0,1-.95-.48.89.89,0,0,1-.24-.89,2.85,2.85,0,0,0,0-1.05,2.19,2.19,0,0,0-.38-1,2.66,2.66,0,0,0-.77-.76,3.15,3.15,0,0,0-1.88-.61,5.94,5.94,0,0,0-1.51.23,3.08,3.08,0,0,0-1,.54,1.89,1.89,0,0,0-.65,1.81,4,4,0,0,0,.71,1.79,12.11,12.11,0,0,0,1.29,1.48c.49.49,1,1,1.58,1.49a16.94,16.94,0,0,1,1.57,1.6,6.85,6.85,0,0,1,1.9,3.52,4.07,4.07,0,0,1-.45,2.58,6.06,6.06,0,0,1-1.71,1.82,9.72,9.72,0,0,1-5.35,1.85,8.31,8.31,0,0,1-4.77-.94A3.37,3.37,0,0,1,100,24.65Z"/><path id="Path_55144" data-name="Path 55144" class="cls-1" d="M118.61,31a3.8,3.8,0,0,1-.89-1,2.9,2.9,0,0,1-.4-1.34,2.47,2.47,0,0,1,1-2.28,3.08,3.08,0,0,1,1.9-.59,10.41,10.41,0,0,1,1.76.19,6,6,0,0,1,1.36.44,2.29,2.29,0,0,1,1.58,1.92,3.25,3.25,0,0,1-1,2.59,3.37,3.37,0,0,1-2.16,1,4.74,4.74,0,0,1-1.87-.22A4.39,4.39,0,0,1,118.61,31Zm3.44-7c-.78,0-1.23-1-1.38-2.85a26.57,26.57,0,0,1,1.59-9.88,24.11,24.11,0,0,1,4.32-8.41,5.08,5.08,0,0,1,3-1.9,7.84,7.84,0,0,1,1.53-.06,10.76,10.76,0,0,1,1.27.17,5,5,0,0,1,1,.32c.62.27,1,.57,1,.91a1.41,1.41,0,0,1-.44,1c-.31.35-.82,1-1.5,1.83A40,40,0,0,0,130,8.59a73.68,73.68,0,0,0-5.93,12.26c-.2.48-.35.91-.48,1.3a6.73,6.73,0,0,1-.4,1,1.26,1.26,0,0,1-1.18.84Z"/></g></g></g></svg>