<svg xmlns="http://www.w3.org/2000/svg" viewBox="0 0 180.83 129.92"><defs><style>.cls-1{fill:#fff;}.cls-2{isolation:isolate;}</style></defs><g id="圖層_2" data-name="圖層 2"><g id="_0-ori" data-name="0-ori"><g id="對話框-餐飲搭配"><ellipse class="cls-1" cx="90.41" cy="55.5" rx="90.41" ry="55.5"/><g id="尋找_特殊風味..." data-name="尋找 特殊風味..." class="cls-2"><path d="M32.66,28.89h.39a2,2,0,0,1,1.46.49v.14q0,.35-3.81.54c0,1.61,0,2.78,0,3.51a1,1,0,0,1,.48-.14h.3c.94,0,1.41.21,1.41.49s-.79.52-2.15,1c0,0,0,0,0,0V37c0,1.73,0,3.14.09,4.2a4.31,4.31,0,0,1,1.76-.68h.05a2.35,2.35,0,0,1,1.61.44v.14A60.49,60.49,0,0,1,28,44.32h-.59a2,2,0,0,1-1.56-.49v-.1a30.18,30.18,0,0,1,2.78-1.46c-.09-1-.14-2.08-.14-3.28,0-2,.05-3.16.05-3.51a4,4,0,0,1-.93.1A3.85,3.85,0,0,1,25.33,35v-.15c0-.09.3-.18.88-.24a6.94,6.94,0,0,1,.93.15l1.37-.44c0-1.18,0-2,0-2.54v-.49c0-.23,0-.59,0-1.07h0c-.53,0-1.22,0-2.1,0a2.49,2.49,0,0,1-1.76-.58v-.15c0-.23,1.32-.37,3.95-.44,0-.06.17-.11.49-.14s.72,0,1.17,0C31.12,28.92,31.9,28.89,32.66,28.89Zm3.22-1.22c.87.06,1.34.21,1.42.44v.19c0,.28,0,.72,0,1.32l5.72-.39q1.8.12,1.8.78a2.94,2.94,0,0,0,0,.44q-.19,4.17-.19,6.93v.2a8.14,8.14,0,0,0,.05.83.41.41,0,0,1,.34.24v.1c0,.08-.13.16-.34.24a.26.26,0,0,0,0,.15c0,.9,0,1.51,0,1.86,0,.55-.37.83-1.12.83h-.05a7.69,7.69,0,0,1-1.27-.2s0,.23,0,.64c0,1.29,0,2.49-.1,3.61q.06,1,.39,1a3.42,3.42,0,0,0,2.2-.78,2.8,2.8,0,0,0,.49-1.51h.1a3.72,3.72,0,0,0,1.71,2.1v.1a7.44,7.44,0,0,1-3.32.83h-.78a3.47,3.47,0,0,1-2.93-1,.72.72,0,0,1-.1-.34c.13-1.66.19-2.83.19-3.52V40.36c0-.1.25-.16.74-.19a6.32,6.32,0,0,1,1,.14c0-.45,0-.75,0-.88a14.91,14.91,0,0,0-2.15.44,31.68,31.68,0,0,1-3.12,5.77,5,5,0,0,1-2.44,2l-.3,0c-.74-.09-1.12-.2-1.12-.35a3.75,3.75,0,0,1,.93-.58,7.6,7.6,0,0,0,2.1-2.35,27.72,27.72,0,0,0,2.24-4,1,1,0,0,1,.1-.29,6.32,6.32,0,0,1-.68.1v0c0,.49-.13.74-.39.74l-.44,0c-.9,0-1.43-.22-1.56-.64C34.38,40.22,34,40,34,39.87v-.09c0-.15.42-.3,1.27-.44v-.05c0-1.26,0-2.41,0-3.47l-.09-5.18c-.15-.06-.23-.13-.25-.19V30.4s.08-.12.25-.24c0-.77-.05-1.34-.05-1.71v-.59C35.15,27.77,35.39,27.71,35.88,27.67Zm1.51,3.12V32c0,.16,0,.41,0,.73,2-.26,3.56-.44,4.74-.53v-.05c0-.25,0-.92.15-2C39,30.26,37.39,30.47,37.39,30.79Zm.69,3h-.64v0c0,.3,0,.84.05,1.61h0L42,34.8a.35.35,0,0,0,.05-.2v-.2c0-.22,0-.58,0-1.07C39.72,33.62,38.39,33.77,38.08,33.77Zm-.44,2.78h-.15v.05c0,.5,0,1.26,0,2.3h.05c2.69-.43,4.16-.67,4.39-.74,0-.38,0-.66,0-.83s0-.63,0-1.36h0Z"/><path d="M63.88,26.34a2.9,2.9,0,0,1,2.31.89v.13a17.28,17.28,0,0,1-1.37,4h.24q6.1-.47,6.75-.5a2.1,2.1,0,0,1,1.73.62c-.09.27-.36.41-.83.43l-8.32.43q0,1.22-3.25,6.49l.48-.24,4.68-.24V37.27c0-.5,0-1.23-.14-2.19l.86-.19A1.84,1.84,0,0,1,69.21,37v1.26l.21,0c1.49-.17,2.59-.27,3.29-.31,1.17.18,1.75.38,1.75.6v.25l-1,.21-4.24.21v7.47l2.44-.12a6.73,6.73,0,0,1,2.81.44v.48L66,47.89c-2.84.08-4.32-.13-4.44-.62V47c.19,0,.29-.06.29-.16,1.14,0,2,0,2.5,0l2-.1V39.31l-2.9.15A5.53,5.53,0,0,1,61,39a2.65,2.65,0,0,0-.34,1.29v.3l.13.69H60.6l.19.35q-.15,6.33-.15,7.19a1,1,0,0,1-.54.28c-1.47,0-2.31-.26-2.51-.72v-5.5a38.62,38.62,0,0,1-3.9,2.46v-.19a29.1,29.1,0,0,0,3.74-5.39c.21,0,.32-.79.32-2.33v-.1c1.3-.07,2-.46,2-1.2a13.15,13.15,0,0,0,1.65-3.6L58,32.68a2,2,0,0,1-1.74-.63c0-.15.13-.23.39-.25.74,0,1.9-.15,3.46-.33a10.55,10.55,0,0,0,1.68.08A26.1,26.1,0,0,0,63.46,27a.93.93,0,0,1-.16-.52A1.46,1.46,0,0,0,63.88,26.34Z"/><path d="M36.56,64.2h.25c1.89,0,3,.29,3.27.85v6.55l1.1,0c1.15-.06,2.61-.19,4.39-.38,1,.25,1.45.46,1.45.62v.12a4.33,4.33,0,0,1-1.45.52l-.9,0c-.94,0-2.26.07-4,0a1,1,0,0,1-.48.17c0,.39.1,1.43.3,3.13l.23,0c.54-.92,1.13-1.4,1.78-1.44h.16a2.65,2.65,0,0,1,2.36.91v.11a54.12,54.12,0,0,1-3.48,4.7,6.14,6.14,0,0,0,1.26,2.44l.91-.49a1.16,1.16,0,0,0,.52.11c0-.15.24-.36.72-.65.11,0,.24.17.37.54-.17,2.56-.4,3.86-.7,3.91l-.6,0c-2.42.12-4-1.05-4.79-3.53l-.38,0a4.7,4.7,0,0,1-2.22.85l-.27-.4v-.12c0-.37.61-1.35,1.81-3A33.53,33.53,0,0,1,37.32,73l-3.14.15v.2c0,1.87.06,5.08.16,9.66-.28,2-1,3-2.06,3.07A2.46,2.46,0,0,1,29.87,85c-.21,0-.4-.49-.56-1.51h.1l1.55.09L31.12,82c0-.32-.05-1.29-.16-2.93l-.22,0A5,5,0,0,1,28,80.24a7.83,7.83,0,0,1-2.21-.33v-.36q.63,0,5.13-3.3V73.43l-1.11.22-3.47.18a1.89,1.89,0,0,1-1.46-.64.26.26,0,0,1,.25-.26l.46,0a9.93,9.93,0,0,1,1.51.09,17.46,17.46,0,0,1,3.61-.5H31V69.85l-.44-.58V69l.86-.2a3,3,0,0,1,2.8,1v2.3l2.65-.13.34-.18a11.13,11.13,0,0,1-.3-3.2v-3.8l-.31-.42Zm-4,1.11a4.35,4.35,0,0,1,3.11,1v.11q-.37.66-6.28,2.69a8.06,8.06,0,0,0-1.21.36l-.7-.1v-.08l1.35-1.71c1.92-1.07,2.89-1.82,2.89-2.25Zm10,.87c1.87.27,2.8.65,2.8,1.16v.44c-.18.49-.72.76-1.61.8a3.68,3.68,0,0,1-1.91-2.13v-.08A1.63,1.63,0,0,0,42.56,66.18Z"/><path d="M59.65,64.87c.86,0,1.3.23,1.3.78v3.07h.36l1.56.08v-3.5c0-.25.39-.45,1.15-.62s1.14.39,1.14,1.3c1.93-.3,3.56-.48,4.88-.55a1.78,1.78,0,0,1,.88-.35l.45,0a1.08,1.08,0,0,1,1.29,1.22V76.6l-.7.16-.44,0c-1.07,0-1.6-.05-1.6-.31V75.37a22.88,22.88,0,0,1-2.31.27l-.6,0-1.55-.06v1.55a.23.23,0,0,1-.25.26l-1.35.07-1-.08V74.53A3.73,3.73,0,0,1,61,73.66v5.06a.25.25,0,0,1-.25.28l-.6,0L58.66,79v-5c-2.08,2.25-3.59,3.41-4.53,3.46A.92.92,0,0,1,54,77a34,34,0,0,1,3.15-3.88c.69-1.42,1.2-2.14,1.51-2.16V69.49l-2.46.11c-1.77.09-2.65,0-2.65-.26v-.11l.71-.17c2.56,0,4-.06,4.4-.07v-3.2C58.66,65.22,59,64.91,59.65,64.87ZM57,79.59l1.15-.07L58.55,85l-.28.13-1.91.09c-.18,0-.26-.06-.26-.22Q56.31,79.63,57,79.59Zm4.83.66c.74.06,1.12.42,1.12,1.08v3.16c0,.24.16.35.36.34L66,84.7q2.16-.12,2.16-1.5a3,3,0,0,1,1-1.82h.11a2.28,2.28,0,0,1,1.45,2,1.37,1.37,0,0,1-1.46,1.54,5.72,5.72,0,0,1-2.84.6l-2.4.12c-2.36.11-3.54-.11-3.54-.67V80.6A4.94,4.94,0,0,0,61.78,80.25Zm0-10.92-.8,0v2.89q0,.3,1.92,1V69.11Zm3.61,10c1.36-.06,2,.85,2,2.75.11,0,.16.31.16.94l-.85.2c-1.16,0-1.74-.4-1.74-1.37a14.87,14.87,0,0,0-.73-2.31h.07A4.77,4.77,0,0,1,65.36,79.31Zm-.06-12.4c0,.09.06.77.16,2l3.66-.19.8.14v-.51a22,22,0,0,1,.17-2.32l-1.12,0A10.44,10.44,0,0,0,65.3,66.91Zm.16,3v2.67a32.65,32.65,0,0,1,4.46-.67V69.52a15.14,15.14,0,0,0-3.07-.14C66,69.71,65.54,69.88,65.46,69.89ZM65.82,73l-.36,0V75.3l1-.39.89.11a24.1,24.1,0,0,1,2.6-.43V72.51A21.21,21.21,0,0,1,65.82,73Zm4.71,5.74L72,78.68c1.12-.05,2,.94,2.65,3v.15q0,.69-1,1.35a7.94,7.94,0,0,1-2.38-3.47c-.14,0-.38-.22-.72-.67Z"/><path d="M85,64.07c1.55.18,2.33.77,2.33,1.78a19.8,19.8,0,0,1,.16,2.69v.21c1.37-.12,2.06-.27,2.06-.45s.08-.42.24-.42l1,0c1,0,1.46.31,1.46,1.07v.45A6.71,6.71,0,0,1,92.13,71l.16,1.5q0,11.07-2.05,11.16l-.61,0a2.31,2.31,0,0,1-2.51-1.35,1,1,0,0,1-.14-.53l.13-.3,1.61.38h.21a67.84,67.84,0,0,0,.61-10.28V69.13l-.51,0-1.55.23v2.14c0,.34,0,.51.14.51l-.14.7q0,10.32-3.13,12.72a4.77,4.77,0,0,0-1.19.8H83A51.54,51.54,0,0,0,85,71.54V69.66l-.51,0c-1.57.08-2.35,0-2.35-.27V69.3l.71-.17L85,69c-.11-1.93-.16-3.26-.16-4-.4-.13-.6-.25-.6-.38v-.16C84.28,64.3,84.51,64.16,85,64.07Zm9.47,3.73,1.78-.08c.12,0,.25.12.39.38v1.4l2-.1c1.29-.36,2-.55,2.09-.56,1,.07,1.45.23,1.45.46V82.47a5.87,5.87,0,0,0-1.31.37,4.43,4.43,0,0,1-1.44-.35L99.6,81v-.82c-1.41.17-2.3.27-2.66.3v1.69c-.06.27-.44.43-1.15.47a4,4,0,0,1-1.59-.22c-.1-4.34-.16-7.57-.16-9.7v-4.5C94,68.1,94.18,68,94.46,67.8Zm2.83,2.3-.66,0v.37a2,2,0,0,0,.16,1.05l-.16,1c.11,3.5.16,5.93.16,7.26H97c1-.16,1.82-.25,2.39-.28h.21V69.83A22.88,22.88,0,0,1,97.29,70.1Z"/><path d="M110.76,66.14l1.34-.06c.27.07.41.34.41.81v.52l4.4-.22a12.27,12.27,0,0,0,1.21-.36l.44,0c1,.08,1.45.23,1.45.48v6.1l-.71.2h-.59c-.48,0-.76-.08-.85-.34V70.78h-.25a5,5,0,0,1-1,1.52c.65,0,1,0,1,.18v.11l-.71.2-1,0c.1,1,.16,1.81.16,2.36h.22c1.64-.28,2.54-.42,2.68-.43l.7.1V75c0,.3-.64.51-1.92.64l-1.68.08v1.94a11.93,11.93,0,0,1,2.9-.48l.45,0c.17,0,.25.1.25.24s-1.2.53-3.6,1c0,.19-.08.28-.25.29-1.68,0-3,0-3.9,0-.17,0-.25-.07-.25-.22s.11-.26.25-.27l.45,0,1.85-.25V75.77l-1.28.06a2.1,2.1,0,0,1-1.33.53q-1.29.06-1.29-.78V67C110.42,66.44,110.56,66.15,110.76,66.14Zm1,14.37c1.06-.05,1.59.66,1.59,2.11-.05.29-.34.53-.86.75-.85,0-1.28-.63-1.28-2a1,1,0,0,1-.16-.55A1.63,1.63,0,0,1,111.81,80.51Zm.68-12.61a5.81,5.81,0,0,1,.16,1.49l.38-.21,1.23-.06V67.81Zm.16,2.38v2.38l1.61-.24v-.71c-.77,0-1.23-.44-1.36-1.43Zm0,2.86.15,2.21,1.46-.06V72.92l-.81,0Zm1.74,6.8.26,0c.87,0,1.3.64,1.3,2.07h-.11a1.78,1.78,0,0,1-.88.35c-.47,0-.81-.69-1-2.13ZM116,67.72v2.22h.27c0-.4.28-.61.84-.64l.8-.05V67.63Zm.51,11.67.76,0c.36,0,.74.69,1.12,2.11l-.4.29-.72,0c-.67,0-1-.58-1-1.83v-.31C116.24,79.48,116.32,79.39,116.46,79.39Zm1.55-.24,1.31-.07c.27,0,.5.42.69,1.27v.25l-.71.18-.42,0a1.45,1.45,0,0,1-.87-1.55Zm3.61-4.24,1.6-.08c.25,0,.43.59.55,1.8a14.44,14.44,0,0,1,3.65-.65l.91,0q.84,0,.84.81v6.91c0,.23-.39.42-1.16.58a4.81,4.81,0,0,1-1.28-.2V82.66l-1,0c-1,0-2.2.17-3.6.34-.36-.13-.55-.25-.55-.37,0-1.81,0-4.26-.14-7.34A1.2,1.2,0,0,0,121.62,74.91ZM124,77.09h-.21c.11,1.39.16,2.41.16,3V82.3l1.26-.06,1.55-.22V76.64A14.81,14.81,0,0,1,124,77.09Zm.74-10.75h.45c.67,0,1,.52,1,1.68a31.47,31.47,0,0,1,.15,3.21l3.21-.17.69.11v.11c0,.27-.63.43-1.89.5l-1.86.09V75l-1,.22-.6,0c-.56,0-.84-.14-.84-.5q0-2.42-.16-7.79A.81.81,0,0,1,124.71,66.34Z"/><path d="M139.54,79.17H140c.21,0,.42.21.65.64v1.52c-.17.58-1.33.94-3.47,1.08-.1,0-.53-.07-1.29-.22v-.64l.21-1.09a.38.38,0,0,1-.43-.43C135.63,79.46,136.93,79.17,139.54,79.17Z"/><path d="M147.31,79.17h.42c.21,0,.42.21.65.64v1.52c-.17.58-1.33.94-3.47,1.08-.1,0-.53-.07-1.29-.22v-.64l.21-1.09a.38.38,0,0,1-.43-.43C143.4,79.46,144.7,79.17,147.31,79.17Z"/><path d="M155.07,79.17h.43c.2,0,.42.21.65.64v1.52c-.17.58-1.33.94-3.47,1.08a12.65,12.65,0,0,1-1.29-.22v-.64l.2-1.09a.37.37,0,0,1-.42-.43C151.17,79.46,152.47,79.17,155.07,79.17Z"/></g><ellipse class="cls-1" cx="58.18" cy="119.62" rx="6.88" ry="3.66"/><ellipse class="cls-1" cx="46.26" cy="126.59" rx="4.81" ry="2.55"/><ellipse class="cls-1" cx="36.23" cy="128.77" rx="2.17" ry="1.15"/></g></g></g></svg>