<svg xmlns="http://www.w3.org/2000/svg" xmlns:xlink="http://www.w3.org/1999/xlink" viewBox="0 0 324.29 339.65"><defs><style>.cls-1,.cls-3{fill:#fff;}.cls-1,.cls-2{fill-rule:evenodd;}.cls-4{mask:url(#mask);}</style><mask id="mask" x="-77.58" y="6.09" width="1087.8" height="220.46" maskUnits="userSpaceOnUse"><path class="cls-1" d="M110,142.26c-1.1-7.34-6.62-11.37-13.75-12.13-4.67-.51-9.35-.88-14-1.17a14.17,14.17,0,0,0-4.64-5.58,14,14,0,0,0-6.08-7.77c1-.56,2.09-1.15,3.09-1.79,11.91-7.68,6.86-25.28-7.07-26.09A366,366,0,0,0-3.95,90.64a144.74,144.74,0,0,0-40.14,7.81c-7.15,2.45-11.87,9.61-9.78,17.22a13.62,13.62,0,0,0,4.11,6.58,108,108,0,0,0-20.94,7.4c-5.51,2.65-8,10.2-6.43,15.81,1.69,6.14,7.32,10,13.5,10.28,7,.37,14.07.67,21.16.78a14.77,14.77,0,0,0,4.73,4.61c.69,5.25,4.77,10.64,10,12.11a13.52,13.52,0,0,0-.8,4.58A13.26,13.26,0,0,0-23,188.63a13.64,13.64,0,0,0-.53,2.46l-1.22.45-3,1.09c-7.09,2.62-11.9,9.49-9.77,17.22,1.88,6.85,10.08,12.38,17.22,9.78L-7,214.77q2.35-.84,4.74-1.63a12.28,12.28,0,0,0,2.18,2,13.27,13.27,0,0,0,1.61,4.68c4.11,7,12.27,8.22,19.15,5,19.51-9.06,43.07-10.43,63.94-16.92,7.21-2.25,11.83-9.76,9.77-17.22a12.67,12.67,0,0,0-7-8.5,15.43,15.43,0,0,0,1.27-2.93,15.12,15.12,0,0,0,3.45-13.58,13.24,13.24,0,0,0-3.86-6.39q5.85-.83,11.7-1.7C106.71,156.6,110.88,148.42,110,142.26Z"/><path class="cls-2" d="M62.14,133.13l-.56-.09a1.34,1.34,0,0,0-.18-1,3.37,3.37,0,0,0-.48-.57A2,2,0,0,0,62,129.64a2.21,2.21,0,0,0-.28-1,3.13,3.13,0,0,0-.26-1.26c-1.7-3.94-6.22-4.67-10-5-1.75-.16-1.94,2.45-.4,2.94.37.12.73.27,1.09.41a1.43,1.43,0,0,0,.45,2.09c.58.36,1.19.68,1.8,1a4.6,4.6,0,0,0-1.59.49,2.36,2.36,0,0,0-1.36,2.65,2.3,2.3,0,0,0,.86,1.26l.23.14a1.66,1.66,0,0,0,.63,1.54c-1.09.94-1.45,3.28-1.16,4.53a3.34,3.34,0,0,0,.66,1.43,2.88,2.88,0,0,0-.41.45,4.54,4.54,0,0,0-1.16,3.4,1.52,1.52,0,0,0,2.56,1.06A12.8,12.8,0,0,0,58.1,138,12.81,12.81,0,0,0,59.29,136l.1-.22c.66.09,1.32.18,2,.29C63.23,136.36,64.05,133.5,62.14,133.13Z"/><path class="cls-2" d="M318.89,6.09a1.5,1.5,0,0,0,0,3A1.5,1.5,0,0,0,318.89,6.09Z"/><path class="cls-2" d="M1008.71,148.3a1.54,1.54,0,0,0-1.5,1.5q-.83,6.54-1.64,13.08a1.5,1.5,0,0,0,1.5,1.5,1.53,1.53,0,0,0,1.5-1.5q.82-6.54,1.64-13.08A1.51,1.51,0,0,0,1008.71,148.3Z"/><path class="cls-2" d="M882.84,63.3a1.5,1.5,0,0,0,0,3A1.5,1.5,0,0,0,882.84,63.3Z"/></mask></defs><g id="圖層_2" data-name="圖層 2"><g id="_0-ui_kits" data-name="0-ui_kits"><g id="woman3"><g id="Group_1545" data-name="Group 1545"><g id="Group_1488" data-name="Group 1488"><path id="Path_3320" data-name="Path 3320" class="cls-3" d="M200.17,34.38c-.42,0-.35.49-.3.79h0c-1.91,1.16-.24,5.07-.06,6.91.87,4.53,3.69,6.75,7.37,9.09l-.06-.07.06.06-.05-.06a3.82,3.82,0,0,1,1,2.07h0c-2.4.66-4.62.12-7-.32-1.33-.26-1.6,1.32-.27,1.93,2.06.83,7.08,2.42,8.22-.3,4.43-3.73-7.38-7.43-7.31-12.35-.31-1.72-1-3.37-1-5.14-.06-.64.18-2.55-.6-2.64Z"/></g><g id="Group_1489" data-name="Group 1489"><path id="Path_3321" data-name="Path 3321" class="cls-3" d="M188,40.28c-1.86,2.7-4.53,5.69-8.11,5.8H180c-1.48-.14-3.3-.4-4-1.87a.62.62,0,0,0-.79-.4.63.63,0,0,0-.43.67c-.81.85,1.45,2.9,2.24,3.2h0a7.5,7.5,0,0,0,1.83.75h0a9,9,0,0,0,2.53.25h0c3,.24,6.08-2.34,7.12-5.09.3-.85,1.26-3.72-.46-3.29Zm-4.28,5.25Z"/></g><g id="Group_1490" data-name="Group 1490"><path id="Path_3322" data-name="Path 3322" class="cls-3" d="M176.77,46.62a3.85,3.85,0,0,1-.37.73h0c-.58.77-1.28,1.31-1.92,2-.27,1.69,2.19-1.3,2.5-1.69h0c.38-.41.65-1.74-.21-1.05Z"/></g><g id="Group_1491" data-name="Group 1491"><path id="Path_3323" data-name="Path 3323" class="cls-3" d="M178.31,47.72c-.09.15-.18.31-.26.47h0A9.72,9.72,0,0,1,176.57,50c-.31,1.89,2.06-1,2.23-1.56h0c.51-.45,0-1.35-.5-.71Z"/></g><g id="Group_1492" data-name="Group 1492"><path id="Path_3324" data-name="Path 3324" class="cls-3" d="M180.93,47.37c-.31.34-.27.89-.51,1.29h0c-.11.4-1.05,1.48-.1,1.62.64-.15.7-1.1,1-1.62h0c.23-.47.5-1.66-.41-1.29Z"/></g><g id="Group_1493" data-name="Group 1493"><path id="Path_3325" data-name="Path 3325" class="cls-3" d="M196,59.59c-.71,1,1.23,2.37,2,2.92h0c1.6,1.06,3.81.07,4.75-1.47h0c.56-.5-.27-1.26-.65-.59a2.84,2.84,0,0,1-4.77.19c-.46-.45-.6-1.46-1.34-1.06Z"/></g><g id="Group_1494" data-name="Group 1494"><path id="Path_3326" data-name="Path 3326" class="cls-3" d="M176.23,54.34c-.42.37-1.68,1.68-.82,2,.54-.19.52-1,1-1.34s.33-1-.22-.69Z"/></g><g id="Group_1495" data-name="Group 1495"><path id="Path_3327" data-name="Path 3327" class="cls-3" d="M178.36,53.85a7.24,7.24,0,0,0-1,1.65.39.39,0,0,0,.19.53.33.33,0,0,0,.17,0c.46,0,.48-.66.74-.92l.55-.77a.39.39,0,0,0-.06-.57.41.41,0,0,0-.56,0Z"/></g><g id="Group_1496" data-name="Group 1496"><path id="Path_3328" data-name="Path 3328" class="cls-3" d="M180.6,53.52c-.2.47-1.2,1.6-.29,1.8.57-.16.59-1.06,1-1.47a.38.38,0,0,0-.21-.5.38.38,0,0,0-.48.17Z"/></g><g id="Group_1497" data-name="Group 1497"><path id="Path_3329" data-name="Path 3329" class="cls-3" d="M183.79,53c-.21.4-1.2,1.38-.38,1.61.48-.11.51-.86.88-1.18a.33.33,0,1,0-.5-.43Z"/></g><g id="Group_1498" data-name="Group 1498"><path id="Path_3330" data-name="Path 3330" class="cls-3" d="M211.29,50c-.58.1-.2.74-.19,1.14s-.17,1,.33,1.16a.36.36,0,0,0,.42-.3h0c0-.65.17-1.83-.56-2Z"/></g><g id="Group_1499" data-name="Group 1499"><path id="Path_3331" data-name="Path 3331" class="cls-3" d="M214.59,50c.08.36-.13,1.17.37,1.29h0c.54-.17,0-.94.16-1.35a.26.26,0,0,0-.31-.22.26.26,0,0,0-.22.28Z"/></g><g id="Group_1500" data-name="Group 1500"><path id="Path_3332" data-name="Path 3332" class="cls-3" d="M174.48,321.39v0Z"/></g><g id="Group_1501" data-name="Group 1501"><path id="Path_3333" data-name="Path 3333" class="cls-3" d="M215.9,23.46c-.12,4.91-.42,9.7-.3,14.68v0c-.27-.66-1.11-.2-1.08.39l-.09.35c-.89,4.34-7.67,3.91-8.13-.37a1.17,1.17,0,0,0-.41-.92.41.41,0,0,0-.8-.15c-1.29.38-.54,2.08-.27,3,.52,3.19,2.74,3.92,5.66,3.67h0c-.06.64,1.63,3.51,1.64,1.73a5.09,5.09,0,0,1-1-1.88,5.3,5.3,0,0,0,1.1-.38c.4.72.75,1.82,1.57,2.11a.42.42,0,0,0,.42-.42.38.38,0,0,0-.08-.23A10.31,10.31,0,0,1,213,43.11a6.49,6.49,0,0,0,.73-.66h0c.25,1.12,1.86,1.57,1.46.14a10.62,10.62,0,0,1-.68-1.18,7.33,7.33,0,0,0,1.12-2.69v0s0,0,0,0a95.29,95.29,0,0,0,.63,12.18,52.85,52.85,0,0,1,.44,6.17c-.58,4.09-2.25,8.37-5.49,11.08a22.77,22.77,0,0,1-7.56,4.28c-1.58.88-4.53.42-5,2.56-1.39,3.43-.75,7.28-1.18,11-.19,3.45-.75,5.71,3.4,6.61,1.76.58,3.6.62,5.4,1.07a18.37,18.37,0,0,0,4.4.94c1.57.3,3.25.14,4.82.34,1.38-.35.36-1.83-.66-1.83-2.35-.77-4.71-1.34-7.08-2-2.65-.9-5.47-1.33-8.17-2.1l0,0c.26-4.47.13-9,.75-13.43,16.28-5.06,19.27-13.38,17.93-29.5-.15-8.32-.2-16.67-.18-25a13.61,13.61,0,0,1-2.09.35Q215.92,22.44,215.9,23.46Z"/></g><g id="Group_1504" data-name="Group 1504"><path id="Path_3336" data-name="Path 3336" class="cls-3" d="M152.62,75.83a14.06,14.06,0,0,1-6-1.3c-4.74-2.23-8.32-6.56-10.92-13.23a.25.25,0,0,1,0-.07,42,42,0,0,1,4.79-33.52c-5.37,4-7.77,11-8.76,15.24a57.72,57.72,0,0,0-1.37,9.54c-.13,1.4-.26,2.85-.43,4.29-.28,2.6-1.6,4.51-3.21,4.64a2.36,2.36,0,0,1-1.79-.68,21.46,21.46,0,0,1-1.31,7.52c-.81,2-2.17,2.1-2.72,2-1.41-.12-2.78-1.57-3.18-3.37l-.3-1.28a36.44,36.44,0,0,1-.85-4.13,4.36,4.36,0,0,1-1.91,1,3.38,3.38,0,0,1-3.44-1.26l-.06-.09c-2-3.26-1.42-6.95-.88-10.52.07-.43.14-.87.2-1.31a0,0,0,0,1,0,0,53.08,53.08,0,0,1,8.47-21l0,0c8.44-10.59,16.37-10.84,28.32-9.83A56.09,56.09,0,0,1,186.13,0h.18a50.47,50.47,0,0,1,25.48,7.12c3.23,1.82,7.3,5,8.25,9.81a3.78,3.78,0,0,1-.43,2.88,2,2,0,0,1-.74.57v.69a.79.79,0,0,1-.6.77,13.9,13.9,0,0,1-2.22.37.76.76,0,0,1-.62-.23.78.78,0,0,1-.24-.61l.09-1.22v-.06a3.66,3.66,0,0,0,0-.81l0-.35-2.58,1.33a76.47,76.47,0,0,1-8.91,4.12l-.07,0c-3.29.87-5.84.48-7-1.07-.57-.77-1-2.06-.27-4.1l-1.83,1c-1.29.7-2.5,1.35-3.69,2-1.78,1.28-6.31,3.51-8.42,2a2.54,2.54,0,0,1-1-2.25c-.43.31-.9.67-1.41,1.05-3.55,2.68-6.48,4.76-8.52,4.82-1.83,5.32-3.15,10.9-4.42,16.3-.22.82-.39,1.67-.56,2.5a19.64,19.64,0,0,1-2,6.24l0,.07c-1.12,1.49-2.25,1.2-2.69,1-1.2-.53-1.88-2.28-1.81-3.7a1.8,1.8,0,0,0-1.76-.22,4.23,4.23,0,0,0-2.44,3.25v0A8.84,8.84,0,0,0,157,58.89,1.17,1.17,0,0,1,157,59a4,4,0,0,0,3.15,2.45,2.21,2.21,0,0,0,2.24-1.11.78.78,0,0,1,.37-.32,1.9,1.9,0,0,1,1.86,0c1,.69,1,2.4,1,3.66v.59a.76.76,0,0,1,0,.15,4.82,4.82,0,0,0,0,.76,3.54,3.54,0,0,1-.27,1.9c0,1.26-.16,2.6-.36,4.19a.91.91,0,0,1-.23.46c-.72.73-1.43,1.52-2.12,2.29-.4.45-.8.9-1.2,1.33a.8.8,0,0,1-1.38-.65c.06-.4.12-.79.19-1.18A13.07,13.07,0,0,1,152.62,75.83ZM137.18,60.75C139.62,67,142.93,71,147.29,73.09c5.1,2.48,11.15.8,13.6-2.32a.8.8,0,0,1,1.41.67c-.07.27-.12.55-.18.82.43-.47.87-1,1.33-1.42.17-1.32.28-2.65.33-4a.74.74,0,0,1,.15-.45,2.17,2.17,0,0,0,.11-1.1,4.86,4.86,0,0,1,0-1v-.59c0-1.39-.09-2.17-.3-2.31h-.14A3.81,3.81,0,0,1,160,63a5.57,5.57,0,0,1-4.46-3.46,10.37,10.37,0,0,1-1.33-6.47,5.8,5.8,0,0,1,3.47-4.55,3.44,3.44,0,0,1,3.7.8.82.82,0,0,1,.24.72,2.65,2.65,0,0,0,.83,2.44c.25.11.59-.27.75-.47A18.24,18.24,0,0,0,165,46.34c.18-.84.35-1.71.58-2.56a164.26,164.26,0,0,1,4.67-17,.36.36,0,0,1,0-.09.78.78,0,0,1,.93-.42c1.43.42,5.47-2.64,7.89-4.47a37.42,37.42,0,0,1,3.09-2.19.83.83,0,0,1,.75,0,.66.66,0,0,1,.17.12.78.78,0,0,1,.24.84c-.23.74-.54,2,0,2.44,1,.73,4.52-.51,6.59-2l.06-.05c1.22-.7,2.52-1.4,3.77-2.07s2.68-1.45,4-2.21a.81.81,0,0,1,1,.18l.09.13a.81.81,0,0,1,0,.81c-1.26,2.06-1.61,3.76-.94,4.65s2.7,1.17,5.27.49a73.56,73.56,0,0,0,8.69-4c1.35-.7,2.74-1.41,4.15-2.09a.78.78,0,0,1,1,.3.73.73,0,0,1,.09.61.73.73,0,0,1-.22.39c-.17.16-.15.54-.11,1.1a4.91,4.91,0,0,1,0,1.15c0,.07,0,.14,0,.2l.44-.08v-.67A.79.79,0,0,1,218,19a.37.37,0,0,0,.32-.14,2.35,2.35,0,0,0,.13-1.59c-.84-4.2-4.54-7.07-7.5-8.73A48.74,48.74,0,0,0,186.34,1.6h-.17a54.44,54.44,0,0,0-38,18.23.79.79,0,0,1-.66.26C134.82,19,128,19.55,120.21,29.27A51.84,51.84,0,0,0,112,49.61c-.06.44-.13.87-.2,1.31-.5,3.27-1,6.64.63,9.4a1.78,1.78,0,0,0,1.82.67,3.15,3.15,0,0,0,2.18-2.3.8.8,0,0,1,1.57.25,21.23,21.23,0,0,0,.91,6.34c.11.44.21.87.31,1.3A2.65,2.65,0,0,0,121,68.72c.54,0,.9-.56,1.11-1.07,1.09-2.54,1.18-5.87,1.25-8.82,0-.38,0-.76,0-1.13a.8.8,0,0,1,.7-.77.81.81,0,0,1,.86.58c.48,1.77,1.16,2.36,1.6,2.32s1.52-1.1,1.75-3.23c.17-1.43.3-2.86.42-4.25a60.66,60.66,0,0,1,1.41-9.78c1.22-5.18,4.48-14.42,12.53-18a.79.79,0,0,1,1,1.19,40.65,40.65,0,0,0-6.46,35Z"/></g><g id="Group_1505" data-name="Group 1505"><path id="Path_3337" data-name="Path 3337" class="cls-3" d="M115.41,183.94l0-.07c0,.08-.17.49-.19.56a.46.46,0,0,0-.07.07C115.25,184.31,115.33,184.13,115.41,183.94Z"/></g><g id="Group_1506" data-name="Group 1506"><path id="Path_3338" data-name="Path 3338" class="cls-3" d="M135.94,98.5l-.29,0Z"/></g><g id="Group_1507" data-name="Group 1507"><path id="Path_3339" data-name="Path 3339" class="cls-3" d="M73.81,210.87l-.08-.07-.14-.14.22.2Z"/></g><g id="Group_1508" data-name="Group 1508"><path id="Path_3340" data-name="Path 3340" class="cls-3" d="M168,160.64l.65-.28c-.72.35-1.44.68-2.16,1C167,161.11,167.47,160.87,168,160.64Z"/></g><path class="cls-3" d="M276.41,255.39q-23.67,7.65-46.62,17.3-6.24,2.63-12.42,5.4h-.07a1.06,1.06,0,0,0-.42.09,312.15,312.15,0,0,0-29.32,12.61c-8,3.51-16.59,7.47-26.89,12.47a1,1,0,0,0-.55.71,1,1,0,0,0,.24.86,100,100,0,0,0,7.07,7.2c.45.45.91,1,1.37,1.52s1,1.14,1.48,1.65l.09.08c1.08.85,2.29,1.8,3.5,2.7a1,1,0,0,0,.6.2A1,1,0,0,0,175,318a.71.71,0,0,1,.28-.09c1.45-.29,2.79-.68,4.08-1.06.89-.26,1.74-.51,2.6-.72a39.78,39.78,0,0,0,4.4-1.33,31.36,31.36,0,0,1,4.37-1.3l.06,0,1.06-.28c10.32-2.74,21-5.57,31.09-8.94l.45-.14c.77-.23,1.57-.48,2.36-.7a1,1,0,0,0,.61-.48,1,1,0,0,0,.08-.77c-.51-1.65-1.09-3.38-1.71-5-.64-1.88-1.26-3.83-1.86-5.71a123.41,123.41,0,0,0-4.19-11.8q22.17-9.92,45.1-17.94,6.58-2.29,13.21-4.44C278.16,256.93,277.64,255,276.41,255.39ZM222.8,297.87v0c.48,1.28.95,2.61,1.36,3.92l-1.42.43-.46.14c-10.07,3.37-20.71,6.19-31,8.92l-1,.27a34.89,34.89,0,0,0-4.61,1.37,36.09,36.09,0,0,1-4.19,1.27c-.93.23-1.84.5-2.72.75a39.42,39.42,0,0,1-3.89,1l-.22,0c-1-.76-2-1.57-3-2.29h0c-.44-.44-.9-1-1.34-1.5s-1-1.14-1.48-1.65l0,0c-2-1.87-4-3.87-6.05-6.08,9.75-4.72,17.93-8.5,25.64-11.86l0,0c9.32-4.58,18.85-8.7,28.34-12.24,1.62,3.82,2.9,7.85,4.15,11.75C221.52,294,222.14,296,222.8,297.87Z"/><path class="cls-3" d="M322.59,252.19l0-.07c-2.4-4.58-6.47-8.16-9.92-11.09l-.63-.51-.11-.09-.13-.1-3.08-2.49a60.92,60.92,0,0,1-7.2-3.32,1.43,1.43,0,0,1-.24-.16,56.54,56.54,0,0,0-13.95-3.74c-7.31-.93-14.29-1.13-21.67-1.34-3.68-.11-7.48-.22-11.32-.43l-5.3-.16c-11.38-.34-23.13-.7-34.73-.45-.15-.85-.94-4.11-1.4-6,1.18-6.94,1.59-14.07,2.46-21,.21-2.27.37-4.66.67-6.93,0-1.08.7-2.47,0-3.41a1.07,1.07,0,0,0-1.52,0,1,1,0,0,0-.22.31c-1.78-.63-1.68,3.73-1.94,4.9h0c.1,4.63-1.11,9.24-1.66,13.87-.46,4-.88,8-1,12a.84.84,0,0,0,0,.27,83.63,83.63,0,0,0-12.11-.23c-1.64.06-3.32.12-5,.11l.11-.1h-1.44c.85-2.83,1.82-5.67,2.76-8.42a140.66,140.66,0,0,0,4.5-15c2.05-8.48,2.51-16.83,1.28-23.52-1.65-9-6.18-15.28-13.45-18.54l-.08,0c-11.27-4.05-23.62,1.82-30.89,9.44-6.6,5.7-12.12,12.53-16.65,18.47l0,0c-4.19,5.67-8.42,11.3-12.92,16.73q-3.45,4.16-7,8.21c-1.45,1.67-2.76,3.48-4.3,5.08a29.38,29.38,0,0,1-2.57,2.29c-.45.36-.9.72-1.36,1.07-.19.16-.4.3-.59.46s-.34.38-.62.36l-.24,0c-.55.05,0-1.63.09-1.9,1.25-4,1-8.17,1.95-12.16.52-2.08,1-4.14,1.71-6.18.57-1.78,1-4.35,2-5.91l0,0c3-9.21,5.37-18.62,9.39-27.57a1.67,1.67,0,0,0,.9-2.11c1-1.58.68-2.14-1-2.84-3.79-1.92-6-7.13-6-11.26a27.41,27.41,0,0,1,4.73-16.68c1.21-.77.08-2.29-.86-1.1-1.79-.3-4.9,8.19-5.4,9.8-2.69,8.06-4.2,19.71,5.11,24.06-1.66,4.17-3.62,7.91-5.39,12.06-2.37,6.82-5.33,13.46-7.28,20.4-.82,3.11-1.22,6.22-1.77,9.38-2.76,4.43-7.69,6.74-12.65,7.42h0c-10.1,2.54-17.39-2.2-24.18-9.2-4.1-5.6-6.77-12.18-9.07-18.67,6.2-3.77,9.9-10.46,15.68-14.77h0c.28-.22.56-.45.82-.7,2.13,4.15,3.65,8.67,6.79,12.2a11.46,11.46,0,0,0,1.4,1.55,2,2,0,0,0,1.26.9.91.91,0,0,0,1.22.37.92.92,0,0,0,.45-.59c1.22-2.53,1.65-5.43,2.67-8.05.62-2.41,1.53-4.84,2-7.28A124.56,124.56,0,0,1,100.2,148c1-2.89.49-5.89,1.44-8.76a94.69,94.69,0,0,1,7.82-19.32c6.53-11.77,13.68-17.9,27.28-20,8.84,15.83,34.36,19.43,50.85,18a56.83,56.83,0,0,0,10-1.68c1.39-.13,2.21-2,.25-2-10.26,0-20.51,3-30.76,1.3a36.51,36.51,0,0,1-13.2-4.81c-5.41-2.92-12.24-5.81-14.82-11.9,6.24-1.64,12.5-3,18.57-5.24,1-.67,3.47-.45,3.35-1.82,0-.17.1-.4.13-.57a114.81,114.81,0,0,0,2-12.79c.34-2.4.79-4.8,1.11-7.21-1.16,1.17-2.23,2.44-3.34,3.65-.72,4.85-.79,9.78-1.19,14.71a40.49,40.49,0,0,1-6.32,2.31,22.91,22.91,0,0,1-3.85,1.54c-3.86,1.4-7.87,2.4-11.7,3.94-2.79-2.18-11.17,2.71-14.34,3.9a35.69,35.69,0,0,0-8.38,5.71c-9,7.27-11.7,18.64-14.46,29.31-4.07,15.8-9.34,31.36-12.94,47.32-.83-1.35-1.82-2.6-2.76-3.87a63.27,63.27,0,0,1-3-5.81l0,.07c-5.33-9.68-7.44-20.64-11.17-31-1.67-4.6-2.94-9.44-5.77-13.55s-9-10.8-14.36-8c-1.67,2.18-.75,5.36,1.59,6.8-2.69,1-2.27,4.37-.88,6.32-1.64,1.28-1.52,4.15-.2,5.67-1.7,1.86-1.64,5.92,1,7,.73,11.28,2.92,22.65,5.46,33.67l0-.2c.54,2.74,1.46,5.74,2.28,8.46a34.78,34.78,0,0,0,3.39,9.08c3.21,6.48,6.92,13.61,13.58,17.16,4.85,2.58,10,4.31,15.55,3.48a22.79,22.79,0,0,0,13.89-8.26c-.65.76-.58,2.61-.73,3.59l-.68,4.46c-.5,3-.75,6-1.4,8.94s-1.86,6-2.66,9c-1.48,5.23-3.09,11.34-3.37,17.59-.38,7.58-.48,17.41,2,26.28,2.74,9.6,8,16.25,16,20.35l.09,0,.1,0A87.85,87.85,0,0,0,132,304.35c-.21,3.87-.35,8-.17,12v.08a9.15,9.15,0,0,1,0,1.17c0,1.38,0,3.27,1.55,4.38.25.18.5.32.74.46a4.08,4.08,0,0,1,.85.57c2.13,3.63,5.31,7.15,10,11.07l.13.1a18.52,18.52,0,0,1,1.78,1.52c2,1.84,4.25,3.9,6.17,3.9a2.57,2.57,0,0,0,.82-.14,2.48,2.48,0,0,0,1.29-1.1,3.32,3.32,0,0,0,2.9.17,2.38,2.38,0,0,0,1.17-1.36,2.53,2.53,0,0,0,2.06-.56,3.75,3.75,0,0,0,1.16-2.36,2.91,2.91,0,0,0,2.45,1.83,3.21,3.21,0,0,0,1.67-.3,3.15,3.15,0,0,0,2.24,1.89,2.78,2.78,0,0,0,2.39-.74,2.15,2.15,0,0,0,3.71-.34,2.47,2.47,0,0,0,1.4,0,3,3,0,0,0,2-2.12c1-.85,1-2.32,1-3.43a7.09,7.09,0,0,1,.1-1.22l0-.09v-.1a47.76,47.76,0,0,0-.56-11.64c7.56-1.07,14.84-3.61,21.89-6.06,2.7-.94,5.5-1.91,8.25-2.78a27.1,27.1,0,0,0,2.72-1c.44-.19.91-.39,1.41-.58,4.34-1.13,7.91-2.21,11.11-3.35,1.2,2.48,3.29,2.27,5.36,1.8a149.22,149.22,0,0,0,28-7c6.61-1.81,13.21-4,19.6-6.18l5.32-1.78c10.56-3.19,20-6.28,28.55-11.69,5-2.86,9.7-5.87,11.71-11A22.09,22.09,0,0,0,322.59,252.19ZM60.41,183.51h0a205,205,0,0,1-4.4-25c-.21-2.1-.51-4.2-.62-6.33-.31-1.55.14-6.46-2-6.56a1.35,1.35,0,0,0-.46-.24,2.75,2.75,0,0,1,.2-3.89l.2-.16a.62.62,0,0,0,.78-.39s0-.07,0-.11a.88.88,0,0,0-.08-1.7,2.35,2.35,0,0,1-1.36-.67c-.45-.92-.41-2.55.71-2.85a2.16,2.16,0,0,0,1.71-.29c.94-1.72-2-1.15-2.45-2.27a2.39,2.39,0,0,1,.68-3.32l0,0c.41-.06.84-.09,1-.52,1-.42.56-1.65-.28-1.94-1.19-.7-2.64-1.48-2.92-2.94-.08-.68.1-1.94,1.07-1.77,3.65.2,6.91,2.76,9.15,5.47,3.16,3.76,5,8.63,6.43,13.26,3.69,9,5.53,18.62,9.08,27.7-5.75,4.75-10.67,10.07-16.53,14.55A.08.08,0,0,0,60.41,183.51Zm71,118.49a84.26,84.26,0,0,1-15-3.27c-16.3-8.38-17.62-27.19-16.75-44.49a63.63,63.63,0,0,1,2.18-13.07c1.07-4.13,2.58-8.13,3.4-12.33a4.64,4.64,0,0,1,.37-1.27,4.79,4.79,0,0,1,.65-.85c9.54-10.56,19.11-21.13,27.83-32.4q3.24-4.19,6.31-8.5c4.47-5.86,9.91-12.59,16.37-18.15l.08-.08c6.75-7.1,18.19-12.62,28.51-8.93,6.54,2.94,10.63,8.63,12.14,16.88,1.17,6.39.72,14.41-1.26,22.62A141.24,141.24,0,0,1,191.82,213c-1.06,3.1-2.15,6.3-3.09,9.5a.85.85,0,0,0-.5.64,167.1,167.1,0,0,1-10.93,33c-2.48-.43-5.1-.65-7.6-1s-5.3-.78-8-1.1c-1.58-.2-19.22-2-19.25-1.9.36-1.9.77-3.79,1.28-5.65,4.19-15.39,8.28-30.72,13.59-45.78.21-.61.37-1.43-.17-1.79-.74-.49-1.55.55-1.84,1.39q-2.94,8.47-5.58,17c-.88,2.85-1.74,5.72-2.57,8.59C144.42,235.46,142,245.18,140,255c-1,4.81-1.74,9.62-2.82,14.39-1.13,5-2.27,9.91-3,15C132.88,290.73,132,296.51,131.39,302Zm1.92-.37c.58-5.28,1.47-10.83,2.72-16.94,0,0,0-.05,0-.07a229.09,229.09,0,0,1,5.19-25.16c.44-1.79.89-3.63,1.33-5.46h0a29.77,29.77,0,0,0,4.32.5c.85.06,1.66.12,2.47.22,3.93.35,1.31-.16,6,.37,3.8.35,7.62.92,11.32,1.47,3.22.48,6.55,1,9.87,1.33h.12l-16.36,40.7-.06-.36L159.4,301l-.18.43a114.39,114.39,0,0,1-12.56.09A112.19,112.19,0,0,0,133.31,301.63ZM159.84,335c-.22.19-.74-.13-1-.28l-2.07-1.42.34,2.5c.07.56,0,.8-.08.83a2.05,2.05,0,0,1-1.7-.73l-1.55-1.54-.34,2.16c-.11.7-.3.91-.34.92-.82.28-3.76-2.41-4.73-3.3a18.85,18.85,0,0,0-2-1.74h0c-4.5-3.76-7.53-7.12-9.51-10.52l-.06-.1-.07-.09a5.7,5.7,0,0,0-1.48-1.1c-.2-.12-.4-.23-.57-.35-.57-.4-.6-1.23-.6-2.54a12.91,12.91,0,0,0,0-1.39c-.19-4.33,0-8.71.22-12.81a101.93,101.93,0,0,1,12.36-.11,112.29,112.29,0,0,0,12-.08c-1.73,5.26-3.77,11.37-6,17.39l-.2.53.31.48c.32.48.63,1,.94,1.47a35.17,35.17,0,0,0,2.74,3.91l1.25,1.49a36.35,36.35,0,0,1,2.34,3.64A2.92,2.92,0,0,1,159.84,335Zm2.12-3.86a30.78,30.78,0,0,0-3.9-5.57l-.1-.11h0a34.66,34.66,0,0,1-2.4-3.48l-.66-1c1.64-4.42,3.17-8.86,4.54-13,.08.77.17,1.54.25,2.3a81.34,81.34,0,0,0,1.94,12.3,38.26,38.26,0,0,1,.28,5.24c0,1.11,0,2.24.09,3.39Zm158.83-63.47c-1.74,4.46-6.08,7.22-10.76,9.89l0,0c-8.32,5.26-17.62,8.3-28.05,11.45l-5.36,1.8c-6.37,2.14-12.95,4.35-19.51,6.15l-.06,0a147.37,147.37,0,0,1-27.69,6.88l.05.63-.14-.61c-2.15.49-2.66.43-3.19-1.35l-.34-1.15-1.11.42c-3.94,1.42-8,2.65-12,3.68l-.12,0c-.56.21-1.06.43-1.55.63a22.32,22.32,0,0,1-2.51.95c-2.78.88-5.6,1.86-8.32,2.81-7.29,2.54-14.84,5.17-22.58,6.1l-1.17.14.21,1.17a46.46,46.46,0,0,1,.73,12.12,8.69,8.69,0,0,0-.15,1.61c0,.6,0,1.71-.32,1.85l-.56.28-.05.63a.8.8,0,0,1-.49.71c-.07,0-.22.06-.42-.21l-1.42-2-.57,2.36a2.43,2.43,0,0,1-.36.9,2.65,2.65,0,0,1-.47-1.12l-.77-3.75-1.36,3.58c-.35.92-.83,1.29-1.13,1.23s-.87-.69-.87-1.89v-5.88l-2.15,5.47a1.05,1.05,0,0,1-1.08.68.66.66,0,0,1-.64-.61,36.37,36.37,0,0,1-.33-5.52,47.23,47.23,0,0,0-.2-4.76l.1,0-.23-.9a77.88,77.88,0,0,1-1.9-12.05c-.25-2.36-.51-4.81-.9-7.22l-.11-.69,8.46-20.55q3.13-7.59,6.26-15.18c1.1-2.68,2.67-5.49,3.41-8.29.11-.41.39-.73.28-1.09a1.18,1.18,0,0,0-.14-.23A168.38,168.38,0,0,0,190,224.33c2.52.11,5,.11,7.56,0a51,51,0,0,1,11.52.47h0a7.85,7.85,0,0,1,1.36.21,2,2,0,0,1,.56.23l0,0,0-.06.4.38c.31,1.34.61,2.6.8,4l.14,1,1,0c11.86-.28,23.92.08,35.58.44l5.27.15c3.85.21,7.66.32,11.35.43,7.34.21,14.27.42,21.47,1.33,9.09,1.4,16.4,4.17,22.3,8.45l-.07.08,1.12.7a1.13,1.13,0,0,0,.13.1c3.43,2.89,7.69,6.47,10.05,10.95A20.07,20.07,0,0,1,320.79,267.64Z"/><g id="Group_1512" data-name="Group 1512"><path id="Path_3344" data-name="Path 3344" class="cls-3" d="M168,160.64c-.5.23-1,.47-1.51.72.72-.32,1.44-.66,2.16-1Z"/></g><g id="Group_1513" data-name="Group 1513"><path id="Path_3345" data-name="Path 3345" class="cls-3" d="M115.25,184.43c0-.07.16-.48.19-.56l0,.07c-.08.19-.16.37-.23.56A.46.46,0,0,1,115.25,184.43Z"/></g><g id="Group_1514" data-name="Group 1514"><path id="Path_3346" data-name="Path 3346" class="cls-3" d="M73.73,210.8l.08.07v0l-.22-.19Z"/></g><g id="Group_1515" data-name="Group 1515"><path id="Path_3347" data-name="Path 3347" class="cls-3" d="M174.48,321.39v0Z"/></g><g id="Group_1516" data-name="Group 1516"><path id="Path_3348" data-name="Path 3348" class="cls-3" d="M219,157.62c-1.16.47-.92,2.64-1.28,3.79-.61,5.05-2.11,9.93-2.8,15-.89,4.21-1.51,8.36-2.16,12.59-.3,2.33-1.25,4.89-.45,7.19,2.17,2.45,3.06-1.17,3.06-3,1.75-.28.89-2.69,1.12-3.93-.09-1.43.58-2.75.87-4.14.77-2.6,5.49-28.48,1.65-27.5ZM216,182s0,.05,0,.07A.2.2,0,0,1,216,182Z"/></g><g id="Group_1517" data-name="Group 1517"><path id="Path_3349" data-name="Path 3349" class="cls-3" d="M238,156.39h0c-1,10.42-4.7,21-3.21,31.6v0c-.23,2.23,2.52,3.53,3,.93a88.69,88.69,0,0,1,.48-15.11c.88-5.58,1.95-11.16,2.38-16.79a1.41,1.41,0,0,0-2.68-.6Z"/></g><g id="Group_1518" data-name="Group 1518"><path id="Path_3350" data-name="Path 3350" class="cls-3" d="M253.2,134.43c-2.15.58-1.78,5.09-2.26,6.94-.44,4.15-1.57,8-2.36,12-1.36,6.48-3.29,12.79-5.18,19.12-2.08,5.91-2.5,13.36-7.55,17.57a10.1,10.1,0,0,1-.91-.94v0c-.41-.38-.5-1-.84-1.39a1,1,0,0,0-1.38,0,.91.91,0,0,0-.25.41c-.32,3.73,2.61,6.14,5.85,3.45l0,0h0a25.32,25.32,0,0,0,4.34-6.68h0c2.21-5.07,3.27-10.67,5-15.95,2.39-6.73,3.66-13.74,4.84-20.76.7-3.38.64-6.75,1-10.16,0-1.32,1.73-3.33-.33-3.67h0Zm-15.07,57.34-.07,0Z"/></g><g id="Group_1519" data-name="Group 1519"><path id="Path_3351" data-name="Path 3351" class="cls-3" d="M260.52,130.88c-2.32,1-2.25,4.22-3,6.3a22.7,22.7,0,0,0-.84-2.26h0c-2.32-3.65-4.63.72-4.7,3.31.05.94-.83,2.87.49,3.13a.71.71,0,0,0,.7-.7c.09-1.82.21-3.79,1.39-5.27a.43.43,0,0,1,.16,0c1.65,2-.08,10.26,2.9,9.79,1.34-.46.86-2.32,1.09-3.44.39-3.15.74-6.23,2.09-9.1h0c1.34,2.21.92,5.05,1,7.57a1.75,1.75,0,0,0,.39,1.37c2.56,1.66,2.41-2,2-3.62a.06.06,0,0,0,0,0c-.09-.6-.19-1.18-.3-1.78h0c-.39-1.92-.85-5.34-3.37-5.36Zm0,1.55.1,0Zm.41.07h0Zm-6.46,2.92-.05,0Zm2,6.89v0Zm0,.08a.25.25,0,0,1,0,.08S256.51,142.41,256.51,142.39Z"/></g><g id="Group_1520" data-name="Group 1520"><path id="Path_3352" data-name="Path 3352" class="cls-3" d="M267.61,129.55c-1.94,1.68-2.77,4.35-3.69,6.63-.19,1.32-2.5,4.69-.94,5.4,1,.24,1.14-1.08,1.41-1.77,3.18-9.32,5.63-12.89,3.83-.12,0,0,0,0,0-.06v0l0-.08c-.08,1.72-.73,3.45-.2,5.09a1.33,1.33,0,0,0,1.78.56,1.36,1.36,0,0,0,.66-.79,27.88,27.88,0,0,1,4.24-8.84h0c-.61,3.29-2.1,6.32-3.07,9.5-.71,2.43-2.29,4.58-2.44,7.18-1.46,7.12-1.23,14.57-2.87,21.69-1.14,4.93-2,9.84-3.66,14.67a64.57,64.57,0,0,1-5.39,11.4h0c-5.3,10.48-19.1,17.86-30.5,13.14l.06,0c-5.46-2.25-6.55-6.52-7.52-11.77-.6-4.34-1.45-8.85-1.67-13.35-.28-2.2,0-4.38-.14-6.55a1,1,0,0,0-1.74-.25h0c-1.29,6.07-.3,12.5.49,18.6a2.51,2.51,0,0,1,0-.27c0,.26.07.52.1.78h0l.06.42h0v0h0c.78,6.33,3.2,14.36,9.77,16.75,8.79,2.54,19.5,1.12,26.05-5.69,12.85-14.61,17.17-34.3,19.89-53.06.59-3.11.75-6.38,1.8-9.36h0c2.33-5.38,6.09-26.67-3.16-11.13v0c-.15-2.15,1.06-11.1-3.11-8.85Zm1.12,1.28h0Zm6.13,3.25a.14.14,0,0,1,0,.06S274.87,134.11,274.86,134.08Zm-3.75,30.76s0,.1,0,.15S271.1,164.89,271.11,164.84Zm-54.74,35.84v0ZM245.6,214l.7-.32a10.25,10.25,0,0,1-2.09,1l1.39-.67Z"/></g><g id="Group_1521" data-name="Group 1521"><path id="Path_3353" data-name="Path 3353" class="cls-3" d="M208.82,103.87c-.28.27-.2.69-.26,1h0c-1.24,12.65-4.27,24.93-6.26,37.43-.52,4.76-1.23,9.3-1.44,14,0,.65,0,1.68.82,1.71,1.42-.21,1-4.71,1.46-6,.69-6.16,2-12.13,3.07-18.23,1.09-5.1,1.5-10.82,2.56-15.77a62,62,0,0,0,1.44-9.1c-.26-1.09,1.39-3.74-.26-3.91.27-.76-.34-1.79-1.14-1.14Z"/></g><g id="Group_1522" data-name="Group 1522"><path id="Path_3354" data-name="Path 3354" class="cls-3" d="M202.66,99.3a.9.9,0,0,0-.57.44,51.07,51.07,0,0,0-4.23,14.5h0c-.17.68-.34,1.35-.49,2h0a236.94,236.94,0,0,0-3.4,26c-.43,4.92-1,10.05-.41,15h0c0,.87.25,2.42,1.48,1.76h0c.48-.37.4-1.06.48-1.61.26-2.09.48-4.2.68-6.3.93-8.62,1.36-17.3,2.68-25.9,1.12-7.35,2.93-14.06,3.9-21.36.83-.41.64-1.64.91-2.43h0c.21-.84.24-2.38-1-2.12Z"/></g><g id="Group_1523" data-name="Group 1523"><path id="Path_3355" data-name="Path 3355" class="cls-3" d="M202.35,99.16a.92.92,0,0,0-.26.61c.07.81,1.06,1.15,1.6,1.65h0c1.83.93,3.05,2.57,4.87,3.51h0a1.06,1.06,0,0,0,1.68-1.23h0c-.52-.82-1.77-.86-2.41-1.64-1.38-1.23-3.13-1.84-4.52-3h0a.82.82,0,0,0-1,.15Z"/></g><g id="Group_1524" data-name="Group 1524"><path id="Path_3356" data-name="Path 3356" class="cls-3" d="M232.91,96.9c-6.47.22-12.78,2.32-18.72,4.68h0c-2,.93-4.14,1.81-5.6,3.45-.2,1.41,1.4,1.18,2.06.41h0l.16-.1c.54.61,1.29,0,1.77-.4,5.76-4.83,13.46-4.36,20.52-5,6.55.19,13.5-1,19.3,2.75h0c.22.11.43.23.64.35h0l.17.1h0c.69.31,1.14,1,1.82,1.26a1.16,1.16,0,0,0,.92-2.07,26.46,26.46,0,0,0-14.39-4.79,42.93,42.93,0,0,0-8.69-.67Z"/></g><g id="Group_1525" data-name="Group 1525"><path id="Path_3357" data-name="Path 3357" class="cls-3" d="M201.29,153.61a33,33,0,0,0-.44,6.51,4.52,4.52,0,0,0,.09,1h0l.06.11s0,.05,0,.07l-.07,0h0c-2.07-1-4.45-1.37-6.43-2.63-.18-1,1.2-2.06.41-2.8-1.37-.34-1.36,2.08-1.8,3-.09,1.62,2.19,2,3.25,2.8,1,.51,2.07.66,3,1.19s3,1.4,3.14-.45h0l.42-3.29h0c0-1.31,1.21-5.94-.91-5.65a.41.41,0,0,0-.56-.1.46.46,0,0,0-.17.29Zm-6.8,5.12h0l0,0,0,0Z"/></g><g id="Group_1526" data-name="Group 1526"><path id="Path_3358" data-name="Path 3358" class="cls-3" d="M231.79,152.37c-8.59.3-17.39,1.24-25.17,4.93-1.92,1.09-4.76,1.62-5.69,3.85h0a.73.73,0,0,0,0,.36c-.59,1,1,1.86,1.57.87a7.23,7.23,0,0,1,1.68-1.34,53.19,53.19,0,0,1,17.15-5.21h0c3.27-.55,6.65-.14,9.93,0h0c5.95.12,11.72,1.56,17.45,2.93h0a1.34,1.34,0,0,0,1-2.27,15.54,15.54,0,0,0-3.24-1.61h0a56.57,56.57,0,0,0-14.65-2.55Z"/></g><g id="Group_1527" data-name="Group 1527"><path id="Path_3359" data-name="Path 3359" class="cls-3" d="M219.91,154.59a2.91,2.91,0,0,0-.27.69,2.3,2.3,0,0,0-.1.35.83.83,0,0,0-1,.56l0,.14h0c-.18,1-.26,2-.39,3,0,.48-.21,1.05.1,1.47a.92.92,0,0,0,.71,1.09h0c1.47,2.13,1.84-1.81,2-2.78s.35-2.17.43-3.26h0c.35-1-.57-2.31-1.43-1.24Z"/></g><g id="Group_1528" data-name="Group 1528"><path id="Path_3360" data-name="Path 3360" class="cls-3" d="M241.72,184.91a1.44,1.44,0,0,0-.42.18c-1.59.19-.64,1.85-.07,2.62h0c.18.28.41.55.61.84l0,0a14.81,14.81,0,0,0,3.37,3.56l-.09-.08a43.92,43.92,0,0,0,12.09,8h0c2.88,1.91,4.73-.68,1.26-1.94h0a43.71,43.71,0,0,1-5.91-3.56,28.5,28.5,0,0,1-4.72-3.44c-3.56-2.16-4.06-6.78-6.1-6.16Z"/></g><g id="Group_1529" data-name="Group 1529"><path id="Path_3361" data-name="Path 3361" class="cls-3" d="M278.31,147.58h0c-2.95.35-7.06,3-6.42,6.39-.15.34-.38.63-.53,1-.24,1.13,1.31,1.28,1.64.29a10.27,10.27,0,0,1,5.46-5.27c1.65-.36,1.73-2.58-.15-2.4Z"/></g><g id="Group_1530" data-name="Group 1530"><path id="Path_3362" data-name="Path 3362" class="cls-3" d="M293.91,85a10.57,10.57,0,0,0-1.94.29h0a36.83,36.83,0,0,0-16.19,4.43c-5,2.53-10.46,4.74-14.17,9h0c-.23.26-.48.51-.73.76h0c-1.36,1.17-2.84,2.47-4.65,2.8H256c-.94,0-2.44-.48-2.73.8h0a1.15,1.15,0,0,0,.93,1.33,1.22,1.22,0,0,0,.33,0h0a7.4,7.4,0,0,0,5.72-1.71,15.4,15.4,0,0,0,2.43-2.06h0c3.7-4.52,9.56-7.14,14.74-9.63,5.11-2.7,9.47-3.6,15.21-3.95h0c-3.2,9.63-5,19.57-7.08,29.51-1.2,4.81-2.33,9.79-3.24,14.68-1.1,5.36-2.67,10.62-3.75,16a1.14,1.14,0,0,0-.25.24h0c-1,1.15.65,3,1.67,1.57,1.91-6.91,3.61-14,5.05-21,2.67-11.55,5.23-23.13,8-34.67.55-1.89,1.17-3.75,1.66-5.67.9-1,1.11-2.79-.73-2.77Zm-.44.73v0Zm.39,1.26,0,0Z"/></g><g id="Group_1531" data-name="Group 1531"><path id="Path_3363" data-name="Path 3363" class="cls-3" d="M232.22,91.28c-7,.8-14.39.94-21.08,3.38h0A45.52,45.52,0,0,0,203.3,99h0c-1.66,1.27-.65,3,.57,1.76l0,0a7.57,7.57,0,0,1,.77-.83h0c2-1.14,4.06-2,6.09-3.12,4.33-1.88,9.09-2,13.68-2.66,7.53-.91,15.52-1.59,22.72,1.64,3,1.18,6.14,2.4,8.3,4.83,1,.88,2,3.61,3.58,2.47,1.5-2-5.15-6.67-7-7.27a39.76,39.76,0,0,0-19.8-4.57Z"/></g><g id="Group_1532" data-name="Group 1532"><path id="Path_3364" data-name="Path 3364" class="cls-3" d="M284.92,78.13c-1.12.26-2.23.57-3.34.86h0c-9,2.68-19.39,7.3-23.32,16.41-.7,2-2,4-1.08,6.13a.82.82,0,0,0,1.6-.35h0c-.68-1.45.22-2.88.8-4.23a16.12,16.12,0,0,1,4.22-6.23c5.63-5.77,13.64-8.65,21.3-10.6a7.22,7.22,0,0,1,2-.23c.67-.08,1.35-.16,1.73.52A56.23,56.23,0,0,0,293,86.54c.42,1.1,2.08,2,2.35.34-.52-1.64-1.87-3-2.78-4.44l.16.21c-2.42-3.13-3.3-5.27-7.79-4.52Z"/></g><g id="Group_1533" data-name="Group 1533"><path id="Path_3365" data-name="Path 3365" class="cls-3" d="M284.05,72.32c-8.84,1.6-19.83,6.81-24,15.17A13.36,13.36,0,0,0,257.16,94c-.08.77-1.4,9,0,7.24-.12-5.18,1.15-10.33,4.5-14.35a16.68,16.68,0,0,1,6.06-6.36h0a47.28,47.28,0,0,1,15.6-6.68h0c-.73,1.66-1.26,3.5-1.81,5.2h0c-.84,1.11.63,2.41,1.29,1a34.69,34.69,0,0,1,1.43-4.79c.36-.87,1.35-2.79-.24-2.92Z"/></g><g id="Group_1534" data-name="Group 1534"><path id="Path_3366" data-name="Path 3366" class="cls-3" d="M267.35,80.28c-2.57.13-4,2.61-5.72,4.22-4.32,4.59-5.87,11-5.44,17.2h0c0,.22,0,.43,0,.65h0c-.24,1.34,1.83,1.67,1.88.28a23.17,23.17,0,0,1,.12-7.15v0c0-4.7,4.54-13.4,9.33-14.53a.35.35,0,0,0,.21-.46.37.37,0,0,0-.4-.24Zm-4.82,4.64,0,.06,0-.06Z"/></g><g id="Group_1535" data-name="Group 1535"><path id="Path_3367" data-name="Path 3367" class="cls-3" d="M253.57,102.39c-.9,7.45-3.17,15-3.72,22.7a0,0,0,0,1,0,0,0,0,0,0,1,0,0v0c-.57,3.3-.65,6.67-1,10l0-.05c-.85,7.26-1.39,14.2-2.56,21.31a1,1,0,0,0,.95,1c1.49-.16.86-2.21,1.2-3.24l0,.06c1.9-10.51,2.6-21.24,3.67-31.88.25-6.44,2.8-13.06,2.29-19.56h0a.48.48,0,0,0-.59-.34.45.45,0,0,0-.21.12Zm-3.68,22.44,0,.17Z"/></g><g id="Group_1536" data-name="Group 1536"><path id="Path_3368" data-name="Path 3368" class="cls-3" d="M252.72,101.74c-.1.32-.2.64-.28,1h0c0,.08,0,.15-.05.23h0c0,.2-.07.4-.11.6h0c0,.39-.45,1.15.06,1.36s.45-.91.63-1.3h0c0-.14.06-.29.1-.43h0c0-.51.72-1.36.1-1.67a.37.37,0,0,0-.45.25Z"/></g><g id="Group_1537" data-name="Group 1537"><path id="Path_3369" data-name="Path 3369" class="cls-3" d="M252.39,102.94h0a.44.44,0,0,0-.11.61h0a.44.44,0,0,0,.63.11l.06,0h0a.47.47,0,0,0,.1-.45h0a.47.47,0,0,0-.59-.26l-.09,0Z"/></g><g id="Group_1538" data-name="Group 1538"><path id="Path_3370" data-name="Path 3370" class="cls-3" d="M260.94,99.21l-.07.35h0c-.2,1.07-.39,2.15-.62,3.23h0c-1.2,7.82-3.33,15.58-3.13,23.51h0c0,2.63-.38,5.31-.4,8,.2,1.34-.95,4,.91,4.4,1.84-.17.94-4.8,1.34-6.26h0c.46-10.77,2.4-21.07,3.72-31.69h0A.85.85,0,0,0,262,100c.1-.45.26-1.12-.35-1.25h0a.58.58,0,0,0-.67.41Z"/></g><g id="Group_1539" data-name="Group 1539"><path id="Path_3371" data-name="Path 3371" class="cls-3" d="M177.21,54.49c0,.67-.82,1.86-.08,2.26.78-.13.57-1.5.87-2.12a.41.41,0,0,0-.33-.47.4.4,0,0,0-.46.33Z"/></g><g id="Group_1540" data-name="Group 1540"><path id="Path_3372" data-name="Path 3372" class="cls-3" d="M179.89,53.81c.13.7-.7,1.91.06,2.3.78,0,.73-1.89.66-2.46a.4.4,0,0,0-.56-.09.38.38,0,0,0-.16.25Z"/></g><g id="Group_1541" data-name="Group 1541"><path id="Path_3373" data-name="Path 3373" class="cls-3" d="M182.85,53.18c0,.74-.74,2.1.2,2.46,1,0,.63-1.57.92-2.26a.57.57,0,0,0-.48-.65.56.56,0,0,0-.64.45Z"/></g><g id="Group_1542" data-name="Group 1542"><path id="Path_3374" data-name="Path 3374" class="cls-3" d="M211.29,50c-.27.22-.12.65-.18,1v-.09c0,.42-.27,1.53.5,1.21.32-.4.14-1,.21-1.53v0c.1-.35-.14-.82-.53-.57Z"/></g><g id="Group_1543" data-name="Group 1543"><path id="Path_3375" data-name="Path 3375" class="cls-3" d="M212.48,49.27c0,.48-.6,2,.33,1.72.31-.43.11-1.1.32-1.6a.33.33,0,1,0-.65-.11Z"/></g><g id="Group_1544" data-name="Group 1544"><path id="Path_3376" data-name="Path 3376" class="cls-3" d="M213.94,49.52c0,.56-.6,1.59.15,1.84.81,0,.5-1.16.73-1.68a.46.46,0,0,0-.38-.51.45.45,0,0,0-.5.35Z"/></g></g><g class="cls-4"><path class="cls-1" d="M43.5,115.16a13.5,13.5,0,0,1,2.4-1.25A15.61,15.61,0,0,1,52,112.65a6.87,6.87,0,0,1,4.77,2,13.68,13.68,0,0,1,3.73,5.57,7.74,7.74,0,0,1,.51,2.74,29.3,29.3,0,0,1-.45,6.34c-.28,1.17-.6,2.31-1,3.44a52.5,52.5,0,0,1-3.91,9.05c-.92,1.62-1.92,3.2-3,4.74-.42.62-.81,1.27-1.18,1.92a56.87,56.87,0,0,1-6.1,8.43,32.92,32.92,0,0,1-2.57,2.58.83.83,0,0,0-.36.71.93.93,0,0,1-.32.83,3.8,3.8,0,0,0-.68,1.29,17.7,17.7,0,0,0-1.71,5,52,52,0,0,0-.61,5.7.81.81,0,0,1-.5.78,31.4,31.4,0,0,1-5.83,2.37,24.14,24.14,0,0,1-3.06.52,61.46,61.46,0,0,1-9.4.29c-1.68,0-3.35-.24-5-.37A33.08,33.08,0,0,1,6,174.22a6.62,6.62,0,0,1-2.35-1.33,1.47,1.47,0,0,1-.5-1,36.09,36.09,0,0,0-.62-4.62,28.62,28.62,0,0,0-1-3.26A14.88,14.88,0,0,0,.12,160.5a1.24,1.24,0,0,1-.11-.68c-.06-1.46.12-2.9.19-4.35a43.82,43.82,0,0,0,0-5.73c-.07-.93.18-1.85.16-2.79,0-1.11.12-2.21.08-3.33-.08-2.35-.12-4.71-.09-7.07,0-3.23.19-6.47.27-9.71,0-.46-.08-.93,0-1.39.09-1.61.18-3.21.15-4.82s0-3.42-.07-5.13c0-1.25.31-2.48.19-3.72a14.34,14.34,0,0,1,.91-5.33,8.48,8.48,0,0,1,4-5c1.18-.7,2.4-1.33,3.59-2A8,8,0,0,0,11,98.22a16.38,16.38,0,0,1,4.5-3,10.06,10.06,0,0,1,5.19-1.1,7.38,7.38,0,0,1,3.56,1.45A17.94,17.94,0,0,1,26,97a5.1,5.1,0,0,0,4.35,1.21,13.92,13.92,0,0,1,4.86,0,6,6,0,0,1,4.57,4,9.62,9.62,0,0,0,.79,1.69,38.16,38.16,0,0,1,2,3.84,1.2,1.2,0,0,0,.16.27,5.08,5.08,0,0,1,.91,4C43.61,113,43.57,114,43.5,115.16ZM2.24,111.35a18.32,18.32,0,0,1,0,3.47c-.07,1.94,0,3.87.09,5.81.08,1.77-.2,3.52-.15,5.28s0,3.37-.06,5.05c0,2.33-.14,4.66-.19,7,0,.59.1,1.19.07,1.78-.07,1.86,0,3.73,0,5.59,0,.21,0,.42,0,.62-.06,1.4-.23,2.78-.16,4.18a58.36,58.36,0,0,1-.11,6.06,22.92,22.92,0,0,0-.17,3.1c.07.79-.16.93.87,1a3.66,3.66,0,0,1,.44.13c1.63.45,3.23,1,4.88,1.34a50.37,50.37,0,0,0,9.71,1.13,95.27,95.27,0,0,0,9.56-.22c1.34-.09,2.68-.28,4-.38a55.37,55.37,0,0,0,7.59-1.14,12.26,12.26,0,0,0,1.55-.52.73.73,0,0,0,.49-.62,24.65,24.65,0,0,0,.32-2.69,51.4,51.4,0,0,0,.31-5.27c0-1.37,0-2.75.09-4.12.09-2.5.18-5,.09-7.52,0-.83,0-1.66-.09-2.49a26,26,0,0,1,0-3.18,34,34,0,0,0,0-4.28,35,35,0,0,1-.08-4.8c.07-1.63.17-3.25.17-4.88,0-1.84.17-3.67.33-5.5.08-1,.19-2.06.29-3.09,0-.07,0-.16-.19-.19l-.43.18a23.59,23.59,0,0,1-5.17,1.65,29,29,0,0,1-7.72.8c-.28,0-.57.08-.85.07-3.66,0-7.31.09-11-.06a44.8,44.8,0,0,1-6.63-.81,33,33,0,0,1-5.77-1.55C3.68,112,3,111.69,2.24,111.35Zm21.4.35,4.43-.15a13.19,13.19,0,0,0,1.78-.11c1.51-.28,3-.32,4.55-.52a14.79,14.79,0,0,0,6-2.13,4.75,4.75,0,0,0,.6-.49.64.64,0,0,0,.15-.89c-.55-1-1-2-1.58-3a13.11,13.11,0,0,1-1.06-2.24,3.67,3.67,0,0,0-.66-1.23,5,5,0,0,0-3.55-1.67,16.22,16.22,0,0,0-3.87.23,5.81,5.81,0,0,1-5.05-1.66A9.86,9.86,0,0,0,22,95.68a6.26,6.26,0,0,0-4.27.15,14.92,14.92,0,0,0-5.78,3.42,8.07,8.07,0,0,1-1.75,1.27c-1.26.68-2.52,1.34-3.73,2.08a8.57,8.57,0,0,0-3.61,4.62c-.22.57-.17.59.34.94a13.23,13.23,0,0,0,5.49,2.27,47.15,47.15,0,0,0,6.38.81c.85,0,1.7-.09,2.56,0A40.63,40.63,0,0,0,23.64,111.7Zm19.53,8.62a.48.48,0,0,0,.51-.12,19.93,19.93,0,0,1,2.39-1.44,6.5,6.5,0,0,1,3.72-.84,4.52,4.52,0,0,1,3.65,1.78,9.2,9.2,0,0,1,1.47,2.81,15.63,15.63,0,0,1,.3,5.78,17.82,17.82,0,0,1-1.15,4c-.59,1.74-1.26,3.46-2,5.14s-2,3.23-2.86,4.89a55.34,55.34,0,0,1-3.45,5.26,41.39,41.39,0,0,1-2.35,3.47,1.52,1.52,0,0,0-.4,1.13,30.2,30.2,0,0,1-.24,4.65c0,.13-.07.31.15.42a4.34,4.34,0,0,0,.74-.63,55.16,55.16,0,0,0,3.65-4.53c.94-1.34,1.85-2.69,2.71-4.08s1.87-3,2.85-4.54a37.48,37.48,0,0,0,2.77-4.95,65.55,65.55,0,0,0,3.1-8.21,17.27,17.27,0,0,0,.82-4.19c.05-1.27,0-2.54.12-3.8a2.61,2.61,0,0,0-.15-.92,14.52,14.52,0,0,0-2.09-4.32,6.83,6.83,0,0,0-4-2.94,8.16,8.16,0,0,0-2.7,0,14.87,14.87,0,0,0-7.18,2.48c-.14.09-.26.17-.27.35A28.44,28.44,0,0,0,43.17,120.32Zm-.09,28.43c.25-.07.32-.24.41-.39.28-.43.55-.88.84-1.31.63-.94,1.31-1.86,1.92-2.82,1-1.58,1.93-3.18,2.9-4.78a26.06,26.06,0,0,0,2-3.69c.8-2,1.41-4,2.21-6,.06-.17.08-.35.13-.53a15.47,15.47,0,0,0,.33-4.55,8.11,8.11,0,0,0-1.5-4.35,2.16,2.16,0,0,0-1-.83,4.42,4.42,0,0,0-3.76.11c-1.41.72-2.66,1.7-4,2.49a.82.82,0,0,0-.45.76c0,1.5,0,3-.15,4.5a16.12,16.12,0,0,0,.15,2.4c.15,1.86,0,3.72,0,5.59,0,1.39,0,2.79.05,4.19,0,1,.14,2,.09,3C43.08,144.58,43.25,146.64,43.08,148.75ZM30.89,163.91c-1.24.12-2.34.24-3.45.33-.31,0-.46.1-.47.45,0,.52-.08,1-.11,1.55-.14,2-.21,4-.46,6l-.3,2.54c0,.27,0,.46.35.44.78-.05,1.55-.05,2.33-.12a.72.72,0,0,0,.74-.72c.06-.51.11-1,.18-1.54.32-2.38.6-4.76,1-7.14C30.78,165.15,30.82,164.57,30.89,163.91Zm-19.33.16a22.35,22.35,0,0,1,.87,4.62,50.66,50.66,0,0,1,.65,5.47c0,.36.14.49.48.57.74.15,1.49.15,2.24.23.31,0,.41-.13.42-.4s.05-.78,0-1.17c-.06-1.78-.15-3.56-.38-5.33-.13-1.05-.32-2.1-.48-3.15-.06-.41-.21-.62-.68-.63-.67,0-1.34-.12-2-.16A2.9,2.9,0,0,0,11.56,164.07ZM22,172.18a18.59,18.59,0,0,1,.06,2.61c0,.37.13.52.5.52.54,0,1.09,0,1.63,0,.31,0,.49-.09.52-.43.08-.72.17-1.43.26-2.15.32-2.65.35-5.32.73-8,.05-.35,0-.48-.38-.46l-3,.14c-.26,0-.38.12-.37.38s0,.36,0,.55C21.8,167.62,22,169.85,22,172.18Zm-5.09-7.7c.08.61.15,1.17.23,1.73a35.92,35.92,0,0,1,.51,5.17,23.64,23.64,0,0,1,0,3.26c0,.29.06.49.41.51.7,0,1.4.1,2.09.15.34,0,.53-.07.5-.48,0-.77-.05-1.55,0-2.32,0-2.51-.1-5,.15-7.53,0-.24,0-.49-.33-.49ZM6.8,163.13c.35,1.51.71,2.91,1,4.33a27.84,27.84,0,0,1,.61,5.46c0,.37.12.56.49.65.63.15,1.25.34,1.87.52,1,.3,1.11.26.9-.78-.39-2.06-.63-4.14-.94-6.2a12.5,12.5,0,0,0-.74-3c-.08-.19-.13-.39-.39-.42C8.69,163.56,7.81,163.2,6.8,163.13Zm28.52.26a24.34,24.34,0,0,1-2.61.3c-.31,0-.45.15-.47.48-.06,1.21-.28,2.4-.45,3.6-.15,1-.27,2-.4,3-.16,1.23-.31,2.46-.47,3.68,0,.3.1.37.36.32.45-.09.92-.15,1.36-.28.79-.22.8-.24.84-1.06s.1-1.9.22-2.86a23.65,23.65,0,0,1,.88-4.32C34.87,165.35,35.06,164.41,35.32,163.39ZM35,173.66a13.33,13.33,0,0,0,2.35-1c.19-.09.2-.27.21-.46l.15-1.85a25.57,25.57,0,0,1,1.23-6.3c.18-.5.39-1,.63-1.6-.84.19-1.56.37-2.29.49a.6.6,0,0,0-.56.52c-.2.86-.39,1.71-.64,2.56A30,30,0,0,0,35,171.68C34.93,172.32,35,173,35,173.66ZM2.46,161.79c.07.27.09.41.14.56.42,1.22.82,2.45,1.26,3.66a13.77,13.77,0,0,1,.51,2.27,30.11,30.11,0,0,1,.39,3.15c0,.22,0,.54.21.63a5.92,5.92,0,0,0,2,.8,5.24,5.24,0,0,0,0-.66c-.1-.93-.24-1.85-.33-2.77a28.16,28.16,0,0,0-.6-3A23.29,23.29,0,0,0,5.21,163c-.09-.26-.17-.46-.47-.54C4,162.27,3.3,162,2.46,161.79Zm-.12-52.6c-.25.65-.27.67.2.93a14.58,14.58,0,0,0,2,.95c1.19.44,2.45.63,3.68,1a46.74,46.74,0,0,0,6.66,1.11,46.87,46.87,0,0,0,5.81.15,1.4,1.4,0,0,0,.89-.24,17.43,17.43,0,0,1-3.63-.28,6.64,6.64,0,0,0-1.09-.06,23.33,23.33,0,0,1-4.87-.24c-1.31-.16-2.59-.49-3.9-.67A11.19,11.19,0,0,1,4,110.26C3.47,109.93,2.93,109.57,2.34,109.19Zm20.81,4.09c1.63.07,3.25-.06,4.86,0a37.53,37.53,0,0,0,7.63-.75c1.36-.27,2.66-.69,4-1.07a9.29,9.29,0,0,0,1.92-.83,2.17,2.17,0,0,0,.77-.64c.16-.22,0-.4-.1-.56s-.27,0-.38.08a8.64,8.64,0,0,1-3.26,1.9,19.84,19.84,0,0,1-5.6,1.18c-1.42.11-2.83.38-4.24.43C26.87,113.07,25,113.21,23.15,113.28Zm-.93,0,.13,0-.13,0a.06.06,0,0,0-.07,0S22.14,113.32,22.22,113.31Z"/><path class="cls-1" d="M14.55,146.84c-.13,1.76.07,4-.14,6.21a18.42,18.42,0,0,0-.07,2.1A26.31,26.31,0,0,1,14,158.7a1.69,1.69,0,0,1-.74,1.23,3.83,3.83,0,0,1-2.67.83,26.62,26.62,0,0,1-3.3-.43c-.59-.14-1.23-.13-1.83-.31a3.33,3.33,0,0,1-2.56-2.94,52.89,52.89,0,0,1-.08-6.66c0-1.53.13-3.06.2-4.58.09-2.25.3-4.49.29-6.75,0-1.89-.05-3.78,0-5.67.09-2.3.26-4.6.23-6.91,0-1.15-.12-2.32-.08-3.47.07-1.53-.07-3.05,0-4.57,0-.86.12-1.71.14-2.56a1.64,1.64,0,0,1,2.21-1.48c1.38.42,2.83.57,4.25.87a15.43,15.43,0,0,1,2.39.67c1.42.56,1.79,1.07,1.85,2.45a22.4,22.4,0,0,0,.14,2.32,13.6,13.6,0,0,1-.08,2c0,1.94,0,3.89,0,5.83,0,3.75.12,7.51.16,11.27C14.54,142,14.46,144.21,14.55,146.84ZM4.22,154.22a17.6,17.6,0,0,0,.3,3.21,1.59,1.59,0,0,0,.84,1.22,4.13,4.13,0,0,0,1.61.56,34.47,34.47,0,0,0,3.92.52,2.14,2.14,0,0,0,1.44-.49,2.47,2.47,0,0,0,.81-2.09c0-4.44,0-8.88,0-13.31,0-2-.18-4-.07-6.05s-.21-4.14-.14-6.21c0-.36.11-.71.09-1.07-.1-2.33-.3-4.66-.26-7,0-.18,0-.36,0-.54l0-4a1,1,0,0,1,.05-.23c.21-1,0-1.45-1-1.77-.62-.21-1.25-.36-1.88-.53a18.24,18.24,0,0,0-2.21-.39c-.56-.08-1.09-.31-1.66-.4-1-.15-1.11,0-1.12.91,0,1.12,0,2.23,0,3.34,0,2.47,0,4.93,0,7.39A9.27,9.27,0,0,1,5,128.74a39.25,39.25,0,0,0-.22,4.72c-.06,2,0,4.09,0,6.13,0,1.22,0,2.44,0,3.66,0,2.38-.08,4.76-.26,7.14A30.17,30.17,0,0,0,4.22,154.22Z"/><path class="cls-1" d="M39.94,133.8c0,2.43-.06,4.87,0,7.3.07,2.12.11,4.25.39,6.36a19.86,19.86,0,0,1,0,2.56c0,1.2.13,2.38.23,3.57a8.7,8.7,0,0,1-.4,3.36,3.06,3.06,0,0,1-1.83,2,16.92,16.92,0,0,1-3.11,1.19,8.89,8.89,0,0,1-2.77.14c-.25,0-.51-.07-.77-.08a1.75,1.75,0,0,1-1.8-1.68c-.16-1-.13-2.06-.2-3.09-.13-1.73,0-3.48-.12-5.21-.1-1.44,0-2.89-.26-4.34a15.34,15.34,0,0,1-.05-2.25c0-2.36.05-4.72,0-7.08,0-2.93-.1-5.86-.22-8.78-.1-2.62-.14-5.23-.14-7.85a2.82,2.82,0,0,1,2.42-2.76c1.53-.19,3.07-.44,4.6-.72a3.75,3.75,0,0,1,2.82.86,1.06,1.06,0,0,1,.34.84c.09,1.76.35,3.5.51,5.25.2,2.22.28,4.44.27,6.67C39.93,131.31,39.94,132.55,39.94,133.8Zm-8.81,18.85c.08,1.84.15,3.68.25,5.51.05.85.08.86,1,1l.77.06A9.75,9.75,0,0,0,38,157.71a1.5,1.5,0,0,0,.72-1.15c.09-.56.13-1.12.2-1.69a21.7,21.7,0,0,0,.11-2.79c0-1-.15-2.06-.15-3.1,0-.83,0-1.66-.07-2.49-.24-2.94-.42-5.88-.38-8.83,0-2.46,0-4.92.07-7.38a54.66,54.66,0,0,0-.24-6.52c-.13-1.73-.46-3.43-.52-5.16,0-.27,0-.57-.25-.71a2,2,0,0,0-1.46-.38c-1.51.33-3.06.51-4.58.82a1,1,0,0,0-.92.88,5.55,5.55,0,0,0,0,1.08c0,1.24,0,2.48.11,3.72.06,1,0,2,0,2.95.07,1.76.12,3.52.17,5.28,0,.67,0,1.35.06,2a60.16,60.16,0,0,1,.06,6.44c0,1.79,0,3.58.07,5.36C31.06,148.25,31.13,150.45,31.13,152.65Z"/><path class="cls-1" d="M19.56,117.06c1.69,0,3.36.13,5,.22a2.85,2.85,0,0,1,2.57,2.32,38,38,0,0,1,.45,4.63,22.43,22.43,0,0,0,.23,3.17,2.64,2.64,0,0,1,0,1,4.06,4.06,0,0,0-.06.85c.16,2.54-.08,5.08,0,7.61,0,2-.12,4.09,0,6.13,0,1.16.1,2.33.22,3.49.07.69.1,1.39.12,2.09,0,1.45.08,2.9.16,4.35,0,1,.17,2,.24,2.94a4.12,4.12,0,0,1,0,1.16,6.92,6.92,0,0,0-.11,1.7A1.85,1.85,0,0,1,27,160.67a13.84,13.84,0,0,1-3.55.79c-.59,0-1.18.17-1.77.19a15.82,15.82,0,0,1-4.71-.93,1.56,1.56,0,0,1-1-1.34,14,14,0,0,1-.22-2.24c-.05-1.19,0-2.38,0-3.56,0-.8-.05-1.6-.1-2.4-.08-1.19.2-2.37.2-3.55s.17-2.15.17-3.24c0-.74.09-1.49.11-2.24.07-2,.18-4,.24-6s.07-3.78.05-5.67c0-1.6-.11-3.21-.18-4.81a42.4,42.4,0,0,1-.12-5.75,5.11,5.11,0,0,1,.5-1.94,1.58,1.58,0,0,1,1.55-1C18.63,117.07,19.1,117.06,19.56,117.06ZM26.39,135c0-2.29,0-4.21,0-6.13,0-2.15-.33-4.28-.35-6.43a13.54,13.54,0,0,0-.29-2.54,1.86,1.86,0,0,0-1.83-1.62,38.21,38.21,0,0,0-5.35,0c-.72.07-.84.17-1,.86a16.62,16.62,0,0,0-.12,4.34c.15,1.6.18,3.21.24,4.81a44,44,0,0,1,0,4.74,10.26,10.26,0,0,0,0,1.24,39.46,39.46,0,0,1,0,4.35c0,2-.19,4-.29,6.05-.05,1.06-.1,2.12-.2,3.17a33.72,33.72,0,0,0-.17,4.71c.07,1.66,0,3.31.06,5a7.26,7.26,0,0,0,.06.93c.21,1.29.22,1.29,1.49,1.66.15,0,.3.1.45.13a6.3,6.3,0,0,0,1.9.35,20.92,20.92,0,0,0,4.38-.55,1.48,1.48,0,0,0,1.23-1.29,8.64,8.64,0,0,0,.15-.91c.08-2.22.05-4.45,0-6.67,0-.59-.11-1.19-.09-1.78.05-1.61-.12-3.21-.22-4.81a31.64,31.64,0,0,1-.14-3.64C26.44,138.78,26.29,136.68,26.39,135Z"/><path class="cls-1" d="M4.61,106.89a3.82,3.82,0,0,1,1.2-2.21,10.21,10.21,0,0,1,4-2.32,6.83,6.83,0,0,0,3-2.09,11.4,11.4,0,0,1,6.66-3,5.32,5.32,0,0,1,3.05.72,2.58,2.58,0,0,1,.54.45c.19.17.46.41.29.65s-.46,0-.66-.14a3.79,3.79,0,0,0-1.55-.48,6.09,6.09,0,0,0-3.13.31,11.41,11.41,0,0,0-3.71,2.08,25.16,25.16,0,0,1-2,1.73,4.81,4.81,0,0,1-1.77.94A9.25,9.25,0,0,0,7,105.59a2.89,2.89,0,0,0-1,1.63c-.12.63-.26.73-.65.65A1,1,0,0,1,4.61,106.89Z"/></g><g id="Group_1096" data-name="Group 1096"><g id="Group_1090" data-name="Group 1090"><path id="Path_8924" data-name="Path 8924" class="cls-3" d="M232.4,132.24a7.09,7.09,0,0,1-3.83-1c-4.2,2.31-9.21,1.07-11.29-3-2.2-4.29-.3-10,4.35-12.54a8.39,8.39,0,0,1,8.88.26c4.5-2.46,9.38-.71,10.84,3.68,1.39,4.15-.83,9.18-4.91,11.43A8.76,8.76,0,0,1,232.4,132.24ZM228.61,131l.06,0c3.4,2.09,8.2.76,10.92-3s2.51-8.93-.8-11.45a7.46,7.46,0,0,0-8.25-.23.16.16,0,0,1-.15,0c-3.77-2.72-9.33-1.38-12.17,3s-1.69,9.56,2.16,11.81a8.21,8.21,0,0,0,8.16-.15Z"/></g><g id="Group_1091" data-name="Group 1091"><path id="Path_8925" data-name="Path 8925" class="cls-3" d="M222.87,125.63a1.43,1.43,0,0,1-.84.28h-.16l.07-.72h-.71l-.07.79c0,.12-.43.35-.85.35h-.16l.52-6.23,1,.47h.59l.54-.55.91.83a.7.7,0,0,1-.4.2Zm-.91-.72.37-4h-.72l-.36,4Zm5.87.32s.5.52.79.86a.27.27,0,0,1-.27.15H226.8l-.21,1.77c0,.09-.49.26-.88.27h-.19l.22-2h-3.1l0-.27h3.18l.18-1.62,1.36.14c0,.11-.11.2-.34.24l-.14,1.23h.42Zm-3.35-1a1,1,0,0,1-.84.3h-.17l.43-4.38,1.08.46h.53c.11-.38.26-.94.35-1.33l1.48.36c-.05.16-.19.23-.4.23l-1,.75,1.7,0,.54-.54.89.82a.85.85,0,0,1-.37.18l-.36,3a1.66,1.66,0,0,1-.88.29h-.16l0-.38h-1.21c-.41.71-1.24,1.34-3,1.72l-.06-.11a3.7,3.7,0,0,0,2.12-1.61h-.71Zm.35-3.34-.13,1.24h1l.13-1.24Zm.52,2.85a4.09,4.09,0,0,0,.24-1.09l0-.23h-1l-.14,1.33Zm2.06,0,.15-1.31h-1l0,.22a3.77,3.77,0,0,1-.26,1.09Zm-.65-2.84-.14,1.24h1l.15-1.23Z"/></g><g id="Group_1092" data-name="Group 1092"><path id="Path_8926" data-name="Path 8926" class="cls-3" d="M238.05,121.36s.58.59.93,1a.27.27,0,0,1-.27.15l-1.65,0a8.53,8.53,0,0,1-1.73,3.25c3.25,1.36,1.89,2.73,1.08,2.32a8.24,8.24,0,0,0-1.83-1.62,9.79,9.79,0,0,1-4.61,1.78l0-.11a9.69,9.69,0,0,0,3.95-2.11,14.65,14.65,0,0,0-2.36-1.13c.44-.79.85-1.59,1.23-2.42l-1.94,0,0-.28,2.1,0c.5-1.06,1-2.1,1.15-2.68l1.43.44c-.05.1-.13.2-.41.19-.23.51-.58,1.25-1,2.06l1.88,0c.11-.4.2-.81.28-1.22l1.46.37a.35.35,0,0,1-.38.23c-.06.22-.12.42-.18.63h.15Zm-4.11,1.09c-.42.86-.88,1.75-1.28,2.45.68.16,1.26.33,1.76.49a8.07,8.07,0,0,0,1.48-2.92Z"/></g><g id="Group_1093" data-name="Group 1093"><path id="Path_8927" data-name="Path 8927" class="cls-3" d="M232.14,133.47a8.41,8.41,0,0,1-3.77-.77,10.21,10.21,0,0,1-4.09,1,9,9,0,0,1-9.22-9.79c.35-6,5.55-10.94,11.41-10.72h0a9,9,0,0,1,4.22,1.21,9.66,9.66,0,0,1,4.36-.88c5.36.2,8.68,5,7.64,10.5-1,5.21-5.63,9.35-10.55,9.48Zm-3.7-1.34.12,0a7.67,7.67,0,0,0,3.65.78c4.65-.09,9-4,10-8.91,1-5.16-2.13-9.69-7.16-9.89H235a9.26,9.26,0,0,0-4.23.89.25.25,0,0,1-.25,0,8.43,8.43,0,0,0-4.08-1.19,10.72,10.72,0,0,0-10.75,10,8.44,8.44,0,0,0,8.62,9.29h.06a9.86,9.86,0,0,0,4-1Z"/></g><g id="Group_1095" data-name="Group 1095"><g id="Group_1094" data-name="Group 1094"><path id="Path_8928" data-name="Path 8928" class="cls-3" d="M222.89,136.72l-.14,0-.15-.05-.16-.06-.13-.08a.23.23,0,0,1-.1-.29l.58-1.59a.19.19,0,0,1,.08-.1l.13,0a1.71,1.71,0,0,1,.32,0c.12,0,.24,0,.36.06a1.17,1.17,0,0,1,.61.3.47.47,0,0,1,.07.51.55.55,0,0,1-.19.24.65.65,0,0,1-.29.11.47.47,0,0,1,.21.23.4.4,0,0,1,0,.34.7.7,0,0,1-.43.44A1.42,1.42,0,0,1,222.89,136.72Zm0-.52.12,0,.14,0a.39.39,0,0,0,.24,0,.22.22,0,0,0,.16-.15.17.17,0,0,0,0-.18.37.37,0,0,0-.21-.09l-.28-.07Zm.31-.83.24.06a.39.39,0,0,0,.24,0,.24.24,0,0,0,.12-.14.17.17,0,0,0,0-.17.41.41,0,0,0-.21-.1l-.12,0h-.11Z"/><path id="Path_8929" data-name="Path 8929" class="cls-3" d="M225,135.22a.36.36,0,0,1,.35-.3h.05l1.15.1a.41.41,0,0,1,0,.11.29.29,0,0,1,0,.13.32.32,0,0,1-.1.18.25.25,0,0,1-.17,0l-.73-.07-.07.32.77.07a.2.2,0,0,1,0,.1.28.28,0,0,1,0,.13.29.29,0,0,1-.1.18.2.2,0,0,1-.16,0l-.64,0-.08.36.88.07a.43.43,0,0,1,0,.11.62.62,0,0,1,0,.13.3.3,0,0,1-.1.17.26.26,0,0,1-.17,0l-1-.09a.25.25,0,0,1-.26-.29.43.43,0,0,1,0-.05Z"/><path id="Path_8930" data-name="Path 8930" class="cls-3" d="M227.12,135.37a.35.35,0,0,1,.32-.32,0,0,0,0,1,.05,0l1.15,0a.22.22,0,0,1,0,.1.28.28,0,0,1,0,.13.27.27,0,0,1-.08.19.25.25,0,0,1-.16.06h-.73l0,.32.78,0a.17.17,0,0,1,0,.1.28.28,0,0,1,0,.13.27.27,0,0,1-.08.18.22.22,0,0,1-.15.06h-.64l-.05.36.89,0,0,.09a.56.56,0,0,1,0,.13.29.29,0,0,1-.08.19.27.27,0,0,1-.16.06l-1,0a.25.25,0,0,1-.29-.26.11.11,0,0,1,0-.05Z"/><path id="Path_8931" data-name="Path 8931" class="cls-3" d="M229.81,136.27l0,.64-.11,0a1,1,0,0,1-.17,0h-.14l-.1,0a.29.29,0,0,1-.07-.22l0-1.58a.12.12,0,0,1,0-.11l.11-.08.28-.1.33-.06a1,1,0,0,1,.72.09.55.55,0,0,1,.23.5.68.68,0,0,1-.12.37,1,1,0,0,1-.27.26l.24.27a1.3,1.3,0,0,1,.18.23.39.39,0,0,1-.13.2.4.4,0,0,1-.21.09h-.13l-.09,0-.08-.06-.06-.08-.28-.41Zm.23-.47a.37.37,0,0,0,.21-.1.3.3,0,0,0,.08-.2.23.23,0,0,0-.08-.18.42.42,0,0,0-.27,0l-.08,0-.07,0,0,.5Z"/><path id="Path_8932" data-name="Path 8932" class="cls-3" d="M233.43,135.38a1,1,0,0,1,0,.34.92.92,0,0,1-.16.29,1.28,1.28,0,0,1-1,.45.74.74,0,0,1-.3-.08.48.48,0,0,1-.21-.19.63.63,0,0,1-.1-.3l-.14-1.25.12,0,.15-.05.14,0H232a.16.16,0,0,1,.07.07.5.5,0,0,1,0,.13l.11,1a.27.27,0,0,0,.11.22.39.39,0,0,0,.47-.13.37.37,0,0,0,.06-.27l-.13-1.23.12-.05.16-.05a.32.32,0,0,1,.14,0h.1a.16.16,0,0,1,.07.07.5.5,0,0,1,0,.13Z"/></g></g><path id="Ellipse_83" data-name="Ellipse 83" class="cls-3" d="M221,134.55a.55.55,0,0,1,.58.6.72.72,0,0,1-.69.62.54.54,0,0,1-.58-.59A.73.73,0,0,1,221,134.55Z"/><path id="Ellipse_84" data-name="Ellipse 84" class="cls-3" d="M235.18,134.15a.46.46,0,0,1,.48.57.73.73,0,0,1-.67.6.45.45,0,0,1-.48-.56A.73.73,0,0,1,235.18,134.15Z"/></g></g></g></g></svg>