<svg xmlns="http://www.w3.org/2000/svg" xmlns:xlink="http://www.w3.org/1999/xlink" viewBox="0 0 228.8 369.44"><defs><style>.cls-1,.cls-5{fill:#fff;}.cls-1,.cls-2{fill-rule:evenodd;}.cls-3{fill:#fdfdfd;}.cls-4{mask:url(#mask);}</style><mask id="mask" x="63.39" y="76.01" width="449.62" height="264.19" maskUnits="userSpaceOnUse"><path class="cls-1" d="M86,191.76c-1.41-4.38-.37-9.16,1.72-13.1a17.33,17.33,0,0,1,10.16-7.82,17.72,17.72,0,0,1,13.1,1.72c.89.5,1.8,1,2.72,1.44.52.17,1,.33,1.57.48a15.73,15.73,0,0,1,3.21,1.25,7.07,7.07,0,0,0-.71-3.49c7.36-1.51,5-12.29-1.9-12.73a108.15,108.15,0,0,0-37.14,4.13c-7.4,2.15-5.07,13,1.66,12.81a7.33,7.33,0,0,0,.27,1.3c-2.26,2.22-2.29,6.47-.1,9.17a6,6,0,0,0,5.79,5.78C86.24,192.39,86.12,192.08,86,191.76Z"/><path class="cls-1" d="M269.16,76c-8.36,0-8.38,13,0,13S277.54,76,269.16,76Z"/><path class="cls-1" d="M506.73,327.2c-8.37,0-8.38,13,0,13S515.11,327.2,506.73,327.2Z"/><path class="cls-2" d="M124,185.82c-1.54-.11-3.07-.17-4.6-.19a6.56,6.56,0,0,0-1.66-2.25q3.9-1.89,7.73-3.93c2.71-1.46,3.49-4.55,3-7.34l-.34-1.94a4.71,4.71,0,0,0-.58-1.54c.29-3.94-3.64-8.52-8.34-7.48-1.19.26-2.36.55-3.53.86a5.79,5.79,0,0,0-4.67-2.13,102.67,102.67,0,0,0-44.41,13.05,6.59,6.59,0,0,0-3,7.34,7.71,7.71,0,0,0,5,5.39l-.45.08c-7.09,1.37-5.58,13.69,1.73,12.77l.57-.08c.47,3.23,3.28,5,6.42,5.44.74.1,1.47.16,2.19.19l1.9.16a13.67,13.67,0,0,0-.23,2.35,6.63,6.63,0,0,0,6.5,6.5c8.91.45,19.19.12,27.71-2.91a11.13,11.13,0,0,0,7.22-8.59l5.11-3.64C132.6,194.16,130.67,186.29,124,185.82Z"/><path class="cls-1" d="M149.4,168.1c5.52-3,10.75-6.95,10.95-12.68a6.55,6.55,0,0,0-6.5-6.5,242,242,0,0,0-72.94,14.24c-4.51,1.64-5.67,7.86-3.16,11a6.89,6.89,0,0,0,.23,4.47l-4,1c-8.1,2.14-4.68,14.53,3.45,12.54.4-.11.79-.19,1.18-.29a6.76,6.76,0,0,0,1.14,2,6.93,6.93,0,0,0-2.23,4.5c-1.07,3.34.25,7.43,4.26,8.26,1.39.29,2.78.55,4.18.79,0,3.44,2.32,6.93,6.34,6.56a97.24,97.24,0,0,0,37.32-11.09c4.67-2.49,3.76-7.89.6-10.53a120,120,0,0,0,15.47-7.64c5-3,3.54-9.33-.67-11.38A5.42,5.42,0,0,0,149.4,168.1Z"/></mask></defs><g id="圖層_2" data-name="圖層 2"><g id="_0-ui_kits" data-name="0-ui_kits"><g id="woman1"><path class="cls-3" d="M121.49,63.22c.36,0,.72-.06,1.08-.1s.81-.12,1.2-.2a9.77,9.77,0,0,0,1.08-.36c.33-.13.64-.29,1-.44s.71-.34,1-.54a5.38,5.38,0,0,0,1.33-1.09,6.74,6.74,0,0,0,.47-.62,7.07,7.07,0,0,0,.5-.94.78.78,0,0,0,.05-.14.58.58,0,0,0,.07-.54c-.17-.36-.32-.72-.52-1.06a3.05,3.05,0,0,0-.73-.83,4,4,0,0,0-1-.56c-.38-.14-.77-.26-1.16-.37a10.08,10.08,0,0,0-1.09-.24,7.7,7.7,0,0,0-1.27-.13h-.11a4.38,4.38,0,0,0-1,.1h0a4.77,4.77,0,0,0-1.22.37l-.63.32-.28.17a.42.42,0,0,0-.06-.19c-.2-.35-.4-.69-.57-1-.06-.14-.11-.28-.16-.43a.52.52,0,0,0-.5-.38L119,54h0a.49.49,0,0,0-.31.24.51.51,0,0,0,0,.4,5.4,5.4,0,0,0,.8,1.74.56.56,0,0,0,.26.22,4,4,0,0,0-.44.38l-.47.49a11,11,0,0,1-1.19-1.18,5.31,5.31,0,0,1-.42-.63.14.14,0,0,0,0-.07.41.41,0,0,0-.39-.3h-.11a.41.41,0,0,0-.29.5,2.41,2.41,0,0,0,.46.79,6.44,6.44,0,0,0,.48.56c.3.32.63.61,1,.91l-.47.58c-.22.27-.42.56-.62.85a3.81,3.81,0,0,0-.33.55,2,2,0,0,0-.17.54c0,.1,0,.2,0,.3a.87.87,0,0,0,.06.32,1.13,1.13,0,0,0,.19.38,2.44,2.44,0,0,0,.39.46,3,3,0,0,0,1,.61c.33.13.65.27,1,.38a4.43,4.43,0,0,0,1,.17A11.43,11.43,0,0,0,121.49,63.22Zm-2.32-1.94a5.6,5.6,0,0,1-.55-.27,1.54,1.54,0,0,1-.19-.17h0a2.48,2.48,0,0,1,.18-.31,16.19,16.19,0,0,1,2.28-2.74,5.23,5.23,0,0,1,.56-.4l.51-.29a4.19,4.19,0,0,1,.49-.2,4.27,4.27,0,0,1,.48-.13,3.74,3.74,0,0,1,.66-.09h.64a12.67,12.67,0,0,1,2.37.43,3.68,3.68,0,0,1,.69.34,2.35,2.35,0,0,1,.33.3,2.23,2.23,0,0,1,.2.3l.16.33a.47.47,0,0,0-.06.15c0,.2-.09.39-.14.59a3,3,0,0,1-.2.4,3.87,3.87,0,0,1-.43.47,5.2,5.2,0,0,1-.88.59c-.41.2-.85.35-1.27.52l-.09,0a1.47,1.47,0,0,0,.48-.54,2.48,2.48,0,0,0,.16-1v0a.8.8,0,0,0-.08-.53c0-.08,0-.16-.07-.24a1.42,1.42,0,0,0-.65-.74,1.58,1.58,0,0,0-.64-.15,1.12,1.12,0,0,0-.4.07h0a1.52,1.52,0,0,0-.87.8l-.12.18a1.57,1.57,0,0,0,0,1.63,1.66,1.66,0,0,0,1.14.77,1.22,1.22,0,0,0,.27,0c-.2.07-.39.15-.59.2a11.33,11.33,0,0,1-1.29.15l-.72.05c-.2,0-.4,0-.6,0h-.12a5.13,5.13,0,0,1-1.16-.2C119.52,61.44,119.35,61.35,119.17,61.28Z"/><polygon class="cls-3" points="141.52 54.6 141.52 54.6 141.5 54.63 141.52 54.6"/><path class="cls-3" d="M135.52,51.61c.15.7.3,1.41.5,2.1s.43,1.34.65,2,.41,1.34.63,2,.44,1.35.72,2c.16.34.3.69.46,1s.31.65.46,1c.31.63.6,1.26.89,1.9.13.28.26.56.38.85s.28.61.4.92c.26.68.47,1.37.68,2.06s.37,1.29.52,1.94a5.47,5.47,0,0,1,.08.9,3.7,3.7,0,0,1-.1.58,4.68,4.68,0,0,1-.27.55l-.12.15-.12.08a2.76,2.76,0,0,1-.51.16,4.1,4.1,0,0,1-1,.09,3.24,3.24,0,0,1-.62-.12,4.69,4.69,0,0,1-.72-.33,3.38,3.38,0,0,1-.44-.4,5.93,5.93,0,0,1-.47-.62l-.24-.37a2.59,2.59,0,0,0-.38-.48.68.68,0,0,0-.86,0,.72.72,0,0,0-.18,1c.17.27.36.54.56.8a8.29,8.29,0,0,0,.73.84,4.6,4.6,0,0,0,1.75,1,3,3,0,0,0,.43.11,3.82,3.82,0,0,0,.68.06,5.44,5.44,0,0,0,1-.09c.22,0,.43-.08.64-.14l.23-.07a2,2,0,0,0,.36-.17,2.6,2.6,0,0,0,.45-.37,2.46,2.46,0,0,0,.39-.51,3.47,3.47,0,0,0,.27-.46,5,5,0,0,0,.34-2.38,10.5,10.5,0,0,0-.2-1.23c-.08-.36-.16-.71-.27-1.07a14.7,14.7,0,0,0-.7-1.92q-.47-1-1-1.95l-1.05-1.8c-.36-.62-.73-1.24-1.07-1.87l-.32-.6c-.3-.61-.55-1.23-.79-1.86s-.51-1.28-.79-1.92A21.46,21.46,0,0,1,136.21,51a10.83,10.83,0,0,1-.15-1.61.39.39,0,0,0-.39-.37h0a.41.41,0,0,0-.36.42c0,.36,0,.72.06,1.08A8.4,8.4,0,0,0,135.52,51.61Z"/><polygon class="cls-3" points="138.91 73.16 138.93 73.16 138.93 73.16 138.88 73.15 138.91 73.16"/><polygon class="cls-3" points="84.51 12.05 85.58 11.52 85.58 11.5 84.51 12.05"/><polygon class="cls-3" points="138.96 122.95 138.86 122.92 139.06 122.99 139.07 122.99 139.04 122.98 138.96 122.95"/><path class="cls-3" d="M49.66,212.17c-.24.77-.47,1.55-.68,2.33-.33,1.24-.72,2.46-1.12,3.68,0-.05,0-.09,0-.14-.13.37-.26.74-.42,1.11L47,220.3a.58.58,0,0,0,.27.76.57.57,0,0,0,.75-.27c.2-.47.43-.93.62-1.4s.36-1,.52-1.45c.24-.71.47-1.42.7-2.13s.44-1.46.67-2.18.48-1.43.75-2.13.63-1.41,1-2.1c.64-1.4,1.26-2.82,1.88-4.24.55-1.25,1-2.54,1.51-3.8s1.11-2.45,1.64-3.69a.92.92,0,0,0-.83-1.31.81.81,0,0,0-.31.06h0a1,1,0,0,0-.51.46,13,13,0,0,0-1,2.1c-.3.73-.58,1.47-.84,2.2s-.52,1.52-.79,2.28-.52,1.34-.77,2-.57,1.47-.86,2.21-.61,1.48-.9,2.22S49.89,211.41,49.66,212.17Z"/><path class="cls-3" d="M58.41,203.66a.82.82,0,0,0-.43.12h0c-.4.24-.78.5-1.17.74s-.77.44-1.16.65a.74.74,0,0,0-.18,1,.75.75,0,0,0,.47.3.8.8,0,0,0,.56-.12c.39-.21.78-.42,1.16-.65s.78-.5,1.15-.76a.72.72,0,0,0,.18-1A.7.7,0,0,0,58.41,203.66Z"/><path class="cls-3" d="M110.6,45.29l-.45.58c-.53.68-1.1,1.35-1.65,2l-.84,1-.39.45-.44.49c-.14.14-.27.29-.41.42s-.31.3-.48.44l-.5.45-.45.36-.5.39c-.18.14-.37.27-.56.4s-.65.45-1,.67-.74.51-1.1.78l-.52.37-.67.51-1,.76-.9.72,0,0-1,.74-.63.47c-.18.14-.37.27-.56.4-.67.49-1.37,1-2.09,1.38l-.48.29a.19.19,0,0,0-.07.27.2.2,0,0,0,.27.07c.75-.49,1.5-1,2.23-1.5s1.42-1,2.13-1.55,1.4-1.07,2.1-1.61c.32-.24.64-.49,1-.72l.63-.44.58-.38.44-.29.59-.38.63-.44c.17-.11.33-.23.49-.35.36-.27.7-.55,1-.83l.47-.42.2-.18.27-.27c.29-.29.57-.59.84-.89s.64-.72,1-1.09c.57-.66,1.13-1.33,1.68-2,.27-.33.53-.67.77-1s.54-.75.8-1.13c.48-.67.94-1.35,1.39-2,.25-.37.5-.75.74-1.14.12-.19.24-.37.35-.57l.38-.67c.11-.19.2-.4.3-.59s.18-.36.26-.54c.18-.38.35-.76.52-1.15.38-.85.75-1.71,1.12-2.57.08-.18.15-.36.22-.55s.16-.38.23-.57l.27-.77c.06-.17.11-.34.16-.51s.13-.39.18-.58.13-.54.2-.8.17-.74.24-1.1.12-.49.16-.74.1-.48.14-.72.07-.46.11-.69.08-.52.11-.78h0a10.35,10.35,0,0,0,.09-1.12c0-.37,0-.76,0-1.14,0-.74,0-1.5-.1-2.24a.35.35,0,0,0-.7,0h0c0,.74.09,1.48.1,2.22,0,.36,0,.72,0,1.08l0,.6c0,.16,0,.32,0,.47-.12.83-.26,1.66-.43,2.47l-.3,1.35c0,.21-.1.42-.16.63s-.08.33-.14.5-.15.51-.23.77l-.22.63c0,.17-.11.33-.17.49l-.27.68c-.36.83-.7,1.65-1.06,2.48-.16.36-.32.73-.49,1.09s-.18.41-.28.62-.22.45-.34.68a1.62,1.62,0,0,1-.1.18l-.23.43c-.09.16-.19.32-.29.48l-.3.5-.45.7-.74,1.12c-.23.36-.47.7-.71,1l-1,1.47Z"/><path class="cls-3" d="M99.54,45.54c-.16.19-.33.37-.51.55s-.4.38-.6.57c-.38.36-.79.69-1.19,1l-1.17,1c-.5.43-1,.88-1.47,1.32l-.71.66c-.27.25-.54.48-.82.7a.59.59,0,0,0-.14.23A.53.53,0,0,0,93,52a.55.55,0,0,0,.31.25.49.49,0,0,0,.41-.06A12.26,12.26,0,0,0,95,51c.34-.34.71-.67,1.07-1,.77-.7,1.57-1.36,2.37-2,.21-.17.42-.36.63-.54l.22-.21a3.71,3.71,0,0,0,.29-.27c.35-.37.7-.75,1-1.15.69-.85,1.33-1.75,2-2.63l.1-.13q1-1.24,2-2.52c.18-.23.33-.48.5-.72s.23-.35.34-.53.27-.42.39-.64l.47-.85.28-.56c.11-.22.22-.45.32-.67l.66-1.44.7-1.53c.21-.47.41-.94.61-1.4s.4-1,.59-1.44.38-1,.53-1.49.34-1.06.47-1.61c.06-.22.1-.44.14-.66l.14-.78c0-.33.11-.65.17-1a.41.41,0,0,0-.29-.52h-.1a.41.41,0,0,0-.41.3h0l-.3,1.66c0,.24-.08.48-.14.7s-.15.55-.23.82c-.3,1-.65,2-1,2.93l-.15.36c-.21.48-.42,1-.64,1.45s-.38.84-.58,1.26l-.72,1.56q-.33.7-.69,1.41c-.13.26-.28.51-.42.77s-.25.43-.38.64l-.44.69-.55.77c-.3.38-.59.76-.9,1.13s-.68.82-1,1.24l0,0,0,.06,0,0-.55.72.07-.1c-.32.42-.63.85-1,1.27S99.89,45.14,99.54,45.54ZM102,42.47h0Z"/><path class="cls-3" d="M90.63,45.15c.32-.36.61-.72.9-1.09s.54-.68.82-1,.57-.69.85-1L94,41c.27-.35.52-.72.77-1.08s.46-.67.7-1l.81-1.15c.22-.32.45-.63.68-.95l1.52-2.11L99,34c.12-.17.23-.35.34-.52s.2-.31.29-.47.29-.47.41-.72a6.71,6.71,0,0,0,.36-.83l.15-.42c.06-.18.11-.37.16-.55s.07-.41.09-.62,0-.43,0-.64,0-.55,0-.83a.15.15,0,0,0-.15-.15.16.16,0,0,0-.15.15h0c0,.29,0,.58,0,.87,0,.13,0,.25,0,.37l0,.41a5.17,5.17,0,0,1-.22.86c-.08.23-.17.46-.26.69a5.72,5.72,0,0,1-.32.66l-.19.31-.3.5-.47.69a5,5,0,0,1-.34.46l-1.64,2.19-.72.93-.65.87c-.47.61-.93,1.23-1.39,1.84l-.78.95-.87,1c-.3.33-.6.67-.89,1s-.57.66-.86,1l-.51.58a.41.41,0,0,0,0,.58A.43.43,0,0,0,90.63,45.15Z"/><path class="cls-3" d="M130.35,21.56c.37.2.75.38,1.14.56s.77.36,1.14.57l1.16.64c.32.18.64.36,1,.51a.36.36,0,0,0,.27,0,.41.41,0,0,0,.22-.17.36.36,0,0,0-.13-.49c-.41-.2-.81-.41-1.22-.63s-.78-.42-1.18-.62-.77-.36-1.16-.53a9.89,9.89,0,0,1-1.13-.56l-.93-.57a.3.3,0,0,0-.16,0,.33.33,0,0,0-.28.16h0a.34.34,0,0,0,.12.44C129.57,21.09,130,21.35,130.35,21.56Z"/><path class="cls-3" d="M79.19,6.19l-.1,0a.39.39,0,0,0-.36.28h0c-.1.38-.19.75-.27,1.13a7.34,7.34,0,0,0-.16,1c0,.19,0,.39,0,.58s0,.31,0,.47,0,.36,0,.54a11.57,11.57,0,0,0,.15,1.2.4.4,0,0,0,.49.28.43.43,0,0,0,.24-.18.47.47,0,0,0,0-.31l0-.19c0-.37-.09-.74-.11-1.12a9.5,9.5,0,0,1,0-1.6q.15-.82.36-1.62A.37.37,0,0,0,79.19,6.19Z"/><path class="cls-3" d="M83.86,14.45c-.28-.27-.54-.55-.79-.84a4,4,0,0,1-.43-.71,5.82,5.82,0,0,1-.33-1.29.35.35,0,0,0-.35-.26h-.09a.31.31,0,0,0-.21.16.36.36,0,0,0,0,.27A7.8,7.8,0,0,0,81.89,13a5,5,0,0,0,.93,1.57c.37.44.73.87,1.12,1.29a.46.46,0,0,0,.65-.65Z"/><polygon class="cls-3" points="138.86 80.29 138.86 80.29 138.87 80.29 138.86 80.29"/><path class="cls-3" d="M130.41,82.48a9.25,9.25,0,0,0,1.3.37A7.33,7.33,0,0,0,133,83a4.24,4.24,0,0,0,.62,0,5.46,5.46,0,0,0,.69-.1,5.62,5.62,0,0,0,.55-.15l.58-.18c.32-.1.63-.21,1-.33l.49-.22.47-.24a9.34,9.34,0,0,0,.89-.46,3,3,0,0,0,.4-.3l.38-.32,0,0,.17-.14a.16.16,0,0,0,0-.24h0a.17.17,0,0,0-.12-.05.18.18,0,0,0-.12.05c-.07.08-.15.14-.23.22l-.25.21L138,81l-.46.22h0l-.62.25,0,0a7.15,7.15,0,0,1-.77.29l-.79.24-.78.21a4.87,4.87,0,0,1-.76.15l-.43,0H133a8.66,8.66,0,0,1-.89-.07,5.18,5.18,0,0,1-.66-.14l-.82-.26a.32.32,0,0,0-.4.22A.33.33,0,0,0,130.41,82.48Z"/><path class="cls-3" d="M44,158.93a.75.75,0,0,0-.14.12,2.41,2.41,0,0,0-.41.54c-.34.53-.64,1.07-.94,1.62s-.58,1.14-.83,1.72-.49,1.17-.73,1.75l-.72,1.73-.35.86-.13.36a1.66,1.66,0,0,0-.13.91.76.76,0,0,0,.52.52,1.09,1.09,0,0,0,.62,0,5.31,5.31,0,0,0,.56-.2c.26-.1.51-.24.75-.36.55-.27,1.1-.51,1.64-.78,1-.51,2-1.18,3-1.73l.79-.4a5,5,0,0,0,.84-.48,1.33,1.33,0,0,0,.52-.71,1.69,1.69,0,0,0-.15-1,3.37,3.37,0,0,0-.6-.9c-.15-.18-.32-.36-.48-.53s-.36-.33-.54-.5c-.39-.35-.78-.7-1.19-1a4.47,4.47,0,0,1-.63-.6l0,0s0-.07,0-.1a.71.71,0,0,0-.08-.18A.85.85,0,0,0,45,159a.66.66,0,0,0-.48-.2.63.63,0,0,0-.19,0v0A1.05,1.05,0,0,0,44,158.93Zm.58,2.17a.4.4,0,0,0,.19,0l.37.27c.34.24.69.49,1,.76L46,162l.72.59a6.45,6.45,0,0,1,.9.91,1.82,1.82,0,0,1,.15.27,1.34,1.34,0,0,1,.07.27v0l-.1.1a5.56,5.56,0,0,1-.78.37l-.81.37c-.52.25-1,.54-1.51.83a16.28,16.28,0,0,1-1.54.82c-.55.26-1.11.5-1.66.75l-.31.15c.08-.22.17-.44.26-.66l.6-1.51c.21-.52.41-1,.62-1.55s.38-.91.58-1.36.4-.81.62-1.21h0c.08-.15.15-.29.24-.43A.55.55,0,0,0,44.55,161.1Z"/><path class="cls-3" d="M75.41,199.57v0l0,0Z"/><path class="cls-3" d="M80,195.54h-.27q-.39,0-.78,0a9.44,9.44,0,0,0-1.75.31l-1.6.47-1.57.45a.73.73,0,0,0-.44-.05.64.64,0,0,0-.4.3l-.45.13a.48.48,0,0,0-.35.57.47.47,0,0,0,.56.35l.28-.08c0,.08,0,.16,0,.24a5.09,5.09,0,0,0,.34.84c.06.11.11.22.17.32a5.15,5.15,0,0,0,.32.45l.47.6c.28.42.52.87.77,1.3s.54,1,.82,1.46l.4.69c.06.12.13.24.2.36a1.08,1.08,0,0,0,.56.59.73.73,0,0,0,.58,0,1.09,1.09,0,0,0,.39-.38,2.51,2.51,0,0,0,.26-.58,5.84,5.84,0,0,0,.17-.81c.1-.54.22-1.07.34-1.6.07-.3.14-.6.22-.9s.14-.54.21-.82c.14-.56.29-1.13.43-1.7a16,16,0,0,1,.46-1.64c.08-.23.18-.5,0-.71A.52.52,0,0,0,80,195.54Zm-.94,2c-.16.56-.3,1.13-.45,1.69-.3,1.13-.6,2.25-.83,3.39-.07.34-.11.69-.21,1l-.06-.12c-.09-.18-.19-.35-.29-.53-.21-.37-.41-.75-.6-1.13s-.37-.76-.57-1.13c-.09-.18-.19-.36-.29-.54a6.49,6.49,0,0,0-.36-.55L75,199a4.78,4.78,0,0,1-.32-.64,4.91,4.91,0,0,1-.15-.51,1.43,1.43,0,0,0,0-.22l1.6-.47c.49-.14,1-.3,1.48-.43a11.34,11.34,0,0,1,1.52-.3h0l.26,0-.07.19C79.22,196.92,79.15,197.21,79.08,197.49Z"/><path class="cls-3" d="M126.2,162.56a.7.7,0,0,0-.47.19h0a.71.71,0,0,0-.23.49,4.86,4.86,0,0,0,0,.54c0,.18,0,.35,0,.53,0,.37,0,.73,0,1.1,0,.7.12,1.4.19,2.1s.12,1.32.18,2l.09,1c0,.32.1.61.16.92a1.57,1.57,0,0,0,.08.31,1,1,0,0,0,.35.54.69.69,0,0,0,.58.08,1.21,1.21,0,0,0,.52-.43c.19-.23.35-.5.53-.73.37-.51.75-1,1.14-1.51s.8-1,1.2-1.55l.29-.36a7.28,7.28,0,0,1,1.13-1.09,5.46,5.46,0,0,1,.75-.41l.19-.08a1,1,0,0,0,.39-.3.61.61,0,0,0,.11-.51.78.78,0,0,0-.42-.47l-.39-.2-.39-.24a6.53,6.53,0,0,0-.82-.45,5.7,5.7,0,0,0-1-.37c-.3-.1-.61-.17-.91-.24q-.89-.23-1.77-.42l-.65-.14a.58.58,0,0,0-.39,0,.68.68,0,0,0-.5-.25Zm.61,2.45c0-.28,0-.56,0-.84a1.8,1.8,0,0,1,0-.22c.76.17,1.52.33,2.27.51l1.15.28a6.31,6.31,0,0,1,.91.35c.21.1.41.22.61.34l.1,0-.16.09a4.87,4.87,0,0,0-.8.57,10.51,10.51,0,0,0-1.31,1.44l-.6.78-.58.74c-.39.5-.79,1-1.16,1.52a2.43,2.43,0,0,0-.14.2l0-.16c0-.2,0-.4-.08-.61,0-.54-.09-1.08-.12-1.62h0c0-.3,0-.59,0-.88s0-.56-.06-.84A16.12,16.12,0,0,1,126.81,165Z"/><path class="cls-3" d="M141.53,145.82a.45.45,0,0,0,.42.46l1,0,.74-.05c.53,0,1.06,0,1.59-.06,1.09,0,2.17-.09,3.26-.09a2.5,2.5,0,0,0,1-.08,1.27,1.27,0,0,0,.27-.18.87.87,0,0,0,.22-.35,1.28,1.28,0,0,0,.07-.34,1.71,1.71,0,0,0,0-.32,6.18,6.18,0,0,0-.28-1.41,13.54,13.54,0,0,0-.53-1.38c-.16-.39-.32-.77-.47-1.16s-.34-1-.48-1.49a9.49,9.49,0,0,1-.3-1.5,1.26,1.26,0,0,0-.1-.33.67.67,0,0,0-.43-.41.75.75,0,0,0-.26,0,.71.71,0,0,0-.32.07h0a2.54,2.54,0,0,0-.34.23,7.81,7.81,0,0,0-1.5,1.85c-.5.94-.84,2-1.28,2.91-.16.32-.31.63-.44,1s-.23.58-.36.86l-.27.57a2.56,2.56,0,0,0-.11.24.71.71,0,0,0,0,.65l-.64,0A.44.44,0,0,0,141.53,145.82Zm2.07-.59c.09-.15.15-.32.23-.48s.16-.33.23-.51l.21-.53c.12-.31.25-.63.39-.94.42-.9.75-1.83,1.17-2.73.11-.21.22-.43.35-.64a5.13,5.13,0,0,1,.44-.6c.12-.14.25-.29.38-.42h0l0,.19c.05.24.11.48.17.72.13.45.28.9.44,1.34.33.88.75,1.73,1.09,2.61a6.2,6.2,0,0,1,.39,1.58,1.41,1.41,0,0,1,0,.29v0h-.06c-.26,0-.53,0-.79,0h-.8l-1.57.06-1.68.07-.65,0A.32.32,0,0,0,143.6,145.23Z"/><path class="cls-3" d="M150.12,162.77l-1.31.8-.66.45-.61.48a2.06,2.06,0,0,0-.6.54.61.61,0,0,0-.06.49.77.77,0,0,0,.31.42,1.79,1.79,0,0,0,.39.2l1.12.48c.34.17.67.35,1,.53l.5.29c.2.11.42.19.62.28l-.08,0,.55.25a.92.92,0,0,0,.61.06.8.8,0,0,0,.53-.62,4.06,4.06,0,0,0,.1-.78c0-.19,0-.38,0-.57,0-.36.1-.73.15-1.09s.1-.78.16-1.17.16-.79.23-1.19a.56.56,0,0,0,0-.36v0l.31-.12a.4.4,0,0,0,.21-.25.47.47,0,0,0,0-.33.39.39,0,0,0-.25-.2.22.22,0,0,0-.12,0,.54.54,0,0,0-.21.05h0c-.54.2-1.06.42-1.58.67S150.55,162.51,150.12,162.77Zm2-.18c0,.35-.09.7-.14,1s-.08.79-.13,1.19-.11.75-.15,1.13-.06.68-.11,1v0l-.26-.14-.46-.26L150,166a11.53,11.53,0,0,0-1.12-.54l-.54-.21-.14-.06.3-.25.63-.48c.64-.45,1.31-.86,2-1.29h0a9.4,9.4,0,0,1,1-.58Z"/><path class="cls-3" d="M170.86,148.87c.26-.28.52-.6.77-.9s.54-.6.82-.9a6.36,6.36,0,0,1,.91-.8,8.28,8.28,0,0,1,1.67-.8.44.44,0,0,0,.21-.25.47.47,0,0,0,0-.33.46.46,0,0,0-.25-.21l-.12,0a.54.54,0,0,0-.22.05h0a13.12,13.12,0,0,0-1.33.59,3.75,3.75,0,0,0-.62.42l-.27.21c-.17.14-.33.3-.49.45-.3.3-.58.63-.86.94s-.54.65-.82,1a12,12,0,0,0-1.09,1.27,2.2,2.2,0,0,0-.21.32,2.07,2.07,0,0,0-.15.34.7.7,0,0,0,.07.53l.1.15a.7.7,0,0,0,.19.15l.23.11.23.07.39.07a6.45,6.45,0,0,1,.75.22c.27.1.53.21.81.3a2.42,2.42,0,0,1,.35.12.75.75,0,0,0,.33.1.81.81,0,0,0,.61-.2,1.17,1.17,0,0,0,.33-.62c0-.13.06-.27.08-.41.06-.29.12-.59.19-.88s.17-.62.25-.94.16-.64.22-1,.15-.76.2-1.15a.44.44,0,0,0-.42-.46.47.47,0,0,0-.32.12.41.41,0,0,0-.14.3c0,.25-.05.5-.08.74s0,.4-.09.6c-.08.46-.19.9-.29,1.35s-.19.91-.27,1.37a2.45,2.45,0,0,1-.08.29l0,.08,0,0h0l-.3-.17-.26-.11-.56-.22a5.2,5.2,0,0,0-.55-.21,4.29,4.29,0,0,0-.62-.14,2.62,2.62,0,0,1-.38-.09,4.53,4.53,0,0,1,.45-.63Z"/><polygon class="cls-3" points="33.21 196.04 33.21 196.04 33.22 196.03 33.21 196.04"/><path class="cls-3" d="M32.93,196.51a.64.64,0,0,0,.07.28c0,.06,0,.11.08.16l.09.13.37.59.37.57c.12.2.23.37.33.56.22.4.41.82.59,1.24s.35.86.52,1.29.38.87.58,1.3a6.45,6.45,0,0,0,.29.59c.07.13.15.26.23.38a1.33,1.33,0,0,0,.27.26.63.63,0,0,0,.29.1.77.77,0,0,0,.36-.07,1.33,1.33,0,0,0,.3-.23l.14-.18a2.07,2.07,0,0,0,.27-.45c.11-.23.21-.47.31-.71l.26-.57c.15-.31.31-.62.49-.92s.37-.57.56-.86a9.71,9.71,0,0,0,.54-.87c.16-.29.3-.64.44-1a.61.61,0,0,1,.07-.14.49.49,0,0,0,.06-.37.45.45,0,0,0-.21-.31.48.48,0,0,0-.37-.06.49.49,0,0,0-.3.21,4.37,4.37,0,0,0-.27.68,4.93,4.93,0,0,1-.19.54,7.61,7.61,0,0,1-.51.87c-.2.32-.41.63-.6.95a22.19,22.19,0,0,0-1,2,2.07,2.07,0,0,1-.27.45l0,0c-.09-.18-.18-.35-.25-.53s-.19-.43-.28-.64c-.18-.43-.36-.85-.53-1.29a15.42,15.42,0,0,0-1.12-2.49l-.52-.83-.21-.31.38.05c.3,0,.59.1.89.12.61.06,1.22.12,1.82.22l1.06.19h0l1,.18a.4.4,0,0,0,.3,0,.39.39,0,0,0,.18-.22.35.35,0,0,0,0-.3.39.39,0,0,0-.23-.19l-1.14-.21.1,0-.36-.06c-.51-.1-1-.22-1.53-.29s-1.06-.12-1.59-.21-.91-.18-1.37-.25H33.6a.86.86,0,0,0-.39.09.58.58,0,0,0-.19.19A.66.66,0,0,0,32.93,196.51Z"/><path class="cls-3" d="M63.64,185.44a.51.51,0,0,1,.56.48c.15.23.31.45.45.69s.23.41.36.61a7.21,7.21,0,0,0,1,1.23c.35.34.68.71,1,1.08.15.18.31.35.48.52s.43.38.65.56l.27.22.15.11a1,1,0,0,0,.51.18.75.75,0,0,0,.53-.19,1.11,1.11,0,0,0,.28-.48,3.44,3.44,0,0,0,.1-.63c.08-.56.14-1.13.19-1.7s.06-1.14.09-1.7.06-1.16.11-1.74c0-.25,0-.5,0-.75l0-.35a4.18,4.18,0,0,0,0-.71.71.71,0,0,0-.48-.65.47.47,0,0,0-.17,0,1.39,1.39,0,0,0-.55.19h0a4.91,4.91,0,0,1-.62.28c-.36.14-.73.25-1.1.36a9.72,9.72,0,0,0-1.25.43c-.37.17-.74.38-1.1.58l-1.38.81A.45.45,0,0,0,63.64,185.44Zm6.17-2.35h0Zm-4.14,1.7a11,11,0,0,1,1.33-.66c.45-.16.9-.29,1.36-.44h0c.26-.08.51-.18.77-.28l.43-.19c0,.1,0,.21,0,.32s0,.29,0,.44l-.09.91c0,.56-.09,1.12-.13,1.68s-.06,1.14-.12,1.71-.13,1.09-.2,1.63c-.25-.21-.49-.42-.72-.64s-.46-.53-.7-.79-.45-.52-.68-.77a8.8,8.8,0,0,1-.63-.74,5.41,5.41,0,0,1-.42-.74c-.15-.31-.3-.61-.48-.91a.7.7,0,0,0-.2-.22Z"/><path class="cls-3" d="M71.11,147.28a.32.32,0,0,0-.44,0h0l-.65.56a4.77,4.77,0,0,0-.53.57c-.33.39-.64.8-.95,1.21-.62.8-1.22,1.61-1.84,2.4-.3.38-.6.76-.89,1.15s-.61.77-.9,1.17c-.13.18-.26.37-.38.56a.66.66,0,0,0-.09.19,2.1,2.1,0,0,0-.06.24.67.67,0,0,0,.06.28.79.79,0,0,0,.14.18,1.38,1.38,0,0,0,.81.29l.71.09.68.1.74.1c.25,0,.49.08.73.12.48.08,1,.15,1.45.2a4.32,4.32,0,0,0,.88,0,.88.88,0,0,0,.58-.41,1.54,1.54,0,0,0,.2-.54,2.25,2.25,0,0,0,.06-.36,2.57,2.57,0,0,0,0-.48c0-.11,0-.22-.06-.33s-.1-.5-.14-.75c0-.1,0-.22,0-.32a19.7,19.7,0,0,1,0-2.43,11.81,11.81,0,0,0,0-1.19,6.66,6.66,0,0,0-.08-1.34.56.56,0,0,0-.45-.43l.47-.4A.33.33,0,0,0,71.11,147.28Zm-.62,8.33a1,1,0,0,1-.07.25v0a3.28,3.28,0,0,1-.63-.06l-.61-.07c-.45-.06-.89-.14-1.33-.21s-.85-.11-1.27-.17l-1.23-.16h0c.08-.14.17-.27.26-.41h0c.12-.2.26-.4.4-.59l.88-1.22c.59-.81,1.18-1.61,1.78-2.41.42-.57.85-1.15,1.29-1.7a4.56,4.56,0,0,0,0,.52l.06.71c0,.24.05.48.06.71s0,.48,0,.72c0,.49,0,1,.06,1.46a10.49,10.49,0,0,0,.26,1.57,6.19,6.19,0,0,1,.13.62A2,2,0,0,1,70.49,155.61Z"/><path class="cls-3" d="M108.44,150.28a1.85,1.85,0,0,0-.28.28,7.23,7.23,0,0,0-.55.69c-.31.46-.57.94-.86,1.41-.15.27-.31.53-.47.79s-.34.51-.51.76l-.52.72c-.12.14-.24.29-.35.44l-.22,0a.62.62,0,0,0-.39.14.55.55,0,0,0,.35,1l.18,0h0a.56.56,0,0,0,.67-.06c.3,0,.6,0,.9,0a7.66,7.66,0,0,1,.83,0c.27,0,.54,0,.81.06.54.05,1.08.1,1.63.13l.82.05a1.82,1.82,0,0,0,.57,0,.83.83,0,0,0,.43-.23,1,1,0,0,0,.25-.62,1.58,1.58,0,0,0-.14-.65,1.55,1.55,0,0,0-.19-.36c-.1-.17-.21-.34-.32-.5a7.25,7.25,0,0,1-.51-1c-.17-.49-.32-1-.46-1.49-.06-.24-.13-.48-.18-.73a2.54,2.54,0,0,0-.13-.45.79.79,0,0,0-.53-.55l-.14,0-.2,0h0a.68.68,0,0,0-.26.12Zm.46,1h0a.56.56,0,0,0,0,.12,5,5,0,0,0,.16.55c.11.39.23.78.37,1.17a8.08,8.08,0,0,0,.53,1.25c.2.39.49.72.66,1.1l0,.09-.17,0-.39,0-.72-.06-1.59-.16-.77-.07c-.23,0-.47,0-.71,0a.71.71,0,0,0,.1-.14c.28-.39.55-.78.79-1.18l.74-1.25.35-.6c.13-.2.27-.4.42-.59h0C108.79,151.45,108.85,151.39,108.9,151.32Z"/><path class="cls-3" d="M135.67,189.81a17.06,17.06,0,0,0-1.74.78l-.7.36c-.27.13-.55.24-.82.35l-.76.31-.35.17a1.06,1.06,0,0,0-.45.36.67.67,0,0,0,0,.72,2.26,2.26,0,0,0,.78.63,5.74,5.74,0,0,1,.5.36,8.9,8.9,0,0,1,1.21,1.32l.47.69a3,3,0,0,0,.3.4,3.44,3.44,0,0,0,.4.37.9.9,0,0,0,.51.2.87.87,0,0,0,.59-.24,1.44,1.44,0,0,0,.28-.37L136,196c.14-.3.27-.61.4-.92.2-.52.4-1.06.55-1.6s.32-1.12.49-1.68.25-.88.35-1.32a.58.58,0,0,0-.17-1.14l-.13,0h0A16.11,16.11,0,0,0,135.67,189.81Zm.4,2.95a15.05,15.05,0,0,1-.88,2.52c-.05.1-.1.2-.16.3l-.07-.09c-.2-.3-.38-.61-.57-.91a7.46,7.46,0,0,0-.78-1,7.67,7.67,0,0,0-.94-.86,2.07,2.07,0,0,0-.24-.17l.33-.14c.36-.16.72-.3,1.07-.48l1-.5c.34-.17.7-.33,1.06-.48s.46-.16.7-.23c-.05.23-.11.47-.17.7C136.3,191.88,136.18,192.32,136.07,192.76Z"/><path class="cls-3" d="M96.67,252a.87.87,0,0,0,.27-.27.91.91,0,0,0,.11-.25l0-.11a1.16,1.16,0,0,0,0-.18c0-.15.06-.31.08-.47.11-1,.15-2.1.21-3.14,0-.4,0-.8.07-1.2,0-.19,0-.38,0-.56s0-.45,0-.68a.93.93,0,0,1,0-.13.58.58,0,0,0-.37-.72.61.61,0,0,0-.44,0,.58.58,0,0,0-.27.33,2.53,2.53,0,0,0-.17,1.12c0,.28,0,.56,0,.84,0,.49,0,1,0,1.47l-.06,1.48c0,.3,0,.59-.06.89l-.71-1,0-.06,0-.05,0,.05a11.87,11.87,0,0,0-.76-1,12.39,12.39,0,0,0-.87-.9l-.46-.44c-.16-.14-.31-.3-.48-.44l-.48-.43-.16-.13.18-.09.55-.25,1-.46c.7-.34,1.39-.68,2.11-1s1.2-.31,1.8-.45a.43.43,0,0,0,.32-.51.42.42,0,0,0-.42-.33h-.09c-.55.12-1.1.23-1.64.39a11,11,0,0,0-1.57.6l-1.41.62-.73.29c-.25.09-.47.2-.7.3a1.92,1.92,0,0,0-.46.27.49.49,0,0,0-.16.19,1.32,1.32,0,0,0-.09.3.71.71,0,0,0,.08.31,1.37,1.37,0,0,0,.15.21,2.13,2.13,0,0,0,.26.26l.26.23.55.5.54.52c.35.34.7.68,1,1s.58.7.85,1.08.63.92,1,1.36l.2.26a.72.72,0,0,0,.51.3A.7.7,0,0,0,96.67,252Z"/><path class="cls-3" d="M107.73,246.22l.51.09a.53.53,0,0,0-.15.67c.13.25.26.5.36.75a6.62,6.62,0,0,1,.24.84,6.72,6.72,0,0,1,.16,1L109,251a4.32,4.32,0,0,0,.15,1,1.38,1.38,0,0,0,.19.41,1.29,1.29,0,0,0,.34.36.54.54,0,0,0,.21.08l.12,0a.55.55,0,0,0,.18,0,.74.74,0,0,0,.41-.35,4.71,4.71,0,0,0,.21-.52c0-.13.08-.25.13-.38l.26-.7.54-1.42.54-1.4.25-.69c.14-.34.34-.76.14-1.11a1,1,0,0,0-.82-.36l-.38,0-.72-.1-.79-.13-.76-.09c-.47-.06-.94-.14-1.4-.21h0a.4.4,0,0,0-.28.12h0a.41.41,0,0,0-.14.31.42.42,0,0,0,.11.32A.52.52,0,0,0,107.73,246.22Zm2.1.3,1.07.16.86.1,0,.12-.15.37c-.08.22-.17.45-.26.67-.16.43-.32.86-.49,1.28l-.51,1.39c-.08.23-.17.45-.25.67s-.07.21-.11.32c0-.19,0-.37-.07-.56,0-.34,0-.69-.07-1h0c0-.39,0-.78-.11-1.16a11.5,11.5,0,0,0-.23-1.14,8.43,8.43,0,0,0-.44-1.22.16.16,0,0,0,0-.07Z"/><path class="cls-3" d="M51,172.74a1.39,1.39,0,0,0-.21.27.43.43,0,0,0,0,.07,1,1,0,0,0-.12.35.67.67,0,0,0,.29.6,2.09,2.09,0,0,0,.36.19c.25.12.52.21.78.31l.25.11a9.71,9.71,0,0,1,1.39.9c.22.17.45.32.67.48l.33.22a1,1,0,0,0,.29.15.55.55,0,0,0,.59-.13,1.18,1.18,0,0,0,.23-.68c0-.13,0-.27,0-.41,0-.3,0-.59,0-.89,0-.57,0-1.15.08-1.73s.06-.94.07-1.42v0l.17-.07a.72.72,0,0,0,.29-1,.69.69,0,0,0-.62-.36.75.75,0,0,0-.33.07h0c-.59.27-1.18.54-1.74.86a17,17,0,0,0-1.5,1c-.24.18-.48.36-.7.56A5.32,5.32,0,0,0,51,172.74Zm1.4.52.6-.44c.47-.33.95-.63,1.44-.93h0c.21-.12.42-.24.63-.34,0,.23,0,.46,0,.7s0,.77-.05,1.16,0,.69,0,1,0,.4,0,.61c-.36-.31-.74-.61-1.12-.89a5.78,5.78,0,0,0-1.07-.63l-.44-.19Z"/><path class="cls-3" d="M56.21,145.06a.07.07,0,0,1,0-.05h0Z"/><polygon class="cls-3" points="56.22 145 56.22 145.01 56.22 145.01 56.22 145"/><path class="cls-3" d="M52.15,141.18a.59.59,0,0,0,.13.36c.66.91,1.35,1.79,2,2.69.17.24.33.48.49.73l.11.16.14.2a1.26,1.26,0,0,0,.24.22l.16.08.17,0a.55.55,0,0,0,.37-.14.74.74,0,0,0,.24-.5l0-.16s0,.08,0,.12c.09-.44.21-.88.34-1.31.07-.24.15-.47.23-.71s.13-.46.19-.69.13-.43.18-.65l.18-.69c.06-.23.13-.42.17-.64a1.39,1.39,0,0,0,0-.67.59.59,0,0,0-.34-.37,1.17,1.17,0,0,0-.26,0l-.23,0h0a3.43,3.43,0,0,0-.64.21l-.47.19-.07,0a4.73,4.73,0,0,1-1.12.22l-.65,0c-.3,0-.6,0-.9.07a.52.52,0,0,0-.32.22.54.54,0,0,0-.06.39.42.42,0,0,0,0,.12.78.78,0,0,0-.22.12A.5.5,0,0,0,52.15,141.18Zm1.47-.33.46,0c.29,0,.58-.08.86-.13a9.35,9.35,0,0,0,1.7-.62l.09,0h0c0,.14-.09.27-.13.41l-.18.61c-.11.43-.25.85-.37,1.28s-.29.85-.42,1.27c-.06.2-.12.39-.17.59l0-.05c-.16-.24-.31-.48-.48-.71l.07.1c-.3-.43-.62-.86-1-1.28s-.65-.86-1-1.3A4.18,4.18,0,0,1,53.62,140.85Z"/><path class="cls-3" d="M76.08,167.15c-.2.07-.41.11-.62.17l-.61.18c-.45.15-.89.31-1.33.49l-1.41.64a.5.5,0,0,0-.21.67.51.51,0,0,0,.67.21l.1,0a.56.56,0,0,0,.07.36,3.31,3.31,0,0,0,.41.5l.3.3c.19.21.37.42.54.65a5.73,5.73,0,0,0,.94,1.19,1.12,1.12,0,0,0,.83.4h.12l.17-.06a.61.61,0,0,0,.22-.2,1.32,1.32,0,0,0,.17-.41c0-.26.11-.53.16-.79.13-.56.22-1.13.32-1.71s.16-1.08.23-1.62c0-.1,0-.19,0-.29a1,1,0,0,0,0-.48.51.51,0,0,0-.29-.25l-.17,0-.22,0h0A2.4,2.4,0,0,0,76.08,167.15Zm.15,1.26c0,.33-.09.65-.15,1a.36.36,0,0,0,0-.11c0,.09,0,.17,0,.26v0s0,.07,0,.1h0l0,.1v.06l-.09.5c0,.29-.12.58-.18.87l-.09.4c0,.07,0,.14,0,.2-.11-.12-.22-.24-.32-.37-.19-.29-.36-.58-.55-.87s-.42-.62-.64-.92l0,0,0-.05,0-.07,0,.05a3,3,0,0,1-.24-.38.55.55,0,0,0-.18-.22l.9-.38-.12,0,.23-.08-.12,0,1-.35h0l.5-.16.22-.07C76.26,168.18,76.24,168.29,76.23,168.41Z"/><path class="cls-3" d="M76.05,169.59v-.06h0A.13.13,0,0,0,76.05,169.59Z"/><path class="cls-3" d="M76,169.71v0h0a.43.43,0,0,1,0,.05Z"/><path class="cls-3" d="M38.55,181.35l-.68.36c-.5.24-1,.46-1.52.69a.46.46,0,0,0-.2.62.51.51,0,0,0,.27.23.5.5,0,0,0,.36,0l0,0a.54.54,0,0,0-.1.3.51.51,0,0,0,.14.39,3.92,3.92,0,0,0,.32.25l.17.12a1.81,1.81,0,0,1,.23.18,4.68,4.68,0,0,1,.53.56c.15.19.3.4.44.59a5.15,5.15,0,0,0,.47.56,1.63,1.63,0,0,0,.51.36.93.93,0,0,0,.52.09.83.83,0,0,0,.52-.33,1.45,1.45,0,0,0,.22-.6,3.4,3.4,0,0,0,.07-.46c0-.26,0-.52.06-.79,0-.5,0-1,.09-1.49s.1-1.11.11-1.67a2.11,2.11,0,0,0,0-.25.62.62,0,0,0-.08-.24.9.9,0,0,0-.14-.2.59.59,0,0,0-.23-.14.91.91,0,0,0-.23,0h0a.82.82,0,0,0-.3.07,1.38,1.38,0,0,0-.27.14l-.65.38Zm1.48.21.22-.16c0,.3,0,.6-.07.89s-.06.77-.08,1.16-.05.68-.07,1,0,.65-.08,1a2.5,2.5,0,0,1-.07.26l-.1-.07a3.41,3.41,0,0,1-.49-.59v0c-.23-.33-.45-.67-.7-1a6.14,6.14,0,0,0-.42-.47c-.14-.15-.34-.3-.5-.46a.61.61,0,0,0-.34-.17l.54-.24h0l.86-.44.87-.49Z"/><path class="cls-3" d="M118.87,183.5h0l-.07.05.06,0-.09.07a3.39,3.39,0,0,0-.92,1,2.38,2.38,0,0,0-.33.9.7.7,0,0,0,.18.48.92.92,0,0,0,.44.22l.39.07c.44.08.88.18,1.31.3s.9.33,1.35.5.9.32,1.33.5l.31.13a.86.86,0,0,0,.3.09.57.57,0,0,0,.57-.23.87.87,0,0,0,.13-.44,1.79,1.79,0,0,0,0-.23,2.84,2.84,0,0,0-.1-.65c-.15-.42-.31-.84-.5-1.25a3.8,3.8,0,0,1-.18-.6,6.44,6.44,0,0,1-.13-.88.5.5,0,0,0-.23-.32.51.51,0,0,0-.77.55,6.57,6.57,0,0,0,.44,1.43c.15.36.34.7.48,1.06a3.07,3.07,0,0,1,.13.5l-.19-.1c-.22-.11-.45-.2-.69-.3l-1.23-.46a8.26,8.26,0,0,0-1.22-.39c-.38-.08-.76-.14-1.14-.2a.36.36,0,0,1,0-.09,3.12,3.12,0,0,1,.27-.43,2.89,2.89,0,0,1,.35-.35,3,3,0,0,1,.35-.27q.44-.3.9-.57a8.39,8.39,0,0,1,1-.45l.45-.16a.43.43,0,0,0,.26-.18.43.43,0,0,0-.13-.58.49.49,0,0,0-.24-.08l-.09,0h0a10.25,10.25,0,0,0-1.53.63C119.69,183,119.27,183.22,118.87,183.5Z"/><path class="cls-3" d="M131.38,143.67a.47.47,0,0,0-.3-.14h0a.44.44,0,0,0-.3.12h0c-.45.34-.9.67-1.32,1a10.28,10.28,0,0,0-1.07,1.12c-.31.38-.6.78-.88,1.19s-.54.79-.78,1.2c-.06.12-.13.24-.18.37a.66.66,0,0,0,0,.46.73.73,0,0,0,.31.38,1.06,1.06,0,0,0,.45.16l.3.06c.51.1,1,.18,1.54.23s.95.1,1.42.12h.26l.26,0a1.14,1.14,0,0,0,.26-.09.7.7,0,0,0,.36-.36,2.19,2.19,0,0,0,.12-.33,2.64,2.64,0,0,0,0-1l-.09-.7c0-.24-.05-.49-.09-.73s-.12-.57-.18-.86a6.49,6.49,0,0,1-.11-.77,1.13,1.13,0,0,1,0-.26.64.64,0,0,1,0-.07.5.5,0,0,0-.05-.43l.05,0A.44.44,0,0,0,131.38,143.67Zm-.43,5.42h0a4.87,4.87,0,0,1-.76-.06l-.62-.08c-.42-.05-.85-.1-1.27-.17l-.73-.13h-.05a12.25,12.25,0,0,1,.82-1.29c.29-.43.61-.84.94-1.24a9.46,9.46,0,0,1,1-.94h0l.07-.06.06.3c0,.13.06.26.1.4.08.3.18.58.27.88a6.25,6.25,0,0,1,.18.86c0,.27.08.55.11.83a2.57,2.57,0,0,1,0,.48A1.42,1.42,0,0,1,131,149.09Z"/><path class="cls-3" d="M82.37,152.79a4.86,4.86,0,0,0-.19.82.6.6,0,0,0,.19.45,1,1,0,0,0,.45.22,3.41,3.41,0,0,0,.48.09l.75.07c.27,0,.55.06.82.1l.74.11.36,0,.17,0h.28a.84.84,0,0,0,.27-.08.69.69,0,0,0,.3-.35,1.12,1.12,0,0,0,.08-.45,2.36,2.36,0,0,0-.09-.52,6.21,6.21,0,0,0-.3-.82c-.2-.46-.45-.9-.69-1.33a15.91,15.91,0,0,1-.86-1.76.32.32,0,0,1,0-.14s0,0,0-.06.15-.3.22-.45a.43.43,0,0,0,.06-.33.42.42,0,0,0-.19-.28.51.51,0,0,0-.24-.07h-.1a.4.4,0,0,0-.27.19c-.1.2-.19.39-.29.58l-.15.1a.65.65,0,0,0-.19.41.61.61,0,0,0,0,.14L83,151.33A9,9,0,0,0,82.37,152.79Zm.9.14a7.12,7.12,0,0,1,.31-.76c.27-.56.55-1.11.84-1.66h0l.12.2c.2.32.41.63.62.93a10.3,10.3,0,0,1,.55.9,8.72,8.72,0,0,1,.42.87c0,.13.08.27.11.41v0l-.35,0-.4-.07-.79-.12c-.5-.08-1-.09-1.52-.17h-.05C83.17,153.27,83.22,153.1,83.27,152.93Z"/><path class="cls-3" d="M187.3,157.85a2.93,2.93,0,0,0,.6.15.67.67,0,0,0,.51-.14.87.87,0,0,0,.25-.46,2.4,2.4,0,0,0,.05-.46,1.84,1.84,0,0,0,0-.33c0-.17-.05-.33-.08-.5a5.43,5.43,0,0,1-.09-.56c0-.24,0-.49-.07-.73s-.05-.78-.08-1.17-.08-.86-.15-1.29a.6.6,0,0,0-.38-.45.41.41,0,0,0-.17-.2.52.52,0,0,0-.25-.07h-.11a.47.47,0,0,0-.28.2c-.75,1-1.49,1.92-2.2,2.9-.16.22-.3.46-.45.69s-.13.2-.19.3a2.42,2.42,0,0,0-.29.58.7.7,0,0,0,.43.86,2,2,0,0,0,.6.12l.82.11.14,0a7.66,7.66,0,0,1,.94.25Zm-1.69-1.39c-.24,0-.48-.06-.72-.09a20.87,20.87,0,0,1,1.23-1.83h0c.31-.43.63-.85,1-1.27l.09.45c.06.38.11.76.17,1.14s.13.75.2,1.12c0,.17.1.33.15.5a2.46,2.46,0,0,1,.1.47v.11c-.43-.14-.85-.33-1.29-.43C186.21,156.56,185.91,156.51,185.61,156.46Z"/><path class="cls-3" d="M157.12,149.33c-.23,0-.46,0-.69.1s-.48.09-.71.16-.54.18-.81.28a4.22,4.22,0,0,0-.65.3,5.52,5.52,0,0,0-.66.4c-.36.25-.74.63-.61,1.11a1.34,1.34,0,0,0,.48.6l.28.23c.34.26.67.52,1,.76s.73.51,1.08.78l.36.31c.15.15.29.31.43.47a3.83,3.83,0,0,0,.29.28.6.6,0,0,0,.36.16.54.54,0,0,0,.25-.06.42.42,0,0,0,.19-.16,1.17,1.17,0,0,0,.19-.57l0-.29c.08-.83.08-1.67.21-2.49,0-.17.06-.34.1-.51a6,6,0,0,1,.17-.73.5.5,0,0,0,0-.36,1.27,1.27,0,0,0,.1-.12.5.5,0,0,0,.06-.38.54.54,0,0,0-.21-.3.53.53,0,0,0-.27-.08H158Zm.3,1c0,.09,0,.17,0,.25l0,.27c0,.17,0,.34,0,.51,0,.35-.06.71-.07,1.06,0,.54,0,1.08-.07,1.6a3.14,3.14,0,0,0-.34-.4,9.78,9.78,0,0,0-.9-.79l-.89-.66-.86-.68.1.09-.14-.11.1-.09c.2-.12.41-.25.62-.36a6.36,6.36,0,0,1,.7-.33,6.43,6.43,0,0,1,1.14-.32h0l.74-.1Z"/><path class="cls-3" d="M101.88,259.27a.5.5,0,0,0-.38,0,.44.44,0,0,0-.23.27,4.22,4.22,0,0,0-.07.61c0,.12,0,.24,0,.37s0,.45,0,.68c0,.48-.09,1-.17,1.44-.06.32-.11.65-.17,1a2.62,2.62,0,0,1-.09.38c-.24-.28-.48-.57-.7-.87a7.4,7.4,0,0,0-2-1.73c-.32-.18-.66-.34-1-.49l.33-.27c.19-.13.39-.25.59-.37a4.79,4.79,0,0,1,.72-.35,11.16,11.16,0,0,1,1.4-.39l.82-.19.91-.2a.34.34,0,0,0,.26-.42.35.35,0,0,0-.35-.28h-.07l-.81.17-.61.14c-.43.09-.86.18-1.29.29a5.21,5.21,0,0,0-1.28.49,6.22,6.22,0,0,0-.56.32,3.78,3.78,0,0,0-.56.4l-.31.27a.63.63,0,0,0-.27.45.66.66,0,0,0,.39.58c.23.14.49.25.74.37s.5.27.74.42a7.62,7.62,0,0,1,.64.48q.39.34.75.72c.24.25.45.54.68.8l.37.37a.88.88,0,0,0,.7.27.57.57,0,0,0,.32-.2,1.13,1.13,0,0,0,.22-.36,2.36,2.36,0,0,0,.1-.38,2.08,2.08,0,0,0,.06-.36l.09-.52c.1-.53.18-1.05.25-1.58s.12-1.08.2-1.61a.74.74,0,0,1,0-.14A.5.5,0,0,0,101.88,259.27Z"/><path class="cls-3" d="M26.21,211.55a1,1,0,0,0,.53.57.65.65,0,0,0,.58-.14,1,1,0,0,0,.24-.45,3.41,3.41,0,0,0,.1-.54c0-.24.06-.48.08-.71,0-.5.06-1,.12-1.49s.12-1,.19-1.56l.09-.56.18-1a.56.56,0,0,0,0-.42A.57.57,0,0,0,28,205a.56.56,0,0,0-.42,0,.57.57,0,0,0-.27.32c-.1.52-.15,1-.22,1.56s-.1.94-.16,1.4-.08.94-.1,1.41c0,.24,0,.48,0,.71l-.32-.48a7.38,7.38,0,0,0-1.07-1.23c-.38-.35-.78-.69-1.16-1s-.76-.66-1.12-1a3.61,3.61,0,0,1-.33-.35l.15-.06-.11,0,.92-.34h0c.54-.2,1.1-.36,1.66-.53l1.91-.59a.43.43,0,0,0-.09-.85h-.11l-1.57.49c-.48.14-.95.27-1.42.42l-1.4.47-.34.1c-.1,0-.19.06-.29.09a1,1,0,0,0-.21.15.6.6,0,0,0-.18.4,1.76,1.76,0,0,0,.62,1.16c.28.28.57.56.86.82l.92.83c.29.26.59.5.85.78s.5.57.73.87l.39.61Z"/><path class="cls-3" d="M63.29,210.75a.56.56,0,0,0-.27-.38c-.55-.29-1.1-.56-1.66-.83a4.7,4.7,0,0,0-.74-.28c-.31-.09-.63-.14-.94-.2A4.48,4.48,0,0,0,59,209a.93.93,0,0,0-.68.24h0a1.19,1.19,0,0,0-.27.94c0,.18,0,.37,0,.55,0,.55.17,1.09.25,1.63s.18,1.09.25,1.63a14.89,14.89,0,0,0,.24,1.63,3.2,3.2,0,0,0,.17.43,1,1,0,0,0,.33.4.57.57,0,0,0,.28.08h.17l.15-.06a1.84,1.84,0,0,0,.22-.17l.07-.07.12-.12c.11-.12.21-.24.31-.37.33-.42.62-.88.92-1.33s.56-.82.85-1.24a6.82,6.82,0,0,0,.42-.7c.13-.24.24-.5.35-.75h0a.56.56,0,0,0,.07-.4.47.47,0,0,0-.06-.15A.61.61,0,0,0,63.29,210.75ZM62,212c-.31.6-.69,1.16-1,1.74a12.36,12.36,0,0,1-1.07,1.63l0,0a7.09,7.09,0,0,1-.12-.91v0c-.05-.65-.13-1.3-.22-1.95s-.19-1.23-.27-1.85c0-.17,0-.34,0-.5h0l.22,0c.23,0,.45.08.67.14a5.35,5.35,0,0,1,.67.24h0l0,0h0l.13.06h0l.17.08.26.12-.15-.07c.35.17.69.35,1,.53C62.16,211.56,62.09,211.76,62,212Z"/><polygon class="cls-3" points="61.19 210.81 61.11 210.78 61.04 210.75 61.19 210.81"/><polygon class="cls-3" points="60.83 210.65 60.83 210.65 60.79 210.63 60.83 210.65"/><polygon class="cls-3" points="91.09 190.27 91.11 190.28 91.11 190.28 91.07 190.26 91.09 190.27"/><path class="cls-3" d="M138.94,175.89c.41.41.82.82,1.25,1.21l0,.89c0,.5.05,1,.07,1.48s0,1,0,1.47c0,.25,0,.51,0,.76a3.37,3.37,0,0,0,.14.77c.11.35.31.82.74.82s.66-.41.87-.7.5-.71.78-1.05a7.21,7.21,0,0,1,1-.91l.29-.26a.73.73,0,0,0,.23-.5.83.83,0,0,0-.21-.52,4,4,0,0,0-.53-.56c-.36-.33-.71-.68-1.08-1s-.82-.65-1.22-1h0l-.13-.1c0-.1,0-.21,0-.31a.53.53,0,0,0-.5-.55.6.6,0,0,0-.32.1c-.25-.23-.49-.47-.73-.71a.52.52,0,0,0-.37-.16.51.51,0,0,0-.33.13h0A.49.49,0,0,0,138.94,175.89Zm2.92,2.59c.27.22.52.45.78.68l.45.4c.11.1.22.19.32.3-.18.16-.37.3-.55.45a6.15,6.15,0,0,0-.63.62c-.2.24-.4.49-.58.75s-.23.34-.36.5c0-.15-.06-.3-.08-.45,0-.43,0-.86,0-1.29h0q0-.66,0-1.32c0-.4,0-.79,0-1.19C141.41,178.11,141.64,178.29,141.86,178.48Z"/><path class="cls-3" d="M228.75,198.18A23,23,0,0,0,222,184.24c-3.77-3.79-6.29-8.55-9.24-13-3.23-4.84-7.42-8.95-11.44-13.14-.94-1-2-2-3-3-.41-.39-.8-.79-1.2-1.19-.54-.55-1.09-1.11-1.67-1.64s-1.3-1.1-1.95-1.6c-.4-.31-.81-.63-1.2-.95s-1.06-.92-1.54-1.37l-.31-.28a14,14,0,0,0-1.3-1.13c-.86-.64-1.77-1.25-2.65-1.84l-1-.66-.31-.22c-.83-.59-1.69-1.19-2.55-1.77s-1.71-1.11-2.56-1.64l-.35-.22c-1-.61-1.9-1.16-2.84-1.68s-1.91-1.08-2.68-1.58c-.37-.26-.74-.54-1.11-.81l-.42-.32a23,23,0,0,0-2-1.34c-.46-.27-1-.52-1.42-.77l-.42-.22-.95-.53-.76-.42c-1.16-.63-2.35-1.32-3.62-2.1l-1.23-.72-.53-.3c-.75-.44-1.33-.75-1.9-1s-1.07-.48-1.63-.68l-.4-.15-.63-.24c-.56-.21-1.15-.43-1.71-.68L154,126.4l-.76-.32a16.71,16.71,0,0,1-2.11-1.07l-.15-.11a3.32,3.32,0,0,0-1.14-.65l-.24,0a.75.75,0,0,0-.07-.12,1.53,1.53,0,0,0-1.28-.68l0,0a1.48,1.48,0,0,0-.84.25,3.86,3.86,0,0,0-.76.75.82.82,0,0,0-.31-.61.7.7,0,0,0-.44-.23c-.62-.33-1.2-.71-1.81-1.06-.21-.11-.42-.21-.64-.3s-.6-.27-.9-.41a9.92,9.92,0,0,0-1.28-.49c-.35-.11-.7-.2-1-.32-.8-.3-1.57-.7-2.34-1.06a10.83,10.83,0,0,0-1.64-.62c-.46-.12-.92-.22-1.37-.35s-.73-.32-1.1-.48a10.72,10.72,0,0,0-1.66-.54c-.45-.1-.9-.18-1.35-.27s-1-.24-1.42-.39-.89-.3-1.34-.43-.92-.22-1.4-.3-.81-.12-1.22-.18c-.25,0-.49-.06-.73-.11l-.46-.13c-.44-.17-.87-.37-1.32-.5l-.16,0c0-.21,0-.43,0-.64s0-.66,0-1v-.13l0-.44c0-.43,0-.86,0-1.28v-.4c0-.54,0-1.11,0-1.68,0-.1,0-.2,0-.3v-.07c.07-.83.16-1.59.28-2.31a14.15,14.15,0,0,1,.47-1.92,10.94,10.94,0,0,1,1-2,8.59,8.59,0,0,1,.84-1,13.54,13.54,0,0,1,1.51-1.1c.51-.32,1.1-.69,1.71-1,.28-.14.57-.26.86-.39l.11,0a13.77,13.77,0,0,0,1.46-.68,12.37,12.37,0,0,0,1.24-.79c.34-.23.72-.49,1.1-.71l1.06-.58.24-.12a12.92,12.92,0,0,0,1.17-.75c.49-.33.94-.67,1.39-1l.06,0,.17-.13.66-.48a20.88,20.88,0,0,0,2.29-1.91c.37-.36.73-.75,1-1.09l.07-.07c.26-.28.52-.56.8-.83a17.27,17.27,0,0,0,1.81-2.1c.37-.52.73-1.08,1.05-1.58l.54-.84a44.85,44.85,0,0,0,2.46-4,15.53,15.53,0,0,0,.91-2.09c.17-.47.32-.94.47-1.41v0c.08-.23.15-.46.23-.69s.23-.64.35-1l.08-.22,0-.07c.18-.49.36-1,.53-1.47.3-.86.57-1.82.87-3,.23-.93.41-1.87.54-2.78l.12-.78v-.1c.1-.68.21-1.38.29-2.07.05-.37.07-.76.1-1.14l0-.47.09-1.3v-.21l0-.36v0l0-.39c0-.31,0-.63,0-.95v-.44c0-.47,0-.95,0-1.42v-.39c0-.38,0-.76,0-1.13s-.05-.9-.1-1.46l0-.39v-.06c-.06-.8-.13-1.63-.23-2.44s-.26-1.91-.41-2.81l-.08-.46c0-.31-.1-.63-.16-.93-.08-.47-.18-.94-.28-1.4-.19-.95-.41-2-.68-3a22.57,22.57,0,0,0-.94-2.77c-.13-.32-.27-.63-.42-.94a2.5,2.5,0,0,0-.09-.66l-.09-.3-.08-.23-.12-.42-.06-.24c-.07-.22-.13-.43-.19-.65-.21-.75-.46-1.49-.73-2.24l0,0a.79.79,0,0,0,.42-1c-.14-.38-.3-.77-.45-1.16l-.07-.15-.4-1-.14-.38c-.29-.72-.6-1.5-.87-2.25l-.12-.34a10.06,10.06,0,0,0-.42-1.08c-.3-.62-.58-1.16-.86-1.65-.16-.29-.34-.57-.53-.86l0-.06-.2-.32c-.24-.38-.52-.82-.82-1.26s-.74-1-1.12-1.46l0-.06c-.25-.3-.49-.61-.72-.92s-.32-.44-.47-.66l0-.05-.33-.48c-.31-.44-.61-.83-.91-1.19a9.41,9.41,0,0,0-1.37-1.38l-1.18-.88-.11-.09-.81-.62c-.58-.45-1.19-.91-1.81-1.32-.44-.28-.9-.55-1.4-.82-.33-.18-.66-.33-1-.48L132,14.7l-.81-.37-.83-.39c-.37-.17-.79-.37-1.21-.54a38.1,38.1,0,0,0-4.36-1.51c-.77-.21-1.54-.37-2.11-.48-.33-.07-.67-.14-1-.19-.5-.07-1-.11-1.36-.13a24.67,24.67,0,0,0-3.33,0c-1.07.07-2,.17-3,.29a32.49,32.49,0,0,0-3.41.63c-.88.21-1.92.47-3,.82-.89.31-1.94.68-3,1.12a18.36,18.36,0,0,0-1.78.83l-.86.46-1.4.76-2,1.1a25.54,25.54,0,0,0-2.67,1.81c-.67.51-1.28,1.07-1.87,1.61a21.3,21.3,0,0,0-1.16-2l-.3-.42-.36-1c-.56-1.49-1.19-2.94-1.92-4.42-.52-1.07-1.1-2.14-1.66-3.17l-.77-1.43c-.43-.82-.88-1.65-1.4-2.45a12.31,12.31,0,0,0-2.92-2.84c-.33-.25-.64-.51-1-.78s-.67-.56-1-.83A5.67,5.67,0,0,0,78.05,0a6.33,6.33,0,0,0-3.52,1.26,7.63,7.63,0,0,0-2.27,2.65,7.77,7.77,0,0,0-.69,2,12.34,12.34,0,0,0-.32,2.9,12.88,12.88,0,0,0,.58,3.49,12,12,0,0,0,1,2.32l.1.19a14.81,14.81,0,0,0,3.34,4c2.13,1.9,4.83,2.86,7.44,3.79l.36.13c.5.17,1,.37,1.5.57.67.27,1.37.55,2.09.78.39.13.79.23,1.17.33l.5.12.34.1c-.52.62-1,1.25-1.53,1.86l-.35.42-.94,1.22c-.31.42-.69.93-1,1.46s-.6,1-.85,1.44l-.82,1.5c-.56,1-1,1.9-1.41,2.72-.25.52-.49,1-.72,1.56a17,17,0,0,0-.6,1.69,30.42,30.42,0,0,0-1.34,6.18,25.72,25.72,0,0,0-.18,3.51,19.74,19.74,0,0,0,.37,3.16c.1.57.23,1.19.4,1.8.12.41.27.85.45,1.39l.09.26c.28.79.59,1.68.85,2.55.21.68.43,1.34.65,2,.06.22.13.43.2.65l0,.1c.13.42.27.87.42,1.31l.09.23a33.18,33.18,0,0,1,1.09,3.47c.09.53.16,1.06.22,1.55a20.45,20.45,0,0,0,.37,2.1l.14.66c.11.56.21,1.13.31,1.7a38.08,38.08,0,0,0,.86,4.06c.11.41.24.82.37,1.22l0,.09c.14.46.29.93.42,1.39.08.29.15.58.22.88l0,.13c.15.6.3,1.22.5,1.82.1.34.22.67.33,1l.08.24c.17.46.33.93.48,1.4a17,17,0,0,0,1.15,2.8,7.4,7.4,0,0,0,.82,1.24c.31.37.62.74.94,1.1s.39.44.6.66a5.38,5.38,0,0,0,1,.79,3.91,3.91,0,0,0,.94.4l.1,0a4.11,4.11,0,0,0,1.1.15h.07a4.59,4.59,0,0,0,2.88-1c.12-.11.24-.22.35-.34a25,25,0,0,1-.76,3c-.49,1.28-1,2.57-1.52,3.83-.3.68-.62,1.36-.91,2s-.52,1.3-.78,1.94a25.87,25.87,0,0,1-2,3.72c-.7,1.17-1.35,2.35-2,3.54-.34.61-.7,1.22-1.07,1.82s-1.06,1.45-1.6,2.17-1.14,1.59-1.78,2.32c-.33.39-.67.78-1,1.15s-.69.68-1,1c-.7.69-1.35,1.42-2.06,2.1-.94.81-1.94,1.53-2.89,2.31-.5.41-1,.81-1.55,1.19s-1.05.73-1.57,1.11-1.07.8-1.63,1.18-1.17.74-1.77,1.1c-1.1.65-2.15,1.36-3.28,2l-.81.4-.33.16a1.7,1.7,0,0,0-.85-.26H67.6a1.62,1.62,0,0,0-1.12.54,1.77,1.77,0,0,0-.16.22c-.26.06-.51.13-.76.21a15.29,15.29,0,0,0-1.89.71c-.59.27-1.17.58-1.73.88l-.34.19c-.58.31-1.16.6-1.75.9l-.19.1-.23.11c-.55.28-1.13.57-1.66.88s-.85.53-1.26.8l-.56.38L54,134c-.4.24-.79.51-1.17.78l-.58.4a38.7,38.7,0,0,0-3.48,2.63c-.64.56-1.33,1.16-2,1.81l-.72.73-.86.88a25.54,25.54,0,0,0-2.94,3.38c-.5.7-1,1.39-1.43,2.09l-.53.82-.69,1.07c-.81,1.23-1.54,2.5-2.23,3.69a38.72,38.72,0,0,0-1.9,3.95c-.31.74-.66,1.43-1,2s-.51.91-.77,1.34l-.3.51a34.67,34.67,0,0,0-2,3.84l-.63,1.5-.14.35-.05.11,0,.05c-.26.62-.56,1.34-.89,2.06l-.22.49-.42.93-.67,1.47c-.16.36-.32.72-.49,1.08-.25.56-.53,1.2-.85,1.82l-.17.32,0,.08-.64,1.16-.11.21a22,22,0,0,0-1.41,3.49c-.08.25-.16.5-.25.74l-.09.26-.09.26c-.36,1-.78,2.2-1.26,3.32-.16.39-.34.78-.53,1.16l-.22.48c-.26.58-.51,1.17-.74,1.75-.12.27-.22.55-.33.83l-.11.3s0,0,0,0l0,.05c-.3.83-.58,1.72-.86,2.72l-.21.73,0,.08,0,0c-.23.79-.51,1.64-.85,2.63l-.08.22c-.18.5-.37,1-.58,1.53s-.43,1.05-.67,1.58-.54,1.2-.83,1.91c-.2.5-.37,1-.53,1.53l-.18.56c-.39,1.18-.76,2.4-1.12,3.57l-.06.2-.22.73c-.23.77-.47,1.58-.74,2.36-.21.54-.45,1.08-.68,1.61-.11.24-.22.48-.32.72l-.09.2a8.66,8.66,0,0,0-.57,1.57,3.08,3.08,0,0,0-.1.8v.15a.76.76,0,0,0,0,.21,1.81,1.81,0,0,0,.64,1,1.65,1.65,0,0,0,.25.15,2,2,0,0,0,.79.19,1.71,1.71,0,0,0,.55-.09l.28-.13.14.08.08,0,.25.14.06,0,.11.05.15.07a5.53,5.53,0,0,0,1.05.32c4.31.93,8.61,2,12.9,3a7.6,7.6,0,0,1,1.94.63,12.48,12.48,0,0,1,1.95,1.3,12,12,0,0,0-2.45,1.37l-.42.27-.14.08-.15.09-.07,0a27.49,27.49,0,0,0-2.4,1.57c-.56.43-1,.82-1.48,1.2l-.15.14-.05,0c-.43.38-1,.86-1.45,1.36a16.72,16.72,0,0,0-1.23,1.41c-.22.27-.42.56-.64.86l-.05.08c-.16.23-.32.46-.49.68l-.44.57c-.32.39-.62.8-.9,1.22-.08.13-.16.26-.23.39s-.23.35-.34.53a13.94,13.94,0,0,0-.92,2.14c-.26.74-.5,1.48-.75,2.22l-.07.22-.31.88,0,.06,0,0c-.27.76-.6,1.7-.87,2.63s-.52,1.88-.74,2.73c-.1.4-.19.76-.29,1.12-.16.6-.32,1.21-.47,1.82-.06.23-.12.47-.17.71l0,.13,0,.16c-.17.51-.3,1-.46,1.6l0,.09a.63.63,0,0,0,.2.62,25.21,25.21,0,0,0-.13,3.13c0,1.47.09,2.9.15,4.1,0,.75.1,1.48.16,2.16s.2,1.31.32,1.89v.17a33.22,33.22,0,0,0,1.22,4.25c.41,1.18.91,2.37,1.32,3.33l0,.06.1.25c.3.7.58,1.41.86,2.12s.48,1.21.73,1.81c.32.79.66,1.58,1,2.37l.07.18.53,1.24.15.36c.44,1.06,1,2.25,1.5,3.36.38.77.78,1.49,1.22,2.22.27.43.55.85.83,1.27l.1.15c-.43.29-.85.59-1.27.89l-.34.25a16.59,16.59,0,0,1-2,1.13l-.72.37-1.24.7c-.45.27-.92.54-1.39.79a9,9,0,0,1-1.42.54c-.36.1-.72.18-1,.25a16.06,16.06,0,0,1-2.59.21l-1,0c-.34,0-.7-.09-1-.15a5.91,5.91,0,0,1-.82-.24l-.41-.13-.76-.21-1.12-.32a8.72,8.72,0,0,1-1.18-.6,6.66,6.66,0,0,1-.78-.72,8.55,8.55,0,0,1-.83-1.23,14.67,14.67,0,0,1-1-2.8c-.24-1-.46-2-.64-2.87a23.87,23.87,0,0,1-.29-3c0-1,0-2,0-3,0-.49,0-1,0-1.47s0-1.25,0-1.88c0-1,.08-2,.14-2.92,0-.4.07-.81.09-1.21.07-.82.12-1.64.18-2.45l.09-1.33c.35-4,.72-7.2,1.17-10.14.22-1.39.5-2.78.78-4.14l.11-.55.07-.35c.13-.63.26-1.28.43-1.91l.3-1.21.33-1.28.3-1.15c.31-1.22.64-2.5.91-3.76s.54-2.3.82-3.42l.39-1.55.33-1.42c.26-1.11.54-2.26.86-3.38.47-1.6.92-3.17,1.41-4.73.11-.38.23-.75.35-1.12l.14-.39c.38-1.05.77-2.12,1.19-3.17l.06-.15c.23-.57.45-1.14.69-1.7s.43-1,.65-1.42l.15-.32h0l-.14-.07-.1,0,0,0-.09,0-.12-.06,0,0-.07,0-.15-.08-.28.13a1.31,1.31,0,0,1-.27.06,1.24,1.24,0,0,1-.27,0,2.09,2.09,0,0,1-.66-.13l-.13-.06-.18-.11-.08,0c-.56,1.17-1.14,2.42-1.69,3.67-.36.81-.71,1.63-1.06,2.45s-.59,1.54-.85,2.3l-.15.44c-.49,1.37-1.05,3-1.54,4.53-.06.19-.11.38-.17.56v-.07l0-.08,0-.1c-.36,1.23-.72,2.48-1.09,3.72l.16.18c-.07.27-.14.51-.2.75-.13.48-.27,1-.41,1.44-.09.32-.19.64-.28,1a2.33,2.33,0,0,1-.07.25v-.07l.06-.2c.09-.33.18-.65.28-1,.13-.48.27-1,.4-1.45.07-.23.13-.47.2-.74l-.15-.18c-.3,1-.6,2-.89,3.08,0,0,0,0,0,.06q-.69,2.43-1.34,4.88a1.21,1.21,0,0,0,.2.3l-.12.38c-.19.6-.38,1.23-.56,1.85l-.14.53q-.29,1-.54,2c-.16.61-.29,1.24-.42,1.84l-.12.56,0,.14,0,.13V248l0-.09,0-.14.12-.56c.13-.61.26-1.23.42-1.84s.35-1.3.53-1.95l.15-.53c.17-.62.37-1.25.56-1.85l.11-.38a1.57,1.57,0,0,1-.2-.3c-.65,2.48-1.26,5-1.8,7.51l0,.06c-.3,1.39-.56,2.78-.8,4.19h0c-.41,2.45-.73,4.92-.93,7.43a.44.44,0,0,0,0,.1A69,69,0,0,0,.46,267,10.78,10.78,0,0,1,0,270.52c0,.81,0,1.64,0,2.44V273c0,.44,0,.88,0,1.31s0,.7,0,1a27.33,27.33,0,0,0,.43,5.11c.29,1.37.65,3,1.12,4.54a16.31,16.31,0,0,0,1,2.48,9,9,0,0,0,1.54,2.13,7.85,7.85,0,0,0,2,1.49,11.32,11.32,0,0,0,2.32.85l.92.25c.09.2.17.4.25.6a8.84,8.84,0,0,0,2.16.39l-.13-.29-.07-.14,0-.05.09,0h.09c.48,0,1,.07,1.44.08h.13c.5,0,1,0,1.42-.06a.75.75,0,0,0,.1.2,35.51,35.51,0,0,0,6.49-2.22l.45-.26c.75-.45,1.54-.85,2.3-1.24l.94-.49c.64-.34,1.26-.73,1.86-1.11l.73-.46.1.16c.1.17.21.33.31.49l.5.79.25.39.21.33.17.26,1.17,1.85.37.59c.57.92,1.15,1.85,1.8,2.71l0,0c.38.51.78,1.06,1.21,1.56l1.32,1.52c1,1.12,1.91,2.27,2.68,3.24.44.57.87,1.09,1.31,1.6a19.42,19.42,0,0,0,1.62,1.65c.87.8,2,1.87,3.1,2.9.39.38.76.77,1.14,1.16l.06.06c.54.56,1.07,1.1,1.6,1.59a16.52,16.52,0,0,0,1.4,1.1l.33.24c.53.39,1.1.76,1.59,1.09l.06,0,0,0,.12.07c1.2.82,2.28,1.59,3.31,2.38a22.39,22.39,0,0,0,3.71,2.28l1.35.65c.68.31,1.46.69,2.22,1.08a32.12,32.12,0,0,0,3.74,1.68c1.56.56,3,1,4.24,1.44a37.67,37.67,0,0,0,3.89,1c1.25.26,2.51.48,3.85.68.65.1,1.29.16,1.84.2.81.07,1.55.13,2.31.17.52,0,1.06.05,1.66.05,1.67,0,3.4-.12,4.93-.23h.17l1.12-.07a17.81,17.81,0,0,0,1.93-.22,16.37,16.37,0,0,0,2.29-.59l.58-.2H94c.38,0,.78,0,1.16,0s.72,0,1.16-.11l.33,0,.84-.1a6.41,6.41,0,0,0,1.31-.31c.31-.11.63-.21,1-.29s.47-.07.71-.09l.22,0,.11,0,.27.14.24.13.45.27.11.06c.72.41,1.33.76,1.93,1.13s1,.75,1.41,1.09l.11.08.37.3c.37.3.75.59,1.13.87s.69.49,1,.69l.3.2c.37.24.76.48,1.13.7l.08,0,0,0,.87.54.86.53c.38.22.74.44,1.1.67.74.54,1.35,1,1.85,1.38.65.49,1.32.94,1.89,1.33l.11.07c1.17.78,2.62,1.76,4,2.75l.61.45-.52.17,1.8,1,.19-.08c.54.39,1.12.78,1.64,1.12a42.43,42.43,0,0,1,10.5,7.88c0-.11,0-.22,0-.34l0-.26c.47.38,1,.78,1.46,1.22l.17.15c.42.38.82.73,1.24,1s.94.65,1.37.93l.05,0,.06,0,.26.18.18.12c.18.15.34.3.5.46a9.65,9.65,0,0,1,1.17,1.81l.14.28c.19.37.37.73.55,1.1l.22.45.3.59c.47.94.93,2,1.45,3.3l.27.67.47,1.17.36.82,0,.08.07.16.08.16c.07.17.15.35.23.52a41.78,41.78,0,0,0,3.46,6.63,24.21,24.21,0,0,0,2,2.6,55.36,55.36,0,0,0,1.77-6.32c.36-1.73.38-3.53.73-5.26.3-1.5.83-3.3,2.29-4.06a3.16,3.16,0,0,1,3,.08l0,.06,0-.06a6,6,0,0,1,1,.66c.36.15.7.33,1,.49l.08.05a7.16,7.16,0,0,0,1.12.42l.11,0,.24.09.08,0,.18.07a3.15,3.15,0,0,0,1.21.24,2.44,2.44,0,0,0,1.4-.51,2.5,2.5,0,0,0,.81-1.56,1.73,1.73,0,0,0,0-.6,4.42,4.42,0,0,0-.1-.5,3.06,3.06,0,0,0-.13-.43l0-.07,0-.13c-.2-.59-.4-1.13-.61-1.59-.1-.25-.21-.48-.33-.72s-.34-.74-.51-1.18a25,25,0,0,0-2.1-4.2,37.54,37.54,0,0,0-2.77-3.85l0-.06-.07-.08c-.39-.5-1-1.25-1.51-2-.22-.3-.43-.62-.6-.89l0-.06-.44-.67c-.38-.55-.79-1.11-1.22-1.67l-.18-.23-.13-.16,0-.26v-.24c0-.33-.05-.65-.07-1-.05-.71-.08-1.38-.1-2,0-1.24,0-2.49,0-3.71v-.25a.56.56,0,0,0,0-.22c.07-.31.16-.62.25-.92,0-.14.09-.28.13-.42a.79.79,0,0,0-.4-.87v0c.2-.52.36-1,.57-1.66l.07-.2.11-.33.4-1.14a24.56,24.56,0,0,1,1.6-3.55l.2-.38.86-1.6c.24-.47.46-1,.7-1.5l.08-.18.15-.35.2-.44,0-.05c.23-.5.45-1,.66-1.5s.53-1.32.79-2l.3-.79.05-.14,0-.14c.14-.36.27-.72.4-1.07.26-.68.54-1.32.86-2s.73-1.38,1.05-1.94l0-.08c.35-.61.69-1.21,1-1.81.61-1.22,1.12-2.54,1.57-3.71l.15-.39c.33-.87.74-1.78,1.07-2.51l0-.08c.19-.41.37-.82.55-1.23.7-1.61,1.31-2.9,1.93-4.08l.23-.44.05-.1,0-.08c.06.2.14.39.2.59.61-1.66,1.22-3.32,1.86-5l0,0c.31-.83.6-1.67.87-2.49l.05-.14,0-.17c.23-.62.46-1.25.7-1.85l0,.09.08.28c.26-.6.52-1.21.79-1.81,0-.18-.06-.35-.09-.5l.08-.17c.33-.75.7-1.52,1-2.14l.06-.13,0,0,.09-.17.7-1.47c.62-1.35,1.17-2.7,1.73-4.09l.61-1.52c.37-.92.74-1.84,1.1-2.76.26-.64.56-1.31.81-1.89l0-.06c.34-.76.67-1.5,1-2.23.16-.33.31-.66.47-1l0-.06c.41-.87.88-1.86,1.26-2.84.56-1.43,1.1-2.94,1.5-4l0-.09,0-.09c.48-1.31,1-2.68,1.69-4.18.31-.71.66-1.39,1-2s.45-.88.67-1.32l0-.09.1-.22.17-.33a44,44,0,0,0,1.77-4.12c.2-.55.41-1.09.62-1.64l.17-.44c.12-.32.23-.64.35-.95l.05-.15c.12-.33.24-.66.37-1a37.94,37.94,0,0,1,1.88-3.91,32.28,32.28,0,0,0,2.44-6.32c.14-.5.28-1,.41-1.49.07-.25.12-.5.17-.76l.15-.65c0-.13.06-.25.1-.38l0-.12,0-.06c.61-2.07,1-1.75,3.11-2.08a50.65,50.65,0,0,0,16.49-5.63,26.63,26.63,0,0,0,9-7.46A15.15,15.15,0,0,0,228.75,198.18ZM1.6,252.5c-.27,1.7-.48,3.38-.64,5l-.08.8-.15,1.57s0-.06,0-.09l.15-1.51.07-.8c.16-1.62.38-3.31.65-5a2,2,0,0,1,.06-.34h0ZM93.28,23.28l.41-.37a7.44,7.44,0,0,1,.25.84,1.37,1.37,0,0,1-.31,1.07,1.39,1.39,0,0,1-.92.46,1.12,1.12,0,0,1-.65-.13l-.06,0a3.27,3.27,0,0,1-.37-.28,18.67,18.67,0,0,1,1.58-1.5Zm-3.61.07-.52-.13c-.38-.1-.74-.19-1.1-.3-.67-.22-1.35-.49-2-.76l-1.54-.59-.36-.13c-2.5-.89-5.09-1.81-7-3.55A13.62,13.62,0,0,1,74,14.25l-.1-.18A11.18,11.18,0,0,1,73,12a12,12,0,0,1-.54-3.15,11.19,11.19,0,0,1,.29-2.64,6.81,6.81,0,0,1,.57-1.7,6.64,6.64,0,0,1,1.92-2.26,5.09,5.09,0,0,1,2.83-1h0a4.58,4.58,0,0,1,2.68,1l1,.8c.34.28.67.56,1,.82a11.26,11.26,0,0,1,2.65,2.55c.49.75.9,1.52,1.35,2.36.25.48.51,1,.77,1.43.55,1,1.12,2.07,1.64,3.13.7,1.44,1.32,2.85,1.87,4.31l.42,1.12,0,.07.3.44a18,18,0,0,1,1.1,1.85l.09.17,0,.1-.82.75-.07.06a19.14,19.14,0,0,0-1.54,1.45l-.12,0Zm7.86,64.81a3,3,0,0,1-1.9.74h0a2.82,2.82,0,0,1-.65-.08l-.09,0a2.11,2.11,0,0,1-.54-.22A3.89,3.89,0,0,1,93.6,88c-.19-.19-.37-.4-.54-.6s-.61-.7-.9-1.06a5.38,5.38,0,0,1-.65-1,14.42,14.42,0,0,1-1-2.54c-.16-.48-.32-1-.49-1.44l-.08-.23-.33-1c-.17-.55-.32-1.14-.46-1.72l0-.13c-.08-.3-.15-.61-.24-.91-.13-.49-.28-1-.43-1.45l0-.09c-.12-.39-.25-.79-.36-1.19a34.47,34.47,0,0,1-.82-3.89c-.1-.58-.2-1.16-.32-1.74l-.14-.68c-.14-.65-.27-1.3-.35-2s-.13-1.08-.24-1.68A31.53,31.53,0,0,0,85,61.08l-.09-.24c-.14-.41-.27-.83-.4-1.24l0-.1-.21-.68c-.22-.66-.43-1.31-.63-2-.28-.9-.6-1.82-.88-2.62L82.67,54c-.17-.51-.31-.93-.42-1.31A16.29,16.29,0,0,1,81.88,51a19.07,19.07,0,0,1-.34-2.92,24.32,24.32,0,0,1,.17-3.3A28.54,28.54,0,0,1,83,38.94c.19-.59.35-1.08.55-1.54s.46-1,.69-1.51c.38-.79.82-1.65,1.36-2.63l.83-1.5c.24-.43.51-.88.8-1.36s.66-1,1-1.35l.9-1.17.35-.43,1.41-1.7a3.23,3.23,0,0,0,.76.5l0,0a2.67,2.67,0,0,0,1,.21,1.14,1.14,0,0,0,.26,0,2.53,2.53,0,0,0,2.27-2.89A9.57,9.57,0,0,0,94.67,22a3.71,3.71,0,0,0,.29-.27c.59-.54,1.2-1.1,1.83-1.57a23.4,23.4,0,0,1,2.5-1.7c.65-.37,1.32-.73,2-1.08l1.43-.78c.27-.14.54-.3.82-.44a16.6,16.6,0,0,1,1.64-.77c1-.42,2.06-.78,2.92-1.08s2-.58,2.81-.78a30,30,0,0,1,3.25-.6c.92-.12,1.87-.21,2.9-.28.45,0,.91-.05,1.38-.05h0c.52,0,1.09,0,1.74.07.34,0,.79.06,1.25.12.3,0,.62.11.92.17.55.11,1.29.26,2,.46a38.23,38.23,0,0,1,4.18,1.45c.38.15.78.34,1.13.51l.85.4.79.37.41.19c.3.13.6.27.88.42.47.26.89.51,1.29.77a20.59,20.59,0,0,1,1.71,1.25l.84.63.12.09,1.12.85a7.68,7.68,0,0,1,1.14,1.14c.27.33.54.69.83,1.1l.33.46,0,.05c.17.24.33.48.51.72s.49.63.76,1l0,.05c.35.45.72.91,1,1.38s.56.84.79,1.2l.21.34,0,0c.18.28.34.53.48.78.26.45.52,1,.8,1.55a8,8,0,0,1,.36.92l.13.36c.28.78.59,1.56.88,2.29l.15.38c.13.33.26.67.4,1l.06.15.19.48c-.26.14-.5.3-.74.46a6.34,6.34,0,0,1-1.3.72l-.09-.15c-.17-.28-.36-.58-.57-.86l-.58-.72,0,0a12,12,0,0,0-1.2-1.16c-.38-.34-.8-.67-1.2-1l-.2-.15-1-.81-.39-.34c-.51-.42-1-.78-1.46-1.11-.28-.19-.57-.37-.86-.54-.74-.43-1.52-.8-2.2-1.13l-.36-.17c-.87-.42-1.65-.83-2.39-1.25a24.83,24.83,0,0,0-2.59-1.27l-.3-.13-.08,0c-.27-.12-.55-.25-.85-.35s-.87-.32-1.36-.48l-.09,0a11.36,11.36,0,0,1-1.35-.57c-.36-.17-.77-.36-1.16-.52a.79.79,0,0,0-1.08.93c.12.55.22,1.1.29,1.66a15.54,15.54,0,0,1,.14,3.54,20.92,20.92,0,0,1-.62,3.52c-.16.63-.35,1.24-.5,1.71a18,18,0,0,1-.65,1.87,15.45,15.45,0,0,1-.75,1.53l-.27.45c-.22.38-.46.81-.68,1.24s-.31.6-.46.9l-.13.25-.32.64c-.27.52-.57,1-.89,1.51l-.87,1.31-.12.18-.61.25c-.32.14-.64.3-1,.45a3.45,3.45,0,0,0-1.14.74.76.76,0,0,0-.21.37.87.87,0,0,0,.08.65l.06.06c-.58.45-1.14.92-1.67,1.42l-.64.54a.89.89,0,0,0-.31.47.79.79,0,0,0,.12.56.77.77,0,0,0,.46.31.73.73,0,0,0,.57-.12l.21-.17-1.1,1.26-.13.15-.58.67,0,.06c-.44.51-.9,1-1.36,1.53s-.9.92-1.33,1.36-.87.87-1.3,1.32a28.57,28.57,0,0,1-2.83,2.55l-.57.46c-.77.61-1.56,1.24-2.37,1.78-.51.35-1.06.69-1.62,1s-.94.5-1.37.72l-.74.38c-.35.18-.69.36-1,.51a.85.85,0,0,0-.44.49s0,0,0,.06l-.14,0-.21-.07L96.1,65a7.63,7.63,0,0,0-1.35-.24,6.26,6.26,0,0,0-1.23.08h-.07a5.58,5.58,0,0,0-.86.32l-.5.29-.54.4,0,0a5.29,5.29,0,0,0-.52.54l-.42.56,0,0a9.65,9.65,0,0,0-.67,1.37v0a6.11,6.11,0,0,0-.18.68,4.2,4.2,0,0,0-.08.62v.15c0,.5,0,1,0,1.54a9.75,9.75,0,0,0,.21,1.52l0,.15c.12.57.24,1.12.39,1.68.09.33.21.67.35,1s.24.54.36.8l0,.06a16.08,16.08,0,0,0,1.27,1.79l0,0a14.12,14.12,0,0,0,1.1,1.09,13.16,13.16,0,0,0,1.28,1,8.14,8.14,0,0,0,1.33.64l.06,0a9,9,0,0,0,1.77.35H98.9c.19,0,.39,0,.59,0l.08,0a.35.35,0,0,1,.14,0,.22.22,0,0,1,.16.09.14.14,0,0,1,0,.06.78.78,0,0,0,.2.38,3.87,3.87,0,0,1,0,.59,1.23,1.23,0,0,0-.46.73v0c-.12.77-.19,1.55-.26,2.33-.1.21-.19.42-.31.62A6.66,6.66,0,0,1,97.53,88.16Zm-27,41.18c.72-.34,1.43-.7,2.12-1.11,1.22-.74,2.46-1.46,3.66-2.22.6-.38,1.15-.82,1.72-1.23l1.68-1.19c.59-.42,1.16-.87,1.72-1.33S82.5,121.42,83,121a21.42,21.42,0,0,0,1.85-1.58c.52-.49,1-1,1.49-1.53s1-.91,1.4-1.39,1-1.12,1.46-1.71.84-1.12,1.25-1.68.84-1.12,1.25-1.69a34,34,0,0,0,2.3-3.85c.33-.59.63-1.2,1-1.78s.76-1.3,1.13-2,.68-1.24,1-1.88.5-1.23.74-1.85c.5-1.32,1.1-2.59,1.58-3.9s1.07-2.89,1.49-4.37a33.23,33.23,0,0,0,1-7c0-.37.08-.74.13-1.11a1.21,1.21,0,0,0-.35-1.09,8,8,0,0,0,0-.85,1.35,1.35,0,0,0-.3-.79,1.79,1.79,0,0,0-.2-.39,1.83,1.83,0,0,0-1.48-.78h-.15l-.35.07-.39,0h-.17c-.25,0-.49,0-.74,0a8.44,8.44,0,0,1-1.4-.27,7.13,7.13,0,0,1-1-.49,10.93,10.93,0,0,1-1.1-.83c-.33-.3-.66-.62-1-1a13.84,13.84,0,0,1-1.11-1.56c-.11-.23-.21-.44-.29-.64s-.22-.63-.3-.91c-.14-.51-.25-1-.36-1.58l0-.15a9,9,0,0,1-.18-1.27c0-.48,0-.93,0-1.37v-.1c0-.14,0-.29,0-.43s.09-.35.14-.51a6.5,6.5,0,0,1,.52-1.06c.11-.16.23-.31.35-.46a2.5,2.5,0,0,1,.32-.33,4.35,4.35,0,0,1,.43-.32l.32-.18a3,3,0,0,1,.5-.19,4.14,4.14,0,0,1,.7-.06h.13a5.73,5.73,0,0,1,1,.18l.24.07.24.08.72.19.26,0a1.28,1.28,0,0,0,1.24-1v0l.6-.3.72-.37c.44-.22.94-.47,1.43-.75s1.19-.7,1.73-1.07c.86-.58,1.68-1.23,2.47-1.86l.57-.45a31.82,31.82,0,0,0,3-2.7c.42-.44.85-.87,1.28-1.31s.9-.91,1.34-1.37,1-1.07,1.44-1.6l0-.06.57-.66.14-.15c.68-.79,1.4-1.6,2.06-2.42s1.27-1.7,1.8-2.47l.06-.09.09-.13h0c.44-.15.88-.27,1.32-.4s.91-.28,1.35-.45a5.27,5.27,0,0,1,1.08-.36,11,11,0,0,0,1.62-.28c.46-.12.89-.29,1.36-.38l1-.1c.23,0,.46,0,.7-.06l.71-.1c.72-.09,1.45-.11,2.17-.13l1.1,0c.36,0,.75,0,1.13,0a2.74,2.74,0,0,0,.7,0,1,1,0,0,0,.66-.46,1,1,0,0,0-.15-1.16,2.13,2.13,0,0,0-.83-.4l-.57-.13a15.31,15.31,0,0,0-2.62-.26h-.2c-.34,0-.68,0-1,0h0l-1.15,0-1.19,0-.11,0a.86.86,0,0,0-.35-.09h-.08a8.38,8.38,0,0,0-1.31.24l-.2.07a14.82,14.82,0,0,0-1.61.33c-.35.1-.69.19-1,.3l-.11,0c.28-.44.56-.89.8-1.35l.32-.65.13-.26.45-.89c.2-.39.44-.8.65-1.16l.27-.46a15.7,15.7,0,0,0,.83-1.7c.27-.66.51-1.33.72-2,.15-.48.34-1.12.52-1.77a24.44,24.44,0,0,0,.66-3.79,18.17,18.17,0,0,0-.15-3.9l0-.28a13,13,0,0,0,1.22.5l.12,0,1.32.47.75.31.08,0,.33.14a25.81,25.81,0,0,1,2.42,1.19c.77.43,1.59.86,2.49,1.3l.36.17c.66.31,1.4.67,2.09,1.07l.78.48c.42.29.85.62,1.31,1l.39.33,1,.84.2.16c.4.32.79.63,1.16.95a11,11,0,0,1,1,1l.53.66c.16.22.32.47.48.73l.24.38-.6.1a7.2,7.2,0,0,0-2.45,1.13c-.36.25-.74.51-1.08.8a5.36,5.36,0,0,0-.86.92,2.7,2.7,0,0,0-.37.74,1.72,1.72,0,0,0-.11,1.12,1.07,1.07,0,0,0,.2.36.65.65,0,0,0,0,.39.75.75,0,0,0,.35.45.74.74,0,0,0,.58.07.71.71,0,0,0,.45-.34l.2-.42a1.49,1.49,0,0,0,.3-.18,5,5,0,0,0,.53-.49c.16-.15.3-.31.46-.46s.34-.32.52-.47l.39-.26c.39,0,.77-.12,1.16-.18a12.46,12.46,0,0,1,1.37-.13c.48,0,1,0,1.44,0l.44.05.45.8c.19.39.35.75.49,1.09s.26.71.38,1.06l0,.05,0,.16a25.67,25.67,0,0,1,.73,2.6c.34,1.75.63,3.52.86,5.26l-.07-.07a2.2,2.2,0,0,0-.51-.4,4.14,4.14,0,0,0-.9-.43l-.22-.07.06-.35c0-.26.07-.53.11-.79a.39.39,0,0,0-.07-.23.49.49,0,0,0-.27-.22h-.12a.46.46,0,0,0-.46.34h0c-.05.22-.07.44-.11.66s0,.2,0,.3l-.07,0a4.92,4.92,0,0,0-1.21-.12h-.21V50c0-.18,0-.35,0-.52v0a.33.33,0,0,0-.23-.41h-.09a.35.35,0,0,0-.17,0h0a.43.43,0,0,0-.15.2,2.24,2.24,0,0,0-.1.68v.79h-.19a10.57,10.57,0,0,0-1.25.23,4.85,4.85,0,0,0-1,.35,3.25,3.25,0,0,0-.68.43,6.14,6.14,0,0,0-.51.51,17.26,17.26,0,0,0-1.35,1.83,9.35,9.35,0,0,0-.52.86,1.59,1.59,0,0,0-.2,1.24,2,2,0,0,0,.89.93,7.69,7.69,0,0,0,.91.45c.28.12.55.26.84.37a4.93,4.93,0,0,0,1.2.25,6.32,6.32,0,0,0,1.23,0c.42,0,.84-.12,1.26-.2a4.8,4.8,0,0,0,1-.29,7.76,7.76,0,0,0,1-.56l.91-.6c.29-.18.57-.34.85-.54a6.31,6.31,0,0,0,.79-.68c.06.79.12,1.65.17,2.69,0,.4,0,.8,0,1.2v.29c0,.5,0,1,0,1.51v.6q0,.51,0,1c0,.35,0,.71-.05,1.07v.17c-.06.89-.13,1.85-.24,2.79s-.24,2-.36,2.92a26.23,26.23,0,0,1-.54,2.78c-.19.78-.45,1.84-.74,2.83l0,.1-.11.37c-.18.6-.35,1.2-.52,1.79l-.12.43c-.17.59-.33,1.18-.51,1.76s-.51,1.26-.8,1.87-.6,1.13-.92,1.67l-.14.24c-.29.51-.61,1-.91,1.5l-.22.34-.43.7-.08.14-.6,1c-.31.44-.64.87-1,1.33s-.61.69-.91,1l-.32.34c-.24.25-.47.51-.7.77l-.12.13-.33.36c-.22.25-.45.49-.67.73a6.29,6.29,0,0,1-.47.43l-.13.12c-.43.37-.89.72-1.34,1.06l-.17.13-.39.3-.07.06c-.65.5-1.31,1-2,1.48-.36.24-.74.46-1.1.67l0,0c-.4.23-.77.44-1.13.68-.19.12-.37.25-.55.38l-.5.33a8.38,8.38,0,0,1-.91.54l-.91.4a13.77,13.77,0,0,0-1.65.77,23.65,23.65,0,0,0-2.34,1.48,7.76,7.76,0,0,0-2.1,2.21,12.66,12.66,0,0,0-1.12,2.35,21.6,21.6,0,0,0-1,4.28c-.16,1.19-.21,2.4-.26,3.58v.33l0,.65c0,.28-.05.57-.08.85a14.1,14.1,0,0,0-.12,2.05,1.34,1.34,0,0,0,1.34,1.24h.08a1.31,1.31,0,0,0,.64-.24c.33.14.65.31,1,.45s.63.26,1,.37a7.17,7.17,0,0,0,.89.21,26.51,26.51,0,0,1,2.94.79,15.68,15.68,0,0,0,2.42.73c.38.08.78.13,1.16.2a7.88,7.88,0,0,1,1.06.28,17.18,17.18,0,0,0,2,.66c.33.07.67.11,1,.18a5.93,5.93,0,0,1,.83.21c.61.23,1.21.49,1.84.69l.56.2-.07,0,.17.06.08,0a11.08,11.08,0,0,0,1.16.34c.37.09.75.15,1.12.26l.81.32c.26.11.52.19.78.28a6.44,6.44,0,0,1,.7.34c.21.11.44.21.65.33s.38.19.57.27a2.94,2.94,0,0,1,.44.2l.08,0a.92.92,0,0,0,.52.08c-.16.18-.31.36-.47.53l-.48.55-.41.47c-.66.77-1.35,1.56-2.09,2.28-.63.53-1.3,1-2,1.51l-.63.46c-.49.37-1,.76-1.45,1.14s-.88.72-1.33,1.06c-.7.53-1.46,1-2.2,1.46l-.85.53-.54.35-1,.6a14.69,14.69,0,0,1-1.35.73l0,0c-1,.48-1.93,1-2.85,1.46-.32.17-.64.36-1,.55l-.35.2c-.35.21-.7.39-1,.55l-2.82,1.28-1.15.51a41.68,41.68,0,0,1-4.25,1.6c-1.07.35-2.18.63-3.26.9l-1.08.28-.9.24c-1.07.28-2.17.57-3.27.8-.84.15-1.58.27-2.27.37-.86.13-1.71.2-2.42.26s-1.57.08-2.39.08-1.63,0-2.47-.08c-1.48-.12-3-.34-4.76-.64l-.93-.16-1.69-.3a19.35,19.35,0,0,1-2.37-.66l-.1,0c-1-.35-2-.7-3-1.11a31.36,31.36,0,0,1-3.45-1.8l-1-.58c-.76-.43-1.54-.87-2.28-1.34s-1.36-.85-2-1.25l-1-.63a17.2,17.2,0,0,1-1.52-1.31c-.29-.28-.55-.58-.82-.88s-.42-.47-.64-.7a20.48,20.48,0,0,0-1.55-1.39A15.74,15.74,0,0,1,71.18,132a16.57,16.57,0,0,1-1.51-2.27Zm76.33-74.69a1.73,1.73,0,0,0-.47-.69,1.24,1.24,0,0,0-.62-.3,1.21,1.21,0,0,0-.49-.11,1.16,1.16,0,0,0-.65.2h0a1.51,1.51,0,0,0-.59.75,1.74,1.74,0,0,0-.11.81,1.19,1.19,0,0,0,.11.41,2,2,0,0,0,.38.57,1.52,1.52,0,0,0,.55.35,9.86,9.86,0,0,1-1.44.1,6.41,6.41,0,0,1-1.3-.21l-.74-.35c-.24-.12-.51-.22-.75-.36l.11-.18c.18-.29.36-.58.55-.86l.12-.18h0l.1-.15-.08.13a9.23,9.23,0,0,1,1.16-1.48l.3-.2a7.78,7.78,0,0,1,1.42-.44,9.13,9.13,0,0,1,1.81-.11h0a7.55,7.55,0,0,1,.95.17c.29.07.59.14.87.23a3.82,3.82,0,0,1,.46.21,4.52,4.52,0,0,1,.61.55,2.32,2.32,0,0,1,.22.3l0,.1,0,.1a3.49,3.49,0,0,1-.19.39,2.17,2.17,0,0,1-.32.36,8,8,0,0,1-1.23.78l-.8.46a1.38,1.38,0,0,0,.19-.56A1.68,1.68,0,0,0,146.86,54.65Zm-115.28,162c-3.11-.8-6.27-1.41-9.4-2.12-1.22-.27-7.42-1.26-6.85-2.57l.31-.7c.24-.55.5-1.12.73-1.73a.19.19,0,0,0,0-.07c.29-.83.55-1.69.77-2.45l.22-.71.06-.2,0-.16c.34-1.11.69-2.26,1.05-3.35.06-.2.13-.4.19-.59.15-.46.3-1,.47-1.37.25-.62.53-1.24.79-1.81s.44-1,.67-1.57a1.17,1.17,0,0,0,.05-.11c.23-.58.43-1.13.6-1.6a.69.69,0,0,0,.05-.13l0-.09s0,0,0,0c.33-1,.61-1.85.84-2.63l.06-.16,0-.07c.07-.26.15-.51.21-.75.27-1,.53-1.8.81-2.55v0a.14.14,0,0,0,0-.06v0a2.34,2.34,0,0,0,.09-.24.76.76,0,0,0,0-.11c.09-.23.17-.45.26-.66.23-.55.46-1.12.7-1.65l.22-.46.46-1a2.38,2.38,0,0,0,1.06.79,2.44,2.44,0,0,0,.84.15,2.38,2.38,0,0,0,2.24-1.54l.21-.55,0-.1a2.41,2.41,0,0,0-1.38-3.08,2.57,2.57,0,0,0-.86-.16,2.44,2.44,0,0,0-.48,0l.19-.57a20.36,20.36,0,0,1,1.24-3.11l.11-.2c.21-.38.42-.76.62-1.14l0,0,.06-.11.17-.33c.35-.67.64-1.33.91-1.94.16-.36.33-.72.49-1.07a1.12,1.12,0,0,0,.05-.13l.31-.68.3-.67.41-.91L32,169c.35-.78.67-1.54.91-2.11l0-.08,0-.1a.49.49,0,0,1,0-.11l.05-.13,0-.11c.2-.49.41-1,.62-1.47a31.52,31.52,0,0,1,1.82-3.57l.29-.49c.26-.43.56-.93.84-1.47s.71-1.39,1-2.17a34,34,0,0,1,1.78-3.7c.66-1.16,1.38-2.4,2.15-3.57l.59-.91.12-.18.11-.18c.13-.21.27-.41.41-.63.44-.68.94-1.39,1.38-2A23.6,23.6,0,0,1,46.9,143l.9-.91c.22-.24.45-.47.68-.7.59-.59,1.23-1.16,1.84-1.69a35.09,35.09,0,0,1,3.25-2.46l.63-.43c.37-.27.71-.5,1-.7.72-.45,1.38-.86,2-1.28l.58-.39,0,0c.38-.25.73-.49,1.08-.69s1-.56,1.53-.8l.25-.13.18-.09c.59-.3,1.2-.6,1.81-.93l.34-.18c.52-.29,1.06-.58,1.6-.83a13.37,13.37,0,0,1,1.6-.59,5.62,5.62,0,0,1,.57-.16,1.32,1.32,0,0,0,.3-.09,6.1,6.1,0,0,0,.33.84,1.24,1.24,0,0,0,.1.2,18.41,18.41,0,0,0,1.74,2.6l.14.16a20.19,20.19,0,0,0,1.6,1.47,17.27,17.27,0,0,1,1.37,1.22c.18.19.37.39.57.62l0,0c.26.3.57.64.9,1a18,18,0,0,0,1.76,1.51,1.18,1.18,0,0,0,.18.13l1.05.63c.62.37,1.32.8,2,1.22s1.57,1,2.34,1.38l0,0,1,.56A31.42,31.42,0,0,0,86,145.39c1,.42,2,.78,3,1.13l.1,0,.09,0h0a20.57,20.57,0,0,0,2.66.74c.59.12,1.18.22,1.74.31h0l.9.15c1.79.32,3.42.54,5,.68h.06c.88.05,1.76.08,2.62.08s1.73,0,2.56-.09,1.65-.13,2.61-.27l2.34-.39h.06c1.17-.25,2.35-.56,3.39-.83l.89-.24.61-.15.46-.12c1.11-.28,2.27-.57,3.43-1a43.45,43.45,0,0,0,4.49-1.69l1.14-.52L127,142l.1-.05c.34-.17.75-.38,1.14-.62l.35-.2.07,0,.82-.47c.93-.5,1.82-1,2.75-1.4l.16-.08a14.21,14.21,0,0,0,1.38-.76c.33-.2.65-.41,1-.62l.53-.34.7-.43.13-.09,0,0c.77-.48,1.56-1,2.34-1.56.48-.36.93-.73,1.4-1.1s.91-.75,1.37-1.09l.62-.45c.64-.48,1.38-1,2.08-1.61l.13-.11c.81-.79,1.53-1.63,2.23-2.43l.4-.46c.15-.18.31-.35.47-.53s.56-.63.85-1l.26-.33a2.42,2.42,0,0,0,.93.37l.32.23.15.11.18.13a18.46,18.46,0,0,0,2.43,1.23l.76.33,1.4.61c.62.28,1.23.51,1.85.74l.62.23.41.16c.47.18,1,.37,1.4.58s1.07.56,1.77,1l.54.3,1.17.68c1.31.8,2.52,1.51,3.73,2.17l.62.34.11.06c.33.18.65.37,1,.55l.43.23c.44.23.9.47,1.32.72a19.31,19.31,0,0,1,1.8,1.19l.43.32.11.08c.33.25.68.51,1,.76l.09.06c.82.53,1.71,1.06,2.82,1.67.91.5,1.8,1,2.72,1.61l.35.21.11.08c.8.5,1.62,1,2.39,1.53s1.72,1.18,2.49,1.72l.3.22.06,0,.71.48.29.19c.8.54,1.72,1.15,2.57,1.78a13.47,13.47,0,0,1,1.1,1l.31.28c.43.4,1,.95,1.63,1.45l1.28,1c.61.47,1.24,1,1.78,1.46s1.1,1.06,1.58,1.55.82.82,1.25,1.23c2.51,2.42,4.91,5,7.2,7.58q1.68,1.92,3.27,3.89c.78.95,3,4.09,2.83,5.35a2,2,0,0,1-1,1.27c-1.44.93-5.36,3.23-6,.82a22.62,22.62,0,0,0-8.85-12.67c-11.48-8-25.33-3-35.12,5.1a69.26,69.26,0,0,0-13.3,15.4,104.22,104.22,0,0,0-8.52,15.81c-.38.9-.66,2.46-1.55,2.92s-3.39.18-4.57.33a88.24,88.24,0,0,0-9.22,1.92,85.84,85.84,0,0,0-8.59,2.61c-2.42.87-5.71,1.65-7.5,3.6a3.57,3.57,0,0,0-.38.49l-.06.08a3.48,3.48,0,0,0-.43.75,4.44,4.44,0,0,0-.19.62,2.61,2.61,0,0,0-.05.48v.14a1.88,1.88,0,0,0,.87,1.77,4.19,4.19,0,0,0,1,.3,4.88,4.88,0,0,0,.75.12c.41,0,.86.05,1.36.05a9.54,9.54,0,0,0-1.16.44l-.15.07a12.35,12.35,0,0,0-1.53.8,5.55,5.55,0,0,0-.75.61,1.87,1.87,0,0,0-.26.3,1.81,1.81,0,0,0-.44,1.2,1.79,1.79,0,0,0,.35.9,2.76,2.76,0,0,0,.8.68l.14.07.44.15h0l.22,0,.51.07c.63.08,1.26.12,1.88.14h.27a11.09,11.09,0,0,0-1.51.37,4.77,4.77,0,0,0-.83.37,1.8,1.8,0,0,0-1,1.61,3.12,3.12,0,0,0,1.23,2,4.21,4.21,0,0,0,.85.54,3.93,3.93,0,0,0,.8.26l.49.1a15.24,15.24,0,0,0,1.92.21c.41,0,.83,0,1.3,0s1.13,0,1.86,0,1.26-.09,1.75-.13l-.57.34a1,1,0,0,0-.17.1c-.4.18-.78.34-1.15.48a14.59,14.59,0,0,1-2.25.68l-1.1.15a1.41,1.41,0,0,0-1,.47,1.33,1.33,0,0,0-.22.34l-1.16.06-.39-.3a3.88,3.88,0,0,0-1-.5,4,4,0,0,0-.84-.15l-.19,0-1.61-.21c.22-.08.43-.17.64-.27a3.42,3.42,0,0,0,.86-.65,2.22,2.22,0,0,0,.25-.35l.07-.1a1.7,1.7,0,0,0,.25-.9,2,2,0,0,0-.42-1.07,2.66,2.66,0,0,0-1.17-1,11.69,11.69,0,0,0-2.1-.59,3.3,3.3,0,0,0,1.11-1.12,1.59,1.59,0,0,0,.11-1.45,2.75,2.75,0,0,0-1.19-1.29,6.25,6.25,0,0,0-.94-.45,7.28,7.28,0,0,0-1.3-.41A9.42,9.42,0,0,0,99,218a14.7,14.7,0,0,0,1.88-1,9.38,9.38,0,0,0,1.6-1.35,3.28,3.28,0,0,0,1.12-2.06,2.13,2.13,0,0,0-1.47-1.93,9,9,0,0,0-1.9-.57,12.63,12.63,0,0,0-1.63-.1h-1l-1,0-1.21,0c-4.19,0-8.76,1.71-12.72,3a74.15,74.15,0,0,0-16.62,7.34l-.38.25-.7.47c-.3.21-.58.39-.86.56l-.36.24-.28.16-.07.05-1.89,1.14-.24.15,0,0-.8.5c-.34.21-.66.43-1,.68l-.37.28c-.37.28-.78.62-1.34,1.08l0,0c-.41-.31-.8-.63-1.19-1l-.07,0,0,0-.08-.07-.82-.67c-.35-.28-.72-.54-1.1-.8a19.2,19.2,0,0,0-2.65-1.5c-.51-.23-1-.44-1.55-.63s-1-.36-1.45-.52l-1.28-.43-.1,0c-.65-.21-1.37-.43-2.1-.64-.58-.16-1.16-.31-1.75-.43l-1.29-.26a23.92,23.92,0,0,0-4.47-1.85C35.71,217.67,33.65,217.17,31.58,216.64Zm171-24.89a.4.4,0,0,1-.05.24.4.4,0,0,1-.32.43q-7.08,1.68-14.26,2.83-6.36,1-12.77,1.64c-2.14.21-4.28.38-6.39.78a43.15,43.15,0,0,0-6,1.7,54.63,54.63,0,0,1-12,2.82,47.79,47.79,0,0,1-12.3-.34c-.37-.06-.39-.51-.19-.74h0c.55-.65,1.09-1.31,1.63-2a74.43,74.43,0,0,0,5.82-8.48c.86-1.45,1.66-2.94,2.42-4.44a38,38,0,0,1,2.37-4.22,15.78,15.78,0,0,1,3.25-3.43c1.26-1,2.61-1.87,3.87-2.86,2.57-2,4.44-4.7,6.67-7a20.08,20.08,0,0,1,7.82-5.1,24.8,24.8,0,0,1,9.81-1.33,31.32,31.32,0,0,1,10.16,2.18,7.44,7.44,0,0,1,3.54,2.82,24.58,24.58,0,0,1,2.1,4.5A70.11,70.11,0,0,1,202.56,191.75Zm-93.91,44.89h0l.23.11a3.44,3.44,0,0,0,1.1.24c.34,0,.62,0,.87,0h.09a8.28,8.28,0,0,0,1.57-.16,24.24,24.24,0,0,0,2.49-.7l.42-.14a30.51,30.51,0,0,0,2.9-1.06l.86-.41.12-.06.07,0,.12-.06.32-.16.25-.12.3-.15.17-.08.08,0,.09,0,0,0,0,0h0l0,0,.07,0,0,0a1.32,1.32,0,0,0-.16.25,17.25,17.25,0,0,0-.71,1.66l0,.09-.07.16q-.3.78-.57,1.56l-.07.18v0c-.23.65-.51,1.4-.79,2.11-.41,1-.92,2.13-1.3,2.93l0,.06-.46,1c-.17.38-.37.76-.55,1.09l0,.06c-.13.24-.26.48-.38.72l-1,2-.35.73-.07.14c-.3.6-.59,1.21-.87,1.82-.48,1.05-.88,2.11-1.2,3a25.19,25.19,0,0,1-2.17,4.5l0,.05,0,0h0l0,.06-.38.61-.25.38h0c-.62.9-1.24,1.9-1.84,3s-1,1.86-1.55,2.64a37.18,37.18,0,0,1-2.58,3.17c-.28.31-.6.6-.88.86l-.18.17-.33.31-.39.38-.11.11-.07.07-.58.58a9.76,9.76,0,0,1-1.29.83,4.76,4.76,0,0,1-.71.28l-.11,0a3.78,3.78,0,0,0-.87.2c-.52-.77-1-1.49-1.47-2.19l-.31-.47-.19-.29-.1-.15c-.18-.27-.35-.54-.53-.8l-.22-.34,0,0,0,0-.06-.09-.37-.56-.4-.57c-.53-.73-1-1.27-1.35-1.75s-.87-1-1.28-1.42l0,0-.2-.21-1-1a17.63,17.63,0,0,1-1.18-1.47l-.57-.79-.14-.21-.49-.69c-.7-1-1.49-2-2.58-3.2l-.17-.2,0-.06c-.8-.91-1.64-1.89-2.42-2.84-.29-.37-.59-.73-.88-1.09l-.11-.14c-.54-.67-1.09-1.35-1.64-2-.9-1.08-1.9-2.12-2.77-3l0-.06-.09-.08-.31-.34.08-.06,0,0,0,0c.45-.34.91-.7,1.37-1l.73-.53,0,0a28.52,28.52,0,0,1,3.45-2.27c.42-.2.87-.37,1.29-.54l.63-.26c.91-.38,1.6-.69,2.24-1s1.43-.67,2.09-.95c.44-.18.89-.34,1.31-.5l1-.35.17-.07c.5-.2,1-.4,1.47-.61l.13-.05c.78-.32,1.65-.7,2.53-1s1.53-.5,2.17-.68,1.54-.45,2.3-.73l.58-.21c.5-.19,1-.37,1.52-.54s1.07-.32,1.6-.45l.28-.07a16.65,16.65,0,0,0,2.07-.67,9.32,9.32,0,0,0,1.88-.91,3.47,3.47,0,0,0,.42-.34c.46,0,.78,0,1.09-.06a11.39,11.39,0,0,0,1.65-.29l.52-.14c-.25.15-.5.29-.74.41l-.09,0a12.75,12.75,0,0,0-1.7,1,3.84,3.84,0,0,0-1.26,1.51,2.94,2.94,0,0,0-.23,1.28A1.87,1.87,0,0,0,108.65,236.64ZM76,242.23l-.06.05,0,0-.08.06-.73.61-.2.17c-.76-.87-1.47-1.74-2-2.4A36.25,36.25,0,0,0,70.4,238c-.5-.52-1.08-1-1.54-1.4l-.06,0,0,0-.78-.68-.22-.2c-.34-.31-.66-.6-1-.9l-.9-1-.38-.46-.05-.06,0,0c-.37-.45-.76-.91-1.16-1.35a17,17,0,0,0-1.83-1.67c-.19-.16-.38-.3-.58-.45l.82-.58h0L64.54,228l1.62-1c.63-.39,1.24-.82,1.76-1.2s.92-.62,1.38-.91l.51-.32c.64-.41,1.3-.82,2-1.25l1.45-.9c.78-.5,1.59-1,2.4-1.46.57-.32,1.15-.61,1.71-.89l.22-.11c1.29-.63,2.47-1.15,3.61-1.59.5-.2,1-.38,1.5-.56l.62-.23c.61-.22,1.21-.46,1.82-.7l.63-.25c1.42-.55,2.84-1,4.32-1.48s2.87-.8,4.14-1.06c1-.17,2-.25,3.05-.33l.38,0c.64,0,1.3-.1,1.94-.1h.48a6.77,6.77,0,0,1,1.09.21c-.14.15-.3.3-.51.49a8.62,8.62,0,0,1-1.55,1A22.17,22.17,0,0,1,95,216.67c-.79.2-1.6.4-2.38.63l-1.07.34-.92.28-1.12.32a2,2,0,0,0-1.41.95,1.63,1.63,0,0,0,.11,1.65,2,2,0,0,0,1.19.77,4.78,4.78,0,0,0,1.24.19h.45a6.22,6.22,0,0,0,.86-.06c.41,0,.83-.1,1.31-.18.84-.14,1.69-.33,2.48-.5a18.53,18.53,0,0,1,3.07-.26l1,0a10.6,10.6,0,0,1,1.68.32l0,0a4.61,4.61,0,0,1-.75.21l-.1,0-.41.08-.63.11c-.64.12-1.29.21-1.92.3l-1.2.18c-.84.13-1.68.31-2.5.48l-.91.19-.63.05-.49.05a1.77,1.77,0,0,0-1.31.5,1.31,1.31,0,0,0-.11,1.59,1.27,1.27,0,0,0,.82.55.68.68,0,0,0,.28,0,2.56,2.56,0,0,0,.39,0h.08c.34,0,.67-.09,1-.15.51-.08,1-.19,1.51-.3l.34-.07a27.78,27.78,0,0,1,4.82-.43l.94,0c.5,0,1,.1,1.54.18l.39.05a9.45,9.45,0,0,1,1.41.25,2.36,2.36,0,0,1,.28.12l.12.12a2.33,2.33,0,0,1,.17.26,1.15,1.15,0,0,1-.14.17,2.26,2.26,0,0,1-.26.16,9.92,9.92,0,0,1-1.94.52c-.41.07-.81.13-1.22.18l-.84.12a19.3,19.3,0,0,0-2.25.52c-.5.15-1,.29-1.7.45h-.14c-.5,0-.92,0-1.3,0a3.19,3.19,0,0,0-1.06.18,2.49,2.49,0,0,0-.51.27c-.11.09-.22.18-.32.28a1.17,1.17,0,0,0-.29.52v0a1,1,0,0,0,.33,1,1.23,1.23,0,0,0,.8.27,3.62,3.62,0,0,0,.92-.16l.1,0c.38,0,.77,0,1.15,0h2.17c.44,0,.88,0,1.31-.07l.6,0c.73,0,1.6-.09,2.49-.09l1,0,.76,0,.69,0,.76,0-.44.08-.09,0c-.54.1-1.13.18-1.89.27l-.51.06c-.5,0-1,.1-1.51.2-1.68.3-3.4.7-4.87,1.05A26.32,26.32,0,0,0,92,233.12l-.75.33c-.44.2-.87.39-1.31.57l-.76.3c-.52.2-1,.42-1.56.65-.8.37-1.58.79-2.33,1.2l-1.36.73-.86.4c-.74.34-1.5.7-2.23,1.11a17.38,17.38,0,0,0-2.88,2.17l-.58.5L76,242.27ZM148.06,360h0c-.59-1.18-1.07-2.16-1.51-3.11l-.27-.57c-.19-.43-.39-.85-.59-1.27s-.57-1.13-.82-1.58l-.16-.29c-.63-1.14-1.35-2.3-1.93-3.23l0,0a5.41,5.41,0,0,0-.35-.5l0,0-.16-.23c-.26-.35-.45-.59-.64-.81s-.13-.16-.2-.23a1.39,1.39,0,0,0-.42-1.31,8.41,8.41,0,0,0-1.18-.88l-.23-.14c-.29-.19-.51-.35-.71-.5s-.43-.35-.65-.54l-.27-.24-.7-.61-.09-.08-1.13-1a35.75,35.75,0,0,0-3.65-2.57l-.07,0-.67-.43c-.43-.3-.94-.66-1.41-1s-1-.8-1.55-1.21l-.32-.26-.18-.14c-.3-.25-.63-.52-1-.77s-.84-.6-1.25-.88l-.12-.08-.11-.08-.09-.06-.17-.11,0,0c-.51-.35-1-.66-1.43-1l-1-.8-.09-.07-.36-.28c-1-.73-1.94-1.46-3-2.21l-.94-.64-.33-.23-.21-.14-.2-.14-.77-.53c-.54-.37-1-.78-1.58-1.19l-.74-.58c-.42-.32-.9-.65-1.45-1l-.44-.27-.09,0-.7-.44-.92-.59-.19-.12-.15-.1-1-.63c-.6-.42-1.22-.89-1.91-1.44l-.39-.33-.07-.05c-.48-.39-1-.84-1.57-1.24s-.9-.6-1.25-.8l-.47-.29-.74-.45-.11-.06,0,0c-.55-.32-1.37-.8-2.11-1.26-.31-.21-.62-.44-.92-.66s-.56-.45-.79-.65l0,0-.21-.18c-.65-.56-1.32-1.14-2-1.64s-1.66-1.14-2.53-1.69l-.3-.19L94.1,313l0,0-.12-.08-1.62-1c-.61-.43-1.22-.89-1.75-1.29l-.12-.09-.16-.12-.16-.12-.13-.1-.57-.43-.94-.7-.07-.06-.1-.08c-.54-.4-1.28-1-2-1.46l-1.52-1.07-.28-.2-.15-.11-1.14-.81-.18-.13-.18-.12.22-.18.4-.38c.8-.7,1.68-1.4,2.39-2l.25-.2c1.14-.91,2.21-1.86,3-2.6s1.66-1.6,2.45-2.39l.07-.07,0,0,.07-.06c.41-.42.83-.88,1.16-1.25l0-.05.06-.06c.41-.45.82-.9,1.25-1.32l.53-.53.68-.68c.37-.38.75-.78,1.16-1.23s.9-1.08,1.28-1.58l0-.05c.3-.39.56-.74.84-1.08a32.77,32.77,0,0,1,2.33-2.53l.24-.23.08-.07c.31-.3.56-.55.81-.82l0-.05.14-.15.11-.13.76-.81.08-.08c.27.43.62.92,1.11,1.55l1.54,2,.15.19.22.28.64.8.09.12,0,.05c.81,1,1.64,2.08,2.42,3.19l.82,1.23.09.13.07.12,0,0,0,0,0,.06c.32.48.71,1.08,1.11,1.64.84,1.2,1.8,2.4,2.63,3.41l.42.51,0,.06,0,0c.6.73,1.35,1.64,2,2.56s1.14,1.64,1.59,2.32l0,0,.82,1.22c1.45,2.11,3.11,4.12,4.72,6.06l0,0,.18.21.6.75a6.75,6.75,0,0,1,.44.65l.16.26c.23.36.45.72.67,1.09l.08.15.3.5a30.43,30.43,0,0,0,2.38,3.47l.4.5.08.09.07.09.07.1.69.86c.38.5.74,1,1.11,1.5l.15.2.34.47,0,.07c.55.74,1.23,1.67,1.86,2.61.39.59.77,1.2,1.12,1.78s.6,1,.92,1.46l0,.06,0,0c.63,1,1.35,2.08,2.11,3.1l.8,1.06.09.12c.33.44.67.88,1,1.32.63.87,1.21,1.7,1.75,2.56l.66,1c.1.18.21.36.32.54l0,.06,0,.06,0,0,0,.05.3.5A22.53,22.53,0,0,0,145,342l.12.15.13.15.05.07.38.45a3.06,3.06,0,0,0,.36.36v.05a10.69,10.69,0,0,0,.42,1.36,3.05,3.05,0,0,0,.13.32v0l.06.15c.12.29.23.57.33.86a22.18,22.18,0,0,1,.71,2.66c.26,1.33.53,2.73.67,4.12l.16,1.62,0,.1.05.55c.08.74.15,1.48.22,2.22,0,.4.09.8.13,1.2s.07.6.1.9l.08.79v.16c0,.43.08.84.13,1.26l0,.23c0,.24,0,.46.08.67C148.94,361.64,148.51,360.84,148.06,360Zm-20-46.63a7.23,7.23,0,0,0,1.42-.56l.22-.1.06,0h.06a13.19,13.19,0,0,0,1.6-.56l1-.47.1,0,.06,0,.41-.19.74-.34.08,0,.13-.06.49-.22A33.52,33.52,0,0,0,137.6,309a19.56,19.56,0,0,0,2.49-1.75l.74-.59.18-.14.15-.13.15-.12a14.19,14.19,0,0,0,1.27-1.18l.46-.46.36-.36,0,.09c-.16,1.34-.37,3-.64,4.62-.07.43-.16.85-.24,1.27l-.1.48c-.06.28-.11.55-.16.84l0,.15,0,.16c0,.17-.06.35-.1.52-.14.72-.28,1.45-.41,2.17l0,.14-.27,1.4c-.33,1.7-.6,3.48-.82,4.91-.12.8-.24,1.58-.36,2.35-.22,1.32-.36,2.68-.5,4v.1c-.07.68-.17,1.58-.28,2.47-.16-.22-.3-.43-.45-.66-.74-1.11-1.45-2.22-2.08-3.23l0,0,0,0c-.65-1.05-1.31-2.12-2.05-3.15l-.38-.52-.19-.26-.16-.23,0,0c-.42-.59-1-1.4-1.56-2.14l-.59-.75-.1-.13-.09-.11-.15-.2-.38-.48c-.45-.57-.88-1.18-1.25-1.71-.59-.85-1.14-1.8-1.54-2.5Zm44-37h0c-.51,1.24-1,2.42-1.35,3.51-.27.76-.53,1.56-.76,2.27l0,0,0,.08c-.14.41-.27.83-.41,1.25l-.07.18c-.18.52-.4,1.12-.63,1.67s-.61,1.39-.9,2c-.18.39-.37.77-.56,1.16l-.11.22,0,0c-.39.79-.88,1.78-1.29,2.73s-.78,1.84-1.12,2.72l0,0c-.15.38-.3.77-.46,1.15-.25.62-.49,1.28-.7,1.84l-.06.17,0,.1,0,.11c-.25.66-.5,1.34-.76,2s-.62,1.44-.91,2c-.2.38-.41.76-.62,1.13l-.06.11-.06.12-.2.37c-.09.15-.18.3-.26.46a30.33,30.33,0,0,0-1.84,4.46l.06,0-.09.18,0,.06c-.39,1.07-.77,2.13-1.22,3.18-.13.33-.27.65-.41,1l-.08.17-.1.24-.09.2-.09.22c-.2.47-.5,1.18-.85,1.85l-.42.83,0,.07,0,.06c-.35.68-.79,1.53-1.17,2.34a25.69,25.69,0,0,0-1,2.7l-.07.2-.2.59.13-.25a13.15,13.15,0,0,0-.47,1.33c-.09.3-.18.59-.28.88-.39,1.1-.81,2.21-1.33,3.55-.1.25-.2.5-.31.75l0,.08,0,.07,0,0c-.1.24-.21.48-.3.72s-.24.63-.35,1c0,.1-.05.2-.08.29v.05a1.8,1.8,0,0,0-.05.19,4.4,4.4,0,0,0-.18.51,2.56,2.56,0,0,0,0,1.26,3.45,3.45,0,0,0,.25.63l0,.08a8.51,8.51,0,0,0,.64,1.08c.64.95,1.27,1.94,1.85,2.86l.2.31c.35.54.7,1.14,1.13,1.89a15.15,15.15,0,0,0,1,1.45l0,0,.18.25c.37.52.77,1,1.19,1.57s.79,1,1.18,1.56c.5.72,1,1.43,1.52,2.13l0,0-.1-.09-.13-.11-.19-.17c-.25-.21-.5-.41-.79-.63l0-.05c-.17-.12-.32-.24-.47-.36a9.46,9.46,0,0,1-.74-.68l0-.05c-.24-.24-.42-.41-.61-.57a9.77,9.77,0,0,0-1.32-.88l-.5-.3-.21-.15c-.31-.22-.64-.45-1-.66s-.78-.46-1.13-.66l-.5-.27-.15-.07-.07,0c-.45-.24-.85-.46-1.24-.7a9.75,9.75,0,0,1-.89-.75l-.06-.05c-.23-.2-.44-.39-.65-.55a13.67,13.67,0,0,0-1.29-.85l-.05,0-.77-.47a8.21,8.21,0,0,1-1.07-.88l-.25-.23-.12-.12c-.3-.3-.56-.55-.83-.78l-.06-.06-.08-.07-.71-.61c-.43-.62-.92-1.28-1.52-2.08l-.09-.11-.09-.11a1.14,1.14,0,0,0,.55-.77c0-.6.1-1.19.16-1.79q.06-.57.09-1.14l0-.25c0-.18,0-.34,0-.5.12-1.37.28-2.69.49-3.91.1-.62.21-1.24.31-1.86l0-.18,0-.18c.28-1.65.57-3.36.9-5,.09-.43.18-.86.26-1.29l.07-.36.05-.23c.12-.61.24-1.21.37-1.82,0-.18.08-.36.11-.54v-.05l0-.19,0-.15c0-.25.09-.49.14-.74l.09-.45,0-.15c.08-.38.16-.76.23-1.14.36-2,.61-4,.85-5.86l.07-.56c.05-.39.11-.77.16-1.16l.11-.86,0-.14v-.1c.11-.86.23-1.77.37-2.65.11-.71.21-1.41.31-2.12l0-.29c.06-.45.12-.9.19-1.35.18-1.2.4-2.61.67-4,.09-.43.17-.85.26-1.27V289l0-.1,0-.12c.13-.68.28-1.4.4-2.1s.28-1.42.43-2.11l0-.1c.12-.55.25-1.11.35-1.66s.18-1.07.23-1.44v-.09l0-.27c.09-.67.19-1.34.29-2s.21-1.23.33-1.83l0-.1,0-.08v-.14c.1-.47.2-.94.28-1.42.18-1,.28-2.05.37-3.06,0-.31.06-.59.09-.87s.1-.87.17-1.4l.21,0h.22c.45.05.88.1,1.48.19l1.46.16.29,0c.44,0,.86.07,1.29.14.66.12,1.15.22,1.57.33l.49.12.13,0,.11,0,.08,0,.82.2c.43.1.88.18,1.26.25l.28.05c.82.17,1.64.38,2.44.63l.54.15.07,0c.83.24,1.85.53,2.83.73l.4.08.18,0,.1,0,.1,0,.77.14c.29.06.57.14.89.22l.36.1.07,0a11.1,11.1,0,0,0,1.39.3c.26,0,.53.06.8.09l.46,0h.09l.52.06C172.64,275.1,172.37,275.7,172.1,276.34Zm23.44-53.58h0a.46.46,0,0,1-.16.07l-.07,0c-.47,1.31-.94,2.62-1.42,3.93q-6.06,16.65-12.77,33c-1,2.58-2.07,5.19-3.21,7.74a16.7,16.7,0,0,1-1.84,3.2,10,10,0,0,1-.92,1l-.35.31c-.45.38-1.05.12-1.59,0l-17.75-2.88-4.51-.74a11.19,11.19,0,0,0-1.16-.18.56.56,0,0,0-.54.2,1.24,1.24,0,0,0-.1.2c-.24.63-.4,1.3-.59,1.95q-1.2,4.11-2,8.31a100.24,100.24,0,0,0-1.93,17.27,18,18,0,0,1-.31,3.8,6.53,6.53,0,0,1-1.71,3c-1.72,1.76-4.13,2.85-6.28,4-1.29.68-2.59,1.34-3.91,2l-2.07,1a6.25,6.25,0,0,1-1.62.57c-1.29.2-2.1-.7-2.95-1.51-1-1-2-1.93-3-2.91a61.7,61.7,0,0,1-5.32-6,66.44,66.44,0,0,1-4.45-7.06,37.46,37.46,0,0,0-4.66-6.46,32.58,32.58,0,0,0-5.75-4.93,6.65,6.65,0,0,0-1.18,1c-.12.12-.24.25-.35.38.35,0,.59.41.37.64a.36.36,0,0,1-.12.08,5.32,5.32,0,0,0-1.19.72c-.07.14-.14.28-.2.42a.3.3,0,0,1-.09.13.33.33,0,0,1-.38,0,12.78,12.78,0,0,0-1.4,1.7,38.3,38.3,0,0,1-2.82,3.66c-.26.28-.53.56-.8.83a73.22,73.22,0,0,1-6.14,5.27l-4,3.24c-.86.69-1.79,1.36-2.6,2.13a8.36,8.36,0,0,0-.76.81,2.59,2.59,0,0,0-.1,3.64,31.7,31.7,0,0,0,3.26,2.65c2.59,2.15,5.15,4.31,7.73,6.47a.32.32,0,0,1,.12.35,13.81,13.81,0,0,1,3.92,4,.41.41,0,0,1-.08.5.3.3,0,0,1-.16.08c-.84.19-1.69.33-2.54.45-7.3,1-14.34-1.2-21.22-3.38A105.07,105.07,0,0,1,59.36,313a46.41,46.41,0,0,1-5.15-2.77c-.51-.32-1-.66-1.51-1a35.09,35.09,0,0,1-5.54-4.86c-1-1-1.86-2.13-2.75-3.23-.56-.71-1.11-1.42-1.65-2.14-.4-.51-.79-1-1.18-1.55-.63-.83-1.25-1.66-1.89-2.48-.32-.42-.65-.83-1-1.24-.9-1.11-1.82-2.2-2.8-3.24-.54-.56-1.09-1.11-1.66-1.64s-1-.93-1.58-1.36-.81-.62-1.23-.91l-.4-.28-.57-.42c-.26-.18-.5-.37-.75-.56a10.4,10.4,0,0,1-.79-.7,9,9,0,0,1-2.19-4.09c-.33-1.15-.65-2.3-1-3.44-.17-.55-.33-1.1-.51-1.64s-.39-1.15-.59-1.73c-1-2.85-2.1-5.66-3.35-8.41a.31.31,0,0,1,0-.13v-.05a3.29,3.29,0,0,1-.48-.58,3.81,3.81,0,0,1-.29-.52c0-.09-.08-.18-.11-.27a7.35,7.35,0,0,1-.37-2.67c0-.91.1-1.83.1-2.71,0-2.42-.25-4.82-.37-7.23a25.15,25.15,0,0,1,.47-7,28.57,28.57,0,0,1,2.49-6.22c1.06-2.06,2.13-4.16,3.38-6.14a27,27,0,0,1,3.07-4.07h0a15.33,15.33,0,0,1,10.89-4.86,22.24,22.24,0,0,1,12.22,3.73c.41.26.8.53,1.19.8,1.5,1,2.91,2.17,4.31,3.32l2.56,2.12,3.15,2.6a42.62,42.62,0,0,1,5.11,4.76,58.07,58.07,0,0,1,3.85,5.26,65.28,65.28,0,0,0,3.93,5.4c1.37,1.64,2.84,3.2,4.32,4.73a87.68,87.68,0,0,1,8.44,9.52c1.19,1.67,2.16,3.46,3.22,5.22a15.12,15.12,0,0,0,3.8,4.58,14.75,14.75,0,0,0,2.12-.73c3.34-1.47,6.11-3.95,8.73-6.43,1-1,2.1-2,3.13-3a33.35,33.35,0,0,0,4.62-5.57c2.18-3.44,3.45-7.38,4.86-11.17l4.53-12.2c.2-.53.38-1.06.58-1.59a3.37,3.37,0,0,1,.5-1,3.93,3.93,0,0,1,2.3-.95c2-.45,4.08-.87,6.13-1.23,4.05-.74,8.12-1.32,12.2-1.84,8.26-1,16.56-1.77,24.83-2.76a188.61,188.61,0,0,0,24.5-4.31.4.4,0,0,1,.48.31A.39.39,0,0,1,195.54,222.76ZM225.77,200a12.21,12.21,0,0,1-3.36,7.53c-.24.25-.49.48-.74.72l-.49.47c-.46.45-.81.78-1.14,1.08-.17.15-.37.32-.58.48s-.53.35-.77.49l-.25.15c-.58.35-1.19.65-1.68.9l-.36.18.42-.17c-.81.36-1.6.76-2.62,1.3l-1,.53-1.07.59a34.89,34.89,0,0,1-4.07,1.63l-.39.12,0,0c-.58.19-1.19.39-1.8.56s-1.36.35-2,.48l-.12,0-2.88.6-.92.2-.21,0-1.31.29c-1.24.23-2.54.44-3.87.62-.84.11-1.69.26-2.52.4l-.07,0h-.18l-1.24.21a33.37,33.37,0,0,1-4.12.37h-.51c-.62,0-1.07,0-1.51.08-.73.08-1.45.15-2.17.24s-1.69.22-2.47.33h-.06l-.2,0-1.48.21c-.7.09-1.42.17-2.1.23h-.07c-.7.07-1.33.14-2,.22-.82.11-1.64.24-2.54.39h-.05l-.26,0h0l-1.33.21c-1,.14-1.93.24-2.88.33l-1.34.14c-1,.1-2,.23-2.95.36l-1.37.18-1.4.19h-.09c-.7.1-1.76.25-2.75.34l-2.06.18h0c-2.12.17-4.3.35-6.45.66-1.37.2-2.68.38-4.15.57l-.71.09h-.12c-1.19.15-2.41.31-3.57.5l-1.94.35-.2,0a20,20,0,0,0-2.17.48l-.22.07-.17.05-.22.07-.08,0-1.19.36c-.46.13-.93.24-1.39.36l-.14,0-.41.1-.07,0h-.09c-.87.22-1.76.44-2.63.73l-.89.32-.11,0-.06,0c-.5.19-1,.37-1.46.5-.3.09-.61.17-.92.24l-.45.12-.17,0a1.05,1.05,0,0,0-.3-.22,1.43,1.43,0,0,0-.64-.15,1.26,1.26,0,0,0-.43.08,13.8,13.8,0,0,0-1.73.95c-.28.18-.55.37-.85.59l-.14.09-.48.34a35.54,35.54,0,0,1-3.15,1.85c-.76.37-1.58.71-2.58,1.09l-.39.15a19.81,19.81,0,0,1-2.14.7,9.34,9.34,0,0,1-1.67.15H110l-.41-.07,0,0,0-.09,0-.09.13-.26a2.7,2.7,0,0,1,.28-.31,8.5,8.5,0,0,1,1.1-.7l.43-.22.06,0c.64-.31,1.51-.74,2.27-1.21a13.62,13.62,0,0,0,1.28-.86l.47-.38.13-.11.1-.09.56-.45c.44-.35.91-.68,1.28-.93s.91-.58,1.26-.79l.07,0,.07,0,.21-.12a9.23,9.23,0,0,0,2.37-1.8,5,5,0,0,0,.5-.76,1.56,1.56,0,0,0-.27-1.89,1.63,1.63,0,0,0-.76-.36,1.7,1.7,0,0,0-.39,0h-.26l-.8,0c-1.18.06-2.28.19-3.22.3l-.26,0-.24,0h-.12l-.15,0-.8.1-1.59.12c-.91.07-1.66.1-2.35.1-.29,0-.58,0-.87,0a7.24,7.24,0,0,1-1.47-.21l-.32-.16-.33-.28,1.13-.32.54-.13.24-.07.73-.19c1-.25,2-.56,3.19-1s2-.71,3-1l.56-.14h.11q1.22-.28,2.4-.69l.48-.18.07,0a1.32,1.32,0,0,0,.65-.41l.08-.12.07-.11a1.13,1.13,0,0,0,.12-.57,1.1,1.1,0,0,0-.38-.75,1.27,1.27,0,0,0-.53-.27,1.84,1.84,0,0,0-.33,0h-.46l-.73.07-1.56.2-.13,0-.8.1-.8.1c-.51.06-1,.14-1.73.26-1.1.18-2.09.34-3.13.44-.64.06-1.3.1-2,.1l-1.14,0h-.27l-.45,0,.08,0,.13-.07c.14-.09.29-.17.44-.25a21.34,21.34,0,0,1,2.26-1c.54-.2,1.1-.38,1.67-.57l.1,0,.76-.25c.78-.26,1.57-.53,2.35-.81.49-.17.9-.31,1.26-.41s.79-.2,1.16-.28c.77-.15,1.53-.28,2.23-.39l.17,0h.06l.14,0,.2,0,.15,0,.14,0a1.82,1.82,0,0,0,.72-.25,1.16,1.16,0,0,0,.47-.7,1.1,1.1,0,0,0,0-.57,1.17,1.17,0,0,0-.31-.48,1.69,1.69,0,0,0-1-.41c-.22,0-.44,0-.67,0a13.56,13.56,0,0,0-1.91.17h-.07c-.81.12-1.61.27-2.49.45l-.08,0h-.12l-1.77.4-.23.05-.6.14a18.76,18.76,0,0,1-3.43.29h-.83a8,8,0,0,1-1-.15l.62-.62a6.34,6.34,0,0,1,1-.69,99.65,99.65,0,0,1,15.09-5.58,62.8,62.8,0,0,1,15.62-2.22c4.45-.19,8.89-.62,13.32-1.05,11.6-1.13,23.21-2.27,34.65-4.46,5.35-1,12.26-2.06,16.63-5.56a2.2,2.2,0,0,0,.88-1.56c0-.85-.32-1.69-.33-2.55s.2-2,.2-3a37.78,37.78,0,0,0-.53-6.1.69.69,0,0,1,0-.32.63.63,0,0,1,.3-.28c1.1-.62,2.23-1.19,3.38-1.72,1.6-.74,2-1,3.29.32s2.38,3,3.67,4.46q2.86,3.18,5.8,6.27c1.81,1.91,3.68,3.88,4.58,6.35A11.49,11.49,0,0,1,225.77,200Z"/><polygon class="cls-3" points="60.97 287.54 60.89 287.48 60.97 287.54 60.97 287.54"/><path class="cls-3" d="M78.3,300.54a19.16,19.16,0,0,1-2-1.27l-1.79-1.38c-.54-.4-1.09-.78-1.65-1.16s-1.29-.87-2-1.3a34.94,34.94,0,0,1-3.06-2.21l-1.54-1.36c-.56-.51-1.14-1-1.73-1.49-1.11-.9-2.3-1.7-3.4-2.61l-.27-.22-.1-.09,0,0c-.54-.46-1.08-.92-1.64-1.36-.29-.24-.59-.47-.89-.7s-.61-.45-.92-.66c-.59-.41-1.21-.78-1.8-1.18-.34-.21-.66-.44-1-.67s-.58-.42-.86-.64-.39-.32-.59-.49l-1.68-1.49c-.56-.5-1.13-1-1.71-1.43-.27-.21-.53-.43-.81-.63l-.86-.6c-.62-.45-1.24-.9-1.87-1.34-.86-.61-1.7-1.26-2.53-1.92-.52-.46-1-.93-1.54-1.41l-.72-.69c-.25-.25-.5-.5-.76-.74-.59-.53-1.21-1-1.84-1.52a18.61,18.61,0,0,0-1.65-1.14c-.48-.3-1-.59-1.43-.9s-.88-.65-1.3-1l-.92-.81c-.35-.33-.67-.68-1-1a1,1,0,0,0-.59-.27h0a.87.87,0,0,0-.57.22h0a.85.85,0,0,0,0,1.19.79.79,0,0,0,.15.12c.32.22.61.46.91.7l.79.64.83.65c.29.21.54.41.83.59.6.38,1.22.73,1.84,1.09a19.23,19.23,0,0,1,1.78,1.21l1,.77c1.08,1,2.08,2,3.2,2.92.56.47,1.14.91,1.73,1.35s1.18.84,1.77,1.25,1.35.93,2,1.4,1.34,1,2,1.55L51.8,282c.55.49,1.12,1,1.71,1.43,1.19.91,2.48,1.67,3.71,2.52.85.59,1.65,1.25,2.45,1.91.38.32.75.64,1.13.94s.82.65,1.24,1c.81.61,1.62,1.2,2.41,1.84,1.1.92,2.15,1.9,3.27,2.8.56.45,1.16.86,1.75,1.28s1.15.77,1.72,1.15c1.12.75,2.22,1.51,3.28,2.32.47.36.93.75,1.41,1.1l.89.61c.3.21.64.4,1,.59a.54.54,0,0,0,.73-.16A.52.52,0,0,0,78.3,300.54Z"/><path class="cls-3" d="M154.69,228.36l-.16,0a.51.51,0,0,0-.51.37h0c-.09.35-.11.71-.17,1.06s-.09.64-.14.95c-.1.63-.22,1.27-.29,1.9-.15,1.28-.19,2.57-.38,3.84,0,.17,0,.34-.08.51-.12.6-.26,1.2-.39,1.8s-.27,1.31-.36,2-.12,1.34-.18,2-.13,1.31-.2,2-.1,1.24-.15,1.86-.12,1.33-.2,2-.18,1.22-.24,1.83-.15,1.35-.21,2-.1,1.32-.15,2-.13,1.28-.18,1.91c-.12,1.28-.14,2.57-.3,3.84-.06.42-.12.85-.19,1.27a.72.72,0,0,0,.18.5.74.74,0,0,0,.48.22.77.77,0,0,0,.5-.18.79.79,0,0,0,.22-.48c.1-.69.2-1.39.27-2.09s.1-1.25.14-1.87.09-1.32.16-2,.12-1.36.16-2c.08-1.28.19-2.56.35-3.83s.29-2.6.37-3.92c.05-1,.17-1.91.25-2.87,0-.5.06-1,.11-1.49s.11-1,.2-1.5.23-1.15.36-1.72.26-1.41.34-2.12.12-1.28.17-1.92.1-1.29.17-1.93.14-1.07.22-1.61c0-.27.06-.54.1-.81s0-.54.08-.8v0h0a.53.53,0,0,0,0-.35A.61.61,0,0,0,154.69,228.36Z"/><path class="cls-3" d="M157.94,200.7a.46.46,0,0,0,.48-.44c0-.45,0-.9.08-1.34s.09-.82.14-1.23.11-.75.17-1.13.12-.78.19-1.17.2-1,.31-1.57.25-1.06.37-1.59.27-1.06.38-1.59.24-1.09.34-1.64c.07-.38.13-.77.2-1.15l.06-.3a.58.58,0,0,0-.37-.72.47.47,0,0,0-.17,0,.66.66,0,0,0-.27.06h0a.55.55,0,0,0-.27.33c-.09.42-.12.83-.17,1.26s-.09.66-.15,1c-.1.55-.2,1.1-.32,1.65s-.25,1.06-.36,1.6-.2,1-.3,1.51-.22,1.13-.31,1.7-.22,1.36-.3,2.05c0,.36-.08.72-.11,1.08s0,.78-.06,1.17A.47.47,0,0,0,157.94,200.7Z"/><g class="cls-4"><path class="cls-1" d="M89.39,208c-.21-1.31-.38-2.63-.65-3.93-.45-2.13-.8-4.28-1.17-6.43a12.55,12.55,0,0,0-.47-1.9,2.28,2.28,0,0,1-.13-.64,21.13,21.13,0,0,0-.69-4.33A17.7,17.7,0,0,1,86,189c-.19-1.2-.34-2.41-.6-3.58s-.43-2.18-.6-3.26c-.32-2-.73-3.9-.9-5.88,0-.63-.19-1.25-.26-1.88a7.19,7.19,0,0,1-.07-2.45,5.43,5.43,0,0,1,1.15-2.06,8.08,8.08,0,0,1,3.68-2.5,34.44,34.44,0,0,1,4-1.21,27.14,27.14,0,0,1,3.8-.63c1.56-.16,3.12-.3,4.68-.35a25,25,0,0,1,5.92.31,9.56,9.56,0,0,1,3.26,1.53,1.44,1.44,0,0,1,.54.75,20.73,20.73,0,0,1,1.11,4.84c.12,1,.3,2,.41,2.95a10.49,10.49,0,0,0,.45,1.9,4.27,4.27,0,0,1,.15.64c.24,1.38.49,2.77.72,4.15.44,2.61,1,5.19,1.36,7.8.18,1.29.36,2.59.49,3.88q.31,3.1.78,6.17c.21,1.37.3,2.76.6,4.12.16.73.22,1.48.38,2.22.12.58.26,1.16.35,1.74.13.81.24,1.61.32,2.42a8.37,8.37,0,0,1,0,1.12c0,.5,0,1-.08,1.49a5.65,5.65,0,0,1-.88,2.5,2.72,2.72,0,0,1-1.11.87,29.36,29.36,0,0,1-7.22,2.85,31.38,31.38,0,0,1-6.38,1.06,26.23,26.23,0,0,1-5.46-.09,10.81,10.81,0,0,1-2.68-.76,4.33,4.33,0,0,1-2.11-2,16,16,0,0,1-1-2.91C90.14,212.49,89.81,210.21,89.39,208Zm-2.94-23.57a1.49,1.49,0,0,0,0,.61c.21,1.19.44,2.37.62,3.57.12.78.2,1.57.38,2.35a20.28,20.28,0,0,1,.49,2.56c.12,1.21.44,2.37.62,3.56.39,2.47.92,4.91,1.34,7.38a1,1,0,0,0,.94,1,24.24,24.24,0,0,0,3.67.7,30.84,30.84,0,0,0,5.52,0,40.79,40.79,0,0,0,4.93-.78,34.34,34.34,0,0,0,5.62-1.7,25.82,25.82,0,0,0,4.32-2.12c.16-.11.22-.2.18-.38s-.14-.62-.18-.93c-.18-1.26-.34-2.51-.51-3.77,0-.22-.07-.43-.09-.65-.19-1.85-.4-3.7-.69-5.54q-.12-.82-.27-1.65-.66-3.84-1.33-7.68c0-.17,0-.35-.16-.47s-.27.1-.39.17c-.48.32-1,.63-1.46.91a31.75,31.75,0,0,1-5,2.22,27.87,27.87,0,0,1-3.29,1c-1,.23-2.12.43-3.2.58a28.59,28.59,0,0,1-5.15.36,19.9,19.9,0,0,1-5.73-.92C87.28,184.67,86.89,184.53,86.45,184.38Zm3.85,21.85a4.13,4.13,0,0,0,.22,1.21c.14,1,.32,2,.48,3.05a39.63,39.63,0,0,0,1,4.29,9.66,9.66,0,0,0,1.2,2.89,1.85,1.85,0,0,0,.88.78,12.58,12.58,0,0,0,4.6,1c1.15,0,2.3.08,3.45,0,.91-.08,1.8-.24,2.7-.38a32.25,32.25,0,0,0,6.81-1.86,28,28,0,0,0,3.91-1.86,1.87,1.87,0,0,0,1-1.47,14.6,14.6,0,0,0-.07-5c-.38-2-.76-3.92-1-5.9,0-.11,0-.24-.2-.31a9,9,0,0,1-1.81,1.06,42.8,42.8,0,0,1-5.73,2.13c-1.33.34-2.66.65-4,.9a31.83,31.83,0,0,1-5.25.58,22.31,22.31,0,0,1-6.31-.58C91.5,206.61,90.94,206.42,90.3,206.23Zm-5.47-30.85c.11.68.23,1.38.34,2.08.14.88.39,1.75.47,2.63.1,1.07.38,2.1.55,3.15a.36.36,0,0,0,.29.33c.77.2,1.52.45,2.3.61a25.52,25.52,0,0,0,4.78.51,24.8,24.8,0,0,0,4.79-.34c.8-.14,1.59-.32,2.39-.46a27.61,27.61,0,0,0,3.66-1,28.88,28.88,0,0,0,4.1-1.72,18,18,0,0,0,2.74-1.54.83.83,0,0,0,.4-.94c-.12-.77-.38-1.5-.5-2.27-.29-1.78-.56-3.56-.72-5.36a.9.9,0,0,0-.2-.62,13,13,0,0,1-1,1.08,16.56,16.56,0,0,1-4.51,2.83c-1.23.51-2.49.93-3.74,1.38a10.73,10.73,0,0,1-1.35.46,40.72,40.72,0,0,1-4.51.73,20.14,20.14,0,0,1-4.39,0c-.26,0-.52,0-.77-.08a13.67,13.67,0,0,1-4.72-1.34C85.15,175.42,85.05,175.29,84.83,175.38Zm12.26.16a13.52,13.52,0,0,0,2.93-.63c1.45-.53,2.92-1,4.34-1.63a17.3,17.3,0,0,0,2.8-1.54,10.35,10.35,0,0,0,2.55-2.39,1.08,1.08,0,0,0-.14-1.58,7.34,7.34,0,0,0-2-1,19.87,19.87,0,0,0-6.38-.51c-1.62.07-3.24.21-4.85.39a32.35,32.35,0,0,0-5.7,1.15,14,14,0,0,0-3.78,1.55,6.39,6.39,0,0,0-2.29,2.52,1.85,1.85,0,0,0,.69,2.43,7.64,7.64,0,0,0,2.47,1,20.71,20.71,0,0,0,5.77.6A23,23,0,0,0,97.09,175.54Z"/><path class="cls-1" d="M102.28,210.41c-.46,0-.88,0-1.29,0a26,26,0,0,1-4,0,15.76,15.76,0,0,1-5-1.2c-.23-.11-.42-.24-.32-.54s.33-.31.58-.28a1.13,1.13,0,0,1,.18,0c.49.17,1,.23,1.5.35a22.38,22.38,0,0,0,5.59.6h2.38a1.83,1.83,0,0,1,.47.05c.19.06.38.14.37.39S102.53,210.38,102.28,210.41Z"/><path class="cls-1" d="M99.92,213.64a7.59,7.59,0,0,1-1.65,0c-.78-.12-1.58-.05-2.37-.2a29.8,29.8,0,0,1-2.94-.68,2.2,2.2,0,0,1-.54-.25.42.42,0,0,1-.17-.56.41.41,0,0,1,.51-.29l2.32.5a13.46,13.46,0,0,0,2.76.35c.69,0,1.37.14,2.07.11a.47.47,0,0,1,.56.41A.58.58,0,0,1,99.92,213.64Z"/><path class="cls-1" d="M93.85,215.19c.22,0,.55.15.9.22a14.31,14.31,0,0,0,2.77.22,2,2,0,0,1,.81.14c.22.1.36.24.31.5s-.23.48-.51.46a21.76,21.76,0,0,1-3.61-.25,7.78,7.78,0,0,1-1-.39.41.41,0,0,1-.24-.54C93.29,215.32,93.45,215.19,93.85,215.19Z"/><path class="cls-1" d="M85.77,177c.49.15,1,.32,1.46.46a23.47,23.47,0,0,0,6.91,1,16.28,16.28,0,0,0,3.4-.47c.7-.16,1.38-.35,2.08-.5.38-.09.61,0,.69.35a.56.56,0,0,1-.46.7c-.71.18-1.41.38-2.13.52a16.58,16.58,0,0,1-3.22.48A22.49,22.49,0,0,1,89,178.9a11.88,11.88,0,0,1-2.31-.72,4.67,4.67,0,0,1-.72-.42C85.64,177.52,85.63,177.45,85.77,177Z"/><path class="cls-1" d="M90.68,169.35a8.53,8.53,0,0,1,3.11.11,1.2,1.2,0,0,1,.74.54,4.6,4.6,0,0,1,.67,1.44,3,3,0,0,1-.48,2.43,1.79,1.79,0,0,1-.83.55,8,8,0,0,1-5.85-.13,4.51,4.51,0,0,1-1.29-.72,1.43,1.43,0,0,1-.44-1.87,2.39,2.39,0,0,1,1.31-1.39c.54-.24,1.1-.44,1.66-.63A13.69,13.69,0,0,0,90.68,169.35Zm1.95,4.59c.29-.05.59-.08.88-.15a1.24,1.24,0,0,0,1-1,2.73,2.73,0,0,0-.52-2.18.83.83,0,0,0-.39-.27,3.7,3.7,0,0,0-2-.23,15.35,15.35,0,0,0-3,.78,2.34,2.34,0,0,0-1.35,1c-.2.38-.19.57.14.82a3.8,3.8,0,0,0,.84.55A6.94,6.94,0,0,0,92.63,173.94Z"/><path class="cls-1" d="M95.38,167.33c.78-.07,1.68-.18,2.59-.23.7,0,1.37-.23,2.06-.27a30.24,30.24,0,0,1,4.15.1,17.32,17.32,0,0,1,2.68.49,11.94,11.94,0,0,1,1.77.68.94.94,0,0,1,.28.21.27.27,0,0,1,.06.33c-.07.11-.18.05-.27,0l-2.47-.61a21.43,21.43,0,0,0-4.07-.4,35.47,35.47,0,0,0-4.6.45c-.79.07-1.57.17-2.36.24-.44,0-.58-.06-.64-.36a.43.43,0,0,1,.34-.58C95,167.38,95.13,167.37,95.38,167.33Z"/><path class="cls-1" d="M91.27,170.83a9.65,9.65,0,0,1,1.51-.21c.32,0,.72-.05.91.3a1.83,1.83,0,0,1,.29,1.47,1.35,1.35,0,0,1-1.08,1,11.37,11.37,0,0,1-2.47.24c-.76,0-1.05-.23-1.26-1a2,2,0,0,1,.07-1.17c.1-.31.41-.33.67-.42H90Zm.55,1.79.94-.16c.36-.08.52-.23.51-.48a.51.51,0,0,0-.59-.45,10.06,10.06,0,0,0-2.61.51c-.2.06-.19.2-.08.31a1.22,1.22,0,0,0,.84.38C91.21,172.73,91.57,172.63,91.82,172.62Z"/></g><g id="Group_1096" data-name="Group 1096"><g id="Group_1090" data-name="Group 1090"><path id="Path_8924" data-name="Path 8924" class="cls-5" d="M104.34,199.51a5.28,5.28,0,0,1-2.73-.31,5.36,5.36,0,1,1-1.36-9.2,5.36,5.36,0,1,1,4.09,9.51Zm-2.76-.5h0a5.18,5.18,0,1,0-1.3-8.84.1.1,0,0,1-.09,0,5.17,5.17,0,1,0,1.3,8.84Z"/></g><g id="Group_1091" data-name="Group 1091"><path id="Path_8925" data-name="Path 8925" class="cls-5" d="M97.09,196.23c0,.05-.26.21-.47.24h-.09l-.07-.43-.42.06.07.48c0,.07-.21.24-.47.28h-.09L95,193.25l.65.17.35,0,.24-.36.66.38a.39.39,0,0,1-.21.15Zm-.65-.34-.35-2.36-.43.06L96,196Zm3.66-.35s.4.27.64.45c0,.06-.07.1-.15.11l-1,.14.16,1.1s-.27.2-.52.24l-.12,0L99,196.34l-1.91.28-.07-.15,2-.29-.14-1,.87-.05c0,.07,0,.13-.18.17l.11.76.27,0Zm-2.23-.26s-.16.2-.47.25h-.1L96.93,193l.71.15.32,0c0-.23,0-.56,0-.79l.94.06c0,.09-.08.15-.2.17l-.48.51,1-.15.24-.36.68.38a.48.48,0,0,1-.2.14l.27,1.79a1,1,0,0,1-.5.25l-.11,0,0-.24-.75.11c-.14.46-.56.91-1.58,1.29l-.05-.06a2,2,0,0,0,1.05-1.14l-.44.06Zm-.28-2,.1.73.58-.09-.11-.72Zm.74,1.6a2.09,2.09,0,0,0,0-.66l0-.13-.57.08.11.78Zm1.27-.19-.12-.78-.6.09,0,.13a1.83,1.83,0,0,1,0,.66Zm-.85-1.58.11.72.6-.08-.11-.73Z"/></g><g id="Group_1092" data-name="Group 1092"><path id="Path_8926" data-name="Path 8926" class="cls-5" d="M105.94,192.25s.5.28.81.48a.15.15,0,0,1-.15.12l-1.09.16a4.3,4.3,0,0,1-.5,2.13c2.46.53,1.82,1.52,1.19,1.34a6.61,6.61,0,0,0-1.55-.84,5.6,5.6,0,0,1-2.68,1.52l0-.06a5.28,5.28,0,0,0,2.18-1.67,13.11,13.11,0,0,0-1.74-.46,13.87,13.87,0,0,0,.35-1.55l-1.22.18-.07-.16,1.33-.2a14.7,14.7,0,0,0,.25-1.66l1,.1c0,.07,0,.13-.22.16,0,.31-.14.78-.24,1.29l1.22-.18c0-.24,0-.49-.06-.74l1,.06c0,.1-.07.16-.21.18,0,.13,0,.26,0,.39l.09,0Zm-2.45,1.06c-.11.55-.24,1.12-.37,1.58.47,0,.87.08,1.23.13a4.08,4.08,0,0,0,.4-1.9Z"/></g><g id="Group_1093" data-name="Group 1093"><path id="Path_8927" data-name="Path 8927" class="cls-5" d="M104.4,200.34a6.19,6.19,0,0,1-2.67-.2,5.92,5.92,0,0,1-2.49,1,6.16,6.16,0,1,1-1.81-12.19h0a6.19,6.19,0,0,1,2.67.19,6.16,6.16,0,1,1,4.3,11.24Zm-2.72-.57s0,0,.08,0a5.68,5.68,0,0,0,2.59.21,5.8,5.8,0,0,0-1.66-11.49h0a5.58,5.58,0,0,0-2.42.94.18.18,0,0,1-.16,0,5.81,5.81,0,1,0-.93,11.28h0a5.84,5.84,0,0,0,2.42-.94A.11.11,0,0,1,101.68,199.77Z"/></g><g id="Group_1095" data-name="Group 1095"><g id="Group_1094" data-name="Group 1094"><path id="Path_8928" data-name="Path 8928" class="cls-5" d="M98.84,203.2h-.1l-.11,0-.11,0-.1,0a.18.18,0,0,1-.11-.18l.12-1.09a.1.1,0,0,1,0-.07l.07,0,.21,0,.24,0a.81.81,0,0,1,.45.15.33.33,0,0,1,.13.32.37.37,0,0,1-.08.18.38.38,0,0,1-.18.09.42.42,0,0,1,.18.14.29.29,0,0,1,.06.22.42.42,0,0,1-.21.33A.86.86,0,0,1,98.84,203.2Zm-.12-.34.08,0h.1a.23.23,0,0,0,.16,0,.12.12,0,0,0,.07-.11.09.09,0,0,0,0-.11.2.2,0,0,0-.15-.05l-.19,0Zm.06-.57.17,0a.25.25,0,0,0,.15,0,.13.13,0,0,0,.06-.11.12.12,0,0,0,0-.1A.31.31,0,0,0,99,202h-.15Z"/><path id="Path_8929" data-name="Path 8929" class="cls-5" d="M100,202.05a.2.2,0,0,1,.18-.22h0l.77,0a.09.09,0,0,1,0,.07.29.29,0,0,1,0,.09.14.14,0,0,1,0,.12.12.12,0,0,1-.1,0h-.49v.22h.53l0,.07s0,.05,0,.08a.2.2,0,0,1,0,.13.13.13,0,0,1-.1,0h-.43v.24h.6l0,.07a.28.28,0,0,1,0,.09.13.13,0,0,1-.14.17h-.68a.2.2,0,0,1-.22-.18v0Z"/><path id="Path_8930" data-name="Path 8930" class="cls-5" d="M101.39,202a.21.21,0,0,1,.15-.24h0l.76-.1a.21.21,0,0,1,0,.06.29.29,0,0,1,0,.09.13.13,0,0,1,0,.13.16.16,0,0,1-.09,0l-.49.06,0,.22.52-.07,0,.06a.29.29,0,0,1,0,.09.2.2,0,0,1,0,.13l-.09.05-.43,0,0,.25.6-.08,0,.06a.29.29,0,0,1,0,.09.2.2,0,0,1,0,.13.12.12,0,0,1-.1,0l-.67.09a.2.2,0,0,1-.24-.15s0,0,0,0Z"/><path id="Path_8931" data-name="Path 8931" class="cls-5" d="M103.37,202.39l.11.44-.07,0-.11,0h-.09a.08.08,0,0,1-.07,0l-.06,0a.36.36,0,0,1,0-.09l-.28-1.07a.08.08,0,0,1,0-.08.12.12,0,0,1,.06-.06.91.91,0,0,1,.17-.09l.21-.07a.79.79,0,0,1,.51,0,.46.46,0,0,1,.25.31.46.46,0,0,1,0,.26.46.46,0,0,1-.13.2l.21.17.17.14a.19.19,0,0,1,0,.14.2.2,0,0,1-.12.08h-.16l-.06,0-.06,0-.27-.26Zm.06-.33a.2.2,0,0,0,.12-.08.16.16,0,0,0,0-.15.14.14,0,0,0-.09-.11.31.31,0,0,0-.19,0l-.05,0,0,0,.09.33Z"/><path id="Path_8932" data-name="Path 8932" class="cls-5" d="M105.67,201.51a.59.59,0,0,1,0,.23.49.49,0,0,1,0,.21.86.86,0,0,1-.14.18.9.9,0,0,1-.49.21.85.85,0,0,1-.23,0,.57.57,0,0,1-.18-.12.5.5,0,0,1-.13-.19l-.35-.83.07,0,.1,0,.09,0a.11.11,0,0,1,.08,0l.06,0a.22.22,0,0,1,0,.08l.27.66a.25.25,0,0,0,.13.14.23.23,0,0,0,.29-.12.21.21,0,0,0,0-.19l-.34-.82.07,0,.1-.05.09,0h.07l.07,0,.05.09Z"/></g></g><circle id="Ellipse_83" data-name="Ellipse 83" class="cls-5" cx="97.34" cy="202.32" r="0.41"/><circle id="Ellipse_84" data-name="Ellipse 84" class="cls-5" cx="106.69" cy="200.94" r="0.41"/></g></g></g></g></svg>