<svg xmlns="http://www.w3.org/2000/svg" xmlns:xlink="http://www.w3.org/1999/xlink" viewBox="0 0 223.83 448.98"><defs><style>.cls-1,.cls-2{fill:#fff;}.cls-2,.cls-3{fill-rule:evenodd;}.cls-4{mask:url(#mask);}.cls-5{fill:#fffcfc;}.cls-6{mask:url(#mask-2);}</style><mask id="mask" x="-45.03" y="18.5" width="287.01" height="349.32" maskUnits="userSpaceOnUse"><path d="M135.82,103c-9.82,7.23-20.66,14-28.86,23.15-7.63,8.48-13.08,19.21-22.27,26.2-5.56,4.24-.09,13.79,5.55,9.5,9.28-7.06,15.08-16.64,22.41-25.5,8-9.64,18.73-16.5,28.72-23.86C147,108.38,141.53,98.83,135.82,103Z"/><path class="cls-1" d="M240.92,158.43c-.26-12.26-.55-24.52-1-36.77-.48-13.72-2-27.46-9.32-39.43a26.61,26.61,0,0,0-20.29-12.77,27.11,27.11,0,0,0-10.82-4.06,28,28,0,0,0-14.93,2.31q-2.51-11.85-5.68-23.59c-2.95-10.81-14-20-25.56-19.45-.63,0-1.24.08-1.85.15a26.72,26.72,0,0,0-6.87-4.19c-12.91-5.44-25.21,0-33.09,10.85S95.73,53.37,88.16,64.56A31.77,31.77,0,0,0,55.55,52.25C42,55.26,35.06,66.53,27.84,77.14Q12.38,99.85-2.65,122.85c-9.54,14.62-19,29.4-26.16,45.37-8.72,19.42-14.08,38.81-15.72,60.11-3.17,41.11,9.14,82.35,24.39,120,3.59,8.86,8.8,15.84,18.51,18.51,9.93,2.73,18.14-.75,25.78-6.82,22.09-17.52,39.15-38.67,52.84-62a40,40,0,0,0,5.91,4.19,34.66,34.66,0,0,0,13.46,4.27c13.93,7.16,35.29.34,38.08-16.43l1.17-7a37.18,37.18,0,0,0,9.6-2.08c1.95,9.28,10.15,18.06,19.07,20.09a27.51,27.51,0,0,0,29.92-12.17,167.83,167.83,0,0,0,15.2-30,22.68,22.68,0,0,0,6.07.57c14.23-.64,26.67-11.65,26.5-26.5C241.7,208.12,241.43,183.27,240.92,158.43Z"/><path d="M147.47,145.82c-8.36,0-8.38,13,0,13S155.85,145.82,147.47,145.82Z"/></mask><mask id="mask-2" x="128.71" y="76.09" width="72.95" height="101.98" maskUnits="userSpaceOnUse"><path class="cls-1" d="M197.9,90.47c-12.76-11.06-28.59-16.18-45.2-13.82a42.56,42.56,0,0,0-17,2.75c-5.68,2.32-6.83,10.38-3,14.71a14.56,14.56,0,0,0,5.44,3.72c-.71,4.7,1.91,9.44,5.8,12.86a7.62,7.62,0,0,0,2.85,6.09c-1.2,4.66.7,10.21,6.07,11.7a10,10,0,0,0,.82,2.8,8.53,8.53,0,0,0-7.17,6c-.05.15-.08.3-.12.46a27,27,0,0,0-2.33,1.56,14.37,14.37,0,0,0-3.33,4.1,10,10,0,0,0-6,2.52,9.24,9.24,0,0,0-2.33,1.47,9.42,9.42,0,0,0-3.2,4.73A10.7,10.7,0,0,0,134,164.46a13.24,13.24,0,0,0,6.55,1.87c4.32,8.91,17.08,10,25.7,11.62,5,1,9.81-4.06,10.15-8.76a8.93,8.93,0,0,0-4.8-8.73,9.43,9.43,0,0,0-1-12.49,9.49,9.49,0,0,0-1.9-8.5c-.12-.22-.23-.44-.34-.66a10.1,10.1,0,0,0-1.13-4.29,10,10,0,0,0,3.68-8.31,8.62,8.62,0,0,0,2-1.84l.09.14a1.65,1.65,0,0,0,.52.65,1.5,1.5,0,0,0,.71.44,2.18,2.18,0,0,0,2.8-1.32,2.14,2.14,0,0,0-.1-1.7l-.18-.28c0-.08.05-.15.07-.23s.08-.36.11-.55a1.65,1.65,0,0,0,.66-.3,1.75,1.75,0,0,0,.61-.57,2.29,2.29,0,0,0,.34-1.67l-.06-.17c.16,0,.34.09.5.15.53.4,1.07.82,1.61,1.21,7.59,5.55,18.34-3.64,13.89-12-.12-.23-.28-.42-.41-.63C202.21,106.14,204.3,96,197.9,90.47Z"/><path d="M173.53,126.92a3.79,3.79,0,0,0,1.32-.34,2.75,2.75,0,0,0,1.42-1.63,2.2,2.2,0,0,0,2-3.13c-.08-.18-.19-.37-.29-.57a2,2,0,0,0,.67-.9,2.39,2.39,0,0,0-.14-1.77,2.15,2.15,0,0,0-1.6-1.4l-.12-.07-.51-.26a3,3,0,0,0-1-.24,2.54,2.54,0,0,0-2.06.94,2.26,2.26,0,0,0-1.63,2.54c.12.77.25,1.55.37,2.33,0,0,0,.13,0,.2a7.6,7.6,0,0,0-1,.29,3.86,3.86,0,0,0-1.56,1.18,5.14,5.14,0,0,0-1,3.62c.06.71.26,1.4.31,2.11a6.4,6.4,0,0,1-.27,1.84c-.12.55-.23,1.15-.31,1.78a2.21,2.21,0,0,0-1.49,2.49,12.84,12.84,0,0,0,.83,2.94,1.78,1.78,0,0,0-1.15,2l.51,1.59a1.61,1.61,0,0,0-.76,1.8,9.3,9.3,0,0,0,1.42,3,2.61,2.61,0,0,0,.24.23l0,.14a1.82,1.82,0,0,0-2,2.11,2.41,2.41,0,0,1-.45,1.33,10.66,10.66,0,0,0-.76,1.81,15.33,15.33,0,0,0-.55,4.16,30.84,30.84,0,0,0,.69,8.36,1.83,1.83,0,0,0,3.48.26,28.2,28.2,0,0,0,2-8c.23-2.2.31-4.42.42-6.64l.28-.18a2,2,0,0,0,.37-.46,1.64,1.64,0,0,0,.45-.46l.17-.27a1.93,1.93,0,0,0,.26-.81c.21-.29.43-.58.67-.85a1.36,1.36,0,0,0,.42-.56,1.33,1.33,0,0,0,.21-.68,1.87,1.87,0,0,0-.44-1.32,1.82,1.82,0,0,0-1.24-.62l-.43,0,0-.12-.22-.7c.17.16.34.32.52.47a2.18,2.18,0,0,0,1.66.35l.27-.08c.2,0,.39.05.61.05a2.24,2.24,0,0,0,2.34-2,2.2,2.2,0,0,0-2-2.35,1.94,1.94,0,0,1-1.1-.29c-.22-.24-.41-.48-.61-.73a7,7,0,0,1-.35-2.59,18.89,18.89,0,0,1,.19-3.83,12.46,12.46,0,0,0,.4-4,12.13,12.13,0,0,1-.27-1.69s0-.16,0-.28A3.4,3.4,0,0,0,173.53,126.92Z"/><path d="M153,131.26a2.26,2.26,0,0,0-2.39-1.19l-.49.12.11-.13,1.87-2.21c1.43-1.69-.64-3.7-2.41-3.32a2.41,2.41,0,0,0-.55-1,12.14,12.14,0,0,0,1.29-2,2.26,2.26,0,0,0-.56-3,5,5,0,0,0-2.35-1,4.45,4.45,0,0,0-.73,0l-.06-.15a4.46,4.46,0,0,0,2.12-1.43,1.8,1.8,0,0,0,.34-.85,2,2,0,0,0,.6-.72,2.24,2.24,0,0,0-.69-2.79,7.14,7.14,0,0,0-4.94-1.69h-.06l-.59,0a2.17,2.17,0,0,0-1.74,2.28,2.08,2.08,0,0,0,1.15,1.75,2.64,2.64,0,0,0-.22.92,8.7,8.7,0,0,0-.85,1,2.21,2.21,0,0,0,.57,3c.4.26.36.33.45.76a2.92,2.92,0,0,0,1.18,2.06,2.3,2.3,0,0,0,.56.29,11.73,11.73,0,0,1-1.14.92,2.21,2.21,0,0,0-.22,3.08,3,3,0,0,0,2.1,1.1l.29,0a2.79,2.79,0,0,0,.57.94l-.31.36c-.9,1.08-1.84,2.11-1.52,3.63a3.4,3.4,0,0,0,2.9,2.39l-.08,0a2.38,2.38,0,0,0-1.74,1.85,2.19,2.19,0,0,0-2.73.69,20.86,20.86,0,0,1-1.54,2,21.11,21.11,0,0,1-3.77,3.23l.37-.25a2.43,2.43,0,0,0-1.09,1.23,2.2,2.2,0,0,0,.1,1.69,2.39,2.39,0,0,0,.82.91,14.35,14.35,0,0,1-1.13,2.53,6.62,6.62,0,0,0-1.13,2.42,3.58,3.58,0,0,0,1,2.64,18.65,18.65,0,0,0,7.76,5.58,1.84,1.84,0,0,0,2.24-2.51,14.28,14.28,0,0,0-2-3.85,7.25,7.25,0,0,0-1.71-1.51c-.52-.34-.39-.24-.4-1l0-2.49c0-.41,0-.82,0-1.23,0-.12.06-.37,0-.4l0-.06c1.36-1.18,2.69-2.4,4-3.6a1.77,1.77,0,0,0-.05-2.71l.08-.1a2.24,2.24,0,0,0,.34-.9,1.77,1.77,0,0,0,1.37.18c1.69-.52,3.42-1.11,4.53-2.58A4.49,4.49,0,0,0,153,131.26Z"/><path class="cls-1" d="M178.46,117.48a1.83,1.83,0,0,0-.75-1.14,1.75,1.75,0,0,0-1.38-.29l-.16,0a1.76,1.76,0,0,0-2,.55c-.27.06-.54.15-.81.21a2,2,0,0,0-.83.41l-.31.34a1.26,1.26,0,0,0-.26.66.88.88,0,0,0,0,.48.9.9,0,0,0,.09.46,1.7,1.7,0,0,0,.63.88,23.41,23.41,0,0,0-1.19,4.73,1.82,1.82,0,0,0,1.2,1.84,1.92,1.92,0,0,0,2.1-.68,6.17,6.17,0,0,0,.85-1.84c0-.08.09-.19.13-.28l.12-.21c.15-.25.32-.5.47-.76a5.51,5.51,0,0,0,.92-3.33,1.37,1.37,0,0,0,.47-.23,1.35,1.35,0,0,0,.51-.47A1.87,1.87,0,0,0,178.46,117.48Z"/><path class="cls-1" d="M154.27,120.46l-1.17-1.85a1.73,1.73,0,0,0-1.74-1,1.24,1.24,0,0,0-.68.16l-.39.26a1.73,1.73,0,0,0-.26.28,1.62,1.62,0,0,0-.31-.54,1.1,1.1,0,0,0-.22-.21c-.05-.8-.18-1.6-.29-2.33-.09-.54-.17-1.09-.24-1.63,0-.12,0-.25,0-.37s0-.16,0-.22c0-.24,0-.49,0-.73a4.56,4.56,0,0,0-.85-3.37,1.81,1.81,0,0,0-2.77,2.33.77.77,0,0,1,0,.15c0,.35,0,.7,0,1.06,0,.17,0,.34,0,.51a2.45,2.45,0,0,0-.42.64c-.86,1.69-.5,3.6-.8,5.41,0,.12-.06.24-.11.36a1.85,1.85,0,0,0,1.1,2.32,2.12,2.12,0,0,0,1,0,1.77,1.77,0,0,0,1,.22l.06.12a1.86,1.86,0,0,0,1,.91,1.82,1.82,0,0,0,2.31-1.09,1.87,1.87,0,0,0,.08-.65l.51.81a1.41,1.41,0,0,0,.43.54,1.45,1.45,0,0,0,.59.37,1.36,1.36,0,0,0,.72.08,1.34,1.34,0,0,0,.68-.16l.39-.26a1.73,1.73,0,0,0,.52-.76l.1-.48A1.69,1.69,0,0,0,154.27,120.46Z"/><path d="M147.52,120.34a1.82,1.82,0,0,0-1.24-.62,6.05,6.05,0,0,0-1.2.08,6.65,6.65,0,0,0-1.13.34,3.35,3.35,0,0,0-.66.32,6.54,6.54,0,0,0-1,.7,1.94,1.94,0,0,0-.63,1.24,1.44,1.44,0,0,0,.11.71,1.46,1.46,0,0,0,.33.61,1.86,1.86,0,0,0,1.24.62,1.83,1.83,0,0,0,1.31-.44l.27-.21a3.71,3.71,0,0,1,.49-.24,4.25,4.25,0,0,1,.62-.12,1.93,1.93,0,0,0,1.26-.43,1.36,1.36,0,0,0,.42-.56,1.42,1.42,0,0,0,.2-.68A1.81,1.81,0,0,0,147.52,120.34Z"/><path class="cls-2" d="M175.63,126.18a1.53,1.53,0,0,0-1.39-1.6,1.34,1.34,0,0,0-.34,0,.88.88,0,0,0-.15-.12,1.52,1.52,0,0,0-2.09.38c-.62,1.06-1.25,2.11-1.87,3.16a10.87,10.87,0,0,0-.92,1.67,2.29,2.29,0,0,0,.37,2.37,1.56,1.56,0,0,0,.75.45,1.36,1.36,0,0,0,.62,1,1.52,1.52,0,0,0,2.08-.38C174.15,131.08,175.67,128.79,175.63,126.18Z"/><path class="cls-2" d="M148.51,119.46a1.43,1.43,0,0,0-1.24-.83.13.13,0,0,0,0-.06,1.53,1.53,0,0,0-1.76-1.18,1.55,1.55,0,0,0-1.18,1.77c.05.59.14,1.17.23,1.76a10.86,10.86,0,0,1-.09,1.28c0,.26-.09.52-.14.78,0,.06,0,.18,0,.22s-.06.28-.1.42c-.14.55-.29,1.09-.45,1.64a1.53,1.53,0,0,0,.91,1.92,1.63,1.63,0,0,0,1.66-.45c.11.26.2.53.33.78a1.5,1.5,0,0,0,1.63.81,1.55,1.55,0,0,0,1.21-1.36A16.37,16.37,0,0,0,148.51,119.46Z"/><path class="cls-2" d="M150.25,109.55a15.53,15.53,0,0,1,0-7,32.36,32.36,0,0,0,.67-7.41A1.53,1.53,0,0,0,149.15,94,1.55,1.55,0,0,0,148,95.78c.32,4.84-2.08,9.52-.67,14.35a1.54,1.54,0,0,0,1.77,1.18A1.51,1.51,0,0,0,150.25,109.55Z"/><path class="cls-3" d="M154.27,157.83a1.36,1.36,0,0,0-.42-1.91h0a1.6,1.6,0,0,0,.27-1.72,1.53,1.53,0,0,0-2-.69l-2.86,1-.15-.16.19-.16a1.44,1.44,0,0,0,.36-1.73l2.44-1.67a1.51,1.51,0,0,0,.37-1.8,1.58,1.58,0,0,0-1.64-.81,10.61,10.61,0,0,0-1.93.37,1.19,1.19,0,0,0-.12-.22,1.49,1.49,0,0,0-1.9-.53l-.22.13a9.71,9.71,0,0,0,0-1.21,1.83,1.83,0,0,0-.56-1.28,4.75,4.75,0,0,0-.49-1.79,1.52,1.52,0,0,0-2.59-.19c-.27.38-.53.78-.78,1.19a1.59,1.59,0,0,0-.36.55l-.13.33a17.69,17.69,0,0,0-1.54,3.9,1.52,1.52,0,0,0,.73,1.77,1.46,1.46,0,0,0-1.82.93s0,0,0,0c-.61.31-1.23.62-1.85.91a1.5,1.5,0,0,0,1.32,2.7c.67-.32,1.34-.66,2-1a1.81,1.81,0,0,0,.52,0,1.92,1.92,0,0,0,.62-.27l.25-.14.1.07h0a1.47,1.47,0,0,0,.28,1.35,1.8,1.8,0,0,0,.2.19c-.45.43-.9.88-1.33,1.33a1.51,1.51,0,0,0,1.64,2.48l.26-.09a1.19,1.19,0,0,0,.81.68,15,15,0,0,0,9.58-.73A1.32,1.32,0,0,0,154.27,157.83Z"/><path class="cls-3" d="M169.69,148.18a1.51,1.51,0,0,0-2.09.38l-3,5.41a15.85,15.85,0,0,0-2.12,5.54,1.5,1.5,0,0,0,3,.22,13.34,13.34,0,0,1,1.8-4.41l2.77-5.06A1.54,1.54,0,0,0,169.69,148.18Z"/><path class="cls-2" d="M158.26,153.92a17.69,17.69,0,0,1-2.5.27c1-.68.71-2.77-.76-2.76-2.65,0-5.31-.07-8-.21l2.36-.74a1.5,1.5,0,1,0-.59-2.94l-.44.14a1,1,0,0,0-.29-.69l-.2-.16a1,1,0,0,0-.51-.13,4.26,4.26,0,0,0-2.3.44,1,1,0,0,0-.46.6,1,1,0,0,0,.1.77,1.31,1.31,0,0,0,.22.25l-3,1a6,6,0,0,0-4.77,1.74,1.53,1.53,0,0,0-.51,1.22,1.56,1.56,0,0,0,.64,1.15,2.24,2.24,0,0,0,.53.33,1.49,1.49,0,0,0,.05,1.12,3.81,3.81,0,0,0-.17,1,1.51,1.51,0,0,0,.65,2.77l.47.05a6.5,6.5,0,0,0,3.93,1.72c1.64.25,3.3.41,5,.54a1.8,1.8,0,0,0,.67.07l.17,0q2.19.13,4.38.21a1.57,1.57,0,0,0,1.49-1.09c1-.21,2.07-.44,3.1-.71A1.56,1.56,0,0,0,158,157c.3-.05.6-.07.9-.13A1.5,1.5,0,0,0,158.26,153.92Z"/></mask></defs><g id="圖層_2" data-name="圖層 2"><g id="_0-ui_kits" data-name="0-ui_kits"><g id="woman2"><g class="cls-4"><g id="Path_3039" data-name="Path 3039"><path class="cls-1" d="M180.57,190.63a.59.59,0,0,0,0,.13l0,.34-.3,3.61,2.47-2.7,0-.38,0-.35,0-.45-1.58-.05Z"/><path class="cls-1" d="M185.72,166.48c0-.07,0-.14,0-.21l0-.56c-.06-1.27-.17-2.57-.32-4s-.28-2.65-.45-4c-.13-1.07-.25-2-.37-2.81s-.33-1.9-.53-2.86a50.52,50.52,0,0,0-1.47-5.39,20.47,20.47,0,0,0-1.07-2.72c-.2-.41-.41-.84-.65-1.26s-.44-.73-.7-1.13a9.61,9.61,0,0,0-1.54-1.93,2.16,2.16,0,0,0-2.43-1.88,2.76,2.76,0,0,0-1.21.47l-.06,0c-.16.1-.33.2-.48.31s-.39.3-.58.46-.54.45-.8.67l-.64.55-1.77,1.48c-.65.53-1.3,1.07-1.94,1.62s-1.2,1.06-1.7,1.55a20.92,20.92,0,0,0-1.51,1.74c-.45.57-.89,1.2-1.35,1.9a8.43,8.43,0,0,0-.56,1l0,.06a4.16,4.16,0,0,0-.5,1.5,1.37,1.37,0,0,0,0,.28c-.11.39-.2.78-.28,1.15l-.16.74c-.17.76-.34,1.51-.49,2.27-.23,1.05-.43,2.13-.62,3.2s-.3,2.06-.42,3.11c-.21,1.77-.4,3.37-.66,5-.13.84-.27,1.67-.42,2.52s-.27,1.54-.39,2.34-.19,1.41-.29,2.12l-.07.49c-.06.52-.14,1-.22,1.54l-.44,3.2c-.12.79-.26,1.6-.42,2.39l-.24,1.09c-.18.79-.36,1.59-.52,2.39l-.67,3.35c-.1.47-.21.94-.31,1.41-.07.27-.13.54-.19.81-.2-.81-.41-1.63-.62-2.44s-.45-1.72-.63-2.58c-.38-1.78-.74-3.59-1.06-5.38v0c-.12-.73-.24-1.47-.35-2.2s-.27-1.67-.42-2.5-.25-1.45-.39-2.17c-.35-1.82-.8-3.65-1.24-5.36-.22-.87-.44-1.73-.66-2.62l-.22-.89c-.14-.6-.29-1.2-.44-1.81l-.23-.9c-.15-.57-.3-1.14-.44-1.72l-.08-.31c-.19-.77-.39-1.56-.61-2.35l-.22-.81c-.16-.56-.31-1.13-.47-1.69a3.93,3.93,0,0,0-.5-1.28l0-.07a2.43,2.43,0,0,0-1.94-1c0-.14,0-.29,0-.46,0-.41.07-.82.13-1.23a2,2,0,0,0,.1-.21,2.34,2.34,0,0,0,.09-.24,2.23,2.23,0,0,0-.2-1.66,2.14,2.14,0,0,0-1.3-1,2.16,2.16,0,0,0-2,.46l-.45.23-.26.12c-.29.14-.59.3-.87.42s-.55.25-.82.35L140,149l-.37-.5-.19-.25c-.29-.38-.57-.73-.82-1.1s-.47-.79-.7-1.2l-.16-.28-.57-1c-.23-.43-.46-.87-.68-1.31s-.37-.74-.56-1.1-.52-.93-.78-1.37l-.56-1c-.2-.36-.38-.73-.57-1.11s-.39-.78-.6-1.16a15.31,15.31,0,0,0-.84-1.35c-.11-.16-.23-.31-.35-.47l-.1-.13.44-.4c.68-.61,1.34-1.23,2-1.82l.7-.64c.4-.37.81-.75,1.21-1.16a13.3,13.3,0,0,0,.95-1,3.35,3.35,0,0,0,.55-.85l0,0a2.59,2.59,0,0,0,.15-1.35,4.8,4.8,0,0,0-.36-1.17l-.19-.42c-.12-.28-.25-.55-.38-.83-.34-.74-.74-1.53-1.2-2.43l-.48-.94c-.24-.47-.48-.94-.73-1.41l0-.07c-.41-.77-.84-1.57-1.3-2.36-.34-.57-.7-1.12-1.05-1.65-.13-.18-.25-.37-.37-.56l-.08-.12-.1-.16-.37-.59c-.34-.54-.69-1.09-1.05-1.63q-.37-.56-.81-1.08a6.13,6.13,0,0,0-1.18-1.15l0,0c-1.54-1-2.84-1.19-3.88-.44a2.09,2.09,0,0,0-.58.64,2.42,2.42,0,0,0-1,1.36l-.13.39c-.21.57-.45,1.17-.73,1.83-.15.35-.29.71-.44,1.06l-.34.82c-.46,1.09-1,2.26-1.69,3.67l-.29.57c-.37.74-.8,1.43-1.2,2.08a23.34,23.34,0,0,1-1.47,1.94c-.51.61-1.07,1.25-1.7,2-.48.53-.95,1-1.44,1.5s-1.08,1-1.49,1.34l-2,1.7a28.89,28.89,0,0,1-2.41,1.88,9.05,9.05,0,0,1-.8.45c-.32.14-.64.26-1,.37l-.23.07-.45.12-.72.16-.09,0-.49.08-.76.08c-.28,0-.58,0-.92,0l-1-.05-.16,0c-.42,0-.81-.07-1.19-.13l-.28,0-.45-.07-.65-.13c-1-.24-2.08-.55-3.24-.93l-.93-.36c-.29-.12-.58-.26-.85-.39l-.16-.08c-.12-.07-.25-.13-.37-.21l-.52-.34c-1.23-.9-2.48-1.9-3.77-3l-.16-.15c-.3-.28-.59-.55-.84-.82l-.83-.92c-.22-.28-.44-.57-.65-.86s-.33-.47-.48-.72a60.86,60.86,0,0,1-3.1-5.79c-.23-.5-.45-1-.67-1.49l-.16-.39c-.55-1.26-1.12-2.56-1.64-3.86s-1.11-2.78-1.74-4.22-1.19-2.78-1.68-4.23-1-2.87-1.44-4.42a16.37,16.37,0,0,1-.47-1.76l0-.12a1.66,1.66,0,0,0,.12-.31,2.21,2.21,0,0,0-.33-1.86,2.3,2.3,0,0,1-.5-.18,1.56,1.56,0,0,1-.61-.66l-.08,0c-.36-.15-.71-.31-1.06-.48-.5-.24-1-.47-1.5-.67-1.18-.48-2.37-.93-3.37-1.29a15.72,15.72,0,0,0-3.64-.94l-.67-.07L62,93.27c-.57-.08-1.07-.17-1.51-.26l-.33-.07-.89-.2-.24,0a9.31,9.31,0,0,0-1-.17c-.77-.09-1.58-.15-2.48-.18a22.62,22.62,0,0,0-5.51.31c-.41.09-.86.19-1.31.32s-.87.26-1.3.41c-.76.26-1.54.56-2.36.92s-1.69.76-2.44,1.15A19.94,19.94,0,0,0,40.32,97a24.09,24.09,0,0,0-2,1.63l-.09.07c-.69.6-1.32,1.24-2,1.9a48.23,48.23,0,0,0-3.43,4c-.55.69-1,1.41-1.56,2.15s-1.05,1.52-1.46,2.17c-.86,1.37-1.74,2.82-2.7,4.47l-.6,1c-.2.36-.41.72-.62,1.07-.44.77-.89,1.52-1.34,2.28l-.29.48c-.31.52-.63,1-.93,1.58-.46.81-.91,1.62-1.36,2.44-.72,1.32-1.49,2.78-2.41,4.59-.8,1.58-1.59,3.19-2.35,4.78s-1.47,3.34-2.13,5c-.58,1.41-1.19,2.95-1.91,4.85l-.54,1.4c-.44,1.13-.89,2.31-1.32,3.48-.56,1.55-1.15,3.22-1.63,4.92s-.94,3.5-1.34,5.22L8,157.94c-.28,1.23-.57,2.45-.86,3.67-.42,1.77-.86,3.51-1.27,5.13s-.81,3.23-1.18,5-.71,3.5-1,5.24-.61,3.5-.85,5.22-.5,3.5-.73,5.36c-.4,3.18-.61,6.42-.82,9.55l-.06.9c-.07,1-.15,2-.22,3-.18,2.4-.36,4.89-.47,7.34-.08,1.79-.15,3.6-.21,5.38,0,1.13-.08,2.27-.1,3.41,0,.59,0,1.18,0,1.77s0,1,0,1.5c0,1.2-.08,2.43-.09,3.66,0,1.75,0,3.52,0,5.27l0,.93c0,1.37.07,2.8.07,4.2v1.09c0,1.28,0,2.6,0,3.9v0c0,1.72.08,3.5.27,5.26.12,1.11.3,2.22.48,3.29.09.57.19,1.14.27,1.7s.13.91.19,1.37c.16,1.1.31,2.25.55,3.38.09.42.18.84.28,1.27l.21,1c0,.21.1.46.16.68a6.36,6.36,0,0,0,.19.62,2.74,2.74,0,0,0,1,1.45l.12.08a2,2,0,0,0,.66.22l.14.05a3.78,3.78,0,0,0,2,0c.23,0,.46-.07.68-.12h0a3,3,0,0,0,.49-.2l.22,0,.18,0c.54-.1,1.07-.16,1.64-.24l.19,0c.43-.05.85-.12,1.27-.19l1.14-.17.86-.1c.45,0,.91-.09,1.37-.17.82-.13,1.7-.3,2.7-.51l1.52-.33,1.11-.25,1.46-.3,1.28-.26c1.13-.24,2.25-.51,3.34-.78l1.94-.47.84-.2c1.46-.34,3-.69,4.46-1L39,253.35c2.18-.47,3.86-.8,5.43-1.09l2-.36c1-.19,2.12-.38,3.18-.59l1.21-.23c1.39-.27,2.82-.54,4.23-.84l1.83-.4.82-.19.84-.18,1.93-.44c1.39-.36,2.76-.79,4.11-1.28l1.19-.41L67,247l1.18-.4.68-.23,1.27-.43.39.33a15.58,15.58,0,0,1,1.24,1.32,37.1,37.1,0,0,0,2.56,2.9c.68.65,1.39,1.28,2.1,1.86l.54.45c.51.43,1,.87,1.59,1.3s1.47,1.15,2.31,1.71c.67.45,1.37.87,2,1.28l.34.2a33.11,33.11,0,0,0,5,2.62c.79.31,1.63.62,2.57.93.75.24,1.74.56,2.74.83a22.13,22.13,0,0,0,2.8.6h0a23.8,23.8,0,0,0,2.8.19h.14a22.42,22.42,0,0,0,2.71-.18,10.62,10.62,0,0,0,2.88-.74c.54-.24,1-.45,1.39-.68s.78-.46,1.14-.69c.79-.52,1.55-1.08,2.29-1.67a19.27,19.27,0,0,0,2.05-2,26.57,26.57,0,0,0,1.7-2.11,53,53,0,0,0,3.08-4.76,47.33,47.33,0,0,0,2.48-4.93c.75-1.8,1.44-3.61,2.08-5.31.22-.6.45-1.2.68-1.8.39-1,.79-2.05,1.16-3.09l0,0,0-.1.14-.35v-.07c.85-2.45,1.61-5,2.27-7.72.62-2.5,1.15-5.06,1.67-7.53l.11-.52c.28-1.29.57-2.57.86-3.85l.72-3.22,0-.16c.43,1,.88,1.95,1.35,2.91.62,1.27,1.3,2.47,1.94,3.58.75,1.28,1.39,2.43,2,3.49l.54,1,.81,1.5c.4.74.87,1.54,1.43,2.44.42.69.85,1.37,1.28,2,.53.83,1.09,1.69,1.6,2.55.41.7.81,1.41,1.21,2.12.53.92,1.07,1.88,1.63,2.81.44.72.92,1.42,1.38,2.09l.2.29c.45.67.93,1.36,1.52,2.18a49.48,49.48,0,0,0,3.33,4.31c.59.65,1.22,1.31,2.06,2.16s1.39,1.36,2,1.88c.35.3.74.65,1.17,1s.82.56,1.16.79a25.79,25.79,0,0,0,2.52,1.41c.49.24.91.44,1.31.6a9,9,0,0,0,1.3.44c.29.08.58.15.87.2h0l.64.07a9.49,9.49,0,0,0,1.41,0,11.75,11.75,0,0,0,1.77-.15h.1l.63-.13c.25-.06.48-.14.74-.22a10.82,10.82,0,0,0,1.54-.63,9.72,9.72,0,0,0,1.22-.68l.17-.1c.2-.12.39-.25.6-.4l.52-.4a10.26,10.26,0,0,0,1-.94,21.23,21.23,0,0,0,1.9-2.33,21.81,21.81,0,0,0,1.54-2.48c.42-.75.79-1.5,1.22-2.4.89-1.84,1.62-3.54,2.23-5.18s1.15-3.38,1.68-5.37c.56-2.15,1-3.92,1.28-5.58.34-1.86.63-3.69.87-5.6s.38-3.7.53-5.5v-.16c.11-1.27.22-2.57.36-3.84l.15-1.37c.11-1,.22-1.92.32-2.88.19-1.89.37-3.8.56-5.75.07-.78.13-1.56.2-2.34l.08-.91s0-.1,0-.14,0-.16,0-.25,0-.2,0-.3l.2-2.22.24-2.86,0-.46c.06-.76.13-1.54.17-2.32.22-3.89.3-8,.36-11.2C185.83,173.71,185.88,170.14,185.72,166.48Zm-2.19,11.14c-.08,4.12-.15,7.56-.35,11.12,0,.75-.11,1.52-.17,2.26l0,.46-.24,2.86-.19,2.22,0,.33c0,.08,0,.15,0,.22l-.09,1.06c-.06.77-.12,1.54-.2,2.31-.18,1.95-.35,3.85-.55,5.73-.11,1-.21,1.91-.32,2.87l-.15,1.37c-.14,1.3-.25,2.61-.36,3.91v.15c-.15,1.78-.3,3.62-.52,5.41s-.51,3.65-.85,5.47c-.3,1.6-.69,3.32-1.24,5.41-.51,1.92-1,3.61-1.61,5.17s-1.29,3.21-2.15,5c-.42.86-.78,1.58-1.17,2.3a21.67,21.67,0,0,1-1.4,2.25,19.92,19.92,0,0,1-1.69,2.08,9.49,9.49,0,0,1-.82.73l-.47.37c-.14.11-.29.2-.44.3l-.19.12a10.66,10.66,0,0,1-1,.55,9.51,9.51,0,0,1-1.24.51l-.58.17-.51.1h-.07a11.81,11.81,0,0,1-1.45.12,10.59,10.59,0,0,1-1.13,0l-.57-.07a6,6,0,0,1-.61-.13,9.61,9.61,0,0,1-1-.35c-.36-.15-.73-.33-1.19-.55a24.45,24.45,0,0,1-2.29-1.29c-.32-.2-.7-.45-1.05-.71s-.69-.55-1-.84c-.55-.48-1.13-1-1.86-1.77s-1.42-1.46-2-2.07a45.05,45.05,0,0,1-3.18-4.11c-.59-.82-1.06-1.5-1.5-2.15l-.2-.29c-.45-.65-.9-1.33-1.31-2-.55-.9-1.08-1.84-1.6-2.74q-.6-1.09-1.23-2.16c-.54-.9-1.1-1.78-1.65-2.63-.42-.65-.85-1.32-1.26-2-.53-.87-1-1.64-1.37-2.34-.26-.5-.53-1-.79-1.48l-.55-1c-.58-1.08-1.24-2.25-2-3.55-.63-1.08-1.28-2.24-1.87-3.44s-1.25-2.69-1.83-4c-.34-.76-.67-1.52-1-2.28l-2.13.46v0a30.87,30.87,0,0,1-.58,3.57c-.24,1.08-.48,2.14-.72,3.21l-.87,3.88-.11.54c-.51,2.45-1,5-1.64,7.45-.67,2.67-1.43,5.26-2.28,7.69l-.13.38c-.35,1-.75,2-1.13,3-.24.61-.47,1.22-.7,1.83-.63,1.67-1.31,3.47-2,5.22a43.76,43.76,0,0,1-2.36,4.69,52.15,52.15,0,0,1-2.95,4.56,22.4,22.4,0,0,1-1.57,1.93,14.88,14.88,0,0,1-1.8,1.75,24.5,24.5,0,0,1-2.1,1.53c-.32.21-.65.41-1,.61s-.72.38-1.17.58a8.5,8.5,0,0,1-2.27.57,20.35,20.35,0,0,1-2.59.16,20,20,0,0,1-2.45-.15,21.29,21.29,0,0,1-2.52-.54c-1-.26-1.92-.57-2.64-.8-.9-.3-1.7-.58-2.43-.87a31.42,31.42,0,0,1-4.71-2.45l-.35-.21c-.65-.4-1.32-.82-2-1.24s-1.51-1.09-2.16-1.6-1-.85-1.54-1.26l-.55-.46c-.67-.55-1.33-1.14-1.95-1.73a34.55,34.55,0,0,1-2.4-2.72,17.6,17.6,0,0,0-1.45-1.54l0,0a12.51,12.51,0,0,0-1-.8l-.42-.3-.51.12-.32.08,0,0-1.59.54-.67.23-1.16.38-1.18.4-1.21.42c-1.28.47-2.58.87-3.9,1.21-.63.16-1.26.29-1.89.43l-.85.19-.83.18c-.6.14-1.2.28-1.8.4-1.39.3-2.81.57-4.19.84l-1.21.23c-1,.21-2.11.4-3.14.58l-2,.36c-1.6.29-3.3.63-5.5,1.1l-4.66,1a1.2,1.2,0,0,1-.56.15h-.15l-.21,0c-1.51.32-3,.67-4.51,1l-.85.2-2,.47c-1.07.26-2.18.53-3.27.76l-1.26.26-1.49.31-1.11.25-1.52.33c-1,.2-1.8.36-2.58.49-.4.06-.81.1-1.24.15l-.92.1c-.41.05-.81.12-1.21.18l-1.2.18-.19,0c-.54.07-1.09.14-1.64.24l-.27,0-.48.09-.17,0-.16.09a.38.38,0,0,1-.13.06l-.43.07H6.32l-.12,0a1.48,1.48,0,0,1-.78,0l-.24-.13H5a.53.53,0,0,1-.08-.17l0-.1a3.64,3.64,0,0,1-.14-.47,5.07,5.07,0,0,1-.13-.56c-.08-.34-.15-.67-.23-1s-.18-.82-.26-1.24c-.22-1.05-.37-2.11-.52-3.23-.07-.46-.13-.92-.2-1.39s-.18-1.16-.28-1.74c-.17-1-.35-2.11-.46-3.16-.19-1.66-.22-3.39-.26-5.06v0c0-1.28,0-2.6,0-3.86v-1.1c0-1.42,0-2.86-.07-4.25l0-.92c0-1.74-.05-3.48,0-5.2,0-1.2.05-2.43.09-3.62,0-.5,0-1,0-1.51s0-1.18,0-1.77c0-1.13,0-2.27.09-3.4.06-1.77.13-3.57.21-5.35.11-2.42.29-4.89.47-7.28.08-1,.15-2,.22-3l.06-.9c.13-2,.27-4.11.46-6.19l2.11.09c0-.26,0-.51.06-.78l-2.09-.19c.08-.79.17-1.58.27-2.35.23-1.85.47-3.64.72-5.33s.53-3.39.84-5.14.64-3.46,1-5.18.8-3.46,1.16-4.92c.42-1.63.86-3.38,1.29-5.16.29-1.22.58-2.45.86-3.68l.36-1.52c.39-1.69.83-3.41,1.31-5.13s1-3.25,1.58-4.76c.42-1.15.87-2.31,1.3-3.44l.54-1.41c.72-1.87,1.32-3.4,1.89-4.8.66-1.6,1.34-3.28,2.09-4.85s1.52-3.17,2.32-4.73c.91-1.8,1.66-3.23,2.38-4.53.44-.81.89-1.61,1.34-2.41.3-.52.6-1,.91-1.54l.29-.49c.45-.75.9-1.52,1.35-2.28l.63-1.09c.19-.35.39-.69.59-1,.94-1.62,1.81-3,2.66-4.39.39-.62.82-1.27,1.4-2.09s1-1.41,1.49-2.06a45.45,45.45,0,0,1,3.28-3.79,25.16,25.16,0,0,1,1.82-1.77l.09-.08c.61-.53,1.2-1,1.84-1.5a17.61,17.61,0,0,1,2.1-1.32c.69-.36,1.44-.71,2.29-1.09s1.49-.61,2.2-.85l1.19-.38c.38-.11.78-.2,1.12-.27a20.53,20.53,0,0,1,5-.27h0a22.31,22.31,0,0,1,2.3.17c.25,0,.52.08.8.14l.25,0,.83.18.34.08c.5.1,1,.2,1.68.29l1.15.13.63.06c2.49.29,5.48.83,7.56,2.47,2.59,2.06,2.53,5.81,3.51,8.75.51,1.54,1.13,3,1.74,4.41s1.2,2.87,1.72,4.16,1.1,2.64,1.66,3.92l.16.39c.23.51.45,1,.69,1.54,1,2.06,2,4.07,3.22,6l0,0c.18.28.36.56.56.83s.47.63.71.94l0,0c.32.37.64.72.91,1s.64.63.95.92l.18.17c1.39,1.22,2.69,2.27,4,3.21l.59.39a6,6,0,0,0,.53.31l.22.11c.3.15.64.31,1,.46l1,.4c1.27.41,2.4.74,3.48,1l.71.14.59.1.23,0c.46.07.91.11,1.35.15l.18,0c.37,0,.74,0,1.11,0s.77,0,1.1,0l.87-.09a6.32,6.32,0,0,0,.67-.1l.88-.19.62-.17.23-.07c.42-.14.84-.3,1.25-.48s.72-.38,1.06-.59l0,0a28.59,28.59,0,0,0,2.61-2c.67-.56,1.34-1.12,2-1.7.44-.37,1-.87,1.58-1.41s1-1,1.48-1.54c.68-.77,1.29-1.46,1.83-2.11A26.5,26.5,0,0,0,120,125l0,0c.4-.64.86-1.38,1.26-2.17l.35-.7c.71-1.46,1.26-2.67,1.74-3.8.12-.27.23-.55.35-.83s.28-.69.43-1c.3-.7.55-1.34.78-2l.15-.45,0-.08a.16.16,0,0,1,.11-.13l.45-.17.16-.5c.09-.06.38-.14,1.28.47a3.71,3.71,0,0,1,.74.74l0,0a10.25,10.25,0,0,1,.68.91c.35.51.68,1,1,1.56l.37.59.14.21,0,.09.39.59c.35.53.69,1,1,1.56.43.74.85,1.52,1.25,2.27l0,.07c.24.45.47.91.7,1.37s.32.64.49,1c.45.87.83,1.63,1.16,2.35l.38.81.18.41a2.69,2.69,0,0,1,.19.61.29.29,0,0,1,0,.13,1.49,1.49,0,0,1-.2.29c-.24.29-.51.59-.85.94s-.73.7-1.13,1.07c-.24.22-.49.44-.72.67-.62.57-1.26,1.19-1.92,1.78-.3.27-.57.52-.84.8l0,0c-.09.11-.18.22-.26.34l-.26.55v.39l0,.12,0,.11.12.3.12.23,0,.08c.15.22.3.42.45.61s.19.25.28.37a11.25,11.25,0,0,1,.7,1.14c.2.36.38.72.57,1.09s.4.79.62,1.19.39.69.59,1,.5.86.72,1.28.37.7.55,1.06.46.92.7,1.37l.6,1.07.15.27c.25.44.49.87.77,1.31l0,0c.3.43.61.83.91,1.22l.19.24.33.45c.17.24.35.49.55.73l.33.41h.59a1.66,1.66,0,0,0,.32,0H140a4.05,4.05,0,0,0,.5-.12l.05,0a11.9,11.9,0,0,0,1.24-.5l.92-.44.23-.12a7.58,7.58,0,0,0,.75-.38l0,.07s0,.08,0,.12l0,.11a14.33,14.33,0,0,0-.18,1.59c0,.32,0,.61,0,.9v.06c0,.2,0,.39,0,.59l0,.18a1.5,1.5,0,0,1,0,.2l.1,1h1.17c.3,0,.58-.06.88-.09a.11.11,0,0,1,.08,0,1.8,1.8,0,0,1,.21.56l0,.08c.15.58.31,1.15.47,1.72l.23.82c.21.76.41,1.54.6,2.3l.07.31c.15.57.3,1.15.44,1.73l.23.89c.15.59.3,1.19.44,1.79l.22.9c.22.9.44,1.77.67,2.65.43,1.67.87,3.45,1.21,5.22.13.7.26,1.39.38,2.09s.28,1.67.41,2.5.23,1.44.35,2.16v.23l0,.07c.32,1.76.67,3.54,1,5.28.2.91.43,1.8.66,2.67s.45,1.74.67,2.62l.23.91c.23.91.46,1.81.68,2.71l0,.09c.06.26.12.53.19.79l2.18,0,0-.21c0-.17.07-.35.11-.52l.14-.64.1-.49c.08-.4.17-.81.26-1.22l.1-.52a1,1,0,0,0,0-.2l0-.18c.11-.51.23-1,.34-1.54s.22-1,.33-1.44l.67-3.37c.15-.78.33-1.56.5-2.34.09-.36.17-.73.25-1.11q.27-1.28.45-2.55l.44-3.18c.08-.52.16-1,.23-1.56l.07-.49c.09-.71.19-1.41.28-2.11s.25-1.52.38-2.28.3-1.69.43-2.54c.26-1.65.46-3.28.67-5.08.12-1,.24-2,.41-3s.38-2.08.59-3.11a.3.3,0,0,0,0-.1c.15-.71.31-1.43.47-2.15l.16-.73c.09-.41.18-.8.29-1.16l.07-.22,0-.24a2.16,2.16,0,0,1,.25-.74l0-.09a8.46,8.46,0,0,1,.44-.77c.43-.66.84-1.23,1.26-1.76a17.69,17.69,0,0,1,1.33-1.54c.44-.44.94-.9,1.55-1.42l1.92-1.6,1.79-1.5.66-.56.77-.65a5.2,5.2,0,0,1,.44-.35l.35-.23.08,0,.13-.08.1,0-.1.59.52.43.09.07a7.73,7.73,0,0,1,1.35,1.66l0,0c.24.36.45.7.64,1s.41.76.59,1.11a19.55,19.55,0,0,1,.95,2.44,48.07,48.07,0,0,1,1.4,5.17c.19.91.37,1.81.51,2.71s.23,1.71.36,2.76c.17,1.34.31,2.7.45,4s.24,2.6.3,3.82v0a1.85,1.85,0,0,0,0,.24l0,.49C183.66,170.16,183.61,173.7,183.53,177.62Z"/><path class="cls-1" d="M123.05,234.19l0,.05,0-.05Z"/><path class="cls-1" d="M121,233.25h0Z"/><path class="cls-1" d="M157.56,194.91v0Z"/><path class="cls-1" d="M157.56,194.88v0Z"/><path class="cls-1" d="M157.56,194.87h0Z"/><polygon class="cls-1" points="130.86 135.58 130.79 135.59 130.87 135.58 130.86 135.58"/></g></g><g id="Path_3057" data-name="Path 3057"><path id="Path_3256" data-name="Path 3256" class="cls-1" d="M117,93.12l-.19,0a5.23,5.23,0,0,1-.56,0,4.27,4.27,0,0,1-1.94-.56,1,1,0,0,1-.43-1.15.66.66,0,0,1,.09-.19,2.16,2.16,0,0,1-.33-.64.83.83,0,0,1,0-.75h0a.38.38,0,0,1,.32-.18.69.69,0,0,1,.48.27,5.25,5.25,0,0,0,.42.4c.13.1.26.2.4.29s.33.19.51.28.28.11.42.15a3.69,3.69,0,0,0,.45.11l.34,0h0l.28-.08.15-.07.17-.11.34-.28.28-.3a4.4,4.4,0,0,0,.3-.45c.08-.13.15-.26.22-.4l.12-.32a1.38,1.38,0,0,1,.42-.68,1.05,1.05,0,0,1,.47-.21,1,1,0,0,1,1.12.82h0a1,1,0,0,1,0,.38,1.8,1.8,0,0,1-.06.22,6.2,6.2,0,0,1-.23.69,4.67,4.67,0,0,1-.51.93,5.13,5.13,0,0,1-.65.81,3.49,3.49,0,0,1-1,.72,2.4,2.4,0,0,1-.64.21,2,2,0,0,1-.55,0A.75.75,0,0,1,117,93.12Z"/></g><g id="Path_3058" data-name="Path 3058"><path id="Path_3257" data-name="Path 3257" class="cls-1" d="M122.23,80.12c-.34,0-.67,0-1-.06a7.09,7.09,0,0,1-1-.14,1.23,1.23,0,0,1-.91-1.47h0a1.23,1.23,0,0,1,1.16-1,5.63,5.63,0,0,1,.59,0l.46.08c.4.06.8.11,1.21.14s1,0,1.53,0a5.46,5.46,0,0,0,.69-.1l.36-.1.23-.1a2.26,2.26,0,0,0,.2-.13,1.56,1.56,0,0,0,.2-.16,1.07,1.07,0,0,0,.14-.16l0-.07h0v0a1.18,1.18,0,0,0-.11-.19l-.2-.24a8.3,8.3,0,0,0-.69-.64c-.27-.24-.53-.47-.8-.69-.57-.47-1.15-.94-1.68-1.45s-1.1-1.1-1.63-1.68a11.6,11.6,0,0,1-1.34-1.71c-.37-.6-.69-1.24-1-1.88-.14-.29-.28-.59-.41-.89l-.2-.47a1.42,1.42,0,0,1-.12-.54.46.46,0,0,1,.44-.45h0l.16,0h0a2,2,0,0,1,.6.64l0-.06,1.12,1.59a16.76,16.76,0,0,0,1.08,1.4A30.62,30.62,0,0,0,124,72.17c.56.45,1.15.86,1.71,1.31A12,12,0,0,1,127.45,75a4.53,4.53,0,0,1,.65,1,2,2,0,0,1,.11,1.39,2.77,2.77,0,0,1-.77,1.24,4.34,4.34,0,0,1-2.13,1.16,8,8,0,0,1-1.11.19,14.12,14.12,0,0,1-1.59.09Z"/></g><g id="Path_3059" data-name="Path 3059"><path id="Path_3258" data-name="Path 3258" class="cls-1" d="M110.77,82.29a.69.69,0,0,1-.43-.79,3.35,3.35,0,0,1,.33-.75c.1-.2.21-.4.32-.6.22-.44.42-.88.63-1.32s.45-.91.69-1.35c.13-.23.24-.45.38-.67l.21-.34a1.35,1.35,0,0,1,.26-.33l.1-.06a.28.28,0,0,1,.31.08.3.3,0,0,1,.06.2h0s0,.08,0,.13v.05a.25.25,0,0,1-.08.18v0l-.14.39-.26.72c-.18.47-.36,1-.53,1.43s-.32.92-.48,1.39l-.21.64a2.34,2.34,0,0,1-.35.75.73.73,0,0,1-.36.26.7.7,0,0,1-.43,0Z"/></g><g id="Path_3060" data-name="Path 3060"><path id="Path_3259" data-name="Path 3259" class="cls-1" d="M107.2,82.86a.7.7,0,0,1-.51-.83,3.12,3.12,0,0,1,.31-.76c.11-.19.2-.39.3-.59l0,.06q.2-.42.36-.87c.07-.17.13-.34.19-.51s.05-.14.07-.21a1.48,1.48,0,0,1,.12-.29.29.29,0,0,1,.35-.22.31.31,0,0,1,.2.17.75.75,0,0,1,0,.42l0,.28c0,.21-.08.43-.11.64-.07.37-.15.74-.21,1.1a.17.17,0,0,1,0-.07c0,.18-.06.35-.08.53a4.21,4.21,0,0,1-.18.72.7.7,0,0,1-.65.45Z"/></g><g id="Path_3061" data-name="Path 3061"><path id="Path_3260" data-name="Path 3260" class="cls-1" d="M102,84.89a.62.62,0,0,1-.35-.22.66.66,0,0,1-.14-.38,2.75,2.75,0,0,1,.15-1l.27-.91c.17-.61.33-1.21.45-1.83,0-.14,0-.28.06-.4h0a.33.33,0,0,1,.07-.13.27.27,0,0,1,.39,0l.06.08a1.72,1.72,0,0,1,.12.59,4.51,4.51,0,0,1,0,.52c0,.37,0,.75-.07,1.12s-.06.69-.08,1a2.7,2.7,0,0,1-.24,1.19.69.69,0,0,1-.56.34Z"/></g><g id="Path_3062" data-name="Path 3062"><path id="Path_3261" data-name="Path 3261" class="cls-1" d="M97.81,84.44a.65.65,0,0,1-.47-.79.14.14,0,0,1,0-.06,4.6,4.6,0,0,1,.31-.63,4.09,4.09,0,0,0,.23-.47c.13-.3.24-.6.34-.91v0c0-.09,0-.19.07-.28a.4.4,0,0,1,.2-.22.35.35,0,0,1,.3,0,.36.36,0,0,1,.19.26,1.45,1.45,0,0,1,0,.36,4.51,4.51,0,0,1-.1.53l-.21,1h0v0c0,.2-.07.39-.08.58a.66.66,0,0,1-.65.58Z"/></g><g id="Path_3063" data-name="Path 3063"><path id="Path_3262" data-name="Path 3262" class="cls-1" d="M129.31,75.06a2.76,2.76,0,0,1,.18-1.14c.09-.33.19-.64.3-1a4.38,4.38,0,0,1,.41-.91,1.54,1.54,0,0,1,.27-.36.42.42,0,0,1,.65.13.43.43,0,0,1,0,.25.56.56,0,0,1,0,.12.37.37,0,0,1-.21.42c0,.12-.06.24-.08.36v-.06c-.05.35-.1.7-.13,1,0,.18,0,.36,0,.53s0,.19,0,.28l-.06.34a.68.68,0,0,1-.65.52h0A.69.69,0,0,1,129.31,75.06Z"/></g><g id="Path_3064" data-name="Path 3064"><path id="Path_3263" data-name="Path 3263" class="cls-1" d="M132.57,73.64c0-.39.13-.78.2-1.16,0,0,0,0,0,.07l0-.18a.06.06,0,0,1,0,0c.06-.4.11-.8.13-1.2V71a.38.38,0,0,1,.2-.5h0a.32.32,0,0,1,.19,0c.35,0,.4.43.44.7s.07.53.09.8v.12h0v.07h0v.06h0l.09,1.1v-.06c0,.15,0,.3,0,.45a.72.72,0,0,1-.68.72h0a.71.71,0,0,1-.69-.73h0Z"/></g><g id="Path_3065" data-name="Path 3065"><path id="Path_3264" data-name="Path 3264" class="cls-1" d="M104.57,73.7a10,10,0,0,1-1.1-.09,9.09,9.09,0,0,1-1.25-.3,5.09,5.09,0,0,1-2.72-2.43,5,5,0,0,1-.37-1.19A5.24,5.24,0,0,1,99,68.57a5.45,5.45,0,0,1,.19-1.21,6.68,6.68,0,0,1,2.24-3.23.74.74,0,0,1,0-.26,1,1,0,0,1,.44-.61,4.56,4.56,0,0,1,.75-.41,4.83,4.83,0,0,1,1.07-.29,5.52,5.52,0,0,1,1.22-.05,5.73,5.73,0,0,1,1.1.17c.29.08.58.17.86.27a10.24,10.24,0,0,1,1.18.4,6.72,6.72,0,0,1,1.16.6,3.56,3.56,0,0,1,.5.39,1.09,1.09,0,0,1,.27.33.3.3,0,0,1,0,.38l0,0a4.4,4.4,0,0,1,.52.8,5,5,0,0,1,.35.93A4.37,4.37,0,0,1,111,68a5.92,5.92,0,0,1-.45,2.2,3.91,3.91,0,0,1-.76,1.27,5.9,5.9,0,0,1-.86.71,8.1,8.1,0,0,1-2,1.16,7.11,7.11,0,0,1-1.2.33,4.6,4.6,0,0,1-.91.08Zm.6-2.2a3.85,3.85,0,0,0,.49-.08c.24-.06.48-.12.71-.2a4.37,4.37,0,0,0,.49-.23c.48-.26.94-.56,1.39-.86l.18-.14,0,0,0-.07c.08-.12.14-.25.21-.38l.21-.54c0-.15.07-.3.11-.44s0-.35,0-.52,0-.27,0-.4,0-.18,0-.28l-.06-.19c0-.1-.08-.19-.13-.29a1.2,1.2,0,0,0-.16-.27,4.62,4.62,0,0,0-.34-.41,5.66,5.66,0,0,0-.43-.42,2.75,2.75,0,0,0-.33-.23,5.83,5.83,0,0,0-.7-.37c-.31-.13-.64-.25-1-.36s-.4-.1-.6-.14a4.6,4.6,0,0,0-.52-.06h-.34l-.11,0c-.25.1-.5.2-.74.32s-.39.23-.58.35l-.36.3a7.54,7.54,0,0,0-.55.59c-.14.18-.27.36-.4.55a6.36,6.36,0,0,0-.3.58l-.15.38c0,.16-.07.31-.11.47l0,.33c0,.12,0,.24,0,.36a2.76,2.76,0,0,0,.06.4,3.45,3.45,0,0,0,.12.43,1.89,1.89,0,0,1,.11.25l.15.23.3.37c.11.1.22.21.34.3l.24.17c.1.06.2.1.3.15l.37.13.6.14c.3,0,.59.07.89.09h.54Z"/></g><g id="Path_3066" data-name="Path 3066"><path id="Path_3265" data-name="Path 3265" class="cls-1" d="M106.54,69.08a2.52,2.52,0,0,1-.9-.61,2,2,0,0,1-.35-.48,1.82,1.82,0,0,1-.16-.5,2.35,2.35,0,0,1,0-.53,2.43,2.43,0,0,1,.14-.66,1.94,1.94,0,0,1,1.41-1.46,1,1,0,0,1,.42,0,1.63,1.63,0,0,1,1.15,0,1.48,1.48,0,0,1,.53.33,2,2,0,0,1,.41.58,2.68,2.68,0,0,1,.12,1.93,2.26,2.26,0,0,1-1.65,1.49,2.19,2.19,0,0,1-.36,0A2,2,0,0,1,106.54,69.08Z"/></g><g id="Path_3067" data-name="Path 3067"><path id="Path_3266" data-name="Path 3266" class="cls-1" d="M128.22,67.86a7.55,7.55,0,0,1-1.15-.15,4.4,4.4,0,0,1-1.8-.78,5.37,5.37,0,0,1-.84-.81,6.86,6.86,0,0,1-.67-.93,4.17,4.17,0,0,1-.47-1.11,5.29,5.29,0,0,1,.09-2.44,6.1,6.1,0,0,1,1-2.15,5.7,5.7,0,0,1,1.31-1.33,8.57,8.57,0,0,1,.79-.55,5.76,5.76,0,0,1,.89-.46,6.12,6.12,0,0,1,.69-.22,3.36,3.36,0,0,1,.9-.09.64.64,0,0,1,.2,0,4.93,4.93,0,0,1,1.2.15,5.72,5.72,0,0,1,1.06.35,4.6,4.6,0,0,1,.9.61,7.24,7.24,0,0,1,.8.77,3.29,3.29,0,0,1,.59,1.07,5.58,5.58,0,0,1,.19,1.07,10.5,10.5,0,0,1,0,2.17,7.53,7.53,0,0,1-.19,1.14,6.43,6.43,0,0,1-.43,1.18,4.58,4.58,0,0,1-3.72,2.53,5.49,5.49,0,0,1-.58,0Zm1.41-2,.3,0,.28-.08c.1,0,.2-.08.3-.12l.33-.2-.1.08.18-.13h0l.27-.22c.09-.08.14-.15.21-.22s.14-.17.2-.26.17-.3.25-.46a5.17,5.17,0,0,0,.18-.51c.05-.2.09-.39.13-.59.06-.44.11-.87.13-1.31,0-.24,0-.47,0-.71s-.05-.39-.08-.58l-.08-.26-.06-.13A.57.57,0,0,0,132,60l-.15-.18a6.2,6.2,0,0,0-.46-.42c-.16-.13-.32-.25-.5-.37l-.2-.11-.26-.1a4.05,4.05,0,0,0-.5-.12l-.93-.12a.88.88,0,0,1-.4-.22l-.07,0a4.37,4.37,0,0,0-.49.23,4.57,4.57,0,0,0-.47.29,8.4,8.4,0,0,0-.8.65c-.16.16-.31.31-.46.48l-.05.05h0l-.06.07,0,0-.28.39a4.92,4.92,0,0,0-.24.45,5.12,5.12,0,0,0-.25.65c0,.16-.08.32-.11.48s-.07.53-.09.79v.31a1.26,1.26,0,0,0,0,.27,1,1,0,0,0,.07.25,2.29,2.29,0,0,0,.1.23c.08.14.17.28.26.42s.33.42.51.62l.27.24a1.53,1.53,0,0,0,.22.16l.27.15.26.09a4.48,4.48,0,0,0,.5.11,10.89,10.89,0,0,0,1.4.15l.53,0Z"/></g><g id="Path_3068" data-name="Path 3068"><path id="Path_3267" data-name="Path 3267" class="cls-1" d="M129.37,62.68a2.69,2.69,0,0,1-1.13-.6,2.09,2.09,0,0,1-.58-.91,2.65,2.65,0,0,1-.06-1.25,3.14,3.14,0,0,1,.53-1.28,1.91,1.91,0,0,1,1-.68,2.35,2.35,0,0,1,1.34,0,3.13,3.13,0,0,1,.6.24,1,1,0,0,1,.28.25l.06.08a.28.28,0,0,1,.11.23v.05h0a1.94,1.94,0,0,1,.55.44,1.38,1.38,0,0,1,.28.52,1.84,1.84,0,0,1,.07.7,2.1,2.1,0,0,1-.21.7,3.5,3.5,0,0,1-.24.42,2.4,2.4,0,0,1-1.48,1.1,3.25,3.25,0,0,1-.44,0A3,3,0,0,1,129.37,62.68Z"/><path class="cls-1" d="M129.79,59c-.45.4-.32.26-.18.14a1.1,1.1,0,0,1,.28-.2l-.11,0-.15.06-.06,0-.12.09-.07.07a.86.86,0,0,1-.07.1s0,.07-.05.1,0,.07,0,.11Z"/></g><g id="Path_3069" data-name="Path 3069"><path id="Path_3268" data-name="Path 3268" class="cls-1" d="M101.84,65.1a1,1,0,0,1-.33-.09,1.51,1.51,0,0,1-.37-.22c-.18-.14-.34-.29-.5-.44s-.3-.34-.44-.52a2.87,2.87,0,0,1-.45-.68.66.66,0,0,1,.34-.87h0a.67.67,0,0,1,.42,0,.71.71,0,0,1,.42.3,5.05,5.05,0,0,1,.39.77c.09.2.18.4.28.59a4.57,4.57,0,0,0,.29.47c.09.11.18.22.26.34a.24.24,0,0,1-.08.34h0a.39.39,0,0,1-.18,0Z"/></g><g id="Path_3070" data-name="Path 3070"><path id="Path_3269" data-name="Path 3269" class="cls-1" d="M104.11,64.09A.07.07,0,0,1,104,64h0a2,2,0,0,1-.17-.46l-.15-.5c-.1-.33-.2-.67-.32-1-.05-.16-.11-.31-.17-.47a1.6,1.6,0,0,1-.1-.31,1.5,1.5,0,0,1-.06-.29,1,1,0,0,1,0-.18.84.84,0,0,1,.07-.24.61.61,0,0,1,.78-.36.65.65,0,0,1,.31.26.67.67,0,0,1,.07.44V61h0c0,.27,0,.53,0,.8s0,.5,0,.75,0,.54,0,.8a1.53,1.53,0,0,1-.13.7h0a.09.09,0,0,1-.08.08Z"/></g><g id="Path_3071" data-name="Path 3071"><path id="Path_3270" data-name="Path 3270" class="cls-1" d="M106.08,63.41a.57.57,0,0,1,0-.14,1.09,1.09,0,0,1,0-.18l0-.39c0-.22.06-.45.09-.67s.06-.48.08-.71a6.49,6.49,0,0,1,.11-.77.59.59,0,0,1,.69-.44h0a.53.53,0,0,1,.36.26.59.59,0,0,1,.07.43c-.14.47-.34.92-.52,1.38-.09.21-.17.42-.26.64s-.1.24-.16.36a.83.83,0,0,1-.07.13.45.45,0,0,1-.1.14.18.18,0,0,1-.12,0A.16.16,0,0,1,106.08,63.41Z"/></g><g id="Path_3072" data-name="Path 3072"><path id="Path_3271" data-name="Path 3271" class="cls-1" d="M125.92,58.59c-.15-.18-.3-.36-.44-.55l-.43-.54a2.31,2.31,0,0,1-.2-.24.7.7,0,0,1-.13-.17,1.3,1.3,0,0,1-.14-.32A.62.62,0,0,1,125,56h0a.63.63,0,0,1,.71.28l.12.23c0,.07,0,.14.07.2s0,.2.08.3.14.44.23.66l0,0c.09.24.18.47.26.71h0a1.18,1.18,0,0,1,.07.2.26.26,0,0,1,0,.3.34.34,0,0,1-.14,0C126.16,58.87,126,58.7,125.92,58.59Z"/></g><g id="Path_3073" data-name="Path 3073"><path id="Path_3272" data-name="Path 3272" class="cls-1" d="M128.34,58a.56.56,0,0,1-.19-.31,3.43,3.43,0,0,1-.06-.34c0-.25-.06-.51-.1-.76s-.06-.46-.1-.69a1.66,1.66,0,0,1,.07-1.12.66.66,0,0,1,1.18,0h0a.67.67,0,0,1,0,.42v0a13.93,13.93,0,0,1-.17,1.43c0,.22,0,.45-.08.66s-.06.53-.27.66a.23.23,0,0,1-.14,0A.35.35,0,0,1,128.34,58Z"/></g><g id="Path_3074" data-name="Path 3074"><path id="Path_3273" data-name="Path 3273" class="cls-1" d="M130.89,58a.2.2,0,0,1-.2-.2v0h0c0-.58.09-1.17.12-1.75v0h0a1.93,1.93,0,0,1,0-.24c0-.43,0-.85,0-1.28a.68.68,0,1,1,1.36.14s0,.06,0,.09a8.18,8.18,0,0,1-.25.8c-.08.23-.16.46-.23.7l0-.06-.28.93a3.53,3.53,0,0,1-.15.46c-.06.17-.17.45-.39.45Z"/></g><g id="Path_3075" data-name="Path 3075"><path id="Path_3274" data-name="Path 3274" class="cls-1" d="M94.5,58.11a1.86,1.86,0,0,1-.2-1A6.58,6.58,0,0,1,94.36,56,9,9,0,0,1,95,53.67c.07-.14.13-.29.21-.43s.24-.41.37-.62a6.45,6.45,0,0,1,.68-.88A13.57,13.57,0,0,1,98,50.14a8.8,8.8,0,0,1,3.51-1.55,6.09,6.09,0,0,1,1.85-.17,4.26,4.26,0,0,1,2,.61,1.2,1.2,0,0,1,.49.53,1.1,1.1,0,0,1-.44,1.37,1,1,0,0,1-.82.13,8.12,8.12,0,0,0-1-.25l-.42-.05a3.57,3.57,0,0,0-.46,0c-.27,0-.54.08-.81.13q-.66.15-1.29.36c-.31.12-.62.25-.92.4a6.61,6.61,0,0,0-.84.53,14.43,14.43,0,0,0-1.12.92l-.58.6c-.1.13-.2.25-.28.37l-.3.44c-.16.29-.31.58-.46.88s-.33.81-.47,1.23l0-.06c-.08.26-.15.52-.22.78a2.5,2.5,0,0,1-.31.78.38.38,0,0,1-.29.15A.37.37,0,0,1,94.5,58.11Z"/></g><g id="Path_3076" data-name="Path 3076"><path class="cls-5" d="M223.78,420.85l0-.11a2.94,2.94,0,0,0-1.43-2l0,0a2.83,2.83,0,0,0-2.26-.2l-.1,0a4.43,4.43,0,0,0-1.1.63c-.33.23-.67.44-1,.67l-.44.28q-.85.54-1.71,1l-.63.37c-.5.28-1,.58-1.5.88-.75.45-1.51.93-2.31,1.46l-.7.46c-.07-.45-.14-.91-.22-1.36-.19-1.19-.41-2.48-.68-4l-.15-.84c-.19-1-.37-2-.54-3s-.35-2.35-.53-3.75-.36-2.77-.56-4.17-.43-2.59-.68-3.92c-.27-1.49-.58-3-.88-4.46-.21-1-.42-2.05-.62-3.07s-.53-2.67-.87-4.19c-.29-1.26-.59-2.51-.89-3.77l-.33-1.39c-.49-2.05-1-4.17-1.47-6.26-.17-.78-.34-1.55-.52-2.32l.15-.38-.31-.44-.06-.24,0-.17-.06-.18h0c-.26-1.19-.51-2.37-.76-3.56s-.44-2.09-.67-3.14c-.1-.5-.21-1-.32-1.5l-.22-1h0L199,366c-.26-1.2-.54-2.44-.86-3.67-.37-1.42-.76-2.78-1.09-3.93l-.44-1.54c-.23-.78-.45-1.57-.68-2.35-.34-1.2-.66-2.45-1-3.65l0-.12c-.65-2.54-1.26-5.14-1.82-7.56-.49-2.14-1.16-4.93-2-7.68-.47-1.55-1-3.11-1.47-4.61-.33-1-.65-2-1-3-.79-2.5-1.51-5-2.18-7.41-.57-2-1.25-4.41-2-6.77.39-1.51.79-3,1.18-4.51l.12-.45c.35-1.32.71-2.68,1-4.07.3-1.57.56-3.17.78-4.77a70.87,70.87,0,0,0,.6-9.21v-.18c0-.65,0-1.33,0-2-.06-1-.13-1.69-.23-2.4a15,15,0,0,0-.52-2.28l-.11-.35c-.13-.41-.26-.8-.34-1.17a7.93,7.93,0,0,1-.14-.85l-.06-.35a10.87,10.87,0,0,0-.57-2.1,27.26,27.26,0,0,0-1.84-3.81,22.82,22.82,0,0,0-2.45-3.57c-.88-1.05-1.8-2-2.93-3.2a26.08,26.08,0,0,0-3.26-2.77c-1.15-.85-2.3-1.62-3.4-2.35a36,36,0,0,0-3.72-2.12c-1.29-.65-2.58-1.23-3.79-1.77s-2.44-1.07-3.84-1.64a61.53,61.53,0,0,0-8.27-2.51c-2.6-.64-5.32-1.19-8.31-1.68-2.6-.43-5.17-.75-8.21-1.11l-2.16-.26-2-.24c-1.29-.15-2.66-.32-4-.52-1.89-.28-3.81-.54-5.67-.8l-2.44-.34-.41-.05-1-.14c0-.35,0-.71-.1-1.09s-.14-.88-.23-1.32-.14-.73-.22-1.1l-.36-1.73a15,15,0,0,1-2.22,3.69,1.32,1.32,0,0,1-.07.42,12.71,12.71,0,0,1-3.37,4.65,53.5,53.5,0,0,1-4.12,3.55,14.07,14.07,0,0,1-4.76,2.63,15.5,15.5,0,0,1-4.85.45,1.09,1.09,0,0,1-1,.52,18.62,18.62,0,0,1-10.59-3.84c-1.86-.15-3.42-1.53-4.75-3a1.2,1.2,0,0,1-.41.2,1.24,1.24,0,0,1-.94-.12c-1-.66-1.73-1.58-2.64-2.32a5.8,5.8,0,0,0-.9-.54,1.18,1.18,0,0,1-.56-.73,1,1,0,0,1,0-.45,13.61,13.61,0,0,1-2.39-2.86,1.17,1.17,0,0,1-.36-.51c-.54-.55-1.07-1.12-1.58-1.7l-.43-.31c-.55-.37-1.13-.72-1.7-1.07-2.61,1.55-5.64,2.16-8.5,3.2-1.8.66-3.45,1.66-5.27,2.29a44.34,44.34,0,0,1-6,1.45,1.28,1.28,0,0,1-1.51-1.12,19,19,0,0,1-6.82,1.29,1.45,1.45,0,0,1-.25.1c-2.57.58-5,1.39-7.65,1.84l-.22,0a1,1,0,0,1-.9.34,2.34,2.34,0,0,1-.55-.1c-2,.33-3.95.65-5.92,1-4.87.91-9.73,2.84-14.73,2.76a3,3,0,0,0-.23,1.18,2.44,2.44,0,0,0,0,.66,1.83,1.83,0,0,1,0,.21c.06.5.14,1,.25,1.63a22,22,0,0,0,.8,3.07c.58,1.74,1.27,3.44,1.95,5.09l.42,1c.63,1.56,1.13,2.74,1.63,3.85a34,34,0,0,0,2,3.81l.57.92,1.68,2.74.58,1,1.55,2.54.15.24c.35.56.71,1.14,1.13,1.71.06.1.13.19.2.29s.34.48.54.73l.7.88c.41.51.84,1,1.26,1.44l.19.2c.46.51.94,1,1.41,1.51l3.05,3.16c.46.47,1,.95,1.48,1.44s1,.9,1.54,1.37l.54.45.09.07c.68.55,1.43,1.12,2.3,1.74.7.49,1.42.94,2.11,1.37l.1.07c.53.33,1.06.63,1.58.93l.76.44,1.47.86.76.44c1.2.71,2.48,1.44,3.82,2.08s2.53,1.14,4.12,1.74c1.23.47,2.54.94,4,1.42l3.85,1.3c1.59.54,2.94.95,4.23,1.27s2.57.61,4.3.94c1,.19,2,.36,3,.53l1.26.21,1.73.31,2.45.43c2.76.47,5.66.83,8.62,1.06,1.1.09,2.22.15,3.3.22l.89.05,3.28.21,1.09.08c2.7.18,5.48.37,8.24.48,2.61.11,5.25.11,7.81.12h2.28c2.27,0,4.52,0,6.83,0q4.26-.11,8.49-.63c2.76-.32,5.51-.66,8.27-1l1.7-.21,2.32-.29,1.07-.13.27,0c-.08.39-.15.78-.22,1.17l-.2,1.1c-.2,1.09-.42,2.22-.6,3.34-.22,1.3-.4,2.61-.58,3.88l-.08.6c-.2,1.42-.41,2.85-.63,4.28-.14.87-.27,1.73-.41,2.6l-.3,1.87c-.21,1.34-.42,2.8-.63,4.47-.18,1.49-.35,3-.5,4.45s-.31,2.87-.49,4.3-.36,2.76-.54,4.15l-.06.42c-.23,1.71-.41,3.27-.56,4.77s-.27,2.91-.38,4.32l-.05.56c-.12,1.43-.24,2.86-.35,4.28s-.19,2.82-.27,4.18l0,.5c-.09,1.49-.17,3-.26,4.47-.16,2.71-.29,5.59-.44,9.35V383a1.27,1.27,0,0,0,0,.2v0c0,.11,0,.22,0,.33v.05c0,.11,0,.23,0,.33v.11c-.05,1.39-.11,2.78-.16,4.18l-.08,2.38c-.09,2.48-.21,5.74-.27,9-.07,3-.06,5.92-.06,9.2v.93c0,1.2,0,2.39,0,3.61v1.06c0,1.16,0,2.36,0,3.53a35,35,0,0,0,.37,4.69,19.41,19.41,0,0,0,.73,3.4l.06.17c.07.19.15.4.25.63a3.77,3.77,0,0,0,.41.7l0,.05c.08.08.15.17.23.24l.1.11a3.06,3.06,0,0,0,1,.7,2.82,2.82,0,0,0,.95.23h.23a3,3,0,0,0,2.24-1,5.75,5.75,0,0,0,.88-1.41,18.46,18.46,0,0,0,.66-1.75l.1-.3c.31-.95.64-1.93.93-2.92.07-.25.13-.49.18-.73.77,0,1.54,0,2.29,0l1,0c1.29,0,2.58.08,3.82.09h3.8c.84,0,1.68-.05,2.51-.14s1.45-.18,2.28-.32l2.07-.35c.8-.14,1.59-.28,2.38-.4a35.58,35.58,0,0,0,4.49-.86,14.71,14.71,0,0,0,2.33-.84,8,8,0,0,0,2.18-1.46,4.91,4.91,0,0,0,1.08-1.4,3,3,0,0,0,.24-2.34l0-.09a3.33,3.33,0,0,0-1.51-1.79l0,0a8.18,8.18,0,0,0-2.39-.83L169,410c-.62-.13-1.25-.27-1.87-.42s-1.5-.36-2.33-.53l-.36-.07-1.92-.4-.24-.06-1.13-.24c.13-.55.29-1.17.46-1.77s.34-1.21.52-1.81c.23-.79.47-1.61.69-2.43s.38-1.49.56-2.24.33-1.39.51-2.08c.27-1,.57-2.05.86-3.05.13-.46.27-.93.4-1.4.38-1.35.75-2.72,1.1-4.05l.09-.34c.4-1.48.77-3,1.12-4.5.17-.75.33-1.49.5-2.24l.12-.54c.37,1.37.72,2.62,1.08,3.82.53,1.8,1.1,3.57,1.64,5.29.46,1.43,1,3.32,1.61,5.23s1.11,3.59,1.68,5.17c.85,2.37,1.69,4.77,2.5,7.13.25.76.5,1.51.74,2.27.32,1,.64,2,1,3s.64,1.74,1,2.58l0,.05.47,1.26c.14.39.29.78.44,1.17l0,.09c.31.81.63,1.66,1,2.51.45,1,.84,1.81,1.2,2.54.83,1.65,1.69,3.32,2.55,4.95l.64,1.26q.42.81.81,1.62c.15.31.3.62.44.93l.74,1.53c.6,1.21,1.28,2.36,1.94,3.48.28.46.55.92.82,1.38.45.79.89,1.61,1.32,2.41s.77,1.44,1.17,2.15l.28.5c.35.61.69,1.23,1,1.84l.31.53.27.45a9,9,0,0,0,.56.86l0,0a2.87,2.87,0,0,0,2.18,1.12l.57,0,.32-.22h.33a3,3,0,0,0,2.32-1.24,3.15,3.15,0,0,0,.54-2.23,10.87,10.87,0,0,0-.18-1.12c-.09-.42-.18-.84-.26-1.25l0-.24c-.16-.82-.35-1.63-.53-2.42,1.16-.33,2.33-.68,3.46-1.1a40.6,40.6,0,0,0,4.77-2l.15-.08.41-.22.12-.06q.84-.43,1.65-1c.45-.3,1-.65,1.52-1.05.79-.61,1.54-1.25,2.27-1.87l.41-.35.87-.74c1-.83,2-1.7,3-2.63a15.55,15.55,0,0,0,1.9-2.15c.47-.64.87-1.3,1.27-1.94l0,0,.06-.08.05-.09c.19-.31.41-.66.6-1A4.68,4.68,0,0,0,223.78,420.85Zm-58.62-41.29c-.16.69-.31,1.38-.46,2.06s-.33,1.47-.5,2.21c-.34,1.47-.7,2.95-1.09,4.39l-.09.34c-.35,1.31-.71,2.67-1.09,4-.13.46-.26.92-.4,1.38-.29,1-.6,2.08-.88,3.14-.18.71-.35,1.41-.53,2.14s-.35,1.45-.54,2.17-.44,1.57-.67,2.34c-.18.62-.36,1.24-.53,1.86-.22.79-.42,1.58-.58,2.26-.06.22-.11.44-.16.66L157,411l1.84.26.84.13c.61.1,1.21.23,1.85.37l.24.06,2,.41.36.08c.78.15,1.54.34,2.22.5l1.93.44.28.06a5.17,5.17,0,0,1,1.28.41,1.55,1.55,0,0,1-.24.27l0,0a4.07,4.07,0,0,1-.6.48,4.7,4.7,0,0,1-.69.39,12.2,12.2,0,0,1-1.78.65,33,33,0,0,1-4.08.77h-.05c-.82.13-1.65.27-2.47.42l-2,.34c-.77.13-1.46.23-2.1.3s-1.44.11-2.17.11h-3.76c-1.22,0-2.48,0-3.75-.08l0,1.29v-1.29l-1,0c-1.25-.05-2.54,0-3.83,0l-1.3,0-.27,1.28-.12.58c-.08.43-.16.83-.27,1.21-.27.92-.59,1.87-.89,2.8l-.11.32a12.19,12.19,0,0,1-.54,1.42l-.06.15,0-.14,0-.07a16.84,16.84,0,0,1-.6-2.82,34.3,34.3,0,0,1-.34-4.3c0-1.16,0-2.34,0-3.49v-1.07c0-1.21,0-2.4,0-3.6v-.93c0-3.26,0-6.19,0-9.12.07-3.24.18-6.49.27-9l.09-2.38c0-1.4.1-2.8.15-4.2l-1.48-.06h1.49v-.4l-1.35-.06h1.35c0-.07,0-.14,0-.21v-.08l-1.43-.07h1.44V383c.14-3.74.27-6.61.43-9.3,0-.25,0-.49,0-.74a59,59,0,0,1,13.95,1.43c4.72,1,9.46,2.28,14.34,2C165.67,377.45,165.41,378.5,165.16,379.56ZM174,389.9c-.54-1.7-1.1-3.45-1.62-5.22-.47-1.58-.94-3.26-1.44-5.16-.29-1.1-.66-2.55-1-4l-.24-1-3.25-.06h0c-.05,0-.08,0-.12,0-5.17.4-10.13-1.05-15.14-2.11a58.84,58.84,0,0,0-13.43-1.3c0-.58.07-1.16.1-1.74l0-.49c.07-1.35.15-2.75.25-4.11s.23-2.84.35-4.26l.05-.56c.12-1.4.24-2.86.38-4.28s.32-3,.55-4.65l.05-.42c.19-1.4.38-2.79.55-4.18s.34-2.93.49-4.35.32-2.94.5-4.39c.21-1.64.41-3.07.61-4.37l.3-1.86c.15-.88.29-1.75.42-2.62.22-1.44.44-2.9.64-4.33l.08-.59c.17-1.25.35-2.55.56-3.8.18-1.09.39-2.2.59-3.27l.21-1.11c.12-.67.25-1.32.4-1.95.1-.43.23-.87.36-1.29L146,310l-2.51.27-2.72.32-1.07.13-2.32.28-1.71.21q-4.11.51-8.26,1a79.16,79.16,0,0,1-8.15.61c-2.25,0-4.5,0-6.75,0h-2.29c-2.52,0-5.13,0-7.68-.12-2.71-.1-5.48-.29-8.15-.47l-1.1-.08-3.3-.21-.9-.05c-1.06-.06-2.16-.13-3.23-.21-2.86-.23-5.66-.57-8.32-1l-2.43-.42-1.74-.31-1.28-.22-2.94-.52c-1.66-.32-2.93-.59-4.1-.89s-2.47-.69-4-1.2l-3.87-1.3c-1.41-.47-2.67-.92-3.86-1.37-1.51-.58-2.74-1.09-3.88-1.63s-2.43-1.28-3.56-1.95l-.76-.44-1.48-.87-.78-.45c-.51-.29-1-.57-1.47-.87l-.1-.06c-.69-.43-1.33-.83-1.94-1.26-.82-.59-1.53-1.13-2.17-1.64l-.46-.38c-.53-.44-1.05-.92-1.5-1.34s-1-.89-1.36-1.32c-1-1-2-2.08-3-3.14-.46-.48-.92-1-1.36-1.45l-.19-.2c-.38-.41-.77-.84-1.11-1.27l-.7-.88c-.15-.18-.28-.37-.42-.56l-.23-.33c-.34-.47-.65-1-1-1.51l-.15-.25c-.52-.83-1-1.66-1.53-2.5l-.58-1-1.7-2.76-.57-.92A29.6,29.6,0,0,1,19.44,272c-.47-1.07-1-2.22-1.58-3.74l-.42-1c-.66-1.59-1.33-3.24-1.88-4.88a21.44,21.44,0,0,1-.68-2.62c-.06-.31-.11-.6-.15-.88a20.36,20.36,0,0,0,2.19-.24c.61-.11,1.14-.22,1.64-.34s.82-.24,1.21-.36l.17,0c.69-.21,1.41-.43,2.11-.6l1.06-.22,1-.22,1.36-.27.79-.15,1-.22c.34-.08.68-.16,1-.22l.2,0,1.7-.28.93-.1c.32,0,.65-.05,1-.1.66-.08,1.27-.21,2-.36s1.43-.37,2-.56,1.11-.28,1.69-.4,1.14-.23,1.87-.4,1.21-.29,1.81-.45,1-.26,1.6-.36l1.1-.15,1-.13c.53-.07,1-.17,1.53-.27l.44-.09.14,0a21.64,21.64,0,0,0,2.34-.49l.4-.11c.52-.15,1-.29,1.49-.38h0l.87-.14,1.2-.2.22,0c.64-.1,1.31-.2,2-.33l2.16-.42a16.49,16.49,0,0,0,2.48-.66c.66-.24,1.41-.51,2.14-.75.41-.12.82-.26,1.23-.4l.83-.27h0c.49-.15,1-.29,1.49-.42l.06,0c.73-.2,1.4-.41,2.08-.65.48-.18,1-.38,1.44-.6l.07.09.36.47.38.5.33.41.38.49a8,8,0,0,0,1.19,1.28l.9.76.5.43c.49.42,1,.86,1.55,1.26l.82.57c.42.29.82.57,1.19.86l.39.33c.33.29.67.59,1,.87a14.51,14.51,0,0,0,1.34.86l.5.3c.66.41,1.33.79,2,1.17l1.14.67.94.55a29.1,29.1,0,0,0,4.64,2.14c.86.32,1.77.62,2.8.91a23,23,0,0,0,3,.65,16.3,16.3,0,0,0,2.21.15,21.87,21.87,0,0,0,3.7-.35,10,10,0,0,0,1.87-.52c.3-.12.6-.25.91-.41s.75-.28,1.1-.43l.26-.1a20.89,20.89,0,0,0,2.07-.9l0,0c.36-.2.69-.41,1-.6s.66-.46,1-.7a10.3,10.3,0,0,0,1.16-1.13l.3-.28.86-.77.43-.38c.4-.34.78-.69,1.15-1.07l0,0a15.89,15.89,0,0,0,1.39-1.79l.19-.27-.17.64,1.89.25,2.44.33.41.05,2.45.34,5.63.8c1.42.21,2.82.38,4.13.54l2,.24,2.16.26c3,.35,5.52.67,8.06,1.08,2.9.48,5.54,1,8.08,1.64a57.17,57.17,0,0,1,7.81,2.37c1.33.54,2.63,1.1,3.72,1.59s2.42,1.08,3.65,1.7a33,33,0,0,1,3.37,1.93c1.06.69,2.17,1.44,3.26,2.25a22.66,22.66,0,0,1,2.86,2.41c1.05,1.09,1.93,2,2.74,3a20.29,20.29,0,0,1,2.12,3.08,24,24,0,0,1,1.61,3.35,7.16,7.16,0,0,1,.4,1.51l0,.14q.07.6.21,1.2c.11.51.26,1,.4,1.43l.11.34a11.83,11.83,0,0,1,.41,1.76c.09.6.14,1.24.19,2.1,0,.58,0,1.18,0,1.81v.19a69.59,69.59,0,0,1-.57,8.78c-.21,1.53-.46,3.08-.75,4.59-.24,1.27-.57,2.52-.92,3.84l-.12.45a.14.14,0,0,1,0,.06l-2.89,1,.24.68,2.3-.4c-.31,1.2-.63,2.42-.93,3.64l-.12.47.15.46c.79,2.45,1.51,5,2.11,7.1.68,2.4,1.41,5,2.21,7.51.32,1,.65,2,1,3,.49,1.5,1,3,1.45,4.55.8,2.64,1.43,5.25,1.94,7.46.56,2.44,1.17,5.06,1.83,7.64l0,.13c.31,1.22.64,2.48,1,3.73.22.79.45,1.57.68,2.36l.44,1.53c.32,1.13.7,2.48,1.07,3.86.31,1.16.57,2.37.83,3.54l.5,2.29.33,1.49.66,3.12c.25,1.2.51,2.39.76,3.55l0,.12.12.57v.5l.12.16c.2.86.39,1.73.58,2.6.42,1.81.85,3.64,1.28,5.42,0,0-.1.05-.14.09a39.8,39.8,0,0,1-10.84,7.18c-2,.93-4,1.77-6,2.56s-4.39,1.68-6.7,1.41c-.27-.81-.53-1.66-.79-2.56C175.07,393.27,174.47,391.35,174,389.9Zm46.21,32.44a9,9,0,0,1-.48.81l0,.06-.11.18c-.38.61-.73,1.18-1.12,1.71a12.09,12.09,0,0,1-1.5,1.7c-.91.85-1.91,1.69-2.87,2.5-.3.24-.59.49-.89.75l-.41.35c-.73.62-1.41,1.2-2.14,1.75-.43.33-.9.64-1.31.91a15.76,15.76,0,0,1-1.37.8l-.23.12-.4.21A40,40,0,0,1,203,436c-1.43.52-3,.95-4.43,1.36l-1.73.48.2,1.45c0,.25.08.5.13.76l.17.74c.19.83.39,1.69.56,2.54l0,.23c.09.43.17.87.27,1.31l.09.49a3.56,3.56,0,0,0-.47.05l-.07-.11,0,0c-.1-.18-.22-.36-.31-.52l-.28-.47c-.35-.6-.69-1.2-1-1.8l-.28-.5c-.38-.67-.76-1.39-1.13-2.07-.44-.83-.89-1.68-1.37-2.51l-.84-1.43c-.66-1.1-1.28-2.14-1.81-3.24-.25-.49-.49-1-.72-1.49l-.45-.95c-.27-.56-.56-1.12-.84-1.68l-.7-1.36h0c-.85-1.59-1.68-3.22-2.49-4.83-.35-.69-.71-1.46-1.15-2.42-.34-.76-.63-1.52-.94-2.32l0-.09c-.15-.39-.29-.77-.43-1.15l-.48-1.29,0-.05c-.32-.82-.64-1.67-.93-2.5s-.66-1.94-1-2.9c-.25-.78-.5-1.55-.76-2.32-.81-2.39-1.66-4.8-2.52-7.2,0-.12-.09-.25-.13-.38a15.55,15.55,0,0,0,5.5-1.11c2.29-.85,4.55-1.79,6.77-2.8a43.79,43.79,0,0,0,11.26-7.17c.29,1.22.58,2.44.86,3.66.33,1.47.63,3,.85,4.08s.41,2.07.62,3.1c.3,1.45.6,2.94.87,4.41s.47,2.56.66,3.79.38,2.75.55,4.1.36,2.71.55,3.88.36,2.06.54,3.06l.16.83c.26,1.45.48,2.72.67,3.89.12.73.23,1.46.34,2.2.06.45.13.9.2,1.35l.44,2.79,2.12-1.27c.22-.12.43-.25.64-.39l.23-.14,1.35-.88.73-.48c.78-.51,1.51-1,2.22-1.4q.7-.44,1.44-.84l.62-.37c.6-.34,1.21-.7,1.83-1.09l.43-.27.67-.43Z"/><path class="cls-5" d="M198.26,448.71h0Z"/><polygon class="cls-5" points="137.9 425.63 137.9 425.63 137.9 425.63 137.9 425.63"/></g><g id="Path_3082" data-name="Path 3082"><path class="cls-1" d="M135.65,61.32a49.61,49.61,0,0,0-2.33-10.7,50.58,50.58,0,0,0-5.91-11.34c-2-3-4.25-6-7.28-8C114.64,27.7,107.58,28,101,28.34a12.43,12.43,0,0,0,.69-9.44,20.35,20.35,0,0,1-1-3.1c-.32-2,.46-4,.69-6a9.25,9.25,0,0,0-3.24-8.32,6.94,6.94,0,0,0-8.6.06c-2.84-2-7-1.22-9.51,1.22S76.7,8.89,77,12.35a6.94,6.94,0,0,1,0,2.45,6.76,6.76,0,0,1-1.09,1.94,20.28,20.28,0,0,0,.84,23.53C66.31,51,59.18,65.78,60.63,80.67a24.49,24.49,0,0,0,3.25,10.65,14,14,0,0,0,8.77,6.51,8.6,8.6,0,0,0,.48,3.66,1,1,0,0,0,.11.34l0,.08v0h0a1.26,1.26,0,0,0,.27.38l.09.08-.24.52,1,1.92c.5-.89,1-1.8,1.46-2.7l.24-.29a1.64,1.64,0,0,0,.14-.22,5.62,5.62,0,0,0,.25-.56,2.25,2.25,0,0,0,.08-.24c2.66-5,5.14-10.2,7.4-15.45.7-1.61,1.18-3.89-.33-4.79s-4.15.39-5-1.19,1.54-2.75,3.17-2.43,3.41,1.22,4.84.36S88,74.2,87.81,72.45a46.09,46.09,0,0,1,.46-17.21c1.39-5.61,4.45-10.93,9.17-14.26,5.16-3.64,11.85-4.59,18.13-3.88,4.28.48,8.9,2,11,5.75a8.9,8.9,0,0,0-3.9,2.88c-.88,1.38-1,3.7,0,3.7,1.25,0,1-1.45,1.26-2.29.55-1.77,4.31-2.78,5.37-1A23,23,0,0,1,131,50.8a57.06,57.06,0,0,1,1.81,6.82,58,58,0,0,1,1.09,14c-.27,6.25-1.62,12.59-4.92,17.9s-8.76,9.51-15,10.29c-1.34.17-2.88.28-3.7,1.36a4.33,4.33,0,0,0-.66,2.07,84.26,84.26,0,0,0-.79,11.55l2-.34a88.23,88.23,0,0,1,.91-10.13,2.89,2.89,0,0,1,.69-1.76,3.22,3.22,0,0,1,1.94-.6c7.34-.74,13.61-6.18,17-12.75C135.39,81.36,136.71,70.89,135.65,61.32ZM118.42,35.4a56.1,56.1,0,0,0-5.64-.57,31.39,31.39,0,0,0-8.1.5l-.55.15-.24.07c-.43.12-.85.27-1.25.41l-.22.08-1.92.76c-.68.28-1.32.6-1.93.9l-.2.11-.7.39-1,.64c-.42.27-.87.57-1.42,1l-.76.53,0,0c-.27.2-.53.39-.79.6s-.55.47-.79.69l0,0q-.32.32-.6.63c-.17.19-.33.38-.51.6-.6.79-1.21,1.67-1.92,2.8-.4.66-.74,1.28-1,1.9l0,0c-.22.52-.44,1.07-.67,1.69-.12.31-.23.64-.34,1l-.26.72c-.42,1.18-.83,2.33-1.2,3.52-.11.42-.25.92-.36,1.45s-.18.92-.26,1.37l0,.14c-.14.9-.28,1.8-.41,2.7s-.18,1.54-.23,2.47l0,0a1.26,1.26,0,0,1,.14.6,1.21,1.21,0,0,1-.14.6,1,1,0,0,1-.18.34h.12c0,2,0,4.08.15,6.12.08.86.18,1.71.27,2.44s.19,1.47.37,2.32l0,.12a1.59,1.59,0,0,1,.08.35v0l-.28-.19-.44-.3a3.5,3.5,0,0,0-.54-.29l-.06,0L84,74.68l-.06,0q-.3-.09-.6-.15h-.07c-.33,0-.67-.09-1-.12h-.7a5.58,5.58,0,0,0-.59.09l-.11,0-.68.2-.13,0c-.52.2-1,.41-1.49.65l0,0c-.28.16-.54.32-.79.49l-.08.07a4.71,4.71,0,0,0-.41.35l-.07.07a5.62,5.62,0,0,0-.41.44l0,0a4.35,4.35,0,0,0-.32.43l0,.07-.12.22a2.39,2.39,0,0,0-.15.37l0,.07c0,.13-.06.25-.09.39a2.72,2.72,0,0,0,0,.42v.07c0,.17,0,.34,0,.51a4.17,4.17,0,0,0,.08.49l0,.16c0,.11.07.22.1.33a3,3,0,0,0,.18.41l0,.06c0,.07.09.14.16.24a2.17,2.17,0,0,0,.24.29,1.29,1.29,0,0,0,.17.16l0,.05a2,2,0,0,0,.33.24l0,0,.36.19.06,0a4.52,4.52,0,0,0,.47.18h0a7.06,7.06,0,0,0,.85.19h.06c.52.07,1,.11,1.6.14s1,0,1.48,0h.08l.17,0,0,0a.13.13,0,0,1,.06.07.71.71,0,0,1,0,.29,6.55,6.55,0,0,1-.44,1.14l0,0c-.3.66-.62,1.33-.93,2-1.9,3.94-3.75,7.92-5.58,11.9a1.17,1.17,0,0,0-.37-.08l-.15,0a1.21,1.21,0,0,1,0-.14c-4.1-2.42-8.73-4.89-10.5-9.65-.28-.78-.53-1.54-.74-2.26a33,33,0,0,1-.93-4.5,37.45,37.45,0,0,1-.27-4.49v0a41.12,41.12,0,0,1,.08-4.44A33.5,33.5,0,0,1,63.49,68c.18-.75.36-1.5.56-2.25s.4-1.48.63-2.21l.12-.38c.19-.61.37-1.17.58-1.73.35-.89.62-1.57.88-2.19A37.44,37.44,0,0,1,68.41,55c.27-.47.55-.94.83-1.4l.58-.94c.3-.51.62-1,.94-1.54.51-.78.93-1.42,1.33-2s.88-1.21,1.29-1.72.89-1.09,1.44-1.71l.27-.32L76.38,44c.91-1,2-2.06,3.32-3.3l2-1.83-2.49-.23a2.62,2.62,0,0,1-.67-.16,3.1,3.1,0,0,1-.73-.46,6.57,6.57,0,0,1-.87-.88,8.25,8.25,0,0,1-1.29-2.3c0-.1-.07-.21-.11-.32l-.11-.33-.09-.25-.09-.33c-.06-.23-.13-.46-.18-.69-.15-.71-.29-1.41-.38-2.1s-.17-1.49-.22-2.28A13,13,0,0,1,75,23.9c0-.13.08-.25.11-.38s.13-.43.2-.62.12-.31.17-.47.13-.38.21-.56l.14-.35c.09-.22.17-.43.27-.65l.13-.29c.1-.24.21-.49.32-.73l.38-.77.21-.38c.05-.08.1-.15.14-.23s.18-.3.28-.45l.11-.18L78,17.3c.1-.13.21-.27.3-.37a4.4,4.4,0,0,1,.39-.35,3.87,3.87,0,0,1,.53-.37l.12-.08,1-.54-.57-1a4.68,4.68,0,0,1-.49-1.18,6,6,0,0,1-.19-.94c0-.32-.07-.69-.09-1.09a9.23,9.23,0,0,1,.61-4,8.27,8.27,0,0,1,1-1.75A7.7,7.7,0,0,1,82,4.19a8.71,8.71,0,0,1,3.41-1.84,3.45,3.45,0,0,1,.55-.07,1.83,1.83,0,0,1,.73.15,2.67,2.67,0,0,1,.76.53,7.09,7.09,0,0,1,.57.66l.17.21.79,1L90,4l.36-.3c.28-.21.56-.41.86-.6a6.25,6.25,0,0,1,3.83-1A3.93,3.93,0,0,1,97.36,3.5a9.83,9.83,0,0,1,.61.83,5.81,5.81,0,0,1,.47.89A7.44,7.44,0,0,1,99,7.07a13.69,13.69,0,0,1,.19,2.12,11.3,11.3,0,0,1-.18,2A16.81,16.81,0,0,1,98.28,14c-.14.4-.31.83-.53,1.32l-.07.15-.5,1,1,.48.25.15.22.18a2.17,2.17,0,0,1,.36.44l.23.34c.08.14.15.28.22.43a5.22,5.22,0,0,1,.29.87,9.05,9.05,0,0,1,.31,2,7.85,7.85,0,0,1,0,1c0,.36-.06.73-.09,1.07s-.1.69-.16,1a5.69,5.69,0,0,1-.2.91c-.1.34-.19.67-.31,1s-.26.66-.41,1l-.36.79-.17.38c-.09.21-.18.42-.26.63l-.83,2.05,2.82-.44c.93-.14,1.8-.28,2.69-.33.51,0,1,0,1.51,0l1.07.05.6,0,1.6,0h.74a9.83,9.83,0,0,1,1.09,0c.41.05.81.12,1.21.19h0l0-.16,0,.16.26,0c.59.1,1.18.17,1.76.22l.39,0c.45,0,.87.07,1.3.13a8.66,8.66,0,0,1,1.65.41c.53.2,1.08.42,1.66.68l.25.1a13.31,13.31,0,0,1,1.7.93c.61.44,1.2.9,1.77,1.4s1.18,1,1.77,1.59C122.41,35.58,119.46,35.56,118.42,35.4Z"/><path class="cls-1" d="M78.49,80Z"/><path class="cls-1" d="M124.72,37.94a2,2,0,0,0,.2.21l.09,0-.29-.18Z"/></g><g id="Path_3083" data-name="Path 3083"><path class="cls-1" d="M123.25,113.14a12.1,12.1,0,0,1,1.48-2,3.7,3.7,0,0,0-.33-.21,6.95,6.95,0,0,0-4.06-1.43,11.25,11.25,0,0,0-2,.12,18.45,18.45,0,0,0-8.1,3.33c-4.67,3.67,3.33.72,5.14.06,2.31-.85,5.59-1.13,7.77,0Z"/></g><g id="Path_3085" data-name="Path 3085"><path id="Path_3283" data-name="Path 3283" class="cls-1" d="M166.26,150.64a1.05,1.05,0,0,1-.15-.3,4.25,4.25,0,0,0-.21-.49c-.07-.16-.15-.33-.23-.49-.2-.37-.42-.73-.64-1.09s-.47-.71-.72-1.07l.06.09c-.44-.62-.91-1.22-1.3-1.87a10.83,10.83,0,0,1-.59-1c-.18-.38-.34-.76-.48-1.15a11.18,11.18,0,0,1-.54-2.14,1.6,1.6,0,0,1,.26-1.18,1.75,1.75,0,0,1,1.37-.7,3,3,0,0,1,1.31.28l-.05-.1-.21-.4-.09-.18v0l-.08-.15,0,0,0,0,0-.06v0h0c-.32-.6-.65-1.19-.95-1.79-.08-.14-.14-.3-.21-.44a2.18,2.18,0,0,1-.22-.83,1.38,1.38,0,0,1,.73-1.21,2.33,2.33,0,0,1,1.49-.17,5.9,5.9,0,0,1,1.3.39c-.18-.32-.36-.64-.53-1s-.39-.74-.58-1.11l-.19-.42a5.08,5.08,0,0,1-.17-.51,2,2,0,0,1-.05-.42,1.55,1.55,0,0,1,.11-.56,1.4,1.4,0,0,1,.45-.6,1.7,1.7,0,0,1,.71-.32,3.18,3.18,0,0,1,1.53.13c.22.07.45.15.67.24l.24.11c.11.05.23.09.34.15a8.44,8.44,0,0,1,1,.61,9.77,9.77,0,0,1,1,.79,16.49,16.49,0,0,1,2.52,3.36,20.19,20.19,0,0,1,1,1.82c.15.31.28.62.41.94s.27.63.39.95a1.22,1.22,0,0,1,0,.9,1.2,1.2,0,0,1-1.54.7h0a1.19,1.19,0,0,1-.68-.64c-.13-.31-.23-.64-.35-.95a15.15,15.15,0,0,0-.61-1.44c-.52-1-1.09-1.87-1.69-2.77-.19-.26-.38-.5-.58-.75l-.24-.26-.35-.32-.67-.5-.36-.21-.31-.16c.37.68.76,1.36,1.12,2,.21.43.41.86.61,1.3l.3.71.12.32a3.88,3.88,0,0,1,.14.45,1.57,1.57,0,0,1,0,.61,1.18,1.18,0,0,1-1,.89,1.29,1.29,0,0,1-.95-.23l-.27-.2-.5-.38c-.36-.26-.72-.52-1.1-.76-.22-.13-.45-.25-.69-.37l.18.35.87,1.7c.27.54.56,1.08.82,1.62.13.24.25.49.36.74l.18.47a2.23,2.23,0,0,1,.13.44,1.64,1.64,0,0,1,0,.38,1.09,1.09,0,0,1-.08.31,1,1,0,0,1-1.08.67,1.41,1.41,0,0,1-.72-.31l-.25-.19-.6-.45q-.57-.42-1.17-.81l-.44-.24-.06,0c0,.23.07.47.11.7a12.15,12.15,0,0,0,.33,1.18c.08.23.16.45.26.67s.22.49.33.73c.49.9,1,1.78,1.47,2.7a11.7,11.7,0,0,1,.6,1.41,4.61,4.61,0,0,1,.21.75,1.26,1.26,0,0,1-.13,1.1.36.36,0,0,1-.26.11A.31.31,0,0,1,166.26,150.64Z"/></g><g id="Path_3088" data-name="Path 3088"><path id="Path_3286" data-name="Path 3286" class="cls-1" d="M145.05,110.43c-.07.08,0,0,.09,0a.17.17,0,0,1,.17.16h0a.17.17,0,1,1-.33,0h0Z"/></g><g id="Path_3117" data-name="Path 3117"><path id="Path_3289" data-name="Path 3289" class="cls-1" d="M143.81,308.84c0-.1.06-.21.1-.31l.12-.35c.07-.2.13-.39.19-.59.11-.4.22-.8.32-1.2v0h0v0h0c0-.16.07-.32.11-.48v0l.54-2.34c.17-.74.33-1.48.51-2.21a0,0,0,0,1,0,0l.18-.73v0l0-.12h0L146,300v0a.83.83,0,0,1,0-.15h0v-.06h0v-.06h0l.16-.65c.15-.63.31-1.26.47-1.89l.45-1.85,0,.08c.05-.17.09-.35.13-.52h0s0,0,0,0v0c.08-.36.17-.72.24-1.08s.12-.86.21-1.28a.77.77,0,0,1,.3-.46.71.71,0,0,1,1,.19.69.69,0,0,1,.12.52c-.1.49-.25,1-.39,1.44s-.29.94-.43,1.41c-.26.87-.5,1.73-.75,2.6l-.77,2.68c-.26.91-.52,1.82-.79,2.72s-.56,1.89-.86,2.83c-.13.42-.27.85-.44,1.27-.08.21-.16.42-.26.63s-.11.22-.17.33a.58.58,0,0,1-.23.26H144a.17.17,0,0,1-.17-.16Z"/></g><g id="Path_3118" data-name="Path 3118"><path id="Path_3290" data-name="Path 3290" class="cls-1" d="M147.89,293.7h0a3.65,3.65,0,0,1-.74-.55l-1.14-.89a19.23,19.23,0,0,0-1.65-1.06l-1.84-1.07c-.56-.33-1.1-.67-1.67-1l-1.84-1c-.65-.34-1.3-.68-2-1s-1.3-.64-1.94-1l.07,0-.11-.06h0l-.47-.25h0l-.08,0,0,0-.09-.05,0,0c-.57-.3-1.13-.63-1.69-.94s-1.16-.64-1.74-1c-1.54-.82-3.09-1.63-4.63-2.46-1.12-.58-2.24-1.18-3.39-1.7s-2.46-1-3.7-1.5c-1.42-.53-2.85-1.06-4.3-1.52s-3-.93-4.59-1.34l-1.65-.42c-1-.23-2-.45-3.07-.65s-2.11-.36-3.15-.61l-.26-.06h0l-.14,0,.1,0-.58-.17a5.27,5.27,0,0,1-.8-.36.78.78,0,0,1-.32-1.07h0a.77.77,0,0,1,1.06-.31l.18.07c.27.1.53.18.81.26,1.49.34,3,.56,4.52.85.76.15,1.52.3,2.27.48s1.65.41,2.47.63a85.28,85.28,0,0,1,8.16,2.64l-.1,0c1.31.5,2.62,1,3.9,1.57s2.3,1.11,3.42,1.71l4.2,2.23c.73.39,1.47.79,2.2,1.2s1.34.77,2,1.13l.24.14c1.05.55,2.12,1.07,3.16,1.63l-.1,0,.84.45-.1-.05c1.38.75,2.7,1.59,4,2.41.66.41,1.34.8,2,1.23a13.34,13.34,0,0,1,1.84,1.43l.3.28,0,0a4.33,4.33,0,0,1,.64.71,1.09,1.09,0,0,1,.21.61h0a.6.6,0,0,1-.32.5.58.58,0,0,1-.26.06A.52.52,0,0,1,147.89,293.7Z"/></g><g id="Path_3119" data-name="Path 3119"><path id="Path_3291" data-name="Path 3291" class="cls-1" d="M168.24,365.84a.66.66,0,0,1-.36-.26.71.71,0,0,1-.11-.51,5,5,0,0,1,.13-.67l0,.08c.6-2.48,1.47-4.88,2.18-7.33.36-1.25.66-2.51,1-3.76s.68-2.5,1.05-3.74.79-2.47,1.15-3.72.67-2.5,1-3.75.64-2.29,1-3.43.64-2.24.92-3.36h0l0-.09,0,.06c.47-2,.92-4,1.4-6,.05-.23.11-.46.16-.7.3-1.25.64-2.48,1-3.72.17-.6.32-1.2.5-1.8s.38-1.26.59-1.88c.06-.19.12-.37.19-.55h0a.41.41,0,0,1,.2-.21.45.45,0,0,1,.6.2h0a.12.12,0,0,1,0,.09,1.58,1.58,0,0,1,0,.65c0,.16-.07.33-.11.49l-.24,1,0-.07c-.6,2.53-1.15,5.06-1.7,7.6-.48,2.2-.9,4.41-1.43,6.59h0l0,.08v0c-.29,1.22-.66,2.42-1,3.63s-.66,2.48-1,3.73q-.26,1-.54,2c-.16.58-.35,1.16-.53,1.74-.39,1.24-.75,2.48-1.1,3.73s-.71,2.56-1,3.84-.73,2.49-1.13,3.72c-.31,1-.65,1.91-1,2.87-.16.5-.32,1-.47,1.51l-.21.74a7.46,7.46,0,0,1-.26.8.67.67,0,0,1-.63.4A.5.5,0,0,1,168.24,365.84Z"/></g><g id="Path_3120" data-name="Path 3120"><path id="Path_3292" data-name="Path 3292" class="cls-1" d="M153.49,293a.36.36,0,0,1-.24-.45,5,5,0,0,1,.42-.94l.19-.31c.06-.11.14-.2.21-.31s.27-.38.42-.56.13-.15.2-.23.13-.17.2-.24l0,0,.67-.69c.2-.19.41-.37.63-.55a9,9,0,0,1,1.54-1,.48.48,0,0,1,.63.22.47.47,0,0,1-.2.62l-.42.24-.79.52c-.25.16-.48.35-.72.53l-.54.47-.54.54-.34.4c-.1.12-.18.25-.27.37s-.24.36-.34.54l-.15.32c0,.07-.05.14-.07.2a.38.38,0,0,1-.35.26A.23.23,0,0,1,153.49,293Z"/></g><g id="Path_3121" data-name="Path 3121"><path id="Path_3293" data-name="Path 3293" class="cls-1" d="M159.13,294.36l-1.77,0h-1.63c-.23,0-.46,0-.69-.05a.49.49,0,0,1-.4-.42.46.46,0,0,1,.43-.5h.05a.41.41,0,0,1,.18,0h0c.34,0,.69,0,1,0h.72l.76,0h0l.79,0h0c.65,0,1.3,0,1.94-.06s1.34-.08,2-.12a.6.6,0,0,1,.65.55h0a.6.6,0,0,1-.54.65h0l-1,0Z"/></g><g id="Path_3122" data-name="Path 3122"><path id="Path_3294" data-name="Path 3294" class="cls-1" d="M73.89,270.39a.5.5,0,0,1-.06-.71.48.48,0,0,1,.34-.18l1.13-.06,1-.07,1-.09.45,0c.2,0,.41,0,.62,0h0c.4,0,.81,0,1.21,0s.73,0,1.09.05l1.16.11c.36,0,.71.06,1.07.11l.18,0h0a.19.19,0,0,1,.16.2.18.18,0,0,1-.18.16h-.54l-.67,0c-.5,0-1-.05-1.48,0H79.8c-.68,0-1.36.1-2,.19H77.7l-.14,0h0l-.26,0h-.17l-1.4.23a11,11,0,0,1-1.5.21h0A.5.5,0,0,1,73.89,270.39Z"/></g><g id="Path_3123" data-name="Path 3123"><path id="Path_3295" data-name="Path 3295" class="cls-1" d="M102.87,272.6l-.09,0h0l-.7-.14c-.28-.05-.56-.12-.83-.19l.06,0-.08,0-.8-.1-.78-.07-.4,0h-.29a.65.65,0,0,1-.33-.11.63.63,0,0,1-.3-.51l-.27-.1c-.44-.17-.87-.35-1.29-.55l-1.18-.56-.16-.06h0l-.14-.05h0a.17.17,0,0,1-.19-.16h0a.18.18,0,0,1,.16-.19h.07a6.74,6.74,0,0,1,.88.24l.86.29,1,.31.6.17,0,0,.21-.25.49-.53c.3-.33.63-.64,1-.95.68-.64,1.37-1.28,2.07-1.9.29-.26.59-.51.89-.76h0l.07,0h0c.36-.3.73-.59,1.1-.87a3.39,3.39,0,0,1,1.23-.72.55.55,0,0,1,.66.42.56.56,0,0,1-.23.59l0,0-.43.39-.5.41-1,.81c-.7.59-1.37,1.2-2,1.81l-.94.88c-.26.24-.52.5-.77.75h0l0,0,0,0h0l0,0c.44.05.87.11,1.31.18s.63.11.94.19a4.67,4.67,0,0,1,.5.14c.27.09.58.23.63.54a.58.58,0,0,1-.44.69h0l-.13,0Z"/></g><g id="Path_3124" data-name="Path 3124"><path id="Path_3296" data-name="Path 3296" class="cls-1" d="M107.53,269.32a.35.35,0,0,1,.26-.41l.35-.09h0a15.93,15.93,0,0,0,1.67-.63h0l0,0,0,0,.78-.34h0l1-.45,1.17-.5,1.14-.47c.69-.29,1.39-.56,2.09-.84s1.42-.56,2.15-.82,1.5-.55,2.26-.8c1.53-.5,3.07-1,4.6-1.46l.77-.23a.4.4,0,0,1,.48.3h0a.4.4,0,0,1-.25.46l-.51.15,0,0-.33.1h0l-.37.11-1.16.33-1.26.37h0c-1.47.45-2.94.9-4.38,1.44l-1.17.43-1.27.49c-.75.29-1.49.6-2.23.9l-1.58.67h0l-1,.44h0c-.5.22-1,.44-1.52.65a9.56,9.56,0,0,1-1.45.5h-.08A.34.34,0,0,1,107.53,269.32Z"/></g><g id="Path_3125" data-name="Path 3125"><path id="Path_3297" data-name="Path 3297" class="cls-1" d="M69.75,76.71l-.46-.19a4.13,4.13,0,0,1-.58-.33,5.79,5.79,0,0,1-1.25-1.27,8.51,8.51,0,0,1-.57-.9c-.11-.18-.2-.38-.3-.57a8.88,8.88,0,0,1-.91-2.85,7.28,7.28,0,0,1,.11-2.33c0-.22.07-.44.13-.65a5.46,5.46,0,0,1,.21-.61.26.26,0,0,1,.34-.15h0a.18.18,0,0,1,.09.06.26.26,0,0,1,0,.32v0c0,.1-.07.2-.1.3-.07.31-.12.61-.16.93v0a8.32,8.32,0,0,0-.07,1.12v0a5,5,0,0,0,.06.77,6.44,6.44,0,0,0,.18.85h0a10.38,10.38,0,0,0,.39,1.06v0a6.63,6.63,0,0,0,.4.8l.27.47c.18.25.34.5.53.73a6.77,6.77,0,0,0,.51.56c.14.13.3.26.46.39a5.09,5.09,0,0,0,.5.3l.6.28a.53.53,0,0,1,.29.65.56.56,0,0,1-.51.38A.45.45,0,0,1,69.75,76.71Z"/></g><g id="Path_3126" data-name="Path 3126"><path id="Path_3298" data-name="Path 3298" class="cls-1" d="M72.69,72.63l-.59-.28-.19-.11-.24-.16-.2-.15-.32-.29a3.87,3.87,0,0,1-.64-.81c-.09-.15-.18-.3-.26-.46s-.14-.28-.21-.43-.12-.3-.19-.45L69.69,69c0-.15-.09-.31-.14-.46a3.88,3.88,0,0,1-.11-.49,4.19,4.19,0,0,1-.07-.63,2.83,2.83,0,0,1,0-.58l.06-.28a1.23,1.23,0,0,1,.12-.26.43.43,0,0,1,.24-.22.45.45,0,0,1,.23,0c.1,0,.09.15,0,.15h-.22l0,0h0l-.07.08h0l0,.05h0l-.06.13a.89.89,0,0,0-.06.2.45.45,0,0,0,0,.16h0c0,.07,0,.14,0,.21a2,2,0,0,0,0,.34v0a3.12,3.12,0,0,0,.11.53h0a4.1,4.1,0,0,0,.2.59l.15.34.21.42a1.18,1.18,0,0,0,.11.19l.11.19.23.33a.64.64,0,0,0,.1.13l.11.15.38.42c.13.11.27.23.41.33l.4.26.26.15.69.33a.46.46,0,0,1,.22.61.45.45,0,0,1-.42.27Z"/></g><g id="Path_3127" data-name="Path 3127"><path id="Path_3299" data-name="Path 3299" class="cls-1" d="M81.2,33.77a4,4,0,0,1-.92-.22,3.65,3.65,0,0,1-.75-.35,5,5,0,0,1-.76-.61,4.84,4.84,0,0,1-.57-.7,6.35,6.35,0,0,1-.53-.91,7.17,7.17,0,0,1-.58-1.93L77,28.67c0-.12,0-.24,0-.36a15.14,15.14,0,0,1-.07-1.78,6.16,6.16,0,0,1,1.42-3.76,7.6,7.6,0,0,1,1.7-1.4A.64.64,0,0,1,81,22a.69.69,0,0,1-.26.42,7.79,7.79,0,0,0-.65.48q-.37.32-.72.66c-.15.16-.29.33-.42.5a5.84,5.84,0,0,0-.33.53,5.93,5.93,0,0,0-.31.68,5.39,5.39,0,0,0-.22.68q-.07.36-.12.72h0a.11.11,0,0,1,0,0v0c0,.51-.06,1-.06,1.55s0,.76.09,1.14h0a5.84,5.84,0,0,0,.17.81,5.9,5.9,0,0,0,.23.67,5.83,5.83,0,0,0,.39.74l0,0c.1.16.22.32.34.48a3.32,3.32,0,0,0,.26.28l.44.38.24.15a2.83,2.83,0,0,0,.36.16,5.25,5.25,0,0,0,.52.17c.12,0,.24.05.37.06a4.87,4.87,0,0,0,.54,0h0c.3,0,.59,0,.89-.07a.26.26,0,0,1,.27.24h0a.25.25,0,0,1-.22.26l-.79.08h-.29A4,4,0,0,1,81.2,33.77Z"/></g><g id="Path_3128" data-name="Path 3128"><path id="Path_3300" data-name="Path 3300" class="cls-1" d="M85.72,26.6a.29.29,0,0,1-.19-.36h0a.26.26,0,0,1,.08-.13.29.29,0,0,1,.37,0l.1,0,.15,0h.31l.15,0L86.9,26l.22-.11h0a2.52,2.52,0,0,0,.33-.24l0,0a4.26,4.26,0,0,0,.38-.35,6.11,6.11,0,0,0,.51-.63h0a5.1,5.1,0,0,0,.43-.67,5.55,5.55,0,0,0,.32-.7,3.73,3.73,0,0,0,.14-.44c0-.11,0-.21.06-.32s0-.24,0-.36a6.87,6.87,0,0,0-.08-.78,1.7,1.7,0,0,1,0-.22.42.42,0,1,1,.82-.17h0a5.09,5.09,0,0,1,.12,1.51,4.09,4.09,0,0,1-.34,1.13c-.09.19-.19.37-.29.55a5.29,5.29,0,0,1-.62.92,6,6,0,0,1-.89.93,2.81,2.81,0,0,1-1.12.59,1.4,1.4,0,0,1-.41.05A1.83,1.83,0,0,1,85.72,26.6Z"/></g><g id="Path_3129" data-name="Path 3129"><path id="Path_3301" data-name="Path 3301" class="cls-1" d="M85.69,17.35a6.36,6.36,0,0,1-.5-.53,2.22,2.22,0,0,1-.45-1.07,2.33,2.33,0,0,1,.15-1.17,4.55,4.55,0,0,1,.65-1.16,11.3,11.3,0,0,1,.79-.9c.25-.27.5-.54.76-.8a.45.45,0,0,1,.62.11h0a.47.47,0,0,1,0,.54l-.32.34,0,0c-.19.2-.38.4-.56.61a9.41,9.41,0,0,0-.71.83,4.11,4.11,0,0,0-.24.39c-.07.14-.14.29-.2.44a2,2,0,0,0-.07.23l0,.18a.92.92,0,0,0,0,.16.86.86,0,0,0,0,.16,1.6,1.6,0,0,0,.05.21l0,.15.08.15a.83.83,0,0,0,.13.18,4,4,0,0,0,.4.42.44.44,0,0,1,0,.6.39.39,0,0,1-.28.11A.44.44,0,0,1,85.69,17.35Z"/></g><g id="Path_3130" data-name="Path 3130"><path id="Path_3302" data-name="Path 3302" class="cls-1" d="M76.86,69.14h0a1.11,1.11,0,0,1-.43-.28l-.29-.3a5.17,5.17,0,0,1-.42-.51l-.44-.6-.36-.55a7.32,7.32,0,0,1-.75-1.54A8.93,8.93,0,0,1,74,60.27c0-.13.07-.26.11-.39v0l0,0v0h0l.09-.24v0a5,5,0,0,1,.29-.67c.14-.28.28-.55.44-.82a.52.52,0,0,1,.7-.16.51.51,0,0,1,.16.7l-.11.2c-.11.2-.21.4-.3.61l-.16.36c-.06.15-.11.3-.17.44l0-.06c-.08.25-.16.5-.22.75a7.89,7.89,0,0,0-.17,1,9.05,9.05,0,0,0,0,1h0a9.24,9.24,0,0,0,.1,1.18,6.72,6.72,0,0,0,.18.87,8.82,8.82,0,0,0,.31.86c.17.37.36.73.56,1.08l.36.56.44.6a3.7,3.7,0,0,0,.33.36l0,0a.32.32,0,0,1,.29.29.31.31,0,0,1-.29.33h0Z"/></g><g id="Path_3131" data-name="Path 3131"><path id="Path_3303" data-name="Path 3303" class="cls-1" d="M93.38,214.77a1.21,1.21,0,0,1-.59-.72c-.08-.19-.16-.39-.23-.59l-.51-1.24h0c-.37-.84-.76-1.67-1.17-2.5s-.87-1.64-1.28-2.47l-.67-1.38c-.23-.5-.45-1-.67-1.5-.37-.85-.71-1.7-1-2.56-.69-1.9-1.33-3.83-2-5.74s-1.3-3.79-1.94-5.69-1.18-3.61-1.8-5.41-1.27-3.78-1.81-5.71c-.45-1.6-.9-3.21-1.36-4.81l0,0c-.55-1.88-1.09-3.77-1.7-5.63s-1.33-3.92-2-5.86c-.63-1.76-1.26-3.54-1.85-5.32-.65-2-1.28-3.9-1.89-5.87s-1.18-3.84-1.75-5.76c-.26-.92-.51-1.85-.76-2.77s-.47-1.83-.7-2.75-.48-2-.7-3-.41-2-.6-2.92c-.39-1.93-.7-3.88-1-5.83-.14-.85-.3-1.71-.47-2.56s-.4-1.74-.61-2.61a.85.85,0,0,1,.66-1h0a.84.84,0,0,1,1,.54,25.11,25.11,0,0,1,.74,3c.2,1,.35,1.93.51,2.9.31,1.87.61,3.73,1,5.59.18.9.35,1.79.55,2.68s.45,2,.69,3c.42,1.75.89,3.49,1.37,5.22,1.11,3.82,2.27,7.62,3.52,11.4s2.65,7.38,3.87,11.11,2.18,7.32,3.21,11l0-.11.46,1.57c.14.49.3,1,.45,1.46.29.94.61,1.86.93,2.79.61,1.8,1.17,3.61,1.76,5.42s1.27,3.8,1.9,5.71,1.24,3.75,1.89,5.61c.4,1.11.86,2.19,1.32,3.27.34.73.67,1.46,1,2.18s.76,1.46,1.12,2.2.73,1.5,1.06,2.27l0,.1,0-.35a.11.11,0,0,1,0,.05c0-.22,0-.44.08-.66.2-2,.36-3.94.54-5.9s.42-3.81.7-5.7.58-4,.89-6,.69-3.92,1.11-5.87.91-3.77,1.43-5.64c.26-.94.53-1.88.81-2.81s.55-1.83.86-2.73c.65-1.87,1.33-3.73,2.07-5.57.36-.91.73-1.82,1.13-2.71s.83-1.84,1.26-2.76c.86-1.85,1.69-3.71,2.52-5.58.4-.9.82-1.78,1.25-2.66.09-.18.18-.35.28-.52s.24-.48.38-.72.43-.79.67-1.18c.8-1.35,1.64-2.68,2.5-4,.4-.62.82-1.23,1.24-1.83s1-1.36,1.43-2h0c.12-.18.25-.36.38-.53l0,.05c.5-.69,1-1.35,1.55-2s1.1-1.27,1.68-1.88a21.46,21.46,0,0,1,1.78-1.65,3.17,3.17,0,0,1,1.07-.65,1.77,1.77,0,0,1,.65-.05.39.39,0,0,1,.44.33v.06a.37.37,0,0,1-.4.35h-.1l-.15,0-.16,0-.1.06-.44.31c-.65.57-1.28,1.17-1.87,1.8s-.9,1-1.34,1.53-.8,1-1.18,1.53l0-.05q-1.73,2.4-3.33,4.87c-1.07,1.65-2.09,3.32-3,5l-.25.44c-.43.83-.85,1.66-1.23,2.52s-.81,1.84-1.21,2.77c-.8,1.87-1.64,3.73-2.48,5.59-.61,1.36-1.18,2.73-1.72,4.12l-1,2.67c-.35.95-.67,1.9-1,2.86-.16.48-.3,1-.46,1.45s-.28.95-.42,1.43c-.28,1-.54,1.91-.8,2.87s-.57,2.19-.85,3.28a.06.06,0,0,0,0,0v0c-.22,1-.44,2-.65,3s-.38,1.94-.55,2.92c-.33,1.89-.59,3.8-.86,5.7-.29,2.08-.59,4.17-.82,6.27q-.27,2.82-.52,5.64c-.09.95-.2,1.91-.31,2.86-.06.43-.11.87-.17,1.3,0,.21,0,.41-.08.62s0,.25-.07.38a.89.89,0,0,1-.3.54.69.69,0,0,1-.5.19A.8.8,0,0,1,93.38,214.77Z"/></g><g id="Path_3132" data-name="Path 3132"><path id="Path_3304" data-name="Path 3304" class="cls-1" d="M68.45,241.73a1.42,1.42,0,0,1-.36-.14,4,4,0,0,1-.56-.44l-1.16-1c-.39-.33-.8-.67-1.18-1s-.82-.81-1.21-1.23-.72-.79-1.08-1.18-.79-.89-1.2-1.32c-.75-.82-1.51-1.62-2.21-2.49q-2.1-2.65-4.06-5.42c-.62-.86-1.24-1.73-1.84-2.62-.34-.51-.68-1-1-1.54s-.65-1-1-1.55c-.48-.79-.94-1.59-1.4-2.39L49,217.21c-1.17-1.88-2.37-3.75-3.47-5.67-.56-1-1.11-2-1.64-3s-1-2.05-1.53-3.09c-1-2-1.89-4.07-2.82-6.11s-1.93-4.18-2.79-6.31q-2.62-6.47-5.2-12.94c-.4-1-.81-2-1.18-3-.2-.52-.39-1-.57-1.57s-.39-1.1-.56-1.65-.38-1.19-.55-1.79-.34-1.19-.5-1.79-.3-1.15-.45-1.73-.27-1.1-.39-1.65c-.55-2.29-1-4.59-1.41-6.9-.21-1.13-.41-2.26-.61-3.39l-.54-3.06c-.37-2.18-.71-4.36-1-6.55-.17-1.12-.34-2.24-.48-3.36-.07-.58-.13-1.15-.19-1.73s-.07-1.17-.08-1.76,0-1.08,0-1.6,0-1.1.06-1.64a.9.9,0,1,1,1.79.08c0,1,0,2,0,3.07v-.12c.05,1,.11,1.95.23,2.92s.27,2.05.42,3.07c.32,2.2.64,4.4,1,6.6s.78,4.52,1.19,6.78.8,4.25,1.25,6.36c.2.93.42,1.87.66,2.79.13.5.24,1,.38,1.52l.45,1.62c.18.57.35,1.15.53,1.72s.38,1.13.57,1.7c.36,1.06.76,2.12,1.17,3.17.78,2,1.6,4.07,2.41,6.11l2,5,1,2.46q.5,1.23,1,2.46c.93,2.12,1.88,4.22,2.84,6.32l1.41,3.12c.48,1,1,2.06,1.48,3.09s1,2,1.58,3.07,1.08,1.91,1.64,2.85l0-.06,0,.06v0c1,1.58,1.94,3.16,2.88,4.76.45.75.87,1.52,1.3,2.28s.88,1.52,1.33,2.28l.8,1.27c.35.53.69,1.05,1.05,1.57l1.78,2.61c1.26,1.81,2.54,3.6,3.9,5.33l1.87,2.21c.62.74,1.2,1.49,1.83,2.21.3.35.61.7.93,1s.69.7,1,1.05.63.6.94.92.55.62.84.92l0,0a.32.32,0,0,1,.31.34.33.33,0,0,1-.33.31Z"/></g><g id="Path_3133" data-name="Path 3133"><path id="Path_3305" data-name="Path 3305" class="cls-1" d="M127.86,202.84a.86.86,0,0,1-.82-.8,4.39,4.39,0,0,1,0-.89v0c.06-.61.14-1.22.23-1.83s.21-1.25.32-1.87.21-1.15.3-1.73.2-1.21.29-1.82c.2-1.23.44-2.45.68-3.67s.49-2.43.72-3.64c.48-2.51,1-5,1.68-7.46.34-1.17.7-2.34,1.07-3.5l1.17-3.76q1.13-3.57,2.32-7.14c.36-1.05.74-2.09,1.14-3.13.21-.53.42-1.05.66-1.57.11-.24.22-.48.35-.72s.14-.25.21-.38a1.11,1.11,0,0,1,.45-.51.34.34,0,0,1,.44.11.32.32,0,0,1,0,.35h0l0,.1,0,0v.05a.21.21,0,0,1-.08.16c-.2.57-.4,1.14-.59,1.71s-.39,1.12-.58,1.68q-.58,1.79-1.11,3.6c-.34,1.19-.67,2.39-1,3.58s-.7,2.4-1,3.6l-1.08,3.81c-.34,1.2-.68,2.4-1,3.6l0,.18c-.27,1.16-.52,2.34-.74,3.51s-.43,2.44-.67,3.66-.48,2.48-.71,3.73c-.11.61-.24,1.21-.34,1.82s-.18,1.21-.28,1.81c-.19,1.13-.4,2.25-.6,3.37q-.14.74-.24,1.47c-.08.58-.17,1.16-.23,1.74a.87.87,0,0,1-.86.72Z"/></g><g id="Path_3134" data-name="Path 3134"><path id="Path_3306" data-name="Path 3306" class="cls-1" d="M131.83,153.45l-.45,0a5.34,5.34,0,0,1-.88-.2,6.46,6.46,0,0,1-1-.39,8.46,8.46,0,0,1-3.15-2.73,10.6,10.6,0,0,1-1.7-3.8,9,9,0,0,1-.22-2.07,8.45,8.45,0,0,1,.14-1.33,2.78,2.78,0,0,1,.11-.5,1.91,1.91,0,0,1,.23-.6.35.35,0,0,1,.52-.12.28.28,0,0,1,.08.38h0l0,0a.26.26,0,0,1-.16.09h0c0,.07,0,.14-.07.2s-.08.38-.11.57,0,.35-.06.52,0,.47,0,.71v0c0,.32,0,.64.08,1h0a9.87,9.87,0,0,0,.26,1.2v0a9.88,9.88,0,0,0,.42,1.19,11.07,11.07,0,0,0,.62,1.18,9.68,9.68,0,0,0,.7,1,9.11,9.11,0,0,0,.73.79c.23.21.47.4.72.59l0,0,0,0h0c.22.15.44.29.67.42a7,7,0,0,0,.74.33l-.07,0a7.08,7.08,0,0,0,.78.25c.22.05.44.08.67.11s.67,0,1,.06a.65.65,0,0,1,.63.69h0a.66.66,0,0,1-.6.62h-.27Z"/></g><g id="Path_3135" data-name="Path 3135"><path id="Path_3307" data-name="Path 3307" class="cls-1" d="M123.8,158.88a5.3,5.3,0,0,1-3.91-1.93h0a4,4,0,0,1-.53-.82,3,3,0,0,1-.3-.93,2.07,2.07,0,0,1,0-.5,1.12,1.12,0,0,1,.09-.36.43.43,0,0,1,.19-.23.28.28,0,0,1,.2,0,.06.06,0,0,1,.06.08.07.07,0,0,1-.06.07h-.13l0,0h0l0,0,0,0h0a.25.25,0,0,0,0,.07h0a.2.2,0,0,0,0,.08s0,.08,0,.13h0a.68.68,0,0,0,0,.14h0c0,.07,0,.14,0,.21h0a2.28,2.28,0,0,0,0,.26h0c0,.12.05.24.08.36h0a2.74,2.74,0,0,0,.15.4h0a5.21,5.21,0,0,0,.24.47h0a4.15,4.15,0,0,0,.3.43h0l.27.3h0a4.94,4.94,0,0,0,.44.36h0a5.84,5.84,0,0,0,.53.33h0l.56.25c.22.08.45.15.68.21h0a4.51,4.51,0,0,0,.53.09h0a5.86,5.86,0,0,0,.73,0h0c.24,0,.49,0,.73-.06h0l.85-.16.92-.21a.34.34,0,0,1,.42.24.34.34,0,0,1-.24.43h0c-.34.07-.68.12-1,.16-.15,0-.3,0-.46.06s-.44,0-.67,0Z"/></g><g id="Path_3136" data-name="Path 3136"><path id="Path_3308" data-name="Path 3308" class="cls-1" d="M125.75,169.93l-.1-.07-.1-.05h0a3.82,3.82,0,0,0-.46-.21h0l-.06,0h0l-.24-.09h0l-.06,0h0l-.25-.09-.22-.07-.58-.16h0l-.22-.06h0l-.08,0-.17,0h0l-.87-.17c-.33-.05-.65-.1-1-.13a.52.52,0,0,1-.43-.59h0a.5.5,0,0,1,.59-.43h0l.08,0,2.25.78a10.58,10.58,0,0,1,1,.4l.48.25.22.14a1.93,1.93,0,0,1,.36.28.29.29,0,0,1,.11.18.17.17,0,0,1,0,.1.15.15,0,0,1-.12.08h0A.2.2,0,0,1,125.75,169.93Z"/></g><g id="Path_3137" data-name="Path 3137"><path id="Path_3309" data-name="Path 3309" class="cls-1" d="M153.05,221.69a9.47,9.47,0,0,1-.88-1.74,13.92,13.92,0,0,1-.53-1.66c0-.15-.06-.3-.09-.45s-.05-.27-.07-.4a8.09,8.09,0,0,1-.12-.84c0-.3-.05-.61-.06-.92v-.54c0-.12,0-.24,0-.36,0-.31,0-.62,0-.92s.07-.62.1-.93c.07-.61.16-1.21.26-1.81s.21-1.1.34-1.65.26-1.1.41-1.64.37-1.25.58-1.86.44-1.26.69-1.88l0,.06c.26-.65.55-1.3.82-2s.51-1.22.74-1.83l.26-.68a2.36,2.36,0,0,1,.33-.7.28.28,0,0,1,.4,0,.25.25,0,0,1,.1.23h0a4.06,4.06,0,0,1-.17.91c-.06.25-.14.51-.21.76-.16.53-.33,1.06-.52,1.57-.4,1.12-.8,2.24-1.15,3.38-.19.61-.35,1.23-.51,1.85h0l0,.14v0l-.16.66v0l0,.13v0c-.14.59-.25,1.19-.36,1.78s-.18,1.23-.27,1.84c0,.46-.09.91-.12,1.36s-.05.91-.06,1.37c0,.29,0,.58,0,.86a2.6,2.6,0,0,0,0,.39c0,.15,0,.3,0,.46s.09.47.13.7.1.45.16.67a5.25,5.25,0,0,0,.22.67l.27.68a17.44,17.44,0,0,0,.82,1.54.84.84,0,0,1-.36,1.13h0a.86.86,0,0,1-.39.09A.82.82,0,0,1,153.05,221.69Z"/></g><g id="Path_3138" data-name="Path 3138"><path id="Path_3310" data-name="Path 3310" class="cls-1" d="M143.9,216.24a1.92,1.92,0,0,1,.07-.48,3.83,3.83,0,0,1,.22-.56c.07-.14.15-.28.23-.42l0,.06.24-.44v0a15.44,15.44,0,0,1,.8-1.35c.31-.47.62-.94,1-1.4l.54-.71c.18-.24.37-.45.55-.67s.17-.19.25-.28l.36-.38a3.19,3.19,0,0,1,.76-.61.5.5,0,0,1,.6.06l0,.07a.41.41,0,0,1-.11.56.46.46,0,0,1-.23.06h0l0,0a4.27,4.27,0,0,0-.38.36h0c-.37.43-.73.87-1.06,1.33s-.49.7-.72,1.07-.46.76-.68,1.14-.35.66-.5,1-.29.65-.42,1l0,0c0,.1-.07.19-.1.29l0,.16v.13a.68.68,0,0,1-.14.46.67.67,0,0,1-.45.24h0a.66.66,0,0,1-.64-.66A0,0,0,0,1,143.9,216.24Z"/></g><g id="Path_3139" data-name="Path 3139"><path id="Path_3311" data-name="Path 3311" class="cls-1" d="M164.25,215.52c-.65-.13-1.28-.29-1.91-.46a8.69,8.69,0,0,1-.86-.29l-.45-.19a3.64,3.64,0,0,1-.66-.38.56.56,0,0,1-.25-.23.51.51,0,0,1,.23-.68h0a.51.51,0,0,1,.64.15l.18.12a5.48,5.48,0,0,0,.56.23l.77.22c.64.14,1.3.24,1.95.35a.6.6,0,0,1,.48.69h0a.62.62,0,0,1-.58.48Z"/></g><g id="Path_3140" data-name="Path 3140"><path id="Path_3312" data-name="Path 3312" class="cls-1" d="M169.42,158.86a5.07,5.07,0,0,1-1.38-.34,3.43,3.43,0,0,1-1.1-.62,2,2,0,0,1-.37-.44,1.09,1.09,0,0,1-.22-.53.83.83,0,0,1,.33-.82.59.59,0,0,1,.89.28.57.57,0,0,1,0,.49v0h0a.52.52,0,0,0,.1.11l.16.14.11.07.3.13h0a4.62,4.62,0,0,0,.6.19,4,4,0,0,0,.5.1,2.82,2.82,0,0,0,.41,0l.37,0H170q.36-.06.72-.15c.28-.09.56-.19.83-.3s.56-.29.84-.45a9.11,9.11,0,0,0,.95-.68,17.89,17.89,0,0,0,1.49-1.4l.33-.4a3.52,3.52,0,0,0,.27-.37l0,0a6.49,6.49,0,0,0,.39-.62,1.89,1.89,0,0,0,.11-.25,2,2,0,0,0,.08-.26,10.73,10.73,0,0,0,.19-1.11.82.82,0,0,1,.95-.66h0a.81.81,0,0,1,.67.74,3.38,3.38,0,0,1-.17,1.3,3.61,3.61,0,0,1-.36.89,4.44,4.44,0,0,1-.41.62c-.23.31-.48.61-.74.9s-.51.51-.78.74a15.24,15.24,0,0,1-1.68,1.32,8.49,8.49,0,0,1-2.77,1.22,4.8,4.8,0,0,1-1.14.13Z"/></g><g id="Path_3141" data-name="Path 3141"><path id="Path_3313" data-name="Path 3313" class="cls-1" d="M174.64,165.34a.61.61,0,0,1,0-.46.6.6,0,0,1,.42-.34l.18,0a7.92,7.92,0,0,0,.82-.28q.32-.14.63-.3l.14-.09,0,0,.2-.12,0,0c.27-.18.54-.36.8-.55a5.79,5.79,0,0,0,.51-.48c.24-.27.47-.57.69-.87s.27-.42.39-.64l0,0a5,5,0,0,0,.27-.57l.15-.37c.07-.21.15-.42.21-.64s.13-.44.2-.66a.27.27,0,0,1,.33-.18h0a.27.27,0,0,1,.19.33h0c-.11.32-.19.64-.29,1a12.61,12.61,0,0,1-.56,1.44,8.6,8.6,0,0,1-.47.84c-.15.23-.29.47-.45.7a7.89,7.89,0,0,1-1.4,1.37h0l0,0,0,0-.19.16-.09.07a6.44,6.44,0,0,1-1.88,1.05.45.45,0,0,1-.2,0A.63.63,0,0,1,174.64,165.34Z"/></g><g id="Path_3142" data-name="Path 3142"><path id="Path_3314" data-name="Path 3314" class="cls-1" d="M94.28,227.23c-.07-.34-.11-.69-.16-1q-.12-.78-.24-1.53c-.07-.51-.16-1.06-.21-1.59,0-.28-.07-.56-.08-.85l-.06-.9a9.65,9.65,0,0,1,.1-2,1.73,1.73,0,0,1,.26-.74.41.41,0,0,1,.35-.15.35.35,0,0,1,.33.37.35.35,0,0,1-.15.28.14.14,0,0,0,0,.06,4.85,4.85,0,0,0-.09.55,7.18,7.18,0,0,0,0,1v0c0,.49.06,1,.1,1.46,0,.3.08.61.13.91s.12.66.19,1,.17.74.27,1.1.15.54.24.81.21.62.32.93a.66.66,0,0,1-.4.83l-.21,0A.66.66,0,0,1,94.28,227.23Z"/></g><g id="Path_3143" data-name="Path 3143"><path id="Path_3315" data-name="Path 3315" class="cls-1" d="M84.88,227a6.74,6.74,0,0,1-.37-1.18c0-.18-.08-.37-.11-.55s-.05-.39-.08-.59c0-.35-.07-.7-.08-1.05,0-.19,0-.38,0-.57s0-.4,0-.6a4,4,0,0,1,0-.49c0-.11,0-.23,0-.35a1.31,1.31,0,0,1,.12-.46.37.37,0,0,1,.47-.2h0a.36.36,0,0,1,.2.48h0v0l0,0s0,0,0,.06-.06.28-.08.42v-.05l-.06.53v0h0c0,.42,0,.83,0,1.25,0,.2,0,.39,0,.59s0,.35,0,.53.06.38.1.57l.15.59h0v0c.08.25.17.5.26.75a.35.35,0,0,1-.2.43.2.2,0,0,1-.11,0A.33.33,0,0,1,84.88,227Z"/></g><g id="Path_3144" data-name="Path 3144"><path id="Path_3316" data-name="Path 3316" class="cls-1" d="M24.33,241l-.7-.06-1.15-.11c-.2,0-.4-.05-.6-.07l-1-.14c-.53-.07-1.07-.17-1.6-.26s-1-.21-1.55-.32l-.63-.15-.88-.21h.06c-.3-.07-.59-.17-.88-.26l-.77-.26-.75-.28-.78-.3-1-.43a10.31,10.31,0,0,1-1.77-1,7.17,7.17,0,0,1-1.65-1.51,2.13,2.13,0,0,1-.42-.82.83.83,0,0,1,.08-.67.4.4,0,0,1,.55-.13.42.42,0,0,1,.14.56v0a.61.61,0,0,0,0,.13H9s0,0,0,0l0,.07a1.34,1.34,0,0,0,.12.24,1.44,1.44,0,0,0,.18.25,5.36,5.36,0,0,0,.4.43,9.58,9.58,0,0,0,.85.7h0a10.76,10.76,0,0,0,1,.63,20.09,20.09,0,0,0,1.83.83c.48.18.95.35,1.44.51l.67.21.84.23,1.2.27c.35.08.69.13,1,.19s.65.12,1,.16l1.27.18,1.39.14c.37,0,.74.05,1.12.08s.72.05,1.1.05h1.4c.52,0,1.05,0,1.57-.1.3,0,.61,0,.91-.08l.81-.12c.43-.08.86-.16,1.28-.26l1.31-.33c.37-.11.73-.23,1.1-.36s.7-.27,1-.41l.73-.31-.1,0,.6-.3.55-.31c.33-.18.65-.37,1-.56l.14-.08a.76.76,0,0,1,1.19.75h0a.78.78,0,0,1-.31.49c-.59.38-1.19.72-1.79,1.06a8.16,8.16,0,0,1-.84.41l-.92.38-.49.18-.48.15a9.51,9.51,0,0,1-1,.28c-.26.07-.53.13-.8.18s-.67.14-1,.19c-.63.09-1.25.19-1.88.22l-1.06.05H26.13Z"/></g><g id="Path_3145" data-name="Path 3145"><path id="Path_3317" data-name="Path 3317" class="cls-1" d="M21.87,228.9c-.48-.09-1-.17-1.45-.28l-.9-.2a11.27,11.27,0,0,1-1.59-.5,9.23,9.23,0,0,1-1.15-.53,9.6,9.6,0,0,1-1-.66,8.13,8.13,0,0,1-.9-.75c-.16-.15-.3-.31-.45-.46a2.71,2.71,0,0,1-.24-.35.32.32,0,0,1,.15-.44.32.32,0,0,1,.44.14l0,0,.09.11a5.14,5.14,0,0,0,.4.41h0l0,0h0a9.58,9.58,0,0,0,.77.63,9.43,9.43,0,0,0,1,.64,7.43,7.43,0,0,0,.81.37,11.66,11.66,0,0,0,1.31.4h0c.44.11.89.18,1.34.26s.59.09.89.13c.48.05,1,.08,1.46.09s1.08-.08,1.62-.15l1.12-.18a.57.57,0,0,1,.68.44.58.58,0,0,1-.44.69,17.46,17.46,0,0,1-2.6.24A8.39,8.39,0,0,1,21.87,228.9Z"/></g><g id="Path_3146" data-name="Path 3146"><path id="Path_3318" data-name="Path 3318" class="cls-1" d="M24.94,217.33a4.93,4.93,0,0,1-1.54-.62,1.26,1.26,0,0,1-.73-1,.62.62,0,0,1,1.2-.21l.06,0,.27.16c.12.07.24.12.37.18l.53.17.57.1a4.7,4.7,0,0,0,.53,0q.32,0,.63-.06c.33,0,.65-.13,1-.21.89-.26,1.79-.52,2.66-.83a.65.65,0,1,1,.48,1.2h-.05c-.88.32-1.78.57-2.68.84a8.89,8.89,0,0,1-1.45.3,5.44,5.44,0,0,1-.57,0A6.57,6.57,0,0,1,24.94,217.33Z"/></g><g id="Path_3147" data-name="Path 3147"><path id="Path_3319" data-name="Path 3319" class="cls-1" d="M161.65,304.86a.22.22,0,0,1,.15-.06.15.15,0,0,1,.15.16h0a.15.15,0,0,1-.16.14h0a.16.16,0,0,1-.15-.16h0Z"/></g><g class="cls-6"><path class="cls-2" d="M139.4,149.36c.29-1.27.59-2.53.87-3.79.19-.86.39-1.72.5-2.59a12.54,12.54,0,0,1,.36-1.7c.31-1.18.62-2.37,1-3.54a48.58,48.58,0,0,0,1.44-6.43c.21-1.23.35-2.48.5-3.71.19-1.56.45-3.12.58-4.69.1-1.28.3-2.57.42-3.86a4.36,4.36,0,0,0,0-1.3,8.46,8.46,0,0,1,.1-2.07c.09-2.8.12-5.6.16-8.4,0-1.15.13-2.3.08-3.46-.09-2.29-.12-4.58-.28-6.87a23.42,23.42,0,0,1,0-4.43,2.66,2.66,0,0,0-.12-.89,6.73,6.73,0,0,1,.08-3.9,1.32,1.32,0,0,1,.15-.39A22.12,22.12,0,0,1,147.74,84a9.24,9.24,0,0,1,6.13-2.59c1.07,0,2.13-.08,3.2,0a4,4,0,0,0,1.63-.29,18.79,18.79,0,0,1,2-.71,5,5,0,0,1,2.2-.14,9.37,9.37,0,0,0,1.18.09,6.22,6.22,0,0,1,3.29,1.2,18.19,18.19,0,0,0,4.53,2.23,11.47,11.47,0,0,0,2.67.45,10.11,10.11,0,0,1,2.11.42,23.33,23.33,0,0,1,5.53,2.55,13.76,13.76,0,0,1,3,2.3,10.9,10.9,0,0,1,2.29,3.76,7.94,7.94,0,0,1,.58,3,3.32,3.32,0,0,1-.45,1.72c-.57.89-.9,1.88-1.41,2.78-.72,1.3-1.41,2.61-2.09,3.93-1.53,2.93-3.12,5.83-4.52,8.84-.83,1.8-1.64,3.62-2.37,5.47a25,25,0,0,0-1.52,4.52c-.27,1.4-.78,2.76-1.14,4.15-.49,1.92-1,3.84-1.44,5.79-.56,2.62-1.12,5.25-1.56,7.9q-.62,3.69-1,7.43a20.29,20.29,0,0,0-.25,3.3c.07,1.55,0,3.09-.08,4.64a4.75,4.75,0,0,1-1.12,2.71,3.19,3.19,0,0,1-1.7.89,21.19,21.19,0,0,1-5.18.93,43.42,43.42,0,0,1-6.94-.23,27,27,0,0,1-5-1.11,41,41,0,0,1-8.22-3.85,6.09,6.09,0,0,1-1.33-.87,4.85,4.85,0,0,1-1.59-4.31c.06-.51.14-1,.22-1.52Zm7-54.79c.15,1.74.22,3.44.27,5.15.06,2.11.28,4.21.15,6.31-.06.86,0,1.72-.1,2.57-.1,1.25,0,2.5-.06,3.75a32.07,32.07,0,0,0-.09,3.25c0,1.07,0,2.13,0,3.19a48.72,48.72,0,0,1-.58,5.65q-.33,3-.75,5.91A46.25,46.25,0,0,1,144,136.2c-.34,1.23-.69,2.45-1,3.67a41.8,41.8,0,0,0-1,4.4c-.16.94-.36,1.88-.61,2.79a34.77,34.77,0,0,0-.87,4.15,2.77,2.77,0,0,0,.88,2.59,10.5,10.5,0,0,0,2.42,1.72,53.7,53.7,0,0,0,6.75,2.92,22.9,22.9,0,0,0,4.67,1.07,41,41,0,0,0,7.35.23,23.89,23.89,0,0,0,5.16-1.06,1.66,1.66,0,0,0,1.17-1.32,5.05,5.05,0,0,0,.14-1c0-1.71.11-3.42.21-5.13.1-1.52.3-3,.39-4.56.12-2,.46-3.86.74-5.78s.73-3.64,1-5.46c.11-.67.17-1.34.34-2q.54-2.08,1-4.17c.27-1.13.55-2.25.88-3.36.38-1.31.66-2.64,1.12-3.93.54-1.48,1-3,1.53-4.46s1.18-2.81,1.86-4.18c1.16-2.35,2.22-4.73,3.59-7,.06-.1.18-.23,0-.38-.4.12-.79.26-1.19.36a4.92,4.92,0,0,0-3.14,2.35c-.31.51-.59,1-.88,1.57a4.25,4.25,0,0,1-1.7,1.88,6.76,6.76,0,0,1-6,.38,9.64,9.64,0,0,1-1.93-1.1,4.16,4.16,0,0,0-3-.83c-1,.08-1.94.16-2.91.18a5.62,5.62,0,0,1-3.23-.89c-.42-.28-.78-.65-1.18-1a1.72,1.72,0,0,1-.57-.69,36.06,36.06,0,0,0-1.76-3.15,11,11,0,0,1-1.62-4.62,3.4,3.4,0,0,0-.62-1.45,7.85,7.85,0,0,0-2.34-2.25C148.6,96.09,147.28,95.66,146.36,94.57Zm23.52,16.83a5.84,5.84,0,0,0,4-.23,3.06,3.06,0,0,0,1.64-1.42c.25-.47.48-1,.76-1.4a6.57,6.57,0,0,1,4.3-3.46,6.14,6.14,0,0,0,.73-.22,1.46,1.46,0,0,0,.75-.48,15.32,15.32,0,0,0,1.93-2.8,15.57,15.57,0,0,1,2.57-4,2.13,2.13,0,0,0,.29-2.48c-.09-.21-.23-.4-.3-.62a10.77,10.77,0,0,0-2.46-3.9,2.61,2.61,0,0,0-.47-.41,31.57,31.57,0,0,0-3.85-2.48,15.72,15.72,0,0,0-6.16-2,11.58,11.58,0,0,1-4.42-1.37c-1-.52-2-1.11-3-1.71a4,4,0,0,0-1.62-.57l-1-.11a6.87,6.87,0,0,0-2.82,0c-.49.15-1,.34-1.44.52a5.52,5.52,0,0,1-2.15.48c-1,0-2,0-3,0a8.26,8.26,0,0,0-6.51,3.2c-.4.51-.71,1.09-1.11,1.59a4.48,4.48,0,0,0-.78,2.26,1.35,1.35,0,0,0,.06.69,19.08,19.08,0,0,0,.85,2,4.69,4.69,0,0,0,2.22,2.28,10.48,10.48,0,0,1,3.39,2.51,5.51,5.51,0,0,1,1.52,2.92A10,10,0,0,0,155,104a25.42,25.42,0,0,1,1.65,3,3.62,3.62,0,0,0,1.7,1.77,5.58,5.58,0,0,0,2.74.66c.9,0,1.79-.18,2.7-.2a5.6,5.6,0,0,1,3.66,1A4.68,4.68,0,0,0,169.88,111.4Z"/><path class="cls-2" d="M153.55,154.85a14.75,14.75,0,0,0,3.22.49,51.56,51.56,0,0,0,5.56.18,21.24,21.24,0,0,0,4.28-.39c.56-.13.56-.12.54-.72,0-.9-.14-1.81-.09-2.7.06-1.36.15-2.72.26-4.08s.34-2.89.45-4.35c.1-1.31.2-2.63.37-3.93.1-.7.29-1.39.4-2.09.31-2,.76-3.91,1.24-5.84a31.74,31.74,0,0,1,1.5-4.83,1.34,1.34,0,0,0,.09-.26,22.45,22.45,0,0,1,1.58-4.66c.69-1.93,1.43-3.85,2.1-5.8.46-1.34,1.17-2.56,1.74-3.85.24-.55.5-1.1.75-1.64s.35-.52.74-.4.43.25.36.7a2.43,2.43,0,0,1-.25.79,26.5,26.5,0,0,0-2.46,5.65c-.35,1.33-1.06,2.51-1.47,3.82-.51,1.68-1.33,3.24-1.85,4.92a1.45,1.45,0,0,0-.11.26,39.27,39.27,0,0,1-1.39,5c-.23.92-.47,1.84-.68,2.76-.48,2.06-.73,4.15-1,6.24s-.55,4-.86,6c0,.19,0,.37,0,.56-.12,1.75-.32,3.49-.27,5.25,0,.86,0,1.71.07,2.57s0,1.08-.94,1.39a19.85,19.85,0,0,1-5.2.8,44.54,44.54,0,0,1-5.89-.18,25.63,25.63,0,0,1-6.36-1.38,35.2,35.2,0,0,1-4.75-2,14,14,0,0,1-2.51-1.73,2.55,2.55,0,0,1-.72-2.39,13.91,13.91,0,0,1,.56-2.29c.36-1.08.61-2.19.89-3.28.51-2.05,1.19-4,1.61-6.11.28-1.34.42-2.69.62-4a31.51,31.51,0,0,1,.68-4,21.09,21.09,0,0,0,.47-2.88c.23-1.74.39-3.49.68-5.22a23.69,23.69,0,0,0,.19-4.76c0-1.38,0-2.77,0-4.16,0-1,0-2,0-3,0-1.19.19-2.36.22-3.54a14.81,14.81,0,0,0,0-2.21,8.9,8.9,0,0,1,0-1.46.84.84,0,0,1,.91-.76c.17,0,.24.12.26.27s0,.46,0,.69a45.38,45.38,0,0,1-.18,5.47c-.11,1.15-.06,2.32-.07,3.47,0,1.41,0,2.82,0,4.23a2.92,2.92,0,0,0,.13,1.09,4.36,4.36,0,0,1,0,1.44,67.62,67.62,0,0,1-.7,6.82c-.14,1.29-.44,2.56-.52,3.85a14.52,14.52,0,0,1-.36,1.48c-.25,1.44-.43,2.89-.6,4.33a34.29,34.29,0,0,1-1.24,5.84c-.43,1.47-.8,3-1.22,4.42-.34,1.22-.71,2.44-1.06,3.66-.12.43-.21.86-.33,1.28a.5.5,0,0,0,.17.56,8.76,8.76,0,0,0,2.41,1.72c.63.29,1.23.65,1.88.91A27.67,27.67,0,0,0,153.55,154.85Z"/><path class="cls-2" d="M151.54,143.7a1.38,1.38,0,0,1-1.21-1.54c0-.18,0-.37,0-.55a.8.8,0,0,1,.76-.82,1.71,1.71,0,0,1,1.88,2.1A1.13,1.13,0,0,1,151.54,143.7Zm-.25-2.22c-.07.27-.14.49-.19.71a.65.65,0,0,0,.61.8.23.23,0,0,0,.26-.25A1.09,1.09,0,0,0,151.29,141.48Z"/><path class="cls-2" d="M151,128.88a1.3,1.3,0,0,1,1,1.73l0,.06a1.74,1.74,0,0,1-2.56.07,1.44,1.44,0,0,1-.17-.45.45.45,0,0,1,.29-.56.47.47,0,0,1,.61.19,2.92,2.92,0,0,1,.14.31.34.34,0,0,0,.4.21.27.27,0,0,0,.25-.2.44.44,0,0,0-.16-.49,2.55,2.55,0,0,0-.33-.11.36.36,0,0,1-.27-.36.41.41,0,0,1,.35-.38A2,2,0,0,1,151,128.88Z"/><path class="cls-2" d="M162,153.73a1.87,1.87,0,0,1-1.28-.7.9.9,0,0,1-.07-1c.09-.15.19-.27.37-.27s.28.16.32.31a.83.83,0,0,0,.35.57,1,1,0,0,0,1.44-.3,5.35,5.35,0,0,1,.29-.47.44.44,0,0,1,.57-.09.37.37,0,0,1,.17.42,3,3,0,0,1-1.93,1.54A1.25,1.25,0,0,1,162,153.73Z"/><path class="cls-2" d="M146.72,146.74a1.62,1.62,0,0,1,1.77.66,1,1,0,0,1-.23,1,1.58,1.58,0,0,1-2.28.23,1,1,0,0,1-.15-.14c-.15-.23-.37-.46-.19-.75s.51-.18.82.12a1.26,1.26,0,0,0,.57.37.41.41,0,0,0,.47-.21c.08-.16,0-.26-.12-.36A4.21,4.21,0,0,1,146.72,146.74Z"/><path class="cls-2" d="M158.52,133.13a1.92,1.92,0,0,1-1.39,1.25,1.12,1.12,0,0,1-1.14-.83.91.91,0,0,1,0-.54c0-.2.07-.44.33-.47s.27.19.34.36.13.3.21.44.17.3.38.22a.38.38,0,0,0,.27-.49,1.09,1.09,0,0,0-.1-.25c-.21-.4-.19-.56.1-.73a.58.58,0,0,1,.8.16A1.57,1.57,0,0,1,158.52,133.13Z"/><path class="cls-2" d="M153.45,112.21c-.16,0-.34,0-.53,0a1.5,1.5,0,0,1-1.23-.66.8.8,0,0,1-.19-.51c0-.19,0-.45.21-.53s.31.16.4.31a1.08,1.08,0,0,0,1.2.61,1.91,1.91,0,0,1,1.41.46,1.42,1.42,0,0,1,.24.25c.26.37.26.76,0,.92s-.5.09-.79-.31A1.14,1.14,0,0,0,153.45,112.21Z"/><path class="cls-2" d="M154.88,150.26a4.81,4.81,0,0,1-1.33-.76,1.16,1.16,0,0,1-.24-.34.43.43,0,0,1,.11-.61.39.39,0,0,1,.55.13c.22.35.58.44.9.61a.56.56,0,0,0,.79-.15.86.86,0,0,1,.19-.19c.21-.15.43-.2.62,0s.07.39-.08.56A1.6,1.6,0,0,1,154.88,150.26Z"/><path class="cls-2" d="M163.48,113.5a1.64,1.64,0,0,1-1.1-1,.64.64,0,0,1,.12-.71.37.37,0,0,1,.6,0c.1.13.15.29.24.43.35.56.51.61,1.09.3a.82.82,0,0,1,.39-.13.41.41,0,0,1,.41.22.31.31,0,0,1-.09.37A1.56,1.56,0,0,1,163.48,113.5Z"/><path class="cls-2" d="M164.78,135.29c-.92-.16-1.37-.56-1.45-1.21a1.22,1.22,0,0,1,0-.27c0-.21.12-.42.36-.45s.29.19.31.37a.94.94,0,0,0,.78.78c.28.07.55.11.74-.19a.43.43,0,0,1,.28-.19.39.39,0,0,1,.43.12.35.35,0,0,1,0,.39,1,1,0,0,1-.84.63A3.7,3.7,0,0,1,164.78,135.29Z"/><path class="cls-2" d="M167.93,129.07c-.36-.08-.67-.21-.76-.59s-.27-.93.11-1.35a.25.25,0,0,1,.26-.11.23.23,0,0,1,.16.28,1.38,1.38,0,0,0,.13.75c.13.34.24.39.59.28a1.05,1.05,0,0,1,.63-.09c.22.06.28.24.1.39A1.58,1.58,0,0,1,167.93,129.07Z"/><path class="cls-2" d="M171.39,117l-.13,0c-.18-.08-.46-.1-.43-.37s.27-.25.5-.25a.84.84,0,0,0,.82-1c0-.19,0-.36.18-.46a.49.49,0,0,1,.56.16.66.66,0,0,1,.09,1,2.64,2.64,0,0,1-.79.77A1.23,1.23,0,0,1,171.39,117Z"/><path class="cls-2" d="M161.16,143.43l.25.16c.57.37.94.33,1.32-.23.18-.26.31-.32.54-.14s.23.42,0,.63a2.94,2.94,0,0,1-.95.56,1.06,1.06,0,0,1-1.42-.68C160.82,143.55,160.93,143.39,161.16,143.43Z"/><path class="cls-2" d="M161,108a19,19,0,0,1-2-.66,6.23,6.23,0,0,1-2.91-2.67c-.11-.18-.23-.34-.33-.53a1.37,1.37,0,0,1,.17-1.49.31.31,0,0,1,.56.09,5.12,5.12,0,0,0,.59,1,5.92,5.92,0,0,0,3.39,2.67,11.57,11.57,0,0,0,3.5.31c.32,0,.62,0,.7.36a.69.69,0,0,1-.58.81,8.64,8.64,0,0,1-2.21.16C161.62,108,161.34,108,161,108Z"/><path class="cls-2" d="M169.94,99a5.21,5.21,0,0,1-1.74-.75,1.64,1.64,0,0,0-1.64-.15,3.12,3.12,0,0,1-1.76.22,3,3,0,0,1-2-1.35,1.71,1.71,0,0,1-.24-.65.4.4,0,0,1,.22-.46.36.36,0,0,1,.48.14,3.5,3.5,0,0,0,1.13,1,2.29,2.29,0,0,0,1.81.13l.66-.23a1.85,1.85,0,0,1,1.77.23,4.55,4.55,0,0,0,1.72.69,2.13,2.13,0,0,0,1.66-.29,2.9,2.9,0,0,0,.29-.19c.24-.17.48-.32.75-.1s.18.57-.13.87a3.13,3.13,0,0,1-2.1.93A7.27,7.27,0,0,1,169.94,99Z"/><path class="cls-2" d="M170,109.82a2.51,2.51,0,0,1-1.45-.85c-.2-.22-.46-.52-.27-.78s.57,0,.8.11a3.73,3.73,0,0,0,3.32.41,4.45,4.45,0,0,0,2-1.56c.35-.43.66-.89,1-1.35a4,4,0,0,1,1.82-1.44c.27-.11.55-.23.76.06s.05.57-.11.83a.74.74,0,0,1-.38.29,3.88,3.88,0,0,0-1.74,1.44,12.63,12.63,0,0,1-1.78,2A4.45,4.45,0,0,1,170,109.82Z"/><path class="cls-2" d="M179.55,89.16a5.27,5.27,0,0,1,2.83,1.64,9.58,9.58,0,0,1,1.73,2.41,5,5,0,0,1,.21,4,2.77,2.77,0,0,1-.68,1c-.16.15-.37.35-.61.15s-.11-.42,0-.64a.77.77,0,0,1,.12-.24c.9-1.13.58-2.32.14-3.48a9.13,9.13,0,0,0-1.91-2.71,5.6,5.6,0,0,0-1.93-1.2,4.94,4.94,0,0,1-.57-.26c-.15-.08-.28-.22-.23-.39a.42.42,0,0,1,.44-.28A4,4,0,0,1,179.55,89.16Z"/><path class="cls-2" d="M167.29,87.25a7.72,7.72,0,0,1-2.3-1,8.19,8.19,0,0,0-2.62-1,3,3,0,0,0-1.89.32c-.18.09-.41.38-.59.11s0-.53.24-.72a3.1,3.1,0,0,1,3-.63A11,11,0,0,1,166,85.54a5.62,5.62,0,0,0,1.87.69c.28.07.58.09.57.48a.83.83,0,0,1-.73.62A2.7,2.7,0,0,1,167.29,87.25Z"/><path class="cls-2" d="M147.86,89.31a4.85,4.85,0,0,1,2.58-3.54c.53-.27,1.08-.52,1.62-.79.27-.13.53-.21.73.1a.62.62,0,0,1-.22.8,11,11,0,0,1-1.25.6,4.56,4.56,0,0,0-2.16,1.67,3.2,3.2,0,0,0,.13,3.57,2.4,2.4,0,0,1,.19.29c.12.23,0,.4-.16.55s-.34,0-.48-.1A3.45,3.45,0,0,1,147.86,89.31Z"/><path class="cls-2" d="M157.9,100.2a5.22,5.22,0,0,1-2.89-2,2.85,2.85,0,0,1-.49-.75.86.86,0,0,1-.06-.61.58.58,0,0,1,.41-.43c.26,0,.38.12.48.31a6.76,6.76,0,0,0,1.46,1.65,2.37,2.37,0,0,0,1.35.64,1.21,1.21,0,0,1,.34.07c.27.12.6.21.55.61a.79.79,0,0,1-.81.6A1.86,1.86,0,0,1,157.9,100.2Z"/><path class="cls-2" d="M156.17,93.35a3,3,0,0,1-2-2.62.72.72,0,0,1,.18-.37c.19-.24.4-.22.53.06A4.14,4.14,0,0,1,155,91a2.11,2.11,0,0,0,.8,1.18,1.37,1.37,0,0,0,1.07.37,6.42,6.42,0,0,1,1.45.08,1.36,1.36,0,0,1,1.19.71c.07.18.14.36,0,.52A.51.51,0,0,1,159,94l-.06,0c-.78-.67-1.74-.52-2.64-.59Z"/><g id="Group_1096" data-name="Group 1096"><g id="Group_1090" data-name="Group 1090"><path id="Path_8924" data-name="Path 8924" class="cls-1" d="M161.13,126.22a4.7,4.7,0,0,1-2.09-1.13,4.63,4.63,0,1,1,1.88-7.81,4.63,4.63,0,1,1,.21,8.94Zm-2-1.29,0,0a4.47,4.47,0,1,0,1.8-7.51.08.08,0,0,1-.08,0,4.47,4.47,0,1,0-1.8,7.51Z"/></g><g id="Group_1091" data-name="Group 1091"><path id="Path_8925" data-name="Path 8925" class="cls-1" d="M156.38,121.26a.7.7,0,0,1-.45,0l-.09,0,.09-.37-.36-.08-.1.4c0,.06-.24.13-.46.08l-.08,0,.74-3.09.47.35.29.07.31-.21.41.51a.3.3,0,0,1-.22.06Zm-.41-.49.48-2-.37-.09-.48,2Zm3,.9s.24.35.37.57c0,.05-.08.06-.15,0l-.83-.2-.22.93s-.28.08-.49,0l-.11,0,.26-1.06-1.62-.39v-.14l1.66.39.2-.82.71.24s-.07.09-.19.08l-.16.64.22,0Zm-1.7-.92a.52.52,0,0,1-.45,0l-.09,0,.52-2.17.52.35.27.06c.08-.18.19-.44.26-.62l.74.35c0,.07-.11.09-.22.07l-.54.26.88.21.31-.21.42.52a.35.35,0,0,1-.2.05l-.37,1.52a.79.79,0,0,1-.48,0l-.09,0,.05-.2-.64-.15a2,2,0,0,1-1.68.53l0-.07a1.7,1.7,0,0,0,1.21-.58l-.37-.09Zm.4-1.67-.14.61.48.12.15-.61Zm.08,1.52a1.8,1.8,0,0,0,.2-.53l0-.12-.49-.12-.16.67Zm1.08.26.16-.67-.51-.12,0,.11a1.78,1.78,0,0,1-.21.54Zm-.17-1.54-.14.61.51.12.14-.61Z"/></g><g id="Group_1092" data-name="Group 1092"><path id="Path_8926" data-name="Path 8926" class="cls-1" d="M164.75,120.91s.32.39.5.65a.13.13,0,0,1-.16,0l-.92-.22a3.75,3.75,0,0,1-1.09,1.55c1.8,1.21,1,1.8.52,1.45a5.47,5.47,0,0,0-1-1.16,4.85,4.85,0,0,1-2.64.36v-.07a4.52,4.52,0,0,0,2.28-.63A11.14,11.14,0,0,0,161,122c.28-.37.54-.74.78-1.13l-1-.25v-.15l1.14.27a13.74,13.74,0,0,0,.73-1.26l.76.4s-.08.09-.23.06l-.61,1,1,.25c.07-.2.14-.4.2-.61l.79.38c0,.08-.11.1-.22.07l-.12.32.09,0Zm-2.3.06c-.27.41-.56.83-.81,1.15.37.18.68.34,1,.5a3.48,3.48,0,0,0,.93-1.39Z"/></g><g id="Group_1093" data-name="Group 1093"><path id="Path_8927" data-name="Path 8927" class="cls-1" d="M160.92,126.9a5.24,5.24,0,0,1-2.08-1,5.25,5.25,0,0,1-2.3,0A5.33,5.33,0,1,1,159,115.49h0a5.26,5.26,0,0,1,2.07,1,5.15,5.15,0,0,1,2.31,0,5.32,5.32,0,1,1-2.48,10.35Zm-2-1.33.06,0a5,5,0,0,0,8.07-2.69,5,5,0,0,0-3.69-6h0a4.89,4.89,0,0,0-2.25,0,.17.17,0,0,1-.13,0,4.86,4.86,0,0,0-2-1,5,5,0,0,0-2.36,9.74h0a5,5,0,0,0,2.24,0Z"/></g><g id="Group_1095" data-name="Group 1095"><g id="Group_1094" data-name="Group 1094"><path id="Path_8928" data-name="Path 8928" class="cls-1" d="M155.54,127.41l-.07,0-.08-.05-.08-.06-.07-.06a.17.17,0,0,1,0-.19l.44-.83a.1.1,0,0,1,.06-.05h.07l.17.05.19.09a.79.79,0,0,1,.31.26.31.31,0,0,1,0,.31.25.25,0,0,1-.12.11.35.35,0,0,1-.17,0,.32.32,0,0,1,.1.17.34.34,0,0,1-.3.39A.75.75,0,0,1,155.54,127.41Zm0-.31a.1.1,0,0,0,.05,0l.08,0a.28.28,0,0,0,.13,0,.12.12,0,0,0,.1-.07.09.09,0,0,0,0-.1.22.22,0,0,0-.1-.09l-.15-.08Zm.23-.44.13.07a.13.13,0,0,0,.12,0,.09.09,0,0,0,.08-.06.09.09,0,0,0,0-.1.22.22,0,0,0-.1-.09l-.06,0-.06,0Z"/><path id="Path_8929" data-name="Path 8929" class="cls-1" d="M156.83,126.86a.17.17,0,0,1,.22-.12s0,0,0,0l.63.23v.07s0,0,0,.07a.22.22,0,0,1-.07.09.12.12,0,0,1-.1,0l-.4-.15-.06.18.42.16a.13.13,0,0,1,0,.06s0,.05,0,.08a.2.2,0,0,1-.07.09.14.14,0,0,1-.09,0l-.35-.14-.08.2.49.19s0,0,0,.06a.22.22,0,0,1,0,.08.2.2,0,0,1-.07.09h-.1l-.55-.21a.18.18,0,0,1-.12-.22s0,0,0,0Z"/><path id="Path_8930" data-name="Path 8930" class="cls-1" d="M158,127.26a.18.18,0,0,1,.2-.14h0l.65.16s0,0,0,.06a.19.19,0,0,1,0,.08.21.21,0,0,1-.06.1.14.14,0,0,1-.09,0l-.41-.11,0,.19.44.11a.13.13,0,0,1,0,.06.25.25,0,0,1,0,.08.11.11,0,0,1-.06.09.09.09,0,0,1-.09,0l-.36-.09,0,.21.5.13a.13.13,0,0,1,0,.06v.08a.18.18,0,0,1-.06.09.12.12,0,0,1-.1,0l-.57-.14a.17.17,0,0,1-.14-.2v0Z"/><path id="Path_8931" data-name="Path 8931" class="cls-1" d="M159.43,128.22l-.05.39h-.24l-.06,0,0-.05v-.09l.12-.94a.06.06,0,0,1,0-.06.09.09,0,0,1,.07,0l.16,0h.19a.71.71,0,0,1,.41.17.42.42,0,0,1,0,.54.66.66,0,0,1-.17.12l.12.2.09.17a.22.22,0,0,1-.09.1.17.17,0,0,1-.12,0l-.08,0,0,0,0,0,0-.07-.13-.29Zm.16-.25a.13.13,0,0,0,.12,0,.11.11,0,0,0,.06-.11.14.14,0,0,0,0-.12.3.3,0,0,0-.15,0h-.09l0,.3Z"/><path id="Path_8932" data-name="Path 8932" class="cls-1" d="M161.56,128.25a.44.44,0,0,1,0,.2.42.42,0,0,1-.11.16.48.48,0,0,1-.17.1.69.69,0,0,1-.45,0,.51.51,0,0,1-.18-.09.53.53,0,0,1-.11-.15.71.71,0,0,1,0-.2v-.77l.07,0h.18a.09.09,0,0,1,.06,0,.09.09,0,0,1,0,0,.19.19,0,0,1,0,.08v.62a.17.17,0,0,0,0,.15.2.2,0,0,0,.28,0,.2.2,0,0,0,.05-.15v-.76l.07,0h.17a.06.06,0,0,1,.06,0,.1.1,0,0,1,0,0,.11.11,0,0,1,0,.08Z"/></g></g><circle id="Ellipse_83" data-name="Ellipse 83" class="cls-1" cx="154.62" cy="126.22" r="0.35"/><circle id="Ellipse_84" data-name="Ellipse 84" class="cls-1" cx="162.56" cy="128.12" r="0.35"/></g></g><path class="cls-1" d="M152.35,140.75a2.49,2.49,0,0,0-1.61-.22c-.4,0-.78,0-1.18.06s-.8.08-1.2.13l.28-.16c.34-.21.68-.41,1-.64a8.09,8.09,0,0,0,1.36-1,1.77,1.77,0,0,0,.56-1.22,1.14,1.14,0,0,0-.63-1,2.15,2.15,0,0,0-.87-.18h-.51a18.78,18.78,0,0,0-2.49.28l-.21,0c.69-.48,1.39-1,2.07-1.45a5.38,5.38,0,0,0,.78-.65,1.79,1.79,0,0,0,.34-.44,2,2,0,0,0,.16-.4,1.09,1.09,0,0,0-.15-.83,2.71,2.71,0,0,0-1.65-1,7,7,0,0,0-2.5-.18,8.39,8.39,0,0,0-.86.1l1.79-1c.34-.19.68-.38,1-.6a2.94,2.94,0,0,0,1-.91,1.38,1.38,0,0,0,0-1.45,3.55,3.55,0,0,0-2.43-1.42,7.84,7.84,0,0,0-2.69,0,17.57,17.57,0,0,0-2.4.61,20.77,20.77,0,0,0-4.5,2,39.42,39.42,0,0,0-4.13,2.8c-.3.23-.59.48-.86.73a10.09,10.09,0,0,0-.93.92,8.31,8.31,0,0,0-.77,1c-.31.52-.76,1.37-.2,1.88l.1.08a.57.57,0,0,0,.78-.23l.15-.24.22-.3c.22-.26.45-.5.69-.74a21.93,21.93,0,0,1,1.92-1.54,44.94,44.94,0,0,1,4.25-2.58l0,0,0,0,0,0,0,0c.39-.2.77-.4,1.18-.57s.81-.34,1.22-.49a28.21,28.21,0,0,1,2.85-.84c.46-.09.92-.17,1.4-.22.28,0,.57,0,.86,0l.49,0-.72.42c-.47.27-.94.56-1.41.84-1,.59-2,1.15-2.93,1.77a12.78,12.78,0,0,0-2,1.61,3.6,3.6,0,0,0-.75,1,1.31,1.31,0,0,0-.11,1.14,1.07,1.07,0,0,0,1.14.63,2.9,2.9,0,0,0,.82-.31l.48-.24,1.17-.57c.68-.33,1.38-.63,2.08-.91l.87-.26c.41-.09.81-.15,1.22-.2s.66,0,1,0a5,5,0,0,1,.56.06l.34.07-.21.15c-1.12.77-2.27,1.5-3.38,2.27-.56.39-1.11.78-1.63,1.21a5.47,5.47,0,0,0-.7.66,3,3,0,0,0-.22.28,1.13,1.13,0,0,0-.22.85,1,1,0,0,0,.66.81,1.19,1.19,0,0,0,.65.06l.43-.11.5-.16,1.06-.37c.73-.24,1.46-.47,2.21-.67l.43-.1.4-.07-1.12.67c-.69.42-1.38.86-2,1.34a6,6,0,0,0-.9.77,1.37,1.37,0,0,0-.39.75,1.2,1.2,0,0,0,.15.74,1.29,1.29,0,0,0,1.21.57,26.29,26.29,0,0,0,2.65-.49c.68-.12,1.37-.23,2.06-.3-.17,0-.54.47-.68.59L148,144c-.5.42-1,.82-1.53,1.22s-.77.69-1.18,1a9,9,0,0,1-1.3.69c-1.09.58-2,1.45-3.05,2.1a2.89,2.89,0,0,0-.47.38.8.8,0,0,0-.13.13,1.41,1.41,0,0,0-.35,1,1,1,0,0,0,.27.66c.22.17.66,0,.94-.07a3.78,3.78,0,0,0,1.22-.57c.46-.25.93-.47,1.38-.74.73-.44,1.4-1,2.11-1.46a17.59,17.59,0,0,0,2.65-1.79c.88-.85,1.82-1.64,2.71-2.48.29-.27.56-.55.82-.84a3.14,3.14,0,0,0,.67-1.05A1.22,1.22,0,0,0,152.35,140.75Z"/></g></g></g></svg>