<svg xmlns="http://www.w3.org/2000/svg" viewBox="0 0 173.87 177.8"><defs><style>.cls-1{fill:#fff;}.cls-2{fill:#fbd196;}.cls-3{fill:#7cbdd8;}.cls-4{fill:#3a2316;}</style></defs><g id="圖層_2" data-name="圖層 2"><g id="圖層_1-2" data-name="圖層 1"><g id="Group_6803" data-name="Group 6803"><path id="Path_70594" data-name="Path 70594" class="cls-1" d="M89.73,177.79H89a74.19,74.19,0,0,1-11.12-1.14c-2.53-.43-4.26-.64-4.82-.67-.5.14-1.32,0-3-.6-7.56-1.53-13.65-5.33-20.09-9.35C48,164.84,46,163.61,44,162.44c-.38-.25-2.79-1.55-6.14-3.29a73.11,73.11,0,0,1-8-4.77c-3.43-2.63-9.72-9.9-12.94-14.95a32.81,32.81,0,0,0-2.6-3.16c-1.86-2-3.5-5.22-7-13.67-.51-1.23-1.73-5.07-2.72-8.56-1.08-3.76-1.92-6.65-2.05-7a12.91,12.91,0,0,1-.46-2.29c-.06-.53-.5-2.51-1-4.52C.15,96.72-.26,89.83.17,84.52.74,77.42,4.8,56.05,6.44,54a28.5,28.5,0,0,0,1.21-3.23c1.7-5.23,5.52-12.78,8.19-16.14.78-1,2.42-3.07,3.65-4.64A105.69,105.69,0,0,1,31,18.31C41.3,10,51.34,4.37,59.31,2.48a32.48,32.48,0,0,1,8-1.14,24.34,24.34,0,0,0,4.87-.7l.13,0C74.44.33,76.75.13,79.16,0h0a103,103,0,0,1,53.78,13.48c12.44,7.27,21.56,16.93,26.39,28,.52,1.29.65,1.51,4.53,7.72s7.76,14.9,8.54,19.06c2,7.46,1.54,13.49,1.07,19.88-.12,1.55-.23,3.13-.31,4.75-.23,4.59-.74,11.93-1.23,13.37-.32,1-1.07,3.31-1.65,5.16a80.67,80.67,0,0,1-6.27,15c-2.48,4.5-3,5.23-7.77,11.18-4.36,5.44-7.51,10.19-7.76,11.06a4,4,0,0,1-1.93,2.35,5.37,5.37,0,0,0-1.37,1.14,130.52,130.52,0,0,1-11.51,10.42,44,44,0,0,1-5.75,3.51,38.28,38.28,0,0,0-4.82,2.87c-2.24,1.72-12.95,5.26-17,5.85a12.14,12.14,0,0,0-2.6.61,43.52,43.52,0,0,1-5.6,1.58A35.88,35.88,0,0,1,89.73,177.79Zm-16.14-2.16-.06.06.06-.06Zm-.67-2.27a38.39,38.39,0,0,1,5.35.7A70.2,70.2,0,0,0,89,175.16a33.94,33.94,0,0,0,8.29-.78,47.36,47.36,0,0,0,5-1.35,13.59,13.59,0,0,1,3.44-.88c4.17-.6,14.22-4.1,15.83-5.33a39.58,39.58,0,0,1,5.23-3.14,40.78,40.78,0,0,0,5.33-3.25,132.08,132.08,0,0,0,11-10,7.76,7.76,0,0,1,2.2-1.83,1.65,1.65,0,0,0,.6-.63c.4-1.8,5.28-8.38,8.27-12.1,4.69-5.85,5.11-6.45,7.52-10.82a78.38,78.38,0,0,0,6.06-14.47c.58-1.86,1.34-4.2,1.67-5.2a109.74,109.74,0,0,0,1.09-12.67c.08-1.65.2-3.25.31-4.82.46-6.18.89-12-1-19.05l0-.11c-.69-3.8-4.51-12.3-8.19-18.19-4-6.41-4.13-6.63-4.72-8.1-4.59-10.47-13.34-19.72-25.3-26.7A100.27,100.27,0,0,0,79.26,2.66c-2.3.09-4.51.27-6.57.55A26.57,26.57,0,0,1,67.16,4,30,30,0,0,0,59.92,5c-7.49,1.78-17.41,7.35-27.21,15.28A103.27,103.27,0,0,0,21.56,31.59L17.9,36.24c-2.47,3.11-6.16,10.41-7.75,15.32a21.88,21.88,0,0,1-1.64,4C7.4,57.38,3.42,76.84,2.79,84.73c-.4,5,0,11.6.85,14.8a48.63,48.63,0,0,1,1.12,4.92,10,10,0,0,0,.34,1.71c.22.66,1.78,6.08,2.09,7.16,1,3.7,2.2,7.27,2.62,8.28,3.31,8,4.89,11.15,6.49,12.9A34.88,34.88,0,0,1,19.19,138c3,4.76,9.13,11.84,12.32,14.28a71.16,71.16,0,0,0,7.6,4.53c1.91,1,5.69,3,6.3,3.38,2,1.15,4,2.4,5.9,3.59,6.26,3.91,12.18,7.6,19.31,9l.21.06a10,10,0,0,0,1.61.5l.48,0Z"/></g><g id="Group_6789" data-name="Group 6789"><path id="Path_70584" data-name="Path 70584" class="cls-2" d="M161.83,89.71c0,41.85-33.36,75.77-74.51,75.77S12.81,131.56,12.81,89.71,46.17,13.94,87.32,13.94,161.83,47.87,161.83,89.71Z"/><path id="Path_70585" data-name="Path 70585" class="cls-3" d="M53.4,77.7c-3,.27-6.33-.3-9.16.91-1,2.16.95,4.59,1.19,6.8,1.37,4.27-1.67,8.3-3.09,12.14C40,102.64,36.63,108,38,113.85c1.26,8.27,9.33,14,9.41,22.56-.09,4.38-3,8-5,11.6,0,2.58,3.45,3.14,5.07,4.54,1.66.57,3.65,3.11,5.39,1.68,4-5.4,7.63-11.53,7.85-18.44.4-5.8-3.35-10.81-5.12-16.1-1.35-2.88-2.29-6.1-1.12-9.21,1.09-5.94,4.85-10.9,5.66-16.92.2-5.29-2.56-10.14-3.67-15.17-.75-.89-2.11-.63-3.13-.69Zm66.68,0c-1.09.13-2.1.68-2,2-1.66,5.92-5.19,12.29-2.27,18.43,2.23,5.42,5,11,5.07,16.94-1.61,6.42-5.75,12.07-6.72,18.67-.38,6.6,2.37,12.82,6,18.16,1.19,1.22,1.41,4.52,3.72,4,3.39-1.82,7-3.85,9.38-6.85-2.49-3.84-5.78-7.81-5.72-12.72a14.66,14.66,0,0,1,2.74-8.82c2.55-4.74,6.13-9.22,6.78-14.77,1-6.31-3.36-11.66-5.56-17.23-1.89-3.74-3.28-8.25-1.39-12.31.37-1.55,1.76-4.77-.78-5.12a65.51,65.51,0,0,0-8.17-.33,4.79,4.79,0,0,0-1.07,0Z"/><path id="Path_70586" data-name="Path 70586" class="cls-4" d="M82.72,11.08a22.72,22.72,0,0,0-11.25,2.36,21,21,0,0,1-5.13,1.22,17.08,17.08,0,0,0-4.12.86,4.45,4.45,0,0,1-1.7.5c-.88,0-9.29,4.18-13.24,6.57-1.46.89-3.76,2.48-5.1,3.53-2.4,1.89-8.85,8.42-8.85,9a8.14,8.14,0,0,1-1.44,1.82c-1.86,2-4.76,6-4.76,6.63a19.32,19.32,0,0,1-2.36,3.63c-1.3,1.74-2.74,3.76-3.21,4.49a18,18,0,0,1-1.66,2.21c-1.13,1.22-4.86,9.12-6,12.61-2.26,7.15-2.89,12-2.92,22.58,0,11.37.21,14.62,1.47,19.93.95,4,4,11.55,5.12,12.81a2.41,2.41,0,0,1,.66,1.13A14.93,14.93,0,0,0,20,125.76a72.26,72.26,0,0,1,4.06,7.1,65.78,65.78,0,0,0,16.41,18.06c19.2,14.52,44,17.07,61.06,15.36,5.35-.52,11.28-1.65,13-2.49a11.62,11.62,0,0,1,2.07-.83c6-2.43,12.53-6,17.21-10.41,1.34-1.28,3.88-3.67,5.65-5.32a19.94,19.94,0,0,0,3.2-3.42,24.17,24.17,0,0,1,3.14-3.77,36.5,36.5,0,0,0,7.91-11.7c4.58-9.61,6.77-16.84,7.74-25.57.16-1.34.55-4.23.89-6.42.69-4.53.65-18-.06-18.9a4.84,4.84,0,0,1-.68-1.68c-.12-.61-1.13-3.89-2.25-7.3-3.34-10.2-5.12-14.76-6.28-16.16a5.75,5.75,0,0,1-.88-1.77c-.45-1.57-2.32-4.3-4.55-6.66-1-1.11-3-3.4-4.24-5.09-5.5-7.25-7.72-8.83-26-18.37-1.82-1-4.21-2.23-5.3-2.85a9,9,0,0,0-2.77-1.1c-.43,0-.78-.22-.78-.49s-.28-.39-.62-.26a1.87,1.87,0,0,1-1.43-.33c-2.23-1.52-11.65-3.63-18.1-4.05-2.27-.15-4.14-.24-5.74-.26Zm.4,3.57a61.56,61.56,0,0,1,9.29.73,25.93,25.93,0,0,0,4.57.45,4.85,4.85,0,0,1,2,.45,11.67,11.67,0,0,0,3,.62,2.22,2.22,0,0,1,1.5.4,6.83,6.83,0,0,0,2.46.94,8.78,8.78,0,0,1,3.61,1.83,15.49,15.49,0,0,0,3,2.1c2.38,1.18,7.69,4,8.45,4.46.36.22,2.76,1.43,5.31,2.69a58.83,58.83,0,0,1,6.7,3.79c2.87,2.09,8.25,8,11,12.14a28.94,28.94,0,0,0,2.4,2.79c1.52,1.57,2.94,4.21,6,11.13.43,1,1.52,4.16,2.43,7.08s1.76,5.61,1.89,6a9.64,9.64,0,0,1,.39,1.69c.27,1.34.61,2.67,1,4a45.92,45.92,0,0,1,1.06,12.91c-.38,6.7-3.44,24-4.49,25.43a19.43,19.43,0,0,0-1.14,3.12,53,53,0,0,1-6.44,13.5c-.64.85-2,2.65-3,4a88.4,88.4,0,0,1-9.2,9.76c-.69-2.31-3.05-6.68-3.53-8.36-.9-3.11.1-6.42,3.69-12.17,4.15-6.66,5.56-10.54,5.71-15.77,0-1.57-2.23-8-3.71-10.54a69,69,0,0,1-3.34-6.66c-1.81-4.21-1.85-6-.29-11.2.88-3,1-7.78-4.74-7.33-2.77.1-16.62-.48-16.87-.72-.41-.39.85-1.34,5.9-4.45,5.5-3.39,6.77-4.69,6-6.12a1.22,1.22,0,0,0-1.29-.69,6.52,6.52,0,0,0-2.42,1c-1,.6-3.28,1.84-5.11,2.74a49,49,0,0,0-6.44,4c-5.26,4-5.18,3.83-3.93,6.17a6.18,6.18,0,0,0,1.2,1.66,25.84,25.84,0,0,0,5.27.33,20.67,20.67,0,0,1,4.78.29c0,.16-.87,2.21-1.94,4.56a39.09,39.09,0,0,0-2.22,5.83c-.52,2.86.5,8.23,2.43,13,2.57,6.33,3.41,9.53,3,11.42a47.87,47.87,0,0,1-2.66,8.66c-3.07,7.82-3.19,8.29-3.23,12.67a23.42,23.42,0,0,0,1.76,10.06,6.92,6.92,0,0,1,.62,2c0,1,4.44,10,8.21,9-.81.47-.47.24-1.58.88a31.17,31.17,0,0,1-8.69,3.59,26.79,26.79,0,0,1-6.42,1.08,21.36,21.36,0,0,0-4.42.73c-12.92,2.06-30.25-.07-45.24-6.75,3.08-1.84,5.92-7.75,5.92-8.57a7.57,7.57,0,0,1,.62-2A23.28,23.28,0,0,0,63.7,135c-.05-4.38-.17-4.85-3.24-12.67a47.6,47.6,0,0,1-2.65-8.66c-.4-1.89.45-5.09,3-11.42,1.94-4.78,3-10.15,2.44-13A39.13,39.13,0,0,0,61,83.4C60,81.05,59.09,79,59.09,78.84a20.7,20.7,0,0,1,4.78-.29,25.84,25.84,0,0,0,5.27-.33,6.21,6.21,0,0,0,1.21-1.66c1.25-2.34,1.33-2.21-3.93-6.17a49,49,0,0,0-6.44-4c-1.83-.9-4.14-2.14-5.11-2.74a6.56,6.56,0,0,0-2.43-1,1.22,1.22,0,0,0-1.28.69c-.8,1.43.46,2.73,6,6.12,5,3.11,6.31,4.06,5.9,4.45-.25.24-14.1.83-16.87.72-5.72-.45-5.62,4.34-4.74,7.33,1.56,5.24,1.52,7-.29,11.2a69,69,0,0,1-3.34,6.66c-1.48,2.5-3.76,9-3.71,10.54.15,5.23,1.56,9.11,5.71,15.77,3.59,5.75,4.59,9.06,3.69,12.17-.46,1.62-2.64,5.69-3.42,8.06a46.5,46.5,0,0,1-12.93-16.22c-.5-1.14-.6-1.32-4.07-6.6-3.3-5-6.79-12.32-7.48-15.65-2.24-7.64-1.3-13.59-1.11-20.58a91.05,91.05,0,0,1,.73-11.07c.26-.85.85-2.85,1.3-4.43a67.91,67.91,0,0,1,4.94-12.61c2-3.82,2.38-4.43,6.26-9.49,3.33-4.35,6.39-9,6.59-10a2.29,2.29,0,0,1,1-1.28,5.42,5.42,0,0,0,1.48-1.3,113.82,113.82,0,0,1,9.37-8.87,36.86,36.86,0,0,1,4.63-3A31.68,31.68,0,0,0,55,22.61c1.59-1.27,10.32-4.47,13.83-5.07a10.71,10.71,0,0,0,2.55-.7,36.55,36.55,0,0,1,4.44-1.34,30.84,30.84,0,0,1,7.28-.87ZM54,50.87c-7.35.2-14.32,7.06-18.73,11.7a35.27,35.27,0,0,0-3.82,4.55c-.88,2.39,1.7,2.87,3.57.67,2.91-3.41,6.25-6.22,12.06-10.11,3.94-2.64,4.34-2.81,7.34-3,1.73-.13,3.31-.45,3.49-.72.57-.87.37-1.61-.75-2.73A11.61,11.61,0,0,0,54,50.87Zm66.94,0a11.3,11.3,0,0,0-3.17.35c-1.12,1.12-1.32,1.86-.74,2.73.18.27,1.75.59,3.49.71,3,.21,3.39.37,7.34,3,5.8,3.89,9.15,6.7,12.05,10.11,1.88,2.2,4.45,1.72,3.57-.67a34,34,0,0,0-3.82-4.55c-4.4-4.64-11.38-11.5-18.72-11.7ZM56,78.43v1.24a24.38,24.38,0,0,0,1.58,5.22c2.25,5.68,2.46,8.74.87,12.64-.67,1.66-1.78,4.13-2.45,5.47-1.61,3.24-3.3,10.57-2.87,12.52a15.46,15.46,0,0,0,1.1,3c.44.86,1.53,3.46,2.44,5.77s2.05,5,2.55,6c1.33,2.6.92,8.43-1,13.54-1.1,3-4.72,7.83-5.9,10.3-.91-.45-1.85-.86-2.74-1.34a64,64,0,0,1-7-4.44c2.44-1.77,5.07-8,5.34-8.9a14.78,14.78,0,0,0-.45-8.15A11.28,11.28,0,0,0,46,127.87a1.76,1.76,0,0,1-.63-1,25.34,25.34,0,0,0-2.39-4,21.27,21.27,0,0,1-3.54-7c-.83-1.3-1.19-5-.72-7.57.33-1.75,2-5.49,5.33-11.91,1.65-3.2,2.77-6.92,2.71-9a24.29,24.29,0,0,0-1.39-5.31c-.59-1-.91-3.5,0-3.54,0,.23,2.26.3,5.33.16Zm62.89,0,5.33.25c3.07.14,5.33.07,5.33-.16.91,0,.59,2.51,0,3.53a24.44,24.44,0,0,0-1.39,5.31c-.06,2,1.06,5.78,2.72,9,3.32,6.43,5,10.17,5.33,11.91.47,2.52.11,6.27-.73,7.57a21,21,0,0,1-3.54,7,26.62,26.62,0,0,0-2.38,4.06,1.71,1.71,0,0,1-.64,1,11.36,11.36,0,0,0-1.58,3.45,14.73,14.73,0,0,0-.46,8.16c.29,1,3.24,7.94,5.8,9.18a54.23,54.23,0,0,1-5.48,4.44c-.3.14-2.61,1.45-4.31,2.41.46-1.26-4.89-7.91-6.26-11.65-1.87-5.11-2.28-10.94-1-13.54.5-1,1.64-3.67,2.55-6s2-4.92,2.43-5.78a14.66,14.66,0,0,0,1.11-3c.42-2-1.27-9.28-2.88-12.52-.67-1.34-1.77-3.81-2.45-5.47-1.58-3.9-1.37-7,.87-12.64a23.66,23.66,0,0,0,1.58-5.22ZM87.35,94c-2.62-.11-4.32.83-6.33,3.36-3.3,4.14-5.08,8.35-7.26,17.17-3,12-3,21.89,0,27,1.22,2.07,6.24,6.7,8.58,7.91a8.23,8.23,0,0,0,7.15.31,7.76,7.76,0,0,0,2.36-1.37,1.39,1.39,0,0,1,1.1-.48c1.18,0,4-2.44,5.61-4.79s2.51-5,3.47-9.59c.68-3.27.62-7.78-.18-15.27-.63-5.84-2.24-13.8-3-14.64a2.55,2.55,0,0,1-.6-1.3,13,13,0,0,0-1.64-3.13,11.14,11.14,0,0,0-8.13-5.07A10.13,10.13,0,0,0,87.35,94Z"/></g><g id="Group_6793" data-name="Group 6793"><path id="Path_70584-2" data-name="Path 70584-2" class="cls-2" d="M161.83,89.71c0,41.85-33.36,75.77-74.51,75.77S12.81,131.56,12.81,89.71,46.17,13.94,87.32,13.94,161.83,47.87,161.83,89.71Z"/><path id="Path_70585-2" data-name="Path 70585-2" class="cls-3" d="M53.4,77.7c-3,.27-6.33-.3-9.16.91-1,2.16.95,4.59,1.19,6.8,1.37,4.27-1.67,8.3-3.09,12.14C40,102.64,36.63,108,38,113.85c1.26,8.27,9.33,14,9.41,22.56-.09,4.38-3,8-5,11.6,0,2.58,3.45,3.14,5.07,4.54,1.66.57,3.65,3.11,5.39,1.68,4-5.4,7.63-11.53,7.85-18.44.4-5.8-3.35-10.81-5.12-16.1-1.35-2.88-2.29-6.1-1.12-9.21,1.09-5.94,4.85-10.9,5.66-16.92.2-5.29-2.56-10.14-3.67-15.17-.75-.89-2.11-.63-3.13-.69Zm66.68,0c-1.09.13-2.1.68-2,2-1.66,5.92-5.19,12.29-2.27,18.43,2.23,5.42,5,11,5.07,16.94-1.61,6.42-5.75,12.07-6.72,18.67-.38,6.6,2.37,12.82,6,18.16,1.19,1.22,1.41,4.52,3.72,4,3.39-1.82,7-3.85,9.38-6.85-2.49-3.84-5.78-7.81-5.72-12.72a14.66,14.66,0,0,1,2.74-8.82c2.55-4.74,6.13-9.22,6.78-14.77,1-6.31-3.36-11.66-5.56-17.23-1.89-3.74-3.28-8.25-1.39-12.31.37-1.55,1.76-4.77-.78-5.12a65.51,65.51,0,0,0-8.17-.33,4.79,4.79,0,0,0-1.07,0Z"/><path id="Path_70586-2" data-name="Path 70586-2" class="cls-4" d="M82.72,11.08a22.72,22.72,0,0,0-11.25,2.36,21,21,0,0,1-5.13,1.22,17.08,17.08,0,0,0-4.12.86,4.45,4.45,0,0,1-1.7.5c-.88,0-9.29,4.18-13.24,6.57-1.46.89-3.76,2.48-5.1,3.53-2.4,1.89-8.85,8.42-8.85,9a8.14,8.14,0,0,1-1.44,1.82c-1.86,2-4.76,6-4.76,6.63a19.32,19.32,0,0,1-2.36,3.63c-1.3,1.74-2.74,3.76-3.21,4.49a18,18,0,0,1-1.66,2.21c-1.13,1.22-4.86,9.12-6,12.61-2.26,7.15-2.89,12-2.92,22.58,0,11.37.21,14.62,1.47,19.93.95,4,4,11.55,5.12,12.81a2.41,2.41,0,0,1,.66,1.13A14.93,14.93,0,0,0,20,125.76a72.26,72.26,0,0,1,4.06,7.1,65.78,65.78,0,0,0,16.41,18.06c19.2,14.52,44,17.07,61.06,15.36,5.35-.52,11.28-1.65,13-2.49a11.62,11.62,0,0,1,2.07-.83c6-2.43,12.53-6,17.21-10.41,1.34-1.28,3.88-3.67,5.65-5.32a19.94,19.94,0,0,0,3.2-3.42,24.17,24.17,0,0,1,3.14-3.77,36.5,36.5,0,0,0,7.91-11.7c4.58-9.61,6.77-16.84,7.74-25.57.16-1.34.55-4.23.89-6.42.69-4.53.65-18-.06-18.9a4.84,4.84,0,0,1-.68-1.68c-.12-.61-1.13-3.89-2.25-7.3-3.34-10.2-5.12-14.76-6.28-16.16a5.75,5.75,0,0,1-.88-1.77c-.45-1.57-2.32-4.3-4.55-6.66-1-1.11-3-3.4-4.24-5.09-5.5-7.25-7.72-8.83-26-18.37-1.82-1-4.21-2.23-5.3-2.85a9,9,0,0,0-2.77-1.1c-.43,0-.78-.22-.78-.49s-.28-.39-.62-.26a1.87,1.87,0,0,1-1.43-.33c-2.23-1.52-11.65-3.63-18.1-4.05-2.27-.15-4.14-.24-5.74-.26Zm.4,3.57a61.56,61.56,0,0,1,9.29.73,25.93,25.93,0,0,0,4.57.45,4.85,4.85,0,0,1,2,.45,11.67,11.67,0,0,0,3,.62,2.22,2.22,0,0,1,1.5.4,6.83,6.83,0,0,0,2.46.94,8.78,8.78,0,0,1,3.61,1.83,15.49,15.49,0,0,0,3,2.1c2.38,1.18,7.69,4,8.45,4.46.36.22,2.76,1.43,5.31,2.69a58.83,58.83,0,0,1,6.7,3.79c2.87,2.09,8.25,8,11,12.14a28.94,28.94,0,0,0,2.4,2.79c1.52,1.57,2.94,4.21,6,11.13.43,1,1.52,4.16,2.43,7.08s1.76,5.61,1.89,6a9.64,9.64,0,0,1,.39,1.69c.27,1.34.61,2.67,1,4a45.92,45.92,0,0,1,1.06,12.91c-.38,6.7-3.44,24-4.49,25.43a19.43,19.43,0,0,0-1.14,3.12,53,53,0,0,1-6.44,13.5c-.64.85-2,2.65-3,4a88.4,88.4,0,0,1-9.2,9.76c-.69-2.31-3.05-6.68-3.53-8.36-.9-3.11.1-6.42,3.69-12.17,4.15-6.66,5.56-10.54,5.71-15.77,0-1.57-2.23-8-3.71-10.54a69,69,0,0,1-3.34-6.66c-1.81-4.21-1.85-6-.29-11.2.88-3,1-7.78-4.74-7.33-2.77.1-16.62-.48-16.87-.72-.41-.39.85-1.34,5.9-4.45,5.5-3.39,6.77-4.69,6-6.12a1.22,1.22,0,0,0-1.29-.69,6.52,6.52,0,0,0-2.42,1c-1,.6-3.28,1.84-5.11,2.74a49,49,0,0,0-6.44,4c-5.26,4-5.18,3.83-3.93,6.17a6.18,6.18,0,0,0,1.2,1.66,25.84,25.84,0,0,0,5.27.33,20.67,20.67,0,0,1,4.78.29c0,.16-.87,2.21-1.94,4.56a39.09,39.09,0,0,0-2.22,5.83c-.52,2.86.5,8.23,2.43,13,2.57,6.33,3.41,9.53,3,11.42a47.87,47.87,0,0,1-2.66,8.66c-3.07,7.82-3.19,8.29-3.23,12.67a23.42,23.42,0,0,0,1.76,10.06,6.92,6.92,0,0,1,.62,2c0,1,4.44,10,8.21,9-.81.47-.47.24-1.58.88a31.17,31.17,0,0,1-8.69,3.59,26.79,26.79,0,0,1-6.42,1.08,21.36,21.36,0,0,0-4.42.73c-12.92,2.06-30.25-.07-45.24-6.75,3.08-1.84,5.92-7.75,5.92-8.57a7.57,7.57,0,0,1,.62-2A23.28,23.28,0,0,0,63.7,135c-.05-4.38-.17-4.85-3.24-12.67a47.6,47.6,0,0,1-2.65-8.66c-.4-1.89.45-5.09,3-11.42,1.94-4.78,3-10.15,2.44-13A39.13,39.13,0,0,0,61,83.4C60,81.05,59.09,79,59.09,78.84a20.7,20.7,0,0,1,4.78-.29,25.84,25.84,0,0,0,5.27-.33,6.21,6.21,0,0,0,1.21-1.66c1.25-2.34,1.33-2.21-3.93-6.17a49,49,0,0,0-6.44-4c-1.83-.9-4.14-2.14-5.11-2.74a6.56,6.56,0,0,0-2.43-1,1.22,1.22,0,0,0-1.28.69c-.8,1.43.46,2.73,6,6.12,5,3.11,6.31,4.06,5.9,4.45-.25.24-14.1.83-16.87.72-5.72-.45-5.62,4.34-4.74,7.33,1.56,5.24,1.52,7-.29,11.2a69,69,0,0,1-3.34,6.66c-1.48,2.5-3.76,9-3.71,10.54.15,5.23,1.56,9.11,5.71,15.77,3.59,5.75,4.59,9.06,3.69,12.17-.46,1.62-2.64,5.69-3.42,8.06a46.5,46.5,0,0,1-12.93-16.22c-.5-1.14-.6-1.32-4.07-6.6-3.3-5-6.79-12.32-7.48-15.65-2.24-7.64-1.3-13.59-1.11-20.58a91.05,91.05,0,0,1,.73-11.07c.26-.85.85-2.85,1.3-4.43a67.91,67.91,0,0,1,4.94-12.61c2-3.82,2.38-4.43,6.26-9.49,3.33-4.35,6.39-9,6.59-10a2.29,2.29,0,0,1,1-1.28,5.42,5.42,0,0,0,1.48-1.3,113.82,113.82,0,0,1,9.37-8.87,36.86,36.86,0,0,1,4.63-3A31.68,31.68,0,0,0,55,22.61c1.59-1.27,10.32-4.47,13.83-5.07a10.71,10.71,0,0,0,2.55-.7,36.55,36.55,0,0,1,4.44-1.34,30.84,30.84,0,0,1,7.28-.87ZM54,50.87c-7.35.2-14.32,7.06-18.73,11.7a35.27,35.27,0,0,0-3.82,4.55c-.88,2.39,1.7,2.87,3.57.67,2.91-3.41,6.25-6.22,12.06-10.11,3.94-2.64,4.34-2.81,7.34-3,1.73-.13,3.31-.45,3.49-.72.57-.87.37-1.61-.75-2.73A11.61,11.61,0,0,0,54,50.87Zm66.94,0a11.3,11.3,0,0,0-3.17.35c-1.12,1.12-1.32,1.86-.74,2.73.18.27,1.75.59,3.49.71,3,.21,3.39.37,7.34,3,5.8,3.89,9.15,6.7,12.05,10.11,1.88,2.2,4.45,1.72,3.57-.67a34,34,0,0,0-3.82-4.55c-4.4-4.64-11.38-11.5-18.72-11.7ZM56,78.43v1.24a24.38,24.38,0,0,0,1.58,5.22c2.25,5.68,2.46,8.74.87,12.64-.67,1.66-1.78,4.13-2.45,5.47-1.61,3.24-3.3,10.57-2.87,12.52a15.46,15.46,0,0,0,1.1,3c.44.86,1.53,3.46,2.44,5.77s2.05,5,2.55,6c1.33,2.6.92,8.43-1,13.54-1.1,3-4.72,7.83-5.9,10.3-.91-.45-1.85-.86-2.74-1.34a64,64,0,0,1-7-4.44c2.44-1.77,5.07-8,5.34-8.9a14.78,14.78,0,0,0-.45-8.15A11.28,11.28,0,0,0,46,127.87a1.76,1.76,0,0,1-.63-1,25.34,25.34,0,0,0-2.39-4,21.27,21.27,0,0,1-3.54-7c-.83-1.3-1.19-5-.72-7.57.33-1.75,2-5.49,5.33-11.91,1.65-3.2,2.77-6.92,2.71-9a24.29,24.29,0,0,0-1.39-5.31c-.59-1-.91-3.5,0-3.54,0,.23,2.26.3,5.33.16Zm62.89,0,5.33.25c3.07.14,5.33.07,5.33-.16.91,0,.59,2.51,0,3.53a24.44,24.44,0,0,0-1.39,5.31c-.06,2,1.06,5.78,2.72,9,3.32,6.43,5,10.17,5.33,11.91.47,2.52.11,6.27-.73,7.57a21,21,0,0,1-3.54,7,26.62,26.62,0,0,0-2.38,4.06,1.71,1.71,0,0,1-.64,1,11.36,11.36,0,0,0-1.58,3.45,14.73,14.73,0,0,0-.46,8.16c.29,1,3.24,7.94,5.8,9.18a54.23,54.23,0,0,1-5.48,4.44c-.3.14-2.61,1.45-4.31,2.41.46-1.26-4.89-7.91-6.26-11.65-1.87-5.11-2.28-10.94-1-13.54.5-1,1.64-3.67,2.55-6s2-4.92,2.43-5.78a14.66,14.66,0,0,0,1.11-3c.42-2-1.27-9.28-2.88-12.52-.67-1.34-1.77-3.81-2.45-5.47-1.58-3.9-1.37-7,.87-12.64a23.66,23.66,0,0,0,1.58-5.22ZM87.35,94c-2.62-.11-4.32.83-6.33,3.36-3.3,4.14-5.08,8.35-7.26,17.17-3,12-3,21.89,0,27,1.22,2.07,6.24,6.7,8.58,7.91a8.23,8.23,0,0,0,7.15.31,7.76,7.76,0,0,0,2.36-1.37,1.39,1.39,0,0,1,1.1-.48c1.18,0,4-2.44,5.61-4.79s2.51-5,3.47-9.59c.68-3.27.62-7.78-.18-15.27-.63-5.84-2.24-13.8-3-14.64a2.55,2.55,0,0,1-.6-1.3,13,13,0,0,0-1.64-3.13,11.14,11.14,0,0,0-8.13-5.07A10.13,10.13,0,0,0,87.35,94Z"/></g></g></g></svg>