<svg xmlns="http://www.w3.org/2000/svg" viewBox="0 0 151.84 155.69"><defs><style>.cls-1{fill:#fbd196;}.cls-2{fill:#7cbdd8;}.cls-3{fill:#3a2316;}</style></defs><g id="圖層_2" data-name="圖層 2"><g id="圖層_1-2" data-name="圖層 1"><g id="Group_6793" data-name="Group 6793"><path id="Path_70584-2" data-name="Path 70584-2" class="cls-1" d="M150.81,78.66c0,41.85-33.35,75.77-74.5,75.77S1.8,120.51,1.8,78.66,35.16,2.89,76.31,2.89,150.81,36.82,150.81,78.66Z"/><path id="Path_70585-2" data-name="Path 70585-2" class="cls-2" d="M42.38,66.65c-3,.27-6.33-.3-9.15.9-1,2.17,1,4.59,1.18,6.8,1.38,4.27-1.67,8.3-3.09,12.15C29,91.58,25.61,96.94,27,102.8c1.26,8.26,9.33,14,9.41,22.55-.09,4.39-3,8-5,11.6,0,2.59,3.44,3.15,5.07,4.55,1.66.57,3.64,3.11,5.39,1.68,4-5.4,7.63-11.53,7.84-18.44.4-5.8-3.35-10.81-5.11-16.1-1.35-2.88-2.29-6.1-1.12-9.21,1.09-6,4.84-10.9,5.65-16.92.21-5.29-2.56-10.14-3.67-15.17-.74-.89-2.11-.63-3.13-.69Zm66.69,0c-1.09.14-2.1.69-2,2-1.66,5.92-5.2,12.29-2.28,18.43,2.24,5.42,5.06,11,5.08,16.94-1.61,6.42-5.75,12.07-6.73,18.66-.38,6.6,2.38,12.83,6,18.16,1.18,1.23,1.41,4.52,3.71,4,3.39-1.82,7-3.85,9.39-6.85-2.49-3.85-5.78-7.82-5.73-12.72a14.79,14.79,0,0,1,2.75-8.83c2.54-4.74,6.13-9.21,6.77-14.76,1-6.31-3.35-11.67-5.55-17.23-1.89-3.74-3.28-8.25-1.39-12.31.37-1.55,1.76-4.78-.79-5.12a65.35,65.35,0,0,0-8.16-.33,4.79,4.79,0,0,0-1.07,0Z"/><path id="Path_70586-2" data-name="Path 70586-2" class="cls-3" d="M71.7,0A22.76,22.76,0,0,0,60.46,2.38a21.68,21.68,0,0,1-5.13,1.23,17,17,0,0,0-4.12.85,4.45,4.45,0,0,1-1.7.5c-.88,0-9.29,4.18-13.24,6.58a61.67,61.67,0,0,0-5.1,3.53c-2.41,1.89-8.85,8.41-8.85,9a8.14,8.14,0,0,1-1.44,1.81c-1.87,2-4.76,6-4.76,6.64a19.7,19.7,0,0,1-2.37,3.63c-1.3,1.74-2.74,3.75-3.2,4.49a19.7,19.7,0,0,1-1.67,2.21C7.76,44,4,51.92,2.92,55.42.66,62.57,0,67.47,0,78,0,89.37.21,92.62,1.48,97.92c1,4,4,11.56,5.12,12.82a2.61,2.61,0,0,1,.66,1.12A14.5,14.5,0,0,0,9,114.71a74.34,74.34,0,0,1,4.06,7.1,65.76,65.76,0,0,0,16.41,18.06c19.2,14.51,44,17.07,61.05,15.36,5.35-.53,11.28-1.65,13-2.49a11,11,0,0,1,2.08-.83c6-2.43,12.52-6,17.2-10.41,1.34-1.28,3.89-3.67,5.65-5.32a20,20,0,0,0,3.21-3.42,24.15,24.15,0,0,1,3.14-3.78,36.45,36.45,0,0,0,7.91-11.7c4.57-9.61,6.76-16.84,7.74-25.56.15-1.34.55-4.23.89-6.42.69-4.53.64-18-.07-18.91a4.79,4.79,0,0,1-.68-1.67c-.12-.61-1.13-3.89-2.24-7.3-3.35-10.2-5.12-14.76-6.29-16.16a5.73,5.73,0,0,1-.87-1.77c-.45-1.57-2.32-4.31-4.55-6.67-1.06-1.11-3-3.4-4.24-5.08-5.5-7.26-7.72-8.83-26-18.37-1.83-.95-4.22-2.24-5.31-2.85a8.87,8.87,0,0,0-2.77-1.1c-.43,0-.78-.22-.78-.5s-.27-.38-.61-.25a1.87,1.87,0,0,1-1.43-.33C93.31,2.82,83.89.71,77.44.29,75.16.13,73.3.05,71.7,0Zm.4,3.56a61.46,61.46,0,0,1,9.29.74A27,27,0,0,0,86,4.78a5,5,0,0,1,2,.44,11.27,11.27,0,0,0,3,.63,2.23,2.23,0,0,1,1.5.4,6.57,6.57,0,0,0,2.46.93A9,9,0,0,1,98.55,9a15.19,15.19,0,0,0,3,2.1c2.37,1.18,7.69,4,8.45,4.45.36.23,2.75,1.44,5.31,2.7a59.7,59.7,0,0,1,6.7,3.79c2.87,2.09,8.24,8,11,12.14A28.94,28.94,0,0,0,135.4,37c1.51,1.57,2.94,4.21,6,11.13.43,1,1.52,4.16,2.43,7.08s1.76,5.61,1.89,6a9.75,9.75,0,0,1,.39,1.68,38.83,38.83,0,0,0,1,4,45.92,45.92,0,0,1,1.06,12.91c-.38,6.7-3.44,24-4.49,25.43a19.43,19.43,0,0,0-1.14,3.12,53.13,53.13,0,0,1-6.44,13.49c-.64.86-2,2.66-3,4a89.35,89.35,0,0,1-9.2,9.76c-.69-2.31-3-6.68-3.54-8.36-.9-3.12.1-6.42,3.69-12.17,4.15-6.66,5.57-10.55,5.72-15.77,0-1.58-2.24-8-3.71-10.54a69.09,69.09,0,0,1-3.35-6.66c-1.8-4.21-1.85-6-.29-11.2.89-3,1-7.78-4.74-7.33-2.76.1-16.62-.49-16.86-.72-.41-.39.84-1.34,5.9-4.45,5.5-3.39,6.76-4.69,6-6.12a1.21,1.21,0,0,0-1.28-.69,6.29,6.29,0,0,0-2.42,1c-1,.6-3.28,1.83-5.12,2.74a48.59,48.59,0,0,0-6.44,4c-5.26,4-5.17,3.83-3.92,6.17a5.78,5.78,0,0,0,1.2,1.65,25.16,25.16,0,0,0,5.27.34,20.16,20.16,0,0,1,4.78.29c0,.16-.87,2.21-1.94,4.55a39.67,39.67,0,0,0-2.23,5.84c-.51,2.85.5,8.23,2.44,13,2.57,6.33,3.41,9.53,3,11.42a48.65,48.65,0,0,1-2.65,8.66c-3.07,7.82-3.19,8.29-3.24,12.66A23.32,23.32,0,0,0,101.9,134a7.57,7.57,0,0,1,.62,2c0,1,4.43,10,8.21,9-.81.46-.47.24-1.59.88a31,31,0,0,1-8.68,3.58A27,27,0,0,1,94,150.62a21.46,21.46,0,0,0-4.43.73c-12.92,2.05-30.24-.07-45.23-6.75,3.07-1.84,5.92-7.76,5.92-8.57a6.92,6.92,0,0,1,.62-2,23.46,23.46,0,0,0,1.76-10.07c0-4.37-.16-4.84-3.23-12.66a47.87,47.87,0,0,1-2.66-8.66c-.4-1.89.45-5.09,3-11.42,1.94-4.78,2.95-10.16,2.43-13A38.18,38.18,0,0,0,50,72.34C49,70,48.07,67.94,48.07,67.79a20.24,20.24,0,0,1,4.79-.29,25.16,25.16,0,0,0,5.27-.34,5.78,5.78,0,0,0,1.2-1.65c1.25-2.34,1.33-2.21-3.92-6.17a48.59,48.59,0,0,0-6.44-4c-1.84-.91-4.14-2.14-5.12-2.74a6.36,6.36,0,0,0-2.42-1,1.2,1.2,0,0,0-1.28.69c-.8,1.43.45,2.73,6,6.12,5.06,3.11,6.31,4.06,5.9,4.45-.24.23-14.1.83-16.86.72-5.73-.45-5.63,4.34-4.74,7.33,1.56,5.23,1.51,7-.29,11.2a69.09,69.09,0,0,1-3.35,6.66c-1.47,2.5-3.75,9-3.71,10.54.15,5.22,1.57,9.11,5.72,15.77,3.59,5.75,4.58,9,3.69,12.17-.47,1.62-2.64,5.69-3.43,8.06a46.71,46.71,0,0,1-12.93-16.22c-.5-1.15-.6-1.32-4.07-6.6-3.3-5-6.78-12.32-7.47-15.65-2.24-7.65-1.3-13.59-1.11-20.59a92.93,92.93,0,0,1,.72-11.06c.27-.86.85-2.85,1.31-4.43a67.88,67.88,0,0,1,4.93-12.61c2-3.83,2.39-4.43,6.27-9.49,3.33-4.36,6.38-9,6.58-10a2.24,2.24,0,0,1,1-1.28,5.72,5.72,0,0,0,1.48-1.3,110.62,110.62,0,0,1,9.37-8.87,35.09,35.09,0,0,1,4.63-3A32.23,32.23,0,0,0,44,11.56c1.6-1.28,10.32-4.47,13.84-5.07a10.84,10.84,0,0,0,2.55-.7,36,36,0,0,1,4.44-1.34,30.27,30.27,0,0,1,7.28-.87ZM42.94,39.82c-7.34.2-14.32,7.06-18.72,11.7a35.48,35.48,0,0,0-3.83,4.55c-.87,2.39,1.7,2.87,3.57.67,2.91-3.41,6.25-6.22,12.06-10.11,3.95-2.64,4.34-2.81,7.34-3,1.74-.12,3.31-.44,3.49-.71.58-.87.37-1.61-.75-2.73a11.57,11.57,0,0,0-3.16-.35Zm66.94,0a10.88,10.88,0,0,0-3.16.35C105.6,41.28,105.4,42,106,42.9c.18.27,1.75.59,3.49.71,3,.21,3.4.37,7.34,3,5.81,3.89,9.15,6.7,12.06,10.11,1.87,2.2,4.45,1.71,3.57-.67a34,34,0,0,0-3.83-4.56c-4.4-4.63-11.37-11.5-18.72-11.7ZM45,67.38v1.24a24.38,24.38,0,0,0,1.58,5.22c2.24,5.67,2.45,8.74.87,12.63C46.74,88.14,45.64,90.6,45,92c-1.61,3.23-3.3,10.57-2.88,12.52a15.09,15.09,0,0,0,1.11,3c.43.86,1.53,3.45,2.43,5.77s2.06,5,2.56,6c1.32,2.6.91,8.43-1,13.54-1.09,3-4.72,7.83-5.9,10.3-.91-.45-1.85-.86-2.73-1.35a66.68,66.68,0,0,1-7-4.43c2.45-1.77,5.07-8,5.34-8.9a14.69,14.69,0,0,0-.45-8.15,11.42,11.42,0,0,0-1.58-3.46,1.71,1.71,0,0,1-.64-1,26.05,26.05,0,0,0-2.38-4,21.17,21.17,0,0,1-3.54-7c-.84-1.3-1.2-5.06-.73-7.57.33-1.75,2-5.49,5.33-11.91,1.65-3.2,2.78-6.93,2.71-9A24.5,24.5,0,0,0,34.31,71c-.59-1-.92-3.5,0-3.53,0,.23,2.27.3,5.34.16Zm62.88,0,5.34.25c3.07.14,5.33.06,5.33-.17.91,0,.58,2.52,0,3.54a23.74,23.74,0,0,0-1.39,5.31c-.06,2,1.06,5.77,2.71,9,3.33,6.43,5,10.17,5.33,11.91.47,2.52.11,6.27-.72,7.57a21.46,21.46,0,0,1-3.54,7,25.79,25.79,0,0,0-2.39,4,1.66,1.66,0,0,1-.64,1,11.49,11.49,0,0,0-1.58,3.45,14.81,14.81,0,0,0-.45,8.16c.29,1,3.24,7.93,5.8,9.18a54.23,54.23,0,0,1-5.48,4.44c-.3.13-2.61,1.45-4.32,2.41.47-1.26-4.89-7.91-6.25-11.65-1.87-5.11-2.28-10.94-1-13.54.5-1,1.65-3.67,2.55-6s2-4.91,2.44-5.77a16.16,16.16,0,0,0,1.11-3c.42-2-1.27-9.28-2.88-12.52-.67-1.34-1.78-3.81-2.45-5.48-1.59-3.89-1.38-7,.87-12.63a24.38,24.38,0,0,0,1.58-5.22ZM76.34,82.94c-2.63-.11-4.33.83-6.34,3.35-3.3,4.15-5.07,8.35-7.26,17.18-3,12-3,21.88,0,27,1.22,2.07,6.23,6.7,8.57,7.91a8.29,8.29,0,0,0,7.16.31,7.92,7.92,0,0,0,2.35-1.37,1.37,1.37,0,0,1,1.1-.48c1.19,0,4-2.44,5.62-4.79s2.51-5,3.46-9.59c.68-3.27.63-7.78-.18-15.28-.63-5.83-2.23-13.8-2.95-14.64a2.49,2.49,0,0,1-.6-1.29,12.81,12.81,0,0,0-1.64-3.13,11.15,11.15,0,0,0-8.13-5.07,10.53,10.53,0,0,0-1.19-.11Z"/></g></g></g></svg>