<svg xmlns="http://www.w3.org/2000/svg" viewBox="0 0 152.03 155.94"><defs><style>.cls-1{fill:#fbd196;}.cls-2{fill:#de5d5d;}.cls-3{fill:#3a2316;}</style></defs><g id="圖層_2" data-name="圖層 2"><g id="圖層_1-2" data-name="圖層 1"><g id="Group_6791" data-name="Group 6791"><path id="Path_70589" data-name="Path 70589" class="cls-1" d="M1.59,75.21c1-41.84,35.14-75,76.28-74s73.68,35.67,72.7,77.5-35.14,75-76.28,74S.6,117,1.59,75.21Z"/><path id="Path_70590" data-name="Path 70590" class="cls-2" d="M72.27,103.32c-8.88.33-19.64.9-26,7.72,1.81,4.66,8.46,5.66,12.61,7.75,13.21,4.15,28.75,5.61,40.72-2.73,5.59-.84,9.56-6.08,1-7-9-3.52-18.58-5.8-28.34-5.7Z"/><path id="Path_70591" data-name="Path 70591" class="cls-3" d="M70,0c-2.35,0-4.61.11-6.75.27-5.36.4-11.32,1.39-13.09,2.18a12,12,0,0,1-2.09.79C42,5.52,35.4,9,30.62,13.24l-5.77,5.19a20.39,20.39,0,0,0-3.29,3.34,24.14,24.14,0,0,1-3.22,3.7A36.18,36.18,0,0,0,10.15,37C5.35,46.48,3,53.65,1.81,62.35c-.18,1.34-.65,4.22-1,6.4C0,73.26-.3,86.74.39,87.66A4.65,4.65,0,0,1,1,89.34c.1.62,1,3.92,2.08,7.36C6.21,107,7.88,111.58,9,113a5.62,5.62,0,0,1,.83,1.79c.41,1.58,2.22,4.36,4.39,6.77,1,1.14,2.89,3.47,4.13,5.19,14.21,13.61,30,26.36,54.3,28.74,2.27.2,4.13.33,5.73.39a22.71,22.71,0,0,0,11.3-2.1,21.22,21.22,0,0,1,5.15-1.1,17.08,17.08,0,0,0,4.14-.76,4.49,4.49,0,0,1,1.72-.46c.87,0,9.38-4,13.38-6.26,1.48-.86,3.81-2.38,5.18-3.4,2.45-1.84,9-8.21,9.06-8.75a8.76,8.76,0,0,1,1.48-1.79c1.91-1.95,4.9-5.92,4.92-6.52a19,19,0,0,1,2.45-3.57c1.33-1.7,2.82-3.69,3.31-4.41a17.93,17.93,0,0,1,1.71-2.17c1.16-1.2,5.08-9,6.26-12.47,2.42-7.1,3.18-12,3.45-22.5.3-11.37.13-14.63-1-20-.85-4-3.7-11.65-4.81-12.93a2.57,2.57,0,0,1-.64-1.15,14.7,14.7,0,0,0-1.65-2.88,76.54,76.54,0,0,1-3.89-7.19,65.67,65.67,0,0,0-16-18.45C107.43,4,86.46-.07,70,0Zm-.22,3.68A87,87,0,0,1,114.83,15c9.57,5.6,17.6,13.3,21.93,23.2.47,1.16.57,1.34,3.92,6.7,3.19,5.1,6.5,12.48,7.1,15.83,2.06,7.69,1,13.61.62,20.6a90.88,90.88,0,0,1-1,11c-.28.85-.92,2.82-1.41,4.39a67.42,67.42,0,0,1-5.23,12.5c-2.08,3.77-2.49,4.36-6.49,9.33-3.43,4.27-6.58,8.83-6.8,9.83a2.29,2.29,0,0,1-1.07,1.26,5.78,5.78,0,0,0-1.52,1.26,108.88,108.88,0,0,1-9.57,8.65,36.88,36.88,0,0,1-4.7,2.87,32.31,32.31,0,0,0-4.27,2.55c-1.62,1.24-10.42,4.23-13.94,4.74a10.87,10.87,0,0,0-2.57.64,36.66,36.66,0,0,1-4.48,1.23,29.84,29.84,0,0,1-7.3.7,61.2,61.2,0,0,1-9.26-1,27,27,0,0,0-4.57-.56,4.93,4.93,0,0,1-2-.49c-8.17-1.63-14.4-6.58-21.79-10.87-.36-.24-2.72-1.5-5.25-2.82a60.32,60.32,0,0,1-6.61-3.94c-2.82-2.16-8.06-8.23-10.72-12.4a26.45,26.45,0,0,0-2.33-2.84c-1.48-1.61-2.83-4.29-5.72-11.28-.41-1-1.43-4.19-2.27-7.13S6,93.37,5.84,93a10,10,0,0,1-.34-1.7c-.24-1.35-.55-2.69-.92-4a46,46,0,0,1-.76-12.93c.54-6.69,4-24,5.09-25.32A18.07,18.07,0,0,0,10.12,46a53.41,53.41,0,0,1,6.76-13.35c.66-.84,2.06-2.61,3.1-3.95a89.64,89.64,0,0,1,9.64-9.75C38.87,11.43,47.19,7.15,53.16,5.73a26.94,26.94,0,0,1,6.44-.94A21.4,21.4,0,0,0,64,4.17c1.84-.25,3.76-.41,5.74-.49ZM34.16,43.43a3.93,3.93,0,0,0-1.16.28c-1.1.43-1.34.76-1.25,1.68.14,1.48,2,2.45,7.17,3.83A26.69,26.69,0,0,1,43.2,50.6c.2.19-.4.56-1.34.82s-2.12.63-2.61.82-2.5.74-4.46,1.24c-4.26,1.08-4.7,1.26-5.34,2.29-.36.59-.35.85.07,1a4.07,4.07,0,0,1,1.17.86c.86.9,1.6.82,4.21-.42a19.9,19.9,0,0,1,4.39-1.41,60.48,60.48,0,0,0,8.26-2,9.48,9.48,0,0,1,3-.42c1.43,0,1.75-.12,1.77-.82a1.44,1.44,0,0,1,.46-1.12,1.43,1.43,0,0,0,.32-1.24c-.1-.77-.76-1.2-3.16-2.05a61.94,61.94,0,0,0-6.56-1.84c-3.93-.84-7.63-2-8.46-2.71a1.09,1.09,0,0,0-.74-.21Zm85.87.64c-1-.15-2.67.49-6,2-2.59,1.21-5.11,2.32-5.6,2.49s-1.6.58-2.46.93-2.34.86-3.28,1.17c-2.09.68-2.67,1.56-2,3s4,2.57,12.15,3.83A35.46,35.46,0,0,1,120,59.26c.59.26.86.12,1.06-.58.15-.52.55-.93.88-.92.8,0,.79-.65,0-1.95-.5-.82-1.21-1.13-3.15-1.4-3.31-.47-8.5-1.79-8.49-2.17,0-.65,7.05-3.89,8.38-3.85a4.6,4.6,0,0,0,1.78-1c1.12-.92,1.2-1.15.74-2.2a1.54,1.54,0,0,0-1.19-1.1ZM30.44,77.9c-.9-.1-1.41,0-1.73.4a1.78,1.78,0,0,0-.32,1.51c-2,4.2,1.43,8.17,2.42,12.1A17.24,17.24,0,0,0,32,95.48a14.2,14.2,0,0,1,1.05,1.91c.33.68.76,1.23,1,1.24a.44.44,0,0,1,.36.49,8.42,8.42,0,0,0,1.2,2.35c.68,1,2.1,3.39,3.18,5.25,11,16.74,34.88,22.4,51.71,17.53A46.45,46.45,0,0,0,100,120c9.57-7,10.93-8.42,17.65-18.93a90,90,0,0,0,4.64-9.46,12.62,12.62,0,0,1,.91-2.14c.27-.36,2.13-4.47,3.77-8.32a1.91,1.91,0,0,0-1-2.48,2,2,0,0,0-.93-.13,30.13,30.13,0,0,0-6,2.26,47.31,47.31,0,0,1-7.19,2.74C87,89,61.5,87.53,34.41,78.91a21.7,21.7,0,0,0-4-1Zm38.3,25.84c1.62,0,3.48,0,5.31.05,3.69.09,7.3.27,8.91.52,5.4.85,17.14,4.62,19.54,6.28,1.32.9,1.37,1.37.3,2.39a34.9,34.9,0,0,1-12.32,7.08c-6.1,1.85-8.57,2.19-13.78,1.91a27.37,27.37,0,0,1-6-.76,8,8,0,0,0-2.9-.54,11,11,0,0,1-3.45-.67,17.65,17.65,0,0,0-3.17-1c-4.36-.88-11.23-4.26-13.35-6.55-1.61-1.74-1.46-2.19,1-3.38,6.51-3.08,11.69-4.76,16-5.18.91-.08,2.3-.13,3.92-.15Z"/></g></g></g></svg>