<svg xmlns="http://www.w3.org/2000/svg" viewBox="0 0 173.87 177.8"><defs><style>.cls-1{fill:#fff;}.cls-2{fill:#fbd196;}.cls-3{fill:#de5d5d;}.cls-4{fill:#3a2316;}</style></defs><g id="圖層_2" data-name="圖層 2"><g id="圖層_1-2" data-name="圖層 1"><g id="Group_6803" data-name="Group 6803"><path id="Path_70594" data-name="Path 70594" class="cls-1" d="M89.73,177.79H89a74.19,74.19,0,0,1-11.12-1.14c-2.53-.43-4.26-.64-4.82-.67-.5.14-1.32,0-3-.6-7.56-1.53-13.65-5.33-20.09-9.35C48,164.84,46,163.61,44,162.44c-.38-.25-2.79-1.55-6.14-3.29a73.11,73.11,0,0,1-8-4.77c-3.43-2.63-9.72-9.9-12.94-14.95a32.81,32.81,0,0,0-2.6-3.16c-1.86-2-3.5-5.22-7-13.67-.51-1.23-1.73-5.07-2.72-8.56-1.08-3.76-1.92-6.65-2.05-7a12.91,12.91,0,0,1-.46-2.29c-.06-.53-.5-2.51-1-4.52C.15,96.72-.26,89.83.17,84.52.74,77.42,4.8,56.05,6.44,54a28.5,28.5,0,0,0,1.21-3.23c1.7-5.23,5.52-12.78,8.19-16.14.78-1,2.42-3.07,3.65-4.64A105.69,105.69,0,0,1,31,18.31C41.3,10,51.34,4.37,59.31,2.48a32.48,32.48,0,0,1,8-1.14,24.34,24.34,0,0,0,4.87-.7l.13,0C74.44.33,76.75.13,79.16,0h0a103,103,0,0,1,53.78,13.48c12.44,7.27,21.56,16.93,26.39,28,.52,1.29.65,1.51,4.53,7.72s7.76,14.9,8.54,19.06c2,7.46,1.54,13.49,1.07,19.88-.12,1.55-.23,3.13-.31,4.75-.23,4.59-.74,11.93-1.23,13.37-.32,1-1.07,3.31-1.65,5.16a80.67,80.67,0,0,1-6.27,15c-2.48,4.5-3,5.23-7.77,11.18-4.36,5.44-7.51,10.19-7.76,11.06a4,4,0,0,1-1.93,2.35,5.37,5.37,0,0,0-1.37,1.14,130.52,130.52,0,0,1-11.51,10.42,44,44,0,0,1-5.75,3.51,38.28,38.28,0,0,0-4.82,2.87c-2.24,1.72-12.95,5.26-17,5.85a12.14,12.14,0,0,0-2.6.61,43.52,43.52,0,0,1-5.6,1.58A35.88,35.88,0,0,1,89.73,177.79Zm-16.14-2.16-.06.06.06-.06Zm-.67-2.27a38.39,38.39,0,0,1,5.35.7A70.2,70.2,0,0,0,89,175.16a33.94,33.94,0,0,0,8.29-.78,47.36,47.36,0,0,0,5-1.35,13.59,13.59,0,0,1,3.44-.88c4.17-.6,14.22-4.1,15.83-5.33a39.58,39.58,0,0,1,5.23-3.14,40.78,40.78,0,0,0,5.33-3.25,132.08,132.08,0,0,0,11-10,7.76,7.76,0,0,1,2.2-1.83,1.65,1.65,0,0,0,.6-.63c.4-1.8,5.28-8.38,8.27-12.1,4.69-5.85,5.11-6.45,7.52-10.82a78.38,78.38,0,0,0,6.06-14.47c.58-1.86,1.34-4.2,1.67-5.2a109.74,109.74,0,0,0,1.09-12.67c.08-1.65.2-3.25.31-4.82.46-6.18.89-12-1-19.05l0-.11c-.69-3.8-4.51-12.3-8.19-18.19-4-6.41-4.13-6.63-4.72-8.1-4.59-10.47-13.34-19.72-25.3-26.7A100.27,100.27,0,0,0,79.26,2.66c-2.3.09-4.51.27-6.57.55A26.57,26.57,0,0,1,67.16,4,30,30,0,0,0,59.92,5c-7.49,1.78-17.41,7.35-27.21,15.28A103.27,103.27,0,0,0,21.56,31.59L17.9,36.24c-2.47,3.11-6.16,10.41-7.75,15.32a21.88,21.88,0,0,1-1.64,4C7.4,57.38,3.42,76.84,2.79,84.73c-.4,5,0,11.6.85,14.8a48.63,48.63,0,0,1,1.12,4.92,10,10,0,0,0,.34,1.71c.22.66,1.78,6.08,2.09,7.16,1,3.7,2.2,7.27,2.62,8.28,3.31,8,4.89,11.15,6.49,12.9A34.88,34.88,0,0,1,19.19,138c3,4.76,9.13,11.84,12.32,14.28a71.16,71.16,0,0,0,7.6,4.53c1.91,1,5.69,3,6.3,3.38,2,1.15,4,2.4,5.9,3.59,6.26,3.91,12.18,7.6,19.31,9l.21.06a10,10,0,0,0,1.61.5l.48,0Z"/></g><g id="Group_6791" data-name="Group 6791"><path id="Path_70589" data-name="Path 70589" class="cls-2" d="M12.51,86.14c1-41.84,35.13-75,76.27-74s73.69,35.67,72.7,77.5-35.13,75-76.27,74S11.52,128,12.51,86.14Z"/><path id="Path_70590" data-name="Path 70590" class="cls-3" d="M83.19,114.25c-8.88.33-19.64.9-26,7.72,1.82,4.66,8.47,5.66,12.61,7.74C83,133.87,98.53,135.33,110.5,127c5.59-.84,9.55-6.08,1-7-9-3.52-18.58-5.8-28.34-5.7Z"/><path id="Path_70591" data-name="Path 70591" class="cls-4" d="M80.92,10.93c-2.35,0-4.61.11-6.75.27-5.36.39-11.32,1.38-13.09,2.18a11.19,11.19,0,0,1-2.09.78c-6.05,2.29-12.67,5.73-17.45,10-1.37,1.25-4,3.59-5.77,5.2a19.62,19.62,0,0,0-3.29,3.34,24.69,24.69,0,0,1-3.23,3.7,36.31,36.31,0,0,0-8.18,11.51c-4.8,9.5-7.16,16.67-8.34,25.37-.18,1.34-.65,4.21-1,6.4-.8,4.51-1.07,18-.38,18.91a4.63,4.63,0,0,1,.63,1.68c.11.61,1.05,3.92,2.09,7.35,3.1,10.28,4.76,14.88,5.9,16.3a6,6,0,0,1,.83,1.8c.41,1.57,2.22,4.36,4.39,6.77,1,1.14,2.88,3.47,4.12,5.19,14.22,13.61,30,26.35,54.3,28.73,2.27.2,4.14.34,5.74.4a22.82,22.82,0,0,0,11.3-2.1,21,21,0,0,1,5.15-1.1,17.08,17.08,0,0,0,4.14-.76,4.5,4.5,0,0,1,1.72-.47c.87,0,9.37-3.95,13.38-6.26a61.41,61.41,0,0,0,5.17-3.4c2.45-1.83,9.05-8.2,9.07-8.74a8.76,8.76,0,0,1,1.48-1.79c1.91-1.95,4.9-5.92,4.91-6.52a20,20,0,0,1,2.45-3.57c1.34-1.7,2.83-3.7,3.31-4.42a18.83,18.83,0,0,1,1.72-2.17c1.15-1.19,5.07-9,6.26-12.46,2.42-7.1,3.18-12,3.45-22.5.3-11.37.13-14.63-1-20-.85-4-3.7-11.64-4.81-12.92a2.57,2.57,0,0,1-.64-1.15,14.7,14.7,0,0,0-1.65-2.88,72.18,72.18,0,0,1-3.89-7.19,66,66,0,0,0-16-18.45C118.35,14.89,97.38,10.86,80.92,10.93Zm-.22,3.68a86.9,86.9,0,0,1,45,11.29c9.58,5.6,17.6,13.3,21.94,23.2.47,1.16.57,1.34,3.92,6.7,3.19,5.1,6.49,12.48,7.1,15.83,2.06,7.69,1,13.61.62,20.6a90.88,90.88,0,0,1-1,11c-.28.84-.92,2.82-1.41,4.39a67.73,67.73,0,0,1-5.23,12.49c-2.09,3.78-2.5,4.36-6.49,9.34-3.43,4.27-6.59,8.83-6.81,9.83a2.25,2.25,0,0,1-1.07,1.26,5.7,5.7,0,0,0-1.51,1.26,112,112,0,0,1-9.57,8.65,37.06,37.06,0,0,1-4.7,2.86,32.38,32.38,0,0,0-4.27,2.56c-1.62,1.24-10.42,4.23-13.94,4.74a10.3,10.3,0,0,0-2.57.64,36.66,36.66,0,0,1-4.48,1.23,29.89,29.89,0,0,1-7.3.7,61.33,61.33,0,0,1-9.27-.95,26,26,0,0,0-4.56-.56,5.2,5.2,0,0,1-2-.49c-8.16-1.64-14.4-6.59-21.78-10.88-.36-.23-2.73-1.5-5.25-2.81a59.4,59.4,0,0,1-6.61-3.94c-2.82-2.17-8.06-8.23-10.72-12.4a29,29,0,0,0-2.33-2.85c-1.48-1.6-2.84-4.28-5.72-11.27-.41-1-1.43-4.19-2.27-7.14s-1.62-5.65-1.75-6a9.14,9.14,0,0,1-.34-1.7c-.24-1.35-.55-2.69-.92-4a46,46,0,0,1-.76-12.94c.54-6.68,4-24,5.09-25.31A17.85,17.85,0,0,0,21,56.88,53.25,53.25,0,0,1,27.8,43.53c.66-.83,2.06-2.6,3.1-3.94a89.64,89.64,0,0,1,9.64-9.75c9.25-7.48,17.56-11.77,23.54-13.19a26.92,26.92,0,0,1,6.44-.93A20.85,20.85,0,0,0,75,15.09q2.76-.36,5.74-.48ZM45.08,54.36a3.86,3.86,0,0,0-1.16.28c-1.1.43-1.34.75-1.25,1.68.13,1.48,1.95,2.45,7.17,3.83a25.73,25.73,0,0,1,4.28,1.38c.2.19-.4.55-1.34.82s-2.12.63-2.61.81-2.5.75-4.46,1.25c-4.26,1.08-4.7,1.26-5.34,2.29-.37.58-.35.85.06,1a3.81,3.81,0,0,1,1.17.86c.86.9,1.6.82,4.22-.42a19.73,19.73,0,0,1,4.39-1.41,60,60,0,0,0,8.25-2,9.51,9.51,0,0,1,3-.42c1.43,0,1.75-.12,1.76-.82a1.49,1.49,0,0,1,.47-1.12A1.43,1.43,0,0,0,64,61.17c-.1-.78-.75-1.2-3.15-2.05a59.65,59.65,0,0,0-6.56-1.84c-3.93-.84-7.64-2-8.46-2.71a1.05,1.05,0,0,0-.75-.21ZM131,55c-1-.16-2.67.49-6,2-2.58,1.21-5.1,2.33-5.6,2.5s-1.59.58-2.45.93-2.34.86-3.28,1.17c-2.09.68-2.67,1.56-2,3s4,2.57,12.15,3.83A35.46,35.46,0,0,1,131,70.19c.59.26.86.12,1.06-.58.14-.52.54-.93.88-.92.8,0,.79-.66,0-2-.5-.82-1.21-1.13-3.15-1.4-3.31-.47-8.5-1.8-8.49-2.17,0-.65,7-3.89,8.37-3.85a4.46,4.46,0,0,0,1.78-1c1.13-.92,1.2-1.15.75-2.2A1.55,1.55,0,0,0,131,55ZM41.36,88.82c-.9-.1-1.41.05-1.73.41a1.82,1.82,0,0,0-.33,1.51c-2,4.2,1.43,8.17,2.43,12.09a16.57,16.57,0,0,0,1.2,3.58,15.4,15.4,0,0,1,1,1.91c.32.67.76,1.23,1,1.23a.43.43,0,0,1,.35.49,8.45,8.45,0,0,0,1.21,2.35c.67,1,2.1,3.4,3.17,5.26,11,16.74,34.89,22.4,51.72,17.53a46.37,46.37,0,0,0,9.47-4.28c9.57-7,10.94-8.43,17.66-18.93a94.12,94.12,0,0,0,4.64-9.46,12.62,12.62,0,0,1,.91-2.14c.26-.36,2.12-4.47,3.76-8.32a1.9,1.9,0,0,0-1-2.48,1.82,1.82,0,0,0-.92-.13,30.13,30.13,0,0,0-6,2.26,46.62,46.62,0,0,1-7.19,2.73c-24.86,5.45-50.31,4-77.4-4.6a21.68,21.68,0,0,0-4-1Zm38.3,25.85c1.62,0,3.47,0,5.31,0,3.68.09,7.3.27,8.91.52,5.4.85,17.13,4.62,19.54,6.27,1.31.91,1.37,1.37.3,2.4A35.21,35.21,0,0,1,101.4,131c-6.1,1.85-8.57,2.19-13.78,1.91a27.9,27.9,0,0,1-6-.76,8,8,0,0,0-2.9-.54,11,11,0,0,1-3.45-.68,18.73,18.73,0,0,0-3.17-1c-4.36-.89-11.23-4.26-13.35-6.55-1.61-1.74-1.47-2.19,1-3.38,6.51-3.08,11.69-4.77,16-5.18.92-.08,2.3-.14,3.93-.15Z"/></g></g></g></svg>