<svg xmlns="http://www.w3.org/2000/svg" viewBox="0 0 489.68 366.14"><defs><style>.cls-1{opacity:0.2;}.cls-2{fill:#b69564;}</style></defs><g id="圖層_2" data-name="圖層 2"><g id="圖層_1-2" data-name="圖層 1"><g id="Group_6027" data-name="Group 6027" class="cls-1"><path id="Path_30157" data-name="Path 30157" class="cls-2" d="M285.89,37.05a49.62,49.62,0,0,0-9.63-6.53,1.92,1.92,0,0,0-.89-2.47c-12.29-6.77-25.24-12.43-37.79-18.63-12.39-6.11-26.21-6.75-39.5-9.34A3.08,3.08,0,0,0,194.7,4.6,12.07,12.07,0,0,1,196,7.21c-10.81-2.08-21.56-3.42-32.58-4.71-2-.23-3.07,2.75-1.61,4a26,26,0,0,1,3.08,3.13.41.41,0,0,0,0,.57l.1.07c.21.13.46.26.73.41s.3.39.44.59c-3.55-.35-7.08-1.75-10.53-2.43-3.25-.64-6.56-1.26-9.85-1.68-6.55-.83-13.26-.22-19.86-.15-3.35,0-4.1,5.09-.75,5.9l.77,3.67q-2.07,0-4.14-.15a81.13,81.13,0,0,1-9-1,90.25,90.25,0,0,1-11.19-2.82,17.39,17.39,0,0,0-2.12-.67c-3.24-.8-4.54,4.15-1.31,5a10.78,10.78,0,0,1,5.92,4.34c-12.18,1.56-24.66-1-36.5-3.64-3.3-.72-4.67,3.39-2.11,5.22L69.86,26a134.2,134.2,0,0,1-34.58-2.43,1.74,1.74,0,0,0-1.76,2.69A1.29,1.29,0,0,0,33,27.82,46.7,46.7,0,0,0,44.66,45.16c5,4.62,13.2,7.12,17.68,12.29a29.36,29.36,0,0,1-7.07,1.41,3.09,3.09,0,0,0-1.48,5.73c13.7,9.51,28.42,12.28,44.89,11.87,8.72-.22,17.08-2.4,25.79-2.86,4.66-.24,25.48-3.17,22.58,5.33C125.8,77.13,105,80.72,86.43,92c-9.35,5.69-18,12.39-26.6,19.18C50,119,38.63,126.28,30,135.49a1.77,1.77,0,0,0-.35.55,7,7,0,0,0-2.32,1.78.51.51,0,0,0,0,.7c2.24,2.73,6.31,3,10.24,2.94-3.31,4-7.24,7.8-10.37,11.87s-5.92,8.19-8.63,12.47c-6.53,10.32-10.93,22.27-18,32.1-1.22,1.7.88,4.23,2.78,3.55,4-1.45,10.21-2.22,15-4.24a146.16,146.16,0,0,0-10,16.67c-3.36,6.94-4.5,14.92-8,21.7-1.08,2.07.8,4.8,3.19,4.06,3.19-1,6.74-2,10.06-3.24l-.69,2a52.76,52.76,0,0,0-5.23,13.31c-.08.37.48.64.65.26l.1-.21c-3,9.23-5.86,18.51-8.36,28-.63,2.39,2.71,4.6,4.41,2.48a13.48,13.48,0,0,1,5.87-4.37c0,3.23-.86,6.65-1.08,9.75a81,81,0,0,0,.05,13.31c.71,7.76,2.57,15.22,4.47,22.76.57,2.25,3.45,1.82,4.15,0C22,313,29.8,304.48,38.13,297c4.88-4.38,10.28-8.68,14-14.06a17.45,17.45,0,0,0,.41,8.87c.75,2.42,3.37,2.73,5.16,1.3C66.63,286,72.31,275.36,81,267.9a72.32,72.32,0,0,0-1.73,7.58C78.8,278,82,280.42,84,278.12c4.63-5.44,11.86-10.86,17.73-14.94A51.55,51.55,0,0,1,121,255.1c-2.39,2.94-3.38,7.25-4.26,10.78-.4,1.63,1.24,3.73,3,3,8.7-3.6,17.94-7.1,25.82-12.26,8.1-5.32,14.94-12.53,20.78-20.21,6.46-8.49,10-18.15,15.7-27,6.28-9.84,13.65-17.23,22.85-24.17a1.24,1.24,0,0,0,.36-1.71,1.22,1.22,0,0,0-1.32-.52c-18.06,3.81-29.66,24.23-39.39,38.07-10.93,15.53-24.16,32.05-41.43,40.93a25.14,25.14,0,0,0,1.58-6.95l.48-.75a3.13,3.13,0,0,0,1.36-2.2c1.73-2.92,3.31-5.94,4.86-8.82.29-.54-.24-1.43-.91-1.15-5.13,2.13-10.23,4.48-15.23,7.06a33,33,0,0,0-14.63,5.24c-6.09,4-10.25,9.69-15.1,14.75a42.2,42.2,0,0,0,0-5.51,1.64,1.64,0,0,0-.68-1.26,44.66,44.66,0,0,0,.19-11.14.71.71,0,0,0-1.21-.49,127,127,0,0,0-25.36,33.13c-.46.54-.93,1.08-1.42,1.6-.86-3.42-1.29-6.85-.17-10.4.32-1-1.32-1.71-1.75-.71,0,.1-.09.2-.13.3a1.33,1.33,0,0,0-1.36-.28c-.83.36-1.63.75-2.43,1.17a40.48,40.48,0,0,0-1.09-6.47.76.76,0,0,0-.94-.51.8.8,0,0,0-.32.19,160.52,160.52,0,0,0-19.78,22c-4.67,6.3-10.84,14.1-13.74,21.88a105.26,105.26,0,0,1-1.5-13c-.18-3.39-.79-8.69-.63-13.62,2.42-8.5,5.09-16.77,9.4-24.94a.67.67,0,0,0-1.06-.8,96.85,96.85,0,0,0-10.18,9.56,17.88,17.88,0,0,0-4.38,2.11c2.13-10.22,4.22-20.45,6.46-30.64,1.17-2.2,2.39-4.34,3.7-6.44.45-.23.91-.45,1.34-.7a2.42,2.42,0,0,0,1.16-3.1,73.39,73.39,0,0,1,5.56-7,.76.76,0,0,0-.05-1.07.77.77,0,0,0-.89-.1l-11.9,6.38a22.77,22.77,0,0,0-5.72,2c1.56-5.3,4.28-10.59,6-15.52a208.54,208.54,0,0,1,7.78-19.57,10.18,10.18,0,0,0,3-2.58,2.18,2.18,0,0,0-.05-3,8.45,8.45,0,0,0-2-1.53,42.46,42.46,0,0,1,5.7-6.57.54.54,0,0,0-.54-.9A61.32,61.32,0,0,0,12,189.06a24.41,24.41,0,0,0-4.86,2.66c2.86-8.05,7.93-15.82,12.49-22.55C26,159.76,35,146.51,45,140.82c2.58-1.46,1.3-5.46-1.54-5.48-1.71,0-3.68-.22-5.7-.32C45.17,130.1,52,124,59,118.77q2.76-2.05,5.55-4.09a132.49,132.49,0,0,1,27.41-13c15.59-5.24,31.25-9.53,46.57-15.39,3.48-.38,7-.65,10.39-.78a3.08,3.08,0,0,0,2.68-1.47,3.17,3.17,0,0,0,1.62-2.87c.18-5.21-5.07-10-9.62-12-8-3.53-18.81.12-27.23.08-10.6-.05-21.46-.05-31.86-2.13A178,178,0,0,1,65,62.1c.86-.39,1.72-.8,2.58-1.26a2.6,2.6,0,0,0,.88-3.52c-3.56-6-9.68-7.73-15.44-11a41.82,41.82,0,0,1-17-19.12c3.59.83,7.18,1.53,10.8,2.07A34.19,34.19,0,0,0,58.79,32.1c9.3.48,17.12-1.37,26,2.86a.81.81,0,0,0,1.1-.34.83.83,0,0,0,0-.78,17.32,17.32,0,0,0-6.21-6.14,2,2,0,0,0-.84-1.57l-2.42-1.9c10.22.67,20.43.18,30.73.63a1.84,1.84,0,0,0,.8-.15c1.43.49,2.87,1,4.29,1.48a211.74,211.74,0,0,1-21.65-1.31c-.07,0-.08.1,0,.11a112,112,0,0,0,25.36,2.64.75.75,0,0,0,.72-.77.72.72,0,0,0-.36-.62,75.08,75.08,0,0,0-7.21-3.08,2.6,2.6,0,0,0,0-.88,15.17,15.17,0,0,0-.88-3.25c1.22.19,2.45.35,3.68.49,8.36,2.18,17.14,3.27,25.57,5a.61.61,0,0,0,.74-.45.51.51,0,0,0,0-.3c-1-4-3.6-8-7.35-9.72,0-.09,0-.17,0-.25a95.43,95.43,0,0,0,13.91,1.72c2,0,3.94,0,5.92-.1,7.74,1.19,15.47,2.39,23.19,3.67.39.06.84-.26.69-.7a15.75,15.75,0,0,0-3.77-6.19A31,31,0,0,0,169,8.58c10,2.42,20,4.62,30.28,6.14,1.88.28,4.5-.9,4.21-3.26a26.86,26.86,0,0,0-.93-4.52c11.38,2.27,22.24,6.93,33.66,9.23,11.9,2.38,22.52,7.38,33,13.22a1.28,1.28,0,0,0,.7,1.39,48.12,48.12,0,0,1,13.72,9.63c3.28,3.32,5.73,8.29,10,10.21a.33.33,0,0,0,.44-.14.57.57,0,0,0,0-.14C294.74,45.1,289.55,40.22,285.89,37.05Zm-157,207.41c-1,1.69-2,3.36-3.11,5a2.89,2.89,0,0,0-2.11-.8c-1.51,0-3,0-4.38.11C122.44,247.25,125.64,245.8,128.91,244.46Zm-45.1,8.31a42.21,42.21,0,0,1-.45,9.33c-6.76.26-11.18,3.67-14.88,8.14a129.25,129.25,0,0,1,15.33-17.47Zm-62.5,52q3.89-6.48,8.4-12.56A158.38,158.38,0,0,1,49,270.69a38.37,38.37,0,0,1,.77,5.65c-8,4.63-14.41,12.12-20.37,19C23.83,301.9,19.11,308.11,16,315.69c-.08-.38-.14-.75-.22-1.13,2.08-3.08,3.59-6.63,5.5-9.8ZM20,263.2c-1.29,2.49-2.55,5.07-3.72,7.72A3.48,3.48,0,0,0,13,269.4c2.27-2.16,4.63-4.23,7-6.19Zm1.41-37.1c-1,1.14-1.88,2.3-2.78,3.5a3,3,0,0,0-1.53-.62c-.32,0-.64,0-1-.06Zm3-42.61a32.91,32.91,0,0,0-4.18,4.94,10,10,0,0,0-5.14-.28,59.62,59.62,0,0,1,9.32-4.66ZM114.47,93C105.33,96,96,98.44,87,101.92q-5,1.93-9.93,4.3a104.25,104.25,0,0,1,10.23-5.57A164.76,164.76,0,0,1,130,87.48q-7.68,3-15.51,5.53ZM52.13,30q6.38.74,12.79.86A43.28,43.28,0,0,1,52.13,30Zm24.93.6a2.74,2.74,0,0,0,1.68-.78,15.65,15.65,0,0,1,4,2.77,41.8,41.8,0,0,0-9.39-1.81c1.24-.05,2.49-.1,3.74-.18ZM130.9,16a12.88,12.88,0,0,1,4.4,4c1.57,2.42,1.55,2.46-.8,2.8-1.42.21-4.1-.71-5.43-1-3-.55-6-1.18-9-1.78,2.86.08,5.74,0,8.65-.17a1.74,1.74,0,0,0,1.63-1.26A10.57,10.57,0,0,0,130.9,16Zm39.8-2.13a3.39,3.39,0,0,1,1.37,3c-.35,2-7.91-.16-9.78-.44l-7.87-1.15.43,0c4-.23,10.37-1.55,14-.62a1.83,1.83,0,0,0,1.85-.73Z"/><path id="Path_30158" data-name="Path 30158" class="cls-2" d="M204.51,195.6a39.79,39.79,0,0,0-10,9.18c-5.65,7.66-12,15.5-16.55,23.9a1,1,0,0,0-.1.76.77.77,0,0,0-.88.55c-.26.89-.52,1.79-.77,2.68a.67.67,0,0,0,0,.44l-.46.9c-.08.16.16.29.24.14l.39-.78.14.12a1.19,1.19,0,0,0,.36.09.74.74,0,0,0,.7-.54l1-2.63a.73.73,0,0,0,0-.33,1.05,1.05,0,0,0,1.1-.42c4.57-6.17,8-13.1,13.3-18.72a69.71,69.71,0,0,1,17.86-13.11c3.63-1.87,8.61-3.4,10.27-7.57,1.43-3.58-.08-6.89-3.3-8.67-2.39-1.32-4.2,2.12-2,3.62C220.54,188.49,206.62,194.17,204.51,195.6Z"/><path id="Path_30159" data-name="Path 30159" class="cls-2" d="M203,311.46c-3.17,2.57-6.07,4.14-8.58,7.49-.51.68-1,1.38-1.47,2.09,0-.78,0-1.57,0-2.36a64.22,64.22,0,0,1,1.38-11,102.67,102.67,0,0,1,6.21-11.43.68.68,0,0,0-.28-.92.69.69,0,0,0-.49-.06,24,24,0,0,0-8,4.62,3.12,3.12,0,0,0-1.6.18,27.62,27.62,0,0,0-10.22,6.26c.09-13.15,3-25.2,10.8-36.09.45-.62-.41-1.17-.95-.92a26.78,26.78,0,0,0-6.36,4,3.13,3.13,0,0,0-4-2,2.75,2.75,0,0,0-.67.32,32,32,0,0,0-4.29,3.09,131.37,131.37,0,0,1,15.11-34.88c.34-.55-.35-1.14-.87-.85a38.17,38.17,0,0,0-5.5,3.76c0-1.83-2-3.68-3.82-2.93a27.31,27.31,0,0,0-5.63,3.1,31.94,31.94,0,0,1,1.85-6.57c.36-.84-.82-1.56-1.26-.71-2.37,4.45-4.83,8.2-6.22,13.1-.63,2.22,2.39,4,4,2.22a18.18,18.18,0,0,1,3-2.71,67.84,67.84,0,0,0-2.7,12c-.9,7.06-3,13.65-4.44,20.64a1.7,1.7,0,0,0,2.85,1.6,19.28,19.28,0,0,1,5.79-3.27,64.64,64.64,0,0,0-.54,8.9c.1,4.55,1.74,9.29,1.74,13.72a.54.54,0,0,0,.14.36.57.57,0,0,0-.37.46c-.52,3.22-.7,6.5-2.36,9.4-1.26,2.19,1.6,4,3.34,2.5a35.82,35.82,0,0,1,7.82-4.88c-.9,7.23-1,15.31,1.74,21.33.8,1.79,3.71,1.57,4.51-.06a84.65,84.65,0,0,1,5.85-9.43c2.1-3.15,3.1-6.58,4.9-9.85C203.48,311.49,203.18,311.31,203,311.46Zm-19.32-35.95a24.8,24.8,0,0,1,4.3-3.61,61.71,61.71,0,0,0-5,9.77C183.19,279.62,183.41,277.56,183.67,275.51Zm-11.54,1.29c1-5.63,2.21-11.06,4.8-16.36a110.38,110.38,0,0,0,5.62-15.13,39.18,39.18,0,0,1,4.79-3.92,154.8,154.8,0,0,0-14.1,34.43c-.37.33-.75.65-1.11,1Zm6.44,30.92c.06-1.5.25-3,.38-4.52,0,1.26.14,2.53.3,3.8-.23.24-.46.47-.68.72Zm19.68-10.4c-1.16,1.9-2.29,3.84-3.35,5.83a4.44,4.44,0,0,0-1.46-2.53,19.58,19.58,0,0,1,4.81-3.3Z"/><path id="Path_30160" data-name="Path 30160" class="cls-2" d="M206,306.7a0,0,0,0,0,0,0,0,0,0,0,0,0,.05h1a0,0,0,0,0,0-.05,0,0,0,0,0,0,0Z"/><path id="Path_30161" data-name="Path 30161" class="cls-2" d="M245.09,266.76c-3.3,2.39-4.94,5.54-7.53,8.76-2.88,3.6-6.24,6.63-9.27,10.07-6,6.76-13.3,11.3-20.28,17-.66.53.08,1.55.81,1.35a65.14,65.14,0,0,0,24-12.2c3.53-2.88,5.75-6.73,8.16-10.53s5.63-8.07,6.52-12.62C247.76,267.3,246.33,265.85,245.09,266.76Z"/><path id="Path_30162" data-name="Path 30162" class="cls-2" d="M294.78,52.8l.07.35a.23.23,0,0,0,.17.17c5,10.84,4.32,21.87-.1,32.78-2.77,6.83-5.57,16.39-11.77,20.9-3.22,2.34-2.48,8.71,2.33,8.3,12.85-1.09,20.68-11.64,21.47-24.08.43-6.84-2.1-13.39-3.83-19.9a81.59,81.59,0,0,0-7.68-18.5l.12-.59a.45.45,0,0,0-.35-.53.44.44,0,0,0-.52.34.06.06,0,0,0,0,0,.26.26,0,0,0-.07.33Z"/><path id="Path_30163" data-name="Path 30163" class="cls-2" d="M206.22,266.33c2.5-12.46,5.9-24.47,11.78-35.81a98.09,98.09,0,0,1,6.72-10.94q5.79-7.22,11.38-14.62l4.1-4.94a.47.47,0,0,0,0-.54c7.57-10.16,15-20.44,22.56-30.58,5.62-7.52,12.72-15.51,15.91-24.43,3.49-9.76,5.74-22.06,2.54-32.22a8.73,8.73,0,0,0-7-6c-7.19-12.3-16-24.2-26.93-33.47-10.56-8.95-23-13.45-36.53-15.4-13.18-1.89-26.67-1.59-39.95-2.46a132.45,132.45,0,0,1-22.52-3.07c-5.95-1.43-12.58-6.34-18.57-5.83a.37.37,0,0,0-.36.38.33.33,0,0,0,0,.17c1.94,4.27,7.48,5.72,11.66,7.21a92.67,92.67,0,0,0,19.2,4.32c13.38,1.73,26.95,1.37,40.25,3.67,13.74,2.37,26.3,6.87,36.52,16.69a64,64,0,0,1,6.78,7.74c-1.55-1.5-3.09-3-4.6-4.5-3.64-3.62-7-6.93-11.82-9-6.5-2.82-13.68-4.56-20.57-6.1C194.28,63.8,181.77,63,169,62.52,155.54,62,142.2,60.69,131.6,51.66a.15.15,0,1,0-.21.21c7.28,7.2,17.35,9.76,27.25,10.86,13.28,1.47,26.57,1.26,39.78,3.62a162.67,162.67,0,0,1,20,4.87,44.23,44.23,0,0,1,19.68,11.67c3.82,3.84,7.58,7.8,11.38,11.75,2.48,4.15,4.75,8.44,7,12.72q-8-.78-16.06-1.08a258.61,258.61,0,0,0-39.15,1.48,213.51,213.51,0,0,0-38,7.68c-6.66,2-13.24,4.22-19.69,6.84a113.67,113.67,0,0,0-16,8.51c-18.76,11.29-37.31,23.63-51.66,40.46s-27.13,35-35.83,55.28c-1,2.23,2.33,4.13,3.32,1.87C52,208.75,64,191.11,80.27,177c15.67-13.57,33.88-27.3,53.71-34.11,2.51-.86,5-1.72,7.56-2.56-10.6,6-21.07,12.18-31.3,18.58-21.62,13.53-42.66,29.86-56.12,51.92-.1.15.14.28.24.13,23.15-34,59.24-54.1,95.25-73.26,17.09-5.45,34.42-10,52.36-12.16a50.27,50.27,0,0,0-7.67,4.32c-7.94,5.51-22.67,16.46-23.26,27a.83.83,0,0,0,.83.81.81.81,0,0,0,.41-.11c4.8-2.94,8-8.57,12.48-12.18,5.87-4.73,12.44-6.42,19.74-7.74,10.2-1.86,28.55-3.22,33.83-13.78l2.15.06q8.49.27,17,1.08c2,.19,3.89.49,5.75.64.1,5.4.65,10.86.83,16,.16,4.6.51,9.06-.53,13.6-1.18,5.12-4,9.53-6.88,13.85-9.36,14.1-19.4,27.75-28.78,41.81-12.65,15.45-20.59,36.67-21.89,55.36a.13.13,0,0,0,.13.15A.14.14,0,0,0,206.22,266.33Z"/><path id="Path_30164" data-name="Path 30164" class="cls-2" d="M489.16,212.06c-1.22-4.45-4.79-9-9-11.85a14,14,0,0,1,2.38.84c.82.39,2.16.1,2.31-1,1.21-8.51-3.29-14.12-9.86-19a27.89,27.89,0,0,0-6.46-3.51,1.73,1.73,0,0,0,1.21-2.14,1.94,1.94,0,0,0-.38-.69c-6-7.11-13.1-13.3-21.8-16.9-5.43-2.24-13.8-2.7-17.59,2.53a.18.18,0,0,0,.07.23.05.05,0,0,0,0,0c11.77,2.14,24.46,4.28,33.38,12.59a10.79,10.79,0,0,0-2.34.08c-3-1.58-6.28-2.72-9.3-4.25-3.46-1.76-6.71-4.07-10.29-5.56-.13,0-.27.1-.15.21,2.82,2.63,6.53,4.45,9.94,6.24a71.74,71.74,0,0,0,7.89,3.83c-.23.07-.45.13-.69.22-2.56,1-4.41,2.5-7.21,3.05a22,22,0,0,1-10-.27,23.75,23.75,0,0,0-5.47-11.1c-6.43-7.63-21.12-9.09-27.25-.25-.59.83.41,2,1.32,1.68a27.48,27.48,0,0,1,12.43-.47,13.07,13.07,0,0,1,2.68.78c2.6,4.76,4.7,9.32,5.26,15.33.63,6.77-.34,13.42-.82,20.14a18.77,18.77,0,0,0-4.53-1.23c-7.27-1.22-13.2-2.62-18.45-8.14a24.19,24.19,0,0,0,3.2-3.12,18.53,18.53,0,0,0,4-9.11c.69-5.2-.91-12.57-6-15.13-5.5-2.75-15.09.65-19.37,4.47-5.66,5-5.09,12.36-3.73,19.11a37,37,0,0,0-8.28-7.15c-5.43-3.48-11.38-7.12-17.76-8.5-7.22-1.56-14,0-21.17-2.59a1.6,1.6,0,0,0-2,.94,1.65,1.65,0,0,0-.1.48,52.44,52.44,0,0,0-12.78-3.45,2.24,2.24,0,0,0-1.44.24,2.82,2.82,0,0,0-.36-.33,5.75,5.75,0,0,0,2-1.43c6-6.49,3.75-17.28-1-24-5-7.06-13.79-12-19.88-18.16a.83.83,0,0,0-1.17.05.84.84,0,0,0-.19.76c1.66,6.66,7,11.52,8.6,18.44.72,3.14,1.67,6.35,2.2,9.52.63,3.71.08,7.38,1.56,10.9A7.39,7.39,0,0,0,316,169c-7.74,2.2-16.09.48-24,2.21A69,69,0,0,0,271.11,180c-12.17,7.63-19.74,20.66-22.29,34.62-.32,1.76,2.3,2.49,2.72.71l.12-.45a1.25,1.25,0,0,0,.9.5c4.18.48,8.28-.93,12.42-1.66a2.64,2.64,0,0,0-.2.62c-1.56,9.74-1.37,19.74-8.78,27.37-2.91,3-6.93,5.12-10.16,7.8-2.58,2.15-4.92,4.21-7.23,6.37,1.47-6.73,2.71-13.41,6.1-19.64,4.15-7.66,10.45-13.57,17.33-18.75a1.38,1.38,0,0,0,.38-1.89,1.36,1.36,0,0,0-1.78-.44,40.42,40.42,0,0,0-17.39,16.59c-5.2,9-5.12,19.3-9.17,28.69a1.75,1.75,0,0,0,2,2.5,136.92,136.92,0,0,0,15.59-5.55,38.32,38.32,0,0,0-3.74,20.88c.83,9,6.26,16.26,7.55,24.89.13.88,1.18,1,1.81.72a30.35,30.35,0,0,0,8.68-6.18c-1.17,5.55-1.54,11.25-.07,16.76,2.41,9,16.82,17.74,14.29,27.19a1.52,1.52,0,0,0,2.54,1.43,44,44,0,0,0,8.12-9,27.69,27.69,0,0,0,5.8,13.41c6.12,7.76,18,8.58,22.39,17.25.9,1.78,4.11,1.87,4.91-.07,1.2-2.94,2.72-5.87,4.14-8.84.57,3,1.13,6,1.74,9a1.61,1.61,0,0,0,2,1.1,1.73,1.73,0,0,0,.37-.16c10.93-6.62,20.14-13.07,25.36-24.93a31.42,31.42,0,0,0,2.6-10.8A19.9,19.9,0,0,1,364,341a1.74,1.74,0,0,0,3.24.84c5.81-10.34,13.6-17.37,15.27-29.68,0-.2,0-.4.06-.6a2.59,2.59,0,0,0,3.4-.67c7.67-10.34,14.81-21.09,15.79-34.24a41.27,41.27,0,0,0-8.23-28.08,11.36,11.36,0,0,1,5.83,7.74c0,.37,0,.74,0,1.12s.69.53.85.1v0a1.16,1.16,0,0,0,1.44-.59,16.54,16.54,0,0,0,4.78,7.89,1.3,1.3,0,0,0,1.84-.05,1.1,1.1,0,0,0,.19-.25c1.2-2.46,2.62-4.8,3.84-7.23a2.43,2.43,0,0,0,.44.26,13.2,13.2,0,0,1,2.87,1.71.39.39,0,0,0-.19.51c3.66,7.49,6.52,13.62,6.53,22.2a.38.38,0,0,0,.39.35.37.37,0,0,0,.35-.35c.34-7.16-1.2-15.68-5.79-21.52,2.59,2.71,3.87,6.38,5.19,10.21a28.33,28.33,0,0,1,.77,15.85,19.46,19.46,0,0,0-2.51-1.9c-5.93-4-12.35-10.24-12.75-18a1.12,1.12,0,0,0-1.16-1.08,1.13,1.13,0,0,0-1.09,1.09c0,5,2.56,9.4,5.62,13.31,2.68,3.42,10.66,6.54,11,10.81.1,1.45,2.13,2.21,2.89.75a99.63,99.63,0,0,0,4.72-10,13,13,0,0,0,4,4.82c5.7,4.55,13.55,4.56,18.68,10.08,1.4,1.52,3.63.17,3.77-1.6a55.78,55.78,0,0,1,.91-6.18l4.45,4.28a1.44,1.44,0,0,0,1.8.93,1.46,1.46,0,0,0,.78-.62c4.56-6.38,11.62-12.6,12.54-20.86.31-2.79-.78-6.73-2.6-10,2.65,1.39,5.34,2.88,5.46,4.58a1.93,1.93,0,0,0,3.86,0c.74-7.62,4.3-17.82,1.16-25.2-.17-.38-.37-.8-.59-1.22a1.63,1.63,0,0,0,2.24-.53,1.6,1.6,0,0,0,.22-.56q1.14-7.08,2.18-14.18C489.08,220.54,490.42,216.66,489.16,212.06Zm-26.22-30.38c2.71,1,5.26,2.32,7.86,3.55,5.15,2.45,10.3,6.23,10.9,12.14-3-1.07-6.4-1.78-9.08-.3a18.2,18.2,0,0,0-.16-2.09c-.64-4.91-3.55-8.22-7.43-11.1a26.9,26.9,0,0,0-5.39-3A14.92,14.92,0,0,1,462.94,181.68Zm-19.46-2.2a7.73,7.73,0,0,0-1.85,1.2c0-.56,0-1.12-.07-1.68Q442.51,179.29,443.48,179.48Zm-2.16,5.5c2.78,1,5.35.08,8.34.61a28.51,28.51,0,0,1,9.88,4.14,15.14,15.14,0,0,1,5.58,6.16,26.37,26.37,0,0,0-11.2-7.4.08.08,0,0,0-.07,0s0,0,0,.05c2.8,3,6.68,4.76,9.64,7.63a21.29,21.29,0,0,1,3.05,3.71,43.07,43.07,0,0,1,.9,10.5c-4.81-1.64-10,0-15-1.75-1.42-6.65-5.1-14.21-11.05-17.52a5.31,5.31,0,0,0-1.38-.5,44.13,44.13,0,0,0,1.25-5.67Zm8.25,44.1c.77-4.48,2.58-8.76,3.2-13.27a.39.39,0,0,0,.1.08c11.08,4.88,10.64,14.36,11.7,24.92A40.68,40.68,0,0,1,449.57,229.08Zm11.57,23.73a33.82,33.82,0,0,1-3.49,13.53c-.24-.32-.5-.62-.77-.92,3.26-7.2,2.47-17.3.36-24.87.42.35.81.72,1.24,1.06.38,3.94,2.73,7.1,2.66,11.21Zm-8-37.83a.41.41,0,0,0-.26.09,20,20,0,0,0,.06-3.79c2.63.79,5.44.75,8.18.93a2,2,0,0,0,.13,1.43c2.57,5.16,5.28,9.38,5.61,15.37.22,4.06-.49,8.26-1,12.37l-.6-.28c-.08-8.22,0-25.91-12.09-26.11Zm-21.69-35.9a43.14,43.14,0,0,0-2.06-8.08,24.38,24.38,0,0,1,2.39,5.06c3.44,9.42,2.36,18.55-.58,27.74a9,9,0,0,0-1-.62C431.89,195.37,432.66,186.93,431.42,179.08Zm-8.3,25.68c3,.67,5.83,1.65,7.18,3.75a2,2,0,0,0,2.73.59,2,2,0,0,0,.82-1.1c.92-2.76,2-5.47,3-8.17.4.38.79.74,1.18,1.09,1.5,4.3,4,8.25,5.46,12.61A37.19,37.19,0,0,1,445,229.66c0,.26.36.27.44.05,2.65-7.7.1-18.17-4.19-25.83a19.1,19.1,0,0,1,5.53,9.54c1.67,6.54-.77,12.43-.86,18.76-8.13-2.6-17-1.4-23.2-8a18.15,18.15,0,0,0,3.2-10.13,17.4,17.4,0,0,0-2.78-9.29Zm-9.1-2a16.77,16.77,0,0,0,3.11.9c-.09,3.47.87,7,.87,10.48,0,1.43,0,2.9-.11,4.37-1.7-6-4.11-13.09-7.84-17.85a25.46,25.46,0,0,0,4,2.11Zm-7.33-33c3.46,2.5,3.13,8.18,1.56,11.9-2.19,5.17-7.23,7.15-10.59,11.26a13,13,0,0,0-2.32,4.28c.32-3.45,3.25-6.36,5.12-9.1a43.82,43.82,0,0,0,4.79-8.32c1.22-3.06,2.2-6.75,1.43-10Zm-12.62,1.57c2-1.08,6.81-3,9.16-2.78a8.17,8.17,0,0,1,1.49.28c.08,2.95.35,5.76-.51,8.72a37.17,37.17,0,0,1-5.1,9.8c-2,3-6.7,7.52-5.55,11.43a.55.55,0,0,0,.53.4,4.17,4.17,0,0,0,.71.05q-.21,1-.33,2.16c-2.66-3.48-5.25-7.07-8.55-9.89l-.12-.16a1.24,1.24,0,0,0,1.42-1,1.11,1.11,0,0,0,0-.26C386.44,182.41,386.57,175.34,394.07,171.28Zm-44.3,6.86c7,.4,12.24,3,18.21,6.56,5.79,3.46,11.48,7,14.87,13.09,2.64,4.73,3.73,10.15,4.64,15.5h-.73c.23-4.28-2.84-9-5.16-12.28-5.29-7.44-12.31-13.53-19.48-19.1-.23-.18-.55.12-.32.34,4.61,4.37,9.39,8.56,13.66,13.29,4,4.47,9.93,11.19,9.63,17.75-4.48,0-8.93-.22-13.44-.55-7.3-.53-15.75-.7-18.78-8.44a39.17,39.17,0,0,0,.26-6.93c-.47-8.93-4.27-15.37-9.95-19.87a58.1,58.1,0,0,0,6.59.64ZM377,236.65c.54.77,1.1,1.51,1.71,2.23a30.25,30.25,0,0,0,3.25,3.35c-1.5,6.06-2.54,12.25-3.66,18.42a14.41,14.41,0,0,0-2.67-2.06A59.39,59.39,0,0,0,377,236.65Zm-1.91,21.63-.38-.22c-2.62-1.39-5.36-2.19-7.85-3.85-1.29-.86-2.51-1.94-3.77-2.93,1.77-10.91-3.23-29.8-14.28-33.62a43.8,43.8,0,0,0,2.55-6.46c4.26,4.92,12.07,7.18,20,8.18a29.7,29.7,0,0,0,4.14,15A172.52,172.52,0,0,1,375.12,258.28ZM359.37,303c-.87-1.6-1.44-3.47-2.2-5.19,5.43-8.55,9.68-18.62,10.83-28.87a9.33,9.33,0,0,1,.45,2.21c.24,3-.85,6-1.68,8.8-1.93,6.6-4.6,13-6.27,19.7a10,10,0,0,0-.65,3.19C360.36,306,360.2,306.09,359.37,303Zm-40.16-21.12c1.15,13.51-10.77,23.13-15.85,34.88-.18-.26-.39-.52-.58-.79-.22-3.6,4.36-10.27,5.63-12.52,2-3.57,4.15-7.07,6-10.73a42.21,42.21,0,0,0,4.51-13.55c.2.14.4.29.62.43a4.8,4.8,0,0,0-.32,2.28Zm-7.3-20.27c.18-.19.37-.37.55-.57,5-5.55,10.77-15.38,9.4-23.52a23.2,23.2,0,0,1,1.55,1.74c1.17,1.49,3.31,2.56,5.12,1.27a70.23,70.23,0,0,0,14.94-14.22c1.34,3.33,3.37,6.24,4.8,9.82a42.47,42.47,0,0,1,0,4.37,83.76,83.76,0,0,1-3.15,17.27c-2.46,8.81-6.41,17.37-8.69,26.25a21.33,21.33,0,0,0-4.29-3.87c-4-2.76-8.7-4.24-12.49-7.35s-6-6.88-7.72-11.19Zm-41.78-47.29a2.21,2.21,0,0,0-.59-1.13c3.46-.28,6.87-.3,10.37-.42,6.75-.21,13.51-.66,19.76-3.05-1.63,8.06,4.67,13.88,11.49,19.14a45.64,45.64,0,0,1-12.84,25.7c-4.94,4.93-10.92,9.09-14.52,15.1a33.24,33.24,0,0,0-3.16,3.23c-1.52-5.8-4.41-10.54-6.93-16.38-3.47-8.05-1.75-16-2.67-24.29a61.09,61.09,0,0,0-.91-17.9Zm34.29,36.38a47,47,0,0,0,7.89-16.52,4.48,4.48,0,0,0,.11.62c1.08,4.41-2.91,11.78-5.18,15.54a31.25,31.25,0,0,1-10.57,10.54c-2.74,1.67-5.27,3.17-7.64,4.76,5-5,11-9.15,15.39-14.94Zm8.48-19c.09-.43.17-.86.25-1.29l.6.45a3.39,3.39,0,0,0-.85.84ZM347,256.08a89.48,89.48,0,0,0,2.9-15.12,63.48,63.48,0,0,1,2.09,14.44c.25,11.57-7.94,20.93-14.15,30.49-.17-.28-.38-.54-.56-.81A266.73,266.73,0,0,0,347,256.08Zm7.7,16.44a59.28,59.28,0,0,0,6.75-14.58,16.7,16.7,0,0,0,1.48,1.66,15.26,15.26,0,0,0,2.54,1.82,2.22,2.22,0,0,0-.08,1.87,30.14,30.14,0,0,0,1.43,2.91c-1.72,10.77-4.44,20.72-10.2,30.31-2.6-4.75-8.49-9.91-8.85-15.38a78.29,78.29,0,0,0,6.93-8.6Zm-10.81-69.87c-2.37,11.41-11.36,20.5-18.27,29.74q-1.35-.75-2.76-1.5c2.78-9.46,14.27-14.45,18.1-23.76,2.36-5.71,3-13.69.73-20,2.5,4.17,3.5,9.29,2.2,15.56Zm-21.87-29c5.88,1.94,11.41,4.64,15.51,8.4,2.15,5.28,4.3,9.74,4,15.7a26.33,26.33,0,0,1-7.26,16.91c-4.34,4.66-11.05,9.14-12.68,15.56-2.74-1.43-5.42-3-8-4.69a1,1,0,0,0-.5-.34c-5.72-4-10.06-9.05-9.74-17.15,12.43-6.64,18.28-20.85,18.65-34.39Zm-69.85,39.53a52.19,52.19,0,0,1,25.22-31.89c12-6.45,24.45-2.4,36.73-4.3,0,.14-.07.28-.1.42l-.51-.26a.4.4,0,0,0-.53.2.39.39,0,0,0,0,.35c1.72,3.43-9.3,11.06-11.41,12.63a92.22,92.22,0,0,1-9.87,6.37c-7.71,4.3-15.8,6.91-24.18,9.53a.34.34,0,0,0-.24.43.35.35,0,0,0,.43.25h0c10.35-1.58,20.57-6.23,29.35-11.82a92.87,92.87,0,0,0,11.68-8.82c.92-.82,2-1.68,3-2.62-4.35,8.18-13.07,13.1-22.2,17-6.07,2.59-12.76,4.21-19.07,6.12C264.58,208.54,257,209.43,252.12,213.18Zm5.32,86.11c-1-5.77-3.69-11-4.9-16.78-2-9.41.23-18.5,3.69-27.24a1,1,0,0,0,0-.24,30.61,30.61,0,0,0,9.76-8.49c.34-.48.66-1,1-1.49a40.89,40.89,0,0,0,1,8.33c.18.76.4,1.5.63,2.24-3.38,4.19-3.55,10.52-4.18,15.67-.73,6.08-1.54,12.19-2,18.31a73.52,73.52,0,0,1-5,9.69Zm7.41-15.85-.45,1.24c.64-3.94,1.2-7.89,1.78-11.83.78-5.21,2.1-10.09,3.23-15.15a61.22,61.22,0,0,0,2.74,5.79,4.16,4.16,0,0,0-1.43,1.27c-3.52,5.14-3.84,12.78-5.87,18.68Zm9.76,39.73c-8-9.45-6.65-20.55-3.68-31.59a35,35,0,0,0,2.14-3.64A54.15,54.15,0,0,0,277.46,276c.14.61.26,1.23.35,1.86.23,1.54,2.23,1.62,3.17.8a26.13,26.13,0,0,1,3.52-2.59,44.34,44.34,0,0,0,.31,21.95c.14.55.33,1.09.49,1.64-.52,5.59-.36,11.29-.89,16.89-.55,5.88-1.61,11.7-2.29,17.56-1.48-3.95-4.33-7.19-7.51-10.95Zm13.6-8.67c-.82,8.18-1.7,15.4-5.28,22.41-.09-.47-.21-.9-.33-1.35a122,122,0,0,0,2.64-16.9c.53-5,1.24-10.33,1.31-15.51a41.9,41.9,0,0,0,3,5.87,15.22,15.22,0,0,0-1.3,5.48Zm0-40.47c6.67-3.24,14.27-5.15,20.25-9.45A31.27,31.27,0,0,0,315,275.91a17.74,17.74,0,0,0,2.36,2.14c-1.07,9.32-5.92,17.17-10.55,25.5-.85,1.52-4.64,7.09-5.25,10.85-3.3-4.07-7.41-7.77-9.79-12.46-4.39-8.64-6.07-18.56-3.6-27.91Zm32.45,83.45c-.34-.33-.68-.62-1-.91a123.12,123.12,0,0,0,.36-39.12c-.08-.5-1-.39-.9.12a167.61,167.61,0,0,1,.2,38.71c-3.3-2.62-7.27-3.81-11.77-6-8.8-4.3-12.29-12.58-13.7-21.6a28.31,28.31,0,0,0,1.59-4.56,42.07,42.07,0,0,0,1-6.69c2,1.56,4.66,3.1,5.64,5.16.79,1.68,3.1.91,3.6-.52,1.83-5.22,5.21-9.36,8.87-13.26,1.31,4,6,8.14,10.06,12.27a1.73,1.73,0,0,0-1.12,1c-2.42,5.32.92,11.66,1.18,17.37.29,6-1.78,12.24-4,18.07Zm-3-51.91c5.44-5.59,10.72-11.15,11.87-19.25a11.29,11.29,0,0,1,4.1,7.55c.26,3.21,4.94,4.15,5.82.73a26.44,26.44,0,0,1,4.9-9.4c2.38,14.63-1,28.15-8.16,41-.12.21.18.37.32.18,7-9.71,10-21.89,9.58-33.81,1,6.68,1.5,13.55-.93,19.8a51.8,51.8,0,0,1-9.54,15.57c-2.83-9.2-15.93-12.71-18-22.36Zm31.13,33c-1.78,10.07-10,15.9-16.76,22.77-.08-.23-.16-.47-.23-.71,3.45-4.17,6.12-9,9-13.58,3.08-4.82,6.35-9.58,9.09-14.6-.37,2-.75,4.09-1.11,6.12Zm2.15-12.28c-.21,1.47-.47,3-.73,4.44a.27.27,0,0,0-.22.12c-3.3,4.38-6.09,9.15-9,13.79-3.17,5.05-6.8,10-9.37,15.43-.75-2.35-1.51-4.69-2.26-7,1.77-4.07,3.13-8.24,3-12.67,0-1.45,0-3.2-.13-5.05a2.31,2.31,0,0,0,3.11-.17c5.23-4.94,11.14-9.39,15.26-15.16a18.73,18.73,0,0,1,.32,6.29Zm23-13c-.65,8.69-3.68,15.28-7.42,22.44a17.57,17.57,0,0,0-6.45-9.33,21.54,21.54,0,0,0-5.74-13.52c.1-.28.21-.57.3-.86a26.86,26.86,0,0,0,1.19-8.11l0,0c1.6,4.52,3.37,6.88,7.55,2.84,3-2.89,4.14-6.84,5.56-10.65,1.08-2.92,2.17-5.86,3.22-8.82a114.59,114.59,0,0,1,1.8,13.54c-.51,4-1,7.94-1.88,11.86a153.77,153.77,0,0,1-5.87,19.14.21.21,0,0,0,.38.16A98.09,98.09,0,0,0,374,311.91c0,.46,0,.91-.08,1.38Zm20.1-35.56a41.53,41.53,0,0,1-2.6,13.94c1.57-11.16-.38-23.47-3.1-33.23-.08-.3-.59-.25-.56.08.72,8,2.45,15.89,2.6,24a54.05,54.05,0,0,1-2.08,16.2c-.84,1.6-1.76,3.17-2.73,4.7-1.86-8.11-7.09-15.45-11.24-22.54.15-.48.31-1,.45-1.45a29.1,29.1,0,0,0,1.12-10.54,3.62,3.62,0,0,1,.52,1.43c.29,2.73,4.76,3.9,5.24.66.9-6,2.15-12,3.26-18,5.25,7.32,9.2,15.46,9.13,24.77Zm-4.77-38.16c-6.89-5.24-10.12-12-13-19.72,3.55.25,7,.29,10,.26,4,9.94,10.29,18.66,12.42,28.86-2.32-3.63-5.53-6.48-9.37-9.4ZM400.22,247a42.29,42.29,0,0,0-2.45-6.46,152.36,152.36,0,0,0-11.23-20.43c1,0,1.95,0,2.83-.06l-.12,1a3.35,3.35,0,0,0,1.74,3c8,4.58,9.5,14,9.24,22.94Zm6.21,13.24c-1.09-1.58-2.17-3.16-3.32-4.7a.94.94,0,0,0-1.08-.33c1.26-6.24,2.62-12.5,1.58-18.89a24.59,24.59,0,0,0-2.83-7.93,9,9,0,0,1,1.25.27,6.06,6.06,0,0,1,2.08,1.11h-.17a1.09,1.09,0,0,0-1.08,1.09c.12,1.84.53,2.33,1.44,3.94a17.94,17.94,0,0,1,2.63,8.32,103.21,103.21,0,0,1-.5,17.13Zm-5.95-59.48a.65.65,0,0,0-.67-.63.68.68,0,0,0-.54.32c-2.33,4,0,8.46,2.87,11.66.85.94,1.75,1.81,2.66,2.64a3.42,3.42,0,0,0-1.91,3.16,41.63,41.63,0,0,0,1.23,5.66c.23,1,.56,1.87.79,2.72-1.83-1-4-1.53-5.62-.54-1.23-2.05-2.53-4.1-3.7-6.43a3.08,3.08,0,0,0-1.17-1.18,4.32,4.32,0,0,0,.34-2.48,72.21,72.21,0,0,0-3.44-14.12c1,1.21,2,2.41,3,3.64a1.26,1.26,0,0,0,2.31-.65c.31-3.23,4.17-6.47,7.76-9.42a19.74,19.74,0,0,0,4.05,4.36.34.34,0,0,0,0,.26c1,3.34,3.07,6.35,4.52,9.52,1.78,3.89,3.26,7.87,4.72,11.88a30.71,30.71,0,0,1-.74,4,16.5,16.5,0,0,0-3.4-7.13c-5.34-6.36-12.24-7.71-13-17.27Zm13.76,53a2,2,0,0,0-.42,0l.24-.65c.47-1.42,1.07-3.09,1.58-4.83a24.61,24.61,0,0,0,2.11,3.48,40.67,40.67,0,0,0,5.28,5.77,32.71,32.71,0,0,0-8.78-3.73Zm9.57,3.14c-6.06-5.66-7.42-14.07-7.23-21.92,0-1-1.52-1.47-1.91-.5a14.13,14.13,0,0,0-.57,1.7,21.26,21.26,0,0,0-6.13-5.28,1.79,1.79,0,0,0,.2-.26c1.24-2.2,3.06-4.68,3.35-7.23a10.69,10.69,0,0,0,0-2.19,13,13,0,0,1,2.84,10.15c-.17,1.58,2,1.78,2.71.71,1.3-2,2.72-3.78,4-5.63a18.94,18.94,0,0,0,9.92,5.55,2.42,2.42,0,0,0-.27,1.78,30.08,30.08,0,0,0,2.12,5.27c1.27,3.1.9,5.8.86,9.09-.06,4.88.58,9.78.15,14.62-3-2.32-7-2.94-10.09-5.86Zm20.76,30.11c-2.8-.86-5.8-1.44-8.34-3-2.71-1.63-3.7-4.16-5.37-6.56a20.43,20.43,0,0,0,.45-10.58,13.13,13.13,0,0,0-2.2-4.6,14.37,14.37,0,0,1,4.54,4.89c.67,1.32,2.56.8,3-.43,1.24-3.87,3.1-7.76,3.87-11.73a.06.06,0,0,1,0,0c.1.18.18.37.29.55a17,17,0,0,0,3.42,3.71.46.46,0,0,0-.57.32.29.29,0,0,0,0,.09c-.43,9.83,3,20.5,6.58,29.57A31.91,31.91,0,0,0,444.57,287.05Zm7.26,3.16c-.25-.16-.52-.3-.78-.45a.36.36,0,0,0,.11-.42c-2.46-7.71-3.66-15.47-5.24-23.25,1.7,3,3.87,5.78,4.82,9.3a48,48,0,0,1,1.09,14.82Zm-3.08-31.1c-4.13-2.84-6.6-5.81-7.27-11-.53-4,.58-8,.21-12-.08-.93-1.5-1.57-2-.51-.21.47-.37,1-.54,1.47a11.92,11.92,0,0,0-1.15-3.69,36.73,36.73,0,0,1,8.78,2.63c1,.48,2.62-.1,2.49-1.46a18.79,18.79,0,0,1-.05-2.49,56.47,56.47,0,0,0,6.46,7.1.62.62,0,0,0,0,.4,64.09,64.09,0,0,1,1.81,14.2c0,3.72-.91,7.33-1.16,11-2.16-2.21-4.85-3.82-7.56-5.68ZM468,270.67c-.73,7.29-.94,13-5,19a9.9,9.9,0,0,0-5.5-4.47c.76-4.31,1.23-8.63-.13-12.72a20,20,0,0,0-.89-2.21,1.57,1.57,0,0,0,2.18.35,1.6,1.6,0,0,0,.43-.47A65.24,65.24,0,0,0,466.31,254a9.23,9.23,0,0,0,1.18,3.12.84.84,0,0,0-.35.82c.28,2.29,1.6,3.81,1.91,6,.27,1.88-.8,4.66-1,6.66Zm7-27.27a34.64,34.64,0,0,1,5,13.16c-.06,1.65-.18,3.3-.32,4.9a14.17,14.17,0,0,0-1.41-.78c-2.54-1.25-4.95-1.49-7.25-3.42-1.72-1.45-2.86-3.36-4.37-5a18,18,0,0,0,.35-5.13,2.42,2.42,0,0,0,3.1-1.46l.06-.21c.41-2.25,1-4.7,1.53-7.21,1.68,2.2,4.54,3.67,6.14,6.28s2.11,5.88,2.19,9.32a25.31,25.31,0,0,0-4.64-10.71c-.18-.25-.6,0-.42.26Zm8.41-9.49a16.29,16.29,0,0,0-9.19-4.78c-.29,0-.62.26-.41.55a16.18,16.18,0,0,0,3.32,3.29,6.09,6.09,0,0,0-4.32-.75,28.64,28.64,0,0,0,.23-6.86c-.5-4.51-4-8.77-7.15-12.32a10.1,10.1,0,0,1,2.28,1.07,1.54,1.54,0,0,0,2.09-.6,1.4,1.4,0,0,0,.13-.34c.63-4.23,1.8-8.79,2.12-13.25,0,0,0,0,0,0,2.29,2.42,4.89,4.19,6.5,7.21a28.33,28.33,0,0,1,1.43,3.18,26.35,26.35,0,0,0-3.41-4.39.25.25,0,0,0-.38,0,.27.27,0,0,0,0,.32c2.72,4.17,5.17,8.25,6.45,13.12a33,33,0,0,1,1,8.15,63.57,63.57,0,0,1-.65,6.35Z"/><path id="Path_30165" data-name="Path 30165" class="cls-2" d="M297.89,116.36c-.58-1.37-2.74-.87-2.3.65,1.79,6.08,13.49,5,18.62,5.57,5.85.67,11.3,2.72,17.18,3.22a60.49,60.49,0,0,0,15.67-.66q3.63-.63,7.26-1.46a87.13,87.13,0,0,0-10,14.4A126,126,0,0,1,333,155.16c-2.93,3.84-6.38,7.28-8.1,11.82-.34.89.8,1.52,1.51,1.13,4.4-2.43,7.66-6.84,11.17-10.42,2.12-2.16,4.21-4.19,6.36-6.13q-1.56,1.86-3.08,3.75c-3.5,4.36-7.68,9.22-9.59,14.5-.1.26.26.4.44.25,4.58-4.14,8-10,12.06-14.74a189.26,189.26,0,0,1,13.18-14c8.52-8.24,17.93-15.51,26.59-23.58-2.12,5.63-2.8,11.83-1.74,16.64,1.56,7,5.7,14.62,9.55,20.68,2.26,3.55,5.9,9.56,10.65,8.05a.35.35,0,0,0,.25-.33c-.06-3.91-4.09-6.07-6.08-9.29a18.22,18.22,0,0,1-2.79-9.38,48.53,48.53,0,0,0,2.41,6.31c2.86,6.1,9.67,12.11,16.51,8a.17.17,0,0,0,.05-.25.17.17,0,0,0-.19-.08c-11.36,2-16.15-8.59-18.4-20.06.18-1.47.4-3,.61-4.56.68-5.33-.51-10.47-.05-15.72.37-4.27,2.12-8.1,3.54-12.06,1.14-.82,2.26-1.65,3.42-2.45,9-6.18,15.82-13.71,23.45-21.45.82-.83.23-2.62-1.06-2.48-11.28,1.24-21.46,3.19-31,9.66a183.49,183.49,0,0,0-20.84,16.45,87.14,87.14,0,0,1-19.58,6.07c-7.9,1.32-16,1.52-23.82,3.22-4.66,1-9.1,2.5-13.92,2.81C311.8,117.71,299.05,119.15,297.89,116.36Z"/><path id="Path_30166" data-name="Path 30166" class="cls-2" d="M465.42,265.22a87.8,87.8,0,0,0,.06,16.69.19.19,0,0,0,.19.16.17.17,0,0,0,.15-.16,87,87,0,0,0,.07-16.69.24.24,0,1,0-.47,0Z"/><path id="Path_30167" data-name="Path 30167" class="cls-2" d="M430.7,237.43c.88,6.83,1.82,13.15.75,20.05a.08.08,0,0,0,.15,0c1.48-6.51,2.06-13.78-.29-20.17C431.2,237,430.65,237.06,430.7,237.43Z"/></g></g></g></svg>