<svg xmlns="http://www.w3.org/2000/svg" viewBox="0 0 285.16 264.47"><defs><style>.cls-1{opacity:0.41;}.cls-2{fill:#b69564;}.cls-3{fill:#fff;}</style></defs><g id="圖層_2" data-name="圖層 2"><g id="圖層_1-2" data-name="圖層 1"><g id="Group_6394" data-name="Group 6394" class="cls-1"><g id="Group_6380" data-name="Group 6380"><path id="Path_30447" data-name="Path 30447" class="cls-2" d="M128,63.89l1-.65,4.72,7.08-1,.65Z"/><path id="Path_30448" data-name="Path 30448" class="cls-2" d="M122.74,61.85c1.32-1.16,4.44-1,5,1.23-1.23,1.54-4.24,1-5.09-.85l-3.08-.61.07-.38Z"/><path id="Path_30449" data-name="Path 30449" class="cls-2" d="M127,54.4l.61-3.07.38.08-.62,3.08c1.39,1.5.73,4.48-1.17,5-1.84-1.4-.78-4.34.8-5.12Z"/><path id="Path_30450" data-name="Path 30450" class="cls-2" d="M120.6,58.64c1.32-1.16,4.44-1,5,1.23-1.23,1.55-4.24,1-5.09-.85l-3.08-.61.08-.38,3.06.61Z"/><path id="Path_30451" data-name="Path 30451" class="cls-2" d="M124.83,51.19l.61-3.06.38.07-.62,3.08c1.39,1.5.73,4.49-1.17,5-1.84-1.4-.78-4.35.8-5.12Z"/><path id="Path_30452" data-name="Path 30452" class="cls-2" d="M118.46,55.44c1.32-1.16,4.44-1,5,1.22-1.23,1.55-4.24,1-5.09-.84l-3.08-.62.08-.37Z"/><path id="Path_30453" data-name="Path 30453" class="cls-2" d="M122.69,48l.62-3.06.37.08-.62,3.08c1.39,1.5.73,4.48-1.17,5-1.84-1.4-.78-4.35.8-5.12Z"/><path id="Path_30454" data-name="Path 30454" class="cls-2" d="M116.32,52.23c1.32-1.16,4.44-1,5,1.23-1.23,1.54-4.23,1-5.08-.85L113.18,52l.08-.38,3.06.61Z"/><path id="Path_30455" data-name="Path 30455" class="cls-2" d="M120.55,44.78l.62-3.07.37.08-.61,3.08c1.38,1.5.72,4.48-1.18,5-1.83-1.4-.78-4.34.8-5.12Z"/><path id="Path_30456" data-name="Path 30456" class="cls-2" d="M114.18,49c1.32-1.16,4.44-1,5,1.23-1.23,1.54-4.24,1-5.09-.85L111,48.79l.08-.38,3.06.61Z"/><path id="Path_30457" data-name="Path 30457" class="cls-2" d="M115.24,43.37c1.76.11,3.86,2.43,2.69,4.42-2,.23-3.7-2.28-3-4.2L113.19,41l.32-.21,1.73,2.6Z"/><path id="Path_30458" data-name="Path 30458" class="cls-2" d="M129.11,57.6l.61-3.06.38.08-.62,3.08c1.39,1.5.73,4.48-1.17,5-1.84-1.4-.78-4.35.8-5.12Z"/></g><g id="Group_6381" data-name="Group 6381"><path id="Path_30459" data-name="Path 30459" class="cls-2" d="M112.46,171.35l1,.54-3.94,7.54-1-.54Z"/><path id="Path_30460" data-name="Path 30460" class="cls-2" d="M111.72,165.76c1.65.6,3,3.41,1.34,5-2-.34-2.92-3.23-1.7-4.87l-.94-3,.37-.12.93,3Z"/><path id="Path_30461" data-name="Path 30461" class="cls-2" d="M120.29,165.89l3-.93.12.36-3,.94c-.65,1.94-3.58,2.79-5,1.38.35-2.28,3.44-2.76,4.87-1.75Z"/><path id="Path_30462" data-name="Path 30462" class="cls-2" d="M113.51,162.34c1.65.6,3,3.42,1.34,5-1.95-.33-2.92-3.23-1.7-4.87l-.94-3,.36-.11.94,3Z"/><path id="Path_30463" data-name="Path 30463" class="cls-2" d="M122.08,162.48l3-.94.11.37-3,.94c-.65,1.93-3.58,2.79-5,1.38C117.55,161.94,120.64,161.46,122.08,162.48Z"/><path id="Path_30464" data-name="Path 30464" class="cls-2" d="M115.29,158.93c1.65.6,3,3.41,1.34,5-1.94-.34-2.92-3.23-1.7-4.87l-.94-3,.37-.11.93,3Z"/><path id="Path_30465" data-name="Path 30465" class="cls-2" d="M123.86,159.06l3-.93.12.36-3,.94c-.65,1.94-3.58,2.79-5,1.38.35-2.28,3.44-2.77,4.87-1.75Z"/><path id="Path_30466" data-name="Path 30466" class="cls-2" d="M117.08,155.51c1.65.6,3,3.41,1.34,5-2-.33-2.92-3.23-1.7-4.87l-.94-3,.36-.11.94,3Z"/><path id="Path_30467" data-name="Path 30467" class="cls-2" d="M125.65,155.64l3-.93.12.37-3,.94c-.65,1.93-3.59,2.79-5,1.38.35-2.29,3.43-2.77,4.87-1.76Z"/><path id="Path_30468" data-name="Path 30468" class="cls-2" d="M118.86,152.1c1.66.6,3,3.41,1.34,5-1.94-.34-2.92-3.24-1.7-4.87l-.94-3,.37-.12.93,3Z"/><path id="Path_30469" data-name="Path 30469" class="cls-2" d="M124.34,150.31c.74,1.59-.28,4.55-2.59,4.48-1.14-1.61.22-4.34,2.24-4.64l1.45-2.79.34.18Z"/><path id="Path_30470" data-name="Path 30470" class="cls-2" d="M118.51,169.31l3-.94.11.37-3,.94c-.65,1.93-3.58,2.79-5,1.38.35-2.28,3.44-2.77,4.88-1.75Z"/></g><g id="Group_6382" data-name="Group 6382"><path id="Path_30471" data-name="Path 30471" class="cls-2" d="M80,262l.07-.6,4.35.55-.07.6Z"/><path id="Path_30472" data-name="Path 30472" class="cls-2" d="M77.47,263.33c0-.91,1.1-2.07,2.17-1.55a1.67,1.67,0,0,1-1.59,1.74,1.38,1.38,0,0,1-.45,0l-1.28,1-.12-.15,1.27-1Z"/><path id="Path_30473" data-name="Path 30473" class="cls-2" d="M76,259.17l-1-1.27.16-.13,1,1.28a1.68,1.68,0,0,1,1.64,1.7,2.22,2.22,0,0,1-.07.45c-1.17.25-2-1.16-1.73-2Z"/><path id="Path_30474" data-name="Path 30474" class="cls-2" d="M75.5,263.08c0-.9,1.1-2.07,2.17-1.55a1.65,1.65,0,0,1-1.58,1.74,1.44,1.44,0,0,1-.46,0l-1.28,1-.12-.16,1.27-1Z"/><path id="Path_30475" data-name="Path 30475" class="cls-2" d="M74,258.92l-1-1.27.16-.12,1,1.28a1.66,1.66,0,0,1,1.64,1.69,2.32,2.32,0,0,1-.07.46c-1.17.24-2-1.17-1.73-2Z"/><path id="Path_30476" data-name="Path 30476" class="cls-2" d="M73.53,262.84c0-.91,1.1-2.08,2.18-1.55A1.67,1.67,0,0,1,74.12,263a1.79,1.79,0,0,1-.46,0l-1.28,1-.12-.16,1.27-1Z"/><path id="Path_30477" data-name="Path 30477" class="cls-2" d="M72.05,258.67l-1-1.27.16-.12,1,1.28a1.67,1.67,0,0,1,1.64,1.7,2.34,2.34,0,0,1-.07.45c-1.17.24-2-1.16-1.73-2Z"/><path id="Path_30478" data-name="Path 30478" class="cls-2" d="M71.56,262.59c0-.91,1.1-2.07,2.17-1.55a1.65,1.65,0,0,1-1.58,1.74,1.41,1.41,0,0,1-.46,0l-1.28,1-.12-.15,1.27-1Z"/><path id="Path_30479" data-name="Path 30479" class="cls-2" d="M70.08,258.42l-1-1.27.16-.12,1,1.28a1.68,1.68,0,0,1,1.64,1.7,2.34,2.34,0,0,1-.07.45c-1.17.24-2-1.16-1.73-2Z"/><path id="Path_30480" data-name="Path 30480" class="cls-2" d="M69.59,262.34c0-.9,1.1-2.07,2.17-1.55a1.65,1.65,0,0,1-1.58,1.74,1.41,1.41,0,0,1-.46,0l-1.28,1-.12-.16,1.27-1Z"/><path id="Path_30481" data-name="Path 30481" class="cls-2" d="M67.74,260c.64-.64,2.25-.68,2.63.45a1.67,1.67,0,0,1-2.35.1,1.64,1.64,0,0,1-.29-.35l-1.61-.2,0-.2,1.6.2Z"/><path id="Path_30482" data-name="Path 30482" class="cls-2" d="M78,259.41l-1-1.27.16-.12,1,1.28a1.68,1.68,0,0,1,1.64,1.7,1.78,1.78,0,0,1-.08.45c-1.16.24-2-1.16-1.72-2Z"/></g><g id="Group_6383" data-name="Group 6383"><path id="Path_30483" data-name="Path 30483" class="cls-2" d="M13,129.64l-1.12-.34,2.46-8.14,1.12.34Z"/><path id="Path_30484" data-name="Path 30484" class="cls-2" d="M14.73,135c-1.74-.28-3.6-2.79-2.25-4.66,2,0,3.47,2.63,2.58,4.46l1.48,2.77-.34.18L14.73,135Z"/><path id="Path_30485" data-name="Path 30485" class="cls-2" d="M6.28,136.48,3.53,138l-.18-.34,2.77-1.48c.27-2,3-3.41,4.62-2.29C10.82,136.15,7.88,137.2,6.28,136.48Z"/><path id="Path_30486" data-name="Path 30486" class="cls-2" d="M13.61,138.69c-1.74-.28-3.6-2.79-2.25-4.66,2,0,3.47,2.62,2.58,4.46l1.48,2.77-.34.18-1.47-2.75Z"/><path id="Path_30487" data-name="Path 30487" class="cls-2" d="M5.16,140.16l-2.75,1.48-.18-.34L5,139.82c.28-2,3-3.41,4.62-2.29.09,2.31-2.86,3.36-4.46,2.63Z"/><path id="Path_30488" data-name="Path 30488" class="cls-2" d="M12.49,142.38c-1.73-.28-3.6-2.79-2.25-4.66,2,0,3.47,2.63,2.58,4.46L14.31,145l-.34.18-1.47-2.75Z"/><path id="Path_30489" data-name="Path 30489" class="cls-2" d="M4.05,143.85,1.3,145.33,1.11,145l2.78-1.48c.27-2,3-3.41,4.62-2.29C8.59,143.53,5.65,144.58,4.05,143.85Z"/><path id="Path_30490" data-name="Path 30490" class="cls-2" d="M11.38,146.07c-1.74-.28-3.6-2.79-2.25-4.66,2,0,3.47,2.62,2.58,4.46l1.48,2.77-.34.18-1.47-2.75Z"/><path id="Path_30491" data-name="Path 30491" class="cls-2" d="M2.93,147.54.18,149,0,148.68l2.77-1.49c.28-2,3-3.41,4.62-2.28C7.48,147.22,4.53,148.27,2.93,147.54Z"/><path id="Path_30492" data-name="Path 30492" class="cls-2" d="M10.27,149.76C8.53,149.48,6.67,147,8,145.1c2,0,3.47,2.62,2.58,4.46l1.49,2.77-.34.18-1.47-2.75Z"/><path id="Path_30493" data-name="Path 30493" class="cls-2" d="M5.22,152.54c-1-1.43-.57-4.52,1.7-4.89,1.43,1.37.6,4.31-1.33,5l-.91,3-.36-.11.9-3Z"/><path id="Path_30494" data-name="Path 30494" class="cls-2" d="M7.39,132.79l-2.75,1.47-.18-.34,2.77-1.48c.28-2,3-3.41,4.62-2.29.09,2.31-2.86,3.36-4.46,2.63Z"/></g><g id="Group_6384" data-name="Group 6384"><path id="Path_30495" data-name="Path 30495" class="cls-2" d="M281,171.82l1-.28,2,7-1,.28-2-7Z"/><path id="Path_30496" data-name="Path 30496" class="cls-2" d="M277.24,168.78c1.39-.61,3.9.33,3.8,2.32-1.4.94-3.73-.28-3.94-2l-2.37-1.31.16-.28,2.35,1.3Z"/><path id="Path_30497" data-name="Path 30497" class="cls-2" d="M282.65,163.78l1.3-2.35.29.16-1.3,2.36c.74,1.59-.58,3.86-2.27,3.81-1.14-1.63.49-3.76,2-4Z"/><path id="Path_30498" data-name="Path 30498" class="cls-2" d="M276.33,165.6c1.38-.61,3.9.33,3.8,2.31-1.41,1-3.73-.27-3.95-2l-2.36-1.31.16-.29,2.34,1.3Z"/><path id="Path_30499" data-name="Path 30499" class="cls-2" d="M281.74,160.6l1.3-2.35.29.16L282,160.77c.74,1.59-.57,3.86-2.27,3.81-1.14-1.63.49-3.76,2-4Z"/><path id="Path_30500" data-name="Path 30500" class="cls-2" d="M275.41,162.42c1.38-.61,3.9.33,3.8,2.31-1.41,1-3.73-.27-3.94-2l-2.37-1.31.16-.29,2.35,1.3Z"/><path id="Path_30501" data-name="Path 30501" class="cls-2" d="M280.82,157.41l1.3-2.35.29.16-1.31,2.37c.75,1.59-.57,3.86-2.27,3.81-1.14-1.63.5-3.77,2-4Z"/><path id="Path_30502" data-name="Path 30502" class="cls-2" d="M274.49,159.23c1.39-.6,3.9.33,3.8,2.32-1.41.95-3.73-.28-3.94-2l-2.37-1.3.16-.29,2.35,1.3Z"/><path id="Path_30503" data-name="Path 30503" class="cls-2" d="M279.9,154.23l1.3-2.35.29.16-1.3,2.36c.74,1.59-.58,3.86-2.27,3.81-1.14-1.62.49-3.76,2-4Z"/><path id="Path_30504" data-name="Path 30504" class="cls-2" d="M273.58,156.05c1.38-.61,3.9.33,3.8,2.32-1.41.94-3.74-.28-3.95-2L271.07,155l.15-.28,2.35,1.3Z"/><path id="Path_30505" data-name="Path 30505" class="cls-2" d="M275.92,151.69c1.41.55,2.52,3,1.05,4.33-1.67-.33-2.44-2.83-1.37-4.22l-.74-2.6.31-.09.75,2.58Z"/><path id="Path_30506" data-name="Path 30506" class="cls-2" d="M283.57,167l1.3-2.35.29.16-1.31,2.37c.75,1.58-.57,3.86-2.27,3.8-1.14-1.62.5-3.76,2-4Z"/></g><g id="Group_6385" data-name="Group 6385"><path id="Path_30507" data-name="Path 30507" class="cls-2" d="M228.48,88.47l.88.48-3.5,6.41-.89-.48Z"/><path id="Path_30508" data-name="Path 30508" class="cls-2" d="M227.94,83.65c1.41.54,2.53,3,1.07,4.32-1.67-.32-2.46-2.82-1.38-4.21l-.77-2.59.32-.1.75,2.58Z"/><path id="Path_30509" data-name="Path 30509" class="cls-2" d="M235.3,83.9l2.58-.75.09.31-2.59.76c-.59,1.66-3.13,2.34-4.29,1.11.33-2,3-2.32,4.21-1.43Z"/><path id="Path_30510" data-name="Path 30510" class="cls-2" d="M229.52,80.74c1.42.55,2.54,3,1.08,4.32-1.67-.32-2.46-2.82-1.39-4.21l-.76-2.59.32-.09.75,2.57Z"/><path id="Path_30511" data-name="Path 30511" class="cls-2" d="M236.89,81l2.57-.76.1.32-2.59.76c-.59,1.65-3.13,2.33-4.3,1.1.34-2,3-2.32,4.22-1.42Z"/><path id="Path_30512" data-name="Path 30512" class="cls-2" d="M231.11,77.84c1.41.54,2.54,3,1.08,4.32-1.67-.32-2.46-2.83-1.39-4.21L230,75.36l.32-.1.75,2.58Z"/><path id="Path_30513" data-name="Path 30513" class="cls-2" d="M238.48,78.09l2.57-.75.1.31-2.6.76c-.58,1.65-3.12,2.34-4.29,1.11C234.6,77.56,237.26,77.19,238.48,78.09Z"/><path id="Path_30514" data-name="Path 30514" class="cls-2" d="M232.7,74.93c1.41.54,2.54,3,1.07,4.32-1.66-.32-2.45-2.83-1.38-4.21l-.76-2.59.32-.1.75,2.58Z"/><path id="Path_30515" data-name="Path 30515" class="cls-2" d="M240.07,75.18l2.57-.75.09.32-2.59.76c-.59,1.65-3.12,2.33-4.29,1.1.34-2,3-2.32,4.22-1.43Z"/><path id="Path_30516" data-name="Path 30516" class="cls-2" d="M234.29,72c1.41.54,2.54,3,1.07,4.32-1.66-.32-2.45-2.83-1.38-4.21l-.76-2.6.32-.09.75,2.58Z"/><path id="Path_30517" data-name="Path 30517" class="cls-2" d="M239,70.58c.61,1.38-.31,3.9-2.3,3.81-.95-1.4.26-3.73,2-4L240,68.07l.29.15L239,70.58Z"/><path id="Path_30518" data-name="Path 30518" class="cls-2" d="M233.71,86.81l2.58-.76.09.32-2.59.76c-.59,1.65-3.12,2.34-4.29,1.11.33-2,3-2.33,4.21-1.43Z"/></g><g id="Group_6386" data-name="Group 6386"><path id="Path_30519" data-name="Path 30519" class="cls-2" d="M161.73,117.41l-3.59-5.82a3.72,3.72,0,0,0-5.12-1.21h0l-2,1.22-1.22-2-14.18,8.75,9.94,16.11a2.55,2.55,0,0,0,3.49.83h0l9.87-6.1a2.52,2.52,0,0,0,.82-3.48l-1.22-2,2-1.22a3.72,3.72,0,0,0,1.21-5.12ZM148.9,131.65l-.25.15a.84.84,0,0,1-1.16-.27l-7-11.39a.84.84,0,0,1,.27-1.16l.25-.15a.84.84,0,0,1,1.16.27l7,11.39A.85.85,0,0,1,148.9,131.65Zm3.55-2.19-.25.16a.84.84,0,0,1-1.16-.28L144,118a.83.83,0,0,1,.27-1.16l.25-.16a.84.84,0,0,1,1.16.28l7,11.38a.85.85,0,0,1-.27,1.16Zm3.54-2.19-.25.16a.85.85,0,0,1-1.16-.28l-7-11.38a.84.84,0,0,1,.28-1.16l.25-.16a.85.85,0,0,1,1.16.28l7,11.38A.84.84,0,0,1,156,127.27Zm3.28-6.77-2,1.23-5-8.1,2-1.22a1.34,1.34,0,0,1,1.85.43h0l3.59,5.82a1.33,1.33,0,0,1-.44,1.84Z"/><path id="Path_30520" data-name="Path 30520" class="cls-2" d="M147.68,109.4A2.95,2.95,0,1,0,145.4,104a2.91,2.91,0,0,0-.79.49,3.45,3.45,0,0,0-5.78.29,4.85,4.85,0,0,0-6.24,7.27,3,3,0,0,0-.62,3.67,3.19,3.19,0,0,0,4.43.69Z"/></g><g id="Group_6387" data-name="Group 6387"><path id="Path_30521" data-name="Path 30521" class="cls-2" d="M39.35,59.2l-2.1-1,1-2.1-15-7.23L15,65.91a2.55,2.55,0,0,0,1.18,3.38l10.45,5A2.55,2.55,0,0,0,30,73.15l1-2.1,2.1,1a3.72,3.72,0,0,0,5-1.73l3-6.17a3.72,3.72,0,0,0-1.74-5Zm-20.14,8-.27-.13a.84.84,0,0,1-.39-1.12l5.81-12.05a.84.84,0,0,1,1.12-.4h0l.26.13a.85.85,0,0,1,.4,1.13L20.34,66.79a.85.85,0,0,1-1.13.39ZM23,69l-.26-.13a.84.84,0,0,1-.4-1.12l5.81-12a.85.85,0,0,1,1.13-.4l.26.13a.84.84,0,0,1,.4,1.12h0l-5.81,12A.85.85,0,0,1,23,69Zm4.88,1.42a.86.86,0,0,1-1.13.39l-.26-.13a.83.83,0,0,1-.39-1.12h0l5.8-12.05A.85.85,0,0,1,33,57.1h0l.27.13a.84.84,0,0,1,.39,1.12Zm11.1-7.28-3,6.16a1.34,1.34,0,0,1-1.79.63l-2.1-1,4.14-8.58,2.1,1a1.34,1.34,0,0,1,.62,1.79Z"/><path id="Path_30522" data-name="Path 30522" class="cls-2" d="M39.81,48.91a3.44,3.44,0,0,0-3.34-4.71A4.85,4.85,0,0,0,27,42.86a3,3,0,0,0-3.43,1.45,3.19,3.19,0,0,0,1.81,4.11L37.3,54.17a3,3,0,1,0,3.36-4.85,2.91,2.91,0,0,0-.85-.41Z"/></g><g id="Group_6388" data-name="Group 6388"><path id="Path_30523" data-name="Path 30523" class="cls-2" d="M244.61,220.63l-2.09-1,1-2.09-15-7.24-8.22,17.05a2.53,2.53,0,0,0,1.18,3.38l10.45,5a2.54,2.54,0,0,0,3.38-1.18h0l1-2.09,2.1,1a3.72,3.72,0,0,0,5-1.74l3-6.16A3.72,3.72,0,0,0,244.61,220.63Zm-20.14,8-.26-.13a.85.85,0,0,1-.4-1.13h0l5.8-12.05a.85.85,0,0,1,1.13-.4h0l.27.12a.85.85,0,0,1,.39,1.13h0l-5.81,12.05a.84.84,0,0,1-1.12.4Zm3.76,1.8-.27-.12a.84.84,0,0,1-.39-1.13h0l5.81-12a.84.84,0,0,1,1.12-.4l.27.13a.85.85,0,0,1,.39,1.13h0L229.35,230a.84.84,0,0,1-1.12.39Zm4.87,1.42a.84.84,0,0,1-1.12.39l-.27-.12a.85.85,0,0,1-.39-1.13l5.81-12a.84.84,0,0,1,1.12-.4h0l.26.13a.85.85,0,0,1,.4,1.13h0Zm11.1-7.28-3,6.17a1.34,1.34,0,0,1-1.78.62l-2.1-1,4.13-8.58,2.1,1a1.34,1.34,0,0,1,.63,1.79h0Z"/><path id="Path_30524" data-name="Path 30524" class="cls-2" d="M245.08,210.35a3.45,3.45,0,0,0-1.94-4.47,3.41,3.41,0,0,0-1.41-.24,4.86,4.86,0,0,0-9.49-1.35,3,3,0,0,0-3.43,1.45,3.19,3.19,0,0,0,1.81,4.11l11.94,5.76a3,3,0,1,0,3.36-4.86,2.83,2.83,0,0,0-.84-.4Z"/></g><path id="Path_30525" data-name="Path 30525" class="cls-2" d="M60.63,196.81a1.73,1.73,0,0,1,1-2.23l3.57-1.65a1.74,1.74,0,0,1,2.33.7,1.67,1.67,0,0,1-.44,1.88L74.76,208c2.52.11,5.21,2.1,6.65,5.22l11.37,24.58a2.81,2.81,0,0,1-1.37,3.74l-9.74,4.5a2.81,2.81,0,0,1-3.73-1.38h0L66.57,220.11c-1.45-3.12-1.23-6.46.33-8.45l-4.55-14a1.62,1.62,0,0,1-1.71-.88Z"/><path id="Path_30526" data-name="Path 30526" class="cls-2" d="M257.06,165.54a1.17,1.17,0,0,1,1.43.82l.86,2.53a1.17,1.17,0,0,1-.65,1.51,1.1,1.1,0,0,1-1.23-.43l-9,4.27a5.66,5.66,0,0,1-4,4.11L227,184.22a1.92,1.92,0,0,1-2.43-1.2l-2.32-6.9a1.91,1.91,0,0,1,1.2-2.42h0l17.42-5.87a5.67,5.67,0,0,1,5.68.85l9.76-2.05a1.12,1.12,0,0,1,.72-1.09Z"/><g id="Group_6389" data-name="Group 6389"><path id="Path_30527" data-name="Path 30527" class="cls-2" d="M126.14,245.28a.8.8,0,0,0-.06-.53.53.53,0,0,0-.17-.25.2.2,0,0,0-.2,0c-.08,0-.14.16-.17.4a2.35,2.35,0,0,0,.12,1A1,1,0,0,0,126.14,245.28Z"/><path id="Path_30528" data-name="Path 30528" class="cls-2" d="M121.76,248.08a6.13,6.13,0,0,0-1.85-.22,6.92,6.92,0,0,1,0,.91,4.73,4.73,0,0,1-.12.93q.77,0,1.41-.12a3.71,3.71,0,0,0,1-.2.53.53,0,0,0,.3-.27.47.47,0,0,0,0-.4A1.13,1.13,0,0,0,121.76,248.08Z"/><path id="Path_30529" data-name="Path 30529" class="cls-2" d="M120.27,246.77l.26-.1.28-.09a3.88,3.88,0,0,0,0-1,2.27,2.27,0,0,0-.17-.77.85.85,0,0,0-.46-.52,1.45,1.45,0,0,0-.92,0c.13.6.24,1.12.33,1.57s.15.84.19,1.18A3.13,3.13,0,0,1,120.27,246.77Z"/><path id="Path_30530" data-name="Path 30530" class="cls-2" d="M127,232.87A13.12,13.12,0,1,0,140.07,246h0A13.11,13.11,0,0,0,127,232.87ZM124,249.48a2.75,2.75,0,0,1-1.55,1.31,3.68,3.68,0,0,1-1.23.28,6.91,6.91,0,0,1-1.69-.15,4.12,4.12,0,0,1-.39.63.76.76,0,0,1-.35.29.71.71,0,0,1-.58-.11,1.39,1.39,0,0,1-.59-.7.47.47,0,0,1,.12-.56,3.32,3.32,0,0,1,.87-.56,12.17,12.17,0,0,0,0-1.6c0-.6-.12-1.2-.22-1.81s-.21-1.19-.34-1.72a4.73,4.73,0,0,0-1.21.92,3,3,0,0,0-.68,1.37l-.13.07a.43.43,0,0,1-.42,0,.84.84,0,0,1-.32-.42,1.88,1.88,0,0,1,0-1.38,3.93,3.93,0,0,1,1-1.45,6.33,6.33,0,0,1,1.94-1.21,4.18,4.18,0,0,1,2.58-.38,2,2,0,0,1,1.36,1.24,2.84,2.84,0,0,1,.14,1.32,6,6,0,0,1-.45,1.66,2.85,2.85,0,0,1,1.48.52,1.89,1.89,0,0,1,.63.8A2,2,0,0,1,124,249.48Zm13-8.16a.33.33,0,0,1,.22.18,1.56,1.56,0,0,1,0,.83,6.14,6.14,0,0,1-.39,1.19,5.63,5.63,0,0,1-.64,1.15,2,2,0,0,1-.74.68,1.31,1.31,0,0,1-.87.09,1,1,0,0,1-.56-.58,3,3,0,0,1-.18-.83c0-.29,0-.57,0-.82a1.94,1.94,0,0,0,0-.53.22.22,0,0,0-.16-.12,1.22,1.22,0,0,0-.33,0,8.28,8.28,0,0,1-.13,1,5.27,5.27,0,0,1-.14.57c0,.11-.06.23-.1.35a5.79,5.79,0,0,1-.82,1.58,3.32,3.32,0,0,1-1.28,1.1,1.58,1.58,0,0,1-1.39,0,1.81,1.81,0,0,1-.63-.6,6.07,6.07,0,0,1-.66,1.13,3.25,3.25,0,0,1-1.28,1.1,1.58,1.58,0,0,1-1.39,0,2.34,2.34,0,0,1-1-1.22,4,4,0,0,1-.28-1.77,4.35,4.35,0,0,1,.41-1.63,2,2,0,0,1,.9-1,1.35,1.35,0,0,1,1-.08,1.18,1.18,0,0,1,.65.73,1.79,1.79,0,0,1,0,1.4,3.44,3.44,0,0,1-1.27,1.43,1.21,1.21,0,0,0,.34.53.47.47,0,0,0,.5,0,2.48,2.48,0,0,0,1-.94,4.06,4.06,0,0,0,.45-.91,4.21,4.21,0,0,1-.1-1.23,4.4,4.4,0,0,1,.41-1.63,1.93,1.93,0,0,1,.9-.95,1.31,1.31,0,0,1,1-.09,1.2,1.2,0,0,1,.65.73,1.79,1.79,0,0,1,0,1.4,3.38,3.38,0,0,1-1.27,1.43,1.11,1.11,0,0,0,.34.53.47.47,0,0,0,.5,0,2.42,2.42,0,0,0,1-.94,4.4,4.4,0,0,0,.62-1.52,3.42,3.42,0,0,0,.07-.71.66.66,0,0,1-.2-.14,1,1,0,0,1-.16-.24,1.65,1.65,0,0,1,0-1,3.36,3.36,0,0,1,.41-1,1.62,1.62,0,0,1,.6-.62.89.89,0,0,1,.51-.06.5.5,0,0,1,.32.28.59.59,0,0,1,0,.23,2,2,0,0,0-.26.39,1.57,1.57,0,0,0-.15.43h.28l.32,0a2.1,2.1,0,0,1,.75,0,.42.42,0,0,1,.28.27.92.92,0,0,1,.07.4c0,.16,0,.35,0,.56a8.62,8.62,0,0,0,0,.88,2.19,2.19,0,0,0,.1.63.57.57,0,0,0,.12.18.19.19,0,0,0,.18,0,1.59,1.59,0,0,0,.54-.76,6.67,6.67,0,0,0,.46-1.52.55.55,0,0,1,.38,0Z"/><path id="Path_30531" data-name="Path 30531" class="cls-2" d="M130.09,243.64a.75.75,0,0,0-.05-.53.46.46,0,0,0-.17-.24.18.18,0,0,0-.2,0c-.08,0-.14.17-.18.4a2.62,2.62,0,0,0,.12,1A1,1,0,0,0,130.09,243.64Z"/><path id="Path_30532" data-name="Path 30532" class="cls-2" d="M145.29,244.12c-.07-.16-1.25-.38-1.52-1.69s.76-1.9.73-2.07-1.29-.1-1.84-1.35c-.49-1.09.35-2,.27-2.18a2.66,2.66,0,0,1-2.06-.93c-.71-1-.08-2.06-.18-2.19a2.7,2.7,0,0,1-2.23-.48c-.89-.8-.49-2-.62-2.11a2.71,2.71,0,0,1-2.28,0c-1-.6-.89-1.85-1-1.94a2.71,2.71,0,0,1-2.24.47c-1.14-.37-1.24-1.62-1.4-1.67a2.79,2.79,0,0,1-2.11.92c-1.19-.12-1.59-1.32-1.75-1.34a2.69,2.69,0,0,1-1.84,1.34c-1.2.12-1.82-1-2-1s-.24,1.27-1.54,1.69c-1.14.37-2-.56-2.13-.51s0,1.29-1.15,2-2-.15-2.2-.06a2.74,2.74,0,0,1-.71,2.17c-.89.8-2,.29-2.16.4a2.67,2.67,0,0,1-.25,2.27c-.7,1-1.92.71-2,.84a2.74,2.74,0,0,1,.23,2.27c-.49,1.09-1.74,1.08-1.81,1.24a2.73,2.73,0,0,1,.7,2.17c-.25,1.17-1.48,1.43-1.52,1.59s1.14.62,1.14,2c0,1.2-1.15,1.72-1.15,1.87s1.24.37,1.52,1.7c.24,1.15-.76,1.9-.71,2.11s1.27.06,1.82,1.31c.49,1.09-.38,2-.29,2.18a2.7,2.7,0,0,1,2.08.93c.7,1,.08,2.05.18,2.19a2.68,2.68,0,0,1,2.22.48c.89.8.49,2,.62,2.11a2.7,2.7,0,0,1,2.29,0c1,.6.88,1.84,1,1.93a2.71,2.71,0,0,1,2.24-.46c1.14.37,1.27,1.62,1.42,1.67a2.74,2.74,0,0,1,2.09-.93c1.19.13,1.57,1.33,1.74,1.34s.5-1.19,1.85-1.33c1.19-.13,1.81.95,2,.93s.25-1.26,1.53-1.68,2,.58,2.14.52,0-1.29,1.15-2,2.05.15,2.2.05a2.65,2.65,0,0,1,.71-2.16c.89-.8,2-.3,2.15-.4a2.74,2.74,0,0,1,.25-2.27c.7-1,1.93-.71,2-.84a2.74,2.74,0,0,1-.23-2.27c.49-1.09,1.74-1.1,1.8-1.25a2.73,2.73,0,0,1-.69-2.16c.25-1.17,1.47-1.44,1.52-1.59s-1.14-.62-1.14-2C144.14,244.8,145.29,244.28,145.29,244.12ZM127,261.2A15.21,15.21,0,1,1,142.17,246,15.21,15.21,0,0,1,127,261.2Z"/><path id="Path_30533" data-name="Path 30533" class="cls-2" d="M127,231.81A14.18,14.18,0,1,0,141.14,246h0A14.18,14.18,0,0,0,127,231.81Zm0,28A13.83,13.83,0,1,1,140.79,246,13.82,13.82,0,0,1,127,259.81Z"/></g><g id="Group_6390" data-name="Group 6390"><path id="Path_30534" data-name="Path 30534" class="cls-2" d="M181,15.89a.47.47,0,0,0,.19-.25.35.35,0,0,0,0-.17.13.13,0,0,0-.07-.09c-.05,0-.13,0-.24.1a1.65,1.65,0,0,0-.32.46A.55.55,0,0,0,181,15.89Z"/><path id="Path_30535" data-name="Path 30535" class="cls-2" d="M178,15.39a3.42,3.42,0,0,0-.71-.81,2.57,2.57,0,0,1-.34.4,2.86,2.86,0,0,1-.41.36l.65.5a3.1,3.1,0,0,0,.5.29.33.33,0,0,0,.24,0,.26.26,0,0,0,.15-.17A.61.61,0,0,0,178,15.39Z"/><path id="Path_30536" data-name="Path 30536" class="cls-2" d="M177.87,14.25l.15.06.15.07a2.44,2.44,0,0,0,.42-.43,1.9,1.9,0,0,0,.23-.39.55.55,0,0,0,0-.4.82.82,0,0,0-.39-.37c-.17.3-.33.57-.47.8s-.26.42-.37.58A1.47,1.47,0,0,1,177.87,14.25Z"/><path id="Path_30537" data-name="Path 30537" class="cls-2" d="M186.14,10.87a7.6,7.6,0,1,0,.55,10.73h0A7.59,7.59,0,0,0,186.14,10.87Zm-7.7,6a1.66,1.66,0,0,1-1.18,0,2,2,0,0,1-.64-.36,3.77,3.77,0,0,1-.66-.72,3.31,3.31,0,0,1-.42.12.46.46,0,0,1-.26,0,.43.43,0,0,1-.21-.27.9.9,0,0,1,0-.54.28.28,0,0,1,.27-.19,2,2,0,0,1,.59.1c.21-.23.41-.46.6-.7s.41-.57.61-.87.37-.59.52-.87a2.91,2.91,0,0,0-.88-.07,1.63,1.63,0,0,0-.82.32l-.08,0a.24.24,0,0,1-.17-.18.44.44,0,0,1,0-.3,1.1,1.1,0,0,1,.55-.59,2.15,2.15,0,0,1,1-.22,3.56,3.56,0,0,1,1.3.23,2.42,2.42,0,0,1,1.26.84,1.14,1.14,0,0,1,.1,1.06,1.63,1.63,0,0,1-.45.62,3.35,3.35,0,0,1-.84.54,1.67,1.67,0,0,1,.44.8,1.21,1.21,0,0,1-.67,1.31Zm8.75,1.52a.18.18,0,0,1,0,.16.8.8,0,0,1-.33.35,4,4,0,0,1-.63.37,4.34,4.34,0,0,1-.72.24,1.14,1.14,0,0,1-.58,0,.7.7,0,0,1-.41-.3.55.55,0,0,1,0-.47,1.51,1.51,0,0,1,.25-.42,4,4,0,0,1,.3-.37,1.14,1.14,0,0,0,.18-.25.14.14,0,0,0,0-.11l-.13-.14-.45.38-.28.19-.18.11a3.38,3.38,0,0,1-1,.36,1.91,1.91,0,0,1-1,0,.9.9,0,0,1-.6-.54,1.06,1.06,0,0,1,0-.5,3.56,3.56,0,0,1-.72.23,1.92,1.92,0,0,1-1,0,.92.92,0,0,1-.6-.54,1.3,1.3,0,0,1,.07-.89,2.29,2.29,0,0,1,.56-.87,2.45,2.45,0,0,1,.81-.54,1.17,1.17,0,0,1,.76-.07.84.84,0,0,1,.46.35.71.71,0,0,1,0,.57,1.08,1.08,0,0,1-.53.62,1.88,1.88,0,0,1-1.1.12.76.76,0,0,0-.06.36.28.28,0,0,0,.21.21,1.43,1.43,0,0,0,.82,0,2.11,2.11,0,0,0,.54-.22,2.14,2.14,0,0,1,.43-.56,2.48,2.48,0,0,1,.81-.55,1.11,1.11,0,0,1,.76-.06.8.8,0,0,1,.46.35.71.71,0,0,1,0,.57,1.08,1.08,0,0,1-.53.62,2,2,0,0,1-1.1.12.72.72,0,0,0-.06.36.28.28,0,0,0,.21.2,1.4,1.4,0,0,0,.81,0,2.53,2.53,0,0,0,.86-.41,2,2,0,0,0,.3-.28l0-.13a.47.47,0,0,1,0-.17,1,1,0,0,1,.37-.42,1.89,1.89,0,0,1,.57-.28.85.85,0,0,1,.5,0,.46.46,0,0,1,.24.17.26.26,0,0,1,0,.24.52.52,0,0,1-.06.13l-.27.06a.76.76,0,0,0-.23.13l.12.11.15.11a1.3,1.3,0,0,1,.32.3.27.27,0,0,1,0,.23.82.82,0,0,1-.12.2,2.49,2.49,0,0,1-.23.23c-.12.12-.24.24-.35.37a1.27,1.27,0,0,0-.2.31.25.25,0,0,0,0,.12.11.11,0,0,0,.07.08,1,1,0,0,0,.53-.12,4,4,0,0,0,.79-.48.37.37,0,0,1,.17.13Z"/><path id="Path_30538" data-name="Path 30538" class="cls-2" d="M183.31,16.71a.45.45,0,0,0,.18-.25.32.32,0,0,0,0-.17.14.14,0,0,0-.08-.09c-.05,0-.13,0-.23.11a1.36,1.36,0,0,0-.32.46A.62.62,0,0,0,183.31,16.71Z"/><path id="Path_30539" data-name="Path 30539" class="cls-2" d="M189.66,22.82a1.53,1.53,0,0,1,0-1.32c.35-.6,1.07-.52,1.12-.61a1.6,1.6,0,0,1-.27-1.29c.22-.66.94-.74,1-.83a1.55,1.55,0,0,1-.52-1.2c.07-.69.76-.92.77-1s-.69-.29-.77-1.07.56-1.05.55-1.15-.74-.14-1-.89.34-1.14.3-1.23-.75,0-1.14-.67.09-1.18,0-1.26a1.59,1.59,0,0,1-1.26-.43c-.47-.51-.17-1.18-.24-1.25a1.55,1.55,0,0,1-1.31-.14c-.56-.41-.4-1.12-.48-1.18a1.57,1.57,0,0,1-1.32.14c-.63-.29-.63-1-.72-1a1.61,1.61,0,0,1-1.26.4c-.67-.15-.82-.86-.92-.88s-.36.66-1.14.66-1-.67-1.09-.67-.21.72-1,.88-1.1-.44-1.2-.43-.06.75-.78,1.07-1.17-.21-1.27-.17a1.54,1.54,0,0,1-.54,1.21c-.56.41-1.19,0-1.27.1a1.53,1.53,0,0,1-.28,1.29c-.46.52-1.15.3-1.22.36a1.53,1.53,0,0,1,0,1.32c-.34.59-1.06.53-1.12.63a1.49,1.49,0,0,1,.27,1.27c-.21.66-.94.72-1,.83a1.58,1.58,0,0,1,.53,1.21c-.07.69-.77.91-.78,1s.69.28.78,1.07-.57,1.05-.55,1.15.73.13,1,.88-.34,1.14-.3,1.24a1.57,1.57,0,0,1,1.14.67c.34.6-.09,1.19,0,1.27a1.61,1.61,0,0,1,1.26.41c.46.52.16,1.18.23,1.25a1.58,1.58,0,0,1,1.31.15c.56.41.41,1.11.49,1.16A1.55,1.55,0,0,1,177,25.6c.64.28.63,1,.72,1a1.57,1.57,0,0,1,1.26-.4c.68.14.83.86.92.88s.36-.66,1.15-.66,1,.66,1.08.66.22-.71,1-.88,1.1.45,1.2.43.06-.75.78-1.07,1.18.2,1.26.16a1.57,1.57,0,0,1,.54-1.2c.57-.4,1.19-.05,1.27-.1a1.57,1.57,0,0,1,.28-1.29C188.9,22.67,189.6,22.89,189.66,22.82Zm-14.51.23a8.81,8.81,0,1,1,12.45-.64,8.81,8.81,0,0,1-12.45.64Z"/><path id="Path_30540" data-name="Path 30540" class="cls-2" d="M186.55,10.41a8.21,8.21,0,1,0,.6,11.6h0A8.21,8.21,0,0,0,186.55,10.41ZM175.69,22.46A8,8,0,1,1,187,21.87a8,8,0,0,1-11.31.59Z"/></g><g id="Group_6391" data-name="Group 6391"><path id="Path_30541" data-name="Path 30541" class="cls-2" d="M15.11,211.38h14.8V191.52H15.11Zm7.4-16.26a6.33,6.33,0,1,1-6.33,6.33h0a6.34,6.34,0,0,1,6.33-6.33Z"/><path id="Path_30542" data-name="Path 30542" class="cls-2" d="M18.69,186.84a1.07,1.07,0,0,0,1.5-.29,1.09,1.09,0,0,0,.1-1l-1-2.84a1.91,1.91,0,0,0-3.52,1.49,2.22,2.22,0,0,0,.3.49Zm-1.17-4.35a.94.94,0,0,1,.84.52l.66,1.52a.59.59,0,0,1-.23.79.57.57,0,0,1-.67-.08l-1.29-1.16a.95.95,0,0,1,.69-1.59Z"/><path id="Path_30543" data-name="Path 30543" class="cls-2" d="M16.8,215.33H28.22l1.69-3H15.11Z"/><path id="Path_30544" data-name="Path 30544" class="cls-2" d="M22.51,206.78a5.33,5.33,0,1,0-5.33-5.33A5.32,5.32,0,0,0,22.51,206.78Zm-1-6.49,1-3,1,3h3.2l-2.58,1.88,1,3-2.59-1.87-2.59,1.87,1-3-2.58-1.89Z"/><path id="Path_30545" data-name="Path 30545" class="cls-2" d="M16.8,187.57l-1.69,3h14.8l-1.68-3Z"/></g><g id="Group_6392" data-name="Group 6392"><path id="Path_30546" data-name="Path 30546" class="cls-2" d="M89,90.84,99.3,97.35,108,83.58,97.78,77.06Zm12.28-8a5.19,5.19,0,1,1-7.17,1.6h0a5.2,5.2,0,0,1,7.17-1.6Z"/><path id="Path_30547" data-name="Path 30547" class="cls-2" d="M102.32,75.4a.89.89,0,0,0,1.56.12,1,1,0,0,0,.13-.33l.55-2.41a1.57,1.57,0,0,0-3.1-.54,1.4,1.4,0,0,0,0,.5Zm1.1-3.53a.77.77,0,0,1,.36.73l-.22,1.34a.47.47,0,0,1-.93.1l-.38-1.37a.78.78,0,0,1,.61-.91.73.73,0,0,1,.56.11Z"/><path id="Path_30548" data-name="Path 30548" class="cls-2" d="M88.47,94.32l7.92,5L98.89,98,88.63,91.49Z"/><path id="Path_30549" data-name="Path 30549" class="cls-2" d="M96.2,90.9a4.38,4.38,0,1,0-1.35-6h0A4.37,4.37,0,0,0,96.2,90.9ZM98.36,86l2-1.67-.65,2.55L102,88.25l-2.62.17L98.68,91l-1-2.44-2.63.16,2-1.68-1-2.44Z"/><path id="Path_30550" data-name="Path 30550" class="cls-2" d="M100.69,75.07l-2.5,1.35,10.26,6.51.15-2.83Z"/></g><g id="Group_6393" data-name="Group 6393"><path id="Path_30551" data-name="Path 30551" class="cls-2" d="M186.2,160.51l9.82-7.15-9.61-13.19-9.82,7.15Zm-2.95-14.37a5.19,5.19,0,1,1-1.14,7.26A5.19,5.19,0,0,1,183.25,146.14Z"/><path id="Path_30552" data-name="Path 30552" class="cls-2" d="M176.71,142.49a.88.88,0,0,0,.85-.92.86.86,0,0,0-.43-.72l-2-1.4a1.57,1.57,0,0,0-1.62,2.69,1.77,1.77,0,0,0,.45.18Zm-2.88-2.32a.75.75,0,0,1,.8-.06l1.18.69a.48.48,0,0,1-.26.91l-1.41-.16a.77.77,0,0,1-.62-.9.78.78,0,0,1,.31-.48Z"/><path id="Path_30553" data-name="Path 30553" class="cls-2" d="M189.22,162.32l7.59-5.53-.34-2.82-9.82,7.16Z"/><path id="Path_30554" data-name="Path 30554" class="cls-2" d="M188.88,153.87a4.37,4.37,0,1,0-6.11-1h0A4.36,4.36,0,0,0,188.88,153.87Zm-3.8-3.82-.81-2.5,2.13,1.53,2.13-1.54-.8,2.5,2.12,1.55h-2.62l-.82,2.5-.82-2.5H183Z"/><path id="Path_30555" data-name="Path 30555" class="cls-2" d="M175.8,143.89l.34,2.81,9.82-7.15-2.57-1.19Z"/></g></g><g id="Group_6401" data-name="Group 6401"><g id="Group_6395" data-name="Group 6395"><path id="Path_30467-2" data-name="Path 30467-2" class="cls-3" d="M84.91,9.52a.55.55,0,0,0-.12.7,2.53,2.53,0,0,0,.6,2.8,4,4,0,0,0,3.83,1.52c.92,0,2.85-1.41,1.79-2.29-1-.65-5.13-3.27-6.1-2.73Zm.74,1.08c1.57.77,3.16,1.48,4.72,2.26l-.08,0,.12.07c-1.13,1.61-3.79.85-4.6-.74a1.27,1.27,0,0,1-.15-1.55Zm.18,1.58,0,0Z"/><path id="Path_30468-2" data-name="Path 30468-2" class="cls-3" d="M86.58,11a.88.88,0,0,0,.47,1.69.85.85,0,0,0,.37-.21c.67-.54,0-1.82-.84-1.48Z"/><path id="Path_30469-2" data-name="Path 30469-2" class="cls-3" d="M86,8.32c-.54.15-.52.92-.78,1.35a.34.34,0,0,0,.64.24C86,9.44,86.93,8.41,86,8.32Z"/><path id="Path_30470-2" data-name="Path 30470-2" class="cls-3" d="M88.12,9.14c-.51,0-.62.62-.84,1s-.31.91.23.87c.34-.08.42-.51.61-.76s.58-1,0-1.08Z"/><path id="Path_30471-2" data-name="Path 30471-2" class="cls-3" d="M89.78,9.92c-.34.05-1.38,1.41-.89,1.66s.64-.36.87-.63.7-1,0-1Z"/><path id="Path_30472-2" data-name="Path 30472-2" class="cls-3" d="M91.12,10.89c-.26.12-.37.41-.56.61s-.42.2-.52.42c-.07,1.4,2.6-1.13,1.08-1Z"/><path id="Path_30473-2" data-name="Path 30473-2" class="cls-3" d="M96.77.1a11.9,11.9,0,0,0-8,1.8c-1.84.94-3,2.72-4.42,4.18-.57.56-1,1.3-1.65,1.8A4.6,4.6,0,0,1,79.31,8C77.54,7.3,76,8,77.35,9.89c.41.45.88.81,1.3,1.25-.7,1-1.38,2-2,3-.4.61,0,1.05.52,1.36L79.58,17a14,14,0,0,1-3,.42.76.76,0,0,0-.75.15c-2.67,3.32-2.84,6.28,1,8.73-1.16,1.34-2.15,3-3.2,4.42-1.66,2.39-3.42,4.68-5.06,7.1a10.81,10.81,0,0,0-5.4.61c-.88.37-3.4.88-3.31,2,.2.86,1.71.81,2.41,1.16s1.66.56,2.47.9c2.07.81,4,1.84,6.08,2.68,3,1.12,5.92,2.24,8.9,3.29,1.56.45,2.91,1.76,3.48-.61A26.85,26.85,0,0,1,85.37,44a.77.77,0,0,0,.13-.51,115.89,115.89,0,0,0,8.9-12.64c3.42,5.05,10.55.37,13.48-3a15,15,0,0,0,2.74-4.26,18.84,18.84,0,0,0,1.16-5.69h0a19.65,19.65,0,0,0-1-6,25.84,25.84,0,0,1,3.48.6l0,0c2.56.4,4.91,1.57,7.55,1.3,2-.07,3.78-1.83,3.3-3.78-.51-1.71-3.7-3.14-5.35-3.46a15.48,15.48,0,0,0-7.27.73,6.81,6.81,0,0,0-3.08,1.54,18.56,18.56,0,0,0-6.46-6.21C101,1.44,99,.22,96.77.1ZM93,1.82a.65.65,0,0,0,.45-.16,10.3,10.3,0,0,1,3.91,2c2.2,1.4,3.91,3.8,3.58,6.5.2,3-1.38,4.34-2.53,6.83-.13.15-.21.25-.3.37-1.43-1-3.09-1.69-4.41-2.85,1.2-2.08,1.6-5.1-.24-6.93A6,6,0,0,0,86.8,5.68a14.33,14.33,0,0,1,3.33-2.83c.92-.41,1.93-1.42,2.88-1ZM88,16.47A5.59,5.59,0,0,1,84.12,14a5.28,5.28,0,0,1,0-4.43c1.2-2.82,5.15-3.5,7.46-1.66l0,0a4.25,4.25,0,0,1,1.16,5.8c-1.15,2-2.43,2.95-4.75,2.84Zm-11.5,2c.92-.11,4.48-.33,4.2-1.65a17.3,17.3,0,0,0-3.06-2.24c2.52-4.2,3-2.8.47-5.62a6.15,6.15,0,0,0,4.76.26,5.6,5.6,0,0,0,1.8,7.71,5.67,5.67,0,0,0,3.13.84c2.26-.12,3.74-.36,5.21-2.26a21,21,0,0,0,3.4,2.2A11.91,11.91,0,0,0,98.84,19c.86.55,1.74,1.07,2.59,1.65a2.4,2.4,0,0,1-1.91,2.4c-.87.32-2-.3-2.67.52-1.52,1.61-3.16,3.5-2.88,5.94-3.23,4.35-6.6,8.55-9.7,13-1.92-.57-3.7-1-5.66-1.55-2.85-1-5.69-2-8.61-2.77,2-2.86,4-5.65,5.91-8.56.71-1.1,1.54-2.15,2.27-3.21.25-2-5.55-2.18-1.69-8Zm5.27,29.35c-3.71-1.4-7.81-2.75-11.42-4.2-2.68-1.18-5.33-2.3-8.1-3.25a12.46,12.46,0,0,1,5.62-1,52.54,52.54,0,0,1,6.86,1.94c3,1.15,6,1.78,9.09,2.7-.17.29-.32.55-.47.83h0c-.54,1-1.13,2-1.58,3Z"/></g><g id="Group_6396" data-name="Group 6396"><path id="Path_30474-2" data-name="Path 30474-2" class="cls-3" d="M172.39,59.72c-.21.14-.63,1.54-.16,1.54s.27-.62.4-.9.19-.76-.24-.64Z"/><path id="Path_30475-2" data-name="Path 30475-2" class="cls-3" d="M173.85,60.16a9.89,9.89,0,0,0-.28,1,.31.31,0,0,0,.27.32h0l.14,0c.22-.1.19-.4.27-.6h0a.5.5,0,0,1,0-.12s0,.05,0,.08c0-.26.31-.65,0-.8a.28.28,0,0,0-.37.16Zm.38.74v0Zm0,0v0Z"/><path id="Path_30476-2" data-name="Path 30476-2" class="cls-3" d="M175.49,60.24c-.08.33-.23.66-.29,1s.56.29.53-.1.44-.82.08-1a.24.24,0,0,0-.32.14Z"/><path id="Path_30477-2" data-name="Path 30477-2" class="cls-3" d="M177.18,60.09c-.54-.11-.8,1.52-.2,1.53.4,0,.43-.4.46-.69s.19-.79-.26-.85Z"/><path id="Path_30478-2" data-name="Path 30478-2" class="cls-3" d="M177.86,53.84c-1.74,0-4.18.07-5.1,1.79-1.2,1.2,2.12,2.1,3,1.93a4.73,4.73,0,0,0,3.79-1.49c1.74-1.42-.4-2-1.67-2.23Zm-.35.9a5.63,5.63,0,0,1,1.67.43,3.94,3.94,0,0,1-2.91,1.31c-.92.08-2.39.21-2.93-.61.92-1.28,2.77-1,4.17-1.13Zm-1.65,2.81h0Z"/><path id="Path_30479-2" data-name="Path 30479-2" class="cls-3" d="M181.68,53.84c-.65.35-1.34.59-2,.94a.39.39,0,0,0-.2.52.45.45,0,0,0,.21.2c.46.07.86-.38,1.31-.47s1-.26,1.21-.65a.41.41,0,0,0-.24-.54.37.37,0,0,0-.31,0Z"/><path id="Path_30480-2" data-name="Path 30480-2" class="cls-3" d="M180.75,53c-.5,0-2.22.88-1.85,1.48a.34.34,0,0,0,.5.06h0a5,5,0,0,1,1.52-1,.31.31,0,0,0,0-.44.31.31,0,0,0-.21-.11Z"/><path id="Path_30481-2" data-name="Path 30481-2" class="cls-3" d="M178.75,52.94c-.42.28-1.81.77-1.58,1.36.35.33.7-.32,1-.44s1.06-.28.93-.77a.29.29,0,0,0-.38-.16h0Z"/><path id="Path_30482-2" data-name="Path 30482-2" class="cls-3" d="M175.43,54.41a1,1,0,0,0-.81.42A.93.93,0,0,0,174,56a.94.94,0,0,0,1,.63c1.23.05,1.92-2.1.43-2.24Zm-.15.78.09.11h0Z"/><path id="Path_30483-2" data-name="Path 30483-2" class="cls-3" d="M178.37,49a9.17,9.17,0,0,0-4.61.44c-.39.16-1,.15-1.16.6-.24,1,.83.9,1.43.6l-.15.05a11.53,11.53,0,0,1,8.29.54h0a.41.41,0,0,0,.55-.2.46.46,0,0,0,0-.23c-.59-1.12-3.17-1.54-4.37-1.79Zm2.24,1.68.07,0Zm-6.86-1.24-.12,0Z"/><path id="Path_30484-2" data-name="Path 30484-2" class="cls-3" d="M191.54,36.22c-3.84-.74-8.07-1-11.78.51a15.48,15.48,0,0,0-5,2.49,6.45,6.45,0,0,0-.65.63c-.23.19-.5.35-.53.69-.07.65.62.71,1.08.83a24.73,24.73,0,0,0-3.8,7.13c-1.34,4.33-2.38,8.81-7,10.74h0a6.73,6.73,0,0,0-1.18,1l0,0a1.54,1.54,0,0,0-.23,2.16,1.51,1.51,0,0,0,1.17.56,12.6,12.6,0,0,0,3.13.12H167c-.26,1.47-.83,3.18-.24,4.61.32.92,3,.7,3.94.91a4.53,4.53,0,0,1-.63.45h0a9.42,9.42,0,0,1-1.85.78c-1.7,0-.78,3.18-.49,4.14.57,2.58,3,4.36,5.51,4.94a13,13,0,0,1,0,3.18c-.06,2.46,0,5.15-.24,7.61,0,1.87.25,3.8.4,5.67a.87.87,0,0,0,1.65.27c.1-1.55-.15-3.14-.16-4.7,0-2.19.29-4.37.12-6.56s.3-4.4-.5-6.4c-.28-1.12-1.78-.82-2.59-1.45a6.07,6.07,0,0,1-2.74-3.22c-.35-.82-.84-1.88-.48-2.73.84-.07,4.36-2,2.78-2.87-1.24-.18-2.56-.25-3.74-.43,0,0,0,0,0,0,.09-1.19.32-2.36.45-3.52.06-.64.53-1.66-.4-1.8h0c-1.46-.38-3.07.33-4.44-.37h0a.17.17,0,0,1,0-.07h0c.8-1.18,2.55-1.36,3.62-2.22A13,13,0,0,0,170,55.47l0,.06c1.43-2.52,2-5.26,2.82-8a20.79,20.79,0,0,1,3.44-5.8h0a38,38,0,0,1,3.84.65c.61.06,1.21.55,1.82.35a33,33,0,0,1,5.43,1.54c-.61,3.37-.8,6.77-1.13,10.17a179.09,179.09,0,0,0-2.26,25c-.11,2.73-.27,5.44-.18,8.18-.15,2.51-.68,5.2-.24,7.72.14.93,1.12,1.08,1.93,1.16a23.06,23.06,0,0,0,3.1.4c2.35.33,4.64,1,7,1.31a17,17,0,0,0,3.32.54c.73.31,2.12.62,2.28-.48.31-1.7.76-3.35,1.08-5,.44-2.15.71-4.35,1-6.5a62.77,62.77,0,0,0,1-6.55c.18-2.44.43-5.13.68-7.46.16-1.82,0-3.6.22-5.43.14-1.24.26-2.54.35-3.76,0-2.66.71-5.66.42-8.33-.3-2.1.07-4.28-.6-6.32a16,16,0,0,0-2.82-6.31,19.28,19.28,0,0,0-11-6.37Z"/><path id="Path_30485-2" data-name="Path 30485-2" class="cls-3" d="M184.17,90.39c-4.36,2.11-9,3.62-13,6.48a10.76,10.76,0,0,0-2.74,2.6c-.47.79-1.78,1.41-1.54,2.44.36.76,1.29.36,1.65-.17l-.14.14c1.17-1.1,2.05-2.52,3.39-3.45A38.7,38.7,0,0,1,177.47,95c2.35-1.25,4.87-2.16,7.23-3.4a.66.66,0,0,0,.35-.88.67.67,0,0,0-.88-.34Z"/><path id="Path_30486-2" data-name="Path 30486-2" class="cls-3" d="M196.59,96.8c-.7.32-.4,1.24-.53,1.85-.06,1.2-.24,2.38-.33,3.57-4.7-1.32-9.64-.89-14.45-.59-4.08.21-8.16,0-12.24.1h0a9,9,0,0,0-1.56.1h0c-1.48,1.56,4.4,1,5.13,1.22A79.91,79.91,0,0,0,184,103h-.09a49.13,49.13,0,0,1,8.13.34,27.78,27.78,0,0,0,4.16.59c1.19-.24.92-1.74,1-2.64s.16-1.91.28-2.86c.21-.73.13-2-.95-1.65Z"/></g><g id="Group_6398" data-name="Group 6398"><path id="Path_30488-2" data-name="Path 30488-2" class="cls-3" d="M216.38,125.24c-.72.21-.34,1.6.3,1.74C218.25,127.19,217.84,124.47,216.38,125.24Z"/><path id="Path_30489-2" data-name="Path 30489-2" class="cls-3" d="M216.55,119.81a4,4,0,0,0-3.45,4.48,3.4,3.4,0,0,0,.09.46.38.38,0,0,0,.5.19.4.4,0,0,0,.21-.42,3,3,0,0,1,1.63-3.08,7.89,7.89,0,0,1,1.91-.49C218.17,120.31,217.25,119.67,216.55,119.81Z"/><path id="Path_30490-2" data-name="Path 30490-2" class="cls-3" d="M216,126.22c-.37.07-1.49-.15-1.06.54.33.23.73,0,1.09,0a.28.28,0,0,0,.24-.29.27.27,0,0,0-.27-.24Z"/><path id="Path_30491-2" data-name="Path 30491-2" class="cls-3" d="M215,124.67c-.58.52,1,.9,1.09.44s-.5-.3-.76-.41A.31.31,0,0,0,215,124.67Z"/><path id="Path_30492-2" data-name="Path 30492-2" class="cls-3" d="M215.93,123c-.55.13.13,1.49.54,1.31C217,124.17,216.34,122.79,215.93,123Z"/><path id="Path_30493-2" data-name="Path 30493-2" class="cls-3" d="M217.31,122.11c-.43.2-.23.78-.26,1.16a.38.38,0,0,0,.39.35c.55-.08.32-.82.31-1.2v0a.35.35,0,0,0-.36-.32l-.08,0Z"/><g id="Group_6397" data-name="Group 6397"><path id="Path_30487-2" data-name="Path 30487-2" class="cls-3" d="M217.27,125.09c-2,0-3.22,3.23-1.44,4.34C217.92,130,220.6,124.78,217.27,125.09Zm.21,1.06a.94.94,0,0,1,.41,0c0,1-.74,2.53-1.82,2.56-.88-.88.28-2.6,1.41-2.57Zm.33.67v0Z"/><path id="Path_30494-2" data-name="Path 30494-2" class="cls-3" d="M218.08,124.41c-.49.21-.71,1.48.1,1.3C218.69,125.49,218.92,124.23,218.08,124.41Z"/><path id="Path_30495-2" data-name="Path 30495-2" class="cls-3" d="M222.66,106.91c-4.29.06-8.26,3.15-10.74,6.48a10.33,10.33,0,0,0-1.83,3.66,16.74,16.74,0,0,0-1.11,3.52c-.5,2.74.63,5.6,2,8,1.69,2.58,3.25,4,3.06,7.3h0a3.73,3.73,0,0,0,0,1.29v-.05c.33,2,2.84.64,3.43-.43.4.41.88,1,1.44,1a6.25,6.25,0,0,0,2.65-1.94,9.58,9.58,0,0,0,.19,3c1.46,2.77,4.91,2.32,7,.48,1.51,1.58,3.25,2.9,4.75,4.49a38.66,38.66,0,0,0,4,3.73c.71.42,1.51,1.93,2.4,1.2.63-.88-.78-1.32-1.24-1.87l-1.32-1.19c-2.29-2-4.2-4.38-6.62-6.3-.92-.68-1.8-2.2-3-1a4.08,4.08,0,0,1-3.61,1.14c-.61-.29-1.5-.58-1.63-1.32h0c-.32-.93.78-4-.85-3.85-1,.6-1.65,1.69-2.74,2.22a8.75,8.75,0,0,1-1.06-1.13c-1.08-.9-1.68,2.12-2.92,2a1,1,0,0,1,0-.67c1.49-4-1.29-6.45-3-9.65l0,.07a15.38,15.38,0,0,1-1.77-5.87c1.17-3,4-5.36,7.26-5.28,2.06,0,3.42,1.58,4.75,3,.66,1,1.46,1.23,2.32.29s2.56-1.47,3.45-.26c1.46,1.75.15,2.71.45,4.3,1.58,3,4.1,6.52,7.91,6.5a3.68,3.68,0,0,0,3.86-3.51h0a1.93,1.93,0,0,0,0-.34,7.65,7.65,0,0,0-1-5,26.84,26.84,0,0,0-5-7.42v0c-2.06-2.58-8.21-6.61-11.55-6.57Z"/><path id="Path_30496-2" data-name="Path 30496-2" class="cls-3" d="M236.77,128.43c-.4.77.36,1.19.85,1.62a51.79,51.79,0,0,0,5.16,5.52c.51.35,1,1.1,1.68.93a.71.71,0,0,0,.44-.88l-.07-.15c-.68-.76-1.36-1.53-2-2.35-.92-1.2-2-2.3-3-3.43-.74-.75-2.09-2.72-3.09-1.26Zm1.68,2.58,0,.06Z"/><path id="Path_30497-2" data-name="Path 30497-2" class="cls-3" d="M244.61,135a.9.9,0,0,0-.83.76l.05-.15a42.48,42.48,0,0,1-1.76,5l0-.13c-.69,2.17-4.35,9.69-3.5,11.44a24.33,24.33,0,0,0,2.83,3c1.15,1.1,1.72,1,2-.63v0c1-2.58,1.9-5.15,2.67-7.78l0,.13a103.38,103.38,0,0,1,4.22-10.21c.78-1.57-4.74-1.27-5.66-1.5Zm.82,1.25a25.82,25.82,0,0,1,3.62.26c-1.2,2.67-2.33,5.4-3.41,8.12-1.07,3.24-2,6.5-3.26,9.67a35.16,35.16,0,0,1-2.76-3c1-4.78,3.25-9.15,4.79-13.74l0,.14c.18-.5.3-1,.51-1.5H245l.46,0ZM242,140.91l0,.08Zm3.29,4.85v0Zm-2.49,7.43,0-.09Zm0-.09v0Zm3.48-7.06,0,.09,0-.13v0Z"/><path id="Path_30498-2" data-name="Path 30498-2" class="cls-3" d="M241.71,121.36c-2,.24-3.89,2.31-2.57,4.27-.35,1.43,1.65,1.8,2.7,1.86,4.35-.1,4.44-6.45-.13-6.13Z"/><path id="Path_30499-2" data-name="Path 30499-2" class="cls-3" d="M246.36,121.43c-5.32,1-2.55,6.26,1.75,5.1C252.06,124.91,250.34,120.58,246.36,121.43Zm1,3h0Z"/><path id="Path_30500-2" data-name="Path 30500-2" class="cls-3" d="M252.53,118.67a4.6,4.6,0,0,0-3.91,3.48c.17,2.9,3.43,2.8,4.93.9,1.66-1.54,2-4.73-1-4.38Z"/><path id="Path_30501-2" data-name="Path 30501-2" class="cls-3" d="M255,113.82a5.38,5.38,0,0,0-3,4.61c0,1.82,2.44,2.3,3.36.87s1.81-2.68,1.88-4.24a1.5,1.5,0,0,0-1.57-1.43A1.48,1.48,0,0,0,255,113.82Z"/><path id="Path_30502-2" data-name="Path 30502-2" class="cls-3" d="M256.63,108c-2.13.65-3.65,5.48-1.46,6.71.87,2.62,4.28-3.19,4-4.37a2,2,0,0,0-1.54-2.37,2,2,0,0,0-1,0Z"/><path id="Path_30503-2" data-name="Path 30503-2" class="cls-3" d="M257.1,102.75a2.42,2.42,0,0,0-2.1,1.39c-.62,1.66-.66,4.72,1.3,5.47,2.93.51,4.05-6.79.79-6.86Z"/><path id="Path_30504-2" data-name="Path 30504-2" class="cls-3" d="M256.32,92.5a4.14,4.14,0,0,0-.28,1c-.67-1.55-2.66-1.89-3.07,0a11.93,11.93,0,0,0,1.3,7.64l-.06-.12.07.14,0,0,.06.12h0l.05.11,0-.07c.62,1,1.35,3.37,2.84,2.9a1.2,1.2,0,0,0,1.38-1,.77.77,0,0,0,0-.15c.2-1.32.44-2.63.72-3.94.37-1.8,1.81-3.38,1.66-5.26-.41-1.55-2-.74-2.47.31a9.21,9.21,0,0,0-.05-1.82c-.31-1.3-1.76-1-2.13.1Zm1.05,0,0,0Zm-3,8.78h0l0,0,0,0v0Zm0,0,0-.07Zm0-.09v0Z"/><path id="Path_30522-2" data-name="Path 30522-2" class="cls-3" d="M217.35,131.25c-.23.44.85,1,1.07.55S217.57,130.78,217.35,131.25Z"/><path id="Path_30523-2" data-name="Path 30523-2" class="cls-3" d="M218.16,130.32c-.17.34.59.7.76.37S218.33,130,218.16,130.32Z"/><path id="Path_30524-2" data-name="Path 30524-2" class="cls-3" d="M219.23,129.09c-.16.33.57.7.74.37S219.4,128.75,219.23,129.09Z"/><path id="Path_30525-2" data-name="Path 30525-2" class="cls-3" d="M220.1,127.42c-.69.14.27,1.09.6.74S220.38,127.5,220.1,127.42Z"/></g></g><g id="Group_6399" data-name="Group 6399"><path id="Path_30505-2" data-name="Path 30505-2" class="cls-3" d="M158.39,170a3.81,3.81,0,0,0-2.76.8.42.42,0,0,0,.46.7c.66-.67,1.62-.43,2.46-.39,3.81.21,6.41,3.48,9.46,5.36a5.28,5.28,0,0,0,6.38-.23c1-.71,1.56-2,2.74-2.39.78.29.72,1.55.46,2.25s-.11,1.49-.27,2.22c-.47,2.38,3.52,2.5,3.3,4.65-.32.83-1.05,1.66-.8,2.59.85,1.8,2.65-.71,3.71-.06a11.31,11.31,0,0,1,3.37,7.78c.08,2.85-1.33,5.33-2.53,7.81-.38,2.24,1.41,4.27,2.32,6.21a55.53,55.53,0,0,0,8,11,31.93,31.93,0,0,0,4.74,4.1.85.85,0,0,0,1-.67.87.87,0,0,0-.12-.63,10.4,10.4,0,0,0-1.11-1.09,65.11,65.11,0,0,1-12.62-16.47h0c-1-1.73-.68-2,.27-3.63a15.08,15.08,0,0,0,1.7-7c-.25-3.13-1.84-7-4.63-8.63-1.26-.68-2.18.75-3.27,1.07.06-.84.9-1.49,1.11-2.32.6-2.08-1.69-3.08-2.83-4.32.12-2.07,1.13-4.93-1.06-6.29-2.94-.87-3.86,3.6-6.72,3.41-2.38-.31-3.95-2.25-5.85-3.5s-4.39-2.6-6.91-2.34Z"/><path id="Path_30506-2" data-name="Path 30506-2" class="cls-3" d="M172.21,213.61a.86.86,0,0,0-.25,1.16c.78,1.17,1.53,2.36,2.28,3.55,1.17,1.76,2.41,3.49,3.7,5.18.69.85,9.45,13,8.88,7.82a113.62,113.62,0,0,1-10.39-13c-.84-1.13-1.6-2.32-2.39-3.49-.44-.6-.9-1.82-1.84-1.26Z"/><path id="Path_30507-2" data-name="Path 30507-2" class="cls-3" d="M162.23,168.13c-3.78,0-3.72,1.47-6.46,2.08-3.86.71-5.63,4.6-7.25,7.75-.75,2.14-1.24,4.38-2.51,6.3-.77,1.56-2,2.83-2.69,4.46a13.44,13.44,0,0,0-.18,8.59c.53,2,1.67,3.89,1.41,6-.86,4.07-3,7.75-.06,11.61,1.24,1.81,3.09,3.14,4,5.19.9,1.76.73,3.76.79,5.66.3,2.54,1.07,5.23,3.12,6.92,3.4,3,7.44-.31,10.37-2.37,4.3-2.7,7.36-6,8.34-11.1a38,38,0,0,1,2.44-5c.84-1,1.63-2,2.37-3.11,1.05-2.63,1.68-5.8,0-8.29-2.91-4.66-7.7-.7-8.45-4.45-.61-2.46-.41-5.25-2-7.38-2-3.59-8.06-2.05-8.74-6.38-1.06-4.14,5.23-10.2,1.41-13.63a6.49,6.49,0,0,1,6-1.18c2,.74,3.46,2.88,5.8,2.54,2.86-.34,5.4-3,8.43-1.88,1.23.62,1.61,2.13,2.54,3.07,2.72,2.56,7.15-6,8.85,3.76.38,1.69,2,2,3.15,2.94,1.17,1.22.11,3-.17,4.37a33.94,33.94,0,0,1-4.57,6.87v0c-1.62,1.54.34,3,1.37,1l0,.07c2.61-3.07,8.1-10.22,4.25-13.91-2.71-1.38-2.28-1.75-3-4.51-1.66-4.47-5.12-3.35-8.49-1.62-.92-.56-1.18-1.92-2-2.65-1.4-1.65-4-1.56-5.87-.93-2,.48-3.75,2.33-5.91,1.78-1.95-1.1-3.8-2.71-6.18-2.63Zm-5.45,3.42.09,0c1.6,1.06.94,2.89.37,4.35a27.22,27.22,0,0,1-1.57,4,8.1,8.1,0,0,0,.29,7.56c3.41,4,7.94,1.57,8.89,8.61.47,3.63,1.23,6.48,5.54,6.1,5-.07,5.83,4.71,3.86,8.43a23.54,23.54,0,0,0-4.6,6.93c-.82,1.84-1.19,3.83-2.22,5.58-1.74,3.17-5.06,5-7.87,7.1-4.51,3.81-7.55,1.48-8.47-3.77-.19-3.33,0-6.25-2.25-9-1.14-1.56-2.77-2.74-3.59-4.53-2-3.66,1.62-7.31.94-11.1-.69-3.22-2.46-6.27-2-9.68.05-3.56,3-6,4.31-9.14.73-1.5.89-3.21,1.61-4.71,1.22-2.2,2.33-4.72,4.61-6h0a8.13,8.13,0,0,1,2.1-.71Zm25.55,1h0Z"/><path id="Path_30508-2" data-name="Path 30508-2" class="cls-3" d="M168.62,179.55a4.11,4.11,0,0,0-3.28,4.8,2.74,2.74,0,0,0,.09.39c.28.76.88,2.1,1.89,1.63,1.26-1.26,1.48-3.28,2.47-4.76.27-.56,1.05-1.82-.08-1.88a2,2,0,0,0-1.09-.18Zm.36.92c-.9,1.48-1.23,3.22-2,4.75a3.18,3.18,0,0,1,1.11-4.38A3.22,3.22,0,0,1,169,180.47Z"/><path id="Path_30509-2" data-name="Path 30509-2" class="cls-3" d="M168.39,180.57a1.07,1.07,0,0,0-.38.2c-1.45-.44-.75,2.24.43,1.64.88-.26,1.17-2.07-.06-1.84Z"/><path id="Path_30510-2" data-name="Path 30510-2" class="cls-3" d="M168.48,180c-1.44.14-1.6,2-.07,1.79C169.75,181.65,170,179.84,168.48,180Z"/><path id="Path_30511-2" data-name="Path 30511-2" class="cls-3" d="M164.33,176.43a7.63,7.63,0,0,0-4,5.78c-.12,1.3-.67,2.8,0,4a.56.56,0,0,0,.77-.06.64.64,0,0,0,.13-.37,5.45,5.45,0,0,1,.2-2.86A6.89,6.89,0,0,1,163.2,179c.53-.82,1.62-1.14,2.07-2a.63.63,0,0,0-.5-.73.58.58,0,0,0-.44.09Zm-1.87,3.6v0Zm-2.32,5.7v0Z"/><path id="Path_30512-2" data-name="Path 30512-2" class="cls-3" d="M166,185.26c-.48.44-1.21.67-1.56,1.22.16,1,1.15-.29,1.52-.56.13-.14.35-.22.41-.41a.24.24,0,0,0-.2-.29.25.25,0,0,0-.17,0Z"/><path id="Path_30513-2" data-name="Path 30513-2" class="cls-3" d="M165.5,183.68a5.35,5.35,0,0,1-1.49.65c-.7,1.2,1.5.25,1.85-.1a.33.33,0,0,0,.1-.46.34.34,0,0,0-.46-.09Z"/><path id="Path_30514-2" data-name="Path 30514-2" class="cls-3" d="M164.16,181.94c-.19.45.38.6.71.69s.73.37,1.12.33a.4.4,0,0,0,.25-.51.38.38,0,0,0-.2-.23c-.56-.11-1.4-.82-1.88-.29Z"/><path id="Path_30515-2" data-name="Path 30515-2" class="cls-3" d="M165.54,179.8c-.67.26.8,1.31,1.06,1.47.52-.15-.11-.61-.27-.82s-.43-.7-.79-.65Zm.45.3,0,0Z"/><path id="Path_30516-2" data-name="Path 30516-2" class="cls-3" d="M167.11,178.72c-.8.13.23,1.65.47,2a.33.33,0,0,0,.42-.16.28.28,0,0,0,0-.22c-.31-.45-.35-1.49-.9-1.62Z"/><path id="Path_30517-2" data-name="Path 30517-2" class="cls-3" d="M169.06,178.38c-.69.16.07,1.34.07,1.82a.28.28,0,0,0,.37.17.29.29,0,0,0,.18-.35C169.42,179.54,169.68,178.53,169.06,178.38Z"/><path id="Path_30518-2" data-name="Path 30518-2" class="cls-3" d="M169.21,188.71c-.12.54,1.28.86,1.39.31S169.28,188.15,169.21,188.71Z"/><path id="Path_30519-2" data-name="Path 30519-2" class="cls-3" d="M170.11,187.26c-.1.5,1,.67,1.11.21S170.22,186.79,170.11,187.26Z"/><path id="Path_30520-2" data-name="Path 30520-2" class="cls-3" d="M170.63,185.41c-.36.5,1,1.3,1.22.65.07-.38-.34-.38-.58-.49S170.85,185.16,170.63,185.41Z"/><path id="Path_30521-2" data-name="Path 30521-2" class="cls-3" d="M171.76,183.73c-.93.43.69,1.4,1,.78S172.16,183.7,171.76,183.73Z"/><path id="Path_30526-2" data-name="Path 30526-2" class="cls-3" d="M156,171.36a.37.37,0,0,0-.34.39.33.33,0,0,0,.12.25c1.08,1.18-.54,2.7-1,3.85a26.15,26.15,0,0,1-1.25,2.48c-1.64,3.92-.93,10.1,3.7,11.54a5.45,5.45,0,0,1,4.36,5.37c.43,15.33,7.06,7.08,12,11.09.91.65,1.22,2,2.21,2.49a.52.52,0,0,0,.59-.41.49.49,0,0,0-.16-.46,26.09,26.09,0,0,0-1.83-2.36c-6.25-5.2-11.34,4.92-12-11.5-.84-5.55-5.65-4.07-7.73-7.26-4.36-6.87,5.17-13.34,1.31-15.47Zm5.42,22.51v0Z"/><path id="Path_30527-2" data-name="Path 30527-2" class="cls-3" d="M153.65,171.56c-.8.62.59,1.49-.25,3.05l0-.07c-.59,2.12-2.17,3.76-2.94,5.8-1.54,5.64,1.08,8.51,5.59,11.35,2.36,2,1.73,5.55,2,8.34a8.12,8.12,0,0,0,7.46,8.69c2.26.41,4.81-.65,6.85.65a5.25,5.25,0,0,1,2,2.78c1.14.84-.25-1.86-.39-2.14a4.4,4.4,0,0,0-1.56-1.56c-2.52-1.44-5.67-.19-8.36-1.22-6.28-2-4.22-8.31-5.19-13.24-.81-4.5-6.65-4.43-7.46-9.11a8.11,8.11,0,0,1,1.64-6.46c1-1.82,2.39-3.94,1.79-6.08-.15-.5-.61-1.14-1.18-.77Z"/><path id="Path_30528-2" data-name="Path 30528-2" class="cls-3" d="M151,175.46c-2.46,3.39-5.71,8.13-2.87,12.21,1.24,1.49,3,2.53,3.85,4.34.72,2.86-.24,5.82-1,8.6a19.66,19.66,0,0,0-.27,6.84c.58,3,2.86,4.86,4.93,6.83,3.49,3.78-2.06,8.62,1,13.81.64,1.35,2,2.73,3.58,2.75a.53.53,0,0,0,.32-.66.53.53,0,0,0-.37-.33,4.18,4.18,0,0,1-2.63-2.4c-2.47-4.35,2.71-9.32-.33-13.44-1.88-2.39-4.87-3.9-5.35-7.2-.84-5.13,2.76-10,1.37-15.1-1.06-2.66-4.39-3.53-5.25-6.26-.85-3.16,1.2-6.21,2.78-8.79.27-.45,1.11-1.5.23-1.2Zm.24.46,0,0Zm-.59.05v0Zm-2.32,5.24,0,.07Zm-.49,3.59v0Z"/><path id="Path_30529-2" data-name="Path 30529-2" class="cls-3" d="M150.85,189c-.59.52.37,1.21.75,1.56,4.68,3.65,1.28,8.74,1.92,13.46.28,4.37,4,4.83,5.83,8,2.54,4.94-1.41,11.27,2.44,15.78.59.58,2.08,1.81,2.61.66.13-.72-.71-.67-1.12-1-4.5-4,.16-11.29-3.07-16.13-2.07-3.38-6-3.66-5.78-8.48-.22-2.34,1-4.5.84-6.82a7.83,7.83,0,0,0-3.08-6.2c-.5-.22-.71-1.2-1.34-.89Z"/><path id="Path_30530-2" data-name="Path 30530-2" class="cls-3" d="M149.83,188.59c-.25.61,1.6,1.3,2.06,1.58a9.78,9.78,0,0,1,3.61,4c1.15,2.53.5,5.45.75,8.15-.36,2.38.95,4.46,2.41,6.21,1.17,1.13,2.8,1.67,3.92,2.85,2.42,3,.91,7.35,4,10.65.4.59,1.67,1.86,1.92.53a.58.58,0,0,0-.19-.39,6.15,6.15,0,0,1-1.71-2.2c-1.78-3.23-.56-7.78-3.78-10.21-1.08-.79-2.35-1.3-3.36-2.18-1.17-1.46-2.38-3.1-2.08-5.06-.25-3.58.59-7.75-2.2-10.55a8.52,8.52,0,0,0-3.73-2.82c-.52-.15-1.2-1.09-1.67-.51Zm15.4,25.58,0,.1,0-.16v.06Z"/><path id="Path_30531-2" data-name="Path 30531-2" class="cls-3" d="M161.27,209c-.5.82,2.95,2.1,3.56,2.53,1.94,1.84,2.94,4.47,4.3,6.73a.62.62,0,0,0,.83.28.57.57,0,0,0,.26-.25c.23-.65-.56-1.14-.76-1.72a20.82,20.82,0,0,0-3.88-5.59c-1.05-.61-2.24-1-3.27-1.6-.32-.17-.67-.74-1-.39Z"/><path id="Path_30532-2" data-name="Path 30532-2" class="cls-3" d="M161.6,209.54c.06.43,1.18.7,1.56,1,1.72.64,3.65.26,5.38,1,1.76.1,2.6,3.75,4,2.53.67-.84-.56-1.49-1-2.09a3.86,3.86,0,0,0-2.54-1.48c-1.91-.61-3.88.19-5.77-.3-.46-.05-1.32-.84-1.64-.61Z"/><path id="Path_30533-2" data-name="Path 30533-2" class="cls-3" d="M146.89,185.33c-2.65,2.15.17,5.24.7,7.73a22.57,22.57,0,0,1-1.5,12.42,7.92,7.92,0,0,0,.4,8.32c1.34,2.2,3.81,3.37,5.17,5.56,1.37,1.64,1.5,3.83,1.43,5.88a12.91,12.91,0,0,0,1.73,6.45c.51.7,2.4,2.81,2.77,1.13,0-.48-.54-.61-.86-.85a5.3,5.3,0,0,1-1.65-2c-1.08-2.27-1-4.76-.93-7.2,0-4.23-3.57-6.51-6.19-9.2a6.5,6.5,0,0,1-.8-7.32c2.37-6,3.45-12.16-.46-17.75a2.31,2.31,0,0,1,.52-2.72c.33-.19,0-.72-.32-.49Zm7.34,41.83v0Z"/><path id="Path_30534-2" data-name="Path 30534-2" class="cls-3" d="M146.84,185.82c-1.91,1.6,1.94,4.86,2.62,6.42,1.4,3.24.68,6.85-.29,10.1h0c-5.36,13.8,6.52,10.9,5.49,19.7-.33,3-1.13,5.78,0,8.79.34.72.64,2.67,1.71,2.27a.53.53,0,0,0,.16-.74,7.19,7.19,0,0,1-1-2.09c-.91-2.7-.19-5.42.12-8.14,1.6-9.7-10.84-6.7-5.65-19.31l0,.07c1.11-3.43,1.84-7.25.46-10.72-.54-1.44-1.91-2.3-2.68-3.6-.36-.63-1.08-1.38-.77-2.14.44-.15.28-.83-.18-.6Zm8.47,43.31s0,.07,0,.1Z"/><path id="Path_30535-2" data-name="Path 30535-2" class="cls-3" d="M144.81,188.41c-1.87,1.6,1,5.36,1.29,7.35.4,3.31-.53,6.51-1.12,9.72,0,.41-.29,1.1.25,1.25a.44.44,0,0,0,.51-.33c.61-3.71,1.95-7.49,1.1-11.27-.5-1.63-1.5-3.08-1.9-4.74,0-.42-.23-1,0-1.34.48-.16.39-.88-.14-.64Zm.11.67h0Z"/><path id="Path_30536-2" data-name="Path 30536-2" class="cls-3" d="M159.8,169.34c-.08.7.84.51,1.28.66a8.28,8.28,0,0,1,3.71,2.12c2.78,2.06,6,2.84,8.85.44,1.25-.85,2.76-1.48,4.25-.84,1.2.05,1.76.94,2.46,1.76,1.68,1.51,2.71-.06,1.55-.57-1.07-.17-1.37-1.34-2.21-1.87-5.89-2.92-6.92,3.69-11.88,1.6l0,0c-2.29-.57-3.7-2.75-6-3.37-.58,0-1.77-.66-2.07.06Z"/><path id="Path_30537-2" data-name="Path 30537-2" class="cls-3" d="M177.57,173.28c-.11.37.47.36.67.55,2,1.62,2.24,5.11,5,5.72,1.85-.1,3.21-.28,4.88.84,2.16,1.53,1.26,4.68,3.23,6.52.64,1,2.46.67,1.6-.56-2.72-1.29-1.42-5.21-3.86-6.8-1.46-1-3.37-1.8-5.14-1.23-2.84.56-4-5.25-6.43-5Z"/><path id="Path_30538-2" data-name="Path 30538-2" class="cls-3" d="M178.81,171.13c-.3.38.23.64.44.9a6.16,6.16,0,0,1,.75,1.22c3.69,7.88,6.17-.86,10.62,5.18l0-.05c.46.39.8,1.52,1.56,1.1.74-.6-.31-1.37-.68-1.87l.1.12c-5.43-7.06-7.4,2-10.8-4.72-.35-.54-1.2-2.37-1.95-1.89Z"/><path id="Path_30539-2" data-name="Path 30539-2" class="cls-3" d="M183,172.6c-.95.3.1,1.1.66,1.08,1.49.2,3.08,0,4.47.72.94.19,1.69,2,2.39,1.66.66-.59-.48-1.19-.84-1.61-1.87-1.88-4.5-1-6.68-1.85Z"/><path id="Path_30540-2" data-name="Path 30540-2" class="cls-3" d="M188.46,175.69a.29.29,0,0,0-.19.37.33.33,0,0,0,.15.16c2.21.75,1.64,4.51,3.27,6.28a7.37,7.37,0,0,0,1.66,1.73A.46.46,0,0,0,194,184a.47.47,0,0,0-.11-.54c-.22-.17-.43-.35-.64-.53-2.63-1.92-1.78-6.78-4.77-7.26Z"/><path id="Path_30541-2" data-name="Path 30541-2" class="cls-3" d="M178.52,176.61c-.81.41,1.16,2.68,1.63,3,1.55,1.4,4,.78,5.51,2.32,1.44,2,1.84,4.51,3.34,6.46a3.66,3.66,0,0,0,1.39,1.26.64.64,0,0,0,.67-1c-2-1.56-2.79-4-3.84-6.25-1.41-3.33-6.19-1.54-7.74-4.68-.35-.34-.38-1.25-1-1.18Zm9.95,8.62,0,.05Zm.14.28,0,.07Z"/><path id="Path_30542-2" data-name="Path 30542-2" class="cls-3" d="M180.93,181.81a.43.43,0,0,0,.32.49c4.37.77,5.44,5.78,7.6,9,.51,1.07,2,.22,1-.57-1.4-1-1.89-2.94-2.69-4.42a12.7,12.7,0,0,0-2.38-3.08C184.37,182.52,181.33,180.82,180.93,181.81Zm4,2.87,0,0Z"/><path id="Path_30543-2" data-name="Path 30543-2" class="cls-3" d="M211.57,217.88a29.59,29.59,0,0,0-14.51,4.93c-2.81,2.12-5.44,4.5-8.3,6.59-6.81,5.61-7.37,4.53-3,12.79.27,1.08,1.4.54,2,0a42.18,42.18,0,0,0,4-3.21c2.68-2.37,5.59-4.48,8.45-6.62,4.32-3.21,9.26-5.54,13.2-9.26a40.43,40.43,0,0,0,3.09-2.91c1.72-2.87-3.26-2.45-4.86-2.34Zm3.05,1.77h.23a48.64,48.64,0,0,1-10.43,8l.05,0c-6.5,3.7-12,8.8-17.77,13.45-.64-1.7-2.51-4.26-2.07-6a74,74,0,0,1,6.93-5.56c2.25-1.66,4.36-3.5,6.61-5.17a30.83,30.83,0,0,1,16.45-4.65Zm-7,6-.08.05Z"/></g><g id="Group_6400" data-name="Group 6400"><path id="Path_30544-2" data-name="Path 30544-2" class="cls-3" d="M72.57,106a7.21,7.21,0,0,0-4.38,2.34c-1,1.16-1.86,2.45,0,3.26A5.11,5.11,0,0,0,74,109c.7-1.81,1.23-3.28-1.43-3Zm.85,1.12a.75.75,0,0,1,.24.08,3.31,3.31,0,0,1-.2.68h0c-.7,1.84-3.4,3.32-5.27,2.5a6.92,6.92,0,0,1,5.23-3.26Z"/><path id="Path_30545-2" data-name="Path 30545-2" class="cls-3" d="M71.89,107.49c-1.32.41-1.06,2.6.46,2.24C73.7,109.48,73.2,107.15,71.89,107.49Z"/><path id="Path_30546-2" data-name="Path 30546-2" class="cls-3" d="M65.7,109.63c-.25.59.6.69,1,.84s.68.37,1,.35c.71-.43-.36-.8-.72-1s-1-.72-1.3-.22Z"/><path id="Path_30547-2" data-name="Path 30547-2" class="cls-3" d="M67,107.87c-1.12.5.8,1.21,1.3,1.27a.29.29,0,0,0,.33-.2.29.29,0,0,0-.2-.34C67.88,108.57,67.54,108.05,67,107.87Z"/><path id="Path_30548-2" data-name="Path 30548-2" class="cls-3" d="M68.38,106.56c-.81.42.52,1.53,1,1.67.74-.15.24-.77-.14-1s-.44-.74-.85-.64Z"/><path id="Path_30549-2" data-name="Path 30549-2" class="cls-3" d="M70.07,105.33c-1,.26,0,1.46.3,2a.49.49,0,0,0,.84-.52c-.4-.45-.47-1.37-1.14-1.48Z"/><path id="Path_30550-2" data-name="Path 30550-2" class="cls-3" d="M71.82,104.87c-.77.22-.06,1.33,0,1.86a.38.38,0,0,0,.47.25.38.38,0,0,0,.26-.47h0c-.27-.49-.1-1.48-.73-1.64Z"/><path id="Path_30551-2" data-name="Path 30551-2" class="cls-3" d="M73.3,104.93c-.63,0-.24,1.61-.07,1.93C74.28,107.6,73.9,104.87,73.3,104.93Z"/><path id="Path_30552-2" data-name="Path 30552-2" class="cls-3" d="M71.12,101.13a11.58,11.58,0,0,0-6.68,3.74A10.78,10.78,0,0,0,63.05,107a.44.44,0,0,0,.19.6.47.47,0,0,0,.33,0c.43-.24.58-.81.9-1.18a13,13,0,0,1,6.5-3.79,8.55,8.55,0,0,0,1-.06.72.72,0,0,0,.48-.9.87.87,0,0,0-.07-.17c-.26-.44-.84-.34-1.27-.35Z"/><path id="Path_30553-2" data-name="Path 30553-2" class="cls-3" d="M66.14,91.55c-8.81.43-18.42,6.62-20.32,15.59a22.51,22.51,0,0,0-.43,4.56c-.24,3.59-4.58,5-4.9,8.6-1,5.21,4.56,7,2.57,11.61-1.12,2.72-3.81,4.25-5.16,6.78-2.75,6.2,1,11.83,6.61,14.68h0l0,0h0c3.17,2.63.46,7.08,1.15,10.49.64,7.77,8,11.61,15.19,9.95,6.72-1.37,12-6,11.53-13.26a35.56,35.56,0,0,0-.77-4.22,6.26,6.26,0,0,1,.23-5.05c1-1.64,2.34-3.26,2.47-5.23v.06c.51-3.06-1.55-5.92-4.23-7.1-1.84-.64-4.1-1.42-4-3.77-.14-2.41,1.82-4.57,1.74-7,.22-2.42-1.42-4.61-3.4-5.89-2.81-1.44-5.25-1.86-5.3-5.68,0-.53,0-1.12.62-1.33a3,3,0,0,1,.92-.4,3.36,3.36,0,0,1,1.41.1c1-.08.58-1.18.35-1.78a31.65,31.65,0,0,1-1.92-6.81c-.36-2.14-.44-3.45,1.72-4.56A90.18,90.18,0,0,0,71.4,96c3.28,3.28,2.9,9.4,8.34,10.16.94.35,2.63.21,3.15,1.07a7.69,7.69,0,0,1-2.72,1.85c-1.39.38-.66,1.73-.32,2.64.47,1.35,1,2.74,1.35,4.12-.6.32-1.23.6-1.84.9h0c-1.61.75-3.66,1.4-1.26,3l-.1-.07.1.07s0,0,0,0h0a4.65,4.65,0,0,0,2.73,1c.68,1.88.6,4.75-1.37,5.8-.83.46-1.88,0-2.63.53-.49.66.09,1.47.13,2.18.3,1.72.61,3.38.94,5.09.94,4.83,1.88,9.6,3.19,14.32.24.91.62,1.76.85,2.67a.74.74,0,0,0,.93.48.79.79,0,0,0,.41-.33.77.77,0,0,0,.06-.56,23.3,23.3,0,0,1-1.2-3.83c-1.52-6.33-2.88-12.73-4.21-19.1,4,.08,5.38-4.88,3.81-8,0,0,0,0,0,0-.51-.86-2.25-.21-3.14-1.21l-.05,0,.05,0-.32-.26c1-.54,2-1,2.9-1.52h0c1.38-.48,1.18-1.21.94-2.44a17.23,17.23,0,0,0-1.38-4.37c1.72-1,5.05-2.72,2.43-4.72-1.17-.7-2.66-.55-3.93-1a3.39,3.39,0,0,1-2.38-2.08c-1.58-3.27-2.65-7.2-5.85-9.28h0a1,1,0,0,0-.85-.54,8.44,8.44,0,0,0-4-1Z"/><path id="Path_30554-2" data-name="Path 30554-2" class="cls-3" d="M70.75,113.51c-.56.2.56,2.08,1,1.68s0-.7-.15-1-.38-.93-.85-.67Z"/><path id="Path_30555-2" data-name="Path 30555-2" class="cls-3" d="M71.91,112.91c-.4.27,0,.72.12,1s.56,1,.9.46c.15-.3-.14-.6-.25-.88s-.33-.87-.77-.61Z"/><path id="Path_30556" data-name="Path 30556" class="cls-3" d="M73.09,112.38c-.47.3.28,1.13.52,1.44a.22.22,0,0,0,.31-.31h0c-.35-.27-.41-1.14-.85-1.14Z"/><path id="Path_30557" data-name="Path 30557" class="cls-3" d="M74.22,111.73c-.44.24.52,1.88.83,1.09C75,112.54,74.61,111.45,74.22,111.73Z"/><path id="Path_30558" data-name="Path 30558" class="cls-3" d="M75.25,110.89c-.43.15.29,1.44.63,1.26C76.46,112,75.71,110.57,75.25,110.89Z"/><path id="Path_30559" data-name="Path 30559" class="cls-3" d="M87.78,149.52a58.83,58.83,0,0,0-10,3.5l.14-.07a49.82,49.82,0,0,0-7,3.42c-.49.45-1.73,1.15-1.11,1.9a.6.6,0,0,0,.85,0,4.13,4.13,0,0,1,1.63-1.13l-.09,0a124.68,124.68,0,0,1,15.7-5.7c2.1-.07,3,4,4.37,5.39-4,1.36-8.07,2.42-12.06,3.8-2.63,1.08-5.15,2.38-7.79,3.43-1.12.47-2.2,1-3.31,1.47-.51.23-1.38.45-1.19,1.18s1.15.34,1.67,0c.82-.4,1.66-.79,2.49-1.17,2.29-1,4.63-1.9,6.86-3l-.15.07c3.55-1.62,7.44-2.35,11.09-3.73,2.16-1,5.44-.46,3.27-3.73-1.23-2.2-2.25-5.68-5.28-5.67Zm-15.69,7.66-.06,0Zm1,7.93,0,0Zm4.59-12.06.07,0Z"/></g></g></g></g></svg>