<svg xmlns="http://www.w3.org/2000/svg" viewBox="0 0 209.22 241.9"><defs><style>.cls-1{fill:#fff;}</style></defs><g id="圖層_2" data-name="圖層 2"><g id="圖層_1-2" data-name="圖層 1"><g id="Group_6401" data-name="Group 6401"><g id="Group_6395" data-name="Group 6395"><path id="Path_30467-2" data-name="Path 30467-2" class="cls-1" d="M90.65,8.55a.55.55,0,0,0-.19.68,2.51,2.51,0,0,0,.33,2.84A4,4,0,0,0,94.47,14c.91.09,3-1.14,2-2.11-.93-.75-4.79-3.74-5.81-3.3Zm.64,1.15c1.48.91,3,1.77,4.47,2.7l-.07-.05.12.07c-1.28,1.51-3.86.49-4.51-1.17a1.25,1.25,0,0,1,0-1.55Zm0,1.59,0,0Z"/><path id="Path_30468-2" data-name="Path 30468-2" class="cls-1" d="M92.17,10.21a.88.88,0,1,0,.31,1.73.82.82,0,0,0,.39-.18c.71-.47.14-1.81-.7-1.55Z"/><path id="Path_30469-2" data-name="Path 30469-2" class="cls-1" d="M91.88,7.46c-.56.1-.61.87-.91,1.27a.35.35,0,0,0,.19.45A.35.35,0,0,0,91.59,9C91.71,8.57,92.76,7.63,91.88,7.46Z"/><path id="Path_30470-2" data-name="Path 30470-2" class="cls-1" d="M93.88,8.48c-.51-.06-.68.56-.93.89s-.4.87.15.88c.35,0,.46-.47.68-.7s.67-.9.1-1.07Z"/><path id="Path_30471-2" data-name="Path 30471-2" class="cls-1" d="M95.46,9.41c-.34,0-1.51,1.28-1,1.57s.68-.3.93-.54.8-.95.12-1Z"/><path id="Path_30472-2" data-name="Path 30472-2" class="cls-1" d="M96.7,10.51c-.27.09-.41.37-.61.55s-.45.16-.56.36c-.2,1.39,2.7-.88,1.17-.91Z"/><path id="Path_30473-2" data-name="Path 30473-2" class="cls-1" d="M103.35.29a11.9,11.9,0,0,0-8.1,1c-1.92.77-3.29,2.43-4.8,3.75-.62.5-1.15,1.2-1.81,1.63a4.6,4.6,0,0,1-3.42-.18C83.53,5.64,82,6.15,83.09,8.2c.36.49.8.89,1.18,1.37-.79.9-1.56,1.81-2.31,2.75-.45.58-.12,1,.39,1.41l2.28,1.79a14,14,0,0,1-3,.13.75.75,0,0,0-.75.08c-3,3.06-3.43,6,.17,8.78-1.28,1.23-2.42,2.75-3.6,4.11C75.53,30.84,73.56,33,71.7,35.2a10.74,10.74,0,0,0-5.43.1c-.91.28-3.47.56-3.49,1.7.12.89,1.62,1,2.29,1.39a25.71,25.71,0,0,1,2.37,1.13c2,1,3.83,2.22,5.79,3.24,2.84,1.39,5.69,2.8,8.55,4.13,1.51.59,2.74,2,3.52-.29a28.51,28.51,0,0,1,2.54-3.7.69.69,0,0,0,.17-.49A116.21,116.21,0,0,0,98.08,30.66C101,36,108.54,32,111.78,29a14.94,14.94,0,0,0,3.13-4,18.68,18.68,0,0,0,1.69-5.55h0a19.53,19.53,0,0,0-.44-6,26.67,26.67,0,0,1,3.4.92h0c2.51.64,4.74,2,7.39,2,2,.11,3.93-1.47,3.64-3.45-.34-1.76-3.38-3.48-5-4a15.4,15.4,0,0,0-7.3,0A6.67,6.67,0,0,0,115,10.17a18.67,18.67,0,0,0-5.84-6.79C107.45,2,105.57.63,103.35.3Zm-3.9,1.36a.69.69,0,0,0,.46-.11,10.36,10.36,0,0,1,3.7,2.38c2,1.61,3.53,4.16,3,6.81-.09,3-1.79,4.2-3.17,6.57-.14.13-.24.22-.34.33-1.32-1.17-2.91-2-4.12-3.25,1.39-2,2.08-4.93.42-6.92A6,6,0,0,0,92.9,4.91,14.36,14.36,0,0,1,96.48,2.4c1-.32,2-1.22,3-.75ZM93.06,15.76a5.62,5.62,0,0,1-3.62-2.87,5.33,5.33,0,0,1,.47-4.41c1.47-2.7,5.46-3,7.58-.94l0,0a4.25,4.25,0,0,1,.6,5.89c-1.33,1.88-2.69,2.7-5,2.37Zm-11.63.89c.92,0,4.49.1,4.34-1.24a17.9,17.9,0,0,0-2.83-2.53c2.9-3.94,3.26-2.5,1-5.55a6.11,6.11,0,0,0,4.72.72,5.6,5.6,0,0,0,4.09,9c2.27.09,3.76,0,5.41-1.76a21.39,21.39,0,0,0,3.17,2.52,12.58,12.58,0,0,0,2.29,1.54c.81.63,1.64,1.23,2.43,1.88a2.39,2.39,0,0,1-2.13,2.21c-.9.24-2-.48-2.71.26-1.66,1.47-3.48,3.2-3.42,5.65-3.64,4-7.38,7.88-10.9,12C85,40.61,83.29,40,81.4,39.29c-2.75-1.25-5.47-2.56-8.31-3.58,2.26-2.66,4.52-5.25,6.69-8,.81-1,1.74-2,2.57-3,.43-2-5.32-2.7-.93-8.12ZM83.9,46.37c-3.56-1.74-7.52-3.48-11-5.27-2.56-1.42-5.08-2.79-7.75-4a12.6,12.6,0,0,1,5.69-.48,54.74,54.74,0,0,1,6.65,2.58c2.83,1.43,5.85,2.35,8.79,3.55-.2.27-.37.52-.54.78h0c-.64.93-1.32,1.87-1.86,2.85Z"/></g><g id="Group_6396" data-name="Group 6396"><path id="Path_30474-2" data-name="Path 30474-2" class="cls-1" d="M175.63,78.43c-.2.15-.63,1.54-.16,1.54s.27-.62.4-.9.19-.76-.24-.64Z"/><path id="Path_30475-2" data-name="Path 30475-2" class="cls-1" d="M177.09,78.87a8.21,8.21,0,0,0-.27,1,.29.29,0,0,0,.26.32h0a.32.32,0,0,0,.14,0c.23-.1.2-.4.27-.6h0l0-.11s0,0,0,.07c0-.26.31-.65,0-.8a.29.29,0,0,0-.37.16Zm.38.74v0Zm0,0v0Z"/><path id="Path_30476-2" data-name="Path 30476-2" class="cls-1" d="M178.74,79a8.78,8.78,0,0,0-.29,1c0,.44.56.29.53-.1s.44-.82.07-1a.24.24,0,0,0-.31.14Z"/><path id="Path_30477-2" data-name="Path 30477-2" class="cls-1" d="M180.42,78.8c-.53-.11-.8,1.52-.2,1.53.4,0,.43-.4.46-.69s.19-.79-.26-.85Z"/><path id="Path_30478-2" data-name="Path 30478-2" class="cls-1" d="M181.1,72.55c-1.74,0-4.17.07-5.09,1.79-1.2,1.2,2.11,2.1,3,1.93a4.71,4.71,0,0,0,3.79-1.49c1.73-1.42-.4-2-1.67-2.23Zm-.34.9a6.13,6.13,0,0,1,1.67.43,4,4,0,0,1-2.92,1.31c-.91.08-2.39.21-2.93-.61.93-1.28,2.77-1,4.17-1.13Zm-1.66,2.81h0Z"/><path id="Path_30479-2" data-name="Path 30479-2" class="cls-1" d="M184.93,72.56c-.65.34-1.35.58-2,.93a.4.4,0,0,0,0,.72c.46.07.86-.38,1.31-.47s1-.26,1.22-.65a.42.42,0,0,0-.24-.54.42.42,0,0,0-.31,0Z"/><path id="Path_30480-2" data-name="Path 30480-2" class="cls-1" d="M184,71.75c-.5,0-2.22.89-1.85,1.49a.36.36,0,0,0,.5.06h0a5.08,5.08,0,0,1,1.52-1,.34.34,0,0,0,.05-.45.36.36,0,0,0-.21-.11Z"/><path id="Path_30481-2" data-name="Path 30481-2" class="cls-1" d="M182,71.65c-.41.29-1.81.77-1.58,1.36.35.33.7-.32,1-.44s1.06-.28.93-.77a.29.29,0,0,0-.38-.16h0Z"/><path id="Path_30482-2" data-name="Path 30482-2" class="cls-1" d="M178.68,73.12a1,1,0,0,0-.82.42.93.93,0,0,0-.58,1.19,1,1,0,0,0,1,.63c1.23.06,1.93-2.1.43-2.24Zm-.15.78.08.11h0Z"/><path id="Path_30483-2" data-name="Path 30483-2" class="cls-1" d="M181.62,67.73a9.38,9.38,0,0,0-4.61.44c-.4.16-1,.15-1.16.6-.25,1,.82.9,1.43.6l-.15,0a11.48,11.48,0,0,1,8.29.55h0a.42.42,0,0,0,.55-.21.36.36,0,0,0,0-.23c-.58-1.12-3.17-1.54-4.37-1.79Zm2.23,1.68.07,0ZM177,68.18l-.13,0Z"/><path id="Path_30484-2" data-name="Path 30484-2" class="cls-1" d="M194.78,54.93c-3.83-.74-8.06-1-11.78.51a15.79,15.79,0,0,0-5,2.49,6.34,6.34,0,0,0-.64.63c-.23.19-.5.36-.54.69-.07.65.62.71,1.09.83a24.25,24.25,0,0,0-3.8,7.13c-1.34,4.33-2.38,8.81-7,10.75h0a5.89,5.89,0,0,0-1.17.94l0,0a1.53,1.53,0,0,0-.22,2.16,1.49,1.49,0,0,0,1.16.56,12.64,12.64,0,0,0,3.13.12h.12c-.26,1.48-.83,3.18-.24,4.61.32.93,3,.7,3.94.91a4.53,4.53,0,0,1-.63.45h0a8.93,8.93,0,0,1-1.86.78c-1.7,0-.77,3.18-.49,4.14.57,2.58,3,4.36,5.51,4.94a12.09,12.09,0,0,1,0,3.18c-.05,2.46,0,5.15-.23,7.61,0,1.87.24,3.8.4,5.67a.86.86,0,0,0,1.64.27c.1-1.55-.15-3.14-.16-4.7,0-2.19.29-4.37.12-6.56s.3-4.4-.5-6.4c-.28-1.12-1.78-.82-2.58-1.45A6.08,6.08,0,0,1,172.38,92c-.34-.82-.84-1.88-.47-2.73.83-.07,4.35-2,2.78-2.87-1.24-.18-2.56-.25-3.75-.43,0,0,0,0,0,0,.08-1.19.31-2.35.44-3.52.06-.64.53-1.66-.4-1.8h0c-1.46-.38-3.07.33-4.44-.37h0a.15.15,0,0,1,0-.07h0c.8-1.18,2.56-1.35,3.62-2.22a13.34,13.34,0,0,0,3.06-3.71l0,.06c1.43-2.53,2-5.27,2.82-8a21,21,0,0,1,3.44-5.8h0a35,35,0,0,1,3.84.64c.62.06,1.21.55,1.83.35A33.12,33.12,0,0,1,190.53,63c-.6,3.37-.8,6.77-1.12,10.17a179.24,179.24,0,0,0-2.27,25c-.11,2.73-.27,5.44-.18,8.18-.15,2.52-.67,5.2-.24,7.72.14.94,1.13,1.08,1.93,1.16a23.2,23.2,0,0,0,3.11.4c2.34.33,4.63,1,7,1.31a17.57,17.57,0,0,0,3.32.55c.72.3,2.12.61,2.28-.49.31-1.7.75-3.35,1.07-5.05.45-2.15.71-4.35,1-6.5a62.74,62.74,0,0,0,1-6.55c.19-2.43.44-5.12.68-7.46.16-1.82,0-3.6.22-5.43.15-1.23.26-2.54.35-3.76,0-2.66.71-5.66.42-8.33-.29-2.1.08-4.28-.6-6.31a16,16,0,0,0-2.82-6.32,19.31,19.31,0,0,0-10.94-6.37Z"/><path id="Path_30485-2" data-name="Path 30485-2" class="cls-1" d="M187.41,109.1c-4.35,2.11-9,3.62-13,6.48a10.92,10.92,0,0,0-2.74,2.6c-.47.79-1.78,1.41-1.53,2.44.35.76,1.28.36,1.65-.17l-.15.15c1.17-1.11,2.05-2.53,3.39-3.46a38.3,38.3,0,0,1,5.66-3.41c2.35-1.26,4.87-2.16,7.24-3.4a.67.67,0,0,0,.34-.88.67.67,0,0,0-.88-.35Z"/><path id="Path_30486-2" data-name="Path 30486-2" class="cls-1" d="M199.84,115.51c-.7.32-.4,1.24-.54,1.85-.06,1.2-.23,2.38-.33,3.57-4.7-1.31-9.63-.89-14.45-.59-4.08.21-8.16,0-12.24.1h.05a9.14,9.14,0,0,0-1.57.1h0c-1.48,1.56,4.41,1,5.13,1.22a77.05,77.05,0,0,0,11.37,0h-.09a49.08,49.08,0,0,1,8.13.34,27.78,27.78,0,0,0,4.16.59c1.2-.24.92-1.74,1-2.64s.16-1.91.28-2.86c.21-.73.13-2-.94-1.65Z"/></g><g id="Group_6398" data-name="Group 6398"><path id="Path_30488-2" data-name="Path 30488-2" class="cls-1" d="M84.46,120.35c-.71.2-.34,1.6.3,1.74C86.33,122.3,85.92,119.58,84.46,120.35Z"/><path id="Path_30489-2" data-name="Path 30489-2" class="cls-1" d="M84.63,114.92a4,4,0,0,0-3.45,4.48,3.4,3.4,0,0,0,.09.46.38.38,0,0,0,.71-.23,3,3,0,0,1,1.63-3.08,8.54,8.54,0,0,1,1.91-.5C86.26,115.41,85.33,114.78,84.63,114.92Z"/><path id="Path_30490-2" data-name="Path 30490-2" class="cls-1" d="M84,121.33c-.37.06-1.49-.15-1.06.54.33.23.73,0,1.09,0a.27.27,0,0,0,.24-.29.26.26,0,0,0-.27-.24Z"/><path id="Path_30491-2" data-name="Path 30491-2" class="cls-1" d="M83.08,119.78c-.57.51,1,.9,1.09.44s-.5-.3-.75-.42A.34.34,0,0,0,83.08,119.78Z"/><path id="Path_30492-2" data-name="Path 30492-2" class="cls-1" d="M84,118.08c-.56.13.12,1.49.53,1.31C85.11,119.28,84.42,117.9,84,118.08Z"/><path id="Path_30493-2" data-name="Path 30493-2" class="cls-1" d="M85.39,117.22c-.43.2-.23.78-.25,1.16a.37.37,0,0,0,.38.35c.55-.08.32-.82.31-1.2v0a.34.34,0,0,0-.36-.32l-.08,0Z"/><g id="Group_6397" data-name="Group 6397"><path id="Path_30487-2" data-name="Path 30487-2" class="cls-1" d="M85.35,120.19c-2,0-3.22,3.24-1.44,4.35C86,125.15,88.68,119.89,85.35,120.19Zm.21,1.07a.94.94,0,0,1,.41,0c0,1-.74,2.53-1.81,2.56-.89-.88.27-2.6,1.41-2.57Zm.33.67v0Z"/><path id="Path_30494-2" data-name="Path 30494-2" class="cls-1" d="M86.16,119.52c-.49.21-.71,1.48.1,1.3C86.77,120.6,87,119.34,86.16,119.52Z"/><path id="Path_30495-2" data-name="Path 30495-2" class="cls-1" d="M90.75,102c-4.3.06-8.27,3.15-10.74,6.48a10.27,10.27,0,0,0-1.84,3.66,16.74,16.74,0,0,0-1.11,3.52c-.5,2.74.63,5.6,2,8,1.7,2.57,3.25,4,3.06,7.3h0a4,4,0,0,0,0,1.29v0c.33,1.95,2.84.64,3.43-.44.4.42.88,1,1.44,1a6.34,6.34,0,0,0,2.66-1.94,9.28,9.28,0,0,0,.18,3c1.46,2.77,4.91,2.32,7,.48,1.51,1.58,3.25,2.9,4.75,4.49a38.66,38.66,0,0,0,4,3.73c.71.41,1.51,1.93,2.4,1.2.63-.88-.78-1.32-1.24-1.87l-1.32-1.19c-2.29-2-4.2-4.38-6.62-6.3-.92-.68-1.8-2.2-3-1a4.08,4.08,0,0,1-3.61,1.14c-.61-.29-1.5-.58-1.63-1.32h0c-.32-.93.78-4-.85-3.85-1,.6-1.64,1.69-2.74,2.22a8.75,8.75,0,0,1-1.06-1.13c-1.08-.9-1.68,2.12-2.91,2a1,1,0,0,1,0-.67c1.49-4-1.29-6.46-3-9.65l0,.07a15.38,15.38,0,0,1-1.77-5.88c1.17-3,4-5.35,7.26-5.27,2.06,0,3.42,1.58,4.75,3,.66,1,1.46,1.23,2.32.29s2.56-1.47,3.45-.26c1.46,1.74.15,2.71.45,4.3,1.58,3,4.1,6.52,7.91,6.5a3.71,3.71,0,0,0,3.87-3.51h0V121a7.7,7.7,0,0,0-1-5,27.09,27.09,0,0,0-5-7.42v0C100.24,106,94.1,102,90.75,102Z"/><path id="Path_30496-2" data-name="Path 30496-2" class="cls-1" d="M104.85,123.54c-.4.77.36,1.19.85,1.62a52.84,52.84,0,0,0,5.16,5.52c.51.35,1,1.1,1.68.93a.7.7,0,0,0,.44-.88.69.69,0,0,0-.07-.15c-.68-.76-1.36-1.54-2-2.35-.92-1.2-2-2.3-3-3.43-.74-.75-2.09-2.72-3.09-1.26Zm1.68,2.58,0,.06Z"/><path id="Path_30497-2" data-name="Path 30497-2" class="cls-1" d="M112.69,130.09a.9.9,0,0,0-.83.75l0-.14a42.48,42.48,0,0,1-1.76,5.05l0-.13c-.68,2.17-4.34,9.69-3.5,11.44a24.33,24.33,0,0,0,2.83,3c1.16,1.1,1.72,1,2-.63v0c1-2.58,1.9-5.15,2.68-7.78l0,.13a105.86,105.86,0,0,1,4.22-10.21c.79-1.57-4.74-1.27-5.66-1.5Zm.82,1.25a25.82,25.82,0,0,1,3.62.26c-1.2,2.67-2.33,5.4-3.41,8.12-1.07,3.24-2,6.49-3.26,9.67a33.81,33.81,0,0,1-2.76-3c1-4.77,3.25-9.14,4.8-13.73l0,.14c.18-.5.3-1,.51-1.5h.1l.45,0ZM110.05,136l0,.08Zm3.29,4.85v0Zm-2.49,7.43,0-.09Zm0-.09v0Zm3.48-7.06,0,.09,0-.13v0Z"/><path id="Path_30498-2" data-name="Path 30498-2" class="cls-1" d="M109.79,116.47c-2,.24-3.89,2.31-2.57,4.27-.35,1.43,1.65,1.8,2.7,1.86,4.35-.1,4.44-6.45-.12-6.14Z"/><path id="Path_30499-2" data-name="Path 30499-2" class="cls-1" d="M114.45,116.54c-5.32,1-2.56,6.26,1.74,5.1C120.14,120,118.42,115.69,114.45,116.54Zm1,3h0Z"/><path id="Path_30500-2" data-name="Path 30500-2" class="cls-1" d="M120.61,113.78a4.57,4.57,0,0,0-3.9,3.48c.16,2.9,3.42,2.8,4.92.9,1.66-1.54,2.05-4.73-1-4.39Z"/><path id="Path_30501-2" data-name="Path 30501-2" class="cls-1" d="M123.07,108.93a5.38,5.38,0,0,0-3,4.61c0,1.82,2.44,2.3,3.36.87s1.81-2.68,1.88-4.24a1.49,1.49,0,0,0-1.56-1.43A1.4,1.4,0,0,0,123.07,108.93Z"/><path id="Path_30502-2" data-name="Path 30502-2" class="cls-1" d="M124.71,103.11c-2.13.65-3.65,5.48-1.46,6.71.88,2.62,4.29-3.19,4-4.37a2,2,0,0,0-1.54-2.37,2,2,0,0,0-1,0Z"/><path id="Path_30503-2" data-name="Path 30503-2" class="cls-1" d="M125.18,97.86a2.44,2.44,0,0,0-2.1,1.39c-.62,1.66-.65,4.72,1.3,5.47,2.94.51,4.06-6.79.79-6.86Z"/><path id="Path_30504-2" data-name="Path 30504-2" class="cls-1" d="M124.41,87.61a4.16,4.16,0,0,0-.29,1c-.67-1.56-2.66-1.89-3.07,0a12,12,0,0,0,1.3,7.64l-.06-.12.07.14,0,0,.06.12h0l0,.11,0-.07c.62,1,1.35,3.37,2.84,2.9a1.19,1.19,0,0,0,1.38-1,.77.77,0,0,0,0-.15c.2-1.32.45-2.63.72-3.94.37-1.8,1.82-3.38,1.67-5.26-.42-1.55-2-.74-2.47.31a10,10,0,0,0,0-1.82c-.32-1.3-1.77-1-2.13.1Zm1,0a.17.17,0,0,0,0,0Zm-3,8.78h0v0l0,0v0Zm0,0,0-.07Zm0-.09v0Z"/><path id="Path_30522-2" data-name="Path 30522-2" class="cls-1" d="M85.43,126.36c-.23.44.85,1,1.07.55S85.65,125.88,85.43,126.36Z"/><path id="Path_30523-2" data-name="Path 30523-2" class="cls-1" d="M86.24,125.43c-.16.34.59.7.77.37S86.41,125.1,86.24,125.43Z"/><path id="Path_30524-2" data-name="Path 30524-2" class="cls-1" d="M87.31,124.19c-.16.33.57.71.74.38S87.48,123.86,87.31,124.19Z"/><path id="Path_30525-2" data-name="Path 30525-2" class="cls-1" d="M88.19,122.53c-.7.14.26,1.09.6.74S88.46,122.61,88.19,122.53Z"/></g></g><g id="Group_6399" data-name="Group 6399"><path id="Path_30505-2" data-name="Path 30505-2" class="cls-1" d="M106.14,203.78a3.81,3.81,0,0,0-.75,2.77.41.41,0,0,0,.48.35.44.44,0,0,0,.36-.38c-.23-.91.48-1.61,1-2.31,2.15-3.14,6.31-3.66,9.49-5.29a5.3,5.3,0,0,0,3.13-5.57c-.1-1.2-.9-2.36-.62-3.58.65-.51,1.7.19,2.15.78s1.22.86,1.76,1.39c1.79,1.63,4-1.71,5.69-.4.54.7.87,1.75,1.79,2,2,.21.78-2.63,1.89-3.2a11.37,11.37,0,0,1,8.39,1.16c2.48,1.43,3.86,3.91,5.36,6.23,1.71,1.49,4.38,1,6.51,1.25a55.87,55.87,0,0,0,13.53-1.11,32.17,32.17,0,0,0,6-1.91.86.86,0,0,0-.06-1.21.83.83,0,0,0-.6-.22,8.68,8.68,0,0,0-1.5.38,65,65,0,0,1-20.64,2.21h0c-2,0-2.1-.48-3-2.12a15.05,15.05,0,0,0-5.1-5.09c-2.81-1.41-6.91-2.05-9.78-.54-1.23.73-.49,2.26-.78,3.36-.69-.5-.81-1.54-1.41-2.16-1.46-1.59-3.51-.16-5.16.17-1.71-1.17-3.63-3.52-5.92-2.36-2.27,2.06,1.06,5.17-.58,7.51-1.51,1.88-4,2.21-6,3.18s-4.5,2.4-5.59,4.68Z"/><path id="Path_30506-2" data-name="Path 30506-2" class="cls-1" d="M150.57,214.65a.84.84,0,0,0,.86.8c1.4,0,2.81-.07,4.22-.1,2.12-.08,4.23-.23,6.35-.46,1.08-.15,16-1.3,11.3-3.52a114.15,114.15,0,0,1-16.48,2.14c-1.4.12-2.81.16-4.22.22-.74.07-2-.17-2,.92Z"/><path id="Path_30507-2" data-name="Path 30507-2" class="cls-1" d="M106.53,199.51c-2,3.24-.67,4-1.58,6.61-1.4,3.67,1,7.2,2.85,10.21,1.44,1.76,3.1,3.34,4.08,5.43.93,1.47,1.37,3.2,2.41,4.62a13.46,13.46,0,0,0,7.24,4.62c2,.59,4.2.59,5.88,1.93,3,2.85,5.07,6.58,9.89,6.08,2.19-.11,4.29-1,6.51-.7,2,.14,3.59,1.33,5.24,2.26,2.33,1.07,5,1.81,7.54.94,4.36-1.33,3.6-6.51,3.37-10.09-.08-5.08-1.29-9.4-5.14-12.9a37.94,37.94,0,0,1-3-4.66,36.63,36.63,0,0,0-1.43-3.64c-1.69-2.26-4.07-4.45-7.09-4.28-5.49.06-4.6,6.21-8.2,4.91-2.42-.77-4.69-2.39-7.35-2.12-4.1-.16-5.94,5.82-10,4.15-4.09-1.25-6-9.78-10.91-8.29a6.53,6.53,0,0,1,2.12-5.75c1.67-1.32,4.26-1.46,5.19-3.63,1.19-2.62.28-6.15,2.77-8.18,1.17-.73,2.66-.27,4-.57,3.6-1-1.4-9.23,7.81-5.61,1.64.56,2.77-.62,4.15-1.16,1.65-.36,2.6,1.45,3.64,2.42a33.79,33.79,0,0,1,3.5,7.48v0c.47,2.2,2.73,1.28,1.56-.65l0,.08c-1.26-3.83-4.52-12.23-9.67-10.87-2.59,1.6-2.68,1-5.41.22-4.68-.91-5.52,2.63-5.8,6.41-1,.5-2.25,0-3.31.34-2.14.34-3.39,2.58-3.85,4.52-.62,2,0,4.42-1.55,6-1.95,1.09-4.29,1.83-5.46,3.91Zm.09,6.44,0-.09c1.73-.82,3,.7,3.91,1.94a27.23,27.23,0,0,1,2.63,3.44,8.09,8.09,0,0,0,6.61,3.69c5.18-.84,5.47-6,12-3.11,3.35,1.48,6.18,2.31,8.09-1.56,2.53-4.3,7.06-2.54,9.21,1.08a23.59,23.59,0,0,0,3.52,7.53c1.15,1.66,2.66,3,3.62,4.81,1.8,3.12,1.63,6.91,2,10.4.91,5.83-2.66,7.22-7.63,5.28-2.94-1.57-5.33-3.26-8.88-2.77-1.92.16-3.77.94-5.73.71-4.16-.21-5.41-5.19-9-6.58-3.12-1.08-6.64-1.15-9.33-3.29-3-1.91-3.53-5.72-5.57-8.44-.9-1.41-2.28-2.43-3.19-3.82-1.24-2.19-2.82-4.45-2.74-7.08v0a8.53,8.53,0,0,1,.49-2.17Zm14.13-21.31,0,0Z"/><path id="Path_30508-2" data-name="Path 30508-2" class="cls-1" d="M119.61,200a4.12,4.12,0,0,0,2.39,5.3l.39.12c.79.16,2.25.34,2.37-.76-.42-1.74-2-3-2.78-4.59-.34-.52-1-1.84-1.65-.91a2,2,0,0,0-.72.84Zm1,.17c.79,1.54,2.1,2.72,3,4.19a3.2,3.2,0,0,1-3.17-3.23A3.12,3.12,0,0,1,120.59,200.17Z"/><path id="Path_30509-2" data-name="Path 30509-2" class="cls-1" d="M120.36,200.73a.86.86,0,0,0,0,.42c-1.14,1,1.52,1.81,1.61.49.25-.89-1.15-2.08-1.59-.91Z"/><path id="Path_30510-2" data-name="Path 30510-2" class="cls-1" d="M119.94,200.37c-.63,1.3.84,2.38,1.49,1C122,200.13,120.57,199,119.94,200.37Z"/><path id="Path_30511-2" data-name="Path 30511-2" class="cls-1" d="M114.71,202a7.68,7.68,0,0,0,2.88,6.41c1,.78,2,2,3.41,2.09a.55.55,0,0,0,.35-.69.57.57,0,0,0-.25-.3,5.56,5.56,0,0,1-2.34-1.66,6.81,6.81,0,0,1-2.4-3.53c-.43-.88-.14-2-.61-2.79a.62.62,0,0,0-.88.05.65.65,0,0,0-.16.42Zm2.11,3.47v0Zm3.66,4.94h0Z"/><path id="Path_30512-2" data-name="Path 30512-2" class="cls-1" d="M123.13,205.19a8.59,8.59,0,0,0,.23,2c1,.4.35-1.14.31-1.6,0-.18,0-.41-.13-.56a.26.26,0,0,0-.42.19Z"/><path id="Path_30513-2" data-name="Path 30513-2" class="cls-1" d="M121.52,204.81a5.49,5.49,0,0,1-.22,1.61c.66,1.22,1-1.15.87-1.64a.31.31,0,0,0-.34-.31.32.32,0,0,0-.31.34Z"/><path id="Path_30514-2" data-name="Path 30514-2" class="cls-1" d="M119.33,205.05c.29.4.71,0,1-.25s.7-.43.86-.78a.39.39,0,0,0-.3-.48.36.36,0,0,0-.3.05c-.38.42-1.43.78-1.22,1.46Z"/><path id="Path_30515-2" data-name="Path 30515-2" class="cls-1" d="M118.22,202.76c-.13.71,1.53,0,1.81-.14.14-.52-.58-.23-.84-.19s-.82,0-1,.33Zm.5-.23h0Z"/><path id="Path_30516-2" data-name="Path 30516-2" class="cls-1" d="M118.12,200.86c-.31.75,1.53.65,1.94.64a.31.31,0,0,0,.09-.44.27.27,0,0,0-.18-.13c-.55,0-1.46-.47-1.85-.07Z"/><path id="Path_30517-2" data-name="Path 30517-2" class="cls-1" d="M118.84,199c-.23.68,1.18.64,1.59.89a.29.29,0,0,0,.34-.23.28.28,0,0,0-.21-.33C120,199.31,119.29,198.56,118.84,199Z"/><path id="Path_30518-2" data-name="Path 30518-2" class="cls-1" d="M127.75,204.26c.39.38,1.39-.65,1-1S127.3,203.9,127.75,204.26Z"/><path id="Path_30519-2" data-name="Path 30519-2" class="cls-1" d="M127,202.74c.38.34,1.1-.51.76-.85S126.63,202.4,127,202.74Z"/><path id="Path_30520-2" data-name="Path 30520-2" class="cls-1" d="M125.66,201.33c.24.57,1.65-.2,1.19-.71-.29-.26-.5.1-.72.24S125.56,201,125.66,201.33Z"/><path id="Path_30521-2" data-name="Path 30521-2" class="cls-1" d="M124.81,199.48c-.11,1,1.56.15,1.2-.45S125,199.13,124.81,199.48Z"/><path id="Path_30526-2" data-name="Path 30526-2" class="cls-1" d="M106,206.55a.36.36,0,0,0,.16.49.32.32,0,0,0,.27,0c1.58-.31,2,1.86,2.77,2.85a27.33,27.33,0,0,1,1.47,2.36c2.49,3.43,8.14,6,11.78,2.84a5.45,5.45,0,0,1,6.86-.93c13.31,7.6,9.71-2.35,15.72-4.51,1-.44,2.35,0,3.27-.6a.51.51,0,0,0-.52-.82,26.82,26.82,0,0,0-3,.34c-7.7,2.64-1.69,12.25-16.07,4.28-5.18-2.17-6.41,2.71-10.22,2.82-8.14.16-8.7-11.35-12.53-9.15Zm22,7.07h0Z"/><path id="Path_30527-2" data-name="Path 30527-2" class="cls-1" d="M105,208.63c.12,1,1.58.27,2.48,1.8l0-.06c1.51,1.6,2.09,3.8,3.43,5.52,4,4.26,7.83,3.51,12.6,1.13,3-1,5.64,1.41,8.14,2.66a8.11,8.11,0,0,0,11.3-1.85c1.53-1.72,2-4.45,4.12-5.51a5.2,5.2,0,0,1,3.41-.26c1.32-.54-1.71-.75-2-.78a4.43,4.43,0,0,0-2.14.52c-2.54,1.41-3.11,4.75-5.39,6.5-5,4.32-9.29-.72-14-2.45-4.27-1.64-7.25,3.38-11.66,1.64a8.11,8.11,0,0,1-4.67-4.77c-1.05-1.78-2.13-4.08-4.27-4.68-.5-.14-1.29-.08-1.27.6Z"/><path id="Path_30528-2" data-name="Path 30528-2" class="cls-1" d="M107,212.89c1.61,3.86,4,9.1,8.93,8.8,1.92-.28,3.72-1.24,5.71-1,2.82.87,4.85,3.23,6.85,5.3a19.5,19.5,0,0,0,5.7,3.79c2.82,1,5.64.08,8.39-.67,5.05-1,6.29,6.25,12.31,6.35a4.52,4.52,0,0,0,4.21-1.63.51.51,0,0,0-.39-.61.5.5,0,0,0-.48.14,4.18,4.18,0,0,1-3.42,1c-5-.14-6.55-7.16-11.65-6.7-3,.36-5.87,2.13-8.93.83-4.82-2-7.12-7.56-12.19-9-2.83-.48-5.3,1.91-8.08,1.22-3.13-.92-4.68-4.25-6.06-6.94-.24-.47-.7-1.74-.91-.82Zm.51,0,0,0Zm-.26.53v0Zm3.27,4.71,0,.05Zm2.8,2.28,0,0Z"/><path id="Path_30529-2" data-name="Path 30529-2" class="cls-1" d="M118.44,220.09c.13.78,1.23.31,1.73.17,5.55-2.1,8.13,3.45,12.49,5.36,3.88,2,6.22-.93,9.89-.8,5.54.39,8.89,7.06,14.75,6.11.79-.19,2.62-.83,1.92-1.88-.55-.49-.94.26-1.41.45-5.73,1.78-9.57-6-15.39-5.77-3.95,0-6.24,3.23-10.25.53-2.11-1-3.31-3.21-5.38-4.26a7.85,7.85,0,0,0-6.9-.6c-.45.31-1.4,0-1.46.69Z"/><path id="Path_30530-2" data-name="Path 30530-2" class="cls-1" d="M117.56,220.75c.4.53,2-.69,2.42-.93a9.71,9.71,0,0,1,5.26-1c2.76.33,4.92,2.4,7.35,3.6,1.85,1.54,4.3,1.5,6.56,1.17,1.58-.42,2.88-1.53,4.47-1.87,3.81-.52,6.75,3,11.21,2.09.7,0,2.44-.46,1.44-1.36a.54.54,0,0,0-.43,0,6.31,6.31,0,0,1-2.76.32c-3.69-.16-6.94-3.58-10.69-2.08-1.24.51-2.34,1.33-3.62,1.74-1.85.23-3.88.42-5.4-.86-3.18-1.65-6.31-4.54-10.15-3.61a8.54,8.54,0,0,0-4.35,1.72c-.4.37-1.56.46-1.31,1.16Zm29.86.15.1,0-.16-.06.06,0Z"/><path id="Path_30531-2" data-name="Path 30531-2" class="cls-1" d="M140.91,221.57c.44.85,3.32-1.43,4-1.72,2.58-.71,5.35-.19,8-.18a.62.62,0,0,0,.67-.56.64.64,0,0,0-.08-.36c-.43-.53-1.27-.1-1.87-.24a20.68,20.68,0,0,0-6.79.41c-1.06.58-2,1.41-3.07,2-.3.19-1,.19-.87.68Z"/><path id="Path_30532-2" data-name="Path 30532-2" class="cls-1" d="M141.58,221.59c.4.17,1.21-.65,1.64-.83,1.44-1.14,2.12-3,3.63-4.08,1-1.45,4.55-.27,4.26-2.12-.38-1-1.57-.3-2.32-.23a3.9,3.9,0,0,0-2.58,1.4c-1.52,1.32-1.86,3.42-3.26,4.78-.28.36-1.4.68-1.37,1.07Z"/><path id="Path_30533-2" data-name="Path 30533-2" class="cls-1" d="M113.25,221.56c.45,3.39,4.57,2.58,7,3.43a22.62,22.62,0,0,1,9.83,7.73,7.9,7.9,0,0,0,7.31,4c2.57,0,4.86-1.51,7.44-1.52,2.11-.32,4,.71,5.76,1.83A13,13,0,0,0,157,238.9c.86-.07,3.65-.59,2.4-1.78-.41-.24-.8.14-1.18.29a5.23,5.23,0,0,1-2.53.39c-2.5-.26-4.6-1.59-6.63-3-3.63-2.16-7.42-.34-11.08.5a6.5,6.5,0,0,1-6.67-3.12c-3.86-5.12-8.6-9.26-15.4-8.84a2.29,2.29,0,0,1-2-1.86c0-.37-.62-.36-.59,0ZM152.8,237l0,0Z"/><path id="Path_30534-2" data-name="Path 30534-2" class="cls-1" d="M113.64,221.86c.37,2.47,5.16.87,6.85,1.1,3.49.49,6.2,3,8.47,5.5h0c9,11.75,12.7.1,19.69,5.55,2.42,1.86,4.34,4,7.52,4.55.79.08,2.62.84,2.83-.29a.55.55,0,0,0-.55-.52,7.18,7.18,0,0,1-2.31-.23c-2.77-.62-4.72-2.65-6.88-4.33-7.46-6.41-11.36,5.77-19.44-5.21l0,.05c-2.35-2.73-5.23-5.34-8.91-6-1.51-.29-3,.43-4.47.42-.72,0-1.74.2-2.23-.46.11-.46-.56-.68-.61-.16ZM155,237.15l.09,0Z"/><path id="Path_30535-2" data-name="Path 30535-2" class="cls-1" d="M114.79,224.94c.4,2.43,5.12,1.91,7,2.72,3,1.38,5.28,3.84,7.72,6,.33.23.79.82,1.19.43a.42.42,0,0,0,0-.61c-2.85-2.45-5.37-5.55-9-6.8-1.65-.42-3.41-.32-5-.84-.37-.2-1-.3-1.15-.7.12-.48-.54-.78-.62-.21Zm.63.26v0Z"/><path id="Path_30536-2" data-name="Path 30536-2" class="cls-1" d="M106.3,202.22c.56.43.88-.45,1.23-.75a8.27,8.27,0,0,1,3.74-2.06c3.21-1.31,5.55-3.66,5-7.34-.08-1.51.17-3.13,1.49-4.06.67-1,1.72-1,2.78-1.19,2.17-.64,1.36-2.35.33-1.62-.71.83-1.87.48-2.75.92-5.56,3.51-.45,7.83-4.81,11l0,0c-1.68,1.66-4.27,1.73-6,3.36-.34.48-1.49,1.17-1,1.8Z"/><path id="Path_30537-2" data-name="Path 30537-2" class="cls-1" d="M118.91,189.09c.25.29.55-.21.81-.28,2.41-.84,5.54.74,7.52-1.34.88-1.63,1.43-2.89,3.25-3.74,2.43-1,4.65,1.36,7.25.63,1.18,0,1.86-1.75.35-1.66-2.51,1.66-5.18-1.49-7.81-.23-1.62.72-3.29,1.95-3.72,3.75-1,2.72-6.58.7-7.65,2.87Z"/><path id="Path_30538-2" data-name="Path 30538-2" class="cls-1" d="M117.71,186.91c.18.46.67.14,1,.1a6.21,6.21,0,0,1,1.43,0c8.65.95,2.47-5.71,9.94-6.38l-.06,0c.57-.2,1.72.11,1.75-.77-.13-.94-1.33-.44-1.95-.39l.15,0c-8.85,1-2.11,7.38-9.64,6.77-.64,0-2.66-.21-2.63.69Z"/><path id="Path_30539-2" data-name="Path 30539-2" class="cls-1" d="M121.14,184.12c-.23,1,1,.49,1.26,0,.95-1.17,1.64-2.61,2.95-3.44.64-.7,2.63-.38,2.65-1.18-.16-.87-1.26-.21-1.8-.12-2.59.62-3.23,3.31-5.06,4.75Z"/><path id="Path_30540-2" data-name="Path 30540-2" class="cls-1" d="M126.63,181.05a.28.28,0,0,0,.22.34.26.26,0,0,0,.21,0c1.79-1.5,4.71.94,7.07.47a7.56,7.56,0,0,0,2.34-.52.47.47,0,0,0,.13-.65.46.46,0,0,0-.51-.18c-.26.1-.53.18-.79.26-3,1.26-6.72-2-8.68.31Z"/><path id="Path_30541-2" data-name="Path 30541-2" class="cls-1" d="M122.25,190c-.07.91,2.89.4,3.45.2,2-.6,2.77-3.05,4.84-3.5,2.43-.22,4.82.77,7.26.5a3.56,3.56,0,0,0,1.8-.53.65.65,0,0,0,0-.91.66.66,0,0,0-.45-.17c-2.37.89-4.89.28-7.34,0-3.57-.53-4.53,4.48-8,4.18-.47.12-1.26-.33-1.5.2Zm12.53-4h0Zm.32,0h0Z"/><path id="Path_30542-2" data-name="Path 30542-2" class="cls-1" d="M128,190.66a.42.42,0,0,0,.58,0c2.93-3.34,7.77-1.64,11.6-1.83,1.18.12,1.22-1.58,0-1.15-1.61.66-3.48.08-5.17,0a12.55,12.55,0,0,0-3.86.43C130.34,188.09,127.3,189.8,128,190.66Zm4.54-2h0Z"/><path id="Path_30543-2" data-name="Path 30543-2" class="cls-1" d="M174.68,183.24a29.66,29.66,0,0,0-3.33,15c.35,3.51,1,7,1.31,10.51,1.25,8.74,0,8.66,9.36,9.23,1.07.33,1.19-.91,1-1.67a43,43,0,0,0-.67-5.06c-.63-3.53-.92-7.1-1.27-10.66-.49-5.36.09-10.79-1-16.09a39.25,39.25,0,0,0-.88-4.15c-1.55-3-3.79,1.51-4.53,2.93Zm3.1-1.68.13-.19a48.9,48.9,0,0,1,1.37,13v-.06c-.21,7.47,1.3,14.81,2.25,22.18-1.78-.35-4.94-.07-6.2-1.36a76.62,76.62,0,0,1-1.14-8.81c-.25-2.79-.72-5.55-1-8.33a31,31,0,0,1,4.58-16.47Zm1.45,9.11v0Z"/></g><g id="Group_6400" data-name="Group 6400"><path id="Path_30544-2" data-name="Path 30544-2" class="cls-1" d="M35.59,105.8a7.21,7.21,0,0,0-4.38,2.34c-1,1.16-1.86,2.45,0,3.26A5.12,5.12,0,0,0,37,108.81c.7-1.81,1.23-3.28-1.43-3Zm.84,1.12a.73.73,0,0,1,.25.08,3.31,3.31,0,0,1-.2.68h0c-.7,1.84-3.4,3.32-5.27,2.5a6.92,6.92,0,0,1,5.23-3.26Z"/><path id="Path_30545-2" data-name="Path 30545-2" class="cls-1" d="M34.9,107.32c-1.31.41-1,2.6.47,2.24C36.72,109.31,36.22,107,34.9,107.32Z"/><path id="Path_30546-2" data-name="Path 30546-2" class="cls-1" d="M28.72,109.46c-.25.59.6.69,1,.84s.68.37,1,.35c.71-.43-.36-.8-.72-1s-1-.72-1.3-.22Z"/><path id="Path_30547-2" data-name="Path 30547-2" class="cls-1" d="M30.06,107.7c-1.12.5.8,1.21,1.3,1.27a.29.29,0,0,0,.33-.2.29.29,0,0,0-.2-.34C30.9,108.4,30.56,107.88,30.06,107.7Z"/><path id="Path_30548-2" data-name="Path 30548-2" class="cls-1" d="M31.4,106.39c-.82.42.52,1.53,1,1.67.74-.15.23-.77-.14-1s-.44-.74-.85-.64Z"/><path id="Path_30549-2" data-name="Path 30549-2" class="cls-1" d="M33.09,105.16c-1.05.26,0,1.46.3,2a.49.49,0,0,0,.84-.52c-.4-.45-.47-1.37-1.14-1.48Z"/><path id="Path_30550-2" data-name="Path 30550-2" class="cls-1" d="M34.84,104.7c-.77.22-.06,1.33,0,1.86a.38.38,0,0,0,.47.25.38.38,0,0,0,.26-.47h0c-.27-.49-.1-1.48-.73-1.64Z"/><path id="Path_30551-2" data-name="Path 30551-2" class="cls-1" d="M36.32,104.76c-.63,0-.24,1.61-.07,1.93C37.3,107.43,36.92,104.7,36.32,104.76Z"/><path id="Path_30552-2" data-name="Path 30552-2" class="cls-1" d="M34.14,101a11.54,11.54,0,0,0-6.68,3.74,11.1,11.1,0,0,0-1.39,2.08.44.44,0,0,0,.19.6.47.47,0,0,0,.33,0c.43-.24.58-.81.9-1.18a13,13,0,0,1,6.5-3.79,8.55,8.55,0,0,0,1-.06.73.73,0,0,0,.48-.9,1.22,1.22,0,0,0-.07-.17c-.26-.44-.84-.34-1.27-.35Z"/><path id="Path_30553-2" data-name="Path 30553-2" class="cls-1" d="M29.16,91.38C20.35,91.81,10.74,98,8.84,107a22.51,22.51,0,0,0-.43,4.56c-.24,3.59-4.58,5-4.91,8.6-1,5.21,4.57,7.05,2.58,11.61C5,134.46,2.27,136,.92,138.52c-2.75,6.2,1,11.83,6.61,14.68h0l0,0h0c3.16,2.63.46,7.08,1.15,10.49.64,7.77,8,11.61,15.19,10,6.71-1.37,12-6,11.53-13.26a35.56,35.56,0,0,0-.77-4.22,6.22,6.22,0,0,1,.23-5c1-1.64,2.34-3.26,2.47-5.23V146c.51-3.06-1.55-5.92-4.24-7.1-1.83-.64-4.1-1.42-4-3.77-.14-2.41,1.82-4.57,1.74-7,.22-2.42-1.42-4.61-3.4-5.89-2.81-1.44-5.25-1.86-5.3-5.68,0-.53,0-1.12.62-1.33a3,3,0,0,1,.92-.4,3.36,3.36,0,0,1,1.41.1c1-.08.58-1.18.35-1.78a31.65,31.65,0,0,1-1.92-6.81c-.36-2.14-.44-3.45,1.72-4.56a88.49,88.49,0,0,0,9.18-5.91c3.28,3.28,2.9,9.4,8.34,10.16.94.35,2.63.21,3.15,1.07a7.56,7.56,0,0,1-2.72,1.85c-1.39.38-.66,1.73-.32,2.64.47,1.35,1,2.74,1.34,4.12-.6.32-1.22.6-1.83.9h0c-1.61.75-3.66,1.4-1.26,3l-.1-.07.1.07s0,0,0,0h0a4.65,4.65,0,0,0,2.73,1c.68,1.88.6,4.75-1.37,5.8-.83.46-1.88,0-2.63.53-.49.66.09,1.47.13,2.18.3,1.72.61,3.38.94,5.09.94,4.83,1.88,9.6,3.19,14.32.23.91.62,1.76.85,2.67a.74.74,0,0,0,.93.48.79.79,0,0,0,.41-.33.77.77,0,0,0,.06-.56,23.3,23.3,0,0,1-1.2-3.83c-1.52-6.33-2.88-12.73-4.21-19.1,4,.08,5.38-4.88,3.81-8a0,0,0,0,0,0,0c-.51-.86-2.26-.21-3.14-1.21l0,0,0,0-.32-.26c1-.54,2-1,2.9-1.52h0c1.37-.48,1.18-1.21.94-2.44a17.23,17.23,0,0,0-1.38-4.37c1.72-1,5.05-2.72,2.43-4.72-1.18-.7-2.66-.55-3.93-1a3.43,3.43,0,0,1-2.39-2.08C38.3,99,37.22,95,34,93h0a1,1,0,0,0-.85-.54,8.56,8.56,0,0,0-4-1Z"/><path id="Path_30554-2" data-name="Path 30554-2" class="cls-1" d="M33.77,113.34c-.56.2.56,2.08,1,1.68s0-.7-.15-1-.38-.93-.85-.67Z"/><path id="Path_30555-2" data-name="Path 30555-2" class="cls-1" d="M34.93,112.74c-.4.27,0,.72.12,1s.56,1,.9.46c.15-.3-.14-.6-.25-.88s-.33-.87-.77-.61Z"/><path id="Path_30556" data-name="Path 30556" class="cls-1" d="M36.11,112.21c-.47.3.28,1.13.52,1.44a.22.22,0,0,0,.31-.31h0c-.35-.27-.4-1.14-.84-1.14Z"/><path id="Path_30557" data-name="Path 30557" class="cls-1" d="M37.24,111.56c-.44.24.52,1.88.83,1.09C38,112.37,37.63,111.28,37.24,111.56Z"/><path id="Path_30558" data-name="Path 30558" class="cls-1" d="M38.27,110.72c-.43.15.29,1.44.63,1.26C39.48,111.83,38.72,110.4,38.27,110.72Z"/><path id="Path_30559" data-name="Path 30559" class="cls-1" d="M50.8,149.35a59.71,59.71,0,0,0-10,3.5l.14-.07a49.82,49.82,0,0,0-7,3.42c-.49.45-1.74,1.15-1.11,1.9a.6.6,0,0,0,.85,0A4.13,4.13,0,0,1,35.22,157l-.09,0a124.68,124.68,0,0,1,15.7-5.7c2.1-.07,3,4,4.37,5.39-4,1.36-8.07,2.42-12.06,3.8-2.63,1.08-5.15,2.38-7.79,3.43-1.12.47-2.2,1-3.31,1.47-.51.23-1.38.45-1.19,1.18s1.15.34,1.67,0c.82-.4,1.66-.79,2.49-1.17,2.29-1,4.63-1.9,6.86-3l-.15.07c3.55-1.62,7.44-2.35,11.09-3.73,2.16-1,5.44-.46,3.27-3.73-1.23-2.2-2.25-5.68-5.28-5.67ZM35.11,157l-.06,0Zm1,7.93,0,0Zm4.59-12.06.07,0Z"/></g></g></g></g></svg>