<svg xmlns="http://www.w3.org/2000/svg" viewBox="0 0 173.87 177.8"><defs><style>.cls-1{fill:#fff;}.cls-2{fill:#de5d5d;}.cls-3{fill:#3a2316;}</style></defs><g id="圖層_2" data-name="圖層 2"><g id="圖層_1-2" data-name="圖層 1"><g id="Group_6803" data-name="Group 6803"><path id="Path_70594" data-name="Path 70594" class="cls-1" d="M89.73,177.79H89a74.19,74.19,0,0,1-11.12-1.14c-2.53-.43-4.26-.64-4.82-.67-.5.14-1.32,0-3-.6-7.56-1.53-13.65-5.33-20.09-9.35C48,164.84,46,163.61,44,162.44c-.38-.25-2.79-1.55-6.14-3.29a73.11,73.11,0,0,1-8-4.77c-3.43-2.63-9.72-9.9-12.94-14.95a32.81,32.81,0,0,0-2.6-3.16c-1.86-2-3.5-5.22-7-13.67-.51-1.23-1.73-5.07-2.72-8.56-1.08-3.76-1.92-6.65-2.05-7a12.91,12.91,0,0,1-.46-2.29c-.06-.53-.5-2.51-1-4.52C.15,96.72-.26,89.83.17,84.52.74,77.42,4.8,56.05,6.44,54a28.5,28.5,0,0,0,1.21-3.23c1.7-5.23,5.52-12.78,8.19-16.14.78-1,2.42-3.07,3.65-4.64A105.69,105.69,0,0,1,31,18.31C41.3,10,51.34,4.37,59.31,2.48a32.48,32.48,0,0,1,8-1.14,24.34,24.34,0,0,0,4.87-.7l.13,0C74.44.33,76.75.13,79.16,0h0a103,103,0,0,1,53.78,13.48c12.44,7.27,21.56,16.93,26.39,28,.52,1.29.65,1.51,4.53,7.72s7.76,14.9,8.54,19.06c2,7.46,1.54,13.49,1.07,19.88-.12,1.55-.23,3.13-.31,4.75-.23,4.59-.74,11.93-1.23,13.37-.32,1-1.07,3.31-1.65,5.16a80.67,80.67,0,0,1-6.27,15c-2.48,4.5-3,5.23-7.77,11.18-4.36,5.44-7.51,10.19-7.76,11.06a4,4,0,0,1-1.93,2.35,5.37,5.37,0,0,0-1.37,1.14,130.52,130.52,0,0,1-11.51,10.42,44,44,0,0,1-5.75,3.51,38.28,38.28,0,0,0-4.82,2.87c-2.24,1.72-12.95,5.26-17,5.85a12.14,12.14,0,0,0-2.6.61,43.52,43.52,0,0,1-5.6,1.58A35.88,35.88,0,0,1,89.73,177.79Zm-16.14-2.16-.06.06.06-.06Zm-.67-2.27a38.39,38.39,0,0,1,5.35.7A70.2,70.2,0,0,0,89,175.16a33.94,33.94,0,0,0,8.29-.78,47.36,47.36,0,0,0,5-1.35,13.59,13.59,0,0,1,3.44-.88c4.17-.6,14.22-4.1,15.83-5.33a39.58,39.58,0,0,1,5.23-3.14,40.78,40.78,0,0,0,5.33-3.25,132.08,132.08,0,0,0,11-10,7.76,7.76,0,0,1,2.2-1.83,1.65,1.65,0,0,0,.6-.63c.4-1.8,5.28-8.38,8.27-12.1,4.69-5.85,5.11-6.45,7.52-10.82a78.38,78.38,0,0,0,6.06-14.47c.58-1.86,1.34-4.2,1.67-5.2a109.74,109.74,0,0,0,1.09-12.67c.08-1.65.2-3.25.31-4.82.46-6.18.89-12-1-19.05l0-.11c-.69-3.8-4.51-12.3-8.19-18.19-4-6.41-4.13-6.63-4.72-8.1-4.59-10.47-13.34-19.72-25.3-26.7A100.27,100.27,0,0,0,79.26,2.66c-2.3.09-4.51.27-6.57.55A26.57,26.57,0,0,1,67.16,4,30,30,0,0,0,59.92,5c-7.49,1.78-17.41,7.35-27.21,15.28A103.27,103.27,0,0,0,21.56,31.59L17.9,36.24c-2.47,3.11-6.16,10.41-7.75,15.32a21.88,21.88,0,0,1-1.64,4C7.4,57.38,3.42,76.84,2.79,84.73c-.4,5,0,11.6.85,14.8a48.63,48.63,0,0,1,1.12,4.92,10,10,0,0,0,.34,1.71c.22.66,1.78,6.08,2.09,7.16,1,3.7,2.2,7.27,2.62,8.28,3.31,8,4.89,11.15,6.49,12.9A34.88,34.88,0,0,1,19.19,138c3,4.76,9.13,11.84,12.32,14.28a71.16,71.16,0,0,0,7.6,4.53c1.91,1,5.69,3,6.3,3.38,2,1.15,4,2.4,5.9,3.59,6.26,3.91,12.18,7.6,19.31,9l.21.06a10,10,0,0,0,1.61.5l.48,0Z"/></g><g id="Group_6790" data-name="Group 6790"><path id="Path_70587" data-name="Path 70587" class="cls-2" d="M159.37,69.53c11,40.36-12.21,81.88-51.9,92.72s-80.82-13.08-91.85-53.44,12.2-81.88,51.9-92.73,80.82,13.08,91.85,53.45Z"/><rect id="Rectangle_1525" data-name="Rectangle 1525" class="cls-1" x="28.22" y="108.47" width="124.08" height="37.67"/><path id="Path_70588" data-name="Path 70588" class="cls-3" d="M79.36,12.05a65.5,65.5,0,0,0-11.43,1.21c-2.23.46-4.06.86-5.61,1.26A22.73,22.73,0,0,0,52.1,19.77a21.38,21.38,0,0,1-4.62,2.53,17,17,0,0,0-3.75,1.91,4.57,4.57,0,0,1-1.51.94c-.85.23-7.87,6.47-11,9.83a58,58,0,0,0-4,4.74c-1.83,2.46-6.32,10.45-6.18,11a8.2,8.2,0,0,1-.91,2.13c-1.27,2.42-3,7.08-2.84,7.66a19.24,19.24,0,0,1-1.33,4.12c-.8,2-1.65,4.35-1.9,5.18a19.63,19.63,0,0,1-1,2.57c-.77,1.47-2.29,10.08-2.44,13.74-.29,7.5.39,12.39,3.14,22.54,3,11,4.06,14.06,6.68,18.84a59.76,59.76,0,0,0,5.16,7.47c0,2.48.06,4.66,0,6-.08,3.4.77,7.51,1.64,8a3.77,3.77,0,0,0,1.82.22c1.65-.21,5.16-.41,10-.6a65.94,65.94,0,0,0,19.39,12.08c22.35,8.94,46.92,4.87,62.94-1.28,5-1.92,10.45-4.57,11.92-5.84a11.2,11.2,0,0,1,1.79-1.35c1.62-1.24,3.24-2.65,4.83-4.11,5.61.07,10.21.15,10.8.23,2.79.39,4.54-.56,4.57-2.48a1.59,1.59,0,0,1,.65-1.42c.52-.2.6-1.26.41-5.94a46.52,46.52,0,0,0-.68-7.16,36.21,36.21,0,0,1-.37-4.77,27.45,27.45,0,0,1,1.91-4.16,36.33,36.33,0,0,0,4.54-13.37c1.88-10.48,2.09-18,.73-26.7-.21-1.34-.58-4.23-.84-6.43-.52-4.55-4.12-17.54-5-18.22a4.62,4.62,0,0,1-1.08-1.44c-.28-.55-2.12-3.45-4.1-6.44-5.92-9-8.83-12.9-10.32-13.93a5.62,5.62,0,0,1-1.31-1.48c-.85-1.39-3.38-3.55-6.15-5.23-1.31-.8-3.75-2.5-5.43-3.79C121,19.7,118.42,18.78,98.3,14.38a71.6,71.6,0,0,0-18.94-2.33Zm3,3.16c11.76.28,24.32,4.53,34.33,7.31,3.32,1.26,10.07,5.57,13.82,8.81a28.5,28.5,0,0,0,3.05,2.05c1.87,1.12,3.94,3.3,8.71,9.16.67.83,2.56,3.61,4.21,6.19s3.17,5,3.4,5.27a9.78,9.78,0,0,1,.82,1.53,38.11,38.11,0,0,0,2,3.57,45.94,45.94,0,0,1,4.42,12.18c1.4,6.56,3,24.1,2.37,25.72a18.3,18.3,0,0,0-.27,3.3A53,53,0,0,1,156.55,115c-.31.8-.93,2.36-1.47,3.73a72,72,0,0,0-.47-9.4,4.36,4.36,0,0,1-.42-1.74c0-.79-.56-1.47-1.93-2.39-1.79-1.2-2.06-1.26-3.79-.8s-15.92.87-19.86.6c-.85-.06-4.65,0-8.44.16s-8,.25-9.33.25l-13.34-.08c-6,0-15.09.14-20.22.39s-12.13.43-15.56.42-12.62.1-20.44.26-14.57.28-15,.28a2.12,2.12,0,0,0-1.44,1c-.56.85-.59,1.63-.21,4.77.25,2.06.56,9.52.76,16.52a24.87,24.87,0,0,1-2.32-3.43c-4.17-6.78-4.82-12.77-6.48-19.56a89.92,89.92,0,0,1-2.23-10.87c0-.89.07-3,.09-4.61a67,67,0,0,1,1.45-13.47c.91-4.21,1.13-4.89,3.53-10.8,2.07-5.08,3.78-10.35,3.71-11.37a2.26,2.26,0,0,1,.67-1.51,5.87,5.87,0,0,0,1.09-1.64,111.64,111.64,0,0,1,6.69-11,36.63,36.63,0,0,1,3.69-4.09A32.24,32.24,0,0,0,38.64,33c1.2-1.65,8.77-7,12-8.54a10.49,10.49,0,0,0,2.29-1.34,36.47,36.47,0,0,1,3.93-2.47,30.42,30.42,0,0,1,6.8-2.76,61.9,61.9,0,0,1,9.14-1.74,25.8,25.8,0,0,0,4.54-.77,48.64,48.64,0,0,1,5-.14ZM37.73,66.77h0a1.82,1.82,0,0,0-1.06.44c-1.05.73-1.07.82-.36,2.3a14.36,14.36,0,0,0,4,3c1.93,1.13,4.8,3,6.4,4.11a35.13,35.13,0,0,0,4.11,2.6l1.21.54-1.11,1.1a7.61,7.61,0,0,0-2.27,6.24c.69,10.45,17,7.59,14.6-2.8l2.85.25c1.57.13,3.76.41,4.86.62a8.73,8.73,0,0,0,2.49.23,13.29,13.29,0,0,1,1.75-.37,3,3,0,0,0,2.5-2.34c0-1-1.59-1.43-4.7-1.42-6.51,0-15.47-2.1-18.29-4.36-.36-.29-2.05-1.27-3.75-2.19a53,53,0,0,1-5.19-3.18,13.68,13.68,0,0,0-2.4-1.52A4.94,4.94,0,0,1,41.94,69a10.61,10.61,0,0,0-2.72-1.77,4.24,4.24,0,0,0-1.48-.45Zm98.12,0a4.29,4.29,0,0,0-1.49.45A10.55,10.55,0,0,0,131.65,69a4.94,4.94,0,0,1-1.44,1.09,13.68,13.68,0,0,0-2.4,1.52,55,55,0,0,1-5.19,3.18q-1.94,1-3.75,2.19c-2.82,2.26-11.78,4.39-18.29,4.36-3.1,0-4.72.47-4.7,1.42a3,3,0,0,0,2.5,2.34,12.82,12.82,0,0,1,1.74.37,8.42,8.42,0,0,0,2.5-.23c1.1-.21,3.29-.49,4.85-.62l2.86-.25c-2.41,10.39,13.9,13.25,14.6,2.8a7.61,7.61,0,0,0-2.27-6.24l-1.1-1.1,1.2-.54a35.13,35.13,0,0,0,4.11-2.6c1.6-1.13,4.47-3,6.4-4.11s3.73-2.5,4-3.06c.72-1.47.7-1.56-.35-2.3a1.81,1.81,0,0,0-1.06-.43Zm5.83,42.39c5.09,0,8,.21,8.29.48.57.57.9,4.19.82,8.83-.13,6.67-.09,7.66.4,10.88.6,4,.62,9.87,0,11.88a3.45,3.45,0,0,1-1.22,1.86c-.45.24-4.79.47-9.66.5s-10.15.09-11.74.09c-4.54,0-28,.06-34.67.06-3.3,0-7.7-.08-9.77-.15-6.67-.24-45.9.64-50.95,1.14L30.5,145l-.26-1.49c-.3-1.73-.67-9.2-1-19.26-.12-3.91-.34-8.45-.5-10.1-.29-3-.27-3,.78-3a4.51,4.51,0,0,0,2.13-.75c.84-.58,1-.6.83-.1s.82.62,6.7.55c3.82,0,9.64-.2,12.94-.35,4.68-.21,18-.3,20.67-.15.25,0,2.36-.2,4.7-.5a71.41,71.41,0,0,1,8-.48c14.43.17,26.45.16,34.86,0,8.94-.18,16.19-.24,21.28-.19Zm-5.77,2.78a17.11,17.11,0,0,0-4.95,1c-4.58,1.57-5.62,2.8-3.5,4.19,1,.64,1.28.62,3.87-.28,3.89-1.34,8-1.07,8,.54a6.59,6.59,0,0,1-1.45,1.83c-4.24,4.29-5.27,6.57-4.31,9.58.7,2.22,1.53,2.85,2.91,2.22.58-.27,1.07-.65,1.07-.85s.3-.24.67-.1c.81.31.88-.86.17-2.89-.51-1.47-.08-2.58,1.74-4.43a17.08,17.08,0,0,0,3.32-4.75c.72-2.85-.17-4.43-3-5.39a12.42,12.42,0,0,0-4.48-.68Zm-46,.35a7.6,7.6,0,0,0-1.15.34c-.93.34-2.56.86-3.62,1.15a3.34,3.34,0,0,0-2.77,2.39c-1.52,3.35-.93,6.15,1.78,8.43A7.57,7.57,0,0,0,86.78,126c1.37.3,1.83,1.43,1.83,4.46,0,1.93-.7,2.41-3.52,2.34-2.5-.06-3.59.67-3.59,2.4,0,.89,1,1.15,4,1.15a3.08,3.08,0,0,1,3.15,1.45c.94,1.15,1.38,1.38,2,1.08a4.77,4.77,0,0,1,1.33-.41,5.74,5.74,0,0,0,1.83-1.38,17.39,17.39,0,0,1,3.4-2.43,5.27,5.27,0,0,0,2.7-2.64c1.12-2.71.34-3.93-4.22-6.6l-2.86-1.68.07-2.8a12.34,12.34,0,0,1,.32-3c.13-.13.94.18,1.81.7,1.76,1,2.73.89,3.17-.5.37-1.16-1.56-2.84-3.72-3.25a4.3,4.3,0,0,1-2.22-1.25c-.9-1.13-1.41-1.5-2.37-1.32Zm-36,.25a1.52,1.52,0,0,0-1.19.49c-.39.47-.84,2.85-1,5.09,0,.3-.83.75-1.82,1s-2.07.59-2.39.71-.69-.33-.9-1.45C46,115.06,44.8,114.28,43,116c-.74.7-.88,1.23-.7,2.64.27,2-.12,4-.77,4-.87,0-7,3.17-7.24,3.73-.65,1.7,1.56,2.26,4.75,1.21l2.54-.84-.13,2.06-.13,2.05-2.28.66c-2.89.82-3.74,2-2.39,3.22.72.67,1.42.84,2.9.72,1.7-.13,2,0,2.19.82a3.14,3.14,0,0,1,0,1.61c-.3.77.7,1.23,2,.9a1.2,1.2,0,0,0,.93-1.33,8.21,8.21,0,0,1,.64-2.58c.64-1.53,1.25-1.8,4.7-2.13,1-.1,1.13.08,1.33,1.85.27,2.36,1.19,3.12,2.85,2.36,1-.43,1.15-.82,1.15-2.28,0-2.9.56-3.73,3.07-4.61,2.14-.75,2.27-.89,2.27-2.33s0-1.54-1.75-1.54c-2.29,0-3.29-1-2.9-2.83s.33-1.69,3.31-2.93a21.27,21.27,0,0,0,2.93-1.4,3.44,3.44,0,0,0,.54-2c0-1.36-.08-1.56-1-1.56a11.43,11.43,0,0,0-2.89.65c-1.63.58-1.89.58-2.11,0a2,2,0,0,1,0-1.27c.45-1.19-1.42-2.44-2.87-2.42Zm54.93.55c-1.65,0-2.65.89-3.7,2.92-1.18,2.26-1.18,2.91,0,6.32l.92,2.73-1.3,3.15a54,54,0,0,0-1.87,5.27,7.1,7.1,0,0,1-.94,2.34c-.63.39.5,2.23,1.86,3,2,1.16,5.09.56,7-1.36,2.34-2.35,2.72-2.45,4.72-1.29,2.31,1.34,4.38,1.77,5.53,1.15,1.78-1,1.15-2-2.08-3.57a7.36,7.36,0,0,1-2.33-1.43,7.73,7.73,0,0,1,1.55-1.87C120.7,128,120,125.38,117,126c-1.81.39-2.57,1-2.57,2a1.3,1.3,0,0,1-.78,1.09c-.9.35-3.22-2.1-3.22-3.38,0-.42,1.1-1.88,2.43-3.24a13.05,13.05,0,0,0,2.74-3.65c.43-1.72-.93-4-2.89-4.74a11.49,11.49,0,0,0-3.85-1Zm-36.76.25a2.34,2.34,0,0,0-1.4.6c-.64.46-.84,1.48-1.06,5.22-.53,9-.49,9.44.92,9.94,1.09.39,1.36.29,2.22-.79s1-1.64.9-7.17-.45-7.72-1.58-7.8Zm15.26,3.82a.51.51,0,0,1,.51.12,6.92,6.92,0,0,1,.62,2.44c.21,1.71.12,2.13-.53,2.37-1.14.44-2.5-1.37-2.14-2.89a2.83,2.83,0,0,1,1.54-2Zm22.85.64c1.34,0,1.43.86.21,1.9s-1.32,1-1.32-.57c0-1.12.17-1.33,1.11-1.33Zm-58.45,5.42v2.19c0,2.43-.26,2.65-3.88,3.26l-1.9.31v-1.7c0-1.94.64-2.51,3.83-3.48Zm41.59,5.69a5.88,5.88,0,0,1,2.52,1.51c.51.77.41,1.09-.52,1.58-1.69.91-2.25.58-2.25-1.31,0-1,.11-1.78.25-1.78Zm15.12,1.94c.2-.07.53.17,1,.72a5.33,5.33,0,0,1,.95,1.4c0,.44-3.06,3.05-3.61,3.05s-.07-3,.72-3.84a3.76,3.76,0,0,0,.8-1.16.26.26,0,0,1,.14-.17ZM70,134.7a1.8,1.8,0,0,0-1.21.54,3.79,3.79,0,0,0,.15,4c.8.88,2.38,1.11,2.38.36a3.26,3.26,0,0,1,.9-1.43c1-1.13,1-1.73-.37-2.33-.53-.24-1-.59-1-.78s-.41-.37-.87-.32Zm68.08.08a4.08,4.08,0,0,0-.69.09c-1.89.37-2.51,1-2.51,2.73a2.36,2.36,0,0,0,1,2.16c1.26.89,2.3.91,2,0-.14-.36,0-.66.24-.66a1.9,1.9,0,0,0,1.08-.78h0c.74-1,.74-1.13.08-2.57-.34-.74-.58-1-1.15-1Zm-52.55,12.9c15.34,0,34.8.1,48.63.24a32.13,32.13,0,0,1-4.63,3.25,27.1,27.1,0,0,1-5.91,2.74,21.19,21.19,0,0,0-4.08,1.87c-13.49,6.1-33.83,8.55-51.75,4.19A54.52,54.52,0,0,1,44.4,148.31c5.86-.18,12.63-.36,22-.54,3.73-.07,10.7-.1,19.1-.1Z"/></g></g></g></svg>