<svg xmlns="http://www.w3.org/2000/svg" viewBox="0 0 152.83 153.7"><defs><style>.cls-1{fill:#de5d5d;}.cls-2{fill:#fff;}.cls-3{fill:#3a2316;}</style></defs><g id="圖層_2" data-name="圖層 2"><g id="圖層_1-2" data-name="圖層 1"><g id="Group_6790" data-name="Group 6790"><path id="Path_70587" data-name="Path 70587" class="cls-1" d="M148.85,57.48c11,40.36-12.21,81.88-51.9,92.73S16.13,137.13,5.1,96.76,17.3,14.88,57,4s80.82,13.08,91.85,53.45Z"/><rect id="Rectangle_1525" data-name="Rectangle 1525" class="cls-2" x="17.7" y="96.42" width="124.08" height="37.67"/><path id="Path_70588" data-name="Path 70588" class="cls-3" d="M68.84,0A65.5,65.5,0,0,0,57.41,1.21c-2.23.46-4.06.86-5.61,1.27A22.71,22.71,0,0,0,41.58,7.72,21.38,21.38,0,0,1,37,10.25a16.81,16.81,0,0,0-3.75,1.92,4.54,4.54,0,0,1-1.51.93c-.85.23-7.87,6.48-11,9.83a58.17,58.17,0,0,0-4,4.75c-1.83,2.46-6.32,10.44-6.18,11a8.41,8.41,0,0,1-.91,2.14c-1.28,2.42-3,7.07-2.84,7.66a19.82,19.82,0,0,1-1.33,4.12c-.8,2-1.65,4.34-1.91,5.17a18.27,18.27,0,0,1-1,2.57C1.73,61.78.2,70.38.06,74c-.29,7.5.39,12.39,3.14,22.55,3,11,4.06,14,6.68,18.83A60.88,60.88,0,0,0,15,122.9c.05,2.48.07,4.65,0,6-.08,3.4.77,7.51,1.64,8a3.88,3.88,0,0,0,1.82.21c1.65-.21,5.16-.4,10-.6a65.6,65.6,0,0,0,19.39,12.08c22.35,8.94,46.92,4.87,62.94-1.28,5-1.91,10.45-4.57,11.92-5.83a11.26,11.26,0,0,1,1.79-1.36c1.62-1.24,3.24-2.64,4.83-4.11,5.61.08,10.21.15,10.8.23,2.79.39,4.54-.56,4.57-2.48a1.61,1.61,0,0,1,.64-1.42c.53-.2.6-1.25.42-5.93a46.53,46.53,0,0,0-.68-7.17,36.21,36.21,0,0,1-.37-4.77,28.37,28.37,0,0,1,1.91-4.16,36.45,36.45,0,0,0,4.54-13.37c1.88-10.48,2.09-18,.73-26.7-.21-1.33-.58-4.22-.84-6.42-.53-4.56-4.12-17.55-5.05-18.23A4.58,4.58,0,0,1,145,44.08c-.28-.56-2.12-3.46-4.1-6.45-5.92-9-8.83-12.89-10.32-13.93a5.74,5.74,0,0,1-1.31-1.47c-.85-1.4-3.38-3.55-6.15-5.24-1.31-.79-3.75-2.5-5.43-3.79-7.22-5.54-9.77-6.47-29.89-10.87A72.06,72.06,0,0,0,68.84,0Zm3,3.16c11.76.29,24.31,4.53,34.33,7.31C109.45,11.73,116.2,16,120,19.28a29.51,29.51,0,0,0,3,2.06c1.88,1.12,4,3.29,8.72,9.16.66.82,2.56,3.61,4.21,6.19s3.17,5,3.4,5.27a8.87,8.87,0,0,1,.81,1.52c.62,1.23,1.3,2.42,2,3.58a45.68,45.68,0,0,1,4.43,12.17c1.4,6.56,3,24.11,2.37,25.73a19.18,19.18,0,0,0-.28,3.3A52.76,52.76,0,0,1,146,103l-1.47,3.73a72,72,0,0,0-.47-9.4,4.25,4.25,0,0,1-.42-1.75c0-.79-.56-1.46-1.93-2.39-1.79-1.2-2.06-1.26-3.79-.8s-15.92.88-19.86.61c-.85-.07-4.65,0-8.44.15s-8,.26-9.33.25L87,93.3c-6,0-15.09.14-20.22.39s-12.14.44-15.56.42-12.62.1-20.44.26-14.57.29-15,.28a2.13,2.13,0,0,0-1.44,1c-.56.85-.59,1.63-.21,4.77.25,2.06.56,9.52.76,16.52a23.46,23.46,0,0,1-2.32-3.43C8.39,106.74,7.73,100.76,6.07,94A91,91,0,0,1,3.85,83.09c0-.89.07-3,.09-4.61A67.62,67.62,0,0,1,5.38,65c.92-4.22,1.14-4.9,3.54-10.8C11,49.14,12.7,43.86,12.63,42.84a2.25,2.25,0,0,1,.66-1.5,5.83,5.83,0,0,0,1.1-1.64,109.36,109.36,0,0,1,6.69-11,35,35,0,0,1,3.69-4.09,32.33,32.33,0,0,0,3.35-3.67c1.2-1.65,8.77-7,12-8.53A11.21,11.21,0,0,0,42.41,11a35.51,35.51,0,0,1,3.93-2.47,29.74,29.74,0,0,1,6.8-2.75,59.18,59.18,0,0,1,9.14-1.74,26.94,26.94,0,0,0,4.54-.78,45.94,45.94,0,0,1,5-.13ZM27.21,54.73h0a1.82,1.82,0,0,0-1.06.44c-1,.73-1.07.83-.36,2.3a14.39,14.39,0,0,0,4,3.06c1.93,1.12,4.8,3,6.4,4.11a38,38,0,0,0,4.11,2.6l1.21.54-1.11,1.1a7.6,7.6,0,0,0-2.27,6.23c.69,10.45,17,7.6,14.6-2.79l2.85.24c1.57.13,3.75.42,4.86.63a8.66,8.66,0,0,0,2.49.22A14.7,14.7,0,0,1,64.68,73a3,3,0,0,0,2.5-2.33c0-1-1.59-1.44-4.7-1.43-6.51,0-15.48-2.1-18.29-4.35-.37-.29-2-1.28-3.75-2.19a57.17,57.17,0,0,1-5.19-3.18A13.18,13.18,0,0,0,32.85,58a4.77,4.77,0,0,1-1.43-1.09,10.88,10.88,0,0,0-2.72-1.77,4.08,4.08,0,0,0-1.48-.44Zm98.12,0a4.08,4.08,0,0,0-1.49.44,10.82,10.82,0,0,0-2.71,1.77A4.94,4.94,0,0,1,119.69,58a13.32,13.32,0,0,0-2.4,1.52,56.41,56.41,0,0,1-5.19,3.19,41.22,41.22,0,0,0-3.75,2.19c-2.82,2.25-11.78,4.39-18.29,4.35-3.11,0-4.72.47-4.7,1.43A3,3,0,0,0,87.86,73a14.54,14.54,0,0,1,1.74.37,8.66,8.66,0,0,0,2.49-.22c1.1-.21,3.29-.5,4.86-.63l2.86-.24c-2.41,10.39,13.9,13.24,14.6,2.79a7.6,7.6,0,0,0-2.27-6.23l-1.1-1.1,1.2-.54a36.49,36.49,0,0,0,4.11-2.6c1.6-1.14,4.47-3,6.4-4.11s3.73-2.5,4-3.06c.72-1.47.7-1.57-.35-2.3a1.82,1.82,0,0,0-1.06-.44Zm5.83,42.38c5.09,0,8,.21,8.29.49.57.56.9,4.18.82,8.82-.13,6.67-.09,7.66.4,10.89.6,3.94.62,9.86,0,11.87a3.48,3.48,0,0,1-1.22,1.87c-.45.23-4.79.46-9.66.5s-10.15.08-11.74.08c-4.54,0-28,.06-34.67.06-3.3,0-7.7-.08-9.77-.15-6.67-.23-45.9.65-50.95,1.14l-2.72.26-.26-1.48c-.3-1.74-.67-9.2-1-19.26-.12-3.91-.34-8.46-.5-10.11-.29-3-.27-3,.78-3a4.5,4.5,0,0,0,2.13-.74c.84-.59,1-.6.83-.1s.81.62,6.7.54c3.82,0,9.64-.2,12.94-.34,4.68-.21,18-.3,20.67-.15.25,0,2.36-.21,4.7-.5a73.88,73.88,0,0,1,8-.49c14.43.17,26.45.17,34.86,0,8.94-.19,16.19-.25,21.28-.2Zm-5.77,2.78a17.46,17.46,0,0,0-5,1c-4.58,1.56-5.62,2.8-3.5,4.18,1,.64,1.28.62,3.87-.27,3.89-1.35,7.95-1.08,7.95.53a6.29,6.29,0,0,1-1.44,1.84c-4.24,4.28-5.27,6.56-4.32,9.58.7,2.21,1.54,2.84,2.92,2.21.58-.27,1.07-.64,1.07-.84s.3-.25.67-.1c.81.31.88-.87.17-2.9-.51-1.47-.08-2.57,1.74-4.43a17.08,17.08,0,0,0,3.32-4.75c.72-2.84-.17-4.43-3-5.39a12.2,12.2,0,0,0-4.48-.67Zm-46,.36a7.56,7.56,0,0,0-1.15.33c-.93.35-2.56.86-3.62,1.15a3.35,3.35,0,0,0-2.77,2.39c-1.52,3.35-.93,6.15,1.78,8.43A7.57,7.57,0,0,0,76.26,114c1.37.3,1.83,1.43,1.83,4.46,0,1.94-.7,2.41-3.52,2.34-2.5-.05-3.59.67-3.59,2.4,0,.89,1,1.15,4,1.15a3.08,3.08,0,0,1,3.15,1.45c.94,1.15,1.38,1.38,2,1.09a4.19,4.19,0,0,1,1.33-.41,5.74,5.74,0,0,0,1.83-1.38,17,17,0,0,1,3.4-2.43A5.32,5.32,0,0,0,89.4,120c1.12-2.71.34-3.93-4.22-6.6l-2.86-1.67.07-2.8a12.47,12.47,0,0,1,.32-3c.13-.12.94.19,1.81.7,1.76,1,2.73.89,3.17-.5.37-1.16-1.56-2.84-3.72-3.25a4.28,4.28,0,0,1-2.22-1.24c-.9-1.14-1.41-1.5-2.37-1.33Zm-36,.24a1.52,1.52,0,0,0-1.19.49c-.39.47-.84,2.86-1,5.09,0,.3-.83.76-1.83,1s-2.06.59-2.38.71-.69-.32-.9-1.45c-.63-3.34-1.83-4.11-3.68-2.39-.74.7-.88,1.22-.7,2.64.27,2-.12,4.05-.77,4.05-.87,0-7,3.17-7.24,3.73-.65,1.7,1.56,2.26,4.75,1.21l2.54-.84-.13,2-.13,2.06-2.28.65c-2.89.82-3.74,2-2.39,3.22.72.67,1.42.85,2.9.73,1.7-.14,2,0,2.19.81a3.37,3.37,0,0,1,0,1.61c-.3.78.7,1.24,2,.9a1.2,1.2,0,0,0,.93-1.32,8.27,8.27,0,0,1,.64-2.59c.63-1.53,1.25-1.8,4.7-2.13,1-.09,1.13.09,1.33,1.85C41,125,41.94,125.71,43.6,125c.95-.44,1.15-.83,1.15-2.29,0-2.9.56-3.73,3.07-4.61,2.14-.75,2.26-.88,2.26-2.33s0-1.54-1.74-1.54c-2.29,0-3.29-1-2.9-2.83.36-1.71.33-1.69,3.31-2.92a20.61,20.61,0,0,0,2.92-1.4,3.39,3.39,0,0,0,.55-2c.05-1.35-.08-1.55-1-1.55a11.6,11.6,0,0,0-2.9.65c-1.63.57-1.88.57-2.1,0a2,2,0,0,1,0-1.27c.46-1.2-1.41-2.44-2.86-2.42Zm54.93.56c-1.65,0-2.65.89-3.7,2.91-1.18,2.26-1.18,2.91,0,6.32l.92,2.74-1.3,3.14a54,54,0,0,0-1.87,5.27,7.15,7.15,0,0,1-.94,2.35c-.63.38.5,2.23,1.86,3,2,1.17,5.09.57,7-1.36,2.35-2.34,2.73-2.45,4.73-1.29,2.31,1.34,4.38,1.77,5.53,1.15,1.77-1,1.15-2-2.08-3.56a7.55,7.55,0,0,1-2.33-1.43,7.59,7.59,0,0,1,1.55-1.88c2.53-2.53,1.83-5.11-1.21-4.46-1.81.39-2.57,1-2.57,2a1.28,1.28,0,0,1-.78,1.08c-.9.35-3.22-2.1-3.22-3.38,0-.42,1.1-1.88,2.43-3.24a12.69,12.69,0,0,0,2.73-3.65c.44-1.72-.92-4-2.88-4.74a12,12,0,0,0-3.86-1Zm-36.76.24a2.31,2.31,0,0,0-1.4.6c-.64.47-.84,1.49-1.06,5.22-.53,9-.49,9.45.92,9.94,1.09.39,1.36.29,2.22-.78s1-1.65.9-7.18-.45-7.72-1.58-7.8Zm15.26,3.82a.51.51,0,0,1,.51.12,7.14,7.14,0,0,1,.62,2.44c.21,1.72.12,2.13-.53,2.38-1.14.44-2.5-1.38-2.14-2.9a2.85,2.85,0,0,1,1.54-2Zm22.85.65c1.34,0,1.43.85.21,1.9s-1.32,1-1.32-.57c0-1.13.17-1.34,1.11-1.34ZM41.2,111.17v2.19c0,2.44-.26,2.65-3.89,3.26l-1.89.32v-1.71c0-1.93.64-2.51,3.83-3.47Zm41.59,5.69a5.9,5.9,0,0,1,2.52,1.52c.51.76.4,1.08-.52,1.58-1.69.91-2.26.58-2.26-1.32,0-1,.12-1.78.26-1.78Zm15.12,1.94c.19-.06.53.17,1,.73a5,5,0,0,1,1,1.4c0,.43-3.07,3-3.61,3s-.07-3,.72-3.83a4.22,4.22,0,0,0,.8-1.16.24.24,0,0,1,.14-.17Zm-38.47,3.85a1.83,1.83,0,0,0-1.21.54,3.79,3.79,0,0,0,.15,4c.79.88,2.38,1.12,2.38.36a3.29,3.29,0,0,1,.9-1.42c1.05-1.14,1-1.74-.37-2.34-.53-.24-1-.59-1-.78s-.41-.37-.87-.32Zm68.08.08a4.08,4.08,0,0,0-.69.09c-1.89.38-2.51,1.05-2.51,2.73a2.39,2.39,0,0,0,1,2.17c1.27.89,2.3.9,2,0-.14-.37,0-.67.24-.67a1.89,1.89,0,0,0,1.08-.78h0c.73-1,.74-1.13.08-2.57-.34-.74-.58-1-1.15-1ZM75,135.63c15.34,0,34.8.1,48.63.24a31.68,31.68,0,0,1-4.64,3.25,27.31,27.31,0,0,1-5.9,2.75,21.15,21.15,0,0,0-4.08,1.86c-13.49,6.1-33.83,8.55-51.75,4.19a54.39,54.39,0,0,1-23.35-11.65c5.86-.19,12.63-.37,22-.54,3.73-.07,10.7-.1,19.1-.1Z"/></g></g></g></svg>