<svg xmlns="http://www.w3.org/2000/svg" viewBox="0 0 82 77.66"><defs><style>.cls-1{fill:#b69564;stroke:#b69564;stroke-width:2px;}</style></defs><g id="圖層_2" data-name="圖層 2"><g id="圖層_1-2" data-name="圖層 1"><path id="Path_77866" data-name="Path 77866" class="cls-1" d="M80.81,1.07a.41.41,0,0,0-.4,0L54.19,12.65,28,1h-.11a0,0,0,0,0-.05,0,.06.06,0,0,0-.06,0h-.11L1.25,12.73a.41.41,0,0,0-.25.38V76.24a.42.42,0,0,0,.19.35.48.48,0,0,0,.23.07.35.35,0,0,0,.17,0L27.81,65,54,76.62h.07l.1,0,.11,0h.06L80.75,64.93a.43.43,0,0,0,.25-.38V1.42A.42.42,0,0,0,80.81,1.07Zm-79,12.31L27.39,2.06V64.28L1.84,75.6ZM28.23,2.06,53.78,13.38V75.6L28.23,64.28ZM80.17,64.28,54.61,75.6V13.38L80.17,2.06Z"/></g></g></svg>