<svg xmlns="http://www.w3.org/2000/svg" viewBox="0 0 96.33 74.55"><defs><style>.cls-1{fill:none;stroke-width:2px;}.cls-1,.cls-2{stroke:#b69564;}.cls-2{fill:#163d50;stroke-width:2px;}</style></defs><g id="圖層_2" data-name="圖層 2"><g id="圖層_1-2" data-name="圖層 1"><g id="Group_6874" data-name="Group 6874"><path id="Path_30525" data-name="Path 30525" class="cls-1" d="M79.7,3.12A2.27,2.27,0,0,1,82.09,1l5.17,0a2.26,2.26,0,0,1,2.38,2.13,2.15,2.15,0,0,1-1.56,2L90.3,24.33c3,1.53,5,5.39,5,9.92l-.11,35.61a3.69,3.69,0,0,1-3.7,3.69h0l-14.1,0a3.69,3.69,0,0,1-3.69-3.71h0l.1-35.61c0-4.52,2.13-8.37,5.09-9.88L81.25,5.12A2.16,2.16,0,0,1,79.7,3.12Z"/><g id="Group_6873" data-name="Group 6873"><path id="Path_77861" data-name="Path 77861" class="cls-2" d="M5.62,73.1c-.56-.39-1.1-.8-1.66-1.17a13.89,13.89,0,0,0-2.14-1,5.92,5.92,0,0,1-.64-.28c-.09,0-.18-.14-.18-.39A.26.26,0,0,1,1.24,70H83.09c.16,0,.27.07.27.2a.37.37,0,0,1-.28.42,9,9,0,0,0-2.36,1.14c-.74.45-1.4,1-2.14,1.46a1.49,1.49,0,0,1-.85.23H6.68A1.69,1.69,0,0,1,5.62,73.1Z"/><path id="Path_77862" data-name="Path 77862" class="cls-2" d="M42.18,32C21,32,3.9,48.22,3.9,68.23H80.47C80.47,48.22,63.33,32,42.18,32Z"/><path id="Path_77863" data-name="Path 77863" class="cls-2" d="M40.1,30.85c.65,0,1.35-.06,2.08-.06s1.44,0,2.08.06a3.07,3.07,0,1,0-4.34-.18l.19.18Z"/></g></g></g></g></svg>