<svg xmlns="http://www.w3.org/2000/svg" xmlns:xlink="http://www.w3.org/1999/xlink" viewBox="0 0 170.44 229.15"><defs><style>.cls-1{fill:url(#未命名漸層_9);}.cls-2{fill:#d9c7ae;}.cls-3{fill:url(#未命名漸層_10);}.cls-4{fill:url(#未命名漸層_10-2);}.cls-5{fill:url(#未命名漸層_10-3);}.cls-6{fill:url(#未命名漸層_9-2);}.cls-7{fill:url(#未命名漸層_9-3);}.cls-8{fill:url(#未命名漸層_9-4);}.cls-9{fill:url(#未命名漸層_8);}.cls-10{fill:#ff9300;}.cls-11{fill:#be6d00;}.cls-12{fill:#536702;}.cls-13{fill:#5f7603;}.cls-14{fill:#916f6f;}.cls-15{fill:#506302;}.cls-16{fill:#526602;}.cls-17{fill:#deaa87;}.cls-18{fill:#520;}.cls-19{fill:#fff;}</style><radialGradient id="未命名漸層_9" cx="-1078.35" cy="-258.44" r="0.54" gradientTransform="matrix(16.68, 14.74, -17.46, 19.74, 15323.9, 16970.53)" gradientUnits="userSpaceOnUse"><stop offset="0" stop-color="#dac9b1"/><stop offset="1" stop-color="#cab08e"/></radialGradient><radialGradient id="未命名漸層_10" cx="-1079.15" cy="-259.79" r="0.46" gradientTransform="matrix(16.96, 14.99, -19.02, 21.5, 15199.55, 17775.81)" gradientUnits="userSpaceOnUse"><stop offset="0" stop-color="#c83737"/><stop offset="1" stop-color="#ac2f2f"/></radialGradient><radialGradient id="未命名漸層_10-2" cx="-1077.12" cy="-255.48" r="0.51" gradientTransform="matrix(16.32, 14.42, -14.87, 16.81, 15307.63, 16157.01)" xlink:href="#未命名漸層_10"/><radialGradient id="未命名漸層_10-3" cx="-1079.62" cy="-256.12" r="0.5" gradientTransform="matrix(17.12, 15.12, -15.36, 17.36, 16182.83, 16982.79)" xlink:href="#未命名漸層_10"/><radialGradient id="未命名漸層_9-2" cx="-1077.75" cy="-258.71" r="0.5" gradientTransform="matrix(16.51, 14.58, -17.76, 20.09, 14920.57, 17063.61)" xlink:href="#未命名漸層_9"/><radialGradient id="未命名漸層_9-3" cx="-1074.69" cy="-257.54" r="0.48" gradientTransform="matrix(15.61, 13.79, -16.62, 18.79, 14165.32, 15940.15)" xlink:href="#未命名漸層_9"/><radialGradient id="未命名漸層_9-4" cx="-1078.98" cy="-262.73" r="0.4" gradientTransform="matrix(16.89, 14.92, -23.59, 26.68, 14187.86, 18942.3)" xlink:href="#未命名漸層_9"/><radialGradient id="未命名漸層_8" cx="-1079.45" cy="-264.98" r="0.35" gradientTransform="matrix(17.02, 15.07, -28.57, 32.35, 13280.69, 20292.61)" gradientUnits="userSpaceOnUse"><stop offset="0" stop-color="#647c03"/><stop offset="1" stop-color="#4f6202"/></radialGradient></defs><g id="圖層_2" data-name="圖層 2"><g id="圖層_1-2" data-name="圖層 1"><g id="Group_6783" data-name="Group 6783"><path id="Path_70469" data-name="Path 70469" class="cls-1" d="M89.9,144.56a15.44,15.44,0,0,0-9.22-3c-4.48.14-8.67,2.35-12.09,5.11-1.54,1.83-1.55,4.42-2,6.65-.15,3-.58,6.16.59,9,.89,1.88,3.27,1.76,4.87,1,3.84-1.69,7.85-3.41,12.13-3.1,2.82-.05,5.92-.81,7.6-3.28,2.32-2.16,3.18-6,1.24-8.65A17.78,17.78,0,0,0,89.9,144.56Z"/><path id="Path_70470" data-name="Path 70470" class="cls-2" d="M89,160.74c-1.17-1.12-2.86,0-4.24-.22-3.19.15-6.62.13-9.38,1.94-.64,1.13.57,2.34.81,3.45.79,1.5.52,4,2.57,4.49,2.32.69,4.48-.93,6.58-1.67,1.91-1,4.41-2,5.1-4.24A4.59,4.59,0,0,0,89,160.74Z"/><path id="Path_70471" data-name="Path 70471" class="cls-3" d="M70.23,101.68c-3.86-2.86-9.1-2.6-13.51-1.37-1.82.32-2,2.4-2.69,3.76-1.23,2.81-2.22,6.05-4.79,7.94-.67.5-2.53.27-2.16,1.56.94,3.52,3.28,6.9,6.89,8,4.91,1.55,10.06-.82,14-3.7,3.37-2.4,5.72-6.55,5-10.76a8.11,8.11,0,0,0-2.72-5.44Z"/><path id="Path_70472" data-name="Path 70472" class="cls-4" d="M91.32,70a10.8,10.8,0,0,0-9.41-2.61c-3.68.31-6.41,3.07-9.35,5-1.77,1.48-1.46,4.14-1.35,6.21A10.14,10.14,0,0,0,74.89,86a9.84,9.84,0,0,0,7.82,3c2.57-.1,5.32-.89,6.87-3.1,1.08-1.14,2-2.46,3.45-3.14,1.62-2.08,1.46-5,1.2-7.5A7.57,7.57,0,0,0,91.32,70Z"/><path id="Path_70473" data-name="Path 70473" class="cls-5" d="M138.64,132.11a9.91,9.91,0,0,0-8.86-1.91c-3.55.84-6.26,3.66-8.48,6.41-1.9,2.27-1.79,5.49-.64,8.07a9.64,9.64,0,0,0,3.39,5.13,10.26,10.26,0,0,0,10.74,2.24c3.35-1,6.93-3,7.89-6.63.74-3.43-.28-7-1.58-10.17a9,9,0,0,0-2.45-3.14Z"/><path id="Path_70474" data-name="Path 70474" class="cls-2" d="M117,111.44c-1.24-.65-2.55.59-3.66,1a17.09,17.09,0,0,0-5.54,4.67c1,1.36,1.64,3.19,3,4.27.92-.17,1.74-.93,2.68-1.19,1.92-.89,4.76-1.56,5.07-4.07a7.36,7.36,0,0,0-1.39-4.58.86.86,0,0,0-.14-.13Z"/><path id="Path_70475" data-name="Path 70475" class="cls-2" d="M54.63,85.4c-1.54-.39-3.13.53-4.62.88-2.67,1-5.52,1.91-7.81,3.63-.27,1,.58,2,.92,2.92,3.08,1.25,6.49.14,9.55-.64a4.1,4.1,0,0,0,3.15-4.25A5.24,5.24,0,0,0,54.63,85.4Z"/><path id="Path_70476" data-name="Path 70476" class="cls-2" d="M77.17,62.15c-1.18-.63-2.49.5-3.62.83-1.74,1-3.87,1.78-5,3.56a11.56,11.56,0,0,0,1.58,5.55c1.3.6,2.66-.64,3.73-1.28,1.69-1,2.82-2.63,4.6-3.46,1.23-.54.8-2,.17-2.83a12.52,12.52,0,0,0-1.51-2.37Z"/><path id="Path_70477" data-name="Path 70477" class="cls-6" d="M55.75,70.28c-2-1.67-4.78-3-7.31-1.75C43.87,70.4,39.6,73,35.23,75.24c-3.15,2.24-2.89,7-1.11,10A9.3,9.3,0,0,0,36.79,89c1.29,1.19,3.51,1.62,4.84.28,1.59-.31,2.86-1.53,4.43-2,3.35-1.7,7.17-2.12,10.52-3.79,3.1-1.81,3.57-6.11,2.11-9.14A10.59,10.59,0,0,0,55.75,70.28Z"/><path id="Path_70478" data-name="Path 70478" class="cls-7" d="M79.69,51.42a15.5,15.5,0,0,0-13.83-3.06c-2.51,2.76-5.2,5.41-8.64,7-.77.93-.45,2.5-.46,3.69a10.15,10.15,0,0,0,3.65,7.63c1.23,1,3,2.75,4.7,1.67,2.79-2,5.23-4.43,8.42-5.82,2.71-1.48,6.07-2.15,8.19-4.53a6.46,6.46,0,0,0-.82-5.27,6.31,6.31,0,0,0-1.22-1.31Z"/><path id="Path_70479" data-name="Path 70479" class="cls-8" d="M117.78,99.09c-2.54-1.83-5.9-1.07-8.8-.94a12.84,12.84,0,0,0-9.15,5c-2.08,2.2-3.94,4.76-4.4,7.84a9,9,0,0,0,1.6,7.88,5.82,5.82,0,0,0,8.13-.21c3.25-3,6.32-6.39,10.58-7.94,2.07-.87,4.33-2.26,4.57-4.72A7.56,7.56,0,0,0,117.78,99.09Z"/><path id="Path_70480" data-name="Path 70480" class="cls-9" d="M67.88,91.51c-1.55-1.54-3.72-2.7-5.94-2.06-4.85.87-9,3.82-12.63,7-2.24,2.4-4.67,4.83-6,7.85-.34,1.26-.19,2.59-.56,3.86a3,3,0,0,0,2,3.4,8.22,8.22,0,0,0,4.5.36c3.64-4.1,4.74-9.62,6.78-14.54,1.26-3,5.08-3.62,7.91-2.82.67.23,1.86.56,2.05,1.22-2.12-.9-4.64-1.8-6.89-.7a6.27,6.27,0,0,0-3.33,4.47c.55.72,1.7-.13,2.43-.14a24.72,24.72,0,0,1,9.62.18c1.14-1.19,2.74-2.44,3-4.19C70.78,93.67,68.93,92.58,67.88,91.51Z"/><path id="Path_70481" data-name="Path 70481" class="cls-10" d="M81,118.7c-7.52.15-15.36,1.69-21.5,6.29a30.86,30.86,0,0,0-5.73,7c-.38.83-.44,2.44.59,2.77,1.26-.52,1.89-2,3.06-2.67A37.38,37.38,0,0,1,70,124.73a30.81,30.81,0,0,1,8.5-1.78,2.57,2.57,0,0,0,2.33-2.34C80.79,120,81.51,119.06,81,118.7Z"/><path id="Path_70482" data-name="Path 70482" class="cls-11" d="M79.27,117.74a19.66,19.66,0,0,0-6.38-2.07,2.69,2.69,0,0,0-2.56.71,23.25,23.25,0,0,1-7.5,5,15.84,15.84,0,0,1-5,1.23c-1,.08-2.2-.47-3,.38a8.63,8.63,0,0,0-3,4.1c.25,1.48.8,2.9,1.19,4.34.49.33.69-.55.95-.82a21.34,21.34,0,0,1,8.23-8A39.73,39.73,0,0,1,68.58,120c1-.29,2.06-.42,3.07-.64a31.25,31.25,0,0,1,7.88-.95C80.05,118.22,79.51,117.86,79.27,117.74Z"/><path id="Path_70483" data-name="Path 70483" class="cls-12" d="M101.42,85.81a9.87,9.87,0,0,0-4.19.12,14.54,14.54,0,0,0-7.08,5.3c-1.9,2.42-3.77,4.86-5.82,7.16.07.7,1,1.06,1.61,1.4,1,.45,2.26,1,3.09,0,1.37-1.27,1.79-3.18,2.84-4.67a18.78,18.78,0,0,1,7.91-7.85c.54-.43,1.48-.61,1.74-1.27a.29.29,0,0,0-.1-.18Z"/><path id="Path_70484" data-name="Path 70484" class="cls-13" d="M101.76,81.69c-1.18-.48-2.51.12-3.71.23-2.55.48-5.47.86-7.18,3.06-2.43,3.07-4.55,6.37-6.78,9.57-.51,1-1.68,1.69-1.88,2.85s1.36,1.08,1.89.43c2.61-2.45,4.4-5.64,6.92-8.18a12.76,12.76,0,0,1,6-4c1.85-.55,3.85-.25,5.67-.81.32-.73-.28-1.56-.47-2.28a2.47,2.47,0,0,0-.5-.84Z"/><path id="Path_70485" data-name="Path 70485" class="cls-11" d="M106.63,90.59c-3.38-.87-7.21-1-10.42.56A13.44,13.44,0,0,0,91.42,97c-.59,1.46-1.78,2.58-2.27,4.06a17.65,17.65,0,0,0-.18,4.92c.59.27.77-.79,1.12-1.1a50.68,50.68,0,0,1,6.81-8.5,25.59,25.59,0,0,1,9.63-5.24c.2-.08.33-.37.1-.51Z"/><path id="Path_70486" data-name="Path 70486" class="cls-10" d="M108.84,90.88c-2.71.85-5.58,1.41-8,3a24.94,24.94,0,0,0-7.21,6.82c-1.72,2.13-3.55,4.28-4.52,6.87-.25.68-.08,1.75.84,1.68a10.15,10.15,0,0,0,4.37-1.48c1.43-1.78,2.52-3.84,4.23-5.37,2.5-2.44,5.76-3.94,8.9-5.33,1.42-.52,3-.76,4.18-1.78-.26-1.44-1.7-2.26-2.23-3.6-.2-.27-.27-.68-.58-.85Z"/><path id="Path_70487" data-name="Path 70487" class="cls-14" d="M54.1,63.79c-4.38-2.48-9.51-4.38-14.59-3.18-4,.81-7.52,3-10.75,5.36-1.85,1.51-.46,4.09-.17,6,.45,1.19.75,3.73,2.53,3.36,2.36-.92,5-.92,7.2-2.36,4.93-2.76,10.12-5,15.24-7.36C54.3,65.26,55,64.4,54.1,63.79Z"/><path id="Path_70488" data-name="Path 70488" class="cls-14" d="M129.58,121.42c-5.51-2-12-2.75-17.36.17-1.71,1.07-3.88,1.91-5,3.56,1.92,1.68,3.75,3.73,5.64,5.52,2.19,1.24,3.9-1.47,5.69-2.32,3.52-2.45,7.63-4,11.17-6.41a.36.36,0,0,0-.08-.51Z"/><path id="Path_70489" data-name="Path 70489" class="cls-13" d="M84.24,136.2c-3.33.19-6.56,1.42-9.82,2.08a33.2,33.2,0,0,0-12.67,6.24c-.58.78-2.09,1.55-1.7,2.7,1.26,1.22,3.16,1.52,4.68,2.34,1.36-1.11,2.49-2.65,4-3.69A30,30,0,0,1,84.28,140c1.14-.11.43-1.57.43-2.29C84.57,137.22,84.62,136.57,84.24,136.2Z"/><path id="Path_70490" data-name="Path 70490" class="cls-15" d="M84,134.75c-1.6-1.67-4-1.14-6.08-1.11a25.7,25.7,0,0,0-6.21,1c0,.67.9,1.87-.28,2.07-.87.35-2.42.9-2.76-.41-.26-.72-1-.59-1.33,0-1.89,2.1-4,4.07-5.47,6.52-.16.93,1,.31,1.32-.07a43.63,43.63,0,0,1,14.24-5.71c2.21-.67,4.61-.83,6.78-1.61.27-.23,0-.58-.2-.73Z"/><path id="Path_70491" data-name="Path 70491" class="cls-15" d="M134.06,126.73c-4.79,2.59-10.32,3.85-14.56,7.44-2,1.67-4.39,3-5.87,5.16-.1.94,1.27,1.26,1.77,1.87.82.67,2.35,1.78,3.15.49,1.15-1.53,1-3.69,2-5.22,3.12-3.28,6.82-6.86,11.65-7,.89,0,1.87-.38,1.82-1.41C134,127.69,134.59,126.93,134.06,126.73Z"/><path id="Path_70492" data-name="Path 70492" class="cls-13" d="M134.07,123c-1.06-.16-2,.91-3,1.23-7.5,4.12-15.23,7.89-22.4,12.6,0,.83,1.4,1.19,2,1.76,1.34,1,3,0,3.94-1,3.95-3.35,8-6.71,13-8.47,2.27-1.06,4.92-1.84,6.63-3.75a2.3,2.3,0,0,0-.2-2.37Z"/><path id="Path_70493" data-name="Path 70493" class="cls-14" d="M82.06,131.94c-3.48-2.78-7.65-5.69-12.37-4.8-6.36,1.23-10.72,6.64-14.36,11.58-.76.68-.67,2.55.69,2.22,4.26-.51,7.3-4,11.16-5.51,1.37-.74,2.91-.79,4.33-1.36,3.62-.86,7.4-.78,11-1.33C82.86,132.39,82.22,132.14,82.06,131.94Z"/><path id="Path_70494" data-name="Path 70494" class="cls-14" d="M69.45,39a49.79,49.79,0,0,0-12.53,1.18c-2.61.72-6,1.42-6.9,4.36-.92,2.37-.17,5,0,7.43.16,2,2.32,3.12,4.1,3.39,4,.12,7.24-2.84,9.82-5.53,2.79-2.95,3.75-7.06,5.7-10.49a.34.34,0,0,0-.17-.34Z"/><path id="Path_70495" data-name="Path 70495" class="cls-16" d="M44.67,47.72c-3.17,1-6.5,0-9.69.75-.4.08-1.44-.17-1.08.58.35,1.28,1.28,2.6,1.36,3.86a9.86,9.86,0,0,1-2.8.9c-.85-1-1-2.53-2-3.3-1.34.14-1.61,2-2.33,2.85-1.26,2.48-3.28,4.64-4,7.35a3.27,3.27,0,0,0,2.48,3.64c2.4-1.2,4.7-2.58,7.37-3.15,1.82-.6,3.89-.61,5.63-1.25-.16-4.21,2.26-7.94,4.77-11.14.1-.28,1-1,.31-1.09Z"/><path id="Path_70496" data-name="Path 70496" class="cls-13" d="M46.45,47.8a16.7,16.7,0,0,0-6.22,9.91c-.22.77-.27,2.65,1,2.19A10.85,10.85,0,0,0,46,52.15a34.84,34.84,0,0,0,.65-4.28l-.19-.07Z"/><path id="Path_70497" data-name="Path 70497" class="cls-17" d="M38.82,20c-.32-.45-.82.05-.47.43,3.13,6.29,7.86,11.57,12,17.21a24.37,24.37,0,0,0,2.5,3.06A3,3,0,0,0,55.1,40a16.67,16.67,0,0,0-2-3c-3.2-4.1-6.16-8.41-9.56-12.34C42,23.05,40.44,21.48,38.82,20Z"/><path id="Path_70498" data-name="Path 70498" class="cls-17" d="M22.52,27.6c-.64-.34-.51.61-.33.95.5,3.29,2.18,6.2,3.4,9.25,1.74,3.82,3.28,7.74,5.25,11.45.25.27.53.47.47.89.38,1.11.6,2.45,1.45,3.29a2.87,2.87,0,0,0,2-1.12,32.34,32.34,0,0,0-1.71-4c-2.52-5.29-4.6-10.8-7.38-16a35.6,35.6,0,0,0-3.14-4.73Z"/><path id="Path_70499" data-name="Path 70499" class="cls-17" d="M52.3,93a4.31,4.31,0,0,0-1.95.25c0,.31,0,1.2.56,1s1.17-.54,1.49-1c0-.07,0-.17-.1-.2Z"/><path id="Path_70500" data-name="Path 70500" class="cls-17" d="M67.37,126.44c-.6-.21-1.21.28-1.73.53s-.55.83,0,.75a3.52,3.52,0,0,0,1.84-.93A.28.28,0,0,0,67.37,126.44Z"/><path id="Path_70501" data-name="Path 70501" class="cls-17" d="M71.29,135.07c-.65-.4-1.48.07-2.1.31a2.9,2.9,0,0,0,.19,1.21c.5.36,1.22.07,1.75-.1a.84.84,0,0,0,.39-1.13.8.8,0,0,0-.23-.29Z"/><path id="Path_70502" data-name="Path 70502" class="cls-17" d="M121.29,127.35c-.5-.49-1.06.24-1.53.44-.68.28-.08,1,.2,1.29.39.7,1.22.1,1.68-.21.72-.28.45-.87,0-1.24A2,2,0,0,0,121.29,127.35Z"/><path id="Path_70503" data-name="Path 70503" class="cls-17" d="M139.13,151.17c-.54-.18-1.14.23-1.6.49-.19.51.48.92.66,1.35,2.79,3.84,5.63,7.66,8.59,11.38a.76.76,0,0,0,1.07.14.8.8,0,0,0,.27-.4c.25-.48.44-1.18-.12-1.54-3.12-3.66-5.73-7.72-8.84-11.39l0,0Z"/><path id="Path_70504" data-name="Path 70504" class="cls-17" d="M86.15,169.09c-.6-.13-1.17.37-1.65.67-.42.48.21,1.08.34,1.57,2.22,5.11,4.48,10.2,6.51,15.39a41.24,41.24,0,0,0,2.05,5.13c.49.41,1.21-.06,1.66-.34a1,1,0,0,0,.48-1.36l0,0c-1.88-4.63-3.9-9.21-5.84-13.82a64.86,64.86,0,0,0-3.45-7.12l-.08-.08Z"/><path id="Path_70505" data-name="Path 70505" class="cls-18" d="M21.4,25.69a14,14,0,0,0,.39,3.53c.1.48.24,1.16.29,1.51A7.21,7.21,0,0,0,22.42,32c.14.36.35.92.46,1.24a1.73,1.73,0,0,0,.28.6,5.93,5.93,0,0,1,.5,1l.65,1.39c.2.38.65,1.4.85,1.9a9.51,9.51,0,0,0,1,2,.45.45,0,0,1,.16.36,5.41,5.41,0,0,0,.63,1.63c.22.41.51,1.1,1.95,4.4.2.49.49,1.05.59,1.26.18.38.35.77.49,1.16l.28.8-.56.36a2.89,2.89,0,0,0-.66.54l-.29.47a4.07,4.07,0,0,0-.33.66,8.69,8.69,0,0,1-1,1.73.36.36,0,0,0-.13.26,2.08,2.08,0,0,1-.32.65l-1.12,1.79c-.12.19-.35.53-.52.74a5.65,5.65,0,0,0-.53.84l-.5,1a5.66,5.66,0,0,0-.77,3.46c.22.92,1.14,2.12,1.67,2.19a.48.48,0,0,1,.3.17,1.85,1.85,0,0,0,1.27.32.17.17,0,0,1,.2,0c.17.26,1.28-.4,1.21-.72,0-.11.07-.18.36-.29s.58-.24.81-.36c.76-.38,1.81-.86,2.1-1a10.83,10.83,0,0,1,2.27-.64s0,.11-.18.16a25.29,25.29,0,0,0-4.16,2.54c-.22.21-.44.41-.68.6a3.41,3.41,0,0,0-.58.56,1.76,1.76,0,0,1-.24.3,6.46,6.46,0,0,0-.8,1.37.53.53,0,0,0,0,.37.66.66,0,0,1,.05.37,5.38,5.38,0,0,0,.2,1.2c.14.53.27,1.07.29,1.19a10.1,10.1,0,0,0,.55,2.23,9.71,9.71,0,0,0,.64,1.65l.5,1.07c.42.95.47,1,.95.9a3.9,3.9,0,0,0,1-.38,3.43,3.43,0,0,1,2.38-.67l.36.06-.19.25a1.93,1.93,0,0,1-.22.28,5.34,5.34,0,0,0-.39.75,2.36,2.36,0,0,1-.49.76,5.06,5.06,0,0,0-.51,1.87,14.19,14.19,0,0,0,0,2.84,8.79,8.79,0,0,0,1.24,3,8.55,8.55,0,0,1,.73,1.37A5.37,5.37,0,0,0,35,88.05c1.08,1.29,1.33,1.54,1.73,1.73a1.75,1.75,0,0,1,.47.29,3.81,3.81,0,0,0,1.36.52s.18,0,.3.1a3.93,3.93,0,0,0,2-.16c.25-.1.33-.08.45.11a18.06,18.06,0,0,1,.89,2.08,1.43,1.43,0,0,0,1.17,1A10.22,10.22,0,0,0,47,94a10,10,0,0,1,1.09-.07c.21,0,.39,0,.39,0a1.47,1.47,0,0,1,.4-.1,2.72,2.72,0,0,0,.49-.13c.1-.08.51.55.6.91s0,.44-.78,1a5.25,5.25,0,0,0-.62.53,2.38,2.38,0,0,1-.44.4,11,11,0,0,0-1.6,1.87.75.75,0,0,1-.22.25,21,21,0,0,0-2.59,3.49.69.69,0,0,1-.18.35,17.42,17.42,0,0,0-1.52,3c-.27.76-.26.9.09.92.2,0,.22.06.18.53a6.77,6.77,0,0,1-.2,1.18c-.2.82-.17,1.48.1,1.62s.23.17.65,1.21c.23.57.24.57.78.77l.81.31c.15.06.55.21.9.32l.8.28c.11,0,.18.31.24.87a4.59,4.59,0,0,0,.69,2.1c.13.29.45.91.68,1.39a8.35,8.35,0,0,0,1.32,2.1l.6.68a9.51,9.51,0,0,0,3.55,2.35,6,6,0,0,1,.84.3c.27.15.27.16,0,.47a4,4,0,0,1-.48.44,9.57,9.57,0,0,0-2.41,3.57,2.58,2.58,0,0,0,.14,1.14l.38,1.25c.09.29.22.71.3.94s.16.46.17.52a.64.64,0,0,0,.06.18,1.76,1.76,0,0,1,.07.4,9.27,9.27,0,0,0,.72,2.84c.11.31.2.62.28.94a6.1,6.1,0,0,0,.28.82c.2.3.68.13,1.22-.44l.34-.36,1-1a20.79,20.79,0,0,1,3.29-2.78c.63-.45,1.22-.9,1.31-1s3.06-2.14,3.5-2.35.37-.15.45,0,0,.23-.77.79a22.09,22.09,0,0,0-4.59,4,4.65,4.65,0,0,1-.61.71c-.2.19-.47.47-.61.63a22.49,22.49,0,0,0-2.88,3.64,7.54,7.54,0,0,1-.55.8,2,2,0,0,0-.29.6,5.25,5.25,0,0,1-.22.67,1.3,1.3,0,0,0,.46,1.3,1.33,1.33,0,0,0,1,.41,2.33,2.33,0,0,0,.79,0,.2.2,0,0,1,.2,0,5.91,5.91,0,0,0,2.15-.41c.74-.29,1.1-.51,4.5-2.76,1.1-.72,2.07-1.32,2.14-1.33.26,0-.6,1.24-1.22,1.77A12.55,12.55,0,0,0,63,140.09a.76.76,0,0,1-.19.21,8.27,8.27,0,0,0-.59.83,7.79,7.79,0,0,1-.94,1.4A14,14,0,0,0,60,144.86a7.51,7.51,0,0,1-.55,1.5,1.07,1.07,0,0,0-.2.38,1,1,0,0,0,.49,1.16,19.51,19.51,0,0,0,3,1.32,1.19,1.19,0,0,1,.44.21.76.76,0,0,0,.26.15q.41.13.78.3a4.73,4.73,0,0,0,1,.32c.38,0,.69-.13.57-.31s.15-.46.65-.94l.27-.26-.15.83a13.63,13.63,0,0,0-.2,1.44c0,.33-.13,1.27-.24,2.1s-.22,1.68-.24,1.87-.08.69-.13,1.09a15.05,15.05,0,0,0,.18,3.67,6.87,6.87,0,0,0,.58,2.4l0,0a4.44,4.44,0,0,0,1.25,1.72c.43.17.63.2.65.1s0,0,.06.07.21.2.5.25a3.67,3.67,0,0,0,1.4.07c0-.05.07-.05.2,0a1.44,1.44,0,0,0,.58-.09,2.88,2.88,0,0,1,.64-.17,7.39,7.39,0,0,0,1.8-.84A2.32,2.32,0,0,1,74,163l.38-.1.3.57a5.12,5.12,0,0,1,.3.77,5.87,5.87,0,0,0,.67,1.49,8.18,8.18,0,0,1,.5,1.44c.12.49.29,1.1.37,1.37s.18.6.22.74a2,2,0,0,0,1.13,1.42,3.28,3.28,0,0,0,1.78.5,6.63,6.63,0,0,0,2.07-.32,3.78,3.78,0,0,1,.67-.23,2,2,0,0,0,.33-.09,1.08,1.08,0,0,1,.75-.27l.31,0,.56,1.2c.9,1.87,1.75,3.79,1.89,4.19.06.2.3.73.51,1.18s.43.87.45,1,.2.49.35.91a10.82,10.82,0,0,0,1.09,2.43c.1.09.12.19.07.23s0,.18.08.34a6.08,6.08,0,0,1,.44,1.06,5.75,5.75,0,0,0,.42,1,1.62,1.62,0,0,1,.21.51,2.91,2.91,0,0,0,.27.69c.1.23.33.76.49,1.18s.35.94.43,1.17c.17.46.78,1.87,1.24,2.85.17.37.41.93.54,1.22.35.81.59,1.14.86,1.17.76.07.8,0,1.89-.65s1.18-.6.55-1.85c-.38-.77-.78-1.66-1.32-3-.16-.4-.47-1.13-1.53-3.61-.17-.43-.54-1.28-.8-1.87-.94-2.25-1.88-4.47-2.13-5-.15-.32-.55-1.25-.9-2.06-1-2.27-1.5-3.39-1.73-3.86-.11-.23-.35-.73-.49-1.13s-.29-.72-.31-.74a14.55,14.55,0,0,1,1.45-1,8.2,8.2,0,0,0,1.9-1.47c.45-.53.84-1.34.72-1.51a.3.3,0,0,1,0-.26,7.11,7.11,0,0,0-.6-3.09,2.1,2.1,0,0,0-.72-.82c-.81-.61-.84-.7-.29-1a5.58,5.58,0,0,0,1.76-1.17.12.12,0,0,1,.1-.15h0a2,2,0,0,0,.54-.55,4.45,4.45,0,0,1,.54-.61,1.45,1.45,0,0,0,.3-.39,1.52,1.52,0,0,1,.26-.35,7.89,7.89,0,0,0,1.26-2.15.25.25,0,0,1,.09-.24,7.31,7.31,0,0,0,.47-2.31q0-.39,0-.78a4.11,4.11,0,0,0-.59-2,21.17,21.17,0,0,0-2.32-3.39c-1.29-1.51-1.37-1.58-1.89-1.92-.27-.17-.72-.47-1-.67a5.9,5.9,0,0,0-1-.53c-1.06-.4-2-.73-2.27-.8a4.84,4.84,0,0,1-1.42-.47.2.2,0,0,0-.23-.07c-.23,0-.82-.3-.67-.4a.36.36,0,0,1,.27,0,8.77,8.77,0,0,0,1.53-.28c.37-.12.49-.85.3-1.9a8.08,8.08,0,0,1-.26-2.45c.2-.75-.44-.85-2.35-.35a19.94,19.94,0,0,1-2.15.43,5.27,5.27,0,0,0-1.05.2.27.27,0,0,1-.23,0,16.42,16.42,0,0,0-2.76.7,17.87,17.87,0,0,1-2.68.69,8.78,8.78,0,0,0-1.25.31,17.73,17.73,0,0,1-2.25.81,14.9,14.9,0,0,0-3.12,1.36c-1.18.68-2.06,1.16-2.75,1.48a19.49,19.49,0,0,0-2.9,1.93c-.28.25-.27.2.13-.45a9.27,9.27,0,0,0,.51-.92,1.13,1.13,0,0,1,.3-.38,5.38,5.38,0,0,0,.66-.85,6.35,6.35,0,0,1,.85-1.07,8.5,8.5,0,0,0,.66-.68l.4-.44c.1-.1.37-.41.6-.69a12,12,0,0,1,2-2.15l.5-.36.19.4c.1.22.27.58.38.8l.18.4.87,0a3.52,3.52,0,0,0,1.49-.33c.77-.37,1-.66.86-1-.07-.15-.18-.48-.26-.72-.18-.53-.19-.53,1.4-.81.48-.09,1-.19,1.44-.32a5.6,5.6,0,0,1,1-.2,2.84,2.84,0,0,0,.65-.1,6.76,6.76,0,0,1,1.62,0c.43,0,2.63-.07,3.46-.16a2.46,2.46,0,0,1,1.23.4l.39.28a3.93,3.93,0,0,1,.42.29,3.14,3.14,0,0,0,1.12.65c.32,0,.35-.25.07-.49a3.17,3.17,0,0,0-1.12-.72s-.21-.15-.38-.37c-.29-.37-.29-.45-.17-.74a1,1,0,0,0,.05-.57,6.91,6.91,0,0,0-2.45-2.07,9,9,0,0,1-1.22-.91c-.36-.32-.82-.7-1-.84a6.9,6.9,0,0,0-2-1,.21.21,0,0,1-.21-.05c-.06-.1-.3-.17-1.82-.57a25.86,25.86,0,0,0-3.72-.44,9.47,9.47,0,0,0-2.12.21c-.22.06-.3,0-.41-.2s-.1-.27.33-.52a18.93,18.93,0,0,1,5-1.65,1.46,1.46,0,0,0,.46-.1,2.89,2.89,0,0,1,.72-.16c.33,0,.92-.18,1.31-.27a4,4,0,0,1,.9-.16c.27,0,.54,0,.81,0l1.15-.08a2.81,2.81,0,0,0,1.24-.44c.85-.48.95-.61,1.28-2,.14-.56.3-1.18.37-1.37l.11-.36-.35-.08c-.35-.08-.37-.08-.52.23a6.57,6.57,0,0,0-.33,1.23,5.68,5.68,0,0,1-.35,1.22,2.33,2.33,0,0,1-1.47.84,2.85,2.85,0,0,0-.71.12,1.3,1.3,0,0,1-.55.06.28.28,0,0,0-.2,0,1.68,1.68,0,0,1-.86.08.71.71,0,0,0-.47.1.68.68,0,0,1-.52.09.61.61,0,0,0-.4,0,2.11,2.11,0,0,1-.6.15l-.8.15-.54.13-.27.06s-.32,0-.63.1a22,22,0,0,0-4.16,1.44,1.36,1.36,0,0,1-.48.2,3.25,3.25,0,0,0-.81.35,7.16,7.16,0,0,1-1.83.71,1.85,1.85,0,0,0-.93.75.19.19,0,0,1-.2.11c-.23,0-.74.29-2.55,1.59s-2.19,1.58-2.26,1.73-.09.09-.11,0a2.7,2.7,0,0,0-.78.51,11.05,11.05,0,0,0-2,1.75,13.57,13.57,0,0,1-1.93,1.86c-.14,0-.17,0-.22-.34a5.11,5.11,0,0,0-.29-.94.93.93,0,0,1,0-1.08c.14-.27.36-.76.48-1.07a8.07,8.07,0,0,1,.83-1.34c.33-.43.75-1,.93-1.31a6.06,6.06,0,0,1,.6-.81l.86-1a10.76,10.76,0,0,1,.95-1l1-.8a36.07,36.07,0,0,1,4.3-2.7l2.2-1a24.48,24.48,0,0,1,2.87-1,4.61,4.61,0,0,0,.75-.21,2.89,2.89,0,0,1,.66-.16c1.23-.21,2.27-.43,2.92-.61a38.86,38.86,0,0,1,5.16-.62.41.41,0,0,0,.29,0,1,1,0,0,1,.43,0,22.34,22.34,0,0,0,2.59.09.61.61,0,0,0,.14-.29c0-.2,0-.25-.36-.49a10.33,10.33,0,0,0-1-.55c-.35-.16-.89-.41-1.19-.58a1.57,1.57,0,0,0-.63-.25s-.15,0-.23-.07a3.63,3.63,0,0,0-.85-.32,3.27,3.27,0,0,1-.73-.29s-.16-.08-.31-.08A.53.53,0,0,1,76,116a13.91,13.91,0,0,0-3.87-.81h-.35l.46-.77a2.53,2.53,0,0,0,.39-.87.12.12,0,0,1,0-.15c.1-.07.2-.35.66-1.86a10.14,10.14,0,0,0,.45-3.09c0-.2,0-.5,0-.66a7.69,7.69,0,0,0-.68-2.87,1.13,1.13,0,0,1-.2-.59c0-.16-.13-.49-.55-1.16a6.5,6.5,0,0,0-2.84-2.77l-.76-.41.3-.56a5.12,5.12,0,0,1,.8-1,7.53,7.53,0,0,0,.83-1c.18-.26.38-.55.46-.65a3.76,3.76,0,0,0,.41-1.65,6.53,6.53,0,0,0-1.37-2.47,36.86,36.86,0,0,0-3.45-2.91,6.42,6.42,0,0,0-2.6-1,2.66,2.66,0,0,0-.63,0,1.68,1.68,0,0,1-.55,0,1.76,1.76,0,0,0-.56,0,4.09,4.09,0,0,1-.85.15,8.13,8.13,0,0,0-1.28.28A17.6,17.6,0,0,0,58,90c-.26.13-.51.21-.57.17a.08.08,0,0,0-.12,0v0a.36.36,0,0,1-.26.11,2.32,2.32,0,0,0-.58.19c-.2.09-.38.13-.41.09a3.3,3.3,0,0,1,.35-1.27,2.66,2.66,0,0,0,.07-1.76.4.4,0,0,1-.07-.32c0-.08,0-.13-.07-.15s-.17-.18-.24-.43a2.61,2.61,0,0,0-.79-1.31L55,85l.36-.16a5.66,5.66,0,0,1,.58-.2,7.16,7.16,0,0,0,2.22-1.51,7.63,7.63,0,0,0,1.26-1.91.17.17,0,0,1,.07-.15,15.49,15.49,0,0,0,.61-2.86c.34-2.51-1.64-6.87-3.9-8.56a22.94,22.94,0,0,0-4.15-2.14c-.35-.08-.17-.3.45-.56a13,13,0,0,0,1.63-.91c1-.63,1-.68,1.19-1.1a1.44,1.44,0,0,0,.08-.68A3.84,3.84,0,0,0,53.88,63l-.93-.5c-.18-.11-.36-.18-.4-.15a4.29,4.29,0,0,1-1-.36,11.28,11.28,0,0,0-1.19-.46,4.76,4.76,0,0,1-.7-.3c-1-.57-5.47-1.79-5.8-1.57a.75.75,0,0,1-.42,0l-.35-.08.15-.23c.31-.45,1.45-2,1.53-2A4.69,4.69,0,0,0,45.49,56a2.83,2.83,0,0,1,.25-.59A8.52,8.52,0,0,0,46.51,53c.05-.39.16-1.07.24-1.53s.26-1.36.38-2,.28-1.6.35-2.08.15-1.06.2-1.28c.1-.48,0-.65-.23-.48s-.19.06-.19,0c0-.25-.23-.22-.34,0A4.52,4.52,0,0,1,44.84,47c-.32.1-.69.22-.82.28a1.42,1.42,0,0,1-.29.1l-.1,0a10.39,10.39,0,0,1-1.36.21h-.7c-.3,0-.94,0-1.43-.09a13.56,13.56,0,0,0-1.43-.07c-.3,0-.79,0-1.08,0a1.65,1.65,0,0,0-.7.09.5.5,0,0,1-.33.09,6.43,6.43,0,0,0-2.46.69c-.23.2-.16.44.13.48a2.44,2.44,0,0,0,1.24-.27c0-.06.07-.07.1,0a1.37,1.37,0,0,0,.66-.1,6.27,6.27,0,0,1,1-.2,16.87,16.87,0,0,1,2.93.13,8,8,0,0,0,2.19,0,2,2,0,0,1,.54-.1,1.8,1.8,0,0,0,.56-.11,2,2,0,0,1,.53-.14c1.13-.2,1.13-.21.42.59a18.77,18.77,0,0,0-2.79,3.65,1.28,1.28,0,0,1-.25.4,1.57,1.57,0,0,0-.3.59.64.64,0,0,1-.2.39c-.1.05-.15.13-.12.17a4.23,4.23,0,0,1-.34.92A10,10,0,0,0,40,56c0,.22-.18.68-.28,1a8.29,8.29,0,0,0-.17,2.72.26.26,0,0,1-.05.28,11,11,0,0,1-1.51.22,6.22,6.22,0,0,0-1.48.27.13.13,0,0,1-.17,0,9.32,9.32,0,0,0-2.32.54.22.22,0,0,1-.23.05,5.72,5.72,0,0,0-1.93.65c0,.06-.16.1-.29.08a13.2,13.2,0,0,0-3.9,1.81c-1,.67-1.29.71-1.93.32a2.78,2.78,0,0,1-1.26-1.38,3.08,3.08,0,0,1-.14-2.25,6.68,6.68,0,0,1,1.31-2.67,12.82,12.82,0,0,0,1.27-2,4.87,4.87,0,0,1,.46-.75c.1-.11.16-.23.13-.27s0-.16.11-.26A11,11,0,0,0,29,52.16a3.14,3.14,0,0,1,.88-1.36c.61-.51.72-.38,1.62,1.77.38.92.87,1.57,1.08,1.44a.79.79,0,0,1,.33-.1,20.68,20.68,0,0,0,2.22-.75.48.48,0,0,0,.34-.4c0-.27,0-.41-.42-1.12a.93.93,0,0,1-.14-.36A6,6,0,0,0,34.38,50c-.21-.45-.88-2-1.1-2.56-.15-.34-.26-.51-.38-.55s-.16-.09-.1-.2a2.79,2.79,0,0,0-.36-1.05c-.46-1-1.27-2.8-1.91-4.28-.22-.52-.44-1-.49-1.07a8.5,8.5,0,0,1-.36-.82,10.65,10.65,0,0,0-.5-1.13,6.63,6.63,0,0,1-.33-.68c-.61-1.42-.9-2.08-1.05-2.4s-.29-.63-.42-.93c-1.13-2.62-1.47-3.28-1.69-3.4a9.77,9.77,0,0,1-1.19-1.6c-1.48-2.23-2.38-3.42-2.63-3.4a.36.36,0,0,1-.29-.11.22.22,0,0,0-.2-.11Zm.83,1.77c.13-.08.14-.07,1.41,1.93.49.79,1.15,1.8,1.47,2.25A24.21,24.21,0,0,1,26.89,35c0,.09.12.31.2.5s.28.6.43.92.41.92.6,1.32.41.93.51,1.18a5.64,5.64,0,0,0,.41.86,2.12,2.12,0,0,1,.3.67,7.83,7.83,0,0,0,.45,1c.21.43.49,1,.61,1.32s.33.73.45,1,.21.46.23.48a.27.27,0,0,0,.05.15c.2.48.4,1,.55,1.35a7,7,0,0,0,.46,1,5.86,5.86,0,0,1,.32.67,3.79,3.79,0,0,0,.3.68c.15.29.4.85.55,1.23s.35.88.46,1.09l.5,1c.49,1,.48,1-.42,1.49a4.79,4.79,0,0,1-1,.45c-.27,0-.29,0-.36-.34a14.71,14.71,0,0,0-.6-1.5c-.45-1.06-.53-1.34-.46-1.61s.06-.47-.29-.52a.38.38,0,0,1-.34-.22c-.11-.36-1.35-3.14-1.72-3.83a14.89,14.89,0,0,1-.65-1.47,7.53,7.53,0,0,0-.36-.89c0-.08-.19-.41-.32-.74a10.65,10.65,0,0,0-.62-1.43c-.34-.66-.82-1.75-1-2.21a3.56,3.56,0,0,0-.39-.78c-.12-.19-.21-.4-.18-.45s0-.17-.11-.25a1.38,1.38,0,0,1-.25-.6A1.12,1.12,0,0,0,25,36a1.85,1.85,0,0,1-.26-.61c-.1-.31-.49-1.21-.87-2a8.48,8.48,0,0,1-1.1-2.88,9.93,9.93,0,0,0-.21-1.06c-.07-.23-.15-.6-.19-.81s-.09-.43-.1-.5c-.14-.42-.16-.61-.06-.67Zm14.94-9.08c-.05,0-.08.06-.12.14a7.79,7.79,0,0,0,1.08,2.75,4.12,4.12,0,0,1,.3.64c0,.12,1.09,2,1.89,3.35a21.08,21.08,0,0,0,2.1,2.8,8.8,8.8,0,0,1,.65.83,7.54,7.54,0,0,0,.53.73,5,5,0,0,1,.86,1.14c.25.43.63.85.7.8s.23.22.42.52a10,10,0,0,0,1.5,2.1A19.11,19.11,0,0,1,49,36.73a7.8,7.8,0,0,0,.77,1,19.36,19.36,0,0,1,1.48,2l.9,1.37-.57.46a5.65,5.65,0,0,0-2.18,3.09,6.64,6.64,0,0,0-.33,3.31c0,.49.17,1.57.26,2.42a16.69,16.69,0,0,0,.42,2.82h0a3,3,0,0,0,.62,1.24,2.61,2.61,0,0,0,1.76,1.16,15.54,15.54,0,0,0,3,.28,3.39,3.39,0,0,1,.71-.11l.61-.07-.19,1a8.08,8.08,0,0,0,.06,3.1A14.43,14.43,0,0,0,57,63.27a8.31,8.31,0,0,0,1.39,2.08,2.44,2.44,0,0,1,.43.42,1.7,1.7,0,0,0,.33.38,11.37,11.37,0,0,1,.87,1,4.58,4.58,0,0,0,.77.69,3.35,3.35,0,0,1,.6.53,4.51,4.51,0,0,0,1.41.77.19.19,0,0,1,.17.1,2.25,2.25,0,0,0,1.57.1c.5-.13.65-.23,2.21-1.44l.89-.68c.14-.1.52.71.85,1.82.18.59.34,1.14.37,1.22l.42,1.12a8.76,8.76,0,0,0,.6,1.37c.23.4.26.41.7.35L71,73l-.15.42a11.1,11.1,0,0,0-.51,3.39,6.79,6.79,0,0,0,.07,1.35,1.53,1.53,0,0,1,.11.47,11.32,11.32,0,0,0,1.3,5.07,2.15,2.15,0,0,0,.45.59c.17.17.75.79,1.26,1.38a10.78,10.78,0,0,0,2.7,2.38,7.25,7.25,0,0,1,.67.46,3.79,3.79,0,0,0,.86.35l1.14.4a5.71,5.71,0,0,0,1.16.18c.94.07,1.72.14,2.2.22a4.19,4.19,0,0,0,1,0l1.36-.2a6.06,6.06,0,0,0,2.22-.77.27.27,0,0,1,.25-.09c.22,0,.44.28.24.29a2.86,2.86,0,0,0-.62.83c-.28.45-.74,1.15-1,1.55a19.71,19.71,0,0,0-1.29,1.89c-.06.13-.3.53-.54.92s-.47.79-.52.89a2.11,2.11,0,0,1-.36.43A3,3,0,0,0,81.88,97a4.76,4.76,0,0,0-.16.93,1.11,1.11,0,0,0,.86.93A.69.69,0,0,1,83,99c.05.07.11.1.15.08a8.87,8.87,0,0,1,2.33,1.2,8.12,8.12,0,0,0,2.5.75s.12,0,.2,0a2.13,2.13,0,0,1,.12,1.22,8.59,8.59,0,0,0-.09,1.6,2.28,2.28,0,0,1,0,.64,6,6,0,0,0,0,1.74c0,.14.06.28,0,.31a.13.13,0,0,0,0,.18,1,1,0,0,1-.08.56.73.73,0,0,0,0,.69c.09.14.12.29.08.35s.51,1.23.82,1.41a5.67,5.67,0,0,0,2.77-.25,11.11,11.11,0,0,1,1.29-.34,2.6,2.6,0,0,0,1.51-.88c0-.09.08-.16.13-.15a10.86,10.86,0,0,0,1.32-1.62,8.79,8.79,0,0,1,.57-.79c.29-.37.62-.82.73-1a15.15,15.15,0,0,1,2.71-2.83c.24-.05-.14.42-1.11,1.38a12.85,12.85,0,0,0-1.63,1.75,6.46,6.46,0,0,1-.78,1.15c-.34.22-.67,1-1.35,3.27a16.55,16.55,0,0,0-.71,5.28,2.91,2.91,0,0,1,.17.66,8.52,8.52,0,0,0,.27,1c.11.34.22.67.23.73a9.73,9.73,0,0,0,.77,1.59c.37.63.5.8.66.82a.44.44,0,0,1,.31.2,4.62,4.62,0,0,0,1.93,1,6.63,6.63,0,0,0,2,.3,6.84,6.84,0,0,1,.91.06,4,4,0,0,0,2.15-.74c.69-.54,2.25-1.89,2.5-2.16a3,3,0,0,1,.52-.43c.31-.2.31-.2.68.25a17.75,17.75,0,0,1,2.3,4,6.54,6.54,0,0,1-1.22.86,14.07,14.07,0,0,0-1.54,1.12c-.22.21-.47.45-.56.55s-.13.23,0,.4l.15.24.73-.58a49.42,49.42,0,0,1,5.21-3.27,16.73,16.73,0,0,1,7.34-1.73c.68,0,1.24,0,1.26,0a7.37,7.37,0,0,1,.82.13c.43.09,1.32.23,2,.33a20.17,20.17,0,0,1,5.6,1.44c.23.11.41.24.4.3a2.71,2.71,0,0,1-.69.37,12.19,12.19,0,0,0-1.13.54c-.26.13-.79.41-1.19.59a7.62,7.62,0,0,0-.9.46c-.1.06-.41.24-.7.38l-.94.48c-.24.13-1,.53-1.76.89a36.32,36.32,0,0,0-5.07,3.15L116.05,130a3.47,3.47,0,0,0-1,.88c-.11.26-1.45.3-1.61,0a.22.22,0,0,0-.24-.07c-.1,0-.24-.09-.36-.28s-.27-.3-.33-.3a.11.11,0,0,1-.13-.1h0a16.94,16.94,0,0,0-2.24-2.32,14,14,0,0,1-2-2.07c-.34-.48-.55-.56-.8-.3s-.13.42.29.83l1.1,1.08c.4.4.83.79,1,.89a19.88,19.88,0,0,1,1.5,1.41c.1.1.31.34.45.52a7.32,7.32,0,0,0,1.44,1.34,1,1,0,0,1,.33.21.69.69,0,0,0,.32.21l.38.14a.46.46,0,0,0,.38,0c.1-.06.46-.33.81-.59,1.39-1,2.29-1.68,2.87-2.17a2.8,2.8,0,0,1,.74-.49,1.47,1.47,0,0,1,.46.5l.34.48-.29.24a1.75,1.75,0,0,1-.46.26,11,11,0,0,0-1.4.75c-.68.4-1.81,1-2.51,1.38s-2.24,1.28-4,2.4a22.52,22.52,0,0,1-2.82,1.71c-.17,0-.55.3-.47.42s0,.09-.09.09-.07.08.09.22.34.34.5.52.31.3.37.3a.31.31,0,0,1,.21.16.5.5,0,0,0,.31.18.41.41,0,0,1,.23.09,5.12,5.12,0,0,0,1.57,1c.2.06.67.17,1.06.25s.7.2.7.26.36.43.77.7c.18.12.83.64.92.73a6.08,6.08,0,0,0,1.23.84,3.1,3.1,0,0,1,.45.21,2.66,2.66,0,0,0,2,.48l.56-.13.2-.46c.12-.26.24-.46.28-.45a1.44,1.44,0,0,1,.13.58,7.76,7.76,0,0,0,.63,2.26.88.88,0,0,1,.14.36.25.25,0,0,0,0,.17,3.69,3.69,0,0,1,.13.45,3.21,3.21,0,0,0,.35.78l1,1.56a8,8,0,0,0,1.46,1.82,4.91,4.91,0,0,0,.84.68.45.45,0,0,1,.23.2,5.66,5.66,0,0,0,1.33.95,2.8,2.8,0,0,1,.53.37,11.14,11.14,0,0,0,3.22,1,8.18,8.18,0,0,0,2.56.26,5.38,5.38,0,0,1,1.06,0,.58.58,0,0,0,.32,0,3.69,3.69,0,0,1,.65-.18,9,9,0,0,0,1.61-.46c.11,0,.45-.2.76-.32l.56-.22.32.38c.46.54,2.77,3.52,2.94,3.78s.4.54.72.92c.61.72.73.89,2.4,3.23.56.78,1.07,1.49,1.15,1.58.37.43,1.06,1.33,1.65,2.16s.68.93,1.08,1a1.53,1.53,0,0,0,1.45-.4,1.67,1.67,0,0,1,.25-.28,1,1,0,0,0,.24-.27c.19-.28.16-.62-.06-.67s-.38-.33-.27-.48-.26-.82-.47-.91a7,7,0,0,1-.6-.75c-1.11-1.54-3.85-5.25-4.21-5.7-.21-.27-.69-.92-1.07-1.45s-.86-1.2-1.08-1.47c-1-1.33-1.49-2-1.43-2.09s.23-.3.95-.87a3,3,0,0,0,.65-.63.57.57,0,0,1,.24-.27c.22-.14.65-.8.59-.9a1.83,1.83,0,0,1,.43-.69,2.87,2.87,0,0,0,.18-.4c.08-.19.26-.57.4-.84a7.33,7.33,0,0,0,.46-3.18c0-.22-.08-.62-.1-.88s-.1-.9-.16-1.41a8.57,8.57,0,0,0-.72-3.19,3.1,3.1,0,0,1-.23-.73,4.35,4.35,0,0,0-.34-.91,2.63,2.63,0,0,1-.28-.7c0-.43-1.26-2.19-2.5-3.39a8.58,8.58,0,0,0-2.61-1.53l-1.06-.4c-.29-.11-.67-.25-.86-.3a1,1,0,0,1-.39-.17,18.39,18.39,0,0,1,.52-2.64.83.83,0,0,0,.29-.74,1.63,1.63,0,0,1,0-.54,6.67,6.67,0,0,0-.32-2,2.3,2.3,0,0,0-.37-.83c-.23-.3-.29-.33-.68-.22a8.08,8.08,0,0,0-2.06.8c-.22.15-.63.39-.92.54s-.8.44-1.15.64c-.84.49-2.78,1.58-3.13,1.78l-.92.43c-.35.16-1,.5-1.51.78-1.5.85-1.42.84-1.93.2a2.15,2.15,0,0,1-.41-.66,9.75,9.75,0,0,1,2.36-1.26c.39-.19,1-.48,1.28-.65s.73-.39.94-.49l.9-.46a14.08,14.08,0,0,1,2.09-.85,7,7,0,0,0,1.21-.57,1.85,1.85,0,0,0,.41-.47c.33-.48.15-.72-.88-1.18a17.54,17.54,0,0,0-4.25-1.23l-1.7-.31a.5.5,0,0,0-.36,0,.11.11,0,0,1-.16,0h0a1.48,1.48,0,0,0-1-.14.14.14,0,0,1-.17,0,6.84,6.84,0,0,0-1.86-.25l-1-.08c-.42,0-1,0-1.19,0-.51,0-.54-.1-.1-.48a1.47,1.47,0,0,0,.41-.6.87.87,0,0,1,.16-.37,5.67,5.67,0,0,0,.34-1.87c0-.22,0-.45-.06-.67a4.92,4.92,0,0,0-.37-1.24,8.26,8.26,0,0,1-.36-.94,9.84,9.84,0,0,0-.5-.9c-.19-.3-.37-.62-.53-.93,0-.09.23-.28.82-.62a4.17,4.17,0,0,0,1.92-2,7.13,7.13,0,0,0,.9-4.17,2.68,2.68,0,0,0-.2-.88c-.05,0-.07-.1-.05-.2a6,6,0,0,0-1.22-2.66A5.28,5.28,0,0,0,118,98.46a4.09,4.09,0,0,0-1.55-.86,1.91,1.91,0,0,0-.79-.1.9.9,0,0,1-.46,0,10.25,10.25,0,0,0-4,0c-.06,0-.14,0-.17,0a2.06,2.06,0,0,0-1.1.09.43.43,0,0,1-.35,0,.42.42,0,0,0-.31-.05,1.35,1.35,0,0,1-.49.06h-.41l.29-.13.3-.12a23.17,23.17,0,0,0,2.78-1.14c.38-.22.49-.34.57-.64a1.57,1.57,0,0,0-.54-1.53,11.93,11.93,0,0,1-1.91-2.76,4.42,4.42,0,0,0-.55-1,1.72,1.72,0,0,0-.86-.19,14.42,14.42,0,0,1-1.6-.15,45.85,45.85,0,0,0-5.49-.6A16.77,16.77,0,0,0,99,89.6a3.78,3.78,0,0,0-1.1.38c-.09,0-.16,0-.15,0s-.44-.1-.64,0c-.37.23-.4,0,0-.3A37.43,37.43,0,0,1,102,86.8a6.78,6.78,0,0,0,.84-.45c.33-.2.34-.23.2-.45s-.15-.23.32-.48.48-.25.4-.61a4.8,4.8,0,0,0-.29-.8,13.36,13.36,0,0,1-.51-1.26c-.45-1.28-.64-1.52-1.34-1.68a5,5,0,0,0-2.36.18.33.33,0,0,1-.28.1,15.17,15.17,0,0,0-3.2.53,1.13,1.13,0,0,1-.41.06,2,2,0,0,0-.55,0l-.35.06.27-1.14a7.82,7.82,0,0,0,.34-2.55,2.51,2.51,0,0,1,0-.67,2.57,2.57,0,0,0,0-.62,2.92,2.92,0,0,1,0-.66,8.55,8.55,0,0,0-.22-2.14c0-.08-.16-.44-.29-.82a7.87,7.87,0,0,0-1-1.92,5.79,5.79,0,0,0-1.7-2,13.46,13.46,0,0,0-1.51-1.09,16.8,16.8,0,0,0-3-1.29,1.91,1.91,0,0,1-.5-.19,13.07,13.07,0,0,0-2.34-.23.38.38,0,0,1-.21,0,14.74,14.74,0,0,0-3.11.26c-1.12.24-1.36.22-1.29-.07a.43.43,0,0,1,.13-.25,7.94,7.94,0,0,0-.94-2.39,8.34,8.34,0,0,1-.44-.9c0-.13-.23-.49-.4-.81-.47-.89-.48-.92,0-1.23.23-.15,1-.58,1.64-.94a5,5,0,0,0,1.83-1.33,5.83,5.83,0,0,0,.8-1.05,4.54,4.54,0,0,0,.09-2.53c-.1-.33-.25-.92-.33-1.32a4.34,4.34,0,0,0-.85-1.8c-.54-.83-.76-1.11-1-1.27a11.44,11.44,0,0,1-1.78-1.22,1.73,1.73,0,0,0-.62-.38,2.55,2.55,0,0,1-.57-.29,2.47,2.47,0,0,0-.53-.29c-.27-.11-.6-.27-.75-.35a21.58,21.58,0,0,0-5.2-1.26,15.28,15.28,0,0,0-2.44-.07,1.94,1.94,0,0,1-.59,0,5.34,5.34,0,0,0-.89.07c-.2,0-.39,0-.41,0a.41.41,0,0,1,.14-.4,4.41,4.41,0,0,0,.58-1.29,1.48,1.48,0,0,1,.27-.53.74.74,0,0,0,.2-.46.49.49,0,0,1,.15-.34A.15.15,0,0,0,68,44.1c0-.06,0-.19.11-.26a.91.91,0,0,0,.26-.42,14.82,14.82,0,0,1,2.16-4.34c.14-.09.15-.18,0-.34a2.38,2.38,0,0,0-1.67-.31,1.69,1.69,0,0,1-.55,0c-.11,0-.23,0-.25,0s-.07.06-.11,0a.14.14,0,0,0-.19,0,.21.21,0,0,1-.2,0,8.44,8.44,0,0,0-1.74,0,1.19,1.19,0,0,1-.46,0,11.06,11.06,0,0,0-1.63.1l-1.48.17a39.47,39.47,0,0,0-4.83.66c-1.2.3-1.6.36-1.7.21-.4-.57-2.2-2.9-2.47-3.23s-.31-.38-.45-.58-.66-.9-1.33-1.79-1.49-2-1.84-2.45l-1.4-1.87L46.9,27.82c-.35-.47-1-1.3-1.4-1.86l-1.35-1.77c-.42-.55-.65-.78-.85-.83a6.3,6.3,0,0,1-1.87-1.61,12.11,12.11,0,0,0-1.08-1.07,5.37,5.37,0,0,1-.58-.49,6.73,6.73,0,0,0-2-1.64,3.09,3.09,0,0,1-.43-.14.3.3,0,0,0-.21,0Zm1.24,1.44c.08-.05.2.07.4.34a3.26,3.26,0,0,0,.55.62l.86.7a7.65,7.65,0,0,1,.82.79A17.26,17.26,0,0,0,42.72,24a7.73,7.73,0,0,1,.67.73,2.7,2.7,0,0,0,.65.61c.17.1.32.23.32.29a7,7,0,0,0,.72,1c.39.5,1.4,1.83,2.23,3,2.26,3,2.54,3.42,2.67,3.52a11.33,11.33,0,0,1,.74.94c.77,1.06,1.56,2.11,1.88,2.49.13.16.49.64.8,1.06s.78,1,1,1.37a4.75,4.75,0,0,1,.55.85l.09.24-1,.28a3.27,3.27,0,0,1-1.16.17,7.08,7.08,0,0,1-1.06-1.26c-1.9-2.53-2.46-3.25-3.2-4.23-.46-.6-1-1.23-1.12-1.4a6.94,6.94,0,0,1-.59-.75c-.43-.62-1.77-2.42-2.09-2.8-.51-.6-1.06-1.33-1.56-2h0c-.85-1.19-2.92-4.25-3.13-4.64-.11-.2-.45-.86-.76-1.46s-.66-1.22-.75-1.4-.21-.4-.27-.49a.18.18,0,0,1,0-.24ZM52.12,42a6.18,6.18,0,0,1,1.76-.78,8.32,8.32,0,0,0,1.19-.4,9.22,9.22,0,0,1,1.26-.4c.5-.12,1.13-.29,1.38-.38a11.29,11.29,0,0,1,2.15-.39c.18,0,3.11-.35,4.22-.5a14.34,14.34,0,0,1,1.66-.06H67.3l.81,0c.21,0,.52,0,.68,0a1.57,1.57,0,0,1,.57,0c.27.07.27.07.1.26a5.51,5.51,0,0,0-.71,1.28,2.92,2.92,0,0,1-.25.5c0,.08-.34.74-.63,1.48s-.64,1.56-.76,1.83-.27.57-.3.66a13.19,13.19,0,0,1-.93,1.69,2.46,2.46,0,0,0-.33.67,1.66,1.66,0,0,1-.27.53,2,2,0,0,0-.55.89c0,.06,0,.09,0,.09a1.74,1.74,0,0,0-.5.44c-.22.24-.57.57-.76.75a2.38,2.38,0,0,0-.42.42,1.16,1.16,0,0,1-.25.29l-1,.87c-.45.38-.86.74-.94.79s-.6.43-1.17.85a8.4,8.4,0,0,1-2,1.15,9,9,0,0,1-3.06.73,2,2,0,0,0-.55,0,2,2,0,0,1-1.34-.45,1.82,1.82,0,0,0-.56-.39c-.2-.08-.59-.25-.87-.39a2.27,2.27,0,0,1-1.2-1.92A2.63,2.63,0,0,0,50,51a2.44,2.44,0,0,1-.15-.84,5.21,5.21,0,0,0-.06-1c0-.49-.09-1.14-.09-1.44a7.42,7.42,0,0,0,0-.79,3,3,0,0,1,.24-1.82,5.22,5.22,0,0,0,.18-.56,6.65,6.65,0,0,1,.77-1.5c.33-.56.43-.64,1.27-1.14Zm-5.66,5.76c.08,0,.09,0,.06.16a.45.45,0,0,0,0,.28,12.33,12.33,0,0,1-.24,1.48,8.39,8.39,0,0,0-.23,1.49c0,.05,0,.15-.07.23a1.6,1.6,0,0,0-.11.72A9.07,9.07,0,0,1,45,55.17a4.51,4.51,0,0,0-.33,1c0,.09,0,.16-.08.16a3.78,3.78,0,0,0-.78,1.19,1.39,1.39,0,0,1-.37.43,1.49,1.49,0,0,0-.43.5,4.41,4.41,0,0,1-.88.79c-.74.57-.85.63-1.2.62h0a.9.9,0,0,1-.53-.17c-.39-.46-.08-2.62.63-4.33a14.62,14.62,0,0,1,1.23-2.63,3.45,3.45,0,0,0,.28-.54,26.78,26.78,0,0,1,1.92-2.47c.22-.25.6-.63.84-.85a10.06,10.06,0,0,0,.73-.71,2.27,2.27,0,0,1,.42-.4Zm-15.86,17a26.53,26.53,0,0,1,4.82-2.57,11.45,11.45,0,0,0,1.68-.84,2.07,2.07,0,0,1,1.45-.5c2.7-.07,2.87-.1,3.47-.35a4.91,4.91,0,0,1,2.79-.12,14.58,14.58,0,0,1,4.47,1.32,2.07,2.07,0,0,0,.62.29,9,9,0,0,1,1,.4,2,2,0,0,0,.67.22s.12,0,.17.08.11.12.15.1a6.2,6.2,0,0,1,1.75.81c.56.3,1,.84,1,1.14a7.7,7.7,0,0,1-2,1.38,4.07,4.07,0,0,0-.94.45,3.6,3.6,0,0,1-.92.41,3,3,0,0,0-.73.27,3.56,3.56,0,0,1-.7.29,1.24,1.24,0,0,0-.31.1,19.14,19.14,0,0,1-1.84.66,3.67,3.67,0,0,0-1,.49,1.45,1.45,0,0,1-.56.3,7.85,7.85,0,0,0-1.2.59,10.36,10.36,0,0,1-.93.5,3.55,3.55,0,0,0-.58.3c-.23.13-.46.26-.7.37s-.63.33-1.15.63A7.88,7.88,0,0,1,40,72a20.46,20.46,0,0,0-2.63,1.46,3.6,3.6,0,0,1-.82.44,4.79,4.79,0,0,0-1.34.44,3.54,3.54,0,0,1-1.61.25,4.1,4.1,0,0,0-2.39.59,5.62,5.62,0,0,1-.78.38h0a6.17,6.17,0,0,1-1.16-2c-.19-.56-.25-.73-.5-1.4a2,2,0,0,1-.18-.76.48.48,0,0,0,0-.29,1.65,1.65,0,0,1-.1-.44,1.37,1.37,0,0,0-.13-.5.78.78,0,0,1-.13-.36,4.18,4.18,0,0,0-.42-1.7s-.06-.06,0,0,.12-.17.12-.39.12-.55.64-1.19a6.93,6.93,0,0,1,2.12-1.76ZM65.91,48.54a4.09,4.09,0,0,1,1.57-.43,9.21,9.21,0,0,1,2.34-.18L71,48a17.62,17.62,0,0,1,3.53.76,4.08,4.08,0,0,0,.89.25c.15,0,.25,0,.22.05s.19.13.5.24a3,3,0,0,1,.63.29,2.82,2.82,0,0,0,.51.38c.42.28.63.41,1.17.72a6,6,0,0,1,3.09,3.78,14,14,0,0,1,.38,2.33c0,.88-.52,1.66-1.83,2.53a8.74,8.74,0,0,1-1.53.84,3.56,3.56,0,0,0-.68.33,1.14,1.14,0,0,1-.43.24,5.1,5.1,0,0,0-.73.3,26.62,26.62,0,0,1-2.57,1,11.09,11.09,0,0,0-3,1.61A21.18,21.18,0,0,0,67,66.82a11.29,11.29,0,0,1-2.55,1.77,3.85,3.85,0,0,1-2.53-.8,25.2,25.2,0,0,1-2.66-2.5A8.65,8.65,0,0,1,57.67,63a5.62,5.62,0,0,0-.22-.73,2.9,2.9,0,0,1-.2-.82.91.91,0,0,0-.1-.4A7.21,7.21,0,0,1,57,59.6a12.46,12.46,0,0,0-.14-1.37,7.52,7.52,0,0,1,.08-1.71A1.47,1.47,0,0,1,58,55.06a19,19,0,0,0,4.41-2.91c1.06-.94,1-.89,1.07-1a4.07,4.07,0,0,1,.56-.54,2.05,2.05,0,0,0,.52-.54c0-.06.11-.18.24-.27a1,1,0,0,0,.33-.39,2.59,2.59,0,0,1,.76-.85ZM35.38,75.23a2.15,2.15,0,0,1,.93-.43,4.43,4.43,0,0,0,1.3-.66c.6-.36,1.44-.84,1.86-1s1.08-.55,1.46-.76.83-.44,1-.52.65-.33,1.08-.57c.74-.43,2.53-1.37,3.14-1.66.27-.13.49-.24,1.31-.6a20.53,20.53,0,0,1,2.3-.74,2.9,2.9,0,0,0,.62-.23c.14-.09.67,0,1.67.36l.67.2a.4.4,0,0,1,.21.09s.5.28,1.07.57a9.4,9.4,0,0,1,2.06,1.41,5.07,5.07,0,0,1,1.63,1.93,10.42,10.42,0,0,1,.61,1.14,3.81,3.81,0,0,0,.28.62,4.85,4.85,0,0,1,.38,1c.07.26.14.54.17.63a5.44,5.44,0,0,1,.15.7,2.66,2.66,0,0,0,.13.61,5.71,5.71,0,0,1-.09,1.17c-.08.6-.15,1.25-.16,1.44a.7.7,0,0,1-.13.42.2.2,0,0,0-.09.15,5.65,5.65,0,0,1-1.53,2.37,6.47,6.47,0,0,1-3.09,1.43,5.27,5.27,0,0,0-.86.25c-.21.1-.63.26-.93.36a1.21,1.21,0,0,0-.51.23s0,0-.14,0a5.78,5.78,0,0,0-.92.19l-1.29.34a12.71,12.71,0,0,0-2.9,1.15l-2.34,1A21.21,21.21,0,0,0,42,89.16s-.15,0-.29,0-.29-.06-.5.16a1.67,1.67,0,0,1-1,.61,4.2,4.2,0,0,1-1.73,0,2.07,2.07,0,0,0-.57-.3,4.61,4.61,0,0,1-1-.6,7.41,7.41,0,0,0-.59-.48,5.39,5.39,0,0,1-.55-.71h0a3.23,3.23,0,0,0-.57-.7.39.39,0,0,1-.13-.2c0-.13-.1-.4-.76-1.55s-.78-1.36-.78-1.52a2.32,2.32,0,0,0-.22-.57,7.82,7.82,0,0,1-.41-3.07c0-.13.06-.61.11-1.05a3.4,3.4,0,0,1,.45-1.62,1.23,1.23,0,0,0,.21-.37,3.41,3.41,0,0,1,.45-.69,4.49,4.49,0,0,0,.37-.49,3.29,3.29,0,0,1,.85-.73ZM71,64.53c.79-.5,1.61-1,2-1.19s.8-.38.9-.44a8.09,8.09,0,0,1,1.55-.53c.17,0,.32-.1.33-.14s.08-.07.16-.06a2.9,2.9,0,0,0,.6-.12c.43-.12.46-.11.7.23l.28.42.33.73a9.12,9.12,0,0,0,1.36,2.26c.11,0,.14.21.08.56l-.07.53-1.07.6c-1.23.69-1.66,1-1.66,1.12s-.27.43-1.4,1.25a6.65,6.65,0,0,0-1.16,1c0,.11-.28.27-.73.47a9,9,0,0,0-1.06.56,3.28,3.28,0,0,1-1.52.48h0a.43.43,0,0,1-.36-.14c0-.07-.2-.37-.36-.65a1.88,1.88,0,0,1-.26-.68c0-.09,0-.19-.06-.2a.49.49,0,0,1-.15-.32c0-.16-.15-.54-.25-.86a6.73,6.73,0,0,1-.23-.8,9.47,9.47,0,0,0-.21-.93c-.28-1-.21-1.34.33-1.81s1.24-.89,1.89-1.3ZM42.49,89.74a9,9,0,0,0,1.62-.86,4.36,4.36,0,0,1,1-.53,3.36,3.36,0,0,0,.78-.34c.36-.19.74-.37.86-.42a5.41,5.41,0,0,0,.54-.24,5.72,5.72,0,0,1,1.44-.61,3.31,3.31,0,0,0,.68-.2,8.64,8.64,0,0,1,1.23-.35c.37-.07,1.1-.26,1.62-.42a7.94,7.94,0,0,1,1.07-.26.22.22,0,0,0,.22-.1c.05-.07.12-.08.15,0a.1.1,0,0,0,.13.05c.17-.16.3-.15.61,0s.78.77.61.77.06.21.25.46a1.9,1.9,0,0,1,.4,1.19,2.82,2.82,0,0,1-.13,1.19,9.18,9.18,0,0,0-.31.88,3.42,3.42,0,0,1-1.4,1.67c-.69.42-.86.48-1.08.44a.92.92,0,0,0-.65.26s-.07,0-.07-.06-.09-.08-.21,0a1.75,1.75,0,0,1-.67.17,2.39,2.39,0,0,0-.6.14.81.81,0,0,1-.4.07.82.82,0,0,0-.44.1,3.32,3.32,0,0,1-.88.21,11.27,11.27,0,0,0-1.16.21,1,1,0,0,1-.49.07,5.94,5.94,0,0,0-1.73.16c-.06,0-.17,0-.23-.11a.66.66,0,0,0-.48-.17,3.32,3.32,0,0,1-.94-.17h0a1.13,1.13,0,0,1-.86-.68,1.51,1.51,0,0,1-.24-.57.56.56,0,0,0-.11-.32,3,3,0,0,1-.4-1.43.45.45,0,0,1,.27-.21Zm36-21.36c-.07-.1.52-.28,1.3-.4a5.57,5.57,0,0,0,.71-.14l.33-.09a1.39,1.39,0,0,0,.33-.1q.66-.12,1.32-.18a8.28,8.28,0,0,0,1.23-.18,1.63,1.63,0,0,1,.54,0c.31,0,.72,0,.9,0A11.3,11.3,0,0,1,93,72c.48.92.69,1.34.76,1.53a4,4,0,0,1,.26.9,4.64,4.64,0,0,0,.11.65,11.25,11.25,0,0,1,.16,1.64,9.39,9.39,0,0,0,.1,1.19.11.11,0,0,1,0,.14,2.22,2.22,0,0,0-.08.77,4.47,4.47,0,0,1-.19,1.26,9.51,9.51,0,0,0-.29,1A2.68,2.68,0,0,1,93,82.46a.63.63,0,0,0-.26.32c0,.14-.06.15-.13,0s-.18-.06-.56.19a1.87,1.87,0,0,0-.5.43c0,.06-.1.1-.19.08s-.33.19-.7.66a3.44,3.44,0,0,1-.6.66s-.17.16-.28.38a1.63,1.63,0,0,1-.33.49,12.05,12.05,0,0,0-1.37,1.74c0,.06-.11.11-.28.11a.63.63,0,0,0-.4.1,1.88,1.88,0,0,1-.58.26,1.26,1.26,0,0,0-.56.26c0,.06-.07.07-.1,0s-.24,0-.47.13a4.08,4.08,0,0,1-1,.28,13.8,13.8,0,0,1-2.87.25,10.38,10.38,0,0,1-1.25-.13.9.9,0,0,0-.43,0,4.58,4.58,0,0,1-2-.58c-.45-.23-.9-.44-1-.48A15.6,15.6,0,0,1,75,85.92a11.26,11.26,0,0,1-1.48-1.61h0A5.81,5.81,0,0,1,72,81.63a17.94,17.94,0,0,1-.78-4.93,9,9,0,0,1,.7-3.4.84.84,0,0,0,.2-.4c0-.06.24-.26.56-.46s.85-.52,1.17-.73a12.13,12.13,0,0,0,1-.75c.24-.21.51-.41.58-.46a23.55,23.55,0,0,0,3-2.11Zm-28,25a.52.52,0,0,1,.24,0A7.24,7.24,0,0,0,52.32,93c.1-.06.07,0-.07.15a8.48,8.48,0,0,1-1.44.94h0c-.08,0-.29-.33-.24-.44s0-.13-.09-.19-.1-.08-.08-.11Zm4.69-1.21c0-.06,0-.08.11-.07a4.89,4.89,0,0,0,1.09-.5,14.59,14.59,0,0,1,1.54-.75l1.62-.61c.56-.21,1.11-.4,1.23-.42a11,11,0,0,1,2.8-.39,3.46,3.46,0,0,1,2,.5,7.63,7.63,0,0,1,1.18.67,2,2,0,0,0,.33.24,1.24,1.24,0,0,1,.32.23c.1.11.53.49,1,.84a10.9,10.9,0,0,1,1,.92l.55.6a3.3,3.3,0,0,1,.9,2.27,4.36,4.36,0,0,1-1.18,1.89,3.21,3.21,0,0,0-.49.55,1,1,0,0,1-.23.32l-.52.61-.34.41-1.41-.29c-.77-.16-1.73-.32-2.12-.35a27,27,0,0,0-3.92.08c-.51,0-1.08.1-1.27.09a19.22,19.22,0,0,0-3.07.79c-.15,0-.3.06-.34,0a1,1,0,0,1,.1-.77,1.07,1.07,0,0,0,.18-.41,8.54,8.54,0,0,1,.8-1.6,6.54,6.54,0,0,1,2.21-1.87,3,3,0,0,1,1.66-.44c.21,0,.42,0,.62,0a2,2,0,0,1,.59,0l.92.14a8.9,8.9,0,0,1,1.43.39c.46.19.92.35,1,.39a.79.79,0,0,1,.29.17c.21.24.37.29.53.18a.26.26,0,0,0,.13-.27,1.46,1.46,0,0,0-.87-.71,3.92,3.92,0,0,1-.6-.23,5.71,5.71,0,0,0-1.22-.53,6.61,6.61,0,0,0-2.26-.16c-.07,0-.16,0-.18,0a.94.94,0,0,0-.48,0l-.79.1a6.83,6.83,0,0,0-2.25.93.29.29,0,0,1-.2.16,5.61,5.61,0,0,0-1.18,1.3,1.53,1.53,0,0,1-.29.38.11.11,0,0,0-.05.14.32.32,0,0,1-.11.26,1.13,1.13,0,0,0-.24.46,1.38,1.38,0,0,1-.19.43.3.3,0,0,0-.06.26.17.17,0,0,1-.09.2,4.73,4.73,0,0,0-.44,1.28c-.15.65-.34,1.35-.42,1.57a5.8,5.8,0,0,0-.24.84,1.94,1.94,0,0,1-.25.64,2.56,2.56,0,0,0-.27.55,10.91,10.91,0,0,1-.47,1.12,8.8,8.8,0,0,0-.42,1,9.26,9.26,0,0,1-.57,1.43,1.14,1.14,0,0,0-.16.38,10.07,10.07,0,0,1-1.26,2.24c-.87,1.4-1.35,1.94-1.67,1.9-.11,0-.21,0-.21.05s-1.34.29-1.85.16a1.71,1.71,0,0,0-.81,0,1.05,1.05,0,0,1-.63-.07l-.84-.35a6.28,6.28,0,0,1-.83-.39,2.94,2.94,0,0,1-1.07-1.72c-.15-.5-.19-.89-.1-.94a15.81,15.81,0,0,0,.64-3c0-.07-.14-.07-.22,0s0-.7.36-1.24a15.3,15.3,0,0,0,.82-1.55,9,9,0,0,1,.9-1.23l.55-.71a18.28,18.28,0,0,1,3.57-4,8.71,8.71,0,0,0,.86-.75,3.89,3.89,0,0,1,.53-.46,7.59,7.59,0,0,0,.68-.57,7.5,7.5,0,0,1,.86-.62c.38-.22.76-.5.88-.58l.36-.23,1.56-1a.16.16,0,0,0,0-.17Zm.26,9a2.44,2.44,0,0,1,.55-.35,10.13,10.13,0,0,1,3.8-1.09,4.09,4.09,0,0,0,.78,0,18.63,18.63,0,0,1,3.08-.11s.09,0,.14,0a15.65,15.65,0,0,1,4.38,1c2,.84,2.37,1.15,3.38,2.74a5,5,0,0,1,1,2.06c.1.45.23,1,.29,1.23a10.93,10.93,0,0,1,.07,4,10.8,10.8,0,0,1-2.55,5,3.39,3.39,0,0,0-.49.51,3.08,3.08,0,0,1-.78.83l-1,.86a4.12,4.12,0,0,1-.79.6s-.16.08-.24.19-.18.2-.22.2a10.28,10.28,0,0,0-.93.49,17.11,17.11,0,0,1-2.28,1.2,3.51,3.51,0,0,0-.75.44.57.57,0,0,1-.48.18,1.5,1.5,0,0,0-.69.17,5,5,0,0,1-.85.29,2,2,0,0,0-.54.17c-.09.06-.19.08-.21,0a3.08,3.08,0,0,0-1.27.27,1.44,1.44,0,0,1-.65.08,2.75,2.75,0,0,0-.7,0,15.27,15.27,0,0,1-1.66-.14,7.64,7.64,0,0,0-1.26-.1c-.06,0-.08,0-.09-.05s-.16-.14-.34-.19a11.23,11.23,0,0,1-3.72-2.31h0a11.11,11.11,0,0,1-1.91-2.6,12.34,12.34,0,0,0-.51-1.18,9.08,9.08,0,0,1-.61-1.55,4.42,4.42,0,0,0-.1-.5,1.74,1.74,0,0,1,.17-.74,1.78,1.78,0,0,1,.46,0,1.07,1.07,0,0,0,.56,0,.39.39,0,0,1,.3-.07,4.43,4.43,0,0,0,1.82-1.26,20.31,20.31,0,0,0,2.62-4.4c.15-.45.52-1.38.82-2.07a4.77,4.77,0,0,0,.46-1.38c0-.07,0-.12,0-.13a4.88,4.88,0,0,0,.76-1.71,1.06,1.06,0,0,1,.2-.43ZM92.57,83.71A14.51,14.51,0,0,1,93.85,83a10.44,10.44,0,0,1,1.56-.38c.17,0,.6-.1,1-.17.75-.17,1.33-.28,2.55-.48a8.24,8.24,0,0,0,1-.24l.13,0a.58.58,0,0,0,.14,0,4.44,4.44,0,0,1,1.45.09,3.82,3.82,0,0,1,.78,1.68,5.17,5.17,0,0,0,.27.75c.21.45.21.47-.06.56s-.32.12-.38.13a11.93,11.93,0,0,1-2.53.18,6.9,6.9,0,0,0-2.7.4,6,6,0,0,1-.71.26,10.32,10.32,0,0,0-3.09,1.64l-.68.57c-.22.17-.62.52-.89.76s-.56.52-.65.6-.26.26-.38.38c-.29.32-2.45,3-2.7,3.4-.1.16-.28.41-.39.55s-.27.35-.34.46a6.31,6.31,0,0,1-.53.63,7.31,7.31,0,0,0-.82,1.1,1.91,1.91,0,0,1-.33.42c-.06,0-.07.08,0,.11s0,.13-.19.23-.44.38-.64.58-.52.49-.8.72a.84.84,0,0,1-.87.27c-.5-.08-.51-.09-.6-.58s0-.68.67-1.33a5.16,5.16,0,0,0,.77-.91,10.55,10.55,0,0,1,.59-.89c.23-.31.37-.59.31-.61s-.06,0,0-.08a1.25,1.25,0,0,0,.26-.3,1.37,1.37,0,0,1,.35-.37.35.35,0,0,0,.16-.23,1.67,1.67,0,0,1,.37-.51c.2-.22.34-.43.32-.48s0-.1.09-.15a4.93,4.93,0,0,0,.58-.8,7.37,7.37,0,0,1,.7-1,1.88,1.88,0,0,0,.38-.58.83.83,0,0,1,.25-.41.49.49,0,0,0,.18-.25.67.67,0,0,1,.19-.3,4.79,4.79,0,0,0,.49-.69,14.75,14.75,0,0,1,1.39-1.86.13.13,0,0,0,0-.16s0-.09,0-.11h0A3.86,3.86,0,0,0,91,85a5,5,0,0,1,1.54-1.23Zm2,3.63a8.24,8.24,0,0,1,4.69-1.54l1.82,0,.9,0-.65.36c-1.55.85-2,1.08-2.5,1.38a6,6,0,0,1-.71.37,22.5,22.5,0,0,0-3.56,3,2.46,2.46,0,0,1-.4.39,2.21,2.21,0,0,0-.4.41,11,11,0,0,1-.71,1A8.31,8.31,0,0,0,92.33,94a.53.53,0,0,1-.18.28,5,5,0,0,0-.51.9,5.71,5.71,0,0,1-.47.88,6.57,6.57,0,0,0-.73,1.22c0,.2-.33.86-.37.8s0,0,0,.13A4.51,4.51,0,0,1,88.51,100c-.5.34-.51.34-1.32.14A6,6,0,0,1,85,99a.87.87,0,0,0-.32-.22h0c-.48-.18-.43-.3.39-1a2.75,2.75,0,0,0,.44-.53,1.22,1.22,0,0,1,.24-.32.12.12,0,0,0,.11-.07l.15-.16c.06-.07.41-.48.76-.93a8.39,8.39,0,0,1,.78-.9,1.16,1.16,0,0,0,.29-.37A7.42,7.42,0,0,1,88.94,93a5.18,5.18,0,0,0,.62-.78,7.25,7.25,0,0,1,.58-.76c.25-.3.49-.61.72-.94A4.81,4.81,0,0,1,91.3,90l.41-.38a1.5,1.5,0,0,0,.3-.32,19.88,19.88,0,0,1,2.56-1.92Zm.8,4.55a5.78,5.78,0,0,1,1.27-.8,13.19,13.19,0,0,1,6.57-1l1.4.22,1.55.23a1.38,1.38,0,0,1,.57.15c.07.1-.7.5-1,.53a3.25,3.25,0,0,0-.68.18c-.24.1-.74.27-1.1.4a23.59,23.59,0,0,0-5.81,3.27L97,96a15.51,15.51,0,0,0-2.65,2.84,7.46,7.46,0,0,1-.74.94.32.32,0,0,0-.13.21.37.37,0,0,1-.19.25,3.12,3.12,0,0,0-.47.49c-.14.2-.51.63-.8,1a10,10,0,0,0-.63.78l-.27.41-.33.47c-.08.11-.22.3-.31.4s-.13.22-.11.26a.12.12,0,0,1-.06.16,5.07,5.07,0,0,0-.51.79c-.22.39-.48.81-.56.93h0c-.2.27-.24.2-.23-.36,0-.24,0-.81,0-1.27a10.25,10.25,0,0,1,0-1.11c.09-.74.1-.85.05-.91a5.28,5.28,0,0,1,.1-.9,2.33,2.33,0,0,1,.69-1.47,8,8,0,0,0,1.21-2.12,5,5,0,0,1,.47-.73,5.68,5.68,0,0,0,.54-.92,4.73,4.73,0,0,1,.41-.81c.95-1.55,1.22-1.91,1.4-2a1,1,0,0,0,.41-.37,5.85,5.85,0,0,1,1-1ZM55.66,122.68a1.34,1.34,0,0,1,.4,0,15.91,15.91,0,0,0,2.29.14,14.92,14.92,0,0,0,2-.43c.09,0,.6-.17,1.14-.3a5.68,5.68,0,0,0,1.38-.49,2.2,2.2,0,0,1,.56-.26,4.92,4.92,0,0,0,.88-.39,7.12,7.12,0,0,1,.79-.37,18.92,18.92,0,0,0,1.63-1,18.83,18.83,0,0,0,3.42-2.75c.87-.87,1-1,1.55-1a5.9,5.9,0,0,1,1,0l1,.13a10.22,10.22,0,0,1,1.54.39l1.28.42a1.19,1.19,0,0,1,.35.15,3.07,3.07,0,0,0,.5.2l.65.19a7.12,7.12,0,0,1,1.52.91,1.43,1.43,0,0,1-.58,0,26.69,26.69,0,0,0-3.1.1c-.06,0-1.57.27-2.29.35a2.35,2.35,0,0,0-.57.13,3.22,3.22,0,0,1-.7.14,2.57,2.57,0,0,0-.86.24c-.16.11-.33.14-.41.08a.33.33,0,0,0-.32,0,1.2,1.2,0,0,1-.49.14,3.94,3.94,0,0,0-1.31.28.87.87,0,0,1-.42.1,5,5,0,0,0-1.79.62.35.35,0,0,1-.32.11c-.18-.06-.61.12-1.59.65a7.31,7.31,0,0,1-1.19.5,5.75,5.75,0,0,0-1.25.6,3.49,3.49,0,0,1-.81.43,20.67,20.67,0,0,0-2.65,1.81,6,6,0,0,0-1.21,1,1.5,1.5,0,0,1-.35.36c-.32.31-.62.63-.91,1a9.47,9.47,0,0,1-.75.81,3.6,3.6,0,0,0-.54.74c-.22.35-.56.85-.76,1.11a2.92,2.92,0,0,0-.43.72.63.63,0,0,1-.19.31,1.27,1.27,0,0,0-.28.44,1.47,1.47,0,0,1-.21.39c-.08,0-.16-.07-.14-.18a.54.54,0,0,0,0-.22,1.34,1.34,0,0,1-.07-.4c0-.15,0-.26-.07-.24a1.57,1.57,0,0,1-.19-.54c-.08-.31-.29-1-.48-1.54a4.54,4.54,0,0,1-.3-1.26,10.9,10.9,0,0,1,1.55-2.63,10.08,10.08,0,0,1,2.11-1.74ZM99.79,94.62a19.4,19.4,0,0,0,2.46-1.32,12.17,12.17,0,0,1,2.8-1.13,13.76,13.76,0,0,0,1.78-.48l1.11-.38.91-.31.26.53A11.58,11.58,0,0,0,111,94.19c.42.41.57.76.46,1.07,0,.12-.29.29-.73.5s-.82.42-1,.54-.36.17-.38.13a5.31,5.31,0,0,0-1.92.43,14.06,14.06,0,0,0-1.51.74,4.86,4.86,0,0,1-.94.47,2,2,0,0,0-.48.2c-.18.1-.6.33-.94.5a23.22,23.22,0,0,0-3.78,2.32,7.91,7.91,0,0,1-.61.52,4.81,4.81,0,0,0-1.1,1.06.92.92,0,0,1-.34.34,2.71,2.71,0,0,0-.9,1.16c-.11.22-.22.39-.25.34s-.58.59-1.18,1.57c-.24.38-.54.87-.68,1.07a2.87,2.87,0,0,1-1.56,1.15,2.23,2.23,0,0,0-.6.2,1.38,1.38,0,0,1-.53.17,4.46,4.46,0,0,0-.8.2c-.25.09-.5.18-.56.19a4.68,4.68,0,0,1-.64,0c-.38,0-.56-.06-.65-.2-.18-.3-.26-.56-.18-.61a.86.86,0,0,0,0-.45,1.49,1.49,0,0,1,.36-1,4.19,4.19,0,0,0,.46-.86.48.48,0,0,1,.18-.29.31.31,0,0,0,.17-.25c0-.12.09-.21.14-.2s.06,0,0-.08,0-.12,0-.12.12-.09.13-.2a1.41,1.41,0,0,1,.28-.51,2.45,2.45,0,0,0,.3-.44c.28-.4.58-.78.89-1.15,2.23-2.67,2.69-3.24,3-3.71a13.35,13.35,0,0,1,3.12-3.11,11,11,0,0,0,1.21-1c.1-.14.22-.26.28-.26Zm2.56,6.07a7.54,7.54,0,0,1,1.8-1c.25-.1.65-.27.89-.4s.66-.3.93-.41l.72-.27a4.74,4.74,0,0,1,.5-.15c.16,0,.26-.09.24-.12s.06,0,.16,0a1.67,1.67,0,0,0,.59,0,1.84,1.84,0,0,1,.47-.06,7.9,7.9,0,0,0,1.46-.08,19.7,19.7,0,0,1,4.54-.1c.16,0,.64.11,1.06.16a3.33,3.33,0,0,1,1.19.35,4.51,4.51,0,0,1,2.08,2.08c.76,1.16,1.32,2.35,1.16,2.46s0,.18.07.35a6.75,6.75,0,0,1-.45,4c-.14.21-.38.59-.53.84s-.41.54-1.38,1.15a14,14,0,0,1-2.87,1.44c-.25.1-.63.26-.84.37l-.66.31c-.16.06-1,.56-1.77,1.06a9.21,9.21,0,0,0-2.22,1.71c-.42.43-.79.85-.85.93a2.65,2.65,0,0,1-.34.33,5.55,5.55,0,0,0-.49.48,2.51,2.51,0,0,1-.68.49c-.32.16-.42.25-.43.41a1,1,0,0,1-.39.51,16.59,16.59,0,0,0-1.88,1.68.74.74,0,0,1-.27.24c-.06,0-.1.06-.08.14s0,.13,0,0-.25,0-.59.22a3.71,3.71,0,0,1-2.33.45,4.79,4.79,0,0,0-.85,0A3,3,0,0,1,99,120a.64.64,0,0,0-.26-.13,7,7,0,0,1-.91-.53,4.1,4.1,0,0,1-1.62-1.87,9.09,9.09,0,0,1-.76-2.16,2.32,2.32,0,0,0-.13-.45,1,1,0,0,1-.06-.49.62.62,0,0,0,0-.33,1.23,1.23,0,0,1,0-.54c0-.24,0-.42,0-.4s0-.17.1-.42a5.21,5.21,0,0,0,.2-1,6.19,6.19,0,0,1,.45-2,.25.25,0,0,0,.06-.26,13.61,13.61,0,0,1,1.32-3A15.39,15.39,0,0,1,98.39,105c.28-.32.54-.66.79-1a2,2,0,0,1,.45-.47,5.67,5.67,0,0,0,1.44-1.45,5.48,5.48,0,0,1,1.29-1.34ZM65.69,127.14a6.53,6.53,0,0,1,1.5-.68s.07.1.1.2,0,.23-.4.4l-.88.4c-.31.15-.47.16-.57.07s0-.18.27-.39Zm-1.64,2.46a15.11,15.11,0,0,1,2.08-1.16c.47-.2,1.08-.47,1.35-.63a8.67,8.67,0,0,1,2.63-.78,2.14,2.14,0,0,0,.62,0,1,1,0,0,1,.41,0,.68.68,0,0,0,.37,0,4,4,0,0,1,.84.06,7.93,7.93,0,0,0,1,.09,1.47,1.47,0,0,1,.5.07,6,6,0,0,0,.64.21,15.35,15.35,0,0,1,3,1.09,8.73,8.73,0,0,1,.93.78,2.28,2.28,0,0,0,.7.53.08.08,0,0,1,.1.06v0a6.09,6.09,0,0,0,1.18.85,14.14,14.14,0,0,1,1.56,1.1,6.13,6.13,0,0,0,.69.57c.25.18.29.23.19.29a.35.35,0,0,1-.35-.07c-.18-.11-.37-.09-.85.09a1.47,1.47,0,0,1-.65.18c-.06-.09-.62,0-.68.13s-.13,0-.24,0a3.48,3.48,0,0,0-1.54,0,1.76,1.76,0,0,1-.51,0,.47.47,0,0,0-.31,0,.26.26,0,0,1-.27,0,9,9,0,0,0-3.18.43c0,.06-.07,0-.11,0s-.7,0-.92.18-.17.08-.19,0a.53.53,0,0,0-.33,0,2.05,2.05,0,0,1-1.36.1c-.25-.14-.47-.08-.47.12s-.17.19-.42.28-.48.19-.54.2a2.75,2.75,0,0,1-1.42.17c-.18-.11-.3-.06-1.19.48a12.6,12.6,0,0,1-2,1.09c-.22.1-1.06.59-1.87,1.09-1.1.69-1.47,1-1.48,1.07s0,.12-.08,0-.25,0-1,.57a6.9,6.9,0,0,1-2.05,1.27,2.13,2.13,0,0,0-.33.11c-.16.17-.79.28-2.5.47h0a.89.89,0,0,1-1-.75.84.84,0,0,1,.07-.52,3.82,3.82,0,0,0,.23-.51.84.84,0,0,1,.13-.29,10.39,10.39,0,0,0,1.22-1.85.72.72,0,0,1,.17-.22,7.73,7.73,0,0,0,.6-.67,4.47,4.47,0,0,1,.6-.63.52.52,0,0,0,.2-.24,2.22,2.22,0,0,1,.45-.56c.48-.46.65-.65.63-.68l.15-.15c.09-.08.56-.54,1-1s1.08-1,1.33-1.25a7.18,7.18,0,0,0,.7-.65,10.07,10.07,0,0,1,1.67-1.22Zm37.89-17.81c0,.06,0,.13,0,.15s.07,0,.12,0a.12.12,0,0,0,0-.15c0-.07-.08,0-.11,0Zm.3.5c-.13.08,0,.23.21.19a.56.56,0,0,1,.37.11c.18.13.19.13.15-.08s-.12-.22-.35-.24a.81.81,0,0,0-.38,0ZM69.31,135.5l.86-.29c.89-.29,1-.24,1.23.45a.6.6,0,0,1-.38.76.58.58,0,0,1-.29,0,.89.89,0,0,0-.46.06.9.9,0,0,1-.46.06c-.33,0-.39-.08-.32-.23a.9.9,0,0,0-.1-.45c-.08-.19-.11-.37-.08-.39ZM63.78,143a13.36,13.36,0,0,1,1.68-.87c.13-.05.73-.39,1.33-.75a15.4,15.4,0,0,1,4-1.77c.85-.28,1.68-.56,1.85-.64a3,3,0,0,1,1-.38,16,16,0,0,0,3.26-.8c.51-.17,1.23-.37,1.59-.46l.76-.19,1.24-.19a10,10,0,0,0,1.43-.26.78.78,0,0,1,.4-.08.31.31,0,0,0,.25,0,1.43,1.43,0,0,1,.46-.13,5.73,5.73,0,0,0,.7-.13,1.24,1.24,0,0,1,.47-.06,2.18,2.18,0,0,1,.22.83c.06.43.15,1,.19,1.18.17,1,.2,1.41.11,1.53a2.69,2.69,0,0,1-1,.22l-2,.2a12.63,12.63,0,0,0-1.34.17l-.7.17a1.69,1.69,0,0,0-.5.2s-.1.07-.21.05a2.64,2.64,0,0,0-.68.13c-.26.1-.89.29-1.4.44a22.71,22.71,0,0,0-2.4,1c-.8.39-1.54.72-1.63.74-1,.2-4.54,2.71-5.84,4.09l-.94,1c-.27.28-.66.67-.85.89s-.38.38-.64.32a3.4,3.4,0,0,1-.76-.32c-.26-.13-.52-.22-.56-.16s-.08,0-.08,0a4.73,4.73,0,0,0-1.67-.78,4.64,4.64,0,0,1-.72-.32c-.71-.44-.93-.63-.88-.78a4.28,4.28,0,0,1,1-1.42c.25-.25.6-.6.75-.78s.36-.37.42-.43a5.33,5.33,0,0,0,.42-.4,7,7,0,0,1,1.27-.91Zm48.58-29.8c2.17-1.32,4.07-2.15,4.34-1.88l.39.37a9.9,9.9,0,0,1,1.41,3.58,2.28,2.28,0,0,1-.16,1.29,1.74,1.74,0,0,0-.24.62,1,1,0,0,1-.53.82,7.61,7.61,0,0,0-.72.55,1.21,1.21,0,0,1-.44.29.38.38,0,0,0-.21,0,15.19,15.19,0,0,1-1.81.78,7.26,7.26,0,0,0-1.6.68c-.28.15-.63.31-.77.37s-.48.23-.75.37a1.91,1.91,0,0,1-.56.26,8.87,8.87,0,0,1-.82-1.21c-.4-.66-1-1.53-1.25-2h0a6.06,6.06,0,0,0-.6-.81c-.19-.09-.08-.32.47-.89,2.25-2.38,2-2.16,3.85-3.29Zm-41,31.67a20.12,20.12,0,0,1,2.51-1.44c.36-.13.92-.38,1.23-.53a14.34,14.34,0,0,1,5.06-1.23h1.21a11.66,11.66,0,0,1,3.26.55l1,.28a15.26,15.26,0,0,1,3.16,1.37A6.94,6.94,0,0,1,91.16,146l.76.9a14.34,14.34,0,0,1,1.89,3.2,2.89,2.89,0,0,1,.13.88,1.22,1.22,0,0,0,0,.38,8.4,8.4,0,0,1-.45,2.63,2,2,0,0,0-.16.4,2.42,2.42,0,0,1-.4.72,3.87,3.87,0,0,0-.46.68,2.64,2.64,0,0,1-.48.62,2.05,2.05,0,0,0-.36.42A7.61,7.61,0,0,1,90,158.53a13.57,13.57,0,0,1-2.65,1.16c-.32.07-1.81.3-2.3.34a4.14,4.14,0,0,1-.79.05,3.28,3.28,0,0,0-1.17,0,2.9,2.9,0,0,1-.93,0,3.24,3.24,0,0,0-.88-.06.51.51,0,0,1-.3,0,.63.63,0,0,0-.4.08,4.48,4.48,0,0,1-1.35.3,4.87,4.87,0,0,0-1,.28l-.31.11-3.12,1.11a16.82,16.82,0,0,0-2,1,1.16,1.16,0,0,1-.4.16,5.16,5.16,0,0,0-.73.31,1.2,1.2,0,0,1-.48.2.31.31,0,0,0-.23,0,2.18,2.18,0,0,1-1.26.14.26.26,0,0,0-.28,0,.15.15,0,0,1-.2,0h0c0-.06-.09,0-.12,0s-.07.08-.06,0-.12-.17-.27-.2a1.68,1.68,0,0,1-1.08-.75h0a1.31,1.31,0,0,0-.39-.42c-.07,0-.13-.09-.11-.14a1.42,1.42,0,0,0-.19-.48,4.34,4.34,0,0,1-.27-2,.89.89,0,0,0-.11-.53c-.1-.21-.14-.41-.1-.44a.1.1,0,0,0,0-.14,4.11,4.11,0,0,1-.07-.78,5.37,5.37,0,0,0,0-.8,2,2,0,0,1,0-.49c.1-.59.13-1,.07-.93s0-.12.06-.3.06-.37,0-.39-.06-.08,0-.11,0-.1,0-.12,0-.07,0-.09.13-.75,0-.84,0-.05,0-.05a8.52,8.52,0,0,0,.47-2.41,16.31,16.31,0,0,1,.69-2.92,1.77,1.77,0,0,0,.25-.66,1.52,1.52,0,0,1,.7-1c.87-.66,1.77-1.27,2.69-1.84Zm48.9-17.18a3,3,0,0,1,.7-.38,1.82,1.82,0,0,1,.58.56l.45.55-.71.47a2.18,2.18,0,0,1-.84.4h0a3.4,3.4,0,0,1-.84-1.11,3.31,3.31,0,0,1,.65-.48Zm-11.48,9.22.43-.27c.2-.14,1.38-.88,2.64-1.67a32.27,32.27,0,0,1,4.38-2.52,15.32,15.32,0,0,0,1.5-.8A11.93,11.93,0,0,1,119,131c.17-.06,1.12-.59,2.86-1.61.64-.37,1.28-.73,1.44-.8l2.24-1.2c.36-.2,1-.52,1.48-.73a34.39,34.39,0,0,0,3.58-1.95,19.37,19.37,0,0,1,3.28-1.65c.25-.09.66.84.56,1.27a.61.61,0,0,0,0,.4c.05.07,0,.34-.21.6-.26.41-.44.55-1.71,1.38a18.78,18.78,0,0,1-1.73,1l-.89.39a25,25,0,0,1-2.76,1.07,4.31,4.31,0,0,0-1,.41,2.12,2.12,0,0,1-.47.25l-.16,0-.16,0a17.21,17.21,0,0,0-3.18,1.67,28.09,28.09,0,0,0-2.93,2.13,6.82,6.82,0,0,1-.79.63c-.33.24-.64.49-.94.75a15.69,15.69,0,0,1-1.32,1,9,9,0,0,0-1.82,1.56c-.9,1-1.38,1.3-2,1.27h-.68a1.78,1.78,0,0,1-1-.49,5.34,5.34,0,0,0-.78-.53v0c-.74-.44-1.24-.88-1.13-1ZM75.24,162.46s.07-.05.11-.08a11.68,11.68,0,0,0,1.43-.54l.63-.2a3.45,3.45,0,0,0,.43-.12l.46-.16c.22-.09.43-.16.45-.18a5.11,5.11,0,0,1,1.09-.27,12.62,12.62,0,0,1,2.46-.17,5.27,5.27,0,0,0,1,0,3.49,3.49,0,0,1,1,0,11.35,11.35,0,0,0,3.13-.35.78.78,0,0,1,.67,0c1.48,1.06,1.59,1.21,1.94,2.55a3,3,0,0,1-.46,2.92,16.38,16.38,0,0,1-3.51,2.45,28.77,28.77,0,0,1-3.54,1.48,1.55,1.55,0,0,0-.6.27.18.18,0,0,1-.23.06.66.66,0,0,0-.45.13,1.6,1.6,0,0,1-.56.22c-.14,0-.25,0-.23.07s-1.5-.08-2.13-.32h0A3,3,0,0,1,77,168a11.18,11.18,0,0,0-1.2-3.38,1.74,1.74,0,0,1-.26-.65,2.07,2.07,0,0,0-.13-.61c-.19-.56-.23-.81-.16-.92Zm46.82-30a16.61,16.61,0,0,1,2-1.19,4.48,4.48,0,0,0,.8-.37,5.82,5.82,0,0,1,1-.42,4.89,4.89,0,0,0,.75-.3,3.94,3.94,0,0,1,.83-.31,6,6,0,0,0,1.43-.55c.2-.09.81-.35,1.36-.57a22.69,22.69,0,0,0,3.42-1.7l.51-.35-.11.67a2.45,2.45,0,0,1-.16.66,1.75,1.75,0,0,0-.17.58,3.76,3.76,0,0,1-.15.6,4.53,4.53,0,0,1-.73.08,22.19,22.19,0,0,0-3.15.37,9.83,9.83,0,0,0-3.6,1.72,16.12,16.12,0,0,0-2.8,2.21,3.93,3.93,0,0,1-.87.7,1.94,1.94,0,0,0-.55.4,6.48,6.48,0,0,1-.66.81,4.18,4.18,0,0,0-1.25,2,.85.85,0,0,1-.09.45,6.15,6.15,0,0,0-.56,2,2.46,2.46,0,0,1-.14.61,10.45,10.45,0,0,0-.74,1.13c-.13.24-.62.55-.69.45s-.17,0-.31,0-.29,0-.32,0a5.92,5.92,0,0,0-.79-.51,18.41,18.41,0,0,1-1.63-1.15h0c-1.1-.89-1.16-1-.9-1.26.12-.12.49-.54.82-.93a6.84,6.84,0,0,1,1.78-1.52,18.37,18.37,0,0,0,1.52-1.15,5,5,0,0,1,.48-.44,12,12,0,0,0,1.76-1.41,20.19,20.19,0,0,1,2-1.35Zm4.3-.6a13.83,13.83,0,0,1,1.83-1.06c.31-.11.75-.29,1-.38a17.41,17.41,0,0,1,4.72-.41,22.46,22.46,0,0,1,4.09,1.62,10.49,10.49,0,0,1,3.11,3.79c.11.3.33.9.51,1.34a24.35,24.35,0,0,1,.93,3.37,12.1,12.1,0,0,1,.28,2.08c0,.16,0,.33,0,.5a5.24,5.24,0,0,1-.11,1.72c-.05,0,0,.07,0,.1s0,.17,0,.3-.15.28-.12.32-.1.69-.32,1-.17.36-.14.41a.12.12,0,0,1-.05.16,4.25,4.25,0,0,0-.46.8c-.42.89-.83,1.28-2.33,2.32a6.75,6.75,0,0,1-2.54,1.27.7.7,0,0,0-.39.15,2,2,0,0,1-.52.26,6.21,6.21,0,0,0-.75.31,5.48,5.48,0,0,1-.88.33,1.14,1.14,0,0,0-.55.24.32.32,0,0,1-.31.08,5.78,5.78,0,0,0-.93,0,3.87,3.87,0,0,1-.9,0,.26.26,0,0,0-.27.06.18.18,0,0,1-.23,0,.24.24,0,0,0-.27,0,.53.53,0,0,1-.35,0,1.43,1.43,0,0,0-.5-.09,5.06,5.06,0,0,1-.93-.23,2.17,2.17,0,0,0-.87-.16.3.3,0,0,1-.3-.06c-.05-.08-.13-.11-.18-.08a.11.11,0,0,1-.14,0h0a3.38,3.38,0,0,0-.73-.38,10.69,10.69,0,0,1-2.24-1.47,15.87,15.87,0,0,0-1.4-1.18,1.15,1.15,0,0,1-.27-.27h0a4.63,4.63,0,0,0-.4-.5c-.17-.2-.33-.39-.32-.44a3.34,3.34,0,0,0-.33-.72,15.1,15.1,0,0,1-1.76-5,4.3,4.3,0,0,0-.16-.94.3.3,0,0,1,0-.26,5.32,5.32,0,0,0,.14-.89c0-.41.11-.9.15-1.08a8.31,8.31,0,0,1,1.52-2.56,13.5,13.5,0,0,1,2.18-2.41,11,11,0,0,0,.94-.87,12.57,12.57,0,0,1,1.57-1.14Zm-41.87,38a3.3,3.3,0,0,1,.41-.23c.3-.16.67-.35.82-.45s.27-.14.55.29a21.09,21.09,0,0,1,1.2,2.31l.45,1c.09.18.34.73.55,1.22s.5,1.12.65,1.41.49,1.1.79,1.81c.58,1.41,1,2.39,1.58,3.77l.66,1.59c.16.38.37.89.49,1.13s.37.86.58,1.38.69,1.66,1.07,2.52l1,2.28c.21.5.28.79.22,1a2.8,2.8,0,0,1-1.63,1,.61.61,0,0,1-.35-.07s-.08-.23-.16-.43c-.15-.39-.78-1.83-1.29-2.94a2.59,2.59,0,0,1-.3-.94,4,4,0,0,0-.32-1.06c-.19-.46-.43-1.06-.55-1.34s-.27-.65-.36-.84-.61-1.44-.87-2.14c-.14-.36-.54-1.28-.83-1.92-.16-.35-.4-.92-.52-1.27a3.2,3.2,0,0,0-.4-.78.55.55,0,0,1-.14-.32,5,5,0,0,0-.55-1.38c-.06-.13-.23-.5-.36-.83s-.35-.84-.48-1.14-.41-.93-.61-1.43-.43-1-.48-1.13l-.46-1a8.16,8.16,0,0,0-.41-.84s0-.1.06-.16Zm53.07-18.09.51-.26c.82-.41,1-.41,1.23,0,.55.79,1.82,2.46,2.53,3.31.32.38,1,1.26,1.46,1.95,1,1.4,1.58,2.23,2.13,2.9.2.25.7.86,1.09,1.37,1.25,1.58,1.45,1.82,1.58,1.85s.15.6-.11,1.12l-.25.49-.35,0c-.41,0-.4,0-3.56-4.27-.57-.78-1.34-1.78-1.7-2.24s-1-1.25-1.35-1.77-.79-1.07-.92-1.22h0c-.13-.16-.7-.94-1.27-1.73l-1-1.44Z"/></g><path id="Path_70574" data-name="Path 70574" class="cls-19" d="M164.07,132.84a156.08,156.08,0,0,0-29.31-62.26,364.58,364.58,0,0,0-45.5-48.92C73.27,7.33,54.09-2.42,32.08.53,21.32,2,8.83,5.64,3.94,16.27.14,24.52-.7,33.84.52,42.77c1.34,9.88,4.82,19.35,8.32,28.65,2.88,7.66,5.82,15.29,8.55,23a1.47,1.47,0,0,0,0,1.18c.66,1.51,1.3,3,1.93,4.54.91,2.69,1.79,5.39,2.62,8.11a1.4,1.4,0,0,0,1.08,1c5.07,13,9.6,26.1,15.05,38.92A269.91,269.91,0,0,0,52.05,176c5.7,10,11.61,20.12,19.29,28.8,13.15,14.89,32.71,25.95,53.08,24.22,17.78-1.52,34.39-12.53,41.42-29.12C174.74,178.83,168.79,154.16,164.07,132.84Zm-33.74,92.25c-20.32,4.46-40.84-5.54-54.69-20-8.58-9-14.92-19.86-21-30.6a265.33,265.33,0,0,1-14.28-28.58C33.82,130.31,28.52,114.3,22,98.74c-5.37-15.35-12-30.3-16.32-46-2-7.29-3.27-14.84-2.47-22.41A42.77,42.77,0,0,1,6,18.9c2.84-7,8.25-10.4,15.15-12.77,22.05-7.6,44.07-.55,61.51,13.8C98.11,32.61,112.14,48,125,63.23c13.86,16.39,25.84,34.59,32.24,55.24a276.6,276.6,0,0,1,7.47,32.78c1.9,10.54,3.31,21.36,2.2,32.08-2.13,20.63-16.14,37.26-36.6,41.76Z"/></g></g></svg>