<svg xmlns="http://www.w3.org/2000/svg" viewBox="0 0 202.4 175.74"><defs><style>.cls-1,.cls-2{fill:#fff;}.cls-2{stroke:#fff;stroke-miterlimit:10;stroke-width:0.6px;}.cls-3{fill:#163d50;}</style></defs><g id="圖層_2" data-name="圖層 2"><g id="圖層_1-2" data-name="圖層 1"><g id="Group_6379" data-name="Group 6379"><g id="Group_6377" data-name="Group 6377"><g id="Group_6311" data-name="Group 6311"><path id="Path_30381" data-name="Path 30381" class="cls-1" d="M91.07,88.78c-1.91-2.86-3.55-6.66-3.57-10.14,0-1.34,1-2.3,1.93-3.13C91.81,73.25,94.54,71.26,97,69a.68.68,0,0,1,.83,0c3.39,2.62,5.52,6.24,8,9.7,2.89,4.12,6,9.44,10.12,12.41a.83.83,0,0,1,.3,1c-1.39,4-5,5.93-7.84,8.78-3.82,3.84-7.56,7.82-11.88,11.12-7.82,6-16.14-4.37-21.87-8.06-.76-.5.06-1.64.82-1.16A68.15,68.15,0,0,1,84.7,110c1.91,1.75,6.13,1.93,8.59,1.62,2-.26,3.79-2.32,5.28-3.58,3.38-2.87,6.4-6.11,9.52-9.23,1.62-1.62,3.52-2.86,5.07-4.56,1.76-2,.29-2.94-1-4.33-2.45-2.57-4-5.92-6.32-8.63-2.47-2.91-4.18-6.34-6.56-9.32-2.12-2.68-3.64.31-5.41,2-1.48,1.44-4.5,2.37-4.88,4.73-.51,3.11,1.89,6.69,2.9,9.52.17.47-.47,1-.79.51Z"/></g><g id="Group_6312" data-name="Group 6312"><path id="Path_30382" data-name="Path 30382" class="cls-1" d="M73.05,100a30.62,30.62,0,0,1,4.54,9.33c1.16,3.73,2.76,7.35,2.93,11.3a.73.73,0,0,1-.77.68h0A29,29,0,0,0,74.3,121c-.73,0-.8-1.22-.07-1.27a28.55,28.55,0,0,1,5.62.13l-.78.86c-.38-3.51-1.65-6.67-2.66-10-1.06-3.52-3-7-3.54-10.6A.1.1,0,0,1,73,100a.12.12,0,0,1,.1,0Z"/></g><g id="Group_6313" data-name="Group 6313"><path id="Path_30383" data-name="Path 30383" class="cls-1" d="M74.55,120.16c2.22,1.85,5.91,4.11,4.16,7.44a37.94,37.94,0,0,1-4.42,6.25c-1.79,2.22-3.56,3.64-3.18,7,.17,1.58.69,3.14.91,4.72.15,1-1.44,1.25-1.51.27-.37-5.21-1.86-7.51,1.77-11.88,1.49-1.81,3-3.57,4.41-5.47,2.75-3.8-.85-5.32-2.73-7.73-.29-.38.2-1,.59-.64Z"/></g><g id="Group_6314" data-name="Group 6314"><path id="Path_30384" data-name="Path 30384" class="cls-1" d="M72.77,146.44c-2.22.81-4.93.38-7.17-.12-2.4-.52-6.58-1.24-8.07-3.43a.64.64,0,0,1,.53-1c2.16.31,4.36,1.78,6.5,2.43a31.3,31.3,0,0,0,8,1C73.13,145.34,73.33,146.24,72.77,146.44Z"/></g><g id="Group_6315" data-name="Group 6315"><path id="Path_30385" data-name="Path 30385" class="cls-1" d="M59.51,140.18a37.82,37.82,0,0,1-4.34,9.29c-.61,1-2.24,3.55-3.88,2.89-2.93-1.19-5.72-3.1-8.58-4.52-1.81-.9-4.1-1.51-5.18-3.33-.82-1.39,1.37-4.89,1.8-6.15.49-1.46,1.94-6,3.9-6.37,1.8-.32,3.36.7,4.85,1.66,3.55,2.29,7.35,4,11.05,6,.77.42,0,1.51-.79,1.11-4-2.08-8-3.65-11.69-6.22-3-2.09-4.32.42-5.45,3.19-.43,1.06-2.79,5.82-1.58,6.8s3.59,1.77,4.77,2.36c2,1,3.91,1.94,5.8,3,3.52,2,7.26-7.86,8.53-10.16.26-.47.9,0,.79.42Z"/></g><g id="Group_6316" data-name="Group 6316"><path id="Path_30386" data-name="Path 30386" class="cls-1" d="M55.21,141.2A42.46,42.46,0,0,1,53,145.51a7.13,7.13,0,0,1-1.53,2.34c-1.26,1.19-3.65-.56-4.71-1.21-1.26-.78-4.88-1.85-4.84-3.85,0-2.46,2.72-5.06,4.52-6.48.14-.1.34.07.23.21A48.4,48.4,0,0,0,44,140.91c-1.68,2.66,1.59,3.44,3.29,4.37.58.31,1.13.67,1.67,1,1.58,1,2.47.16,3.1-1.16A16.9,16.9,0,0,1,54.76,141a.28.28,0,0,1,.37,0,.29.29,0,0,1,.08.26Z"/></g><g id="Group_6317" data-name="Group 6317"><path id="Path_30387" data-name="Path 30387" class="cls-1" d="M54.94,141.19c-2.25-.08-4.31-1.88-6.21-3a9.21,9.21,0,0,0-2-.94c-.82-.32-1.34,1-1.74,1.54a10.63,10.63,0,0,1-1.89,2,.28.28,0,0,1-.4,0,.27.27,0,0,1,0-.26c.54-1.33,1.75-2.36,2.63-3.48a1.49,1.49,0,0,1,1.24-.75A9.33,9.33,0,0,1,50,137.82a40.1,40.1,0,0,1,5.09,3,.18.18,0,0,1,0,.27A.19.19,0,0,1,54.94,141.19Z"/></g><g id="Group_6318" data-name="Group 6318"><path id="Path_30388" data-name="Path 30388" class="cls-1" d="M52.65,144.94c-.93-.49-1.86-1-2.82-1.45-.73-.35-1.82-.45-2.18-1.24a.42.42,0,0,1,.2-.53c.76-.44,1.71.22,2.43.54a18.68,18.68,0,0,1,3,1.76C53.91,144.46,53.28,145.27,52.65,144.94Z"/></g><g id="Group_6319" data-name="Group 6319"><path id="Path_30389" data-name="Path 30389" class="cls-1" d="M73.25,145.88c0,1.2,1.17,4.89.31,6.05-1,1.43-2.86,1.34-4.51,1.37a38.26,38.26,0,0,1-9.6-1c-2.07-.5-4.51-.81-6.06-2.37-.59-.59.31-1.51,1-1,3.15,2.22,7.63,2.67,11.34,2.89,1.35.09,7.09,1.16,6.6-1.82a12.16,12.16,0,0,1-.19-4.21.57.57,0,0,1,1.14.09Z"/></g><g id="Group_6320" data-name="Group 6320"><path id="Path_30390" data-name="Path 30390" class="cls-1" d="M42.33,133.67c-2.44-.69-4-3.06-5.8-4.71-1.08-1-1.78-2.85-3.56-1.57A22.19,22.19,0,0,1,30,129.33c-2.2,1.08,2.29,7.42,3,8,.89.79,1.62,1.76,2.45,2.6,1.17,1.17,2.62,1.89,3.71,3.11a.39.39,0,0,1-.06.56.42.42,0,0,1-.27.09c-1.61-.28-2.4-1.17-3.41-2.44-1.25-1.56-2.8-2.85-4.1-4.38-1.71-2-4.1-4.8-3.21-7.67.31-1,2.77-2,3.4-2.47s1.89-1.48,2.9-1.4,1.81,1.42,2.41,2.07c1.82,2,3.83,3.88,5.83,5.69a.33.33,0,0,1,.06.47A.34.34,0,0,1,42.33,133.67Z"/></g><g id="Group_6321" data-name="Group 6321"><path id="Path_30391" data-name="Path 30391" class="cls-1" d="M73.49,149.45c3.53,3.23,9.82,4.33,14.34,5.7,4.25,1.28,8.6,2,12,5.06,6.12,5.46-1,11.16-6.45,12.83-5.31,1.63-11,1.76-16.46,2.43a26.42,26.42,0,0,1-14.7-2.08c-4.83-2.24-9.23-6.08-13.18-9.6s-5.53-8-8.21-12.33c-.33-.55.54-1.06.93-.59,2.55,3.09,3.86,6.91,6.59,9.91,3,3.32,7.12,6,10.78,8.5,9,6.18,19.06,4.31,29.26,3,3.94-.49,11.22-2.41,12-7.08.7-4.13-6.08-6.33-8.82-7.2-3.94-1.25-7.89-2.6-11.86-3.72-2.66-.76-5.5-1.47-7.25-3.76-.5-.65.36-1.71,1-1.11Z"/></g><g id="Group_6322" data-name="Group 6322"><path id="Path_30392" data-name="Path 30392" class="cls-1" d="M44,155.74c-3.23-5.55-7.89-9.88-14.48-10.49-4.94-.46-10,.51-15,.24C5.62,145,1.68,139.14.39,131c-1-6.48-.51-14.66,7.28-15.78,10-1.44,14.32,10.29,23.37,12.08.84.17.78,1.48-.1,1.36-7.23-1-11.33-7.58-17.5-10.63A11.1,11.1,0,0,0,7,117.35c-3.89.58-4.66,4.4-5,7.6a23.75,23.75,0,0,0,2,12.41c4.31,9.16,17.68,5.67,25.62,6,7.07.28,12.4,5.92,14.47,12.33a.08.08,0,0,1-.05.1A.08.08,0,0,1,44,155.74Z"/></g><g id="Group_6323" data-name="Group 6323"><path id="Path_30393" data-name="Path 30393" class="cls-1" d="M64.46,174.13c-13.52-2-23.2-13.24-34.91-19.16-5.79-2.93-12.31-3.92-18-6.89C6.19,145.33,4.43,141.61,2,136.5c-.23-.47.46-.77.72-.34,3.25,5.47,6.92,9.3,13,11.72C21,150,26.54,151.21,31.69,154c11.23,6.16,20.41,15.46,33,19.24a.44.44,0,0,1,.24.59A.43.43,0,0,1,64.46,174.13Z"/></g><g id="Group_6324" data-name="Group 6324"><path id="Path_30394" data-name="Path 30394" class="cls-1" d="M90.7,86.8c-3.13-3.93-.17-8.47,3.85-10.06,1.87-.74,3.39,1.18,4.49,2.39,2.21,2.41,4.88,4.92,6.47,7.77.32.58-.52,1-.92.59-2.46-2.66-4.72-5.47-7.09-8.19-2-2.26-3.94-.78-5.62.81-2,2-1.17,4.19-1.08,6.66,0,0-.07.07-.09,0Z"/></g><g id="Group_6325" data-name="Group 6325"><path id="Path_30395" data-name="Path 30395" class="cls-1" d="M105.82,84.6c1.25,2.8-.41,6.22-2,8.53-2,2.84-6.13,3.56-9.35,3.32-4.63-.34-8.56-4.07-12.11-6.64-5-3.6-9.86-7.23-15.75-9.21a19.2,19.2,0,0,0-5.4-1c-4.45-.17-4.79,3.74-5.29,7.23-.91,6.32-.62,12.7-.55,19.06.06,4.89-.75,10-4.22,13.65-3.79,4-10.79,5-15.45,7.78-.53.32-1.1-.57-.58-.92,4.4-3,9.71-4.35,14-7.39,5.74-4,4.59-12.93,4.45-19-.13-5.5-.3-11.1.88-16.51.67-3.07,1.88-5,5.09-5.57,7-1.33,15.24,4.43,20.42,8.2C84.4,89.38,89,93.9,94.55,95c7.34,1.4,9.63-4.76,11-10.34a.14.14,0,0,1,.26,0Z"/></g><g id="Group_6326" data-name="Group 6326"><path id="Path_30396" data-name="Path 30396" class="cls-1" d="M72.41,126.64a30.05,30.05,0,0,0-3.22,6.47c-.88,2.67-.88,5.49-1.36,8.23,0,.25-.42.3-.46,0-.81-5.12.89-11.44,4.83-14.92C72.33,126.34,72.49,126.51,72.41,126.64Z"/></g><g id="Group_6327" data-name="Group 6327"><path id="Path_30397" data-name="Path 30397" class="cls-1" d="M67.48,143.68a2.25,2.25,0,0,0,.14.44,1.43,1.43,0,0,1,.06.51,2.87,2.87,0,0,1-.29,1.15c-.26.56-1.14.26-.92-.33a7.47,7.47,0,0,0,.31-1c.06-.27.25-.47.29-.73s.38-.27.41,0Z"/></g><g id="Group_6328" data-name="Group 6328"><path id="Path_30398" data-name="Path 30398" class="cls-1" d="M58,125.31a20.39,20.39,0,0,1-1.48,2c-.7.75-1.24,1.64-2,2.33-.2.18-.43-.06-.39-.27.42-1.86,2.4-3,3.77-4.13a.07.07,0,0,1,.09,0A.08.08,0,0,1,58,125.31Z"/></g><g id="Group_6329" data-name="Group 6329"><path id="Path_30399" data-name="Path 30399" class="cls-1" d="M51.88,133.12a9.4,9.4,0,0,1-1.64,2.5.56.56,0,1,1-.91-.65,16.21,16.21,0,0,1,2-2.26.36.36,0,0,1,.52.06A.37.37,0,0,1,51.88,133.12Z"/></g><g id="Group_6330" data-name="Group 6330"><path id="Path_30400" data-name="Path 30400" class="cls-1" d="M43.69,127.9a6.51,6.51,0,0,1-2,1.85,9,9,0,0,0-1.35,1.19c-.28.31-.32.59-.75.62a.2.2,0,0,1-.2-.1l-.08-.14a.43.43,0,0,1,0-.41,10,10,0,0,1,4.17-3.2c.12-.07.22.08.15.19Z"/></g><g id="Group_6331" data-name="Group 6331"><path id="Path_30401" data-name="Path 30401" class="cls-1" d="M70.68,86.15c-3.75-.89-7.91-1.82-10.63,1.72-1.87,2.42-1.16,6.42-1.79,9.27,0,.17-.3.13-.32,0-.71-4-.66-8.39,2.49-11.3,2.73-2.52,7.46-1.39,10.34.16C70.88,86,70.78,86.17,70.68,86.15Z"/></g><g id="Group_6332" data-name="Group 6332"><path id="Path_30402" data-name="Path 30402" class="cls-1" d="M57.92,98.84a6.85,6.85,0,0,1,.12,1.1,1.5,1.5,0,0,1-.37,1.09.24.24,0,0,1-.33,0,.22.22,0,0,1-.07-.09,1.89,1.89,0,0,1-.11-1c0-.4.18-.76.25-1.15s.47-.34.5,0Z"/></g><g id="Group_6333" data-name="Group 6333"><path id="Path_30403" data-name="Path 30403" class="cls-1" d="M102.86,101.59a20.19,20.19,0,0,1-3.43,3.78,40.92,40.92,0,0,1-4.84,4.17,7.71,7.71,0,0,1-7.26-.08c-.33-.19-.08-.66.24-.65,3.2.08,5.37,1.23,8-1.34,2.23-2.15,4.77-4,6.9-6.21.19-.21.5.11.35.33Z"/></g><g id="Group_6334" data-name="Group 6334"><path id="Path_30404" data-name="Path 30404" class="cls-1" d="M84.33,107.53c-.16,0-.33.09-.5.09a1.56,1.56,0,0,1-.6-.15,1.42,1.42,0,0,1-1-.8c-.07-.26.22-.42.43-.36a8.26,8.26,0,0,1,.92.51A2.49,2.49,0,0,1,84,107c.15.1.19.28.34.37a.07.07,0,0,1,0,.09A.07.07,0,0,1,84.33,107.53Z"/></g><g id="Group_6335" data-name="Group 6335"><path id="Path_30405" data-name="Path 30405" class="cls-1" d="M94.86,168.33c2.6-6.68-9.42-7.88-13-10.8a.24.24,0,0,1,0-.34.25.25,0,0,1,.27-.09c2.67.88,18.84,5.6,12.86,11.27,0,0,0,0,0,0A.06.06,0,0,1,94.86,168.33Z"/></g><g id="Group_6336" data-name="Group 6336"><path id="Path_30406" data-name="Path 30406" class="cls-1" d="M78,156.17a4.7,4.7,0,0,1-1.93-.29.43.43,0,0,1,.29-.81,14.32,14.32,0,0,0,1.7.37.36.36,0,0,1,.31.42A.35.35,0,0,1,78,156.17Z"/></g><g id="Group_6337" data-name="Group 6337"><path id="Path_30407" data-name="Path 30407" class="cls-1" d="M78.41,171c-7.85.53-17.67-1.2-23.15-7.31a.15.15,0,0,1,0-.2.15.15,0,0,1,.17,0c7,5.25,14.49,6.3,22.94,7.21.16,0,.19.29,0,.3Z"/></g><g id="Group_6338" data-name="Group 6338"><path id="Path_30408" data-name="Path 30408" class="cls-1" d="M53.61,162.57a1,1,0,0,1-1.24-.65,1.06,1.06,0,0,1,0-.31.27.27,0,0,1,.3-.24.25.25,0,0,1,.12,0,11,11,0,0,1,1,.68.27.27,0,0,1-.1.48Z"/></g><g id="Group_6339" data-name="Group 6339"><path id="Path_30409" data-name="Path 30409" class="cls-1" d="M11.24,119.29c-1.16.68-2.43,1.13-3.56,1.87-1.45,1-2.15,3.47-2.79,5-1.3,3.15-.4,6.83.47,10,0,.18-.21.23-.29.09-3.59-5.93-1.88-16.3,6.15-17,0,0,0,0,0,0s0,0,0,0Z"/></g><g id="Group_6340" data-name="Group 6340"><path id="Path_30410" data-name="Path 30410" class="cls-1" d="M6.58,137.94a7,7,0,0,0,1.7,1.51.13.13,0,0,1,.06.16.12.12,0,0,1-.11.07c-1-.05-2.22-.42-2.15-1.59a.29.29,0,0,1,.5-.16Z"/></g><g id="Group_6341" data-name="Group 6341"><path id="Path_30411" data-name="Path 30411" class="cls-1" d="M79.55,164.24c.22.38.35.95-.09,1.23a.14.14,0,0,1-.18-.06h0c-.14-.35,0-.76.09-1.13a.1.1,0,0,1,.1-.09.1.1,0,0,1,.08.06Z"/></g><g id="Group_6342" data-name="Group 6342"><path id="Path_30412" data-name="Path 30412" class="cls-1" d="M78.46,165.2a1.15,1.15,0,0,1-.25.73.1.1,0,0,1-.15,0,.09.09,0,0,1,0-.09,1.11,1.11,0,0,1,.27-.72.09.09,0,0,1,.12,0,.08.08,0,0,1,0,.11Z"/></g><g id="Group_6343" data-name="Group 6343"><path id="Path_30413" data-name="Path 30413" class="cls-1" d="M59.83,160.54c-.39.06-1.09.09-1.3-.32a.2.2,0,0,1,.1-.26,1.58,1.58,0,0,1,1.29.13C60.12,160.2,60,160.5,59.83,160.54Z"/></g><g id="Group_6344" data-name="Group 6344"><path id="Path_30414" data-name="Path 30414" class="cls-1" d="M22.26,132.08c.56.59,1.24,1.34.94,2.21a.18.18,0,0,1-.22.11.18.18,0,0,1-.07-.05,18.58,18.58,0,0,1-.88-2.12C22,132.08,22.16,132,22.26,132.08Z"/></g><g id="Group_6345" data-name="Group 6345"><path id="Path_30415" data-name="Path 30415" class="cls-1" d="M22,134.3c.1.39.25.93-.07,1.26a.17.17,0,0,1-.22,0,.11.11,0,0,1,0-.07,1.24,1.24,0,0,1,0-.43,2.59,2.59,0,0,0-.1-.67C21.53,134.11,22,134,22,134.3Z"/></g><g id="Group_6346" data-name="Group 6346"><path id="Path_30416" data-name="Path 30416" class="cls-1" d="M20.2,127a3,3,0,0,1-1.11-.65,4,4,0,0,1-.88-1,.11.11,0,0,1,.06-.15.09.09,0,0,1,.07,0,1.93,1.93,0,0,1,.78.72,3.46,3.46,0,0,0,1.11,1s0,0,0,.06a0,0,0,0,1,0,0Z"/></g><g id="Group_6347" data-name="Group 6347"><path id="Path_30417" data-name="Path 30417" class="cls-1" d="M74.12,116.73c-.61.09-2.09.42-2.43-.3a.18.18,0,0,1,.09-.23h0c.34-.09.71.12,1,.16a6.66,6.66,0,0,0,1.18,0,.22.22,0,0,1,.07.43Z"/></g><g id="Group_6348" data-name="Group 6348"><path id="Path_30418" data-name="Path 30418" class="cls-1" d="M72.55,118.71c-.45,0-1.22,0-1.51-.4a.19.19,0,0,1,0-.27.2.2,0,0,1,.08,0,.79.79,0,0,1,.5.07,2.19,2.19,0,0,0,.8.12C72.8,118.15,72.9,118.69,72.55,118.71Z"/></g><g id="Group_6349" data-name="Group 6349"><path id="Path_30419" data-name="Path 30419" class="cls-1" d="M14.44,141.11a1.6,1.6,0,0,1-1.11-.93.15.15,0,0,1,.12-.17h.08a9.58,9.58,0,0,1,1.09.59.27.27,0,0,1,.16.34.26.26,0,0,1-.34.16Z"/></g><g id="Group_6350" data-name="Group 6350"><path id="Path_30420" data-name="Path 30420" class="cls-1" d="M43.57,159.43a13.46,13.46,0,0,0-.81,2.14.16.16,0,0,1-.21.09.2.2,0,0,1-.09-.09,2.63,2.63,0,0,1,.61-2.49.29.29,0,0,1,.42-.05.29.29,0,0,1,.07.4Z"/></g><g id="Group_6351" data-name="Group 6351"><path id="Path_30421" data-name="Path 30421" class="cls-1" d="M22.8,148.24a12,12,0,0,1-1.31,1.26c-.47.36-.84.83-1.34,1.14a.14.14,0,0,1-.2-.07.15.15,0,0,1,0-.07c.15-1.31,1.87-1.76,2.82-2.32,0,0,.07,0,0,.06Z"/></g><g id="Group_6352" data-name="Group 6352"><path id="Path_30422" data-name="Path 30422" class="cls-1" d="M34.91,151.08a4.69,4.69,0,0,1-.48,1.26.05.05,0,0,1-.08,0,.05.05,0,0,1,0,0,5.17,5.17,0,0,1,.44-1.27.08.08,0,1,1,.15.05Z"/></g><g id="Group_6353" data-name="Group 6353"><path id="Path_30423" data-name="Path 30423" class="cls-1" d="M33.69,151.29c-.09.24-.17.52-.46.55a.2.2,0,0,1-.21-.16.25.25,0,0,1,0-.08c.07-.16.16-.3.22-.47a.24.24,0,0,1,.31-.12A.25.25,0,0,1,33.69,151.29Z"/></g><g id="Group_6354" data-name="Group 6354"><path id="Path_30424" data-name="Path 30424" class="cls-1" d="M17.85,147.35l-.28-.11a.05.05,0,0,1,0-.05,0,0,0,0,1,.05,0l.3.09C18,147.28,17.91,147.38,17.85,147.35Z"/></g><g id="Group_6355" data-name="Group 6355"><path id="Path_30425" data-name="Path 30425" class="cls-1" d="M79,95.6c-1,.14-1.66,1-2.33,1.64a.14.14,0,0,1-.18,0,.13.13,0,0,1,0-.12A2.86,2.86,0,0,1,79,95.18c.26,0,.35.37.07.41Z"/></g><g id="Group_6356" data-name="Group 6356"><path id="Path_30426" data-name="Path 30426" class="cls-1" d="M76.47,95.72a3.44,3.44,0,0,0-.65.55c-.16.18-.36.35-.5.54s-.22,0-.17-.09a2,2,0,0,1,.42-.69,2.3,2.3,0,0,1,.79-.48c.1,0,.21.11.11.18Z"/></g><g id="Group_6357" data-name="Group 6357"><path id="Path_30427" data-name="Path 30427" class="cls-1" d="M109.24,93.81c-.11-.34-.13-.69-.26-1a5.68,5.68,0,0,1-.31-1,.12.12,0,0,1,.1-.13.1.1,0,0,1,.1,0,2.53,2.53,0,0,1,.66,2.08A.16.16,0,0,1,109.24,93.81Z"/></g><g id="Group_6358" data-name="Group 6358"><path id="Path_30428" data-name="Path 30428" class="cls-1" d="M107.94,94.22a3.26,3.26,0,0,1-.66-1.06.14.14,0,0,1,.11-.17h0c.6-.06.83.67.79,1.15C108.18,94.25,108,94.32,107.94,94.22Z"/></g><g id="Group_6359" data-name="Group 6359"><path id="Path_30429" data-name="Path 30429" class="cls-1" d="M102.13,80.18a13.88,13.88,0,0,0-4.94-4.6c-1.56-.76-3,.63-4.46.82a.16.16,0,0,1-.18-.14.15.15,0,0,1,.08-.16c1.48-.9,3.05-1.61,4.75-1,2.25.76,3.72,3.14,4.92,5,0,.09-.1.19-.17.1Z"/></g><g id="Group_6360" data-name="Group 6360"><path id="Path_30430" data-name="Path 30430" class="cls-1" d="M91.57,77.36c-.5,1-1.07,2-1.56,3a12.34,12.34,0,0,0-.85,3.79.09.09,0,0,1-.11.09.09.09,0,0,1-.09-.08c-.7-2.66.75-5,2.56-6.89a0,0,0,0,1,0,0,0,0,0,0,1,0,0Z"/></g><g id="Group_6361" data-name="Group 6361"><path id="Path_30431" data-name="Path 30431" class="cls-1" d="M56.57,114.07a.85.85,0,0,1,.43.65.78.78,0,0,1-.34.84.17.17,0,0,1-.22-.08c-.22-.37,0-.88-.08-1.28a.13.13,0,0,1,.11-.15A.12.12,0,0,1,56.57,114.07Z"/></g><g id="Group_6362" data-name="Group 6362"><path id="Path_30432" data-name="Path 30432" class="cls-1" d="M55.79,116.12a.65.65,0,0,1-.08.78.2.2,0,0,1-.29,0,.23.23,0,0,1-.08-.18,4.46,4.46,0,0,1,.07-.51c0-.17.27-.28.38-.12Z"/></g><g id="Group_6363" data-name="Group 6363"><path id="Path_30433" data-name="Path 30433" class="cls-1" d="M70.28,150a15,15,0,0,1-8.34-1.65.16.16,0,0,1,.11-.28c2.78.42,5.36,1.53,8.22,1.72C70.39,149.83,70.41,150,70.28,150Z"/></g><g id="Group_6364" data-name="Group 6364"><path id="Path_30434" data-name="Path 30434" class="cls-1" d="M60.13,147.84c-1.37-.28-3.37-.53-4.32-1.66a.19.19,0,0,1,0-.28.18.18,0,0,1,.19,0c.66.22,1.25.63,1.91.89s1.49.61,2.21,1C60.2,147.75,60.2,147.86,60.13,147.84Z"/></g><g id="Group_6365" data-name="Group 6365"><path id="Path_30435" data-name="Path 30435" class="cls-1" d="M33.48,130.55a25.08,25.08,0,0,0,2.93,4.37,37.49,37.49,0,0,0,3.64,3.18c.27.25-.08.73-.4.58-3.09-1.45-5-5.12-6.3-8.07,0,0,0-.08,0-.09a.07.07,0,0,1,.09,0Z"/></g><g id="Group_6366" data-name="Group 6366"><path id="Path_30436" data-name="Path 30436" class="cls-1" d="M43.85,135.42c.23.33.48,1.16.06,1.42a.12.12,0,0,1-.17,0v0a.7.7,0,0,1,0-.43,2.35,2.35,0,0,0-.12-.83c0-.13.18-.24.26-.12Z"/></g><g id="Group_6367" data-name="Group 6367"><path id="Path_30437" data-name="Path 30437" class="cls-1" d="M43.29,136.81a.66.66,0,0,1-.14.59.08.08,0,0,1-.13,0,.09.09,0,0,1,0-.08c0-.17.08-.32,0-.48S43.24,136.64,43.29,136.81Z"/></g><g id="Group_6368" data-name="Group 6368"><path id="Path_30438" data-name="Path 30438" class="cls-1" d="M53.7,147.27a.74.74,0,0,1-.31.65.1.1,0,0,1-.13,0,.73.73,0,0,1,.18-.7.15.15,0,0,1,.2,0A.16.16,0,0,1,53.7,147.27Z"/></g><g id="Group_6369" data-name="Group 6369"><path id="Path_30439" data-name="Path 30439" class="cls-1" d="M52.77,148a.74.74,0,0,1-.2.88.14.14,0,0,1-.2,0l0,0a.8.8,0,0,1,.18-.89.17.17,0,0,1,.22,0l0,0Z"/></g><g id="Group_6370" data-name="Group 6370"><path id="Path_30440" data-name="Path 30440" class="cls-1" d="M47.08,139.31a1,1,0,0,1-.17.65.1.1,0,0,1-.11.06.1.1,0,0,1-.06-.12c0-.21.09-.4.08-.61S47.07,139.15,47.08,139.31Z"/></g><g id="Group_6371" data-name="Group 6371"><path id="Path_30441" data-name="Path 30441" class="cls-1" d="M68.74,148.07a2.9,2.9,0,0,0-.09.59.12.12,0,0,1-.12.09.12.12,0,0,1-.09-.08,1.08,1.08,0,0,1,.13-.66.09.09,0,0,1,.17.05h0Z"/></g><g id="Group_6372" data-name="Group 6372"><path id="Path_30442" data-name="Path 30442" class="cls-1" d="M67.49,148.1a.43.43,0,0,1-.14.16.09.09,0,0,1-.13,0,.08.08,0,0,1,0,0,.41.41,0,0,1,0-.22.16.16,0,0,1,.18-.14.17.17,0,0,1,.14.18Z"/></g><g id="Group_6373" data-name="Group 6373"><path id="Path_30443" data-name="Path 30443" class="cls-1" d="M34.58,135.47c-.11.31-.24.54-.59.56a.12.12,0,0,1-.09-.18,3.36,3.36,0,0,0,.32-.51.19.19,0,0,1,.25-.1A.19.19,0,0,1,34.58,135.47Z"/></g><g id="Group_6374" data-name="Group 6374"><path id="Path_30444" data-name="Path 30444" class="cls-1" d="M33.73,135a.49.49,0,0,1-.65-.06.14.14,0,0,1,0-.19l0,0c.14,0,.28-.07.42-.13a.22.22,0,0,1,.28.14.23.23,0,0,1-.09.26Z"/></g><g id="Group_6375" data-name="Group 6375"><path id="Path_30445" data-name="Path 30445" class="cls-1" d="M35.44,129.52c-.16-.06-.33-.1-.49-.15a.08.08,0,0,1-.06-.11s0,0,0,0a.66.66,0,0,1,.61,0,.15.15,0,0,1,.08.21A.16.16,0,0,1,35.44,129.52Z"/></g><g id="Group_6376" data-name="Group 6376"><path id="Path_30446" data-name="Path 30446" class="cls-1" d="M58.53,149.48a.49.49,0,0,1-.2.55.11.11,0,0,1-.16,0l0,0a1.33,1.33,0,0,0,0-.34A.23.23,0,1,1,58.53,149.48Z"/></g></g><g id="Group_6378" data-name="Group 6378"><g id="Group_5837" data-name="Group 5837"><g id="Group_5819" data-name="Group 5819"><path id="Path_29890" data-name="Path 29890" class="cls-1" d="M113.29,52.51a.37.37,0,0,0,.14-.5.34.34,0,0,0-.21-.18.37.37,0,0,0-.46.22.34.34,0,0,0,0,.28.38.38,0,0,0,.5.19Z"/></g><g id="Group_5820" data-name="Group 5820"><path id="Path_29891" data-name="Path 29891" class="cls-1" d="M111,47.63a3.63,3.63,0,0,1,1.29-.9.48.48,0,0,0,.24-.64.46.46,0,0,0-.32-.27c-1-.41-3,1.14-2.45,2.14C110.1,48.56,111.07,48.49,111,47.63Z"/></g><g id="Group_5821" data-name="Group 5821"><path id="Path_29892" data-name="Path 29892" class="cls-1" d="M106.11,41.6c-.32,2.18,3,4.17,5,1.9a3.83,3.83,0,0,0,2,.92c-.3,1.49,1.34,2.9,3.54,1.93.26,0,.54-.23.78-.44.45-.39-.11-1.17-.61-.82-1.88,1.31-3.14.17-2.95-.73a1.3,1.3,0,0,0,.75-.67h0a.45.45,0,0,0-.17-.61.45.45,0,0,0-.52,0c-.43.34-1.08.59-2.31-.39a1.63,1.63,0,0,0,0-1.4c-.37-.41-1.39.23-1.25,1.15-1.06,1.56-3,1.21-3.65-.94a.31.31,0,0,0-.39-.22A.3.3,0,0,0,106.11,41.6Z"/></g><g id="Group_5822" data-name="Group 5822"><path id="Path_29893" data-name="Path 29893" class="cls-1" d="M118.39,45.79a.31.31,0,0,0,.44.1.33.33,0,0,0,.15-.27,2.38,2.38,0,0,1,.79-1.89,1.74,1.74,0,0,0-.11,2.11.48.48,0,0,0,.67,0,.55.55,0,0,0,.14-.32c0-.58-.46-1.17.68-1.58.3-.1.66-.24.57-.65s-.51-.47-1-.27l.39-.21a1.05,1.05,0,0,1,1.45.32l0,0c.44.66.43,2.44,1.15,2.11a.37.37,0,0,0,.19-.2c.68-1.53-.65-4.34-3-3.5C119.38,42.14,117.2,44.1,118.39,45.79Z"/></g><g id="Group_5823" data-name="Group 5823"><path id="Path_29894" data-name="Path 29894" class="cls-1" d="M121.13,48.28a1.44,1.44,0,0,0,.49-.49c.38-.5-.3-1.77-1.12-1.75-.34,0-.46.22-.57.46s-.17.41,0,.58a.48.48,0,0,0,.46.1.69.69,0,0,1,.11.13C120,48.12,120.63,48.54,121.13,48.28Z"/></g><g id="Group_5824" data-name="Group 5824"><path id="Path_29895" data-name="Path 29895" class="cls-1" d="M121,50.8c1.6.08,3.78-2,3.2-3.82,0-.06-.07-.23-.23-.24s-.29.19-.49.64a3.89,3.89,0,0,1-1.61,2,4.33,4.33,0,0,1-.85.31.63.63,0,0,0-.35.16.53.53,0,0,0,0,.76A.51.51,0,0,0,121,50.8Z"/></g><path id="Path_29896" data-name="Path 29896" class="cls-1" d="M114.47,47.87a3.73,3.73,0,0,1-.73.13,3,3,0,0,0-1.89,2,.8.8,0,0,0,.57,1l.19,0s0,0,0,.06a1.1,1.1,0,0,0,.85.76c.38.08.91-.11,1-.56a.55.55,0,0,0-.1-.35.49.49,0,0,0,0-.11.41.41,0,0,0-.21-.2l-.52-.57a3.15,3.15,0,0,1,1.1-1.65.26.26,0,0,0,.1-.34A.26.26,0,0,0,114.47,47.87Z"/><g id="Group_5825" data-name="Group 5825"><path id="Path_29897" data-name="Path 29897" class="cls-1" d="M114,52a.4.4,0,0,0-.18.53.39.39,0,1,0,.61-.47A.4.4,0,0,0,114,52Z"/></g><g id="Group_5826" data-name="Group 5826"><path id="Path_29898" data-name="Path 29898" class="cls-1" d="M97.63,76c-.28-.33-1.21-.07-1.49-.13s-1.3-1.07-1.55-1c-.42.15-.13,1,0,1.19a2.45,2.45,0,0,0,2.31.9C97.66,76.8,97.83,76.22,97.63,76Z"/></g><g id="Group_5827" data-name="Group 5827"><path id="Path_29899" data-name="Path 29899" class="cls-1" d="M99.53,79.35v.11h0v-.11h0c-.3,0-.17-.68-.51-1.16-.54-.74-1.31-.28-1.52-.62a.46.46,0,0,0-.61-.18.45.45,0,0,0-.23.44c0,.37.37.82,1.21.83.38,0,.41,0,.5.44.24,1,.52,1.22,1.54,1.31a.53.53,0,0,0,.6-.44.61.61,0,0,0,0-.19C100.43,79.31,99.8,79.33,99.53,79.35Z"/></g><g id="Group_5828" data-name="Group 5828"><path id="Path_29900" data-name="Path 29900" class="cls-1" d="M119.35,68.28a1.21,1.21,0,0,0,1-.1,1.23,1.23,0,0,0,.74-1.39.61.61,0,0,0-.75-.44.64.64,0,0,0-.35.25c-.26.36-.09.4-.59.53a.59.59,0,0,0-.42.74A.61.61,0,0,0,119.35,68.28Z"/></g><g id="Group_5829" data-name="Group 5829"><path id="Path_29901" data-name="Path 29901" class="cls-1" d="M115,64.51c-2.41.84-7.63,4.66-9.27,6.26-.09.08-.21.2-.11.32.23.29.86-.52,6.45-3.92,2.53-1.54,3.57-2.24,5.56-2.06a.33.33,0,0,0,.32-.14.32.32,0,0,0-.08-.36C117.56,64.3,116.65,63.93,115,64.51Z"/></g><g id="Group_5830" data-name="Group 5830"><path id="Path_29902" data-name="Path 29902" class="cls-1" d="M131.46,46.33c-.55.86-1.57,2.47-3.52,1.37a3.36,3.36,0,0,1-1.13-1.32.31.31,0,0,0-.41-.11.32.32,0,0,0-.15.26c.06,1.61,2.37,3.12,4.34,2.09,1.75-.9,1.71-2.66,1.34-2.74-.16,0-.26.12-.47.45l.09.06h0Z"/></g><g id="Group_5831" data-name="Group 5831"><path id="Path_29903" data-name="Path 29903" class="cls-1" d="M104.47,68.64a1,1,0,0,1-.7-.52l0-.07-2.1,1.12c-.94-.11-.85-.43-1.22-.63-.59-.3-1.06.72.13,1.37s2.72-.1,3.15,1.5a.55.55,0,0,0,.67.36.53.53,0,0,0,.3-.23.5.5,0,0,0,0-.56,2.72,2.72,0,0,0-1.59-1.58Z"/><path id="Path_29904" data-name="Path 29904" class="cls-1" d="M126.67,53.17c-.25.33-.44,1.08-.79,1.26a3.42,3.42,0,0,0,0-2.48c-.11-.17-.48-.29-.44.27A5.29,5.29,0,0,1,123.54,56c-1.8,1.75-6.18,3.56-7,1.17-.12-.37,0-.44.21-.76s.16-.64.27-.81.47-.84.49-.9a.52.52,0,0,0-.49-.74c-.27,0-.35.24-.46.46a9.28,9.28,0,0,0-.45,1,3,3,0,0,1-2.11,1,1.65,1.65,0,0,0-1.44-1.84h-.23a.88.88,0,0,1-.76-.3c-.55-.53,0-1.49.18-2.2.43-2.46-2.82-3.58-3.3-5.42-.19-.76.31-1.28-.16-1.51-.62-.3-1.31,1.18-.52,2.52A12.52,12.52,0,0,0,110,50c2,2-.4,2.78.63,4.58.6,1,1.92.79,2.24,1.34s-.38.82,0,1.25,1.2.39,2,.26c-.38.42.24,1.07,1.2.75,1.35,1.53,4,.91,5.8,0L118.62,60a1.13,1.13,0,0,1-.28,1,6,6,0,0,1-.42.46l2-1.08a20.08,20.08,0,0,0-1.54,2.23.2.2,0,0,0,0,.28c.41.35,1.55-1.81,1.78-2.08,1.81-2.1,4.62-3.12,6.13-5.41a7.37,7.37,0,0,1,3.39-2.85c.49-.17,1.07-.4.88-.93C130.39,51,128,51.39,126.67,53.17Z"/></g><g id="Group_5832" data-name="Group 5832"><path id="Path_29905" data-name="Path 29905" class="cls-1" d="M108.76,76.61c1.07-.58,1.77-.42,3.44-.89,2.18-.6,5-.84,8.43-3.58a4.61,4.61,0,0,1,2.84-1.4c1.56-.25,4.43-1.17,5.83-2.67a9.9,9.9,0,0,1,4.51-2.64c.54-.38.37-1.38-1.68-1A6.79,6.79,0,0,0,129,66.38c-1.35,1.21-2.29,1.94-5.84,3a9.27,9.27,0,0,0-2.21.85,28.43,28.43,0,0,1-6.23,3.43c-1.89.68-2.92.79-5,1.65a14.38,14.38,0,0,0-2.22.63,10.44,10.44,0,0,0-1.65,1.31A10.39,10.39,0,0,1,102,79.42a1.33,1.33,0,0,0-.8.33c-.31.41,0,.8.47.87a2.66,2.66,0,0,0,1.43-.42C105.55,78.93,105.4,78.46,108.76,76.61Z"/></g><g id="Group_5833" data-name="Group 5833"><path id="Path_29906" data-name="Path 29906" class="cls-1" d="M102.57,81.53l.26-.06,0-.2h-.21l-.17.06Z"/></g><g id="Group_5834" data-name="Group 5834"><path id="Path_29907" data-name="Path 29907" class="cls-1" d="M106.37,47.75a.52.52,0,0,0,.25-.7.5.5,0,0,0-.42-.3,3,3,0,0,1-2.59-.9,2.31,2.31,0,0,1-.49-1.33,3.46,3.46,0,0,1,.3-1.49c.25-.32-.23-.71-.51-.44l-.35.34c.09-1,.79-1.69,2.26-2.18a.32.32,0,0,0,.21-.31c0-.21-.18-.25-.32-.29a1.2,1.2,0,0,0-.62-.07c-2.8.65-2.78,3.92-2,4.27l.18,0C102.16,47.29,105.29,48.31,106.37,47.75Z"/></g><g id="Group_5835" data-name="Group 5835"><path id="Path_29908" data-name="Path 29908" class="cls-1" d="M113.46,30.9a.19.19,0,0,0,.09.26.19.19,0,0,0,.25-.08c2.43-4.48,6.68-3.14,6.42-.61a.36.36,0,0,0,.7.14,1.59,1.59,0,0,1,3.09.45.45.45,0,0,0,.46.45.47.47,0,0,0,.38-.21,1.17,1.17,0,0,1,1.63-.2,1.25,1.25,0,0,1,.43.71c.4,1.26-.57,2.36-1.3,3.33a.36.36,0,0,0,.11.5.34.34,0,0,0,.34,0,4.43,4.43,0,0,0,1.62-1.91c1.11-2.45-1.19-4.68-3-3.54A2.37,2.37,0,0,0,121.54,29a2.43,2.43,0,0,0-.73.5C120,27,115.86,26.15,113.46,30.9Z"/></g><g id="Group_5836" data-name="Group 5836"><path id="Path_29909" data-name="Path 29909" class="cls-1" d="M127.72,36.76a.28.28,0,0,0-.29.28.28.28,0,0,0,.28.29h0a2.21,2.21,0,0,1,1.9,1.88,2.55,2.55,0,0,1-1.44,2.32.39.39,0,0,0,0,.55.37.37,0,0,0,.28.13,2.42,2.42,0,0,0,2.09-1.75,2.75,2.75,0,0,0-2.78-3.7Z"/></g><path id="Path_29910" data-name="Path 29910" class="cls-1" d="M137.56,4.15a5.39,5.39,0,0,0-1.51-4,.52.52,0,0,0-.67-.08.53.53,0,0,0-.18.66,4,4,0,0,1-.29,3.09,8,8,0,0,1-2.46,2.7,5.52,5.52,0,0,1-1.73,1,6.71,6.71,0,0,1-1.9.1c-.87,0-1.75-.07-2.63-.09a3.77,3.77,0,0,0,.83-.41,9.57,9.57,0,0,0,2.52-2.89A5.33,5.33,0,0,0,130.62.65c-.06-.46-.77-.31-.71.15a4.52,4.52,0,0,1-.94,3c-.33.51-.69,1-1.06,1.49a5.06,5.06,0,0,1-1.37,1.32c-1.13.68-2.53.54-3.79.77a9.68,9.68,0,0,0-3.45,1.33,9.82,9.82,0,0,0-3,2.92.3.3,0,0,0,0,.35A10.44,10.44,0,0,0,114,16.33a6.79,6.79,0,0,0,.32,4A5.2,5.2,0,0,0,115.39,22a2.46,2.46,0,0,0,1.18.72,4,4,0,0,0,.08,1.29A5,5,0,0,0,112,27.93a5.37,5.37,0,0,0-5.67,3.29c-.44,1-.75,2.44-.15,3.2a4.56,4.56,0,0,0-1.77,5.32.22.22,0,0,0,.28.14h0a.21.21,0,0,0,.12-.25c-.84-3.43,2.85-6.22,3.72-4.07a.29.29,0,0,0,.38.14.33.33,0,0,0,.15-.18c.26-1-.9-2-2.51-1.3.1-.72,0-4.9,4.43-5.35.33,0,.66,0,1-.06,0,.1.08.22.22.22.34,0,.44-1,.56-1.36a4.14,4.14,0,0,1,6.55-1.85,2.93,2.93,0,0,1,3-1.46c.71.15,1.49.54,1.49,1.27,0,.38-.46.51-.37.88a.3.3,0,0,0,.23.28.61.61,0,0,0,.76-.23,9,9,0,0,1,3.45-.37.54.54,0,0,0,.27.72.5.5,0,0,0,.32,0c1.38-.2,3.57.22,3.22.59s-.76.15-1.12.09c-.66-.09-.88.84-.38,1.16,3.2,2.09,5.69,4.12,4.47,8a.49.49,0,0,0,.72.54,2,2,0,0,1,1.47.27,2,2,0,0,1,.89,1.51c.25,1.82-1.14,2.81-1.52,3.38a.47.47,0,0,0,.25.9c.73-.13,1.56.62.94,1.29a1,1,0,0,1-.69.29c-.37,0-.63.59-.1,1-.43,1.81-2.27,1.9-2.31.84a.29.29,0,0,0-.31-.29.31.31,0,0,0-.24.13c-.3.44-.24,1.05-.4,1.48a2.63,2.63,0,0,1-2.25,1.76c-.51-.11-.66-.25-.83-.13s-.28.19-.11.37,1.29,1.15,3,.28a2.91,2.91,0,0,0,1.3-1.34c1.48.43,3.66-1.67,3-3.22a1.81,1.81,0,0,0,1.09-2.32,1.79,1.79,0,0,0-.76-.93c2.33-2.63.84-5.91-1.69-6.15a3.51,3.51,0,0,0,.3-1.69c-.08-2.91-2.2-4.76-4.1-6,1-.69,1.4-2.6-2.14-2.84-.39-.66-3.49-.74-5.33-.09.23-1.4-1.17-2.37-2.75-2.33a.62.62,0,0,0,.07-.23,2.51,2.51,0,0,0-.2-1.4.38.38,0,0,0,0-.45,1.14,1.14,0,0,1,.15-1.32,3.29,3.29,0,0,1,1.54-.92,12.4,12.4,0,0,1,3.87-.68c1.25,0,2.5.16,3.75.11a6.18,6.18,0,0,0,3.62-1.17,4,4,0,0,0,1.56-3.42.45.45,0,0,0-.35-.34.46.46,0,0,0-.46.19,3.21,3.21,0,0,1-2.19,1.1l.37-.19a21.09,21.09,0,0,0,2.73-1.75,6,6,0,0,0,2.28-5,8.91,8.91,0,0,0-.93-3.47A.39.39,0,0,0,137.56,4.15ZM118.84,24.44a1.87,1.87,0,0,0,.67,0h0l-.19.21a4.59,4.59,0,0,0-.49-.26Zm1.75-.72.25-.32.15,0a.37.37,0,0,0,.18-.08.57.57,0,0,0,.12.18,3.66,3.66,0,0,0-.7.25Zm.58-.95h0a.57.57,0,0,0-.08-.13l.08,0c0,.05,0,.11,0,.16ZM136.47,4.6a6.76,6.76,0,0,1-1.8,3.18,12.4,12.4,0,0,1-6.21,3.7,12,12,0,0,1-4.1.27c-.66-.07-.72,1-.06,1a13.13,13.13,0,0,0,7.83-1.67,12.91,12.91,0,0,0,3.19-2.51,8.65,8.65,0,0,0,2.05-3.33,6.48,6.48,0,0,1,.29,4.76,4.77,4.77,0,0,1-1.48,2.06,18,18,0,0,1-2.44,1.6,7.13,7.13,0,0,1-3.06,1.09c-.52,0-.42.83.06.88A7.5,7.5,0,0,0,135.5,15a3.35,3.35,0,0,1-1.37,1.77,6.08,6.08,0,0,1-3.61.81,33.29,33.29,0,0,0-3.87-.07,12,12,0,0,0-3.91.94,3,3,0,0,0-1.56,1.4,2,2,0,0,0-.07,1.63,2.81,2.81,0,0,1-1.46.25,15.88,15.88,0,0,1-1.69,0,3.69,3.69,0,0,0-.74-.05.57.57,0,0,0-.29,0c-.41.08-.81-.43-1-.71a4.14,4.14,0,0,1-.74-1.37,5.94,5.94,0,0,1-.11-3.21,9.36,9.36,0,0,1,1.53-3.14,15.07,15.07,0,0,1,2.47-2.7,7.93,7.93,0,0,1,3.29-1.68,14.62,14.62,0,0,1,3.55-.31c1.23,0,2.46.1,3.69.1a4.63,4.63,0,0,0,2-.38,8.79,8.79,0,0,0,1.65-1.07A8.56,8.56,0,0,0,136,4.07a5.14,5.14,0,0,0,.41-1.37,3.94,3.94,0,0,1,.11,1.9Z"/></g><path id="Path_29911" data-name="Path 29911" class="cls-2" d="M99.2,72a.54.54,0,0,1-.13.65,1.63,1.63,0,0,1-.64.33l-1.3.42.7-.44"/><g id="Group_5838" data-name="Group 5838"><path id="Path_29912" data-name="Path 29912" class="cls-3" d="M123.93,58.82a3.46,3.46,0,0,0-1.93.69,9.65,9.65,0,0,0-4.12,5.29c-.07.26-.14.52-.19.78,0,0,0,0,0,0a4,4,0,0,0-2,0l-.27.08a1.6,1.6,0,0,0-1.14,0,52.5,52.5,0,0,0-6.11,3.13c-1.06.63-2.08,1.31-3.1,2-.45.32-.91.64-1.35,1a3.68,3.68,0,0,0-.61.57,4.06,4.06,0,0,0-1.62-.59,10.67,10.67,0,0,0-1.38-.1,5.84,5.84,0,0,0-1.72.16,4.25,4.25,0,0,0-1.21.59,5.41,5.41,0,0,0-.62.55l-.14.12h0l-.09,0a1.47,1.47,0,0,0-1,.08,1.34,1.34,0,0,0-.59.63,1.36,1.36,0,0,0,.47,1.71,1.92,1.92,0,0,0,1.18.36c.34.11.67.23,1,.37h0l.18.09c.14.07.27.15.4.23l.32.2a1.24,1.24,0,0,0,0,1.17,1.36,1.36,0,0,0,1.81.59,5.94,5.94,0,0,1,.57-.27l.1,0,.26-.07a11.1,11.1,0,0,1,1.28-.24,14.29,14.29,0,0,0,2.42-.52,5.66,5.66,0,0,0,2-1.2,4,4,0,0,0,1-1.48,8.57,8.57,0,0,0,2.35-1.06,1.47,1.47,0,0,0,.67-.78.64.64,0,0,1,0-.07A47.62,47.62,0,0,0,117.44,69a3.11,3.11,0,0,0,.28.23,2.25,2.25,0,0,0,3-.24c.21-.22.42-.46.65-.67a5.72,5.72,0,0,1,.65-.55l.13-.09c.15-.09.29-.19.44-.27a5.19,5.19,0,0,0,1.65-1.25,3,3,0,0,0,.55-1.68c0-.42,0-.84,0-1.27a1.62,1.62,0,0,1,0-.22l0,0a.24.24,0,0,0,0-.08h0v0c0-.08,0-.11,0-.08a.08.08,0,0,0,0-.05v0a4,4,0,0,1,.23-.34,2.72,2.72,0,0,0,.56-2A2,2,0,0,0,123.93,58.82Z"/><path id="Path_29913" data-name="Path 29913" class="cls-3" d="M124.83,62.86h0a.15.15,0,0,0,0,.07h0v0h0s0,0,0,0a.08.08,0,0,1,0,0,.27.27,0,0,0,0-.12v0Z"/></g><path id="Path_29914" data-name="Path 29914" class="cls-1" d="M103.11,71.8a4.53,4.53,0,0,0-4.47-.33,3,3,0,0,1-1.2.32c-.48,0-1,0-1.43,0a4.3,4.3,0,0,0-1.34,0c-.49.14-.65.61-.75,1.06a4.49,4.49,0,0,0,.32,2.82c.28.61,1.2.14.93-.47A3.28,3.28,0,0,1,94.86,74a3,3,0,0,1,0-.67,1.47,1.47,0,0,1,0-.29s.07-.2.08-.28h0a1.79,1.79,0,0,0,.4,0l.81,0h0a.55.55,0,0,0,.55.23l3.11-.32a9.46,9.46,0,0,1,2.71,0,.52.52,0,0,0,.63-.27A.52.52,0,0,0,103.11,71.8Z"/><g id="Group_5854" data-name="Group 5854"><g id="Group_5839" data-name="Group 5839"><path id="Path_29915" data-name="Path 29915" class="cls-1" d="M166,72.31c-2.53,3.86-5.46,5.25-7.08,6.7a.33.33,0,0,0,0,.45.33.33,0,0,0,.3.09c5.86-1.31,14.07-13.2,10-23-.13-.32-.59-.14-.54.18s.12.6.18.89A20.77,20.77,0,0,1,166,72.31Z"/></g><g id="Group_5840" data-name="Group 5840"><path id="Path_29916" data-name="Path 29916" class="cls-1" d="M198.81,88.69a.25.25,0,0,0-.18.3.25.25,0,0,0,.28.19,1,1,0,0,1,1.05.59.25.25,0,0,0,.33.13C200.83,89.7,199.89,88.34,198.81,88.69Z"/></g><g id="Group_5841" data-name="Group 5841"><path id="Path_29917" data-name="Path 29917" class="cls-1" d="M198.89,90.05c-.23-.18-.56-.09-.83-.24-2.35-1.31-3.66-.82-8-2-2.64-.73-5.44-.11-8.52.94-1.45.5-2.9,1-4.38,1.36-.59.14-1.19.21-1.77.36a20.32,20.32,0,0,1-2.29.73,11.23,11.23,0,0,1-2.39,0,6,6,0,0,1-1.78-.39c-.26-.12-.78-.33-1.06-.18-.51.27.46.8.69.93a4.42,4.42,0,0,0,2.71.56c.4-.06.81,0,1.22-.08a13.54,13.54,0,0,0,1.78-.42c1.09-.32,2.21-.5,3.32-.74a41.5,41.5,0,0,0,4.33-1.32c8.84-3,7.24-.16,12.42-.09a13.24,13.24,0,0,1,4.44,1.38c.69.27.9-.27.59-.55C199.23,90.22,199,90.15,198.89,90.05Zm-31.23.89a.44.44,0,0,0,0,.16.09.09,0,0,1-.06-.11.1.1,0,0,1,0,0Z"/></g><g id="Group_5842" data-name="Group 5842"><path id="Path_29918" data-name="Path 29918" class="cls-1" d="M200.49,86.36a3.79,3.79,0,0,0-1-1.7c-1.51-1.5-3.95-1-5.24-2A5,5,0,0,1,193.11,80c-.82-2.91-3-3.64-5.47-1a.38.38,0,0,0,.52.54c1.5-1.34,2.72-2,3.72-.29.8,1.39.61,3.16,2.05,4.23,1.95,1.45,4.85-.1,5.87,3.81.07.27-.11.59,0,.91.2.48.57.12.71.17A2,2,0,0,1,201,89.9c0,.25-.23.38-.3.67s.28.7.59.47.22-.43.3-.85a3.08,3.08,0,0,0,.09-.75.29.29,0,0,0,.35.22.28.28,0,0,0,.18-.12,2.11,2.11,0,0,0-.17-2.1A2.58,2.58,0,0,0,200.49,86.36Zm1.17,2.93a2.58,2.58,0,0,0-.47-1.1c-.19-.26-.3-.24-.61-.66,0-.1,0-.2,0-.3a1.66,1.66,0,0,1,1.07,1.31A4.7,4.7,0,0,1,201.66,89.29Z"/></g><g id="Group_5843" data-name="Group 5843"><path id="Path_29919" data-name="Path 29919" class="cls-1" d="M191.13,80.85c-.12,2,.59,3.12.93,3,.17-.08.08-.26,0-.46a5.13,5.13,0,0,0,.44.6.28.28,0,0,0,.37.08c.24-.12.2-.32.11-.93a.25.25,0,0,0,.11-.12c.05-.17-.12-.28-.26-.39a.31.31,0,0,0-.44,0l0,0a5.55,5.55,0,0,1-.52-1.48c0-.23-.27-.22-.33-.06v-.25a.19.19,0,0,0-.19-.21.2.2,0,0,0-.21.19Z"/></g><g id="Group_5844" data-name="Group 5844"><path id="Path_29920" data-name="Path 29920" class="cls-1" d="M164.77,58.09a17.79,17.79,0,0,1-5.13,7.77c-1.28,1.22-2.67,2.36-4,3.57-2.06,1.92-3.84,3.92-3.77,4.17l0,.09c.13,0,.18,0,.28-.07,2.38-2.77,5.64-4.73,8.31-7.23,2.13-2,4.83-5.24,4.91-8.18a.34.34,0,0,0-.65-.12Z"/></g><g id="Group_5845" data-name="Group 5845"><path id="Path_29921" data-name="Path 29921" class="cls-1" d="M188.26,40a.26.26,0,0,0,.22.29.25.25,0,0,0,.27-.13,1.18,1.18,0,0,1,1.35-.72,3.22,3.22,0,0,1,1.05.33.21.21,0,0,0,.3-.26C190.8,37.94,188.8,38.06,188.26,40Z"/></g><g id="Group_5846" data-name="Group 5846"><path id="Path_29922" data-name="Path 29922" class="cls-1" d="M189.07,38.2a.74.74,0,0,1,.83.06.33.33,0,1,0,.45-.47l0,0c-.78-.65-1.94-.15-1.63.32A.3.3,0,0,0,189.07,38.2Z"/></g><g id="Group_5847" data-name="Group 5847"><path id="Path_29923" data-name="Path 29923" class="cls-1" d="M176.42,41.69a3.26,3.26,0,0,0-.11,3,2,2,0,0,1,.34,0c-.67-3,.69-3.38,3.74-3.21a4.67,4.67,0,0,0,3.79-1,4,4,0,0,1,3.39-.89c.38.1.42-.52.05-.61a4.77,4.77,0,0,0-3.86.89,5.36,5.36,0,0,1-4,.87C178.9,40.65,177.28,40.48,176.42,41.69Z"/></g><g id="Group_5848" data-name="Group 5848"><path id="Path_29924" data-name="Path 29924" class="cls-1" d="M180.37,42.17a.25.25,0,0,0-.23.25.23.23,0,0,0,.18.21c1.38.28,3-.35,2.76-.86a.26.26,0,0,0-.28-.14,1.84,1.84,0,0,0-.65.21l0,.1h0l0-.1C182,41.87,182,42.05,180.37,42.17Z"/></g><g id="Group_5849" data-name="Group 5849"><path id="Path_29925" data-name="Path 29925" class="cls-1" d="M179.41,45.8a.3.3,0,0,0-.17-.18c-.5-.23-.93.42-.81,1s.66.84.91.65.12-.37-.06-.55C178.81,46.3,179.5,46.18,179.41,45.8Z"/></g><g id="Group_5850" data-name="Group 5850"><path id="Path_29926" data-name="Path 29926" class="cls-1" d="M174.64,56.51c0-5.27,2.73-6.89,3.47-8.54a2,2,0,0,0-.41-2.5c-.39-.28-.62,0-.45.25,1.12,1.87-1,3.12-2.06,5.3-1.22,2.49-1.17,5.37-.75,5.75C174.56,56.72,174.64,56.71,174.64,56.51Z"/></g><g id="Group_5851" data-name="Group 5851"><path id="Path_29927" data-name="Path 29927" class="cls-1" d="M174.66,56.7c-.07,1.5-.07,1.5-.07,1.74-.22-1.38-.05-1.66-.33-1.68a.18.18,0,0,0-.19.14,6.11,6.11,0,0,0-.1,1.86,4.93,4.93,0,0,1,.09-1.91c.05-.16,0-.19-.13-.26l-.09,0a2.61,2.61,0,0,0-.41,1.58c0,1.84.66,1.79.69,1.46.44,1.87,1.08,1.67,1.08,1.24.4.64.71.61.81.42.43.42.63.23.86.11C175.06,59.81,175,58.44,174.66,56.7Z"/></g><g id="Group_5852" data-name="Group 5852"><path id="Path_29928" data-name="Path 29928" class="cls-1" d="M191.56,40.17h0c-3.19-.12-5.05,3.41-6.85,5-3.43,3.08.86,9.66-1.61,15.51a24.56,24.56,0,0,1-10.65,9,36.07,36.07,0,0,0-1.78-14.15,18.36,18.36,0,0,1,2.46-.3c.25-.06,1-1.12-2.61-.3a10.18,10.18,0,0,0-2.55.95c-1.6-3.35-5.69-4.77-8.6-2.9l-.26.16a.29.29,0,0,0-.1.38.28.28,0,0,0,.32.12,3.58,3.58,0,0,1,.92-.13,7.66,7.66,0,0,1,2.57.16,5.5,5.5,0,0,1,3.75,3.1c.21.42.36.73.65.81a.92.92,0,0,0,1-.83.94.94,0,0,0,0-.29,9.78,9.78,0,0,1,2-.82c.1.77.46,1.82.87,4,1.85,9.88-.21,20.71-8.05,26.79l.82.63a23.27,23.27,0,0,0,7.46-11.35c1.88,2.71,1.5,5.12,2.48,4.3.59-.51-.6-3.63-2.16-5.43a27,27,0,0,0,.67-3.68l.27-.12V71c6.16-2.55,12.24-8.57,12.39-12.5.35-9.23-2.23-9.17,1-12.87s3.38-3.85,5.63-5a.27.27,0,0,0,.13-.28A.22.22,0,0,0,191.56,40.17Z"/></g><g id="Group_5853" data-name="Group 5853"><path id="Path_29929" data-name="Path 29929" class="cls-1" d="M182.31,79.09c-5.11-.84-8.82,1-8.87,1.85h0v.2l.06,0v0a.25.25,0,0,0,0,.07.82.82,0,0,1,.2.12.45.45,0,0,0,.34,0,7.49,7.49,0,0,1,3-1.37c3.06-.71,6.16.22,9,1.15.31.1.63.13.9.22a.34.34,0,0,0,.43-.21.29.29,0,0,0,0-.13C187.42,80.54,184.78,79.49,182.31,79.09Z"/></g><path id="Path_29930" data-name="Path 29930" class="cls-1" d="M159.94,53.71a10.2,10.2,0,0,1,0,4.88,5.52,5.52,0,0,0-4.33.38.16.16,0,0,0,0,.2c.08.13.21.09.62,0a7.79,7.79,0,0,1,3.53.09c-1.83,5.65-8.38,9.3-10.71,15.12a9.63,9.63,0,0,0,.05,1.42l-.77.07a23.73,23.73,0,0,1-4.38-.08,25.82,25.82,0,0,1-8.46-2.46,29.66,29.66,0,0,1-4.31-2.56.18.18,0,0,0-.24.08.17.17,0,0,0,0,.18,20.72,20.72,0,0,0,7.77,4.72,25,25,0,0,0,9.15,1.37,23.42,23.42,0,0,0,2.51-.24,11.55,11.55,0,0,0,1.33-.24,2.78,2.78,0,0,0,1.27-.51.45.45,0,0,0,.08-.64.47.47,0,0,0-.27-.16,2.92,2.92,0,0,0-1.14.07c-.36,0-.72.14-1.09.2s-.89.14-1.33.19c2.42-7,9.14-9.39,11.5-16.18.5.22,1.09.62,1.3.28a.33.33,0,0,0,0-.32,2,2,0,0,0-1.08-.7,9.74,9.74,0,0,0,.28-3.6,5.11,5.11,0,0,0-.63-1.87C160.39,53.06,159.85,53.33,159.94,53.71Z"/><path id="Path_29931" data-name="Path 29931" class="cls-1" d="M167.32,89.72a46.67,46.67,0,0,1-6.24-4.78c-1-.88-1.89-1.79-2.82-2.72-.46-.47-.9-.94-1.35-1.42s-.92-.91-1.36-1.4-.94-1.17-1.39-1.77-.83-1.19-1.31-1.73a0,0,0,0,0,0,0,11.39,11.39,0,0,0,1,1.65q.56.84,1.14,1.65c.39.54.76,1.09,1.14,1.64s.81,1.07,1.25,1.57a40.63,40.63,0,0,0,5.85,5.5,43.76,43.76,0,0,0,3.69,2.61C167.37,90.89,167.83,90.05,167.32,89.72Z"/></g><g id="Group_5869" data-name="Group 5869"><g id="Group_5855" data-name="Group 5855"><path id="Path_29932" data-name="Path 29932" class="cls-1" d="M137,50.48a.43.43,0,0,0,0,.6h0a.39.39,0,0,0,.55,0h0c3.35-3.14,3.83-7.65,4.29-12a26.51,26.51,0,0,1,1.65-7.92c2-4.71,5.37-8.07,10.1-21.21,1.33,2.52,1.31,6,.59,8.8-2.48,3.9-4.07,6.77-6.27,10.76A.3.3,0,0,0,148,30a.31.31,0,0,0,.38-.07,27.14,27.14,0,0,0,6.17-10.72c2.79-4.31,5.18-7.42,5.8-8.31s.89-1.25,1.37-1.16c1.4.29,0,3.69-.6,5-1.2,2.63-2.1,3-1.59,3.42a.48.48,0,0,0,.51.09l0,0a31.63,31.63,0,0,0,2-2.48,4.73,4.73,0,0,1-.12,2.18,12.74,12.74,0,0,1-2.46,5.33,28.21,28.21,0,0,1-9.33,8.49,22.11,22.11,0,0,1-2.44,1.33c-.41.17-.12.8.3.62.81-.35,1.66-.65,2.46-1a28.2,28.2,0,0,0,6.81-5.08c.67.34,6.53-6.15,8.5-9.73.24-.43.57-1,1-1,1,0,.54,2,.39,2.72a15,15,0,0,1-3.42,6.82,54.61,54.61,0,0,0-6.48,4.77.45.45,0,0,0-.28.58.47.47,0,0,0,.59.28l0,0A17.3,17.3,0,0,0,164,27.13c3-1.95,3.93-2.48,4.6-2.34a.2.2,0,0,0,.11-.38c-1.25-.34-1.84,0-3.43.93a19.37,19.37,0,0,0,2.38-5.53c.27-1,.67-2.31,0-3.16a1.22,1.22,0,0,0-1.26-.47,2.13,2.13,0,0,0-1.12,1.09,52.86,52.86,0,0,1-5,6.7,16.1,16.1,0,0,0,2.19-4,6.31,6.31,0,0,0,.47-2.47,8.75,8.75,0,0,0-.54-2.42.25.25,0,0,0-.16-.14,9.17,9.17,0,0,0,.67-2.58c.15-.9.35-2.12-.38-2.85a1.28,1.28,0,0,0-1.14-.39,1.92,1.92,0,0,0-1.15.88c-1.81,2.36-3.61,4.93-5.36,7.63a15.13,15.13,0,0,0,.18-4,15.45,15.45,0,0,0-1.23-4.72.38.38,0,0,0-.51-.16.39.39,0,0,0-.18.2c-1.83,4.19-3.34,8.31-5.78,12.93-.69,1.32-1.46,2.61-2.19,3.89-4.62,8.15-3.53,9.65-4.61,16.69C140,46.12,138.8,48.74,137,50.48Zm16.55-29.7a25,25,0,0,1-3.67,6.27c1.07-2,2.29-4.06,3.67-6.27Z"/></g><g id="Group_5856" data-name="Group 5856"><path id="Path_29933" data-name="Path 29933" class="cls-1" d="M169.09,25.12s0,0,0,0,0,0,0,0Z"/></g><g id="Group_5857" data-name="Group 5857"><path id="Path_29934" data-name="Path 29934" class="cls-1" d="M169.16,25.25a.12.12,0,0,0,.05-.17h0l0,0-.1,0L169,25a.13.13,0,0,0,0,.17h0l0,0,.09,0Zm-.11-.2a.1.1,0,0,1,.14,0,.11.11,0,0,1,0,.13.11.11,0,0,1-.14,0A.11.11,0,0,1,169.05,25.05Z"/></g><g id="Group_5858" data-name="Group 5858"><path id="Path_29935" data-name="Path 29935" class="cls-1" d="M168.87,25.39a2.91,2.91,0,0,1-.65,1.33.15.15,0,0,0,.19.23,2.45,2.45,0,0,0,.75-1.52.15.15,0,0,0-.13-.16A.15.15,0,0,0,168.87,25.39Z"/></g><g id="Group_5859" data-name="Group 5859"><path id="Path_29936" data-name="Path 29936" class="cls-1" d="M166.82,41.6c1.44-1.43.88-2.88-1-3.54,2.3-1.27,6.18-4.54,4.07-6-.77-.54-1.94-.24-3,.07a20,20,0,0,0,2.65-3,.16.16,0,0,0-.07-.23.15.15,0,0,0-.2,0,17.11,17.11,0,0,1-3.63,3.63,20,20,0,0,0-5.14,2.75.36.36,0,0,0,.35.63,17.85,17.85,0,0,0,4.59-2.57,11.69,11.69,0,0,1,3.54-.86.75.75,0,0,1,.74.75.76.76,0,0,1-.08.33c-.39,1-2.56,3-5.31,4.18a5.7,5.7,0,0,0-4,1.07.5.5,0,0,0-.09.69.53.53,0,0,0,.44.19,13.79,13.79,0,0,0,4.12-1.13c1,.12,2.49.75,2.14,1.73a1.67,1.67,0,0,1-.76.77,12.18,12.18,0,0,1-2.79,1.35,5.43,5.43,0,0,0-4.21.74c-.44.29-.12.86.31.87a11.76,11.76,0,0,0,4-.65c3,1,1.14,2.66-2.52,3a1.75,1.75,0,0,0-.74-.15,5.12,5.12,0,0,0-2.43,0,.44.44,0,0,0,0,.86,9.65,9.65,0,0,0,2.51.21c2.27,1.34.16,5.39-4.19,3.3-.22-.13-.44-.24-.63-.34a.46.46,0,0,0-.62.16l0,0a.56.56,0,0,0,.21.75l.41.23a2.46,2.46,0,0,1,1.26,1.3,1.46,1.46,0,0,1-.57,1.42c-1.14,1-2.74.45-4.16-.18-.5-.22-1,.53-.5.85s1.39.89,1.61,1.65c.44,1.56-2.21,2.12-4.2,1.64-.66-.79-1.75-.8-1.81-.22,0,.35.26.41.68.62.17.08.34.17.52.24.31.6-.08,1.6-1.21,1.88a.24.24,0,0,0,0-.33l0,0A17.15,17.15,0,0,1,143.14,57a1.2,1.2,0,0,0,.11-.81,3.92,3.92,0,0,0,3.3-1.22,16.64,16.64,0,0,0,5,2.25.26.26,0,0,0,.28-.23.25.25,0,0,0-.12-.24c-.88-.45-1.83-.77-2.71-1.19a22.57,22.57,0,0,1-2.06-1.1,1.67,1.67,0,0,0,.18-1.44,6.27,6.27,0,0,0,1.06,0c2.81-.31,3.19-1.81,2.56-2.87l-.1-.15c2.22-.23,3.18-2.41,1.79-4,2.25-.58,3.45-2.94,2-4.28,3.12-1.49,3.39-4.43,1.9-5.4a2.74,2.74,0,0,0,.91-3.08c-.47-1.25-2.05-2.33-4.11-.46A.25.25,0,0,0,153,33c.13.21.35.1.45.06a3.63,3.63,0,0,1,1.71-.39c1.11.14,1.77,2.09-.28,3.32a1.77,1.77,0,0,0-.6.33.48.48,0,0,0,.51.79c.18-.07.36-.16.54-.25.65,0,1.26.79.59,2.08a4.35,4.35,0,0,1-1.17,1.39,6.22,6.22,0,0,1-1.5.81,1.51,1.51,0,0,0-.3,0c-.52.06-.47.93.07.89s1.29,1,.47,2a3.24,3.24,0,0,1-2.11,1.08,5.58,5.58,0,0,0-.82-.38.43.43,0,0,0-.5.2.37.37,0,0,0,0,.49,2.07,2.07,0,0,0,1,.53,1.84,1.84,0,0,1,.82,2.12c-.46,1.1-2,1-3.15.7a.49.49,0,0,0-.6.35.43.43,0,0,0,.28.54h0l.08,0a2.35,2.35,0,0,1,1.4.82.73.73,0,0,1,.09.61c-.21.68-1.58.93-2.3,1-.54,0-1.1,0-1.64.06-.34,0-.57.26-.3.45a1.79,1.79,0,0,0,.39.2c.36.74-.09,1.17-.5,1.6a2.81,2.81,0,0,1-2.66.82,4.63,4.63,0,0,1-1.32-.6.39.39,0,0,0-.54.12.38.38,0,0,0,0,.45,2.75,2.75,0,0,0,1.22.79c.21.42-.21.8-1,.81a4.28,4.28,0,0,1-2.64-.88.44.44,0,0,0-.59.18.43.43,0,0,0,.1.54,4.49,4.49,0,0,0,.76.53.89.89,0,0,1,.2,1.06c-.45.64-1.88,0-2.58-.31-.9-.42-1-.41-1.07-.32a.14.14,0,0,0,0,.16c.52,1,2.68,2,3.89,1.45a1.45,1.45,0,0,0,.79-1.53,3.4,3.4,0,0,0,2.37-.15,9.6,9.6,0,0,0,4.25,3.1,6.73,6.73,0,0,1-4.13-.94l-.08,0c-.46-.26-.89.45-.48.76.56.43,1.26,1,1.34,1.71.11,1-1.17,1.44-3,.22a4.28,4.28,0,0,0-2-2.22.32.32,0,0,0-.42,0,.29.29,0,0,0,0,.39c.12.17.23.36.34.54a6.42,6.42,0,0,0,1.23,1.56c.21,2.37-4.28,1.25-5.69-2.73a.3.3,0,0,0-.34-.27h-.06a.32.32,0,0,0-.22.4c1.06,3.89,6.48,6.27,7.21,3.28,3.16,2,4.85-.45,3.78-2.26,3.39,1.13,5.24-.61,5.11-2.06,3.32.69,5.82-1.25,4.52-3.45,2.86.51,4.46-1.71,3.85-3.39,3.64.68,6.17-2.67,4.14-5.13,1.84-.4,4.31-1.6,3.63-3.37a1.74,1.74,0,0,0-.8-.81c.2-.09.4-.19.58-.29A6.25,6.25,0,0,0,166.82,41.6Z"/></g><g id="Group_5860" data-name="Group 5860"><path id="Path_29937" data-name="Path 29937" class="cls-1" d="M143.29,46.1c-.53.23-1.14.26-1.7.48a.28.28,0,0,0-.13.36.27.27,0,0,0,.22.15c1.53.2,3.37-.62,3.66-2.14a1.56,1.56,0,0,0-.59-1.53c1.85-1.06,2.58-3.41,1.12-4.05a5,5,0,0,0,.9-2.49,1,1,0,0,0-.91-1.05,9.13,9.13,0,0,0,.43-1.86c.05-.42.13-1.17-.4-1.38h0c-.55-.22-1,.32-.67.7a1,1,0,0,1,.16,1.39h0c-.32.59-.41,1.31-.72,1.91a4,4,0,0,0-.21.39c-.21.43.48.77.71.37.11-.2.42-.88.68-.68s-.06.83-.12,1a5.06,5.06,0,0,1-1.22,2h0a.41.41,0,0,0,.09.56.4.4,0,0,0,.57,0h0l.05,0c.22-.25,1.07.25,0,1.64a3.72,3.72,0,0,1-1.69,1.24c-1.15.12-.78.89-.35.85a3.88,3.88,0,0,0,.82-.18,1,1,0,0,1,.37.32C144.71,44.58,144.44,45.6,143.29,46.1Z"/></g><g id="Group_5861" data-name="Group 5861"><path id="Path_29938" data-name="Path 29938" class="cls-1" d="M140.45,55.37c0-.15,0-.2-.77-.48-1.77-.68-1.6-1.42-2.16-1.91-.34-.3-.81.71.72,2C139.37,55.87,140.43,55.69,140.45,55.37Z"/></g><g id="Group_5862" data-name="Group 5862"><path id="Path_29939" data-name="Path 29939" class="cls-1" d="M143.9,54.2a.21.21,0,0,0,.09-.27.19.19,0,0,0-.13-.1,10,10,0,0,1-4.14-1.91c-.27-.22-.58.2-.32.43A6.46,6.46,0,0,0,143.9,54.2Z"/></g><g id="Group_5863" data-name="Group 5863"><path id="Path_29940" data-name="Path 29940" class="cls-1" d="M141.85,49.19c-.38.61,3.83,2.26,5.84,1.54a.22.22,0,0,0,.15-.23c0-.27-.29-.27-1.09-.25a8,8,0,0,1-3.82-.81C142.7,49.32,142,49,141.85,49.19Z"/></g><g id="Group_5864" data-name="Group 5864"><path id="Path_29941" data-name="Path 29941" class="cls-1" d="M148.26,39.43h0a.23.23,0,0,0-.32.07.22.22,0,0,0,.06.32h0a3.31,3.31,0,0,0,2.49.63.16.16,0,0,0,.13-.19.15.15,0,0,0-.14-.13A6.2,6.2,0,0,1,148.26,39.43Z"/></g><g id="Group_5865" data-name="Group 5865"><path id="Path_29942" data-name="Path 29942" class="cls-1" d="M149.73,38.84a.18.18,0,1,0-.2.29h0c1.78,1.37,4.08.65,3.54.06-.23-.25-1.09.07-1.25.09A3.32,3.32,0,0,1,149.73,38.84Z"/></g><g id="Group_5866" data-name="Group 5866"><path id="Path_29943" data-name="Path 29943" class="cls-1" d="M151.57,38.69c2.07.21,2.16.36,2.55.16a.27.27,0,0,0,.12-.36.28.28,0,0,0-.09-.1,2,2,0,0,0-1.21-.14c-1.14,0-1.56-.17-1.58.18A.25.25,0,0,0,151.57,38.69Z"/></g><g id="Group_5867" data-name="Group 5867"><path id="Path_29944" data-name="Path 29944" class="cls-1" d="M149.73,30.05a46.22,46.22,0,0,0,9.56-13.62.24.24,0,0,0-.14-.32.24.24,0,0,0-.29.1c-1.07,1.86-2.05,3.8-3.2,5.62a58.91,58.91,0,0,1-6,7.85c-.1.12-.24.24-.11.36A.15.15,0,0,0,149.73,30.05Z"/></g><g id="Group_5868" data-name="Group 5868"><path id="Path_29945" data-name="Path 29945" class="cls-1" d="M140.64,36.22h0c.06-.94.19-1.9.32-2.79a24.3,24.3,0,0,1,1.7-6.26c4.52-12.59,2.7-14.55,2.51-17.14a3.85,3.85,0,0,1,2.15,2.25,15.53,15.53,0,0,1,.64,4.57c0,.41.61.34.68,0,.94-4.94-1.46-7.46-3.86-7.6a.35.35,0,0,0-.37.33.23.23,0,0,0,0,.16c.08.22.2.4.29.61a12.37,12.37,0,0,1,.4,4.53c-.29,6-2.33,8.89-3.84,15.41a21.77,21.77,0,0,0-1,5.93.18.18,0,0,0,.16.18.17.17,0,0,0,.17-.16Z"/></g></g><g id="Group_5884" data-name="Group 5884"><g id="Group_5870" data-name="Group 5870"><path id="Path_29946" data-name="Path 29946" class="cls-1" d="M137,50.48a.43.43,0,0,0,0,.6h0a.39.39,0,0,0,.55,0h0c3.35-3.14,3.83-7.65,4.29-12a26.51,26.51,0,0,1,1.65-7.92c2-4.71,5.37-8.07,10.1-21.21,1.33,2.52,1.31,6,.59,8.8-2.48,3.9-4.07,6.77-6.27,10.76A.3.3,0,0,0,148,30a.31.31,0,0,0,.38-.07,27.14,27.14,0,0,0,6.17-10.72c2.79-4.31,5.18-7.42,5.8-8.31s.89-1.25,1.37-1.16c1.4.29,0,3.69-.6,5-1.2,2.63-2.1,3-1.59,3.42a.48.48,0,0,0,.51.09l0,0a31.63,31.63,0,0,0,2-2.48,4.73,4.73,0,0,1-.12,2.18,12.74,12.74,0,0,1-2.46,5.33,28.21,28.21,0,0,1-9.33,8.49,22.11,22.11,0,0,1-2.44,1.33c-.41.17-.12.8.3.62.81-.35,1.66-.65,2.46-1a28.2,28.2,0,0,0,6.81-5.08c.67.34,6.53-6.15,8.5-9.73.24-.43.57-1,1-1,1,0,.54,2,.39,2.72a15,15,0,0,1-3.42,6.82,54.61,54.61,0,0,0-6.48,4.77.45.45,0,0,0-.28.58.47.47,0,0,0,.59.28l0,0A17.3,17.3,0,0,0,164,27.13c3-1.95,3.93-2.48,4.6-2.34a.2.2,0,0,0,.11-.38c-1.25-.34-1.84,0-3.43.93a19.37,19.37,0,0,0,2.38-5.53c.27-1,.67-2.31,0-3.16a1.22,1.22,0,0,0-1.26-.47,2.13,2.13,0,0,0-1.12,1.09,52.86,52.86,0,0,1-5,6.7,16.1,16.1,0,0,0,2.19-4,6.31,6.31,0,0,0,.47-2.47,8.75,8.75,0,0,0-.54-2.42.25.25,0,0,0-.16-.14,9.17,9.17,0,0,0,.67-2.58c.15-.9.35-2.12-.38-2.85a1.28,1.28,0,0,0-1.14-.39,1.92,1.92,0,0,0-1.15.88c-1.81,2.36-3.61,4.93-5.36,7.63a15.13,15.13,0,0,0,.18-4,15.45,15.45,0,0,0-1.23-4.72.38.38,0,0,0-.51-.16.39.39,0,0,0-.18.2c-1.83,4.19-3.34,8.31-5.78,12.93-.69,1.32-1.46,2.61-2.19,3.89-4.62,8.15-3.53,9.65-4.61,16.69C140,46.12,138.8,48.74,137,50.48Zm16.55-29.7a25,25,0,0,1-3.67,6.27c1.07-2,2.29-4.06,3.67-6.27Z"/></g><g id="Group_5871" data-name="Group 5871"><path id="Path_29947" data-name="Path 29947" class="cls-1" d="M169.09,25.12s0,0,0,0,0,0,0,0Z"/></g><g id="Group_5872" data-name="Group 5872"><path id="Path_29948" data-name="Path 29948" class="cls-1" d="M169.16,25.25a.12.12,0,0,0,.05-.17h0l0,0-.1,0L169,25a.13.13,0,0,0,0,.17h0l0,0,.09,0Zm-.11-.2a.1.1,0,0,1,.14,0,.11.11,0,0,1,0,.13.11.11,0,0,1-.14,0A.11.11,0,0,1,169.05,25.05Z"/></g><g id="Group_5873" data-name="Group 5873"><path id="Path_29949" data-name="Path 29949" class="cls-1" d="M168.87,25.39a2.91,2.91,0,0,1-.65,1.33.15.15,0,0,0,.19.23,2.45,2.45,0,0,0,.75-1.52.15.15,0,0,0-.13-.16A.15.15,0,0,0,168.87,25.39Z"/></g><g id="Group_5874" data-name="Group 5874"><path id="Path_29950" data-name="Path 29950" class="cls-1" d="M166.82,41.6c1.44-1.43.88-2.88-1-3.54,2.3-1.27,6.18-4.54,4.07-6-.77-.54-1.94-.24-3,.07a20,20,0,0,0,2.65-3,.16.16,0,0,0-.07-.23.15.15,0,0,0-.2,0,17.11,17.11,0,0,1-3.63,3.63,20,20,0,0,0-5.14,2.75.36.36,0,0,0,.35.63,17.85,17.85,0,0,0,4.59-2.57,11.69,11.69,0,0,1,3.54-.86.75.75,0,0,1,.74.75.76.76,0,0,1-.08.33c-.39,1-2.56,3-5.31,4.18a5.7,5.7,0,0,0-4,1.07.5.5,0,0,0-.09.69.53.53,0,0,0,.44.19,13.79,13.79,0,0,0,4.12-1.13c1,.12,2.49.75,2.14,1.73a1.67,1.67,0,0,1-.76.77,12.18,12.18,0,0,1-2.79,1.35,5.43,5.43,0,0,0-4.21.74c-.44.29-.12.86.31.87a11.76,11.76,0,0,0,4-.65c3,1,1.14,2.66-2.52,3a1.75,1.75,0,0,0-.74-.15,5.12,5.12,0,0,0-2.43,0,.44.44,0,0,0,0,.86,9.65,9.65,0,0,0,2.51.21c2.27,1.34.16,5.39-4.19,3.3-.22-.13-.44-.24-.63-.34a.46.46,0,0,0-.62.16l0,0a.56.56,0,0,0,.21.75l.41.23a2.46,2.46,0,0,1,1.26,1.3,1.46,1.46,0,0,1-.57,1.42c-1.14,1-2.74.45-4.16-.18-.5-.22-1,.53-.5.85s1.39.89,1.61,1.65c.44,1.56-2.21,2.12-4.2,1.64-.66-.79-1.75-.8-1.81-.22,0,.35.26.41.68.62.17.08.34.17.52.24.31.6-.08,1.6-1.21,1.88a.24.24,0,0,0,0-.33l0,0A17.15,17.15,0,0,1,143.14,57a1.2,1.2,0,0,0,.11-.81,3.92,3.92,0,0,0,3.3-1.22,16.64,16.64,0,0,0,5,2.25.26.26,0,0,0,.28-.23.25.25,0,0,0-.12-.24c-.88-.45-1.83-.77-2.71-1.19a22.57,22.57,0,0,1-2.06-1.1,1.67,1.67,0,0,0,.18-1.44,6.27,6.27,0,0,0,1.06,0c2.81-.31,3.19-1.81,2.56-2.87l-.1-.15c2.22-.23,3.18-2.41,1.79-4,2.25-.58,3.45-2.94,2-4.28,3.12-1.49,3.39-4.43,1.9-5.4a2.74,2.74,0,0,0,.91-3.08c-.47-1.25-2.05-2.33-4.11-.46A.25.25,0,0,0,153,33c.13.21.35.1.45.06a3.63,3.63,0,0,1,1.71-.39c1.11.14,1.77,2.09-.28,3.32a1.77,1.77,0,0,0-.6.33.48.48,0,0,0,.51.79c.18-.07.36-.16.54-.25.65,0,1.26.79.59,2.08a4.35,4.35,0,0,1-1.17,1.39,6.22,6.22,0,0,1-1.5.81,1.51,1.51,0,0,0-.3,0c-.52.06-.47.93.07.89s1.29,1,.47,2a3.24,3.24,0,0,1-2.11,1.08,5.58,5.58,0,0,0-.82-.38.43.43,0,0,0-.5.2.37.37,0,0,0,0,.49,2.07,2.07,0,0,0,1,.53,1.84,1.84,0,0,1,.82,2.12c-.46,1.1-2,1-3.15.7a.49.49,0,0,0-.6.35.43.43,0,0,0,.28.54h0l.08,0a2.35,2.35,0,0,1,1.4.82.73.73,0,0,1,.09.61c-.21.68-1.58.93-2.3,1-.54,0-1.1,0-1.64.06-.34,0-.57.26-.3.45a1.79,1.79,0,0,0,.39.2c.36.74-.09,1.17-.5,1.6a2.81,2.81,0,0,1-2.66.82,4.63,4.63,0,0,1-1.32-.6.39.39,0,0,0-.54.12.38.38,0,0,0,0,.45,2.75,2.75,0,0,0,1.22.79c.21.42-.21.8-1,.81a4.28,4.28,0,0,1-2.64-.88.44.44,0,0,0-.59.18.43.43,0,0,0,.1.54,4.49,4.49,0,0,0,.76.53.89.89,0,0,1,.2,1.06c-.45.64-1.88,0-2.58-.31-.9-.42-1-.41-1.07-.32a.14.14,0,0,0,0,.16c.52,1,2.68,2,3.89,1.45a1.45,1.45,0,0,0,.79-1.53,3.4,3.4,0,0,0,2.37-.15,9.6,9.6,0,0,0,4.25,3.1,6.73,6.73,0,0,1-4.13-.94l-.08,0c-.46-.26-.89.45-.48.76.56.43,1.26,1,1.34,1.71.11,1-1.17,1.44-3,.22a4.28,4.28,0,0,0-2-2.22.32.32,0,0,0-.42,0,.29.29,0,0,0,0,.39c.12.17.23.36.34.54a6.42,6.42,0,0,0,1.23,1.56c.21,2.37-4.28,1.25-5.69-2.73a.3.3,0,0,0-.34-.27h-.06a.32.32,0,0,0-.22.4c1.06,3.89,6.48,6.27,7.21,3.28,3.16,2,4.85-.45,3.78-2.26,3.39,1.13,5.24-.61,5.11-2.06,3.32.69,5.82-1.25,4.52-3.45,2.86.51,4.46-1.71,3.85-3.39,3.64.68,6.17-2.67,4.14-5.13,1.84-.4,4.31-1.6,3.63-3.37a1.74,1.74,0,0,0-.8-.81c.2-.09.4-.19.58-.29A6.25,6.25,0,0,0,166.82,41.6Z"/></g><g id="Group_5875" data-name="Group 5875"><path id="Path_29951" data-name="Path 29951" class="cls-1" d="M143.29,46.1c-.53.23-1.14.26-1.7.48a.28.28,0,0,0-.13.36.27.27,0,0,0,.22.15c1.53.2,3.37-.62,3.66-2.14a1.56,1.56,0,0,0-.59-1.53c1.85-1.06,2.58-3.41,1.12-4.05a5,5,0,0,0,.9-2.49,1,1,0,0,0-.91-1.05,9.13,9.13,0,0,0,.43-1.86c.05-.42.13-1.17-.4-1.38h0c-.55-.22-1,.32-.67.7a1,1,0,0,1,.16,1.39h0c-.32.59-.41,1.31-.72,1.91a4,4,0,0,0-.21.39c-.21.43.48.77.71.37.11-.2.42-.88.68-.68s-.06.83-.12,1a5.06,5.06,0,0,1-1.22,2h0a.41.41,0,0,0,.09.56.4.4,0,0,0,.57,0h0l.05,0c.22-.25,1.07.25,0,1.64a3.72,3.72,0,0,1-1.69,1.24c-1.15.12-.78.89-.35.85a3.88,3.88,0,0,0,.82-.18,1,1,0,0,1,.37.32C144.71,44.58,144.44,45.6,143.29,46.1Z"/></g><g id="Group_5876" data-name="Group 5876"><path id="Path_29952" data-name="Path 29952" class="cls-1" d="M140.45,55.37c0-.15,0-.2-.77-.48-1.77-.68-1.6-1.42-2.16-1.91-.34-.3-.81.71.72,2C139.37,55.87,140.43,55.69,140.45,55.37Z"/></g><g id="Group_5877" data-name="Group 5877"><path id="Path_29953" data-name="Path 29953" class="cls-1" d="M143.9,54.2a.21.21,0,0,0,.09-.27.19.19,0,0,0-.13-.1,10,10,0,0,1-4.14-1.91c-.27-.22-.58.2-.32.43A6.46,6.46,0,0,0,143.9,54.2Z"/></g><g id="Group_5878" data-name="Group 5878"><path id="Path_29954" data-name="Path 29954" class="cls-1" d="M141.85,49.19c-.38.61,3.83,2.26,5.84,1.54a.22.22,0,0,0,.15-.23c0-.27-.29-.27-1.09-.25a8,8,0,0,1-3.82-.81C142.7,49.32,142,49,141.85,49.19Z"/></g><g id="Group_5879" data-name="Group 5879"><path id="Path_29955" data-name="Path 29955" class="cls-1" d="M148.26,39.43h0a.23.23,0,0,0-.32.07.22.22,0,0,0,.06.32h0a3.31,3.31,0,0,0,2.49.63.16.16,0,0,0,.13-.19.15.15,0,0,0-.14-.13A6.2,6.2,0,0,1,148.26,39.43Z"/></g><g id="Group_5880" data-name="Group 5880"><path id="Path_29956" data-name="Path 29956" class="cls-1" d="M149.73,38.84a.18.18,0,1,0-.2.29h0c1.78,1.37,4.08.65,3.54.06-.23-.25-1.09.07-1.25.09A3.32,3.32,0,0,1,149.73,38.84Z"/></g><g id="Group_5881" data-name="Group 5881"><path id="Path_29957" data-name="Path 29957" class="cls-1" d="M151.57,38.69c2.07.21,2.16.36,2.55.16a.27.27,0,0,0,.12-.36.28.28,0,0,0-.09-.1,2,2,0,0,0-1.21-.14c-1.14,0-1.56-.17-1.58.18A.25.25,0,0,0,151.57,38.69Z"/></g><g id="Group_5882" data-name="Group 5882"><path id="Path_29958" data-name="Path 29958" class="cls-1" d="M149.73,30.05a46.22,46.22,0,0,0,9.56-13.62.24.24,0,0,0-.14-.32.24.24,0,0,0-.29.1c-1.07,1.86-2.05,3.8-3.2,5.62a58.91,58.91,0,0,1-6,7.85c-.1.12-.24.24-.11.36A.15.15,0,0,0,149.73,30.05Z"/></g><g id="Group_5883" data-name="Group 5883"><path id="Path_29959" data-name="Path 29959" class="cls-1" d="M140.64,36.22h0c.06-.94.19-1.9.32-2.79a24.3,24.3,0,0,1,1.7-6.26c4.52-12.59,2.7-14.55,2.51-17.14a3.85,3.85,0,0,1,2.15,2.25,15.53,15.53,0,0,1,.64,4.57c0,.41.61.34.68,0,.94-4.94-1.46-7.46-3.86-7.6a.35.35,0,0,0-.37.33.23.23,0,0,0,0,.16c.08.22.2.4.29.61a12.37,12.37,0,0,1,.4,4.53c-.29,6-2.33,8.89-3.84,15.41a21.77,21.77,0,0,0-1,5.93.18.18,0,0,0,.16.18.17.17,0,0,0,.17-.16Z"/></g></g></g></g></g></g></svg>