<svg xmlns="http://www.w3.org/2000/svg" viewBox="0 0 618.03 317.34"><defs><style>.cls-1,.cls-2{fill:#fff;}.cls-2{stroke:#fff;stroke-miterlimit:10;stroke-width:0.27px;}.cls-3{fill:#163d50;}.cls-4{fill:#ffd76c;}.cls-5{fill:#b69564;}</style></defs><g id="圖層_2" data-name="圖層 2"><g id="圖層_1-2" data-name="圖層 1"><g id="Group_6017" data-name="Group 6017"><g id="Group_5995" data-name="Group 5995"><g id="Group_5947" data-name="Group 5947"><g id="Group_5929" data-name="Group 5929"><path id="Path_30058" data-name="Path 30058" class="cls-1" d="M200.76,141.29a1,1,0,0,1-.47-1.71.94.94,0,0,1,1.32.1.92.92,0,0,1,.23.69,1,1,0,0,1-1,.92Z"/></g><g id="Group_5930" data-name="Group 5930"><path id="Path_30059" data-name="Path 30059" class="cls-1" d="M201.71,127.34a9.71,9.71,0,0,0-4-1,1.25,1.25,0,0,1-.66-2.27c1.95-1.89,8.43-.11,7.94,2.86C204.71,128.74,202.3,129.48,201.71,127.34Z"/></g><g id="Group_5931" data-name="Group 5931"><path id="Path_30060" data-name="Path 30060" class="cls-1" d="M207.77,108.18c2.82,5-3.34,12.92-10.34,9.33a10.1,10.1,0,0,1-3.89,4.1c2.13,3.3-.48,8.24-6.71,8-.59.31-1.51,0-2.29-.32-1.46-.53-.85-2.93.68-2.57,5.79,1.37,7.74-2.55,6.44-4.55a3.38,3.38,0,0,1-2.44-.89h0a1.17,1.17,0,0,1,1.11-2c1.36.39,3.17.39,5.21-3.14-.91-1-1.64-2.52-1.34-3.36.49-1.34,3.57-.77,4.09,1.6,4,2.76,8.5,0,7.93-5.71a.82.82,0,0,1,1.55-.46Z"/></g><g id="Group_5932" data-name="Group 5932"><path id="Path_30061" data-name="Path 30061" class="cls-1" d="M182.13,129.9a.84.84,0,0,1-1.6.14,6.19,6.19,0,0,0-3.67-3.81c1.63,1,3,3.25,2.25,5a1.22,1.22,0,0,1-2.25,0c-.59-1.39,0-3.23-3.14-3.15-.81,0-1.82,0-2-1-.14-.87.79-1.63,2.29-1.64-.41-.07-.8-.13-1.16-.16a2.71,2.71,0,0,0-3.17,2.15.5.5,0,0,0,0,.12c-.42,2,1.27,6.29-.76,6.18a1.12,1.12,0,0,1-.67-.3c-3.08-3.05-2.53-11.08,3.9-11.25C176.29,122,183.4,124.71,182.13,129.9Z"/></g><g id="Group_5933" data-name="Group 5933"><path id="Path_30062" data-name="Path 30062" class="cls-1" d="M177.87,138.49a4.06,4.06,0,0,1-1.66-.73c-1.4-.84-.93-4.53,1-5.27a1.54,1.54,0,0,1,1.8.59c.36.37.81.83.64,1.34a1.21,1.21,0,0,1-1,.68,1.69,1.69,0,0,0-.15.43C180.56,137,179.3,138.64,177.87,138.49Z"/></g><g id="Group_5934" data-name="Group 5934"><path id="Path_30063" data-name="Path 30063" class="cls-1" d="M180.64,144.42c-3.78,1.69-11-1.34-11.35-6.19,0-.16,0-.62.34-.8s.87.19,1.79,1.08c1.89,1.8,3.19,2.89,5.76,3.31a9.89,9.89,0,0,0,2.37,0,1.63,1.63,0,0,1,1,.05,1.41,1.41,0,0,1,.82,1.81A1.43,1.43,0,0,1,180.64,144.42Z"/></g><path id="Path_30064" data-name="Path 30064" class="cls-1" d="M193.53,131.22a12.08,12.08,0,0,0,1.9-.39c1.17-.26,4.89.59,6.4,2.94a2.08,2.08,0,0,1-.46,2.9,3,3,0,0,1-.43.24.77.77,0,0,1,0,.15,2.85,2.85,0,0,1-1.31,2.64c-.86.54-2.31.59-2.83-.46a1.42,1.42,0,0,1-.1-.93,1.5,1.5,0,0,1,0-.3,1.07,1.07,0,0,1,.33-.69l.71-1.87c-1.71-1.82-3.24-2.9-4.21-2.95a.64.64,0,0,1,0-1.28Z"/><g id="Group_5935" data-name="Group 5935"><path id="Path_30065" data-name="Path 30065" class="cls-1" d="M198.59,140.58a1,1,0,0,1,.89,1.16,1,1,0,0,1-.6.81,1,1,0,0,1-1.27-1.42A1,1,0,0,1,198.59,140.58Z"/></g><g id="Group_5936" data-name="Group 5936"><path id="Path_30066" data-name="Path 30066" class="cls-1" d="M260.7,183.08c.36-1.07,2.84-1.32,3.47-1.73s2.12-3.81,2.8-3.83c1.14,0,1.27,2.29,1.09,2.88a6.34,6.34,0,0,1-4.72,4.35C261.4,185.07,260.43,183.85,260.7,183.08Z"/></g><g id="Group_5937" data-name="Group 5937"><path id="Path_30067" data-name="Path 30067" class="cls-1" d="M259.29,193l.09.27h0l-.09-.27h0c.73-.25-.25-1.77.13-3.26.59-2.31,2.89-1.91,3.09-2.93a1.15,1.15,0,0,1,2.25-.16c.35.87-.12,2.31-2.13,3.13-.91.37-.95.48-.8,1.53.41,2.71-.09,3.45-2.46,4.62a1.36,1.36,0,0,1-1.86-.49,1.26,1.26,0,0,1-.17-.47C257.06,193.75,258.62,193.21,259.29,193Z"/></g><g id="Group_5938" data-name="Group 5938"><path id="Path_30068" data-name="Path 30068" class="cls-1" d="M201,185a3.11,3.11,0,0,1-2.5.72,3.21,3.21,0,0,1-3.1-2.67,1.6,1.6,0,0,1,1.43-1.75,1.57,1.57,0,0,1,1,.27c1,.61.58.87,1.91.7A1.56,1.56,0,0,1,201,185Z"/></g><g id="Group_5939" data-name="Group 5939"><path id="Path_30069" data-name="Path 30069" class="cls-1" d="M208.05,171.8c6.6-.26,22.79,4,28.27,6.32.29.12.68.29.56.68-.29.92-2.57-.45-19.27-3.37-7.55-1.32-10.72-2-15.34.29a.77.77,0,0,1-.89,0,.82.82,0,0,1-.14-.93C201.6,173.74,203.44,172,208.05,171.8Z"/></g><g id="Group_5940" data-name="Group 5940"><path id="Path_30070" data-name="Path 30070" class="cls-1" d="M151.11,143.55c2.14,1.56,6.13,4.46,9.79,0,1-1.25,1.16-2.68,1.46-4.25a.78.78,0,0,1,.9-.65.79.79,0,0,1,.6.49c1.39,3.93-2.76,9.75-8.5,9.14-5.06-.53-6.63-4.81-5.81-5.35.36-.24.73,0,1.56.63l-.17.24h0Z"/></g><g id="Group_5941" data-name="Group 5941"><path id="Path_30071" data-name="Path 30071" class="cls-1" d="M237.27,171.84a2.72,2.72,0,0,0,1.2-1.91c0-.08,0-.15,0-.23l6.13.73c2.16-1.16,1.65-1.86,2.36-2.66,1.13-1.3,3.22.71,1,3.41-2.06,2.42-6.62,2.32-6.18,6.59a1.39,1.39,0,0,1-1.28,1.5,1.44,1.44,0,0,1-.92-.26,1.3,1.3,0,0,1-.5-1.37,7,7,0,0,1,2.33-5.32Z"/><path id="Path_30072" data-name="Path 30072" class="cls-1" d="M169.13,155.5c.9.57,2.07,2.19,3.1,2.31-1.19-1.59-2.74-3.88-2.39-6,.08-.52.87-1.14,1.31.25,1.12,3.48,4.84,5.85,8.2,7.26,6,2.51,18.27,2.75,17.85-3.73-.06-1-.52-1-1.22-1.65-.5-.43-1-1.4-1.41-1.71-.73-.54-1.93-1.57-2-1.68a1.35,1.35,0,0,1,.48-2.26c.67-.22,1.06.25,1.54.69a23,23,0,0,1,2,2c1.06.3,3.25,1.64,6.05.46a4.28,4.28,0,0,1,1.75-5.79l.54-.24a2.31,2.31,0,0,0,1.54-1.44c.83-1.78-1.53-3.55-2.5-5.13-3.37-5.52,3.4-11.3,2.81-16.19-.24-2-1.95-2.79-1-3.79,1.22-1.33,4.28,1.6,3.64,5.59-.45,2.83-2,5.21-3.09,7.71-2.94,6.75,3.59,6.32,2.81,11.63-.45,3.09-3.9,3.73-4.13,5.37s1.69,1.6,1.27,2.95c-.36,1.15-2.52,2.09-4.47,2.49,1.29.66.43,2.8-2.2,3-1.82,5-8.69,5.92-14,5.56,2.62.35,5.82.76,9.36,1.21a3,3,0,0,0,1.66,2.28c.48.26,1,.49,1.45.7l-5.94-.66c3.26,1.73,4.33,3,5.81,3.9a.53.53,0,0,1,.18.72c-.66,1.22-5.43-2.92-6.24-3.34-6.37-3.35-14.1-3.16-19.89-7.25a19.06,19.06,0,0,0-10.86-3.67c-1.35.05-3,0-3-1.42C158.06,153.68,164.26,152.46,169.13,155.5Z"/></g><g id="Group_5942" data-name="Group 5942"><path id="Path_30073" data-name="Path 30073" class="cls-1" d="M234.44,195.12c-3.12-.41-4.66.65-9.13,1.1-5.82.59-12.77,2.65-23.71-.68-1.54-.25-2.86-1.86-8.17-.71-4,.87-11.79,1.38-16.58-.93-6.82-3.31-12.27-1.85-13.36-2.1-1.66-.4-2.19-3,3.13-3.94,3.34-.62,6.44.53,9.43,1.65,4.4,1.64,7.36,2.53,16.92,1.73a23.22,23.22,0,0,1,6.12-.05,73.68,73.68,0,0,0,18.27,2.38c5.21-.13,7.8-.84,13.72-.79,2,0,3.84-.91,6-.59a28.7,28.7,0,0,1,5.22,1.62c4.66,1.63,9.49,2,11.25,1.63a3.47,3.47,0,0,1,2.25,0c1.12.7.79,1.92-.33,2.57s-2.64.44-3.84.33C244.39,197.68,244.3,196.4,234.44,195.12Z"/></g><g id="Group_5943" data-name="Group 5943"><path id="Path_30074" data-name="Path 30074" class="cls-1" d="M254,201.13c-.26,0-.37.06-.68.09l-.31-.44.49-.22H254Z"/></g><g id="Group_5944" data-name="Group 5944"><path id="Path_30075" data-name="Path 30075" class="cls-1" d="M212.93,123.26a1.36,1.36,0,0,1-.53-2.57c.62-.36,4.07-.81,5.4-4.62a6,6,0,0,0-.07-3.67,8.89,8.89,0,0,0-2.13-3.32.86.86,0,0,1-.22-1.21.87.87,0,0,1,1-.32l1.16.49c-1.16-2.37-3.51-3.34-7.48-3.12a.82.82,0,0,1-.81-.54c-.19-.53.17-.78.49-1a3.1,3.1,0,0,1,1.43-.73c7.37-1.1,10.41,6.81,8.9,8.37a1,1,0,0,1-.41.24C222.66,118.18,216.07,123.59,212.93,123.26Z"/></g><g id="Group_5945" data-name="Group 5945"><path id="Path_30076" data-name="Path 30076" class="cls-1" d="M179.93,89.34a.49.49,0,0,1,0,.7.5.5,0,0,1-.66.06c-10.09-8.51-19.08-1.27-16.07,4.58.5,1-.86,1.74-1.55,1a4.13,4.13,0,0,0-7,4,1.18,1.18,0,0,1-.68,1.52,1.21,1.21,0,0,1-1.12-.15c-1.51-1.19-4.69-.12-4.48,3.16s3.6,5.16,6.26,6.8a.94.94,0,0,1-.57,1.71,11.39,11.39,0,0,1-5.7-3.07c-5-4.86-1.55-12.42,3.88-11.39a6.15,6.15,0,0,1,6.43-5.87,6.05,6.05,0,0,1,2.21.52C160.5,86.12,169.66,80.16,179.93,89.34Z"/></g><g id="Group_5946" data-name="Group 5946"><path id="Path_30077" data-name="Path 30077" class="cls-1" d="M151.08,116.94a.75.75,0,0,1,.95.45.74.74,0,0,1-.38.92,5.72,5.72,0,0,0-2.82,6.32c1,3.32,4.17,3.85,5.67,4.25a1,1,0,0,1,.62,1.27,1,1,0,0,1-.55.59c-2,.84-4.84-.1-6.7-2.24a7.14,7.14,0,0,1,3.21-11.56Z"/></g><path id="Path_30078" data-name="Path 30078" class="cls-1" d="M96.56,47.61a14,14,0,0,1-.14-11,1.34,1.34,0,0,1,2.59.6,10.29,10.29,0,0,0,3.63,7.17,20.72,20.72,0,0,0,8.49,4.2,14,14,0,0,0,5.09.75,17.1,17.1,0,0,0,4.67-1.55c2.1-.89,4.17-1.83,6.28-2.7a9.73,9.73,0,0,1-2.41-.19c-3.22-.68-6.14-2.73-8.79-4.61s-5.2-4.3-6-7.63c-.29-1.18,1.56-1.49,1.85-.32.66,2.75,2.87,4.72,5.08,6.31,1.28.91,2.61,1.77,4,2.57a13.2,13.2,0,0,0,4.55,1.89c3.38.56,6.63-1.09,9.88-1.74a25.3,25.3,0,0,1,9.58,0,26,26,0,0,1,10.06,4.19.85.85,0,0,1,.39.82,27.17,27.17,0,0,1,9.53,8.42,17.72,17.72,0,0,1,3,9.95,13.25,13.25,0,0,1-1,5,6.2,6.2,0,0,1-2.15,2.85,10.55,10.55,0,0,1,1,3.19,12.89,12.89,0,0,1,14.91,5.07c2.12-1.68,10.22-3.79,16.79,2.56,2,1.89,4.11,5.18,3.38,7.59a11.84,11.84,0,0,1,9.31,11.15.59.59,0,0,1-.57.6h0a.57.57,0,0,1-.52-.49c-1.22-9.07-12.76-12.31-12.81-6.31a.73.73,0,0,1-.78.69.72.72,0,0,1-.54-.29c-1.54-2.1.24-5.77,4.82-5.49-.92-1.65-4.7-11.79-15.73-8.7-.83.23-1.61.58-2.48.79a.68.68,0,0,1-.33.75c-.82.34-2-2-2.64-2.76-4.24-4.94-12.78-5.59-17.55,1.73-3.16-2.23-6.46-2.12-8.65-.66-1.56,1-3.08,2.71-2.39,4.46.37.91,1.61.81,1.72,1.78a.75.75,0,0,1-.29.88,1.61,1.61,0,0,1-2,.18,22.72,22.72,0,0,0-8.65,2.36,1.41,1.41,0,0,1-.71,2.39c-3.52.82-8.41,3.89-7.22,4.46.82.38,2-.37,2.79-.84,1.51-.85,2.91,1.19,2,2.44-5.74,8.06-9.83,15.3-3.26,23.44a1.23,1.23,0,0,1-.23,1.73,1.25,1.25,0,0,1-1,.24,5.2,5.2,0,0,0-3.29,2A5.11,5.11,0,0,0,129,132c1.1,4.61,5.41,5.68,6.84,6.7a1.22,1.22,0,0,1,1.27,1.16,1.21,1.21,0,0,1-1,1.25c-1.9.37-3.18,3-1.06,4a2.66,2.66,0,0,0,2,0c.92-.21,2.07.83,1.15,2.26,2.76,4,7.28,2.43,6.36-.15a.78.78,0,0,1,1.17-.91c1.15.79,1.57,2.3,2.38,3.2a6.77,6.77,0,0,0,7.07,2.1c1.14-.75,1.37-1.23,1.89-1.08.43-.16.86.17.61.77,0,.9-2,4-6.89,3.49a7.76,7.76,0,0,1-4.41-2c-3.16,2.41-10.39-.58-10.29-4.93-3.72-.12-6.55-4.34-3.88-7.52-8.11-4.15-7.6-13.46-1.73-16.43a9,9,0,0,1-2.31-3.78c-2.56-7.1.81-13.56,4.16-18.47-3.18-.67-5.84-5,2.49-8.88.3-1.94,7.71-5.08,12.75-5.25-1.86-3.14.58-6.81,4.43-8.22a1.94,1.94,0,0,1-.39-.46,6.4,6.4,0,0,1-.82-3.58.94.94,0,0,1-.48-1.06,3,3,0,0,0-1.6-3,8.3,8.3,0,0,0-4.58-.76,32.81,32.81,0,0,0-10,2c-3.05,1.13-5.88,2.76-8.94,3.83a16,16,0,0,1-9.83.58,10.27,10.27,0,0,1-7-6.77,1.13,1.13,0,0,1,.52-1.15,1.17,1.17,0,0,1,1.27,0,8.47,8.47,0,0,0,6.34.59c-.36,0-.72-.08-1.08-.12a56.38,56.38,0,0,1-8.24-1.63,15.52,15.52,0,0,1-10.25-10,22.84,22.84,0,0,1-1-9.25A1,1,0,0,1,96.56,47.61Zm64.31,31.23a4.74,4.74,0,0,1-1.57.75v0a6.65,6.65,0,0,1,.66.32A10.61,10.61,0,0,1,160.87,78.84ZM156,78.76l-.89-.52-.4.06a1,1,0,0,1-.51,0,1.39,1.39,0,0,1-.13.56,10.38,10.38,0,0,1,1.93-.06ZM153.67,77l0,0a1,1,0,0,1,.07-.39l-.21,0a3,3,0,0,0,.12.4ZM99.6,47.67c1.64,2.7,4.57,4.57,7.34,6a31.91,31.91,0,0,0,18.49,3,31,31,0,0,0,10.13-3.2c1.53-.81,2.65,1.64,1.12,2.43a34.09,34.09,0,0,1-20.46,3.39,33.72,33.72,0,0,1-10-3.06,22.27,22.27,0,0,1-8.11-6.08,16.92,16.92,0,0,0,3.81,11.74,12.32,12.32,0,0,0,5.52,3.58A46.67,46.67,0,0,0,114.78,67a18.9,18.9,0,0,0,8.43-.26c1.28-.39,1.77,1.6.67,2.16-3.74,1.91-8,3.77-12.09,3a8.84,8.84,0,0,0,5,3c3.25.7,6.48-.2,9.47-1.47a91,91,0,0,1,9.26-3.82,31.15,31.15,0,0,1,10.32-1.42,7.84,7.84,0,0,1,5.11,1.9,5.13,5.13,0,0,1,1.68,3.85c1.18.35,2.67-.4,3.77-.77a39.63,39.63,0,0,0,4.09-1.57,9.88,9.88,0,0,1,1.74-.82,1.33,1.33,0,0,1,.67-.33c1.07-.19,1.55-1.81,1.83-2.67a11.17,11.17,0,0,0,.5-4,15.18,15.18,0,0,0-2.79-7.84,23.81,23.81,0,0,0-6.64-6.13,39.25,39.25,0,0,0-8.51-4.16,20.35,20.35,0,0,0-9.51-1,38.44,38.44,0,0,0-8.85,2.6c-3,1.2-5.84,2.58-8.8,3.75a12.22,12.22,0,0,1-5.27,1,24.31,24.31,0,0,1-5-1,22.06,22.06,0,0,1-9.47-5.08A14.06,14.06,0,0,1,98.08,43,10.64,10.64,0,0,0,99.6,47.67Z"/></g><path id="Path_30079" data-name="Path 30079" class="cls-2" d="M253.13,174.88a1.42,1.42,0,0,0,.92,1.46,4.1,4.1,0,0,0,1.84.18l3.55-.21-2.11-.39"/><g id="Group_5948" data-name="Group 5948"><path id="Path_30080" data-name="Path 30080" class="cls-3" d="M181.06,166.56a8.75,8.75,0,0,1,5.31-.18,25,25,0,0,1,14.92,8.87c.44.55.83,1.12,1.21,1.7l.05.08a10.5,10.5,0,0,1,4.82-1.94,3.68,3.68,0,0,1,.74,0,4,4,0,0,1,2.77-1,134.51,134.51,0,0,1,17.69,1.77c3.15.53,6.27,1.18,9.38,1.92,1.4.33,2.8.68,4.18,1.06a8.07,8.07,0,0,1,2,.81,10,10,0,0,1,3.35-3,25.75,25.75,0,0,1,3.22-1.55,14.77,14.77,0,0,1,4.31-1.23,9.94,9.94,0,0,1,3.48.28,14.26,14.26,0,0,1,2,.72l.45.17h0l.18-.12a3.42,3.42,0,0,1,4.59.16,3.52,3.52,0,0,1,.46,4.57,5,5,0,0,1-2.5,2,23.64,23.64,0,0,0-2,1.82l0,0-.34.39c-.27.3-.52.62-.77.94s-.38.51-.56.78a3.19,3.19,0,0,1,1.08,2.83,3.54,3.54,0,0,1-3.8,3.14,15.24,15.24,0,0,0-1.65-.11l-.26,0-.71.07c-1.12.14-2.21.38-3.31.62a34.57,34.57,0,0,1-6.32,1,14.66,14.66,0,0,1-6.08-.93,10.24,10.24,0,0,1-3.81-2.65,21.59,21.59,0,0,1-6.66-.34,3.76,3.76,0,0,1-2.36-1.25,1.71,1.71,0,0,1-.11-.14A123.67,123.67,0,0,1,206.35,185c-.14.28-.3.55-.46.82a5.82,5.82,0,0,1-7.51,2.29c-.73-.35-1.44-.72-2.2-1a19,19,0,0,0-2.09-.7l-.39-.11c-.44-.07-.88-.17-1.33-.22a13.61,13.61,0,0,1-5.15-1.46,7.57,7.57,0,0,1-2.92-3.52c-.44-1-.68-2.09-1.09-3.1-.08-.18-.16-.36-.25-.53l.09.08a.61.61,0,0,1-.12-.16v0s0,0,0-.08c-.1-.2-.2-.24-.17-.15l-.09-.11a.59.59,0,0,1,0,.08c-.28-.21-.58-.4-.87-.6a7,7,0,0,1-3.27-4.34A5,5,0,0,1,181.06,166.56Z"/><path id="Path_30081" data-name="Path 30081" class="cls-3" d="M182.71,177.14h0a.86.86,0,0,1,.14.13h0l0,.08h0v0l0,.07-.09-.1a.6.6,0,0,1-.2-.25l.05,0Z"/></g><path id="Path_30082" data-name="Path 30082" class="cls-1" d="M243.53,178.16a11.75,11.75,0,0,1,10.47-5,7.65,7.65,0,0,0,3.19-.35c1.16-.43,2.29-.93,3.43-1.4a12.16,12.16,0,0,1,3.26-1.2c1.3-.12,2.15.87,2.8,1.87a11.54,11.54,0,0,1,1.89,7.09c-.1,1.72-2.77,1.47-2.67-.26a8.66,8.66,0,0,0-.38-3.16,9,9,0,0,0-.7-1.59c-.12-.22-.25-.43-.39-.64,0-.06-.36-.41-.48-.58l0,0a4.83,4.83,0,0,1-1,.4l-1.93.78-.1,0a1.45,1.45,0,0,1-1.09,1.08L252,177.42a24.06,24.06,0,0,0-6.54,2.56,1.36,1.36,0,0,1-1.76-.07A1.34,1.34,0,0,1,243.53,178.16Z"/><g id="Group_5964" data-name="Group 5964"><g id="Group_5949" data-name="Group 5949"><path id="Path_30083" data-name="Path 30083" class="cls-1" d="M92.3,238.86c9.75,6.92,18.13,7.47,23.41,9.46a.81.81,0,0,1,.46,1.06.8.8,0,0,1-.63.5c-15.35,2.38-46.38-18.53-45.82-45.89a.75.75,0,0,1,1.48-.09c.17.76.28,1.55.4,2.32C72.88,213.79,78.67,229.18,92.3,238.86Z"/></g><g id="Group_5950" data-name="Group 5950"><path id="Path_30084" data-name="Path 30084" class="cls-1" d="M28.75,309.31a.65.65,0,0,1,.22,1.27A2.57,2.57,0,0,0,27,313a.66.66,0,0,1-.68.62C24.85,313.65,25.82,309.49,28.75,309.31Z"/></g><g id="Group_5951" data-name="Group 5951"><path id="Path_30085" data-name="Path 30085" class="cls-1" d="M29.83,312.66c.41-.63,1.28-.75,1.78-1.36,4.42-5.38,8.07-5.43,17.36-12.37,5.68-4.24,13-5.41,21.44-5.77,4-.17,7.92-.34,11.85-.87,1.54-.21,3.06-.62,4.6-.81,2.07-.25,4.09.12,6.2-.38A29.47,29.47,0,0,0,98.88,289a15.62,15.62,0,0,0,3.92-2.62c.52-.53,1.57-1.54,2.38-1.45,1.49.17-.35,2.37-.78,2.91a11.3,11.3,0,0,1-6,3.89c-1,.27-2,.76-3,1a37.45,37.45,0,0,1-4.7.67c-2.92.26-5.79.87-8.7,1.34a101.36,101.36,0,0,1-11.67.91c-24.14,1.16-17.61,6.47-30,11.51-3.7,1.51-6.5,4.83-9.41,7.53-1.41,1.3-2.43.19-1.93-.77A14.7,14.7,0,0,1,29.83,312.66ZM106,285.3a1.42,1.42,0,0,1,.12.4.25.25,0,0,0,0-.34A.24.24,0,0,0,106,285.3Z"/></g><g id="Group_5952" data-name="Group 5952"><path id="Path_30086" data-name="Path 30086" class="cls-1" d="M22.49,305.26a10,10,0,0,1,.77-5c2.21-5.06,8.58-6.11,10.69-9.86,1.21-2.16.58-4.95.33-7.47-.77-7.79,3.78-11.63,12.23-7.63a1,1,0,0,1-.77,1.79c-4.87-1.8-8.47-2.3-9.24,2.83C35.89,284,38,288.11,35.56,292c-3.33,5.33-11.8,4.34-10.55,14.73.09.73.81,1.33.79,2.21,0,1.36-1.24.84-1.54,1.1s-.52,2.76.36,4.21c.34.55.94.7,1.37,1.33a1,1,0,0,1-.06,1.45,1,1,0,0,1-.91.25c-.73-.2-.95-.82-1.53-1.76a8.7,8.7,0,0,1-.92-1.73.76.76,0,0,1-.64.86.73.73,0,0,1-.54-.13c-1.48-1.06-1.92-3.42-1.59-5.2A6.81,6.81,0,0,1,22.49,305.26Zm0,8.17a6.43,6.43,0,0,1,.09-3.08c.2-.79.49-.86.85-2.17a5.79,5.79,0,0,1-.34-.71,4.33,4.33,0,0,0-1.34,4.17A10.38,10.38,0,0,0,22.45,313.43Z"/></g><g id="Group_5953" data-name="Group 5953"><path id="Path_30087" data-name="Path 30087" class="cls-1" d="M39.84,283.15c2.2,4.69,1.56,8.09.58,8-.49,0-.44-.57-.47-1.1a12.22,12.22,0,0,1-.48,1.87.76.76,0,0,1-.82.54c-.69-.08-.78-.59-1.15-2.15a.54.54,0,0,1-.37-.19c-.27-.35,0-.79.27-1.17a.8.8,0,0,1,1.08-.34l.07,0a13.68,13.68,0,0,0-.15-4c-.11-.6.45-.8.75-.48-.08-.2-.15-.4-.24-.61a.51.51,0,0,1,.26-.67A.5.5,0,0,1,39.84,283.15Z"/></g><g id="Group_5954" data-name="Group 5954"><path id="Path_30088" data-name="Path 30088" class="cls-1" d="M81.91,203.37c5.56,5.9,8.76,9.38,19.71,13.88,4.24,1.75,8.67,3.19,13,4.87,6.8,2.66,13,5.81,13,6.48l0,.24c-.3.21-.39.29-.74.11-8.37-4.42-18.07-6.09-26.88-9.59-7-2.8-16.58-8.06-19.57-15.07a.88.88,0,0,1,1.46-.92Z"/></g><g id="Group_5955" data-name="Group 5955"><path id="Path_30089" data-name="Path 30089" class="cls-1" d="M8.15,181.85a.67.67,0,0,1-1,.85,3.07,3.07,0,0,0-3.94-.45A9,9,0,0,0,1,184a.53.53,0,0,1-.76.1.52.52,0,0,1-.21-.45C.1,179.38,5,177.79,8.15,181.85Z"/></g><g id="Group_5956" data-name="Group 5956"><path id="Path_30090" data-name="Path 30090" class="cls-1" d="M4.53,178.39a1.83,1.83,0,0,0-1.93.92.85.85,0,1,1-1.51-.78s0,0,0,0c1.29-2.3,4.55-2.18,4.26-.77A.8.8,0,0,1,4.53,178.39Z"/></g><g id="Group_5957" data-name="Group 5957"><path id="Path_30091" data-name="Path 30091" class="cls-1" d="M38.32,174.85c2.31,1.54,3,4.37,3.12,7.18a5.11,5.11,0,0,0-.86.2c-1.2-7.84-4.86-7.49-12-4.18-3.81,1.75-4.84,2.21-10.09,1.16-2.9-.58-5.9-1.18-9,1-.83.61-1.52-.85-.7-1.43,3.25-2.3,6.55-2.16,10.16-1.49s5.68.65,10.51-1.72C31.37,174.67,35.12,172.73,38.32,174.85Z"/></g><g id="Group_5958" data-name="Group 5958"><path id="Path_30092" data-name="Path 30092" class="cls-1" d="M29.27,179.72a.61.61,0,0,1,.54,1.08c-3,2-7.62,2-7.46.51a.68.68,0,0,1,.54-.6,5.55,5.55,0,0,1,1.77-.11l0,.29h0l0-.29C25,180.55,25.25,181,29.27,179.72Z"/></g><g id="Group_5959" data-name="Group 5959"><path id="Path_30093" data-name="Path 30093" class="cls-1" d="M35,187.57a.7.7,0,0,1,.23-.59c1-1,2.63.13,2.93,1.69s-.8,2.63-1.58,2.42c-.62-.17-.66-.78-.38-1.37C36.93,188.22,35.14,188.56,35,187.57Z"/></g><g id="Group_5960" data-name="Group 5960"><path id="Path_30094" data-name="Path 30094" class="cls-1" d="M56.62,208.88c-4.86-12.76-13.09-14-16.42-17.3-2.67-2.63-2.13-5.28-1.38-6.43s1.45-.63,1.31.19c-.94,5.56,5.34,6.59,10,10.83C55.39,201,58,208,57.35,209.33,57,209.32,56.8,209.37,56.62,208.88Z"/></g><g id="Group_5961" data-name="Group 5961"><path id="Path_30095" data-name="Path 30095" class="cls-1" d="M56.74,209.36c1.6,3.56,1.6,3.55,1.83,4.15-.77-3.56-1.46-4.06-.81-4.38a.46.46,0,0,1,.6.16,15.22,15.22,0,0,1,2,4.4,12.3,12.3,0,0,0-2-4.52c-.25-.34-.11-.49.07-.77l.24,0c.46,0,1.76,1.57,2.5,3.43,1.75,4.42.09,4.93-.29,4.17.7,4.92-1,5-1.43,4-.36,1.93-1.15,2.14-1.57,1.78-.63,1.4-1.28,1.16-2,1.08C58.73,217.25,57.63,213.86,56.74,209.36Z"/></g><g id="Group_5962" data-name="Group 5962"><path id="Path_30096" data-name="Path 30096" class="cls-1" d="M.39,185.46h0c7.58-3.29,15.39,3.47,21.25,5.65,11.18,4.17,7.07,24.1,18.54,35.86a63.5,63.5,0,0,0,34.19,11.67c-7.57-15.83-9.31-32.36-9.07-35.78-3.87.56-4.42,1.28-6.21,1.58-.67.12-3.47-1.74,6-3.18a27.73,27.73,0,0,1,7-.12c.7-9.59,9.22-16.86,18-15.11.27.06.53.11.77.14a.71.71,0,0,1,.59.82.72.72,0,0,1-.63.6,8.72,8.72,0,0,0-2.36.55,19.09,19.09,0,0,0-6,2.83,14.21,14.21,0,0,0-6.11,11c-.1,1.21-.17,2.09-.8,2.55a2.39,2.39,0,0,1-3.44-1.77,26.4,26.4,0,0,0-5.69,0c.47,1.93.6,4.81,1.69,10.5,4.88,25.56,20.06,49.72,44.7,57-.6,1-.77,1.25-1.39,2.29a60.41,60.41,0,0,1-28.71-20.31c-2,8.31,1.22,13.76-1.9,12.69-1.91-.64-2-9.32.08-15.11a70.68,70.68,0,0,1-5.1-8.25l-.77,0,.12.33c-17.25-.33-37.6-9.1-41.67-18.42-9.57-21.93-3.29-24.21-14.63-30.08S7.08,187.23.6,186.69a.63.63,0,0,1-.56-.55A.61.61,0,0,1,.39,185.46Z"/></g><g id="Group_5963" data-name="Group 5963"><path id="Path_30097" data-name="Path 30097" class="cls-1" d="M59.46,270.57c11.54-6.85,22.26-5.79,23.13-3.92h0s.16.35.16.34a.5.5,0,0,0,0,.13l-.13.14v-.09a1.17,1.17,0,0,1,0,.2,5.58,5.58,0,0,0-.37.48,1.14,1.14,0,0,1-.83.26c-3.08-.42-3.68-1.2-8.52-.49-8.06,1.2-14.65,6.37-20.68,11.33-.65.53-1.38.89-2,1.37a.88.88,0,0,1-1.23-.12.78.78,0,0,1-.16-.28C48.5,278.9,53.89,273.88,59.46,270.57Z"/></g><path id="Path_30098" data-name="Path 30098" class="cls-1" d="M89.42,188.25A26.62,26.62,0,0,0,94.06,200c5.39-3.8,10.23-3.52,10.82-3.17a.46.46,0,0,1,.24.46c-.06.39-.43.41-1.47.67-3.33.83-5.56,1.39-8.42,3.56,9.75,11.89,29,14.49,40.12,26.31a28.89,28.89,0,0,1,1.2,3.5l1.92-.56a62.46,62.46,0,0,0,10.5-4.35A66.52,66.52,0,0,0,167,212.48a73.92,73.92,0,0,0,8-10.24.44.44,0,0,1,.77.43,54.18,54.18,0,0,1-14.27,18.73,64.81,64.81,0,0,1-20.76,11.93,62.91,62.91,0,0,1-6.3,1.82c-1.13.26-2.28.51-3.42.67a7.35,7.35,0,0,1-3.55,0,1.17,1.17,0,0,1-.79-1.46,1.2,1.2,0,0,1,.49-.66,7.73,7.73,0,0,1,2.81-.91c.93-.21,1.88-.35,2.82-.54q1.71-.36,3.39-.81c-12.47-14.66-30.9-14-43-28.14-1,1-2,2.55-2.87,1.92a.82.82,0,0,1-.32-.77A5.16,5.16,0,0,1,92,201.7a24.91,24.91,0,0,1-4.09-8.41,13.48,13.48,0,0,1-.26-5.1C87.72,187.1,89.28,187.24,89.42,188.25Z"/><path id="Path_30099" data-name="Path 30099" class="cls-1" d="M105.65,282a120.21,120.21,0,0,0,10.53-17.4c1.51-3,2.87-6.13,4.22-9.24.67-1.55,1.29-3.12,1.91-4.69s1.37-3.08,2-4.65c.67-1.81,1.17-3.72,1.69-5.58s.87-3.65,1.52-5.4a.07.07,0,0,1,.14,0,29.81,29.81,0,0,1-.8,4.9q-.54,2.55-1.2,5c-.44,1.67-.79,3.36-1.19,5a50.78,50.78,0,0,1-1.54,5,103.11,103.11,0,0,1-8.9,18.78q-3,5.06-6.41,9.8C106.63,284.91,104.71,283.32,105.65,282Z"/></g><g id="Group_5979" data-name="Group 5979"><g id="Group_5965" data-name="Group 5965"><path id="Path_30100" data-name="Path 30100" class="cls-1" d="M141.79,158.74a1.1,1.1,0,0,1,.61,1.43v0a1,1,0,0,1-1.28.62l-.06,0c-11-4.39-16.46-14.82-21.7-24.9-3.45-6.65-6.31-12.19-11.45-17.52-9.19-9.5-20.57-14.4-44.39-41.6C62.68,84.1,66,92.41,70.39,98.55c9.67,7.07,16.22,12.48,25.3,20a.78.78,0,0,1,.15,1.09.79.79,0,0,1-1,.2c-10.78-5.47-19.42-12.38-25-20C59,92.1,50.32,86.86,48,85.3c-2-1.32-3.33-2.18-4.39-1.5-3.12,2,3.48,8.9,6.15,11.47,5.38,5.21,7.86,5.11,7.07,6.73a1.21,1.21,0,0,1-1.16.7l0,.08c-4.18-1.9-3.86-2.41-7.11-4.11a11.87,11.87,0,0,0,2.34,5.14c1.07,1.64,3.17,5.29,11,10.53A73.25,73.25,0,0,0,92.35,126a57.18,57.18,0,0,0,7.13.9.9.9,0,0,1-.11,1.79c-2.28-.07-4.63,0-6.93-.2a73.45,73.45,0,0,1-21.22-5.78c-1.29,1.44-21.56-8.68-29.67-15.44-1-.83-2.36-2-3.36-1.55-2.33,1,.53,5.22,1.61,6.94a39.2,39.2,0,0,0,14.69,13.2c4.06.85,16.42,3.57,20.14,5.37a1.18,1.18,0,0,1,.05,2.36h-.07A45,45,0,0,1,54.51,128c-9.11-1.87-11.82-2.28-13.3-1.3-.54.35-1.17-.42-.62-.82,2.68-2,4.4-1.8,9.14-1a50.44,50.44,0,0,1-11-11.1c-1.55-2.1-3.79-4.92-3-7.6a3.11,3.11,0,0,1,2.6-2.32c1.45-.14,2.66.76,3.72,1.56a134.65,134.65,0,0,0,18.47,11.4,41.72,41.72,0,0,1-9-7.52,16.36,16.36,0,0,1-3.46-5.51,21.7,21.7,0,0,1-1-6.35.6.6,0,0,1,.24-.49,24.3,24.3,0,0,1-4.06-5.59c-1.2-2-2.85-4.78-1.77-7.24a3.34,3.34,0,0,1,2.37-2,5.08,5.08,0,0,1,3.62,1c6.58,4,13.34,8.48,20.12,13.33a38.72,38.72,0,0,1-5.73-22.08,1,1,0,0,1,1.7-.57C72,82.23,79.47,90.76,89.73,99.6c2.91,2.51,6,4.9,9,7.31,18.82,15.28,17.63,19.93,26.88,35.88C130.37,151.09,135.68,156.31,141.79,158.74Zm-68-56a64.53,64.53,0,0,0,14.79,11.63C84.14,110.63,79.26,106.8,73.82,102.78Z"/></g><g id="Group_5966" data-name="Group 5966"><path id="Path_30101" data-name="Path 30101" class="cls-1" d="M40.33,128c.05,0,.05.09,0,.08A0,0,0,0,1,40.33,128Z"/></g><g id="Group_5967" data-name="Group 5967"><path id="Path_30102" data-name="Path 30102" class="cls-1" d="M40.3,128.33A.33.33,0,0,1,40,128h0l0-.14.2-.17.13,0a.32.32,0,0,1,.29.36h0l0,.13-.2.17Zm.06-.58a.26.26,0,0,0-.28.23.23.23,0,0,0,.22.27.25.25,0,0,0,.28-.22A.26.26,0,0,0,40.36,127.75Z"/></g><g id="Group_5968" data-name="Group 5968"><path id="Path_30103" data-name="Path 30103" class="cls-1" d="M41.13,128.41A7.66,7.66,0,0,0,44,131a.4.4,0,0,1,.13.54.37.37,0,0,1-.37.18,6.17,6.17,0,0,1-3.24-2.94.37.37,0,0,1,.17-.51A.36.36,0,0,1,41.13,128.41Z"/></g><g id="Group_5969" data-name="Group 5969"><path id="Path_30104" data-name="Path 30104" class="cls-1" d="M61.4,165.56c-4.83-2.09-4.87-6.13-1-9.46-6.75-.89-19.2-5.1-15.52-10.64,1.35-2,4.47-2.41,7.3-2.64a54.25,54.25,0,0,1-9.25-4.76.44.44,0,1,1,.46-.76h0a44.3,44.3,0,0,0,12.18,5.35,51.89,51.89,0,0,1,15,1.75.94.94,0,0,1-.24,1.85,46.63,46.63,0,0,1-13.49-1.84c-2.05,0-7.4.24-9.33,1.25a1.94,1.94,0,0,0-.58,3.23c1.92,2.18,9.05,4.92,16.74,5.06a14.66,14.66,0,0,1,10.67-1.21,1.27,1.27,0,0,1,.88,1.57,1.28,1.28,0,0,1-.87.88,35.81,35.81,0,0,1-11,1.18c-2.4,1.27-5.29,4.17-3.53,6.19a4.2,4.2,0,0,0,2.57,1.13,29.46,29.46,0,0,0,8,.61,14.1,14.1,0,0,1,10.86-2.17c1.31.27,1.1,2,0,2.38A30.64,30.64,0,0,1,71,166.73c-6.41,5.26-.24,7.47,8.93,4.89a4.61,4.61,0,0,1,1.65-1.07,13.11,13.11,0,0,1,5.8-2.41,1.15,1.15,0,0,1,1.29.69,1.12,1.12,0,0,1-.45,1.37,25.62,25.62,0,0,1-5.84,2.89c-4.22,5.37,4.71,13.13,13.22,4,.4-.5.82-1,1.19-1.4a1.16,1.16,0,0,1,1.64-.2l.07.06a1.44,1.44,0,0,1,.22,2c-.25.32-.51.63-.77.93-.95,1.18-2,2.75-1.82,4.35a3.77,3.77,0,0,0,2.73,2.88c3.65,1.22,7-1.52,9.85-4.36,1-1,2.9.33,2,1.57-1.15,1.6-2.52,3.45-2.32,5.49.41,4.17,7.32,3,11.66,0,.84-2.52,3.46-3.57,4.16-2.23.41.79-.25,1.24-1.05,2.13-.33.35-.66.73-1,1.08-.2,1.74,1.67,3.77,4.69,3.39a.6.6,0,0,1-.31-.8l.06-.11a44.91,44.91,0,0,0,6.43-11.49,3.18,3.18,0,0,1-1-1.84,10.09,10.09,0,0,1-9.1.17c-.84,1.27-5.8,7.72-9.88,10.14a.66.66,0,0,1-.84-1c1.69-1.91,3.68-3.58,5.42-5.42q2.07-2.21,3.92-4.6a4.28,4.28,0,0,1-1.8-3.3,17.18,17.18,0,0,1-2.59.88c-7.07,1.89-9.41-1.36-8.9-4.5,0-.15.06-.31.1-.46-5.56,1.54-9.94-2.82-8.13-8.07-6,.71-11.09-3.83-8.77-8.49-8.94-.65-12.37-7.45-9.69-11.21-3.2-1.2-5.05-3.58-5.1-6.57,0-3.47,2.74-7.55,9.48-5a.67.67,0,0,1,.44.75c-.12.65-.75.57-1,.57a9.46,9.46,0,0,0-4.49.69c-2.55,1.38-2.28,6.71,3.81,7.75a3.9,3.9,0,0,1,1.76.2,1.24,1.24,0,0,1-.48,2.39,13.08,13.08,0,0,1-1.53-.09c-1.6.56-2.29,3.11.54,5.59a11.32,11.32,0,0,0,4.12,2.23c2.51.77,3.34.34,4.4.55a4.89,4.89,0,0,1,.73-.26c1.31-.33,2,1.8.69,2.22-1.72.55-2.16,3.68.7,5.19,1.41.74,4.3,1.35,6.09.59a14.37,14.37,0,0,1,1.64-1.67,1.1,1.1,0,0,1,1.4,0,1,1,0,0,1,.35,1.23,5.36,5.36,0,0,1-1.82,2.18c-.57.89-2.09,3.72,0,5.89s5.69.52,8.27-1.29a1.28,1.28,0,0,1,1.78.29,1.11,1.11,0,0,1-.18,1.57l0,0-.18.14c-1.11.9-2.37,1.92-2.58,3.3a1.9,1.9,0,0,0,.35,1.55c1.16,1.46,4.7.76,6.5.25,1.35-.39,2.69-.93,4-1.41.83-.31,1.64.1,1.15.8a6.1,6.1,0,0,1-.74.86c-.18,2.12,1.32,2.73,2.71,3.36a7.19,7.19,0,0,0,7.17-.52,12.25,12.25,0,0,0,2.63-2.7,1,1,0,0,1,1.39-.28,1,1,0,0,1,.38,1.18,7.17,7.17,0,0,1-2.2,3c-.1,1.23,1.27,1.75,3.24,1a11.18,11.18,0,0,0,5.54-4.63,1.13,1.13,0,0,1,1.87,1.26,12.66,12.66,0,0,1-1.32,2,2.25,2.25,0,0,0,.51,2.75c1.69,1.12,4.54-1.74,5.93-3.19,1.77-1.85,2-1.94,2.28-1.78a.37.37,0,0,1,.19.36c-.3,2.89-4.54,7.46-8,7.18a3.81,3.81,0,0,1-3.34-3,8.68,8.68,0,0,1-5.85,1.88c-1.7,5-4.16,8.89-7.31,11.49,5.28-1.09,8.78-5.89,9.05-6.15l.16-.2c.85-1.07,2.55.25,1.86,1.39-.95,1.56-2.12,3.51-1.61,5.38.71,2.55,4.19,2.36,7.52-2.35-.31-2.63,1.26-5.12,2.76-7.24a.86.86,0,0,1,1-.3.78.78,0,0,1,.43.93c-.12.54-.22,1.09-.31,1.63a15.89,15.89,0,0,1-1.5,4.91c1.74,5.91,11.52-1,11.15-12a.8.8,0,0,1,.58-1l.14,0a.85.85,0,0,1,.91.76c1.12,10.36-9.71,21.23-14.3,14.7-5.67,7.92-12.09,3.51-11.24-1.87-7.11,5.93-13.21,3.48-14.26-.13-7.36,4.8-15.21,2.48-14.17-4.06-6.39,3.92-12.37.11-12.47-4.54-8.14,5.07-17.39-.6-14.84-8.46-4.82.8-11.9.24-11.94-4.67a4.35,4.35,0,0,1,1.16-2.71c-.57,0-1.14-.09-1.68-.15A17.35,17.35,0,0,1,61.4,165.56Z"/></g><g id="Group_5970" data-name="Group 5970"><path id="Path_30105" data-name="Path 30105" class="cls-1" d="M122.37,154.17c1.5.06,3-.45,4.55-.43a.69.69,0,0,1,.28,1.3c-3.51,1.92-8.7,1.69-10.84-1.7a4,4,0,0,1,0-4.24c-5.46-.81-9.43-5.8-6.53-8.71a13.3,13.3,0,0,1-4.51-5.16,2.57,2.57,0,0,1,1.2-3.41,21.62,21.62,0,0,1-2.78-4.06c-.52-1-1.43-2.69-.36-3.7l0,0h0c1.12-1,2.8-.21,2.28,1.07-.68,1.65-.3,2.46.93,3.49s2.22,2.76,3.54,3.92a11.07,11.07,0,0,1,.87.75c.89.83-.43,2.31-1.38,1.55-.45-.37-1.84-1.72-2.28-1-.33.55.93,2,1.28,2.38a12.76,12.76,0,0,0,4.81,3.64h0a1.08,1.08,0,0,1,.32,1.44,1,1,0,0,1-1.38.54h0l-.15-.09c-.79-.38-2.35,1.62,1.49,4a9.78,9.78,0,0,0,5.25,1.4c2.89-.81,2.71,1.39,1.65,1.7a10.39,10.39,0,0,1-2.14.35,2.46,2.46,0,0,0-.6,1.11C117.5,151.84,119.13,154.05,122.37,154.17Z"/></g><g id="Group_5971" data-name="Group 5971"><path id="Path_30106" data-name="Path 30106" class="cls-1" d="M138,173.83c-.16-.34-.06-.51,1.43-1.88,3.62-3.32,2.49-4.95,3.39-6.64.54-1,2.63.93.12,5.41C141.05,174,138.33,174.6,138,173.83Z"/></g><g id="Group_5972" data-name="Group 5972"><path id="Path_30107" data-name="Path 30107" class="cls-1" d="M128.56,174.26a.52.52,0,0,1-.48-.54.56.56,0,0,1,.21-.38,25.73,25.73,0,0,0,8.19-8.51c.44-.8,1.6-.06,1.18.73C134.2,172.27,128.94,174.3,128.56,174.26Z"/></g><g id="Group_5973" data-name="Group 5973"><path id="Path_30108" data-name="Path 30108" class="cls-1" d="M128.76,160.25c1.5,1.13-7.09,9.06-12.63,9.24a.54.54,0,0,1-.57-.42c-.18-.68.44-.9,2.39-1.62a20.93,20.93,0,0,0,8.44-5.57C126.84,161.36,128.17,159.81,128.76,160.25Z"/></g><g id="Group_5974" data-name="Group 5974"><path id="Path_30109" data-name="Path 30109" class="cls-1" d="M104.08,142.79h0a.61.61,0,0,1,.86-.08.61.61,0,0,1,.13.78,8.61,8.61,0,0,1-5.4,3.87.44.44,0,0,1-.51-.34.42.42,0,0,1,.22-.46A16.05,16.05,0,0,0,104.08,142.79Z"/></g><g id="Group_5975" data-name="Group 5975"><path id="Path_30110" data-name="Path 30110" class="cls-1" d="M100,142.74a.46.46,0,0,1,.64-.1.47.47,0,0,1,.12.63c-3,5-9.21,5.42-8.48,3.49.31-.84,2.68-.87,3.08-1A8.65,8.65,0,0,0,100,142.74Z"/></g><g id="Group_5976" data-name="Group 5976"><path id="Path_30111" data-name="Path 30111" class="cls-1" d="M95.39,144.12c-4.79,2.47-4.84,2.92-6,2.8a.68.68,0,0,1-.63-.75.76.76,0,0,1,.11-.32c.62-.93,1.89-1.16,2.79-1.49,2.79-1,3.59-1.88,4-1A.61.61,0,0,1,95.39,144.12Z"/></g><g id="Group_5977" data-name="Group 5977"><path id="Path_30112" data-name="Path 30112" class="cls-1" d="M91.67,121.55c-13-5.16-29.3-16.65-35.91-23.8a.64.64,0,0,1,.08-.9.63.63,0,0,1,.77,0c4.33,3.48,8.51,7.23,13,10.52a153.21,153.21,0,0,0,22,13.23c.36.18.8.34.6.76A.42.42,0,0,1,91.67,121.55Z"/></g><g id="Group_5978" data-name="Group 5978"><path id="Path_30113" data-name="Path 30113" class="cls-1" d="M119.42,127.84h0c-1-2.21-2.25-4.4-3.4-6.42-2.74-4.81-3.54-6.06-10-13.48C83.22,81.84,85.75,75.41,83.76,69a10,10,0,0,0-3.07,7.45c-.1,4,1.72,7.82,2.78,11.62.29,1-1.15,1.4-1.66.59-6.94-11-3.52-19.34,2.13-22a.92.92,0,0,1,1.21.46,1.1,1.1,0,0,1,.08.4c0,.6-.12,1.18-.13,1.73,0,3.43,2,8.37,3.3,11.33,6.4,14.23,14,19.23,23.84,33.53,2.9,4.23,5.39,6.88,8,13.36a.43.43,0,0,1-.78.35Z"/></g></g><g id="Group_5994" data-name="Group 5994"><g id="Group_5980" data-name="Group 5980"><path id="Path_30114" data-name="Path 30114" class="cls-1" d="M141.79,158.74a1.1,1.1,0,0,1,.61,1.43v0a1,1,0,0,1-1.28.62l-.06,0c-11-4.39-16.46-14.82-21.7-24.9-3.45-6.65-6.31-12.19-11.45-17.52-9.19-9.5-20.57-14.4-44.39-41.6C62.68,84.1,66,92.41,70.39,98.55c9.67,7.07,16.22,12.48,25.3,20a.78.78,0,0,1,.15,1.09.79.79,0,0,1-1,.2c-10.78-5.47-19.42-12.38-25-20C59,92.1,50.32,86.86,48,85.3c-2-1.32-3.33-2.18-4.39-1.5-3.12,2,3.48,8.9,6.15,11.47,5.38,5.21,7.86,5.11,7.07,6.73a1.21,1.21,0,0,1-1.16.7l0,.08c-4.18-1.9-3.86-2.41-7.11-4.11a11.87,11.87,0,0,0,2.34,5.14c1.07,1.64,3.17,5.29,11,10.53A73.25,73.25,0,0,0,92.35,126a57.18,57.18,0,0,0,7.13.9.9.9,0,0,1-.11,1.79c-2.28-.07-4.63,0-6.93-.2a73.45,73.45,0,0,1-21.22-5.78c-1.29,1.44-21.56-8.68-29.67-15.44-1-.83-2.36-2-3.36-1.55-2.33,1,.53,5.22,1.61,6.94a39.2,39.2,0,0,0,14.69,13.2c4.06.85,16.42,3.57,20.14,5.37a1.18,1.18,0,0,1,.05,2.36h-.07A45,45,0,0,1,54.51,128c-9.11-1.87-11.82-2.28-13.3-1.3-.54.35-1.17-.42-.62-.82,2.68-2,4.4-1.8,9.14-1a50.44,50.44,0,0,1-11-11.1c-1.55-2.1-3.79-4.92-3-7.6a3.11,3.11,0,0,1,2.6-2.32c1.45-.14,2.66.76,3.72,1.56a134.65,134.65,0,0,0,18.47,11.4,41.72,41.72,0,0,1-9-7.52,16.36,16.36,0,0,1-3.46-5.51,21.7,21.7,0,0,1-1-6.35.6.6,0,0,1,.24-.49,24.3,24.3,0,0,1-4.06-5.59c-1.2-2-2.85-4.78-1.77-7.24a3.34,3.34,0,0,1,2.37-2,5.08,5.08,0,0,1,3.62,1c6.58,4,13.34,8.48,20.12,13.33a38.72,38.72,0,0,1-5.73-22.08,1,1,0,0,1,1.7-.57C72,82.23,79.47,90.76,89.73,99.6c2.91,2.51,6,4.9,9,7.31,18.82,15.28,17.63,19.93,26.88,35.88C130.37,151.09,135.68,156.31,141.79,158.74Zm-68-56a64.53,64.53,0,0,0,14.79,11.63C84.14,110.63,79.26,106.8,73.82,102.78Z"/></g><g id="Group_5981" data-name="Group 5981"><path id="Path_30115" data-name="Path 30115" class="cls-1" d="M40.33,128c.05,0,.05.09,0,.08A0,0,0,0,1,40.33,128Z"/></g><g id="Group_5982" data-name="Group 5982"><path id="Path_30116" data-name="Path 30116" class="cls-1" d="M40.3,128.33A.33.33,0,0,1,40,128h0l0-.14.2-.17.13,0a.32.32,0,0,1,.29.36h0l0,.13-.2.17Zm.06-.58a.26.26,0,0,0-.28.23.23.23,0,0,0,.22.27.25.25,0,0,0,.28-.22A.26.26,0,0,0,40.36,127.75Z"/></g><g id="Group_5983" data-name="Group 5983"><path id="Path_30117" data-name="Path 30117" class="cls-1" d="M41.13,128.41A7.66,7.66,0,0,0,44,131a.4.4,0,0,1,.13.54.37.37,0,0,1-.37.18,6.17,6.17,0,0,1-3.24-2.94.37.37,0,0,1,.17-.51A.36.36,0,0,1,41.13,128.41Z"/></g><g id="Group_5984" data-name="Group 5984"><path id="Path_30118" data-name="Path 30118" class="cls-1" d="M61.4,165.56c-4.83-2.09-4.87-6.13-1-9.46-6.75-.89-19.2-5.1-15.52-10.64,1.35-2,4.47-2.41,7.3-2.64a54.25,54.25,0,0,1-9.25-4.76.44.44,0,1,1,.46-.76h0a44.3,44.3,0,0,0,12.18,5.35,51.89,51.89,0,0,1,15,1.75.94.94,0,0,1-.24,1.85,46.63,46.63,0,0,1-13.49-1.84c-2.05,0-7.4.24-9.33,1.25a1.94,1.94,0,0,0-.58,3.23c1.92,2.18,9.05,4.92,16.74,5.06a14.66,14.66,0,0,1,10.67-1.21,1.27,1.27,0,0,1,.88,1.57,1.28,1.28,0,0,1-.87.88,35.81,35.81,0,0,1-11,1.18c-2.4,1.27-5.29,4.17-3.53,6.19a4.2,4.2,0,0,0,2.57,1.13,29.46,29.46,0,0,0,8,.61,14.1,14.1,0,0,1,10.86-2.17c1.31.27,1.1,2,0,2.38A30.64,30.64,0,0,1,71,166.73c-6.41,5.26-.24,7.47,8.93,4.89a4.61,4.61,0,0,1,1.65-1.07,13.11,13.11,0,0,1,5.8-2.41,1.15,1.15,0,0,1,1.29.69,1.12,1.12,0,0,1-.45,1.37,25.62,25.62,0,0,1-5.84,2.89c-4.22,5.37,4.71,13.13,13.22,4,.4-.5.82-1,1.19-1.4a1.16,1.16,0,0,1,1.64-.2l.07.06a1.44,1.44,0,0,1,.22,2c-.25.32-.51.63-.77.93-.95,1.18-2,2.75-1.82,4.35a3.77,3.77,0,0,0,2.73,2.88c3.65,1.22,7-1.52,9.85-4.36,1-1,2.9.33,2,1.57-1.15,1.6-2.52,3.45-2.32,5.49.41,4.17,7.32,3,11.66,0,.84-2.52,3.46-3.57,4.16-2.23.41.79-.25,1.24-1.05,2.13-.33.35-.66.73-1,1.08-.2,1.74,1.67,3.77,4.69,3.39a.6.6,0,0,1-.31-.8l.06-.11a44.91,44.91,0,0,0,6.43-11.49,3.18,3.18,0,0,1-1-1.84,10.09,10.09,0,0,1-9.1.17c-.84,1.27-5.8,7.72-9.88,10.14a.66.66,0,0,1-.84-1c1.69-1.91,3.68-3.58,5.42-5.42q2.07-2.21,3.92-4.6a4.28,4.28,0,0,1-1.8-3.3,17.18,17.18,0,0,1-2.59.88c-7.07,1.89-9.41-1.36-8.9-4.5,0-.15.06-.31.1-.46-5.56,1.54-9.94-2.82-8.13-8.07-6,.71-11.09-3.83-8.77-8.49-8.94-.65-12.37-7.45-9.69-11.21-3.2-1.2-5.05-3.58-5.1-6.57,0-3.47,2.74-7.55,9.48-5a.67.67,0,0,1,.44.75c-.12.65-.75.57-1,.57a9.46,9.46,0,0,0-4.49.69c-2.55,1.38-2.28,6.71,3.81,7.75a3.9,3.9,0,0,1,1.76.2,1.24,1.24,0,0,1-.48,2.39,13.08,13.08,0,0,1-1.53-.09c-1.6.56-2.29,3.11.54,5.59a11.32,11.32,0,0,0,4.12,2.23c2.51.77,3.34.34,4.4.55a4.89,4.89,0,0,1,.73-.26c1.31-.33,2,1.8.69,2.22-1.72.55-2.16,3.68.7,5.19,1.41.74,4.3,1.35,6.09.59a14.37,14.37,0,0,1,1.64-1.67,1.1,1.1,0,0,1,1.4,0,1,1,0,0,1,.35,1.23,5.36,5.36,0,0,1-1.82,2.18c-.57.89-2.09,3.72,0,5.89s5.69.52,8.27-1.29a1.28,1.28,0,0,1,1.78.29,1.11,1.11,0,0,1-.18,1.57l0,0-.18.14c-1.11.9-2.37,1.92-2.58,3.3a1.9,1.9,0,0,0,.35,1.55c1.16,1.46,4.7.76,6.5.25,1.35-.39,2.69-.93,4-1.41.83-.31,1.64.1,1.15.8a6.1,6.1,0,0,1-.74.86c-.18,2.12,1.32,2.73,2.71,3.36a7.19,7.19,0,0,0,7.17-.52,12.25,12.25,0,0,0,2.63-2.7,1,1,0,0,1,1.39-.28,1,1,0,0,1,.38,1.18,7.17,7.17,0,0,1-2.2,3c-.1,1.23,1.27,1.75,3.24,1a11.18,11.18,0,0,0,5.54-4.63,1.13,1.13,0,0,1,1.87,1.26,12.66,12.66,0,0,1-1.32,2,2.25,2.25,0,0,0,.51,2.75c1.69,1.12,4.54-1.74,5.93-3.19,1.77-1.85,2-1.94,2.28-1.78a.37.37,0,0,1,.19.36c-.3,2.89-4.54,7.46-8,7.18a3.81,3.81,0,0,1-3.34-3,8.68,8.68,0,0,1-5.85,1.88c-1.7,5-4.16,8.89-7.31,11.49,5.28-1.09,8.78-5.89,9.05-6.15l.16-.2c.85-1.07,2.55.25,1.86,1.39-.95,1.56-2.12,3.51-1.61,5.38.71,2.55,4.19,2.36,7.52-2.35-.31-2.63,1.26-5.12,2.76-7.24a.86.86,0,0,1,1-.3.78.78,0,0,1,.43.93c-.12.54-.22,1.09-.31,1.63a15.89,15.89,0,0,1-1.5,4.91c1.74,5.91,11.52-1,11.15-12a.8.8,0,0,1,.58-1l.14,0a.85.85,0,0,1,.91.76c1.12,10.36-9.71,21.23-14.3,14.7-5.67,7.92-12.09,3.51-11.24-1.87-7.11,5.93-13.21,3.48-14.26-.13-7.36,4.8-15.21,2.48-14.17-4.06-6.39,3.92-12.37.11-12.47-4.54-8.14,5.07-17.39-.6-14.84-8.46-4.82.8-11.9.24-11.94-4.67a4.35,4.35,0,0,1,1.16-2.71c-.57,0-1.14-.09-1.68-.15A17.35,17.35,0,0,1,61.4,165.56Z"/></g><g id="Group_5985" data-name="Group 5985"><path id="Path_30119" data-name="Path 30119" class="cls-1" d="M122.37,154.17c1.5.06,3-.45,4.55-.43a.69.69,0,0,1,.28,1.3c-3.51,1.92-8.7,1.69-10.84-1.7a4,4,0,0,1,0-4.24c-5.46-.81-9.43-5.8-6.53-8.71a13.3,13.3,0,0,1-4.51-5.16,2.57,2.57,0,0,1,1.2-3.41,21.62,21.62,0,0,1-2.78-4.06c-.52-1-1.43-2.69-.36-3.7l0,0h0c1.12-1,2.8-.21,2.28,1.07-.68,1.65-.3,2.46.93,3.49s2.22,2.76,3.54,3.92a11.07,11.07,0,0,1,.87.75c.89.83-.43,2.31-1.38,1.55-.45-.37-1.84-1.72-2.28-1-.33.55.93,2,1.28,2.38a12.76,12.76,0,0,0,4.81,3.64h0a1.08,1.08,0,0,1,.32,1.44,1,1,0,0,1-1.38.54h0l-.15-.09c-.79-.38-2.35,1.62,1.49,4a9.78,9.78,0,0,0,5.25,1.4c2.89-.81,2.71,1.39,1.65,1.7a10.39,10.39,0,0,1-2.14.35,2.46,2.46,0,0,0-.6,1.11C117.5,151.84,119.13,154.05,122.37,154.17Z"/></g><g id="Group_5986" data-name="Group 5986"><path id="Path_30120" data-name="Path 30120" class="cls-1" d="M138,173.83c-.16-.34-.06-.51,1.43-1.88,3.62-3.32,2.49-4.95,3.39-6.64.54-1,2.63.93.12,5.41C141.05,174,138.33,174.6,138,173.83Z"/></g><g id="Group_5987" data-name="Group 5987"><path id="Path_30121" data-name="Path 30121" class="cls-1" d="M128.56,174.26a.52.52,0,0,1-.48-.54.56.56,0,0,1,.21-.38,25.73,25.73,0,0,0,8.19-8.51c.44-.8,1.6-.06,1.18.73C134.2,172.27,128.94,174.3,128.56,174.26Z"/></g><g id="Group_5988" data-name="Group 5988"><path id="Path_30122" data-name="Path 30122" class="cls-1" d="M128.76,160.25c1.5,1.13-7.09,9.06-12.63,9.24a.54.54,0,0,1-.57-.42c-.18-.68.44-.9,2.39-1.62a20.93,20.93,0,0,0,8.44-5.57C126.84,161.36,128.17,159.81,128.76,160.25Z"/></g><g id="Group_5989" data-name="Group 5989"><path id="Path_30123" data-name="Path 30123" class="cls-1" d="M104.08,142.79h0a.61.61,0,0,1,.86-.08.61.61,0,0,1,.13.78,8.61,8.61,0,0,1-5.4,3.87.44.44,0,0,1-.51-.34.42.42,0,0,1,.22-.46A16.05,16.05,0,0,0,104.08,142.79Z"/></g><g id="Group_5990" data-name="Group 5990"><path id="Path_30124" data-name="Path 30124" class="cls-1" d="M100,142.74a.46.46,0,0,1,.64-.1.47.47,0,0,1,.12.63c-3,5-9.21,5.42-8.48,3.49.31-.84,2.68-.87,3.08-1A8.65,8.65,0,0,0,100,142.74Z"/></g><g id="Group_5991" data-name="Group 5991"><path id="Path_30125" data-name="Path 30125" class="cls-1" d="M95.39,144.12c-4.79,2.47-4.84,2.92-6,2.8a.68.68,0,0,1-.63-.75.76.76,0,0,1,.11-.32c.62-.93,1.89-1.16,2.79-1.49,2.79-1,3.59-1.88,4-1A.61.61,0,0,1,95.39,144.12Z"/></g><g id="Group_5992" data-name="Group 5992"><path id="Path_30126" data-name="Path 30126" class="cls-1" d="M91.67,121.55c-13-5.16-29.3-16.65-35.91-23.8a.64.64,0,0,1,.08-.9.63.63,0,0,1,.77,0c4.33,3.48,8.51,7.23,13,10.52a153.21,153.21,0,0,0,22,13.23c.36.18.8.34.6.76A.42.42,0,0,1,91.67,121.55Z"/></g><g id="Group_5993" data-name="Group 5993"><path id="Path_30127" data-name="Path 30127" class="cls-1" d="M119.42,127.84h0c-1-2.21-2.25-4.4-3.4-6.42-2.74-4.81-3.54-6.06-10-13.48C83.22,81.84,85.75,75.41,83.76,69a10,10,0,0,0-3.07,7.45c-.1,4,1.72,7.82,2.78,11.62.29,1-1.15,1.4-1.66.59-6.94-11-3.52-19.34,2.13-22a.92.92,0,0,1,1.21.46,1.1,1.1,0,0,1,.08.4c0,.6-.12,1.18-.13,1.73,0,3.43,2,8.37,3.3,11.33,6.4,14.23,14,19.23,23.84,33.53,2.9,4.23,5.39,6.88,8,13.36a.43.43,0,0,1-.78.35Z"/></g></g></g><path id="Path_30128" data-name="Path 30128" class="cls-3" d="M169,71.12a11.33,11.33,0,0,1,1.79-2.28,1.81,1.81,0,0,1,1.19-1.3l0,0,.05,0a.92.92,0,0,1,.54-.13l.24-.05c.22-.12.42-.22.59-.1h.16a1.28,1.28,0,0,1,1.2.62c.91,1.33,1.88,2.61,2.88,3.87a7.28,7.28,0,0,1,1.31,1.61c.36.44.73.87,1.1,1.3,2.57,0,5.14,0,7.69.11a3.22,3.22,0,0,1,1.8-.92,2,2,0,0,1,2,1h0c.44.08.87.15,1.31.21a134.67,134.67,0,0,1,13.73,1.82c2.4.45,2,3.8.08,4.56,1.34.37,2.67.76,4,1.18,2.64.83,1.75,5.34-1.08,4.69l-2.5-.58a11.6,11.6,0,0,1,.79,1.26,2.5,2.5,0,0,1,.3,1l.3.13a1.76,1.76,0,0,1,1,1.7,21.42,21.42,0,0,1,2.83-.85c.22-.08.42-.17.64-.23a.4.4,0,0,1,.48-.15h0a6.56,6.56,0,0,1,1.92-.23h0a.33.33,0,0,1,.14,0h.19c.5.06.4.88,0,1l-.07,0a22.67,22.67,0,0,1-2.15,2.83l0,0a6.57,6.57,0,0,1-.25,4c-.75,2.1-2.36,3.68-3.23,5.72s-3.71,1.74-4.12-.18a4.56,4.56,0,0,0-.65-1.54,6.58,6.58,0,0,1-3.6-.14l-.72-.16c-.33-.05-.65-.11-1-.18-.87-.14-1.74-.26-2.61-.45a7.77,7.77,0,0,1-2.37-.87,70.79,70.79,0,0,1-11.35-4.25,45.69,45.69,0,0,0,10.15,4.59c0,.07-4-1.06-5.95-1.74a12,12,0,0,1-2.49-1.09c-2.72-1.7-5.51-3.31-8.05-5.27l-.28-.22a85.38,85.38,0,0,1-8.13-4,2.9,2.9,0,0,1-.29-.19,4.05,4.05,0,0,1,2.13.06,1.52,1.52,0,1,0,.61-3,7.1,7.1,0,0,0-5.66.89,1.59,1.59,0,0,0-.49.44,2.19,2.19,0,0,1-1-.44,7.25,7.25,0,0,1-1.1-.59,2.44,2.44,0,0,1-.76-3.35,2,2,0,0,1,.26-.34,18.5,18.5,0,0,0,3.45-8.17,2.19,2.19,0,0,1,2.46-1.9A1.84,1.84,0,0,1,169,71.12Z"/><path id="Path_30129" data-name="Path 30129" class="cls-1" d="M164.51,57.71l1.85-.42c2.63-.6,4,3.21,1.68,4.09,0,0,0,.08,0,.13a3.07,3.07,0,0,1,1.76,1.72c.39,1,0,2.06,0,3.08a4.16,4.16,0,0,0,1.85,3.27c1.84,1.6,3.43,3.27,3.46,5.84,0,2.83-4.37,3.09-4.4.25,0-2-2.65-3.32-4-4.93a2.53,2.53,0,0,1-1.91.06c-4.32-1.59.18-7.34-1.49-9.81a2.22,2.22,0,0,1,.69-3.05A2.12,2.12,0,0,1,164.51,57.71Z"/><path id="Path_30130" data-name="Path 30130" class="cls-1" d="M212.88,102.74c-.54.75-1,.92-1.67.61a21.94,21.94,0,0,1-3.08-1.8c-1-.73-2-1.66-3-2.38s-2.25-1.23-3.36-1.87a45.38,45.38,0,0,0-4.48-2.6c-2.41-1-4.9-1.9-7.39-2.77-1.42-.5-2.9-.89-4.36-1.32-2.07-.61-4.13-1.23-6.2-1.81-1.51-.43-3-.87-4.56-1.19-1.9-.4-3.81-.78-5.74-1-1.76-.22-3.56-.25-5.33-.34a.53.53,0,0,0-.4.28c-.26.91-.83.53-1.33.33-1.34-.55-1.07-1.88-1.06-2.85a24.34,24.34,0,0,1,.63-5.38,2.2,2.2,0,0,0-.89-2.45,15.94,15.94,0,0,1-2.69-2.63,12.2,12.2,0,0,0-2.63-2.49,15.27,15.27,0,0,1-1.24-1c-1.29-1.21-2.53-2.46-3.84-3.65-1-.93-2.15-1.73-3.17-2.67A1.27,1.27,0,0,1,146.7,62a1.23,1.23,0,0,1,.76-.54c1.65-.51,3.33-.89,5-1.26,3.84-.84,7.7-1.61,11.55-2.44,2.77-.59,5.51-1.27,8.29-1.85,2-.41,4.06-.69,6.09-1.09,1.79-.35,3.56-.78,5.33-1.19.53-.12,1-.3,1.55-.44,2-.53,3.92-1,5.86-1.58.88-.24,1.74-.59,2.63-.84a10.32,10.32,0,0,0,4.58-2.42,1.36,1.36,0,0,1,1-.21c.87.08,1.15.84,1.59,1.44q2.07,2.81,4.22,5.57c1.37,1.78,2.71,3.58,4.16,5.29,2.14,2.53,4.36,5,6.55,7.49,1.13,1.27,2.37,2.46,3.39,3.82a125.89,125.89,0,0,0,11.59,12.73,21.11,21.11,0,0,0,6,4.71,1.12,1.12,0,0,1,.67,1.44,1,1,0,0,1-.11.21,13.45,13.45,0,0,1-.88,1.34c-.13.21-.29.51-.22.69a2.34,2.34,0,0,1-.85,3c.54,1.33.44,1.68-.57,2.64a1.23,1.23,0,0,0-.24.76c0,.23.2.58.1.68-.8.86-.36,1.64.08,2.44a1,1,0,0,1,.1.34,7.17,7.17,0,0,1-2.43,7c.16.85.32,1.58.44,2.31.33,1.94.66,3.88.94,5.83a1.71,1.71,0,0,1-1.29,1.89c-.71.17-1.48.13-2.21.26a2.49,2.49,0,0,0-1.16.49,11.44,11.44,0,0,0-1,1.28,1.41,1.41,0,0,1-1.9.52c-.89-.52-1.7-1.19-2.56-1.78a11.73,11.73,0,0,1-1.07-.65,3.32,3.32,0,0,1-1.09-1.26c-.15-.49.24-1.12.17-1.66a3.94,3.94,0,0,0-.68-1.65,6.09,6.09,0,0,0-1.21-1.05,25.21,25.21,0,0,0,2-2.76,8.24,8.24,0,0,1,3.31-3.31,1.8,1.8,0,0,0,.82-1.61,17.69,17.69,0,0,1,.26-2.28c.71-2.92,2.35-4.13,5.42-4.17a4,4,0,0,1,.47-1.11c.3-.39.41-.68.12-1.12a1.32,1.32,0,0,1,.39-1.82h0c.24-.22.52-.4.8-.61-.28-.54-.56-1-.81-1.53a1.17,1.17,0,0,1,.34-1.63l0,0c.36-.24.8-.41.56-.93s-.4-1.19-1.22-1.06l-3.68.59c-3.41.55-6.83,1.07-10.23,1.69-.74.13-1.75.38-2.08.92a19.73,19.73,0,0,0-1.68,4C214.21,99.27,214,101.14,212.88,102.74Zm11.24,8.77.65-1-.17-.17a5,5,0,0,0-.66.64c-.57.84-1.13,1.69-1.62,2.57a.94.94,0,0,0,.06.88,3.06,3.06,0,0,1,.82,2.89c-.12.5,0,.83.54,1a2.17,2.17,0,0,1,.83.76c.19.23.24.57.44.77,1.09,1.15,1.87,1.5,2.75,0a4,4,0,0,1,1.17-1.32,1.87,1.87,0,0,1,1.41-.17c1.57.46,2.28,0,2.12-1.57-.22-2.14-.41-4.32-1.88-6.16a10.38,10.38,0,0,1,.14,1.12c0,1.29,0,2.59,0,3.89,0,.22-.38.42-.58.64-.09-.26-.29-.54-.26-.79a8,8,0,0,0-1-5,.72.72,0,0,0-.25-.24c-.07,0-.17,0-.13,0-.41,1.28-.75,2.47-1.17,3.62-.09.24-.47.38-.9.69-.08-1.47,1-2.71.19-4-.85.25-1.3,1.47-2.49.92Zm5.32-5.74-.25-.18c.52-1,1-2,1.58-3a3.35,3.35,0,0,0-.55,0,4.87,4.87,0,0,0-1.42.31,1.5,1.5,0,0,0-.75.92c-.23,1.39-.32,2.81-.52,4.21-.12.87.4,1,1.05,1s1.48-.07,2.21-.13a1.25,1.25,0,0,0,.67-.25c1.22-1.14,2.19-2.41,1.8-4.39-.78.61-1.16,1.63-2.36,1.56l.95-1.87c-1,.46-1.34,1.61-2.41,1.83ZM163,79.59c-.07,1.3-.31,2.58-.44,3.87-.07.69-.26,1.25,1,1.11a16.81,16.81,0,0,1,4.58.44c2.59.46,5.19.94,7.73,1.6q7.77,1.89,15.33,4.55c1.85.68,3.81,1.09,5.59,1.9a50.82,50.82,0,0,1,5.72,3.19c2.37,1.46,4.68,3,7,4.55.44.29.91.53,1.37.8l.22-.28c-2-3.13-5.68-4.2-8.45-6.42a29,29,0,0,1,3.58,1.43c1.73.94,3.34,2.07,5,3.1a4.85,4.85,0,0,0,1,.38c-.14-.41-.16-1-.43-1.22a17.07,17.07,0,0,0-2.17-1.72c-2.15-1.5-4.25-3.12-6.53-4.41-2.83-1.6-5.8-3-8.76-4.34-2.58-1.19-5.23-2.21-7.8-3.5a13.49,13.49,0,0,1,2.51.52c3.57,1.48,7.19,2.86,10.61,4.62,3.91,2,7.62,4.4,11.41,6.64.49.29.93.64,1.41.95a1.69,1.69,0,0,0,.44.12,1.44,1.44,0,0,0-.13-2l-.1-.08a25.2,25.2,0,0,0-5.3-4.24l-8.21-4.38a6.23,6.23,0,0,1-.82-.61l.15-.31c1.81.78,3.63,1.52,5.41,2.37a58.15,58.15,0,0,1,5.24,2.76c1.7,1,3.29,2.26,5,3.45.4-.36.57-.68.09-1.28-.75-.94-1.12-2.17-2.22-2.86a45.78,45.78,0,0,0-4.36-2.76c-3-1.42-6-2.63-9-3.93a.69.69,0,0,1-.37-.36c6.34,1.34,12.14,3.8,17.07,8.39a9.8,9.8,0,0,0,.48-1.38.84.84,0,0,0-.31-.63c-.66-.54-1.34-1.07-2-1.57-1.22-.86-2.42-1.75-3.7-2.51-1.54-.92-3.14-1.76-4.74-2.57a31.64,31.64,0,0,0-9.31-3.16,5,5,0,0,1-.75-.24l0-.35a19.48,19.48,0,0,1,2.29.08c4.2.65,7.88,2.64,11.55,4.6,1.75.93,3.4,2,5.11,3,.82.47,1.69.84,2.54,1.25l.27-.26a8.7,8.7,0,0,0-1-1.33c-1.73-1.52-3.47-3-5.25-4.47-2.14-1.74-4.77-2.57-7.19-3.78a109.37,109.37,0,0,0-13.44-5.47,55.92,55.92,0,0,0-6.1-1.37c-.5-.13-1-.28-1.46-.45A22.74,22.74,0,0,0,179,69.9a37,37,0,0,0-4.34-.25,13,13,0,0,0-2-.05c-1.36.15-2.71.37-4.06.59-.55.09-1.09.3-1.64.39a2,2,0,0,0-1.54,2,.69.69,0,0,0,.52.43c2.58-.23,5,.61,7.39,1.27.2.06.34.3.48.53a1.77,1.77,0,0,0,.16.22l-.27.13a1.28,1.28,0,0,1-.76.29c-.64-.11-1.22-.5-1.86-.63-1.72-.36-3.46-.66-5.19-.95a1.24,1.24,0,0,0-.78.12.72.72,0,0,0-.31.58c0,.11.31.3.5.32.77.1,1.56.12,2.32.24a1.4,1.4,0,0,1,.78.47.64.64,0,0,1-.18.6,1.47,1.47,0,0,1-.78,0c-.89-.14-1.76-.33-2.65-.41a.93.93,0,0,0-.72.38c-.62,1-.36,1.22.77,1.44,2,.4,4,1,6,1.54a1.09,1.09,0,0,1,.51.93c-.15.5-.61.43-1,.2a16,16,0,0,0-6.14-1.61C163.45,78.65,163,78.72,163,79.59Zm55.37,6.87c.66.43.39,1.05.17,1.6-.35.85-.74,1.69-1.11,2.53l.17.34,15.85-2.2c-.35-.47-.74-1-1.21-1.57S231,86,230.37,85.37c-1.51-1.44-3.1-2.81-4.51-4.35-2.31-2.51-4.48-5.13-6.73-7.69-1.09-1.23-2.23-2.4-3.32-3.62-.71-.81-1.34-1.68-2.05-2.49-1.9-2.19-3.85-4.34-5.73-6.55-1.69-2-3.29-4-4.94-6-1.22-1.47-2.47-2.91-3.74-4.34a.74.74,0,0,0-.69-.09,67.4,67.4,0,0,1-10.29,3.67c-3.61,1.13-7.37,1.75-11.08,2.55-2.51.54-5,1-7.56,1.49-1.06.2-2.11.41-3.16.66-3,.73-6,1.5-9,2.21-2,.47-4,.87-6.06,1.32-.7.15-1.39.36-2.09.53s-.7.58-.28,1,1.13,1.08,1.71,1.59c2.28,2,4.59,3.92,6.85,5.91,1.41,1.25,2.74,2.57,4.12,3.86.21.19.45.36.72.57a2.68,2.68,0,0,0,.26-.47c.5-1.43,1-2.85,1.48-4.3a1.93,1.93,0,0,1,1.81-1.55c1.15-.11,2.25-.6,3.39-.75a23.47,23.47,0,0,1,8.19.15c2.8.62,5.57,1.39,8.38,2a69.85,69.85,0,0,1,12.89,4.43c4.23,1.79,8.57,3.45,12.35,6.17,1.77,1.27,3.4,2.74,5.13,4.07C217,85.78,217.73,86,218.36,86.46Z"/><g id="Group_6016" data-name="Group 6016"><g id="Group_5997" data-name="Group 5997"><g id="Group_5996" data-name="Group 5996"><path id="Path_30131" data-name="Path 30131" class="cls-4" d="M310.3,141c-1.66,2-4.68,3.16-6.88,4.42L295,150.29q-8.62,5-17.28,9.89l-17.87,10.24-9.17,5.24a55.21,55.21,0,0,1-9.87,5c-.95.32-1.32-1.09-.71-1.63a44.65,44.65,0,0,1,8.38-5.49l9.15-5.21,17.82-10.17,16.51-9.42c2.77-1.58,5.56-3.15,8.34-4.72s5.8-3.87,9-4.68a1.05,1.05,0,0,1,1.24.84,1,1,0,0,1-.21.86Z"/></g></g><g id="Group_5999" data-name="Group 5999"><g id="Group_5998" data-name="Group 5998"><path id="Path_30132" data-name="Path 30132" class="cls-4" d="M322.92,139.09a46.07,46.07,0,0,1,4-5.59c.28-.35,3.4-3.59,0-3.08-1.32.2-2.66.35-4,.48-2.78.29-4.35.56-6.44-1.42-1.35-1.27-2.53-2.74-3.76-4.14q-.51-.59-1-1.17c-1.28.15-1.68.71-1.2,1.66.27,1.37.53,2.72.75,4.09.59,3.59-1.92,4.46-5,4.4-.94,0-1.85,0-2.79,0a2.8,2.8,0,0,0,1.87,2.18c.5.26,1,.52,1.53.77,1.33.66,3.5,1.27,3.9,2.95s-.44,3.62-.69,5.34c-.09.61-.17,1.22-.26,1.82-.35.92.08,1.5,1.31,1.75.85-.74,1.69-1.47,2.48-2.27s1.78-2.41,3.3-2.27c1.84.16,2.72,1.52,4.2,2.48a18.92,18.92,0,0,0,2.41,1.24c2.2,1,.78-2.74.64-3.31a18.75,18.75,0,0,0-1.62-4.91c-.75-1.32,1.59-2.37,2.31-1a28.94,28.94,0,0,1,2,6.74c.38,1.61.82,3.77-1.06,4.7s-3.76-.17-5.59-1.12c-.53-.27-3.32-2.72-3.91-2.2-1.23,1.09-2.29,2.4-3.53,3.49s-3.05,2-4.55.67c-1.83-1.61-1-4.51-.69-6.61.13-1,1.12-3.7-.24-4.36-1.54-.75-3.08-1.51-4.6-2.31s-3.23-2.25-2.33-4.2,2.76-2.09,4.81-1.88a17.4,17.4,0,0,0,2.7.07c1.73-.08,1-2.24.82-3a31.42,31.42,0,0,1-.84-4.51,3.09,3.09,0,0,1,2.53-3.29c2.46-.25,3.79,2.15,5.22,3.78,1.14,1.31,2.76,4,4.68,3.92,1.17,0,2.34-.16,3.5-.25,1.63-.13,3.47-.7,5.05-.22a2.88,2.88,0,0,1,1.63,3.59c-.3,1.21-1.72,2.47-2.47,3.43-1.24,1.59-2.42,3.22-3.73,4.74-.73.85-1.81-.27-1.32-1.13Z"/></g></g><g id="Group_6001" data-name="Group 6001"><g id="Group_6000" data-name="Group 6000"><path id="Path_30133" data-name="Path 30133" class="cls-4" d="M330.31,118.91l.33.59a.71.71,0,0,1-.23-.26,1.09,1.09,0,0,1-.1-.53,9.7,9.7,0,0,1,.17-1.7,18.75,18.75,0,0,1,.84-3.08c.11-.34.69-.26.76.08a9.79,9.79,0,0,1-.56,5.16.63.63,0,0,1-1.21-.26Z"/></g></g><g id="Group_6003" data-name="Group 6003"><g id="Group_6002" data-name="Group 6002"><path id="Path_30134" data-name="Path 30134" class="cls-4" d="M309.92,113.47a4.2,4.2,0,0,1-2.45-3.72.39.39,0,0,1,.54-.28,2.42,2.42,0,0,1,1.18,1.26c.4.75.85,1.47,1.21,2.24a.38.38,0,0,1-.23.49.31.31,0,0,1-.25,0Z"/></g></g><g id="Group_6005" data-name="Group 6005"><g id="Group_6004" data-name="Group 6004"><path id="Path_30135" data-name="Path 30135" class="cls-4" d="M295,124a22.57,22.57,0,0,0-2.22-1.06c-.29-.13-.56-.29-.85-.43s-.49-.56-.67-1a.45.45,0,0,1,.25-.6l.06,0c1.62-.34,3.06,1.54,3.91,2.63.24.31-.21.59-.48.43Z"/></g></g><g id="Group_6007" data-name="Group 6007"><g id="Group_6006" data-name="Group 6006"><path id="Path_30136" data-name="Path 30136" class="cls-4" d="M293.39,137.1a13.65,13.65,0,0,1-4.37.26c-.92,0-.92-1.67,0-1.76a12.62,12.62,0,0,1,4.34.83c.29.08.4.56.06.67Z"/></g></g><g id="Group_6009" data-name="Group 6009"><g id="Group_6008" data-name="Group 6008"><path id="Path_30137" data-name="Path 30137" class="cls-4" d="M345,134.77a15.81,15.81,0,0,0-3.37.16c-1,.09-2.1.45-3-.19a.38.38,0,0,1-.18-.41c.34-1.06,1.88-.84,2.7-.71,1.32.22,2.6.59,3.91.83.24.05.09.34-.11.32Z"/></g></g><g id="Group_6011" data-name="Group 6011"><g id="Group_6010" data-name="Group 6010"><path id="Path_30138" data-name="Path 30138" class="cls-4" d="M336.44,158.47a4.87,4.87,0,0,0-.57-.24c-.49-.24-.94-.59-1.42-.87a5.55,5.55,0,0,1-1.77-1.31.93.93,0,0,1,.23-1.28,1,1,0,0,1,.54-.17,4,4,0,0,1,2.21,1.4c.28.3.55.62.81.94a8.91,8.91,0,0,1,.63,1.18c.26.43-.38.58-.66.35Z"/></g></g><g id="Group_6013" data-name="Group 6013"><g id="Group_6012" data-name="Group 6012"><path id="Path_30139" data-name="Path 30139" class="cls-4" d="M320.21,166.72c-.82-1.25-2.1-3.84-1.09-5.26.16-.24.55-.11.68.07a4.82,4.82,0,0,1,.69,2.31c.13.89.29,1.78.48,2.65C321.06,166.92,320.42,167,320.21,166.72Z"/></g></g><g id="Group_6015" data-name="Group 6015"><g id="Group_6014" data-name="Group 6014"><path id="Path_30140" data-name="Path 30140" class="cls-4" d="M302.69,161.2a18.51,18.51,0,0,1-2.33,2.67.61.61,0,0,1-.66,0c-.56-.41-.44-.9,0-1.4.7-.72,1.43-1.41,2.2-2.06C302.35,160,303.12,160.73,302.69,161.2Z"/></g></g></g></g><g id="Group_6029" data-name="Group 6029"><path id="Path_30171" data-name="Path 30171" class="cls-3" d="M372.89,125.07c.1,0,.2.06.3.09a24.75,24.75,0,0,1-8.52-12.06c-2.09-6.45-2.17-16.67,4.05-20.89a.76.76,0,0,1,1,.33.85.85,0,0,1,.09.38c-.64,6.44-4,11.62-2.5,18.45,1.42,6.65,5.74,11.3,11.17,14.68,6.19.07,13.1-2.55,17.85-5.5,5.8-3.59,12.38,3.67,10.48,9a71,71,0,0,0,14.45,5.78,23.71,23.71,0,0,0,12.27-12.21c.25-.59,1.2-.31,1,.31A26.13,26.13,0,0,1,424.45,136a11.3,11.3,0,0,0,7.05-1.88c2.88-1.94,9.17-11.29,6.7-15-.35-.52.29-1.11.8-1,2.36.67,3.06,3,3.07,5.35,3.48-1.26,6.53-1.14,10.3-1.48a90.75,90.75,0,0,0,13.47-2.7c8.31-2,16.34-4,24.78-5,1.71-2.7,5.9-4.08,8.28-1.05,4.94,6.31,12.21,11.93,20.61,11.94a24.42,24.42,0,0,0,17.89-7.79A23,23,0,0,1,538,107c1.16-3.64,5.76-2.77,6.85.32,1.77,5,2.16,8.81,5.41,13.26a35.71,35.71,0,0,0,3.53,4.22c2.09.63,4.23,1.09,6.17,1.54,6.9,1.58,14.57,2.75,21.42.31,13.28-4.72,13.37-20.05,12.81-31.8,0-.48.71-.43.75,0,1.06,13.09.39,29.74-14.52,34.47-6.48,2.06-13.58,1.19-20.21-.26l.24.12c9.28,3.93,17.34,3.78,26.13-1.53a27.23,27.23,0,0,0,13.61-21.28c1.06-10.77-6.16-21-16.18-25.09-2.49-1-1.25-5,1.31-4a30.67,30.67,0,0,1,9.8,6c5.69-1.81,9.65-3.82,11.71-8.65,0-.19-.09-.38-.14-.57a.13.13,0,0,1,.11-.15A.14.14,0,0,1,607,74l0,.22A18.31,18.31,0,0,0,608,71c1.22-6.25,1.62-11.63-1.39-17.54s-7.11-8.15-13.34-9.85c-4.59-1.26-8.2-.93-11.94-4.16-2.1-1.81-1.63-5.77.35-7.44a9.85,9.85,0,0,1,2.72-1.62c-1-4.73-2.58-8.86-7.1-12.33a18.15,18.15,0,0,0-8-3.37,2.85,2.85,0,0,1-1.13.88c-.42.19-1.08-.19-.84-.7.06-.14.11-.28.16-.42a33.85,33.85,0,0,0-9,.47,19.38,19.38,0,0,0-3,2.47A21.1,21.1,0,0,0,549,30a.54.54,0,0,1-.58.49A.53.53,0,0,1,548,30a21.58,21.58,0,0,1,5.26-14.2c-3.58.61-7.61,1.54-9.41,3.26-3.65,3.49-1.91,10.44-6.29,14a1.39,1.39,0,0,1-2-.09c-2.53-3.43-2-6.76-1.51-11,.18-1.44.27-3.16.46-4.9C528,4.94,513.12,1,500.12,3,488.58,4.8,479.4,14.18,472.94,23.54c3,1.5,5.84,3.14,8.55,4.73,1.57.91.05,3.18-1.52,2.34a85.17,85.17,0,0,0-9.27-4.37,6.17,6.17,0,0,1-4.76,1.59,7.7,7.7,0,0,1-4.91-2.3,6.29,6.29,0,0,1-1.19-1.79A19.48,19.48,0,0,0,445,29.65c-3.16,3.08-7,6.71-9.08,10.56-2.56,4.64-1.78,10.12-4.58,14.69-1.54,2.53-6,3.24-7.88.65a14.22,14.22,0,0,1-1.82-3.28,21.53,21.53,0,0,0-13.75,2c-4.76,2.47-10.21,9.86-5.86,15.32,5.61,7-5.08,16.48-10.25,9.35a19.77,19.77,0,0,1-2.5-4.55c-8,.22-15.11,1.89-21.68,7.28-8,6.6-8.18,15.39-7.23,25.14C361.14,115,364.84,122,372.89,125.07Z"/><g id="Group_6029-2" data-name="Group 6029-2"><path id="Path_30173" data-name="Path 30173" class="cls-5" d="M569.79,149.73l-3.1-.2,2.24-.59a.68.68,0,0,1,.85.46A.62.62,0,0,1,569.79,149.73Z"/><path id="Path_30174" data-name="Path 30174" class="cls-5" d="M355.9,131.16a30.29,30.29,0,0,1-9.81-20.08c-.83-12.2,4.52-26.38,14.79-33.37a43.71,43.71,0,0,1,27.47-7.06c-.65-7,4.66-12.89,11.55-17.68a29.76,29.76,0,0,1,20.8-5.38c-.1-10.48,11.76-21.17,19.8-26.18,6.17-3.84,12.69-4.24,19.11-2.87a7.68,7.68,0,0,1,.71-1.64C469.17,1.92,486,.32,501.88,0c12-.23,26.07,2.18,33.8,11.86a7.89,7.89,0,0,1,1.45-2.39c5.65-6.05,17.84-4.17,25-2.83,9.73,1.84,26.35,11.14,26.91,22.84a22,22,0,0,1,14.41,5.63c6.21,5.76,11.64,12,13.69,20.45,1.72,7,1.42,15.59-3.89,21-4.15,4.24-9,9.39-15.08,9.79.55.65,1.08,1.32,1.59,2a89,89,0,0,1,4.76,8.19c2,3.41,4.39,6,5.88,9.72a26.68,26.68,0,0,1,2,9.75c.62,1.5,1.2,3,1.77,4.52a39.54,39.54,0,0,0-2.87,5.07c-.09-.28-.16-.55-.25-.82-2.44,7.38-8,13.82-15.12,18.13a41.08,41.08,0,0,1-14,5.13q-2.25,1.2-4.53,2.29l-2.17-.21c1.23-.54,2.47-1.07,3.69-1.65-9.12,1-18.61-.82-25.87-6a41.59,41.59,0,0,1-14.54-20.64c-11.53,14.53-34.46,15.7-46.46-.7-11.19,4.58-44.74,16.59-51.58,9.26-2.16,4.42-6.13,8.36-9.3,11.68-10.43,10.86-26.77,9.06-34.81-3.71-.15-.26-.29-.52-.41-.78a34.67,34.67,0,0,1-27.45,1.19,36.7,36.7,0,0,1-6.18-2.91c0,.13,0,.26,0,.39-2.27-1.52-4.47-3.15-6.62-4.9Zm17-6.09c.1,0,.2.06.3.09a24.75,24.75,0,0,1-8.52-12.06c-2.09-6.45-2.17-16.67,4.06-20.89a.76.76,0,0,1,1,.33.85.85,0,0,1,.09.38c-.64,6.44-4,11.63-2.5,18.46,1.42,6.64,5.74,11.29,11.17,14.67,6.19.07,13.1-2.55,17.85-5.5,5.8-3.59,12.38,3.67,10.48,9a71,71,0,0,0,14.45,5.78,23.71,23.71,0,0,0,12.27-12.21c.25-.59,1.2-.3,1,.31A26,26,0,0,1,424.45,136a11.32,11.32,0,0,0,7.06-1.88c2.87-1.94,9.16-11.29,6.69-15-.34-.52.29-1.1.81-1,2.35.67,3.06,3,3.06,5.34,3.48-1.26,6.53-1.14,10.3-1.47a92.17,92.17,0,0,0,13.48-2.7c8.31-2.05,16.33-4,24.77-5,1.72-2.7,5.91-4.08,8.28-1,5,6.3,12.21,11.92,20.62,11.93a24.41,24.41,0,0,0,17.88-7.79A22.93,22.93,0,0,1,538,107c1.15-3.65,5.75-2.78,6.85.31,1.77,5,2.15,8.81,5.41,13.26a33.88,33.88,0,0,0,3.53,4.22c2.09.64,4.23,1.09,6.16,1.54,6.9,1.59,14.58,2.75,21.42.32,13.28-4.72,13.37-20.06,12.82-31.8,0-.48.7-.43.74,0,1.06,13.09.39,29.74-14.52,34.47-6.47,2.06-13.58,1.19-20.21-.26l.25.12c9.28,3.94,17.33,3.79,26.13-1.52a27.24,27.24,0,0,0,13.6-21.29c1.07-10.76-6.15-21-16.17-25.09-2.5-1-1.25-5,1.31-4a30.52,30.52,0,0,1,9.79,6c5.7-1.81,9.65-3.81,11.72-8.65-.05-.19-.1-.38-.14-.57a.12.12,0,0,1,.11-.14A.12.12,0,0,1,607,74l0,.22A18.42,18.42,0,0,0,608,71c1.23-6.26,1.63-11.63-1.38-17.55s-7.12-8.15-13.34-9.85c-4.59-1.25-8.2-.92-11.94-4.15-2.11-1.82-1.64-5.78.34-7.45a10.26,10.26,0,0,1,2.72-1.62c-1-4.73-2.57-8.86-7.1-12.32a18,18,0,0,0-8-3.38,2.82,2.82,0,0,1-1.13.89c-.41.18-1.08-.2-.84-.71.06-.13.11-.27.16-.41a33.46,33.46,0,0,0-9,.46,21.08,21.08,0,0,0-3,2.48A21.11,21.11,0,0,0,549,30a.54.54,0,0,1-.57.49.54.54,0,0,1-.5-.54,21.69,21.69,0,0,1,5.26-14.2c-3.58.61-7.61,1.53-9.41,3.25-3.65,3.5-1.91,10.44-6.28,14a1.41,1.41,0,0,1-2-.09C533,29.5,533.51,26.17,534,22c.17-1.44.26-3.16.46-4.9C528,4.94,513.1,1,500.1,3c-11.54,1.78-20.72,11.16-27.18,20.52,3,1.5,5.83,3.14,8.55,4.73,1.56.91,0,3.18-1.52,2.34a86.06,86.06,0,0,0-9.27-4.37,6.18,6.18,0,0,1-4.77,1.59,7.77,7.77,0,0,1-4.91-2.3,6.5,6.5,0,0,1-1.19-1.79A19.46,19.46,0,0,0,445,29.66c-3.16,3.08-7,6.71-9.08,10.56-2.56,4.64-1.79,10.12-4.58,14.69-1.55,2.52-6,3.24-7.89.64a14.71,14.71,0,0,1-1.82-3.27,21.57,21.57,0,0,0-13.72,2c-4.76,2.48-10.21,9.86-5.86,15.32,5.61,7-5.08,16.48-10.25,9.35a20.55,20.55,0,0,1-2.5-4.55c-8,.22-15.11,1.89-21.68,7.28-8,6.6-8.18,15.39-7.23,25.15C361.14,115,364.84,122,372.89,125.07Z"/><path id="Path_30175" data-name="Path 30175" class="cls-5" d="M578.23,150.74s-.07,0-.08-.06a.07.07,0,0,1,.05-.08.07.07,0,0,1,.09.05A.08.08,0,0,1,578.23,150.74Z"/><path id="Path_30176" data-name="Path 30176" class="cls-5" d="M573.56,109.69c-.12-.13-.21-.27-.32-.41a8.13,8.13,0,0,1-3.15,6.86c-3.53,2.89-8.1-.07-9.54-3.69-1.68-4.24.57-9,5.3-9.46a8.56,8.56,0,0,1,6.19,1.72c1.36,1.11,2.78,3,2.23,4.83a.42.42,0,0,1-.54.26A.45.45,0,0,1,573.56,109.69Zm-1.77-2.26a4.63,4.63,0,0,0-.58-.5,6.26,6.26,0,0,0-3.74-1.17c-2.58.14-4,2.65-3.61,5s2.07,4.35,4.64,4.07c3.37-.37,4.73-4.66,3.28-7.39Z"/><path id="Path_30177" data-name="Path 30177" class="cls-5" d="M555.4,54.64a6.24,6.24,0,0,1-4.68-7.49c0-.07,0-.14,0-.2,1-3.24,4.84-5.87,8.23-4.7a1.77,1.77,0,0,1,1.08,2.12c2.24,1,3,3.86,2.32,6.2A6,6,0,0,1,555.4,54.64ZM561,49.7a5.79,5.79,0,0,0-1.2-4.69,1.46,1.46,0,0,1-1.41.63c-1.79-.18-3.48.37-4.2,2.2s.64,3.34,2.37,4C558.57,52.57,560.44,52,561,49.7Z"/><path id="Path_30178" data-name="Path 30178" class="cls-5" d="M456.68,83.37c6.07,1.84,11.08,10.58,4.89,15.4a.87.87,0,0,1-.57.16,11.64,11.64,0,0,1,.14,1.67c0,1.39-.11,1.48-1.46,2.42a12.59,12.59,0,0,1-7.94,2c-6.45-.3-11-6.82-9.87-13C443.08,85.1,450.13,81.38,456.68,83.37Zm-4.48,19.12c1.81.56,5,.43,6.45-.92s0-4.85.27-6.78a.43.43,0,0,1,.49-.37.3.3,0,0,1,.16,0c-.67-2.52-1.87-4.8-4.67-5.63-3.64-1.08-6.83,1-7.77,4.57a7.18,7.18,0,0,0,4.73,9Z"/><path id="Path_30179" data-name="Path 30179" class="cls-5" d="M418.36,93.27c2.44.8,4.63,3.26,4,5.83a5.73,5.73,0,0,1,.07.58c0,.64-.12.83-.66,1.26a4.47,4.47,0,0,1-3.47.81c-2.4-.37-5-2.21-5.49-4.69C412.17,93.8,415.68,92.39,418.36,93.27Zm.29,7.38a4.08,4.08,0,0,0,2.13-.25,1.29,1.29,0,0,1-.88-1.18,3.28,3.28,0,0,0-2.24-3.33c-1.43-.55-3-.23-2.68,1.53A4.23,4.23,0,0,0,418.65,100.65Z"/><path id="Path_30180" data-name="Path 30180" class="cls-5" d="M387.65,94.9a8,8,0,0,1,6.25-2.73,6.75,6.75,0,0,1,6.71,6.77V99a.69.69,0,0,1,1.26.35,8.18,8.18,0,0,1-6.59,8.39c-4,.63-7.88-2.69-8.7-6.55C386.11,99,386.08,96.68,387.65,94.9Zm3.05,6.92c1.62,4.32,6.45,4,8.69,1.08a1.75,1.75,0,0,1-2.31-.91,1.68,1.68,0,0,1-.15-.69,3.76,3.76,0,0,0-3.74-3.46,2.92,2.92,0,0,0-2.68,3.15A2.58,2.58,0,0,0,390.7,101.82Z"/><path id="Path_30181" data-name="Path 30181" class="cls-5" d="M533.92,101c-5.93,5.54-14.47,9.91-22.75,8.57-6.87-1.11-14.67-7.21-16.64-14.09a.65.65,0,0,1,.51-.76.67.67,0,0,1,.46.08c9.75,6.67,26.26,12.51,37,4.67C533.58,98.71,534.91,100.07,533.92,101Z"/><path id="Path_30182" data-name="Path 30182" class="cls-5" d="M473.22,48.8c7-4.47,16.31-2,21.7,3.78,2.93-3.51,8.74-5,13.54-4.34,7,1,17.59,5.19,16.47,13.88-.16,1.26-2.11,1.2-2-.09.52-5.71-4.92-8.18-9.81-8.29-3-.06-7.11-.62-10,.34-1.87.63-3.33,1.83-3.5,3.82-.08,1,.51,1.76.39,2.72a3,3,0,0,1-1.74,2.73,3.68,3.68,0,0,1-2.71.08,4,4,0,0,1-3.7-1.73C488.12,56,481.8,53,475.12,55.64c-7.61,3-6.68,9.7-6.42,16.38a.74.74,0,0,1-.8.69.73.73,0,0,1-.49-.23C461.35,66.21,466.82,52.88,473.22,48.8Z"/></g></g></g></g></svg>