<svg xmlns="http://www.w3.org/2000/svg" viewBox="0 0 267.68 290.55"><defs><style>.cls-1{fill:#b69564;}</style></defs><g id="圖層_2" data-name="圖層 2"><g id="圖層_1-2" data-name="圖層 1"><path id="Path_55352" data-name="Path 55352" class="cls-1" d="M0,151l1.42,1.43,1.43,1.42-1,.76c-1.12.84-1.23,2.6-.45,7.44.8,5,3.72,8.79,7.52,9.81,1.91.51,2.32.9,1.5,1.41s-.43,2.88.94,5.84c1.15,2.49,1.65,3.09,3.14,3.81a10.08,10.08,0,0,0,3.83.85h2.06l-.29,1.4c-.56,2.65-2.06,10.4-2.4,12.33-.18,1.06-.62,3-1,4.28a117.63,117.63,0,0,0-3.11,16.08c-.1.95-.39,3.07-.63,4.72-.73,4.93-1.15,13-.8,15.2.68,4.3,3.53,8.4,7,10,.88.42,1.48,1,1.33,1.2A17.19,17.19,0,0,1,17.05,251a10.83,10.83,0,0,0-3.43,2.22c-.47,1.17-.61,7.07-.22,9.8.36,2.57,2.52,6.72,5.12,9.84s10.48,8.85,12.91,9.35c.82.18,2.31.58,3.3.9,2.18.72,8.45.62,9.22-.14a2.07,2.07,0,0,1,1.27-.53,12.49,12.49,0,0,0,3.56-2.12l2.8-2.12,1.32,1.64a19.87,19.87,0,0,0,3.29,3.06l2,1.41,5-.07a56.41,56.41,0,0,0,6.23-.34c1.19-.26,6.26-2.77,17.48-8.68,2.76-1.45,5.12-2.64,5.25-2.64s.24.36.24.81c0,1.14,3,5.47,5.46,7.88a11.42,11.42,0,0,0,9.18,3.17c1.89-.22,2-.17,2.22.94.31,1.54,1.79,3.08,4.15,4.31a6.22,6.22,0,0,0,4.48.74,6.94,6.94,0,0,0,2.8-.67,2.61,2.61,0,0,1,1.38-.6,19.42,19.42,0,0,0,3.38-1.28l2.26-1.08.79,1c1.6,2,6.31,3.53,7.47,2.37a7.28,7.28,0,0,1,2.86-.62c2.25-.18,4.09-.79,4.6-1.54a8.22,8.22,0,0,1,1.9-1.11c1.46-.7,1.77-1.1,2.31-3.05s.74-2.24,1.74-2.19c2.7.13,3.88-.14,5.7-1.34s2-1.45,2.43-4a29.19,29.19,0,0,0,.5-4.07c0-1.26.07-1.31,1.1-.92a7.2,7.2,0,0,0,2.15.42c.57,0,1,.16,1,.36s.81.56,1.82.8a42,42,0,0,1,4.18,1.42c3.47,1.43,11.6,4.13,17.15,5.7l4.85,1.37a24.83,24.83,0,0,0,12.55-.2c3.37-.86,4.07-1.21,5.86-2.94a8.5,8.5,0,0,0,2-2.54c0-.94,1.07-.61,2.34.72s4.7,2.66,8.1,3.23a64.31,64.31,0,0,0,10.66,0c1.93-.18,7.7-2.57,8-3.32a.34.34,0,0,1,.46-.17.18.18,0,0,1,.07.05c.22.13.4.06.4-.17s.5-.53,1.1-.68a12.71,12.71,0,0,0,2.85-1.38c2.37-1.5,9.15-8.31,9.55-9.61a9.4,9.4,0,0,1,1.13-2.18c1.8-2.56,3-12.85,2.11-17.62a7.13,7.13,0,0,0-2.3-4.54,14.8,14.8,0,0,0-3.72-2.71l-1.93-.86,1.07-.82c.59-.45,1.8-1.35,2.69-2a10.42,10.42,0,0,0,3.7-6c.23-.9.93-3,1.55-4.65a13,13,0,0,0,1.06-5.36c0-1.3-.07-3.42-.05-4.72,0-3.13-1.2-8.9-2.17-10.05a2.88,2.88,0,0,1-.34-1.52,4.18,4.18,0,0,0-.58-2,22.94,22.94,0,0,1-2-5.75,10.17,10.17,0,0,0-.82-2.28,18.56,18.56,0,0,1-1.13-3.32,38.63,38.63,0,0,0-2.39-5.76c-1.57-3.2-2-4.35-1.56-4.6a2.24,2.24,0,0,1,.81-.35,44.35,44.35,0,0,0,4.11-3.76c3.94-3.84,6.13-6.5,6.13-7.44a2.52,2.52,0,0,1,.67-1.28c.42-.46.76-1.92.92-3.89.17-2.27.43-3.26.93-3.54a10.45,10.45,0,0,0,3.87-5,31.4,31.4,0,0,0,.75-6.1c.17-4.76-.29-6.19-2.42-7.44-1.55-.92-1.62-1.34-.31-1.83s2-1.36,2.94-3.41c.4-.86.74-1.61.76-1.68a35.52,35.52,0,0,0-3.3-6.36,8.52,8.52,0,0,0-2.47-1.64c-.94-.41-2-.92-2.45-1.13a5.94,5.94,0,0,0-2.25-.4,5,5,0,0,1-1.5-.11c0-.06.34-1.08.76-2.25a8,8,0,0,0,.54-3.27,11.91,11.91,0,0,0-3.2-4.73c-1.16-1.1-5.26-2.61-7.32-2.7l-1.72-.08.11-1.68a58.26,58.26,0,0,1,1.43-8.4c.23-.87.6-2.9.81-4.5a121.46,121.46,0,0,1,2.14-12.58,17.5,17.5,0,0,0,.64-2.36c.14-.7.35-1.76.47-2.35.19-.94.8-4.89,1.24-8.15.08-.59.39-3.48.68-6.43.53-5.4.52-5.56-.84-12a10.87,10.87,0,0,0-2.56-5,17.8,17.8,0,0,0-2.5-1.37c-1-.46-1.82-1-1.8-1.18a6.35,6.35,0,0,1,1.64-1.63c2.53-2,3.77-3.87,5-7.55a18.67,18.67,0,0,0,.83-9.6c-.57-2.31-4.45-8.24-6.78-10.37A26.36,26.36,0,0,0,240,10.61l-3.63-1.76a24.32,24.32,0,0,0-8.75-1.78c-7.07.07-9.62.75-13.41,3.59-2.48,1.86-2.35,1.88-6.14-.72a15.2,15.2,0,0,0-6.3-2.59,15.49,15.49,0,0,1-2.49-.66,35.71,35.71,0,0,0-6.77-.41,40.89,40.89,0,0,0-10.17,1c-9.62,2.17-9.73,2.2-17.7,5.77l-2.9,1.3L161.2,13a12.93,12.93,0,0,0-2.14-3.09,10.06,10.06,0,0,1-1.56-2,7,7,0,0,0-2-1.5c-1.85-1.09-2.45-1.2-6.5-1.25-3.88,0-4.49-.16-4.58-.8C144,2,141.14.67,136.43.67h-3.52L131.06,2.6a9.25,9.25,0,0,1-2.21,1.93,2.82,2.82,0,0,1-1.19-.92C126.4,2.2,123,1,118.54.43A7.2,7.2,0,0,1,116.72,0a3.8,3.8,0,0,0-2.06.7c-1.59.9-2.24,1.88-3.47,5.28-.4,1.11-.52,1.18-1.19.62a19,19,0,0,0-5.68-2.42A8.9,8.9,0,0,0,99,4.53a26.85,26.85,0,0,1-2.57,1c-1.53.51-1.8.83-2.54,2.89-.45,1.28-.86,2.37-.9,2.43a25.17,25.17,0,0,1-3.39-1,44.59,44.59,0,0,0-9-2.16c-1.18-.16-3.07-.43-4.2-.61a139.06,139.06,0,0,0-17.08.12,31.44,31.44,0,0,0-7.67,2.07c-1.55.8-3.43,2.26-3.43,2.67A6.33,6.33,0,0,1,47,13.4,10.56,10.56,0,0,0,45.35,16c-.65,1.55-1.37,1.8-1.79.65-.36-1-1.77-2.3-3.7-3.49a7.92,7.92,0,0,0-4.44-1c-5.48-.12-9.65.95-13.63,3.47C19.16,17.3,9.41,27.31,8.37,29.41s-1.75,7-1.54,10.5c.26,4.38,1.5,7.05,4.77,10.33C14,52.67,14.05,52.68,13,53.08a10,10,0,0,1-1.28.41c-.88.07-1.87,1.13-2.67,2.84a33,33,0,0,1-1.89,3.52c-1.4,2.18-2,6.31-1.69,11.54A33.8,33.8,0,0,0,6,76.21c.33.54,3.12,11.33,3.62,14a47.39,47.39,0,0,0,1.23,4.72c.43,1.34,1,3.21,1.23,4.15l1.39,5.36c1,3.69,4.1,13.31,4.79,14.68.34.68.15.73-2.12.49-2-.21-2.6-.12-3.06.43a1.91,1.91,0,0,1-1,.7,5.67,5.67,0,0,0-1.86,1.08c-2,1.54-4.08,6.06-4.26,9.36-.09,1.65-.35,2.69-.7,2.8a3.15,3.15,0,0,0-1.89,2.35,2.72,2.72,0,0,1-.67,1.37.52.52,0,0,0-.1.7.77.77,0,0,1-.33.94c-1,.74-1.67,3.56-1.94,7.78L0,151Zm4-4c0-.38,0-.83.1-1.39a14,14,0,0,1,.65-3.32c.21-.41.65-1.33,1-2a5.43,5.43,0,0,1,1-1.58c.61-.44,3,1.12,6.88,4.52a21.52,21.52,0,0,1,3.58,3.62q.15.63-.42.27c-1.14-.71-7.44-1.79-8.19-1.4-1.17.6-.14,2.37,1.54,2.64,2,.32,5.42,1.62,5.42,2.06,0,.21-.66.38-1.47.38a8.58,8.58,0,0,0-2.66.45,8.9,8.9,0,0,1-3.37.17c-1.87-.23-2.33-.49-3.19-1.74A3.72,3.72,0,0,1,4,147Zm.24,10.69c0-.58.22-.81.74-1.15,1-.62,8-1.92,10.45-1.92s1.68,1.15-1.6,2.65-3.95,2.35-2.74,3.23a1.91,1.91,0,0,0,2.69,0l0-.05a1.37,1.37,0,0,1,1-.56,7,7,0,0,0,2.12-.46,4.77,4.77,0,0,1,1.78-.41c.33.33-1,2.88-2.36,4.38a16.76,16.76,0,0,1-6,4.07c-2,.75-3.53-.42-4.61-3.49a40.91,40.91,0,0,1-1.31-4.73,9.61,9.61,0,0,1-.2-1.51ZM9.1,69.77A19.53,19.53,0,0,1,12,59c2.18-3.29,9-4.76,11.42-2.48a6.67,6.67,0,0,1,1.11,8.09c-1,1.84-2.14,2.32-4.37,1.9-2-.38-2.69-1.26-2-2.61.3-.57.71-1,.88-.84.39.24,1.69-1,1.69-1.55,0-.22-.29-.4-.64-.4-.58,0-.84-.51-.7-1.4.11-.68-2.46-.28-3.5.55a8.35,8.35,0,0,0-2.24,4.5c-.18,1.9,3,4.8,5.68,5.24a3.37,3.37,0,0,1,1.65.6c.37.6,1.68.43,3.79-.47l2-.84v1.23c0,3.52.46,15.42.63,16.53.12.71.2,4.67.19,8.79s0,7.8,0,8.15h0c.15,2.66.25,32.65.11,33.67L27.49,139l-.6-1.71a11.57,11.57,0,0,1-.6-2.47c0-.41-.21-.75-.46-.75s-.34-.19-.2-.42a1.81,1.81,0,0,0-.28-1.39,7.28,7.28,0,0,1-.64-2.43,17.64,17.64,0,0,0-.74-3.43c-.35-1.09-1.3-4.1-2.13-6.69s-1.73-5.3-2-6-.45-1.14-.64-1.72c-.05-.23-.43-1.68-.83-3.21s-.79-3.1-.87-3.5c-.3-1.54-2-7.92-2.34-8.73-.42-1-1.44-4.93-2.39-9.06s-1.69-6.24-2.05-5.88c-.16.16-.29-.56-.29-1.6a26.18,26.18,0,0,0-.66-4.65,24.7,24.7,0,0,1-.66-5.55Zm.52,60.69c.09-2.54,1.15-4.51,3.59-6.65,1.77-1.56,3.09-1.57,4.74,0a3,3,0,0,0,1.39.82c.27,0,.62.53.77,1.18s.92,3.77,1.72,6.94,1.45,5.87,1.44,6a16.75,16.75,0,0,1-2.54-2.44A23.47,23.47,0,0,0,18,133.61a4,4,0,0,0-1,.49c-.75.47-.74.58.24,2.33a25.4,25.4,0,0,0,2.93,3.91c1.29,1.39,1.91,2.45,1.91,3.24s-.21,1.18-.47,1.18c-.47,0-2.33-1.79-4.13-4a3.25,3.25,0,0,0-1.58-1.17c-.8,0-5.36-4.62-5.87-5.94a10.85,10.85,0,0,1-.32-3.21Zm.47-91.68c0-3.29.8-6.83,2.28-9a59.09,59.09,0,0,1,10-10.2c4.44-3.2,10.34-4.62,14.46-3.46a6.21,6.21,0,0,1,3.61,2.66,12,12,0,0,1,1.64,2.4c0,.15-.4,1.34-.84,2.64s-.83,2.4-.83,2.45c-.05.35-2.72,1.4-3.53,1.39-1.64,0-3.78-2.3-3.78-4,0-.47.42-.67,1.42-.67,1.57,0,2.45-.64,2.45-1.79s-1.66-2-3.48-1.87c-3.3.17-4.68,3.51-3,7.29a5.05,5.05,0,0,1,.64,2.47c-.15.23-.95.32-1.8.18-2.49-.4-3.08.47-3.08,4.56,0,3-.09,3.34-.62,2.9-.76-.62-5.29-1.1-6.8-.71-2.44.6-4,6.3-1.93,6.84,1.21.32,1.51.1,1.84-1.33a6.21,6.21,0,0,1,.84-1.94c.51-.68.8-.71,2.54-.27,2.92.73,3.15,1.21,2.26,4.61-.82,3.1-2.54,6.42-3.52,6.79-1.94.75-7.2-2.37-9.35-5.53a12,12,0,0,1-1.45-6.4Zm3.83,136.08a3,3,0,0,1,.76-2.12c1-1.15,1.4-1.23,1.23-.21-.1.54.2.79,1,.88,1,.12,1.29-.13,2.3-2.27a17.46,17.46,0,0,1,2.17-3.52,4.19,4.19,0,0,0,1.06-2.23c0-1.2,1.24-3.55,1.86-3.64s.58,1,0,4l-1.17,5.93a13.18,13.18,0,0,1-2.24,5.51,10.94,10.94,0,0,1-2.24,2.6c-1.16.45-2.85-.56-3.82-2.26a6,6,0,0,1-.91-2.7Zm2,58.47a6.72,6.72,0,0,1,.17-2,16.69,16.69,0,0,0,.43-3c.58-7.41,2.16-18.85,3.06-22.08a92.36,92.36,0,0,0,2.53-12.55c0-.76.13-1.39.3-1.39s.47-.65,1.23-4.71a40.67,40.67,0,0,1,1.05-4.08,15.54,15.54,0,0,0,.7-2.94,6.72,6.72,0,0,1,.61-2.14,25,25,0,0,0,1.32-6.28c.09-1.6.76-4.3,1.11-4.53s.42.35.45,1.07.1,1.85.14,2.49.26,6.3.45,12.55c.33,10.53.37,16.63.23,33.14,0,3.48,0,6.47.07,6.64a40.21,40.21,0,0,1-.09,4.39c-.21,4-.23,4.07-1.26,3.95a3.57,3.57,0,0,1-1.76-.76c-1.15-1-3.37-1.09-5.6-.13s-2.94,2.16-2.63,4.78c.16,1.32.57,1.91,2.14,3.11,2.33,1.78,3.47,1.93,3.39.45,0-.57-.16-1-.28-1-.88,0-1.26-.26-1.66-1.39a3.7,3.7,0,0,1-.21-1.92c.32-.85,2.85-1.26,4-.65a6.11,6.11,0,0,1,2.59,5c0,1.49-.28,2-1.92,3.75s-2.16,2-3.53,2a6.3,6.3,0,0,1-2.57-.54c-1.32-.73-3.47-4.24-3.95-6.43a25.72,25.72,0,0,1-.5-4.8Zm.78,24.34c0-3.12.67-3.46,4.32-5.13,4.36-2,4.91-1.92,6.05.75,1.08,2.5.9,4.33-.51,5.32-.81.56-1,.56-1.69-.07a3.16,3.16,0,0,1-.77-2.3c0-1.39-.16-1.64-1.17-1.89s-1.36-.08-2.15.83c-1.22,1.43-1.23,2.72,0,4.52,2.08,3.05,4.44,3.78,7.58,2.36,1.65-.74,1.72-.73,2.93.12.84.6,1.42.76,1.85.49.82-.52,3.4-.52,3.4,0a3.84,3.84,0,0,1-1.07,1.48,3.48,3.48,0,0,0-1.07,2.37,11.42,11.42,0,0,0,2.32,6c2.7,3,7.38,2.92,8.16-.18a2.24,2.24,0,0,0-.21-1.72c-.42-.5-.68-.49-1.71,0-2.13,1.1-4-.08-4.49-2.87-.26-1.41-.16-1.65.93-2.35a15.77,15.77,0,0,0,1.75-1.29,6.88,6.88,0,0,1,2-1c2.22-.73,4.62.62,6,3.41h0c1.12,2.22,1.18,2.69.66,5.16a8.2,8.2,0,0,1-2.65,5c-4.88,4.65-13.35,4-20.14-1.44A16.42,16.42,0,0,0,23.79,273c-.27,0-.81-.53-1.22-1.18a27.87,27.87,0,0,0-2-2.61,18.77,18.77,0,0,1-3.75-8.86c-.05-1.07-.1-1.93-.11-2.66Zm3.35-107.32c0-1,.1-1.73.24-1.73a2.68,2.68,0,0,0,1.12-.82,4.51,4.51,0,0,1,1.9-1.11c1.1-.27,1.14-.21,1.6,2.47.6,3.41.63,8.76.06,9.11-.24.14-.89-.23-1.45-.83a3.39,3.39,0,0,0-1.49-1.1c-1,0-1.83-2.1-1.95-4.89,0-.39,0-.76,0-1.1Zm4.47-97.13a3.45,3.45,0,0,1,.87-1.94h0l.84-1.07v1.86c0,1.53-.11,1.82-.67,1.61a4.92,4.92,0,0,0-.85-.26c-.11,0-.18-.07-.19-.2Zm3,194.71,1.07-1.06c.59-.59,1.18-1,1.3-.84.36.36.67,4.07.36,4.38-.15.15-.83-.35-1.5-1.1Zm.66-81.87c0-.17.09-.28.23-.28s.42.28.42.64-.08.64-.17.64-.28-.29-.41-.64a.92.92,0,0,1-.07-.36ZM29.91,42.5a82.51,82.51,0,0,1,.2-9.17c.15-.23,12.33-.52,29.2-.69,15.92-.16,30.2-.37,31.73-.46,12.34-.72,23.81-.91,37-.59,4.91.12,9,.06,9.14-.13a.47.47,0,0,1,.65-.08c.49.3,9.18.25,10.74-.07,1-.19,5.65-.5,12.56-.84L170.8,30c7.49-.37,32.26-.37,40.31,0,3.19.15,8.39.36,11.57.48,4.1.15,5.94.38,6.36.8a7.51,7.51,0,0,1,.78,3.29,9,9,0,0,0,.66,3.28c.31.37.53,3.75.62,9.46.07,4.89.24,12.36.37,16.61s.23,10.76.22,14.47.14,6.76.32,6.76.36,2.75.39,6.11.21,10.93.4,16.83.33,11.39.3,12.22c-.17,7-.17,11.15,0,11.44.59,1,.94,13.32,1.4,48.6.12,9.08.24,17,.26,17.58s0,2.71,0,4.72c-.06,5.34-.06,5.27.44,5.87.29.35.34,1.44.14,3-.46,3.65-.62,42.52-.17,42.8a.86.86,0,0,1,.38.66c0,.24-.19.32-.43.17s-.42-.08-.42.15h0a.66.66,0,0,0,.45.57c.25.09.33.28.18.43a12.49,12.49,0,0,1-3.56,0c-1.81-.16-5.32-.26-7.8-.22-20,.26-32.18.55-32.52.75a15,15,0,0,1-3.13.49,25.53,25.53,0,0,0-3.37.47c-.35.13-5.66.32-11.79.42-16.7.3-25.28.5-25.52.58s-10.15.05-22.3,0-25.46-.05-29.59,0c-8.56.06-9.93.05-21.54-.18-4.66-.1-8.65-.28-8.85-.41s-9.42-.27-25.95-.21a16.7,16.7,0,0,1-4.57-.33,10.16,10.16,0,0,1-.56-3.13c-.76-9.54-.91-15.75-.86-34.82,0-17.12-.05-21.35-.5-21.52s-.46-.63-.14-2.06c.45-2,.17-15.91-.33-16.73a31.68,31.68,0,0,1-.39-5.67c-.05-2.85-.23-6.82-.4-8.83s-.37-6-.44-9c-.16-6.18-.18-6.92-.15-7.5,0-.24,0-2.75,0-5.58v-7.08c0-5.89.05-7.83.07-15.87.05-12.37-.32-33.87-.58-33.87a9.69,9.69,0,0,1-.23-2.89c0-1.6-.07-6.37-.14-10.62-.06-4.46.06-8.17.31-8.79s.44-.83.46-.35c0,.88,1.62,2.06,2.75,2.06a3.38,3.38,0,0,0,2.42-2.31c0-1.73-3.1-2.68-4.62-1.43-.39.31-.7.31-1,0s-.56-11-.6-19.19ZM31.43,51a2.36,2.36,0,0,0,2.36,2.36,2.39,2.39,0,0,0,.83-.15c1.37-.34,1.5-2,.24-3.26-1.55-1.55-3.43-1-3.43,1Zm1.11,71.56a1.44,1.44,0,0,0,.31.9c.68.93,3.37,1.56,4.34,1,.49-.28.68-.83.59-1.73a1.67,1.67,0,0,0-1.33-1.73c-2-.65-3.89.29-3.91,1.54Zm0-82.49c0,.4.27.73.94,1.38,1.3,1.27,2.86,1.27,3.2,0a2.3,2.3,0,0,0-.4-2.57,2.14,2.14,0,0,0-3-.17,2.08,2.08,0,0,0-.7,1.37Zm.14,36.69a2.63,2.63,0,0,0,.89,1.58c1,1,1.39,1.1,2.51.78,1.29-.37,1.32-.35,1.37,1.2,0,.87.1,2.26.16,3.08.46,6.94.54,6.59-1.48,6.32-2.19-.29-3.15.38-2.85,2,.26,1.45,1.83,3.25,2.82,3.25a1.86,1.86,0,0,0,1.74-1.91c0-.74.07-.78.41-.2.22.38.49,8.66.6,18.44s.21,17.8.23,17.85a1.6,1.6,0,0,0,.78-.14c.66-.21.65-.16,0,.43s-.81,1.29-.78,7.64c0,3.84.16,10.46.31,14.7.64,18.18.95,45.29.71,63a36.37,36.37,0,0,0,.23,6.43,11.77,11.77,0,0,1,.41,3.07c.23,5.77.47,8.24.88,9a4,4,0,0,1,.31,1.9,34.92,34.92,0,0,0,.72,5.58,38.62,38.62,0,0,1,.72,7.27c-.12,2.51,0,2.82.82,3.26.64.31,3.84.43,9.65.33,10.74-.17,44.86-.25,55.87-.14,7.74.08,21.29.14,26.37.11,11.48-.06,34.81-.54,35.09-.71.45-.28,21.48-1.88,25.77-2a22.19,22.19,0,0,0,3.46-.23,49.78,49.78,0,0,1,5.17-.41c10.62-.53,20.83-1.6,22.21-2.34a2.72,2.72,0,0,0,.56-3.65c-.45-.45-.66-1.71-.71-4.32-.08-3.75.35-5.12.86-2.8.24,1.11.48,1.3,1.66,1.3,2.55,0,3.23-1.87,1.25-3.43a2.81,2.81,0,0,0-1.82-.73c-2.07.59-1.94,1.28-2-11.07-.05-6.36-.18-13.12-.3-15s-.32-8.06-.46-13.72-.35-13-.47-16.4a37.77,37.77,0,0,1,0-6.11,3.52,3.52,0,0,1,1,.43c1.63.86,3.85.86,4.72,0h0c2.06-2.06-1.67-5.26-4.2-3.6-.56.36-1.1.57-1.2.47-.59-.59-.75-4.89-.79-21.32,0-10-.21-20-.41-22.08l-.36-3.86,1.05,1c2,1.85,4.11.86,3.61-1.67-.39-1.92-1-2.51-2.69-2.51-1.12,0-1.55.22-1.82,1-.34.92-.36.92-.61.11s-.38-3.83-.95-20.79c-.13-3.89-.33-7.75-.45-8.58s-.29-5.26-.4-9.86-.27-9.9-.39-11.8-.34-6.42-.49-10.07a65.88,65.88,0,0,0-.5-7c-.42-.69-.4-9.06,0-9.75a1.39,1.39,0,0,0,0-1.47c-.42-.76-1.11-.8-11.32-.72-15.72.12-30.7.47-36.51.84a26.67,26.67,0,0,1-5.36,0c-.32-.29-11.26-.77-18.07-.78h-4l.9-1a5,5,0,0,0,1-2.47c.12-1.29,0-1.52-.85-1.64A2.4,2.4,0,0,0,144.6,35a2.37,2.37,0,0,0,.25,1.43c.33.63.46,1.21.3,1.31-.72.43-4.23.73-10.37.91-7.54.21-16.35.6-23.59,1-2.71.17-11.1.24-18.65.17s-16.13.06-19.08.32-8.16.54-11.58.64-7.18.27-8.36.38c-6.3.59-7.5.75-9.87,1.29-1.41.32-3.29.7-4.16.85a3.8,3.8,0,0,0-1.86.69c-.25.41-.46,22.06-.21,22.92s0,9-.27,8.46c-.11-.29-.84-.53-1.6-.53-1.88,0-2.93.85-2.83,1.93Zm.11,31.65c.06,2.4,3.68,2.72,4.3.08.37-1.58.3-2.16-.34-3.08s-.8-.86-1.92-.44c-1.32.5-1.68,1-2,2.93a2.92,2.92,0,0,0,0,.51Zm.63,31.42a2.9,2.9,0,0,0,.53,1.22c1.11,1.75,2.26,2.11,3.4,1a2.49,2.49,0,0,0,.27-3.51l0,0c-.82-.82-1.6-.85-2.87-.14-.94.52-1.34.89-1.3,1.43Zm.14,14.47c0,.61.49,1.2,1.53,1.6A2.22,2.22,0,0,0,38,154.68v0c.1-.36.2-.78.23-.94.09-.5-1.2-1.57-1.76-1.47-1.86.33-2.89,1.23-2.88,2.11Zm.4,60.72c0,.86,1.18,2.6,1.76,2.6.24,0,.34-.16.22-.35s.2-.34.7-.32a1.7,1.7,0,0,0,1.47-1c.67-1.3.66-1.16.12-2.18-.86-1.6-4.27-.57-4.27,1.29Zm0-45.19c0,.34.13.55.5.82a1.7,1.7,0,0,1,.73,1c0,.72,1.55.6,2.33-.18a2.66,2.66,0,0,0,.27-3.15c-.61-1.13-3-.67-3.58.7a2.73,2.73,0,0,0-.25.78Zm.05,29.36a2.76,2.76,0,0,0,.57,1.47c.94,1.44,2.86,1.5,3.52.14s.62-2.69-.24-3.47-.89-.64-2.25,0c-1.09.54-1.6,1.1-1.6,1.81Zm.48-12.9a2.1,2.1,0,0,0,.05.43c.43,1.91,2,2.19,3.6.66,1.33-1.25,1.44-1.84.52-2.94-1.42-1.72-4.25-.31-4.17,1.84Zm.22,43.16c0,2,3.12,3.24,4.17,1.13.51-1,.33-2.94-.33-3.35-.89-.55-3.14.28-3.63,1.33a1.92,1.92,0,0,0-.2.88Zm1.89,12.77a2.22,2.22,0,0,0,.93,1.24c.94.69,1.1.69,1.71.08s.9-2.56.24-3-2.75.74-2.88,1.5Zm.8,11a3.55,3.55,0,0,0,0,.46,4.78,4.78,0,0,0,.46,1.52c.36.57,2.8.31,3.65-.4a2,2,0,0,0,.43-1.56,1.18,1.18,0,0,0-1.12-1.24h-.12a2.06,2.06,0,0,0-1.64.51A1.15,1.15,0,0,1,38,253c-.35-.14-.52-.06-.53.31Zm3.4-195.7c0-3.52.06-6.14.15-6.94.58-4.7.78-4.91,4.56-4.93A4.9,4.9,0,0,0,48,45.3c.23-.23,3.6-.51,7.48-.64s7.51-.31,8-.42,4.48-.32,8.79-.46,8.22-.38,8.68-.52,6.45-.21,13.3-.16c16.6.12,21.88,0,26-.76a8.65,8.65,0,0,1,4.23-.06c.41.12,6.23-.06,11.16-.34s27.36-.19,27.86.12,7.79.25,12.66,0c2.36-.13,12.54-.3,22.62-.39,13.62-.11,18.34,0,18.38.35s.1,1.45.16,2.63a15.42,15.42,0,0,0,.34,2.79,48.84,48.84,0,0,1,.52,5.79c.16,2.83.35,6,.43,7.08s.28,5.69.43,10.29c.45,14,.54,15.78.82,16.23a.54.54,0,0,1-.2.72.82.82,0,0,0-.2,1,57.72,57.72,0,0,1,.46,6.71c.12,3.31.3,7.47.42,9.23s.3,5,.42,7.29c.3,5.82.52,8,.86,8.6.46.75.64,6.92.83,27.64.09,10.38.28,22.15.43,26.16s.36,11.44.47,16.51.3,10.76.42,12.65c.34,5.54.47,39.67.15,39.67-.16,0-2.19.19-4.52.42-8.8.89-7.63.8-19.23,1.55l-6,.38c-.94.06-2.68.23-3.86.39s-4.26.36-6.86.49a106.38,106.38,0,0,0-12.22,1c-1.77.25-7.17.45-12,.43-6.62,0-49.46.31-52.1.41-.24,0-3.32-.16-6.86-.38s-11.26-.3-17.15-.18-16.29.25-23.08.29c-13.68.07-13.14.18-13.15-2.76a48.54,48.54,0,0,0-.91-6,67.24,67.24,0,0,1-1.06-6.8c-.24-3.85-.58-7.34-1-10.07-.21-1.42-.27-8.75-.13-16.3s.23-15.36.21-17.37c0-6.11-.54-25.74-.74-29.16-.1-1.77-.3-9.58-.45-17.37s-.35-16.65-.45-19.72-.26-11.36-.35-18.44-.29-13.64-.44-14.58c-.36-2.32-.69-21.07-.67-31.65Zm1.17-28.66a6.62,6.62,0,0,1,1.17-2.17c1.35-1.94,1.42-2,1.67-1a3.56,3.56,0,0,0,1.33,1.75c.59.38,1.07.85,1.07,1,0,.4-4.8.81-5.21.45a.16.16,0,0,1,0-.09Zm1.53,8.6a1.62,1.62,0,0,0,.11.65c.25.66,2.72,1,3.29.41.14-.14,0-.67-.26-1.18a10.18,10.18,0,0,1-.5-1,5.58,5.58,0,0,0-.94-.34,1.41,1.41,0,0,0-1.67,1.07,2.19,2.19,0,0,0,0,.36Zm4-15.27c0-2.07,1.51-6.38,2.77-7.75,1.59-1.73,5-3,10-3.69,4.49-.63,7.57-.65,14.12-.07,1.65.14,4,.35,5.14.44a23.76,23.76,0,0,1,4.72,1.08c1.41.5,3.33,1.1,4.27,1.33a8.1,8.1,0,0,1,2.14.79,14.42,14.42,0,0,0,2.92,1.08,5.9,5.9,0,0,1,2.46,1.07c0,.19.53.47,1.18.62a86.06,86.06,0,0,1,10.16,3.31,2.86,2.86,0,0,0,1.56.37,2.43,2.43,0,0,1,1.65.61c.77.92,6.26,2.67,10.11,3.22,1.89.27,4.85.7,6.59,1,2.37.37,3.35.37,3.95,0s.88-.34,1-.07c.56.9,6.45.44,11.62-.91,2.8-.73,5.78-1.47,6.6-1.64a10.26,10.26,0,0,0,2.36-.8c.47-.27,2-1,3.43-1.62,2.33-1,13.09-6.15,14.9-7.09a3.89,3.89,0,0,1,1.53-.39,1.86,1.86,0,0,0,1.1-.31,4.11,4.11,0,0,1,1.75-.4,10.12,10.12,0,0,0,3.09-.88,12,12,0,0,1,4-.88,20.28,20.28,0,0,0,3.72-.49,31.71,31.71,0,0,1,6-.27c6.87.17,11.51,1.74,15.51,5.25h0c1.44,1.26,1.68,2.78.89,5.51-1,3.56-8.68,5.47-10.78,2.7L197,21.9a1.16,1.16,0,0,1-.26-.86c.06-.23.22-.95.37-1.6.21-1,.49-1.18,1.53-1.18s1.37.2,1.24,1.14c-.07.57,1.37,1.05,2.3.76,2-.64,2.19-2.89.3-4.7a3.46,3.46,0,0,0-3.28-1.16,5,5,0,0,0-4.89,3.18c-1.07,2.09-1,3.95.41,6.78.5,1,.92,1.9.92,1.91s-2.27,0-5,0-10.06.22-16.19.51-14.66.63-19,.74a71,71,0,0,0-8.24.47c-.44.27-21,.31-26.19.06-6.33-.32-13.72-.23-13.72.17a61.66,61.66,0,0,1-7.19.3c-11.2.14-30.85.49-34.41.61-1.77,0-4.66,0-6.43,0-2.73-.1-3-.18-1.88-.51,1.74-.51,4.88-3.9,4.88-5.28,0-2.06-4.48-5.84-7.61-6.41-1.13-.21-1.51-.08-2,.7-1.15,1.78-1.22,3-.23,4.18.82.95.9,1,.77.2-.2-1.19,2-1.44,3.09-.35.44.43,1.1,1,1.49,1.36.6.5.61.69.08,1.5-2.26,3.44-9.8,2.13-10.26-1.78a1.64,1.64,0,0,1,0-.38Zm.83,233.15a1.73,1.73,0,0,0,.26,1.11c.37.38,3.22-.64,3.46-1.24.36-.88.3-1.12-.46-2s-2-1.11-2.71-.2a4.43,4.43,0,0,0-.56,2.34Zm3.3,7c0-.38.52-.4,2.19-.39a20.88,20.88,0,0,1,2.37.1,19.43,19.43,0,0,1-1.74,1.28c-1.78,1.24-2.23,1.15-2.73-.49a1.71,1.71,0,0,1-.1-.5ZM54.07,273a11.48,11.48,0,0,1,.41-2.4,11.33,11.33,0,0,1,.94-2.79,2.37,2.37,0,0,0,.55-.91c.38-1,3.77-2.52,5.72-2.52a7.69,7.69,0,0,1,5.14,2.47c1,1.3,0,5.25-1.26,5.25-.31,0-.93-.69-1.38-1.52-.69-1.29-1-1.5-2.1-1.39s-1.3.33-1.4,1.41a5,5,0,0,0,.7,2.61c1,1.66,4.09,3.17,5.6,2.77s3.34-3.5,3.9-6.56c.39-2.07.34-2.71-.26-4a5,5,0,0,0-1.53-1.95c-1.78-.95-.68-1.24,4-1,5.7.25,15,.34,23,.22a46.81,46.81,0,0,1,5.92.13c.26.26.63,0-6.28,3.64-3.19,1.65-7.62,4-9.87,5.2s-5.13,2.7-6.43,3.3-3.83,1.84-5.63,2.75a21,21,0,0,1-9.94,2.76c-2.6.18-3.69.08-4.83-.46-.8-.38-1.46-.87-1.46-1.08s-.25-.38-.54-.39c-.72,0-1.95-1.75-2.64-3.73a4.78,4.78,0,0,1-.34-1.79ZM56.9,36.37c0,1.7,2.08,3.16,3.4,1.84.78-.78.53-1.81-.71-2.9s-1.86-1-2.43.12a1.94,1.94,0,0,0-.25.94Zm4.29,218.31a1.83,1.83,0,0,0,.23.68c.27.5.62.92.79.95,2.11.34,2.8.24,3.55-.5.89-.9,1-1.24.57-2.3s-3.68-.92-4.64.14a1.38,1.38,0,0,0-.5,1ZM70.52,36.56A2.29,2.29,0,0,0,72.67,39H73a2.43,2.43,0,0,0,1.77-.61c1.06-1.68-.6-3.59-2.9-3.32-.92.1-1.23.39-1.33,1.21a1.42,1.42,0,0,0,0,.29Zm5.06,217.53a2.92,2.92,0,0,0,.85,1.81c.66.71,1.13.83,2.33.61a2.75,2.75,0,0,0,1.7-.81c.7-1.71-.59-3.95-2-3.52-.26.08-1,.26-1.66.4A1.43,1.43,0,0,0,75.58,254.09Zm9.5-218.87A1.86,1.86,0,0,0,86,36.89a4,4,0,0,0,4-.27c1.42-1.18-.2-3.35-2.52-3.35a2.28,2.28,0,0,0-2.46,1.95ZM90,254.72a2.17,2.17,0,0,0,.68,1.4,2.06,2.06,0,0,0,2.25.81,3.4,3.4,0,0,0,1.8-1c.78-1,.75-1.17-.41-2.52-1-1.1-1.09-1.14-2.37-.6S90,254,90,254.72Zm6.62,18.82c0-.21.8-.75,1.79-1.18a19.93,19.93,0,0,0,6.14-5.53c.48-.83,8.68-2.53,11.38-2.36a4.75,4.75,0,0,0,2-.18c.67-.42,9.12-.08,14,.56a15.32,15.32,0,0,1,4.18.86c0,.45-3.42,3.17-5,4a6.88,6.88,0,0,1-2.47.71c-.6,0-1.1.17-1.1.38s-2.37.3-4.29-.06c-1.66-.32-3-1.43-5.29-4.29-1-1.29-2.31-1.54-2.7-.53a1.44,1.44,0,0,1-1.29.64,2.85,2.85,0,0,0-1.56.43c-.29.24-1.7,1.2-3.16,2.15-3,2-3.42,2.62-2.44,4.1.63,1,.76,1,1.42.4a2.53,2.53,0,0,1,1.17-.66,1.79,1.79,0,0,0,1-.68c1-1.21,5.07-3.59,5.71-3.35,1.22.47,1.1,1.58-.44,4.08-2.5,4.05-7,7.63-9.7,7.67-2.3,0-4.34-1.15-6.8-3.91a18.91,18.91,0,0,1-2.53-3.25Zm.1-262.93a3.82,3.82,0,0,1,.08-.75c.35-1.4,2.34-2.32,5-2.32s6.63,2,9.26,4.76c3.91,4.15,4.43,4.91,3.85,5.7-.75,1-2.16.48-1.58-.6.3-.57.21-1-.33-1.65-1.37-1.61-5-4.35-5.78-4.35-1,0-1,1.79.06,2.75a3.78,3.78,0,0,1,1,1.53c.23.88.46.94-5.91-1.5-1.65-.64-3.44-1.26-4-1.38a2.28,2.28,0,0,1-1.71-2.2Zm3.12,24.63a2.52,2.52,0,0,0,2.73,2.28,2.49,2.49,0,0,0,1.15-.41c.79-.42,1-.81.83-2-.16-1.71-1.42-3-2-2.11-.24.37-.34.38-.35,0,0-.87-1.6-.12-2.1,1a2.85,2.85,0,0,0-.26,1.26ZM103.9,254.6a2.49,2.49,0,0,0,2.5,2.49,2.55,2.55,0,0,0,1.39-.42c1.51-.8.63-3.84-1.1-3.84-1.43,0-2.79.86-2.79,1.77Zm8.75,28.83a1.68,1.68,0,0,1,.55-1.43,81.3,81.3,0,0,0,6.52-8.05c.32-.58.54-.63.93-.25s.33,1-.24,2.86c-.71,2.26-.71,2.4.06,3.46,1.13,1.56,2,1.21,2.59-1a17.65,17.65,0,0,1,.56-1.92,2.51,2.51,0,0,0,.22-.8c.18-.93.55-1.37.88-1s.59,6.82.32,7.54-3,2.41-5.27,3.15-5,.6-6.06-.32a3.22,3.22,0,0,1-1.06-2.16Zm.43-246.81a2.19,2.19,0,0,0,.19.74,2,2,0,0,0,3.65-.11c.62-1.18.49-2.23-.34-2.8-1.55-1.06-3.61.45-3.5,2.16Zm1.6-30.35a2,2,0,0,1,.67-1.83c.83-.76,1.59-.72,6.74.31a6.31,6.31,0,0,1,4.14,3.08c.46,1.21.54,4.15.11,4.57a2.24,2.24,0,0,1-1.24.28c-.7,0-1.34-.6-2.29-2.15A12.65,12.65,0,0,1,121.48,8c0-1-1.1-1.23-2-.48-1.65,1.34-2,2.89-1,4.59,1.84,3.12.74,3.08-1.68,0a7.65,7.65,0,0,1-2-4.61c-.05-.47-.08-.86-.09-1.19Zm3.15,247.55a2.32,2.32,0,0,0,.48,1.36c.84,1.29,3.3,1.49,4.53.36,1.86-1.68.56-3.45-2.37-3.22-1.71.14-2.6.66-2.64,1.5Zm.9-234.26a.12.12,0,0,1,0-.1,11.13,11.13,0,0,1,2-1.52c4.25-2.69,13.41-1.36,16.87,2.46,1.12,1.24,1.21,1.55.47,1.8a54,54,0,0,1-8.9-.24c-.59-.12-2.52-.43-4.28-.69-3.77-.56-6.17-1.23-6.2-1.72ZM128,35.1a2.59,2.59,0,0,0,.07.55c.16.63.4,1,.55.88s.52,0,.83.22c.82.68,2.43.14,3-1,1-2,.46-2.78-1.83-2.83a2.29,2.29,0,0,0-2.59,1.94,1.94,1.94,0,0,0,0,.24Zm1.52,241.7c0-2.41.66-2.8,1.37-.52,1.33,4.29,1.82,5.22,3,5.72,2.22.91,2.69-.19,1.27-2.93a9.3,9.3,0,0,1-.91-5.14c.06-.67,2.32.86,3.84,2.61a18.42,18.42,0,0,0,3.35,2.68c2,1.29,2.3,1.65,2.3,2.87s-.25,1.53-1.83,2.35c-2.45,1.29-7,2.4-8.4,2.05-1.59-.4-3.06-1.89-3.06-3.11a4.46,4.46,0,0,0-.39-1.75,14.74,14.74,0,0,1-.53-3.68c0-.42,0-.81,0-1.16Zm1.13-265.08c0-.26,0-.58.06-1a7.13,7.13,0,0,1,2.09-5c1-1,1.44-1.18,3.8-1.18a7,7,0,0,1,3.63.66,2.15,2.15,0,0,1,.94,1.4c0,1.61-3.75,7.8-4.68,7.8-.2,0-.18-.73,0-1.61a20.78,20.78,0,0,0,.5-2.47,3.55,3.55,0,0,1,.41-1.38c.22-.35,0-.62-.8-.81-1.28-.32-1.66.07-2.34,2.41s-1.41,3.12-2.69,2.53c-.73-.33-1-.56-1-1.34Zm2.12,242.75a2.85,2.85,0,0,0,.91,1.8c1.19,1.24,1.92,1.27,3.27.11,1.5-1.27-.7-3.91-2.82-3.38-.91.23-1.38.78-1.36,1.47Zm6.4-237.86a.65.65,0,0,1,.11-.29c.46-.63,5.3-6.68,5.79-7.24a7.28,7.28,0,0,1,2.57-.73,5.92,5.92,0,0,1,4.5.72,12.87,12.87,0,0,1,4,3.16q2.48,3,1.41,3.6C154.07,18,144.36,21.58,143.73,21c-.2-.2.71-1.57,2-3,2.37-2.66,2.8-4,1.36-4.3a4.11,4.11,0,0,0-2.24,1.29l-2.82,2.65-1.33,1.23-.9-1a1.72,1.72,0,0,1-.63-1.2ZM140.38,268c0-.55.7-.8,2.11-.64a34.55,34.55,0,0,1,6.22.9c.71.2,1.81.49,2.46.63,1,.23,1.12.37.67,1.08-.62,1,.08,2.05,1.5,2.25s1.29,2.48-.2,4.58c-.77,1.08-2.48,1.31-5.72.76-1.86-.31-6.29-2.84-6.59-3.76-.14-.41.08-.38.84.11a17.91,17.91,0,0,0,6.17,1.89,1,1,0,0,0,1-.72c.16-.85-1.65-2.91-2.76-3.13a9.76,9.76,0,0,1-4.36-2.17c-.89-.75-1.33-1.35-1.34-1.78Zm2.91-4.94c.07-.4,2.78-.58,8.21-.6,10.31,0,32.1-.93,37.3-1.52a44.22,44.22,0,0,1,6.09-.31l2,.15-2.12,2.3c-2,2.22-2.12,2.42-2.12,4.8,0,2,.2,2.73,1,3.67,1.27,1.47,3.51,1.76,4.16.55.32-.59.3-.82-.07-.82-1,0-3.38-2.19-3.38-3.15,0-1.35,3.71-5.17,5.63-5.8,1.33-.43,1.84-.38,3.56.36s2.14,1.16,3.27,3.65c2.18,4.8,1.3,9.17-2.09,10.44l-2,.75a11.59,11.59,0,0,1-3.53.79,30.58,30.58,0,0,1-10-1.06c-3.7-1-14.25-4.38-16.51-5.36a31.35,31.35,0,0,0-6.88-2.33,2.14,2.14,0,0,1-1.29-.4,28.45,28.45,0,0,0-4.91-1.68c-2.47-.7-5-1.47-5.66-1.72a38.44,38.44,0,0,0-4.72-1.1c-4-.73-6-1.26-6-1.61Zm4.42-8a1.92,1.92,0,0,0,1,1.5c1.14.74,3.15.53,3.74-.4,1.05-1.64-.72-4.08-2.5-3.45-1.49.53-2.27,1.46-2.24,2.35ZM160.5,35c0,.9,1.24,2,2.36,2.13,1.56.17,2,0,2.32-1a2.2,2.2,0,0,0-1.38-2.79,2.13,2.13,0,0,0-.9-.11c-1.5,0-2.4.65-2.4,1.74ZM162,254.24a2,2,0,0,0,1.24,1.94c1.06.51,1.31.49,2-.17a2,2,0,0,0-1.26-3.62,1.92,1.92,0,0,0-2,1.83v0ZM176,34.8a2.08,2.08,0,0,0,1,1.74c.77.51,1,.47,1.85-.32a2.41,2.41,0,0,0,.07-3.41,2.28,2.28,0,0,0-.34-.29c-1-.75-1.2-.69-2,.56a3.24,3.24,0,0,0-.57,1.73Zm.33,218.86c0,1.14.92,1.73,2.67,1.73,1.31,0,1.71-.19,2-1a2.73,2.73,0,0,0-.08-1.93c-.82-1.79-4.59-.84-4.59,1.16ZM189.05,33.82c-.05.35.15.68.64,1.31a2.76,2.76,0,0,0,2.71,1.14,4.58,4.58,0,0,0,2.22-.41c.64-.65.64-2.9,0-3.44-1-.82-4.54-.37-5.23.67a1.89,1.89,0,0,0-.34.73Zm1.47,218.69a3,3,0,0,0,.94,1.46,2.86,2.86,0,0,0,3.77.47,2,2,0,0,0,.32-2.78l-.18-.19a4.58,4.58,0,0,0-2.69-.15c-1.53.21-2.22.56-2.16,1.19Zm13.8-219a2.89,2.89,0,0,0,.07.72c.49,1.94,3.81,2.07,4.57.19.56-1.38.53-1.49-.61-2.24s-3.2-.67-3.8.28a2.11,2.11,0,0,0-.24,1Zm.44,218.55a2,2,0,0,0,.59,1.24,1.75,1.75,0,0,0,2.41.51l.26-.2a1.87,1.87,0,0,0-2-3.09c-.88.31-1.33.88-1.29,1.54Zm2.58,8.71s0,0,0,0a14.39,14.39,0,0,1,3.47-.1l3.23.13-1.66,1.89-1.67,1.89-1.79-1.8a6.69,6.69,0,0,1-1.59-2ZM208.53,26c0-.23.3-.42.65-.42s.64.19.64.42-.29.43-.64.43S208.53,26.21,208.53,26Zm4-3.07a2.48,2.48,0,0,1,.62-1.16,7.84,7.84,0,0,0,1.06-3.68c.2-2.4.33-2.66,2.33-4.5,2.5-2.3,4.74-3,9.31-3a25.16,25.16,0,0,1,17.71,7.17c2.45,2.53,3,3.39,4.61,7.09,1.32,3.06,1,8-.78,11.41-1.44,2.77-7,6.6-8.2,5.62a22.4,22.4,0,0,1-3-5.86,3.68,3.68,0,0,1,2.11-4.77,3.73,3.73,0,0,1,1.27-.25c2,0,3.13,2,1.78,3.14-.84.7-1.16,2.2-.51,2.44,1.57.6,4.55-1.76,4.52-3.58-.1-5.84-8.65-7.95-11.42-2.82-.94,1.76-1.28,1.8-1.28.15A3.9,3.9,0,0,0,229.38,27l-2.83-.15c-1.76-.08-1.84-.14-1-.61,2.84-1.6,3.61-4.91,2-8.46s-4.89-5-7.71-3.17c-.74.48-1,1-1,2.36,0,1,.15,1.68.32,1.59l1.54-.77a1.94,1.94,0,0,1,2.37,0,3.52,3.52,0,0,1,1.7,4.61c-.47,1.24-1.09,1.81-3,2.74-2.64,1.31-5.68,1.63-7.09.76A6.56,6.56,0,0,1,213,24.14a2.47,2.47,0,0,1-.51-1.24Zm.39,245.94a3.39,3.39,0,0,1,.1-.84c.33-1.3,3.4-4.73,5-5.54a5.36,5.36,0,0,1,4.73.37,7.59,7.59,0,0,1,2.1,3.94c0,.55-.37.66-1.82.56s-1.84,0-1.95.78c-.17,1.2,1.93,2.72,3.75,2.72,2.14,0,3.45-1.62,3.45-4.27,0-1.19-.17-2.16-.38-2.16s-.5-.47-.64-1a6.36,6.36,0,0,0-1.51-2.28l-1.24-1.25,6.39.19,6.39.19v-1a2.85,2.85,0,0,1,.85-1.83c.46-.42.74-.92.62-1.12a20.47,20.47,0,0,1-.33-5.63c.1-.18.63,0,1.16.32A12.67,12.67,0,0,0,243,252c2.18.44,2.55.4,3.86-.42,2.44-1.51,3-5.35,1-7-1.06-.89-1.26-.91-3.39-.32-1.57.44-1.61.5-1,1.39a2,2,0,0,0,1.21.94c.83,0,.75,1.67-.08,1.83a4.09,4.09,0,0,1-1.8-.3c-2.69-1-3.43-4.9-1.43-7.51,1.41-1.85,3.14-2.24,6.88-1.53,2.74.52,2.75.52,4.52,3.25l1.77,2.74-.13,3.76c-.2,5.76-.48,7.33-2,11.19-2.26,5.61-6,9.24-14.09,13.56-4.4,2.36-4.5,2.39-11.87,3-2.52.21-8.12-.83-9.65-1.81-2.27-1.44-3.79-3.93-3.78-6Zm3.35-17.59c0,.94,1.31,2.43,2.15,2.43a3.51,3.51,0,0,0,1.28-.53c1-.64,1.16-2.81.21-3.17a5.19,5.19,0,0,0-2.15,0c-1.18.22-1.5.48-1.5,1.23Zm5.33-215.89a1.51,1.51,0,0,0,.46,1.19c.83.83,3.19.87,3.7.06a2.44,2.44,0,0,0-.82-3.35,2.09,2.09,0,0,0-.4-.19,2.53,2.53,0,0,0-2.91,2.08l0,.22ZM223.54,47a7.48,7.48,0,0,0,.42,1.47,1.48,1.48,0,0,0,1.65,1.1,3,3,0,0,0,1.51-.29,2.94,2.94,0,0,0,.28-1.49c0-.92-.25-1.27-1-1.47-1.16-.29-2.82.11-2.82.68Zm.7,12a4,4,0,0,0,.49,1.84c.5,1,.77,1.18,1.74.93a2.86,2.86,0,0,0,1.46-.78c.85-1.33-.38-3.3-2.06-3.3-1,0-1.59.48-1.63,1.31Zm.17,47.11a5.57,5.57,0,0,0,1.55,1.31l1.55,1.06,1-1.19c1.18-1.37,1.24-1.7.41-2.39a2.69,2.69,0,0,0-3.72,0,4,4,0,0,0-.81,1.2Zm.86-31c0,.77.16,1.55.45,1.72a2.23,2.23,0,0,0,2.68-1c.46-1.74.28-2.18-1-2.46a3.14,3.14,0,0,0-1.72,0c-.29.18-.43,1-.43,1.73Zm.58,15a3,3,0,0,0,.7,1.89c1.09,1.53,1.8,1.62,3,.35s1.1-2.17-.28-2.81c-2-.91-3.31-.53-3.41.57Zm1.06,46.37a4,4,0,0,0,.93,2.26c.95,1,3.23,1.16,3.57.32a2.46,2.46,0,0,0-.55-2.87c-.69-.69-1.08-.76-2.25-.42-.77.22-1.46.4-1.52.4s-.18.11-.19.3Zm.1,113.19c0,.28.17.5.59.81,1,.76,2.66.8,3,.08s.32-1-.27-1.78a1.92,1.92,0,0,0-2.72-.09,2.37,2.37,0,0,0-.32.39,1.3,1.3,0,0,0-.23.59Zm.5-96.28a2.52,2.52,0,0,0,.63,1.14,2.74,2.74,0,0,0,3.38,1.18c2.2-.55.87-3.8-1.75-4.28a1.53,1.53,0,0,0-1.79.87c-.33.5-.49.79-.47,1.09Zm.63,46.45a2.37,2.37,0,0,0,.28,1.11,3,3,0,0,0,3.53,1.09c1-.38.71-2.26-.47-3.19-1.58-1.23-3.32-.48-3.35,1Zm.17-14.27c0,.18,0,.38,0,.6a4.09,4.09,0,0,0,.55,2.21,5.56,5.56,0,0,0,3.35-.17c.61-.38,0-2.81-.93-3.75a1.8,1.8,0,0,0-1.94-.52c-.9.23-1.08.4-1.05,1.63Zm.44,30.51a2.48,2.48,0,0,0,.69,1.56,1.81,1.81,0,0,0,3.37-1.26c-.1-.6-.2-1.21-.22-1.36s-.62-.51-1.33-.81c-1.15-.47-1.38-.44-1.92.27a2.47,2.47,0,0,0-.59,1.6Zm5.58-174.71c0-.29,0-.44.11-.37.7.7,1.5,3.38,1.09,3.64-.69.42-1-.07-1.15-2.06a9.8,9.8,0,0,1,0-1.21ZM234.8,52a4.21,4.21,0,0,1,.65-2.65c2-2.22,6.8-3.35,9.11-2.14a7.67,7.67,0,0,1,3.87,5.57,46.29,46.29,0,0,1,.33,12.44c-.17,1.18-.41,3.15-.52,4.37s-.54,3.93-.94,6-.74,4.11-.75,4.53-.17.75-.36.75-.34.76-.34,1.69a3.37,3.37,0,0,1-.37,1.92,7.72,7.72,0,0,0-.66,2.92c-.16,1.48-.56,4.14-.9,5.9s-.7,3.8-.8,4.5a12.51,12.51,0,0,1-.42,1.93,14.11,14.11,0,0,0-.43,2.15,56.32,56.32,0,0,1-1.6,8.44,18.16,18.16,0,0,0-.68,3.34,11.71,11.71,0,0,1-.57,2.8,39.71,39.71,0,0,0-1.07,5.53c-.68,4.63-1.24,6.9-1.69,6.9a74.3,74.3,0,0,1-.21-7.61c0-11.49-.38-27.9-.68-30.56-.21-1.89-.57-15.77-.69-26.58,0-3.3-.15-3.14,2.09-2.85,1.84.23,2.18.13,3.5-1,1.87-1.65,3.47-3.82,3.47-4.7,0-.7-2.9-2.39-3.34-1.95-.13.13-.12.24,0,.24s.07.56-.18,1.25a5.17,5.17,0,0,1-3.71,2.6c-1.19,0-2.13-3.2-2.14-5.71Zm2.84,129.22c0-14.19.16-20.15.52-19.93a1.3,1.3,0,0,1,.4,1,3.13,3.13,0,0,0,.63,1.58,3.35,3.35,0,0,1,.64,1.6,6.8,6.8,0,0,0,1,2.39,19.87,19.87,0,0,1,1.79,4.38c.41,1.52,1.86,5.37,3.2,8.55s2.89,7.14,3.42,8.79a42.77,42.77,0,0,0,1.6,4.26,8.57,8.57,0,0,1,.76,2.62,17.81,17.81,0,0,0,1.46,4.19,17,17,0,0,1,1.32,3.52,3.65,3.65,0,0,0,.4,1.44,16.85,16.85,0,0,1,.8,3.51,22.41,22.41,0,0,0,.69,3.43c.15.36.2.75.11.85a27,27,0,0,0-.4,4.1,18.31,18.31,0,0,1-1.55,7.07,20.67,20.67,0,0,0-1.33,3.83c0,.78-3,3.85-3.77,3.85a.49.49,0,0,0-.52.43c0,.23-.95.42-2.12.42-1.92,0-2.23-.14-3.28-1.51a7.33,7.33,0,0,1-1.3-3.11c-.08-.88-.24-2.15-.36-2.83a7.42,7.42,0,0,1,.27-2.89c.4-1.35.7-1.66,1.56-1.66,2.24,0,3.08,3.28,1.16,4.54-1.28.84-1.37,1.7-.24,2.3,4.12,2.21,6.92-4.62,3.54-8.64a8.2,8.2,0,0,0-2.53-1.92c-1.42-.59-3.55-.39-3.55.33,0,.21-.33.38-.74.38a3.06,3.06,0,0,0-1.7,1.18l-1,1.18-.07-2.79c0-1.53,0-3,0-3.17a79.29,79.29,0,0,0-.1-10.34c-.32-3.53-.8-17.12-.8-22.94Zm.5,52.18v-3.51l1.24,2.63a11.93,11.93,0,0,0,1.72,2.92,1,1,0,0,1,.47.6c0,.43-2.62,1.37-3.07,1.1a11,11,0,0,1-.36-3.74Zm1-90.87c0-1.76,0-3.56.19-5.26.32-3.71.38-3.86,1.54-4.27s1.37-.26,3.1,1.55a13.17,13.17,0,0,1,2.33,3.12c.5,1.3.5,7.82,0,10.1-.86,4.05-2,5.44-4.34,5.22-1.57-.15-1.61-.2-2.12-2.58a42.48,42.48,0,0,1-.73-7.88Zm2.14,14.82q.06-2,2.89,2.35a9.08,9.08,0,0,0,3.49,3.3c1.9,1,2,1,2.68.26,1-1.15.85-1.71-.81-2.5-.83-.4-1.5-.95-1.5-1.23a1.67,1.67,0,0,0-.59-1,3.74,3.74,0,0,1-.86-1.83,3,3,0,0,1,.85-2.81c.62-.82,1.37-1.37,1.69-1.25a44.07,44.07,0,0,1,4.2,3.26c2,1.67,3.7,3.37,3.78,3.78a7.28,7.28,0,0,1-1.39,5.43,8.63,8.63,0,0,0-1.26,2.05c0,.51-5.52,5.7-6.07,5.7s-6.66-12.16-7-14.26a5.78,5.78,0,0,1-.11-1.24Zm.32-29.13c0-2.84,1.5-10,2.2-10.48a2.62,2.62,0,0,0,.46-1.32,6.44,6.44,0,0,1,.9-2.24c1.34-2,4.75-1.27,6.92,1.57,1.24,1.62,1.3,2.35.42,4.77a21.17,21.17,0,0,0-.79,2.57,11.1,11.1,0,0,1-2.13,4.49c-.58.48-.64.09-.5-3.36s.07-3.9-.55-3.89c-1.13,0-2.81,1.51-2.53,2.25.45,1.17-1.75,6.75-2.66,6.75a3.83,3.83,0,0,0-1.06.26c-.55.21-.68-.06-.68-1.37Zm8.3,20.88a2.32,2.32,0,0,1,.11-.79c.36-1.53.4-1.57,1.32-1.16a7.78,7.78,0,0,0,1.41.47l2.36.49c1.87.4,3.77-.23,4.22-1.39.32-.84-.76-1.39-2.82-1.45s-5.65-1.76-5.82-2.69,1.25-1.13,6.35-1.5c2.72-.2,3.42-.1,4.56.62a2.81,2.81,0,0,1,1.51,2.34,9.67,9.67,0,0,1,.09,1.86c-.05.2-.22,1.67-.37,3.26-.24,2.45-.49,3.1-1.57,4.19a4.38,4.38,0,0,1-2.13,1.28c-1.34,0-4.75-1.94-6.36-3.61a5,5,0,0,0-2.26-1.54c-.4,0-.58-.08-.61-.38Zm.46-15.34a2.35,2.35,0,0,1,.29-.67,6.13,6.13,0,0,1,1-1.39c4.35-4,6-5.37,6.64-5.37a6.17,6.17,0,0,1,4,2.26,12.46,12.46,0,0,1,1.09,2.34c.45,1.3.39,1.45-1,2.62s-7.6,3.53-9.09,3.46c-.4,0,0-.27.78-.56a6.2,6.2,0,0,0,2.9-2.64c1.55-2.36,1.67-2.86.79-3.59a1.93,1.93,0,0,0-2.68.53,1.9,1.9,0,0,0-.3.72c-.25,1.25-2.2,2.57-3.79,2.57-.44,0-.62-.05-.58-.28Zm.81,3.56s.07-.09.2-.14a.88.88,0,0,1,.83,0c.14.14-.11.24-.57.22-.31,0-.47-.06-.46-.12Z"/></g></g></svg>