<svg xmlns="http://www.w3.org/2000/svg" viewBox="0 0 316.35 258.55"><defs><style>.cls-1{fill:#b69564;}</style></defs><g id="圖層_2" data-name="圖層 2"><g id="圖層_1-2" data-name="圖層 1"><path id="Path_55353" data-name="Path 55353" class="cls-1" d="M0,130.13a35.33,35.33,0,0,1,.74-6.25c.6-2.73,1.84-4.28,3.42-4.28.76,0,1.48-.31,1.48-.63a6.69,6.69,0,0,0-.8-1.52c-1.19-1.87-1.11-3.83.3-6.76a24.52,24.52,0,0,0,1.09-2.46,7.49,7.49,0,0,0-1.33-1.48A4.94,4.94,0,0,1,3.57,105c0-.25-.13-.46-.29-.46s-.27-.1-.25-.22a7.46,7.46,0,0,0-.59-1.66C1.17,99.84,1.74,95,3.69,91.91a18.77,18.77,0,0,1,5.2-5.08c1.35-.71,3.84-.93,6.63-.58,1.12.14,1.19.1,1.28-.66.05-.45.22-.81.37-.81s.27-.32.27-.7a8.07,8.07,0,0,1,.46-2,45.94,45.94,0,0,1,4.24-7.6,3.47,3.47,0,0,0,.62-.89,4.73,4.73,0,0,1,.83-1.11c1.76-2,6.84-4.23,9.62-4.23s7.55,1.48,7.55,2.37a.3.3,0,0,0,.29.29c.16,0-.11-.78-.59-1.74-1.39-2.72-1.17-3.4,1.57-5l1.13-.67-.79-.83c-.7-.73-.82-1.14-1-3.69-.33-4.4.17-6.12,2-7,1-.48,1.42-.51,3.09-.27a7.72,7.72,0,0,0,2.09.13c.08-.08,0-.42-.26-.76a7,7,0,0,1-.81-3.71c.07-1.09.67-1.78,3.22-3.74,2-1.53,6-2.38,8-1.73a1,1,0,0,0,1-.23,5.88,5.88,0,0,1,2.16-1.26,13.79,13.79,0,0,0,2.58-1A3.66,3.66,0,0,1,65.82,39c1,0,1.13-.14,1.34-1.5.56-3.59,1-5.21,2.09-7a24.63,24.63,0,0,1,3.85-4.89,15.31,15.31,0,0,1,4.19-2.26.44.44,0,0,0,.4-.3c.06-.17.53-.37,1-.43a5.54,5.54,0,0,0,1.54-.44,18.42,18.42,0,0,1,4.26-.32c3.16,0,3.85.08,5,.63a5.62,5.62,0,0,1,1.78,1.23c.32.46.6.55,1.25.39.45-.11,1.56-.34,2.45-.5,3.22-.59,3.76-.81,4-1.58a3.72,3.72,0,0,0,0-1.45c-.22-.89,1.32-3.86,2.9-5.57a6.29,6.29,0,0,0,1.1-1.42c0-.13.28-.32.62-.42s.54-.27.46-.35c-.26-.26,1.54-1.62,1.87-1.42.17.1.3,0,.3-.14,0-.38,2.58-1.58,4.13-1.93a25.61,25.61,0,0,1,5.46-.4c5.93-.09,10.23,1.2,12.67,3.81,1.23,1.32,1.49,1.78,1.38,2.44,0,.13.17.3.41.4a.83.83,0,0,1,.45.73c0,1,.45.59.8-.7a5.75,5.75,0,0,1,1-2,2.47,2.47,0,0,0,.61-1.19c0-.87,4.81-5,5.82-5a1.67,1.67,0,0,0,.94-.43c.62-.56,6.33-1,8.87-.69,1.81.22,2,.2,2.37-.43A13.44,13.44,0,0,1,161.18.1c2.94-.3,4.46,0,7.55,1.58a8,8,0,0,0,2,.77c.25,0,.8.47,1.23,1,.67.88.74,1.12.43,1.7-.66,1.26-1.35,1.43-1.61.4C170.6,5,170,4.65,168.44,4c-3.84-1.64-5.52-2-8.24-1.57a9.12,9.12,0,0,0-2.85.76,3.46,3.46,0,0,1-1.06.6,7.32,7.32,0,0,0-3,2.85l-.49,1,1.28,1.13a7.81,7.81,0,0,0,1.53,1.14,7.07,7.07,0,0,0,1.62-1.14,7.71,7.71,0,0,1,6-2.15,8.16,8.16,0,0,1,4,.81,13.57,13.57,0,0,1,2.17,1.22c.44.39.61.32,1.63-.65a13.88,13.88,0,0,1,6.35-3.17,14.42,14.42,0,0,1,7.1.51,4.37,4.37,0,0,0,1.3.45c.22,0,.4.1.4.24s.57.48,1.26.79a9.53,9.53,0,0,1,2.34,1.6,19.09,19.09,0,0,0,1.81,1.56c1.18.83,2.86,4.53,2.86,6.33v1.51l1.55.21a22.59,22.59,0,0,1,2.83.6,4,4,0,0,0,1.67.24,3.6,3.6,0,0,0,.9-1.53A6.35,6.35,0,0,1,203,15c.57-.49,1.27-1.11,1.55-1.38s.57-.43.65-.34c.26.25-.73,2.28-1.31,2.69a9.73,9.73,0,0,0-2,3.11c0,.11.18.2.4.2a12,12,0,0,1,2.4,1l2,1,.63-.73a7.83,7.83,0,0,1,2.24-1.45,14.48,14.48,0,0,1,16.21,4.7,3.76,3.76,0,0,1,.54,1.6c.27,2.27,1.13,3.42,2.71,3.66.58.09.78-.11,1.24-1.22a5.81,5.81,0,0,0,0-4.86,5.59,5.59,0,0,1-.44-1.93c.26-.42-2.54-3.24-4.24-4.28a71.3,71.3,0,0,0-6.46-3.44,4.93,4.93,0,0,1-.52-.11c-3-.81-3.84-.94-5.48-.84-3.05.19-5.58.64-5.58,1s-1.61.56-1.84.2c-.34-.53-.27-.78.21-.78.25,0,.45-.13.45-.3s.3-.3.67-.3a1.58,1.58,0,0,0,1-.28,2.61,2.61,0,0,1,1.31-.34,25.22,25.22,0,0,0,2.87-.46,12.56,12.56,0,0,1,3.24-.25A21.48,21.48,0,0,1,221,12c5.82,2.92,7.05,3.66,8.7,5.23,1.92,1.82,2.75,3.56,3.23,6.79a14,14,0,0,0,.38,2,4.42,4.42,0,0,0,1.35-.25c3.79-1,8.7-.05,14.89,2.95,4.37,2.11,6.45,3.71,6.81,5.23a4,4,0,0,0,.45,1.15,5,5,0,0,1,.3,1.8c.06,1.67-.89,4-1.82,4.53s-1-.12-.42-1.22a3.68,3.68,0,0,0,.28-2.44c-.11-.83-.21-2.08-.23-2.77,0-.94-.18-1.3-.59-1.43a.9.9,0,0,0-.72,0c-.1.1-.36-.09-.59-.41s-.55-.59-.73-.59a6.91,6.91,0,0,1-1.77-1.36c-1-1-1.63-1.31-2-1.2s-.66,0-.75-.26a.73.73,0,0,0-.66-.42,4.36,4.36,0,0,1-1.57-.74,4.18,4.18,0,0,0-1.65-.74,4.75,4.75,0,0,1-1.55-.49c-.62-.31-1-.38-1.09-.18s-.45.22-1.2,0a7.2,7.2,0,0,0-1.53-.26l-1.09,0a8.15,8.15,0,0,0-4,1.84c-1.2,1-1.42,1.4-.69,1.4a6.29,6.29,0,0,1,2.8,1.25c0,.12.2.22.43.22a6.8,6.8,0,0,1,1.84.78L240,33.61c.83.44,2.16,2.08,1.95,2.41-.07.12.63.22,1.56.23a5.12,5.12,0,0,1,2.41.47,5.91,5.91,0,0,0,1.45.65c1.6.43,3.08,2.39,3.42,4.53a5.21,5.21,0,0,0,.29,1.24,4.29,4.29,0,0,0,1.48-.4,15.49,15.49,0,0,1,6.57-.25,3.9,3.9,0,0,1,2.43,2.23c.33.79.45.85,1.27.66a9.91,9.91,0,0,1,4.9,0,19.48,19.48,0,0,0,1.83.82c1.93.76,5.19,3.08,5.66,4a8.53,8.53,0,0,1,.64,2.16c.16,1.07.37,1.37,1.49,2.08.72.45,1.3,1,1.3,1.12a7.32,7.32,0,0,0,1.48,1.71c1.27,1.23,1.47,1.58,1.46,2.56a4.34,4.34,0,0,1-.43,1.87,4.06,4.06,0,0,0-.43,1.6,6.41,6.41,0,0,1-2.5,4c-1.16.82-1.28,1.21-.57,1.81,1.19,1,1.74,4.24.84,5a1.26,1.26,0,0,0-.44.76.82.82,0,0,1-.38.62,5.23,5.23,0,0,0-1,1.14l-.62.9,2,.38c1.08.21,2.77.5,3.74.64a16.48,16.48,0,0,1,8.79,5c1,1.1,1.63,1.51,2.22,1.51a2.72,2.72,0,0,1,1.39.41,2.94,2.94,0,0,0,1.41.4c1,0,4.92,2,7.35,3.7a13.24,13.24,0,0,1,2.64,2.54,12.71,12.71,0,0,0,1.21,1.53,12.8,12.8,0,0,1,1.54,6.44,7,7,0,0,1-.42,2.49,1.64,1.64,0,0,0-.31,1c0,1.51-3.82,4.33-5.17,3.81-.81-.31-.5-1.37.53-1.8,2.26-.95,3.43-3,3.5-6.25s-.52-4.68-2.94-7.1a16.69,16.69,0,0,0-3.31-2.55c-4.09-2.14-5.08-2.58-5.46-2.44a.5.5,0,0,1-.58-.12c-.23-.37-.73-.37-.73,0a8.91,8.91,0,0,0,.9,1.8c.94,1.6,1.83,4.75,1.55,5.49-.11.27.23.76.88,1.3a6.53,6.53,0,0,1,2.53,5.56,7.57,7.57,0,0,1-.23,2.51c-.56.69-.45,2,.28,3.13l.73,1.2,1.81-.19c2-.21,2.31-.1,4.27,1.48,2.93,2.36,3.77,3.53,4.12,5.73a7.64,7.64,0,0,1,0,2.29c-.22,1-.2,1,1,1.35a6.49,6.49,0,0,1,3.53,2.19,5.28,5.28,0,0,1,1.35,3.8,6.3,6.3,0,0,0,.21,1.61h0a4,4,0,0,1,0,1.47c-.77,6.75-.8,6.79-3.08,6a4.43,4.43,0,0,0-1.69-.34c-.09.09.32.59.9,1.12,1.06,1,1.74,2.57,1.45,3.47-1.06,3.41-4.75,7.77-7.1,8.39-.7.19-1.26.44-1.26.55s.2,1,.45,2a14.45,14.45,0,0,1-.77,9.84,8.78,8.78,0,0,1-6.49,4.33c-2,.28-2.28.45-1.76,1.07a1.93,1.93,0,0,1,.2,1.41c-.09.53-.3,1.73-.45,2.66a26.5,26.5,0,0,1-2.79,7.45,31,31,0,0,1-7.2,7.26,16,16,0,0,1-7.71,2.62,21.21,21.21,0,0,1-4-.55,12,12,0,0,1-5.14-2.54c-.29-.21-.49-.17-.69.14-.4.63-.36.89.15.89a.39.39,0,0,1,.44.35,2.31,2.31,0,0,0,.63,1c.49.53.65,1.15.76,2.92a11.27,11.27,0,0,1-.17,3.12c-.25.72-.2,1,.38,1.67,1.12,1.34,1.46,2.84,1.23,5.5a13.2,13.2,0,0,1-.74,3.57c-.3.65-.69,1.55-.87,2a3.9,3.9,0,0,1-3,2c-.63,0-.75.15-.81,1a5.14,5.14,0,0,1-1.1,2.77c-.16.18-.72.86-1.24,1.5a10,10,0,0,1-3.4,2.36c-6.48,3.17-6.25,3.12-7.36,1.34-.58-1-.67-1-.86-.47a5.33,5.33,0,0,1-3,2.59,25.51,25.51,0,0,1-2.53.36l-1.56.15.05,1.83a4.31,4.31,0,0,1-.71,3c-.42.67-.69,1.28-.61,1.37s-.12.3-.46.48a1.11,1.11,0,0,0-.61.76c0,.24-.13.44-.3.44a.3.3,0,0,0-.3.3h0c0,.48-1.39,1.65-2.44,2.05-.52.2-1.5.6-2.16.9a20.45,20.45,0,0,1-8.38,1.61c-2.45-.26-6.67-2-6.89-2.86-.28-1.07-.93-.42-1,1a6.37,6.37,0,0,1-.59,2.39c-.31.6-.9,1.72-1.3,2.51-.81,1.58-5.51,6.45-7.28,7.55-3.47,2.15-7.35,2.74-14.26,2.14-4.37-.37-8.85-2.48-8.85-4.16a.5.5,0,0,0-.52-.44l-2.76-.16-2.25-.14-.19,1.2a12.3,12.3,0,0,1-3.27,5.78c-2.25,2.25-6.36,3.77-11.08,4.1-3.13.21-3.84.45-3.84,1.27,0,.51-.22.8-2.11,2.74a12.26,12.26,0,0,1-2.63,2c-.72.36-2.23,1.18-3.37,1.81-2.76,1.53-4.9,1.91-9.43,1.66-4-.22-5.85-.63-8.23-1.79a3.72,3.72,0,0,1-2-1.66c-.2-.47-.46-.86-.59-.86-.46,0-.62-1.77-.25-2.79a2.26,2.26,0,0,0,.22-1.2,21.32,21.32,0,0,0-3.38-.29c-6-.25-8.37-1.19-10.1-4.07-.94-1.57-1.17-2.75-1.23-6.33,0-.59-.36-.44-1.63.7-.65.57-2.11,1.8-3.24,2.7s-2.14,1.75-2.22,1.86c-.44.59-2.91,1.46-6.05,2.14a15.6,15.6,0,0,1-6.34.5c-1.54-.14-3-.32-3.25-.38L99,246.67c-2.55-.64-4.87-1.44-4.87-1.69s-.13-.2-.3-.1a.63.63,0,0,1-.67-.1,4.07,4.07,0,0,0-1.31-.49,2.4,2.4,0,0,1-1.12-.48,3.88,3.88,0,0,0-1.11-.73c-2-1-3.75-2.27-3.75-2.85a3.1,3.1,0,0,0-.73-1c-1.07-1.15-1.43-2.52-1.26-4.82.13-1.85.1-2-.37-1.74a4.39,4.39,0,0,1-1.46.35,2.19,2.19,0,0,0-1.06.26,5.63,5.63,0,0,1-1.82.24,17.49,17.49,0,0,1-9.38-2.88c-.65-.42-1.43-.9-1.74-1.06a6.63,6.63,0,0,1-2.42-3.27,9.51,9.51,0,0,0-.6-1.8,6.29,6.29,0,0,1-.46-2.22c0-1.21-.06-1.3-1.23-1.82l-2-.87a7,7,0,0,1-2.67-2.79c-.31-.77-.65-.84-1.16-.23-.89,1.07-4.4.75-5.52-.5a13.85,13.85,0,0,0-2-1.56c-1.84-1.2-3.66-3-4.05-4-.94-2.34-.83-3.34.47-4.58l.61-.59-2.2-.35-2.27-.37c-.42-.12-1.5-3.94-1.52-5.33a3.54,3.54,0,0,0-.43-1.69c-.6-1,.86-3.66,2.27-4.2.54-.2.72-.65,1.05-2.57.22-1.27.45-2.76.5-3.3a7,7,0,0,1,.86-2.3c.91-1.57.78-2.27-.64-3.45a2.88,2.88,0,0,1-1-1.27.72.72,0,0,0-.46-.6,33.47,33.47,0,0,1-4.12-4,53,53,0,0,1-3.78-5.29,4,4,0,0,0-1.09-1.4c-.15,0-.36-.33-.46-.73-.31-1.23-1.56-1-2.67.52-.9,1.22-1.43,3-1,3.34.13.08.16.33.07.57a.51.51,0,0,0,.38.63,2.35,2.35,0,0,1,.93.75,3.94,3.94,0,0,0,3.82,1.3c1.18-.15,1.7-.08,2,.23a1.91,1.91,0,0,1,.43.55c0,.26-2.29.75-3.68.78a5.25,5.25,0,0,1-4.53-2.19c-1.05-1.19-1.3-1.78-1.73-4.1a4.22,4.22,0,0,1,1.57-3.42c.57-.5,1.2-.87,1.38-.8.64.21,1.15-.6.79-1.25-.17-.33-.24-.6-.14-.6s-.16-.44-.55-1a5.29,5.29,0,0,1-.83-1.53c-.18-1-1.66-1.15-3.37-.32-2.13,1-3.08,2.93-3.08,6.11a11.91,11.91,0,0,0,.34,3.09,9,9,0,0,1,.42,1.2,21.9,21.9,0,0,0,2.91,4.94,12.62,12.62,0,0,0,4,2.59,12.79,12.79,0,0,0,6.78.16c1.35-.47,3.25-.4,3.25.11,0,.15-.12.2-.27.12s-.34,0-.43.27a.68.68,0,0,1-.57.45,4,4,0,0,0-1.3.44,16.21,16.21,0,0,1-6.28.33c-.4-.1-1.09-.24-1.51-.3-2.47-.4-6.05-3.63-7.71-7a20.39,20.39,0,0,1-2-7.58,8.3,8.3,0,0,1,1.4-4.45A7.28,7.28,0,0,1,27.44,160a3.37,3.37,0,0,0,1.3-.16,32.57,32.57,0,0,0-2.16-6.47c-.17-.17-.59.11-1.12.74-.82,1-.93,1-2.77,1a5,5,0,0,1-2.91-.66L18,153.31a2.66,2.66,0,0,1-1-1.06c-.14-.43-.34-.49-1-.32a6.6,6.6,0,0,1-3.36,0c-1.07-.22-1.13-.19-1.63.89a5.37,5.37,0,0,1-.75,1.29c-.13.1-.11.5,0,.89a3.92,3.92,0,0,1,.13,1.63c-.12.79.07,1.14,1.32,2.43.8.83,1.54,1.43,1.63,1.34s.35-.06.56.07a3.92,3.92,0,0,0,1.87.43c1.45.11,1.8-.07,2.61-1.36A9.09,9.09,0,0,1,23.52,156c1.49-.5,1.85-.53,2.16-.2s.22,1-.29,1a4.1,4.1,0,0,0-1.26.74,3.87,3.87,0,0,1-1.29.74c-.46,0-2.4,2.34-2.93,3.54s-.55,4.31-.05,4.91a1.13,1.13,0,0,1,.12,1,33.06,33.06,0,0,0,1,7.27,25.67,25.67,0,0,0,4.29,7.25,17.75,17.75,0,0,0,5.33,3.12,18.38,18.38,0,0,0,5.91.49l3.46-.2c.45,0,.81-.13.81-.26s.26-.22.58-.22a.94.94,0,0,0,.76-.31c.18-.29,1,.46,1,.93s-2.23,1.17-3.09,1.14a16.4,16.4,0,0,0-2.63.27,19.27,19.27,0,0,1-6.89-.53h-.26c-.1,0-.3-.15-.44-.37s-.25-.28-.26,0c0,.41-3.17-.9-3.67-1.52a1.64,1.64,0,0,0-.64-.5,12.31,12.31,0,0,1-1.87-1.88c-1.64-1.88-4.61-7.5-4.9-9.26a5.67,5.67,0,0,0-.43-1.51c-.15-.28-.2-.59-.1-.68s0-.54-.2-1c-.33-.75-.5-.83-1.73-.79a8.11,8.11,0,0,1-2.54-.38,12.14,12.14,0,0,0-1.78-.53,1.47,1.47,0,0,1-.58-.15,2.71,2.71,0,0,0-.73-.19,5.06,5.06,0,0,1-1.48-.62c-1.16-.75-3-2.64-2.74-2.87s0-.13-.23,0c-1.11.42-4-5.89-4.07-8.84,0-.48,0-1.64-.05-2.56a7.05,7.05,0,0,1,1.85-5c1.79-1.82,2.5-3.66,1.82-4.72-1.32-2.06-1.7-3-1.64-4A1.59,1.59,0,0,0,3,137.63c-.49-.36-.9-.84-.9-1.06A.64.64,0,0,0,1.7,136c-.64-.25-1.67-3.87-1.68-5.9Zm1.9.24a7.75,7.75,0,0,0,1.16,4.19c1.15,1.95,2.51,2.05,5,.38a29.85,29.85,0,0,1,3.53-2l1.76-.81L13.22,131a13.12,13.12,0,0,1,.09-2.8c.13-.92.32-2,.43-2.42.2-.78-.36-1.36-2.27-2.34-.45-.22-.81-.52-.81-.64,0-.72-5-1.18-6.53-.6a3.47,3.47,0,0,0-1.56,2.7c0,.24-.22,1.61-.45,3a15.12,15.12,0,0,0-.22,2.42Zm1.32,23.89a18.53,18.53,0,0,0,1,5.57,3,3,0,0,1,.5,1.08A14.39,14.39,0,0,0,8,164.81a1.54,1.54,0,0,1,.7.5c.33.53,3.54,1.85,4.9,2a8,8,0,0,0,2.35-.11c1.17-.31,1.45-1.08,1.19-3.33L17,162.55l-1.62-.18a8.87,8.87,0,0,1-2.8-.83,9.43,9.43,0,0,1-3.74-4.14c-.75-2.26-.33-5.77.79-6.57.19-.14.16-.4-.08-.74a5.49,5.49,0,0,1-.55-1A3.94,3.94,0,0,0,8,148l-.88-.7-.79.59a8.6,8.6,0,0,0-1.78,2.92c-.55,1.28-1.08,2.51-1.19,2.74a1.94,1.94,0,0,0-.09.76Zm.35-55.62c0,.33.14.59.3.59s.29.58.29,1.29c0,2.18,1.67,5.25,3.15,5.82a1.43,1.43,0,0,0,1.45-.21c1-.64,3.63-.39,4.82.46a5.19,5.19,0,0,0,1,.61,8.26,8.26,0,0,0,1.11-1.32,5,5,0,0,1,1.46-1.45l1.86-.51c1.35-.37,1.6-.56,1.23-.92a1.6,1.6,0,0,1-.24-.66,1.11,1.11,0,0,0-.34-.69,8.79,8.79,0,0,1-2-3.54,3.93,3.93,0,0,0-.92-1.73c-.81-.31-2.5.56-3.67,1.88a3.3,3.3,0,0,0-1.18,2.89,3.47,3.47,0,0,0,.59,2.3c.79,1,.76,1.48-.08,1.24-1.94-.57-2.56-.9-2.85-1.54-.67-1.47-.14-4.65,1-6.2a8,8,0,0,1,4.93-2.44h1.08l-.1-2.83c-.12-3.17-.35-3.61-1.95-3.68a9,9,0,0,0-5.86,2.25A10.34,10.34,0,0,0,6.84,92a4.48,4.48,0,0,1-.73,1.18,12.63,12.63,0,0,0-1.35,2.94,5.23,5.23,0,0,1-.91,2c-.15,0-.27.26-.27.59Zm2.66,41.73a5.37,5.37,0,0,0,.88,2.54,7.07,7.07,0,0,1,.56,1.33,8.63,8.63,0,0,0,2.1,2.8c2.61,2.51,3.43,3,4.44,2.8s1.48-1.5,1.35-4a13.76,13.76,0,0,1,1.61-7.17c.46-.88.32-1.24-1.05-2.58l-1.32-1.3-1.55.7a14.63,14.63,0,0,0-2,1.05,11.16,11.16,0,0,1-1.92.89c-1.8.66-3.1,1.88-3.1,2.89Zm.08-25.6a3.54,3.54,0,0,0,.4,1.38c.88,2,1.87,2.87,4.54,4.11a26.26,26.26,0,0,1,3.46,1.88l1,.72,1.27-1.17a5.39,5.39,0,0,1,4.47-1.8H23l.18-1.11a15.6,15.6,0,0,0,.19-1.92,53.24,53.24,0,0,1,1.91-8.17,10.18,10.18,0,0,0,.45-1.49c0-.37-2.82-1.18-4.08-1.18a5.52,5.52,0,0,0-3.77,1c-.79.63-.85.81-.78,2.45a8,8,0,0,0,.51,2.61,3.63,3.63,0,0,1,.44,1.23,8.16,8.16,0,0,0,.62,1.8A3.3,3.3,0,0,1,19,117.5c-.14.52-.37,1-.52,1-.46,0-1.95-3.09-1.83-3.81.07-.39,0-.67-.25-.67s-1.62-2.64-1.62-3.32A9.46,9.46,0,0,0,12.56,108c-.6-.36-3.46.68-4.34,1.58A2.75,2.75,0,0,0,7.41,111a1,1,0,0,1-.26.75,4.58,4.58,0,0,0-.63,1.67,6.29,6.29,0,0,0-.2,1.15v.19ZM15.24,131c0,.9.27,1.33,1.14,2.62a7.93,7.93,0,0,0,2.1,2.22l1.66.82c1.62.81,1.72.66,1.77-2.49,0-1.58.09-4.2.15-5.82s.13-3.65.18-4.5-.06-1.6-.26-1.68a6.54,6.54,0,0,0-2.59.47l-1.6,2c-2,2.49-2.41,3.27-2.52,5.41,0,.21,0,.4,0,.57V131Zm2.94-39.17a.22.22,0,0,0,.07.17,4.71,4.71,0,0,1,.32,1.86,6.28,6.28,0,0,0,.34,2,11.64,11.64,0,0,1,.76,2.22c.45,1.67.76,2.16,2.33,3.72s2,1.82,3.25,2c1.55.21,2.23-.09,2.23-1a1,1,0,0,1,.3-.73.55.55,0,0,0,.23-.53,2,2,0,0,1,.29-1c.23-.42.26-.71.06-.83s-.29-.11-.29,0c0,.24-2.59-1.25-3.46-2-1.39-1.17-3-5.29-3.52-9.13a11,11,0,0,1,1-5,18.11,18.11,0,0,1,4.7-4.86,11.9,11.9,0,0,1,7.73-1.58c.86.17,1.55.44,1.55.6s.26.27.57.27c.63,0,2.09,1.57,2.09,2.25,0,.34-.13.36-.59.11s-.59-.41-.59-.54a5.87,5.87,0,0,0-2-.72,6.11,6.11,0,0,0-3.17-.22,11.12,11.12,0,0,1-2.14.29c-.53,0-.93.15-.89.32s-.66.68-1.55,1.13c-1.05.53-1.62,1-1.62,1.34A1.82,1.82,0,0,1,25.48,83a5.11,5.11,0,0,0-1.13,1.52c-.25.54-.64,1.31-.86,1.71s-.3.87-.17,1a4,4,0,0,1,.05,1.79c-.19,1.46-.15,1.61,1.51,6.13.4,1.1,2.75,2.87,3.8,2.87a1.91,1.91,0,0,0,1.74-1.92c0-.62-.34-1-2-2.15-1.08-.77-1.48-1.88-1.54-4.29-.06-2.83,1.24-5,3.44-5.75,1.12-.38,4.52.1,4.42.61,0,.17.25.4.65.5,1,.25,1.14.9.21.9a1.26,1.26,0,0,1-.92-.29c-.22-.35-2.45-.16-3.43.3-1.32.61-1.84,1.69-2,4.12-.13,2.24-.12,2.26.82,3s1.15.91,1.8.41a15.19,15.19,0,0,0,2.34-3.32,8,8,0,0,1,1-1.57,10,10,0,0,0,1.19-2,3.84,3.84,0,0,1,1.08-1.38,2.72,2.72,0,0,0,.87-1.09c0-.59,2.06-3.53,3.6-5.12a22.28,22.28,0,0,0,1.86-2.14,2.77,2.77,0,0,0,.43-.94c0-.4-3.16-3.24-4.68-4.21a8.07,8.07,0,0,0-6.16-1.16c-3.48.77-5.87,1.69-6.55,2.51a1.26,1.26,0,0,1-.79.46c-.22,0-.41.1-.41.22a6,6,0,0,1-1,1.31,4.49,4.49,0,0,0-1,1.38,4.87,4.87,0,0,1-1,1.42,3.34,3.34,0,0,0-1,1.57A18.79,18.79,0,0,1,20,84a23.66,23.66,0,0,0-.85,3.61,23.66,23.66,0,0,1-.86,3.63,1.08,1.08,0,0,0-.15.53ZM18.33,149a4.88,4.88,0,0,0,.73,2.47c.87,1.4,4.87,2.31,5.31,1.22a9.2,9.2,0,0,0,.11-4.3A22.6,22.6,0,0,1,23,143.21a7.12,7.12,0,0,0-.43-1.92,9.05,9.05,0,0,1-.43-2.43c0-.71-.16-1.26-.34-1.26s-.25.2-.15.46,0,.43-.32.37-.65.22-.86.65A30.09,30.09,0,0,0,19,145.57a12.75,12.75,0,0,1-.53,2.51,2.68,2.68,0,0,0-.17,1Zm6.34-13a18.1,18.1,0,0,0,.51,5.49,54.79,54.79,0,0,0,2.8,8.58c.65,1.63,1.36,3.55,1.57,4.28a11.7,11.7,0,0,0,.58,1.63,13.71,13.71,0,0,1,.73,1.77,59.62,59.62,0,0,0,4.52,8.82c1,1.34,2.17,2.93,4.15,5.75a90.08,90.08,0,0,0,7.87,9,39.35,39.35,0,0,0,3.1,2.77c1,.85,2.78,2.34,3.83,3.3a64.5,64.5,0,0,0,6,5.1c.44.27,2.15,1.6,3.79,2.93s3.36,2.7,3.8,3c1.79,1.3,6.84,4.58,7,4.58a9,9,0,0,1,1.69.93c3,1.93,11.66,6.17,12.82,6.29a1.89,1.89,0,0,1,.44.19,5.6,5.6,0,0,0,1.18.38c.49.11,2.55.73,4.57,1.38s4.22,1.32,4.87,1.51a6.52,6.52,0,0,1,1.55.62c.2.16.37.18.37.06s.33,0,.73.26a3.51,3.51,0,0,0,1.61.48,12.35,12.35,0,0,1,2.93.74,32.12,32.12,0,0,0,3.34,1c.7.14,2.48.59,3.94,1s3.25.82,4,.93a26.87,26.87,0,0,1,2.8.61,20.33,20.33,0,0,0,3.1.55c2,.17,7.14,1,8.56,1.36s2.84.45,4.28.57l7,.64c3.47.32,18.12.18,19.16-.18.2-.07,2.13-.19,4.28-.27a31,31,0,0,0,4.19-.31,47.16,47.16,0,0,1,4.8-.76c6.91-.89,9.79-1.3,12.43-1.81,1.4-.27,1.78-.26,2,.06s.35.31.64.06a2.92,2.92,0,0,1,1.13-.45,8.19,8.19,0,0,0,1.62-.49c.49-.2,3.68-1.08,7.08-2,5.74-1.47,7.64-2,10.09-2.73a2.13,2.13,0,0,1,1.06-.16c.07.07.3-.07.5-.32a1.4,1.4,0,0,1,.95-.45,7.78,7.78,0,0,0,2-.56c2.35-.94,6-2.09,6.27-2s.38-.06.58-.3a1.16,1.16,0,0,1,.63-.43,29.9,29.9,0,0,0,3-1.33,22.58,22.58,0,0,1,3.07-1.33.5.5,0,0,0,.42-.22,8.62,8.62,0,0,1,1.87-1.11,26.62,26.62,0,0,0,2.65-1.51,31.28,31.28,0,0,1,3.1-1.72,19.65,19.65,0,0,0,2.68-1.52,1.67,1.67,0,0,1,.69-.41,17.73,17.73,0,0,0,2.27-1.33,15.87,15.87,0,0,1,2.29-1.33,1.82,1.82,0,0,0,.78-.59,1.79,1.79,0,0,1,1.05-.59.7.7,0,0,0,.65-.37,3.76,3.76,0,0,1,1.29-.95,18.57,18.57,0,0,0,2.47-1.64,16.9,16.9,0,0,1,2.12-1.45,31.24,31.24,0,0,0,3.38-2.56c2.39-2,2.84-2.3,3.43-2.21.12,0,.22-.12.22-.3,0-.39,3.58-3.91,5.94-5.85,3.38-2.78,10.68-12.47,12.67-16.84a11,11,0,0,1,1-1.77c.82-.94,4.59-8.8,4.59-9.58a4.09,4.09,0,0,1,.43-1.23,8.32,8.32,0,0,0,.61-2,16.91,16.91,0,0,1,.62-2.35c1.8-5,3-11.22,2.38-12.51-.22-.5-.23-.77,0-.91a1.93,1.93,0,0,0,.53-.9,47.69,47.69,0,0,0,.54-6.64,16.37,16.37,0,0,1-.24-1.83c-.09-1-.44-3-.76-4.41s-.62-3.07-.67-3.57a4.12,4.12,0,0,0-.28-1.2,5.62,5.62,0,0,1-.35-1.26c-.09-.52-.42-2-.73-3.38s-.64-2.75-.72-3.14a19.72,19.72,0,0,0-2.09-5.6c-.77-1.54-2-3.66-2.66-4.72s-1.44-2.26-1.66-2.68c-.6-1.13-4.23-6.61-7-10.6A12.38,12.38,0,0,1,271.83,81c0-.69-.59-1.29-.6-.63s-1-.8-1.76-2.27c-.5-1-1.73-2.57-4.56-5.75-.37-.4-1.39-1.38-2.28-2.15-1.42-1.24-2.79-2.25-9.18-6.75-.76-.55-1.4-1.16-1.4-1.36a.38.38,0,0,0-.41-.37,8.29,8.29,0,0,1-2.14-1.27c-2.92-2.15-5.83-3.76-14.57-8.09a152,152,0,0,0-15.78-7.12c-5-1.93-14.63-4.74-16.38-4.79a12.23,12.23,0,0,1-2.06-.38,2.9,2.9,0,0,0-2.73.35,3.44,3.44,0,0,1-2.16.51c-.89-.22-.8-.76.18-1.26s.9-.4-3.26-1.3a22.67,22.67,0,0,1-3.24-.84,5.8,5.8,0,0,0-1.76-.24,7.79,7.79,0,0,1-2.47-.52,2,2,0,0,0-1.08-.29,15,15,0,0,1-3-.32,50.64,50.64,0,0,0-5.5-.51,10.88,10.88,0,0,1-2.73-.23,19.39,19.39,0,0,0-4.55-.6,2.67,2.67,0,0,1-1.07-.26c-.27-.15-.57-.2-.66-.11s-14.94.17-15.28,0a52.07,52.07,0,0,0-8.19,0,19.38,19.38,0,0,1-3,.34c-1.52.09-3.9.3-5.28.46s-2.84.28-3.25.28a57.77,57.77,0,0,0-7.52.89c-.81.17-2.33.52-3.37.77l-2.51.59a16.82,16.82,0,0,1-2.56.11,30.6,30.6,0,0,0-8.38,1.47A75,75,0,0,0,99.06,42a2.12,2.12,0,0,1-1.11.24c-.45,0-.82.11-.82.24a5.88,5.88,0,0,1-2,.92c-1.91.65-2.87,1.13-10.39,5.17a71.7,71.7,0,0,0-7.44,4.33c-1.08.71-3.1,2-4.49,2.9s-3.48,2.3-4.66,3.16a86.73,86.73,0,0,0-9.38,7.49c-1,.89-2.14,1.81-2.48,2-3,2.09-12.11,11.2-14.65,14.62a56.77,56.77,0,0,0-4.42,6.75A8.48,8.48,0,0,1,36,91.74a12.19,12.19,0,0,0-1.18,1.75,20.31,20.31,0,0,1-1.33,2.24,37.9,37.9,0,0,0-3.55,6.8,11.44,11.44,0,0,1-.67,1.8A20.53,20.53,0,0,0,27.78,109a4.21,4.21,0,0,1-.45,1.29,7.54,7.54,0,0,0-.6,1.75,4.59,4.59,0,0,1-.31,1.14c-.25.41-.42,1.4-1,5.85-.7,5.52-.65,4.62-.74,13.11,0,1.62,0,2.91,0,4Zm3.19-8.42a44.39,44.39,0,0,1,.49-7.46c.91-5.86.94-6,1.22-6.55a3.13,3.13,0,0,0,.27-1.2c0-.8,1-3.29,2.5-6.45a17.15,17.15,0,0,0,1-2.37,48.7,48.7,0,0,1,2.23-5.07A3.86,3.86,0,0,0,36,97.36a5.15,5.15,0,0,1,.8-1.52,26.59,26.59,0,0,0,2.28-4,8.08,8.08,0,0,1,1-1.62,9.86,9.86,0,0,0,1.16-1.82,8.51,8.51,0,0,1,1-1.64,13.22,13.22,0,0,0,1.34-2.06c.85-1.51,5.09-6.14,5.61-6.14A9,9,0,0,0,51,77.05c4.21-4.46,10.92-10.57,11.6-10.57.17,0,.44-.25.6-.56a19.13,19.13,0,0,1,4.72-3.57A2.59,2.59,0,0,0,69,61.61a2.84,2.84,0,0,1,1-.74A4.15,4.15,0,0,0,71.21,60a11.23,11.23,0,0,1,1.86-1.29,72.15,72.15,0,0,0,7.52-4.12,27.73,27.73,0,0,1,5-2.21,5.31,5.31,0,0,0,1.86-.92.83.83,0,0,1,.54-.37c.32,0,.55-.1,4.5-1.91a49.33,49.33,0,0,1,6.07-2.39,10.88,10.88,0,0,0,2-.86,3.46,3.46,0,0,1,1.56-.44,7.11,7.11,0,0,0,2-.4A29.54,29.54,0,0,1,110,43.6a16.37,16.37,0,0,0,2.76-.6,16.7,16.7,0,0,1,2.21-.58l2.55-.44,4.2-.7a21.35,21.35,0,0,0,2.88-.61c.17-.1.3-.05.3.12s.25.21.74,0c1.37-.52,8.81-1.44,12.69-1.57a38.31,38.31,0,0,0,4.28-.3c.78-.29,20.45,0,22.28.37,1,.18,2.77.38,4,.46s3.08.27,4.14.44c3,.48,11.3,1.46,15.2,1.79a38.9,38.9,0,0,1,5,.72,9.52,9.52,0,0,0,1.91.39c1.38-.07,8.67,1.37,9.3,1.84a4.37,4.37,0,0,0,1.33.36,84.56,84.56,0,0,1,8.46,1.87,13.87,13.87,0,0,0,3.14.55,24.18,24.18,0,0,1,7.75,2c5.7,2.84,9.17,4.71,9.71,5.22a2.3,2.3,0,0,0,.91.6,6.86,6.86,0,0,1,1.61.89,6.08,6.08,0,0,0,1.72.88,11.12,11.12,0,0,1,3.86,2A2.25,2.25,0,0,0,244,60a5.39,5.39,0,0,1,1.84,1,14.78,14.78,0,0,0,1.94,1.28,3.22,3.22,0,0,1,1,.73,1.28,1.28,0,0,0,.79.48c.22,0,.61.33.88.73a1.59,1.59,0,0,0,1,.75A10,10,0,0,1,254,67,37.94,37.94,0,0,0,257,69.59a13.34,13.34,0,0,1,2.66,2.54,13.6,13.6,0,0,0,1.32,1.31A26.15,26.15,0,0,1,263,75.59c.73.85,1.92,2.17,2.65,2.94a25.6,25.6,0,0,1,1.92,2.23,17.83,17.83,0,0,0,1.55,1.81,3.73,3.73,0,0,1,1,1.3,4.61,4.61,0,0,0,1,1.43c.44.51.86,1,1.25,1.59s2.35,3.5,4.26,6.26a9.94,9.94,0,0,1,1.37,2.72,2.81,2.81,0,0,0,.6,1.34,1.08,1.08,0,0,1,.41.72.52.52,0,0,0,.31.48c.17.06.33.4.36.77s.12.66.21.66a12.64,12.64,0,0,1,1.32,2.28,30.12,30.12,0,0,0,1.51,2.73,19,19,0,0,1,1.44,3.92,8,8,0,0,0,.42,1.19,4.78,4.78,0,0,1,.34,1.23.52.52,0,0,0,.31.5c.47.16,1,2.66,1.3,5.7.08,1,.16,1.77.17,1.77a17,17,0,0,1,.53,3.4,43.15,43.15,0,0,1-.7,11.51c-.61,3.62-.7,4.92-.39,6.06s-1.36,8-2.38,10.34a8.19,8.19,0,0,0-.61,1.72,6.42,6.42,0,0,1-.82,1.66,30.44,30.44,0,0,0-1.69,3.38,87.75,87.75,0,0,1-4.95,9.28,15.41,15.41,0,0,0-.93,1.49,14,14,0,0,1-1.4,2,4.48,4.48,0,0,0-.84,1.23c0,.27-1.13,1.72-3.32,4.29-1.72,2-8.1,8.32-9.37,9.27a7.24,7.24,0,0,0-1.27,1.14,9.62,9.62,0,0,1-1.84,1.4,5.17,5.17,0,0,0-1.61,1.33c0,.16-.19.3-.42.3a5,5,0,0,0-1.65,1,6.76,6.76,0,0,1-1.46,1,7.53,7.53,0,0,0-1.52,1,5,5,0,0,1-1.79,1,1.31,1.31,0,0,0-.89.55,19.64,19.64,0,0,1-3.63,2.25c-8.2,4.3-9,4.76-9.95,5.54a2.43,2.43,0,0,1-1.29.51,1.19,1.19,0,0,0-.84.26,26.5,26.5,0,0,1-4.75,2.1l-2.35,1c-1.3.56-1.82.67-2,.4s-.23-.25-.23,0-.7.67-1.56,1.08a38.32,38.32,0,0,1-5.26,2.28,7.67,7.67,0,0,0-1.54.56,21.24,21.24,0,0,1-2.57.92,21.76,21.76,0,0,0-4,1.44,14.19,14.19,0,0,1-2.3.79,16.35,16.35,0,0,0-2.18.6,4.75,4.75,0,0,1-1.9.31c-.3-.08-.55,0-.55.1a3.74,3.74,0,0,1-1.7.6,13,13,0,0,0-2.14.58,6.32,6.32,0,0,1-1.48.38c-.92.14-3.62.72-6.49,1.4l-2.51.59a7.81,7.81,0,0,0-1.77.58c-.52.4-4.32.89-8,1-2,.07-4,.2-4.57.28a64.62,64.62,0,0,1-8.56.63c-6.68.16-17.42.14-18.89,0-.73-.09-1.86-.2-2.51-.25a61.74,61.74,0,0,1-7.38-1.23c-1-.23-2.3-.48-3-.57-1.18-.15-3-.46-3.54-.61-.72-.19-7.47-1.62-8.26-1.75a31.2,31.2,0,0,1-3.69-.95,8.45,8.45,0,0,0-1.33-.26,16.32,16.32,0,0,1-2.06-.41,14.48,14.48,0,0,0-2.07-.37,21.9,21.9,0,0,1-3.39-.87c-2.37-.76-6.77-2.1-7.09-2.17a12,12,0,0,1-3.1-.81,4.21,4.21,0,0,0-1.16-.41,10.22,10.22,0,0,1-1.77-.67c-.66-.31-2-.86-3-1.21a4.5,4.5,0,0,1-1.85-.93c0-.15-.16-.22-.36-.15-.37.12-6.75-3-7.6-3.76a9.3,9.3,0,0,0-1.63-.91,4.17,4.17,0,0,1-1.41-.93.86.86,0,0,0-.63-.38,1.2,1.2,0,0,1-.74-.41,9.06,9.06,0,0,0-2-1.26,13.2,13.2,0,0,1-2.25-1.36,2.17,2.17,0,0,0-.83-.51A13.85,13.85,0,0,1,69,194.76c-.26-.21-1.1-.77-2.78-1.83a39.86,39.86,0,0,1-4.31-3.1,4.38,4.38,0,0,0-1.27-.86,45.05,45.05,0,0,1-6.4-5c-.65-.61-1.81-1.68-2.59-2.38a11.6,11.6,0,0,1-1.89-2.07,3.19,3.19,0,0,0-1.16-1.12,4.86,4.86,0,0,1-1.48-1.58,8.53,8.53,0,0,0-1.18-1.56c-.67-.52-2.14-2.92-2-3.2s0-.18-.17-.07-.34,0-.34-.25-.13-.46-.29-.46c-.47,0-4.14-3.72-4.14-4.2a1.73,1.73,0,0,0-.59-1,1.83,1.83,0,0,1-.58-.77,52.75,52.75,0,0,0-2.53-5.64,6.9,6.9,0,0,1-.72-1.84c0-.25-.13-.45-.29-.45-.58,0-2.84-4-3.08-5.46-.08-.49-.34-1.62-.59-2.51a22.18,22.18,0,0,1-.55-2.67,4.59,4.59,0,0,0-.33-1.42c-.13-.21-.16-.45-.07-.54s0-.4-.12-.7a43,43,0,0,1-1.3-7.95c-.23-3.44-.36-6.17-.37-8.47Zm2.43,1.53a66.16,66.16,0,0,0,.55,9.34,27.94,27.94,0,0,1,.42,3.4,2,2,0,0,0,.3.94,1.69,1.69,0,0,1,.26,1,5.61,5.61,0,0,0,.41,1.93,18.37,18.37,0,0,1,.73,3.1,7.18,7.18,0,0,0,.42,1.82,7.34,7.34,0,0,1,.56,1.36,17.43,17.43,0,0,0,1.4,2.8c.58.95,1.51,2.67,2.07,3.8s1.14,2.26,1.29,2.51.71,1.37,1.26,2.51a11.52,11.52,0,0,0,1.49,2.47,1.3,1.3,0,0,1,.49.66c0,.71,5.7,7.36,9.55,11.15,2.83,2.78,4.43,4.2,9.1,8.14a7.32,7.32,0,0,0,1.18.82,34.2,34.2,0,0,1,2.89,2c1.38,1,3.77,2.73,5.31,3.77s2.87,1.95,3,2a15.61,15.61,0,0,0,1.86,1.06A15.52,15.52,0,0,1,77,197.21a12,12,0,0,0,1.83,1.11c.73.36,2.45,1.38,3.83,2.27a88.29,88.29,0,0,0,15.06,6.73c7.3,2.24,13,3.82,14.16,4,.73.08,2.66.46,4.28.85s5.47,1.26,8.56,1.93,5.87,1.27,6.2,1.35,1.78.33,3.24.55l5.9.9,4.28.65a2.3,2.3,0,0,1,1.26.48c.16.24.28.24.44,0s1.9-.35,5.24-.38c8.22-.08,15.47-.32,18.3-.63,1.46-.16,4.12-.35,5.91-.42a76.69,76.69,0,0,0,15.78-2.67c.73-.22,1.47-.41,2.21-.56.94-.16,3-.69,5.9-1.51,1-.27,2.57-.69,3.55-.92a37.48,37.48,0,0,0,4.27-1.42c1.38-.55,3.7-1.36,5.17-1.81a33.91,33.91,0,0,0,4-1.46,22.65,22.65,0,0,1,2.5-1c.65-.21,2.27-.89,3.61-1.52a27.93,27.93,0,0,1,2.64-1.13,22.94,22.94,0,0,0,4.56-2,1.47,1.47,0,0,1,.7-.41,39.22,39.22,0,0,0,5.47-2.81,19.48,19.48,0,0,1,2.65-1.45c1.22-.59,2.62-1.28,3.1-1.54l3.1-1.64a22.69,22.69,0,0,0,2.8-1.7,18.25,18.25,0,0,1,1.77-1.3c.65-.43,2-1.38,2.95-2.11.7-.54,1.42-1.05,2.17-1.52a5.56,5.56,0,0,0,1.06-.8,45.19,45.19,0,0,1,3.94-3.24c1-.57,6.91-6.78,9.21-9.6a91.67,91.67,0,0,0,5.71-8.29,11.12,11.12,0,0,1,1-1.63,23.25,23.25,0,0,0,1.59-2.95c.52-1.13,1.65-3.52,2.52-5.31a41.55,41.55,0,0,0,4.42-15.2c.09-1.19.3-3.16.75-6.93.55-4.64.54-9.48,0-12.1a24.54,24.54,0,0,1-.54-3.4,24,24,0,0,0-1.52-6.42,7.37,7.37,0,0,1-.55-1.44.5.5,0,0,0-.22-.37,8,8,0,0,1-1.28-2.78,2.08,2.08,0,0,0-.44-.95,63,63,0,0,1-3.4-6.71,10.58,10.58,0,0,0-1-1.86,14.72,14.72,0,0,1-1-1.76,51.27,51.27,0,0,0-3.61-5.4.56.56,0,0,1-.23-.49.56.56,0,0,0-.23-.49,14.31,14.31,0,0,1-1.61-1.87c-.76-1-1.79-2.23-2.27-2.8a4.33,4.33,0,0,1-.9-1.38.49.49,0,0,0-.28-.44,21.88,21.88,0,0,1-2.1-2.31,46.62,46.62,0,0,0-7.14-7.25,12.76,12.76,0,0,1-1.7-1.33,53.77,53.77,0,0,0-5.94-4.7c-.14,0-.26-.16-.27-.37s-.4-.57-.88-.81c-2.1-1.07-4.71-2.71-4.71-3s-.2-.28-.45-.28-.44-.13-.44-.29-.1-.28-.22-.25a4.86,4.86,0,0,1-2-.71c-.33-.18-1-.53-1.48-.76a17.62,17.62,0,0,1-1.77-1.06,17.84,17.84,0,0,0-2.07-1.22,9.42,9.42,0,0,1-1.32-.73,16.53,16.53,0,0,0-3.3-1.47,8,8,0,0,1-1.84-.94,24.85,24.85,0,0,0-5.08-2.6.5.5,0,0,1-.46-.24,16.8,16.8,0,0,0-3.5-.89l-4.13-.78c-.4-.08-1.6-.35-2.65-.6s-2.47-.51-3.14-.59a33.48,33.48,0,0,1-3.84-.91,44,44,0,0,0-6-1.49c-2.27-.43-7.74-1.16-10.62-1.42-1.52-.13-2.8-.28-5.31-.6l-3.95-.44a27.43,27.43,0,0,1-3.13-.45,61.64,61.64,0,0,0-8.12-.88,29.1,29.1,0,0,1-3.1-.35c-3-1-30.18-.44-35.71.77-1.7.38-4.79.9-6.33,1.09s-5.37,1-10.34,2l-4.28.94c-.41.08-1.87.47-3.25.87s-2.72.77-3,.82a18.22,18.22,0,0,0-3.38,1.08,25.2,25.2,0,0,1-2.8,1.13,34.64,34.64,0,0,0-3.23,1.31c-.92.51-8.74,4-9,4a14.4,14.4,0,0,0-1.73.93c-.86.51-2.69,1.52-4.07,2.24a22.36,22.36,0,0,0-3.11,1.88,2.38,2.38,0,0,1-.84.56,6.83,6.83,0,0,0-1.46.84c-.67.46-2,1.32-2.85,1.9a58.51,58.51,0,0,0-6.82,5.34c-.91.83-2.08,1.84-2.61,2.25s-2.79,2.53-5,4.72-4.66,4.52-5.4,5.17a35.71,35.71,0,0,0-4.7,5.7c-.27.43-.6.92-.73,1.08A36.88,36.88,0,0,0,40.41,94c-.53,1-1.11,2.08-1.29,2.32a59.8,59.8,0,0,0-2.5,5.46c-.63,1.55-1.68,4.11-2.83,6.87s-1.76,5.11-3,11.72a55.72,55.72,0,0,0-.53,8.85Zm12-62.36a2.76,2.76,0,0,0,.36.87A7.36,7.36,0,0,0,45.55,71c1.11.54,1.53.36,2.92-1.18.55-.61,2-2.17,3.28-3.47A15.09,15.09,0,0,0,54,63.68c-.08-.7-.32-1.33-.5-1.32s-1.13.28-2.27.61-2.79.73-3.68.89a6,6,0,0,0-2.06.68,3.74,3.74,0,0,1-1.17.61,4.49,4.49,0,0,0-1.43.88C42.49,66.4,42.32,66.57,42.33,66.82Zm.94,130a13.56,13.56,0,0,0,.44,2.77,16.87,16.87,0,0,0,.83,3c.58.56,3.14.22,7.32-1L54,201l0-1.74a5.65,5.65,0,0,0-.1-1.74c-.07,0-.9-.2-1.84-.44a17.13,17.13,0,0,0-2.83-.5,2.46,2.46,0,0,1-1.25-.25c-.07-.11-.47-.17-.9-.12a3.28,3.28,0,0,1-1.7-.48c-1.24-.76-1.53-.72-1.94.26a2.21,2.21,0,0,0-.17.84ZM44,57.32c0,3.88.53,4.32,4,3.4a28.43,28.43,0,0,1,3.67-.63c1.91-.18,2-.21,2.13-1.1.09-.51.26-1.24.37-1.63s.1-.64-.11-.52-1-.41-2-1.16c-2.6-2.14-6.3-2.9-7.56-1.54-.51.55-.6,1-.6,3.18Zm0,16.13a3.19,3.19,0,0,0,.68.86c.64.63.87.71,1.21.42a1.09,1.09,0,0,0,.43-.54,4.88,4.88,0,0,0-2.31-.77s0,0,0,0ZM46.73,192s0,0,0,0,.92.35,2,.73a34.58,34.58,0,0,1,3.79,1.67c2,1.09,2.57,1.19,3.1.61l1-1.11.64-.72-1.67-1.52c-.92-.84-2.27-2-3-2.66s-1.66-1.43-2.07-1.8c-1.82-1.64-1.71-1.6-2.35-1a3,3,0,0,0-.73,1.25c-.22,1-.68,4.05-.68,4.47Zm1.11,16.4c0,1.8,1.78,3.68,5.42,5.7,2.06,1.14,2.54,1.06,3.58-.57,1.43-2.24,1.55-2.53,1.75-4.21.1-.89.26-1.9.35-2.27.14-.57-.06-.77-1.48-1.43A7,7,0,0,1,55.2,204c-.69-1-1.2-1.09-1.77-.41a.76.76,0,0,1-.77.3c-.22-.08-.39,0-.39.11s-.5.56-1.11.93c-2.63,1.58-3.32,2.32-3.32,3.49ZM50.2,47.71c0,1.26,1.24,3.5,2.72,4.93a4.44,4.44,0,0,1,1.41,2c0,.83.27.8,1.69-.24a8.39,8.39,0,0,1,5.47-1.5c1.31,0,2-.12,2-.34,0-.64,1.54-3.64,2.63-5.12.6-.81,1.51-2.15,2-3,1-1.54,1.19-2.59.62-2.94-.79-.49-3.5-.16-5,.6-2.43,1.2-2.6,1.52-2.6,4.88a28.6,28.6,0,0,1-.19,3.81c-.23,1.14-1,1.63-1.71,1.11-.42-.31-.52-.93-.56-3.62s-.16-3.41-.6-4.08-.64-.82-2-.66c-2.46.29-5.84,2.7-5.84,4.15Zm3.12,19.88c0,.07.25,0,.69-.28s.62-.49.62-.62-.32,0-.71.29-.62.54-.6.61ZM55,66.26c0,.15.18,0,.62-.36a2.34,2.34,0,0,1,.91-.6,5,5,0,0,0,1.34-1.12,53.63,53.63,0,0,1,4.55-3.7c1.91-1.42,3.47-2.6,3.46-2.64a8.9,8.9,0,0,0-1.61-2.33c-1.34-1.16-5.12-.94-6.53.38C56.56,57,55.76,61,56.24,63.2a2,2,0,0,1-.56,1.9A4.37,4.37,0,0,0,55,66.26Zm1.67,134c.06,3.07,1.78,4.21,5.8,4.21,2.43,0,2.8-.07,3.94-.81.69-.45,1.25-.94,1.25-1.09a2.26,2.26,0,0,1,.16-.67c.13-.35-.92-1.32-5.26-4.83a1.82,1.82,0,0,0-.8-.42.78.78,0,0,1-.51-.38,4.49,4.49,0,0,0-2.27-1.4c-.69,0-1.88,1.67-2.1,2.95a13.25,13.25,0,0,0-.21,2.44Zm4.66,14.11c0,2.29.37,2.76,2.23,3.78,1.19.64,1.61.52,1.88-.55s1.19-2.19,1.62-1.92c.25.15.31.6.18,1.39L67,218.21,68.47,217a8.32,8.32,0,0,0,1.63-1.67,2.81,2.81,0,0,0,.16-.49,10.13,10.13,0,0,0-1.38-3A29.53,29.53,0,0,1,66,207.54c-.4-.73-.84-1.3-1-1.27l-1.64.25c-1.8.24-1.84.36-2.11,6.72,0,.41,0,.77,0,1.1ZM65.93,54a.46.46,0,0,0,.31.45,1.65,1.65,0,0,1,.63,1.08c.23,1,.6,1.13,1.46.37a21.26,21.26,0,0,1,5-3,1.55,1.55,0,0,0,1-.72,3.17,3.17,0,0,1,1.26-1,19.35,19.35,0,0,0,2-1c1-.58,1.2-.89,1.27-1.75s0-1.1-1.18-1.78c-2.62-1.5-3.64-2-4.36-2s-2.37,1.19-2.37,1.72a.45.45,0,0,1-.22.38A12,12,0,0,0,68.42,50,9.56,9.56,0,0,1,67,52a3.42,3.42,0,0,0-1.11,2Zm.65,167.11a10.16,10.16,0,0,0,1,3.68c.61,1.18,2.87,3.69,3.32,3.69a1.35,1.35,0,0,1,.63.48,9.34,9.34,0,0,0,4.25,1.82c.49,0,2.11.17,3.62.33,2.46.26,2.86.23,4.05-.29a5.28,5.28,0,0,0,1.72-1.16c.78-1.12,1.1.45.44,2.26-.38,1.06,0,3.18.81,5,.93,2,5.11,5.47,6.51,5.47a9.44,9.44,0,0,1,3,2.14c0,.13.55.23,1.12.23a4.92,4.92,0,0,1,1.92.46c.5.26.83.35.74.2s.29-.26.85-.25,1,.12,1,.23,6.65.09,7.53-.17l2.51-.66a8.89,8.89,0,0,0,2.38-.89,1.71,1.71,0,0,1,1-.4c.27,0,.5-.1.5-.22a9.27,9.27,0,0,1,1.76-1.55,11.52,11.52,0,0,0,1.88-1.67c.13-.29-1.08-.75-2.95-1.15-1.55-.33-3.65-1.09-3.65-1.32,0-.76-.94-.15-1.66,1.08a4.68,4.68,0,0,1-2,1.94c-.66.31-1.52.75-1.91,1-2,1.11-7.11.55-10.76-1.17-1.81-.86-4.54-3.44-4.81-4.54a3.76,3.76,0,0,0-.43-1.11,6.38,6.38,0,0,1-.23-2.26,8.7,8.7,0,0,0-.14-2.22,3.81,3.81,0,0,0-1.72-.43c-.85-.08-1.59-.3-1.65-.48a.66.66,0,0,0-.6-.34c-.54,0-1.88-.76-4-2.29a3.53,3.53,0,0,0-3.18-.85,5.34,5.34,0,0,1-3.73-.86c-3.7-1.88-4.68-3.92-3.28-6.82.73-1.52,1.68-2.2,2-1.41a1.66,1.66,0,0,1-.44,1.17c-.64.81-.52,1.89.34,3.22s5.51,3.2,5.51,2.3c0-.17-.2-1.29-.45-2.47a17.72,17.72,0,0,1-.39-3.56,5.16,5.16,0,0,0-.07-1.52,3.53,3.53,0,0,0-1.33.1,7.57,7.57,0,0,1-3.51-.11c-.82-.19-1-.08-2,1.29a5.52,5.52,0,0,1-1.4,1.49,6,6,0,0,0-1.52.89,4.87,4.87,0,0,1-1.74.89.7.7,0,0,0-.65.37,1.31,1.31,0,0,0-.07.52Zm1.34-16.74c0,1.29,3.65,6.85,5.21,7.88a7.83,7.83,0,0,1,1.34,1c.12.17.22.21.22.1s.41-.08.91.06a2.83,2.83,0,0,0,2.69-.67,3,3,0,0,0,.38-3.24c-.25-.45-.55-.82-.66-.82a4,4,0,0,1-1.1-.76,13,13,0,0,0-2.22-1.45,24.28,24.28,0,0,1-3.54-2.61L68.94,202l-.5.94a4.58,4.58,0,0,0-.52,1.48ZM69.1,38.11a1.63,1.63,0,0,0,.64,1.56A9.39,9.39,0,0,1,71,41.17c.8,1.23,1.55,1.06,2-.44a11.4,11.4,0,0,1,4-5.31,5.13,5.13,0,0,1,3.21-1.35l1.61-.13,2-2.84c2.1-2.94,4.21-5.22,5.11-5.51.64-.22.65-.54,0-1s-.82-.48-3.08-.73a23.23,23.23,0,0,0-4.33-.19,4.24,4.24,0,0,0-2.24.47,9.06,9.06,0,0,1-2,1.08,18.72,18.72,0,0,0-2.85,1.56,8,8,0,0,0-2.58,2.87l-1,1.48A13.19,13.19,0,0,0,69.17,37c0,.45-.06.8-.07,1.09Zm5.6,3.08v.2c.07.68.74,1.19,2.17,2a14.19,14.19,0,0,0,2.5,1.24c.32,0,1.52,2.33,1.52,2.94a.33.33,0,0,0,.37.3h0c.94,0,1-.46.28-2-.63-1.37-.74-2-.74-4.57A31.5,31.5,0,0,1,81,37.14L81.23,36l-1.22.2a6.72,6.72,0,0,0-4.43,3.07,4.89,4.89,0,0,0-.88,1.94ZM81,214.35a.62.62,0,0,0,.16.43,1.23,1.23,0,0,1,.08,1.24,6.08,6.08,0,0,0,0,2.29c.13.81.28,1.76.33,2.11a4.27,4.27,0,0,0,.58,1.39,3.47,3.47,0,0,1,.5,1,8.86,8.86,0,0,0,2.49,2.43,1.09,1.09,0,0,1,.58.41c.5.63,4,1.88,5.78,2.1a24.44,24.44,0,0,0,8-1.12c3.73-1.36,6.2-3.88,6.2-6.3,0-1.65,1.19-1.63,1.29,0,.06,1,.26,1,1.18-.36a6.59,6.59,0,0,0,.78-1.3c0-.09-.48-.26-1.07-.37a7,7,0,0,1-1.55-.45,39.69,39.69,0,0,0-5.35-1.61c-1.06-.29-2.22-.64-2.59-.78-.56-.22-.72-.15-.94.46a3.19,3.19,0,0,1-3.25,1.72c-3,0-4.07-1.45-2.36-3l.94-.88-.92-.18c-.5-.1-.91-.3-.91-.44s-.1-.23-.22-.2a24.4,24.4,0,0,1-5.39-1.8,3.15,3.15,0,0,0-1.37-.57c-1.4-.38-1.86-.2-1.87.72a8.23,8.23,0,0,1-.62,1.72,3.64,3.64,0,0,0-.42,1.37ZM82.81,37.11l.08,3.4a20.45,20.45,0,0,0,.34,4c.15.32.34.83.44,1.13.2.61,1,.47,2.24-.38a17.24,17.24,0,0,1,2.21-1.16c5.29-2.37,5.44-2.47,5.47-3.57a6.57,6.57,0,0,1,.58-2.22,7.3,7.3,0,0,0,.58-1.42,6.81,6.81,0,0,1,1-1.5c2.39-2.91,6.45-2.14,8,1.52.46,1.09.46,1.09,1.36.59,1.21-.67,1.22-.92.1-2.77a12.11,12.11,0,0,0-4.16-3.07,1.68,1.68,0,0,1-.64-.32c-.22-.18-.41-.17-.53,0a3.82,3.82,0,0,1-1.92.3c-1.8,0-2.67.37-5.21,2.22s-4.48,5.87-4,8.19c.15.74.09.81-.74.81s-.93-.12-1.1-1a2.54,2.54,0,0,1,0-1.34,4.37,4.37,0,0,0,.31-1.18,10.27,10.27,0,0,1,2-4.12,1.36,1.36,0,0,0,.47-.64c0-.72,3.27-3.5,5.15-4.38a8.76,8.76,0,0,1,7.18-.65c3.26,1,5.36,3.26,5.38,5.83,0,1.21.39,1.4,2,1a4.74,4.74,0,0,0,1.75-.7,4.83,4.83,0,0,0-.57-2.81,5.1,5.1,0,0,1-.59-1.33,6.74,6.74,0,0,0-.78-1.65,1.64,1.64,0,0,1-.38-.81c0-.46-1.92-2.32-2.92-2.84a7.82,7.82,0,0,0-1.81-.59c-1.77-.31-6.78-.4-7-.11s-.33.14-.56-.05-.45-.22-.56,0a7.07,7.07,0,0,1-2.27.76,17.7,17.7,0,0,0-3.54,1.24c-2,1.06-4.65,4.07-6.2,7.14l-1.3,2.55Zm4.28,179.35c0-1.31.37-2.13,1-2.13.13,0,.23.14.23.31a8.37,8.37,0,0,0,.6,1.7,4.92,4.92,0,0,0,2.29,2.47,10,10,0,0,0,5.91,1.76c1.83,0,2.12-.12,4-1.89.8-.76,1.93-1.05,2.37-.61s.22.58-1.44,2.27a8.64,8.64,0,0,1-2.43,1.86,2,2,0,0,0-1,.44c-.21.32-3.67.38-4.85.09a19.73,19.73,0,0,1-2.8-1.18c-2.81-1.41-3.84-2.77-3.84-5.09Zm5,14.46c0,1.87,1.53,4.46,3.47,5.94.77.58,1.54,1.18,1.71,1.32a7.61,7.61,0,0,0,1.92.64,7.84,7.84,0,0,1,2,.67,2.38,2.38,0,0,0,1.42.13,3.91,3.91,0,0,1,1.7.07c.72.27,4.35-1.18,5.29-2.12.78-.78.63-1.17-.86-2.18l-1.36-.94-1.34.75a7,7,0,0,1-6.8-.21c-2.32-1.18-3.1-2.28-2.87-4.05l.15-1.26-1.83.17c-2.44.22-2.58.28-2.58,1.07ZM93,214.27c0,.79.59,1.24,1.6,1.23a3,3,0,0,0,1.34-.28c.36-.22.34-.3-.15-.47l-1.58-.61c-1.24-.5-1.21-.5-1.21.13ZM95.1,40.21c0,.25.22.3.63.3a11.1,11.1,0,0,0,3.65-1.27,1.56,1.56,0,0,1,.85-.21,1.75,1.75,0,0,0,1.13-.54c.71-.78.61-1.16-.47-1.82-2.08-1.27-4.22-.46-5.27,2a4.65,4.65,0,0,0-.52,1.55Zm3.27,189.47a3,3,0,0,0,0,.6c.16,1.59.55,2,2.44,2.82s4.84.93,4.84.22c0-.22.14-.4.3-.4.34,0,.34-.41,0-1.54a13.83,13.83,0,0,1-.16-5c.35-1.24-.17-1.48-1.18-.55a16.61,16.61,0,0,1-5.09,3.06c-.91.28-1.16.38-1.19.84Zm2.53-208c0,.24,0,.48,0,.73s1.73,1.06,1.9.75A3.94,3.94,0,0,0,103,22a7.35,7.35,0,0,1,2.08-4.18l1.39-1.21c.83-.71,2.16-1,5.22-1.07a14.29,14.29,0,0,1,5.39.75c3,.89,3.5,1.16,4.13,2.37l.42.8,3.55-.9a11.87,11.87,0,0,0,3.52-1.22,8.67,8.67,0,0,0-1.89-3.08c-1.8-2-5.71-3.34-10-3.46-2.93-.08-6.94.46-8.41,1.13a5.46,5.46,0,0,1-1,.36c-.68.06-3.29,2.45-4.42,4a9.13,9.13,0,0,0-2.07,5.31Zm3.74.51c0,1,.08,1,1.59,1.4l1.57.4,1.41-1.4a13,13,0,0,1,2.26-1.85,4.15,4.15,0,0,0,1-.67,2.54,2.54,0,0,1,1.35-.26,5.56,5.56,0,0,1,3.37,1.28c.36.25.7.24,1.4-.08.53-.23.93-.63.93-.92,0-.88-1.41-1.5-5-2.18-3.76-.72-5.38-.61-7.26.51-1.45.85-2.69,2.6-2.68,3.77Zm3.07,205.48a4.88,4.88,0,0,0,.68,2.63c1.2,2.5,2,3.28,4.91,4.66,3.52,1.67,5.41,2.19,7.73,2.13,6-.16,9.78-1.36,13.11-4.21,2.41-2.06,3.47-3.8,3.65-6,.12-1.4.2-1.55.83-1.55.39,0,.7.18.7.39a.71.71,0,0,0,.26.55c.15.09.33-.25.4-.75s0-.94-.18-1a42.73,42.73,0,0,0-6-.54c-.22.09-.3.5-.19,1.15a2.36,2.36,0,0,1-.68,2.12,20.62,20.62,0,0,1-3.67,3.62,3.62,3.62,0,0,0-1,.73c-1,.82-4.2,1.7-4.75,1.27-.2-.16-.38-.14-.44,0-.14.39-5.75-.39-7.24-1a7.25,7.25,0,0,1-1.66-1,6.67,6.67,0,0,1-1.68-3.76,16.21,16.21,0,0,1,1.68-5.35c.87-1.33,1.33-.05.56,1.55-.65,1.31-.64,1.6.06,3.66.6,1.77.74,1.95,1.91,2.41a18.59,18.59,0,0,0,7.81,1.31,5.61,5.61,0,0,0,2.39-.47.43.43,0,0,1,.36-.3c.79,0,4.21-3,5.06-4.43.95-1.61.68-1.86-2.86-2.55-1.79-.34-4.76-.86-6.6-1.15-3.61-.56-3.86-.5-3.87.95,0,1,2,2.46,3.46,2.46s3-.53,2.85-1a.74.74,0,0,1,.3-.74c1-.81,1.55.68.76,2-1.24,2-5.17,2.79-7.23,1.38s-2.25-1.86-2.09-3.48a4.81,4.81,0,0,1,.5-1.85c.19-.23.3-.45.23-.5s-1.17-.32-2.47-.6a33.59,33.59,0,0,1-3.41-.91c-1.31-.5-1.8-.24-2.78,1.43-.82,1.39-1,2.19-1.29,5.49,0,.5-.08.9-.08,1.24Zm2-202.57.9,1.44a13.09,13.09,0,0,1,1.29,2.82c.22.76.5,1.31.63,1.23a.32.32,0,0,0,.07-.44,8.45,8.45,0,0,1,.73-3.5,10.72,10.72,0,0,0,.9-1.58,4.73,4.73,0,0,1,1.1-1.58c1-.39-.18-1.27-1.69-1.27-.7,0-1.28.35-2.43,1.44l-1.51,1.44Zm2.76,10.42a.29.29,0,0,0,.3.27c.16,0,.29-.2.29-.46s-.13-.37-.29-.27A.61.61,0,0,0,112.47,35.51Zm2-4.78a10.28,10.28,0,0,0,.5,3.44c.39.92.54,1,1.59,1s1.18-.1,1.3-.72a1.35,1.35,0,0,0-.16-1c-.2-.19-.15-1.05.11-2.55a5.27,5.27,0,0,1,1.89-3.8c1.83-1.89,3.09-2.87,3.44-2.66.14.09.26,0,.26-.1,0-.45,2.39-1.47,4.29-1.84a20.12,20.12,0,0,1,6.57.09,7.93,7.93,0,0,1,3.94,2.71,7.75,7.75,0,0,1,1.19,5.6,3.84,3.84,0,0,0-.2,1.3,5.11,5.11,0,0,0,1.46-.09c1.29-.2,1.67-.52,1-.9a1.45,1.45,0,0,1-.3-1,4,4,0,0,0-.59-1.76,4.1,4.1,0,0,1-.58-1.38c0-.91-2.32-4.47-3.4-5.21-3.35-2.3-9.32-2.48-14.16-.42-4.48,1.91-6.47,3.46-7.72,6a8.52,8.52,0,0,0-.46,3.25Zm4.86,1.89c0,.17,0,.34,0,.51.08,1.53.12,1.62.83,1.6a8.9,8.9,0,0,0,2.1-.55c1.26-.48,1.34-.58,1.15-1.3a4.74,4.74,0,0,1,3.3-5.84l.21-.05c2.2-.51,3.46-.44,4.88.27,2.21,1.1,3,3.9,1.43,5.17-.51.42-.48.44.45.28a18.53,18.53,0,0,1,2.58-.17h1.58l0-1.4a6.07,6.07,0,0,0-2-4.86,5.24,5.24,0,0,0-1.5-1.26c-.07.08-.45-.05-.81-.3a1.49,1.49,0,0,0-1.08-.28,4.12,4.12,0,0,1-1.64-.12c-.72-.16-1.23-.16-1.23,0s-.57.26-1.26.27a9,9,0,0,0-5.33,2c-2.73,2-3.68,3.55-3.68,6Zm5.7,207a4,4,0,0,0,.29,1,7.92,7.92,0,0,1,.43,1.79c0,.78.78,2,2.24,3.38,1.16,1.13,1.39,1.23,3.41,1.42l3.65.36a12.1,12.1,0,0,0,6-1.57,11.14,11.14,0,0,0,3.05-3.6,6.71,6.71,0,0,0,.81-1.71c0-.32-2.23-1.84-3.26-2.22-.33-.13-.69.27-1.28,1.4a4.92,4.92,0,0,1-4.52,2.93c-2.64.2-5.76-1.41-6.58-3.4-.36-.87-.42-.9-1.73-.7a13.73,13.73,0,0,0-2,.45c-.36.13-.52.2-.51.46Zm.3-207.17c0,.85.12,1,.57,1,.61,0,5.87-.61,5.94-.69a5.49,5.49,0,0,0,.21-2.17,3.87,3.87,0,0,0-1.17-1c-1.64-1-4.75-.68-5.3.57a7.11,7.11,0,0,0-.25,1.89v.41ZM130.83,238v0c.26.78,2.67,2.09,4.09,2.22,2,.2,2.79-.08,3.49-1.22a2.93,2.93,0,0,0,.16-3.27,2.07,2.07,0,0,1-.43-.94,4.89,4.89,0,0,0-.29-1.14l-.3-.78L136,234.15a38,38,0,0,1-3.42,2.38,4.67,4.67,0,0,0-1.71,1.44Zm2.71-221.06c0,.62.59,1,2.11,1.63l1.71.7.69-.74a2.74,2.74,0,0,0,.68-1c0-.15.27-.35.6-.45s.58-.35.58-.56.5-.65,1.12-1a4.13,4.13,0,0,1,2.88-.48c2.08.17,4.13,1.08,4.65,2.06l.37.71,1-.67a21.86,21.86,0,0,1,4.34-2c.66-.26,1-1.45.37-1.45-.16,0-.29-.26-.29-.57,0-.86-2.26-2.9-4.27-3.85a12.8,12.8,0,0,0-8.54-.56,14.45,14.45,0,0,1-2.08.55c-1.19,0-5.45,4.64-5.67,6.18,0,.23-.13.7-.22,1a2,2,0,0,0-.06.47ZM139.66,20a3.45,3.45,0,0,0,.85,2.05,6.92,6.92,0,0,1,.88,1.6,1.22,1.22,0,0,0,.47.68,1.18,1.18,0,0,1,.3,1.22c-.12.61,0,.83.27.83s.43-.29.43-.75c0-1,.9-2.67,2.21-4.12.58-.65,1.48-1.64,2-2.19.81-.86.84-1,.23-.63s-.76.31-1.05-.08a4.11,4.11,0,0,0-3.15-1.09,3.39,3.39,0,0,0-2.34.91c-.7.56-1.07,1-1.11,1.57Zm.06,231.75a2.23,2.23,0,0,0,.89,2.12,11.25,11.25,0,0,0,2.84,1.66c1.66.68,2.44.8,5.76.9s4,0,5.75-.55a18.26,18.26,0,0,0,2.66-1.12,47.35,47.35,0,0,0,5.55-3.75c1.41-1.26,1.28-2.16-.46-3.17a8.91,8.91,0,0,1-2-1.56c-.74-.92-1.7-3.26-1.52-3.71a1.08,1.08,0,0,0-.24-.83c-.32-.43-.59-.46-2.1-.2-2,.34-6.06.38-6.3.05a3.64,3.64,0,0,0-1.6-.22c-1.34,0-1.5.08-2.28,1.18-1,1.42-1,1.51-.27,1.71.47.12.57.32.42.88s0,.93.73,1.62a3.2,3.2,0,0,1,.91,1.3c0,.32.06.31.26,0s.38-.34.52-.25a8.6,8.6,0,0,0,1.75.34,6.37,6.37,0,0,0,3.62-.6,7.66,7.66,0,0,0,2.7-1.51,1.33,1.33,0,0,1,1.24-.62l.68.1-.82.83a13.13,13.13,0,0,0-1.31,1.57c-.48.74-2.46,1.8-4.52,2.44-1.12.35-4.09.15-4.55-.3a1.29,1.29,0,0,0-.78-.27.77.77,0,0,1-.67-.44.71.71,0,0,0-.62-.44.43.43,0,0,1-.45-.41,1.27,1.27,0,0,0-.45-.78,1.52,1.52,0,0,1-.44-1.07c0-.38-.08-.7-.17-.7a8,8,0,0,0-1.4,1.19,12.73,12.73,0,0,1-2.27,1.73c-1,.53-1,.61-1.07,2.33,0,.21,0,.39,0,.56Zm.14-21.78a7.63,7.63,0,0,0,.19,2c.12.32.35,1,.51,1.4a7.49,7.49,0,0,0,1.27,1.83c1.06,1.12,5.22,3.21,7.46,3.74s7.76.6,8.48.14a5.19,5.19,0,0,1,1.68-.55c3.29-.52,8-3.43,10.34-6.36a22,22,0,0,0,2.39-4.33c.09-.33.31-1.16.49-1.85.29-1.17.38-1.24,1.12-1.07a4.3,4.3,0,0,1,.92.3,8.19,8.19,0,0,1-.42,2.07c-.75,2.79-1.58,4.16-4.8,7.9a25.39,25.39,0,0,0-1.84,2.3,4.43,4.43,0,0,0,1.11.91,6.83,6.83,0,0,0,6,.58,3.43,3.43,0,0,0,2.14-2.51c.27-.83.7-.6,1.08.54.59,1.78-.5,3.35-3,4.29a8.65,8.65,0,0,1-8.34-1.35c-.86-.71-1.56-1.06-1.88-1a25.47,25.47,0,0,0-4.26,1.92c-.21.22.09.88,1,2.18a6.91,6.91,0,0,0,3.07,2.74c1.62.82,2,.89,4.57.84,6.47-.12,11.27-2.72,12.59-6.82.63-1.94.58-2.61-.22-2.87-.32-.1-.57-.3-.57-.45s-.22-.28-.47-.28c-.46,0-4.43-3.9-5.37-5.28-.65-.94-.69-1.68-.18-3.5s.9-2,1.15-.44a6.59,6.59,0,0,0,1.77,3.5,12.86,12.86,0,0,0,4.12,3.68,14.41,14.41,0,0,1,3,1.43c.52.31,1.08.46,1.29.33a4.35,4.35,0,0,1,2.68.59,2.77,2.77,0,0,0,1.56-.16,18.43,18.43,0,0,1,2.18-.58,11.15,11.15,0,0,0,5.76-3.44,7.73,7.73,0,0,0,2-2.57c0-1-.43-.95-1.16.12-.95,1.39-3.42,2.5-6.36,2.85-2.42.3-3.82.12-7-.85-1.67-.51-4.61-2.67-4.86-3.57-.1-.37-.29-.66-.42-.66s-.48-.77-1.35-3.77c-.14-.48-1.45-.46-4.7.07a31.1,31.1,0,0,1-3.73.44c-1.26,0-1.58.34-1.87,1.93a12.38,12.38,0,0,1-1,2.7c-1,2-5,6.16-6.66,6.86a26.88,26.88,0,0,1-6.43,1.58,21.5,21.5,0,0,1-8.13-1.75c-2.71-1.33-6-4.92-6-6.53,0-.6-.49-1.14-.77-.86a4.58,4.58,0,0,0-.17,1.65Zm2.27-5.13,0,1c.07,2.18,2.08,5.08,4.74,6.84s7.28,2.68,9.84,2c.72-.19,2-.5,2.87-.69a5.69,5.69,0,0,0,2.4-1.15,7.46,7.46,0,0,1,1.55-1.14,9.06,9.06,0,0,0,2-1.95,4.91,4.91,0,0,0,1.43-3.4l.16-1.8-2.55.16a13.63,13.63,0,0,0-2.7.31c-.09.09,0,.39.12.66.51.9-1.11,3.48-2.93,4.68-.52.34-1.73.54-4,.67-3.26.19-3.28.18-5.18-.76-1.69-.84-2-1.12-2.53-2.39a7.47,7.47,0,0,1-.62-2c0-.7-.44-.85-2.8-1l-1.77-.1ZM144.6,28.11a4.77,4.77,0,0,0,.48,2.26,1.85,1.85,0,0,1,.26,1.1c-.09.24.51.32,2,.28l2.14-.05.21-1.23a4.61,4.61,0,0,1,.56-1.65c.19-.23.25-.41.15-.41-.37,0,.71-2.13,1.78-3.48,1.58-2,3.57-3.9,4.09-3.9.24,0,.45-.12.45-.27a4,4,0,0,1,1.7-.92c2.71-1,5.15-.76,8.42.89,2.32,1.17,2.69,1.47,3.47,2.83,1.25,2.18,1.18,3.4-.33,5.73a13.8,13.8,0,0,1-1.85,2.38l-.64.52.74.18a23.08,23.08,0,0,0,5.74.46c1.22-.15,1.36-.38,1.77-2.84a4.5,4.5,0,0,1,.43-1.23c.7-1.32,0-4.31-1.3-5.83A15.88,15.88,0,0,0,169,18.37l-3.15-1.62h-4.39c-3.85,0-4.46.07-5,.55a1.24,1.24,0,0,1-1.2.35c-1.29-.41-5.87,2.33-8.38,5a8.54,8.54,0,0,0-2.31,5.47Zm3.51,197.47s.1.11.29.18a.57.57,0,0,1,.36.51c0,.54,2.23,2.5,3.4,3,2.56,1.06,6.38.22,7.12-1.57a10.65,10.65,0,0,0,.52-1.81l.18-1-5.81.19c-4.35.14-6.08.28-6.06.51ZM151.71,31v.88L155,32c1.83.1,5.19.13,7.47.09,4-.08,4.17-.11,4.87-.81a3.57,3.57,0,0,0,.83-1.3,2.16,2.16,0,0,1,.34-.86,4.09,4.09,0,0,0,.18-3.25c-.69-1.49-3.05-3.83-3.95-3.9-.45,0-1.69-.15-2.77-.26a5.31,5.31,0,0,0-3.92.78c-3.5,1.72-6.37,5.54-6.37,8.47Zm3-1.86a3.47,3.47,0,0,1,.69-1.72c1.52-2.24,2.72-2.92,5.19-2.94a5.69,5.69,0,0,1,5,2.3c.65,1,.75,2.74.2,3.4-1.45,1.77-2.51,1.83-1.8.1.44-1,.43-1.08-.38-1.94a4.19,4.19,0,0,0-3.16-1.6,4,4,0,0,0-3.8,2.16c-.51.88-.51,1-.07,1.67.67,1,.15,1.18-1,.3a2,2,0,0,1-.94-1.74ZM157,13.3c0,.61.59.81,1.92.86a66.09,66.09,0,0,1,7.16.51c.73.16.86.05,1.47-1.28.8-1.74.83-2.45.14-3-2.89-2.46-8.4-1.73-10.08,1.34a3.84,3.84,0,0,0-.6,1.61Zm12.23,1.56v.22a1,1,0,0,0,.36.82,11.14,11.14,0,0,0,3.15,1.55c0-.06.33-.71.65-1.44a6.68,6.68,0,0,1,6.73-4.26,9.41,9.41,0,0,1,2.73.61,11.39,11.39,0,0,1,3.85,4.36l.54,1.13,1.48-.18c.81-.1,1.95-.18,2.53-.18.85,0,1.13-.15,1.4-.76.42-.92.44-1.31,0-1.31a.3.3,0,0,1-.29-.31,4.08,4.08,0,0,0-.74-1.28,5,5,0,0,1-.74-1.18,8.08,8.08,0,0,0-1.92-2,11.13,11.13,0,0,1-1.5-1A24.36,24.36,0,0,0,182.71,7c-3.05-.79-6.49-.89-6.72-.19a.66.66,0,0,1-.6.34c-.58,0-3,1.89-3.81,2.95a10,10,0,0,0-2.31,4.75ZM174,18v.16c0,.34.21.53.66.87a17.09,17.09,0,0,1,3.24,3.5c.26.45.58.82.7.82A5.87,5.87,0,0,0,180,22.34,32.82,32.82,0,0,1,183.07,20a6.44,6.44,0,0,0,2-1.68c0-.64-2.17-3.26-3.19-3.85a4.87,4.87,0,0,0-2.51-.56c-2.72,0-4.75,1.4-5.23,3.5A5,5,0,0,0,174,18ZM177,33c0,.16.43.34,1,.39s1.12,0,1.14-.3c.15-1.65,1.48-3.79,3.66-5.85l2.08-2a2.77,2.77,0,0,1,.93-.66,4.65,4.65,0,0,0,1.12-.49,7.06,7.06,0,0,1,3.25-.47c2,0,3,.21,6.05,1.23A28.6,28.6,0,0,1,201,26.79c2.57,1.77,2.84,4.85.74,8.43a9.74,9.74,0,0,0-1,2.19c0,.26.49.47,1.4.59a9.81,9.81,0,0,1,2,.45,8.64,8.64,0,0,0,2,.42,2.62,2.62,0,0,0,2.56-.73,5.1,5.1,0,0,0,1.62-2.29c.27-.77.61-1.66.74-2a5,5,0,0,0,.16-3.54c-.41-1.29-1.59-3.4-1.89-3.4a8,8,0,0,1-1.52-1.18,10,10,0,0,0-1.5-1.18c-.1,0-.33-.33-.51-.74a1.12,1.12,0,0,0-1-.74,1.52,1.52,0,0,1-1.07-.44c-.44-.52-4.27-1.74-7.26-2.3-5.77-1.09-9.77-.4-13.27,2.26-2.38,1.82-3.77,3.72-4.26,5.85a5.52,5.52,0,0,1-.71,1.87A8.17,8.17,0,0,0,177,33Zm3.62,191.09c0,.17.07.29.25.29s.45.43.7,1a10,10,0,0,0,4.58,4.38,7.92,7.92,0,0,0,4.36,1,6.62,6.62,0,0,0,2.54-.23,1.13,1.13,0,0,1,.59-.36,7.59,7.59,0,0,0,3.36-1.31c1.63-1.1,2.94-3.6,3.58-6.79a10.62,10.62,0,0,1,.57-1.73c.52-1.25.53-1.35.06-1.18a41.5,41.5,0,0,1-4.5,1.21c-.49.08-2.08.42-3.54.77a44.9,44.9,0,0,1-5,.83l-2.36.22.1.88a4.61,4.61,0,0,0,3.11,3.13c1.22.33,3.59.13,3.87-.32a3.27,3.27,0,0,1,1.24-.61c1.38-.46,1.9-1,2.72-2.7s1.5-1.65,1.5.1c0,1.92-1.41,3.74-3.87,5-4.84,2.47-8.49,1.37-9.87-3a4.29,4.29,0,0,0-.87-1.81,6.32,6.32,0,0,0-2.58.36,1.07,1.07,0,0,0-.52.86Zm0-191.11c0,.65,1.08.92,5.18,1.84.56.13.64,0,.64-.9,0-1.27,1.28-3.28,2.72-4.26s2.6-.75,4.74.62c1.9,1.21,2.19,1.53,2.46,2.72.53,2.3.53,2.45-.1,3.07s-.84,1.08-.38.8a3.48,3.48,0,0,1,1.4.11c1.31.3,1.89,0,2.65-1.57a10.15,10.15,0,0,0,.61-2.83c.13-1.64.07-2.09-.45-2.92a5.12,5.12,0,0,0-1.5-1.47c-.48-.28-.88-.6-.88-.72s-.31-.22-.69-.22a1.63,1.63,0,0,1-.91-.23c-.83-.83-7.94-1.38-9.32-.72a5.7,5.7,0,0,0-2.16,1.47.42.42,0,0,1-.56.17c-.18-.11-.24-.06-.12.12a.43.43,0,0,1-.17.57A18.62,18.62,0,0,0,181,32.15a2,2,0,0,0-.31.81Zm7.05,1.21c0,.47.4.82,1.12,1a17.7,17.7,0,0,0,2.28.46,9.06,9.06,0,0,1,1.63.33,5.14,5.14,0,0,0,1.11.27c.6.07.66,0,.65-1.3a3.31,3.31,0,0,0-.57-2.05,4.74,4.74,0,0,1-.66-1,2.29,2.29,0,0,0-1.28-.56c-.64-.14-1.47-.34-1.85-.45s-.64-.09-.59.08-.34.78-.87,1.36a2.9,2.9,0,0,0-1,1.82Zm4.53,204.46v0a.47.47,0,0,0,.37.31,6.56,6.56,0,0,1,1.35.54,3.69,3.69,0,0,0,1.48.45,9.2,9.2,0,0,1,2,.29,29.59,29.59,0,0,0,10.86.09c3-.64,3.35-.87,6.43-3.8a21.48,21.48,0,0,0,4.94-6.53c.6-1.19,1.08-2.22,1.08-2.29a30.48,30.48,0,0,0-5,.34c-.25.08-.32.35-.19.76.31,1-1.53,4.3-3,5.33-2.38,1.74-3.42,2-7.1,1.87-4.53-.17-5.43-.36-5.76-1.23-.15-.38-.33-.7-.4-.7a9.9,9.9,0,0,0-1.26,1.07,10.93,10.93,0,0,1-4.67,2.83c-.68.19-1.22.46-1.24.63Zm8-4.88s0,0,0,0,.28,0,.42-.23.45-.33,1.09-.12a20.74,20.74,0,0,0,3.85.36c4.48.11,6.05-.71,7.63-4a9.39,9.39,0,0,0,.72-1.77c0-.17-.68-.54-1.51-.84-1.59-.56-2-.42-2,.71,0,.65-1.42,1.93-2.73,2.48a9.89,9.89,0,0,1-3.15.46h-2.05l-1.21,1.37a4.87,4.87,0,0,0-1,1.52Zm.53-6.22c0,.06.12.08.3.08a1.12,1.12,0,0,0,.79-.58,7,7,0,0,0,.56-3.71c-.18-.48-.23-.49-.25-.08a5.23,5.23,0,0,1-.35,1.33,7.89,7.89,0,0,0-.43,1.51,2.6,2.6,0,0,1-.43,1.11c-.14.16-.2.27-.19.33Zm2.82-8.48v0a10.58,10.58,0,0,1,.26,1.29,3.22,3.22,0,0,0,.43,1.24c.38.49.36,4.47,0,5.49-.49,1.26-.41,1.39.79,1.37,2.55,0,3.91-1.11,3.9-3.08,0-.7-.28-1.09-1.33-1.86-2-1.5-2.9-3.23-2.12-4.3.49-.67,1.69-.42,1.69.35a3,3,0,0,0,.74,1.35,3.82,3.82,0,0,1,.74,1.09c0,.12.4.31.88.42a2,2,0,0,1,1.2.76,1.08,1.08,0,0,0,.81.57,4.28,4.28,0,0,1,1.53.63,7.15,7.15,0,0,0,3.54.76,10.09,10.09,0,0,0,5.17-.78,24.19,24.19,0,0,1,3-.91,2.54,2.54,0,0,0,1.12-.73,7.8,7.8,0,0,1,1.68-1.23,7.38,7.38,0,0,0,1.55-1.1,14.82,14.82,0,0,0,2.68-6.2c.12-1,.36-1.77.6-1.86.52-.2.47-.41-.3-1.13a7.77,7.77,0,0,1-1.11-1.32l-.47-.73-2.19,1c-1.2.58-2.88,1.37-3.73,1.75-1.65.73-1.81,1-1.1,1.76.56.63.31,2-.55,3-1.62,1.87-5.29,2.65-6.63,1.4a2.23,2.23,0,0,1-.65-1.78c0-1.15,0-1.17-.92-1-1.58.28-3.5,1.3-3.5,1.85a4.67,4.67,0,0,0,2.1,2.85c1.76,1.2,6.54,1.57,7.37.58a1.39,1.39,0,0,1,1-.41c1.4,0,5.26-3.59,5.63-5.24.41-1.8.67-2.29,1.2-2.29.74,0,.83,1.47.22,3.58-.68,2.33-2.55,4.27-5.49,5.66-1.33.64-2.69,1.24-3,1.33a15.24,15.24,0,0,1-5.55.22c-2.94-.66-5.52-3.15-5.52-5.31v-.94l-1.4.21c-2.12.32-4.24,1.12-4.24,1.59Zm4.47-197c0,.5,2.24,2.51,2.8,2.51.25,0,.45-.11.45-.26s.63-.52,1.4-.85a4.27,4.27,0,0,1,3-.35,4.16,4.16,0,0,1,2.82,1.52,7,7,0,0,1,2.26,4.09c0,.62.08.65,1.55.47.85-.1,1.78-.19,2.06-.19.73,0,.66-1.08-.1-1.49-.34-.18-.54-.51-.45-.74a.64.64,0,0,0-.35-.7c-.4-.23-.44-.4-.17-.82s.18-.71-.45-1.46c-.82-1-2-1.63-5.05-2.89a7.58,7.58,0,0,0-4.5-.62c-2.67.16-5.24,1-5.24,1.78ZM211,39.9c0,.26,1.16.76,2.41,1a11.06,11.06,0,0,1,1.25.35c.37.14.47,0,.47-.74,0-2.43,3.72-6.59,6.6-7.4a9.6,9.6,0,0,1,7.43,1.18c3.29,1.77,3.32,1.79,4.15,3s1,2.62.43,4.63a7.19,7.19,0,0,1-2.25,3.15c-2,2-2.16,2.21-1.49,2.21a1.1,1.1,0,0,1,.73.39,4,4,0,0,0,1.5.75,5,5,0,0,1,1.56.72,8.74,8.74,0,0,0,1.85,1l1.48.63.1-.64a4.44,4.44,0,0,1,.78-1.55,13.66,13.66,0,0,0,2.34-5.28,13,13,0,0,1,.24-1.64,5.47,5.47,0,0,0-.35-2.8,4.24,4.24,0,0,1-.42-1.09c-.29-1.23-3.31-4.07-4.31-4.07a9.84,9.84,0,0,1-2-.77c-4.32-2-5.08-2.17-9.06-1.84a15.69,15.69,0,0,0-4.4.81c-.63.28-1.27.54-1.92.76a8.75,8.75,0,0,0-5.72,4.86,9,9,0,0,1-1,1.73,1.39,1.39,0,0,0-.37.63Zm1.52-13.64a4,4,0,0,0,.51,1.34,10.16,10.16,0,0,1,.76,2.74c.18,1.39.29,1.62.7,1.45s1.15-.44,2-.73a5.19,5.19,0,0,0,1.84-1c.49-.68.47-1-.13-1.9-1.53-2.33-3.26-3.29-4.81-2.65-.58.24-.84.43-.83.8Zm4.38,14.27c0,.49.78.3,1.36-.34,1.71-1.9,5.58-2.4,7.9-1s2.8,3.3,1.18,5.42c-.9,1.19-.63,1.71.74,1.41a6.26,6.26,0,0,0,3.06-2.52A4.16,4.16,0,0,0,231.7,41c0-1.7,0-1.78-1.55-3.33a6.19,6.19,0,0,0-2-1.6,7.46,7.46,0,0,1-1.67-.43,16.37,16.37,0,0,0-2.29-.59,6.78,6.78,0,0,1-1.33-.32c-.13-.08-.44.06-.7.32s-.46.39-.46.29-.38,0-.83.25c-1.58.81-3.9,3.74-3.9,4.92Zm.59,175a.79.79,0,0,0,.45.79,4,4,0,0,0,3.43-1.07c1.43-1.43,1-2.36-.8-1.76a13.67,13.67,0,0,1-1.4.4,4.56,4.56,0,0,0-1,.42,1.42,1.42,0,0,0-.66,1.22Zm1.2-172.84a0,0,0,0,0,0,0,26.65,26.65,0,0,0,5.16,1.77c1,.14,1.33.06,1.84-.42s.67-.67.45-1.46-2.1-1.81-3.06-1.84a7.14,7.14,0,0,0-4,1.29,1.39,1.39,0,0,0-.4.63Zm6.18,183.5c0,.34,2.83,1.35,4.82,1.72,1.77.33,2.57.23,6.74-.81a10.73,10.73,0,0,0,7-5.09,4.62,4.62,0,0,0,.63-1.79,2,2,0,0,1,.24-1,2.22,2.22,0,0,0,.07-1.3c-.13-.85-.35-1.09-1.26-1.44-1.07-.41-1.1-.4-2.06.62-2.3,2.44-6.57,4.38-8.71,4-.58-.11-1,.13-2,1.1a20.55,20.55,0,0,1-3.36,2.51,9.41,9.41,0,0,0-2.14,1.51Zm8-7.37a5.1,5.1,0,0,0,2.36-.11,9.86,9.86,0,0,0,1.89-1c.8-.52,1.59-.86,1.77-.76s.23.08.11,0,.05-.57.37-1c.58-.73.77-1.85.38-2.23a5.66,5.66,0,0,0-1.88-.2,8.78,8.78,0,0,1-2.74-.44c-1.45-.61-1.46-.6-1.31.81a9.38,9.38,0,0,1-.41,3c-.3,1-.54,1.85-.54,1.95Zm.37-10.09c0,.15.13.36.45.7,1.41,1.5,4.25,2.45,5.24,1.76.66-.46,1.56-2.08,2.34-4.2.45-1.22.88-2.5,1-2.84.17-.78-.32-1.14-.85-.62a6.09,6.09,0,0,1-1.43.8c-1.55.63-6.25,3.43-6.2,3.69s-.12.33-.34.46a.31.31,0,0,0-.17.24Zm4.4-157.77a.33.33,0,0,0,.07.16.81.81,0,0,0,.61.35,1.34,1.34,0,0,1,.8.38,9.82,9.82,0,0,0,1.72,1.06,14,14,0,0,1,3,1.77,1.36,1.36,0,0,0,.84.33,18.2,18.2,0,0,1,4.88,2.75c.46.37,1.46,1.1,2.23,1.6s1.45.83,1.52.72A7.89,7.89,0,0,0,252,57.9a34.75,34.75,0,0,1-2.7-4.12c-1.26-2.31-3.34-4.75-4.21-4.93a6.74,6.74,0,0,0-3.61.34c-1,.86-3.26,2-3.59,1.78-.13-.09-.21-.1-.21,0Zm4.17-5.27a.35.35,0,0,0,.06.17,2.71,2.71,0,0,0,1.51.3c1.69,0,3.83.53,4.27,1.07.26.31.45.33.75.08.49-.4.54-2.24.07-2.4-.26-.08-.26-.27,0-.74.42-.79.41-1.19-.08-2.29-1.12-2.55-5.78-4.64-5.56-2.5.27,2.56-.24,6.19-.86,6.19a.14.14,0,0,0-.16.11v0Zm.38,166.1v.16a1.3,1.3,0,0,0,.09.4c.76,2,4.2,3.19,7,2.39a2.57,2.57,0,0,0,1.49-1.42c.57-1.09.59-1.37.3-4.56l-.32-3.39-.88,0c-.49,0-1.35.07-1.92.12a9.57,9.57,0,0,1-2.07-.14c-1-.2-1-.17-1.7,1.26a9.09,9.09,0,0,0-.66,1.76,8.92,8.92,0,0,1-.74,1.78,4.51,4.51,0,0,0-.57,1.6ZM245,201.45c.06.53.86,1.11,2,1.42a2.43,2.43,0,0,0,2.21-.11c.48-.26,1.44-.74,2.14-1.07,1.82-.87,3-1.78,3.29-2.5.63-1.68.58-3.73-.09-3.73a25,25,0,0,0-3.53,2c-1.74,1.1-3.79,2.33-4.54,2.74a4.91,4.91,0,0,0-1.47,1,.6.6,0,0,0,0,.23ZM250.94,50a5,5,0,0,0,.84,2.43,24.33,24.33,0,0,0,1.75,2.84c1.48,1.9,2.21,3.47,1.83,3.92s-.25.69,1.06.56l1.13-.11.06-3.52a36.46,36.46,0,0,1,.34-4.78c.22-1.24.38-2.5.48-3.76.2-2.48.19-2.52-.53-2.85-1-.47-3.47-.23-5.19.5l-1.46.63L251,48.25c0,.58-.08,1-.1,1.38V50Zm2.18,153.69a7.71,7.71,0,0,0,.29,1.58,11,11,0,0,1,.4,2.48c-.05,1.09,2.21,5.4,2.83,5.4a29.9,29.9,0,0,0,6.21-3.32A14.7,14.7,0,0,0,264,208.3c1-1.5.91-2.55-.37-3.9a16.84,16.84,0,0,0-4.61-3.28c-1.4-.6-2.23-.42-3.71.83a6.8,6.8,0,0,1-1.73,1.18c-.34,0-.5.14-.5.57Zm2.49-141.64a8.5,8.5,0,0,0,2.14,1.68c1.17.77,2.71,1.86,3.41,2.42,1.4,1.13,1.95.94,1.54-.52-.27-1-.1-1.51.46-1.51s.51-.7-.13-1.29c-1.39-1.25-7.42-1.88-7.42-.78Zm.76,131.77c0,.13.11.27.3.48.45.5.54.5,2-.09a80.62,80.62,0,0,1,8-2.6,3.36,3.36,0,0,0,1.3-.76,2.07,2.07,0,0,0,.9-2c0-1.85-1.54-4.07-2.45-3.54-.23.13-1.4,1.13-2.6,2.21a45.86,45.86,0,0,1-5.28,4.37,19.47,19.47,0,0,0-1.7,1.29c-.34.31-.5.47-.49.64Zm2.18,3.35c-.09.36,1.31,1.44,2.81,2.16,1,.46,2,1,2.36,1.21l1.77,1.12c2.07,1.31,2.69,1.49,3.18.92a5.88,5.88,0,0,0,.8-1.53A17.08,17.08,0,0,0,270,198a5.31,5.31,0,0,0-.33-3.17c-.29-.6-.66-1.1-.82-1.1a5.22,5.22,0,0,0-1.4.69,15.5,15.5,0,0,1-6.69,2.46,13.51,13.51,0,0,0-2.2.28s0,0,0,.06Zm1.57-137.49c0,.33.54.6,1.3.6a1.13,1.13,0,0,1,.83.3c.35.57,1.42.28,2.62-.7.67-.55,1.86-1.4,2.64-1.9a29.37,29.37,0,0,0,4.83-3.85,3.41,3.41,0,0,0,1-1.45c0-.79-2.73-3.18-4.6-4-1-.43-1.94-.89-2.18-1a5.4,5.4,0,0,0-1.59-.31c-1-.08-1.3.07-2.28,1-1.46,1.43-1.66,2.12-1.9,6.76a17.75,17.75,0,0,1-.52,4.23.57.57,0,0,0-.12.26v.07Zm4.18,8.77v.09c0,.41.46.83,1.58,2a5.65,5.65,0,0,0,1.19,1,3.56,3.56,0,0,1,.9,1c.38.57.81,1,.95,1s.44.37.67.82a7.94,7.94,0,0,0,1,1.4,13.1,13.1,0,0,1,1.37,2c.46.78,1,1.32,1.13,1.21s.19-.27-.07-.42-.09-.57.78-1.53a21.67,21.67,0,0,0,2.77-3.43c1.08-2-.28-4.2-3.65-5.85a23,23,0,0,0-2.16-1c-.05,0-1-.12-2.18-.32-2.46-.41-3.24-.18-3.95,1.2a2.18,2.18,0,0,0-.3.78Zm1.29-5.64a.61.61,0,0,0,.21.33,3.76,3.76,0,0,0,1.84.58,20.8,20.8,0,0,1,6.16,1.49c1.46.6,1.92.68,2.43.4.34-.18.62-.43.62-.56a2.77,2.77,0,0,1,.66-.93A7.06,7.06,0,0,0,279,59.92c-.11-1-3-4.05-3.81-4.05a1.64,1.64,0,0,0-1,.51c-1.76,1.91-2.38,2.45-3,2.61-.4.1-.73.28-.73.4s-.34.37-.75.56a5.79,5.79,0,0,0-1.1.65c-.2.16-1,.71-1.76,1.2s-1.18.78-1.16,1Zm6,117.93c0,1.22,3.63,2.7,6.47,2.64a17.28,17.28,0,0,0,6.78-2.15,2.75,2.75,0,0,1,.94-.54,17.56,17.56,0,0,0,2.41-2.15c3.46-3.41,5.33-6.63,6.13-10.54.78-3.76.44-5.46-1.85-9.29-1.25-2.1-3.95-5.46-4.38-5.46s-.65,2.08-.29,2.87a21.43,21.43,0,0,1,.79,3.44c.25,1.48.56,3.38.7,4.22a19.62,19.62,0,0,1,.18,3.25c0,.94-.1,2.4-.12,3.23a3.38,3.38,0,0,1-.78,2.4c-.4.48-.66.93-.59,1,.29.29-1.25,1.4-2.81,2-2.28.9-8.42,1.15-9,.36-.39-.49-.44-.48-.92.16-.28.38-1.21,1.43-2.06,2.34a6.48,6.48,0,0,0-1.55,2.19Zm1.8-101a2.45,2.45,0,0,0,.74,1.12,10.35,10.35,0,0,1,1.3,1.86,9.32,9.32,0,0,0,1.15,1.69,2.19,2.19,0,0,1,.62,1,.29.29,0,0,0,.22.31c.12,0,.46.5.75,1.1a13.62,13.62,0,0,0,1.69,2.44A5.87,5.87,0,0,1,281,90.88a1.21,1.21,0,0,0,.45.7c.35.29.44.29.44,0a2.12,2.12,0,0,1,.6-1l.6-.64-.62-.78a2,2,0,0,0-1-.79c-.49,0-.91-1.4-.54-1.78s1.65.32,2.88,1.32a2.45,2.45,0,0,1,1,2.13c.16,1.82-.14,2.23-1.64,2.27-1.34,0-1.53.4-.63,1.22a24.4,24.4,0,0,1,3,4.74,18.13,18.13,0,0,0,1.2,1.92,14.49,14.49,0,0,1,1.16,1.83,1.18,1.18,0,0,0,1,.79c.33,0,.45-.09.24-.17-.76-.31-.32-1.17,1.2-2.35a9.18,9.18,0,0,0,2.21-2.44c.76-1.45.8-1.8.2-1.8-.84,0-.52-1.42.45-1.92,1.2-.62,1.17-1-.37-4.35a5.11,5.11,0,0,0-1.28-2c-.2,0-.44-.33-.54-.73a5.36,5.36,0,0,0-1.06-1.74,3.88,3.88,0,0,1-.89-1.34.32.32,0,0,0-.34-.32,3.67,3.67,0,0,1-1.25-.7,15.18,15.18,0,0,0-5.59-2.54,6.06,6.06,0,0,0-1.85-.23,5.08,5.08,0,0,1-1.69-.23c-1.29-.3-1.66-.29-2.12,0-.74.55-1.91.52-1.91,0a.44.44,0,0,0-.44-.44h0c-.29,0-.43.09-.42.26Zm4.36,93.65a1.51,1.51,0,0,0,0,.3c0,.44.36.51,2.5.51,3.63,0,5.61-1,6.66-3.39a26.11,26.11,0,0,0,.42-7.38,3.66,3.66,0,0,0-.75-1.22c-.47-.51-.52-.76-.27-1.24.48-.89.39-1.52-.2-1.52-.34,0-.84.58-1.39,1.59-.8,1.48-.82,1.63-.4,2.28a16.31,16.31,0,0,1,1.59,4.1c-.08,0,0,.31.13.7.37,1-.09,1.47-2.06,2.19-1.46.53-1.75.55-2.79.2a2.58,2.58,0,0,0-1.45-.21c-.73.45-1.36,1.11-1.36,1.44a.5.5,0,0,1-.27.45c-.25.09-.38.52-.37,1.2Zm1-88a1.21,1.21,0,0,1,1-1.06,9.45,9.45,0,0,1,4.53.61c1.86,1,5,4.7,5,5.92a1.16,1.16,0,0,0,.4.7h0c.49.4.22,2.3-.48,3.37S287,96.48,286.44,96s-.57-1.08,0-1.4a4.1,4.1,0,0,0,1-1.36,1.87,1.87,0,0,0,.12-2.17,11.56,11.56,0,0,0-3.31-4.13c-.86-.66-1.37-.8-3.07-.85a6.77,6.77,0,0,1-2.32-.34.55.55,0,0,1-.16-.38Zm2.47,82.28v.12c0,.4.44.52,1.28.52,1.3,0,1.46-.3,1-1.76a7.61,7.61,0,0,0-.66-1.56c-.11-.12-.58.46-1,1.29a4.19,4.19,0,0,0-.56,1.39ZM289,150.58c0,.35.26.76.92,1.49a20.63,20.63,0,0,1,2.89,3.74,3.49,3.49,0,0,0,.68,1.06l.68.82.76-.76a8.76,8.76,0,0,0,1.4-2.12c1.41-3,.82-4.95-1.43-4.77a22.61,22.61,0,0,1-3.08-.15c-1.43-.17-2.12-.14-2.43.12a.92.92,0,0,0-.39.57Zm.19-45.15.14,1c.08.53.35,1.69.6,2.58s.53,2.09.62,2.66a43.72,43.72,0,0,0,1,5.31,9,9,0,0,1,.32,2.07c0,1.23.42,2,.84,1.62A51.81,51.81,0,0,0,296,114a5.9,5.9,0,0,1,.55-1.41,10.05,10.05,0,0,0,.76-2.2c.17-.94.11-1.11-.33-1.13s-.38-.09-.17-.17c.68-.28.38-.94-.88-2a7.86,7.86,0,0,0-5.23-1.7Zm.21-2.57.74.22a11.78,11.78,0,0,0,2.36.27,15.7,15.7,0,0,1,2.81.31c.88.2,1.27.17,1.57-.12,1.3-1.29-.15-6.63-1.81-6.66-.32,0-.45.13-.34.32s-.08.7-.42,1.17a3.49,3.49,0,0,0-.63,1.09c0,.45-2.49,2.69-3.39,3.05l-.89.35Zm.82,43.79c-.06.66.94,1,3.69,1.16,3.31.23,5-.36,5.77-2,.71-1.5.54-3.75-.63-8.18-.57-2.14-.62-2.21-1.43-2.14-.46,0-1.8.15-3,.26l-2.14.19,0,1.22a9,9,0,0,1-.84,3.86,27.54,27.54,0,0,0-.75,2.8c-.27,1.22-.55,2.44-.62,2.72a.61.61,0,0,0,0,.13Zm2.11-14a1.27,1.27,0,0,0,.05.34c.14.38.6.48,2.14.48,2.47,0,3.27-.42,4.1-2.07a6,6,0,0,0,.65-2.06c0-1.31-.94-3.89-1.42-4.07-.74-.28-1.29-.93-1.13-1.34s-.61-1.43-1.56-1.87c-1.16-.55-2.39-.67-2.55-.24a13.31,13.31,0,0,0,.3,3,8.67,8.67,0,0,1,.18,3.25,8,8,0,0,0-.24,2.19,4,4,0,0,1-.32,1.9,1,1,0,0,0-.19.54Zm3,27.06a2.19,2.19,0,0,0,.3.82,1.52,1.52,0,0,0,1.55,1,7.45,7.45,0,0,0,5.46-2.08,5.39,5.39,0,0,0,1.77-3.37,19.61,19.61,0,0,0,.27-6.66c-.17-.89-2.07-3.88-2.46-3.88-.17,0-.46.36-.66.81a6.68,6.68,0,0,1-2.52,3.06c-.67.26-.68.3-.23,1,.62.95.6,2.06-.07,4a11.15,11.15,0,0,1-2.86,4.55c-.38.32-.56.48-.55.71Zm.91-39.32s0,.08,0,.09.73.55,1.34,1l1.11.81,2.13-1.16a27.52,27.52,0,0,1,3.76-1.69,10.21,10.21,0,0,0,2.4-1.1c.69-.51.77-.77.78-2.42a4.63,4.63,0,0,0-.48-2.56c-1.56-2.29-3.85-3.87-5.21-3.62-1.86.33-2.41,1-3,3.38a25.89,25.89,0,0,1-1.75,4.5,12.76,12.76,0,0,0-1.12,2.77Zm3.82,3.65a8.35,8.35,0,0,0,.58,2.08c.42,1.2.8,2.23.85,2.27a10.47,10.47,0,0,0,1.76.23,22.18,22.18,0,0,1,5,1.44c4.46,1.75,4.88,1.82,5.19,1a31.09,31.09,0,0,0,.41-6.25,3.42,3.42,0,0,1-.25-1,3.32,3.32,0,0,0-1.89-2.73,4.23,4.23,0,0,0-4.61.11,3.5,3.5,0,0,1-1.4.74.59.59,0,0,0-.54.28c-.05.15-.43.32-.83.37a3.46,3.46,0,0,0-1.13.35,2.48,2.48,0,0,1-1.35.06,1.33,1.33,0,0,0-1.46.36.92.92,0,0,0-.31.66Zm.68,10.08a16.93,16.93,0,0,0,.64,4.18,11.34,11.34,0,0,1,.47,2.65c-.13.39,1.62,2.46,2.73,3.22a2.93,2.93,0,0,0,1.3.51,7.74,7.74,0,0,0,3.11-2.19,5,5,0,0,1,.81-1,7.46,7.46,0,0,0,1.14-1.55c.75-1.46.35-4.14-.62-4.14a.83.83,0,0,1-.62-.37,22.34,22.34,0,0,0-3.77-2.94c-1.35-.92-2-1-3.21-.37a3.81,3.81,0,0,1-1.24.43c-.48,0-.73.55-.75,1.54Z"/></g></g></svg>