<svg xmlns="http://www.w3.org/2000/svg" viewBox="0 0 255.16 294.36"><defs><style>.cls-1{fill:#b69564;}</style></defs><g id="圖層_2" data-name="圖層 2"><g id="圖層_1-2" data-name="圖層 1"><path id="Path_55354" data-name="Path 55354" class="cls-1" d="M129.44,0a11,11,0,0,0-2.84.49c-.77.2-1.5,2.05-1.42,3.59l.06,1.14L124,4.33A9.89,9.89,0,0,0,120.94,3a5.18,5.18,0,0,0-3.77.29,7.11,7.11,0,0,0-2.4,1.31c-.6.76-.53,3.68.12,4.59.31.44.32.64,0,.65s-.43-.11-.43-.26c0-.37-6.89-2.66-9-3a8,8,0,0,1-1.6-.41c-2.22-1.15-12.2-1.08-15.66.11a13.73,13.73,0,0,1-1.8.39c-.67.1-2.3.43-3.62.75s-3,.66-3.66.76A10.7,10.7,0,0,0,76.71,9a7.6,7.6,0,0,1-2.43.64,21.94,21.94,0,0,0-4.14,1c-1.62.53-3.58,1.12-4.35,1.3a24.66,24.66,0,0,0-2.41.7c-.87.32-3,.67-9.88,1.62-.89.13-2.07.31-2.63.41s-2.46.34-4.24.53-4.22.53-5.42.77a30.85,30.85,0,0,1-5.68.34c-15.06-.42-18.12-1.3-19.67-5.68-.52-1.47,0-2.46,1.68-3.51s3.36-1.3,7.52-.84c2.39.25,3.14.5,4.19,1.34,2.2,1.77,2.14,3.18-.15,3.74a1.91,1.91,0,0,1-2.47-1.09c0-.09-.06-.19-.08-.28-.22-1.06-1.77-1.16-2.84-.19C21.59,11.76,26.13,15,29.59,14c4.55-1.3,5.58-3.76,2.77-6.67-1.67-1.74-2.74-2.17-7.24-2.9C20,3.6,16.68,4.2,14,6.47L12.24,7.93l.37,2.22a8.3,8.3,0,0,0,1,2.95c1,1.18.78,1.33-1.91,1.4A14.79,14.79,0,0,0,3,18C1.65,19.07,1.31,19.68.61,22.29a9.44,9.44,0,0,0-.29,5.78c.5,2.55.65,2.83,2.06,3.78A8.61,8.61,0,0,0,6,33.18a7,7,0,0,0,4.3-.48A6.1,6.1,0,0,0,13.93,30c1.23-1.68,1.41-2.19,1.32-3.88-.16-3.12-1.95-4.44-4.65-3.41-2.39.91-3.11,2.57-1.41,3.25a2.16,2.16,0,0,0,1.89-.07l1-.43-.18,1.62a3.79,3.79,0,0,1-2.82,3.5,3.12,3.12,0,0,1-2.85,0,3.15,3.15,0,0,1-2.17-1.88C2.87,26.07,4,20.73,6,19.35A18.61,18.61,0,0,1,8.63,18c.93-.38,1.68-.83,1.67-1,0-.7,3.78.54,5.6,1.82,3,2.11,3.38,3.32,3.77,12.19.29,6.58.16,8.58-1.21,17.87-.19,1.32-.46,3.24-.59,4.27-.3,2.34-1.15,7-1.42,7.88-.13.44-.24.89-.33,1.34s-.53,2.22-1,4-1.28,4.73-1.73,6.43S12.3,76.7,12,77.64a24.86,24.86,0,0,0-.65,2.4,10.4,10.4,0,0,1-.7,2,21.74,21.74,0,0,0-1,4.12c-.24,1.56-.6,3.45-.8,4.2-.9,3.42-1.33,10.11-1,15.67.42,7.41,1.2,10.94,3.42,15.33,3.3,6.53,3.63,7.17,4.06,7.75.78,1,.5,1.26-1.7,1.34a7.77,7.77,0,0,0-2.44.33,2.87,2.87,0,0,1-1.25.33A4.08,4.08,0,0,0,8,132c-.8.7-.88,1-.54,1.85a6.78,6.78,0,0,1,.46,1.94A3.42,3.42,0,0,0,9,137.64a5.52,5.52,0,0,1,1.08,1.18,3.72,3.72,0,0,1-1.68.27c-1.9.07-4.15,1.37-4.68,2.7-.31.79,1.23,4.58,2,4.81a.61.61,0,0,1,.35.54c0,.65,1.12.92,4.1,1l2.64.1-1.43,1.24c-2,1.72-4.11,5.13-4,6.46a3.15,3.15,0,0,0,.88,1.85c.7.66,1.15.76,3.08.65a8.62,8.62,0,0,0,3.24-.71c.91-.55,1-.55.76,0a4.63,4.63,0,0,1-.92,1.31,8.06,8.06,0,0,0-1.8,4.14c-.14.76-.48,2.3-.75,3.43a25.54,25.54,0,0,0-.61,4.27c-.06,1.21-.26,3.18-.43,4.36a5.79,5.79,0,0,0,0,2.52,26.17,26.17,0,0,1,.84,4.63,71.6,71.6,0,0,0,1.31,7.28c2.17,8.42,2.8,10.66,3.72,13.27A37.28,37.28,0,0,1,18,208.36a48.3,48.3,0,0,0,1.55,6.19,20,20,0,0,1,1,3.89c-.23.35.9,5.54,1.29,5.93a11.79,11.79,0,0,1,1.09,4c-.06.26,1.21,5.57,1.82,7.63a68.82,68.82,0,0,1,1.47,11,36.67,36.67,0,0,0,1,6.59c1.1,4.15,1.75,10.16,1.35,12.53a12,12,0,0,1-4.39,7c-3.51,2.25-5.8,2.67-7.75,1.41-2.13-1.37-3.54-6.31-2.34-8.19s3.15-2.3,5.6-1.43c1.55.54,2.12,1.61,1.59,3-.3.74-.61.89-1.92.94s-1.65.21-2,1c-.24.5-.39.93-.32.95a19.63,19.63,0,0,0,3.72.75,3.87,3.87,0,0,0,3.65-4.08,3.64,3.64,0,0,0-.17-.93,3.69,3.69,0,0,0-2.06-2.68,10.75,10.75,0,0,0-7.69-1.6,6.67,6.67,0,0,0-4.29,4.3,11.94,11.94,0,0,0,.8,6.36c.84,1.76,4.08,4.5,5.79,4.91s5.18,0,6-.6a1.41,1.41,0,0,1,1-.29c.27.06-.28,1-1.24,2.2a29.22,29.22,0,0,0-2.31,3.2c-.65,1.19-.72,3.18-.12,3.69a6.45,6.45,0,0,1,.93,1.83c.54,1.43,1.3,2.18,5.06,5,1.13.85,2.65,1.32,5.21,1.61a10.65,10.65,0,0,0,3.58-.7c1.85-.64,2.6-1.12,3.17-2,.4-.64.89-1.16,1.08-1.17.62,0,1.15-2.88.83-4.51a7.17,7.17,0,0,0-5.45-5.75c-1.7-.43-3.14-.15-3.64.72a3.87,3.87,0,0,0,.2,3.4c.89,1.26,2.86.35,2.77-1.28,0-.55.18-.88.56-.9.79,0,2.71,1.26,2.74,1.83a.42.42,0,0,0,.38.44c.4,0,.44,2.51,0,3.7a5.77,5.77,0,0,1-2.78,2.67,7,7,0,0,1-5.22.4c-3.2-1-6.66-4.65-6.41-6.67a7.83,7.83,0,0,1,1.88-4,10.07,10.07,0,0,0,1.46-1.81,5.26,5.26,0,0,1,2-1.62c.83-.38,1.95-1,2.49-1.29.81-.49,1.45-.56,3.64-.4l6.33.44a48.25,48.25,0,0,1,4.9.51c.67.15,1.87.33,2.65.41a6.07,6.07,0,0,1,1.93.47,22.19,22.19,0,0,0,5.61,1.46c.39,0,.72.13.73.32a.25.25,0,0,0,.24.25h.09a54.38,54.38,0,0,1,6.14,2.61c3.2,1.49,6.94,3.1,8.31,3.59s3.33,1.24,4.36,1.7a29.91,29.91,0,0,0,3.32,1.21c.8.22,2.1.61,2.89.88a12.76,12.76,0,0,0,2.27.56,14.26,14.26,0,0,1,2.06.45,31.46,31.46,0,0,0,6.72.17c5.3-.22,5.63-.27,9.88-1.69a38.7,38.7,0,0,0,5.57-2.22c.65-.42,1.47-.92,1.84-1.12s1.48-.9,2.5-1.57,2-1.1,2.12-1,0,.37-.38.56c-.69.35-1.21,1.67-1.54,3.86-.17,1.15,0,1.4,1.15,2.25a3.89,3.89,0,0,0,5.06-.06l2.14-1.7a13.53,13.53,0,0,0,2.06-2.22c1.67-2.24,2.06-2.17,2.25.39.26,3.55,2.31,6,5.31,6.25,1,.09,1.48-.15,3-1.59a25.51,25.51,0,0,0,2.32-2.44l.54-.74,3,.86c3.15.91,4.82,1.06,4.78.43,0-.26.17-.26.6,0s.83.19,1.75-.73a5.48,5.48,0,0,0,1.19-5.09c-.26-.86-.23-.85,1.14.28a15.51,15.51,0,0,0,6.77,2.6,18.42,18.42,0,0,1,2.46.34c1.48.3,13,.85,14.48.7a54.92,54.92,0,0,0,9.53-1.65,19,19,0,0,1,2.35-.78,9.06,9.06,0,0,0,1.6-.52,45.88,45.88,0,0,1,6.21-1.78c4.75-1.15,5.81-1.45,6.2-1.73s2.73-.79,9.27-2.07a110.06,110.06,0,0,1,13.54-1.68c5.4-.39,5.53-.38,8.78.53,4.36,1.21,5.84,2.28,6.35,4.6.26,1.2.24,1.81-.07,1.91a.91.91,0,0,0-.41.89c.12,2.21-4.3,5.09-7.25,4.75-2.65-.32-3.8-2-2.9-4.33.49-1.23,1.42-1.48,2.56-.65,1.34,1,3,.84,3.57-.26.36-.75.27-1-.73-1.67s-1.56-.8-3.32-.73-2.34.22-3.41,1.2c-2.88,2.62-2.86,7,0,7.72.66.17,1.21.47,1.22.67s.62.57,1.36.81h0c1.74.55,2.18.53,4.8-.21,2.47-.7,3.63-1.58,5.65-4.28,1.61-2.14,2.39-4,2.34-5.52a6.58,6.58,0,0,0-3-5c-2-1.18-6.69-3-7.65-2.93a4.37,4.37,0,0,1-1.51-.27,11.87,11.87,0,0,0-1.95-.5c-1-.16-.44-.3,2.41-.62a25.06,25.06,0,0,1,4.66-.22,6.17,6.17,0,0,0,1.48.12c.26-.05.58.35.74.87.38,1.3,3.41,4,5,4.53,4.21,1.3,8.92.28,11.35-2.45,2-2.28,3.41-5.79,3-7.49a14.92,14.92,0,0,0-3.43-5.35,9.78,9.78,0,0,0-5.36-1.87,8.57,8.57,0,0,0-4.28,2.83,2.56,2.56,0,0,0-.46,2.71c.66,2.85,1.67,3.81,3.92,3.74a2.19,2.19,0,0,0,2.3-2.06,2.09,2.09,0,0,0,0-.56c-.09-.9-.25-1-1.32-1s-1.24-.09-1.4-1,0-1.16,1.45-1.85l1.63-.77,1.46,1.16a9.06,9.06,0,0,1,1.47,1.29,19.78,19.78,0,0,0,.88,1.79c.74,1.38.8,1.76.4,2.48a8.59,8.59,0,0,0-.69,1.72,6.39,6.39,0,0,1-1.51,2.16,6,6,0,0,1-3.6,1.78c-2.16.46-2.42.45-4.2-.26-2.34-.93-3.05-2.05-3.77-6a30.06,30.06,0,0,0-1.25-4.67c-.58-1.44-.7-2.69-.66-6.26,0-2.45,0-6,0-7.86a42.17,42.17,0,0,1,.24-5.27,17.75,17.75,0,0,0,.24-2.73,81.53,81.53,0,0,1,.32-8.84c.21-.94.58-5.58.68-8.52a10.14,10.14,0,0,1,.41-2.73c.46-1.13.67-3.18.76-7.33,0-1.87.19-4.4.34-5.62s.46-3.82.69-5.8.47-4,.54-4.6.43-2.49.8-4.28c1.35-6.5,1.33-6.4,1.59-13.3.18-4.95-.35-9.8-1.33-12.18-.49-1.19-3.21-6.21-4.1-7.58-.64-1-.37-1.16.89-.62,4.15,1.8,6.51,2.06,8.13.93.77-.55.92-1,.87-2.52-.06-1.79-.17-2-2.29-3.84-2.42-2.14-2.58-2.37-1.58-2.4a5.93,5.93,0,0,0,4-3,6.3,6.3,0,0,0,.3-4.38,12.11,12.11,0,0,0-3.51-1.69c-1.49-.25-2.38-.53-2.27-.73,1.61-2.78,2.48-5.31,2.14-6.23-.28-.76-4-2.32-6.26-2.64-1.51-.22-1.47-.18-1-1.24a29,29,0,0,0,1-4.22c.33-1.87.85-4.26,1.16-5.3a45.14,45.14,0,0,0,.58-12.76c-.2-1.12-.46-2.64-.57-3.38-.2-1.43-2.15-6.83-4.47-12.4-.76-1.84-2.08-5.46-2.93-8s-1.85-5.51-2.23-6.5a4.94,4.94,0,0,1-.5-2,3.76,3.76,0,0,0-.46-1.74,51.43,51.43,0,0,1-2.31-9.14c-.29-1.57-.66-3.47-.81-4.21-1.37-6.47-2.27-26.26-1.47-32.56.16-1.31.32-3.3.34-4.43.05-2.43,1.09-5.32,2.35-6.55,1-.92,3.62-1.84,6.68-2.29,2-.3,2.27-.13,3.88,2.14,1.14,1.62,2.18,6.86,1.64,8.23s-1.49,2.25-2.8,2.29-3.18-1.14-3.33-2c-.5-2.92-.39-3.71.5-3.47a.93.93,0,0,1,.63.78c0,.54.8,1,1.67,1s.69-1.84-.4-3.56-1.3-1.82-2.34-1.78c-.66,0-1.18.2-1.17.38s-.19.35-.45.36a3.45,3.45,0,0,0-1.39.93c-.81.8-.9,1.21-.74,3.21.25,3,1.84,5.57,4,6.43s5.41.73,6.52-.2c2.18-1.8,2.71-4.5,1.75-9.07-1-5-3.13-7.27-7.7-8.33-.72-.16-.72-.24.07-1.47.67-1,.8-1.78.66-3.62-.18-2.35-1.11-4.6-1.88-4.58a.4.4,0,0,1-.45-.34c0-.42-1.72-1.56-4.89-3.29A6.61,6.61,0,0,0,223,.56c-3.1.11-4.71.66-6.41,2.17s-2.4,3.4-1.71,4.72a12.39,12.39,0,0,0,4.78,3.92c1.91.71,4.75-.63,4.67-2.2-.05-1-1.58-2.07-2.2-1.51-.77.7-1.8.52-3-.53-1.33-1.22-1.36-1.53-.26-2.75,1.78-2,4.25-2,7.84-.23,3.06,1.54,4,2.6,4.38,4.89.34,2.13-.34,4-1.61,4.44a10.33,10.33,0,0,0-1.75.9,11.45,11.45,0,0,1-6.58.92c-1.36-.23-7.07-1.59-12.77-3-2.52-.65-3.66-.82-10.56-1.6-1.18-.14-4.37-.64-7.08-1.13s-5.2-.88-5.54-.88A2.89,2.89,0,0,1,184,8.24,83,83,0,0,0,173.28,6L169,5.42a59.08,59.08,0,0,0-7.15-.71c-2.25.14-8.45.8-9.11,1-1.41.37-4.58,1.81-4.57,2.08s-.31.28-.7.29a3.45,3.45,0,0,0-1.47.57c-1.16.8-1.41.67-1.43-.72,0-2.8-2.48-6.11-4.47-6s-3.91.91-4.4,1.81c-1,1.93-1.15,1.9-2.47-.45S131.07,0,129.43,0Zm.17,2.51c.32,0,.6.33,1.15,1.14a12,12,0,0,1,2.38,7.58,12.54,12.54,0,0,1-1,4.16l-.9,1.81-.29-1.14c-.74-2.95-1.87-8.45-2.16-10.6s-.23-2.44.37-2.78a.93.93,0,0,1,.49-.17Zm10.66,1.71q1.81-.1,1.62,4.19a7.2,7.2,0,0,1-.95,3.9,25.19,25.19,0,0,0-1.6,2.93c-.74,1.63-.85,1.72-2.45,1.83-1.86.13-2.14-.1-.8-.65.8-.33.89-.63.84-2.84a20.7,20.7,0,0,1,.29-4.08c.2-.9.43-2.14.52-2.78a3.18,3.18,0,0,1,2.54-2.5ZM119.56,5.31c.63-.06,1.21,0,1.22.28s.25.34.53.33c.65,0,2.93,3.79,3.5,5.84a11.51,11.51,0,0,0,1.11,2.6,2.82,2.82,0,0,1,.48,2c-.11.53-.37,1-.58,1-.55,0-4.59-3.32-4.62-3.84a.87.87,0,0,0-.63-.6,2.69,2.69,0,0,1-1.14-1.39,7.61,7.61,0,0,0-.87-1.55c-.64-.66-1.07-3.56-.59-4.08a2.83,2.83,0,0,1,1.59-.53ZM94.17,8.37c.33,0,.66,0,1,0a33.43,33.43,0,0,1,12,1.67,3.45,3.45,0,0,0,1.74.23c.2-.11.37,0,.38.13s.43.43.94.54a23.11,23.11,0,0,1,5,2.69A14,14,0,0,1,117,15.38h0c1.21,1.36,1.49,2.83.33,1.76-.48-.45-1.23-.53-3.68-.41-1.69.09-3.17.14-3.28.14s-1.9,0-4,0a38.88,38.88,0,0,1-4.58-.18c-.45-.1-.81-.06-.8.1,0,.33-5.27.23-6-.12-.27-.12-.58-.11-.68.05a16.06,16.06,0,0,1-4,.17c-2.09-.07-6.36,0-9.49.12s-7.43.2-9.55.16S66.18,17,64.62,17A21.89,21.89,0,0,1,61,16.77c-.72-.2-.7-.25.16-.7a5.63,5.63,0,0,1,1.75-.53,20.72,20.72,0,0,0,3.21-.83c3.26-1.06,7.4-2.16,11-2.93,1.66-.35,3.74-.88,4.62-1.16A12.14,12.14,0,0,1,84,10.06a32.15,32.15,0,0,0,5.29-1.21,27.62,27.62,0,0,1,4.89-.44Zm66.77-1.16A95.61,95.61,0,0,1,175.84,9a20.67,20.67,0,0,0,3.4.59,6.68,6.68,0,0,1,2,.43,26,26,0,0,0,3,.9c2.4.59,13,2.46,14.51,2.57,2.35.17,6.77,1.06,6.78,1.37s-.23.24-.55.15a16.23,16.23,0,0,0-3.34.23,76.59,76.59,0,0,1-12.66.66c-3.33-.29-4.56-.27-4.54.07,0,.17-.31.21-.71.09a13.36,13.36,0,0,0-3.16,0c-1.33.1-3.06.2-3.84.2a4.3,4.3,0,0,0-1.81.32,3.71,3.71,0,0,1-2.06-.11,26,26,0,0,0-5.5-.28A92.75,92.75,0,0,1,156.25,16c-.6-.08-1.2,0-1.34.23a1,1,0,0,1-1,.22,1.07,1.07,0,0,0-1,.17c-.15.22-.67.23-1.49,0a16.61,16.61,0,0,0-4.51,0c-3.23.33-3.25.33-3.07-.45.1-.42.28-1.35.39-2.06.26-1.57,2.62-3.56,5-4.24a13.83,13.83,0,0,0,2.48-1c1.07-.61,6.46-1.64,9.2-1.75ZM22.06,18a2.71,2.71,0,0,1,1.46.22c.32.25.32.35,0,.37a2.11,2.11,0,0,0-1,.55c-.52.47-.66.45-1.27-.21s-.65-.75.59-.9a.57.57,0,0,1,.26,0Zm21.6,1.81,2.69-.07c3.59-.07,4.28.19,3.16,1.22-.34.31-.7.25-1.49-.22a4.13,4.13,0,0,0-1.58-.61A9.48,9.48,0,0,0,43.92,22c-1.1,1-2,1.76-2.07,1.76a4.11,4.11,0,0,1-1.58-1.57c0-.21-.27-.39-.58-.37a1.86,1.86,0,0,1-1.09-.47,2.12,2.12,0,0,0-1.32-.46c-.43,0-.7-.1-.59-.27a7.35,7.35,0,0,1,2.54-.45c1.29-.09,2.63-.18,3-.22.17,0,.72,0,1.47-.07Zm-16.4.95-.88,1.08c-1,1.28-1.37,1.36-1.78.42s-.37-.84,1.31-1.21Zm30.79-.7c1.13,0,1.56.07,1.43.37a3.92,3.92,0,0,1-1.08,1c-.85.56-.93.56-1.41,0-.85-1-.63-1.32,1.06-1.38Zm7.46.42c.62,0,1.12.09,1.13.27,0,.59-.65.7-1.45.24S64.45,20.57,65.51,20.52Zm10.66-.35a4.91,4.91,0,0,1,2.25.23,5.92,5.92,0,0,1-1,1.6c-.53.73-1,1.37-1.08,1.42S74,21,74,20.62c0-.25.77-.41,2.21-.45Zm8.33,0,1.83,0c2,0,2.22.3,1.13,1.49a3.82,3.82,0,0,1-.86.79,7.16,7.16,0,0,1-1.12-1.15l-1-1.16ZM31.74,22.2c2-.1,5.47,1.21,7.58,2.9,1,.84,1.16,1.12,1,2.37-.27,1.93-.83,1.92-4.85-.06-2.29-1.12-5.75-3.95-5.63-4.59.07-.37.62-.55,1.91-.62Zm65.53-2.31a7.24,7.24,0,0,1,1.14,0c.88.08,1.17.29,1.2.88a1.06,1.06,0,0,1-.59,1c-.79.28-.6.36-1.74-.74-.8-.77-.84-1.12,0-1.17Zm-43.8,1.64.42.88c.24.48.69.87,1,.85s.54.3.5.92a4.24,4.24,0,0,0,.29,1.69,2.33,2.33,0,0,1,.11,1.45c-.18.56-.52.69-1.72.67-3-.06-3,0-2.85-2,.22-2.8.3-3,1.3-3.76l.94-.7Zm55.11-1.77c.63,0,.69.35,0,.92-.88.74-1,.78-1.38.46-.57-.43-.3-1,.55-1.26a3.12,3.12,0,0,1,.81-.13Zm6.49.31,2.19-.08a5.69,5.69,0,0,1,2.46.25c.15.18.12.34-.06.34s-.62.49-1,1.06c-.91,1.49-1.57,1.37-2.87-.5l-.75-1.07Zm-44.8,1.77c.28,0,.61.2,1.28.66a4.67,4.67,0,0,1,1.58,1.75,12.57,12.57,0,0,0,1,2,2.39,2.39,0,0,1,.47,1.59c-.24.59-1.75.74-2.69.26A4.43,4.43,0,0,0,69.83,28l-1.46.25-.31-1.63a4.43,4.43,0,0,1,1.51-4.4c.3-.24.48-.38.7-.38Zm57.05-1.63H128c3,.06,3.3.23,1.91,1a7.1,7.1,0,0,0-1.77,1.41c-.67.88-1.1.64-1.17-.64a1.45,1.45,0,0,0-.46-1.13c-.8-.38-.46-.6.86-.64Zm-23.58.95c.89,0,1.78,2.42,1.68,4.59a9.52,9.52,0,0,1-.34,2.49.71.71,0,0,1-.52.32c-2.48-.24-4.76-.72-4.9-1a3.35,3.35,0,0,1,.57-1.76c.41-.75.67-1.44.56-1.52-.27-.2,2.48-3.07,3-3.09ZM154,19.34l1.84-.06c3-.11,3.26,0,2.39,1.64-.73,1.34-1.51,1.8-1.56.94a4,4,0,0,0-1.35-1.48ZM137.38,20c.73,0,1.24.05,1.25.16a3.67,3.67,0,0,1-1,1.24c-1.24,1.21-1.82,1.24-2.52.11s-.78-1.3,1.45-1.46a7.45,7.45,0,0,1,.79-.05Zm10.2-.37c2.37-.09,2.85,0,2.22.29a10.36,10.36,0,0,0-2,1.57,7.75,7.75,0,0,1-1.37,1.19c-.41,0-2.47-2.61-2.19-2.77a19.49,19.49,0,0,1,3.32-.28ZM62.13,22.76a1,1,0,0,1,.46.09,3.85,3.85,0,0,1,1.9,3.46l.07,1.53-1.92.09c-3.35.16-3.47.09-3.25-1.72s1.61-3.43,2.73-3.45Zm-15.84.63c.22,0,.35.17.58.5a5.19,5.19,0,0,1,.45,2.43c0,1.57-.62,2.47-1.17,1.78a12.76,12.76,0,0,1-2.08-3.2c0-.23.5-.71,1.15-1.06a2.81,2.81,0,0,1,1.07-.45ZM165.07,19.3c.26,0,.61,0,1.07,0l2,0L167,20.48c-1.37,1.32-1.64,1.4-2,.58a12.81,12.81,0,0,0-.57-1.18c-.22-.41-.18-.54.62-.58ZM175,19a7.07,7.07,0,0,1,1.38,0,16.54,16.54,0,0,1-1.49,1.53L173.43,22l-.63-1.21c-.35-.67-.69-1.3-.76-1.4a5.29,5.29,0,0,1,2.12-.32c.31,0,.6-.05.87-.06ZM91.75,22h.35c2.84.21,4.57,1.93,4.47,4.47l0,1.5-2.64.15c-3,.16-4.52.06-5-.33a3.72,3.72,0,0,1-.19-2.11c.22-2.26,1.4-3.65,3.11-3.69Zm-10.58.4a3.12,3.12,0,0,1,1,.2,2.7,2.7,0,0,1,1.55,1.1A4.22,4.22,0,0,0,84.64,25a2.17,2.17,0,0,1,.55,1.67c-.07,1.12-.1,1.15-2.1,1.25-1.12.06-2.74.07-3.61,0-1.58-.08-1.58-.08-1.36-1.34.12-.69.22-1.45.23-1.67a4.68,4.68,0,0,1,1.29-1.54c.75-.66,1.09-.93,1.53-.95Zm127.47-4.57a33.85,33.85,0,0,1,5.87.15,40.2,40.2,0,0,1-3.62,2.3,31.43,31.43,0,0,1-4.16,2.24c-.24,0-.45-.35-.48-.79a7,7,0,0,0-.68-2.14l-.65-1.34,1.89-.28c.61-.07,1.22-.12,1.83-.13ZM178.52,19c.5,0,1.11,0,1.86,0a32.17,32.17,0,0,1,3.28.13,4.27,4.27,0,0,1-.69,1.34,13.2,13.2,0,0,1-.86,1.25s-.8-.43-1.7-.95a12.77,12.77,0,0,0-2.4-1.12c-1.29-.29-1-.54.5-.62Zm20-.27c.78,0,1.43.07,1.44.22a3.06,3.06,0,0,1-.95,1.1l-1,.83-.47-.9c-.63-1.23-.66-1.2.94-1.26Zm-8.34.41c1.15,0,1.16,0,.54.76s-1.16,1.06-1.28.77c-.5-1.22-.37-1.49.74-1.53Zm-78.5,3.11a.53.53,0,0,1,.22,0c1.92.16,5.1,4.61,4,5.61a3.3,3.3,0,0,1-2.06.1,4.68,4.68,0,0,0-1.9-.06c-.42.39-3.56.38-3.76,0a4.33,4.33,0,0,1,.35-2,8.83,8.83,0,0,0,.53-2.08c0-.65,1.51-1.54,2.62-1.57ZM27,25.52c.51,0,3.43,2.1,3.45,2.47a4.71,4.71,0,0,1-1.32.93c-1.52.86-2.22,1-2.31.37a13.86,13.86,0,0,1,.12-3.75.09.09,0,0,1,.06,0Zm95.91-3.36c1,0,1.15.14,1.65,1.67.64,1.93.78,3.35.37,3.86s-4.9.68-5.18.35,0-2.56.47-3.64a3,3,0,0,1,2.69-2.24Zm96.07-3.34a1.62,1.62,0,0,1,.57.16.65.65,0,0,1,.41.69c-.1.3-.31.26-.72-.12s-.53-.71-.26-.73Zm-57.62,2.52c.64.09,2,3.6,1.92,4.94s-.07,1.45-3.3,1.41c-2,0-2.07-.06-1.91-.93C158.21,25.62,160.86,21.28,161.31,21.34Zm-20.22.85c1.09,0,3.4,3.12,3.48,4.75l.05.93-3.61.07a14.19,14.19,0,0,1-3.85-.23c-.14-.15,0-.77.34-1.37a4.65,4.65,0,0,0,.56-1.46c0-.61,2.29-2.67,3-2.69Zm52.47-1.9a4.9,4.9,0,0,1,1.2,1.16,5,5,0,0,1,1.16,3.35,6.8,6.8,0,0,1-.06,2.38,18.76,18.76,0,0,1-5.07.4c-.94-.08-1.17-.4-.66-.86a1,1,0,0,0,.32-.5,6.92,6.92,0,0,1,.3-.91l.67-1.73c.43-1.14,1.83-3.28,2.15-3.29Zm-7.36.43.49.93a5.26,5.26,0,0,1,.5,1.26.37.37,0,0,0,.4.3c.35,0,.33,1.35,0,3.33-.13.67-.37.78-1.77.76a8.23,8.23,0,0,1-2-.22c-.47-.22-.2-2.27.33-2.58a1.12,1.12,0,0,0,.31-.94,3.45,3.45,0,0,1,.89-1.8l.93-1.05Zm-34.36,1.47a2.19,2.19,0,0,1,1.91,1,3.2,3.2,0,0,1,.69,2.77l-.17,1.7-3.35.14c-3.21.14-3.34.1-3.13-.56.94-3.08,2.55-4.93,4.05-5Zm17.71-.44a1,1,0,0,1,.67.47c.74.86,1.4,3.93,1,4.52-.27.38-4.4,1-4.78.67s-.13-1.52.9-3.15c1.19-1.84,1.74-2.55,2.22-2.52ZM131.9,23.19c.94,0,1.82,2.08,1.45,3.48-.22.82-.5,1-1.8,1.15a15.62,15.62,0,0,0-2.27.4c-.93.28-1.37-.25-1.05-1.25.39-1.22,2.85-3.75,3.67-3.77Zm70.48-2.55c.7,0,1.14,2.45.68,3.74a10.82,10.82,0,0,1-1.22,2.24c-.71.95-.94,1.05-1.92.82-1.28-.31-1.41-.86-.67-2.9.58-1.58,2.42-3.87,3.13-3.9Zm13.13,0c.77,0,1.28.33,1.31,1.05s-1.68,2.92-2.48,2.95a13.64,13.64,0,0,0-3,2.15,20.42,20.42,0,0,1-3.85,2.68c-2.11.87-2.87.78-2.92-.36s1-2.49,2.87-3.55c.76-.43,1.37-1,1.35-1.24s.35-.57.8-.71a8.44,8.44,0,0,0,2.11-1.28,7,7,0,0,1,3.78-1.7Zm-38,2c.84,0,1.66.91,2,2.53l.35,1.77-2.43.08a10.3,10.3,0,0,1-2.66-.1c-.23-.17.32-1.51,1.35-3.25a1.74,1.74,0,0,1,1.42-1Zm42.43.87c.19,0,.22,1.07.26,4a42.62,42.62,0,0,1-.14,5.18c-.21.63-1.35.89-1.38.31,0-.19-.38-.33-.83-.31s-.82-.12-.83-.3a5.31,5.31,0,0,0-2.38-.8,15.54,15.54,0,0,1-2.68-.7c-.43-.3,2.2-2.7,4.87-4.44A10,10,0,0,0,219.53,24c.16-.31.28-.5.36-.48Zm-187,7.29a7.23,7.23,0,0,1,2.8.35c1.1.4,1.25.62,1.32,2,.05,1.1-.09,1.54-.53,1.59A10.09,10.09,0,0,1,32.23,34,2.25,2.25,0,0,0,31,33.64c-.71,0-2-.67-2-1.1a3.09,3.09,0,0,1,.78-.91A5.35,5.35,0,0,1,32.85,30.76ZM49,31.27l2.55-.09C59,31,62,30.93,68.68,31.1c2,0,6,0,8.74,0,9.73-.18,19.67-.14,21,.1.74.14,5,.14,9.36,0,10.74-.31,24.34-.39,27.57-.16,2.27.16,13.44,0,30.88-.44,9.61-.24,18.14-.32,19-.16a18.32,18.32,0,0,0,3.47.18c3.31-.15,10.85-.09,12.26.1l1.33.18.16,2.59c.1,1.43.29,4,.46,5.64.41,4.26.44,4.85,1.82,32.88.68,13.8,1.48,26.85,1.77,29s.92,9.6,1.41,16.6c.91,13,1.21,18.52,2.7,49.83.47,10,1.05,19.52,1.28,21.19a55.59,55.59,0,0,1,.45,5.59c0,1.4.07,2.92.1,3.39.51,7,1.18,21.17,1.17,24.58,0,6.39.31,20.4.52,22.58,1,10.5,1,10.75.43,11a.88.88,0,0,0-.57.78c0,.51-.5.56-5.36.51a87.25,87.25,0,0,0-11.88.38c-5.87.51-21.94,1.36-32.46,1.71-5.37.18-10.94.38-12.39.45h0l-8.45.41c-3.2.16-5.88.25-5.94.19s-27,.57-42.48,1.11c-14.2.5-32.23.4-45-.27-2.3-.12-3.08-.49-2.37-1.12a2.07,2.07,0,0,0,0-2.5c-.22-.17-.65-3-1-6.24s-.67-6.83-.82-8a50.8,50.8,0,0,1-.39-11,73.64,73.64,0,0,0-.26-9.51c-.86-8.51-1.19-19.21-.61-20.07.1-.15-.08-5-.41-10.88s-.59-10.91-.56-11.28c0-1.19-1.15-29.82-1.67-39.69-.27-5.22-.51-10.33-.54-11.36s-.15-5.27-.29-9.43a57.44,57.44,0,0,1,0-8c.16-.23,0-7.21-.44-15.51s-.67-16.16-.6-17.47c.2-3.53.37-14.8.29-18.7-.06-3.25.15-13.77.35-17.33.33-5.8.28-8-.18-8s-.51-2.21.05-2.7,2.86-.79,8.34-1Zm-22.06,4a10.22,10.22,0,0,1,1.42.56l1.39.64-1.3.88a6.92,6.92,0,0,1-1.6.88c-.25,0-.21-2.72,0-3h.05ZM36,37.55c1.26,0,1.41.58,1.51,2.63.12,2.25.08,2.39-.78,2.41-1.76,0-6.9-1.56-6.93-2.16S32.7,38,34.35,37.75a11.68,11.68,0,0,1,1.68-.2ZM206,33l3.18.09a14.76,14.76,0,0,1,5.34.93,6.79,6.79,0,0,1,2.16,1.1,2.45,2.45,0,0,0,.26.73c.15.29-.19.65-.87,1a21.13,21.13,0,0,1-6.38.76c-.23,0-1.1-.17-1.95-.26l-1.53-.15-.11-2.07L206,33ZM27,42.65a4.65,4.65,0,0,1,1.22.56,4.29,4.29,0,0,0,1.68.66c.83,0,.71.69-.36,2.13-1.62,2.19-1.56,3,.28,4.42,1.43,1.06,1.51,1.21.82,1.42-.43.13-1.19.39-1.69.59-1.41.53-1.69.44-1.79-.56-.17-1.84-.35-9.08-.21-9.2s0,0,.05,0ZM219.55,37.1c.1,0,.13.2.15.69s-.13.92-.33.92c-.7,0-.8-.47-.25-1.16.22-.28.35-.44.43-.45ZM35.49,45.7a3.27,3.27,0,0,1,1.74.27,6.45,6.45,0,0,1-.12,2.55c-.21,1.23-.57,2.22-.82,2.22A6.21,6.21,0,0,1,32,48.68c-.73-1,1.47-2.9,3.52-3ZM23,46.42l.35.92a24.53,24.53,0,0,1,.33,4.84c-.05,8.41,0,10.2.53,24.16.31,7.93.53,16.1.49,18.16-.11,6.48-.1,9,.12,16.81.11,4.2.06,8.79-.1,10.19a63.09,63.09,0,0,0-.16,7.4,28.85,28.85,0,0,1-.05,4.83c-.8,0-5-4.6-6-6.56-.33-.64-1.14-2.07-1.8-3.16-2.65-4.43-3.93-7.53-4.42-10.71-.72-4.66-1.19-11.44-.92-13.22.15-.94.34-2.17.42-2.73s.23-1.95.32-3.07a29.15,29.15,0,0,1,.6-3.93c.24-1,.52-2.42.61-3.08A25.58,25.58,0,0,1,14.13,84a7.26,7.26,0,0,0,.49-2.26c-.1-.07.08-.58.39-1.14a3.86,3.86,0,0,0,.53-1.66,14.47,14.47,0,0,1,1.23-4.31,18.39,18.39,0,0,0,1-3.94c0-.38.42-1.92.83-3.43s1-3.59,1.25-4.63A71.83,71.83,0,0,0,21.73,52.5a13.81,13.81,0,0,1,.48-2.85,1.47,1.47,0,0,0,.1-1.09c-.13-.15,0-.7.22-1.21l.45-.93Zm183.39-6.56,1.53.16c.85.08,2.73.13,4.18.11,3.69-.07,5.3.65,5.41,2.42.1,1.5-1.18,2.56-3.78,3.13-4.65,1-7.36,1-7.52-.14a6.13,6.13,0,0,1,.11-2.45,11.66,11.66,0,0,0,.11-2l0-1.27Zm13.27,6c.26,0,.49.51.53,1.18a3.48,3.48,0,0,1,0,1.16c-.83-.14-2-.62-2-.83a2.41,2.41,0,0,1,1.48-1.51ZM34.79,53.6c1.08-.06,2,.1,2,.46s0,1.26,0,2.29c0,1.25-.13,1.87-.47,1.88A15.23,15.23,0,0,1,31,56.12c-1.35-.9-1.41-1-.67-1.23.44-.13,1.35-.5,2-.8a7.22,7.22,0,0,1,2.39-.48Zm172.33-6a1.47,1.47,0,0,1,.91.47,2.33,2.33,0,0,0,1.48.46,7.11,7.11,0,0,1,1.89.25,18.84,18.84,0,0,0,2.89.43c1.77.12,1.94.21,2,1.05s-.32,1.1-1.89,1.91a8.92,8.92,0,0,1-4.58,1.1c-2.84.1-3.21-.11-2.94-1.66.08-.48,0-.95-.21-1s-.33-.8-.28-1.56.32-1.38.74-1.4Zm12.73,2.59c.18,0,.41,1.67.52,3.72s0,3.74-.13,3.74a.38.38,0,0,1-.34-.4,6.7,6.7,0,0,0-1.8-1.8l-1.78-1.39L218,52.84c.9-.7,1.62-1.58,1.61-1.93S219.68,50.25,219.85,50.24ZM28.07,57.52c.33,0,.62.12.62.3s.4.4.87.5c.92.21.93.88,0,1a7.84,7.84,0,0,0-1.28.37c-.59.22-.71.07-.77-1,0-.86.12-1.23.55-1.25Zm179.36-2.91a1.37,1.37,0,0,1,.46.36,4.51,4.51,0,0,0,2.57.87c3.13.27,5.18,1,5.74,2.13.42.83.4,1.06-.17,1.45a2.42,2.42,0,0,1-1.08.46c-4.54-.22-6.88-.38-7-.47a14.63,14.63,0,0,1-.46-2.63c-.21-1.66-.27-2.21-.06-2.17ZM34.15,61.21a3.67,3.67,0,0,1,2.47.41,3.83,3.83,0,0,1,.16,1.68c-.08,1.24-.19,1.38-1.16,1.4-1.46,0-5.63-1.55-5.66-2.13s2.27-1.25,4.19-1.36Zm-7.22,3a3.75,3.75,0,0,1,1.48.67c1.65,1,1.8,1.24,1,1.68a4.83,4.83,0,0,0-1.12,1.09c-.59.79-.6.78-1-.81A3.56,3.56,0,0,0,26.49,65c-.36-.17-.37-.33,0-.64a.62.62,0,0,1,.47-.15Zm193.58-4.8A95.7,95.7,0,0,1,221,69c0,1,0,1-2.37.43L216.84,69,218,67.65c2.09-2.42,2.31-4.77.51-5.49-.94-.37-1.09-1-.25-1a2.54,2.54,0,0,0,1.33-.9,3.94,3.94,0,0,1,.94-.88Zm-184.15,8c.55,0,.59.13.45.47a9.47,9.47,0,0,0-.13,2.6c.07,1.39-.06,2-.41,2-.92,0-4.86-2-5.15-2.65-.49-1,.93-2,3.57-2.28a16.13,16.13,0,0,1,1.67-.16Zm171.89-5.35a.37.37,0,0,1,.2.07,15.56,15.56,0,0,0,3,.81c5.66,1.14,6.29,2.38,2.18,4.3a7.35,7.35,0,0,1-1.4.57c-.07,0-.94-.14-1.92-.26a11.41,11.41,0,0,1-1.94-.34c-.23-.18-.36-1.26-.4-3.41,0-1.26,0-1.74.29-1.74ZM28,71.85a5.51,5.51,0,0,1,1.27.67,8.65,8.65,0,0,0,1.8.9c.37.08,0,.42-.89.93-2.25,1.22-2.59,1.11-2.45-.77A8.45,8.45,0,0,1,28,71.85Zm6.76,3.65c.21,0,.42,0,.62,0,1.12.07,1.13.08,1.26,2.76.13,2.4.06,2.7-.61,2.72s-2-.66-4.56-2.37c-1.15-.78-1.16-.86-.23-1.83a5.19,5.19,0,0,1,3.52-1.3Zm174.08-5.4a32.13,32.13,0,0,1,5.43.85c.23.06,1,.2,1.74.31,1.74.27,1.7.63-.13,1.5a11.82,11.82,0,0,1-4.63.85l-3.13.14,0-1.72c0-1.06.16-1.79.47-1.9a.7.7,0,0,1,.29,0Zm12.4,2.42c.13,0,.11.49,0,1.65s-.16,2-.18,2a9.27,9.27,0,0,1-2.93-1.1c-.15-.18.26-.57.91-.89a5.51,5.51,0,0,0,1.75-1.31c.2-.26.33-.41.4-.4ZM28.38,80.26c.14,0,.3.1.49.33a17.26,17.26,0,0,0,2.79,1.55l2.51,1.21-1.54.42c-.85.22-2.13.59-2.85.8-1.66.5-2.06,0-2-2.5.05-1.17.23-1.78.54-1.8Zm180.86-4a.63.63,0,0,1,.19,0c.37.08,2.24.34,4.16.57,4.7.56,6,1.48,4,2.81-1,.67-4.5,1.09-7,.85-1.62-.15-2-.68-1.88-2.84,0-1.1.16-1.43.56-1.42Zm-174,9.85c.7,0,1.23,0,1.32.12a8.29,8.29,0,0,1,0,2.28c-.1,1.19-.37,2-.65,2-.85,0-5.33-2.56-5.19-3a2.38,2.38,0,0,1,1.1-.83,12.6,12.6,0,0,1,3.44-.64ZM226,79.93c.19,0,.35.28.38.83a25.28,25.28,0,0,0,2,6.37,5.86,5.86,0,0,1,.72,1.93c.2.88.53,1.6.73,1.59s.37.28.39.64a1.1,1.1,0,0,0,.48.87.53.53,0,0,1,.25.68c-.17.45.8,3,1.66,4.24a3,3,0,0,1,.42,1.24,1.06,1.06,0,0,0,.45.86,1.31,1.31,0,0,1,.46,1,1.25,1.25,0,0,0,.39,1,3.18,3.18,0,0,1,.5,1.73,5.87,5.87,0,0,0,.63,2.24c.41.59.74,3.08,1.3,9.9a20.4,20.4,0,0,1-.69,6.82,23.12,23.12,0,0,0-.62,2.74c-.68,4.79-1.22,7.4-1.8,8.73-.38.85-.88,2-1.1,2.58a4.4,4.4,0,0,1-1.68,1.77,6.54,6.54,0,0,0-2.06,2.28l-.8,1.55-.21-3.55c-.1-2-.48-8-.83-13.34s-.54-9.85-.43-9.95a15,15,0,0,0,.08-3.28,47.27,47.27,0,0,1,0-4.73c.1-1,0-1.61-.25-1.61s-.3-.15-.16-.34,0-5.35-.22-11.46-.46-11.59-.46-12.2.25-1.12.48-1.11Zm-4.9.5c.21,0,.43,1,.5,2.19a9.08,9.08,0,0,1,0,2.21,4.23,4.23,0,0,1-.89-.63,4.57,4.57,0,0,0-1.94-.81c-1.17-.17-1.74-1.12-.68-1.15a4,4,0,0,0,1.6-.91,4.22,4.22,0,0,1,1.44-.9Zm-192.27,9c.57,0,2.2,1.18,1.93,1.43a5.73,5.73,0,0,1-1.27.42c-1,.26-1.11.2-1.16-.78,0-.65.15-1.06.5-1.07ZM209,82.9a12.64,12.64,0,0,1,2.17.58c2,.66,3.28,1,3.66.82a2.21,2.21,0,0,1,1.1.5c1,.71.85,1.74-.45,2.52-1,.61-5.34,1.16-6,.76s-1-5.16-.47-5.18Zm12.53,2.36h.06a17.05,17.05,0,0,1,.43,4.56c0,1.26-.14,1.3-1.86.47a14.41,14.41,0,0,0-1.66-.73c-.23-.06,0-.56.61-1.12a11.63,11.63,0,0,0,1.64-2.18,2.55,2.55,0,0,1,.78-1Zm-187,8L37,93.2l.07,1.44a4.35,4.35,0,0,0,.49,1.93.67.67,0,0,1,.07.84,2.78,2.78,0,0,0-.42,1.22,1.09,1.09,0,0,1-.72,1c-.78.16-6.28-3.75-6.32-4.49-.05-1,1.74-1.72,4.37-1.81ZM210.92,91a15.89,15.89,0,0,1,3,.29c1,.17,2.13.32,2.48.34,1.11.07,2.5,1,2.29,1.54a4.41,4.41,0,0,1-2.23,1,16.51,16.51,0,0,1-5.69.36c-.85-.08-1.15-.34-1.39-1.21-.42-1.54-.06-2.24,1.54-2.29ZM28.57,98.11a2.21,2.21,0,0,1,1.22.58c.62.48,1.07,1,1,1.26a2,2,0,0,1-1.18.68c-1,.25-1.07.17-1.37-.91s-.15-1.6.34-1.61Zm8.76,3.59.13,3.8c.07,2.1,0,4.85-.06,6.11l-.19,2.3-1.68.06c-1.82.07-5-1.08-5-1.78,0-.23,0-.71,0-1.08a2,2,0,0,1,1-1.26,2.55,2.55,0,0,1,2.41-.24c1.59.37,3.08-.09,3-.94,0-.68-2.07-1.8-3.19-1.76s-3.92-2-4-2.92,1.8-1.59,5-2l2.45-.3Zm184.2-6.62c.68-.06.76.5.84,2a11.47,11.47,0,0,1,0,2,27.17,27.17,0,0,1-3.61-1.83l-1-.61,1.77-.8a8.29,8.29,0,0,1,2-.74Zm-12.1,2.14a3.52,3.52,0,0,1,.64.09c.62.11,1.41.22,1.74.25a18.09,18.09,0,0,1,2.62.71,15.46,15.46,0,0,0,2.3.66,3.82,3.82,0,0,1,1.25.76l.94.77-1.22.94a5.57,5.57,0,0,1-2.1,1c-.49,0-1.94.14-3.22.2l-2.33.12-.06-1.09c0-.6-.24-1.17-.47-1.28s-.45-.89-.5-1.74c-.06-1.13-.05-1.43.4-1.42Zm13.24,4.44a.11.11,0,0,1,.09,0,8.26,8.26,0,0,1,.32,2.37c.09,2.27-.32,2.64-1.7,1.48a2.43,2.43,0,0,0-1.27-.63.88.88,0,0,1-.72-.41c-.24-.45,2.64-2.9,3.28-2.86Zm-12.43,2,.22.08a2.66,2.66,0,0,1,.93,1,1.32,1.32,0,0,0,1,.78,44.28,44.28,0,0,1,7.17,1.72c1.18.49,1.18.71,0,2-.92,1-1.12,1-4.62,1.21-3.15.16-3.66.11-3.7-.38a25.35,25.35,0,0,0-.92-5.93c-.19-.35-.22-.5-.06-.48Zm-181,11.27a1.25,1.25,0,0,1,.81.43c.4.38.34.55-.32.87s-.82.32-.86-.45c0-.54.1-.83.37-.85Zm7.06,1.56a1.75,1.75,0,0,1,.4,0c.65.15.78.54.89,2.67a6.27,6.27,0,0,1-.2,2.69,3.52,3.52,0,0,1-1.75-.37,15.62,15.62,0,0,0-2.5-.75,1.42,1.42,0,0,1-1.4-1.45,1.39,1.39,0,0,1,.65-1.17,7.85,7.85,0,0,1,3.9-1.65Zm186.56-5.8a.11.11,0,0,1,.08,0,5.46,5.46,0,0,1,.18,2c0,1.74,0,1.77-.58.91a1.72,1.72,0,0,0-1.16-.89c-.34,0-.62-.16-.63-.4,0-.44,1.64-1.67,2.11-1.62Zm-9.8,2.5c.7,0,1.22.07,1.23.24s.16.22.45,0,.72-.31,1.52-.06c3.65,1.15,3.46,3.36-.41,4.75h0a13.16,13.16,0,0,1-3,.72c-1.1,0-1.12,0-1.3-2.33-.1-1.3-.2-2.54-.24-2.75s.63-.44,1.46-.51l.31,0Zm-184,8a3.3,3.3,0,0,1,1.46.81L32,123.18l-1.72,1.32-1.73,1.32-.07-2c-.08-1.87,0-2.66.51-2.65Zm194-5.34-.06,3.21c0,1.77-.1,3.25-.14,3.29a18,18,0,0,1-2.53-1.06c-2.23-1-2.35-1.17-1.53-1.45s1.75-1.06,3.39-3l.87-1Zm-186.23,9h.19c.75.09.84.54.81,4,0,.56-.15,1-.33,1a21.88,21.88,0,0,1-2.9-1c-2-.75-2.58-1.13-2.61-1.73s.4-.94,2.12-1.59a11.66,11.66,0,0,1,2.72-.74Zm175.1-3.41,1.74.17a12.78,12.78,0,0,1,5.7,2.2c.49.45.47.63-.17,1.2a4.86,4.86,0,0,1-2.16.9c-.77.12-1.77.3-2.21.39a5.91,5.91,0,0,1-1.73,0c-.85-.11-.93-.3-1.05-2.51l-.12-2.4ZM28.72,129.57a3.49,3.49,0,0,1,1.4.52l1.18.59-1.41.77-1.41.76-.07-1.34c-.05-.86,0-1.26.31-1.29Zm-15.45,3a17.16,17.16,0,0,1,2,.14,7.78,7.78,0,0,1,4.84,2c1.24.92,2.88,2.08,3.65,2.57,1.29.84,1.38,1,1.27,2.5-.06.88-.12,1.79-.12,2,0,.65-1.11.45-3-.54a4.58,4.58,0,0,0-1.6-.57,25.45,25.45,0,0,1-4-1.47c-3.74-1.6-5.21-3-5.32-4.94-.06-1.17.53-1.68,2.18-1.7Zm23-.16a2.83,2.83,0,0,1,1.12.13c.39.19.55,1.16.59,3.59,0,2.75,0,3.25-.49,2.84a9.28,9.28,0,0,0-3-1,13,13,0,0,1-3.57-1.21c-1-.65-1-.82-.64-1.58a5.17,5.17,0,0,1,3.5-2.5c.58,0,1.51-.15,2.06-.24a3.29,3.29,0,0,1,.44-.05Zm186.64-6.06c.15,0,.22.18.27.59s.17,1.3.26,1.9c.14.88,0,1.1-.61,1.12-.42,0-.78-.1-.79-.25a3.71,3.71,0,0,0-1.56-.82l-1.54-.55,1.52-.69a14.64,14.64,0,0,0,2.07-1.1.91.91,0,0,1,.38-.19Zm-9.3,2.74.16,0c3.26.51,6.55,2,6.85,3.06.2.72,0,1-1.5,1.62-1.7.77-2.19.84-4.84.66-1.42-.1-1.83-.78-1.86-3.09,0-1.47.41-2.28,1.19-2.26ZM29.87,139.32c.34,0,.61.11.62.28s-.25.4-.58.52-.61,0-.63-.28A.56.56,0,0,1,29.87,139.32Zm-20.5,2.29a9.61,9.61,0,0,1,1.61.11c1.94.29,9.6,2.94,9.62,3.33s-11,.82-11.67.59a4.23,4.23,0,0,1-1.86-2.77c0-.77.85-1.23,2.3-1.26Zm214.24-7.36c.16,0,.32,1,.4,2.38.15,3-.07,3.28-1.71,2.33a10.09,10.09,0,0,0-2.59-.79c-2.2-.38-2.54-.77-1.1-1.26a13.46,13.46,0,0,0,1.92-.81c.43-.23,1.22-.63,1.74-.89a4,4,0,0,0,1.27-.92s.05,0,.07,0Zm-189.36,7c.61,0,1.22,0,1.83,0l2.24.15.16,3c.08,1.66,0,3-.15,3a23.31,23.31,0,0,1-7.45-2.4c-1.21-.87-1.22-1.29,0-2.47a4.46,4.46,0,0,1,3.38-1.36Zm203.27-4.11a6.24,6.24,0,0,1,2.41.51c2.57.89.36,4.19-3.4,5.07-1,.23-3,.54-4.4.69l-2.59.27,1.68-1.69c.92-.92,2.56-2.43,3.65-3.34s1.85-1.45,2.65-1.51Zm-23.81,2.15c1,0,6.34,1.57,6.71,2s-.85,2-1.85,2.21c-.5.11-1.86.3-3,.42l-2.12.23-.12-2.32a4.88,4.88,0,0,1,.26-2.54.26.26,0,0,1,.15,0Zm-189.8,8.47c.43,0,.51.16.53.53,0,.83-.26,1-3.93,2.77a25.05,25.05,0,0,0-4.78,3,6.14,6.14,0,0,1-3.52,1.82l-1.73.26.24-1a6.84,6.84,0,0,1,1-2.05c.84-1.12,3.4-3.35,3.87-3.38a8.46,8.46,0,0,0,1.4-.45,5.43,5.43,0,0,1,1.82-.38,3.4,3.4,0,0,0,1.41-.3,12.12,12.12,0,0,1,2.43-.65,9.93,9.93,0,0,1,1.22-.16Zm4.83.09a12.34,12.34,0,0,1,1.48.14c2.07.24,2.26.62.69,1.34h0a7.45,7.45,0,0,0-2,1.36c-.64.74-.66.74-.75.08a3.42,3.42,0,0,1,0-1,10,10,0,0,0,.1-1.12c0-.57,0-.77.48-.79ZM224,143.38l.1,1.93a7.71,7.71,0,0,1,0,1.92c-.05,0-.8-.29-1.65-.63-1.52-.6-2.09-1.26-1.11-1.29a4.31,4.31,0,0,0,1.58-1l1.09-1ZM38.71,150.13l0,2.16c0,2,0,2.17-1,2.27s-2.42-.44-5-1.79l-1-.5.85-.83c.69-.67,1.37-.88,3.45-1.07l2.6-.23Zm174.83-3.66a.68.68,0,0,1,.31.08,30.81,30.81,0,0,0,4.13,1,2.75,2.75,0,0,1,1,.45,1.74,1.74,0,0,0,1,.37,1.55,1.55,0,0,1,1,.43c.57.52-.29,1.34-1.88,1.8a31.4,31.4,0,0,1-3.33.6l-2.32.32-.14-2.65c-.1-1.95-.09-2.46.28-2.45Zm26.81-.5a6.41,6.41,0,0,1,1.24.06,7.35,7.35,0,0,1,3,1.29,2.27,2.27,0,0,1-.42,2.92c-1,.82-.9.82-5.62.38a22.29,22.29,0,0,1-6.34-1.44,19.57,19.57,0,0,0-3.35-1.09c-.27,0-.61-.36-.74-.82-.19-.66-.07-.85.52-.87a4,4,0,0,1,1.56.35c.62.29,1.78.24,5.17-.21,2.81-.38,4.12-.54,5-.58ZM28.82,154.52a4.42,4.42,0,0,1,1.46.45c.69.32,1.67.75,2.19.95,1,.4,1.25.9.46,1l-.91.13a2.8,2.8,0,0,0-.8.27,10.06,10.06,0,0,1-1.5.48c-1.09.26-1.11.24-1.2-1.42a3.41,3.41,0,0,1,.22-1.84l.08,0Zm-4.41.9a.16.16,0,0,1,.13,0c.38.29,2.15,32.7,2.82,51.75.18,5.09.25,5.45.91,5.28.39-.1.72,0,.73.23s-.31.5-.72.6c-.86.22-1,2.22-.9,12,.08,6.35,0,7-.49,4.6-.19-.93-.56-2.45-.81-3.37s-.75-3.2-1.1-5.06-1.17-5.18-1.8-7.4-1.43-5.33-1.78-6.9c-.63-2.93-1.92-7.55-3.18-11.44a38,38,0,0,1-1.08-4.2,23.72,23.72,0,0,0-.86-3.34c-.74-2-1-4-1.5-9.74a31.13,31.13,0,0,1-.08-6.18,12.21,12.21,0,0,0,.42-2.95c.19-4.28,1.38-8,3.14-9.86s5.29-4.14,6.15-4.1Zm203.81-4.93a7.8,7.8,0,0,1,1.57.75,15.74,15.74,0,0,0,4.72,1.85c3.6.38,9.7,4.32,9.81,6.33.06,1.13-2.21.93-4.09-.36a13,13,0,0,0-2.71-1.29,49.37,49.37,0,0,1-6.72-3.13l-1.58-1a2.19,2.19,0,0,1-1.17-1.91c0-.66,0-1.19.17-1.2Zm-4.07.83a4.2,4.2,0,0,1,.32,1.86c.05,1,0,1.86-.21,1.87-.41,0-3.27-1.87-3-2l1.45-.92a8.87,8.87,0,0,1,1.48-.82ZM38.82,158.94,39,160.6c.08.91.18,2.11.24,2.67.1.95,0,1-1.52,1.17s-3.82-.57-4.51-1.41a3.27,3.27,0,0,0-1.49-.51c-1.06-.15-1.23-.33-1.28-1.3-.08-1.4.33-1.57,4.88-2l3.54-.31Zm176.33-4.58a15,15,0,0,1,6,2.16c.79.59.79.63.11,1.59a11.22,11.22,0,0,1-1.17,1.41c-.5.46-4.35,1.2-5.45,1.06-.5-.07-.68-.52-.76-1.86a18.75,18.75,0,0,0-.24-2.1,3,3,0,0,1,.14-1.27c.21-.74.51-1,1.38-1Zm13.91,2.39a1.09,1.09,0,0,1,.26,0c.35.1.53.31.42.48-.33.49,1,2.11,2.57,3.14a8,8,0,0,1,2,1.86c.3.5.7.89.89.89a.35.35,0,0,1,.36.31,10.72,10.72,0,0,0,1.06,2.08A23.64,23.64,0,0,1,240,177.4c.24,5.75.09,9.22-.47,11a14.32,14.32,0,0,0-.34,1.94,40.61,40.61,0,0,1-.94,5.47,80.41,80.41,0,0,0-1.57,9.5,19.7,19.7,0,0,1-.44,3,54.56,54.56,0,0,0-.69,6c-.2,2.62-.42,5.08-.48,5.45s-.25,2.07-.41,3.76-.42,4.44-.58,6.13-.35,4.47-.4,6.19c-.1,3-.37,4.07-.78,3.12-.27-.63-1.33-24.37-1.44-32.49-.1-7.4-.74-20.3-1-20.64-.52-.64-2.09-23.52-1.87-27.15,0-.47.07-1.11.08-1.43s.16-.44.39-.45ZM29.83,164.66c.68,0,2.36,1.17,2.2,1.59s-1.91.66-2.35.32a2,2,0,0,1-.07-1.86.3.3,0,0,1,.22-.05Zm194.79-5.39c.16,0,.21.39.3,1.45s.19,2,.22,2.36c.08.66-.82.92-1.77.52-.34-.15-1.25-.46-2-.7l-1.41-.44,1.82-1a9.29,9.29,0,0,0,2.42-1.75c.21-.28.35-.45.45-.46ZM39.2,166.93c.29,0,.46,0,.48.15s.14.86.26,1.6a10.54,10.54,0,0,1,.08,2.63c-.17,1.46-.24,1.48-1.94.79a22.94,22.94,0,0,1-4.17-1.95l-1.24-.75,1-.68a15,15,0,0,1,5.57-1.78Zm-9.57,3.65a.41.41,0,0,1,.46.32,4.35,4.35,0,0,0,1.68,1.17c1.86.93,2.06,1.27.94,1.61a6.87,6.87,0,0,0-1.77,1.09l-1,.86-.07-.92c-.06-.5-.2-1.63-.36-2.51s-.13-1.61.14-1.62Zm185-6.66a25.14,25.14,0,0,1,6.49,1.1,3.79,3.79,0,0,0,1.29.29c1.57-.06,1,2-.9,3.09a6.73,6.73,0,0,1-3.33.75c-3.82.06-3.78.08-4.08-2.45A9.49,9.49,0,0,1,214,164c0-.08.26-.11.6-.12ZM38.34,175.14h.3c1.21,0,1.22,0,1.37,2a9.65,9.65,0,0,1,0,2.46c-.39,1-3.38.14-5.39-1.57-1.14-1-1.31-1.26-.9-1.62A11,11,0,0,1,38.34,175.14Zm187-5.51.1,1.86c.06,1,0,1.86-.21,1.87a11.41,11.41,0,0,1-3.45-1.9,5.87,5.87,0,0,1,1.78-1l1.79-.8Zm-10.46,2.07a13.26,13.26,0,0,1,2.13.61c5.76,2,6.54,3.17,3.45,5.13-2.12,1.34-4.18,1.77-5.17,1.08-.67-.46-.77-1-.76-3.67,0-1.73.17-3.15.35-3.15ZM30.51,179.25c.27,0,.75.29,1.56.85l.93.64-1.19,1a9.11,9.11,0,0,1-1.36,1,5.69,5.69,0,0,1-.25-1.88c-.06-1.13-.05-1.64.31-1.65Zm7,3.84c.28,0,.57,0,.86,0l1.76.08,0,1.72c0,.95-.21,1.77-.43,1.82-1.51.35-5.56-1.39-5.62-2.42,0-.66,1.49-1.17,3.47-1.21Zm188.12-5.5a.17.17,0,0,1,.1,0,3.07,3.07,0,0,1,.41,2.75c-.34,1-.54,1-2,0l-1.19-.8,1.21-1.11a2.78,2.78,0,0,1,1.48-.85ZM30.8,186.16c.42,0,2.82,1.89,2.59,2.05s-.74.49-1.44.93l-1.28.81-.1-1.89c-.05-1,.05-1.89.23-1.9Zm184.87-4.76a20.21,20.21,0,0,1,5.25.66,4.55,4.55,0,0,1,1.84,1.34c.65.9.63,1-.42,1.8s-2.61,1.18-3.32.64a6.11,6.11,0,0,0-2.24-.35l-1.83,0,.05-1.87a10.22,10.22,0,0,1,.18-2.07c0-.06.22-.1.5-.11ZM37.14,189.77a8.17,8.17,0,0,1,1.4,0c1.05.09,1.92.34,2,.55.08.53.24,3.64.23,4.37h0c0,.91-.8.76-3.75-.71-3.33-1.66-3.78-2.66-1.68-3.7a4.7,4.7,0,0,1,1.85-.54Zm188.94-3a.45.45,0,0,1,.4.3,2.2,2.2,0,0,1,.14,1.16c-.1.67-.14.67-1.24.16-1.41-.65-1.43-.82-.16-1.37a2.58,2.58,0,0,1,.86-.25ZM31,193.93l1,.72a3.34,3.34,0,0,1,1,1c0,.26-1.88.72-2.13.53a2.53,2.53,0,0,1,0-1.16l.14-1Zm185.63-6.15a6.57,6.57,0,0,1,2.47.54,19.49,19.49,0,0,1,3.11,1.35l.95.58-1,1a3.5,3.5,0,0,1-1.88,1c-.79.06-1.58.15-2.37.29-1.79.32-2.39-.31-2.51-2.63-.07-1.38.26-2,1.23-2.11Zm-181.14,10a3.48,3.48,0,0,1,2.36.44,2.61,2.61,0,0,0,1.45.25c1.47-.06,1.8.47,1.54,2.49-.11.85-.32,1.53-.48,1.52a9.15,9.15,0,0,1-3.84-1.34,5.22,5.22,0,0,0-1.72-.81,3.94,3.94,0,0,1-2-1.63c0-.5,1.37-.85,2.72-.92Zm191.11-6a.34.34,0,0,1,.26,0c.25.19.33,1,.21,1.88-.2,1.52-.23,1.56-1.24,1.24-2-.66-2.08-.76-.7-2.13a3.48,3.48,0,0,1,1.47-1Zm-195.22,10a3.26,3.26,0,0,1,1.91,1c.49.59.44.71-.42,1a3.05,3.05,0,0,0-1.21.72c-.55.81-.93.31-.79-1.06a8.42,8.42,0,0,1,.25-1.57.37.37,0,0,1,.26-.08Zm185.58-6.29h.3a5.58,5.58,0,0,1,1.47.17,6.66,6.66,0,0,0,1.54.22c1.18.07,4.47,1.53,4.49,2s-2.05,2.5-3,2.84a6.65,6.65,0,0,1-4,.43c-1.15-.24-1.32-.44-1.63-1.89a8.81,8.81,0,0,1-.14-2.71c.15-.79.33-1,1-1.06ZM37.62,205.33c.13,0,.28,0,.42,0l2.17,0,.24,2.16c.25,2.32.06,2.72-1.19,2.53S34,207.44,34,206.91c-.05-.84,1.55-1.52,3.63-1.57Zm189.88-4.88c.15,0,.27.84.27,1.87a4.66,4.66,0,0,1-.24,2,3.65,3.65,0,0,1-1.6-.82l-1.34-1,1.31-1.06a7.35,7.35,0,0,1,1.59-1.06ZM31.25,209.11l1.49,1.1c.81.6,1.34,1.19,1.18,1.3s-.78.59-1.37,1.06l-1.07.86-.12-2.16-.11-2.16Zm185.72-5a18.54,18.54,0,0,1,5.12.85,2.88,2.88,0,0,1,1.72,1.3c.36,1-.62,2.43-2.06,3a5.72,5.72,0,0,1-3.51.43c-1.2-.16-1.24-.21-1.62-2.7a8.31,8.31,0,0,1-.14-2.77,1,1,0,0,1,.5-.11Zm-178.37,9a3.76,3.76,0,0,1,1.85.18c0,.14.17,1,.3,2,.17,1.17.09,1.79-.24,1.9-.5.16-4.65-1.31-5.46-1.94s1.5-2.07,3.55-2.14Zm189.2-4.57,0,2.94c0,2.94,0,3.2-.84,2.59-.23-.18-1-.72-1.73-1.2L224,212l1.92-1.73,1.91-1.73ZM31.74,217.14a5.3,5.3,0,0,1,1.35.48C34.5,218.25,35,219,34,219a4.34,4.34,0,0,0-1.63.6l-1,.59-.08-1.57c-.05-1.08,0-1.5.4-1.47Zm186.15-4.4a11.72,11.72,0,0,1,4.38,1.4,7.44,7.44,0,0,0,1.36.74c.44.17.81.53.82.79,0,.68-1.88,2-3,2-.53,0-.95.19-.94.38,0,.35-2.77.45-3,.11a15.2,15.2,0,0,1-.19-2.7c0-1.69.12-2.58.47-2.69l.13,0ZM38.94,220.23c.22,0,.44,0,.66,0l1.79,0,.25,2.45c.13,1.35.1,2.46-.08,2.46a12,12,0,0,1-2-.57,21.34,21.34,0,0,0-2.93-.75,5.21,5.21,0,0,1-2.16-.93l-.92-.75.9-.53a9.92,9.92,0,0,1,4.52-1.42Zm188.42-2.33c.63-.1.78,1,.72,3.93,0,.84-.62.86-2.45.09A22.69,22.69,0,0,0,223,221c-1.43-.35-1.19-.66,1.08-1.38a8.62,8.62,0,0,0,2.5-1.25,2,2,0,0,1,.82-.48ZM31.9,225a5.19,5.19,0,0,1,2.16.7l1.36.65-1.48,1a8.82,8.82,0,0,0-1.61,1.3c-.51,1.15-1.34-.89-1.11-2.74.07-.58.26-.89.68-.92Zm9.34,3.16c.65,0,.94.07.91.25s-.1,1.17-.18,2.19a5.19,5.19,0,0,1-.44,2.09c-.44.34-2.54,0-4.78-.88-1.6-.6-1.93-.86-1.78-1.43a4.83,4.83,0,0,0,.18-.92c0-.34,1.22-.74,3-1a28.87,28.87,0,0,1,3.09-.31Zm176.39-6.27a33.9,33.9,0,0,1,7.6,2.88c.9.63.91.7.28,1.34a6.93,6.93,0,0,1-2,1.18h0a14,14,0,0,1-3.74.57l-2.45.06-.15-3c-.13-2.39,0-3,.43-3ZM31.85,233.14a14.91,14.91,0,0,1,1.6.39c1.29.38,1.47.55,1.1,1a6.59,6.59,0,0,1-1.57,1,7,7,0,0,1-1.33.53,7,7,0,0,1,.14-2.92h.06ZM228.31,228c.32,0,.31.35.29,1.66a8.08,8.08,0,0,1-.15,1.83,25.5,25.5,0,0,1-3.62-1.91c-.1-.08.34-.31,1-.53a15.63,15.63,0,0,0,1.85-.76,2.63,2.63,0,0,1,.66-.3ZM41.39,235.89l.29,3.3c.27,3.14,0,4-.86,2.89A11.39,11.39,0,0,0,37.47,241l-3-.68,0-1.4c0-1.22.22-1.48,1.44-2a13.84,13.84,0,0,1,3.42-.8l2-.19Zm176.93-5.21c.93,0,6.4,1.94,6.83,2.46.55.69-.18,1.68-1.58,2.12a20.28,20.28,0,0,1-3.61.66l-2.18.21-.14-2.71c-.13-2.5-.08-2.72.68-2.74ZM32.17,242.5a.38.38,0,0,1,.42.33.36.36,0,0,1-.38.35h0a.4.4,0,0,1-.43-.32A.38.38,0,0,1,32.17,242.5Zm196.71-7.09c.2,0,.26.18.12.51a7.88,7.88,0,0,0-.13,2.22c0,.91-.05,1.66-.22,1.66a23.23,23.23,0,0,1-2.54-.9l-2.23-.9,1.34-.54a10.53,10.53,0,0,0,2.29-1.29,2.81,2.81,0,0,1,1.37-.75ZM42.23,244.34l.3,1.52a8,8,0,0,1,.16,2.12c-.16.77-1.47.79-4.91.08-3.12-.65-4-1.19-3.48-2.09a1.85,1.85,0,0,1,1.12-.76l2-.39a25.56,25.56,0,0,1,3-.36l1.82-.11Zm175.7-5.41a2.22,2.22,0,0,1,.51.06c1.6.31,5.41,1.83,5.59,2.22.1.23-.6.49-1.76.67s-2.4.39-3,.5c-1.39.27-1.61,0-1.71-1.91-.06-1.17,0-1.52.33-1.54Zm15,1.54a.45.45,0,0,1,.16,0,.37.37,0,0,1,.24.46l0,.07c-.33.48-.58.4-.6-.2,0-.22.08-.35.23-.36ZM33.12,250a.26.26,0,0,1,.15,0c.4.05.69.24.66.43h0c-.11.59-1.31.63-1.34,0,0-.3.18-.48.53-.48Zm195.37-7c.44,0,.55.24.78.88a2.74,2.74,0,0,1,.09,1.65c-.26.64-.37.62-2.32-.29l-2.06-1,1.67-.66a8.48,8.48,0,0,1,1.84-.62ZM42.76,251.42l.28,1.2c.15.66.36,1.88.46,2.72.22,1.83.16,1.84-4.3,1.18-3.49-.51-5.54-1.09-5.57-1.56s2.16-2.3,3.32-2.6c.67-.17,2.25-.45,3.51-.62l2.3-.32Zm176.34-5.83a10.75,10.75,0,0,1,4.67,1.33c.74.44.71.52-.51,1.52a4.44,4.44,0,0,1-2.86,1.12c-1.71.09-1.8,0-2.16-2.32-.24-1.56-.21-1.6.86-1.65Zm10.12.86.52,1.32a11.25,11.25,0,0,1,.59,2.75c.08,1.68-.33,2-1.38,1.16a2.57,2.57,0,0,0-1.25-.63,1.71,1.71,0,0,1-1-.43c-.4-.36-.29-.61.5-1.18a5.4,5.4,0,0,0,1.5-1.85ZM33,258.1a11.88,11.88,0,0,1,2,.46c.85.26,1.54.45,1.54.43a2.52,2.52,0,0,1,.61.11c.34.08,1.44.25,2.44.36l1.81.22-2.81,1.9a13.22,13.22,0,0,0-3,2.48,2.25,2.25,0,0,1-1.14,1c-.89.38-1,.34-1.26-.8-.51-2-.6-6.13-.15-6.14Zm187.36-5.73c.22,0,.46,0,.73,0a7.36,7.36,0,0,1,2.68.26,1.81,1.81,0,0,0,1.14.24c1,0,1.92.52,1.95,1.2a4.47,4.47,0,0,1-1.37,1.68c-1.62,1.43-2.73,1.57-5.37.68-1.7-.57-1.8-.67-1.62-1.67a9,9,0,0,0,.17-1.71c0-.5.18-.62,1.69-.66ZM43.71,262.13c.2,0,.48.45.61,1,.2.88-.09,1.34-1.93,3.14s-2.4,2.14-4,2.37-1.89.2-2.13-.47S36.4,267,38,265.57c1.81-1.66,4.7-3.4,5.72-3.44Zm186.81-6.57h0a16.09,16.09,0,0,1,.27,3.25,18.44,18.44,0,0,1,0,3.24,10.41,10.41,0,0,1-2.3-1.49l-2.16-1.62,2-1.76a10.46,10.46,0,0,1,2.18-1.62ZM49.9,264.46c.39,0,.9,0,1.6.07,1,.05-.22,5-1.5,6.3-.65.68-.69.69-2,.2-1.54-.57-1.71-2.18-.47-4.34,1-1.82,1.19-2.21,2.37-2.23Zm7.33-.16c1.2-.05,2.5.1,2.66.42.4.82-.88,4-2.15,5.38-2.33,2.49-3.27,1.75-3.08-2.4a7.83,7.83,0,0,1,.53-3,3.88,3.88,0,0,1,2-.41Zm5.6.37,2-.05a21,21,0,0,1,3.17.15c1.12.2,1.12.21.6,1.4a13.36,13.36,0,0,1-1.76,2.6h0a4.91,4.91,0,0,1-1.72,1.42c-.73,0-2-2.28-2.15-4l-.17-1.52Zm139.57-4.83c.72,0,.76.18.78.66a3.7,3.7,0,0,1-.47,1.69,13.3,13.3,0,0,0-.93,2.75,6.19,6.19,0,0,1-.93,2.29c-1.52,1.38-3.07-.22-3.6-3.73a10,10,0,0,1-.17-2.84,9.85,9.85,0,0,1,3.13-.63c1.07-.12,1.75-.18,2.18-.19Zm16.24-.43a3.08,3.08,0,0,1,1.09.13,11.55,11.55,0,0,0,1.32.32c.8,0,4,1.78,5,2.8,1.27,1.22,1.79,3,1.12,3.88s-1.52,1.22-2,.87a6.66,6.66,0,0,0-1.41-.71c-.85-.31-1.62-1-4.78-4.25l-1.63-1.63c-.66-.63-.64-.7.26-1.13a2.88,2.88,0,0,1,1-.29Zm-7.75.31a.74.74,0,0,1,.26,0c.56.14-.14,3.6-1.18,5.83-.88,1.88-1.56,2.22-2.94,1.45-.59-.32-.8-1-1-3.38-.21-2.08-.16-3,.17-3.09a36.27,36.27,0,0,1,4.73-.82Zm-135.2,5c3.25-.12,3.19-.24,1.56,3.19A4.16,4.16,0,0,1,75,270.29c-1.55.68-2.15.78-2.45.4a16.4,16.4,0,0,1,0-5.46c.17-.25,1.38-.45,3.12-.51Zm29.15-.8c.77-.05,1.51-.06,2.09,0,.88,0,.94.09.4.47a6.12,6.12,0,0,0-1.3,2.16,7.46,7.46,0,0,1-1.67,2.51c-1.24,1-1.5,1-3.16.14-1.85-1-2.84-3.61-1.74-4.59a25,25,0,0,1,5.38-.64Zm-21.07.84,2.83-.1-.87,1.53a12.58,12.58,0,0,0-1.07,2.33h0A4.48,4.48,0,0,1,84,270c-.49.61-.54.61-1.24,0A10.27,10.27,0,0,1,81,265.33c0-.35.68-.49,2.81-.57Zm107.45-3.88,2.68-.1-.23,1.08c-.23.95-.51,1.9-.83,2.83s-.88,1.81-1.2,1.87c-.85.17-2.86-1.36-2.9-2.21a3,3,0,0,0-.43-1.27,1.59,1.59,0,0,1-.09-1.33c.27-.7.57-.79,3-.88ZM120,263.56c1.23,0,1.38.12,1.36.91a7.66,7.66,0,0,1-.77,2.43,7.06,7.06,0,0,1-1.31,2c-.91.69-2.36-1.12-2.46-3.07-.07-1.33.06-1.62.86-1.91a8.29,8.29,0,0,1,2.32-.33Zm-7.46.39a4,4,0,0,1,1.38.09c.27.11.08.92-.52,2.13-.52,1.06-1.1,2.33-1.29,2.81-.43,1.08-1.38,1.18-2.06.21-.48-.66-.55-4.5-.1-4.91a8.69,8.69,0,0,1,2.59-.33Zm67.77-2.45c.4,0,.86,0,1.38-.05a21,21,0,0,1,3.55.1,6.58,6.58,0,0,1-1.13,2.41,10.43,10.43,0,0,0-1.33,2.8c0,.31-.45.94-1,1.42a6.07,6.07,0,0,1-1.3.88,5.13,5.13,0,0,1-1.33-.88c-.9-.73-1.16-1.31-1.42-3.16-.38-2.83-.22-3.38,2.62-3.53Zm-89.42,3.28a36.33,36.33,0,0,1,5.11.09c.34.25-1.14,3.73-2.08,4.87-1.1,1.34-1.21,1.36-2.61.52a4.25,4.25,0,0,0-1.49-.62c-1.37,0-.89-4.68.48-4.82.2,0,.4,0,.59,0Zm62.48-2.2a14.89,14.89,0,0,1,2.67.12c.82.15.92.32.74,1.24a11.89,11.89,0,0,1-1.17,2.72c-.53.92-1.24,1.65-1.6,1.66-.81,0-3-2.3-3-3.23a4.44,4.44,0,0,1,.32-1.56c.3-.77.59-.9,2.08-.95Zm-24.83.95c1.9-.07,2.07.36,1.45,1.78a21.65,21.65,0,0,1-1.78,3,8,8,0,0,1-1.4,1.67,5.78,5.78,0,0,1-1.2-.58c-.78-.46-1-.94-1.14-2.25a5.46,5.46,0,0,0-.52-2.1c-.61-.74.28-1.15,3-1.41.64-.06,1.17-.1,1.6-.12ZM162,262.38a14.06,14.06,0,0,1,1.59,0l2.14.14-1.44,2.73a11.07,11.07,0,0,1-1.74,2.74,4.76,4.76,0,0,1-1.45-.9,3.16,3.16,0,0,1-1-3.66c.2-.74.64-1,1.93-1.08Zm11.56-.36a5.3,5.3,0,0,1,2.06.13.66.66,0,0,1-.34.47,2.1,2.1,0,0,0-.57,1.08,20.89,20.89,0,0,1-1.21,2.94c-.57,1.18-1.25,2.05-1.61,2.06A4.55,4.55,0,0,1,170,268c-1.17-.71-1.27-.93-1.37-3a6.23,6.23,0,0,1,.17-2.47,20.47,20.47,0,0,1,4.74-.49Zm-28.49,1c1.68-.06,2.92,0,2.93.24a8.91,8.91,0,0,1-2,4.4,5.71,5.71,0,0,1-1.41,1.32c-.5,0-2.47-2.22-2.7-3.07a4.14,4.14,0,0,1,0-1.82C142.13,263.17,142.21,263.14,145.05,263Zm-9.8.57c.33,0,.68,0,1,0h2.62l-1.35,3.23a23.5,23.5,0,0,1-1.73,3.57c-.22.21-.75-.14-1.4-.93a4.73,4.73,0,0,1-1.11-3.38,7.8,7.8,0,0,1,.14-2.31,6.76,6.76,0,0,1,1.79-.17Zm79-1.2c.54,0,2.49,1.64,3.91,3.33a19.88,19.88,0,0,0,3.23,2.47l2.48,1.57-3.66.35c-5.3.51-9.13.6-9.44.22-.14-.18.1-.68.55-1.11a3.71,3.71,0,0,0,1-1.66c.43-2.33,1.5-5.16,2-5.17ZM43.45,269.62s0,0,.07,0a16.92,16.92,0,0,1,1,1.53c.5.78.78,1.42.63,1.43A11.81,11.81,0,0,1,41.38,271c0-.31,1.67-1.42,2.07-1.4Zm187.62-5.95.55,1.29a9.54,9.54,0,0,1,.5,3.13l-.05,1.83-2.2.08c-1.21,0-2.2-.08-2.21-.26s.36-.35.82-.37c1.64-.06,2.71-1.72,2.64-4.06l-.05-1.64Zm-44.67,1.79c.14,0,.4.36.56.81.38,1.08,3.89,3.78,4.85,3.75a4.87,4.87,0,0,0,3-2.52c.12-.36.4-.66.62-.67s.31.12.2.28c-.27.4,1.73,2.43,2.87,2.9a5,5,0,0,0,1.7.37c.43,0,.65.1.49.25-.35.32-17.17,1-17.77.69-.23-.1,0-.7.48-1.38a32.12,32.12,0,0,0,1.81-2.84,5.65,5.65,0,0,1,1.19-1.64Zm-117,5c.17-.06.46.37.63,1a2.88,2.88,0,0,0,1.16,1.52c.45.24.84.58.85.76,0,.35-1.84.42-4,.16l-1.32-.16,1.15-1.57a7.9,7.9,0,0,1,1.48-1.68Zm79.66-2.61a13.94,13.94,0,0,1,2.25,1.95c1.56,1.54,1.84,2,1.29,2-.39,0-1.09.13-1.56.22a1.88,1.88,0,0,1-1.15-.07,3.19,3.19,0,0,0-1.4-.24c-.6,0-1.3,0-1.57,0-.49,0,1.63-3.83,2.14-3.86ZM61.44,271c.18,0,.29.12.3.37,0,.55,1.71,1.59,2.51,1.57a3.24,3.24,0,0,1,1.48.45c.74.44.47.49-3,.57-3.65.1-4.75-.12-3.69-.73A5.19,5.19,0,0,0,60.27,272c.42-.62.88-1,1.17-1Zm142.77-5.14c.22,0,.35.43.24,1.18-.2,1.38.65,2.32,2.68,3,1.16.37,1,.41-2.07.53l-3.31.14.84-1.64a23.7,23.7,0,0,0,1.09-2.41c.16-.54.37-.79.54-.78Zm-125.1,4.53c.42,0,2.23,2.26,2.26,2.81,0,.37-.58.51-2.49.58l-2.51.09,1-1a5.39,5.39,0,0,0,1.23-1.75c.13-.42.37-.77.52-.76Zm18.26-.6a1,1,0,0,1,.7.42,13.89,13.89,0,0,0,2.05,1.86,9.23,9.23,0,0,1,1.6,1.39,17.19,17.19,0,0,1-3.44.29,20,20,0,0,1-3.46,0,15.28,15.28,0,0,1,2.33-3.9.54.54,0,0,1,.21-.05ZM87,270.41a.32.32,0,0,1,.34.28,6.12,6.12,0,0,0,1.5,1.46,8,8,0,0,1,1.49,1.35c0,.1-.12.16-.3.14s-1.37-.07-2.67-.09-2.32-.15-2.24-.28c1-2,1.6-2.85,1.87-2.86Zm52.59-1.51a10.14,10.14,0,0,1,2,1.33l2,1.44-1.55.27c-2.68.47-3.37.4-3.4-.32a6.78,6.78,0,0,1,.93-2.72Zm18.65-.38c.36,0,2.72,2.76,2.55,3a7.37,7.37,0,0,1-2.63.39c-1.86.06-2.36,0-2.13-.35s.7-1,1.19-1.74a7.25,7.25,0,0,1,1-1.31Zm8.35-.3c.22,0,.38.13.4.52s.61,1,1.34,1.48,1.15,1,1,1a22.18,22.18,0,0,1-3.82.18l-1.06-.08.77-1.52c.48-1,1-1.53,1.41-1.58Zm-51.75,1.92a6.63,6.63,0,0,1,1.55,1.13c.82.69,1.42,1.31,1.33,1.4-.31.29-4.22.35-4.23.06a4.69,4.69,0,0,1,.64-1.38c.36-.6.68-1.15.71-1.21Zm-7.83.5.6.86a1.83,1.83,0,0,0,1.19.84.57.57,0,0,1,.63.48c0,.41-.57.53-2.92.6s-2.8,0-2.18-.31a8.55,8.55,0,0,0,1.73-1.44l1-1Zm15.38-.46c.13,0,.2.12.25.39a6.91,6.91,0,0,0,.37,1.17c.29.67.19.76-.94.8l-1.25,0,.64-1.21q.63-1.17.93-1.2Zm8.5.05c.19,0,.35.13.66.45a11.42,11.42,0,0,1,1.06,1.23c.37.51.21.58-1.42.64-2.08.08-2.31-.29-1.07-1.65.4-.43.6-.65.78-.68Zm45-1.33a4.49,4.49,0,0,1,1.51,1.3l1.15,1.32h-.92a17,17,0,0,1-2-.18c-1.07-.17-1.08-.2-.6-1.3.28-.62.67-1.13.88-1.14ZM62.77,277c.3,0,.64,0,1,0,1.4,0,8.39-.15,15.54-.31s13.74-.25,14.64-.2c7.85.46,6.23.48,16.12-.17a66.75,66.75,0,0,1,8.6-.29c.25.31-.4,1.15-1.3,1.68a49.26,49.26,0,0,0-6.57,4.41,24.55,24.55,0,0,1-5.94,3.16c-2.34,1-4.61,1.92-5,2.15-1.29.68-10.22,1.05-12.17.51a9,9,0,0,1-2.06-.77,1.91,1.91,0,0,0-1-.3,5.22,5.22,0,0,1-1.69-.4,13.11,13.11,0,0,0-2.12-.6,23.57,23.57,0,0,1-3.9-1.49c-1.57-.71-3.42-1.5-4.11-1.74-3.77-1.3-11.46-4.93-11.48-5.42a4,4,0,0,1,1.54-.21Zm82.7-2.15c.62,0,1.47,0,2.57.05,2.86.1,12.15-.15,14.77-.4a124.3,124.3,0,0,1,13.92-.11,3.87,3.87,0,0,0,2.31-.1c.43-.22.88-.26,1-.1s17.84-.4,22.37-.83c.66-.06,3.14-.05,5.49,0,4.59.14,5.83.06,6-.41.06-.16.56-.17,1.1,0a26.21,26.21,0,0,0,4.85.09,20.65,20.65,0,0,1,4.16,0c.16.12-.89.26-2.32.32-3.07.11-5.12.61-5.76,1.42-.42.53-.52.53-1.22,0s-1-.53-2.53-.12a18.54,18.54,0,0,1-3.14.52c-3.35.12-11.55,2.16-20.92,5.2-1.32.42-2.8.84-3.27.92a32.55,32.55,0,0,0-3.24.95,27.74,27.74,0,0,1-4.76,1.06c-1.32.14-2.86.33-3.41.41-.89.14-3.73.09-10.38-.19a19.78,19.78,0,0,1-2.66-.25,16.61,16.61,0,0,0-2.34-.28c-4.11-.28-9-2.74-13-6.5-1.31-1.25-1.48-1.64.38-1.7Zm-15,.68c.37,0,.82,0,1.26.07,1.33.13,1.61.3,1.7,1,.06.46.32,2.24.58,3.94.57,3.7,0,5.92-1.91,7.63a5.53,5.53,0,0,1-1.52,1.1,3.14,3.14,0,0,1-1.14-.81c-.67-.65-.82-1.17-.74-2.6a30.18,30.18,0,0,0-.16-5.86c-.21-2.33.25-4.07,1.14-4.39a3,3,0,0,1,.79-.08Zm-5.6.23c.34,0,.08,1-.77,3.24-1.2,3.1-2.64,5.51-3.31,5.53a3.22,3.22,0,0,0-1.43,1,7.57,7.57,0,0,1-1.77,1.42c-1,.5-1.7.56-1.72.15,0-.62,1.5-3.49,1.88-3.5.21,0,.37-.3.35-.66s.46-.92,1.06-1.26c1.26-.73,4-3.39,4-3.88a4.13,4.13,0,0,1,.93-1.4c.4-.44.67-.67.83-.67Zm12.34,2.48c.43-.05,2.48,1,4.57,2.44,2.33,1.56,3.68,3.13,3.57,4.16a2.08,2.08,0,0,1-.86,1.33c-.66.4-1,.37-2.57-.21-1.91-.73-3.53-1.86-3.15-2.2.12-.12,0-.42-.28-.67-.54-.5-1.67-4.54-1.35-4.83a.06.06,0,0,1,.07,0Z"/></g></g></svg>