<svg xmlns="http://www.w3.org/2000/svg" viewBox="0 0 249.27 333.92"><defs><style>.cls-1{fill:#b69564;}</style></defs><g id="圖層_2" data-name="圖層 2"><g id="圖層_1-2" data-name="圖層 1"><path id="Path_55355" data-name="Path 55355" class="cls-1" d="M0,190.32a5.87,5.87,0,0,0,1.36,3.31,11.16,11.16,0,0,1,1.45,2.5c0,.22.37.52.83.66s.83.43.83.62c0,.43,1.46,1,2.9,1.08,3.05.22,6.2-3.4,6.2-7.12,0-1.36-1.6-3.89-2.47-3.89-1.32,0-1.81,1.05-1,2.22,1,1.54.36,4.42-1.15,5.14-1,.47-1.26.44-2.06-.17a10.83,10.83,0,0,1-3-4.43,2.25,2.25,0,0,1,.83-2,5.3,5.3,0,0,0,1-1.4c0-.46,2.61-2.61,3.94-3.25a4.15,4.15,0,0,1,2.07-.45c.5.08,1,.14,1.51.18,1.19.06,3.15,2,4.25,4.29.94,1.94,1.05,2.67,1.07,7.34,0,5.36,0,6.08-.55,6.9-.3.5-.8,3.69-1.72,11.11-.66,5.39-.54,18.63.19,20.16.3.62.69,1,.88.91s.26,0,.14.34c-.45,1.17,5.24,10.89,8.46,14.46a75.38,75.38,0,0,0,9.32,8.81c2.94,2.21,3.47,2.54,9.76,6,4.69,2.61,4.36,2.34,3.84,3-2.06,2.6-1.28,14,1.23,17.81a30.29,30.29,0,0,1,1.77,3.84A16.92,16.92,0,0,0,53.79,292a3,3,0,0,1,.77,1.35c0,.61,1.79,3.52,3.22,5.25,3.2,3.87,5.41,6.15,6.51,6.72a7.06,7.06,0,0,1,1.45.91A32.82,32.82,0,0,0,71.65,309a28.92,28.92,0,0,1,2.81,1.2,27,27,0,0,0,3.93,1.4l5.77,1.71a31,31,0,0,0,7,1.05c2.28.09,5.82.26,7.87.39s7.73.2,12.62.17c13.76-.08,13.27-.11,15.58,1.17,3.7,2,4.15,2.57,4.43,5.17.16,1.41.09,2.45-.16,2.6a.78.78,0,0,0-.32.75c.14.68-1,2.68-2.71,4.59-1.2,1.38-1.63,1.61-3,1.56a7.12,7.12,0,0,1-4.64-2.27A3,3,0,0,1,120,326c0-2.1.82-3,3.19-3.34,1.42-.22,1.89-.11,2.66.61,1.55,1.44,2.44.94,2.44-1.39,0-.73-.4-1.1-1.85-1.65-1.94-.74-2.53-.67-5.39.61a7.05,7.05,0,0,0-3.91,3.84c-.75,2,.76,6.49,2.18,6.49a4.32,4.32,0,0,1,1.54,1.34c1,1.18,1.38,1.34,3.44,1.42a5.33,5.33,0,0,0,2.56-.3,1.44,1.44,0,0,1,1.06-.39c.94,0,5.34-4.38,5.34-5.31a6.09,6.09,0,0,1,.91-2.07l.91-1.48.85,1.88c2.09,4.62,4.39,6.19,9.12,6.25,1.6,0,4.72-1.84,6.81-4,2.57-2.73,2.73-4.07.82-7a4.57,4.57,0,0,0-3-2.39c-2.64-.72-6.11,0-7.73,1.7s-1.46,2.51.14,2.94c1,.26,1.23.15,1.62-.7.51-1.13,3.11-2.06,4.52-1.61s2.09,2.68,1.5,4.25c-.86,2.29-6.66,4.36-8.3,3L140,327.49a6,6,0,0,1-1.35-1.88c-.44-1-.4-1.44.25-2.9.79-1.79,3.81-5.25,4.59-5.25.25,0,.68-.37,1-.82s.73-.83,1-.83a.7.7,0,0,0,.62-.33c.24-.56,5.41-3.2,7.39-3.77a10.93,10.93,0,0,0,2.27-.86,13.17,13.17,0,0,1,3.28-.6,14.89,14.89,0,0,0,3.31-.56,13.93,13.93,0,0,1,4-1.33,48.9,48.9,0,0,0,7.95-2.5,3.06,3.06,0,0,1,1.18-.4,7.27,7.27,0,0,0,1.76-.58c.72-.32,2.43-1,3.79-1.52A28.94,28.94,0,0,0,191.7,297a7,7,0,0,1,1.31-1.05c.57,0,6.88-6.91,8.31-9.1,2.38-3.67,3.93-6.48,3.68-6.72-.1-.11.09-.44.43-.73a1.76,1.76,0,0,0,.64-1.09c0-.32.14-.57.33-.57.78,0,2.06-5.82,2.1-9.52,0-1,.08-2.61.16-3.52a12,12,0,0,0-.2-3.11c-.19-.79-.44-1.86-.55-2.37a15.79,15.79,0,0,0-.57-1.89c-.35-.92-.27-1,1.12-1a23.66,23.66,0,0,0,4.4-1c2.5-.78,3.28-1.27,5.51-3.51a12.9,12.9,0,0,0,2.6-3.19,2.38,2.38,0,0,1,.83-1.32,2.36,2.36,0,0,0,.82-1.31.5.5,0,0,1,.42-.55c.22,0,.41-.29.41-.64a1,1,0,0,1,.62-.87c.35-.14.62-.42.62-.64a5.7,5.7,0,0,1,1-1.72,16.8,16.8,0,0,0,1.89-4,17.64,17.64,0,0,1,1.9-4.11,5.32,5.32,0,0,0,1-2.24,29.92,29.92,0,0,1,1.06-4.37c1.48-5,2.11-11.18,2-19.73-.09-6.67-.42-14.83-.6-14.83s-.33-1.83-.61-5.85c-.27-3.81-.21-4.37.61-6.06,1.09-2.25,3-4.33,4.28-4.65a4.67,4.67,0,0,1,4.91,1.49,6.51,6.51,0,0,1,1.2,1.74c0,.19.21.2.48,0s.38-.13.26.08a1.71,1.71,0,0,0,.07,1.18,7.31,7.31,0,0,1-1.17,5.24c-1.08,1.15-2.84.9-3.93-.57-.82-1.09-.82-1.19-.15-2.33,1.44-2.43.59-4.25-1.53-3.3-1.24.57-1.9,2-1.9,4.12,0,1.35.3,2,1.71,3.49,1.91,2.08,4,2.89,6,2.32,1.62-.47,3.05-1.37,3.05-1.93a1.64,1.64,0,0,1,.5-.93c1.21-1.21,1.22-5.94,0-8.38-.93-1.9-3.11-4.28-4.23-4.62-.37-.11.23-.64,1.54-1.35a10.76,10.76,0,0,0,4.87-5.77c.73-2.29.23-7.79-.79-8.43a5.94,5.94,0,0,1-1.2-1.44c-.4-.62-.86-1.11-1-1.06A10,10,0,0,1,244,155c-2-.41-3,0-5.63,2.47a7.44,7.44,0,0,0-2.26,3.16,7.25,7.25,0,0,0,1.57,5.48l1,1.19.71-1.09c.68-1,.67-1.15-.18-2.58-1-1.66-.84-2.11,1.35-4.47,2.38-2.57,5.66-.37,5.66,3.79a6.29,6.29,0,0,1-4.63,6.46c-4.54,1.42-5.42,1.18-6.84-1.88-1.68-3.61-2.46-11.54-1.34-13.62a20.26,20.26,0,0,0,.59-4.59,124.23,124.23,0,0,1,1.69-13.59c.39-1.94.24-12.46-.19-13a7.76,7.76,0,0,1-.6-2.41,13.29,13.29,0,0,0-1.18-3.73,10.16,10.16,0,0,1-1-2.44,48.78,48.78,0,0,0-3.84-7.77c-.37-.6-1-1.71-1.5-2.46-1.37-2.26-2.31-3.36-2.88-3.36-.3,0-.64-.36-.75-.79s-1.89-1.9-3.95-3.26C217,94.67,215.55,94,214,93.78c-1.87-.25-2.06-.38-2.3-1.57a2.91,2.91,0,0,1,.09-1.75,21.16,21.16,0,0,0,1.27-2.78c1-2.64,1.22-7.24.43-11.13-.25-1.25-.55-2.93-.67-3.72-.48-3.37-2.45-10.08-3-10.27a.72.72,0,0,1-.44-.63,12,12,0,0,0-1-2.55,17.93,17.93,0,0,1-1-2.33c0-.59-3.84-6.57-4.19-6.57s-.38-.29-.38-.65c0-1-1.88-3.27-7-8.45-5.57-5.59-7.47-7.16-11.33-9.36-1.57-.89-3.34-1.94-3.93-2.34a18.21,18.21,0,0,0-1.92-1.09A31.79,31.79,0,0,0,173,26.44c-.79-.18-2.84-.72-4.55-1.21a60,60,0,0,0-10.87-2.09c-6.13-.69-7.09-.81-8.17-1-.57-.11-2.81-.39-5-.61-7.35-.75-8.48-.91-8.9-1.26a9.47,9.47,0,0,0-2.36-.83,8.87,8.87,0,0,1-3.85-2.29c-1.74-1.64-1.89-1.94-1.8-3.58.21-4,2.6-7.26,6-8.2a4.32,4.32,0,0,1,3.6.2c2.76,1.09,4.38,2.53,4.93,4.37s.11,3.37-1.22,4.08a1.7,1.7,0,0,1-2.23-.9,1.64,1.64,0,0,1-.13-.54c-.25-2.29-1.27-2.82-2.68-1.41-1.15,1.15-1,2.55.3,3.8,2.35,2.19,4,2.55,4.42,1,.31-1.24,1.07-1.38,1.07-.21,0,2.2,3.21-.13,4.12-3,.41-1.28.38-2-.18-3.88-.37-1.27-.79-2.21-.93-2.07s-.45-.17-.7-.68a10.58,10.58,0,0,0-3.51-2.48c-4.79-2.45-8.48-2-12.36,1.5a10.64,10.64,0,0,1-1.87,1.49A4.37,4.37,0,0,1,125,5.25C122.69,1.6,120.43.15,116.79,0a9.08,9.08,0,0,0-7,2.59,7.24,7.24,0,0,1-2,1.38c-1.44.65-3.11,3.29-3.71,5.9-.44,1.92-.4,2.15.63,3.71a9.62,9.62,0,0,0,2,2.28c1.9,1.25,7.34,1.19,7.34-.08,0-.51.11-.53.64-.09s.84.34,1.9-.67c2.35-2.23,3.51-5.55,2.35-6.71s-3.63-.06-3.07,1.41c.35.92-1.27,3.43-2.37,3.67-2.91.63-4.72.36-5.49-.82-.64-1-.64-1.17,0-2.91A9.27,9.27,0,0,1,111,6.07a8.86,8.86,0,0,1,2.41-1.66c.17,0,.55-.19.82-.52.73-.88,4-.78,5.61.17,2,1.19,2.66,3.07,2.27,6.05a12.4,12.4,0,0,1-2.72,6.45c-.93,1.12-5.2,4.11-5.87,4.11a3.76,3.76,0,0,0-1.46.81c-.57.45-1.12.73-1.23.64a31.27,31.27,0,0,0-5.12,1.4,68.36,68.36,0,0,1-8.46,2.11c-1.94.28-4.64.76-6,1.05s-3.79.66-5.38.81c-8.07.74-19.13,3.89-23.22,6.6a18,18,0,0,1-2.46,1.48c-.53,0-6.36,4.57-8.47,6.66-3.19,3.13-6.42,7.05-6.42,7.77a.87.87,0,0,1-.52.78.71.71,0,0,0-.51.57,3.38,3.38,0,0,1-1,1.31c-1.09,1-6,10.33-6,11.44a4.9,4.9,0,0,1-.58,1.74c-1,1.87-2,5.29-1.7,5.75a.91.91,0,0,1-.15,1c-.82,1-1.52,6.89-1.4,11.73a9,9,0,0,0,1.12,4.84c1.46,2.61,1.37,3-.71,3.35a15.26,15.26,0,0,0-2.59.62c-.45.19-1.44.58-2.19.86a3.87,3.87,0,0,0-1.77,1.29,1.41,1.41,0,0,1-1,.77c-.32,0-2.78,2.14-5.47,4.76s-4.7,4.76-4.47,4.77.24.13,0,.3A13.43,13.43,0,0,0,14,110.52a14,14,0,0,1-.83,2.77,13.58,13.58,0,0,0-.83,3.93,16.39,16.39,0,0,1-.52,3.62c-.56,2-.68,13.47-.18,17.18.16,1.13.38,3.18.5,4.55s.28,3.17.36,4a5,5,0,0,0,.62,2.13,1.49,1.49,0,0,1,.11,1.56c-.34.88,0,4.33.67,6.16a5.41,5.41,0,0,1,.13,1.75,10,10,0,0,0,1.29,4.65,3,3,0,0,1,.33,1.52,7.51,7.51,0,0,0,.41,2.2,20.65,20.65,0,0,1,1.1,5.32,4,4,0,0,1-.71,3.36c-1.12,1.62-2.79,2.31-5.63,2.31-3.29,0-5.52-2.44-5.52-6,0-1.49,1.54-3.68,2.81-4A2.24,2.24,0,0,1,10.5,171c-1.2,1.82.27,3.36,2.08,2.18s1.67-4.89-.55-7.3c-.86-.95-1.35-1.1-3.7-1.15s-2.86.07-4,1c-1.54,1.3-2.88,3.35-2.54,3.91.13.21.07.38-.13.38-.5,0,.07,3.65.68,4.25a2,2,0,0,1,.47,1.23c0,1.18,1.23,2.79,3,3.89l1.59,1L5,182.84c-2.95,2.93-4.25,4.62-4.25,5.57,0,.4-.15.72-.34.72s-.36.54-.41,1.2ZM15.13,130c0-5.81.37-12.93.91-13.31a10.18,10.18,0,0,0,.83-2.7c1.06-4.92,2.54-7.26,8-12.67,2.76-2.74,5.4-5.06,5.89-5.16s.94-.34,1-.56a.53.53,0,0,1,.7-.18,2.13,2.13,0,0,0,1.42-.24c.82-.44,1.29.08.5.56a20.09,20.09,0,0,0-1.69,3.86c-.74,2-1.6,4.22-1.92,4.94a9.74,9.74,0,0,0-.59,1.5,13.66,13.66,0,0,1-.7,1.8c-.38.88-.71,1.7-.72,1.8a39,39,0,0,1-1.93,5.7,9.62,9.62,0,0,0-.78,2.38c0,.34-.15.62-.32.62a7.8,7.8,0,0,0-1.08,2.79c-.41,1.54-.92,3.26-1.12,3.83-.37,1.06-1.56,6.42-1.83,8.28a123,123,0,0,0-1.25,12.41,127.26,127.26,0,0,1-1.29,13.66l-.24,1-.43-1c-.87-2.15-1.34-5.1-1.75-10.87-.13-1.76-.39-4.46-.59-6s-.38-3.07-.38-3.41-.15-1.55-.31-2.69a51.82,51.82,0,0,1-.3-6.35Zm0,50.38q-.06-.36.69-.36A6.45,6.45,0,0,0,17.91,179c.86-.58,1.67-.94,1.81-.8a14.13,14.13,0,0,1,.41,3.37l.16,3.1-2.73-1.95c-1.57-1.14-2.38-1.89-2.44-2.3Zm4.66,43c0-2.23.08-4.45.2-6.1.51-6.35.7-9.44.66-10.34a6.29,6.29,0,0,1,.6-2.38,18.59,18.59,0,0,0,.9-4.89,21.55,21.55,0,0,1,.36-3.4,48.81,48.81,0,0,1,1.31,6.45c-.2.62,1.35,6.82,3,12.05a21.9,21.9,0,0,1,.84,3.18,7,7,0,0,0,.48,1.68,9.78,9.78,0,0,1,.53,1.58A29.42,29.42,0,0,0,31,227.78c.7,1.4,1.45,3,1.68,3.58s.57,1.36.77,1.75a3.3,3.3,0,0,1,.37,1.19,11.75,11.75,0,0,0,1,2.52,12.33,12.33,0,0,1,1,2.49A23.4,23.4,0,0,0,38.51,245c.17.08.31.47.31.88,0,1.25,6.46,13.25,7.14,13.26.52,0,.35.7-.3,1.24-.36.3-.63.34-.63.1s-1-.9-2.17-1.5-2.73-1.43-3.42-1.85C37.68,256,27.74,246,27.42,245a9.38,9.38,0,0,0-1.63-2.36,33.45,33.45,0,0,1-5.58-10.49,60.36,60.36,0,0,1-.42-8.71Zm2.61-47.91a1.47,1.47,0,0,1,.09-.58c.39-1.17.55-10.17.19-10.4a5.22,5.22,0,0,1,0-2.36c.17-1.2.44-3.85.58-5.88a26.91,26.91,0,0,1,.45-4,.46.46,0,0,0-.24-.59c-.31-.19-.3-.45,0-.85s.53-2.58.62-5.44a90.27,90.27,0,0,1,3.5-21.9,3.74,3.74,0,0,0,.17-2c-.14-.37-.05-.68.19-.68.54,0,1.38-1.91,2.82-6.41.58-1.82,1.4-4.06,1.81-5s1.06-2.59,1.43-3.73,1.21-3.18,1.84-4.55c1.26-2.73,2.2-4.85,2.29-5.17.23-.83,4.84-9.75,5.32-10.3a10.27,10.27,0,0,0,1.25-2.12A35.69,35.69,0,0,1,48,78a8.7,8.7,0,0,0,1.14-2A3.33,3.33,0,0,1,50,74.78,5.13,5.13,0,0,0,51.09,73a7.79,7.79,0,0,1,1.64-2.42,7,7,0,0,0,1.4-1.84,65.94,65.94,0,0,1,4.54-7,25.33,25.33,0,0,0,2.92-4.57c0-.22.24-.4.54-.4s.95-.7,1.44-1.55A37.44,37.44,0,0,1,68,50.06c4.71-4.69,5.6-5.47,8.84-7.74l4.57-3.21c2.34-1.64,1.88-1.39,8.34-4.59,12.9-6.38,24.44-10.13,33.32-10.81,7.17-.55,8-.46,15.11,1.68,1.93.58,4.73,1.36,6.21,1.74a38.69,38.69,0,0,1,3.93,1.2c3.6,1.52,11.3,5.21,13.25,6.35.68.4,2,1.14,2.89,1.65,1.57.87,2.91,1.72,6.72,4.28.9.6,2.28,1.44,3.06,1.86,3.86,2.09,10,7.65,13.8,12.49,1.76,2.23,2.19,2.57,3.1,2.38.58-.12.83-.11.54,0-.87.38-.58,1.27.93,2.87a5.88,5.88,0,0,1,1.45,2.07.74.74,0,0,0,.36.66,18.8,18.8,0,0,1,2.12,3.45l2.33,4.35c.31.57.8,1,1.08,1s.51.41.5.91.13.8.34.67.31,0,.24.34a8.38,8.38,0,0,0,.95,2.83c.6,1.25,1.47,3.12,1.94,4.15.88,1.89,3.24,8.55,4.62,13,.7,2.25,1.65,4.88,4.09,11.31a15.06,15.06,0,0,0,1.26,2.7,4,4,0,0,1,.6,1.52c.11.56.47,1.86.8,2.89s.92,3,1.31,4.34a24.71,24.71,0,0,0,1.08,3.21,4.25,4.25,0,0,1,.4,1.72c0,.55.17,1.07.38,1.14s.47.89.58,1.8a32.35,32.35,0,0,0,1.08,4.55c.49,1.6,1.1,3.64,1.36,4.56a9.12,9.12,0,0,0,.88,2.2,5.54,5.54,0,0,1,.5,2.3,14.76,14.76,0,0,0,.51,3.17c1.75,5.61,3.72,18.06,3.16,19.92a21.86,21.86,0,0,0,.61,4.76,37.08,37.08,0,0,1,.75,7.72c0,2-.11,3.69-.15,3.72s-.18,2.07-.31,4.5a60.87,60.87,0,0,1-2.48,15.45,54.82,54.82,0,0,0-1.49,6.23,2.25,2.25,0,0,1-.34,1.24c-.33.38-.81,1.93-2.52,8.26a42.74,42.74,0,0,1-1.65,4.9,10.25,10.25,0,0,0-.87,3,1.71,1.71,0,0,1-.42,1.24,1.64,1.64,0,0,0-.41,1.24,1.66,1.66,0,0,1-.41,1.24,1.65,1.65,0,0,0-.42,1.22,2.11,2.11,0,0,1-.58,1.44,13,13,0,0,0-1.7,3.26c-.61,1.52-1.28,3.05-1.49,3.39-.72,1.21-4.93,10-4.93,10.26,0,.8-6.15,12.57-8.62,16.48-1.19,1.89-3.56,5.38-3.77,5.55a113.58,113.58,0,0,0-6.24,9.56.35.35,0,0,1-.32.37c-.18,0-.68.61-1.12,1.35a89.82,89.82,0,0,1-5.38,7.2,109.54,109.54,0,0,1-11.37,10.91c-1,.8-2,1.68-2.34,2a1.65,1.65,0,0,1-.91.52,1.75,1.75,0,0,0-.94.66c-1.24,1.49-11.38,7.21-12.79,7.21a7,7,0,0,0-2.21.83,19.91,19.91,0,0,1-3.72,1.41c-1.19.32-2.69.78-3.35,1a16.78,16.78,0,0,1-3.31.69c-.92.08-1.83.21-2.74.38-.69.19-4.19.53-8.28.8a32,32,0,0,1-7-.64l-5.58-1c-1.39-.25-7.6-2-9.52-2.68-1.51-.53-6.42-1.93-8.7-2.47a16.29,16.29,0,0,1-3.1-1.16,13,13,0,0,0-2.54-1,20.87,20.87,0,0,1-3.62-1.68,11.75,11.75,0,0,0-2.54-1.25c0,.62-8.28-5.12-10-6.93A4,4,0,0,0,76.12,291a.51.51,0,0,1-.46-.53,17.55,17.55,0,0,0-3.35-3.59,120.53,120.53,0,0,1-11.62-12.08c-.38-.54-2.18-3-4-5.43a72.49,72.49,0,0,1-4.82-7.3,25.52,25.52,0,0,0-2.19-3.61,14.75,14.75,0,0,1-1.53-2.37c-.45-.88-1.2-2.32-1.67-3.2a7.57,7.57,0,0,0-1.65-2.2,2.33,2.33,0,0,1-.85-.94,19.57,19.57,0,0,0-1.81-4.48c-.65-1.37-1.61-3.61-2.12-5a10.55,10.55,0,0,0-1.39-2.79c-.24-.17-.31-.31-.15-.31.43,0-.92-3.78-1.8-5a4.21,4.21,0,0,1-.76-1.73,1.18,1.18,0,0,0-.41-.9,1.43,1.43,0,0,1-.42-1.09,5,5,0,0,0-.59-1.95c-.32-.6-1-2-1.52-3.17A10.2,10.2,0,0,0,31.7,221a3.84,3.84,0,0,1-.52-1.87,15,15,0,0,0-.22-1.62,4,4,0,0,1-.24-1,9.26,9.26,0,0,0-.79-2.15,6.24,6.24,0,0,1-.62-2.43,35.66,35.66,0,0,0-.65-4.47c-1-5.19-2.23-12.18-2.45-14.33a10.83,10.83,0,0,0-.56-2.69,19.8,19.8,0,0,1-1.15-5.6,15,15,0,0,0-.59-3,12.56,12.56,0,0,1-.4-3.29c0-1.68-.16-2.33-.65-2.52a.61.61,0,0,1-.46-.54Zm4.42-.52c0,1.14,2,1.77,3.21,1,1.81-1.14.82-3.39-1.51-3.39-.9,0-1.7,1.11-1.7,2.37Zm.88-22.14c-.07,1.94,1.2,2.85,2.88,1.94,1.21-.64,1.05-2.69-.28-3.56s-2.38-.36-2.57,1.22a2.69,2.69,0,0,0,0,.4Zm0,11.66c0,.44.23.7.74,1.12,1.16.94,1.84,1,2.69.12a3.3,3.3,0,0,0,.29-3.42,2,2,0,0,0-1.74-.41c-1.18.11-1.45.35-1.79,1.54a4.15,4.15,0,0,0-.2,1Zm.56,21.42a3.85,3.85,0,0,0,.39,1.37c.71,1.69,1.62,1.85,3,.55,1.12-1,1.18-1.5.35-2.68s-2.55-1.47-3.32-.29a1.92,1.92,0,0,0-.43,1.05Zm.57-44.26a1.36,1.36,0,0,0,.23,1c1.41,1.31,2.7,1,3.72-1,.39-.74.45-1.29.19-1.61-.59-.71-2.64-1.34-3.22-1a3.87,3.87,0,0,0-.93,2.61ZM30.19,199c0,1.23.5,1.73,1.64,1.74a1.54,1.54,0,0,0,1.11-.92l.48-1a8,8,0,0,0-.39-1.17c-.33-.87-.64-1.06-1.55-1s-1.16.33-1.28,1.74a5.42,5.42,0,0,0,0,.57ZM31,129.64A2.08,2.08,0,0,0,31.8,131c1.23,1.32,2.76,1.36,3,.09.41-2.12.27-2.79-.72-3.44-1.44-.93-2.41-.61-2.87,1A3.59,3.59,0,0,0,31,129.64ZM32.83,211a4.33,4.33,0,0,0,.24,1.23c.27.72.67.94,1.74.94a3.68,3.68,0,0,0,1.67-.28c.41-.41.33-1.74-.15-2.65-.3-.55-.87-.8-1.87-.8-.78,0-1.44.14-1.46.31s-.09.59-.15.93a1.15,1.15,0,0,0,0,.32Zm.67-91.29c0,.6.44,1,1.29,1.58l1.34.82,1.37-1.52c.75-.84,1.2-1.63,1-1.76a2.3,2.3,0,0,1-.63-1,1.1,1.1,0,0,0-.9-.73c-.35,0-.64-.17-.64-.37,0-.77-1.54.06-2.21,1.19a3.57,3.57,0,0,0-.63,1.75Zm1.91,35.69c0,13.78.6,36.17,1.17,40,.3,2,.47,3.39.53,4.24a3.36,3.36,0,0,0,.92,1.6c.71.7.9,1.49,1,4.2.18,4,.54,6.57,1,7.13a6.93,6.93,0,0,1,.62,2.08,7.76,7.76,0,0,0,.61,2.06,19.92,19.92,0,0,1,1,3.11,34.66,34.66,0,0,0,1.48,4.34,19,19,0,0,1,1.05,2.9,21.46,21.46,0,0,0,1.43,3.52c1.93,3.86,3.31,7,3.31,7.6a2.37,2.37,0,0,0,.82,1.3,2.44,2.44,0,0,1,.83,1.44,17.64,17.64,0,0,0,2.94,5,8.94,8.94,0,0,1,1,1.7c2.34,4.51,3.49,6.54,3.85,6.77a5.78,5.78,0,0,1,1.13,1.79,35.09,35.09,0,0,0,4.49,6.71,1.66,1.66,0,0,1,.62,1c0,.75,3.79,5.17,4.43,5.17a.55.55,0,0,1,.53.56,7.22,7.22,0,0,0,2,3c.21.23,1.25,1.16,2.31,2.07s2.3,2,2.76,2.41a29.06,29.06,0,0,0,2.38,1.87c.85.6,3.11,2.29,5,3.74a51.42,51.42,0,0,0,4.32,3c.46.21,1.76.94,2.9,1.61a46.57,46.57,0,0,0,8.18,3.92c.62.16,1.14.45,1.14.66s.28.36.62.36a3.73,3.73,0,0,1,1.35.38,18.36,18.36,0,0,0,3.1.9,7.53,7.53,0,0,1,2.85,1.07,2.93,2.93,0,0,0,1.88.55,5.89,5.89,0,0,1,2.27.45,6.94,6.94,0,0,0,2.15.59c.71.08,3,.36,5,.64C129.34,298,138,296.37,147,292c5.19-2.54,7.48-3.91,9.09-5.44a15.2,15.2,0,0,1,2.61-2,29.34,29.34,0,0,0,4.34-2.69,16,16,0,0,1,2.28-1.46c4.07-2.34,13.35-10.72,16.28-14.72a19.06,19.06,0,0,1,1.5-1.86c1.35-1.27,4.78-5.75,4.78-6.25,0-.31.17-.58.38-.58a13.54,13.54,0,0,0,2.37-3.21c1.09-1.76,2.09-3.3,2.22-3.41a11.11,11.11,0,0,0,1-2.17,7.5,7.5,0,0,1,1.12-2.2,13.71,13.71,0,0,0,2-4,7.55,7.55,0,0,1,1-1.84,6.2,6.2,0,0,0,1-2.26,5.46,5.46,0,0,1,.61-1.92,26.76,26.76,0,0,0,2.28-5.6,7.46,7.46,0,0,1,.82-2.08,3.87,3.87,0,0,0,.6-2.12.65.65,0,0,1,.42-.82,1.15,1.15,0,0,0,.65-1,20.86,20.86,0,0,1,2.23-6.22,38.52,38.52,0,0,0,2.86-11c0-.4.16-.72.31-.72.4,0,1.21-3.06,1.22-4.6a13.34,13.34,0,0,1,.41-2.89,23.72,23.72,0,0,0,.58-3.76,26.9,26.9,0,0,1,.61-3.89c.53-2,1.69-9.58,2.11-13.84.45-4.66.48-14.81,0-15.09s-2.07-4.59-2.25-6.35c-.25-2.51-1.58-8.52-2-9.06a.87.87,0,0,1-.15-.9.45.45,0,0,0-.1-.63,4.65,4.65,0,0,1-.4-2.21,11,11,0,0,0-.55-3.22,10.46,10.46,0,0,1-1-3.93,10.07,10.07,0,0,0-.65-2.69,16.62,16.62,0,0,1-.82-3.41,7.65,7.65,0,0,0-.84-3c-.32,0-.74-1.45-1.64-5.6-.2-.92-.66-2.5-1-3.52a11.83,11.83,0,0,1-.65-2.81,7,7,0,0,0-.8-2.48,17,17,0,0,1-1.24-3.81c-.64-3.22-.65-3.26-1.2-3.81a1.94,1.94,0,0,1-.49-1.21,1.29,1.29,0,0,0-.41-1,1.81,1.81,0,0,1-.42-1.32,17.09,17.09,0,0,0-1.45-4.27,26,26,0,0,1-1.45-3.64,19,19,0,0,0-1.44-3.22,16.37,16.37,0,0,1-1.45-3.29,10.89,10.89,0,0,0-1.46-2.68,12.82,12.82,0,0,1-1.67-3.25,10.39,10.39,0,0,0-.9-2.34c-.38-.68-1.35-2.47-2.16-4-2.94-5.49-3.36-6.16-3.86-6.17-.28,0-.87-.8-1.3-1.76C179.72,64,172.18,55.44,171,55.44c-.29,0-.52-.18-.52-.39,0-1-5.2-5.37-6.42-5.41A9.07,9.07,0,0,1,161.74,48a11.65,11.65,0,0,0-2.16-1.65,44.72,44.72,0,0,1-6.12-2.75,40.65,40.65,0,0,0-6.21-2.79c-1.49-.57-3.26-1.33-3.93-1.68a5.86,5.86,0,0,0-1.81-.65,14.15,14.15,0,0,1-2.9-1c-2.56-1.08-7.86-2.46-8.78-2.29a19.66,19.66,0,0,1-3.59-.42,26.7,26.7,0,0,0-10.86.59c-1.48.33-3.62.77-4.76,1a41.38,41.38,0,0,0-12,4.16c-2.73,1.33-5.38,2.55-5.89,2.7s-.94.47-.94.69-.16.31-.36.19-.6.05-.88.39a1.68,1.68,0,0,1-.9.62c-.43,0-2.15,1.23-5.64,4a10.06,10.06,0,0,1-2.74,1.77c-.31,0-1,.6-1.58,1.34a31,31,0,0,1-2.28,2.59c-.69.68-2.08,2.28-3.1,3.54s-2.37,2.85-3,3.52A110.27,110.27,0,0,0,63.84,71c-.68.88-1.42,1.8-1.65,2a25.56,25.56,0,0,0-3.64,5.92,4,4,0,0,1-.9,1.75c-.42.47-.6.85-.39.86s.09.24-.25.52a5.44,5.44,0,0,0-1.15,1.54c-.29.56-1.06,2-1.72,3.1a10.48,10.48,0,0,0-1.23,2.83,4.14,4.14,0,0,1-.86,1.82A3.67,3.67,0,0,0,51.22,93a2,2,0,0,1-.43,1.09c-1.15,1.34-3.29,5.47-3.29,6.34,0,.54-.17,1-.37,1s-.49.66-.64,1.45-.45,1.45-.67,1.45-.39.29-.39.64a7.94,7.94,0,0,1-.68,2.17,15.14,15.14,0,0,0-.82,2.25,24.74,24.74,0,0,1-1.41,3.31,18.88,18.88,0,0,0-1.4,3.64,8,8,0,0,1-.39,1.66,75.48,75.48,0,0,0-3.15,14.41,7.54,7.54,0,0,1-.39,2.49c-.46.86-1.59,9.24-1.7,12.7-.07,1.92-.1,4.65-.1,7.83Zm.88-72.51a20.29,20.29,0,0,1,.61-5.49,11.43,11.43,0,0,0,.67-2.8A4.3,4.3,0,0,1,38,72.92a17.82,17.82,0,0,0,.87-3.2,18.48,18.48,0,0,1,1-3.52,25.74,25.74,0,0,0,1.07-2.48,9.34,9.34,0,0,1,1-2.07q.78-1.21,1.44-2.49a19.08,19.08,0,0,1,1.54-2.52,2.28,2.28,0,0,0,.56-1.13,2.8,2.8,0,0,1,.72-1.29c.4-.44,1.28-1.57,2-2.52s1.64-2.16,2.13-2.69.77-1.08.64-1.21.17-.54.69-.9,2.26-1.8,3.9-3.22c3.64-3.14,10.67-7.85,12.92-8.65.91-.33,3-1,4.76-1.52s3.38-1,3.72-1.15a2.12,2.12,0,0,1,1-.16,7.88,7.88,0,0,0,1.86-.32,27.72,27.72,0,0,1,3.59-.6c1.15-.12,2.68-.34,3.42-.49s1.35-.13,1.35.07c0,.42-1.44,1.4-2.06,1.4s-4.58,2.44-5.81,3.55A6,6,0,0,1,78,37a2.23,2.23,0,0,0-1.37.82,1.75,1.75,0,0,1-1.13.76A19.94,19.94,0,0,0,71.36,42C69.6,43.69,68.1,45.09,68,45.09s-1.47,1.3-3.11,2.9a15.54,15.54,0,0,0-2.66,2.89c.18,0-.09.29-.6.65a7.51,7.51,0,0,0-1.75,2.28c-.46.89-1,1.63-1.14,1.63s-.53.51-.81,1.15a11.31,11.31,0,0,1-1.15,2A116,116,0,0,0,50,68.21a.62.62,0,0,1-.33.54,43.9,43.9,0,0,0-4.34,7,15.12,15.12,0,0,1-1.9,2.86,12.73,12.73,0,0,0-1.71,2.48c-1,2.1-3.43,6.88-3.77,7.25-.2.22-.45,0-.59-.42a12.42,12.42,0,0,0-.64-1.51,10,10,0,0,1-.43-3.52Zm.93,24a1.89,1.89,0,0,0,.63,1.17,3,3,0,0,0,3.21.51,1.52,1.52,0,0,0,.66-1.46c0-1.63-1.58-2.29-3.33-1.38-.78.4-1.17.74-1.17,1.17Zm.28,117.65a5.27,5.27,0,0,0,0,.79,1.88,1.88,0,0,0,3.33.74c.78-1.34.52-2.58-.64-3-1.77-.67-2.67-.18-2.72,1.48Zm1.38-60.34c0-8.25.17-16.43.52-20,.24-2.36,1.23-9.14,1.67-11.37.12-.56.49-2.62.83-4.55a56.59,56.59,0,0,1,2.32-9.42c.5-1.15.87-2.11,2-5.27.5-1.37,1.29-3.33,1.75-4.35s1.31-3.17,1.87-4.76,1.46-3.83,2-5L53.49,96a31.1,31.1,0,0,1,1.7-3.1c.57-.91,1.26-2.12,1.54-2.69a7.57,7.57,0,0,1,1-1.55,7.18,7.18,0,0,0,1-2.07,7.93,7.93,0,0,1,1-2.18A39.5,39.5,0,0,0,62,80.7c1.86-3.3,2.13-3.69,5.88-8.39,2.24-2.8,3.19-4,5.34-6.51a32.09,32.09,0,0,0,2-2.71,29.13,29.13,0,0,1,3.16-3.76c1.13-1.15,2.72-2.82,3.53-3.7,3.6-4,7.51-6.79,14.06-10.13a39.4,39.4,0,0,1,5.7-2.47,1.63,1.63,0,0,0,.84-.51c.86-.85,11.4-3.63,13.8-3.63a1.94,1.94,0,0,0,1.39-.41c.32-.53,10-.56,11.63,0,3.17,1,8.47,2.47,10.52,2.94a19.77,19.77,0,0,1,3.73,1.27c.79.41,2.14,1,3,1.39a36.65,36.65,0,0,1,5.69,2.72,19.81,19.81,0,0,0,3.1,1.44,15.22,15.22,0,0,1,3.11,1.53c3.77,2.84,6.18,4.48,6.57,4.48s.46.15.46.34.48.6,1,.91a17.46,17.46,0,0,1,3.26,3.28c1.21,1.49,3,3.56,4,4.6s2.11,2.26,2.45,2.7c1.3,1.69,5,7.15,5,7.41a9.78,9.78,0,0,0,1.17,2,25.87,25.87,0,0,1,2.12,4.12,12.1,12.1,0,0,0,1.24,2.56,36.31,36.31,0,0,1,2.32,4.24,32.66,32.66,0,0,0,2.31,4.18c.15.07.18.49.06.93s0,.81.32.81.43.11.3.23a6.86,6.86,0,0,0,.91,2.59c.62,1.29,1.56,3.57,2.08,5s1.55,3.93,2.28,5.44a19.75,19.75,0,0,1,2.12,6.16c.44,2.59.66,3.31,1,3.31.23,0,.3.37.15.82s-.09.83.12.83.35.52.32,1.14a3.24,3.24,0,0,0,.28,1.59,11.92,11.92,0,0,1,.75,2.49c1.22,5.69,2.16,9,2.66,9.36.23.17.3.31.15.31s0,1.08,1.06,5.39c.09.35.36,1.37.61,2.29s.55,2.4.68,3.31.33,2.29.44,3.09a20.94,20.94,0,0,0,.78,3.12,27,27,0,0,1,.84,3.53c.14,1,.42,2.59.63,3.5s.48,2.67.62,3.92a9.18,9.18,0,0,0,.58,2.69,10.51,10.51,0,0,1,.82,2.3,37,37,0,0,1,.34,11c-.19.91-.5,3.33-.68,5.38a31.26,31.26,0,0,1-.82,5.17,19.43,19.43,0,0,0-.65,3.93,18,18,0,0,1-.39,3.11,21.7,21.7,0,0,0-.41,3.31,21.7,21.7,0,0,1-.41,3.31,45.86,45.86,0,0,0-1.31,6,82.17,82.17,0,0,1-4.91,15.3,13,13,0,0,0-.82,2,5.57,5.57,0,0,1-.53,1.29c-.25.46-1,2.13-1.57,3.72-1.78,4.63-5.27,12.79-5.69,13.33a61.21,61.21,0,0,0-4,8.3c0,.29-.18.52-.39.52a14.39,14.39,0,0,0-2.93,4,23.94,23.94,0,0,1-2.17,2.76c-1.19,1.4-2.3,2.73-2.47,3s-1,1.27-2,2.29a10.61,10.61,0,0,0-1.67,2.21c0,.62-8.8,9-10.76,10.22-1,.66-2.61,1.72-3.52,2.35a5.52,5.52,0,0,1-2,1.05c-.17-.05-.32.09-.32.31s-.28.42-.62.42-.62.18-.62.41-.3.41-.66.41a14.24,14.24,0,0,0-4.3,2.94,20.38,20.38,0,0,1-2.55,1.58,16.17,16.17,0,0,0-2.85,1.92,1.61,1.61,0,0,1-1,.6.76.76,0,0,0-.67.31c-.32.7-6.72,3.52-9.61,4.23a24.19,24.19,0,0,0-3.64,1.09c-.89.55-7,1.32-9.25,1.16-6.9-.5-9.24-.9-14.58-2.5-1.87-.56-3.73-1.09-4.14-1.17A48.47,48.47,0,0,1,99.67,287c-.57-.33-1.69-.93-2.48-1.34a89.57,89.57,0,0,1-15.54-10.24c-.51-.46-2-1.67-3.23-2.69a14.33,14.33,0,0,1-2.32-2.15,27.77,27.77,0,0,0-2.82-3.12A58.23,58.23,0,0,1,68,261.05c-1.36-2-3.45-5-4.63-6.61s-2.36-3.36-2.6-3.81-1-1.86-1.73-3.11c-2.79-4.92-6.2-11.42-7-13.25a12.67,12.67,0,0,0-.82-1.65c-1-1.6-2.94-7.06-6.26-17.8-.74-2.39-1.47-4.54-1.62-4.76a23.07,23.07,0,0,1-.82-3.93,43.34,43.34,0,0,0-1.28-5.66c-.78-2.28-1.11-4.55-1.42-9.87-.11-1.82-.3-4.52-.44-6-.36-3.82-.54-12.13-.54-20.37Zm2.74-66.8c0,.68.49,1.25,1.43,1.73,1.23.64,2,.42,2.91-.87a2.48,2.48,0,0,0-1.08-3.34l-.27-.12c-1-.36-1.28-.26-2.19.83a2.89,2.89,0,0,0-.8,1.77Zm.48,140.17a2.46,2.46,0,0,0,1.35,1.82l1.31.78,1-1.11c1.07-1.24.95-2-.48-2.93a1.7,1.7,0,0,0-2-.16,1.63,1.63,0,0,0-1.09,1.6ZM47.29,87c0,.78.45,1.2,1.32,1.08.15,0,.39.16.54.4s.77,0,1.59-.77c1.55-1.41,1.62-1.79.5-2.91-1.4-1.4-2.75-1-3.61.93A3.33,3.33,0,0,0,47.29,87Zm1.07,163.24a4.08,4.08,0,0,0,.84,2.24c1,1.36,1.48,1.47,2.78.55,1.09-.76,1.12-1.07.3-2.65A2.51,2.51,0,0,0,49.17,249a1.25,1.25,0,0,0-.81,1.32Zm2,22.4c0-1.56.18-2.83.61-3.19s1.29.26,4.4,4.28c.34.44,1.48,1.74,2.51,2.9s2.58,3,3.43,4.23a24.82,24.82,0,0,0,3.08,3.48c.85.75,3.8,3.46,6.55,6.05A97.08,97.08,0,0,0,82.52,300c1.24.78,9.25,4.66,9.63,4.66a14.85,14.85,0,0,1,2.47,1,12.68,12.68,0,0,0,2.64,1,15.82,15.82,0,0,1,5.08,2.57,2.71,2.71,0,0,0,1.29.74,7.35,7.35,0,0,1,1.89.62c1.28.57.67.6-7.21.43-4.74-.11-8.78-.3-9-.42a21.14,21.14,0,0,0-3.45-.62,23.38,23.38,0,0,1-5.51-1.48l-3.74-1.67a7.41,7.41,0,0,0-2.41-.59,4.16,4.16,0,0,1-2.17-.82,3.94,3.94,0,0,0-2-.83,1.74,1.74,0,0,1-1.29-.52,20.18,20.18,0,0,0-3.13-2.38,10.19,10.19,0,0,1-2.79-2.31,2.48,2.48,0,0,0-.85-1.23c-2.52-2.28-7.06-10.62-10.58-19.41a18.66,18.66,0,0,1-1-6.11ZM53.28,75.54a1.73,1.73,0,0,0,.87,1.63c.46.14.74.42.62.61-.42.69,1.67-.15,2.49-1,1.16-1.18.76-2.89-.71-3.06a2.31,2.31,0,0,0-1.7.52,2.13,2.13,0,0,1-1.09.64c-.31,0-.46.28-.47.65Zm2.95,188.18a1.4,1.4,0,0,0,.5,1.07c1.16.93,2.33,1,3.18.13,1.29-1.29,0-3.75-1.57-2.93a10.07,10.07,0,0,1-1.4.58,1.11,1.11,0,0,0-.71,1.15ZM61.64,64.56a1.48,1.48,0,0,0,.56,1.22c.54.45.93.41,2.3-.21s1.64-.94,1.64-1.91-.23-1.23-1.09-1.44a2.83,2.83,0,0,0-3.38,2.16,1.48,1.48,0,0,0,0,.19ZM63.9,273a3.19,3.19,0,0,0,.5,1.43c.89,1.58,2.48,2.07,3.26,1a2.94,2.94,0,0,0-.26-3.7c-.7-.64-1-.67-2-.23s-1.46.85-1.46,1.49Zm8-220.89a1.43,1.43,0,0,0,.19.76,2.57,2.57,0,0,0,3.44,1c1.17-.53,1.32-1.9.36-3.28-.84-1.2-1.36-1.16-2.94.22-.69.61-1,1-1,1.32ZM75,284.45a1.23,1.23,0,0,0,.65,1,2,2,0,0,1,.84,1.39c0,1,.73,1,2,.16a1.93,1.93,0,0,0-.11-3.32c-1.46-1-3.31-.22-3.35.76ZM82.43,44.69a1.91,1.91,0,0,0,.28.81c.4.75.73.87,1.76.67a5.35,5.35,0,0,0,1.84-.74c.75-.62.54-2.82-.33-3.36s-2.86,0-2.86.87a1.91,1.91,0,0,1-.45,1.19.76.76,0,0,0-.24.56Zm4,247.51a12.35,12.35,0,0,0,1.66,2.44c1.23,1.56,1.84,2,2.38,1.83a2.36,2.36,0,0,0,1-.64c.32-.47,0-2.32-.54-3.51a4.94,4.94,0,0,0-3.05-1.78,4,4,0,0,0-1.42,1.66ZM92.72,37.14a2.15,2.15,0,0,0,1.13,2c1.06.54,2.05.13,4.08-1.66l.95-.84-1-1a2.19,2.19,0,0,0-2.49-.73,4.93,4.93,0,0,0-2.13.94,1.89,1.89,0,0,0-.54,1.29Zm11,262.32c0,.12,0,.23,0,.35.17,2.3,2.54,3.58,4,2.14s-.43-3.74-2.86-3.47c-.91.11-1.14.26-1.13,1Zm3.08-267.57c0,.48.3.9,1,1.35,1.36.89,1.73.85,2.93-.35s1.26-1.66.09-2.48a2.48,2.48,0,0,0-3.48.36,2.36,2.36,0,0,0-.52,1.12Zm11.13,270.87c0,1.3,2,2.74,2.5,1.84.19-.32.49-.44.65-.28s.54.09.85-.17c1.23-1,.41-2.28-1.93-3a1.63,1.63,0,0,0-2,1.15,1.52,1.52,0,0,0-.06.42ZM119.7,30.67c0,.24.14.51.44,1,.91,1.38,2.68,1.79,3.4.79.9-1.23.71-2.94-.37-3.29a2.38,2.38,0,0,0-2.93.68c-.36.37-.54.59-.55.84Zm3-11.84a2.41,2.41,0,0,1,.57-1.08c.76-1,.78-1,1.4-.19,1,1.27.79,1.86-.56,1.86-1,0-1.45-.16-1.42-.59ZM132,303.37a.36.36,0,0,0,.3.42h.11c.21,0,.5.37.64.83.32,1,1.35,1.06,2.62.17s1-1.69-.42-2.78c-1.06-.79-1.17-.79-2.17-.14a2.27,2.27,0,0,0-1.08,1.49Zm.87,11.6,1.33,0a41.45,41.45,0,0,0,4.44-.57h0a26.68,26.68,0,0,1,3.21-.46,24.38,24.38,0,0,1-2.43,2.75,17.38,17.38,0,0,0-2.94,3.78q-.87,2.46-1.33-.7a9.57,9.57,0,0,0-1.28-3.3l-1-1.48Zm1.05-284.45c0,.27.07.82.11,1.21.07.81,2.19,2.17,3.38,2.17a1.54,1.54,0,0,0,1.2-.72c.73-1.27.48-2.08-.92-2.95a2.91,2.91,0,0,0-2.59-.52c-.67.18-1.2.54-1.18.81Zm12,267.8c0,1,1.37,2,2,1.38a2.32,2.32,0,0,1,1.39-.46,1.26,1.26,0,0,0,1.12-.51c.33-.82.33-.83-.62-1.84a3.05,3.05,0,0,0-1.66-1,2.89,2.89,0,0,0-2.21,2.39Zm.85-263.75a1,1,0,0,0,.41.6,1.08,1.08,0,0,1,.42,1.07c-.19.49,1.19,1.8,1.91,1.8a3.36,3.36,0,0,0,1.15-.9c1-1.11,1-1,0-2.68-1.45-2.35-2.62-2.58-3.61-.7a1.45,1.45,0,0,0-.24.81Zm6.41-8.2c0-.17.91-.23,2-.15,1.36.1,2.07,0,2.08-.33s.12-.28.34.06a4.9,4.9,0,0,0,2.38.91c8.79,1.62,18,4.64,20,6.59a13.49,13.49,0,0,0,2.52,1.47,18.93,18.93,0,0,1,3.71,2.42,9.5,9.5,0,0,0,2.14,1.53c.46,0,8.08,7.71,9.65,9.75.68.89,1.74,2.42,2.37,3.39s1.29,1.77,1.5,1.77.48.57.62,1.27a7.74,7.74,0,0,0,1.05,2.39c2.14,3,5.16,9.87,5.07,11.54a14.77,14.77,0,0,0,.62,3.31,39.52,39.52,0,0,1,1,5.49h0c.46,4.32.46,7.36,0,7.65-.3.18-1.71-2.23-2.3-3.92,0-.12-.29-.74-.55-1.37a6.34,6.34,0,0,1-.48-1.7,6.74,6.74,0,0,0-1.14-2.15,53.21,53.21,0,0,1-2.8-4.86,26.4,26.4,0,0,0-2.58-4.26,3.46,3.46,0,0,1-.93-1.6c0-1.36-2.76-6.18-4.79-8.38a12.22,12.22,0,0,1-2.23-2.87,1.8,1.8,0,0,0-.74-1,6.59,6.59,0,0,1-1.4-1.58c-1.35-2.09-6.95-7.26-10.25-9.47l-5.22-3.48c-1.59-1.06-3.44-2.35-4.11-2.87a26.53,26.53,0,0,0-3.31-2A45.51,45.51,0,0,1,161,30.21a5.06,5.06,0,0,0-1.66-.78c-2.09-.7-6.16-2.71-6.19-3.05Zm4.17,13.09a2.44,2.44,0,0,0,.26.83,1.59,1.59,0,0,0,1.67,1.07,2.92,2.92,0,0,0,1.46-.28,3.15,3.15,0,0,0-.22-2.95c-.68-.68-1.19-.62-2.38.3-.56.43-.8.68-.79,1Zm2.5,253a1.15,1.15,0,0,0,.06.37c.36.94,3,.9,3.56,0a3.24,3.24,0,0,0,.43-1.18c0-.72-1.51-1.92-2.26-1.76a3.31,3.31,0,0,0-1.79,2.63Zm6.08,12.08c0-.09.18-.36.68-.87a4.2,4.2,0,0,1,1.41-1.06c.34,0,1.74-1.06,5.05-3.82,1-.83,2.47-1.95,3.26-2.48a6.33,6.33,0,0,0,2-2.27,2.83,2.83,0,0,1,1.35-1.5,1,1,0,0,0,.76-.78c0-.31.52-.87,1.14-1.24,1.79-1.06,7.56-7.35,7.56-8.24a12.87,12.87,0,0,1,2.08-3.27c.13-.11,1.09-1.6,2.14-3.31a37.21,37.21,0,0,1,4.36-6,2.05,2.05,0,0,0,.52-.81,71.7,71.7,0,0,1,4.82-7.16,4.12,4.12,0,0,0,.77-1.35c.32-1,.85-1.06,1.22-.1a24.24,24.24,0,0,1,.46,4.25c.26,5.26-1.06,10.11-4.23,15.51-.93,1.6-2,3.46-2.32,4.15-.57,1.1-9.69,10.62-11.72,12.21-1.43,1.13-10.07,5-11.18,5a16.75,16.75,0,0,0-3.18,1.07c-1.42.59-2.77,1.12-3,1.18l-1.66.42-2,.51c-.21.06-.33.06-.35,0Zm4-258.22a2.07,2.07,0,0,0,0,.43,2.56,2.56,0,0,0,.62,1.75c.95.6,2.34.4,2.54-.36.11-.4.21-.84.24-1,.1-.51-1.48-1.61-2.46-1.72-.79-.09-1,0-.95.87ZM171.21,284a2.5,2.5,0,0,0,.15.85c.49,1.39,1.36,1.52,3.2.47,1.38-.79,1.59-1.5.71-2.39-1.64-1.63-4-.76-4.06,1.07ZM175,40.35c0-.36.19-.65.41-.65a.42.42,0,0,1,.42.39.93.93,0,0,1-.42.65c-.22.13-.41,0-.41-.39Zm5.8,16.4a2.78,2.78,0,0,0,.54,1.64c.46.6.68.62,1.85.12,2.29-.95,1.5-3.49-1.08-3.49-.81,0-1.3.8-1.31,1.73ZM183,270.42a1.34,1.34,0,0,0,.48,1.05c.75.82,3.28,1.5,4,1.07a2.12,2.12,0,0,0,.41-1.46,1.79,1.79,0,0,0-1.22-1.84c-1.78-.92-2.86-.79-3.41.4a2.62,2.62,0,0,0-.24.78Zm5.3-203a3.12,3.12,0,0,0,1,2.3c1.16,1.07,2.23,1.24,3,.48s.56-2-.79-3.27-2-1.47-2.77-.7A1.7,1.7,0,0,0,188.27,67.47Zm3.2,190.38a2.23,2.23,0,0,0,.13.72c.42,1.11.83,1.15,2.51.28,1.07-.55,1.22-.81,1-1.75-.51-2-2.35-2.37-3.26-.6a3.2,3.2,0,0,0-.36,1.35Zm3-179.24a2.5,2.5,0,0,0,1.06,1.88c1.25,1.16,1.5,1.21,2.63.5s1.07-2.55-.26-3.59-2.49-1.1-3-.05a2.79,2.79,0,0,0-.4,1.26Zm1,21.48c0-.62.08-1.2.3-1.2s.36.69.36,1.52-.14,1.38-.3,1.22a2.76,2.76,0,0,1-.36-1.54Zm3.6,145.28c0,2,2.46,2.39,3.69.37a14.48,14.48,0,0,0,.82-1.44,6.5,6.5,0,0,0-1.16-.7,2.18,2.18,0,0,0-3,.63,2.29,2.29,0,0,0-.3.72,3,3,0,0,0,0,.42Zm.49-156a2.06,2.06,0,0,0,.47,1c.73,1.12,1.49,1.28,2.75.61a1.85,1.85,0,0,0,.44-2.59,1.49,1.49,0,0,0-.15-.2c-1.28-1-2.33-1-3,.09a2.15,2.15,0,0,0-.48,1.05Zm4.1,12.89a2.21,2.21,0,0,0,1.63,2c1.16.49,1.36.46,1.87-.22a2.38,2.38,0,0,0-.1-3.14c-1-.8-1.56-.79-2.64,0a1.75,1.75,0,0,0-.77,1.3Zm1.42,129.22a2.73,2.73,0,0,0,.2,1,1.74,1.74,0,0,0,2.15,1.23,1.81,1.81,0,0,0,.53-.24,1.57,1.57,0,0,0,1-1.7,1.75,1.75,0,0,0-2.6-1.71c-.84.32-1.25.75-1.28,1.4Zm2.81,21.14a3.59,3.59,0,0,1,.42-1.23c.34-.66,1.29-2.79,2.11-4.72s1.66-3.8,1.88-4.14,1.07-2,1.89-3.73,2.12-4.41,2.9-6a18.85,18.85,0,0,0,2.11-6.19,12.94,12.94,0,0,1,1.36-3.15,14.32,14.32,0,0,0,1.4-3.12c.14-.66.34-1.58.43-2a48.93,48.93,0,0,1,2-5.77,22.65,22.65,0,0,0,1-3.62c.14-.87.41-1.59.61-1.59s.36-.38.36-.85a39.92,39.92,0,0,1,2.44-7.78c.24-.38.45.08.65,1.43a82.82,82.82,0,0,1,0,16.66c-.55,4.67-2.4,13.54-3,14.33a34.07,34.07,0,0,0-1.5,3.32,22.46,22.46,0,0,1-1.44,3.11c-.22.18-2.1,3.71-3.48,6.51-.25.51-.6.94-.77.94s-.31.33-.31.74c0,1-2.24,3.31-4.77,4.93-2,1.3-5.75,2.58-6.2,2.12a.25.25,0,0,1,0-.19Zm.4-138.49c0,.36.18.59.69,1,1.11.9,1.61.92,2.79.09s1.12-1,.27-2.16a1.94,1.94,0,0,0-2.67-.68,2,2,0,0,0-.79.89,2.76,2.76,0,0,0-.29.85Zm1.5,11.28c0,1,.2,1.22,1.42,1.45a3.94,3.94,0,0,0,1.87,0c.55-.35.58-2.58,0-2.91a3.78,3.78,0,0,0-1.86,0c-1.27.24-1.46.43-1.46,1.45Zm0,93.93a2.22,2.22,0,0,0,.59,1.66c.81.67,2.6.21,2.8-.72.36-1.63.08-2.37-1-2.75a1.63,1.63,0,0,0-1.76.14,2.26,2.26,0,0,0-.63,1.67ZM213,205.22a3.46,3.46,0,0,0,.53,1.9,2.25,2.25,0,0,0,3.09,0,2,2,0,0,0,0-2.88,1.43,1.43,0,0,0-.23-.2c-1.51-1.52-3.45-.85-3.45,1.18ZM213.09,97c0-.45.3-.53,1.14-.34a3.7,3.7,0,0,1,1.55.73c.23.26,1.53,1.4,2.89,2.54,4.17,3.49,5.74,5.44,7.94,9.84a54.83,54.83,0,0,1,4.92,12.93c.69,3.11,1.13,7,.83,7.29a13.72,13.72,0,0,0-.27,2.86,27.44,27.44,0,0,1-.44,4.13,59.48,59.48,0,0,0-1.16,7.74,33.52,33.52,0,0,1-.79,4.76c-.3.8-.4.61-.65-1.23a7.2,7.2,0,0,0-.78-2.69,3,3,0,0,1-.56-1.55,47.62,47.62,0,0,0-1.94-8,12.91,12.91,0,0,1-.68-3.31,6.32,6.32,0,0,0-.62-2.52,5.34,5.34,0,0,1-.61-1.91,6,6,0,0,0-1.05-2.25c-.57-.85-.95-1.68-.84-1.86a7.64,7.64,0,0,0-.44-2.55c-.35-1.23-.92-3.55-1.28-5.14a21.68,21.68,0,0,0-1.29-4.15,7.92,7.92,0,0,1-.76-2.61,10,10,0,0,0-1.14-3.23,13.11,13.11,0,0,1-1.32-3.39c-.32-1.78-1.64-4.88-2.24-5.25a1.11,1.11,0,0,1-.41-.86Zm.94,43.33c0,1.6,1.83,3.13,3.18,1.79.86-.86.75-2-.3-3.18-.82-.93-1.45-.91-2.35.09a2,2,0,0,0-.54,1.3Zm2.33,51.88a2.42,2.42,0,0,0,.87,1.69c.72.65,1,.68,1.85.21a2.59,2.59,0,0,0,1.19-1.21,7.42,7.42,0,0,1,.22-.74A5.13,5.13,0,0,0,220,191c-.42-.92-.68-1-1.74-.84a2.14,2.14,0,0,0-1.93,2.07Zm.25-37.93a2.33,2.33,0,0,0,.6,1.44c.67.73,2.46.72,2.88,0h0c.59-1,.55-1.44-.19-2.5a1.73,1.73,0,0,0-2.36-.67,1.64,1.64,0,0,0-.5.41,1.76,1.76,0,0,0-.43,1.33Zm.89,12.79.82,1.41c1,1.7,1.89,1.94,3,.81h0c1.08-1.07,1.08-1.87,0-2.93s-1.71-1-2.93-.05l-.94.76Zm.61,12c0,.25,0,.55,0,.9.14,2.19.89,2.68,2.65,1.74a1.34,1.34,0,0,0,.82-1.59c-.25-1.82-.64-2.39-1.6-2.28l-1.46.13c-.3,0-.43.35-.44,1.11ZM232,173.14a6,6,0,0,1,.06-.85c.2-1.3.23-1.31,1.2-.68,1.21.79,1.22,1,.15,2-.86.78-1.39.56-1.42-.48Z"/></g></g></svg>