<svg xmlns="http://www.w3.org/2000/svg" xmlns:xlink="http://www.w3.org/1999/xlink" viewBox="0 0 127.69 174.27"><defs><style>.cls-1{fill:url(#未命名漸層_9);}.cls-2{fill:#d9c7ae;}.cls-3{fill:url(#未命名漸層_10);}.cls-4{fill:url(#未命名漸層_10-2);}.cls-5{fill:url(#未命名漸層_10-3);}.cls-6{fill:url(#未命名漸層_9-2);}.cls-7{fill:url(#未命名漸層_9-3);}.cls-8{fill:url(#未命名漸層_9-4);}.cls-9{fill:url(#未命名漸層_8);}.cls-10{fill:#ff9300;}.cls-11{fill:#be6d00;}.cls-12{fill:#536702;}.cls-13{fill:#5f7603;}.cls-14{fill:#916f6f;}.cls-15{fill:#506302;}.cls-16{fill:#526602;}.cls-17{fill:#deaa87;}.cls-18{fill:#520;}</style><radialGradient id="未命名漸層_9" cx="-1053.64" cy="-42.09" r="0.54" gradientTransform="matrix(16.68, 14.74, -17.46, 19.74, 18666.95, 12316.26)" gradientUnits="userSpaceOnUse"><stop offset="0" stop-color="#dac9b1"/><stop offset="1" stop-color="#cab08e"/></radialGradient><radialGradient id="未命名漸層_10" cx="-1054.28" cy="-42.98" r="0.46" gradientTransform="matrix(16.96, 14.99, -19.02, 21.5, 18879.26, 12722.41)" gradientUnits="userSpaceOnUse"><stop offset="0" stop-color="#c83737"/><stop offset="1" stop-color="#ac2f2f"/></radialGradient><radialGradient id="未命名漸層_10-2" cx="-1052.6" cy="-40.06" r="0.51" gradientTransform="matrix(16.32, 14.42, -14.87, 16.81, 18090.11, 12163.13)" xlink:href="#未命名漸層_10"/><radialGradient id="未命名漸層_10-3" cx="-1054.67" cy="-40.51" r="0.5" gradientTransform="matrix(17.12, 15.12, -15.36, 17.36, 19047.15, 12844.39)" xlink:href="#未命名漸層_10"/><radialGradient id="未命名漸層_9-2" cx="-1053.13" cy="-42.25" r="0.5" gradientTransform="matrix(16.51, 14.58, -17.76, 20.09, 18337.54, 12337.01)" xlink:href="#未命名漸層_9"/><radialGradient id="未命名漸層_9-3" cx="-1050.59" cy="-41.46" r="0.48" gradientTransform="matrix(15.61, 13.79, -16.62, 18.79, 17358.9, 11528.23)" xlink:href="#未命名漸層_9"/><radialGradient id="未命名漸層_9-4" cx="-1054.15" cy="-44.96" r="0.4" gradientTransform="matrix(16.89, 14.92, -23.59, 26.68, 18883.97, 12742.55)" xlink:href="#未命名漸層_9"/><radialGradient id="未命名漸層_8" cx="-1054.54" cy="-46.49" r="0.35" gradientTransform="matrix(17.02, 15.07, -28.57, 32.35, 19077.33, 12830.88)" gradientUnits="userSpaceOnUse"><stop offset="0" stop-color="#647c03"/><stop offset="1" stop-color="#4f6202"/></radialGradient></defs><g id="圖層_2" data-name="圖層 2"><g id="圖層_1-2" data-name="圖層 1"><g id="Group_6783" data-name="Group 6783"><path id="Path_70469" data-name="Path 70469" class="cls-1" d="M68.52,126.19a15.45,15.45,0,0,0-9.23-3c-4.48.14-8.66,2.35-12.08,5.11-1.54,1.82-1.56,4.42-2.05,6.65-.15,3-.59,6.16.59,9,.89,1.88,3.27,1.75,4.86,1,3.84-1.69,7.86-3.41,12.13-3.1,2.83-.05,5.93-.81,7.61-3.28,2.31-2.16,3.18-6,1.24-8.65A17.78,17.78,0,0,0,68.52,126.19Z"/><path id="Path_70470" data-name="Path 70470" class="cls-2" d="M67.6,142.37c-1.17-1.13-2.86,0-4.25-.22-3.18.15-6.61.13-9.37,1.94-.64,1.13.57,2.34.81,3.44.78,1.5.52,4,2.57,4.5,2.31.69,4.48-.93,6.57-1.67,1.91-1,4.42-2,5.1-4.24a4.55,4.55,0,0,0-1.43-3.75Z"/><path id="Path_70471" data-name="Path 70471" class="cls-3" d="M48.85,83.31c-3.87-2.86-9.1-2.6-13.52-1.37-1.81.32-2,2.4-2.68,3.76-1.23,2.81-2.22,6-4.79,7.94-.67.5-2.53.27-2.17,1.56.94,3.52,3.29,6.9,6.89,8,4.92,1.55,10.06-.82,14-3.7,3.37-2.4,5.72-6.55,5-10.76a8.15,8.15,0,0,0-2.72-5.44Z"/><path id="Path_70472" data-name="Path 70472" class="cls-4" d="M69.93,51.64A10.79,10.79,0,0,0,60.52,49c-3.67.31-6.41,3.07-9.34,5-1.77,1.48-1.46,4.14-1.35,6.21a10.11,10.11,0,0,0,3.68,7.36,9.82,9.82,0,0,0,7.82,3c2.57-.1,5.31-.89,6.87-3.1a12.56,12.56,0,0,1,3.45-3.14c1.62-2.08,1.45-5,1.19-7.5a7.49,7.49,0,0,0-2.91-5.2Z"/><path id="Path_70473" data-name="Path 70473" class="cls-5" d="M117.26,113.74a10,10,0,0,0-8.87-1.92c-3.55.85-6.25,3.67-8.47,6.42-1.9,2.27-1.79,5.49-.64,8.07a9.64,9.64,0,0,0,3.39,5.13,10.26,10.26,0,0,0,10.74,2.24c3.35-1,6.92-3,7.89-6.63.74-3.43-.28-7-1.58-10.17a9.1,9.1,0,0,0-2.46-3.14Z"/><path id="Path_70474" data-name="Path 70474" class="cls-2" d="M95.63,93.07c-1.24-.65-2.55.59-3.66,1a17.23,17.23,0,0,0-5.55,4.67c1.06,1.36,1.65,3.19,3,4.27.92-.17,1.73-.93,2.68-1.19,1.92-.89,4.76-1.56,5.06-4.07a7.35,7.35,0,0,0-1.38-4.58l-.14-.14Z"/><path id="Path_70475" data-name="Path 70475" class="cls-2" d="M33.25,67c-1.54-.39-3.14.53-4.62.88-2.68,1-5.52,1.91-7.81,3.63-.27,1,.57,2,.91,2.92,3.09,1.25,6.49.14,9.56-.64a4.11,4.11,0,0,0,3.15-4.25A5.24,5.24,0,0,0,33.25,67Z"/><path id="Path_70476" data-name="Path 70476" class="cls-2" d="M55.79,43.78c-1.19-.63-2.49.5-3.63.83-1.73,1-3.87,1.78-4.94,3.56a11.48,11.48,0,0,0,1.57,5.54c1.3.6,2.67-.63,3.74-1.27,1.68-1,2.82-2.63,4.6-3.46,1.22-.54.8-2,.17-2.83a13.09,13.09,0,0,0-1.52-2.37Z"/><path id="Path_70477" data-name="Path 70477" class="cls-6" d="M34.37,51.91c-2-1.67-4.78-3-7.31-1.75-4.57,1.87-8.84,4.43-13.21,6.71-3.15,2.24-2.9,7-1.11,10a9.2,9.2,0,0,0,2.67,3.73c1.29,1.19,3.5,1.62,4.84.28,1.59-.31,2.86-1.53,4.42-2,3.36-1.7,7.18-2.12,10.52-3.79C38.29,63.3,38.76,59,37.31,56A10.8,10.8,0,0,0,34.37,51.91Z"/><path id="Path_70478" data-name="Path 70478" class="cls-7" d="M58.3,33A15.5,15.5,0,0,0,44.48,30c-2.51,2.76-5.21,5.41-8.64,7-.78.93-.45,2.5-.46,3.69A10.18,10.18,0,0,0,39,48.31c1.24,1,3,2.75,4.7,1.67,2.8-2,5.24-4.43,8.43-5.83,2.71-1.47,6.06-2.14,8.19-4.52a6.45,6.45,0,0,0-.82-5.27,6.9,6.9,0,0,0-1.22-1.31Z"/><path id="Path_70479" data-name="Path 70479" class="cls-8" d="M96.4,80.72c-2.54-1.83-5.9-1.07-8.8-.94a12.82,12.82,0,0,0-9.15,5c-2.09,2.2-3.94,4.76-4.4,7.84a9,9,0,0,0,1.6,7.88,5.82,5.82,0,0,0,8.13-.21c3.25-3,6.32-6.39,10.58-7.94,2.06-.87,4.33-2.26,4.56-4.72A7.53,7.53,0,0,0,96.4,80.72Z"/><path id="Path_70480" data-name="Path 70480" class="cls-9" d="M46.5,73.14c-1.55-1.54-3.72-2.7-6-2.06-4.84.87-9,3.82-12.63,7-2.23,2.4-4.66,4.83-6,7.85-.34,1.26-.19,2.59-.56,3.86a3,3,0,0,0,2,3.4,8.32,8.32,0,0,0,4.5.36c3.63-4.1,4.73-9.62,6.77-14.54,1.26-3,5.08-3.62,7.92-2.82.67.22,1.86.56,2,1.22-2.12-.9-4.65-1.8-6.89-.7a6.28,6.28,0,0,0-3.34,4.47c.55.72,1.7-.13,2.44-.14a24.72,24.72,0,0,1,9.62.18C47.53,80,49.13,78.74,49.45,77,49.4,75.3,47.55,74.21,46.5,73.14Z"/><path id="Path_70481" data-name="Path 70481" class="cls-10" d="M59.58,100.33c-7.53.15-15.36,1.69-21.5,6.29a30.33,30.33,0,0,0-5.73,7c-.38.83-.45,2.44.59,2.77,1.26-.53,1.88-2,3.06-2.67a37.34,37.34,0,0,1,12.56-7.35,31,31,0,0,1,8.5-1.78,2.57,2.57,0,0,0,2.33-2.34C59.41,101.66,60.12,100.69,59.58,100.33Z"/><path id="Path_70482" data-name="Path 70482" class="cls-11" d="M57.88,99.37A19.66,19.66,0,0,0,51.5,97.3a2.69,2.69,0,0,0-2.56.71,23.14,23.14,0,0,1-7.5,5,15.71,15.71,0,0,1-5,1.23c-1,.08-2.21-.47-3,.38a8.76,8.76,0,0,0-3,4.1c.26,1.48.81,2.9,1.2,4.34.49.33.68-.55,1-.82a21.32,21.32,0,0,1,8.22-8,39.83,39.83,0,0,1,6.38-2.63c1-.29,2-.42,3.07-.64a31.19,31.19,0,0,1,7.88-1C58.67,99.85,58.12,99.49,57.88,99.37Z"/><path id="Path_70483" data-name="Path 70483" class="cls-12" d="M80,67.44a9.67,9.67,0,0,0-4.18.12,14.57,14.57,0,0,0-7.09,5.3C66.86,75.28,65,77.72,63,80c.07.7,1,1.06,1.61,1.4,1,.45,2.26,1,3.09,0,1.37-1.26,1.79-3.17,2.83-4.67a18.87,18.87,0,0,1,7.91-7.84c.54-.43,1.49-.61,1.75-1.27a.27.27,0,0,0-.11-.18Z"/><path id="Path_70484" data-name="Path 70484" class="cls-13" d="M80.37,63.32c-1.17-.48-2.5.12-3.71.23-2.54.47-5.47.86-7.17,3-2.43,3.08-4.55,6.37-6.79,9.58-.5,1-1.68,1.69-1.87,2.84s1.36,1.09,1.89.44c2.61-2.45,4.4-5.64,6.91-8.18a12.79,12.79,0,0,1,6.05-4c1.84-.55,3.84-.26,5.67-.81.31-.73-.28-1.56-.47-2.28a2.47,2.47,0,0,0-.5-.84Z"/><path id="Path_70485" data-name="Path 70485" class="cls-11" d="M85.25,72.22c-3.39-.87-7.22-1-10.43.56A13.48,13.48,0,0,0,70,78.59c-.59,1.46-1.78,2.57-2.28,4.06a18,18,0,0,0-.17,4.92c.59.27.76-.79,1.12-1.1A49.7,49.7,0,0,1,75.52,78a25.51,25.51,0,0,1,9.63-5.24c.2-.08.33-.37.1-.51Z"/><path id="Path_70486" data-name="Path 70486" class="cls-10" d="M87.46,72.5c-2.71.86-5.59,1.42-8,3a25.2,25.2,0,0,0-7.21,6.82c-1.72,2.13-3.55,4.27-4.51,6.87-.25.68-.09,1.75.84,1.68A10.33,10.33,0,0,0,73,89.43c1.43-1.78,2.52-3.84,4.22-5.37,2.5-2.44,5.76-3.94,8.9-5.34,1.42-.51,3-.75,4.19-1.77-.26-1.44-1.7-2.27-2.23-3.6-.2-.27-.28-.68-.58-.85Z"/><path id="Path_70487" data-name="Path 70487" class="cls-14" d="M32.71,45.42c-4.37-2.48-9.5-4.39-14.59-3.18-4,.81-7.51,3-10.74,5.36-1.86,1.51-.47,4.08-.17,6,.45,1.19.75,3.73,2.52,3.36,2.36-.92,5-.92,7.2-2.36,4.93-2.76,10.12-5,15.25-7.36C32.92,46.89,33.61,46,32.71,45.42Z"/><path id="Path_70488" data-name="Path 70488" class="cls-14" d="M108.2,103.05c-5.51-2-12-2.75-17.37.17-1.71,1.07-3.87,1.91-5,3.56,1.91,1.68,3.75,3.73,5.64,5.51,2.19,1.25,3.9-1.46,5.69-2.31,3.52-2.45,7.62-4,11.17-6.41a.36.36,0,0,0-.08-.51Z"/><path id="Path_70489" data-name="Path 70489" class="cls-13" d="M62.85,117.83c-3.32.19-6.55,1.42-9.82,2.08a32.94,32.94,0,0,0-12.66,6.24c-.58.78-2.09,1.55-1.7,2.7,1.26,1.22,3.16,1.52,4.67,2.34,1.37-1.12,2.49-2.66,4-3.69a30.11,30.11,0,0,1,15.55-5.88c1.14-.11.42-1.57.43-2.29C63.19,118.85,63.24,118.2,62.85,117.83Z"/><path id="Path_70490" data-name="Path 70490" class="cls-15" d="M62.6,116.38c-1.6-1.68-4-1.14-6.08-1.12a26.21,26.21,0,0,0-6.21,1c0,.67.9,1.87-.28,2.07-.87.35-2.42.9-2.76-.41-.27-.72-1-.59-1.34,0-1.88,2.1-4,4.07-5.47,6.52-.15.93,1,.31,1.33-.07A43.67,43.67,0,0,1,56,118.71c2.22-.67,4.61-.83,6.78-1.61.28-.24,0-.58-.2-.73Z"/><path id="Path_70491" data-name="Path 70491" class="cls-15" d="M112.68,108.36c-4.79,2.59-10.33,3.85-14.56,7.44-2,1.67-4.39,3-5.87,5.16-.1.94,1.26,1.26,1.77,1.87.81.67,2.34,1.77,3.15.49,1.15-1.53,1-3.69,2-5.22,3.12-3.28,6.83-6.86,11.66-7,.88,0,1.87-.38,1.82-1.41C112.61,109.32,113.21,108.56,112.68,108.36Z"/><path id="Path_70492" data-name="Path 70492" class="cls-13" d="M112.68,104.63c-1.06-.16-2,.91-3,1.23-7.5,4.12-15.22,7.89-22.39,12.6,0,.83,1.4,1.19,2,1.76,1.34,1,3,0,3.94-1,3.94-3.35,8-6.71,13-8.47,2.27-1.06,4.92-1.84,6.63-3.75a2.34,2.34,0,0,0-.2-2.38Z"/><path id="Path_70493" data-name="Path 70493" class="cls-14" d="M60.68,113.57c-3.49-2.78-7.65-5.69-12.37-4.8C42,110,37.58,115.41,33.94,120.35c-.75.68-.66,2.55.69,2.22,4.26-.51,7.3-4,11.17-5.51,1.37-.74,2.91-.79,4.32-1.36,3.63-.86,7.4-.78,11.05-1.33C61.48,114,60.84,113.77,60.68,113.57Z"/><path id="Path_70494" data-name="Path 70494" class="cls-14" d="M48.07,20.59a49.41,49.41,0,0,0-12.54,1.18c-2.6.72-5.94,1.42-6.9,4.36-.92,2.37-.16,5,0,7.43.16,2,2.32,3.11,4.1,3.39,4,.11,7.23-2.84,9.82-5.53,2.78-3,3.75-7.06,5.7-10.49a.34.34,0,0,0-.17-.34Z"/><path id="Path_70495" data-name="Path 70495" class="cls-16" d="M23.28,29.34c-3.16,1-6.49,0-9.68.76-.4.08-1.44-.18-1.08.58.35,1.28,1.28,2.6,1.35,3.86a9.8,9.8,0,0,1-2.79.9c-.85-1-1-2.53-2-3.3-1.34.14-1.61,2-2.33,2.85-1.26,2.48-3.28,4.63-4,7.35A3.25,3.25,0,0,0,5.21,46c2.39-1.2,4.7-2.58,7.36-3.15,1.83-.6,3.9-.62,5.63-1.25C18,37.37,20.47,33.64,23,30.44c.1-.28,1-1,.3-1.09Z"/><path id="Path_70496" data-name="Path 70496" class="cls-13" d="M25.07,29.42a16.72,16.72,0,0,0-6.22,9.92c-.23.77-.27,2.65,1,2.18a10.8,10.8,0,0,0,4.75-7.74,36.71,36.71,0,0,0,.65-4.29l-.19-.07Z"/><path id="Path_70497" data-name="Path 70497" class="cls-17" d="M17.44,1.58c-.32-.45-.83,0-.47.43C20.1,8.3,24.83,13.58,29,19.22a24.37,24.37,0,0,0,2.5,3.06,3.09,3.09,0,0,0,2.26-.69,16.19,16.19,0,0,0-2-2.95c-3.2-4.11-6.15-8.41-9.55-12.35C20.65,4.68,19.06,3.11,17.44,1.58Z"/><path id="Path_70498" data-name="Path 70498" class="cls-17" d="M1.14,9.23c-.64-.34-.51.61-.33.95.5,3.29,2.18,6.2,3.4,9.25C6,23.25,7.48,27.17,9.46,30.88c.25.27.53.46.46.88.38,1.12.6,2.46,1.46,3.3a3,3,0,0,0,2-1.12,31,31,0,0,0-1.72-4c-2.52-5.3-4.59-10.8-7.37-16A35.6,35.6,0,0,0,1.14,9.23Z"/><path id="Path_70499" data-name="Path 70499" class="cls-17" d="M30.92,74.62a4.31,4.31,0,0,0-2,.25c0,.31,0,1.2.56,1s1.16-.54,1.48-1c0-.07,0-.17-.1-.2Z"/><path id="Path_70500" data-name="Path 70500" class="cls-17" d="M46,108.07c-.6-.21-1.22.28-1.74.53s-.54.83,0,.75a3.52,3.52,0,0,0,1.84-.93A.28.28,0,0,0,46,108.07Z"/><path id="Path_70501" data-name="Path 70501" class="cls-17" d="M49.91,116.7c-.65-.4-1.48.07-2.1.31a2.75,2.75,0,0,0,.19,1.21c.5.36,1.22.07,1.75-.1a.84.84,0,0,0,.39-1.13.8.8,0,0,0-.23-.29Z"/><path id="Path_70502" data-name="Path 70502" class="cls-17" d="M99.91,109c-.5-.48-1.07.25-1.53.45-.68.28-.09,1,.2,1.29.39.7,1.22.1,1.68-.21.72-.28.44-.88-.05-1.24A4.11,4.11,0,0,0,99.91,109Z"/><path id="Path_70503" data-name="Path 70503" class="cls-17" d="M117.75,132.8c-.54-.18-1.15.23-1.6.49-.19.51.48.92.66,1.35,2.79,3.84,5.63,7.66,8.58,11.37a.76.76,0,0,0,1.07.15.81.81,0,0,0,.28-.4c.24-.48.44-1.18-.13-1.54-3.12-3.66-5.72-7.72-8.83-11.39l0,0Z"/><path id="Path_70504" data-name="Path 70504" class="cls-17" d="M64.77,150.72c-.6-.13-1.18.37-1.65.67-.42.48.21,1.08.33,1.57,2.23,5.11,4.49,10.2,6.52,15.39a41.18,41.18,0,0,0,2,5.13c.49.4,1.22-.06,1.67-.34a1,1,0,0,0,.48-1.36l0,0c-1.88-4.63-3.9-9.21-5.84-13.82a66.72,66.72,0,0,0-3.45-7.12l-.08-.08Z"/><path id="Path_70505" data-name="Path 70505" class="cls-18" d="M0,7.32A13.55,13.55,0,0,0,.4,10.85c.11.48.24,1.16.29,1.51A7.24,7.24,0,0,0,1,13.65c.14.36.34.92.45,1.24a2.08,2.08,0,0,0,.29.6,6.83,6.83,0,0,1,.5,1l.64,1.39c.2.38.66,1.4.86,1.9a9.05,9.05,0,0,0,1,2,.48.48,0,0,1,.16.36,5.66,5.66,0,0,0,.62,1.63c.22.41.51,1.1,2,4.4.2.49.49,1,.59,1.26.18.38.34.77.48,1.16l.29.79-.56.37a3.18,3.18,0,0,0-.67.54c-.05.1-.18.31-.28.47a4.07,4.07,0,0,0-.33.66,8.81,8.81,0,0,1-1,1.72.37.37,0,0,0-.13.27,2.46,2.46,0,0,1-.32.65L4.4,37.86c-.12.19-.36.52-.53.74a7.19,7.19,0,0,0-.52.83c-.12.25-.35.69-.51,1a5.72,5.72,0,0,0-.76,3.46c.22.92,1.14,2.12,1.67,2.19a.51.51,0,0,1,.3.17,1.83,1.83,0,0,0,1.26.32c.08,0,.17,0,.2,0,.17.26,1.29-.4,1.22-.72,0-.11.07-.18.35-.29s.58-.24.82-.36c.76-.38,1.81-.86,2.1-1a11.07,11.07,0,0,1,2.27-.63s0,.11-.18.16a24.88,24.88,0,0,0-4.16,2.54q-.33.32-.69.6a3.35,3.35,0,0,0-.57.56,1.42,1.42,0,0,1-.25.3,6.88,6.88,0,0,0-.79,1.37.5.5,0,0,0,0,.36.62.62,0,0,1,0,.38A6,6,0,0,0,5.91,51c.14.53.26,1.07.28,1.19a11.36,11.36,0,0,0,.55,2.23,9.75,9.75,0,0,0,.65,1.65l.5,1.07c.42.94.47,1,.94.9a3.58,3.58,0,0,0,1-.39A3.51,3.51,0,0,1,12.19,57l.36.06-.18.25a2,2,0,0,1-.23.28,6.59,6.59,0,0,0-.38.75,2.23,2.23,0,0,1-.5.76A5.2,5.2,0,0,0,10.75,61a15.07,15.07,0,0,0,0,2.85,8.79,8.79,0,0,0,1.24,3,8.5,8.5,0,0,1,.72,1.37,5.37,5.37,0,0,0,.92,1.52C14.73,71,15,71.22,15.38,71.41a1.53,1.53,0,0,1,.47.29,3.74,3.74,0,0,0,1.36.51c.05,0,.18,0,.3.1a3.77,3.77,0,0,0,2-.16c.24-.1.33-.07.45.12a20,20,0,0,1,.89,2.08,1.41,1.41,0,0,0,1.17,1,10.21,10.21,0,0,0,3.57.22,9.81,9.81,0,0,1,1.09-.08c.21,0,.38,0,.39,0a1.38,1.38,0,0,1,.4-.1,2.42,2.42,0,0,0,.48-.13c.11-.08.52.55.6.91s0,.44-.77,1a5.25,5.25,0,0,0-.62.53,2.38,2.38,0,0,1-.44.4A10.55,10.55,0,0,0,25.17,80a.88.88,0,0,1-.22.25,20.5,20.5,0,0,0-2.59,3.49.78.78,0,0,1-.18.35,17.42,17.42,0,0,0-1.52,3c-.27.76-.26.9.09.92.2,0,.22.06.18.53a8.08,8.08,0,0,1-.2,1.18c-.21.82-.17,1.48.1,1.62s.22.17.65,1.21c.23.57.24.57.78.76l.81.31c.14.06.55.22.9.33l.8.28c.11,0,.17.31.24.87a4.47,4.47,0,0,0,.69,2.1c.13.29.44.91.68,1.39a8.35,8.35,0,0,0,1.32,2.1c.14.15.41.45.6.68a9.43,9.43,0,0,0,3.55,2.35,5.85,5.85,0,0,1,.83.3c.28.15.28.16,0,.47a3.42,3.42,0,0,1-.49.44,9.55,9.55,0,0,0-2.4,3.57,2.58,2.58,0,0,0,.14,1.14l.38,1.25c.08.29.22.71.3.94s.16.45.17.52a.64.64,0,0,0,.06.18,2.57,2.57,0,0,1,.07.4,9,9,0,0,0,.71,2.84c.11.31.21.62.29.94a5,5,0,0,0,.28.82c.2.3.68.13,1.22-.44l.34-.36,1-1A20.79,20.79,0,0,1,38,112.93c.63-.45,1.22-.9,1.3-1,.23-.23,3.07-2.14,3.5-2.35s.38-.15.46,0,0,.23-.78.79a22.29,22.29,0,0,0-4.58,4,6,6,0,0,1-.61.71c-.2.19-.47.47-.61.63a23.5,23.5,0,0,0-2.89,3.63,5.7,5.7,0,0,1-.54.81,1.76,1.76,0,0,0-.29.6,6.38,6.38,0,0,1-.22.66,1.27,1.27,0,0,0,.46,1.31,1.31,1.31,0,0,0,1,.41,2.27,2.27,0,0,0,.78,0,.24.24,0,0,1,.2,0,5.45,5.45,0,0,0,2.15-.41c.75-.28,1.1-.5,4.5-2.75,1.11-.73,2.08-1.32,2.15-1.33.26,0-.6,1.24-1.22,1.77a12.64,12.64,0,0,0-1.2,1.33.91.91,0,0,1-.18.21,8.27,8.27,0,0,0-.59.83,7.35,7.35,0,0,1-1,1.4,15.64,15.64,0,0,0-1.31,2.33,7.48,7.48,0,0,1-.54,1.5,1.07,1.07,0,0,0-.2.38,1,1,0,0,0,.49,1.16,18.42,18.42,0,0,0,2.94,1.31,1.45,1.45,0,0,1,.45.22.61.61,0,0,0,.26.15q.4.14.78.3a4.4,4.4,0,0,0,1,.32c.38,0,.69-.14.57-.31s.14-.46.65-1l.27-.25-.16.83c-.08.46-.17,1.11-.2,1.44s-.13,1.27-.24,2.1-.21,1.68-.23,1.87-.09.68-.14,1.08a15.65,15.65,0,0,0,.19,3.68,7.14,7.14,0,0,0,.57,2.4l0,0a4.55,4.55,0,0,0,1.25,1.72c.44.17.64.2.66.1s0,0,0,.07.22.2.5.25a3.72,3.72,0,0,0,1.41.07s.07,0,.2,0a1.37,1.37,0,0,0,.57-.09,3,3,0,0,1,.65-.17,7.39,7.39,0,0,0,1.8-.84,1.79,1.79,0,0,1,.44-.16l.38-.1.29.57a5.51,5.51,0,0,1,.31.76,5.76,5.76,0,0,0,.66,1.5,7.25,7.25,0,0,1,.51,1.44c.12.49.29,1.1.37,1.36s.18.6.21.75a2,2,0,0,0,1.14,1.42,3.28,3.28,0,0,0,1.78.5,6.63,6.63,0,0,0,2.07-.32,3,3,0,0,1,.66-.23,3.37,3.37,0,0,0,.34-.09,1,1,0,0,1,.75-.27l.31,0,.56,1.2c.9,1.87,1.74,3.79,1.88,4.19.07.2.3.73.51,1.18s.44.87.45,1,.2.49.36.91a10.79,10.79,0,0,0,1.08,2.43c.1.09.12.19.07.22s0,.19.09.35a7,7,0,0,1,.44,1.06,6,6,0,0,0,.41,1,1.62,1.62,0,0,1,.21.51,3.71,3.71,0,0,0,.27.68c.11.24.34.77.5,1.19s.34.94.43,1.16c.17.47.78,1.87,1.23,2.86.18.36.42.93.55,1.22.35.81.59,1.14.86,1.16.75.08.8,0,1.89-.64s1.18-.6.55-1.85c-.39-.77-.78-1.66-1.32-3-.16-.4-.47-1.13-1.53-3.61-.18-.43-.54-1.28-.8-1.87-.94-2.25-1.89-4.47-2.14-5-.14-.32-.54-1.25-.9-2.06-1-2.27-1.5-3.39-1.73-3.86-.1-.23-.34-.73-.49-1.13s-.29-.72-.3-.75a15,15,0,0,1,1.45-1,8.2,8.2,0,0,0,1.9-1.47c.45-.53.83-1.34.72-1.51a.32.32,0,0,1,0-.27,7.24,7.24,0,0,0-.6-3.08,2.28,2.28,0,0,0-.72-.82c-.82-.62-.85-.7-.3-1a5.37,5.37,0,0,0,1.76-1.17.13.13,0,0,1,.11-.15h0a2.17,2.17,0,0,0,.54-.55,5.15,5.15,0,0,1,.53-.61,1.14,1.14,0,0,0,.3-.39,1.31,1.31,0,0,1,.27-.35A7.89,7.89,0,0,0,72.76,136a.24.24,0,0,1,.09-.24,7.31,7.31,0,0,0,.47-2.31,5.08,5.08,0,0,1,0-.78,4.11,4.11,0,0,0-.59-2,21.17,21.17,0,0,0-2.32-3.39c-1.29-1.51-1.37-1.58-1.89-1.92-.27-.17-.72-.47-1-.67a6,6,0,0,0-1-.53c-1.06-.4-2-.73-2.26-.8a4.65,4.65,0,0,1-1.42-.47.21.21,0,0,0-.23-.07c-.24,0-.83-.3-.67-.4a.36.36,0,0,1,.27,0,8.09,8.09,0,0,0,1.53-.29c.37-.11.49-.84.3-1.89a7.79,7.79,0,0,1-.27-2.45c.2-.76-.44-.85-2.34-.35a19.94,19.94,0,0,1-2.15.43,5.5,5.5,0,0,0-1.06.2.24.24,0,0,1-.22,0,16.53,16.53,0,0,0-2.77.7,17.57,17.57,0,0,1-2.68.69,8.65,8.65,0,0,0-1.24.31,18.3,18.3,0,0,1-2.25.81,14.68,14.68,0,0,0-3.12,1.36c-1.18.68-2.06,1.16-2.76,1.48a20,20,0,0,0-2.9,1.93c-.27.25-.26.2.14-.45a8.4,8.4,0,0,0,.51-.93,1.07,1.07,0,0,1,.3-.37,5.38,5.38,0,0,0,.66-.85,5.88,5.88,0,0,1,.85-1.07,8.31,8.31,0,0,0,.65-.68l.4-.44c.1-.1.38-.41.61-.7a11.58,11.58,0,0,1,2-2.14l.5-.36.18.4c.11.22.28.58.38.8l.19.4.86,0a3.45,3.45,0,0,0,1.49-.33c.78-.37,1-.66.86-1-.07-.15-.17-.48-.26-.72-.18-.53-.18-.53,1.4-.81.49-.09,1-.19,1.45-.32a5.43,5.43,0,0,1,1-.2,2.93,2.93,0,0,0,.65-.1,6.75,6.75,0,0,1,1.62,0c.42,0,2.62-.06,3.46-.15a2.49,2.49,0,0,1,1.23.4l.39.28c.14.09.28.18.41.28a3.19,3.19,0,0,0,1.12.66c.33,0,.35-.26.07-.49a3.13,3.13,0,0,0-1.11-.72s-.21-.15-.39-.37c-.28-.37-.29-.45-.17-.74a.93.93,0,0,0,.06-.57,7.09,7.09,0,0,0-2.45-2.07,9,9,0,0,1-1.22-.91c-.36-.32-.82-.7-1-.85a7.27,7.27,0,0,0-2-1,.21.21,0,0,1-.21,0c-.07-.1-.31-.17-1.83-.57a25.72,25.72,0,0,0-3.71-.44,9.36,9.36,0,0,0-2.12.21c-.22,0-.31,0-.41-.2s-.11-.28.32-.52a19.18,19.18,0,0,1,5-1.65,1.52,1.52,0,0,0,.47-.1,2.92,2.92,0,0,1,.71-.16c.34,0,.93-.18,1.31-.28a5.59,5.59,0,0,1,.91-.16,7.3,7.3,0,0,0,.81,0c.33,0,.84-.07,1.14-.08a2.76,2.76,0,0,0,1.24-.44c.86-.48,1-.61,1.29-2,.14-.56.3-1.18.36-1.38l.12-.35-.36-.08c-.35-.08-.36-.08-.51.23a7.47,7.47,0,0,0-.34,1.23,5.68,5.68,0,0,1-.35,1.22,2.35,2.35,0,0,1-1.46.84,2.85,2.85,0,0,0-.71.12,1.33,1.33,0,0,1-.56.06.23.23,0,0,0-.2,0,1.67,1.67,0,0,1-.86.08.68.68,0,0,0-.46.1.68.68,0,0,1-.52.09.68.68,0,0,0-.4,0,2.23,2.23,0,0,1-.6.16c-.26,0-.62.1-.8.15l-.54.13a1.38,1.38,0,0,0-.28.06s-.31,0-.62.1a21.78,21.78,0,0,0-4.16,1.44,1.41,1.41,0,0,1-.49.2,3.35,3.35,0,0,0-.8.35,7.55,7.55,0,0,1-1.83.71,1.85,1.85,0,0,0-.93.75.18.18,0,0,1-.21.1c-.22,0-.73.3-2.55,1.6s-2.18,1.58-2.25,1.73-.09.09-.12,0a2.46,2.46,0,0,0-.77.51,11.05,11.05,0,0,0-2,1.75,14.15,14.15,0,0,1-1.93,1.86c-.14,0-.17,0-.22-.34a6,6,0,0,0-.29-.94.93.93,0,0,1,0-1.08c.14-.28.36-.76.48-1.07a7.46,7.46,0,0,1,.83-1.34c.33-.43.75-1,.93-1.31a4.72,4.72,0,0,1,.6-.81l.86-1a9.56,9.56,0,0,1,1-1l1-.8a35.29,35.29,0,0,1,4.3-2.7l2.2-1a23.85,23.85,0,0,1,2.87-1,5.26,5.26,0,0,0,.75-.21,2.94,2.94,0,0,1,.65-.16c1.23-.21,2.28-.43,2.93-.61a38.86,38.86,0,0,1,5.16-.62.42.42,0,0,0,.29,0,1,1,0,0,1,.43,0,22.25,22.25,0,0,0,2.58.09.54.54,0,0,0,.15-.29c0-.2,0-.26-.36-.49a11.53,11.53,0,0,0-1-.55c-.35-.16-.89-.41-1.19-.58a1.49,1.49,0,0,0-.63-.25s-.15,0-.24-.07a3.73,3.73,0,0,0-.84-.32,3.27,3.27,0,0,1-.73-.29c0-.05-.17-.08-.31-.08a.56.56,0,0,1-.31-.09,13.43,13.43,0,0,0-3.86-.81h-.35l.46-.77a2.84,2.84,0,0,0,.39-.87.11.11,0,0,1,0-.15c.11-.08.21-.35.67-1.86A10.85,10.85,0,0,0,52.44,90c0-.2,0-.5,0-.66a7.69,7.69,0,0,0-.68-2.87,1.16,1.16,0,0,1-.2-.59c0-.16-.14-.49-.55-1.16A6.52,6.52,0,0,0,48.11,82l-.75-.41.3-.56a5.12,5.12,0,0,1,.8-1,8.3,8.3,0,0,0,.83-1l.45-.65a3.51,3.51,0,0,0,.41-1.65,6.27,6.27,0,0,0-1.37-2.47,36.86,36.86,0,0,0-3.45-2.91,6.38,6.38,0,0,0-2.59-1,2.29,2.29,0,0,0-.64,0,1.7,1.7,0,0,1-.55,0,1.5,1.5,0,0,0-.56,0,4,4,0,0,1-.84.15,7,7,0,0,0-1.28.28,17.74,17.74,0,0,0-2.24.84c-.26.13-.51.21-.56.17a.08.08,0,0,0-.12,0v0a.38.38,0,0,1-.26.11,2.32,2.32,0,0,0-.58.19c-.2.09-.39.13-.41.09A3.29,3.29,0,0,1,35,70.91a2.66,2.66,0,0,0,.08-1.76.4.4,0,0,1-.07-.32c0-.08,0-.13-.07-.15s-.18-.18-.24-.44a2.7,2.7,0,0,0-.79-1.3l-.3-.28L34,66.5a5.66,5.66,0,0,1,.58-.2,6.41,6.41,0,0,0,3.47-3.43.19.19,0,0,1,.07-.14,15.52,15.52,0,0,0,.62-2.86c.34-2.51-1.64-6.87-3.9-8.56a23,23,0,0,0-4.16-2.14c-.35-.08-.17-.3.46-.56a12.9,12.9,0,0,0,1.62-.91c1-.64,1-.68,1.2-1.1a1.32,1.32,0,0,0,.07-.68,3.78,3.78,0,0,0-1.55-1.33l-.92-.5c-.19-.11-.37-.18-.4-.15a4.12,4.12,0,0,1-1-.36A12.2,12.2,0,0,0,29,43.12a4.34,4.34,0,0,1-.7-.3c-1-.57-5.47-1.79-5.8-1.57a.79.79,0,0,1-.43,0l-.35-.08.16-.23c.31-.46,1.45-2,1.52-2a4.37,4.37,0,0,0,.69-1.25,3,3,0,0,1,.25-.58,8.52,8.52,0,0,0,.77-2.45c.05-.39.15-1.07.24-1.53s.26-1.36.38-2,.28-1.6.34-2.08.16-1.06.2-1.28c.1-.48,0-.65-.23-.48-.1.06-.18.06-.18,0,0-.25-.23-.22-.34,0a4.52,4.52,0,0,1-2.08,1.38c-.32.1-.69.22-.83.28a1.33,1.33,0,0,1-.28.1.22.22,0,0,0-.11,0,10.24,10.24,0,0,1-1.35.21h-.7c-.3,0-1,0-1.43-.09a13.83,13.83,0,0,0-1.43-.07c-.3,0-.79,0-1.08,0a1.72,1.72,0,0,0-.71.09.46.46,0,0,1-.32.09,6.38,6.38,0,0,0-2.46.69c-.23.2-.17.44.12.48a2.42,2.42,0,0,0,1.24-.27c0-.06.08-.07.1,0a1.39,1.39,0,0,0,.67-.1,5.27,5.27,0,0,1,1-.2,16.87,16.87,0,0,1,2.93.13,8,8,0,0,0,2.19,0,1.91,1.91,0,0,1,.54-.1,2.07,2.07,0,0,0,.55-.11,2,2,0,0,1,.54-.14c1.13-.2,1.12-.21.42.59a18.39,18.39,0,0,0-2.79,3.65,1.31,1.31,0,0,1-.26.4,1.74,1.74,0,0,0-.3.59.67.67,0,0,1-.2.39c-.09,0-.14.13-.12.17a3.74,3.74,0,0,1-.33.92,10,10,0,0,0-.48,1.25c-.05.22-.18.68-.29,1a8.29,8.29,0,0,0-.16,2.72.32.32,0,0,1-.05.28,11,11,0,0,1-1.51.22,6.22,6.22,0,0,0-1.48.27.13.13,0,0,1-.17,0,9.11,9.11,0,0,0-2.32.54.24.24,0,0,1-.24,0,5.88,5.88,0,0,0-1.92.64c0,.07-.16.1-.29.08a13.36,13.36,0,0,0-3.9,1.82c-1,.67-1.29.71-1.93.32a2.73,2.73,0,0,1-1.26-1.38A3.13,3.13,0,0,1,3,42a6.83,6.83,0,0,1,1.32-2.67,13.61,13.61,0,0,0,1.27-2A4.38,4.38,0,0,1,6,36.56c.1-.11.16-.23.14-.27s0-.16.11-.26a11,11,0,0,0,1.39-2.24,3.14,3.14,0,0,1,.88-1.36c.61-.51.72-.38,1.61,1.77.39.92.88,1.57,1.09,1.44a.75.75,0,0,1,.33-.1,22.28,22.28,0,0,0,2.22-.75.5.5,0,0,0,.34-.4c.05-.27,0-.41-.42-1.12a.93.93,0,0,1-.14-.36A6.5,6.5,0,0,0,13,31.64c-.21-.45-.89-2-1.1-2.56-.15-.34-.26-.51-.39-.55s-.15-.09-.1-.2a2.61,2.61,0,0,0-.35-1c-.46-1-1.27-2.8-1.91-4.28-.23-.52-.45-1-.49-1.07a6.58,6.58,0,0,1-.36-.82c-.15-.38-.37-.89-.5-1.13s-.28-.54-.34-.68c-.61-1.42-.9-2.08-1-2.4S6.13,16.27,6,16c-1.14-2.62-1.47-3.28-1.69-3.4A9.77,9.77,0,0,1,3.12,11C1.64,8.74.74,7.55.49,7.57A.34.34,0,0,1,.2,7.46.23.23,0,0,0,0,7.35ZM.85,9.09C1,9,1,9,2.26,11c.49.79,1.15,1.8,1.47,2.25a25.32,25.32,0,0,1,1.78,3.38c0,.08.12.31.2.5s.28.6.42.92.42.92.6,1.32.42.93.51,1.18a6.84,6.84,0,0,0,.42.86,2.69,2.69,0,0,1,.3.67,7.78,7.78,0,0,0,.44,1c.21.43.49,1,.62,1.32s.33.73.45,1,.21.45.23.48a.3.3,0,0,0,.05.15c.2.47.4,1,.54,1.35a10.59,10.59,0,0,0,.46,1,4.12,4.12,0,0,1,.32.67,5.24,5.24,0,0,0,.31.68c.15.29.4.84.55,1.23s.35.88.46,1.09l.5,1c.49,1,.48,1-.43,1.49a4.5,4.5,0,0,1-1,.45c-.27,0-.29,0-.36-.34a14.71,14.71,0,0,0-.6-1.5c-.45-1.06-.53-1.34-.47-1.61S10.1,31,9.74,31a.39.39,0,0,1-.33-.22C9.3,30.42,8.05,27.64,7.69,27A13.69,13.69,0,0,1,7,25.48a6.2,6.2,0,0,0-.37-.89c0-.08-.19-.41-.31-.74a12.1,12.1,0,0,0-.62-1.43c-.34-.67-.82-1.75-1-2.21a3.87,3.87,0,0,0-.39-.79c-.13-.18-.21-.39-.18-.44s0-.17-.12-.25a1.67,1.67,0,0,1-.25-.6,1.24,1.24,0,0,0-.17-.5A1.66,1.66,0,0,1,3.37,17c-.1-.31-.49-1.21-.87-2a8.27,8.27,0,0,1-1.1-2.88,9.93,9.93,0,0,0-.21-1.06c-.07-.23-.15-.6-.19-.81s-.09-.43-.1-.5C.76,9.35.74,9.16.84,9.1ZM15.79,0s-.09.06-.13.14A8,8,0,0,0,16.75,2.9a4.12,4.12,0,0,1,.3.64,38.07,38.07,0,0,0,1.89,3.34A19.86,19.86,0,0,0,21,9.68a10.46,10.46,0,0,1,.65.84,7.54,7.54,0,0,0,.53.73,5,5,0,0,1,.86,1.14c.25.43.63.85.7.8s.22.21.42.52a9.69,9.69,0,0,0,1.5,2.1,18.23,18.23,0,0,1,1.91,2.55,9,9,0,0,0,.78.95,19.27,19.27,0,0,1,1.47,2l.9,1.37-.57.46A5.7,5.7,0,0,0,28,26.24a6.7,6.7,0,0,0-.34,3.32c.06.48.18,1.57.27,2.42a16.69,16.69,0,0,0,.42,2.82h0A3,3,0,0,0,29,36.05a2.56,2.56,0,0,0,1.76,1.16,15.38,15.38,0,0,0,3,.28,3.29,3.29,0,0,1,.7-.11l.62-.07-.19,1a8.08,8.08,0,0,0,.06,3.1,14.43,14.43,0,0,0,.72,3.44A8.05,8.05,0,0,0,37,47a2.44,2.44,0,0,1,.43.42,1.7,1.7,0,0,0,.33.38c.3.31.59.63.87,1a5.06,5.06,0,0,0,.77.69A3.35,3.35,0,0,1,40,50a4.4,4.4,0,0,0,1.41.77.21.21,0,0,1,.17.1c.12.19,1,.24,1.56.1s.66-.23,2.22-1.45l.88-.67c.15-.1.53.71.86,1.82.17.59.34,1.14.37,1.22s.22.59.41,1.12a11.14,11.14,0,0,0,.6,1.37c.23.39.27.41.71.35l.46-.05-.15.41A11.47,11.47,0,0,0,49,58.45,6.86,6.86,0,0,0,49,59.81a1.28,1.28,0,0,1,.1.47,11.46,11.46,0,0,0,1.3,5.07,2.37,2.37,0,0,0,.45.59c.18.17.75.79,1.27,1.38a10.91,10.91,0,0,0,2.69,2.38,5.22,5.22,0,0,1,.67.45,3.41,3.41,0,0,0,.86.36l1.15.4a5.61,5.61,0,0,0,1.16.18c.94.07,1.71.14,2.2.22a4.2,4.2,0,0,0,1,0l1.36-.2a6.31,6.31,0,0,0,2.22-.77.27.27,0,0,1,.25-.09c.22,0,.44.28.24.29a2.62,2.62,0,0,0-.62.82c-.28.46-.74,1.16-1,1.56A21.62,21.62,0,0,0,63,74.78c-.07.13-.3.53-.54.92s-.47.79-.53.89a2.06,2.06,0,0,1-.35.42,3,3,0,0,0-1.1,1.63,5.65,5.65,0,0,0-.17.93,1.12,1.12,0,0,0,.87.93.71.71,0,0,1,.41.17c0,.06.11.1.15.08A9,9,0,0,1,64.09,82a8,8,0,0,0,2.5.75s.11,0,.2,0A2.25,2.25,0,0,1,66.9,84a7.81,7.81,0,0,0-.08,1.6,2.22,2.22,0,0,1,0,.63,5.41,5.41,0,0,0,.05,1.75.37.37,0,0,1,0,.31s0,.11,0,.18a1,1,0,0,1-.08.56.71.71,0,0,0,0,.69.39.39,0,0,1,.08.35c-.13.15.51,1.23.82,1.4a5.67,5.67,0,0,0,2.77-.24,11.11,11.11,0,0,1,1.29-.34A2.72,2.72,0,0,0,73.32,90c0-.09.08-.16.13-.15a10.21,10.21,0,0,0,1.31-1.62,8.9,8.9,0,0,1,.58-.79c.29-.37.61-.83.73-1a15.15,15.15,0,0,1,2.71-2.83c.23-.06-.15.42-1.12,1.38A12.78,12.78,0,0,0,76,86.69a7,7,0,0,1-.78,1.15c-.34.22-.68,1-1.36,3.27a16.82,16.82,0,0,0-.7,5.28,3.55,3.55,0,0,1,.17.66,7.28,7.28,0,0,0,.27,1c.11.34.22.67.23.73a8.34,8.34,0,0,0,.77,1.59c.36.63.5.8.66.82a.44.44,0,0,1,.31.2,4.49,4.49,0,0,0,1.93,1,6,6,0,0,0,2,.3c.3,0,.61,0,.91.07a3.92,3.92,0,0,0,2.14-.74c.7-.55,2.25-1.89,2.5-2.16a3.12,3.12,0,0,1,.53-.43c.31-.2.31-.2.68.24a18.43,18.43,0,0,1,2.3,4,6.54,6.54,0,0,1-1.22.86,15.57,15.57,0,0,0-1.55,1.11l-.55.56c-.13.12-.13.23,0,.4l.15.24.73-.58A47.53,47.53,0,0,1,91.32,103a16.8,16.8,0,0,1,7.34-1.72c.67,0,1.24,0,1.26,0a7.37,7.37,0,0,1,.82.13c.43.09,1.31.23,2,.33a20.42,20.42,0,0,1,5.6,1.43c.24.12.42.25.4.3a2.33,2.33,0,0,1-.69.38c-.36.15-.87.4-1.12.53s-.79.41-1.19.6a7.62,7.62,0,0,0-.9.46c-.1.06-.41.24-.7.38l-.95.48c-.23.13-1,.53-1.75.89a35.74,35.74,0,0,0-5.07,3.15c-.58.44-1.33,1-1.66,1.23a3.5,3.5,0,0,0-1,.89c-.12.26-1.46.3-1.62.05a.2.2,0,0,0-.23-.07c-.1,0-.24-.09-.37-.28s-.26-.3-.33-.3a.11.11,0,0,1-.12-.1h0a16.29,16.29,0,0,0-2.23-2.32,13.5,13.5,0,0,1-2-2.07c-.34-.49-.55-.57-.8-.3s-.14.42.29.83L87.35,109c.4.4.84.79,1,.89a16.67,16.67,0,0,1,1.5,1.41c.1.1.31.34.46.52a6.69,6.69,0,0,0,1.43,1.33,1,1,0,0,1,.33.22.75.75,0,0,0,.32.21l.39.14a.46.46,0,0,0,.38,0c.1-.06.46-.33.81-.59,1.39-1,2.28-1.68,2.87-2.17a2.8,2.8,0,0,1,.74-.49,1.47,1.47,0,0,1,.46.5l.33.48-.28.24a1.66,1.66,0,0,1-.47.26,12.55,12.55,0,0,0-1.4.75c-.67.4-1.8,1-2.51,1.38s-2.23,1.28-4,2.4a23.27,23.27,0,0,1-2.82,1.71c-.17,0-.55.3-.47.42s0,.09-.09.09-.07.08.09.22.34.34.5.52a1,1,0,0,0,.37.3.31.31,0,0,1,.21.16.5.5,0,0,0,.31.18.36.36,0,0,1,.22.09,5.17,5.17,0,0,0,1.58,1c.2.06.67.17,1.06.25s.7.2.7.26.36.43.77.7c.18.12.83.64.92.73a5.81,5.81,0,0,0,1.23.84,4.54,4.54,0,0,1,.45.21,2.65,2.65,0,0,0,2,.48l.57-.13.2-.46a1.13,1.13,0,0,1,.27-.45,1.45,1.45,0,0,1,.14.58,7.75,7.75,0,0,0,.62,2.26.67.67,0,0,1,.14.36.32.32,0,0,0,0,.17s.08.23.13.45a3.21,3.21,0,0,0,.35.78l1,1.56a7.74,7.74,0,0,0,1.46,1.82,4.24,4.24,0,0,0,.84.68.5.5,0,0,1,.23.2,5.61,5.61,0,0,0,1.32.95,3.17,3.17,0,0,1,.54.36,10.75,10.75,0,0,0,3.22,1,7.84,7.84,0,0,0,2.55.27,5.48,5.48,0,0,1,1.07,0,.6.6,0,0,0,.32,0,4.84,4.84,0,0,1,.65-.19,8.19,8.19,0,0,0,1.61-.45c.11-.05.44-.2.75-.32l.56-.22.33.38c.46.54,2.77,3.52,2.94,3.78s.4.54.72.92c.6.72.73.89,2.4,3.23.56.78,1.07,1.49,1.15,1.58.37.43,1,1.33,1.65,2.16s.67.93,1.08,1a1.53,1.53,0,0,0,1.45-.4,1.32,1.32,0,0,1,.25-.28,1.31,1.31,0,0,0,.24-.28c.19-.27.16-.61-.06-.66s-.38-.33-.27-.49-.27-.81-.47-.9a7.14,7.14,0,0,1-.61-.75c-1.1-1.54-3.85-5.25-4.21-5.7-.21-.27-.69-.92-1.06-1.45s-.87-1.2-1.08-1.47c-1-1.33-1.49-2-1.44-2.09s.23-.3,1-.87a3,3,0,0,0,.65-.63.61.61,0,0,1,.23-.27c.23-.14.66-.8.6-.9a1.93,1.93,0,0,1,.42-.7,1.76,1.76,0,0,0,.19-.39c.08-.19.26-.58.39-.84a7.36,7.36,0,0,0,.47-3.18c0-.22-.08-.62-.1-.88s-.1-.9-.16-1.41a8.58,8.58,0,0,0-.73-3.19,3.62,3.62,0,0,1-.22-.73,4.35,4.35,0,0,0-.34-.91,2.56,2.56,0,0,1-.28-.71c0-.42-1.27-2.18-2.5-3.38a8.51,8.51,0,0,0-2.62-1.53l-1.06-.4a9.08,9.08,0,0,0-.86-.3,1.13,1.13,0,0,1-.39-.17,19.87,19.87,0,0,1,.52-2.64.84.84,0,0,0,.3-.74,1.63,1.63,0,0,1,0-.54,7.13,7.13,0,0,0-.32-2,2.53,2.53,0,0,0-.37-.82c-.24-.3-.29-.33-.69-.23a8.27,8.27,0,0,0-2,.81c-.22.14-.63.39-.92.54s-.8.44-1.15.64c-.84.49-2.78,1.58-3.14,1.78l-.91.43c-.35.16-1,.5-1.51.78-1.5.85-1.42.84-1.93.2a1.92,1.92,0,0,1-.41-.67,9.88,9.88,0,0,1,2.36-1.25c.39-.19,1-.48,1.27-.65s.73-.39,1-.49l.9-.46a14.41,14.41,0,0,1,2.08-.85,7.11,7.11,0,0,0,1.22-.57,1.85,1.85,0,0,0,.41-.47c.33-.48.15-.72-.89-1.18a17.41,17.41,0,0,0-4.25-1.23l-1.7-.31a.47.47,0,0,0-.35,0,.11.11,0,0,1-.16,0h0a1.49,1.49,0,0,0-1-.14.14.14,0,0,1-.17,0,6.89,6.89,0,0,0-1.86-.25l-1-.08c-.42,0-1-.05-1.19,0-.51,0-.54-.1-.1-.48a1.57,1.57,0,0,0,.41-.6.85.85,0,0,1,.15-.37,5.68,5.68,0,0,0,.35-1.87c0-.22-.05-.45-.06-.67a4.82,4.82,0,0,0-.38-1.24,8.26,8.26,0,0,1-.36-.94,7.92,7.92,0,0,0-.5-.9,10.71,10.71,0,0,1-.52-.94c0-.09.23-.27.82-.61a4.17,4.17,0,0,0,1.92-2,7.13,7.13,0,0,0,.9-4.17,3,3,0,0,0-.2-.88s-.07-.1,0-.2A6.28,6.28,0,0,0,98.22,82a5.21,5.21,0,0,0-1.65-1.87A4,4,0,0,0,95,79.23a2.13,2.13,0,0,0-.79-.11.84.84,0,0,1-.47,0,10.45,10.45,0,0,0-4,0c-.06,0-.14,0-.17,0a2.07,2.07,0,0,0-1.1.09.41.41,0,0,1-.34,0,.37.37,0,0,0-.31,0,1.38,1.38,0,0,1-.49.06H87l.29-.13.3-.12a21.69,21.69,0,0,0,2.78-1.15c.38-.21.48-.33.57-.63a1.59,1.59,0,0,0-.54-1.53,11.49,11.49,0,0,1-1.91-2.77,5.16,5.16,0,0,0-.55-1,1.82,1.82,0,0,0-.86-.18,12.21,12.21,0,0,1-1.6-.16A50.62,50.62,0,0,0,80,71a18.6,18.6,0,0,0-2.35.28,4.32,4.32,0,0,0-1.1.37c-.08.05-.15.06-.14,0s-.44-.1-.64,0c-.38.23-.4,0,0-.3a37.43,37.43,0,0,1,4.91-2.93,6.78,6.78,0,0,0,.84-.45c.33-.2.34-.23.2-.45s-.15-.23.32-.48.48-.25.4-.61a4.49,4.49,0,0,0-.29-.8,12.66,12.66,0,0,1-.51-1.27c-.45-1.27-.65-1.51-1.34-1.67a5,5,0,0,0-2.37.18.31.31,0,0,1-.27.1,15.07,15.07,0,0,0-3.2.53,1,1,0,0,1-.41.05,2.63,2.63,0,0,0-.56,0l-.34.06.27-1.14A7.82,7.82,0,0,0,73.67,60a2.21,2.21,0,0,1,0-.68,2.08,2.08,0,0,0,0-.61,2.91,2.91,0,0,1,0-.66,9,9,0,0,0-.22-2.14c0-.08-.17-.45-.29-.82a8.23,8.23,0,0,0-1-1.92,5.79,5.79,0,0,0-1.7-2,14.44,14.44,0,0,0-1.51-1.09,16.09,16.09,0,0,0-3-1.29,1.67,1.67,0,0,1-.5-.19,13.16,13.16,0,0,0-2.34-.23.37.37,0,0,1-.21,0,14.74,14.74,0,0,0-3.11.26c-1.13.24-1.36.22-1.29-.07a.38.38,0,0,1,.13-.25,7.84,7.84,0,0,0-.94-2.39c-.2-.37-.4-.77-.45-.9a6.33,6.33,0,0,0-.4-.81c-.47-.9-.48-.92,0-1.23.23-.15,1-.58,1.64-.94a5.06,5.06,0,0,0,1.84-1.33,6.33,6.33,0,0,0,.8-1,4.73,4.73,0,0,0,.09-2.53c-.1-.33-.25-.92-.33-1.32A4.34,4.34,0,0,0,60,34c-.54-.83-.76-1.12-1-1.28a10.21,10.21,0,0,1-1.78-1.22,2,2,0,0,0-.62-.37,2.19,2.19,0,0,1-.57-.29,3.06,3.06,0,0,0-.53-.29c-.27-.11-.6-.27-.75-.35a21.23,21.23,0,0,0-5.2-1.26,14.22,14.22,0,0,0-2.44-.07,2.34,2.34,0,0,1-.59,0,5.26,5.26,0,0,0-.89.07c-.2,0-.39,0-.42,0a.44.44,0,0,1,.15-.4A4.68,4.68,0,0,0,46,27.27a1.45,1.45,0,0,1,.27-.54.81.81,0,0,0,.2-.45.45.45,0,0,1,.15-.34.16.16,0,0,0,.08-.21c0-.06,0-.19.11-.26a.91.91,0,0,0,.26-.42,14.79,14.79,0,0,1,2.15-4.34c.14-.09.16-.18.06-.34a2.34,2.34,0,0,0-1.67-.31,1.75,1.75,0,0,1-.56,0c-.1,0-.22,0-.25,0s-.07.07-.1,0a.14.14,0,0,0-.19,0,.21.21,0,0,1-.2,0,8.53,8.53,0,0,0-1.75,0,1,1,0,0,1-.46,0,12.6,12.6,0,0,0-1.62.11L41,20.36a39.63,39.63,0,0,0-4.84.66c-1.2.3-1.59.36-1.69.2-.4-.56-2.2-2.9-2.47-3.22a6.55,6.55,0,0,1-.45-.59c-.07-.1-.66-.9-1.33-1.78s-1.49-2-1.84-2.45l-1.4-1.87c-.43-.55-1.06-1.39-1.41-1.86s-1-1.31-1.4-1.86L22.77,5.82c-.42-.55-.66-.78-.85-.83a6.07,6.07,0,0,1-1.87-1.62A12.14,12.14,0,0,0,19,2.31a6.68,6.68,0,0,1-.57-.49,6.73,6.73,0,0,0-2-1.64A3.09,3.09,0,0,1,16,0a.32.32,0,0,0-.21,0ZM17,1.45c.08-.05.2.07.4.34a3.53,3.53,0,0,0,.54.62l.87.7a7.55,7.55,0,0,1,.81.79,18.53,18.53,0,0,0,1.69,1.74,7.4,7.4,0,0,1,.66.72,3,3,0,0,0,.66.62c.17.1.32.23.32.28a6.6,6.6,0,0,0,.72,1c.39.5,1.4,1.83,2.22,3,2.27,3,2.55,3.42,2.68,3.52a8.42,8.42,0,0,1,.73.94c.77,1.06,1.57,2.11,1.88,2.49.14.16.49.63.8,1.06s.78,1,1,1.37a4.8,4.8,0,0,1,.56.85l.09.24-1,.28a3.51,3.51,0,0,1-1.16.17,6.69,6.69,0,0,1-1.06-1.26c-1.9-2.53-2.46-3.25-3.2-4.23-.46-.6-1-1.23-1.12-1.41a6.06,6.06,0,0,1-.6-.74c-.43-.62-1.76-2.42-2.08-2.8-.51-.6-1.06-1.33-1.56-2h0C21.05,8.5,19,5.44,18.77,5.05L18,3.59c-.31-.6-.65-1.23-.74-1.4s-.21-.4-.27-.49a.17.17,0,0,1,0-.24Zm13.7,22.17a6.37,6.37,0,0,1,1.77-.78,8.76,8.76,0,0,0,1.19-.4,8.67,8.67,0,0,1,1.25-.4c.51-.12,1.14-.29,1.39-.38a11.15,11.15,0,0,1,2.15-.39c.18,0,3.11-.35,4.21-.5a14.55,14.55,0,0,1,1.66-.06h1.57l.81,0,.67,0a1.81,1.81,0,0,1,.57,0c.27.07.28.08.11.27a4.87,4.87,0,0,0-.71,1.28,3.33,3.33,0,0,1-.25.5c-.06.08-.34.74-.64,1.48s-.63,1.56-.76,1.83l-.3.66a13.82,13.82,0,0,1-.92,1.69,2.35,2.35,0,0,0-.34.67,1.54,1.54,0,0,1-.26.53,2.14,2.14,0,0,0-.56.89c0,.06,0,.09-.05.09a1.87,1.87,0,0,0-.5.43c-.22.24-.56.58-.76.76a2.33,2.33,0,0,0-.41.42,1.41,1.41,0,0,1-.25.29c-.12.09-.57.49-1,.87l-.93.79c-.08,0-.6.43-1.17.85a8.26,8.26,0,0,1-2,1.15,9,9,0,0,1-3.06.73,2,2,0,0,0-.54,0,2.08,2.08,0,0,1-1.35-.45,1.82,1.82,0,0,0-.56-.39c-.2-.08-.58-.25-.86-.39a2.27,2.27,0,0,1-1.2-1.92,3,3,0,0,0-.08-1.08,2,2,0,0,1-.15-.84,7.77,7.77,0,0,0-.06-1c-.05-.49-.09-1.14-.09-1.44a7.42,7.42,0,0,0,0-.79,3,3,0,0,1,.24-1.83,5.05,5.05,0,0,0,.18-.55,7.05,7.05,0,0,1,.76-1.5c.34-.56.43-.64,1.27-1.14Zm-5.65,5.76c.07,0,.09,0,.05.16a.66.66,0,0,0,0,.28,9.32,9.32,0,0,1-.24,1.48,9.4,9.4,0,0,0-.22,1.49c0,.05,0,.15-.07.23a1.61,1.61,0,0,0-.12.72,9.05,9.05,0,0,1-.84,3.06,3.67,3.67,0,0,0-.33,1c0,.09,0,.16-.08.16a3.61,3.61,0,0,0-.78,1.19,1.3,1.3,0,0,1-.38.43,1.61,1.61,0,0,0-.43.5,4.09,4.09,0,0,1-.87.79c-.75.57-.85.62-1.21.62h0a.87.87,0,0,1-.52-.17c-.4-.46-.08-2.62.62-4.33a16.13,16.13,0,0,1,1.23-2.63,2.77,2.77,0,0,0,.28-.54,28.75,28.75,0,0,1,1.93-2.47c.22-.25.6-.63.83-.85s.57-.54.74-.71a2,2,0,0,1,.42-.4Zm-15.87,17A27,27,0,0,1,14,43.77a11,11,0,0,0,1.68-.85,2.1,2.1,0,0,1,1.44-.49c2.71-.08,2.87-.1,3.48-.35A4.91,4.91,0,0,1,23.43,42a14.58,14.58,0,0,1,4.47,1.32,2.07,2.07,0,0,0,.62.29,10.75,10.75,0,0,1,1,.4,1.89,1.89,0,0,0,.67.22s.12,0,.16.08.12.12.16.1a6.05,6.05,0,0,1,1.75.81c.56.3,1,.84.94,1.14a7.49,7.49,0,0,1-2,1.38,4.34,4.34,0,0,0-.95.45,3.39,3.39,0,0,1-.91.41,3.12,3.12,0,0,0-.74.27,3.48,3.48,0,0,1-.69.29,1.12,1.12,0,0,0-.31.1c-.6.25-1.22.47-1.84.66a3.55,3.55,0,0,0-1,.49,1.6,1.6,0,0,1-.56.3,6.68,6.68,0,0,0-1.2.59,10.54,10.54,0,0,1-.94.5,3.1,3.1,0,0,0-.57.3c-.23.13-.46.26-.7.37a13.1,13.1,0,0,0-1.15.63,8.58,8.58,0,0,1-1,.56A20.46,20.46,0,0,0,16,55.08a3.21,3.21,0,0,1-.82.43,5.16,5.16,0,0,0-1.34.45,3.54,3.54,0,0,1-1.61.25,4,4,0,0,0-2.39.59,5.62,5.62,0,0,1-.78.38H9a6.09,6.09,0,0,1-1.16-2c-.19-.56-.25-.73-.51-1.41A2.35,2.35,0,0,1,7.16,53a.57.57,0,0,0,0-.29,1.34,1.34,0,0,1-.1-.44,1.38,1.38,0,0,0-.14-.5.81.81,0,0,1-.12-.36,4.53,4.53,0,0,0-.42-1.7c-.05,0-.06-.06,0,0s.12-.17.12-.4.12-.54.63-1.18a7.09,7.09,0,0,1,2.13-1.76ZM44.52,30.17a4.13,4.13,0,0,1,1.58-.43,9.21,9.21,0,0,1,2.34-.18l1.18,0a17.72,17.72,0,0,1,3.54.76,4.08,4.08,0,0,0,.89.25c.15,0,.25,0,.21,0s.19.14.51.25a2.56,2.56,0,0,1,.63.29,3.14,3.14,0,0,0,.5.38c.43.28.64.41,1.18.72a6,6,0,0,1,3.09,3.78,14,14,0,0,1,.38,2.33c0,.88-.53,1.66-1.83,2.53a8.74,8.74,0,0,1-1.53.84,2.85,2.85,0,0,0-.68.33,1.06,1.06,0,0,1-.43.23c-.25.09-.49.19-.73.3a23.66,23.66,0,0,1-2.58,1,11.28,11.28,0,0,0-3,1.6,21.65,21.65,0,0,0-4.21,3.22A10.68,10.68,0,0,1,43,50.21a3.72,3.72,0,0,1-2.53-.8,24.24,24.24,0,0,1-2.67-2.5,8.4,8.4,0,0,1-1.54-2.28,4.43,4.43,0,0,0-.23-.73,3.28,3.28,0,0,1-.2-.82.79.79,0,0,0-.1-.4,7.19,7.19,0,0,1-.18-1.45c0-.46-.07-.92-.14-1.37a7.52,7.52,0,0,1,.08-1.71c.1-.84.28-1.08,1.1-1.46A19.26,19.26,0,0,0,41,33.78c1-.94,1-.89,1.07-1a2.87,2.87,0,0,1,.56-.54,1.87,1.87,0,0,0,.51-.54c0-.06.11-.18.24-.27a1.06,1.06,0,0,0,.34-.39,2.59,2.59,0,0,1,.76-.85ZM14,56.85a2.25,2.25,0,0,1,.93-.42,4.43,4.43,0,0,0,1.3-.66c.6-.37,1.44-.84,1.86-1s1.08-.55,1.46-.76a10.2,10.2,0,0,1,1-.52c.16-.07.64-.33,1.08-.57.74-.43,2.52-1.37,3.14-1.67l1.3-.6a23.6,23.6,0,0,1,2.3-.73,3.38,3.38,0,0,0,.63-.23c.14-.09.67,0,1.67.36.26.09.57.18.67.2a.43.43,0,0,1,.21.09s.5.28,1.07.57a9.64,9.64,0,0,1,2.06,1.41,5.25,5.25,0,0,1,1.63,1.93,10.42,10.42,0,0,1,.61,1.14,3.11,3.11,0,0,0,.28.62,4.85,4.85,0,0,1,.38,1c.06.26.14.54.17.63a5.63,5.63,0,0,1,.14.69,2.65,2.65,0,0,0,.14.62,7.68,7.68,0,0,1-.09,1.17c-.08.6-.15,1.25-.16,1.44a.7.7,0,0,1-.13.42.19.19,0,0,0-.09.15A5.65,5.65,0,0,1,36,64.44a6.51,6.51,0,0,1-3.09,1.43,5,5,0,0,0-.86.25c-.21.1-.63.26-.93.36s-.53.2-.51.23-.05,0-.14,0a5.78,5.78,0,0,0-.92.19l-1.29.34a13,13,0,0,0-2.9,1.14c-1.07.5-2,.91-2.35,1.06a21.07,21.07,0,0,0-2.37,1.32s-.16,0-.29,0-.3-.06-.51.16a1.62,1.62,0,0,1-1,.61,4.15,4.15,0,0,1-1.72,0,2.23,2.23,0,0,0-.57-.3,4.68,4.68,0,0,1-1-.6c-.24-.22-.51-.43-.58-.48a5.46,5.46,0,0,1-.56-.71h0a2.92,2.92,0,0,0-.56-.7c-.07-.07-.14-.15-.13-.2s-.11-.4-.77-1.55-.77-1.36-.77-1.52a2.35,2.35,0,0,0-.23-.57,8.21,8.21,0,0,1-.41-3.07c0-.13.07-.61.12-1.05a3.29,3.29,0,0,1,.45-1.62,1,1,0,0,0,.2-.37,3.61,3.61,0,0,1,.46-.69,5.72,5.72,0,0,0,.37-.49,3.29,3.29,0,0,1,.85-.73ZM49.6,46.16c.79-.5,1.61-1,2-1.19a7.48,7.48,0,0,0,.89-.45A8.4,8.4,0,0,1,54.08,44c.17,0,.32-.1.33-.14s.08-.07.16-.07a2.53,2.53,0,0,0,.6-.11c.43-.12.46-.11.7.23l.27.42s.17.36.34.73a9.12,9.12,0,0,0,1.36,2.26c.11,0,.13.21.08.56l-.08.52-1.06.6c-1.24.7-1.66,1-1.66,1.13s-.27.43-1.4,1.25a6.37,6.37,0,0,0-1.17,1c0,.11-.27.27-.72.47a10.64,10.64,0,0,0-1.06.55,3.18,3.18,0,0,1-1.52.49h0a.46.46,0,0,1-.36-.14l-.35-.65a1.88,1.88,0,0,1-.26-.68c0-.09,0-.19-.06-.2a.45.45,0,0,1-.15-.32c0-.17-.15-.55-.25-.86a5.61,5.61,0,0,1-.23-.8c0-.12-.11-.55-.22-.93-.27-1-.21-1.35.34-1.81s1.24-.9,1.89-1.3ZM21.11,71.37a8.74,8.74,0,0,0,1.62-.87,4.52,4.52,0,0,1,1-.52,3.12,3.12,0,0,0,.77-.34c.36-.19.75-.37.87-.42l.54-.24a5.72,5.72,0,0,1,1.44-.61,3.31,3.31,0,0,0,.68-.2,8.9,8.9,0,0,1,1.22-.35c.38-.07,1.1-.26,1.62-.42A7.73,7.73,0,0,1,32,67.14a.23.23,0,0,0,.22-.1c0-.07.12-.08.15,0s.08.07.12,0,.31-.14.62,0,.78.76.61.77,0,.21.24.46a1.82,1.82,0,0,1,.4,1.19,2.67,2.67,0,0,1-.12,1.19,9.25,9.25,0,0,0-.32.88,3.37,3.37,0,0,1-1.4,1.67c-.69.42-.86.48-1.08.44a.94.94,0,0,0-.65.26s-.06,0-.07-.06-.08-.08-.21,0a1.71,1.71,0,0,1-.67.18,2.61,2.61,0,0,0-.6.14.77.77,0,0,1-.4.07.8.8,0,0,0-.43.1,3.49,3.49,0,0,1-.89.21,11.08,11.08,0,0,0-1.15.21,1,1,0,0,1-.49.07A5.91,5.91,0,0,0,24.1,75a.22.22,0,0,1-.24-.11.65.65,0,0,0-.48-.17,3.25,3.25,0,0,1-.93-.17h0a1.11,1.11,0,0,1-.86-.68,1.51,1.51,0,0,1-.24-.57.5.5,0,0,0-.12-.32,3.13,3.13,0,0,1-.39-1.43c0-.09.16-.17.27-.22ZM57.06,50c-.06-.1.53-.28,1.31-.4a5.94,5.94,0,0,0,.71-.14l.33-.09a1.19,1.19,0,0,0,.32-.1c.44-.08.88-.14,1.33-.18a8.69,8.69,0,0,0,1.23-.18,1.41,1.41,0,0,1,.54,0c.31,0,.71,0,.9,0a9.87,9.87,0,0,1,3.47,1,9.63,9.63,0,0,1,4.4,3.68c.49.92.7,1.34.77,1.53a4,4,0,0,1,.26.9,4.64,4.64,0,0,0,.11.65,12.83,12.83,0,0,1,.16,1.64,7.85,7.85,0,0,0,.1,1.19.11.11,0,0,1,0,.14,2.49,2.49,0,0,0-.07.77,4.86,4.86,0,0,1-.19,1.26c-.1.29-.24.73-.3,1a2.59,2.59,0,0,1-.76,1.39.59.59,0,0,0-.26.32c0,.13-.06.14-.13,0s-.19-.06-.56.19a1.87,1.87,0,0,0-.5.43c0,.06-.1.1-.2.08s-.32.19-.7.66a3.14,3.14,0,0,1-.6.66s-.16.16-.27.38a2.11,2.11,0,0,1-.33.49,12.05,12.05,0,0,0-1.37,1.74c0,.06-.12.11-.29.11a.54.54,0,0,0-.39.1,1.83,1.83,0,0,1-.59.26,1.27,1.27,0,0,0-.55.26c0,.06-.07.07-.1,0s-.24,0-.47.12a3.8,3.8,0,0,1-1,.29,13.86,13.86,0,0,1-2.87.25,10.38,10.38,0,0,1-1.25-.13.91.91,0,0,0-.43-.05,4.62,4.62,0,0,1-2-.58c-.44-.23-.9-.45-1-.48a17.68,17.68,0,0,1-2.24-1.71,11.88,11.88,0,0,1-1.48-1.61h0a5.94,5.94,0,0,1-1.49-2.68,17.94,17.94,0,0,1-.78-4.93,9,9,0,0,1,.7-3.4.84.84,0,0,0,.2-.4c0-.06.24-.26.55-.47s.86-.51,1.17-.72a10.83,10.83,0,0,0,1-.75c.24-.22.5-.41.58-.47a23.37,23.37,0,0,0,3-2.1ZM29,75a.52.52,0,0,1,.24,0,7.24,7.24,0,0,0,1.67-.31c.1-.06.06,0-.07.15a8.48,8.48,0,0,1-1.44.94h0c-.08,0-.3-.33-.25-.44s0-.13-.08-.19S29,75,29,75Zm4.68-1.21c0-.06,0-.08.11-.08a4.19,4.19,0,0,0,1.1-.5,16.59,16.59,0,0,1,1.53-.74c.34-.12,1.07-.39,1.63-.61a12.79,12.79,0,0,1,1.23-.42,11,11,0,0,1,2.8-.39,3.43,3.43,0,0,1,2,.5,7.28,7.28,0,0,1,1.19.67,2,2,0,0,0,.33.24,1.44,1.44,0,0,1,.32.23c.1.11.52.49.94.84a12.57,12.57,0,0,1,1,.91l.54.6a3.33,3.33,0,0,1,.9,2.28,4.25,4.25,0,0,1-1.17,1.89,2.88,2.88,0,0,0-.49.55,1.24,1.24,0,0,1-.23.32l-.52.61-.34.41-1.41-.29c-.78-.16-1.73-.32-2.12-.35a27,27,0,0,0-3.92.08c-.51,0-1.08.1-1.27.09a19.33,19.33,0,0,0-3.08.79c-.15,0-.3.06-.33,0a1,1,0,0,1,.1-.78,1.2,1.2,0,0,0,.18-.4,8,8,0,0,1,.8-1.6,6.54,6.54,0,0,1,2.21-1.87,3.12,3.12,0,0,1,1.66-.45,4.36,4.36,0,0,0,.62,0,1.89,1.89,0,0,1,.58,0l.93.14a8.78,8.78,0,0,1,1.42.39c.47.19.93.35,1,.38a1,1,0,0,1,.28.17c.22.24.37.3.54.19a.28.28,0,0,0,.13-.27A1.55,1.55,0,0,0,44,76.6a2.57,2.57,0,0,1-.6-.23,6.06,6.06,0,0,0-1.23-.52A6.32,6.32,0,0,0,40,75.69c-.08,0-.16,0-.19,0a.81.81,0,0,0-.47,0l-.79.1a6.81,6.81,0,0,0-2.25.92.3.3,0,0,1-.21.17,5.57,5.57,0,0,0-1.17,1.3,1.82,1.82,0,0,1-.29.38.1.1,0,0,0,0,.14s0,.16-.12.26a1.26,1.26,0,0,0-.24.46,1.36,1.36,0,0,1-.18.43.3.3,0,0,0-.06.26.18.18,0,0,1-.09.2,4.41,4.41,0,0,0-.44,1.28c-.15.65-.34,1.35-.42,1.57a5.8,5.8,0,0,0-.24.84,1.94,1.94,0,0,1-.25.64,1.88,1.88,0,0,0-.27.55,10.91,10.91,0,0,1-.47,1.12,8.8,8.8,0,0,0-.42,1,8.4,8.4,0,0,1-.58,1.43,1,1,0,0,0-.15.38,10.18,10.18,0,0,1-1.26,2.23c-.88,1.41-1.35,2-1.68,1.9-.1,0-.2,0-.21.06s-1.33.28-1.84.16a1.71,1.71,0,0,0-.81,0,1,1,0,0,1-.63-.07c-.2-.09-.58-.25-.85-.35a8.93,8.93,0,0,1-.83-.39,2.88,2.88,0,0,1-1.06-1.72c-.15-.5-.19-.89-.1-.94a16.71,16.71,0,0,0,.64-3c0-.06-.14-.06-.22,0s0-.7.36-1.23.57-1,.82-1.55a7.76,7.76,0,0,1,.9-1.23l.55-.71a18.28,18.28,0,0,1,3.57-4,7.6,7.6,0,0,0,.85-.75,3.87,3.87,0,0,1,.54-.46c.24-.18.46-.37.68-.57a7.39,7.39,0,0,1,.85-.62c.38-.22.77-.5.89-.58l.35-.23,1.56-1a.13.13,0,0,0,0-.17Zm.27,9a2.24,2.24,0,0,1,.55-.35,10.08,10.08,0,0,1,3.8-1.09,4.09,4.09,0,0,0,.78,0,18.63,18.63,0,0,1,3.08-.11s.08,0,.13,0a15.72,15.72,0,0,1,4.39,1,5.47,5.47,0,0,1,3.37,2.74,4.82,4.82,0,0,1,1,2.06c.1.45.23,1,.28,1.23a10.92,10.92,0,0,1,.08,4,10.8,10.8,0,0,1-2.55,5,3,3,0,0,0-.49.51,2.9,2.9,0,0,1-.78.82l-1,.87a4.29,4.29,0,0,1-.8.6s-.15.08-.23.19a.58.58,0,0,1-.22.2,8.25,8.25,0,0,0-.93.49A17.81,17.81,0,0,1,42.1,102a3.78,3.78,0,0,0-.75.44.57.57,0,0,1-.48.18,1.46,1.46,0,0,0-.68.17,4.45,4.45,0,0,1-.85.28,2.45,2.45,0,0,0-.54.18c-.1.06-.19.08-.21,0a3.13,3.13,0,0,0-1.28.27,1.26,1.26,0,0,1-.64.07,3.29,3.29,0,0,0-.7,0,15.27,15.27,0,0,1-1.66-.14,6.73,6.73,0,0,0-1.27-.1s-.08,0-.08,0-.16-.14-.34-.19a11.13,11.13,0,0,1-3.72-2.31h0A10.76,10.76,0,0,1,27,98.24a10.31,10.31,0,0,0-.52-1.18,9.38,9.38,0,0,1-.6-1.55c0-.17-.06-.33-.1-.5a1.86,1.86,0,0,1,.16-.74,1.76,1.76,0,0,1,.46,0,1.06,1.06,0,0,0,.56,0,.41.41,0,0,1,.3-.07,4.37,4.37,0,0,0,1.82-1.26,19.76,19.76,0,0,0,2.62-4.4c.16-.45.53-1.38.83-2.07A4.75,4.75,0,0,0,33,85.06c0-.07,0-.13,0-.13a5,5,0,0,0,.76-1.71.94.94,0,0,1,.2-.43ZM71.19,65.34a14.51,14.51,0,0,1,1.28-.72A10.62,10.62,0,0,1,74,64.24c.17,0,.61-.1,1-.17.76-.17,1.34-.28,2.56-.48a8.24,8.24,0,0,0,1-.24l.13,0a.37.37,0,0,0,.14,0,5.06,5.06,0,0,1,1.45.09A3.93,3.93,0,0,1,81,65a4.31,4.31,0,0,0,.27.76c.21.44.21.47-.06.56l-.38.13a12.68,12.68,0,0,1-2.53.18,6.87,6.87,0,0,0-2.7.4,6,6,0,0,1-.71.26A10.1,10.1,0,0,0,71.83,69c-.16.14-.47.39-.69.56s-.62.53-.88.77l-.65.6-.38.38c-.3.31-2.46,3-2.7,3.4-.1.16-.29.41-.4.55s-.26.35-.33.45a6.76,6.76,0,0,1-.54.64,7.25,7.25,0,0,0-.81,1.1,2.65,2.65,0,0,1-.33.42c-.07,0-.07.08,0,.11s0,.13-.19.23-.44.38-.65.58-.51.49-.79.72-.46.33-.87.26-.52-.08-.6-.57,0-.68.66-1.33a4.82,4.82,0,0,0,.78-.91A8.57,8.57,0,0,1,63,76c.23-.31.37-.59.31-.61s-.06-.05,0-.08a1.53,1.53,0,0,0,.27-.3,1.5,1.5,0,0,1,.34-.37.33.33,0,0,0,.17-.23,1.63,1.63,0,0,1,.36-.51c.2-.22.35-.44.32-.48s0-.1.09-.15a5,5,0,0,0,.59-.8,7.37,7.37,0,0,1,.7-1,1.69,1.69,0,0,0,.37-.58,1,1,0,0,1,.26-.42.55.55,0,0,0,.18-.24.67.67,0,0,1,.19-.3,6.63,6.63,0,0,0,.49-.69A14.68,14.68,0,0,1,69,67.46a.13.13,0,0,0,.06-.16.08.08,0,0,1,0-.12h0a3.92,3.92,0,0,0,.55-.6,4.84,4.84,0,0,1,1.54-1.23Zm2,3.63a8.22,8.22,0,0,1,4.69-1.54l1.82,0,.9,0-.65.36c-1.55.85-2,1.08-2.5,1.38a6.85,6.85,0,0,1-.71.37,21.57,21.57,0,0,0-3.56,3,3.68,3.68,0,0,1-.4.39,1.94,1.94,0,0,0-.4.41,11,11,0,0,1-.71,1A8.31,8.31,0,0,0,71,75.61a.75.75,0,0,1-.18.28,5,5,0,0,0-.51.9,5.76,5.76,0,0,1-.48.88,6.52,6.52,0,0,0-.72,1.22c0,.2-.33.86-.37.8s0,0,0,.13a4.59,4.59,0,0,1-1.52,1.78c-.51.34-.51.34-1.32.13a5.62,5.62,0,0,1-2.18-1.1.81.81,0,0,0-.32-.21h0c-.47-.18-.42-.3.4-1a2.75,2.75,0,0,0,.44-.53,1.44,1.44,0,0,1,.23-.32.14.14,0,0,0,.12-.07l.15-.16c.06-.07.41-.48.76-.93a8.39,8.39,0,0,1,.78-.9,1.29,1.29,0,0,0,.28-.37,7.42,7.42,0,0,1,1.08-1.47,6.72,6.72,0,0,0,.63-.78,6.1,6.1,0,0,1,.58-.76,11,11,0,0,0,.71-.94,6,6,0,0,1,.45-.58c.09-.07.27-.24.41-.37a1.81,1.81,0,0,0,.3-.32A19.21,19.21,0,0,1,73.19,69Zm.8,4.55a5.56,5.56,0,0,1,1.27-.8,13.17,13.17,0,0,1,6.56-1l1.4.22,1.56.23a1.42,1.42,0,0,1,.57.15c.07.1-.7.5-1,.53a2.7,2.7,0,0,0-.69.18l-1.1.4a23.77,23.77,0,0,0-5.81,3.27c-.3.23-.79.62-1.09.84A16.21,16.21,0,0,0,73,80.42a11.33,11.33,0,0,1-.74.94.27.27,0,0,0-.13.21.41.41,0,0,1-.19.25,2.73,2.73,0,0,0-.47.49c-.15.2-.51.63-.81,1s-.57.7-.63.78-.17.27-.27.41l-.32.47c-.08.11-.22.3-.31.4s-.14.22-.11.26a.12.12,0,0,1-.06.16,4.43,4.43,0,0,0-.51.79c-.23.39-.48.81-.56.93h0c-.2.27-.24.2-.24-.36,0-.24,0-.81,0-1.27a11,11,0,0,1,0-1.11c.1-.74.1-.85.06-.91a4.43,4.43,0,0,1,.1-.9,2.33,2.33,0,0,1,.69-1.47,8.56,8.56,0,0,0,1.21-2.12,5,5,0,0,1,.47-.73,5.68,5.68,0,0,0,.54-.92,4.73,4.73,0,0,1,.41-.81c1-1.55,1.22-1.92,1.4-2a1.13,1.13,0,0,0,.41-.37,5,5,0,0,1,1-1ZM34.28,104.31a1.34,1.34,0,0,1,.4,0,17.38,17.38,0,0,0,2.29.14,14.43,14.43,0,0,0,2-.43c.09,0,.6-.17,1.15-.3a5.46,5.46,0,0,0,1.37-.49A2.44,2.44,0,0,1,42,103a4.53,4.53,0,0,0,.87-.39,8.08,8.08,0,0,1,.79-.37,16,16,0,0,0,1.63-1,18.92,18.92,0,0,0,3.42-2.75c.88-.87,1-1,1.56-1a5.79,5.79,0,0,1,1,0l1.06.13a9,9,0,0,1,1.53.39l1.28.42a1.14,1.14,0,0,1,.36.15,3.07,3.07,0,0,0,.5.2l.65.19a6.82,6.82,0,0,1,1.51.91,1.22,1.22,0,0,1-.57,0,29.1,29.1,0,0,0-3.1.11c-.06,0-1.57.27-2.29.35a2.23,2.23,0,0,0-.57.12,2.82,2.82,0,0,1-.7.15,2.57,2.57,0,0,0-.86.24c-.17.11-.33.14-.42.08a.29.29,0,0,0-.31,0,1.2,1.2,0,0,1-.49.14,3.89,3.89,0,0,0-1.31.28.9.9,0,0,1-.42.1,4.89,4.89,0,0,0-1.79.62.32.32,0,0,1-.32.1c-.18,0-.62.13-1.6.66a7.2,7.2,0,0,1-1.18.5A5.75,5.75,0,0,0,41,104a3.49,3.49,0,0,1-.81.43,20,20,0,0,0-2.65,1.81,5.74,5.74,0,0,0-1.21,1,1.71,1.71,0,0,1-.35.36c-.32.31-.62.63-.91,1s-.49.55-.76.81a4.25,4.25,0,0,0-.53.73,12.7,12.7,0,0,1-.77,1.12,3.23,3.23,0,0,0-.42.72.63.63,0,0,1-.19.31,1.33,1.33,0,0,0-.28.43,1.39,1.39,0,0,1-.21.4c-.08,0-.17-.07-.15-.18a.54.54,0,0,0,0-.22,1.77,1.77,0,0,1-.08-.4c0-.15,0-.26-.06-.24a1.54,1.54,0,0,1-.19-.54c-.08-.31-.3-1-.49-1.54a4.54,4.54,0,0,1-.3-1.26,11.59,11.59,0,0,1,1.55-2.63,10.4,10.4,0,0,1,2.12-1.74ZM78.41,76.25a19.4,19.4,0,0,0,2.46-1.32,12.17,12.17,0,0,1,2.8-1.13,13.76,13.76,0,0,0,1.78-.48l1.1-.38.92-.31.26.53a11.28,11.28,0,0,0,1.89,2.66c.42.41.56.76.46,1.07,0,.12-.29.29-.73.5s-.83.42-1,.54-.36.17-.39.13a5.21,5.21,0,0,0-1.91.43,13.2,13.2,0,0,0-1.51.74,5.16,5.16,0,0,1-.94.47,2,2,0,0,0-.48.2l-.94.5a23.22,23.22,0,0,0-3.78,2.32,7.91,7.91,0,0,1-.61.52,4.62,4.62,0,0,0-1.1,1.06,1.14,1.14,0,0,1-.35.34,2.62,2.62,0,0,0-.89,1.16c-.11.22-.22.38-.25.34s-.58.59-1.18,1.56c-.24.39-.55.88-.69,1.08a2.88,2.88,0,0,1-1.55,1.15,1.85,1.85,0,0,0-.6.2,1.48,1.48,0,0,1-.54.17,4.36,4.36,0,0,0-.79.2c-.26.09-.5.18-.57.19a4.44,4.44,0,0,1-.63,0c-.39,0-.57-.06-.66-.2-.17-.3-.25-.56-.17-.61a1,1,0,0,0,0-.45,1.49,1.49,0,0,1,.36-1,4.19,4.19,0,0,0,.46-.86c0-.14.11-.27.18-.29a.33.33,0,0,0,.17-.25c0-.12.09-.21.14-.2s.06,0,0-.09,0-.11,0-.11.12-.09.13-.2a1.28,1.28,0,0,1,.28-.51,4.27,4.27,0,0,0,.3-.44,12.18,12.18,0,0,1,.89-1.15c2.22-2.67,2.69-3.24,3-3.71a13.5,13.5,0,0,1,3.11-3.11,10.18,10.18,0,0,0,1.22-1.06c.1-.13.22-.25.28-.25ZM81,82.32a7.94,7.94,0,0,1,1.8-1c.25-.1.66-.27.9-.4a10,10,0,0,1,.93-.41l.72-.27a4.13,4.13,0,0,1,.5-.15c.16,0,.26-.09.24-.13s0,0,.16,0a1.47,1.47,0,0,0,.59,0,2.44,2.44,0,0,1,.46-.07,6.48,6.48,0,0,0,1.46-.08,21,21,0,0,1,4.55-.1c.16,0,.64.12,1.06.17a3.39,3.39,0,0,1,1.19.35A4.58,4.58,0,0,1,97.6,82.3c.76,1.17,1.32,2.36,1.16,2.47s0,.18.06.35a6.75,6.75,0,0,1-.44,4c-.14.21-.38.59-.53.84s-.41.54-1.39,1.15a13.94,13.94,0,0,1-2.86,1.44c-.26.1-.63.26-.84.36a6.26,6.26,0,0,1-.66.31c-.16.07-1,.57-1.77,1.07A9.07,9.07,0,0,0,88.1,96c-.41.43-.79.85-.84.92a2.73,2.73,0,0,1-.34.34,5.67,5.67,0,0,0-.5.48,2.32,2.32,0,0,1-.67.49c-.33.15-.42.25-.44.41a1,1,0,0,1-.38.51,15.78,15.78,0,0,0-1.88,1.68.77.77,0,0,1-.28.24.1.1,0,0,0-.08.14c0,.11,0,.13,0,0s-.24,0-.59.22a3.75,3.75,0,0,1-2.32.45,4.85,4.85,0,0,0-.85,0,3.12,3.12,0,0,1-1.28-.22.6.6,0,0,0-.25-.13,6.35,6.35,0,0,1-.91-.53,4,4,0,0,1-1.62-1.87A9.12,9.12,0,0,1,74.05,97a1.45,1.45,0,0,0-.13-.45,1.06,1.06,0,0,1-.06-.5.58.58,0,0,0,0-.32,1.23,1.23,0,0,1,0-.54c0-.24,0-.42,0-.4s0-.17.09-.43a5,5,0,0,0,.2-1,6.2,6.2,0,0,1,.46-2A.25.25,0,0,0,74.6,91a13.16,13.16,0,0,1,1.32-3A15.39,15.39,0,0,1,77,86.6a12.38,12.38,0,0,0,.78-1,2.05,2.05,0,0,1,.46-.47,5.63,5.63,0,0,0,1.43-1.45A5.52,5.52,0,0,1,81,82.33ZM44.31,108.77a6.34,6.34,0,0,1,1.5-.68s.07.1.1.2,0,.23-.4.39l-.89.41c-.3.14-.47.16-.56.07s-.06-.19.26-.39Zm-1.65,2.46a15.22,15.22,0,0,1,2.09-1.16c.46-.2,1.07-.48,1.35-.63a8.4,8.4,0,0,1,2.63-.78,2.15,2.15,0,0,0,.62,0,.72.72,0,0,1,.41,0,.67.67,0,0,0,.37,0,4,4,0,0,1,.84.06,8,8,0,0,0,1,.09,1.21,1.21,0,0,1,.5.07,4.88,4.88,0,0,0,.65.2,16.64,16.64,0,0,1,2.95,1.1A11.3,11.3,0,0,1,57,111a2.16,2.16,0,0,0,.7.53.08.08,0,0,1,.1.06v0a5.8,5.8,0,0,0,1.18.85,15.15,15.15,0,0,1,1.56,1.1,5.5,5.5,0,0,0,.69.57c.25.18.28.23.19.29a.37.37,0,0,1-.36-.07c-.18-.11-.36-.09-.84.09a1.47,1.47,0,0,1-.65.18c-.06-.09-.63,0-.68.13s-.13.05-.24,0a3.63,3.63,0,0,0-1.54,0,1.45,1.45,0,0,1-.51,0,.46.46,0,0,0-.31,0,.26.26,0,0,1-.27,0,9,9,0,0,0-3.18.43.06.06,0,0,1-.11,0c-.07-.11-.7,0-.92.18s-.17.08-.2,0a.5.5,0,0,0-.32,0,2.05,2.05,0,0,1-1.36.1c-.25-.14-.48-.08-.47.12s-.17.18-.43.28-.47.19-.53.2a2.78,2.78,0,0,1-1.43.17c-.18-.11-.3-.06-1.18.48a13.07,13.07,0,0,1-2.06,1.09c-.21.1-1,.59-1.86,1.09-1.1.68-1.48,1-1.48,1.07s0,.12-.08,0-.25,0-1,.57a7,7,0,0,1-2,1.27A1.17,1.17,0,0,0,37,122c-.16.17-.8.28-2.51.47h0a.9.9,0,0,1-1-.75.89.89,0,0,1,.08-.53,3.22,3.22,0,0,0,.23-.5.76.76,0,0,1,.13-.29,9.82,9.82,0,0,0,1.21-1.85.79.79,0,0,1,.18-.22c.21-.21.41-.44.6-.67a4.47,4.47,0,0,1,.6-.63.52.52,0,0,0,.2-.24,2.22,2.22,0,0,1,.45-.56c.47-.46.65-.65.63-.68a1.74,1.74,0,0,1,.15-.15c.08-.08.56-.54,1-1s1.08-1,1.33-1.25a8.55,8.55,0,0,0,.7-.65,11.14,11.14,0,0,1,1.66-1.23ZM80.55,93.42c0,.06,0,.13,0,.15s.06,0,.11,0a.11.11,0,0,0,0-.15c0-.07-.08-.05-.11,0Zm.3.5c-.12.08,0,.23.22.19a.55.55,0,0,1,.37.1c.18.14.19.14.15-.07s-.12-.22-.35-.24a.86.86,0,0,0-.39,0ZM47.93,117.13s.41-.15.86-.29c.89-.29,1.05-.24,1.22.45a.59.59,0,0,1-.37.76.62.62,0,0,1-.3,0,.92.92,0,0,0-.46.06.77.77,0,0,1-.45,0c-.34,0-.39-.07-.32-.22a1,1,0,0,0-.1-.45c-.09-.19-.11-.37-.08-.39Zm-5.53,7.49a14,14,0,0,1,1.67-.87c.14,0,.74-.39,1.34-.75a15.15,15.15,0,0,1,4-1.77c.85-.28,1.69-.56,1.85-.64a3.08,3.08,0,0,1,1-.38,15.76,15.76,0,0,0,3.25-.8c.52-.17,1.24-.37,1.59-.46l.77-.19c.06,0,.61-.11,1.23-.19a9.87,9.87,0,0,0,1.44-.26.78.78,0,0,1,.4-.08.3.3,0,0,0,.24,0,1.51,1.51,0,0,1,.46-.13,5.4,5.4,0,0,0,.7-.13,1.32,1.32,0,0,1,.48-.06,2.16,2.16,0,0,1,.21.83c.07.43.16,1,.2,1.18.17,1,.2,1.41.11,1.53a2.69,2.69,0,0,1-1,.22l-2,.2c-.62.06-1.22.13-1.34.16l-.69.18a1.69,1.69,0,0,0-.5.2s-.1.06-.21,0a2.63,2.63,0,0,0-.69.13c-.25.1-.88.29-1.4.44a23.44,23.44,0,0,0-2.39,1c-.81.39-1.54.72-1.63.74-1,.2-4.54,2.71-5.85,4.09l-.94,1c-.26.28-.65.67-.85.89s-.37.38-.64.32a3.53,3.53,0,0,1-.75-.32c-.26-.13-.52-.22-.56-.16s-.09,0-.08,0a4.7,4.7,0,0,0-1.68-.78,5,5,0,0,1-.71-.32c-.71-.44-.93-.64-.88-.79a4.47,4.47,0,0,1,1-1.41c.26-.25.6-.6.76-.78s.35-.37.41-.43a5.49,5.49,0,0,0,.43-.4,7.6,7.6,0,0,1,1.27-.92ZM91,94.82c2.17-1.32,4.08-2.15,4.34-1.88l.4.37a10.08,10.08,0,0,1,1.41,3.58A2.37,2.37,0,0,1,97,98.18a1.74,1.74,0,0,0-.24.62,1,1,0,0,1-.54.82,5.39,5.39,0,0,0-.71.55,1.4,1.4,0,0,1-.44.29.42.42,0,0,0-.22.05,13.9,13.9,0,0,1-1.81.78,7.19,7.19,0,0,0-1.59.68c-.28.15-.63.31-.78.37l-.74.37a2.2,2.2,0,0,1-.56.26,9,9,0,0,1-.83-1.21c-.4-.66-1-1.53-1.24-2h0a6.06,6.06,0,0,0-.6-.81c-.2-.09-.08-.32.47-.89,2.24-2.39,2-2.16,3.84-3.29ZM50,126.49a21,21,0,0,1,2.52-1.44c.36-.14.91-.38,1.23-.53a14.29,14.29,0,0,1,5.06-1.23H60a11.59,11.59,0,0,1,3.25.55l1,.28a15.26,15.26,0,0,1,3.16,1.37,6.94,6.94,0,0,1,2.37,2.17c.18.23.53.63.76.9a14.73,14.73,0,0,1,1.89,3.2,3.22,3.22,0,0,1,.13.87,1.28,1.28,0,0,0,0,.39,8.11,8.11,0,0,1-.44,2.63,2,2,0,0,0-.16.4,2.42,2.42,0,0,1-.4.72,4.27,4.27,0,0,0-.47.67,2.26,2.26,0,0,1-.47.63,1.82,1.82,0,0,0-.36.42,8.31,8.31,0,0,1-1.69,1.66,13,13,0,0,1-2.65,1.15c-.32.08-1.82.3-2.3.35a4.2,4.2,0,0,1-.79.05,3.12,3.12,0,0,0-1.18,0,2.91,2.91,0,0,1-.93,0,3.16,3.16,0,0,0-.87-.06.51.51,0,0,1-.3,0,.62.62,0,0,0-.4.08,4.48,4.48,0,0,1-1.35.3,4.54,4.54,0,0,0-1,.28l-.31.11-3.11,1.11a16.1,16.1,0,0,0-2,1,1.4,1.4,0,0,1-.4.16,4.71,4.71,0,0,0-.73.31,1.24,1.24,0,0,1-.49.2.29.29,0,0,0-.22,0,2.21,2.21,0,0,1-1.27.14.24.24,0,0,0-.27,0,.14.14,0,0,1-.2,0h0s-.09,0-.12,0-.07.08-.07,0-.11-.17-.27-.2a1.73,1.73,0,0,1-1.08-.75h0a1.18,1.18,0,0,0-.38-.42c-.08,0-.13-.09-.11-.14a1.66,1.66,0,0,0-.19-.48,4.37,4.37,0,0,1-.28-2,.87.87,0,0,0-.1-.53c-.1-.21-.14-.41-.1-.44a.11.11,0,0,0,0-.14,3.43,3.43,0,0,1-.07-.78,7.16,7.16,0,0,0,0-.8,2,2,0,0,1,0-.49c.1-.59.13-1,.07-.94s0-.11,0-.3.07-.36,0-.38,0-.08,0-.12.05-.09,0-.11,0-.07,0-.09.13-.76,0-.84-.06,0,0,0a8.58,8.58,0,0,0,.47-2.41,15,15,0,0,1,.69-2.93,1.83,1.83,0,0,0,.25-.65,1.52,1.52,0,0,1,.7-1A31.13,31.13,0,0,1,50,126.49Zm48.9-17.18a2.8,2.8,0,0,1,.7-.38,1.83,1.83,0,0,1,.59.55l.45.56-.72.47a2.13,2.13,0,0,1-.83.4h0a3.37,3.37,0,0,1-.84-1.11,3.31,3.31,0,0,1,.65-.48ZM87.4,118.53l.42-.28,2.65-1.66a32.27,32.27,0,0,1,4.38-2.52c.51-.24,1-.51,1.5-.8a10.89,10.89,0,0,1,1.22-.67c.17-.06,1.12-.59,2.86-1.61.63-.37,1.28-.73,1.43-.8s.87-.46,2.24-1.2c.37-.2,1-.53,1.49-.73a35.44,35.44,0,0,0,3.58-2,19,19,0,0,1,3.28-1.65c.25-.09.65.83.55,1.27a.69.69,0,0,0,0,.4c0,.07,0,.34-.21.6s-.45.55-1.72,1.38a18.61,18.61,0,0,1-1.72,1c-.17.06-.57.24-.89.38a25,25,0,0,1-2.76,1.08,4.58,4.58,0,0,0-1,.41,2.05,2.05,0,0,1-.46.25l-.17,0-.15,0a16.71,16.71,0,0,0-3.19,1.67,29.19,29.19,0,0,0-2.93,2.13,6.72,6.72,0,0,1-.78.63,11.6,11.6,0,0,0-1,.75c-.1.11-.7.55-1.31,1A8.78,8.78,0,0,0,93,119.27c-.9,1-1.38,1.3-2,1.27h-.68a1.78,1.78,0,0,1-1-.49,6.7,6.7,0,0,0-.78-.53v0c-.74-.44-1.25-.88-1.13-1ZM53.85,144.09s.07-.05.11-.08a12.49,12.49,0,0,0,1.44-.54l.63-.2.42-.12.46-.17.46-.17a5,5,0,0,1,1.08-.27,12.73,12.73,0,0,1,2.46-.17,4.69,4.69,0,0,0,1.06,0,4.35,4.35,0,0,1,1,0,11,11,0,0,0,3.13-.34.78.78,0,0,1,.67,0c1.48,1.06,1.59,1.21,1.94,2.55a3,3,0,0,1-.46,2.92,16.38,16.38,0,0,1-3.51,2.45,28.77,28.77,0,0,1-3.54,1.48,1.36,1.36,0,0,0-.6.27.19.19,0,0,1-.23.06.69.69,0,0,0-.46.13,1.55,1.55,0,0,1-.55.22c-.15,0-.26,0-.24.07S57.65,152,57,151.8h0a3,3,0,0,1-1.43-2.15,10.92,10.92,0,0,0-1.2-3.38,1.72,1.72,0,0,1-.25-.65A2.09,2.09,0,0,0,54,145c-.18-.56-.23-.82-.15-.92Zm46.82-30a17.56,17.56,0,0,1,2-1.19,4.83,4.83,0,0,0,.8-.37,5.17,5.17,0,0,1,1-.42,5.21,5.21,0,0,0,.74-.3,4.24,4.24,0,0,1,.84-.31,6.71,6.71,0,0,0,1.43-.55c.2-.09.81-.35,1.36-.57a22.69,22.69,0,0,0,3.42-1.7l.51-.35-.12.66a2.19,2.19,0,0,1-.16.67,2,2,0,0,0-.16.58,3.77,3.77,0,0,1-.16.6,4.41,4.41,0,0,1-.73.08,22,22,0,0,0-3.14.36,10,10,0,0,0-3.6,1.73,15.75,15.75,0,0,0-2.8,2.21,4.18,4.18,0,0,1-.87.7,1.81,1.81,0,0,0-.55.4,6.48,6.48,0,0,1-.66.81,4.15,4.15,0,0,0-1.26,2,.71.71,0,0,1-.09.45,5.84,5.84,0,0,0-.55,2,2.46,2.46,0,0,1-.14.61,10.45,10.45,0,0,0-.74,1.13c-.13.24-.62.55-.69.45s-.18,0-.31,0-.29,0-.32,0a5.92,5.92,0,0,0-.79-.51,17.05,17.05,0,0,1-1.63-1.15h0c-1.1-.89-1.17-1-.9-1.26.12-.12.48-.54.81-.94A7.36,7.36,0,0,1,95,118.46a17.3,17.3,0,0,0,1.52-1.15,5.12,5.12,0,0,1,.49-.44,13.1,13.1,0,0,0,1.76-1.41,20.05,20.05,0,0,1,2-1.35Zm4.3-.61a15.89,15.89,0,0,1,1.84-1c.31-.11.74-.29,1-.38a17.33,17.33,0,0,1,4.71-.41,22.28,22.28,0,0,1,4.1,1.62,10.49,10.49,0,0,1,3.11,3.79c.1.29.33.9.5,1.34a24.35,24.35,0,0,1,.93,3.37,12.11,12.11,0,0,1,.29,2.08,4.21,4.21,0,0,0,0,.5,5.55,5.55,0,0,1-.12,1.72s0,.07,0,.1,0,.17,0,.3-.15.28-.12.32-.1.69-.32,1c-.12.17-.18.35-.14.41a.14.14,0,0,1,0,.16,3.77,3.77,0,0,0-.46.8c-.43.89-.83,1.28-2.34,2.32a6.71,6.71,0,0,1-2.53,1.27.63.63,0,0,0-.39.15,2.11,2.11,0,0,1-.52.26,6.21,6.21,0,0,0-.75.31,6.63,6.63,0,0,1-.88.33,1.14,1.14,0,0,0-.55.24.32.32,0,0,1-.31.08,5.91,5.91,0,0,0-.94,0,3.87,3.87,0,0,1-.9,0,.27.27,0,0,0-.27.06.17.17,0,0,1-.23,0,.26.26,0,0,0-.27,0,.53.53,0,0,1-.35,0,1.37,1.37,0,0,0-.49-.09,4.86,4.86,0,0,1-.93-.23,2.2,2.2,0,0,0-.87-.16.3.3,0,0,1-.3-.07.15.15,0,0,0-.18-.07.11.11,0,0,1-.14,0h0a3.85,3.85,0,0,0-.73-.37,10.44,10.44,0,0,1-2.24-1.47,17.47,17.47,0,0,0-1.4-1.18.87.87,0,0,1-.27-.27h0c0-.07-.22-.3-.4-.5a1.37,1.37,0,0,1-.32-.44,3.13,3.13,0,0,0-.33-.72,14.88,14.88,0,0,1-1.76-5,4.3,4.3,0,0,0-.16-.94.34.34,0,0,1,0-.26,4.48,4.48,0,0,0,.15-.89c0-.41.11-.9.14-1.08a8.54,8.54,0,0,1,1.53-2.56,13.13,13.13,0,0,1,2.18-2.41,11,11,0,0,0,.94-.87,11.87,11.87,0,0,1,1.57-1.14ZM63.1,151.55a4.36,4.36,0,0,1,.42-.23c.3-.16.67-.35.81-.45s.28-.14.56.29a21.09,21.09,0,0,1,1.2,2.31c.16.35.36.79.45,1s.34.73.54,1.22.5,1.12.66,1.4.49,1.1.79,1.82c.58,1.4,1,2.39,1.57,3.76l.66,1.6c.16.38.38.89.49,1.13s.38.86.59,1.38.69,1.66,1.07,2.52.83,1.89,1,2.28a1.77,1.77,0,0,1,.22.95,2.83,2.83,0,0,1-1.63,1,.6.6,0,0,1-.35-.07s-.08-.24-.17-.43c-.15-.39-.77-1.83-1.28-2.94a2.59,2.59,0,0,1-.3-.94,4.33,4.33,0,0,0-.32-1.06l-.55-1.34c-.11-.28-.28-.65-.36-.84s-.61-1.44-.87-2.14c-.14-.36-.54-1.29-.83-1.92-.16-.35-.4-.92-.53-1.27a2.85,2.85,0,0,0-.39-.78.56.56,0,0,1-.15-.32,5,5,0,0,0-.54-1.38c-.06-.13-.23-.5-.37-.83s-.34-.84-.48-1.14-.4-.94-.6-1.43l-.49-1.13c-.05-.13-.26-.57-.45-1a9.12,9.12,0,0,0-.41-.83s0-.1.06-.16Zm53.07-18.09.51-.26c.83-.41,1-.41,1.24,0,.54.79,1.82,2.46,2.53,3.31.31.38,1,1.26,1.46,1.94,1,1.41,1.58,2.24,2.12,2.9l1.1,1.37c1.25,1.59,1.45,1.83,1.58,1.86s.15.6-.11,1.12l-.25.49-.35,0c-.41,0-.4,0-3.56-4.27-.58-.78-1.34-1.78-1.7-2.24s-1-1.25-1.35-1.77-.8-1.07-.93-1.23h0c-.12-.15-.69-.93-1.26-1.72l-1-1.44Z"/></g></g></g></svg>