<svg xmlns="http://www.w3.org/2000/svg" viewBox="0 0 173.87 177.8"><defs><style>.cls-1{fill:#fff;}.cls-2{fill:#fbd196;}.cls-3{fill:#3a2316;}</style></defs><g id="圖層_2" data-name="圖層 2"><g id="圖層_1-2" data-name="圖層 1"><g id="Group_6803" data-name="Group 6803"><path id="Path_70594" data-name="Path 70594" class="cls-1" d="M89.73,177.79H89a74.19,74.19,0,0,1-11.12-1.14c-2.53-.43-4.26-.64-4.82-.67-.5.14-1.32,0-3-.6-7.56-1.53-13.65-5.33-20.09-9.35C48,164.84,46,163.61,44,162.44c-.38-.25-2.79-1.55-6.14-3.29a73.11,73.11,0,0,1-8-4.77c-3.43-2.63-9.72-9.9-12.94-14.95a32.81,32.81,0,0,0-2.6-3.16c-1.86-2-3.5-5.22-7-13.67-.51-1.23-1.73-5.07-2.72-8.56-1.08-3.76-1.92-6.65-2.05-7a12.91,12.91,0,0,1-.46-2.29c-.06-.53-.5-2.51-1-4.52C.15,96.72-.26,89.83.17,84.52.74,77.42,4.8,56.05,6.44,54a28.5,28.5,0,0,0,1.21-3.23c1.7-5.23,5.52-12.78,8.19-16.14.78-1,2.42-3.07,3.65-4.64A105.69,105.69,0,0,1,31,18.31C41.3,10,51.34,4.37,59.31,2.48a32.48,32.48,0,0,1,8-1.14,24.34,24.34,0,0,0,4.87-.7l.13,0C74.44.33,76.75.13,79.16,0h0a103,103,0,0,1,53.78,13.48c12.44,7.27,21.56,16.93,26.39,28,.52,1.29.65,1.51,4.53,7.72s7.76,14.9,8.54,19.06c2,7.46,1.54,13.49,1.07,19.88-.12,1.55-.23,3.13-.31,4.75-.23,4.59-.74,11.93-1.23,13.37-.32,1-1.07,3.31-1.65,5.16a80.67,80.67,0,0,1-6.27,15c-2.48,4.5-3,5.23-7.77,11.18-4.36,5.44-7.51,10.19-7.76,11.06a4,4,0,0,1-1.93,2.35,5.37,5.37,0,0,0-1.37,1.14,130.52,130.52,0,0,1-11.51,10.42,44,44,0,0,1-5.75,3.51,38.28,38.28,0,0,0-4.82,2.87c-2.24,1.72-12.95,5.26-17,5.85a12.14,12.14,0,0,0-2.6.61,43.52,43.52,0,0,1-5.6,1.58A35.88,35.88,0,0,1,89.73,177.79Zm-16.14-2.16-.06.06.06-.06Zm-.67-2.27a38.39,38.39,0,0,1,5.35.7A70.2,70.2,0,0,0,89,175.16a33.94,33.94,0,0,0,8.29-.78,47.36,47.36,0,0,0,5-1.35,13.59,13.59,0,0,1,3.44-.88c4.17-.6,14.22-4.1,15.83-5.33a39.58,39.58,0,0,1,5.23-3.14,40.78,40.78,0,0,0,5.33-3.25,132.08,132.08,0,0,0,11-10,7.76,7.76,0,0,1,2.2-1.83,1.65,1.65,0,0,0,.6-.63c.4-1.8,5.28-8.38,8.27-12.1,4.69-5.85,5.11-6.45,7.52-10.82a78.38,78.38,0,0,0,6.06-14.47c.58-1.86,1.34-4.2,1.67-5.2a109.74,109.74,0,0,0,1.09-12.67c.08-1.65.2-3.25.31-4.82.46-6.18.89-12-1-19.05l0-.11c-.69-3.8-4.51-12.3-8.19-18.19-4-6.41-4.13-6.63-4.72-8.1-4.59-10.47-13.34-19.72-25.3-26.7A100.27,100.27,0,0,0,79.26,2.66c-2.3.09-4.51.27-6.57.55A26.57,26.57,0,0,1,67.16,4,30,30,0,0,0,59.92,5c-7.49,1.78-17.41,7.35-27.21,15.28A103.27,103.27,0,0,0,21.56,31.59L17.9,36.24c-2.47,3.11-6.16,10.41-7.75,15.32a21.88,21.88,0,0,1-1.64,4C7.4,57.38,3.42,76.84,2.79,84.73c-.4,5,0,11.6.85,14.8a48.63,48.63,0,0,1,1.12,4.92,10,10,0,0,0,.34,1.71c.22.66,1.78,6.08,2.09,7.16,1,3.7,2.2,7.27,2.62,8.28,3.31,8,4.89,11.15,6.49,12.9A34.88,34.88,0,0,1,19.19,138c3,4.76,9.13,11.84,12.32,14.28a71.16,71.16,0,0,0,7.6,4.53c1.91,1,5.69,3,6.3,3.38,2,1.15,4,2.4,5.9,3.59,6.26,3.91,12.18,7.6,19.31,9l.21.06a10,10,0,0,0,1.61.5l.48,0Z"/></g><g id="Group_6792" data-name="Group 6792"><path id="Path_70592" data-name="Path 70592" class="cls-2" d="M123.89,24.12C160.13,45,172.83,90.89,152.25,126.53S85.62,174.09,49.38,153.17.44,86.4,21,50.76,87.65,3.19,123.89,24.12Z"/><path id="Path_70593" data-name="Path 70593" class="cls-3" d="M83.68,12.68a26.5,26.5,0,0,0-6.58.78c-1.48.36-4.42.87-6.52,1.13-9,1.14-11.5,2.28-28.89,13.31-1.74,1.1-4,2.53-5.12,3.17a8.9,8.9,0,0,0-2.34,1.84c-.22.38-.59.57-.82.43s-.47,0-.53.41a1.84,1.84,0,0,1-1,1.08c-2.43,1.17-9,8.26-12.56,13.64-1.27,1.89-2.27,3.46-3.09,4.84a22.79,22.79,0,0,0-3.58,10.93,21.51,21.51,0,0,1-1.5,5,17.73,17.73,0,0,0-1.33,4A4.48,4.48,0,0,1,9.41,75c-.43.76-1,10.13-.92,14.75A60.6,60.6,0,0,0,9,95.93c.44,3,2.87,11.88,3.33,12.15a8.13,8.13,0,0,1,.86,2.15c.8,2.62,2.85,7.14,3.37,7.44a20.1,20.1,0,0,1,2,3.87c.85,2,1.88,4.25,2.28,5a19.61,19.61,0,0,1,1.09,2.54c.49,1.59,5.46,8.77,7.94,11.47,5.06,5.53,9,8.54,18.08,13.82,9.84,5.71,12.78,7.13,18,8.69,3.91,1.16,12,2.33,13.66,2a2.53,2.53,0,0,1,1.31,0,14.66,14.66,0,0,0,3.31-.07,74.59,74.59,0,0,1,8.19,0,65.87,65.87,0,0,0,23.84-5.18c22.17-9.37,36.76-29.55,43.83-45.2,2.22-4.9,4.2-10.6,4.36-12.53a11,11,0,0,1,.31-2.21c.9-6.4,1-13.86-.4-20.11-.44-1.8-1.25-5.19-1.79-7.55a20.77,20.77,0,0,0-1.36-4.49,23.52,23.52,0,0,1-1.7-4.6c-.48-1.55-.9-2.8-1.32-4a.93.93,0,0,1,.57-.27c.54,0,.78-.34.78-1.11a1.93,1.93,0,0,0-.4-1.37,9.19,9.19,0,0,0-2.28-.29,51.71,51.71,0,0,0-3.53-5.72A95.26,95.26,0,0,0,145.06,40c.65-1.1,2-3.24,3.76-5.67,2.19-3.1,4.1-6.67,4.11-7.64,0-1.4-.48-1.86-3.19-1.78-.9,0-2.06.11-3.52.25-3,.27-6.23.68-7.23.9s-3.19.65-4.85.94a13.86,13.86,0,0,0-3.09.9l-1.16-.9a74.28,74.28,0,0,0-6.81-4.44,2.11,2.11,0,0,0-.46-1.28,4.41,4.41,0,0,0-2.52-.47c-3.21-1.82-6.09-3.28-6.62-3.2a4.89,4.89,0,0,1-1.78-.25c-.59-.2-3.94-1-7.45-1.7-10.51-2.21-15.34-3-17.13-2.64a5.68,5.68,0,0,1-2-.14,8.19,8.19,0,0,0-1.48-.17Zm.7,3.64c2,.06,4.59.28,8.35.69,1,.11,4.36.76,7.35,1.43s5.73,1.28,6.12,1.35a9.54,9.54,0,0,1,1.65.51,38.8,38.8,0,0,0,4,1.12c.33.08.79.26,1.18.39-2,.52-4.81,1.25-6.72,1.73-3.12.78-3.8,1.12-3.91,1.88-.23,1.66.9,2.12,3.79,1.53l5.68-1.14c3.33-.66,6-.83,6-.38,0,.66-2.82,5.95-3.17,5.95a.42.42,0,0,0-.39.42c0,.74-4.5,6.8-7.63,10.27-1.71,1.89-2.39,3.48-1.86,4.32.41.64,1.59.73,9.49.75,9,0,9,0,10.28-1.1a4,4,0,0,0,1.26-1.61c0-1.3-1.34-1.57-8-1.53-5.24,0-6.7-.08-6.7-.53a25.29,25.29,0,0,1,3-4.57c3.23-4.24,7.43-10.85,7.59-11.9.6.35,1.22.7,1.75,1.05a176.64,176.64,0,0,1,17,13.66c-1.63,2.41-3.23,4.7-4.43,6.18-.62.75-2.6,3.39-4.43,5.87s-3.56,4.73-3.88,5c-.86.71-.73,2.94.19,3.42a4.5,4.5,0,0,0,2.12.24c.73-.1,5.33-.45,10.22-.78,7.51-.52,11.89-.54,14.47-.11.4.92.74,1.74,1.12,2.62,2.27,5.29,5.29,17.66,5.58,22.73,0,.51-.13,2.35-.12,8.07a31.16,31.16,0,0,1-1.24,9.31,26.47,26.47,0,0,1-2.26,6.1,21.1,21.1,0,0,0-1.59,4.2c-5.29,13.82-18,29.88-33.82,39.38-9.5,5.72-20.12,9.07-30.89,8.12-1.24-.14-1.44-.13-7.75.24-6,.35-14.08-.29-17.3-1.36a49.34,49.34,0,0,1-5.06-2.08c-1.8-.88-2.57-1.07-2.8-.68-.35.61-2-.15-2.23-1-.09-.31-3.81-2.8-8.28-5.54a89.1,89.1,0,0,1-9.22-6.16L35.71,141a66.71,66.71,0,0,1-8.46-10.57c-2.32-3.64-2.64-4.28-5.09-10.17-2.1-5-4.59-10-5.35-10.68a2.26,2.26,0,0,1-.6-1.54,5.52,5.52,0,0,0-.38-1.93,110.07,110.07,0,0,1-3-12.55,34.83,34.83,0,0,1-.27-5.5,33,33,0,0,0-.19-5c-.31-2,1.28-11.17,2.52-14.51A10.28,10.28,0,0,0,15.57,66a36.65,36.65,0,0,1,1.07-4.52,30,30,0,0,1,2.88-6.74,61,61,0,0,1,5.28-7.67,27.39,27.39,0,0,0,2.68-3.74c0-.14.58-.81,1.37-1.49a11.38,11.38,0,0,0,2.07-2.31c.34-.6.83-1.09,1.09-1.1a6.79,6.79,0,0,0,2-1.66,9,9,0,0,1,3.4-2.22A15.31,15.31,0,0,0,40.75,33c2.22-1.47,7.3-4.67,8.09-5.09.37-.21,2.62-1.67,5-3.26a60.35,60.35,0,0,1,6.63-3.91c3.25-1.44,11.08-3.13,16-3.46a27.69,27.69,0,0,0,3.61-.69,15.91,15.91,0,0,1,4.3-.3ZM145,29.39c1.07,0,1.82.05,1.93.23.22.35-1.85,3.9-4.37,7.83A70.91,70.91,0,0,0,135,31l-.24-.18A48.53,48.53,0,0,1,145,29.39ZM91.65,33.84a7.18,7.18,0,0,0-3.24.55,2.27,2.27,0,0,1-1.4.55,17.22,17.22,0,0,0-4.1,1.55A23.52,23.52,0,0,1,79.21,38c-.58,0-1.12,2-.77,2.89s2.09.81,5.9-.72c3.42-1.37,6.38-2,6.38-1.31,0,1.09-2,5.82-3.26,7.76-.83,1.25-1.76,2.77-2.08,3.38a19.94,19.94,0,0,1-2.06,2.86c-2.16,2.54-1.9,5.08.54,5.11.47,0,2,.14,3.45.3a39.52,39.52,0,0,0,10.34-1A5.3,5.3,0,0,0,99.77,56h0c.92-.93,1.07-1.32.67-1.8s-.62-.51-.75-.38-.58-.09-1-.48c-.72-.65-.94-.66-2.7,0-2,.75-7.58,1.17-8.15.61-.17-.17.3-1.27,1.06-2.44a54.1,54.1,0,0,0,5.7-10.8c1.87-5.43,1.25-6.9-2.93-6.87ZM143,43.24c.06.09.23.26.26.33a18.3,18.3,0,0,0,2.13,2.53A58.1,58.1,0,0,1,152.65,56c-3.17,0-7,0-10.37.18a51.74,51.74,0,0,1-7.47.06c-.41-.2.13-1.29,1.87-3.8,3.3-4.76,5.22-7.54,6.36-9.22ZM65.18,88.43a8.34,8.34,0,0,0-4.57,2.42c-.81.9-1.85,2-2.31,2.51-1.16,1.25-6.57,3.26-9.38,3.48-4.11.32-9.86-1.29-12.43-3.47a12.82,12.82,0,0,0-2.06-1.27c-1.29-.65-1.44-.65-2.11.09-1.1,1.22-.87,2,1,3.75,2.7,2.44,3.5,2.83,8.33,4.08l4.52,1.16,5.36-.87c3.75-.61,5.78-1.17,6.8-1.87,1.77-1.2,5.69-4.91,5.69-5.38a7.82,7.82,0,0,1,1.55-1.89c1.73-1.73,1.89-2.25.84-2.65a2.69,2.69,0,0,0-1.26-.09Zm27.66.76c-1.53-.06-3.17,1.62-2.27,3.22s7.91,6.31,11,7.49c3.42,1.31,9.76,1.16,14.53-.35,4.46-1.4,5.27-2,7.82-5.61,2-2.91,2.23-3.44,1.45-4.22s-3,.14-4.4,1.63c-5,5.48-12.12,6.82-19.26,3.65a28.57,28.57,0,0,1-7.45-5.1,1.87,1.87,0,0,0-1.4-.71Zm-14.1,34.25a8.41,8.41,0,0,0-1.23.13,8.5,8.5,0,0,0-6,3.28c-2.37,2.63-3,4.13-3.29,8-.34,4.37.26,6.28,2.72,8.75,2.75,2.74,5.16,3.23,10,2,5-1.25,6.92-3.15,8-8a9.28,9.28,0,0,0,.12-2.88c-.76-4.8-2-6.56-6.58-9.56-2-1.31-2.71-1.7-3.76-1.7Z"/></g></g></g></svg>