<svg xmlns="http://www.w3.org/2000/svg" viewBox="0 0 156.92 152.44"><defs><style>.cls-1{fill:#fbd196;}.cls-2{fill:#3a2316;}</style></defs><g id="圖層_2" data-name="圖層 2"><g id="圖層_1-2" data-name="圖層 1"><g id="Group_6792" data-name="Group 6792"><path id="Path_70592" data-name="Path 70592" class="cls-1" d="M115.41,11.44c36.24,20.92,48.94,66.77,28.37,102.41S77.14,161.42,40.91,140.49-8,73.72,12.54,38.08,79.17-9.48,115.41,11.44Z"/><path id="Path_70593" data-name="Path 70593" class="cls-2" d="M75.2,0a26.49,26.49,0,0,0-6.57.79c-1.49.35-4.42.86-6.52,1.12-9,1.14-11.51,2.28-28.9,13.31-1.74,1.1-4,2.53-5.11,3.17a9.11,9.11,0,0,0-2.35,1.84c-.21.38-.58.57-.81.44s-.48,0-.53.4a1.85,1.85,0,0,1-1,1.09c-2.43,1.16-9,8.25-12.56,13.63-1.27,1.89-2.28,3.47-3.1,4.85A22.71,22.71,0,0,0,4.17,51.56a21.26,21.26,0,0,1-1.5,5,17.38,17.38,0,0,0-1.32,4,4.47,4.47,0,0,1-.41,1.72c-.44.76-1,10.13-.93,14.75,0,1.71.27,4.49.51,6.17.44,3,2.86,11.88,3.33,12.15a8.78,8.78,0,0,1,.86,2.16c.79,2.61,2.84,7.13,3.37,7.44A19.42,19.42,0,0,1,10,108.86c.86,2,1.88,4.25,2.28,5a17.94,17.94,0,0,1,1.09,2.55c.5,1.58,5.46,8.76,7.94,11.47,5.07,5.53,9,8.53,18.09,13.81,9.83,5.72,12.77,7.13,18,8.69,3.91,1.16,12,2.33,13.65,2a2.53,2.53,0,0,1,1.31,0,15.35,15.35,0,0,0,3.32-.06,74.4,74.4,0,0,1,8.18,0,65.62,65.62,0,0,0,23.84-5.18c22.17-9.37,36.77-29.54,43.83-45.19,2.23-4.9,4.21-10.6,4.36-12.54a11.12,11.12,0,0,1,.32-2.21c.9-6.4,1-13.86-.41-20.11-.43-1.8-1.24-5.19-1.79-7.54a20.58,20.58,0,0,0-1.35-4.49A23.89,23.89,0,0,1,151,50.46c-.47-1.55-.89-2.8-1.32-3.94a.85.85,0,0,1,.57-.27c.55,0,.79-.34.79-1.12a1.94,1.94,0,0,0-.4-1.36,8.88,8.88,0,0,0-2.29-.29,48.48,48.48,0,0,0-3.52-5.72,94.32,94.32,0,0,0-8.22-10.46c.64-1.1,2-3.25,3.75-5.68,2.19-3.1,4.1-6.67,4.11-7.64,0-1.4-.48-1.86-3.19-1.78-.9,0-2,.12-3.51.25-3,.27-6.23.68-7.24.91s-3.19.64-4.85.93a15.19,15.19,0,0,0-3.09.9l-1.15-.89a72.49,72.49,0,0,0-6.82-4.45,2.11,2.11,0,0,0-.46-1.28,4.46,4.46,0,0,0-2.51-.47c-3.22-1.82-6.09-3.28-6.62-3.2a4.89,4.89,0,0,1-1.78-.25c-.59-.2-4-1-7.46-1.7C85.27.74,80.43,0,78.64.31a6,6,0,0,1-2-.13A7.31,7.31,0,0,0,75.19,0Zm.71,3.64c2,.06,4.58.28,8.34.69,1.06.11,4.37.76,7.35,1.44s5.74,1.28,6.12,1.34a10.65,10.65,0,0,1,1.66.52,39.3,39.3,0,0,0,4,1.11c.34.09.79.26,1.19.39-2,.52-4.81,1.25-6.72,1.73-3.12.79-3.8,1.12-3.91,1.88-.24,1.66.9,2.12,3.79,1.54l5.68-1.15c3.32-.66,6-.83,6-.37,0,.65-2.82,5.94-3.17,5.94a.41.41,0,0,0-.39.43c0,.74-4.5,6.79-7.63,10.26-1.71,1.9-2.39,3.49-1.86,4.32.4.64,1.59.73,9.48.75,9,0,9,0,10.29-1.1a4.07,4.07,0,0,0,1.26-1.61c0-1.3-1.34-1.57-8-1.53-5.23,0-6.69-.08-6.69-.53a24.87,24.87,0,0,1,3-4.56c3.22-4.24,7.43-10.86,7.59-11.9.59.34,1.21.7,1.75,1a178,178,0,0,1,17,13.65c-1.62,2.41-3.22,4.7-4.43,6.19-.61.75-2.6,3.39-4.42,5.87s-3.56,4.72-3.88,5c-.86.71-.73,2.94.19,3.42a4.33,4.33,0,0,0,2.11.23c.74-.09,5.34-.45,10.22-.78,7.51-.51,11.89-.53,14.47-.11.4.92.74,1.74,1.12,2.62,2.28,5.29,5.3,17.66,5.59,22.73-.06.52-.13,2.35-.12,8.08a31.25,31.25,0,0,1-1.24,9.31,27.33,27.33,0,0,1-2.27,6.1,21.46,21.46,0,0,0-1.58,4.2c-5.3,13.82-18,29.87-33.82,39.38-9.5,5.71-20.13,9.06-30.9,8.12-1.24-.15-1.43-.14-7.75.23-6,.35-14.07-.29-17.3-1.36a48.27,48.27,0,0,1-5-2.08c-1.8-.88-2.58-1.07-2.8-.68-.35.61-2-.14-2.24-1-.08-.32-3.81-2.81-8.27-5.54a92,92,0,0,1-9.23-6.16c-.6-.66-2-2.16-3.18-3.35a67.28,67.28,0,0,1-8.46-10.57c-2.31-3.63-2.63-4.27-5.08-10.16-2.1-5.06-4.59-10-5.36-10.69a2.25,2.25,0,0,1-.59-1.54,5.81,5.81,0,0,0-.38-1.93,112.27,112.27,0,0,1-3-12.55,36.07,36.07,0,0,1-.27-5.5,31.57,31.57,0,0,0-.19-5c-.31-2,1.29-11.18,2.53-14.52a10.73,10.73,0,0,0,.67-2.56,37.49,37.49,0,0,1,1.06-4.52,30.58,30.58,0,0,1,2.89-6.73,61.05,61.05,0,0,1,5.27-7.68A26.56,26.56,0,0,0,19,30.66a5.08,5.08,0,0,1,1.37-1.49,11.09,11.09,0,0,0,2.07-2.31c.35-.59.84-1.09,1.09-1.1a6.81,6.81,0,0,0,2-1.66A9,9,0,0,1,29,21.88a15.06,15.06,0,0,0,3.31-1.53c2.21-1.46,7.3-4.67,8.08-5.09.38-.21,2.63-1.67,5-3.25A59.79,59.79,0,0,1,52,8.09C55.23,6.65,63.07,5,68,4.63A29.28,29.28,0,0,0,71.61,4a15.55,15.55,0,0,1,4.3-.31Zm60.64,13.07c1.08,0,1.82.05,1.93.23.22.36-1.85,3.9-4.37,7.84a69.09,69.09,0,0,0-7.57-6.51l-.23-.18a49.09,49.09,0,0,1,10.24-1.38ZM83.18,21.16a7.06,7.06,0,0,0-3.24.56,2.34,2.34,0,0,1-1.4.54,18,18,0,0,0-4.1,1.55,23.93,23.93,0,0,1-3.7,1.55c-.59,0-1.12,2-.78,2.9s2.09.8,5.9-.72c3.42-1.37,6.39-2,6.39-1.32,0,1.1-2,5.82-3.27,7.77-.82,1.25-1.75,2.76-2.07,3.38a22.2,22.2,0,0,1-2.06,2.85c-2.17,2.54-1.9,5.09.53,5.11.48,0,2,.14,3.45.3a39.13,39.13,0,0,0,10.35-1,5.26,5.26,0,0,0,2.11-1.36h0c.93-.93,1.08-1.32.68-1.8s-.62-.51-.75-.38-.59-.08-1-.48c-.73-.65-1-.65-2.7,0-2,.74-7.59,1.16-8.15.61-.18-.17.3-1.28,1.05-2.45A53.28,53.28,0,0,0,86.1,28c1.87-5.44,1.25-6.9-2.92-6.87Zm51.38,9.4c.07.1.24.27.27.33A18.42,18.42,0,0,0,137,33.43a57.24,57.24,0,0,1,7.23,9.92c-3.18,0-7,0-10.38.18a53.07,53.07,0,0,1-7.46,0c-.42-.2.13-1.29,1.87-3.8,3.3-4.76,5.21-7.54,6.35-9.22ZM56.71,75.75a8.34,8.34,0,0,0-4.57,2.42l-2.31,2.52c-1.16,1.24-6.57,3.25-9.38,3.47-4.11.33-9.87-1.28-12.43-3.47A14.08,14.08,0,0,0,26,79.42c-1.29-.65-1.44-.65-2.11.09-1.1,1.22-.88,2,1,3.75,2.71,2.45,3.5,2.84,8.34,4.08l4.52,1.16,5.35-.87c3.76-.6,5.79-1.16,6.81-1.86,1.77-1.21,5.68-4.92,5.68-5.39a7.63,7.63,0,0,1,1.56-1.88c1.73-1.73,1.89-2.25.84-2.66a2.73,2.73,0,0,0-1.27-.09Zm27.65.77c-1.53-.06-3.16,1.61-2.26,3.21s7.91,6.32,11,7.49c3.41,1.31,9.76,1.16,14.53-.35,4.45-1.4,5.27-2,7.82-5.6,2-2.92,2.23-3.45,1.44-4.23s-3,.14-4.39,1.63c-5,5.48-12.13,6.82-19.27,3.65a28.12,28.12,0,0,1-7.44-5.1,1.87,1.87,0,0,0-1.4-.71Zm-14.1,34.24a10.26,10.26,0,0,0-1.23.13,8.46,8.46,0,0,0-6,3.29c-2.38,2.62-3,4.12-3.29,8-.34,4.36.25,6.27,2.72,8.74,2.75,2.75,5.15,3.23,10,2s6.92-3.14,8-8a9.67,9.67,0,0,0,.13-2.89c-.76-4.79-2-6.55-6.58-9.55-2-1.32-2.72-1.71-3.77-1.7Z"/></g></g></g></svg>