<svg xmlns="http://www.w3.org/2000/svg" width="162.026" height="160.628" viewBox="0 0 162.026 160.628">
  <g id="angel_cover_1" data-name="angel+cover_1" transform="matrix(0.883, 0.469, -0.469, 0.883, -57.043, -344.202)">
    <path id="cover" d="M138.872,80.423a24.425,24.425,0,0,0-.182-6.83c-.314-2.607-.73-5.2-1.126-7.8a37.391,37.391,0,0,0-2.48-9.245c-.361-.839-.8-1.651-1.108-2.508a49.629,49.629,0,0,0-3.471-7.559c-1.671-2.97-3.418-5.9-5.132-8.845-.086-.148-.234-.3-.23-.452a2.943,2.943,0,0,0-.9-1.9c-.813-1.039-1.665-2.05-2.538-3.041a47.036,47.036,0,0,0-7.752-7.466,7.581,7.581,0,0,1-.647-.57,30.567,30.567,0,0,0-5.941-4.432,25.546,25.546,0,0,1-3.478-2.259,22.525,22.525,0,0,0-4.908-2.884c-.561-.241-1.193-.314-1.764-.536-.617-.241-1.186-.6-1.8-.849-.907-.37-1.836-.69-2.755-1.034-.207-.078-.41-.169-.645-.266.093-.519.177-.989.267-1.495a4.665,4.665,0,0,0,.645.344,2.508,2.508,0,0,0,2.1.062,3.186,3.186,0,0,0,1.614-2.48A7.815,7.815,0,0,0,95.9,4.9a6.116,6.116,0,0,0-1.518-2.567,2.562,2.562,0,0,0-1.746-.794A3.04,3.04,0,0,1,90.946,1,4.6,4.6,0,0,0,85.958.516a6.163,6.163,0,0,0-3.345,3.545,1.65,1.65,0,0,1-.183.383,2.177,2.177,0,0,0,1.354,3.449,5.978,5.978,0,0,1,.63.238l-.5,1.4c-.348-.082-.6-.148-.854-.2-1.953-.4-3.9-.823-5.861-1.188-.849-.158-1.721-.186-2.58-.3-.716-.092-1.423-.28-2.139-.32a87.106,87.106,0,0,0-10.755.446,8.391,8.391,0,0,0-3.034.763,3.04,3.04,0,0,0,.652.11,43.644,43.644,0,0,1,5.882-.052,49.993,49.993,0,0,1,7.1.4c1.965.335,3.938.649,5.879,1.094,2.508.574,4.976,1.313,7.483,1.893a4.293,4.293,0,0,1,2.9,1.661c.028.042.1.057.147.085a2.56,2.56,0,0,1,1.04.053c.277.072.53.229.8.325a2.733,2.733,0,0,1,1.412.934,3.909,3.909,0,0,0,.9.626l-.32-.838c1.186.459,2.252.818,3.27,1.279,1.576.714,3.162,1.425,4.667,2.271a30.355,30.355,0,0,1,5.106,3.523,90.686,90.686,0,0,1,6.844,6.067,2.666,2.666,0,0,1,.68,1.164q.506,1.905,1.04,3.8c.1.341.253.666.383,1l.223-.055c.163-1.405-.436-2.719-.724-4.223.248.215.386.314.5.436,1.047,1.138,2.235,2.131,3.207,3.356a12.852,12.852,0,0,1,2.134,3.6c.834,2.311,1.615,4.641,2.376,6.977.716,2.2,1.374,4.418,2.07,6.624a6.68,6.68,0,0,0,.383.818l.181-.057c-.113-.634-.187-1.278-.344-1.9-.927-3.685-1.95-7.343-3.234-10.926-.088-.247-.163-.5-.244-.747l.158-.075c.283.319.55.653.852.953a4.644,4.644,0,0,1,1.283,2.467c.466,2.266.993,4.519,1.493,6.778a10.634,10.634,0,0,1,.356,4.007,31.878,31.878,0,0,0-.1,3.934c-.048,1.74-.058,3.484-.2,5.217-.112,1.363-.41,2.709-.607,4.066-.074.515-.1,1.037-.143,1.555l.243.06a6.418,6.418,0,0,0,.395-.961,31.107,31.107,0,0,0,.984-6.25c.069-2.426.035-4.855.034-7.282,0-.453-.083-.906-.077-1.359a4.32,4.32,0,0,1,.165-1.607,4.516,4.516,0,0,1,1.025,3.179,4.391,4.391,0,0,0,.03,1.025,38.481,38.481,0,0,1-.244,10.671,13.064,13.064,0,0,0-.113,1.637l.176.035a2,2,0,0,0,.183-.346,19.088,19.088,0,0,0,.908-5.043,48.644,48.644,0,0,0-.23-6.758,9.9,9.9,0,0,1,0-1.1l.5.321c-.166-.86-.8-1.489-.539-2.478a8.075,8.075,0,0,1,1,2.514c.223,2.473.518,4.94.688,7.416.127,1.85.1,3.711.156,5.565a12.432,12.432,0,0,0,.18,1.32l.555-.123c-.06.455.007.892-.177,1.163a14.56,14.56,0,0,1-2.641,2.793c.109-.752.313-1.463.44-2.188a7.1,7.1,0,0,0,.307-2.123c-.6.122-.713.476-.816.888-.359,1.441-.743,2.876-1.136,4.309-.244.889-.586,1.129-1.594,1.194a.435.435,0,0,1-.014-.162q.756-2.407,1.519-4.814c.083-.263.2-.532-.188-.784-.223.671-.419,1.291-.635,1.9a12.685,12.685,0,0,1-1.216,3.091.451.451,0,0,1-.028.1H124c-.231,1.326-.5,1.587-2.237,1.3l.758-1.3,1.479.008,0-.02c.018-.025.031-.051.049-.076.03-.189-.109-.289-.281-.361-.29-.12-.586-.225-.9-.345a14.225,14.225,0,0,0,.554-1.9c.094-.614.564-1.158.39-1.92-1,1.116-.909,2.586-1.614,3.739-1.289-.007-2.561-.038-3.832-.016-1.213.021-2.427.072-3.637.164a2.226,2.226,0,0,0-.483.1q.36.223.718.448c.012,0,.025,0,.037,0,2.083-.026,4.166,0,6.25.023a3.633,3.633,0,0,1,.631.132l-.633,1.394-3.933-.023.272.18,1.527.345-.6.284q.354.242.706.485a18.913,18.913,0,0,1,2.026.067c.166.012.32.166.48.255a2.514,2.514,0,0,1,.65-.174,3.241,3.241,0,0,1,.762.152c.611.152,1.221.312,1.893.485-.062.352-.114.651-.166.942-.987.085-1.936.162-2.883.25q.342.252.682.507c.555-.015,1.11-.031,1.665-.036.223,0,.555,0,.644.13.129.188.2.194.389.15.822-.191,1.463.336,2.263.443l-.459,1.122c-.7-.131-1.392.159-2.078.062q.4.317.8.638l1.433.008c-.321.146-.618.285-.911.416.119.1.239.193.358.291.026.021.048.044.072.066a.982.982,0,0,1,.935.105,7.76,7.76,0,0,0,1.627.529,1.849,1.849,0,0,1-1.6.417,23.249,23.249,0,0,1,6.584,8,4.5,4.5,0,0,1,.411,1.4c.049.061.1.118.149.18a1.967,1.967,0,0,1,.223,2.446c-.2-.189-.435-.363-.648-.551A3.99,3.99,0,0,1,129.791,96c-7.585-1.722-15.483-3-22.865-5.575q-4.083-.7-8.164-1.408c-2.506-.44-4.993-.988-7.5-1.455-1.165-.217-2.341-.391-3.519-.53a56.966,56.966,0,0,1-10.842-2.67c-5.279-1.708-10.491-3.6-15.657-5.627-2.551-1-5.168-1.843-7.786-2.663a4.713,4.713,0,0,0-2.9-.426c.243.139.43.248.619.353.651.362,1.3.737,1.957,1.079a7.716,7.716,0,0,0,1.194.506,21.061,21.061,0,0,1,5.036,2.259,23.03,23.03,0,0,0,5.989,2.469c2.494.737,5.023,1.358,7.511,2.112,2.07.627,4.088,1.418,6.154,2.057,1.9.589,3.818,1.172,5.766,1.583,3.96.836,7.947,1.546,11.919,2.322,1.873.366,3.739.763,5.609,1.143.224.046.452.077.886.149l-.641-.5,4.032.314c0,.039.007.079.011.117l-.927.154c.416.131.642.217.876.274.872.208,1.747.4,2.618.611.305.075.6.192.9.29l-.021-.019c.1.057.258.093.288.175.185.509.327,1.033.513,1.541a6.684,6.684,0,0,0,.439.8c.263-.974-.421-1.591-.416-2.45l1.722.263.871,3c-1.331-.179-2.556-.352-3.783-.506-6.293-.79-12.5-2.041-18.713-3.287a137.128,137.128,0,0,1-18.727-5.118C69.577,86.4,66.86,85.588,64.21,84.6c-2.569-.959-5.069-2.1-7.619-3.106a190.3,190.3,0,0,1-17.482-8.182q-7.836-4.06-15.274-8.834c-2.52-1.623-5.016-3.283-7.505-4.952a2.086,2.086,0,0,1-.674-.846c-.367-.8-.667-1.63-.994-2.448.1.463.192.93.309,1.39.083.326.2.643.311.994a2.864,2.864,0,0,1-2.13-2.3c-.139-.605-.263-1.213-.423-1.951a3.556,3.556,0,0,1,1.948,1.886c0-.107-.013-.22-.027-.421a4.118,4.118,0,0,1,.529.284A103.041,103.041,0,0,0,25.372,62.8c.9.521,1.837.97,2.779,1.408a92.964,92.964,0,0,1,8.261,4.543A75.359,75.359,0,0,0,48.7,74.724c.368.137.75.24,1.125.358l.068-.161c-.268-.145-.531-.3-.8-.434-2.846-1.406-5.7-2.8-8.536-4.222a5.982,5.982,0,0,1-.858-.667,8.918,8.918,0,0,0-.839-.6c-2.061-1.219-4.116-2.447-6.2-3.63A3.433,3.433,0,0,1,31.3,64.2c-.275-.156-.55-.311-.825-.468.063.106.124.206.19.318A13.237,13.237,0,0,1,28.26,62.6a.673.673,0,0,1-.178-.269l-.657-.393c.061.089.119.178.183.266-.584-.378-1.153-.782-1.756-1.129a3.114,3.114,0,0,1-.624-.469q-1.357-.83-2.716-1.668c-5.056-3.113-11.135-4.816-14.933-9.64a4.31,4.31,0,0,1-.93-4.132c-.46-.012-.921-.022-1.383-.019-.068,0-.135-.065-.219-.108.39-.631.777-1.224,1.127-1.838a.86.86,0,0,1,.934-.446c.565.047,1.132.084,1.7.122a4.363,4.363,0,0,1,.762-.282A8.593,8.593,0,0,1,14.611,40c.468-.082.939-.151,1.412-.211-.163-.039-.327-.079-.494-.124A12.156,12.156,0,0,1,16.9,35.844c.244,1.229.488,2.462.749,3.776q.475-.04.952-.07c.025-.223.049-.438.072-.656a1.117,1.117,0,0,1,1.119.6q.519-.02,1.039-.031v-.009l.052.008c.835-.017,1.672-.02,2.507-.014l-2.9-.8c-.227-1.267-.494-2.574-.677-3.893a2.619,2.619,0,0,1,.243-1.15,46.837,46.837,0,0,1,3.863-8.019,1.345,1.345,0,0,0,.17-.927,1.9,1.9,0,0,1,.478-1.388,26.274,26.274,0,0,1,2.389-1.9l.127.109c-.084.2-.175.4-.249.6q-.7,1.929-1.4,3.86c-.068.187-.114.383-.195.564-.593,1.329-1.2,2.653-1.783,3.986-.138.316-.267.564-.786.309-.117.819-.214,1.544-.326,2.266-.118.759-.281,1.512-.366,2.274-.079.7-.092,1.416-.11,2.126,0,.154.093.309.306.486l.431-1.476,1.106,2.981.926.011a3.161,3.161,0,0,1-.467-1.541c.625.326,1.245.623,1.833.974a1.326,1.326,0,0,1,.464.575c0,.007.006.015.009.022q.72.012,1.435.021c.28,0,.561.01.841.014-.414-.215-.826-.434-1.24-.648a1.447,1.447,0,0,1-.832-.99,27.357,27.357,0,0,1-.383-3.824,6.313,6.313,0,0,1,.545-3.186l.444.2a4.709,4.709,0,0,0,.163-.653c.116-1.093.3-2.179.494-3.257a46.1,46.1,0,0,1,2.468-7.838.965.965,0,0,1,.349-.465c.8-.5,1.619-.969,2.57-1.532-.079.353-.1.545-.166.724-.271.783-.585,1.553-.822,2.346a3.577,3.577,0,0,1-1.512,2.2c-.026.016-.017.087-.028.149l.753-.234c-.079.294-.133.483-.179.673-.412,1.721-.878,3.432-1.217,5.168a17.788,17.788,0,0,0-.306,6.13c.041.268.114.531.173.8a1.5,1.5,0,0,0,.324-.816c.144-1.248.276-2.5.415-3.746a49.086,49.086,0,0,1,1.821-8.448,1.042,1.042,0,0,1,.324-.578c.576-.355,1.19-.648,1.88-1.013l-.239,1.072.138.081,1.237-1.211c-.064.351-.084.516-.125.676-.252,1-.552,1.984-.751,2.991a2.388,2.388,0,0,1-1.13,1.9c-.058.031-.084.121-.2.3l.862-.281c-.034.225-.054.39-.085.553a57.121,57.121,0,0,0-1.017,7.464,15.173,15.173,0,0,1-.286,1.845,4.2,4.2,0,0,0-.128,1.987c.267-.357.114-.936.741-.92.142-1.421.239-2.847.436-4.259.311-2.232.683-4.456,1.05-6.68a1.012,1.012,0,0,1,.336-.644c.647-.415,1.338-.766,2.051-1.162a1.394,1.394,0,0,1,.063.339c-.079.508-.151,1.018-.257,1.52A41.338,41.338,0,0,0,36.721,38.5a2.466,2.466,0,0,1-.177.707,2.659,2.659,0,0,0,.242.222l.326.249.733.013,0,0a1.365,1.365,0,0,1-.653-1.353c.1-1.309.12-2.623.193-3.934.077-1.368.114-2.743.285-4.1.245-1.953.616-3.891.884-5.842a1.021,1.021,0,0,1,.651-.9c1.778-.832,3.544-1.687,5.319-2.527.248-.117.516-.194.928-.347-.347.608-.62,1.067-.874,1.536a2.276,2.276,0,0,0-.45,1.526c.218-.312.4-.563.572-.824q.63-.975,1.246-1.959a1.763,1.763,0,0,1,1.094-.908c.185-.044.335-.229.528-.369l-.41-.3c.174-.228.3-.423.454-.588a35.27,35.27,0,0,1,5.074-4.539,2.409,2.409,0,0,1,.674-.37,16.573,16.573,0,0,1,6.575-.906,2.283,2.283,0,0,0,.538-.074l.033-.182a6.084,6.084,0,0,0-.911-.362,8.339,8.339,0,0,0-4.126.087c-2.643.741-5.274,1.522-7.91,2.288-.3.088-.6.182-.9.274a22.385,22.385,0,0,1,3.883-3.351c.2-.137.4-.226.2-.633a7.808,7.808,0,0,0-.948.556c-1.579,1.253-3.141,2.528-4.718,3.783a3.791,3.791,0,0,1-.871.539c-1.677.7-3.364,1.385-5.049,2.072-.231.094-.47.173-.705.259a1.207,1.207,0,0,1,.384-.555q3.068-2.522,6.143-5.036a4.562,4.562,0,0,1,1.762-.884q4.651-1.236,9.3-2.491c.25-.067.5-.145.746-.218l-.051-.2-4.76.518-.021-.1,1.174-.429a2,2,0,0,0-.946-.04A67.236,67.236,0,0,0,38.2,12.5a60.028,60.028,0,0,0-10.646,5.382,57.7,57.7,0,0,0-7.635,5.768,130.319,130.319,0,0,0-9.756,9.632A50.932,50.932,0,0,0,4.917,40.1a33.556,33.556,0,0,0-1.8,3.407,6.247,6.247,0,0,1-1.452,2.28,1.085,1.085,0,0,0-.24.6A3.156,3.156,0,0,1,.442,48.4a1.267,1.267,0,0,0-.421.793,2.678,2.678,0,0,0,1.3,2.928,2.052,2.052,0,0,1,.438.4c.407.406.8.828,1.217,1.223A110.113,110.113,0,0,0,25.249,70.178c2.547,1.414,5.1,2.816,7.634,4.253,1.405.8,2.765,1.67,4.165,2.477a27.953,27.953,0,0,0,6.285,2.88,32.19,32.19,0,0,1,4.945,2.047c.444.209.893.409,1.335.622a69.524,69.524,0,0,0,10.478,4.1c2.382.7,4.741,1.481,7.1,2.256,4.665,1.532,9.279,3.214,14.059,4.4A202.166,202.166,0,0,0,107.8,97.948c2.762.3,5.529.611,8.3.768,6.1.346,12.206.641,18.32.649.3,0,.6,0,.906.005v-.107l-1.036-.31c.616-.293,1.1-.51,1.576-.759a1.181,1.181,0,0,0,.423-.383,7.727,7.727,0,0,0,.976-2.7c.187-.894.325-1.8.5-2.693a47.988,47.988,0,0,0,1.1-11.4A3.031,3.031,0,0,1,138.872,80.423ZM92.649,4.509l.169-.03L93.6,6.849c-.912-.4-.941-.433-.958-1.242C92.636,5.241,92.646,4.875,92.649,4.509Zm-.728-1.573q.082.443.163.887l-.16.032q-.092-.441-.185-.883Zm-2.365-1.5a3.871,3.871,0,0,1,2.05.368l-.465.758-.693-.342-.12.111.538.807-.488,1.323.6.1.19-.625.185,0c.057.448.113.9.187,1.479l-2.006-.838Zm-.565,0-.017,2.9-.858-.2c-.139-.9.471-1.768-.215-2.716Zm-1.318.154c.431.8.072,1.569-.028,2.347l-3.272-.019A4.105,4.105,0,0,1,87.673,1.59Zm-.71,8.994.983-2.572.612.172c-.344.738-.652,1.431-1,2.106C87.5,10.4,87.279,10.435,86.963,10.584ZM87,7.8c.475.107.475.107.159.725C87.1,8.258,87.046,8.032,87,7.8Zm1.817,3.151-.741-.206.885-2.352.693.349Zm-2.08-3.913a3.455,3.455,0,0,0-.767.221l-.081.151c.83.258.825.813.695,1.443a3.389,3.389,0,0,0,.076.661,7.805,7.805,0,0,1-.075.8l-1.337-.409a7.643,7.643,0,0,1,.243-1.457A1.1,1.1,0,0,0,85.2,7.3a2.228,2.228,0,0,0-.427-.424,1.274,1.274,0,0,1-.549-1.327,10.937,10.937,0,0,1,9.911,4.224,1.608,1.608,0,0,1-1.985-.493A6.188,6.188,0,0,0,86.732,7.035Zm40.98,42.338c-.311-.689-.642-1.37-.928-2.069s-.531-1.427-.807-2.177c-.257.169-.231.5-.179.766a6.616,6.616,0,0,0,.384,1.219c.271.661.566,1.313.87,1.96a1.228,1.228,0,0,1,0,1.216,9.574,9.574,0,0,1-1.451-2.525q-.5-2.3-.983-4.6a2.912,2.912,0,0,1-.034-.319c.236-.235.427-.2.579.048a12.748,12.748,0,0,1,.916,1.55c.609,1.417,1.165,2.858,1.725,4.295a2.288,2.288,0,0,1,.062.61Zm7.495,24.413h.064l0,.544H135.2ZM134.16,73.4h.077l0,.557-.077,0Zm-.316,2.633a.893.893,0,0,1,.277-.91l-.086.934Zm-.309,3.45a4.555,4.555,0,0,1,.243-2.069A2.8,2.8,0,0,1,133.535,79.485ZM131.218,55.7a8.186,8.186,0,0,1,.274.869c.355,1.759.694,3.521,1.043,5.281.2,1.006.364,2.022.633,3.011.119.44.074,1.044.723,1.225.06.017.079.253.08.388a25.259,25.259,0,0,1-.6,6.03A4.593,4.593,0,0,1,131.559,75c.061-.342.114-.687.183-1.028.342-1.7.681-3.41,1.039-5.111a2.993,2.993,0,0,1,.319-.782,2.23,2.23,0,0,0,.174-1.739c-.147-.513-.269-1.035-.439-1.54a4.552,4.552,0,0,0-.38-.708l-.228.043c.5,1.175-.219,1.884-.94,2.607a64.528,64.528,0,0,0-.253-11.015Zm-.009,21.744a2.65,2.65,0,0,1,.96-2.354,6.535,6.535,0,0,0,.822-.951C133.334,75.769,132.214,76.5,131.21,77.443Zm-.079,1.333-.191-.07c.066-.242.059-.551.213-.712.5-.531,1.063-1.008,1.64-1.541C132.94,77.787,131.806,78.114,131.13,78.777Zm1.827-11.172.006-1.112.118.009-.007,1.1Zm-2.923-.7a52.074,52.074,0,0,0-.944-15.038c.509.006.566.371.618.685a42.286,42.286,0,0,1,.652,4.313c.177,2.963.217,5.933.322,8.9.02.568.074,1.136.12,1.819Zm.15,4.6c.127-.417.615-.727.936-1.086a2.243,2.243,0,0,1-.271.209c-.122.069-.258.114-.512.222a10.5,10.5,0,0,1,.353-2.525,7.683,7.683,0,0,1,1.508-2.005c.164,1.479.141,2.892-.985,4.04l.685-.511c-.054.4-.069.638-.121.868-.346,1.553-.716,3.1-1.04,4.658a1.068,1.068,0,0,1-.757.926c-.345.108-.683.241-1.175.416C129.281,74.875,129.677,73.173,130.184,71.5ZM124.4,75.1c-.193-.044-.38-.114-.64-.194.335-.927,1.35-.767,1.858-1.328l.14.1c-.146.524-.293,1.049-.446,1.6C124.956,75.211,124.677,75.166,124.4,75.1Zm1.493,2.144c-.033-.025.016-.155.028-.236l-.628.176.5-.835.653.2-.2.336,1.711-.312c-.178-.928-1.214-.673-1.78-1.174.156-.6.327-1.219.483-1.846.082-.331.342-.405.623-.509a4.048,4.048,0,0,0,1.93-1.105l0,0,.017-.023c-.4.206-.791.424-1.2.612-.328.152-.675.266-1.167.457a2.241,2.241,0,0,1,.214-.6c.931-1.04,1.875-2.067,2.839-3.123a3.356,3.356,0,0,1-.689,2.656l.013-.007c-.009.012-.02.021-.029.033.081.12.241.251.226.357a10.8,10.8,0,0,1-.252,1.077c-.22.9-.562,1.76-.712,2.675a2.353,2.353,0,0,1-.141.491A2.648,2.648,0,0,1,125.9,77.247Zm1.007.34,1.117-.353C127.828,77.854,127.828,77.854,126.9,77.587Zm.745,2.118.474-1.125,1.579.009.018-.021.009,0c-.16-.61-.747-.6-1.2-.746a.739.739,0,0,1,.64-.891c.388-.1.766-.241,1.21-.384a3.418,3.418,0,0,1-.238,1.812c-.034.1-.267.142-.414.208,0,.009.007.015.009.025H129.7A3.628,3.628,0,0,1,127.648,79.705Zm1.84-.046c-.278.119-.567.213-.851.319l-.072-.193,1.391-.816C129.956,79.451,129.959,79.457,129.488,79.66ZM128.1,80.973c.519-.454.684-.43,1.463.241Zm1.362,1.714.354.676-.137.157-1.107-.714a7.662,7.662,0,0,1,1.6-.711,4.652,4.652,0,0,1,1.442.191C131.011,83.279,130.217,82.584,129.462,82.687Zm2.436.964-.554-.281.6-.353C131.928,83.27,131.916,83.423,131.9,83.651Zm-.53-2.081.859.005C131.856,81.833,131.856,81.833,131.368,81.57Zm-.763-.858a1.094,1.094,0,0,1,.62-1.254c.416-.239.792-.545,1.282-.888C132.528,80.394,131.938,81.022,130.606,80.711Zm2.491,3.521-.5-.168.538-.3C133.118,83.972,133.108,84.1,133.1,84.232Zm-.022-.959-.172-.116a.874.874,0,0,1,.058-.337c.04-.062.179-.063.273-.091l.173.224Zm.205-1.867c-.128-.768-.1-.9.284-1.4A1.4,1.4,0,0,1,133.281,81.406Zm.522,4.118c-.024-.156-.05-.312-.064-.469a.4.4,0,0,1,.143-.04c.068.146.126.3.186.448Zm.534-1.157-.243-.044c0-.567-.047-1.15.624-1.536Zm.2-2.422-.168-.111.424-1,.193.076C134.991,81.312,135.055,81.736,134.534,81.946Zm.25-2.239a21,21,0,0,1,.528-4.246c0,.741.033,1.485-.025,2.221C135.232,78.376,135.5,79.154,134.784,79.707ZM44.153,17.1a2.623,2.623,0,0,1,.858-.546c1.964-.669,3.939-1.308,5.912-1.953a3.078,3.078,0,0,1,.5-.044c-.391.341-.664.583-.941.819A27.471,27.471,0,0,0,46.3,19.571a1.614,1.614,0,0,1-.6.457c-1.962.9-3.931,1.789-5.9,2.679-.12.054-.246.094-.5.189a3.313,3.313,0,0,1,.194-.4A33.35,33.35,0,0,1,44.153,17.1Zm-1.815.372a2.806,2.806,0,0,1,.455-.074c-.247.291-.4.484-.566.667a24.186,24.186,0,0,0-3.3,4.288c-.142.252-.536.353-.738.587s-.268.669-.516.843c-.607.423-1.286.747-2.02,1.158a2.882,2.882,0,0,1,.008-.54c.312-1.363.64-2.722.952-4.085a1.118,1.118,0,0,1,.734-.87C39.015,18.8,40.674,18.129,42.338,17.473Zm-7.1-1.156.072.1-1.05,1.318.158.145c1.286-.983,2.519-2.046,3.875-2.925A15.431,15.431,0,0,1,42.8,13.209c-.129.118-.255.24-.389.353-1.434,1.2-2.865,2.4-4.307,3.583-.272.224-.425.634-.9.573-.072-.009-.194.187-.257.307a4.355,4.355,0,0,1-2.158,2.009c-.548.244-1.053.584-1.719.96.307-1.445,1.052-2.626,1.048-4.074Zm-7.292,4.616c.241-.639.925-.806,1.547-1.108-.1.279-.2.559-.306.838a31.133,31.133,0,0,0-2.112,7.124,18.885,18.885,0,0,1-.863,3.38,37.733,37.733,0,0,0-1.08,4.131,15.78,15.78,0,0,0-.1,2.55h0a2.732,2.732,0,0,0,.336-.642,14.231,14.231,0,0,1,.306-1.43l.345,2.31-.987-.238h0v0l-1.224-.521c-.46-1.415-.989-2.971-.324-4.648.473-1.194.894-2.408,1.37-3.6a3.449,3.449,0,0,1,.687-1.139,2.879,2.879,0,0,0,.484-1.429A31.674,31.674,0,0,1,27.948,20.933ZM18.761,38.278l.275-1.477.173,0,.377,1.782ZM23.52,24.1l.169.112c-.285.639-.533,1.3-.863,1.913-.754,1.411-1.555,2.8-2.321,4.2-.167.306-.281.636-.8.638-.226-.713.245-1.248.514-1.748.854-1.584,1.829-3.1,2.775-4.638A2.6,2.6,0,0,1,23.52,24.1Zm-5.764,5.575c.755-1.49,2.159-2.382,3.422-3.411l-3.429,5.714a2,2,0,0,1,.095-1.415C18.054,30.144,18.054,30.144,17.756,29.677Zm.961,3.064a4.833,4.833,0,0,1-.1,2.367c-.252.646-.4,1.334-.586,2L17.87,37.1c-.1-.886-.231-1.77-.293-2.658C17.522,33.658,18.162,33.3,18.717,32.741Zm-3.173.708c.373-.576.673-1.2,1.017-1.793a3.785,3.785,0,0,1,.3-.407c0,.692-.005,1.4-.016,2.113a1.225,1.225,0,0,1-.069.418c-.558,1.428-1.123,2.853-1.71,4.34C15.021,36.526,14.58,34.942,15.544,33.45Zm-.933-.671c.1.652-.281,1.11-.623,1.7C13.67,33.623,14.247,33.243,14.612,32.778Zm-.084,2.815-.013,2.122C13.925,37.009,13.891,36.5,14.528,35.593Zm.1,3.9c-.4.071-.753.141-1.012-.237a1.482,1.482,0,0,1,.059-1.966Zm-1.344-4.5.207.055-.142.7-.17-.027Q13.235,35.357,13.287,34.992Zm-1.712,2.744-.009,1.587C10.961,39.153,10.953,38.928,11.575,37.736ZM1.985,50.773c.469.173.6.479.83.889A1.063,1.063,0,0,1,1.985,50.773Zm4.727,1.305c-.055-.853-.111-1.707-.179-2.754C6.895,49.931,6.937,50.586,6.711,52.078ZM7.865,53.1c-.364-.433-.506-1.16-.574-3.013.4.071.592.266.588.658C7.873,51.526,7.87,52.312,7.865,53.1ZM9,54.108C8.3,53.2,8.491,52.1,8.368,51.014a.636.636,0,0,1,.626.667c.079.787.15,1.575.225,2.363Zm.911.2c-.116-.783-.285-1.558-.464-2.5.657.32.973.633,1,1.238a13.949,13.949,0,0,0,.284,1.679c.037.21.059.423.1.691A1.312,1.312,0,0,1,9.91,54.31Zm1.858,1.752c-.331-.96-.588-1.944-.872-2.919a1.251,1.251,0,0,1,1.147,1.116,18.193,18.193,0,0,1,.335,2.42C12.168,56.475,11.852,56.307,11.767,56.062ZM113.975,96.329l-.909-2.774.194-.072c.429.769.407,1.743,1.045,2.617.2-1.043-.417-1.739-.479-2.672l.968.125a12.9,12.9,0,0,0,1.151,2.869c.239-.645-.068-1.025-.179-1.424-.119-.426-.261-.846-.393-1.269l.186-.057,1.074,3.023Zm3.2.151L116.1,93.8c.909,0,.917-.005,1.131.622.263.771.511,1.547.768,2.331C117.577,96.913,117.316,96.845,117.17,96.48Zm1.343.237c-.31-.882-.6-1.771-.916-2.711.5-.134.548.164.633.39.31.826.607,1.656.918,2.51C118.836,97.075,118.617,97.012,118.513,96.718Zm1.174.376-1.2-3.1.912.127,1.168,3.077Zm.427-2.837.162-.09,1.267,3.12A7.891,7.891,0,0,1,120.115,94.257Zm2.737,2.025-.751-1.715.21-.087A5.6,5.6,0,0,1,123,96.186Zm.4,1.268-.032-.593c.421.414.711.357.888-.252l.506,1.024Z" transform="translate(242.756 335.053) rotate(-45)" fill="#b69564" fill-rule="evenodd"/>
    <g id="beeru-logo" transform="translate(316.185 313.879) rotate(-30)">
      <g id="Group_1090" data-name="Group 1090" transform="translate(1.652 1.689)">
        <path id="Path_8924" data-name="Path 8924" d="M22.777,22.873a11.428,11.428,0,0,1-5.67-1.506,11.437,11.437,0,1,1,0-19.861,11.436,11.436,0,1,1,5.67,21.367Zm-5.67-1.92a.193.193,0,0,1,.1.026,11.052,11.052,0,1,0,0-19.085.194.194,0,0,1-.194,0,11.052,11.052,0,1,0,0,19.085A.193.193,0,0,1,17.107,20.953Z" transform="translate(0 0)" fill="#b69564"/>
      </g>
      <g id="Group_1091" data-name="Group 1091" transform="translate(6.681 7.375)">
        <path id="Path_8925" data-name="Path 8925" d="M3.469,8.008a1.781,1.781,0,0,1-1.07.357H2.189V7.43H1.267V8.463c0,.147-.517.443-1.07.443H0V1.058l1.316.566h.75L2.694.935,3.961,1.944a.833.833,0,0,1-.492.258ZM2.189,7.073V1.981H1.267V7.073Zm7.835.406s.775.689,1.218,1.144c-.037.135-.172.2-.344.2h-2.1v2.362c0,.111-.627.344-1.169.344H7.368V8.82H3.247l-.1-.344H7.368v-2.1l1.845.172c-.025.148-.111.258-.418.308V8.475h.566ZM5.412,6.236c0,.086-.406.381-1.07.381H4.121V1.095l1.451.554h.689C6.347,1.169,6.47.48,6.532,0l1.98.406c-.049.2-.221.3-.492.3-.308.271-.787.652-1.156.947H9.1L9.73.96l1.3,1.009a.866.866,0,0,1-.455.234V6.065a1.956,1.956,0,0,1-1.132.381H9.225v-.5H7.6C7.159,6.864,6.15,7.676,3.862,8.18l-.086-.148A4.3,4.3,0,0,0,6.359,5.941H5.412Zm0-4.244V3.555H6.655V1.993Zm1.07,3.6a4.634,4.634,0,0,0,.172-1.39v-.3H5.412V5.6Zm2.743,0V3.912H7.934v.282a4.49,4.49,0,0,1-.184,1.4Zm-1.292-3.6V3.555H9.225V1.993Z" transform="translate(0 0)" fill="#b69564"/>
      </g>
      <g id="Group_1092" data-name="Group 1092" transform="translate(20.091 7.387)">
        <path id="Path_8926" data-name="Path 8926" d="M9.988,2.325s.972.763,1.562,1.279c-.037.135-.172.2-.357.2H8.844a9.208,9.208,0,0,1-1.71,4.342c5.019,1.882,3.37,3.776,2.079,3.2a14.445,14.445,0,0,0-3-2.251A11.963,11.963,0,0,1,.074,11.476L0,11.329A11.239,11.239,0,0,0,5.129,8.487,27.474,27.474,0,0,0,1.6,6.974,33.448,33.448,0,0,0,2.829,3.8H.185l-.1-.357H2.964C3.432,2.079,3.85.738,4.01,0L6.052.529c-.037.135-.135.258-.516.258-.209.652-.541,1.611-.923,2.657H7.245c.061-.517.1-1.058.123-1.587L9.5,2.312c-.049.209-.209.307-.492.307-.025.283-.062.554-.1.824h.209ZM4.477,3.8C4.071,4.932,3.616,6.1,3.2,7.024c.984.221,1.821.443,2.571.664A8.81,8.81,0,0,0,7.208,3.8Z" transform="translate(0 0)" fill="#b69564"/>
      </g>
      <g id="Group_1093" data-name="Group 1093" transform="translate(0 0)">
        <path id="Path_8927" data-name="Path 8927" d="M24.306,26.324a13.038,13.038,0,0,1-5.572-1.235,13.036,13.036,0,0,1-5.572,1.235A13.162,13.162,0,1,1,13.162,0a13.032,13.032,0,0,1,5.572,1.235A13.034,13.034,0,0,1,24.306,0a13.162,13.162,0,0,1,0,26.324Zm-5.572-2.045a.384.384,0,0,1,.168.038,12.276,12.276,0,0,0,5.4,1.238,12.393,12.393,0,1,0,0-24.786,12.277,12.277,0,0,0-5.4,1.238.384.384,0,0,1-.336,0,12.278,12.278,0,0,0-5.4-1.238,12.393,12.393,0,1,0,0,24.786,12.279,12.279,0,0,0,5.4-1.238A.382.382,0,0,1,18.734,24.279Z" transform="translate(0 0)" fill="#b69564"/>
      </g>
      <g id="Group_1095" data-name="Group 1095" transform="translate(10.635 27.392)">
        <g id="Group_1094" data-name="Group 1094" transform="translate(0 0)">
          <path id="Path_8928" data-name="Path 8928" d="M1.028,3.225Q.945,3.2.836,3.17C.762,3.148.687,3.122.611,3.091s-.151-.062-.225-.1a1.173,1.173,0,0,1-.2-.115.372.372,0,0,1-.175-.422L.6.2A.22.22,0,0,1,.7.054.414.414,0,0,1,.871,0,1.907,1.907,0,0,1,1.3.026a4.881,4.881,0,0,1,.515.105,1.87,1.87,0,0,1,.9.455.728.728,0,0,1,.167.73.6.6,0,0,1-.223.342.739.739,0,0,1-.4.142.868.868,0,0,1,.34.351.668.668,0,0,1,.046.492.811.811,0,0,1-.539.616A1.951,1.951,0,0,1,1.028,3.225ZM.89,2.462a.9.9,0,0,0,.167.072c.07.023.137.043.2.06a.622.622,0,0,0,.343,0,.282.282,0,0,0,.193-.216.257.257,0,0,0-.047-.255.634.634,0,0,0-.307-.152l-.4-.1ZM1.2,1.281l.353.092a.489.489,0,0,0,.322,0,.286.286,0,0,0,.153-.2A.251.251,0,0,0,1.97.934.581.581,0,0,0,1.663.773C1.615.76,1.559.747,1.5.734A1.277,1.277,0,0,0,1.344.71Z" transform="translate(0 0.038)" fill="#b69564"/>
          <path id="Path_8929" data-name="Path 8929" d="M.27.408A.459.459,0,0,1,.436.087.458.458,0,0,1,.789.005L2.425.211a.607.607,0,0,1,.044.152.651.651,0,0,1,0,.192.366.366,0,0,1-.116.257.3.3,0,0,1-.226.052L1.085.733l-.058.461,1.116.141a.6.6,0,0,1,.044.149.629.629,0,0,1,0,.189.374.374,0,0,1-.113.258.292.292,0,0,1-.223.052L.942,1.868l-.066.521,1.274.161a.611.611,0,0,1,.044.152.64.64,0,0,1,0,.192.375.375,0,0,1-.116.26.294.294,0,0,1-.226.055L.408,3.025a.458.458,0,0,1-.321-.166.458.458,0,0,1-.082-.353Z" transform="translate(3.553 0.774)" fill="#b69564"/>
          <path id="Path_8930" data-name="Path 8930" d="M.027.459A.46.46,0,0,1,.156.121.46.46,0,0,1,.5,0L2.146.021a.609.609,0,0,1,.061.146.658.658,0,0,1,.025.19.364.364,0,0,1-.086.269A.3.3,0,0,1,1.928.7L.874.689l-.006.465,1.124.014a.611.611,0,0,1,.061.143.627.627,0,0,1,.025.188.372.372,0,0,1-.083.269.29.29,0,0,1-.216.077L.859,1.834l-.007.525,1.284.016a.605.605,0,0,1,.061.146.641.641,0,0,1,.025.19.374.374,0,0,1-.086.271.294.294,0,0,1-.218.08L.459,3.043a.461.461,0,0,1-.338-.129A.459.459,0,0,1,0,2.573Z" transform="translate(6.773 1.041)" fill="#b69564"/>
          <path id="Path_8931" data-name="Path 8931" d="M1.064,2.163l.108.954A1.435,1.435,0,0,1,1,3.166a1.84,1.84,0,0,1-.229.041,1.051,1.051,0,0,1-.2.005.338.338,0,0,1-.151-.046.276.276,0,0,1-.1-.114.609.609,0,0,1-.053-.205L0,.508A.22.22,0,0,1,.041.34.408.408,0,0,1,.187.231,1.875,1.875,0,0,1,.57.1,3.9,3.9,0,0,1,1.043.018,1.6,1.6,0,0,1,2.109.19a.967.967,0,0,1,.436.74.877.877,0,0,1-.1.544,1.15,1.15,0,0,1-.339.38q.206.223.4.417a3.009,3.009,0,0,1,.317.357.471.471,0,0,1-.151.286.508.508,0,0,1-.285.125.654.654,0,0,1-.192,0,.468.468,0,0,1-.147-.054.583.583,0,0,1-.122-.1,1.492,1.492,0,0,1-.11-.129l-.493-.623Zm.238-.7a.435.435,0,0,0,.287-.131.364.364,0,0,0,.077-.3A.345.345,0,0,0,1.513.767a.62.62,0,0,0-.4-.053A1.156,1.156,0,0,0,1,.733C.969.739.936.748.9.759L.985,1.5Z" transform="translate(9.787 0.799)" fill="#b69564"/>
          <path id="Path_8932" data-name="Path 8932" d="M3.086,1.812a1.27,1.27,0,0,1,.032.5,1.043,1.043,0,0,1-.165.434,1.206,1.206,0,0,1-.352.34,1.753,1.753,0,0,1-.526.222,1.751,1.751,0,0,1-.568.057,1.2,1.2,0,0,1-.471-.13,1.04,1.04,0,0,1-.353-.3A1.273,1.273,0,0,1,.47,2.476L0,.626.163.556A1.588,1.588,0,0,1,.381.483,1.024,1.024,0,0,1,.582.45.355.355,0,0,1,.74.474a.269.269,0,0,1,.118.1.61.61,0,0,1,.081.2l.376,1.477a.511.511,0,0,0,.221.331.458.458,0,0,0,.365.046.457.457,0,0,0,.3-.216.519.519,0,0,0,.033-.4L1.768.177c.034-.016.088-.039.163-.07A1.567,1.567,0,0,1,2.149.034,1.027,1.027,0,0,1,2.35,0a.362.362,0,0,1,.158.024.269.269,0,0,1,.118.1.606.606,0,0,1,.081.2Z" transform="translate(12.915 0)" fill="#b69564"/>
        </g>
      </g>
      <ellipse id="Ellipse_83" data-name="Ellipse 83" cx="0.865" cy="0.865" rx="0.865" ry="0.865" transform="translate(7.915 27.454)" fill="#b69564"/>
      <ellipse id="Ellipse_84" data-name="Ellipse 84" cx="0.865" cy="0.865" rx="0.865" ry="0.865" transform="translate(28.097 27.454)" fill="#b69564"/>
    </g>
    <g id="Group_4084" data-name="Group 4084" transform="translate(281.542 251.727) rotate(-47)">
      <path id="Path_28095" data-name="Path 28095" d="M0,0" transform="translate(24.747 13.371)" fill="none" stroke="#000" stroke-miterlimit="10" stroke-width="0.51"/>
      <g id="Group_4036" data-name="Group 4036" transform="translate(0.149 0)">
        <g id="Group_4018" data-name="Group 4018" transform="translate(12.321 24.603)">
          <path id="Path_28096" data-name="Path 28096" d="M.252.39A.2.2,0,0,0,.3.029.193.193,0,0,0,.006.236.2.2,0,0,0,.252.39Z" transform="translate(0 0)" fill="#fff"/>
        </g>
        <g id="Group_4019" data-name="Group 4019" transform="translate(11.266 21.292)">
          <path id="Path_28097" data-name="Path 28097" d="M.7.893A1.967,1.967,0,0,1,1.483.579.257.257,0,0,0,1.549.1C1.1-.23-.169.325.019.915.131,1.267.642,1.346.7.893Z" transform="translate(0 0)" fill="#fff"/>
        </g>
        <g id="Group_4020" data-name="Group 4020" transform="translate(10.089 18.352)">
          <path id="Path_28098" data-name="Path 28098" d="M.075.114A1.524,1.524,0,0,0,2.454,1.706a2.077,2.077,0,0,0,.914.717c-.335.736.342,1.663,1.6,1.428.129.044.306-.054.456-.135.282-.151.086-.622-.214-.5-1.136.45-1.65-.289-1.445-.735a.689.689,0,0,0,.47-.252h0a.241.241,0,0,0-.286-.379c-.265.121-.634.174-1.154-.484A.863.863,0,0,0,2.97.642c-.139-.258-.748-.051-.784.447C1.446,1.77.457,1.347.4.161A.169.169,0,0,0,.075.114Z" transform="translate(0 0)" fill="#fff"/>
        </g>
        <g id="Group_4021" data-name="Group 4021" transform="translate(15.95 20.239)">
          <path id="Path_28099" data-name="Path 28099" d="M.076,1.884A.171.171,0,0,0,.4,1.865,1.273,1.273,0,0,1,1.038.982a.929.929,0,0,0-.31,1.079A.251.251,0,0,0,1.187,2c.08-.3-.1-.658.545-.734C1.9,1.244,2.1,1.218,2.106,1c0-.18-.208-.308-.515-.267.082-.027.16-.048.231-.066a.558.558,0,0,1,.717.366c.145.393-.073,1.318.339,1.235A.212.212,0,0,0,3,2.184C3.541,1.473,3.19-.146,1.878.011,1.03.111-.337.866.076,1.884Z" transform="translate(0 0)" fill="#fff"/>
        </g>
        <g id="Group_4022" data-name="Group 4022" transform="translate(16.637 22.498)">
          <path id="Path_28100" data-name="Path 28100" d="M.509,1.246a.831.831,0,0,0,.317-.2C1.084.838.88.1.454.008A.318.318,0,0,0,.105.183C.044.268-.033.374.015.474A.256.256,0,0,0,.24.583.327.327,0,0,1,.283.666C-.083,1.023.222,1.32.509,1.246Z" transform="translate(0 0)" fill="#fff"/>
        </g>
        <g id="Group_4023" data-name="Group 4023" transform="translate(16.548 23.279)">
          <path id="Path_28101" data-name="Path 28101" d="M.211,1.754c.819.231,2.205-.6,2.124-1.6,0-.032-.01-.128-.092-.152-.1-.029-.172.065-.334.272a2.031,2.031,0,0,1-1.074.846,2.124,2.124,0,0,1-.482.061.325.325,0,0,0-.2.041A.287.287,0,0,0,.211,1.754Z" transform="translate(0 0)" fill="#fff"/>
        </g>
        <path id="Path_28102" data-name="Path 28102" d="M1.659.022A2.312,2.312,0,0,1,1.263,0,1.578,1.578,0,0,0,.047.788.426.426,0,0,0,.321,1.4c0,.011,0,.021,0,.033a.585.585,0,0,0,.346.5.407.407,0,0,0,.561-.177.291.291,0,0,0-.007-.192A.257.257,0,0,0,1.212,1.5a.215.215,0,0,0-.087-.13l-.2-.359c.293-.42.573-.687.768-.725A.133.133,0,0,0,1.659.022Z" transform="translate(12.085 22.708)" fill="#fff"/>
        <g id="Group_4024" data-name="Group 4024" transform="translate(12.839 24.781)">
          <path id="Path_28103" data-name="Path 28103" d="M.155.005a.212.212,0,0,0,0,.409A.212.212,0,0,0,.37.089.208.208,0,0,0,.155.005Z" transform="translate(0 0)" fill="#fff"/>
        </g>
        <g id="Group_4025" data-name="Group 4025" transform="translate(0 34.331)">
          <path id="Path_28104" data-name="Path 28104" d="M1.621.945C1.515.739,1,.76.862.7.695.622.318-.015.179,0-.055.026-.011.5.043.617a1.3,1.3,0,0,0,1.089.746C1.537,1.37,1.7,1.092,1.621.945Z" transform="translate(0 0)" fill="#fff"/>
        </g>
        <g id="Group_4026" data-name="Group 4026" transform="translate(0.891 35.908)">
          <path id="Path_28105" data-name="Path 28105" d="M1.31,1.34,1.3,1.4h0L1.31,1.34h0c-.157-.03,0-.368-.124-.659C1,.228.542.378.471.175A.236.236,0,0,0,.008.21C-.038.4.1.676.535.784c.194.048.207.069.207.288,0,.563.121.7.64.866a.279.279,0,0,0,.383-.254C1.786,1.43,1.453,1.367,1.31,1.34Z" transform="translate(0 0)" fill="#fff"/>
        </g>
        <g id="Group_4027" data-name="Group 4027" transform="translate(13.669 33.021)">
          <path id="Path_28106" data-name="Path 28106" d="M.146.878A.638.638,0,0,0,.675.951.662.662,0,0,0,1.228.315.328.328,0,0,0,.678.087C.5.241.586.281.31.286A.321.321,0,0,0,.146.878Z" transform="translate(0 0)" fill="#fff"/>
        </g>
        <g id="Group_4028" data-name="Group 4028" transform="translate(6.328 31.398)">
          <path id="Path_28107" data-name="Path 28107" d="M5.667.02A21.042,21.042,0,0,0,.1,2.145c-.055.033-.131.079-.094.155.086.179.51-.169,3.82-1.258C5.327.549,5.951.313,6.96.646A.16.16,0,0,0,7.139.611a.168.168,0,0,0,0-.193C7.038.223,6.612-.08,5.667.02Z" transform="translate(0 0)" fill="#fff"/>
        </g>
        <g id="Group_4029" data-name="Group 4029" transform="translate(19.996 23.333)">
          <path id="Path_28108" data-name="Path 28108" d="M2.744.646C2.355,1.027,1.63,1.736.751.932A1.777,1.777,0,0,1,.329.113.162.162,0,0,0,.018.124a1.6,1.6,0,0,0,2,1.607C3.034,1.472,3.226.557,3.043.471c-.081-.038-.149.029-.3.175l.041.043h0Z" transform="translate(0 0)" fill="#fff"/>
        </g>
        <g id="Group_4030" data-name="Group 4030" transform="translate(3.584 20.543)">
          <path id="Path_28109" data-name="Path 28109" d="M2.469.6a.562.562,0,0,1-.3-.354A.426.426,0,0,1,2.157.2L.93.534C.457.361.541.2.373.06.1-.17-.263.3.281.782c.49.432,1.415.277,1.452,1.158a.286.286,0,0,0,.486.186.268.268,0,0,0,.061-.292A1.445,1.445,0,0,0,1.648.821Z" transform="translate(0 11.15)" fill="#fff"/>
          <path id="Path_28110" data-name="Path 28110" d="M9.177,6.4c-.168.142-.357.506-.562.56a1.818,1.818,0,0,0,.309-1.285c-.033-.1-.211-.205-.26.09A2.822,2.822,0,0,1,7.21,7.49c-1.143.688-3.634,1.1-3.742-.23-.017-.21.076-.226.2-.371.088-.1.163-.314.237-.389.131-.133.345-.377.364-.4A.278.278,0,0,0,4.1,5.651c-.143-.023-.209.083-.294.186a4.854,4.854,0,0,0-.356.472,1.575,1.575,0,0,1-1.217.274.88.88,0,0,0-.645-1.16.477.477,0,0,1-.357-.248c-.221-.337.206-.766.356-1.118C2.115,2.836.565,1.861.54.847.53.43.854.222.638.047.35-.188-.184.5.064,1.291A6.656,6.656,0,0,0,.922,2.767C1.72,4.054.38,4.16.7,5.218c.184.615.9.642,1,.969.091.309-.3.376-.171.639.107.222.576.351.985.374-.244.172,0,.582.535.537.517.955,1.943.944,3,.715-.522.149-1.16.328-1.867.525a.611.611,0,0,1-.271.514q-.133.1-.274.186l1.19-.311a11.618,11.618,0,0,0-1.066.966.107.107,0,0,0-.017.151c.171.229,1.019-.754,1.171-.864,1.2-.869,2.775-1.062,3.832-2.065a3.9,3.9,0,0,1,2.1-1.068c.276-.031.6-.083.572-.379C11.375,5.7,10.077,5.64,9.177,6.4Z" transform="translate(6.669 0)" fill="#fff"/>
        </g>
        <g id="Group_4031" data-name="Group 4031" transform="translate(2.88 33.453)">
          <path id="Path_28111" data-name="Path 28111" d="M4.441,3.492a8.286,8.286,0,0,1,1.89-.046,10.08,10.08,0,0,0,4.8-.843,2.473,2.473,0,0,1,1.64-.386,6.132,6.132,0,0,0,3.345-.683A5.336,5.336,0,0,1,18.775.71C19.1.58,19.133.041,18.022,0a3.615,3.615,0,0,0-1.869.615,6.524,6.524,0,0,1-3.392.855,4.794,4.794,0,0,0-1.246.172A15.117,15.117,0,0,1,7.868,2.669c-1.063.129-1.611.062-2.814.248a7.844,7.844,0,0,0-1.233.057,6.028,6.028,0,0,0-1.013.484,5.61,5.61,0,0,1-2.24.667.716.716,0,0,0-.458.07c-.207.176-.1.413.143.513a1.451,1.451,0,0,0,.792-.048C2.493,4.309,2.473,4.046,4.441,3.492Z" transform="translate(0 0)" fill="#fff"/>
        </g>
        <g id="Group_4032" data-name="Group 4032" transform="translate(3.503 38.619)">
          <path id="Path_28112" data-name="Path 28112" d="M.01.13c.055,0,.077,0,.141,0L.2.03.1,0,0,.011Z" transform="translate(0 0)" fill="#fff"/>
        </g>
        <g id="Group_4033" data-name="Group 4033" transform="translate(7.619 17.436)">
          <path id="Path_28113" data-name="Path 28113" d="M1.943,4.251a.278.278,0,0,0,.032-.537A1.565,1.565,0,0,1,.739,2.934a1.213,1.213,0,0,1-.095-.749,1.828,1.828,0,0,1,.334-.737c.168-.134-.031-.4-.209-.287l-.221.135C.715.777,1.164.51,1.979.435A.169.169,0,0,0,2.127.3C2.151.189,2.068.149,2,.108A.625.625,0,0,0,1.685,0C.153,0-.231,1.7.122,1.968a.188.188,0,0,0,.092.038A1.776,1.776,0,0,0,1.943,4.251Z" transform="translate(0 0)" fill="#fff"/>
        </g>
        <g id="Group_4034" data-name="Group 4034" transform="translate(15.241 12.519)">
          <path id="Path_28114" data-name="Path 28114" d="M.026,1.287a.1.1,0,0,0,.153.136C1.98-.608,4.023.6,3.585,1.879c-.073.214.225.326.343.154a.849.849,0,0,1,1.549.609.242.242,0,0,0,.405.225.618.618,0,0,1,1.006.51c.056.7-.579,1.157-1.072,1.571a.193.193,0,0,0,.167.33,2.333,2.333,0,0,0,1.07-.794C7.926,3.347,7,1.912,5.927,2.284A1.267,1.267,0,0,0,4.007,1.45C3.884.056,1.844-.886.026,1.287Z" transform="translate(0 0)" fill="#fff"/>
        </g>
        <g id="Group_4035" data-name="Group 4035" transform="translate(21.502 18.562)">
          <path id="Path_28115" data-name="Path 28115" d="M.454,0A.152.152,0,0,0,.378.3,1.178,1.178,0,0,1,1.14,1.5c-.1.706-.734.908-1.028,1.034a.206.206,0,0,0,.042.382,1.3,1.3,0,0,0,1.3-.655A1.464,1.464,0,0,0,.454,0Z" transform="translate(0 0)" fill="#fff"/>
        </g>
        <path id="Path_28116" data-name="Path 28116" d="M21.5,2.841A2.876,2.876,0,0,0,21.2.594a.276.276,0,0,0-.341-.12.281.281,0,0,0-.168.32,2.118,2.118,0,0,1-.525,1.566,4.273,4.273,0,0,1-1.6,1.1,2.86,2.86,0,0,1-1.014.3,3.529,3.529,0,0,1-1-.177c-.453-.119-.9-.249-1.356-.363a2.011,2.011,0,0,0,.483-.11,5.139,5.139,0,0,0,1.652-1.2,2.824,2.824,0,0,0,.995-1.73c.023-.248-.363-.257-.386-.011a2.4,2.4,0,0,1-.847,1.435c-.232.224-.477.438-.727.642a2.718,2.718,0,0,1-.87.52,5.748,5.748,0,0,1-2.062-.062,5.205,5.205,0,0,0-1.949.274A5.311,5.311,0,0,0,9.56,4.141a.172.172,0,0,0-.054.177,5.593,5.593,0,0,0-1.689,2A3.642,3.642,0,0,0,7.5,8.429a2.737,2.737,0,0,0,.36.988,1.276,1.276,0,0,0,.523.516,2.091,2.091,0,0,0-.115.679,2.649,2.649,0,0,0-2.883,1.475A2.864,2.864,0,0,0,2.042,13.1c-.342.443-.682,1.176-.461,1.644A2.432,2.432,0,0,0,.018,17.294a.12.12,0,0,0,.144.1.114.114,0,0,0,.091-.115C.23,15.4,2.482,14.4,2.67,15.619a.152.152,0,0,0,.282.043c.25-.473-.221-1.167-1.143-.976A2.661,2.661,0,0,1,4.75,12.449c.176.023.344.071.529.087,0,.058.02.126.089.144.177.045.347-.467.456-.64a2.217,2.217,0,0,1,3.621-.17,1.556,1.556,0,0,1,1.74-.391c.347.165.707.46.617.836-.047.2-.3.212-.3.413a.151.151,0,0,0,.085.171.328.328,0,0,0,.422-.024,4.677,4.677,0,0,1,1.83.224.29.29,0,0,0,.216.465c.739.062,1.826.542,1.6.692-.154.1-.413-.015-.592-.087-.333-.129-.557.328-.339.556,1.408,1.471,2.455,2.822,1.36,4.671a.255.255,0,0,0,.307.364,1.077,1.077,0,0,1,.729.318,1.05,1.05,0,0,1,.279.893c-.086.971-.931,1.317-1.193,1.567a.25.25,0,0,0,.019.5c.4.018.735.511.334.782a.547.547,0,0,1-.4.063c-.194-.016-.4.231-.167.493-.443.89-1.409.712-1.3.158a.159.159,0,0,0-.264-.149c-.212.195-.252.514-.389.72a1.391,1.391,0,0,1-1.376.639c-.256-.12-.316-.209-.418-.165-.092-.018-.169.06-.1.175.029.183.53.755,1.5.506a1.589,1.589,0,0,0,.839-.539c.714.4,2.1-.426,1.946-1.307a.967.967,0,0,0,.566-1.646c1.528-1.084,1.147-2.963-.136-3.395a1.847,1.847,0,0,0,.36-.837,4.172,4.172,0,0,0-1.4-3.634c.627-.23,1.041-1.18-.77-1.732-.119-.387-1.719-.8-2.75-.69.286-.694-.321-1.368-1.146-1.54a.348.348,0,0,0,.065-.105,1.323,1.323,0,0,0,.062-.754.192.192,0,0,0,.066-.228.616.616,0,0,1,.234-.667,1.716,1.716,0,0,1,.91-.29A6.715,6.715,0,0,1,14.6,9c.652.14,1.277.387,1.932.513a3.286,3.286,0,0,0,2.016-.173,2.112,2.112,0,0,0,1.22-1.585.231.231,0,0,0-.14-.219.243.243,0,0,0-.257.044,1.739,1.739,0,0,1-1.272.309q.109-.027.216-.057a11.286,11.286,0,0,0,1.628-.576,3.182,3.182,0,0,0,1.788-2.339,4.689,4.689,0,0,0-.063-1.911A.209.209,0,0,0,21.5,2.841ZM9.343,11.1a.969.969,0,0,0,.341.106l0,0c-.041.027-.083.055-.123.085A2.626,2.626,0,0,0,9.343,11.1Zm1-.162.167-.133.083,0a.212.212,0,0,0,.1-.025.277.277,0,0,0,.042.111A1.974,1.974,0,0,0,10.342,10.943Zm.412-.421,0-.007a.216.216,0,0,0-.026-.078l.044,0A.846.846,0,0,1,10.754,10.522Zm10.13-7.578a3.612,3.612,0,0,1-1.316,1.431A6.565,6.565,0,0,1,15.9,5.543a6.334,6.334,0,0,1-2.156-.351c-.336-.117-.492.412-.157.529a7.008,7.008,0,0,0,4.265.081,6.926,6.926,0,0,0,1.952-.92A4.577,4.577,0,0,0,21.268,3.4a3.476,3.476,0,0,1-.425,2.5,2.544,2.544,0,0,1-1.017.892,9.46,9.46,0,0,1-1.457.535,3.875,3.875,0,0,1-1.723.2c-.272-.041-.314.378-.074.459a4.013,4.013,0,0,0,2.548.246,1.82,1.82,0,0,1-.922.751,3.249,3.249,0,0,1-1.97-.018,18.582,18.582,0,0,0-2-.5,6.405,6.405,0,0,0-2.142.017,1.61,1.61,0,0,0-.982.538,1.051,1.051,0,0,0-.228.834,1.444,1.444,0,0,1-.79-.045,8.279,8.279,0,0,1-.878-.2A2.13,2.13,0,0,0,8.833,9.5a.267.267,0,0,0-.147-.046c-.222-.008-.368-.322-.451-.49a2.292,2.292,0,0,1-.221-.8A3.113,3.113,0,0,1,8.348,6.48,4.923,4.923,0,0,1,9.516,5.036a8.031,8.031,0,0,1,1.608-1.1,4.171,4.171,0,0,1,1.907-.476,7.806,7.806,0,0,1,1.879.266c.637.156,1.263.35,1.9.5a2.494,2.494,0,0,0,1.1.049,4.943,4.943,0,0,0,.987-.358A4.513,4.513,0,0,0,20.673,2.6a2.863,2.863,0,0,0,.379-.661A2.206,2.206,0,0,1,20.883,2.944Z" transform="translate(9.49 0)" fill="#fff"/>
      </g>
      <path id="Path_28117" data-name="Path 28117" d="M1.242,0A.289.289,0,0,1,1.1.324a.848.848,0,0,1-.37.09L0,.477.418.337" transform="translate(1.824 33.383)" fill="none" stroke="#fff" stroke-miterlimit="10" stroke-width="0.51"/>
      <g id="Group_4037" data-name="Group 4037" transform="translate(0.354 29.507)">
        <path id="Path_28118" data-name="Path 28118" d="M17.125.043a1.8,1.8,0,0,0-1.084.122,5.145,5.145,0,0,0-2.773,2.249c-.072.124-.136.251-.2.381l-.008.018a2.143,2.143,0,0,0-1.038-.253.688.688,0,0,0-.152.014.826.826,0,0,0-.592-.113,27.534,27.534,0,0,0-3.547.885c-.625.2-1.24.427-1.85.669q-.413.163-.82.34a1.675,1.675,0,0,0-.381.224,2.075,2.075,0,0,0-.771-.5,4.918,4.918,0,0,0-.7-.22A3.025,3.025,0,0,0,2.3,3.735a2.073,2.073,0,0,0-.7.16,3.278,3.278,0,0,0-.388.206l-.086.048h0L1.084,4.13a.766.766,0,0,0-.543-.083A.74.74,0,0,0,.156,4.3.724.724,0,0,0,.2,5.242a1.027,1.027,0,0,0,.569.333,5.1,5.1,0,0,1,.469.309l0,0,.08.068c.063.054.124.111.183.169s.093.093.138.142a.664.664,0,0,0-.137.608.728.728,0,0,0,.867.526A3.034,3.034,0,0,1,2.7,7.331l.054,0c.049,0,.1,0,.147-.006.231,0,.461.01.691.028a7.111,7.111,0,0,0,1.317.022A3.017,3.017,0,0,0,6.121,7a2.09,2.09,0,0,0,.7-.652,4.45,4.45,0,0,0,1.346-.266.782.782,0,0,0,.443-.325l.018-.032a25.611,25.611,0,0,0,3.905-1.174c.037.052.077.1.119.151a1.195,1.195,0,0,0,1.595.244c.139-.093.273-.19.417-.273a4.327,4.327,0,0,1,.4-.2l.078-.033c.088-.029.174-.06.263-.086a2.763,2.763,0,0,0,1-.45,1.553,1.553,0,0,0,.49-.8c.059-.218.075-.446.13-.665.01-.039.022-.077.034-.115l-.016.02a.205.205,0,0,0,.021-.037v0s0-.008.005-.017c.014-.044.033-.056.029-.036a.1.1,0,0,0,.015-.025l-.006.018c.051-.052.106-.1.16-.148a1.431,1.431,0,0,0,.534-.98A1.034,1.034,0,0,0,17.125.043Z" transform="translate(0 0)" fill="#163d50"/>
        <path id="Path_28119" data-name="Path 28119" d="M.041.007l0,0h0A.2.2,0,0,0,.012.044h0l0,.016h0l0,0L0,.081.017.056A.145.145,0,0,0,.05,0L.041.009Z" transform="translate(17.062 2.237)" fill="#163d50"/>
      </g>
      <path id="Path_28120" data-name="Path 28120" d="M5.116,1.018A2.414,2.414,0,0,0,2.837.309a1.6,1.6,0,0,1-.66.023C1.929.279,1.684.21,1.439.149A2.547,2.547,0,0,0,.74,0C.47.014.328.243.225.464a2.385,2.385,0,0,0-.175,1.5c.072.348.608.216.536-.131a1.793,1.793,0,0,1-.016-.656A1.9,1.9,0,0,1,.665.831,1.359,1.359,0,0,1,.726.69C.733.676.786.6.806.557l.008,0a.956.956,0,0,0,.208.052l.416.1L1.46.722a.3.3,0,0,0,.254.188l1.656.209a4.949,4.949,0,0,1,1.406.326.281.281,0,0,0,.357-.065A.278.278,0,0,0,5.116,1.018Z" transform="translate(0 32.747)" fill="#fff"/>
      <g id="Group_4053" data-name="Group 4053" transform="translate(19.61 26.351)">
        <g id="Group_4038" data-name="Group 4038" transform="translate(13.507 7.387)">
          <path id="Path_28121" data-name="Path 28121" d="M4.567,7.884A14.676,14.676,0,0,1,.085,10.5a.168.168,0,0,0,.081.314c3.194.027,8.885-5.148,7.96-10.7a.154.154,0,0,0-.3.026C7.81.307,7.812.471,7.809.63A11.078,11.078,0,0,1,4.567,7.884Z" transform="translate(0 0)" fill="#fff"/>
        </g>
        <g id="Group_4039" data-name="Group 4039" transform="translate(32.968 27.714)">
          <path id="Path_28122" data-name="Path 28122" d="M.128,0A.133.133,0,0,0,.121.268.53.53,0,0,1,.594.7.135.135,0,0,0,.75.808C1.05.769.728-.048.128,0Z" transform="translate(0 0)" fill="#fff"/>
        </g>
        <g id="Group_4040" data-name="Group 4040" transform="translate(16.64 25.011)">
          <path id="Path_28123" data-name="Path 28123" d="M16.334,3.42c-.1-.117-.282-.116-.4-.225-1.059-.962-1.8-.865-3.9-2A7.731,7.731,0,0,0,7.5.658C6.692.741,5.879.823,5.065.833,4.745.837,4.424.8,4.1.8A10.814,10.814,0,0,1,2.831.911,6.154,6.154,0,0,1,1.585.647,3.191,3.191,0,0,1,.709.23C.588.138.344-.036.181.007c-.3.078.142.472.246.569a2.331,2.331,0,0,0,1.336.612c.219.023.424.1.642.11a7.946,7.946,0,0,0,.976,0c.6-.034,1.2,0,1.808.014a21.146,21.146,0,0,0,2.4-.162c4.944-.48,3.773.793,6.45,1.451a7.037,7.037,0,0,1,2.137,1.252c.325.223.5-.034.371-.215A3.029,3.029,0,0,0,16.334,3.42ZM.031.115A.242.242,0,0,0,.019.2.049.049,0,0,1,.031.115Z" transform="translate(0 0)" fill="#fff"/>
        </g>
        <g id="Group_4041" data-name="Group 4041" transform="translate(28.381 20.802)">
          <path id="Path_28124" data-name="Path 28124" d="M5.868,5.906a2.046,2.046,0,0,0-.3-1c-.6-.963-1.926-.988-2.468-1.689a2.646,2.646,0,0,1-.288-1.51C2.733.1,1.692-.542.093.522A.2.2,0,0,0,.3.864c.936-.513,1.655-.721,1.964.3.246.813-.065,1.712.551,2.438.837.986,2.531.532,2.585,2.684,0,.15-.124.294-.095.473.045.275.277.133.347.177A1.087,1.087,0,0,1,5.7,7.8c-.053.124-.17.172-.239.311-.092.185.058.4.248.317.142-.062.168-.2.26-.4a1.774,1.774,0,0,0,.134-.379.157.157,0,0,0,.264.114,1.12,1.12,0,0,0,.167-1.106A1.387,1.387,0,0,0,5.868,5.906Zm.251,1.66a1.321,1.321,0,0,0-.109-.624c-.066-.155-.126-.16-.238-.416A1.406,1.406,0,0,0,5.82,6.37a.894.894,0,0,1,.4.809A2.263,2.263,0,0,1,6.119,7.566Z" transform="translate(0 0)" fill="#fff"/>
        </g>
        <g id="Group_4042" data-name="Group 4042" transform="translate(29.913 22.649)">
          <path id="Path_28125" data-name="Path 28125" d="M.149.075C-.158,1.094.073,1.767.27,1.727c.1-.021.072-.128.063-.238a2.468,2.468,0,0,0,.153.368.156.156,0,0,0,.182.084c.138-.036.141-.142.17-.471a.1.1,0,0,0,.07-.049c.046-.078-.027-.16-.09-.23a.163.163,0,0,0-.242-.027A2.807,2.807,0,0,1,.487.336C.491.212.372.189.321.262.33.219.339.175.351.132A.105.105,0,0,0,.149.075Z" transform="translate(0 0)" fill="#fff"/>
        </g>
        <g id="Group_4043" data-name="Group 4043" transform="translate(10.585 7.665)">
          <path id="Path_28126" data-name="Path 28126" d="M8.549.079a9.427,9.427,0,0,1-3.6,3.409c-.811.481-1.671.905-2.492,1.374A10.556,10.556,0,0,0,0,6.569l0,.05c.068.033.088.047.154,0,1.572-1.148,3.5-1.774,5.185-2.75C6.685,3.092,8.473,1.737,8.874.221A.18.18,0,0,0,8.549.079Z" transform="translate(0 0)" fill="#fff"/>
        </g>
        <g id="Group_4044" data-name="Group 4044" transform="translate(33.481 0.563)">
          <path id="Path_28127" data-name="Path 28127" d="M.019.611A.138.138,0,0,0,.254.754a.633.633,0,0,1,.789-.21,1.847,1.847,0,0,1,.5.3.111.111,0,0,0,.187-.1C1.584-.131.531-.306.019.611Z" transform="translate(0 0)" fill="#fff"/>
        </g>
        <g id="Group_4045" data-name="Group 4045" transform="translate(33.934 0)">
          <path id="Path_28128" data-name="Path 28128" d="M.2.363A.376.376,0,0,1,.621.494.175.175,0,1,0,.9.281C.569-.148-.09-.027.01.253A.163.163,0,0,0,.2.363Z" transform="translate(0 0)" fill="#fff"/>
        </g>
        <g id="Group_4046" data-name="Group 4046" transform="translate(26.71 0.34)">
          <path id="Path_28129" data-name="Path 28129" d="M.445.306A1.733,1.733,0,0,0,.024,1.859a.857.857,0,0,1,.18.017C.215.245.97.207,2.531.667A2.5,2.5,0,0,0,4.618.6,2.131,2.131,0,0,1,6.48.551c.188.1.284-.219.1-.312a2.533,2.533,0,0,0-2.111,0A2.854,2.854,0,0,1,2.281.2,1.837,1.837,0,0,0,.445.306Z" transform="translate(0 0)" fill="#fff"/>
        </g>
        <g id="Group_4047" data-name="Group 4047" transform="translate(28.993 1.367)">
          <path id="Path_28130" data-name="Path 28130" d="M.148,0A.125.125,0,0,0,.07.237C.75.549,1.68.417,1.6.12A.14.14,0,0,0,1.475.014a1.094,1.094,0,0,0-.363.03L1.125.1h0L1.112.044C1.041.045,1,.137.148,0Z" transform="translate(0 0)" fill="#fff"/>
        </g>
        <g id="Group_4048" data-name="Group 4048" transform="translate(27.596 2.968)">
          <path id="Path_28131" data-name="Path 28131" d="M.61.169A.146.146,0,0,0,.546.055C.316-.123.015.16,0,.486c-.014.3.241.512.394.446C.515.879.5.752.43.641.239.357.613.375.61.169Z" transform="translate(0 0)" fill="#fff"/>
        </g>
        <g id="Group_4049" data-name="Group 4049" transform="translate(24.262 2.655)">
          <path id="Path_28132" data-name="Path 28132" d="M.181,5.458c.609-2.74,2.246-3.242,2.826-4.007A1.049,1.049,0,0,0,3.1.1C2.932-.088,2.784.017,2.836.18c.357,1.1-.892,1.5-1.707,2.5A4.182,4.182,0,0,0,.044,5.57C.114,5.559.158,5.564.181,5.458Z" transform="translate(0 0)" fill="#fff"/>
        </g>
        <g id="Group_4050" data-name="Group 4050" transform="translate(23.538 8.069)">
          <path id="Path_28133" data-name="Path 28133" d="M.895.144c-.219.771-.221.77-.25.9C.7.3.822.174.68.128a.1.1,0,0,0-.116.05,3.148,3.148,0,0,0-.277.956A2.547,2.547,0,0,1,.566.155C.606.077.573.05.528,0L.48.01A1.367,1.367,0,0,0,.074.783c-.225.951.127,1,.181.839.005,1.022.359.991.411.772.13.382.3.4.371.315.169.266.295.2.429.162A3.576,3.576,0,0,1,.895.144Z" transform="translate(0 0)" fill="#fff"/>
        </g>
        <g id="Group_4051" data-name="Group 4051" transform="translate(14.832 1.603)">
          <path id="Path_28134" data-name="Path 28134" d="M20.356.077h0c-1.639-.446-3.029,1.162-4.156,1.78-2.151,1.18-.722,5.112-2.708,7.846a13.055,13.055,0,0,1-6.606,3.39,19.171,19.171,0,0,0,.781-7.548,9.856,9.856,0,0,1,1.312.136c.138,0,.654-.458-1.317-.469A5.726,5.726,0,0,0,6.224,5.4,3.261,3.261,0,0,0,2.113,2.858c-.053.019-.1.037-.152.052a.146.146,0,0,0,.049.286,1.843,1.843,0,0,1,.5.042,4.006,4.006,0,0,1,1.314.4A2.921,2.921,0,0,1,5.39,5.692c.057.244.1.42.238.495a.489.489,0,0,0,.648-.462A5.367,5.367,0,0,1,7.434,5.55c-.04.407.019,1-.033,2.185C7.168,13.08,4.8,18.447,0,20.655c.151.181.193.232.35.425A12.434,12.434,0,0,0,5.588,16.1c.644,1.632.16,2.834.764,2.525.369-.188.126-1.955-.464-3.072a14.433,14.433,0,0,0,.79-1.831l.156-.027-.015.071c3.5-.58,7.377-2.968,7.929-4.987,1.3-4.743-.047-5.022,2.085-6.552S19.046.635,20.349.333a.131.131,0,0,0,.1-.13A.125.125,0,0,0,20.356.077Z" transform="translate(0 0)" fill="#fff"/>
        </g>
        <g id="Group_4052" data-name="Group 4052" transform="translate(20.845 20.134)">
          <path id="Path_28135" data-name="Path 28135" d="M4.851.613C2.3-.438.151.1.031.5c0,0,0,0,0,0S.008.577.008.575,0,.594,0,.6L.031.628V.608a.2.2,0,0,0,.017.04A1.142,1.142,0,0,1,.136.734.23.23,0,0,0,.312.763,3.975,3.975,0,0,1,2.033.41,9.073,9.073,0,0,1,6.575,2.1c.149.09.308.142.44.221a.179.179,0,0,0,.27-.123C7.328,1.982,6.084,1.12,4.851.613Z" transform="translate(0 0)" fill="#fff"/>
        </g>
        <path id="Path_28136" data-name="Path 28136" d="M17.157.2a5.469,5.469,0,0,1-.6,2.527A2.952,2.952,0,0,0,14.267,2.4a.093.093,0,0,0-.034.1c.023.078.1.071.318.093a4.1,4.1,0,0,1,1.82.474c-1.63,2.709-5.465,3.809-7.38,6.544a5.847,5.847,0,0,0-.142.746q-.2-.025-.406-.057A12.751,12.751,0,0,1,6.178,9.73a13.74,13.74,0,0,1-4.087-2.3A15.391,15.391,0,0,1,.161,5.586.091.091,0,0,0,.017,5.7a11.151,11.151,0,0,0,3.46,3.386,13.319,13.319,0,0,0,4.578,1.81,12.65,12.65,0,0,0,1.336.182c.238.019.478.037.716.036A1.508,1.508,0,0,0,10.827,11a.241.241,0,0,0,0-.438,1.591,1.591,0,0,0-.6-.1c-.2-.015-.393-.014-.589-.026q-.358-.022-.714-.064c2.1-3.352,5.87-3.765,7.913-7,.234.177.492.457.642.305a.168.168,0,0,0,.042-.166,1.057,1.057,0,0,0-.476-.5,5.105,5.105,0,0,0,.582-1.832,2.743,2.743,0,0,0-.1-1.045C17.469-.087,17.157-.011,17.157.2Z" transform="translate(0 4.692)" fill="#fff"/>
        <path id="Path_28137" data-name="Path 28137" d="M5.864,8.912A24.889,24.889,0,0,1,3.2,5.685c-.4-.574-.765-1.161-1.131-1.754-.183-.3-.356-.6-.529-.9s-.37-.585-.537-.888C.817,1.8.659,1.424.5,1.061S.212.344.028.007C.021-.006,0,0,0,.015A6.129,6.129,0,0,0,.308.989q.185.5.395.992c.139.326.26.658.391.987s.3.648.462.964A21.376,21.376,0,0,0,3.922,7.489q.756.938,1.6,1.8C5.75,9.528,6.094,9.147,5.864,8.912Z" transform="translate(10.777 15.539)" fill="#fff"/>
      </g>
      <g id="Group_4068" data-name="Group 4068" transform="translate(22.155 6.339)">
        <g id="Group_4054" data-name="Group 4054" transform="translate(2.969 0.778)">
          <path id="Path_28138" data-name="Path 28138" d="M.113,19.677a.225.225,0,0,0-.079.315.207.207,0,0,0,.291.081c2.115-1.22,2.908-3.5,3.674-5.71a14.122,14.122,0,0,1,1.81-3.9C7.394,8.253,9.565,6.919,13.6.676a6.9,6.9,0,0,1-.753,4.634C11.094,7.036,9.92,8.332,8.3,10.136a.16.16,0,0,0,.214.237A14.413,14.413,0,0,0,13,5.562c1.967-1.9,3.582-3.227,4.01-3.612.366-.329.613-.543.847-.436.694.318-.444,1.914-.909,2.516C16.011,5.249,15.5,5.3,15.713,5.609a.251.251,0,0,0,.256.109l.007.014A15.12,15.12,0,0,0,17.3,4.685,2.417,2.417,0,0,1,16.975,5.8a6.756,6.756,0,0,1-1.92,2.469A15.044,15.044,0,0,1,9.2,11.545a11.744,11.744,0,0,1-1.424.4c-.237.042-.159.4.076.361.462-.082.941-.138,1.4-.246A15.044,15.044,0,0,0,13.4,10.248c.306.256,4.128-2.4,5.578-4.021.178-.2.422-.471.638-.415.5.13.047,1.078-.123,1.459a8.024,8.024,0,0,1-2.6,3.121,29.815,29.815,0,0,0-3.936,1.691.243.243,0,1,0,.073.479,9.238,9.238,0,0,0,3.924-1.728c1.8-.65,2.337-.815,2.667-.66.121.057.225-.119.1-.185-.606-.327-.951-.236-1.888.071a10.363,10.363,0,0,0,1.9-2.583c.253-.472.625-1.113.387-1.635a.637.637,0,0,0-.6-.395,1.138,1.138,0,0,0-.711.427A27.716,27.716,0,0,1,15.4,8.743a8.574,8.574,0,0,0,1.61-1.8,3.354,3.354,0,0,0,.541-1.224,4.517,4.517,0,0,0,.013-1.32.123.123,0,0,0-.065-.093,4.963,4.963,0,0,0,.661-1.259c.185-.445.438-1.055.146-1.525a.691.691,0,0,0-.542-.338,1.054,1.054,0,0,0-.707.319c-1.219,1.009-2.462,2.121-3.7,3.311a8.265,8.265,0,0,0,.578-2.071A8.25,8.25,0,0,0,13.87.153a.2.2,0,0,0-.363-.067C12.047,2.038,10.772,3.995,8.948,6.1c-.517.6-1.072,1.173-1.6,1.753-3.376,3.668-3,4.578-4.4,8.1A7.1,7.1,0,0,1,.113,19.677Zm12.164-13.4A13.3,13.3,0,0,1,9.615,9.079C10.412,8.178,11.29,7.252,12.277,6.274Z" transform="translate(0 0)" fill="#fff"/>
        </g>
        <g id="Group_4055" data-name="Group 4055" transform="translate(22.802 11.18)">
          <path id="Path_28139" data-name="Path 28139" d="M.006,0C0,0,0,.019.01.016A.008.008,0,0,0,.006,0Z" transform="translate(0 0)" fill="#fff"/>
        </g>
        <g id="Group_4056" data-name="Group 4056" transform="translate(22.742 11.115)">
          <path id="Path_28140" data-name="Path 28140" d="M.084.138A.068.068,0,0,0,.133.056L.124.029.077,0,.051.007A.068.068,0,0,0,0,.089L.011.116.057.145ZM.054.023A.052.052,0,0,1,.118.06.052.052,0,1,1,.054.023Z" transform="translate(0 0)" fill="#fff"/>
        </g>
        <g id="Group_4057" data-name="Group 4057" transform="translate(22.131 11.245)">
          <path id="Path_28141" data-name="Path 28141" d="M.526.049a1.569,1.569,0,0,1-.5.612A.08.08,0,0,0,.1.8,1.272,1.272,0,0,0,.671.1.078.078,0,0,0,.526.049Z" transform="translate(0 0)" fill="#fff"/>
        </g>
        <g id="Group_4058" data-name="Group 4058" transform="translate(0 12.886)">
          <path id="Path_28142" data-name="Path 28142" d="M19.639,6.567c.921-.568.808-1.39-.073-1.954C20.913,4.232,23.32,3,22.406,1.987c-.335-.373-.981-.358-1.562-.321A11.1,11.1,0,0,0,22.584.425c.091-.079-.027-.22-.118-.141a9.116,9.116,0,0,1-2.319,1.45,10.584,10.584,0,0,0-3,.8.193.193,0,0,0,.1.368,9.494,9.494,0,0,0,2.689-.775,6.125,6.125,0,0,1,1.936-.021.4.4,0,0,1,.212.639,5.671,5.671,0,0,1-3.254,1.526,3.02,3.02,0,0,0-2.207.071.261.261,0,0,0,.072.5,7.29,7.29,0,0,0,2.273-.087c.526.188,1.2.692.9,1.154a.866.866,0,0,1-.49.308,6.121,6.121,0,0,1-1.609.362,2.9,2.9,0,0,0-2.272-.119c-.258.095-.167.431.061.485a6.267,6.267,0,0,0,2.145.149c1.46.88.271,1.512-1.673,1.259a.947.947,0,0,0-.366-.168,2.7,2.7,0,0,0-1.251-.317.233.233,0,0,0-.242.179.23.23,0,0,0,.133.266,5.335,5.335,0,0,0,1.273.413c1.019.968-.567,2.811-2.571,1.2-.1-.091-.2-.177-.284-.251a.241.241,0,0,0-.353.022.3.3,0,0,0,.015.414c.06.056.123.112.184.165a1.305,1.305,0,0,1,.5.83.776.776,0,0,1-.47.667c-.706.357-1.474-.1-2.133-.6-.235-.177-.58.154-.363.38a1.782,1.782,0,0,1,.635,1.049c.042.859-1.4.832-2.372.343-.246-.487-.81-.623-.913-.33-.06.172.088.244.278.4.077.063.156.129.237.19.092.349-.228.817-.854.829a.125.125,0,0,0,.024-.193A9.25,9.25,0,0,1,5.5,11.7a.652.652,0,0,0,.158-.407,2.076,2.076,0,0,0,1.856-.234,8.876,8.876,0,0,0,2.312,1.768.136.136,0,0,0,.14-.226c-.4-.339-.854-.618-1.262-.942a12.378,12.378,0,0,1-.934-.819.883.883,0,0,0,.269-.724,3.448,3.448,0,0,0,.554.1c1.494.174,1.875-.555,1.676-1.179-.01-.031-.021-.061-.034-.092A1.284,1.284,0,0,0,11.647,7.07c1.239-.032,2.142-1.108,1.533-1.986,1.8-.4,2.3-1.883,1.638-2.568a1.457,1.457,0,0,0,.841-1.488c-.093-.706-.783-1.454-2.077-.736a.135.135,0,0,0-.065.165c.044.128.169.094.228.085a1.952,1.952,0,0,1,.933.006c.558.2.662,1.3-.545,1.69a.827.827,0,0,0-.352.094.254.254,0,0,0,.169.472,2.636,2.636,0,0,0,.307-.064c.343.066.56.564.057,1.152a2.323,2.323,0,0,1-.771.577,3.318,3.318,0,0,1-.88.241.908.908,0,0,0-.155-.03c-.277-.029-.355.426-.074.472.366.061.548.684.011,1.075a1.728,1.728,0,0,1-1.223.3,2.953,2.953,0,0,0-.382-.292.228.228,0,0,0-.286.04.2.2,0,0,0-.033.261,1.094,1.094,0,0,0,.433.39.971.971,0,0,1,.171,1.2c-.374.515-1.142.276-1.721-.015a.263.263,0,0,0-.352.112.23.23,0,0,0,.09.319l.04.024c.253.15.541.321.624.595a.394.394,0,0,1-.024.325c-.195.33-.936.293-1.316.242-.286-.038-.574-.109-.858-.167-.178-.036-.329.068-.209.2a1.117,1.117,0,0,0,.176.153c.1.426-.189.595-.452.765a1.481,1.481,0,0,1-1.474.105,2.473,2.473,0,0,1-.616-.47.207.207,0,0,0-.333.235,1.485,1.485,0,0,0,.54.554c.056.246-.207.393-.631.3a2.3,2.3,0,0,1-1.264-.776A.232.232,0,0,0,3,10.934a2.624,2.624,0,0,0,.329.37.464.464,0,0,1-.021.574c-.31.278-.976-.218-1.3-.473-.415-.324-.466-.335-.517-.295a.075.075,0,0,0-.027.079A1.945,1.945,0,0,0,3.3,12.413a.782.782,0,0,0,.591-.7,1.792,1.792,0,0,0,1.247.21A5.081,5.081,0,0,0,6.971,14.04a3.579,3.579,0,0,1-2.025-.983l-.038-.036c-.205-.192-.512.126-.338.338a1.5,1.5,0,0,1,.487,1.047c-.068.54-.782.6-1.6-.254a2.265,2.265,0,0,0-.777-1.392.175.175,0,0,0-.223-.029.16.16,0,0,0-.062.2c.041.106.078.217.113.324a3.263,3.263,0,0,0,.451.955c-.179,1.254-2.373.134-2.624-2.1a.164.164,0,0,0-.175-.181A.176.176,0,0,0,0,12.11c.079,2.141,2.606,4.031,3.345,2.567,1.39,1.442,2.565.355,2.231-.714,1.623.993,2.792.315,2.9-.45,1.641.758,3.168.052,2.763-1.248,1.417.609,2.52-.345,2.4-1.293,1.806.79,3.521-.639,2.768-2.162,1,.019,2.427-.306,2.288-1.308a.906.906,0,0,0-.316-.516c.115-.024.228-.051.337-.08A3.48,3.48,0,0,0,19.639,6.567Z" transform="translate(0 0)" fill="#fff"/>
        </g>
        <g id="Group_4059" data-name="Group 4059" transform="translate(5.845 12.19)">
          <path id="Path_28143" data-name="Path 28143" d="M1.051,6.758c-.3.056-.621,0-.938.046A.143.143,0,0,0,.1,7.079,1.719,1.719,0,0,0,2.248,6.41a.826.826,0,0,0-.118-.864C3.218,5.219,3.877,4.085,3.2,3.579A2.711,2.711,0,0,0,3.965,2.4a.528.528,0,0,0-.345-.658A4.511,4.511,0,0,0,4.065.83c.076-.211.213-.59-.036-.763l0,0,0,0c-.259-.179-.577.04-.433.285a.527.527,0,0,1-.086.739c-.235.264-.369.626-.6.9-.062.064-.118.132-.155.178-.157.2.157.458.326.275.081-.088.323-.406.435-.271.084.1-.13.425-.189.522a2.637,2.637,0,0,1-.872.882l0,0a.221.221,0,0,0-.021.3.215.215,0,0,0,.3.069l.03-.021c.148-.1.526.259-.187.855a2.013,2.013,0,0,1-1.025.442c-.613-.078-.511.363-.286.394a2.024,2.024,0,0,0,.446.008.51.51,0,0,1,.153.208C1.973,6.139,1.706,6.638,1.051,6.758Z" transform="translate(0 0)" fill="#fff"/>
        </g>
        <g id="Group_4060" data-name="Group 4060" transform="translate(2.841 21.776)">
          <path id="Path_28144" data-name="Path 28144" d="M1.465,1.635c.022-.074,0-.106-.346-.339C.283.727.464.363.233.044c-.142-.2-.508.269.136,1.1C.845,1.764,1.416,1.8,1.465,1.635Z" transform="translate(0 0)" fill="#fff"/>
        </g>
        <g id="Group_4061" data-name="Group 4061" transform="translate(4.094 21.48)">
          <path id="Path_28145" data-name="Path 28145" d="M2.14,1.74a.105.105,0,0,0,.027-.2A5.279,5.279,0,0,1,.249.055C.136-.094-.078.09.029.239A3.432,3.432,0,0,0,2.14,1.74Z" transform="translate(0 0)" fill="#fff"/>
        </g>
        <g id="Group_4062" data-name="Group 4062" transform="translate(5.753 20.351)">
          <path id="Path_28146" data-name="Path 28146" d="M.025.024C-.246.3,1.737,1.658,2.869,1.529a.113.113,0,0,0,.1-.1c.016-.142-.117-.169-.536-.257A4.3,4.3,0,0,1,.555.285C.448.193.131-.082.025.024Z" transform="translate(0 0)" fill="#fff"/>
        </g>
        <g id="Group_4063" data-name="Group 4063" transform="translate(10.063 16.053)">
          <path id="Path_28147" data-name="Path 28147" d="M.216.036h0A.125.125,0,0,0,.034.208,1.761,1.761,0,0,0,1.249.834a.088.088,0,0,0,.034-.17A3.291,3.291,0,0,1,.216.036Z" transform="translate(0 0)" fill="#fff"/>
        </g>
        <g id="Group_4064" data-name="Group 4064" transform="translate(10.948 15.93)">
          <path id="Path_28148" data-name="Path 28148" d="M.163.029a.1.1,0,0,0-.14.128c.761.923,2.036.83,1.829.459C1.763.455,1.28.52,1.195.51A1.766,1.766,0,0,1,.163.029Z" transform="translate(0 0)" fill="#fff"/>
        </g>
        <g id="Group_4065" data-name="Group 4065" transform="translate(12.001 15.863)">
          <path id="Path_28149" data-name="Path 28149" d="M.085.239C1.134.6,1.157.69,1.387.632A.143.143,0,0,0,1.459.4,1.063,1.063,0,0,0,.846.179C.251.055.061-.1.006.084A.123.123,0,0,0,.085.239Z" transform="translate(0 0)" fill="#fff"/>
        </g>
        <g id="Group_4066" data-name="Group 4066" transform="translate(12.04 5.286)">
          <path id="Path_28150" data-name="Path 28150" d="M.133,6.114A24.638,24.638,0,0,0,6.733.2a.131.131,0,0,0-.2-.164C5.754.876,5.014,1.764,4.2,2.566A31.735,31.735,0,0,1,.116,5.911c-.067.048-.153.092-.1.173A.086.086,0,0,0,.133,6.114Z" transform="translate(0 0)" fill="#fff"/>
        </g>
        <g id="Group_4067" data-name="Group 4067" transform="translate(6.543 0)">
          <path id="Path_28151" data-name="Path 28151" d="M.171,13.5h0c.145-.481.327-.96.5-1.407A12.978,12.978,0,0,1,2.31,9.057C6.17,3.071,5.463,1.837,5.678.47a2.052,2.052,0,0,1,.846,1.425A8.441,8.441,0,0,1,6.3,4.342c-.028.22.276.25.355.071C7.742,1.964,6.8.372,5.573.008a.187.187,0,0,0-.236.213c.014.124.059.235.077.349a6.62,6.62,0,0,1-.336,2.4C4.2,6.057,2.8,7.3,1.226,10.5A11.522,11.522,0,0,0,0,13.456.088.088,0,0,0,.171,13.5Z" transform="translate(0)" fill="#fff"/>
        </g>
      </g>
      <g id="Group_4083" data-name="Group 4083" transform="translate(22.155 6.339)">
        <g id="Group_4069" data-name="Group 4069" transform="translate(2.969 0.778)">
          <path id="Path_28152" data-name="Path 28152" d="M.113,19.677a.225.225,0,0,0-.079.315.207.207,0,0,0,.291.081c2.115-1.22,2.908-3.5,3.674-5.71a14.122,14.122,0,0,1,1.81-3.9C7.394,8.253,9.565,6.919,13.6.676a6.9,6.9,0,0,1-.753,4.634C11.094,7.036,9.92,8.332,8.3,10.136a.16.16,0,0,0,.214.237A14.413,14.413,0,0,0,13,5.562c1.967-1.9,3.582-3.227,4.01-3.612.366-.329.613-.543.847-.436.694.318-.444,1.914-.909,2.516C16.011,5.249,15.5,5.3,15.713,5.609a.251.251,0,0,0,.256.109l.007.014A15.12,15.12,0,0,0,17.3,4.685,2.417,2.417,0,0,1,16.975,5.8a6.756,6.756,0,0,1-1.92,2.469A15.044,15.044,0,0,1,9.2,11.545a11.744,11.744,0,0,1-1.424.4c-.237.042-.159.4.076.361.462-.082.941-.138,1.4-.246A15.044,15.044,0,0,0,13.4,10.248c.306.256,4.128-2.4,5.578-4.021.178-.2.422-.471.638-.415.5.13.047,1.078-.123,1.459a8.024,8.024,0,0,1-2.6,3.121,29.815,29.815,0,0,0-3.936,1.691.243.243,0,1,0,.073.479,9.238,9.238,0,0,0,3.924-1.728c1.8-.65,2.337-.815,2.667-.66.121.057.225-.119.1-.185-.606-.327-.951-.236-1.888.071a10.363,10.363,0,0,0,1.9-2.583c.253-.472.625-1.113.387-1.635a.637.637,0,0,0-.6-.395,1.138,1.138,0,0,0-.711.427A27.716,27.716,0,0,1,15.4,8.743a8.574,8.574,0,0,0,1.61-1.8,3.354,3.354,0,0,0,.541-1.224,4.517,4.517,0,0,0,.013-1.32.123.123,0,0,0-.065-.093,4.963,4.963,0,0,0,.661-1.259c.185-.445.438-1.055.146-1.525a.691.691,0,0,0-.542-.338,1.054,1.054,0,0,0-.707.319c-1.219,1.009-2.462,2.121-3.7,3.311a8.265,8.265,0,0,0,.578-2.071A8.25,8.25,0,0,0,13.87.153a.2.2,0,0,0-.363-.067C12.047,2.038,10.772,3.995,8.948,6.1c-.517.6-1.072,1.173-1.6,1.753-3.376,3.668-3,4.578-4.4,8.1A7.1,7.1,0,0,1,.113,19.677Zm12.164-13.4A13.3,13.3,0,0,1,9.615,9.079C10.412,8.178,11.29,7.252,12.277,6.274Z" transform="translate(0 0)" fill="#fff"/>
        </g>
        <g id="Group_4070" data-name="Group 4070" transform="translate(22.802 11.18)">
          <path id="Path_28153" data-name="Path 28153" d="M.006,0C0,0,0,.019.01.016A.008.008,0,0,0,.006,0Z" transform="translate(0 0)" fill="#fff"/>
        </g>
        <g id="Group_4071" data-name="Group 4071" transform="translate(22.742 11.115)">
          <path id="Path_28154" data-name="Path 28154" d="M.084.138A.068.068,0,0,0,.133.056L.124.029.077,0,.051.007A.068.068,0,0,0,0,.089L.011.116.057.145ZM.054.023A.052.052,0,0,1,.118.06.052.052,0,1,1,.054.023Z" transform="translate(0 0)" fill="#fff"/>
        </g>
        <g id="Group_4072" data-name="Group 4072" transform="translate(22.131 11.245)">
          <path id="Path_28155" data-name="Path 28155" d="M.526.049a1.569,1.569,0,0,1-.5.612A.08.08,0,0,0,.1.8,1.272,1.272,0,0,0,.671.1.078.078,0,0,0,.526.049Z" transform="translate(0 0)" fill="#fff"/>
        </g>
        <g id="Group_4073" data-name="Group 4073" transform="translate(0 12.886)">
          <path id="Path_28156" data-name="Path 28156" d="M19.639,6.567c.921-.568.808-1.39-.073-1.954C20.913,4.232,23.32,3,22.406,1.987c-.335-.373-.981-.358-1.562-.321A11.1,11.1,0,0,0,22.584.425c.091-.079-.027-.22-.118-.141a9.116,9.116,0,0,1-2.319,1.45,10.584,10.584,0,0,0-3,.8.193.193,0,0,0,.1.368,9.494,9.494,0,0,0,2.689-.775,6.125,6.125,0,0,1,1.936-.021.4.4,0,0,1,.212.639,5.671,5.671,0,0,1-3.254,1.526,3.02,3.02,0,0,0-2.207.071.261.261,0,0,0,.072.5,7.29,7.29,0,0,0,2.273-.087c.526.188,1.2.692.9,1.154a.866.866,0,0,1-.49.308,6.121,6.121,0,0,1-1.609.362,2.9,2.9,0,0,0-2.272-.119c-.258.095-.167.431.061.485a6.267,6.267,0,0,0,2.145.149c1.46.88.271,1.512-1.673,1.259a.947.947,0,0,0-.366-.168,2.7,2.7,0,0,0-1.251-.317.233.233,0,0,0-.242.179.23.23,0,0,0,.133.266,5.335,5.335,0,0,0,1.273.413c1.019.968-.567,2.811-2.571,1.2-.1-.091-.2-.177-.284-.251a.241.241,0,0,0-.353.022.3.3,0,0,0,.015.414c.06.056.123.112.184.165a1.305,1.305,0,0,1,.5.83.776.776,0,0,1-.47.667c-.706.357-1.474-.1-2.133-.6-.235-.177-.58.154-.363.38a1.782,1.782,0,0,1,.635,1.049c.042.859-1.4.832-2.372.343-.246-.487-.81-.623-.913-.33-.06.172.088.244.278.4.077.063.156.129.237.19.092.349-.228.817-.854.829a.125.125,0,0,0,.024-.193A9.25,9.25,0,0,1,5.5,11.7a.652.652,0,0,0,.158-.407,2.076,2.076,0,0,0,1.856-.234,8.876,8.876,0,0,0,2.312,1.768.136.136,0,0,0,.14-.226c-.4-.339-.854-.618-1.262-.942a12.378,12.378,0,0,1-.934-.819.883.883,0,0,0,.269-.724,3.448,3.448,0,0,0,.554.1c1.494.174,1.875-.555,1.676-1.179-.01-.031-.021-.061-.034-.092A1.284,1.284,0,0,0,11.647,7.07c1.239-.032,2.142-1.108,1.533-1.986,1.8-.4,2.3-1.883,1.638-2.568a1.457,1.457,0,0,0,.841-1.488c-.093-.706-.783-1.454-2.077-.736a.135.135,0,0,0-.065.165c.044.128.169.094.228.085a1.952,1.952,0,0,1,.933.006c.558.2.662,1.3-.545,1.69a.827.827,0,0,0-.352.094.254.254,0,0,0,.169.472,2.636,2.636,0,0,0,.307-.064c.343.066.56.564.057,1.152a2.323,2.323,0,0,1-.771.577,3.318,3.318,0,0,1-.88.241.908.908,0,0,0-.155-.03c-.277-.029-.355.426-.074.472.366.061.548.684.011,1.075a1.728,1.728,0,0,1-1.223.3,2.953,2.953,0,0,0-.382-.292.228.228,0,0,0-.286.04.2.2,0,0,0-.033.261,1.094,1.094,0,0,0,.433.39.971.971,0,0,1,.171,1.2c-.374.515-1.142.276-1.721-.015a.263.263,0,0,0-.352.112.23.23,0,0,0,.09.319l.04.024c.253.15.541.321.624.595a.394.394,0,0,1-.024.325c-.195.33-.936.293-1.316.242-.286-.038-.574-.109-.858-.167-.178-.036-.329.068-.209.2a1.117,1.117,0,0,0,.176.153c.1.426-.189.595-.452.765a1.481,1.481,0,0,1-1.474.105,2.473,2.473,0,0,1-.616-.47.207.207,0,0,0-.333.235,1.485,1.485,0,0,0,.54.554c.056.246-.207.393-.631.3a2.3,2.3,0,0,1-1.264-.776A.232.232,0,0,0,3,10.934a2.624,2.624,0,0,0,.329.37.464.464,0,0,1-.021.574c-.31.278-.976-.218-1.3-.473-.415-.324-.466-.335-.517-.295a.075.075,0,0,0-.027.079A1.945,1.945,0,0,0,3.3,12.413a.782.782,0,0,0,.591-.7,1.792,1.792,0,0,0,1.247.21A5.081,5.081,0,0,0,6.971,14.04a3.579,3.579,0,0,1-2.025-.983l-.038-.036c-.205-.192-.512.126-.338.338a1.5,1.5,0,0,1,.487,1.047c-.068.54-.782.6-1.6-.254a2.265,2.265,0,0,0-.777-1.392.175.175,0,0,0-.223-.029.16.16,0,0,0-.062.2c.041.106.078.217.113.324a3.263,3.263,0,0,0,.451.955c-.179,1.254-2.373.134-2.624-2.1a.164.164,0,0,0-.175-.181A.176.176,0,0,0,0,12.11c.079,2.141,2.606,4.031,3.345,2.567,1.39,1.442,2.565.355,2.231-.714,1.623.993,2.792.315,2.9-.45,1.641.758,3.168.052,2.763-1.248,1.417.609,2.52-.345,2.4-1.293,1.806.79,3.521-.639,2.768-2.162,1,.019,2.427-.306,2.288-1.308a.906.906,0,0,0-.316-.516c.115-.024.228-.051.337-.08A3.48,3.48,0,0,0,19.639,6.567Z" transform="translate(0 0)" fill="#fff"/>
        </g>
        <g id="Group_4074" data-name="Group 4074" transform="translate(5.845 12.19)">
          <path id="Path_28157" data-name="Path 28157" d="M1.051,6.758c-.3.056-.621,0-.938.046A.143.143,0,0,0,.1,7.079,1.719,1.719,0,0,0,2.248,6.41a.826.826,0,0,0-.118-.864C3.218,5.219,3.877,4.085,3.2,3.579A2.711,2.711,0,0,0,3.965,2.4a.528.528,0,0,0-.345-.658A4.511,4.511,0,0,0,4.065.83c.076-.211.213-.59-.036-.763l0,0,0,0c-.259-.179-.577.04-.433.285a.527.527,0,0,1-.086.739c-.235.264-.369.626-.6.9-.062.064-.118.132-.155.178-.157.2.157.458.326.275.081-.088.323-.406.435-.271.084.1-.13.425-.189.522a2.637,2.637,0,0,1-.872.882l0,0a.221.221,0,0,0-.021.3.215.215,0,0,0,.3.069l.03-.021c.148-.1.526.259-.187.855a2.013,2.013,0,0,1-1.025.442c-.613-.078-.511.363-.286.394a2.024,2.024,0,0,0,.446.008.51.51,0,0,1,.153.208C1.973,6.139,1.706,6.638,1.051,6.758Z" transform="translate(0 0)" fill="#fff"/>
        </g>
        <g id="Group_4075" data-name="Group 4075" transform="translate(2.841 21.776)">
          <path id="Path_28158" data-name="Path 28158" d="M1.465,1.635c.022-.074,0-.106-.346-.339C.283.727.464.363.233.044c-.142-.2-.508.269.136,1.1C.845,1.764,1.416,1.8,1.465,1.635Z" transform="translate(0 0)" fill="#fff"/>
        </g>
        <g id="Group_4076" data-name="Group 4076" transform="translate(4.094 21.48)">
          <path id="Path_28159" data-name="Path 28159" d="M2.14,1.74a.105.105,0,0,0,.027-.2A5.279,5.279,0,0,1,.249.055C.136-.094-.078.09.029.239A3.432,3.432,0,0,0,2.14,1.74Z" transform="translate(0 0)" fill="#fff"/>
        </g>
        <g id="Group_4077" data-name="Group 4077" transform="translate(5.753 20.351)">
          <path id="Path_28160" data-name="Path 28160" d="M.025.024C-.246.3,1.737,1.658,2.869,1.529a.113.113,0,0,0,.1-.1c.016-.142-.117-.169-.536-.257A4.3,4.3,0,0,1,.555.285C.448.193.131-.082.025.024Z" transform="translate(0 0)" fill="#fff"/>
        </g>
        <g id="Group_4078" data-name="Group 4078" transform="translate(10.063 16.053)">
          <path id="Path_28161" data-name="Path 28161" d="M.216.036h0A.125.125,0,0,0,.034.208,1.761,1.761,0,0,0,1.249.834a.088.088,0,0,0,.034-.17A3.291,3.291,0,0,1,.216.036Z" transform="translate(0 0)" fill="#fff"/>
        </g>
        <g id="Group_4079" data-name="Group 4079" transform="translate(10.948 15.93)">
          <path id="Path_28162" data-name="Path 28162" d="M.163.029a.1.1,0,0,0-.14.128c.761.923,2.036.83,1.829.459C1.763.455,1.28.52,1.195.51A1.766,1.766,0,0,1,.163.029Z" transform="translate(0 0)" fill="#fff"/>
        </g>
        <g id="Group_4080" data-name="Group 4080" transform="translate(12.001 15.863)">
          <path id="Path_28163" data-name="Path 28163" d="M.085.239C1.134.6,1.157.69,1.387.632A.143.143,0,0,0,1.459.4,1.063,1.063,0,0,0,.846.179C.251.055.061-.1.006.084A.123.123,0,0,0,.085.239Z" transform="translate(0 0)" fill="#fff"/>
        </g>
        <g id="Group_4081" data-name="Group 4081" transform="translate(12.04 5.286)">
          <path id="Path_28164" data-name="Path 28164" d="M.133,6.114A24.638,24.638,0,0,0,6.733.2a.131.131,0,0,0-.2-.164C5.754.876,5.014,1.764,4.2,2.566A31.735,31.735,0,0,1,.116,5.911c-.067.048-.153.092-.1.173A.086.086,0,0,0,.133,6.114Z" transform="translate(0 0)" fill="#fff"/>
        </g>
        <g id="Group_4082" data-name="Group 4082" transform="translate(6.543 0)">
          <path id="Path_28165" data-name="Path 28165" d="M.171,13.5h0c.145-.481.327-.96.5-1.407A12.978,12.978,0,0,1,2.31,9.057C6.17,3.071,5.463,1.837,5.678.47a2.052,2.052,0,0,1,.846,1.425A8.441,8.441,0,0,1,6.3,4.342c-.028.22.276.25.355.071C7.742,1.964,6.8.372,5.573.008a.187.187,0,0,0-.236.213c.014.124.059.235.077.349a6.62,6.62,0,0,1-.336,2.4C4.2,6.057,2.8,7.3,1.226,10.5A11.522,11.522,0,0,0,0,13.456.088.088,0,0,0,.171,13.5Z" transform="translate(0)" fill="#fff"/>
        </g>
      </g>
    </g>
    <g id="Group_4086" data-name="Group 4086" transform="translate(286.822 250.045) rotate(-47)">
      <path id="Path_28166" data-name="Path 28166" d="M10.075,0A4.162,4.162,0,0,0,7.417,1.346a.211.211,0,0,1-.257.1A1.573,1.573,0,0,0,6.879,1.4,3.082,3.082,0,0,0,3.55,3.769a.234.234,0,0,1-.186.174A3.832,3.832,0,0,0,.794,7.453C.84,8.516.987,8.524.858,8.612A1.933,1.933,0,0,0,.2,9.48a1.953,1.953,0,0,0,3.381,1.944.194.194,0,0,1,.227-.088,5.079,5.079,0,0,1,1.764,1.117.378.378,0,0,1,.084-.129,2.524,2.524,0,0,1,.329-.273A3.15,3.15,0,0,1,6.7,11.1a4.331,4.331,0,0,1,1.092-.894.7.7,0,0,1,.086-.036A3.743,3.743,0,0,1,9.14,9.379l.048-.012c.348-.22.695-.443,1.051-.652a.458.458,0,0,1,.218-.065c.283-.212.578-.4.862-.616a8.518,8.518,0,0,1,.882-.65.377.377,0,0,1,.24-.3l-.008-.014a11.87,11.87,0,0,1-.908-2.6.1.1,0,0,1,.057-.135A2.223,2.223,0,0,0,12.9,2.464C13.133.867,11.466-.051,10.075,0Z" transform="translate(0 0)" fill="#163d50" fill-rule="evenodd"/>
      <g id="Group_4085" data-name="Group 4085" transform="translate(0 0)">
        <path id="Path_28167" data-name="Path 28167" d="M5.653,12.493c.214,0,.366-.359.455-.5a5.882,5.882,0,0,1,.611-.817A6.888,6.888,0,0,1,8.109,9.995c1.011-.663,2.132-1.14,3.118-1.844q.1-.068.189-.138l.039-.027c.045-.035.094-.067.145-.1a3.973,3.973,0,0,0,.566-.519c.133-.134.265-.178.234-.346a.755.755,0,0,0-.084-.153,3.1,3.1,0,0,1-.149-.366c-.234-.669-.427-1.354-.641-2.029a.1.1,0,0,1,.057-.135A2.223,2.223,0,0,0,12.9,2.464C13.133.867,11.466-.051,10.075,0A4.162,4.162,0,0,0,7.417,1.346a.211.211,0,0,1-.257.1A1.573,1.573,0,0,0,6.879,1.4,3.082,3.082,0,0,0,3.55,3.769a.234.234,0,0,1-.186.174A3.832,3.832,0,0,0,.794,7.453C.84,8.516.987,8.524.858,8.612A1.933,1.933,0,0,0,.2,9.48a1.953,1.953,0,0,0,3.381,1.944.194.194,0,0,1,.227-.088,3.625,3.625,0,0,1,1.2.658c.144.108.435.463.6.5A.194.194,0,0,0,5.653,12.493ZM4.508,11.271C4.206,10.988,3.87,11,4,10.8a2.672,2.672,0,0,0,.195-.524c.015-.037.036-.091-.02-.106s-.053.042-.077.076a7.586,7.586,0,0,1-.683,1.076c-.629.644-1.624,1.02-2.258.421a2.158,2.158,0,0,1-.637-.79,2.053,2.053,0,0,1,.714-2.305,3.793,3.793,0,0,1,1.941-.324A1.791,1.791,0,0,0,1.341,8.3c-.092.058-.1.017-.123-.068a3.59,3.59,0,0,1,.818-3.205,2.026,2.026,0,0,1,1.1-.743,2.49,2.49,0,0,1,2.041.352c.051.018.117.048.144-.008A3.99,3.99,0,0,0,3.952,3.9c-.077,0-.085-.044-.059-.112a3.6,3.6,0,0,1,.995-1.479c1.476-1.3,3-.459,4.053.269.062.043.131.064.177.011.062-.071-.027-.126-.066-.155A7.585,7.585,0,0,0,7.495,1.5,5.716,5.716,0,0,1,8.657.642,2.981,2.981,0,0,1,10.389.311,2.345,2.345,0,0,1,12.623,2.45c-.021,1.7-1.894,1.9-2.174,2.2a1.6,1.6,0,0,0,.578-.066c.135-.069.175-.018.2.094a15.128,15.128,0,0,0,.615,1.749c.269.707.787.558-1.3,1.918s-3.539,1.683-4.769,3.842c-.054.095-.084.1-.163.025C5.273,11.864,4.862,11.6,4.508,11.271Z" fill="#fff" stroke="#fff" stroke-miterlimit="10" stroke-width="1" fill-rule="evenodd"/>
        <path id="Path_28168" data-name="Path 28168" d="M5.144,0a1.324,1.324,0,0,1-.475.353A16.528,16.528,0,0,0,.145,4.338c-.033.03-.056.094-.114.051s0-.1.024-.136A12.035,12.035,0,0,1,2.209,1.8C3.1.969,4.574-.075,5.144,0Z" transform="translate(4.598 4.894)" fill="#fff" fill-rule="evenodd"/>
      </g>
    </g>
  </g>
</svg>
