<svg xmlns="http://www.w3.org/2000/svg" viewBox="0 0 468.24 421.79"><defs><style>.cls-1,.cls-2{fill:#b29362;}.cls-1,.cls-6,.cls-7,.cls-8{fill-rule:evenodd;}.cls-3,.cls-7,.cls-8{fill:#fff;}.cls-4{fill:none;stroke-width:0.51px;}.cls-4,.cls-7{stroke:#fff;stroke-miterlimit:10;}.cls-5,.cls-6{fill:#143c4e;}</style></defs><g id="圖層_2" data-name="圖層 2"><g id="圖層_1-2" data-name="圖層 1"><g id="angel_cover_1" data-name="angel cover 1"><path id="cover" class="cls-1" d="M459.05,327.29c-1-7.42-4.05-14.2-7-21-3.44-7.76-7.19-15.39-10.87-23-4.5-9.34-9.67-18.28-16.42-26.24-1.92-2.25-4-4.35-5.8-6.71A161.73,161.73,0,0,0,401,230.25c-8-7.6-16.15-15-24.24-22.49-.41-.38-1-.72-1.14-1.18-.67-2.47-2.71-3.71-4.58-5-3.49-2.44-7.09-4.76-10.73-7-9.9-6.09-19.9-12-31-15.75a26.5,26.5,0,0,1-2.55-1.15c-7.25-3.41-14.6-6.5-22.57-8.08a82.48,82.48,0,0,1-12.89-3.7,73.09,73.09,0,0,0-17.91-4.27c-2-.21-4,.16-6,0-2.14-.16-4.24-.72-6.37-.92-3.16-.28-6.33-.39-9.5-.59-.72,0-1.43-.13-2.25-.21-.2-1.69-.38-3.22-.59-4.87a15.33,15.33,0,0,0,2.32.45c2.36.08,4.84,0,6.55-1.79a10.32,10.32,0,0,0,2.65-9.2c-.66-4.06-3.41-6.9-5.59-10.07a19.75,19.75,0,0,0-7.13-6.49,8.25,8.25,0,0,0-6.15-.81,9.85,9.85,0,0,1-5.74-.07,14.86,14.86,0,0,0-15.88,3.22c-4.09,3.75-6.77,8.42-7,14.13a5.66,5.66,0,0,1-.2,1.36c-1.6,5.16,1.95,9.63,7.45,9.38.72,0,1.45.06,2.17.14-.07,1.72-.14,3.25-.21,4.79-1.15.07-2,.11-2.83.19-6.42.6-12.84,1.15-19.25,1.87-2.78.32-5.5,1.06-8.26,1.53-2.3.39-4.66.48-6.92,1-11.32,2.78-22,7.43-32.84,11.57a27,27,0,0,0-8.66,5.23,10.1,10.1,0,0,0,2.12-.28c5.86-2.51,12-4,18.14-5.73,7.4-2.05,14.7-4.51,22.34-5.5,6.4-.83,12.8-1.72,19.22-2.18,8.3-.6,16.63-.66,24.93-1.23,3.87-.28,7.44-.16,10.54,2.38.13.11.36.09.54.13a8.05,8.05,0,0,1,3.26-.82c.93-.05,1.86.2,2.79.24a8.84,8.84,0,0,1,5.25,1.55c.73.55,1.84.62,3.39,1.09l-1.78-2.29c4.1.29,7.74.39,11.32.86,5.55.71,11.13,1.41,16.59,2.6A98,98,0,0,1,301,178.38c9,4,18.33,7.37,26.92,12.28a8.66,8.66,0,0,1,3.2,3q3.38,5.41,6.82,10.77a34.4,34.4,0,0,0,2.13,2.72l.64-.38c-.83-4.5-3.93-8-6.24-12.37,1,.43,1.49.6,1.95.87,4.32,2.53,8.93,4.48,13.1,7.35a41.51,41.51,0,0,1,10,9.11c4.77,6.36,9.4,12.82,14,19.33,4.3,6.12,8.43,12.36,12.68,18.52a21.22,21.22,0,0,0,1.95,2.18l.51-.35c-.95-1.86-1.79-3.78-2.87-5.56-6.36-10.52-13-20.86-20.35-30.73-.51-.68-1-1.38-1.46-2.07l.42-.38c1.17.71,2.31,1.5,3.54,2.14a15,15,0,0,1,6.3,6.41c3.59,6.57,7.35,13,11,19.55,2.15,3.8,4.24,7.53,4.9,12.05.61,4.17,2.29,8.17,3.42,12.26,1.5,5.43,3.12,10.83,4.32,16.33.94,4.32,1.3,8.77,2,13.15.26,1.66.68,3.29,1,4.94l.81,0a21,21,0,0,0,.31-3.35c-.44-6.82-1.06-13.65-2.88-20.26-2.08-7.57-4.48-15-6.79-22.55-.43-1.4-1.11-2.72-1.52-4.13a13.87,13.87,0,0,1-1-5.13c3,2.56,5.6,5,6.18,8.87A14,14,0,0,0,397,256c4.34,10.73,8.11,21.62,9.35,33.23a43.09,43.09,0,0,0,1.2,5.17l.58-.05a6.73,6.73,0,0,0,.24-1.25,61.65,61.65,0,0,0-2-16.45A156.85,156.85,0,0,0,399.29,256a30.84,30.84,0,0,1-1-3.39l1.86.52c-1.33-2.51-3.88-3.86-4-7.16,2.18,2.46,4.38,4.17,5.47,6.84,3,7.43,6.28,14.78,9.15,22.28,2.14,5.6,3.8,11.38,5.75,17.06a38.39,38.39,0,0,0,1.81,3.91l1.59-.91c.24,1.47.87,2.76.56,3.77A46.88,46.88,0,0,1,414.89,310c-.37-2.43-.41-4.82-.71-7.18s-.07-4.62-1.06-6.86c-1.75.95-1.76,2.15-1.68,3.52.25,4.79.43,9.59.57,14.4.08,3-.75,4-3.8,5.2a1.24,1.24,0,0,1-.2-.49q.06-8.16.14-16.32c0-.89.13-1.84-1.33-2.25-.05,2.29-.07,4.39-.16,6.49-.14,3.58.26,7.2-.83,10.71a1.22,1.22,0,0,1,0,.33l-.08,0c.54,4.32,0,5.38-5.69,6.13l1.11-4.76,4.58-1.37v-.07a2.29,2.29,0,0,0,.08-.28c-.08-.61-.61-.79-1.21-.85-1-.09-2-.14-3.11-.21a45.7,45.7,0,0,0-.09-6.41c-.3-2,.65-4.12-.61-6.31-2,4.4-.36,8.86-1.45,13.1-4,1.2-8,2.31-11.87,3.58-3.73,1.21-7.44,2.52-11.09,4a7,7,0,0,0-1.4.76l2.64.71.11-.05c6.42-2,12.89-3.93,19.35-5.84a11.18,11.18,0,0,1,2.08-.19l-.64,4.91-12.18,3.65,1,.3,5.05-.38-1.59,1.45,2.65.83a59.51,59.51,0,0,1,6.32-1.71,4.6,4.6,0,0,1,1.73.33,8.35,8.35,0,0,1,1.84-1.15,10.51,10.51,0,0,1,2.5-.25c2-.11,4.07-.19,6.31-.3.15,1.15.27,2.13.39,3.07-3,1.2-5.84,2.34-8.68,3.51l2.59.92c1.7-.58,3.4-1.15,5.11-1.69.69-.22,1.72-.53,2.12-.21a.92.92,0,0,0,1.34.09c2.36-1.37,4.84-.34,7.42-.77l-.36,3.91c-2.28.25-4.15,1.81-6.37,2.15l3.07,1.22,4.44-1.33c-.85.76-1.64,1.47-2.43,2.15l1.39.56.28.14a3.16,3.16,0,0,1,3-.56c1.73.41,3.64.09,5.53.09a6,6,0,0,1-4.56,2.81c10.5,4.25,20.14,10,27.94,18.5a14.39,14.39,0,0,1,2.6,3.95c.21.15.43.27.63.42,2.76,1.95,3.69,4,3,7.35-.81-.39-1.69-.71-2.53-1.09-.55,5.91-5.05,11.17-12.41,11.72-25.09,1.86-50.73,5.37-76,4.41q-13.29,1.71-26.58,3.38c-8.17,1-16.38,1.67-24.56,2.6q-5.71.64-11.38,1.69c-11.95,2.17-24,2.2-36.06,2-17.94-.29-35.86-1.21-53.75-2.57-8.84-.68-17.73-.81-26.6-.86-3,0-6.3-.6-9.38,1.43l2.25.5c2.36.5,4.7,1.05,7.08,1.48a24.28,24.28,0,0,0,4.17.44,67.87,67.87,0,0,1,17.71,2.22c6.78,1.88,13.85,2,20.86,2,8.41-.09,16.82-.56,25.23-.58,7,0,14,.51,21,.53,6.44,0,12.92,0,19.33-.57,13-1.16,26-2.74,39.06-4.1,6.14-.64,12.29-1.19,18.44-1.78.73-.07,1.47-.19,2.88-.38l-2.46-.94,12.77-2.84c.05.11.09.23.14.35l-2.72,1.36c1.41,0,2.19.06,3,0,2.89-.18,5.78-.42,8.67-.59,1-.06,2,0,3.06.05l-.08,0c.36.08.88,0,1.05.27,1.06,1.4,2,2.88,3,4.28a21.48,21.48,0,0,0,2.11,2.05c-.1-3.26-2.8-4.52-3.6-7.18l5.57-.82,5.54,8.47c-4.28.7-8.24,1.33-12.18,2-20.21,3.52-40.6,5.53-61,7.56a442.83,442.83,0,0,1-62.76,1.91c-9.15-.39-18.32-.33-27.46-.88-8.85-.53-17.66-1.68-26.5-2.39-20.8-1.66-41.36-5-61.81-8.75q-28.08-5.13-55.61-12.85c-9.33-2.64-18.62-5.4-27.9-8.21a6.67,6.67,0,0,1-2.88-2c-1.89-2.12-3.61-4.4-5.39-6.62.75,1.33,1.47,2.69,2.27,4,.56.92,1.22,1.79,1.9,2.78-4.54-.31-6.76-1.61-8.76-5.09-1-1.74-2-3.5-3.16-5.63,3.26.69,6,1.43,7.81,4l-.48-1.28a13.59,13.59,0,0,1,1.9.38,333.84,333.84,0,0,0,37.86,11c3.26.76,6.6,1.26,9.93,1.72a300.64,300.64,0,0,1,29.85,6.23,243.16,243.16,0,0,0,43.65,6.84c1.27.07,2.55,0,3.82,0l.06-.56c-1-.2-1.93-.42-2.89-.58-10.14-1.65-20.28-3.27-30.4-5a20.43,20.43,0,0,1-3.29-1.25,27.31,27.31,0,0,0-3.16-1.07c-7.53-1.82-15.05-3.67-22.61-5.36A11.13,11.13,0,0,1,111,379l-3-.66.89.8a42.52,42.52,0,0,1-8.82-2.21,2.19,2.19,0,0,1-.81-.67l-2.4-.59.81.65c-2.16-.62-4.3-1.33-6.5-1.83a9.62,9.62,0,0,1-2.37-.86q-5-1.27-10-2.59c-18.58-4.84-39-4.35-55.31-15.67-4.12-2.86-7-7-6.79-11.9-1.43.4-2.87.8-4.29,1.25-.21.07-.48-.07-.78-.12.61-2.32,1.24-4.53,1.74-6.76a2.79,2.79,0,0,1,2.49-2.28c1.79-.39,3.58-.81,5.37-1.23a13.55,13.55,0,0,1,2.09-1.59c2.3-5.47,7.61-10,13.13-12.79,1.37-.7,2.77-1.36,4.17-2l-1.65.08a39.15,39.15,0,0,1,.63-13.13c1.91,3.57,3.84,7.16,5.89,11,.95-.38,1.91-.75,2.88-1.12-.14-.71-.27-1.4-.4-2.09,2-.56,3.17-.14,4,.78,1.06-.37,2.12-.73,3.19-1.08v0l.17,0c2.56-.84,5.15-1.65,7.74-2.42l-9.73.26c-1.9-3.7-4-7.49-5.78-11.4a8.53,8.53,0,0,1-.34-3.79,151.93,151.93,0,0,1,4.36-28.45,4.35,4.35,0,0,0-.35-3,6.12,6.12,0,0,1,.16-4.75A85.49,85.49,0,0,1,57,250.62l.5.21c-.07.7-.17,1.4-.2,2.1q-.35,6.63-.67,13.26c0,.64,0,1.29-.06,1.93-.58,4.67-1.2,9.34-1.74,14-.13,1.11-.3,2-2.14,1.7.41,2.65.8,5,1.14,7.32s.56,4.94,1,7.38c.42,2.25,1,4.47,1.67,6.68.13.48.58.87,1.41,1.21,0-1.48,0-3-.07-5l6.24,8.17,2.88-.84a10.3,10.3,0,0,1-2.9-4.33c2.24.42,4.44.75,6.59,1.28a4.27,4.27,0,0,1,2,1.34l0,.06,4.46-1.3,2.61-.75-4.45-.84A4.67,4.67,0,0,1,71.82,302c-2.27-3.57-3.09-7.7-4.81-11.46-1.53-3.36-1.58-6.73-1.33-10.37l1.56.19a14.42,14.42,0,0,0-.12-2.18c-.67-3.49-1.12-7-1.55-10.54-1.1-8.83-.28-17.71.21-26.58a3.22,3.22,0,0,1,.63-1.76c2-2.3,4.1-4.53,6.5-7.17a23.19,23.19,0,0,1,.17,2.39c-.09,2.68-.33,5.36-.32,8,0,3-.48,5.85-2.59,8.23-.07.07,0,.28,0,.49l2.11-1.44c0,1,0,1.62.08,2.25.36,5.72.54,11.45,1.13,17.14.7,6.62,1.94,13.16,4.86,19.24.38.8.86,1.54,1.29,2.3a4.8,4.8,0,0,0,.23-2.83c-.73-4-1.51-8-2.26-12a158.6,158.6,0,0,1-2.37-27.85,3.42,3.42,0,0,1,.45-2.1c1.45-1.64,3.07-3.13,4.86-4.91.11,1.47.19,2.51.27,3.54l.51.12,2.67-4.92c.14,1.15.23,1.67.26,2.21.16,3.32.17,6.66.51,10,.26,2.57.3,4.94-1.7,6.93-.15.15-.15.46-.33,1.11l2.39-1.68c.11.73.21,1.26.27,1.79a182.62,182.62,0,0,0,3.92,24.05,48.11,48.11,0,0,1,.86,6c.25,2.08.19,4.24,1.49,6.26.48-1.35-.54-3,1.42-3.55-.91-4.53-2-9-2.69-13.58-1.15-7.2-2.11-14.43-3.07-21.66a3.28,3.28,0,0,1,.42-2.31c1.61-1.9,3.42-3.63,5.24-5.53a4.07,4.07,0,0,1,.52,1c.24,1.64.5,3.29.64,4.94a133.71,133.71,0,0,0,9.24,38.66,7.79,7.79,0,0,1,.12,2.36,8.39,8.39,0,0,0,1,.45l1.24.47,2.29-.66h0a4.41,4.41,0,0,1-3.31-3.56c-.93-4.14-2.11-8.23-3.12-12.35-1.06-4.31-2.25-8.59-3-13-1.1-6.28-1.79-12.62-2.8-18.91A3.29,3.29,0,0,1,97,245.85c4.71-4.25,9.36-8.57,14.06-12.85.65-.6,1.41-1.09,2.54-1.95-.5,2.21-.9,3.88-1.25,5.58-.58,2.88-.57,3.25.05,5.14.37-1.17.71-2.12,1-3.09q1-3.62,2-7.24a5.71,5.71,0,0,1,2.52-3.84c.53-.31.82-1,1.29-1.64l-1.56-.55a23,23,0,0,1,.85-2.25,114.59,114.59,0,0,1,11.39-18.84,7.74,7.74,0,0,1,1.74-1.78c6-4,12.23-7.61,19.48-9a7.4,7.4,0,0,0,1.59-.74c0-.2,0-.4-.07-.6a19.7,19.7,0,0,0-3.16-.25,26.92,26.92,0,0,0-12.68,4.18c-7.47,4.79-14.87,9.7-22.29,14.56-.86.56-1.7,1.14-2.54,1.7a72.49,72.49,0,0,1,8.83-14c.48-.62,1-1.08,0-2.15a24.94,24.94,0,0,0-2.41,2.62c-3.69,5.37-7.31,10.79-11,16.17a12.61,12.61,0,0,1-2.18,2.49c-4.53,3.76-9.1,7.47-13.66,11.18-.63.51-1.29,1-1.93,1.47a3.8,3.8,0,0,1,.66-2.08q7.09-10.71,14.22-21.39a14.71,14.71,0,0,1,4.62-4.4q13.22-8.24,26.39-16.51c.71-.45,1.4-.92,2.1-1.38l-.35-.57L123,189.89l-.16-.29,3.23-2.44a6.49,6.49,0,0,0-3,.77,217.41,217.41,0,0,0-39.72,24.65A193.74,193.74,0,0,0,55.56,239.3,186.87,186.87,0,0,0,37.4,264.37c-7.54,12.76-14.89,25.58-21,39A164.72,164.72,0,0,0,6.6,329.46,106.09,106.09,0,0,0,4.26,341.7c-.43,2.92-.68,5.82-2.34,8.43a3.41,3.41,0,0,0-.17,2.07c.25,2.48.36,4.88-1.14,7.14a4.1,4.1,0,0,0-.55,2.86c.84,3.76,2.43,7,6.81,7.82a6.78,6.78,0,0,1,1.74.83c1.64.87,3.25,1.8,4.92,2.63A356.07,356.07,0,0,0,98,403.21c9.21,2,18.44,3.88,27.63,5.92,5.1,1.14,10.13,2.55,15.23,3.72,7.28,1.67,14.68,3.12,22.16,3,5.88-.13,11.52.83,17.23,1.64,1.58.23,3.15.42,4.72.66a225,225,0,0,0,36.29,2.76c8-.09,16.06.09,24.09.25,15.88.32,31.74,1.16,47.65.29a653.45,653.45,0,0,0,86.6-10.49c8.82-1.67,17.67-3.34,26.4-5.48,19.2-4.71,38.35-9.58,57.27-15.34l2.81-.85-.1-.33-3.5,0c1.63-1.49,2.93-2.63,4.16-3.84a3.85,3.85,0,0,0,.94-1.59,24.94,24.94,0,0,0,.46-9.27c-.27-2.94-.7-5.87-1-8.81-1.26-12.35-3.26-24.54-7.41-36.28A10,10,0,0,1,459.05,327.29Zm-214.84-191,.49-.26,4.67,6.58c-3.2-.36-3.32-.44-4.14-2.93C244.86,138.57,244.54,137.43,244.21,136.3Zm-3.74-4.18,1.34,2.59-.46.25-1.41-2.56Zm-8.73-2.4a12.53,12.53,0,0,1,6.69-.8l-.73,2.79-2.46-.41-.27.46,2.43,2c-.07,1.34-.17,2.88-.26,4.56l2-.25v-2.11l.58-.16,2,4.39-7-.69Zm-1.75.54,2.7,9-2.84.21c-1.28-2.64-.22-5.91-3.24-8.19ZM226.06,132c2.08,2,1.71,4.78,2.14,7.28l-10.14,3c0-3.69,3.71-8.52,8-10.33Zm6.32,28.49c.22-3.36.41-6,.6-8.89l2.06,0c-.37,2.6-.66,5-1.09,7.45-.07.4-.73.71-1.57,1.47Zm-2.55-8.65c1.57-.12,1.57-.12,1.18,2.09-.42-.77-.79-1.43-1.17-2.1Zm8.61,8-2.49.07.51-8.11,2.48.42ZM228.3,149.71a11.46,11.46,0,0,0-2.16,1.41l-.11.55c2.81,0,3.32,1.73,3.51,3.8a10.79,10.79,0,0,0,.86,2,25.29,25.29,0,0,1,.53,2.56h-4.52a25.13,25.13,0,0,1-.63-4.73c.1-1.69-.86-2.48-2-3.28a7,7,0,0,0-1.73-.91,4.1,4.1,0,0,1-3-3.58c9.09-4.52,23.37-4.28,34.65,3.68-2.43,1.7-4.38,1.82-6.61.35-5.94-3.92-12.28-4.24-18.88-1.82Zm166.83,92.13c-1.61-1.84-3.28-3.63-4.82-5.52s-3-3.91-4.56-6c-.64.76-.25,1.76.17,2.54a20.93,20.93,0,0,0,2.34,3.4c1.47,1.79,3,3.53,4.55,5.24a4,4,0,0,1,1.17,3.76,31,31,0,0,1-6.88-6.44q-3.72-6.65-7.4-13.31a8.15,8.15,0,0,1-.41-1c.51-1,1.13-1,1.83-.4a41.17,41.17,0,0,1,4.31,3.93c3.22,3.81,6.3,7.74,9.4,11.65a8,8,0,0,1,.77,1.83Zm46.3,68.4.2-.06.5,1.69-.19.06Zm-3.6-.2.24-.07.51,1.73-.23.08Zm1.52,8.45a2.86,2.86,0,0,1,0-3.08c.2,1,.41,2,.61,3Zm2.31,11a14.68,14.68,0,0,1-1.21-6.63,9.08,9.08,0,0,1,1.21,6.63ZM412,258.08a26.81,26.81,0,0,1,1.67,2.43c2.76,5.1,5.48,10.23,8.23,15.34,1.57,2.93,3,5.91,4.8,8.71.79,1.25,1.22,3.16,3.4,3.11.2,0,.49.71.62,1.12A81.84,81.84,0,0,1,434.55,308c.21,3.33-1.16,6.45-3.25,9.42-.14-1.11-.3-2.23-.41-3.35-.56-5.59-1.13-11.19-1.63-16.79a9.58,9.58,0,0,1,.24-2.72,7.24,7.24,0,0,0-1.1-5.54c-.94-1.45-1.82-2.95-2.82-4.35a15.23,15.23,0,0,0-1.85-1.83l-.66.35c2.65,3.16,1.11,6-.44,8.95-3-11.55-6.33-22.93-11.21-33.82Zm20.56,67.26c-1-3.23-1-5.76.74-8.19a22,22,0,0,0,1.64-3.72c2.61,4.72-.17,8-2.38,11.9Zm1,4.19-.65,0c0-.81-.34-1.76,0-2.4,1.05-2.12,2.34-4.13,3.61-6.32,1.72,4-1.48,6.06-2.94,8.75Zm-4.93-36.28-1-3.44.37-.09,1,3.42Zm-9.7.61a168.48,168.48,0,0,0-17.16-45.62c1.58-.46,2.1.61,2.56,1.54,2.09,4.21,4.46,8.33,6.1,12.72,3.35,9,6.29,18.14,9.42,27.22.6,1.74,1.31,3.44,2.1,5.51Zm4.82,14.08c0-1.41,1.21-2.83,1.86-4.25a6.37,6.37,0,0,1-.64.9c-.31.33-.69.6-1.37,1.17-.52-2.91-1.51-5.57-1.3-8.14s1.64-5.12,2.77-7.63c1.9,4.42,3.17,8.81.78,13.42l1.63-2.22c.21,1.28.39,2,.45,2.8.4,5.13.72,10.27,1.19,15.39a3.42,3.42,0,0,1-1.46,3.58c-1,.67-1.88,1.39-3.24,2.4-.27-6.14-.66-11.78-.68-17.42Zm-14.47,16.6c-.64,0-1.28,0-2.16,0,.16-3.19,3.44-3.65,4.48-5.87l.53.17c.05,1.76.09,3.52.14,5.37-1.18.13-2.09.26-3,.32Zm6.65,5.22c-.13-.05-.1-.49-.14-.76L414,330.14c.31-1.24.52-2.07.76-3.05H417c-.13.53-.22.88-.31,1.23l5-2.58c-1.43-2.7-4.39-.93-6.62-1.95-.08-2-.14-4.08-.25-6.17-.06-1.1.67-1.57,1.44-2.16,1.93-1.47,4-2.86,4.93-5.25h0l0-.09c-1,1-2,2.06-3.12,3-.88.78-1.84,1.46-3.18,2.51a7.14,7.14,0,0,1,.1-2.06c1.89-4.09,3.84-8.17,5.82-12.34a10.87,10.87,0,0,1,.38,8.86l0,0-.06.13c.36.29,1,.55,1,.89a35.47,35.47,0,0,1,.24,3.57c.17,3-.07,6,.33,8.94a7.68,7.68,0,0,1,0,1.66c-.17,1.75-5.23,5.06-6.88,4.47Zm3.43.1,3.12-2.15c0,2.1,0,2.1-3.12,2.15Zm4.31,5.84c.17-1.6.27-2.64.41-3.92l4.89-1.47,0-.08,0,0c-1.07-1.74-2.87-1.14-4.41-1.17a2.39,2.39,0,0,1,.92-3.26l.21-.11c1.11-.67,2.14-1.47,3.38-2.33a11,11,0,0,1,1,5.83c0,.35-.69.69-1.08,1l.05.07-.11,0c-.88,2.43-2.87,3.75-5.3,5.39Zm5.65-1.88c-.75.63-1.55,1.2-2.33,1.79l-.4-.53,3.53-3.84c.45,1.49.46,1.51-.81,2.58Zm-3.05,5.37c1.18-1.89,1.71-2,4.75-.64l-4.75.65Zm5.84,4,1.73,1.76-.27.61-4.1-1.16c1.52-1.37,2.71-2.88,4.27-3.71,1.25-.67,3-.53,4.64-.77-.93,3.64-4,2.24-6.28,3.28Zm8.45.68-2-.35,1.53-1.66c.17.8.28,1.29.44,2Zm-3.61-5.94,2.66-.79c-.91,1.15-.91,1.15-2.67.8ZM433.76,336a3.54,3.54,0,0,1,.73-4.47c1.06-1.13,1.94-2.43,3.12-4C439.4,333.21,438.17,335.71,433.76,336Zm11,8.53-1.71-.05,1.38-1.45.33,1.49Zm-1-2.95-.65-.19a2.93,2.93,0,0,1-.14-1.1c.07-.23.5-.36.76-.54l.74.53Zm-1.14-6c-1.12-2.26-1.16-2.7-.45-4.6,1.05,2,1.13,2.88.45,4.59Zm5.52,12.24c-.22-.46-.46-.92-.65-1.39a1.36,1.36,0,0,1,.41-.26c.35.39.67.8,1,1.21Zm.55-4.08-.79.09c-.52-1.76-1.23-3.51.48-5.34.1,1.75.2,3.49.31,5.24Zm-1.68-7.68-.63-.19.36-3.5.68.06c.4,1.23,1,2.48-.41,3.62ZM445.73,329c-.73-4.58-2.59-8.89-2.39-13.63.69,2.3,1.51,4.55,2,6.89.48,2.19,2,4.35.36,6.73ZM106.16,221.16a8.27,8.27,0,0,1,2.13-2.5c5.44-3.93,10.95-7.78,16.44-11.64a9.93,9.93,0,0,1,1.51-.61c-.89,1.42-1.5,2.43-2.14,3.42a89.2,89.2,0,0,0-9,16.94,5.28,5.28,0,0,1-1.42,2c-5.21,4.65-10.46,9.26-15.7,13.87-.32.28-.68.52-1.35,1a9.88,9.88,0,0,1,.22-1.43A107.65,107.65,0,0,1,106.16,221.16ZM100.89,224a8.76,8.76,0,0,1,1.34-.66c-.49,1.13-.78,1.87-1.12,2.59-2.5,5.3-4.87,10.64-6.14,16.39-.2.91-1.33,1.6-1.73,2.51s-.19,2.33-.8,3.1c-1.47,1.88-3.26,3.53-5.14,5.49a8.88,8.88,0,0,1-.49-1.67c-.33-4.52-.6-9-.93-13.54a3.64,3.64,0,0,1,1.45-3.39c4.54-3.58,9-7.21,13.56-10.82Zm-23,3.15.31.22c-.67,1.7-1.33,3.39-2,5.08l.62.3c3-4.26,5.86-8.72,9.22-12.72s7.78-6.84,12.29-9.65c-.29.48-.56,1-.87,1.45C94.12,216.92,90.83,222,87.5,227c-.63.95-.72,2.37-2.26,2.63-.23,0-.42.77-.5,1.2A14.12,14.12,0,0,1,80,239.1c-1.47,1.28-2.71,2.81-4.41,4.59-.42-4.75.76-9.12-.62-13.59ZM59.67,248.36c.14-2.21,2.09-3.37,3.73-4.89,0,.95-.09,1.92-.15,2.88-.52,8-1.18,16.07.21,24A60.66,60.66,0,0,1,64,281.65a122.29,122.29,0,0,0,.57,13.8c.29,2.71,1.38,5.32,2.12,8h0a9.06,9.06,0,0,0,.43-2.31,43.58,43.58,0,0,1-.41-4.71c1.06,2.21,2.11,4.42,3.25,6.82l-3.27.2h0L62.41,303c-2.76-3.94-5.87-8.25-5.4-14.06.33-4.14.48-8.3.82-12.44a11.15,11.15,0,0,1,1.05-4.17c.66-1.35.34-3.26.14-4.88C58.24,261,59.26,254.7,59.67,248.36Zm-12,62.34-.55-4.82.54-.16,2.86,5.15ZM49,262.35l.63.19c-.27,2.25-.42,4.52-.85,6.73-1,5.08-2.16,10.13-3.2,15.2-.23,1.1-.27,2.23-1.88,2.73-1.37-2-.42-4.09-.06-5.89,1.14-5.71,2.72-11.33,4.19-17a8.67,8.67,0,0,1,1.17-2Zm-12.55,22.7c.92-5.32,4.42-9.41,7.35-13.79l-5.19,20.92a6.46,6.46,0,0,1-1.05-4.46C37.79,286.21,37.79,286.21,36.43,285.05Zm5.87,8.56c1.14,2.65,2.13,4.82,1.94,7.42-.16,2.23,0,4.5.08,6.75l-.51.12c-1.15-2.64-2.39-5.25-3.43-7.94-.9-2.37.73-4.09,1.92-6.34Zm-9.14,5.2c.61-2.13,1-4.34,1.45-6.51a12.23,12.23,0,0,1,.54-1.54c.64,2.14,1.32,4.34,2,6.55a4.18,4.18,0,0,1,.19,1.36c-.37,4.94-.78,9.88-1.18,15-1.65-4.88-4.52-9.37-3-14.9Zm-3.52-1.19c.93,1.92.18,3.7-.31,5.86-1.8-2.35-.38-4.08.31-5.86Zm2.41,8.79L34,313C31.52,311.36,30.93,309.8,32.05,306.41Zm4,11.94c-1.18.6-2.2,1.15-3.35.23A4.8,4.8,0,0,1,31,312.44c1.77,2.09,3.35,3.94,5,5.92Zm-8.42-12.62.69,0c.08.77.16,1.53.23,2.3l-.55.08C27.89,307.29,27.76,306.51,27.64,305.73Zm-2.7,10.1,1.48,4.92c-2,0-2.27-.64-1.48-4.92ZM7.63,365.23c1.62.09,2.3.91,3.41,2A3.44,3.44,0,0,1,7.63,365.23Zm15.86-.44c-1-2.59-2-5.17-3.17-8.35C22,358,22.77,360,23.49,364.79Zm4.53,2c-1.54-1-2.66-3.11-4.63-8.77a1.94,1.94,0,0,1,2.44,1.48c.72,2.43,1.46,4.87,2.19,7.29Zm4.46,2.06c-3-2.16-3.47-5.74-4.88-9a2.06,2.06,0,0,1,2.55,1.4s0,.05,0,.07c1,2.36,2,4.73,2.93,7.1Zm3-.24c-1.1-2.31-2.36-4.54-3.8-7.3,2.33.37,3.6,1,4.26,2.88a47.1,47.1,0,0,0,2.47,4.92c.32.61.59,1.25.95,2a4.26,4.26,0,0,1-3.88-2.55Zm7.41,3.66c-1.94-2.65-3.66-5.45-5.47-8.2,2.4-.22,3.75.58,4.61,2.37a58.88,58.88,0,0,1,3.33,7.16c-.85-.43-2-.65-2.47-1.33Zm354.22,27.74-5.44-7.71.53-.41c2.06,2,2.91,5,5.71,7.1-.37-3.41-2.94-5-4-7.81l3.11-.53c2,2.53,3.35,5.42,6.27,7.78.13-2.22-1.18-3.1-1.9-4.23s-1.61-2.37-2.41-3.56l.52-.35,6.18,8.33Zm10-2.55c-1.9-2.36-3.79-4.72-5.85-7.27,2.81-.87,2.83-.89,4.09.85,1.54,2.13,3,4.29,4.58,6.48-1.15.89-2,.92-2.82-.06Zm4.38-.54c-1.79-2.44-3.54-4.91-5.4-7.52,1.41-.89,1.85,0,2.32.61,1.74,2.26,3.45,4.54,5.22,6.89-.81.82-1.54.83-2.14,0Zm4,0-6.65-8.47,2.94-.47c2.2,2.83,4.28,5.5,6.53,8.41Zm-1.37-9.18.42-.43,6.87,8.45c-1.41-.35-5.93-5.45-7.29-8Zm10.38,3.67-3.94-4.59.56-.47c1.69,1.17,2.57,3,3.76,4.62Zm2.45,3.54-.65-1.81c1.69.88,2.53.43,2.5-1.62l2.53,2.69Z"/><g id="beeru-logo"><g id="Group_1090" data-name="Group 1090"><path id="Path_8924" data-name="Path 8924" class="cls-2" d="M277.05,337.61a37,37,0,0,1-18.5-4.22,37,37,0,1,1-2.27-64.2,37,37,0,1,1,20.77,68.42Zm-18.54-5.56a.55.55,0,0,1,.31.08,35.75,35.75,0,1,0-2.18-61.69.64.64,0,0,1-.63,0,35.74,35.74,0,1,0,2.19,61.69A.67.67,0,0,1,258.51,332.05Z"/></g><g id="Group_1091" data-name="Group 1091"><path id="Path_8925" data-name="Path 8925" class="cls-2" d="M229.85,309.57c0,.32-2,1.22-3.42,1.27l-.68,0-.1-3-3,.11.12,3.34c0,.47-1.62,1.49-3.41,1.55l-.64,0-.9-25.36,4.32,1.67,2.43-.08,1.95-2.3,4.21,3.12a2.78,2.78,0,0,1-1.56.89Zm-4.24-2.87L225,290.24l-3,.1.59,16.46Zm25.37.41s2.58,2.14,4.07,3.56c-.11.44-.54.66-1.09.68l-6.8.24.27,7.63c0,.36-2,1.19-3.74,1.25l-.83,0-.31-8.75-13.33.47-.36-1.1,13.65-.48-.24-6.8,6,.35c-.06.48-.33.85-1.32,1.05l.19,5.24,1.83-.06Zm-15-3.48c0,.27-1.27,1.27-3.42,1.35l-.71,0-.63-17.86,4.76,1.63,2.22-.08c.23-1.56.54-3.8.69-5.36l6.45,1.09c-.14.64-.69,1-1.56,1-1,.91-2.47,2.19-3.63,3.19l7.24-.26,1.94-2.3,4.33,3.11a2.81,2.81,0,0,1-1.44.81l.44,12.49c0,.32-2.14,1.31-3.62,1.36l-.71,0-.06-1.63-5.25.18c-1.32,3-4.5,5.77-11.83,7.66l-.3-.46c4.71-2.08,7-4.43,8.11-7.06l-3.06.11Zm-.49-13.72.18,5,4-.14-.18-5.05Zm3.87,11.53a15,15,0,0,0,.4-4.52l0-.95-4,.14.19,5.44Zm8.87-.32-.19-5.44-4.18.14,0,.92a14.83,14.83,0,0,1-.44,4.55Zm-4.59-11.5.18,5.05,4.18-.15-.18-5Z"/></g><g id="Group_1092" data-name="Group 1092"><path id="Path_8926" data-name="Path 8926" class="cls-2" d="M293.62,289s3.23,2.35,5.19,3.95c-.1.44-.53.66-1.13.68l-7.59.27c-.68,5.44-2.11,10.22-5,14.23,16.44,5.51,11.32,11.82,7.08,10.1a46.57,46.57,0,0,0-9.95-6.93c-4.17,3.81-10.36,6.69-19.57,8.41l-.26-.47c7.67-2.58,12.81-5.86,16.26-9.77A89.87,89.87,0,0,0,267,305a109.13,109.13,0,0,0,3.62-10.39l-8.55.3-.36-1.14,9.3-.33c1.36-4.47,2.56-8.85,3-11.25l6.66,1.47c-.1.44-.41.85-1.64.9-.6,2.13-1.57,5.27-2.68,8.69l8.51-.3c.14-1.67.2-3.43.22-5.14L292,289c-.14.68-.64,1-1.56,1.05,0,.92-.13,1.79-.22,2.67l.68,0ZM276,294.37c-1.19,3.71-2.53,7.54-3.77,10.57,3.2.6,5.93,1.22,8.38,1.85a28.43,28.43,0,0,0,4.21-12.73Z"/></g><g id="Group_1093" data-name="Group 1093"><path id="Path_8927" data-name="Path 8927" class="cls-2" d="M276.86,343.32A42.21,42.21,0,0,1,258.7,340a42.58,42.58,0,1,1-20.92-80.46h.05A42,42,0,0,1,256,262.87a42.15,42.15,0,0,1,17.87-4.64,42.57,42.57,0,1,1,3,85.09Zm-18.25-6a1.31,1.31,0,0,1,.55.1,39.61,39.61,0,0,0,17.61,3.38,40.08,40.08,0,0,0-2.44-80.13h-.4a39.69,39.69,0,0,0-17.32,4.62,1.26,1.26,0,0,1-1.09,0A39.63,39.63,0,0,0,237.91,262a40.08,40.08,0,1,0,2.44,80.13h.4a39.73,39.73,0,0,0,17.32-4.62A1.14,1.14,0,0,1,258.61,337.35Z"/></g><g id="Group_1095" data-name="Group 1095"><g id="Group_1094" data-name="Group 1094"><path id="Path_8928" data-name="Path 8928" class="cls-2" d="M236.48,358.77l-.62-.16c-.24-.07-.49-.14-.74-.23s-.5-.18-.74-.29a3.41,3.41,0,0,1-.65-.35,1.19,1.19,0,0,1-.61-1.34l1.63-7.37a.75.75,0,0,1,.3-.48,1.37,1.37,0,0,1,.56-.18,6.54,6.54,0,0,1,1.4,0,15.94,15.94,0,0,1,1.68.29,6,6,0,0,1,3,1.37,2.36,2.36,0,0,1,.62,2.34,2,2,0,0,1-.68,1.13,2.39,2.39,0,0,1-1.27.5,2.87,2.87,0,0,1,1.14,1.1,2.17,2.17,0,0,1,.2,1.58,2.64,2.64,0,0,1-1.67,2.06A6.44,6.44,0,0,1,236.48,358.77Zm-.53-2.46a3.71,3.71,0,0,0,.55.22l.66.17a2.09,2.09,0,0,0,1.11,0,.91.91,0,0,0,.59-.72.84.84,0,0,0-.18-.82,2.12,2.12,0,0,0-1-.46l-1.29-.28Zm.86-3.85,1.15.26a1.55,1.55,0,0,0,1,0,.91.91,0,0,0,.48-.67.82.82,0,0,0-.21-.76,1.84,1.84,0,0,0-1-.48l-.55-.11a4.1,4.1,0,0,0-.49-.06Z"/><path id="Path_8929" data-name="Path 8929" class="cls-2" d="M245.28,351.72a1.45,1.45,0,0,1,.5-1.06,1.48,1.48,0,0,1,1.13-.3l5.31.48a1.6,1.6,0,0,1,.16.48,1.91,1.91,0,0,1,0,.63,1.16,1.16,0,0,1-.35.84,1,1,0,0,1-.72.2l-3.4-.31-.13,1.49,3.62.33a1.94,1.94,0,0,1,.16.48,2.07,2.07,0,0,1,0,.61,1.19,1.19,0,0,1-.33.84,1,1,0,0,1-.72.2l-3-.27-.15,1.69,4.13.38a1.6,1.6,0,0,1,.16.48,1.85,1.85,0,0,1,0,.62,1.25,1.25,0,0,1-.35.86,1,1,0,0,1-.73.2l-4.7-.43a1.48,1.48,0,0,1-1.05-.5,1.46,1.46,0,0,1-.31-1.14Z"/><path id="Path_8930" data-name="Path 8930" class="cls-2" d="M254.94,352.41a1.39,1.39,0,0,1,1.47-1.54l5.33-.12a2.43,2.43,0,0,1,.22.46,2.59,2.59,0,0,1,.1.61,1.16,1.16,0,0,1-.25.88,1,1,0,0,1-.7.28l-3.41.07,0,1.5,3.63-.08a2,2,0,0,1,.22.46,2,2,0,0,1,.1.6,1.21,1.21,0,0,1-.24.88.93.93,0,0,1-.69.27l-3,.08,0,1.7,4.15-.1a2,2,0,0,1,.21.47,2.06,2.06,0,0,1,.11.61,1.26,1.26,0,0,1-.25.89,1,1,0,0,1-.71.27l-4.71.11a1.5,1.5,0,0,1-1.11-.38,1.52,1.52,0,0,1-.43-1.09Z"/><path id="Path_8931" data-name="Path 8931" class="cls-2" d="M268.2,356.67l.46,3.07-.54.18a6.08,6.08,0,0,1-.74.16,3.49,3.49,0,0,1-.65,0,1.05,1.05,0,0,1-.49-.13.84.84,0,0,1-.34-.36,1.94,1.94,0,0,1-.2-.66l-1.12-7.53a.72.72,0,0,1,.11-.55,1.46,1.46,0,0,1,.45-.37,6.48,6.48,0,0,1,1.23-.46,11.41,11.41,0,0,1,1.52-.32,5.18,5.18,0,0,1,3.46.43,3.13,3.13,0,0,1,1.49,2.35,2.85,2.85,0,0,1-.25,1.77,3.94,3.94,0,0,1-1.06,1.27c.46.46.92.89,1.36,1.3A9.27,9.27,0,0,1,274,358a1.53,1.53,0,0,1-.46.94,1.6,1.6,0,0,1-.9.44,2.15,2.15,0,0,1-.62,0,1.36,1.36,0,0,1-.48-.16,2,2,0,0,1-.41-.29c-.13-.13-.25-.27-.37-.41l-1.66-2Zm.69-2.27a1.38,1.38,0,0,0,.91-.46,1.13,1.13,0,0,0,.22-1,1.14,1.14,0,0,0-.53-.86,2,2,0,0,0-1.29-.13l-.38.08-.31.09.36,2.4Z"/><path id="Path_8932" data-name="Path 8932" class="cls-2" d="M284.72,352.36a4,4,0,0,1,.15,1.61,3.38,3.38,0,0,1-.48,1.42,4,4,0,0,1-1.1,1.14,5.79,5.79,0,0,1-1.67.78,5.7,5.7,0,0,1-1.83.25,3.87,3.87,0,0,1-1.54-.37,3.37,3.37,0,0,1-1.18-.94,4,4,0,0,1-.74-1.44l-1.72-5.93.51-.24a4.54,4.54,0,0,1,.7-.26,2.88,2.88,0,0,1,.65-.13,1.11,1.11,0,0,1,.51.06.84.84,0,0,1,.39.3,1.81,1.81,0,0,1,.29.63L279,354a1.66,1.66,0,0,0,.75,1,1.49,1.49,0,0,0,1.19.11,1.52,1.52,0,0,0,.95-.73,1.72,1.72,0,0,0,.06-1.28l-1.72-5.88.52-.25a5.74,5.74,0,0,1,.69-.26,3.56,3.56,0,0,1,.65-.13,1.11,1.11,0,0,1,.51.06.87.87,0,0,1,.4.31,2,2,0,0,1,.28.62Z"/></g></g><circle id="Ellipse_83" data-name="Ellipse 83" class="cls-2" cx="226.9" cy="351.55" r="2.8"/><circle id="Ellipse_84" data-name="Ellipse 84" class="cls-2" cx="292.14" cy="349.24" r="2.8"/></g><g id="Group_4084" data-name="Group 4084"><g id="Group_4036" data-name="Group 4036"><g id="Group_4018" data-name="Group 4018"><path id="Path_28096" data-name="Path 28096" class="cls-3" d="M255.88,93.93A.64.64,0,0,0,256,93a.69.69,0,0,0-.4-.26.63.63,0,0,0-.67,1,.65.65,0,0,0,.88.23Z"/></g><g id="Group_4019" data-name="Group 4019"><path id="Path_28097" data-name="Path 28097" class="cls-3" d="M251.06,86a6.33,6.33,0,0,1,2.06-1.79.82.82,0,0,0,.3-1.13.85.85,0,0,0-.6-.41c-1.73-.52-5,2.51-3.82,4.12C249.71,87.73,251.36,87.43,251.06,86Z"/></g><g id="Group_4020" data-name="Group 4020"><path id="Path_28098" data-name="Path 28098" class="cls-3" d="M241.63,76.51c-.16,3.79,5.91,6.61,9,2.36a6.81,6.81,0,0,0,3.56,1.23c-.26,2.6,2.79,4.72,6.4,2.67.44,0,.88-.48,1.25-.89.7-.76-.39-2-1.18-1.31-3,2.58-5.35.86-5.2-.72a2.25,2.25,0,0,0,1.17-1.27h0a.78.78,0,0,0-1.28-.85c-.68.65-1.75,1.2-4-.26a2.78,2.78,0,0,0-.23-2.4c-.69-.64-2.33.63-1.92,2.19-1.54,2.86-5,2.61-6.43-1A.55.55,0,0,0,242,76,.53.53,0,0,0,241.63,76.51Z"/></g><g id="Group_4021" data-name="Group 4021"><path id="Path_28099" data-name="Path 28099" class="cls-3" d="M263.41,81.52a.55.55,0,0,0,1-.41,4.07,4.07,0,0,1,1-3.37c-.67,1.08-.76,2.82.19,3.62a.81.81,0,0,0,1.15-.1.84.84,0,0,0,.19-.57c-.07-1-1-1.91.88-2.82.49-.24,1.09-.53.87-1.21s-1-.73-1.86-.28c.22-.17.44-.31.64-.44a1.79,1.79,0,0,1,2.52.29l.06.07c.86,1,1.16,4.11,2.34,3.42a.71.71,0,0,0,.3-.38c.89-2.74-1.89-7.32-5.74-5.46C264.45,75.08,261.07,78.83,263.41,81.52Z"/></g><g id="Group_4022" data-name="Group 4022"><path id="Path_28100" data-name="Path 28100" class="cls-3" d="M268.54,85.28a2.56,2.56,0,0,0,.76-.93c.57-.92-.83-3-2.23-2.79a1,1,0,0,0-.88.9c-.1.32-.23.73,0,1a.82.82,0,0,0,.8.1,1.45,1.45,0,0,1,.22.21C266.5,85.22,267.74,85.81,268.54,85.28Z"/></g><g id="Group_4023" data-name="Group 4023"><path id="Path_28101" data-name="Path 28101" class="cls-3" d="M268.72,89.63c2.75-.15,6.11-4.16,4.81-7.12,0-.09-.17-.37-.44-.36s-.46.38-.73,1.18a5.7,5.7,0,0,1-3.81,4.42,1,1,0,0,0-.57.34A.92.92,0,0,0,268,89.4.94.94,0,0,0,268.72,89.63Z"/></g><path id="Path_28102" data-name="Path 28102" class="cls-3" d="M257.07,85.77a6.73,6.73,0,0,1-1.24.35A5.1,5.1,0,0,0,253,89.81a1.37,1.37,0,0,0,1.16,1.57,1.13,1.13,0,0,0,.32,0l0,.1a1.89,1.89,0,0,0,1.58,1.16,1.33,1.33,0,0,0,1.52-1.08.11.11,0,0,1,0,0,.93.93,0,0,0-.23-.58.51.51,0,0,0-.09-.18.72.72,0,0,0-.4-.31l-1-.89c.45-1.59,1-2.7,1.58-3a.43.43,0,0,0,.14-.59A.43.43,0,0,0,257.07,85.77Z"/><g id="Group_4024" data-name="Group 4024"><path id="Path_28103" data-name="Path 28103" class="cls-3" d="M256.94,92.85a.68.68,0,0,0-.17,1,.65.65,0,0,0,1.18-.48.67.67,0,0,0-.26-.44A.65.65,0,0,0,256.94,92.85Z"/></g><g id="Group_4025" data-name="Group 4025"><path id="Path_28104" data-name="Path 28104" class="cls-3" d="M233.23,136.91c-.54-.52-2.09.09-2.58.05s-2.42-1.61-2.83-1.41c-.68.32,0,1.73.24,2a4.21,4.21,0,0,0,4.11,1.13C233.42,138.3,233.61,137.29,233.23,136.91Z"/></g><g id="Group_4026" data-name="Group 4026"><path id="Path_28105" data-name="Path 28105" class="cls-3" d="M237.08,142.33l0,.19h0l0-.19h0c-.51.07-.4-1.12-1.07-1.88-1-1.19-2.29-.25-2.72-.79a.76.76,0,0,0-1.38.59c.05.62.77,1.33,2.21,1.2.65,0,.71,0,.94.66.58,1.73,1.1,2,2.87,2a.91.91,0,0,0,.94-.86.85.85,0,0,0,0-.32C238.63,142.11,237.55,142.26,237.08,142.33Z"/></g><g id="Group_4027" data-name="Group 4027"><path id="Path_28106" data-name="Path 28106" class="cls-3" d="M269.06,119.85a2.06,2.06,0,0,0,1.7-.34,2.14,2.14,0,0,0,1-2.53,1.07,1.07,0,0,0-1.38-.6,1,1,0,0,0-.54.49c-.38.66-.08.69-.92,1a1,1,0,0,0,.12,2Z"/></g><g id="Group_4028" data-name="Group 4028"><path id="Path_28107" data-name="Path 28107" class="cls-3" d="M260.88,114.18c-4,1.86-12.23,9.33-14.77,12.36-.13.17-.31.38-.12.58.45.46,1.38-1.05,10.35-7.87,4.06-3.09,5.72-4.47,9.16-4.52a.52.52,0,0,0,.51-.29.57.57,0,0,0-.2-.6C265.29,113.36,263.67,112.88,260.88,114.18Z"/></g><g id="Group_4029" data-name="Group 4029"><path id="Path_28108" data-name="Path 28108" class="cls-3" d="M285.89,80.1c-.78,1.58-2.25,4.51-5.79,3A5.74,5.74,0,0,1,278,81a.54.54,0,0,0-.74-.11.53.53,0,0,0-.2.47c.38,2.75,4.61,4.92,7.81,2.81,2.83-1.87,2.45-4.87,1.8-4.94-.28,0-.42.25-.72.85l.17.09h0Z"/></g><g id="Group_4030" data-name="Group 4030"><path id="Path_28109" data-name="Path 28109" class="cls-3" d="M243.64,123.12a1.8,1.8,0,0,1-1.3-.76l-.08-.13-3.4,2.31c-1.63,0-1.54-.6-2.2-.86-1.07-.42-1.69,1.41.48,2.3,2,.81,4.62-.64,5.66,2a.93.93,0,0,0,1.22.5.94.94,0,0,0,.46-.44.87.87,0,0,0-.12-1,4.69,4.69,0,0,0-3-2.43Z"/><path id="Path_28110" data-name="Path 28110" class="cls-3" d="M278.9,92.67c-.36.61-.55,1.92-1.13,2.3.22-1.29.44-3.12-.41-4.25-.21-.28-.86-.41-.7.55.41,2.4-1.07,4.94-2.63,6.79-2.77,3.31-9.94,7.21-11.67,3.24-.28-.62,0-.77.22-1.34.16-.41.16-1.13.31-1.44.26-.54.66-1.52.69-1.61a.9.9,0,0,0-.55-1.15.86.86,0,0,0-.42,0c-.46.08-.55.47-.7.87a15.49,15.49,0,0,0-.6,1.82,5.06,5.06,0,0,1-3.43,2.12,2.83,2.83,0,0,0-2.8-2.88,1.7,1.7,0,0,0-.39,0,1.56,1.56,0,0,1-1.36-.38c-1-.8-.18-2.56-.09-3.8.31-4.29-5.46-5.63-6.6-8.71-.48-1.26.3-2.24-.55-2.55-1.13-.41-2,2.25-.44,4.41,1.13,1.53,2.77,2.47,4.18,3.61,3.8,3.1-.19,4.83,1.89,7.73,1.21,1.69,3.44,1,4.08,1.91s-.51,1.46.15,2.14,2.13.46,3.4.1c-.56.78.6,1.79,2.2,1.08,2.59,2.37,6.94.84,9.94-1l-5.15,3.57a2,2,0,0,1-.29,1.86,10.49,10.49,0,0,1-.64.85l3.31-2.2a36.67,36.67,0,0,0-2.24,4.08.34.34,0,0,0,.11.47c.76.52,2.32-3.38,2.66-3.88,2.74-3.92,7.37-6.17,9.55-10.35a12.56,12.56,0,0,1,5.29-5.48c.81-.39,1.76-.89,1.35-1.77C284.89,88.21,280.85,89.38,278.9,92.67Z"/></g><g id="Group_4031" data-name="Group 4031"><path id="Path_28111" data-name="Path 28111" class="cls-3" d="M252.42,136c1.72-1.19,2.94-1,5.73-2.13,3.61-1.43,8.35-2.33,13.79-7.64.84-.62,1.12-2,4.61-2.91,2.64-.71,7.39-2.79,9.51-5.62,3-4,6.69-4.84,7.25-5.32.86-.74.39-2.43-3.05-1.38-2.16.66-3.64,2.28-5.06,3.85-2.1,2.31-3.58,3.75-9.48,6.19a15.43,15.43,0,0,0-3.62,1.84,48.62,48.62,0,0,1-10.08,7c-3.11,1.52-4.85,1.89-8.34,3.72-1.17.62-2.54.64-3.7,1.48a19.5,19.5,0,0,0-2.59,2.55,18.18,18.18,0,0,1-6.15,4.4,2.34,2.34,0,0,0-1.32.7c-.45.76.11,1.37,1,1.42a4.66,4.66,0,0,0,2.37-1C247.32,140.56,247,139.77,252.42,136Z"/></g><g id="Group_4032" data-name="Group 4032"><path id="Path_28112" data-name="Path 28112" class="cls-3" d="M242.68,145.54c.16-.07.23-.08.43-.15l0-.36-.36,0-.28.14Z"/></g><g id="Group_4033" data-name="Group 4033"><path id="Path_28113" data-name="Path 28113" class="cls-3" d="M243.18,87a.9.9,0,0,0-.47-1.67,5.08,5.08,0,0,1-4.61-1.09A3.93,3.93,0,0,1,237,82a6.08,6.08,0,0,1,.25-2.61c.38-.58-.51-1.17-.94-.65l-.53.64c0-1.76,1-3,3.47-4.13a.56.56,0,0,0,.31-.57c-.05-.37-.34-.4-.61-.45a1.91,1.91,0,0,0-1.06,0c-4.69,1.6-4.07,7.2-2.71,7.66a.62.62,0,0,0,.33,0C235.88,87,241.43,88.15,243.18,87Z"/></g><g id="Group_4034" data-name="Group 4034"><path id="Path_28114" data-name="Path 28114" class="cls-3" d="M252.32,56.88a.33.33,0,1,0,.61.25h0c3.36-8.1,10.88-6.57,10.9-2.19,0,.73,1,.76,1.21.11a2.75,2.75,0,0,1,5.38.23.76.76,0,0,0,.86.68.79.79,0,0,0,.61-.42,2,2,0,0,1,2.76-.64,2.06,2.06,0,0,1,.86,1.13c.91,2.09-.56,4.15-1.63,5.94a.62.62,0,0,0,.86.83,7.48,7.48,0,0,0,2.43-3.55c1.48-4.4-2.87-7.81-5.76-5.54a4.1,4.1,0,0,0-6.75-.53C262.81,49.05,255.58,48.32,252.32,56.88Z"/></g><g id="Group_4035" data-name="Group 4035"><path id="Path_28115" data-name="Path 28115" class="cls-3" d="M277.79,64.38a.49.49,0,0,0,.08,1,3.81,3.81,0,0,1,3.6,2.87c.44,2.26-1.29,3.55-2.06,4.24a.68.68,0,0,0,0,1,.66.66,0,0,0,.5.18,4.18,4.18,0,0,0,3.27-3.37,4.73,4.73,0,0,0-3.39-5.77A4.8,4.8,0,0,0,277.79,64.38Z"/></g><path id="Path_28116" data-name="Path 28116" class="cls-3" d="M288.83,6.78A9.28,9.28,0,0,0,285.54.22a.91.91,0,0,0-1.17,0,.91.91,0,0,0-.17,1.16,6.83,6.83,0,0,1,0,5.34,13.77,13.77,0,0,1-3.73,5.07,9.47,9.47,0,0,1-2.78,2,11.48,11.48,0,0,1-3.24.51c-1.51.11-3,.19-4.52.32a6.14,6.14,0,0,0,1.35-.85,16.56,16.56,0,0,0,3.79-5.4A9.12,9.12,0,0,0,276.33,2c-.19-.78-1.38-.4-1.19.38a7.78,7.78,0,0,1-1.08,5.28c-.47.93-1,1.84-1.55,2.73a8.77,8.77,0,0,1-2.11,2.51c-1.83,1.36-4.25,1.38-6.37,2a16.85,16.85,0,0,0-5.67,2.9,17.25,17.25,0,0,0-4.67,5.55.57.57,0,0,0,0,.6,18,18,0,0,0-3.06,7.88,11.81,11.81,0,0,0,1.24,6.81,8.86,8.86,0,0,0,2.15,2.64,4.05,4.05,0,0,0,2.14,1,6.6,6.6,0,0,0,.37,2.2A8.58,8.58,0,0,0,249.29,52c-1.76-.34-7.19.88-9.13,6.63-.58,1.72-.85,4.32.32,5.52a7.87,7.87,0,0,0-2.1,9.43.4.4,0,0,0,.52.18l0,0a.37.37,0,0,0,.16-.45c-2.05-5.72,3.78-11.16,5.64-7.63a.49.49,0,0,0,.67.17.5.5,0,0,0,.23-.34c.27-1.71-1.9-3.33-4.52-1.78,0-1.25-.83-8.39,6.63-9.94.56-.11,1.13-.14,1.71-.29.07.17.2.36.42.35.59,0,.57-1.8.72-2.44,1-4.21,5.85-7.2,10.9-4.34a5,5,0,0,1,4.91-3c1.23.14,2.64.66,2.77,1.9.06.66-.7,1-.47,1.58a.48.48,0,0,0,.44.43,1.05,1.05,0,0,0,1.26-.52,15,15,0,0,1,5.83-1.24.94.94,0,0,0,.61,1.18,1,1,0,0,0,.54,0c2.33-.59,6.16-.27,5.63.43-.37.47-1.28.38-1.91.36-1.15,0-1.35,1.58-.45,2.06,5.86,3,10.48,6,9.08,12.84a.83.83,0,0,0,1.33.79,3.5,3.5,0,0,1,2.56.21,3.38,3.38,0,0,1,1.79,2.44c.76,3.06-1.45,5-2,6a.81.81,0,0,0,.58,1.5c1.24-.36,2.79.79,1.85,2a1.82,1.82,0,0,1-1.15.61c-.61.15-1,1.12,0,1.68-.42,3.19-3.56,3.66-3.81,1.85a.52.52,0,0,0-.57-.45.56.56,0,0,0-.39.27c-.44.82-.23,1.84-.43,2.62A4.49,4.49,0,0,1,286,86.1c-.9-.1-1.18-.31-1.45-.06-.3,0-.45.36-.12.64.28.53,2.42,1.75,5.13,0a5.17,5.17,0,0,0,2-2.53c2.6.47,6-3.51,4.57-6,2.16-1.21,2.54-4.57,0-5.63,3.53-4.93.38-10.27-4-10.24a6,6,0,0,0,.21-2.94c-.65-5-4.62-7.76-8.09-9.64,1.67-1.36,1.94-4.7-4.18-4.48-.77-1.06-6.11-.65-9.14.79.14-2.42-2.43-3.84-5.13-3.5a1.3,1.3,0,0,0,.09-.39,4.29,4.29,0,0,0-.61-2.37.62.62,0,0,0,0-.77,2,2,0,0,1,0-2.29,5.58,5.58,0,0,1,2.47-1.84,21.77,21.77,0,0,1,6.52-1.87c2.14-.26,4.31-.16,6.45-.47a10.58,10.58,0,0,0,6-2.66,6.82,6.82,0,0,0,2.06-6.13.73.73,0,0,0-.66-.52.78.78,0,0,0-.74.4,5.6,5.6,0,0,1-3.56,2.29l.6-.41a36.37,36.37,0,0,0,4.37-3.47,10.28,10.28,0,0,0,3-9,15.18,15.18,0,0,0-2.2-5.78A.67.67,0,0,0,288.83,6.78ZM260.37,44.86a3,3,0,0,0,1.15,0h0l-.28.39A7.39,7.39,0,0,0,260.37,44.86Zm2.89-1.55.37-.58.25-.08a.7.7,0,0,0,.29-.19.89.89,0,0,0,.24.3,6.07,6.07,0,0,0-1.15.55Zm.81-1.72,0,0a.65.65,0,0,0-.16-.21l.13,0a2.33,2.33,0,0,1,.05.28Zm23-33.85a11.6,11.6,0,0,1-2.51,5.76,21.12,21.12,0,0,1-10,7.44,20.38,20.38,0,0,1-7,1.2c-1.15,0-1.07,1.78.08,1.79a22.74,22.74,0,0,0,13.13-4.25,22.48,22.48,0,0,0,5-4.88,14.67,14.67,0,0,0,2.92-6.06,11.23,11.23,0,0,1,1.34,8.09,8.12,8.12,0,0,1-2.17,3.8A30.41,30.41,0,0,1,284,23.8a12.44,12.44,0,0,1-5.06,2.42c-.87.16-.56,1.49.26,1.49,2.8,0,5.86-.21,8.05-1.93a5.88,5.88,0,0,1-2,3.26,10.54,10.54,0,0,1-6.05,2,58.9,58.9,0,0,0-6.63.57A20.78,20.78,0,0,0,266,34a5.19,5.19,0,0,0-2.44,2.68,3.4,3.4,0,0,0,.18,2.79,4.65,4.65,0,0,1-2.46.7,28.25,28.25,0,0,1-2.9.32,6,6,0,0,0-1.27.05.85.85,0,0,0-.5,0c-.69.21-1.47-.6-1.9-1a7.54,7.54,0,0,1-1.52-2.23,10,10,0,0,1-.75-5.48,15.87,15.87,0,0,1,2.05-5.65,25.41,25.41,0,0,1,3.76-5.05,13.44,13.44,0,0,1,5.33-3.47,25.24,25.24,0,0,1,6-1.16c2.11-.2,4.24-.26,6.34-.48a8.07,8.07,0,0,0,3.42-1A16,16,0,0,0,282,12.81a14.65,14.65,0,0,0,4-5.89,9.09,9.09,0,0,0,.46-2.42A7,7,0,0,1,287.05,7.74Z"/></g><path id="Path_28117" data-name="Path 28117" class="cls-4" d="M235.19,129.76a.92.92,0,0,1-.09,1.14,2.82,2.82,0,0,1-1,.67l-2.16,1,1.13-.87"/><g id="Group_4037" data-name="Group 4037"><path id="Path_28118" data-name="Path 28118" class="cls-5" d="M275.23,102.84a5.74,5.74,0,0,0-3.19,1.52,16.61,16.61,0,0,0-6.11,9.8,12.54,12.54,0,0,0-.19,1.37v.06a7,7,0,0,0-3.45.33,1.93,1.93,0,0,0-.44.2,2.65,2.65,0,0,0-1.93.28,88,88,0,0,0-9.91,6.44c-1.7,1.27-3.34,2.62-4.95,4-.73.62-1.44,1.25-2.15,1.9a5.37,5.37,0,0,0-.93,1.09,6.75,6.75,0,0,0-2.89-.72,15.78,15.78,0,0,0-2.38.07,9.71,9.71,0,0,0-2.92.58,6.73,6.73,0,0,0-2,1.23,10.57,10.57,0,0,0-1,1l-.21.24h0l-.15,0a2.47,2.47,0,0,0-1.74.32,2.38,2.38,0,0,0-.92,1.18,2.35,2.35,0,0,0,1.12,2.84A3.32,3.32,0,0,0,231,137a16.79,16.79,0,0,1,1.76.45h0l.32.12.74.32.57.29a2.13,2.13,0,0,0,.22,2,2.35,2.35,0,0,0,3.21.69,9.71,9.71,0,0,1,.94-.56l.16-.07.44-.17c.7-.26,1.42-.46,2.14-.65a22,22,0,0,0,4-1.32,9.74,9.74,0,0,0,3.31-2.41,6.79,6.79,0,0,0,1.44-2.73,14.12,14.12,0,0,0,3.83-2.23,2.53,2.53,0,0,0,1-1.46.36.36,0,0,1,0-.11,82.71,82.71,0,0,0,10.7-7.71l.52.34a3.87,3.87,0,0,0,5.14-.94c.33-.43.63-.86,1-1.27a12.64,12.64,0,0,1,1-1l.2-.19c.24-.18.47-.37.71-.54a9.13,9.13,0,0,0,2.6-2.43,5.06,5.06,0,0,0,.65-3c-.05-.73-.24-1.44-.3-2.17,0-.13,0-.26,0-.39l0,.08a.61.61,0,0,0,0-.13h0v-.06c0-.15.05-.21.06-.14a.31.31,0,0,0,0-.1v.06l.34-.62a4.61,4.61,0,0,0,.6-3.55A3.34,3.34,0,0,0,275.23,102.84Z"/><path id="Path_28119" data-name="Path 28119" class="cls-5" d="M277.48,109.6h0a.61.61,0,0,0-.05.12h0v.07h0v0l0-.09a.45.45,0,0,0,0-.2l0,0Z"/></g><path id="Path_28120" data-name="Path 28120" class="cls-3" d="M241.87,128.77a7.82,7.82,0,0,0-7.72.23,5.26,5.26,0,0,1-2,.77c-.82.09-1.64.14-2.45.21a8.49,8.49,0,0,0-2.3.29,2.1,2.1,0,0,0-1.08,2,7.74,7.74,0,0,0,1,4.77c.59,1,2.09,0,1.5-1a6.13,6.13,0,0,1-.74-2,6.4,6.4,0,0,1-.07-1.16,4,4,0,0,1,0-.49s.09-.36.1-.49a0,0,0,0,1,0,0,4,4,0,0,0,.69-.06l1.38-.12h.08a1,1,0,0,0,1,.31l5.28-1.11a16.17,16.17,0,0,1,4.65-.48.92.92,0,0,0,1-.57A.91.91,0,0,0,241.87,128.77Z"/><g id="Group_4053" data-name="Group 4053"><g id="Group_4038" data-name="Group 4038"><path id="Path_28121" data-name="Path 28121" class="cls-3" d="M349.73,118.45c-3.64,7.07-8.43,10-10.94,12.74a.53.53,0,0,0,0,.76.54.54,0,0,0,.53.11c9.79-3.28,21.74-25.11,13.06-41.1a.52.52,0,0,0-.7-.13.5.5,0,0,0-.2.53c.13.51.31,1,.47,1.5C353.55,97.72,354.83,108.57,349.73,118.45Z"/></g><g id="Group_4039" data-name="Group 4039"><path id="Path_28122" data-name="Path 28122" class="cls-3" d="M408.79,140.67a.42.42,0,0,0-.25.56.43.43,0,0,0,.5.26,1.71,1.71,0,0,1,1.91.83.45.45,0,0,0,.59.16C412.42,142,410.57,139.88,408.79,140.67Z"/></g><g id="Group_4040" data-name="Group 4040"><path id="Path_28123" data-name="Path 28123" class="cls-3" d="M409.17,143c-.43-.25-1-.06-1.47-.26-4.25-1.83-6.42-.75-14-2-4.65-.77-9.34.78-14.43,3.14-2.38,1.11-4.78,2.22-7.26,3.1-1,.35-2,.57-3,.93a33.61,33.61,0,0,1-3.78,1.67,20.08,20.08,0,0,1-4.09.51,10.19,10.19,0,0,1-3.11-.36c-.47-.15-1.4-.43-1.85-.12-.83.55.93,1.29,1.35,1.48a7.54,7.54,0,0,0,4.73.46c.69-.16,1.39-.15,2.08-.34a25.06,25.06,0,0,0,3-1c1.8-.73,3.68-1.26,5.54-1.86a67.37,67.37,0,0,0,7.18-3c14.61-6.68,12.37-1.56,21.25-2.37,2.64-.24,5.31.87,7.85,1.58,1.23.33,1.5-.64.91-1.06C409.76,143.25,409.47,143.11,409.17,143Zm-53.34,7.09a.86.86,0,0,0,.05.27.17.17,0,0,1-.1-.2A.18.18,0,0,1,355.83,150.07Z"/></g><g id="Group_4041" data-name="Group 4041"><path id="Path_28124" data-name="Path 28124" class="cls-3" d="M411.24,136.37a6.56,6.56,0,0,0-2-2.73c-2.85-2.31-6.93-1-9.32-2.56-1.38-.9-1.85-2.75-2.48-4.31-1.92-4.84-5.78-5.71-9.55-.77a.64.64,0,0,0,.09.91.65.65,0,0,0,.91-.08c2.32-2.56,4.3-4,6.32-1.16,1.62,2.23,1.61,5.31,4.26,6.88,3.6,2.13,8.3-1.05,10.73,5.48.17.45-.07,1,.21,1.54.43.8,1,.12,1.25.18a3.48,3.48,0,0,1,1.06,2.6c0,.43-.33.7-.4,1.2-.09.67.6,1.16,1.09.71s.31-.78.37-1.5a5.15,5.15,0,0,0,0-1.3.52.52,0,0,0,.65.31.55.55,0,0,0,.28-.24,3.64,3.64,0,0,0-.65-3.56A4.48,4.48,0,0,0,411.24,136.37Zm2.52,4.81a4.31,4.31,0,0,0-1-1.8c-.36-.4-.55-.36-1.16-1,0-.17,0-.35,0-.52a2.9,2.9,0,0,1,2.07,2,7,7,0,0,1,.1,1.29Z"/></g><g id="Group_4042" data-name="Group 4042"><path id="Path_28125" data-name="Path 28125" class="cls-3" d="M394.24,128.6c.14,3.44,1.56,5.26,2.12,4.93.28-.17.08-.47-.06-.8a6.55,6.55,0,0,0,.86,1,.49.49,0,0,0,.64.07c.39-.26.28-.59,0-1.62a.34.34,0,0,0,.17-.22c.06-.29-.25-.46-.52-.61a.53.53,0,0,0-.73.12l0,0a9.5,9.5,0,0,1-1.15-2.43c-.11-.39-.51-.33-.58-.06a3,3,0,0,1,0-.43.35.35,0,0,0-.37-.32A.34.34,0,0,0,394.24,128.6Z"/></g><g id="Group_4043" data-name="Group 4043"><path id="Path_28126" data-name="Path 28126" class="cls-3" d="M345,94.32c-1.49,5.18-2.31,8.21-7.41,14.22-2,2.32-4.15,4.53-6.17,6.83-3.2,3.64-5.88,7.39-5.72,7.81l.06.15c.24,0,.32,0,.47-.17,3.6-5.17,8.82-9.11,13-13.87,3.28-3.8,7.32-9.82,6.95-14.88a.58.58,0,0,0-.64-.52A.56.56,0,0,0,345,94.32Z"/></g><g id="Group_4044" data-name="Group 4044"><path id="Path_28127" data-name="Path 28127" class="cls-3" d="M382,59.08a.43.43,0,0,0,.35.52.45.45,0,0,0,.52-.32,2,2,0,0,1,2.19-1.48,5.93,5.93,0,0,1,1.85.38.36.36,0,0,0,.47-.18.38.38,0,0,0,0-.33C386,55.17,382.63,55.74,382,59.08Z"/></g><g id="Group_4045" data-name="Group 4045"><path id="Path_28128" data-name="Path 28128" class="cls-3" d="M383.12,55.93a1.22,1.22,0,0,1,1.42,0,.58.58,0,0,0,.79-.14.57.57,0,0,0-.13-.79l0,0c-1.46-1-3.35.1-2.75.85A.52.52,0,0,0,383.12,55.93Z"/></g><g id="Group_4046" data-name="Group 4046"><path id="Path_28129" data-name="Path 28129" class="cls-3" d="M362.08,64.16c-.9,1.62-.47,3.52.35,5.19a3.39,3.39,0,0,1,.57-.14c-1.69-5,.58-5.91,5.84-6.15,2.78-.12,3.53-.17,6.32-2.39,1.53-1.23,3.12-2.5,5.63-2.12.68.1.64-1,0-1.06-2.62-.37-4.52.72-6.45,2.21s-3.16,2.12-6.74,2.2C366.13,61.93,363.32,61.93,362.08,64.16Z"/></g><g id="Group_4047" data-name="Group 4047"><path id="Path_28130" data-name="Path 28130" class="cls-3" d="M368.91,64.28a.39.39,0,0,0-.33.46.41.41,0,0,0,.34.34c2.41.23,5.11-1.15,4.57-2a.48.48,0,0,0-.51-.19,3.55,3.55,0,0,0-1.07.48l.1.16h0l-.1-.16C371.69,63.47,371.67,63.79,368.91,64.28Z"/></g><g id="Group_4048" data-name="Group 4048"><path id="Path_28131" data-name="Path 28131" class="cls-3" d="M367.92,70.67a.45.45,0,0,0-.32-.28c-.89-.31-1.51.88-1.21,1.89s1.27,1.31,1.67,1,.15-.67-.2-.93C367,71.63,368.14,71.29,367.92,70.67Z"/></g><g id="Group_4049" data-name="Group 4049"><path id="Path_28132" data-name="Path 28132" class="cls-3" d="M361.66,89.85c-1-9,3.45-12.28,4.42-15.23.77-2.37-.36-3.77-1.15-4.22s-1.05.07-.72.51c2.26,3-1.14,5.52-2.58,9.44-1.65,4.48-1.06,9.41-.27,10C361.56,90.23,361.7,90.2,361.66,89.85Z"/></g><g id="Group_4050" data-name="Group 4050"><path id="Path_28133" data-name="Path 28133" class="cls-3" d="M361.73,90.17c.15,2.59.14,2.59.19,3-.63-2.34-.38-2.84-.86-2.83a.3.3,0,0,0-.3.27,10.25,10.25,0,0,0,.15,3.22,8.13,8.13,0,0,1-.17-3.29c0-.28-.09-.33-.28-.44l-.14.09A4.41,4.41,0,0,0,359.9,93c.31,3.14,1.45,2.93,1.44,2.37,1.09,3.12,2.14,2.65,2.07,1.93.8,1,1.33.92,1.47.57.79.64,1.1.29,1.48,0C363,95.44,362.58,93.1,361.73,90.17Z"/></g><g id="Group_4051" data-name="Group 4051"><path id="Path_28134" data-name="Path 28134" class="cls-3" d="M387.73,58.85h0c-5.48.37-8,6.75-10.83,9.83-5.34,5.87,3.18,16.39,0,26.84a42.25,42.25,0,0,1-16.63,17.33c-.36-11.67-4.38-22-5.57-23.9a31,31,0,0,1,4.16-1c.42-.13,1.51-2.09-4.52,0a18.07,18.07,0,0,0-4.2,2.08c-3.34-5.45-10.59-7.15-15.25-3.43l-.41.32a.47.47,0,0,0,.45.82,6.58,6.58,0,0,1,1.57-.4,12.93,12.93,0,0,1,4.43-.17,9.44,9.44,0,0,1,7,4.64c.43.68.74,1.18,1.25,1.26a1.58,1.58,0,0,0,1.58-1.58,1.82,1.82,0,0,0-.08-.52A17.5,17.5,0,0,1,354,89.21c.31,1.28,1.11,3,2.21,6.71,4.92,16.59,3.33,35.5-9,47.32l1.52.93a40.25,40.25,0,0,0,10.75-20.77c3.69,4.31,3.48,8.5,5,6.91.93-1-1.68-6.11-4.66-8.9a47.74,47.74,0,0,0,.49-6.43l.44-.25,0,.24c10.09-5.46,19.43-16.85,19-23.61-1-15.87-5.44-15.3-.53-22.24s5.09-7.18,8.75-9.48a.43.43,0,0,0,.17-.5A.42.42,0,0,0,387.73,58.85Z"/></g><g id="Group_4052" data-name="Group 4052"><path id="Path_28135" data-name="Path 28135" class="cls-3" d="M378.81,127.16c-8.9-.52-14.91,3.38-14.85,4.74h0s0,.26,0,.25v.09l.12,0,0-.06.09.11a3,3,0,0,1,.36.16.71.71,0,0,0,.57-.09c1.7-1.2,1.81-1.85,4.89-2.9,5.12-1.75,10.59-.71,15.67.38.55.12,1.09.11,1.58.21a.58.58,0,0,0,.69-.44.55.55,0,0,0,0-.22C387.83,128.73,383.12,127.41,378.81,127.16Z"/></g><path id="Path_28136" data-name="Path 28136" class="cls-3" d="M336,87.68a17.55,17.55,0,0,1,.84,8.35c-4.34-.59-7.11,1-7.35,1.43a.3.3,0,0,0,0,.34c.15.22.38.12,1.07,0a13.41,13.41,0,0,1,6.07-.47c-2.13,10-12.7,17.41-15.67,27.79a18.38,18.38,0,0,0,.35,2.44l-1.3.25a41.24,41.24,0,0,1-7.53.64,44.2,44.2,0,0,1-14.92-2.72,49.2,49.2,0,0,1-7.84-3.61.31.31,0,0,0-.4.16.31.31,0,0,0,.07.33,36,36,0,0,0,14.15,6.71,43.24,43.24,0,0,0,15.91.71,41.87,41.87,0,0,0,4.27-.85c.75-.19,1.5-.39,2.23-.65a4.91,4.91,0,0,0,2.09-1.1.78.78,0,0,0,0-1.1.76.76,0,0,0-.49-.24,5.14,5.14,0,0,0-1.94.32c-.62.16-1.22.37-1.83.54s-1.5.39-2.25.56c2.89-12.47,14-17.7,16.81-29.76.91.3,2,.88,2.29.26a.54.54,0,0,0-.05-.55,3.35,3.35,0,0,0-2-1,16.27,16.27,0,0,0-.15-6.22A8.85,8.85,0,0,0,337,87.09C336.64,86.48,335.76,87,336,87.68Z"/><path id="Path_28137" data-name="Path 28137" class="cls-3" d="M355,148A80.52,80.52,0,0,1,343.5,141c-1.82-1.34-3.56-2.75-5.31-4.17-.87-.71-1.72-1.45-2.56-2.19s-1.76-1.4-2.59-2.15-1.82-1.84-2.7-2.78-1.63-1.89-2.55-2.72c0,0-.1,0-.07.05a19,19,0,0,0,2,2.65c.73.89,1.48,1.77,2.25,2.62s1.49,1.74,2.24,2.61a31.32,31.32,0,0,0,2.43,2.46,69.29,69.29,0,0,0,11,8.38c2.2,1.38,4.46,2.65,6.79,3.83C355.33,150,356,148.51,355,148Z"/></g><g id="Group_4068" data-name="Group 4068"><g id="Group_4054" data-name="Group 4054"><path id="Path_28138" data-name="Path 28138" class="cls-3" d="M296,86.24a.73.73,0,0,0,.07,1l0,0a.68.68,0,0,0,.95,0s0,0,0,0c5.19-6,5.2-13.77,5.22-21.33,0-5,0-9.13,1.42-13.85,2.52-8.41,7.75-14.78,13.52-38.13,2.72,4.08,3.3,10,2.58,15C316.29,36,314.07,41.21,311,48.43a.52.52,0,0,0,.9.5c4.7-6.52,7.69-13.24,8.67-19.44,4-7.89,7.55-13.65,8.45-15.28.77-1.39,1.3-2.3,2.13-2.22,2.46.24.66,6.32-.12,8.65-1.6,4.72-3.09,5.42-2.13,6.13a.82.82,0,0,0,.9.07l0,0c1.9-2.39,1.55-2.6,3-4.59A7.8,7.8,0,0,1,333,26c-.13,1.3-.25,4.09-3.26,9.57a48.65,48.65,0,0,1-14.47,16.19,39.25,39.25,0,0,1-3.93,2.72c-.68.37-.07,1.39.61,1,1.33-.74,2.73-1.42,4-2.24a48.46,48.46,0,0,0,10.77-9.89c1.21.46,10.09-11.71,12.82-18.18.33-.8.79-1.88,1.51-1.94,1.68-.13,1.28,3.24,1.16,4.59a25.85,25.85,0,0,1-4.65,12.28c-2.13,1.75-8.6,7.13-10.25,9.33a.77.77,0,0,0-.37,1,.79.79,0,0,0,1.05.37l.05,0a29.7,29.7,0,0,0,10.17-9.42c4.82-3.88,6.29-4.95,7.46-4.83.43,0,.57-.6.12-.67-2.2-.36-3.15.28-5.7,2.21a33.5,33.5,0,0,0,3.09-9.91c.28-1.71.74-4.06-.54-5.4a2,2,0,0,0-2.24-.58,3.63,3.63,0,0,0-1.72,2,90.08,90.08,0,0,1-7.43,12.37,27.93,27.93,0,0,0,3-7.19,10.87,10.87,0,0,0,.36-4.32,14.52,14.52,0,0,0-1.35-4.05.41.41,0,0,0-.3-.21,16.35,16.35,0,0,0,.7-4.55c.09-1.56.22-3.69-1.17-4.81a2.19,2.19,0,0,0-2-.46,3.33,3.33,0,0,0-1.82,1.72c-2.67,4.37-5.29,9.08-7.81,14A25.89,25.89,0,0,0,317.52,12a.65.65,0,0,0-.9-.19.61.61,0,0,0-.28.37c-2.41,7.51-4.24,14.84-7.6,23.19-.95,2.37-2,4.72-3.06,7.05-6.46,14.78-4.33,17.16-4.93,29.41C300.44,78.23,298.9,82.93,296,86.24Zm23.07-53.81a43.24,43.24,0,0,1-5.19,11.38C315.41,40.22,317.12,36.46,319.11,32.43Z"/></g><g id="Group_4055" data-name="Group 4055"><path id="Path_28139" data-name="Path 28139" class="cls-3" d="M346.58,37.08s0,.06,0,0,0,0,0,0Z"/></g><g id="Group_4056" data-name="Group 4056"><path id="Path_28140" data-name="Path 28140" class="cls-3" d="M346.71,37.28a.21.21,0,0,0,.06-.3l0-.07-.18,0-.07.05a.21.21,0,0,0-.06.3l0,.07.18,0ZM346.5,37a.17.17,0,0,1,.23,0,.17.17,0,1,1-.28.18.17.17,0,0,1,.05-.23Z"/></g><g id="Group_4057" data-name="Group 4057"><path id="Path_28141" data-name="Path 28141" class="cls-3" d="M346.23,37.59a5,5,0,0,1-.87,2.39.26.26,0,0,0,.1.36.27.27,0,0,0,.26,0,4.16,4.16,0,0,0,1-2.73.26.26,0,0,0-.24-.26.27.27,0,0,0-.27.25Z"/></g><g id="Group_4058" data-name="Group 4058"><path id="Path_28142" data-name="Path 28142" class="cls-3" d="M345.61,65.72c2.22-2.71,1-5.11-2.28-5.9,3.71-2.59,9.78-8.88,5.91-11-1.41-.78-3.37-.06-5.11.67a36,36,0,0,0,4-5.63.3.3,0,0,0-.51-.31,29.52,29.52,0,0,1-5.56,6.88A34.16,34.16,0,0,0,333.76,56a.62.62,0,0,0,0,.88.61.61,0,0,0,.72.13,30.84,30.84,0,0,0,7.41-5.2c1.21-.62,4.44-2.12,5.89-2.11a1.29,1.29,0,0,1,1.41,1.14,1.32,1.32,0,0,1-.08.59c-.47,1.87-3.84,5.67-8.34,8.1a9.76,9.76,0,0,0-6.68,2.54.85.85,0,0,0,0,1.2.88.88,0,0,0,.79.25,23.47,23.47,0,0,0,6.85-2.67c1.81,0,4.4.85,4,2.58a2.75,2.75,0,0,1-1.18,1.46,19.67,19.67,0,0,1-4.54,2.81,9.32,9.32,0,0,0-7.07,2c-.69.56-.05,1.49.7,1.42a20.62,20.62,0,0,0,6.72-1.81c5.39,1.15,2.42,4.34-3.79,5.61a3.15,3.15,0,0,0-1.29-.13,8.75,8.75,0,0,0-4.16.35.77.77,0,0,0-.56.81.76.76,0,0,0,.69.67,17.43,17.43,0,0,0,4.33-.08c4.14,1.88,1.23,9.19-6.59,6.39-.39-.18-.79-.33-1.13-.47a.78.78,0,0,0-1,.39l0,0a1,1,0,0,0,.48,1.25c.25.11.5.22.74.31a4.21,4.21,0,0,1,2.39,2,2.52,2.52,0,0,1-.73,2.54c-1.79,1.83-4.62,1.24-7.15.43-.91-.3-1.61,1.08-.71,1.54,1.17.6,2.54,1.27,3,2.54,1,2.58-3.39,4-6.89,3.55-1.27-1.23-3.13-1.05-3.14-.05,0,.59.53.66,1.28.94.3.11.61.23.92.33.66,1,.17,2.74-1.73,3.43a.4.4,0,0,0-.05-.56l-.08,0a30.17,30.17,0,0,1-7.31-4.82,2.13,2.13,0,0,0,.06-1.41,6.72,6.72,0,0,0,5.43-2.67c.88.48,5.78,2.78,8.93,3a.44.44,0,0,0,.44-.44.43.43,0,0,0-.25-.39c-1.58-.62-3.26-1-4.85-1.55-1.26-.45-2.5-1-3.72-1.52a2.82,2.82,0,0,0,.06-2.5,11,11,0,0,0,1.81-.27c4.75-1,5.14-3.68,3.88-5.37a2.43,2.43,0,0,0-.2-.25c3.76-.79,5-4.7,2.34-7.25,3.75-1.4,5.38-5.65,2.59-7.69,5.08-3.11,5-8.18,2.3-9.58a4.72,4.72,0,0,0,1-5.44c-1-2.06-3.92-3.62-7.12-.06a.43.43,0,0,0,0,.57c.27.35.62.11.79,0a6.2,6.2,0,0,1,2.86-1c1.92,0,3.39,3.27.11,5.74a2.8,2.8,0,0,0-1,.65.83.83,0,0,0,1,1.27,9.52,9.52,0,0,0,.87-.52c1.12-.16,2.31,1.13,1.39,3.46a7.47,7.47,0,0,1-1.75,2.58,10.45,10.45,0,0,1-2.44,1.67,2.08,2.08,0,0,0-.5.07c-.88.2-.64,1.67.27,1.52,1.18-.2,2.4,1.51,1.17,3.27a5.63,5.63,0,0,1-3.43,2.21,10.56,10.56,0,0,0-1.47-.49.75.75,0,0,0-.83.43.65.65,0,0,0,.17.83,3.57,3.57,0,0,0,1.73.74c.62.35,2.38,1.56,1.79,3.48s-3.2,2-5.28,1.76a.86.86,0,0,0-1,.72.75.75,0,0,0,.59.87h0l.15,0A4,4,0,0,1,318.28,84a1.29,1.29,0,0,1,.27,1c-.25,1.22-2.55,1.88-3.77,2.13-.92.18-1.87.27-2.8.39-.59.08-.94.56-.43.83a3.93,3.93,0,0,0,.7.28c.75,1.19.05,2-.58,2.81a4.77,4.77,0,0,1-4.39,1.88,7.94,7.94,0,0,1-2.38-.79.68.68,0,0,0-.9.3.65.65,0,0,0,.13.77,4.74,4.74,0,0,0,2.23,1.13c.43.7-.22,1.42-1.62,1.58a7.46,7.46,0,0,1-4.68-1,.75.75,0,0,0-.72,1.31,8.39,8.39,0,0,0,1.4.79,1.51,1.51,0,0,1,.54,1.77c-.66,1.18-3.22.36-4.48-.07-1.61-.55-1.78-.53-1.89-.36a.24.24,0,0,0,0,.27c1.07,1.62,5,3,6.93,1.8A2.52,2.52,0,0,0,302.89,98a5.75,5.75,0,0,0,4-.67,16.39,16.39,0,0,0,7.82,4.55c-3.45,1-7-.8-7.22-.87l-.16-.07c-.83-.37-1.43.93-.67,1.39,1,.63,2.32,1.42,2.59,2.69.36,1.72-1.75,2.67-5.15.91-.63-1.66-2.31-2.64-3.84-3.44a.58.58,0,0,0-.72.15.52.52,0,0,0,0,.68c.23.28.46.58.68.87a10.44,10.44,0,0,0,2.39,2.44c.77,4-7.12,2.91-10.24-3.66a.53.53,0,0,0-.64-.4l-.09,0a.57.57,0,0,0-.31.73c2.5,6.46,12.22,9.58,12.94,4.32,5.77,2.94,8.22-1.62,6.07-4.54,6,1.33,8.87-2,8.38-4.43,5.82.59,9.74-3.18,7.13-6.73,5,.37,7.35-3.71,6-6.48,6.36.51,10.09-5.67,6.19-9.53,3.08-1,7.09-3.49,5.61-6.41a2.88,2.88,0,0,0-1.51-1.24c.33-.2.65-.4.95-.6A11.39,11.39,0,0,0,345.61,65.72Z"/></g><g id="Group_4059" data-name="Group 4059"><path id="Path_28143" data-name="Path 28143" class="cls-3" d="M306.12,77.61c-.87.49-1.91.64-2.83,1.13a.46.46,0,0,0-.15.63.44.44,0,0,0,.39.22c2.66.06,5.65-1.66,5.88-4.31a2.69,2.69,0,0,0-1.27-2.52c3-2.15,3.8-6.31,1.19-7.14a8.76,8.76,0,0,0,1.1-4.42,1.71,1.71,0,0,0-1.75-1.65,14.75,14.75,0,0,0,.4-3.25c0-.73,0-2-.92-2.29v0h0c-1-.27-1.72.73-1,1.33a1.7,1.7,0,0,1,.51,2.35h0c-.44,1.06-.47,2.31-.89,3.4-.12.26-.22.52-.29.7a.7.7,0,0,0,1.29.5c.16-.36.56-1.58,1-1.29s.05,1.44,0,1.8A8.59,8.59,0,0,1,307,66.41h0a.72.72,0,0,0,.25,1,.71.71,0,0,0,1-.11l.07-.09c.34-.47,1.88.23.33,2.81A6.53,6.53,0,0,1,306,72.4c-1.95.4-1.17,1.65-.45,1.5a6.66,6.66,0,0,0,1.37-.45,1.6,1.6,0,0,1,.69.48C308.28,74.74,308,76.55,306.12,77.61Z"/></g><g id="Group_4060" data-name="Group 4060"><path id="Path_28144" data-name="Path 28144" class="cls-3" d="M302.9,94c0-.25-.12-.32-1.41-.67-3.16-.86-3-2.16-4-2.89-.64-.45-1.27,1.35,1.58,3.23C301.14,95,302.93,94.54,302.9,94Z"/></g><g id="Group_4061" data-name="Group 4061"><path id="Path_28145" data-name="Path 28145" class="cls-3" d="M308.59,91.36a.33.33,0,0,0,.11-.46.3.3,0,0,0-.23-.16A17.09,17.09,0,0,1,301,88.21c-.51-.34-1,.45-.48.79C304.65,91.91,308.38,91.51,308.59,91.36Z"/></g><g id="Group_4062" data-name="Group 4062"><path id="Path_28146" data-name="Path 28146" class="cls-3" d="M304.2,83.15c-.55,1.12,6.95,3.19,10.28,1.6a.37.37,0,0,0,.21-.42c-.1-.46-.54-.4-1.91-.23a13.92,13.92,0,0,1-6.68-.71C305.67,83.22,304.41,82.71,304.2,83.15Z"/></g><g id="Group_4063" data-name="Group 4063"><path id="Path_28147" data-name="Path 28147" class="cls-3" d="M313.45,65.3h0a.4.4,0,1,0-.38.71,5.72,5.72,0,0,0,4.37.64.29.29,0,0,0,.2-.35.31.31,0,0,0-.27-.21A10.51,10.51,0,0,1,313.45,65.3Z"/></g><g id="Group_4064" data-name="Group 4064"><path id="Path_28148" data-name="Path 28148" class="cls-3" d="M315.85,64a.31.31,0,0,0-.42.13.3.3,0,0,0,.13.41c3.3,2,7.1.39,6.07-.52-.44-.4-1.85.31-2.12.37A5.69,5.69,0,0,1,315.85,64Z"/></g><g id="Group_4065" data-name="Group 4065"><path id="Path_28149" data-name="Path 28149" class="cls-3" d="M319,63.43c3.59,0,3.76.25,4.4-.17a.46.46,0,0,0,0-.79,3.35,3.35,0,0,0-2.1,0c-1.95.25-2.69,0-2.67.59A.39.39,0,0,0,319,63.43Z"/></g><g id="Group_4066" data-name="Group 4066"><path id="Path_28150" data-name="Path 28150" class="cls-3" d="M314.29,49c6.1-7,12.22-18.79,13.95-25a.42.42,0,0,0-.32-.5.41.41,0,0,0-.47.21C326,27,324.63,30.52,323,33.83a102.79,102.79,0,0,1-9,14.53c-.15.22-.36.44-.12.63A.28.28,0,0,0,314.29,49Z"/></g><g id="Group_4067" data-name="Group 4067"><path id="Path_28151" data-name="Path 28151" class="cls-3" d="M299.82,61.15h0c-.06-1.62,0-3.28.05-4.83.15-3.68.24-4.66,1.8-11,5.49-22.37,2-25.4,1.25-29.81A6.61,6.61,0,0,1,307,19c1.27,2.33,1.37,5.14,1.9,7.71.15.7,1.11.48,1.16-.15.74-8.64-3.82-12.51-7.95-12.33a.62.62,0,0,0-.58.64.79.79,0,0,0,.08.26c.17.36.43.66.6,1,1.08,2,1.39,5.55,1.51,7.69.57,10.36-2.42,15.64-3.84,27.09-.42,3.38-1.09,5.71-.63,10.32a.29.29,0,0,0,.31.26A.28.28,0,0,0,299.82,61.15Z"/></g></g><g id="Group_4083" data-name="Group 4083"><g id="Group_4069" data-name="Group 4069"><path id="Path_28152" data-name="Path 28152" class="cls-3" d="M296,86.24a.73.73,0,0,0,.07,1l0,0a.68.68,0,0,0,.95,0s0,0,0,0c5.19-6,5.2-13.77,5.22-21.33,0-5,0-9.13,1.42-13.85,2.52-8.41,7.75-14.78,13.52-38.13,2.72,4.08,3.3,10,2.58,15C316.29,36,314.07,41.21,311,48.43a.52.52,0,0,0,.9.5c4.7-6.52,7.69-13.24,8.67-19.44,4-7.89,7.55-13.65,8.45-15.28.77-1.39,1.3-2.3,2.13-2.22,2.46.24.66,6.32-.12,8.65-1.6,4.72-3.09,5.42-2.13,6.13a.82.82,0,0,0,.9.07l0,0c1.9-2.39,1.55-2.6,3-4.59A7.8,7.8,0,0,1,333,26c-.13,1.3-.25,4.09-3.26,9.57a48.65,48.65,0,0,1-14.47,16.19,39.25,39.25,0,0,1-3.93,2.72c-.68.37-.07,1.39.61,1,1.33-.74,2.73-1.42,4-2.24a48.46,48.46,0,0,0,10.77-9.89c1.21.46,10.09-11.71,12.82-18.18.33-.8.79-1.88,1.51-1.94,1.68-.13,1.28,3.24,1.16,4.59a25.85,25.85,0,0,1-4.65,12.28c-2.13,1.75-8.6,7.13-10.25,9.33a.77.77,0,0,0-.37,1,.79.79,0,0,0,1.05.37l.05,0a29.7,29.7,0,0,0,10.17-9.42c4.82-3.88,6.29-4.95,7.46-4.83.43,0,.57-.6.12-.67-2.2-.36-3.15.28-5.7,2.21a33.5,33.5,0,0,0,3.09-9.91c.28-1.71.74-4.06-.54-5.4a2,2,0,0,0-2.24-.58,3.63,3.63,0,0,0-1.72,2,90.08,90.08,0,0,1-7.43,12.37,27.93,27.93,0,0,0,3-7.19,10.87,10.87,0,0,0,.36-4.32,14.52,14.52,0,0,0-1.35-4.05.41.41,0,0,0-.3-.21,16.35,16.35,0,0,0,.7-4.55c.09-1.56.22-3.69-1.17-4.81a2.19,2.19,0,0,0-2-.46,3.33,3.33,0,0,0-1.82,1.72c-2.67,4.37-5.29,9.08-7.81,14A25.89,25.89,0,0,0,317.52,12a.65.65,0,0,0-.9-.19.61.61,0,0,0-.28.37c-2.41,7.51-4.24,14.84-7.6,23.19-.95,2.37-2,4.72-3.06,7.05-6.46,14.78-4.33,17.16-4.93,29.41C300.44,78.23,298.9,82.93,296,86.24Zm23.07-53.81a43.24,43.24,0,0,1-5.19,11.38C315.41,40.22,317.12,36.46,319.11,32.43Z"/></g><g id="Group_4070" data-name="Group 4070"><path id="Path_28153" data-name="Path 28153" class="cls-3" d="M346.58,37.08s0,.06,0,0,0,0,0,0Z"/></g><g id="Group_4071" data-name="Group 4071"><path id="Path_28154" data-name="Path 28154" class="cls-3" d="M346.71,37.28a.21.21,0,0,0,.06-.3l0-.07-.18,0-.07.05a.21.21,0,0,0-.06.3l0,.07.18,0ZM346.5,37a.17.17,0,0,1,.23,0,.17.17,0,1,1-.28.18.17.17,0,0,1,.05-.23Z"/></g><g id="Group_4072" data-name="Group 4072"><path id="Path_28155" data-name="Path 28155" class="cls-3" d="M346.23,37.59a5,5,0,0,1-.87,2.39.26.26,0,0,0,.1.36.27.27,0,0,0,.26,0,4.16,4.16,0,0,0,1-2.73.26.26,0,0,0-.24-.26.27.27,0,0,0-.27.25Z"/></g><g id="Group_4073" data-name="Group 4073"><path id="Path_28156" data-name="Path 28156" class="cls-3" d="M345.61,65.72c2.22-2.71,1-5.11-2.28-5.9,3.71-2.59,9.78-8.88,5.91-11-1.41-.78-3.37-.06-5.11.67a36,36,0,0,0,4-5.63.3.3,0,0,0-.51-.31,29.52,29.52,0,0,1-5.56,6.88A34.16,34.16,0,0,0,333.76,56a.62.62,0,0,0,0,.88.61.61,0,0,0,.72.13,30.84,30.84,0,0,0,7.41-5.2c1.21-.62,4.44-2.12,5.89-2.11a1.29,1.29,0,0,1,1.41,1.14,1.32,1.32,0,0,1-.08.59c-.47,1.87-3.84,5.67-8.34,8.1a9.76,9.76,0,0,0-6.68,2.54.85.85,0,0,0,0,1.2.88.88,0,0,0,.79.25,23.47,23.47,0,0,0,6.85-2.67c1.81,0,4.4.85,4,2.58a2.75,2.75,0,0,1-1.18,1.46,19.67,19.67,0,0,1-4.54,2.81,9.32,9.32,0,0,0-7.07,2c-.69.56-.05,1.49.7,1.42a20.62,20.62,0,0,0,6.72-1.81c5.39,1.15,2.42,4.34-3.79,5.61a3.15,3.15,0,0,0-1.29-.13,8.75,8.75,0,0,0-4.16.35.77.77,0,0,0-.56.81.76.76,0,0,0,.69.67,17.43,17.43,0,0,0,4.33-.08c4.14,1.88,1.23,9.19-6.59,6.39-.39-.18-.79-.33-1.13-.47a.78.78,0,0,0-1,.39l0,0a1,1,0,0,0,.48,1.25c.25.11.5.22.74.31a4.21,4.21,0,0,1,2.39,2,2.52,2.52,0,0,1-.73,2.54c-1.79,1.83-4.62,1.24-7.15.43-.91-.3-1.61,1.08-.71,1.54,1.17.6,2.54,1.27,3,2.54,1,2.58-3.39,4-6.89,3.55-1.27-1.23-3.13-1.05-3.14-.05,0,.59.53.66,1.28.94.3.11.61.23.92.33.66,1,.17,2.74-1.73,3.43a.4.4,0,0,0-.05-.56l-.08,0a30.17,30.17,0,0,1-7.31-4.82,2.13,2.13,0,0,0,.06-1.41,6.72,6.72,0,0,0,5.43-2.67c.88.48,5.78,2.78,8.93,3a.44.44,0,0,0,.44-.44.43.43,0,0,0-.25-.39c-1.58-.62-3.26-1-4.85-1.55-1.26-.45-2.5-1-3.72-1.52a2.82,2.82,0,0,0,.06-2.5,11,11,0,0,0,1.81-.27c4.75-1,5.14-3.68,3.88-5.37a2.43,2.43,0,0,0-.2-.25c3.76-.79,5-4.7,2.34-7.25,3.75-1.4,5.38-5.65,2.59-7.69,5.08-3.11,5-8.18,2.3-9.58a4.72,4.72,0,0,0,1-5.44c-1-2.06-3.92-3.62-7.12-.06a.43.43,0,0,0,0,.57c.27.35.62.11.79,0a6.2,6.2,0,0,1,2.86-1c1.92,0,3.39,3.27.11,5.74a2.8,2.8,0,0,0-1,.65.83.83,0,0,0,1,1.27,9.52,9.52,0,0,0,.87-.52c1.12-.16,2.31,1.13,1.39,3.46a7.47,7.47,0,0,1-1.75,2.58,10.45,10.45,0,0,1-2.44,1.67,2.08,2.08,0,0,0-.5.07c-.88.2-.64,1.67.27,1.52,1.18-.2,2.4,1.51,1.17,3.27a5.63,5.63,0,0,1-3.43,2.21,10.56,10.56,0,0,0-1.47-.49.75.75,0,0,0-.83.43.65.65,0,0,0,.17.83,3.57,3.57,0,0,0,1.73.74c.62.35,2.38,1.56,1.79,3.48s-3.2,2-5.28,1.76a.86.86,0,0,0-1,.72.75.75,0,0,0,.59.87h0l.15,0A4,4,0,0,1,318.28,84a1.29,1.29,0,0,1,.27,1c-.25,1.22-2.55,1.88-3.77,2.13-.92.18-1.87.27-2.8.39-.59.08-.94.56-.43.83a3.93,3.93,0,0,0,.7.28c.75,1.19.05,2-.58,2.81a4.77,4.77,0,0,1-4.39,1.88,7.94,7.94,0,0,1-2.38-.79.68.68,0,0,0-.9.3.65.65,0,0,0,.13.77,4.74,4.74,0,0,0,2.23,1.13c.43.7-.22,1.42-1.62,1.58a7.46,7.46,0,0,1-4.68-1,.75.75,0,0,0-.72,1.31,8.39,8.39,0,0,0,1.4.79,1.51,1.51,0,0,1,.54,1.77c-.66,1.18-3.22.36-4.48-.07-1.61-.55-1.78-.53-1.89-.36a.24.24,0,0,0,0,.27c1.07,1.62,5,3,6.93,1.8A2.52,2.52,0,0,0,302.89,98a5.75,5.75,0,0,0,4-.67,16.39,16.39,0,0,0,7.82,4.55c-3.45,1-7-.8-7.22-.87l-.16-.07c-.83-.37-1.43.93-.67,1.39,1,.63,2.32,1.42,2.59,2.69.36,1.72-1.75,2.67-5.15.91-.63-1.66-2.31-2.64-3.84-3.44a.58.58,0,0,0-.72.15.52.52,0,0,0,0,.68c.23.28.46.58.68.87a10.44,10.44,0,0,0,2.39,2.44c.77,4-7.12,2.91-10.24-3.66a.53.53,0,0,0-.64-.4l-.09,0a.57.57,0,0,0-.31.73c2.5,6.46,12.22,9.58,12.94,4.32,5.77,2.94,8.22-1.62,6.07-4.54,6,1.33,8.87-2,8.38-4.43,5.82.59,9.74-3.18,7.13-6.73,5,.37,7.35-3.71,6-6.48,6.36.51,10.09-5.67,6.19-9.53,3.08-1,7.09-3.49,5.61-6.41a2.88,2.88,0,0,0-1.51-1.24c.33-.2.65-.4.95-.6A11.39,11.39,0,0,0,345.61,65.72Z"/></g><g id="Group_4074" data-name="Group 4074"><path id="Path_28157" data-name="Path 28157" class="cls-3" d="M306.12,77.61c-.87.49-1.91.64-2.83,1.13a.46.46,0,0,0-.15.63.44.44,0,0,0,.39.22c2.66.06,5.65-1.66,5.88-4.31a2.69,2.69,0,0,0-1.27-2.52c3-2.15,3.8-6.31,1.19-7.14a8.76,8.76,0,0,0,1.1-4.42,1.71,1.71,0,0,0-1.75-1.65,14.75,14.75,0,0,0,.4-3.25c0-.73,0-2-.92-2.29v0h0c-1-.27-1.72.73-1,1.33a1.7,1.7,0,0,1,.51,2.35h0c-.44,1.06-.47,2.31-.89,3.4-.12.26-.22.52-.29.7a.7.7,0,0,0,1.29.5c.16-.36.56-1.58,1-1.29s.05,1.44,0,1.8A8.59,8.59,0,0,1,307,66.41h0a.72.72,0,0,0,.25,1,.71.71,0,0,0,1-.11l.07-.09c.34-.47,1.88.23.33,2.81A6.53,6.53,0,0,1,306,72.4c-1.95.4-1.17,1.65-.45,1.5a6.66,6.66,0,0,0,1.37-.45,1.6,1.6,0,0,1,.69.48C308.28,74.74,308,76.55,306.12,77.61Z"/></g><g id="Group_4075" data-name="Group 4075"><path id="Path_28158" data-name="Path 28158" class="cls-3" d="M302.9,94c0-.25-.12-.32-1.41-.67-3.16-.86-3-2.16-4-2.89-.64-.45-1.27,1.35,1.58,3.23C301.14,95,302.93,94.54,302.9,94Z"/></g><g id="Group_4076" data-name="Group 4076"><path id="Path_28159" data-name="Path 28159" class="cls-3" d="M308.59,91.36a.33.33,0,0,0,.11-.46.3.3,0,0,0-.23-.16A17.09,17.09,0,0,1,301,88.21c-.51-.34-1,.45-.48.79C304.65,91.91,308.38,91.51,308.59,91.36Z"/></g><g id="Group_4077" data-name="Group 4077"><path id="Path_28160" data-name="Path 28160" class="cls-3" d="M304.2,83.15c-.55,1.12,6.95,3.19,10.28,1.6a.37.37,0,0,0,.21-.42c-.1-.46-.54-.4-1.91-.23a13.92,13.92,0,0,1-6.68-.71C305.67,83.22,304.41,82.71,304.2,83.15Z"/></g><g id="Group_4078" data-name="Group 4078"><path id="Path_28161" data-name="Path 28161" class="cls-3" d="M313.45,65.3h0a.4.4,0,1,0-.38.71,5.72,5.72,0,0,0,4.37.64.29.29,0,0,0,.2-.35.31.31,0,0,0-.27-.21A10.51,10.51,0,0,1,313.45,65.3Z"/></g><g id="Group_4079" data-name="Group 4079"><path id="Path_28162" data-name="Path 28162" class="cls-3" d="M315.85,64a.31.31,0,0,0-.42.13.3.3,0,0,0,.13.41c3.3,2,7.1.39,6.07-.52-.44-.4-1.85.31-2.12.37A5.69,5.69,0,0,1,315.85,64Z"/></g><g id="Group_4080" data-name="Group 4080"><path id="Path_28163" data-name="Path 28163" class="cls-3" d="M319,63.43c3.59,0,3.76.25,4.4-.17a.46.46,0,0,0,0-.79,3.35,3.35,0,0,0-2.1,0c-1.95.25-2.69,0-2.67.59A.39.39,0,0,0,319,63.43Z"/></g><g id="Group_4081" data-name="Group 4081"><path id="Path_28164" data-name="Path 28164" class="cls-3" d="M314.29,49c6.1-7,12.22-18.79,13.95-25a.42.42,0,0,0-.32-.5.41.41,0,0,0-.47.21C326,27,324.63,30.52,323,33.83a102.79,102.79,0,0,1-9,14.53c-.15.22-.36.44-.12.63A.28.28,0,0,0,314.29,49Z"/></g><g id="Group_4082" data-name="Group 4082"><path id="Path_28165" data-name="Path 28165" class="cls-3" d="M299.82,61.15h0c-.06-1.62,0-3.28.05-4.83.15-3.68.24-4.66,1.8-11,5.49-22.37,2-25.4,1.25-29.81A6.61,6.61,0,0,1,307,19c1.27,2.33,1.37,5.14,1.9,7.71.15.7,1.11.48,1.16-.15.74-8.64-3.82-12.51-7.95-12.33a.62.62,0,0,0-.58.64.79.79,0,0,0,.08.26c.17.36.43.66.6,1,1.08,2,1.39,5.55,1.51,7.69.57,10.36-2.42,15.64-3.84,27.09-.42,3.38-1.09,5.71-.63,10.32a.29.29,0,0,0,.31.26A.28.28,0,0,0,299.82,61.15Z"/></g></g></g><g id="Group_4086" data-name="Group 4086"><path id="Path_28166" data-name="Path 28166" class="cls-6" d="M239.07,23.51a13.44,13.44,0,0,0-6.72,6.91.66.66,0,0,1-.68.56,6.52,6.52,0,0,0-.9.18c-4.31,1-7.68,4.44-7.69,10.75a.74.74,0,0,1-.38.72c-4.4,3.13-5.64,9.67-4.15,13.44,1.26,3.21,1.72,3.08,1.41,3.48a6.35,6.35,0,0,0-1.09,3.35c-.62,7.66,9.33,10.32,12.39,2.38a.62.62,0,0,1,.6-.51,16.57,16.57,0,0,1,6.57,1.55,1.36,1.36,0,0,1,.12-.48,8.85,8.85,0,0,1,.72-1.18A10.28,10.28,0,0,1,240.45,61a14.16,14.16,0,0,1,2.39-3.89l.23-.2a11.89,11.89,0,0,1,3-3.74l.14-.09c.83-1,1.65-2.09,2.52-3.1a1.51,1.51,0,0,1,.6-.43c.64-.95,1.34-1.85,2-2.8a27.38,27.38,0,0,1,2-2.91,1.22,1.22,0,0,1,.42-1.16l0,0c-1.23-1-1.16-1.14-5.52-7a.3.3,0,0,1,0-.44l0,0a7.19,7.19,0,0,0,2.06-7.11C249.33,22.92,243.26,21.88,239.07,23.51Z"/><g id="Group_4085" data-name="Group 4085"><path id="Path_28167" data-name="Path 28167" class="cls-7" d="M238.72,66.36c.65-.22.74-1.48.86-2a19.43,19.43,0,0,1,1-3.14,22.48,22.48,0,0,1,3-5.06c2.39-3.1,5.32-5.74,7.59-8.93l.43-.62.09-.13c.1-.15.21-.3.33-.46a12.48,12.48,0,0,0,1.19-2.18c.26-.55.62-.83.35-1.31a3,3,0,0,0-.42-.38,12.54,12.54,0,0,1-.84-1c-1.42-1.8-2.73-3.69-4.1-5.53a.31.31,0,0,1,0-.44l0,0a7.2,7.2,0,0,0,2.06-7.12c-1-5.13-7-6.17-11.23-4.54a13.44,13.44,0,0,0-6.72,6.91.66.66,0,0,1-.68.56,6.52,6.52,0,0,0-.9.18c-4.31,1-7.68,4.44-7.69,10.75a.74.74,0,0,1-.38.72c-4.4,3.13-5.64,9.67-4.15,13.44,1.26,3.21,1.72,3.08,1.41,3.48a6.35,6.35,0,0,0-1.09,3.35c-.62,7.66,9.33,10.32,12.39,2.38a.62.62,0,0,1,.6-.51,11.7,11.7,0,0,1,4.38.74c.55.18,1.81,1,2.36.88Zm-4.79-2.53c-1.22-.54-2.24-.15-2-.89a8.51,8.51,0,0,0,0-1.82c0-.13,0-.32-.17-.3s-.12.19-.15.32c-.38,1.32-.36,2.74-1,4-1.25,2.63-3.89,4.83-6.46,3.67a6.82,6.82,0,0,1-2.78-1.75c-1.95-2.38-1.67-5-.25-7.8.34-.66,3.55-2.69,5.59-3-1.9-.83-4.71.68-5.64,1.84-.23.27-.3.16-.45-.08-2.2-3.41-2.17-7-.88-10.66a6.57,6.57,0,0,1,2.57-3.43c3.43-2.16,5.09-1.07,6.6-1.07.18,0,.41,0,.44-.18s-4.29-1-4.94-.76c-.23.08-.3,0-.29-.28a11.68,11.68,0,0,1,1.48-5.57c3.14-5.53,8.69-4.57,12.67-3.45.24.06.47,0,.56-.16s-.22-.36-.37-.4c-.88-.27-4.67-1.38-5.74-1.21A18.26,18.26,0,0,1,235.4,27a9.69,9.69,0,0,1,4.94-2.84c3.92-.69,7.91.63,9.09,4.19,1.73,5.23-3.79,7.81-4.33,9a5.33,5.33,0,0,0,1.7-.81c.34-.36.52-.24.72.07a48,48,0,0,0,3.72,4.7c1.57,1.88,3,.87-2,7.23s-9,8.88-10.52,16.78c-.07.34-.15.4-.48.24-1.4-.69-2.93-1.06-4.37-1.7Z"/><path id="Path_28168" data-name="Path 28168" class="cls-8" d="M243.21,38.83a4.31,4.31,0,0,1-1.09,1.58c-2.3,2.15-7.41,10.24-9.63,16.94-.07.13-.07.35-.29.28s-.11-.31-.07-.44a38.73,38.73,0,0,1,4-9.77C238,43.94,241.39,39.19,243.21,38.83Z"/></g></g></g></g></g></svg>