<svg xmlns="http://www.w3.org/2000/svg" width="39.719" height="67.559" viewBox="0 0 39.719 67.559">
  <path id="drop-8" d="M153.48,256.528c1.184.04.846-1.658.4-2.278.232-.342.731-1.14.276-1.426-.05-.81-.921-.613-.914-.989.226-.362,1.3-.058,1.026-.694-.3-.536-.676-2.248-1.479-2.284.136-1.1-.36-4.279-1.094-5.112.241-.028.34-.211.444-.391.124-.819-.4-.985-.9-1.371a19.391,19.391,0,0,1-.556-2.812c-.45-.148-.651,1.145-1.1.087,1.145-1.086-.276-3.253-.992-4.613-.446-.853-.4-2.046-1.137-2.743a3.374,3.374,0,0,0-.833-1.3,1.6,1.6,0,0,0-.437-1.731c-.046-.056-.066-.117-.109-.173a.952.952,0,0,0-.226-.89c-.205-.23-.716-.791-.759-.863-.007-.013-.035-.056-.068-.1-.007.038-.289-.309-.235-.351-.425-.63-1.141-1.687-1.1-1.674.013-.1-.4-1.481-.391-1.472.582-1.286-1.269-2.3-1.68-2.492-1.148-2.785-.672-3.9-1.126-6.567.152-.117.247-3.928.31-5.247-.565.942-.418-1.113-.627-1.485a26.1,26.1,0,0,1-1.607-3.14c-1.293.512-1.743,1.917-3.025,1.8a2.137,2.137,0,0,0-.614.8.792.792,0,0,1,.078.142c.032.112-.211.419-.245.4a.155.155,0,0,1-.038-.015,9.608,9.608,0,0,0-.159,2.933c.306-.041.391.678.769.629a15.42,15.42,0,0,1-.416,2.211c-.159.444-.452.931-1.075.895-.344.525-.142,1.464-.58,1.835-.341,2.17-.156,4.306-1.479,6.288-1.1-.356-.542.2-.462.747a6.523,6.523,0,0,0-.763,3.013c-.149-.08-.3-.158-.447-.239-1.085.793-.583,1.39-1.135,2.32-.359.607-1.1.7-1.41,1.142a.482.482,0,0,0,.285.387c-.217-.022-.8.466-.915.586.176-.187-.134,1.123-.145,1.07-.54.691-1.21,1.327-1.724,1.982-.627.8-.1,1.559-.973,2.205-.168.086-.337.173-.5.26q.788.531-.165.741a1.111,1.111,0,0,0-.481,1.5,5.416,5.416,0,0,0-1.9.753,13.158,13.158,0,0,0-1.519,2.6c-.8-.469-1.371.2-1.534,1.42-.207,1.547-2.068,3.1-2.087,4.574,0,.1.173,1.79-.074,1.448.638.9-.251.915-.582,1.572a15.7,15.7,0,0,0-.344,2.489c-.558.344,0,2.248.323,2.064.216,1.129-.217.582.335,1.637-.032.477.224,1.433.232,2.008.009.673-.372.741-.2,1.4a10.453,10.453,0,0,0,.806,2.509c.506.136,1.435-.9,1.34.112-.217-.069-.177.765-.4.806a.416.416,0,0,0,.146.49c.283.035.577.13.813-.13.278,1.352,1.64,1.658,1.886,2.731a13.845,13.845,0,0,0,1.988,2.127c.494.382,1.237.215,1.473.638-1.373.435,1.354,1.512,1.122.667,1.295.241,2.849,1.593,4.394,1.547.756-.021,1.46-.022,2.235-.044a4.01,4.01,0,0,1,1.225.446,2.8,2.8,0,0,1,.035-1.407c.416.456.784.862,1.145,1.262a.593.593,0,0,1,.726-.071c1.02.48,1.013.195,2.111.1.925-.077,1.811-.289,1.721-.12a23.17,23.17,0,0,0,4.6-.863c.644-.208,1.181-.869,1.909-.387a.48.48,0,0,0,.272-.136c-.164-.983,1-.895,1.129.109,0,.01,0,.021,0,.03.769-.18,1.978-.849,1.721-1.419.21-.512-.518-.17-.481-.53.432-.118,1.64.552,1.907.133,1.236-.763.223-.326.328-1.179.187-.13,1.06-.74,1.021-.889.23-.065,1.293-1.6,1.169-1.816-.236-.4-.992-.007-1.42-.338.279-.3.555-.218.911-.459,0,0,1.367-1.64.382-1.655.09-.337,1.051-.038,1.082-.624.022-.472-.28-1.107-.21-1.51.093.046,1.005.472.841.044-.14-.19.388-.7-.218-1.416a.53.53,0,0,1,.376-.261c.44-.229-.266-.463-.441-.573a.99.99,0,0,0,.009-.115c.118-.229.754-.4.793-.419C155.042,256.92,153.529,256.687,153.48,256.528Zm-33.77-1.959c-1.1-.5-.462-1.29-.368-2.219C120.07,253.17,120.2,253.784,119.71,254.569Zm6.186,1.771a6.659,6.659,0,0,1,1.066,1.163c.177.332-.115.707-.509.768a1.182,1.182,0,0,1-1.212-1.348C125.306,256.723,125.6,256.6,125.9,256.34Zm16.312-30,.087.224a.975.975,0,0,0-.616.388,2.722,2.722,0,0,0-.394,1.081c-.195-.158-.378-.325-.564-.49A1.586,1.586,0,0,1,142.208,226.338ZM138.1,209.055c-.094,2.126-.094,2.126-.769,2.611C137.221,210.708,136.638,209.605,138.1,209.055ZM131.3,228.133a1.946,1.946,0,0,1,1.625-1.52c.148-.031.36.272.648.5-.564.546-1.039,1.051-1.566,1.482-.148.122-.469.035-.7,0A1.009,1.009,0,0,1,131.3,228.133Zm1.61,36.922c-.431-1.064.362-1.519,1.185-2.4C134.289,264.494,134.289,264.494,132.915,265.055Zm6.5-13.655c-.258-1.988-.167-2.111,1.9-2.558C140.806,249.884,140.535,250.865,139.419,251.4Zm2.149-4.47,1.413-.009c.019.407.037.74.052,1.082C142.154,248.207,141.941,247.371,141.568,246.93Zm1.9,5.9a.957.957,0,0,1-1.28-.459c-.037-.065,0-.173,0-.313.226-.043.489-.173.7-.114a2.678,2.678,0,0,1,.807.5C143.716,252.457,143.587,252.79,143.472,252.83Zm3.814,6.284c.038-.277.351-.515.621-.88a3,3,0,0,1-.109,2.475C147.031,260.37,147.193,259.692,147.286,259.114Zm-.024,8.671c-.009.025-.053.041-.065.025a2.11,2.11,0,0,1,2-1.315C149.1,267.26,149.1,267.26,147.263,267.784Z" transform="translate(-114.663 -204.411)" fill="#88171a"/>
</svg>
