<svg id="food-beer-icon" xmlns="http://www.w3.org/2000/svg" width="50" height="50" viewBox="0 0 50 50">
  <g id="Layer_1" data-name="Layer 1" transform="translate(0 0)">
    <circle id="Ellipse_148" data-name="Ellipse 148" cx="25" cy="25" r="25" fill="#b69564"/>
    <path id="Path_33264" data-name="Path 33264" d="M76.29,43.137a3.455,3.455,0,0,0-2.414-1.16.326.326,0,0,1-.283-.2,3.483,3.483,0,0,0-6.119-.572.337.337,0,0,1-.54,0,3.483,3.483,0,0,0-6.117.566.328.328,0,0,1-.3.2h-.048a3.476,3.476,0,1,0,2.544,5.841.32.32,0,0,1,.24-.1.332.332,0,0,1,.119.024.324.324,0,0,1,.205.3v.838a8.665,8.665,0,0,1-1.486,4.712,2.375,2.375,0,0,0-.369,1.606A2.405,2.405,0,1,0,66.135,53.6a9.1,9.1,0,0,1-1.511-4.858v-.132a.324.324,0,0,1,.505-.27,3.455,3.455,0,0,0,1.943.589A3.492,3.492,0,0,0,70.1,47.17a.322.322,0,0,1,.561,0,3.483,3.483,0,1,0,5.634-4.034Z" transform="translate(-44.251 -30.808)" fill="#fff"/>
    <path id="Path_33265" data-name="Path 33265" d="M74.755,78a4.131,4.131,0,0,1-5.087,1.259,8.637,8.637,0,0,0,1.388,4.079,3.053,3.053,0,1,1-5.139-.032,8.013,8.013,0,0,0,1.38-4.357v-.11a4.09,4.09,0,0,1-4.727.138V99.45a2.015,2.015,0,0,0,2.012,2.012H78.309a2.015,2.015,0,0,0,2.015-2.012V78.967a4.053,4.053,0,0,1-2.038.684A4.118,4.118,0,0,1,74.755,78ZM66.139,97.794a.648.648,0,0,1-1.3,0V88.68a.648.648,0,0,1,1.3,0Zm5.955,0a.648.648,0,0,1-1.3,0V88.68a.648.648,0,0,1,1.3,0Zm5.955,0a.648.648,0,0,1-1.3,0V81.986a.648.648,0,0,1,1.3,0Z" transform="translate(-48.627 -60.498)" fill="#fff"/>
    <path id="Path_33266" data-name="Path 33266" d="M151.809,102.82h-4v1.3h3.023a.324.324,0,0,1,.324.324v8.836a.324.324,0,0,1-.324.324H147.81v1.3h4a.648.648,0,0,0,.648-.648V103.47a.648.648,0,0,0-.648-.65Z" transform="translate(-115.174 -80.017)" fill="#fff"/>
  </g>
</svg>
