<svg xmlns="http://www.w3.org/2000/svg" width="50" height="50" viewBox="0 0 50 50">
  <g id="food-rest-icon" transform="translate(0 0.415)">
    <g id="Layer_1" data-name="Layer 1" transform="translate(0 -0.415)">
      <circle id="Ellipse_200" data-name="Ellipse 200" cx="25" cy="25" r="25" transform="translate(0 0)" fill="#b69564"/>
      <path id="Path_33270" data-name="Path 33270" d="M76.167,105.795a9.185,9.185,0,0,1-12.037,2.653l1.7,14.589H86.5l1.707-14.594a9.185,9.185,0,0,1-12.037-2.653Zm-6.207,16.4h-.091a.737.737,0,0,1-.737-.651L67.9,111.1a.737.737,0,0,1,1.464-.172L70.6,121.369A.737.737,0,0,1,69.959,122.194Zm6.944-.737a.737.737,0,0,1-1.474,0V111.025a.737.737,0,0,1,1.474,0Zm7.369-10.9a.737.737,0,0,1,.152.545L83.2,121.541a.737.737,0,0,1-.737.653h-.086a.737.737,0,0,1-.491-.278.722.722,0,0,1-.152-.543l1.228-10.438a.739.739,0,0,1,.82-.641.722.722,0,0,1,.486.27Z" transform="translate(-51.337 -83.476)" fill="#fff"/>
      <path id="Path_33271" data-name="Path 33271" d="M67.233,42.783a5.7,5.7,0,0,0-1.448.189.263.263,0,0,1-.275-.1,5.254,5.254,0,0,0-8.716,0,.269.269,0,0,1-.281.108,6.24,6.24,0,0,0-6.852,3.052,10.1,10.1,0,0,0-.771,8.924c1.15,2.911,3.548,4.759,6.177,4.76a6.67,6.67,0,0,0,5.83-3.982.271.271,0,0,1,.507,0c1.75,3.453,5.247,4.882,8.326,3.4s4.867-5.448,4.256-9.448-3.447-6.9-6.752-6.9Z" transform="translate(-36.357 -31.869)" fill="#fff"/>
      <path id="Path_33272" data-name="Path 33272" d="M71.514,179.737a1.061,1.061,0,0,0,1.056.938H90.782a1.064,1.064,0,0,0,1.056-.938l.084-.717H71.43Z" transform="translate(-56.848 -139.53)" fill="#fff"/>
    </g>
  </g>
</svg>
