<svg xmlns="http://www.w3.org/2000/svg" width="50" height="50" viewBox="0 0 50 50">
  <g id="food-dish-icon" transform="translate(4 -9)">
    <g id="Layer_1" data-name="Layer 1" transform="translate(-4 9)">
      <circle id="Ellipse_149" data-name="Ellipse 149" cx="25" cy="25" r="25" fill="#b69564"/>
      <path id="Path_33267" data-name="Path 33267" d="M73.552,64.4A12.891,12.891,0,1,0,86.934,77.282,13.139,13.139,0,0,0,73.552,64.4Zm0,21.919a9.044,9.044,0,1,1,9.388-9.038,9.218,9.218,0,0,1-9.388,9.038Z" transform="translate(-48.071 -50.893)" fill="#fff"/>
      <circle id="Ellipse_150" data-name="Ellipse 150" cx="8.34" cy="8.34" r="8.34" transform="translate(17.175 18.087)" fill="#fff"/>
      <path id="Path_33268" data-name="Path 33268" d="M178.723,48.675h0l-.177-.2-1.468-1.621a.74.74,0,0,0-.781-.2.643.643,0,0,0-.462.61V69.648a11.642,11.642,0,0,1-.586,2.993,1.713,1.713,0,0,0,.766,1.94,2.108,2.108,0,0,0,2.256-.009,1.711,1.711,0,0,0,.748-1.946,10.9,10.9,0,0,1-.57-2.978l-.465-7.218h1.822a.67.67,0,0,0,.7-.638l.07-8.237A7.319,7.319,0,0,0,178.723,48.675Z" transform="translate(-137.07 -35.769)" fill="#fff"/>
      <path id="Path_33269" data-name="Path 33269" d="M35.493,61.24V54.113a.7.7,0,0,0-.845-.684.717.717,0,0,0-.558.712v4.782a.335.335,0,1,1-.668,0V54.141a.717.717,0,0,0-.561-.712.7.7,0,0,0-.835.684v4.81a.335.335,0,0,1-.335.335h-.026a.333.333,0,0,1-.333-.335V54.141a.717.717,0,0,0-.561-.712.7.7,0,0,0-.835.684v4.81a.335.335,0,1,1-.67,0V54.141a.717.717,0,0,0-.558-.712.7.7,0,0,0-.838.684V61.24c0,1.629,1.494,3.058,3,3.59L30.4,77.024a12.834,12.834,0,0,1-.554,3.2,2.022,2.022,0,0,0,.233,1.668,1.962,1.962,0,0,0,2.166.817A1.766,1.766,0,0,0,32.9,82.4a1.959,1.959,0,0,0,.712-2.094,13.877,13.877,0,0,1-.586-3.274l-.465-12.219C34.025,64.253,35.493,62.822,35.493,61.24Z" transform="translate(-21.385 -42.401)" fill="#fff"/>
    </g>
  </g>
</svg>
