<svg xmlns="http://www.w3.org/2000/svg" viewBox="0 0 226.27 226.27"><defs><style>.cls-1{fill:#b69564;}.cls-2{fill:#fff;}</style></defs><g id="圖層_2" data-name="圖層 2"><g id="Layer_1" data-name="Layer 1"><circle class="cls-1" cx="113.14" cy="113.14" r="113.14"/><path class="cls-2" d="M83,34.54c-12.7,0-23,15.82-23,35.28,0,15.69,8.66,29.36,18.31,33.78l-2,53.88c0,6.18-2,14.61-3.67,20.59A10.79,10.79,0,1,0,93.39,178c-1.63-5.66-3.58-13.81-3.58-20.5l-2-53.91c9.62-4.46,18.24-18.13,18.24-33.75C106.05,50.36,95.72,34.54,83,34.54Z"/><path class="cls-2" d="M162.7,35.89A3.07,3.07,0,0,0,160.3,39V67.73a3.39,3.39,0,1,1-6.77,0V39a3.06,3.06,0,0,0-2.4-3.06,3,3,0,0,0-3.6,2.94v28.9a3.38,3.38,0,0,1-3.38,3.39H144a3.38,3.38,0,0,1-3.38-3.39V39a3.07,3.07,0,0,0-2.4-3.06,3,3,0,0,0-3.6,2.94v28.9a3.38,3.38,0,1,1-6.76,0V39a3.07,3.07,0,0,0-2.41-3.06,3,3,0,0,0-3.59,2.94V82.89c0,9.6,8.22,18.12,17.26,21.1l-2,53.49c0,6.07-1.93,14.31-3.59,20.27a11.12,11.12,0,0,0,1.73,9.74,10.78,10.78,0,0,0,10.23,4.13A10.78,10.78,0,0,0,154.21,178c-1.63-5.66-3.57-13.81-3.57-20.5l-2-53.36c9.28-2.85,17.66-11.42,17.66-21.23V38.83A3,3,0,0,0,162.7,35.89Z"/></g></g></svg>