<svg xmlns="http://www.w3.org/2000/svg" viewBox="0 0 226.27 226.27"><defs><style>.cls-1{fill:#b69564;}.cls-2{fill:#fff;}</style></defs><g id="圖層_2" data-name="圖層 2"><g id="Layer_1" data-name="Layer 1"><circle class="cls-1" cx="113.14" cy="113.14" r="113.14"/><path class="cls-2" d="M146.4,55.83a16,16,0,0,0-11.18-5.37,1.51,1.51,0,0,1-1.31-.92,16.13,16.13,0,0,0-28.34-2.65,1.56,1.56,0,0,1-2.5,0,16.13,16.13,0,0,0-28.33,2.62,1.52,1.52,0,0,1-1.41.92l-.22,0h0A16.12,16.12,0,0,0,57,67.3,16.11,16.11,0,0,0,84.89,77.48,1.48,1.48,0,0,1,86,77a1.54,1.54,0,0,1,.55.11,1.5,1.5,0,0,1,.95,1.39v3.88a40.13,40.13,0,0,1-6.88,21.82,11,11,0,0,0-1.71,7.44,11.14,11.14,0,1,0,20.46-7.33,42.14,42.14,0,0,1-7-22.5v-.61a1.5,1.5,0,0,1,2.34-1.25,16,16,0,0,0,9,2.73,16.17,16.17,0,0,0,14-8.17,1.49,1.49,0,0,1,2.6,0,16.12,16.12,0,0,0,14.89,8.15,16.28,16.28,0,0,0,15.23-15.12A16,16,0,0,0,146.4,55.83Z"/><path class="cls-2" d="M119,78a19.13,19.13,0,0,1-23.56,5.83,40,40,0,0,0,6.43,18.89,14.14,14.14,0,1,1-23.8-.15,37.11,37.11,0,0,0,6.39-20.18v-.51a18.94,18.94,0,0,1-21.89.64v94.82a9.33,9.33,0,0,0,9.32,9.32h63.57a9.33,9.33,0,0,0,9.33-9.32V82.48a18.77,18.77,0,0,1-9.44,3.17A19.07,19.07,0,0,1,119,78Zm-39.9,91.67a3,3,0,0,1-6,0V127.46a3,3,0,1,1,6,0Zm27.58,0a3,3,0,0,1-6,0V127.46a3,3,0,0,1,6,0Zm27.58,0a3,3,0,0,1-6,0V96.46a3,3,0,0,1,6,0Z"/><path class="cls-2" d="M166.33,102.82H147.81v6h14a1.5,1.5,0,0,1,1.5,1.5v40.92a1.5,1.5,0,0,1-1.5,1.5h-14v6h18.52a3,3,0,0,0,3-3V105.83A3,3,0,0,0,166.33,102.82Z"/></g></g></svg>