<svg xmlns="http://www.w3.org/2000/svg" viewBox="0 0 226.27 226.27"><defs><style>.cls-1{fill:#b69564;}.cls-2{fill:#fff;}</style></defs><g id="圖層_2" data-name="圖層 2"><g id="Layer_1" data-name="Layer 1"><circle class="cls-1" cx="113.14" cy="113.14" r="113.14"/><path class="cls-2" d="M113.13,105.81a37.39,37.39,0,0,1-49,10.8L71.07,176h84.12l6.95-59.41a37.39,37.39,0,0,1-49-10.8ZM87.86,172.57l-.37,0a3,3,0,0,1-3-2.65l-5-42.5a3,3,0,0,1,.63-2.21,3,3,0,0,1,5.33,1.51l5,42.49A3,3,0,0,1,87.86,172.57Zm28.27-3a3,3,0,1,1-6,0V127.1a3,3,0,0,1,6,0Zm30-44.36a3,3,0,0,1,.62,2.22l-5,42.48a3,3,0,0,1-3,2.66l-.35,0a3,3,0,0,1-2-1.13,2.94,2.94,0,0,1-.62-2.21l5-42.49a3,3,0,0,1,1.14-2,3,3,0,0,1,2.2-.61A2.94,2.94,0,0,1,146.1,125.23Z"/><path class="cls-2" d="M143.64,49.62a34.84,34.84,0,0,0-7.26.77A1.5,1.5,0,0,1,135,50,30,30,0,0,0,91.3,50a1.52,1.52,0,0,1-1.41.44,34.45,34.45,0,1,0-7.25,68.13,34.3,34.3,0,0,0,29.23-16.21,1.49,1.49,0,0,1,2.54,0,34.45,34.45,0,1,0,29.23-52.69Z"/><path class="cls-2" d="M71.77,181.94a4.32,4.32,0,0,0,4.3,3.82h74.14a4.33,4.33,0,0,0,4.3-3.82l.34-2.92H71.43Z"/></g></g></svg>