<svg id="plate" xmlns="http://www.w3.org/2000/svg" width="194.224" height="31.154" viewBox="0 0 194.224 31.154">
  <g id="圖層_1" data-name="圖層 1">
    <path id="Path_73753" data-name="Path 73753" d="M193.827,9.739c-.14-.253-.2-.54-.333-.8a1.854,1.854,0,0,0-.406-.666,8.516,8.516,0,0,0-2.075-1.482,32.085,32.085,0,0,0-7.491-1.875c-.633-.093-1.279-.15-1.9-.29a59.522,59.522,0,0,0-8.673-1.082c-1.885-.133-3.774-.25-5.662-.383-2.3-.167-4.61-.363-6.915-.516-2.165-.147-4.327-.313-6.495-.366-2.218-.06-4.416-.243-6.621-.42s-4.33-.333-6.508-.446c-3.311-.18-6.625-.333-9.939-.49C128,.789,125.181.653,122.363.54c-2.212-.09-4.427-.153-6.638-.223-.786-.023-1.572-.053-2.358-.057-2.248,0-4.5-.033-6.745,0-1.136,0-2.275.167-3.407.137C101.29.333,99.372.18,97.45.08c-.533-.027-1.066-.023-1.6-.027C93.816.033,91.784,0,89.749,0,88.224,0,86.7.123,85.173.127c-2.5,0-5,0-7.5-.057-3.727-.09-7.427.087-11.138.213-1.069.033-2.138.1-3.207.157q-4.43.226-8.866.476c-.283,0-.566.057-.853.073q-2.884.15-5.769.286c-1.852.087-3.714.1-5.559.25-3.094.243-6.178.553-9.263.859q-3.191.316-6.368.693c-2.262.27-4.52.566-6.778.866-1.8.233-3.6.473-5.4.733A51.02,51.02,0,0,0,6.595,6.452,18.7,18.7,0,0,0,1.242,8.806,2.442,2.442,0,0,0,0,10.732a10.8,10.8,0,0,0,.593,4.52,1.485,1.485,0,0,0,.566.783A30.95,30.95,0,0,0,8.02,18.912c4,1.266,8.16,2.1,12.294,2.974,3.747.8,7.514,1.5,11.328,2.1,3.477.533,6.931,1.182,10.4,1.745,2.331.376,4.683.7,7.028,1.036h.037a1.845,1.845,0,0,0,.39.107C59.32,28.324,69.189,29.3,79.074,30.2a1.555,1.555,0,0,0,.733-.093,1.725,1.725,0,0,0,.43.093,230.818,230.818,0,0,0,41.411.047,1.709,1.709,0,0,0,.9-.333c3.491-.2,6.994-.356,10.472-.686a37.418,37.418,0,0,0,3.84-.57l1.212-.053a1.612,1.612,0,0,0,1.079-.453c1.719-.42,3.421-.919,5.129-1.456a1.739,1.739,0,0,0,.56-.29c2.238-.406,4.473-.809,6.7-1.229s4.463-.856,6.688-1.309c2.018-.41,4.03-.853,6.039-1.286,1.422-.306,2.838-.639,4.26-.933,1.182-.243,2.381-.41,3.561-.666,1.942-.416,3.874-.863,5.805-1.312,1.479-.333,2.958-.693,4.423-1.086,1.292-.35,2.571-.759,3.847-1.159a29.954,29.954,0,0,0,5.163-1.822c1.332-.713,2.418-1.559,2.665-3.018.033-.19.1-.373.143-.563a3.2,3.2,0,0,0-.31-2.285ZM3.444,9.965h0A2.884,2.884,0,0,1,4.4,9.383c1.192-.333,2.408-.566,3.617-.833s2.481-.56,3.73-.8c1.6-.313,3.2-.623,4.813-.879q3.212-.5,6.442-.926c.916-.12,1.842-.16,2.764-.243.853-.077,1.7-.173,2.551-.236,2.738-.21,5.476-.393,8.214-.61,1.522-.123,3.041-.3,4.563-.443.283-.03.566-.053.853-.06,2.781-.09,5.562-.183,8.343-.256,3.031-.077,6.062-.11,9.089-.207,2.638-.08,5.269-.233,7.907-.333,1.332-.05,2.7-.033,4.047-.07,3.854-.107,7.707-.25,11.561-.333,2.248-.043,4.5,0,6.751.043,2.331.03,4.64.14,6.961.107,3.211-.047,6.415.093,9.626.1,3.071,0,6.142.127,9.213.163,2.142.027,4.287-.05,6.428,0,1.815.05,3.627.286,5.446.333s3.564-.067,5.329-.113a15.988,15.988,0,0,1,2.332.17c1.449.177,2.911.256,4.367.363,1.635.12,3.274.226,4.909.333a5.2,5.2,0,0,0,.966,0,31.72,31.72,0,0,1,5.509.117c1.426.05,2.848.07,4.27.153,2.275.133,4.55.31,6.825.466,1.459.1,2.921.193,4.38.3q1.226.083,2.448.207c.849.083,1.7.2,2.548.276,2.625.246,5.262.413,7.877.739a46.814,46.814,0,0,1,7.034,1.162A17.416,17.416,0,0,1,190.337,9.9a2.378,2.378,0,0,1,.54.46.29.29,0,0,1-.027.3q-1.559.5-3.131.963a.766.766,0,0,1-.3-.05.746.746,0,0,1,.137-.24c.263-.213.546-.406.809-.616a.15.15,0,0,0,0-.167.213.213,0,0,0-.177-.07,2.691,2.691,0,0,0-.666.273,3.55,3.55,0,0,0-.873.7,2,2,0,0,1-1.845.736l.037-.03h0c-.683.143-1.362.286-2.045.42a.2.2,0,0,1-.167-.077.187.187,0,0,1,.053-.173q1.5-1.219,3-2.431c.077-.06.183-.11.223-.19a.333.333,0,0,0-.023-.25.2.2,0,0,0-.176-.073,3.749,3.749,0,0,0-.849.463,31.26,31.26,0,0,0-2.831,2.6c-.5.553-1.109.49-1.7.633,0,0-.1-.117-.087-.15a3.866,3.866,0,0,0,.2-.333.283.283,0,0,0-.067-.253.333.333,0,0,0-.276-.057,3.557,3.557,0,0,0-1.116.716,2.059,2.059,0,0,1-1.446.666.8.8,0,0,1-.28-.05.594.594,0,0,1,.07-.18c.18-.207.6-.313.4-.666-.107-.2-.426-.113-.893.273-.206.173-.366.393-.573.566a1.412,1.412,0,0,1-.516.3c-.226.067-.636.143-.693.06-.183-.26.206-.333.333-.476.07-.08.057-.216.08-.333-.13,0-.3-.06-.386,0a4.606,4.606,0,0,0-.909.666,1.476,1.476,0,0,1-.893.476c-1.092.143-2.188.28-3.281.413a.393.393,0,0,1-.2-.04.433.433,0,0,1,.05-.243c.127-.193.3-.366.4-.563a.333.333,0,0,0,0-.333.4.4,0,0,0-.356-.033c-.44.263-.929.476-1.132.976a.666.666,0,0,1-.426.36c-.879.1-1.769.167-2.665.23a.716.716,0,0,1-.26-.08,1.015,1.015,0,0,1,.127-.246c.493-.546,1-1.076,1.472-1.639.09-.107.04-.353-.037-.5-.03-.057-.35-.067-.463,0a4.836,4.836,0,0,0-.886.666,16.12,16.12,0,0,0-1.432,1.545,1.183,1.183,0,0,1-.953.5c-2.741.187-5.476.4-8.217.59-2.841.193-5.689.333-8.53.553-1.739.127-3.464.38-5.2.5-2.022.14-4.05.19-6.075.283-1.332.06-2.635.14-3.954.19-.783.03-1.569,0-2.355.027q-2.928.06-5.862.133c-1.162.027-2.331.077-3.487.083-1,0-2-.037-2.978-.057a5.579,5.579,0,0,0-.746,0,15.964,15.964,0,0,1-2.764,0c-.956-.043-1.915.09-2.874.083-3.274-.027-6.552.023-9.829-.107-2.455-.1-4.916-.07-7.371-.1-1.705-.02-3.411-.057-5.116-.057-1.246,0-2.488.053-3.734.067-.426,0-.856-.023-1.279-.057-1.982-.16-3.964-.3-5.959-.266-.853,0-1.709-.087-2.565-.127q-3.892-.175-7.781-.333c-1.349-.06-2.695-.153-4.043-.207s-2.781-.04-4.167-.12c-1.948-.11-3.89-.283-5.835-.426-1.386-.1-2.771-.19-4.153-.283-3.054-.2-6.112-.386-9.163-.616-2.331-.177-4.686-.41-7.028-.633a1.731,1.731,0,0,1-1.332-.506.6.6,0,0,0-.849-.083h0c-.273.293-.49.233-.819.163a17.821,17.821,0,0,0-1.792-.243.416.416,0,0,1-.41-.333,4.718,4.718,0,0,0-1.7-1.809.929.929,0,0,0-.59-.087.293.293,0,0,0-.27.333.286.286,0,0,0,.1.2c.36.353.739.689,1.092,1.049a1.665,1.665,0,0,1,.223.4,2.092,2.092,0,0,1-.516.067c-.39-.037-.769-.123-1.159-.167-1.306-.15-2.618-.263-3.92-.433a34.64,34.64,0,0,1-4.044-.666,3.307,3.307,0,0,0-.63-.1,49.854,49.854,0,0,1-7.278-1.033c-.946-.167-1.9-.31-2.838-.483-.626-.113-1.242-.266-1.865-.4-.253-.067-.293-.226-.14-.346Zm31.928,10.2h0a1.226,1.226,0,0,1-.333.143c-.666-.2-1.312-.39-1.952-.586-.366-.113-.733-.24-1.1-.373s-.826-.1-1.112-.42c.39,0,.776-.03,1.162,0a14.987,14.987,0,0,0,1.592.123,1.926,1.926,0,0,1,1.665.873C35.339,19.984,35.4,20.134,35.372,20.161Zm1.119-.333h0a1.072,1.072,0,0,1-.233-.17,1.6,1.6,0,0,1-.157-.3c.06-.017.157-.06.17-.043a2.482,2.482,0,0,1,.256.356c.017.05-.02.107-.037.173Zm6.122,2.052h0a.19.19,0,0,1-.173,0,7.624,7.624,0,0,1-.836-.706c-.383-.41-.723-.853-1.072-1.289-.033-.04.02-.133.043-.246.183.057.363.063.433.143.556.646,1.1,1.306,1.632,1.965a.14.14,0,0,1-.027.15Zm2.951.883a3.274,3.274,0,0,1-.913-.446c-.783-.686-1.522-1.409-2.272-2.125-.067-.06-.147-.21-.12-.233a.606.606,0,0,1,.2-.107,1.145,1.145,0,0,1,1.272.613,8.179,8.179,0,0,0,2,2.055,1.113,1.113,0,0,1,.16.233.853.853,0,0,1-.326.027Zm4.806.849a1.785,1.785,0,0,0-.7.03,4.923,4.923,0,0,1-2.331-1.059c-.849-.773-1.792-1.459-2.688-2.188a1.472,1.472,0,0,1-.216-.3c.13-.027.26-.063.39-.08a2.252,2.252,0,0,1,.3,0c.8.073,1.582.133,2.355.233a1,1,0,0,1,.63.283,18.764,18.764,0,0,0,2.9,3.054.333.333,0,0,1,.07.127Zm-.939-3.028a.358.358,0,0,1,.087-.13c.04-.04.063,0,.127-.02a1.129,1.129,0,0,1,.22.153c.17.2.333.4.483.616s.626.333.426.739a6.754,6.754,0,0,1-.759-.583,5.493,5.493,0,0,1-.583-.759Zm3.614,3.407c-.406-.333-.809-.633-1.2-.966a1.582,1.582,0,0,1-.246-.38,1.352,1.352,0,0,1,.44.137c.5.4,1,.823,1.469,1.239l.04.043Zm-1.852-3.367h0s.08-.113.123-.113c.643,0,.666.583,1.019.873.02,0,.02.06.03.09a.863.863,0,0,1-.153.087.172.172,0,0,1-.09-.043C51.812,21.223,51.5,20.927,51.193,20.624Zm9.136,4.27h-.553l-.3-.037v-.02h-.14l-1.665-.2a2.182,2.182,0,0,1-.433-.256Q55.263,22.7,53.308,21a.286.286,0,0,1-.093-.246.313.313,0,0,1,.243-.12c.57.023,1.139.057,1.709.093.14,0,.276.06.42.073a5.762,5.762,0,0,1,2,.207c.54.276.776.963,1.176,1.449.57.693,1.169,1.366,1.745,2.055a1.092,1.092,0,0,1,.127.333,1.269,1.269,0,0,1-.3.05Zm1.492-.113a7.73,7.73,0,0,1-.666-.6c-.59-.586-1.206-1.162-1.742-1.789h0a5.076,5.076,0,0,1-.633-1.186c0-.033.187-.207.246-.19a.739.739,0,0,1,.42.236,22.351,22.351,0,0,0,2.481,3.331.526.526,0,0,1,.06.167C61.921,24.757,61.841,24.8,61.821,24.78Zm10.708.866c-.959,0-1.922-.033-2.881-.077-.816-.033-1.635-.1-2.451-.153-.353-.027-.706-.1-1.059-.1a2,2,0,0,1-1.522-.773,16.709,16.709,0,0,1-2.158-2.611,1.916,1.916,0,0,0-.316-.376.243.243,0,0,0-.193-.02.19.19,0,0,0-.1.15h0a.9.9,0,0,0,.127.353,18.845,18.845,0,0,0,1.412,1.8A1.079,1.079,0,0,1,63.67,24.9a.8.8,0,0,1-.06.147c-.063-.023-.15-.033-.183-.073q-1.3-1.742-2.6-3.5c-.18-.243-.067-.4.283-.416s.643,0,.966,0a1.836,1.836,0,0,1,2.192,1.212,4.174,4.174,0,0,0,.823,1.116c.207.22.193.636.666.639a8.658,8.658,0,0,0-.393-.856c-.333-.566-.7-1.112-1.039-1.665-.12-.2,0-.283.22-.3.633-.06.7-.02.913.52A4.223,4.223,0,0,0,66.6,23.541a.16.16,0,0,0,.2.11.157.157,0,0,0,.11-.193.15.15,0,0,0-.08-.1c-.3-.576-.626-1.146-.923-1.722a.383.383,0,0,1-.02-.333c.17-.216,1.262,0,1.4.29.2.41.39.823.593,1.232a.689.689,0,0,0,.193.223.223.223,0,0,0,.183.033c.05-.027.1-.117.083-.16q-.245-.625-.51-1.249c-.067-.167-.04-.333.213-.333a2.587,2.587,0,0,1,.333-.027c.743.05,1.486.123,2.228.147a.546.546,0,0,1,.593.433,10.6,10.6,0,0,0,1.665,3.4C73.029,25.513,72.942,25.646,72.529,25.646Zm1.9.17c-.46,0-.753-.053-.959-.516-.373-.823-.9-1.592-1.332-2.395A3.8,3.8,0,0,1,71.8,22c-.04-.16-.053-.42.05-.5a.709.709,0,0,1,.906.223,4.663,4.663,0,0,1,.356,1A9.625,9.625,0,0,0,74.3,25.387c.05.093.226.226.3.207.263-.07.117-.26.07-.39h0c-.333-.846-.666-1.682-1-2.528-.426-1.142-.406-1.172.939-1.092,2.095.127,4.19.31,6.288.4,2.665.12,5.329.163,8.014.26,1.639.06,3.274.187,4.913.233,2.212.063,4.423.077,6.638.11a4.742,4.742,0,0,1,.533,0c.466.02.533.083.543.53v1.056H101.5c-.047.57-.073,1.146-.147,1.715-.027.187.023.513-.37.456-.266-.037-.243-.253-.243-.456a4.726,4.726,0,0,0-.1-.746c0-.047-.077-.087-.117-.13a.469.469,0,0,0-.087.14,1.178,1.178,0,0,0-.037.283c0,1.082-.027.973-1.156.953a37.349,37.349,0,0,0-4.14.17,3.608,3.608,0,0,1-.536,0c-1.252-.08-1.272-.087-1.386-1.189-.08-.763-.113-1.529-.18-2.292a.78.78,0,0,0-.123-.253c-.05.093-.143.19-.14.283.02.733.06,1.462.093,2.195,0,.19.03.383.03.573a.55.55,0,0,1-.53.57.56.56,0,0,1-.31-.08.523.523,0,0,1-.226-.383c-.087-.7-.143-1.4-.213-2.1a1.271,1.271,0,0,0-.077-.256,1.921,1.921,0,0,0-.05.276c0,.606,0,1.216-.023,1.822,0,.21.073.516-.246.556a.836.836,0,0,1-.616-.243c-.236-.27-.223-.1-.24.073-.023.26-.243.3-.456.3q-2.085-.03-4.163-.083c-.533,0-1.066-.073-1.6-.1-2.455-.127-4.909-.26-7.364-.373-.759-.037-1.545-.047-2.328-.04Zm27.695-1.765V22.9c0-.233.19-.31.44-.3s.4.153.376.366c-.113,1.079-.246,2.155-.383,3.231,0,.06-.147.107-.223.16-.053-.067-.157-.133-.157-.2V24.051Zm1.592-1.169h0a1.4,1.4,0,0,1,.253-.253c.1.107.293.22.286.333-.023.476-.1.949-.167,1.422-.08.566-.167,1.136-.26,1.7,0,.077-.11.143-.17.216-.06-.09-.123-.177-.177-.266v-.1h.08l.13-2.764a.643.643,0,0,1,.023-.29Zm8.993,2.351h0c.053,0,.14,0,.157-.03a3.994,3.994,0,0,0,.273-.516c.21-.506.413-1.019.616-1.532a.593.593,0,0,1,.5-.436c.556-.077.706.067.54.546-.266.759-.533,1.522-.793,2.285-.2.566-.193.57-.886.59q-2.778.09-5.552.17a7.313,7.313,0,0,0-2.438.06c-.27.107-.44-.063-.4-.376.057-.476.167-.946.226-1.422.07-.536.123-1.076.163-1.619a.333.333,0,0,1,.333-.356h.809l6.328.13h.536c.233,0,.306.12.236.313-.19.516-.386,1.029-.563,1.545a3.3,3.3,0,0,0-.11.563.107.107,0,0,0,.033.09Zm28.827-3c-1.159.746-2.3,1.505-3.494,2.208a2.887,2.887,0,0,1-1.036.133h-.017c.819-.5,1.639-1,2.451-1.515.41-.26.789-.55,1.212-.786a3.307,3.307,0,0,1,.776-.253,1.092,1.092,0,0,1,.2.05c-.03.057-.047.133-.1.163Zm-1.715.183c-.7.5-1.406,1-2.092,1.5a9.911,9.911,0,0,0-.739.666h0c-1.056.12-2.108.246-3.164.333-.453.047-.913.047-1.372.067l1.053-.906c.54-.46,1.106-.9,1.609-1.392a.889.889,0,0,1,.606-.333q1.972-.123,3.95-.243a.433.433,0,0,1,.233.14c.063.06-.03.133-.077.17Zm-6.845.3a.547.547,0,0,1-.167.12l-3.267,2.138a1.256,1.256,0,0,1-.453.236,3.33,3.33,0,0,1-.683-.04,4,4,0,0,1,.413-.41h0c.909-.666,1.835-1.3,2.731-1.978a1.4,1.4,0,0,1,1.116-.37,1.523,1.523,0,0,1,.246,0,.537.537,0,0,1,.173.06.762.762,0,0,1-.1.24Zm-2.135.15q-1.749,1.232-3.514,2.451a.713.713,0,0,1-.293.1,1.566,1.566,0,0,1-.306-.03c.027-.08.023-.183.083-.23h0c.18-.15.39-.273.576-.42.8-.626,1.589-1.259,2.4-1.875a6.151,6.151,0,0,1,.733-.423l.46.183c-.037.08-.057.19-.13.24Zm-1.769.043a4.2,4.2,0,0,1-.533.47q-1.129.809-2.275,1.592c-.2.133-.44.217-.64.333-.333.223-.333-.077-.46-.213-.03-.033-.253.06-.37.123a2.2,2.2,0,0,1-1.619.333,1.869,1.869,0,0,0-.526.047c-1.629.13-3.257.276-4.889.386h0c-1.392.1-1.4.073-.873-1.043.207-.44.423-.879.6-1.332a1.626,1.626,0,0,0,.023-.523,2.241,2.241,0,0,0-.426.406c-.3.506-.57,1.026-.853,1.542a4.157,4.157,0,0,1-.393.666.909.909,0,0,1-.49.3c-.759.143-.869,0-.643-.666s.4-1.289.583-1.935c.207-.716.2-.719,1.059-.733q1.769-.03,3.531-.047h2.665v-.113h6.1a.763.763,0,0,1,.213,0c.117.04.233.083.35.133a1.076,1.076,0,0,1-.127.27ZM157.9,21.2h0q-4.227.743-8.463,1.476c-.243.043-.49.073-.7.1l-.24-.057a.951.951,0,0,1,.18-.2c.227-.15.533-.24.683-.433a1.9,1.9,0,0,1,1.559-.666c2.2-.12,4.4-.28,6.595-.426.107,0,.21-.027.316-.03h.983c-.3.07-.6.18-.9.236Zm32.668-7.827c-.973.31-1.925.666-2.908.946-1.529.43-3,1-4.5,1.482-1.832.6-3.767.953-5.662,1.4-.859.2-1.729.373-2.595.54-.453.09-.913.153-1.372.213-1.482.183-2.961.386-4.45.536-2.332.24-4.663.473-7.018.649-2.841.216-5.7.353-8.54.55-2.1.147-4.19.363-6.288.51-1.849.127-3.7.2-5.559.3-.886.047-1.769.133-2.665.167-2.421.1-4.823.406-7.258.406-3.6,0-7.208.127-10.811.187-1.642.027-3.284,0-4.923.043-4.963.177-9.922-.133-14.882-.11q-3.257,0-6.518-.077-4.6-.11-9.193-.283c-2.665-.1-5.329-.246-7.994-.38-1.422-.073-2.844-.193-4.267-.25-2-.073-4-.09-6-.167-1.779-.067-3.554-.19-5.329-.27-.889-.04-1.782-.03-2.665-.063q-2.408-.1-4.816-.226c-.533-.03-1.066-.1-1.6-.133-2-.133-4-.233-5.975-.39-2.331-.187-4.663-.413-7.014-.636-.736-.073-1.469-.193-2.2-.293h0q0,.048,0,.1l-1.5-.13-4.33-.386c-2.415-.213-4.83-.41-7.238-.646-1.619-.157-3.231-.373-4.846-.566s-3.164-.37-4.746-.566c-.316-.04-.62-.15-.933-.207-2-.356-4-.523-6.029-.723-1.159-.12-2.308-.313-3.457-.5-.4-.067-.643-.466-1.149-.423-.133,0-.376-.366-.466-.6a11.614,11.614,0,0,1-.41-1.379c-.067-.283.083-.4.436-.333.8.16,1.592.36,2.4.493,1.3.216,2.6.383,3.9.586,1.476.233,2.944.493,4.42.713.769.113,1.552.157,2.331.253,2.331.29,4.663.6,6.994.879,2.085.243,4.173.443,6.262.666.776.087,1.542.236,2.332.333,2.018.226,4.03.48,6.055.643q7.3.59,14.615,1.1c1.815.13,3.637.2,5.456.273,3.564.153,7.128.286,10.692.443,2.282.1,4.56.223,6.841.333,2.491.123,5,.22,7.477.383q2.511.137,5.026.023c2.1-.077,4.21,0,6.312.02,2.355.033,4.71.12,7.061.143q8.577.08,17.15.123c2.218,0,4.433.027,6.661,0s4.427-.1,6.638-.193q3.58-.147,7.158-.373c1.812-.113,3.62-.3,5.429-.44,2.1-.167,4.193-.333,6.292-.476,3.77-.256,7.544-.456,11.324-.743,3.051-.233,6.142-.52,9.219-.853,1.875-.2,3.737-.516,5.606-.786,1.512-.22,3.034-.413,4.536-.666q3.72-.666,7.421-1.439c.8-.163,1.565-.44,2.332-.666.09-.027.26-.023.283.017a.5.5,0,0,1,.067.333c-.043.32-.286.483-.616.59Z" fill="#b69564"/>
  </g>
</svg>
