<svg xmlns="http://www.w3.org/2000/svg" width="387.201" height="14.513" viewBox="0 0 387.201 14.513">
  <g id="Group_6826" data-name="Group 6826" transform="translate(217.702)">
    <g id="Group_6788" data-name="Group 6788" transform="translate(106.953 0)">
      <path id="Path_32042" data-name="Path 32042" d="M2072.288-177.56a16.68,16.68,0,0,0,7.353,1.462,12.551,12.551,0,0,1,2.123.09c9.461.025,23.871.222,40.994.09a4.44,4.44,0,0,0,3.7-3.921,1.625,1.625,0,0,0-.293-1.02c-.548-.767-2.074-.883-3.48-.254-1.585.709-1.945.433-.81-.63a5.059,5.059,0,0,1,3.938-.638c.973.222,1.013.261,1.445,1.357a3.6,3.6,0,0,1-.2,3.5,3.623,3.623,0,0,1-1.585,1.472c-1.232.661-1.217.686.669,1.845,1.617,1,2.524,2.395,2.386,3.685a4.6,4.6,0,0,1-.149.922c-.04.05-.2.328-.375.621a3.213,3.213,0,0,1-1.259.948c-1.667.2-2.972-.571-4.649-1.665-.073-.05-.09-.222-.014-.4.081-.22.228-.228.464-.04,2.141,1.69,4.551,2.409,4.592-1.136-.328-1.512-2.771-3.114-5.188-3.415-14.328-.107-24.956-.483-41.557-.278a18.917,18.917,0,0,1-2.884-.073" transform="translate(-2072.288 182.51)" fill="#fff"/>
      <path id="Path_32043" data-name="Path 32043" d="M2057.187-169.97a3.882,3.882,0,0,1,.471.149c.449.155,1.633.538,2.639.849,1.658.514,1.8.588,1.658.914a2.994,2.994,0,0,1-.3.531c-.082.09-.5.646-.931,1.209a2.874,2.874,0,0,1-1.332,1.144,6.525,6.525,0,0,1-3.677-1.077c-.709-.573-.93-.973-.7-1.4a2.009,2.009,0,0,1,.385-.433,5.692,5.692,0,0,0,1.012-1.269c.312-.554.41-.7.778-.621Z" transform="translate(-1999.453 174.529)" fill="#fff"/>
      <path id="Path_32044" data-name="Path 32044" d="M2060.818-166.506c-1.78,1.5-2.32,1.315.067,2.533,1.069.424,1.085.416,1.83-.27a4.6,4.6,0,0,0,.914-1.071c.155-.343.042-.416-1.144-.751-.725-.211-1.47-.408-1.667-.441Z" transform="translate(-2002.718 172.307)" fill="#fff"/>
    </g>
    <line id="Line_19" data-name="Line 19" x1="335.701" y2="0.553" transform="translate(-217.701 6.703)" fill="none" stroke="#fff" stroke-width="1"/>
  </g>
</svg>
