<svg xmlns="http://www.w3.org/2000/svg" viewBox="0 0 49.6 49.6"><defs><style>.cls-1{fill:#e3eaea;}.cls-2{fill:#edf1f1;}.cls-3,.cls-4{fill:#b69564;}.cls-3{stroke:#b69564;}</style></defs><g id="圖層_2" data-name="圖層 2"><g id="圖層_1-2" data-name="圖層 1"><g id="Outline"><path id="Path_64394" data-name="Path 64394" class="cls-1" d="M48.9,24.8A24.1,24.1,0,1,1,24.8.7,24.11,24.11,0,0,1,48.9,24.8Z"/><path id="Path_64395" data-name="Path 64395" class="cls-2" d="M27.6,3.5A24.11,24.11,0,0,0,9.3,43.3,24.13,24.13,0,0,0,43.1,9.1,24.58,24.58,0,0,0,27.6,3.5Z"/><path id="Path_64396" data-name="Path 64396" class="cls-3" d="M24.8.5A24.3,24.3,0,1,0,49.1,24.8,24.33,24.33,0,0,0,24.8.5Zm0,.4A23.9,23.9,0,1,1,.9,24.8,23.9,23.9,0,0,1,24.8.9Z"/></g><g id="head12"><path class="cls-4" d="M30.65,8a.15.15,0,1,0,0-.3.15.15,0,0,0,0,.3Z"/><path class="cls-4" d="M30.35,8.64a.15.15,0,0,0,.15-.15.15.15,0,0,0-.15-.15.15.15,0,0,0-.15.15A.14.14,0,0,0,30.35,8.64Z"/><path class="cls-4" d="M31,8.64a.15.15,0,0,0,.15-.15.15.15,0,0,0-.3,0A.15.15,0,0,0,31,8.64Z"/><path class="cls-4" d="M19,9.25a.15.15,0,0,0,.15-.15A.15.15,0,0,0,19,9a.15.15,0,0,0-.15.15A.14.14,0,0,0,19,9.25Z"/><path class="cls-4" d="M19.65,9.25a.15.15,0,0,0,.15-.15.15.15,0,0,0-.3,0A.15.15,0,0,0,19.65,9.25Z"/><path class="cls-4" d="M20.26,9.25a.14.14,0,0,0,.15-.15A.15.15,0,0,0,20.26,9a.15.15,0,0,0-.15.15A.15.15,0,0,0,20.26,9.25Z"/><path class="cls-4" d="M30.65,9a.15.15,0,0,0-.15.15.15.15,0,0,0,.15.15.15.15,0,0,0,.16-.15A.16.16,0,0,0,30.65,9Z"/><path class="cls-4" d="M31.27,9.25a.15.15,0,0,0,.15-.15A.15.15,0,0,0,31.27,9a.16.16,0,0,0-.16.15A.15.15,0,0,0,31.27,9.25Z"/><path class="cls-4" d="M18.12,9.56a.15.15,0,0,0-.15.15.16.16,0,0,0,.15.16.15.15,0,0,0,.15-.16A.15.15,0,0,0,18.12,9.56Z"/><path class="cls-4" d="M18.73,9.56a.15.15,0,0,0-.15.15.16.16,0,0,0,.15.16.16.16,0,0,0,.16-.16A.16.16,0,0,0,18.73,9.56Z"/><path class="cls-4" d="M19.34,9.56a.15.15,0,0,0-.15.15.16.16,0,0,0,.15.16.16.16,0,0,0,.16-.16A.16.16,0,0,0,19.34,9.56Z"/><path class="cls-4" d="M20,9.56a.16.16,0,0,0-.16.15.16.16,0,0,0,.16.16.16.16,0,0,0,.15-.16A.15.15,0,0,0,20,9.56Z"/><path class="cls-4" d="M20.57,9.56a.16.16,0,0,0-.16.15.16.16,0,0,0,.16.16.16.16,0,0,0,.15-.16A.15.15,0,0,0,20.57,9.56Z"/><path class="cls-4" d="M21.18,9.87a.16.16,0,0,0,.15-.16.15.15,0,0,0-.15-.15.15.15,0,0,0-.15.15A.15.15,0,0,0,21.18,9.87Z"/><path class="cls-4" d="M21.79,9.87a.16.16,0,0,0,.15-.16.15.15,0,0,0-.3,0A.16.16,0,0,0,21.79,9.87Z"/><path class="cls-4" d="M29.74,9.87a.16.16,0,0,0,.15-.16.15.15,0,0,0-.15-.15.16.16,0,0,0-.16.15A.16.16,0,0,0,29.74,9.87Z"/><path class="cls-4" d="M30.35,9.87a.16.16,0,0,0,.15-.16.15.15,0,0,0-.15-.15.15.15,0,0,0-.15.15A.15.15,0,0,0,30.35,9.87Z"/><path class="cls-4" d="M31,9.87a.16.16,0,0,0,.15-.16.15.15,0,0,0-.3,0A.16.16,0,0,0,31,9.87Z"/><path class="cls-4" d="M31.57,9.56a.15.15,0,0,0-.15.15.16.16,0,0,0,.15.16.15.15,0,0,0,.15-.16A.15.15,0,0,0,31.57,9.56Z"/><path class="cls-4" d="M18.43,10.17a.16.16,0,0,0-.16.15.16.16,0,0,0,.16.16.16.16,0,0,0,.15-.16A.15.15,0,0,0,18.43,10.17Z"/><path class="cls-4" d="M19,10.17a.15.15,0,0,0-.15.15.15.15,0,0,0,.15.16.16.16,0,0,0,.15-.16A.15.15,0,0,0,19,10.17Z"/><path class="cls-4" d="M19.65,10.17a.15.15,0,0,0-.15.15.15.15,0,1,0,.3,0A.15.15,0,0,0,19.65,10.17Z"/><path class="cls-4" d="M20.26,10.17a.15.15,0,0,0-.15.15.16.16,0,0,0,.15.16.15.15,0,0,0,.15-.16A.15.15,0,0,0,20.26,10.17Z"/><path class="cls-4" d="M20.87,10.17a.15.15,0,0,0-.15.15.16.16,0,0,0,.15.16.16.16,0,0,0,.16-.16A.16.16,0,0,0,20.87,10.17Z"/><path class="cls-4" d="M21.48,10.48a.16.16,0,0,0,.16-.16.16.16,0,0,0-.16-.15.15.15,0,0,0-.15.15A.16.16,0,0,0,21.48,10.48Z"/><path class="cls-4" d="M22.09,10.48a.16.16,0,0,0,.16-.16.16.16,0,0,0-.16-.15.15.15,0,0,0-.15.15A.16.16,0,0,0,22.09,10.48Z"/><path class="cls-4" d="M22.71,10.48a.16.16,0,0,0,.15-.16.15.15,0,0,0-.15-.15.16.16,0,0,0-.16.15A.16.16,0,0,0,22.71,10.48Z"/><path class="cls-4" d="M23.32,10.48a.16.16,0,0,0,.15-.16.15.15,0,0,0-.15-.15.16.16,0,0,0-.16.15A.16.16,0,0,0,23.32,10.48Z"/><path class="cls-4" d="M23.93,10.48a.16.16,0,0,0,.15-.16.15.15,0,0,0-.15-.15.15.15,0,0,0-.15.15A.15.15,0,0,0,23.93,10.48Z"/><path class="cls-4" d="M24.54,10.48a.16.16,0,0,0,.15-.16.15.15,0,1,0-.3,0A.16.16,0,0,0,24.54,10.48Z"/><path class="cls-4" d="M25.15,10.48a.15.15,0,0,0,.15-.16.15.15,0,0,0-.15-.15.15.15,0,0,0-.15.15A.16.16,0,0,0,25.15,10.48Z"/><path class="cls-4" d="M29.43,10.48a.15.15,0,0,0,.15-.16.15.15,0,0,0-.15-.15.15.15,0,0,0-.15.15A.16.16,0,0,0,29.43,10.48Z"/><path class="cls-4" d="M30,10.48a.16.16,0,0,0,.16-.16.16.16,0,0,0-.16-.15.15.15,0,0,0-.15.15A.16.16,0,0,0,30,10.48Z"/><path class="cls-4" d="M30.65,10.17a.15.15,0,0,0-.15.15.16.16,0,0,0,.15.16.16.16,0,0,0,.16-.16A.16.16,0,0,0,30.65,10.17Z"/><path class="cls-4" d="M31.27,10.17a.16.16,0,0,0-.16.15.16.16,0,0,0,.16.16.16.16,0,0,0,.15-.16A.15.15,0,0,0,31.27,10.17Z"/><path class="cls-4" d="M21.18,10.78a.15.15,0,0,0-.15.16.15.15,0,0,0,.15.15.15.15,0,0,0,.15-.15A.16.16,0,0,0,21.18,10.78Z"/><path class="cls-4" d="M21.79,10.78a.16.16,0,0,0-.15.16.15.15,0,0,0,.3,0A.16.16,0,0,0,21.79,10.78Z"/><path class="cls-4" d="M22.4,11.09a.15.15,0,0,0,.15-.15.15.15,0,1,0-.3,0A.15.15,0,0,0,22.4,11.09Z"/><path class="cls-4" d="M23,11.09a.15.15,0,0,0,.15-.15.15.15,0,0,0-.15-.16.16.16,0,0,0-.15.16A.15.15,0,0,0,23,11.09Z"/><path class="cls-4" d="M23.62,10.78a.16.16,0,0,0-.15.16.15.15,0,0,0,.15.15.16.16,0,0,0,.16-.15A.16.16,0,0,0,23.62,10.78Z"/><path class="cls-4" d="M24.23,10.78a.16.16,0,0,0-.15.16.15.15,0,0,0,.15.15.16.16,0,0,0,.16-.15A.16.16,0,0,0,24.23,10.78Z"/><path class="cls-4" d="M24.85,10.78a.16.16,0,0,0-.16.16.16.16,0,0,0,.16.15.15.15,0,0,0,.15-.15A.16.16,0,0,0,24.85,10.78Z"/><path class="cls-4" d="M25.46,11.09a.15.15,0,0,0,.15-.15.16.16,0,0,0-.15-.16.16.16,0,0,0-.16.16A.16.16,0,0,0,25.46,11.09Z"/><path class="cls-4" d="M26.07,11.09a.15.15,0,0,0,.15-.15.16.16,0,0,0-.15-.16.15.15,0,0,0-.15.16A.15.15,0,0,0,26.07,11.09Z"/><path class="cls-4" d="M26.68,11.09a.15.15,0,0,0,.15-.15.15.15,0,1,0-.3,0A.15.15,0,0,0,26.68,11.09Z"/><path class="cls-4" d="M27.29,11.09a.15.15,0,0,0,.15-.15.15.15,0,0,0-.15-.16.16.16,0,0,0-.15.16A.15.15,0,0,0,27.29,11.09Z"/><path class="cls-4" d="M27.9,11.09a.16.16,0,0,0,.16-.15.16.16,0,0,0-.16-.16.16.16,0,0,0-.15.16A.15.15,0,0,0,27.9,11.09Z"/><path class="cls-4" d="M28.51,11.09a.16.16,0,0,0,.16-.15.16.16,0,0,0-.16-.16.16.16,0,0,0-.15.16A.15.15,0,0,0,28.51,11.09Z"/><path class="cls-4" d="M29.13,11.09a.15.15,0,0,0,.15-.15.16.16,0,0,0-.15-.16.16.16,0,0,0-.16.16A.16.16,0,0,0,29.13,11.09Z"/><path class="cls-4" d="M29.74,10.78a.16.16,0,0,0-.16.16.16.16,0,0,0,.16.15.15.15,0,0,0,.15-.15A.16.16,0,0,0,29.74,10.78Z"/><path class="cls-4" d="M30.35,10.78a.15.15,0,0,0-.15.16.15.15,0,0,0,.15.15.15.15,0,0,0,.15-.15A.16.16,0,0,0,30.35,10.78Z"/><path class="cls-4" d="M31,10.78a.16.16,0,0,0-.15.16.15.15,0,0,0,.3,0A.16.16,0,0,0,31,10.78Z"/><path class="cls-4" d="M21.48,11.39a.16.16,0,0,0-.15.16.15.15,0,0,0,.15.15.16.16,0,0,0,.16-.15A.16.16,0,0,0,21.48,11.39Z"/><path class="cls-4" d="M22.09,11.39a.16.16,0,0,0-.15.16.15.15,0,0,0,.15.15.16.16,0,0,0,.16-.15A.16.16,0,0,0,22.09,11.39Z"/><path class="cls-4" d="M22.71,11.39a.16.16,0,0,0-.16.16.16.16,0,0,0,.16.15.15.15,0,0,0,.15-.15A.16.16,0,0,0,22.71,11.39Z"/><path class="cls-4" d="M23.32,11.39a.16.16,0,0,0-.16.16.16.16,0,0,0,.16.15.15.15,0,0,0,.15-.15A.16.16,0,0,0,23.32,11.39Z"/><path class="cls-4" d="M23.93,11.39a.15.15,0,0,0-.15.16.15.15,0,0,0,.15.15.15.15,0,0,0,.15-.15A.16.16,0,0,0,23.93,11.39Z"/><path class="cls-4" d="M24.54,11.39a.16.16,0,0,0-.15.16.15.15,0,0,0,.3,0A.16.16,0,0,0,24.54,11.39Z"/><path class="cls-4" d="M25.15,11.39a.16.16,0,0,0-.15.16.15.15,0,0,0,.15.15.15.15,0,0,0,.15-.15A.15.15,0,0,0,25.15,11.39Z"/><path class="cls-4" d="M25.76,11.39a.16.16,0,0,0-.15.16.15.15,0,0,0,.15.15.16.16,0,0,0,.16-.15A.16.16,0,0,0,25.76,11.39Z"/><path class="cls-4" d="M26.37,11.7a.16.16,0,0,0,.16-.15.16.16,0,0,0-.16-.16.16.16,0,0,0-.15.16A.15.15,0,0,0,26.37,11.7Z"/><path class="cls-4" d="M27,11.7a.15.15,0,0,0,.15-.15.16.16,0,0,0-.15-.16.16.16,0,0,0-.16.16A.16.16,0,0,0,27,11.7Z"/><path class="cls-4" d="M27.6,11.7a.15.15,0,0,0,.15-.15.16.16,0,0,0-.15-.16.16.16,0,0,0-.16.16A.16.16,0,0,0,27.6,11.7Z"/><path class="cls-4" d="M28.21,11.7a.15.15,0,0,0,.15-.15.16.16,0,0,0-.15-.16.15.15,0,0,0-.15.16A.15.15,0,0,0,28.21,11.7Z"/><path class="cls-4" d="M28.82,11.7a.15.15,0,0,0,.15-.15.15.15,0,1,0-.3,0A.15.15,0,0,0,28.82,11.7Z"/><path class="cls-4" d="M29.43,11.39a.16.16,0,0,0-.15.16.15.15,0,0,0,.15.15.15.15,0,0,0,.15-.15A.15.15,0,0,0,29.43,11.39Z"/><path class="cls-4" d="M30,11.7a.16.16,0,0,0,.16-.15.16.16,0,0,0-.16-.16.16.16,0,0,0-.15.16A.15.15,0,0,0,30,11.7Z"/><path class="cls-4" d="M30.65,11.39a.16.16,0,0,0-.15.16.15.15,0,0,0,.15.15.16.16,0,0,0,.16-.15A.16.16,0,0,0,30.65,11.39Z"/><path class="cls-4" d="M22.4,12a.15.15,0,0,0-.15.15.15.15,0,1,0,.3,0A.15.15,0,0,0,22.4,12Z"/><path class="cls-4" d="M23,12a.15.15,0,0,0-.15.15.15.15,0,0,0,.15.15.15.15,0,0,0,.15-.15A.14.14,0,0,0,23,12Z"/><path class="cls-4" d="M25.46,12a.15.15,0,0,0-.16.15.16.16,0,0,0,.16.15.15.15,0,0,0,.15-.15A.15.15,0,0,0,25.46,12Z"/><path class="cls-4" d="M26.07,12a.14.14,0,0,0-.15.15.15.15,0,0,0,.15.15.15.15,0,0,0,.15-.15A.15.15,0,0,0,26.07,12Z"/><path class="cls-4" d="M26.68,12a.15.15,0,0,0-.15.15.15.15,0,1,0,.3,0A.15.15,0,0,0,26.68,12Z"/><path class="cls-4" d="M27.29,12a.15.15,0,0,0-.15.15.15.15,0,0,0,.15.15.15.15,0,0,0,.15-.15A.14.14,0,0,0,27.29,12Z"/><path class="cls-4" d="M27.9,12a.15.15,0,0,0-.15.15.15.15,0,0,0,.15.15.16.16,0,0,0,.16-.15A.15.15,0,0,0,27.9,12Z"/><path class="cls-4" d="M28.51,12a.15.15,0,0,0-.15.15.15.15,0,0,0,.15.15.16.16,0,0,0,.16-.15A.15.15,0,0,0,28.51,12Z"/><path class="cls-4" d="M29.13,12a.15.15,0,0,0-.16.15.16.16,0,0,0,.16.15.15.15,0,0,0,.15-.15A.15.15,0,0,0,29.13,12Z"/><path class="cls-4" d="M29.74,12.31a.15.15,0,0,0,.15-.15.15.15,0,0,0-.15-.15.15.15,0,0,0-.16.15A.16.16,0,0,0,29.74,12.31Z"/><path class="cls-4" d="M30.35,12a.14.14,0,0,0-.15.15.15.15,0,0,0,.15.15.15.15,0,0,0,.15-.15A.15.15,0,0,0,30.35,12Z"/><path class="cls-4" d="M26.37,12.62a.15.15,0,1,0,0,.3.15.15,0,1,0,0-.3Z"/><path class="cls-4" d="M27,12.92a.15.15,0,0,0,0-.3.15.15,0,1,0,0,.3Z"/><path class="cls-4" d="M27.6,12.92a.15.15,0,1,0,0-.3.15.15,0,1,0,0,.3Z"/><path class="cls-4" d="M28.21,12.92a.15.15,0,1,0,0-.3.15.15,0,1,0,0,.3Z"/><path class="cls-4" d="M28.82,12.92a.15.15,0,1,0-.15-.15A.15.15,0,0,0,28.82,12.92Z"/><path class="cls-4" d="M29.43,12.92a.15.15,0,1,0,0-.3.15.15,0,0,0,0,.3Z"/><path class="cls-4" d="M30,12.62a.15.15,0,0,0,0,.3.15.15,0,1,0,0-.3Z"/><path class="cls-4" d="M26.68,13.23a.15.15,0,0,0-.15.15.15.15,0,1,0,.3,0A.15.15,0,0,0,26.68,13.23Z"/><path class="cls-4" d="M27.29,13.23a.15.15,0,0,0-.15.15.15.15,0,0,0,.15.15.14.14,0,0,0,.15-.15A.15.15,0,0,0,27.29,13.23Z"/><path class="cls-4" d="M27.9,13.53a.15.15,0,0,0,.16-.15.16.16,0,0,0-.16-.15.15.15,0,0,0-.15.15A.15.15,0,0,0,27.9,13.53Z"/><path class="cls-4" d="M28.51,13.53a.15.15,0,0,0,.16-.15.16.16,0,0,0-.16-.15.15.15,0,0,0-.15.15A.15.15,0,0,0,28.51,13.53Z"/><path class="cls-4" d="M29.13,13.53a.15.15,0,0,0,.15-.15.15.15,0,0,0-.15-.15.16.16,0,0,0-.16.15A.15.15,0,0,0,29.13,13.53Z"/><path class="cls-4" d="M29.74,13.23a.16.16,0,0,0-.16.15.15.15,0,0,0,.16.15.15.15,0,0,0,.15-.15A.15.15,0,0,0,29.74,13.23Z"/><path class="cls-4" d="M27,13.84a.16.16,0,0,0-.16.15.16.16,0,0,0,.16.16.16.16,0,0,0,.15-.16A.15.15,0,0,0,27,13.84Z"/><path class="cls-4" d="M27.6,13.84a.16.16,0,0,0-.16.15.16.16,0,0,0,.16.16.16.16,0,0,0,.15-.16A.15.15,0,0,0,27.6,13.84Z"/><path class="cls-4" d="M28.21,13.84a.15.15,0,0,0-.15.15.15.15,0,0,0,.15.16.16.16,0,0,0,.15-.16A.15.15,0,0,0,28.21,13.84Z"/><path class="cls-4" d="M28.82,13.84a.15.15,0,0,0-.15.15.15.15,0,1,0,.3,0A.15.15,0,0,0,28.82,13.84Z"/><path class="cls-4" d="M29.43,13.84a.15.15,0,0,0-.15.15.16.16,0,0,0,.15.16.15.15,0,0,0,.15-.16A.15.15,0,0,0,29.43,13.84Z"/><path class="cls-4" d="M27.9,14.45a.15.15,0,0,0-.15.15.16.16,0,0,0,.15.16.16.16,0,0,0,.16-.16A.16.16,0,0,0,27.9,14.45Z"/><path class="cls-4" d="M28.51,14.45a.15.15,0,0,0-.15.15.16.16,0,0,0,.15.16.16.16,0,0,0,.16-.16A.16.16,0,0,0,28.51,14.45Z"/><path class="cls-4" d="M29.13,14.45a.16.16,0,0,0-.16.15.16.16,0,0,0,.16.16.16.16,0,0,0,.15-.16A.15.15,0,0,0,29.13,14.45Z"/><path class="cls-4" d="M22.94,40.19c0,.08.22,0,.28,0,.53-.07,1.06-.07,1.59-.09,1.25,0,1.62.24,1.6,0s-.48-.32-.64-.36C24.25,39.36,22.83,39.94,22.94,40.19Z"/><path class="cls-4" d="M31.22,11.55a4,4,0,0,0,.6-.82A2.15,2.15,0,0,0,32,9.26c-.79-2.58-3.65-3.46-6-3.47A13,13,0,0,0,18.75,8c-.82.55-2,1.54-1.3,2.67a1.11,1.11,0,0,0,.67.51c0,.24.07.57.07.62a9.48,9.48,0,0,1-.25,2.71,48.83,48.83,0,0,1-1.8,5.4,15.69,15.69,0,0,0-1,4.17,9.64,9.64,0,0,0,.32,3.16,9.29,9.29,0,0,0,3.31,4.86,9.15,9.15,0,0,0,3.94,1.71c.13.73,1.25,2.94-.08,5.19A4.93,4.93,0,0,1,21.6,40.3c-.63,0-1.22.06-1.87.13s-3.17.19-2.69,1.24a1.14,1.14,0,0,0,.75.51,6.8,6.8,0,0,0,1,.24,20.74,20.74,0,0,0,2.22.29c1.46.12,2.94.17,4.4.15a36.35,36.35,0,0,0,4.17-.28,15.48,15.48,0,0,0,1.63-.29c.4-.11,1.12-.28,1.16-.8a.69.69,0,0,0-.46-.61,5.79,5.79,0,0,0-1.59-.39c-.61-.09-1.23-.15-1.84-.19l-.48,0,0,0a5,5,0,0,1-.78-.75,4.73,4.73,0,0,1-.61-1l0,0c-1-2.23.1-4,.13-4.7A10.32,10.32,0,0,0,28,33.41a9.34,9.34,0,0,0,6.12-7.88C34.63,20.63,30.86,16.41,31.22,11.55ZM17.91,10.27A.92.92,0,0,1,18,9.41a4.41,4.41,0,0,1,1.42-1.19,13,13,0,0,1,3.77-1.53,11.35,11.35,0,0,1,4-.23A5.57,5.57,0,0,1,30.52,8l0,0,.07.08a3.14,3.14,0,0,1,.76,1.31,1.68,1.68,0,0,1-.27,1.5A6.56,6.56,0,0,0,30.24,12c-.24.53-.39,1.11-.65,1.63a1.49,1.49,0,0,1-1.13.92A1.81,1.81,0,0,1,27,14c-.76-.78-1.09-2.11-2.24-2.4a3.23,3.23,0,0,0-1.77.33,1.29,1.29,0,0,1-.5.07h0a1.38,1.38,0,0,1-.73-.42,3,3,0,0,0-1.24-.87,2.91,2.91,0,0,0-.93-.09c-.35,0-.69.1-1,.08A.62.62,0,0,1,17.91,10.27Zm4.76,29.11A6,6,0,0,0,23.53,37c.06-.86-.16-1.69-.12-2.54h0a5.39,5.39,0,0,1-.7,5S22.65,39.42,22.67,39.38Zm-4,2.87a.34.34,0,0,1-.2,0,.25.25,0,0,1-.11-.14.15.15,0,0,1,0-.17.18.18,0,0,1,.16,0h.06a.19.19,0,0,1,.18.19A.18.18,0,0,1,18.68,42.25Zm1.18.16a1.05,1.05,0,0,1-.43,0,1.94,1.94,0,0,1-.39-.12.16.16,0,0,1,.08-.3c.24,0,.46.11.69.1A.18.18,0,0,1,19.86,42.41Zm11.85-.7-.1.1-.13.07a2.45,2.45,0,0,1-.65.2,8.37,8.37,0,0,1-1,.18,4.42,4.42,0,0,1-1.31,0,1,1,0,0,0-.24-.05L29.64,42c.68-.11,1.35-.24,2-.39C31.76,41.58,31.76,41.64,31.71,41.71Zm-5.2-1.89a4.82,4.82,0,0,0,1.42,1.12l.14.07a4.05,4.05,0,0,0,1.18.37,5.24,5.24,0,0,0,.56,0,1.53,1.53,0,0,0,.52-.08l-.19,0-.17,0-.37-.11a6,6,0,0,1-.82-.36l-.3-.17a21.78,21.78,0,0,1,2.78.46l.12,0c.1,0,.23.11.18.23a.35.35,0,0,1-.1.11,1.83,1.83,0,0,1-.33.11c-.23.06-.47.1-.71.14-.5.08-1,.13-1.5.18-1.26.1-2.52.24-3.78.24s-2.55,0-3.83,0c-3.82-.25-4.89-1-.15-1.44a6.29,6.29,0,0,1-1.86.71A3.4,3.4,0,0,0,21,41a5.08,5.08,0,0,0,2.7-2.93A5.24,5.24,0,0,0,24,36.26a6.44,6.44,0,0,0-.13-1.16c0-.23.49-.31.62-.32l.32-.05a6.22,6.22,0,0,0-.26,2.39,4,4,0,0,0,.7,2.24s.1,0,.09-.06a8.64,8.64,0,0,0-.36-1,6,6,0,0,1-.26-1.17,6.85,6.85,0,0,1,.1-2.39H25a2.33,2.33,0,0,0-.07.25,6.59,6.59,0,0,0,.52,4.18.86.86,0,0,0,.39.41.28.28,0,0,0,.12,0c.23,0,0-.41-.08-.5s-.1-.16-.14-.24l-.15-.32a5.64,5.64,0,0,1-.33-1.22,7,7,0,0,1-.1-1.52,3.34,3.34,0,0,1,.12-.78,1.89,1.89,0,0,1,.06-.18.73.73,0,0,1,0,.36c0,.16,0,.33,0,.49a5.57,5.57,0,0,0,0,1.08,6.2,6.2,0,0,0,.36,1.47A4.86,4.86,0,0,0,26.51,39.82ZM25.1,34.19c-.33.18-.64,0-1,0,0,0,0,0,0,0A9.06,9.06,0,0,1,25,34C25.12,34,25.19,34.14,25.1,34.19Zm8.12-9.36A8.65,8.65,0,0,1,30.38,31a8.23,8.23,0,0,1-2.73,1.59,9.8,9.8,0,0,1-3,.49A8.42,8.42,0,0,1,16,25.53c-.28-2.49.66-4.92,1.48-7.23a26.67,26.67,0,0,0,1.17-4,10.33,10.33,0,0,0,.13-2.77,2.17,2.17,0,0,1,.22-.15,1.74,1.74,0,0,1,1.19-.07,3.44,3.44,0,0,1,1.33.83,2,2,0,0,0,.86.59,1.87,1.87,0,0,0,1.18-.18,2.19,2.19,0,0,1,1.36-.27,1.68,1.68,0,0,1,1,.94,6.49,6.49,0,0,0,.66,1.25,2.25,2.25,0,0,0,2.37.67,2.76,2.76,0,0,0,1.33-.9c.09-.11.17-.23.25-.35a14.21,14.21,0,0,0,.56,2.73C31.92,19.28,33.27,22,33.22,24.83Z"/><path class="cls-4" d="M25.7,40.43c.15.06.61.32.61.5a.26.26,0,0,1-.11.23.77.77,0,0,1-.24.12,7.75,7.75,0,0,1-2,.17c-.5,0-1,0-1.46,0s-1.08-.07-1.62-.08c0,0,0,0,0,0a15.77,15.77,0,0,0,3,.3,14.29,14.29,0,0,0,3.33-.22.85.85,0,0,0,.28-.1.36.36,0,0,0,.16-.17c.13-.33-.85-.63-1.06-.68A1.92,1.92,0,0,0,25.7,40.43Z"/><path class="cls-4" d="M23.55,39.4c.06-.06.1-.14.17-.21a.88.88,0,0,0,.14-.23c.08-.15-.14-.32-.25-.18s-.1.16-.14.24a1.39,1.39,0,0,0-.12.28C23.31,39.42,23.47,39.48,23.55,39.4Z"/><path class="cls-4" d="M24,38.6a.19.19,0,0,0,0-.13.12.12,0,0,0-.06-.06h-.05s0,0-.05.07a.19.19,0,0,0,0,.13A.09.09,0,0,0,24,38.6Z"/><path class="cls-4" d="M20.41,41.56h0Z"/><path class="cls-4" d="M24.65,35s0,0,0,0S24.66,35,24.65,35Z"/><path class="cls-4" d="M25.34,18.42c.63,0,.59-1,0-1S24.71,18.42,25.34,18.42Z"/><path class="cls-4" d="M22.91,17.83a.39.39,0,0,0,.37-.4.39.39,0,0,0-.77,0A.39.39,0,0,0,22.91,17.83Z"/><path class="cls-4" d="M28,17.77c.53,0,.49-.81,0-.81S27.47,17.77,28,17.77Z"/><path class="cls-4" d="M29.2,17.1h0a.28.28,0,0,0-.12.23.27.27,0,0,0,.21.25.26.26,0,0,0,.23-.45h0a.24.24,0,0,0-.11-.06A.31.31,0,0,0,29.2,17.1Z"/><path class="cls-4" d="M28.78,17.09a.32.32,0,0,0,.31-.34.34.34,0,0,0-.34-.32.33.33,0,0,0,0,.66Z"/><path class="cls-4" d="M21.26,17.55a.33.33,0,0,0,0-.66.33.33,0,0,0-.32.34A.34.34,0,0,0,21.26,17.55Z"/><path class="cls-4" d="M24.11,17.07a.28.28,0,0,0,.13,0,.39.39,0,0,0,.2-.06.44.44,0,0,0,.18-.26.45.45,0,0,0-.05-.3.39.39,0,0,0-.26-.18.29.29,0,0,0-.13,0,.36.36,0,0,0-.2.06.4.4,0,0,0-.18.26.4.4,0,0,0,.05.3A.35.35,0,0,0,24.11,17.07Z"/><path class="cls-4" d="M28,16.6a.17.17,0,0,0,.17-.13h0a.2.2,0,0,0,0-.13.22.22,0,0,0-.15-.08h0a.2.2,0,0,0-.15.1.15.15,0,0,0,0,.17A.14.14,0,0,0,28,16.6Z"/><path class="cls-4" d="M29,15.78a.35.35,0,0,0,.2,0,.37.37,0,0,0,.12-.07.31.31,0,0,0,.06-.13.27.27,0,0,0-.14-.3.37.37,0,0,0-.15,0l-.11,0a.25.25,0,0,0-.19.26A.28.28,0,0,0,29,15.78Z"/><path class="cls-4" d="M29.83,16.3a.25.25,0,0,0,.25-.27.26.26,0,0,0-.27-.25.26.26,0,1,0,0,.52Z"/><path class="cls-4" d="M21.73,11s0,0,0,0A0,0,0,0,0,21.73,11Z"/><path class="cls-4" d="M30.93,17.85a2.07,2.07,0,0,0-.18-.47h0l0-.08a4.4,4.4,0,0,0-.59.05l-.41,0a.29.29,0,0,1,0,.09.43.43,0,0,1-.41.44.41.41,0,0,1-.3-.11.4.4,0,0,1-.14-.29v-.07l-.33,0v.05a.53.53,0,0,1-.51.55.55.55,0,0,1-.39-.14.56.56,0,0,1-.17-.37v0l-1.47,0a.88.88,0,0,1,.1.35.82.82,0,0,1-.79.85.82.82,0,0,1-.58-.21.85.85,0,0,1-.27-.57.8.8,0,0,1,.1-.41l-1,0v.06a.7.7,0,0,1-1.18.55.69.69,0,0,1-.23-.49.86.86,0,0,1,0-.16h0c0,.11-.05.22-.08.33a27.12,27.12,0,0,1-.64,3,.89.89,0,0,1-.53.59c-.52.28-1.06-.41-1.05-1a8.64,8.64,0,0,1,.35-2c.09-.34.19-.68.3-1-.81,0-2-.1-2.07-.13h0c-.05,0-.08.24-.11.3l-.09.27c-.11.36-.25.71-.38,1.06-.2.55-.41,1.1-.6,1.66a13.32,13.32,0,0,0-.82,3.57,8.26,8.26,0,0,0,.28,2.71A8,8,0,0,0,19.54,31a8.24,8.24,0,0,0,5.21,1.6,9.24,9.24,0,0,0,2.66-.47,8,8,0,0,0,5.25-6.75c.26-2.58-.86-4.94-1.68-7.33A1.42,1.42,0,0,0,30.93,17.85ZM20.18,22.76a.6.6,0,0,1,.26-.53c.26-.14.46.1.52.33A1,1,0,0,1,21,23a.9.9,0,0,1-.06.22.21.21,0,0,1-.08.1.3.3,0,0,1-.51,0,1.23,1.23,0,0,1-.14-.25A.65.65,0,0,1,20.18,22.76Zm1.42,8a5.83,5.83,0,0,1-3.77-4.63A9.45,9.45,0,0,1,18,22.21c.32-1.41.86-2.73,1.31-4.09,0,0,0,0,0,0A24.56,24.56,0,0,0,18.35,22a11.32,11.32,0,0,0-.07,3.85,6.39,6.39,0,0,0,3.34,4.82S21.63,30.74,21.6,30.73Zm1.74,0a5.11,5.11,0,0,1-3.29-1.9,6.25,6.25,0,0,1-1.19-3.81h0a5.42,5.42,0,0,0,1.44,3.76,6.53,6.53,0,0,0,3,1.94Zm1-11.28c-.52,0-.55-.81,0-.81S24.84,19.48,24.31,19.48Zm1,2c-.32,0-.34-.5,0-.5S25.61,21.44,25.29,21.44Zm.08-1.67a.21.21,0,0,1-.22-.21.21.21,0,0,1,.2-.22.23.23,0,0,1,.22.21A.22.22,0,0,1,25.37,19.77Zm.9,3.51c-.24,0-.26-.39,0-.39S26.52,23.28,26.27,23.28Zm0-2.65c-.24,0-.26-.39,0-.39S26.52,20.63,26.27,20.63Zm.53-.75a.2.2,0,0,1,0-.4A.2.2,0,0,1,26.8,19.88Zm-.14-1.07a.46.46,0,0,1-.3-.11.41.41,0,0,1-.13-.29.42.42,0,0,1,.4-.44.43.43,0,0,1,.3.11.41.41,0,0,1,.13.29A.42.42,0,0,1,26.66,18.81Zm3.95,1.89h0a.12.12,0,0,1-.05.09.09.09,0,0,1-.07,0h0a.11.11,0,0,1-.14-.05.14.14,0,0,1,0-.19.17.17,0,0,1,.21,0A.11.11,0,0,1,30.61,20.7Zm-.13-1.06a.15.15,0,0,1-.12.07.14.14,0,0,1-.12-.06.16.16,0,0,1,0-.2.2.2,0,0,1,.15-.1A.17.17,0,0,1,30.48,19.64Zm-.42-1.86a.28.28,0,0,1,.25.06.26.26,0,0,1,.08.25.27.27,0,0,1-.18.19h0a.24.24,0,0,1-.24-.06.27.27,0,0,1-.08-.17h0A.27.27,0,0,1,30.06,17.78Zm-.09.7a.21.21,0,0,1,.21.2.21.21,0,0,1-.2.22.2.2,0,0,1-.21-.2A.21.21,0,0,1,30,18.48Zm-.53-.39a.15.15,0,1,1-.15.15A.15.15,0,0,1,29.44,18.09Zm2.1,8.44a2,2,0,0,1-.22,1.13,5.11,5.11,0,0,1-.62,1.15,4.62,4.62,0,0,1-1.83,1.6s0,0,0,0a8.19,8.19,0,0,0,1.57-1.76,7.66,7.66,0,0,0,.5-1,4.86,4.86,0,0,1,.38-1.07C31.36,26.42,31.51,26.4,31.54,26.53Z"/></g></g></g></svg>