<svg xmlns="http://www.w3.org/2000/svg" viewBox="0 0 49.6 49.6"><defs><style>.cls-1{fill:#e3eaea;}.cls-2{fill:#edf1f1;}.cls-3{fill:#b69564;stroke:#b69564;}.cls-4{fill:#10ad84;}.cls-5{fill:#d4bfaa;}.cls-6{fill:#322722;}</style></defs><g id="圖層_2" data-name="圖層 2"><g id="圖層_1-2" data-name="圖層 1"><g id="Outline"><path id="Path_64394" data-name="Path 64394" class="cls-1" d="M48.9,24.8A24.1,24.1,0,1,1,24.8.7,24.11,24.11,0,0,1,48.9,24.8Z"/><path id="Path_64395" data-name="Path 64395" class="cls-2" d="M27.6,3.5A24.11,24.11,0,0,0,9.3,43.3,24.13,24.13,0,0,0,43.1,9.1,24.58,24.58,0,0,0,27.6,3.5Z"/><path id="Path_64396" data-name="Path 64396" class="cls-3" d="M24.8.5A24.3,24.3,0,1,0,49.1,24.8,24.33,24.33,0,0,0,24.8.5Zm0,.4A23.9,23.9,0,1,1,.9,24.8,23.9,23.9,0,0,1,24.8.9Z"/></g><g id="head5"><path class="cls-4" d="M27.93,6.42c-.4,0-.6.4-.8.7s-.5-.2-.6-.4c-.1-.4-.5-.3-.7,0-.1.5-.4.3-.6,0-.3.2-.3.7-.5.9-.4-.1-.4-.7-.7-.9-.3,0-.2.5-.4.7-.4,0-.4-.6-.7-.7-.4.2-.3.8-.4,1.2s-.4-.5-.7-.6c-.1-.2-.3,0-.3.2-.3.2-.4-.5-.6-.6-.4.3-.2.9-.6,1.2-.2.5-.4-.2-.7-.3-.3.4-.2,1-.4,1.5-.3.1-.3-.6-.6-.7-.3.4-.3.9-.6,1.3a24.37,24.37,0,0,1-.6,2.6c-.5,2.2-.2,4.4-.3,6.6,0,.5-.6-.1-.8.3-.4,1,.2,2.1.3,3.1.2.8,0,1.8.6,2.4a17.42,17.42,0,0,1,.5,2.2c.5,1.8,0,3.6-.3,5.4a4.5,4.5,0,0,1-2.3,2.9c-2.5,1.3-5.3,2-7.9,3.1-.1,0-.6.3-.2.3,2.5-.8,5.1-1.8,7.6-2.7.4-.1.9-.7,1.2-.3a25.11,25.11,0,0,0,6.5,6.5,31.55,31.55,0,0,0,2.9,2.2,6.28,6.28,0,0,1,1.2-1.1c3-2.2,6-4.5,8-7.7.4-.2.8.3,1.1.3,2.5.9,5,1.9,7.5,2.7.3.1.2-.1,0-.2-2.6-1-5.2-1.9-7.8-2.9-1.1-.7-2.3-1.5-2.6-2.9a13.43,13.43,0,0,1-.5-4.9c.2-1,.3-1.9.6-2.9a3.08,3.08,0,0,0,.6-1.9c0-1.3.8-2.5.4-3.7-.1-.5-.6-.1-.8-.2a52.33,52.33,0,0,1,.1-5.6,8.57,8.57,0,0,1-.5-2.7,4.24,4.24,0,0,0-.6-1.9c-.1-.1-.1-.7-.4-.5s-.3.9-.7,1c-.4-.5-.2-1.2-.5-1.8-.3-.1-.3.6-.6.6-.2-.4-.2-1-.4-1.4s-.4.3-.5.4c-.6.1-.5-.7-.9-.8Z"/><path class="cls-5" d="M17.19,17.82a2.92,2.92,0,0,0,.1,1.6c.3.3.7,0,.9-.3.8-.7,1.9-.6,2.8-.7a2.91,2.91,0,0,1,2.2.5.53.53,0,0,0,.7.4,8.55,8.55,0,0,0,1.6,0c.2-.7,1-.9,1.7-.9a8.55,8.55,0,0,1,3.2.4c.4.1.5.6.9.7.3-.1.7,0,.9-.2.1-.5.3-1.1-.1-1.5-2.7-4-10.6-5-14.9,0Zm7.3,1.8c-.3,0-.7.1-.7.4a5.24,5.24,0,0,1-1.1,3.3,4,4,0,0,1-3.7.5c-1-.4-1.1-1.5-1.2-2.4a10.28,10.28,0,0,0-.1-1.7c-.1,0-.4,0-.4.3,0,1.3.2,2.5.2,3.8a14.72,14.72,0,0,0,.8,5.1,7.11,7.11,0,0,0,1.5,1.5c.2.1.3,0,.4-.1s-.1.3,0,.5.3.4.6.4c.2-.2-.2-.5-.2-.7s0-.2.1-.1c.3.2.4.6.6.9.2,0,.2-.4.4-.4.1.4-.4.8,0,1.1.2.1.5.4.7.2a3.54,3.54,0,0,0-.3-1.1c.4,0,.4.5.5.8s.4-.2.5-.4.2.1.1.2c0,.4-.4.7-.3,1s.8.5,1,.2a12.44,12.44,0,0,0-.4-1.6c.2-.1.3.3.4.5.1.4.4.5.4,0,0-.1.3-.4.3-.1s-.2.8-.2,1.3a3.35,3.35,0,0,0,1,0c0-.3-.2-.6-.2-.9,0-.1-.2-.5,0-.4s.1.5.3.6c.3-.1.3-.5.4-.7s.3-.4.2-.1a8.33,8.33,0,0,0-.4,1.5.64.64,0,0,0,1-.3c0-.4-.4-.8-.3-1.2.3,0,.3.6.6.5.1-.3.2-.8.5-.8a2.66,2.66,0,0,0-.3,1.2c.2.1.5-.2.7-.3.4-.3-.2-.8,0-1.1.1.1.3.5.5.2s.3-.7.6-.8c0,.3-.3.6-.3.9.2.1.5-.2.6-.4s-.1-.3,0-.4.5.2.7-.1a10.63,10.63,0,0,0,1.5-1.5,23.24,23.24,0,0,0,.7-5.9c0-1,.2-2,.1-3-.3,0-1-.2-.9.3a5.75,5.75,0,0,1-.6,3.4,3.14,3.14,0,0,1-2.8.6,2.62,2.62,0,0,1-2.1-1.7,22.11,22.11,0,0,1-.5-2.5.94.94,0,0,0-.9-.5Zm8.6.1h0c-.5.1-.5.7-.6,1.1-.2,1.1,0,2.3-.2,3.5-.2.2.2.4.3.2.3-.6.1-1.3.2-1.9,0-.9.7-1.7.5-2.6,0-.2-.1-.3-.2-.3Zm-16.7,0c-.4.1-.2.7-.2,1a10.89,10.89,0,0,1,.5,2.6c.1.4,0,1,.3,1.4.3.1.2-.4.1-.5a18,18,0,0,0-.3-4c0-.2-.2-.5-.4-.5Zm6.1,4.4c.2.1.2.6.5.4a1,1,0,0,1,1,.2.47.47,0,0,0,.8-.1c.4-.2,1,.2,1.3-.2.2-.1.2.3,0,.4-.5.2-1.1.1-1.7.3s-.9-.5-1.4-.3c-.2.1-.6.1-.6-.2s-.1-.5.1-.5Zm-1.1,2.7c.4.2.7.6,1.2.4a5,5,0,0,1,2.1.2,3.41,3.41,0,0,0,2.4-.5c.2,0,.3.2,0,.3a5.14,5.14,0,0,1-3,.4c-.8-.4-1.8,0-2.5-.4a.7.7,0,0,1-.2-.4Zm1.5,1.3h0a3.19,3.19,0,0,0,1.9.3c.2-.1.6-.1.3.1a1.67,1.67,0,0,1-1.8,0c-.1-.1-.3-.2-.4-.4Zm-4.7,1.2c-.2.1-.1.5-.2.7-.2,1-.4,2-.6,2.9a10.41,10.41,0,0,1-.6,1.6,6.32,6.32,0,0,0,1.2,2.3,25.68,25.68,0,0,0,5.4,5,5,5,0,0,0,1.4.8,16.55,16.55,0,0,0,3-2.2c1.8-1.5,3.7-3.2,4.6-5.4a.76.76,0,0,0,0-1,13.12,13.12,0,0,1-.9-3.4,6.11,6.11,0,0,0-.3-1.3c-.3,0-.5.4-.8.6s-.6.8-1,1a38.77,38.77,0,0,1-3.3,2.3h-3c-1.2-.6-2.2-1.6-3.4-2.3-.4-.1-.6-.7-1-.9-.1-.3-.2-.6-.5-.7Z"/><path class="cls-6" d="M27.73,6.22h0a.37.37,0,0,1,.3.1h0c0,.1.1.2.1.3s.1.2.1.3v.3h0v.1h0v-.1c.1-.2.2-.3.2-.4l.1-.1h.1c.1,0,.1.1.2.2a.75.75,0,0,1,.1.5c0,.3.1.6.1.8v.3h0a.35.35,0,0,1,.1-.2c0-.1.1-.2.1-.3s.1-.2.2-.3.1-.1.2-.1h.1a.1.1,0,0,0,.1.1,5.53,5.53,0,0,1,.1.9,3.54,3.54,0,0,0,.1.6.44.44,0,0,0,.1.3h0v-.1c.2-.4.3-.7.4-.9a1.24,1.24,0,0,1,.2-.3h.1a.1.1,0,0,1,.1.1c.1.1.1.3.2.6s.1.5.3.7a.52.52,0,0,1,.2.4c0,.2.1.4.1.7a9.63,9.63,0,0,0,.3,2,1.06,1.06,0,0,0,.2.5v1.3c0,.2,0,.3-.1.3v.4h0v.4c0,.2.1.5.1.6,0,.8-.1,1.5-.1,2.3V19l.3-.1a.37.37,0,0,1,.3-.1h.1V19h0v.1c0,.1.1.2.1.3v.8a.37.37,0,0,1-.1.3c0,.1-.1.2-.1.4a9.44,9.44,0,0,0-.3.9v.4a6.62,6.62,0,0,1-.1,1.5,1.54,1.54,0,0,1-.3.7l-.1.1h0a.1.1,0,0,1-.1.1c0,.1-.1.2-.1.3a21.1,21.1,0,0,1-.6,2.9v.4a9.51,9.51,0,0,0,.1,1.4c.1.3.1.7.2.9a3.71,3.71,0,0,0,.2.9c0,.2.1.3.1.5a.37.37,0,0,0,.1.3,4.65,4.65,0,0,0,.3.9c0,.1.1.2.1.3s.2.3.3.5.3.4.5.4.4.3.5.4.4.3.5.4a.1.1,0,0,1,.1.1h.1c.1,0,.1.1.2.1s.3.2.4.2h.1a.31.31,0,0,1,.2.1,4.88,4.88,0,0,0,.7.3c.6.2,1.3.5,2.1.8s1.5.6,2.1.8a6.89,6.89,0,0,1,.8.3.76.76,0,0,0,.4.1.76.76,0,0,1,.5.2.1.1,0,0,1,.1.1h.1a.31.31,0,0,1,.2.1c.1,0,.1.1.2.1h.1v.2h-.2c-.1,0-.2-.1-.4-.2h-.1a.31.31,0,0,1-.2-.1c-.1-.1-.3-.1-.6-.2a18.88,18.88,0,0,0-1.8-.6c-1.3-.5-2.8-1-3.4-1.3-.2-.1-.3-.1-.5-.2h-.3c-.1,0-.2-.1-.3-.1l-.6-.3a.37.37,0,0,0-.3-.1h-.1a.1.1,0,0,1-.1.1c-.1.1-.1.2-.2.3-.2.3-.5.7-.6.9s-.2.2-.2.3l-.1.1h0l-.1.1a.22.22,0,0,1-.2.2c-.1.1-.1.2-.2.2l-.1.1h0l-.1.1c-.1.1-.2.3-.4.4l-.2.2c-.1.1-.1.1-.1.2h0a28.78,28.78,0,0,1-3.3,2.8,1.38,1.38,0,0,1-.4.3,8.11,8.11,0,0,1-.8.6,14.7,14.7,0,0,0-1.3,1c-.1.1-.2.1-.3.2s-.1.1-.1.2a.35.35,0,0,1-.1.2.1.1,0,0,1-.1.1h-.3c-.1,0-.1-.1-.2-.1s-.2-.1-.4-.2a3.19,3.19,0,0,1-.7-.6c-.2-.1-.6-.5-.9-.7a8.11,8.11,0,0,1-.8-.6c.3.2.1.1.1.1a28.78,28.78,0,0,1-3.3-2.8h0A.35.35,0,0,1,18,39l-.2-.2-.4-.4-.1-.1h0l-.1-.1c-.1-.1-.1-.2-.2-.2s-.1-.2-.2-.2a.1.1,0,0,0-.1-.1h0l-.1-.1c-.1-.1-.1-.2-.2-.3l-.6-.9c-.1-.1-.1-.2-.2-.3l-.1-.1h-.1c-.1,0-.2.1-.3.1l-.6.3c-.1,0-.2.1-.3.1h-.3a1.69,1.69,0,0,0-.5.2c-.6.3-2.1.8-3.4,1.3-.7.2-1.3.5-1.8.6a1.42,1.42,0,0,1-.6.2c-.1,0-.1,0-.2.1h-.1a2.18,2.18,0,0,0-.6.1h-.2v-.2h.1a.35.35,0,0,1,.2-.1c.1,0,.1-.1.2-.1h.1a.1.1,0,0,0,.1-.1,1.69,1.69,0,0,0,.5-.2c.1,0,.2-.1.4-.1a6.89,6.89,0,0,1,.8-.3c.6-.2,1.4-.5,2.1-.8s1.5-.6,2.1-.8a4.88,4.88,0,0,0,.7-.3c.1,0,.1-.1.2-.1h.1c.1-.1.2-.1.4-.2a.35.35,0,0,0,.2-.1h.1l.1-.1c.1-.1.3-.2.5-.4a2.18,2.18,0,0,0,.5-.4,2.18,2.18,0,0,1,.5-.4.91.91,0,0,0,.3-.5c0-.1.1-.2.1-.3s.2-.5.3-.9a.77.77,0,0,1,.1-.3,4.33,4.33,0,0,0,.1-.5c.1-.3.1-.7.2-.9a3.71,3.71,0,0,1,.2-.9,3.62,3.62,0,0,0,.1-1.4v-.4a21.1,21.1,0,0,1-.6-2.9.37.37,0,0,0-.1-.3c0-.1,0-.1-.1-.1h0l-.1-.1a2.39,2.39,0,0,1-.3-.7,6.62,6.62,0,0,1-.1-1.5v-.4a9.44,9.44,0,0,0-.3-.9c0-.1-.1-.3-.1-.4a.37.37,0,0,0-.1-.3v-.8a.37.37,0,0,1,.1-.3v-.1h0v-.2h.1c.1,0,.1,0,.3.1l.3.1v-.5c0-.8-.1-1.5-.1-2.3a2.25,2.25,0,0,1,.1-.7c0-.3.1-.7.1-.8v-.8h0c0-.3.1-.6.1-.8h0a2.92,2.92,0,0,1,.2-.9c0-.1.1-.2.1-.3s.1-.1.1-.2h0a4.48,4.48,0,0,0,.1-1.1c0-.3,0-.6.1-.7a.52.52,0,0,1,.2-.4,2.39,2.39,0,0,0,.3-.7c.1-.3.1-.5.2-.6s0-.1.1-.1h0c.1,0,.1.1.2.3a1.63,1.63,0,0,1,.3.6c0-.1,0-.2.1-.2s0-.1.1-.1h0v-.2a3.87,3.87,0,0,0,.1-.9c0-.1,0-.1.1-.1s.1-.1.1,0,.1,0,.2.1.1.2.2.3l.2.2c0-.1.1-.2.1-.3s.1-.1.1-.2l.1-.1h0v-.3a4.33,4.33,0,0,1,.1-.5.22.22,0,0,1,.2-.2h.2l.1.1c.1.1.1.2.2.4v.1h0c.1.1.1,0,.1,0h0v-.2h.1c.1,0,.3.1.3.2a.31.31,0,0,0,.1.2.35.35,0,0,0,.1.2.31.31,0,0,1,.1.2.1.1,0,0,0,.1.1h0v-.3c0-.3.1-.5.1-.8,0-.1.1-.2.1-.3v-.1h.4c.1,0,.1.1.1.2s.2.3.3.4.1.1.1.2h0v-.1c0-.1.1-.2.1-.3a.76.76,0,0,0,.1-.4c0-.1.1-.1.2-.1h0a2.19,2.19,0,0,1,.3.5,2.19,2.19,0,0,0,.3.5.1.1,0,0,0,.1.1h0v-.2h0v-.1a.31.31,0,0,1,.1-.2.76.76,0,0,1,.2-.4.1.1,0,0,1,.1-.1l.1-.1h.1l.1.1c0,.1.1.2.1.4v.1l.1-.2a1.07,1.07,0,0,1,.3-.5c.1-.1.1-.1.2-.1h.2a.35.35,0,0,1,.1.2.37.37,0,0,1,.1.3,2.19,2.19,0,0,0,.3.5h.1l.1-.1a.76.76,0,0,0,.2-.4c.1-.1.2-.3.3-.3.6-.4.7-.4.7-.4Zm0,.4h0a2.41,2.41,0,0,0-.6.8h0v.2a.35.35,0,0,0,.1.2v.1h.1l.1-.1.3-.3a.1.1,0,0,0,.1-.1v-.2c0-.1-.1-.3-.1-.4s.1-.1,0-.2Zm-1.6.1h0c-.1.1-.2.2-.2.3a.76.76,0,0,0-.2.4,1.76,1.76,0,0,0-.1.6,1.33,1.33,0,0,0,.3.7h0c0,.1,0,.2.1.2h0v-.3a.9.9,0,0,1,.1-.5c0-.2.1-.3.1-.4s.1-.4.1-.5a.6.6,0,0,0-.1-.4.1.1,0,0,0-.1-.1Zm-3.2.4h0l-.1.1v1.1a.73.73,0,0,0,.2.6l.1.1a2.27,2.27,0,0,0,.1-.4h.2a.35.35,0,0,1,.1.2,4.33,4.33,0,0,1,.1.5h0v-.1c0-.1,0-.2.1-.2a4.33,4.33,0,0,1,.1-.5.22.22,0,0,1,.2-.2.37.37,0,0,1,.3.1l.1.1h0v-.2a.37.37,0,0,0-.1-.3c-.1-.2-.1-.3-.2-.5a.1.1,0,0,0-.1-.1v-.1h0a1,1,0,0,0-.1.3c0,.3-.2.7-.2,1,0,.1,0,.1-.1.1h-.1l-.1-.1a.31.31,0,0,0-.1-.2,4.4,4.4,0,0,0-.2-1c-.1-.1-.1-.2-.2-.3Zm2.2,0h0c0,.1-.1.1,0,0l-.1.1v.1c0,.1,0,.1-.1.2a1.09,1.09,0,0,0-.1.5c0,.2-.1.3-.1.4l-.1.1h0l-.1.1c.1.3.1.6.3.8.1,0,.1-.1.2-.1a.35.35,0,0,0,.1-.2c0-.1.1-.2.1-.3a1.69,1.69,0,0,0,.2-.5V8a1.09,1.09,0,0,0-.1-.5c-.1-.1-.1-.2-.2-.4.1.1.1,0,0,0Zm3.8.3h0c-.1.1-.2.2-.2.3s-.3.4-.3.6a.37.37,0,0,0-.1.3v.5a.37.37,0,0,1-.1.3.1.1,0,0,1-.1.1H28V8.12h0a.1.1,0,0,1-.1.1c-.1.1-.1.2-.2.3s-.1.2-.2.3a.35.35,0,0,1-.1.2.35.35,0,0,1-.1.2h0v1.2h0a.1.1,0,0,1,.1-.1c0-.1.1-.2.1-.3s.1-.2.2-.3a.1.1,0,0,1,.1-.1H28a.1.1,0,0,1,.1.1v.1h0l.1-.1c0-.1.1-.2.1-.3s.1-.3.2-.4a.35.35,0,0,1,.1-.2.22.22,0,0,1,.2-.2c.1,0,.2,0,.2.1s.1.4.2.6v.2l.1-.2v-.1h-.1v-.6a4.33,4.33,0,0,1-.1-.5.37.37,0,0,0-.1-.3c0-.2-.1-.3-.1-.4Zm-8.1,0h0a.31.31,0,0,0-.1.2v.2l.2.2.1.1h0l.1.1a.35.35,0,0,1,.1.2c0,.2.1.3.1.4v-.9a.76.76,0,0,1-.2-.4c-.1.1-.2,0-.3-.1Zm.8.1h0c0,.1,0,.2-.1.2a1.76,1.76,0,0,1-.1.6v.9h.3c0-.1.3-.8.3-.9V8a.35.35,0,0,0-.1-.2l-.1-.1-.1-.1-.1-.1Zm5.1,0h0v.1c0,.1,0,.1-.1.2s-.1.3-.1.4c-.1.3-.1.6-.2.9a.1.1,0,0,1-.1.1h-.1a.1.1,0,0,1-.1.1v.1c0,.1.1.2.1.3h0v-.1c0-.1.1-.1.1-.2s.1-.3.2-.5.2-.3.3-.4h0c.1,0,.1,0,.1-.1l.1-.1a1.09,1.09,0,0,0-.1-.5c0-.2-.1-.3-.1-.4.1.2.1.2,0,.1Zm3.1.7h0l-.2.2a.1.1,0,0,1-.1.1v.1h0v.1a.31.31,0,0,1-.1.2c.1.1,0,.2,0,.3v.1h0v.1h-.2v.8c0-.1.1-.1.1-.2s.1-.1.1-.2h.3a.35.35,0,0,0,.1-.2.35.35,0,0,1,.1-.2.1.1,0,0,1,.1-.1.44.44,0,0,0,.1-.3v-.4c0-.1-.1-.3-.1-.4Zm-10.2,0h0v.1a.6.6,0,0,1-.1.4v.5l.1.1c.1.1.1.2.2.3a.1.1,0,0,0,.1.1h0V9a.76.76,0,0,1,.1-.4c-.1-.1-.2-.2-.2-.3a.31.31,0,0,1-.2-.1Zm.9,0c-.1,0-.1.1,0,0a.31.31,0,0,0-.1.2v.5a1,1,0,0,0,.1.9c.1.4.2.4.3.8v.2H21c.1,0,.1,0,.1-.1a.31.31,0,0,1,.1-.2c0-.1.1-.3.1-.4a.66.66,0,0,0-.1-.6c-.1-.1-.1-.3-.2-.4a1.69,1.69,0,0,0-.2-.5c-.2-.2-.2-.3-.3-.4Zm1.8.5h0l-.1.2c-.1.1-.1.4-.1.6v.6h0v.3c0,.1.1.2.2.3l.1.1h0l.1-.1c.2-.2.2-.5.4-.9,0-.2.1-.3,0-.4s-.1-.2-.3-.5l-.3-.2Zm1.8.2h0c-.1.2-.1.2-.1.3a1,1,0,0,1-.1.4v.3a.37.37,0,0,0,.1.3.1.1,0,0,1,.1.1v.1h.1a.44.44,0,0,0,.1-.3c0-.1.1-.2.1-.3v-.1h0a.1.1,0,0,0-.1-.1.35.35,0,0,1-.1-.2.35.35,0,0,0-.1-.2.19.19,0,0,0,0-.3Zm1.5,0h0c-.2.1-.2.2-.3.3s-.2.3-.2.4,0,.1.1.3a.76.76,0,0,0,.2.4.1.1,0,0,0,.1.1h0a.1.1,0,0,1,.1-.1H26v-.1h0a3.82,3.82,0,0,1-.4-1.3Zm5.6.2h0l-.1.1a.1.1,0,0,1-.1.1h0v.2c0,.1-.1.1-.1.2s-.1.1-.1.2V10h0v.1l-.1.1v.5c0,.1.1.2.1.3s.1.1.1.2l.1.1h0v-.1c0-.1.1-.2.1-.3a.37.37,0,0,0,.1-.3v-.5a1.48,1.48,0,0,0-.1-.7c.2-.2.1-.3.1-.3Zm-12.7,0h0c-.1,0-.1.1-.1.2a2.25,2.25,0,0,1-.1.7v.6l.1.1a.1.1,0,0,0,.1.1h0v-.2a1,1,0,0,1,.1-.3.49.49,0,0,1,.1-.3v-.2c0-.1-.1-.1-.1-.2v-.2h0l-.1-.1a.14.14,0,0,0,0-.2Zm10.2.1h0c-.1.1-.1.1-.1.2a4.33,4.33,0,0,0-.1.5c0,.1,0,.2-.1.2v.1h0v.4c0,.1.1.2.2.3a.1.1,0,0,1,.1.1v.5h0v-.1c0-.1.1-.2.1-.3s.1-.3.2-.4h0v-.4c0-.2-.1-.5-.1-.6s-.2-.3-.2-.5Zm-5.4.1c-.1,0-.1.2-.2.6a1.69,1.69,0,0,0-.2.5c-.1.1-.1.2-.1.4a2.54,2.54,0,0,0,.2.7.9.9,0,0,1,.1.5v.3h0a.35.35,0,0,0,.1-.2c0-.3.1-.5.2-1.2a1.34,1.34,0,0,0,.1-.5v-.3a3.27,3.27,0,0,0-.2-.8Zm3.5.1h0a.1.1,0,0,0-.1.1c-.1.1-.1.2-.2.5a2.6,2.6,0,0,0-.3.7v.1a9951643238330.39,9951643238330.39,0,0,0,.2.2v.1h0v.1a.1.1,0,0,0,.1.1h0l.1-.1a.1.1,0,0,1,.1-.1c0-.1.1-.2.1-.3a.1.1,0,0,1,.1-.1h.2v-.2a2.2,2.2,0,0,1-.1-.8v-.3c-.2.1-.2.1-.2,0Zm-7.5.2h0a.1.1,0,0,1-.1.1c0,.1,0,.1-.1.2s0,.2-.1.2,0,.1-.1.1v.6c0,.1-.1.2-.1.3a.1.1,0,0,1-.1.1h-.1v.3a1.85,1.85,0,0,0,.2.7,6.37,6.37,0,0,0,.2.7c0,.1.1.2.1.3v.1h0a.1.1,0,0,0,.1.1,1.69,1.69,0,0,0,.2.5,1.09,1.09,0,0,1,.1.5c0,.1,0,.1.1.2v.1h0v.2c0,.1-.1.1-.2.2h-.1a.1.1,0,0,0-.1-.1c0-.1-.1-.2-.1-.4v-.3h0v.5h0v.3c0,.4-.1.8-.2.8s-.3-.4-.4-.7a.35.35,0,0,0-.1-.2v-.1h0V15c0,.1-.1.4-.1.6s-.1.6-.1.9,0,.3-.1.4a.1.1,0,0,1-.1.1h-.1v-.1a.35.35,0,0,1-.1-.2h0a3.58,3.58,0,0,0-.4-1.1,19.27,19.27,0,0,0,0,3.4.6.6,0,0,0,.1.4h0v.3h.6l.1-.1a.1.1,0,0,1,.1-.1h0a.1.1,0,0,1,.1-.1l.1-.1c.1-.1.2-.1.4-.2a.35.35,0,0,0,.2-.1.1.1,0,0,0,.1-.1h.2a12.12,12.12,0,0,1,2-.1H22c.4,0,.6.1.8.1s.2.1.3.2a1.38,1.38,0,0,1,.3.4l.1.1.2-.1h1.5l.2.1.1-.1a1.38,1.38,0,0,1,.3-.4c.1-.1.2-.1.3-.2a1.72,1.72,0,0,1,.8-.1,11.54,11.54,0,0,1,2.6.1h.2a.31.31,0,0,1,.2.1.35.35,0,0,1,.2.1c.2.1.3.1.4.2a.1.1,0,0,1,.1.1l.1.1h0l.1.1a.1.1,0,0,0,.1.1h.8c.1,0,.1,0,.2-.1a.31.31,0,0,1,.1-.2.6.6,0,0,1,.1-.4,6.43,6.43,0,0,0,0-2.4l-.1-.1-.1.3a.35.35,0,0,1-.1.2v.1h0l-.1.1V17h0v-.1c0-.1-.1-.2-.2-.3l-.1-.1v-1.3h0v.3a5307543060438.07,5307543060438.07,0,0,0-.2.2v.2l-.1.1h-.5v-.1h0v-.1a.31.31,0,0,1,.1-.2.76.76,0,0,1,.2-.4,1.44,1.44,0,0,1,.2-.3c0-.1.1-.1.1-.2v-.1h0v-.1l.1-.1.1-.1v-.2a2.81,2.81,0,0,0-.1-.8V13h0v.1a.35.35,0,0,0-.1.2c0,.1-.1.1-.1.2l-.1.1h-.2v.5h0v.8h0v.3a.1.1,0,0,1-.1.1h-.1v-.2a.37.37,0,0,0-.1-.3v-.6h0v-.5h0a.1.1,0,0,0-.1.1c-.1.1-.1.2-.2.3a1.38,1.38,0,0,1-.3.4l-.1.1h0l-.1-.1v-.1c0-.1.1-.2.2-.3a.76.76,0,0,0,.2-.4.22.22,0,0,1,.2-.2.76.76,0,0,0,.2-.4,2,2,0,0,0-.1-.7c0-.1-.1-.3-.1-.4v-.1h0a.1.1,0,0,0-.1.1c-.1.1-.1.2-.2.2v.1h-.1v.3c0,.1-.1.1-.1.2v.1h0v1.3h0v.1l-.1.1h-.1a.1.1,0,0,0-.1-.1,4.33,4.33,0,0,1-.1-.5v-.7h0v.2a.35.35,0,0,0-.1.2c-.1.1-.1.1-.1.2v.1h0v.1h0a.35.35,0,0,0-.1.2c-.1.1-.1.2-.2.2h-.1a19903286476632.37,19903286476632.37,0,0,0-.2-.2c0-.1-.1-.1-.1-.3s-.1-.5-.2-.6v-.1h0a.35.35,0,0,0-.1.2c-.1.2-.3.4-.5.8-.1.1-.1.2-.2.2h-.1v-.1c0-.1-.1-.2-.2-.3l-.1-.1v-1.4h0v.1a4.88,4.88,0,0,0-.3.7c-.1.1-.1.2-.2.3a.1.1,0,0,1-.1.1v.1a.1.1,0,0,0-.1.1h-.1a.44.44,0,0,1-.1-.3v-.3a.31.31,0,0,0-.1-.2c0-.1-.1-.2-.1-.3a.35.35,0,0,0-.1-.2l-.1-.1h0v.1c0,.1-.1.2-.1.3a1.88,1.88,0,0,0-.2.8c0,.1-.1.2-.1.3V14h-.2a.1.1,0,0,1-.1-.1c0-.1-.1-.2-.2-.4s-.1-.2-.2-.4-.1-.1-.1-.2v-.1h0l-.1.1a1.69,1.69,0,0,1-.2.5,3.93,3.93,0,0,0-.2.6v.1H24v-.2h-.1c-.1,0-.1-.1-.2-.1s-.1-.2-.2-.4-.1-.4-.2-.5-.1-.1-.1-.2v-.1h0c0,.1-.4.6-.4.9v.1h0v.2l-.1.1h-.1v-.2h0v.1h0l-.1-.1a1.08,1.08,0,0,1-.3-.7v-.1h0V13a3.93,3.93,0,0,1-.2.6c-.1.2-.1.4-.2.5a.1.1,0,0,1-.1.1h0v-.4a1.17,1.17,0,0,1,.2-.7c0-.1.1-.2.1-.3v-.1h0l-.1-.1c-.1-.1-.1-.3-.2-.4s-.1-.2-.1-.3v-.1h0v.1a.37.37,0,0,1-.1.3,2,2,0,0,1-.1.5v.1l-.1.1h0v-1c0-.2.1-.4.1-.6a.76.76,0,0,1,.2-.5c0-.1.1-.2.2-.4a1.27,1.27,0,0,0,.1-.6v-.2a.22.22,0,0,0-.2-.2c-2.2.4-2.3.3-2.4.2Zm10.8.3h0a.1.1,0,0,0-.1.1,2,2,0,0,0-.1.5,3.75,3.75,0,0,0-.1.8v.1a.1.1,0,0,0,.1.1c.1.1.1.2.2.3v.1h0a.1.1,0,0,0,.1-.1c0-.1.1-.2.2-.3l.1-.2-.1-.6c-.1-.3-.1-.5-.2-.6s0-.2-.1-.2Zm-8.6,0h0a.31.31,0,0,0-.1.2c0,.1-.1.2-.1.3v1c0,.2,0,.3.1.4v.1h0V12c0,.1.1.2.1.3a.1.1,0,0,1,.1.1h.1a.1.1,0,0,1,.1-.1c0-.1.1-.2.1-.3a1.49,1.49,0,0,0,.1-.6v-.1c0-.1-.1-.1-.1-.2s-.1-.1-.1-.2v-.1h0v-.1c0-.1-.1-.2-.1-.3s-.1-.2-.1-.3,0-.1-.1-.2Zm3.3.2h0c-.1,0-.1.1-.1.2a.6.6,0,0,0-.1.4,1,1,0,0,1-.1.3v.3a.75.75,0,0,0,.1.5c0,.1,0,.2.1.2h.2l.1-.1a3.93,3.93,0,0,1,.2-.6.9.9,0,0,0,.1-.5.76.76,0,0,0-.1-.4.37.37,0,0,1-.1-.3Zm3,0h0l-.1.1-.1.1h0v.1a.31.31,0,0,1-.1.2c0,.1-.1.1-.1.2v.1h0V11c0,.1-.1.1-.1.2v.6c.1.2.1.4.2.6h0v-.5h0a5.94,5.94,0,0,1,.4-.8l-.1-.6c0-.2-.1-.3-.1-.4.1.1.1.1.1,0Zm4,.3h0l-.1.1c-.1.1-.1.2-.2.3s-.1.2-.2.3a.1.1,0,0,1-.1.1h0v.1a7961314590657.15,7961314590657.15,0,0,0-.2.2v1h0l.1-.1a.35.35,0,0,0,.1-.2c0-.1.1-.1.1-.2v-.1h0v-.1c0-.1.1-.1.1-.2a1.09,1.09,0,0,0,.1-.5v-.5c.3.1.3,0,.3-.2Zm-13.9,0h0v.3a6.15,6.15,0,0,1-.1,1.4,3.1,3.1,0,0,0,.2.7c.1.4.1-.1.2-.6s.1-.9.1-1-.1-.3-.1-.5h0a.31.31,0,0,1-.1-.2c-.1,0-.2,0-.2-.1Zm2.3.1h0a4.88,4.88,0,0,0-.3.7.85.85,0,0,0,0,.7.31.31,0,0,0,.1.2c0,.1.1.2.1.3s.1.2.1.3v.1h.2v-.3a.6.6,0,0,1,.1-.4,1.76,1.76,0,0,0,.1-.6.37.37,0,0,0-.1-.3c0-.1-.1-.2-.1-.3-.1-.3-.1-.3-.2-.4Zm9.1.2h0c-.1.1-.1.1-.1.2s-.1.3-.2.4-.1.3-.2.4v.1h0l-.1.1h0V12a.37.37,0,0,0,.1.3v.1h0v-.1a.1.1,0,0,1,.1-.1c.1-.1.2-.4.3-.5l.2-.3-.1-.5a.37.37,0,0,0-.1-.3c.2.1.2.1.1.1Zm-5.5,0h0c-.1.1-.1.1-.1.2s-.1.2-.1.3v.3h0v.9c0,.1,0,.2-.1.2v.2a1.44,1.44,0,0,0,.2.3,1.69,1.69,0,0,1,.2.5v-.1h0a.37.37,0,0,1,.1-.3,4.05,4.05,0,0,1,.3-1l.1-.1V12a.1.1,0,0,0-.1-.1,2.54,2.54,0,0,0-.2-.7c0-.1-.1-.2-.1-.3l-.2-.2c.1.1.1,0,0,0Zm2,.1h0a.1.1,0,0,0-.1.1c0,.1-.1.1-.1.2a.37.37,0,0,0-.1.3v.1h0a.6.6,0,0,0-.1.4.6.6,0,0,1-.1.4h0v.2a.35.35,0,0,0,.1.2h0a.1.1,0,0,1,.1-.1c.1-.1.1-.2.2-.3s.2-.2.2-.3l.1-.1h.3a.37.37,0,0,0-.1-.3,1.06,1.06,0,0,1-.2-.5c-.1-.1-.2-.2-.2-.3Zm-3.3.5h0a.1.1,0,0,0-.1.1h0v.1c0,.1-.1.2-.1.4s-.1.3-.1.4a.35.35,0,0,1-.1.2v.3c0,.2.1.3.1.5s.1.2.1.3.1.1.1.2h0v-.1a1.69,1.69,0,0,1,.2-.5,1.69,1.69,0,0,0,.2-.5.1.1,0,0,1,.1-.1h0v-.2c0-.1-.1-.2-.1-.3a1.85,1.85,0,0,1-.2-.7c0,.1,0,0-.1-.1Zm-1.6.2h0a.37.37,0,0,0-.1.3,4.48,4.48,0,0,0-.1,1.1,1.88,1.88,0,0,0,.2.8.37.37,0,0,1,.1.3c0-.1.1-.2.1-.3l.3-.6a.76.76,0,0,0,.1-.4c0-.1-.1-.2-.2-.4a2.19,2.19,0,0,0-.3-.5,1,1,0,0,0-.1-.3Zm7.5,0h0c-.1.1-.1.2-.2.2h0c-.1.1-.2.3-.3.4a1.42,1.42,0,0,0-.2.6,5.64,5.64,0,0,1,.1.7c0,.1,0,.3.1.3v.1h0l.1-.1a2.19,2.19,0,0,0,.3-.5l.2-.3-.1-.5v-.9Zm-1.6.1h0c-.1.1-.1.1-.1.2-.2.3-.2.5-.3.6v.5h0v.4a.37.37,0,0,0,.1.3v.1h0l.1-.1v-.1h0a.1.1,0,0,1,.1-.1c.1-.1.2-.2.2-.3l.1-.2-.1-.5c0-.1-.1-.3-.1-.4v-.2c.1-.1.1-.1,0-.2Zm4,0h0c-.1,0-.1.1,0,0-.1.1-.2.1-.2.2s-.2.2-.2.3,0,.1-.1.1h0v.4c0,.2.1.3.1.4v.1h.1v.1h0c.1-.1.1-.2.2-.4a5.64,5.64,0,0,0,.1-.7v-.5Zm-12.3.3h0v1h0a4.33,4.33,0,0,0-.1.5,2.4,2.4,0,0,0,.2,1c0,.1,0,.1.1.1h0v-.1a.35.35,0,0,1,.1-.2,4.08,4.08,0,0,0,.2-.7v-.4a2.07,2.07,0,0,0-.2-.6c0-.1-.1-.2-.1-.3s-.2-.2-.2-.3Zm13.3.4h0l-.1.1c0,.1,0,.1-.1.2a3.71,3.71,0,0,0-.2.9v.9h0v.1a.37.37,0,0,0,.1.3.37.37,0,0,0,.1.3v.7c0,.2,0,.5.1.5v.1h0c0-.1.1-.2.2-.5.1-.1.1-.3.2-.4a.1.1,0,0,1,.1-.1h0v-1.1h0l-.1.1c0,.1-.1.1-.1.2a1.24,1.24,0,0,1-.2.3h0l-.1-.1v-.2a.37.37,0,0,1,.1-.3l.3-.6a1.07,1.07,0,0,0,.2-.6,4.5,4.5,0,0,0-.2-.8c-.1.2-.2.1-.3,0Zm-14.2.6h0l-.1.1v.1h0a6.6,6.6,0,0,0-.1,1.4h0v.2c.4.3.5,1.4.6.6a2.77,2.77,0,0,1,.1-.9c0-.2.1-.3.1-.4v-.3c0-.1-.1-.2-.1-.4a.69.69,0,0,1-.5-.4Zm.4,2.7v0Zm-.8.6v0Zm4.7,2.5h-1.3a5.31,5.31,0,0,0-1.4.1c-.4.1-.5.1-.7.3l-.2.2v.1h0v.1a.1.1,0,0,1-.1.1,2.5,2.5,0,0,0-.1,1.4v.9h0V22c0,.1.1.3.1.4a1.14,1.14,0,0,0,.7.8,2.51,2.51,0,0,0,1,.2,4.87,4.87,0,0,0,1.2-.1h.3a3,3,0,0,0,1.3-1.2h0V22c0-.1,0-.1.1-.2a6.37,6.37,0,0,0,.2-.7,6.37,6.37,0,0,1,.2-.7,4.33,4.33,0,0,1,.1-.5v-.3h0V19h0c-.2,0-.3-.1-.4-.3a.46.46,0,0,0-.5-.3c0,.3-.2.3-.5.3Zm5.2,0h-.7c-.2,0-.3.1-.5.3a.54.54,0,0,1-.4.3h0v.6h0v.3a1.34,1.34,0,0,0,.1.5,1.85,1.85,0,0,0,.2.7,6.37,6.37,0,0,0,.2.7.35.35,0,0,0,.1.2v.1h0a3.74,3.74,0,0,0,1.3,1.2h.3a4.87,4.87,0,0,0,1.2.1h0a2.51,2.51,0,0,0,1-.2,1.14,1.14,0,0,0,.7-.8c0-.1.1-.3.1-.4v-.1h0v-.9a2.5,2.5,0,0,0-.1-1.4.1.1,0,0,0-.1-.1v-.1h0v-.1c0-.1-.1-.1-.2-.2s-.3-.2-.7-.3a5.31,5.31,0,0,0-1.4-.1h-.9c.1-.3-.1-.3-.2-.3Zm-6,.4h0c.1,0,.1,0,.1.1h0v.1a.1.1,0,0,1-.1.1c-.1.1-.2.3-.4.5l-.3.3-.1.1h0a.1.1,0,0,0-.1.1.22.22,0,0,0-.2.2l-.3.3-.3.3c-.1.1-.2.2-.3.2s-.1.1-.2,0a.1.1,0,0,1-.1-.1v-.1a.1.1,0,0,1,.1-.1L19,21h.2l.1-.1a2.18,2.18,0,0,1,.5-.4c.2-.1.4-.4.5-.5s.3-.4.4-.5c.2-.3.3-.4.4-.4Zm7.3.1h.1v.1c0,.1-.1.2-.1.3s-.1.2-.2.3a.1.1,0,0,1-.1.1h0l-.1.1c0,.1-.1.2-.2.3a3,3,0,0,1-.5.7c-.1.1-.3.4-.4.5s-.1.2-.2.2h-.2a.1.1,0,0,1-.1-.1v-.1c0-.1.2-.3.4-.5s.5-.6.6-.8a9.22,9.22,0,0,0,.5-.8c.3-.2.4-.3.5-.3Zm-8.9.2h0l.1.1h0c0,.1,0,.1-.1.2l-.3.3a1.24,1.24,0,0,0-.2.3c-.1.1-.2.2-.3.2h-.1l-.1-.1v-.3h.1l.1-.1c.1,0,.1-.1.2-.2l.2-.2h.1l.1-.1c.1-.1.1-.1.2-.1Zm7.6,0h0c.1.1.1.1.1.2a.31.31,0,0,1-.1.2c-.1.1-.2.4-.4.7a.1.1,0,0,1-.1.1h0c0,.1-.1.1-.2.1h-.1l-.1-.1v-.1a.1.1,0,0,1,.1-.1.52.52,0,0,0,.2-.4c.1-.1.2-.3.3-.4s.2-.2.3-.2Zm-2.4.1a5.64,5.64,0,0,1-.7.1.1.1,0,0,0-.1.1.31.31,0,0,1-.1.2v.5a.76.76,0,0,1-.1.4c0,.2-.1.4-.1.6a3.63,3.63,0,0,1-.7,1.7,2.37,2.37,0,0,1-1.7.9,5.44,5.44,0,0,1-1.8,0h-.2a1.46,1.46,0,0,1-.9-.6,2.19,2.19,0,0,1-.3-.5.35.35,0,0,0-.1-.2v-.2h0v-.3a4.51,4.51,0,0,1-.1-1.3v-1.1h-.4v.1h0v1.4c0,.2.1.4.1.6v.3h0v2.9a1.27,1.27,0,0,0,.1.6h0c0-.1-.1-.4-.1-.6v0a1.27,1.27,0,0,0,.1.6,12.49,12.49,0,0,0,.6,2.9h0v.1l.1.1v-.2h0a12.49,12.49,0,0,1-.6-2.9h0a12.49,12.49,0,0,0,.6,2.9h0v.1l.1.1c.1.1.2.2.2.3v.1h0l.1.1.1.1.1.1a.35.35,0,0,0,.2.1l.2.2c.2.2.3.3.4.3h.1a.1.1,0,0,0,.1-.1.31.31,0,0,1,.2-.1.1.1,0,0,1,.1.1v.1c0,.1-.1.1-.1.2v.1a.1.1,0,0,0,.1.1.35.35,0,0,0,.2.1c.1.1.2.2.3.2h.1a.1.1,0,0,0-.1-.1c-.1-.1-.1-.3-.2-.4a.37.37,0,0,1-.1-.3v-.1h.2a.1.1,0,0,1,.1.1l.2.2a1.49,1.49,0,0,1,.3.7h0a.1.1,0,0,1,.1-.1.77.77,0,0,1,.2-.3h.2a.1.1,0,0,1,.1.1v.1a.76.76,0,0,1-.2.4.31.31,0,0,0-.1.2v.2a.35.35,0,0,0,.2.1c.1.1.2.1.3.2a.37.37,0,0,0,.3.1h.1v-.1c0-.1-.1-.2-.1-.3s-.1-.2-.1-.3v-.1h0a.1.1,0,0,0-.1-.1l-.1-.1v-.1h.2a.1.1,0,0,1,.1.1c0,.1.1.1.1.2s.1.3.1.4a.1.1,0,0,0,.1.1h0c0-.1.1-.2.1-.3s.1-.1.1-.2V31h0a.1.1,0,0,0,.1-.1h0V31a.65.65,0,0,1-.2.5c-.1.1-.1.3-.2.5l-.1.2.2.1a1.44,1.44,0,0,0,.3.2h.4v-.2a.76.76,0,0,0-.1-.4,2.54,2.54,0,0,1-.2-.7.35.35,0,0,0-.1-.2v-.2l.1-.1a.1.1,0,0,1,.1.1,1.63,1.63,0,0,1,.3.6c0,.1.1.2.1.3v.1h0v-.5a.1.1,0,0,1,.1-.1.1.1,0,0,0,.1-.1h.1a.1.1,0,0,1,.1.1v.2a5.07,5.07,0,0,1-.2.9v.3h.8v-.3a5.07,5.07,0,0,1-.2-.9h0v-.2h0a.1.1,0,0,1,.1-.1h.1a.1.1,0,0,1,.1.1l.1.1v.5h0v-.1c0-.1.1-.2.1-.3a1.63,1.63,0,0,1,.3-.6.1.1,0,0,1,.2,0V31c0,.1-.1.1-.1.2a1.17,1.17,0,0,0-.2.7c0,.1-.1.3-.1.4v.2h.4c.1,0,.2-.1.3-.2l.2-.1-.1-.2c.8,0,.7-.2.7-.4a1.69,1.69,0,0,1-.2-.5V31h0a.1.1,0,0,1,.1.1h0v.1a.35.35,0,0,1,.1.2.37.37,0,0,1,.1.3h0a.1.1,0,0,1,.1-.1c0-.1.1-.2.1-.4s0-.1.1-.2l.1-.1h.2V31a3980657295328.56,3980657295328.56,0,0,1-.2.2h0v.1c0,.1-.1.2-.1.3s-.1.2-.1.3V32h.1c.1,0,.2-.1.3-.1s.2-.1.3-.2.1-.1.2-.1v-.2a.31.31,0,0,0-.1-.2c-.1-.2-.1-.3-.2-.4v-.2a.1.1,0,0,1,.1-.1h.2a1.24,1.24,0,0,1,.2.3.1.1,0,0,0,.1.1h0a2.51,2.51,0,0,1,.4-.7c.1-.1.1-.2.2-.2a.1.1,0,0,0,.1-.1h.2V30c0,.1-.1.1-.1.3a.76.76,0,0,0-.2.4c0,.1,0,.1-.1.1h.1c.1,0,.2-.1.3-.2s.1-.1.2-.1l.1-.1v-.1a.31.31,0,0,0-.1-.2V30l.1-.1c.1,0,.2,0,.2.1l.1.1h.1c.1,0,.2-.2.4-.3s.1-.2.2-.2.1-.1.2-.1a.1.1,0,0,0,.1-.1l.1-.1.1-.1h0v-.1c0-.1.1-.2.2-.3l.1-.1v-.1h0a12.49,12.49,0,0,0,.6-2.9h0c0-.1.1-.4.1-.6v-2.9h0v-.3a1.27,1.27,0,0,1,.1-.6v-1.4h-.8V21a4.89,4.89,0,0,1-.1,1.3v.3h0v.2c0,.1-.1.2-.1.3a2.19,2.19,0,0,1-.3.5,2.23,2.23,0,0,1-1.2.7,4.84,4.84,0,0,1-1.7,0,2.79,2.79,0,0,1-1.7-.9,3.25,3.25,0,0,1-.7-1.7c0-.2-.1-.4-.1-.6s0-.3-.1-.4V20a.35.35,0,0,0-.2-.1c.2-.3.1-.3,0-.4Zm4.6,0h.1v.2c0,.1-.2.3-.5.7a2.18,2.18,0,0,1-.4.5c-.1.1-.2.3-.3.4a5.25,5.25,0,0,1-.7,1.1l-.1.1v.1h0v.1a.1.1,0,0,1-.1.1.37.37,0,0,1-.3.1l-.1-.1v-.2h0v-.2l.1-.1.1-.1c0-.1.1-.1.2-.2s.3-.4.4-.6a11.52,11.52,0,0,1,.7-1.1c.1-.1.2-.3.3-.3.3-.4.5-.5.6-.5Zm3.7.1h0q-.15,0-.3.3a.75.75,0,0,0-.1.5v.3h0v2.1h0v.3a1.27,1.27,0,0,0,.1.6V24h0v.2a.1.1,0,0,1-.1.1l-.1.1a.1.1,0,0,0,.1.1l.1.1.1-.1a.37.37,0,0,0,.1-.3v-1.3h0v-.8h0V22c0-.1,0-.1.1-.2s.1-.2.1-.3.1-.1.1-.2v-.1h0a.1.1,0,0,1,.1-.1c.1-.1.1-.4.1-.6v-.3a.35.35,0,0,0-.1-.2c-.2-.4-.2-.4-.3-.4Zm-16.6,0h0c-.1,0-.1.1-.2.2v.3c0,.2,0,.5.1.6a.1.1,0,0,0,.1.1h0v.1a.31.31,0,0,0,.1.2c0,.1.1.2.1.3s0,.2.1.2v.1h0v.8h0v1.3c0,.1.1.2.1.3l.1.1.1-.1a.1.1,0,0,1,.1-.1.1.1,0,0,0-.1-.1.1.1,0,0,0-.1-.1v-.2h0v-.3a1.27,1.27,0,0,1,.1-.6v-.3h0v-2.1h0V20c0-.2-.1-.3-.1-.5-.2.2-.3.1-.5.1Zm5.5,0h0a.1.1,0,0,1,.1.1h0c0,.1-.1.2-.2.4l-.3.3c-.1.1-.5.6-.9,1a2.65,2.65,0,0,0-.5.6c-.1.1-.1.2-.2.2a.1.1,0,0,1-.1.1l-.1.1-.1.1h-.4v-.3a.1.1,0,0,1,.1-.1h.1l.1-.1a7.64,7.64,0,0,1,.9-.9c.1-.1.2-.3.3-.4s.2-.3.4-.5q.45-.6.6-.6c.1.1.1,0,.2,0Zm2,0Zm-6.6.1h0v1.5c0,.1.1.4.1.6v.3h0v0h0v-.3a1.27,1.27,0,0,0-.1-.6v-1.5Zm6.6,0v.7a.76.76,0,0,1-.1.4c0,.2-.1.4-.1.6a3.63,3.63,0,0,1-.7,1.7l-.3.3.3-.3a3.25,3.25,0,0,0,.7-1.7c0-.2.1-.4.1-.6s.1-.3.1-.4v-.5c-.1-.1-.1-.1,0-.2Zm6.1.4h0c.1,0,.1,0,.1.1v.1c0,.1-.1.1-.1.3s-.2.4-.3.5-.3.5-.4.7l-.3.6c0,.1-.1.1-.1.2v.1h0v.1a.1.1,0,0,1-.1.1l-.1.1-.1.1c-.1,0-.1,0-.2-.1v-.2c0-.1.1-.2.1-.3s.1-.2.2-.3a.76.76,0,0,1,.2-.4.37.37,0,0,0,.1-.3v-.1h0a.1.1,0,0,1,.1-.1c.1-.1.1-.2.2-.3a2.74,2.74,0,0,1,.4-.5,1.87,1.87,0,0,1,.3-.4Zm-7.6.4h0l.1.1c0,.1,0,.2-.2.4a3.19,3.19,0,0,1-.6.7c-.1.2-.4.5-.6.8a2.74,2.74,0,0,1-.4.5s-.1.1-.1,0a.1.1,0,0,1-.1-.1l-.1-.1v-.1c0-.1.1-.1.2-.2A2.18,2.18,0,0,0,21,22a1.47,1.47,0,0,1,.5-.6l.2-.2.1-.1h0V21a.1.1,0,0,1,.1-.1l.2-.2c.1-.1.2-.1.2-.2Zm.2,1.3h0c.1.2,0,.3,0,.4s-.2.3-.3.4-.2.3-.3.3l-.1.1h-.2v-.1c0-.1,0-.1.1-.2h0l.1-.1.5-.5c0-.2,0-.2.2-.3Zm7.6-.1h.1v.2a.1.1,0,0,1-.1.1h0v.1c-.2.3-.1.3-.3.6h-.3v-.1a.37.37,0,0,1,.1-.3c.1-.1.2-.2.2-.3s.2-.3.2-.4c0,.2,0,.1.1.1Zm-7.7,2.2h0l.1.1c0,.1,0,.1.1.2v.2l.4-.1.4-.1h0l.4.3c.1.1.2.1.3.2h.2l.1-.1c.1-.1.2-.1.2-.2a.76.76,0,0,1,.4.1h.6l.1-.1.1-.1H26v.3c0,.1-.2.1-.3.2a.6.6,0,0,1-.4.1h-.4a1.49,1.49,0,0,0-.6.1h-.2a1.69,1.69,0,0,1-.5-.2l-.3-.2-.3.1a.76.76,0,0,1-.4.1l-.1-.1c0-.1-.1-.1-.1-.2a.35.35,0,0,0-.1-.2c0-.1,0-.1.1-.2V24h.1v-.1Zm.4.3Zm-1.5,2.5h.1l.1.1a1.14,1.14,0,0,0,.8.3A1.27,1.27,0,0,0,23,27c.2,0,.4-.1.6,0H24c.1,0,.2,0,.2.1s.1,0,.2.1h.4a3.44,3.44,0,0,0,2-.4.31.31,0,0,1,.2-.1h.2c.2.2.2.3.2.3s0,.1-.1.1h-.2a.31.31,0,0,0-.2.1,4.33,4.33,0,0,1-.5.1,5.07,5.07,0,0,1-.9.2h-1.2c-.2-.1-.3-.1-.4-.2a.6.6,0,0,0-.4-.1h-1.3a1.07,1.07,0,0,1-.6-.2c-.1.1-.1,0-.2,0v-.2h0v-.1Zm1.6,1.2h0a.37.37,0,0,1,.3.1,2.3,2.3,0,0,0,2,.1h0v.2c0,.1-.1.1-.2.2a2.07,2.07,0,0,0-.6.2.37.37,0,0,0-.3.1H24a.37.37,0,0,1-.3-.1c-.1,0-.2-.1-.4-.2s-.2-.1-.3-.2l-.1-.1v-.1c0-.1,0-.1.1-.2-.1.1-.1,0,0,0Zm-4.9,1.2h0v.5a4.33,4.33,0,0,0-.1.5,3.26,3.26,0,0,0-.2,1.2,4.33,4.33,0,0,1-.1.5V32h0v.5a1.6,1.6,0,0,1-.3.8c0,.1-.1.2-.1.4a.76.76,0,0,1-.2.4.1.1,0,0,1-.1.1v.1c0,.1.1.2.2.4a.35.35,0,0,0,.1.2V35h0v.2h.1v.1c0,.1.1.2.2.3s.2.3.3.5a1.38,1.38,0,0,0,.3.4.1.1,0,0,0,.1.1h0a.1.1,0,0,1,.1.1h0a.1.1,0,0,0,.1.1c.1.1.2.2.2.3a30.21,30.21,0,0,0,4.1,3.8c.1.1.2.1.2.2a.1.1,0,0,1,.1.1h.2v.1h0a.1.1,0,0,1,.1.1c.1,0,.2.1.3.2a.76.76,0,0,0,.4.2c.1,0,.2.1.3.1a.35.35,0,0,1,.2.1c.1.1.1.1.2.1h.3a.31.31,0,0,0,.2-.1c.1-.1.2-.2.3-.2a.76.76,0,0,1,.4-.2c.1-.1.2-.2.3-.2a.1.1,0,0,0,.1-.1h0v-.1h.2a.1.1,0,0,0,.1-.1c.1-.1.2-.1.2-.2a25,25,0,0,0,4.1-3.8c.1-.1.2-.2.2-.3l.1-.1h0a.1.1,0,0,1,.1-.1h0l.1-.1a2.19,2.19,0,0,0,.3-.5c.1-.2.2-.3.3-.5s.1-.3.2-.4V35h.1v-.2h0v-.1c0-.1.1-.1.1-.2s.1-.3.2-.4V34a.1.1,0,0,0-.1-.1.52.52,0,0,1-.2-.4c0-.1-.1-.3-.1-.4a4.12,4.12,0,0,1-.3-.8v-.5h0v-.2a4.33,4.33,0,0,1-.1-.5,6,6,0,0,1-.2-1.2c0-.2-.1-.3-.1-.5V29h0a.1.1,0,0,0-.1.1l-.3.3-.1.1H31l-.1.1-.2.2c-.1.1-.3.3-.3.4s-.1.2-.2.2a.31.31,0,0,0-.2.1c-.1,0-.1,0-.3.1a7.37,7.37,0,0,0-.6.5,9.82,9.82,0,0,1-1,.7,3,3,0,0,0-.7.5c-.1.1-.2.2-.3.2a.1.1,0,0,0-.1.1h-.1c-.1,0-.2.1-.3.1s-.1.1-.2.1h-2.7c-.1,0-.1,0-.2-.1a.37.37,0,0,0-.3-.1h-.1a.1.1,0,0,1-.1-.1c-.1-.1-.2-.1-.3-.2s-.6-.4-.7-.5a9.82,9.82,0,0,1-1-.7,3.81,3.81,0,0,1-.6-.5.37.37,0,0,0-.3-.1h-.2l-.2-.2c-.1-.1-.2-.3-.3-.4l-.2-.2-.1-.1H19l-.1-.1-.3-.3c-.4,0-.4,0-.5-.1Zm2.2,1h0v.1c0,.1-.1.1-.1.2v.2h0v-.1a.31.31,0,0,1,.1-.2c.1-.2.1-.2,0-.2Zm1.4.5h0v.2c0,.1-.1.3-.1.4a.31.31,0,0,0-.1.2v.1h0v-.1a.31.31,0,0,1,.1-.2.76.76,0,0,0,.1-.4v-.2Zm-.6,0a.37.37,0,0,1,.1.3h0a.37.37,0,0,0-.1-.3Zm1.3.3a.35.35,0,0,1,.1.2c0,.2.1.3.1.4a.1.1,0,0,0,.1.1h0a.1.1,0,0,0-.1-.1,2,2,0,0,1-.1-.5.1.1,0,0,1-.1-.1Zm10.7,3.9h0l-.1.1h-.1V35a.1.1,0,0,1-.1.1c0,.1-.1.1-.1.2s-.3.5-.4.7a4.62,4.62,0,0,1-.7,1c-.1.1-.2.2-.2.3s-.1.1-.1.2a29.3,29.3,0,0,1-3.7,3.5h0c-.1.1-.4.3-.5.4s-.5.4-.8.6c-.1.1-.3.2-.4.3l-.2.2-.3.3h0a.37.37,0,0,1-.3.1H25c-.1,0-.1-.1-.2-.1l-.3-.3-.2-.2c-.1,0-.2-.1-.3-.1s-.2-.1-.3-.2a8.11,8.11,0,0,1-.8-.6,2.18,2.18,0,0,1-.5-.4h0a29.3,29.3,0,0,1-3.7-3.5.35.35,0,0,1-.1-.2c-.1-.1-.1-.2-.2-.3-.3-.4-.5-.5-.6-.8,0-.1-.1-.2-.1-.3h0c-.1-.1-.1-.3-.2-.4s-.1-.3-.2-.3a.35.35,0,0,0-.1-.2h0a.1.1,0,0,0-.1-.1v-.1H17l-.1-.1h0a.31.31,0,0,0-.2.1,5.92,5.92,0,0,0-.6.4l-.1.1h0l.1.1a.35.35,0,0,1,.1.2c.1.1.2.3.3.4a.76.76,0,0,1,.2.4.1.1,0,0,0,.1.1h0l.1.1a.35.35,0,0,1,.1.2c.1.1.3.4.4.5s.2.3.3.4a.1.1,0,0,0,.1.1h.1v.1h0l.1.1a.1.1,0,0,1,.1.1v.1h0a.1.1,0,0,1,.1.1l.1.1a41.26,41.26,0,0,0,3.9,3.4c.1,0,.1.1.2.1h.1a.1.1,0,0,1,.1.1c.1.1.2.2.3.2a12.5,12.5,0,0,1,1,.9,1.38,1.38,0,0,1,.4.3h.1l.1.1c.1,0,.1.1.2.1h.2l.1-.1c.1-.1.3-.2.4-.3s.9-.6,1.5-1.1c.1-.1.2-.2.3-.2l.1-.1h.1a.35.35,0,0,1,.2-.1,31.68,31.68,0,0,0,3.9-3.4l.1-.1.1-.1h0V38a.1.1,0,0,1,.1-.1.1.1,0,0,0,.1-.1h0v-.1H32l.1-.1c0-.1.2-.2.3-.4s.3-.4.4-.5.1-.1.1-.2l.1-.1h0a.1.1,0,0,1,.1-.1.76.76,0,0,0,.2-.4,1.38,1.38,0,0,1,.3-.4c0-.1.1-.1.1-.2l.1-.1h0l-.1-.1a1.89,1.89,0,0,0-.6-.4c.1.1,0,.1,0,.1Z"/></g></g></g></svg>