<svg xmlns="http://www.w3.org/2000/svg" viewBox="0 0 44.28 41.81"><defs><style>.cls-1{opacity:0;}.cls-2,.cls-3{fill:#fff;}.cls-3{stroke:#fff;stroke-miterlimit:10;}.cls-4{fill:#163d50;}.cls-5{fill:#b69564;}</style></defs><g id="圖層_2" data-name="圖層 2"><g id="圖層_1-2" data-name="圖層 1"><g id="head9"><g id="Group_6665" data-name="Group 6665" class="cls-1"><g id="Group_6604" data-name="Group 6604"><path id="Path_31850" data-name="Path 31850" class="cls-2" d="M16.39,12.7a.1.1,0,0,0,.1-.1v-.1c0-.1-.1-.1-.2,0v.1l.1.1Z"/></g><g id="Group_6605" data-name="Group 6605"><path id="Path_31851" data-name="Path 31851" class="cls-2" d="M16.67,10.76c.2,0,.4-.1.6,0a.35.35,0,0,0,.2-.1v-.1c-.2-.3-1.1-.2-1.1.2C16.17,10.86,16.57,11.06,16.67,10.76Z"/></g><g id="Group_6606" data-name="Group 6606"><path id="Path_31852" data-name="Path 31852" class="cls-2" d="M16.34,8a1,1,0,0,0,.3,1.4,1,1,0,0,0,.9.1,1.61,1.61,0,0,0,.4.7c-.4.4-.1,1.1.7,1.2.1.1.2,0,.3,0s.2-.4,0-.4c-.8,0-1-.5-.8-.8a.76.76,0,0,0,.4-.1h0c.1,0,.1-.1.1-.2s-.1-.1-.2-.1-.4,0-.6-.6c.1-.1.3-.3.3-.4s-.5-.2-.6.1c-.6.3-1.1-.2-.9-1,0-.1,0-.1-.1-.1C16.44,8,16.34,8,16.34,8Z"/></g><g id="Group_6607" data-name="Group 6607"><path id="Path_31853" data-name="Path 31853" class="cls-2" d="M19.21,11.64a.1.1,0,0,0,.2,0,.68.68,0,0,1,.6-.4.55.55,0,0,0-.4.6c0,.1.1.1.2.1a.1.1,0,0,0,.1-.1c.1-.2.1-.4.5-.3.1,0,.2.1.3-.1s-.1-.2-.3-.3h.2a.43.43,0,0,1,.4.4h0c0,.3-.3.8-.1.9H21c.5-.3.6-1.4-.2-1.6C20.21,10.74,19.21,10.84,19.21,11.64Z"/></g><g id="Group_6608" data-name="Group 6608"><path id="Path_31854" data-name="Path 31854" class="cls-2" d="M19.62,12.9c.1,0,.2,0,.2-.1a.48.48,0,0,0,0-.7h-.3c-.1,0-.1.1-.1.2a.1.1,0,0,0,.1.1v.1C19.22,12.6,19.42,12.9,19.62,12.9Z"/></g><g id="Group_6609" data-name="Group 6609"><path id="Path_31855" data-name="Path 31855" class="cls-2" d="M19.06,13.57a1.28,1.28,0,0,0,1.7-.5V13c-.1,0-.1,0-.3.1a1.22,1.22,0,0,1-.9.3.37.37,0,0,1-.3-.1h-.1a.22.22,0,0,0-.2.2A.1.1,0,0,0,19.06,13.57Z"/></g><path id="Path_31856" data-name="Path 31856" class="cls-2" d="M17.7,11.49a.35.35,0,0,1-.2-.1,1,1,0,0,0-.9.2.3.3,0,0,0,0,.4h.1a.6.6,0,0,0,.1.4.3.3,0,0,0,.4,0h0v-.1h0v-.4a.86.86,0,0,1,.6-.3c-.1.1-.1.1-.1-.1Z"/><g id="Group_6610" data-name="Group 6610"><path id="Path_31857" data-name="Path 31857" class="cls-2" d="M16.69,12.59a.1.1,0,0,0,0,.2c.1,0,.2,0,.2-.1v-.1C16.89,12.69,16.79,12.59,16.69,12.59Z"/></g><g id="Group_6611" data-name="Group 6611"><path id="Path_31858" data-name="Path 31858" class="cls-2" d="M7.31,16.77c0-.2-.3-.3-.4-.3s-.2-.6-.3-.6-.2.3-.2.4a.75.75,0,0,0,.5.7A.3.3,0,0,0,7.31,16.77Z"/></g><g id="Group_6612" data-name="Group 6612"><path id="Path_31859" data-name="Path 31859" class="cls-2" d="M7.2,18.11h0c-.1-.1.1-.2.1-.4s-.3-.3-.3-.5a.35.35,0,0,0-.1-.2c-.1,0-.1,0-.2.1s0,.3.2.5.1.1.1.2c-.1.4-.1.5.2.7a.19.19,0,0,0,.3,0v-.1C7.5,18.31,7.3,18.21,7.2,18.11Z"/></g><g id="Group_6613" data-name="Group 6613"><path id="Path_31860" data-name="Path 31860" class="cls-2" d="M15.33,18.52c.1.1.2.2.3.2a.55.55,0,0,0,.5-.3.37.37,0,0,0-.1-.3h-.2c-.1.1-.1.1-.3,0a.37.37,0,0,0-.3.1C15.23,18.42,15.23,18.52,15.33,18.52Z"/></g><g id="Group_6614" data-name="Group 6614"><path id="Path_31861" data-name="Path 31861" class="cls-2" d="M14.64,16.6a17.85,17.85,0,0,0-4,.1.1.1,0,0,0-.1.1c0,.1.4,0,2.7,0a3.16,3.16,0,0,1,2.1.4h.1s.1-.1,0-.1C15.54,17,15.24,16.7,14.64,16.6Z"/></g><g id="Group_6615" data-name="Group 6615"><path id="Path_31862" data-name="Path 31862" class="cls-2" d="M28.57,28.6a11.26,11.26,0,0,1-3.4.7.1.1,0,1,0,0,.2c2,.7,6.7-1.3,7.3-5,0-.1-.2-.2-.2,0s-.1.2-.1.3A7.81,7.81,0,0,1,28.57,28.6Z"/></g><g id="Group_6616" data-name="Group 6616"><path id="Path_31863" data-name="Path 31863" class="cls-2" d="M35.31,39.64a.1.1,0,0,0,0,.2.52.52,0,0,1,.2.4.1.1,0,0,0,.1.1C35.71,40.34,35.71,39.74,35.31,39.64Z"/></g><g id="Group_6617" data-name="Group 6617"><path id="Path_31864" data-name="Path 31864" class="cls-2" d="M35.07,40.11c0-.1-.2-.1-.2-.2-.5-.8-.9-.9-2-2.1a4.91,4.91,0,0,0-2.7-1.3,9.36,9.36,0,0,1-1.6-.4,1.42,1.42,0,0,0-.6-.2c-.3-.1-.6-.1-.8-.2a4.35,4.35,0,0,1-.7-.4c-.2-.1-.3-.3-.5-.5l-.3-.3c-.2,0,0,.3,0,.4a2.34,2.34,0,0,0,.7.7.52.52,0,0,0,.4.2,1.42,1.42,0,0,0,.6.2c.4.1.8.3,1.1.4a8.33,8.33,0,0,0,1.5.4c3.2.8,2.2,1.3,3.8,2.3a6.89,6.89,0,0,1,1.1,1.3c.2.2.3.1.3-.1A.35.35,0,0,0,35.07,40.11Zm-9.5-5.6Z"/></g><g id="Group_6618" data-name="Group 6618"><path id="Path_31865" data-name="Path 31865" class="cls-2" d="M36.3,39.23a.85.85,0,0,0,0-.7c-.2-.7-1-1-1.2-1.6a1.73,1.73,0,0,1,.1-1c.3-1-.2-1.7-1.5-1.3-.1,0-.1.1-.1.2s.1.1.2.1c.7-.1,1.2-.1,1.2.6s-.4,1.1-.2,1.7c.3.8,1.5.9,1,2.3,0,.1-.1.2-.2.3s.1.1.2.2a.73.73,0,0,1-.2.6c-.1.1-.1.1-.2.1s-.1.3.1.3.1-.1.3-.2l.2-.2c0,.1,0,.1.1.1h.1a.61.61,0,0,0,.3-.7A1.55,1.55,0,0,0,36.3,39.23Zm-.2,1.1a.6.6,0,0,0,.1-.4c0-.1,0-.1-.1-.3a.1.1,0,0,1,.1-.1.66.66,0,0,1,.1.6l-.2.2Z"/></g><g id="Group_6619" data-name="Group 6619"><path id="Path_31866" data-name="Path 31866" class="cls-2" d="M34.53,35.87c-.4.6-.4,1-.3,1.1a.1.1,0,0,0,.1-.1v.3a.1.1,0,0,0,.1.1c.1,0,.1-.1.2-.3h.1v-.2a.1.1,0,0,0-.1-.1h0a4.33,4.33,0,0,1,.1-.5c0-.1,0-.1-.1-.1V36c0-.1,0-.1-.1-.1Z"/></g><g id="Group_6620" data-name="Group 6620"><path id="Path_31867" data-name="Path 31867" class="cls-2" d="M23,14.28a.88.88,0,0,1-1.3-.2,1.27,1.27,0,0,1-.1-.6c0-.1,0-.1-.1-.1a.1.1,0,0,0-.1.1,1.16,1.16,0,0,0,.6,1.4c.1,0,.2.1.3.1.7.1,1-.5.9-.6s-.1-.2-.2-.1Z"/></g><g id="Group_6621" data-name="Group 6621"><path id="Path_31868" data-name="Path 31868" class="cls-2" d="M30.89,24.06a6.9,6.9,0,0,1-3,1.4c-.6.1-1.2.2-1.9.3a10.55,10.55,0,0,0-1.9.5h.1a24.42,24.42,0,0,1,3.9-.6,5.37,5.37,0,0,0,3-1.5V24A.31.31,0,0,1,30.89,24.06Z"/></g><g id="Group_6622" data-name="Group 6622"><path id="Path_31869" data-name="Path 31869" class="cls-2" d="M41.29,23v.1h.1a.45.45,0,0,1,.5,0l.3.3s.1.1.1,0v-.1C42.49,22.94,41.89,22.54,41.29,23Z"/></g><g id="Group_6623" data-name="Group 6623"><path id="Path_31870" data-name="Path 31870" class="cls-2" d="M41.91,22.68a.22.22,0,0,1,.2.2.1.1,0,0,0,.2,0h0c-.1-.3-.6-.4-.6-.2C41.81,22.58,41.81,22.68,41.91,22.68Z"/></g><g id="Group_6624" data-name="Group 6624"><path id="Path_31871" data-name="Path 31871" class="cls-2" d="M37.48,21.3a1.15,1.15,0,0,0-.6.9H37c.4-1,.8-.9,1.7-.3a1.57,1.57,0,0,0,1.3.4,1.37,1.37,0,0,1,1.2.4c.1.1.2-.1.1-.2A2.11,2.11,0,0,0,40,22a2.39,2.39,0,0,1-1.4-.5A1.39,1.39,0,0,0,37.48,21.3Z"/></g><g id="Group_6625" data-name="Group 6625"><path id="Path_31872" data-name="Path 31872" class="cls-2" d="M38.51,22.24h-.1v.1c.4.3,1,.5,1,.3a.1.1,0,0,0-.1-.1.35.35,0,0,1-.2-.1h0A2.52,2.52,0,0,1,38.51,22.24Z"/></g><g id="Group_6626" data-name="Group 6626"><path id="Path_31873" data-name="Path 31873" class="cls-2" d="M37.57,23.14h0c-.1-.2-.4-.1-.5.1s0,.4.2.4.1-.1.1-.2C37.27,23.14,37.57,23.24,37.57,23.14Z"/></g><g id="Group_6627" data-name="Group 6627"><path id="Path_31874" data-name="Path 31874" class="cls-2" d="M34.12,25.39a4.28,4.28,0,0,1,2.7-1.9.67.67,0,0,0,.3-.8c-.1-.2-.2-.1-.2,0,0,.8-.9.8-1.6,1.2s-1.4,1.4-1.3,1.6A.1.1,0,0,0,34.12,25.39Z"/></g><g id="Group_6628" data-name="Group 6628"><path id="Path_31875" data-name="Path 31875" class="cls-2" d="M34.14,25.5a3.61,3.61,0,0,1-.4.5c.2-.5.3-.5.2-.6h-.1a1.76,1.76,0,0,0-.4.5,2.09,2.09,0,0,1,.4-.6v-.1h0c-.1,0-.3.2-.4.4-.3.6-.1.7-.1.6-.2.6,0,.7.1.6,0,.3.1.3.2.3,0,.2.1.2.2.2A2,2,0,0,1,34.14,25.5Z"/></g><g id="Group_6629" data-name="Group 6629"><path id="Path_31876" data-name="Path 31876" class="cls-2" d="M42.25,23.67h0c-.9-.6-2.2.1-3,.2-1.6.3-1.6,3.1-3.4,4.4A9.06,9.06,0,0,1,31,29a12.84,12.84,0,0,0,2.1-4.6,3,3,0,0,1,.8.4c.1,0,.5-.1-.7-.6a2.92,2.92,0,0,0-.9-.2,2.16,2.16,0,0,0-1.8-2.5h-.3a.1.1,0,0,0,0,.2c.1,0,.2.1.3.1a1.79,1.79,0,0,1,.7.5,1.84,1.84,0,0,1,.5,1.6v.4c.1.1.3.1.5-.1a.1.1,0,0,1,.1-.1c.3,0,.5.1.8.1-.1.2-.2.6-.5,1.4-1.3,3.3-4,6.2-7.5,6.5a.37.37,0,0,1,.1.3,8.09,8.09,0,0,0,4.4-2c.1,1.2-.5,1.8-.1,1.8s.5-1.2.4-2a9,9,0,0,0,.9-1h.1c2.3.4,5.3-.3,6.1-1.4,1.8-2.7,1.1-3.2,2.7-3.7a4.6,4.6,0,0,1,2.6-.4Z"/></g><g id="Group_6630" data-name="Group 6630"><path id="Path_31877" data-name="Path 31877" class="cls-2" d="M32.2,33.67c-1.4-1.2-2.9-1.3-3-1.1h0v.1l.1.1a2.54,2.54,0,0,1,1.2.2A6.18,6.18,0,0,1,33,35l.2.2c0,.1.1.1.2,0h0A7.21,7.21,0,0,0,32.2,33.67Z"/></g><g id="Group_6631" data-name="Group 6631"><path id="Path_31878" data-name="Path 31878" class="cls-2" d="M21.32,15.8c.2,0,.4.1.4-.1s-.7-.6-1.5-.3a.76.76,0,0,1-.5.2,1.79,1.79,0,0,0,.5-.7c0-.1-.1-.2-.2,0a2.22,2.22,0,0,1-1.3.8c-.9.2-2.5-.1-2.3-1,0-.1.1-.1.2-.2s.2-.2.2-.2a1.44,1.44,0,0,1,.3-.2.37.37,0,0,0,.1-.3l-.1-.1c-.1,0-.2,0-.2.1s-.2.1-.3.2-.4.2-.7,0a.52.52,0,0,0-.1-.8h-.1a.22.22,0,0,1-.2-.2c-.1-.3.3-.4.5-.6.6-.7-.2-1.6,0-2.3.1-.3.3-.3.2-.5s-.6.1-.6.7a3.59,3.59,0,0,0,.2,1.1c.2,1-.6.8-.7,1.5,0,.4.4.6.4.8s-.3.2-.2.4.3.3.5.4c-.2.1-.1.4.2.5.1.7,1,1,1.7,1.1-2.2-.1-7.4-.5-8.1-.5-.3-.2-.2-.3-.2-.4s-.5,0-.2.4.8.5.7,1c0,.1,0,.2.1.2h.1c.1,0,.1-.1.1-.2a.78.78,0,0,0-.2-.8c3.7.3,6.8.5,6.8.5a3.55,3.55,0,0,0-.9.4s-.1.1,0,.1c.1.2.8-.3.9-.3.9-.3,2-.1,2.9-.5A3.08,3.08,0,0,1,21.32,15.8Z"/></g><g id="Group_6632" data-name="Group 6632"><path id="Path_31879" data-name="Path 31879" class="cls-2" d="M10.55,19a5.64,5.64,0,0,1,1.2.4,7,7,0,0,0,3.2.5,1.38,1.38,0,0,1,1.1.1,4.45,4.45,0,0,0,2.3.3,4.08,4.08,0,0,1,1.9.1c.2,0,.4-.3-.3-.6a2.85,2.85,0,0,0-1.3,0,4.44,4.44,0,0,1-2.3-.2,4.4,4.4,0,0,0-1-.2,10.48,10.48,0,0,1-2.5-.1,16.69,16.69,0,0,1-1.8-.5,2.35,2.35,0,0,0-.8-.2,1.7,1.7,0,0,0-.7.1,3,3,0,0,1-1.6-.1.37.37,0,0,0-.3-.1c-.2.1-.2.2,0,.4a.9.9,0,0,0,.5.1C9.15,19.14,9.15,18.94,10.55,19Z"/></g><g id="Group_6633" data-name="Group 6633"><path id="Path_31880" data-name="Path 31880" class="cls-2" d="M7.7,19.38Z"/></g><g id="Group_6634" data-name="Group 6634"><path id="Path_31881" data-name="Path 31881" class="cls-2" d="M21,25.93h0c-.5.6-3.4,5.4-3.4,5.4a.77.77,0,0,0,.2.3c.2-.3,2.6-4.2,3.4-5.5V26A.31.31,0,0,0,21,25.93Z"/></g><path id="Path_31882" data-name="Path 31882" class="cls-2" d="M30.2,21.79a3.77,3.77,0,0,1-.9,1.5,1.75,1.75,0,0,0-1.4-.7v.1c0,.1,0,.1.2.1a1.83,1.83,0,0,1,1,.7c-1.6,1.4-4.3,1.2-6.1,2.5-.1.1-.2.3-.3.4a.35.35,0,0,1-.2-.1,3.81,3.81,0,0,1-1.3-.9,11.5,11.5,0,0,1-2.1-2.3,8,8,0,0,1-.8-1.6h-.1c-.1,0,0,0,0,.1a9.75,9.75,0,0,0,1.4,2.9,7.21,7.21,0,0,0,2.5,2.1c.3.1.5.3.8.4.1.1.3.1.4.2a.9.9,0,0,0,.5.1c.1,0,.2-.1.1-.2V27a.52.52,0,0,0-.4-.2c-.1-.1-.2-.1-.4-.1s-.3-.1-.4-.2c2.1-1.7,4.5-1.1,6.5-2.7.1.2.2.4.3.3l.1-.1a.52.52,0,0,0-.2-.4,3.92,3.92,0,0,0,.8-1,1.45,1.45,0,0,0,.2-.7C30.5,21.69,30.3,21.69,30.2,21.79Z"/><g id="Group_6635" data-name="Group 6635"><path id="Path_31883" data-name="Path 31883" class="cls-2" d="M15.28,10a.22.22,0,0,0,.2-.2c0-.1,0-.1-.1-.2a1,1,0,0,1-.6-.8.9.9,0,0,1,.1-.5.78.78,0,0,1,.4-.4c.1,0,.1-.1.1-.2a.1.1,0,0,0-.1-.1h-.2a.85.85,0,0,1,1.1-.2.1.1,0,0,0,.1-.1v-.1c0-.1-.1-.1-.2-.1-1-.3-1.6.7-1.4.9h.1a1.13,1.13,0,0,0,.3,1.6C15.08,9.86,15.18,10,15.28,10Z"/></g><g id="Group_6636" data-name="Group 6636"><path id="Path_31884" data-name="Path 31884" class="cls-2" d="M20.52,6.21h0c0,.1,0,.1.1.1,1.6-.9,2.6.3,2,1-.1.1.1.3.2.2a.62.62,0,0,1,.8.1c.1.2.2.4,0,.6,0,.1,0,.2.1.2h.2a.37.37,0,0,1,.5.2v.3c-.1.5-.6.6-1,.8-.1,0-.1.1-.1.2l.1.1a1.14,1.14,0,0,0,.8-.3c.8-.5.5-1.6-.2-1.6a.9.9,0,0,0-.7-1H23C23.22,6.31,22.22,5.21,20.52,6.21Z"/></g><g id="Group_6637" data-name="Group 6637"><path id="Path_31885" data-name="Path 31885" class="cls-2" d="M23.76,10.67h-.1v.1a.65.65,0,0,1,.2.9.81.81,0,0,1-.9.4c-.1,0-.1.1-.1.2a.1.1,0,0,0,.1.1.92.92,0,0,0,1-.1,1.06,1.06,0,0,0,.2-1.4C24,10.77,23.86,10.77,23.76,10.67Z"/></g><path id="Path_31886" data-name="Path 31886" class="cls-2" d="M32.8,2.69a2,2,0,0,0,.3-1.5c0-.1-.1-.2-.2-.1a.22.22,0,0,0-.2.2,1.27,1.27,0,0,1-.7.9,2.66,2.66,0,0,1-1.2.3h-.7l-.6-.3a3.51,3.51,0,0,0-.8-.5H29a2.84,2.84,0,0,0,1.3-.4,2.19,2.19,0,0,0,1-.9c.1-.2-.2-.2-.2-.1a1.78,1.78,0,0,1-.8.7,1.42,1.42,0,0,1-.6.2,1.48,1.48,0,0,1-.7.1,3,3,0,0,1-1.3-.5,2.74,2.74,0,0,0-1.3-.2,4,4,0,0,0-1.5.3l-.1.1a3.77,3.77,0,0,0-1.5.9,2.73,2.73,0,0,0-.7,1.3v.7a.52.52,0,0,0,.2.4.76.76,0,0,0-.2.4,1.66,1.66,0,0,0-2.1.3,1.81,1.81,0,0,0-2.3-.1c-.3.2-.7.6-.6.9a1.5,1.5,0,0,0-1.5,1.3.1.1,0,0,0,.1.1h0a.1.1,0,0,0,.1-.1c.4-1.2,2-1.3,1.9-.5,0,.1,0,.1.1.1h.1c.3-.2.1-.8-.5-.9A1.74,1.74,0,0,1,20.2,5c.1.1.2.1.3.2v.1c.1.1.3-.2.4-.3a1.55,1.55,0,0,1,2.1.2.76.76,0,0,1,.2.4,1,1,0,0,1,1.2.1.62.62,0,0,1,.2.7c-.1.1-.2.1-.3.2v.1a.37.37,0,0,0,.3.1,3.7,3.7,0,0,1,1.1.5.37.37,0,0,0-.1.3l.1.1c.5.2,1,.7.9.8a.76.76,0,0,1-.4-.2c-.2-.2-.4.1-.3.3.6,1.2.9,2.3-.2,3.2-.1.1-.1.2,0,.2l.1.1a.78.78,0,0,1,.4.4.64.64,0,0,1,0,.6c-.3.6-.9.6-1.1.7s-.2,0-.2.1,0,.2.1.2.4.5,0,.6h-.3c-.1-.1-.3.1-.2.3-.5.5-1,.1-.9-.2v-.1h-.1c-.2.1-.3.3-.4.4a.92.92,0,0,1-1,.1l-.2-.2c-.1,0-.1,0-.1.1a.78.78,0,0,0,.8.6c.2,0,.5,0,.6-.2.4.4,1.4.2,1.5-.4a.66.66,0,0,0,.8-.5.6.6,0,0,0-.1-.4c1.2-.4,1.4-1.6.7-2.2a1,1,0,0,0,.4-.5,3,3,0,0,0-.1-2.6c.4,0,.9-.5-.1-1.3,0-.3-.9-.9-1.6-1,.3-.4.1-.9-.4-1.2l.1-.1a.76.76,0,0,0,.2-.5.1.1,0,0,0,.1-.1c0-.2.1-.3.3-.4s.4,0,.6,0a5,5,0,0,1,1.3.5c.4.2.7.5,1.1.7a1.94,1.94,0,0,0,1.3.3,1.23,1.23,0,0,0,1.1-.7v-.2a.14.14,0,0,0-.2,0,1,1,0,0,1-.9-.1h1.3a2.09,2.09,0,0,0,1.6-1.1,5.64,5.64,0,0,0,.4-1.2Zm-9.4,2.6c.1.1.1.1.2.1h-.1A.1.1,0,0,1,23.4,5.29Zm.7.1h.3v.1A.77.77,0,0,0,24.1,5.39Zm8.3-2.7a2.38,2.38,0,0,1-1.1.6,4.64,4.64,0,0,1-2.6-.1,5.39,5.39,0,0,1-1.3-.7c-.2-.1-.4.2-.2.3a5.23,5.23,0,0,0,2.7,1,3.18,3.18,0,0,0,1.4-.2A2.28,2.28,0,0,0,32.5,3a2.75,2.75,0,0,1-.8,1.5,1.14,1.14,0,0,1-.8.3h-1a3.59,3.59,0,0,1-1.1-.2c-.2-.1-.3.2-.1.3a2.93,2.93,0,0,0,1.6.7,1.08,1.08,0,0,1-.7.3,2.45,2.45,0,0,1-1.2-.4,7.46,7.46,0,0,0-1.2-.7,5.78,5.78,0,0,0-1.4-.5,1.48,1.48,0,0,0-.7.1.55.55,0,0,0-.3.5c-.2,0-.3-.1-.5-.2s-.3-.2-.5-.3l-.2-.2-.1-.1a.76.76,0,0,1-.2-.4v-.6a2.07,2.07,0,0,1,.6-1,6.07,6.07,0,0,1,1-.7,2.77,2.77,0,0,1,1.3-.3,2.88,2.88,0,0,1,1.3.1,2.38,2.38,0,0,1,1.1.6c.4.2.7.5,1.1.7a4.88,4.88,0,0,0,.7.3h.7a3.26,3.26,0,0,0,1.4-.4c.1-.1.3-.2.4-.3C32.7,2.29,32.6,2.49,32.4,2.69Z"/><g id="Group_6638" data-name="Group 6638"><path id="Path_31887" data-name="Path 31887" class="cls-2" d="M17.2,3.83a19.11,19.11,0,0,0-5.4,3,16.73,16.73,0,0,0-4.2,5,5.28,5.28,0,0,0-.4,2.5,1.93,1.93,0,0,0,.3,1s0,.1-.3,0a.78.78,0,0,1,.4.4,3.08,3.08,0,0,0,1,.1H9c0-.3-.1-.2-1.1-.2a1.27,1.27,0,0,0-.1-.6,3.59,3.59,0,0,1,.1-2.7c.8-2.1,4.3-6.4,9.5-7.9a.22.22,0,0,0,.2-.2c0-.1,0-.3-.2-.3S17.3,3.83,17.2,3.83Z"/></g><g id="Group_6639" data-name="Group 6639"><path id="Path_31889" data-name="Path 31889" class="cls-2" d="M18.36,4v.6c0,.3.4.2.3-.1s-.1-.6-.3-.5l.1-.1c.1,0,.1,0,.2-.1s-.3-.3-.2-.7c0-.1-.1-.2-.2-.1v.1c0-.1-.1-.1-.2,0h0a.75.75,0,0,0-.1.5C18.06,3.8,18.16,4.1,18.36,4Z"/></g><g id="Group_6640" data-name="Group 6640"><path id="Path_31890" data-name="Path 31890" class="cls-2" d="M16.6,31.33c-1.4-1.2-3-2.5-4.5-4A16.68,16.68,0,0,1,7.8,21a1.7,1.7,0,0,1,0-1c.1-.1,0-.3,0-.4l-.1-.1c-.1,0-.2,0-.3.2a3.28,3.28,0,0,0,.4,2.7c1.9,3.8,5.19,6.6,8.5,9.3a.13.13,0,0,0,.19,0c.11,0,.2-.1.2-.3C16.69,31.43,16.69,31.33,16.6,31.33Z"/></g><g id="Group_6641" data-name="Group 6641"><path id="Path_31891" data-name="Path 31891" class="cls-2" d="M17.36,31.94l.1-.1a.22.22,0,0,0-.3-.3h-.1c-.1-.1-.3,0-.4.2s-.2.2-.2.3a.1.1,0,0,0,.1.1c.1,0,.1,0,.2-.1,0,.1,0,.1-.1.2s0,.2.1.2h0C17.06,32.54,17.06,32.24,17.36,31.94Z"/></g><g id="Group_6642" data-name="Group 6642"><path id="Path_31892" data-name="Path 31892" class="cls-2" d="M17.63,32.17c0-.1,0-.2-.1-.2h-.1a.1.1,0,0,0-.1.1l-.2.2c0,.1,0,.1.1.1h.1c.1,0,.1,0,.2-.2C17.53,32.27,17.53,32.27,17.63,32.17Z"/></g><g id="Group_6643" data-name="Group 6643"><path id="Path_31893" data-name="Path 31893" class="cls-2" d="M17.65,32.34a.22.22,0,0,0-.2.2h0c0,.2.2.3.3.7v.5c0,.2,0,.3.1.4l.1.1c.3,0,.4-.5.3-1A1.15,1.15,0,0,0,17.65,32.34Z"/></g><path id="Path_31894" data-name="Path 31894" class="cls-2" d="M25.7,34.09a20,20,0,0,1-1-2.6c-.1-.4-.2-.9-.3-1.4a1.7,1.7,0,0,1-.1-.7c0-.2-.1-.4-.1-.7s-.1-.5-.1-.8a2.2,2.2,0,0,0-.1-.8h0v2.1a1.7,1.7,0,0,0,.1.7,14.34,14.34,0,0,0,.7,2.8l.6,1.5C25.5,34.39,25.8,34.29,25.7,34.09Z"/><path id="Path_31895" data-name="Path 31895" class="cls-3" d="M8.5,15.89a.22.22,0,0,1-.2.2H8L7.5,16h.3"/><path id="Path_31896" data-name="Path 31896" class="cls-4" d="M16.8,15.79h-.2l-2.9-.1c0-.2-.2-.3-.3-.2a7.72,7.72,0,0,0-1.5.2.1.1,0,0,0-.1.1h0c-.2,0-.3-.1-.5-.1l-.1-.1c-.2-.1-.4-.3-.6-.3h-.3c-.1,0-.3.1-.3.2s0,.3.1.3h0a.22.22,0,0,0,.2.2h.1c.1.1.2.1.2.2s.3.1.4,0,.1,0,.2.1h.1a4.25,4.25,0,0,0,1.1.2c.1,0,.2,0,.2-.1h0c.8.1,1.7.1,2.5.2a5.7,5.7,0,0,0,1.3-.1h.2a.27.27,0,0,0,.3-.3C17.1,15.89,17,15.79,16.8,15.79Z"/><g id="Group_6647" data-name="Group 6647"><path id="Path_31897" data-name="Path 31897" class="cls-2" d="M.3,14.91a.45.45,0,0,0-.3.3.6.6,0,0,0,.1.4,2.18,2.18,0,0,0,.8.5,3.3,3.3,0,0,0,1.4,0H1.6A1.27,1.27,0,0,1,1,16a2.18,2.18,0,0,1-.8-.5.25.25,0,0,1,.1-.4.45.45,0,0,1,.5,0,.22.22,0,0,1,.2.2c.1.1.1.2.2.2a2.19,2.19,0,0,0,.5.3,1.42,1.42,0,0,0,.6.2h.1v-.1a4.54,4.54,0,0,1-.8-.2,1.76,1.76,0,0,1-.5-.4c-.1-.2-.3-.3-.4-.4a.35.35,0,0,0-.2-.1C.4,14.81.3,14.81.3,14.91Z"/><path id="Path_31898" data-name="Path 31898" class="cls-2" d="M1.4,14.31c-.2.2-.1.4.1.5l.3.3a.76.76,0,0,0,.5.2h0c-.1-.1-.3-.1-.4-.2l-.3-.3a.22.22,0,0,1-.2-.2c0-.1,0-.2.1-.2s.2-.1.3.1a.37.37,0,0,0,.1.3.76.76,0,0,0,.2.4c0,.1.1.1.2.2s.1.1.2.1h0c0-.1-.1-.1-.2-.2s-.1-.2-.2-.2S2,15,2,14.91v-.2a.35.35,0,0,0-.1-.2C1.6,14.21,1.5,14.31,1.4,14.31Z"/><path id="Path_31899" data-name="Path 31899" class="cls-2" d="M.2,15h0c-.1,0-.1,0-.1.1L.2,15c0,.2.2.2.3.3h0a.75.75,0,0,0-.5-.1v.1H0c.1.1.2.1.3.2H.1s-.1,0,0,.1a1.42,1.42,0,0,0,.6.2v.1H.8a1.27,1.27,0,0,0,.6.1h.3v-.1h.1c.1,0,.1-.1,0-.1a.9.9,0,0,0-.5-.1c-.1,0-.1-.1-.2-.1h0a.35.35,0,0,0-.2-.1.1.1,0,0,1-.1-.1c0-.1-.1-.1-.1-.2A.37.37,0,0,0,.2,15Zm0,.3a.37.37,0,0,1,.3.1c.1,0,.1.1.2.1l.1.1h0c-.1,0-.1-.1-.2-.1A.76.76,0,0,0,.2,15.31Zm1,.4Zm.3.2h0Zm-1-.4h0l.1.1-.1-.1Zm.1.2h0Z"/><path id="Path_31900" data-name="Path 31900" class="cls-2" d="M1.3,14.51h0v.1h0a.22.22,0,0,0,.2.2h0a2.09,2.09,0,0,0,.6.4h.1v-.1a.1.1,0,0,1-.1-.1h.2c-.2,0-.3-.2-.4-.3h0l-.4-.1h0c.1,0,.1,0,.1-.1s-.1-.1-.1,0H1.4c0-.1,0-.1-.1,0Zm.3.2a.1.1,0,0,0,.1.1.1.1,0,0,1-.1-.1c-.1,0-.2,0-.2-.1.1.1.1.1.2.1Z"/><g id="Group_6645" data-name="Group 6645"><g id="Group_6644" data-name="Group 6644"><path id="Path_31901" data-name="Path 31901" class="cls-2" d="M2.89,16.27h0V17a.55.55,0,0,0,.3.5.37.37,0,0,0,.3.1c.1,0,.1-.1.2-.2h.4a.76.76,0,0,0,.4-.1c.1,0,0-.1-.1-.1s-.2.1-.3.1h-.3c-.1,0-.1.1-.2.1l-.1.1h-.1a2.19,2.19,0,0,1-.3-.5,6.37,6.37,0,0,0-.2-.7Z"/><path id="Path_31902" data-name="Path 31902" class="cls-2" d="M4.49,17.17l.1-.1h-.3s-.1.1,0,.1h.2Z"/></g><path id="Path_31903" data-name="Path 31903" class="cls-2" d="M16.89,13.16c.1.3.3.7.4,1a4.1,4.1,0,0,1,.1,1.1,4.1,4.1,0,0,1-.1,1.1,1.27,1.27,0,0,1-.1.6.37.37,0,0,1-.1.3c0,.1-.1.1-.1.2h0l.2-.2c.1-.1.1-.1.1-.2s.1-.4.1-.6a4.48,4.48,0,0,0,.1-1.1,4.48,4.48,0,0,0-.5-2.3l-.1-.1Z"/><path id="Path_31904" data-name="Path 31904" class="cls-2" d="M3.39,15.26c0,.1.1.2.1.3a.37.37,0,0,1,.1.3,1.27,1.27,0,0,1,.1.6h0a.64.64,0,0,0,0-.6.37.37,0,0,0-.1-.3c0-.1-.1-.2-.2-.3S3.29,15.26,3.39,15.26Z"/><path id="Path_31905" data-name="Path 31905" class="cls-2" d="M3.69,16.86a.37.37,0,0,1-.1.3.1.1,0,0,1-.1.1v.1h0c.1,0,.1-.1.2-.2s.1-.1,0-.3Z"/><path id="Path_31906" data-name="Path 31906" class="cls-2" d="M3.09,15.66v1.1c0,.1.1.2.1.4h.2v-.9c0-.3,0-.6-.3-.6C3.19,15.56,3.09,15.56,3.09,15.66Z"/><path id="Path_31907" data-name="Path 31907" class="cls-2" d="M3.09,15.66a.64.64,0,0,0,0,.6,2.92,2.92,0,0,0,.2.9h.1V17h0v-.7c0-.3,0-.6-.3-.6Zm.2.4Zm0-.1h0a.1.1,0,0,1-.1-.1A.1.1,0,0,1,3.29,16Z"/><path id="Path_31908" data-name="Path 31908" class="cls-2" d="M9,13.66c.1.3.2.7.3,1a4.48,4.48,0,0,1,.1,1.1c0,.4.1.7.1,1.1V18h.1a3.4,3.4,0,0,0,.1-1c0-.4-.1-.8-.1-1.2s-.1-.8-.1-1.2a1.69,1.69,0,0,0-.3-1C9.09,13.46,9,13.56,9,13.66Z"/><path id="Path_31909" data-name="Path 31909" class="cls-2" d="M13.19,13.46c.1.2.2.3.2.5a1.09,1.09,0,0,1,.1.5,4.1,4.1,0,0,1,.1,1.1,5.63,5.63,0,0,1,0,1.3c0,.2-.1.4-.1.6s0,.2-.1.2h.1v-.1c0-.1.1-.2.1-.3a6.6,6.6,0,0,0,.1-1.4c0-.4-.1-.9-.1-1.3,0-.2-.1-.4-.1-.6s-.1-.4-.2-.6c0,0-.1-.1-.1.1Z"/><path id="Path_31910" data-name="Path 31910" class="cls-2" d="M4.29,16.66h0l.1.1h.1c0-.1-.1-.2-.2-.1Z"/><path id="Path_31911" data-name="Path 31911" class="cls-2" d="M4.49,16.46c.1.1.2.2.3.2h0c-.1-.1-.2-.2-.3-.2Z"/><path id="Path_31912" data-name="Path 31912" class="cls-2" d="M4.69,16.36a2.18,2.18,0,0,0,.5.4s.1-.1,0-.1a2.19,2.19,0,0,1-.5-.3h0C4.59,16.26,4.59,16.36,4.69,16.36Z"/><path id="Path_31913" data-name="Path 31913" class="cls-2" d="M5,16.36H5c.1,0,.2.2.2.2l.2.2h0c-.1-.1-.1-.2-.2-.3S5.09,16.26,5,16.36Z"/><path id="Path_31914" data-name="Path 31914" class="cls-2" d="M5.29,16.26h0c.1,0,.1.1.2.1a.35.35,0,0,1,.1.2l.3.3h0l-.2-.2-.2-.2C5.39,16.36,5.39,16.16,5.29,16.26Z"/><path id="Path_31915" data-name="Path 31915" class="cls-2" d="M5.69,16.36a1.79,1.79,0,0,0,.7.5h0c-.2-.1-.4-.3-.7-.5Z"/><path id="Path_31916" data-name="Path 31916" class="cls-2" d="M6.09,16.46a1.79,1.79,0,0,0,.7.5s.1-.1,0-.1a4.35,4.35,0,0,0-.7-.4Z"/><path id="Path_31917" data-name="Path 31917" class="cls-2" d="M6.39,16.36l.3.3.4.4h0l-.4-.4a.27.27,0,0,0-.3-.3Z"/><path id="Path_31918" data-name="Path 31918" class="cls-2" d="M6.79,16.36a2.7,2.7,0,0,0,.8.7h.1V17a3.49,3.49,0,0,1-.9-.6C6.79,16.26,6.69,16.36,6.79,16.36Z"/><path id="Path_31919" data-name="Path 31919" class="cls-2" d="M7.19,16.36a3.11,3.11,0,0,0,.9.7h.1V17a8.79,8.79,0,0,1-1-.6Z"/><path id="Path_31920" data-name="Path 31920" class="cls-2" d="M7.59,16.36a2.7,2.7,0,0,0,.8.7s.1,0,0-.1-.5-.4-.8-.6Z"/><path id="Path_31921" data-name="Path 31921" class="cls-2" d="M8.09,16.46a1.38,1.38,0,0,1,.3.4c.1.1.3.2.4.3h0a4.62,4.62,0,0,0-.7-.7C8.09,16.36,8,16.36,8.09,16.46Z"/><path id="Path_31922" data-name="Path 31922" class="cls-2" d="M8.39,16.46l.3.3h0a.27.27,0,0,0-.3-.3Z"/><path id="Path_31923" data-name="Path 31923" class="cls-2" d="M9.09,17.06c.1.1.2.2.3.2s.1,0,0-.1-.1-.1-.3-.1c.1-.1,0-.1,0,0Z"/><path id="Path_31924" data-name="Path 31924" class="cls-2" d="M9.19,16.36a.35.35,0,0,1,.2.1s.1-.1,0-.1Z"/><path id="Path_31925" data-name="Path 31925" class="cls-2" d="M16.39,16.66c.1.1.2.1.3.2h0c-.1-.1-.2-.2-.3-.2Z"/><path id="Path_31926" data-name="Path 31926" class="cls-2" d="M16.49,16.46c.1.1.3.2.4.3h0a.54.54,0,0,0-.4-.3Z"/><path id="Path_31927" data-name="Path 31927" class="cls-2" d="M16.49,16.16a1,1,0,0,0,.5.4v-.1c-.1-.1-.2-.1-.3-.2l-.2-.1Z"/><path id="Path_31928" data-name="Path 31928" class="cls-2" d="M16.79,16.16a.37.37,0,0,0,.3.1s.1,0,0-.1c-.1.1-.2,0-.3,0,.1-.1,0-.1,0,0Z"/><path id="Path_31929" data-name="Path 31929" class="cls-2" d="M17,16h0c.1.1.1.1.1,0H17Z"/><path id="Path_31930" data-name="Path 31930" class="cls-2" d="M6.59,15.06a.37.37,0,0,0,.3.1v-.1Z"/><path id="Path_31931" data-name="Path 31931" class="cls-2" d="M6.79,15a.6.6,0,0,0,.4.1h0c-.1,0-.2-.1-.4-.1Z"/><path id="Path_31932" data-name="Path 31932" class="cls-2" d="M7,14.86c.2,0,.4.2.6.2h0c-.1,0-.2-.1-.3-.1s-.2-.2-.3-.1Z"/><path id="Path_31933" data-name="Path 31933" class="cls-2" d="M7.29,14.76A1.45,1.45,0,0,0,8,15s.1,0,0-.1-.5-.1-.7-.1C7.29,14.66,7.19,14.76,7.29,14.76Z"/><path id="Path_31934" data-name="Path 31934" class="cls-2" d="M7.59,14.56h0c.1,0,.1.1.2.1a.1.1,0,0,1,.1.1H8c.2.1.3.1.5.2v-.1c-.2,0-.3-.1-.5-.2S7.69,14.46,7.59,14.56Z"/><path id="Path_31935" data-name="Path 31935" class="cls-2" d="M8,14.46a2.19,2.19,0,0,0,.5.3.9.9,0,0,0,.5.1v-.1a.75.75,0,0,0-.5-.1,1.69,1.69,0,0,0-.5-.2H8C7.89,14.36,7.89,14.46,8,14.46Z"/><path id="Path_31936" data-name="Path 31936" class="cls-2" d="M8.49,14.36c.1.1.2.1.3.2s.2.1.3,0h0a.37.37,0,0,1-.3-.1c-.1,0-.2-.1-.3-.1Z"/><path id="Path_31937" data-name="Path 31937" class="cls-2" d="M8.79,14.26c.1,0,.1.1.2.1v-.1h-.1c0-.1-.1-.1-.1,0Z"/><path id="Path_31938" data-name="Path 31938" class="cls-2" d="M15.29,13.66a1.42,1.42,0,0,0,.6.2s.1-.1,0-.1a1.27,1.27,0,0,1-.6-.1Z"/><path id="Path_31939" data-name="Path 31939" class="cls-2" d="M16,13.56Z"/><path id="Path_31940" data-name="Path 31940" class="cls-2" d="M16.29,14.66h0Z"/><path id="Path_31941" data-name="Path 31941" class="cls-2" d="M8,15.56c.1,0,.2.1.3.1h0c-.1-.1-.2-.2-.3-.1Z"/><path id="Path_31942" data-name="Path 31942" class="cls-2" d="M8.19,15.46c.1,0,.2.1.3.1h0c0-.1-.1-.1-.3-.1Z"/><path id="Path_31943" data-name="Path 31943" class="cls-2" d="M8.49,15.36a.37.37,0,0,1,.3.1h0a.37.37,0,0,0-.3-.1Z"/><path id="Path_31944" data-name="Path 31944" class="cls-2" d="M8.89,15.36h0Z"/><path id="Path_31945" data-name="Path 31945" class="cls-2" d="M9.29,15.36Z"/><path id="Path_31946" data-name="Path 31946" class="cls-2" d="M8.59,14.16a.76.76,0,0,0-.5.2c-.1.1,0,.3.1.4a.85.85,0,0,1,.3.5,2.44,2.44,0,0,1,0,1.2,2.2,2.2,0,0,0-.1.8c0,.1.1.3.2.3a.37.37,0,0,0,.3-.1c.1,0,.3-.1.4-.1H9a.37.37,0,0,0-.3.1c-.1,0-.2.1-.3-.1V17a.6.6,0,0,1,.1-.4c0-.1.1-.3.1-.4v-.7a.86.86,0,0,0-.3-.6l-.2-.2c-.1-.1-.1-.1-.1-.2s.3-.2.4-.2a.37.37,0,0,0,.3-.1h.5a.1.1,0,0,0,0-.2C9,14.06,8.79,14.06,8.59,14.16Z"/><path id="Path_31947" data-name="Path 31947" class="cls-2" d="M14.69,13.86c-.4.1-.7.1-1.1.2-.1,0-.1.1,0,.1a7.72,7.72,0,0,0,1.5-.2,1.18,1.18,0,0,1,1,.1c.2.1.3.2.3.4s.1.2.1.3v.4a1.7,1.7,0,0,0,.1.7v.6c-.1.4-.6.5-1,.5s-.6-.1-.9-.1a2.92,2.92,0,0,0-.9.2c-.1,0,0,.1,0,.1.2-.1.5-.1.7-.2h.8a2.77,2.77,0,0,0,.9-.1.67.67,0,0,0,.4-.7v-1.4a.9.9,0,0,0-.1-.5c-.1-.1-.1-.2-.2-.3a.84.84,0,0,0-.7-.2A2.48,2.48,0,0,0,14.69,13.86Z"/><path id="Path_31948" data-name="Path 31948" class="cls-2" d="M9,16.86a.37.37,0,0,0,.1.3h0l-.1-.1H9a.14.14,0,0,1,0-.2.14.14,0,0,0-.2,0c0,.1.1.2.1.3v.2l-.1-.1c0-.1,0-.2-.1-.2h0V17h0v.2h0c0,.1,0,.2.1.2h.1c0,.1,0,.1.1.2h.1v-.1h.2v-.1l.1.1h.1v-.1h.2a.35.35,0,0,0,.2.1v-.1h0a.1.1,0,0,0-.1-.1h0a.35.35,0,0,0-.1-.2h-.1c0-.1-.1,0-.1,0a.31.31,0,0,0,.1.2h0v-.1c-.5-.1-.5-.2-.6-.3Z"/><path id="Path_31949" data-name="Path 31949" class="cls-2" d="M8.79,14.06h-.7v.1h.1v.1H8v.1H8a.1.1,0,0,0-.1.1h0c.1.1.2.3.3.4l.1.1v.2h0v.4c0,.1.1.2.1.3v.5h0v-.1a.76.76,0,0,0,.2.4h.1v-.2a.1.1,0,0,1,.1.1h.1v-.1h.2v-.1h0v-.3h.1v-.2a1.42,1.42,0,0,0-.2-.6v-.1h.1V15a.37.37,0,0,0-.1-.3c0-.1-.1-.1-.1-.2s-.1-.1-.1-.2h.1a.1.1,0,0,0,0-.2Zm.1.9h0l.2.2h0c0,.1.1.2.1.3v.1h0a3.29,3.29,0,0,0-.3-.6c.1,0-.1,0,0,.1s.1.1.1.2h-.1v-.1h0a.14.14,0,0,1,0-.2h0c-.1-.1-.1-.1-.2-.1h.1l.1.1Zm.4,1h0c0-.1,0-.1-.1-.1h0Zm-.5-.7h0v.1c0-.1-.1-.1,0-.1Zm-.2-.7h0l.1.1a.1.1,0,0,1-.1-.1Zm.3,1.6h0c0,.1.1.3.1.4A.6.6,0,0,1,8.89,16.16Zm0-.6h0l.1.1c0,.1.1.1.1.2h0a.35.35,0,0,0-.1-.2Zm.3.6h0a.35.35,0,0,0,.1.2.31.31,0,0,1-.1-.2Zm-.3-1.9v0a.31.31,0,0,1-.2.1h0v-.1a.1.1,0,0,0-.1-.1.37.37,0,0,0,.3.1Zm-.2,1.5v-.2c0,.1.1.2.1.3h0Zm.2.2v-.2c0,.1.1.2,0,.2.1,0,.1.1.2.2s.1.2.1.3c0-.1-.1-.1-.1-.2s-.1-.1-.2-.3Z"/><path id="Path_31950" data-name="Path 31950" class="cls-2" d="M8.79,16.86c-.1.1-.1.1,0,.2s.1.1.1.2v.2h0v-.3a.1.1,0,0,0-.1-.1v-.2Z"/><path id="Path_31951" data-name="Path 31951" class="cls-2" d="M8.49,14.16h-.1a.6.6,0,0,0-.4.1c-.3.1-.5.2-.8.3-.1,0-.2.1-.3.2a.1.1,0,0,0-.1.1h-.1c-.2.1-.3.1-.4.3s-.3.2-.4.3-.1.6.1.6.4-.3.5-.5.2-.3.3-.5H7a.76.76,0,0,1,.4.2h0a1.38,1.38,0,0,0,.4.3l.1.1c0,.1.1.2.1.3s0,.1.1.2v.1a1.42,1.42,0,0,0,.2.6c0,.1,0,.1.1.2s.1.2.2.3.2.1.3.2h.2c.1,0,.1-.1.2-.1s0-.1,0-.1h-.2a.37.37,0,0,1-.3-.1c-.1-.1-.2-.2-.2-.3v-.3a1.38,1.38,0,0,0,.3.4c0,.1.1,0,.1-.1s-.1-.3-.1-.5c.1.1.1.2.2.3a.1.1,0,0,0,.1-.1c0-.1-.1-.2-.1-.3s-.1-.2-.1-.3l-.1-.1a.37.37,0,0,0,.3.1.1.1,0,0,0,.1-.1h0c0-.1,0-.1-.1-.1h0v-.1a.1.1,0,0,0-.1-.1h0v-.1h.1a.1.1,0,0,0,0-.2c-.1,0-.2,0-.2-.1h.1c.1,0,.1-.1,0-.1H9c.1,0,.1,0,.1-.1s.1-.1.1-.2h0s.1,0,0-.1l-.1-.1h.2a.1.1,0,0,0,.1-.1v-.1c-.2,0-.4-.1-.6,0h0c.1,0,.3-.1.4-.1v-.1h0a.37.37,0,0,0,.3-.1s.1,0,0-.1h-.1A3.14,3.14,0,0,0,8.49,14.16Zm-.1,2.2h0a.22.22,0,0,1-.2-.2.1.1,0,0,0-.1-.1h0a.35.35,0,0,0-.1-.2H8c.1.2.2.3.3.5C8.29,16.26,8.39,16.26,8.39,16.36Zm-2.3-.5Zm0-.2Zm2.3.9v.2c0-.1-.1-.2,0-.2Zm.2-.6h0c0,.1-.1,0,0,0Zm-.1-.3h0c-.1-.1-.2-.1-.2-.2h.2v.2Zm-2.2,0h0c0-.1.1-.2.1-.3v-.1h.1A.52.52,0,0,0,6.29,15.66Zm2.3-.7h0c-.1.1-.1.1-.2.1h-.2c-.1,0-.2-.1-.3,0h.5c0-.1.1-.1.2-.1Z"/><path id="Path_31952" data-name="Path 31952" class="cls-2" d="M6.89,15a1,1,0,0,0-.5.4v.1c.2-.2.4-.3.5-.5.3.1.5.1.7.3a3.11,3.11,0,0,1,.7.9.1.1,0,0,0,.1-.1,3.92,3.92,0,0,0-.8-1A1.48,1.48,0,0,0,6.89,15Z"/><path id="Path_31953" data-name="Path 31953" class="cls-2" d="M7.49,15.16a.85.85,0,0,0-.7,0c-.1.1-.2.2-.1.3s.2.2.3.1H7c.1,0,.1-.1.2-.2a.37.37,0,0,1,.3-.1h0a2.65,2.65,0,0,1,.6.5h0a1.38,1.38,0,0,0-.3-.4c.1,0,.1.1.2.1a.1.1,0,0,0,.1-.1v-.1h-.5A.1.1,0,0,0,7.49,15.16Zm-.7.2Zm0,.2Z"/><path id="Path_31954" data-name="Path 31954" class="cls-2" d="M16.09,16.16v.2h.1v.1c0,.1,0,.1-.1,0s-.1-.1-.1-.2-.1,0-.1.1.1.2,0,.2-.1-.2-.1-.2-.1,0-.1,0v.1h0c0-.1-.1-.2-.1-.3h-.1v.4l-.2-.3h-.1c0,.1,0,.2-.1.2l-.1-.1h-.1v.2h0c0-.1-.1-.1-.1-.2h-.1v.1h0c0-.1,0-.1-.1-.2h-.1v.2a.35.35,0,0,1-.1-.2h-.1v.1c0-.1,0-.1-.1-.2h-.1v.3h0v-.1H14v-.1h-.1a.75.75,0,0,0-.1.5h0a.37.37,0,0,1,.1-.3v.3c0,.1.1.1.1,0v-.2h.2c0-.1,0-.1.1-.2l.1.1h.1a.1.1,0,0,0,.2,0,.1.1,0,0,0,.1.1c.1,0,.1,0,.1-.1l.1.1a.1.1,0,0,0,.1-.1h0s.1.1.1,0a.1.1,0,0,0,.1-.1c.1.1.1.2.2.2l.1-.1.1.1a.1.1,0,0,0,.1-.1.35.35,0,0,0,.2.1.1.1,0,0,0,.1-.1h.2v-.3c.1,0,.1-.1,0-.1h-.1c.1.2.1.1-.1.1.1,0,.1-.1,0,0Z"/><path id="Path_31955" data-name="Path 31955" class="cls-2" d="M15.59,15.16h0l-.1.1V16a.31.31,0,0,1-.1-.2c0-.1,0-.2-.1-.2s-.1-.1-.1,0v.7h0c0-.1,0-.1-.1-.2v-.2a.37.37,0,0,0-.1-.3h-.1v.5a.9.9,0,0,0-.1-.5h-.1v.7a.35.35,0,0,0-.1-.2.37.37,0,0,0-.1-.3s-.1-.1-.1,0v.6c-.1.1-.1-.1-.1-.1a.37.37,0,0,0-.1-.3h-.1v.4h0V16s0-.1-.1,0h0v.6h.1v-.1h.1c.1,0,.1-.1.1-.2,0,.1.1.2.3.2s.1-.1.1-.2a.22.22,0,0,0,.2.2H15c0-.1.1-.2,0-.3h0c0,.1,0,.1.1.2h.1v-.2h0c0,.1.1.3.2.2a.37.37,0,0,0,.1-.3c0,.1.1.1.1.2s.2-.1.2-.2V16c0,.1.1.2.1.3H16l.1-.1h.2a.22.22,0,0,0,.2.2h.1l.1-.1h0a.3.3,0,0,0,0-.4v-.2a.1.1,0,0,0-.2,0h-.1c0,.2,0,.3.1.4h0a.6.6,0,0,1-.1-.4.1.1,0,1,0-.2,0h0v.2h0l-.1-.1v-.2a.1.1,0,0,0-.2,0v.2h0v.1c0-.1-.1-.2-.1-.3S15.69,15.26,15.59,15.16Z"/><path id="Path_31956" data-name="Path 31956" class="cls-2" d="M15.69,14.16h0c-.1.1-.1,0-.2,0s-.1,0-.2.1h-.2s-.1.1,0,.1v.1H15c-.1-.1-.1-.1-.2-.1v.2h0l-.2-.2h-.1v.3c-.1-.1-.1-.2-.3-.2a.1.1,0,0,0-.1.1.35.35,0,0,0,.1.2l-.1-.1a.1.1,0,0,0-.1-.1h-.1v.2l-.1-.1-.1-.1h-.1c0,.1,0,.1.1.2v.1a.1.1,0,0,0-.1-.1.1.1,0,0,0-.1-.1h-.1v.2h-.1c0,.1,0,.1.1.2h.1v-.2c0,.1.1.1.2.2h.1V15a.35.35,0,0,0,.2.1h0V15c.1.1.1.2.3.2h.1V15c.1.1.1.2.2.2h.1V15h0l.1.1c.1,0,.1,0,.1-.1v-.1h0s.1.1.1,0a.1.1,0,0,0,.1-.1h.1a.1.1,0,0,0,.1-.1.1.1,0,0,1,.1-.1c.1.1.1.1.2,0h0c.2-.2.2-.3.1-.4H16a.1.1,0,0,0,0-.2C15.89,14.06,15.79,14.16,15.69,14.16Z"/><path id="Path_31957" data-name="Path 31957" class="cls-2" d="M15.29,13.76h-.5a.6.6,0,0,0-.4.1h-.8a.1.1,0,1,0-.2,0V14h0a.35.35,0,0,0,.1.2h.1c.1,0,.1,0,.1-.1a.35.35,0,0,0,.2.1h.2a.75.75,0,0,0,.5-.1c.2,0,.3-.1.5-.1a3,3,0,0,1,.4.3c.1,0,.1,0,.1-.1h.3a.1.1,0,0,1,.1.1.1.1,0,0,0,.1-.1c-.1-.1-.1-.1-.2-.1s-.1-.1-.2-.1h0v-.1h-.1A.37.37,0,0,0,15.29,13.76Z"/><path id="Path_31958" data-name="Path 31958" class="cls-2" d="M16.29,15.76c-.1.1-.1.2,0,.4H16v.2h0v-.1h-.1a.1.1,0,0,1-.1.1h-.1v.1c0-.1-.1-.1-.2-.1a.1.1,0,0,0-.1.1h0c-.1,0-.2,0-.2.1,0-.1-.1-.1-.2,0h0v.1h-.4a1.27,1.27,0,0,0-.6.1v.1h0c-.1,0-.1.1,0,.1a2.2,2.2,0,0,0,.8-.1V17c.1,0,.1,0,.2.1h1.1a.1.1,0,0,0,.1-.1h0c.1,0,.2-.1.3-.2h.1l.1-.1h.1v-.3a.37.37,0,0,0-.1-.3h-.1C16.39,15.66,16.29,15.66,16.29,15.76Zm0,.4h0c0,.1,0,.2-.1.2h0v-.1c0,.1,0,.1.1-.1C16.19,16.26,16.29,16.26,16.29,16.16Zm-.6.3Z"/><path id="Path_31959" data-name="Path 31959" class="cls-2" d="M16,14.06h-.2v.2a.1.1,0,0,0-.1-.1h-.1v.3h0c-.1-.1-.1-.2-.2-.3s-.1,0-.1,0a.76.76,0,0,0,.2.5h0a.35.35,0,0,0-.1-.2h-.1v.2c0-.1-.1-.1-.2-.2h-.2v.1h0s-.1.1,0,.1a.35.35,0,0,0,.1.2h0c0-.1,0-.1-.1-.2s-.1-.1-.1-.2h-.1v.1h0a.1.1,0,0,0-.1.1h0v-.1h-.1v-.1h-.1v.2h-.1c0-.1,0-.1-.1-.2s-.1,0-.1,0v.1H14v.2h0v.4l-.1.1a.6.6,0,0,0,.1.4h.1a.37.37,0,0,0,.1-.3h0c0,.1.1.1.1.2h.1c0,.1.1.1.2.1s.1-.2.1-.3.1.1.2,0h0c.1,0,.1,0,.1-.1h.1a.1.1,0,0,0,.1-.1.1.1,0,0,0,.1.1c.1.1.1.2.2.2s.1-.1.1-.2h0l.1.1c.1,0,.1,0,.1-.1h0c.1,0,.1-.1.1-.2h0a.19.19,0,0,0,.3,0h0a.1.1,0,0,1,.1.1.35.35,0,0,0,.2.1h.1c-.1.3-.1.1-.1,0v-.1h0c.1-.2-.1-.4-.1-.6s-.1-.2-.1-.3-.2-.2-.3-.2Zm-.3.6h0c0,.1.1.1.1.2a.31.31,0,0,0-.1-.2Zm.4.3h0c0-.1-.1-.2-.1-.3v-.1a.1.1,0,0,0,.1.1c0,.2.1.3,0,.3l.1.1a.1.1,0,0,0-.1-.1Zm-.4.1c.1.1.1.2.2.3v.1l-.1-.1a.1.1,0,0,0-.1-.1v-.2Zm-1.1.6c0-.1-.1-.1,0,0l-.1-.2.1.2Zm-.2,0v-.2h0v.2Zm-.6.2v-.3h0Z"/><path id="Path_31960" data-name="Path 31960" class="cls-2" d="M14.49,13.46a3.4,3.4,0,0,0-1,.1s-.1,0,0,.1h0v.1h0c-.1,0-.1.1,0,.1h.2a2,2,0,0,0,.7-.1h.3a.1.1,0,0,0,.1-.1h1.3l.1.1a.37.37,0,0,1,.1.3.1.1,0,0,0,.2,0,1.45,1.45,0,0,0-.2-.7.73.73,0,0,0-.6-.2h-.3A1.21,1.21,0,0,1,14.49,13.46Zm1.3.2h0c-.1-.1,0-.1,0,0Z"/><path id="Path_31961" data-name="Path 31961" class="cls-2" d="M16.09,13.76c0,.1.1.1.1.2v.2h0v.1c0,.1.1.1.1,0V14c0-.1-.1-.2-.1-.3l-.1.1Z"/><path id="Path_31962" data-name="Path 31962" class="cls-2" d="M16.29,15.26v.4c0,.1.1.3.1.4,0,.3,0,.6-.3.7-.1,0-.2.1-.3,0h-.9a4.1,4.1,0,0,0-1.1.1.1.1,0,0,0-.1.1h-.1c-.1,0,0,.1,0,.1A.6.6,0,0,0,14,17h.2c.5,0,.9-.1,1.4-.1a.1.1,0,0,0,.1-.1h.2c.1,0,.3-.1.4-.1a1.4,1.4,0,0,0,.3-.9.9.9,0,0,0-.1-.5v-.2c0-.1,0-.1-.1-.2C16.39,15.06,16.29,15.16,16.29,15.26Z"/><path id="Path_31963" data-name="Path 31963" class="cls-2" d="M15.89,13.56a1,1,0,0,1,.4.5,2.35,2.35,0,0,1,.2.8,2.9,2.9,0,0,1,0,1.6v.1h.1a2.79,2.79,0,0,0,.1-1.8c-.1-.3-.1-.6-.2-.9a2.09,2.09,0,0,0-.4-.6C15.89,13.36,15.79,13.46,15.89,13.56Z"/><path id="Path_31964" data-name="Path 31964" class="cls-2" d="M9.49,17.36h-.8a.1.1,0,0,0-.1.1h0a.1.1,0,0,0,.1.1,1.7,1.7,0,0,0,.7-.1c.2.1.2-.1.1-.1Z"/><path id="Path_31965" data-name="Path 31965" class="cls-2" d="M16.59,16.06v.4a.6.6,0,0,1-.1.4c-.1.1-.2.1-.3.2h-.4a.1.1,0,0,0-.1.1h.6a.1.1,0,0,0,.1-.1c.1,0,.1-.1.2-.1a.78.78,0,0,0,.1-.8c0-.2-.1-.2-.1-.1Z"/><path id="Path_31966" data-name="Path 31966" class="cls-2" d="M15.39,13.36c-.2,0-.4.1-.6.1a5.28,5.28,0,0,1-1.3.1v.1c0,.1,0,0,.1,0a4.87,4.87,0,0,0,1.2-.1c.2,0,.4-.1.6-.1H16a.1.1,0,0,0,0-.2A1.27,1.27,0,0,1,15.39,13.36Z"/></g><path id="Path_31967" data-name="Path 31967" class="cls-2" d="M9.8,14.51c.1,0,.2.1.3.1v-.1c-.1,0-.2-.1-.3,0Z"/><path id="Path_31968" data-name="Path 31968" class="cls-2" d="M10,14.21c.1,0,.2.1.3.1h.1c-.2,0-.3-.1-.4-.1Z"/><path id="Path_31969" data-name="Path 31969" class="cls-2" d="M10.4,14c.1.1.2.1.3.2h.1c-.1-.2-.2-.2-.4-.2Z"/><path id="Path_31970" data-name="Path 31970" class="cls-2" d="M9.9,17.21c.1.1.3.2.4.3h0a.54.54,0,0,0-.4-.3C9.9,17.11,9.8,17.21,9.9,17.21Z"/><path id="Path_31971" data-name="Path 31971" class="cls-2" d="M9.9,16.91h0c.1.1.3.2.4.3s.3.2.5.2c0,0,.1,0,0-.1a3.55,3.55,0,0,1-.9-.4Z"/><path id="Path_31972" data-name="Path 31972" class="cls-2" d="M10.9,17.21a.1.1,0,0,1,.1.1.1.1,0,0,0-.1-.1Z"/><path id="Path_31974" data-name="Path 31974" class="cls-2" d="M12.2,17h0c.1.1.2.1.3.2s.1,0,0-.1-.2-.1-.3-.1Z"/><path id="Path_31975" data-name="Path 31975" class="cls-2" d="M12.4,16.91c.1.1.3.1.4.2h0a.52.52,0,0,0-.4-.2Z"/><path id="Path_31976" data-name="Path 31976" class="cls-2" d="M12.7,16.71c.1.1.1.1.2.1v-.1Z"/><path id="Path_31977" data-name="Path 31977" class="cls-2" d="M12,14a.1.1,0,0,1,.1.1h.1c0-.1-.1-.1-.2-.1Z"/><path id="Path_31978" data-name="Path 31978" class="cls-2" d="M12.6,14h0a.31.31,0,0,0,.2.1h.1c-.1,0-.2-.1-.3-.1Z"/><path id="Path_31979" data-name="Path 31979" class="cls-2" d="M12.9,14Z"/><path id="Path_31980" data-name="Path 31980" class="cls-2" d="M4.2,15.61c.1,0,.1.2.2.3h0c0-.1-.1-.3-.2-.3Z"/><path id="Path_31981" data-name="Path 31981" class="cls-2" d="M4.4,15.61l.1.1c.1,0,.1.1.2.1h0c0-.1-.1-.1-.2-.1a.1.1,0,0,0-.1-.1C4.3,15.51,4.3,15.61,4.4,15.61Z"/><path id="Path_31982" data-name="Path 31982" class="cls-2" d="M4.6,15.61l.2.2h0c0-.2-.1-.2-.2-.2Z"/><path id="Path_31983" data-name="Path 31983" class="cls-2" d="M4.9,15.51l.1.1s.1-.1,0-.1Z"/><path id="Path_31984" data-name="Path 31984" class="cls-2" d="M3.5,15.21h0c.1.1.2,0,.3,0h.3c.1,0,.2.1.3.1s.1-.1,0-.1-.1-.1-.2-.1S4.1,15,4,15,3.6,15,3.5,15.21Z"/><g id="Group_6646" data-name="Group 6646"><path id="Path_31985" data-name="Path 31985" class="cls-2" d="M17.16,17.11a.85.85,0,0,1-.5.3h0c-.6,0-1.2.1-1.8.1a11,11,0,0,0-1.8.2,10.87,10.87,0,0,1-1.8.1,2.77,2.77,0,0,0-.9.1c-.3,0-.6.1-.9.1H9a.9.9,0,0,1-.5-.1.75.75,0,0,1-.5-.1.76.76,0,0,1-.5-.2c-.2-.1-.4-.1-.6-.2-.4-.1-.8-.2-1.1-.3s-.4-.1-.6-.1a1.27,1.27,0,0,0-.6-.1h0a.1.1,0,0,0-.1.1v.1c.2.1.4.1.6.2s.4.1.6.1l1.2.3a1.42,1.42,0,0,1,.6.2c.2.1.4.1.5.2a.75.75,0,0,1,.5.1.37.37,0,0,1,.3.1h.9c.3,0,.6-.1.9-.1h.9a21.12,21.12,0,0,0,2.6-.2c.9-.1,1.8-.1,2.8-.2H17a.85.85,0,0,0,.5-.3C17.46,17.11,17.26,17,17.16,17.11Z"/><path id="Path_31986" data-name="Path 31986" class="cls-2" d="M4.36,15.31a1.42,1.42,0,0,0,.6-.2c.2-.1.4-.1.6-.2a6.89,6.89,0,0,0,1-.4c.2-.1.4-.1.5-.2s.3-.2.5-.2a.9.9,0,0,1,.5-.1c.2-.1.3-.1.5-.2a.1.1,0,0,0,.1-.1.6.6,0,0,0,.4-.1,2.77,2.77,0,0,0,.9-.1c.3,0,.6-.1.9-.1.6-.1,1.2-.1,1.8-.2s1.2-.1,1.8-.1,1.2-.1,1.8-.2h0a.76.76,0,0,1,.5.2c.1.1.2-.1.1-.2a1.42,1.42,0,0,0-.6-.2h-.1l-2.7.3a21.12,21.12,0,0,0-2.6.2c-.3,0-.6.1-.9.1a2.77,2.77,0,0,0-.9.1,2,2,0,0,0-.8.1h-.1a.35.35,0,0,0-.2.1c-.2,0-.3.1-.5.1s-.3.1-.5.2-.3.2-.5.2a2.59,2.59,0,0,1-1.1.7c-.2.1-.4.1-.6.2s-.4.1-.5.2a.1.1,0,0,0,.1.1Z"/><path id="Path_31987" data-name="Path 31987" class="cls-2" d="M3.06,15.11a.4.4,0,0,0-.2.4,2,2,0,0,0,.1.7c0,.2.1.5.1.7s.1,0,.1,0a4.1,4.1,0,0,1-.1-1.1v-.4c.1-.2.3-.1.4-.1h.1v-.1A1.09,1.09,0,0,0,3.06,15.11Z"/></g><g id="Group_1096" data-name="Group 1096"><g id="Group_1090" data-name="Group 1090"><path id="Path_8924" data-name="Path 8924" class="cls-2" d="M12.31,15.24a.9.9,0,0,1-.1.5.82.82,0,0,1-.2,1.2c-.4.2-1,.2-1.2-.2a1,1,0,0,1-.1-.9.75.75,0,0,1,.1-1.2.94.94,0,0,1,1.3.1v.1C12.21,14.94,12.21,15,12.31,15.24Zm-.1.4h0a.81.81,0,0,0-.4-1.1,1,1,0,0,0-1.1.4,1,1,0,0,0,.1.9h0a.83.83,0,1,0,1.5.7,1.41,1.41,0,0,0-.1-.9Z"/></g><g id="Group_1091" data-name="Group 1091"><path id="Path_8925" data-name="Path 8925" class="cls-2" d="M11.68,16.41h0v.2h.1v.1h0l-.6.1v-.2h-.1l.1-.1h0Zm-.1.1h-.4v.1l.4-.1Zm0-.6a.1.1,0,0,1,.1-.1l-.1.1.1.1h.2v.1h-.2v.3h0v-.3h-.2l.1-.2c-.1.1,0,.1,0,0Zm-.1.4h0l-.4.1v-.2H11V16h0l.1.1v-.2H11l.1-.1h.3v.1h0V16c.1,0,.1.1.2.3h0c.1,0,0-.1-.1,0Zm-.3,0h.1v-.1l-.1.1Zm.3-.1h-.1v.1l.1-.1Zm0-.2h-.1v.1h.1Zm-.3.1h.1V16h-.1Z"/></g><g id="Group_1092" data-name="Group 1092"><path id="Path_8926" data-name="Path 8926" class="cls-2" d="M11,14.91l.1-.1h0V15a.76.76,0,0,1,.4.1c.1-.4.3-.3.2-.2a.37.37,0,0,0-.1.3.76.76,0,0,1,.2.5h0c-.1-.1-.1-.3-.3-.4,0,.1-.1.2-.1.3a.37.37,0,0,1-.3-.1v.2h0v-.2h-.3v-.2H11v-.2h-.1l.1-.2c0,.1.1.1,0,0Zm.2.4a.37.37,0,0,1,.3.1v-.2c-.1,0-.2-.1-.3-.1Z"/></g><g id="Group_1093" data-name="Group 1093"><path id="Path_8927" data-name="Path 8927" class="cls-2" d="M12.35,15.19v.4a1,1,0,0,1-1.7,1.1.6.6,0,0,1-.1-.4h0v-.4a1.08,1.08,0,0,1,.3-1.4,1.1,1.1,0,0,1,1.4.3.6.6,0,0,1,.1.4Zm-.1.5h0c0-.2.1-.3,0-.4a1.09,1.09,0,0,0-1.1-.9c-.6,0-.9.5-.9,1.1h0c0,.1.1.3.1.4h0a.95.95,0,1,0,1.8.6c0-.1.1-.3,0-.4h0c.3-.2.2-.3.1-.4Z"/></g><g id="Group_1095" data-name="Group 1095"><g id="Group_1094" data-name="Group 1094"><path id="Path_8928" data-name="Path 8928" class="cls-2" d="M12.81,16.13h0l-.2.1h0v-.1h.1c.1-.1.1-.1.1,0Zm0,0Zm-.1,0Z"/><path id="Path_8929" data-name="Path 8929" class="cls-2" d="M12.71,15.93h0v-.2h0v.2h0l.1-.2h0v.1h0v-.1h0v.1h0Z"/><path id="Path_8930" data-name="Path 8930" class="cls-2" d="M12.71,15.73h0l-.1-.2h0l.1.2h0v-.2h0v.2l.1-.1v-.1h0v.1h0Z"/><path id="Path_8931" data-name="Path 8931" class="cls-2" d="M12.71,15.43h0c.1-.1.1,0,0,0h0l-.1.1h0v-.1h.1c-.1-.1,0-.1,0,0h0v-.1h0c.1,0,.1,0,0,.1Zm0-.1h0c-.1,0-.1.1,0,0Z"/><path id="Path_8932" data-name="Path 8932" class="cls-2" d="M12.61,15h.1v.1h0l-.1.1h.1c0-.1,0-.2-.1-.2h0l-.1.1h0Z"/></g></g><circle id="Ellipse_83" data-name="Ellipse 83" class="cls-2" cx="12.65" cy="16.39" r="0.1"/><circle id="Ellipse_84" data-name="Ellipse 84" class="cls-2" cx="12.55" cy="14.79" r="0.1"/></g></g><g id="Group_6648" data-name="Group 6648"><path id="Path_31988" data-name="Path 31988" class="cls-4" d="M18.42,16.61a1.85,1.85,0,0,0-.7-.2,3.49,3.49,0,0,0-2.2.8l-.2.2h0a2.09,2.09,0,0,0-.6-.4h-.1c-.1-.1-.2-.2-.3-.2a22.86,22.86,0,0,0-2.5-.2H9.92a.37.37,0,0,1-.3.1,1,1,0,0,0-.4-.5c-.1-.1-.3-.2-.4-.3a.76.76,0,0,0-.5-.2c-.2,0-.3-.1-.5-.1h-.4c-.1-.1-.2-.2-.3-.2a.37.37,0,0,0-.3.1.48.48,0,0,0-.2.6c.1.1.2.3.3.3s.2.2.2.3h0v.1l.1.1a.1.1,0,0,0,.1.1.52.52,0,0,0-.2.4.46.46,0,0,0,.4.5h.3a.76.76,0,0,1,.4.2c.3.1.5.2.8.3a1.1,1.1,0,0,0,.8,0,.86.86,0,0,0,.6-.3,2.77,2.77,0,0,0,.9.1.37.37,0,0,0,.3-.1h0a24.37,24.37,0,0,0,2.7.1v.1a.83.83,0,0,0,1,.5c.1,0,.2-.1.3-.1h.6a1.7,1.7,0,0,0,.7-.1,1,1,0,0,0,.5-.4c.1-.1.1-.3.2-.4v-.1h0a.1.1,0,0,0,.1-.1,1.21,1.21,0,0,0,.5-.5C18.72,17.11,18.72,16.81,18.42,16.61Z"/></g><path id="Path_31990" data-name="Path 31990" class="cls-4" d="M18.9,14.49q0-.15-.3-.3h-.3v-.3h0v-.2A.91.91,0,0,0,18,13a.75.75,0,0,0-.5-.1h0a.37.37,0,0,0-.3-.1h-.1a.37.37,0,0,0-.3-.1.6.6,0,0,0-.4.1l-.4-.1h-.3c-.1,0-.1,0-.2.1V13c.1.1.1.2.2.2H16v.4a.55.55,0,0,0-.3.5.75.75,0,0,0,.1.5c.1.1.2.3.3.4a1.05,1.05,0,0,0,.9.5,1.7,1.7,0,0,0,1,0,1.09,1.09,0,0,0,.8-.8C18.9,14.69,18.9,14.59,18.9,14.49Z"/><path id="Path_31991" data-name="Path 31991" class="cls-2" d="M17.3,14c-.2.2-.5.4-.7.6a.19.19,0,0,1-.3,0,.6.6,0,0,0-.4-.1.2.2,0,1,0,0,.4c.1,0,.3.1.4.1s.3,0,.4-.1a1.38,1.38,0,0,1,.4-.3c.1-.1.3-.2.4-.4C17.8,14.19,17.5,13.89,17.3,14Z"/><path id="Path_31992" data-name="Path 31992" class="cls-2" d="M9.7,16.59a1.42,1.42,0,0,0-1.3-.9c-.1,0-.3-.1-.4-.1s-.3-.2-.4-.3a.76.76,0,0,0-.4-.2c-.2,0-.3,0-.4.2a1.49,1.49,0,0,0-.4.9c0,.2.3.3.4,0,0-.1.1-.3.1-.4s.1-.1.1-.2a.1.1,0,0,1,.1-.1.1.1,0,0,0,.1-.1h0l.1.1.2.2h0c0,.1,0,.1.1.2.3.2.7.3,1,.5a2.18,2.18,0,0,1,.8.5.19.19,0,0,0,.3,0q.15-.3,0-.3Z"/><g id="Group_6664" data-name="Group 6664"><g id="Group_6649" data-name="Group 6649"><path id="Path_31993" data-name="Path 31993" class="cls-2" d="M24.11,18.69a.77.77,0,0,0-.1-.3c-.4-.5-.2-.7-.3-1s-.4.1-.2.7S24,18.79,24.11,18.69Z"/></g><g id="Group_6650" data-name="Group 6650"><path id="Path_31994" data-name="Path 31994" class="cls-2" d="M25.29,18.9c.1.1.1,0,0,0l.1-.1a3.39,3.39,0,0,1-.9-1.4c0-.1-.2,0-.2.1A2.43,2.43,0,0,0,25.29,18.9Z"/></g><g id="Group_6651" data-name="Group 6651"><path id="Path_31995" data-name="Path 31995" class="cls-2" d="M25.61,17.05c-.2.1.7,1.4,1.5,1.6h.1c0-.1,0-.1-.3-.3a3.18,3.18,0,0,1-1-1A.45.45,0,0,0,25.61,17.05Z"/></g><g id="Group_6663" data-name="Group 6663"><g id="Group_6652" data-name="Group 6652"><path id="Path_31996" data-name="Path 31996" class="cls-2" d="M23.94,16.57c-.1,0-.1.1-.1.2h0c0,.1.1.1.2.1h0c1.6-.3,2.6-1.6,3.6-2.8a10,10,0,0,1,2-2.1c1.5-1,3.1-1.4,7-4.5a5.14,5.14,0,0,1-1.5,2.8c-1.5.7-2.5,1.3-3.9,2.1-.1,0-.1.1,0,.1l.1.1a9.88,9.88,0,0,0,3.9-2.1c1.7-.8,3-1.3,3.3-1.4s.5-.2.6-.1c.4.4-.7,1.1-1.1,1.4-.9.6-1.2.5-1.1.7a.1.1,0,0,0,.1.1h0a4.87,4.87,0,0,0,1.1-.4c-.1.2-.2.5-.4.6a4.52,4.52,0,0,1-1.7,1.1,9.57,9.57,0,0,1-4.4.8,3.4,3.4,0,0,1-1-.1c-.2,0-.2.2,0,.2s.6.1.9.1a10.12,10.12,0,0,0,3-.2c.1.2,3.1-.6,4.4-1.3.2-.1.4-.2.5-.1.3.2-.2.7-.4.9a5,5,0,0,1-2.3,1.4,24.58,24.58,0,0,0-2.8.2c-.1,0-.2,0-.2.1s0,.2.1.2h0a6.54,6.54,0,0,0,2.8-.2c1.3,0,1.6,0,1.8.2s.2,0,.1-.1c-.3-.3-.5-.4-1.2-.4a9.39,9.39,0,0,0,1.8-1.2,1.33,1.33,0,0,0,.6-.9c0-.2-.1-.3-.3-.4a.75.75,0,0,0-.5.1,23.29,23.29,0,0,1-2.8,1.1,6.38,6.38,0,0,0,1.4-.8,4.35,4.35,0,0,0,.6-.7c.1-.3.2-.5.3-.8v-.1a4.35,4.35,0,0,0,.7-.6c.2-.2.5-.6.4-.9a.32.32,0,0,0-.3-.3c-.2-.1-.4,0-.5,0-1,.4-2,.8-3,1.3a8.34,8.34,0,0,0,.8-1.2,4.94,4.94,0,0,0,.5-1.6c0-.1,0-.1-.1-.1h-.1c-1.3.9-2.6,1.9-4.2,2.8-.5.3-.9.5-1.4.8-2.9,1.6-2.9,2.2-4.5,4.1A6.7,6.7,0,0,1,23.94,16.57Zm10.6-5.9a10.08,10.08,0,0,1-2.3,1.2C32.94,11.47,33.64,11.17,34.54,10.67Z"/></g><g id="Group_6654" data-name="Group 6654"><path id="Path_31998" data-name="Path 31998" class="cls-2" d="M38.39,15h0c0-.1-.1-.1,0,0Zm0-.1Z"/></g><g id="Group_6655" data-name="Group 6655"><path id="Path_31999" data-name="Path 31999" class="cls-2" d="M38.26,15c-.1.1-.3.2-.4.3v.1h0a.78.78,0,0,0,.4-.4Z"/></g><g id="Group_6656" data-name="Group 6656"><path id="Path_32000" data-name="Path 32000" class="cls-2" d="M34.56,19.51c.7-.2.8-.7.4-1.2.9.1,2.7-.2,2.4-1-.1-.3-.5-.4-.9-.5.4-.2.9-.4,1.3-.6v-.1h-.1a5.84,5.84,0,0,1-1.8.4,7.41,7.41,0,0,0-2.1-.1.1.1,0,0,0-.1.1c0,.1,0,.1.1.1a5.92,5.92,0,0,0,1.9.1,5.64,5.64,0,0,1,1.2.4c.1.1.2.2.1.4l-.1.1a4.73,4.73,0,0,1-2.4.3,1.79,1.79,0,0,0-1.4-.4.22.22,0,0,0-.2.2c0,.1,0,.1.1.1a3.71,3.71,0,0,0,1.5.4c.3.2.6.7.3.9-.1.1-.2.1-.4.1a4.1,4.1,0,0,1-1.1-.1,2,2,0,0,0-1.4-.6c-.2,0-.2.2-.1.3a7.54,7.54,0,0,0,1.3.6c.7.9-.2,1-1.3.4l-.2-.2a1.79,1.79,0,0,0-.7-.5c-.1,0-.2,0-.2.1v.2a3,3,0,0,0,.7.5c.4.8-1,1.6-1.9.2a.35.35,0,0,0-.1-.2c0-.1-.1-.1-.2-.1h0a.37.37,0,0,0-.1.3l.1.1a.66.66,0,0,1,.1.6c-.1.2-.2.3-.4.3-.5.1-.9-.4-1.2-.8-.1-.2-.4,0-.3.2a1.88,1.88,0,0,1,.2.8c-.2.6-1.1.2-1.6-.3,0-.4-.4-.6-.5-.4s0,.2.1.3.1.1.1.2a.46.46,0,0,1-.7.3l.1-.1h0a4.92,4.92,0,0,1-.6-1.7c.1-.1.2-.1.2-.2a1.31,1.31,0,0,0,1.2.3,5.72,5.72,0,0,0,1.1,1.6c.1.1.2,0,.1-.1l-.6-.9c-.1-.2-.3-.5-.4-.7.2-.1.3-.2.3-.4.1.1.2.1.3.2.9.4,1.3.1,1.3-.4v-.1a.86.86,0,0,0,1.2-.3.66.66,0,0,0,.1-.6c.8.2,1.6-.2,1.4-.9,1.2.1,1.9-.7,1.6-1.3a1,1,0,0,0,.9-.8c.1-.5-.2-1.1-1.1-.9a.1.1,0,0,0,0,.2,1.42,1.42,0,0,1,.6.2c.3.3.1,1-.7.9h-.2c-.1,0-.2.1-.1.2a.1.1,0,0,0,.1.1H32c.2.1.2.5-.2.7a1.42,1.42,0,0,1-.6.2h-.6a.1.1,0,0,1-.1-.1c-.2-.1-.3.2-.1.3s.2.5-.2.7a.75.75,0,0,1-.8-.1c-.1-.1-.1-.2-.2-.3s-.1-.1-.2,0a.76.76,0,0,0-.1.4c0,.1.1.2.2.3a.63.63,0,0,1-.2.8c-.3.2-.8-.1-1.1-.4-.1-.1-.2-.1-.2,0s-.1.2,0,.2h0a2.19,2.19,0,0,1,.3.5c0,.1,0,.1-.1.2s-.7,0-.9-.1-.3-.2-.5-.3-.2,0-.2.1a.1.1,0,0,0,.1.1c0,.3-.2.3-.5.4a1,1,0,0,1-1-.3c-.1-.1-.2-.3-.3-.4s-.1-.1-.2-.1a.1.1,0,0,0-.1.1c0,.2.1.3.2.5s-.2.2-.5.1a1.24,1.24,0,0,1-.6-.8c0-.1-.1-.1-.2-.1s-.1.1-.1.2.1.2.1.3a.6.6,0,0,1-.1.4c-.3.1-.6-.3-.7-.6s-.2-.3-.3-.3h0a1.4,1.4,0,0,0,.9,1.2.55.55,0,0,0,.5-.3,1.27,1.27,0,0,0,.7.4,3.63,3.63,0,0,0,.7,1.7,2.35,2.35,0,0,1-1.1-1.1h0c-.1-.2-.3,0-.3.1a1.06,1.06,0,0,1,.1.8c-.2.3-.6.2-1-.5a1.16,1.16,0,0,0-.2-1,.1.1,0,0,0-.2,0v.2a1.7,1.7,0,0,0,.1.7c-.4.8-1.5-.4-1.2-1.9,0-.1,0-.1-.1-.1h0c-.1,0-.1,0-.1.1-.4,1.4.8,3.1,1.6,2.3.6,1.2,1.5.8,1.6,0,.8,1,1.7.8,1.9.3.9.8,2,.7,2-.2.8.7,1.7.3,1.8-.3,1,.9,2.4.4,2.2-.8.6.2,1.6.3,1.7-.3a.6.6,0,0,0-.1-.4h.2A1.48,1.48,0,0,0,34.56,19.51Z"/></g><g id="Group_6657" data-name="Group 6657"><path id="Path_32001" data-name="Path 32001" class="cls-2" d="M26.64,16.41a1.42,1.42,0,0,1-.6-.2c-.1,0-.1,0-.1.1v.1a1.09,1.09,0,0,0,1.5,0,.66.66,0,0,0,.1-.6c.8,0,1.4-.5,1.1-1a1.34,1.34,0,0,0,.7-.6c.1-.2.1-.4-.1-.5.2-.1.3-.3.5-.5s.3-.3.1-.5h0c-.1-.2-.4-.1-.3.1s0,.4-.2.4h0c-.2.1-.4.3-.6.4a.1.1,0,0,0-.1.1c-.1.1,0,.3.1.2s.3-.2.3-.1-.2.2-.2.3a2.51,2.51,0,0,1-.7.4h0c-.1,0-.1.1-.1.2s.1.1.2.1h0c.1,0,.3.3-.3.5a1.7,1.7,0,0,1-.7.1c-.4-.2-.4.1-.3.2s.2.1.3.1a.31.31,0,0,0,.1.2C27.34,16.21,27.14,16.51,26.64,16.41Z"/></g><g id="Group_6658" data-name="Group 6658"><path id="Path_32002" data-name="Path 32002" class="cls-2" d="M29.43,15.37h0s-.1-.1-.1,0-.1.1,0,.1a1.34,1.34,0,0,0,.6.7H30v-.1A3.19,3.19,0,0,1,29.43,15.37Z"/></g><g id="Group_6659" data-name="Group 6659"><path id="Path_32003" data-name="Path 32003" class="cls-2" d="M29.92,15.38h0c-.1,0-.1,0-.1.1.3.7,1.1,1,1.1.7,0-.1-.3-.2-.4-.2A1.7,1.7,0,0,1,29.92,15.38Z"/></g><g id="Group_6660" data-name="Group 6660"><path id="Path_32004" data-name="Path 32004" class="cls-2" d="M30.59,15.73c.6.5.6.5.7.5s.1,0,.1-.1h0l-.3-.3c-.3-.2-.4-.3-.5-.2S30.49,15.73,30.59,15.73Z"/></g><g id="Group_6661" data-name="Group 6661"><path id="Path_32005" data-name="Path 32005" class="cls-2" d="M31.62,12.84a15.22,15.22,0,0,0,5.4-2.3v-.1h-.1a19.83,19.83,0,0,1-2,1.1,21.9,21.9,0,0,1-3.3,1.2c0-.1-.1-.1,0,.1Z"/></g><g id="Group_6662" data-name="Group 6662"><path id="Path_32006" data-name="Path 32006" class="cls-2" d="M27.74,12.92h0c.2-.3.4-.5.6-.8a12.88,12.88,0,0,1,1.7-1.6c3.7-2.9,3.6-3.9,4-4.7a1.39,1.39,0,0,1,.2,1.1,5.07,5.07,0,0,1-.7,1.5c-.1.1.1.2.2.1,1.2-1.3,1-2.5.3-3h-.2v.2a6.11,6.11,0,0,1-.7,1.4c-1.2,1.8-2.4,2.2-4.1,3.9a14.08,14.08,0,0,0-1.3,1.9Z"/></g></g></g></g><g id="Group_6667" data-name="Group 6667"><g id="Group_6655-2" data-name="Group 6655-2"><g id="Group_6654-2" data-name="Group 6654-2"><path id="Path_31995-2" data-name="Path 31995-2" class="cls-5" d="M28.85,13.1s1.29-.6,2-.9c5.5-2.6,6-4.1,6.4-3,.2.4-.2,1.1-.5,1.5C35.85,11.6,32.54,13.2,28.85,13.1Z"/><path id="Path_31996-2" data-name="Path 31996-2" class="cls-5" d="M44.24,24.2c-.5-.5-2.9-.7-3.4-1-.7-.4-1.6-1.2-2.4-.5a.83.83,0,0,0-.3.8c.2,1.6-1.7.6-3.1,2.4.1-.2-2.1-.8-2.9-1.1,0-1.9-2.6-2.8-3.8-2.9a6.89,6.89,0,0,0-.3-.8,1.42,1.42,0,0,1,.6-.2c1.1.4,3,1,3.2-.1h0c1.9.9,3.8.2,3-.9,2.7,1.1,3.1-.9,2-1.3a3.55,3.55,0,0,0,1,.2c1.4-.1,1.8-1.8.1-2,1.1.1,4.7.3,4.4-1.5a14.08,14.08,0,0,1-4.5-.7c1.3.1,2.6.5,4.5-.5,1.2-.6,1.1-1.4.8-1.6a40.46,40.46,0,0,1-5,.8,4.64,4.64,0,0,0,3.7-2.6,6.15,6.15,0,0,0,.3-1.1,46.49,46.49,0,0,1-9.7,3.4c-1.1.3-2.4.2-3.4.9-2.9,2.1-2.8,2.7-4.8,2.4v-.1a.66.66,0,0,0,.4-.5,1.22,1.22,0,0,0,1.5-.9,1,1,0,0,0-.4-1.2,1.23,1.23,0,0,0,1.6-.4,1.26,1.26,0,0,0-.5-1.6,1.05,1.05,0,0,0,.1-2.1c1.1-.6,1.2-2.6-1-2.8a2,2,0,0,0-3-1.6c-.2-1.3-2.1-1.3-2-1.2a2,2,0,0,0-1.1.3h-.1c-.8-.8-2-.3-2.5.8h-.4l-.7-1.1c1.2-2.2-1-2.7-1.3-1.8a.74.74,0,0,0,.4.9h.1c.1,0,.2.1.1.2h0a3,3,0,0,1-1.3,1.4c-4.9,3.3-9,5.3-7.9,10.4-.9-.4-1.7.4-.9,1.1v.4h0c0,.1.1.1.1.2s.1.2.1.3c-.2.4.1.7.5,1-1.4,4.7,2.4,7.1,6.7,10.9a3.74,3.74,0,0,1,1.1,1.6h0a.1.1,0,0,1-.1.1.66.66,0,0,0-.6.7v.1c.2.9,2.4.7,1.5-1.5l3-3.9c1.2,3.3,4.4,3.4,5.7,3.6a10.22,10.22,0,0,1,.1-3.5,9.85,9.85,0,0,0,.6,4.5c.8,1.7,2.8,4.5,4.8,4.7a16.25,16.25,0,0,0,3.8-.3l-.3-.3a4.81,4.81,0,0,1-.8-1.6c-.2-.6-.1-1.2-.3-1.8,0-.1-.1-.2-.1-.4s-.4-1.1-.4-1.2c-.2-.5-.7-1-.5-1.5a4.34,4.34,0,0,0-1.3-4.6c3.9,2.8.1,5.4,2.5,6.4h0a1.27,1.27,0,0,0,.6.1,5.7,5.7,0,0,0,1.3.1A12.29,12.29,0,0,0,36,30a2.45,2.45,0,0,0,1.2-.4,3.59,3.59,0,0,0,.7-1l.9-1.5a4,4,0,0,1,1.1-1.9,6.47,6.47,0,0,1,1.3-.4c2.1-.5,1.2-.5,2.7-.6C44.44,24.4,44.24,24.2,44.24,24.2ZM17.54,5.9l6,10h0l-6-10.1Zm-1.2,4.5A1.67,1.67,0,0,1,18,9.8c.1,0,.1.1.1.2-.2.2-.2,0-.9.1a3.55,3.55,0,0,0-.9.4C16.25,10.6,16.14,10.5,16.34,10.4Zm1.41.7c0,.1-.2.1-.3.1h-.7a.36.36,0,0,0-.3.1.92.92,0,0,1,.6-.4h.5c.09.1.29.1.2.2Zm-1.5-7,.5.9a1.61,1.61,0,0,0-1,1.7A1.23,1.23,0,0,0,14.64,8a1.11,1.11,0,0,0,1.11,1.1c-.3,1.4.3,1.8.1,2.3-.1.3-.5.4-.5.7s.2.5.2.7a2.76,2.76,0,0,0,.6,1.9,3.6,3.6,0,0,0,2.2.9c.1.1.1.2.2.3v.2a8.27,8.27,0,0,0-3.5.1h-.4c-1.8-.8-4.5-.2-5.3-.4,0-.1.1-.2.1-.3a.37.37,0,0,0-.1-.3,1.21,1.21,0,0,0-1-.3C8,9.5,14.34,7,16.25,4.1Zm-1.5,25.8c-1.4-2.9-7.1-6-6.7-11.1a2.77,2.77,0,0,0,.9-.1c.1-.1.2-.2.2-.3h.1c.8,0,3.2,1.2,4.6,1.2a3.75,3.75,0,0,1,1.1.1,5.25,5.25,0,0,1,1.1.7,5.5,5.5,0,0,0,1.2,3.5c.2.5.2,1.1.5,2.1ZM8,16.7l.19-.2,11.3.7v.2Zm10.5,8.7v-.1L22,20.7a.1.1,0,0,1,.1.1Zm4.4-6.2c0,.1-.1.1-.1.2s.2.1.29.3a.1.1,0,0,1-.1.1.44.44,0,0,1-.5.1.37.37,0,0,1-.3-.1c-.2-.1-.2-.2-.29-.4s-.3-.1-.4-.3a.44.44,0,0,1-.1-.5.68.68,0,0,1,.5-.3c.1,0,.2-.1.29-.1l.11-.1h0c-.21.1-.3.2-.5.3a.35.35,0,0,0-.21.1c-.2.1-.1.3,0,.5s.21.2.3.2a.6.6,0,0,1,.1-.4c.1-.1.2-.1.3-.2a.76.76,0,0,1,.4-.2s.1,0,0,.1a1.38,1.38,0,0,1-.4.3c-.1.1-.2.1-.3.2v.4c0,.2,0,.2.2.2a1.24,1.24,0,0,0,.61,0c.1-.1.1-.2,0-.2h0s-.21.1-.21,0,0-.2.1-.2.21-.3.3-.2a1.82,1.82,0,0,0,2,.1v.2a2,2,0,0,1-2.09-.1Zm2.5.4v-.2a5.43,5.43,0,0,0,6.2-.4l.3-.3c.1,0,.1-.1.2-.1s.1,0,.1-.1.2-.2.2-.3-.1-.2-.3-.3a9.14,9.14,0,0,0-1.4-.7,10.93,10.93,0,0,0-1.7-.5,17,17,0,0,0-3.9-.1c-.8,0-1.6.1-2.4.1a4.87,4.87,0,0,0-1.2.1.52.52,0,0,0-.4.2c-.1.1-.1.2-.1.4h.5c.1,0,.4-.1.5,0a.6.6,0,0,1-.4.1c-.2,0-.4.1-.6.1v.6c-.1,0-.1-.1-.2-.2s0-.3,0-.4h0a.64.64,0,0,1,0-.6.86.86,0,0,1,.6-.3c.6,0,1.3-.1,1.9-.1s1.3-.1,2-.1h1.9a9.88,9.88,0,0,1,4.4,1.1,2.09,2.09,0,0,1,.6.4.44.44,0,0,1,.1.5c0,.1-.1.1-.2.2h-.2l-.1.1a2.69,2.69,0,0,1-.61.5,5.56,5.56,0,0,1-3.7,1.1,6.85,6.85,0,0,1-2.09-.8Z"/><path id="Path_31997-2" data-name="Path 31997-2" class="cls-5" d="M23.94,28.9c0,1.8.4,5.3,2.2,6.4a14.26,14.26,0,0,0,3.61,1.4,13.44,13.44,0,0,1,3.89,1.8,2.49,2.49,0,0,1,.71.7,17.61,17.61,0,0,1,1.4,2.3c0,.1.1.3.2.3s.7-.6.3-1.1c.1-.1.1-.2.2-.3.4-.9-.6-1.7-.5-2.6,0-.5.3-.8.2-1.3a1.42,1.42,0,0,0-.8-.9,4.87,4.87,0,0,0-1.2.1l-1.3-1.4a3.49,3.49,0,0,0-2.7-1.7,5.85,5.85,0,0,0,.2-1.3"/></g><path id="Path_31998-2" data-name="Path 31998-2" class="cls-5" d="M33.54,2.37a2,2,0,0,0,.3-1.5c0-.1-.1-.2-.2-.1a.22.22,0,0,0-.2.2,1.27,1.27,0,0,1-.7.9,2.84,2.84,0,0,1-1.3.4h-.7l-.6-.3c-.3-.2-.5-.3-.8-.5h.3a5,5,0,0,0,1.3-.4,2.19,2.19,0,0,0,1-.9c.1-.2-.2-.2-.2-.1a3,3,0,0,1-.8.8l-.6.3a1.45,1.45,0,0,1-.7.2,3,3,0,0,1-1.3-.5A3,3,0,0,0,27,.67a4.7,4.7,0,0,0-3,1.4,2.23,2.23,0,0,0-.6,1.3v.7a.52.52,0,0,0,.2.4.76.76,0,0,0-.2.4h0a4.88,4.88,0,0,1,.3.7.52.52,0,0,1,.2.4H24a1.17,1.17,0,0,1,1,0,.37.37,0,0,0,.3-.1h.1l-.2-.2.1-.1a.76.76,0,0,0,.2-.5.1.1,0,0,0,.1-.1c0-.2.1-.3.3-.4a.64.64,0,0,1,.6,0,5,5,0,0,1,1.3.5c.4.2.7.5,1.1.7a3.08,3.08,0,0,0,1.3.3,1.55,1.55,0,0,0,1.1-.8v-.2h-.2a1,1,0,0,1-.9-.1h1.4a2,2,0,0,0,1.6-1.2,2.66,2.66,0,0,0,.3-1.2C33.64,2.47,33.64,2.47,33.54,2.37Z"/></g><path id="Path_31999-2" data-name="Path 31999-2" class="cls-5" d="M1.34,16.47v.8a.32.32,0,0,0,.3.3c.1,0,.1,0,.2-.1h.7c.1.1.2.1.4.1s.3.1.4.2a3.55,3.55,0,0,1,.9.4l.2.1h.1c.1,0,.1.1.2.1s.3.1.4.2.3.1.4.1.1,0,.2.1h.1a1.48,1.48,0,0,0,.7.1H7a14.77,14.77,0,0,0,2.1.1c.7,0,3.4.2,4.1.2h1c.2,0,.3-.1.4-.3l.1-.1v-.1c.1-.1.1-.2.2-.4a4.13,4.13,0,0,0,.2-1.9c0-.1-.1-.3-.1-.4a.76.76,0,0,0-.2-.4s.1-.1,0-.1h0a.76.76,0,0,0-.4-.2h-.1a17,17,0,0,1-2.2-.1c-.7,0-3.4-.2-4.1-.2H5.64a.6.6,0,0,0-.4.1c-.1,0-.3.1-.4.1s-.3.1-.4.1l-.9.3c-.2,0-.3.1-.5.1s-.3.1-.4.1h0a.1.1,0,0,1-.1-.1l-.1-.1a.3.3,0,0,0-.4,0H2a.37.37,0,0,0-.3-.1c-.1.1-.2.2-.2.3A1.08,1.08,0,0,0,1.34,16.47Z"/></g></g></g></g></svg>