<svg xmlns="http://www.w3.org/2000/svg" viewBox="0 0 37.4 36.27"><defs><style>.cls-1{fill:#309bf2;}.cls-2{fill:#d4bfaa;}.cls-3{fill:#fff;}.cls-4{fill:#3045e2;}.cls-5{fill:#322722;}</style></defs><g id="圖層_2" data-name="圖層 2"><g id="圖層_1-2" data-name="圖層 1"><g id="head8"><path class="cls-1" d="M19.9,0h-.3c-1.6.1-3.4-.2-5,.6a9.3,9.3,0,0,1-2.7,1.2c-1.6.5-2.4,2-3.1,3.4-1,1.5-1.9,3.3-1.5,5.2.3,1.4.5,2.8.9,4.2.2.3.2.7-.2.8-.4.4-.2,1.1-.2,1.7.5,1.2,1,2.4,1.4,3.6.2.6.6,1.4,1.3,1.4.5.9.4,2.1,1.1,3a16.2,16.2,0,0,1-.1,2.2c-.2,1-.1,2.4-1.1,3-3,1.6-6.2,2.9-9.1,4.6-.4.1-.8.6-1.2.5v.4a20.59,20.59,0,0,1,3.3-1.7c2,.5,4,1.1,6,1.5a73,73,0,0,0,13.2.6,18.82,18.82,0,0,0,7.3-1.9c.7-.2,1.3-.9,2.1-1,1.7.6,3.1,1.8,4.8,2.5.1,0,.5.3.6.1a16.09,16.09,0,0,0-2.8-1.7c-1.9-1.1-3.9-2-5.8-3.2-.3,0-.3-.4-.6-.4-1-.8-2.3-1.1-3.1-2.1-.1-1.2-.1-2.4-.3-3.6.2-1.2.6-2.3.8-3.5.1-.6.8-.5,1-.9.7-1,.7-2.2,1.2-3.3a5,5,0,0,0,.3-2.7c-.2-.5-.9-.2-1.2-.5.2-1.5.3-3,.6-4.5a11.43,11.43,0,0,0-.7-3.2A12.43,12.43,0,0,0,23.6,2a6,6,0,0,0-3.7-2Z"/><path class="cls-2" d="M19.1,6.6a4.55,4.55,0,0,0-1.9.8c-.3.2-.5.6-.9.5s-1.1,0-1.3.5c-.4.5-.6,1.3-1.3,1.3-.9.1-2-.3-2.6.6a2,2,0,0,0-.1,2.2c.2.3-.4,0-.2.3a2.77,2.77,0,0,1,.1,2c-.3.2-.7.3-.7.7-.1.2.1.6-.1.7-.4,0-.1.6-.1.8a42.91,42.91,0,0,0,1.6,7.1c.5,1,1.6,1.6,2.4,2.3a15.86,15.86,0,0,0,2.7,1.8,11.33,11.33,0,0,0,3.2-.1c1.2-.3,1.9-1.5,2.8-2.2s1.9-1.4,2.1-2.6c.5-2.4.9-4.8,1.3-7.1,0-.7.2-1.5-.3-2.1-.4-.2-.2-.9-.5-1.3-.3-.6.2-1.4-.3-2-.3-.7-.1-1.5-.6-2.1s-1-1.3-1.8-1.1c-.8-.1-1.8.3-2.4-.3-.4-.3-.7-.7-1.1-.7Zm-5.5,6.1a4.79,4.79,0,0,1,2.6.9c.1.6-.7.8-1.1.5a3.09,3.09,0,0,0-2.5-.4c-.4,0-.9.3-1.2.1-.1-.7.9-1.1,1.4-1.1h.8Zm8.8,0h.3c.7,0,1.6.1,1.8.8.1.5-.6.3-.8.3a3.47,3.47,0,0,0-2.8.3.78.78,0,0,1-1.2-.4,3.84,3.84,0,0,1,1.8-.9c.3,0,.6-.1.9-.1Zm4.9,1.7c-.4,0-1,.5-.8.9.2.1.4-.3.7,0s.2.8.1,1.2a3.69,3.69,0,0,1-.7,1.4c-.1-.7.7-1.3.5-2.1,0-.3-.4-.2-.5,0a7.17,7.17,0,0,0-.5,2.1,21.66,21.66,0,0,0-.4,2.5c.2.3.5-.1.6-.3.4-.9.6-1.9,1-2.8a7,7,0,0,0,.5-2.5c-.1-.2-.3-.5-.5-.4Zm-5.5.2h.1c.7.1,1.4.1,1.8.7a2.78,2.78,0,0,1-2.1.8,2.11,2.11,0,0,1-1.7-.6,3.1,3.1,0,0,1,1.9-.9Zm-7.7,0h.2a2.23,2.23,0,0,1,1.8,1c-.1.4-.7.4-1,.4a3.57,3.57,0,0,1-2.5-.5c-.2-.1-.4-.2-.2-.4a3.37,3.37,0,0,1,1.7-.5Zm5,.3h0c.3.1.2.6.2.8,0,.9.2,1.8.2,2.6-.4-.2-.2-.9-.4-1.2.1-.8-.1-1.5,0-2.2Zm-10.6.4c-.4.1-.3.6-.4.9a2.45,2.45,0,0,0,.4,1.2c.3-.1,0-.5.1-.7s.1-.8.5-.6a.22.22,0,0,0,.3-.3,2.62,2.62,0,0,0-.9-.5ZM9,16.5c-.3.2-.1.6,0,.9s.2.5.3.7c-.2-.1-.3-.5-.6-.6-.2.2.1.5.2.7.4.8.5,1.8.9,2.6.1.3.3.9.7.8s0-.6,0-.9c-.3-1.2-.4-2.4-.6-3.6-.4-.1-.6-.5-.9-.6Zm11.3,2.7c.6.5,0,1.6-.8,1.4-.5-.2-.9.3-1.3.2s-.8-.6-1.3-.4-1,.1-1-.5c-.1-.1.1-.4.1-.1.1.6.9.4,1.3.2s.8.6,1.2.5c.4-.4.9-.3,1.4-.3s.3-.7.4-1ZM22,22.6h0c0,.6-.8.7-1.2,1a40.08,40.08,0,0,1-4.9-.1c-.3-.1-.9-.4-.9-.8a2.72,2.72,0,0,0,1.7.6,12.16,12.16,0,0,1,3.3,0,3.46,3.46,0,0,0,2-.7ZM19.1,24c.1,0,.2,0,.2.1-.3.4-.9.2-1.3.2a1.8,1.8,0,0,1-1-.2,7.57,7.57,0,0,1,1.5-.1Zm5.2,1h0c-1.4.9-2.4,2.3-3.8,3.3a7.5,7.5,0,0,1-3,.3c-1.5.1-2.7-1.1-3.8-1.9A10.38,10.38,0,0,0,12,25.5c-.3.3-.1.9-.2,1.3-.2,1.1-.1,2.4-.8,3.3a13.83,13.83,0,0,1-2.7,1.4A23.41,23.41,0,0,0,5.6,33c0,.4.5.4.8.5,2.7.6,5.5.8,8.2,1.2a28.79,28.79,0,0,0,8.3-.2,23.54,23.54,0,0,0,6.8-2.2c.2-.3-.4-.5-.5-.7a18.76,18.76,0,0,0-3.6-2.1,1.76,1.76,0,0,1-1-1.7,6.72,6.72,0,0,0-.3-2.8Z"/><path class="cls-3" d="M22.2,14.9h-.3c-.9,0-1.6.3-1.6.6s.6.6,1.5.5,1.8-.4,1.8-.7-.7-.4-1.4-.4Zm-8,0c-.9,0-1.6.2-1.6.5s.9.6,1.8.6,1.4-.3,1.4-.6-.7-.5-1.6-.5Z"/><path class="cls-4" d="M14.8,1.3a4.06,4.06,0,0,0-2.9,1.6c-.2.1-.1.5.2.3.7-.3,1.1-1,1.8-1.1a9.72,9.72,0,0,1,3.8.5c.2,0,.5-.2.3-.3a6.33,6.33,0,0,0-3.2-1Zm5.1,1h-.3a2.6,2.6,0,0,0-1.5.4,4,4,0,0,0-1.4,1.5c-.1.2.3.5.5.2A6.2,6.2,0,0,1,20.4,3a9,9,0,0,1,1.6.3c.2-.2-.2-.4-.4-.5a4.8,4.8,0,0,0-1.7-.5Zm3.8.3c-.2.1,0,.5,0,.7a.66.66,0,0,0,.4.5c.1.1.6.3.5-.1a1.86,1.86,0,0,0-.9-1.1ZM14.4,3.8a3,3,0,0,0-2.2,1,3.81,3.81,0,0,1-1.7.8A4.41,4.41,0,0,0,8.1,7.4a3.72,3.72,0,0,0-.3,3.4,4.74,4.74,0,0,0,3,2.7c.2-.1.1-.4,0-.6-.3-.1-.6-.1-.8-.4A4.63,4.63,0,0,1,8.3,8.8a3.06,3.06,0,0,1,2.2-2.2c.9-.3,1.9-.3,2.6-1a2.69,2.69,0,0,1,2.8-.8,4.83,4.83,0,0,1,1.4.9c.3-.1-.1-.4-.2-.5a2.89,2.89,0,0,0-1.9-1.3c-.2,0-.5-.1-.8-.1Zm8.7,1c-.3,0-.1.4,0,.5s.1.5.3.5a2,2,0,0,1,1.4.8,2.49,2.49,0,0,1,.3,1.7c-.1.3,0,.8-.3,1.1-.1-.1-.3-.1-.2.1s0,.6.2.7a2.26,2.26,0,0,0,.8-1.1,4.48,4.48,0,0,0-.1-2.8,3.47,3.47,0,0,0-2.4-1.5Zm-3.3.6h0a3.75,3.75,0,0,0-1.9.9c-.2.1-.4.6-.1.6.5-.3,1.1-.7,1.7-.5.4.2.7.7,1.1.9h2.7c.3.2.5.4.8.6.3,0,.1-.3,0-.4a2.84,2.84,0,0,0-2.2-1A1.35,1.35,0,0,1,20.7,6c-.3-.2-.5-.6-.9-.6ZM15.2,6.8c-.8,0-1.1.8-1.5,1.3-.5.7-1.4.4-2.1.6a1.83,1.83,0,0,0-1.3.8,2.59,2.59,0,0,0-.2,2.1c.3,0,.1-.5.2-.7a2,2,0,0,1,1.4-1.5,14.08,14.08,0,0,1,2-.1c.5-.3.6-1,1-1.3a1.27,1.27,0,0,1,1.5-.4c.3,0,.1-.3,0-.4a1,1,0,0,0-1-.4ZM27,9h0c-.5.7-1,1.3-1.5,2a2.15,2.15,0,0,0-.2,1.1c.3.2.5-.3.6-.4A3.62,3.62,0,0,0,27,9Z"/><path class="cls-5" d="M19.4.1a4.87,4.87,0,0,0-1.2.1q-.45.15-.6,0H16.3c-.1,0-.3,0-.3.1s-.2.1-1,.3a3,3,0,0,0-.8.4,2.09,2.09,0,0,1-.6.4c-.2.1-.3.2-.4.2H13c-.1,0-.1,0-.2.1a.37.37,0,0,1-.3.1h-.3c-.1.1-.4.1-.7.3A4,4,0,0,0,9.9,3.4c0,.1-.1.2-.2.3s-.3.4-.4.7a.76.76,0,0,0-.2.4.1.1,0,0,1-.1.1H9a.1.1,0,0,0-.1.1v.1a.1.1,0,0,1-.1.1c0,.1-.1.2-.2.4a2.18,2.18,0,0,1-.5.8,3.63,3.63,0,0,0-.7,1.7v.3h0a4.48,4.48,0,0,0,.1,2.8h0v.4a.75.75,0,0,0,.1.5.37.37,0,0,1,.1.3v.1h0v.2c0,.1,0,.2.1.2,0,.2.1.5.1.8a2.15,2.15,0,0,0,.2,1,.1.1,0,0,0,.1.1h0c0,.1.1.2.1.3v.1H8.2a.52.52,0,0,0-.4.2c-.1.1-.1.2-.2.4v.7c0,.2,0,.5.1.6v.1h0v.1l.1.1c0,.1,0,.1.1.2l.1.1a.35.35,0,0,1,.1.2.37.37,0,0,1,.1.3.31.31,0,0,0,.1.2c0,.1.1.2.1.3s.1.2.1.3a.35.35,0,0,0,.1.2.35.35,0,0,1,.1.2h0v.2h0v.1a.31.31,0,0,0,.1.2.76.76,0,0,0,.2.4c0,.1.1.2.1.3a1.85,1.85,0,0,0,.2.7,1,1,0,0,0,.4.5c.1.1.2.1.2.2a.31.31,0,0,0,.2.1c.1,0,.1,0,.2-.1h0v.1c0,.1.1.2.1.4a2.92,2.92,0,0,1,.2.9,2.36,2.36,0,0,0,.7,1.5.35.35,0,0,1,.1.2v.4a6.62,6.62,0,0,1-.1,1.5,3.55,3.55,0,0,1-.1.7,4.33,4.33,0,0,0-.1.5c0,.3-.1.5-.1.7s0,.1-.1.3a2.84,2.84,0,0,1-.6.9,3.33,3.33,0,0,1-.6.3,3.33,3.33,0,0,0-.6.3c-.1.1-.3.1-.3.2a.1.1,0,0,0-.1.1H8.6c-.1,0-.1.1-.2.1l-.6.3a2.12,2.12,0,0,1-.7.3c-.3.1-.8.4-1.3.6a3.33,3.33,0,0,0-.6.3,1.24,1.24,0,0,0-.3.2,8.92,8.92,0,0,1-1,.5c-.1.1-.3.1-.4.2s-.1,0-.1.1H3.3l-.1.1a.35.35,0,0,1-.2.1,2.19,2.19,0,0,1-.5.3,4.37,4.37,0,0,0-1,.6,3.11,3.11,0,0,0-.6.4l-.4.2a.1.1,0,0,0-.1.1H.2a.1.1,0,0,0-.1.1.31.31,0,0,0-.1.2v.1H.1a3.93,3.93,0,0,0,.6-.2.31.31,0,0,1,.2-.1H1v-.1h.1a.1.1,0,0,0,.1-.1c.1,0,.3-.2.5-.3l1.4-.7c.1,0,.2-.1.3-.1s.1,0,.2.1.2.1.3.1.2.1.3.1a2.35,2.35,0,0,0,.8.2h.3a.37.37,0,0,1,.3.1.37.37,0,0,1,.3.1c.2,0,.3.1.5.1a.9.9,0,0,0,.5.1h.3c.1,0,.2,0,.2.1a.1.1,0,0,1,.1.1h.2c.1,0,.1,0,.2.1s.4.1.6.1.5,0,.6.1a4.33,4.33,0,0,1,.5.1.6.6,0,0,1,.4.1H22.8c.2,0,.5-.1.7-.1a7.75,7.75,0,0,1,.9-.1,12.86,12.86,0,0,0,1.9-.4A6.37,6.37,0,0,0,27,35a.35.35,0,0,0,.2-.1.1.1,0,0,0,.1-.1h0v.1h.1a6.6,6.6,0,0,0,1.1-.4c.1,0,.1-.1.2-.1h.2a.31.31,0,0,0,.2-.1.76.76,0,0,0,.4-.2c.1,0,.1,0,.1-.1h.2a.31.31,0,0,0,.2-.1,1.06,1.06,0,0,1,.5-.2.35.35,0,0,0,.2-.1.1.1,0,0,0,.1-.1H31l.1-.1a.76.76,0,0,1,.4-.2h.1v-.1h0a.35.35,0,0,1,.2-.1l.2-.1.2.1c.1,0,.1.1.2.1h.1a.1.1,0,0,0,.1.1h.1v-.1h0v.1c0,.1.1.1.1.2s.2.1.3.1h.1a.1.1,0,0,0,.1.1h.2c.1.1.1.1.2.1h.1a.1.1,0,0,0,.1.1H34c.1.1.2.2.3.2s.1,0,.1.1h.1a.1.1,0,0,1,.1.1l.1.1h.1v.1H35a.1.1,0,0,1,.1.1,2.19,2.19,0,0,0,.5.3c.1,0,.1.1.2.1h.1a.1.1,0,0,1,.1.1,3.22,3.22,0,0,0,.7.4.6.6,0,0,0,.4.1h.1l.1-.1h0v-.2c0-.1-.1-.1-.1-.2l-.1-.1H37c-.1,0-.1-.1-.2-.1a2.19,2.19,0,0,1-.5-.3,15734929547255,15734929547255,0,0,0-.4-.2h-.1l-.1-.1c-.1,0-.2-.1-.3-.1s-.2-.1-.3-.1a.1.1,0,0,1-.1-.1h0l-.1-.1c-.1,0-.1-.1-.2-.1s-.1-.1-.2-.1h-.2c-.1,0-.1-.1-.2-.1a2.19,2.19,0,0,0-.5-.3c-.1,0-.1,0-.2-.1l-.1-.1a.35.35,0,0,0-.2-.1H33a.1.1,0,0,1-.1-.1,6.13,6.13,0,0,1-.6-.4c-.1-.1-.3-.1-.4-.2a.1.1,0,0,1-.1-.1h-.1c-.1,0-.2-.1-.3-.1h-.1a.1.1,0,0,1-.1-.1l-.1-.1H31v-.1h-.2c-.1,0-.2-.1-.3-.2s-.2-.1-.3-.2h-.1l-.1-.1c-.1-.1-.2-.2-.3-.2a3980657295328.38,3980657295328.38,0,0,0-.2-.2h0l-.1-.1-.1-.1H29c0-.1,0-.1-.1-.2s-.1-.1-.2-.1a.1.1,0,0,1-.1-.1h0v-.1l-.1-.1a1,1,0,0,0-.3-.1c-.1-.1-.2-.1-.3-.2a.1.1,0,0,1-.1-.1h-.1c-.1,0-.2-.1-.3-.1s-.2-.1-.3-.1a.1.1,0,0,1-.1-.1h-.2a.35.35,0,0,0-.2-.1h-.1v-.1h-.1a.1.1,0,0,1-.1-.1l-.1-.1-.1-.1h0a.1.1,0,0,0-.1-.1l-.1-.1h0v-.1h-.1v-.3h0V26.8h0v-.3c0-.2-.1-.4-.1-.6a6.61,6.61,0,0,1-.1-1.1v-.2c0-.1.1-.2.1-.3a6.2,6.2,0,0,0,.4-1.4,2.2,2.2,0,0,0,.1-.8v-.5h0v-.1a.1.1,0,0,1,.1-.1V21a.44.44,0,0,1,.3-.1.76.76,0,0,0,.5-.2,1.24,1.24,0,0,0,.2-.3c.1-.1.1-.3.2-.4s.1-.3.2-.4,0-.1.1-.1v-.1a.77.77,0,0,1,.1-.3,4.55,4.55,0,0,1,.3-1.1c0-.1,0-.1.1-.2h0v-.1h0v-.1c0-.1.1-.1.1-.2a1.88,1.88,0,0,0,.2-.8h0v-.3a5.64,5.64,0,0,0,.1-.7,3.54,3.54,0,0,1,.1-.6v-.3c0-.1-.1-.2-.1-.3l-.3-.3a.37.37,0,0,0-.3-.1,1.76,1.76,0,0,0-.6.1h-.1V14a4.33,4.33,0,0,0,.1-.5c.1-.4.1-.6.2-1.2a2,2,0,0,1,.1-.8c0-.2.1-.5.1-.6a2,2,0,0,1,.1-.7,5.07,5.07,0,0,0,.2-.9,1.27,1.27,0,0,0-.1-.6,1.49,1.49,0,0,1-.1-.6c0-.1-.1-.3-.1-.4s-.1-.3-.1-.4a4.33,4.33,0,0,1-.1-.5h0a5.7,5.7,0,0,0-1.1-2.2c-.1-.6-.7-.9-.9-1.4h0A2.78,2.78,0,0,0,24.5,2c-.1-.1-.2-.1-.3-.2L24,1.6l-.1-.1h0V1.4l-.1-.1-.2-.2a11.82,11.82,0,0,0-4.2-1Zm-.2.2h0A4.19,4.19,0,0,1,22.8,2h0a.1.1,0,0,0,.1.1,1.89,1.89,0,0,1,.4.6,4.33,4.33,0,0,1,.1.5l.1.3h-.6a.1.1,0,0,1-.1-.1,2.83,2.83,0,0,0-1.5-1.7,2.19,2.19,0,0,1-.5-.3c-.1,0-.1-.1-.2-.1h-.1a.31.31,0,0,1-.2-.1,2.6,2.6,0,0,0-2.8.3.1.1,0,0,0-.1.1h-.1a3.93,3.93,0,0,1-.6-.2c-.1,0-.1-.1-.2-.1h-.1l.1-.1c.1-.1.3-.1.5-.2s.6-.3.7-.3a.6.6,0,0,1,.4-.1h.3a2.61,2.61,0,0,1,.8-.3ZM16.7.5H17a.35.35,0,0,1-.2.1,2.19,2.19,0,0,1-.5.3l-.2.2L15.6,1h-1l.1-.1a.31.31,0,0,0,.2-.1.31.31,0,0,0,.2-.1c.2-.1.3-.1.3-.2h.2a.37.37,0,0,0,.3-.1,2.81,2.81,0,0,0,.8.1Zm2.4.9h0a3.74,3.74,0,0,1,1.5.5,9.22,9.22,0,0,1,.8.5,1.44,1.44,0,0,0,.3.2.31.31,0,0,0,.2.1.1.1,0,0,0,.1.1h0a.1.1,0,0,1-.1-.1,5,5,0,0,0-1.3-.5,3.33,3.33,0,0,0-1,0,.75.75,0,0,0-.5.1,1,1,0,0,0-.3.1h-.3c-.1,0-.2.1-.3.1l-.4.2-.2-.1a3.54,3.54,0,0,0-1.1-.3h-.2a4.23,4.23,0,0,0-2.2-.1,1.52,1.52,0,0,0-1.1.6c-.1.1-.2.2-.3.2a.31.31,0,0,1-.2.1c-.1,0-.2.1-.3.2H12a.31.31,0,0,1,.1-.2l.1-.1V2.9h.1a.35.35,0,0,1,.2-.1l.3-.3a2.09,2.09,0,0,1,.6-.4l.4-.2h.1c.1,0,.1,0,.2-.1a1.27,1.27,0,0,1,.6-.1h1.8a.1.1,0,0,1,.1.1c.1,0,.2.1.3.1a.35.35,0,0,1,.2.1.1.1,0,0,1,.1.1h.1c.1,0,.2.1.3.1s.3.2.4.2h.1V2.2h0a.35.35,0,0,0-.2-.1c-.1,0-.1-.1-.2-.1V1.9h0a.1.1,0,0,1,.1-.1.35.35,0,0,1,.2-.1,4.88,4.88,0,0,1,.7-.3ZM12.3,2h0c0,.1,0,.1-.1.2a4.5,4.5,0,0,0-.9,1c-.1.1-.1.2-.2.2h-.8q0-.15.3-.3a2.33,2.33,0,0,1,.9-.7c.2-.1.3-.2.5-.2a.1.1,0,0,0,.1-.1h0c.1,0,.1,0,.2-.1Zm7.5.5a2.22,2.22,0,0,1,.9.1.35.35,0,0,1,.2.1.1.1,0,0,1,.1.1l.1.1h.2c.1,0,.2.1.3.2s.2.1.3.2.1.1.2.1a.31.31,0,0,0,.2.1.1.1,0,0,1,.1.1v.1h0a.1.1,0,0,1-.1-.1c-.1,0-.2-.1-.4-.2A3.19,3.19,0,0,0,20,3.1c-.3.1-.9.3-1.4.5a9.67,9.67,0,0,0-1.2.7l-.2.2-.1.1h0L17,4.5l-.1-.1h0V4.3c0-.1.1-.2.2-.3s.1-.2.2-.3a.1.1,0,0,1,.1-.1h0l.1-.1c.1-.1.2-.2.3-.2s.2-.2.3-.2l.1-.1h.1a.1.1,0,0,0,.1-.1.76.76,0,0,1,.5-.2,2.92,2.92,0,0,1,.9-.2Zm-5.2.1a3.4,3.4,0,0,1,1,.1c.1,0,.3.1.4.1h.3c.1,0,.4.1.6.1s.2.1.3.1h.1v.2l-.2.2a.1.1,0,0,1-.1.1h0l-.1-.1a.1.1,0,0,1-.1-.1c-.1-.1-.2-.1-.4-.2a4.71,4.71,0,0,0-.9-.3,5.07,5.07,0,0,1-.9-.2h0Zm9.1.1a4.35,4.35,0,0,1,.6.7,1.27,1.27,0,0,1,.4.7h0a.1.1,0,0,1-.1-.1c-.1,0-.2-.1-.3-.1a.37.37,0,0,1-.3-.1c-.1,0-.1,0-.1-.1V3.3a.1.1,0,0,0-.1-.1h0V2.9c-.1,0-.1-.1-.1-.2ZM14.2,3h0a2.22,2.22,0,0,1,.9.1,6.37,6.37,0,0,0,.7.2h.1a1.69,1.69,0,0,1,.5.2c.1,0,.2.1.3.1h.2a.31.31,0,0,1-.1.2.31.31,0,0,0-.1.2.1.1,0,0,1-.1.1h-.1a.35.35,0,0,0-.2-.1,4.08,4.08,0,0,0-2.9-.2,3.26,3.26,0,0,0-1.4.9l-.3.3-.1.1h-.1v.1h-.1a1.09,1.09,0,0,0-.5.1h-.4l.1-.1c.1-.1.3-.2.4-.3l.4-.4a7.64,7.64,0,0,0,.9-.9,1.54,1.54,0,0,1,.6-.4,6.89,6.89,0,0,0,.8-.3c.1.2.3.1.5.1Zm6.1.5a5,5,0,0,1,1.2.2.92.92,0,0,1,.6.4c.1.2.2.4.4.9a3.33,3.33,0,0,0,.3.6l.1.1h-.1a.31.31,0,0,1-.2-.1c-.1,0-.3-.1-.4-.1s-.2-.1-.3-.2-.2-.2-.2-.3-.1-.2-.2-.3-.2-.2-.2-.3h0a2.44,2.44,0,0,0-2.2-.2c-.1,0-.2.1-.3.1h-.2a.35.35,0,0,1-.2.1,1.38,1.38,0,0,1-.4.3l-.3.3-.1.1h.1a.22.22,0,0,0,.2-.2,2.18,2.18,0,0,0,.5-.4,5.31,5.31,0,0,1,1.1-.3h1c.3.1.5.4.8,1,0,.1.1.1.1.2v.1h.2a4.33,4.33,0,0,0,.5.1,5.07,5.07,0,0,0,.9.2c.2,0,.4.1.6.1a.35.35,0,0,1,.2.1h.1v.1H24l.2.2a.76.76,0,0,1,.2.5,2,2,0,0,1,.1.9v.5h0V9h.2a.1.1,0,0,0,.1-.1,2,2,0,0,0,.1-.5c0-.2.1-.6.1-.9V6.8a2.54,2.54,0,0,0-.9-1.3h0l-.9-.3h-.1V5.1a.76.76,0,0,0-.1-.4.37.37,0,0,1-.1-.3V4.3h.2c.1,0,.2.1.3.1s.3.1.4.1a.35.35,0,0,1,.2.1.1.1,0,0,1,.1.1h.2a.1.1,0,0,1,.1.1l.1.1h.1a2.19,2.19,0,0,1,.9,1,4.68,4.68,0,0,1,.2,1.7A2.5,2.5,0,0,1,25.3,9c-.1.2-.2.3-.2.4l-.1.1h-.1l-.1.1v.1a.1.1,0,0,0,.1.1.19.19,0,0,0,.3,0q.15,0,.3-.3a2.19,2.19,0,0,1,.3-.5.1.1,0,0,1,.1-.1h0V8.8c0-.1.1-.1.1-.2h0a5,5,0,0,0-.2-3,2.17,2.17,0,0,0-.8-.9,3.1,3.1,0,0,0-1.3-.6h-.2c-.1,0-.2-.1-.5-.2-.1-.1-.3-.2-.3-.3s0-.1-.1-.1V3.4a.37.37,0,0,1,.3-.1,1.09,1.09,0,0,1,.5.1.37.37,0,0,1,.3.1H24a1.55,1.55,0,0,1,.6.3,3,3,0,0,1,.7.5,4,4,0,0,1,1.2,3c0,.7,0,.9-.3,1.3-.4.7-.6,1-1,1.2s-.5.3-.5.4v.2H25V12h0l.1.1c.1,0,.1.1.1.2s.1.2.1.4a3.54,3.54,0,0,0,.1.6c0,.1.1.1.1.2h.2A1.07,1.07,0,0,0,26,13c0-.1.1-.3.1-.4s0-.1.1-.1v-.1h0v-.1a.35.35,0,0,0,.1-.2l.1-.1v.1a3.22,3.22,0,0,1-.1.8l-.2.6H26v.6a.6.6,0,0,0,.1.4c0,.1.1.2,0,.4a8.92,8.92,0,0,1-.2,1.1,2.81,2.81,0,0,0-.1.8.6.6,0,0,1-.1.4c0,.1-.1.4-.2.8a5.07,5.07,0,0,0-.2,1.3c-.1.7-.3,1.4-.3,1.7a.37.37,0,0,1-.1.3v.4a3.77,3.77,0,0,1-.4,1.6,6.53,6.53,0,0,1-.9,1c-.1.1-.2.2-.3.2l-.1.1h0a.1.1,0,0,0-.1.1c-.1,0-.1.1-.3.2l-.4.4a3.29,3.29,0,0,1-.6.6,5.93,5.93,0,0,0-.8.8l-.1.1h-.1v.1h0a.1.1,0,0,0-.1.1c-.1,0-.2.1-.4.2a2.15,2.15,0,0,1-1,.2H16.9a4.33,4.33,0,0,1-.5-.1c-.1,0-.1-.1-.2-.1H16l-.1-.1a.1.1,0,0,0-.1-.1h-.1a20.89,20.89,0,0,1-3.1-2.4.1.1,0,0,0-.1-.1h-.2a.1.1,0,0,0-.1-.1l-.1-.1a.1.1,0,0,1-.1-.1l-.1-.1a.1.1,0,0,0-.1-.1h-.1l-.1-.1a.35.35,0,0,1-.1-.2,4.88,4.88,0,0,1-.3-.7c0-.1-.1-.2-.1-.3v-.4c0-.1-.1-.3-.1-.4a3.55,3.55,0,0,1-.2-1,2.35,2.35,0,0,1-.2-.8,1,1,0,0,0-.1-.4,1,1,0,0,1-.1-.4c0-.1,0-.2-.1-.2V19h0v-.1a1.09,1.09,0,0,0-.1-.5,3.08,3.08,0,0,1-.1-.9v-.3h0v-.1c0-.1,0-.3-.1-.3s-.1-.3-.1-.4-.1-.3-.1-.4v-.2h.3v-.3h0v-.9l.1-.1c.1,0,.2-.1.3-.1s.2-.1.3-.1v-.1a.1.1,0,0,0-.1-.1H9.8A2.83,2.83,0,0,1,8.3,13v-.2c0-.1-.1-.1-.1-.2h0a.1.1,0,0,0-.1-.1c0-.1-.1-.2-.1-.3a.37.37,0,0,0-.1-.3v-.1H8l.1.1a3.74,3.74,0,0,0,1.3,1.2,2.07,2.07,0,0,0,.6.2h.3a.1.1,0,0,0,.1-.1h.1a4,4,0,0,1-2.6-1.8,2.87,2.87,0,0,1-.7-1.8,3,3,0,0,1,.5-2.4,4.37,4.37,0,0,1,.7-.8L8.8,6c.1-.1.2-.2.3-.2l.1-.1h0l.1-.1c.1,0,.1-.1.2-.1a1.48,1.48,0,0,1,.7-.1c.2,0,.3,0,.4-.1h.2c.1,0,.1-.1.2-.1a1.87,1.87,0,0,0,.7-.6,2.48,2.48,0,0,1,1.5-.8,2.05,2.05,0,0,1,1.1,0,.6.6,0,0,1,.4.1c.1,0,.2,0,.2.1a.1.1,0,0,1,.1.1h0a.37.37,0,0,1,.3.1c.1.1.2.1.3.2a3.74,3.74,0,0,1,.6.7.35.35,0,0,0,.1.2l.1.1h.1V5.3c0-.1,0-.2-.1-.2V4.9a1.24,1.24,0,0,0,.2-.3,5.34,5.34,0,0,1,1-.7l.6-.3a.76.76,0,0,1,.4-.1c1.2.1,1.5.1,1.7,0Zm-9.6.2h.8a.35.35,0,0,0-.1.2l-.4.4a1.76,1.76,0,0,1-.5.4,1.44,1.44,0,0,1-.3.2.1.1,0,0,0-.1.1h0l-.1.1a1.38,1.38,0,0,1-.4.3c-.1,0-.1.1-.2.1v.2h0l-.1.1a3.29,3.29,0,0,0-.6.6l-.3.3h0l.1-.1c.1-.1.2-.3.4-.5s.1-.2.2-.3a.1.1,0,0,1,.1-.1h0V5.6c0-.1.1-.2.1-.3A.37.37,0,0,0,9.4,5V4.9h0V4.8a.35.35,0,0,1,.1-.2c.1-.2.3-.4.3-.5s.1-.2.2-.2h0c.2-.2.3-.3.4-.3a.37.37,0,0,0,.3.1Zm14.2.4Zm-9.7.7a2.79,2.79,0,0,0-2,.8,2.61,2.61,0,0,1-1.8.9,1.85,1.85,0,0,0-.7.2c-.3.1-.4.2-.6.2s-.2.1-.3.1h0a.31.31,0,0,0-.2.1,3.45,3.45,0,0,0-.9.8c-.1.1-.1.2-.2.3h0l-.1.1c0,.1-.1.2-.1.4s-.1.4-.1.6h0a4.27,4.27,0,0,0,1,2.7l.6.6c.1.1.2.3.4.4h.2v.1h.3v-.4a1,1,0,0,0-.1-.3c0-.1,0-.2-.1-.2a.1.1,0,0,0-.1-.1h-.1V12c0-.1,0-.2-.1-.2v-.1h0a2.49,2.49,0,0,1-.1-.8,1.67,1.67,0,0,1,.4-1.1,1.38,1.38,0,0,1,.3-.4c.1-.1.3-.1.5-.2A3.73,3.73,0,0,1,12.5,9h.6a.37.37,0,0,0,.3-.1h0a2,2,0,0,0,.7-.9h0c0-.1.1-.1.1-.2a.1.1,0,0,1,.1-.1l.1-.1V7.5a.85.85,0,0,1,.5-.3,1.09,1.09,0,0,1,.5-.1c.5.1.6.1.7.2l.1.1h0l.1.1.1.1v.1h0a.77.77,0,0,1-.3-.1,1.27,1.27,0,0,0-.6-.1,2.12,2.12,0,0,0-1.3,1A1.06,1.06,0,0,0,14,9c0,.1-.2.2-.3.3s-.1.1-.2.1H12.2a1.48,1.48,0,0,0-.7.1c-.2,0-.4.2-.6.3s-.2.1-.3.2l-.2.2c-.1.2-.3.5-.4.7a1.09,1.09,0,0,0-.1.5v.3h0v.1a.35.35,0,0,1,.1.2,1.63,1.63,0,0,0,.3.6c.1.1.1.2.2.2h.1v-.1a1.69,1.69,0,0,0-.2-.5c-.1-.2-.1-.5-.2-.7v-.3c0-.1.1-.2.1-.4s.1-.2.1-.3a.1.1,0,0,1,.1-.1h0c.1,0,.1-.1.1-.2.5-.6,1.3-.5,1.9-.5s.7.1.9,0a.31.31,0,0,0,.2-.1c.1-.1.2-.1.3-.3s.1-.2.2-.3.1-.2.2-.3l.1-.1V8.5h.1V8.4a.1.1,0,0,1,.1-.1c.1,0,.1-.1.2-.1a1.69,1.69,0,0,1,.5-.2,1.09,1.09,0,0,1,.5.1h.3V7.9c0-.1,0-.2-.1-.2h0V7.5c0-.1-.1-.2-.1-.3s0-.2-.1-.2-.2-.1-.4-.3a1.8,1.8,0,0,0-.9-.4.6.6,0,0,1-.4-.1,1.1,1.1,0,0,0-.8,0c-.1,0-.3.2-.5.4l-.2.2-.1.1V7h0v.1c0,.1-.1.1-.2.2s-.3.3-.4.3a5,5,0,0,1-1.4.3A4.33,4.33,0,0,0,10,8c-.1,0-.2.1-.3.2s-.1,0-.2.1H9.4a.31.31,0,0,1,.1-.2L9.6,8h0l.1-.1.2-.2c.2-.1.3-.3.4-.4s.4-.1.6-.2a1.85,1.85,0,0,0,.7-.2c.1,0,.2-.1.3-.1s.1-.1.2-.1h.2l.1-.1.3-.3a2.25,2.25,0,0,1,1.6-.8,3.19,3.19,0,0,1,1.7.6c.3.2.3.3.4.6a1.48,1.48,0,0,1,.1.7v.5h.1a.1.1,0,0,0,.1-.1.35.35,0,0,0,.1-.2c0-.1.1-.1.1-.2a.1.1,0,0,1,.1-.1c.1,0,.1-.1.1-.2a.54.54,0,0,1,.3-.4,4.35,4.35,0,0,1,.7-.4h0c.6-.4,1-.5,1.2-.4a1.21,1.21,0,0,1,.5.5.82.82,0,0,0,.5.5,2,2,0,0,0,.9.2,2.68,2.68,0,0,1,2.3,1.1,1.38,1.38,0,0,0,.3.4h0l-.1-.1-.1-.1h-.1V8.3a.1.1,0,0,0-.1-.1.1.1,0,0,0-.1-.1h-.1L23.1,8a.52.52,0,0,0-.4-.2H20.5a.73.73,0,0,1-.6-.2,1,1,0,0,1-.4-.5V7l-.1-.1a.1.1,0,0,1-.1-.1h0a.37.37,0,0,0-.3-.1h-.5a2.47,2.47,0,0,0-.9.4.1.1,0,0,0-.1.1h0a.1.1,0,0,0-.1.1.1.1,0,0,0-.1.1h.1a.44.44,0,0,0,.5-.1l.1-.1h.3c.1,0,.2-.1.3-.1a1.1,1.1,0,0,1,.8,0c.5.6.8.9,1.2,1A3.07,3.07,0,0,0,21.9,8H23c.2,0,.4.2.7.4a2.41,2.41,0,0,1,.6.8.31.31,0,0,1,.1.2.1.1,0,0,0,.1.1h0V8.8h0V8.7a.37.37,0,0,0-.1-.3.1.1,0,0,0-.1-.1V8.1c0-.1-.1-.1-.1-.2s-.1-.2-.2-.2h-.1V7.6c0-.1-.1-.1-.2-.2a5.58,5.58,0,0,0-.8-.5.76.76,0,0,0-.4-.1H21l-.2-.2a1.38,1.38,0,0,0-.3-.4c-.2-.2-.3-.4-.4-.5a.52.52,0,0,0-.4-.2,4.35,4.35,0,0,0-1.5.6,4.35,4.35,0,0,0-.7.4l-.2.2V6.6a2.15,2.15,0,0,0-.4-.7,2.19,2.19,0,0,0-.5-.3,1.12,1.12,0,0,0-1.2-.8Zm2.3.8h0l-.1.1v.1h.1a.1.1,0,1,0,0-.2Zm-3,.7h.2c.2,0,.4.1.6.1a.35.35,0,0,1,.2.1.1.1,0,0,1,.1.1h-.4a1.21,1.21,0,0,0-1,.3,2.41,2.41,0,0,0-.6.8,2.18,2.18,0,0,1-.4.5l-.2.2h-.6a3.13,3.13,0,0,0-2.4.8,2.26,2.26,0,0,0-.4.9v.1h0V9.6c0-.1.1-.1.1-.2h0V9.2c.1,0,.1-.1.1-.2a.31.31,0,0,1,.1-.2.22.22,0,0,1,.2-.2c.2-.2.4-.3.5-.4a10.2,10.2,0,0,1,1.5-.4.6.6,0,0,0,.4-.1c.1,0,.2-.1.3-.1s.3-.2.4-.3.2-.3.3-.4a1.17,1.17,0,0,1,.6-.6Zm-4.4,1h0a.35.35,0,0,0-.1.2,1.79,1.79,0,0,0-.4.8,4.51,4.51,0,0,0-.3,1.1,3.4,3.4,0,0,0-.1,1c0,.2.2.4.3.7s.4.7.6,1c.1.1.1.2.2.3a.35.35,0,0,0,.1.2v.1h0c-.1-.1-.2-.1-.2-.2a5.78,5.78,0,0,1-1.3-2A3.06,3.06,0,0,1,9.2,8a1.56,1.56,0,0,1,.8-.6c-.1,0,0-.1.1-.1ZM27,9.1v.6a4.33,4.33,0,0,1-.1.5,1.69,1.69,0,0,1-.2.5,9.22,9.22,0,0,1-.5.8c-.1.1-.2.3-.3.4l-.1.1h-.1v.2h0a.31.31,0,0,0-.1-.2v-.4a1.88,1.88,0,0,1,.2-.8.35.35,0,0,0,.1-.2c.1-.1.2-.2.2-.3s.2-.2.2-.3a.31.31,0,0,0,.1-.2c0-.1.2-.3.3-.4.1.1.2-.1.3-.3Zm-.2,2.2h0v.2a.37.37,0,0,1-.1.3,3.33,3.33,0,0,1-.3.6v.1l-.1.1c-.1.1-.1.3-.2.4s-.2.3-.2.4v-.5c0-.3.2-.6.6-1a.86.86,0,0,1,.3-.6h0c-.1.1-.1,0,0,0ZM13.5,12.8a1.27,1.27,0,0,0-.6.1h-.3c-.1,0-.1,0-.2.1h-.2a1,1,0,0,0-.8.5.37.37,0,0,0-.1.3V14a.1.1,0,0,0,.1.1.1.1,0,0,0,.1.1h.1a.76.76,0,0,0,.4-.1,1.88,1.88,0,0,0,.8-.2c.1,0,.4-.1.6,0a1.48,1.48,0,0,1,.7.1,1.69,1.69,0,0,1,.5.2c.2.1.3.2.4.2a.75.75,0,0,0,.5.1.55.55,0,0,0,.5-.3.31.31,0,0,0,.1-.2v-.2c0-.1-.1-.1-.2-.1h-.1c-.1,0-.1,0-.2-.1a2.19,2.19,0,0,0-.5-.3,1.93,1.93,0,0,0-1-.3h-.6c.1-.2.1-.2,0-.2Zm9.1,0h-.8a1.93,1.93,0,0,0-1,.3,2.19,2.19,0,0,0-.5.3.31.31,0,0,0-.2.1H20c-.1,0-.1,0-.2.1s-.1.2,0,.2.1.1.1.2a.85.85,0,0,0,.5.3.75.75,0,0,0,.5-.1c.1-.1.2-.1.4-.2a2.62,2.62,0,0,1,1.2-.3h.6c.2.1.6.1.8.2a.6.6,0,0,1,.4.1h.1l.1-.1a.1.1,0,0,1,.1-.1v-.2c0-.1-.1-.1-.1-.3a.89.89,0,0,0-.8-.5h-.2a.31.31,0,0,1-.2-.1H23c0,.1-.3.1-.4.1Zm-.1.4a2.2,2.2,0,0,1,.8.1c.2.1.4.1.6.2s.1.1.2.1l.1.1H24a2.54,2.54,0,0,1-.7-.2,2.79,2.79,0,0,0-1-.1,3.35,3.35,0,0,0-1.6.6.37.37,0,0,1-.3.1c-.1,0-.1-.1-.2-.1v-.2l.1-.1a.1.1,0,0,0,.1-.1c.1-.1.2-.1.4-.2a6.89,6.89,0,0,0,.8-.3,3.44,3.44,0,0,0,.9.1Zm-8.9,0a3.44,3.44,0,0,1,.9.1,4.12,4.12,0,0,1,.8.3c.1.1.3.1.4.2l.1.1a.1.1,0,0,1,.1.1v.2a.35.35,0,0,1-.2.1.37.37,0,0,1-.3-.1,3.35,3.35,0,0,0-1.6-.6,1.15,1.15,0,0,0-1,.1c-.2.1-.5.1-.7.2h-.2l.1-.1a.35.35,0,0,1,.2-.1c.1-.1.3-.1.6-.2a.91.91,0,0,1,.8-.3Zm-5.2.9a2.56,2.56,0,0,0,1.4.8h0v.3h0a.37.37,0,0,0,.1.3v.4l-.2-.2h0a3.43,3.43,0,0,1-1.2-1.2h0l-.1-.1h0v-.3Zm18.9.4h0c.2,0,.3.1.4.4q.15.15,0,.6a5.77,5.77,0,0,1-.3,1.4,2.07,2.07,0,0,1-.2.6c0,.1-.1.2-.1.3v.1h0a.31.31,0,0,1-.1.2.37.37,0,0,1-.1.3h0v.1a.31.31,0,0,1-.1.2.37.37,0,0,1-.1.3c-.1.4-.2.7-.3,1s-.3.5-.4.5-.2.1-.2,0h-.1v-.4a7.46,7.46,0,0,1,.3-1.7c0-.1.1-.3.1-.4h0v-.3a4.33,4.33,0,0,0,.1-.5v-.3h0v-.4c0-.3.1-.3.2-.6s.2-.2.3-.2h.1a.1.1,0,0,0,.1.1v.5a.37.37,0,0,1-.1.3c0,.1-.1.1-.1.2a.35.35,0,0,0-.1.2.35.35,0,0,1-.1.2h0v.1a.31.31,0,0,1-.1.2.37.37,0,0,0-.1.3c0,.1,0,.2.1.2h.1l.1-.1.1-.1v-.1h0v-.1c0-.1.1-.2.2-.4a2.61,2.61,0,0,0,.3-1.1.91.91,0,0,0-.3-.7c-.1,0-.1-.1-.2-.1s-.1,0-.2.1-.1.1-.2.1h0v-.3c0-.1.1-.2.1-.3s.2-.1.3-.2c.4-.1.5-.1.6-.2Zm-5.5.2a1.66,1.66,0,0,0-1.3.5h0a.35.35,0,0,1-.2.1c-.1.1-.3.2-.3.3a.1.1,0,0,1-.1.1v.1h0l.1.1a.35.35,0,0,0,.2.1h0a3.36,3.36,0,0,0,3.4-.2c.1,0,.2-.1.3-.2a.1.1,0,0,1,.1-.1v-.1l-.1-.1c-.1,0-.1-.1-.2-.2s-.1-.1-.2-.1h-.2a4.94,4.94,0,0,0-1.5-.3Zm-7.5,0h-.5a2.45,2.45,0,0,0-1.2.4h0l-.2.2a.1.1,0,0,0-.1.1v.1a.1.1,0,0,0,.1.1.77.77,0,0,0,.3.2c.1,0,.3.2.5.3a3.06,3.06,0,0,0,1.7.3,2.59,2.59,0,0,0,1.4-.4l.1-.1h0v-.1a.1.1,0,0,0-.1-.1c-.1,0-.2-.2-.3-.3s-.1-.1-.2-.1a2,2,0,0,0-1.5-.6Zm4.9.2a.1.1,0,0,0-.1.1v1.4a5.38,5.38,0,0,0,.1.8c0,.2.1.9.1,1.1v.1l.1.1.1.1h0v-.3a1.09,1.09,0,0,0-.1-.5c-.1-.3-.1-.3-.1-1.3,0-.7-.1-1.1-.1-1.3v-.3c.1.1.1,0,0,0Zm-5.5.2c-.1.1-.1.2-.1.4s.1.2.1.4a.76.76,0,0,1-.4-.2.35.35,0,0,1-.2-.1H13a.35.35,0,0,1,.2-.1.89.89,0,0,1,.5-.4Zm8.7,0h0a.76.76,0,0,1,.5.2c.1,0,.1.1.2.1h0c-.1,0-.1.1-.2.1s-.2.1-.3.1h-.1v-.3h0c0,.1,0-.1-.1-.2Zm-7.4.1a1.79,1.79,0,0,1,.7.5h-.1a.35.35,0,0,1-.2.1.6.6,0,0,1-.4.1h-.1a.76.76,0,0,0,.2-.4.37.37,0,0,1-.1-.3Zm6.1,0c0,.1-.1.2-.1.3a.52.52,0,0,0,.2.4h-.1c-.1,0-.2-.1-.4-.1a.35.35,0,0,1-.2-.1h-.1a3,3,0,0,1,.7-.5Zm-12.6.4a.52.52,0,0,1,.4.2,1.38,1.38,0,0,0,.4.3v.3l-.2-.1a.35.35,0,0,1-.2-.1H8.7a.55.55,0,0,0-.3.5,1.7,1.7,0,0,0,.1.7,1,1,0,0,0,.4.5l.2.2h.1v-.2h0a.31.31,0,0,0-.1-.2.75.75,0,0,1-.1-.5.75.75,0,0,1,.1-.5h.1l.2.2.3.3a.1.1,0,0,1,.1.1v.1c0,.2.1.5.2,1.1a7.75,7.75,0,0,0,.1.9.6.6,0,0,0,.1.4,5.07,5.07,0,0,0,.2.9c0,.2.1.3.1.5s0,.1.1.2v.3c0,.1-.1.1-.1.2s-.1,0-.2-.1a.1.1,0,0,0-.1-.1H10v-.1c0-.1-.1-.2-.1-.3s-.1-.3-.1-.4,0-.1-.1-.1h0v-.1a1.69,1.69,0,0,0-.2-.5,1,1,0,0,1-.1-.3,1.42,1.42,0,0,0-.2-.6.31.31,0,0,0-.1-.2c0-.1-.1-.2-.1-.3a5.94,5.94,0,0,1-.4-.8c-.1-.3-.3-.5-.3-.6v-.5c0-.2,0-.5.1-.6a.35.35,0,0,1,.1-.2c-.1-.5-.1-.5,0-.5Zm11.8,3.7h0l-.1.1a.37.37,0,0,0,.1.3v.1c0,.1,0,.1-.1.2s-.1.2-.2.2h-.4a1.16,1.16,0,0,0-1,.2c-.1.1-.1.1-.2.1h-.1q-.15,0-.3-.3l-.2-.2-.1-.1h-.3a1.69,1.69,0,0,0-.5.2.45.45,0,0,1-.5,0,.35.35,0,0,1-.2-.1.31.31,0,0,0-.1-.2v-.3H16V20c0,.1,0,.1.1.3l.3.3a2,2,0,0,0,.7-.1,1.09,1.09,0,0,1,.5-.1c.1,0,.2.1.3.2s.2.2.3.2a.88.88,0,0,0,.7-.1c.1-.1.2-.1.3-.2h.4c.2,0,.3.1.4.1s.1,0,.2-.1l.2-.2a.6.6,0,0,0,.3-.6c0-.2,0-.5-.1-.6-.2.3-.2.2-.3.2ZM22,22.6h0a.1.1,0,0,0-.1.1.35.35,0,0,1-.2.1,2.34,2.34,0,0,1-1,.5,2,2,0,0,1-1.1,0,5.31,5.31,0,0,0-1.8-.1c-.2,0-.5.1-.7.1H15.9a.1.1,0,0,1-.1-.1,1.38,1.38,0,0,0-.4-.3.35.35,0,0,0-.2-.1H15V23a.1.1,0,0,0,.1.1c0,.1.1.1.2.2s.3.2.4.3a2.73,2.73,0,0,0,1.6.2,8.84,8.84,0,0,1,2.3,0c.4,0,.6.1.8.1s.2,0,.3-.1.2-.1.3-.1h.2a.35.35,0,0,1,.2-.1c.1,0,.1-.1.2-.1h.3a.35.35,0,0,0,.1-.2c0-.1.1-.1.1-.2s.1-.1.1-.2a.77.77,0,0,0-.2-.3ZM19.4,24a2.64,2.64,0,0,0-.7.1,1.67,1.67,0,0,1-1,0c-.1,0-.2-.1-.3-.1h-.2v.2a.77.77,0,0,0,.3.2,2.51,2.51,0,0,0,1,.1,1.72,1.72,0,0,0,.8-.1c.1,0,.1-.1.2-.1a.35.35,0,0,0,.1-.2c-.1,0-.1,0-.2-.1Zm5,1.1h0a.31.31,0,0,1,.1.2c.1.5.1,1,.2,2.2v.9c0,.2,0,.3.1.4a4.37,4.37,0,0,0,.7.8c.1.1.3.2.4.3a.6.6,0,0,0,.4.1h0v.1h.1a.31.31,0,0,1,.2.1c.1,0,.1.1.2.1H27a.35.35,0,0,0,.2.1c.1,0,.1.1.2.1a.1.1,0,0,1,.1.1l.2.1c.1,0,.1,0,.2.1s.1.1.3.2l.2.2c.1,0,.1.1.2.1h0v.1h0a.1.1,0,0,0,.1.1h.1a.1.1,0,0,1,.1.1c.1.1.2.1.3.2s.2.2.3.2l.1.1h0l-.1.1c-.1,0-.1.1-.2.1a2.19,2.19,0,0,0-.5.3.35.35,0,0,1-.2.1c-.1,0-.2.1-.3.1s-.6.2-.8.3a17.23,17.23,0,0,1-2.1.7,4.5,4.5,0,0,0-.8.2c-.3.1-.8.2-1.1.3a5.64,5.64,0,0,0-.7.1h-.4a2,2,0,0,0-.7.1,1.7,1.7,0,0,0-.7.1h-.3a7.75,7.75,0,0,1-.9.1H16.6a2.24,2.24,0,0,1-1-.1,4.51,4.51,0,0,0-1.3-.1c-.3,0-.6-.1-1.7-.2-.1,0-.7-.1-1.2-.2-1.4-.2-1.7-.2-1.8-.3a1.76,1.76,0,0,1-.6-.1H7.9c-.1,0-.2-.1-.4-.1H7.1a.37.37,0,0,1-.3-.1c-.2-.1-.4-.1-.5-.2s-.1,0-.1-.1H6.1c-.1,0-.4-.1-.5-.1L5.5,33v-.2a.1.1,0,0,0,.1-.1c.1,0,.2-.1.3-.1l.1-.1h.1c.1,0,.1-.1.3-.1l1.2-.6a4.35,4.35,0,0,0,.7-.4.35.35,0,0,0,.2-.1h.1l.1-.1.1-.1H9c.1,0,.1,0,.2-.1s.1-.1.2-.1h.3c.1,0,.1,0,.2-.1s.1-.1.2-.1h.2a.1.1,0,0,0,.1-.1c.1,0,.1-.1.2-.2a1.76,1.76,0,0,0,.4-.5,4.36,4.36,0,0,0,.4-1.8V25.6h.1c.1,0,.1.1.2.2a33.49,33.49,0,0,0,3.4,2.6h0a.1.1,0,0,1,.1.1,1.31,1.31,0,0,0,1,.3,16.13,16.13,0,0,0,2.2,0,5,5,0,0,0,1.2-.2.52.52,0,0,0,.4-.2c.1-.1.2-.1.2-.2a.1.1,0,0,1,.1-.1l.1-.1a.1.1,0,0,0,.1-.1l.1-.1.4-.4c.1-.1.2-.3.3-.4l.1-.1h.1a.35.35,0,0,1,.2-.1c.1,0,.1-.1.2-.1l.1-.1h0l.1-.1.3-.3.3-.3.1-.1h.1v-.2H23a.35.35,0,0,1,.2-.1c.1-.1.2-.1.2-.2a5.61,5.61,0,0,1,1-.2Zm6,7.4h0a.37.37,0,0,1,.3.1c.1.1.3.1.5.2s.2.1.2.2h0c-.1.1-.3.2-.4.3s-.2.1-.3.2-.1.1-.2.1h-.1v.1h-.2c-.1,0-.1,0-.2.1s-.1.1-.2.1h-.4c-.1,0-.2.1-.3.1-.5.2-1.5.6-1.8.7a9.44,9.44,0,0,1-.9.3,15,15,0,0,1-3,.6c-.2,0-.5.1-.6.1H20.7c-1.9,0-3,0-4.4-.1-.4,0-1.1-.1-1.4-.1h-.8a5.13,5.13,0,0,1-1-.1h-.8a1.76,1.76,0,0,1-.6-.1H10.3a.6.6,0,0,1-.4-.1.6.6,0,0,1-.4-.1H9a.37.37,0,0,1-.3-.1H8.5c-.1,0-.4-.1-.6-.1H7.6a.1.1,0,0,1-.1-.1c-.1,0-.1,0-.2-.1a4.08,4.08,0,0,1-.7-.2,2.2,2.2,0,0,0-.8-.1c-.2,0-.5-.1-.7-.1s-.1,0-.2-.1H4.7c-.1,0-.1-.1-.2-.1s-.1-.1-.2-.1a.1.1,0,0,1-.1-.1v-.1h0a.1.1,0,0,0,.1-.1,3.33,3.33,0,0,1,.6-.3l.3-.1.2.1a.76.76,0,0,0,.5.2h.2a.1.1,0,0,1,.1.1.31.31,0,0,0,.2.1H8.1v.1h.3a.6.6,0,0,1,.4.1h.6a.37.37,0,0,1,.3.1,2.48,2.48,0,0,0,.9.1c.8.1.8.1,1.4.2a5.64,5.64,0,0,1,.7.1h.7c.2,0,.4.1.6.1s.6.1.8.1H20c.4,0,.9-.1,1.2-.1s.6-.1.8-.1c.8-.1.9-.1,1.5-.2A7.52,7.52,0,0,0,25,34a2.07,2.07,0,0,0,.6-.2c.1,0,.3-.1.4-.1a.35.35,0,0,0,.2-.1h.3c.1,0,.1,0,.2-.1s.2,0,.2-.1h.4a1.69,1.69,0,0,0,.5-.2c.2-.1.5-.2.7-.3a.35.35,0,0,0,.2-.1h.1a.1.1,0,0,0,.1-.1.76.76,0,0,0,.4-.2c.2-.1.3-.2.4-.2.6.4.7.3.7.2Z"/></g></g></g></svg>