<svg xmlns="http://www.w3.org/2000/svg" viewBox="0 0 26.65 38"><defs><style>.cls-1{fill:#e2d0b3;}.cls-2{fill:#fff;}.cls-3{fill:#d995ef;}.cls-4{fill:#d1b2f9;}.cls-5{fill:#9a50ef;}.cls-6{fill:#6b2cc4;}.cls-7{fill:#c17e7e;}.cls-8{fill:#322722;}</style></defs><g id="圖層_2" data-name="圖層 2"><g id="圖層_1-2" data-name="圖層 1"><g id="head7"><path class="cls-1" d="M11.9,0h-.2c-.6.2-1.3,0-1.9.3-.4,0-.6.6-.9.6C8.7.7,8.4.4,8.1.7S7.3.7,7,.7c-.7.6-1.4,1.2-2.1,1.9A9.22,9.22,0,0,0,3.6,7.5a10.18,10.18,0,0,0,1.6,5c.3,1,0,2.1.3,3.1.3.6-.4,1-.5,1.4-.2,1.1.5,2.2.7,3.3a1.65,1.65,0,0,1-.3,2A2.1,2.1,0,0,0,5,24.8a2.09,2.09,0,0,0,2.9,1.1c.4-.1.9-.7,1.2-.5a9.23,9.23,0,0,1-2.5,6A19.6,19.6,0,0,1,1,34.2c-.2.2-.9.1-.8.5a7.62,7.62,0,0,0,2-.6c.9-.3,1.8-.8,2.7-1.1A40,40,0,0,0,8,35.7,8.86,8.86,0,0,0,13.1,38c1.4,0,3,.1,4.3-.7A9.21,9.21,0,0,0,19.8,36c.3-.3.7-.5,1-.2a18.43,18.43,0,0,0,5.3,1.8c.2.2.7-.1.4-.3-1.9-.5-3.9-.8-5.6-1.9a4.76,4.76,0,0,1-2.2-2.8c-.1-.4-.5-.9-.4-1.3,1.1-.3,1.8-1.4,2.4-2.3,1.3-2.5,2.7-5.2,2.8-8,0-3,.3-6-.7-8.9.1-.3-.3-.4-.3-.7a7.29,7.29,0,0,1,2.9-2.6c.2,0,.6-.4.2-.4s-.4-.4-.1-.5c.4-.3,0-.6-.3-.7s-.5-.7-.9-.8c-.6-.2-1.2.1-1.7-.1.3-.5,1-.8,1.1-1.4-.1-.6-.8-.1-1.1,0s-.2-.4.1-.4c.3-.3.8-.1,1.1-.4A1.72,1.72,0,0,0,23,2.5,41.79,41.79,0,0,0,16.9,1C16,1,15.1.7,14.1.6a2.5,2.5,0,0,0-1.9,0c-.2-.2,0-.6-.3-.6ZM6,22.2c.1,0,.2.1.3.1.3.4.9.2,1.3.4a10,10,0,0,0,.8,1.4c.1.2.5.5.3.8a2.64,2.64,0,0,1-1.9.7,1.92,1.92,0,0,1-1.5-1.1,4.3,4.3,0,0,1,0-1.6,1.58,1.58,0,0,1,.7-.7Z"/><path class="cls-2" d="M21.4,18.3c-.7,0-1.3.4-1.3.8s.6.8,1.3.8,1.3-.4,1.3-.8-.6-.8-1.3-.8Zm-7.2.8c-.9,0-1.7.3-1.7.7s.8.7,1.7.7,1.7-.3,1.7-.7-.7-.7-1.7-.7Z"/><path class="cls-3" d="M17.7,26c-.1,0-.2.1-.3.1a2,2,0,0,0-.8.4c0,.2.3.2.4.3.4.1.8-.1,1.2-.1a1.53,1.53,0,0,0,1.6-.1c.1-.2-.2-.3-.3-.3-.4-.1-.8-.3-1.1-.1s-.5-.1-.7-.2Zm.3,1c-.5.1-1.1,0-1.6.1-.2.2.2.3.3.4a2,2,0,0,0,1.1.3,1.8,1.8,0,0,0,1.2-.3c.2-.2.5-.2.6-.5s-.3-.1-.5-.1c-.4.3-.7.1-1.1.1Z"/><path class="cls-4" d="M11.9,0h-.2c-.6.2-1.3,0-1.9.3-.4,0-.6.6-.9.6C8.7.7,8.4.4,8.1.7S7.3.7,7,.7c-.7.6-1.4,1.2-2.1,1.9A9.22,9.22,0,0,0,3.6,7.5a10,10,0,0,0,1.5,4.8,13.13,13.13,0,0,1,8.5-2.8c4.5,0,8.5,1.8,9.7,4.3a12.09,12.09,0,0,0-.5-1.8c.1-.3-.3-.4-.3-.7a7.29,7.29,0,0,1,2.9-2.6c.2,0,.6-.4.2-.4s-.4-.4-.1-.5c.4-.3,0-.6-.3-.7s-.5-.7-.9-.8c-.6-.2-1.2.1-1.7-.1.3-.5,1-.8,1.1-1.4-.1-.6-.8-.1-1.1,0s-.2-.4.1-.4c.3-.3.8-.1,1.1-.4A1.72,1.72,0,0,0,23,2.4,41.79,41.79,0,0,0,16.9.9C16,.9,15.1.6,14.1.5a2.5,2.5,0,0,0-1.9,0c-.2-.1,0-.5-.3-.5Z"/><path class="cls-5" d="M11.9,0h-.2c-.6.2-1.3,0-1.9.3-.4,0-.6.6-.9.6C8.7.7,8.4.4,8.1.7S7.3.7,7,.7c-.7.6-1.4,1.2-2.1,1.9A8.78,8.78,0,0,0,3.6,7.3a19.29,19.29,0,0,1,9-2c5.2,0,9.9,1.7,11.7,4.2a8.34,8.34,0,0,1,1.2-.8c.2,0,.6-.4.2-.4s-.4-.4-.1-.5c.4-.3,0-.6-.3-.7s-.5-.7-.9-.8c-.6-.2-1.2.1-1.7-.1.3-.5,1-.8,1.1-1.4-.1-.6-.8-.1-1.1,0s-.2-.4.1-.4c.3-.3.8-.1,1.1-.4a1.72,1.72,0,0,0-.8-1.6A41.79,41.79,0,0,0,17,.9c-.9,0-1.8-.3-2.8-.4a2.5,2.5,0,0,0-1.9,0c-.3-.1-.1-.5-.4-.5Z"/><path class="cls-6" d="M11.9,0h-.2c-.6.2-1.3,0-1.9.3-.4,0-.6.6-.9.6C8.7.7,8.4.4,8.1.7S7.3.7,7,.7c-.7.6-1.4,1.2-2.1,1.9A6.11,6.11,0,0,0,4.2,4a25.74,25.74,0,0,1,8.2-1.2c4.4,0,8.6,1,11,2.6a.86.86,0,0,0,.3-.6c-.1-.6-.8-.1-1.1,0s-.2-.4.1-.4c.3-.3.8-.1,1.1-.4A1.72,1.72,0,0,0,23,2.4,41.79,41.79,0,0,0,16.9.9C16,.9,15.1.6,14.1.5a2.5,2.5,0,0,0-1.9,0c-.2-.1,0-.5-.3-.5ZM25.2,6.9a1.33,1.33,0,0,1,.3.8h0c.5-.3.1-.7-.3-.8Zm.5,1.3h0v.4c.2-.2.3-.4,0-.4Z"/><path class="cls-7" d="M5.9,32.3c-.2.1-.5.2-.6.4s.3.3.5.5c.6.6,1.2,1.1,1.8,1.7A12.23,12.23,0,0,0,12,37.5a6.52,6.52,0,0,0,2.4.2,5.87,5.87,0,0,0,2.3-.4c.7-.4,1.5-.7,2.2-1.1a4.81,4.81,0,0,0,1.1-.9c.1-.2-.3-.3-.4-.3a8.72,8.72,0,0,1-3.1,1.8,5.69,5.69,0,0,1-2.6.4,6.92,6.92,0,0,1-2.8-.5,5.38,5.38,0,0,1-2-1,11.5,11.5,0,0,1-2.3-2.1,10.14,10.14,0,0,0-.9-1.3Z"/><path class="cls-8" d="M12.2,0a2.92,2.92,0,0,0-.9.2.19.19,0,0,1-.3,0,1,1,0,0,0-1,.2,2.49,2.49,0,0,0-.7.5C9.2,1,9.2,1,9,.8L8.8.6a3.55,3.55,0,0,0-.9.4H7.8C7.7.8,7.4.8,7.2.9A.35.35,0,0,0,7,1l-.2.2-.3.3L6,2a.75.75,0,0,0-.3.3H5.6a1.33,1.33,0,0,0-.6.5A8.58,8.58,0,0,0,3.9,6.1a4.73,4.73,0,0,0-.1,2,10.8,10.8,0,0,0,1,3.5c0,.1.1.2.1.3s.2.3.3.5l.3.4v2.7a.49.49,0,0,0,.1.3c.1.4.1.6-.1.7a1.58,1.58,0,0,0-.6.9c-.1.3-.1.4.1.8a1.34,1.34,0,0,1,.1.5.49.49,0,0,0,.1.3.49.49,0,0,1,.1.3c0,.1.1.2.1.3s.1.1.1.2.1.3.1.4a1.69,1.69,0,0,1,.2.5v.1a1.15,1.15,0,0,1,0,.6c0,.4,0,.4-.2.6a2.93,2.93,0,0,0-.9,1.6,2.74,2.74,0,0,0,.9,2.2,3.33,3.33,0,0,0,.6.3,3.08,3.08,0,0,0,1,.1c.5-.1.9-.2.9-.3l.4-.2c.2-.1.4-.2.4-.3H9c.1.1.1.2,0,1-.2,1.1-.3,1.7-.4,2s-.7,1.3-.7,1.3a.35.35,0,0,0-.1.2c0,.1,0,.1-.1.1l-.2.2a5.79,5.79,0,0,1-1.2,1.4,7.46,7.46,0,0,1-1.2.7c-.1,0-.3.2-.5.3a6.66,6.66,0,0,1-1.1.6H3.4a1.44,1.44,0,0,0-.3.2,4.33,4.33,0,0,1-1.1.4c-1.1.4-1.6.6-1.7.6a.45.45,0,0,0-.3.4c0,.1.2.1.7,0,.2-.1.5-.2.7-.3a1.69,1.69,0,0,1,.5-.2,2.84,2.84,0,0,1,1.2-.4c.1,0,.2,0,.2-.1s0-.1.1,0a6,6,0,0,0,.7-.3c.3-.2.7-.3.7-.4a3.28,3.28,0,0,1,.8.6,5.93,5.93,0,0,0,.8.8l.2.2a2.18,2.18,0,0,0,.5.4c.1.1.3.2.4.3s.3.2.4.3.3.2.4.3.2.2.3.2a1.73,1.73,0,0,1,.4.3,1.73,1.73,0,0,0,.4.3,1.44,1.44,0,0,1,.3.2,12.2,12.2,0,0,0,1.7.7c.1,0,.4.1.5.1A14.92,14.92,0,0,0,14,38h.6a7.77,7.77,0,0,0,1.6-.2,5.9,5.9,0,0,0,.8-.4,2.83,2.83,0,0,1,.6-.3.1.1,0,0,0,.1-.1,4.71,4.71,0,0,0,.5-.2,2.39,2.39,0,0,0,.7-.3c.1-.1.2-.2.2-.1l.9-.6.2-.2c0-.1.1-.1.2,0a3.86,3.86,0,0,1,1,.5c.1.1,1,.5,1.3.7.1,0,.6.2,1.1.3a3,3,0,0,1,1,.3,3.54,3.54,0,0,0,.6.1,1.07,1.07,0,0,1,.6.2.35.35,0,0,1,.2.1.45.45,0,0,0,.3-.3c0-.2-.1-.2-.7-.3a2.39,2.39,0,0,1-.9-.2,9.25,9.25,0,0,0-1-.3c-.5-.1-1.1-.3-1.2-.3a.35.35,0,0,0-.2-.1c-.1,0-.6-.3-1.2-.5-.1,0-.3-.2-.6-.4a5.2,5.2,0,0,0-.5-.3,2.81,2.81,0,0,1-.8-.8c-.2-.3-.4-.5-.3-.5l-.2-.4a4.71,4.71,0,0,1-.2-.5v-.1s-.2-.5-.4-1.1l-.1-.3.4-.1a2.73,2.73,0,0,0,1.2-.9,3.11,3.11,0,0,0,.4-.6l.2-.4a.31.31,0,0,1,.1-.2,3,3,0,0,1,.5-.7c.1-.1.1-.2,0-.2h.1c0-.1,0-.1.1-.2s.1-.2.2-.3a.76.76,0,0,0,.2-.4,1.07,1.07,0,0,0,.2-.6,14.27,14.27,0,0,0,1.7-7.3,4.33,4.33,0,0,1-.1-.5,2.36,2.36,0,0,1,.1-1.4V15.7c0-.2-.1-.5-.1-.9a.6.6,0,0,0-.1-.4v-.6c0-.1-.1-.3-.1-.4a.37.37,0,0,1-.1-.3c0-.1-.2-.7-.3-.7v-.1c.1-.2-.1-.5-.2-.4l-.1.1c-.1,0-.1,0,0,.3s.1.3.2.4v.1a2.14,2.14,0,0,0,.1.6,5,5,0,0,1,.2,1.5,7.72,7.72,0,0,0,.1,1c0,.2.1.7.1.9s-.1.1-.6.1h-.8c-.1,0-.3.1-.4.1a3.09,3.09,0,0,0-1.6,1.1c0,.1,0,.2.1.2s.3-.2.4-.3h0l.4-.2c.2-.1.3-.3.4-.3a.49.49,0,0,0,.3-.1.6.6,0,0,1,.4-.1.37.37,0,0,0,.3-.1c.1-.1.8.1,1,.2s.2.2.1.7c-.1.3-.1.3,0,.8.5,2.8-.6,6.4-2.1,9a4.35,4.35,0,0,0-.4.7,10.94,10.94,0,0,1-.8,1.4l-.2.2a1.9,1.9,0,0,1-.8.7,3.59,3.59,0,0,1-1.8.2,8.14,8.14,0,0,0-.9-.2,1.69,1.69,0,0,1-.5-.2,2.07,2.07,0,0,0-.6-.2.31.31,0,0,0-.2-.1,3.91,3.91,0,0,1-.5-.4,3.91,3.91,0,0,0-.5-.4,4.79,4.79,0,0,1-1.1-.8,1.73,1.73,0,0,0-.4-.3.35.35,0,0,0-.2-.1l-.3-.3-.9-.9c-.1-.1-.1-.1-.1-.2a.31.31,0,0,0-.1-.2c-.1-.1-.2-.2-.2-.3s-.2-.3-.3-.3a3.81,3.81,0,0,1-.5-.6,6.82,6.82,0,0,0-.5-.7,3.74,3.74,0,0,1-.6-1,1.44,1.44,0,0,1-.2-.3c-.1,0-.3-.7-.3-1s0-.3-.1-.3-.1,0-.1.1c0,.3-.8.4-1.1.1a.31.31,0,0,0-.2-.1v-.1c0-.1.1-.1.4-.3s.4-.2.4-.3-.2-.2-.5-.1-.4.1-.4-.4c0-.2,0-.4-.1-.4a.35.35,0,0,1-.1-.2.37.37,0,0,0-.1-.3c-.1-.1-.1-.2-.1-.4a.44.44,0,0,0-.1-.3c-.1,0-.3-.7-.3-1.1a1.42,1.42,0,0,0-.2-.6.9.9,0,0,1,.6-1.2c.4-.1.6.1.8.6a.89.89,0,0,0,.5.4v-.2a.44.44,0,0,1-.1-.3,1.8,1.8,0,0,0-.8-.9,1.24,1.24,0,0,1-.3-.2.49.49,0,0,0-.1-.3,1.7,1.7,0,0,1-.1-.7v-.4a1.72,1.72,0,0,0-.1-.8c-.1-.1-.1-.2,0-.6s.1-.5-.1-.6a4.89,4.89,0,0,1-.8-1.3,10.89,10.89,0,0,1-.8-3.1,4.91,4.91,0,0,1-.1-1.1V6.6a2.44,2.44,0,0,0,.1-.7,8.54,8.54,0,0,1,.9-2.7.92.92,0,0,1,.4-.6c.1-.1.1,0,.1.2a6.59,6.59,0,0,0-.3,1,9,9,0,0,0-.3,2.6c0,.4.1,1,.1,1.6a5,5,0,0,0,.3,1.9c.1.4.2.7.2.8s0,.1.1,0,.1-.1.1.1a2.34,2.34,0,0,0,.5,1c.2,0,.1-.4-.2-1.1a8.46,8.46,0,0,1-.7-2.6v-2A5.94,5.94,0,0,1,5.6,5c.1-1.2.2-1.7.4-1.9,0-.1.1-.3.1-.4s.1-.3.3-.5l.4-.4c.6-.6.6-.7.9-.7h.2l-.1.2a3.33,3.33,0,0,0-.3.6,6.2,6.2,0,0,0-.8,2.9,3.22,3.22,0,0,0,0,1.4V8.3a5.21,5.21,0,0,0,.2,1.4c.1.3.3.6.4.6s.2-.1.1-.3a.6.6,0,0,1-.1-.4V9.2a4.33,4.33,0,0,1-.1-.5.75.75,0,0,0-.1-.5A4.33,4.33,0,0,1,7,7.7V5.5a8.79,8.79,0,0,1,.3-2A7.7,7.7,0,0,1,7.9,2c0-.1.1-.1,0-.2A.1.1,0,0,1,8,1.7c.1,0,.1-.1.1-.2s0-.1.1-.1a.1.1,0,0,0,.1-.1c0-.1.2-.2.3-.2L8.9,1l.1.1.1.1-.2.5a6.89,6.89,0,0,1-.3.8L8.2,4.1c-.1.2-.1.7-.2,1a7.75,7.75,0,0,1-.1.9,12.77,12.77,0,0,0-.2,1.7v.7a1.27,1.27,0,0,0,.1.6c0,.1.1.4.1.6s0,.4.1.4.1.1.2,0,.1-.2.1-.4a3.08,3.08,0,0,0-.1-.9V7.9a18.93,18.93,0,0,1,.6-3.8A4.24,4.24,0,0,0,9,3c.1-.4.2-.7.2-.8V2.1a1.44,1.44,0,0,1,.2-.3c.1-.2.2-.3.2-.4s.5-.5.7-.6.7-.2.7-.2-.2.3-.3.4a2.77,2.77,0,0,0-.5.8c-.1.1-.1.3-.2.4a5.19,5.19,0,0,0-.5,1.2,8.57,8.57,0,0,0-.3,1.3A8.57,8.57,0,0,1,8.9,6c0,.2-.1.6-.1,1a7.11,7.11,0,0,0,.1,2.2v.2a.49.49,0,0,0,.1.3c0,.1.1.2.1.1s.1-.2.1-.5V7.7a15,15,0,0,1,.2-2c.1-.3.1-.7.2-1A7.49,7.49,0,0,1,10,3.1a4.71,4.71,0,0,0,.2-.5,3.33,3.33,0,0,1,.3-.6V1.8l.3-.3a1.71,1.71,0,0,1,1-.9c.5-.2.6-.3.5-.4.1-.1,0-.2-.1-.2Zm1.6.2a1.7,1.7,0,0,0-.7.1,1.86,1.86,0,0,0-1.4,1.2A8.08,8.08,0,0,0,11,2.9,15.34,15.34,0,0,0,10.3,5a2.18,2.18,0,0,1-.1.6c0,.1-.2,2.1-.2,2.6a2.87,2.87,0,0,0,.2,1.2c.2.1.2-.1.2-.7a14.35,14.35,0,0,1,.2-2.6,7.51,7.51,0,0,1,1-3.1c.6-1.3.9-1.7,1.3-1.9a2.39,2.39,0,0,1,.9-.3c.2,0,.2,0,0,.2a12.49,12.49,0,0,0-.9,1.2.76.76,0,0,1-.2.4,9.74,9.74,0,0,0-.5,1.1,2.07,2.07,0,0,1-.2.6c-.1.2-.2.6-.3.8a3.09,3.09,0,0,0-.2.8,5.82,5.82,0,0,0-.3,1.9c0,.2.1.8.1,1.2.1.6.1.7.2.7s.1,0,.1-.4V8.6a8.6,8.6,0,0,1,.2-2.4c.1-.3.1-.4.2-.8s.2-.6.4-1.2c.1-.2.3-.7.5-1.1a2.71,2.71,0,0,0,.3-.8,7.27,7.27,0,0,1,.8-.9,2.85,2.85,0,0,1,.8-.4c.4,0,.4.2,0,.3a1.44,1.44,0,0,1-.3.2.1.1,0,0,1-.1.1,7.76,7.76,0,0,1-.4.7c-.4.7-.4.8-.6,1.1a7.1,7.1,0,0,0-.6,1.9,4.4,4.4,0,0,1-.2,1,9.73,9.73,0,0,0-.3,3.1c.1.2.2.3.3.2a.63.63,0,0,0,0-.6V8.1l.2-.8A6.53,6.53,0,0,0,13,6.2c.1-.4.1-.5.3-1.2a1.42,1.42,0,0,1,.2-.6c.1-.2.1-.2.1-.3s0-.1,0-.2.1-.1.1-.2a1.44,1.44,0,0,1,.2-.3.76.76,0,0,0,.2-.4c0-.1.1-.2.2-.4s.2-.4.3-.5a2,2,0,0,1,.8-.8c.1,0,.2-.1.3-.1a2.49,2.49,0,0,1,.8-.1l-.4.4a3.59,3.59,0,0,0-.7,1,3.33,3.33,0,0,0-.3.6,2.19,2.19,0,0,1-.3.5c-.1.1-.1.3-.2.4a.31.31,0,0,0-.1.2.31.31,0,0,1-.1.2,3.93,3.93,0,0,1-.2.6,4.08,4.08,0,0,0-.2.7c-.1.2-.2.8-.5,1.6a4.53,4.53,0,0,0-.2,1.9c.1.3.2.3.3.2s.1-.5,0-.5V8.7c0-.1.1-.4.1-.6a1.17,1.17,0,0,1,.2-.7c.1-.1.1-.4.2-.7.2-1,.3-1.1.3-1.2a1,1,0,0,0,.1-.3c0-.1.1-.3.1-.4a.31.31,0,0,0,.1-.2.1.1,0,0,1,.1-.1.1.1,0,0,1,.1-.1.1.1,0,0,1,.1-.1c0-.1.1-.2.1-.4s.1-.3.2-.4c.3-.5.8-1.3.9-1.4a3.63,3.63,0,0,1,.9-.8,3,3,0,0,1,1-.2c.4,0,.3.1-.1.4s-.7.6-.7.8a5.91,5.91,0,0,1-.5.8,5.91,5.91,0,0,0-.5.8c0,.1-.2.4-.3.8q-.9,2-1.2,2.7a3.17,3.17,0,0,0-.1,1.9c.1.2.2,0,.3-.8.1-.5.1-.8.2-.9s.2-.3.2-.5.1-.2.1-.3a.31.31,0,0,0,.1-.2c0-.1,0-.1.1-.1l.1-.1c0-.1.1-.2.1-.3s.4-.7.3-.7a.1.1,0,0,1,.1-.1c.1-.1.1-.2.2-.2s.1-.2.1-.4.1-.3.2-.3a.35.35,0,0,0,.1-.2.76.76,0,0,1,.2-.4c.1-.1.2-.2.2-.3s.1-.2.3-.3a1.44,1.44,0,0,0,.2-.3c0-.1.4-.5.6-.6a2.26,2.26,0,0,1,1-.5h.3l-.4.4c-.2.2-.4.3-.4.4s-.7,1.2-.9,1.5c0,.1-.1.1-.1.2a1,1,0,0,0-.1.3,2.39,2.39,0,0,0-.3.7c-.1.2-.2.7-.3.9a4.71,4.71,0,0,0-.3.9c-.1.2-.2.6-.3.8a11.31,11.31,0,0,0-.4,1.5V10a.35.35,0,0,0,.2.1c.2,0,.2,0,.3-.9a4.33,4.33,0,0,1,.1-.5.37.37,0,0,0,.1-.3,2.07,2.07,0,0,1,.2-.6c.3-.9.4-1,.3-1a.31.31,0,0,1,.1-.2.76.76,0,0,0,.2-.5,7.26,7.26,0,0,1,.5-1.2,3.11,3.11,0,0,1,.4-.6c.1-.1.2-.3.3-.4a.37.37,0,0,0,.1-.3.22.22,0,0,1,.2-.2c.1-.1.2-.1.2-.2a1.44,1.44,0,0,1,.2-.3A2,2,0,0,1,21,2.3c.4.2.4.2.3.3a.31.31,0,0,1-.2.1,6.38,6.38,0,0,0-1.4,1.2,15.12,15.12,0,0,0-.9,1.6,13.41,13.41,0,0,0-1,2.7,3.71,3.71,0,0,1-.2.9c-.1.6-.1,1.1,0,1.1s.3-.1.4-1c.2-1.3.2-1.5.3-1.6s.1-.2.1-.3a.76.76,0,0,1,.2-.4.76.76,0,0,0,.2-.4,2.6,2.6,0,0,1,.4-1,.49.49,0,0,0,.1-.3V5.1l.2-.2a2.12,2.12,0,0,1,.7-1,.22.22,0,0,0,.2-.2c0-.1.1-.2.3-.2a.76.76,0,0,1,.4-.2.31.31,0,0,1,.2-.1.1.1,0,0,0,.1-.1l.1-.1a.31.31,0,0,0,.2-.1c.1-.1.5-.1.4,0A.1.1,0,0,1,22,3a.31.31,0,0,0-.2.1,7,7,0,0,0-.8,1c-.3.4-1,1.5-.9,1.6a.31.31,0,0,1-.1.2,17.15,17.15,0,0,0-.9,1.9,6.88,6.88,0,0,0-.3,2.4c0,.3.2.4.3.2s.1-.2.1-.4a9.66,9.66,0,0,1,.3-1.8c.1-.1.1-.3.2-.4s.2-.7.3-.9a7.93,7.93,0,0,1,.4-.9l.1-.1a1.44,1.44,0,0,1,.2-.3c.1-.2.3-.5.4-.7.3-.5.4-.6.6-.7l.4-.4c.1-.2.3-.3.4-.4s.2-.1.3-.2a1.06,1.06,0,0,1,.8-.1,1.76,1.76,0,0,1,.5.4c.3.4.3.5.1.4a1.08,1.08,0,0,0-.7.3A6,6,0,0,0,21.8,6a11.88,11.88,0,0,0-1,1.8,1,1,0,0,0-.1.3,5.91,5.91,0,0,0-.8,2.2.19.19,0,0,0,.3,0c.1-.1.1-.1.1,0v.2c.1.1.1.1.2,0l.1-.1a1.14,1.14,0,0,1,.3-.6s.1-.1,0-.1a.44.44,0,0,0,.1-.3c.1-.1.2-.2.2-.3a1.24,1.24,0,0,0,.2-.3c.1-.1.2-.2.2-.3a.22.22,0,0,1,.2-.2c.1-.1.2-.1.2-.2a4.68,4.68,0,0,1,.6-.5A1.73,1.73,0,0,1,23.8,7c.5-.2,1.4-.4,1.7.1a14.63,14.63,0,0,0-2.8,1.3.1.1,0,0,1-.1.1.1.1,0,0,0-.1.1l-.2.2c-.1.1-.2.2-.2.3s-.4.6-.5.7a.1.1,0,0,0-.1.1.35.35,0,0,0-.1.2,1.48,1.48,0,0,0-.3.9c0,.2.1.1.4-.3a7.35,7.35,0,0,1,.8-1.2l.2-.2c0-.1.2-.2.3-.2a6.19,6.19,0,0,1,2.7-1.3H26c.4.1.8-.1.6-.2a1,1,0,0,0-.3-.1.35.35,0,0,1-.2-.1c0-.1-.1-.1-.2-.2s-.2-.2-.2-.3,0-.2-.1-.2a4.91,4.91,0,0,0-1.1-.1,1.13,1.13,0,0,1-.8.1,2.22,2.22,0,0,1,.4-.5c.4-.4.6-.6.7-.6s.1-.3-.1-.5-.2-.3-.4-.1a.37.37,0,0,1-.3.1,2.07,2.07,0,0,0-.6.2l-.4.2.2-.2.2-.2c0-.1.6-.4.8-.5h.3c.2.1.2,0,.3-.4a.85.85,0,0,0-.2-.6A1.76,1.76,0,0,0,23,2.5c-.4-.1-.7-.2-.7-.2a4,4,0,0,0-1.2-.4,1.88,1.88,0,0,1-.8-.2c-.1-.1-.4-.1-.6-.1s-.4,0-.5-.1c-.3-.2-.6-.2-1.8-.3-.9-.1-1.1-.1-1.2-.2A2.77,2.77,0,0,0,14.9.9c-.2.1-.3.1-.2,0s0-.2-.2-.2c-.6-.5-.7-.5-.7-.5Zm9.8,4.7h0c.1,0-.4.5-.7.8l-.3.3-.3.3-.4.4-.3.3a.1.1,0,0,0-.1.1,3.91,3.91,0,0,1-.4.5c-.5.6-1,1.3-1.1,1.4s-.3.5-.3.4a.31.31,0,0,1,.1-.2,1.69,1.69,0,0,1,.2-.5c.2-.4.6-1.3.7-1.4a1.69,1.69,0,0,1,.2-.5c.1-.2.3-.5.4-.7a1.18,1.18,0,0,1,.5-.5c.1,0,.2-.1.3-.1a9.38,9.38,0,0,1,1.5-.6Zm2.3,2.4s-.4.5-.5.5,0,.1,0,.1a4.33,4.33,0,0,1-.5.1,4.66,4.66,0,0,0-2.5,1.3c-.1.1-.4.3-.5.5s-.4.4-.5.5c-.3.3-.4.7-.3.8a.35.35,0,0,0,.2.1.22.22,0,0,0,.2-.2c0-.1.1-.3.2-.3a.31.31,0,0,0,.1-.2l.2-.2.2-.2.2-.2a1.44,1.44,0,0,1,.3-.2,4.72,4.72,0,0,1,2-1c.3,0,.3,0,.2.1a.1.1,0,0,0-.1.1,1.38,1.38,0,0,0-.3.4l-.2.2a15.56,15.56,0,0,0-1.2,1.1.35.35,0,0,0-.1.2s-.3.4-.5.7c-.3.5-.4.6-.4.8v.2l.2-.1c.1-.1.2-.1.2-.2a.35.35,0,0,0,.1-.2.31.31,0,0,0,.1-.2,8.3,8.3,0,0,1,1.5-1.7c.1,0,.5-.4.6-.5s.1-.1.2-.2a.35.35,0,0,0,.2-.1l.4-.2c.4-.2.5-.2.5-.4s0-.1-.1-.2h-.3c-.1,0-.1,0-.2-.1s-.1-.1.1-.3c.9-.8.4-.8.3-.8Zm-15,2.8a.19.19,0,0,0-.1.3c.1.1.3.1.3,0s-.1-.3-.2-.3Zm.8,0h0c-.1,0-.1.3,0,.4s.3,0,.3-.2-.2-.2-.3-.2Zm2.6,0a.22.22,0,0,0-.2.2.21.21,0,0,0,.4-.1c.1,0,0,0-.2-.1Zm-1.5,0c-.2,0-.3.2-.2.3a.21.21,0,0,0,.4,0c.1-.1,0-.2-.2-.3Zm-3,.1c-.1,0-.1,0-.1.1s0,.2.1.2c.1.2.3.1.3,0v-.2a.44.44,0,0,0-.3-.1Zm-1.1.2H8.5c-.1.1-.1.2.1.3s.1.1.3,0,.1-.2,0-.2a.31.31,0,0,1-.2-.1Zm4.7.1a.3.3,0,0,0-.2.4c.1.2.3.1.4-.1s.1-.3-.2-.3Zm-5.5.2a.1.1,0,0,0-.1.1c-.1.1-.1.1-.1.3s.2.1.3,0,.2-.2,0-.3l-.1-.1Zm3,.2a.1.1,0,0,0-.1.1c-.2.1-.2.2,0,.4a.19.19,0,0,0,.3,0c.1-.2.1-.3,0-.4l-.2-.1Zm-1.6,0c-.2,0-.2.3-.1.4s.2.1.4-.1.1-.1,0-.2-.2-.1-.3-.1Zm2.5.1c-.2,0-.3.2-.2.3s.2.2.4,0a.31.31,0,0,0,.1-.2c-.2,0-.2-.1-.3-.1Zm.8.2c-.1,0-.2.1-.2.3s.1.1.2.1.2,0,.2-.2,0-.1-.2-.2Zm-2.5.1c-.2,0-.3.1-.2.3s.1.2.2.1.2-.4,0-.4Zm-2.9.1a.31.31,0,0,0-.2.1c-.1.1-.2.2-.1.3s.2.1.4-.1.1-.2,0-.2a.1.1,0,0,0-.1-.1Zm3.6.3h-.1c-.1,0-.2.3,0,.4s.2.1.3-.1a.31.31,0,0,0,.1-.2c0-.1-.1-.1-.2-.1Zm-2.7,0H8c-.2.1-.2.2-.1.3s.2.1.3-.1,0-.2-.1-.2Zm.7.1c-.1,0-.2.1-.1.3s.1.2.3.1.2-.2,0-.3-.1-.1-.2-.1Zm3,.1c-.1,0-.1,0-.1.1s0,.3.1.4.2.1.3-.1.1-.1,0-.2-.2-.2-.3-.2Zm-2.2.3c-.2,0-.3.2-.1.4s.1.1.3,0,.2-.3.1-.3-.1-.1-.3-.1Zm-2.3.1h0c-.2,0-.3.1-.2.3a.21.21,0,0,0,.4,0c0-.2-.1-.3-.2-.3Zm-.8.1h0c-.3,0-.3.2-.2.4s.2.1.3-.1,0-.3-.1-.3Zm2.1.3c-.1,0-.1,0-.2.1s-.1.1,0,.1.1.1,0,.1.2.1.3,0,.1-.1,0-.2a.1.1,0,0,0-.1-.1Zm2.7,0c-.2,0-.3.2-.2.4a.35.35,0,0,0,.2.1.32.32,0,0,0,.3-.3c0-.1-.1-.1-.3-.2Zm-.9.2c-.2,0-.3.1-.2.3a.21.21,0,0,0,.4,0c0-.1,0-.2-.2-.3Zm-1.1.3a.37.37,0,0,0-.3.1.19.19,0,0,0,0,.3c.1.2.5,0,.4-.3.1-.1,0-.1-.1-.1Zm-1.8,0c-.2,0-.2.1-.2.3a.1.1,0,0,0,.1.1.32.32,0,0,0,.3-.3c.1,0,.1,0-.2-.1Zm-.9.3c-.1,0-.2.1-.2.3a.21.21,0,0,0,.4,0v-.2c-.1-.1-.1-.1-.2-.1Zm1.8.4a.35.35,0,0,0-.2.1v.2a.19.19,0,0,0,.3,0c.1-.1.1-.1.1-.2s-.1-.1-.2-.1Zm2,0c-.2,0-.3.2-.2.4a.19.19,0,0,0,.3,0c.3-.1.2-.4-.1-.4Zm-.9.3c-.1,0-.2.1-.2.3s.2.3.4.1.1-.1,0-.2-.1-.2-.2-.2Zm-2.1.1c-.1,0-.1,0-.2.1a.19.19,0,0,0,0,.3c.1.2.3.2.4-.1v-.3Zm-.8.2H6.5c-.2,0-.2.1-.2.4s.4.1.5-.2a.22.22,0,0,0-.2-.2Zm1.8.4a.1.1,0,0,0-.1.1.19.19,0,0,0,0,.3l.1.1.2-.1c.2-.2.2-.3,0-.4s-.1-.1-.2,0Zm1,.4H9.3c-.2,0-.2.1-.2.3s.3.2.4.1a.3.3,0,0,0,0-.4Zm-1.7,0c-.2,0-.4.3-.2.4s.2.1.3-.1.1-.3-.1-.3Zm-1,.1c-.1,0-.1,0-.1.2v.2a.3.3,0,0,0,.4,0c.2-.2.1-.3-.2-.3l-.1-.1Zm1.8.5c-.2,0-.2.1-.1.3l.1.1a.45.45,0,0,0,.3-.3l-.3-.1Zm-.7.3h0c-.3,0-.3.2-.3.3a.21.21,0,0,0,.4,0c.1-.1.1-.2-.1-.3Zm.7.5c-.1,0-.1,0-.2.1a.19.19,0,0,0,0,.3c.2.1.3.1.4-.1s0-.2-.2-.3Zm-1.8.5a.37.37,0,0,0-.3.1c-.3.1-.4.4-.4.8a1.42,1.42,0,0,0,.2.6c.1.2.2.3.2.4a.31.31,0,0,0,.1.2.21.21,0,0,0,.4,0,.76.76,0,0,0-.1-.4c-.4-.7-.4-.7-.3-1a.52.52,0,0,1,.2-.4q.15-.3,0-.3Zm6.4.2h-.3c-.1,0-.2.1-.3.1s-.3.2-.5.3-.3.3-.3.4.3.2.5,0a2.1,2.1,0,0,1,1.1-.4,11,11,0,0,1,1.6.3c.2.1.4.1.5.2s.3.1.4.1a4.33,4.33,0,0,0,.5.1c.2,0,.4.1.4.2s.1.1.2,0,.1-.1.1-.2-.3-.3-.6-.4a2.07,2.07,0,0,1-.6-.2,2.07,2.07,0,0,0-.6-.2,2.07,2.07,0,0,1-.6-.2,2.48,2.48,0,0,0-.9-.1Zm-5,.4H7.9c-.1,0-.1.3-.1.3.1.2.4,0,.4-.2.1,0,.1-.1-.1-.1Zm13.7.5a.9.9,0,0,0-.5.1c-.4.1-.4.1-.9.6-.3.3-.4.5-.4.6v.2s.1,0,0,.1.1.2.5.4a2.2,2.2,0,0,0,1.4.1,3.17,3.17,0,0,0,1.2-.8c.4-.4.4-.5-.1-.8a2.46,2.46,0,0,0-1.1-.4.1.1,0,0,0-.1-.1Zm.3.5h0c.1,0,.2.1.4.1.4.2.4.3.2.4s-.3.2-.3.3a.31.31,0,0,1-.2.1c0-.1.1-.2.1-.3a.37.37,0,0,0-.1-.3c0-.1,0-.2-.1-.2s-.1-.1,0-.1Zm-7.3,0a4.15,4.15,0,0,0-1.3.3.76.76,0,0,1-.4.2,3.74,3.74,0,0,0-.7.6c-.2.3-.2.5,0,.5a.37.37,0,0,1,.3.1c.1.1.3.1.4.2s.4.1.5.1a3.42,3.42,0,0,0,1.1.1,2.78,2.78,0,0,0,1.2-.4,1.24,1.24,0,0,1,.3-.2c.2-.1.4-.2.4-.3a.19.19,0,0,0,0-.3.31.31,0,0,0-.2-.1.1.1,0,0,1-.1-.1,6,6,0,0,0-1.4-.7Zm0,.4h.1a2.11,2.11,0,0,1,1.1.5c.1.1.2.1.1.2a13.39,13.39,0,0,0-1.2.6h-.5l.1-.1.1-.1a.63.63,0,0,0,.1-.9c-.1-.1-.1-.1,0-.1a.1.1,0,0,1,.1-.1Zm5.9,0h0a.59.59,0,0,0,.2.5c0,.1-.3,0-.4-.2s0-.1.1-.2Zm-1.4.5-.1.1a.19.19,0,0,0,0,.3c0,.1.1.2.1.4s.1.4.1.6a5.42,5.42,0,0,0,.6,1.1l.1.1c0,.1,0,.2.1.2a1.3,1.3,0,0,1,0,1c-.1.1-.2.1-.4.1s-.2,0-.4.2-.2.2-.4.2a2.43,2.43,0,0,0-1.2,0c-.9.2-1,.2-1.2-.2s-.2-.4-.3-.3a.55.55,0,0,0,.2.8,1.39,1.39,0,0,0,1.1.2,2.63,2.63,0,0,1,1.2-.1,1,1,0,0,0,.9-.2c.1-.1.2-.2.3-.2a.49.49,0,0,0,.3-.1.55.55,0,0,0,.4-.6,2.84,2.84,0,0,0-.4-1.2.31.31,0,0,1-.1-.2.31.31,0,0,0-.1-.2,5.78,5.78,0,0,1-.6-1.7c.1-.1-.1-.3-.2-.3Zm-6,.1h0c.1.2.1.4.2.5s-.3.1-.4-.1l-.1-.1v-.2a.37.37,0,0,1,.3-.1Zm-7,2.5a1.24,1.24,0,0,0,.3.2c.2.2.3.2.7.3h.5c.1,0,.1,0,.1.1a2,2,0,0,0,.5.9.31.31,0,0,1,.1.2l.2.4c.3.4.3.5.1.7-.5.4-.7.5-1.1.5a1,1,0,0,0-.4.1,4.54,4.54,0,0,0-.8-.2.35.35,0,0,1-.2-.1.1.1,0,0,0-.1-.1c-.1,0-.3-.3-.5-.6a3.6,3.6,0,0,1-.1-1.8,5.07,5.07,0,0,0,.7-.6Zm12.6,3.4h-.1a.77.77,0,0,1-.6.1c-.3-.2-.4,0-.6.1s-.6.2-.9.4-.4.2-1.3,0c-.4-.1-.4-.1-.4.1s.1.3.5.4c.1,0,.3.2.5.6s.4.5.4.6a3,3,0,0,0,1,.5,2.43,2.43,0,0,0,1.2,0c.3-.1.4-.1,1.1-.7a1.38,1.38,0,0,1,.4-.3,7,7,0,0,1,1-.8c.2-.2.3-.2.1-.3a4.08,4.08,0,0,1-.7-.2,5.64,5.64,0,0,1-.7-.1,7.93,7.93,0,0,1-.9-.4ZM9.8,26a3.22,3.22,0,0,1,.8,1,3.81,3.81,0,0,0,.5.6c.3.3,1.2,1.1,1.3,1.2l.3.3.2.2a1.24,1.24,0,0,0,.3.2,1.44,1.44,0,0,0,.3.2c.1,0,.2.2.4.3s.4.3.5.4c.3.3.6.5.7.4a.1.1,0,0,1,.1.1,1.54,1.54,0,0,0,.7.3,1.69,1.69,0,0,1,.5.2,7.93,7.93,0,0,0,1.7.2c.3,0,.3,0,.2.1s-.1.1,0,.4a4.93,4.93,0,0,0,.6,1.4v.1a3.52,3.52,0,0,0,.4,1c.1.2.1.2,0,.4a9.12,9.12,0,0,1-2.1,1.5s-.3.1-.7.2a9.44,9.44,0,0,0-.9.3c-.2,0-.4.1-.6.1a5.64,5.64,0,0,1-.7.1,9.86,9.86,0,0,1-2.4-.3,5.62,5.62,0,0,1-2.2-1,7.72,7.72,0,0,1-1.9-1.7c-.2-.2-.4-.5-.6-.6s-.4-.4-.6-.6l-.4-.4.2-.1a1.44,1.44,0,0,1,.3-.2,5.74,5.74,0,0,0,.8-.9.1.1,0,0,1,.1-.1c.1,0,.2-.2.2-.3h0a5.58,5.58,0,0,0,.5-.8.1.1,0,0,1,.1-.1,8.33,8.33,0,0,0,.7-1.4c.2-.5.4-1.8.2-1.9s-.1-.1,0,0a.35.35,0,0,0,.1-.2c.4-.5.4-.6.4-.6Zm8.2.2c.4.3.5.1.9,0h.2c.2,0,.5.2.6.2a1,1,0,0,1,.3.1c.1.1-.2.2-.4.2h-.2a.81.81,0,0,1-.8-.1c-.3-.1-.3-.1-.4,0s-.3.1-.5.1h-.2c-.1,0-.8-.1-.8-.2a.35.35,0,0,1,.2-.1,3.63,3.63,0,0,1,.7-.3c.3.2.4.1.4.1Zm.3,1h.2a2.14,2.14,0,0,0,.6.1,1.09,1.09,0,0,1,.5-.1h0a.1.1,0,0,1-.1.1,1.73,1.73,0,0,0-.4.3c-.2.1-.4.3-.6.3s-.8.1-.8,0a1,1,0,0,0-.4-.1.76.76,0,0,1-.5-.2c-.1-.1-.4-.3-.4-.4h1.9ZM6.2,32.5h0a.91.91,0,0,0,.3.5c.3.4.4.5.5.5l.1.1a.1.1,0,0,0,.1.1l.1.1a.1.1,0,0,0,.1.1.75.75,0,0,1,.3.3c.1.1.1.2.2.2.3.3.9.8,1.5,1.3.3.2.7.4,1,.6a8.68,8.68,0,0,0,1.6.6.49.49,0,0,1,.3.1,10.34,10.34,0,0,0,3.1.2,9.07,9.07,0,0,0,1.6-.4,1,1,0,0,1,.4-.1,4.45,4.45,0,0,0,1.2-.6,8,8,0,0,0,.8-.6c.4-.3.6-.4.7-.4h.1a.35.35,0,0,1,.2.1,3.78,3.78,0,0,1-1.5,1.2,4.27,4.27,0,0,0-1.2.6,3.34,3.34,0,0,1-1.2.5,3.83,3.83,0,0,1-1.4.1,1.72,1.72,0,0,0-.8.1c-2.5.1-5-1.5-6.6-3.1a1.87,1.87,0,0,1-.4-.3l-.4-.4-.3-.3-.2-.2a1.87,1.87,0,0,0-.4-.3l-.3-.2.3-.2c.1-.2.2-.2.2-.2Z"/></g></g></g></svg>