<svg xmlns="http://www.w3.org/2000/svg" viewBox="0 0 33.35 39.08"><defs><style>.cls-1{fill:#df9996;}.cls-2{fill:#bda69a;}.cls-3{fill:#f1e5d2;}.cls-4{fill:#c17e7e;}.cls-5{fill:#322722;}</style></defs><g id="圖層_2" data-name="圖層 2"><g id="圖層_1-2" data-name="圖層 1"><g id="head1"><path id="Path_40253" data-name="Path 40253" class="cls-1" d="M8.6,29a28.27,28.27,0,0,0-3.1,1.1c-1.7.7-3.3,1.3-4.9,2.1-.3.2,0,.4.2.6A23.53,23.53,0,0,0,15.2,39a21.66,21.66,0,0,0,3.6-.1,24,24,0,0,0,9-2.7A22.32,22.32,0,0,0,33.3,32c.2-.3-.3-.4-.5-.4-2.4-.8-4.8-1.6-7.3-2.4-.2-.1-.4,0-.6.2h0a7.46,7.46,0,0,1-.7,1.2,6.91,6.91,0,0,1-2.5,2.3,5.36,5.36,0,0,1-1.1.5,16,16,0,0,1-2.1.5,8.16,8.16,0,0,1-2.7,0,6.44,6.44,0,0,1-2.7-1.1,9.61,9.61,0,0,1-2.1-1.4,16.32,16.32,0,0,1-2-1.7c-.2-.2-.2-.5-.4-.7Z"/><path id="Path_40254" data-name="Path 40254" class="cls-2" d="M13.7,0a5.9,5.9,0,0,0-5.5,3.7c-.3.5-.1,1.2-.5,1.6-.8.7-.4,1.8-.9,2.6a17.63,17.63,0,0,0,0,2.3,4,4,0,0,1-.3,1.9c-.2.7-.7,1.2-.8,1.9a12,12,0,0,0-.8,4.2,10.18,10.18,0,0,0,.3,3.5A4.49,4.49,0,0,1,5.6,24a22.71,22.71,0,0,0-.3,4.5,11.86,11.86,0,0,0,1.1,4.2,20.71,20.71,0,0,0,1.7,2.4,6,6,0,0,0,.6,1.1,9.85,9.85,0,0,1,.2-1.7c.2-.2.3-.5.6-.7a.66.66,0,0,1,.4-.5c.1-.1.6-.3.6,0-.2.1-.1.2,0,.2.4.1.7-.4.9-.6.6-.5.8-1.3,1.3-1.9a2.41,2.41,0,0,1,.8.6c.3.2.6.1.9.3s.2.5.5.5a1.08,1.08,0,0,1,1.1,0c.2.2,0,.6.3.8a.84.84,0,0,0,1.1-.4v-.1a.55.55,0,0,1,.6-.4c.1,0,.1,0,.2.1a.3.3,0,0,0,.5-.2.9.9,0,0,1,1-.1c.3.1.4-.4.6-.5s.6-.6.9-.2a4.28,4.28,0,0,0,1.5,1.8c.4.4,1,.6,1.3,1,.5.5.4,1.3.5,2,.2-.1.3-.4.4-.6a9.51,9.51,0,0,1,1.5-2A11,11,0,0,0,28,28a21.19,21.19,0,0,0-.4-4.4,10.1,10.1,0,0,1,.7-2.3,14.82,14.82,0,0,0,0-4.7,7.71,7.71,0,0,0-.7-2.6,4.59,4.59,0,0,0-.7-1.6c-.2-.2-.1-.5.2-.4.3-.3.1-.7.2-1,.1-.5-.3-.9-.4-1.4s.1-1-.1-1.4c-.1-.6-.8-.9-.8-1.6s-.8-1-1-1.6a4.71,4.71,0,0,0-2.2-3.7,9.27,9.27,0,0,0-5.7-.7A11.34,11.34,0,0,0,13.9,0Z"/><path id="Path_40255" data-name="Path 40255" class="cls-3" d="M16,8.74a15.75,15.75,0,0,0-5.7.8,1.22,1.22,0,0,0-.9.8,7.11,7.11,0,0,0-.7,3.2c.2,0,.5-.2.8-.2a13.94,13.94,0,0,1,4.1.3,1.44,1.44,0,0,1,.9,1.1c.1.3.5,0,.7,0a8.6,8.6,0,0,1,1.6.1.9.9,0,0,1,.6-.6,8.27,8.27,0,0,1,4.4-.3c.6.2,1,.7,1.6.8.5-.1.3-.7.2-1a14.65,14.65,0,0,0-1.1-4.1,4.36,4.36,0,0,0-1.7-.7,23.25,23.25,0,0,0-3.7-.4c-.4.2-.8.1-1.1.2Zm-4.5,3.1a5.84,5.84,0,0,1,2.2.8c.1,0,.3.3.1.3a4.76,4.76,0,0,0-2.5-.9c-.4,0-.8.3-1.3.2-.2-.1.2-.3.3-.3.4,0,.8-.1,1.2-.1Zm8.1.5a2.81,2.81,0,0,1,2,.6c.1.2-.2,0-.3,0-.5-.2-.9-.5-1.4-.4a4,4,0,0,0-2.2.5c-.1,0-.3.2-.4.1a3,3,0,0,1,2-.8ZM15,14.94a.85.85,0,0,0-.8.7,3.13,3.13,0,0,1-2.5,2.2,3.08,3.08,0,0,1-1.9-.3c-.3,0,0,.4,0,.6a12,12,0,0,0,1.2,2.2c.7,1.2,1.3,2.6,2,3.9,1,.5,1.8,1.3,2.9,1.5a4.52,4.52,0,0,0,2.8-.7,18.53,18.53,0,0,0,2.8-2.8,29.48,29.48,0,0,0,1.7-4.1,11,11,0,0,0,.4-3.1c-.3,0-.9-.2-1,.1a4.6,4.6,0,0,1-1.9,2.8,3.06,3.06,0,0,1-2.3-.1,2.77,2.77,0,0,1-1.4-1.6c-.2-.3-.2-.8-.5-1.1a8.87,8.87,0,0,1-1.5-.2Zm-1.5,3.2c.4.4.9.4,1.4.7s.8-.1,1.2,0,.5-.3.8-.3c.2.3-.2.4-.4.4a11,11,0,0,1-1.8.2c-.2-.1-.3-.5-.6-.5s-.6,0-.7-.2a.37.37,0,0,1,.1-.3ZM14.7,21c.4,0,.8.5,1.2.1.6-.4,1.2.3,1.9.2.4,0,.7-.3,1.1-.3.1.2-.3.3-.4.4a5.45,5.45,0,0,1-3.1,1,4.12,4.12,0,0,1-2.4-1.1c-.2-.2.3-.2.4-.1.5.2.8-.2,1.3-.2Zm2.5,1.7c.2.2-.2.4-.3.5a2.11,2.11,0,0,1-1.7.3c-.3-.2-.7-.3-.8-.7.1-.2.4.1.6.1a1.36,1.36,0,0,0,1.6.1c.1,0,.3-.2.6-.3Zm3.7.8h0a25.6,25.6,0,0,1-2.6,2c-.5.2-1,.3-1.5.5a4.55,4.55,0,0,1-3.2-1c-.1-.1-.5-.4-.5,0a22.75,22.75,0,0,1,.2,2.6c.2.5.9.6,1.3.7s.9.4,1.3.2c.3,0,.6.3.9.3a1.07,1.07,0,0,0,1.1-.3c.3-.3.5.2.7.1.4-.1.6-.5,1-.4.3-.1.8-.1.7-.6a27.33,27.33,0,0,1,.5-4c.3-.1.2-.1.1-.1Zm-.5,4.7c-.5.1-.7.8-1.2.6s-.7.6-1.2.5a1.93,1.93,0,0,0-1.5-.1c-.2.1-.5.3-.7.2,0-.4-.5-.5-.8-.5s-.4.4-.6.2-.3-.4-.6-.5-.4-.1-.4.2-.1.9.3,1c.2.2.6.1.8.2.2.3.5.6.9.4.1-.2.4-.2.4,0,.3.4.8.2,1.2.3s.8.1,1-.3.6.2.9,0,.6-.5,1-.4a1.14,1.14,0,0,0,.8-.3,5.9,5.9,0,0,0-.2-1.4c0-.1,0-.1-.1-.1Zm-6.9,1.6h0c-.4.1-.4.5-.4.7,0,.4.5.6.8.7s.8.5,1.2.7.8.5,1.2.4c.4-.3.3-.9.4-1.3s-.7-.4-.9-.1-.5-.2-.7-.3a.74.74,0,0,0-.9-.1c-.2-.1-.3-.7-.7-.7Zm7.2.2a.56.56,0,0,0-.6.5c-.1.1-.3.5-.5.4s-.2-.6-.5-.4-.4.6-.7.8c-.4-.1-.5-.6-1-.5s-.3.5-.2.8.2.8.6.8a1,1,0,0,0,.7-.4,1.08,1.08,0,0,0,1.3-.2.91.91,0,0,1,.7-.3c.2-.1.4-.1.6-.3a1.69,1.69,0,0,0-.3-1c0-.2-.1-.2-.1-.2Zm-7.8,1.1a4.13,4.13,0,0,0-.7,1.1c.3.2.7.4,1,.6a8.08,8.08,0,0,0,2.7,1.1,8.16,8.16,0,0,0,2.7,0,8,8,0,0,0,2.1-.5,3.7,3.7,0,0,0,1.1-.5c.1-.1.2-.1.3-.2a3.6,3.6,0,0,1-.8-1.2c-.2-.4-.7,0-.9.2s-.3.6-.6.5a.92.92,0,0,0-1,.1c-.1.2-.3.4-.5.2a.5.5,0,0,0-.8.3,1,1,0,0,1-1.1.5h-.1c-.3-.2-.1-.6-.3-.8a1.08,1.08,0,0,0-1.1,0c-.3-.1-.2-.4-.5-.5s-.6-.1-.9-.3c0-.2-.3-.5-.6-.6Z"/><path id="Path_40256" data-name="Path 40256" class="cls-1" d="M17.7,22.14c0,.4-1.1,1.3-2,1.3a1.89,1.89,0,0,1-1.7-1.3c0-.2-.2-.7.1-.8s1.4.2,2,0c1.5-.3,1.6.4,1.6.8Z"/><path id="Path_40257" data-name="Path 40257" class="cls-4" d="M10,13.54H9.5a1.62,1.62,0,0,0-.9.5,5.45,5.45,0,0,0,.5,2.2,2.73,2.73,0,0,0,.9,1.2,2.82,2.82,0,0,0,2,.4,3.37,3.37,0,0,0,2-2.2,2.85,2.85,0,0,0,0-1.3c-.1-.3-.5-.4-.8-.5a11.53,11.53,0,0,0-2.6-.3Zm9.9.4c-.4,0-.7.2-1.1.2-.2,0-.3.1-.5.1-.4.2-.9.2-1.2.5a1.39,1.39,0,0,0,0,1.1,4.07,4.07,0,0,0,1.2,1.7c.4.2.8.3,1.2.5a1.67,1.67,0,0,0,1.5-.4,7.48,7.48,0,0,0,1.5-2.4.62.62,0,0,0-.2-.7,3.1,3.1,0,0,0-1.7-.5c-.3,0-.5-.1-.7-.1Zm-9.1.1h0a3.51,3.51,0,0,0-.5.8c-.1.2-.3.4-.4.6s0-.1,0-.2a4.7,4.7,0,0,1,.6-.9c.1-.2.2-.2.3-.3Zm-1,.2a1.47,1.47,0,0,1-.5.6c.1-.2.2-.5.5-.6Zm1.9,0c.2.1,0,.2,0,.3a2.65,2.65,0,0,1-.5.6c-.1.2-.1.3-.3.4s-.2.3-.3.5-.2.3-.4.5a.22.22,0,0,1-.2.2,5.67,5.67,0,0,1,.8-1.3,9.38,9.38,0,0,0,.9-1.2Zm1,.3c.1,0,0,.2-.1.2a1.47,1.47,0,0,1-.5.6c-.1.1-.1.3-.3.3a.37.37,0,0,0-.1.3c-.1.1-.1.2-.2.3s-.1.2-.2.2-.2,0-.1-.1a12.74,12.74,0,0,1,1.3-1.9c0,.2.1.1.2.1Zm6.5.1h0c.1,0,0,.1,0,.2-.2.2-.2.5-.4.7a1.76,1.76,0,0,1-.4.5.35.35,0,0,0-.2.1c-.1,0,0-.2.1-.2a10.14,10.14,0,0,1,.9-1.3Zm1.3.1a1.79,1.79,0,0,1-.5.7l-.3.3c-.1.2-.3.2-.4.4a2.7,2.7,0,0,1-.7.8,5,5,0,0,1,.8-1.2,7.27,7.27,0,0,1,.8-.9c.2-.1.2-.1.3-.1Zm.8,0c.1,0-.1.1-.1.2s-.2.2-.2.3c-.2.1-.2.3-.3.4a2.41,2.41,0,0,1-.6.8c-.2.2-.3.4-.5.6-.1,0-.2,0-.1-.1A13.3,13.3,0,0,1,20.9,15c.1,0,.2-.2.4-.3Zm-3.2.1a.52.52,0,0,0-.2.4c-.1.1-.2.2-.2.3,0-.3.2-.4.3-.6a.1.1,0,0,0,.1-.1Zm-5.1.5c0,.1-.1.1-.1.2a2.7,2.7,0,0,1-.7.8,4.7,4.7,0,0,1,.6-.9.31.31,0,0,0,.2-.1Zm8.6.3c.1,0,0,.2-.1.3a1.76,1.76,0,0,1-.4.5c-.1,0-.4.2-.3,0s.3-.5.5-.7c.2,0,.2-.1.3-.1Z"/><path id="Path_40258" data-name="Path 40258" class="cls-1" d="M16.5,3.64a25.27,25.27,0,0,0-6.7,1,3.14,3.14,0,0,0-2.4,1.9c0,.2-.2.6,0,.8a13.39,13.39,0,0,1,1.2-.6,20.36,20.36,0,0,1,3.5-1.1c.1,0,.4-.1.5,0a36.16,36.16,0,0,1-3.5,1.3A5.49,5.49,0,0,0,7,8.14c-.1.2-.1.8.3.7A12.75,12.75,0,0,1,10,7.74c.2,0,.2.1,0,.1-.9.6-2.1.6-2.8,1.5a1.4,1.4,0,0,0,0,1.1c.4-.1.6-.5,1-.7a20.63,20.63,0,0,1,3.5-1.2,22.66,22.66,0,0,1,5.2-.2,15.46,15.46,0,0,1,6,1,27.74,27.74,0,0,1,3.7,2.2c.2.2.4,0,.3-.2a2,2,0,0,0-.9-1.9c-1.5-1.3-3.5-1.6-5.3-2.2-.1-.1-.4-.2-.4-.3A20.36,20.36,0,0,1,23.8,8a19.23,19.23,0,0,1,2.5,1.2c.3-.1.1-.5.1-.8a2.07,2.07,0,0,0-1-1.4c-1-.6-2-1.1-3-1.6a7.45,7.45,0,0,1,2.8,1.1c.2.1.6.4.6.1a3.76,3.76,0,0,0-1.4-1.4,27.18,27.18,0,0,0-2.5-1.1,45.07,45.07,0,0,0-5.4-.5Z"/><path id="Path_40259" data-name="Path 40259" class="cls-1" d="M17,31.84a1.74,1.74,0,0,0-.3,1.4c.3.3.6-.1.7-.4a1.28,1.28,0,0,0-.4-1Z"/><path id="Path_40260" data-name="Path 40260" class="cls-5" d="M13.8,0a2.2,2.2,0,0,0-.8.1,7,7,0,0,0-3.4,1.5,5.13,5.13,0,0,0-1.5,2.3,5.85,5.85,0,0,0-.2,1.3c-.3.2-.6.5-.6.6v.4a1.09,1.09,0,0,0-.1.5c-.1.6-.1,1-.2,1a1.14,1.14,0,0,0-.3.8v.8a2.2,2.2,0,0,0,.1.8,2.43,2.43,0,0,1,0,1.2,1.69,1.69,0,0,1-.2.5c0,.1,0,.2.1.2H6.5c.1.2,0,.4-.4.9a5.2,5.2,0,0,0-.3.5v.1c-.1.1-.1.2-.1.4a.37.37,0,0,1-.1.3c-.8.9-1,5.2-.7,7,.1.3.1.5.2.6a.6.6,0,0,1,.1.4c.2.7.2.8.3,1.1.2.5,0,.5,0,1.2a14,14,0,0,0-.1,5.4c-1.9.8-3.6,1.6-5.4,2.2l.3.3q2.1-.9,5.1-2.1c.1.4.2.9.3,1.3a7.48,7.48,0,0,0,1.6,2.9l.3.3a1.72,1.72,0,0,1,.4.6.35.35,0,0,0,.1.2c.1.1.1.2.2.4s.3.5.4.4a1.06,1.06,0,0,0,0-.6V35c.1-.3.1-.3.2-.4l.2-.2q0-.15.3-.3v-.2a2.19,2.19,0,0,0,.5-.3l.1-.1h.2a2.74,2.74,0,0,0,.4-.5,7.27,7.27,0,0,0,.7-2.3,12.63,12.63,0,0,0,.3-4.6,4.33,4.33,0,0,1-.1-.5.37.37,0,0,0-.1-.3.35.35,0,0,0-.1-.2v-.3c0-.1,0-.2-.1-.2a.6.6,0,0,1-.1-.4c0-.1-.1-.3-.1-.4l-.1-.1c0-.1-.3-.9-.4-.9v-.1c-.1-.2-.1-.4-.2-.6a1.42,1.42,0,0,1-.2-.6c0-.1-.2-.5-.3-.8-.1-.1-.1-.3-.2-.4s-.2-.5-.3-.7-.3-.7-.4-.7-.1-.1-.1-.2a.37.37,0,0,1-.1-.3c-.1-.1-.1-.3-.2-.4s-.2-.3-.2-.5-.1-.3-.2-.3a.14.14,0,0,1,0-.2c0-.1,0-.2-.1-.2a.35.35,0,0,1-.1-.2,6.62,6.62,0,0,1,0-4.6c0-.1.1-.2.1-.3a.1.1,0,0,1,.1-.1c0-.1.1-.1.1-.2a.37.37,0,0,1,.1-.3c.1-.2.2-.6.1-.7s.2-.4.3-.4h.1l-.2.4a6.12,6.12,0,0,0-.5,1.2,4.33,4.33,0,0,0-.1.5,3.93,3.93,0,0,0-.1,1.5v.3a5,5,0,0,0,.3,1.4c.2.7.4,1.3.6,1.9a.6.6,0,0,1,.1.4,7.91,7.91,0,0,0,.5,1.3c.3.5.5,1,.8,1.4.1.1.5.9.8,1.4.1.2.3.5.4.7a3.33,3.33,0,0,0,.3.6,6,6,0,0,1,.7,1.8,15.53,15.53,0,0,1,.3,3.1v.7a7.83,7.83,0,0,1-.6,2.6,6.35,6.35,0,0,1-.7,1.2c-.1.1-.2.2-.2.3a1.34,1.34,0,0,1-.7.6c-.1,0-.2.1-.3.1s-.1.1,0,.2.4.1.7-.1a6.53,6.53,0,0,0,.9-1,.1.1,0,0,1,.1-.1h0c.1.1.2.1.3.2a6.35,6.35,0,0,1,1.2.7.76.76,0,0,0,.4.2,1.42,1.42,0,0,1,.6.2c.1.1.2.1.8.2a.37.37,0,0,1,.3.1c.1,0,.1,0,.2.1h.1c0,.1.8.1.8,0h.5c.3,0,.5.1.6,0s.1,0,.2-.1a1.27,1.27,0,0,0,.6-.1h.4c.1,0,.2-.1.3-.1s.4-.1.6-.1.5-.1.5-.2.2-.1.4-.1.2-.1.3-.1.2-.1.3-.2.1-.1.2-.1a.52.52,0,0,0,.4-.2H22a4.35,4.35,0,0,0,.7.6,6.82,6.82,0,0,1,.7.5c.3.2.4.3.4.4a.22.22,0,0,0,.2.2c.2.1.2.2.2.4s.1.6,0,.8v.6c.1.1.3-.1.4-.4a.76.76,0,0,1,.2-.4c.1-.1.1-.1.1-.2a7.76,7.76,0,0,1,.4-.7l.3-.3a9.24,9.24,0,0,0,1.6-2.9,8.33,8.33,0,0,0,.4-1.5c2,.7,4.2,1.4,5.4,1.8.1-.1.2-.2.2-.3a.1.1,0,0,1-.1-.1c-1.1-.3-3.5-1.1-5.5-1.9a15.14,15.14,0,0,0-.1-5.2c0-.7-.2-.7,0-1.2a11,11,0,0,0,.3-1.1c0-.1.1-.3.1-.4s.1-.3.2-.6c.3-1.8.1-6-.7-7a.44.44,0,0,1-.1-.3.6.6,0,0,0-.1-.4c0-.1-.1-.1,0-.1s-.1-.2-.3-.5c-.3-.5-.4-.7-.4-.9a.1.1,0,0,1,.1-.1l.1.1c.2,0,.2-.2.3-.8s0-.9-.1-.9v-.1a.76.76,0,0,0-.2-.4c-.2-.3-.2-.3-.1-.7s.1-.6,0-.8-.1-.2-.1-.3v-.1s-.1-.1,0-.1-.2-.3-.5-.7a.6.6,0,0,1-.1-.4.37.37,0,0,0-.1-.3c0-.1-.1-.1-.1-.2a4.05,4.05,0,0,0-.8-1,.37.37,0,0,1-.1-.3v-.9A4.93,4.93,0,0,0,21.1.34c-.3-.1-.6-.1-.7-.2A6.23,6.23,0,0,0,18.5,0c-.5.1-.9.1-1.4.2-1.1,0-2.2-.3-3.3-.2Zm.1.3a9.66,9.66,0,0,1,1.8.3c.9.2,1.3.3,1.6.7.2.2.2.2.3.2s.1-.1,0-.3-.1-.2,0-.3c.4,0,.8-.2,1.3-.2a13.8,13.8,0,0,1,1.4.1.35.35,0,0,1,.2.1,5.13,5.13,0,0,1,4.1,3.5,2.14,2.14,0,0,1,.1.6,4.2,4.2,0,0,0-.5-.2c-.3-.5-.6-1-.9-1.4a12.88,12.88,0,0,0-1.7-1.6c-.1-.1-.1-.1-.2-.1s-.1,0-.2-.1a3.09,3.09,0,0,0-1.3-.2,2.23,2.23,0,0,0-1.2.2c0,.1.1.2.5.1a4.72,4.72,0,0,1,1.5.2,4.05,4.05,0,0,1,.9.5,5.72,5.72,0,0,1,1.6,1.5c.2.2.2.6,0,.4l-.4-.2c-1.5-1.2-3.2-2.5-5.2-2-.2,0-.3.1-.4.1s-.2.1-.3.1-.1.1,0,.2.1.1.5,0a1.09,1.09,0,0,1,.5-.1h.9A6.81,6.81,0,0,1,22.1,4c-.4-.1-.8-.2-1.3-.3-.1-.1-.3-.2-.4-.3-.3-.1-.5-.3-.8-.3a.75.75,0,0,0-.5-.1,6.6,6.6,0,0,0-1.4-.1c-1.2,0-.4.4.7.4a3.26,3.26,0,0,1,1.4.4h0a15.89,15.89,0,0,0-3.8-.2h-.4c-.1,0-.2-.1-.4-.1a2.77,2.77,0,0,0-.9-.1h-.5a6.75,6.75,0,0,0-1.4.2,4.2,4.2,0,0,0-1.9.9c-.2,0-.4.1-.6.1s-.1,0,0-.2.1-.2.2-.2a.1.1,0,0,0,.1-.1.1.1,0,0,1,.1-.1.1.1,0,0,0,.1-.1,4.75,4.75,0,0,1,1.9-.9h.2c.2,0,.4-.1.6-.1a5.34,5.34,0,0,1,2.1.3q.15,0,0-.3a2.19,2.19,0,0,0-1.8-.4,6.05,6.05,0,0,0-1.5.2c-.9.2-2.3.9-2.5,1.8,0,.3-.2.4-.3.4s-.1-.2,0-.3l.1-.1c.2-.9,2.4-2.7,4-2.7h.2a8.39,8.39,0,0,1,2.1.1,1.49,1.49,0,0,1,.7.3c.1.1.2.1.3.2s.1,0,.1-.1c-.1-.3-.6-.6-1.3-.7a4.33,4.33,0,0,1-.5-.1c-.1,0-1.2-.1-1.4-.1s-.2.1-.4.1-.4.1-.6.1-.3.1-.4.1a5.9,5.9,0,0,0-3.3,2.7l-.2.6c0,.1,0,.2-.2.2a.22.22,0,0,0-.2.2c.1-.2.3-.9.4-1.1s0-.1.1-.2A4.84,4.84,0,0,1,12.3.84a.49.49,0,0,0,.3-.1,1,1,0,0,0,.3-.1,1.09,1.09,0,0,0,.5-.1.55.55,0,0,1,.5-.2Zm.1,3.1h.4c-.9.1-1.8.3-2.7.4a4.19,4.19,0,0,1,1.5-.4Zm2.7.3a21.83,21.83,0,0,1,4.9.6,1.45,1.45,0,0,1,.7.2l.6.3H23a1,1,0,0,0,.4.1c.1,0,.2.1.3.2s.1.1.2.1.2,0,.2.1.1.1.2.1a2.19,2.19,0,0,1,.5.3l.3.3c.1.1.3.2.4.3s.1.2.2.3a.37.37,0,0,1,.1.3c0,.1,0,.1-.3-.1a1.38,1.38,0,0,1-.4-.3c-.2-.1-1.5-.7-2-.9s-1.8-.4.1.3a8,8,0,0,1,1.6.8c.1,0,.1.1.2.1s.2.1.3.2a2.19,2.19,0,0,0,.5.3c.2.1.3.3.4.4a1.31,1.31,0,0,1,.3,1c0,.4,0,.5-.3.3l-.6-.3h-.1a24.07,24.07,0,0,0-4.7-1.8c-1-.3-.2.3.1.4,1,.3,4.1.9,5.4,2.4a1.64,1.64,0,0,1,.6,1.4v.2q0,.45-.3.3c-.1-.1-.2-.1-.3-.2s-.3-.2-.5-.3-.4-.3-.6-.4a10.63,10.63,0,0,0-1.9-1.1,1.69,1.69,0,0,0-.5-.2c-.1,0-.2-.1-.4-.2S22.1,9,22,9a4.08,4.08,0,0,1-.7-.2,5.79,5.79,0,0,0-1.7-.3,9.89,9.89,0,0,0-1.5-.1c-3,.2-5.1-.6-7.7.6a4.71,4.71,0,0,0-.5.2,4.71,4.71,0,0,1-.5.2c-.1,0-.3.1-.4.1a5.07,5.07,0,0,0-1.5.7l-.4.3v-.1c0-.2-.1-.3-.1-.5a.73.73,0,0,1,.2-.6,2.13,2.13,0,0,1,1.2-.7c.1,0,.5-.2.8-.3,1.4-.6,1-.8.2-.5-.6.2-1,.5-1.4.6-.1,0-.2.1-.3.1s-.1.1-.2.1a.76.76,0,0,1-.5.2.35.35,0,0,1-.1-.2c-.1-.4-.1-.5.2-.8,1.4-1,4-1.6,4.8-1.9s.9-.6,0-.4a25.18,25.18,0,0,0-4.4,1.6s-.1.1-.1,0-.1,0-.1-.3a.6.6,0,0,1,.1-.4c0-.1.1-.2.1-.3,0-.3.4-.7,1-1,.1-.1.2-.1.3-.2a.35.35,0,0,1,.2-.1c.1,0,.2-.1.3-.1s.2-.1.3-.1a.37.37,0,0,0,.3-.1c.1,0,.1,0,.2-.1h.1c.1,0,.2-.1.3-.1a42.25,42.25,0,0,1,6.2-.6Zm-.7,5a17.7,17.7,0,0,1,2.3.1c.3,0,.8.1,1.2.1a5.56,5.56,0,0,1,2.3.5.37.37,0,0,1,.3.1l.1.1c.1,0,.1,0,.2.1a16.57,16.57,0,0,1,1.1,3.8c0,.3.1.6.1,1,0,.2,0,.2-.2.3s-.5-.1-.6-.2l-.1-.1c-.1,0-.2-.1-.3-.2s-.8-.5-.8-.4a.76.76,0,0,1-.4-.1,9.2,9.2,0,0,0-3.3.2,4.33,4.33,0,0,0-.5.1.75.75,0,0,0-.7.5c-.1.2-.1.2-.2.2a3.3,3.3,0,0,0-2,0c-.1.1-.2,0-.2-.2v-.2s-.1-.1,0-.1a1.33,1.33,0,0,0-.5-.6,6.81,6.81,0,0,0-1.2-.3,6,6,0,0,0-.8-.1s-1.6-.1-2-.1a.9.9,0,0,0-.5.1H9.1a.37.37,0,0,0-.3.1c-.2.1-.2.1-.2,0v-.2c-.1-.2,0-.4,0-.5v-.1c0-.2.1-.5.1-.7.1-.4.2-.7.2-.8A.1.1,0,0,1,9,11l.1-.1c0-.1.2-.7.3-.7a.1.1,0,0,0,.1-.1c0-.1.2-.3.3-.4s.3-.1.4-.2a1.42,1.42,0,0,0,.6-.2,1.85,1.85,0,0,1,.7-.2c.2,0,.3-.1.5-.1a26,26,0,0,1,4-.3Zm7,1.2h.1a4.05,4.05,0,0,1,.9.5c0,.1.1.1,0,.2s.1.4.1.6a6.25,6.25,0,0,1,.2,1.8v.6a8.85,8.85,0,0,1,0,2.3,6.93,6.93,0,0,1-.3,2,2.39,2.39,0,0,0-.2.9,4.08,4.08,0,0,0-.2.7,1.69,1.69,0,0,1-.2.5c-.1.3-.4,1.1-.5,1.3a1.69,1.69,0,0,1-.2.5,2.07,2.07,0,0,0-.2.6,12.2,12.2,0,0,0-.5,1.7.76.76,0,0,1-.2.5,12.48,12.48,0,0,0-.5,3.2c0,.1,0,.4.1.5a5.29,5.29,0,0,0,.4,1.6c0,.1.1.1.1.2.1.3.9,2.2,1,2.3l.1.1a1.76,1.76,0,0,0,.4.5c.3.3.4.4.4.6s0,.2-.1.2-.3-.2-.5-.3-.5-.3-.5-.4a4.5,4.5,0,0,1-1.1-1.4,2,2,0,0,1-.4-.8,13.18,13.18,0,0,1-.5-2.6v-.7a7.06,7.06,0,0,1,.3-2.8c0-.1.1-.2,0-.3s0-.3.1-.3a.31.31,0,0,0,.1-.2c0-.1,0-.2.1-.2a1.09,1.09,0,0,0,.2-.4c.1-.2.1-.4.2-.6a.35.35,0,0,1,.1-.2l.1-.2c0-.1.1-.2.1-.3s.1-.2.1-.3a.37.37,0,0,0,.1-.3.37.37,0,0,1,.1-.3.37.37,0,0,0,.1-.3c0-.1.2-.5.2-.4a.1.1,0,0,1,.1-.1c0-.1,0-.1.1-.2a.1.1,0,0,1,.1-.1c0-.1.1-.2.1-.3a.76.76,0,0,0,.2-.4c0-.1.1-.2.1-.3s.1-.4.2-.6a.1.1,0,0,1,.1-.1h0v-.3c.2-.8.3-1,.2-1V17a2.24,2.24,0,0,0,.1-1v-.4h0v-.9a.9.9,0,0,0-.1-.5c0-.1-.1-.2-.1-.3a18.73,18.73,0,0,0-.8-3.4,4.55,4.55,0,0,0,.1-.6Zm-14.9.5h0c.1.1.1.1.1.2A.76.76,0,0,1,8,11a8.81,8.81,0,0,0-.7,3.1,23.31,23.31,0,0,0,1.1,5.5c.3.9.7,1.9,1,2.6a.76.76,0,0,0,.2.4,6.56,6.56,0,0,1,.1,2v.1c0-.1-.1-.3-.1-.4a11.13,11.13,0,0,0-.9-2.8c-.1-.2-.7-1.4-.9-1.7a4.71,4.71,0,0,1-.6-1.5,9.68,9.68,0,0,1-.3-1.1,12.29,12.29,0,0,1-.2-1.3v-1.5c0-.2.1-.6.1-.7v-.3c0-.2.1-.8.1-1.1.2-.1.3-1.2.8-1.7.2-.1.3-.2.4-.2Zm16.4.3a1.52,1.52,0,0,1,.6.4l.1.1a.45.45,0,0,1,.3.3v.2a5,5,0,0,1,.3,1.3,11.56,11.56,0,0,1,.1,1.7,18.94,18.94,0,0,1-.7,3.2,3.39,3.39,0,0,1-.3.8c-.2.5-.4,1.2-.7,1.8a9.25,9.25,0,0,0-.3,1c-.1.2-.1.5-.2.8a.76.76,0,0,1-.2.5.35.35,0,0,1-.1.2.37.37,0,0,1-.1.3,6.37,6.37,0,0,0-.2.9c0,.2-.1.4-.1.6a3.92,3.92,0,0,0-.2,1.3c-.1,1.2,0,3.8,1,5.3h0l.1.1.1.1a1.13,1.13,0,0,1-.1.8.31.31,0,0,1-.2-.1l-.2-.2c-.1,0-.1-.1-.1-.2a.37.37,0,0,0-.1-.3c-.1,0-.2-.1-.2-.3-.2-.6-.5-1.1-.7-1.7,0-.1-.1-.3-.1-.4a3.55,3.55,0,0,1-.2-1c0-.4,0-.5-.1-.6s.1-1.9.1-2v-.1h0c.1,0,.1-.3.2-.6,0-.1,0-.1.1-.2a.35.35,0,0,1,.1-.2c0-.1,0-.2.1-.2s.1-.1.1-.2.1-.2.1-.3a1.69,1.69,0,0,1,.2-.5c.1-.2.1-.4.2-.5v-.1a1,1,0,0,1,.2-.5,7.93,7.93,0,0,1,.4-.9c.1-.2.2-.6.3-.8a.6.6,0,0,0,.1-.4c0-.1,0-.1.1-.2s.6-2,.7-2.3c0-.1.1-.4.1-.6a17,17,0,0,0,0-3.2,2.14,2.14,0,0,0-.1-.6.6.6,0,0,0-.1-.4v-.6a1.8,1.8,0,0,0-.2-1c-.3-.4-.3-.5-.2-.5Zm1.4.9.3.3c.1.1.1.1.2.1a.1.1,0,0,1,.1.1c0,.1.1,1,.1,1.3v.3a5.64,5.64,0,0,1,.1.7,7.52,7.52,0,0,1,0,1.5,3.47,3.47,0,0,1-.2,1.3,8.11,8.11,0,0,0-.3,1.1,9.38,9.38,0,0,1-.6,1.5c-.2.3-.8,1.5-.9,1.7a7.91,7.91,0,0,0-.9,2.8.6.6,0,0,1-.1.4v-.4a18.14,18.14,0,0,1,.3-1.9,4.08,4.08,0,0,0,.2-.7.37.37,0,0,1,.1-.3,10.66,10.66,0,0,0,.7-1.9c0-.1,0-.1.1-.2s.1-.1.1-.2a4.45,4.45,0,0,1,.5-1.3,2.07,2.07,0,0,0,.2-.6,8.14,8.14,0,0,1,.2-.9,6.87,6.87,0,0,0,.2-2.4,2,2,0,0,0-.1-.7,5.13,5.13,0,0,0-.3-1.6Zm-14.4.2h-.3c-.1,0-.2.1-.3.1a.75.75,0,0,0-.5.1h-.2c-.1,0-.1,0-.2.1a.35.35,0,0,0-.1.2c0,.1,0,.1.1.1h.3c.1-.1.2-.1.4-.1a.6.6,0,0,0,.4-.1,2.09,2.09,0,0,1,1.3.2h.2c.1,0,.1.1.2.1a1.89,1.89,0,0,1,.8.5c.2.1.2.1.3.1A.1.1,0,0,0,14,13v-.1a.45.45,0,0,0-.3-.3c-.1,0-.1-.1-.2-.1a.31.31,0,0,0-.2-.1.76.76,0,0,1-.4-.2,2.73,2.73,0,0,0-1.4-.4Zm8.2.4H19a4.42,4.42,0,0,0-1.6.6c-.3.2-.3.4-.1.3s.2-.1.3-.1a4.12,4.12,0,0,1,.8-.3c.1,0,.1,0,.2-.1a2,2,0,0,1,.5-.1h1.5c.1,0,.1.1.2.1a.52.52,0,0,1,.4.2c.3.2.4.2.4.1h.2v-.1a4.61,4.61,0,0,0-1-.5c-.5,0-.8-.1-1.1-.1Zm-9.8,1.3H11a5.7,5.7,0,0,1,1.3.1,2.25,2.25,0,0,0,.7.1,1.85,1.85,0,0,1,.7.2.32.32,0,0,1,.3.3v.7c0,.5-.1.5-.4,1.1a3.25,3.25,0,0,1-1.3,1.3,1.56,1.56,0,0,1-1.5.1,3.55,3.55,0,0,1-.9-.4l-.3-.3a2.13,2.13,0,0,1-.5-.8,1.42,1.42,0,0,1-.2-.6.31.31,0,0,0-.1-.2.37.37,0,0,1-.1-.3v-.4a.6.6,0,0,0-.1-.4c-.1-.4,0-.5.7-.8.3.3.4.3.6.3Zm-3.7,0v1.3c0,.1-.1.3-.1.4s-.1.5-.1.7v1a9,9,0,0,0,.2,2.7,8.14,8.14,0,0,0,.2.9c.2,1.2.2,1.6.3,1.9s.1.5.2.7a8.56,8.56,0,0,0,.5,1.5,2.07,2.07,0,0,1,.2.6,9.62,9.62,0,0,1,.5,3.3.37.37,0,0,1-.1.3.35.35,0,0,1-.1.2c0,.1-.2.7-.3.7a.9.9,0,0,1,.1-.5,7.63,7.63,0,0,0-.2-2.6,6.12,6.12,0,0,0-.5-1.2c-.1-.1-.1-.2-.2-.4s-.1-.3-.2-.4a10.66,10.66,0,0,1-.7-1.9,3.8,3.8,0,0,1-.3-1.1c0-.1-.1-.3-.1-.4A14.38,14.38,0,0,1,5.8,15a1.42,1.42,0,0,1,.2-.6v-.1c0-.1,0-.1.1-.2a.37.37,0,0,0,.1-.3c-.1-.1,0-.2,0-.3Zm21,0h0a.31.31,0,0,1,.1.2c0,.1.1.2.1.3s.1.1.1.2v.1c.1.2.1.4.2.6a13,13,0,0,1,.3,6.2c0,.2-.1.3-.1.4s-.1.2-.3,1.1c-.2.6-.5,1.3-.7,1.9-.1.1-.1.3-.2.4s-.1.2-.2.4c-.2.4-.3.8-.5,1.2a4.57,4.57,0,0,0-.2,2.6c0,.2.1.3.1.5a4.88,4.88,0,0,1-.3-.7c0-.1,0-.2-.1-.2s-.1-.2-.1-.3a9.62,9.62,0,0,1,.5-3.3,2.07,2.07,0,0,1,.2-.6,8.56,8.56,0,0,0,.5-1.5,1.85,1.85,0,0,0,.2-.7,9,9,0,0,0,.3-1.9,4.12,4.12,0,0,1,.2-.9,9,9,0,0,0,.2-2.7v-1c0-.2-.1-.5-.1-.7s0-.3-.1-.4v-.6a4.55,4.55,0,0,1-.1-.6Zm-16.4.4c-.1,0-.4.3-.5.5s-.2.3-.3.4a.37.37,0,0,0-.1.3c-.1.3-.1.4,0,.4s.2-.1.3-.3a.22.22,0,0,1,.2-.2.37.37,0,0,0,.1-.3.52.52,0,0,1,.2-.4c0-.1.1-.2.1-.4Zm9.1.1c.4,0,.7.1,1.1.1a1.33,1.33,0,0,1,1,.4.35.35,0,0,0,.2.1c.1,0,.2.2.2.3V15c0,.1-.1.2-.1.3a11.73,11.73,0,0,1-.5,1.1,2.19,2.19,0,0,1-.3.5l-.4.4a1.53,1.53,0,0,1-.7.5,1.85,1.85,0,0,1-1.4-.2c-.4-.1-.6-.2-.7-.4-.6-.5-.8-1.3-1.1-1.6a1,1,0,0,1,.1-.9c.1-.2.4-.3.7-.4a.37.37,0,0,0,.3-.1c.1,0,.1-.1.2,0a.37.37,0,0,0,.3-.1c.1,0,.2-.1.2,0h.3a3.54,3.54,0,0,1,.6-.1ZM9.8,14h0c-.1.1-.1.1-.2.1s-.3.4-.4.6-.1.3.1.1c.1,0,.1-.1.2-.1s.1-.1.1-.2.1-.2.2-.2v-.1a.14.14,0,0,0,0-.2Zm1.9.1c-.1,0-.1.1-.2.2a.52.52,0,0,0-.2.4c-.1.1-.2.3-.3.4s-.2.2-.2.3,0,.1-.1.1c-.1.2-.3.4-.4.6-.3.5-.4.6-.2.6s.3-.2.2-.3a.1.1,0,0,1,.1-.1l.1-.1c.1-.1.1-.2.2-.2l.2-.2h-.2c.1-.1.1-.2.2-.2s.2-.2.2-.3a.1.1,0,0,1,.1-.1h0a.1.1,0,0,1,.1-.1,3.51,3.51,0,0,0,.5-.8c.1,0,0-.1-.1-.2Zm1,.3c-.1,0-.2.1-.6.6a3.81,3.81,0,0,1-.5.6c-.1.2-.2.3-.3.5s-.2.3-.3.5.1.2.1.1.1-.1.1,0,.2-.2.2-.2h0s.1,0,0-.1v-.1c.1,0,.3-.4.2-.4v-.1c.1-.1.1-.1.1,0h0c.1-.1.1-.2.2-.2a.31.31,0,0,0,.1-.2.69.69,0,0,0,.3-.4c.2-.2.2-.3.2-.4.3-.1.3-.1.2-.2Zm6.5.1c-.1,0-.5.6-.6.8s-.1.2-.2.4-.3.5-.1.5.1,0,.1-.1l.1-.1c.1,0,.1,0,.1-.1s.1-.2.2-.3a1.61,1.61,0,0,0,.4-.7.35.35,0,0,1,.1-.2.1.1,0,0,0,.1-.1.1.1,0,0,1,.1-.1h0v-.1c-.2.2-.2.1-.3.1Zm1.2.1h-.2a15.76,15.76,0,0,0-1.2,1.5,1.44,1.44,0,0,1-.2.3c-.2.3-.3.5-.2.5a1.72,1.72,0,0,0,.6-.6c0-.1.1-.1.1-.2a.31.31,0,0,0,.1-.2.1.1,0,0,1,.1-.1c.1,0,.1-.1.2-.1s.1-.1.1-.2.1-.1.1-.2,0-.1.1,0h.1c0-.1.1-.2.2-.3s.2-.3.3-.5c0,.2-.1.1-.2.1Zm.9.1h0a4.32,4.32,0,0,0-1,1,4,4,0,0,0-.8,1.2c-.2.3-.2.3,0,.3s.2,0,.2-.1.1-.1.1-.2c.3-.3.3-.4.3-.4h.1l.2-.2a.35.35,0,0,1,.1-.2l.1-.1c0-.1.1-.2.2-.3s.1-.2.2-.3a.1.1,0,0,1,.1-.1h.1a.31.31,0,0,1,.1-.2c.1,0,.1-.1.1-.2a.1.1,0,0,1,.1-.1l.1-.1Zm-3.1.1H18v.1a.1.1,0,0,1-.1.1l-.2.2c-.1.1-.2.4-.1.4s.1,0,.2-.1a.31.31,0,0,0,.1-.2s.1,0,0-.1A.31.31,0,0,1,18,15c.2-.1.2-.1.2-.2Zm-3.3.2a3.75,3.75,0,0,1,1.1.1c.1,0,.3.1.4,0h.2l.1.3c.4.8.5,1.7,1.4,2.3a5.27,5.27,0,0,0,1.5.5h.7c.3-.1.3-.1.4-.1a4.75,4.75,0,0,0,2-2.8c0-.1,0-.2.1-.2h.5c.4,0,.4,0,.4.1v.7a7.72,7.72,0,0,1-.2,1.5,8.45,8.45,0,0,1-.5,1.7,6.31,6.31,0,0,1-.4.9l-.2.6c-.2.5-.4.9-.6,1.4a3.67,3.67,0,0,1-1,1.4c-1,.9-1.4,1.3-1.4,1.4s-.1.1-.2.2a2.19,2.19,0,0,1-.5.3,1.55,1.55,0,0,1-.6.3c-.1,0-.2.1-.3.1s-.4.1-.6.2a3.11,3.11,0,0,1-2.6-.6c-.1-.1-.2-.1-.3-.2s-.2-.1-.3-.2l-.6-.3c-.2-.1-.4-.2-.4-.3a8.51,8.51,0,0,0-.6-1.3c-.1-.1-.1-.3-.2-.4s-.1-.2-.1-.3-.1-.1-.1-.2a3.33,3.33,0,0,1-.3-.6.76.76,0,0,1-.2-.4c0-.1,0-.1-.1-.2a7,7,0,0,1-.7-1.1c-.1-.1-.2-.2-.2-.3a.37.37,0,0,1-.1-.3v-.1a.1.1,0,0,1-.1-.1c0-.1,0-.1-.1-.1l-.1-.1c0-.2-.1-.3-.1-.5-.2-.5-.2-.5,0-.5a.1.1,0,0,1,.1.1.31.31,0,0,1,.2.1,3.59,3.59,0,0,0,1.8.2,3,3,0,0,0,1-.4c.1-.1.1-.1.2-.1s.3-.3.5-.5a5.62,5.62,0,0,0,.7-1.3c0-.2.1-.5.3-.5s.1,0,.2-.1c-.2-.3-.1-.3-.1-.3Zm-1.9.2c-.1,0-.2.1-.5.5s-.4.7-.3.7h.1c.1-.1.2-.3.3-.4s.3-.3.3-.4,0-.1.1-.2a.1.1,0,0,0,.1-.1l-.1-.1Zm8.6.4c-.1,0-.3.2-.4.4s-.1.2-.2.3l-.2.2c-.1.1-.1.2,0,.2s.4-.1.4-.2a.1.1,0,0,1,.1-.1c.1-.1.2-.2.2-.3a.35.35,0,0,1,.1-.2c.1-.3.1-.3,0-.3ZM6.3,17a.1.1,0,0,1,.1.1c0,.1.1.3.1.4s.1.4.2.6a7.74,7.74,0,0,0,.7,1.6c.1.2.2.3.2.5s.1.3.2.4A.76.76,0,0,1,8,21l.3.6c.1.1.1.2.2.4a.35.35,0,0,0,.1.2v.1s.1.3.2.7a6.78,6.78,0,0,1,.4,1.7V25a10.6,10.6,0,0,1-.5-1.2,1.69,1.69,0,0,1-.2-.5,4.88,4.88,0,0,1-.3-.7c-.1-.3-.3-.6-.3-.7a1.06,1.06,0,0,1-.2-.5,1.42,1.42,0,0,1-.2-.6c0-.1-.1-.2-.1-.3a.1.1,0,0,0-.1-.1,11.19,11.19,0,0,1-.5-1.5c-.1-.5-.2-.9-.3-1.4v-.3c-.2-.1-.2-.2-.2-.2Zm20.8,0a.35.35,0,0,1,.1.2v.3a3.53,3.53,0,0,1-.3,1.4,11.19,11.19,0,0,1-.5,1.5.1.1,0,0,1-.1.1c0,.1-.1.2-.1.3a1.07,1.07,0,0,0-.2.6,1.69,1.69,0,0,0-.2.5c0,.1-.2.4-.3.7s-.3.6-.3.7a1.06,1.06,0,0,0-.2.5,6.12,6.12,0,0,1-.5,1.2v-.3a4.12,4.12,0,0,1,.4-1.7,4.08,4.08,0,0,0,.2-.7v-.1a.35.35,0,0,0,.1-.2.76.76,0,0,1,.2-.4l.3-.6c.1-.1.1-.3.2-.4a.76.76,0,0,0,.2-.4c.1-.2.2-.3.2-.5a11.11,11.11,0,0,0,.7-1.6c.1-.2.1-.5.2-.6s.1-.3.1-.4c-.3-.1-.2-.1-.2-.1ZM13.5,18h0a.35.35,0,0,0-.1.5.6.6,0,0,0,.4.1c.4,0,.7.1.6.2a.35.35,0,0,0,.1.2c.1.1.2.2.4.1h.3A2.2,2.2,0,0,1,16,19c.1,0,.7-.1.7-.2a.35.35,0,0,1,.2-.1.35.35,0,0,0,.2-.1c0-.3-.2-.4-.4-.2s-.4.3-.8.3a.9.9,0,0,0-.5.1c-.2.1-.3.1-.4,0a2,2,0,0,0-.8-.4.52.52,0,0,1-.4-.2c-.2-.1-.2-.2-.3-.2Zm-4.9.4.4.8a4.93,4.93,0,0,1,.4.9c0,.1.1.1.1.2a6,6,0,0,0,.3.7c.1.3.3.6.3.7a2.83,2.83,0,0,0,.3.6c.3.7.6,1.4.7,1.7a22.68,22.68,0,0,1,.6,2.5,4.82,4.82,0,0,1,0,1.2,19.67,19.67,0,0,1-.3,2.4,10.34,10.34,0,0,1-.3,1.2c-.1.4-.4,1.2-.4,1.2s-.1,0,0-.4a2.92,2.92,0,0,0,.2-.9c.1-.3.1-.7.2-.8a12.75,12.75,0,0,0,.1-2v-.3a10,10,0,0,0-.1-2.4,7.38,7.38,0,0,1-.2-1.2c0-.1,0-.2-.1-.2a.37.37,0,0,1-.1-.3c0-.3-.1-.3-.4-1a1.45,1.45,0,0,1-.2-.7c0-.1,0-.2-.1-.2V22c-.1-.3-.2-.5-.3-.8a.35.35,0,0,1-.1-.2,1.69,1.69,0,0,0-.3-.6c0-.1-.1-.1-.1-.2a.76.76,0,0,0-.2-.4,1.42,1.42,0,0,1-.2-.6,4.33,4.33,0,0,0-.1-.5.49.49,0,0,1-.1-.3Zm-2,2.1h0a.35.35,0,0,1,.1.2c.1.1.1.2.2.4a.35.35,0,0,0,.1.2c0,.1.2.3.2.5a7.93,7.93,0,0,1,.4.9c.1.3.3.6.4.9.1.1.1.2.2.3s.2.5.3.7.1.1.1.2.1.3.1.4a6.8,6.8,0,0,1,.3,1.9v.4a.6.6,0,0,1-.1.4.37.37,0,0,0-.1.3c0,.1,0,.2-.1.2s-.1.1,0,.1a.31.31,0,0,1-.1.2.37.37,0,0,0-.1.3c0,.1-.1.2-.2.3l-.2.3v-.2a3.59,3.59,0,0,1,.2-1.1,2.69,2.69,0,0,0-.1-1.5,26.81,26.81,0,0,0-.7-2.7,3.39,3.39,0,0,0-.3-.8.35.35,0,0,0-.1-.2s-.4-2-.5-2.6Zm20.2,0h0a15,15,0,0,1-.6,2.8.35.35,0,0,1-.1.2,2,2,0,0,1-.3.8,26.81,26.81,0,0,0-.7,2.7,4.21,4.21,0,0,0-.1,1.5c.1.3.1.7.2,1.1v.2l-.2-.3a1.44,1.44,0,0,1-.2-.3.37.37,0,0,0-.1-.3.31.31,0,0,1-.1-.2v-.1c0-.1-.1-.1-.1-.2a.37.37,0,0,0-.1-.3.6.6,0,0,1-.1-.4v-.4a14.81,14.81,0,0,1,.3-1.9.6.6,0,0,0,.1-.4c0-.1,0-.1.1-.2a4.88,4.88,0,0,0,.3-.7c0-.1.1-.2.2-.3.1-.3.3-.6.4-.9a7.93,7.93,0,0,1,.4-.9,1.69,1.69,0,0,0,.2-.5.35.35,0,0,1,.1-.2c0-.1.1-.2.2-.4.1-.4.2-.5.2-.4Zm-12.2.4h-.2c-.1.1-.2.1-.3.2a1.7,1.7,0,0,1-1,0c-.1,0-.2,0-.2.1h0c0,.1.2.4.3.4s.1.1.2.1c.3.2.9.5.9.5h.2a.35.35,0,0,1,.2.1.31.31,0,0,1,.2.1c.2,0,.5.1.7.1a2.48,2.48,0,0,0,.9-.1,12.62,12.62,0,0,0,1.6-.7c.2-.1.3-.2.5-.3s.3-.2.3-.3V21c0-.1,0-.1-.1-.1a2.14,2.14,0,0,0-.6.1c-.3.3-.3.3-.7.3a1.42,1.42,0,0,1-.6-.2.63.63,0,0,0-.7-.1c-.4.2-.7.3-.7.2a2.39,2.39,0,0,0-.9-.3Zm0,.4c.1,0,.2.1.4.3s.2.3.3.2a.31.31,0,0,1,.2-.1c.1,0,.2,0,.2-.1s.6-.3.6-.2a.1.1,0,0,0,.1.1.35.35,0,0,1,.2.1.31.31,0,0,0,.2.1h.1a.35.35,0,0,0,.2.1c.1,0,.1,0,.1.1l-.4.2a1.15,1.15,0,0,1-1,.1,5.08,5.08,0,0,1-1.7-.3c-.1,0-.2-.1-.3-.2a2,2,0,0,1,.8-.4Zm2.6,1.3a3.11,3.11,0,0,0-.6.4.37.37,0,0,1-.3.1,1.27,1.27,0,0,1-.6.1c-.2,0-.3-.1-.5-.2a1.79,1.79,0,0,0-.8-.4c-.1,0-.1.1-.1.2s0,.2.1.2.3.2.4.3.3.2.7.2a2.5,2.5,0,0,0,1.3-.3c.1-.1.1-.1.2-.1s.1-.1.2-.1.1-.1.1-.2v-.1a.1.1,0,0,1-.1-.1Zm3.9.8h0a.37.37,0,0,1-.1.3c-.1.2-.1.4-.2.6a2,2,0,0,1-.1.5,15.44,15.44,0,0,0-.2,2,6.76,6.76,0,0,1-.1,1.2c0-.1-.2-.1-.4,0a.6.6,0,0,1-.4.1c-.2,0-.2,0-.3.1a.71.71,0,0,1-.6.3c-.1,0-.1-.1-.2-.1-.1-.2-.3-.2-.5.1s-.3.2-.9.2a1.85,1.85,0,0,1-.7-.2l-.3-.1-.2.1c-.2.1-.2.1-.5,0s-.3-.1-.5-.2a.75.75,0,0,0-.5-.1.75.75,0,0,1-.5-.1,2.18,2.18,0,0,1-.5-.4v-1.4a1.49,1.49,0,0,0-.1-.6,5.64,5.64,0,0,0-.1-.7v-.2l.3.2c1.1.7,2.6,1.6,3.8.9h0a2.54,2.54,0,0,0,.7-.2.31.31,0,0,1,.2-.1,2.51,2.51,0,0,0,.8-.5c1.4-1.2,1.9-1.7,2.1-1.7Zm-11.1.4c0,.1.1.2.1.3s.1.3.1.4.1.3.1.4.1.5.1.8a17.85,17.85,0,0,1,.2,2.3v.7a13.12,13.12,0,0,1-.4,3.5,3.39,3.39,0,0,1-.3.8c0-.1.1-.3.1-.4a14.92,14.92,0,0,0,.2-2.1,22,22,0,0,0-.4-3.6c-.1-.3-.1-.6-.2-.8a.6.6,0,0,1,.1-.4c.1-.1.1-.2.2-.3a2.79,2.79,0,0,0,.1-1.6Zm-4,.6a.35.35,0,0,1,.1.2c0,.1.1.1.1.2s.1.4,0,.5v.5c0,.2.1.3.1.5V29a3.2,3.2,0,0,0,.1.7c.1,1.6,1.1,3.1,1.8,4.9-1.1-.6-1.5-2-2-3.2a13.85,13.85,0,0,1-.2-7Zm21.4,0a12.82,12.82,0,0,1-.2,7,6,6,0,0,1-2,3.2,24.79,24.79,0,0,0,1.8-4.9,3.55,3.55,0,0,1,.1-.7v-2.7a.9.9,0,0,1,.1-.5c0-.3.1-.5,0-.5s0-.5,0-.5.1-.1.1-.2.1-.2.1-.2Zm-4,.8.2.2c0,.1.1.3.2.3s.1.3.1.6v.2c-.1.8-.2,1.9-.2,2.3a11,11,0,0,0,.2,1.8,11.56,11.56,0,0,1-.6-4.2,4.35,4.35,0,0,1,0-1.2c0,.1,0,0,.1,0Zm-16.6.9a5,5,0,0,1,.3,1.2,5.44,5.44,0,0,1,0,1.8,1,1,0,0,1-.1.4c-.1,0,0,.5,0,.5s.1.1,0,.1a.1.1,0,0,1-.1.1,12.09,12.09,0,0,1-.2-2.1c.1-.9.1-1.9.1-2Zm19.8,0v2.1a7.27,7.27,0,0,1-.2,2.1.1.1,0,0,1-.1-.1v-.1c.1,0,.1-.5,0-.5a1,1,0,0,1-.1-.4,5.44,5.44,0,0,1,0-1.8,12.76,12.76,0,0,0,.4-1.3ZM9.5,27.44l.3,2.1a8.1,8.1,0,0,1,0,2.2,5,5,0,0,0-.2-1.2c-.1-.5-.3-1-.4-1.5v-.1a3.46,3.46,0,0,0,.3-1.2v-.3Zm14.5.7c.1.2.1.5.2.7a2.34,2.34,0,0,0,.5,1,2.35,2.35,0,0,1-.2.8c-.1.2-.1.4-.2.5s0,.1-.1.2c-.1-.1-.1-.3-.2-.4a26.15,26.15,0,0,1,0-2.8Zm-3.5.1V29c0,.1.1.2.1.3v.3l-.2.1a1.76,1.76,0,0,1-.6.1c-.2-.1-.3,0-.5.2a.52.52,0,0,1-.4.2c-.3.1-.3.1-.5,0s-.4-.2-.6,0-.3.3-.8.2h-.6c-.4,0-.7,0-.7-.2s-.1-.3-.2-.3a.22.22,0,0,0-.2.2v.2l-.3-.1c-.1,0-.2-.1-.3-.2s-.1-.1-.1-.2-.2-.2-.4-.1a.76.76,0,0,1-.4-.1q-.3-.15-.3-.3v-.6c0-.3.1-.3.3-.2s.2.1.3.1l.2.2c.1.1.1.2.2.2s.1,0,.2.1A.19.19,0,0,0,15,29c0-.2.2-.2.5-.1s.4.1.4.3,0,.2.5.1c.1,0,.1-.1.2-.1s.4-.2,1.2-.1a.35.35,0,0,1,.2.1c0,.1.1.1.2.2s.5-.2.5-.3.2-.2.3-.2.3-.1.4,0a.37.37,0,0,0,.5-.2h0a1.38,1.38,0,0,1,.4-.3Zm-5.9.5h0a.1.1,0,0,1,.1.1h-.1c0,.1-.1,0,0-.1Zm-5.6.7H9a10.61,10.61,0,0,1,.6,3.4v.1a4.93,4.93,0,0,0-.5-1.8,1.69,1.69,0,0,0-.2-.5,2.35,2.35,0,0,1-.2-.8,1.38,1.38,0,0,0,.3-.4Zm4.4.4h.1c.2,0,.4.1.4.3s.3.5.4.5a.35.35,0,0,0,.2-.1c.1-.1.1-.1.2,0l.1.1c0-.1.3.2.5.4s.2.2.3.2.1-.1.2-.2.1-.1.4-.1h.4V31a2.77,2.77,0,0,1-.1.9c-.1.4-.2.5-.3.5a3.18,3.18,0,0,1-.9-.3A.37.37,0,0,0,15,32c-.1,0-.2-.1-.4-.1s-.1-.1-.2-.1-.1-.1-.2-.1a.92.92,0,0,0-.6-.4c-.1,0-.2-.1-.3-.1a.54.54,0,0,1-.3-.4h0c0,.1-.1,0-.1,0a.1.1,0,0,1,.1-.1,1,1,0,0,0,.1-.3c.2-.5.2-.6.3-.6Zm-5,.2c.1,0,.1.1.2.5s.1.6.2.9a3.14,3.14,0,0,1,.4,2v.3a.35.35,0,0,1-.1.2c0-.1-.1-.2-.1-.3A9.83,9.83,0,0,0,8.5,32a6.89,6.89,0,0,0-.3-.8c-.1-.2-.1-.4-.3-.6l-.1-.2.2-.1c.1-.1.2-.1.4-.3-.1.1-.1,0,0,0Zm16.7,0h0c.2.1.3.2.4.2l.2.1-.1.2-.3.6c-.1.2-.2.6-.3.8a7.49,7.49,0,0,0-.5,1.6c0,.1-.1.2-.1.3s-.1,0-.1-.2v-.3a14.16,14.16,0,0,1,.4-2,2.92,2.92,0,0,0,.2-.9c0-.3.1-.4.2-.4Zm-4.3,0,.1.3c.1.3.1.6.2.7H21a.37.37,0,0,0-.3.1.76.76,0,0,1-.4.1c-.1,0-.2,0-.3.2a.55.55,0,0,1-.5.3c-.5.2-.7.2-.8,0s-.1-.1-.2,0a.66.66,0,0,1-.5.4c-.3,0-.4,0-.4-.1h0a.35.35,0,0,1-.1-.2c0-.1-.1-.3-.1-.4a.82.82,0,0,1,0-.7.1.1,0,0,0,.1-.1h.2c.1,0,.2.1.3.2s.1.2.2.2a.1.1,0,0,1,.1.1c.1.2.3.1.4-.2.1-.1.1-.2.2-.3s.5-.3.6-.3v.1a.37.37,0,0,0,.1.3c.1.2.1.2.3.1a.82.82,0,0,0,.4-.6c0-.1.1-.1.3-.2Zm-13.3.5.2.3c.1.1.1.3.2.4s0,.2.1.2a4.18,4.18,0,0,1,.4,1c0,.1,0,.1.1.2s.1.1.1.2a.37.37,0,0,0,.1.3,2.13,2.13,0,0,1,.1,1.2c0,.1-.1,0-.2-.2l-.3-.6a14.6,14.6,0,0,1-1.1-2.8v-.1c0-.1.1-.1.2-.1Zm18.4,0h.2c.2,0,.2,0,.2.1v.1a14.6,14.6,0,0,1-1.1,2.8,3.29,3.29,0,0,0-.3.6c-.1.2-.2.3-.2.2a3.78,3.78,0,0,1,.1-1.2c0-.1.1-.2.1-.3s0-.2.1-.2.1-.1.1-.2a3,3,0,0,1,.4-1c0-.1.1-.1.1-.2a.76.76,0,0,1,.2-.4Zm-13,.6.2.1c.1.1.2.2.3.2s.2.1.1.2.2.3.4.3.2,0,.2-.1h.1c.1.1.1.1.2.1.3.1.4.2.4.4s0,.2.1.2.4,0,.4-.1.1-.1.2,0h.4s.1.1.1,0c.2,0,.3.1.2.2a.66.66,0,0,0,.2.7c.1.1.2.1.4.1a.6.6,0,0,0,.4-.1,1.33,1.33,0,0,0,.5-.6q0-.15.3-.3c.2-.1.2,0,.3.1s.1.1.2.1a.45.45,0,0,0,.3-.3c0-.1.1-.1.3-.2a.37.37,0,0,0,.3-.1c.1-.1.1,0,.2.1s.1.1.2.1.3-.3.4-.5l.3-.3c.1-.1.3-.1.4-.2l.2-.1.1.2a.76.76,0,0,1,.2.5,2.09,2.09,0,0,0,.4.6h-.1c-.1,0-.1,0-.1.1a13.35,13.35,0,0,1-1.2.6h-.2a.37.37,0,0,0-.3.1c-.2.1-.5.1-1.3.3a3.2,3.2,0,0,1-.7.1h-1a5.69,5.69,0,0,1-3.3-.9,1.69,1.69,0,0,0-.5-.2H13a.1.1,0,0,0-.1-.1c-.1,0-.1,0-.2-.1s-.2-.1-.3-.2a.35.35,0,0,0-.2-.1.37.37,0,0,0,.1-.3v-.1a1.41,1.41,0,0,0,.3-.5Zm4.1.7c.1,0,.3.6.3.8,0,.4-.2.7-.5.6-.1,0-.1-.1-.1-.3a3.54,3.54,0,0,1,.1-.6.37.37,0,0,0,.1-.3.35.35,0,0,1,.1-.2Zm-8.3,3.1a.35.35,0,0,1,.1.2v.2H8.7c0-.1-.1-.3,0-.4Zm16.1,0h0c0,.2,0,.4-.1.4h-.1v-.2c.1-.2.1-.3.2-.2Z"/></g></g></g></svg>