<svg xmlns="http://www.w3.org/2000/svg" viewBox="0 0 49.6 49.6"><defs><style>.cls-1{fill:#e3eaea;}.cls-2{fill:#edf1f1;}.cls-3{fill:#b69564;stroke:#b69564;}</style></defs><g id="圖層_2" data-name="圖層 2"><g id="圖層_1-2" data-name="圖層 1"><g id="Outline"><path id="Path_64394" data-name="Path 64394" class="cls-1" d="M48.9,24.8A24.1,24.1,0,1,1,24.8.7,24.11,24.11,0,0,1,48.9,24.8Z"/><path id="Path_64395" data-name="Path 64395" class="cls-2" d="M27.6,3.5A24.11,24.11,0,0,0,9.3,43.3,24.13,24.13,0,0,0,43.1,9.1,24.58,24.58,0,0,0,27.6,3.5Z"/><path id="Path_64396" data-name="Path 64396" class="cls-3" d="M24.8.5A24.3,24.3,0,1,0,49.1,24.8,24.33,24.33,0,0,0,24.8.5Zm0,.4A23.9,23.9,0,1,1,.9,24.8,23.9,23.9,0,0,1,24.8.9Z"/></g></g></g></svg>