<svg xmlns="http://www.w3.org/2000/svg" viewBox="0 0 49.6 49.6"><defs><style>.cls-1{fill:#e3eaea;}.cls-2{fill:#edf1f1;}.cls-3,.cls-4{fill:#b69564;}.cls-3{stroke:#b69564;}</style></defs><g id="圖層_2" data-name="圖層 2"><g id="圖層_1-2" data-name="圖層 1"><g id="Outline"><path id="Path_64394" data-name="Path 64394" class="cls-1" d="M48.9,24.8A24.1,24.1,0,1,1,24.8.7,24.11,24.11,0,0,1,48.9,24.8Z"/><path id="Path_64395" data-name="Path 64395" class="cls-2" d="M27.6,3.5A24.11,24.11,0,0,0,9.3,43.3,24.13,24.13,0,0,0,43.1,9.1,24.58,24.58,0,0,0,27.6,3.5Z"/><path id="Path_64396" data-name="Path 64396" class="cls-3" d="M24.8.5A24.3,24.3,0,1,0,49.1,24.8,24.33,24.33,0,0,0,24.8.5Zm0,.4A23.9,23.9,0,1,1,.9,24.8,23.9,23.9,0,0,1,24.8.9Z"/></g><path id="head10" class="cls-4" d="M33.53,13.87A2,2,0,0,1,31.8,15a3.61,3.61,0,0,1-1.38-.26A6.72,6.72,0,0,0,29,14.13a4.37,4.37,0,0,0-3,.35,9.87,9.87,0,0,1-1.38.69c-1.56.35-3.47-.95-4.25,1.13a22.82,22.82,0,0,0-.52,2.25,2.06,2.06,0,0,1-1.38,1.73A1.76,1.76,0,0,1,17,19.85c-1.21-1-1-3-1.82-4.25-.52-.95-2-1.56-1.65-2.77a4.73,4.73,0,0,1,1.82-2.25,13.87,13.87,0,0,1,3.55-1.82,15.59,15.59,0,0,1,8-.69,11.3,11.3,0,0,1,4.77,1.82,4.32,4.32,0,0,1,1.56,1.73A2.9,2.9,0,0,1,33.53,13.87Zm-.86-.17a1.42,1.42,0,0,0,.26-1.3c-.35-2.08-2.86-3.12-4.68-3.64a15.59,15.59,0,0,0-10.83,1c-1,.52-3.64,1.65-3.38,3.2a3.26,3.26,0,0,0,.61,1.22,5.5,5.5,0,0,1,1.21,1.9,13.39,13.39,0,0,0,.78,2.34c.35.61,1.3,1.47,2,.78A4.17,4.17,0,0,0,19.41,17a3.88,3.88,0,0,1,1.22-2.17A2.52,2.52,0,0,1,23,14.48a2.18,2.18,0,0,0,1.47,0,7.58,7.58,0,0,0,1-.61,4.43,4.43,0,0,1,1.73-.78,3.84,3.84,0,0,1,2,.35,10.06,10.06,0,0,0,1.73.6,1.84,1.84,0,0,0,1.48-.34.17.17,0,0,0,.26,0ZM26.08,40.55c-.78,0-6.75.09-6.75-.43,0,0-.52-.44,6.75-.26C30.33,39.94,30.16,40.38,26.08,40.55Zm-8.4-3.81a25.23,25.23,0,0,0,.18-2.6c0-1.73.17-3.47.17-5.2V21.32l-.09.09a.32.32,0,0,0-.17.08.44.44,0,0,1-.43-.33h-.18v.26c-.08,1.64-.08,3.37-.17,4.93-.09,2.08-.26,4-.43,5.81-.09.43-.09.78-.18,1.12A12.81,12.81,0,0,0,16.21,35a2.69,2.69,0,0,0,.26,1.12c.17.17.26.35.43.43s.18.18.26.18a1.69,1.69,0,0,0,.5.2A1.36,1.36,0,0,0,17.68,36.74Zm13.86-3.38c0-.35-.09-.78-.09-1.13s-.08-.86-.08-1.3v-.26a1,1,0,0,1-.09-.51c0-.09-.09-1.13-.09-1.48,0-.69-.08-1.47-.08-2.25A7.17,7.17,0,0,1,31,25a20.08,20.08,0,0,1-.09-2.33V21.15l-.78,0c0,.36,0,.72,0,1.08V24.7c0,1.64.08,3.29.17,4.94s.17,3.29.34,4.93c.08.71.16,1.44.24,2.18h0a1.26,1.26,0,0,0,.61-.69V36a3,3,0,0,0,.17-.87A10.35,10.35,0,0,0,31.54,33.36Zm-1,1.21c-.17-1.64-.34-3.29-.52-4.85s-.26-3.29-.26-4.94c0-.77-.08-1.64-.08-2.42v-.95h-.09a.66.66,0,0,1-.41-.16l-.56,0a.4.4,0,0,1-.28.1.38.38,0,0,1-.22-.07h-.27c.12.1.05.24.05.32a.18.18,0,0,1-.17.18.41.41,0,0,1-.43,0,.42.42,0,0,1-.19-.47h-.5a.91.91,0,0,1-.83.31.85.85,0,0,1-.43-.29l-1.11,0a.36.36,0,0,1-.37.27.38.38,0,0,1-.37-.27l-1.52,0h-.05a.11.11,0,0,1-.06,0q-1,0-2-.06A12.41,12.41,0,0,1,20,23.75c-.09,1.73-.17,3.46-.35,5.28s-.34,3.64-.6,5.37c-.18.87-.18,1.73-.35,2.6v.06l.87.11a21.1,21.1,0,0,0,2.6.17h2.42c.78,0,1.56-.08,2.17-.08,1.12-.09,2.25-.18,3.29-.35h.09a2,2,0,0,0,.63-.13C30.68,36.05,30.58,35.32,30.5,34.57Zm-10-5.63c-.08,1.13-.17,2.25-.26,3.38s-.26,2.34-.43,3.47h-.09c0-1.13.26-2.26.35-3.3.09-1.21.17-2.42.26-3.63.17-2.26.26-4.59.26-6.85A59.58,59.58,0,0,1,20.45,28.94Zm1.18-6.52a.26.26,0,1,1,0-.52C21.89,21.9,21.89,22.42,21.63,22.42Zm2.16-.17a.26.26,0,1,1,0-.52C24.05,21.82,24.05,22.25,23.79,22.25Zm2.51,5.28a.27.27,0,0,1-.26.26.28.28,0,0,1-.26-.26.28.28,0,0,1,.26-.26C26.13,27.36,26.3,27.45,26.3,27.53ZM26,26.06a.18.18,0,1,1,0,.35A.18.18,0,1,1,26,26.06Zm-.18-.86a.58.58,0,0,1-.34.43.57.57,0,0,1-.44-.35c0-.17.18-.34.35-.43A.39.39,0,0,1,25.78,25.2Zm-.43,1.47c0,.08-.09.08-.17.08h-.09a.34.34,0,0,1-.26-.08c-.09,0-.09-.09-.09-.18v-.08a.38.38,0,0,1,.35-.35.61.61,0,0,0,.26.17A.25.25,0,0,1,25.35,26.67Zm-.17-4a.35.35,0,1,1-.35-.34A.38.38,0,0,1,25.18,22.68Zm-.52-1.21a.26.26,0,0,1,0,.52A.26.26,0,1,1,24.66,21.47Zm-.26,3h.17c.09,0,.09.09.09.18s-.09.08-.09.17a.31.31,0,0,1-.26-.09A.32.32,0,0,1,24.4,24.5Zm.43,5.89a.31.31,0,1,1,0,.61A.31.31,0,1,1,24.83,30.39Zm.26,5a.26.26,0,1,1,0-.52A.26.26,0,1,1,25.09,35.42Zm.35-2.34a.35.35,0,1,1,.34-.35A.38.38,0,0,1,25.44,33.08Zm.69-2.95a.35.35,0,1,1,0-.69c.17,0,.26.17.35.35A.38.38,0,0,1,26.13,30.13Zm2.17-6.67c-.09.09-.26,0-.35-.08s0-.26.09-.35a.16.16,0,0,1,.26,0c0,.09.08.17.08.26S28.38,23.46,28.3,23.46ZM28.73,25a.17.17,0,1,1,0-.34C29,24.68,28.9,25,28.73,25Zm.17-2.34c-.17.09-.43.09-.52-.08v-.35c.09-.09.09-.17.26-.17.09-.18.26-.09.35.08S29.08,22.6,28.9,22.68Zm11.74,7.73a7.86,7.86,0,0,1-3.47,3.82,12.35,12.35,0,0,1-2.42,1,3.5,3.5,0,0,0-1,.52.83.83,0,0,0-.35.43c0,.08-.09.17-.09.26a.63.63,0,0,0,.09.43h0L33.62,39v.09a2.26,2.26,0,0,1-.17,1,.08.08,0,0,1-.09.08,1.84,1.84,0,0,1-.78.87,2,2,0,0,1-.95.26h-.09c-1.3.17-2.68.35-4,.43-.78,0-1.65.09-2.69.09h-.52a22.48,22.48,0,0,1-2.42-.09c-1.3-.08-2.26-.08-3.21-.17a11.15,11.15,0,0,0-1.64-.17H16.9a3.27,3.27,0,0,1-1.21-.35c-.09-.09-.26-.09-.35-.17a1.69,1.69,0,0,1-.43-.61,2,2,0,0,1-.26-1.39l.26-2.08c.09-.43.09-.86.17-1.38.26-2.17.44-4.42.61-7,.17-2.34.26-4.67.26-7.1,0-1.13.09-2.34.09-3.55V17.6h.43v.08h0v.78h0a19.77,19.77,0,0,1-.09,2.43c-.08,2.6-.17,4.76-.26,6.75-.08,2.26-.26,4.51-.52,6.67-.17,1.3-.26,2.34-.34,3.38v.09c-.09.86-.26,2.16.6,2.6a2.35,2.35,0,0,0,1,.26h0a8.43,8.43,0,0,0,1.64.17c.95.09,2.08.17,3.21.17h2.94c.87,0,1.73,0,2.69-.08a32.8,32.8,0,0,0,4-.35h0a1.72,1.72,0,0,0,.87-.26,1,1,0,0,0,.52-.78c0-.17.08-.43.08-.61v-.6c0-.26-.08-.44-.08-.7a30.3,30.3,0,0,1-.35-3.37c-.26-2.26-.43-4.51-.52-6.67-.09-2-.17-4.16-.26-6.76,0-.69,0-1.56-.09-2.51V14.82h.78v.87c1.22,1.13,3,.87,4.59,1a4.88,4.88,0,0,1,2.34.69,3.7,3.7,0,0,1,1.39,1.65,5.33,5.33,0,0,1,.52,1.64,15.12,15.12,0,0,1,.43,4.42A23.25,23.25,0,0,1,40.64,30.41Zm-8.41-6.14c0,.95.09,1.81.09,2.77,0,.52.09,1.12.09,1.64.08,1,.08,1.82.17,2.69,0,.08.09.08.09.17h0a.25.25,0,0,0,.17.09c.17,0,.35.08.52.08a4.56,4.56,0,0,0,1-.08,4,4,0,0,0,2.42-1.82A9.09,9.09,0,0,0,38,24.61a10.82,10.82,0,0,0-.35-2.86,2.68,2.68,0,0,0-1.21-1.82A5.9,5.9,0,0,0,34,19.67a3.5,3.5,0,0,0-1.3.26,2.23,2.23,0,0,0-.7.78v1a21,21,0,0,1,.26,2.6Zm8.06-3.9A5.07,5.07,0,0,0,39.08,18a4.08,4.08,0,0,0-2.6-.87c-1.39-.08-3,0-4.25-.78a.33.33,0,0,1-.08.26h.08a10.58,10.58,0,0,0,3.21.7,5.23,5.23,0,0,1,2.77.52h0a20.38,20.38,0,0,0-3.29-.44,6.27,6.27,0,0,1-2.77-.69v1.21c0,.26.08.44.08.69a5.94,5.94,0,0,1,3-.51,3.4,3.4,0,0,1,3,1.81c.09.18,0,.18-.09.09A3.24,3.24,0,0,0,35,18.55a5.6,5.6,0,0,0-2.69.43c0,.09.09.17.09.26h.08a4.68,4.68,0,0,1,2.69-.43,3.25,3.25,0,0,1,2.34.69,3.76,3.76,0,0,1,1.12,2.25A18.55,18.55,0,0,1,38.9,25a8.68,8.68,0,0,1-1.56,5.45,4.72,4.72,0,0,1-4.24,1.82v.26A4.92,4.92,0,0,0,38,30.07c.09-.17.17-.09.09.09-1,1.9-2.95,3.2-4.94,2.68v.78a2.73,2.73,0,0,0,.17.78C39,32.75,40.38,31,40.64,26c.08-1,0-2.17,0-3.21v-.08A9.87,9.87,0,0,0,40,19.59h0a11.3,11.3,0,0,1,.69,3.12c0,.6.09,1.12.09,1.73v2.08A9.66,9.66,0,0,1,40,30.33c-1.39,3-5.37,3.72-6.58,4.42.08.08.08.26.17.34h0a6.75,6.75,0,0,1,1.73-.78,10.17,10.17,0,0,0,4-2.6A8.65,8.65,0,0,0,41,26.43a35.72,35.72,0,0,0-.69-6.06Zm-11.95.69c-.26,0-.35-.43,0-.43S28.6,21.06,28.34,21.06Zm-6.15-.17h0a.19.19,0,0,1-.18.17h0a.19.19,0,0,1-.17-.17h0a.19.19,0,0,1,.17-.18h0C22,20.63,22.19,20.71,22.19,20.89Zm.08-1a.08.08,0,0,1-.08.08c-.09.09-.18,0-.26-.08h0c-.09-.09,0-.18.08-.26h.18C22.19,19.67,22.27,19.76,22.27,19.85Zm-.86.52h0a.23.23,0,0,1-.26.26.23.23,0,0,1-.26-.26c0-.18.08-.26.26-.26h0A.23.23,0,0,1,21.41,20.37Zm0-1.82a.26.26,0,1,1,0-.52A.26.26,0,0,1,21.41,18.55Zm-.26.78h0a.38.38,0,0,1-.35.34h0a.38.38,0,0,1-.35-.34h0a.35.35,0,0,1,.7,0Zm.86-2c.18-.09.35-.09.44.08h0c.08.18.08.35-.09.44h0a.17.17,0,0,1-.26,0h0a.18.18,0,0,1-.17-.18c0-.08-.09-.08-.09-.17l.17-.17Zm.44-.87h0a.23.23,0,0,1-.26.26.26.26,0,1,1,0-.52A.23.23,0,0,1,22.45,16.47Zm-.7-.52a.22.22,0,0,1,0-.43C22,15.52,22.1,16,21.75,16Zm4.68,4.68a.42.42,0,0,1-.17.52.48.48,0,0,1-.7-.18.54.54,0,0,1-.08-.34c0-.09.08-.18.08-.26l.09-.09a.09.09,0,0,0,.09-.09,1.08,1.08,0,0,1,.69.44Zm1-.35a.26.26,0,0,1,0,.35h0c-.09.08-.17.17-.26.17a.71.71,0,0,1-.35-.17h0a.29.29,0,0,1,0-.35c0-.09.09-.09.18-.17s.34,0,.43.17Zm-.87-.43c-.34,0-.43-.61,0-.61S27,19.85,26.6,19.85Zm-9.09,1.82h-.17c-.09,0-.09-.09-.09-.18v-.08c.09-.09.17-.18.26-.09h0c.09,0,.09.09.09.17h0C17.68,21.58,17.6,21.67,17.51,21.67Zm12.21-2.26h0a.35.35,0,1,1-.34-.34C29.55,19.15,29.72,19.24,29.72,19.41Zm-.78-.95c.09,0,.09.09.09.17s-.09.35-.26.35h0a.31.31,0,0,1-.26-.09.3.3,0,0,1-.09-.26c0-.17.18-.25.35-.25h0a.28.28,0,0,0,.17.08Zm.35-.6h0c0,.17-.09.26-.26.34h0c-.17,0-.26-.08-.35-.26h0c0-.17.09-.26.26-.34h0A.26.26,0,0,1,29.29,17.86Zm.69-.61a.08.08,0,0,0-.08.09c-.09,0-.26,0-.26-.18s0-.26.17-.26a.31.31,0,0,1,.26.09h0c.09,0,.09.09.09.17S30.07,17.16,30,17.25Zm-2.25,4.07h0a.26.26,0,1,1-.26-.26A.23.23,0,0,1,27.73,21.32ZM30,20.63a.4.4,0,0,1-.43.43A.51.51,0,0,1,29.2,21c-.08-.08-.17-.17-.17-.26a.4.4,0,0,1,.43-.43h0a.51.51,0,0,1,.35.09C29.9,20.37,30,20.45,30,20.63ZM27.82,38.21a25,25,0,0,1-3.55.26h0a25.08,25.08,0,0,1-3.56-.26,11.89,11.89,0,0,1-3.46-.87v-.08a10.25,10.25,0,0,1,1.73.17c.52.09,1,.09,1.56.17,1.21.09,2.43.18,3.64.18s2.34-.09,3.46-.18a14.36,14.36,0,0,1,1.74-.17,11.14,11.14,0,0,1,1.73-.17h0v.08h0A13.77,13.77,0,0,1,27.82,38.21Z"/></g></g></svg>