<svg xmlns="http://www.w3.org/2000/svg" viewBox="0 0 49.6 49.6"><defs><style>.cls-1{fill:#e3eaea;}.cls-2{fill:#edf1f1;}.cls-3{fill:#b69564;stroke:#b69564;}.cls-4{fill:#c09;}.cls-5{fill:#f1e5d2;}.cls-6{fill:#9fb2b9;}.cls-7{fill:#322722;}</style></defs><g id="圖層_2" data-name="圖層 2"><g id="圖層_1-2" data-name="圖層 1"><g id="Outline"><path id="Path_64394" data-name="Path 64394" class="cls-1" d="M48.9,24.8A24.1,24.1,0,1,1,24.8.7,24.11,24.11,0,0,1,48.9,24.8Z"/><path id="Path_64395" data-name="Path 64395" class="cls-2" d="M27.6,3.5A24.11,24.11,0,0,0,9.3,43.3,24.13,24.13,0,0,0,43.1,9.1,24.58,24.58,0,0,0,27.6,3.5Z"/><path id="Path_64396" data-name="Path 64396" class="cls-3" d="M24.8.5A24.3,24.3,0,1,0,49.1,24.8,24.33,24.33,0,0,0,24.8.5Zm0,.4A23.9,23.9,0,1,1,.9,24.8,23.9,23.9,0,0,1,24.8.9Z"/></g><g id="head2"><g id="Group_6843" data-name="Group 6843"><path id="Path_64327" data-name="Path 64327" class="cls-4" d="M26.72,4.53h-.2a20.61,20.61,0,0,1-2.6.3c-1-.2-1.8.6-2.6.8a4,4,0,0,0-3.1,1c-.5.7-1.1,1.6-2.2,1.6-.8.1-1.1.9-1.7,1.5-1.4,1.1-1.1,3.1-1,4.7-.1.8.7,1.4.5,2.2-.1.5.3.9.5,1.5a12.21,12.21,0,0,0-.1,2.7c-.1.3.3.2.3.5a1.88,1.88,0,0,0,.2,1.9,6.37,6.37,0,0,1,.8,4.7c-.2.9.1,1.9-.1,2.8-.4.3,0,.6.2.9.5,1.3.5,2.6.9,4a1.61,1.61,0,0,1-.8,1.8A69.15,69.15,0,0,1,8,39.93c-.3,0-.1.2.1.2a33.3,33.3,0,0,0,4.5-1.3,13.43,13.43,0,0,1,2.7-.7,12.15,12.15,0,0,0,1.9,4.2,10.82,10.82,0,0,0,5.6,2.9,12.44,12.44,0,0,0,6.3-.9,8.94,8.94,0,0,0,4.3-3.6,14.27,14.27,0,0,1,.8-2.2c2,.6,4,1.4,6,2.1.4,0,.9.5,1.3.1-2.2-.8-4.5-1.5-6.7-2.3-.9-.6-2.2-.9-2.2-2a13.51,13.51,0,0,0,.4-2.8c.2-1.3-.2-2.7.5-3.9-.6-1-.5-2.4-.8-3.6-.5-1.4.3-2.6.8-3.9.3-.6.6-1.6-.1-2-.4-.4.2-.9.2-1.5a45.36,45.36,0,0,0,.3-7.4,1.63,1.63,0,0,0-.9-1.9c-.3-.1,0-.4.1-.5-.2-.4-.9-.2-1.3-.3-.1-.4.3-.9.3-1.4s-.4-.2-.5-.3a1.79,1.79,0,0,0-.7-.5c-.8-.2-1.4-.8-2.2-1-.2-.3-.6-.2-.9-.3A1.25,1.25,0,0,0,26.72,4.53Z"/><path id="Path_64328" data-name="Path 64328" class="cls-5" d="M28.22,12.33c-.5.2-1.1-.1-1.8.1a7.08,7.08,0,0,1-2.9,0c-.3,0-.7-.1-.9.1a5.46,5.46,0,0,0-1.8.1c-.4.1-.9-.1-1.3.2s-.8.6-1.5.7c-.3.1-.8.1-1,.3a21.66,21.66,0,0,0-.1,3.6,8.2,8.2,0,0,1-.2,2.2c.1.3,0,.7.3.9a24.52,24.52,0,0,1,2.7-.2,26.2,26.2,0,0,1,2.8.1,13.83,13.83,0,0,1,2.9.1,6.73,6.73,0,0,1,2-.1c1.4.1,2.8-.1,4,.7.1.2.4.1.3-.1a21.62,21.62,0,0,1-1-4.4,12.26,12.26,0,0,0-.7-3.2c-.3-.2-.2-.7-.5-.8s-.8.2-1.1-.1a.22.22,0,0,0-.2-.2Zm-8.1,7a5.08,5.08,0,0,1,1.7.3c.2.1-.2.3-.3.2a3.87,3.87,0,0,0-2.6-.3c-.4,0-.6.3-1,.4a2.38,2.38,0,0,1,1.1-.6Zm8.3.1a4.39,4.39,0,0,1,2.2.7c-.2.1-.3-.2-.5-.2a4,4,0,0,0-2.4-.2c-.3,0-.6.3-.8.2s-.2-.3,0-.3a2.4,2.4,0,0,1,1.5-.2Zm4.9,1h0a1.46,1.46,0,0,0-.9.6,18.46,18.46,0,0,0-.4,2.3c0,.3-.2.7,0,.9s.6.1.5-.2c.3-1,.9-1.9,1.3-2.9a.62.62,0,0,0-.1-.7Zm-18,.6a1,1,0,0,0-.9,1c.2.7.8,1.3,1,2a7.49,7.49,0,0,1,.4,1.6c.2.2.2-.3.2-.4,0-1.1.1-2.4.1-3.5,0-.4-.4-.6-.8-.7Zm8.8.7c-.3,0-.7.1-1,.1-.2.4-.1.9-.3,1.4a2.35,2.35,0,0,1-1.3,1.9,6.35,6.35,0,0,1-2.7.4,2.23,2.23,0,0,1-2-1.9c0-.2-.3-.6-.4-.2-.1.6,0,1.3-.1,1.9a.37.37,0,0,0-.1.3c0,.1.1.1.2.1.3.4.3.9.6,1.4A11.4,11.4,0,0,0,18,29c.4,0,.9-.2,1.4-.2,1.3-.2,2.6,0,3.8-.5a1.53,1.53,0,0,1,1.6-.3c1.8.2,3.5,0,5.2.7.3.1.8.3.8-.2a20.32,20.32,0,0,0,.7-4.3c-.2-.3-.3.3-.4.4a1.82,1.82,0,0,1-1.7,1c-1.1,0-2.6,0-3.3-.9-.6-.7-.6-1.9-.9-2.8-.4-.1-.8-.1-1.1-.2Zm1.8,4.1c.3.2-.1.5-.2.7-.4.4-1.1.1-1.6.5s-.8-.3-1.3-.3c-.3-.1-.9-.1-.9-.5,0-.2.2-.3.3-.1.2.5.9.3,1.4.6s.9-.2,1.5-.2a1,1,0,0,0,.8-.7Zm-1.5,2.3c-.4.2-.5.7-.8.9-.5.5-1.4.5-2,.7-.1.3.2.6.3.9a1,1,0,0,0,.8.5c.2,0,.4.3.7.2.9-.1,1.9.1,2.8,0a5.08,5.08,0,0,0,.9-1.8c-.4-.1-.8-.1-1.1-.2-.8.1-1.2-.5-1.6-1.2Zm1.3,1.8c-.1.4-.7.5-1.1.6-.6.1-1.5,0-1.8-.5a3.66,3.66,0,0,0,2.3.2,1.14,1.14,0,0,1,.6-.3Zm-8.5,6.7h0a7.46,7.46,0,0,1-1.5.9c-.3.3.1.8.1,1.3a7.59,7.59,0,0,0,2.4,3.9,9.59,9.59,0,0,0,5.8,2.1,9.29,9.29,0,0,0,4.9-1.1,10.72,10.72,0,0,0,3.4-2.5,10.83,10.83,0,0,0,1.1-3c-.1-.4-.6-.5-.9-.8-.2-.1-.4-.5-.6-.3a7.94,7.94,0,0,0,.6,2.2c0,.1-.3-.1-.4-.1a8.93,8.93,0,0,0-1.3-.5c-.2.2,0,.6,0,.8,0,.4.3.8.2,1.1s-.5,0-.8.2-.7-.2-1,.1-.5-.1-.7-.2a8.64,8.64,0,0,0-1.6-1c-.3.1,0,.5.1.6.2.3.5.5.7.8a1.92,1.92,0,0,1-2-.6c-.2-.2-.5-.5-.7-.1a2.18,2.18,0,0,1-.7.9c-.1-.3,0-.8-.2-1.1-.4.1-.6.6-1,.8s-1.1.1-1.8.3a2.29,2.29,0,0,1-1.4-.1c-.3-.1-.6-.4-.5-.7-.2-.2-.5.1-.7.1s-.8.3-1,0c0-.6.4-1.3.4-1.9-.2-.2-.5.2-.8.2a1.61,1.61,0,0,1-.9.3,8.08,8.08,0,0,0,.7-2.2c.1-.3.1-.3.1-.4Z"/><path id="Path_64329" data-name="Path 64329" class="cls-6" d="M19.92,20.63a6.58,6.58,0,0,0-2.8.4c-.5.3-.4,1.1-.3,1.7a2.87,2.87,0,0,0,1,2.2c.6.4,1.4.2,2.1.3a3.61,3.61,0,0,0,2-.6,4.6,4.6,0,0,0,.7-3.2.58.58,0,0,0-.6-.6h-.1a6.48,6.48,0,0,0-2-.2Zm7.7.1a5,5,0,0,0-1.7.2c-.4.3-.2.8-.2,1.3a7.72,7.72,0,0,0,.2,1.5,2.38,2.38,0,0,0,.6,1.1,5.7,5.7,0,0,0,3.4.5,2.31,2.31,0,0,0,1.5-2c.1-.6.3-1.5-.1-2a4.14,4.14,0,0,0-1.9-.5c-.5,0-1.1-.1-1.8-.1Zm-4,.1c-.2,0-.6.1-.5.4-.1.5.5.2.7.3h1.5c.1-.2,0-.6-.3-.6a6.15,6.15,0,0,0-1.4-.1Zm-4.4.7h0a6.42,6.42,0,0,1-1,1.3c-.2.1-.3.4-.5.4.1-.4.5-.6.6-.9A6.47,6.47,0,0,1,19.22,21.53Zm1.1.1c.2.1-.1.3-.2.4-.7.8-1.4,1.7-2.1,2.4-.2.2,0-.1,0-.2a16.38,16.38,0,0,1,2.1-2.5.31.31,0,0,1,.2-.1Zm-2.1,0c.2.1-.1.3-.2.4s-.4.4-.6.5A1.42,1.42,0,0,1,18.22,21.63Zm10,.1c-.1.2-.4.4-.5.6a5.73,5.73,0,0,1-1.1,1.1c.2-.4.6-.7.8-1.1A2.41,2.41,0,0,1,28.22,21.73Zm1.1,0c.2,0-.1.3-.1.3-.5.5-.8,1.1-1.4,1.7a6.47,6.47,0,0,1-.9.8,10.62,10.62,0,0,1,1.6-2.1c.3-.2.5-.6.8-.7Zm-2.2.1c.2.1-.1.3-.1.3a2.65,2.65,0,0,1-.6.5,1.14,1.14,0,0,1,.7-.8Zm-5.7,0c0,.2-.3.4-.4.6a6.49,6.49,0,0,1-1.8,1.9,16.32,16.32,0,0,1,1.7-2c.2-.2.3-.4.5-.5Zm9,.1c.1.1-.1.3-.2.4a8,8,0,0,1-2,2.1,11.92,11.92,0,0,1,1.5-1.8A1.58,1.58,0,0,1,30.42,21.93Zm-8.4,1c.1.1-.1.3-.2.4a1.21,1.21,0,0,1-.5.5.45.45,0,0,1-.3.3A5.3,5.3,0,0,1,22,22.93Zm9,.1c0,.3-.3.4-.5.6a2.65,2.65,0,0,1-.6.5A5.7,5.7,0,0,1,31,23Z"/><path id="Path_64330" data-name="Path 64330" class="cls-7" d="M26.32,4.53c-.3,0-.6,0-.7.1s-.2.1-.3.1a.6.6,0,0,0-.4.1c-.1.1-.3.1-.4.2s-.2,0-.3,0-.2-.1-.3-.1a2.92,2.92,0,0,0-.9.2l-.1.1c-.1,0-.1,0-.1.1h0l-.1.1-.4.2c-.7.4-.7.4-.9.3s-.2-.1-.3,0h-.4A3.34,3.34,0,0,0,18,7.63c-.1,0-.1,0-.1.1h0c0,.1-.3.4-.3.3l-.4.2a.44.44,0,0,0-.5-.1,1.88,1.88,0,0,0-.8.2c-.1.1-.1.1-.2.1s-.2,0-.2.1a3,3,0,0,0-.5.7.22.22,0,0,1-.2.2c-.1,0-.2,0-.2.1s-.1.1,0,.1h-.1c-.6.3-.6,1-.9,1.7a4.76,4.76,0,0,0-.1,1.6h0c-.1,0-.1.1,0,.2s.1.3.1.4a2,2,0,0,0,.1,1.3s.1,0,0,.1a.76.76,0,0,0,.2.5H14c0,.1,0,.2.1.2a.37.37,0,0,1,.1.3c-.1.1-.1.2-.1.4v.4a.37.37,0,0,0,.1.3c.1.1.1.1.1.2s.1.2.2.3.2.2.2.3a.6.6,0,0,0-.1.4,4.08,4.08,0,0,0-.1,1.9c0,.7,0,.7.1.7h.2c0-.1,0-.1.1-.1h0c.1,0,.1.2-.1.5-.5,1.1.2,1.5.6,2.2a7.6,7.6,0,0,1,.4,1.1v.3c0,.1.1.3.1.4v.4a.37.37,0,0,0,.1.3c.1.2.1.2,0,.5s-.1.4,0,.4v.1c0,.1-.1.2-.1.3a.6.6,0,0,1-.1.4,7.39,7.39,0,0,0,0,2.1v.6c0,.2,0,.2-.1.2s-.1.1-.2.2-.1.1.1.4l.2.2h0c0,.1,0,.1.1.1h0l.1.1c0,.1,0,.2.1.2a.9.9,0,0,1,.1.5,17,17,0,0,0,.4,2.2.9.9,0,0,1,.1.5c0,.1,0,.2.1.2s.1,0,0,.1v.2a1.64,1.64,0,0,1-.1,1,5.5,5.5,0,0,1-.9.7,1.42,1.42,0,0,1-.6.2c-.1,0-.1.1-.2.1h-.7l-1.8.6c-.2.3-.5.3-.6.5a.6.6,0,0,1-.4.1c-.1,0-.2,0-.2.1a.37.37,0,0,0-.3.1.37.37,0,0,0-.3.1c-.1,0-.2,0-.2.1s-.2,0-.2.1-.2,0-.2.1c-.2,0-.3.1-.5.1h-.4c-.1,0-.2,0-.2.1s-.4.1-.5.1a.76.76,0,0,0-.5.2h-.1c.1.1.3.2.4.3s.3-.1.6-.2c.1,0,.1,0,.2-.1h.2a.37.37,0,0,0,.3-.1,1.85,1.85,0,0,1,.7-.2c.2-.1.5-.1.7-.2a.9.9,0,0,1,.5-.1c.2,0,.3-.1.4-.1h.5c.1,0,.3-.1.4-.1.3-.1.8-.2,1-.3s.3-.1.4-.1h.2c.1,0,.2-.1.3-.1s.2-.1.3-.1h.3c.1,0,.1,0,.1.1s0,.2.1.2a12.68,12.68,0,0,1,.4,1.5,8.33,8.33,0,0,0,1.6,2.8h0a9.72,9.72,0,0,0,1.5,1,10.33,10.33,0,0,0,5.1,1.7,20.9,20.9,0,0,0,2.5-.1,14.32,14.32,0,0,0,4.4-1.9,5.34,5.34,0,0,0,2.7-3.2,5.73,5.73,0,0,0,.4-1.4c0-.1,0-.2.1-.2s0-.1.1-.1h.1c.1,0,.1,0,.3.1s.2.1.3.1h.2c.1,0,.2.1.3.1.3.1.7.3,1,.4a.6.6,0,0,0,.4.1h.4c.1,0,.2,0,.2.1s.3.1.4.1.3.1.5.1a1.85,1.85,0,0,0,.7.2,1.85,1.85,0,0,0,.7.2c.1,0,.2.1.3.1h.3c.1,0,.2,0,.2.1.3.1.4.2.5.2s.3-.2.4-.3h-.1c-.2-.1-.3-.2-.5-.2a.76.76,0,0,1-.5-.2c-.1,0-.1-.1-.2-.1H40c-.1,0-.1,0-.2-.1a.76.76,0,0,1-.5-.2c-.1,0-.2,0-.2-.1s-.1-.1-.2-.1-.2,0-.2-.1-.2-.1-.3-.1a.37.37,0,0,1-.3-.1c-.1,0-.2,0-.2-.1a.37.37,0,0,0-.3-.1c-.2-.1-.4-.1-.6-.2-.8-.3-1.5-.5-1.8-.6h-.3c-.1,0-.1,0-.2-.1l-.6-.3c-.2,0-.5-.3-.8-.6a1.18,1.18,0,0,1-.1-1v-.3c.1-.1.1-.1.1-.2a.76.76,0,0,1,.2-.5c.3-.7,0-3.3.2-4.2v-.2A.86.86,0,0,0,34,30c0-.1,0-.1.1-.1h0c0-.1,0-.2-.1-.2s-.1-.1-.1-.2,0-.1-.1-.2-.1-.2-.2-.5-.1-.5-.1-.6v-1a1.42,1.42,0,0,0-.2-.6c-.1-.2-.1-.5-.2-.8-.4-.6-.4-.6-.3-.6s.1,0,.1-.1h0a2,2,0,0,1,.3-1.1.37.37,0,0,0,.1-.3.37.37,0,0,0,.1-.3v-.2c.1-.1.2-.2.2-.3a1.42,1.42,0,0,0,.2-.6,1.47,1.47,0,0,0,.2-1.1,1,1,0,0,0-.5-.6c-.1,0-.1-.2,0-.3a.6.6,0,0,0,.1-.4.37.37,0,0,1,.1-.3c.1,0,.2-.2.2-.5a.75.75,0,0,1,.1-.5c0-.2.1-.5.1-.7a1.27,1.27,0,0,1,.1-.6v-1.7a3.3,3.3,0,0,0,0-1.4c-.1-.3-.1-.4,0-.4v-1.5c.1,0,.1-.1,0-.2a.6.6,0,0,0-.1-.4c0-.1-.1-.4-.1-.5l-.3-.6c-.2-.1-.3-.3-.4-.3s-.4-.1-.4-.2.2-.2.3-.2.1-.2,0-.3a3.55,3.55,0,0,0-1-.2h-.3l.3-.9c.1-.1.1-.4.1-.5v-.2h-.2c-.2.1-.2.1-.2-.1s-.1-.2-.4-.4-.4-.2-.5-.2-.2,0-.5-.3c-.6-.5-.8-.6-1-.6s-.4-.1-.3-.2-.1-.1-.4-.1-.3.1-.5-.2c-.1-.1-.1-.2-.2-.2H28a1.86,1.86,0,0,0-1.7-1Zm.2.3h.2a1.14,1.14,0,0,1,.8.3c.1.1.1.2,0,.2s-.1.1-.2.1-.2.2-.3.2a4.62,4.62,0,0,0-1.7,1.7c0,.1,0,.1-.1.1h0c0,.1-.1.2-.1.3l-.1.2v-.1a3.4,3.4,0,0,1,.1-1,3.51,3.51,0,0,1,.6-1.4c.1-.1.3-.2.4-.3.1-.3.2-.3.4-.3Zm-2.9.4h0c.3,0,.3.1.1.3l-.2.3v.1a17.75,17.75,0,0,0-.8,1.6l-.2.4c-.2-.1-.2-.5-.2-.6v-.4c0-.2,0-.3.1-.4s.1-.2.1-.3c.1-.3.6-.8.8-.8,0-.2.2-.2.3-.2Zm1.5,0v.2a5.85,5.85,0,0,0-.4,1.9,11.24,11.24,0,0,0,.4,3.2v.1a.9.9,0,0,1,.1.5,1.7,1.7,0,0,1,.1.7.52.52,0,0,1-.2.4c-.2.2-.2.2-.1.2s.5-.2.6-.5,0-.4-.3-1.6a5.77,5.77,0,0,1-.3-1.4c0-.3,0-.4.1-.5l.2-.4a3.8,3.8,0,0,1,1.3-1.8L27,6c.1,0,.1,0,.1.1s0,.2-.1.2a3.55,3.55,0,0,0-.4.9c-.1.2-.1.5-.2.6a14.08,14.08,0,0,0-.1,2.9c.1.2,0,.3-.1.6a.6.6,0,0,0-.1.4c0,.1,0,.1-.1.1h-.1v.1c0,.1.1.2.2.1s0-.1.1-.1h0c.1,0,.1,0,.1-.1h0c0-.1.1-.2.1-.3a2.49,2.49,0,0,0,.1-.8c0-.4.1-.8.1-1.1a1.27,1.27,0,0,0,.1-.6,2,2,0,0,1,.4-.8c.3.1.4,0,.4-.1s.1-.1.1-.2.1-.1.1-.2a2.59,2.59,0,0,1,1.1-.7.9.9,0,0,1,.5-.1h.5a1.76,1.76,0,0,0-.4.5c-.4.5-.5.5-.7.9-.5,1.1-.7,2-1.1,3,0,.1,0,.2-.1.2a1.7,1.7,0,0,1-.6.6c-.1,0-.2,0-.2.1s.4.2.5.1h.2c0,.1.3.1.5,0s.3-.1.4,0,.4.4.6.4h.4c.1,0,.2-.1.3-.1s.3.1.2.2.3.4.4.4.1,0,.2-.1,1.5.1,2,.4a3.82,3.82,0,0,1,.9.9c0,.1,0,.2.1.2l.1.1c-.1,0-.1,0-.1-.1h0c-.3-.2-.5-.5-.8-.6a.76.76,0,0,0-.4-.2c-.1-.1-.3-.1-.7-.1s-.5,0-.6.1-.2.2-.3.2-.1,0-.1.1h0c0,.1.2.1.3,0l.1-.1h.2a.75.75,0,0,1,.8.1,3.59,3.59,0,0,1,1,.7,1.61,1.61,0,0,1,.6,1.3c0,.2.1.3.1.5s-.1.6-.1.8-.1.1-.1-.1-.1-.2-.1-.3,0-.2-.1-.2a4.71,4.71,0,0,0-.6-1.5,1.1,1.1,0,0,0-1.5-.3l-.3.3c-.2.3-.2.3,0,.3s.3-.1.3-.2l.2-.2a.94.94,0,0,1,.9.1,2.18,2.18,0,0,1,.5.8.9.9,0,0,1,.1.5c.1.4.3,1.1.3,1.1a2.51,2.51,0,0,1-.4-.7,6.47,6.47,0,0,0-.9-.8.9.9,0,0,0-.5-.1c-.3,0-.5.1-.5.3s.1.2.4.1a.75.75,0,0,1,.5.1,1,1,0,0,1,.5.4c.4.5.4.6.4.6s0,.1.1.1h0a1.93,1.93,0,0,1,.3,1c0,.1-.1,0-.3-.2a2.36,2.36,0,0,0-.9-.6c-.4-.2-.9-.2-.8,0l.1.1a3.7,3.7,0,0,1,1.1.5,1,1,0,0,1,.5.8c0,.2-.1.2-.4,0s-.5-.2-.6-.1l-.1.1.2.1a.9.9,0,0,0,.5.1c.1,0,.1,0,.1.1h0a2,2,0,0,1-.4.8v.1c-.1.1-.2.2-.3.2a2.38,2.38,0,0,0-1.1-.6,3.89,3.89,0,0,0-1.5-.2c-.4,0-.7,0-.7-.1h-2.1a.6.6,0,0,0-.4.1c-.2.1-.2.1-.4,0s-.5-.1-.7-.1H24c-.3,0-.6,0-.7.1s-.2.1-.4,0-.3-.1-.4-.1-.2,0-.2-.1h-2.7a7.57,7.57,0,0,0-1.5.1c-.4.5-.6.5-.9.5a.37.37,0,0,1-.1-.3c0-.5-.4-.8-1.3-.8h-.5l-.3.2c-.3.2-.3.2-.3.1s.1-.2.1-.4c.2-.4.4-.5,1-.5a1.16,1.16,0,0,1,1,.4c.1.3.3.3.4,0v-1.5a1.41,1.41,0,0,0-.1-.9c-.1-.2-.3-.3-.6-.5a2.49,2.49,0,0,0-.8-.1c-.9,0-.9,0-1.4-.3a2.07,2.07,0,0,1-.6-1v-.3c-.1-.1,0-.2.1-.2l.2.2c.8.6,1.9.9,2.6,1.5.1,0,.4.4.4.5s.1.3.2.2.1-.1,0-.3c-.1-.4-.1-.4-2.2-1.5a4.63,4.63,0,0,1-1.5-1.6c-.1-.6,0-.6.2-.2.1.1.2.2.2.3l.4.4c.1.1.2.2.3.2h.1a2,2,0,0,1,.8.4l.1.1c.1.1.4.3.6.5s.1.1.2.1.1,0,.1.1h0a.45.45,0,0,0,.3.3c.2,0,0-.4-.3-.7a3.36,3.36,0,0,0-1.6-1A2.18,2.18,0,0,1,14,13c-.1-.1-.1-.2-.2-.3v-.1c-.1,0-.1,0-.1-.4a.75.75,0,0,1,.1-.5c.1-.4.2-.9.5-1.1V11a.75.75,0,0,0,.1.5,5.85,5.85,0,0,0,1,1.7l.4.4.4.4c.1,0,.1,0,.1.1h0a1.7,1.7,0,0,0,.6.6c.1,0,.2-.1.1-.2s-.1-.2-.2-.3a1.76,1.76,0,0,1-.4-.5c-.7-.7-1.7-1.6-1.7-2.4,0-.3,0-.5-.1-.5v-.1c.1,0,.1,0,.1-.1h0a1.45,1.45,0,0,1,.2-.7.37.37,0,0,0,.1-.3h0c.1,0,.1,0,.1-.1h0a.71.71,0,0,1,.6-.3c.1,0,.1,0,.1.2s-.1.3-.1.4,0,.2-.1.2a3.21,3.21,0,0,0-.1,1.4,3,3,0,0,0,.4,1c.1.1.1.2.2.3s.2.2.2.3l.2.2a3.51,3.51,0,0,0,.8.5c.1,0,.2.1.3.1s1.1.1,1.3.1.1-.1.1-.2,0-.1.2-.1.3,0,.5-.2h.4c.5,0,.8,0,.9-.1s.1-.1.5,0h.4c0,.1,0,.1.2.1s.2,0,.2-.1.1-.2.3-.1.4,0,.3-.1-.1-.1-.2-.1c-.4-.1-.9-.7-1.3-1.3a.22.22,0,0,0-.2-.2c-.1-.1-.1-.2-.2-.3a4,4,0,0,1-.5-2.8,2.25,2.25,0,0,1,.5-1.5l.3-.3V7a2,2,0,0,0,0,1.1c0,.1.1.4.1.6a.6.6,0,0,0,.1.4,4,4,0,0,0,.3,1.5s.1.1,0,.3v.3c0,.1.1.2.2.4.2.5.6,1.1.9,1.1.1,0,.2,0,.2.1h.2c.2-.1.2-.1.1-.1h-.1c0,.1-.1.1-.1,0s0-.1-.1-.1h0a1,1,0,0,1-.6-.5,5.87,5.87,0,0,1-.4-2.3,6.75,6.75,0,0,1,.2-1.4l.2-.6c.1-.3.3-.6.4-.9s.2-.3.2-.4.2-.2.2-.1,0,.2-.1.2-.1.1-.1.2a.37.37,0,0,0-.1.3.37.37,0,0,0-.1.3,5.28,5.28,0,0,0,.8,5,.37.37,0,0,1,.1.3c0,.1,0,.2.2.1s.2,0,.2-.1a7.07,7.07,0,0,1-1.3-4,4.53,4.53,0,0,1,.3-1.6,8.79,8.79,0,0,1,.6-1,3.23,3.23,0,0,0,1.3-.9Zm3.4.4h.3c.2,0,.3.1.5.1s.2.1.3.2.2.2.2.3h-.1a4.71,4.71,0,0,0-1.5.6c-.3.2-.4.2-.4.2a7.63,7.63,0,0,0-.8,1.1,1.42,1.42,0,0,0-.2.6l-.1.2v-.4c0-.3,0-.5.1-.6s.1-.3.1-.4a4.26,4.26,0,0,1,1.4-2c0,.2.1.1.2.1Zm-8.7.4h.3c.2,0,.3,0,.3.1s-.3.3-.4.3a4,4,0,0,0-2,4.2c.1.1.1.1.1.2V11c.1.1.1.1.1.2s.1.2.1.3.1.1.1.2a3,3,0,0,0,.8.8v.1c0,.1-.2.1-.4,0s-.2-.1-.4-.1a1.76,1.76,0,0,1-.9-1,13,13,0,0,1-.3-1.3v-.7A4.25,4.25,0,0,1,19.82,6Zm1,.6v.1c-.2,1.7-.2,3,.6,4.1,0,.1,0,.2.1.2s.2.2.2.3.1.2.2.3l.3.3.2.2c.1,0,.1,0,.1.1h-.1l-.1.1c-.1,0-.4-.1-.6-.1a.37.37,0,0,1-.3-.1h-.1a1.79,1.79,0,0,1-.7-.5,4.36,4.36,0,0,1-.3-4.3v-.1l.1-.4c.1-.1.1-.1.2-.1Zm10.1.2c.1,0,.1.1-.1.2a13.55,13.55,0,0,0-1.6,3.4,3.92,3.92,0,0,1-.8,1.4c-.1,0-.2.1-.3.1-.4.2-.5.1-.3-.1s.1-.2.1-.4c.6-1.1.8-2.4,1.6-3.4l.1-.1.1-.1c0-.1,0-.1.1-.1h0c.1-.1.1-.1.2-.1A1.42,1.42,0,0,1,30.92,6.83Zm-11.2.4v.2a.37.37,0,0,1-.1.3c-.2,1-.5,2.8.3,3.6.1,0,.1,0,.1.1h0c0,.1,0,.1.1.1h0c.1,0,.1,0,.1.1h0c0,.1,0,.1.1.1h0c.1,0,.1,0,.1.1h0a.22.22,0,0,0,.2.2l.2.2.1.1.1.1-.1.1c-.1,0-.2.1-.3.1-.5,0-.7,0-.7-.1s-.1-.1-.2-.1-.3-.1-.7-.4c-.5-.5-.6-.9-.6-2.2a3.74,3.74,0,0,1,.5-1.8,3,3,0,0,1,.8-.8Zm11.6,0c.1,0,.1,0-.4.6a3,3,0,0,0-.6,1.1,7.72,7.72,0,0,0-.2,1.5V11c0,.2-.2.7-.3.7v.1a1.21,1.21,0,0,1-.5.5.6.6,0,0,1-.4.1c-.3,0-.3-.1-.1-.3.1,0,.1-.1.1-.2l.1-.2a.37.37,0,0,0,.1-.3v-.1c.1-.2.2-.5.3-.7s0-.2.1-.2.1-.2.1-.3.1-.1.1-.2a8.75,8.75,0,0,1,1-2.2c.1,0,.1,0,.1-.1h0a1,1,0,0,1,.5-.4Zm.7.2q.15,0,0,.3a3.19,3.19,0,0,0-.3,1.4.37.37,0,0,1-.1.3,2.35,2.35,0,0,0-.2.8,10.09,10.09,0,0,1-.7,1.5,2.65,2.65,0,0,1-.6.5c-.1,0,.1-.7.3-1a2.49,2.49,0,0,0,.1-.8,2,2,0,0,1,.1-.8,2,2,0,0,1,.3-1.1,2.18,2.18,0,0,1,.7-.9c.1-.1.2-.1.4-.2Zm-14.9.9c.1,0,.1.1,0,.2s-.1.2-.1.3a5.44,5.44,0,0,0,0,1.8,2.54,2.54,0,0,0,.8,1.8.55.55,0,0,0,.5.3c.1,0,.2.1.3.1l.1.1H18c-.2,0-.3-.1-.6-.2a1.38,1.38,0,0,1-.4-.3l-.2-.2a2.38,2.38,0,0,1-.6-1.1,2.71,2.71,0,0,1,0-1.3c0-.1.1-.2.1-.3v-.1a.37.37,0,0,0,.1-.3c.1-.2.2-.5.4-.6s.2-.2.3-.2Zm14.9.8h.3c.3,0,.3,0,.4.1v.1c-.1,0-.4.3-.5.5a3.55,3.55,0,0,0-.4.9c0,.3-.2.6-.4.6s-.1,0,.1-.3a1.85,1.85,0,0,0,.2-.7,1.85,1.85,0,0,0,.2-.7Zm1.1.7c.1,0,.1,0,.2.1s.1.1.1,0,.3.1.4.3.1.2.2.4a.75.75,0,0,0,.1.5v.2l-.4-.2-.4-.2h-.1c0-.1-.4-.1-.6,0s-.3,0-.2-.3a.85.85,0,0,1,.7-.8Zm-.1,1.3h.2a1.06,1.06,0,0,1,.7.6c.1.2.2.8.1.9-.1-.1-.2-.1-.3-.2a2.07,2.07,0,0,0-1-.6h-.1a.37.37,0,0,0-.3-.1c-.4-.1-.5-.1-.5-.2s.4-.3.8-.4c.1.1.3,0,.4,0Zm-1.5,1.1a2.87,2.87,0,0,1,2.2,1c0,.1,0,.2.1.2a.37.37,0,0,1,.1.3.85.85,0,0,1,0,.7c0,.1,0,.1-.1,0s-.1-.2-.2-.3-.5-.6-.6-.6-.1-.1-.2-.1a4.67,4.67,0,0,0-1-.5,2.92,2.92,0,0,0-1.6.1c-.1,0-.1,0-.1-.1s0-.2.1-.2.2-.1.3-.2a1.11,1.11,0,0,1,1-.3Zm-17.4,3.9a.37.37,0,0,1,.3.1,1.73,1.73,0,0,0,1,.1h.3a1.14,1.14,0,0,1,.8.3c.2.2.2.3.2.3v.7a.37.37,0,0,0-.3-.1c-.6-.4-.6-.4-1.4-.1-.3.1-.5.2-.6.1s-.2-.1-.3-.2l-.2-.2v-.4a.85.85,0,0,0,.2-.6Zm1.6,1.7h.2a1.4,1.4,0,0,1,.9.3c.2.1.2.2.2.4s-.1.3-.3.1a1.08,1.08,0,0,0-.8-.2,2,2,0,0,0-.8.1.9.9,0,0,1-.5.1c-.1-.1.1-.3.3-.5,0-.2.3-.3.8-.3Zm4.3,1.4a2.77,2.77,0,0,0-.9.1c-.3.1-.9.4-.9.4H18v.1c0,.1.2.1.3,0s.1-.1.2-.1.3-.1.4-.1a3.81,3.81,0,0,1,1.5-.1.76.76,0,0,1,.5.2.76.76,0,0,1,.5.2c.1.1.3.1.3,0l.1-.1c.3-.1-.1-.3-.5-.3h-.2a2.35,2.35,0,0,0-.8-.2.37.37,0,0,0-.3-.1Zm8.1.1a1.88,1.88,0,0,0-.8.2h-.2c-.4,0-.8.2-.5.3.1,0,.1,0,.1.1h0c0,.1.2.1.3,0a.76.76,0,0,0,.5-.2c.2,0,.3-.1.5-.1a3.81,3.81,0,0,1,1.5.1.6.6,0,0,0,.4.1c.1,0,.2,0,.2.1s.4.2.3,0v-.1h-.1c-.1,0-.1,0-.1-.1s-.6-.4-.9-.5a5.74,5.74,0,0,1-1.2.1Zm-12.6.4c.2,0,.2.1,0,0,.1.1-.2.2-.2.1Zm.6.4h.1c.2.1.5.2.6.4s0,.2.1.2c-.1.1-.1.2-.2.3s-.1.1-.1.2-.1.1-.1,0-.6-.5-1.3-.5h-.4c.1-.1.1-.1.1-.2a2.84,2.84,0,0,1,1.2-.4Zm17.1.3h.3c.1,0,.1,0,.1.1h0c0,.1,0,.1.1.1h0a.6.6,0,0,1-.1.4,1.07,1.07,0,0,1-.2.6c-.1.1-.1.3-.2.3a.71.71,0,0,1-.3.6c-.1.2-.1.4-.2.5a.37.37,0,0,0-.1.3.37.37,0,0,0-.1.3c0,.1,0,.2-.1.2,0,.2-.1.2-.1.1s-.1-.1-.2-.1H32v-.5c0-.3.1-.8.1-1s.1-.6.1-.8a.75.75,0,0,1,.1-.5v-.3c.1,0,.1,0,.1-.1h0c0-.1,0-.1.1-.1h0c.1-.1.1-.1.1-.2s.1-.2.2-.2.2,0,.2-.1l.2.4Zm-13.8.2h.7c1,0,1.6.1,2,.1h.2c.1,0,.1.1.2.2a5.28,5.28,0,0,1,.1,1.3,3.85,3.85,0,0,1-.8,2.4,1.33,1.33,0,0,1-.8.3c-.1,0-.3.1-.4.1a8.1,8.1,0,0,1-2.2,0c-.3-.2-.6-.5-.9-.7,0-.1-.1-.1-.1-.2a5.85,5.85,0,0,1-.4-1.9,1.27,1.27,0,0,1,.1-.6c.2-.5.3-.5,1.3-.7a2.37,2.37,0,0,1,1-.3Zm8.1.2h.8a4.57,4.57,0,0,1,2,.2c.9.2,1.1.3,1.3.8a.64.64,0,0,1,0,.6,4.45,4.45,0,0,1-.5,1.9c-.1.1-.1.1-.1.2a5.5,5.5,0,0,1-.9.7,8.1,8.1,0,0,1-2.2,0c-.1,0-.3-.1-.4-.1a1.23,1.23,0,0,1-.8-.4,1.3,1.3,0,0,1-.5-1.3v-.1c-.1,0-.1-.4-.2-1a6.15,6.15,0,0,1,.1-1.3c.1-.1.1-.2.2-.2Zm-3.3,0h.3a1.27,1.27,0,0,1,.6.1c.1.1.1.1.1.4v.1a.6.6,0,0,1-.4-.1,2,2,0,0,0-1.1,0H23v-.2c0-.3,0-.3.1-.4s.4-.1.6-.1c.3.2.4.2.5.2Zm-8.9.4c.4,0,.8.2.8.5v1.9a3.4,3.4,0,0,1-.1,1,3.4,3.4,0,0,1-.1,1c-.1,0-.2-.3-.1-.4a1.45,1.45,0,0,0-.2-.7v-.2c0-.1,0-.2-.1-.2s-.1-.2-.1-.4c-.3-.7-1-1.3-.9-1.9l.1-.1c0-.1.3-.4.4-.5Zm3.9.3h0a9,9,0,0,0-1,.9c0,.1,0,.2-.1.2a1.47,1.47,0,0,0-.5.6c0,.1,0,.1.1.1a1,1,0,0,0,.6-.5c0-.1,0-.1.1-.1h0a2.65,2.65,0,0,0,.5-.6l.3-.3c.2-.2.2-.3.2-.3Zm1.2,0h-.1l-.6.6a17.1,17.1,0,0,0-1.1,1.4c-.1.1-.1.1-.1.2h0c-.1.1-.1.1-.1.2-.5.6-.3.6,0,.4a1.76,1.76,0,0,0,.4-.5l.3-.3.2-.2.3-.3c.1-.1.2-.2.2-.3s.2-.2.2-.3.1-.2.2-.2a.78.78,0,0,0,.4-.4c0-.1,0-.1.1-.1h0c-.1,0-.1-.2-.3-.2Zm-2.2,0c-.1,0-.4.3-.5.5s-.2.2-.2.3l-.2.1v.1h0c0,.1,0,.1.1.1a1.21,1.21,0,0,0,.5-.5c.5-.4.5-.5.4-.5l-.1-.1Zm10,.1h0a9,9,0,0,0-1,.9c0,.1,0,.2-.1.2a1.47,1.47,0,0,0-.5.6c0,.1,0,.1.1.1a1,1,0,0,0,.6-.5c0-.1,0-.1.1-.1h0a2.65,2.65,0,0,0,.5-.6l.3-.3c.2-.2.2-.3.2-.3Zm1.1,0h-.1l-.6.6a17.1,17.1,0,0,0-1.1,1.4c-.1.1-.1.1-.1.2h0c-.1.1-.1.1-.1.2-.5.6-.3.6,0,.4l.4-.4.3-.3.2-.2.3-.3c.1-.1.2-.2.2-.3s.2-.2.2-.3.1-.2.2-.2a.78.78,0,0,0,.4-.4c0-.1,0-.1.1-.1h0c-.1,0-.1-.2-.3-.3.1.1,0,.1,0,0Zm-2.3.1c-.1,0-.4.3-.5.5s-.2.2-.2.3l-.1.1v.1h0c0,.1,0,.1.1.1a1.21,1.21,0,0,0,.5-.5c.4-.4.5-.5.4-.5s-.1-.1-.2-.1Zm-5.6,0c-.1,0-.2.1-.5.4a1.76,1.76,0,0,0-.4.5l-.2.2a1.76,1.76,0,0,0-.4.5,2.18,2.18,0,0,1-.4.5c-.2.2-.3.3-.2.4s.1.1.2-.1a3.18,3.18,0,0,0,1-1c.1-.1.2-.3.3-.4s.2-.3.4-.5a1.38,1.38,0,0,1,.3-.4c.1.1.1,0-.1-.1Zm2.8.1c.1,0,.3,0,.3.1s.2.1.3.1h.3c.1,0,.1,0,.1.2v.5c0,.1.1.3.1.4a3.08,3.08,0,0,0,.3,1.3,1.78,1.78,0,0,0,.7.8c.3.3.6.4,1.6.6a6,6,0,0,0,2.3-.1c.4-.2.8-.6.8-.8s0-.2.1-.2c.1-.2.2-.5.3-.7s0-.2.1-.2c0,.3-.1.6-.1,1,0,.2-.1.5-.1.6a5.9,5.9,0,0,0-.2,1.4,1.7,1.7,0,0,0-.1.7c0,.1-.1.3-.1.4l-.3.9c-.4-.1-.8-.2-1.1-.3-.7-.5-1.3-.6-3.1-.6a12.1,12.1,0,0,1-1.9-.1c-.2-.1-.2-.1-.3,0s-.2.1-.3.1-.2,0-.2.1c-.2.1-.4.3-.6.3s-.2,0-.2.1-.3.1-1.1.1a3.08,3.08,0,0,0-1,.1c-.2,0-.5.1-.7.1a.75.75,0,0,0-.5.1h-.2c-.2,0-.8.2-.9.2s-.2,0-.3-.3c-.1-.1-.2-.4-.3-.5l-.7-1.4a.6.6,0,0,1-.1-.4c0-.1,0-.2-.1-.2a.37.37,0,0,1-.1-.3c-.1-.2-.1-.2-.3-.3h-.2l.1-.1c-.2-.2-.2-.2-.2-.7v-.6c.1-.7.1-1.1.2-1a.6.6,0,0,1,.1.4.91.91,0,0,0,.3.7c.1.1.1.1.1.2s.4.6.8.8a3.6,3.6,0,0,0,2.3.1,3,3,0,0,0,1.6-.5,1.78,1.78,0,0,0,.7-.8c.1-.2.3-1,.4-1.3a.6.6,0,0,1,.1-.4c0-.2.1-.3.1-.5s0-.2.1-.2.2.1.4,0a.37.37,0,0,0,.3-.1c.1.2.2.2.4.2Zm6.2.1c-.1,0-.2.1-.5.4a1.76,1.76,0,0,0-.4.5l-.2.2a1.76,1.76,0,0,0-.4.5,2.18,2.18,0,0,1-.4.5c-.2.2-.3.3-.2.4s.1.1.2-.1a3.18,3.18,0,0,0,1-1c.1-.1.2-.3.3-.4s.2-.3.4-.4a1.38,1.38,0,0,1,.3-.4c0-.1,0-.2-.1-.2Zm-8.4.9c-.1,0-.3.2-.5.5l-.4.4c-.1.1-.2.2-.1.3s.1.1.2,0,.1,0,.1-.1h.2c0-.1,0-.2.1-.1s.4-.3.5-.5,0-.2.1-.2c-.1-.1-.1-.3-.2-.3Zm8.9.1c-.1,0-.3.2-.5.5l-.4.4c-.1.1-.2.2-.1.3s.1.1.2,0,.1,0,.1-.1h.2c0-.1,0-.2.1-.1s.4-.3.5-.5,0-.2.1-.2-.1-.3-.2-.3Zm1.1,1.9c.1.1.2.2.2.3l.2.4c0,.1,0,.2.1.2.1.2.1.3.2.5a1.27,1.27,0,0,0,.1.6c0,.2.1.6.1.8a2,2,0,0,0,.1.8c0,.5,0,.6-.2.6s-.3-.1-.3-.4,0-.3-.1-.4v-.1a3,3,0,0,0-.2-1c0-.2-.1-.3-.1-.5s-.1-.3-.1-.4v-.3c0-.1.1-.4.1-.6-.2-.3-.2-.5-.1-.5Zm-6.1.9c-.1,0-.2.1-.2.3v.3c-.1,0-.2,0-.2.1s-.2.1-.5.1-.4,0-.5.1-.1.1-.2.1-.1,0-.1.1h0c-.2,0-.3.1-.6-.1s-.5-.2-.7-.3c-.5-.1-.5-.1-.5-.3s-.2-.2-.3-.2a.45.45,0,0,0,0,.5c.1.1.2.2.7.2a6.89,6.89,0,0,1,.8.3c.3.2.5.2.7,0,.3-.4.5-.1.9-.2l.6-.3c.1-.1.1-.2.2-.2s.1-.3-.1-.5Zm-9.4,1c.1.2.2.5.3.7l.4.8c.1.1.1.3.2.4.2.4.2.5-.2.7-.1.1-.2.1-.3.2s-.1-.2-.2-.5a1.7,1.7,0,0,1-.1-.7c0-.3-.1-1.6-.1-1.6ZM16,27s.1.4.2.9v.2c.1.5.2,1.1.3,1.7,0,.2,0,.2-.2.3s-.2.1-.3,0a3.32,3.32,0,0,1-.1-2.4c0-.1,0-.2.1-.2a.45.45,0,0,1,0-.5Zm15.6.2c.1.1.1.1.1.2s.1.3.1.4.1.4.1.6,0,.4.1.4c-.1.1-.1.1-.2,0h-.2c-.3,0-.4-.1-.3-.2s0-.2.1-.2a.6.6,0,0,1,.1-.4.6.6,0,0,0,.1-.4c-.2-.2-.1-.5,0-.4Zm-7.2.9c.1,0,.1.1.2.3s.2.3.3.4l.2.2c.1.1.1.1.2.1a3.29,3.29,0,0,0,1.9.6c-.3.4-.6,1.5-1,1.7-.1,0-.2-.1-.4,0a2.77,2.77,0,0,1-.9-.1c-.3-.1-.3-.1-.5,0s-.2.1-.2,0h-.4c-.2,0-.3,0-.4.1s-.2.1-.2.5a3.08,3.08,0,0,0,.3,1.3.76.76,0,0,1,.2.4c.1.1.1.3.2.4a10.87,10.87,0,0,1,.5,1.4,6.3,6.3,0,0,1-.1,3.1c0,.1,0,.2-.1.2s0,.1-.1.1l-.1.1-.3.6c-.1.1-.1.1-.1.2s0,.1-.1.1-.1,0-.1.1,0,.1-.1.1a.37.37,0,0,1-.3.1c-.2.1-.7.3-.7.1s.2-.2.2-.3a2.38,2.38,0,0,0,.6-1.1,7.72,7.72,0,0,0,.2-1.5,11,11,0,0,0-.2-1.8c0-.2-.1-.3-.1-.5s-.1-.3-.1-.5a6.78,6.78,0,0,1-.3-2.5.37.37,0,0,0,.1-.3.76.76,0,0,1,.2-.5l.1-.3-.2-.1c-.1-.1-.2-.1-.5-.1-.6.1-.8-1.1-1-1.4.3-.1.6-.1.8-.2a2.35,2.35,0,0,0,1.9-1.3c.3.4.3.3.4.3Zm-.5.1c.1,0-.1.4-.3.6-.2.4-.7.5-1.3.6-1,.2-1.6.2-2.2.9a1.76,1.76,0,0,1-.5.4,4.31,4.31,0,0,1-2.2.9.6.6,0,0,0-.4.1h-.4a.37.37,0,0,1-.3-.1c-.1,0-.1,0-.1-.1h0l-.1-.1c-.2-.1-.2-.2,0-.2a2.38,2.38,0,0,0,1.2-.3,17.68,17.68,0,0,0,2.2-1.6c.1,0,.1-.1.1-.2s.1-.1.2-.1a.6.6,0,0,0,.4-.1,4.19,4.19,0,0,1,1.6-.1c.2,0,.6,0,.7-.1s.1-.1.2-.1.2,0,.2-.1.2,0,.2-.1.2-.1.3-.1c.4,0,.4,0,.5-.1Zm2.8,0a4.27,4.27,0,0,1,2.7,1,7.63,7.63,0,0,0,1.1.8.6.6,0,0,0,.4.1,1.7,1.7,0,0,0,.7.1,6.47,6.47,0,0,0,1.3-.4c.1-.1.2-.2.3-.2v.2c0,.1,0,.1-.1.1h0c-.1,0-.1,0-.1.1h0c0,.1-.1.2-.2.3s-.1.1-.1.2h0a.37.37,0,0,0-.3.1c-.1.1-.3.1-.4.2a2,2,0,0,1-1.1-.1c-.2,0-.3-.1-.4-.1-.6-.2-1.3-.7-1.9-.9-.9-.3-1.6-.1-2.5-.4-.3-.1-.4-.2-.9-.7a.76.76,0,0,1-.2-.4Zm3,.6c.1,0,.1,0,.2.1a1.93,1.93,0,0,0,1,.3c.1,0,.3.1.4.1s.4.1.6.1a.75.75,0,0,1,.5.1c-.1.1-.1.1-.2.1a3.3,3.3,0,0,1-1.4,0c-.2,0-1.3-.7-1.1-.8Zm-10.5.3h0c.1,0,.2,0,.2.1-1.3.8-2.1,1.8-3,1.8H16c.1-.1.3-.2.4-.3a4.05,4.05,0,0,1,.9-.5c.1-.1.3-.2.4-.3s.1-.1.2-.1.1-.1.2-.1.5-.2.7-.3c.2-.3.3-.3.4-.3Zm13.9,0c.1.1.1.1,0,.2h0c0,.1-.1.1-.1,0S33,29.23,33.12,29.13Zm-7.4.7c-.1,0-.2.1-.3.1a2.28,2.28,0,0,1-1.1.3c-.4-.1-.8-.2-1.3-.3s-.4.1,0,.3c.1.1.5.2.6.3h.8a2,2,0,0,0,1.1-.3c.3-.2.3-.4.2-.4Zm2,.3a2.59,2.59,0,0,1,1.1.7c.1.1.2.3.4.5a7,7,0,0,1,.9,4,13.9,13.9,0,0,0,.2,3.3.9.9,0,0,1,.1.5,3.08,3.08,0,0,0,.1,1c.1.2.1.2-.2-.1-.1-.1-.2-.3-.3-.4s0-.1-.1-.1,0-.1-.1-.2-.1-.4-.1-.5v-1.9a9.67,9.67,0,0,0-.5-3.4c-.2-.6-.4-1.4-.6-1.9a2,2,0,0,0-.6-.9,3.33,3.33,0,0,1-.3-.6Zm-6.5.2c.1,0-.1.8-.4,1.3a8.53,8.53,0,0,0-.8,3.5,7.89,7.89,0,0,1-.8,3.6c-.1.1-.1.1-.1.2s-.2.3-.4.4c-.3.3-.3.3-.2.1s.1-.4.1-.6.1-.3.1-.5A18.8,18.8,0,0,0,19,35c.2-.8.3-1.9.5-2.7a8.26,8.26,0,0,1,.7-1.3c.1,0,.8-.7,1-.7Zm6.2.1h0a4.13,4.13,0,0,1,.7,1.1c.1.2.1.3.2.5h0a7.55,7.55,0,0,1-1.1-1.4c.1-.1.1-.2.2-.2Zm5.5.4h0a26.93,26.93,0,0,1-.3,4c0,.1-.1.2-.1.1a.75.75,0,0,0-.1-.5v-.5s-.2-2.2-.2-2.5v-.1c.1,0,.1-.1.2-.1a2.74,2.74,0,0,0,.5-.4Zm-11.2.3h0c.1,0,.2.2.3.2h0c-.3.5-.2,1.1-.4,1.7a5.45,5.45,0,0,0-.1,2.2,6.15,6.15,0,0,0,.1,1.3c.1.5.1.9.2,1.8s.1,1.7-.1,1.9l-.1.1a1.21,1.21,0,0,1-.5.5c-.1.1-.3,0-.7-.1-.1,0-.1-.1.1-.4.1-.1.2-.2.2-.3v-.1c.1,0,.3-.5.4-.8a3.79,3.79,0,0,0,0-1.5,3,3,0,0,0-.2-1,1.4,1.4,0,0,0-.3-.9l-.1-.4v-.2a6.73,6.73,0,0,1,.1-2c.3-.4.4-1.8,1.1-2Zm8.1.2c.1,0,.2,0,.2.1,1.1,1.5,1,3.8,1.4,5.5.1.6.3,1.1.4,1.8,0,.1-.2,0-.4,0s-.2,0-.2-.1l-.2-.2a1,1,0,0,1-.4-1v-.9a11.48,11.48,0,0,1-.1-1.9,5.21,5.21,0,0,0-.7-3.3Zm-2.9,0h0a.52.52,0,0,1,.4.2,6.8,6.8,0,0,1,2,5.9,4.57,4.57,0,0,0,.1,1.5c0,.1.1.2.1.3s0,.2.1.2,0,.2.1.2,0,.2.1.2.1.1.1.2v.1l.1.1c0,.1-.2.1-.5-.1a.78.78,0,0,1-.4-.4c-.8-2.3-.4-4.5-1.1-6.8a11.11,11.11,0,0,0-.7-1.6h0c-.5.1-.4,0-.4,0Zm4,0c.2,0,.3.1.5.1h.3c0,.1.3,1.6.3,2.1a16.15,16.15,0,0,0,.2,3.1c.1.1.1.2-.1.1a.22.22,0,0,1-.2-.2,1.8,1.8,0,0,1-.2-1,20.48,20.48,0,0,0-.5-2.4,5.66,5.66,0,0,1-.3-1.8Zm-11.6.3c-.1.2-.1.4-.2.5a27,27,0,0,0-.7,4.1c0,.2-.1.6-.1.9a1,1,0,0,1-.4,1l-.2.2c-.1,0-.2,0-.2.1-.2.1-.4.1-.4,0a.37.37,0,0,1,.1-.3c0-.1.1-.2.1-.3s.1-.2.3-1.1.2-1.7.3-2.6a8.3,8.3,0,0,0,.6-2.1c0-.1,0-.1.1-.1h0a.37.37,0,0,1,.3-.1c.1-.1.3-.1.4-.2Zm4.3.1c.1,0,.4,0,.5.1l.1.1c.2,0,.8,1,.8,1.6,0,.1,0,.3.1.3v.1a.6.6,0,0,0-.1.4.75.75,0,0,1-.1.5v.3c0,.2-.1.2-.1,0a.6.6,0,0,1-.1-.4.37.37,0,0,1-.1-.3c0-.1,0-.2-.1-.2a.52.52,0,0,0-.2-.4c-.1-.2-.2-.3-.2-.4s-.1-.1-.1-.2a.6.6,0,0,1-.1-.4,1.25,1.25,0,0,1-.3-1.1Zm-1.1,0h0a.75.75,0,0,1-.1.5,3.4,3.4,0,0,0-.1,1,7.72,7.72,0,0,0,.2,1.5,20,20,0,0,1,.4,2.4.75.75,0,0,0,.1.5c.1,0,.1,0,0,.1a.75.75,0,0,1-.1.5,3.08,3.08,0,0,1-.3,1.3c-.1.1-.1.1-.1.2h0l-.1.1c0,.1-.4.5-.4.5s-.1.1-.2.1c-.3.2-.3.2-.2,0s.2-.3.3-.5.2-.4.1-.7a6.8,6.8,0,0,0-.2-2c0-.1-.1-.2-.1-.4a2,2,0,0,0-.1-.8,3.4,3.4,0,0,1-.1-1v-.5a6.72,6.72,0,0,1,.3-1.8c.1-.2.1-.4.2-.5s0-.2.1-.2l.1-.1c.1-.1.2-.2.3-.2Zm2.2.2h.2c.4,0,1.3,1.1,1.3,1.7v2.6a9.7,9.7,0,0,0,.1,3v.1a1.42,1.42,0,0,0,.2.6c.1.1.1.2.2.3q.15.45,0,.3a3.13,3.13,0,0,1-.9-1.1c0-.1,0-.1-.1-.1-.1-.2-.2-.3-.3-.5v-.1a4.3,4.3,0,0,1-.2-2.5,21.75,21.75,0,0,0,.1-2.5c0-.3-.1-.7-.1-.9s0-.2-.1-.2-.1-.2-.2-.3Zm1.2,0a1.05,1.05,0,0,1,.9.5c.3.3.4.4.4.5a.37.37,0,0,0,.1.3c.6,1.9.4,4.1.8,5.6a3.4,3.4,0,0,1,.1,1,2,2,0,0,1-.9-.6c-.6-.6-.6-.9-.7-1.8-.1-1.3.5-3.6-.3-4.8,0-.1-.1-.2-.2-.3s-.2-.2-.2-.3-.1,0,0-.1Zm-7.7.1c.1,0,.1,0,.1.1h0v.4a8.87,8.87,0,0,0-.7,2.8c0,.2-.1.4-.1.6s-.1.2-.2.3a.22.22,0,0,1-.2.2c-.1.1-.2,0-.1-.1a16.28,16.28,0,0,0,.3-3.1,2.77,2.77,0,0,1,.1-.9.37.37,0,0,1,.3-.1.76.76,0,0,1,.5-.2Zm-2,.1h.6v.3c0,.3.1.9,0,1v.5a.75.75,0,0,1-.1.5c-.1.1-.1,0-.1-.1a14.35,14.35,0,0,1-.4-2.2Zm4.1,4.1c.1.2.2.3.2.5a1.88,1.88,0,0,0,.2.8,2.49,2.49,0,0,1,.1.8l-.3.6V39c0,.1-.4.4-.6.5l-.1.1h0a.37.37,0,0,1-.3.1c-.3.1-.6.2-.5.1a1.38,1.38,0,0,1,.3-.4,3.81,3.81,0,0,0,.8-1.7c.1-.4.2-.9.3-1.4,0-.1,0-.1.1-.2-.3.2-.3.2-.2.1Zm-3.2.5h0a6.53,6.53,0,0,1-.5,2,.37.37,0,0,0-.1.3c0,.1,0,.1.4,0a5.27,5.27,0,0,0,1.3-.6h.1c.1,0,.1,0,.1.2-.1.4-.2.8-.3,1.1-.2.5-.1.9.2.8a.6.6,0,0,0,.4-.1c.3,0,.7-.2.7-.3h.1c.1.1.7-.4.9-.7l.2-.2c.1,0,0,.2-.1.3s-.1.1-.1.2-.1.2-.2.3-.3.3-.5.2-.1,0-.1.1.1.4.4.6l.9.3a5.07,5.07,0,0,1,1.3-.2h.5c.1,0,.2-.1.3-.1s.4-.3.8-.7.3-.3.4.1.1.6.1.8v.2l.2-.1c.2-.1.2-.2.4-.5s.2-.4.3-.4.1-.1.2-.1.2.2.3.2a2,2,0,0,0,.9.7,1.73,1.73,0,0,0,1,.1c.1,0,.2,0,.2-.1s-.2-.2-.3-.2a1.21,1.21,0,0,1-.5-.5c-.3-.4-.4-.7-.3-.7a.37.37,0,0,0,.3.1c.1.1.4.3.5.4a1.38,1.38,0,0,1,.4.3l.1.1s.7.5.8.6.1.1.2.1.3-.1.3-.2.1-.1.5,0,.3.1.4,0l.1-.1v-.1c.1,0,.3,0,.3.1.4.1.5-.3.3-.8s-.2-.8-.3-1.1c0-.1,0-.2.1-.2h.1s.5.3,1.1.6c.3,0,.2,0,.3-.1a.37.37,0,0,0-.1-.3,4.55,4.55,0,0,1-.5-2c0-.1,0-.1.1-.1s.3.2.5.4.3.2.4.3.2.2.3.2.1,0,.1.1h0v.2c0,.1-.1.4-.1.6.4.1.4.3.4.5s-.1.4-.2.6a5.58,5.58,0,0,1-2.4,2.8,12.42,12.42,0,0,1-4.6,2c-3.8.3-5.3-.5-7-1.6a10.63,10.63,0,0,1-1.1-.9c-.1,0-.1-.1-.2-.1a12.45,12.45,0,0,1-1.5-2.5.55.55,0,0,1-.3-.5c0-.2-.1-.3-.1-.5a1.27,1.27,0,0,1-.1-.6v-.2h.1c.1,0,.2-.1.3-.2s.2,0,.2-.1l.1-.1a1.44,1.44,0,0,1,.6-.7Zm7.6,1.9h0c.1,0,.2.2.3.4.2.5.2.5.2.6s-.4.5-.5.5v-.7A1.1,1.1,0,0,1,24.72,38.63Z"/></g></g></g></g></svg>