<svg xmlns="http://www.w3.org/2000/svg" viewBox="0 0 49.57 49.57"><defs><style>.cls-1{fill:#e3eaea;}.cls-2{fill:#edf1f1;}.cls-3,.cls-8{fill:#b69564;}.cls-3{stroke:#b69564;}.cls-4{opacity:0;}.cls-5,.cls-6{fill:#fff;}.cls-6{stroke:#fff;stroke-miterlimit:10;}.cls-7{fill:#163d50;}</style></defs><g id="圖層_2" data-name="圖層 2"><g id="圖層_1-2" data-name="圖層 1"><g id="Outline"><path id="Path_64394" data-name="Path 64394" class="cls-1" d="M48.89,24.78A24.11,24.11,0,1,1,24.78.68,24.1,24.1,0,0,1,48.89,24.78Z"/><path id="Path_64395" data-name="Path 64395" class="cls-2" d="M27.57,3.5A24.07,24.07,0,0,0,9.31,43.29,24.08,24.08,0,0,0,43,9.13,24.17,24.17,0,0,0,27.57,3.5Z"/><path id="Path_64396" data-name="Path 64396" class="cls-3" d="M24.78.5A24.29,24.29,0,1,0,49.07,24.78,24.29,24.29,0,0,0,24.78.5Zm0,.36A23.92,23.92,0,1,1,.86,24.78,23.91,23.91,0,0,1,24.78.86Z"/></g><g id="head9"><g id="Group_6665" data-name="Group 6665" class="cls-4"><g id="Group_6604" data-name="Group 6604"><path id="Path_31850" data-name="Path 31850" class="cls-5" d="M18.05,19.21a.12.12,0,0,0,.12-.12.13.13,0,0,0,0-.08.11.11,0,0,0-.2.06.11.11,0,0,0,.1.13Z"/></g><g id="Group_6605" data-name="Group 6605"><path id="Path_31851" data-name="Path 31851" class="cls-5" d="M18.25,17.52a1.2,1.2,0,0,1,.5,0,.16.16,0,0,0,.17-.13.18.18,0,0,0,0-.13c-.19-.27-1-.2-1,.16S18.13,17.76,18.25,17.52Z"/></g><g id="Group_6606" data-name="Group 6606"><path id="Path_31852" data-name="Path 31852" class="cls-5" d="M18,15.1a.89.89,0,0,0,.27,1.24.87.87,0,0,0,.75.1,1.21,1.21,0,0,0,.38.58c-.33.35-.13,1,.62,1.11.06.05.18,0,.28,0s.16-.33,0-.32c-.72,0-.86-.48-.66-.69a.42.42,0,0,0,.31-.05h0a.16.16,0,0,0,.06-.2.15.15,0,0,0-.15-.07c-.17,0-.39,0-.55-.49a.54.54,0,0,0,.24-.37c0-.17-.41-.17-.53.1-.54.24-1-.19-.82-.86a.1.1,0,0,0-.06-.13A.09.09,0,0,0,18,15.1Z"/></g><g id="Group_6607" data-name="Group 6607"><path id="Path_31853" data-name="Path 31853" class="cls-5" d="M20.53,18.27a.1.1,0,0,0,.1.1.11.11,0,0,0,.09-.05.74.74,0,0,1,.52-.37.54.54,0,0,0-.38.54.15.15,0,0,0,.17.12.17.17,0,0,0,.1-.07c.1-.15.07-.38.44-.3.1,0,.22,0,.26-.08s0-.21-.23-.25h.14a.33.33,0,0,1,.33.33h0c0,.25-.29.72-.05.76l.08,0c.44-.3.56-1.27-.21-1.43C21.4,17.46,20.49,17.62,20.53,18.27Z"/></g><g id="Group_6608" data-name="Group 6608"><path id="Path_31854" data-name="Path 31854" class="cls-5" d="M20.84,19.39a.54.54,0,0,0,.22-.05c.18-.07.21-.52,0-.66a.2.2,0,0,0-.23,0c-.05,0-.11.07-.1.14s.06.09.1.1a.13.13,0,0,1,0,.06C20.56,19.15,20.67,19.37,20.84,19.39Z"/></g><g id="Group_6609" data-name="Group 6609"><path id="Path_31855" data-name="Path 31855" class="cls-5" d="M20.38,20a1.08,1.08,0,0,0,1.49-.48.08.08,0,0,0,0-.1c-.05,0-.11,0-.24.08a1.16,1.16,0,0,1-.76.27,1.27,1.27,0,0,1-.28-.06.17.17,0,0,0-.12,0,.16.16,0,0,0-.14.19A.14.14,0,0,0,20.38,20Z"/></g><path id="Path_31856" data-name="Path 31856" class="cls-5" d="M19.14,18.17l-.22-.09a.93.93,0,0,0-.83.2.26.26,0,0,0,0,.36.1.1,0,0,0,.05,0v0a.34.34,0,0,0,.1.34.24.24,0,0,0,.34,0h0a.2.2,0,0,0,0-.11.08.08,0,0,1,0,0,.16.16,0,0,0,0-.09c0-.08,0-.16,0-.24a1,1,0,0,1,.57-.25.08.08,0,0,0,.08-.07A.07.07,0,0,0,19.14,18.17Z"/><g id="Group_6610" data-name="Group 6610"><path id="Path_31857" data-name="Path 31857" class="cls-5" d="M18.32,19.17a.12.12,0,0,0-.07.23.13.13,0,0,0,.17,0,.14.14,0,0,0,0-.09A.14.14,0,0,0,18.32,19.17Z"/></g><g id="Group_6611" data-name="Group 6611"><path id="Path_31858" data-name="Path 31858" class="cls-5" d="M10,22.84c0-.13-.31-.22-.38-.28s-.17-.5-.25-.52-.2.24-.19.32A.78.78,0,0,0,9.6,23C9.83,23.06,10,22.94,10,22.84Z"/></g><g id="Group_6612" data-name="Group 6612"><path id="Path_31859" data-name="Path 31859" class="cls-5" d="M9.9,24.06v0h0v0h0c-.08,0,.07-.21.06-.4s-.3-.29-.3-.42a.14.14,0,0,0-.13-.14.13.13,0,0,0-.14.07c-.06.1,0,.28.19.43s.1.07.06.2c-.11.31-.07.41.19.6a.16.16,0,0,0,.23,0l0-.05C10.15,24.2,10,24.1,9.9,24.06Z"/></g><g id="Group_6613" data-name="Group 6613"><path id="Path_31860" data-name="Path 31860" class="cls-5" d="M17,24.42a.43.43,0,0,0,.71-.11.19.19,0,0,0-.13-.24.2.2,0,0,0-.13,0c-.13.05-.09.09-.24,0a.19.19,0,0,0-.24.12A.19.19,0,0,0,17,24.42Z"/></g><g id="Group_6614" data-name="Group 6614"><path id="Path_31861" data-name="Path 31861" class="cls-5" d="M16.49,22.68A12.15,12.15,0,0,0,13,22.8s-.09,0-.09.07.32,0,2.38,0c.93,0,1.32,0,1.82.38a.11.11,0,0,0,.11,0,.12.12,0,0,0,0-.11C17.22,23.06,17,22.81,16.49,22.68Z"/></g><g id="Group_6615" data-name="Group 6615"><path id="Path_31862" data-name="Path 31862" class="cls-5" d="M28.79,33.29a8.87,8.87,0,0,1-3,.6.1.1,0,0,0-.08.12.11.11,0,0,0,.06.07c1.78.63,5.95-1.17,6.5-4.44a.09.09,0,0,0-.17-.05l-.1.27A6.56,6.56,0,0,1,28.79,33.29Z"/></g><g id="Group_6616" data-name="Group 6616"><path id="Path_31863" data-name="Path 31863" class="cls-5" d="M34.79,43.12a.08.08,0,0,0-.1.05.07.07,0,0,0,.05.1.33.33,0,0,1,.18.33.07.07,0,0,0,.06.09C35.16,43.73,35.13,43.21,34.79,43.12Z"/></g><g id="Group_6617" data-name="Group 6617"><path id="Path_31864" data-name="Path 31864" class="cls-5" d="M34.59,43.5c0-.09-.14-.12-.19-.2-.4-.74-.84-.83-1.79-1.87a4.56,4.56,0,0,0-2.43-1.17c-.46-.11-.93-.22-1.39-.37l-.53-.2a6,6,0,0,1-.73-.19,3.56,3.56,0,0,1-.65-.38,2.21,2.21,0,0,1-.41-.4c0-.08-.15-.22-.25-.23s0,.29,0,.36a1.31,1.31,0,0,0,.63.6c.12.06.22.14.33.19a5.05,5.05,0,0,0,.55.18c.34.1.67.24,1,.36a13.2,13.2,0,0,0,1.37.37c2.85.68,2,1.17,3.32,2.05a4.25,4.25,0,0,1,1,1.11c.14.19.28.08.25-.05S34.61,43.55,34.59,43.5Zm-8.47-5,0,0s0,0,0,0Z"/></g><g id="Group_6618" data-name="Group 6618"><path id="Path_31865" data-name="Path 31865" class="cls-5" d="M35.63,42.78a1.15,1.15,0,0,0,0-.61c-.15-.65-.89-.92-1.06-1.42a1.63,1.63,0,0,1,.13-.9c.27-.91-.18-1.47-1.28-1.18a.11.11,0,0,0-.09.14.12.12,0,0,0,.14.09c.62-.11,1.06-.09,1,.54s-.37,1-.16,1.47c.27.71,1.31.78.92,2,0,.09-.12.15-.14.25s.13.13.16.17a.67.67,0,0,1-.14.49c-.05.06-.13.06-.19.13a.12.12,0,0,0,.08.22c.08,0,.13-.07.22-.17l.15-.19a.1.1,0,0,0,0,.12h.07a.64.64,0,0,0,.3-.59A.82.82,0,0,0,35.63,42.78Zm-.18,1a.8.8,0,0,0,.06-.37,2.5,2.5,0,0,1,0-.28.56.56,0,0,0,0-.08.53.53,0,0,1,.07.53,1.37,1.37,0,0,1-.13.2Z"/></g><g id="Group_6619" data-name="Group 6619"><path id="Path_31866" data-name="Path 31866" class="cls-5" d="M34.06,39.75c-.37.51-.37.93-.25,1s.06-.06.08-.12a1.69,1.69,0,0,0,0,.23.09.09,0,0,0,.09.08c.08,0,.1,0,.18-.23a0,0,0,0,0,0,0s0-.09,0-.15a.1.1,0,0,0-.12-.06h0a2.05,2.05,0,0,1,.1-.48c0-.06,0-.1-.07-.07l0-.07a.07.07,0,0,0,0-.08S34.07,39.73,34.06,39.75Z"/></g><g id="Group_6620" data-name="Group 6620"><path id="Path_31867" data-name="Path 31867" class="cls-5" d="M23.92,20.59c-.29.14-.83.4-1.17-.22a1,1,0,0,1-.07-.54.1.1,0,0,0-.1-.1.1.1,0,0,0-.08.05A.94.94,0,0,0,23,21a1.31,1.31,0,0,0,.27.06c.62.05.9-.42.81-.51s-.09,0-.2,0l0,0h0Z"/></g><g id="Group_6621" data-name="Group 6621"><path id="Path_31868" data-name="Path 31868" class="cls-5" d="M30.83,29.29a5.58,5.58,0,0,1-2.66,1.21c-.55.11-1.11.19-1.66.29a6.34,6.34,0,0,0-1.7.48v0a.08.08,0,0,0,.09,0,32.46,32.46,0,0,1,3.42-.54A4.44,4.44,0,0,0,31,29.43a.11.11,0,0,0,0-.15A.11.11,0,0,0,30.83,29.29Z"/></g><g id="Group_6622" data-name="Group 6622"><path id="Path_31869" data-name="Path 31869" class="cls-5" d="M40.12,28.38a.08.08,0,1,0,.1.12.38.38,0,0,1,.48,0,.92.92,0,0,1,.22.26.07.07,0,0,0,.09,0,.07.07,0,0,0,0,0C41.13,28.27,40.58,28,40.12,28.38Z"/></g><g id="Group_6623" data-name="Group 6623"><path id="Path_31870" data-name="Path 31870" class="cls-5" d="M40.63,28.05a.23.23,0,0,1,.21.15.09.09,0,0,0,.13.07.11.11,0,0,0,.07-.13h0c-.1-.31-.49-.36-.49-.19A.11.11,0,0,0,40.63,28.05Z"/></g><g id="Group_6624" data-name="Group 6624"><path id="Path_31871" data-name="Path 31871" class="cls-5" d="M36.68,26.87a1,1,0,0,0-.54.78l.1.05c.32-.91.75-.79,1.53-.23a1.45,1.45,0,0,0,1.18.36,1.3,1.3,0,0,1,1,.33c.09.09.2-.07.12-.15a1.52,1.52,0,0,0-1.18-.41,1.7,1.7,0,0,1-1.22-.44A1.06,1.06,0,0,0,36.68,26.87Z"/></g><g id="Group_6625" data-name="Group 6625"><path id="Path_31872" data-name="Path 31872" class="cls-5" d="M37.65,27.65a.07.07,0,0,0-.1,0,.06.06,0,0,0,0,.09c.32.3.86.41.88.23a.1.1,0,0,0-.06-.09.65.65,0,0,0-.2-.05v0h0v0S38.1,27.89,37.65,27.65Z"/></g><g id="Group_6626" data-name="Group 6626"><path id="Path_31873" data-name="Path 31873" class="cls-5" d="M36.78,28.46a.08.08,0,0,0,0-.08c-.09-.14-.32,0-.39.14s0,.33.14.32.09-.08.07-.15S36.75,28.57,36.78,28.46Z"/></g><g id="Group_6627" data-name="Group 6627"><path id="Path_31874" data-name="Path 31874" class="cls-5" d="M33.73,30.51c.86-1.41,1.87-1.37,2.34-1.69a.62.62,0,0,0,.31-.74c-.05-.14-.15-.1-.16,0,0,.68-.78.66-1.43,1.07a2.43,2.43,0,0,0-1.16,1.4S33.69,30.57,33.73,30.51Z"/></g><g id="Group_6628" data-name="Group 6628"><path id="Path_31875" data-name="Path 31875" class="cls-5" d="M33.7,30.57l-.31.45c.17-.41.26-.45.19-.5a0,0,0,0,0-.07,0,2,2,0,0,0-.34.48,1.66,1.66,0,0,1,.34-.49s0-.06,0-.09h0a.83.83,0,0,0-.38.36c-.31.48-.12.58-.06.5-.19.57,0,.62.08.51,0,.24.09.28.15.25,0,.18.12.16.21.17A2.07,2.07,0,0,1,33.7,30.57Z"/></g><g id="Group_6629" data-name="Group 6629"><path id="Path_31876" data-name="Path 31876" class="cls-5" d="M41,29h0c-.83-.57-1.91.06-2.66.19-1.43.25-1.39,2.72-3,3.86a7.71,7.71,0,0,1-4.34.63,11.56,11.56,0,0,0,1.89-4.07c.24.1.47.21.7.33.08,0,.46-.13-.64-.51a3.08,3.08,0,0,0-.84-.18,1.93,1.93,0,0,0-1.62-2.19l-.19,0h-.09a.09.09,0,0,0-.08.1.08.08,0,0,0,.05.07,1.59,1.59,0,0,1,.27.12,2.38,2.38,0,0,1,.66.48,1.75,1.75,0,0,1,.48,1.45c0,.14,0,.25,0,.32a.3.3,0,0,0,.41-.05.36.36,0,0,0,0-.09,3,3,0,0,1,.68.13c-.1.22-.18.56-.43,1.21-1.16,2.94-3.51,5.49-6.62,5.8l.11.3a7.26,7.26,0,0,0,3.89-1.78c0,1-.46,1.62-.06,1.56.24,0,.45-1.07.33-1.81A8.16,8.16,0,0,0,30.7,34l.09,0,0,0c2.07.34,4.69-.24,5.39-1.27,1.63-2.39.94-2.81,2.42-3.25s1.54-.47,2.33-.38a.08.08,0,0,0,.08-.06A.07.07,0,0,0,41,29Z"/></g><g id="Group_6630" data-name="Group 6630"><path id="Path_31877" data-name="Path 31877" class="cls-5" d="M32,37.81c-1.22-1.08-2.53-1.19-2.67-1h0l0,0h0v0h0v0l0,.06a.12.12,0,0,0,.09.05,2.39,2.39,0,0,1,1,.14A5.3,5.3,0,0,1,32.68,39c.06.08.14.14.2.21a.11.11,0,0,0,.15,0s0,0,0,0S32.59,38.33,32,37.81Z"/></g><g id="Group_6631" data-name="Group 6631"><path id="Path_31878" data-name="Path 31878" class="cls-5" d="M22.42,22c.16,0,.35.07.39-.1s-.66-.52-1.31-.27c-.12.05-.29.22-.42.21a1.07,1.07,0,0,0,.42-.66c0-.06-.07-.15-.16,0a1.65,1.65,0,0,1-1.14.68c-.77.17-2.24-.08-2.05-.84,0-.13.09-.12.18-.17s.16-.15.21-.18a2,2,0,0,0,.28-.15.16.16,0,0,0,.05-.23l-.05-.05c-.08,0-.14,0-.2.05a2.9,2.9,0,0,0-.29.19.89.89,0,0,1-.73-.08.52.52,0,0,0-.08-.73l-.06,0a.28.28,0,0,1-.15-.2c-.06-.24.26-.39.41-.56.53-.58-.15-1.42,0-2,.07-.23.3-.28.21-.42s-.55.09-.56.58a4.13,4.13,0,0,0,.19,1c.2.87-.57.68-.59,1.33,0,.38.38.53.37.73s-.24.16-.22.33.26.3.48.39c-.17,0-.12.33.19.41.11.63.91.9,1.54,1-1.95-.1-6.54-.41-7.2-.46-.23-.18-.15-.26-.22-.37s-.4,0-.19.38.74.43.59.93a.18.18,0,0,0,.12.21.25.25,0,0,0,.12,0,.19.19,0,0,0,.09-.15.89.89,0,0,0-.16-.69l6,.43a6.81,6.81,0,0,0-.78.34.06.06,0,0,0,0,.08c0,.16.71-.22.82-.26a21,21,0,0,0,2.54-.41A2.23,2.23,0,0,1,22.42,22Z"/></g><g id="Group_6632" data-name="Group 6632"><path id="Path_31879" data-name="Path 31879" class="cls-5" d="M12.82,24.87a4.37,4.37,0,0,1,1.06.34,6.05,6.05,0,0,0,2.85.45,1.47,1.47,0,0,1,1,.1,3.7,3.7,0,0,0,2,.26,3.15,3.15,0,0,1,1.64.05c.21,0,.33-.3-.29-.54a2.17,2.17,0,0,0-1.16,0,3.91,3.91,0,0,1-2.06-.17,2.55,2.55,0,0,0-.72-.14,9.34,9.34,0,0,1-2.24-.13c-.62-.13-.91-.28-1.62-.4a4,4,0,0,0-.7-.21,3.5,3.5,0,0,0-.65.08,3.21,3.21,0,0,1-1.38-.06.44.44,0,0,0-.27-.05c-.15.06-.14.21,0,.31a.79.79,0,0,0,.45.13C11.58,25,11.62,24.8,12.82,24.87Z"/></g><g id="Group_6633" data-name="Group 6633"><path id="Path_31880" data-name="Path 31880" class="cls-5" d="M10.35,25.15l.07,0,.05,0-.05,0h-.06Z"/></g><g id="Group_6634" data-name="Group 6634"><path id="Path_31881" data-name="Path 31881" class="cls-5" d="M22.06,30.92l0,0,0,0L19,35.69l.14.28c.16-.24,2.28-3.75,3-4.9a.31.31,0,0,0,0-.07Z"/></g><path id="Path_31882" data-name="Path 31882" class="cls-5" d="M30.28,27.32a3.31,3.31,0,0,1-.82,1.29A1.75,1.75,0,0,0,28.24,28a.07.07,0,0,0,0,.05c0,.05,0,.06.16.11a2.42,2.42,0,0,1,.93.62C27.86,30,25.5,29.84,23.91,31a3.84,3.84,0,0,0-.22.39l-.22-.11a7.42,7.42,0,0,1-1.16-.75,8.27,8.27,0,0,1-1.84-2.07,9.75,9.75,0,0,1-.72-1.4.06.06,0,0,0-.07,0,.05.05,0,0,0,0,.07,6.51,6.51,0,0,0,1.28,2.56,7.87,7.87,0,0,0,2.21,1.89c.23.13.47.25.71.36s.26.11.39.15a.92.92,0,0,0,.43.08.15.15,0,0,0,.12-.16.18.18,0,0,0,0-.09,1.09,1.09,0,0,0-.32-.17l-.32-.13-.39-.17c1.82-1.47,4-1,5.77-2.39.1.14.19.35.3.3a.11.11,0,0,0,.05-.09.58.58,0,0,0-.17-.37,2.93,2.93,0,0,0,.68-.91,1.55,1.55,0,0,0,.14-.6A.11.11,0,0,0,30.28,27.32Z"/><g id="Group_6635" data-name="Group 6635"><path id="Path_31883" data-name="Path 31883" class="cls-5" d="M17,16.78a.17.17,0,0,0,.19-.14.15.15,0,0,0-.07-.15.94.94,0,0,1-.54-.68.8.8,0,0,1,.09-.43A1.23,1.23,0,0,1,17,15a.11.11,0,0,0,.06-.14.1.1,0,0,0-.12-.06l-.15,0c.19-.26.5-.32,1-.2a.09.09,0,0,0,.1-.05c0-.06,0-.1,0-.13a.29.29,0,0,0-.15-.12c-.86-.3-1.4.58-1.26.8,0,0,0,0,0,0a1.05,1.05,0,0,0,.27,1.46A.91.91,0,0,0,17,16.78Z"/></g><g id="Group_6636" data-name="Group 6636"><path id="Path_31884" data-name="Path 31884" class="cls-5" d="M21.7,13.48a.05.05,0,0,0,0,.08.05.05,0,0,0,.08,0c1.4-.79,2.31.28,1.82.91a.11.11,0,0,0,.16.15.49.49,0,0,1,.7.09.5.5,0,0,1,0,.55.15.15,0,0,0,0,.2.17.17,0,0,0,.14,0,.36.36,0,0,1,.47.21.33.33,0,0,1,0,.26c-.1.41-.54.54-.9.67a.13.13,0,0,0-.05.16s.05.05.08.06a1.34,1.34,0,0,0,.75-.24c.71-.46.47-1.44-.2-1.44a.75.75,0,0,0-.64-.85.82.82,0,0,0-.27,0C24.09,13.53,23.14,12.61,21.7,13.48Z"/></g><g id="Group_6637" data-name="Group 6637"><path id="Path_31885" data-name="Path 31885" class="cls-5" d="M24.52,17.42a.08.08,0,0,0-.12,0,.09.09,0,0,0,0,.13.69.69,0,0,1,.19.82.81.81,0,0,1-.77.38.13.13,0,0,0-.11.13.15.15,0,0,0,.06.09.76.76,0,0,0,.85-.12.86.86,0,0,0,.16-1.21A.85.85,0,0,0,24.52,17.42Z"/></g><path id="Path_31886" data-name="Path 31886" class="cls-5" d="M32.59,10.37a1.68,1.68,0,0,0,.26-1.31.15.15,0,0,0-.16-.13.16.16,0,0,0-.16.14,1.26,1.26,0,0,1-.59.78,2.53,2.53,0,0,1-1.11.31,1.61,1.61,0,0,1-.62,0,2.1,2.1,0,0,1-.53-.29L29,9.38a1.36,1.36,0,0,0,.29,0,3.13,3.13,0,0,0,1.15-.35,1.7,1.7,0,0,0,.89-.78c.06-.13-.16-.21-.22-.08a1.35,1.35,0,0,1-.75.64l-.52.22a1.74,1.74,0,0,1-.59.13,3.58,3.58,0,0,1-1.14-.43A3,3,0,0,0,27,8.53a3.18,3.18,0,0,0-1.29.28.1.1,0,0,0-.07.09,3.32,3.32,0,0,0-1.33.78,2.2,2.2,0,0,0-.58,1.12,1.44,1.44,0,0,0,0,.62.72.72,0,0,0,.19.39,1.24,1.24,0,0,0-.19.36,1.58,1.58,0,0,0-1.9.27,1.68,1.68,0,0,0-2.06-.07c-.27.18-.6.52-.57.83a1.42,1.42,0,0,0-1.36,1.12.06.06,0,0,0,.05.08h0a.06.06,0,0,0,.07,0c.35-1.06,1.8-1.19,1.67-.47a.09.09,0,0,0,.15.08c.23-.22.1-.69-.45-.77a1.57,1.57,0,0,1,2.07-.68,2.49,2.49,0,0,0,.28.15.08.08,0,0,0,0,.1c.09.06.29-.2.38-.27a1.31,1.31,0,0,1,1.84.21,1.23,1.23,0,0,1,.21.39.92.92,0,0,1,1.05.12c.16.16.31.39.19.58s-.21.06-.25.18a.08.08,0,0,0,0,.11.19.19,0,0,0,.24.06,3.08,3.08,0,0,1,1,.48.17.17,0,0,0-.05.24.12.12,0,0,0,.08.06c.4.18.91.66.76.7s-.23-.09-.32-.17-.37.08-.29.25c.5,1.09.82,2.05-.14,2.87a.14.14,0,0,0,0,.21.16.16,0,0,0,.11.05.63.63,0,0,1,.34.32.59.59,0,0,1,0,.55c-.24.53-.77.56-1,.65a.14.14,0,0,0-.18.1.15.15,0,0,0,.1.18c.22.08.31.42,0,.5a.31.31,0,0,1-.23,0c-.11-.05-.27,0-.19.24-.42.41-.92.13-.75-.16a.11.11,0,0,0,0-.13.09.09,0,0,0-.1,0c-.15.06-.23.23-.35.32a.83.83,0,0,1-.89.1c-.12-.12-.14-.18-.2-.18s-.11,0-.09.08.15.52.74.57a.89.89,0,0,0,.57-.14c.33.36,1.25.17,1.34-.35a.57.57,0,0,0,.63-.81,1.11,1.11,0,0,0,.58-1.92,1.25,1.25,0,0,0,.36-.4,2.48,2.48,0,0,0-.08-2.3c.39,0,.81-.46-.1-1.12,0-.23-.8-.78-1.4-.91.29-.33.08-.83-.35-1.08a.1.1,0,0,0,.06-.05.73.73,0,0,0,.18-.41.11.11,0,0,0,.08-.11.37.37,0,0,1,.26-.33,1,1,0,0,1,.57,0,3.9,3.9,0,0,1,1.14.46c.34.2.64.46,1,.66a2,2,0,0,0,1.16.29,1.25,1.25,0,0,0,1-.65.15.15,0,0,0-.19-.18,1,1,0,0,1-.77-.07h.13a5.79,5.79,0,0,0,1,0,1.87,1.87,0,0,0,1.45-1,2.72,2.72,0,0,0,.33-1.08A.14.14,0,0,0,32.59,10.37Zm-8.38,2.28a.7.7,0,0,0,.17.13h0l-.08,0Zm.59.1.12,0,0,0H25v.07Zm.31-.15h0a0,0,0,0,0,0-.05h0l0,0Zm7.12-2.29a2.18,2.18,0,0,1-1,.55,3.94,3.94,0,0,1-2.28,0,4.18,4.18,0,0,1-1.14-.61c-.16-.13-.35.13-.18.26a4.15,4.15,0,0,0,3.63.73,2.83,2.83,0,0,0,1.1-.54A2,2,0,0,1,31.63,12a1.42,1.42,0,0,1-.74.3,5.53,5.53,0,0,1-.91,0,2.28,2.28,0,0,1-1-.22c-.15-.07-.25.15-.13.24a2.32,2.32,0,0,0,1.37.63,1,1,0,0,1-.66.24,1.88,1.88,0,0,1-1.09-.39,11.08,11.08,0,0,0-1-.66,3.69,3.69,0,0,0-1.2-.4,1,1,0,0,0-.65.11.6.6,0,0,0-.29.42.83.83,0,0,1-.43-.18,3.4,3.4,0,0,1-.45-.28.8.8,0,0,0-.19-.13.16.16,0,0,0-.08-.06c-.12,0-.14-.25-.15-.36a1.35,1.35,0,0,1,0-.49,1.76,1.76,0,0,1,.51-.87,3,3,0,0,1,.93-.59A5.2,5.2,0,0,1,26.59,9a2.37,2.37,0,0,1,1.15.1,4.71,4.71,0,0,1,1,.51c.33.21.64.44,1,.64a1.31,1.31,0,0,0,.6.24,3.21,3.21,0,0,0,.62,0,2.71,2.71,0,0,0,1.24-.4,1.58,1.58,0,0,0,.34-.29A1.32,1.32,0,0,1,32.23,10.31Z"/><g id="Group_6638" data-name="Group 6638"><path id="Path_31887" data-name="Path 31887" class="cls-5" d="M18.74,11.36A16.26,16.26,0,0,0,14,14a13.55,13.55,0,0,0-3.68,4.44A4.12,4.12,0,0,0,10,20.64a2.81,2.81,0,0,0,.23.86s0,.06-.27,0a2,2,0,0,1,.38.32,1.84,1.84,0,0,0,.84.05l.31,0c0-.28-.1-.21-1-.16a.65.65,0,0,0-.08-.49,3.5,3.5,0,0,1,.08-2.41c.7-1.89,3.83-5.65,8.39-7a.26.26,0,0,0,.17-.18.22.22,0,0,0-.14-.28A.26.26,0,0,0,18.74,11.36Z"/></g><g id="Group_6639" data-name="Group 6639"><path id="Path_31889" data-name="Path 31889" class="cls-5" d="M19.78,11.51s0,0,0,.1a3,3,0,0,1,0,.42c0,.26.39.16.29,0-.19-.4-.15-.53-.25-.53l0,0a.14.14,0,0,0,.16-.05c.18-.19-.24-.29-.14-.62,0-.1-.12-.19-.18-.09a.36.36,0,0,0,0,.09.1.1,0,0,0-.14,0h0a.52.52,0,0,0-.08.4C19.48,11.36,19.62,11.56,19.78,11.51Z"/></g><g id="Group_6640" data-name="Group 6640"><path id="Path_31890" data-name="Path 31890" class="cls-5" d="M18.21,35.72c-1.26-1-2.69-2.23-4-3.53a14.86,14.86,0,0,1-3.79-5.57,1.79,1.79,0,0,1,0-.92.38.38,0,0,0,0-.33.14.14,0,0,0-.08-.05.24.24,0,0,0-.26.14,2.85,2.85,0,0,0,.36,2.38c1.68,3.38,4.6,5.84,7.51,8.25a.17.17,0,0,0,.14,0,.22.22,0,0,0,.1-.4Z"/></g><g id="Group_6641" data-name="Group 6641"><path id="Path_31891" data-name="Path 31891" class="cls-5" d="M18.9,36.29l.11-.11c.13-.14-.09-.35-.24-.23l0,0c-.11-.13-.28,0-.39.15s-.22.2-.21.3,0,.06,0,.07.1,0,.22-.07a.85.85,0,0,0-.06.17.14.14,0,0,0,.12.16h0C18.65,36.79,18.63,36.56,18.9,36.29Z"/></g><g id="Group_6642" data-name="Group 6642"><path id="Path_31892" data-name="Path 31892" class="cls-5" d="M19.1,36.51a.13.13,0,0,0-.08-.16h-.09a.37.37,0,0,0-.13.12c-.09.12-.1.12-.13.21a.09.09,0,0,0,0,.11h.07c.09,0,.08,0,.19-.14A.53.53,0,0,0,19.1,36.51Z"/></g><g id="Group_6643" data-name="Group 6643"><path id="Path_31893" data-name="Path 31893" class="cls-5" d="M19.16,36.65a.17.17,0,0,0-.18.16v0c0,.18.2.26.28.64a2.6,2.6,0,0,1,0,.4c0,.16,0,.24,0,.33a.14.14,0,0,0,.11.06c.27,0,.39-.45.27-.9C19.65,37.13,19.42,36.68,19.16,36.65Z"/></g><path id="Path_31894" data-name="Path 31894" class="cls-5" d="M26.23,38.14a16.09,16.09,0,0,1-.87-2.31c-.11-.4-.2-.8-.29-1.2-.05-.2-.08-.4-.12-.6s-.1-.4-.13-.6-.06-.47-.08-.71,0-.45-.06-.68h0a4.14,4.14,0,0,0,0,.61q0,.32,0,.63c0,.2,0,.41,0,.62s0,.42.07.63A12.89,12.89,0,0,0,25.42,37,12.51,12.51,0,0,0,26,38.28C26.05,38.46,26.31,38.31,26.23,38.14Z"/><path id="Path_31895" data-name="Path 31895" class="cls-6" d="M11,22a.16.16,0,0,1-.14.15.55.55,0,0,1-.22,0l-.42-.11h.26"/><path id="Path_31896" data-name="Path 31896" class="cls-7" d="M18.39,21.92h-.06l-.09,0-2.58-.13a.27.27,0,0,0-.3-.2c-.43,0-.86.07-1.29.13a.23.23,0,0,0-.12.06h0l-.43-.07-.06-.06a1.8,1.8,0,0,0-.53-.28.23.23,0,0,0-.14,0l-.12,0a.26.26,0,0,0-.27.17.25.25,0,0,0,.1.3h0a.24.24,0,0,0,.16.2l.09,0a.6.6,0,0,0,.22.16.5.5,0,0,0,.34,0l.18.07a.19.19,0,0,0,.1,0h0a4.16,4.16,0,0,0,1,.15.31.31,0,0,0,.2-.07h0c.75,0,1.5.11,2.25.14a5.32,5.32,0,0,0,1.13-.06h.19a.26.26,0,0,0,.05-.52Z"/><g id="Group_6647" data-name="Group 6647"><path id="Path_31897" data-name="Path 31897" class="cls-5" d="M3.72,21.14a.36.36,0,0,0-.25.29.42.42,0,0,0,.09.32,1.42,1.42,0,0,0,.68.42,2.7,2.7,0,0,0,1.2,0H4.79a1.82,1.82,0,0,1-.52-.08,1.17,1.17,0,0,1-.67-.46.28.28,0,0,1,0-.35.45.45,0,0,1,.45,0,.58.58,0,0,1,.19.16l.19.21a1.87,1.87,0,0,0,.42.3,2,2,0,0,0,.5.21,0,0,0,0,0,.06,0,0,0,0,0,0,0-.06c-.16-.08-.33-.13-.49-.22a2.13,2.13,0,0,1-.43-.31,1.76,1.76,0,0,0-.37-.35.83.83,0,0,0-.21-.06A.37.37,0,0,0,3.72,21.14Z"/><path id="Path_31898" data-name="Path 31898" class="cls-5" d="M4.72,20.69c-.19.12,0,.33.06.44a1.5,1.5,0,0,0,.29.27,2,2,0,0,0,.42.2h0c-.11-.07-.24-.13-.35-.21a1.55,1.55,0,0,1-.27-.24.69.69,0,0,1-.16-.22c0-.1,0-.16.1-.2s.19,0,.23.06A1.14,1.14,0,0,1,5.1,21a.92.92,0,0,0,.19.35,1.85,1.85,0,0,0,.14.14.33.33,0,0,0,.14.1s0,0,0,0a0,0,0,0,0,0,0,1.06,1.06,0,0,0-.15-.15,1.2,1.2,0,0,1-.17-.21.78.78,0,0,1-.11-.2l0-.16A.28.28,0,0,0,5,20.64.29.29,0,0,0,4.72,20.69Z"/><path id="Path_31899" data-name="Path 31899" class="cls-5" d="M3.67,21.27l.1,0a.8.8,0,0,0-.15,0s0,0,0,0,0,0,0,0a2.2,2.2,0,0,0,.39.17H4a.64.64,0,0,0-.43-.07,0,0,0,0,0,0,.05l0,0,.29.14h0l-.12,0s0,0,0,0a0,0,0,0,0,0,0l0,0H3.65s0,0,0,.05a2.66,2.66,0,0,0,.53.21,0,0,0,0,0,0,.06h.06a2.55,2.55,0,0,0,.55.11h.06s0,0,0,0l.09,0s0,0,0-.06h.09a.05.05,0,0,0,0-.1l-.44-.12-.18-.11h0l-.14-.11-.07-.05a.25.25,0,0,0-.11-.17,1.09,1.09,0,0,0-.49-.22,0,0,0,0,0,0,0A.06.06,0,0,0,3.67,21.27Zm0,.25a.86.86,0,0,1,.23.06l.17.07.09.07v0A.61.61,0,0,0,4,21.69Zm.85.4h0l-.11,0v0l.12.06Zm.29.14-.09,0v0a.33.33,0,0,1,.13,0Zm-.91-.35.06,0H4Zm.07.15-.11,0h0Z"/><path id="Path_31900" data-name="Path 31900" class="cls-5" d="M4.63,20.83l.06.05h0a0,0,0,0,0,0,.06h0a.37.37,0,0,0,.16.21,0,0,0,0,0,0,0,1.09,1.09,0,0,0,.53.32,0,0,0,0,0,0,0,0,0,0,0,0,0,0l-.11-.05h.07a0,0,0,0,0,0,0s0,0,0,0A.52.52,0,0,1,5,21s0,0,0,0H5a0,0,0,0,0,0,0l-.09-.08,0,0s.1,0,.12-.05-.08-.08-.1,0,0,0,0,0h0s0,0,0,0l-.14,0a0,0,0,0,0,0,.06A0,0,0,0,0,4.63,20.83Zm.3.21a.33.33,0,0,0,.06.1l-.1,0A.4.4,0,0,1,4.74,21a.37.37,0,0,1,.14.07A0,0,0,0,0,4.93,21Z"/><g id="Group_6645" data-name="Group 6645"><g id="Group_6644" data-name="Group 6644"><path id="Path_31901" data-name="Path 31901" class="cls-5" d="M6.05,22.38h0a1.52,1.52,0,0,0,0,.6.78.78,0,0,0,.25.45.3.3,0,0,0,.24.05c.07,0,.1-.09.14-.14s.1,0,.14,0H7a.61.61,0,0,0,.31-.09c.06,0,0-.12-.06-.1L7,23.22H6.72c-.07,0-.1.06-.13.11l0,.05a.28.28,0,0,1-.13,0,.73.73,0,0,1-.23-.41c0-.18,0-.37-.08-.55h0l0,0h0a0,0,0,0,0,0,0Z"/><path id="Path_31902" data-name="Path 31902" class="cls-5" d="M7.47,23.2a.26.26,0,0,1,.11-.14.8.8,0,0,0-.3.06.06.06,0,0,0,0,.08.05.05,0,0,0,.07,0Z"/></g><path id="Path_31903" data-name="Path 31903" class="cls-5" d="M18.45,19.68c.09.31.26.58.32.9a5.58,5.58,0,0,1,.12,1,4,4,0,0,1-.07,1c0,.16,0,.33-.07.49a.57.57,0,0,1-.08.23.36.36,0,0,0-.07.17,0,0,0,0,0,0,0h0l.14-.15a.4.4,0,0,0,.11-.2A3,3,0,0,0,19,22.6a4.82,4.82,0,0,0,.08-1,5.69,5.69,0,0,0-.11-1,6.32,6.32,0,0,0-.34-.95.08.08,0,0,0-.1-.05A.09.09,0,0,0,18.45,19.68Z"/><path id="Path_31904" data-name="Path 31904" class="cls-5" d="M6.45,21.52a2.26,2.26,0,0,0,.16.26,1.17,1.17,0,0,1,.1.26.93.93,0,0,1,.06.52h0a.85.85,0,0,0,0-.5,1.31,1.31,0,0,0-.06-.27,3,3,0,0,0-.16-.31S6.43,21.48,6.45,21.52Z"/><path id="Path_31905" data-name="Path 31905" class="cls-5" d="M6.79,23a.51.51,0,0,1-.07.24l-.07.09s0,0,0,.07,0,0,0,0,.12-.1.14-.16a.53.53,0,0,0,0-.28Z"/><path id="Path_31906" data-name="Path 31906" class="cls-5" d="M6.25,21.81a.45.45,0,0,0,0,.28,1.09,1.09,0,0,1,0,.36.93.93,0,0,0,0,.33.71.71,0,0,0,.13.31,0,0,0,0,0,.06,0l0,0s.06,0,0,0c0-.27,0-.53,0-.8s0-.43-.16-.53A0,0,0,0,0,6.25,21.81Zm.12,1v0ZM6.31,22v0a.08.08,0,0,1,0,0S6.32,22,6.31,22Z"/><path id="Path_31907" data-name="Path 31907" class="cls-5" d="M6.21,21.86a.74.74,0,0,0,0,.51,1.28,1.28,0,0,0,.21.78.06.06,0,0,0,.07,0s0,0,0,0a.61.61,0,0,0,0-.19s0,0,0,0a4,4,0,0,0,0-.6c0-.18-.07-.43-.27-.48A.08.08,0,0,0,6.21,21.86Zm.19.31a.43.43,0,0,1,0-.05.09.09,0,0,1,0,.05Zm0-.09a.06.06,0,0,0-.08,0h0a.45.45,0,0,1,0-.11A.28.28,0,0,1,6.38,22.08Z"/><path id="Path_31908" data-name="Path 31908" class="cls-5" d="M11.48,20.07a7.17,7.17,0,0,1,.24.91c0,.33.08.67.12,1s.07.66.09,1a5.78,5.78,0,0,1,0,.93H12A3.25,3.25,0,0,0,12,23c0-.35,0-.7-.08-1.05s-.06-.69-.11-1a3.1,3.1,0,0,0-.27-.93C11.55,19.94,11.45,20,11.48,20.07Z"/><path id="Path_31909" data-name="Path 31909" class="cls-5" d="M15.15,19.87c.06.15.13.28.18.44a3.36,3.36,0,0,1,.13.48c0,.32.09.66.11,1a10.47,10.47,0,0,1,0,1.12,3.45,3.45,0,0,1-.1.56,1.17,1.17,0,0,1-.05.2l.08,0s0-.08,0-.12a2.45,2.45,0,0,0,.08-.29A4.29,4.29,0,0,0,15.71,22a11.37,11.37,0,0,0-.11-1.16,4.87,4.87,0,0,0-.12-.52,1.73,1.73,0,0,0-.22-.5.07.07,0,0,0-.09,0A.05.05,0,0,0,15.15,19.87Z"/><path id="Path_31910" data-name="Path 31910" class="cls-5" d="M7.32,22.7l.06,0,0,.06s.08,0,.06,0a.32.32,0,0,0-.14-.14S7.27,22.69,7.32,22.7Z"/><path id="Path_31911" data-name="Path 31911" class="cls-5" d="M7.42,22.57a.84.84,0,0,0,.28.18s0,0,0,0-.18-.11-.27-.18a0,0,0,0,0,0,0A0,0,0,0,0,7.42,22.57Z"/><path id="Path_31912" data-name="Path 31912" class="cls-5" d="M7.61,22.45c.13.12.24.3.42.35s.05-.05,0-.06a2.05,2.05,0,0,1-.38-.34s0,0,0,0A0,0,0,0,0,7.61,22.45Z"/><path id="Path_31913" data-name="Path 31913" class="cls-5" d="M7.89,22.44s0,0,0,0,.16.12.21.17a.58.58,0,0,0,.17.18s.05,0,0,0a2.2,2.2,0,0,0-.2-.23C8.06,22.5,8,22.42,7.89,22.44Z"/><path id="Path_31914" data-name="Path 31914" class="cls-5" d="M8.14,22.37s0,0,0,0,.1.06.13.1a.76.76,0,0,1,.11.14,1.68,1.68,0,0,0,.29.24,0,0,0,0,0,0,0,0,0,0,0,0,0,0h0l-.17-.15c-.06-.05-.11-.12-.18-.17S8.24,22.34,8.14,22.37Z"/><path id="Path_31915" data-name="Path 31915" class="cls-5" d="M8.54,22.49a1.69,1.69,0,0,0,.61.48,0,0,0,0,0,0,0,4.61,4.61,0,0,1-.6-.47A0,0,0,0,0,8.54,22.49Z"/><path id="Path_31916" data-name="Path 31916" class="cls-5" d="M8.9,22.54c.2.15.35.39.6.48,0,0,.05-.05,0-.07A5.08,5.08,0,0,1,9,22.48S8.86,22.51,8.9,22.54Z"/><path id="Path_31917" data-name="Path 31917" class="cls-5" d="M9.14,22.49a1.07,1.07,0,0,1,.31.25c.12.11.25.23.38.33s0,0,0,0a0,0,0,0,0,0,0c-.12-.12-.26-.23-.39-.34a1.18,1.18,0,0,0-.31-.24A0,0,0,1,0,9.14,22.49Z"/><path id="Path_31918" data-name="Path 31918" class="cls-5" d="M9.47,22.46a6.56,6.56,0,0,0,.67.62,0,0,0,0,0,0,0,0,0,0,0,0,0,0c-.23-.21-.47-.39-.67-.61A0,0,0,0,0,9.47,22.46Z"/><path id="Path_31919" data-name="Path 31919" class="cls-5" d="M9.85,22.46a3.23,3.23,0,0,0,.76.62s0,0,0,0a0,0,0,0,0,0-.05,4.29,4.29,0,0,1-.75-.6s0,0,0,0S9.84,22.46,9.85,22.46Z"/><path id="Path_31920" data-name="Path 31920" class="cls-5" d="M10.25,22.49a3.58,3.58,0,0,0,.7.65s.07,0,0-.05a6.11,6.11,0,0,1-.7-.64S10.23,22.47,10.25,22.49Z"/><path id="Path_31921" data-name="Path 31921" class="cls-5" d="M10.62,22.52a3,3,0,0,0,.3.32,1.49,1.49,0,0,0,.38.28l0,0a0,0,0,0,0,0,0,2.93,2.93,0,0,1-.65-.57S10.59,22.49,10.62,22.52Z"/><path id="Path_31922" data-name="Path 31922" class="cls-5" d="M10.94,22.53a1.93,1.93,0,0,0,.3.27s0,0,0,0a0,0,0,0,0,0,0,3.85,3.85,0,0,1-.3-.27S10.92,22.5,10.94,22.53Z"/><path id="Path_31923" data-name="Path 31923" class="cls-5" d="M11.57,23.07a1.2,1.2,0,0,0,.31.18s.07,0,0-.05-.2-.11-.29-.18,0,0,0,0S11.56,23.06,11.57,23.07Z"/><path id="Path_31924" data-name="Path 31924" class="cls-5" d="M11.65,22.5l.22.1s.06-.05,0-.06l-.21-.11S11.61,22.48,11.65,22.5Z"/><path id="Path_31925" data-name="Path 31925" class="cls-5" d="M18,22.76l.29.15s0,0,0,0a0,0,0,0,0,0,0h0L18,22.7Z"/><path id="Path_31926" data-name="Path 31926" class="cls-5" d="M18.07,22.57a2.55,2.55,0,0,0,.39.24,0,0,0,1,0,0-.06,2.34,2.34,0,0,1-.39-.25A.64.64,0,0,1,18.07,22.57Z"/><path id="Path_31927" data-name="Path 31927" class="cls-5" d="M18.13,22.34a1.14,1.14,0,0,0,.47.34,0,0,0,0,0,0,0l-.24-.16a1.8,1.8,0,0,1-.21-.19S18.11,22.31,18.13,22.34Z"/><path id="Path_31928" data-name="Path 31928" class="cls-5" d="M18.39,22.29a.48.48,0,0,0,.25.14s.05-.05,0-.06a.84.84,0,0,1-.23-.12,0,0,0,0,0-.05,0A0,0,0,0,0,18.39,22.29Z"/><path id="Path_31929" data-name="Path 31929" class="cls-5" d="M18.55,22.11l.06.05a0,0,0,0,0,0,0v0l-.06-.06s0,0-.05,0a0,0,0,0,0,0,0Z"/><path id="Path_31930" data-name="Path 31930" class="cls-5" d="M9.32,21.33a.88.88,0,0,0,.27.1s0,0,0-.05a1.17,1.17,0,0,1-.26-.1A0,0,0,1,0,9.32,21.33Z"/><path id="Path_31931" data-name="Path 31931" class="cls-5" d="M9.52,21.27a2.53,2.53,0,0,0,.36.12s0,0,0,0a0,0,0,0,0,0,0,3,3,0,0,0-.36-.13.05.05,0,0,0,0,0S9.5,21.27,9.52,21.27Z"/><path id="Path_31932" data-name="Path 31932" class="cls-5" d="M9.69,21.14c.18,0,.34.18.53.16,0,0,0,0,0,0l0,0c-.09,0-.19-.05-.28-.09a1.13,1.13,0,0,0-.24-.08S9.65,21.13,9.69,21.14Z"/><path id="Path_31933" data-name="Path 31933" class="cls-5" d="M9.93,21l.58.22s.07,0,0-.05A6,6,0,0,0,10,21S9.9,21,9.93,21Z"/><path id="Path_31934" data-name="Path 31934" class="cls-5" d="M10.21,20.86s0,.05,0,0,.1,0,.14,0l.08,0,.05,0a1.55,1.55,0,0,0,.43.14s0,0,0-.05a1.77,1.77,0,0,1-.45-.18C10.42,20.89,10.29,20.81,10.21,20.86Z"/><path id="Path_31935" data-name="Path 31935" class="cls-5" d="M10.53,20.76a1.63,1.63,0,0,0,.4.24,1.35,1.35,0,0,0,.45.11s0,0,0-.05-.27-.07-.41-.12a1.53,1.53,0,0,1-.41-.23s0,0,0,0A0,0,0,0,0,10.53,20.76Z"/><path id="Path_31936" data-name="Path 31936" class="cls-5" d="M11,20.71a2.26,2.26,0,0,0,.26.16c.07,0,.17.07.24,0a0,0,0,0,0,0,0h0a.86.86,0,0,1-.23-.06l-.23-.14S11,20.68,11,20.71Z"/><path id="Path_31937" data-name="Path 31937" class="cls-5" d="M11.29,20.58c.07,0,.13,0,.2,0s0-.07,0-.06a.32.32,0,0,1-.09,0h-.11S11.25,20.58,11.29,20.58Z"/><path id="Path_31938" data-name="Path 31938" class="cls-5" d="M17.08,20.12a1.24,1.24,0,0,0,.5.17s.05-.05,0-.06a1.76,1.76,0,0,1-.49-.16S17,20.11,17.08,20.12Z"/><path id="Path_31939" data-name="Path 31939" class="cls-5" d="M17.68,20h0s0,0,0,0a0,0,0,0,0-.05-.05h0a0,0,0,0,0,0,0A0,0,0,0,0,17.68,20Z"/><path id="Path_31940" data-name="Path 31940" class="cls-5" d="M18,21a.12.12,0,0,0,.1,0,0,0,0,0,0,0,0h0a.1.1,0,0,1-.07,0A0,0,0,0,0,18,21Z"/><path id="Path_31941" data-name="Path 31941" class="cls-5" d="M10.56,21.73c.1,0,.19.07.29.09s0,0,0,0a.76.76,0,0,0-.3-.1S10.54,21.73,10.56,21.73Z"/><path id="Path_31942" data-name="Path 31942" class="cls-5" d="M10.78,21.69c.1,0,.17.07.27.09s0,0,0,0l-.27-.09s0,0,0,0A0,0,0,0,0,10.78,21.69Z"/><path id="Path_31943" data-name="Path 31943" class="cls-5" d="M11,21.61a1.37,1.37,0,0,1,.29.07,0,0,0,0,0,0,0,.8.8,0,0,0-.3-.06A0,0,0,1,0,11,21.61Z"/><path id="Path_31944" data-name="Path 31944" class="cls-5" d="M11.35,21.62l.15,0s0,0,0,0h-.15S11.33,21.62,11.35,21.62Z"/><path id="Path_31945" data-name="Path 31945" class="cls-5" d="M11.72,21.55s0,0,0,0,0,0,0,0h.06s0,0,0,0h0A.16.16,0,0,0,11.72,21.55Z"/><path id="Path_31946" data-name="Path 31946" class="cls-5" d="M11.1,20.48a.77.77,0,0,0-.48.2c-.1.13,0,.27.1.36a1.38,1.38,0,0,1,.32.5,2,2,0,0,1,0,1.1,2.07,2.07,0,0,0-.09.7.24.24,0,0,0,.22.24.8.8,0,0,0,.3-.09,1.34,1.34,0,0,1,.4-.06,0,0,0,0,0,0,0s0,0,0,0h-.28a.79.79,0,0,0-.26.08c-.09,0-.21.07-.26-.05a.74.74,0,0,1,0-.33,2.29,2.29,0,0,1,.07-.36,2.25,2.25,0,0,0,.06-.36,2,2,0,0,0,0-.65,1.57,1.57,0,0,0-.23-.55L10.79,21c0-.05-.13-.13-.09-.21s.15-.09.21-.12l.27-.05c.16,0,.32,0,.48,0a.06.06,0,0,0,0-.11A4.91,4.91,0,0,0,11.1,20.48Z"/><path id="Path_31947" data-name="Path 31947" class="cls-5" d="M16.48,20.25a5.71,5.71,0,0,1-1,.13.06.06,0,0,0,0,.11,7.28,7.28,0,0,0,1.31-.2,1.3,1.3,0,0,1,.89.07.79.79,0,0,1,.3.35,1,1,0,0,1,0,.3c0,.11,0,.23,0,.35s0,.42.05.64a1.46,1.46,0,0,1,0,.55c-.11.36-.56.41-.87.41s-.52-.06-.79-.06a2.67,2.67,0,0,0-.79.18s0,.09,0,.07a3.71,3.71,0,0,1,.64-.15A4.22,4.22,0,0,1,17,23a1.53,1.53,0,0,0,.82-.08.67.67,0,0,0,.39-.62c0-.22,0-.43,0-.64s0-.44,0-.66a1,1,0,0,0-.08-.41,1.05,1.05,0,0,0-.2-.27,1.07,1.07,0,0,0-.6-.22A3.34,3.34,0,0,0,16.48,20.25Z"/><path id="Path_31948" data-name="Path 31948" class="cls-5" d="M11.43,22.94a.52.52,0,0,0,.1.27v0l-.07-.11v0a1.67,1.67,0,0,0-.08-.2,0,0,0,0,0-.08,0l.09.23a.32.32,0,0,1,0,.14l-.05-.07a1,1,0,0,0-.08-.22h0a.22.22,0,0,0,0-.08s0,0,0,0,0,0,0,0h0a1.61,1.61,0,0,1,0,.22v0s0,0,0,0,0,0,0,0a.26.26,0,0,0,.07.19s0,0,.05,0h0a.61.61,0,0,0,.07.14s0,0,.05,0,0,0,0,0V23.4l.05,0a0,0,0,0,0,0,0h0a.32.32,0,0,0,0-.09s0,0,.06.05a0,0,0,0,0,.05,0s0,0,0-.05l0,0s0,0,0,0l0,0s0,0,0,0a.07.07,0,0,0,.06,0v0a.19.19,0,0,0,.13.05,0,0,0,0,0,0-.05h0a.11.11,0,0,0-.1-.11s0,0,0,0h0a.35.35,0,0,0-.1-.2,0,0,0,0,0-.07,0h0a0,0,0,1,0-.08,0l.06.15a.06.06,0,0,1,0,0s0,0-.05,0a1.06,1.06,0,0,0-.09-.25S11.42,22.89,11.43,22.94Z"/><path id="Path_31949" data-name="Path 31949" class="cls-5" d="M11.29,20.46l-.33,0a0,0,0,0,0,0,.05.58.58,0,0,0-.19,0,.06.06,0,0,0,0,.07l0,0h.18l0,0a0,0,0,0,0,0,.07h0l-.07,0a.05.05,0,0,0-.07,0,0,0,0,0,0,0,0l0,0a.08.08,0,0,0-.05.07s0,0,0,0a1.64,1.64,0,0,0,.3.35l.07.07s0,.07,0,.11l0,.08,0,0a.83.83,0,0,0,0,.35,1,1,0,0,0,.1.3l0,.41s0,0,0,0h0a0,0,0,0,0,0,0h0v-.11a.64.64,0,0,0,.15.31s.07,0,.07,0a.66.66,0,0,0,0-.14.19.19,0,0,0,.07.06.06.06,0,0,0,.07,0,.3.3,0,0,0,0-.13l.05,0a0,0,0,0,0,.06,0,.12.12,0,0,0,0-.08s0,0,0,0a1,1,0,0,0,0-.25.05.05,0,0,0,.07,0v-.12a.08.08,0,0,0,0-.05,1.12,1.12,0,0,0-.18-.56s0,0,0-.06a.06.06,0,0,0,.07,0h0a.38.38,0,0,0,0-.21.61.61,0,0,0-.08-.27,1.19,1.19,0,0,0-.09-.15.42.42,0,0,0-.11-.18l0,0h.07a.05.05,0,0,0,.05-.07.06.06,0,0,0-.06-.05Zm.08.8.05,0a1.13,1.13,0,0,0,.1.13v0a2.67,2.67,0,0,0,.09.26l0,.05h0l-.2-.42c0-.07-.13,0-.1,0l.09.2a.1.1,0,0,0,0,0l0-.09h0a.56.56,0,0,0,0-.12.08.08,0,0,0,0,0v0l-.06-.11a.11.11,0,0,0,.08,0,.86.86,0,0,0,.07.1Zm.31.84h0l0,0s0-.06,0-.09l0,0Zm-.44-.62a.19.19,0,0,0,0,.08v0a1.17,1.17,0,0,0,0-.11Zm-.1-.73h0Zm-.08.12,0,0,.08.08-.05,0,0,0S11.06,20.89,11.06,20.87Zm.26,1.39h0c0,.13.09.26.11.4A2.52,2.52,0,0,1,11.32,22.26Zm0-.52v0l0,.07,0,.06s.06.09.08.14l0,0a1.28,1.28,0,0,1-.11-.2A.41.41,0,0,1,11.34,21.74Zm.28.52h0a1.08,1.08,0,0,0,.08.19.45.45,0,0,1-.11-.19h0Zm-.22-1.64a.24.24,0,0,0,0,.12l-.08,0a.06.06,0,0,0-.08,0h0a0,0,0,0,0,0-.05.12.12,0,0,0-.05-.07.33.33,0,0,0,.14,0h.09s0,0,0,0A.08.08,0,0,0,11.4,20.62Zm-.47.19h0Zm.29,1.11a.8.8,0,0,1,0-.15,1.11,1.11,0,0,1,.08.3v0A1.33,1.33,0,0,1,11.22,21.92Zm.17.23a.64.64,0,0,1,0-.09v0a.61.61,0,0,0,.07.1,2.18,2.18,0,0,0,.09.23.48.48,0,0,1,.07.24.59.59,0,0,1-.1-.17,1,1,0,0,1-.09-.24s0,0,0,0Z"/><path id="Path_31950" data-name="Path 31950" class="cls-5" d="M11.3,22.92c-.06,0-.09.07,0,.14a.75.75,0,0,1,.07.18s0,.09,0,.14h0a0,0,0,0,1,0,0,.45.45,0,0,0,0-.23s0-.07,0-.1-.05-.08,0-.13Z"/><path id="Path_31951" data-name="Path 31951" class="cls-5" d="M11,20.52H10.9l-.33.07a6,6,0,0,0-.71.25l-.3.14-.13.09-.09,0a1,1,0,0,0-.36.22,1,1,0,0,0-.34.26c-.1.15-.12.5.11.57s.37-.27.45-.44a1.31,1.31,0,0,1,.26-.4,0,0,0,0,0,.07,0h0l.06,0a1,1,0,0,1,.34.13l0,0a1,1,0,0,0,.31.25.64.64,0,0,1,.1.13,1.48,1.48,0,0,0,.12.29,1.54,1.54,0,0,1,0,.17.08.08,0,0,0,0,.05,1.59,1.59,0,0,0,.14.57l.05.17a.86.86,0,0,0,.21.29.49.49,0,0,0,.27.15.4.4,0,0,0,.15,0c.06,0,.11,0,.17-.06s0-.08,0-.07l-.08,0-.12.05a.31.31,0,0,1-.28-.07.9.9,0,0,1-.21-.27.05.05,0,0,0,0-.05,1.55,1.55,0,0,0,0-.21,4.11,4.11,0,0,0,.24.39c0,.06.1,0,.09,0s-.09-.29-.13-.43a.83.83,0,0,0,.2.22s.1,0,.08-.05-.08-.19-.11-.28-.08-.18-.13-.27L11,22.23a.34.34,0,0,0,.24.07.05.05,0,0,0,.05-.06v0a.83.83,0,0,0-.07-.13h0s0,0,0-.06a.42.42,0,0,0-.08-.12s0,0,0,0a.12.12,0,0,0,0-.1h.08a.06.06,0,0,0,.06-.06s0,0,0,0a1.41,1.41,0,0,0-.22-.06l0,0h.12c.06,0,.08-.07,0-.1l-.07,0,0,0,.13-.05a.12.12,0,0,0,.06-.17v0h0a.05.05,0,0,0,0-.07.12.12,0,0,0-.09-.08.06.06,0,0,0,0,0l.15,0a.06.06,0,0,0,.05-.06.07.07,0,0,0,0-.05,1.58,1.58,0,0,0-.53,0l-.13,0H10.5l.18,0a1.48,1.48,0,0,0,.36-.1.06.06,0,0,0,0-.08l0,0h0a1.1,1.1,0,0,0,.26-.06.06.06,0,0,0,0-.07.08.08,0,0,0-.06,0A1.1,1.1,0,0,0,11,20.52Zm-.11,1.92a.07.07,0,0,0,0,0h0a.81.81,0,0,1-.17-.24l0-.1,0,0a1.43,1.43,0,0,0-.08-.22v0c.1.13.2.27.29.41ZM8.86,22l.05,0v0S8.87,22,8.86,22Zm0-.13v-.05l.06,0A.16.16,0,0,1,8.85,21.86Zm.92-.65a0,0,0,0,0,0,0h0Zm1.12,1.44,0,.15-.12-.21.09.06Zm.19-.51a.05.05,0,0,1,0,0L11,22.13s0,0,.06,0ZM11,21.82h0l-.19-.12.15,0a.33.33,0,0,1,.06.1Zm-.68-.39h0ZM9,21.82s0,0,0,0a.7.7,0,0,0,.06-.19l0-.06.08-.05C9.15,21.59,9.09,21.71,9,21.82Zm2-.6,0,0h0s0,0,0,0a.57.57,0,0,1-.18,0h-.07l-.1,0a.57.57,0,0,0-.29,0h0l.35,0h.31Z"/><path id="Path_31952" data-name="Path 31952" class="cls-5" d="M9.63,21.24a.94.94,0,0,0-.47.34s0,.07,0,.05a1.08,1.08,0,0,1,.47-.31.75.75,0,0,1,.54.15,4.81,4.81,0,0,1,.64.79,0,0,0,0,0,.07-.05,3.11,3.11,0,0,0-.71-.86A.79.79,0,0,0,9.63,21.24Z"/><path id="Path_31953" data-name="Path 31953" class="cls-5" d="M10.12,21.43a.62.62,0,0,0-.63,0,.23.23,0,0,0-.1.3.22.22,0,0,0,.3.1h0a.86.86,0,0,0,.18-.14.77.77,0,0,1,.25-.1h0a2,2,0,0,1,.52.48h0s0,0,0,0a1.48,1.48,0,0,0-.3-.36.7.7,0,0,0,.19.06.05.05,0,0,0,0-.09.71.71,0,0,0-.45-.18Zm-.59.14h0l.05,0,0,0Zm0,.15h.07l.05,0a.13.13,0,0,1-.12,0Z"/><path id="Path_31954" data-name="Path 31954" class="cls-5" d="M17.77,22.29a.22.22,0,0,0,0,.21.11.11,0,0,0,.08,0s0,.08,0,.12,0,.07-.06,0l-.12-.17a.05.05,0,0,0-.09.05s.08.17,0,.2-.12-.14-.13-.18a0,0,0,1,0-.09,0s0,.06,0,.09,0,.06,0,0a1.43,1.43,0,0,1-.08-.22,0,0,0,0,0-.06,0,.07.07,0,0,0,0,.05.57.57,0,0,1,0,.13s0,.12,0,.14-.16-.23-.17-.26a0,0,0,0,0-.07,0l0,0c0,.05,0,.17-.05.2s-.1-.11-.13-.12-.05,0-.07,0h0s0,.06,0,.09a.09.09,0,0,1,0,.05s0,0,0,0-.05-.12-.1-.17a0,0,0,0,0-.07,0v0a.27.27,0,0,1,0,.09v0h0a.35.35,0,0,0-.06-.14,0,0,0,0,0-.08,0c0,.05,0,.11,0,.16s-.07-.12-.08-.14a.05.05,0,0,0-.09,0s0,.11,0,.05a.17.17,0,0,0-.07-.14s0,0-.06,0a0,0,0,0,1,0,0c0,.08,0,.16,0,.23v0a.16.16,0,0,0,0-.07s-.06,0-.07,0v0a.25.25,0,0,0,0-.07,0,0,0,0,0,0,0h0a1.8,1.8,0,0,0-.1.4s0,0,0,0,0,0,0,0a.06.06,0,0,0,0,0,2.68,2.68,0,0,1,.07-.27,1.22,1.22,0,0,1,0,.27,0,0,0,0,0,.08,0l0-.16a.09.09,0,0,0,.06,0A0,0,0,0,0,16,23a.47.47,0,0,0,0-.16.09.09,0,0,0,.09.06h0l.06,0c0,.05.07.09.12.07a.11.11,0,0,0,.07-.08.07.07,0,0,0,.08.05s.08,0,.1-.07a.12.12,0,0,0,.09.09c.09,0,.12-.05.13-.13l0,.05a.16.16,0,0,0,.13,0,.11.11,0,0,0,.09-.12c.05.1.12.21.22.18a.14.14,0,0,0,.08-.1.14.14,0,0,0,.1.05.09.09,0,0,0,.09,0,.15.15,0,0,0,.14.05.12.12,0,0,0,.1-.11s0,0,0,0a.12.12,0,0,0,.16,0s0,0,0,0a.36.36,0,0,0,0-.25c.05,0,.08-.06,0-.09l-.07,0-.06-.11a0,0,0,0,0-.07,0Z"/><path id="Path_31955" data-name="Path 31955" class="cls-5" d="M17.31,21.44a.06.06,0,0,0-.09,0h0a1,1,0,0,0,0,.35c0,.05,0,.1,0,.15V22a.47.47,0,0,1-.09-.22,1.8,1.8,0,0,0-.06-.22.06.06,0,0,0-.11,0,5.83,5.83,0,0,1,0,.59h0a.53.53,0,0,1-.05-.18c0-.06,0-.11,0-.17a1,1,0,0,0-.08-.25.05.05,0,0,0-.08,0s0,0,0,0a.69.69,0,0,0,0,.25,1.85,1.85,0,0,1,0,.23s0-.05,0-.08a1.29,1.29,0,0,0-.1-.42.06.06,0,0,0-.08,0s0,0,0,0a1.28,1.28,0,0,0,0,.39,2.44,2.44,0,0,1,0,.27.54.54,0,0,1,0-.21,1,1,0,0,0-.07-.29.05.05,0,0,0-.1,0V22a.41.41,0,0,1,0,.24c-.05.07-.1-.1-.11-.12a1,1,0,0,0-.06-.25.05.05,0,0,0-.07,0l0,0a2.58,2.58,0,0,1,0,.38h0a.27.27,0,0,1,0-.12v-.27s0,0-.05,0a.05.05,0,0,0-.05,0,2.25,2.25,0,0,0,0,.58s.06,0,.06,0a.28.28,0,0,0,0-.09.08.08,0,0,0,.08,0,.21.21,0,0,0,.08-.18c0,.11.1.21.23.16a.18.18,0,0,0,.1-.15c0,.09.06.19.14.2a0,0,0,0,0,.06,0,.46.46,0,0,0,0-.28v0a.3.3,0,0,0,.08.16.07.07,0,0,0,.1,0l0,0a.29.29,0,0,0,0-.16v0c0,.08.1.29.21.18A.45.45,0,0,0,17,22a.22.22,0,0,0,.11.14c.13.06.16-.1.16-.19s0-.1,0-.15a.49.49,0,0,1,0-.12,1.08,1.08,0,0,1,0,.19.51.51,0,0,0,.13.29.08.08,0,0,0,.08,0,.2.2,0,0,0,.07-.09l.07,0a.11.11,0,0,0,.08,0,.35.35,0,0,0,.15.2.09.09,0,0,0,.07,0,.17.17,0,0,0,.06-.12h0a.45.45,0,0,0,0-.36.36.36,0,0,0,0-.14.08.08,0,0,0-.08-.06.08.08,0,0,0-.05.07h0a0,0,0,0,1,0,0,.08.08,0,0,0-.1,0s0,0,0,0a.72.72,0,0,0,.1.38h0a.67.67,0,0,1-.1-.34.06.06,0,0,0-.06-.06.07.07,0,0,0-.06.07v0a.17.17,0,0,0,0,.07.07.07,0,0,1,0,.05h0a.16.16,0,0,1-.08-.1c0-.07,0-.15,0-.2a.07.07,0,0,0-.07-.06.07.07,0,0,0-.05.07.88.88,0,0,0,0,.16V22a.77.77,0,0,1-.07-.26A.45.45,0,0,0,17.31,21.44Z"/><path id="Path_31956" data-name="Path 31956" class="cls-5" d="M17.4,20.55s0,.06-.06.08-.06,0-.08,0-.13,0-.15.11-.05,0-.06,0a.13.13,0,0,0-.1,0s-.05.05,0,.08a.31.31,0,0,1,.05.1s0,0-.05,0-.1-.11-.18-.08a0,0,0,0,0,0,.06.29.29,0,0,0,0,.09h0s0,0,0,0-.08-.11-.14-.13a0,0,0,0,0-.07,0v0c0,.08,0,.15.05.23s-.13-.17-.23-.21-.08,0-.07,0,.05.14.06.21L16.19,21a.32.32,0,0,0-.12-.11s-.05,0-.07,0a.16.16,0,0,0,0,.1A.19.19,0,0,0,16,21L15.94,21l-.1-.12a0,0,0,0,0-.06,0l0,0a.58.58,0,0,0,.05.14.42.42,0,0,1,0,.1.16.16,0,0,1-.06-.08l-.09-.13s-.08,0-.08,0,0,.1,0,.16,0,0-.05,0,0,0,0,0a.38.38,0,0,0,.08.17s0,0,.05,0,0,0,0,0a.86.86,0,0,0,0-.16.29.29,0,0,0,.16.15s0,0,.05,0a.14.14,0,0,0,0-.11.17.17,0,0,0,.15,0,0,0,0,0,0,0,0,.22.22,0,0,0,0-.12c.07.07.12.18.23.16a0,0,0,0,0,.05,0,.26.26,0,0,0,0-.15c.06.07.1.14.2.15s.05,0,.06,0a.26.26,0,0,0,0-.15s0,0,0,0a.3.3,0,0,0,.13.09c.05,0,.09,0,.1-.08a.09.09,0,0,0,0-.07l0,0a.13.13,0,0,0,.13.05c.07,0,.08-.07.07-.13h.06a.16.16,0,0,0,.08-.06s0-.08.05-.05a.12.12,0,0,0,.17,0h0a.47.47,0,0,1,.06-.09c0-.05.11-.05.17-.05a.06.06,0,0,0,0-.11A.38.38,0,0,0,17.4,20.55Z"/><path id="Path_31957" data-name="Path 31957" class="cls-5" d="M17,20.19h-.08l-.05,0h-.06a1,1,0,0,0-.24,0,1.32,1.32,0,0,0-.33.08l0,0-.11.05-.05,0a.05.05,0,0,0-.07,0h0v0l-.11,0a.07.07,0,0,0-.07,0l-.14,0-.05,0-.06,0-.07-.09s-.09,0-.06.05l0,.06s0,0,0,0a.28.28,0,0,0,.13.2,0,0,0,0,0,.06,0v0h0a.09.09,0,0,0,.11-.06.37.37,0,0,0,.14.07.05.05,0,0,0,.06,0s0,0,0,0h0a.11.11,0,0,0,.1,0,.05.05,0,0,0,0,0l.48-.07c.15,0,.3-.06.45-.09a.31.31,0,0,0,.2.07.12.12,0,0,0,.11-.09h.05s.09,0,.12,0h.11l.09.05a.05.05,0,1,0,.05-.09.78.78,0,0,0-.2-.11.67.67,0,0,0-.18-.07h0a.06.06,0,0,0,0-.09h0A1.33,1.33,0,0,0,17,20.19Z"/><path id="Path_31958" data-name="Path 31958" class="cls-5" d="M17.93,21.93a.56.56,0,0,0,0,.31,0,0,0,0,0-.07,0h0s0,0,0,0a.05.05,0,0,0-.08,0h0s-.06,0-.07,0v0l0,.14h0l0-.05s-.06,0-.09,0a.37.37,0,0,0,0,.11h0s-.05,0-.07,0,0,0,0,.06a.12.12,0,0,0-.13-.06.12.12,0,0,0-.09.1h0c-.09,0-.14,0-.16.09a.11.11,0,0,0-.14,0l0,0,0,.06c-.12,0-.24,0-.35,0a1.26,1.26,0,0,0-.51.11.06.06,0,0,0,0,.07l0,0h0c-.05,0-.05.08,0,.07a2.61,2.61,0,0,0,.69-.1s0,0,0,0l.18.05s0,0,.05,0a1.53,1.53,0,0,0,.37,0,0,0,0,0,0,.07,0l.41,0a0,0,0,0,0,.05-.05,0,0,0,0,0,0,0,.05.05,0,0,0,0,0h0a.35.35,0,0,0,.26-.19.12.12,0,0,0,.1,0,.23.23,0,0,0,.07-.1.07.07,0,0,0,.08,0,0,0,0,0,0,0,0c0-.09,0-.18,0-.27a.33.33,0,0,0-.1-.23.06.06,0,0,0-.07,0h0C18,21.88,18,21.89,17.93,21.93Zm0,.4v0a.28.28,0,0,1-.06.18h0v-.07s0,0,0-.06A.2.2,0,0,0,17.9,22.33Zm-.49.26v0h0v0h0Zm-.22,0h0s0,0,0,0v0h0Z"/><path id="Path_31959" data-name="Path 31959" class="cls-5" d="M17.68,20.39a.09.09,0,0,0-.07,0h0a.05.05,0,0,0-.08,0l0,0a.86.86,0,0,0,0,.16l-.07-.08a.06.06,0,0,0-.09,0s0,0,0,0a.29.29,0,0,0,0,.18.65.65,0,0,1,0,.13h0l0,0c-.05-.1-.1-.2-.16-.3s-.13,0-.12,0a1.51,1.51,0,0,0,.2.45h0l0,0,0,0a.72.72,0,0,0-.12-.21.06.06,0,0,0-.09,0l0,0L17,21a.29.29,0,0,0-.15-.14H16.8l-.08,0a.06.06,0,0,0,0,.07s0,0,0,0a.07.07,0,0,0,0,.08,1.43,1.43,0,0,0,.08.22h0l0,0-.06-.16a1,1,0,0,0-.1-.17.06.06,0,0,0-.08,0,.07.07,0,0,0,0,.06h0a.06.06,0,0,0-.08.05.06.06,0,0,0,0,0l0,0a.06.06,0,0,0-.08,0,.08.08,0,0,0,0,0,.36.36,0,0,0,0-.09.06.06,0,0,0-.09,0l0,0a.4.4,0,0,0,0,.19l0,0h-.06L15.87,21c0-.06-.1,0-.1,0a.31.31,0,0,0,0,.1,0,0,0,0,0-.07,0,0,0,0,0,0,0,0,.43.43,0,0,0,0,.16s0,0,0,0a.69.69,0,0,0,0,.35.14.14,0,0,0-.05.1.42.42,0,0,0,.08.36,0,0,0,0,0,.07,0,.36.36,0,0,0,.05-.27h0A.33.33,0,0,0,16,22l0,0a.08.08,0,0,0,.08,0s0,0,0,0a.18.18,0,0,0,.15.08c.1,0,.09-.2.09-.27s.11,0,.15,0h0c.07,0,.11,0,.13-.1v0h.05a.15.15,0,0,0,.06-.05c0,.05.05.09.07.13s.12.16.21.16.07-.13.07-.19h0a.24.24,0,0,0,.11.06c.06,0,.1,0,.12-.08h0c.07,0,.07-.11.05-.19l.05.05c.05,0,.17.11.22,0l0,0a.21.21,0,0,0,.1,0,.24.24,0,0,0,.14.09l.06,0v0h0c.09-.05.09-.17.07-.27s0-.06,0-.1l0,0c.09-.18-.05-.39-.1-.56a1.09,1.09,0,0,0-.1-.25.29.29,0,0,0-.18-.18Zm-.26.61h0c0,.06,0,.11.07.16L17.42,21Zm.36.22v0L17.71,21a.06.06,0,0,1,0,0,.59.59,0,0,1,0,.08c0,.09.07.18.09.27v0l-.06-.11Zm-.35.12.15.23a0,0,0,0,1,0,0,.28.28,0,0,1-.1-.09l-.07-.09a.71.71,0,0,0,0-.14Zm-.89.4v0h0v0Zm.37,0h0s0,0,0,0A.05.05,0,0,0,16.91,21.72Zm-.5.09a.46.46,0,0,1-.07-.07.28.28,0,0,0,0-.09l.05.1s0,0,0,.05Zm-.19.05a.85.85,0,0,1,0-.17v0l0,.06a.22.22,0,0,1,0,.08v0Zm-.5.18a.47.47,0,0,1,0-.16.34.34,0,0,1,0-.1h0A1,1,0,0,1,15.72,22Z"/><path id="Path_31960" data-name="Path 31960" class="cls-5" d="M16.33,19.92a3.57,3.57,0,0,0-.92.12.07.07,0,0,0,0,.07h0a.06.06,0,0,0,0,.06h0s-.06.12,0,.13h.07v0l0,0,0,0,.59-.06h0l.25,0a.07.07,0,0,0,.06,0l.31,0,0,0h.43a1.61,1.61,0,0,0,.38,0h0l.07.11a.68.68,0,0,1,.11.31s0,.07.08.06a.06.06,0,0,0,.06-.07,1,1,0,0,0-.18-.63.52.52,0,0,0-.53-.13.45.45,0,0,0-.23,0C16.81,19.92,16.57,19.91,16.33,19.92Zm1.13.13a.14.14,0,0,0,0,.06h-.1a.08.08,0,0,0,0-.05l.06,0s0,0,0,0h.06S17.45,20,17.46,20.05Z"/><path id="Path_31961" data-name="Path 31961" class="cls-5" d="M17.78,20.21a.71.71,0,0,1,.08.18c0,.05,0,.11,0,.16l0,0s0,0,0,.06.09.1.11,0a.41.41,0,0,0,0-.27.7.7,0,0,0-.12-.28.06.06,0,0,0-.09,0A.07.07,0,0,0,17.78,20.21Z"/><path id="Path_31962" data-name="Path 31962" class="cls-5" d="M18,21.5a.28.28,0,0,1,0,.15.88.88,0,0,0,0,.16,1.76,1.76,0,0,1,.07.4c0,.22,0,.54-.23.66a.92.92,0,0,1-.29,0l-.34,0h0a1.93,1.93,0,0,0-.48,0,2.31,2.31,0,0,0-.94.07s-.06,0-.06.08h0v0l-.07,0c-.07,0,0,.12,0,.12a1.34,1.34,0,0,0,.35-.05l.22,0h0l1.2-.09s.06,0,.06-.05l.17,0a.47.47,0,0,0,.31-.12.93.93,0,0,0,.23-.76,2.14,2.14,0,0,0-.08-.44,1.23,1.23,0,0,1,0-.19.32.32,0,0,0-.09-.17C18,21.3,17.88,21.43,18,21.5Z"/><path id="Path_31963" data-name="Path 31963" class="cls-5" d="M17.58,20a.86.86,0,0,1,.31.46,3.58,3.58,0,0,1,.2.71,2.23,2.23,0,0,1,0,1.42.09.09,0,0,0,0,.09.08.08,0,0,0,.09,0,2.32,2.32,0,0,0,.08-1.56,5,5,0,0,0-.22-.75.89.89,0,0,0-.39-.5C17.55,19.79,17.48,19.94,17.58,20Z"/><path id="Path_31964" data-name="Path 31964" class="cls-5" d="M11.91,23.37l-.17,0-.5,0a.06.06,0,0,0-.05.06h0a.05.05,0,0,0,0,.05.06.06,0,0,0,.06.06,4.58,4.58,0,0,0,.66-.08c.08,0,.08-.12,0-.13Z"/><path id="Path_31965" data-name="Path 31965" class="cls-5" d="M18.15,22.18a1.13,1.13,0,0,0,0,.32.47.47,0,0,1-.1.34.45.45,0,0,1-.24.14l-.37,0a.06.06,0,0,0-.06.06s0,0,0,0,0,0,0,0h0l.38,0H18A0,0,0,0,0,18,23a.49.49,0,0,0,.14-.11.77.77,0,0,0,.08-.75.06.06,0,0,0-.07,0S18.15,22.16,18.15,22.18Z"/><path id="Path_31966" data-name="Path 31966" class="cls-5" d="M17.1,19.84c-.17,0-.34.06-.51.09-.37.06-.74.08-1.11.13a0,0,0,0,0,0,0,.07.07,0,0,0,.05,0,9.81,9.81,0,0,0,1.08-.08c.17,0,.34-.07.51-.09l.54,0s.06,0,.06-.07,0-.06-.07-.06Z"/></g><path id="Path_31967" data-name="Path 31967" class="cls-5" d="M12.18,20.8a1.25,1.25,0,0,1,.25.09.16.16,0,0,1,0-.07l-.24-.08S12.14,20.79,12.18,20.8Z"/><path id="Path_31968" data-name="Path 31968" class="cls-5" d="M12.33,20.58l.25.1.07,0-.3-.11S12.3,20.57,12.33,20.58Z"/><path id="Path_31969" data-name="Path 31969" class="cls-5" d="M12.75,20.36l.29.14.06,0h0a2.11,2.11,0,0,1-.34-.16S12.72,20.34,12.75,20.36Z"/><path id="Path_31970" data-name="Path 31970" class="cls-5" d="M12.22,23.23a1.26,1.26,0,0,0,.39.22s0,0,0,0a0,0,0,0,0,0,0,1.72,1.72,0,0,1-.37-.22S12.19,23.2,12.22,23.23Z"/><path id="Path_31971" data-name="Path 31971" class="cls-5" d="M12.24,23l0,0a1.71,1.71,0,0,0,.35.21,3.1,3.1,0,0,0,.45.21s0,0,0-.05a9.16,9.16,0,0,1-.82-.43A0,0,0,0,0,12.24,23Z"/><path id="Path_31972" data-name="Path 31972" class="cls-5" d="M13.13,23.23l.09.05-.05,0h0Z"/><path id="Path_31973" data-name="Path 31973" class="cls-5" d="M12.48,22.77h-.06a0,0,0,0,0,0,0s0,0,0,0h.06A.06.06,0,0,1,12.48,22.77Z"/><path id="Path_31974" data-name="Path 31974" class="cls-5" d="M14.26,23H14.2a1.92,1.92,0,0,0,.36.14s0,0,0-.06L14.3,23Z"/><path id="Path_31975" data-name="Path 31975" class="cls-5" d="M14.45,23a1.34,1.34,0,0,0,.39.16s0,0,0,0a0,0,0,0,0,0,0l-.33-.14Z"/><path id="Path_31976" data-name="Path 31976" class="cls-5" d="M14.73,22.8a.34.34,0,0,0,.19.09,0,0,0,0,0,0-.05.51.51,0,0,1-.16-.09Z"/><path id="Path_31977" data-name="Path 31977" class="cls-5" d="M14.13,20.35a.17.17,0,0,1,.1.06l.13,0-.19-.1h0Z"/><path id="Path_31978" data-name="Path 31978" class="cls-5" d="M14.62,20.42l.06,0a.24.24,0,0,1,.13.07l0,0h0l-.23-.15S14.59,20.4,14.62,20.42Z"/><path id="Path_31979" data-name="Path 31979" class="cls-5" d="M14.9,20.35a0,0,0,0,0,0,0H15l0,0a0,0,0,0,0,0,0h0A.05.05,0,0,0,14.9,20.35Z"/><path id="Path_31980" data-name="Path 31980" class="cls-5" d="M7.21,21.84c.1,0,.12.17.21.23s.06,0,0,0-.12-.19-.23-.23S7.19,21.83,7.21,21.84Z"/><path id="Path_31981" data-name="Path 31981" class="cls-5" d="M7.35,21.78s.06.08.11.1L7.6,22s.05,0,0,0a.44.44,0,0,0-.14-.13l-.12-.12A0,0,0,1,0,7.35,21.78Z"/><path id="Path_31982" data-name="Path 31982" class="cls-5" d="M7.57,21.77l.21.13s0,0,0,0,0,0,0,0h0l-.19-.13S7.55,21.76,7.57,21.77Z"/><path id="Path_31983" data-name="Path 31983" class="cls-5" d="M7.85,21.74a.28.28,0,0,0,.13.07,0,0,0,1,0,0,0l-.11-.06a0,0,0,0,0,0,0A0,0,0,0,0,7.85,21.74Z"/><path id="Path_31984" data-name="Path 31984" class="cls-5" d="M6.57,21.4a.06.06,0,0,0,0,.08h0c.07,0,.13,0,.19-.06a.46.46,0,0,1,.23.05c.09,0,.17.09.27.12s.08-.08,0-.09l-.16-.09A.64.64,0,0,0,7,21.34.43.43,0,0,0,6.57,21.4Z"/><g id="Group_6646" data-name="Group 6646"><path id="Path_31985" data-name="Path 31985" class="cls-5" d="M18.73,23.11c-.13.11-.24.27-.41.27h0l-1.61.11c-.54,0-1.07.11-1.61.16s-1.07.1-1.61.13c-.26,0-.53,0-.79.05l-.8.08h-.4a.09.09,0,0,0-.08,0,2.14,2.14,0,0,1-.43-.07,3.56,3.56,0,0,1-.47-.05,3.64,3.64,0,0,1-.47-.14c-.17-.06-.33-.09-.5-.14-.34-.09-.68-.18-1-.25L8,23.14a2.09,2.09,0,0,0-.51-.09h0a.07.07,0,0,0,0,.08l0,0a2.27,2.27,0,0,0,.51.14l.52.11c.35.08.7.18,1,.27.17,0,.34.09.5.15l.47.14A3.91,3.91,0,0,0,11,24l.22,0h0l.06,0a2.36,2.36,0,0,0,.75,0l.8-.08.79,0c.78,0,1.56-.12,2.33-.21s1.63-.1,2.44-.19a.06.06,0,0,0,.06,0,.75.75,0,0,0,.47-.3C18.92,23.17,18.82,23,18.73,23.11Z"/><path id="Path_31986" data-name="Path 31986" class="cls-5" d="M7.35,21.57a2.81,2.81,0,0,0,.49-.16l.5-.18,1-.39c.16-.07.32-.13.47-.21a3.49,3.49,0,0,1,.44-.2,3.81,3.81,0,0,1,.45-.13,3.38,3.38,0,0,1,.42-.13.08.08,0,0,0,.07-.05,2.57,2.57,0,0,1,.4-.05l.8-.05.78-.09c.54-.06,1.08-.09,1.61-.14s1.07-.06,1.61-.11L18,19.52h0c.18,0,.31.11.46.18s.17-.09.09-.15a.76.76,0,0,0-.5-.21l-.06,0c-.82.06-1.63.18-2.44.23s-1.55.09-2.33.18l-.78.08c-.26,0-.54,0-.81.06a2.93,2.93,0,0,0-.73.12l-.06,0h0l-.21.08c-.16,0-.31.07-.46.12a3.55,3.55,0,0,0-.44.21c-.15.08-.31.14-.46.21-.33.14-.66.29-1,.42l-.5.19a2.14,2.14,0,0,0-.47.2.06.06,0,0,0,0,.09l0,0Z"/><path id="Path_31987" data-name="Path 31987" class="cls-5" d="M6.16,21.4a.39.39,0,0,0-.2.39c0,.19,0,.39,0,.58A4.21,4.21,0,0,0,6.1,23c0,.06.1,0,.09,0a5.33,5.33,0,0,1-.09-1,.63.63,0,0,1,0-.36c.06-.15.22-.13.33-.05s.07,0,.09,0a.06.06,0,0,0,0-.09A.31.31,0,0,0,6.16,21.4Z"/></g><g id="Group_1096" data-name="Group 1096"><g id="Group_1090" data-name="Group 1090"><path id="Path_8924" data-name="Path 8924" class="cls-5" d="M14.35,21.46a.79.79,0,0,1,0,.4.78.78,0,0,1-.16,1.1A.8.8,0,0,1,13,22.8a.78.78,0,0,1-.09-.78.78.78,0,0,1,.11-1.11.79.79,0,0,1,1.11.12l0,0A.75.75,0,0,1,14.35,21.46Zm-.08.4h0a.76.76,0,0,0-1.4-.6A.75.75,0,0,0,13,22s0,0,0,0a.77.77,0,1,0,1.31-.16Z"/></g><g id="Group_1091" data-name="Group 1091"><path id="Path_8925" data-name="Path 8925" class="cls-5" d="M13.84,22.51a.25.25,0,0,1,0,.07v0h-.07v.07h.07a.08.08,0,0,1,0,.07h0l-.53.07,0-.1v-.05l-.05,0,.05-.1s0,0,0,0Zm-.05.1-.35,0v.06l.35,0Zm0-.54.07-.09a0,0,0,0,1,0,0v.14l.17,0a.16.16,0,0,1,0,.08v0l-.18,0,0,.28h0l0-.29-.14,0v-.13s0,0,0,0l.11,0v0Zm0,.33a.08.08,0,0,1,0,.07h0l-.38.05,0-.11v0h-.11v-.14s0,0,0,0l.08.07,0-.15,0,0,.06-.09a0,0,0,0,1,0,0l.27,0a.2.2,0,0,1,0,.08h0l0,.11c.06,0,.13.08.18.24h0a.31.31,0,0,0-.16-.16v.07Zm-.29,0h.1v-.09l-.11,0Zm.23-.1h-.11v.08h.11Zm0-.19h-.12l0,.09h.11Zm-.24.12h.11v-.09h-.11Z"/></g><g id="Group_1092" data-name="Group 1092"><path id="Path_8926" data-name="Path 8926" class="cls-5" d="M13.29,21.2a1,1,0,0,1,.07-.12,0,0,0,0,1,0,0l0,.16a.65.65,0,0,1,.31.08c.09-.36.23-.26.2-.17a1.71,1.71,0,0,0-.13.23.79.79,0,0,1,.22.4h0a.75.75,0,0,0-.24-.32,2.33,2.33,0,0,0-.07.25l-.23-.06,0,.18h0l0-.19-.24-.05,0-.14s0,0,0,0l.19,0,0-.18h-.11v-.15s0,0,0,0h0Zm.15.36.23.06a.9.9,0,0,1,0-.18.68.68,0,0,0-.28-.07Z"/></g><g id="Group_1093" data-name="Group 1093"><path id="Path_8927" data-name="Path 8927" class="cls-5" d="M14.48,21.45a1,1,0,0,1,0,.39.91.91,0,1,1-1.55,1,1.11,1.11,0,0,1-.13-.36h0a1.09,1.09,0,0,1,0-.4.91.91,0,1,1,1.68-.59Zm-.1.4h0a.7.7,0,0,0,0-.38.85.85,0,0,0-.94-.76.87.87,0,0,0-.76.95h0a1,1,0,0,0,.13.37s0,0,0,0a.85.85,0,1,0,1.66.18h0a.92.92,0,0,0-.13-.36Z"/></g><g id="Group_1095" data-name="Group 1095"><g id="Group_1094" data-name="Group 1094"><path id="Path_8928" data-name="Path 8928" class="cls-5" d="M14.88,22.28h0v0h0s0,0,0,0l-.16,0h0s0,0,0,0v0a.14.14,0,0,1,0-.06s0,0,.05,0h0s0,0,0,0,0,0,0,0h0a.05.05,0,0,1,0,0A.17.17,0,0,1,14.88,22.28Zm-.05,0h0v0s0,0,0,0h0a0,0,0,0,0,0,0v0Zm-.09,0v0s0,0,0,0h0a0,0,0,0,0,0,0v0Z"/><path id="Path_8929" data-name="Path 8929" class="cls-5" d="M14.71,22.11a0,0,0,0,1,0,0h0V22h0a0,0,0,0,1,0,0s0,0,0,0v.07h0V22h0s0,0,0,0v.06h0V22h.05v.12a0,0,0,0,1,0,0h-.15Z"/><path id="Path_8930" data-name="Path 8930" class="cls-5" d="M14.71,21.9a.05.05,0,0,1,0,0h0v-.11h0s0,0,0,0h0v.07h0v-.08h0v.08h0v-.09h0s0,0,0,0v.1s0,0,0,0h0Z"/><path id="Path_8931" data-name="Path 8931" class="cls-5" d="M14.77,21.61h.08v0h0l-.16,0h0a0,0,0,0,1,0,0,0,0,0,0,1,0,0,.09.09,0,0,1,0-.07.07.07,0,0,1,0,0h0l0,0,0,0s0,0,0,0h0a0,0,0,0,1,0,0v0h0l0,.05Zm0,0,0,0h0a0,0,0,0,0,0,0,0,0,0,0,0,0,0h.06Z"/><path id="Path_8932" data-name="Path 8932" class="cls-5" d="M14.65,21.27h.07a0,0,0,0,1,0,0,.11.11,0,0,1,0,.07v0s0,0,0,0l0,0-.12,0h0v0h0l.1,0,0,0a0,0,0,0,0,0-.05h0l-.12.05h0v0h0Z"/></g></g><circle id="Ellipse_83" data-name="Ellipse 83" class="cls-5" cx="14.74" cy="22.5" r="0.06"/><circle id="Ellipse_84" data-name="Ellipse 84" class="cls-5" cx="14.57" cy="21.12" r="0.06"/></g></g><g id="Group_6648" data-name="Group 6648"><path id="Path_31988" data-name="Path 31988" class="cls-7" d="M19.83,22.66a1.07,1.07,0,0,0-.63-.14,3.06,3.06,0,0,0-2,.73l-.18.17h0a1.31,1.31,0,0,0-.53-.34l-.09,0a.45.45,0,0,0-.31-.18A17.17,17.17,0,0,0,14,22.7c-.38,0-.77,0-1.16,0l-.52,0a1.22,1.22,0,0,0-.26.06,1.18,1.18,0,0,0-.33-.43,2.88,2.88,0,0,0-.35-.26,1.72,1.72,0,0,0-.49-.24,1.18,1.18,0,0,0-.42-.05l-.26,0h-.05l0,0a.54.54,0,0,0-.29-.15.48.48,0,0,0-.26.07.42.42,0,0,0-.16.53.62.62,0,0,0,.25.3,2.56,2.56,0,0,1,.2.26h0l0,.05s.05.08.07.13,0,.07.05.1a.43.43,0,0,0-.2.32.45.45,0,0,0,.39.46l.2,0h0l.08,0,.38.15a4.93,4.93,0,0,0,.73.27,1.73,1.73,0,0,0,.75,0,1.08,1.08,0,0,0,.51-.23,2.44,2.44,0,0,0,.81.11.44.44,0,0,0,.31-.09v0a14.91,14.91,0,0,0,2.41.1.42.42,0,0,0,0,.1.7.7,0,0,0,.84.45l.28-.08.27,0H18a1.78,1.78,0,0,0,.65-.06,1,1,0,0,0,.43-.36c.07-.11.12-.23.2-.34a.21.21,0,0,1,0-.06h0s0,0,0,0h0s0,0,0,0h0l.12-.05a.9.9,0,0,0,.49-.45A.62.62,0,0,0,19.83,22.66Z"/><path id="Path_31989" data-name="Path 31989" class="cls-7" d="M19.4,23.89h0l0,0Z"/></g><path id="Path_31990" data-name="Path 31990" class="cls-7" d="M20.21,20.77a.38.38,0,0,0-.47-.25.59.59,0,0,1,0-.13v-.06h0v-.18a.69.69,0,0,0-.25-.6.67.67,0,0,0-.41-.11h0a.37.37,0,0,0-.23-.1H18.7a1.17,1.17,0,0,0-.26-.1.57.57,0,0,0-.34.07l-.36-.06h0a.24.24,0,0,0-.12,0,.09.09,0,0,0-.06,0,.11.11,0,0,0-.15,0,.06.06,0,0,0,0,0,.14.14,0,0,0,0,.09.83.83,0,0,0,.2.22.11.11,0,0,0,.14,0l.11,0a.58.58,0,0,0,0,.39.66.66,0,0,0-.26.46.81.81,0,0,0,.13.48,2.77,2.77,0,0,0,.22.37,1.14,1.14,0,0,0,.77.43,2.08,2.08,0,0,0,.86,0,1,1,0,0,0,.68-.69A.5.5,0,0,0,20.21,20.77Z"/><path id="Path_31991" data-name="Path 31991" class="cls-5" d="M18.86,20.4c-.2.18-.4.37-.61.54A.23.23,0,0,1,18,21a1.06,1.06,0,0,0-.35-.09.16.16,0,0,0-.17.15.16.16,0,0,0,.14.18,1.64,1.64,0,0,1,.38.1.53.53,0,0,0,.39-.08,2.69,2.69,0,0,0,.32-.27l.36-.32C19.23,20.52,19,20.27,18.86,20.4Z"/><path id="Path_31992" data-name="Path 31992" class="cls-5" d="M12.12,22.64A1.43,1.43,0,0,0,11,21.81a.81.81,0,0,1-.37-.12c-.13-.07-.26-.16-.38-.24a1.65,1.65,0,0,0-.36-.22.4.4,0,0,0-.38.16,1.42,1.42,0,0,0-.38.81c0,.21.29.23.32,0a1.15,1.15,0,0,1,.12-.37.94.94,0,0,1,.12-.18l.06-.06.07-.06h0l.11.07.21.14h0a.19.19,0,0,0,.11.16l.88.43a2.85,2.85,0,0,1,.72.46.18.18,0,0,0,.24,0,.16.16,0,0,0,0-.19Z"/><g id="Group_6664" data-name="Group 6664"><g id="Group_6649" data-name="Group 6649"><path id="Path_31993" data-name="Path 31993" class="cls-5" d="M24.81,24.5s0-.06-.13-.25c-.36-.48-.19-.65-.26-.87s-.33.05-.13.64C24.44,24.45,24.75,24.59,24.81,24.5Z"/></g><g id="Group_6650" data-name="Group 6650"><path id="Path_31994" data-name="Path 31994" class="cls-5" d="M25.92,24.76a.05.05,0,0,0,.07-.05.07.07,0,0,0,0-.05,3,3,0,0,1-.79-1.2c0-.1-.19,0-.16.06A2,2,0,0,0,25.92,24.76Z"/></g><g id="Group_6651" data-name="Group 6651"><path id="Path_31995" data-name="Path 31995" class="cls-5" d="M26.21,23.09c-.2.1.65,1.24,1.3,1.39,0,0,.07,0,.08,0s0-.12-.25-.25a2.56,2.56,0,0,1-.88-.85C26.42,23.26,26.29,23.05,26.21,23.09Z"/></g><g id="Group_6663" data-name="Group 6663"><g id="Group_6652" data-name="Group 6652"><path id="Path_31996" data-name="Path 31996" class="cls-5" d="M24.69,22.62a.12.12,0,0,0-.1.15h0a.12.12,0,0,0,.14.1h0c1.41-.28,2.29-1.4,3.14-2.48a8.35,8.35,0,0,1,1.77-1.84c1.3-.93,2.77-1.25,6.23-4A4.09,4.09,0,0,1,34.57,17c-1.32.63-2.22,1.12-3.47,1.82a.09.09,0,0,0,0,.13.08.08,0,0,0,.11,0,8.5,8.5,0,0,0,3.43-1.82c1.47-.69,2.62-1.12,2.94-1.25s.44-.18.55-.08c.33.31-.61,1-1,1.23-.76.5-1.05.43-1,.64a.14.14,0,0,0,.12.11h0a7.46,7.46,0,0,0,.94-.33,1.49,1.49,0,0,1-.39.57,4,4,0,0,1-1.55,1,9,9,0,0,1-3.9.7,8.46,8.46,0,0,1-.87-.05.11.11,0,1,0,0,.21c.28.05.55.11.83.14a8.8,8.8,0,0,0,2.66-.22c.13.2,2.77-.55,3.89-1.17.14-.08.33-.18.44-.11s-.18.61-.35.79a4.88,4.88,0,0,1-2,1.25,17.69,17.69,0,0,0-2.52.18.16.16,0,0,0-.18.11.15.15,0,0,0,.11.17h0a5.53,5.53,0,0,0,2.52-.22c1.13,0,1.46,0,1.62.15s.14,0,.09-.09c-.28-.29-.49-.31-1.07-.32A6,6,0,0,0,38,19.57c.23-.21.56-.5.53-.83a.38.38,0,0,0-.26-.34.67.67,0,0,0-.48.1,16.25,16.25,0,0,1-2.46.95,5,5,0,0,0,1.25-.7,1.84,1.84,0,0,0,.53-.58,2.45,2.45,0,0,0,.26-.73.09.09,0,0,0,0-.07A3,3,0,0,0,38,16.8c.19-.21.44-.51.37-.82a.41.41,0,0,0-.24-.3.64.64,0,0,0-.45,0c-.88.33-1.78.72-2.7,1.14a4.67,4.67,0,0,0,1.18-2.5.12.12,0,0,0-.11-.13.08.08,0,0,0-.08,0c-1.19.81-2.28,1.66-3.71,2.48-.4.23-.82.45-1.23.67-2.59,1.4-2.55,2-4,3.68A4.25,4.25,0,0,1,24.69,22.62Zm9.37-5.15a7.77,7.77,0,0,1-2,1.05C32.65,18.17,33.32,17.82,34.06,17.47Z"/></g><g id="Group_6653" data-name="Group 6653"><path id="Path_31997" data-name="Path 31997" class="cls-5" d="M37.49,21.23s0,0,0,0S37.5,21.23,37.49,21.23Z"/></g><g id="Group_6654" data-name="Group 6654"><path id="Path_31998" data-name="Path 31998" class="cls-5" d="M37.49,21.27a0,0,0,0,0,0,0h0l0,0h0a0,0,0,0,0,0,0h0l0,0Zm0-.07a0,0,0,0,1,0,.06h0s0,0,0,0Z"/></g><g id="Group_6655" data-name="Group 6655"><path id="Path_31999" data-name="Path 31999" class="cls-5" d="M37.38,21.26a.85.85,0,0,1-.39.25s0,0,0,.06a0,0,0,0,0,0,0,.85.85,0,0,0,.46-.28,0,0,0,1,0-.08-.06Z"/></g><g id="Group_6656" data-name="Group 6656"><path id="Path_32000" data-name="Path 32000" class="cls-5" d="M34.13,25.24c.63-.14.72-.62.34-1.11.82.05,2.4-.17,2.09-.92-.12-.27-.48-.39-.81-.48A6.46,6.46,0,0,0,37,22.37a.06.06,0,0,0,0-.07.05.05,0,0,0-.07,0h0a5.79,5.79,0,0,1-1.57.37,5.93,5.93,0,0,0-1.83-.13.11.11,0,0,0-.1.12.11.11,0,0,0,.09.1,5.69,5.69,0,0,0,1.65.09,3.53,3.53,0,0,1,1.08.36.23.23,0,0,1,.07.32.27.27,0,0,1-.07.08,3.39,3.39,0,0,1-2.11.22,1.77,1.77,0,0,0-1.25-.38.15.15,0,0,0-.14.17.17.17,0,0,0,.08.12,4.19,4.19,0,0,0,1.29.39c.26.2.54.62.28.82a.48.48,0,0,1-.33.07,3.52,3.52,0,0,1-1-.1,1.68,1.68,0,0,0-1.25-.51c-.16,0-.17.21-.06.28a3.9,3.9,0,0,0,1.17.5c.65.77-.14.9-1.17.38a.55.55,0,0,0-.18-.16A1.49,1.49,0,0,0,31,25a.13.13,0,0,0-.17.05.14.14,0,0,0,0,.18,3.23,3.23,0,0,0,.63.47c.38.74-.86,1.46-1.66.18l-.11-.2a.16.16,0,0,0-.19-.06h0a.17.17,0,0,0-.08.23l.07.13a.75.75,0,0,1,.12.56.44.44,0,0,1-.39.28c-.46.07-.8-.34-1.07-.74-.1-.14-.36,0-.28.14a1,1,0,0,1,.15.71c-.14.49-.94.2-1.39-.26,0-.32-.33-.51-.44-.36s0,.15.07.28l.1.15c0,.21-.28.41-.64.3a.08.08,0,0,0,.06-.09v0a5.47,5.47,0,0,1-.5-1.51.45.45,0,0,0,.16-.2,1.24,1.24,0,0,0,1.08.23,5.28,5.28,0,0,0,1,1.43c.06,0,.16,0,.12-.1-.16-.27-.36-.51-.53-.77a6.6,6.6,0,0,1-.36-.64A.52.52,0,0,0,27,25a1.64,1.64,0,0,0,.29.16c.8.39,1.15.06,1.16-.33v-.06a.75.75,0,0,0,1-.23.71.71,0,0,0,.11-.55c.7.22,1.41-.21,1.24-.81,1.08.12,1.64-.61,1.41-1.12a.86.86,0,0,0,.75-.67c.08-.41-.16-1-1-.81a.06.06,0,0,0-.06.08c0,.08.07.08.11.09a1.16,1.16,0,0,1,.51.18c.28.22.12.85-.62.84a.55.55,0,0,0-.22,0,.16.16,0,0,0-.12.18.15.15,0,0,0,.12.12l.19,0c.18.11.2.43-.19.66a1.48,1.48,0,0,1-.54.17,2.45,2.45,0,0,1-.54,0l-.08-.05c-.15-.07-.28.17-.13.25s.17.49-.21.6a1,1,0,0,1-.74-.07,1.14,1.14,0,0,0-.15-.23.14.14,0,0,0-.17,0,.14.14,0,0,0-.07.14.64.64,0,0,0,.17.3.58.58,0,0,1-.14.71c-.3.21-.69-.07-.95-.34a.16.16,0,0,0-.22,0,.13.13,0,0,0,0,.19h0l0,0a.7.7,0,0,1,.23.45.25.25,0,0,1-.08.18c-.17.14-.57,0-.78-.12l-.45-.26c-.09-.05-.19,0-.15.07a.75.75,0,0,0,.07.12c0,.26-.22.3-.4.34a.87.87,0,0,1-.84-.22,1.6,1.6,0,0,1-.26-.38.12.12,0,0,0-.16-.06.11.11,0,0,0-.07.13.93.93,0,0,0,.2.41c0,.15-.2.18-.41,0a1.32,1.32,0,0,1-.56-.67.14.14,0,0,0-.19-.06.13.13,0,0,0-.06.17,1.53,1.53,0,0,0,.11.27.26.26,0,0,1-.12.31c-.23.1-.5-.31-.64-.51s-.19-.28-.23-.27a.05.05,0,0,0,0,0,1.14,1.14,0,0,0,.8,1,.46.46,0,0,0,.46-.27,1,1,0,0,0,.66.35A3,3,0,0,0,25.62,27a2.19,2.19,0,0,1-.94-.94v0c-.08-.15-.31,0-.26.12a.9.9,0,0,1,.07.68c-.14.29-.55.19-.84-.45a1.29,1.29,0,0,0-.17-.92.1.1,0,0,0-.12-.06.1.1,0,0,0-.07.1v.2a1.85,1.85,0,0,0,.07.62C23,27,22,25.92,22.29,24.62a.11.11,0,0,0-.05-.13h0a.1.1,0,0,0-.12.07c-.37,1.21.68,2.75,1.37,2.08.5,1.07,1.37.69,1.39,0,.71.86,1.5.71,1.7.3.77.74,1.76.64,1.78-.17.68.62,1.48.3,1.59-.26.86.79,2.09.32,2-.67.56.2,1.42.29,1.53-.29a.53.53,0,0,0-.07-.35l.2,0A2.25,2.25,0,0,0,34.13,25.24Z"/></g><g id="Group_6657" data-name="Group 6657"><path id="Path_32001" data-name="Path 32001" class="cls-5" d="M27.11,22.51c-.18,0-.34-.12-.53-.16a.1.1,0,0,0-.1.07.09.09,0,0,0,0,.08,1,1,0,0,0,1.33,0A.5.5,0,0,0,28,22c.67,0,1.25-.48,1-.89a1.68,1.68,0,0,0,.66-.52.31.31,0,0,0-.07-.43,2.78,2.78,0,0,0,.42-.42c.09-.11.24-.29.13-.44h0c-.11-.15-.33-.09-.3.08a.29.29,0,0,1-.19.39h0c-.18.11-.32.28-.51.39l-.12.07c-.12.08,0,.29.13.22s.26-.17.3-.07-.16.21-.21.25a1.58,1.58,0,0,1-.66.33h0a.14.14,0,0,0-.07.16.14.14,0,0,0,.16.1h0c.1,0,.24.25-.27.45a1.23,1.23,0,0,1-.66,0c-.32-.16-.35.11-.23.17a1.06,1.06,0,0,0,.25.09.33.33,0,0,1,0,.15C27.75,22.34,27.5,22.57,27.11,22.51Z"/></g><g id="Group_6658" data-name="Group 6658"><path id="Path_32002" data-name="Path 32002" class="cls-5" d="M29.55,21.56h0a.08.08,0,0,0-.1,0,.08.08,0,0,0,0,.1,1,1,0,0,0,.55.58,0,0,0,0,0,.07,0,.06.06,0,0,0,0-.06A2,2,0,0,1,29.55,21.56Z"/></g><g id="Group_6659" data-name="Group 6659"><path id="Path_32003" data-name="Path 32003" class="cls-5" d="M30,21.65a.05.05,0,0,0-.08,0,0,0,0,0,0,0,.06c.24.66,1,.86.93.61s-.3-.16-.35-.19A1,1,0,0,1,30,21.65Z"/></g><g id="Group_6660" data-name="Group 6660"><path id="Path_32004" data-name="Path 32004" class="cls-5" d="M30.56,21.91c.51.41.51.46.65.47a.07.07,0,0,0,.09-.07s0,0,0,0-.2-.18-.3-.24c-.3-.19-.38-.31-.45-.22A.08.08,0,0,0,30.56,21.91Z"/></g><g id="Group_6661" data-name="Group 6661"><path id="Path_32005" data-name="Path 32005" class="cls-5" d="M31.51,19.31a14.67,14.67,0,0,0,4.82-2,.08.08,0,0,0-.08-.13c-.6.32-1.18.67-1.79,1a18.94,18.94,0,0,1-2.92,1.08c-.05,0-.11,0-.09.08S31.48,19.31,31.51,19.31Z"/></g><g id="Group_6662" data-name="Group 6662"><path id="Path_32006" data-name="Path 32006" class="cls-5" d="M28.06,19.43h0c.17-.24.36-.47.55-.69a7.57,7.57,0,0,1,1.5-1.38c3.3-2.6,3.14-3.43,3.53-4.15a1.26,1.26,0,0,1,.2,1,5.25,5.25,0,0,1-.6,1.32c-.06.12.11.2.19.11,1.07-1.16.85-2.23.24-2.67a.12.12,0,0,0-.16,0l0,0c0,.07,0,.14,0,.21a4,4,0,0,1-.65,1.27c-1.08,1.56-2.11,2-3.6,3.47A7,7,0,0,0,28,19.37a.06.06,0,0,0,0,.07A0,0,0,0,0,28.06,19.43Z"/></g></g></g></g><g id="Group_6667" data-name="Group 6667"><g id="Group_6655-2" data-name="Group 6655-2"><g id="Group_6654-2" data-name="Group 6654-2"><path id="Path_31995-2" data-name="Path 31995-2" class="cls-8" d="M29.08,19.58l1.73-.79c4.9-2.3,5.35-3.6,5.68-2.67a1.69,1.69,0,0,1-.46,1.3C35.27,18.28,32.35,19.7,29.08,19.58Z"/><path id="Path_31996-2" data-name="Path 31996-2" class="cls-8" d="M42.7,29.38c-.43-.47-2.56-.62-3-.85-.61-.31-1.42-1-2.09-.47a.71.71,0,0,0-.27.68c.17,1.46-1.47.55-2.71,2.15A13.49,13.49,0,0,0,32,30c0-1.69-2.31-2.48-3.35-2.57a2.34,2.34,0,0,0-.3-.71,1,1,0,0,1,.54-.21c.93.38,2.69.87,2.81-.13h0c1.71.77,3.38.22,2.7-.79,2.42,1,2.79-.82,1.74-1.13a2.91,2.91,0,0,0,.92.15c1.28-.06,1.61-1.56.1-1.75.93.12,4.13.28,3.86-1.29a14.32,14.32,0,0,1-4-.6,5.77,5.77,0,0,0,4-.48c1-.56.93-1.2.75-1.45a33.69,33.69,0,0,1-4.46.74,4,4,0,0,0,3.26-2.3c.06-.13.25-1,.31-1a45,45,0,0,1-8.57,3c-1,.24-2.16.19-3,.83-2.56,1.84-2.47,2.39-4.23,2.14a.56.56,0,0,0,0-.12.54.54,0,0,0,.36-.46A1.07,1.07,0,0,0,26.38,20a1.09,1.09,0,0,0,1.45-.38,1.12,1.12,0,0,0-.45-1.42.92.92,0,0,0,.12-1.83c1-.55,1.06-2.34-.92-2.45a1.75,1.75,0,0,0-1.79-1.71,1.65,1.65,0,0,0-.84.25c-.15-1.2-1.85-1.12-1.78-1.1a1.93,1.93,0,0,0-1,.29h-.05a1.36,1.36,0,0,0-2.17.71,1.34,1.34,0,0,0-.4,0l-.57-1c1-1.95-.9-2.35-1.17-1.56a.59.59,0,0,0,.34.77l.09,0c.11,0,.14.1.11.22h0a3,3,0,0,1-1.12,1.24c-4.3,2.93-8,4.73-7,9.25-.8-.38-1.54.39-.81,1l0,.12,0,.29a0,0,0,0,1,0,0s0,0,0,0l.07.15a1.39,1.39,0,0,0,.12.28c-.15.35.08.64.43.86-1.25,4.13,2.13,6.33,6,9.66a2.59,2.59,0,0,1,1,1.46l0,0h0a.12.12,0,0,1-.12.09.6.6,0,0,0-.54.65.44.44,0,0,0,0,.1c.16.8,2.1.65,1.36-1.35l2.63-3.46c1.09,2.93,3.89,3,5,3.16a9.61,9.61,0,0,1,.08-3.12A8.12,8.12,0,0,0,25,35.3c.73,1.47,2.45,4,4.27,4.16a12.42,12.42,0,0,0,3.33-.3,1.75,1.75,0,0,1-.23-.24,4.48,4.48,0,0,1-.68-1.43c-.16-.52-.13-1.06-.27-1.58a.81.81,0,0,1-.05-.31c0-.2-.31-1-.35-1.1-.19-.45-.61-.87-.42-1.36A3.89,3.89,0,0,0,29.46,29c3.43,2.49.12,4.77,2.18,5.67h0a1.81,1.81,0,0,0,.56.12,11.11,11.11,0,0,0,1.16.09,12.53,12.53,0,0,0,2.37-.14,1.86,1.86,0,0,0,1.09-.39,5.35,5.35,0,0,0,.63-.87c.28-.43.55-.86.79-1.31s.43-1.3,1-1.69a3.62,3.62,0,0,1,1.2-.36,10.58,10.58,0,0,1,2.35-.57C42.84,29.58,42.72,29.4,42.7,29.38ZM19.07,13.19l5.32,8.88,0,0,0,0h0L19,13.21Zm-1.13,4a1.63,1.63,0,0,1,1.46-.5c.05,0,.12.13.07.18s-.17,0-.8.11a2.52,2.52,0,0,0-.75.33S17.83,17.32,17.94,17.21Zm1.31.63c-.05.1-.22.1-.3.09a1.17,1.17,0,0,0-.32,0,1,1,0,0,0-.24,0,1.09,1.09,0,0,0-.3.07.8.8,0,0,1,.52-.34,1.85,1.85,0,0,1,.47,0c.06,0,.18,0,.18.13S19.25,17.83,19.25,17.84Zm-1.4-6.2.46.79A1.47,1.47,0,0,0,17.39,14a1,1,0,0,0,0,2.09c-.23,1.21.26,1.59.1,2.06-.08.26-.43.32-.48.63s.15.44.2.65A2.23,2.23,0,0,0,17.76,21a3.58,3.58,0,0,0,1.93.84,2.38,2.38,0,0,0,.18.3.61.61,0,0,0,0,.19,7.27,7.27,0,0,0-3.08.12l-.37,0c-1.59-.74-4-.14-4.69-.33a2.68,2.68,0,0,0,.07-.27.54.54,0,0,0-.09-.25,1.21,1.21,0,0,0-.87-.31C10.5,16.4,16.2,14.18,17.85,11.64ZM16.53,34.47c-1.23-2.6-6.26-5.35-5.94-9.81a3.33,3.33,0,0,0,.78-.1.56.56,0,0,0,.17-.31h.08c.67,0,2.8,1.05,4.05,1.05a8.42,8.42,0,0,1,1,.08c.53.31.6.39,1,.62a4.8,4.8,0,0,0,1.1,3.1c.18.45.14,1,.42,1.9Zm-6-11.68a.78.78,0,0,0,.16-.2l10,.6v.21Zm9.34,7.72a1.17,1.17,0,0,1-.05-.11L23,26.29l.09,0ZM23.78,25l-.13.15a.28.28,0,0,1,.23.26,1.12,1.12,0,0,1-.05.13.49.49,0,0,1-.44.1,1.05,1.05,0,0,1-.24-.06c-.18-.06-.21-.21-.24-.37a1,1,0,0,1-.39-.24.5.5,0,0,1-.11-.48,1.23,1.23,0,0,1,.46-.3l.25-.11s.1-.06.13-.05.06,0,0,0-.29.19-.43.28l-.21.14c-.15.12-.12.29,0,.45a.68.68,0,0,0,.28.18.5.5,0,0,1,.08-.32.56.56,0,0,1,.29-.16c.13-.06.24-.15.37-.2s.05,0,0,.06l-.33.23c-.09.06-.22.12-.27.22a.69.69,0,0,0,0,.35c0,.13,0,.14.14.17s.4.12.51,0a.14.14,0,0,0,0-.19l0,0h0s-.18.05-.21,0,0-.14.05-.18.21-.25.27-.22a1.56,1.56,0,0,0,1.8.06.71.71,0,0,1,0,.14A1.67,1.67,0,0,1,23.78,25Zm2.17.33v-.14a4.86,4.86,0,0,0,5.5-.31l.28-.24.14-.13c0-.05.06,0,.12-.06a.41.41,0,0,0,.21-.27c0-.18-.13-.17-.25-.24a9.89,9.89,0,0,0-1.28-.59,8.63,8.63,0,0,0-1.51-.41,15.13,15.13,0,0,0-3.43-.09l-2.15.07c-.35,0-.7,0-1,.05a.76.76,0,0,0-.4.15.25.25,0,0,0,0,.32l.47,0c.11,0,.38-.1.46,0-.07.08-.28.08-.38.1a4.51,4.51,0,0,0-.53.09,4.87,4.87,0,0,0,0,.54A.31.31,0,0,1,22,24c-.05-.13,0-.25,0-.39s0,0,0,0A.44.44,0,0,1,22,23a.7.7,0,0,1,.57-.23q.86,0,1.71-.09L26,22.65c.57,0,1.14,0,1.71,0a9.19,9.19,0,0,1,3.92.94,3.16,3.16,0,0,1,.56.33.33.33,0,0,1,0,.44.43.43,0,0,1-.14.16l-.09,0H32s-.06.05-.08.07a5.72,5.72,0,0,1-.53.45,4.85,4.85,0,0,1-5.4.26Z"/><path id="Path_31997-2" data-name="Path 31997-2" class="cls-8" d="M24.74,33.63c0,1.63.37,4.68,1.93,5.63a12.72,12.72,0,0,0,3.16,1.26,14,14,0,0,1,3.46,1.55,3.89,3.89,0,0,1,.67.61,16,16,0,0,1,1.26,2.06c0,.08.08.23.17.27s.64-.57.31-1a2,2,0,0,0,.17-.27c.32-.77-.5-1.53-.46-2.33,0-.42.25-.74.14-1.19a1,1,0,0,0-.71-.75,4.18,4.18,0,0,0-1.06.07l-1.12-1.24a3.16,3.16,0,0,0-2.39-1.52,9.69,9.69,0,0,0,.2-1.18"/></g><path id="Path_31998-2" data-name="Path 31998-2" class="cls-8" d="M33.22,10.09a1.71,1.71,0,0,0,.23-1.34.17.17,0,0,0-.18-.13.17.17,0,0,0-.15.15,1.27,1.27,0,0,1-.58.81,2.58,2.58,0,0,1-1.11.35,2,2,0,0,1-.64,0,2,2,0,0,1-.54-.28l-.71-.44a1.51,1.51,0,0,0,.3,0A3,3,0,0,0,31,8.82,1.64,1.64,0,0,0,31.87,8c.06-.14-.16-.21-.22-.08a1.44,1.44,0,0,1-.74.68l-.53.24a1.65,1.65,0,0,1-.59.14,3.46,3.46,0,0,1-1.17-.4,3.07,3.07,0,0,0-1.16-.19,4.22,4.22,0,0,0-2.69,1.26,2.2,2.2,0,0,0-.57,1.15,1.9,1.9,0,0,0,0,.63.77.77,0,0,0,.2.39,1.27,1.27,0,0,0-.18.37h0c.08.2.19.39.27.58a2.07,2.07,0,0,1,.19.32h.09a1,1,0,0,1,.9,0,1.1,1.1,0,0,0,.26-.06l.12,0a1,1,0,0,0-.2-.14s0,0,.06,0a.77.77,0,0,0,.17-.43.11.11,0,0,0,.08-.12.36.36,0,0,1,.25-.34A1.1,1.1,0,0,1,27,12a4,4,0,0,1,1.18.43c.35.2.67.45,1,.64a2,2,0,0,0,1.19.26,1.3,1.3,0,0,0,1-.7.17.17,0,0,0,0-.15.18.18,0,0,0-.16,0,1.05,1.05,0,0,1-.78,0h.13a7.1,7.1,0,0,0,1,0,1.91,1.91,0,0,0,1.44-1,2.83,2.83,0,0,0,.31-1.1A.14.14,0,0,0,33.22,10.09Z"/></g><path id="Path_31999-2" data-name="Path 31999-2" class="cls-8" d="M4.7,22.54a3.85,3.85,0,0,0,0,.48.77.77,0,0,0,0,.15A.28.28,0,0,0,5,23.4a.29.29,0,0,0,.16-.07h.05l.07,0a.69.69,0,0,0,.25,0,1.6,1.6,0,0,0,.23,0,2,2,0,0,0,.34.12l.39.14.79.32.16.06,0,0,.17.08a2.17,2.17,0,0,0,.35.15,2.37,2.37,0,0,0,.36.09,1.27,1.27,0,0,1,.18.06h0l0,0a2,2,0,0,0,.59.07h.16l.25,0,1.83.13,3.63.21.46,0a2.57,2.57,0,0,0,.48,0,.54.54,0,0,0,.4-.22.12.12,0,0,0,.05,0,.09.09,0,0,0,0-.06,2.53,2.53,0,0,0,.16-.33,3.1,3.1,0,0,0,.17-1.68,2.49,2.49,0,0,0-.09-.37,1.24,1.24,0,0,0-.17-.37.08.08,0,0,0,0-.11h0a.61.61,0,0,0-.37-.21l-.05,0c-.64,0-1.28,0-1.92-.06s-3-.19-3.65-.2H10l-.63,0a1.68,1.68,0,0,0-.59,0h0a.58.58,0,0,1-.18,0c-.12,0-.25,0-.37.06l-.36.11a2.91,2.91,0,0,1-.39.12c-.27.08-.54.17-.81.23l-.4.1a1.61,1.61,0,0,0-.39.12h0l-.11-.06-.13-.07a.32.32,0,0,0-.33,0,0,0,0,0,0,0,0l0,0a.26.26,0,0,0-.29-.09.3.3,0,0,0-.19.28C4.7,22.23,4.71,22.39,4.7,22.54Z"/></g></g></g></g></svg>