<svg xmlns="http://www.w3.org/2000/svg" viewBox="0 0 21.95 42.82"><defs><style>.cls-1{fill:#b69564;}</style></defs><g id="圖層_2" data-name="圖層 2"><g id="圖層_1-2" data-name="圖層 1"><path class="cls-1" d="M17.88,2.59a.17.17,0,0,0,.18-.17.18.18,0,0,0-.18-.18.18.18,0,0,0-.17.18A.17.17,0,0,0,17.88,2.59Z"/><path class="cls-1" d="M17.53,3.3a.18.18,0,0,0,.18-.18A.18.18,0,0,0,17.53,3a.17.17,0,0,0-.17.17A.17.17,0,0,0,17.53,3.3Z"/><path class="cls-1" d="M18.24,3.3a.17.17,0,0,0,.17-.18A.17.17,0,0,0,18.24,3a.18.18,0,0,0-.18.17A.18.18,0,0,0,18.24,3.3Z"/><path class="cls-1" d="M4.47,4a.18.18,0,1,0-.18-.18A.18.18,0,0,0,4.47,4Z"/><path class="cls-1" d="M5.18,4a.18.18,0,0,0,0-.36.18.18,0,0,0,0,.36Z"/><path class="cls-1" d="M5.88,4a.18.18,0,0,0,0-.36.18.18,0,0,0,0,.36Z"/><path class="cls-1" d="M17.88,3.65a.18.18,0,0,0,0,.36.18.18,0,1,0,0-.36Z"/><path class="cls-1" d="M18.59,4a.18.18,0,1,0-.18-.18A.18.18,0,0,0,18.59,4Z"/><path class="cls-1" d="M3.41,4.36a.17.17,0,0,0-.17.18.17.17,0,0,0,.17.17.18.18,0,0,0,.18-.17A.18.18,0,0,0,3.41,4.36Z"/><path class="cls-1" d="M4.12,4.36a.18.18,0,0,0-.18.18.18.18,0,0,0,.18.17.18.18,0,0,0,.17-.17A.18.18,0,0,0,4.12,4.36Z"/><path class="cls-1" d="M4.82,4.36a.18.18,0,0,0-.17.18.18.18,0,0,0,.17.17A.18.18,0,0,0,5,4.54.18.18,0,0,0,4.82,4.36Z"/><path class="cls-1" d="M5.53,4.36a.18.18,0,0,0-.18.18.18.18,0,0,0,.36,0A.18.18,0,0,0,5.53,4.36Z"/><path class="cls-1" d="M6.24,4.36a.18.18,0,0,0-.18.18.18.18,0,0,0,.18.17.18.18,0,0,0,.17-.17A.18.18,0,0,0,6.24,4.36Z"/><path class="cls-1" d="M6.94,4.71a.18.18,0,0,0,.18-.17.18.18,0,0,0-.18-.18.17.17,0,0,0-.17.18A.17.17,0,0,0,6.94,4.71Z"/><path class="cls-1" d="M7.65,4.71a.17.17,0,0,0,.17-.17.17.17,0,0,0-.17-.18.18.18,0,0,0-.18.18A.18.18,0,0,0,7.65,4.71Z"/><path class="cls-1" d="M16.83,4.71A.18.18,0,0,0,17,4.54a.18.18,0,0,0-.17-.18.18.18,0,0,0-.18.18A.18.18,0,0,0,16.83,4.71Z"/><path class="cls-1" d="M17.53,4.71a.18.18,0,0,0,.18-.17.18.18,0,0,0-.18-.18.17.17,0,0,0-.17.18A.17.17,0,0,0,17.53,4.71Z"/><path class="cls-1" d="M18.24,4.71a.17.17,0,0,0,.17-.17.17.17,0,0,0-.17-.18.18.18,0,0,0-.18.18A.18.18,0,0,0,18.24,4.71Z"/><path class="cls-1" d="M18.94,4.36a.18.18,0,0,0-.17.18.18.18,0,0,0,.17.17.18.18,0,0,0,.18-.17A.18.18,0,0,0,18.94,4.36Z"/><path class="cls-1" d="M3.76,5.07a.17.17,0,0,0-.17.17.18.18,0,0,0,.17.18.18.18,0,0,0,.18-.18A.17.17,0,0,0,3.76,5.07Z"/><path class="cls-1" d="M4.47,5.07a.17.17,0,0,0-.18.17.18.18,0,0,0,.36,0A.17.17,0,0,0,4.47,5.07Z"/><path class="cls-1" d="M5.18,5.07A.17.17,0,0,0,5,5.24a.18.18,0,0,0,.18.18.18.18,0,0,0,.17-.18A.17.17,0,0,0,5.18,5.07Z"/><path class="cls-1" d="M5.88,5.07a.17.17,0,0,0-.17.17.18.18,0,0,0,.17.18.18.18,0,0,0,.18-.18A.17.17,0,0,0,5.88,5.07Z"/><path class="cls-1" d="M6.59,5.07a.17.17,0,0,0-.18.17.18.18,0,0,0,.36,0A.17.17,0,0,0,6.59,5.07Z"/><path class="cls-1" d="M7.29,5.42a.18.18,0,0,0,.18-.18.17.17,0,0,0-.18-.17.17.17,0,0,0-.17.17A.18.18,0,0,0,7.29,5.42Z"/><path class="cls-1" d="M8,5.42a.18.18,0,0,0,.18-.18.18.18,0,0,0-.36,0A.18.18,0,0,0,8,5.42Z"/><path class="cls-1" d="M8.71,5.42a.18.18,0,0,0,.17-.18.17.17,0,0,0-.17-.17.17.17,0,0,0-.18.17A.18.18,0,0,0,8.71,5.42Z"/><path class="cls-1" d="M9.41,5.42a.18.18,0,0,0,.18-.18.17.17,0,0,0-.18-.17.17.17,0,0,0-.17.17A.18.18,0,0,0,9.41,5.42Z"/><path class="cls-1" d="M10.12,5.42a.18.18,0,0,0,.18-.18.18.18,0,0,0-.36,0A.18.18,0,0,0,10.12,5.42Z"/><path class="cls-1" d="M10.82,5.42A.18.18,0,0,0,11,5.24a.17.17,0,0,0-.18-.17.17.17,0,0,0-.17.17A.18.18,0,0,0,10.82,5.42Z"/><path class="cls-1" d="M11.53,5.42a.18.18,0,0,0,.18-.18.18.18,0,0,0-.36,0A.18.18,0,0,0,11.53,5.42Z"/><path class="cls-1" d="M16.47,5.42a.18.18,0,0,0,.18-.18.17.17,0,0,0-.18-.17.17.17,0,0,0-.17.17A.18.18,0,0,0,16.47,5.42Z"/><path class="cls-1" d="M17.18,5.42a.18.18,0,0,0,.18-.18.18.18,0,0,0-.36,0A.18.18,0,0,0,17.18,5.42Z"/><path class="cls-1" d="M17.88,5.07a.17.17,0,0,0-.17.17.18.18,0,0,0,.17.18.18.18,0,0,0,.18-.18A.17.17,0,0,0,17.88,5.07Z"/><path class="cls-1" d="M18.59,5.07a.17.17,0,0,0-.18.17.18.18,0,0,0,.36,0A.17.17,0,0,0,18.59,5.07Z"/><path class="cls-1" d="M6.94,5.77A.17.17,0,0,0,6.77,6a.16.16,0,0,0,.17.17A.17.17,0,0,0,7.12,6,.18.18,0,0,0,6.94,5.77Z"/><path class="cls-1" d="M7.65,5.77A.18.18,0,0,0,7.47,6a.17.17,0,0,0,.18.17A.16.16,0,0,0,7.82,6,.17.17,0,0,0,7.65,5.77Z"/><path class="cls-1" d="M8.35,6.12A.17.17,0,0,0,8.53,6a.18.18,0,0,0-.18-.18A.18.18,0,0,0,8.18,6,.17.17,0,0,0,8.35,6.12Z"/><path class="cls-1" d="M9.06,6.12A.17.17,0,0,0,9.24,6a.18.18,0,0,0-.36,0A.17.17,0,0,0,9.06,6.12Z"/><path class="cls-1" d="M9.77,5.77A.18.18,0,0,0,9.59,6a.17.17,0,0,0,.18.17A.17.17,0,0,0,9.94,6,.18.18,0,0,0,9.77,5.77Z"/><path class="cls-1" d="M10.47,5.77A.17.17,0,0,0,10.3,6a.16.16,0,0,0,.17.17A.17.17,0,0,0,10.65,6,.18.18,0,0,0,10.47,5.77Z"/><path class="cls-1" d="M11.18,5.77A.18.18,0,0,0,11,6a.17.17,0,0,0,.18.17A.16.16,0,0,0,11.35,6,.17.17,0,0,0,11.18,5.77Z"/><path class="cls-1" d="M11.88,6.12A.17.17,0,0,0,12.06,6a.18.18,0,0,0-.18-.18.18.18,0,0,0-.17.18A.17.17,0,0,0,11.88,6.12Z"/><path class="cls-1" d="M12.59,6.12A.17.17,0,0,0,12.77,6a.18.18,0,1,0-.36,0A.17.17,0,0,0,12.59,6.12Z"/><path class="cls-1" d="M13.3,6.12A.17.17,0,0,0,13.47,6a.18.18,0,0,0-.17-.18.18.18,0,0,0-.18.18A.17.17,0,0,0,13.3,6.12Z"/><path class="cls-1" d="M14,6.12A.17.17,0,0,0,14.18,6,.18.18,0,0,0,14,5.77a.17.17,0,0,0-.17.18A.16.16,0,0,0,14,6.12Z"/><path class="cls-1" d="M14.71,6.12A.16.16,0,0,0,14.88,6a.17.17,0,0,0-.17-.18.18.18,0,0,0-.18.18A.17.17,0,0,0,14.71,6.12Z"/><path class="cls-1" d="M15.41,6.12A.17.17,0,0,0,15.59,6a.18.18,0,0,0-.18-.18.18.18,0,0,0-.17.18A.17.17,0,0,0,15.41,6.12Z"/><path class="cls-1" d="M16.12,6.12A.17.17,0,0,0,16.3,6a.18.18,0,1,0-.36,0A.17.17,0,0,0,16.12,6.12Z"/><path class="cls-1" d="M16.83,5.77a.18.18,0,0,0-.18.18.17.17,0,0,0,.18.17A.17.17,0,0,0,17,6,.18.18,0,0,0,16.83,5.77Z"/><path class="cls-1" d="M17.53,5.77a.17.17,0,0,0-.17.18.16.16,0,0,0,.17.17A.17.17,0,0,0,17.71,6,.18.18,0,0,0,17.53,5.77Z"/><path class="cls-1" d="M18.24,5.77a.18.18,0,0,0-.18.18.17.17,0,0,0,.18.17A.16.16,0,0,0,18.41,6,.17.17,0,0,0,18.24,5.77Z"/><path class="cls-1" d="M7.29,6.48a.18.18,0,0,0-.17.17.18.18,0,0,0,.17.18.18.18,0,0,0,.18-.18A.18.18,0,0,0,7.29,6.48Z"/><path class="cls-1" d="M8,6.48a.18.18,0,0,0-.18.17.18.18,0,0,0,.36,0A.18.18,0,0,0,8,6.48Z"/><path class="cls-1" d="M8.71,6.48a.18.18,0,0,0-.18.17.18.18,0,0,0,.18.18.18.18,0,0,0,.17-.18A.18.18,0,0,0,8.71,6.48Z"/><path class="cls-1" d="M9.41,6.48a.18.18,0,0,0-.17.17.18.18,0,0,0,.17.18.18.18,0,0,0,.18-.18A.18.18,0,0,0,9.41,6.48Z"/><path class="cls-1" d="M10.12,6.48a.18.18,0,0,0-.18.17.18.18,0,0,0,.36,0A.18.18,0,0,0,10.12,6.48Z"/><path class="cls-1" d="M10.82,6.48a.18.18,0,0,0-.17.17.18.18,0,0,0,.17.18A.18.18,0,0,0,11,6.65.18.18,0,0,0,10.82,6.48Z"/><path class="cls-1" d="M11.53,6.48a.18.18,0,0,0-.18.17.18.18,0,0,0,.36,0A.18.18,0,0,0,11.53,6.48Z"/><path class="cls-1" d="M12.24,6.48a.18.18,0,0,0-.18.17.18.18,0,0,0,.18.18.18.18,0,0,0,.17-.18A.18.18,0,0,0,12.24,6.48Z"/><path class="cls-1" d="M12.94,6.83a.18.18,0,0,0,.18-.18.18.18,0,0,0-.18-.17.18.18,0,0,0-.17.17A.18.18,0,0,0,12.94,6.83Z"/><path class="cls-1" d="M13.65,6.83a.18.18,0,0,0,.18-.18.18.18,0,0,0-.36,0A.18.18,0,0,0,13.65,6.83Z"/><path class="cls-1" d="M14.35,6.83a.18.18,0,0,0,.18-.18.18.18,0,0,0-.18-.17.18.18,0,0,0-.17.17A.18.18,0,0,0,14.35,6.83Z"/><path class="cls-1" d="M15.06,6.83a.18.18,0,0,0,.18-.18.18.18,0,0,0-.36,0A.18.18,0,0,0,15.06,6.83Z"/><path class="cls-1" d="M15.77,6.83a.18.18,0,0,0,.17-.18.18.18,0,0,0-.17-.17.18.18,0,0,0-.18.17A.18.18,0,0,0,15.77,6.83Z"/><path class="cls-1" d="M16.47,6.48a.18.18,0,0,0-.17.17.18.18,0,0,0,.17.18.18.18,0,0,0,.18-.18A.18.18,0,0,0,16.47,6.48Z"/><path class="cls-1" d="M17.18,6.83a.18.18,0,0,0,.18-.18.18.18,0,0,0-.36,0A.18.18,0,0,0,17.18,6.83Z"/><path class="cls-1" d="M17.88,6.48a.18.18,0,0,0-.17.17.18.18,0,0,0,.17.18.18.18,0,0,0,.18-.18A.18.18,0,0,0,17.88,6.48Z"/><path class="cls-1" d="M8.35,7.18a.18.18,0,0,0,0,.36.18.18,0,1,0,0-.36Z"/><path class="cls-1" d="M9.06,7.18a.18.18,0,1,0,.18.18A.18.18,0,0,0,9.06,7.18Z"/><path class="cls-1" d="M11.88,7.18a.18.18,0,0,0,0,.36.18.18,0,0,0,0-.36Z"/><path class="cls-1" d="M12.59,7.18a.18.18,0,1,0,.18.18A.18.18,0,0,0,12.59,7.18Z"/><path class="cls-1" d="M13.3,7.18a.18.18,0,1,0,0,.36.18.18,0,0,0,0-.36Z"/><path class="cls-1" d="M14,7.18a.18.18,0,0,0,0,.36.18.18,0,0,0,0-.36Z"/><path class="cls-1" d="M14.71,7.18a.18.18,0,1,0,0,.36.18.18,0,0,0,0-.36Z"/><path class="cls-1" d="M15.41,7.18a.18.18,0,0,0,0,.36.18.18,0,0,0,0-.36Z"/><path class="cls-1" d="M16.12,7.18a.18.18,0,1,0,.18.18A.18.18,0,0,0,16.12,7.18Z"/><path class="cls-1" d="M16.83,7.54a.18.18,0,0,0,0-.36.18.18,0,0,0,0,.36Z"/><path class="cls-1" d="M17.53,7.18a.18.18,0,0,0,0,.36.18.18,0,0,0,0-.36Z"/><path class="cls-1" d="M12.94,7.89a.18.18,0,0,0-.17.18.18.18,0,0,0,.17.17.18.18,0,0,0,.18-.17A.18.18,0,0,0,12.94,7.89Z"/><path class="cls-1" d="M13.65,8.24a.18.18,0,0,0,.18-.17.18.18,0,1,0-.36,0A.18.18,0,0,0,13.65,8.24Z"/><path class="cls-1" d="M14.35,8.24a.18.18,0,0,0,.18-.17.18.18,0,0,0-.18-.18.18.18,0,0,0-.17.18A.18.18,0,0,0,14.35,8.24Z"/><path class="cls-1" d="M15.06,8.24a.18.18,0,0,0,.18-.17.18.18,0,1,0-.36,0A.18.18,0,0,0,15.06,8.24Z"/><path class="cls-1" d="M15.77,8.24a.18.18,0,0,0,.17-.17.18.18,0,0,0-.17-.18.18.18,0,0,0-.18.18A.18.18,0,0,0,15.77,8.24Z"/><path class="cls-1" d="M16.47,8.24a.18.18,0,0,0,.18-.17.18.18,0,0,0-.18-.18.18.18,0,0,0-.17.18A.18.18,0,0,0,16.47,8.24Z"/><path class="cls-1" d="M17.18,7.89a.18.18,0,0,0-.18.18.18.18,0,0,0,.36,0A.18.18,0,0,0,17.18,7.89Z"/><path class="cls-1" d="M13.3,8.6a.17.17,0,0,0-.18.17A.18.18,0,0,0,13.3,9a.18.18,0,0,0,.17-.18A.17.17,0,0,0,13.3,8.6Z"/><path class="cls-1" d="M14,8.6a.16.16,0,0,0-.17.17A.17.17,0,0,0,14,9a.18.18,0,0,0,.18-.18A.17.17,0,0,0,14,8.6Z"/><path class="cls-1" d="M14.71,9a.17.17,0,0,0,.17-.18.16.16,0,0,0-.17-.17.17.17,0,0,0-.18.17A.18.18,0,0,0,14.71,9Z"/><path class="cls-1" d="M15.41,9a.18.18,0,0,0,.18-.18.17.17,0,0,0-.18-.17.17.17,0,0,0-.17.17A.18.18,0,0,0,15.41,9Z"/><path class="cls-1" d="M16.12,9a.18.18,0,0,0,.18-.18.18.18,0,0,0-.36,0A.18.18,0,0,0,16.12,9Z"/><path class="cls-1" d="M16.83,8.6a.17.17,0,0,0-.18.17.18.18,0,0,0,.18.18A.18.18,0,0,0,17,8.77.17.17,0,0,0,16.83,8.6Z"/><path class="cls-1" d="M13.65,9.3a.18.18,0,0,0-.18.18.18.18,0,0,0,.36,0A.18.18,0,0,0,13.65,9.3Z"/><path class="cls-1" d="M14.35,9.3a.18.18,0,0,0-.17.18.17.17,0,0,0,.17.17.17.17,0,0,0,.18-.17A.18.18,0,0,0,14.35,9.3Z"/><path class="cls-1" d="M15.06,9.3a.18.18,0,0,0-.18.18.18.18,0,0,0,.36,0A.18.18,0,0,0,15.06,9.3Z"/><path class="cls-1" d="M15.77,9.3a.18.18,0,0,0-.18.18.17.17,0,0,0,.18.17.17.17,0,0,0,.17-.17A.18.18,0,0,0,15.77,9.3Z"/><path class="cls-1" d="M16.47,9.3a.18.18,0,0,0-.17.18.17.17,0,0,0,.17.17.17.17,0,0,0,.18-.17A.18.18,0,0,0,16.47,9.3Z"/><path class="cls-1" d="M14.71,10a.18.18,0,0,0-.18.17.18.18,0,0,0,.18.18.17.17,0,0,0,.17-.18A.17.17,0,0,0,14.71,10Z"/><path class="cls-1" d="M15.41,10a.18.18,0,0,0-.17.17.18.18,0,0,0,.17.18.18.18,0,0,0,.18-.18A.18.18,0,0,0,15.41,10Z"/><path class="cls-1" d="M16.12,10a.18.18,0,0,0-.18.17.18.18,0,0,0,.36,0A.18.18,0,0,0,16.12,10Z"/><path class="cls-1" d="M9,39.73c0,.09.25.05.32,0,.61-.07,1.22-.07,1.84-.09,1.44,0,1.87.27,1.84,0s-.55-.36-.73-.41C10.49,38.78,8.85,39.44,9,39.73Z"/><path class="cls-1" d="M18.54,6.66a4.27,4.27,0,0,0,.69-1A2.37,2.37,0,0,0,19.46,4c-.91-3-4.21-4-6.89-4A15,15,0,0,0,4.14,2.55c-.94.63-2.28,1.78-1.5,3.08a1.26,1.26,0,0,0,.78.59c0,.28.07.66.07.72a11,11,0,0,1-.29,3.13A57.55,57.55,0,0,1,1.13,16.3,18.16,18.16,0,0,0,0,21.12,11.24,11.24,0,0,0,.4,24.77a10.76,10.76,0,0,0,3.81,5.61,10.74,10.74,0,0,0,4.56,2c.15.85,1.45,3.39-.09,6a6,6,0,0,1-1.25,1.51c-.73,0-1.41.07-2.16.15s-3.66.21-3.11,1.43A1.41,1.41,0,0,0,3,42a9,9,0,0,0,1.14.28,24.73,24.73,0,0,0,2.57.33,50.72,50.72,0,0,0,5.08.17,40.61,40.61,0,0,0,4.81-.32,14.8,14.8,0,0,0,1.88-.34c.47-.12,1.3-.32,1.34-.92a.77.77,0,0,0-.52-.7,6.52,6.52,0,0,0-1.84-.45c-.71-.11-1.42-.17-2.13-.22l-.55,0-.06,0a6.17,6.17,0,0,1-.9-.87,5.79,5.79,0,0,1-.71-1.13v0c-1.18-2.57.11-4.59.14-5.43a11.89,11.89,0,0,0,1.56-.4A10.81,10.81,0,0,0,21.9,22.8C22.48,17.14,18.12,12.27,18.54,6.66ZM3.17,5.18a1.06,1.06,0,0,1,.14-1A5.23,5.23,0,0,1,5,2.81,15.09,15.09,0,0,1,9.31,1a13.43,13.43,0,0,1,4.6-.27A6.47,6.47,0,0,1,17.73,2.5l0,0,.09.09a3.73,3.73,0,0,1,.87,1.52,1.92,1.92,0,0,1-.31,1.73,8.12,8.12,0,0,0-1,1.33c-.29.61-.45,1.28-.75,1.89a1.73,1.73,0,0,1-1.31,1.05,2.07,2.07,0,0,1-1.68-.7c-.87-.9-1.25-2.44-2.58-2.77a3.64,3.64,0,0,0-2,.38,1.36,1.36,0,0,1-.58.08h0a1.64,1.64,0,0,1-.85-.48,3.43,3.43,0,0,0-1.43-1,3.57,3.57,0,0,0-1.08-.09c-.4,0-.79.11-1.19.09A.72.72,0,0,1,3.17,5.18ZM8.66,38.8a6.91,6.91,0,0,0,1-2.76c.06-1-.19-1.95-.14-2.93h0a6.21,6.21,0,0,1-.81,5.74S8.64,38.84,8.66,38.8ZM4.05,42.11a.34.34,0,0,1-.22,0,.36.36,0,0,1-.14-.16.19.19,0,0,1,.24-.24l.06,0H4a.21.21,0,0,1,.21.21A.23.23,0,0,1,4.05,42.11Zm1.37.18a1,1,0,0,1-.49,0,2,2,0,0,1-.46-.14.18.18,0,0,1,.1-.34c.27,0,.52.12.79.11A.21.21,0,0,1,5.42,42.29Zm13.69-.81a.37.37,0,0,1-.13.12l-.14.08a3.41,3.41,0,0,1-.75.23,9.1,9.1,0,0,1-1.16.21,5.38,5.38,0,0,1-1.5,0,1,1,0,0,0-.29-.06l1.57-.26c.79-.12,1.56-.27,2.34-.45C19.16,41.34,19.16,41.4,19.11,41.48Zm-6-2.18a5.58,5.58,0,0,0,1.64,1.3l.16.08a4.36,4.36,0,0,0,1.37.42,3.43,3.43,0,0,0,.64,0,1.8,1.8,0,0,0,.61-.08l-.23,0-.2,0-.43-.13a7.92,7.92,0,0,1-.94-.42l-.35-.19a24.36,24.36,0,0,1,3.22.52l.14.05c.1,0,.26.13.2.27a.32.32,0,0,1-.11.12,1.79,1.79,0,0,1-.39.13,7.25,7.25,0,0,1-.81.16c-.58.1-1.16.16-1.74.21-1.45.12-2.9.27-4.36.28s-2.95,0-4.43-.06c-4.41-.28-5.64-1.19-.17-1.67a7.51,7.51,0,0,1-2.15.83,4.15,4.15,0,0,0,2-.34,6.09,6.09,0,0,0,3.49-5.52,10.17,10.17,0,0,0-.15-1.34c0-.26.57-.35.71-.37s.21,0,.37,0a7.14,7.14,0,0,0-.3,2.76,4.59,4.59,0,0,0,.81,2.58c.05.06.12,0,.1-.07a10.22,10.22,0,0,0-.42-1.17,8.53,8.53,0,0,1-.3-1.35,8,8,0,0,1,.13-2.75h.15a1.63,1.63,0,0,0-.07.3,7.54,7.54,0,0,0,.6,4.82,1,1,0,0,0,.44.48.42.42,0,0,0,.15,0c.26,0,0-.47-.1-.58s-.11-.18-.16-.27-.12-.25-.17-.37a5.65,5.65,0,0,1-.38-1.41,8.64,8.64,0,0,1-.13-1.76,4.45,4.45,0,0,1,.15-.9c0-.08.05-.15.07-.21.06.13,0,.29,0,.42s0,.38,0,.57a6.59,6.59,0,0,0,.44,2.94A5.55,5.55,0,0,0,13.1,39.3Zm-1.63-6.5c-.38.21-.74,0-1.13,0,0,0,0,0,0,0a9.14,9.14,0,0,1,1.05-.14C11.49,32.6,11.57,32.74,11.47,32.8ZM20.85,22a10,10,0,0,1-3.28,7.13A9.35,9.35,0,0,1,14.41,31a10.9,10.9,0,0,1-3.45.57,9.94,9.94,0,0,1-6.48-2.15A10,10,0,0,1,.92,22.8c-.32-2.88.77-5.68,1.71-8.35A29.63,29.63,0,0,0,4,9.82a11.47,11.47,0,0,0,.15-3.2,1.84,1.84,0,0,1,.25-.17,2,2,0,0,1,1.38-.08,3.92,3.92,0,0,1,1.53,1,2.41,2.41,0,0,0,1,.68A2.21,2.21,0,0,0,9.65,7.8a2.55,2.55,0,0,1,1.58-.31,1.94,1.94,0,0,1,1.15,1.08A7.89,7.89,0,0,0,13.14,10a2.63,2.63,0,0,0,2.74.79,3.23,3.23,0,0,0,1.53-1,3.91,3.91,0,0,0,.3-.41,15.44,15.44,0,0,0,.65,3.15C19.35,15.58,20.9,18.68,20.85,22Z"/><path class="cls-1" d="M12.16,40c.18.06.7.37.71.58a.34.34,0,0,1-.13.27.9.9,0,0,1-.28.13,8.79,8.79,0,0,1-2.35.2c-.58,0-1.11,0-1.68,0s-1.25-.08-1.88-.1c0,0,0,0,0,0a19,19,0,0,0,3.44.35,17.6,17.6,0,0,0,3.84-.26,1.18,1.18,0,0,0,.33-.12.44.44,0,0,0,.18-.19c.15-.38-1-.73-1.22-.79A2.19,2.19,0,0,0,12.16,40Z"/><path class="cls-1" d="M9.68,38.82c.07-.07.12-.16.19-.24a1,1,0,0,0,.17-.27c.09-.17-.16-.37-.29-.2a2.4,2.4,0,0,0-.16.27,1.3,1.3,0,0,0-.14.32C9.41,38.84,9.59,38.91,9.68,38.82Z"/><path class="cls-1" d="M10.2,37.89a.26.26,0,0,0,0-.15.09.09,0,0,0-.07-.06h-.05a.1.1,0,0,0-.07.07.26.26,0,0,0,0,.15A.1.1,0,0,0,10.2,37.89Z"/><path class="cls-1" d="M6.06,41.32h0Z"/><path class="cls-1" d="M11,33.7s0,0,0,0S11,33.7,11,33.7Z"/><path class="cls-1" d="M11.75,14.59c.72,0,.68-1.12-.05-1.12S11,14.59,11.75,14.59Z"/><path class="cls-1" d="M8.94,13.91a.45.45,0,0,0,.43-.46A.45.45,0,0,0,8.91,13a.45.45,0,0,0,0,.9Z"/><path class="cls-1" d="M14.8,13.84c.6,0,.57-.93,0-.93S14.2,13.84,14.8,13.84Z"/><path class="cls-1" d="M16.2,13.07h0a.34.34,0,0,0-.15.27.32.32,0,0,0,.24.29.32.32,0,0,0,.34-.16.31.31,0,0,0-.07-.36h0a.37.37,0,0,0-.14-.07A.34.34,0,0,0,16.2,13.07Z"/><path class="cls-1" d="M15.72,13.05a.38.38,0,0,0,.36-.39.38.38,0,1,0-.36.39Z"/><path class="cls-1" d="M7,13.59a.39.39,0,0,0,0-.77.39.39,0,1,0,0,.77Z"/><path class="cls-1" d="M10.33,13a.32.32,0,0,0,.14,0A.37.37,0,0,0,10.7,13a.47.47,0,0,0-.14-.85l-.15,0a.62.62,0,0,0-.23.07.49.49,0,0,0-.21.3.43.43,0,0,0,.06.35A.47.47,0,0,0,10.33,13Z"/><path class="cls-1" d="M14.86,12.49a.21.21,0,0,0,.19-.15h0a.25.25,0,0,0,0-.15.23.23,0,0,0-.18-.09h0a.18.18,0,0,0-.17.11.2.2,0,0,0,0,.2A.19.19,0,0,0,14.86,12.49Z"/><path class="cls-1" d="M16,11.54a.36.36,0,0,0,.23,0,.25.25,0,0,0,.14-.08.31.31,0,0,0,.08-.15.33.33,0,0,0-.16-.35.53.53,0,0,0-.18,0l-.13,0a.32.32,0,0,0-.22.31A.33.33,0,0,0,16,11.54Z"/><path class="cls-1" d="M16.94,12.15a.32.32,0,0,0,.29-.32.31.31,0,0,0-.32-.29.3.3,0,0,0-.28.32A.3.3,0,0,0,16.94,12.15Z"/><path class="cls-1" d="M7.58,6.05s0,0,0,0S7.56,6.05,7.58,6.05Z"/><path class="cls-1" d="M18.21,13.93a2.78,2.78,0,0,0-.22-.54h0l0-.09a4.27,4.27,0,0,0-.68.05l-.47,0s0,.07,0,.11a.48.48,0,0,1-.47.5.5.5,0,0,1-.35-.12.5.5,0,0,1-.15-.34v-.08l-.39,0v.06a.61.61,0,0,1-1,.47.62.62,0,0,1-.2-.43v0c-.56,0-1.13.05-1.7.05a1,1,0,0,1,.12.41,1,1,0,0,1-.26.68.91.91,0,0,1-.65.31,1,1,0,0,1-.68-.25.94.94,0,0,1-.31-.66,1.13,1.13,0,0,1,.11-.48H9.74v.07A.82.82,0,0,1,9,14.5a.85.85,0,0,1-.59-.22.82.82,0,0,1-.26-.57.65.65,0,0,1,0-.19h0L8,13.91a33.42,33.42,0,0,1-.74,3.5,1.06,1.06,0,0,1-.61.68c-.61.33-1.23-.48-1.22-1.16a10.82,10.82,0,0,1,.4-2.33c.11-.39.23-.78.36-1.16-.94,0-2.28-.12-2.4-.16h0c-.06,0-.1.27-.13.34s-.07.21-.11.32c-.12.41-.28.81-.43,1.21l-.7,1.92a15.47,15.47,0,0,0-.94,4.13,9.37,9.37,0,0,0,.32,3.12,9.25,9.25,0,0,0,3.27,4.81,9.54,9.54,0,0,0,6,1.85,10.65,10.65,0,0,0,3.07-.54,9.24,9.24,0,0,0,6.06-7.8c.3-3-1-5.7-1.94-8.47C18.25,14.1,18.23,14,18.21,13.93ZM5.79,19.61a.7.7,0,0,1,.3-.62c.3-.16.53.11.6.38a1.3,1.3,0,0,1,0,.48,1.12,1.12,0,0,1-.08.26.27.27,0,0,1-.09.12.35.35,0,0,1-.59,0A1.56,1.56,0,0,1,5.81,20,.89.89,0,0,1,5.79,19.61Zm1.64,9.2a6.76,6.76,0,0,1-4.36-5.34A11.18,11.18,0,0,1,3.22,19c.37-1.63,1-3.15,1.52-4.73,0,0,0,0,0,0a29.89,29.89,0,0,0-1.1,4.48,13,13,0,0,0-.07,4.44,7.39,7.39,0,0,0,3.85,5.57S7.47,28.82,7.43,28.81Zm2,0a5.91,5.91,0,0,1-3.79-2.19,7.16,7.16,0,0,1-1.37-4.4s0,0,0,0a6.28,6.28,0,0,0,1.65,4.34,7.58,7.58,0,0,0,3.51,2.24A0,0,0,0,1,9.43,28.84Zm1.13-13c-.6,0-.64-.93,0-.93S11.17,15.81,10.56,15.81Zm1.13,2.27c-.37,0-.39-.58,0-.58S12.06,18.08,11.69,18.08Zm.09-1.93a.25.25,0,0,1-.26-.24.25.25,0,1,1,.26.24Zm1.05,4.05c-.29,0-.31-.44,0-.44S13.11,20.2,12.83,20.2Zm0-3.06c-.29,0-.31-.44,0-.44S13.11,17.14,12.83,17.14Zm.61-.87c-.3,0-.32-.46,0-.46S13.74,16.27,13.44,16.27ZM13.27,15a.47.47,0,0,1-.34-.13.5.5,0,0,1-.16-.34.48.48,0,0,1,.81-.37.5.5,0,0,1,.16.34A.49.49,0,0,1,13.27,15Zm4.57,2.18h0a.14.14,0,0,1-.06.11.14.14,0,0,1-.09,0h0a.13.13,0,0,1-.16-.06.16.16,0,0,1,.05-.22.21.21,0,0,1,.24,0A.15.15,0,0,1,17.84,17.22ZM17.68,16a.18.18,0,0,1-.14.08A.21.21,0,0,1,17.4,16a.2.2,0,0,1,0-.23.18.18,0,0,1,.17-.11A.19.19,0,0,1,17.68,16Zm-.48-2.14a.31.31,0,0,1,.29.06.3.3,0,0,1,.08.29.31.31,0,0,1-.2.22h0a.3.3,0,0,1-.29-.07.29.29,0,0,1-.09-.2h0A.28.28,0,0,1,17.2,13.86Zm-.11.81a.24.24,0,0,1,.25.23.24.24,0,0,1-.23.25.25.25,0,0,1-.25-.24A.24.24,0,0,1,17.09,14.67Zm-.61-.46a.17.17,0,0,1,.18.16.17.17,0,0,1-.16.19.18.18,0,1,1,0-.35ZM18.91,24a2.23,2.23,0,0,1-.25,1.31,5.92,5.92,0,0,1-.73,1.33,5.08,5.08,0,0,1-2.11,1.84,0,0,0,1,1,0,0,9.69,9.69,0,0,0,1.8-2,7,7,0,0,0,.58-1.2,5.7,5.7,0,0,1,.44-1.24A.15.15,0,0,1,18.91,24Z"/></g></g></svg>