<svg xmlns="http://www.w3.org/2000/svg" viewBox="0 0 35.96 43.6"><defs><style>.cls-1{fill:#b69564;}</style></defs><g id="圖層_2" data-name="圖層 2"><g id="圖層_1-2" data-name="圖層 1"><path id="head10" class="cls-1" d="M25.72,7.73A2.55,2.55,0,0,1,23.5,9.17a4.66,4.66,0,0,1-1.78-.33,8.48,8.48,0,0,0-1.78-.78,5.6,5.6,0,0,0-3.77.45,13.34,13.34,0,0,1-1.78.88C12.39,9.84,10,8.17,9,10.84c-.33,1-.44,1.89-.67,2.88A2.68,2.68,0,0,1,6.51,16a2.25,2.25,0,0,1-2-.56C3,14.06,3.18,11.61,2.18,10,1.51,8.73-.38,8,.07,6.4A5.93,5.93,0,0,1,2.4,3.51,17.49,17.49,0,0,1,7,1.18,19.9,19.9,0,0,1,17.17.29a14.61,14.61,0,0,1,6.11,2.33,5.51,5.51,0,0,1,2,2.22A3.69,3.69,0,0,1,25.72,7.73Zm-1.11-.22a1.83,1.83,0,0,0,.33-1.67c-.44-2.66-3.66-4-6-4.66A20,20,0,0,0,5.06,2.51C3.73,3.18.4,4.62.73,6.62a4.13,4.13,0,0,0,.78,1.55,7.17,7.17,0,0,1,1.56,2.45,16.11,16.11,0,0,0,1,3c.45.78,1.67,1.89,2.56,1s.78-1.88,1-2.88A5,5,0,0,1,9.17,9a3.21,3.21,0,0,1,3-.44,2.78,2.78,0,0,0,1.89,0,9.2,9.2,0,0,0,1.33-.78,5.69,5.69,0,0,1,2.22-1,5.06,5.06,0,0,1,2.56.44A12.09,12.09,0,0,0,22.39,8a2.35,2.35,0,0,0,1.89-.44.21.21,0,0,0,.33,0ZM16.17,41.93c-1,0-8.66.11-8.66-.55,0,0-.67-.56,8.66-.34C21.61,41.15,21.39,41.71,16.17,41.93ZM5.4,37c.11-1.11.22-2.22.22-3.33,0-2.22.22-4.44.22-6.66V17.28l-.11.11a.38.38,0,0,0-.22.11A.56.56,0,0,1,5,17.07H4.73v.33c-.11,2.11-.11,4.33-.22,6.33-.11,2.66-.33,5.11-.56,7.44-.11.55-.11,1-.22,1.44a15.31,15.31,0,0,0-.22,2.22,3.47,3.47,0,0,0,.33,1.45c.22.22.34.44.56.55s.22.23.33.23a2,2,0,0,0,.64.25A1.86,1.86,0,0,0,5.4,37Zm17.76-4.33c0-.44-.11-1-.11-1.44s-.11-1.11-.11-1.67v-.33a1.4,1.4,0,0,1-.11-.66c0-.12-.11-1.45-.11-1.89,0-.89-.11-1.89-.11-2.89a9.62,9.62,0,0,1-.11-1.78,27.26,27.26,0,0,1-.11-3v-2l-1,.05c0,.47,0,.93,0,1.39v3.11c0,2.11.11,4.22.22,6.33s.22,4.22.44,6.33c.11.91.21,1.84.31,2.78h0a1.58,1.58,0,0,0,.77-.89v-.11a3.73,3.73,0,0,0,.23-1.11A12.83,12.83,0,0,0,23.16,32.71Zm-1.33,1.56c-.22-2.11-.44-4.22-.66-6.22s-.34-4.22-.34-6.33c0-1-.11-2.11-.11-3.11V17.39h-.11a.82.82,0,0,1-.52-.2l-.72,0a.5.5,0,0,1-.37.13.43.43,0,0,1-.27-.1l-.35,0c.15.12.07.31.07.41a.25.25,0,0,1-.22.23.51.51,0,0,1-.56,0,.55.55,0,0,1-.24-.6h-.64a1.13,1.13,0,0,1-1.07.39,1,1,0,0,1-.54-.36c-.47,0-.95,0-1.43,0a.46.46,0,0,1-.47.33.47.47,0,0,1-.47-.34l-2,0-.06,0-.08,0c-.84,0-1.69-.05-2.53-.09a16.31,16.31,0,0,1,.22,3.14c-.12,2.22-.23,4.44-.45,6.77s-.44,4.67-.78,6.89C7,35.16,7,36.27,6.73,37.38v.08c.33,0,.69.07,1.11.14a28.11,28.11,0,0,0,3.33.22h3.11c1,0,2-.11,2.78-.11,1.44-.11,2.88-.22,4.22-.44h.11a2.61,2.61,0,0,0,.81-.17C22.06,36.17,21.93,35.23,21.83,34.27ZM9,27.05l-.33,4.33c-.11,1.45-.34,3-.56,4.44H8c0-1.44.33-2.88.45-4.22l.33-4.66c.22-2.89.33-5.89.33-8.77A80.08,80.08,0,0,1,9,27.05Zm1.5-8.36a.33.33,0,0,1,0-.66C10.79,18,10.79,18.69,10.45,18.69Zm2.78-.22a.34.34,0,0,1,0-.67C13.56,17.92,13.56,18.47,13.23,18.47Zm3.22,6.78a.35.35,0,0,1-.33.33.36.36,0,0,1-.34-.33.35.35,0,0,1,.34-.34C16.23,25,16.45,25.13,16.45,25.25ZM16,23.36a.22.22,0,1,1,0,.44A.22.22,0,1,1,16,23.36Zm-.23-1.11a.73.73,0,0,1-.44.55.76.76,0,0,1-.56-.44.76.76,0,0,1,.45-.56A.5.5,0,0,1,15.78,22.25Zm-.55,1.88c0,.12-.11.12-.22.12H14.9a.39.39,0,0,1-.34-.12c-.11,0-.11-.11-.11-.22V23.8a.47.47,0,0,1,.45-.44.85.85,0,0,0,.33.22A.31.31,0,0,1,15.23,24.13ZM15,19a.48.48,0,0,1-.45.44.45.45,0,0,1,0-.89A.48.48,0,0,1,15,19Zm-.67-1.56a.34.34,0,0,1,0,.67A.34.34,0,0,1,14.34,17.47ZM14,21.36h.22c.11,0,.11.11.11.22s-.11.11-.11.22a.4.4,0,0,1-.33-.11A.4.4,0,0,1,14,21.36Zm.55,7.55a.39.39,0,1,1,0,.78A.39.39,0,1,1,14.56,28.91Zm.34,6.44a.34.34,0,1,1,0-.67A.34.34,0,0,1,14.9,35.35Zm.44-3a.47.47,0,0,1-.44-.44.44.44,0,1,1,.88,0A.47.47,0,0,1,15.34,32.35Zm.89-3.77a.49.49,0,0,1-.45-.45.48.48,0,0,1,.45-.44c.22,0,.33.22.44.44A.48.48,0,0,1,16.23,28.58ZM19,20c-.11.11-.33,0-.44-.12s0-.33.11-.44a.21.21,0,0,1,.33,0c0,.11.12.22.12.33S19.12,20,19,20Zm.56,2a.22.22,0,1,1,0-.44C19.89,21.58,19.78,22,19.56,22Zm.22-3c-.22.11-.55.11-.66-.11v-.45c.11-.11.11-.22.33-.22.11-.22.33-.11.44.11S20,18.92,19.78,19Zm15,9.91a10,10,0,0,1-4.45,4.88,15.61,15.61,0,0,1-3.11,1.34,5,5,0,0,0-1.33.66,1.12,1.12,0,0,0-.44.56c0,.11-.11.22-.11.33a.85.85,0,0,0,.11.56h0l.33,2.66V40a2.87,2.87,0,0,1-.22,1.34.11.11,0,0,1-.11.11,2.51,2.51,0,0,1-1,1.11,2.57,2.57,0,0,1-1.22.33h-.12c-1.66.22-3.44.44-5.1.56-1,0-2.11.11-3.45.11H14a30.44,30.44,0,0,1-3.11-.11c-1.67-.12-2.89-.12-4.11-.23A15.3,15.3,0,0,0,4.62,43H4.4a4.17,4.17,0,0,1-1.56-.44c-.11-.11-.33-.11-.44-.22a2.11,2.11,0,0,1-.56-.78,2.6,2.6,0,0,1-.33-1.78l.33-2.66c.11-.56.11-1.11.23-1.78.33-2.78.55-5.66.77-9,.23-3,.34-6,.34-9.1,0-1.45.11-3,.11-4.55V12.5h.55v.11h0v1h0a26.32,26.32,0,0,1-.11,3.11c-.11,3.33-.22,6.11-.33,8.66-.11,2.89-.33,5.78-.67,8.56-.22,1.66-.33,3-.44,4.33v.11c-.11,1.11-.34,2.77.78,3.33A2.87,2.87,0,0,0,4.29,42h0a10.26,10.26,0,0,0,2.11.22c1.22.12,2.66.23,4.11.23h3.77c1.11,0,2.22,0,3.44-.11a41.72,41.72,0,0,0,5.11-.45h0a2.16,2.16,0,0,0,1.11-.33,1.27,1.27,0,0,0,.67-1c0-.22.11-.56.11-.78V39c0-.33-.11-.55-.11-.88a43.6,43.6,0,0,1-.45-4.34c-.33-2.88-.55-5.77-.66-8.55-.11-2.55-.22-5.33-.34-8.66,0-.89,0-2-.11-3.22V9h1v1.11c1.56,1.44,3.89,1.11,5.89,1.33a6.28,6.28,0,0,1,3,.89,4.71,4.71,0,0,1,1.77,2.11,6.52,6.52,0,0,1,.67,2.11,19.84,19.84,0,0,1,.56,5.66A30.63,30.63,0,0,1,34.83,28.94ZM24.05,21.05c0,1.23.11,2.34.11,3.56,0,.66.12,1.44.12,2.11.11,1.22.11,2.33.22,3.44,0,.11.11.11.11.22h0a.34.34,0,0,0,.22.11c.22,0,.44.11.67.11a5.44,5.44,0,0,0,1.33-.11,5.13,5.13,0,0,0,3.11-2.33,11.75,11.75,0,0,0,1.44-6.66,14,14,0,0,0-.44-3.67,3.44,3.44,0,0,0-1.56-2.33,7.53,7.53,0,0,0-3.11-.33,4.46,4.46,0,0,0-1.66.33,2.65,2.65,0,0,0-.89,1v1.22a31,31,0,0,1,.33,3.33Zm10.33-5a6.56,6.56,0,0,0-1.55-3A5.23,5.23,0,0,0,29.49,12c-1.77-.11-3.88,0-5.44-1a.4.4,0,0,1-.11.33h.11a13.55,13.55,0,0,0,4.11.89,6.76,6.76,0,0,1,3.56.67h0a25.09,25.09,0,0,0-4.22-.56,8,8,0,0,1-3.56-.89V13c0,.33.11.55.11.89a7.57,7.57,0,0,1,3.78-.67,4.38,4.38,0,0,1,3.89,2.33c.11.22,0,.22-.12.11-.77-1.55-2.55-1.89-4-1.89a7.37,7.37,0,0,0-3.45.56c0,.11.12.22.12.33h.11a6,6,0,0,1,3.44-.55,4.18,4.18,0,0,1,3,.89,4.79,4.79,0,0,1,1.44,2.88,25,25,0,0,1,.33,4.11,11.24,11.24,0,0,1-2,7,6.15,6.15,0,0,1-5.45,2.33v.33a6.28,6.28,0,0,0,6.22-3.11c.11-.22.22-.11.11.12-1.22,2.44-3.77,4.1-6.33,3.44v1a3.08,3.08,0,0,0,.23,1c7.33-2.11,9.1-4.33,9.44-10.77.11-1.34,0-2.78,0-4.11v-.11a12.84,12.84,0,0,0-.78-4h0a15.1,15.1,0,0,1,.89,4c0,.77.11,1.44.11,2.22v2.66a12.54,12.54,0,0,1-1,4.89c-1.78,3.88-6.89,4.77-8.44,5.66.11.11.11.33.22.45h0a7.8,7.8,0,0,1,2.22-1,13.13,13.13,0,0,0,5.11-3.34,11.16,11.16,0,0,0,2.11-6.77,45.69,45.69,0,0,0-.89-7.77ZM19.06,17c-.34,0-.45-.56,0-.56S19.39,17,19.06,17Zm-7.89-.23h0A.25.25,0,0,1,11,17h0a.25.25,0,0,1-.22-.23h0A.24.24,0,0,1,11,16.5h0C11,16.39,11.17,16.5,11.17,16.72Zm.11-1.33a.11.11,0,0,1-.11.11c-.11.11-.22,0-.33-.11h0c-.11-.11,0-.22.11-.33h.22C11.17,15.17,11.28,15.28,11.28,15.39Zm-1.11.67h0a.33.33,0,1,1-.66,0c0-.23.11-.34.33-.34h0C10.06,15.72,10.17,15.83,10.17,16.06Zm0-2.34a.33.33,0,1,1,0-.66A.33.33,0,1,1,10.17,13.72Zm-.33,1h0a.48.48,0,0,1-.45.45h0A.47.47,0,0,1,9,14.72H9a.45.45,0,0,1,.89,0ZM11,12.17c.22-.11.44-.11.55.11h0c.12.22.12.45-.11.56h0a.21.21,0,0,1-.33,0h0a.24.24,0,0,1-.22-.23c0-.11-.11-.11-.11-.22l.22-.22Zm.55-1.11h0a.33.33,0,1,1-.33-.33A.29.29,0,0,1,11.5,11.06Zm-.88-.67a.28.28,0,0,1,0-.55C11,9.84,11.06,10.39,10.62,10.39Zm6,6a.54.54,0,0,1-.22.67.6.6,0,0,1-.89-.23.66.66,0,0,1-.11-.44c0-.11.11-.22.11-.33l.11-.11a.11.11,0,0,0,.11-.12,1.4,1.4,0,0,1,.89.56ZM18,16a.33.33,0,0,1,0,.44h0c-.12.11-.23.22-.34.22a.83.83,0,0,1-.44-.22h0a.33.33,0,0,1,0-.44c0-.12.11-.12.22-.23s.44,0,.56.23Zm-1.11-.56c-.45,0-.56-.78,0-.78S17.28,15.39,16.84,15.39ZM5.18,17.72H5c-.11,0-.11-.11-.11-.22v-.11c.11-.11.22-.22.34-.11h0c.11,0,.11.11.11.22h0C5.4,17.61,5.29,17.72,5.18,17.72Zm15.65-2.88h0a.47.47,0,0,1-.44.44.45.45,0,1,1,0-.89C20.61,14.5,20.83,14.61,20.83,14.84Zm-1-1.23c.11,0,.11.11.11.23s-.11.44-.33.44h0a.39.39,0,0,1-.44-.44c0-.23.22-.34.44-.34h0a.34.34,0,0,0,.22.11Zm.45-.77h0c0,.22-.11.33-.34.44h0c-.22,0-.33-.11-.44-.33h0c0-.22.11-.34.33-.45h0A.34.34,0,0,1,20.28,12.84Zm.89-.78a.11.11,0,0,0-.11.11c-.12,0-.34,0-.34-.22s0-.34.22-.34a.39.39,0,0,1,.34.12h0c.11,0,.11.11.11.22S21.28,12,21.17,12.06Zm-2.89,5.22h0a.29.29,0,0,1-.33.33c-.23,0-.34-.11-.34-.33S17.72,17,18,17A.29.29,0,0,1,18.28,17.28Zm2.89-.89a.54.54,0,0,1-.56.56.62.62,0,0,1-.44-.12c-.11-.11-.23-.22-.23-.33A.53.53,0,0,1,20.5,16h0a.66.66,0,0,1,.44.11C21.06,16.06,21.17,16.17,21.17,16.39ZM18.39,38.93a31.67,31.67,0,0,1-4.55.34h0a31.81,31.81,0,0,1-4.56-.34,15.24,15.24,0,0,1-4.44-1.11v-.11a13.68,13.68,0,0,1,2.22.22c.67.11,1.34.11,2,.23,1.56.11,3.11.22,4.67.22s3-.11,4.44-.22a15.37,15.37,0,0,1,2.22-.23,15.18,15.18,0,0,1,2.22-.22h0v.11h0A17.86,17.86,0,0,1,18.39,38.93Z"/></g></g></svg>