<svg xmlns="http://www.w3.org/2000/svg" viewBox="0 0 49.6 49.6"><defs><style>.cls-1{fill:#e3eaea;}.cls-2{fill:#edf1f1;}.cls-3{fill:#b69564;stroke:#b69564;}.cls-4{fill:#71677a;}.cls-5{fill:#df9996;}.cls-6{fill:#fff;}.cls-7{fill:#ead7bb;}.cls-8{fill:#f3d1a2;}.cls-9{fill:#c17e7e;}.cls-10{fill:#322722;}</style></defs><g id="圖層_2" data-name="圖層 2"><g id="_0-ori" data-name="0-ori"><g id="圖層_2-2" data-name="圖層 2"><g id="圖層_1-2" data-name="圖層 1-2"><g id="Outline"><path id="Path_64394" data-name="Path 64394" class="cls-1" d="M48.9,24.8A24.1,24.1,0,1,1,24.8.7,24.1,24.1,0,0,1,48.9,24.8Z"/><path id="Path_64395" data-name="Path 64395" class="cls-2" d="M27.6,3.5A24.11,24.11,0,0,0,9.3,43.3,24.13,24.13,0,0,0,43.1,9.1,24.62,24.62,0,0,0,27.6,3.5Z"/><path id="Path_64396" data-name="Path 64396" class="cls-3" d="M24.8.5A24.3,24.3,0,1,0,49.1,24.8h0A24.34,24.34,0,0,0,24.8.5Zm0,.4A23.9,23.9,0,1,1,.9,24.8,23.9,23.9,0,0,1,24.8.9Z"/></g></g></g><path class="cls-4" d="M25.41,4.81H25a12.29,12.29,0,0,0-2.7.2L19,6.21c-2.2,1.2-4.6,2.2-6.1,4.2-1.1,1.4-1,3.2-.9,4.9,0,.9.6,1.6.8,2.5a19.81,19.81,0,0,0,.8,3.3c.3,1.1,1,2,1.4,3.1a3.51,3.51,0,0,0,1.2,2c.5.6,1.2,1.1,1.7,1.8a4,4,0,0,0,.1,3.2,3,3,0,0,0,2.4,1.5c.4-.1.8.1.8.5a9.93,9.93,0,0,1-.5,4.2c-.2.3-.2.7-.5.9a1.06,1.06,0,0,0-.8.9c-.9,1.3-2.2,2.2-3.1,3.5-.2.2.2.2.3.1.8-.7,1.4-1.5,2.1-2.2.3-.2.6-.8,1.1-.7s.8.1,1.2.3a1.17,1.17,0,0,0,1,.9.76.76,0,0,1,.8.6c.2.6,1,.5,1.5.3s.5.3.8.5c.4.4,1-.1,1.5.1a.8.8,0,0,0,1.1.2c.4,0,.6-.5,1-.6.4.2.8.5,1.2.3.5,0,.5-.7,1-.7.5.3.9-.1,1.3-.5.2-.1.1-.4.3-.5a6.7,6.7,0,0,1,1.8,1.1,5,5,0,0,0,3.1,1.2c-.2-.3-.7-.4-1.1-.6-1.5-.7-3.2-1.3-4-2.8-.5-.6-.2-1.4-.3-2.2a16.15,16.15,0,0,1,.2-3.1c.4-.6,1.1-.9,1.6-1.4,1.1-.8,1.4-2.3,1.7-3.5.6-2.3.6-4.7,1-7,.2-.7-.1-1.5.4-2.1a7.36,7.36,0,0,0,.3-3.9,27,27,0,0,0-.7-4.1,9.09,9.09,0,0,0-2.8-3.9c-.8-.5-1.4-1.3-2.2-1.9a6.2,6.2,0,0,0-2.9-1.2,8.12,8.12,0,0,0-3.2-.6Zm-6.2,23.5c.1,0,.3.1.4.1s.5.1.5.4a14.17,14.17,0,0,0,.8,1.8c.1.1.2.3,0,.4a2.45,2.45,0,0,1-1.6-.6,1.53,1.53,0,0,1-.4-1.7c.2-.1.1-.3.3-.4Z"/><path class="cls-5" d="M30.21,29.51c-.2,0-.5.1-.5.4h-.6l.1-.1a.71.71,0,0,0-.6-.3,1.93,1.93,0,0,0-1,.3c-.1,0-.3.2-.1.2a2.77,2.77,0,0,0,.9.1c-.3.1-.4.3-.4.4,0,.3.8.6,1.8.6s1.8-.3,1.8-.6-.3-.4-.7-.5c.1,0,.1,0,.2-.1s-.2-.3-.4-.3-.4-.1-.5-.1Z"/><path class="cls-6" d="M24.91,21.71c-1,0-1.8.3-1.8.6s.8.6,1.8.6,1.8-.3,1.8-.6-.8-.6-1.8-.6Zm8,.1c-1,0-1.8.3-1.8.6s.8.6,1.8.6,1.8-.3,1.8-.6-.8-.6-1.8-.6Z"/><path class="cls-7" d="M32.41,13.11h0c-.5.4-.5,1.1-.9,1.5-1.1,1.3-2.8,1.9-4.3,2.6-1,.5-2.1.8-3.2,1.3a11.42,11.42,0,0,0-2.2,1.2,4.13,4.13,0,0,1-1.1.7,7.68,7.68,0,0,1-1.6,1.5,1,1,0,0,0-.5.4.91.91,0,0,0-.3.7,8.63,8.63,0,0,0,.4,2.8c-.3,0-.4-.4-.5-.7a11.27,11.27,0,0,1-.3-1.8c-.2-.1-.3.2-.5.3-.3.4-.1,1,0,1.4a5.83,5.83,0,0,0,.8,1.8c.3.2.6,0,.9-.1s.4-.3.3-.5a34.31,34.31,0,0,1-.6-3.4c0-.1,0-.2.1-.1a18.32,18.32,0,0,1,.9,3.9,11.56,11.56,0,0,0,.7,3.1,5.43,5.43,0,0,0,.9,1.5c0,.2.3.2.4.4a12.4,12.4,0,0,0,6.4,3.1,4.12,4.12,0,0,0,2.2-.1c.5-.3.9-.7,1.4-1a13.72,13.72,0,0,0,1.8-1.6,6.82,6.82,0,0,0,1-2.7,44.62,44.62,0,0,0,.7-5.1,24.5,24.5,0,0,0,.4-3.8c-.1-.7-.8-1.1-1.2-1.7a13.55,13.55,0,0,0-1-2.1c-.6-1.1-.7-2.4-1.4-3.4.4-.1.4-.1.3-.1Zm1.2,6.4a4.42,4.42,0,0,1,1.5.5c.1.1.3.2.1.2,0,.1,0,.2-.2.1a4.66,4.66,0,0,0-2-.6,8.43,8.43,0,0,0-1.4.6,1.49,1.49,0,0,1-.7.3c0-.3.4-.4.6-.5a6.72,6.72,0,0,1,1.2-.6Zm-8.6.2a4.24,4.24,0,0,1,1.9.6,6.89,6.89,0,0,1,.8.3c-.1.1-.2.3-.3.1l-1.5-.6a2.74,2.74,0,0,0-2,.1c-.4.1-.7.5-1.1.5,0-.3.4-.5.6-.6a5.35,5.35,0,0,1,1.6-.4Zm5.2,1.6a3.4,3.4,0,0,1,.1,1,23,23,0,0,0,1,3.5c-.3-.1-.4-.5-.5-.7a11.22,11.22,0,0,1-.8-2.6,1.72,1.72,0,0,1,.2-1.2Zm-5,.2a3,3,0,0,1,1.8.6c.2.3-.2.5-.4.6a2.47,2.47,0,0,1-1.9.4,2.43,2.43,0,0,1-1.8-.9c0-.2.3-.3.5-.4a11.27,11.27,0,0,1,1.8-.3Zm8.1,0a2.19,2.19,0,0,1,1.7.7c.1.3-.3.4-.4.6a3,3,0,0,1-1.9.4,2.43,2.43,0,0,1-1.8-.9c.1-.2.4-.3.6-.4a3.66,3.66,0,0,1,1.8-.4Zm-1.8,5.2h0c.2,0,.1.3,0,.4-.2.3-.4.6-.8.6a4.5,4.5,0,0,1-2,0c-.4,0-.9.2-1.1-.3,0-.1-.1-.4,0-.5.2.2.3.6.7.5a3.18,3.18,0,0,1,1.4.2,2.92,2.92,0,0,1,.9-.2c.3,0,.7-.1.7-.4s.1-.3.2-.3Zm1.5,2.4c.1.1-.1.2-.2.2-.4.4-1,.5-1.5.9-.1.2.3.2.2.3a2.33,2.33,0,0,1-1.2.8,3.8,3.8,0,0,1-2.1-.2,1.34,1.34,0,0,1-.8-.7c-.5-.3-1.2-.4-1.7-.7,0-.1,0-.2.1-.2.4.1.8.3,1.1.1a4.48,4.48,0,0,1,2-.4c.3,0,.6.4.8.1.4-.3,1,.1,1.4.1a5,5,0,0,0,1.9-.3Zm-11.6,2.4h0a20.83,20.83,0,0,0,0,2.5,7.78,7.78,0,0,1-.8,4c-.2.2,0,.4.2.5s.4.6.6.9c.4.1.9-.1,1.2.2.3.1.2.5.5.6s1,0,1.2.4c.2.2.2.6.5.6a2,2,0,0,1,1.1-.2c.1.1.3.5.5.3a1.37,1.37,0,0,1,1.5-.2c.2.1.2.5.5.4a1,1,0,0,1,1.2-.6c.2,0,.4.3.5,0s.2-.7.6-.8.6-.1.9-.2c0-.3-.2-.5-.2-.8a14.47,14.47,0,0,1,.1-3.6,3.35,3.35,0,0,0,0-1c-.2-.1-.4.2-.6.3a3.52,3.52,0,0,1-2.5.3,17.52,17.52,0,0,1-5.3-2.2,21,21,0,0,1-1.7-1.4Z"/><path class="cls-8" d="M27,9.61h-.4a26.29,26.29,0,0,0-3.9.6,4.45,4.45,0,0,0-2,.8,4.7,4.7,0,0,1-.6.9,16.41,16.41,0,0,0-1.6,2.9c-.4.8-.6,1.8-1.1,2.6-.2.9-.8,1.7-1,2.6s-.8,1.9-1,2.9a3,3,0,0,0,.6,2.6,11.38,11.38,0,0,0,1.9,1.9c.3.2.4-.3.2-.4a6.78,6.78,0,0,1-.9-3.7,7.22,7.22,0,0,1,.8-3.2,8.75,8.75,0,0,1,2.2-3.2c1.5-1.5,3.2-2.7,4.7-4.1a21.16,21.16,0,0,1,2-1.2,4.29,4.29,0,0,1,2.5-.4,6.28,6.28,0,0,1,3.2,1.2,3.92,3.92,0,0,0,1,.8,7.65,7.65,0,0,1,2.2,3.9,22.11,22.11,0,0,0,.5,2.5c.1.3.3-.1.3-.2a5.8,5.8,0,0,0,0-3.2,9.53,9.53,0,0,0-1.3-2.9,8.55,8.55,0,0,0-2.8-2.2,4.89,4.89,0,0,0-2.8-1.1,12.59,12.59,0,0,0-2.7-.4Zm-7.3,18a.54.54,0,0,0-.3.4c.1.1.3.2.4.1s.1-.5-.1-.5Z"/><path class="cls-5" d="M26.71,6.61a35.6,35.6,0,0,0-4.7,1,16,16,0,0,0-3.7,1.2c-.7.1-1.1.8-1.5,1.2a10.38,10.38,0,0,0-1.2,1.7,5.31,5.31,0,0,0-.8,1.7c.1.3.4-.1.6-.2a38,38,0,0,1,4.9-2.6c1.2-.5,2.6-.7,3.9-1.1a13.09,13.09,0,0,1,4.4-.3,8.76,8.76,0,0,1,3.2.7,15.67,15.67,0,0,1,3,2,7.49,7.49,0,0,1,1.5,2c.3.1.2-.3.1-.5a7.1,7.1,0,0,0-1.3-3.1,8.39,8.39,0,0,0-3.3-2.9,11.09,11.09,0,0,0-4-.9,4.91,4.91,0,0,1-1.1.1Z"/><path class="cls-8" d="M24.51,5.11a5.51,5.51,0,0,0-3.5,1,13.77,13.77,0,0,0-2.6,2.2c0,.3.4,0,.6,0,1.5-.4,3.1-.8,4.6-1.3a16,16,0,0,0,2.1-.5,9.85,9.85,0,0,1,4.8.4c.3,0,.6.3.9.1a4.45,4.45,0,0,0-1.8-1,28.17,28.17,0,0,0-3.1-.7,7.14,7.14,0,0,0-2-.2Z"/><path class="cls-6" d="M32.91,21.61c-1,0-1.8.3-1.8.7s.8.7,1.8.7,1.8-.3,1.8-.7-.7-.7-1.8-.7Zm-7.9.1c-1,0-1.8.3-1.8.7s.8.7,1.8.7,1.8-.3,1.8-.7-.8-.7-1.8-.7Z"/><path class="cls-9" d="M20.61,38.41a.71.71,0,0,0-.8.7,1.27,1.27,0,0,0,.9.7c.3,0,.7-.4.4-.7-.1-.2,0-.5-.3-.6a.35.35,0,0,1-.2-.1Zm1.6,1c-.4,0-.8.2-.8.6a1.27,1.27,0,0,0,.9.7c.3,0,.7-.4.4-.7-.1-.2,0-.5-.3-.6-.1.1-.1,0-.2,0Zm9.1.6a.71.71,0,0,0-.8.7c0,.5.2,1,.9.7.3,0,.7-.4.4-.7-.1-.2,0-.5-.3-.6-.1,0-.1-.1-.2-.1Zm-7.6.3a1,1,0,0,0-1,.7,1.45,1.45,0,0,0,1,.7c.4,0,.8-.4.5-.7-.1-.2,0-.5-.3-.6-.1,0-.1-.1-.2-.1Zm1.9.6a.71.71,0,0,0-.8.7,1.27,1.27,0,0,0,.9.7c.3,0,.7-.4.4-.7-.1-.2,0-.5-.3-.6a.35.35,0,0,0-.2-.1Zm3.9,0a.71.71,0,0,0-.8.7,1.27,1.27,0,0,0,.9.7c.3,0,.7-.4.4-.7-.1-.2,0-.5-.3-.6-.1,0-.1-.1-.2-.1Zm-2,0c-.4,0-.9.3-.9.7a1.59,1.59,0,0,0,1,.8.57.57,0,0,0,.5-.8c-.1-.2,0-.6-.3-.6s-.2-.1-.3-.1Z"/><path class="cls-10" d="M25.11,4.71h-.4a4.1,4.1,0,0,0-1.1.1,5.65,5.65,0,0,0-2.4.6,1.9,1.9,0,0,1-.9.3c-.1,0-.2,0-.2.1H20a1,1,0,0,0-.4.1,1.69,1.69,0,0,1-.5.2c-.1,0-.3.2-.6.3a2.8,2.8,0,0,1-.8.5l-.4.2c-.7.4-1.2.6-1.9,1a8.93,8.93,0,0,0-2.6,2.3.22.22,0,0,1-.2.2c-.1,0-.2.3-.3.5a7.14,7.14,0,0,0-.5,1.7c0,.3-.1.7-.1.9.1,1.2.1,1.4.1,1.6s.1.3.1.4a5.39,5.39,0,0,0,.3,1,.35.35,0,0,0,.1.2,4.71,4.71,0,0,0,.2.5,2.35,2.35,0,0,1,.2.8c0,.2.1.6.1.8a16.7,16.7,0,0,0,.6,2c.1.1.1.1.1.2a2.83,2.83,0,0,0,.3.6,3,3,0,0,0,.3.6.1.1,0,0,0,.1.1,5.2,5.2,0,0,0,.3.5c.1.3.3.5.3.6a.31.31,0,0,1,.1.2c0,.3.2,1,.2,1.1a1.87,1.87,0,0,1,.3.4,2.65,2.65,0,0,0,.5.6c.6.6.7.7.7.8l.6.6c.3.3.6.5.6.6a.49.49,0,0,1-.1.3,3.64,3.64,0,0,0,.4,3.2,3.65,3.65,0,0,0,1.3,1c.5.2.5.3,1,.3s.6,0,.7.4a8.62,8.62,0,0,1-.6,4.2l-.1.1a.31.31,0,0,1-.1.2.37.37,0,0,0-.1.3c0,.2-.1.2-.3.3s-.6.3-.6.4v.1c0,.1-.1.2-.1.3s-.1.3-.3.5l-.5.5c-.7.7-.9.9-1,.9l-.2.2c-.1.1-.4.5-.7.8a1.41,1.41,0,0,0-.5.6c0,.1.2.1.3.1h.1a.1.1,0,0,0,.1-.1c0-.1.2-.3.4-.5s.4-.5.5-.6l.3-.3a9,9,0,0,0,.9-1c.1-.2.5-.4.7-.6a.19.19,0,0,1,.3,0,1.34,1.34,0,0,0,.8.2h.3v.2c0,.1.1.2.1.3a1.33,1.33,0,0,0,.6.5h.5c.2,0,.2,0,.2.2s.2.3.3.5a.71.71,0,0,0,.6.3,1.4,1.4,0,0,0,.9-.3c.1-.1.2-.1.3.2a1.24,1.24,0,0,0,.2.3.1.1,0,0,1,.1.1c.1.1.6.2.7.1a1,1,0,0,1,.3-.1c.3-.1.3-.1.4,0s.4.4.6.4H27c.3-.1.7-.3.6-.4h0a.35.35,0,0,1,.2-.1l.2-.1.2.2c.1.1.2.2.2.1h.1c.4.3,1.2-.1,1.3-.6,0-.1.1-.1.3-.1a1,1,0,0,1,.3.1h.2a.77.77,0,0,0,.3-.1,1.68,1.68,0,0,0,.7-.8v-.2l.5.3c1.2.6,2.8,2,4.2,2.1.3,0,.3,0,.3-.1s0-.1-.1-.1h-.2a.1.1,0,0,1-.1-.1c0-.1-.1-.1-.2-.1a.35.35,0,0,1-.2-.1c-1.6-.7-3-1.2-4-2.4a1.46,1.46,0,0,1-.5-.8V39a.35.35,0,0,1-.1-.2,17.07,17.07,0,0,1,0-3.2v-.7c0-.6.1-.9.4-1.1.1-.1.3-.2.4-.3a2.18,2.18,0,0,1,.5-.4c.5-.4,1.4-1,1.5-1.6a.31.31,0,0,1,.1-.2,4.17,4.17,0,0,0,.5-1.4,2,2,0,0,0,.1-.7c0-.1.1-.4.1-.6s.1-.5.1-.6c.1-.4.3-1.5.3-1.6v-.3a2.79,2.79,0,0,0,.1-1,2.2,2.2,0,0,1,.1-.8c0-.5.3-1.9.3-2s.2-1.2.2-1.6,0-.4.1-.5.3-.3.4-.7a.77.77,0,0,1,.1-.3,8.15,8.15,0,0,0,0-2.7,21.09,21.09,0,0,1-.4-3.3V13a.31.31,0,0,0-.1-.2v-.2a5.13,5.13,0,0,0-.5-1.2.49.49,0,0,1-.1-.3s-.6-1-.7-1.1l-.2-.2c-.2-.3-.3-.4-.6-.8-.2-.2-.3-.4-.4-.4a3.13,3.13,0,0,0-1.1-.8,1.58,1.58,0,0,1-.7-.7c-.1-.1-.2-.3-.3-.4a2.83,2.83,0,0,0-.6-.5l-.2-.2c.3.1.2,0,.2,0h0a1.24,1.24,0,0,0-.3-.2c-.1-.1-.3-.1-.3-.2a7.39,7.39,0,0,0-1.9-.5A1,1,0,0,1,28,5a.35.35,0,0,0-.2-.1h-.2a14.73,14.73,0,0,0-2.5-.2Zm-.3.4h1a.77.77,0,0,1,.3.1c.2,0,.3,0,.4.1h.1a1,1,0,0,1,.4.1c.2.1.6.1.8.2a3.55,3.55,0,0,1,.7.1h.1a.31.31,0,0,1,.2.1c.1,0,.2.1.3.1a.37.37,0,0,1,.3.1.31.31,0,0,0,.2.1,2.83,2.83,0,0,1,.6.3q.9.45.9.6c0,.1-.3,0-.5-.1s-.2-.1-.3-.1-.4-.1-.6-.1a1.08,1.08,0,0,0-.7-.3h-.4a8.87,8.87,0,0,0-1.3-.1,4.57,4.57,0,0,0-2,.2,2,2,0,0,0-.5.1c-.1.1-.5.1-.7.1h-.2a1,1,0,0,1-.3.1c-.1,0-.4.1-.6.1a3,3,0,0,1-1.1.3c-.1.2-.2.2-.2.2s-.2.1-.3.1-.2.1-.3.1a.6.6,0,0,1-.4.1c-.1,0-.3,0-.3.1s-.1.1-.2,0h-.1c-.1.1-.3.1-.7.2a2.07,2.07,0,0,0-.6.2,1.69,1.69,0,0,1-.5.2v-.1c0-.1,0-.1.1-.1l.2-.2,1-1a2.19,2.19,0,0,1,.5-.3c.1-.1.4-.2.5-.4s.3-.3.3-.2H21a1.61,1.61,0,0,1,.7-.4.1.1,0,0,0,.1-.1c0-.1.5-.3.7-.2s.1,0,.1-.1a.35.35,0,0,1,.2-.1.37.37,0,0,0,.3-.1,4.33,4.33,0,0,1,.5-.1,1,1,0,0,0,.4-.1c-.2.2.3.2.8.2Zm-4.9,1.2h0c.1.1,0,.1,0,.1s-.3.2-.9.7a14,14,0,0,0-2.9,3.2,11.52,11.52,0,0,1-.7,1.1,5.62,5.62,0,0,0-.7,1.3,4.12,4.12,0,0,0-.3.8,1.69,1.69,0,0,0-.2.5c0,.1-.1.2-.1.3a2.6,2.6,0,0,0-.3.7,4.2,4.2,0,0,0-.2.5c-.2.4-.2.6-.4,1.1a1,1,0,0,1-.1.3c0,.1-.3-.3-.3-.4s0-.2-.1-.2a5.42,5.42,0,0,1-.2-1.7c0-.2,0-.5-.1-.5a4.33,4.33,0,0,0-.1-.5s.1-.5.2-1.2c0-.1.1-.3.1-.4a.37.37,0,0,0,.1-.3c0-.1,0-.2.1-.2a.35.35,0,0,1,.1-.2,2.31,2.31,0,0,1,.5-.7l.2-.2a6,6,0,0,1,1.2-1.1l.2-.2c.1-.1.3-.2.4-.3a1.24,1.24,0,0,0,.3-.2,29.51,29.51,0,0,0,2.7-1.5h0a5.9,5.9,0,0,0,.8-.4c.1-.3.6-.4.7-.4Zm6.9.4h.7a5.7,5.7,0,0,0,1.3.1,2,2,0,0,1,.5.1.35.35,0,0,1,.2.1h.2a1,1,0,0,0,.4.1,1,1,0,0,1,.4.1h.1a.77.77,0,0,1,.3.1.6.6,0,0,0,.4.1c.1,0,.2.1.4.1.3.2,1.4.9,1.6,1a11.6,11.6,0,0,1,1.6,1.7,1.73,1.73,0,0,0,.3.4,3.29,3.29,0,0,1,.3.6.37.37,0,0,1,.1.3,3.36,3.36,0,0,1,.5,1.4,2,2,0,0,0,.1.5c.1.5.1.7,0,.7l-.1-.1c0-.1,0-.2-.1-.2l-.2-.4a1.24,1.24,0,0,0-.2-.3c-.1,0-.3-.4-.3-.4a10.57,10.57,0,0,0-1.5-1.4c-.2-.1-.4-.3-.5-.3a1.44,1.44,0,0,1-.3-.2c-.1-.1-.4-.2-.5-.3-.3-.3-.5-.4-.6-.4s-.1,0-.1-.1-.8-.4-.9-.4a.31.31,0,0,1-.2-.1,2.87,2.87,0,0,0-1.2-.2c-.3,0-.7-.1-.8-.1s-.4-.1-.6-.1a22.53,22.53,0,0,0-2.6,0c-.2,0-.5.1-.7.1s-.3.1-.4.1-.5.1-.5.2h-.1a1,1,0,0,0-.4.1c-.2,0-.5.1-.6.1s-.2,0-1,.3a4.5,4.5,0,0,1-.8.2,6.12,6.12,0,0,0-1.2.5,25.36,25.36,0,0,0-3.9,2.1c0,.1-.1.1-.2.1a.1.1,0,0,0-.1.1.1.1,0,0,1-.1.1.31.31,0,0,0-.2.1,6.13,6.13,0,0,1-.6.4c-.1,0,0-.1.1-.5a3.33,3.33,0,0,1,.3-.6l.2-.2.2-.4a5.2,5.2,0,0,0,.3-.5.35.35,0,0,1,.1-.2c.1-.1.1-.1.1-.2a.1.1,0,0,1,.1-.1.75.75,0,0,0,.3-.3q.15-.3.3-.3a.1.1,0,0,0,.1-.1,1.44,1.44,0,0,1,.2-.3c.1-.1.2-.3.3-.3l.3-.3A1.38,1.38,0,0,0,18,9a1,1,0,0,1,.3-.1.71.71,0,0,0,.6-.3,1.58,1.58,0,0,1,.8-.3c.2-.1.5-.1.7-.2a1,1,0,0,0,.4-.1.49.49,0,0,0,.3-.1.6.6,0,0,1,.4-.1h.2l1.2-.3c.1-.1.4-.1.4-.2a.37.37,0,0,0,.3-.1,4.5,4.5,0,0,0,.8-.2,4.5,4.5,0,0,1,.8-.2c.1,0,.4-.1.6-.1Zm-.1,2.9h0a.77.77,0,0,0,.3.1c.5,0,.8,0,.9.1a5.14,5.14,0,0,0,1.6.2,2.33,2.33,0,0,1,1.1.2l.4.2a2.19,2.19,0,0,1,.5.3.31.31,0,0,0,.2.1,9.82,9.82,0,0,1,1,.7h.1a9.41,9.41,0,0,1,.8.5,9.12,9.12,0,0,1,1.7,1.7,11.49,11.49,0,0,1,1.4,3.8,4.74,4.74,0,0,1-.4,2.3c-.1,0-.1-.2-.2-.5a3,3,0,0,0-.2-.9,9,9,0,0,1-.3-1.6c0-.1,0-.1-.1-.1a.44.44,0,0,1-.1-.3c0-.2-.1-.3-.1-.4s-.2-.4-.4-.7a2.83,2.83,0,0,1-.3-.6.1.1,0,0,1-.1-.1,1.44,1.44,0,0,0-.2-.3c-.1-.1-.2-.2-.1-.2a.1.1,0,0,0-.1-.1.35.35,0,0,1-.1-.2c0-.1,0-.1-.1-.1l-.2-.2A1.16,1.16,0,0,0,33,13a.1.1,0,0,1-.1-.1.45.45,0,0,0-.3-.3c-.1,0-.2-.2-.2-.2a.1.1,0,0,0-.1-.1.1.1,0,0,1-.1-.1,2.36,2.36,0,0,0-1.1-.6c-.3-.1-.6-.3-.7-.3a.37.37,0,0,0-.3-.1.6.6,0,0,1-.4-.1,3.11,3.11,0,0,0-1.1-.1,3.18,3.18,0,0,0-1.4.2,6.43,6.43,0,0,0-2.3,1.3.31.31,0,0,1-.2.1.31.31,0,0,0-.2.1,1.87,1.87,0,0,1-.4.3c-.2.1-.4.4-.6.5-.4.4-.7.6-1,.9-.2.1-.3.3-.4.3a8.11,8.11,0,0,1-.8.6,12.44,12.44,0,0,0-1.5,1.3.75.75,0,0,1-.3.3l-.2.2c-.2.2-.4.5-.6.7a7.46,7.46,0,0,0-.9,1.5c-.3.7-.3.8-.4.9a4.78,4.78,0,0,0-.5,1.2c0,.2-.1.6-.1.8a2,2,0,0,1-.1.5,7.74,7.74,0,0,0,.1,2.1,1.09,1.09,0,0,1,.1.5c.1.2.1.4.3.8a4.43,4.43,0,0,0,.5.9c.1.1.1.1,0,.2s-.1.1-.4,0A1.44,1.44,0,0,0,17,27a.1.1,0,0,0-.1-.1c-.1,0-.4-.3-.6-.6-.1-.1-.3-.4-.5-.6a2.47,2.47,0,0,1-.8-1.6,1.21,1.21,0,0,0-.1-.5,1.75,1.75,0,0,1,.1-.5,4.07,4.07,0,0,1,.2-1,3.39,3.39,0,0,0,.3-.8,4.08,4.08,0,0,0,.2-.7.35.35,0,0,1,.1-.2.37.37,0,0,1,.1-.3c0-.1.1-.2.1-.3s0-.1.1-.1a3.81,3.81,0,0,0,.3-1c0-.1,0-.1.1,0h0a.31.31,0,0,1,.1-.2.31.31,0,0,0,.1-.2,1,1,0,0,0,.1-.3.37.37,0,0,0,.1-.3.49.49,0,0,1,.1-.3.49.49,0,0,0,.1-.3c0-.1,0-.1.1-.2s.4-.6.3-.6a.77.77,0,0,1,.1-.3c.1-.2.2-.3.2-.4v-.1A4.2,4.2,0,0,0,18,15a2.39,2.39,0,0,1,.3-.7,9.05,9.05,0,0,1,.6-1.1.37.37,0,0,0,.1-.3.35.35,0,0,1,.1-.2l.1-.1c0-.1,0-.1.1-.1s.4-.4.4-.6a.1.1,0,0,1,.1-.1.1.1,0,0,0,.1-.1,1.76,1.76,0,0,1,.4-.5c.1-.1.2-.2.2-.3s0-.1.1-.1a.37.37,0,0,0,.3-.1,4.6,4.6,0,0,1,1.3-.4.37.37,0,0,0,.3-.1.75.75,0,0,1,.5-.1,4.33,4.33,0,0,0,.5-.1,2.25,2.25,0,0,1,.7-.1,1,1,0,0,0,.4-.1,1.27,1.27,0,0,1,.6-.1.75.75,0,0,0,.5-.1h.5a.78.78,0,0,0,.5,0Zm-6.6,1.5c.1,0,.1,0,0,.1a.22.22,0,0,1-.2.2c-.1.1-.1.1-.1.2l-.2.4a3.11,3.11,0,0,1-.4.6A17.87,17.87,0,0,0,18,15c-.3.8-.3.9-.4.9V16l-.2.4a7.93,7.93,0,0,0-.4.9c-.1.3-.2.6-.3.6a2.51,2.51,0,0,0-.4.9,6.89,6.89,0,0,0-.3.8,6.89,6.89,0,0,0-.3.8c-.1.2-.1.5-.2.5a3.93,3.93,0,0,1-.2.6,3.57,3.57,0,0,1-.5,1.3c-.1,0-.4-.4-.4-.5l-.2-.4a1.69,1.69,0,0,1-.2-.5,4.33,4.33,0,0,1-.1-.5.44.44,0,0,0-.1-.3.44.44,0,0,1-.1-.3,1.42,1.42,0,0,1-.2-.6,1.09,1.09,0,0,1-.1-.5c0-.1,0-.2-.1-.2a2,2,0,0,1-.1-.5c0-.2,0-.5-.1-.6v-1.1a4.33,4.33,0,0,0,.1-.5.76.76,0,0,1,.2-.5.37.37,0,0,0,.1-.3c0-.2.1-.4.2-.4a.1.1,0,0,0,.1-.1.35.35,0,0,0,.1-.2.31.31,0,0,0,.1-.2h0a.1.1,0,0,0,.1-.1,8,8,0,0,1,1.3-1.3,1.44,1.44,0,0,0,.3-.2l.2-.2a22.85,22.85,0,0,1,3.1-1.6l.1-.1c.1,0,.1,0,.2-.1a.1.1,0,0,1,.1-.1.31.31,0,0,0,.2-.1c.2.4.3.3.5.3Zm8.6.4H29a7.5,7.5,0,0,0,1.2.1c.1,0,0,.1-.3.5a11.45,11.45,0,0,1-2.3,1.5,7.55,7.55,0,0,1-1.8.8c-.1,0-.2.1-.3.1a.76.76,0,0,0-.4.2c-.2.1-.7.3-1.1.5s-.9.4-1.1.5-1.2.7-1.4.9-.4.3-.6.5a5.31,5.31,0,0,0-1.1.9,1.73,1.73,0,0,1-.4.3c-.1,0,0-.1.2-.3,1-1,1.7-1.8,1.8-1.8s.2-.2.3-.2l.2-.2a.75.75,0,0,0,.3-.3l1.1-.9a.1.1,0,0,0,.1-.1.1.1,0,0,1,.1-.1l.2-.2c0-.1.2-.2.3-.3a2.18,2.18,0,0,1,.5-.4c.2-.2.3-.3.3-.2l.2-.2c.1-.1.2-.2.3-.2l.2-.2a1.44,1.44,0,0,1,.3-.2.35.35,0,0,0,.2-.1,1.44,1.44,0,0,0,.3-.2,3.33,3.33,0,0,1,.6-.3,2.28,2.28,0,0,1,1.1-.3h.3c.3-.1.3-.1.4-.1Zm2.1.5h0a.35.35,0,0,1,.2.1s-.6.9-.7,1a6.58,6.58,0,0,1-1.5,1.4,7.2,7.2,0,0,1-1.8,1c-.2.1-.5.2-.7.3a3.33,3.33,0,0,0-.6.3,8.43,8.43,0,0,0-1.4.6,3.39,3.39,0,0,1-.8.3c-.3.1-.6.3-.7.3a2.19,2.19,0,0,1-.5.3,11.3,11.3,0,0,0-2.8,1.8l-.4.4a3.61,3.61,0,0,0-.9.9c-.2.2-.2.2,0-.2a11.16,11.16,0,0,1,1.9-2.1,2.18,2.18,0,0,1,.5-.4c.2-.2.4-.4.5-.4s.3-.2.4-.3.3-.2.4-.3a.35.35,0,0,0,.2-.1.1.1,0,0,1,.1-.1l.2-.2c.1-.1.3-.2.4-.3a2.19,2.19,0,0,0,.5-.3c.2-.1.3-.2.4-.2s.2-.1.3-.1a3.29,3.29,0,0,0,.6-.3,4.2,4.2,0,0,0,.5-.2h.2c.1,0,.1,0,.1-.1s.1-.1.2-.1.2-.1.3-.1a.37.37,0,0,1,.3-.1c.2,0,.7-.2.7-.3a.35.35,0,0,1,.2-.1,1,1,0,0,0,.3-.1l.1-.1.4-.2a1.24,1.24,0,0,0,.3-.2.31.31,0,0,0,.2-.1.49.49,0,0,1,.3-.1l.1-.1c.1-.1.1-.1.2-.1a1.44,1.44,0,0,0,.3-.2c.1-.1.2-.2.3-.2l.4-.4c.6-.5.7-.6.8-.6Zm.7.3a.37.37,0,0,1,.3.1c.2.1.2.1.2.2a15,15,0,0,1-1.1,2.2.85.85,0,0,1-.5.3,1.44,1.44,0,0,1-.3.2,1.87,1.87,0,0,1-.4.3c-.6.3-.7.4-.8.4l-.1.1a3.93,3.93,0,0,0-.6.2,7.93,7.93,0,0,0-.9.4c-.7.2-.8.3-1.7.6-.5.2-1.1.4-1.3.5a4.2,4.2,0,0,0-.5.2l-.8.4a5.76,5.76,0,0,0-.9.5.52.52,0,0,1-.4.2,2.19,2.19,0,0,1-.5.3,3.11,3.11,0,0,1-.6.4.75.75,0,0,0-.3.3l-.4.4c-.6.5-1.1,1-1.4,1.3s-.4.3-.5.4a.31.31,0,0,1-.2.1.31.31,0,0,1,.1-.2,2.87,2.87,0,0,1,.8-1.3l1.3-1.3a1.24,1.24,0,0,1,.3-.2c.1-.1.2-.2.3-.2a.35.35,0,0,1,.2-.1.31.31,0,0,1,.2-.1.35.35,0,0,1,.2-.1c.1-.1.2-.2.3-.2s.2-.1.3-.2a10.24,10.24,0,0,1,2.1-1,10.37,10.37,0,0,0,1-.4,3.33,3.33,0,0,0,.6-.3c.2-.1.6-.2.6-.3a2.39,2.39,0,0,0,.7-.3s.1-.1.1,0a.31.31,0,0,0,.2-.1.31.31,0,0,1,.2-.1,11.4,11.4,0,0,0,1.9-1,.1.1,0,0,1,.1-.1,5.72,5.72,0,0,0,.8-.7.1.1,0,0,1,.1-.1.1.1,0,0,0,.1-.1c0-.1,0-.1.1-.1a2.16,2.16,0,0,0,.8-1c-.1-.1.2-.4.3-.5Zm.9.8.1.1a.31.31,0,0,1,.1.2,1,1,0,0,1,.1.4,6.89,6.89,0,0,0,.3.8v.1l.2.6a2.39,2.39,0,0,0,.3.7.6.6,0,0,1,.1.4.1.1,0,0,0,.1.1v.1a.31.31,0,0,0,.1.2.76.76,0,0,1,.2.5,1.69,1.69,0,0,1,.2.5.35.35,0,0,0,.1.2,2.12,2.12,0,0,0,.3.7c.1,0,.2.2.2.3s.2.3.4.5a1.25,1.25,0,0,1,.6,1.1c0,.4-.2,1.6-.3,2.2,0,.2-.1.6-.1.8s-.1.6-.1.8-.1.7-.1,1.1-.1.8-.1,1.1-.1.7-.1.9c-.1.4-.2,1-.4,2.2,0,.2-.1.5-.1.6a5.4,5.4,0,0,1-.4,1.2,2.94,2.94,0,0,1-1,1.2,2.65,2.65,0,0,0-.6.5,5.5,5.5,0,0,1-.9.7,6.13,6.13,0,0,0-.6.4c-.5.5-.8.6-1.8.5a8.81,8.81,0,0,1-1.7-.2,12.2,12.2,0,0,1-5.1-2.5l-.5-.5a.22.22,0,0,0-.1-.3h0a1.24,1.24,0,0,1-.2-.3c-.1-.1-.2-.3-.3-.4a12.89,12.89,0,0,1-.6-1.2c0-.1,0-.1-.1-.2a5.34,5.34,0,0,1-.4-1.8,7,7,0,0,0-.2-1.3,1,1,0,0,0-.1-.4,6,6,0,0,0-.2-1.2,1.49,1.49,0,0,1-.1-.6,3.81,3.81,0,0,0-.3-1c0-.1-.1-.3-.1-.4s-.2-.3-.2-.2,0,.6.1,1.3a4.4,4.4,0,0,1,.2,1,4.33,4.33,0,0,0,.1.5c0,.1.2,1,.2,1.1s-.1.1-.5.3-.5.2-.6.1a7.66,7.66,0,0,1-.9-2c0-.1-.1-.4-.1-.5v-.5c0-.1,0-.1.1-.1s.2-.1.3-.2l.1-.2v.3a1.27,1.27,0,0,0,.1.6c0,.1.1.4.1.5a3.54,3.54,0,0,0,.3,1.1c.1.1.2.2.3.2h.1c0-.1-.1-.6-.2-.6a1.21,1.21,0,0,1-.1-.5c0-.2-.1-.5-.1-.6a1,1,0,0,0-.1-.3v-.9c0-.1,0-.2.2-.4a1.44,1.44,0,0,0,.2-.3h0a2.09,2.09,0,0,0,.6-.4l.4-.4a4.32,4.32,0,0,0,1-1h0l.6-.4c.7-.5,1-.8,1-.7a.31.31,0,0,0,.2-.1.37.37,0,0,1,.3-.1,1,1,0,0,1,.3-.1.76.76,0,0,1,.4-.2.76.76,0,0,0,.4-.2c.1-.1.2-.2.3-.2s.2-.1.3-.1.2-.1.3-.1a.35.35,0,0,0,.2-.1c.1,0,.1,0,.2-.1a2.71,2.71,0,0,0,.8-.3,1.69,1.69,0,0,1,.5-.2.31.31,0,0,0,.2-.1,1.69,1.69,0,0,0,.5-.2,2.12,2.12,0,0,1,.7-.3.77.77,0,0,1,.3-.1.31.31,0,0,0,.2-.1,5.44,5.44,0,0,1,.8-.4,5.2,5.2,0,0,0,.5-.3c.3-.2.6-.3.7-.4a3,3,0,0,0,.9-.8c.1-.1.2-.2.3-.2a.35.35,0,0,0,.1-.2c0-.1.1-.2.1-.3a.31.31,0,0,0,.1-.2c0-.1,0-.2.1-.2s.1-.1,0-.1v-.1a.1.1,0,0,0,.1-.1.35.35,0,0,1,.1-.2Zm1,.5c.1,0,.3.2.5.5a1.44,1.44,0,0,1,.2.3,1.33,1.33,0,0,1,.3.5.35.35,0,0,1,.1.2,9.08,9.08,0,0,1,.7,1.4c0,.1.1.6.2,1.1s.2,1,.2,1.1V19c-.1.1-.2.1-.2-.1a.22.22,0,0,0-.2-.2,1.63,1.63,0,0,1-.3-.6,2.07,2.07,0,0,1-.2-.6.35.35,0,0,0-.1-.2,1.69,1.69,0,0,0-.2-.5,1.69,1.69,0,0,1-.2-.5.35.35,0,0,0-.1-.2L34,16a1,1,0,0,0-.1-.4,6.89,6.89,0,0,1-.3-.8,1.69,1.69,0,0,1-.2-.5.35.35,0,0,0-.1-.2.37.37,0,0,0-.1-.3c.1-.2.1-.2.2-.2Zm-9.6,1.8h0v0Zm9.4,4a1.69,1.69,0,0,0-.9.2c-.1,0-.3.2-.5.3a4.35,4.35,0,0,0-.7.4c-.3.2-.3.4-.2.4a.6.6,0,0,0,.4-.1.91.91,0,0,1,.5-.3.76.76,0,0,0,.4-.2,1.37,1.37,0,0,1,1.5-.2,1.75,1.75,0,0,0,.5.1.44.44,0,0,0,.3.1,1.06,1.06,0,0,0,.5.2c.2,0,.2,0,.2-.1s0-.1.1-.1h.1a.78.78,0,0,0-.4-.4c-.1,0-.1,0-.2-.1s-.1-.1-.2-.1a1,1,0,0,0-.4-.1c-.2.1-.3,0-.4,0h-.6Zm-8.3.2h-.1a4.42,4.42,0,0,0-1.9.7.37.37,0,0,0-.1.3c0,.1,0,.2.2.2s.2-.1.3-.1.1-.1.2-.1h.1c0-.1.6-.3,1-.4a2.2,2.2,0,0,1,1.4.1.49.49,0,0,0,.3.1.35.35,0,0,1,.2.1c.1,0,.3.2.6.2a4.2,4.2,0,0,1,.5.2c0,.1.1.1.2-.1s.2-.2.1-.2a1,1,0,0,0-.4-.1,1.34,1.34,0,0,0-.5-.1c-.1,0-.1,0-.1-.1l-.4-.2a3.68,3.68,0,0,0-1.6-.5Zm5.2,1.7c-.1,0-.1.1-.2.5,0,.2,0,.4-.1.4-.2.6,1.2,4.4,1.5,3.7-.3-.9-.8-2.1-1-3,0-.2-.1-.6-.1-.9,0-.5,0-.6-.1-.6.1-.1.1-.1,0-.1Zm3.1.1h-.5a2.43,2.43,0,0,0-1.1.3c-.1,0-.2.1-.3.1a.76.76,0,0,0-.4.2l-.2.2c0,.1.3.4.6.6a4.49,4.49,0,0,0,2.3.4,1.75,1.75,0,0,1,.5-.1s.1-.1.1,0a.1.1,0,0,0,.1-.1.1.1,0,0,1,.1-.1,3.91,3.91,0,0,0,.5-.4c.2-.2,0-.5-.6-.8a1.61,1.61,0,0,0-1.1-.3Zm-7.9,0h-.5a2.43,2.43,0,0,0-1.1.3c-.1,0-.2.1-.3.1a.76.76,0,0,0-.4.2l-.2.2c0,.1.3.4.6.6a4.49,4.49,0,0,0,2.3.4,1.34,1.34,0,0,1,.5-.1c.1,0,.1-.1.1,0a.1.1,0,0,0,.1-.1.1.1,0,0,1,.1-.1c.1,0,.3-.2.5-.4s0-.5-.6-.8a2,2,0,0,0-1.1-.3Zm8.4.5h0a2.19,2.19,0,0,1,.8.3c.1.1-.5.5-.7.5h-.1a.85.85,0,0,0,0-.8Zm-8,0h0a2.19,2.19,0,0,1,.8.3c.1.1-.5.5-.7.5h-.1a.6.6,0,0,0,.1-.4c.1-.1,0-.3-.1-.4Zm6.3.2c.1,0,.1,0,.1.1v.1a.37.37,0,0,0,.1.3H32a.76.76,0,0,1-.4-.2c-.2-.1-.2-.2-.1-.2s.1,0,.2-.1Zm-8,0c.1,0,.1,0,.1.1v.1a.37.37,0,0,0,.1.3H24a.76.76,0,0,1-.4-.2c-.2-.1-.2-.2-.1-.2s.1,0,.2-.1Zm7.6,4.5h-.1c-.1,0-.1.1-.2.3-.1.4-.2.5-.7.5-.3,0-.5,0-.6.1s-.3.1-.8,0a2.48,2.48,0,0,0-.9-.1c-.2,0-.2,0-.4-.2s-.2-.3-.3-.2,0,.4,0,.6a.76.76,0,0,0,.8.3c.4-.1.7.1,1.1.1s.5,0,.6-.1.3-.1.4-.1a1.09,1.09,0,0,0,.5-.1.89.89,0,0,0,.5-.4c.3-.4.3-.7.1-.7Zm-12.1.4c.2,0,.1.2-.2.5s-.3.4-.4.5a.76.76,0,0,1-.2.4,1.63,1.63,0,0,0-.1,1.2,3,3,0,0,0,.4,1c0,.1.2.2.3.3a1.69,1.69,0,0,0,.5.2c.1,0,.2.1.3.1s.2,0,.2.1h.1c.1-.1.1,0,.2,0a.35.35,0,0,1,.2.1c.1,0,.1.1.1.3,0,.4,0,.4-.4.4a6.37,6.37,0,0,1-.9-.2,1.24,1.24,0,0,0-.3-.2,8.74,8.74,0,0,1-1-.8,1.69,1.69,0,0,1-.2-.5v-.1a1.21,1.21,0,0,1-.1-.5,2.14,2.14,0,0,1,.1-1.4,1,1,0,0,0,.1-.4.35.35,0,0,0,.1-.2.31.31,0,0,0,.1-.2,1.28,1.28,0,0,1,.7-.5.76.76,0,0,1,.4-.1Zm.2.6a.35.35,0,0,1,.1.2c0,.2,0,.2-.1.2s-.2-.1-.1-.3l.1-.1Zm-.5.8a.1.1,0,0,1,.1.1,1,1,0,0,0,.3.1c.3,0,.4.1.4.3a12.15,12.15,0,0,0,.9,2V31c0,.1-.4.1-.7,0-.9-.4-1.6-1.2-1.2-2.2.1-.2.1-.3.2-.4Zm-.4.5h0a.1.1,0,0,1,.1.1h-.1v-.1Zm14.2.2a.37.37,0,0,0-.3.1c-.4.1-.8.2-1.1.3a2.49,2.49,0,0,1-.8-.1c-.5-.2-.6-.2-.9.1l-.2.1-.3-.2a1.38,1.38,0,0,0-1.1-.1,1.55,1.55,0,0,1-.8.2l-.6.2a.81.81,0,0,1-.8-.1.6.6,0,0,0-.4-.1c-.1,0-.1.3,0,.4.5.2,1,.4,1.6.6a.35.35,0,0,1,.1.2,3.57,3.57,0,0,0,3,.8,5.3,5.3,0,0,0,1-.6c.3-.3.3-.4.2-.5s-.2-.1-.4.1a1.39,1.39,0,0,1-1,.5,2.14,2.14,0,0,1-.6.1.37.37,0,0,1-.3-.1,2.39,2.39,0,0,1-.9-.3c-.1-.1,0-.2.1-.2s.3-.1.4-.1a1.29,1.29,0,0,1,.7-.1c.8.1,1,.1,1,0h.1c.1.1.1,0,.3,0a1,1,0,0,0,.3-.1.31.31,0,0,0,.2-.1.35.35,0,0,0,.2-.1,1,1,0,0,1,.3-.1,1.63,1.63,0,0,1,.6-.3c.5-.2.7-.5.4-.5Zm-2.8.5a.37.37,0,0,1,.3.1.37.37,0,0,0,.3.1.37.37,0,0,1,.3.1c.1.1.1.1-.1.1h-.9c-.2,0-.2-.1,0-.2-.1-.2,0-.2.1-.2Zm-1.6.1c.3,0,.6.1.5.2a1.85,1.85,0,0,1-1,.2,3.54,3.54,0,0,1-.6-.1.1.1,0,0,1,.1-.1c.1,0,.1,0,.1-.1a.1.1,0,0,1,.1-.1h.1a.35.35,0,0,1,.2-.1.6.6,0,0,0,.4-.1l.1.2Zm-7.2,1.8c.1,0,.5.4.5.4l.2.2c.1.1.4.3.5.5a26.13,26.13,0,0,0,4.1,2,5.92,5.92,0,0,0,3.4.4,2.62,2.62,0,0,0,.9-.5c.4-.3.4-.2.2,1.2,0,.3-.1,1-.1,1.7a4.49,4.49,0,0,0,.2,2,.31.31,0,0,1,.1.2h-.3a1.33,1.33,0,0,0-.8.3,1.18,1.18,0,0,0-.4.7c-.1.3-.1.3-.2.2a.9.9,0,0,0-1.4.2c-.1.1-.1.2-.2.2A.35.35,0,0,1,28,41c-.1-.3-.3-.4-.8-.4a1.22,1.22,0,0,0-.9.3l-.2.2-.1-.2c-.2-.3-.3-.3-.5-.3a2.07,2.07,0,0,0-.6.2c-.3.2-.4.2-.4.1a.35.35,0,0,0-.1-.2c-.1-.1-.1-.2-.2-.2-.1-.2-.3-.4-.4-.4s-.1,0-.2-.1a1.21,1.21,0,0,0-.5-.1c-.4,0-.5-.1-.5-.2s-.1-.2-.2-.3-.7-.4-.9-.3-.2.1-.3,0-.2,0-.2-.3-.3-.5-.6-.7-.2-.2-.1-.2a2.82,2.82,0,0,0,.5-1.1,8.18,8.18,0,0,0,.3-2.1v-1.5c0-.1.1-.2,0-.3.3.1.3-1.4.3-1.4Zm-.9,7h.3c.1-.1.2.1.2.3s0,.2.1.2.1.4-.1.5-.6.1-.9-.2a1.44,1.44,0,0,1-.2-.3,1.33,1.33,0,0,1,.3-.5c0,.1.2,0,.3,0Zm1.5,1.2a.53.53,0,0,1,.6.6c0,.2,0,.2-.2.3a.83.83,0,0,1-.8-.2c-.3-.3-.2-.6.2-.7Zm9.3.5a.22.22,0,0,1,.2.2.1.1,0,0,0,.1.1c.2.1.2.3-.1.6s-.3.3-.5.2-.3,0-.3-.1a.85.85,0,0,1,0-.7.71.71,0,0,1,.6-.3Zm-7.7.3c.1,0,.3.1.4.1.2.2.2.3.1.6a1.69,1.69,0,0,1-.6.3c-.3-.1-.4-.1-.5-.3s-.1-.2-.1-.4,0-.2.2-.3a.78.78,0,0,0,.5,0Zm5.7.7a.37.37,0,0,1,.3.1l.3.3c.1.2,0,.2-.1.3s-.2.2-.4.1a.76.76,0,0,1-.4-.2c-.2-.2-.2-.4,0-.5a.37.37,0,0,1,.3-.1Zm-1.9,0c.3,0,.4,0,.6.3l.1.2-.3.3c-.2.2-.3.3-.5.3s-.3,0-.4-.1a.6.6,0,0,1,0-.8.55.55,0,0,1,.5-.2Zm-1.7,0c.1,0,.1,0,.1.1.2.5.2.6-.1.7a.66.66,0,0,1-.6-.1.37.37,0,0,1-.1-.3c0-.1.1-.2.2-.3a4.33,4.33,0,0,0,.5-.1Z"/></g></g></svg>