<?xml version="1.0" encoding="utf-8"?>
<!-- Generator: Adobe Illustrator 25.2.3, SVG Export Plug-In . SVG Version: 6.00 Build 0)  -->
<svg version="1.1" id="圖層_1" xmlns="http://www.w3.org/2000/svg" xmlns:xlink="http://www.w3.org/1999/xlink" x="0px" y="0px"
	 viewBox="0 0 50 50" style="enable-background:new 0 0 50 50;" xml:space="preserve">
<style type="text/css">
	.st0{fill:#E8ECED;}
	.st1{fill:#B29262;}
	.st2{fill:#CC0099;}
	.st3{fill:#F1E5D2;}
	.st4{fill:#9FB2B9;}
	.st5{fill:#322722;}
</style>
<g>
	<circle class="st0" cx="25" cy="25" r="23.9"/>
	<path class="st1" d="M25,2.2c12.5,0,22.8,10.2,22.8,22.8S37.5,47.8,25,47.8S2.2,37.5,2.2,25S12.5,2.2,25,2.2 M25,0
		C11.2,0,0,11.2,0,25s11.2,25,25,25s25-11.2,25-25S38.8,0,25,0L25,0z"/>
</g>
<path class="st1" d="M25,2.2c12.5,0,22.8,10.2,22.8,22.8S37.5,47.8,25,47.8S2.2,37.5,2.2,25S12.5,2.2,25,2.2 M25,0
	C11.2,0,0,11.2,0,25s11.2,25,25,25s25-11.2,25-25S38.8,0,25,0L25,0z"/>
<path class="st2" d="M27.3,5.5c-0.1,0-0.1,0-0.2,0c-0.8,0-1.6,0.4-2.5,0.3c-1-0.2-1.7,0.6-2.5,0.8c-1,0-2.2,0.1-3,1
	C18.6,8.3,18,9.1,17,9.1c-0.8,0.1-1.1,0.9-1.6,1.4c-1.3,1.1-1.1,3-1,4.5c-0.1,0.8,0.7,1.3,0.5,2.1c-0.1,0.5,0.3,0.9,0.5,1.4
	c-0.1,0.9-0.2,1.7-0.1,2.6c-0.1,0.3,0.3,0.2,0.3,0.5c-0.3,0.6-0.2,1.3,0.2,1.8c0.7,1.3,1.2,2.9,0.8,4.5c-0.2,0.9,0.1,1.8-0.1,2.7
	c-0.4,0.3,0,0.6,0.2,0.9c0.5,1.2,0.5,2.5,0.9,3.8c0.2,0.7-0.2,1.4-0.8,1.7c-2.4,1.1-4.9,1.6-7.4,2.4c-0.3,0-0.1,0.2,0.1,0.2
	c1.5-0.3,2.9-0.8,4.3-1.2c0.9-0.2,1.7-0.7,2.6-0.7c0.5,1.3,0.8,2.8,1.8,4c1.5,1.4,3.4,2.5,5.4,2.8c2,0.2,4.1,0,6-0.9
	c1.6-0.8,3.3-1.8,4.1-3.5c0.3-0.7,0.4-1.5,0.8-2.1c1.9,0.6,3.8,1.3,5.8,2c0.4,0,0.9,0.5,1.2,0.1c-2.1-0.8-4.3-1.4-6.4-2.2
	C34.2,37.3,33,37,33,36c0.1-0.9,0.5-1.8,0.4-2.7c0.2-1.2-0.2-2.6,0.5-3.7c-0.6-1-0.5-2.3-0.8-3.5c-0.5-1.3,0.3-2.5,0.8-3.7
	c0.3-0.6,0.6-1.5-0.1-1.9c-0.4-0.4,0.2-0.9,0.2-1.4c0.4-2.3,0.3-4.7,0.3-7.1c0.1-0.7-0.1-1.5-0.9-1.8c-0.3-0.1,0-0.4,0.1-0.5
	c-0.2-0.4-0.9-0.2-1.2-0.3c-0.1-0.4,0.3-0.9,0.3-1.3c0.1-0.4-0.4-0.2-0.5-0.3c-0.2-0.2-0.4-0.4-0.7-0.5c-0.8-0.2-1.3-0.8-2.1-1
	c-0.2-0.3-0.6-0.2-0.9-0.3C28.2,5.7,27.8,5.6,27.3,5.5L27.3,5.5z M27.3,5.5"/>
<path class="st3" d="M28.7,13c-0.5,0.2-1.1-0.1-1.7,0.1c-0.9,0.2-1.9,0.2-2.8,0c-0.3,0-0.7-0.1-0.9,0.1c-0.6,0-1.1-0.1-1.7,0.1
	c-0.4,0.1-0.9-0.1-1.2,0.2c-0.5,0.2-0.8,0.6-1.4,0.7c-0.3,0.1-0.8,0.1-1,0.3c-0.1,1.2-0.2,2.3-0.1,3.5c-0.1,0.7,0.1,1.4-0.2,2.1
	c0.1,0.3,0,0.7,0.3,0.9c0.9-0.1,1.7-0.2,2.6-0.2c0.9,0,1.8,0,2.7,0.1c0.9,0,1.9-0.1,2.8,0.1c0.6-0.1,1.3-0.2,1.9-0.1
	c1.3,0.1,2.7-0.1,3.8,0.7c0.1,0.2,0.4,0.1,0.3-0.1c-0.5-1.4-0.8-2.8-1-4.2c-0.2-1-0.2-2.1-0.7-3.1c-0.3-0.2-0.2-0.7-0.5-0.8
	c-0.4,0-0.8,0.2-1.1-0.1C28.9,13.1,28.8,13,28.7,13L28.7,13z M21,19.7c0.6,0,1.1,0.2,1.6,0.3c0.2,0.1-0.2,0.3-0.3,0.2
	c-0.8-0.3-1.6-0.5-2.5-0.3c-0.4,0-0.6,0.3-1,0.4c0.3-0.3,0.7-0.4,1.1-0.6C20.3,19.7,20.6,19.7,21,19.7L21,19.7z M28.9,19.8
	c0.7,0,1.5,0.3,2.1,0.7c-0.2,0.1-0.3-0.2-0.5-0.2c-0.7-0.3-1.6-0.4-2.3-0.2c-0.3,0-0.6,0.3-0.8,0.2c-0.2-0.1-0.2-0.3,0-0.3
	C27.9,19.9,28.4,19.7,28.9,19.8L28.9,19.8z M33.6,20.8C33.6,20.8,33.6,20.8,33.6,20.8c-0.4,0.1-0.7,0.3-0.9,0.6
	c-0.3,0.7-0.2,1.5-0.4,2.2c0,0.3-0.2,0.7,0,0.9c0.2,0.2,0.6,0.1,0.5-0.2c0.3-1,0.9-1.8,1.2-2.8C34.2,21.2,34,20.8,33.6,20.8
	L33.6,20.8z M16.4,21.4c-0.5,0-0.9,0.5-0.9,1c0.2,0.7,0.8,1.2,1,1.9c0.2,0.5,0.3,1,0.4,1.5c0.2,0.2,0.2-0.3,0.2-0.4
	c0-1.1,0.1-2.3,0.1-3.4C17.1,21.6,16.7,21.4,16.4,21.4L16.4,21.4z M24.8,22c-0.3,0-0.7,0.1-1,0.1c-0.2,0.4-0.1,0.9-0.3,1.3
	c-0.1,0.7-0.5,1.5-1.2,1.8c-0.8,0.4-1.7,0.4-2.6,0.4c-1,0-1.7-0.9-1.9-1.8c0-0.2-0.3-0.6-0.4-0.2c-0.1,0.6,0,1.2-0.1,1.8
	c-0.2,0.1-0.1,0.4,0.1,0.4c0.3,0.4,0.3,0.9,0.6,1.3c0.3,0.6,0.6,1.3,1,1.8c0.4,0,0.9-0.2,1.3-0.2c1.2-0.2,2.5,0,3.6-0.5
	c0.4-0.3,0.9-0.5,1.5-0.3c1.7,0.2,3.4,0,5,0.7c0.3,0.1,0.8,0.3,0.8-0.2c0.4-1.3,0.6-2.7,0.7-4.1c-0.2-0.3-0.3,0.3-0.4,0.4
	c-0.3,0.5-0.9,1.1-1.6,1c-1.1,0-2.5,0-3.2-0.9c-0.6-0.7-0.6-1.8-0.9-2.7C25.6,22.1,25.2,22.1,24.8,22L24.8,22z M26.5,26
	c0.3,0.2-0.1,0.5-0.2,0.7c-0.4,0.4-1.1,0.1-1.5,0.5c-0.4,0.3-0.8-0.3-1.2-0.3c-0.3-0.1-0.9-0.1-0.9-0.5c0-0.2,0.2-0.3,0.3-0.1
	c0.2,0.5,0.9,0.3,1.3,0.6c0.5,0.3,0.9-0.2,1.4-0.2C26,26.7,26.4,26.4,26.5,26C26.5,26,26.5,26,26.5,26L26.5,26z M25.1,28.2
	c-0.4,0.2-0.5,0.7-0.8,0.9c-0.5,0.5-1.3,0.5-1.9,0.7c-0.1,0.3,0.2,0.6,0.3,0.9c0.1,0.3,0.5,0.5,0.8,0.5c0.2,0,0.4,0.3,0.7,0.2
	c0.9-0.1,1.8,0.1,2.7,0c0.4-0.5,0.7-1.1,0.9-1.7c-0.4-0.1-0.8-0.1-1.1-0.2C25.9,29.4,25.5,28.8,25.1,28.2
	C25.1,28.2,25.1,28.2,25.1,28.2L25.1,28.2z M26.3,29.9c-0.1,0.4-0.7,0.5-1.1,0.6c-0.6,0.1-1.4,0-1.7-0.5c0.7,0.2,1.5,0.5,2.2,0.2
	C25.9,30.1,26.1,29.9,26.3,29.9L26.3,29.9z M18.2,36.3C18.1,36.3,18.1,36.3,18.2,36.3c-0.5,0.3-0.9,0.7-1.4,0.9
	c-0.3,0.3,0.1,0.8,0.1,1.2c0.5,1.4,1.1,2.8,2.3,3.7c1.6,1.3,3.6,2,5.6,2c1.6,0.1,3.3-0.2,4.7-1.1c1.2-0.7,2.4-1.3,3.3-2.4
	c0.5-0.9,0.9-1.9,1.1-2.9c-0.1-0.4-0.6-0.5-0.9-0.8c-0.2-0.1-0.4-0.5-0.6-0.3c0,0.7,0.3,1.4,0.6,2.1c0,0.1-0.3-0.1-0.4-0.1
	c-0.4-0.1-0.7-0.4-1.2-0.5c-0.2,0.2,0,0.6,0,0.8c0,0.4,0.3,0.8,0.2,1.1c-0.2,0.2-0.5,0-0.8,0.2c-0.3,0.2-0.7-0.2-1,0.1
	c-0.2,0.3-0.5-0.1-0.7-0.2c-0.5-0.3-1-0.8-1.5-1c-0.3,0.1,0,0.5,0.1,0.6c0.2,0.3,0.5,0.5,0.7,0.8c-0.7,0.3-1.4-0.1-1.9-0.6
	c-0.2-0.2-0.5-0.5-0.7-0.1c-0.2,0.3-0.4,0.7-0.7,0.9c-0.1-0.3,0-0.8-0.2-1.1c-0.4,0.1-0.6,0.6-1,0.8c-0.5,0.3-1.1,0.1-1.7,0.3
	c-0.5,0.1-0.9,0.1-1.3-0.1c-0.3-0.1-0.6-0.4-0.5-0.7c-0.2-0.2-0.5,0.1-0.7,0.1c-0.3,0-0.8,0.3-1,0c0-0.6,0.4-1.2,0.4-1.8
	c-0.2-0.2-0.5,0.2-0.8,0.2c-0.3,0.1-0.6,0.3-0.9,0.3c0.3-0.7,0.6-1.4,0.7-2.1C18.2,36.4,18.2,36.4,18.2,36.3L18.2,36.3z M18.2,36.3"
	/>
<path class="st4" d="M20.8,21c-0.9,0-1.8,0-2.7,0.4c-0.5,0.3-0.4,1.1-0.3,1.6c0.1,0.8,0.3,1.7,1,2.1c0.6,0.4,1.3,0.2,2,0.3
	c0.6-0.1,1.4-0.1,1.9-0.6c0.6-0.9,0.8-2.1,0.7-3.1c0-0.3-0.2-0.6-0.6-0.6C22.2,21,21.5,21,20.8,21L20.8,21z M28.2,21.1
	c-0.5,0-1.1,0-1.6,0.2c-0.4,0.3-0.2,0.8-0.2,1.2c0,0.5,0.1,0.9,0.2,1.4c0.1,0.4,0.3,0.8,0.6,1.1c1,0.6,2.2,0.6,3.3,0.5
	c0.8-0.2,1.3-1.1,1.4-1.9c0.1-0.6,0.3-1.4-0.1-1.9c-0.5-0.4-1.2-0.4-1.8-0.5C29.3,21.1,28.7,21.1,28.2,21.1L28.2,21.1z M24.3,21.2
	c-0.2,0-0.6,0.1-0.5,0.4c-0.1,0.5,0.5,0.2,0.7,0.3c0.5,0,1,0,1.5,0c0.1-0.2,0-0.6-0.3-0.6c-0.4-0.1-0.9-0.1-1.3-0.1
	C24.4,21.2,24.3,21.2,24.3,21.2L24.3,21.2z M20.1,21.8L20.1,21.8c-0.3,0.4-0.6,0.9-1,1.2c-0.2,0.1-0.3,0.4-0.5,0.4
	c0.1-0.4,0.5-0.6,0.6-0.9C19.5,22.3,19.8,22,20.1,21.8L20.1,21.8z M21.2,21.9c0.2,0.1-0.1,0.3-0.2,0.4c-0.7,0.8-1.3,1.6-2,2.3
	c-0.2,0.2,0-0.1,0-0.2c0.6-0.8,1.3-1.7,2-2.4C21.1,21.9,21.2,21.9,21.2,21.9L21.2,21.9z M19.1,21.9c0.2,0.1-0.1,0.3-0.2,0.4
	c-0.2,0.1-0.4,0.4-0.6,0.5C18.5,22.4,18.8,22.1,19.1,21.9L19.1,21.9z M28.7,22c-0.1,0.2-0.4,0.4-0.5,0.6c-0.3,0.4-0.7,0.8-1.1,1.1
	c0.2-0.4,0.6-0.7,0.8-1.1C28.2,22.4,28.4,22.1,28.7,22L28.7,22z M29.8,22c0.2,0-0.1,0.3-0.1,0.3c-0.5,0.5-0.8,1.1-1.3,1.6
	c-0.3,0.3-0.5,0.6-0.9,0.8c0.4-0.8,1-1.3,1.5-2C29.3,22.5,29.5,22.1,29.8,22L29.8,22z M27.7,22.1c0.2,0.1-0.1,0.3-0.1,0.3
	c-0.2,0.2-0.4,0.4-0.6,0.5C27.1,22.6,27.3,22.3,27.7,22.1L27.7,22.1z M22.2,22.1c0,0.2-0.3,0.4-0.4,0.6c-0.5,0.6-1,1.4-1.7,1.8
	c0.5-0.7,1.1-1.3,1.6-1.9C21.9,22.4,22,22.2,22.2,22.1L22.2,22.1z M30.8,22.2c0.1,0.1-0.1,0.3-0.2,0.4c-0.6,0.7-1.1,1.5-1.9,2
	c0.4-0.6,0.9-1.2,1.4-1.7C30.3,22.7,30.5,22.4,30.8,22.2L30.8,22.2z M22.8,23.2c0.1,0.1-0.1,0.3-0.2,0.4c-0.1,0.2-0.3,0.4-0.5,0.5
	c0,0.1-0.2,0.3-0.3,0.3C22.1,23.9,22.4,23.5,22.8,23.2C22.7,23.2,22.8,23.2,22.8,23.2L22.8,23.2z M31.4,23.3c0,0.3-0.3,0.4-0.5,0.6
	c-0.2,0.2-0.4,0.4-0.6,0.5C30.6,24,31,23.6,31.4,23.3L31.4,23.3z M31.4,23.3"/>
<path class="st5" d="M26.9,5.5c-0.3,0-0.6,0-0.7,0.1c-0.1,0-0.2,0.1-0.3,0.1c-0.1,0-0.3,0-0.4,0.1c-0.1,0.1-0.3,0.1-0.4,0.2
	c-0.2,0.1-0.2,0-0.3,0c-0.1,0-0.2-0.1-0.3-0.1c-0.2,0-0.8,0.1-0.9,0.2c0,0-0.1,0.1-0.1,0.1c0,0-0.1,0-0.1,0.1c0,0-0.1,0.1-0.1,0.1
	c0,0-0.2,0.1-0.4,0.2c-0.7,0.4-0.7,0.4-0.9,0.3c-0.1,0-0.2-0.1-0.3,0c-0.1,0-0.2,0-0.4,0c-1.1,0-2.2,0.8-2.6,1.6c0,0-0.1,0-0.1,0.1
	c0,0.1-0.3,0.4-0.3,0.3c0,0-0.2,0.1-0.4,0.2C17.7,8.9,17.5,9,17.4,9c-0.3,0-0.7,0.1-0.8,0.2c-0.1,0.1-0.1,0.1-0.2,0.1
	c0,0-0.1,0-0.2,0.1c-0.1,0.1-0.5,0.6-0.5,0.7c0,0.1-0.1,0.2-0.2,0.2c0,0-0.1,0-0.2,0.1c-0.1,0.1-0.1,0.1,0,0.1c0.1,0,0,0-0.1,0
	c-0.6,0.3-0.6,1-0.9,1.6c-0.1,0.4-0.2,1.5-0.1,1.5c0,0,0,0,0,0c-0.1,0-0.1,0.1,0,0.2c0,0.1,0.1,0.3,0.1,0.4c-0.1,0.4,0,1.2,0.1,1.2
	c0,0,0.1,0,0,0.1c0,0.1,0.1,0.4,0.2,0.5c0,0,0.1,0,0.1,0c0,0,0,0,0,0c0,0,0,0.1,0.1,0.2c0.1,0.1,0.1,0.2,0.1,0.3
	c-0.1,0.1-0.1,0.2-0.1,0.4c0,0.1,0,0.3,0,0.4c0,0.1,0,0.2,0.1,0.3c0.1,0.1,0.1,0.1,0.1,0.2c0,0,0.1,0.2,0.2,0.3
	c0.1,0.1,0.2,0.3,0.2,0.3c0,0-0.1,0.2-0.1,0.4c-0.1,0.4-0.2,0.7-0.1,1.8c0,0.7,0,0.7,0.1,0.7c0,0,0.1,0,0.1,0c0,0,0,0,0.1,0
	c0-0.1,0.1-0.1,0.1-0.1c0.1,0,0.1,0.2-0.1,0.5c-0.5,1.1,0.2,1.4,0.6,2.1c0.2,0.3,0.3,0.9,0.4,1.1c0,0,0,0.2,0,0.3
	c0,0.1,0.1,0.3,0.1,0.4c0,0.1,0,0.2,0,0.2c0,0,0,0.1,0,0.2c0,0.1,0,0.2,0.1,0.3c0.1,0.2,0.1,0.2,0,0.5c0,0.2-0.1,0.4,0,0.4
	c0,0,0,0.1,0,0.1c0,0.1-0.1,0.2-0.1,0.3c0,0.1,0,0.3-0.1,0.4c0,0.7-0.1,1.4,0,2c0,0.1,0,0.2,0,0.3c0,0.2,0,0.2-0.1,0.2
	c-0.1,0-0.1,0.1-0.2,0.2c-0.1,0.1-0.1,0.1,0.1,0.4c0.1,0.1,0.2,0.2,0.2,0.2c0,0,0,0,0,0c0,0,0,0.1,0.1,0.1c0.1,0.1,0.1,0.1,0.1,0.1
	c0,0,0,0.1,0.1,0.2c0.1,0.1,0.1,0.3,0.1,0.5c0.2,0.8,0.1,1.3,0.4,2.1c0.1,0.2,0.1,0.4,0.1,0.5c0,0.1,0.1,0.2,0.1,0.2
	c0,0,0.1,0,0,0.1c0,0.1,0,0.2,0,0.2c0.1,0.2,0,0.6-0.1,1C17,36.7,16.6,37,16.5,37c-0.2,0.1-0.5,0.2-0.6,0.2c-0.1,0-0.1,0.1-0.2,0.1
	c0,0-0.1,0-0.1,0c0,0,0,0,0,0c0,0,0,0-0.1,0c0,0-0.1,0-0.1,0c-0.3,0.1-0.9,0.3-1.7,0.6c-0.2,0.1-0.5,0.1-0.6,0.2
	c-0.2,0.1-0.3,0.1-0.4,0.1c0,0-0.1,0-0.2,0.1c-0.1,0-0.2,0-0.3,0.1c-0.1,0-0.2,0-0.3,0.1c-0.1,0-0.2,0-0.2,0.1c0,0-0.1,0-0.2,0.1
	c-0.1,0-0.2,0.1-0.2,0.1c-0.2,0-0.4,0.1-0.5,0.1c-0.1,0-0.1,0-0.2,0c0,0,0,0-0.1,0c0,0,0,0,0,0c0,0,0,0,0,0c0,0,0,0-0.1,0
	c0,0-0.1,0-0.2,0.1c-0.1,0-0.4,0.1-0.5,0.1c-0.2,0-0.4,0.1-0.5,0.2c0,0,0,0-0.1,0c0.1,0.1,0.2,0.2,0.4,0.3c0.2,0,0.3-0.1,0.6-0.2
	c0.1,0,0.1,0,0.2-0.1c0,0,0.1,0,0.1,0c0,0,0,0,0.1,0c0,0,0.1,0,0.1,0c0.1,0,0.2,0,0.3-0.1c0.2-0.1,0.5-0.2,0.7-0.2
	c0.2-0.1,0.5-0.1,0.7-0.2c0.2-0.1,0.4-0.1,0.5-0.1c0.2,0,0.3-0.1,0.4-0.1c0.1,0,0.1,0,0.2,0c0,0,0,0,0,0c0,0,0,0,0,0c0,0,0,0,0,0
	c0,0,0,0,0,0c0,0,0,0,0,0c0,0,0,0,0.1,0c0,0,0,0,0.1,0c0,0,0.1,0,0.1,0c0.1,0,0.3-0.1,0.4-0.1c0.3-0.1,0.8-0.2,1-0.3
	c0.1,0,0.3-0.1,0.4-0.1c0,0,0.1,0,0.1,0c0,0,0,0,0,0c0,0,0,0,0,0c0,0,0,0,0,0c0,0,0,0,0,0c0,0,0.1,0,0.1,0c0.1,0,0.2-0.1,0.3-0.1
	c0.1,0,0.2-0.1,0.3-0.1c0.1,0,0.1,0,0.1,0c0,0,0.1,0,0.1,0.1c0,0,0,0.1,0.1,0.2c0.1,0.2,0.2,0.7,0.4,1.4c0.1,0.2,0.8,2.1,1.5,2.7
	c0,0,0,0,0,0c0.7,0.6,0.9,0.6,1.4,1c1.7,1.2,3.8,1.6,4.9,1.6c1.5,0,1.9,0,2.4-0.1c2-0.5,2.8-1,4.2-1.8c1.2-0.7,2.1-1.6,2.6-3.1
	c0.2-0.6,0.4-1.1,0.4-1.3c0-0.1,0.1-0.2,0.1-0.2c0,0,0-0.1,0.1-0.1c0,0,0.1,0,0.1,0c0.1,0,0.1,0,0.3,0.1c0.1,0,0.2,0.1,0.3,0.1
	c0,0,0.1,0,0.1,0c0,0,0,0,0,0c0,0,0,0,0,0c0,0,0,0,0,0c0,0,0,0,0,0c0,0,0.1,0,0.1,0c0.1,0,0.2,0.1,0.3,0.1c0.3,0.1,0.7,0.3,1,0.4
	c0.2,0.1,0.3,0.1,0.4,0.1c0.1,0,0.1,0,0.1,0c0,0,0.1,0,0.1,0c0,0,0,0,0.1,0c0,0,0,0,0,0c0,0,0,0,0,0c0,0,0,0,0,0c0,0,0,0,0,0
	c0,0,0,0,0,0c0,0,0.1,0,0.2,0.1c0.1,0,0.3,0.1,0.4,0.1c0.1,0,0.3,0.1,0.5,0.1c0.2,0.1,0.5,0.2,0.7,0.2c0.2,0.1,0.5,0.2,0.7,0.2
	c0.1,0,0.2,0.1,0.3,0.1c0,0,0.1,0,0.1,0c0,0,0,0,0.1,0c0,0,0.1,0,0.1,0c0,0,0.1,0,0.2,0.1c0.3,0.1,0.4,0.2,0.5,0.2
	c0.1-0.1,0.3-0.2,0.4-0.3c0,0,0,0-0.1,0c-0.1-0.1-0.4-0.2-0.5-0.2c-0.2,0-0.4-0.1-0.5-0.2c-0.1,0-0.1-0.1-0.2-0.1c0,0,0,0-0.1,0
	c0,0,0,0,0,0c0,0,0,0,0,0c0,0,0,0-0.1,0c-0.1,0-0.1,0-0.2-0.1c-0.1,0-0.4-0.1-0.5-0.2c-0.1,0-0.2-0.1-0.2-0.1
	c-0.1,0-0.1-0.1-0.2-0.1c0,0-0.1,0-0.2-0.1c-0.1,0-0.2-0.1-0.3-0.1c-0.1,0-0.2,0-0.3-0.1c-0.1,0-0.2,0-0.2-0.1c0,0-0.2-0.1-0.3-0.1
	c-0.2-0.1-0.4-0.1-0.6-0.2c-0.8-0.3-1.4-0.5-1.7-0.6c0,0-0.1,0-0.1,0c0,0-0.1,0-0.1,0c0,0,0,0,0,0c0,0,0,0-0.1,0
	c-0.1,0-0.1,0-0.2-0.1c-0.1-0.1-0.4-0.2-0.6-0.3c-0.2,0-0.5-0.3-0.8-0.6c-0.2-0.4-0.2-0.8-0.1-1c0-0.1,0-0.2,0-0.2
	c0-0.1,0-0.1,0-0.1c0,0,0.1-0.1,0.1-0.2c0-0.1,0.1-0.4,0.2-0.5c0.3-0.7,0-3.2,0.2-4c0,0,0-0.1,0-0.2c0.2-0.2,0.3-0.5,0.3-0.6
	c0,0,0-0.1,0.1-0.1c0,0,0-0.1-0.1-0.2c-0.1-0.1-0.1-0.2-0.1-0.2c0-0.1,0-0.1-0.1-0.2c-0.1-0.1-0.1-0.2-0.2-0.5
	c0-0.2-0.1-0.5-0.1-0.6c0-0.1,0-0.2,0-0.2c0,0,0-0.2,0-0.3c0-0.2,0-0.4,0-0.5c0-0.1-0.1-0.4-0.2-0.6c-0.1-0.2-0.1-0.5-0.2-0.8
	C33,25,33,25,33.1,25c0,0,0.1,0,0.1-0.1c0-0.3,0.2-1,0.3-1.1c0,0,0.1-0.2,0.1-0.3c0.1-0.2,0.1-0.3,0.1-0.3c0,0,0-0.1,0-0.1
	c0,0,0-0.1,0-0.1c0,0,0.1-0.1,0.2-0.3c0.1-0.2,0.2-0.4,0.2-0.6c0.2-0.3,0.3-0.9,0.2-1.1c-0.1-0.2-0.3-0.5-0.5-0.6
	c-0.1,0-0.1-0.2,0-0.3c0,0,0.1-0.2,0.1-0.4c0-0.2,0.1-0.3,0.1-0.3c0.1,0,0.2-0.2,0.2-0.5c0-0.2,0-0.4,0.1-0.5c0-0.1,0.1-0.4,0.1-0.7
	c0-0.3,0.1-0.6,0.1-0.6c0,0,0-0.4,0-0.8c0-0.4,0-0.8,0-0.8c0.1-0.6,0.1-1,0-1.3c-0.1-0.3-0.1-0.4,0-0.4c0,0,0-0.3,0-0.7
	c0-0.6,0-0.7,0-0.7c0.1,0,0.1-0.1,0-0.2c0-0.1,0-0.3-0.1-0.4c0-0.1-0.1-0.4-0.1-0.5c-0.1-0.3-0.1-0.3-0.3-0.6
	c-0.2-0.1-0.3-0.3-0.4-0.3c-0.1,0-0.4-0.1-0.4-0.2c0-0.1,0.2-0.2,0.3-0.2c0.1,0,0.1-0.2,0-0.3c-0.2-0.1-0.7-0.2-1-0.2
	c-0.1,0-0.3,0-0.3,0c0-0.2,0.2-0.7,0.3-0.9c0.1-0.1,0.1-0.4,0.1-0.5l0-0.2l-0.2,0C32.2,8,32.2,8,32.2,7.8c0-0.2-0.1-0.2-0.4-0.4
	c-0.3-0.1-0.4-0.2-0.5-0.2c-0.1,0-0.2,0-0.5-0.3c-0.6-0.5-0.8-0.6-1-0.6c-0.2,0-0.4-0.1-0.3-0.2c0-0.1-0.1-0.1-0.4-0.1
	c-0.4,0.1-0.3,0.1-0.5-0.2c-0.1-0.1-0.1-0.2-0.2-0.2c0,0-0.1,0-0.1,0C28,5.6,27.4,5.5,26.9,5.5L26.9,5.5z M27.1,5.8
	c0.1,0,0.1,0,0.2,0c0.4,0,0.6,0.1,0.8,0.3c0.1,0.1,0.1,0.2,0,0.2c-0.1,0-0.1,0.1-0.2,0.1c0,0-0.1,0.1-0.3,0.2
	C26.9,7,26.4,7.5,26,8.2c0,0,0,0.1-0.1,0.1c0,0.1-0.1,0.2-0.1,0.3l-0.1,0.2l0-0.1c0-0.1,0-0.2,0.1-1c0.1-0.4,0.3-1.1,0.6-1.3
	c0.1-0.1,0.3-0.2,0.4-0.3C26.8,5.8,26.9,5.8,27.1,5.8L27.1,5.8z M24.3,6.2C24.3,6.2,24.3,6.2,24.3,6.2c0.3,0,0.3,0.1,0.1,0.3
	c-0.2,0.3-0.2,0.3-0.2,0.3c0,0,0,0.1,0,0.1c0,0-0.3,0.5-0.8,1.5c-0.1,0.2-0.2,0.4-0.2,0.4C23,8.7,23,8.3,23,8.2c0-0.1,0-0.3,0-0.4
	c0-0.2,0-0.3,0.1-0.4c0-0.1,0.1-0.2,0.1-0.3c0.1-0.3,0.6-0.8,0.8-0.8C24,6.2,24.2,6.2,24.3,6.2L24.3,6.2z M25.8,6.2c0,0,0,0.1,0,0.2
	c-0.3,0.8-0.3,1.2-0.4,1.8c0,1.3,0.1,2.1,0.4,3.1c0,0,0,0.1,0,0.1c0,0,0.1,0.3,0.1,0.5c0.1,0.4,0.1,0.5,0.1,0.6
	c0,0.1-0.1,0.3-0.2,0.4c-0.2,0.2-0.2,0.2-0.1,0.2c0.2,0.1,0.5-0.2,0.6-0.5c0.1-0.3,0-0.4-0.3-1.5c-0.2-0.8-0.3-1-0.3-1.3
	c0-0.3,0-0.4,0.1-0.5c0,0,0.1-0.2,0.2-0.4c0.3-0.7,0.6-1.3,1.2-1.7C27.4,7.1,27.6,7,27.6,7c0.1,0,0.1,0,0.1,0.1
	c0,0.1-0.1,0.2-0.1,0.2c-0.1,0.1-0.3,0.6-0.4,0.9c-0.1,0.2-0.1,0.5-0.2,0.6c-0.1,0.4-0.2,2.4-0.1,2.8c0.1,0.2,0,0.3-0.1,0.6
	c-0.1,0.2-0.1,0.4-0.1,0.4c0,0,0,0.1-0.1,0.1c0,0-0.1,0-0.1,0c0,0,0,0.1,0,0.1c0,0.1,0.1,0.2,0.2,0.1c0-0.1,0.1-0.1,0.1-0.1
	c0,0,0.1,0,0.1-0.1c0-0.1,0.1-0.2,0.1-0.3c0-0.1,0.1-0.4,0.1-0.8c0-0.4,0.1-0.8,0.1-1.1c0.1-0.2,0.1-0.5,0.1-0.6
	c0-0.2,0.2-0.6,0.4-0.8C28,9.2,28.1,9.1,28.1,9c0,0,0.1-0.1,0.1-0.2c0.1-0.1,0.1-0.2,0.1-0.2c0-0.1,0.8-0.6,1.1-0.7
	c0.2-0.1,0.4-0.1,0.5-0.1c0.1,0,0.2,0,0.2,0c0,0,0.3,0,0.3,0c0,0-0.2,0.2-0.4,0.5c-0.4,0.5-0.5,0.5-0.7,0.9
	c-0.5,1.1-0.7,1.9-1.1,2.9c0,0.1-0.1,0.2-0.1,0.2c0,0.1-0.5,0.6-0.6,0.6c-0.1,0-0.2,0.1-0.2,0.1c0,0.1,0.4,0.2,0.5,0.1
	c0.1,0,0.2,0,0.2,0c0,0.1,0.3,0.1,0.5,0c0.2-0.1,0.3-0.1,0.4,0c0,0.1,0.4,0.4,0.6,0.4c0.1,0,0.2,0,0.3,0c0.1,0,0.2-0.1,0.3-0.1
	c0.2,0,0.3,0.1,0.2,0.2c-0.1,0.1,0.3,0.4,0.4,0.4c0.1,0,0.1,0,0.2-0.1c0.2-0.2,1.4,0.1,1.9,0.4c0.3,0.2,0.9,0.8,0.9,0.9
	c0,0,0,0.1,0.1,0.2c0.1,0.1,0.1,0.1,0.1,0.1c0,0-0.1,0-0.1-0.1c-0.2-0.2-0.6-0.5-0.8-0.6c-0.1-0.1-0.3-0.2-0.4-0.2
	c-0.1-0.1-0.3-0.1-0.7-0.1c-0.5,0-0.5,0-0.6,0.1c-0.1,0.1-0.2,0.2-0.3,0.2c-0.1,0-0.1,0.1-0.1,0.1c0,0.1,0.2,0.1,0.3,0
	c0.1-0.1,0.1-0.1,0.1-0.1c0,0,0.1,0,0.2,0c0.3-0.1,0.5-0.1,0.8,0.1c0.4,0.2,0.7,0.4,1,0.7c0.4,0.4,0.5,0.7,0.6,1.2
	c0,0.2,0.1,0.4,0.1,0.5c0,0.1-0.1,0.6-0.1,0.8c0,0.1-0.1,0.1-0.1-0.1c0-0.1-0.1-0.2-0.1-0.3c0-0.1-0.1-0.2-0.1-0.2
	c0-0.2-0.4-1.1-0.6-1.4c-0.5-0.6-1.2-0.6-1.7,0c-0.2,0.3-0.2,0.3,0,0.3c0.1,0,0.3-0.1,0.3-0.2c0,0,0.1-0.1,0.2-0.2
	c0.3-0.1,0.6-0.1,0.9,0.1c0.2,0.2,0.5,0.7,0.5,0.8c0,0,0.1,0.3,0.1,0.5c0.1,0.4,0.3,1.1,0.3,1.1c0,0-0.4-0.6-0.4-0.7
	c0-0.1-0.6-0.6-0.9-0.8c-0.2-0.1-0.3-0.1-0.5-0.1c-0.3,0-0.5,0.1-0.5,0.3c0,0.2,0.1,0.2,0.4,0.1c0.2,0,0.3,0,0.5,0.1
	c0.2,0.1,0.4,0.2,0.5,0.4c0.4,0.5,0.4,0.6,0.4,0.6c0,0,0,0.1,0.1,0.1c0.1,0.1,0.3,0.8,0.3,1c0,0.1-0.1,0-0.3-0.2
	c-0.3-0.3-0.4-0.4-0.9-0.6c-0.4-0.2-0.9-0.2-0.8,0c0,0,0.1,0.1,0.1,0.1c0.1,0,0.7,0.3,1.1,0.5c0.3,0.2,0.5,0.6,0.5,0.8
	c0,0.2-0.1,0.2-0.4,0c-0.2-0.1-0.5-0.2-0.6-0.1l-0.1,0.1l0.2,0.1c0.2,0.1,0.3,0.1,0.5,0.1c0,0,0.1,0,0.1,0.1c0,0.1-0.2,0.5-0.4,0.8
	c0,0,0,0,0,0.1c-0.1,0.1-0.3,0.2-0.3,0.2c-0.2-0.2-0.5-0.4-1.1-0.6c-0.3-0.1-0.7-0.2-1.4-0.2c-0.4,0-0.7,0-0.7-0.1c0,0-0.3,0-0.6,0
	c-0.3,0-0.5,0-0.6,0c0,0-0.1,0-0.3,0c-0.1,0-0.3,0-0.3,0c-0.1,0-0.1,0-0.1,0s-0.1,0-0.2,0c-0.1,0-0.3,0-0.4,0.1
	c-0.2,0.1-0.2,0.1-0.4,0c-0.1,0-0.4-0.1-0.7-0.1c-0.2,0-0.3,0-0.4,0c-0.1,0-0.2,0-0.4,0c-0.3,0-0.6,0-0.7,0.1
	c-0.1,0.1-0.2,0.1-0.4,0c-0.1,0-0.3-0.1-0.4-0.1c-0.1,0-0.2,0-0.2-0.1c0,0-0.1,0-0.1,0c-0.1,0-0.2,0-0.3,0c-0.1,0-0.2,0-0.3,0
	c0,0-0.3,0-0.6,0c-0.3,0-0.5,0-0.6,0c0,0-0.3,0-0.7,0c-0.7,0-1.1,0-1.4,0.1c-0.3,0.1-0.7,0.1-0.7,0.1c0,0-0.1-0.1-0.1-0.3
	c0-0.5-0.4-0.8-1.2-0.8l-0.5,0l-0.3,0.2c-0.3,0.2-0.3,0.2-0.3,0.1c0-0.1,0.1-0.2,0.1-0.4c0.2-0.4,0.4-0.5,1-0.5c0.5,0,0.8,0.2,1,0.4
	c0.1,0.3,0.3,0.3,0.4,0c0-0.1,0-0.9,0-0.9c0,0,0-0.1,0-0.1c0-0.1,0-0.2,0-0.3c0-0.1,0-0.2,0-0.2c0.1-0.1,0-0.8-0.1-0.9
	c-0.1-0.2-0.3-0.3-0.6-0.5c-0.3-0.1-0.4-0.1-0.8-0.1c-0.9,0-0.9,0-1.3-0.3c-0.4-0.4-0.5-0.7-0.6-1c0-0.1,0-0.3,0-0.3
	c-0.1-0.1,0-0.2,0.1-0.2c0,0,0.1,0.1,0.2,0.2c0.8,0.6,1.8,0.9,2.5,1.4c0.1,0,0.4,0.4,0.4,0.5c0,0.2,0.1,0.3,0.2,0.2
	c0.1-0.1,0.1-0.1,0-0.3c-0.1-0.4-0.1-0.4-2.1-1.4c-0.5-0.3-1.3-1.1-1.4-1.5c-0.1-0.6,0-0.6,0.2-0.2c0.1,0.1,0.2,0.3,0.2,0.3
	c0.1,0.1,0.3,0.3,0.4,0.4c0.1,0.1,0.3,0.2,0.3,0.2c0,0,0,0,0.1,0c0.1,0,0.7,0.3,0.8,0.4c0,0,0.1,0.1,0.1,0.1
	c0.1,0.1,0.4,0.3,0.6,0.5c0.1,0.1,0.1,0.1,0.2,0.1c0,0,0.1,0,0.1,0.1c0,0.1,0.2,0.3,0.3,0.3c0.2,0,0-0.4-0.3-0.7
	c-0.6-0.5-0.9-0.8-1.5-1c-0.4-0.2-0.7-0.4-0.9-0.7c-0.1-0.2-0.2-0.3-0.2-0.3c0,0,0-0.1,0-0.1c-0.1,0-0.1,0-0.1-0.4
	c0-0.2,0-0.4,0.1-0.5c0.1-0.4,0.2-0.9,0.5-1.1c0,0,0,0.2,0,0.4c0,0.2,0,0.4,0.1,0.5c0.2,0.6,0.6,1.2,1,1.6c0,0,0.2,0.2,0.4,0.4
	c0.2,0.2,0.4,0.4,0.4,0.4c0,0,0.1,0,0.1,0.1c0,0.1,0.5,0.6,0.6,0.6c0.1,0,0.2-0.1,0.1-0.2c0,0-0.1-0.2-0.2-0.3
	c-0.1-0.1-0.3-0.3-0.4-0.5c-0.7-0.7-1.6-1.5-1.6-2.3c0-0.3,0-0.5-0.1-0.5c0,0,0-0.1,0-0.1c0,0,0.1,0,0.1-0.1c0-0.1,0.1-0.5,0.2-0.7
	c0.1-0.1,0.1-0.3,0.1-0.3c0,0,0,0,0,0c0,0,0.1,0,0.1-0.1c0.1-0.2,0.4-0.3,0.6-0.3c0.1,0,0.1,0,0.1,0.2c0,0.1-0.1,0.3-0.1,0.4
	c0,0.1-0.1,0.2-0.1,0.2c-0.1,0.6-0.2,0.9-0.1,1.3c0,0.3,0.3,0.9,0.4,1c0,0,0.1,0.2,0.2,0.3c0.1,0.1,0.2,0.2,0.2,0.3
	c0.1,0.1,0.1,0.1,0.2,0.2c0.2,0.2,0.6,0.4,0.8,0.5c0.1,0,0.2,0.1,0.3,0.1c0.2,0,1.1,0.1,1.2,0.1c0.1,0,0.1-0.1,0.1-0.2
	c0-0.1,0-0.1,0.2-0.1c0.2-0.1,0.3,0,0.5-0.2c0,0,0.2,0,0.4,0c0.5,0,0.8,0,0.9-0.1c0.1-0.1,0.1-0.1,0.5,0c0.4,0,0.4,0,0.4,0
	c0-0.1,0-0.1,0,0c0,0.1,0,0.1,0.2,0.1c0.1,0,0.2,0,0.2-0.1c0-0.1,0.1-0.2,0.3-0.1c0.2,0.1,0.4,0,0.3-0.1c0,0-0.1-0.1-0.2-0.1
	c-0.4-0.1-0.9-0.7-1.2-1.2c0-0.1-0.1-0.2-0.2-0.2c-0.1-0.1-0.1-0.2-0.2-0.3c-0.5-0.9-0.6-1.6-0.5-2.7c0.1-0.9,0.1-0.9,0.5-1.4
	c0.1-0.2,0.3-0.3,0.3-0.3c0,0,0,0.2,0,0.4c-0.1,0.2,0,0.8,0,1.1c0,0.1,0.1,0.4,0.1,0.6c0,0.2,0.1,0.4,0.1,0.4c0,0.5,0.2,1.3,0.3,1.4
	c0,0,0.1,0.1,0,0.3c0,0.1,0,0.3,0,0.3c0,0.1,0.1,0.2,0.2,0.4c0.2,0.5,0.6,1.1,0.9,1.1c0.1,0,0.2,0.1,0.2,0.1c0,0,0.1,0,0.2,0
	c0.2-0.1,0.2-0.1,0.1-0.1c-0.1,0-0.1,0-0.1,0c0,0.1-0.1,0.1-0.1,0c0,0,0-0.1-0.1-0.1c-0.2-0.1-0.5-0.3-0.6-0.5
	c-0.2-0.4-0.4-1.5-0.4-2.2c0-0.5,0.1-1.2,0.2-1.3c0,0,0.1-0.3,0.2-0.6c0.1-0.3,0.3-0.7,0.4-0.9c0.1-0.2,0.2-0.3,0.2-0.4
	c0-0.1,0.2-0.2,0.2-0.1c0,0,0,0.1-0.1,0.2c-0.1,0.1-0.1,0.2-0.1,0.2c0,0-0.1,0.2-0.1,0.3c-0.1,0.1-0.1,0.3-0.1,0.3
	c-0.6,1.6-0.3,3.3,0.8,4.8c0.1,0.1,0.1,0.2,0.1,0.3c0,0.1,0,0.2,0.2,0.1c0.1,0,0.2,0,0.2-0.1c-0.8-1.2-1.2-2.3-1.2-3.8
	c0-0.6,0.2-1,0.3-1.5c0.1-0.2,0.3-0.7,0.6-1C25.4,6.5,25.7,6.2,25.8,6.2L25.8,6.2z M29,6.6c0.1,0,0.2,0,0.3,0c0.2,0,0.4,0.1,0.5,0.1
	c0.1,0,0.2,0.1,0.3,0.2c0.1,0.1,0.2,0.3,0.2,0.3c0,0-0.1,0-0.1,0c-0.5,0.1-1.1,0.3-1.4,0.6C28.5,8,28.4,8,28.4,8
	c-0.1,0-0.6,0.8-0.8,1.1c-0.1,0.2-0.2,0.5-0.2,0.6l-0.1,0.2l0-0.4c0-0.3,0-0.5,0.1-0.6c0-0.1,0.1-0.3,0.1-0.4c0.1-0.5,1-1.8,1.3-1.9
	C28.8,6.7,28.9,6.6,29,6.6L29,6.6z M20.7,7c0,0,0.2,0,0.3,0c0.2,0,0.3,0,0.3,0.1c0,0.1-0.3,0.3-0.4,0.3c-1.4,0.6-2.2,2.6-1.9,4
	c0,0,0.1,0.1,0.1,0.2c0,0.1,0,0.2,0,0.2c0,0,0.1,0.1,0.1,0.2c0,0.1,0.1,0.2,0.1,0.3c0.1,0.1,0.1,0.1,0.1,0.2c0,0.1,0.7,0.8,0.8,0.8
	c0,0,0,0,0,0.1c0,0.1-0.2,0.1-0.4,0c-0.1,0-0.2-0.1-0.4-0.1c-0.3-0.1-0.7-0.5-0.9-1c-0.1-0.3-0.2-0.8-0.3-1.2c0-0.1,0-0.2,0-0.2
	c0,0,0-0.1,0-0.2c0-0.1,0-0.2,0-0.3C18.3,8.9,19.5,7.3,20.7,7L20.7,7z M21.6,7.5l0,0.1c-0.2,1.6-0.2,2.9,0.6,3.9c0,0,0,0.1,0.1,0.2
	c0.1,0.1,0.2,0.2,0.2,0.3c0.1,0.1,0.1,0.2,0.2,0.3c0.1,0.1,0.2,0.2,0.3,0.3c0.1,0.1,0.2,0.2,0.2,0.2c0,0,0.1,0,0.1,0.1c0,0,0,0,0,0
	c0,0-0.1,0-0.1,0c0,0-0.1,0.1-0.1,0.1c-0.1,0-0.4-0.1-0.6-0.1c-0.1,0-0.2,0-0.3-0.1c0,0-0.1,0-0.1,0c-0.1,0-0.5-0.3-0.7-0.5
	c-0.9-1.1-0.9-2.8-0.3-4.1c0,0,0-0.1,0-0.1c0,0,0.1-0.4,0.1-0.4c0,0,0.1-0.1,0.2-0.1L21.6,7.5z M31.3,7.7c0.1,0,0.1,0.1-0.1,0.2
	c-0.4,0.3-1,1.8-1.5,3.3c-0.2,0.6-0.6,1.2-0.8,1.3c-0.1,0-0.2,0.1-0.3,0.1c-0.4,0.2-0.5,0.1-0.3-0.1c0.1-0.1,0.1-0.2,0.1-0.4
	c0.6-1.1,0.8-2.3,1.5-3.3C29.9,8.8,30,8.7,30,8.7c0,0,0.1-0.1,0.1-0.1c0,0,0-0.1,0.1-0.1c0,0,0.1-0.1,0.2-0.1
	C30.6,8.1,31,7.8,31.3,7.7L31.3,7.7z M20.6,8.1c0,0,0,0.1,0,0.2c0,0.1,0,0.2-0.1,0.3c-0.2,1-0.5,2.7,0.3,3.5c0,0,0.1,0,0.1,0.1
	c0,0,0,0.1,0.1,0.1c0.1,0,0.1,0.1,0.1,0.1c0,0,0,0.1,0.1,0.1c0,0,0.1,0,0.1,0.1c0,0.1,0.1,0.2,0.2,0.2c0.1,0.1,0.2,0.2,0.2,0.2
	c0,0,0.1,0.1,0.1,0.1l0.1,0.1l-0.1,0.1c-0.1,0-0.2,0.1-0.3,0.1c-0.5,0-0.7,0-0.7-0.1c0,0-0.1-0.1-0.2-0.1c-0.2,0-0.3-0.1-0.7-0.4
	c-0.5-0.5-0.6-0.9-0.6-2.1c0-0.7,0.2-1.3,0.5-1.7C20,8.6,20.5,8.1,20.6,8.1L20.6,8.1z M31.7,8.1c0.1,0,0.1,0-0.4,0.6
	c-0.2,0.2-0.4,0.7-0.6,1.1c-0.1,0.2-0.1,0.6-0.2,1.4c0,0.2,0,0.4,0,0.4c0,0,0,0.1,0,0.2c0,0.2-0.2,0.7-0.3,0.7c0,0,0,0,0,0.1
	c0,0.1-0.2,0.4-0.5,0.5c-0.2,0.1-0.3,0.1-0.4,0.1c-0.3,0-0.3-0.1-0.1-0.3c0.1,0,0.1-0.1,0.1-0.2c0,0,0.1-0.2,0.1-0.2
	c0.1-0.1,0.1-0.2,0.1-0.3c0,0,0-0.1,0-0.1c0,0,0.3-0.6,0.3-0.7c0,0,0-0.1,0.1-0.2c0-0.1,0.1-0.2,0.1-0.3c0-0.1,0.1-0.1,0.1-0.2
	c0-0.3,0.8-2,1-2.1c0.1,0,0.1-0.1,0.1-0.1C31.3,8.3,31.6,8.1,31.7,8.1L31.7,8.1z M32.4,8.3c0.1,0,0.1,0.1,0,0.3
	c-0.1,0.2-0.3,1.1-0.3,1.3c0,0.1,0,0.2-0.1,0.3c-0.1,0.3-0.2,0.6-0.2,0.8c0,0.2-0.5,1.1-0.7,1.4c-0.1,0.2-0.5,0.5-0.6,0.5
	c-0.1,0,0.1-0.7,0.3-1c0-0.1,0.1-0.4,0.1-0.8c0-0.4,0.1-0.7,0.1-0.8c0.1-0.5,0.1-0.7,0.3-1.1c0.2-0.4,0.6-0.9,0.7-0.9
	C32.1,8.4,32.2,8.4,32.4,8.3C32.3,8.3,32.3,8.3,32.4,8.3L32.4,8.3z M18.1,9.2c0.1,0,0.1,0.1,0,0.2c0,0.1-0.1,0.3-0.1,0.3
	c-0.1,0.1-0.1,1.2,0,1.7c0.2,1.1,0.2,1.1,0.8,1.7c0.2,0.2,0.4,0.3,0.5,0.3c0.1,0,0.2,0.1,0.3,0.1l0.1,0.1l-0.2,0c-0.1,0-0.2,0-0.2,0
	c0,0-0.2,0-0.3,0c-0.2,0-0.3-0.1-0.6-0.2c-0.2-0.1-0.3-0.2-0.4-0.3c0,0-0.1-0.1-0.2-0.2c-0.3-0.3-0.5-0.6-0.6-1.1
	c-0.1-0.8-0.1-0.9,0-1.2c0-0.1,0.1-0.3,0.1-0.3c0,0,0-0.1,0-0.1c0,0,0.1-0.1,0.1-0.3c0.1-0.2,0.1-0.3,0.4-0.6
	C17.9,9.2,18,9.2,18.1,9.2L18.1,9.2z M32.4,9.9l0.3,0c0.3,0,0.3,0,0.4,0.1c0,0.1,0,0.1,0,0.1c-0.1,0-0.4,0.3-0.5,0.5
	c-0.2,0.3-0.4,0.7-0.4,0.9c0,0.3-0.2,0.6-0.4,0.6c-0.1,0-0.1,0,0.1-0.3c0.1-0.2,0.2-0.5,0.2-0.7c0.1-0.2,0.2-0.5,0.2-0.7L32.4,9.9z
	 M33.4,10.6c0.1,0,0.1,0,0.2,0.1c0,0,0.1,0.1,0.1,0c0-0.1,0.3,0.1,0.4,0.3c0.1,0.1,0.1,0.2,0.2,0.4c0,0.1,0,0.3,0.1,0.5
	c0,0.1,0,0.2,0,0.2c0,0-0.2-0.1-0.4-0.2c-0.2-0.1-0.4-0.2-0.4-0.2c0,0-0.1,0-0.1,0c0-0.1-0.4-0.1-0.6,0c-0.2,0.1-0.3,0-0.2-0.3
	C32.7,11,33.1,10.6,33.4,10.6L33.4,10.6z M33.3,11.9c0.1,0,0.1,0,0.2,0c0.3,0.1,0.6,0.4,0.7,0.6c0.1,0.2,0.2,0.8,0.1,0.9
	c0,0-0.2-0.1-0.3-0.2c-0.3-0.3-0.8-0.6-1-0.6c0,0-0.1,0-0.1,0c0,0-0.1-0.1-0.3-0.1c-0.4-0.1-0.5-0.1-0.5-0.2c0-0.1,0.4-0.3,0.8-0.4
	C33.1,12,33.2,11.9,33.3,11.9L33.3,11.9z M31.9,12.9c0.9,0,1.8,0.5,2.1,1c0,0.1,0.1,0.2,0.1,0.2c0,0,0.1,0.2,0.1,0.3
	c0.1,0.3,0.1,0.6,0,0.7c0,0.1,0,0.1-0.1,0c0-0.1-0.1-0.2-0.2-0.3c-0.1-0.2-0.5-0.6-0.6-0.6c0,0-0.1-0.1-0.2-0.1
	c-0.1-0.1-0.8-0.5-1-0.5c-0.7-0.1-1-0.1-1.5,0.1c-0.1,0-0.1,0-0.1-0.1c0-0.1,0-0.2,0.1-0.2c0,0,0.2-0.1,0.3-0.2
	C31.4,12.9,31.4,12.9,31.9,12.9L31.9,12.9z M15.2,16.7c0,0,0.1,0,0.3,0.1c0.2,0.1,0.7,0.2,1,0.1c0.1,0,0.2,0,0.3,0
	c0.2,0,0.7,0.2,0.8,0.3c0.2,0.2,0.2,0.3,0.2,0.3c0,0,0,0.1,0,0.1c0,0,0,0.2,0,0.3c0,0.2,0,0.3,0,0.3c0,0-0.1-0.1-0.3-0.1
	c-0.6-0.4-0.6-0.4-1.3-0.1c-0.3,0.1-0.5,0.2-0.6,0.1c0,0-0.2-0.1-0.3-0.2l-0.2-0.2l0-0.4C15.2,16.9,15.2,16.7,15.2,16.7L15.2,16.7z
	 M16.7,18.3c0.1,0,0.1,0,0.2,0c0.5,0,0.7,0.1,0.9,0.3c0.2,0.1,0.2,0.2,0.2,0.4c0,0.3-0.1,0.3-0.3,0.1c-0.2-0.1-0.3-0.2-0.8-0.2
	c-0.2,0-0.4,0-0.8,0.1c-0.3,0.1-0.5,0.1-0.5,0.1c-0.1-0.1,0.1-0.3,0.3-0.5C16,18.4,16.3,18.3,16.7,18.3L16.7,18.3z M20.9,19.6
	c-0.4,0-0.7,0-0.9,0.1c-0.3,0.1-0.9,0.4-0.9,0.4c0,0-0.1,0-0.1,0c-0.1,0-0.1,0-0.1,0c0,0,0,0.1,0,0.1c0,0.1,0.2,0.1,0.3,0
	c0.1-0.1,0.2-0.1,0.2-0.1c0.1,0,0.3-0.1,0.4-0.1c0.4-0.1,1.2-0.2,1.4-0.1c0.1,0,0.3,0.1,0.5,0.2c0.2,0,0.4,0.1,0.5,0.2
	c0.1,0.1,0.3,0.1,0.3,0c0,0,0.1-0.1,0.1-0.1c0.3-0.1-0.1-0.3-0.5-0.3c-0.1,0-0.1,0-0.2,0c-0.1-0.1-0.6-0.2-0.8-0.2
	C21.1,19.6,21,19.6,20.9,19.6L20.9,19.6z M28.6,19.7c-0.2,0-0.7,0.1-0.8,0.2c0,0-0.1,0-0.2,0c-0.4,0-0.8,0.2-0.5,0.3
	c0.1,0,0.1,0.1,0.1,0.1c0,0.1,0.2,0.1,0.3,0c0.1,0,0.3-0.1,0.5-0.2c0.2,0,0.4-0.1,0.5-0.1c0.3-0.1,1.1,0,1.4,0.1
	c0.2,0.1,0.4,0.1,0.4,0.1c0.1,0,0.2,0.1,0.2,0.1c0.1,0.2,0.4,0.2,0.3,0c0-0.1,0-0.1,0-0.1c0,0-0.1,0-0.1,0c-0.1,0-0.1,0-0.1-0.1
	c0-0.1-0.6-0.4-0.9-0.5C29.6,19.7,29.1,19.7,28.6,19.7L28.6,19.7z M16.6,20.1C16.7,20.1,16.7,20.2,16.6,20.1
	c0.1,0.1-0.2,0.2-0.2,0.1C16.4,20.2,16.6,20.1,16.6,20.1L16.6,20.1z M17.1,20.5c0,0,0.1,0,0.1,0c0.2,0.1,0.5,0.2,0.6,0.4
	c0,0.1,0.1,0.2,0.1,0.2c0,0-0.1,0.2-0.2,0.3c0,0-0.1,0.1-0.1,0.2c-0.1,0.1-0.1,0.1-0.1,0c0-0.2-0.6-0.5-1.2-0.5c-0.2,0-0.4,0-0.4,0
	c0,0,0.1-0.1,0.1-0.2C16.2,20.7,16.8,20.5,17.1,20.5L17.1,20.5z M33.5,20.8c0,0,0.1,0,0.1,0c0.1,0,0.2,0,0.2,0c0,0,0.1,0,0.1,0.1
	c0,0.1,0.1,0.1,0.1,0.1c0,0,0.1,0,0,0c0,0,0,0.2-0.1,0.4c0,0.3-0.1,0.5-0.2,0.6c-0.1,0.1-0.1,0.3-0.2,0.3c0,0.1-0.1,0.4-0.3,0.6
	c-0.1,0.3-0.2,0.5-0.2,0.5c0,0-0.1,0.2-0.1,0.3c-0.1,0.2-0.1,0.3-0.1,0.3c0,0,0,0.1-0.1,0.2c0,0.2-0.1,0.2-0.1,0.1
	c0,0-0.1-0.1-0.2-0.1h-0.1l0-0.6c0-0.3,0.1-0.8,0.1-1c0-0.2,0.1-0.6,0.1-0.8c0-0.2,0.1-0.5,0.1-0.5c0,0,0-0.1,0-0.2
	c0-0.1,0-0.1,0-0.1c0,0,0.1,0,0.1-0.1c0,0,0-0.1,0.1-0.1c0,0,0.1-0.1,0.1-0.2c0.1-0.1,0.1-0.2,0.2-0.2c0.1,0,0.2,0,0.2-0.1
	C33.5,20.8,33.5,20.8,33.5,20.8L33.5,20.8z M20.3,21c0.2,0,0.4,0,0.7,0c1,0,1.5,0.1,1.9,0.1c0,0,0.1,0,0.2,0c0.1,0,0.1,0.1,0.2,0.2
	c0.1,0.3,0.1,0.6,0.1,1.2c-0.1,0.8-0.2,1.8-0.8,2.3c-0.1,0.1-0.6,0.3-0.8,0.3c-0.1,0-0.3,0.1-0.4,0.1c-0.3,0.1-1.8,0.1-2.1,0
	c-0.2-0.1-0.8-0.6-0.9-0.7c0-0.1-0.1-0.1-0.1-0.2c-0.1-0.1-0.3-1-0.4-1.8c0-0.3,0-0.4,0.1-0.6c0.2-0.5,0.3-0.5,1.2-0.7
	C19.6,21.1,19.8,21.1,20.3,21L20.3,21z M28.1,21.2c0.2,0,0.4,0,0.7,0c1.1,0,1.3,0,1.9,0.2c0.9,0.2,1.1,0.3,1.2,0.8
	c0.1,0.2,0.1,0.4,0,0.6c-0.1,0.8-0.3,1.7-0.5,1.8c0,0-0.1,0.1-0.1,0.2c-0.1,0.2-0.7,0.6-0.9,0.7c-0.3,0.1-1.9,0-2.1,0
	c-0.1,0-0.3-0.1-0.4-0.1c-0.2,0-0.7-0.2-0.8-0.4c-0.3-0.2-0.6-0.9-0.5-1.2c0-0.1,0-0.2,0-0.2c-0.1,0-0.1-0.4-0.2-1
	c0-0.6,0-0.9,0.1-1.2c0.1-0.1,0.1-0.2,0.2-0.2c0.1,0,0.1,0,0.2,0C27.2,21.2,27.6,21.2,28.1,21.2L28.1,21.2z M24.9,21.2
	c0.1,0,0.2,0,0.3,0c0.3,0,0.6,0.1,0.6,0.1c0.1,0.1,0.1,0.1,0.1,0.4l0,0.1c-0.1,0-0.2,0-0.4-0.1c-0.3,0-0.8-0.1-1.1,0
	c-0.1,0-0.2,0-0.3,0c-0.2,0-0.3,0-0.4,0l0-0.2c0-0.3,0-0.3,0.1-0.4c0.1,0,0.4-0.1,0.6-0.1C24.7,21.2,24.8,21.2,24.9,21.2L24.9,21.2z
	 M16.4,21.5c0.4,0,0.8,0.2,0.8,0.5c0,0.2,0,1.8,0,1.8c0,0,0,0.5-0.1,1c0,0.5-0.1,1-0.1,1c-0.1,0-0.2-0.3-0.1-0.4
	c0-0.1,0-0.4-0.2-0.7c0,0,0-0.1,0-0.2c0-0.1,0-0.2-0.1-0.2c0-0.1-0.1-0.2-0.1-0.4c-0.3-0.7-1-1.2-0.9-1.8c0,0,0.1-0.1,0.1-0.1
	c0-0.1,0.3-0.4,0.4-0.5C16.1,21.5,16.2,21.5,16.4,21.5L16.4,21.5z M20.1,21.8C20.1,21.8,20.1,21.8,20.1,21.8c-0.2,0.1-1,0.8-1,0.9
	c0,0,0,0.1-0.1,0.2c-0.3,0.2-0.5,0.5-0.5,0.6c0,0.1,0,0.1,0.1,0.1c0.1,0,0.6-0.4,0.6-0.5c0,0,0-0.1,0.1-0.1c0.1,0,0.5-0.5,0.5-0.6
	c0,0,0.1-0.2,0.3-0.3c0.2-0.2,0.2-0.3,0.2-0.3C20.2,21.8,20.1,21.8,20.1,21.8L20.1,21.8z M21.3,21.8c0,0-0.1,0-0.1,0
	c-0.1,0.1-0.4,0.4-0.6,0.6c-0.2,0.2-0.9,1.1-1.1,1.3c-0.1,0.1-0.1,0.2-0.1,0.2c0,0,0,0.1,0,0c0,0-0.1,0.1-0.1,0.2
	c-0.5,0.6-0.3,0.6,0,0.4c0.1-0.1,0.3-0.3,0.4-0.5c0.1-0.2,0.3-0.3,0.3-0.3c0,0,0.1-0.1,0.2-0.2c0.1-0.1,0.2-0.2,0.3-0.3
	c0.1-0.1,0.2-0.2,0.2-0.3c0,0,0.1-0.1,0.2-0.3c0.1-0.1,0.1-0.2,0.2-0.2c0.1,0,0.4-0.3,0.4-0.4c0,0,0-0.1,0.1-0.1
	C21.4,22,21.4,21.8,21.3,21.8C21.3,21.8,21.3,21.8,21.3,21.8L21.3,21.8z M19.1,21.8c-0.1,0-0.4,0.3-0.5,0.5
	c-0.1,0.1-0.2,0.2-0.2,0.3c0,0-0.1,0.1-0.1,0.1c0,0,0,0,0,0.1c0,0,0,0,0,0c0,0.1,0,0.1,0.1,0.1c0,0,0.3-0.2,0.5-0.5
	c0.5-0.4,0.5-0.5,0.4-0.5C19.2,21.9,19.1,21.8,19.1,21.8L19.1,21.8z M28.7,21.9C28.7,21.9,28.6,21.9,28.7,21.9c-0.2,0.1-1,0.8-1,0.9
	c0,0,0,0.1-0.1,0.2c-0.3,0.2-0.5,0.5-0.5,0.6c0,0.1,0,0.1,0.1,0.1c0.1,0,0.6-0.4,0.6-0.5c0,0,0-0.1,0.1-0.1c0.1,0,0.5-0.5,0.5-0.6
	c0,0,0.1-0.2,0.3-0.3c0.2-0.2,0.2-0.3,0.2-0.3C28.8,21.9,28.7,21.9,28.7,21.9L28.7,21.9z M29.8,21.9c0,0-0.1,0-0.1,0
	c-0.1,0.1-0.5,0.4-0.6,0.6c-0.2,0.2-0.9,1.1-1.1,1.3c-0.1,0.1-0.1,0.2-0.1,0.2c0,0,0,0,0,0c0,0-0.1,0.1-0.1,0.2
	c-0.5,0.6-0.3,0.6,0,0.4c0.1-0.1,0.3-0.3,0.4-0.4c0.1-0.2,0.3-0.3,0.3-0.3c0,0,0.1-0.1,0.2-0.2c0.1-0.1,0.2-0.2,0.3-0.3
	c0.1-0.1,0.2-0.2,0.2-0.3c0,0,0.1-0.1,0.2-0.3c0.1-0.1,0.1-0.2,0.2-0.2c0.1,0,0.4-0.3,0.4-0.4c0,0,0-0.1,0.1-0.1
	C30,22.2,30,22,29.8,21.9C29.9,22,29.8,22,29.8,21.9L29.8,21.9z M27.6,22c-0.1,0-0.4,0.3-0.5,0.5c-0.1,0.1-0.2,0.2-0.2,0.3
	c0,0-0.1,0.1-0.1,0.1c0,0,0,0,0,0.1c0,0,0,0,0,0c0,0.1,0,0.1,0.1,0.1c0,0,0.3-0.2,0.5-0.5c0.4-0.4,0.5-0.5,0.4-0.5
	C27.7,22,27.7,22,27.6,22L27.6,22z M22.2,22c-0.1,0-0.2,0.1-0.5,0.4c-0.2,0.2-0.4,0.5-0.4,0.5c0,0-0.1,0.1-0.2,0.2
	c-0.1,0.1-0.3,0.3-0.4,0.5c-0.1,0.2-0.3,0.4-0.4,0.5c-0.2,0.2-0.3,0.3-0.2,0.4c0,0.1,0.1,0.1,0.2-0.1c0.5-0.4,0.9-0.8,1-1
	c0.1-0.1,0.2-0.3,0.3-0.4c0.1-0.1,0.2-0.3,0.4-0.5c0.1-0.2,0.2-0.3,0.3-0.4C22.4,22.2,22.4,22.1,22.2,22C22.2,22,22.2,22,22.2,22
	L22.2,22z M24.9,22.1c0.1,0,0.3,0,0.3,0.1c0.1,0,0.3,0.1,0.3,0.1c0.1,0,0.2,0,0.2,0c0.1,0,0.1,0,0.1,0c0,0,0,0,0,0
	c0.1,0,0.1,0,0.1,0.2c0,0.1,0,0.3,0,0.5c0,0.1,0.1,0.3,0.1,0.4c0,0.3,0.2,1,0.3,1.2c0.1,0.3,0.3,0.5,0.7,0.8
	c0.3,0.3,0.6,0.4,1.5,0.6c0.8,0.1,1.8,0.1,2.2-0.1c0.4-0.2,0.8-0.6,0.8-0.8c0-0.1,0.1-0.2,0.1-0.2c0.1-0.2,0.2-0.3,0.3-0.7
	c0-0.1,0.1-0.2,0.1-0.2c0,0.3-0.1,0.6-0.1,1c0,0.2-0.1,0.5-0.1,0.6c-0.1,0.5-0.2,0.8-0.2,1.3c-0.1,0.3-0.1,0.6-0.1,0.7
	c0,0.1-0.1,0.3-0.1,0.4c-0.1,0.3-0.2,0.8-0.3,0.9c0,0-0.7-0.1-1.1-0.3C29.3,28.1,28.8,28,27,28c-1.4,0-1.6-0.1-1.8-0.1
	c-0.2-0.1-0.2-0.1-0.3,0c-0.1,0-0.2,0.1-0.3,0.1c-0.1,0-0.2,0.1-0.2,0.1c-0.2,0.1-0.4,0.3-0.6,0.3c-0.1,0-0.2,0-0.2,0.1
	c-0.1,0.1-0.3,0.1-1.1,0.1c-0.4,0-0.9,0-1,0.1c-0.2,0-0.5,0.1-0.7,0.1c-0.2,0-0.4,0-0.5,0.1c0,0-0.1,0-0.2,0c-0.2,0-0.8,0.2-0.9,0.2
	c-0.1,0.1-0.2,0-0.3-0.3c-0.1-0.1-0.2-0.4-0.3-0.5c-0.1-0.2-0.4-0.8-0.7-1.4c-0.1-0.1-0.1-0.3-0.1-0.4c0-0.1,0-0.2-0.1-0.2
	c0,0-0.1-0.1-0.1-0.3c-0.1-0.2-0.1-0.2-0.3-0.3l-0.2,0l0.1-0.1c0.1-0.1,0.1-0.1,0.1-0.6c0-0.3,0-0.5,0-0.6c0.1-0.7,0.1-1.1,0.2-1
	c0,0,0.1,0.2,0.1,0.4c0.1,0.4,0.2,0.6,0.3,0.7c0,0,0.1,0.1,0.1,0.2c0,0.2,0.4,0.6,0.8,0.8c0.3,0.2,1.4,0.3,2.2,0.1
	c0.9-0.1,1.1-0.2,1.5-0.5c0.4-0.3,0.6-0.5,0.7-0.8c0.1-0.2,0.3-1,0.4-1.2c0-0.1,0-0.2,0.1-0.4c0-0.1,0.1-0.3,0.1-0.5
	c0-0.2,0-0.2,0.1-0.2c0.1,0.1,0.2,0.1,0.4,0c0.1,0,0.2,0,0.3-0.1C24.6,22.1,24.7,22.1,24.9,22.1L24.9,22.1z M30.8,22.2
	c-0.1,0-0.2,0.1-0.5,0.4c-0.2,0.2-0.4,0.5-0.4,0.5c0,0-0.1,0.1-0.2,0.2c-0.1,0.1-0.3,0.3-0.4,0.5c-0.1,0.2-0.3,0.4-0.4,0.5
	c-0.2,0.2-0.3,0.3-0.2,0.4c0.1,0.1,0.1,0.1,0.2-0.1c0.5-0.4,0.9-0.8,1-1c0.1-0.1,0.2-0.3,0.3-0.4c0.1-0.1,0.2-0.3,0.4-0.4
	c0.1-0.2,0.2-0.3,0.3-0.4C30.9,22.3,30.9,22.2,30.8,22.2C30.8,22.2,30.8,22.2,30.8,22.2L30.8,22.2z M22.8,23.1
	c-0.1,0-0.3,0.2-0.5,0.5c-0.1,0.1-0.3,0.3-0.4,0.4c-0.1,0.1-0.2,0.2-0.1,0.3c0,0.1,0.1,0.1,0.2,0c0.1,0,0.1-0.1,0.1-0.1
	c0,0,0,0,0.1,0c0,0,0.1,0,0.1,0c0-0.1,0-0.2,0.1-0.1c0.1,0,0.4-0.3,0.5-0.5c0-0.1,0.1-0.2,0.1-0.2C22.9,23.3,22.9,23.1,22.8,23.1
	L22.8,23.1z M31.3,23.2c-0.1,0-0.3,0.2-0.5,0.5c-0.1,0.1-0.3,0.3-0.4,0.4c-0.1,0.1-0.2,0.2-0.1,0.3c0,0.1,0.1,0.1,0.2,0
	c0.1,0,0.1-0.1,0.1-0.1c0,0,0,0,0.1,0c0,0,0.1,0,0.1,0c0-0.1,0-0.2,0.1-0.1c0.1,0,0.4-0.3,0.5-0.5c0-0.1,0.1-0.2,0.1-0.2
	C31.5,23.4,31.4,23.2,31.3,23.2L31.3,23.2z M32.4,25c0,0,0.1,0.1,0.2,0.3c0.1,0.2,0.2,0.4,0.2,0.4c0,0,0,0.1,0.1,0.2
	c0.1,0.2,0.1,0.3,0.2,0.5c0,0.1,0,0.3,0.1,0.6c0,0.2,0.1,0.6,0.1,0.8c0,0.2,0,0.6,0.1,0.8c0,0.5,0,0.6-0.2,0.6
	c-0.3,0-0.3-0.1-0.3-0.4c0-0.2,0-0.3-0.1-0.4c0,0,0-0.1,0-0.1c0-0.1-0.1-0.8-0.2-1c0-0.1-0.1-0.3-0.1-0.5c0-0.2-0.1-0.3-0.1-0.4
	c0-0.1,0-0.1,0-0.3c0-0.1,0.1-0.4,0.1-0.6C32.3,25.2,32.3,25,32.4,25L32.4,25z M26.5,25.9c-0.1,0-0.2,0.1-0.2,0.3c0,0.1,0,0.2,0,0.2
	c0,0-0.1,0-0.2,0.1c-0.1,0.1-0.2,0.1-0.5,0.1c-0.3,0-0.4,0-0.5,0.1c-0.1,0.1-0.2,0.1-0.2,0.1c0,0-0.1,0-0.1,0.1
	c-0.2,0-0.3,0.1-0.6-0.1c-0.2-0.1-0.5-0.2-0.7-0.3c-0.5-0.1-0.5-0.1-0.5-0.3c0-0.2-0.2-0.2-0.3-0.2c-0.1,0.1-0.1,0.4,0,0.5
	c0.1,0.1,0.2,0.2,0.7,0.2c0.4,0.1,0.6,0.2,0.8,0.3c0.3,0.2,0.5,0.2,0.7,0c0.3-0.4,0.5-0.1,0.9-0.2c0.2-0.1,0.5-0.2,0.6-0.3
	c0.1-0.1,0.1-0.2,0.2-0.2C26.7,26.2,26.7,26,26.5,25.9C26.6,25.9,26.5,25.9,26.5,25.9L26.5,25.9z M17.5,26.8c0,0,0.2,0.3,0.3,0.7
	c0.2,0.4,0.4,0.8,0.4,0.8c0.1,0.1,0.1,0.3,0.2,0.4c0.2,0.4,0.2,0.5-0.2,0.7c-0.2,0.1-0.3,0.2-0.3,0.2c-0.1,0-0.1-0.2-0.2-0.5
	c-0.1-0.2-0.1-0.5-0.1-0.7C17.6,28.1,17.5,26.8,17.5,26.8L17.5,26.8z M17,27.1c0,0,0.1,0.4,0.2,0.9c0,0,0,0.1,0,0.2
	c0.1,0.6,0.3,1.2,0.3,1.6c0,0.2,0,0.2-0.2,0.3c-0.2,0.1-0.2,0.1-0.3,0c-0.4-0.9-0.3-1.4-0.1-2.3c0-0.1,0.1-0.2,0.1-0.2
	C16.9,27.4,17,27.1,17,27.1L17,27.1z M32,27.3c0,0,0.1,0.1,0.1,0.2c0,0.1,0.1,0.3,0.1,0.4c0,0.1,0.1,0.4,0.1,0.6
	c0,0.2,0,0.4,0.1,0.4c0,0-0.1,0.1-0.2,0c0,0-0.1,0-0.2,0c-0.3,0-0.4-0.1-0.3-0.2c0,0,0-0.2,0.1-0.2c0-0.1,0-0.3,0.1-0.4
	c0.1-0.2,0.1-0.3,0.1-0.4C31.8,27.5,31.9,27.2,32,27.3L32,27.3z M25.1,28.2c0.1,0,0.1,0.1,0.2,0.3c0.1,0.1,0.2,0.3,0.3,0.4
	c0.1,0.1,0.2,0.2,0.2,0.2c0,0,0.1,0.1,0.2,0.1c0.5,0.5,1.2,0.5,1.8,0.6c-0.3,0.4-0.6,1.4-1,1.6c-0.1,0-0.2-0.1-0.4,0
	c-0.5,0-0.5,0-0.9-0.1c-0.3-0.1-0.3-0.1-0.5,0c-0.1,0-0.2,0.1-0.2,0c0,0-0.2-0.1-0.3-0.1c-0.2,0-0.3,0-0.4,0.1
	c-0.2,0.1-0.2,0.1-0.2,0.5c0,0.4,0.1,0.9,0.3,1.2c0.1,0.1,0.2,0.3,0.2,0.4c0.1,0.1,0.1,0.3,0.2,0.4c0.1,0.2,0.4,1,0.5,1.3
	c0.2,1,0.2,2.4-0.1,3c0,0.1-0.1,0.2-0.1,0.2c0,0,0,0.1-0.1,0.1c0,0-0.1,0.1-0.1,0.1c0,0.1-0.2,0.4-0.3,0.6c-0.1,0.1-0.1,0.2-0.1,0.2
	c0,0,0,0.1-0.1,0.1c0,0-0.1,0-0.1,0.1c0,0,0,0.1-0.1,0.1c0,0-0.1,0.1-0.3,0.1c-0.2,0.1-0.7,0.3-0.7,0.1c0,0,0.1-0.1,0.2-0.3
	c0.2-0.2,0.5-0.7,0.6-1.1c0.1-0.4,0.2-1,0.2-1.4c-0.1-0.9-0.1-1.3-0.2-1.7c0-0.2-0.1-0.4-0.1-0.5c0-0.1-0.1-0.3-0.1-0.5
	c-0.3-1-0.4-2.3-0.3-2.4c0,0,0.1-0.1,0.1-0.3c0-0.1,0.1-0.3,0.2-0.5l0.1-0.3l-0.2-0.1c-0.1-0.1-0.2-0.1-0.5-0.1
	c-0.6,0.1-0.8-1.1-1-1.3c0.3-0.1,0.6-0.1,0.8-0.2c0.8-0.1,1.4-0.5,1.8-1.2C25,28.3,25,28.2,25.1,28.2L25.1,28.2z M24.6,28.3
	c0.1,0-0.1,0.4-0.3,0.6c-0.2,0.4-0.7,0.5-1.2,0.6c-1,0.2-1.5,0.2-2.1,0.9c-0.1,0.1-0.3,0.3-0.5,0.4c-0.6,0.5-1.4,0.8-2.1,0.9
	c-0.1,0-0.3,0-0.4,0.1c-0.1,0-0.2,0-0.4,0c-0.2,0-0.3-0.1-0.3-0.1c0,0-0.1,0-0.1-0.1c0,0-0.1-0.1-0.1-0.1c-0.2-0.1-0.2-0.2,0-0.2
	c0.5,0,1.1-0.2,1.2-0.3c0.9-0.5,1.3-0.9,2.1-1.5c0.1,0,0.1-0.1,0.1-0.2c0,0,0.1-0.1,0.2-0.1c0.2,0,0.2,0,0.4-0.1
	c0.3-0.1,1-0.2,1.5-0.1c0.2,0,0.6,0,0.7-0.1c0,0,0.1-0.1,0.2-0.1c0.1,0,0.2-0.1,0.2-0.1c0.1,0,0.2-0.1,0.2-0.1
	c0.1,0,0.2-0.1,0.3-0.1C24.5,28.3,24.5,28.3,24.6,28.3L24.6,28.3z M27.3,28.3c1,0,1.9,0.4,2.6,1c0.4,0.4,0.7,0.5,1.1,0.8
	c0,0,0.2,0.1,0.4,0.1c0.2,0.1,0.5,0.1,0.7,0.1c0.3,0,1.1-0.3,1.2-0.4c0.1-0.1,0.3-0.2,0.3-0.2c0,0,0,0.1,0,0.2
	c0,0.1-0.1,0.1-0.1,0.1c0,0-0.1,0-0.1,0.1c0,0.1-0.1,0.2-0.2,0.3c-0.1,0.1-0.1,0.2-0.1,0.2l0,0c0,0-0.2,0-0.3,0.1
	c-0.1,0.1-0.3,0.1-0.4,0.2c-0.3,0.1-0.8,0-1.1-0.1c-0.2,0-0.3-0.1-0.4-0.1c-0.6-0.2-1.2-0.7-1.8-0.9c-0.9-0.3-1.5-0.1-2.4-0.4
	c-0.3-0.1-0.4-0.2-0.9-0.7c-0.1-0.1-0.2-0.3-0.2-0.4c0,0,0.2,0,0.5,0c0.2,0,0.4,0,0.7,0C27,28.3,27.2,28.3,27.3,28.3L27.3,28.3z
	 M30.2,28.8c0.1,0,0.1,0,0.2,0.1c0.3,0.1,0.7,0.3,1,0.3c0.1,0,0.3,0.1,0.4,0.1c0.1,0,0.4,0.1,0.6,0.1c0.3,0,0.5,0.1,0.5,0.1
	c0,0-0.1,0.1-0.2,0.1c-0.2,0.1-1,0.1-1.3,0C31,29.6,30,28.9,30.2,28.8C30.1,28.8,30.1,28.8,30.2,28.8L30.2,28.8z M20.1,29.1
	C20.1,29.1,20.1,29.1,20.1,29.1c0.1,0,0.2,0,0.2,0.1c-1.2,0.8-2,1.7-2.9,1.7c-0.2,0-0.4,0-0.4,0c0,0,0.2-0.2,0.4-0.3
	c0.5-0.3,0.5-0.3,0.9-0.5c0.1-0.1,0.3-0.2,0.4-0.3c0.1-0.1,0.2-0.1,0.2-0.1c0,0,0.1-0.1,0.2-0.1c0.2-0.1,0.3-0.2,0.7-0.3
	C19.9,29.1,20,29.1,20.1,29.1L20.1,29.1z M33.4,29.1c0,0,0.1,0.1,0,0.2c0,0.1-0.1,0.1-0.1,0C33.3,29.2,33.3,29.2,33.4,29.1
	C33.4,29.1,33.4,29.1,33.4,29.1C33.4,29.1,33.4,29.1,33.4,29.1L33.4,29.1z M26.3,29.8c-0.1,0-0.2,0.1-0.3,0.1
	c-0.3,0.2-1,0.3-1.1,0.3c-0.2,0-0.8-0.2-1.2-0.3c-0.4-0.1-0.4,0.1,0,0.3c0.1,0.1,0.5,0.2,0.6,0.3c0.1,0,0.4,0,0.8,0
	c0.4,0,0.8-0.1,1.1-0.3C26.4,30,26.4,29.8,26.3,29.8L26.3,29.8z M28.3,30.1c0.2,0,1,0.5,1.1,0.7c0.1,0.1,0.2,0.3,0.4,0.5
	c0.7,1.1,0.9,2.7,0.9,3.8c0,1.8,0.1,3.2,0.2,3.2c0,0,0.1,0.2,0.1,0.5c0,0.3,0,0.8,0.1,1c0.1,0.2,0.1,0.2-0.2-0.1
	c-0.2-0.2-0.3-0.4-0.3-0.4c0,0,0-0.1-0.1-0.1c0-0.1,0-0.1-0.1-0.2c0-0.1-0.1-0.4-0.1-0.5c0-0.1,0-0.8,0-1.8c0-1.1-0.1-2.3-0.5-3.3
	c-0.2-0.6-0.4-1.3-0.6-1.8c-0.2-0.5-0.5-0.8-0.6-0.9C28.3,30.2,28.3,30.1,28.3,30.1L28.3,30.1z M22,30.3c0.1,0-0.1,0.8-0.4,1.2
	c-0.4,0.8-0.7,1.9-0.8,3.4c-0.1,1.7-0.4,2.9-0.8,3.5c0,0-0.1,0.1-0.1,0.2c0,0.1-0.2,0.3-0.4,0.4c-0.3,0.3-0.3,0.3-0.2,0.1
	c0.1-0.1,0.1-0.4,0.1-0.6c0-0.2,0.1-0.4,0.1-0.5c0.1,0,0.2-1.4,0.3-3.2c0.2-0.8,0.3-1.8,0.5-2.6c0.2-0.5,0.3-0.6,0.7-1.2
	C21.2,30.9,21.8,30.3,22,30.3L22,30.3z M28,30.4C28,30.4,28,30.4,28,30.4c0.1,0.1,0.5,0.6,0.7,1.1c0.1,0.2,0.1,0.3,0.2,0.5
	c0,0,0,0,0,0c-0.3-0.2-0.8-1-1.1-1.3C27.9,30.5,27.9,30.4,28,30.4L28,30.4z M33.2,30.8L33.2,30.8c-0.1,0.8,0,3.1-0.3,3.8
	c0,0.1-0.1,0.2-0.1,0.1c0,0,0-0.3-0.1-0.5c0-0.3,0-0.5,0-0.5c0,0-0.2-2.1-0.2-2.4c0-0.1,0-0.1,0-0.1c0.1,0,0.1-0.1,0.2-0.1
	C33,30.9,33.1,30.8,33.2,30.8L33.2,30.8z M22.5,31C22.5,31,22.5,31,22.5,31c0.1,0,0.2,0.2,0.3,0.2c0,0,0,0,0,0
	c-0.3,0.5-0.2,1.1-0.4,1.6c-0.1,0.4-0.2,1.2-0.1,2.1c0,0.5,0,0.5,0.1,1.2c0.1,0.5,0.1,0.9,0.2,1.7c0.1,1,0.1,1.6-0.1,1.8
	c0,0-0.1,0.1-0.1,0.1c0,0.1-0.4,0.5-0.5,0.5c-0.1,0.1-0.3,0-0.7-0.1c-0.1,0-0.1-0.1,0.1-0.4c0.1-0.1,0.2-0.3,0.2-0.3
	c0,0,0-0.1,0-0.1c0.1,0,0.3-0.5,0.4-0.8c0.1-0.3,0.1-1.1,0-1.4c0-0.1-0.1-0.6-0.2-1c-0.1-0.5-0.2-0.8-0.3-0.9c0,0-0.1-0.1-0.1-0.1
	c0,0,0-0.1,0-0.2c-0.1-0.1,0-1.5,0.1-1.9C21.7,32.6,21.8,31.2,22.5,31L22.5,31z M30.3,31.2c0,0,0.1,0,0.2,0.1c1.1,1.4,1,3.6,1.3,5.3
	c0.1,0.6,0.3,1.1,0.4,1.7c0,0.1-0.2,0-0.4,0c-0.1,0-0.2-0.1-0.2-0.1c0,0-0.1-0.1-0.2-0.2c-0.3-0.3-0.4-0.5-0.4-1c0-0.3,0-0.7,0-0.9
	c-0.1-0.7-0.1-1.3-0.1-1.8C31,33.1,30.9,32.5,30.3,31.2L30.3,31.2z M27.5,31.2L27.5,31.2c0.1,0,0.3,0.1,0.4,0.2c2,2,2,3.9,1.9,5.7
	c0,0.9,0,1.2,0.1,1.4c0,0.1,0.1,0.3,0.1,0.3c0,0,0,0.1,0.1,0.2c0,0.1,0.1,0.2,0.1,0.2c0,0,0,0.1,0.1,0.2c0.1,0.1,0.1,0.2,0.1,0.2
	c0,0,0,0.1,0,0.1c0,0,0.1,0.1,0.1,0.1c0,0.1-0.2,0.1-0.5-0.1c-0.2-0.1-0.3-0.2-0.4-0.4c-0.8-2.2-0.4-4.3-1.1-6.5
	c-0.2-0.6-0.5-1.2-0.7-1.5l0-0.1C27.4,31.3,27.5,31.2,27.5,31.2L27.5,31.2z M31.3,31.2c0.2,0,0.4,0.1,0.5,0.1c0.1,0,0.2,0,0.3,0
	c0,0.1,0.3,1.5,0.3,2c0,1.5,0.1,2.9,0.2,3c0.1,0.1,0.1,0.2-0.1,0.1c-0.1,0-0.2-0.1-0.2-0.2c-0.2-0.3-0.2-0.7-0.2-1
	c-0.1-0.8-0.3-1.7-0.5-2.3C31.5,32.1,31.3,31.8,31.3,31.2C31.3,31.2,31.3,31.2,31.3,31.2L31.3,31.2z M20.2,31.5c0,0-0.1,0.3-0.2,0.5
	c-0.4,1.3-0.5,2.7-0.7,3.9c0,0.2-0.1,0.6-0.1,0.9c0,0.6-0.1,0.7-0.4,1c-0.1,0.1-0.2,0.2-0.2,0.2c0,0-0.1,0-0.2,0.1
	c-0.2,0.1-0.4,0.1-0.4,0c0,0,0-0.1,0.1-0.3c0-0.1,0.1-0.3,0.1-0.3c0.1-0.1,0.1-0.2,0.3-1.1c0.1-0.8,0.1-1.7,0.3-2.5
	c0.2-0.6,0.5-1.4,0.6-2c0,0,0-0.1,0.1-0.1c0,0,0.2-0.1,0.3-0.1C20.1,31.6,20.2,31.5,20.2,31.5L20.2,31.5z M24.3,31.6
	c0.1,0,0.4,0,0.5,0.1c0,0,0.1,0.1,0.1,0.1c0.2,0,0.8,1,0.8,1.5c0,0.1,0,0.3,0.1,0.3c0,0,0,0.1,0,0.1c0,0-0.1,0.2-0.1,0.4
	c0,0.2-0.1,0.5-0.1,0.5c0,0.1,0,0.2,0,0.3c0,0.2-0.1,0.2-0.1,0c0,0-0.1-0.2-0.1-0.4c-0.1-0.1-0.1-0.3-0.1-0.3c0,0,0-0.1-0.1-0.2
	c0-0.1-0.1-0.3-0.2-0.4c-0.1-0.2-0.2-0.3-0.2-0.4c-0.1,0-0.1-0.1-0.1-0.2c0,0-0.1-0.2-0.1-0.4C24.3,32.4,24.2,31.8,24.3,31.6
	C24.2,31.6,24.2,31.6,24.3,31.6L24.3,31.6z M23.3,31.6C23.3,31.6,23.3,31.6,23.3,31.6c0,0,0,0.2-0.1,0.5c-0.1,0.3-0.1,0.6-0.1,1
	c0,0.5,0.1,0.7,0.2,1.4c0.2,0.6,0.3,1.6,0.4,2.3c0,0.3,0.1,0.5,0.1,0.5c0.1,0,0.1,0,0,0.1c0,0,0,0.2-0.1,0.5c0,0.5-0.1,0.9-0.3,1.2
	c-0.1,0.1-0.1,0.2-0.1,0.2c0,0,0,0,0,0c0,0-0.1,0.1-0.1,0.1c0,0.1-0.4,0.5-0.4,0.5c0,0-0.1,0.1-0.2,0.1c-0.3,0.2-0.3,0.2-0.2,0
	c0.1-0.1,0.2-0.3,0.3-0.5c0.1-0.3,0.2-0.4,0.1-0.7c0-0.9-0.1-1.8-0.2-1.9c0-0.1-0.1-0.2-0.1-0.4c0-0.2,0-0.5-0.1-0.8
	c-0.1-0.3-0.1-0.7-0.1-1c0-0.2,0-0.5,0-0.5c-0.1-0.1,0.2-1.4,0.3-1.7c0.1-0.2,0.1-0.4,0.2-0.5c0-0.1,0.1-0.2,0.1-0.2
	c0,0,0.1-0.1,0.1-0.1C23.1,31.7,23.3,31.6,23.3,31.6L23.3,31.6z M25.4,31.8l0.2,0c0.4,0,1.2,1.1,1.2,1.6c0,0.5,0,2.2,0,2.5
	c-0.1,0.7-0.1,2.5,0.1,2.9c0,0,0,0.1,0,0.1c0,0.1,0.1,0.5,0.2,0.6c0,0,0.1,0.2,0.2,0.3c0.1,0.3,0.1,0.4,0,0.3
	c-0.3-0.2-0.9-0.9-0.9-1.1c0,0,0-0.1-0.1-0.1c-0.1-0.1-0.3-0.5-0.3-0.5c0,0,0,0,0-0.1c-0.2-0.3-0.4-1.8-0.2-2.4
	c0.1-0.3,0.2-2,0.2-2.4c0-0.3-0.1-0.7-0.1-0.9c0-0.1-0.1-0.2-0.1-0.2c0,0-0.1-0.2-0.2-0.3L25.4,31.8z M26.5,31.8
	c0.2,0,0.7,0.2,0.9,0.5c0.3,0.3,0.4,0.4,0.4,0.5c0,0,0,0.2,0.1,0.3c0.6,1.8,0.4,3.9,0.8,5.4c0.1,0.4,0.1,1,0.1,1
	c-0.1,0-0.6-0.3-0.9-0.6c-0.6-0.6-0.6-0.9-0.7-1.7c-0.1-1.2,0.5-3.5-0.3-4.6c0-0.1-0.1-0.2-0.2-0.3c-0.1-0.1-0.2-0.3-0.2-0.3
	C26.4,31.9,26.4,31.9,26.5,31.8C26.4,31.8,26.4,31.8,26.5,31.8L26.5,31.8z M19.1,31.9c0,0,0.1,0,0.1,0.1c0,0.1,0,0.2,0,0.4
	c-0.4,0.9-0.6,1.7-0.7,2.7c0,0.3-0.1,0.5-0.1,0.6c0,0.1-0.1,0.2-0.2,0.3c0,0.1-0.1,0.2-0.2,0.2c-0.1,0.1-0.2,0-0.1-0.1
	c0.1-0.1,0.3-1.6,0.3-3c0-0.5,0.1-0.9,0.1-0.9c0,0,0.2-0.1,0.3-0.1C18.8,31.9,19,31.9,19.1,31.9C19.1,31.9,19.1,31.9,19.1,31.9
	L19.1,31.9z M17.2,32l0.3,0c0.2,0,0.3,0,0.3,0c0,0,0,0.1,0,0.3c0,0.3,0.1,0.9,0,1c0,0,0,0.2,0,0.5c0,0.3-0.1,0.5-0.1,0.5
	c-0.1,0.1-0.1,0-0.1-0.1c-0.2-0.7-0.3-1.3-0.4-2.1L17.2,32z M21.2,35.9c0,0,0.1,0.2,0.2,0.5c0,0.1,0.1,0.5,0.2,0.8
	c0.1,0.5,0.1,0.6,0.1,0.8c0,0.2-0.3,0.6-0.3,0.6c0,0,0,0,0,0.1c0,0.1-0.4,0.4-0.6,0.5c-0.1,0.1-0.1,0.1-0.1,0.1c0,0,0,0,0,0
	c0,0-0.2,0.1-0.3,0.1c-0.3,0.1-0.6,0.2-0.5,0.1c0,0,0.1-0.2,0.3-0.4c0.3-0.4,0.8-1.3,0.8-1.6c0.1-0.3,0.3-1.2,0.3-1.3
	c0-0.1,0-0.1,0.1-0.2C21.1,36,21.1,36,21.2,35.9C21.2,35.9,21.2,35.9,21.2,35.9L21.2,35.9z M18.1,36.4
	C18.2,36.4,18.2,36.4,18.1,36.4c-0.1,0.9-0.2,1.1-0.5,1.9c-0.1,0.1-0.1,0.2-0.1,0.3c0,0.1,0,0.1,0.4,0c0.7-0.3,1.2-0.5,1.2-0.6
	c0,0,0,0,0.1,0c0.1,0,0.1,0,0.1,0.2c-0.1,0.4-0.2,0.8-0.3,1.1c-0.2,0.5-0.1,0.9,0.2,0.8c0.1,0,0.3,0,0.4-0.1c0.3,0,0.7-0.2,0.7-0.3
	c0,0,0,0,0.1,0c0.1,0.1,0.7-0.4,0.9-0.7c0.1-0.1,0.2-0.2,0.2-0.2c0.1,0,0,0.2-0.1,0.3c-0.1,0.1-0.1,0.1-0.1,0.2c0,0-0.1,0.2-0.2,0.3
	c-0.2,0.2-0.3,0.3-0.5,0.2c0,0-0.1,0-0.1,0.1c-0.1,0.2,0.1,0.4,0.4,0.6c0.4,0.2,0.9,0.3,0.9,0.3c0.2-0.1,0.9-0.2,1.2-0.2
	c0.2,0,0.5,0,0.5,0c0.1,0,0.2-0.1,0.3-0.1c0.2,0,0.4-0.3,0.8-0.7c0.3-0.3,0.3-0.3,0.4,0.1c0,0.3,0.1,0.6,0.1,0.8l0,0.1l0.2-0.1
	c0.2-0.1,0.2-0.2,0.4-0.5c0.1-0.2,0.2-0.4,0.3-0.4c0.1,0,0.1-0.1,0.2-0.1c0,0,0.1,0.1,0.3,0.2c0.2,0.3,0.6,0.6,0.9,0.7
	c0.3,0.1,0.8,0.2,1,0.1c0.1,0,0.2-0.1,0.2-0.1c0,0-0.1-0.1-0.3-0.2c-0.2-0.1-0.3-0.2-0.5-0.5c-0.3-0.4-0.4-0.7-0.3-0.7
	c0,0,0.1,0.1,0.3,0.1c0.1,0.1,0.4,0.3,0.5,0.4c0.2,0.1,0.3,0.2,0.4,0.3c0,0,0.1,0.1,0.1,0.1c0,0,0.7,0.5,0.8,0.6
	c0,0,0.1,0.1,0.2,0.1c0.1,0,0.3-0.1,0.3-0.2c0-0.1,0.1-0.1,0.5,0c0.3,0.1,0.3,0.1,0.4,0l0.1-0.1l0-0.1c0.1,0,0.3,0,0.3,0.1
	c0.4,0.1,0.5-0.3,0.3-0.8c-0.1-0.3-0.2-0.6-0.3-1.1c0-0.1,0-0.2,0.1-0.2c0.1,0,0.1,0,0.1,0c0,0,0.5,0.3,1.1,0.6
	C33,39,32.9,39,33,38.9c0-0.1,0-0.2-0.1-0.3c-0.3-0.5-0.4-1.3-0.5-1.9c0-0.1,0-0.1,0.1-0.1c0.1,0,0.3,0.2,0.5,0.4
	c0.2,0.2,0.4,0.3,0.4,0.3c0.1,0.1,0.2,0.2,0.3,0.2c0,0,0.1,0,0.1,0.1c0,0,0,0,0,0c0,0,0,0.1,0,0.2c0,0.1-0.1,0.4-0.1,0.6
	c-0.1,0.2-0.1,0.4-0.1,0.5c0,0.1-0.1,0.3-0.2,0.6c-0.6,1.4-1.2,1.9-2.3,2.7c-1.4,0.9-2.9,1.7-4.4,1.9c-3.6,0.3-5.1-0.5-6.7-1.5
	c-0.4-0.3-0.7-0.5-1.1-0.9c-0.1,0-0.1-0.1-0.2-0.1c-0.6-0.6-1.3-2.2-1.4-2.4C17.1,39,17,38.8,17,38.7c0-0.1-0.1-0.3-0.1-0.5
	c-0.1-0.2-0.1-0.4-0.1-0.6c0-0.1,0-0.2,0-0.2c0,0,0,0,0,0c0,0,0.1,0,0.1,0c0.1,0,0.2-0.1,0.3-0.2c0,0,0.1,0,0.2-0.1
	c0,0,0.1-0.1,0.1-0.1C17.6,36.8,18,36.4,18.1,36.4L18.1,36.4z M25.4,38.2C25.4,38.2,25.4,38.2,25.4,38.2c0.1,0,0.2,0.2,0.3,0.4
	c0.2,0.5,0.2,0.5,0.2,0.6c-0.1,0.2-0.4,0.5-0.5,0.5c0,0,0-0.1,0-0.2c0-0.1,0-0.4,0-0.5C25.3,38.7,25.3,38.3,25.4,38.2L25.4,38.2z
	 M25.4,38.2"/>
</svg>
