<?xml version="1.0" encoding="utf-8"?>
<!-- Generator: Adobe Illustrator 25.2.3, SVG Export Plug-In . SVG Version: 6.00 Build 0)  -->
<svg version="1.1" id="圖層_1" xmlns="http://www.w3.org/2000/svg" xmlns:xlink="http://www.w3.org/1999/xlink" x="0px" y="0px"
	 viewBox="0 0 50 50" style="enable-background:new 0 0 50 50;" xml:space="preserve">
<style type="text/css">
	.st0{fill:#E8ECED;}
	.st1{fill:#B29262;}
	.st2{fill:#663366;}
	.st3{fill:#CC0066;}
	.st4{fill:#F3D1A2;}
	.st5{fill:#E5DDBD;}
	.st6{fill:#CC00CC;}
	.st7{fill:#FFFFFF;}
	.st8{fill:#322722;}
</style>
<g>
	<circle class="st0" cx="25" cy="25" r="23.9"/>
	<path class="st1" d="M25,2.2c12.5,0,22.8,10.2,22.8,22.8S37.5,47.8,25,47.8S2.2,37.5,2.2,25S12.5,2.2,25,2.2 M25,0
		C11.2,0,0,11.2,0,25s11.2,25,25,25s25-11.2,25-25S38.8,0,25,0L25,0z"/>
</g>
<path class="st1" d="M25,2.2c12.5,0,22.8,10.2,22.8,22.8S37.5,47.8,25,47.8S2.2,37.5,2.2,25S12.5,2.2,25,2.2 M25,0
	C11.2,0,0,11.2,0,25s11.2,25,25,25s25-11.2,25-25S38.8,0,25,0L25,0z"/>
<path class="st2" d="M37.5,11.9c-0.1,0-0.1,0-0.2,0c-0.5,0.2-1,0-1.4,0c-0.7-0.1-1.4,0.7-1.2,1.4c0.1,0.4-0.3,0.1-0.4,0
	c-0.4-0.1-1,0-1.2,0.4c-0.1,0.3-0.3,0.6-0.6,0.6c-0.7-0.1-1.4,0.4-1.6,1.1c0,0.4-0.5,0.3-0.7,0.3c-0.4,0-0.4-0.4-0.6-0.6
	c-0.4-0.5-1-0.5-1.5-0.3c-0.4-0.1-0.6-0.5-1.1-0.5c-0.5-0.1-1,0-1.4,0.4c-0.4-0.1-0.7-0.3-1.1-0.3c-0.4-0.1-0.6,0.2-0.9,0.3
	c-0.6-0.4-1.4-0.4-2,0c-0.2,0-0.5,0-0.7,0.2c-0.4,0.2-0.5,0.6-0.8,0.8c-0.2,0-0.6,0.1-0.8,0c-0.2-0.5-0.4-1.1-1-1.2
	c-0.4-0.2-1,0.1-1.2-0.4c-0.1-0.5-0.6-0.7-1-0.7c-0.3-0.1-0.5,0.3-0.7,0.2c0-0.3,0.1-0.6,0-0.9c-0.3-0.8-1.3-0.8-2-0.6
	c-0.4,0-0.8-0.2-1.2-0.1c-0.5,0.1-0.6,0.6-1,0.8c-0.7-0.1-1.5,0-2,0.5c-0.3,0.3-0.1,0.6-0.3,0.9c-0.4,0.3-0.7,0.8-0.6,1.3
	c0.1,0.4,0,0.7-0.3,0.9c-0.6,0.5-0.4,1.5,0.2,1.8c0.3,0.1,0.4,0.5,0.4,0.8c-0.1,0.6,0.5,0.8,0.7,1.2c0.3,0.3-0.2,0.5-0.2,0.7
	c0.2,0.8,0.9,1.6,1.8,1.5c0.5-0.1,0.6,0.4,1,0.6c0.6,0.3,1.4,0,1.8-0.5c0.4,0.3,0.8,0.5,1.2,0.7c0.4,0.1,0.2,0.7,0.5,0.9
	c0.1,0.4,0.7,0.5,0.7,1c-0.1,0.4,0.3,0.8,0.5,1.1c-0.3,0.5-0.4,1-0.4,1.5c0.1,0.8,0.6,1.4,1,2c-0.2,0.4-0.6,0.8-0.7,1.2
	c-0.4,1.1,0.1,2.7,1.3,3.1c0.6,0.3,1.2,0,1.8-0.1c0.5,0.3,0.7,0.8,1,1.2c0.5,0.5,0.7,1.3,0.6,2c0,0.7-0.4,1.4-0.8,1.9
	c-0.4,0.6-1.2,0.9-1.6,1.5c-0.9,0.7-2.2,0.7-3.2,1c-0.2,0.1-0.7,0-0.6,0.4c0.8-0.3,1.6-0.4,2.4-0.5c0.5-0.1,0.9-0.4,1.4-0.4
	c0.2,0.3,0.5,0.7,0.9,0.7c0.3-0.1,0.5,0.1,0.5,0.4c0.1,0.6,0.9,0.5,1.3,0.6c0.4-0.1,0.4,0.3,0.5,0.5c0.3,0.4,1,0.1,1.4,0.4
	c0.5,0.4,1.1,0.2,1.6,0c0.2,0.2,0.4,0.5,0.7,0.6c0.2,0.1,0.3,0,0.5-0.1c0.4,0,0.6-0.5,0.9-0.3c0.5,0.3,1-0.1,1.4-0.2
	c0.5-0.1,1.1-0.1,1.4-0.5c0.2-0.4,0.7-0.3,1-0.6c0.3-0.2,0.4-0.6,0.6-0.8c0.3-0.1,0.6-0.2,0.7-0.5c0.2-0.3,0.5-0.1,0.7,0
	c1.1,0.6,2.3,0.4,3.4,0.6c0-0.1,0.3-0.1,0.2-0.3c-1-0.2-2-0.2-3-0.5c-0.7-0.2-1.2-0.7-1.7-1c-0.7-0.3-1.1-0.9-1.5-1.5
	c-0.1-0.3-0.3-0.6-0.3-1c-0.1-0.9-0.4-1.9,0-2.7c0.1-0.4,0.5-0.5,0.9-0.5c1.1,0.1,2.3-0.6,2.6-1.7c0.1-0.6,0.1-1.3-0.2-1.9
	c-0.1-0.3-0.5-0.6-0.3-1c0.4-0.9,1-1.7,0.9-2.7c0.1-0.3-0.3-0.7,0-1c0.3-0.3,0.2-0.7,0.4-1.1c0.3-0.3,0.7-0.7,0.7-1.2
	c0-0.5,0.5-0.5,0.8-0.6c0.3-0.1,0.5-0.4,0.8-0.4c0.4,0.5,1.1,0.7,1.6,0.5c0.4-0.2,0.7-0.8,1.2-0.7c0.8,0.1,1.3-0.6,1.6-1.2
	c0.2-0.3-0.1-0.6-0.2-0.9c0.1-0.4,0.7-0.6,0.8-1c0.1-0.4-0.2-1,0.3-1.2c0.4-0.2,0.6-0.7,0.6-1.2c0.1-0.5-0.4-0.7-0.6-1.1
	c-0.1-0.6,0.2-1.3-0.4-1.7c-0.3-0.1-0.3-0.4-0.3-0.6c-0.1-0.7-0.8-0.9-1.4-1c-0.3-0.1-0.6,0.1-0.9,0C38.5,12.4,38.1,11.9,37.5,11.9
	L37.5,11.9z M17.8,30.3c0.2,0,0.3,0.2,0.4,0.3c0.5,1,0.9,1.9,1.2,2.9c-0.2,0.2-0.6,0.1-0.9,0.1c-0.7-0.4-1.3-1.1-1.3-2
	C17.3,31.2,17.3,30.5,17.8,30.3L17.8,30.3z M32.2,30.7c0.3,0,0.3,0.5,0.3,0.7c0.2,0.9-0.4,1.9-1.2,2.3c-0.2,0.1-0.6,0.2-0.6-0.1
	c0.3-0.5,0.5-1,0.7-1.5C31.6,31.6,31.6,30.9,32.2,30.7L32.2,30.7z M32.2,30.7"/>
<path class="st3" d="M25.6,32.6c-0.2,0.1-0.4,0.2-0.6,0.3c0,0-0.1,0.1-0.1,0.1c-0.1-0.1-0.2-0.1-0.2-0.2c-0.1-0.1-0.2-0.2-0.3-0.1
	c-0.4,0-0.7,0.4-1,0.6c-0.1,0.1-0.3,0.3-0.1,0.3c0,0,0.1,0,0.1,0c-0.1,0.1-0.1,0.2-0.1,0.3c0,0.5,0.8,0.9,1.7,0.9
	c0.9,0,1.7-0.4,1.7-0.9c0-0.1-0.1-0.3-0.2-0.4c0.2,0,0.3-0.1,0.4-0.2c0.1-0.2-0.2-0.2-0.3-0.3C26.3,32.9,26,32.7,25.6,32.6
	L25.6,32.6z M25.6,32.6"/>
<path class="st4" d="M17.5,30c-0.1,0-0.3,0.1-0.4,0.5c-0.2,0.1-0.2,0.3-0.3,0.5c-0.1,0.2-0.3,0.3-0.2,0.6c0,0.4-0.1,0.9,0.2,1.3
	c0.2,0.3,0.4,0.7,0.7,0.9c0.2,0.1,0.4,0.3,0.7,0.3c0.2,0.1,0.4,0.1,0.6,0c0.1-0.1-0.1-0.2-0.2-0.2c-0.6-0.1-1-0.6-1.3-1.1
	c-0.2-0.4-0.3-1-0.3-1.5C17,31,17.5,30.2,17.5,30C17.5,30,17.5,30,17.5,30L17.5,30z M32.6,30.2c-0.2,0-0.1,0.2,0,0.3
	c0.3,0.5,0.2,1.2,0.1,1.7c-0.2,0.6-0.5,1.1-1,1.3c-0.1,0.1-1,0.2-1.1,0.3c-0.1,0.2,0.8,0.1,0.9,0c0.4-0.1,0.8-0.3,1.2-0.5
	c0.3-0.3,0.6-0.7,0.7-1.1c0.1-0.6,0-1.1-0.2-1.7C33,30.5,32.8,30.3,32.6,30.2L32.6,30.2z M32.6,30.2"/>
<path class="st5" d="M26.2,17.6c-0.4,0.2-0.9,0.2-1.4,0c-0.3,0-0.6,0.3-0.9,0.3c-0.4,0.1-0.7,0.4-1.1,0.3c-0.2,0-0.5-0.2-0.7,0
	c-0.2,0.3-0.3,0.8-0.8,0.8c-0.5,0-0.7-0.5-1-0.8c-0.3,0-0.1,0.4,0,0.5c0.2,0.4,0.2,0.9-0.2,1.2c-0.2,0.2-0.5,0.5-0.9,0.5
	c-0.2,0.2,0.1,0.5,0,0.7c0.1,0.4,0,1-0.4,1.2c-0.4,0.1-0.7-0.1-1.1-0.1c-0.2,0.1-0.2,0.5,0.1,0.5c0.7,0.2,0.9,1.3,0.3,1.7
	c-0.2,0.1-0.4,0.2-0.4,0.5c0,1.3-0.1,2.6,0.3,3.9c0.1,0.8,0.4,1.6,0.7,2.4c0.3,0.7,0.6,1.5,0.9,2.2c0.4,1,1.1,1.9,1.9,2.6
	c0.6,0.4,1.3,0.7,1.9,1.1c0.6,0.4,1.3,0.6,2,0.5c1,0,1.9-0.6,2.7-1.2c1.2-0.9,1.9-2.4,2.6-3.7c0.6-1.3,1.1-2.6,1.2-4
	c0.1-1.3-0.1-2.6,0.1-3.9c0.2,0.1,0,0.6,0.3,0.5c0.1-0.2,0.2-0.4,0.2-0.7c-0.4-0.2-0.8-0.5-0.8-1c0-0.5,0.3-0.8,0.7-1
	c0.2-0.1,0.1-0.6-0.2-0.4c-0.4,0-0.9,0.3-1.2-0.1c-0.3-0.5-0.2-1.1,0-1.6c-0.1-0.2-0.4,0-0.6-0.2c-0.4-0.3-0.9-0.8-0.7-1.4
	c0-0.2,0.2-0.5,0.1-0.7c-0.2,0-0.3,0.3-0.5,0.5c-0.2,0.3-0.5,0.4-0.8,0.2c-0.4-0.1-0.3-0.7-0.7-0.8c-0.5,0.1-1.1,0.2-1.5-0.2
	C26.4,17.7,26.3,17.6,26.2,17.6L26.2,17.6z M29.3,23.8c0.5,0,0.8,0.4,1.2,0.6c0.1,0.2,0,0.4-0.2,0.3c-0.4-0.4-1-0.7-1.6-0.6
	c-0.5,0.1-0.9,0.4-1.3,0.6c-0.3,0-0.4,0.4-0.7,0.4c-0.2-0.2,0.2-0.4,0.4-0.5C27.7,24.2,28.5,23.8,29.3,23.8L29.3,23.8z M20.3,24.1
	c0.8,0.1,1.5,0.4,2.2,0.9c0.1,0.1,0.5,0.4,0.2,0.5c-0.3-0.3-0.7-0.5-1.1-0.7c-0.5-0.3-1.2-0.5-1.8-0.2c-0.3,0.1-0.5,0.4-0.8,0.5
	c-0.2,0-0.1-0.3,0-0.4C19.4,24.4,19.7,24,20.3,24.1L20.3,24.1z M28.6,25.4c0.6,0,1.1,0.4,1.5,0.8c0.2,0.2-0.2,0.4-0.3,0.6
	c-0.6,0.4-1.3,0.4-2,0.3c-0.3-0.1-0.7-0.3-0.9-0.6c0.2-0.5,0.7-0.7,1-1h0.6C28.5,25.4,28.6,25.4,28.6,25.4L28.6,25.4z M21,25.5
	c0.6,0,1.1,0.4,1.5,0.8c0.2,0.2-0.1,0.4-0.3,0.5c-0.5,0.5-1.3,0.4-2,0.4c-0.4-0.1-0.7-0.3-0.9-0.7c0.3-0.4,0.6-0.8,1.1-1
	C20.6,25.6,20.8,25.5,21,25.5L21,25.5z M23.8,25.6L23.8,25.6c0.4,0.7,0.3,1.6,0.3,2.4c0,0.2,0,0.6-0.3,0.6c-0.1-0.4,0.2-0.7,0.1-1.1
	C23.9,26.9,23.8,26.3,23.8,25.6L23.8,25.6z M17,26.4c-0.4,0.1-0.5,0.6-0.5,1c-0.1,0.8,0.3,1.7,1,2.2c0.3,0.1,0.4-0.3,0.3-0.5
	c-0.1-0.4-0.1-0.9-0.4-1.3c-0.3-0.1-0.1,0.4-0.3,0.4c-0.1-0.3-0.2-0.6-0.1-0.9c0.2-0.1,0.6,0,0.4-0.3C17.4,26.8,17.3,26.4,17,26.4
	L17,26.4z M33.1,26.5c-0.3,0-0.6,0.3-0.7,0.6c0,0.2,0,0.6,0.2,0.6c0.3-0.1,0.4-0.4,0.7-0.5c0,0.1,0.1,0.2,0.1,0.3
	c-0.4,0.1-1,0.4-1,0.9c-0.1,0.4-0.2,0.9-0.1,1.3c0.2,0.2,0.4-0.2,0.5-0.3c0.3-0.6,0.6-1.2,0.8-1.8c0,0,0,0,0,0c0,0,0,0,0,0
	c0-0.3,0.3-0.8-0.1-1C33.3,26.5,33.2,26.5,33.1,26.5L33.1,26.5z M26.9,30.1c0.3,0.1,0.1,0.5-0.1,0.5c-0.6,0.2-1.2-0.2-1.7,0.2
	c-0.4,0.2-0.8,0.2-1.1,0c-0.3-0.1-0.7,0.1-1,0c-0.1-0.1,0-0.3,0.1-0.4c0,0.4,0.5,0.2,0.7,0.2c0.3-0.1,0.6,0.1,0.9,0.1
	c0.4,0,0.8-0.4,1.3-0.2C26.1,30.4,26.6,30.5,26.9,30.1C26.8,30.1,26.9,30.1,26.9,30.1L26.9,30.1z M25.7,32.4c0.1,0,0.2,0,0.2,0.1
	l0.1,0l0,0c0.5,0.2,1,0.7,1.6,0.4c0.1-0.1,0.3-0.3,0.5-0.1c-0.1,0.3-0.5,0.5-0.7,0.7c-0.3,0.2-0.7,0.3-0.7,0.7
	c-0.2,0.4-0.7,0.8-1.2,0.7c-0.7,0-1.5,0.1-1.9-0.6c-0.1-0.2-0.3-0.4-0.5-0.5c-0.3-0.1-0.6-0.2-0.7-0.5c0.4-0.1,0.9,0.2,1.1-0.2
	c0.3-0.2,0.5-0.5,0.8-0.6c0.3-0.1,0.6-0.1,0.8,0.2C25.2,32.6,25.4,32.4,25.7,32.4L25.7,32.4z M29.4,35.7
	C29.3,35.7,29.3,35.7,29.4,35.7c-0.9,0.8-1.7,1.5-2.8,1.9c-0.6,0.3-1.3,0.2-1.9,0.1c-1.1-0.3-2.1-1-3.2-1.5c-0.1,0.3,0,0.8,0,1.1
	c0.1,0.5-0.3,1-0.6,1.4c-0.2,0.4-0.5,0.7-0.7,1.1c0.3,0.3,0.3,0.7,0.5,1.1c0.3,0.1,0.8,0.1,1,0.5c0.2,0.2,0.2,0.5,0.4,0.6
	c0.3-0.1,0.8-0.4,1,0c0.3,0.2,0.6,0.4,0.9,0.2c0.5,0,0.9,0.3,1.1,0.7c0.3,0,0.4-0.3,0.7-0.4c0.3-0.2,0.6,0.2,0.9,0.2
	c0.3-0.3,0.8-0.7,1.2-0.4c0.2,0.2,0.5,0.3,0.5-0.1c0.2-0.4,0.6-0.3,0.9-0.5c0.3-0.3,0.4-0.9,0.9-0.9c0.4-0.1,0.5-0.6,0.6-0.9
	c0.1-0.3-0.3-0.4-0.4-0.7c-0.9-1-0.8-2.4-1-3.6C29.5,35.7,29.4,35.7,29.4,35.7L29.4,35.7z M29.4,35.7"/>
<path class="st6" d="M31.4,39.8c-0.4,0-0.8,0.3-0.8,0.7c0,0.4,0.4,0.8,0.8,0.8c0.4,0,0.8-0.3,0.8-0.8C32.2,40.2,31.9,39.8,31.4,39.8
	L31.4,39.8z M19.8,39.9c-0.4,0-0.8,0.4-0.8,0.8c0,0.5,0.4,0.8,0.8,0.8c0.4,0,0.8-0.4,0.8-0.8C20.6,40.3,20.2,39.9,19.8,39.9
	L19.8,39.9z M30.4,41c-0.4,0-0.8,0.3-0.8,0.7c0,0.2,0.1,0.3,0.1,0.4c-0.1-0.1-0.3-0.2-0.5-0.2c-0.4,0-0.8,0.3-0.8,0.7
	c0,0.4,0.4,0.8,0.8,0.8c0.4,0,0.8-0.3,0.8-0.8c0-0.2-0.1-0.3-0.1-0.4c0.1,0.1,0.3,0.2,0.5,0.2c0.4,0,0.8-0.3,0.8-0.8
	C31.1,41.4,30.8,41,30.4,41L30.4,41z M20.9,41.1c-0.4,0-0.8,0.3-0.8,0.8c0,0.4,0.4,0.7,0.8,0.7c0.4,0,0.8-0.3,0.8-0.7
	C21.7,41.4,21.4,41.1,20.9,41.1L20.9,41.1z M22.7,42c-0.4,0-0.8,0.3-0.8,0.7c0,0.4,0.4,0.8,0.8,0.8c0.3,0,0.6-0.2,0.7-0.5
	c0,0,0,0,0,0c0,0.4,0.4,0.8,0.8,0.8c0.4,0,0.8-0.3,0.8-0.8c0-0.4-0.3-0.7-0.8-0.7c-0.3,0-0.6,0.2-0.7,0.5c0,0,0,0,0,0
	C23.5,42.3,23.2,42,22.7,42L22.7,42z M27.5,42.4c-0.4,0-0.8,0.3-0.8,0.8c0,0.4,0.4,0.8,0.8,0.8c0.4,0,0.8-0.3,0.8-0.8
	C28.3,42.8,28,42.4,27.5,42.4L27.5,42.4z M25.9,42.6c-0.4,0-0.8,0.3-0.8,0.8c0,0.4,0.4,0.7,0.8,0.7c0.4,0,0.8-0.3,0.8-0.7
	C26.6,42.9,26.3,42.6,25.9,42.6L25.9,42.6z M25.9,42.6"/>
<path class="st7" d="M28.5,25.5c-0.8,0-1.4,0.4-1.4,0.8c0,0.4,0.6,0.8,1.4,0.8c0.8,0,1.4-0.4,1.4-0.8C29.8,25.9,29.2,25.5,28.5,25.5
	L28.5,25.5z M20.9,25.7c-0.8,0-1.5,0.3-1.5,0.7c0,0.4,0.7,0.7,1.5,0.7c0.8,0,1.5-0.3,1.5-0.7C22.4,26,21.7,25.7,20.9,25.7L20.9,25.7
	z M20.9,25.7"/>
<path class="st2" d="M16.2,13.5c-0.3,0-0.6,0.2-0.6,0.4c0.2,0.4,0.5,0.8,1,0.8c0.3-0.2,0.4-0.7,0.1-1C16.6,13.6,16.4,13.5,16.2,13.5
	L16.2,13.5z M33.9,13.5c-0.4,0-0.6,0.3-0.5,0.6c0,0.3,0.3,0.7,0.6,0.5c0.2-0.1,0.4-0.2,0.5-0.4c0.3-0.2,0.2-0.5-0.1-0.6
	C34.2,13.5,34.1,13.5,33.9,13.5L33.9,13.5z M37.1,13.7c-0.5,0.1-0.6,0.8-0.4,1.2c0.1,0.3,0.6,0.6,0.8,0.2c0.2-0.1,0.2-0.5-0.1-0.5
	c-0.2,0-0.1-0.1,0.1-0.1c0.3-0.1,0.3,0.2,0.3,0.4c-0.1,0.3,0.1,0.5,0.4,0.6c0.1,0.1,0.4,0,0.2-0.2c-0.2-0.1,0.1-0.3,0.1-0.5
	c0.1-0.5-0.5-0.8-0.8-0.9C37.5,13.8,37.3,13.7,37.1,13.7L37.1,13.7z M26.5,14.5c-0.5,0-0.9,0.5-0.9,0.9c0.1,0.4,0.3,0.9,0.7,0.8
	c0.5,0.1,1-0.7,0.4-0.9c-0.2,0.1-0.3,0.5-0.6,0.3c-0.3-0.3,0.2-0.5,0.4-0.5c0.4-0.1,0.8,0.3,0.6,0.7c-0.1,0.1,0,0.5,0.2,0.3
	c0.2-0.4,0.3-0.8,0.2-1.2C27.4,14.6,26.9,14.5,26.5,14.5L26.5,14.5z M19.9,15.9c-0.4,0-1,0.3-0.9,0.8c0.2,0.2,0.4-0.3,0.6-0.3
	c0.1-0.1,0.4,0,0.3,0.2c-0.2,0-0.5,0.1-0.3,0.4c0.4,0.3,1.1,0,1-0.5C20.5,16.2,20.2,15.9,19.9,15.9L19.9,15.9z M41.2,16.2
	c-0.5,0.1-0.6,0.8-0.2,1.2c0.2,0.2,0.6,0.1,0.5-0.2c-0.1-0.1-0.2-0.3,0-0.3c0.2-0.1,0.4,0,0.4,0.2c-0.1,0.3-0.4,0.7-0.7,0.6
	c-0.2,0-0.7,0-0.5,0.3c0.3,0.2,0.7,0.5,1.1,0.3c0.6-0.3,0.9-1.2,0.3-1.7C41.8,16.4,41.5,16.2,41.2,16.2L41.2,16.2z M23.7,16.3
	c-0.4,0.1-0.8,0.6-0.6,1c0.3,0.4,1,0.4,1.3,0.1c0.3-0.3,0-0.9-0.4-0.8c-0.1,0.1,0.1,0.4-0.2,0.4c-0.3-0.1-0.1-0.4,0-0.5
	C23.8,16.4,23.8,16.3,23.7,16.3L23.7,16.3z M34.2,17.1c-0.5,0.1-0.7,0.6-0.8,1.1c0,0.5,0.6,0.6,0.9,0.4c0.3-0.2,0-0.5-0.2-0.6
	c-0.2-0.1,0.1-0.2,0.2-0.1c0.2,0,0.5,0.2,0.4,0.5c0,0.2-0.2,0.4,0,0.5c0.2,0,0.5,0.2,0.7,0.1c0-0.2-0.1-0.4-0.1-0.6
	c-0.1-0.2-0.4-0.4-0.4-0.6C34.8,17.5,34.5,17.2,34.2,17.1L34.2,17.1z M30.8,18.1c-0.6,0.1-0.8,1-0.4,1.4c0.2,0.3,0.5,0.5,0.8,0.3
	c0.3-0.2,0.8-0.7,0.4-1.1c-0.2-0.2-0.6,0-0.5,0.3c-0.1,0.2-0.3,0.2-0.3,0c-0.1-0.3,0.2-0.6,0.4-0.8C31.1,18.2,30.9,18.1,30.8,18.1
	L30.8,18.1z M17.3,18.8c-0.6,0.1-1.2,1-0.8,1.5c0.2,0.2,0.4,0.3,0.6,0.5c0.4,0.2,0.5-0.3,0.8-0.5c0.2-0.2,0.6-0.2,0.6-0.5
	c0-0.2-0.3-0.3-0.4-0.1C17.9,20.1,17,20,17,19.5c0.2-0.1,0.3,0.3,0.5,0.2c0.4,0.1,0.4-0.5,0.2-0.7C17.6,18.9,17.5,18.8,17.3,18.8
	L17.3,18.8z M36.7,19.4c-0.5,0-0.7,0.9-0.1,1c0.2,0,0.2-0.3,0.3-0.3c0.2,0.1,0,0.4-0.2,0.5c-0.3,0.2-0.5,0-0.8-0.1
	c-0.2,0.1-0.3,0.4,0,0.5c0.5,0.3,1.1,0.4,1.5,0c0.4-0.4,0.3-1-0.1-1.3C37.1,19.5,36.9,19.4,36.7,19.4L36.7,19.4z M12.3,21.3
	C12.3,21.3,12.3,21.3,12.3,21.3c-0.7,0.1-1,0.8-0.7,1.3c0.1,0.4,0.6,0.5,0.9,0.4c0.6-0.1,1.1-0.8,0.8-1.4c-0.2-0.2-0.4,0.1-0.4,0.2
	c-0.1,0.2-0.2,0.5-0.5,0.5c-0.1-0.1-0.4-0.2-0.1-0.2C12.7,21.9,12.7,21.3,12.3,21.3L12.3,21.3z M34.2,22.8c-0.2,0.1-0.5,0.3-0.5,0.6
	c0.1,0.2,0.5,0.2,0.6,0.1c-0.2,0.3-0.8,0.2-0.9,0.6c-0.2,0.2,0,0.5,0.2,0.5c0.5,0.1,1-0.2,1.1-0.7C34.8,23.5,34.7,22.9,34.2,22.8
	L34.2,22.8z M16,22.8c-0.5,0.1-0.6,0.6-0.5,1c0.1,0.5,0.4,0.9,1,0.8c0.2,0,0.5,0,0.4-0.3c0-0.3-0.3-0.5-0.6-0.6
	c-0.1,0-0.5-0.3-0.2-0.2c0.3,0.1,0.6-0.2,0.4-0.5C16.3,23,16.1,22.8,16,22.8L16,22.8z M16,22.8"/>
<path class="st8" d="M14.2,11.8c-0.5,0.1-0.6,0.1-0.7,0.1c-0.1,0.1-0.1,0.1-0.3,0c-0.3-0.2-0.8-0.1-1.2,0.1
	c-0.2,0.1-0.6,0.6-0.7,0.8c0,0.1-0.1,0-0.2,0c-0.3-0.2-1-0.1-1.6,0.2c-0.4,0.2-0.7,0.7-0.6,1c0,0.2,0,0.3-0.1,0.3
	c-0.1,0-0.3,0.2-0.4,0.5c-0.1,0.2-0.1,0.3-0.1,0.7c0,0.2,0,0.5,0.1,0.5c0,0.1,0,0.1,0,0.1c-0.1,0-0.6,0.5-0.7,0.8v0.7
	c0.1,0.3,0.3,0.6,0.7,0.8l0.3,0.1l0,0.3c0,0.4,0,0.8,0.2,0.9c0,0.1,0.1,0.1,0.2,0.2c0.2,0.2,0.3,0.3,0.3,0.3c0.1,0,0.2,0.2,0.1,0.3
	c0,0.1-0.1,0.2-0.2,0.2c-0.1,0.1-0.1,0.2-0.1,0.3c0,0.1,0,0.1,0,0.1c0,0,0,0.1,0,0.2c0.1,0.2,0.5,0.8,0.5,0.8c0,0,0.1,0.1,0.2,0.1
	c0.2,0.2,0.6,0.3,0.8,0.4c0.2,0,0.5-0.1,0.6-0.1c0,0,0.1,0,0.2,0.2c0.2,0.2,0.3,0.3,0.5,0.5c0.2,0.1,0.6,0.2,1,0
	c0.3-0.1,0.5-0.2,0.7-0.5c0.1-0.1,0.1-0.1,0.2-0.1c0.4,0.4,0.5,0.5,0.6,0.5c0,0,0.1,0,0.2,0.1c0.1,0,0.2,0.1,0.3,0.1
	c0.2,0,0.2,0.1,0.2,0.3c0,0.4,0.3,1,0.5,1c0,0,0.1,0.1,0.2,0.2C16,24.9,16,25,16,25.1c-0.1,0.2,0.1,0.7,0.3,0.8
	c0.1,0.1,0.1,0.1,0.2,0.2c0,0,0.1,0.1,0.1,0.1c-0.1,0.1-0.2,0.3-0.3,0.6c-0.1,0.3-0.1,1,0,1.3c0.1,0.2,0.5,1,0.7,1.3
	c0.3,0.4,0.3,0.4,0.2,0.5c-0.1,0.1-0.5,0.6-0.5,0.7c0,0-0.1,0.1-0.1,0.2c-0.2,0.2-0.3,0.8-0.3,1.2c0.1,0.5,0.2,1.1,0.4,1.4
	c0.1,0.1,0.2,0.3,0.3,0.4c0.1,0.1,0.1,0.2,0.1,0.2c0,0,0.2,0.1,0.4,0.2c0.2,0.1,0.4,0.2,0.6,0.2c0.1,0,0.2,0,0.2,0c0,0,0.1,0,0.2,0
	c0.1,0,0.2,0,0.2,0s0.1,0,0.1,0c0.1,0,0.2,0,0.2-0.1c0.6-0.3,0.6-0.3,0.8,0.1c0.2,0.3,0.4,0.5,0.6,0.8c0.1,0.1,0.2,0.3,0.3,0.4
	c0.1,0.1,0.2,0.2,0.2,0.2c0.1,0.1,0.2,0.8,0.2,1.2c0,0.4-0.1,1.1-0.2,1.3c0,0-0.1,0.1-0.1,0.2c0,0,0,0.1,0,0.1c0,0-0.1,0.2-0.2,0.3
	c-0.1,0.2-0.2,0.3-0.3,0.4c-0.1,0.1-0.2,0.2-0.3,0.3c-0.1,0.1-0.3,0.3-0.5,0.4c-0.4,0.2-0.7,0.4-0.8,0.7c0,0.1-0.1,0.2-0.1,0.2
	c0,0-0.2,0-0.3,0.1c-0.2,0.1-0.5,0.2-0.6,0.2c0,0-0.2,0-0.4,0.1c-0.2,0-0.4,0.1-0.5,0.1c-0.1,0-0.1,0-0.1,0c0,0-0.1,0-0.2,0
	c-0.3,0-1.2,0.2-1.7,0.4V42c0.1,0,0.1,0,0.2-0.1c0.3-0.1,1.1-0.3,1.7-0.4c0.6-0.1,1.1-0.2,1.7-0.5c0.1-0.1,0.2-0.1,0.3-0.1
	c0,0,0.1,0.1,0.1,0.1c0.1,0.2,0.3,0.3,0.5,0.5c0.1,0.1,0.4,0.1,0.6,0.1c0.2,0,0.2,0,0.2,0.3c0,0.3,0.2,0.5,0.3,0.5
	c0,0,0.1,0,0.1,0.1c0,0,0.1,0.1,0.2,0.1c0.1,0,0.2,0,0.2,0c0.1,0,0.1,0,0.2,0c0.1,0,0.1-0.1,0.1,0c0,0,0,0.1,0.1,0.1
	c0.1,0,0.1,0,0.2,0c0,0,0.1-0.1,0.2-0.1c0.1,0,0.2,0,0.2,0.2c0,0.1,0.3,0.5,0.4,0.5c0,0,0.1,0,0.2,0c0.1,0,0.2,0,0.3,0
	c0.1,0,0.2,0,0.3,0c0.1,0,0.2,0.1,0.3,0.2c0.2,0.2,0.5,0.3,0.9,0.2c0.2,0,0.4-0.1,0.5-0.2c0.1-0.1,0.2-0.1,0.2-0.1
	c0,0,0.1,0.1,0.2,0.3c0.1,0.2,0.2,0.3,0.4,0.4c0.3,0.1,0.4,0.1,0.5,0c0,0,0.1-0.1,0.1-0.1c0,0,0.4-0.1,0.5-0.2c0,0,0.1-0.1,0.2-0.2
	l0.1-0.1l0.3,0.1c0.4,0.2,0.7,0.1,1.1-0.2c0.1-0.1,0.2-0.1,0.6-0.1c0.4,0,0.5,0,0.6-0.1c0.1-0.1,0.2-0.1,0.3-0.1c0.1,0,0.1,0,0.1,0
	c0,0,0-0.1,0.1-0.1c0.1,0,0.1-0.1,0.2-0.2c0.1-0.2,0.1-0.2,0.3-0.2c0.1,0,0.3,0,0.4-0.1c0.2-0.1,0.6-0.5,0.6-0.6c0,0,0-0.1,0.1-0.1
	c0,0,0.1-0.1,0.1-0.2c0-0.1,0-0.2,0.2-0.2c0.1,0,0.2-0.1,0.3-0.1c0,0,0.2-0.1,0.3-0.3l0.3-0.3l0.3,0.1c0.1,0.1,0.3,0.1,0.4,0.2
	c0.1,0,0.2,0.1,0.3,0.1c0.1,0,0.3,0.1,0.4,0.1c0.1,0,0.3,0.1,0.3,0.1c0.1,0,0.1,0,0.2,0c0.1,0,0.1,0,0.1,0c0,0,0,0,0.1,0
	c0,0,0.1,0,0.1,0c0,0,0,0,0.1,0c0.1,0,0.1-0.1,0.1,0c0,0,0,0.1,0.1,0.1c0.1,0,0.1,0,0-0.1c0,0,0-0.1,0,0c0,0,0.1,0.1,0.2,0.1
	c0,0,0.3,0,0.6,0c0.3,0,0.6,0.1,0.6,0.1c0.2,0.1,0.2,0.1,0.2,0c0,0,0-0.1,0.1-0.1c0.3-0.2,0.1-0.3-0.4-0.3c-0.2,0-0.4,0-0.5,0
	c-0.1,0-0.5,0-0.7-0.1c-0.2,0-0.5-0.1-0.6-0.1C34.1,41,34,41,33.8,41c-0.5-0.1-1.4-0.5-1.6-0.8c-0.1-0.1-0.2-0.2-0.3-0.3
	c-0.5-0.2-0.8-0.4-0.8-0.4c0,0-0.1-0.1-0.2-0.2c-0.1-0.1-0.2-0.2-0.2-0.3c0-0.1-0.1-0.1-0.1-0.1c0,0-0.1-0.1-0.1-0.2
	c0-0.1-0.1-0.2-0.2-0.3c-0.1-0.1-0.1-0.2-0.1-0.2c0,0,0-0.1,0-0.1c-0.2-0.3-0.5-1.9-0.4-2.6c0-0.4,0.1-0.5,0.2-0.8
	c0.2-0.4,0.2-0.4,0.4-0.4c0.1,0,0.2,0,0.3,0c0.2,0,0.6,0,0.9,0c0.3-0.1,0.8-0.3,1-0.4c0.1-0.1,0.2-0.2,0.4-0.3
	c0.1-0.1,0.3-0.3,0.3-0.4c0.1-0.1,0.1-0.3,0.2-0.4c0-0.1,0.1-0.2,0.1-0.2c0.1-0.5,0.1-0.7,0-0.9c0-0.1-0.1-0.3-0.1-0.4
	c0-0.2,0-0.3-0.1-0.3c-0.1,0-0.1-0.1-0.1-0.2c0-0.1,0-0.1-0.1-0.1c0,0-0.1-0.1-0.1-0.1c0,0-0.1-0.2-0.2-0.3
	c-0.2-0.2-0.2-0.2-0.1-0.4c0-0.1,0.1-0.2,0.1-0.2c0,0,0.1-0.2,0.2-0.4c0.1-0.2,0.2-0.4,0.2-0.4c0,0,0.1-0.2,0.1-0.3
	c0-0.1,0.1-0.3,0.1-0.3c0,0,0.1-0.1,0.1-0.3c0-0.1,0-0.1,0-0.1c0,0,0.1-0.1,0.1-0.3c0-0.3,0-0.4,0-0.9c0-0.1-0.1-0.2-0.1-0.2
	c-0.1-0.1-0.1-0.3,0.1-0.4c0.2-0.2,0.3-0.6,0.3-0.8c0-0.1,0-0.2,0.1-0.3c0.1-0.1,0.2-0.2,0.2-0.2c0.2,0,0.5-0.7,0.5-1
	c0-0.2,0.1-0.3,0.2-0.3c0.1,0,0.2,0,0.3-0.1c0.1,0,0.2-0.1,0.2-0.1c0.1,0,0.2-0.1,0.6-0.5c0.1-0.1,0.1-0.1,0.2,0.1
	c0.2,0.3,0.3,0.4,0.7,0.5c0.4,0.1,0.8,0.1,1,0c0.2-0.2,0.4-0.3,0.5-0.5c0.1-0.1,0.2-0.2,0.2-0.2c0,0.1,0.3,0.1,0.6,0.1
	c0.2,0,0.6-0.2,0.8-0.4c0.1-0.1,0.2-0.1,0.2-0.1c0.1,0,0.4-0.6,0.5-0.8c0.1-0.1,0.1-0.2,0-0.2c0,0,0,0,0-0.1c0-0.1,0-0.2-0.1-0.3
	c-0.1-0.1-0.2-0.2-0.2-0.2c0-0.1,0.1-0.3,0.2-0.3c0.1,0,0.2-0.1,0.3-0.3c0.1-0.1,0.2-0.2,0.2-0.2c0.1-0.1,0.2-0.5,0.2-0.9l0-0.3
	l0.3-0.1c0.3-0.2,0.6-0.5,0.7-0.8v-0.7c-0.1-0.3-0.6-0.8-0.7-0.8c-0.1,0-0.1,0,0-0.1c0-0.1,0.1-0.3,0.1-0.5c0-0.4,0-0.5-0.1-0.7
	c-0.1-0.3-0.3-0.5-0.4-0.5c-0.1,0-0.2-0.1-0.1-0.3c0.1-0.4-0.2-0.8-0.6-1c-0.6-0.3-1.3-0.4-1.6-0.2c-0.1,0.1-0.2,0.1-0.2,0
	c-0.1-0.2-0.5-0.6-0.7-0.8c-0.4-0.2-0.8-0.2-1.2-0.1c-0.2,0.1-0.2,0.1-0.3,0c-0.1-0.1-0.2-0.1-0.7-0.1c-0.1,0-0.2,0-0.3,0
	c-0.2,0.1-0.3,0.1-0.4,0.1c-0.2,0-0.6,0.7-0.6,1c0,0.2,0.1,0.5,0.2,0.6c0.1,0.1,0.1,0.1,0,0.2c-0.1,0.1-0.2,0.1-0.2-0.1
	c0-0.1,0-0.2-0.1-0.3c-0.1-0.1-0.2-0.2-0.3-0.2c-0.2,0-0.6,0-0.9,0.2c-0.2,0.1-0.3,0.2-0.4,0.4c-0.1,0.1-0.1,0.3-0.1,0.4
	c0,0.1,0,0.1-0.5,0.1c-0.5,0-0.7,0-1,0.3c-0.2,0.1-0.5,0.6-0.5,0.9c0,0.3-0.1,0.3-0.3,0.2c-0.1,0-0.3-0.1-0.4,0
	c-0.3,0-0.3,0-0.3-0.2c-0.1-0.4-0.8-0.9-1.2-0.9c-0.2,0-0.5,0.1-0.6,0.2c0,0-0.1,0-0.3-0.1c-0.3-0.3-0.4-0.3-0.9-0.4
	c-0.5,0-0.8,0-1.1,0.2l-0.3,0.2l-0.2-0.1c-0.6-0.4-1.2-0.4-1.6,0c-0.1,0.1-0.1,0.1-0.3,0c-0.2-0.1-0.6-0.3-0.9-0.3
	c-0.1,0-0.3,0-0.6,0.1c-0.2,0.1-0.3,0.1-0.4,0.3c0,0-0.1,0-0.1,0c-0.4,0-1.1,0.5-1.2,0.9c0,0.2-0.1,0.2-0.3,0.2c-0.1,0-0.3,0-0.4,0
	c-0.2,0.1-0.2,0-0.3-0.2c0-0.2-0.3-0.7-0.5-0.9c-0.4-0.3-0.5-0.3-1-0.3c-0.5,0-0.5,0-0.5-0.1c0-0.1-0.1-0.2-0.1-0.4
	c-0.1-0.2-0.2-0.3-0.4-0.4c-0.3-0.1-0.7-0.2-0.9-0.2c-0.1,0-0.2,0.1-0.3,0.2c-0.1,0.1-0.2,0.2-0.1,0.3c0,0.1,0,0.2-0.2,0.1
	c-0.1,0-0.1-0.1,0-0.2c0.1-0.1,0.2-0.4,0.2-0.6c0-0.3-0.4-0.9-0.6-1c-0.1,0-0.3-0.1-0.4-0.1C14.4,11.8,14.3,11.8,14.2,11.8
	L14.2,11.8z M12.6,12.2c0.2,0,0.5,0.2,0.6,0.4c0.1,0.3,0.1,0.4-0.1,0.5c-0.2,0.2-0.3,0.2-0.5,0.1c-0.2-0.1-0.1-0.3,0-0.3
	c0.2,0,0.2-0.2,0-0.2c-0.1,0-0.2,0-0.3,0l-0.2,0.1l0,0.4l0,0.4L12,13.7c-0.1,0.1-0.3,0.1-0.3,0.1c0,0-0.1-0.2-0.1-0.4
	c0-0.4,0-0.4,0.1-0.7C11.9,12.4,12.1,12.3,12.6,12.2C12.6,12.2,12.6,12.2,12.6,12.2L12.6,12.2z M37.6,12.2
	C37.6,12.2,37.6,12.2,37.6,12.2c0.5,0.1,0.7,0.3,0.8,0.6c0.2,0.3,0.2,0.3,0.1,0.7c0,0.2-0.1,0.4-0.1,0.4c0,0-0.2-0.1-0.3-0.1
	l-0.2-0.1l0-0.4l0-0.4l-0.2-0.1c-0.1-0.1-0.2-0.1-0.3,0c-0.2,0.1-0.2,0.2,0,0.2c0.2,0,0.2,0.2,0,0.3c-0.1,0.1-0.2,0.1-0.5-0.1
	c-0.2-0.1-0.2-0.2-0.1-0.5C37.1,12.4,37.4,12.2,37.6,12.2L37.6,12.2z M14.2,12.2c0.5,0,0.7,0.1,0.9,0.5c0.1,0.1,0,0.5-0.1,0.6
	c-0.2,0.2-0.6,0.2-0.7,0c-0.1-0.1-0.1-0.2-0.1-0.2c0-0.1,0.1-0.1,0.4-0.1c0.2,0,0.2,0,0.2,0c0-0.1,0-0.1-0.1-0.2
	c-0.2-0.1-0.6-0.2-0.8,0c-0.1,0.1-0.1,0.1-0.1,0.3c0,0.1,0,0.2,0,0.3c0,0.1,0.1,0.2,0.2,0.3c0.2,0.2,0.2,0.2,0,0.3
	c-0.1,0-0.1,0-0.1,0c0-0.1-0.1-0.2-0.2-0.3l-0.2-0.2l0.1-0.3c0.1-0.2,0.1-0.4,0.1-0.5C13.7,12.3,13.8,12.3,14.2,12.2L14.2,12.2z
	 M36,12.2c0.4,0,0.5,0.1,0.4,0.3c0,0.1,0,0.3,0.1,0.5l0.1,0.3l-0.2,0.2c-0.1,0.1-0.2,0.3-0.2,0.3c0,0.1-0.1,0.1-0.1,0
	c-0.2-0.1-0.2-0.2,0-0.3c0.1-0.1,0.2-0.2,0.2-0.3c0-0.1,0-0.2,0-0.3c0-0.2,0-0.2-0.1-0.3c-0.2-0.1-0.7-0.1-0.8,0
	c-0.1,0.1-0.1,0.1-0.1,0.2c0,0.1,0.1,0.1,0.2,0C35.9,13,36,13,36,13.1c0,0.1,0,0.2-0.1,0.2c-0.1,0.1-0.5,0.1-0.7,0
	c-0.1-0.1-0.2-0.4-0.1-0.6C35.3,12.4,35.5,12.2,36,12.2L36,12.2z M10.6,13c0.2,0,0.2,0,0.3,0.1c0.3,0.2,0.4,0.6,0.1,0.9
	c-0.2,0.3-0.3,0.3-0.5,0.2c-0.2-0.1-0.3-0.2-0.2-0.3c0-0.1,0.1-0.1,0.2-0.1c0.2,0,0.2-0.1,0.1-0.2c-0.1-0.1-0.4-0.1-0.5,0
	c-0.1,0.1-0.1,0.4,0,0.6c0,0.1,0.1,0.2,0.1,0.2c0,0.1-0.1,0.1-0.3,0.1c-0.1,0-0.2-0.1-0.3-0.1c-0.1,0-0.1,0-0.2,0
	c-0.1-0.1-0.2-0.4-0.2-0.6c0-0.1,0.3-0.6,0.5-0.6c0,0,0.1,0,0.2-0.1c0.1-0.1,0.3-0.1,0.5-0.1C10.5,13.1,10.6,13,10.6,13L10.6,13z
	 M39.5,13c0.1,0,0.1,0,0.2,0c0.2,0,0.4,0.1,0.5,0.1c0.1,0,0.2,0.1,0.2,0.1c0.1,0,0.5,0.4,0.5,0.6c0,0.2-0.1,0.5-0.2,0.6
	c0,0-0.1,0-0.2,0c-0.1,0-0.2,0-0.3,0.1c-0.2,0.1-0.3,0.1-0.3-0.1c0,0,0-0.1,0.1-0.2c0.1-0.2,0.1-0.5,0-0.6c-0.1-0.1-0.3-0.1-0.5,0
	c-0.1,0.1-0.1,0.3,0.1,0.2c0.1,0,0.1,0,0.2,0.1c0,0.1-0.1,0.3-0.2,0.3c-0.2,0.1-0.2,0-0.5-0.2c-0.3-0.3-0.3-0.7,0.1-0.9
	C39.3,13.1,39.4,13,39.5,13L39.5,13z M16.3,13.6c0.2,0,0.4,0.1,0.5,0.2c0.1,0.2,0.1,0.6-0.1,0.8c-0.1,0.2-0.2,0.2-0.3,0.1
	c0,0-0.1-0.1-0.2-0.1c-0.1,0-0.2-0.1-0.3-0.3c-0.1-0.1-0.2-0.3-0.2-0.3c-0.1-0.1-0.1-0.1,0-0.1c0,0,0.1-0.1,0.2-0.1
	C15.9,13.6,16.1,13.6,16.3,13.6L16.3,13.6z M33.9,13.6c0.2,0,0.4,0.1,0.5,0.2c0.1,0.1,0.1,0.1,0.2,0.1c0.1,0,0.1,0,0,0.1
	c-0.1,0-0.2,0.2-0.2,0.3c-0.1,0.2-0.2,0.3-0.3,0.3c-0.1,0-0.2,0-0.2,0.1c-0.1,0.1-0.2,0.1-0.3-0.1c-0.1-0.2-0.2-0.7-0.1-0.8
	C33.6,13.6,33.8,13.6,33.9,13.6L33.9,13.6z M13.1,13.7c0.1,0,0.1,0,0.2,0.1c0.2,0.2,0.3,0.7,0.2,1c-0.1,0.2-0.4,0.4-0.5,0.4
	c-0.1,0-0.4-0.3-0.4-0.4c0-0.1,0.1-0.2,0.2-0.2c0,0,0.1,0,0.1-0.1c0.1-0.1,0.1-0.1,0-0.1c-0.1,0-0.2-0.1-0.3-0.1
	c-0.3,0-0.3,0.1-0.3,0.5l0,0.3L12,15.4c-0.2,0.1-0.3,0.1-0.3,0.1c0,0,0.1-0.2,0.2-0.2c0.1,0.1,0.1-0.1-0.1-0.3
	c-0.1-0.2-0.1-0.4,0-0.7C11.9,14.1,12.5,13.8,13.1,13.7C13.1,13.7,13.1,13.7,13.1,13.7L13.1,13.7z M37.1,13.7L37.1,13.7
	C37.1,13.7,37.1,13.7,37.1,13.7c0.6,0.1,1.2,0.4,1.3,0.6c0.2,0.2,0.2,0.5,0,0.7c-0.1,0.2-0.2,0.4-0.1,0.3c0,0,0.2,0.2,0.2,0.2
	c0,0-0.2-0.1-0.3-0.1l-0.3-0.1l0-0.3c0-0.4,0-0.5-0.3-0.5c-0.1,0-0.2,0-0.3,0.1c-0.1,0-0.1,0.1,0,0.1c0.1,0.1,0.1,0.1,0.1,0.1
	c0.1,0,0.2,0.1,0.2,0.2c0,0.1-0.3,0.4-0.4,0.4c-0.2,0-0.5-0.2-0.5-0.4c-0.1-0.3,0-0.8,0.2-1C37,13.7,37,13.7,37.1,13.7L37.1,13.7z
	 M14.7,14c0.1,0,0.2,0,0.3,0.1c0.1,0,0.2,0.1,0.2,0.1c0.2,0.1,0.4,0.4,0.4,0.9c0,0.2,0,0.2-0.2,0.4l-0.2,0.2l-0.2-0.1
	c-0.1-0.1-0.2-0.2-0.4-0.2c-0.1,0-0.2-0.1-0.2-0.1c-0.1-0.1,0.1-0.3,0.4-0.3c0.2-0.1,0.3-0.1,0.3-0.2c0-0.2-0.2-0.2-0.5-0.1
	c-0.2,0.1-0.3,0.1-0.4,0.2c-0.2,0.2-0.2,0.3-0.1,0.6c0,0.2,0,0.2,0,0.2c0,0-0.1,0.1-0.2,0.2c-0.1,0.2-0.2,0.2-0.3,0
	c0-0.1-0.1-0.2-0.1-0.2c-0.1-0.1-0.1-0.3,0-0.3c0.1-0.1,0.3-0.5,0.3-0.6c0-0.1,0.1-0.2,0.3-0.4c0.2-0.1,0.3-0.3,0.3-0.3
	C14.5,14,14.6,14,14.7,14L14.7,14z M35.5,14c0.1,0,0.2,0,0.2,0c0,0,0.1,0.2,0.3,0.3c0.2,0.2,0.3,0.3,0.3,0.4c0,0.2,0.2,0.6,0.3,0.6
	c0.1,0.1,0.1,0.2,0,0.3c0,0-0.1,0.1-0.1,0.2c-0.1,0.2-0.2,0.2-0.3,0c-0.1-0.1-0.1-0.2-0.2-0.2c0,0,0-0.1,0-0.2
	c0.1-0.3,0.1-0.4-0.1-0.6c-0.1-0.1-0.2-0.2-0.4-0.2c-0.3-0.1-0.5-0.1-0.5,0.1c0,0.1,0.1,0.1,0.3,0.2c0.3,0.1,0.5,0.2,0.4,0.3
	c0,0-0.1,0.1-0.2,0.1c-0.1,0-0.3,0.1-0.4,0.2l-0.2,0.1l-0.2-0.2c-0.1-0.2-0.2-0.2-0.2-0.4c0-0.4,0.2-0.8,0.4-0.9
	c0,0,0.1-0.1,0.2-0.1C35.2,14,35.4,14,35.5,14L35.5,14z M26.5,14.5c0,0,0.1,0,0.1,0c0.4,0,0.7,0.1,0.8,0.3c0.2,0.2,0.2,0.3,0.1,0.8
	c0,0.2-0.1,0.4-0.1,0.4c0,0.1-0.1,0.1-0.1,0.1c-0.1,0-0.1,0,0-0.3c0.1-0.3,0.1-0.3,0-0.5c-0.2-0.3-0.7-0.4-1-0.2
	c-0.2,0.1-0.3,0.3-0.2,0.4c0.1,0.2,0.5,0.2,0.5-0.1c0-0.2,0.2-0.2,0.3-0.1c0.1,0.2,0.1,0.3-0.1,0.5c-0.2,0.1-0.3,0.2-0.4,0.2
	c-0.3,0-0.4-0.1-0.6-0.3c-0.2-0.4-0.1-0.7,0.1-1.1C26.1,14.6,26.3,14.5,26.5,14.5L26.5,14.5z M24.5,14.5c0.3,0,0.7,0.2,0.8,0.3
	l0.1,0.1L25,15c-0.4,0-0.6,0-0.7,0.2c-0.1,0.2,0,0.5,0.2,0.5c0.1,0,0.3-0.1,0.3-0.3c0-0.1,0-0.1,0.1-0.1c0.2,0,0.2,0.3,0.1,0.5
	c-0.1,0.2-0.2,0.2-0.5,0.2c-0.3,0-0.4-0.1-0.5-0.3c-0.1-0.2-0.1-0.8,0-1C24.1,14.6,24.3,14.5,24.5,14.5L24.5,14.5z M22.4,14.6
	c0.1,0,0.2,0,0.4,0c0.6,0.1,0.7,0.2,0.7,0.8c0,0.3,0,0.5,0,0.4c-0.1-0.2-0.4-0.6-0.5-0.5c0,0-0.1,0-0.1-0.1c-0.1-0.1-0.4-0.1-0.6,0
	c-0.2,0.1-0.3,0.3-0.2,0.5c0.1,0.1,0.3,0.3,0.4,0.2c0.1,0,0.1,0,0.2,0c0.1,0,0.1-0.2,0-0.2c-0.1,0-0.1,0-0.1-0.1
	c0-0.1,0.1-0.1,0.3,0c0.2,0.1,0.3,0.3,0.1,0.5c-0.1,0.1-0.1,0.1-0.4,0c-0.2-0.1-0.4-0.1-0.5-0.1c-0.1,0-0.2-0.1-0.2-0.2
	c-0.1-0.2-0.1-0.5,0.1-0.9C22,14.7,22.1,14.6,22.4,14.6L22.4,14.6z M18,14.6c0.4,0,0.7,0.3,0.9,0.8c0,0.1,0,0.6-0.1,0.7
	c-0.1,0.2-0.4,0.3-0.6,0.3c-0.2,0-0.2,0-0.3-0.3c-0.1-0.3-0.1-0.4,0-0.4c0.1,0,0.2,0.2,0.2,0.3c0,0.1,0.1,0.1,0.3,0
	c0.1-0.1,0.1-0.1,0.1-0.3c-0.1-0.3-0.3-0.4-0.8-0.2c-0.1,0-0.2,0-0.2-0.1c-0.1-0.1-0.2-0.1-0.3-0.1c-0.2,0-0.2-0.1-0.1-0.3
	c0.1-0.2,0.3-0.3,0.7-0.3C17.9,14.6,17.9,14.6,18,14.6L18,14.6z M32.2,14.6c0.1,0,0.1,0,0.2,0c0.4,0,0.6,0.1,0.7,0.3
	c0.1,0.2,0.1,0.2-0.1,0.3c-0.1,0-0.2,0.1-0.3,0.1c-0.1,0.1-0.2,0.1-0.2,0.1c-0.4-0.1-0.6-0.1-0.8,0.2c-0.1,0.2-0.1,0.2,0.1,0.3
	c0.2,0.1,0.3,0.1,0.3,0c0-0.1,0.1-0.3,0.2-0.3c0.1,0,0.1,0.1,0,0.4c-0.1,0.3-0.1,0.3-0.3,0.3c-0.2,0-0.5-0.1-0.6-0.3
	c-0.1-0.1-0.2-0.6-0.1-0.7C31.5,14.8,31.8,14.6,32.2,14.6L32.2,14.6z M9.1,14.6c0.1,0,0.1,0,0.2,0.1c0.1,0.1,0.1,0.1,0.2,0.1
	c0.1,0,0.1,0.1-0.1,0.3c-0.1,0.1-0.2,0.3-0.2,0.5c-0.1,0.3-0.1,0.3-0.2,0.4c-0.2,0-0.3-0.1-0.4-0.3c-0.1-0.4,0-0.6,0.2-0.8
	C8.9,14.7,9,14.6,9.1,14.6L9.1,14.6z M41.1,14.6c0.1,0,0.2,0.1,0.3,0.2c0.2,0.2,0.3,0.4,0.2,0.8c-0.1,0.3-0.2,0.4-0.4,0.3
	c-0.1,0-0.2-0.1-0.2-0.4c-0.1-0.2-0.2-0.4-0.2-0.5c-0.1-0.1-0.2-0.3-0.1-0.3c0,0,0.1-0.1,0.2-0.1C41,14.6,41,14.6,41.1,14.6
	L41.1,14.6z M28.7,14.8c0.3,0,0.8,0.3,0.9,0.6c0.1,0.2,0,0.2-0.1,0.1c-0.1-0.1-0.6-0.4-0.8-0.4c-0.2,0-0.2-0.1,0-0.2
	C28.6,14.8,28.6,14.8,28.7,14.8L28.7,14.8z M21.4,14.8c0,0.1-0.1,0.2-0.1,0.3c-0.2,0.1-0.5,0.2-0.6,0.3c-0.1,0.2-0.2,0.1-0.1-0.1
	C20.7,15.2,21.1,14.9,21.4,14.8L21.4,14.8z M10.7,14.9c0.2,0,0.3,0,0.4,0.2c0.1,0.1,0.1,0.2,0.2,0.3c0,0.2,0,0.5-0.1,0.6
	c-0.1,0.2-0.6,0.3-0.6,0.1c0-0.1,0-0.1,0.1-0.2c0.2-0.2,0-0.3-0.3-0.2l-0.2,0.1l0,0.4c0,0.4,0,0.5-0.1,0.3c0,0-0.1-0.1-0.2-0.1
	c-0.1,0-0.3-0.4-0.3-0.6C9.6,15.3,10.1,14.9,10.7,14.9L10.7,14.9z M39.5,14.9c0.6,0,1.1,0.4,1.1,0.9c0,0.2-0.2,0.6-0.3,0.6
	c-0.1,0-0.1,0-0.2,0.1c-0.1,0.2-0.2,0.1-0.1-0.3l0-0.4l-0.2-0.1c-0.3-0.1-0.5,0-0.3,0.2c0,0,0.1,0.1,0.1,0.2c0,0.2-0.4,0.2-0.6-0.1
	c-0.1-0.1-0.1-0.5-0.1-0.6c0-0.1,0.1-0.2,0.2-0.3C39.2,14.9,39.3,14.9,39.5,14.9L39.5,14.9z M28.3,15.4c0.1,0,0.3,0,0.6,0.2
	c0,0,0,0,0,0c0,0.1-0.1,0.2-0.1,0.2c0,0,0.1,0,0.1,0.1c0-0.1,0-0.2,0-0.3c0.4,0.2,0.5,0.4,0.4,0.7c-0.1,0.1-0.1,0.1-0.3,0
	c-0.2-0.1-0.2-0.1-0.4-0.1c-0.2,0-0.3,0.2-0.2,0.3c0.1,0.1,0,0.1-0.2-0.1c-0.3-0.2-0.3-0.4-0.1-0.8C28.1,15.5,28.2,15.4,28.3,15.4
	L28.3,15.4z M16.5,15.4c0.1,0,0.1,0,0.3,0c0.4,0.1,0.6,0.3,0.7,0.8c0,0,0,0.1,0,0.2c0,0.1-0.1,0.2-0.2,0.3c-0.1,0.1-0.2,0.2-0.4,0.2
	c-0.3,0-0.5-0.1-0.5-0.3c0-0.2,0.1-0.3,0.3-0.2c0.2,0.1,0.4-0.1,0.2-0.3c-0.2-0.2-0.8,0-0.9,0.3c0,0,0,0,0-0.1
	c0-0.2,0.2-0.6,0.4-0.7C16.4,15.5,16.5,15.4,16.5,15.4L16.5,15.4z M33.6,15.4c0.1,0,0.1,0,0.2,0.1c0.2,0.2,0.4,0.5,0.4,0.7
	c0,0.1,0,0.2,0,0.1c-0.1-0.2-0.7-0.4-0.9-0.3c-0.2,0.2,0,0.4,0.2,0.3c0.1,0,0.3,0.1,0.3,0.2c0,0.2-0.2,0.3-0.5,0.3
	c-0.2,0-0.3,0-0.4-0.2c-0.1-0.1-0.2-0.2-0.2-0.3c0-0.1,0-0.2,0-0.2c0.1-0.4,0.3-0.7,0.7-0.8C33.5,15.4,33.6,15.4,33.6,15.4
	L33.6,15.4z M21.3,15.6c0,0.1,0,0.2,0,0.3c0.1,0.2,0.3,0.4,0.3,0.4c0,0,0.1,0,0.1,0.1c0,0,0.1,0.1,0.2,0.1c-0.2,0.2-0.5,0.3-0.7,0.2
	C20.7,16.4,20.9,15.8,21.3,15.6L21.3,15.6z M12.6,15.6c0.2,0,0.4,0.1,0.6,0.3c0.3,0.3,0.4,0.7,0.2,1c-0.1,0.2-0.3,0.3-0.5,0.3
	c-0.1,0-0.2-0.1-0.2-0.1c-0.1-0.1-0.1-0.2,0-0.3c0.1-0.1,0.2-0.3,0.2-0.4c-0.1-0.1-0.2-0.1-0.4,0.1c-0.2,0.2-0.2,0.2-0.2,0.4
	c0,0.2,0.1,0.3,0.3,0.6c0,0,0,0.2-0.1,0.3c-0.1,0.2-0.2,0.3-0.2,0.4c0,0.1,0,0.2,0,0.2c0,0-0.5-0.1-0.5-0.1c0,0,0-0.1,0.1-0.3
	c0.2-0.3,0.2-0.3,0.1-1.3c0-0.4,0-0.6,0.1-0.7C12,15.8,12.3,15.6,12.6,15.6L12.6,15.6z M37.6,15.6c0.3,0,0.5,0.1,0.6,0.4
	c0.1,0.2,0.1,0.3,0.1,0.7c-0.1,0.9-0.1,1,0.1,1.3c0.1,0.1,0.1,0.2,0.1,0.3c-0.1,0.1-0.5,0.2-0.5,0.1c0,0,0-0.1,0-0.2
	c0-0.1-0.1-0.3-0.2-0.4c-0.1-0.2-0.2-0.3-0.1-0.3c0.2-0.3,0.3-0.4,0.3-0.6c0-0.2,0-0.3-0.2-0.4c-0.2-0.2-0.3-0.2-0.4-0.1
	c0,0.1,0.1,0.3,0.2,0.4c0.1,0.1,0.1,0.3,0,0.3c0,0-0.1,0.1-0.2,0.1c-0.2,0-0.4-0.1-0.5-0.3c-0.2-0.3-0.1-0.7,0.2-1
	C37.2,15.7,37.4,15.7,37.6,15.6L37.6,15.6z M19.9,15.9c0.2,0,0.4,0.1,0.5,0.4c0.1,0.2,0.1,0.2,0,0.5c-0.1,0.1-0.1,0.2-0.3,0.2
	c-0.3,0.1-0.5,0-0.6-0.1c-0.1-0.1,0-0.2,0.1-0.2c0.2,0,0.3-0.1,0.3-0.2c0-0.1-0.2-0.2-0.5-0.2c-0.2,0-0.4,0.3-0.4,0.5
	c0,0.1,0,0.1,0,0.1c0,0,0,0,0-0.1c0-0.1,0-0.2,0-0.3C19,16.4,19.5,15.9,19.9,15.9L19.9,15.9z M30.3,15.9c0.4,0,1,0.4,0.9,0.7
	c0,0.1,0,0.2,0,0.3c0,0.1,0,0.1,0,0.1c0,0,0-0.1,0-0.1c0-0.2-0.2-0.4-0.4-0.5c-0.2,0-0.4,0-0.4,0.2c0,0.1,0.1,0.2,0.3,0.2
	c0.2,0,0.2,0.1,0.1,0.2c-0.1,0.1-0.3,0.2-0.6,0.1c-0.2,0-0.2-0.1-0.3-0.2c-0.1-0.2-0.1-0.3,0-0.5C29.9,16.1,30.1,15.9,30.3,15.9
	L30.3,15.9z M14.6,16c0.1,0,0.2,0,0.3,0.1c0.5,0.2,0.6,0.3,0.6,0.4c0,0.1,0,0.3-0.1,0.3L15.4,17l-0.2-0.2c-0.2-0.2-0.3-0.2-0.3,0.1
	c0,0.2-0.1,0.3-0.4,0.3c-0.2,0-0.3,0-0.4-0.1C14,17,14,17,14,16.7c0-0.2,0.1-0.3,0.2-0.5C14.4,16,14.5,16,14.6,16L14.6,16z M35.5,16
	c0.1,0,0.2,0.1,0.4,0.2c0.2,0.2,0.2,0.3,0.2,0.5c0,0.2,0,0.3-0.1,0.4c-0.1,0.1-0.2,0.1-0.3,0.1c-0.3,0-0.4-0.1-0.4-0.3
	c0-0.3-0.1-0.3-0.3-0.1L34.8,17l-0.1-0.2c0-0.1-0.1-0.2-0.1-0.3c0-0.2,0-0.2,0.5-0.4C35.4,16,35.5,16,35.5,16L35.5,16z M8.9,16.3
	c0.1,0,0.3,0,0.3,0.2c0.3,0.4,0,1-0.4,1c-0.2,0-0.2-0.2-0.1-0.3c0.2-0.1,0.1-0.3-0.1-0.3c-0.2-0.1-0.4,0-0.4,0.2
	c0,0.1,0,0.3,0.3,0.6l0.2,0.2l0.4,0c0.4,0,0.5,0,0.5,0.2c0,0-0.1,0.1-0.2,0.1c-0.1,0-0.3,0.1-0.4,0.2c-0.2,0.2-0.3,0.1-0.6-0.1
	c-0.3-0.2-0.4-0.5-0.4-0.9c0-0.2,0-0.3,0.2-0.5C8.4,16.5,8.7,16.3,8.9,16.3L8.9,16.3z M41.3,16.3c0.2,0,0.6,0.2,0.8,0.4
	c0.2,0.2,0.2,0.3,0.2,0.5c0,0.4-0.2,0.7-0.4,0.9c-0.3,0.2-0.4,0.2-0.6,0.1c-0.1-0.1-0.3-0.2-0.4-0.2c-0.1,0-0.2-0.1-0.2-0.1
	c0-0.1,0.1-0.2,0.5-0.2l0.4,0l0.2-0.2c0.2-0.2,0.3-0.4,0.3-0.6c-0.1-0.2-0.2-0.2-0.4-0.2c-0.2,0.1-0.2,0.2-0.1,0.3
	c0.2,0.1,0.1,0.3-0.1,0.3c-0.4,0.1-0.7-0.6-0.4-1C41,16.3,41.1,16.3,41.3,16.3L41.3,16.3z M11.4,16.3C11.4,16.3,11.4,16.4,11.4,16.3
	c0,0.1,0,0.1,0,0.1C11.3,16.5,11.3,16.5,11.4,16.3C11.3,16.4,11.3,16.4,11.4,16.3C11.4,16.3,11.4,16.3,11.4,16.3L11.4,16.3z
	 M38.8,16.3C38.8,16.3,38.8,16.3,38.8,16.3C38.8,16.4,38.9,16.4,38.8,16.3c0.1,0.1,0.1,0.1,0,0.1C38.8,16.5,38.8,16.4,38.8,16.3
	C38.8,16.4,38.8,16.3,38.8,16.3L38.8,16.3z M25.3,16.4c0.1,0,0.1,0,0.1,0.1c0,0.1,0.2,0.3,0.3,0.3c0,0,0.1-0.1,0.1-0.1
	c0.1-0.1,0.1-0.1,0.2,0c0.2,0.1,0.2,0.4,0,0.6c-0.1,0.2-0.3,0.3-0.7,0.2c-0.2,0-0.2-0.1-0.3-0.3c-0.1-0.3-0.1-0.3,0-0.5
	C25,16.5,25.2,16.4,25.3,16.4L25.3,16.4z M23.7,16.4c0.1,0,0.1,0.1-0.1,0.3c-0.1,0.2-0.1,0.3,0,0.4c0.2,0.2,0.5,0.1,0.4-0.2
	c0-0.1,0-0.1,0.1-0.1c0.2,0,0.3,0.2,0.3,0.4c0,0.2,0,0.2-0.2,0.3c-0.3,0.2-1,0.1-1.2-0.2c-0.2-0.4-0.1-0.6,0.4-0.9
	C23.6,16.4,23.7,16.4,23.7,16.4L23.7,16.4z M28.7,16.5c0.1,0,0.1,0,0.2,0.1c0.1,0.1,0,0.2-0.2,0.1C28.5,16.6,28.4,16.6,28.7,16.5
	C28.7,16.5,28.7,16.5,28.7,16.5L28.7,16.5z M27.3,16.6c0.2,0,0.2,0.1,0,0.2c-0.2,0.1-0.3,0.3-0.2,0.5c0.1,0.2,0.2,0.3,0.4,0.1
	c0.1-0.1,0.1-0.1,0.1-0.2c-0.1-0.1,0-0.2,0.2-0.1c0.2,0.1,0.3,0.2,0.2,0.4c0,0.2-0.2,0.3-0.6,0.3c-0.3,0-0.3,0-0.5-0.2
	c-0.2-0.2-0.3-0.4-0.1-0.8C26.8,16.7,27,16.6,27.3,16.6C27.3,16.6,27.3,16.6,27.3,16.6L27.3,16.6z M18.2,16.7c0.2,0,0.4,0.2,0.6,0.6
	c0.1,0.3,0.1,0.5,0,0.7c-0.1,0.1-0.1,0.2-0.4,0.2c-0.3,0.1-0.3,0.1-0.5,0c-0.2-0.1-0.2-0.2-0.1-0.4c0.1-0.1,0.2-0.2,0.4-0.1
	c0.1,0.1,0.1,0.1,0.2,0c0.2-0.1,0-0.4-0.3-0.4c-0.3,0-0.4,0.1-0.6,0.3c-0.1,0.1-0.1,0.2-0.1,0.5c0,0.3,0,0.3-0.1,0.2
	c-0.1,0-0.1-0.1-0.1-0.2c0-0.2-0.1-0.5-0.2-0.6c-0.2-0.2,0-0.3,0.3-0.3c0.1,0,0.2-0.1,0.4-0.2C17.9,16.8,18,16.8,18.2,16.7
	L18.2,16.7z M32,16.7c0.1,0,0.3,0.1,0.4,0.2c0.2,0.2,0.3,0.2,0.4,0.2c0.4,0,0.5,0.1,0.3,0.3C33.1,17.7,33,18,33,18.1
	c0,0.1,0,0.2-0.1,0.2c-0.1,0.1-0.1,0-0.1-0.2c0-0.3,0-0.3-0.1-0.5c-0.2-0.2-0.3-0.3-0.6-0.3c-0.3,0-0.6,0.3-0.3,0.4
	c0.1,0,0.1,0,0.2,0c0.2-0.1,0.3-0.1,0.4,0.1c0.1,0.2,0.1,0.3-0.1,0.4c-0.2,0.1-0.2,0.1-0.5,0c-0.2,0-0.3-0.1-0.4-0.2
	c-0.1-0.2-0.2-0.5,0-0.7C31.6,16.9,31.8,16.7,32,16.7L32,16.7z M10.8,16.8c0.1,0,0.2,0,0.3,0.1c0.1,0.1,0.4,0.5,0.4,0.6
	c0,0.1-0.1,0.2-0.1,0.4c-0.1,0.2-0.2,0.3-0.2,0.3c-0.1,0.1-0.3,0.1-0.5,0c-0.1,0-0.1-0.3,0-0.3c0.1,0,0.2-0.3,0.2-0.3
	c-0.1-0.1-0.6,0.1-0.7,0.2c0,0,0,0.2,0,0.3c0.1,0.2,0,0.3-0.1,0.2c-0.1-0.1-0.2-0.6-0.2-0.8C9.9,17.1,10.4,16.8,10.8,16.8L10.8,16.8
	z M39.3,16.8c0.4,0,1,0.3,1,0.6c0,0.2-0.1,0.7-0.2,0.8c-0.1,0.1-0.2,0-0.1-0.2c0-0.1,0.1-0.2,0-0.3c-0.1-0.2-0.5-0.4-0.7-0.2
	c-0.1,0.1,0,0.3,0.2,0.3c0.1,0,0.1,0.3,0,0.3c-0.1,0.1-0.4,0-0.5,0c0,0-0.1-0.2-0.2-0.3c-0.1-0.2-0.1-0.3-0.1-0.4
	c0-0.2,0.2-0.6,0.4-0.6C39.2,16.8,39.2,16.8,39.3,16.8L39.3,16.8z M22.6,17C22.6,17,22.6,17,22.6,17c0,0,0,0.1,0,0.1c0,0,0,0,0,0
	c-0.1,0.1,0,0.1,0.1,0.2c0,0,0,0,0.1,0c0,0,0,0,0,0c0.1,0.1,0.2,0.2,0.4,0.3c0,0,0,0,0,0c-0.1,0.1-0.3,0.1-0.4,0.1
	c-0.4,0-0.6-0.1-0.6-0.3c-0.1-0.3,0-0.4,0.2-0.4C22.5,17.1,22.5,17,22.6,17L22.6,17z M19.2,17.1c0,0,0,0,0.1,0.1
	c0,0.1,0.1,0.1,0.2,0.1c0,0,0.2,0.1,0.3,0.1c0.1,0.1,0.2,0.1,0.3,0.1c0,0,0.1,0,0,0.2c0,0.1,0,0.2,0,0.2c0,0-0.2,0-0.3,0l-0.3,0
	l0-0.2C19.2,17.4,19.2,17.3,19.2,17.1C19.2,17.1,19.2,17.1,19.2,17.1L19.2,17.1z M31,17.1C31,17.1,31,17.1,31,17.1
	c0,0.2-0.1,0.3-0.1,0.5l0,0.2l-0.3,0c-0.2,0-0.3,0-0.3,0c0,0,0-0.1,0-0.2c0-0.1,0-0.2,0-0.2c0,0,0.2,0,0.3-0.1
	c0.1-0.1,0.2-0.1,0.3-0.1c0,0,0.1-0.1,0.2-0.1C31,17.1,31,17.1,31,17.1L31,17.1z M15.9,17.2c0.3,0,0.6,0.4,0.8,0.9
	c0,0.1,0,0.2,0,0.2c0,0,0,0.1-0.1,0.1c-0.2,0.3-1,0.4-1,0c0-0.1,0-0.1,0.2-0.2c0.2-0.1,0.3-0.2,0.2-0.3c-0.1-0.1-0.4-0.1-0.6,0.1
	c-0.2,0.1-0.2,0.2-0.1,0.4c0,0.1,0.1,0.3,0.1,0.3c0.1,0.1,0.1,0.1-0.3,0.2c-0.2,0-0.4,0.1-0.4,0.1c-0.1,0.1-0.1,0-0.1-0.2
	c0-0.1,0.1-0.3,0.1-0.4c0-0.1,0-0.2,0.1-0.2c0.1,0,0.3-0.2,0.3-0.3c0-0.1,0.3-0.5,0.5-0.6C15.7,17.2,15.9,17.2,15.9,17.2L15.9,17.2z
	 M34.2,17.2c0.1,0,0.2,0.1,0.3,0.1c0.2,0.2,0.5,0.5,0.5,0.6c0,0.1,0.2,0.3,0.3,0.3c0,0,0.1,0.1,0.1,0.2c0,0.1,0,0.3,0.1,0.4
	c0.1,0.2,0.1,0.3-0.1,0.2c0,0-0.2-0.1-0.4-0.1c-0.3,0-0.4-0.1-0.3-0.2c0,0,0.1-0.2,0.1-0.3c0-0.3,0-0.3-0.1-0.4
	c-0.2-0.1-0.6-0.2-0.6-0.1c-0.1,0.1,0.1,0.3,0.2,0.3c0.1,0,0.2,0.1,0.2,0.2c0,0.3-0.8,0.3-1,0c0-0.1-0.1-0.1-0.1-0.1
	c0,0,0-0.1,0-0.2C33.6,17.6,34,17.2,34.2,17.2L34.2,17.2z M21.1,17.3c0.4,0,0.6,0.1,0.6,0.5c0,0.4-0.1,0.6-0.2,0.6
	c-0.3,0.1-0.4,0.1-0.5-0.1c-0.2-0.2-0.2-0.3,0.1-0.4c0.2,0,0.3-0.1,0.2-0.3c-0.1-0.1-0.2-0.1-0.5-0.1c-0.1,0-0.2,0.1-0.3,0.2
	c-0.1,0.2-0.1,0.2,0,0.4c0.1,0.3,0.6,0.7,0.8,0.7c0.1,0,0.2,0,0.2-0.1c0.3,0,0.5-0.3,0.6-0.6c0-0.2,0.2-0.3,0.3-0.2
	c0.1,0,0.2,0.1,0.3,0.1c0.1,0,0.3,0,0.3,0c0,0,0.2,0,0.3,0c0.1,0,0.3-0.2,0.5-0.3c0,0,0,0,0,0c0,0,0.2,0,0.3,0c0.2,0,0.3,0,0.3-0.1
	c0,0,0.1-0.1,0.2-0.1c0.1-0.1,0.2-0.1,0.3,0c0.1,0.1,0.5,0.1,0.8,0.1c0.1,0,0.2,0,0.4-0.1c0.2-0.1,0.2-0.1,0.3,0
	c0.2,0.3,0.4,0.5,0.6,0.5c0.2,0,0.3,0.1,0.3,0c0,0,0.1,0,0.3,0c0.1,0,0.3,0,0.3-0.1c0.1-0.1,0.2,0,0.3,0.2c0.1,0.3,0.3,0.6,0.6,0.6
	c0.1,0,0.2,0,0.2,0.1c0.2,0.1,0.7-0.4,0.8-0.7c0.1-0.2,0.1-0.2,0-0.4c-0.1-0.1-0.2-0.2-0.3-0.2c-0.3,0-0.4,0-0.5,0.1
	c-0.1,0.1,0,0.2,0.2,0.3c0.2,0,0.3,0.2,0.1,0.4c-0.2,0.2-0.2,0.2-0.5,0.1c-0.2-0.1-0.2-0.2-0.2-0.6c0-0.4,0.1-0.5,0.6-0.5
	c0.4,0,0.5,0.1,0.7,0.5c0.2,0.3,0.2,0.4,0,0.8c-0.2,0.5-0.1,0.8,0.3,1.2c0.4,0.4,0.5,0.5,0.8,0.4c0.2,0,0.2,0,0.1,0.3
	c0,0.1-0.1,0.3-0.1,0.5c0,0.4,0.1,0.9,0.3,1c0.2,0.1,0.5,0.1,0.5,0c0,0,0,0,0.1,0c0.1,0,0.2,0,0.4-0.1c0.1-0.1,0.3-0.1,0.3-0.1
	c0,0,0,0.1,0.1,0.2c0,0.1,0,0.2-0.1,0.2c-0.4,0.1-0.5,0.2-0.7,0.5c-0.1,0.2-0.2,0.4-0.2,0.5c0,0.4,0.3,0.8,0.6,0.9
	c0.3,0.1,0.2,0.1,0.1,0.3c-0.1,0.2-0.1,0.6,0,0.8c0,0.1,0.1,0.2,0.2,0.2c0.1,0.1,0.2,0.1,0.4,0c0.3-0.1,0.5-0.3,0.5-0.4
	c0-0.1-0.2-0.1-0.3,0c0,0-0.1,0.1-0.2,0.1c-0.2,0-0.3-0.3-0.1-0.5c0.1-0.1,0.1-0.1,0.2-0.1c0.1,0,0.2,0,0.3,0c0.2,0,0.5,0.2,0.5,0.3
	c0,0.1,0,0.2,0,0.3c-0.1,0.4-0.3,0.6-0.8,0.6c-0.3,0-0.3,0-0.5-0.2c-0.2-0.2-0.4-0.6-0.4-0.9c0-0.2-0.1-0.4-0.2-0.3
	c-0.1,0.1-0.1,0.5-0.1,0.8c0.1,0.3,0.1,3,0,3.3c-0.1,0.2-0.1,0.3-0.1,0.6c0,0.1-0.1,0.3-0.1,0.4c0,0.1-0.1,0.3-0.1,0.3
	c0,0-0.1,0.2-0.1,0.3c0,0.1-0.1,0.3-0.1,0.3c0,0.1-0.1,0.3-0.2,0.6c0,0.1-0.1,0.2-0.2,0.4c-0.1,0.4-0.7,1.6-0.8,1.7
	c0,0-0.2,0.3-0.3,0.5c-0.1,0.2-0.3,0.6-0.5,0.8c-0.1,0.2-0.3,0.4-0.3,0.5c-0.7,1-1.9,1.8-2.9,2.2c-0.3,0.1-0.5,0.1-0.7,0.1
	c-1.2,0.2-2.2-0.7-3.3-1.3c-0.1,0-0.4-0.2-0.6-0.3c-0.3-0.3-0.4-0.3-0.4-0.3c0,0,0,0,0,0c0,0,0-0.1,0-0.1c0,0-0.1-0.1-0.1-0.1
	c0,0-0.1-0.2-0.3-0.3c-0.5-0.5-0.9-1-1.1-1.6c-0.1-0.1-0.1-0.3-0.1-0.3c0-0.1-0.1-0.1-0.1-0.1c0,0-0.1,0-0.1-0.1c-0.4-1-0.8-2-1.2-3
	c-0.1-0.1-0.2-0.7-0.2-0.8c0-0.1,0-0.1,0-0.1c0,0,0-0.1-0.1-0.3c0-0.2,0-0.3-0.1-0.3c-0.1-0.1-0.2-0.6-0.1-0.6c0,0,0,0,0,0
	c0,0-0.1-0.1-0.1-0.3c0-0.4,0-0.6-0.1-0.6c0,0,0-0.3,0-0.6c0-0.3,0-0.6,0-0.6c0,0-0.1,0.1-0.2,0.2l-0.1,0.3l-0.3,0c0,0,0,0,0,0
	c-0.3-0.1-0.6-0.4-0.7-0.7c0-0.1,0-0.2,0-0.3c0-0.1,0.3-0.3,0.5-0.3c0.1,0,0.2,0,0.3,0c0.1,0,0.2,0,0.2,0.1c0.2,0.2,0.1,0.5-0.1,0.5
	c-0.1,0-0.1,0-0.2-0.1c-0.1-0.1-0.3-0.1-0.3,0c0,0.1,0.2,0.3,0.5,0.4c0.2,0.1,0.4,0.1,0.5-0.2c0.1-0.2,0.1-0.6,0-0.8
	c-0.1-0.2-0.1-0.2,0.1-0.3c0.4-0.2,0.6-0.5,0.6-0.9c0-0.1-0.1-0.3-0.2-0.5c-0.2-0.3-0.2-0.4-0.7-0.5c-0.1,0-0.1-0.1-0.1-0.2
	c0-0.1,0-0.2,0.1-0.2c0,0,0.1,0,0.3,0.1c0.2,0.1,0.3,0.1,0.4,0.1c0.1,0,0.1,0,0.1,0c0,0.1,0.3,0,0.5,0c0.2-0.1,0.4-0.6,0.4-1
	c0-0.2-0.1-0.4-0.1-0.5c-0.1-0.3-0.1-0.4,0.1-0.3c0.2,0,0.3,0,0.8-0.4c0.4-0.4,0.5-0.7,0.3-1.2c-0.2-0.5-0.2-0.5,0-0.8
	C20.6,17.4,20.7,17.3,21.1,17.3L21.1,17.3z M14.8,17.6c0.1,0,0.1,0,0.1,0.1c0,0,0,0.1-0.1,0.2c0,0.2,0,0.2-0.1,0.1
	c0-0.1-0.1-0.2-0.1-0.2C14.7,17.6,14.7,17.6,14.8,17.6L14.8,17.6z M35.4,17.6c0.1,0,0.1,0,0.1,0.1c0,0.1,0,0.2-0.1,0.2
	c-0.1,0.1-0.1,0.1-0.1-0.1c0-0.1,0-0.2-0.1-0.2C35.3,17.6,35.3,17.6,35.4,17.6L35.4,17.6z M13.5,17.6c0.3,0,0.6,0.1,0.8,0.5
	c0.1,0.2,0.1,0.4-0.1,0.6c-0.1,0.1-0.1,0.2-0.2,0.2c-0.4,0.1-0.5,0-0.6-0.1c-0.1-0.1-0.2-0.2-0.2-0.2c0-0.1,0.1-0.1,0.2-0.2
	c0.1,0,0.1-0.1,0.2-0.1c0.1-0.2-0.3-0.3-0.5-0.1c-0.2,0.1-0.2,0.3-0.1,0.5c0.1,0.3,0.1,0.4-0.1,0.4c-0.2,0-0.3-0.3-0.4-0.5
	c-0.1-0.5,0.3-0.9,0.8-1C13.4,17.7,13.5,17.6,13.5,17.6L13.5,17.6z M36.7,17.6c0,0,0.1,0,0.1,0c0.6,0.1,0.9,0.5,0.8,1
	c0,0.3-0.2,0.5-0.4,0.5c-0.2,0-0.2-0.1-0.1-0.4c0.1-0.3,0.1-0.4-0.1-0.5c-0.3-0.2-0.7-0.1-0.5,0.1c0,0.1,0.1,0.1,0.2,0.1
	c0.1,0,0.2,0.1,0.2,0.2c0,0-0.1,0.1-0.2,0.2c-0.2,0.2-0.2,0.2-0.6,0.1c0,0-0.1-0.1-0.2-0.2c-0.2-0.2-0.2-0.5-0.1-0.6
	C36.1,17.8,36.4,17.6,36.7,17.6L36.7,17.6z M19.4,18.2c0.2,0,0.5,0.2,0.6,0.4c0.1,0.4,0.1,0.7-0.1,0.9c-0.1,0.1-0.2,0.2-0.2,0.3
	c-0.1,0.2-0.4,0.2-0.6,0c-0.4-0.2-0.5-0.6-0.4-0.9c0-0.1,0.1-0.1,0.2-0.1c0.2,0,0.3,0.1,0.3,0.3c0,0.1,0,0.2,0.1,0.1
	c0,0,0.1,0,0.1,0.1c0.1,0.1,0.1,0.1,0.2,0c0.1-0.1,0.1-0.1,0.1-0.2c0-0.2-0.1-0.5-0.3-0.6C19.1,18.4,19.1,18.3,19.4,18.2
	C19.3,18.2,19.4,18.2,19.4,18.2L19.4,18.2z M30.8,18.2C30.8,18.2,30.9,18.2,30.8,18.2c0.3,0.1,0.3,0.2,0.1,0.3
	c-0.2,0.1-0.3,0.4-0.3,0.6c0,0.1,0.1,0.2,0.1,0.2c0.1,0.1,0.1,0.1,0.2,0c0,0,0.1-0.1,0.1-0.1c0.1,0,0.1,0,0.1-0.1
	c0-0.2,0.1-0.3,0.3-0.3c0.1,0,0.2,0,0.2,0.1c0.1,0.3,0,0.7-0.4,0.9c-0.3,0.2-0.5,0.2-0.6,0c0-0.1-0.1-0.2-0.2-0.3
	c-0.2-0.2-0.2-0.6-0.1-0.9C30.3,18.4,30.6,18.2,30.8,18.2L30.8,18.2z M9.5,18.4c0.2,0,0.3,0.1,0.4,0.3c0.2,0.4-0.1,0.8-0.4,0.4
	c-0.1-0.1-0.2-0.2-0.2-0.2c-0.1,0-0.1,0.2,0,0.3c0.2,0.3,0.3,0.3,0.6,0.3c0.3,0,0.3,0,0.3,0.1c0,0.1,0,0.2,0.1,0.2
	c0,0.1,0,0.2-0.1,0.2c-0.3,0.1-0.9-0.2-1.1-0.4c-0.1-0.2-0.2-0.6-0.2-0.8C8.9,18.5,9.2,18.4,9.5,18.4L9.5,18.4z M40.7,18.4
	c0.3,0,0.5,0.2,0.6,0.5c0,0.2,0,0.7-0.2,0.8c-0.1,0.2-0.8,0.4-1,0.4c-0.1,0-0.2-0.1-0.1-0.2c0,0,0-0.1,0.1-0.2c0-0.1,0-0.1,0.3-0.1
	c0.3,0,0.5,0,0.6-0.3c0.1-0.1,0.1-0.3,0-0.3c0,0-0.1,0.1-0.2,0.2c-0.3,0.3-0.6,0-0.4-0.4C40.4,18.4,40.5,18.4,40.7,18.4L40.7,18.4z
	 M10.4,18.5C10.5,18.5,10.5,18.5,10.4,18.5c0.1,0,0.1,0.3,0,0.3c0,0-0.1-0.1-0.1-0.2C10.4,18.5,10.4,18.5,10.4,18.5L10.4,18.5z
	 M39.7,18.5c0,0,0,0,0,0.1c0,0.1,0,0.1-0.1,0.2C39.6,18.8,39.6,18.5,39.7,18.5C39.7,18.5,39.7,18.5,39.7,18.5L39.7,18.5z M11.4,18.7
	c0,0,0.1,0,0.1,0c0.3,0,0.3,0,0.5,0.2c0.3,0.3,0.4,0.5,0.3,0.7c-0.1,0.2-0.2,0.2-0.4,0.3c-0.2,0.1-0.3,0.1-0.4,0
	c-0.2-0.1-0.2-0.1,0-0.3c0.1-0.1,0.2-0.2,0.1-0.2c0-0.1-0.4,0-0.6,0.1c-0.2,0.2-0.2,0.3,0,0.5c0.1,0.1,0.1,0.2,0.1,0.2
	c0,0,0.1,0.1,0.1,0.2c0.1,0.1,0.2,0.1,0.4,0.1l0.3,0l0.1,0.3c0.1,0.3,0.1,0.4-0.1,0.4c-0.3,0-0.8,0.5-0.9,0.7c0,0.1-0.1,0.2-0.1,0.2
	c0,0-0.1,0.1-0.1,0.2c-0.1,0.1-0.1,0.1-0.3,0.1c-0.1,0-0.3,0-0.3-0.1c0,0-0.1-0.1-0.1-0.1c-0.2,0-0.7-0.8-0.7-1
	c0.1-0.4,0.6-0.8,0.9-0.7c0.3,0.1,0.4,0.1,0.5,0.2c0.1,0.1,0.1,0.3,0,0.5c-0.1,0.2-0.2,0.2-0.4,0.1c-0.1-0.1-0.3-0.1-0.3,0
	c0,0,0.1,0.1,0.1,0.2c0.1,0.1,0.2,0.1,0.2,0.2c0.1,0.1,0.4,0.2,0.5,0.1c0.1-0.1,0.4-0.5,0.4-0.6c0-0.1,0-0.2,0-0.2
	c0-0.1-0.3-0.5-0.5-0.7c-0.2-0.1-0.3-0.5-0.3-0.7c0-0.2,0.3-0.5,0.5-0.5c0.1,0,0.1,0,0.1-0.1C11.2,18.8,11.3,18.7,11.4,18.7
	L11.4,18.7z M38.8,18.7c0.1,0,0.2,0,0.2,0c0,0,0.1,0.1,0.1,0.1c0.2,0,0.5,0.3,0.5,0.5c0,0.3-0.1,0.6-0.3,0.7
	c-0.2,0.1-0.5,0.6-0.5,0.7c0,0,0,0.1,0,0.2c0,0.2,0.3,0.6,0.4,0.6c0.2,0.1,0.4,0,0.5-0.1c0.1-0.1,0.2-0.1,0.2-0.2
	c0.1-0.1,0.1-0.1,0.1-0.2c0-0.1-0.2-0.1-0.3,0c-0.2,0.1-0.3,0.1-0.4-0.1c-0.1-0.2-0.1-0.4,0-0.5c0.1-0.1,0.2-0.2,0.5-0.2
	c0.3-0.1,0.8,0.3,0.9,0.7c0.1,0.2-0.4,1-0.7,1c-0.1,0-0.1,0-0.1,0.1c0,0-0.2,0.1-0.3,0.1c-0.2,0-0.3,0-0.3-0.1
	c0-0.1-0.1-0.1-0.1-0.2c0,0-0.1-0.1-0.1-0.2c-0.1-0.3-0.6-0.7-0.9-0.7c-0.2,0-0.2-0.1-0.1-0.4l0.1-0.3l0.3,0c0.3,0,0.3,0,0.4-0.1
	c0.1-0.1,0.1-0.1,0.1-0.2c0,0,0.1-0.1,0.1-0.2c0.1-0.2,0.1-0.3,0-0.5c-0.1-0.1-0.5-0.2-0.6-0.1c0,0,0.1,0.1,0.1,0.2
	c0.2,0.2,0.2,0.3,0,0.3c-0.1,0-0.2,0-0.4,0c-0.2-0.1-0.3-0.1-0.4-0.3c-0.1-0.2-0.1-0.4,0.3-0.7c0.2-0.2,0.3-0.2,0.5-0.2
	C38.7,18.7,38.8,18.7,38.8,18.7L38.8,18.7z M17.2,18.8c0,0,0.1,0,0.1,0c0.3,0,0.6,0.4,0.5,0.6c0,0.2-0.1,0.2-0.3,0.2
	c-0.1,0-0.2,0-0.2-0.1c0-0.1-0.2-0.2-0.3-0.1c-0.1,0-0.1,0.1,0,0.2c0.1,0.3,0.2,0.4,0.4,0.4c0.1,0,0.2,0,0.2,0c0,0,0.1,0,0.2,0
	c0.2,0,0.5-0.2,0.5-0.4c0-0.1,0.1-0.1,0.2,0c0.1,0.2,0,0.3-0.1,0.3c-0.2,0-0.6,0.3-0.7,0.6c-0.1,0.2-0.2,0.2-0.2,0.2
	c-0.1,0-0.1,0-0.2,0c0,0-0.1-0.1-0.1-0.1c0-0.1-0.1-0.2-0.3-0.2c-0.2-0.1-0.3-0.2-0.4-0.5c0-0.3,0.1-0.6,0.4-0.9
	C17.1,18.9,17.1,18.8,17.2,18.8L17.2,18.8z M33,18.8c0.1,0,0.2,0.1,0.3,0.2c0.3,0.3,0.5,0.6,0.4,0.9c-0.1,0.3-0.1,0.4-0.4,0.5
	c-0.1,0-0.2,0.1-0.3,0.2c0,0.1-0.1,0.1-0.1,0.1c0,0-0.1,0-0.1,0c-0.1,0-0.1,0-0.2-0.2c-0.2-0.2-0.5-0.5-0.7-0.6
	c-0.2,0-0.2-0.1-0.1-0.3c0.1-0.1,0.2-0.2,0.2,0c0,0.1,0.3,0.4,0.5,0.4c0.1,0,0.2,0,0.2,0c0,0,0.1,0,0.2,0c0.2,0,0.3-0.1,0.4-0.4
	c0.1-0.1,0-0.2,0-0.2c-0.2-0.1-0.3,0-0.3,0.1c0,0.1-0.1,0.1-0.2,0.1c-0.2,0-0.3-0.1-0.3-0.2c0-0.2,0.2-0.6,0.5-0.6
	C32.9,18.8,32.9,18.8,33,18.8L33,18.8z M16.1,19.1C16.1,19.1,16.1,19.1,16.1,19.1c0.1,0.1,0,0.1,0,0.1C16,19.2,16,19.2,16.1,19.1
	C16,19.1,16,19.1,16.1,19.1L16.1,19.1z M34.1,19.1C34.2,19.1,34.2,19.1,34.1,19.1c0.1,0.1,0,0.1,0,0.1
	C34.1,19.2,34.1,19.2,34.1,19.1C34.1,19.1,34.1,19.1,34.1,19.1L34.1,19.1z M15.1,19.3c0.2,0,0.3,0.1,0.5,0.2
	c0.4,0.4,0.5,0.8,0.2,1.1c-0.1,0.1-0.2,0.2-0.3,0.1c-0.2,0-0.3-0.2-0.1-0.3c0.2-0.2,0-0.4-0.2-0.3c-0.2,0.1-0.3,0.1-0.3,0.4
	c0,0.2-0.1,0.2-0.2,0.1c-0.1-0.1-0.1-0.4-0.1-0.7C14.7,19.5,14.9,19.3,15.1,19.3L15.1,19.3z M35,19.3c0.3,0,0.5,0.2,0.5,0.6
	c0,0.3,0,0.6-0.1,0.7c-0.1,0.1-0.2,0.1-0.2-0.1c0-0.2,0-0.3-0.3-0.4c-0.3-0.1-0.4,0.1-0.2,0.3c0.1,0.1,0.1,0.2-0.2,0.3
	c-0.2,0-0.2,0-0.3-0.1c-0.3-0.3-0.2-0.7,0.2-1.1C34.7,19.3,34.9,19.3,35,19.3L35,19.3z M13.5,19.4c0.1,0,0.2,0.1,0.3,0.2
	c0.3,0.3,0.2,0.8-0.2,0.7c-0.1,0-0.1-0.1-0.1-0.2c0-0.2-0.1-0.2-0.2-0.2c-0.1,0.1-0.1,0.2,0.1,0.4c0.2,0.2,0.2,0.2,0.5,0.2
	c0.2,0,0.3,0,0.4-0.1l0.1-0.1l0.1,0.1c0.1,0.1,0.1,0.2,0,0.3c0,0-0.1,0.1-0.2,0.1c-0.1,0-0.2,0.1-0.2,0.1c-0.1,0.1-0.7,0.1-0.9,0.1
	c-0.3-0.1-0.5-0.4-0.5-0.7c0-0.3,0.3-0.7,0.5-0.9C13.3,19.5,13.4,19.4,13.5,19.4L13.5,19.4z M36.7,19.4c0.1,0,0.2,0,0.4,0.1
	c0.3,0.1,0.5,0.5,0.5,0.9c0,0.3-0.2,0.6-0.5,0.7c-0.3,0.1-0.8,0.1-0.9-0.1c0,0-0.1-0.1-0.2-0.1c-0.1,0-0.2-0.1-0.2-0.1
	c-0.1-0.1-0.1-0.2,0-0.3l0.1-0.1l0.1,0.1c0.1,0.1,0.2,0.1,0.4,0.1c0.2,0,0.3,0,0.5-0.2c0.2-0.2,0.2-0.4,0.1-0.4
	c-0.1-0.1-0.2,0-0.2,0.2c0,0.1-0.1,0.1-0.1,0.2c-0.3,0-0.5-0.5-0.2-0.7C36.5,19.5,36.6,19.4,36.7,19.4L36.7,19.4z M18.5,20.4
	c0.1,0,0.1,0,0.1,0c0,0,0.1,0.1,0.2,0.2c0.1,0.2,0.1,0.2,0.1,0.6c0,0.3,0,0.5-0.1,0.5c-0.1,0.1-0.2,0.1-0.3,0.1
	c-0.2,0-0.3,0-0.4-0.1c-0.1-0.2-0.2-0.4,0-0.5c0.1-0.1,0.1-0.1,0.1,0c0.1,0.1,0.4,0.1,0.4,0c0-0.1,0-0.2-0.2-0.3
	c-0.2-0.1-0.4-0.1-0.6,0.1c-0.3,0.2-0.2,0,0.1-0.3C18.1,20.5,18.3,20.4,18.5,20.4L18.5,20.4z M31.7,20.4c0.2,0,0.4,0.1,0.6,0.4
	c0.3,0.3,0.3,0.4,0.1,0.3c-0.2-0.1-0.4-0.2-0.6-0.1c-0.2,0.1-0.2,0.2-0.2,0.3c0,0.1,0.3,0.2,0.4,0c0.1-0.1,0.1,0,0.1,0
	c0.1,0.1,0.1,0.3,0,0.5c-0.1,0.1-0.2,0.1-0.4,0.1c-0.2,0-0.3,0-0.3-0.1c-0.1-0.1-0.1-0.2-0.1-0.5c0-0.4,0-0.5,0.1-0.6
	c0.1-0.1,0.2-0.2,0.2-0.2C31.6,20.4,31.7,20.4,31.7,20.4L31.7,20.4z M16.4,20.6c0.2,0,0.1,0.1-0.2,0.4c-0.3,0.2-0.4,0.4-0.2,0.5
	c0.1,0.1,0.1,0,0.2-0.1c0.2-0.2,0.4-0.3,0.6-0.3c0.3,0,0.4,0.3,0.4,0.7c0,0.2,0,0.3-0.2,0.4c-0.1,0.1-0.2,0.1-0.3,0.1
	c-0.2,0-0.2-0.2-0.1-0.3c0.1-0.1,0.1-0.1,0-0.2c-0.1-0.1-0.2-0.1-0.4,0.1c-0.1,0.1-0.1,0.3,0,0.5c0.1,0.2,0.1,0.2-0.1,0.1
	c-0.1,0-0.2-0.1-0.2-0.1c0.1-0.2,0.1-0.7,0-0.7c0,0-0.1-0.1-0.2-0.1c-0.1,0-0.2,0-0.3,0.5c0,0.1-0.1,0.3-0.3,0.4
	c-0.4,0.4-0.7,0.5-1,0.2c-0.2-0.2-0.4-0.4-0.5-0.8c0-0.2,0-0.2,0.1-0.4c0.4-0.5,0.8-0.5,0.8,0c0,0.2-0.2,0.4-0.4,0.4
	c-0.1,0-0.1,0,0,0.1c0.1,0.2,0.3,0.2,0.6,0.1c0.2-0.1,0.4-0.8,0.2-1c0-0.1-0.1-0.2-0.1-0.3l0-0.1l0.2,0.2c0.2,0.2,0.2,0.2,0.4,0.1
	c0.1,0,0.3-0.2,0.4-0.2C16.3,20.7,16.4,20.6,16.4,20.6L16.4,20.6z M33.7,20.6c0.1,0,0.2,0.1,0.2,0.2c0.1,0.1,0.3,0.2,0.4,0.2
	c0.2,0.1,0.2,0.1,0.5-0.1l0.2-0.2l0,0.1c0,0.1,0,0.2-0.1,0.3c-0.2,0.2,0,0.9,0.2,1c0.2,0.1,0.5,0.1,0.6-0.1c0-0.1,0-0.1,0-0.1
	c-0.2,0-0.4-0.2-0.4-0.4c0-0.4,0.4-0.4,0.8,0c0.1,0.1,0.2,0.2,0.1,0.4c-0.1,0.3-0.2,0.6-0.5,0.8c-0.4,0.2-0.6,0.2-1-0.2
	c-0.1-0.2-0.3-0.3-0.3-0.4c-0.1-0.5-0.1-0.5-0.3-0.5c-0.1,0-0.2,0-0.2,0.1c0,0.1,0,0.6,0,0.7c0,0.1,0,0.1-0.2,0.1
	c-0.2,0-0.2,0-0.1-0.1c0.2-0.2,0.2-0.4,0-0.5c-0.1-0.1-0.2-0.2-0.4-0.1c-0.1,0-0.1,0.1,0,0.2c0.1,0.2,0,0.3-0.1,0.3
	c-0.1,0-0.2,0-0.3-0.1c-0.1-0.1-0.1-0.2-0.2-0.4c0-0.4,0.2-0.7,0.4-0.7c0.2,0,0.4,0.1,0.6,0.3c0.1,0.1,0.2,0.1,0.2,0.1
	c0.2-0.1,0.1-0.3-0.2-0.5C33.6,20.8,33.6,20.6,33.7,20.6L33.7,20.6z M12.3,21.3c0.1,0,0.2,0,0.3,0.1c0.2,0.2-0.1,0.7-0.3,0.5
	c-0.2-0.1-0.2,0,0,0.2c0.2,0.2,0.3,0.2,0.5,0.1c0.1-0.1,0.4-0.5,0.4-0.7c0-0.1,0.1-0.1,0.2,0c0.1,0.1,0.1,0.2,0.1,0.4
	c0,0.2-0.1,0.3-0.2,0.5c-0.2,0.2-0.2,0.2-0.5,0.4c-0.2,0.1-0.7,0.1-0.8,0c-0.1-0.1-0.3-0.4-0.3-0.6C11.4,21.9,11.8,21.3,12.3,21.3
	L12.3,21.3z M37.9,21.3c0.5,0,0.8,0.5,0.7,1c-0.1,0.2-0.2,0.5-0.3,0.6c-0.1,0.1-0.6,0-0.8,0c-0.3-0.1-0.4-0.2-0.5-0.4
	c-0.1-0.1-0.2-0.3-0.2-0.5c0-0.2,0-0.3,0.1-0.4c0.1-0.1,0.2-0.1,0.2,0c0,0.2,0.2,0.6,0.4,0.7c0.2,0.1,0.3,0.1,0.5-0.1
	c0.2-0.2,0.2-0.3,0-0.2c-0.2,0.1-0.5-0.3-0.3-0.5C37.7,21.4,37.8,21.3,37.9,21.3L37.9,21.3z M16.8,22.7
	C16.8,22.7,16.8,22.7,16.8,22.7c0.1,0.1,0,0.1,0,0.1C16.7,22.8,16.7,22.8,16.8,22.7C16.7,22.7,16.7,22.7,16.8,22.7L16.8,22.7z
	 M33.4,22.7C33.5,22.7,33.5,22.7,33.4,22.7c0.1,0.1,0,0.1,0,0.1C33.4,22.8,33.4,22.8,33.4,22.7C33.4,22.7,33.4,22.7,33.4,22.7
	L33.4,22.7z M17.5,22.8c0.2,0,0.4,0.1,0.5,0.4c0.2,0.4,0.2,0.5-0.1,0.8c-0.2,0.2-0.3,0.2-0.4,0.1c-0.2-0.1-0.2-0.3,0-0.3
	c0.1-0.1,0.2-0.2,0.2-0.3c-0.1-0.1-0.4,0-0.5,0.1c-0.1,0.1-0.1,0.1-0.2,0.1c-0.1,0,0.1-0.5,0.2-0.7C17.3,22.9,17.4,22.8,17.5,22.8
	L17.5,22.8z M32.7,22.8c0.1,0,0.2,0,0.3,0.1c0.2,0.2,0.4,0.7,0.2,0.7c0,0-0.1-0.1-0.2-0.1c-0.1-0.1-0.5-0.2-0.5-0.1
	c-0.1,0.1,0,0.2,0.2,0.3c0.2,0.1,0.1,0.2,0,0.3c-0.1,0.1-0.2,0.1-0.4-0.1c-0.3-0.2-0.3-0.4-0.1-0.8C32.3,23,32.5,22.8,32.7,22.8
	L32.7,22.8z M16,22.9c0.2,0,0.3,0.1,0.4,0.3c0.1,0.3-0.2,0.4-0.5,0.2c-0.1-0.1-0.1,0.1,0.1,0.2c0.1,0.1,0.2,0.2,0.4,0.2
	c0.3,0,0.3,0.1,0.4,0.3c0.1,0.1,0.1,0.3,0.1,0.3c0,0-0.1,0.1-0.3,0.1c-0.3,0-0.4,0-0.7-0.2c-0.2-0.1-0.3-0.5-0.3-0.9
	C15.5,23.2,15.7,23,16,22.9C15.9,22.9,16,22.9,16,22.9L16,22.9z M34.2,22.9C34.2,22.9,34.2,22.9,34.2,22.9c0.3,0.1,0.5,0.3,0.5,0.6
	c0,0.4-0.1,0.8-0.3,0.9c-0.2,0.2-0.3,0.2-0.7,0.2c-0.2,0-0.3-0.1-0.3-0.1c0,0,0-0.2,0.1-0.3c0.1-0.2,0.1-0.3,0.4-0.3
	c0.2,0,0.3-0.1,0.4-0.2c0.2-0.2,0.2-0.3,0.1-0.2c-0.4,0.2-0.7,0-0.5-0.2C33.9,23,34.1,22.9,34.2,22.9L34.2,22.9z M29.3,23.8
	c-0.6,0-1.2,0.2-1.9,0.6c-0.1,0.1-0.3,0.1-0.3,0.1c0,0-0.2,0.1-0.3,0.2c-0.3,0.3-0.3,0.3-0.2,0.4c0.1,0.1,0.3,0.1,0.4-0.1
	c0-0.1,0.1-0.1,0.2-0.1c0,0,0.1,0,0.1-0.1c0,0,0-0.1,0.1-0.1c0.1,0,0.1,0,0.1-0.1c0,0,0-0.1,0.1-0.1c0.1,0,0.2-0.1,0.3-0.1
	c0.1-0.1,0.2-0.1,0.2-0.1c0,0,0.1,0,0.2-0.1c0.5-0.2,1-0.3,1.3-0.1c0.1,0.1,0.3,0.1,0.3,0.1c0,0,0.1,0.1,0.2,0.2
	c0.2,0.2,0.2,0.3,0.4,0.2c0.1,0,0.1-0.2,0.1-0.4c0-0.1-0.1-0.1-0.1-0.1c0,0-0.1,0-0.2-0.1c-0.1-0.1-0.2-0.2-0.2-0.2c0,0,0,0,0-0.1
	c0,0-0.1-0.1-0.2-0.1c0,0-0.1,0-0.1-0.1C29.6,23.8,29.4,23.8,29.3,23.8L29.3,23.8z M20.1,24c-0.5,0.1-0.5,0.1-0.9,0.4
	c-0.1,0.1-0.2,0.2-0.2,0.1c0,0-0.1,0-0.1,0.1c-0.1,0.2,0,0.4,0.1,0.4c0.2,0,0.2,0,0.4-0.2c0.1-0.1,0.2-0.2,0.2-0.2
	c0,0,0.2-0.1,0.3-0.1c0.3-0.2,0.9-0.1,1.3,0.1c0.1,0.1,0.2,0.1,0.2,0.1c0,0,0.1,0,0.2,0.1c0.1,0.1,0.3,0.1,0.3,0.1
	c0,0,0.1,0,0.1,0.1c0,0,0,0.1,0.1,0.1c0.1,0,0.1,0,0.1,0.1c0,0,0,0.1,0.1,0.1c0,0,0.1,0.1,0.2,0.1c0.1,0.2,0.3,0.2,0.4,0.1
	c0.1-0.1,0.1-0.2-0.2-0.4c-0.1-0.1-0.3-0.2-0.3-0.2c0,0-0.2-0.1-0.3-0.1C21.2,24.2,20.7,24,20.1,24L20.1,24z M28.5,25.3
	c-0.5,0-0.5,0-0.7,0.1c-0.1,0.1-0.4,0.3-0.6,0.5c-0.5,0.5-0.5,0.5-0.2,0.8c0.2,0.2,0.3,0.2,0.7,0.4c0.2,0.1,0.6,0.1,1.1,0
	c0.3,0,0.4-0.1,0.7-0.2c0.3-0.2,0.6-0.4,0.7-0.6c0.1-0.1,0.1-0.1-0.1-0.3c-0.2-0.2-0.4-0.4-0.9-0.6L29,25.3H28.5z M23.7,25.5
	c0,0-0.1,0,0,0.2c0.2,1,0.2,2.1,0,2.7c-0.2,0.4,0.1,0.6,0.3,0.2c0.1-0.4,0.1-0.5,0.1-1.1c0-0.8,0-1.1-0.2-1.5
	C23.9,25.7,23.8,25.5,23.7,25.5L23.7,25.5z M20.9,25.5c-0.5,0-0.5,0-0.7,0.1c-0.1,0.1-0.4,0.3-0.6,0.5c-0.5,0.5-0.5,0.5-0.2,0.8
	c0.2,0.2,0.3,0.2,0.7,0.4c0.2,0.1,0.6,0.1,1.1,0c0.3,0,0.4-0.1,0.7-0.2c0.3-0.2,0.6-0.4,0.7-0.6c0.1-0.1,0.1-0.1-0.1-0.3
	c-0.2-0.2-0.4-0.4-0.9-0.6l-0.4-0.2H20.9z M28.9,25.7c0.1,0,0.4,0.1,0.6,0.3c0.1,0.1,0.3,0.2,0.3,0.2c0.2,0.1,0.1,0.3-0.3,0.4
	c-0.1,0-0.3,0.1-0.4,0.1c-0.1,0-0.1,0-0.1-0.1c0.1-0.3,0.1-0.6-0.1-0.8C28.8,25.8,28.8,25.8,28.9,25.7
	C28.8,25.7,28.8,25.7,28.9,25.7L28.9,25.7z M27.7,25.9c0,0,0,0.1,0,0.3c0,0.2,0,0.3,0,0.4c0,0.1,0,0.1,0,0.1c-0.1,0-0.5-0.2-0.5-0.3
	C27.3,26.3,27.7,25.9,27.7,25.9L27.7,25.9z M21.2,25.9c0.1,0,0.4,0.1,0.6,0.3c0.1,0.1,0.3,0.2,0.3,0.2c0.2,0.1,0.1,0.3-0.3,0.4
	c-0.1,0-0.3,0.1-0.4,0.1c-0.1,0-0.1,0-0.1-0.1c0.1-0.3,0.1-0.6-0.1-0.8C21.2,26,21.2,25.9,21.2,25.9C21.2,25.9,21.2,25.9,21.2,25.9
	L21.2,25.9z M20.1,26.1c0,0,0,0.1,0,0.3c0,0.2,0,0.3,0,0.4c0,0.1,0,0.1,0,0.1c-0.1,0-0.4-0.2-0.4-0.3C19.7,26.5,20,26.1,20.1,26.1
	L20.1,26.1z M32.4,26.3C32.4,26.3,32.4,26.3,32.4,26.3c0.1,0,0.1,0.2,0.1,0.2C32.3,26.5,32.3,26.5,32.4,26.3
	C32.3,26.3,32.3,26.3,32.4,26.3L32.4,26.3z M17.1,26.4c0,0,0.1,0,0.1,0c0,0,0.1,0.2,0.1,0.3c0,0.1,0.1,0.3,0.1,0.3
	c0.1,0.1,0,0.2-0.2,0.1c-0.2-0.1-0.3,0-0.3,0.2c0,0.2,0.1,0.9,0.2,0.9c0,0,0.1,0,0.2-0.1c0.1-0.1,0.1-0.1,0.1-0.3
	c0-0.2,0-0.3,0.1-0.2c0.1,0.1,0.3,0.7,0.3,1.2c0.1,0.4,0,0.5-0.2,0.5c-0.1,0-0.4-0.2-0.5-0.5c0-0.1-0.1-0.2-0.2-0.2
	c-0.1,0-0.1-0.1-0.1-0.1c0,0,0-0.1-0.1-0.2c0-0.1-0.1-0.2-0.1-0.2c0-0.1,0-0.2-0.1-0.3c-0.1-0.3-0.1-0.3-0.1-0.4c0,0,0-0.1,0-0.2
	c0-0.2,0.1-0.7,0.2-0.8c0,0,0.1-0.1,0.1-0.1C16.8,26.5,16.9,26.4,17.1,26.4L17.1,26.4z M33.1,26.5c0.1,0,0.3,0,0.4,0.1
	c0.1,0.1,0.1,0.2,0.1,0.3c0,0.1-0.1,0.3-0.1,0.4c-0.1,0.5-0.4,1.2-0.9,2.1c-0.1,0.2-0.2,0.3-0.3,0.3c-0.1,0-0.1,0-0.1-0.3
	c0-0.2,0-0.3,0.1-0.3c0,0,0,0,0-0.1c0-0.1,0-0.1,0-0.1c0,0,0-0.1,0.1-0.2c0-0.5,0.2-0.9,0.3-0.9c0,0,0.1-0.1,0.2-0.1
	c0.1-0.1,0.2-0.1,0.2-0.1c0,0,0.1,0,0.2-0.1c0.1-0.1,0.1-0.1,0.1-0.3c0-0.1,0-0.2-0.1-0.2c0-0.1-0.3,0.1-0.5,0.3
	c-0.1,0.1-0.2,0.2-0.2,0.2c-0.1,0-0.2-0.2-0.1-0.3c0,0,0,0,0-0.1c-0.1,0,0-0.4,0-0.4c0,0,0.1-0.1,0.2-0.2
	C32.8,26.6,33,26.5,33.1,26.5L33.1,26.5z M26.9,30.1c-0.1,0-0.1,0-0.2,0.1c-0.5,0.4-1.1-0.2-1.7,0.2c-0.1,0.1-0.7,0.2-0.7,0.1
	c0,0-0.1-0.1-0.2-0.1c-0.3-0.1-0.5-0.1-0.7,0c-0.1,0-0.2,0.1-0.3,0.1c-0.1,0-0.2,0-0.2-0.2c0-0.1,0-0.1-0.1-0.1c0,0-0.1,0-0.1,0
	c0,0,0,0-0.1,0.1c-0.1,0.2-0.1,0.2,0,0.3c0.1,0.1,0.1,0.1,0.3,0.1c0.1,0,0.3,0,0.3,0c0.1,0,0.1,0,0.1,0c0-0.1,0.4,0,0.6,0.1
	c0.1,0,0.2,0.1,0.3,0.1c0.2,0,0.6,0,0.6-0.1c0,0,0.1,0,0.1-0.1c0.1,0,0.2,0,0.2-0.1c0.1-0.1,0.5-0.1,0.6,0c0.2,0.1,0.8,0,1-0.1
	c0.2-0.1,0.3-0.2,0.2-0.4C27,30.1,27,30.1,26.9,30.1L26.9,30.1z M17.4,30.2C17.3,30.2,17.3,30.2,17.4,30.2c-0.2,0.2-0.4,0.6-0.4,0.9
	c0,0.2,0,0.5,0,0.9c0.1,0.4,0.1,0.6,0.3,0.9c0.1,0.2,0.2,0.4,0.2,0.4c0.1,0.1,0.5,0.4,0.6,0.4c0.1,0,0.2,0.1,0.4,0.1
	c0.1,0,0.1,0,0.2,0c-0.3,0.1-0.5,0.1-0.6,0c0,0-0.1,0-0.2,0c-0.1,0-0.1,0-0.1,0c0,0-0.1-0.1-0.2-0.1c-0.2-0.1-0.6-0.4-0.7-0.6
	c-0.1-0.2-0.2-0.3-0.2-0.4c0,0,0,0,0,0c0,0,0-0.1-0.1-0.2c-0.1-0.1-0.1-0.3-0.1-0.6c0-0.6,0-0.8,0.1-0.9c0,0,0.1-0.2,0.2-0.3
	C17,30.6,17.3,30.2,17.4,30.2L17.4,30.2z M32.6,30.3C32.7,30.3,32.7,30.3,32.6,30.3c0.2,0.1,0.4,0.5,0.5,1.2
	c0.1,0.6,0.1,0.9-0.2,1.3c-0.3,0.5-0.4,0.6-0.9,0.8c-0.5,0.2-0.6,0.3-0.9,0.3c-0.1,0-0.1,0-0.2,0c0.1,0,0.2,0,0.3-0.1
	c0.2,0,0.3-0.1,0.4-0.1c0.1-0.1,0.5-0.4,0.6-0.4c0,0,0.1-0.2,0.2-0.4c0.2-0.4,0.3-0.5,0.3-0.9c0.1-0.4,0.1-0.7,0-0.9
	C32.8,30.9,32.7,30.6,32.6,30.3C32.6,30.3,32.6,30.3,32.6,30.3L32.6,30.3z M17.7,30.3c0.1,0,0.1,0,0.2,0.1c0.1,0.1,0.1,0.1,0.4,0.6
	c0.4,0.7,0.6,1.4,0.9,2.1c0.1,0.1,0.1,0.3,0.1,0.4c0,0,0,0.1,0,0.1c-0.3,0.1-0.6,0.1-0.7,0c0,0-0.1,0-0.1,0c-0.1,0-0.1,0-0.1-0.1
	c0,0-0.1-0.1-0.2-0.1c-0.3-0.2-0.5-0.5-0.6-0.7c0-0.1-0.1-0.2-0.1-0.3c0-0.1-0.1-0.1-0.1-0.1c0,0,0-0.1,0-0.1
	c-0.1-0.2-0.1-0.3,0-0.8c0.1-0.5,0.1-0.6,0.2-0.7C17.6,30.6,17.6,30.5,17.7,30.3C17.7,30.3,17.7,30.3,17.7,30.3L17.7,30.3z
	 M32.3,30.7c0.1,0.1,0.1,0.3,0.2,0.7c0,0.4,0,0.6,0,0.8c0,0.1,0,0.1,0,0.1c0,0,0,0.1-0.1,0.1c0,0.1-0.1,0.2-0.1,0.3
	c-0.1,0.2-0.4,0.6-0.6,0.7c-0.1,0-0.1,0.1-0.2,0.1c0,0.1-0.1,0.1-0.1,0.1c-0.1,0-0.1,0-0.1,0c-0.1,0.1-0.3,0.1-0.5,0
	c0.1-0.2,0.3-0.6,0.3-0.6c0,0,0-0.1,0-0.1c0-0.1,0-0.1,0-0.1c0,0,0.4-0.5,0.4-0.7c0,0,0-0.1,0.1-0.1c0.1-0.1,0.3-0.7,0.3-0.8
	c0-0.1,0.3-0.4,0.4-0.5C32.1,30.7,32.2,30.7,32.3,30.7L32.3,30.7z M25.6,32.3c-0.1,0-0.2,0.1-0.3,0.2c-0.3,0.2-0.3,0.2-0.4,0
	c-0.1-0.1-0.2-0.1-0.3-0.1c-0.3,0-0.6,0.1-0.6,0.2c0,0,0,0,0,0c0,0-0.2,0.1-0.7,0.6c-0.2,0.2-0.2,0.2-0.5,0.2c-0.3,0-0.3,0-0.3-0.1
	c0,0-0.1,0-0.2,0c-0.1,0-0.1,0.1,0.1,0.3c0.2,0.2,0.3,0.2,0.5,0.3c0.1,0,0.3,0.1,0.4,0.1c0.1,0,0.2,0.1,0.2,0c0,0,0.1,0,0.3,0
	c0.1,0,0.4-0.1,0.6-0.1c0.6-0.2,0.6-0.2,1-0.1c0.2,0.1,0.4,0.2,0.5,0.1c0.1,0,0.1,0,0.1,0c0,0,0.1,0,0.2,0c0.3,0,0.8-0.1,1.1-0.3
	c0.1-0.1,0.4-0.3,0.6-0.4C27.8,33.2,28,33,28,33c0.1-0.1,0.1-0.3,0-0.3c-0.1,0-0.3,0-0.4,0.1c0,0-0.1,0.1-0.2,0.1
	c-0.2,0.1-0.6,0-0.7-0.1C26.6,32.7,25.8,32.3,25.6,32.3L25.6,32.3z M25.6,32.7c0.1,0,0.8,0.3,0.8,0.4c0,0,0.1,0.1,0.2,0.2
	c0.1,0.1,0.2,0.1,0.2,0.2c0,0.1-0.3,0.1-0.6,0.2c-0.3,0-0.7-0.1-1.1-0.2c-0.2-0.1-0.4-0.1-0.5-0.1c-0.3,0.2-0.8,0.3-1.1,0.3
	c-0.2,0-0.3,0-0.3,0c0-0.1,0.4-0.5,0.7-0.6c0.4-0.2,0.5-0.2,0.7,0c0.2,0.2,0.2,0.2,0.2,0.1c0-0.1,0.1-0.1,0.1-0.1
	c0,0,0.2-0.1,0.3-0.1C25.5,32.7,25.6,32.7,25.6,32.7L25.6,32.7z M26.4,34.2c-0.1,0-0.1,0-0.2,0.1c-0.3,0.2-0.5,0.3-1.3,0.3
	c-0.3,0-0.6-0.1-0.8-0.2c-0.3-0.2-0.4-0.2-0.5-0.1c-0.2,0.2,0.1,0.5,0.5,0.5c0.1,0,0.2,0.1,0.2,0.1c0,0.1,0.2,0.1,0.8,0.1
	c0.7,0,0.8,0,1-0.1C26.3,34.7,26.6,34.3,26.4,34.2C26.5,34.2,26.4,34.2,26.4,34.2L26.4,34.2z M29.4,35.7
	C29.4,35.7,29.4,35.7,29.4,35.7c0,0.4,0.2,1.7,0.2,1.9c0.2,0.8,0.4,1.4,0.8,1.8c0.1,0.1,0.3,0.3,0.3,0.3c0,0,0.1,0.1,0.1,0.1
	c0.1,0,0.1,0.2-0.1,0.5c-0.1,0.2-0.2,0.3-0.2,0.4c0,0.1-0.1,0.2-0.2,0.2c-0.1,0-0.5,0.2-0.6,0.3c-0.2,0.2-0.3,0.5-0.3,0.6
	c0,0.1,0,0.1-0.3,0.2c-0.4,0-0.6,0.2-0.7,0.4c-0.1,0.1-0.1,0.2-0.1,0.2c0,0-0.1-0.1-0.2-0.2c-0.2-0.2-0.3-0.2-0.5-0.1
	c-0.3,0-0.5,0.1-0.7,0.4c-0.1,0.2-0.2,0.2-0.5,0c-0.1-0.1-0.2-0.1-0.3-0.1c-0.1,0-0.2,0-0.2,0c0,0-0.2,0.1-0.3,0.2L25.2,43l-0.1-0.2
	c-0.1-0.3-0.2-0.4-0.4-0.4c-0.1,0-0.2-0.1-0.3-0.1c-0.2-0.1-0.4-0.1-0.6,0c-0.1,0.1-0.1,0.1-0.4,0c-0.1-0.1-0.3-0.2-0.4-0.3
	c-0.2-0.1-0.2-0.2-0.4-0.1c-0.1,0-0.3,0.1-0.4,0.1L22.1,42L22,41.8c0-0.1-0.1-0.2-0.1-0.2c0,0-0.1-0.1-0.1-0.2
	c-0.1-0.1-0.1-0.2-0.1-0.2c0-0.1-0.4-0.3-0.7-0.3c-0.2,0-0.2,0-0.2-0.2c0-0.1,0-0.2-0.1-0.3c-0.1-0.1-0.1-0.2-0.1-0.3
	c0,0,0-0.1,0-0.1c0,0-0.1-0.1-0.1-0.1c0-0.1-0.1-0.2-0.1-0.2c0,0,0-0.1,0-0.1c0,0,0.1-0.1,0.2-0.2c0.1-0.1,0.2-0.3,0.3-0.4
	c0.2-0.3,0.2-0.3,0.5-0.9c0.2-0.3,0.3-0.8,0.3-0.8c0,0,0-0.3,0-0.6l0-0.6l0.4,0.2c1.2,0.6,2.4,1.5,3.7,1.4c0.5,0,0.8-0.1,0.8-0.1
	c0,0,0.1-0.1,0.2-0.1c0.1,0,0.2,0,0.2-0.1c0,0,0-0.1,0.1-0.1c1-0.3,1.8-1.1,2.3-1.6C29.3,35.8,29.4,35.7,29.4,35.7L29.4,35.7z
	 M20.1,40c0.1,0,0.1,0,0.1,0.1c0.1,0.1,0.1,0.1,0,0.2c-0.1,0.1-0.1,0.2,0,0.4c0.1,0.3,0.1,0.5-0.1,0.7c-0.1,0.1-0.2,0.2-0.3,0.2
	c-0.1,0-0.4-0.2-0.5-0.4c-0.2-0.4-0.1-0.7,0.3-0.9C19.8,40.1,20,40,20.1,40L20.1,40z M31.5,40.2c0.2,0,0.4,0.1,0.5,0.3
	c0,0.1,0,0.2-0.1,0.3c-0.2,0.3-0.2,0.3-0.5,0.3c-0.2,0-0.3,0-0.3-0.2c0-0.1-0.1-0.2,0-0.2c0,0,0-0.1,0.1-0.1
	C31.1,40.5,31.3,40.3,31.5,40.2C31.5,40.3,31.5,40.2,31.5,40.2L31.5,40.2z M30.4,41.3c0.1,0,0.2,0,0.4,0.2c0.2,0.2,0.2,0.2,0.2,0.3
	c-0.1,0.3-0.3,0.4-0.6,0.4c-0.3,0-0.3,0-0.4-0.1c-0.1-0.3,0-0.8,0.3-0.9C30.3,41.3,30.4,41.3,30.4,41.3L30.4,41.3z M21.2,41.4
	c0.1,0,0.2,0,0.2,0.1c0.1,0.1,0.2,0.4,0.2,0.6c0,0.4-0.6,0.6-0.9,0.2c-0.2-0.2-0.2-0.2-0.2-0.4c0-0.2,0.1-0.2,0.2-0.4
	C20.9,41.5,21.1,41.4,21.2,41.4L21.2,41.4z M22.8,42.2c0.1,0,0.2,0.1,0.3,0.3c0,0.1,0.1,0.1,0.2,0.1c0.2,0,0.2,0.3-0.1,0.5
	c-0.3,0.2-0.5,0.2-0.7,0c-0.2-0.1-0.2-0.4-0.1-0.4c0,0,0.1-0.1,0.1-0.1C22.3,42.4,22.6,42.2,22.8,42.2L22.8,42.2z M29.1,42.3
	c0.2,0,0.3,0.1,0.4,0.2c0.1,0.3,0,0.4-0.4,0.6c-0.2,0.1-0.3,0.1-0.3,0c-0.1-0.1-0.1-0.3-0.1-0.6C28.8,42.4,29,42.4,29.1,42.3
	L29.1,42.3z M24.2,42.6C24.2,42.6,24.2,42.6,24.2,42.6c0.3,0,0.5,0.2,0.5,0.4c0,0.2,0,0.3-0.3,0.4c-0.3,0.1-0.4,0.1-0.5,0
	c-0.2-0.2-0.2-0.5,0-0.7C24,42.7,24.1,42.6,24.2,42.6L24.2,42.6z M27.6,42.7c0.1,0,0.2,0,0.3,0.1c0.2,0.2,0.2,0.4,0,0.6
	c-0.2,0.2-0.3,0.2-0.3,0c0-0.1-0.1-0.1-0.2-0.1c-0.1,0-0.2-0.1-0.2-0.1c-0.1-0.1,0-0.4,0.1-0.4c0,0,0,0,0,0c0,0,0.1-0.1,0.2-0.1
	C27.6,42.7,27.6,42.7,27.6,42.7L27.6,42.7z M26.1,43c0.1,0,0.2,0.1,0.3,0.3c0.1,0.2,0.1,0.3-0.2,0.5c-0.2,0.1-0.3,0.2-0.5,0.2
	c-0.2,0-0.2,0-0.2-0.1c0-0.1,0-0.1-0.1-0.2c-0.1-0.1,0-0.2,0.2-0.4C25.9,43,26,42.9,26.1,43L26.1,43z M26.1,43"/>
</svg>
