<svg xmlns="http://www.w3.org/2000/svg" viewBox="0 0 100.6 100.6"><defs><style>.cls-1{fill:#e3eaea;}.cls-2{fill:#edf1f1;}.cls-3{fill:#df9996;}.cls-4{fill:#bda69a;}.cls-5{fill:#f1e5d2;}.cls-6{fill:#c17e7e;}.cls-7{fill:#322722;}.cls-8{fill:#b69564;stroke:#b69564;}</style></defs><g id="圖層_2" data-name="圖層 2"><g id="_0-ui_kits" data-name="0-ui_kits"><g id="Group_6638" data-name="Group 6638"><path id="Path_40251" data-name="Path 40251" class="cls-1" d="M99.72,50.3A49.43,49.43,0,1,1,50.3.87h0A49.42,49.42,0,0,1,99.72,50.29Z"/><path id="Path_40252" data-name="Path 40252" class="cls-2" d="M56,6.66A49.36,49.36,0,0,0,18.56,88.24a49.38,49.38,0,0,0,69.17-70A49.49,49.49,0,0,0,56,6.66Z"/><path id="Path_40253" data-name="Path 40253" class="cls-3" d="M32.83,77.67c-2.26.67-4.43,1.62-6.63,2.46-3.55,1.42-7.06,2.94-10.55,4.52-.55.42.08,1,.42,1.26A49.5,49.5,0,0,0,46.91,99.33c2.6.12,5.22,0,7.82-.12a49.61,49.61,0,0,0,19.2-5.94A47.5,47.5,0,0,0,85.7,84.19c.35-.62-.55-.79-1-.93C79.54,81.53,74.37,79.73,69.2,78A.87.87,0,0,0,68,78.3l-.05.09A18.84,18.84,0,0,1,66.52,81a17.43,17.43,0,0,1-5.29,5.11,12.69,12.69,0,0,1-2.42,1.13,21.85,21.85,0,0,1-4.44,1,20.14,20.14,0,0,1-5.75.07,15.88,15.88,0,0,1-5.74-2.31,26.54,26.54,0,0,1-4.5-3A32.59,32.59,0,0,1,34,79.34c-.46-.43-.45-1.13-.84-1.58a.52.52,0,0,0-.34-.09Z"/><path id="Path_40254" data-name="Path 40254" class="cls-4" d="M43.8,14.63c-5,.09-10.13,3.26-11.72,8.16-.54,1.14-.13,2.6-1,3.59-1.63,1.42-.75,3.95-2,5.6-.3,1.63.07,3.33,0,5a8.11,8.11,0,0,1-.61,4.18C28,42.57,27,43.8,26.73,45.34a22.37,22.37,0,0,0-1.68,9.18c.06,2.56-.29,5.22.65,7.65.48,1.64,1.33,3.31.94,5a43.45,43.45,0,0,0-.58,9.8,25.49,25.49,0,0,0,2.41,9.25c.86,2,2.47,3.4,3.62,5.16.54.72.68,1.76,1.36,2.31.29-1.1,0-2.55.49-3.7.49-.46.65-1.15,1.22-1.51a1.53,1.53,0,0,1,.89-1.1c.31-.22,1.24-.7,1.27-.05-.36.11-.24.4.08.48.88.11,1.43-.88,2-1.4,1.19-1.17,1.73-2.79,2.68-4.11a3.45,3.45,0,0,1,1.64,1.4c.54.35,1.34.12,1.86.61.57.2.47,1,1,1.16a2.69,2.69,0,0,1,2.41-.06c.37.53,0,1.37.62,1.81A1.81,1.81,0,0,0,52,86.38a.5.5,0,0,1,.05-.13,1.1,1.1,0,0,1,1.3-.85,1.38,1.38,0,0,1,.41.18c.48.44,1,0,1.14-.47A1.79,1.79,0,0,1,57,84.86c.63.15.79-.88,1.26-1.16s1.35-1.28,1.88-.5a9.92,9.92,0,0,0,3.12,3.88c.84.8,2.11,1.23,2.71,2.25,1.17,1.12.92,2.86,1.06,4.32.33-.13.62-.86.87-1.25.73-1.7,2.17-2.9,3.16-4.42a24.24,24.24,0,0,0,3.43-12.2c.26-3.24-.36-6.43-.76-9.64a25.53,25.53,0,0,1,1.42-4.91,41,41,0,0,0,.08-10.32,17.19,17.19,0,0,0-1.52-5.75,9.37,9.37,0,0,0-1.55-3.4c-.33-.36-.21-1,.36-1,.55-.56.23-1.53.34-2.25.2-1.13-.63-2-.9-3s.27-2.08-.2-3.08c-.28-1.27-1.66-2-1.69-3.37-.25-1.45-1.66-2.23-2.2-3.51a10.54,10.54,0,0,0-4.74-8.07c-3.59-2.15-8-2.31-12.07-1.54-2.23-.55-4.43-1.38-6.76-1.33Z"/><path id="Path_40255" data-name="Path 40255" class="cls-5" d="M48.62,33.42c-4.16.08-8.4.26-12.32,1.77a3,3,0,0,0-2,1.8,15.42,15.42,0,0,0-1.46,6.94c.5.09,1-.47,1.63-.38a31.61,31.61,0,0,1,8.89.65,3,3,0,0,1,1.87,2.42c.24.7,1-.09,1.48.09a34.33,34.33,0,0,1,3.51.14c.24-.56.58-1.19,1.27-1.31A17.1,17.1,0,0,1,61,44.91c1.2.42,2.09,1.61,3.38,1.76,1-.18.56-1.42.53-2.09a28.07,28.07,0,0,0-2.38-8.85c-.91-.95-2.38-1-3.55-1.44a55.24,55.24,0,0,0-8-.85c-.78,0-1.56,0-2.34,0ZM39,40.32a10.15,10.15,0,0,1,4.65,1.81c.22.1.62.75.19.71a10.53,10.53,0,0,0-5.36-2c-.93,0-1.76.7-2.68.49-.44-.3.4-.56.62-.59a15,15,0,0,1,2.58-.4Zm17.39,1A6.17,6.17,0,0,1,60.7,42.7c.21.4-.5.07-.64,0-1-.4-1.92-1.17-3.08-.89a8.67,8.67,0,0,0-4.79,1c-.27.05-.72.48-.95.29a6.16,6.16,0,0,1,4.24-1.76c.31,0,.63,0,1,0Zm-9.9,5.8a1.78,1.78,0,0,0-1.69,1.57c-.78,2.33-2.68,4.59-5.25,4.89A9.31,9.31,0,0,1,35.47,53c-.67,0-.07.92,0,1.3.51,1.74,1.72,3.15,2.56,4.74,1.6,2.72,2.88,5.58,4.28,8.39,2.07,1.07,3.87,2.78,6.23,3.22a9.94,9.94,0,0,0,6-1.5,48.26,48.26,0,0,0,6.08-6.05,79.06,79.06,0,0,0,3.64-9A20,20,0,0,0,65,47.27c-.66.08-1.89-.39-2.24.26a9.72,9.72,0,0,1-4,6.14,6.06,6.06,0,0,1-4.83-.22A5.62,5.62,0,0,1,51,49.94c-.43-.74-.47-1.69-1-2.32a19.39,19.39,0,0,0-3.39-.5ZM43.33,54c.8.79,2,.8,2.9,1.48.82.5,1.72-.22,2.6-.09.69.08,1.17-.6,1.79-.62.39.55-.36.88-.81.95a16.39,16.39,0,0,1-3.81.5c-.49-.3-.67-1-1.35-1-.46-.2-1.3,0-1.53-.54,0-.23,0-.56.2-.68Zm2.5,6.3c.92,0,1.73,1,2.6.31,1.36-.84,2.68.6,4.09.36.81,0,1.56-.72,2.35-.56.26.45-.57.64-.8.89-2,1.14-4.18,2.4-6.58,2.13A8,8,0,0,1,42.26,61c-.33-.53.62-.4.85-.29,1,.42,1.76-.37,2.71-.42ZM51.18,64c.53.5-.42.8-.73,1.06a4.83,4.83,0,0,1-3.74.62c-.59-.38-1.48-.7-1.68-1.42.28-.45.86.23,1.21.29,1,.63,2.41,1.12,3.5.31A11.53,11.53,0,0,1,51.17,64Zm8.09,1.63-.08,0c-2,1.32-3.44,3.32-5.56,4.43-1,.44-2.1.71-3.13,1.06-2.49.53-4.83-.8-6.85-2.08-.3-.2-1.14-.81-1,0,.29,1.9.35,3.81.48,5.72.48,1.12,1.83,1.32,2.89,1.46.89.31,1.84.92,2.78.38.7,0,1.24.69,2,.62a2.57,2.57,0,0,0,2.45-.64c.57-.67,1,.42,1.58.28s1.22-1,2.07-1c.65-.18,1.72-.28,1.52-1.2A38.75,38.75,0,0,1,59.51,66a.29.29,0,0,0-.24-.33ZM58.17,76c-1,.24-1.46,1.65-2.6,1.23-1-.24-1.51,1.35-2.49,1-.86-.75-2.19-.54-3.23-.32-.46.2-1.1.6-1.56.33,0-.85-1.08-1-1.73-1-.36.23-.76.8-1.23.35-.52-.28-.56-1-1.2-1.12a.56.56,0,0,0-1,.35c-.24.78-.3,1.9.65,2.22.5.38,1.2.14,1.71.38.35.62,1.17,1.37,1.89,1,.24-.38.82-.5.94,0,.55.88,1.77.43,2.63.57.77,0,1.71.27,2.16-.55s1.24.36,1.94,0c.78-.12,1.21-1.12,2.08-.87a2.57,2.57,0,0,0,1.67-.58c-.19-1,0-2.1-.44-3a.3.3,0,0,0-.24-.08ZM43.32,79.44h-.19c-.65.15-.56,1.09-.73,1.6-.06.91,1,1.32,1.73,1.6a9.36,9.36,0,0,0,2.59,1.43c.85.31,1.67,1,2.59.94.76-.7.74-1.91.84-2.88-.06-.88-1.54-.81-1.85-.12-.49.5-1-.41-1.4-.64a1.59,1.59,0,0,0-1.89-.3c-.71-.3-.78-1.57-1.69-1.62Zm15.4.5A1.27,1.27,0,0,0,57.42,81c-.18.32-.6,1-1,.81-.22-.39-.36-1.3-1-1-.87.19-.95,1.25-1.58,1.69-.76-.25-1.16-1.29-2.11-1.13s-.62,1.18-.4,1.73.37,1.69,1.18,1.7c.66,0,1.12-.51,1.55-.89.86.7,2,.11,2.81-.41a1.78,1.78,0,0,1,1.44-.74c.38-.26.9-.27,1.2-.6A5.18,5.18,0,0,0,59,80a.4.4,0,0,0-.24,0Zm-16.63,2.4c-.54.76-1,1.6-1.44,2.42.73.44,1.48.86,2.21,1.3a16,16,0,0,0,5.74,2.31,20.58,20.58,0,0,0,5.76-.07,21.6,21.6,0,0,0,4.43-1,12.5,12.5,0,0,0,2.43-1.13l.57-.41a10.77,10.77,0,0,1-1.68-2.54c-.52-.78-1.41.1-1.89.5S57.61,85,57,84.85a1.8,1.8,0,0,0-2,.24c-.15.52-.65.92-1.14.48a1.1,1.1,0,0,0-1.53.26,1,1,0,0,0-.18.41,1.78,1.78,0,0,1-2.27,1.07l-.14-.06c-.63-.44-.25-1.28-.62-1.8a2.71,2.71,0,0,0-2.42.06c-.57-.13-.46-1-1-1.16-.53-.49-1.32-.26-1.86-.61a3.45,3.45,0,0,0-1.64-1.4Z"/><path id="Path_40256" data-name="Path 40256" class="cls-3" d="M52.31,62.64c0,.88-2.26,2.92-4.25,2.92s-3.71-2-3.71-2.88c0-.37-.47-1.44.16-1.72.87-.37,3.07.33,4.2.1,3.4-.71,3.6.71,3.6,1.59Z"/><path id="Path_40257" data-name="Path 40257" class="cls-6" d="M35.93,43.87c-.38,0-.75,0-1.13,0a4.19,4.19,0,0,0-2,1.17,14.53,14.53,0,0,0,1.09,4.76,5,5,0,0,0,1.93,2.57,5.28,5.28,0,0,0,4.24.83,7.63,7.63,0,0,0,4.26-4.7,7.05,7.05,0,0,0,.06-2.82c-.26-.71-1.13-.89-1.78-1.08a21.89,21.89,0,0,0-5.58-.71l-1.12,0Zm21,1.07c-.8,0-1.57.33-2.37.33a6.49,6.49,0,0,1-1.1.21c-.83.35-1.95.33-2.5,1.16a2.39,2.39,0,0,0,0,2.29c.68,1.3,1.23,2.78,2.49,3.65a8.1,8.1,0,0,0,2.55,1,3.32,3.32,0,0,0,3.12-.85,13.25,13.25,0,0,0,3.11-5.19,1.12,1.12,0,0,0-.51-1.45c-1-.86-2.33-.87-3.54-1A9,9,0,0,0,57,44.94ZM37.5,45l0,0a6.7,6.7,0,0,0-1,1.67,8,8,0,0,1-.9,1.26c-.26.19,0-.32,0-.44a7.53,7.53,0,0,1,1.28-2A2.74,2.74,0,0,1,37.5,45Zm-2.17.38a2.94,2.94,0,0,1-1.1,1.34c.26-.46.46-1,1-1.31l.15,0Zm4.16.15c.35.15.07.48-.05.7a10.1,10.1,0,0,1-1.06,1.4c-.24.14-.28.48-.52.65s-.36.74-.71,1-.55.71-.8,1.08c0,.2-.26.46-.42.44a23.2,23.2,0,0,1,1.76-2.91c.67-.71,1.13-1.6,1.75-2.34l.05,0Zm2.08.61c.19.1-.1.38-.14.51a7,7,0,0,1-1.09,1.4c-.2.23-.26.66-.62.66-.19.18-.11.5-.28.71a4.16,4.16,0,0,0-.44.73c-.13.2-.15.5-.46.5-.25.15-.33.07-.2-.2a19,19,0,0,1,2.89-4.1.47.47,0,0,1,.34-.22Zm14,.22h0c.27.09,0,.25,0,.42-.34.43-.38,1-.76,1.45s-.52.75-.77,1.08c-.23,0-.34.22-.52.31s.09-.37.14-.48a16.46,16.46,0,0,1,1.9-2.78Zm2.69.2a11.74,11.74,0,0,1-1,1.63c-.27.12-.35.48-.58.66-.13.4-.7.4-.76.84a5,5,0,0,1-1.44,1.64,18.39,18.39,0,0,1,1.76-2.7,14.14,14.14,0,0,1,1.69-2,.84.84,0,0,1,.31,0Zm1.79.06c.11.08-.18.25-.19.38s-.4.5-.52.76c-.34.11-.33.57-.59.79a15.51,15.51,0,0,1-1.28,1.84,14.32,14.32,0,0,0-1,1.41c-.14.08-.49.09-.27-.16a44.17,44.17,0,0,1,3-4.18c.28-.29.53-.69.91-.84Zm-6.75.25a2.55,2.55,0,0,0-.46.82c-.23.12-.32.54-.53.61-.1-.56.51-.92.73-1.38a.75.75,0,0,1,.26-.05ZM42.21,48c.09.12-.19.28-.22.43a9.23,9.23,0,0,1-1.4,1.78,7.42,7.42,0,0,1,1.25-1.88A1.42,1.42,0,0,1,42.2,48Zm18.5.66c.27.1-.09.46-.14.64a12.26,12.26,0,0,1-.76,1c-.11.1-.78.43-.54.11.44-.5.71-1.11,1.15-1.61a.44.44,0,0,1,.29-.16Z"/><path id="Path_40258" data-name="Path 40258" class="cls-3" d="M49.78,22.46a56.27,56.27,0,0,0-14.3,2.18c-2.09.71-4.61,1.83-5.13,4.21,0,.54-.43,1.38.08,1.76.84-.35,1.6-.92,2.48-1.2a43.38,43.38,0,0,1,7.44-2.5c.23,0,.94-.14,1,0-2.35,1.22-5,1.74-7.42,2.78-1.59.72-3.49,1.25-4.57,2.71-.32.52-.11,1.7.63,1.59a22.8,22.8,0,0,1,5.75-2.45c.44-.1.34.2,0,.32-1.93,1.25-4.55,1.39-6,3.34a2.87,2.87,0,0,0,0,2.43c.77-.3,1.35-1.12,2.18-1.43a69.05,69.05,0,0,1,7.58-2.7c3.7-.82,7.5-.38,11.25-.37,4.32.19,8.87.12,12.78,2.2a45.37,45.37,0,0,1,7.94,4.83c.4.38.81-.05.71-.52a4.62,4.62,0,0,0-1.93-4.24c-3.18-2.76-7.5-3.5-11.33-4.86-.27-.13-.8-.35-.8-.65a51.35,51.35,0,0,1,7.49,2.38A40.19,40.19,0,0,1,71,34.93c.62-.23.24-1.17.22-1.67a4,4,0,0,0-2.18-2.94,56,56,0,0,0-6.49-3.44,18.27,18.27,0,0,1,5.91,2.32c.35.13,1.27.87,1.35.12a8.73,8.73,0,0,0-2.92-3A43.34,43.34,0,0,0,61.56,24a46.43,46.43,0,0,0-11.79-1.5Z"/><path id="Path_40259" data-name="Path 40259" class="cls-3" d="M50.85,83.81c-.46.87-1.17,2-.72,3,.55.68,1.39-.26,1.46-.87A3.92,3.92,0,0,0,51,83.79l-.13,0Z"/><path id="Path_40260" data-name="Path 40260" class="cls-7" d="M44,14.46a14.55,14.55,0,0,0-1.62.15,13.35,13.35,0,0,0-7.24,3.31A12,12,0,0,0,31.84,23a10.1,10.1,0,0,0-.33,2.79,6.83,6.83,0,0,0-1.3,1.33.75.75,0,0,0-.08.44.48.48,0,0,1-.06.37,5.16,5.16,0,0,0-.23,1.17,8.87,8.87,0,0,1-.41,2.23,2.17,2.17,0,0,0-.6,1.73c0,.43,0,1.24,0,1.78A6.89,6.89,0,0,0,29,36.57a6,6,0,0,1,0,2.66c-.05.15-.2.7-.34,1.19,0,.2.1.37.13.51a.4.4,0,0,0-.15,0h-.21c.11.33-.1.82-.84,1.91-.5.74-.73,1.18-.61,1.17s0,.12-.1.28a2.11,2.11,0,0,0-.17.82c0,.29-.06.54-.13.55-1.71,2-2.12,11.38-1.44,15.22a2.81,2.81,0,0,0,.41,1.22,2.37,2.37,0,0,1,.32.85,15.71,15.71,0,0,0,.66,2.32c.45,1.12-.07,1.14-.06,2.63a31.33,31.33,0,0,0-.23,11.82c-4.1,1.69-7.64,3.38-11.56,4.78l.73.67c3-1.27,6.62-2.92,11-4.68.2,1,.45,1.88.74,2.8a16.68,16.68,0,0,0,3.45,6.4,7.8,7.8,0,0,1,.58.57,4.58,4.58,0,0,1,.94,1.41,1.11,1.11,0,0,0,.24.5,3,3,0,0,1,.42.81c.23.65.64,1.07.82.82a4,4,0,0,0,.09-1.29,10.21,10.21,0,0,1,.1-1.83c.11-.58.2-.73.52-.94s.38-.35.37-.48.14-.37.69-.71c0-.17-.05-.34-.08-.5a7.28,7.28,0,0,0,1.1-.69c.16-.12.27-.18.27-.13s.16,0,.35-.09.5-.41.86-1.09c.51-.94.55-1.07,1.43-5A28.62,28.62,0,0,0,40,71c-.05-.26-.14-.73-.19-1a3,3,0,0,0-.18-.71,1.68,1.68,0,0,1-.16-.54c0-.23-.08-.57-.1-.76a1.33,1.33,0,0,0-.18-.54,2.78,2.78,0,0,1-.25-.85,2.28,2.28,0,0,0-.27-.81.42.42,0,0,1-.14-.27,10.05,10.05,0,0,0-.86-2,.29.29,0,0,1-.07-.25A6.43,6.43,0,0,0,37,61.94a7.11,7.11,0,0,1-.52-1.35,7.91,7.91,0,0,0-.6-1.69,6.24,6.24,0,0,1-.4-.92A15.51,15.51,0,0,0,35,56.5c-.27-.52-.71-1.44-.78-1.61a2.16,2.16,0,0,0-.2-.36,2.85,2.85,0,0,1-.26-.59,6.39,6.39,0,0,0-.4-.89c-.18-.34-.35-.68-.5-1a1.39,1.39,0,0,0-.35-.57c-.07,0-.11-.15-.1-.34a.7.7,0,0,0-.16-.48.58.58,0,0,1-.15-.36A15.16,15.16,0,0,1,32,40.33a4.85,4.85,0,0,0,.16-.63.38.38,0,0,1,.11-.23.9.9,0,0,0,.18-.44,2.73,2.73,0,0,1,.19-.57A2.36,2.36,0,0,0,33,37c-.18-.23.36-.83.72-.82.15,0,.25,0,.23.1s-.26.47-.51.93a8.26,8.26,0,0,0-1,2.57c0,.25-.15.72-.23,1.06A15.48,15.48,0,0,0,32,44.11c0,.16.07.5.09.76a15.81,15.81,0,0,0,.55,3A33.72,33.72,0,0,0,33.87,52a4.2,4.2,0,0,1,.26.92,13.09,13.09,0,0,0,1,2.92A35.92,35.92,0,0,0,36.94,59c.22.31,1.12,1.87,1.75,3,.22.38.56,1,.78,1.49l.63,1.29a24.33,24.33,0,0,1,1.56,3.91,33.72,33.72,0,0,1,.74,6.71c0,.61,0,1.31,0,1.56a17.52,17.52,0,0,1-1.26,5.63,14.11,14.11,0,0,1-1.46,2.67,6.55,6.55,0,0,0-.52.66,3.66,3.66,0,0,1-1.55,1.31,3.81,3.81,0,0,0-.57.29c-.14.14-.14.18,0,.33.4.33.83.24,1.48-.31a9.2,9.2,0,0,0,1.83-2.11c0-.09.06-.14.11-.14s.05-.06.08-.08l.69.4c.93.51,2,1.16,2.5,1.45a9.77,9.77,0,0,0,.88.53,5.62,5.62,0,0,1,1.26.47,6.91,6.91,0,0,0,1.61.53,6.18,6.18,0,0,0,.62.12,1.16,1.16,0,0,1,.44.12c.08.07.14,0,.14,0s0-.11.09,0a3.68,3.68,0,0,0,1.65.11,4,4,0,0,1,1,.08,3.21,3.21,0,0,0,1.31,0,1.6,1.6,0,0,1,.43-.11,4.58,4.58,0,0,0,1.33-.17.62.62,0,0,1,.42-.06.7.7,0,0,0,.43-.05,3.12,3.12,0,0,1,.74-.14,5.79,5.79,0,0,0,1.23-.29,9.67,9.67,0,0,1,1.18-.35,6.91,6.91,0,0,0,.77-.25,4.78,4.78,0,0,1,.67-.22,1.68,1.68,0,0,0,.56-.34,1,1,0,0,1,.42-.26,2.48,2.48,0,0,0,.89-.48l.15-.1a12.68,12.68,0,0,0,1.42,1.2c.61.46,1.3.93,1.51,1.06.73.44.9.59.89.83s.13.33.36.48.4.37.52,1a10.05,10.05,0,0,1,.1,1.82,4.3,4.3,0,0,0,.08,1.29c.18.25.6-.17.82-.82a3.12,3.12,0,0,1,.42-.81,1.13,1.13,0,0,0,.24-.49,4.34,4.34,0,0,1,.94-1.42c.07-.08.33-.33.58-.56a16.39,16.39,0,0,0,3.44-6.4,25.39,25.39,0,0,0,.84-3.19c4.19,1.45,9.07,3.11,11.58,4,.19-.19.36-.38.54-.57l-.22-.13c-2.43-.7-7.4-2.46-11.76-4A31.66,31.66,0,0,0,74,67.91c0-1.48-.52-1.51-.08-2.63A12.55,12.55,0,0,0,74.61,63a2.37,2.37,0,0,1,.32-.85,2.81,2.81,0,0,0,.41-1.22c.69-3.84.27-13.18-1.45-15.22,0,0-.11-.25-.12-.55a2.11,2.11,0,0,0-.17-.82c-.09-.16-.14-.28-.09-.28s-.11-.42-.62-1.18c-.73-1.09-.94-1.57-.83-1.9,0-.16.11-.23.14-.15a.3.3,0,0,0,.27.16c.34,0,.5-.49.55-1.83.06-1.16,0-1.86-.27-1.88-.06,0-.1-.1-.1-.21a2.82,2.82,0,0,0-.37-.92A1.7,1.7,0,0,1,72,34.6c.18-1.1.18-1.2-.08-1.79a1.44,1.44,0,0,1-.15-.61.13.13,0,0,0,0-.17.31.31,0,0,1-.1-.27c0-.18-.37-.64-1.16-1.46a1.42,1.42,0,0,1-.29-.86,2.75,2.75,0,0,0-.13-.75,1.84,1.84,0,0,1-.15-.47,7.43,7.43,0,0,0-1.75-2.08.79.79,0,0,1-.26-.74c0-.26,0-.47-.06-.47a1.28,1.28,0,0,1-.09-.61,1.38,1.38,0,0,0-.08-.67.31.31,0,0,1-.1-.25A10.35,10.35,0,0,0,59.68,16c-.6-.12-1.32-.29-1.6-.36a14.23,14.23,0,0,0-4.17-.16,15.45,15.45,0,0,0-3,.49A17.67,17.67,0,0,0,44,14.47Zm.18.7a16.86,16.86,0,0,1,3.86.66c1.88.38,2.73.74,3.34,1.44.43.5.5.54.67.4s.16-.22,0-.63-.14-.47,0-.58a27.53,27.53,0,0,1,2.75-.33,23,23,0,0,1,3,.31,1.72,1.72,0,0,0,.5.16c4.55,1.1,7.51,3.56,8.72,7.65.18.64.27,1.34.16,1.34s-.51-.22-1.06-.48a31,31,0,0,0-2-3.13,17.65,17.65,0,0,0-3.72-3.39,1.35,1.35,0,0,0-.51-.31.82.82,0,0,1-.38-.2,7,7,0,0,0-2.75-.52c-1.44-.07-2.44.14-2.47.52s.24.39,1.07.28a9.37,9.37,0,0,1,3.2.38,6.43,6.43,0,0,1,1.91,1,13.42,13.42,0,0,1,3.42,3.3c.37.47.44,1.2.07.79-.08-.08-.8-.35-.91-.42C59.9,20.8,56.12,18,52,19l-.9.21a1.48,1.48,0,0,0-.59.26c-.27.2-.28.22-.1.42s.24.2,1.05,0l1.09-.27a16.49,16.49,0,0,1,1.86,0,14.24,14.24,0,0,1,7,3.52c-.85-.2-1.76-.4-2.7-.56a9.47,9.47,0,0,0-.92-.64A9,9,0,0,0,56,21.21c-.32-.11-.64-.21-1-.3a11.61,11.61,0,0,0-3-.27c-2.61.05-1,.9,1.56.8a9.37,9.37,0,0,1,3,.79l.08,0a49.12,49.12,0,0,0-8-.48l-.87,0a7.84,7.84,0,0,0-.77-.27,8.84,8.84,0,0,0-1.91-.3,8.43,8.43,0,0,0-1-.06,11.54,11.54,0,0,0-3,.43,9.47,9.47,0,0,0-4.08,1.91c-.4.08-.8.18-1.19.28s-.32.05,0-.53c.11-.26.28-.45.37-.45a.17.17,0,0,0,.17-.16.4.4,0,0,1,.24-.28.77.77,0,0,0,.31-.31,9.77,9.77,0,0,1,4.17-1.95,1.12,1.12,0,0,0,.4-.1,6.19,6.19,0,0,1,1.28-.19,10.56,10.56,0,0,1,4.52.71c.29.11.27-.21,0-.56-.51-.61-2.09-1-3.92-1a10.14,10.14,0,0,0-3.14.53c-2,.54-5,1.9-5.43,3.91-.1.57-.34.89-.66.88s-.25-.44-.06-.66a1.23,1.23,0,0,0,.17-.32c.49-2,5.13-6,8.62-6a.58.58,0,0,0,.43,0,14.16,14.16,0,0,1,4.4.31,3.63,3.63,0,0,1,1.5.67,2.12,2.12,0,0,0,.64.36c.27.08.3.07.25-.18-.14-.69-1.26-1.38-2.68-1.62a7,7,0,0,1-1.12-.27,19.21,19.21,0,0,0-3-.13l-.86.19L41.19,17a6.28,6.28,0,0,0-.87.27c-2.85,1.14-5.79,3-7.07,6a3.87,3.87,0,0,0-.4,1.41c0,.28,0,.34-.33.46a2.14,2.14,0,0,0-.52.32A9.83,9.83,0,0,0,32.78,23a.79.79,0,0,1,.13-.33c1.78-3.64,3.74-6.12,7.92-7l.6-.13c.26,0,.57-.12.7-.13l1.11-.18a5.37,5.37,0,0,1,.9-.07ZM44.41,22a7.77,7.77,0,0,1,1,.08,57.75,57.75,0,0,0-5.79.95A8.92,8.92,0,0,1,42.84,22a7.54,7.54,0,0,1,1.57-.1Zm5.76.61a53.49,53.49,0,0,1,10.39,1.21,4.56,4.56,0,0,1,1.6.52,6.83,6.83,0,0,0,1.19.57,1.4,1.4,0,0,1,.29.09c.09.05.45.18.8.31a4,4,0,0,1,.73.34.84.84,0,0,0,.46.13.63.63,0,0,1,.51.25.57.57,0,0,0,.33.26,6.71,6.71,0,0,1,1.14.7,5.59,5.59,0,0,0,.74.63,3.52,3.52,0,0,1,.78.76,4.46,4.46,0,0,0,.44.63c.18.23.23.4.16.57s-.08.23-.67-.11c-.32-.19-.71-.45-.86-.56A41.91,41.91,0,0,0,64,27c-.78-.2-3.82-.88.24.76a19.5,19.5,0,0,1,3.41,1.8,1.48,1.48,0,0,0,.44.25,2.38,2.38,0,0,1,.66.37,10.23,10.23,0,0,0,1,.62,2.32,2.32,0,0,1,.86.95,4,4,0,0,1,.7,2.26c0,.92,0,1-.63.56a4.47,4.47,0,0,0-1.32-.68c-.11,0-.2-.06-.2-.1C66.11,32,62.39,31,59,29.91c-2.18-.66-.34.75.3.95,2.07.64,8.75,2,11.66,5.26a3.88,3.88,0,0,1,1.25,3v.36c0,.75-.17.87-.63.61a3.12,3.12,0,0,1-.58-.43,11.4,11.4,0,0,0-1.07-.75,11.94,11.94,0,0,1-1.23-.88A30.33,30.33,0,0,0,64.6,35.7c-.41-.17-.84-.37-1-.43s-.5-.25-.85-.4-.73-.34-.85-.4-.83-.3-1.57-.54a13.48,13.48,0,0,0-3.67-.6c-1.29-.11-2.74-.25-3.22-.31-6.37.37-10.85-1.22-16.55,1.22-.1,0-.55.21-1,.37s-1,.32-1.17.4l-.94.3a8.7,8.7,0,0,0-3.18,1.61l-.8.68-.1-.32a5.39,5.39,0,0,1-.13-1.06A1.26,1.26,0,0,1,30,35a5.12,5.12,0,0,1,2.5-1.57,13.56,13.56,0,0,0,1.7-.66c3-1.22,2.24-1.63.46-1.09A28.51,28.51,0,0,0,31.61,33a2.12,2.12,0,0,1-.61.22c-.06,0-.22.1-.35.23a2.11,2.11,0,0,1-1,.52c-.06,0-.16-.18-.23-.39a1.32,1.32,0,0,1,.44-1.74c3-2.22,8.56-3.56,10.3-4.2s1.86-1.25,0-.9-8.34,2.7-9.36,3.57a.41.41,0,0,1-.3.1c-.2,0-.22-.1-.19-.72a3,3,0,0,1,.16-.89,2.15,2.15,0,0,0,.17-.65c.09-.63.92-1.48,2.11-2.19a2.83,2.83,0,0,0,.69-.5s.22-.15.5-.22a2.57,2.57,0,0,0,.69-.28,1.72,1.72,0,0,1,.59-.2,2.74,2.74,0,0,0,.73-.2.89.89,0,0,1,.36-.11s.12,0,.21-.1a1.6,1.6,0,0,1,.61-.18,61.51,61.51,0,0,1,13-1.65Zm-13,2.09h0Zm11.57,8.88a48.49,48.49,0,0,1,5,.23l2.48.25c1.89-.13,3.44.65,4.93,1.07a1.29,1.29,0,0,1,.63.22.39.39,0,0,0,.28.11.65.65,0,0,1,.36.22,30.2,30.2,0,0,1,2.29,8.22,18.59,18.59,0,0,1,.18,2.1c0,.41-.06.49-.36.58a1.38,1.38,0,0,1-1.3-.42.35.35,0,0,0-.28-.2,1.55,1.55,0,0,1-.55-.33,6.44,6.44,0,0,0-1.62-.9,5,5,0,0,1-.79-.14A17.22,17.22,0,0,0,53,45c-.35.1-.88.24-1.17.3a2,2,0,0,0-1.53,1.13c-.2.45-.24.49-.52.41-1.45-.4-3.82-.38-4.19,0-.22.22-.35.07-.33-.38,0-.21,0-.43-.08-.46a.34.34,0,0,1-.1-.3c0-.31-.6-1-1.12-1.34a6.88,6.88,0,0,0-2.67-.67c-1.25-.13-1.54-.18-1.6-.25a37.55,37.55,0,0,0-4.24-.15,6.06,6.06,0,0,0-1,.15,1.29,1.29,0,0,1-.51.07,1,1,0,0,0-.55.19c-.44.28-.53.28-.42,0a.5.5,0,0,0,0-.36,2,2,0,0,1,0-1.15.3.3,0,0,0,.05-.24,10.84,10.84,0,0,1,.28-1.61c.18-.84.33-1.6.34-1.68a.13.13,0,0,1,.11-.14c.05,0,.1-.08.11-.17a4.58,4.58,0,0,1,.66-1.54.2.2,0,0,0,.13-.15,1.89,1.89,0,0,1,.7-.94,3.82,3.82,0,0,1,.92-.36,6.86,6.86,0,0,0,1.18-.41,8.66,8.66,0,0,1,1.47-.47c.34-.08.68-.17,1-.28a69.23,69.23,0,0,1,8.87-.64Zm15,2.68h.09l.18,0a14,14,0,0,1,2,1,1,1,0,0,1,.1.48,6.86,6.86,0,0,0,.31,1.34,13.89,13.89,0,0,1,.45,4c0,.38,0,1,.1,1.34a35.84,35.84,0,0,1,0,5,17.71,17.71,0,0,1-.63,4.28l-.51,1.9c-.17.63-.37,1.29-.43,1.48s-.23.65-.35,1c-.24.75-.85,2.37-1,2.73-.06.14-.23.62-.39,1.09s-.37,1-.46,1.2a35.47,35.47,0,0,0-1.18,3.6c-.1.34-.25.82-.34,1.08a23.06,23.06,0,0,0-1,7c0,.3.09.83.11,1.16a15.47,15.47,0,0,0,.8,3.55,1.92,1.92,0,0,1,.15.48,33.23,33.23,0,0,0,2.08,4.93.49.49,0,0,1,.16.29,4.4,4.4,0,0,0,.75,1c.64.74.77,1,.75,1.27s-.06.4-.12.39a6.57,6.57,0,0,1-1-.69l-1.1-.84a7.9,7.9,0,0,1-2.3-3.09,7.61,7.61,0,0,1-.78-1.69,21.59,21.59,0,0,1-1-5.63,3.35,3.35,0,0,0-.08-.54,5.61,5.61,0,0,1-.08-1.08c.1-2.46-.18-3.37.57-6a1.6,1.6,0,0,0,.1-.72c0-.42.05-.63.17-.73a.79.79,0,0,0,.2-.52c0-.22.07-.39.13-.38s.17-.22.33-.92a8,8,0,0,1,.52-1.25l.22-.51c.05-.13.17-.37.25-.54a2,2,0,0,0,.16-.58,1.43,1.43,0,0,1,.26-.59,1.39,1.39,0,0,0,.26-.58,1.46,1.46,0,0,1,.21-.57,1.64,1.64,0,0,0,.2-.65c0-.32.37-1,.51-1s.09-.13.11-.29a1.32,1.32,0,0,1,.13-.44.9.9,0,0,0,.13-.28,3.14,3.14,0,0,1,.27-.62,8.38,8.38,0,0,0,.42-.93,3.68,3.68,0,0,1,.26-.57,5.17,5.17,0,0,0,.34-1.34c0-.11.07-.2.13-.2s.07,0,0-.09a1.46,1.46,0,0,1,.07-.55,9.66,9.66,0,0,0,.51-2.25.36.36,0,0,1,.07-.3,5.37,5.37,0,0,0,.19-2.11c0-.42,0-.83,0-.91s0-.12-.1-.1-.07-.06,0-.28a2,2,0,0,0,.08-.73c0-.2,0-.72,0-1.16a3.69,3.69,0,0,0-.13-1,1.71,1.71,0,0,1-.14-.67c-.19-3.17-1-4.46-1.7-7.39,0-.15-.06-.22,0-.23Zm-32,1c.11,0,.17,0,.18.16a.51.51,0,0,1,0,.17,5.75,5.75,0,0,1-.35.86,18.39,18.39,0,0,0-1.43,6.82,68,68,0,0,0,2.25,12.09C33,59.21,34,61.45,34.63,63c.09.27.21.61.34.94a11.36,11.36,0,0,1,.15,4.27c0,.2,0,.25-.1.15a3.18,3.18,0,0,1-.11-.92c0-1.07-.56-2.63-2-6-.2-.44-1.47-3-1.85-3.73a15.52,15.52,0,0,1-1.33-3.34c-.27-.92-.6-2-.74-2.37a15.2,15.2,0,0,1-.34-2.86,19.12,19.12,0,0,1,.05-3.21c.07-.55.16-1.2.18-1.46s.08-.55.09-.64c.08-.49.17-1.74.2-2.36.35-.2.69-2.56,1.79-3.66a2.25,2.25,0,0,1,.88-.61Zm35.07.6a3.16,3.16,0,0,1,1.3.89.77.77,0,0,0,.31.22.84.84,0,0,1,.55.7,1.24,1.24,0,0,0,.1.5A16.11,16.11,0,0,1,69.78,43c.12,1.2.24,3,.23,3.72a28.56,28.56,0,0,1-1.6,6.94c-.21.63-.5,1.45-.61,1.83-.34,1.1-.83,2.52-1.42,4-.29.77-.63,1.74-.74,2.16s-.3,1.19-.43,1.69a7.55,7.55,0,0,1-.36,1.14,1.6,1.6,0,0,0-.2.51c0,.16-.1.43-.14.58-.14.57-.2.88-.4,2.07-.06.43-.14.86-.24,1.28a14.85,14.85,0,0,0-.44,2.89c-.16,2.5,0,8.37,2.13,11.52l0,.11a2.09,2.09,0,0,1,.28.24l.12.15a3.08,3.08,0,0,1-.27,1.69c-.06.06-.22-.06-.4-.28a1.65,1.65,0,0,0-.48-.43.48.48,0,0,1-.19-.44,1.19,1.19,0,0,0-.21-.63,4.79,4.79,0,0,1-.49-1c-.44-1.24-1-2.33-1.4-3.61-.08-.32-.17-.63-.28-.94A9.39,9.39,0,0,1,61.75,76a3.37,3.37,0,0,0-.13-1.26,28.07,28.07,0,0,1,.28-4.39c.06-.16.06-.27,0-.3s-.1-.07,0-.07.3-.69.37-1.39a.57.57,0,0,1,.13-.34,1.16,1.16,0,0,0,.15-.51,1.53,1.53,0,0,1,.13-.52.84.84,0,0,0,.17-.4,4.48,4.48,0,0,1,.2-.62c.07-.16.23-.62.36-1s.28-.86.35-1,.08-.24,0-.2a3.08,3.08,0,0,1,.35-1.06c.25-.6.61-1.52.8-2s.48-1.26.65-1.67a3.34,3.34,0,0,0,.28-1,.76.76,0,0,1,.14-.43,49.63,49.63,0,0,0,1.41-5.08c0-.23.15-.83.25-1.34a35,35,0,0,0,0-7,4.06,4.06,0,0,1-.13-1.2,3.1,3.1,0,0,0-.11-.81,5.36,5.36,0,0,1,0-1.2A6.16,6.16,0,0,0,67,39c-.28-1-.31-1.19-.17-1.21ZM70,39.89s.18.14.63.58a1,1,0,0,0,.5.3c.18,0,.27.12.24.26s.12,2.17.2,2.77c0,.1.06.38.09.64s.13.91.2,1.46a20.24,20.24,0,0,1,0,3.21A13.73,13.73,0,0,1,71.5,52c-.12.38-.45,1.45-.72,2.37a15.09,15.09,0,0,1-1.35,3.34c-.36.69-1.64,3.29-1.83,3.73-1.47,3.39-2,5-2,6a2.88,2.88,0,0,1-.13.92c-.06.1-.1.05-.1-.15s0-.41,0-.57A25.94,25.94,0,0,1,66,63.42c.16-.63.32-1.3.37-1.49a2.69,2.69,0,0,1,.17-.57A33,33,0,0,0,68,57.27a1.18,1.18,0,0,1,.18-.45,1.68,1.68,0,0,0,.2-.48c.1-.4.48-1.52,1-2.91.19-.54.37-1.1.41-1.25s.27-1.09.51-2.06a13.4,13.4,0,0,0,.45-5.27,12,12,0,0,1-.11-1.46A11.76,11.76,0,0,0,70,40.06c0-.1,0-.16,0-.17Zm-31,.28a2.1,2.1,0,0,0-.7.08,3.91,3.91,0,0,1-.68.14,5.21,5.21,0,0,0-1.17.2,1,1,0,0,1-.34.09.76.76,0,0,0-.4.15.45.45,0,0,0-.14.36c0,.19.09.24.3.22a.44.44,0,0,1,.35.1c0,.09.15.07.31-.07a1.74,1.74,0,0,1,.76-.27,3.62,3.62,0,0,0,.85-.2,5,5,0,0,1,2.73.45c.13.07.23.1.23.07s.06,0,.14,0a1.12,1.12,0,0,0,.4.14,6.59,6.59,0,0,1,1.78,1.07c.39.29.49.32.67.2a.25.25,0,0,0,.14-.16.24.24,0,0,0,0-.2,1.79,1.79,0,0,0-.63-.65,1.78,1.78,0,0,1-.36-.25,1.62,1.62,0,0,0-.53-.29A5.1,5.1,0,0,1,41.8,41,6.8,6.8,0,0,0,39,40.18Zm17.55,1a12.24,12.24,0,0,0-1.6.07,7.06,7.06,0,0,0-3.33,1.28c-.58.41-.68.77-.19.71A1.93,1.93,0,0,0,52,43a7,7,0,0,1,1.71-.73.52.52,0,0,0,.34-.14A2.56,2.56,0,0,1,55.17,42a10.54,10.54,0,0,0,1.38-.09,2.16,2.16,0,0,1,.76,0,2.14,2.14,0,0,0,.62.06.48.48,0,0,1,.41.1.7.7,0,0,0,.41.18,3.86,3.86,0,0,1,1,.46c.65.42.79.47.8.29s.07-.08.16,0a.18.18,0,0,0,.25-.07.14.14,0,0,0,0-.06.29.29,0,0,0-.07-.23,7.47,7.47,0,0,0-2.14-1.14,8.19,8.19,0,0,0-2.2-.27ZM35.63,44l2.31.07a14.31,14.31,0,0,1,2.77.29c.6.13,1.3.28,1.55.32a4.22,4.22,0,0,1,1.5.5.81.81,0,0,1,.56.74,5.7,5.7,0,0,1,0,1.17c0,.17,0,.33,0,.49a4,4,0,0,1-.77,2.34,7,7,0,0,1-2.72,2.8,4,4,0,0,1-3.27.31,5.61,5.61,0,0,1-1.86-.89l-.63-.59a4.61,4.61,0,0,1-1-1.67,9,9,0,0,1-.46-1.22s0-.16-.13-.43a2.18,2.18,0,0,1-.19-.76.52.52,0,0,0-.08-.36c-.06,0-.1-.23-.09-.43a3.41,3.41,0,0,0-.11-.9c-.21-.86,0-1.09,1.58-1.67a3.34,3.34,0,0,1,1-.12Zm-7.85,0c.08,0,.06.2-.08,1.55a2.83,2.83,0,0,0,0,.77.45.45,0,0,1-.05.34,3.88,3.88,0,0,0-.18,1c0,.4-.12,1-.19,1.44a5.52,5.52,0,0,0-.08,1.22,2.32,2.32,0,0,1-.07.87,16.35,16.35,0,0,0,.34,5.79c.07.25.22,1.1.33,1.9A31.68,31.68,0,0,0,28.51,63c.11.37.3,1,.42,1.48.23.81.51,1.67,1.05,3.26.17.47.35,1.08.42,1.37,1,4.14,1.08,4.76,1,7.2a2.15,2.15,0,0,1-.13.61,1.23,1.23,0,0,0-.11.53A3.82,3.82,0,0,1,30.61,79a8.13,8.13,0,0,1,.14-1.09,12.1,12.1,0,0,0-.5-5.6,27.6,27.6,0,0,0-1-2.62,6.9,6.9,0,0,1-.33-.8,8,8,0,0,0-.38-.84A36.84,36.84,0,0,1,27,64c-.6-1.88-.67-2.12-.73-2.4s-.13-.56-.22-.89c-1-4.56-.3-9.08.7-13.53a7.62,7.62,0,0,1,.41-1.25.27.27,0,0,0,.06-.24,1,1,0,0,1,.14-.4,2.08,2.08,0,0,0,.23-.73,1,1,0,0,1,.18-.52l0,0ZM72.7,44l0,0a1.12,1.12,0,0,1,.18.52,2.35,2.35,0,0,0,.22.74.68.68,0,0,1,.13.4.39.39,0,0,0,.07.23,9.31,9.31,0,0,1,.42,1.26c1,4.44,1.72,9,.68,13.52-.08.33-.18.73-.21.89s-.13.52-.72,2.4a36.9,36.9,0,0,1-1.58,4,8.13,8.13,0,0,0-.38.85,6.13,6.13,0,0,1-.33.8c-.37.85-.7,1.73-1,2.62a12.22,12.22,0,0,0-.5,5.6A6.62,6.62,0,0,1,69.86,79a3.84,3.84,0,0,1-.55-1.49A1.41,1.41,0,0,0,69.2,77a2.09,2.09,0,0,1-.14-.61c-.06-2.43,0-3.06,1-7.2.07-.29.26-.9.42-1.37.54-1.59.82-2.45,1-3.25L72,63a33.05,33.05,0,0,0,.72-4.21c.12-.79.26-1.64.33-1.9a16.11,16.11,0,0,0,.34-5.79,2.32,2.32,0,0,1-.07-.87A6.2,6.2,0,0,0,73.23,49c-.07-.39-.16-1-.19-1.43a4,4,0,0,0-.19-1,.48.48,0,0,1,0-.33,2.91,2.91,0,0,0,0-.78c-.15-1.35-.17-1.57-.09-1.54Zm-35.16.85c-.17,0-.84.63-1.15,1.1a6.39,6.39,0,0,1-.65.92,1.82,1.82,0,0,0-.27.54c-.2.57-.2.81,0,.81s.37-.12.64-.6a1.93,1.93,0,0,1,.41-.54,1.08,1.08,0,0,0,.25-.54,1.58,1.58,0,0,1,.5-.85,1.27,1.27,0,0,0,.43-.66c0-.1,0-.18-.12-.19ZM57,45.08q1.2.06,2.4.24a3.38,3.38,0,0,1,2.13.78.75.75,0,0,0,.35.22c.19,0,.35.42.33.76a.35.35,0,0,1,0,.14c0,.18-.11.43-.14.56a20.57,20.57,0,0,1-1.16,2.47,7.48,7.48,0,0,1-.71,1.14c-.2.19-.55.59-.81.89a2.53,2.53,0,0,1-1.55,1.1,4.8,4.8,0,0,1-3-.33,3.34,3.34,0,0,1-1.52-.83c-1.36-1-1.63-2.8-2.31-3.57a3,3,0,0,1,.11-1.93,2.22,2.22,0,0,1,1.58-.82,2.44,2.44,0,0,0,.7-.2.54.54,0,0,1,.42-.09,1,1,0,0,0,.58-.13c.24-.1.43-.14.45-.1s.29,0,.61,0A5.61,5.61,0,0,1,57,45.09Zm-21.6,0c-.06,0-.08.06,0,.14s0,.11-.1.07a.33.33,0,0,0-.29,0,5.19,5.19,0,0,0-.87,1.3c-.27.61-.25.64.24.25a1.88,1.88,0,0,1,.42-.27,1.37,1.37,0,0,0,.3-.45c.13-.25.27-.44.32-.44s.09-.13.1-.29,0-.29-.1-.3Zm4.08.3c-.12,0-.23.11-.48.46a5.55,5.55,0,0,0-.51.81,5.43,5.43,0,0,1-.62.81,2.34,2.34,0,0,0-.51.66.71.71,0,0,1-.18.3,12.66,12.66,0,0,0-.82,1.24C35.68,50.85,35.63,51,36,51s.58-.39.53-.57.07-.14.16-.22a.44.44,0,0,0,.19-.27,1.61,1.61,0,0,1,.43-.54,1.69,1.69,0,0,0,.43-.49c0-.05,0,0-.12.08s-.12.1-.12,0a1.86,1.86,0,0,1,.44-.53,1.38,1.38,0,0,0,.43-.58c0-.09.07-.17.14-.16s.11,0,.07-.08,0-.14.16-.23a4.88,4.88,0,0,0,1.14-1.72.46.46,0,0,0-.2-.35.28.28,0,0,0-.12,0Zm2,.62c-.2,0-.51.32-1.22,1.26-.46.61-.91,1.19-1,1.28a9.58,9.58,0,0,0-.68,1.06,6,6,0,0,0-.55,1.1c0,.23.16.38.27.22a.37.37,0,0,1,.3-.1c.23,0,.53-.35.4-.49s0-.07.08-.06.12-.08.09-.17,0-.18,0-.18.61-.88.49-.93,0-.11.1-.2.2-.14.11,0-.06.13,0,.08a1.58,1.58,0,0,0,.35-.53c.12-.24.25-.41.29-.38a2.71,2.71,0,0,0,.67-.8,2.87,2.87,0,0,0,.48-.85.27.27,0,0,0-.07-.21.26.26,0,0,0-.19-.1Zm14,.23A5.93,5.93,0,0,0,54.26,48a7.94,7.94,0,0,1-.5.78c-.49.65-.57,1.08-.21,1.07.12,0,.23-.07.24-.15s.11-.14.24-.14.23-.06.23-.15a2.13,2.13,0,0,1,.42-.65,3.3,3.3,0,0,0,.8-1.42c.05-.2.14-.37.2-.37s.11-.07.12-.16.06-.18.13-.17,0,0,0-.05a.3.3,0,0,0-.09-.13.53.53,0,0,0-.33-.19Zm2.66.22a.8.8,0,0,0-.43.09,35.41,35.41,0,0,0-2.49,3.22,8.75,8.75,0,0,1-.48.74c-.46.68-.63,1.12-.42,1.12a4.68,4.68,0,0,0,1.31-1.2A2,2,0,0,1,56,50c.13-.17.2-.34.17-.37s.07-.12.24-.18.32-.17.32-.26A.81.81,0,0,1,57,48.8a.63.63,0,0,0,.25-.37c0-.09.06-.12.13-.08s.11,0,.11-.05a2.28,2.28,0,0,1,.36-.6,4.34,4.34,0,0,0,.66-1.14c0-.07-.12-.1-.26-.11Zm1.82.07a.73.73,0,0,0-.21.06A10.64,10.64,0,0,0,58,48.79c-.84,1.14-1.66,2.27-1.8,2.52-.36.62-.35.72.08.72s.4-.06.47-.3a1.35,1.35,0,0,1,.24-.46c.57-.6.72-.81.67-.89s0-.09.12-.09.25-.17.34-.4.21-.38.26-.38.1-.09.11-.2a1.47,1.47,0,0,1,.38-.59,1.41,1.41,0,0,0,.37-.59.19.19,0,0,1,.19-.2c.1,0,.15,0,.12-.1s.07-.2.2-.33a.92.92,0,0,0,.24-.35.69.69,0,0,1,.2-.3.37.37,0,0,0,.13-.17c0-.12-.07-.19-.26-.17Zm-6.65.22h-.11l-.29,0a.12.12,0,0,0-.1.12.58.58,0,0,1-.13.26l-.37.4c-.29.31-.35.87-.11,1s.23,0,.36-.32.25-.4.32-.38.11-.08.08-.17a.64.64,0,0,1,.24-.47q.24-.24.24-.36c0-.06,0-.1-.14-.1Zm-7,.51a7.92,7.92,0,0,1,2.27.26,1.71,1.71,0,0,0,.81.1l.5,0,.12.68c.8,1.68,1.09,3.71,2.92,4.93a9.11,9.11,0,0,0,3.11,1.06,2.81,2.81,0,0,0,1.52-.1c.62-.2.67-.22.92-.2,1.77-1.15,4-3.94,4.22-6.08a.8.8,0,0,1,.12-.48A6.11,6.11,0,0,1,64,47.29c.93,0,.95,0,.95.25s0,.4,0,.56,0,.57,0,.93a20.91,20.91,0,0,1-.34,3.17,27.9,27.9,0,0,1-1.1,3.72c-.17.41-.5,1.28-.76,1.93s-.49,1.25-.53,1.31a30.77,30.77,0,0,0-1.31,3.07,8.16,8.16,0,0,1-2.24,3,25.76,25.76,0,0,0-3,3,1.46,1.46,0,0,1-.37.33l-1,.65a2.78,2.78,0,0,1-1.3.63,3.58,3.58,0,0,0-.7.23c-.42.16-.86.3-1.3.42a6.84,6.84,0,0,1-5.55-1.24,1.54,1.54,0,0,0-.59-.35,2.88,2.88,0,0,1-.65-.39A11.74,11.74,0,0,0,43,67.76a1.89,1.89,0,0,1-.83-.65,21.83,21.83,0,0,0-1.3-2.77,4,4,0,0,1-.4-.89,3.92,3.92,0,0,0-.29-.71,1.83,1.83,0,0,1-.28-.49c-.11-.22-.41-.76-.67-1.2a3.5,3.5,0,0,1-.45-1,.64.64,0,0,0-.19-.35,19.15,19.15,0,0,1-1.47-2.41,5.4,5.4,0,0,0-.51-.74,1.24,1.24,0,0,1-.3-.58c0-.11,0-.2-.1-.21a.16.16,0,0,1-.11-.18.29.29,0,0,0-.16-.26.32.32,0,0,1-.16-.28A5.75,5.75,0,0,0,35.46,54c-.35-1-.37-1.12-.1-1a2,2,0,0,0,.31.13l.4.17a7.66,7.66,0,0,0,3.91.36,5.3,5.3,0,0,0,2.08-1,1.43,1.43,0,0,1,.42-.31,4.3,4.3,0,0,0,1.1-1.07A11.52,11.52,0,0,0,45,48.57c0-.53.29-1,.59-1.07a.82.82,0,0,0,.4-.19.87.87,0,0,1,.42-.07Zm-4.24.53c-.14,0-.33.21-1,1.11s-.92,1.44-.58,1.45c.1,0,.17,0,.18-.1a4.55,4.55,0,0,1,.65-.8,2.62,2.62,0,0,0,.62-.82.64.64,0,0,1,.22-.38c.11-.1.16-.16.17-.21s0-.1-.1-.17a.5.5,0,0,0-.13-.1Zm18.53.67c-.26,0-.67.36-.92.91a2.23,2.23,0,0,1-.36.56,2,2,0,0,0-.32.38c-.19.3-.2.4,0,.41s.9-.32.91-.48a.5.5,0,0,1,.26-.31,2.12,2.12,0,0,0,.5-.73,3.24,3.24,0,0,0,.19-.52c0-.09,0-.13-.15-.19a.17.17,0,0,0-.1,0ZM28,51.63s.11,0,.12.26a4.07,4.07,0,0,0,.22.83c.11.31.3.92.42,1.36a16.71,16.71,0,0,0,1.4,3.55,10,10,0,0,1,.51,1,5.4,5.4,0,0,0,.45.9,7.89,7.89,0,0,1,.46.92,6.73,6.73,0,0,0,.58,1.25,6,6,0,0,1,.33.83c.1.3.23.54.29.53s.1.07.06.17a5.86,5.86,0,0,0,.47,1.47,10.4,10.4,0,0,1,.8,3.69c0,.13,0,.34,0,.46s0,.19-.08.14a20.74,20.74,0,0,1-1.1-2.51c-.15-.38-.38-.9-.52-1.17s-.47-1-.73-1.58-.58-1.31-.7-1.56-.36-.78-.53-1.19-.41-1-.53-1.23a4,4,0,0,1-.26-.56,2.59,2.59,0,0,0-.14-.29,26.46,26.46,0,0,1-1.08-3.22,14.69,14.69,0,0,1-.58-3,3.27,3.27,0,0,1,0-.7c0-.22.08-.35.14-.38Zm44.47,0c.06,0,.11.16.14.37a4.11,4.11,0,0,1,0,.7,13.46,13.46,0,0,1-.59,3A26.41,26.41,0,0,1,71,58.94a1.55,1.55,0,0,0-.14.29,5.62,5.62,0,0,1-.25.56c-.13.27-.38.81-.54,1.22s-.4,1-.53,1.2-.44.95-.7,1.55-.59,1.32-.73,1.59-.37.79-.52,1.16A21.6,21.6,0,0,1,66.46,69s-.09,0-.09-.15v-.45a10.4,10.4,0,0,1,.8-3.69,6,6,0,0,0,.47-1.47c0-.1,0-.17.06-.17s.19-.24.29-.54a6.38,6.38,0,0,1,.33-.82,6.14,6.14,0,0,0,.58-1.25,6.08,6.08,0,0,1,.46-.92,7,7,0,0,0,.45-.91,10.94,10.94,0,0,1,.51-1,16.92,16.92,0,0,0,1.4-3.55c.12-.45.31-1.06.42-1.36a4,4,0,0,0,.22-.84c0-.2.06-.27.11-.25ZM43.34,53.86a.47.47,0,0,0-.2.12.94.94,0,0,0,0,1,2,2,0,0,0,.83.21c.85.06,1.4.21,1.39.4a1.12,1.12,0,0,0,.3.47.77.77,0,0,0,.81.29,2.76,2.76,0,0,0,.63-.1,10.93,10.93,0,0,1,1.71-.2,4,4,0,0,0,1.42-.38c0-.05.16-.12.35-.16s.35-.12.36-.3c0-.57-.52-.9-.77-.49a2.18,2.18,0,0,1-1.79.57,2.21,2.21,0,0,0-1.05.16.74.74,0,0,1-.94,0,4,4,0,0,0-1.79-.85,1,1,0,0,1-.83-.41c-.22-.24-.32-.35-.43-.35Zm-10.44.88c.06-.05.3.46.87,1.7.39.85.79,1.72.9,1.94a1.45,1.45,0,0,1,.18.49c0,.06.26.72.58,1.48s.56,1.4.56,1.44.25.66.55,1.39c.67,1.58,1.22,3,1.48,3.81a41.55,41.55,0,0,1,1.24,5.52,17.4,17.4,0,0,1,.06,2.7,30.79,30.79,0,0,1-.73,5.33c-.23,1-.28,1.22-.57,2.64a10,10,0,0,1-1,2.7c-.21.11-.2,0,0-.82a14.19,14.19,0,0,0,.45-2c.11-.67.26-1.43.32-1.7A27.53,27.53,0,0,0,38.05,77a3.25,3.25,0,0,1,0-.7A33.76,33.76,0,0,0,37.72,71c-.11-.55-.35-2.32-.38-2.72a1.14,1.14,0,0,0-.17-.54A1.55,1.55,0,0,1,37,67a5.8,5.8,0,0,0-.75-2.21,6.86,6.86,0,0,1-.49-1.47,1.2,1.2,0,0,0-.15-.52.33.33,0,0,1-.09-.23,6.14,6.14,0,0,0-.69-1.7.59.59,0,0,1-.13-.36,3.63,3.63,0,0,0-.61-1.36.89.89,0,0,1-.18-.38,6,6,0,0,0-.34-.92,6.85,6.85,0,0,1-.42-1.38c0-.35-.13-.85-.17-1.1s-.08-.6,0-.62Zm-4.25,4.38h0s.12.12.28.46a3.77,3.77,0,0,1,.32.78,2.33,2.33,0,0,0,.2.52c.1.2.34.65.53,1s.58,1.27.88,2,.55,1.26.87,1.87a4.26,4.26,0,0,1,.35.75A5.56,5.56,0,0,0,32.74,68a.69.69,0,0,1,.18.43,5.29,5.29,0,0,0,.28,1,16,16,0,0,1,.66,4.23,4.13,4.13,0,0,0,0,.93,1.38,1.38,0,0,1-.14.87,2.42,2.42,0,0,0-.2.71,1,1,0,0,1-.15.5c-.1.16-.14.27-.1.27s0,.15-.15.35a1.23,1.23,0,0,0-.21.56,1.92,1.92,0,0,1-.49.76l-.51.55,0-.35c.1-.81.25-1.79.38-2.36a7.88,7.88,0,0,0-.17-3.17,40.35,40.35,0,0,0-1.46-5.85c-.25-.71-.5-1.49-.56-1.71a1.83,1.83,0,0,0-.21-.53,30.57,30.57,0,0,1-1.32-5.83.58.58,0,0,1,0-.19Zm43.18,0s0,.07,0,.19a30.85,30.85,0,0,1-1.32,5.84,1.67,1.67,0,0,0-.21.52c-.06.22-.31,1-.56,1.72a40.22,40.22,0,0,0-1.46,5.84,7.93,7.93,0,0,0-.17,3.18c.13.56.29,1.55.38,2.35l0,.35L68,78.56a2.06,2.06,0,0,1-.5-.76,1.16,1.16,0,0,0-.21-.56c-.12-.2-.19-.35-.14-.35s0-.11-.1-.27a1,1,0,0,1-.16-.5,2,2,0,0,0-.2-.71,1.44,1.44,0,0,1-.14-.87,3.61,3.61,0,0,0,0-.93,16.29,16.29,0,0,1,.66-4.22,4.86,4.86,0,0,0,.28-1,.73.73,0,0,1,.18-.42,5,5,0,0,0,.66-1.48,3.69,3.69,0,0,1,.36-.75,18.56,18.56,0,0,0,.86-1.87c.3-.72.7-1.61.89-2s.42-.83.53-1a2.38,2.38,0,0,0,.18-.51,4.55,4.55,0,0,1,.33-.79c.17-.33.25-.47.28-.46Zm-26.15,1c-.19,0-.33,0-.38.08a1.86,1.86,0,0,1-.58.33,2.88,2.88,0,0,1-2.14,0,.39.39,0,0,0-.51.21s0,0,0,0c-.07.17.51,1,.7,1a1.13,1.13,0,0,1,.4.23,7.77,7.77,0,0,0,1.94,1.1.77.77,0,0,1,.42.1,3,3,0,0,0,.5.18c.1,0,.3.09.45.14a9.12,9.12,0,0,0,1.47.13,4.63,4.63,0,0,0,2-.2,16.88,16.88,0,0,0,3.41-1.54,7.56,7.56,0,0,1,1.07-.61c.47-.2.62-.34.66-.57a.92.92,0,0,0,0-.16c0-.13-.07-.2-.22-.27s-.46,0-1.19.31a2.34,2.34,0,0,1-1.84.3,4.12,4.12,0,0,1-1.33-.37,1.44,1.44,0,0,0-1.54-.2c-.89.43-1.47.62-1.53.51a3,3,0,0,0-1.74-.66Zm.08.8c.2,0,.45.2.82.65.52.62.54.62.71.4a.88.88,0,0,1,.53-.29,1.1,1.1,0,0,0,.5-.2c.29-.26,1.33-.55,1.37-.38a.24.24,0,0,0,.19.15,1.69,1.69,0,0,1,.5.2.81.81,0,0,0,.47.14.12.12,0,0,1,.17,0,.54.54,0,0,0,.36.14c.19,0,.28.05.27.11s-.33.27-.89.49a3.82,3.82,0,0,1-2.13.32A10.25,10.25,0,0,1,45.05,62a1.53,1.53,0,0,1-.66-.36c0-.18,1-.68,1.38-.66Zm5.44,2.94a5.07,5.07,0,0,0-1.32.88,2.22,2.22,0,0,1-.66.31,2.34,2.34,0,0,1-1.36.11,3,3,0,0,1-1-.35,4.05,4.05,0,0,0-1.7-.87.4.4,0,0,0-.21.39.47.47,0,0,0,.3.51,8.5,8.5,0,0,1,.86.62,1.92,1.92,0,0,0,1.48.5,4.22,4.22,0,0,0,2.77-.64,2,2,0,0,1,.46-.32,1.24,1.24,0,0,0,.43-.32c.21-.2.28-.3.26-.43a.65.65,0,0,0,0-.13c-.07-.14-.18-.26-.24-.26Zm8.34,1.69s.05,0,0,.06a2.54,2.54,0,0,1-.19.61,8.66,8.66,0,0,0-.36,1.3c-.1.47-.22,1-.26,1.14a24.87,24.87,0,0,0-.43,4.3c-.08,1.51-.16,2.7-.18,2.63s-.32-.15-.83.08a2,2,0,0,1-.9.16c-.37,0-.46,0-.6.26a2,2,0,0,1-1.34.71.67.67,0,0,1-.41-.31c-.25-.43-.56-.39-1.1.16s-.57.52-2,.48a2.55,2.55,0,0,1-1.42-.4l-.66-.38-.46.24c-.45.23-.48.23-1.17,0a4.75,4.75,0,0,1-1-.42,1.69,1.69,0,0,0-1-.23,2.54,2.54,0,0,1-1.15-.25c-.45-.24-1-.68-1-.85s0-.32,0-.6,0-.84-.06-1.22,0-.89,0-1.12-.09-.85-.17-1.4-.15-1.22-.17-1.5l0-.5.6.44c2.28,1.54,5.52,3.44,8.24,2a.06.06,0,0,1,.07-.06h0a3.54,3.54,0,0,0,1.42-.42c.16-.11.34-.18.39-.14a4.72,4.72,0,0,0,1.7-1c2.9-2.69,4.14-3.75,4.4-3.77ZM36,66.52a5,5,0,0,1,.17.55,7.76,7.76,0,0,0,.25.82,5.42,5.42,0,0,1,.19.89l.27,1.74a41.23,41.23,0,0,1,.37,5c0,.35,0,1.06,0,1.57a32,32,0,0,1-.87,7.67,5.51,5.51,0,0,1-.71,1.8,3.27,3.27,0,0,1,.22-.87A29.62,29.62,0,0,0,36.33,81a66,66,0,0,0-.89-7.8c-.11-.6-.24-1.2-.4-1.8a2.12,2.12,0,0,1,.2-.85c.11-.2.28-.53.38-.75a7.32,7.32,0,0,0,.32-3.32ZM27.37,67.7s.14.13.27.35a1.65,1.65,0,0,0,.28.41c.12,0,.18,1,.07,1s-.06.42,0,1a4.12,4.12,0,0,1,.11,1c0,.66,0,1.32,0,2,0,1.05,0,2.37,0,2.94s0,1.1,0,1.17.06.74.12,1.5c.29,3.38,2.33,6.76,3.76,10.71-2.4-1.33-3.3-4.46-4.23-6.88a29.56,29.56,0,0,1-.44-15.31Zm45.75,0A29.57,29.57,0,0,1,72.67,83c-.92,2.41-1.83,5.55-4.22,6.88,1.42-4,3.47-7.33,3.76-10.71.05-.76.11-1.44.12-1.5s0-.59,0-1.17,0-1.89,0-2.94a18.68,18.68,0,0,0,0-2,4.12,4.12,0,0,1,.11-1c.1-.62.11-1,0-1s-.06-1,.06-1a1.22,1.22,0,0,0,.29-.41c.12-.23.24-.38.27-.35Zm-8.58,1.76c.1,0,.2.12.32.38s.27.55.38.74a3.08,3.08,0,0,1,.22,1.4,3.08,3.08,0,0,0,0,.43c-.17,1.65-.34,4.17-.38,5.07a23.23,23.23,0,0,0,.37,4c-1.18-2.6-1.24-6.07-1.21-9.09a6.89,6.89,0,0,1,0-2.52c.09-.26.18-.4.27-.4ZM29,71.48a10.93,10.93,0,0,1,.69,2.64,14.22,14.22,0,0,1,0,3.91,2.78,2.78,0,0,1-.24.91c-.16,0-.08,1,.08,1.07s.11.14.06.31-.11.24-.21.14A30.52,30.52,0,0,1,29.07,76a32.17,32.17,0,0,1,0-4.5Zm42.43,0a32.17,32.17,0,0,1,0,4.5,32,32,0,0,1-.37,4.48c-.1.1-.15.07-.2-.14s0-.28.05-.31.24-1.06.09-1.07a2.57,2.57,0,0,1-.25-.91,14.62,14.62,0,0,1,0-3.91,11.43,11.43,0,0,1,.7-2.64ZM34.81,74.16a42.57,42.57,0,0,1,.56,4.64,27.94,27.94,0,0,1,0,4.84c-.1-.9-.24-1.79-.39-2.68-.26-1.1-.59-2.19-1-3.25a2.17,2.17,0,0,0,.1-.33,9.23,9.23,0,0,0,.61-2.59,3.36,3.36,0,0,1,.06-.63Zm31.08,1.66a11.18,11.18,0,0,0,.45,1.57,8.43,8.43,0,0,0,1,2.18A12.72,12.72,0,0,1,67,81.29l-.36,1.08a1.64,1.64,0,0,1-.14.39,2.73,2.73,0,0,1-.35-.91,25.91,25.91,0,0,1-.22-6ZM58.37,76l.1.31a3.1,3.1,0,0,1,.05.91,1.76,1.76,0,0,0,.08.72,2,2,0,0,1,.12.68l0,.55-.49.18c-.79.3-.89.32-1.2.19s-.68-.09-1,.33a1.47,1.47,0,0,1-.86.54c-.58.17-.61.17-1-.07-.58-.41-.95-.37-1.2.09s-.66.61-1.7.5a10.29,10.29,0,0,0-1.36,0c-.84.08-1.46-.06-1.5-.35s-.32-.65-.51-.66a1,1,0,0,0-.46.35l-.3.36-.66-.27a1.88,1.88,0,0,1-.73-.47c-.06-.11-.13-.29-.18-.41a.67.67,0,0,0-.89-.18c-.22.11-.35.06-1-.29s-.68-.47-.67-.68a1.57,1.57,0,0,0,0-.43.22.22,0,0,1,0-.22,1.81,1.81,0,0,0,.1-.61c0-.64.2-.73.74-.44a2.18,2.18,0,0,0,.55.22c.08,0,.23.22.33.47s.24.48.38.49a.58.58,0,0,1,.34.14c.17.19.61,0,.62-.19s.48-.42,1.14-.24.84.27.82.67-.06.35,1.05.29a2.27,2.27,0,0,0,.44-.27c.35-.27.9-.33,2.68-.3a.77.77,0,0,1,.48.33.78.78,0,0,0,.46.33,1.51,1.51,0,0,0,1.09-.65,1.05,1.05,0,0,1,.63-.44c.49-.2.62-.2.94-.06A.8.8,0,0,0,57,76.94l0,0a2.19,2.19,0,0,1,.75-.6ZM45.61,77.08l.06,0a.33.33,0,0,1,.18.26.28.28,0,0,1,0,.09q0,.1-.12.06a.32.32,0,0,1-.19-.26C45.54,77.15,45.56,77.09,45.61,77.08Zm-12,1.53a1.67,1.67,0,0,1,.08.2,27,27,0,0,1,1.2,7.12,1.13,1.13,0,0,1,0,.32,15,15,0,0,0-1-3.88c-.07-.25-.23-.74-.35-1.08a11.69,11.69,0,0,1-.43-1.72c.17-.33.37-.63.56-1Zm9.38.92a.83.83,0,0,1,.22,0,1,1,0,0,1,1,.71c.14.48.55,1,.79,1a1,1,0,0,0,.51-.25c.3-.26.31-.26.52,0s.23.19.23.14.7.34,1.12.8.45.46.73.35a.69.69,0,0,0,.39-.38c.07-.23.15-.25.77-.22a4.88,4.88,0,0,1,.76.07s0,.1,0,.25a9.51,9.51,0,0,1-.24,1.91c-.21.8-.38,1-.75,1a4.8,4.8,0,0,1-1.84-.76,1.2,1.2,0,0,0-.63-.25,2.41,2.41,0,0,1-.76-.24,1.49,1.49,0,0,0-.48-.22.75.75,0,0,1-.33-.28,2,2,0,0,0-1.2-.78,3.09,3.09,0,0,1-.67-.22c-.35-.22-.75-.76-.68-.93s0-.12-.06-.08-.12,0-.11-.05a.19.19,0,0,1,.12-.15,1.77,1.77,0,0,0,.29-.74c.12-.53.15-.66.31-.68ZM32.35,80c.17,0,.27.26.45,1.11a13.67,13.67,0,0,0,.52,1.9c.33.46,1.19,3.35.84,4.42,0,.16,0,.41-.06.56s-.12.45-.22.36a3.06,3.06,0,0,1-.21-.73,30.8,30.8,0,0,0-1.1-3.41c-.21-.57-.49-1.36-.62-1.77a6.16,6.16,0,0,0-.55-1.23l-.3-.48.44-.2a3.51,3.51,0,0,0,.61-.39.6.6,0,0,1,.21-.14Zm35.79,0a.48.48,0,0,1,.2.14,3.6,3.6,0,0,0,.62.39l.43.2-.3.48a6.16,6.16,0,0,0-.55,1.23c-.14.41-.41,1.2-.62,1.77a27.1,27.1,0,0,0-1.1,3.41,3.92,3.92,0,0,1-.22.74c-.1.08-.2-.08-.22-.37a5.35,5.35,0,0,0,0-.55A19,19,0,0,1,67.16,83a13.93,13.93,0,0,0,.52-1.89c.18-.86.29-1.15.45-1.12ZM59,80l.14.66c.13.61.3,1.3.4,1.61,0,0,0,0,0,.06s-.08.05-.19,0-.4,0-.71.25-.54.32-.81.26-.38,0-.7.4a1.84,1.84,0,0,1-1.06.72c-1,.36-1.4.37-1.77,0s-.31-.25-.4-.06a1.3,1.3,0,0,1-1.12.8c-.56.08-.95-.07-.79-.3,0,0,0-.1,0-.1s-.15-.17-.22-.38-.2-.57-.29-.79c-.25-.67-.25-1.35,0-1.56.12-.1.25-.15.29-.11a1.07,1.07,0,0,0,.47.1.66.66,0,0,1,.64.37c.12.19.29.35.39.36a.41.41,0,0,1,.28.23c.2.35.54.18.89-.44a3.5,3.5,0,0,0,.32-.71A3,3,0,0,1,56,80.86s.06.12.06.26a1.74,1.74,0,0,0,.17.63c.18.36.2.37.56.24a2,2,0,0,0,.92-1.4c0-.25.11-.31.66-.44ZM30.53,81l.33.63a3.4,3.4,0,0,1,.34.92,1.11,1.11,0,0,0,.14.47,15.1,15.1,0,0,1,.81,2.25,2.6,2.6,0,0,0,.16.47,1.52,1.52,0,0,1,.15.5,1.63,1.63,0,0,0,.21.57A6.74,6.74,0,0,1,33,89.31c0,.26-.22,0-.4-.4a14.7,14.7,0,0,0-.68-1.38,30,30,0,0,1-2.26-6.08.37.37,0,0,1,0-.18c0-.14.11-.17.44-.22ZM70,81l.48.07c.34,0,.44.08.45.22a1.1,1.1,0,0,1,0,.18,30.69,30.69,0,0,1-2.27,6.08c-.28.53-.58,1.15-.68,1.38-.16.45-.38.66-.38.4a6.46,6.46,0,0,1,.28-2.51,2,2,0,0,0,.21-.57,1.39,1.39,0,0,1,.15-.5,1.92,1.92,0,0,0,.15-.48A16.35,16.35,0,0,1,69.15,83a1.1,1.1,0,0,0,.13-.47,3.15,3.15,0,0,1,.36-.92ZM42.09,82.33l.37.3a3.68,3.68,0,0,0,.7.46c.23.12.32.24.31.43a.68.68,0,0,0,.76.6h.06c.17,0,.33-.1.33-.17s.1,0,.2.06a1.53,1.53,0,0,0,.47.29c.55.19.79.44.78.78a.74.74,0,0,0,.13.48.67.67,0,0,0,.86-.15c.06-.13.19-.15.53-.07a1,1,0,0,0,.63,0c.12-.1.16-.1.16,0s.11.12.26.1c.4-.06.58.11.48.43a1.71,1.71,0,0,0,.39,1.47.84.84,0,0,0,.84.27,3,3,0,0,0,.85-.15,2.49,2.49,0,0,0,1.08-1.39c0-.31.18-.44.75-.58.39-.11.45-.1.73.19a1,1,0,0,0,.52.32c.28,0,.62-.34.72-.75s.14-.32.54-.35a2.74,2.74,0,0,0,.74-.17c.25-.13.3-.11.5.11a.72.72,0,0,0,.37.27c.19,0,.68-.59.87-1a1.29,1.29,0,0,1,.56-.55,7,7,0,0,0,.8-.47l.37-.25.31.52a9.49,9.49,0,0,1,.54,1,5.13,5.13,0,0,0,.82,1.24l-.15.08a.66.66,0,0,0-.29.17A12.69,12.69,0,0,1,58.32,87a.43.43,0,0,0-.23.09.43.43,0,0,1-.25.07,2,2,0,0,0-.54.14,15.21,15.21,0,0,1-2.74.59c-.8.13-1.49.26-1.54.29s-1.05,0-2.23,0a11.87,11.87,0,0,1-7-2,3.33,3.33,0,0,0-1.06-.45c-.08,0-.14,0-.12-.08s-.07-.16-.2-.19a1.16,1.16,0,0,1-.4-.2,6,6,0,0,0-.67-.45L41,84.53a2.8,2.8,0,0,0,.3-.66c0-.1.05-.19.1-.19a3.07,3.07,0,0,0,.62-1.1ZM50.89,84c.19,0,.61,1.21.6,1.71,0,.9-.5,1.42-1.15,1.22-.22-.07-.26-.16-.24-.56A2.72,2.72,0,0,1,50.36,85a2.75,2.75,0,0,0,.25-.59c.09-.28.22-.49.28-.49ZM33,90.49c.06,0,.14.16.18.37s.08.42.09.47,0,.08-.13.06-.24-.52-.22-.76c0-.08,0-.14.08-.14Zm34.51,0s.06.05.07.14c0,.24-.08.72-.21.76s-.14,0-.12-.06.05-.27.08-.47S67.44,90.49,67.5,90.49Z"/><path id="Path_40261" data-name="Path 40261" class="cls-8" d="M50.3.5a49.8,49.8,0,1,0,49.8,49.8A49.8,49.8,0,0,0,50.3.5Zm0,.74a49.06,49.06,0,1,1-49,49.06A49.06,49.06,0,0,1,50.3,1.24Z"/></g></g></g></svg>