<?xml version="1.0" encoding="utf-8"?>
<!-- Generator: Adobe Illustrator 25.2.3, SVG Export Plug-In . SVG Version: 6.00 Build 0)  -->
<svg version="1.1" id="圖層_1" xmlns="http://www.w3.org/2000/svg" xmlns:xlink="http://www.w3.org/1999/xlink" x="0px" y="0px"
	 viewBox="0 0 50 50" style="enable-background:new 0 0 50 50;" xml:space="preserve">
<style type="text/css">
	.st0{fill:#E8ECED;}
	.st1{fill:#B29262;}
	.st2{clip-path:url(#SVGID_2_);}
</style>
<g>
	<circle class="st0" cx="25" cy="25" r="23.9"/>
	<path class="st1" d="M25,2.2c12.5,0,22.8,10.2,22.8,22.8S37.5,47.8,25,47.8S2.2,37.5,2.2,25S12.5,2.2,25,2.2 M25,0
		C11.2,0,0,11.2,0,25s11.2,25,25,25s25-11.2,25-25S38.8,0,25,0L25,0z"/>
</g>
<g>
	<g>
		<defs>
			<circle id="SVGID_1_" cx="25" cy="25" r="25"/>
		</defs>
		<clipPath id="SVGID_2_">
			<use xlink:href="#SVGID_1_"  style="overflow:visible;"/>
		</clipPath>
		<g class="st2">
			<g>
				<path class="st1" d="M14.7,25.8c0.4-0.2,0.9-0.2,1.4-0.2c0.4,0,0.6-0.4,0.3-0.8c-0.6-0.7-3-0.3-2.9,0.7
					C13.5,26.2,14.4,26.5,14.7,25.8z"/>
			</g>
			<g>
				<path class="st1" d="M13.2,18.8c-1.2,1.7,0.7,4.7,3.3,3.7c0.4,0.9,0.9,1.3,1.2,1.6c-0.9,1.1-0.1,2.9,2.1,3.1
					c0.2,0.1,0.5,0,0.8,0c0.5-0.1,0.4-1-0.2-0.9c-2.1,0.3-2.7-1.2-2.1-1.8c0.3,0,0.6,0,0.9-0.2l0,0c0.4-0.3,0.1-0.9-0.3-0.8
					c-0.5,0.1-1.1,0-1.7-1.3c0.4-0.3,0.7-0.8,0.6-1.1c-0.1-0.5-1.2-0.4-1.5,0.4c-1.5,0.8-3-0.3-2.6-2.3
					C13.7,18.7,13.3,18.5,13.2,18.8z"/>
			</g>
			<g>
				<path class="st1" d="M21.5,27.3c0,0.3,0.4,0.4,0.6,0.1c0.3-0.7,0.8-1,1.4-1.2c-0.6,0.3-1.2,1.1-1,1.7c0.1,0.4,0.6,0.4,0.8,0.1
					c0.3-0.5,0.1-1.1,1.2-1c0.3,0,0.6,0.1,0.7-0.3c0.1-0.3-0.2-0.6-0.8-0.7c0.1,0,0.3,0,0.4,0c0.6,0,1,0.3,1.1,0.9
					c0.1,0.7-0.7,2.2,0.1,2.2c0.1,0,0.2,0,0.2-0.1c1.2-1,1.3-3.8-1-4.1C23.8,24.8,21.2,25.5,21.5,27.3z"/>
			</g>
			<g>
				<path class="st1" d="M22.7,30.5c0.2,0,0.4-0.1,0.6-0.2c0.5-0.3,0.5-1.6-0.2-1.9c-0.3-0.1-0.5,0-0.7,0.2
					c-0.1,0.1-0.3,0.3-0.3,0.5s0.2,0.2,0.3,0.3c0,0,0,0.1,0,0.2C21.8,29.9,22.2,30.5,22.7,30.5z"/>
			</g>
			<path class="st1" d="M17.4,27.4c-0.2,0-0.4-0.1-0.7-0.2c-0.4-0.1-1.8,0-2.4,0.8c-0.4,0.4-0.2,0.9,0.2,1.1c0,0,0,0,0,0.1
				c-0.1,0.4,0.1,0.8,0.4,1c0.3,0.2,0.8,0.3,1-0.1C16,30,16,29.9,16,29.8v-0.1c0-0.1,0-0.2-0.1-0.3c-0.1-0.2-0.1-0.5-0.2-0.7
				c0.7-0.6,1.2-0.9,1.6-0.9C17.6,27.9,17.7,27.5,17.4,27.4z"/>
			<g>
				<path class="st1" d="M25.3,36.9c-0.3,0.2-0.8,0.7-1.2,0.7c0.5-0.5,1.1-1.3,1-2c0-0.2-0.3-0.4-0.5,0c-0.5,1.2-1.9,1.9-3.2,2.3
					c-2.2,0.7-6.6,0.4-6.2-1.9c0.1-0.4,0.2-0.3,0.5-0.5c0.2-0.1,0.4-0.5,0.6-0.6c0.3-0.2,0.7-0.5,0.8-0.5c0.3-0.2,0.2-0.7-0.1-0.8
					c-0.2-0.1-0.4,0.1-0.6,0.2c-0.3,0.2-0.5,0.4-0.8,0.6c-0.4,0.1-1.2,0.5-2.2,0c0.5-0.7,0.3-1.8-0.6-2.2c-0.2-0.1-0.4-0.2-0.5-0.6
					c-0.2-0.7,0.7-1.2,1.1-1.7c1.4-1.8-0.8-4.1-0.4-5.8c0.2-0.7,0.8-0.9,0.5-1.3c-0.4-0.5-1.6,0.4-1.5,1.9c0.1,1,0.5,1.9,0.8,2.8
					c0.8,2.5-1.5,2.1-1.4,4c0.1,1.1,1.3,1.5,1.3,2c0,0.6-0.7,0.5-0.6,1c0.1,0.4,0.8,0.8,1.5,1c-0.5,0.2-0.2,1,0.7,1.1
					c0.5,1.8,2.9,2.4,4.8,2.4c-0.6,0-2.4,0.9-2.5,0.9s-1.6,1-2.2,1.3c-0.1,0-0.1,0.1-0.1,0.2c0.2,0.5,2-0.8,2.3-1
					c2.4-1,5.1-0.6,7.3-1.9c1.4-0.8,2.9-1.1,4-0.9c0.5,0.1,1.1,0.1,1.1-0.4C29.2,36.6,27.1,36,25.3,36.9z"/>
			</g>
			<g>
				<path class="st1" d="M10.8,23.9c0.5,0,0.7-0.6,0.3-0.9c-0.2-0.1-1.4-0.4-1.8-1.8c-0.1-0.4,0-0.9,0.1-1.3
					c0.2-0.5,0.8-1.1,0.9-1.1c0.3-0.2,0.1-0.7-0.2-0.6c-0.1,0-0.3,0.1-0.4,0.1c0.5-0.8,1.4-1.1,2.8-0.9c0.1,0,0.2,0,0.3-0.2
					s0-0.3-0.1-0.4s-0.3-0.3-0.5-0.3c-2.6-0.6-3.9,2.1-3.4,2.7l0.1,0.1C7.5,21.8,9.7,24,10.8,23.9z"/>
			</g>
			<g>
				<path class="st1" d="M23.7,13c-0.2,0.1,0,0.4,0.2,0.3c3.9-2.7,6.8,0.2,5.5,2.2c-0.2,0.3,0.2,0.6,0.5,0.4c1.2-1.1,3,0.2,2.4,1.7
					c-0.2,0.4,0.2,0.8,0.6,0.5c0.6-0.4,1.7,0.1,1.5,1.3c-0.2,1.2-1.5,1.7-2.5,2.2c-0.3,0.1-0.2,0.6,0.1,0.6s1.3-0.2,2.1-0.9
					c1.9-1.6,1-4.3-1-4.2c0-1.6-1.4-2.7-2.9-2.2C30.7,12.6,27.6,10.1,23.7,13z"/>
			</g>
			<g>
				<path class="st1" d="M33,23.8c-0.3-0.1-0.5,0.3-0.2,0.5c0.7,0.4,1.1,1.5,0.8,2.3c-0.5,1.1-1.6,1.2-2.2,1.3
					C31,28,31,28.4,31.2,28.6c0.7,0.4,1.7,0.1,2.4-0.6C35,26.8,34.7,24.6,33,23.8z"/>
			</g>
			<path class="st1" d="M40,27c0.4-0.3,0.7-0.7,0.9-1.3c1.1-2.4,0.2-4.8-0.9-6.7c1.2-0.1,2.2-1.6-0.6-3.2c0-0.7-2.6-2.1-4.3-2.3
				c0.4-0.6,0.4-1.2,0.1-1.8l-0.1-0.1c-0.2-0.1-0.3-0.3-0.5-0.4c0,0,0,0-0.1,0l0,0c-0.1,0-0.3-0.1-0.4-0.2c-0.1-0.1-0.2-0.2-0.3-0.2
				l-0.1-0.1c-0.5,0-1-0.1-1.5-0.2c-0.2,0-0.4-0.1-0.6-0.2l0,0c-0.1,0-0.2,0-0.4,0l0,0c-0.1,0-0.2,0.1-0.2,0.1
				c-0.1-0.1-0.1-0.2-0.2-0.3c-0.2-0.1-0.3-0.3-0.4-0.5l-0.1-0.1c-0.2-0.2-0.4-0.3-0.6-0.5l-0.3-0.3c0,0,0.3,0.2,0.1,0.1
				c-0.1,0-0.1-0.1-0.2-0.1s-0.1-0.1-0.2-0.1c0,0,0,0,0,0.1C27.3,7.8,25,8.3,23.7,10c-0.7-0.7-3.5-1.7-6,0.3
				c-0.8,0.6-1.6,1.7-1.5,2.6c-1.7,0.2-3.4,1.6-3.7,3.6c0,0.1,0.1,0.2,0.2,0.2c0.1,0,0.2-0.1,0.2-0.2c0.7-3.2,4.9-3.9,4.8-1.8
				c0,0.2,0.3,0.4,0.5,0.2c0.6-0.7,0.1-2.1-1.5-2.1c0.4-0.6,2.1-4,5.9-2.6c0.3,0.1,0.6,0.3,0.9,0.4c0,0.1,0,0.2,0.1,0.3
				c0.3,0.1,0.8-0.6,1-0.9c1.7-1.6,4.7-1.5,6.2,1.2c1.2-0.7,2.4-0.5,3.1,0.1c0.5,0.4,1,1.1,0.7,1.7c-0.2,0.3-0.6,0.2-0.7,0.6
				c-0.1,0.1,0,0.2,0.1,0.3c0.1,0.2,0.4,0.3,0.7,0.1c1.2,0.2,2.1,0.6,3,1.1c-0.3,0.2-0.3,0.7,0.2,0.9c1.2,0.4,2.8,1.7,2.4,1.8
				c-0.3,0.1-0.7-0.2-1-0.4c-0.5-0.4-1.1,0.3-0.8,0.8c1.8,3.1,3,5.8,0.4,8.4c-0.3,0.3,0,0.8,0.4,0.7c0.4,0.2,0.7,0.3,1.1,0.8
				c0.3,0.4,0.3,1,0.1,1.6c-0.5,1.6-2.1,1.8-2.7,2.1c-0.6,0-0.6,0.7-0.2,0.8c0.7,0.2,1,1.2,0.2,1.5c-0.2,0.1-0.4,0-0.7-0.1
				s-0.8,0.2-0.5,0.8c-1.1,1.3-2.7,0.6-2.2-0.3c0.1-0.2-0.1-0.5-0.4-0.4c-0.4,0.2-0.6,0.8-1,1.1c-0.7,0.7-1.7,0.9-2.6,0.5
				c-0.4-0.3-0.4-0.5-0.6-0.4c-0.1-0.1-0.3,0-0.2,0.3c0,0.3,0.6,1.5,2.3,1.5c0.6,0,1.2-0.2,1.6-0.6c1,1,3.7,0.1,3.8-1.4
				c1.3,0.1,2.5-1.3,1.6-2.5C41.9,31.5,42,28.2,40,27z"/>
		</g>
	</g>
</g>
<path class="st1" d="M25,2.2c12.5,0,22.8,10.2,22.8,22.8S37.5,47.8,25,47.8S2.2,37.5,2.2,25S12.5,2.2,25,2.2 M25,0
	C11.2,0,0,11.2,0,25s11.2,25,25,25s25-11.2,25-25S38.8,0,25,0L25,0z"/>
<path class="st1" d="M35.1,11.5c-0.8-1.3-2.5-2-4-1.5c-1.9-2.6-5.9-2.9-8.1-0.2c-0.4,0.5,0.3,1.2,0.7,0.7c1.8-2.2,5.2-2.1,6.7,0.4
	c0.1,0.2,0.4,0.3,0.6,0.2c1.1-0.5,2.5-0.1,3.2,1C34.6,12.6,35.5,12.1,35.1,11.5z"/>
</svg>
