<?xml version="1.0" encoding="utf-8"?>
<!-- Generator: Adobe Illustrator 25.2.3, SVG Export Plug-In . SVG Version: 6.00 Build 0)  -->
<svg version="1.1" id="圖層_1" xmlns="http://www.w3.org/2000/svg" xmlns:xlink="http://www.w3.org/1999/xlink" x="0px" y="0px"
	 viewBox="0 0 50 50" style="enable-background:new 0 0 50 50;" xml:space="preserve">
<style type="text/css">
	.st0{fill:#E8ECED;}
	.st1{fill:#B29262;}
	.st2{fill:#71677A;}
	.st3{fill:#DF9996;}
	.st4{fill:#FFFFFF;}
	.st5{fill:#EAD7BB;}
	.st6{fill:#F3D1A2;}
	.st7{fill:#C17E7E;}
	.st8{fill:#322722;}
</style>
<g>
	<circle class="st0" cx="25" cy="25" r="23.9"/>
	<path class="st1" d="M25,2.2c12.5,0,22.8,10.2,22.8,22.8S37.5,47.8,25,47.8S2.2,37.5,2.2,25S12.5,2.2,25,2.2 M25,0
		C11.2,0,0,11.2,0,25s11.2,25,25,25s25-11.2,25-25S38.8,0,25,0L25,0z"/>
</g>
<path class="st1" d="M25,2.2c12.5,0,22.8,10.2,22.8,22.8S37.5,47.8,25,47.8S2.2,37.5,2.2,25S12.5,2.2,25,2.2 M25,0
	C11.2,0,0,11.2,0,25s11.2,25,25,25s25-11.2,25-25S38.8,0,25,0L25,0z"/>
<path class="st2" d="M24.6,5.4c-0.1,0-0.3,0-0.4,0c-0.9,0-1.8,0-2.7,0.2c-1.1,0.4-2.2,0.8-3.3,1.2C16,8,13.6,9,12.1,11
	c-1.1,1.4-1,3.2-0.9,4.9c0,0.9,0.6,1.6,0.8,2.5c0.2,1.1,0.4,2.2,0.8,3.3c0.3,1.1,1,2,1.4,3.1c0.1,0.8,0.6,1.4,1.2,2
	c0.5,0.6,1.2,1.1,1.7,1.8c-0.4,1-0.4,2.2,0.1,3.2c0.5,0.8,1.4,1.5,2.4,1.5c0.4-0.1,0.8,0.1,0.8,0.5c0,1.4,0.1,2.9-0.5,4.2
	c-0.2,0.3-0.2,0.7-0.5,0.9c-0.5,0.1-0.7,0.5-0.8,0.9c-0.9,1.3-2.2,2.2-3.1,3.5c-0.2,0.2,0.2,0.2,0.3,0.1c0.8-0.7,1.4-1.5,2.1-2.2
	c0.3-0.2,0.6-0.8,1.1-0.7c0.4,0.2,0.8,0.1,1.2,0.3c0.1,0.4,0.5,0.9,1,0.9c0.4,0,0.7,0.2,0.8,0.6c0.2,0.6,1,0.5,1.5,0.3
	c0.4-0.3,0.5,0.3,0.8,0.5c0.4,0.4,1-0.1,1.5,0.1c0.3,0.3,0.7,0.5,1.1,0.2c0.4,0,0.6-0.5,1-0.6c0.4,0.2,0.8,0.5,1.2,0.3
	c0.5,0,0.5-0.7,1-0.7c0.5,0.3,0.9-0.1,1.3-0.5c0.2-0.1,0.1-0.4,0.3-0.5c0.7,0.2,1.2,0.7,1.8,1.1c0.9,0.6,1.9,1.3,3.1,1.2
	c-0.2-0.3-0.7-0.4-1.1-0.6c-1.5-0.7-3.2-1.3-4-2.8c-0.5-0.6-0.2-1.4-0.3-2.2c0.1-1-0.1-2.1,0.2-3.1c0.4-0.6,1.1-0.9,1.6-1.4
	c1.1-0.8,1.4-2.3,1.7-3.5c0.6-2.3,0.6-4.7,1-7c0.2-0.7-0.1-1.5,0.4-2.1c0.6-1.2,0.4-2.6,0.3-3.9c-0.3-1.4-0.2-2.8-0.7-4.1
	c-0.6-1.5-1.5-2.9-2.8-3.9c-0.8-0.5-1.4-1.3-2.2-1.9c-0.8-0.7-1.9-1-2.9-1.2C26.5,5.5,25.6,5.4,24.6,5.4L24.6,5.4z M18.4,28.9
	c0.1,0,0.3,0.1,0.4,0.1c0.2,0,0.5,0.1,0.5,0.4c0.2,0.6,0.5,1.2,0.8,1.8c0.1,0.1,0.2,0.3,0,0.4c-0.6,0.1-1.1-0.3-1.6-0.6
	c-0.5-0.4-0.6-1.1-0.4-1.7C18.3,29.2,18.2,29,18.4,28.9L18.4,28.9z M18.4,28.9"/>
<path class="st3" d="M29.4,30.1c-0.2,0-0.5,0.1-0.5,0.4c0,0,0,0,0,0c-0.2,0-0.4,0-0.6,0c0,0,0.1-0.1,0.1-0.1
	c-0.1-0.2-0.4-0.3-0.6-0.3c-0.3,0-0.7,0.1-1,0.3c-0.1,0-0.3,0.2-0.1,0.2c0.3,0.1,0.6,0.1,0.9,0.1c-0.3,0.1-0.4,0.3-0.4,0.4
	c0,0.3,0.8,0.6,1.8,0.6c1,0,1.8-0.3,1.8-0.6c0-0.2-0.3-0.4-0.7-0.5c0.1,0,0.1,0,0.2-0.1c0.1-0.2-0.2-0.3-0.4-0.3
	C29.7,30.3,29.5,30.1,29.4,30.1L29.4,30.1z M29.4,30.1"/>
<path class="st4" d="M24.1,22.3c-1,0-1.8,0.3-1.8,0.6c0,0.3,0.8,0.6,1.8,0.6c1,0,1.8-0.3,1.8-0.6C25.9,22.6,25.1,22.3,24.1,22.3
	L24.1,22.3z M32.1,22.4c-1,0-1.8,0.3-1.8,0.6c0,0.3,0.8,0.6,1.8,0.6c1,0,1.8-0.3,1.8-0.6C33.9,22.6,33.1,22.4,32.1,22.4L32.1,22.4z
	 M32.1,22.4"/>
<path class="st5" d="M31.6,13.7C31.6,13.7,31.6,13.7,31.6,13.7c-0.5,0.4-0.5,1.1-0.9,1.5c-1.1,1.3-2.8,1.9-4.3,2.6
	c-1,0.5-2.1,0.8-3.2,1.3c-0.8,0.4-1.6,0.7-2.2,1.2c-0.3,0.3-0.7,0.5-1.1,0.7c-0.4,0.6-1,1-1.6,1.5c-0.2,0.1-0.4,0.2-0.5,0.4
	c-0.2,0.2-0.3,0.4-0.3,0.7c0,1,0.1,1.9,0.4,2.8c-0.3,0-0.4-0.4-0.5-0.7c-0.2-0.6-0.2-1.2-0.3-1.8c-0.2-0.1-0.3,0.2-0.5,0.3
	c-0.3,0.4-0.1,1,0,1.4c0.2,0.6,0.4,1.3,0.8,1.8c0.3,0.2,0.6,0,0.9-0.1c0.2-0.1,0.4-0.3,0.3-0.5c-0.2-1.1-0.5-2.2-0.6-3.4
	c0-0.1,0-0.2,0.1-0.1c0.4,1.3,0.8,2.6,0.9,3.9c0.2,1,0.2,2.1,0.7,3.1c0.2,0.6,0.6,1.1,0.9,1.5c0,0.2,0.3,0.2,0.4,0.4
	c1.8,1.7,4.1,2.7,6.4,3.1c0.7,0.1,1.5,0.2,2.2-0.1c0.5-0.3,0.9-0.7,1.4-1c0.6-0.5,1.3-1,1.8-1.6c0.6-0.8,0.8-1.8,1-2.7
	c0.3-1.7,0.6-3.4,0.7-5.1c0.1-1.3,0.5-2.5,0.4-3.8c-0.1-0.7-0.8-1.1-1.2-1.7c-0.4-0.7-0.5-1.5-1-2.1c-0.6-1.1-0.7-2.4-1.4-3.4
	C31.7,13.7,31.7,13.7,31.6,13.7L31.6,13.7z M32.8,20.1c0.5,0,1,0.3,1.5,0.5c0.1,0.1,0.3,0.2,0.1,0.2c0,0.1,0,0.2-0.2,0.1
	c-0.6-0.3-1.3-0.6-2-0.6c-0.5,0.1-0.9,0.4-1.4,0.6c-0.2,0.1-0.4,0.3-0.7,0.3c0-0.3,0.4-0.4,0.6-0.5c0.4-0.2,0.8-0.5,1.2-0.6
	C32.2,20.1,32.5,20.1,32.8,20.1L32.8,20.1z M24.2,20.3c0.7,0,1.3,0.3,1.9,0.6c0.3,0.1,0.6,0.2,0.8,0.3c-0.1,0.1-0.2,0.3-0.3,0.1
	c-0.5-0.2-1-0.4-1.5-0.6c-0.7-0.2-1.4-0.2-2,0.1c-0.4,0.1-0.7,0.5-1.1,0.5c0-0.3,0.4-0.5,0.6-0.6C23.2,20.5,23.7,20.3,24.2,20.3
	L24.2,20.3z M29.4,21.9c0.1,0.3,0.1,0.7,0.1,1c0.1,1.2,0.7,2.3,1,3.5c-0.3-0.1-0.4-0.5-0.5-0.7c-0.3-0.8-0.7-1.7-0.8-2.6
	C29.2,22.7,29.1,22.3,29.4,21.9C29.3,21.9,29.3,21.9,29.4,21.9L29.4,21.9z M24.4,22.1c0.6,0,1.3,0.2,1.8,0.6
	c0.2,0.3-0.2,0.5-0.4,0.6c-0.5,0.4-1.2,0.5-1.9,0.4c-0.7-0.1-1.4-0.3-1.8-0.9c0-0.2,0.3-0.3,0.5-0.4C23.2,22.3,23.8,22.1,24.4,22.1
	L24.4,22.1z M32.5,22.1c0.6,0,1.3,0.2,1.7,0.7c0.1,0.3-0.3,0.4-0.4,0.6c-0.5,0.4-1.2,0.4-1.9,0.4c-0.7-0.1-1.4-0.3-1.8-0.9
	c0.1-0.2,0.4-0.3,0.6-0.4C31.2,22.2,31.9,22.1,32.5,22.1L32.5,22.1z M30.7,27.3C30.7,27.3,30.7,27.3,30.7,27.3c0.2,0,0.1,0.3,0,0.4
	c-0.2,0.3-0.4,0.6-0.8,0.6c-0.7,0.1-1.3,0.2-2,0c-0.4,0-0.9,0.2-1.1-0.3c0-0.1-0.1-0.4,0-0.5c0.2,0.2,0.3,0.6,0.7,0.5
	c0.5-0.1,1,0.1,1.4,0.2c0.3-0.1,0.6-0.2,0.9-0.2c0.3,0,0.7-0.1,0.7-0.4C30.6,27.4,30.6,27.3,30.7,27.3L30.7,27.3z M32.2,29.7
	c0.1,0.1-0.1,0.2-0.2,0.2c-0.4,0.4-1,0.5-1.5,0.9c-0.1,0.2,0.3,0.2,0.2,0.3c-0.3,0.4-0.8,0.7-1.2,0.8c-0.7,0.1-1.4,0.1-2.1-0.2
	c-0.3-0.1-0.6-0.3-0.8-0.7c-0.5-0.3-1.2-0.4-1.7-0.7c0-0.1,0-0.2,0.1-0.2c0.4,0.1,0.8,0.3,1.1,0.1c0.6-0.2,1.3-0.5,2-0.4
	c0.3,0,0.6,0.4,0.8,0.1c0.4-0.3,1,0.1,1.4,0.1C31.1,30.1,31.7,29.8,32.2,29.7L32.2,29.7z M20.6,32.1L20.6,32.1L20.6,32.1
	c-0.2,0.8,0.1,1.6,0,2.5c0,1.4-0.1,2.8-0.8,4c-0.2,0.2,0,0.4,0.2,0.5c0.3,0.2,0.4,0.6,0.6,0.9c0.4,0.1,0.9-0.1,1.2,0.2
	c0.3,0.1,0.2,0.5,0.5,0.6c0.4,0.1,1,0,1.2,0.4c0.2,0.2,0.2,0.6,0.5,0.6c0.3-0.1,0.7-0.3,1.1-0.2c0.1,0.1,0.3,0.5,0.5,0.3
	c0.4-0.4,1-0.4,1.5-0.2c0.2,0.1,0.2,0.5,0.5,0.4c0.2-0.5,0.7-0.7,1.2-0.6c0.2,0,0.4,0.3,0.5,0c0.1-0.3,0.2-0.7,0.6-0.8
	c0.3-0.2,0.6-0.1,0.9-0.2c0-0.3-0.2-0.5-0.2-0.8c-0.2-1.2,0-2.4,0.1-3.6c0-0.3,0.1-0.7,0-1c-0.2-0.1-0.4,0.2-0.6,0.3
	c-0.7,0.5-1.6,0.4-2.5,0.3c-1.9-0.3-3.6-1.3-5.3-2.2C21.7,33.2,21.2,32.5,20.6,32.1L20.6,32.1z M20.6,32.1"/>
<path class="st6" d="M26.2,10.2c-0.1,0-0.3,0-0.4,0c-1.3,0-2.6,0.4-3.9,0.6c-0.7,0.2-1.5,0.3-2,0.8c-0.1,0.3-0.4,0.6-0.6,0.9
	c-0.7,0.9-1.1,1.9-1.6,2.9c-0.4,0.8-0.6,1.8-1.1,2.6c-0.2,0.9-0.8,1.7-1,2.6c-0.3,1-0.8,1.9-1,2.9c-0.1,0.9-0.1,1.9,0.6,2.6
	c0.6,0.7,1.2,1.4,1.9,1.9c0.3,0.2,0.4-0.3,0.2-0.4c-0.6-1.1-1-2.4-0.9-3.7c0-1.1,0.3-2.2,0.8-3.2c0.5-1.2,1.2-2.3,2.2-3.2
	c1.5-1.5,3.2-2.7,4.7-4.1c0.7-0.4,1.3-0.9,2-1.2c0.8-0.4,1.6-0.5,2.5-0.4c1.1,0.1,2.3,0.5,3.2,1.2c0.3,0.3,0.6,0.6,1,0.8
	c1.1,1.1,1.9,2.4,2.2,3.9c0.1,0.8,0.3,1.7,0.5,2.5c0.1,0.3,0.3-0.1,0.3-0.2c0.3-1.1,0.3-2.2,0-3.2c-0.3-1-0.7-2.1-1.3-2.9
	c-0.8-0.9-1.7-1.7-2.8-2.2c-0.8-0.6-1.8-1.1-2.8-1.1C28,10.4,27.1,10.2,26.2,10.2L26.2,10.2z M18.9,28.2c-0.2,0.1-0.3,0.3-0.3,0.4
	c0.1,0.1,0.3,0.2,0.4,0.1C19.1,28.6,19.1,28.2,18.9,28.2L18.9,28.2z M18.9,28.2"/>
<path class="st3" d="M25.9,7.2c-1.6,0.1-3.2,0.7-4.7,1c-1.3,0.3-2.5,0.6-3.7,1.2c-0.7,0.1-1.1,0.8-1.5,1.2c-0.4,0.5-0.9,1.1-1.2,1.7
	c-0.3,0.5-0.7,1.1-0.8,1.7c0.1,0.3,0.4-0.1,0.6-0.2c1.5-1,3.2-1.8,4.9-2.6c1.2-0.5,2.6-0.7,3.9-1.1c1.4-0.4,3-0.4,4.4-0.3
	c1.1,0.2,2.2,0.1,3.2,0.7c1.1,0.6,2.1,1.2,3,2c0.6,0.5,1.1,1.3,1.5,2c0.3,0.1,0.2-0.3,0.1-0.5c-0.2-1.1-0.6-2.2-1.3-3.1
	c-0.8-1.3-2-2.2-3.3-2.9c-1.3-0.5-2.6-0.9-4-0.9C26.5,7.2,26.2,7.2,25.9,7.2L25.9,7.2z M25.9,7.2"/>
<path class="st6" d="M23.7,5.7c-1.2,0-2.5,0.2-3.5,1c-0.9,0.7-1.9,1.3-2.6,2.2c0,0.3,0.4,0,0.6,0c1.5-0.4,3.1-0.8,4.6-1.3
	c0.7-0.1,1.4-0.3,2.1-0.5c1.6-0.4,3.2,0,4.8,0.4c0.3,0,0.6,0.3,0.9,0.1c-0.4-0.5-1.1-0.7-1.8-1c-1-0.4-2-0.4-3.1-0.7
	C25,5.7,24.3,5.7,23.7,5.7L23.7,5.7z M23.7,5.7"/>
<path class="st4" d="M32.1,22.2c-1,0-1.8,0.3-1.8,0.7c0,0.4,0.8,0.7,1.8,0.7c1,0,1.8-0.3,1.8-0.7C34,22.5,33.2,22.2,32.1,22.2
	L32.1,22.2z M24.2,22.3c-1,0-1.8,0.3-1.8,0.7c0,0.4,0.8,0.7,1.8,0.7c1,0,1.8-0.3,1.8-0.7C26,22.6,25.2,22.3,24.2,22.3L24.2,22.3z
	 M24.2,22.3"/>
<path class="st7" d="M19.8,39c-0.4,0-0.8,0.2-0.8,0.7c0.2,0.4,0.5,0.6,0.9,0.7c0.3,0,0.7-0.4,0.4-0.7c-0.1-0.2,0-0.5-0.3-0.6
	C19.9,39.1,19.8,39,19.8,39L19.8,39z M21.4,40c-0.4,0-0.8,0.2-0.8,0.6c0.2,0.4,0.5,0.6,0.9,0.7c0.3,0,0.7-0.4,0.4-0.7
	c-0.1-0.2,0-0.5-0.3-0.6C21.5,40.1,21.5,40,21.4,40L21.4,40z M30.5,40.6c-0.4,0-0.8,0.2-0.8,0.7c0,0.5,0.2,1,0.9,0.7
	c0.3,0,0.7-0.4,0.4-0.7c-0.1-0.2,0-0.5-0.3-0.6C30.6,40.7,30.6,40.6,30.5,40.6L30.5,40.6z M22.9,40.9c-0.4,0-0.9,0.2-1,0.7
	c0.2,0.4,0.6,0.6,1,0.7c0.4,0,0.8-0.4,0.5-0.7c-0.1-0.2,0-0.5-0.3-0.6C23,41,23,40.9,22.9,40.9L22.9,40.9z M24.8,41.5
	c-0.4,0-0.8,0.2-0.8,0.7c0.2,0.4,0.5,0.6,0.9,0.7c0.3,0,0.7-0.4,0.4-0.7c-0.1-0.2,0-0.5-0.3-0.6C25,41.6,24.9,41.5,24.8,41.5
	L24.8,41.5z M28.7,41.5c-0.4,0-0.8,0.2-0.8,0.7c0.2,0.4,0.5,0.6,0.9,0.7c0.3,0,0.7-0.4,0.4-0.7c-0.1-0.2,0-0.5-0.3-0.6
	C28.8,41.6,28.8,41.5,28.7,41.5L28.7,41.5z M26.7,41.5c-0.4,0-0.9,0.3-0.9,0.7c0.2,0.4,0.6,0.7,1,0.8c0.4,0,0.7-0.5,0.5-0.8
	c-0.1-0.2,0-0.6-0.3-0.6C26.8,41.6,26.8,41.5,26.7,41.5L26.7,41.5z M26.7,41.5"/>
<path class="st8" d="M24.3,5.3c-0.1,0-0.3,0-0.4,0c-0.4,0-0.7,0-1.1,0.1C22,5.4,20.9,5.7,20.4,6c-0.3,0.2-0.7,0.3-0.9,0.3
	c-0.1,0-0.2,0-0.2,0.1c0,0,0,0-0.1,0c0,0-0.2,0-0.4,0.1c-0.2,0.1-0.4,0.2-0.5,0.2c-0.1,0-0.3,0.2-0.6,0.3c-0.4,0.3-0.7,0.5-0.8,0.5
	c0,0-0.2,0.1-0.4,0.2c-0.7,0.4-1.2,0.6-1.9,1c-1.3,0.9-2.4,1.8-2.6,2.3c0,0.1-0.1,0.2-0.2,0.2c-0.1,0-0.2,0.3-0.3,0.5
	c-0.2,0.4-0.3,0.8-0.5,1.7c0,0.3-0.1,0.7-0.1,0.9c0.1,1.2,0.1,1.4,0.1,1.6c0,0.1,0.1,0.3,0.1,0.4c0,0.2,0.2,0.7,0.3,1
	c0,0.1,0.1,0.2,0.1,0.2c0,0,0.1,0.3,0.2,0.5c0.1,0.3,0.2,0.5,0.2,0.8c0,0.2,0.1,0.6,0.1,0.8c0.1,0.5,0.5,1.8,0.6,2
	c0.1,0.1,0.1,0.1,0.1,0.2c0,0,0.1,0.3,0.3,0.6c0.1,0.3,0.3,0.6,0.3,0.6c0,0,0,0.1,0.1,0.1c0,0,0.1,0.2,0.3,0.5
	c0.1,0.3,0.3,0.5,0.3,0.6c0.1,0.1,0.1,0.2,0.1,0.2c0,0.3,0.2,1,0.2,1.1c0,0,0.2,0.2,0.3,0.4c0.1,0.2,0.3,0.4,0.5,0.6
	c0.6,0.6,0.7,0.7,0.7,0.8c0,0,0.3,0.3,0.6,0.6c0.3,0.3,0.6,0.5,0.6,0.6c0,0,0,0.2-0.1,0.3c-0.4,1-0.2,2.3,0.4,3.2
	c0.2,0.3,0.7,0.7,1.3,1c0.5,0.2,0.5,0.3,1,0.3c0.6,0,0.6,0,0.7,0.4c0,1.4,0.1,2.9-0.6,4.2c0,0-0.1,0.1-0.1,0.1c0,0,0,0.1-0.1,0.2
	c-0.1,0.1-0.1,0.2-0.1,0.3c0,0.2-0.1,0.2-0.3,0.3c-0.2,0.1-0.6,0.3-0.6,0.4c0,0,0,0.1,0,0.1c0,0.1-0.1,0.2-0.1,0.3
	c0,0.2-0.1,0.3-0.3,0.5c-0.1,0.1-0.4,0.4-0.5,0.5c-0.7,0.7-0.9,0.9-1,0.9c0,0-0.1,0.1-0.2,0.2c-0.1,0.1-0.4,0.5-0.7,0.8
	c-0.4,0.3-0.5,0.6-0.5,0.6c0,0.1,0.2,0.1,0.3,0.1c0,0,0.1,0,0.1,0c0,0,0.1,0,0.1-0.1c0-0.1,0.2-0.3,0.4-0.5c0.2-0.2,0.4-0.5,0.5-0.6
	c0.1-0.1,0.2-0.2,0.3-0.3c0.2-0.2,0.7-0.7,0.9-1c0.1-0.2,0.5-0.4,0.7-0.6c0.1-0.1,0.2-0.1,0.3,0c0.4,0.2,0.5,0.2,0.8,0.2
	c0.2,0,0.3,0,0.3,0c0,0,0,0.1,0,0.2c0,0.1,0.1,0.2,0.1,0.3c0.1,0.2,0.5,0.5,0.6,0.5c0.1,0,0.2,0,0.2,0c0.1,0,0.2,0,0.3,0
	c0.2,0,0.2,0,0.2,0.2c0,0.1,0.2,0.3,0.3,0.5c0.2,0.2,0.3,0.3,0.6,0.3c0.3,0,0.7-0.1,0.9-0.3c0.1-0.1,0.2-0.1,0.3,0.2
	c0.1,0.2,0.2,0.3,0.2,0.3c0.1,0,0.1,0.1,0.1,0.1c0.1,0.1,0.6,0.2,0.7,0.1c0,0,0.2-0.1,0.3-0.1c0.3-0.1,0.3-0.1,0.4,0
	c0.2,0.2,0.4,0.4,0.6,0.4c0.1,0,0.3,0,0.5,0c0.3-0.1,0.7-0.3,0.6-0.4c0,0,0,0,0,0c0,0,0.1-0.1,0.2-0.1l0.2-0.1l0.2,0.2
	c0.1,0.1,0.2,0.2,0.2,0.1c0,0,0.1,0,0.1,0c0.4,0.3,1.2-0.1,1.3-0.6c0-0.1,0.1-0.1,0.3-0.1c0.1,0,0.3,0.1,0.3,0.1c0,0,0.1,0,0.1,0
	c0.1,0,0.1,0,0.1,0c0,0,0.1,0,0.3-0.1c0.4-0.3,0.6-0.5,0.7-0.8l0-0.2l0.5,0.3c1.2,0.6,2.8,2,4.2,2.1c0.3,0,0.3,0,0.3-0.1
	c0-0.1,0-0.1-0.1-0.1c-0.1,0-0.1,0-0.2,0c0,0-0.1,0-0.1-0.1c0-0.1-0.1-0.1-0.2-0.1c-0.1,0-0.2-0.1-0.2-0.1c-1.6-0.7-3-1.2-4-2.4
	c-0.3-0.3-0.5-0.6-0.5-0.8c0-0.1,0-0.1,0-0.1c0,0-0.1-0.1-0.1-0.2c-0.1-0.3-0.1-2.7,0-3.2c0-0.2,0-0.5,0-0.7c0-0.6,0.1-0.9,0.4-1.1
	c0.1-0.1,0.3-0.2,0.4-0.3c0.1-0.1,0.3-0.3,0.5-0.4c0.5-0.4,1.4-1,1.5-1.6c0,0,0-0.1,0.1-0.2c0.1-0.1,0.4-0.8,0.5-1.4
	c0.1-0.2,0.1-0.6,0.1-0.7c0-0.1,0.1-0.4,0.1-0.6c0-0.2,0.1-0.5,0.1-0.6c0.1-0.4,0.3-1.5,0.3-1.6c0,0,0-0.2,0-0.3
	c0.1-0.3,0.1-0.5,0.1-1c0-0.2,0-0.6,0.1-0.8c0-0.5,0.3-1.9,0.3-2c0-0.1,0.2-1.2,0.2-1.6c0-0.4,0-0.4,0.1-0.5c0.1,0,0.3-0.3,0.4-0.7
	c0,0,0-0.1,0.1-0.3c0.2-0.7,0.1-1.9,0-2.7c-0.2-1.3-0.4-2.2-0.4-3.3c0-0.1,0-0.1,0-0.2c0,0,0-0.1-0.1-0.2c0-0.1,0-0.2,0-0.2
	c0-0.1-0.3-0.9-0.5-1.2c-0.1-0.1-0.1-0.3-0.1-0.3c0,0-0.6-1-0.7-1.1c0,0-0.1-0.1-0.2-0.2c-0.2-0.3-0.3-0.4-0.6-0.8
	c-0.2-0.2-0.3-0.4-0.4-0.4c-0.1-0.2-0.8-0.7-1.1-0.8c-0.3-0.2-0.5-0.3-0.7-0.7c-0.1-0.1-0.2-0.3-0.3-0.4c-0.4-0.4-0.6-0.5-0.6-0.5
	c0,0-0.1-0.1-0.2-0.2C30.1,6.7,30,6.6,30,6.6c0,0,0,0,0,0c0,0-0.1-0.1-0.3-0.2c-0.1-0.1-0.3-0.1-0.3-0.2c-0.4-0.2-1.2-0.4-1.9-0.5
	c-0.1,0-0.3-0.1-0.3-0.1c0,0-0.1-0.1-0.2-0.1c-0.1,0-0.1,0-0.2,0C26.3,5.4,25.3,5.3,24.3,5.3L24.3,5.3z M24,5.7c0.5,0,1,0,1,0
	c0,0,0.1,0,0.3,0.1c0.2,0,0.3,0,0.4,0.1c0,0,0.1,0,0.1,0c0,0,0.2,0,0.4,0.1c0.2,0.1,0.6,0.1,0.8,0.2c0.4,0,0.6,0.1,0.7,0.1
	c0,0,0.1,0,0.1,0c0,0,0.1,0,0.2,0.1c0.1,0,0.2,0.1,0.3,0.1c0.1,0,0.2,0,0.3,0.1c0.1,0.1,0.2,0.1,0.2,0.1c0,0,0.3,0.1,0.6,0.3
	c0.6,0.3,0.9,0.5,0.9,0.6c0,0.1-0.3,0-0.5-0.1c-0.1,0-0.2-0.1-0.3-0.1c-0.1,0-0.4-0.1-0.6-0.1C28.7,7.1,28.4,7,28.2,7
	C28,7,27.8,7,27.8,7c-0.1,0-0.5-0.1-1.3-0.1c-0.6-0.1-1.4,0-2,0.2C24.3,7.1,24,7.2,24,7.2c-0.1,0.1-0.5,0.1-0.7,0.1
	c-0.1,0-0.2,0-0.2,0c0,0-0.2,0.1-0.3,0.1c-0.1,0-0.4,0.1-0.6,0.1c-0.4,0.2-0.9,0.3-1.1,0.3C21,8,20.9,8,20.9,8
	c-0.1,0-0.2,0.1-0.3,0.1c-0.1,0-0.2,0.1-0.3,0.1c-0.1,0.1-0.3,0.1-0.4,0.1c-0.1,0-0.3,0-0.3,0.1c-0.1,0-0.1,0.1-0.2,0
	c0,0-0.1,0-0.1,0c-0.1,0.1-0.3,0.1-0.7,0.2c-0.1,0-0.4,0.1-0.6,0.2c-0.2,0.1-0.4,0.2-0.5,0.2c0,0,0,0,0-0.1c0-0.1,0-0.1,0.1-0.1
	c0,0,0.1-0.1,0.2-0.2c0.2-0.2,0.6-0.6,1-1c0.1-0.1,0.3-0.2,0.5-0.3c0.1-0.1,0.4-0.2,0.5-0.4c0.2-0.2,0.3-0.3,0.3-0.2c0,0,0,0,0.1,0
	c0.1-0.1,0.5-0.4,0.7-0.4c0.1,0,0.1-0.1,0.1-0.1c0-0.1,0.5-0.3,0.7-0.2c0.1,0,0.1,0,0.1-0.1c0,0,0.1-0.1,0.2-0.1
	c0.1,0,0.2,0,0.3-0.1c0.1,0,0.3-0.1,0.5-0.1c0.2,0,0.4-0.1,0.4-0.1C23,5.7,23.5,5.7,24,5.7L24,5.7z M19.1,6.9
	C19.1,6.9,19.2,6.9,19.1,6.9c0.1,0.1,0,0.1,0,0.1c-0.1,0-0.3,0.2-0.9,0.7c-1.3,1.1-2.2,2.1-2.9,3.2c-0.3,0.5-0.6,1-0.7,1.1
	c-0.3,0.5-0.6,0.9-0.7,1.3c-0.1,0.3-0.3,0.6-0.3,0.8c-0.1,0.2-0.2,0.4-0.2,0.5c0,0.1-0.1,0.2-0.1,0.3c-0.2,0.4-0.3,0.6-0.3,0.7
	c0,0-0.1,0.2-0.2,0.5c-0.2,0.4-0.2,0.6-0.4,1.1c0,0.1-0.1,0.3-0.1,0.3c0,0.1-0.3-0.3-0.3-0.4c0-0.1,0-0.2-0.1-0.2
	c-0.1-0.1-0.2-1-0.2-1.7c0-0.2,0-0.5-0.1-0.5c0-0.1-0.1-0.5-0.1-0.5c0,0,0.1-0.5,0.2-1.2c0-0.1,0.1-0.3,0.1-0.4
	c0.1-0.1,0.1-0.2,0.1-0.3c0-0.1,0-0.2,0.1-0.2c0-0.1,0.1-0.2,0.1-0.2c0-0.1,0.3-0.5,0.5-0.7c0,0,0.1-0.1,0.2-0.2
	c0.1-0.2,1.1-1.1,1.2-1.1c0,0,0.1-0.1,0.2-0.2c0.1-0.1,0.3-0.2,0.4-0.3c0.2-0.1,0.3-0.2,0.3-0.2c1.6-0.9,1.5-0.7,2.7-1.5
	c0,0,0,0,0,0c0,0,0.7-0.3,0.8-0.4C18.5,7,19,6.9,19.1,6.9L19.1,6.9z M26,7.3c0.1,0,0.2,0,0.3,0c0.1,0,0.3,0,0.4,0
	c0.5,0.1,0.8,0.1,1.3,0.1c0.2,0,0.5,0.1,0.5,0.1c0.1,0,0.2,0.1,0.2,0.1c0.1,0,0.2,0,0.2,0c0,0,0.2,0.1,0.4,0.1
	c0.2,0,0.4,0.1,0.4,0.1c0,0,0.1,0,0.1,0c0,0,0.1,0,0.3,0.1c0.1,0.1,0.3,0.1,0.4,0.1c0.1,0,0.2,0.1,0.4,0.1c0.3,0.2,1.4,0.9,1.6,1
	c0.4,0.3,1.6,1.6,1.6,1.7c0,0,0.1,0.2,0.3,0.4c0.1,0.2,0.3,0.5,0.3,0.6c0.1,0.1,0.1,0.2,0.1,0.3c0.2,0.3,0.5,1,0.5,1.4
	c0,0.2,0.1,0.5,0.1,0.5c0.1,0.5,0.1,0.7,0,0.7c0,0-0.1-0.1-0.1-0.1c0-0.1,0-0.2-0.1-0.2c0,0-0.1-0.2-0.2-0.4
	c-0.1-0.2-0.2-0.3-0.2-0.3c-0.1,0-0.3-0.4-0.3-0.4c0-0.1-1.2-1.2-1.5-1.4c-0.2-0.1-0.4-0.3-0.5-0.3c0,0-0.2-0.1-0.3-0.2
	c-0.1-0.1-0.4-0.2-0.5-0.3c-0.3-0.3-0.5-0.4-0.6-0.4c-0.1,0-0.1,0-0.1-0.1c0-0.1-0.8-0.4-0.9-0.4c0,0-0.1,0-0.2-0.1
	c-0.3-0.1-0.5-0.2-1.2-0.2c-0.3,0-0.7-0.1-0.8-0.1c-0.1,0-0.4-0.1-0.6-0.1c-0.5-0.1-2.2,0-2.6,0c-0.2,0-0.5,0.1-0.7,0.1
	c-0.2,0-0.3,0.1-0.4,0.1c-0.2,0-0.5,0.1-0.5,0.2c0,0-0.1,0-0.1,0c0,0-0.2,0-0.4,0.1c-0.2,0-0.5,0.1-0.6,0.1c-0.2,0-0.2,0-1,0.3
	c-0.3,0.1-0.7,0.2-0.8,0.2c-0.4,0.1-0.8,0.3-1.2,0.5c-1.7,0.8-2,0.9-3.9,2.1c0,0.1-0.1,0.1-0.2,0.1c0,0-0.1,0-0.1,0.1
	c0,0,0,0.1-0.1,0.1c0,0-0.1,0-0.2,0.1c-0.1,0.1-0.6,0.4-0.6,0.4c-0.1,0,0-0.1,0.1-0.5c0.1-0.2,0.2-0.5,0.3-0.6
	c0.1-0.1,0.2-0.2,0.2-0.2c0,0,0.1-0.2,0.2-0.4C14.9,12.2,15,12,15,12c0-0.1,0.1-0.2,0.1-0.2c0.1-0.1,0.1-0.1,0.1-0.2
	c0,0,0-0.1,0.1-0.1c0,0,0.2-0.1,0.3-0.3c0.1-0.2,0.2-0.3,0.3-0.3c0,0,0.1,0,0.1-0.1c0,0,0.1-0.2,0.2-0.3c0.1-0.1,0.2-0.3,0.3-0.3
	c0,0,0.2-0.2,0.3-0.3c0.2-0.1,0.3-0.2,0.4-0.3c0,0,0.2-0.1,0.3-0.1c0.2,0,0.5-0.1,0.6-0.3c0.1-0.1,0.3-0.2,0.8-0.3
	c0.2-0.1,0.5-0.1,0.7-0.2C19.8,8.7,20,8.6,20,8.6c0,0,0.2,0,0.3-0.1c0.1-0.1,0.3-0.1,0.4-0.1c0.1,0,0.2,0,0.2,0c0,0,0.8-0.2,1.2-0.3
	C22.2,8,22.5,8,22.5,7.9c0.1,0,0.2,0,0.3-0.1c0.1,0,0.5-0.1,0.8-0.2c0.3-0.1,0.7-0.2,0.8-0.2c0.1,0,0.4-0.1,0.6-0.1
	C25.3,7.3,25.7,7.3,26,7.3L26,7.3z M25.9,10.2C25.9,10.2,26,10.2,25.9,10.2c0.2,0.1,0.3,0.1,0.3,0.1c0.5,0,0.8,0,0.9,0.1
	c0.2,0.1,0.9,0.2,1.6,0.2c0.5,0,1,0.1,1.1,0.2c0,0,0.2,0.1,0.4,0.2c0.2,0.1,0.4,0.2,0.5,0.3c0.1,0.1,0.2,0.1,0.2,0.1
	c0,0,0.8,0.5,1,0.7c0,0,0.1,0,0.1,0c0,0,0.2,0.1,0.8,0.5c0.5,0.4,1.4,1.2,1.7,1.7c0.6,0.9,1.2,2.6,1.4,3.8c0.1,0.5-0.2,2.3-0.4,2.3
	c-0.1,0-0.1-0.2-0.2-0.5c-0.1-0.6-0.1-0.7-0.2-0.9c-0.1-0.3-0.3-1.3-0.3-1.6c0-0.1,0-0.1-0.1-0.1c0,0-0.1-0.1-0.1-0.3
	c0-0.2-0.1-0.3-0.1-0.4c-0.1-0.1-0.2-0.4-0.4-0.7c-0.2-0.3-0.3-0.6-0.3-0.6c0,0-0.1,0-0.1-0.1c0,0-0.1-0.2-0.2-0.3
	c-0.1-0.1-0.2-0.2-0.1-0.2c0,0,0-0.1-0.1-0.1c0,0-0.1-0.1-0.1-0.2c0-0.1,0-0.1-0.1-0.1c0,0-0.1-0.1-0.2-0.2
	c-0.1-0.2-0.5-0.5-0.7-0.5c0,0-0.1,0-0.1-0.1c0-0.1-0.2-0.3-0.3-0.3c-0.1,0-0.2-0.2-0.2-0.2c0,0,0-0.1-0.1-0.1
	c-0.1,0-0.1-0.1-0.1-0.1c0-0.1-0.5-0.4-1.1-0.6c-0.3-0.1-0.6-0.3-0.7-0.3c-0.1-0.1-0.2-0.1-0.3-0.1c-0.1,0-0.3,0-0.4-0.1
	c-0.2-0.1-0.6-0.1-1.1-0.1c-0.7,0-0.8,0-1.4,0.2c-0.6,0.2-0.9,0.3-1.5,0.7c-0.2,0.1-0.3,0.2-0.8,0.6c-0.1,0.1-0.2,0.1-0.2,0.1
	c0,0-0.1,0-0.2,0.1c0,0-0.2,0.2-0.4,0.3c-0.2,0.1-0.4,0.4-0.6,0.5c-0.4,0.4-0.7,0.6-1,0.9c-0.2,0.1-0.3,0.3-0.4,0.3
	c0,0-0.6,0.5-0.8,0.6c-0.7,0.5-1.3,1.1-1.5,1.3c-0.1,0.2-0.3,0.3-0.3,0.3c0,0-0.1,0.1-0.2,0.2c-0.2,0.2-0.4,0.5-0.6,0.7
	c-0.3,0.3-0.7,1.1-0.9,1.5c-0.3,0.7-0.3,0.8-0.4,0.9c-0.1,0.1-0.4,0.8-0.5,1.2c0,0.2-0.1,0.6-0.1,0.8c0,0.2-0.1,0.5-0.1,0.5
	c-0.1,0.1,0,1.8,0.1,2.1c0.1,0.2,0.1,0.4,0.1,0.5c0.1,0.2,0.1,0.4,0.3,0.8c0.3,0.6,0.4,0.8,0.5,0.9c0.1,0.1,0.1,0.1,0,0.2
	c-0.1,0.1-0.1,0.1-0.4,0c-0.1-0.1-0.3-0.2-0.3-0.2c0,0,0-0.1-0.1-0.1c-0.1,0-0.4-0.3-0.6-0.6c-0.1-0.1-0.3-0.4-0.5-0.6
	c-0.5-0.5-0.7-0.9-0.8-1.6c0-0.3-0.1-0.5-0.1-0.5c0,0,0-0.2,0.1-0.5c0.1-0.7,0.1-0.7,0.2-1c0.1-0.1,0.2-0.5,0.3-0.8
	c0.1-0.3,0.2-0.6,0.2-0.7c0-0.1,0.1-0.2,0.1-0.2c0-0.1,0-0.2,0.1-0.3c0-0.1,0.1-0.2,0.1-0.3c0-0.1,0-0.1,0.1-0.1
	c0.1-0.1,0.3-0.9,0.3-1c0-0.1,0-0.1,0.1,0c0,0,0.1,0,0,0c0,0,0-0.1,0.1-0.2c0.1-0.1,0.1-0.2,0.1-0.2c0,0,0.1-0.2,0.1-0.3
	c0.1-0.1,0.1-0.2,0.1-0.3c0,0,0-0.2,0.1-0.3c0.1-0.1,0.1-0.3,0.1-0.3c0-0.1,0-0.1,0.1-0.2c0.1-0.1,0.4-0.6,0.3-0.6
	c0,0,0-0.1,0.1-0.3c0.1-0.2,0.2-0.3,0.2-0.4c0,0,0-0.1,0-0.1c0,0,0.1-0.2,0.2-0.5c0.1-0.3,0.2-0.6,0.3-0.7c0.2-0.5,0.5-0.9,0.6-1.1
	c0.1-0.1,0.1-0.2,0.1-0.3c0-0.1,0.1-0.2,0.1-0.2c0,0,0.1-0.1,0.1-0.1c0-0.1,0-0.1,0.1-0.1c0.1,0,0.4-0.4,0.4-0.6
	c0-0.1,0.1-0.1,0.1-0.1s0.1,0,0.1-0.1c0.1-0.2,0.2-0.3,0.4-0.5c0.1-0.1,0.2-0.2,0.2-0.3c0-0.1,0-0.1,0.1-0.1c0.1,0,0.2,0,0.3-0.1
	c0.4-0.2,1.1-0.4,1.3-0.4c0.1,0,0.2,0,0.3-0.1c0.1-0.1,0.3-0.1,0.5-0.1c0.2,0,0.4-0.1,0.5-0.1c0.3-0.1,0.6-0.1,0.7-0.1
	c0,0,0.2,0,0.4-0.1c0.2-0.1,0.4-0.1,0.6-0.1c0.2,0,0.4,0,0.5-0.1c0.1,0,0.3,0,0.5,0C25.7,10.3,25.8,10.2,25.9,10.2
	C25.9,10.2,25.9,10.2,25.9,10.2L25.9,10.2z M19.3,11.7c0.1,0,0.1,0,0,0.1c0,0.1-0.1,0.2-0.2,0.2c-0.1,0.1-0.1,0.1-0.1,0.2
	c0,0-0.1,0.2-0.2,0.4c-0.1,0.2-0.3,0.5-0.4,0.6c-0.5,0.8-0.9,1.7-1.2,2.4c-0.3,0.8-0.3,0.9-0.4,0.9c0,0,0,0,0,0.1
	c0,0-0.1,0.2-0.2,0.4c-0.1,0.2-0.3,0.6-0.4,0.9c-0.1,0.3-0.2,0.6-0.3,0.6c-0.1,0.1-0.2,0.3-0.4,0.9c-0.1,0.3-0.2,0.4-0.3,0.8
	c-0.1,0.2-0.2,0.5-0.3,0.8c-0.1,0.2-0.1,0.5-0.2,0.5c0,0.1-0.1,0.3-0.2,0.6c-0.2,0.7-0.4,1.3-0.5,1.3c-0.1,0-0.4-0.4-0.4-0.5
	c0,0-0.1-0.2-0.2-0.4c-0.1-0.2-0.2-0.4-0.2-0.5c0-0.1-0.1-0.3-0.1-0.5c0-0.2-0.1-0.3-0.1-0.3c0,0-0.1-0.1-0.1-0.3
	c-0.1-0.2-0.2-0.4-0.2-0.6c-0.1-0.2-0.1-0.4-0.1-0.5c0-0.1,0-0.2-0.1-0.2c0,0-0.1-0.3-0.1-0.5c0-0.2,0-0.5-0.1-0.6
	c0-0.1,0-0.2,0-0.2c0,0,0-0.2,0-0.4c0-0.2,0-0.5,0-0.5c0-0.1,0.1-0.3,0.1-0.5c0-0.2,0.1-0.4,0.2-0.5c0.1-0.1,0.1-0.2,0.1-0.3
	c0-0.2,0.1-0.4,0.2-0.4c0,0,0.1,0,0.1-0.1c0,0,0.1-0.1,0.1-0.2c0.1-0.1,0.1-0.2,0.1-0.2c0,0,0,0,0,0c0,0,0.1,0,0.1-0.1
	c0-0.1,1.2-1.3,1.3-1.3c0,0,0.2-0.1,0.3-0.2c0.1-0.1,0.2-0.2,0.2-0.2c0.9-0.6,2.2-1.2,3.1-1.6c0,0,0.1-0.1,0.1-0.1
	c0.1,0,0.1,0,0.2-0.1c0-0.1,0.1-0.1,0.1-0.1s0.1,0,0.2-0.1C19,11.8,19.1,11.7,19.3,11.7C19.2,11.7,19.3,11.7,19.3,11.7L19.3,11.7z
	 M27.9,12.1c0.1,0,0.2,0,0.2,0c0,0,0.1,0,0.1,0c0.6,0.1,1.1,0.1,1.2,0.1c0.1,0,0,0.1-0.3,0.5c-0.4,0.4-1.5,1.1-2.3,1.5
	C26.1,14.6,25.2,15,25,15c-0.1,0-0.2,0.1-0.3,0.1c-0.1,0-0.3,0.1-0.4,0.2c-0.2,0.1-0.7,0.3-1.1,0.5c-0.4,0.2-0.9,0.4-1.1,0.5
	c-0.3,0.2-1.2,0.7-1.4,0.9c-0.1,0.1-0.4,0.3-0.6,0.5c-0.6,0.4-0.7,0.5-1.1,0.9c-0.2,0.2-0.4,0.3-0.4,0.3c-0.1,0,0-0.1,0.2-0.3
	c1-1,1.7-1.8,1.8-1.8c0.1,0,0.2-0.2,0.3-0.2c0.1-0.1,0.2-0.2,0.2-0.2c0,0,0.2-0.1,0.3-0.3c0.6-0.5,1.1-0.9,1.1-0.9
	c0,0,0.1,0,0.1-0.1c0-0.1,0.1-0.1,0.1-0.1s0.1-0.1,0.2-0.2c0-0.1,0.2-0.2,0.3-0.3c0.1-0.1,0.3-0.3,0.5-0.4c0.2-0.2,0.3-0.3,0.3-0.2
	c0,0,0.1-0.1,0.2-0.2c0.1-0.1,0.2-0.2,0.3-0.2c0,0,0.1-0.1,0.2-0.2c0.1-0.1,0.3-0.2,0.3-0.2c0.1,0,0.2-0.1,0.2-0.1
	c0,0,0.2-0.1,0.3-0.2c0.1-0.1,0.4-0.2,0.6-0.3c0.4-0.2,0.7-0.3,1.1-0.3c0.2,0,0.3,0,0.3,0C27.8,12.1,27.8,12.1,27.9,12.1L27.9,12.1z
	 M30,12.6C30,12.6,30,12.6,30,12.6c0.1,0,0.2,0.1,0.2,0.1c0,0-0.6,0.9-0.7,1c-0.3,0.4-1.1,1.2-1.5,1.4c-0.4,0.3-1,0.7-1.8,1
	c-0.2,0.1-0.5,0.2-0.7,0.3c-0.2,0.1-0.5,0.2-0.6,0.3c-0.3,0.1-1.1,0.4-1.4,0.6c-0.1,0.1-0.5,0.2-0.8,0.3c-0.3,0.1-0.6,0.3-0.7,0.3
	c-0.1,0.1-0.3,0.2-0.5,0.3c-1.1,0.5-2.3,1.3-2.8,1.8c-0.2,0.2-0.4,0.4-0.4,0.4c-0.1,0-0.6,0.5-0.9,0.9c-0.2,0.2-0.2,0.2,0-0.2
	c0.3-0.5,1.1-1.4,1.9-2.1c0.1-0.1,0.3-0.3,0.5-0.4c0.2-0.2,0.4-0.4,0.5-0.4c0.1-0.1,0.3-0.2,0.4-0.3c0.1-0.1,0.3-0.2,0.4-0.3
	c0.1,0,0.2-0.1,0.2-0.1c0,0,0-0.1,0.1-0.1c0,0,0.1-0.1,0.2-0.2c0.1-0.1,0.3-0.2,0.4-0.3c0.2-0.1,0.4-0.2,0.5-0.3
	c0.2-0.1,0.3-0.2,0.4-0.2c0.1,0,0.2-0.1,0.3-0.1c0.1,0,0.4-0.2,0.6-0.3c0.3-0.1,0.5-0.2,0.5-0.2c0,0,0.1,0,0.2,0
	c0.1,0,0.1,0,0.1-0.1c0-0.1,0.1-0.1,0.2-0.1c0.1,0,0.2-0.1,0.3-0.1c0.1-0.1,0.2-0.1,0.3-0.1c0.2,0,0.7-0.2,0.7-0.3
	c0,0,0.1-0.1,0.2-0.1c0.1,0,0.3-0.1,0.3-0.1c0,0,0.1-0.1,0.1-0.1c0,0,0.2-0.1,0.4-0.2c0.2-0.1,0.3-0.2,0.3-0.2c0,0,0.1,0,0.2-0.1
	c0.1-0.1,0.3-0.1,0.3-0.1c0,0,0.1-0.1,0.1-0.1c0.1-0.1,0.1-0.1,0.2-0.1c0,0,0.2-0.1,0.3-0.2c0.1-0.1,0.2-0.2,0.3-0.2
	c0,0,0.2-0.2,0.4-0.4C29.8,12.7,29.9,12.6,30,12.6L30,12.6z M30.7,12.9c0.1,0,0.2,0,0.3,0.1c0.2,0.1,0.2,0.1,0.2,0.2
	c0,0.2-0.9,1.9-1.1,2.2c-0.1,0.1-0.3,0.3-0.5,0.3c-0.1,0.1-0.3,0.2-0.3,0.2c0,0-0.2,0.2-0.4,0.3c-0.6,0.3-0.7,0.4-0.8,0.4
	c0,0-0.1,0.1-0.1,0.1c-0.1,0-0.3,0.1-0.6,0.2c-0.3,0.1-0.7,0.3-0.9,0.4c-0.7,0.2-0.8,0.3-1.7,0.6c-0.5,0.2-1.1,0.4-1.3,0.5
	c-0.3,0.1-0.5,0.2-0.5,0.2c0,0-0.4,0.2-0.8,0.4c-0.4,0.2-0.8,0.4-0.9,0.5c-0.1,0.1-0.2,0.2-0.4,0.2c-0.1,0.1-0.3,0.2-0.5,0.3
	c-0.1,0.1-0.4,0.3-0.6,0.4c-0.2,0.1-0.3,0.3-0.3,0.3c0,0-0.2,0.2-0.4,0.4c-0.6,0.5-1.1,1-1.4,1.3c-0.2,0.2-0.4,0.3-0.5,0.4
	c-0.1,0.1-0.2,0.1-0.2,0.1c0,0,0-0.1,0.1-0.2c0.2-0.6,0.4-0.9,0.8-1.3c0.7-0.7,1.3-1.3,1.3-1.3c0,0,0.1-0.1,0.3-0.2
	c0.1-0.1,0.2-0.2,0.3-0.2c0,0,0.1-0.1,0.2-0.1c0.1-0.1,0.2-0.1,0.2-0.1c0,0,0.1-0.1,0.2-0.1c0.1-0.1,0.2-0.2,0.3-0.2
	c0.1,0,0.2-0.1,0.3-0.2c0.4-0.3,1.5-0.8,2.1-1c0.3-0.1,0.8-0.3,1-0.4c0.2-0.1,0.5-0.2,0.6-0.3c0.2-0.1,0.6-0.2,0.6-0.3
	c0.2,0,0.7-0.3,0.7-0.3c0,0,0.1-0.1,0.1,0c0,0,0.1,0,0.2-0.1c0.1-0.1,0.2-0.1,0.2-0.1c0.2,0,1.8-0.9,1.9-1c0,0,0-0.1,0.1-0.1
	c0.1,0,0.8-0.7,0.8-0.7c0,0,0-0.1,0.1-0.1c0.1,0,0.1-0.1,0.1-0.1c0-0.1,0-0.1,0.1-0.1c0.1,0,0.7-0.6,0.8-1
	C30.3,13.3,30.6,13,30.7,12.9C30.7,12.9,30.7,12.9,30.7,12.9L30.7,12.9z M31.6,13.7l0.1,0.1c0.1,0.1,0.1,0.2,0.1,0.2
	c0,0,0.1,0.2,0.1,0.4c0.1,0.3,0.2,0.6,0.3,0.8c0,0,0,0.1,0,0.1c0,0,0.1,0.3,0.2,0.6c0.1,0.3,0.2,0.6,0.3,0.7
	c0.1,0.1,0.1,0.3,0.1,0.4c0,0.1,0.1,0.1,0.1,0.1c0,0,0,0,0,0.1c0,0,0,0.1,0.1,0.2c0.1,0.1,0.2,0.3,0.2,0.5c0.1,0.2,0.2,0.4,0.2,0.5
	c0,0.1,0.1,0.2,0.1,0.2c0,0.1,0.2,0.6,0.3,0.7c0.1,0,0.2,0.2,0.2,0.3c0,0.1,0.2,0.3,0.4,0.5c0.5,0.4,0.6,0.7,0.6,1.1
	c0,0.4-0.2,1.6-0.3,2.2c0,0.2-0.1,0.6-0.1,0.8c0,0.2-0.1,0.6-0.1,0.8c0,0.3-0.1,0.7-0.1,1.1c0,0.3-0.1,0.8-0.1,1.1
	c0,0.2-0.1,0.7-0.1,0.9c-0.1,0.4-0.2,1-0.4,2.2c0,0.2-0.1,0.5-0.1,0.6c-0.1,0.4-0.1,0.5-0.4,1.2c-0.3,0.6-0.5,0.8-1,1.2
	c-0.2,0.1-0.4,0.3-0.6,0.5c-0.3,0.3-0.6,0.5-0.9,0.7c-0.1,0.1-0.4,0.2-0.6,0.4c-0.5,0.5-0.8,0.6-1.8,0.5c-0.8,0-1-0.1-1.7-0.2
	c-1.8-0.4-3.9-1.4-5.1-2.5c-0.2-0.2-0.4-0.4-0.5-0.5C21.2,32,21,31.9,21,31.9c0,0,0,0,0,0c0,0-0.1-0.1-0.2-0.3
	c-0.1-0.1-0.2-0.3-0.3-0.4c-0.2-0.4-0.6-1.1-0.6-1.2c0-0.1,0-0.1-0.1-0.2c-0.1-0.1-0.4-1.2-0.4-1.8c-0.1-0.6-0.1-1.2-0.2-1.3
	c0,0,0-0.2-0.1-0.4c0-0.4-0.1-0.7-0.2-1.2c-0.1-0.2-0.1-0.5-0.1-0.6c0-0.2-0.2-0.8-0.3-1c0-0.1-0.1-0.3-0.1-0.4
	c0-0.2-0.2-0.3-0.2-0.2c-0.1,0.1,0,0.6,0.1,1.3c0.1,0.3,0.2,0.8,0.2,1c0,0.2,0.1,0.4,0.1,0.5c0,0.1,0.2,1,0.2,1.1
	c0,0.1-0.1,0.1-0.5,0.3c-0.5,0.2-0.5,0.2-0.6,0.1c-0.2-0.2-0.7-1.3-0.9-2c0-0.1-0.1-0.4-0.1-0.5c0-0.1,0-0.3,0-0.3
	c0-0.1,0-0.2,0-0.2c0-0.1,0-0.1,0.1-0.1c0.1,0,0.2-0.1,0.3-0.2l0.1-0.2l0,0.3c0,0.2,0,0.4,0.1,0.6c0,0.1,0.1,0.4,0.1,0.5
	c0,0.3,0.2,0.9,0.3,1.1c0.1,0.1,0.2,0.2,0.3,0.2c0.1,0,0.1,0,0.1,0c0-0.1-0.1-0.6-0.2-0.6c0,0-0.1-0.2-0.1-0.5
	c0-0.2-0.1-0.5-0.1-0.6c0-0.1-0.1-0.3-0.1-0.3c0-0.4,0-0.7,0-0.9c0-0.1,0-0.2,0.2-0.4c0.1-0.1,0.2-0.3,0.2-0.3c0,0,0,0,0,0
	c0.1,0,0.5-0.3,0.6-0.4c0,0,0.2-0.2,0.4-0.4c0.5-0.4,1-0.9,1-1c0,0,0,0,0,0c0,0,0.3-0.2,0.6-0.4c0.7-0.5,1-0.8,1-0.7
	c0,0,0.1,0,0.2-0.1c0.1-0.1,0.2-0.1,0.3-0.1c0,0,0.2-0.1,0.3-0.1c0.1-0.1,0.3-0.2,0.4-0.2c0.1,0,0.3-0.1,0.4-0.2
	c0.1-0.1,0.2-0.2,0.3-0.2c0.1,0,0.2-0.1,0.3-0.1c0.1,0,0.2-0.1,0.3-0.1c0.1,0,0.2-0.1,0.2-0.1c0.1,0,0.1,0,0.2-0.1
	c0.1,0,0.4-0.1,0.8-0.3c0.2-0.1,0.4-0.2,0.5-0.2c0,0,0.1,0,0.2-0.1c0.1,0,0.3-0.1,0.5-0.2c0.2-0.1,0.5-0.3,0.7-0.3
	c0.2-0.1,0.3-0.1,0.3-0.1c0,0,0.1,0,0.2-0.1c0.3-0.2,0.8-0.4,0.8-0.4c0,0,0.2-0.1,0.5-0.3c0.3-0.2,0.6-0.3,0.7-0.4
	c0.3-0.2,0.5-0.3,0.9-0.8c0.1-0.1,0.2-0.2,0.3-0.2c0,0,0.1-0.1,0.1-0.2c0-0.1,0.1-0.2,0.1-0.3c0.1-0.1,0.1-0.2,0.1-0.2
	c0-0.1,0-0.2,0.1-0.2c0,0,0.1-0.1,0-0.1c0,0,0-0.1,0-0.1c0,0,0.1,0,0.1-0.1c0-0.1,0.1-0.2,0.1-0.2L31.6,13.7z M32.6,14.2
	c0.1,0,0.3,0.2,0.5,0.5c0.1,0.1,0.2,0.3,0.2,0.3c0.1,0.1,0.3,0.4,0.3,0.5c0,0,0.1,0.1,0.1,0.2c0.1,0.2,0.6,1,0.7,1.4
	c0,0.1,0.1,0.6,0.2,1.1c0.1,0.5,0.2,1,0.2,1.1c0,0.1,0,0.3,0,0.3c-0.1,0.1-0.2,0.1-0.2-0.1c0-0.1-0.1-0.2-0.2-0.2
	c-0.1-0.1-0.2-0.3-0.3-0.6c-0.1-0.2-0.2-0.5-0.2-0.6c0-0.1-0.1-0.2-0.1-0.2c0-0.1-0.1-0.3-0.2-0.5c-0.1-0.2-0.2-0.4-0.2-0.5
	c0-0.1-0.1-0.2-0.1-0.2c0,0-0.1-0.1-0.1-0.1c0,0,0-0.2-0.1-0.4c-0.1-0.2-0.2-0.5-0.3-0.8c-0.1-0.2-0.2-0.4-0.2-0.5
	c0-0.1-0.1-0.2-0.1-0.2c0-0.1,0-0.2-0.1-0.3C32.5,14.2,32.5,14.2,32.6,14.2L32.6,14.2z M23,16C23.1,16,23.1,16,23,16
	c0,0.1,0,0.2,0,0.2C23,16.2,23,16.1,23,16C23,16,23,16,23,16L23,16z M32.4,20c-0.4,0-0.8,0.1-0.9,0.2c-0.1,0-0.3,0.2-0.5,0.3
	c-0.2,0.1-0.6,0.3-0.7,0.4c-0.3,0.2-0.3,0.4-0.2,0.4c0.1,0,0.3,0,0.4-0.1c0.2-0.2,0.4-0.3,0.5-0.3c0.1,0,0.3-0.1,0.4-0.2
	c0.6-0.4,0.8-0.4,1.5-0.2c0.4,0.1,0.4,0.1,0.5,0.1c0,0,0.1,0.1,0.3,0.1c0.1,0.1,0.4,0.2,0.5,0.2c0.2,0,0.2,0,0.2-0.1
	c0-0.1,0-0.1,0.1-0.1c0,0,0.1,0,0.1,0c0-0.1-0.3-0.4-0.4-0.4c-0.1,0-0.1,0-0.2-0.1c-0.1,0-0.1-0.1-0.2-0.1c0,0-0.2-0.1-0.4-0.1
	C33.2,20.1,33.1,20,33,20c0,0-0.1,0-0.1,0s-0.2,0-0.4,0C32.5,20,32.5,20,32.4,20L32.4,20z M24.1,20.2c-0.1,0-0.1,0-0.1,0
	c-0.9,0.2-1.6,0.4-1.9,0.7C22,21,22,21.1,22,21.2c0,0.1,0,0.2,0.2,0.2c0.1,0,0.2-0.1,0.3-0.1c0.1-0.1,0.1-0.1,0.2-0.1
	c0,0,0.1,0,0.1,0c0-0.1,0.6-0.3,1-0.4c0.4-0.1,1.1-0.1,1.4,0.1c0.1,0.1,0.3,0.1,0.3,0.1c0.1,0,0.2,0.1,0.2,0.1
	c0.1,0,0.3,0.2,0.6,0.2c0.3,0.1,0.5,0.2,0.5,0.2c0,0.1,0.1,0.1,0.2-0.1c0.1-0.1,0.2-0.2,0.1-0.2c0,0-0.2-0.1-0.4-0.1
	c-0.2-0.1-0.5-0.1-0.5-0.1c-0.1,0-0.1,0-0.1-0.1c0,0-0.2-0.1-0.4-0.2C25.2,20.4,24.5,20.2,24.1,20.2L24.1,20.2z M29.3,21.9
	c-0.1,0-0.1,0.1-0.2,0.5c0,0.2,0,0.4-0.1,0.4c-0.2,0.6,1.2,4.4,1.5,3.7c-0.3-0.9-0.8-2.1-1-3c0-0.2-0.1-0.6-0.1-0.9
	c0-0.5,0-0.6-0.1-0.6C29.4,21.9,29.4,21.9,29.3,21.9C29.3,21.8,29.3,21.8,29.3,21.9L29.3,21.9z M32.4,22c-0.2,0-0.3,0-0.5,0
	c-0.4,0-1,0.2-1.1,0.3c-0.1,0-0.2,0.1-0.3,0.1c-0.1,0-0.3,0.1-0.4,0.2c-0.1,0.1-0.2,0.2-0.2,0.2c0,0.1,0.3,0.4,0.6,0.6
	c0.5,0.3,1.7,0.5,2.3,0.4c0.4-0.1,0.4-0.1,0.5-0.1c0,0,0.1-0.1,0.1,0c0,0,0.1,0,0.1-0.1c0-0.1,0.1-0.1,0.1-0.1c0,0,0.3-0.2,0.5-0.4
	c0.2-0.2,0-0.5-0.6-0.8C33.3,22.1,32.9,22,32.4,22L32.4,22z M24.5,22c-0.1,0-0.3,0-0.5,0c-0.4,0-1,0.2-1.1,0.3
	c-0.1,0-0.2,0.1-0.3,0.1c-0.1,0-0.3,0.1-0.4,0.2c-0.1,0.1-0.2,0.2-0.2,0.2c0,0.1,0.3,0.4,0.6,0.6c0.5,0.3,1.7,0.5,2.3,0.4
	c0.3-0.1,0.4-0.1,0.5-0.1c0.1,0,0.1-0.1,0.1,0c0,0,0.1,0,0.1-0.1c0-0.1,0.1-0.1,0.1-0.1c0.1,0,0.3-0.2,0.5-0.4
	c0.2-0.2,0-0.5-0.6-0.8C25.3,22.1,24.9,22,24.5,22L24.5,22z M32.9,22.5C32.9,22.5,32.9,22.5,32.9,22.5c0.4,0.1,0.7,0.2,0.8,0.3
	c0.1,0.1-0.5,0.5-0.7,0.5c0,0,0,0-0.1,0c0.1-0.1,0.1-0.3,0.1-0.4C33,22.8,33,22.6,32.9,22.5L32.9,22.5z M24.9,22.5
	C24.9,22.5,25,22.5,24.9,22.5c0.4,0.1,0.7,0.2,0.8,0.3c0.1,0.1-0.5,0.5-0.7,0.5c0,0,0,0-0.1,0c0.1-0.1,0.1-0.3,0.1-0.4
	C25.1,22.8,25,22.6,24.9,22.5L24.9,22.5z M31.2,22.7c0.1,0,0.1,0,0.1,0.1c0,0,0,0.1,0,0.1c0,0.1,0,0.2,0.1,0.3c0,0-0.1,0-0.2,0
	c-0.1,0-0.3-0.1-0.4-0.2c-0.2-0.1-0.2-0.2-0.1-0.2c0.1,0,0.1,0,0.2-0.1C31,22.7,31.1,22.7,31.2,22.7L31.2,22.7z M23.2,22.7
	c0.1,0,0.1,0,0.1,0.1c0,0,0,0.1,0,0.1c0,0.1,0,0.2,0.1,0.3c0,0-0.1,0-0.2,0c-0.1,0-0.3-0.1-0.4-0.2c-0.2-0.1-0.2-0.2-0.1-0.2
	c0.1,0,0.1,0,0.2-0.1C23,22.7,23.1,22.7,23.2,22.7L23.2,22.7z M30.8,27.2c0,0-0.1,0-0.1,0c-0.1,0-0.1,0.1-0.2,0.3
	c-0.1,0.4-0.2,0.5-0.7,0.5c-0.3,0-0.5,0-0.6,0.1c-0.2,0.1-0.3,0.1-0.8,0c-0.3-0.1-0.5-0.1-0.9-0.1c-0.2,0-0.2,0-0.4-0.2
	c-0.1-0.2-0.2-0.3-0.3-0.2c-0.1,0.1,0,0.4,0,0.6c0.1,0.2,0.5,0.4,0.8,0.3c0.4-0.1,0.7,0.1,1.1,0.1c0.3,0,0.5,0,0.6-0.1
	c0.1,0,0.3-0.1,0.4-0.1c0.1,0,0.3,0,0.5-0.1c0.2-0.1,0.3-0.1,0.5-0.4C31,27.5,31,27.2,30.8,27.2L30.8,27.2z M18.7,27.6
	c0.2,0,0.1,0.2-0.2,0.5c-0.2,0.2-0.3,0.4-0.4,0.5c0,0.1-0.1,0.3-0.2,0.4c-0.2,0.3-0.2,0.8-0.1,1.2c0.1,0.3,0.2,0.8,0.4,1
	c0,0.1,0.2,0.2,0.3,0.3c0.2,0.1,0.4,0.2,0.5,0.2c0.1,0,0.2,0.1,0.3,0.1c0.1,0,0.2,0,0.2,0.1c0,0,0.1,0,0.1,0c0.1-0.1,0.1,0,0.2,0
	c0.1,0,0.2,0.1,0.2,0.1c0.1,0,0.1,0.1,0.1,0.3c0,0.4,0,0.4-0.4,0.4c-0.2,0-0.9-0.2-0.9-0.2c0,0-0.1-0.1-0.3-0.2
	c-0.3-0.2-0.8-0.6-1-0.8c-0.1-0.2-0.2-0.4-0.2-0.5c0-0.1,0-0.1,0-0.1c0,0-0.1-0.2-0.1-0.5c-0.1-0.6-0.1-1,0.1-1.4
	c0.1-0.2,0.1-0.4,0.1-0.4c0,0,0.1-0.1,0.1-0.2c0.1-0.1,0.1-0.2,0.1-0.2c0-0.1,0.5-0.5,0.7-0.5C18.5,27.6,18.6,27.6,18.7,27.6
	L18.7,27.6z M18.9,28.2c0,0,0.1,0.1,0.1,0.2c0,0.2,0,0.2-0.1,0.2c-0.2,0-0.2-0.1-0.1-0.3C18.8,28.3,18.9,28.2,18.9,28.2L18.9,28.2z
	 M18.4,29c0,0,0.1,0,0.1,0.1c0,0,0.2,0.1,0.3,0.1c0.3,0,0.4,0.1,0.4,0.3c0,0.2,0.8,1.9,0.9,2c0,0,0,0.1,0,0.1c0,0.1-0.4,0.1-0.7,0
	c-0.9-0.4-1.6-1.2-1.2-2.2C18.3,29.2,18.3,29.1,18.4,29C18.3,29,18.4,29,18.4,29L18.4,29z M18,29.5C18,29.5,18,29.5,18,29.5
	c0.1,0,0.1,0.1,0.1,0.1c0,0,0,0-0.1,0C18,29.6,18,29.6,18,29.5C18,29.5,18,29.5,18,29.5L18,29.5z M32.2,29.7c-0.1,0-0.2,0-0.3,0.1
	c-0.4,0.1-0.8,0.2-1.1,0.3c-0.3,0-0.4,0-0.8-0.1c-0.5-0.2-0.6-0.2-0.9,0.1l-0.2,0.1L28.6,30c-0.3-0.2-0.7-0.2-1.1-0.1
	c-0.1,0.1-0.5,0.2-0.8,0.2c-0.3,0.1-0.6,0.2-0.6,0.2c-0.1,0.1-0.5,0.1-0.8-0.1c-0.1-0.1-0.3-0.1-0.4-0.1c-0.1,0-0.1,0.3,0,0.4
	c0.5,0.2,1,0.4,1.6,0.6c0,0,0.1,0.1,0.1,0.2c0.5,0.7,2.2,1,3,0.8c0.2-0.1,0.8-0.4,1-0.6c0.3-0.3,0.3-0.4,0.2-0.5
	c-0.1-0.1-0.2-0.1-0.4,0.1c-0.4,0.4-0.5,0.4-1,0.5c-0.3,0.1-0.6,0.1-0.6,0.1c-0.1,0-0.2,0-0.3-0.1c-0.2,0-0.8-0.2-0.9-0.3
	c-0.1-0.1,0-0.2,0.1-0.2c0.1,0,0.3-0.1,0.4-0.1c0.2-0.1,0.3-0.1,0.7-0.1c0.8,0.1,1,0.1,1,0c0,0,0,0,0.1,0c0.1,0.1,0.1,0,0.3,0
	c0.1,0,0.3-0.1,0.3-0.1c0,0,0.1,0,0.2-0.1c0.1,0,0.2-0.1,0.2-0.1c0,0,0.2-0.1,0.3-0.1c0.1-0.1,0.3-0.2,0.6-0.3
	C32.3,30,32.5,29.7,32.2,29.7L32.2,29.7z M29.4,30.2c0.1,0,0.2,0,0.3,0.1c0.1,0.1,0.2,0.1,0.3,0.1c0.1,0,0.2,0,0.3,0.1
	c0.1,0.1,0.1,0.1-0.1,0.1c-0.1,0-0.4,0-0.5,0c-0.2,0-0.4,0-0.4,0c-0.2,0-0.2-0.1,0-0.2C29.2,30.2,29.3,30.2,29.4,30.2L29.4,30.2z
	 M27.8,30.3c0.3,0,0.6,0.1,0.5,0.2c-0.1,0.1-0.5,0.2-1,0.2c-0.3,0-0.5-0.1-0.6-0.1c0,0,0-0.1,0.1-0.1c0.1,0,0.1,0,0.1-0.1
	c0,0,0-0.1,0.1-0.1c0.1,0,0.1,0,0.1,0c0,0,0.1-0.1,0.2-0.1c0.1,0,0.3,0,0.4-0.1C27.8,30.3,27.8,30.3,27.8,30.3L27.8,30.3z
	 M20.6,32.1c0.1,0,0.5,0.4,0.5,0.4c0,0,0.1,0.1,0.2,0.2c0.1,0.1,0.4,0.3,0.5,0.5c1.1,0.6,2.6,1.5,4.1,2c1.2,0.4,2.4,0.7,3.4,0.4
	c0.3-0.1,0.7-0.3,0.9-0.5c0.4-0.3,0.4-0.2,0.2,1.2c0,0.3-0.1,1-0.1,1.7c0,1.2,0,1.6,0.2,2c0.1,0.1,0.1,0.2,0.1,0.2c0,0-0.1,0-0.3,0
	c-0.3,0-0.5,0.1-0.8,0.3c-0.2,0.2-0.3,0.3-0.4,0.7c-0.1,0.3-0.1,0.3-0.2,0.2c-0.4-0.4-1.2-0.3-1.4,0.2c-0.1,0.1-0.1,0.2-0.2,0.2
	c0,0-0.1-0.1-0.1-0.2c-0.1-0.3-0.3-0.4-0.8-0.4c-0.4,0-0.7,0.1-0.9,0.3l-0.2,0.2l-0.1-0.2c-0.2-0.3-0.3-0.3-0.5-0.3
	c-0.1,0-0.4,0.1-0.6,0.2c-0.3,0.2-0.4,0.2-0.4,0.1c0-0.1-0.1-0.2-0.1-0.2c-0.1-0.1-0.1-0.2-0.2-0.2c-0.1-0.2-0.3-0.4-0.4-0.4
	c-0.1,0-0.1,0-0.2-0.1c0,0-0.2-0.1-0.5-0.1c-0.4,0-0.5-0.1-0.5-0.2c0-0.1-0.1-0.2-0.2-0.3c-0.2-0.2-0.7-0.4-0.9-0.3
	c-0.1,0-0.2,0.1-0.3,0c-0.1,0-0.2,0-0.2-0.3c0-0.3-0.3-0.5-0.6-0.7c-0.2-0.1-0.2-0.2-0.1-0.2c0.1,0,0.4-0.7,0.5-1.1
	c0.2-0.7,0.3-1.5,0.3-2.1c0-0.5,0-1.1,0-1.2c0-0.1,0-0.2,0-0.2c0,0,0,0,0-0.1c0-0.1,0.1-0.2,0-0.3C20.6,33.6,20.6,32.1,20.6,32.1
	L20.6,32.1z M19.7,39.1c0,0,0.1,0,0.1,0c0,0,0.1,0,0.1,0c0,0,0,0,0.1,0c0.1-0.1,0.2,0.1,0.2,0.3c0,0.1,0,0.2,0.1,0.2
	c0.2,0.1,0.1,0.4-0.1,0.5c-0.3,0.2-0.6,0.1-0.9-0.2c-0.1-0.1-0.2-0.3-0.2-0.3c0-0.1,0.2-0.4,0.3-0.5C19.4,39.2,19.6,39.1,19.7,39.1
	L19.7,39.1z M21.2,40.3c0.4,0,0.6,0.2,0.6,0.6c0,0.2,0,0.2-0.2,0.3c-0.2,0.1-0.6,0-0.8-0.2c-0.3-0.3-0.2-0.6,0.2-0.7
	C21.1,40.3,21.2,40.3,21.2,40.3L21.2,40.3z M30.5,40.8c0.1,0,0.2,0.1,0.2,0.2c0,0,0,0.1,0.1,0.1c0.2,0.1,0.2,0.3-0.1,0.6
	c-0.2,0.2-0.3,0.3-0.5,0.2c-0.1,0-0.3,0-0.3-0.1c-0.1-0.1-0.1-0.5,0-0.7C30,40.9,30.3,40.8,30.5,40.8L30.5,40.8z M22.8,41.1
	c0.1,0,0.3,0.1,0.4,0.1c0.2,0.2,0.2,0.3,0.1,0.6c-0.1,0.1-0.5,0.3-0.6,0.3c-0.3-0.1-0.4-0.1-0.5-0.3c0-0.1-0.1-0.2-0.1-0.4
	c0-0.2,0-0.2,0.2-0.3C22.6,41.2,22.7,41.1,22.8,41.1L22.8,41.1z M28.5,41.8c0.1,0,0.2,0,0.3,0.1c0.1,0.1,0.2,0.2,0.3,0.3
	c0.1,0.2,0,0.2-0.1,0.3c-0.1,0.1-0.2,0.2-0.4,0.1c-0.1,0-0.3-0.1-0.4-0.2c-0.2-0.2-0.2-0.4,0-0.5C28.3,41.8,28.4,41.8,28.5,41.8
	L28.5,41.8z M26.6,41.8c0.3,0,0.4,0,0.6,0.3l0.1,0.2L27,42.6c-0.2,0.2-0.3,0.3-0.5,0.3c-0.2,0-0.3,0-0.4-0.1c-0.2-0.2-0.2-0.5,0-0.8
	C26.3,41.8,26.4,41.8,26.6,41.8L26.6,41.8z M24.9,41.8c0.1,0,0.1,0,0.1,0.1c0.2,0.5,0.2,0.6-0.1,0.7c-0.2,0.1-0.4,0-0.6-0.1
	c-0.1-0.1-0.1-0.2-0.1-0.3c0-0.1,0.1-0.2,0.2-0.3C24.6,41.9,24.8,41.8,24.9,41.8L24.9,41.8z M24.9,41.8"/>
</svg>
