<svg xmlns="http://www.w3.org/2000/svg" viewBox="0 0 49.6 49.6"><defs><style>.cls-1{fill:#e3eaea;}.cls-2{fill:#edf1f1;}.cls-3{fill:#b69564;stroke:#b69564;}.cls-4{fill:#f1e5d2;}.cls-5{fill:#f3d1a2;}.cls-6{fill:#bda69a;}.cls-7{fill:#eebaa7;}.cls-8{fill:#322722;}</style></defs><g id="圖層_2" data-name="圖層 2"><g id="_0-ori" data-name="0-ori"><g id="圖層_2-2" data-name="圖層 2"><g id="圖層_1-2" data-name="圖層 1-2"><g id="Outline"><path id="Path_64394" data-name="Path 64394" class="cls-1" d="M48.9,24.8A24.1,24.1,0,1,1,24.8.7,24.1,24.1,0,0,1,48.9,24.8Z"/><path id="Path_64395" data-name="Path 64395" class="cls-2" d="M27.6,3.5A24.11,24.11,0,0,0,9.3,43.3,24.13,24.13,0,0,0,43.1,9.1,24.62,24.62,0,0,0,27.6,3.5Z"/><path id="Path_64396" data-name="Path 64396" class="cls-3" d="M24.8.5A24.3,24.3,0,1,0,49.1,24.8h0A24.34,24.34,0,0,0,24.8.5Zm0,.4A23.9,23.9,0,1,1,.9,24.8,23.9,23.9,0,0,1,24.8.9Z"/></g></g></g><path class="cls-4" d="M22.91,7.71h-.2a2.23,2.23,0,0,0-1.4.3,4.37,4.37,0,0,1-1.8.9,11.5,11.5,0,0,0-2.3,2.1,6.9,6.9,0,0,0-1.3,2,8.8,8.8,0,0,1-.5,1.5c.2.3,0,.5-.1.8A4.67,4.67,0,0,0,15,17c.2.6-.6,1.1-.3,1.7s0,1.3.5,1.6c.4-.1.6.5.3.7a1,1,0,0,0-.9,1.3,15.93,15.93,0,0,1,1.5,2.9c.4.6-.3,1.1-.4,1.7a1.33,1.33,0,0,0,1.9,1.4c.3-.2.5.1.5.4a5.77,5.77,0,0,0,1.8,2.5,10.52,10.52,0,0,1-1,5.2c-1.4,2.1-3.9,3-6.1,4-.1,0-.8.2-.4.4a17.18,17.18,0,0,0,2.9-1.1c.4-.1,1-.7,1.4-.3,2.6,2.1,5.1,4.2,7.9,6.1.4.2.9.9,1.3.4,1.7-1.7,3.3-3.6,4.9-5.4.7-.7,1.2-1.6,2-2.3a33.74,33.74,0,0,0,3.4.9c.3,0,.8.4.9,0-1.1-.7-2.4-.6-3.5-1.2a8.14,8.14,0,0,1-2.8-2.4,14.56,14.56,0,0,1-.6-4.6,9.38,9.38,0,0,1,.6-1.5c.3-.4.3-1.3.9-1.1a1.55,1.55,0,0,0,1.8-.8c.4-.6-.1-1.2-.4-1.8a10.43,10.43,0,0,1,.8-2.5c.1-.7.7-1.4.4-2-.4-.1-.2-.6,0-.8s-.1-.6-.1-.2a.31.31,0,0,1-.6.1c.2-.5.9-.7.7-1.3a9.86,9.86,0,0,1-.3-2.4c-.1-.6-.2-1.3-.3-1.9-.3-.5-.4-1.1-.7-1.6a13,13,0,0,0-1-1.5,21.1,21.1,0,0,0-2.3-1.9c-.5-.1-.8-.5-1.3-.7-1.1-.3-2.1-1.1-3.3-1-.7.1-1.4-.3-2.2-.3Zm9.9,18.4c.2,0,.3.2.4.3a1,1,0,0,1-.5,1.4.84.84,0,0,1-1.2-.3,1.16,1.16,0,0,1,.4-1c.4,0,.6-.3.9-.4Zm-16.2,0c.2,0,.5.3.7.3s.4.5.5.8a.45.45,0,0,1-.4.7,1,1,0,0,1-1.2-.5,1,1,0,0,1,.2-1.3Z"/><path class="cls-5" d="M22.91,7.71h-.2a2.23,2.23,0,0,0-1.4.3,4.37,4.37,0,0,1-1.8.9,11.5,11.5,0,0,0-2.3,2.1,6.9,6.9,0,0,0-1.3,2,8.8,8.8,0,0,1-.5,1.5c.2.3,0,.5-.1.8A4.67,4.67,0,0,0,15,17c.2.6-.6,1.1-.3,1.7s0,1.2.5,1.6l1.9-.3c0-.9.1-1.9.1-2.4,0-3.5,4.8-6,7.8-4.3,2.1-2.3,8,.8,8,4.3,0,.7.2,2,.2,3.2l1,.1a.76.76,0,0,1,.2-.4c.2-.1-.1-.6-.1-.2a.31.31,0,0,1-.6.1c.2-.5.9-.7.7-1.3a9.86,9.86,0,0,1-.3-2.4c-.1-.6-.2-1.3-.3-1.9-.3-.5-.4-1.1-.7-1.6a13,13,0,0,0-1-1.5,21.1,21.1,0,0,0-2.3-1.9c-.5-.1-.8-.5-1.3-.7-1.1-.3-2.1-1.1-3.3-1-.8,0-1.5-.4-2.3-.4Z"/><path class="cls-6" d="M17.91,19.71c-.4,0-.3.5-.3.8a6.15,6.15,0,0,0,.9,2.9c.2.3.6-.1.7-.3a25.25,25.25,0,0,1,2.1-2.5c.2-.1.1.3,0,.3-.6.7-1.2,1.5-1.8,2.2-.2.3-.6.5-.5.8a4.48,4.48,0,0,0,2.8.1,2.24,2.24,0,0,0,1.6-1.4,4.45,4.45,0,0,0,.3-2.3c-1.5-.2-2.9-.3-4.4-.5a6.15,6.15,0,0,0-1.4-.1Zm13.5.2h-1.2a17.9,17.9,0,0,0-4,.2c-.4.1-.4.6-.4.9a5.45,5.45,0,0,0,1.2,2.4c.3.1.4-.3.6-.4a25.25,25.25,0,0,1,2.1-2.5c.2-.1,0,.2,0,.3-.2.3-.5.5-.6.8-.5.7-1.2,1.3-1.7,2.1.1.3.5.2.8.3a7.1,7.1,0,0,0,2.9-.5,3.2,3.2,0,0,0,1-1.9,3.89,3.89,0,0,0,.2-1.5,2,2,0,0,0-.9-.2Zm-2.8.6h0a6.9,6.9,0,0,1-1.6,1.8c-.2.1.1-.2.1-.3.5-.5.9-1.2,1.5-1.5Zm-8.4,0c0,.1-.3.3-.4.5a5,5,0,0,1-1.2,1.3,5.38,5.38,0,0,1,.9-1.2c.2-.2.4-.5.7-.6Zm-1.1.1c.3.1-.2.3-.2.5l-.5.5a1.83,1.83,0,0,1,.7-1Zm8.4,0c.2.2-.2.4-.2.5-.2.1-.4.4-.5.4a1.5,1.5,0,0,1,.7-.9Zm-5,.2a13.65,13.65,0,0,1-1.9,2.3c-.1,0-.4.4-.4.2.2-.3.5-.6.7-.9.6-.6.9-1.2,1.6-1.6Zm8.4,0c0,.2-.3.4-.4.6a8.13,8.13,0,0,1-1.8,1.9c.4-.7,1-1.3,1.5-2,.2-.1.4-.4.7-.5Zm.5,1.1h0c.1.3-.2.5-.3.6-.3.2-.4.5-.7.6a4.81,4.81,0,0,1,.9-1.1.1.1,0,0,1,.1-.1Zm-8.4,0h0c.2.1-.1.3-.2.4-.3.3-.5.7-.9.8a6.53,6.53,0,0,1,1.1-1.2Z"/><path class="cls-7" d="M24.21,27.61c-.1,0-.2.1-.3.2s-.4.4-.1.4a4.48,4.48,0,0,0,2.3,0c.1-.3-.3-.4-.5-.5s-.7.2-1,.2a.54.54,0,0,0-.4-.3Zm1.9,1h-1.6c-.3.1-.6-.1-.9.1,0,.3.4.4.6.6a1.51,1.51,0,0,0,1.9-.2c.4-.3.3-.5,0-.5Z"/><path class="cls-7" d="M31.51,36.91c-.8.6-1.1,1.5-1.8,2.2l-4.9,5.5c.2.3.6.9,1,1,2-2.1,3.9-4.2,5.7-6.4.3-.5,1-.9.9-1.5-.2-.4-.5-.8-.9-.8ZM18,38h0c-.4.2-1,.5-.9,1,2.2,1.6,4.2,3.3,6.3,5,.5.5,1.1.7,1.5,0,.4-.2.3-.6-.1-.8-2.3-1.8-4.4-3.6-6.8-5.2Z"/><path class="cls-8" d="M22.91,7.61a3.34,3.34,0,0,0-1.5.3c-.2.1-.8.6-.9.6a1,1,0,0,1-.3.1.6.6,0,0,0-.4.1,1.14,1.14,0,0,0-.6.3.35.35,0,0,1-.2.1c-.1,0-.2.2-.4.4a2.18,2.18,0,0,1-.4.5l-.3.3-.5.5a3.4,3.4,0,0,0-.8,1c0,.1-.3.6-.4.6s-.3.4-.3.6v.2c.1.1.1.1,0,.1l-.2.2c0,.1-.1.2-.2.3-.2.3-.3.8,0,.6s.1,0-.1.3-.3.4-.3.7a2.44,2.44,0,0,1-.1.7c-.1,0-.1.4-.1.5a.1.1,0,0,0,.1.1c.2,0,.1.1,0,.3a2.11,2.11,0,0,0-.4,1c.1.3.1.4.2.5s.1.2.1.5c0,.5,0,.6.2.8s.2.1.4.1h.2v.6h-.3a.66.66,0,0,0-.7.6l-.1.4.1.4c.1.2.3.5.4.7a6.5,6.5,0,0,1,.9,1.7l.2.6a.62.62,0,0,1-.1.7,2.46,2.46,0,0,0-.4,1.1c0,.3.2.9.4.9a.1.1,0,0,1,.1.1,3,3,0,0,0,1,.4c.1,0,.2,0,.2-.1a.35.35,0,0,0,.2-.1c.1,0,.1,0,.2-.1a.19.19,0,0,1,.3.1c0,.1,0,.2.1.2a1.69,1.69,0,0,0,.2.5l.3.6a1.44,1.44,0,0,1,.2.3,3,3,0,0,0,1,.9c.2.2.3.3.3,1.3a4.51,4.51,0,0,1-.1,1.3,1,1,0,0,1-.1.4,4.33,4.33,0,0,0-.1.5c-.1.2-.1.5-.2.7a.76.76,0,0,1-.2.5,1,1,0,0,1-.1.3,9.35,9.35,0,0,1-1.6,2,16.41,16.41,0,0,1-2.9,1.6c-.3.1-1.4.6-1.6.7s-.2.1-.3.1a.27.27,0,0,0-.3.3c0,.1.1.1.2.1a8.46,8.46,0,0,0,1.7-.6.77.77,0,0,1,.3-.1c.1,0,.4-.2,1.3-.6l.7-.3.2.2c.2.2.5.4,1,.8a2.18,2.18,0,0,0,.5.4c1.6,1.2,3.1,2.5,4.8,3.7a.1.1,0,0,1,.1.1c.1.1.2.2.3.2a.35.35,0,0,1,.2.1h.1a4.62,4.62,0,0,1,1,.7l.5.5.4.2c.2,0,.7-.4,1.4-1.3a16.68,16.68,0,0,1,1.4-1.5c.1-.1.3-.3.3-.4s.3-.4.6-.7.6-.7.8-.9.3-.4.4-.5.8-.9,1-1.2a10,10,0,0,1,1.3-1.5c.1-.1.1-.1.4.1.5.2,1.2.4,1.9.6.3.1.7.1.7.2s.2.1.3.1a4.33,4.33,0,0,0,.5.1c.3.1.5.1.5,0v-.2l-.1-.1a.31.31,0,0,1-.2-.1,10.38,10.38,0,0,0-1.3-.4,14.31,14.31,0,0,1-1.8-.5l-1.5-1-.1-.1a.31.31,0,0,1-.2-.1l-.3-.3a2.71,2.71,0,0,1-1.2-2.2.44.44,0,0,0-.1-.3v-.4a.58.58,0,0,1-.1-.4v-.6a3.87,3.87,0,0,0-.1-.9c0-.4,0-.7-.1-.8a.37.37,0,0,1,.1-.3.37.37,0,0,0,.1-.3,1.69,1.69,0,0,1,.2-.5c.1-.2.2-.3.2-.4a.31.31,0,0,1,.1-.2,6.31,6.31,0,0,0,.4-.9c0-.1.2-.1.3,0a2,2,0,0,0,.5.1,1.27,1.27,0,0,0,1.1-.5,1.2,1.2,0,0,0,.4-1.2.76.76,0,0,0-.2-.5c-.4-.5-.4-.5-.3-.7s.2-.5.3-.8l.6-1.8.2-.4a.31.31,0,0,1,.1-.2,3.55,3.55,0,0,0,.2-1,.78.78,0,0,0-.4-.4c-.1,0-.1,0,0-.2.3-.4.4-.6.2-.8s-.2,0-.2.2-.1.3-.2.3c-.3.7-.3.7-.3.6s0-.1-.2-.2a.31.31,0,0,0-.2-.1.35.35,0,0,1,.2-.1l.2-.2c.1,0,.2-.2.3-.3s.2-.3.2-.6a4.33,4.33,0,0,0-.1-.5c-.1-.1-.1-.2-.1-.5a1.08,1.08,0,0,0-.1-.6c-.1-.1-.1-.2,0-.4a1.15,1.15,0,0,0-.1-1,1.08,1.08,0,0,1-.1-.6,2.13,2.13,0,0,0-.3-1.2c-.1-.1-.2-.2-.2-.3a.6.6,0,0,0-.1-.4,2.31,2.31,0,0,0-.6-.9c-.1,0-.1-.1-.1-.2a2.12,2.12,0,0,0-.3-.7c-.3-.3-.4-.4-.6-.4l-.2-.2a2.94,2.94,0,0,0-.8-.8c-.1,0-.2-.1-.4-.3-.4-.4-.6-.5-.7-.4s-.1,0-.3-.2c-.3-.4-.5-.4-1-.6a4.65,4.65,0,0,1-.9-.3,3.77,3.77,0,0,0-1.6-.5,2.49,2.49,0,0,0-.8.1.85.85,0,0,1-.7,0,1.27,1.27,0,0,0-.6-.1c-.2,0-.3,0-.4-.1s-.2-.1-.3-.1Zm0,.4a4,4,0,0,1,1.5.3,3.56,3.56,0,0,1,1,.6,4,4,0,0,1,.7.7.35.35,0,0,1,.1.2c.1.1.2.2.2.3s.1.3.2.3l.1.1a1,1,0,0,1,.1.4,1.38,1.38,0,0,0,.3.4c.2,0,.2-.1,0-.5a8,8,0,0,0-1.8-2.5l-.1-.1c0-.1.7,0,1,0a5.17,5.17,0,0,1,1.3.6c.1.1.2.3.3.4-.1.2,0,.3,0,.4a4.55,4.55,0,0,1,.1,1.4c0,.3,0,.4.1.5s.2-.1.3-.5a.75.75,0,0,1,.1-.5,3,3,0,0,0-.2-1,.35.35,0,0,0-.1-.2c-.1-.1-.1-.3,0-.3a2.51,2.51,0,0,1,.7.4c0-.1,0,0,.1,0H29a.77.77,0,0,0,.1.3c.1.2.1.3.1.8a1.8,1.8,0,0,1-.3,1.2c-.1.3-.1.4,0,.5s.2,0,.2-.2a.76.76,0,0,1,.2-.4,2.68,2.68,0,0,0,.3-1.3c0-.4.1-.6.1-.5a.1.1,0,0,0,.1.1c.1,0,.3.2.4.4a2.88,2.88,0,0,1,.1,1.3,1.69,1.69,0,0,1-.2.5c-.3.3-.3.6-.2.6s.3-.1.3-.2a.31.31,0,0,1,.1-.2,1.9,1.9,0,0,0,.4-1.2,1,1,0,0,1,.1-.4c.1,0,.3.3.4.4s.1.3.1.4a5.27,5.27,0,0,1-.3,1.2.76.76,0,0,0-.2.4c-.1.2,0,.2.1.2a.54.54,0,0,0,.4-.3c0-.1.1-.2.1-.3a1.07,1.07,0,0,0,.2-.6,1.75,1.75,0,0,0,.1-.5c.1-.1.4.2.5.4a1.49,1.49,0,0,1,.1.6,3,3,0,0,1-.4,1.1,1.42,1.42,0,0,0-.2.6c0,.1.1.1.2,0a5.62,5.62,0,0,0,.7-1.3c0-.2.3,0,.4.3a1.06,1.06,0,0,1-.2,1.2c-.5.5-.6.6-.4.8s.2,0,.4-.2c0-.1.1-.2.2-.3s.2-.2.2-.3.2-.1.3.1c.2.4.1.9-.5,1.5-.3.4-.3.5-.2.6s.2,0,.5-.4l.3-.3a.35.35,0,0,1,.1.2c.1.3-.2.8-.6,1.1-.2.1-.3.4-.1.4s.1,0,.2-.1l.1-.1a.31.31,0,0,0,.2-.1h.3a.44.44,0,0,1,.1.3v.4a1,1,0,0,1-.6.5c-.2.1-.3.3-.2.4s.5,0,.7-.2l.2-.2c.1,0,.1.2.1.4s0,.3-.2.4a.76.76,0,0,1-.5.2c-.2.1-.3.1-.3.2s-.3.1-.4,0a1,1,0,0,0-.4-.1,14.32,14.32,0,0,0-3-.1h-2.9a1,1,0,0,1-.3.1c-.1,0-.4.1-.5.1a4.52,4.52,0,0,1-1.2,0l-3-.2a15.13,15.13,0,0,0-2.6-.2c-1,0-1.5,0-1.5.1s-.2.1-.6.1h-.6c-.1-.1.3-.4.5-.4s.4,0,.4-.1-.3-.2-.6-.2-.3,0-.5.3l-.3.3v-.3a1.79,1.79,0,0,1,.6-1l.3-.3h.2a.62.62,0,0,1,.7.2q.15.3.3,0c0-.1-.4-.5-.6-.6a.37.37,0,0,1-.3-.1,1.72,1.72,0,0,0-.7.4c-.1.1-.2.2-.2.1l-.6.6h0c-.1,0,0-.5.1-.8a.49.49,0,0,0,.1-.3c0-.2.7-.6,1-.7a1.22,1.22,0,0,1,.9.2c.1.1.1.1.2.1a.1.1,0,0,1,.1.1.1.1,0,1,0,.1-.1v-.1a1.44,1.44,0,0,0-.2-.3c-.2-.2-.2-.2-.6-.3h-.6a1.49,1.49,0,0,0-.7.3.35.35,0,0,1-.2.1c-.1,0-.1,0-.1-.2s.1-.3.3-.5a2.77,2.77,0,0,1,.9-.5c.1,0,.7.1.9.1.5.1.6.1.3-.2a1.33,1.33,0,0,0-1-.3,1.7,1.7,0,0,0-.7.1c-.3.2-.4.2-.4.1a3.11,3.11,0,0,1,.4-.6.31.31,0,0,0,.2-.1c.1,0,.2-.2.3-.3l.2-.2.7.1a5.38,5.38,0,0,1,.8.1c.1,0,.1,0,.1.1h.2c0-.1-.2-.2-.2-.1h-.1c-.1-.2-.7-.3-1.2-.3a1.08,1.08,0,0,0-.8.2c-.2.1-.4.2-.4.3h-.1a2.83,2.83,0,0,1,.3-.6c0-.1.2-.2.4-.3a1.24,1.24,0,0,0,.3-.2H17a.37.37,0,0,0,.3-.1,3.09,3.09,0,0,1,.8-.2,3.55,3.55,0,0,1,1,.2c.1,0,.1.1.2.1,1.1.8.6-.4-.7-.5a4.31,4.31,0,0,0-1.7.3l-.4.2a.31.31,0,0,1,.1-.2c.1-.2.1-.3.7-.7.2-.1.3-.3.4-.3s.1-.1.1,0a.77.77,0,0,0,.3-.1,2.86,2.86,0,0,1,1.6-.1,1,1,0,0,1,.4.1,2,2,0,0,0,.8.4c0,.1.3.2.4.1s.1-.1-.3-.3a4.53,4.53,0,0,0-1.8-.8,4.43,4.43,0,0,0-1.5.3.49.49,0,0,1-.3.1c-.1-.1.4-.5.7-.6a5.43,5.43,0,0,1,2.2,0,1,1,0,0,0,.4.1,10.06,10.06,0,0,1,1.6.5.76.76,0,0,0,.4.2c.1.1.1.1.1,0l.1-.1c.3,0-.6-.6-1.3-.8a9.44,9.44,0,0,1-.9-.3,5.5,5.5,0,0,0-2.2-.2h-.1a.31.31,0,0,0,.2-.1c.1-.1.1-.1.2-.1s.6-.1.7-.1a4.84,4.84,0,0,1,1.7,0c.2.1.6.1.7.2,1.2.2,1.4.3,1.9.8.2.2.4.4.4.3h.1c.1.1.2,0,.1-.2-.1-.4-.9-1-1.4-1.2a15.69,15.69,0,0,0-1.6-.3c-.1,0-.2,0-.2-.1a9.63,9.63,0,0,0-1.7,0c-.5.2-.5-.1.1-.4a5.62,5.62,0,0,1,2-.3c.3,0,.5,0,.6.1a2.18,2.18,0,0,0,.6.1,2.93,2.93,0,0,1,1,.3,4.06,4.06,0,0,1,1.1.6c.1.1.2.2.3.2.3.2.5.4.5.5l.2.2.2.2v.2c0,.1,0,.1.1,0a1.08,1.08,0,0,0-.2-.9,4,4,0,0,0-1.3-1,1.44,1.44,0,0,1-.3-.2,3.39,3.39,0,0,0-2-.6c-.7-.1-.8-.1-.8-.2s0-.1.1-.1.2,0,.2-.1a4.65,4.65,0,0,1,.9-.3c-.3-.2-.1-.2.1-.2ZM18,19.71h.7c.7,0,.8,0,1,.1a3.54,3.54,0,0,0,.6.1c.2,0,.7.1,1,.1s.7.1.8.1h.8c0,.1,0,.1.5.1h.4c.1,0,.1.1.1.5v.4c0,.1-.1.8-.1,1-.3.6-.6,1.5-1.3,1.7a.49.49,0,0,0-.3.1,2.07,2.07,0,0,0-.6.2,3.3,3.3,0,0,1-1.4,0,2.37,2.37,0,0,1-1-.3,7.51,7.51,0,0,0,.7-.8c.1-.2.3-.3.3-.4l.2-.2.3-.3c.1-.1.2-.2.2-.3a1.44,1.44,0,0,1,.2-.3c.1-.1.1-.3.2-.3s.4-.4.4-.4a.1.1,0,0,1,.1-.1c.1,0,.1-.2,0-.2h-.1a2.17,2.17,0,0,0-.6.7c-.2.2-.9,1.2-1.1,1.4a.31.31,0,0,0-.1.2v.1l-.2.2a3.18,3.18,0,0,1-.9.3l-.1.1v.1a4.61,4.61,0,0,1-.9-1.7,3.54,3.54,0,0,1-.1-.6c0-.2,0-.5-.1-.5a1.34,1.34,0,0,0-.1-.5c.1-.5.2-.6.5-.6Zm12.7.3c.1,0,.8,0,.8.1h.4c.3.1.3.2.3.5s-.1.5-.1.7c-.1.4-.2.8-.3,1.1,0,.1-.1.2-.1.3-.2.4-.3.7-.5.8a2.61,2.61,0,0,1-.8.3,1.09,1.09,0,0,0-.5.1c-.2,0-.5.1-.7.1-.8.1-1.9,0-1.9-.2s0-.2.6-.8c.1-.2.3-.3.3-.4l.2-.2.3-.3c.1-.1.2-.2.2-.3a1.44,1.44,0,0,1,.2-.3c.1-.1.1-.3.2-.3s.4-.4.4-.4a.1.1,0,0,1,.1-.1c.1,0,.1-.2,0-.3h-.2a2.17,2.17,0,0,0-.6.7c-.2.2-.9,1.2-1.1,1.4a.31.31,0,0,0-.1.2v.1a.35.35,0,0,0-.1.2.22.22,0,0,1-.2.2.1.1,0,0,0-.1.1c-.1.2-.2.1-.3-.1a3.29,3.29,0,0,1-.7-1.3,1,1,0,0,0-.1-.3c0-.1-.1-.1,0-.1v-.1a.35.35,0,0,0-.1-.2.6.6,0,0,0-.1-.4c-.1-.5.2-.7,1-.6.3,0,.6,0,.6-.1h.1a11.75,11.75,0,0,0,1.9,0h.9a.1.1,0,0,1,.1-.1Zm-13.8,0c.2,0,.2,0,.2.1a2,2,0,0,1,.1.7,7.61,7.61,0,0,0,1,3l.2.2h.1c0,.1.5.3.6.3s.2,0,.2.1h1.2a3.42,3.42,0,0,0,1.3-.2c.1,0,.3-.1.4-.1s.4-.2.7-.4a2.74,2.74,0,0,0,1.1-2.1v-.3c0-.1.5-.2.7-.2s.4.1.4,0h.1c.1,0,.1.1.2.1s.1.2.2.3c.2.5.3.8.4.8h0c0,.4.9,1.5,1,1.6a2.9,2.9,0,0,0,1.4.3h1.1a.75.75,0,0,0,.5-.1,1,1,0,0,1,.3-.1h.2a.31.31,0,0,0,.2-.1c.2,0,.3-.1.5-.2a3,3,0,0,0,.8-.8,5.09,5.09,0,0,0,.4-1.1v-.1a2.18,2.18,0,0,0,.1-.6c.1-.8.2-.9.4-.9s.2.1-.1,1.1c-.1.4-.3.9-.3,1s-.1.4-.1.5c-.1.3-.2.9-.3,1.2a7.78,7.78,0,0,1-.3.9c-.2.7-.5,1.5-.5,1.6s0,.2-.1.2a6.89,6.89,0,0,1-.3.8c0,.1,0,.2-.1.2a1.69,1.69,0,0,1-.2.5c-.1.2-.3.7-.5,1.2a4.15,4.15,0,0,1-.7,1.1,2.18,2.18,0,0,0-.5.4l-.2.2a.1.1,0,0,0-.1.1,3,3,0,0,1-.6.3,5.94,5.94,0,0,0-.8.4l-.4.2a.1.1,0,0,0-.1.1,4.23,4.23,0,0,1-1.2.4,3.9,3.9,0,0,1-2.7-.4,5.94,5.94,0,0,0-.8-.4,15.34,15.34,0,0,1-2.1-1.4,1.44,1.44,0,0,1-.3-.2c-.1-.1-.3-.2-.3-.3s-.2-.3-.3-.4l-.2-.2a.35.35,0,0,1-.1-.2.37.37,0,0,1-.1-.3.37.37,0,0,0-.1-.3c-.5-1-.4-1.1-.7-1.7a.77.77,0,0,0-.1-.3l-.6-1.8a3.93,3.93,0,0,1-.2-.6,13.64,13.64,0,0,1-1-3.6c0-.1-.1-.3-.1-.4s0-.2.6-.3c.3.2.4.2.5.2Zm8.6.2v.6h-1.3v-.2c0-.2.1-.2.8-.3Zm-5.3.2h0a4.71,4.71,0,0,0-1,1,.31.31,0,0,1-.1.2,1.3,1.3,0,0,0-.5.7c0,.1,0,.1.1.1a1.72,1.72,0,0,0,.6-.6.1.1,0,0,1,.1-.1A2,2,0,0,0,20,21a.75.75,0,0,1,.3-.3c.2-.2.3-.3.2-.3Zm8.4,0h0a4.71,4.71,0,0,0-1,1,.31.31,0,0,1-.1.2,1.3,1.3,0,0,0-.5.7c0,.1,0,.1.1.1a1.72,1.72,0,0,0,.6-.6.1.1,0,0,1,.1-.1,2,2,0,0,0,.6-.7.75.75,0,0,1,.3-.3c.2-.2.3-.3.2-.3Zm-9.5.1c-.1,0-.4.3-.5.5s-.2.2-.2.3a.31.31,0,0,0-.1.2c0,.1,0,.1.1.1a4.43,4.43,0,0,0,.6-.5c.5-.5.5-.5.4-.6-.2.1-.3,0-.3,0Zm8.4,0c-.1,0-.4.3-.5.5s-.2.2-.2.3a.31.31,0,0,0-.1.2c0,.1,0,.1.1.1a4.43,4.43,0,0,0,.6-.5c.5-.5.5-.5.4-.6-.3.1-.3,0-.3,0Zm-5,.2c-.1,0-.2.1-.5.4a3.61,3.61,0,0,1-.4.5l-.2.2a2.18,2.18,0,0,0-.4.5,2.65,2.65,0,0,1-.5.6c-.2.2-.3.4-.2.4s.1,0,.2-.1a8.79,8.79,0,0,0,1-1c.1-.1.2-.3.3-.4a2.18,2.18,0,0,0,.4-.5,1.87,1.87,0,0,1,.3-.4c.1-.1.1-.2,0-.2Zm8.3,0c-.1,0-.2.1-.5.4a3.61,3.61,0,0,1-.4.5l-.2.2a2.18,2.18,0,0,0-.4.5,2.65,2.65,0,0,1-.5.6c-.2.2-.3.4-.2.4s.1,0,.2-.1a8.79,8.79,0,0,0,1-1c.1-.1.2-.3.3-.4a2.18,2.18,0,0,0,.4-.5,1.87,1.87,0,0,1,.3-.4c.2-.1.2-.2,0-.2Zm-15.1.5a.1.1,0,0,1,.1.1c.1.1.1.4,0,.4s-.4.1-.4.2,0,.1.3.1c.1,0,.2,0,.2.1l.1.1c.1,0,.2.2.2.4a.35.35,0,0,0,.1.2.35.35,0,0,1,.1.2c.2.6.4,1.4.6,2a.6.6,0,0,1,.1.4c0,.1,0,.2.1.2a.35.35,0,0,1,.1.2V26c.1.1-.2.1-.3,0s-.1-.1,0-.2.1-.4-.2-.3c-.1,0-.1,0-.2-.3a4.51,4.51,0,0,0-.6-1.5.35.35,0,0,1-.1-.2c0-.1-.1-.2-.1-.3a.31.31,0,0,1-.1-.2,5.2,5.2,0,0,0-.3-.5c-.2-.3-.3-.4-.3-.6,0-.4.1-.5.4-.6.1-.1.1-.1.2-.1Zm18.1,0a.27.27,0,0,1,.3.3,8.11,8.11,0,0,1-.3,1.1,2.26,2.26,0,0,0-.4.9,1,1,0,0,0-.1.4,1.85,1.85,0,0,0-.2.7,2.66,2.66,0,0,1-.4.8.35.35,0,0,0-.2.1.31.31,0,0,0,.1.2c.1.2,0,.2-.1.3s-.4.2-.4.1a7.78,7.78,0,0,1,.3-.9,8.49,8.49,0,0,1,.3-.9c0-.1,0-.2.1-.2a.35.35,0,0,0,.1-.2.37.37,0,0,1,.1-.3s.1-.4.2-.7a4.08,4.08,0,0,0,.2-.7.77.77,0,0,0,.3-.1c.1,0,.2,0,.2-.1s-.1-.2-.3-.2-.2,0-.1-.2,0-.2.1-.2a.35.35,0,0,0,.2-.1c-.3-.1-.1-.1,0-.1Zm-10.7.6q-.15,0-.6.6c-.1.1-.3.4-.4.5s-.2.2-.1.3.1.1.2,0a.1.1,0,0,0,.1-.1h.2c0-.1,0-.2.1-.2s.4-.4.6-.6a.35.35,0,0,1,.1-.2c0-.1-.1-.3-.2-.3Zm8.3,0q-.15,0-.6.6c-.1.1-.3.4-.4.5s-.2.2-.1.3.1.1.2,0a.1.1,0,0,0,.1-.1h.2c0-.1,0-.2.1-.2s.4-.4.6-.6a.35.35,0,0,1,.1-.2c0-.1-.1-.3-.2-.3Zm-4.8,3.3c-.2,0-.3.2,0,.4.1.1.2.1.2.2s-.4.3-.9.3c-.3,0-.5,0-.6.1a.47.47,0,0,1-.6-.1c-.2-.2-.4-.2-1-.2-.4,0-.5,0-.5-.1s-.1-.1,0-.2-.1-.2-.2-.1-.2,0-.2.2.1.4.8.4c.4,0,.6.1.8.1s.3.1.3.2a.1.1,0,0,1,.1.1,1.49,1.49,0,0,0,.6-.1,4.33,4.33,0,0,1,.5-.1,1.27,1.27,0,0,0,.6-.1.37.37,0,0,1,.3-.1,1.44,1.44,0,0,0,.3-.2c.2-.2.2-.2.2-.4a.37.37,0,0,0-.4-.4c-.2.1-.3,0-.3.1Zm6.2,1h0a.31.31,0,0,0,.2.1.35.35,0,0,1,.1.2c.1.1.1.4.1.8,0,.1-.4.5-.6.6a1.38,1.38,0,0,1-.9,0c-.2-.1-.2-.3,0-.7a.31.31,0,0,0,.1-.2.31.31,0,0,1,.1-.2c.1-.1.1-.2.2-.1a1.1,1.1,0,0,0,.6-.3c0-.2.1-.2.1-.2Zm-16.3,0,.2.1c.3.2.5.2.6.1s.2.1.2.3.1.1.1.2a.1.1,0,0,1,.1.1V27c.1,0,.1.5,0,.6a1.24,1.24,0,0,1-.3.2,1,1,0,0,1-1.2-.3.91.91,0,0,1-.3-.8c0-.2.1-.4.1-.3a.1.1,0,0,0,.1-.1Zm7.7,1.2-.4.2c-.6.3-.8.4-1.1.3s-.4-.1-.6-.1-.4-.1-.4.1,0,.2.3.3a1.44,1.44,0,0,0,.3.2l.2.2c.1,0,.2.1.3.2s.1.1.2.1h.1a.78.78,0,0,0,.4.4.1.1,0,0,1,.1.1c.5.4.8.6,1.1.6H25a1,1,0,0,0,.4-.1c.4,0,.9-.4,1.5-.9.2-.2.5-.5.6-.5s.2-.1.3-.2.2-.2.3-.2.1-.1,0-.2-.1-.1-.3,0-.4.1-.6.1a1.33,1.33,0,0,1-.9-.3c-.7-.4-.8-.4-1.1-.2l-.4.1-.2-.1a.76.76,0,0,0-.4-.1Zm0,.4c.1,0,.1,0,.2.2l.2.2.3-.1c.3-.2.6-.2.7-.1l.1.1c.1,0,.4.3.3.3a.49.49,0,0,0-.3.1,3.78,3.78,0,0,1-1.8-.1l-.4-.1.2-.1a.31.31,0,0,1,.2-.1.35.35,0,0,1,.2-.1l.1-.2Zm8.9.5H33c-.1,0-.1,0-.2.1l-.1.1c0,.2.1.3.3.4h.2a.6.6,0,0,0,.1-.4c-.1-.1-.1-.2-.2-.2Zm-16.9,0c-.1,0-.1,0-.2.1v.4a.14.14,0,0,0,.2,0,.32.32,0,0,0,.3-.3.1.1,0,0,0-.1-.1c0-.1-.1-.1-.2-.1Zm1.5.2h-.1c-.2,0-.2.1-.2.2s.1.4.2.4h.2a.4.4,0,0,0,.2-.4.77.77,0,0,0-.3-.2Zm13.9,0h0a.31.31,0,0,1-.2.1c-.1.2,0,.3.1.4s.1.1.2,0,.2-.2.2-.4,0-.2-.2-.2a.1.1,0,0,1-.1.1Zm-5.3.2c.2,0,.1.1-.1.2a4.32,4.32,0,0,1-.9.6,1,1,0,0,0-.3.1,1.07,1.07,0,0,1-.6-.2,2.85,2.85,0,0,1-.8-.7c0-.1.5,0,.9,0h1.8Zm6,0c-.1,0-.2,0-.2.1l-.1.1c-.1.2,0,.3.2.4h.2c.1,0,.2-.3.2-.4s-.1-.1-.3-.2Zm-15.3.1c-.2,0-.3,0-.3.2a2.27,2.27,0,0,0,.1.4H17c.2-.1.3-.2.2-.4a.1.1,0,0,0-.1-.1c0-.1,0-.1-.1-.1Zm16,.4h-.1a.1.1,0,0,0-.1.1.6.6,0,0,0,.1.4c.2.2.5,0,.4-.2a.1.1,0,0,0-.1-.1.22.22,0,0,0-.2-.2Zm-16.8,0a.22.22,0,0,0-.2.2.1.1,0,0,1-.1.1c-.1.3.2.5.4.3s.2-.3.1-.4l-.1-.1c0-.1,0-.1-.1-.1Zm1.7.1h0c-.2,0-.2.1-.3.3v.1a.26.26,0,0,0,.5.1c.1-.1,0-.4,0-.4a.35.35,0,0,0-.2-.1Zm13.4,0c-.1,0-.1,0-.2.1a.6.6,0,0,0-.1.4c.1.3.4.2.5-.1v-.1c.1-.1,0-.2-.2-.3Zm.8.3h0c-.1,0-.2,0-.2.1s0,.3,0,.4c.2.3.5.1.5-.2v-.1c-.1-.1-.1-.2-.3-.2Zm-15,.1c-.1,0-.2.1-.3.2v.1c0,.3.3.5.4.2.1-.1.1-.4.1-.4s-.1-.1-.2-.1Zm-1.2.4a.37.37,0,0,0-.3.1.1.1,0,0,0-.1.1v.2c0,.2.1.3.3.2a.54.54,0,0,0,.3-.4c0-.1,0-.2-.2-.2Zm17.4,0h0c-.2,0-.2.1-.2.2a.54.54,0,0,0,.3.4c.2.1.3.1.3-.2v-.2l-.1-.1a.37.37,0,0,0-.3-.1Zm-15.3.2h0c-.1,0-.2.1-.3.2s-.1.1-.1.2a.31.31,0,0,0,.1.2c.1.2.2.2.3.1s.2-.4.1-.5,0-.2-.1-.2Zm13.2,0c-.1,0-.1,0-.1.1s0,.3.1.5.2.1.4,0a.25.25,0,0,0,0-.4.52.52,0,0,0-.4-.2Zm1,.3c-.1,0-.2,0-.2.1a.65.65,0,0,0,.2.5c.1.1.2.1.3-.1a.31.31,0,0,0,.1-.2.1.1,0,0,0-.1-.1c-.1-.2-.2-.2-.3-.2Zm-15.2,0a.37.37,0,0,0-.3.1l-.1.1a.31.31,0,0,0,.1.2c.1.2.2.3.3.1a.37.37,0,0,0,.2-.5.14.14,0,0,1-.2,0Zm12.9.4v1.3a7.75,7.75,0,0,1,.1.9,2,2,0,0,0,.1.9c.1.2.1.3.1.9a.44.44,0,0,0,.1.3v.2c.1,0,.1.1.2.4,0,.1.2.3.2.3l.1.1c0,.1.1.1.1.2.2.1.2.2,0,.5s-.3.4-.4.6a2.18,2.18,0,0,1-.4.5c-.1.1-.2.3-.4.4a2.18,2.18,0,0,0-.4.5c-.2.2-.7.7-1.2,1.3-.4.4-.7.7-.7.8a.1.1,0,0,1-.1.1,4.68,4.68,0,0,0-.5.6c-.3.3-.6.7-.7.8l-.3.3a.22.22,0,0,1-.2.2l-.1.1-.1-.1c-.1-.1-.1-.1-.2-.1a1.73,1.73,0,0,1-.4-.3c-1.5-1.1-3-2.4-4.6-3.5-.2-.1-.5-.3-.5-.4a5,5,0,0,0-.7-.5.1.1,0,0,1-.1-.1.1.1,0,0,0-.1-.1c-.1,0-.2-.1-.3-.2l-.2-.2.2-.2c.1-.1.3-.3.3-.4s.3-.4.5-.6a1.46,1.46,0,0,0,.3-.5v-.2c0-.1.1-.1.1-.2a.31.31,0,0,1,.1-.2c0-.1.1-.2,0-.2V35h0a.49.49,0,0,1,.1-.3,1.09,1.09,0,0,0,.1-.5,1.09,1.09,0,0,1,.1-.5c0-.1.1-.3.1-.4v-2.1c.9.4,1.7,1.1,2.5,1.5a4.51,4.51,0,0,0,3.6,0,.49.49,0,0,1,.3-.1c.1,0,.7-.3.7-.4h.1l.8-.4c.1-.1.1-.1.2-.1s.9-.5.9-.6c.2,0,.5-.2.6-.2Zm1.5,5.9a1,1,0,0,0,.3.1.31.31,0,0,0,.2.1.31.31,0,0,1,.2.1.31.31,0,0,0,.2.1h.1a.35.35,0,0,1,.1.2l.1.1-.4.5a28.84,28.84,0,0,1-1.9,2.4c-.3.3-.6.7-.8.9s-.6.7-.9,1-.7.8-.9,1a13.26,13.26,0,0,1-1,1.1c0,.1-.3.3-.5.5s-.4.4-.5.4a3.24,3.24,0,0,1-.9-.8.37.37,0,0,1,.1-.3c.1-.1.2-.3.3-.4a2.18,2.18,0,0,0,.4-.5c.2-.2.4-.5.6-.7.3-.4.8-.8,1.4-1.6.3-.3.7-.8,1-1.1a11.94,11.94,0,0,0,1.9-2.3v-.1a3.61,3.61,0,0,0,.4-.5c.3,0,.4-.2.5-.2Zm-13.3,1.1h0c.1.2.4.5.5.5a.1.1,0,0,1,.1.1c0,.1.2.2.3.2s.3.2.5.4.3.3.4.2h0c1.5,1.2,3.1,2.6,4.8,3.7a1.24,1.24,0,0,0,.3.2c.2.2.2.2.1.3s-.2.3-.4.5l-.4.4a1.44,1.44,0,0,1-.3-.2c-.2-.1-.3-.2-.4-.2a.1.1,0,0,1-.1-.1c-1.9-1.3-3.8-3.3-5.3-4.1h0a.35.35,0,0,0-.2-.1c-.1,0-.2-.1-.3-.2l-.3-.3c-.1-.1-.3-.2-.4-.3l-.2-.2.3-.2c.8-.5,1-.6,1-.6Z"/></g></g></svg>