<?xml version="1.0" encoding="utf-8"?>
<!-- Generator: Adobe Illustrator 25.2.3, SVG Export Plug-In . SVG Version: 6.00 Build 0)  -->
<svg version="1.1" id="圖層_1" xmlns="http://www.w3.org/2000/svg" xmlns:xlink="http://www.w3.org/1999/xlink" x="0px" y="0px"
	 viewBox="0 0 50 50" style="enable-background:new 0 0 50 50;" xml:space="preserve">
<style type="text/css">
	.st0{fill:#E8ECED;}
	.st1{fill:#B29262;}
	.st2{fill:#663333;}
	.st3{fill:#F1E5D2;}
	.st4{fill:#DF9996;}
	.st5{fill:#EEBAA7;}
	.st6{fill:#C17E7E;}
	.st7{fill:#322722;}
</style>
<g>
	<circle class="st0" cx="25" cy="25" r="23.9"/>
	<path class="st1" d="M25,2.2c12.5,0,22.8,10.2,22.8,22.8S37.5,47.8,25,47.8S2.2,37.5,2.2,25S12.5,2.2,25,2.2 M25,0
		C11.2,0,0,11.2,0,25s11.2,25,25,25s25-11.2,25-25S38.8,0,25,0L25,0z"/>
</g>
<path class="st1" d="M25,2.2c12.5,0,22.8,10.2,22.8,22.8S37.5,47.8,25,47.8S2.2,37.5,2.2,25S12.5,2.2,25,2.2 M25,0
	C11.2,0,0,11.2,0,25s11.2,25,25,25s25-11.2,25-25S38.8,0,25,0L25,0z"/>
<g>
	<path class="st2" d="M26.2,7c-0.2,0-0.5,0-0.7,0c-0.7,0.1-1.6-0.2-2.2,0.3C23,7.7,22.4,7.5,22,7.5c-1.6-0.3-3.3,0.3-4.5,1.4
		c-1.1,1-1.8,2.3-2.2,3.7c-0.5,1-0.4,2.2-0.9,3.3c-0.1,0.4-0.3,0.1-0.5-0.1c-0.2,0-0.1,0.4,0,0.5c0.2,0.5-0.2,0.8-0.5,1.1
		c-0.6,0.8-1.3,1.6-1.5,2.6c-0.2,1.4,0.8,2.6,1.3,3.8c0.6,1.1,1.4,2.4,1,3.8c-0.4,0.8-1.4,1.1-1.9,1.9c-0.7,1.2-0.6,2.7,0.1,3.9
		c0.8,1.3,1.4,2.6,1.6,4.1c0,0.9-0.3,2-1.2,2.4c-0.3,0.3-0.8,0.2-1.2,0.5c0,0.1,0.4,0.1,0.5,0.2c0.4,0.2,0.8,0.4,1.3,0.3
		c0.8,0,1.4-0.5,2.1-0.9c0.3-0.1,0.3,0.4,0.4,0.6c0.2,0.3,0,0.7-0.3,0.8c-0.1,0.1-0.5,0.2-0.3,0.3c0.4,0.2,0.8-0.3,1.2-0.3
		c0.3,0.2,0.6,0.5,1,0.5c0.5,0,1.2,0.2,1.7-0.1c0.2-0.4-0.3-0.9-0.1-1.3c0.4-1.2,1.2-2.2,1.8-3.3c0.3-0.2,0.6,0.1,0.9,0.2
		c2.2,0.9,4.7,1,6.9,0c0.3,0,0.6-0.4,0.8-0.2c-0.1,0.5-0.3,0.9-0.4,1.4c-0.2,0.8-0.9,1.4-1.4,2c-0.2,0.2,0.1,0.2,0.2,0.1
		c1-0.6,2-1.5,2.6-2.6c0.2-0.3,0.2-0.7,0.5-0.8c0.4,0.3,0.5,0.8,0.7,1.2c0.4,0.7,0.5,1.6,0.2,2.4c-0.1,0.2-0.4,0.7,0,0.8
		c0.4,0.2,0.8-0.3,1.2,0.1c0.5,0.3,1-0.3,1.3-0.7c0.7-0.8,1.1-1.7,1.3-2.7c0.1-0.3-0.1-0.8,0.3-0.7c0.7,0.1,1.6-0.1,1.9-0.9
		c0.1-0.1,0.2-0.5,0-0.4c-0.4,0.3-1.2,0.2-1.2-0.4c-0.2-1.4,0.8-2.5,1.4-3.6c0.4-0.9,0.9-1.8,0.8-2.8c-0.1-1-0.6-1.9-1-2.9
		c-0.5-1.1,0.3-2.3,0.3-3.4c0-1.2,0.3-2.5-0.2-3.7c-0.1-0.4-0.5-0.8-0.4-1.2c0.2-0.1,0.2-0.5,0-0.6c-0.6-0.7-0.8-1.8-1.1-2.7
		c-0.5-1.9-1.1-3.9-2.5-5.3c-1.1-1-2.3-2.2-3.8-2.6C28.7,7.1,27.4,7.1,26.2,7L26.2,7z M26.2,7"/>
	<path class="st3" d="M23.9,10.9c-0.6,0.2-1.2,0.5-1.6,1c-0.7,0.8-1.3,1.8-2,2.6c-0.4,0.7-0.6,1.5-0.7,2.4c0.3,0.2,0.6,0.4,0.9,0.7
		c0.1,0.2,0.4,0.4,0.6,0.1c0.4-0.3,0.9-0.8,1.4-0.6c0.6,0.2,1,0.7,1.3,1.3c0.5,0.1,1.2,0,1.7,0.2c0.4,0,0.4-0.5,0.7-0.7
		c0.4-0.6,1.2-0.7,1.8-0.4c0.3,0.1,0.6,0.5,0.9,0.5c0.3-0.2,0.7-0.6,1.1-0.5c0.2-0.1,0-0.5,0.1-0.7c-0.1-0.9-0.2-2-0.9-2.7
		c-1-1.1-2.5-1.6-3.8-2.2C24.8,11.6,24.4,11.1,23.9,10.9L23.9,10.9z M24.4,18.7c-0.6,0-0.8,0.7-1.1,1.1c-0.7,1-1.5,1.8-2.3,2.5
		c-0.4,0.3-0.6-0.3-0.9-0.5c-0.8-0.8-1.6-1.7-2.3-2.7c-0.3-0.3-0.7,0.1-0.6,0.4c-0.1,1.2,0,2.4,0.3,3.5c0.4,1.7,0.7,3.6,2,4.9
		c1.4,1.4,3.2,2.7,5.3,2.8c1.7,0.1,3-1,4.3-2c0.9-0.8,1.9-1.6,2.4-2.6c0.2-0.8,0-1.7,0.4-2.5c0.4-1.1,0.5-2.4,0.5-3.6
		c0-0.5-0.5-0.7-0.9-1c-0.3,0.1-0.3,0.5-0.5,0.7c-0.6,1-1.3,2-2.3,2.7c-0.9-0.9-2-1.8-2.7-2.9c-0.2-0.5-0.6-0.8-1.1-0.9
		C24.8,18.7,24.6,18.7,24.4,18.7L24.4,18.7z M16.3,18.7c-0.6,0-0.8,0.8-0.6,1.3c0.3,0.9,0.6,1.8,0.9,2.7c0.1,0.2,0.3,0.6,0.5,0.7
		c0.2-0.2,0-0.5,0-0.8c-0.2-1.2-0.1-2.4-0.3-3.6C16.7,18.7,16.5,18.7,16.3,18.7L16.3,18.7z M25.3,20.5
		C25.4,20.5,25.4,20.5,25.3,20.5c0.1,0.5,0.1,1.1,0.4,1.5c0.2,0.6,0.7,1.2,0.6,1.8c-0.1,0.4-0.6,0.2-0.9,0.3
		c-0.7,0.1-1.5,0.2-2.2,0.1C22.8,24,22.7,23.4,23,23c0.1-0.1,0.4-0.1,0.2,0.1c-0.1,0.3-0.1,0.8,0.3,0.8c0.6,0.1,1.1,0,1.7-0.1
		c0.3-0.1,0.7,0.1,0.9-0.1c0-0.4-0.3-0.8-0.4-1.2C25.3,21.8,25.1,21.1,25.3,20.5C25.3,20.5,25.3,20.5,25.3,20.5L25.3,20.5z
		 M27.3,25.7L27.3,25.7c0.2,0.2-0.2,0.4-0.3,0.5c-0.5,0.5-0.9,1.1-1.5,1.4c-0.7,0-1.5,0.2-2-0.4c-0.5-0.5-1.1-0.9-1.8-1.3
		c-0.1-0.1-0.4-0.3-0.1-0.2c0.7,0.2,1.4,0.7,2.1,0.6c0.7,0,1.5,0.1,2.2,0C26.3,26.3,26.8,25.9,27.3,25.7L27.3,25.7z M28.6,29.7
		c-1.1,0.6-2.2,1.5-3.5,1.5c-1.4,0-2.6-0.7-3.9-1.1c-0.3,0.1,0,0.5,0,0.7c0.4,1.4,0.3,2.8,0.2,4.3c-0.1,0.3,0,0.6,0.3,0.7
		c1.1,0.6,2.4,0.8,3.6,0.8c1.5-0.1,3-0.5,4.2-1.3c0.3-0.2-0.1-0.6-0.1-0.8c-0.3-1-0.8-1.9-1-2.9c-0.1-0.6,0.1-1.2,0.3-1.7
		C28.8,29.7,28.7,29.7,28.6,29.7L28.6,29.7z M28.6,29.7"/>
	<path class="st4" d="M19.4,17.3c-0.4,0.1-0.3,0.6-0.6,0.7c-0.3,0.2-0.6,0.4-0.9,0.6c0.6,1.3,1.6,2.3,2.6,3.2
		c0.2,0.2,0.5,0.1,0.7-0.1c0.7-0.7,1.5-1.4,2-2.3c0.2-0.6,0.2-1.3-0.3-1.7c-0.3-0.3-0.7-0.5-1.1-0.2c-0.4,0.2-0.8,0.6-1.1,0.9
		C20.4,17.9,20.1,17.3,19.4,17.3L19.4,17.3z M27.2,17.6c-0.8,0-1.3,0.8-1,1.5c0.3,1.1,1.3,1.8,2.1,2.6c0.2,0.1,0.4,0.4,0.6,0.2
		c0.9-0.8,1.7-1.7,2.1-2.9c-0.1-0.5-0.5-0.8-0.7-1.2c-0.3-0.3-0.8,0-0.8,0.4c0.1,0.1,0.2,0.2,0.1,0.4c-0.4,0.7-0.9,1.3-1.4,2
		c-0.1,0.1-0.4,0.4-0.3,0.1c0.3-0.8,1-1.4,1.3-2.2c-0.2-0.2-0.5,0.1-0.7-0.1C28.2,18,27.8,17.6,27.2,17.6L27.2,17.6z M19.7,18.1
		c-0.1,0.4-0.4,0.8-0.7,1.1c-0.2,0.1-0.2-0.3-0.1-0.3C19.1,18.6,19.4,18.2,19.7,18.1L19.7,18.1z M22,18.1c0.1,0.1-0.1,0.3-0.2,0.4
		c-0.6,0.7-1.1,1.4-1.7,2.1c-0.2,0.1-0.1-0.2,0-0.3c0.5-0.7,1-1.5,1.7-2.2C21.8,18.1,21.9,18.1,22,18.1L22,18.1z M27.4,18.4
		c-0.1,0.2-0.2,0.6-0.4,0.8c-0.2,0-0.2-0.4,0-0.4C27.1,18.6,27.2,18.4,27.4,18.4L27.4,18.4z M20.4,18.5c0.1,0.1-0.2,0.3-0.2,0.5
		c-0.3,0.3-0.5,0.8-0.9,1c-0.1-0.3,0.2-0.5,0.3-0.7C19.9,19,20.1,18.7,20.4,18.5L20.4,18.5z M30.2,18.8c0.2,0.1,0,0.4-0.1,0.5
		c-0.4,0.7-0.8,1.4-1.4,2c-0.1,0.1-0.4-0.1-0.2-0.3C29.1,20.3,29.5,19.5,30.2,18.8C30.2,18.8,30.2,18.8,30.2,18.8L30.2,18.8z
		 M28.2,18.9C28.2,18.9,28.2,18.9,28.2,18.9c0.2,0,0,0.2-0.1,0.3c-0.2,0.2-0.3,0.7-0.7,0.7c0-0.4,0.4-0.7,0.6-1
		C28.1,18.9,28.1,18.9,28.2,18.9L28.2,18.9z M22.6,18.9c-0.3,0.6-0.8,1-1.2,1.5c-0.2,0.1-0.4,0.4-0.5,0.4c0-0.3,0.4-0.5,0.5-0.8
		C21.8,19.7,22.1,19.2,22.6,18.9L22.6,18.9z M22.6,18.9"/>
	<path class="st5" d="M23.3,26.8c-0.3,0,0,0.3,0.1,0.3c0.7,0.3,1.6,0.4,2.3,0c0.2-0.1,0.1-0.4-0.1-0.3C24.8,26.9,24.1,27,23.3,26.8
		L23.3,26.8z M23.3,26.8"/>
	<path class="st6" d="M29.5,35.7c-1.6,0.9-3.5,1.4-5.3,1.1c-1-0.1-1.9-0.5-2.8-0.8c-0.3,0-0.2,0.5-0.4,0.7c0,0.3,0.5,0.3,0.8,0.4
		c1.6,0.6,3.5,0.7,5.2,0.4c0.9-0.2,1.8-0.5,2.5-1c0.1-0.2,0.2-0.6,0.2-0.8C29.6,35.8,29.6,35.7,29.5,35.7L29.5,35.7z M29.5,35.7"/>
	<path class="st6" d="M29.5,35.7c-1.6,0.9-3.5,1.4-5.3,1.1c-1-0.1-1.9-0.5-2.8-0.8c-0.3,0-0.2,0.5-0.4,0.7c0,0.3,0.5,0.3,0.8,0.4
		c1.6,0.6,3.5,0.7,5.2,0.4c0.9-0.2,1.8-0.5,2.5-1c0.1-0.2,0.2-0.6,0.2-0.8C29.6,35.8,29.6,35.7,29.5,35.7L29.5,35.7z M29.5,35.7"/>
	<path class="st7" d="M24.4,6.9c-0.2,0-0.3,0-0.3,0.1c0,0-0.1,0.1-0.2,0c-0.2-0.1-0.7,0.3-0.8,0.5c0,0-0.1,0-0.1,0
		c-0.1,0.1-0.3,0-0.7-0.1C20.2,7,18.2,7.9,17,9.4c-0.1,0.1-0.3,0.3-0.3,0.4c-0.1,0.1-0.1,0.2-0.1,0.2c0,0,0,0.1-0.1,0.1
		c-0.1,0-0.6,1-0.8,1.5c-0.1,0.3-0.2,0.6-0.3,0.7c-0.3,0.6-0.6,1.7-0.5,1.9c0,0,0,0.1,0,0.3c0,0.1-0.1,0.3-0.1,0.5
		c-0.1,0.5-0.1,0.7-0.2,0.7c0,0-0.1,0.1-0.1,0.1c0,0.1-0.1,0.2-0.1,0.3l-0.1,0.2L14.1,16c-0.1-0.2-0.2-0.3-0.3-0.1
		c-0.1,0.2-0.1,0.3,0,0.5l0.1,0.3l-0.1,0.3c-0.1,0.1-0.2,0.3-0.2,0.3c0,0-0.1,0.1-0.2,0.2c-0.1,0.1-0.2,0.2-0.2,0.3
		c-0.1,0.1-0.2,0.3-0.3,0.4c-0.1,0.2-0.2,0.4-0.3,0.4c-0.1,0.1-0.2,0.2-0.3,0.4c-0.1,0.2-0.2,0.3-0.2,0.4c-0.1,0.1-0.1,0.2-0.2,0.4
		c-0.1,0.3-0.1,1.1-0.1,1.4c0.1,0.5,0.5,1.3,0.9,1.9c0.2,0.3,0.4,0.6,0.5,0.8c0.1,0.2,0.3,0.5,0.4,0.7c0.1,0.2,0.2,0.4,0.2,0.4
		c0,0,0.1,0.3,0.3,0.7c0.3,0.6,0.3,0.7,0.3,1.1c0,0.7-0.1,1-0.6,1.4c-0.2,0.2-0.6,0.5-0.8,0.6c-0.4,0.3-0.6,0.4-0.8,1
		c-0.4,0.9-0.5,1.8-0.2,2.8c0.1,0.3,0.2,0.7,0.3,0.8c0.6,1,1.3,2,1.5,3.2c0,0.1,0.1,0.3,0.1,0.6c0.1,0.6,0.1,1.2-0.1,1.8
		c-0.2,0.4-0.5,0.9-0.7,0.9c0,0-0.1,0-0.2,0.1C12.7,40,12.6,40,12.6,40c0,0,0,0,0,0c0,0.1-0.3,0.2-0.6,0.2c-0.1,0-0.3,0-0.3,0.1
		c0,0-0.1,0.1-0.1,0.1c-0.1,0-0.1,0.1-0.1,0.1c0,0.1,0.1,0.1,0.6,0.2c0.1,0,0.1,0,0.1,0c0,0,0,0,0,0c0,0,0.1,0,0.1,0.1
		c0.1,0.1,0.1,0.1,0.1,0.1c0,0,0,0,0.1,0c0.1,0.1,0.8,0.1,1.3,0.1c0.4-0.1,1-0.4,1.4-0.7c0.3-0.3,0.4-0.3,0.4-0.1
		c0,0.1,0.1,0.3,0.2,0.5c0.1,0.3,0.2,0.4,0.1,0.5c-0.1,0.1-0.7,0.5-0.8,0.5c-0.1,0-0.1,0.2,0.1,0.2c0.1,0.1,0.2,0.1,0.5,0
		c0.2,0,0.3-0.1,0.4-0.2c0.2-0.2,0.3-0.2,0.6,0.1c0.1,0.1,0.2,0.2,0.2,0.2c0,0,0.1,0,0.1,0.1c0,0.1,0.2,0.1,0.4,0.1
		c0.2,0,0.7,0,1,0.1c0.5,0,0.5,0,0.7-0.1c0.2-0.1,0.2-0.3,0.1-0.5c-0.2-0.3-0.2-0.8,0-1.4c0.1-0.3,0.7-1.3,0.9-1.5
		c0.1-0.1,0.1-0.1,0.1-0.2c0-0.1,0.3-0.6,0.3-0.6c0,0,0-0.1,0-0.1c0,0,0.1-0.2,0.2-0.3c0-0.1,0.1-0.2,0.1-0.3c0,0,0,0,0,0
		c2.4,0.9,4.7,1.8,8.4-0.1c0,0.1,0,0.1-0.1,0.2c0,0-0.1,0.3-0.1,0.5c-0.1,0.4-0.3,1-0.4,1.2c0,0.1-0.1,0.2-0.2,0.3
		c-0.1,0.1-0.3,0.4-0.6,0.7c-0.4,0.4-0.5,0.5-0.5,0.6c0,0.2,0.1,0.2,0.7-0.2c0.5-0.3,1.6-1.2,1.6-1.4c0,0,0.1-0.1,0.2-0.2
		c0.2-0.3,0.5-0.8,0.7-1.3c0.1-0.4,0.2-0.4,0.3-0.3c0.2,0.2,0.8,1.5,0.9,1.8c0.2,0.7,0,1.7-0.3,2c-0.3,0.3,0,0.6,0.5,0.6
		c0.3,0,1.2-0.4,1.5-0.6c0.6-0.6,0.9-1.1,0.9-2.1c0-0.5,0-0.7,0-0.8c0,0-0.1-0.2-0.1-0.4c0-0.2-0.1-0.4-0.1-0.5
		c-0.1-0.1-0.1-0.2-0.1-0.2c0,0-0.7-1.3-0.8-1.3c0,0-0.1-0.1-0.1-0.1c0-0.1-0.1-0.3-0.2-0.5c-0.3-0.5-0.4-0.9-0.4-1.7
		c0-0.7,0-0.8,0.2-1.1c0.2-0.4,0.3-0.6,0.4-0.9c0-0.1,0.2-0.3,0.3-0.5c0.4-0.7,0.7-1.6,0.8-1.9c0-0.2,0.1-0.4,0.1-0.4
		c0.1-0.2,0.1-0.7,0-0.9c0-0.1-0.1-0.2,0-0.2c0,0,0-0.2-0.1-0.3c-0.1-0.1-0.1-0.3-0.1-0.4c0-0.1,0-0.2,0-0.2c0-0.1-0.1-0.2-0.2-0.4
		c-0.2-0.4-0.3-1.1-0.4-1.5c0-0.2,0-0.4,0.1-0.7c0.4-1.3,1-2.6,0.4-3.7c-0.1-0.3-0.5-0.6-0.6-0.6c0,0-0.1,0-0.2-0.1
		c0,0-0.2-0.1-0.4-0.2c-0.2-0.1-0.4-0.2-0.6-0.3C32.2,19.1,32,19,31.9,19c-0.1,0-0.7-0.4-1-0.8c-0.1-0.1-0.3-0.3-0.3-0.5
		c-0.1-0.3-0.3-1.2-0.3-1.8c0-0.4-0.3-1.3-0.4-1.6c-0.6-0.9-1.7-1.6-2.8-2.1c-0.2-0.1-0.3-0.2-0.4-0.2c-0.1,0-0.3-0.1-0.5-0.2
		c-0.3-0.1-0.9-0.4-1-0.5c0,0-0.2-0.1-0.3-0.3c-0.4-0.3-1-0.9-1.2-1.3c-0.1-0.2-0.2-0.4-0.2-0.4c0,0-0.1-0.1-0.1-0.2
		c-0.2-0.4,0-0.2,0.4,0.3c0.3,0.4,0.6,0.6,0.9,0.8c0.2,0.1,0.5,0.4,0.7,0.5c0.2,0.1,0.4,0.3,0.6,0.4c0.2,0.1,0.3,0.2,0.3,0.2
		c0,0,0.2,0.1,0.3,0.2c0.1,0.1,0.3,0.2,0.4,0.2c0.1,0,0.2,0.1,0.2,0.1c0.1,0,0.2,0,0.2,0.1c0.1,0,0.4,0.1,0.7,0.2
		c0.7,0.2,0.7,0.2,1.3,0.5c1.1,0.5,1.2,0.6,1.5,1.2c0.3,0.7,0.3,1.1,0.3,1.8c0,0.4,0.2,1.1,0.4,1.6c0.2,0.4,0.5,0.8,0.8,0.9
		c0,0,0.2,0.1,0.3,0.2c0.2,0.1,0.3,0.1,0.3,0.1c0,0,0,0,0.1,0c0,0,0.1,0.1,0.1,0.1c0.1,0,0.6,0.3,0.6,0.3c0,0,0.1,0.1,0.1,0.1
		c0.3,0,1,0.7,1.1,1.2c0.1,0.3,0.2,1,0.1,1.5c0,0.2-0.1,0.6-0.2,0.8c-0.2,0.8-0.5,1.7-0.5,2.4c0,0.7,0,0.8,0.2,1.2
		c0.1,0.2,0.2,0.5,0.2,0.5c0.2,0.1,0.6,1,0.8,1.6c0.2,0.7-0.3,2.1-1,3c-0.1,0.2-0.3,0.4-0.4,0.5c-0.1,0.1-0.2,0.3-0.3,0.5
		c-0.4,0.6-0.6,1.2-0.6,1.7c0,0.4,0,0.6,0.1,0.8c0.1,0.4,0.7,1.4,1,1.7c0.3,0.4,0.6,1,0.7,1.4c0.2,0.6,0.1,1.5-0.3,2.3
		c-0.2,0.5-0.4,0.8-0.7,1.1c-0.6,0.6-0.6,0.7-1.1,0.9c-0.1,0-0.2,0.1-0.2,0.1c0,0.1,0.3,0.2,0.4,0.2c0,0,0.1-0.1,0.2-0.1
		c0.1,0,0.2,0,0.2,0c0.1,0,0.7-0.6,0.9-1c0.1-0.1,0.2-0.3,0.3-0.4c0.3-0.4,0.7-1.4,0.7-2.1c0-0.2,0-0.4,0-0.5c0,0,0.6,0,0.8,0
		c0.7,0,1.1-0.4,1.4-0.7c0-0.1,0.1-0.2,0.2-0.3c0.1-0.1,0.1-0.2,0.1-0.3c0-0.1,0-0.1-0.2-0.1c-0.1,0-0.2,0.1-0.3,0.1
		c-0.1,0.1-0.6,0.1-0.8-0.1c-0.2-0.1-0.2-0.4-0.2-1c0.1-0.8,0.3-1.3,0.7-1.8c0.3-0.5,0.9-1.4,1-1.9c0-0.1,0.1-0.3,0.2-0.4
		c0.1-0.2,0.3-1,0.3-1.3c-0.2-1.2-0.4-2.1-0.9-2.8c0,0,0,0,0-0.1c0-0.1-0.1-0.6-0.2-0.6c-0.1,0-0.1-1.3,0.1-1.6
		c0.1-0.1,0.1-0.3,0.1-0.5c0-0.1,0.1-0.3,0.1-0.5c0-0.8,0.2-1.5,0.2-2.4c0-1.5-0.5-2.3-0.8-2.9c-0.1,0-0.1,0,0-0.1
		c0,0,0.1-0.1,0-0.1c0,0,0,0,0.1,0c0.1,0,0.1,0,0.1-0.1c0.1-0.2,0-0.3-0.3-0.4c-0.1,0-0.2-0.1-0.3-0.4c-0.6-1.2-0.9-3.1-1.3-4.2
		c-0.1-0.4-0.4-1-0.5-1.2c-0.4-0.9-0.7-1.4-1.5-2.2c-1-1-2.4-2.2-3.4-2.5c-0.7-0.2-0.6-0.2-2.5-0.4c0,0-0.3,0-0.6,0
		c-0.7,0-1.6,0-2.1-0.1C24.8,6.9,24.5,6.9,24.4,6.9L24.4,6.9z M24.6,7.3c0,0,0.3,0.1,0.6,0.1c0.4,0.1,0.7,0.1,1.6,0.1
		c1.5,0,1.9,0,2,0c0,0,0.3,0,0.5,0.1c0.4,0,0.5,0.1,1,0.3c1.2,0.7,2.3,1.4,3.2,2.3c0.3,0.2,0.5,0.5,0.7,0.8c0.4,0.6,0.7,1.1,1,1.7
		c0,0.1,0.1,0.1,0.1,0.2c0,0,0,0.1,0.1,0.2c0.1,0.1,0.1,0.3,0.4,1.5c0.2,0.9,0.2,2.6,0,2.6c0,0-0.2-0.1-0.4-0.2
		C35,16.7,35,16.7,35,16.5c0-0.3,0-0.5-0.1-1c-0.3-3-1.8-5.2-5-6.6c-0.1,0-0.2-0.1-0.3-0.2c-0.3-0.2-0.7-0.3-1.7-0.4
		c-0.2,0-0.4-0.1-0.4-0.1c-0.1,0-0.4-0.1-0.6-0.1c-0.3,0-0.5-0.1-0.6-0.1c-0.1,0-0.2-0.1-0.4-0.1c-0.3,0-0.5-0.1-0.9-0.3
		c-0.2-0.1-0.4-0.2-0.4-0.2C24.5,7.4,24.5,7.2,24.6,7.3L24.6,7.3z M21.7,7.7c0.5,0,0.8,0.1,0.9,0.2c0.1,0.1,0.1,0.6,0,0.6
		c0,0-0.3,0-0.7,0c-0.4,0-0.8,0-1.1,0.1C19.5,9,18.4,9.8,17.7,11c-0.9,1.3-0.9,3.7-2,4.7c0,0-0.1,0.1-0.1,0.2c0,0.1-0.1,0.2-0.1,0.3
		c-0.1,0.1-0.2,0.1-0.5,0.1c-0.1,0-0.2,0-0.2,0c0-0.1,0.2-0.6,0.2-0.6c0.1,0,0.2-0.6,0.3-1.1c0-0.2,0.1-0.5,0.1-0.7
		c0-0.2,0.1-0.4,0.1-0.5c0-0.1,0.1-0.4,0.2-0.6c0.1-0.2,0.2-0.5,0.2-0.7c0.2-0.5,0.5-1.1,0.5-1.1c0,0,0.2-0.3,0.6-0.9
		c0.1-0.1,0.2-0.3,0.2-0.3c0.1-0.1,0.2-0.2,0.3-0.3c1.1-1.3,2.5-1.7,3.7-1.7C21.3,7.7,21.5,7.7,21.7,7.7L21.7,7.7z M24.1,7.9
		c0.4,0,0.9,0.1,1.8,0.4c0.8,0.2,1.5,0.3,1.5,0.3c0.1,0,0.9,0.1,1.3,0.2c0.4,0.1,1.2,0.5,1.4,0.6c0,0,0.1,0.1,0.1,0.1
		c0,0,0.2,0.1,0.5,0.3c1,0.8,1.8,1.9,2.1,3.3c0.4,1.7,0.6,2.1,1.5,3.3c0.1,0.2,0.3,0.3,0.3,0.4c0.1,0.2,0.6,0.5,0.6,0.5
		c0.1,0,0.7,0.4,0.7,0.4c0,0.1,0,0.1-0.4-0.1c-0.8-0.3-1.6-0.8-1.7-1c0,0-0.1-0.1-0.1-0.1c-0.1,0-1.2-1.4-1.2-1.7
		c0-0.2-0.2-0.5-0.2-0.4c0,0,0,0,0,0c0.1-0.1-0.4-1.7-0.6-2.3c-0.2-0.5-0.5-1-0.6-1c0,0,0,0,0,0c0-0.1-0.4-0.4-0.4-0.4c0,0,0,0,0,0
		c0,0-0.1-0.1-0.2-0.1c-0.1,0-0.2-0.1-0.2-0.1c0-0.1-0.7-0.4-0.8-0.3c0,0-0.1,0,0,0c0-0.1-0.3-0.2-0.7-0.3c-0.2,0-0.7-0.1-1.2-0.2
		c-0.5,0-0.9-0.1-1-0.1c-0.6-0.2-1.2-0.4-1.7-0.7C24.5,8.7,24,8.2,24,8.1c0,0,0-0.1-0.1-0.1c0,0-0.1-0.1-0.1-0.1
		C23.9,7.9,24,7.9,24.1,7.9L24.1,7.9z M23.4,7.9c0,0,0.1,0,0.1,0c0.1,0.1,0.1,0.2,0.1,0.3c0,0.2,0.7,0.9,0.9,1
		c0.8,0.5,1.6,0.7,2.4,0.8c1.3,0.1,1.5,0.2,2,0.3c0.3,0.1,0.6,0.2,0.6,0.2c0.1,0,0.2,0.1,0.3,0.1c0.1,0,0.2,0.1,0.3,0.2
		c0,0,0.1,0.1,0.1,0.1c0,0,0.1,0,0.1,0c0,0,0.1,0.1,0.2,0.2c0.3,0.2,0.7,0.8,0.8,1.3c0.1,0.2,0.1,0.5,0.2,0.6
		c0.1,0.3,0.3,0.8,0.4,1.3c0,0.1,0.1,0.3,0.1,0.3c0,0,0,0.1,0,0.2c0,0.3,0.6,1.3,1.1,1.8c0.2,0.2,0.4,0.4,0.6,0.6
		c0.2,0.2,0.4,0.4,0.5,0.4c0.2,0.1,0.4,0.4,0.5,0.8c0.1,0.3,0,0.4-0.1,0.3c-0.1-0.1-0.3-0.2-0.9-0.6c-0.1-0.1-0.3-0.1-0.4-0.2
		c-0.3-0.1-0.7-0.3-0.7-0.3c0,0-0.1-0.1-0.1-0.1c-0.1,0-0.2-0.1-0.2-0.2c0-0.1-0.1-0.2-0.2-0.3c-0.1-0.1-0.2-0.3-0.2-0.3
		c0,0,0-0.1-0.1-0.2c-0.1-0.1-0.3-1.2-0.2-1.3c0-0.1-0.1-0.7-0.1-1c-0.2-0.6-0.6-1.2-1-1.6c-0.3-0.3-1.5-0.8-2.2-1
		c-0.8-0.2-1.7-0.6-2.1-1c-0.1-0.1-0.2-0.2-0.3-0.2c0,0-0.1-0.1-0.2-0.1c-0.1-0.1-0.1-0.1-0.2-0.1c0,0-0.1,0-0.1,0
		c0,0-0.1-0.1-0.3-0.2c-0.1-0.1-0.3-0.1-0.3-0.2c0,0-0.1-0.1-0.2-0.2c-0.3-0.2-1.3-1.4-1.4-1.6C23.4,8,23.4,8,23.4,7.9L23.4,7.9z
		 M22.5,8.9c0.3,0,0.3,0,0.4,0.2c0,0.1,0.1,0.3,0.1,0.3c0,0.1,0,0.1,0.1,0.1c0.1,0,0.1,0.3,0,0.3c-0.1,0-0.7,0.2-1.1,0.4
		c-0.1,0.1-0.2,0.1-0.3,0.1c-0.1,0-0.2,0.1-0.7,0.5c-0.8,0.6-2.9,4.4-3.8,4.5c0-0.4,0.2-0.9,0.7-1.6c0.3-0.4,0.6-1,0.9-1.4
		c0.5-0.7,0.8-1.1,1.1-1.5c0.3-0.3,0.9-0.7,1-0.8c0,0,0.2-0.1,0.3-0.1c0.4-0.2,0.6-0.3,1.1-0.3c0.6-0.1,0.6-0.1,0.6-0.2
		c-0.1-0.1-0.1-0.1-0.5-0.1c-0.8,0-1,0.1-2,0.7c-0.2,0.1-0.3,0.2-0.4,0.3c0,0.1-0.2,0.2-0.3,0.3c-0.3,0.2-0.6,0.6-1.2,1.6
		c-0.4,0.9-1.2,1.7-1.5,2.6c0,0.1-0.1,0.3-0.1,0.5c0,0.1,0,0.3-0.1,0.4c-0.1,0.2-0.5,0.4-0.7,0.4c-0.2,0-0.2-0.1,0-0.3
		c0.9-1.3,0.8-2.2,1.3-3.5c0,0,0-0.1,0-0.1c0-0.1,0.1-0.2,0.2-0.4c0.1-0.1,0.1-0.3,0.1-0.3c0,0,0-0.1,0.1-0.2
		c0.1-0.1,0.1-0.2,0.1-0.2c0,0,0-0.1,0.1-0.1c0.1,0,0.2-0.3,0.5-0.6C19.6,9.2,21.1,8.9,22.5,8.9L22.5,8.9z M23.2,10.2
		c0,0,0.2,0.1,0.3,0.3l0.2,0.3l-0.3,0.1c-1.6,0.5-2.7,2.5-3.6,3.9c-0.1,0.1-0.2,0.3-0.2,0.3c0,0,0,0,0,0.1c0,0.2-1.2,1.3-1.5,1.6
		c-0.9,0.5-1.1,0.6-1.9,0.6c-0.6,0-0.7,0-1-0.1c-0.3-0.1-0.3-0.1-0.3-0.2c0-0.1,0.1-0.1,0.3-0.1c0.3,0,1.1-0.2,1.5-0.4
		c0.1-0.1,0.3-0.2,0.4-0.2c0.1,0,0.2-0.1,0.2-0.1c0,0,0-0.1,0.1-0.1c0.1,0,0.2-0.1,0.3-0.2c0.1-0.1,0.3-0.2,0.3-0.2
		c0,0,0.1,0,0.1-0.1c0-0.1,0.1-0.1,0.1-0.1c0,0,0,0,0-0.1c0-0.1,0-0.1,0-0.1c0,0,0.2-0.1,0.2-0.2c0,0,0-0.1,0.1-0.1
		c1-1.3,2.1-2.8,3-3.8c0-0.1,0.6-0.6,0.7-0.6c0,0,0.3-0.1,0.5-0.2C22.9,10.3,23.2,10.2,23.2,10.2L23.2,10.2z M32.3,10.9
		C32.3,10.9,32.4,10.9,32.3,10.9c0.3,0.2,0.8,0.7,1,1.1c0.7,1.1,1.2,2.2,1.2,3.4c0,0.3,0,0.6,0,0.6c0,0,0,0.1,0,0.1
		c0,0.1-0.1,0.1-0.1,0c0-0.1-0.1-0.2-0.5-0.7c-0.5-0.7-0.7-1.4-0.8-2.3c-0.1-0.4-0.3-1-0.4-1.2c-0.1-0.1-0.1-0.2-0.1-0.3
		c0,0-0.1-0.1-0.1-0.2c-0.1-0.1-0.1-0.2-0.1-0.2C32.4,11.1,32.3,11,32.3,10.9C32.3,10.9,32.3,10.9,32.3,10.9L32.3,10.9z M23.9,10.9
		c0.1,0,0.2,0.1,0.4,0.2c0.2,0.1,0.3,0.2,0.4,0.2c0,0,0.2,0.1,0.3,0.2c0.3,0.2,0.4,0.3,0.5,0.2c0.1-0.1,0.1,0,0,0.1
		c0,0,0.4,0.3,0.6,0.3c0.2,0,1.3,0.6,1.4,0.7c0.1,0,0.1,0.1,0.1,0.1c0,0,0.1,0,0.2,0.1c0.1,0.1,0.2,0.2,0.3,0.2
		c1.3,0.8,1.8,1.6,1.9,3.1c0,0.6,0.1,0.8,0.1,1c-0.4-0.1-0.5,0-0.9,0.3c-0.2,0.2-0.4,0.3-0.4,0.3c0,0-0.2-0.1-0.4-0.3
		C27.5,17,26.6,17,26,17.9c-0.1,0.2-0.3,0.4-0.3,0.5c-0.1,0.2-0.1,0.2-0.4,0.1c-0.1,0-0.5-0.1-0.9-0.1l-0.7,0l-0.1-0.3
		c-0.4-0.9-1.3-1.4-1.9-1.1c-0.1,0.1-0.4,0.2-0.6,0.4l-0.4,0.4l-0.3-0.3c-0.2-0.3-0.4-0.4-0.8-0.5c-0.1,0-0.1-0.2,0.1-1
		c0.1-0.4,0.2-0.8,0.4-1.2c0,0,0,0,0,0c0-0.1,0.1-0.1,0.1-0.2c0.1-0.1,0.1-0.2,0.1-0.2c0.7-0.6,1.6-2.9,3.2-3.3c0.1,0,0.1,0,0.2-0.1
		C23.8,11,23.8,10.9,23.9,10.9L23.9,10.9z M19.9,14.9C19.9,14.9,19.9,14.9,19.9,14.9C19.9,14.9,19.9,14.9,19.9,14.9c0,0,0,0.1,0,0.1
		C19.9,15,19.9,15,19.9,14.9C19.9,15,19.9,14.9,19.9,14.9L19.9,14.9z M19.4,15.7c-0.1,0.2-0.1,0.5-0.2,0.7c-0.3,1.3-0.9,1.8-2.6,2
		l-0.1,0c-0.2,0-0.4,0-0.5,0.1c-0.1,0.1-0.1,0-0.1-0.1c0-0.1,0-0.2,0.1-0.4c0-0.1,0.1-0.3,0.1-0.3c-0.1-0.1,0.1-0.2,0.3-0.2
		c1.1,0,0.9-0.3,1.9-0.8c0,0,1-0.8,1-0.8C19.3,15.9,19.3,15.8,19.4,15.7L19.4,15.7z M36.4,16.6C36.4,16.6,36.4,16.6,36.4,16.6
		c0.1,0,0.3,1,0.3,1.1c0,0-0.1,0-0.3-0.1c-0.1-0.1-0.2-0.1-0.2-0.2c0,0,0-0.2,0-0.3C36.3,16.8,36.3,16.6,36.4,16.6L36.4,16.6z
		 M14.2,17.1l0.3,0.2c0.2,0.1,0.5,0.2,0.8,0.2c0.2,0,0.4,0.1,0.4,0.1c0,0-0.3,0.9-0.7,1.9c-0.2,0.5-0.3,0.8-0.3,1.4
		c-0.1,1.1-0.1,1.2,1.2,3.8c0.2,0.3,0.3,0.8,0.4,0.9c0,0.2,0.1,0.4,0.2,0.5c0.2,0.6,0.2,1.7-0.1,2.5c-0.1,0.3-0.6,1.2-0.7,1.4
		c-0.3,0.4-0.8,1.3-0.8,1.7c-0.1,0.3,0,1.2,0.1,1.6c0,0.1,0.2,0.3,0.3,0.5c0.7,1.1,1.2,3.2,0.6,4.4c0,0,0,0.2-0.1,0.3
		c-0.1,0.5-0.3,1-0.7,1.3c-0.2,0.1-0.8,0.5-0.8,0.5c0,0-0.1,0-0.2,0.1c-0.2,0.1-0.3,0.1-0.8,0.1c-0.2,0-0.4,0-0.5,0
		c-0.1,0-0.1-0.1,0.1-0.2c0.1-0.1,0.3-0.2,0.3-0.2c0.1,0,0.4-0.3,0.9-0.9c0.8-0.9,1-1.5,1.1-2.4c0-0.6-0.1-2-0.3-2.2
		c-0.1-0.1-0.1-0.3-0.1-0.4c-0.4-0.6-0.4-0.8-0.7-1.5c-0.2-0.4-0.2-0.5-0.2-1.1c0-0.7,0.1-1.1,0.7-1.7c0.6-0.7,0.7-0.9,1-1.5
		c0.3-0.7,0.5-2,0.4-2.2c0-0.1-0.1-0.3-0.2-0.5c-0.1-0.4-0.4-1-0.6-1.2c0-0.1-0.1-0.1-0.1-0.2c0,0-0.1-0.1-0.2-0.2
		c-0.1-0.1-0.2-0.2-0.2-0.3c0-0.1-0.1-0.2-0.1-0.2c-0.1,0-0.1-0.1-0.1-0.1c0,0,0-0.1-0.1-0.2c-0.1-0.1-0.1-0.1-0.1-0.1
		c0,0-0.1-0.3-0.2-0.5c-0.2-0.5-0.3-0.9-0.3-1.5c0-0.7,0.2-1.4,0.2-1.5c0,0,0.1-0.2,0.2-0.4c0.2-0.5,0.4-0.8,0.6-1.1
		C14.9,18.1,15,18,15,18c0,0,0.1-0.1,0.1-0.1c0.1-0.1-0.1-0.2-0.2-0.1c-0.1,0.1-0.6,0.6-0.6,0.7c0,0-0.1,0.1-0.1,0.2
		c-0.2,0.2-0.5,1.1-0.7,1.6c-0.1,0.2-0.1,0.7-0.1,1.2c0,0.8,0,0.8,0.1,1.3c0.1,0.3,0.2,0.5,0.2,0.6c0,0,0.1,0.2,0.2,0.4
		c0.1,0.2,0.5,0.8,0.6,1c0.2,0.2,0.8,1.4,0.9,1.8c0.1,0.4,0.1,0.5,0,1.1c-0.1,0.3-0.1,0.7-0.2,0.9C15,28.8,14.5,29.5,14,30
		c-0.4,0.4-0.5,0.5-0.6,0.9c-0.2,0.4-0.2,0.5-0.2,1c0.2,1.6,1.2,2.6,1.4,4.2c0.1,0.5,0,1.2-0.1,1.7c-0.1,0.5-0.3,0.7-0.2,0.3
		c0.1-0.5-0.1-1.4-0.3-1.8c0-0.1-0.1-0.2,0-0.3c0-0.1,0-0.3-0.1-0.5c-0.1-0.2-0.2-0.5-0.2-0.6c0-0.2-0.1-0.3-0.1-0.3
		c-0.3-0.4-0.4-0.8-0.8-1.2c0-0.1-0.2-0.5-0.2-0.5c0,0,0,0,0,0c0-0.1,0-0.3-0.2-0.6c-0.1-0.2-0.1-1.2,0-1.5c0.3-1,0.5-1.3,1.1-1.7
		c0.3-0.2,1.1-1,1.2-1.2c0-0.1,0.1-0.2,0.1-0.2c0.1-0.1,0.2-1.2,0.1-1.3c0,0-0.1-0.2-0.1-0.3c-0.1-0.3-0.3-1-0.6-1.4
		c-0.1-0.1-0.2-0.3-0.2-0.4c-0.2-0.4-0.3-0.7-0.5-0.8c-0.1-0.1-0.1-0.2-0.1-0.2c0,0,0-0.1-0.1-0.1c0,0-0.1,0-0.1-0.1
		c0,0,0-0.1-0.1-0.2c-0.1-0.1-0.3-0.6-0.6-1.2c-0.1-0.2-0.1-0.4-0.2-0.6c-0.1-0.4-0.1-1.1,0-1.2c0,0,0.1-0.1,0.1-0.2
		c0-0.2,0.7-1.3,1.1-1.7c0.1-0.1,0.1-0.2,0.1-0.2c0,0,0-0.1,0.1-0.1c0,0,0.1-0.1,0.1-0.1c0-0.1,0.1-0.2,0.3-0.3L14.2,17.1z
		 M22.2,17.4c0.1,0,0.2,0,0.3,0.1c0.3,0.1,0.4,0.3,0.6,0.6c0.1,0.2,0.1,0.3,0.1,0.7c0,0.7-0.2,1.1-1.4,2.2c-0.5,0.5-1,0.9-1,1
		c-0.1,0-0.4-0.1-0.5-0.3c-0.1-0.1-0.5-0.5-0.9-0.9C18.7,20,18,18.9,18,18.6c0.4-0.2,0.9-0.5,1.1-0.8c0.3-0.7,0.1-0.5,0.8-0.4
		c0.2,0.1,0.6,0.6,0.7,0.8c0,0.1,0.1,0.1,0.1,0.1c0,0,0.3-0.2,0.5-0.4C21.6,17.6,21.9,17.4,22.2,17.4L22.2,17.4z M30,17.8
		c0.1,0,0.1,0,0.2,0c0.1,0.3,0.3,0.6,0.6,0.8c0,0,0,0,0.1,0c0,0,0,0.1,0,0.1c0,0.4,0,0.5-0.2,0.8c-0.3,0.6-1,1.4-1.4,1.9
		c-0.2,0.2-0.5,0.4-0.5,0.4c0,0-0.2-0.2-0.4-0.3c-0.2-0.2-0.6-0.6-0.8-0.8c-0.6-0.5-0.8-0.8-1-1.4c-0.2-0.5-0.2-1,0-1.3
		c0.4-0.7,1.4-0.6,2.1,0.2c0.2,0.3,0.4,0.3,0.5,0.2c0,0,0.1-0.1,0.2-0.1c0.1,0,0.1,0,0.1,0.1c0,0.1-0.3,0.4-0.5,0.8
		c-0.8,1.1-0.8,1.2-0.8,1.3c0,0.1,0,0.2,0.1,0.2c0.1,0,0.4-0.2,0.5-0.3c0.1-0.2,0.4-0.7,0.7-1.1c0.6-0.7,0.7-1.2,0.5-1.2
		c-0.2,0-0.1-0.2,0.1-0.4C29.8,17.8,29.9,17.8,30,17.8L30,17.8z M35.1,18.1c0.1,0,0.2,0,0.3,0.1c0.1,0.1,0.3,0.1,0.4,0.1
		c0.2,0.1,0.2,0.1,0.2,0.5c0,0.2,0,0.5,0.1,0.6c0,0.1,0,0.2,0,0.2c0,0,0,0,0,0c0,0,0.1,0,0.1,0.1c0.8,1.7,0.5,2.6,0.1,4.3
		c-0.2,0.8-0.3,1.8-0.1,2.4c0.1,0.8,0.2,1,0.4,1.5c0.4,0.8,0.3,1.4,0,2c-0.3,0.5-0.4,0.6-1.1,1.3c-0.4,0.4-0.8,0.8-0.9,0.8
		c-0.1,0.1-0.1,0.1-0.1,0c0-0.1,0-0.2,0.1-0.2c0.4-0.7,0.6-0.9,0.6-0.9c0.2-0.2,0.7-1.1,0.7-1.3c0-0.1,0-0.1,0-0.1
		c0.1,0,0.2-0.8,0.2-1.2c0-0.4-0.2-1.1-0.4-1.5c-0.3-0.5-0.7-1.3-0.8-1.5c0-0.1,0-0.5,0-0.8c0-1,0.2-1.5,0.5-2.6
		c0.1-0.8,0.1-1.5,0-1.9c-0.1-0.3-0.1-0.6-0.1-0.7c0-0.1,0-0.3-0.1-0.4C35.1,18.6,35,18.2,35.1,18.1C35.1,18.1,35.1,18.1,35.1,18.1
		L35.1,18.1z M36.8,18.5c0.2,0,0.3,0.1,0.4,0.3c0,0.1,0.1,0.3,0.2,0.5c0.5,1.5,0.7,2.7,0.4,4.4c0,0.2-0.2,0.7-0.3,1.1
		c-0.2,0.8-0.3,1.2-0.1,1.8c0.4,1,1,1.8,1.2,3.2c0,0.4,0,0.8-0.2,1.1c0,0.1-0.1,0.2-0.1,0.2c0,0-0.2,0.6-0.2,0.7
		c0,0-0.1,0.1-0.1,0.1c0,0-0.2,0.4-0.4,0.8c-0.2,0.6-0.7,1.1-1,1.6c-0.1,0.2-0.1,0.3-0.2,0.4c0,0,0,0.1,0,0.1c0,0,0,0,0,0
		c-0.2,0.1-0.3,0.9-0.2,1.4c0,0.2,0,0.2-0.1,0.2c-0.9-0.6-0.7-1.3-0.7-2c0.3-1.1,0.9-1.8,1.3-2.5c0.2-0.3,0.4-0.7,0.5-1.1
		c0.2-1-0.2-1.6-0.4-2.7c0-0.1,0-0.1-0.1-0.2c0,0-0.1-0.2-0.1-0.3c0-0.1-0.1-0.3-0.1-0.4c0-0.1-0.1-0.3-0.1-0.4c0-0.1,0-0.3-0.1-0.3
		c-0.1-0.1-0.1-0.8,0-1.3c0-0.3,0.1-0.5,0.1-0.6c0-0.1,0-0.1,0-0.1c0,0,0-0.1,0-0.2c0-0.1,0-0.2,0-0.3c0.1-0.5,0.1-0.9,0.3-1.4
		c0,0,0-0.1,0.1-0.4c0-0.9-0.2-1.6-0.6-2.4c-0.1-0.2-0.2-0.4-0.2-0.6c0-0.2,0-0.3,0.1-0.4C36.5,18.6,36.7,18.5,36.8,18.5L36.8,18.5z
		 M21.9,18c-0.1,0-0.3,0.1-0.5,0.4c-0.1,0.2-0.5,0.6-0.8,1.1c-0.7,0.8-0.8,1-0.7,1.1c0.1,0.2,0.4,0,0.7-0.5c0.2-0.2,0.4-0.6,0.6-0.8
		C22,18.5,22.2,18.1,21.9,18C22,18,22,18,21.9,18L21.9,18z M27.4,18.3c-0.1,0-0.2,0.1-0.3,0.2c-0.3,0.3-0.3,0.5-0.3,0.6
		c0.1,0.2,0.1,0.2,0.3,0.1C27.2,19.1,27.5,18.6,27.4,18.3C27.5,18.4,27.5,18.3,27.4,18.3L27.4,18.3z M19.7,18
		c-0.2,0-0.4,0.2-0.8,0.7c-0.2,0.3-0.2,0.4-0.1,0.5c0.1,0.1,0.2,0.1,0.3,0c0.2-0.2,0.7-1,0.7-1.1C19.8,18.1,19.8,18,19.7,18L19.7,18
		z M30.2,18.6C30.2,18.6,30.2,18.6,30.2,18.6c-0.1,0-0.6,0.6-1,1.3c-0.8,1.1-0.8,1.2-0.7,1.3c0,0.1,0.1,0.1,0.2,0.1
		c0.1,0,0.2-0.1,0.5-0.5c0.1-0.2,0.4-0.6,0.6-0.9c0.2-0.3,0.5-0.7,0.5-0.9c0.1-0.3,0.1-0.3,0-0.4C30.3,18.7,30.3,18.6,30.2,18.6
		L30.2,18.6z M20.4,18.5c-0.1,0-0.3,0.1-0.6,0.5c-0.5,0.5-0.6,0.8-0.5,1c0,0,0.1,0.1,0.1,0.1c0.1,0,0.4-0.2,0.4-0.3
		c0,0,0.2-0.2,0.4-0.5c0.4-0.5,0.6-0.7,0.5-0.8C20.5,18.5,20.5,18.5,20.4,18.5L20.4,18.5z M28.2,18.8c-0.1,0-0.3,0.1-0.7,0.6
		c-0.2,0.2-0.2,0.3-0.2,0.4c0.1,0.3,0.4,0.1,0.8-0.5C28.3,18.9,28.4,18.8,28.2,18.8L28.2,18.8z M24.5,18.7c0.1,0,0.2,0.1,0.5,0.1
		c0.6,0.2,0.7,0.3,0.9,0.8c0.2,0.4,0.6,0.9,1,1.3c0.2,0.1,0.6,0.6,1,1c0.4,0.4,0.7,0.7,0.8,0.7c0.2,0,1.5-1.3,1.8-1.9
		c0.1-0.1,0.2-0.3,0.3-0.5c0.1-0.2,0.3-0.5,0.4-0.8c0.1-0.1,0.1-0.3,0.2-0.3c0.2,0.2,0.4,0.3,0.4,0.3c0,0,0.2,0.1,0.3,0.2
		c0,0,0.1,0.1,0.1,0.1c0,0.1,0,0.3,0,0.4c0,0.8,0,1.6-0.3,3c-0.5,1.1-0.5,1.3-0.6,2.1c0,0.4,0,0.7,0,0.8c-0.2,0.6-0.6,1.1-1.4,1.9
		c-0.2,0.2-0.6,0.5-0.8,0.7c-0.2,0.2-0.6,0.5-0.9,0.7c-1.6,1.2-2.9,1.8-4.8,1.2c-1-0.3-1.6-0.6-2.5-1.3c-2.4-1.7-2.7-3.1-3.2-5.2
		c0-0.2,0-0.4-0.1-0.6c-0.4-1.7-0.4-2.1-0.4-3.4c0-0.2,0-0.5,0-0.7c0-0.1,0.1-0.1,0.1-0.2c0.3-0.3,0.5,0.1,0.7,0.5
		c0.2,0.4,2.2,2.5,2.5,2.7c0.1,0.1,0.2,0.1,0.4,0c0.1,0,0.3-0.2,0.4-0.3c0.1-0.1,0.5-0.5,0.8-0.8c0.7-0.7,1.2-1.4,1.5-2
		c0.2-0.4,0.2-0.4,0.6-0.5C24.3,18.7,24.4,18.7,24.5,18.7L24.5,18.7z M22.6,18.8c-0.1,0-0.4,0.2-1,0.9c-0.2,0.3-0.5,0.6-0.6,0.6
		c-0.2,0.2-0.3,0.3-0.2,0.4c0.1,0.1,0.2,0.1,0.4-0.1c0.2-0.2,0.4-0.4,1.2-1.3C22.7,19.1,22.7,18.9,22.6,18.8L22.6,18.8z M16.3,18.8
		c0,0,0.1,0,0.1,0c0.1,0,0.3,0.1,0.4,0.1c0.1,0.1,0.1,0.1,0.1,2.4c0,0.5,0,0.7,0.1,1.2c0,0.2,0.1,0.6,0.2,0.7c0,0.1,0,0.1,0,0.1
		c-0.1,0-0.5-0.5-0.5-0.7c0-0.1-0.1-0.4-0.2-0.6c-0.1-0.2-0.1-0.5-0.1-0.6c0-0.1-0.1-0.5-0.3-0.7c-0.1-0.3-0.3-0.7-0.3-0.8
		c0-0.2-0.1-0.4-0.1-0.4c0-0.2,0.2-0.5,0.3-0.6C16.1,18.8,16.2,18.8,16.3,18.8L16.3,18.8z M32.3,19.8c0.1,0.1,0.2,0.3,0.2,0.4
		C32.4,20,32.3,19.9,32.3,19.8L32.3,19.8z M32.9,20c0.1,0,0.2,0,0.3,0.1c0.3,0.1,0.4,0.4,0.6,0.9c0.2,0.8,0,1.8-0.6,3
		c-0.2,0.3-0.2,0.4-0.2,0.7c0,0.5,0.2,1.1,0.4,1.8c0.1,0.3,0.3,0.7,0.3,0.9c0.1,0.2,0.1,0.5,0.2,0.5c0.1,0.3,0,1.2-0.4,2
		c-0.1,0.2-0.4,0.7-0.6,1.1c-0.2,0.4-0.4,0.7-0.4,0.8c0,0.1,0,0.1-0.1,0.1c0,0-0.1,0.3-0.3,0.6c-0.3,0.6-0.3,1.3-0.1,2
		c0.1,0.6,0.2,0.7,0.5,1.2c0.2,0.2,0.4,0.5,0.4,0.7c0.2,0.4,0.3,0.5,0.4,0.6c0.1,0.1,0.4,0.9,0.5,1.2c0.2,0.6,0,1.5-0.3,2
		c-0.2,0.3-0.9,0.9-1,0.8c0,0,0.1-0.2,0.2-0.4c0.4-0.7,0.5-1.1,0.5-1.7c0-0.5-0.2-1.2-0.2-1.3c0,0,0-0.1,0-0.2c0-0.1,0-0.1,0-0.2
		c0,0-0.1-0.2-0.2-0.4c-0.1-0.2-0.2-0.4-0.2-0.4c0,0-0.1-0.1-0.2-0.2c-0.1-0.1-0.2-0.3-0.2-0.4c0-0.1-0.1-0.2-0.1-0.3
		c-0.1-0.2-0.5-1-0.5-1.2c-0.1-0.3,0-1.3,0.1-1.9c0.1-0.6,0.3-1.1,0.5-1.6c0.1-0.2,0.3-0.7,0.5-1.1c0.3-0.7,0.3-0.9,0.3-1.3
		c0-0.3,0-0.6,0-0.6c0-0.1-0.2-0.3-0.4-0.6c-0.2-0.2-0.3-0.4-0.3-0.5c0,0-0.1-0.1-0.2-0.3c-0.1-0.1-0.2-0.3-0.2-0.3
		c0,0,0-0.1-0.1-0.1c0,0-0.1-0.1-0.1-0.3c-0.1-0.3-0.1-1.4,0-1.6c0-0.1,0.1-0.3,0.2-0.6c0.1-0.3,0.2-0.5,0.2-0.6
		c0.1-0.1,0.4-1.3,0.4-1.7c0-0.2,0-0.6,0-0.9C32.8,20.1,32.8,20,32.9,20L32.9,20z M25.4,20.4c0,0-0.1,0-0.1,0.1
		c-0.1,0.1-0.1,0.2-0.1,0.6c0,0.5,0,0.4,0.6,1.7c0.1,0.3,0.3,0.6,0.3,0.7l0,0.1l-0.5,0c-0.4,0-0.5,0-0.7,0.1
		c-0.1,0.1-0.3,0.1-0.5,0.1c-0.1,0-0.4,0-0.6,0c-0.5,0.1-0.8-0.2-0.6-0.7c0.1-0.3,0.1-0.3-0.1-0.4c-0.2,0-0.3,0.1-0.3,0.4
		c-0.1,0.4,0.1,0.8,0.5,1c0.3,0.1,1.5,0.1,1.9,0c0.2-0.1,0.4-0.1,0.7-0.1c0.4,0,0.4,0,0.6-0.2c0.1-0.2,0.1-0.2,0.1-0.5
		c0-0.2-0.2-0.5-0.3-0.8c-0.5-1-0.7-1.3-0.6-1.8C25.5,20.5,25.4,20.4,25.4,20.4L25.4,20.4z M15.3,20.4c0,0,0.1,0.1,0.2,0.3
		c0.1,0.2,0.2,0.4,0.2,0.5c0.1,0.1,0.2,0.6,0.3,1c0.2,1,0.4,1.3,1,1.6c0.3,0.2,0.4,0.3,0.6,1.3c0.3,1.3,0.4,2.1,0.4,2.7
		c0,0.2-0.1,0.7-0.2,1.1c-0.3,1-0.2,1-0.4,1.2c-0.1,0.1-0.1,0.2-0.1,0.3c0,0,0,0.1-0.1,0.2c0,0-0.2,0.3-0.3,0.5
		c-0.1,0.2-0.3,0.5-0.4,0.7c-0.1,0.2-0.2,0.4-0.2,0.7c0,0.7,0.1,1.1,0.4,1.5c0.2,0.7,0.8,1.1,1.1,1.8c0.2,0.5,0.3,0.9,0.3,1.5
		c0,0.8-0.1,1.5-0.2,1.9c-0.3,0.5-0.7,1.2-0.8,1.3c-0.1,0.1-0.1,0.1-0.1-0.1c0-0.1,0.1-0.3,0.1-0.5c0.2-0.6,0.2-0.8,0.3-1.3
		c0.1-0.6,0-1.3-0.1-1.5c0-0.1-0.1-0.2-0.1-0.2c0,0,0-0.2-0.1-0.3C17,36.3,17,36.2,17,36.2c0-0.2-1-2.1-1.2-2.2c0,0-0.1-0.1-0.1-0.1
		c0,0,0-0.1-0.1-0.2c-0.2-0.2-0.4-0.8-0.3-1.6c0-0.4,0-0.4,0.5-1.3c0.9-1.6,1.1-2.3,1.2-3.2c0-0.7,0-0.9-0.2-1.3
		c-0.1-0.2-0.1-0.3-0.1-0.4c0,0-0.1-0.3-0.2-0.6c-0.1-0.3-0.2-0.5-0.2-0.6c0-0.1-0.2-0.4-0.4-0.7c-0.1-0.1-0.2-0.3-0.2-0.3
		c0,0-0.1-0.2-0.2-0.3c-0.2-0.3-0.3-0.6-0.4-1.3c0-0.3-0.1-0.6-0.1-0.7C15.1,21,15.2,20.4,15.3,20.4C15.3,20.4,15.3,20.4,15.3,20.4
		L15.3,20.4z M27.3,25.7c-0.1,0-0.2,0.1-0.4,0.2c-0.2,0.1-0.5,0.3-0.7,0.4c-0.3,0.1-0.5,0.2-1.1,0.2c-1.8,0-2.2,0-3.1-0.5
		c-0.4-0.2-0.4-0.2-0.5-0.1c-0.1,0.1-0.1,0.1,0.1,0.2c0.1,0.1,0.3,0.2,0.5,0.3c0.4,0.2,0.7,0.3,1.1,0.8c0.2,0.2,0.5,0.5,0.6,0.5
		c0.2,0.1,0.3,0.1,0.9,0.1c0.4,0,0.7,0,0.9-0.1c0.3-0.1,0.8-0.6,1.2-1.1c0.1-0.2,0.4-0.4,0.5-0.5c0.3-0.2,0.4-0.3,0.3-0.5
		C27.3,25.7,27.3,25.7,27.3,25.7L27.3,25.7z M31.6,26.4c0.2,0.5,0.6,1.1,0.7,1.1c0,0,0,0.1,0,0.1c0,0,0,0.1,0,0.1
		c0,0,0.1,0.1,0.2,0.3c0.2,0.4,0.2,0.8,0,1.4c-0.2,0.5-0.5,1.2-0.9,2c-0.2,0.5-0.4,1.2-0.6,2.3c-0.1,0.3,0,1.2,0.2,1.4
		c0.4,0.9,0.6,1.2,0.6,1.3c0.1,0.1,0.7,1.1,0.8,1.4c0.3,0.7,0.3,1.6,0.1,2.2c-0.2,0.4-0.5,1-0.6,1c0,0,0-0.2,0-0.5
		c0.2-1.2,0-2-0.4-2.4c0,0-0.1-0.2-0.2-0.3c-0.1-0.1-0.1-0.2-0.1-0.2c0,0,0,0,0-0.1c0-0.1-0.6-1.1-0.7-1.2c0,0-0.1-0.2-0.2-0.4
		c-0.3-0.7-0.4-2.2-0.2-2.8c0.1-0.2,0.2-0.5,0.3-0.7c0.1-0.2,0.2-0.5,0.3-0.6c0-0.1,0.1-0.3,0.2-0.5c0.1-0.2,0.2-0.4,0.2-0.4
		c0,0,0.1-0.1,0.1-0.3c0.1-0.2,0.1-0.3,0.3-0.7c0.2-0.5,0.2-1.9-0.1-2.2c-0.1-0.1-0.2-0.2-0.2-0.4c-0.1-0.1-0.1-0.2-0.2-0.2
		c0.1-0.2,0.3-0.4,0.4-0.6C31.6,26.5,31.6,26.5,31.6,26.4L31.6,26.4z M25.4,26.9l0.5,0l-0.2,0.2c-0.1,0.1-0.3,0.2-0.4,0.2
		c-0.5,0.1-1.4,0-1.9-0.3c-0.3-0.2,0-0.2,0.5-0.1c0.2,0,0.4,0,0.7,0C24.8,26.9,25.2,26.9,25.4,26.9L25.4,26.9z M31,27.4
		C31,27.4,31,27.5,31,27.4C31,27.5,31,27.5,31,27.4C31,27.5,31,27.4,31,27.4L31,27.4z M31.2,27.7c0,0,0,0.1,0.1,0.1
		c0.3,0.4,0.4,0.9,0.3,1.4c0,0.4-0.1,0.6-0.2,0.7c-0.1,0.1-0.1,0.3-0.1,0.3c0,0-0.1,0.3-0.3,0.6c-0.2,0.3-0.3,0.6-0.3,0.6
		c0,0,0,0.1-0.1,0.1c-0.1,0.1-0.2-0.1-0.3-0.5c-0.1-0.4-0.1-1.2,0.1-1.4c0,0,0.1-0.2,0.2-0.4c0.1-0.2,0.4-0.9,0.4-1c0,0,0-0.1,0-0.1
		c0,0,0-0.2,0.1-0.3C31.1,27.9,31.1,27.8,31.2,27.7L31.2,27.7z M30.8,27.8c-0.3,0.5-0.8,1.6-0.9,1.8c-0.1,0.5-0.2,0.9-0.2,1.1
		c0.4,1.1,0.2,0.9,0.5,1.5c0,0.3,0,0.4-0.2,0.8c-0.1,0.3-0.2,0.6-0.2,0.7c0,0.1,0,0.2-0.1,0.2c0,0,0,0,0-0.1c0,0-0.1-0.2-0.1-0.3
		c-0.1-0.1-0.1-0.2-0.1-0.3c0,0,0-0.2-0.1-0.4c-0.5-0.8-0.6-2.1-0.3-3c0.1-0.2,0.2-0.5,0.2-0.5c0-0.1,0.1-0.1,0.1-0.2c0,0,0,0,0,0
		c0,0,0,0,0,0c0,0,0,0,0,0C29.6,28.9,30,28.7,30.8,27.8L30.8,27.8z M18.3,27.3c0.1,0,0.1,0,0.2,0.1c0,0.1,0.1,0.1,0.1,0.2
		c0.1,0.1,0.3,0.2,0.4,0.4c-0.1,0.4-0.2,1.4,0,2c0.1,0.6,0.2,1.2,0.5,2.2c0.2,0.7,0.3,1.2,0.2,2c0,0.7-0.2,1.4-0.4,2
		c-0.1,0.2-0.2,0.5-0.2,0.7c0,0.1-0.1,0.2-0.1,0.2c0,0-0.1,0.1-0.1,0.2c-0.3,0.6-0.4,0.5-0.3-0.2c0-0.3,0-0.5-0.1-0.6
		c-0.1-0.2-0.1-0.8,0-1c0-0.1,0.2-0.4,0.2-0.5c0.2-0.4,0.3-0.7,0.4-1.2c0.1-0.7,0.1-1.1,0-1.3c-0.1-0.5-0.3-0.9-0.4-1.1
		c-0.2-0.3-0.5-1.2-0.5-1.2c0,0-0.1-0.1-0.1-0.2c-0.1-0.1-0.1-0.1-0.1-0.3c0-0.1,0.1-0.3,0.1-0.5c0-0.2,0.1-0.3,0.1-0.4
		c0-0.1,0.1-0.4,0.1-0.8C18.3,27.7,18.3,27.5,18.3,27.3C18.3,27.3,18.3,27.3,18.3,27.3L18.3,27.3z M19.3,28.4
		C19.3,28.5,19.3,28.5,19.3,28.4c0.1,0.1,0.2,0.2,0.2,0.2c0,0,0,0,0,0c0.5,0.4,0.8,0.7,1.1,0.9c0.1,0.2,0.3,0.6,0.3,0.8
		c0,0.1,0.1,0.3,0.1,0.5c0.1,0.2,0.1,0.6,0.2,1c0.1,0.6,0.1,0.8,0,2c-0.1,1.5-0.2,2-0.4,2.6c-0.2,0.5-1,2-1.3,2.4
		c-0.1,0.2-0.3,0.5-0.4,0.7c-0.1,0.2-0.2,0.4-0.2,0.4c0,0-0.1,0.2-0.1,0.4c0,0.2-0.1,0.3-0.1,0.3c0,0-0.1-0.2-0.2-0.3
		c-0.1-0.3-0.1-0.4-0.1-0.9c0-0.6,0-0.6,0.6-1.7c0.4-0.8,0.6-1.1,0.8-1.5c0.1-0.2,0.1-0.3,0.2-0.4c0,0,0-0.1,0-0.1
		c0.3-1.3,0.5-2.4,0.1-3.7c-0.3-1.1-0.4-1.3-0.5-1.7c-0.1-0.2-0.1-0.5-0.1-0.7c0-0.1,0-0.3,0-0.3C19.2,29.5,19.3,28.8,19.3,28.4
		L19.3,28.4z M37,29.8C37,29.8,37,29.8,37,29.8c-0.2,2-2.4,3.3-2,5.4c0.1,0.4,0.3,0.9,0.5,1.1c0.2,0.2,1.2,0.7,1.5,0.7
		c0.2,0,0.2,0.1,0,0.2c-0.1,0-0.1,0.1-0.2,0.1c-0.3,0.1-0.4,0.2-0.7,0.2c-0.5,0-0.6-0.1-0.7-0.4c0-0.1-0.2-0.4-0.3-0.7
		c-0.1-0.2-0.3-0.5-0.3-0.5c0-0.1-0.1-0.1-0.1-0.1c0,0-0.1,0,0,0c0-0.1-0.2-0.5-0.3-0.5c0,0,0,0,0-0.1c0,0,0-0.1-0.1-0.1
		c0,0-0.1,0-0.1-0.1c0,0,0-0.1,0-0.1c0,0-0.1-0.1-0.1-0.3c-0.1-0.5,0-1.4,0.2-1.7c0,0,0.1-0.1,0-0.1c0,0,0.1-0.1,0.2-0.3
		c0.1-0.1,0.3-0.3,0.3-0.3c0-0.1,0.1-0.1,0.1-0.1c0.1,0,0.1,0,0.1-0.1c0-0.1,0-0.1,0.1-0.1c0.1,0,0.9-0.7,0.9-0.8
		c0,0,0.1-0.2,0.2-0.3c0.1-0.1,0.2-0.2,0.2-0.3c0,0,0-0.1,0.1-0.1c0,0,0.1-0.1,0.1-0.2c0-0.1,0.1-0.3,0.2-0.4
		C36.9,29.9,37,29.8,37,29.8L37,29.8z M28.8,29.5c-0.1,0.3-0.3,0.6-0.3,0.8c0,0.1-0.1,0.5-0.1,0.8c0,0.7,0.1,1.1,0.7,2.6
		c0.2,0.6,0.5,1.2,0.5,1.4c0,0,0,0.1,0,0.1c-2.1,1.4-5.7,1.9-8.2,0.3c0.2-1.2,0.4-2.5,0.1-3.8c0,0-0.1-0.1-0.1-0.2
		c0-0.3,0-0.5-0.2-0.9c-0.1-0.2-0.2-0.4-0.2-0.6c0,0,0.1,0.1,0.2,0.1c0.1,0,0.2,0,0.4,0.2c3.2,1.4,4,1.3,6.6-0.4
		C28.5,29.7,28.7,29.6,28.8,29.5L28.8,29.5z M17.7,30.3c0,0,0.1,0,0.1,0.1c0,0.1,0.2,0.4,0.3,0.8c0.5,1.2,0.6,1.8,0.5,2.6
		c-0.1,0.6-0.2,0.9-0.4,1.2l-0.1,0.3L18,35c-0.1-0.1-0.1-0.2-0.1-0.2c0,0,0-0.1,0-0.1c-0.1,0-0.3-0.4-0.3-0.5c0-0.1,0-0.2,0.1-0.3
		c0.2-0.4,0.2-1.7,0-2.2c0-0.1-0.1-0.2-0.2-0.4c-0.1-0.4-0.1-0.4,0.1-0.8C17.6,30.4,17.7,30.3,17.7,30.3L17.7,30.3z M16.9,31.6
		c0.1,0,0.2,0.3,0.3,0.7c0.1,0.3,0.1,1.5,0,1.5c-0.1,0-0.4-0.5-0.5-0.9c-0.1-0.4,0-0.6,0-0.9C16.8,31.8,16.9,31.6,16.9,31.6
		C16.9,31.6,16.9,31.6,16.9,31.6L16.9,31.6z M29.6,35.7c0,0.2-0.1,0.5-0.1,0.8c-2.5,1.5-5.7,1.5-8.4,0.3c0-0.1,0.1-0.2,0.1-0.3
		c0.1-0.2,0.1-0.4,0.2-0.7l0,0.1c0,0,0,0,0,0C24.7,37.5,27.1,37.2,29.6,35.7L29.6,35.7z M30.1,36.2c0,0,0.1,0.1,0.2,0.2
		c0.1,0.1,0.2,0.3,0.2,0.3c0.1,0.1,0.1,0.1-0.1,0.5c-0.2,0.7-0.5,1.1-0.7,1.4c-0.1,0.2-0.3,0.3-0.3,0.4c0,0.1-0.1,0.2-0.2,0.2
		c-0.1,0-0.1,0.1-0.1,0c0,0,0-0.1,0-0.1c0-0.1,0.1-0.2,0.1-0.2c0-0.1,0.1-0.2,0.1-0.2c0-0.1,0.1-0.2,0.1-0.3
		c0.1-0.1,0.1-0.3,0.2-0.5C29.7,37.5,30,36.2,30.1,36.2L30.1,36.2z M16.5,36.5c0,0,0.1,0.1,0.2,0.4c0.3,0.8,0.4,1.6,0,2.6
		c-0.1,0.5-0.4,1.1-0.5,1.1c-0.1,0-0.3-0.4-0.3-0.6c0-0.1,0-0.2-0.1-0.2c0,0,0-0.2,0-0.3c0-0.1,0.1-0.3,0.1-0.5
		c0-0.1,0.1-0.3,0.1-0.3c0,0,0.1-0.2,0.1-0.4c0-0.2,0.1-0.4,0.1-0.5c0-0.1,0.1-0.3,0.1-0.6C16.4,37,16.4,36.7,16.5,36.5
		C16.5,36.6,16.5,36.5,16.5,36.5L16.5,36.5z M17.7,40l0.1,0.3c0.1,0.5,0.4,1.1,0.7,1.3l0.1,0.1l-0.1,0c-0.1,0-0.3,0-0.6,0
		c-0.5,0-0.8-0.1-1-0.4c-0.2-0.3-0.2-0.3,0.1-0.6c0.2-0.2,0.4-0.4,0.5-0.5L17.7,40z M17.7,40"/>
</g>
</svg>
