<?xml version="1.0" encoding="utf-8"?>
<!-- Generator: Adobe Illustrator 25.2.3, SVG Export Plug-In . SVG Version: 6.00 Build 0)  -->
<svg version="1.1" id="圖層_1" xmlns="http://www.w3.org/2000/svg" xmlns:xlink="http://www.w3.org/1999/xlink" x="0px" y="0px"
	 viewBox="0 0 50 50" style="enable-background:new 0 0 50 50;" xml:space="preserve">
<style type="text/css">
	.st0{fill:#E8ECED;}
	.st1{fill:#B29262;}
	.st2{fill:#F1E5D2;}
	.st3{fill:#F3D1A2;}
	.st4{fill:#BDA69A;}
	.st5{fill:#EEBAA7;}
	.st6{fill:#322722;}
</style>
<g>
	<circle class="st0" cx="25" cy="25" r="23.9"/>
	<path class="st1" d="M25,2.2c12.5,0,22.8,10.2,22.8,22.8S37.5,47.8,25,47.8S2.2,37.5,2.2,25S12.5,2.2,25,2.2 M25,0
		C11.2,0,0,11.2,0,25s11.2,25,25,25s25-11.2,25-25S38.8,0,25,0L25,0z"/>
</g>
<path class="st1" d="M25,2.2c12.5,0,22.8,10.2,22.8,22.8S37.5,47.8,25,47.8S2.2,37.5,2.2,25S12.5,2.2,25,2.2 M25,0
	C11.2,0,0,11.2,0,25s11.2,25,25,25s25-11.2,25-25S38.8,0,25,0L25,0z"/>
<path class="st2" d="M23.1,7.3c-0.1,0-0.1,0-0.2,0c-0.5,0-1,0-1.4,0.3c-0.6,0.4-1.1,0.8-1.8,0.9c-0.9,0.5-1.6,1.4-2.3,2.1
	c-0.6,0.5-0.9,1.3-1.3,2c-0.1,0.5-0.3,1-0.5,1.5c0.2,0.3,0,0.5-0.1,0.8c-0.1,0.5-0.4,1.1-0.3,1.7c0.2,0.6-0.6,1.1-0.3,1.7
	c0.4,0.5,0,1.3,0.5,1.6c0.4-0.1,0.6,0.5,0.3,0.7c-0.6,0-1.1,0.7-0.9,1.3c0.6,0.9,1.1,1.9,1.5,2.9c0.4,0.6-0.3,1.1-0.4,1.7
	c-0.3,1,1,1.9,1.9,1.4c0.3-0.2,0.5,0.1,0.5,0.4c0.3,1.1,1.1,1.8,1.8,2.5c0,1.7-0.1,3.6-1,5.2c-1.4,2.1-3.9,3-6.1,4
	c-0.1,0-0.8,0.2-0.4,0.4c1-0.1,1.9-0.8,2.9-1.1c0.4-0.1,1-0.7,1.4-0.3c2.6,2.1,5.1,4.2,7.9,6.1c0.4,0.2,0.9,0.9,1.3,0.4
	c1.7-1.7,3.3-3.6,4.9-5.4c0.7-0.7,1.2-1.6,2-2.3c1.1,0.3,2.2,0.7,3.4,0.9c0.3,0,0.8,0.4,0.9,0c-1.1-0.7-2.4-0.6-3.5-1.2
	c-1-0.7-2.2-1.3-2.8-2.4c-0.5-1.5-0.6-3.1-0.6-4.6c0.1-0.5,0.4-1,0.6-1.5c0.3-0.4,0.3-1.3,0.9-1.1c0.7,0.2,1.4-0.1,1.8-0.8
	c0.4-0.6-0.1-1.2-0.4-1.8c0.1-0.9,0.5-1.7,0.8-2.5c0.1-0.7,0.7-1.4,0.4-2c-0.4-0.1-0.2-0.6,0-0.8c0.2-0.1-0.1-0.6-0.1-0.2
	c0,0.4-0.5,0.4-0.6,0.1c0.2-0.5,0.9-0.7,0.7-1.3c-0.2-0.8-0.3-1.6-0.3-2.4c-0.1-0.6-0.2-1.3-0.3-1.9c-0.3-0.5-0.4-1.1-0.7-1.6
	c-0.4-0.5-0.5-1-1-1.5c-0.8-0.6-1.4-1.4-2.3-1.9c-0.5-0.1-0.8-0.5-1.3-0.7c-1.1-0.3-2.1-1.1-3.3-1C24.6,7.7,23.9,7.3,23.1,7.3
	L23.1,7.3z M33,25.7c0.2,0,0.3,0.2,0.4,0.3c0.3,0.5,0,1.2-0.5,1.4c-0.4,0.2-1,0.2-1.2-0.3c0-0.4,0.1-0.8,0.4-1
	C32.5,26.1,32.7,25.8,33,25.7L33,25.7z M16.8,25.7c0.2,0,0.5,0.3,0.7,0.3c0.3,0.1,0.4,0.5,0.5,0.8c0.2,0.3,0,0.7-0.4,0.7
	c-0.5,0.2-1-0.1-1.2-0.5c-0.3-0.4-0.2-1,0.2-1.3C16.7,25.7,16.7,25.7,16.8,25.7L16.8,25.7z M16.8,25.7"/>
<path class="st3" d="M23.1,7.3c-0.1,0-0.1,0-0.2,0c-0.5,0-1,0-1.4,0.3c-0.6,0.4-1.1,0.8-1.8,0.9c-0.9,0.5-1.6,1.4-2.3,2.1
	c-0.6,0.5-0.9,1.3-1.3,2c-0.1,0.5-0.3,1-0.5,1.5c0.2,0.3,0,0.5-0.1,0.8c-0.1,0.5-0.4,1.1-0.3,1.7c0.2,0.6-0.6,1.1-0.3,1.7
	c0.4,0.5,0,1.2,0.5,1.6l1.9-0.3c0-0.9,0.1-1.9,0.1-2.4c0-3.5,4.8-6,7.8-4.3c2.1-2.3,8,0.8,8,4.3c0,0.7,0.2,2,0.2,3.2l1,0.1
	c0-0.1,0.1-0.3,0.2-0.4c0.2-0.1-0.1-0.6-0.1-0.2c0,0.4-0.5,0.4-0.6,0.1c0.2-0.5,0.9-0.7,0.7-1.3c-0.2-0.8-0.3-1.6-0.3-2.4
	c-0.1-0.6-0.2-1.3-0.3-1.9c-0.3-0.5-0.4-1.1-0.7-1.6c-0.4-0.5-0.5-1-1-1.5c-0.8-0.6-1.4-1.4-2.3-1.9c-0.5-0.1-0.8-0.5-1.3-0.7
	c-1.1-0.3-2.1-1.1-3.3-1C24.6,7.7,23.9,7.3,23.1,7.3L23.1,7.3z M23.1,7.3"/>
<path class="st4" d="M18.1,19.3c-0.4,0-0.3,0.5-0.3,0.8c0.1,1,0.3,2,0.9,2.9c0.2,0.3,0.6-0.1,0.7-0.3c0.7-0.8,1.3-1.8,2.1-2.5
	c0.2-0.1,0.1,0.3,0,0.3c-0.6,0.7-1.2,1.5-1.8,2.2c-0.2,0.3-0.6,0.5-0.5,0.8c0.9,0.4,1.9,0.3,2.8,0.1c0.7-0.1,1.3-0.7,1.6-1.4
	c0.3-0.7,0.4-1.5,0.3-2.3c-1.5-0.2-2.9-0.3-4.4-0.5C19.1,19.3,18.6,19.3,18.1,19.3C18.2,19.3,18.1,19.3,18.1,19.3L18.1,19.3z
	 M31.6,19.5c-0.3,0-0.6,0-0.9,0h-0.3c-1.3,0-2.7-0.1-4,0.2c-0.4,0.1-0.4,0.6-0.4,0.9c0.2,0.9,0.6,1.7,1.2,2.4
	c0.3,0.1,0.4-0.3,0.6-0.4c0.7-0.8,1.3-1.8,2.1-2.5c0.2-0.1,0,0.2,0,0.3c-0.2,0.3-0.5,0.5-0.6,0.8c-0.5,0.7-1.2,1.3-1.7,2.1
	c0.1,0.3,0.5,0.2,0.8,0.3c1,0,2-0.1,2.9-0.5c0.6-0.4,0.8-1.2,1-1.9c0.1-0.5,0.3-1,0.2-1.5C32.3,19.6,32,19.5,31.6,19.5L31.6,19.5z
	 M28.8,20.1L28.8,20.1c-0.4,0.7-1,1.3-1.6,1.8c-0.2,0.1,0.1-0.2,0.1-0.3C27.8,21.1,28.2,20.4,28.8,20.1L28.8,20.1z M20.4,20.1
	c0,0.1-0.3,0.3-0.4,0.5c-0.4,0.5-0.7,1-1.2,1.3c0.2-0.5,0.6-0.8,0.9-1.2C19.9,20.5,20.1,20.2,20.4,20.1L20.4,20.1z M19.3,20.2
	c0.3,0.1-0.2,0.3-0.2,0.5c-0.2,0.2-0.4,0.4-0.5,0.5C18.7,20.8,19,20.4,19.3,20.2L19.3,20.2z M27.7,20.2c0.2,0.2-0.2,0.4-0.2,0.5
	c-0.2,0.1-0.4,0.4-0.5,0.4C27.1,20.8,27.3,20.4,27.7,20.2L27.7,20.2z M22.7,20.4c-0.5,0.8-1.2,1.6-1.9,2.3c-0.1,0-0.4,0.4-0.4,0.2
	c0.2-0.3,0.5-0.6,0.7-0.9C21.7,21.4,22,20.8,22.7,20.4C22.7,20.4,22.7,20.4,22.7,20.4L22.7,20.4z M31.1,20.4c0,0.2-0.3,0.4-0.4,0.6
	c-0.5,0.7-1.1,1.4-1.8,1.9c0.4-0.7,1-1.3,1.5-2C30.6,20.8,30.8,20.5,31.1,20.4L31.1,20.4z M31.6,21.5C31.6,21.5,31.6,21.5,31.6,21.5
	c0.1,0.3-0.2,0.5-0.3,0.6c-0.3,0.2-0.4,0.5-0.7,0.6c0.2-0.4,0.6-0.8,0.9-1.1C31.5,21.5,31.6,21.5,31.6,21.5L31.6,21.5z M23.2,21.5
	L23.2,21.5c0.2,0.1-0.1,0.3-0.2,0.4c-0.3,0.3-0.5,0.7-0.9,0.8C22.5,22.2,22.8,21.8,23.2,21.5L23.2,21.5z M23.2,21.5"/>
<path class="st5" d="M24.4,27.2c-0.1,0-0.2,0.1-0.3,0.2c-0.2,0.1-0.4,0.4-0.1,0.4c0.7,0.1,1.6,0.3,2.3,0c0.1-0.3-0.3-0.4-0.5-0.5
	c-0.3-0.2-0.7,0.2-1,0.2C24.7,27.3,24.5,27.2,24.4,27.2L24.4,27.2z M26.3,28.2c0,0-0.1,0-0.2,0c-0.5,0-1,0-1.4,0
	c-0.3,0.1-0.6-0.1-0.9,0.1c0,0.3,0.4,0.4,0.6,0.6c0.6,0.5,1.4,0.2,1.9-0.2C26.7,28.4,26.6,28.2,26.3,28.2L26.3,28.2z M26.3,28.2"/>
<path class="st5" d="M31.7,36.5c-0.8,0.6-1.1,1.5-1.8,2.2c-1.6,1.8-3.3,3.7-4.9,5.5c0.2,0.3,0.6,0.9,1,1c2-2.1,3.9-4.2,5.7-6.4
	c0.3-0.5,1-0.9,0.9-1.5C32.4,36.9,32.1,36.5,31.7,36.5L31.7,36.5z M18.2,37.6C18.2,37.6,18.2,37.6,18.2,37.6c-0.4,0.2-1,0.5-0.9,1
	c2.2,1.6,4.2,3.3,6.3,5c0.5,0.5,1.1,0.7,1.5,0c0.4-0.2,0.3-0.6-0.1-0.8C22.7,41,20.6,39.2,18.2,37.6C18.2,37.6,18.2,37.6,18.2,37.6
	L18.2,37.6z M18.2,37.6"/>
<path class="st6" d="M23.1,7.2c-0.5,0-1.2,0.1-1.5,0.3c-0.2,0.1-0.8,0.6-0.9,0.6c0,0-0.2,0.1-0.3,0.1c-0.1,0-0.3,0-0.4,0.1
	c-0.2,0-0.5,0.2-0.6,0.3c0,0-0.1,0.1-0.2,0.1c-0.1,0-0.2,0.2-0.4,0.4c-0.1,0.2-0.3,0.4-0.4,0.5c-0.1,0.1-0.2,0.2-0.3,0.3
	c-0.1,0.1-0.3,0.3-0.5,0.5c-0.5,0.5-0.8,0.9-0.8,1c0,0.1-0.3,0.6-0.4,0.6c-0.1,0-0.3,0.4-0.3,0.6c0,0.1,0,0.2,0,0.2
	c0.1,0.1,0.1,0.1,0,0.1c0,0-0.1,0.1-0.2,0.2c0,0.1-0.1,0.2-0.2,0.3c-0.2,0.3-0.3,0.8,0,0.6c0.2-0.2,0.1,0-0.1,0.3
	c-0.2,0.3-0.3,0.4-0.3,0.7c0,0.4-0.1,0.7-0.1,0.7c-0.1,0-0.1,0.4-0.1,0.5c0,0.1,0.1,0.1,0.1,0.1c0.2,0,0.1,0.1,0,0.3
	c-0.2,0.2-0.4,0.8-0.4,1c0.1,0.3,0.1,0.4,0.2,0.5c0.1,0.1,0.1,0.2,0.1,0.5c0,0.5,0,0.6,0.2,0.8c0.1,0.1,0.2,0.1,0.4,0.1h0.2l0,0.3
	l0,0.3l-0.3,0c-0.4,0-0.6,0.2-0.7,0.6l-0.1,0.4l0.1,0.4c0.1,0.2,0.3,0.5,0.4,0.7c0.3,0.4,0.6,0.9,0.9,1.7c0.1,0.3,0.2,0.6,0.2,0.6
	c0.1,0.2,0.1,0.5-0.1,0.7c-0.2,0.3-0.4,0.8-0.4,1.1c0,0.3,0.2,0.9,0.4,0.9c0,0,0.1,0,0.1,0.1c0.1,0.1,0.8,0.4,1,0.4
	c0.1,0,0.2,0,0.2-0.1c0.1,0,0.2-0.1,0.2-0.1c0.1,0,0.1,0,0.2-0.1c0.1-0.1,0.3,0,0.3,0.1c0,0.1,0,0.2,0.1,0.2c0,0.1,0.1,0.3,0.2,0.5
	c0.1,0.2,0.2,0.4,0.3,0.6c0.1,0.1,0.2,0.3,0.2,0.3c0,0.1,0.5,0.6,1,0.9c0.2,0.2,0.3,0.3,0.3,1.3c0,0.5,0,1.1-0.1,1.3
	c0,0.2-0.1,0.4-0.1,0.4c0,0.1-0.1,0.3-0.1,0.5c-0.1,0.2-0.1,0.5-0.2,0.7c0,0.2-0.1,0.4-0.2,0.5c0,0.1-0.1,0.3-0.1,0.3
	c-0.2,0.4-1.1,1.6-1.6,2c-0.7,0.5-2.1,1.3-2.9,1.6c-0.3,0.1-1.4,0.6-1.6,0.7c-0.1,0-0.2,0.1-0.3,0.1c-0.2,0-0.3,0.1-0.3,0.3
	c0,0.1,0.1,0.1,0.2,0.1c0.2,0,0.7-0.2,1.7-0.6c0.2-0.1,0.3-0.1,0.3-0.1c0.1,0,0.4-0.2,1.3-0.6l0.7-0.3l0.2,0.2
	c0.2,0.2,0.5,0.4,1,0.8c0.1,0.1,0.3,0.3,0.5,0.4c1.6,1.2,3.1,2.5,4.8,3.7c0,0,0.1,0,0.1,0.1c0.1,0.1,0.2,0.2,0.3,0.2
	c0.1,0,0.2,0.1,0.2,0.1c0,0,0,0,0.1,0c0.1,0,0.8,0.5,1,0.7c0.1,0.1,0.3,0.3,0.5,0.5c0.2,0.1,0.4,0.2,0.4,0.2c0.2,0,0.7-0.4,1.4-1.3
	c0.4-0.5,0.7-0.8,1.4-1.5c0.1-0.1,0.3-0.3,0.3-0.4c0.1-0.1,0.3-0.4,0.6-0.7c0.3-0.3,0.6-0.7,0.8-0.9c0.2-0.2,0.3-0.4,0.4-0.5
	c0.1-0.1,0.8-0.9,1-1.2c0.2-0.3,1.1-1.4,1.3-1.5c0.1-0.1,0.1-0.1,0.4,0.1c0.5,0.2,1.2,0.4,1.9,0.6c0.3,0.1,0.7,0.1,0.7,0.2
	c0.1,0,0.2,0.1,0.3,0.1c0.1,0,0.3,0.1,0.5,0.1c0.3,0.1,0.5,0.1,0.5,0c0,0,0-0.1,0-0.1c0,0,0,0,0-0.1c0,0-0.1-0.1-0.1-0.1
	c0,0-0.1,0-0.2-0.1c-0.2-0.1-0.9-0.3-1.3-0.4c-0.7-0.1-1.4-0.4-1.8-0.5c-0.3-0.2-1.2-0.8-1.5-1c0,0-0.1-0.1-0.1-0.1
	c0,0-0.1,0-0.2-0.1c-0.1-0.1-0.2-0.2-0.3-0.3c-0.8-0.6-1-1-1.2-2.2c0-0.2-0.1-0.3-0.1-0.3c0,0,0-0.1,0-0.2c0-0.1,0-0.2,0-0.2
	c0,0-0.1-0.1-0.1-0.4c0-0.2,0-0.4,0-0.6c0-0.1,0-0.5-0.1-0.9c0-0.4,0-0.7-0.1-0.8c0-0.1,0-0.2,0.1-0.3c0.1-0.1,0.1-0.2,0.1-0.3
	c0-0.1,0.1-0.3,0.2-0.5c0.1-0.2,0.2-0.3,0.2-0.4c0,0,0-0.1,0.1-0.2c0.1-0.1,0.4-0.9,0.4-0.9c0-0.1,0.2-0.1,0.3,0
	c0,0,0.3,0.1,0.5,0.1c0.5,0,0.7-0.1,1.1-0.5c0.4-0.4,0.5-0.8,0.4-1.2c0-0.2-0.1-0.4-0.2-0.5c-0.4-0.5-0.4-0.5-0.3-0.7
	c0-0.1,0.2-0.5,0.3-0.8c0.4-1.2,0.5-1.5,0.6-1.8c0.1-0.2,0.2-0.4,0.2-0.4c0,0,0-0.1,0.1-0.2c0.1-0.1,0.2-0.9,0.2-1
	c0-0.1-0.3-0.4-0.4-0.4c-0.1,0-0.1,0,0-0.2c0.3-0.4,0.4-0.6,0.2-0.8c-0.1-0.1-0.2,0-0.2,0.2c-0.1,0.3-0.1,0.3-0.2,0.3
	C34,20,34,20,34,19.9c0-0.1,0-0.1-0.2-0.2c-0.1-0.1-0.2-0.1-0.2-0.1c0,0,0.1-0.1,0.2-0.1c0.1-0.1,0.2-0.2,0.2-0.2
	c0.1,0,0.2-0.2,0.3-0.3c0.2-0.2,0.2-0.3,0.2-0.6c0-0.2-0.1-0.4-0.1-0.5c-0.1-0.1-0.1-0.2-0.1-0.5c0-0.3,0-0.4-0.1-0.6
	c-0.1-0.1-0.1-0.2,0-0.4c0.1-0.3,0.1-0.8-0.1-1c-0.1-0.2-0.1-0.3-0.1-0.6c0-0.5-0.1-0.9-0.3-1.2c-0.1-0.1-0.2-0.2-0.2-0.3
	c0-0.1,0-0.3-0.1-0.4c-0.1-0.3-0.5-0.9-0.6-0.9c-0.1,0-0.1-0.1-0.1-0.2c0-0.2-0.2-0.5-0.3-0.7c-0.3-0.3-0.4-0.4-0.6-0.4
	c0,0-0.1-0.1-0.2-0.2c-0.2-0.3-0.7-0.8-0.8-0.8c-0.1,0-0.2-0.1-0.4-0.3C30,9,29.8,8.9,29.7,9c-0.1,0-0.1,0-0.3-0.2
	c-0.3-0.4-0.5-0.4-1-0.6C28,8.1,27.7,8,27.5,7.9c-0.3-0.2-1.1-0.5-1.6-0.5c-0.3,0-0.4,0-0.8,0.1c-0.4,0.1-0.4,0.1-0.7,0
	c-0.2-0.1-0.4-0.1-0.6-0.1c-0.2,0-0.3,0-0.4-0.1C23.4,7.2,23.2,7.2,23.1,7.2L23.1,7.2z M23.1,7.6c0.5,0,1,0.1,1.5,0.3
	c0.6,0.3,0.8,0.4,1,0.6c0.4,0.3,0.7,0.7,0.7,0.7c0,0,0.1,0.1,0.1,0.2c0.1,0.1,0.2,0.2,0.2,0.3c0.1,0.1,0.1,0.3,0.2,0.3
	c0,0,0.1,0.1,0.1,0.1c0,0,0.1,0.2,0.1,0.4c0.1,0.2,0.2,0.3,0.3,0.4c0.2,0,0.2-0.1,0-0.5C27,9.6,26,8.3,25.5,7.9
	c-0.1-0.1-0.1-0.1-0.1-0.1c0-0.1,0.7,0,1,0c0.4,0.1,1,0.4,1.3,0.6c0.1,0.1,0.2,0.3,0.3,0.4C27.9,9,28,9.1,28,9.2
	c0.1,0.2,0.1,0.7,0.1,1.4c0,0.3,0,0.4,0.1,0.5c0.1,0.1,0.2-0.1,0.3-0.5c0-0.2,0-0.4,0.1-0.5c0-0.2-0.1-0.9-0.2-1
	c0-0.1-0.1-0.2-0.1-0.2c-0.1-0.1-0.1-0.3,0-0.3c0.1,0,0.6,0.3,0.7,0.4C29,8.9,29,9,29.1,9c0.1,0,0.1,0,0.1,0c0,0,0,0.1,0.1,0.3
	c0.1,0.2,0.1,0.3,0.1,0.8c0,0.6,0,0.6-0.3,1.2c-0.1,0.3-0.1,0.4,0,0.5c0.1,0.1,0.2,0,0.2-0.2c0-0.1,0.1-0.3,0.2-0.4
	c0.1-0.1,0.3-0.7,0.3-1.3c0-0.4,0.1-0.6,0.1-0.5c0,0.1,0.1,0.1,0.1,0.1c0.1,0,0.3,0.2,0.4,0.4c0.1,0.3,0.2,1,0.1,1.3
	c0,0.1-0.1,0.3-0.2,0.5C30,12,30,12.3,30.1,12.3c0.1,0,0.3-0.1,0.3-0.2c0,0,0-0.1,0.1-0.2c0.2-0.2,0.4-0.7,0.4-1.2
	c0-0.2,0.1-0.4,0.1-0.4c0.1,0,0.3,0.3,0.4,0.4c0,0.1,0.1,0.3,0.1,0.4c0,0.3-0.2,0.9-0.3,1.2c-0.1,0.1-0.2,0.3-0.2,0.4
	c-0.1,0.2,0,0.2,0.1,0.2c0.1,0,0.3-0.1,0.4-0.3c0-0.1,0.1-0.2,0.1-0.3c0.1-0.1,0.2-0.4,0.2-0.6c0.1-0.3,0.1-0.5,0.1-0.5
	c0.1-0.1,0.4,0.2,0.5,0.4c0.1,0.3,0.1,0.4,0.1,0.6c0,0.3-0.2,0.7-0.4,1.1c-0.1,0.2-0.2,0.4-0.2,0.6c0,0.1,0.1,0.1,0.2,0
	c0.2-0.2,0.7-1.2,0.7-1.3c0-0.2,0.3,0,0.4,0.3c0.2,0.4,0.1,0.9-0.2,1.2c-0.5,0.5-0.6,0.6-0.4,0.8c0.1,0.1,0.2,0,0.4-0.2
	c0-0.1,0.1-0.2,0.2-0.3c0.1-0.1,0.2-0.2,0.2-0.3c0.1-0.2,0.2-0.1,0.3,0.1c0.2,0.4,0.1,0.9-0.5,1.5c-0.3,0.4-0.3,0.5-0.2,0.6
	c0.1,0.1,0.2,0,0.5-0.4c0.2-0.2,0.3-0.3,0.3-0.3c0,0,0.1,0.1,0.1,0.2c0.1,0.3-0.2,0.8-0.6,1.1c-0.2,0.1-0.3,0.4-0.1,0.4
	c0.1,0,0.1,0,0.2-0.1c0,0,0.1-0.1,0.1-0.1c0,0,0.1,0,0.2-0.1C33.9,17,33.9,17,34,17c0,0,0.1,0.1,0.1,0.3c0,0.2,0,0.3,0,0.4
	c-0.1,0.2-0.3,0.4-0.6,0.5c-0.2,0.1-0.3,0.3-0.2,0.4c0.1,0.1,0.5,0,0.7-0.2c0.1-0.1,0.2-0.2,0.2-0.2c0.1,0,0.1,0.2,0.1,0.4
	c0,0.2,0,0.3-0.2,0.4c-0.1,0.1-0.3,0.2-0.5,0.2c-0.2,0.1-0.3,0.1-0.3,0.2c0,0.1-0.3,0.1-0.4,0c0,0-0.2-0.1-0.4-0.1
	c-0.4-0.1-0.7-0.1-3-0.1c-0.8,0-1.8,0-2.2,0c-0.4,0-0.7,0-0.7,0c0,0-0.2,0.1-0.3,0.1c-0.1,0-0.4,0.1-0.5,0.1c-0.2,0-0.6,0.1-1.2,0
	c-1.4-0.1-2.9-0.2-3-0.2c-0.1-0.1-1.9-0.2-2.6-0.2c-1,0-1.5,0-1.5,0.1c0,0.1-0.2,0.1-0.6,0.1c-0.3,0-0.6,0-0.6,0
	c-0.1-0.1,0.3-0.4,0.5-0.4c0.3,0,0.4,0,0.4-0.1c0-0.1-0.3-0.2-0.6-0.2c-0.2,0-0.3,0-0.5,0.3l-0.3,0.3l0-0.3c0.1-0.4,0.2-0.6,0.6-1
	c0.2-0.2,0.3-0.3,0.3-0.3c0,0,0.1,0,0.2,0c0.2-0.1,0.6,0,0.7,0.2c0.1,0.2,0.2,0.2,0.3,0c0-0.1-0.4-0.5-0.6-0.6c-0.1,0-0.2,0-0.3-0.1
	c-0.1,0-0.5,0.2-0.7,0.4c-0.1,0.1-0.2,0.2-0.2,0.1c0,0-0.6,0.6-0.6,0.6c0,0,0,0,0,0c-0.1,0,0-0.5,0.1-0.8c0.1-0.1,0.1-0.3,0.1-0.3
	c0-0.2,0.7-0.6,1-0.7c0.3-0.1,0.8,0.1,0.9,0.2c0.1,0.1,0.1,0.1,0.2,0.1c0,0,0.1,0,0.1,0.1c0,0,0,0.1,0.1,0.1c0,0,0.1,0,0.1-0.1
	c0,0,0-0.1-0.1-0.1c0,0,0,0,0-0.1c0,0-0.1-0.2-0.2-0.3c-0.2-0.2-0.2-0.2-0.6-0.3c-0.2,0-0.5,0-0.6,0c-0.2,0-0.6,0.2-0.7,0.3
	c0,0-0.1,0.1-0.2,0.1c-0.1,0-0.1,0-0.1-0.2c0-0.2,0.1-0.3,0.3-0.5c0.3-0.2,0.7-0.5,0.9-0.5c0.1,0,0.7,0.1,0.9,0.1
	c0.5,0.1,0.6,0.1,0.3-0.2c-0.2-0.2-0.5-0.3-1-0.3c-0.3,0-0.4,0-0.7,0.1c-0.3,0.2-0.4,0.2-0.4,0.1c0-0.1,0.4-0.6,0.4-0.6
	c0,0,0.1,0,0.2-0.1c0.1,0,0.2-0.2,0.3-0.3l0.2-0.2l0.7,0.1c0.4,0,0.7,0.1,0.8,0.1c0.1,0,0.1,0,0.1,0.1c0,0,0.1,0,0.1,0
	c0.1,0,0.1,0,0.1,0c0-0.1-0.2-0.2-0.2-0.1c0,0,0,0-0.1,0c-0.1-0.2-0.7-0.3-1.2-0.3c-0.4,0-0.5,0-0.8,0.2c-0.2,0.1-0.4,0.2-0.4,0.3
	c0,0-0.1,0-0.1,0c0,0,0.1-0.3,0.3-0.6c0-0.1,0.2-0.2,0.4-0.3c0.2-0.1,0.3-0.2,0.3-0.2c0,0,0.1,0,0.2,0c0.1,0,0.2,0,0.3-0.1
	c0.3-0.1,0.6-0.2,0.8-0.2c0.2,0,0.8,0.1,1,0.2c0.1,0,0.1,0.1,0.2,0.1c1.1,0.8,0.6-0.4-0.7-0.5c-0.6,0-1.3,0.1-1.7,0.3
	c-0.2,0.1-0.4,0.2-0.4,0.2c0,0,0-0.1,0.1-0.2c0.1-0.2,0.1-0.3,0.7-0.7c0.2-0.1,0.3-0.3,0.4-0.3c0,0,0.1-0.1,0.1,0c0,0,0.1,0,0.3-0.1
	c0.4-0.2,1.1-0.2,1.6-0.1c0.2,0,0.4,0.1,0.4,0.1c0.2,0.2,0.5,0.3,0.8,0.4c0,0.1,0.3,0.2,0.4,0.1c0.1-0.1,0.1-0.1-0.3-0.3
	c-0.8-0.5-1.2-0.7-1.8-0.8c-0.4,0-1,0.1-1.5,0.3c-0.1,0.1-0.3,0.1-0.3,0.1c-0.1-0.1,0.4-0.5,0.7-0.6c0.4-0.1,1.8-0.2,2.2,0
	c0,0,0.2,0.1,0.4,0.1c1.1,0.3,1.4,0.4,1.6,0.5c0.1,0.1,0.3,0.2,0.4,0.2c0.1,0.1,0.1,0.1,0.1,0c0,0,0.1-0.1,0.1-0.1
	c0.3,0-0.6-0.6-1.3-0.8c-0.3-0.1-0.7-0.2-0.9-0.3c-0.6-0.2-1.6-0.3-2.2-0.2c-0.1,0-0.2,0-0.2,0c0,0,0.1,0,0.1,0c0,0,0.1,0,0.2-0.1
	c0.1-0.1,0.1-0.1,0.2-0.1c0.1,0,0.6-0.1,0.7-0.1c0.4-0.1,1.2-0.1,1.7,0c0.2,0.1,0.6,0.1,0.7,0.2c1.2,0.2,1.4,0.3,1.9,0.8
	c0.2,0.2,0.4,0.4,0.4,0.3c0,0,0,0,0.1,0c0.1,0.1,0.2,0,0.1-0.2c-0.1-0.4-0.9-1-1.4-1.2c-0.2-0.1-1.1-0.2-1.6-0.3
	c-0.1,0-0.2,0-0.2-0.1c-0.1-0.1-1.5,0-1.7,0c-0.5,0.2-0.5-0.1,0.1-0.4c0.5-0.2,1.2-0.3,2-0.3c0.3,0,0.5,0,0.6,0.1
	c0,0,0.3,0.1,0.6,0.1c0.4,0.1,0.7,0.1,1,0.3c0.7,0.3,1,0.5,1.1,0.6c0.1,0.1,0.2,0.2,0.3,0.2c0.3,0.2,0.5,0.4,0.5,0.5
	c0,0,0.1,0.1,0.2,0.2c0.1,0.1,0.2,0.2,0.2,0.2c0,0,0,0.1,0,0.2c0,0.1,0,0.1,0.1,0c0.1-0.2,0-0.6-0.2-0.9c-0.5-0.5-1.1-1-1.3-1
	c0,0-0.2-0.1-0.3-0.2c-0.6-0.4-0.9-0.5-2-0.6c-0.7-0.1-0.8-0.1-0.8-0.2c0-0.1,0-0.1,0.1-0.1c0.1,0,0.2,0,0.2-0.1
	c0.1-0.1,0.6-0.2,0.9-0.3C22.7,7.6,22.9,7.6,23.1,7.6L23.1,7.6z M18.2,19.3c0.1,0,0.4,0,0.7,0c0.7,0,0.8,0,1,0.1
	c0.1,0,0.3,0.1,0.6,0.1c0.2,0,0.7,0.1,1,0.1c0.3,0,0.7,0.1,0.8,0.1c0.1,0,0.3,0,0.4,0c0.1,0,0.2,0,0.3,0c0,0,0.1,0,0.1,0
	c0,0.1,0,0.1,0.5,0.1c0.2,0,0.3,0,0.4,0c0.1,0,0.1,0.1,0.1,0.5c0,0.2,0,0.3,0,0.4c0,0.1-0.1,0.8-0.1,1c-0.3,0.6-0.6,1.5-1.3,1.7
	c0,0-0.2,0-0.3,0.1c-0.1,0-0.4,0.1-0.6,0.2c-0.5,0.1-0.8,0.1-1.4,0c-0.4,0-0.8-0.2-1-0.3c0.1-0.1,0.4-0.4,0.7-0.8
	c0.1-0.2,0.3-0.3,0.3-0.4c0,0,0.1-0.1,0.2-0.2c0.1-0.1,0.2-0.2,0.3-0.3c0.1-0.1,0.2-0.2,0.2-0.3c0,0,0.1-0.2,0.2-0.3
	c0.1-0.1,0.1-0.3,0.2-0.3c0.1,0,0.4-0.4,0.4-0.4c0,0,0-0.1,0.1-0.1c0.1,0,0.1-0.2,0-0.2c0,0,0,0,0,0c0,0-0.1,0-0.1,0
	c-0.1,0.1-0.5,0.4-0.6,0.7c-0.2,0.2-0.9,1.2-1.1,1.4c-0.1,0.1-0.1,0.2-0.1,0.2c0,0,0,0.1,0,0.1c0,0-0.1,0.1-0.2,0.2S19.1,23,19,23
	c0,0-0.1,0.1-0.1,0.1c0,0,0,0,0,0.1c-0.5-0.5-0.6-1-0.9-1.7c0-0.1-0.1-0.3-0.1-0.6c0-0.2,0-0.5-0.1-0.5c0,0,0-0.3-0.1-0.5
	C17.8,19.4,17.9,19.3,18.2,19.3L18.2,19.3z M30.9,19.6c0.1,0,0.8,0,0.8,0.1c0,0,0.1,0,0.1,0c0.1,0,0.1,0,0.3,0
	c0.3,0.1,0.3,0.2,0.3,0.5c0,0.2-0.1,0.5-0.1,0.7c-0.1,0.4-0.2,0.8-0.3,1.1c0,0.1-0.1,0.2-0.1,0.3c-0.2,0.4-0.3,0.7-0.5,0.8
	c-0.2,0.1-0.6,0.3-0.8,0.3c-0.1,0-0.3,0-0.5,0.1c-0.2,0-0.5,0.1-0.7,0.1c-0.8,0.1-1.9,0-1.9-0.2c0-0.1,0-0.2,0.6-0.8
	c0.1-0.2,0.3-0.3,0.3-0.4c0,0,0.1-0.1,0.2-0.2c0.1-0.1,0.2-0.2,0.3-0.3c0.1-0.1,0.2-0.2,0.2-0.3c0,0,0.1-0.2,0.2-0.3
	c0.1-0.1,0.1-0.3,0.2-0.3c0.1,0,0.4-0.4,0.4-0.4c0,0,0-0.1,0.1-0.1c0.1,0,0.1-0.2,0-0.3c0,0-0.1,0-0.2,0c-0.1,0.1-0.5,0.4-0.6,0.7
	c-0.2,0.2-0.9,1.2-1.1,1.4c-0.1,0.1-0.1,0.2-0.1,0.2c0,0,0,0.1,0,0.1c0,0-0.1,0.1-0.1,0.2s-0.1,0.2-0.2,0.2c0,0-0.1,0-0.1,0.1
	c-0.1,0.2-0.2,0.1-0.3-0.1c-0.3-0.4-0.6-0.8-0.7-1.3c0-0.1-0.1-0.3-0.1-0.3c0-0.1-0.1-0.1,0-0.1c0,0,0-0.1,0-0.1
	c0-0.1-0.1-0.2-0.1-0.2c0-0.1,0-0.3-0.1-0.4c-0.1-0.5,0.2-0.7,1-0.6c0.3,0,0.6,0,0.6-0.1c0,0,0.1,0,0.1,0c0.1,0,1.4,0.1,1.9,0
	c0,0,0.2,0,0.3,0c0.1,0,0.2,0,0.2,0c0,0,0.2,0,0.4,0C30.8,19.6,30.9,19.6,30.9,19.6L30.9,19.6z M17.1,19.6c0.2,0,0.2,0,0.2,0.1
	c0.1,0.3,0.1,0.5,0.1,0.7c0.2,1.1,0.4,2.1,1,3c0.1,0.1,0.2,0.2,0.2,0.2c0,0,0.1,0,0.1,0c0,0.1,0.5,0.3,0.6,0.3c0.1,0,0.2,0,0.2,0.1
	C19.6,24,20,24,20.7,24c0.4,0,0.7,0,1.3-0.2c0.1,0,0.3-0.1,0.4-0.1c0.2,0,0.4-0.2,0.7-0.4c0.7-0.6,1.2-1.5,1.1-2.1
	c0-0.1,0-0.2,0-0.3c0-0.1,0.5-0.2,0.7-0.2c0.2,0.1,0.4,0.1,0.4,0c0,0,0,0,0.1,0c0.1,0,0.1,0.1,0.2,0.1c0.1,0,0.1,0.2,0.2,0.3
	c0.2,0.5,0.3,0.8,0.4,0.8c0,0,0,0,0,0c0,0.4,0.9,1.5,1,1.6c0.4,0.2,0.8,0.3,1.4,0.3c0.3,0,0.6,0,0.6,0c0,0,0.2,0,0.5,0
	c0.2,0,0.4,0,0.5-0.1c0,0,0.2-0.1,0.3-0.1c0.1,0,0.2,0,0.2,0c0,0,0.1,0,0.2-0.1c0.2,0,0.3-0.1,0.5-0.2c0.3-0.2,0.6-0.5,0.8-0.8
	c0.2-0.3,0.4-1.1,0.4-1.1c0,0,0,0,0-0.1c0,0,0.1-0.3,0.1-0.6c0.1-0.8,0.2-0.9,0.4-0.9c0.2,0,0.2,0.1-0.1,1.1c-0.1,0.4-0.3,0.9-0.3,1
	c0,0.1-0.1,0.4-0.1,0.5c-0.1,0.3-0.2,0.9-0.3,1.2c0,0.1-0.1,0.3-0.3,0.9c-0.2,0.7-0.5,1.5-0.5,1.6c0,0.1,0,0.2-0.1,0.2
	c-0.1,0.2-0.2,0.7-0.3,0.8c0,0.1,0,0.2-0.1,0.2c0,0.1-0.1,0.3-0.2,0.5c-0.1,0.2-0.3,0.7-0.5,1.2c-0.4,0.7-0.4,0.8-0.7,1.1
	c-0.2,0.1-0.4,0.3-0.5,0.4c-0.1,0.1-0.2,0.2-0.2,0.2c0,0-0.1,0-0.1,0.1c0,0-0.3,0.2-0.6,0.3c-0.3,0.1-0.6,0.3-0.8,0.4
	c-0.2,0.1-0.4,0.2-0.4,0.2c0,0-0.1,0-0.1,0.1c-0.1,0.1-1,0.4-1.2,0.4c-1.2,0.2-1.9,0-2.7-0.4c-0.2-0.1-0.5-0.3-0.8-0.4
	c-0.7-0.4-1.5-0.9-2.1-1.4c0,0-0.2-0.1-0.3-0.2c-0.1-0.1-0.3-0.2-0.3-0.3c0-0.1-0.2-0.3-0.3-0.4c-0.1-0.1-0.2-0.2-0.2-0.2
	c0,0-0.1-0.1-0.1-0.2c-0.1-0.1-0.1-0.2-0.1-0.3c0-0.1,0-0.2-0.1-0.3c-0.5-1-0.4-1.1-0.7-1.7c0,0,0-0.1-0.1-0.3
	c-0.2-0.6-0.4-1.2-0.6-1.8c-0.1-0.3-0.2-0.5-0.2-0.6c-0.5-1.2-0.8-2.2-1-3.6c0-0.1-0.1-0.3-0.1-0.4c-0.1-0.2,0-0.2,0.6-0.3
	C16.9,19.6,17,19.6,17.1,19.6L17.1,19.6z M25.7,19.8l0,0.3l0,0.3h-0.6c-0.3,0-0.6,0-0.7,0c0,0,0-0.1,0-0.2c0-0.2,0.1-0.2,0.8-0.3
	L25.7,19.8z M20.4,20C20.4,20,20.4,20,20.4,20c-0.2,0.1-1,0.9-1,1c0,0,0,0.1-0.1,0.2c-0.3,0.2-0.5,0.6-0.5,0.7c0,0.1,0,0.1,0.1,0.1
	c0.1,0,0.6-0.5,0.6-0.6c0,0,0-0.1,0.1-0.1c0.1,0,0.6-0.6,0.6-0.7c0,0,0.1-0.2,0.3-0.3c0.2-0.2,0.3-0.3,0.2-0.3
	C20.5,20,20.5,20,20.4,20L20.4,20z M28.8,20C28.7,20,28.7,20,28.8,20c-0.2,0.1-1,0.9-1,1c0,0,0,0.1-0.1,0.2
	c-0.3,0.2-0.5,0.6-0.5,0.7c0,0.1,0,0.1,0.1,0.1c0.1,0,0.6-0.5,0.6-0.6c0,0,0-0.1,0.1-0.1c0.1,0,0.6-0.6,0.6-0.7c0,0,0.1-0.2,0.3-0.3
	c0.2-0.2,0.3-0.3,0.2-0.3C28.9,20,28.8,20,28.8,20L28.8,20z M19.3,20.1c-0.1,0-0.4,0.3-0.5,0.5c-0.1,0.1-0.2,0.2-0.2,0.3
	c-0.1,0.1-0.1,0.2-0.1,0.2c0,0.1,0,0.1,0.1,0.1c0,0,0.3-0.2,0.6-0.5c0.5-0.5,0.5-0.5,0.4-0.6C19.4,20.2,19.3,20.1,19.3,20.1
	L19.3,20.1z M27.7,20.1c-0.1,0-0.4,0.3-0.5,0.5c-0.1,0.1-0.2,0.2-0.2,0.3c-0.1,0.1-0.1,0.2-0.1,0.2c0,0.1,0,0.1,0.1,0.1
	c0,0,0.3-0.2,0.6-0.5c0.5-0.5,0.5-0.5,0.4-0.6C27.7,20.2,27.7,20.1,27.7,20.1L27.7,20.1z M22.7,20.3c-0.1,0-0.2,0.1-0.5,0.4
	c-0.2,0.3-0.4,0.5-0.4,0.5c0,0-0.1,0.1-0.2,0.2c-0.1,0.1-0.3,0.3-0.4,0.5c-0.1,0.2-0.3,0.4-0.5,0.6c-0.2,0.2-0.3,0.4-0.2,0.4
	c0.1,0.1,0.1,0,0.2-0.1c0.5-0.5,0.9-0.8,1-1c0.1-0.1,0.2-0.3,0.3-0.4c0.1-0.1,0.3-0.3,0.4-0.5c0.1-0.2,0.3-0.4,0.3-0.4
	C22.8,20.4,22.8,20.3,22.7,20.3C22.7,20.3,22.7,20.3,22.7,20.3L22.7,20.3z M31,20.3c-0.1,0-0.2,0.1-0.5,0.4
	c-0.2,0.3-0.4,0.5-0.4,0.5c0,0-0.1,0.1-0.2,0.2c-0.1,0.1-0.3,0.3-0.4,0.5c-0.1,0.2-0.3,0.4-0.5,0.6c-0.2,0.2-0.3,0.4-0.2,0.4
	c0.1,0.1,0.1,0,0.2-0.1c0.5-0.5,0.9-0.8,1-1c0.1-0.1,0.2-0.3,0.3-0.4c0.1-0.1,0.3-0.3,0.4-0.5c0.1-0.2,0.3-0.4,0.3-0.4
	C31.2,20.4,31.2,20.3,31,20.3C31,20.3,31,20.3,31,20.3L31,20.3z M15.9,20.8c0,0,0.1,0,0.1,0.1c0.1,0.1,0.1,0.4,0,0.4
	c-0.1-0.1-0.4,0.1-0.4,0.2c0,0.1,0,0.1,0.3,0.1c0.1,0,0.2,0,0.2,0.1c0,0,0.1,0.1,0.1,0.1c0.1,0,0.2,0.2,0.2,0.4
	c0,0.1,0.1,0.2,0.1,0.2c0,0,0.1,0.1,0.1,0.2c0.2,0.6,0.4,1.4,0.6,2c0.1,0.1,0.1,0.3,0.1,0.4c0,0.1,0,0.2,0.1,0.2
	c0,0,0.1,0.1,0.1,0.2c0,0.1,0,0.2,0,0.2c0.1,0.1-0.2,0.1-0.3,0c-0.1-0.1-0.1-0.1,0-0.2c0.2-0.1,0.1-0.4-0.2-0.3
	c-0.1,0-0.1,0-0.2-0.3c-0.1-0.5-0.5-1.5-0.6-1.5c0,0-0.1-0.1-0.1-0.2c0-0.1-0.1-0.2-0.1-0.3c-0.1-0.1-0.1-0.2-0.1-0.2
	c0,0-0.1-0.2-0.3-0.5c-0.2-0.3-0.3-0.4-0.3-0.6c0-0.4,0.1-0.5,0.4-0.6C15.8,20.8,15.8,20.8,15.9,20.8L15.9,20.8z M34,20.8
	c0.2,0,0.3,0.1,0.3,0.3c-0.1,0.4-0.2,0.9-0.3,1.1c-0.2,0.2-0.4,0.8-0.4,0.9c0,0-0.1,0.2-0.1,0.4c-0.1,0.2-0.2,0.5-0.2,0.7
	c-0.2,0.5-0.3,0.7-0.4,0.8c-0.1,0-0.2,0.1-0.2,0.1c0,0,0,0.1,0.1,0.2c0.1,0.2,0,0.2-0.1,0.3c-0.1,0.1-0.4,0.2-0.4,0.1
	c0,0,0.1-0.4,0.3-0.9c0.1-0.4,0.3-0.9,0.3-0.9c0-0.1,0-0.2,0.1-0.2c0,0,0.1-0.1,0.1-0.2c0-0.1,0-0.2,0.1-0.3c0,0,0.1-0.4,0.2-0.7
	c0.1-0.3,0.2-0.6,0.2-0.7c0,0,0.1,0,0.3-0.1c0.1,0,0.2,0,0.2-0.1c0-0.1-0.1-0.2-0.3-0.2c-0.1,0-0.2,0-0.1-0.2c0-0.2,0-0.2,0.1-0.2
	c0.1,0,0.2-0.1,0.2-0.1C33.7,20.8,33.9,20.8,34,20.8L34,20.8z M23.3,21.4c-0.1,0-0.3,0.2-0.6,0.6c-0.1,0.1-0.3,0.4-0.4,0.5
	c-0.1,0.2-0.2,0.2-0.1,0.3c0,0.1,0.1,0.1,0.2,0c0.1,0,0.1-0.1,0.1-0.1c0,0,0,0,0.1,0c0,0,0.1,0,0.1,0c0-0.1,0-0.2,0.1-0.2
	c0.1,0,0.4-0.4,0.6-0.6c0-0.1,0.1-0.2,0.1-0.2C23.5,21.6,23.4,21.4,23.3,21.4L23.3,21.4z M31.6,21.4c-0.1,0-0.3,0.2-0.6,0.6
	c-0.1,0.1-0.3,0.4-0.4,0.5c-0.1,0.2-0.2,0.2-0.1,0.3c0,0.1,0.1,0.1,0.2,0c0.1,0,0.1-0.1,0.1-0.1c0,0,0,0,0.1,0c0,0,0.1,0,0.1,0
	c0-0.1,0-0.2,0.1-0.2c0.1,0,0.4-0.4,0.6-0.6c0-0.1,0.1-0.2,0.1-0.2C31.8,21.6,31.7,21.4,31.6,21.4L31.6,21.4z M26.8,24.7
	c-0.2,0-0.3,0.2,0,0.4c0.1,0.1,0.2,0.1,0.2,0.2c0,0.1-0.4,0.3-0.9,0.3c-0.3,0-0.5,0-0.6,0.1c-0.2,0.1-0.4,0.1-0.6-0.1
	c-0.2-0.2-0.4-0.2-1-0.2c-0.4,0-0.5,0-0.5-0.1c0-0.1-0.1-0.1,0-0.2c0.1-0.1-0.1-0.2-0.2-0.1C23,25,23,25,23,25.2
	c0,0.3,0.1,0.4,0.8,0.4c0.4,0,0.6,0.1,0.8,0.1c0.1,0.1,0.3,0.1,0.3,0.2c0,0,0.1,0,0.1,0.1c0.1,0,0.4,0,0.6-0.1
	c0.1,0,0.3-0.1,0.5-0.1c0.2,0,0.4,0,0.6-0.1c0.1-0.1,0.2-0.1,0.3-0.1c0,0,0.2-0.1,0.3-0.2c0.2-0.2,0.2-0.2,0.2-0.4
	c0-0.2-0.1-0.4-0.4-0.4C26.9,24.7,26.8,24.6,26.8,24.7L26.8,24.7z M33,25.7C33,25.7,33.1,25.7,33,25.7c0.1,0.1,0.2,0.1,0.2,0.1
	c0,0,0.1,0.1,0.1,0.2c0.1,0.1,0.1,0.4,0.1,0.8c0,0.1-0.4,0.5-0.6,0.6c-0.3,0.1-0.7,0.1-0.9,0c-0.2-0.1-0.2-0.3,0-0.7
	c0.1-0.1,0.1-0.2,0.1-0.2c0,0,0-0.1,0.1-0.2c0.1-0.1,0.1-0.2,0.2-0.1c0.1,0,0.4-0.1,0.6-0.3C32.9,25.7,33,25.7,33,25.7L33,25.7z
	 M16.7,25.7l0.2,0.1c0.3,0.2,0.5,0.2,0.6,0.1c0-0.1,0.2,0.1,0.2,0.3c0,0.1,0.1,0.1,0.1,0.2c0.1,0,0.1,0.1,0.1,0.1c0,0,0,0.1,0,0.1
	c0.1,0,0.1,0.5,0,0.6c0,0-0.1,0.1-0.3,0.2c-0.4,0.2-0.8,0.1-1.2-0.3c-0.3-0.3-0.3-0.5-0.3-0.8c0-0.2,0.1-0.4,0.1-0.3
	c0,0,0.1,0,0.1-0.1L16.7,25.7z M24.4,26.9c0,0-0.2,0.1-0.4,0.2c-0.6,0.3-0.8,0.4-1.1,0.3c-0.2,0-0.4-0.1-0.6-0.1
	c-0.3-0.1-0.4-0.1-0.4,0.1c0,0.1,0,0.2,0.3,0.3c0.1,0.1,0.3,0.2,0.3,0.2c0,0,0.1,0.1,0.2,0.2c0.1,0,0.2,0.1,0.3,0.2
	c0,0.1,0.1,0.1,0.2,0.1c0.1,0,0.1,0,0.1,0c0,0.1,0.3,0.4,0.4,0.4c0,0,0.1,0,0.1,0.1c0.5,0.4,0.8,0.6,1.1,0.6c0.1,0,0.2,0,0.3,0
	c0,0,0.2,0,0.4-0.1c0.4,0,0.9-0.4,1.5-0.9c0.2-0.2,0.5-0.5,0.6-0.5c0.1,0,0.2-0.1,0.3-0.2c0.1-0.1,0.2-0.2,0.3-0.2
	c0.1-0.1,0.1-0.1,0-0.2c-0.1-0.1-0.1-0.1-0.3,0c-0.1,0.1-0.4,0.1-0.6,0.1c-0.3,0-0.4,0-0.9-0.3c-0.7-0.4-0.8-0.4-1.1-0.2L25,27.1
	L24.8,27C24.6,26.9,24.5,26.9,24.4,26.9L24.4,26.9L24.4,26.9z M24.4,27.3c0.1,0,0.1,0,0.2,0.2l0.2,0.2l0.3-0.1
	c0.3-0.2,0.6-0.2,0.7-0.1c0,0,0.1,0.1,0.1,0.1c0.1,0,0.4,0.3,0.3,0.3c0,0-0.2,0-0.3,0.1c-0.8,0.1-0.8,0.1-1.8-0.1l-0.4-0.1l0.2-0.1
	c0.1-0.1,0.2-0.1,0.2-0.1c0,0,0.1-0.1,0.2-0.1C24.4,27.3,24.4,27.3,24.4,27.3L24.4,27.3z M33.3,27.8c0,0-0.1,0-0.1,0
	c-0.1,0-0.1,0-0.2,0.1c0,0-0.1,0.1-0.1,0.1c0,0.2,0.1,0.3,0.3,0.4c0.1,0,0.1,0,0.2,0c0.1-0.1,0.1-0.3,0.1-0.4
	C33.4,27.9,33.4,27.8,33.3,27.8L33.3,27.8z M16.4,27.8c-0.1,0-0.1,0-0.2,0.1c0,0.1,0,0.4,0,0.4c0,0,0.1,0.1,0.2,0
	c0.2,0,0.3-0.2,0.3-0.3c0,0,0-0.1-0.1-0.1c0-0.1-0.1-0.1-0.2-0.1C16.5,27.8,16.5,27.8,16.4,27.8L16.4,27.8z M17.9,28
	c0,0-0.1,0-0.1,0c-0.2,0-0.2,0.1-0.2,0.2c0,0.1,0.1,0.4,0.2,0.4c0.1,0,0.1,0,0.2,0c0.2-0.1,0.2-0.3,0.2-0.4
	C18.1,28.1,18.1,28.1,17.9,28C18,28,18,28,17.9,28L17.9,28z M31.8,28C31.8,28,31.7,28,31.8,28c-0.1,0.1-0.2,0.1-0.2,0.1
	c-0.1,0.2,0,0.3,0.1,0.4c0.1,0.1,0.1,0.1,0.2,0c0.1,0,0.2-0.2,0.2-0.4c0-0.1,0-0.2-0.2-0.2C31.9,28,31.8,28,31.8,28L31.8,28z
	 M26.5,28.2c0.2,0,0.1,0.1-0.1,0.2c-0.5,0.4-0.7,0.5-0.9,0.6c-0.1,0-0.3,0.1-0.3,0.1c-0.2,0-0.5-0.1-0.6-0.2
	c-0.2-0.1-0.8-0.6-0.8-0.7c0-0.1,0.5,0,0.9,0c0.2,0,0.5,0,0.9,0C26.1,28.2,26.3,28.2,26.5,28.2L26.5,28.2z M32.5,28.2
	c-0.1,0-0.2,0-0.2,0.1c0,0-0.1,0.1-0.1,0.1c-0.1,0.2,0,0.3,0.2,0.4c0.1,0,0.1,0,0.2,0c0.1,0,0.2-0.3,0.2-0.4
	C32.8,28.3,32.7,28.3,32.5,28.2L32.5,28.2z M17.2,28.3c-0.2,0-0.3,0-0.3,0.2c0,0.1,0.1,0.4,0.1,0.4c0.1,0,0.1,0,0.2,0
	c0.2-0.1,0.3-0.2,0.2-0.4c0,0,0-0.1-0.1-0.1C17.3,28.3,17.3,28.3,17.2,28.3L17.2,28.3z M33.2,28.7C33.2,28.7,33.2,28.7,33.2,28.7
	c-0.1,0-0.1,0-0.1,0c-0.1,0-0.1,0.1-0.1,0.1c0,0.1,0,0.3,0.1,0.4c0.2,0.2,0.5,0,0.4-0.2c0,0,0-0.1-0.1-0.1
	C33.4,28.8,33.3,28.7,33.2,28.7L33.2,28.7z M16.4,28.7c-0.1,0-0.2,0.1-0.2,0.2c0,0,0,0.1-0.1,0.1c-0.1,0.3,0.2,0.5,0.4,0.3
	c0.1-0.1,0.2-0.3,0.1-0.4c0,0-0.1-0.1-0.1-0.1C16.5,28.7,16.5,28.7,16.4,28.7C16.5,28.7,16.5,28.7,16.4,28.7L16.4,28.7z M18.1,28.8
	C18.1,28.8,18.1,28.8,18.1,28.8c-0.2,0-0.2,0.1-0.3,0.3c0,0,0,0.1,0,0.1c0,0.3,0.4,0.4,0.5,0.1c0.1-0.1,0-0.4,0-0.4
	C18.3,28.9,18.2,28.8,18.1,28.8L18.1,28.8z M31.5,28.8c-0.1,0-0.1,0-0.2,0.1c-0.1,0.1-0.1,0.3-0.1,0.4c0.1,0.3,0.4,0.2,0.5-0.1
	c0,0,0-0.1,0-0.1C31.8,29,31.7,28.9,31.5,28.8C31.6,28.8,31.5,28.8,31.5,28.8L31.5,28.8z M32.3,29.1C32.3,29.1,32.3,29.1,32.3,29.1
	c-0.1,0-0.2,0-0.2,0.1c-0.1,0.1,0,0.3,0,0.4c0.2,0.3,0.5,0.1,0.5-0.2c0,0,0-0.1,0-0.1C32.5,29.2,32.5,29.1,32.3,29.1L32.3,29.1z
	 M17.3,29.2c-0.1,0-0.2,0.1-0.3,0.2c0,0,0,0.1,0,0.1c0,0.3,0.3,0.5,0.4,0.2c0.1-0.1,0.1-0.4,0.1-0.4C17.5,29.2,17.4,29.2,17.3,29.2
	C17.3,29.2,17.3,29.2,17.3,29.2L17.3,29.2z M16.1,29.6c-0.1,0-0.2,0-0.3,0.1c-0.1,0-0.1,0.1-0.1,0.1c0,0,0,0.1,0,0.2
	c0,0.2,0.1,0.3,0.3,0.2c0.2-0.1,0.3-0.3,0.3-0.4C16.3,29.7,16.3,29.6,16.1,29.6C16.2,29.6,16.1,29.6,16.1,29.6L16.1,29.6z
	 M33.5,29.6C33.5,29.6,33.4,29.6,33.5,29.6c-0.2,0-0.2,0.1-0.2,0.2c0,0.1,0.1,0.3,0.3,0.4c0.2,0.1,0.3,0.1,0.3-0.2
	c0-0.1,0-0.2,0-0.2c0,0-0.1-0.1-0.1-0.1C33.7,29.6,33.6,29.6,33.5,29.6L33.5,29.6z M18.2,29.8C18.2,29.8,18.1,29.8,18.2,29.8
	c-0.1,0-0.2,0.1-0.3,0.2c-0.1,0.1-0.1,0.1-0.1,0.2c0,0,0,0.1,0.1,0.2c0.1,0.2,0.2,0.2,0.3,0.1c0.1-0.2,0.2-0.4,0.1-0.5
	C18.3,29.8,18.3,29.8,18.2,29.8L18.2,29.8z M31.4,29.8c-0.1,0-0.1,0-0.1,0.1c-0.1,0.1,0,0.3,0.1,0.5c0.1,0.2,0.2,0.1,0.4,0
	c0.1-0.1,0.1-0.2,0.1-0.2c0,0,0-0.1-0.1-0.2C31.7,29.9,31.6,29.8,31.4,29.8C31.5,29.8,31.5,29.8,31.4,29.8L31.4,29.8z M32.4,30.1
	c-0.1,0-0.2,0-0.2,0.1c0,0.1,0,0.3,0.2,0.5c0.1,0.1,0.2,0.1,0.3-0.1c0.1-0.1,0.1-0.2,0.1-0.2c0,0,0-0.1-0.1-0.1
	C32.6,30.1,32.5,30.1,32.4,30.1L32.4,30.1z M17.2,30.1c-0.1,0-0.2,0-0.3,0.1c-0.1,0.1-0.1,0.1-0.1,0.1c0,0,0,0.1,0.1,0.2
	c0.1,0.2,0.2,0.3,0.3,0.1c0.2-0.1,0.3-0.3,0.2-0.5C17.3,30.2,17.2,30.1,17.2,30.1L17.2,30.1z M30.1,30.5c0,0,0,0.2,0,0.5
	c0,0.3,0,0.6,0,0.8c0,0.1,0.1,0.5,0.1,0.9c0,0.4,0,0.8,0.1,0.9c0.1,0.2,0.1,0.3,0.1,0.9c0,0.2,0.1,0.3,0.1,0.3c0,0,0,0.1,0,0.1
	c0,0.1,0,0.1,0,0.1c0.1,0,0.1,0.1,0.2,0.4c0,0.1,0.2,0.3,0.2,0.3c0,0,0.1,0.1,0.1,0.1c0,0.1,0.1,0.1,0.1,0.2c0.2,0.1,0.2,0.2,0,0.5
	c-0.1,0.2-0.3,0.4-0.4,0.6c-0.1,0.2-0.3,0.4-0.4,0.5c-0.1,0.1-0.2,0.3-0.4,0.4c-0.1,0.1-0.3,0.3-0.4,0.5c-0.2,0.2-0.7,0.7-1.2,1.3
	c-0.4,0.4-0.7,0.7-0.7,0.8c0,0,0,0.1-0.1,0.1c0,0-0.3,0.3-0.5,0.6c-0.3,0.3-0.6,0.7-0.7,0.8c-0.1,0.1-0.3,0.3-0.3,0.3
	c0,0.1-0.1,0.2-0.2,0.2l-0.1,0.1l-0.1-0.1c-0.1-0.1-0.1-0.1-0.2-0.1c0,0-0.2-0.1-0.4-0.3c-1.5-1.1-3-2.4-4.6-3.5
	c-0.2-0.1-0.5-0.3-0.5-0.4c-0.2-0.2-0.7-0.5-0.7-0.5c0,0-0.1,0-0.1-0.1c0,0,0-0.1-0.1-0.1c-0.1,0-0.2-0.1-0.3-0.2l-0.2-0.2l0.2-0.2
	c0.1-0.1,0.3-0.3,0.3-0.4c0.1-0.1,0.3-0.4,0.5-0.6c0.2-0.2,0.3-0.5,0.3-0.5c0,0,0-0.1,0-0.2c0-0.1,0.1-0.1,0.1-0.2
	c0,0,0-0.1,0.1-0.2c0-0.1,0.1-0.2,0-0.2c0,0,0-0.1,0-0.1c0,0,0.1,0,0,0c0,0,0-0.2,0.1-0.3c0.1-0.2,0.1-0.4,0.1-0.5
	c0-0.1,0-0.3,0.1-0.5c0-0.1,0.1-0.3,0.1-0.4c0-0.1,0-0.3,0-0.4c0-0.2,0-0.6,0-1c0-0.4,0-0.7,0-0.7c0.9,0.4,1.7,1.1,2.5,1.5
	c1.1,0.5,2.5,0.5,3.6,0c0.1-0.1,0.3-0.1,0.3-0.1c0.1,0,0.7-0.3,0.7-0.4c0,0,0,0,0.1,0c0,0,0.6-0.3,0.8-0.4c0.1-0.1,0.1-0.1,0.2-0.1
	c0,0,0.9-0.5,0.9-0.6C29.7,30.7,30,30.5,30.1,30.5L30.1,30.5z M31.6,36.4c0,0,0.2,0.1,0.3,0.1c0.1,0.1,0.2,0.1,0.2,0.1
	c0,0,0.1,0,0.2,0.1c0.1,0.1,0.2,0.1,0.2,0.1c0,0,0.1,0,0.1,0c0,0,0.1,0.1,0.1,0.2l0.1,0.1l-0.4,0.5c-0.6,0.8-1.4,1.9-1.9,2.4
	c-0.3,0.3-0.6,0.7-0.8,0.9c-0.2,0.2-0.6,0.7-0.9,1c-0.3,0.3-0.7,0.8-0.9,1c-0.4,0.5-0.8,0.9-1,1.1c0,0.1-0.3,0.3-0.5,0.5
	c-0.2,0.2-0.4,0.4-0.5,0.4c-0.1,0-0.8-0.6-0.9-0.8c0-0.1,0-0.2,0.1-0.3c0.1-0.1,0.2-0.3,0.3-0.4c0.1-0.1,0.3-0.3,0.4-0.5
	c0.2-0.2,0.4-0.5,0.6-0.7c0.3-0.4,0.8-0.8,1.4-1.6c0.3-0.3,0.7-0.8,1-1.1c0.8-0.8,1.9-2.1,1.9-2.3c0,0,0-0.1,0-0.1
	c0,0,0.2-0.2,0.4-0.5C31.4,36.6,31.5,36.4,31.6,36.4L31.6,36.4z M18.3,37.5C18.3,37.5,18.4,37.5,18.3,37.5c0.1,0.2,0.4,0.5,0.5,0.5
	c0,0,0.1,0,0.1,0.1c0,0.1,0.2,0.2,0.3,0.2c0.1,0.1,0.3,0.2,0.5,0.4c0.2,0.1,0.3,0.3,0.4,0.2c0,0,0,0,0,0c1.5,1.2,3.1,2.6,4.8,3.7
	c0,0,0.1,0.1,0.3,0.2c0.2,0.2,0.2,0.2,0.1,0.3c0,0.1-0.2,0.3-0.4,0.5c-0.2,0.2-0.4,0.4-0.4,0.4c0,0-0.2-0.1-0.3-0.2
	c-0.2-0.1-0.3-0.2-0.4-0.2c0,0-0.1,0-0.1-0.1c-1.9-1.3-3.8-3.3-5.3-4.1c0,0,0,0,0,0c0,0-0.1-0.1-0.2-0.1c-0.1,0-0.2-0.1-0.3-0.2
	c-0.1-0.1-0.2-0.2-0.3-0.3c-0.1-0.1-0.3-0.2-0.4-0.3l-0.2-0.2l0.3-0.2C18.1,37.6,18.3,37.5,18.3,37.5L18.3,37.5z M18.3,37.5"/>
</svg>
