<svg xmlns="http://www.w3.org/2000/svg" viewBox="0 0 97 97"><defs><style>.cls-1{fill:#c3c3c3;}.cls-2{fill:#edf1f1;}.cls-3{fill:#b69564;}</style></defs><g id="圖層_2" data-name="圖層 2"><g id="_0-ori" data-name="0-ori"><circle id="Ellipse_378" data-name="Ellipse 378" class="cls-1" cx="48.5" cy="48.5" r="48.5"/><g id="Subtraction_1" data-name="Subtraction 1"><path class="cls-2" d="M19,85.76A47.94,47.94,0,0,1,6.57,70.84,47.1,47.1,0,0,1,2.45,60.2,47.83,47.83,0,0,1,1,48.5a47.5,47.5,0,1,1,95,0,48.14,48.14,0,0,1-1.35,11.31,47.09,47.09,0,0,1-3.86,10.33,47.57,47.57,0,0,1-6,9,48.2,48.2,0,0,1-5.58,5.58,37.42,37.42,0,0,0-.79-18.57,35.4,35.4,0,0,0-4.46-9.39,33,33,0,0,0-6.8-7.38A30.24,30.24,0,0,0,60,45.2a17.39,17.39,0,0,0,3.32-4.89A18.55,18.55,0,0,0,65,32.5a18.25,18.25,0,0,0-4.65-12.34,15.06,15.06,0,0,0-22.7,0A18.25,18.25,0,0,0,33,32.5a18.55,18.55,0,0,0,1.68,7.81A17.39,17.39,0,0,0,38,45.2a30.24,30.24,0,0,0-7.14,4.22,33,33,0,0,0-6.8,7.38,35.4,35.4,0,0,0-4.46,9.39A37.36,37.36,0,0,0,19,85.76Z"/><path class="cls-3" d="M17.49,83.15A38.54,38.54,0,0,1,18.64,65.9a36,36,0,0,1,4.59-9.65,33.94,33.94,0,0,1,7-7.61,31.28,31.28,0,0,1,6.1-3.79,19.24,19.24,0,0,1-2.57-4.12A19.73,19.73,0,0,1,32,32.5a19.27,19.27,0,0,1,4.91-13,16.06,16.06,0,0,1,24.18,0A19.27,19.27,0,0,1,66,32.5a19.73,19.73,0,0,1-1.77,8.23,19.24,19.24,0,0,1-2.57,4.12,31.28,31.28,0,0,1,6.1,3.79,33.94,33.94,0,0,1,7,7.61,36,36,0,0,1,4.59,9.65A38,38,0,0,1,81,77a38.93,38.93,0,0,1-.33,5.08A47.06,47.06,0,0,0,89.9,69.69a45.77,45.77,0,0,0,3.77-10.11A46.79,46.79,0,0,0,95,48.5a46.5,46.5,0,1,0-93,0A46.9,46.9,0,0,0,3.42,60a46.38,46.38,0,0,0,4,10.41,47.17,47.17,0,0,0,10,12.78m3.32,5.18h0a48.83,48.83,0,0,1-15.12-17A48.11,48.11,0,0,1,1.48,60.45,48.83,48.83,0,0,1,0,48.5,48.47,48.47,0,0,1,82.79,14.21,48.28,48.28,0,0,1,97,48.5a49.12,49.12,0,0,1-1.38,11.55A48.58,48.58,0,0,1,91.68,70.6a48.67,48.67,0,0,1-14.2,16.79,36.26,36.26,0,0,0,0-20.91,33.69,33.69,0,0,0-4.33-9.12,31.67,31.67,0,0,0-6.59-7.15,28.8,28.8,0,0,0-8.36-4.64,16.32,16.32,0,0,0,4.25-5.67A17.61,17.61,0,0,0,64,32.5a17.28,17.28,0,0,0-4.39-11.67,14.07,14.07,0,0,0-21.22,0A17.28,17.28,0,0,0,34,32.5a17.61,17.61,0,0,0,1.59,7.4,16.32,16.32,0,0,0,4.25,5.67,28.8,28.8,0,0,0-8.36,4.64,31.67,31.67,0,0,0-6.59,7.15,33.69,33.69,0,0,0-4.33,9.12,36.28,36.28,0,0,0,.25,21.84Z"/></g></g></g></svg>