<svg xmlns="http://www.w3.org/2000/svg" viewBox="0 0 49.6 49.6"><defs><style>.cls-1{fill:#e3eaea;}.cls-2{fill:#edf1f1;}.cls-3{fill:#b69564;stroke:#b69564;}.cls-4{fill:#664c34;}.cls-5{fill:#f1e5d2;}.cls-6{fill:#fff;}.cls-7{fill:#c36;}.cls-8{fill:#f3d1a2;}.cls-9{fill:#322722;}</style></defs><g id="圖層_2" data-name="圖層 2"><g id="_0-ori" data-name="0-ori"><g id="圖層_2-2" data-name="圖層 2"><g id="圖層_1-2" data-name="圖層 1-2"><g id="Outline"><path id="Path_64394" data-name="Path 64394" class="cls-1" d="M48.9,24.8A24.1,24.1,0,1,1,24.8.7,24.1,24.1,0,0,1,48.9,24.8Z"/><path id="Path_64395" data-name="Path 64395" class="cls-2" d="M27.6,3.5A24.11,24.11,0,0,0,9.3,43.3,24.13,24.13,0,0,0,43.1,9.1,24.62,24.62,0,0,0,27.6,3.5Z"/><path id="Path_64396" data-name="Path 64396" class="cls-3" d="M24.8.5A24.3,24.3,0,1,0,49.1,24.8h0A24.34,24.34,0,0,0,24.8.5Zm0,.4A23.9,23.9,0,1,1,.9,24.8,23.9,23.9,0,0,1,24.8.9Z"/></g></g></g><g id="圖層_1-2-2" data-name="圖層 1"><path class="cls-4" d="M25.87,7a6.51,6.51,0,0,0-3.4.7c-.3.1-.4.6-.7.7a2.75,2.75,0,0,0-1.8.2,10.17,10.17,0,0,0-3.8,3.9c-1,1.8-1.2,3.8-1.8,5.7s-1.7,3.9-2.2,5.9a23.06,23.06,0,0,0-.8,7.4,20.18,20.18,0,0,0,.9,4.9c.1.1.2.6,0,.5a19,19,0,0,0,4.1,4.8c0-.1.2-.1.2,0a5.93,5.93,0,0,0,2.3.5,1.94,1.94,0,0,0,1.6-.8c.2-.1.3-.4.5-.3a8,8,0,0,1,.3,1.5c0,.2.2.4.1.6s.2-.1.2-.1a4.92,4.92,0,0,0,.2-2.7c0-.1-.1-.5.1-.4.4.7.8,1.5,1.2,2.3a1,1,0,0,0,.4.5,3.22,3.22,0,0,0,.1-1.7,10.07,10.07,0,0,1-.3-2.5c-.1-.3,0-.5.3-.4a6.59,6.59,0,0,0,3.9-1.1h0c.2.3.3.6.5.9a13,13,0,0,0,1,1.5,12,12,0,0,0,1.1,1.2A9,9,0,0,0,34,42c.4-.1.6.3.8.6s.3.3.3.5a19.26,19.26,0,0,0,3.5-3,.1.1,0,0,1-.1-.1,18.81,18.81,0,0,0,.5-3.3c.1-2.2-.6-4.2-.7-6.4a53.34,53.34,0,0,0,.2-5.6,16,16,0,0,0-.9-5.3,30.74,30.74,0,0,0-1.7-4.2,27.11,27.11,0,0,0-3-4.5,9.64,9.64,0,0,0-5.6-3.6c-.6,0-1-.1-1.4-.1Z"/><path class="cls-5" d="M23.47,11.65a5.64,5.64,0,0,0-1.2.4,4.18,4.18,0,0,0-2.1,1.3,8.24,8.24,0,0,0-2.4,4.6,5.85,5.85,0,0,1-.2,1.3c-.2.2-.4,0-.5-.2s-.6-.7-.8-.3a5.85,5.85,0,0,0-.3,3.7,2,2,0,0,0,1.1,1.3c.3.1.6-.4.8-.4a2.75,2.75,0,0,0,0,2.5,10.8,10.8,0,0,0,2.5,4.1,8.31,8.31,0,0,0,3.8,2.3c1.1.4,2.2-.4,2.9-1.1a15.79,15.79,0,0,0,4-6.2c.4-.9.7-1.8,1.2-2.7a8.45,8.45,0,0,0-.5-1.7,17,17,0,0,0-2.5-5.5,7.19,7.19,0,0,0-2.7-2.5,7.65,7.65,0,0,0-3-.6c0-.3,0-.3-.1-.3Zm-.9,6.3a2.1,2.1,0,0,1,1.5.5c0,.2-.3-.1-.4-.1a3.59,3.59,0,0,0-2.5.1c-.2.1-.5.4-.7.3.3-.6,1.2-.6,1.8-.7a.37.37,0,0,1,.3-.1Zm6.7,1.1a2.17,2.17,0,0,1,1.9.7c.1.2-.2.4-.3.2a2.11,2.11,0,0,0-1.8-.6c-.3,0-.5.4-.7.3s.3-.3.4-.5a.75.75,0,0,1,.5-.1Zm-6.9.1c.6,0,1.4.4,1.4,1.1.1.2.1.4-.2.4a5.31,5.31,0,0,1-2.7-.6,3.33,3.33,0,0,1-.6-.3c.5-.2,1.1-.3,1.6-.5a1.09,1.09,0,0,1,.5-.1Zm-5.3,1.5c.4.1,0,.3-.1.5a.69.69,0,0,0,.3.9c-.4.1-.6-.3-.5-.7,0-.2,0-.7.3-.7Zm12.6.2a1.15,1.15,0,0,1,1.2,1.2c-.1.3-.5.2-.7.2a6.15,6.15,0,0,1-2.3-.7c-.2-.3.3-.4.5-.5a5,5,0,0,1,1.2-.2ZM27,21c0,.6-.4,1.2-.3,1.9a13.4,13.4,0,0,1,.1,2c0,.3,0,.7-.4.7s-.8-.4-1.2-.3-1,0-1.1-.4c-.1-.1-.1-.4.1-.2a1.09,1.09,0,0,0,.9.4,6.75,6.75,0,0,1,1.4.2c.3-.2.1-.6.1-.9-.2-1.1-.4-2.3.3-3.2A.35.35,0,0,1,27,21Zm-5.1,5.4a4.28,4.28,0,0,0,1.6.5,15.17,15.17,0,0,0,2.1.3c.4,0,.8.4,1.3.1.3-.1.7-.3,1-.2-.3.4-.8.5-1.2.8-.8.4-1.9.8-2.7.2a14,14,0,0,1-2-1.6c-.1.1-.2-.1-.1-.1Zm-1.4,4.4h0c-.2.2.2.5.2.8a23.89,23.89,0,0,1,2.2,5.2c.3.2.8,0,1.1.1a5.23,5.23,0,0,0,3-1.1,27.73,27.73,0,0,1,.1-4.1c-.1-.3-.4.1-.5.2a2.85,2.85,0,0,1-2.5.8,16.15,16.15,0,0,1-3.5-1.7c.1-.1,0-.2-.1-.2Z"/><path class="cls-6" d="M21.87,19.45c-.2.1-.5.1-.6.3s.1.3.2.3.3.1.4.1,0-.3.1-.4c-.1-.1.1-.3-.1-.3Zm1.4.2c-.2.1-.1.3-.2.4s-.2.2-.2.4c.2.1.4,0,.5,0s.4-.2.2-.4c.1-.1,0-.3-.3-.4Zm5.7,1.4c-.2.1-.5.1-.6.3s.1.3.2.3.3.1.4.1,0-.3.1-.4.1-.3-.1-.3Zm1.5.3c-.2.1-.1.3-.2.4s-.2.2-.2.4c.2.1.4,0,.5,0s.4-.2.2-.4c0-.2-.1-.4-.3-.4Z"/><path class="cls-7" d="M22.57,26.75c-.1.1.1.2.1.3a3.48,3.48,0,0,0,2,1,1.7,1.7,0,0,0,1.4-.2,2.19,2.19,0,0,0,.5-.3c.1-.1-.1-.2-.2-.1-.4.1-.9-.1-1.3,0a1,1,0,0,1-.7-.2c-.3-.1-.6,0-.9-.2a9.2,9.2,0,0,1-.9-.3Z"/><path class="cls-8" d="M15.37,18h0a12.66,12.66,0,0,0-.6,1.8c-.7,2.7-1.9,5.3-1.9,8.1a16.65,16.65,0,0,0,.3,5,24.45,24.45,0,0,0,1.5,4.3,7.07,7.07,0,0,0,2.7,3.2,4.11,4.11,0,0,0,2.6.9c.1-.3-.2-.5-.3-.7-1.5-1.9-3.4-3.6-4.4-5.8a21.49,21.49,0,0,1-1.3-3.2,31.08,31.08,0,0,1-.1-5.3,50.5,50.5,0,0,1,1.2-5.3,7,7,0,0,1,.8-2c-.1-.5-.2-.8-.5-1Zm17,4.8a4.49,4.49,0,0,0-.6,1.2,9.06,9.06,0,0,0-.2,3.3,24.42,24.42,0,0,0,1.9,8.3c.4,1.2.9,2.3,1.3,3.4a19.8,19.8,0,0,1,.6,2.6c.2,0,.2-.4.2-.5-.2-3.2-1.4-6.2-2.3-9.2-.6-2.4-.4-4.8-.5-7.2a11,11,0,0,0-.2-1.8c-.1-.1-.1-.2-.2-.1Zm-15.8,1h0c-.3.2-.2.6-.2.9a14.24,14.24,0,0,0,.2,4.6,28.1,28.1,0,0,0,1.9,3.9c1,1.8,1.8,3.8,2.9,5.5.7,1,1.1,2.1,1.7,3.1.1.2.4,0,.3-.2-.4-2.3-1.7-4.3-2.8-6.3a50.43,50.43,0,0,1-2.6-5.2,28,28,0,0,1-1.3-4.1,17,17,0,0,0-.1-2.2ZM36.27,29c-.3.2-.1.6-.1.8a31.13,31.13,0,0,0,1.1,4.1,15.25,15.25,0,0,1,.4,6c0,.3-.2.6-.1.9.3.1.3-.4.4-.5a8,8,0,0,0,.6-3,18.3,18.3,0,0,0-.4-4.7c-.2-.9-.3-1.8-.4-2.6-.5-.3-1-.7-1.5-1Zm-7.2.6h0a1.7,1.7,0,0,0-.6,1,13.72,13.72,0,0,0,.9,7.2,7.89,7.89,0,0,0,1.4,2.3,4.36,4.36,0,0,0,1.4,1.3c.3-.1-.1-.4-.2-.6a13.92,13.92,0,0,1-2.7-8.8,17.91,17.91,0,0,0-.2-2.4Z"/><path class="cls-8" d="M24.77,8.35a5.09,5.09,0,0,0-2.2.4c-.3.2.1.7.4.5a5.24,5.24,0,0,1,3.7.3,10.79,10.79,0,0,1,3.7,2.6,9.66,9.66,0,0,1,2.6,3.4,68.05,68.05,0,0,1,3.5,10.8,10.89,10.89,0,0,0,1,2.5c.3.1.2-.3.2-.4a38.26,38.26,0,0,0-1-5.9,23.32,23.32,0,0,0-3-7.7,24.93,24.93,0,0,0-4-4.6,7,7,0,0,0-4.9-1.9Z"/><path class="cls-8" d="M22.27,9.35a6.57,6.57,0,0,0-4.2,3.1,7.67,7.67,0,0,0-1.5,4.6c0,.4-.1.8.1,1.1.3,0,.2-.5.3-.7a12.32,12.32,0,0,1,1.7-4.5,13.36,13.36,0,0,1,2.1-2,6.69,6.69,0,0,1,1.9-.5c.3-.1.3-.6.1-.8s-.3-.3-.5-.3Z"/><path class="cls-8" d="M23.57,10.55c-.5,0-1.1.1-1.2.6.2.3.5.7.9.5a6.67,6.67,0,0,1,3.4.4,8.58,8.58,0,0,1,3.6,3.7,17.7,17.7,0,0,1,2.1,4.9,22,22,0,0,0,3,6.6,10,10,0,0,0,2,2.1c.3,0,0-.4-.1-.5a15.81,15.81,0,0,1-2.4-4.2c-.8-2.1-1.5-4.3-2.2-6.5a9.88,9.88,0,0,0-2.1-3.9,11.21,11.21,0,0,0-4.5-3.3,5.69,5.69,0,0,0-2.5-.4Z"/><path class="cls-9" d="M25.87,6.85a8.63,8.63,0,0,0-2.8.4c-.5.2-1.2.5-1.3,1.1h-.1a2.2,2.2,0,0,0-1.6,0,9.44,9.44,0,0,0-3.1,2.5c-.1.1-.2.3-.3.4a1.44,1.44,0,0,0-.2.3,3.05,3.05,0,0,0-.5.9,2.19,2.19,0,0,1-.3.5,3.36,3.36,0,0,0-.4,1,11.08,11.08,0,0,0-.8,2.9,16.14,16.14,0,0,1-1.3,3.6,10.83,10.83,0,0,0-.7,1.8,9.44,9.44,0,0,0-.3.9l-.5,1.5c-.1.3-.1.6-.2.8a10.61,10.61,0,0,0-.3,1.8,30.22,30.22,0,0,0-.1,3.3v1.5l.1.4c0,.2.1.6.1.8a9,9,0,0,0,.4,1.9,1.07,1.07,0,0,0,.2.6,4.33,4.33,0,0,0,.1.5,20.92,20.92,0,0,0,1,2.1c0,.1.2.2.2.4a6.45,6.45,0,0,0,5.8,3.4,1.14,1.14,0,0,0,.6-.3,1.24,1.24,0,0,0,.3-.2l.1-.1c.1,0,.5-.4.7-.6,0,.1.1.2.1.3a4.5,4.5,0,0,0,.2.8c.1.8.2.9.2.9h.1a.76.76,0,0,0-.1.4h.1c.1,0,.2-.2.3-.4a5.31,5.31,0,0,0,0-3.3h0a11.73,11.73,0,0,1,.5,1.1c.7,1.2,1.4,3.7,1.5.8a1.08,1.08,0,0,0-.1-.6,11.53,11.53,0,0,1-.3-2.6,10.28,10.28,0,0,0,1.7-.1,6.4,6.4,0,0,0,2.6-1c0,.1.2.4.2.5l.1.1a.49.49,0,0,0,.1.3.37.37,0,0,1,.1.3.35.35,0,0,1,.1.2c.1.1.1.1.1.2a.1.1,0,0,0,.1.1,1.44,1.44,0,0,0,.2.3,5.2,5.2,0,0,1,.3.5.35.35,0,0,1,.1.2,2.74,2.74,0,0,1,.4.5,3.78,3.78,0,0,0,.8.7,1.44,1.44,0,0,1,.3.2,2.19,2.19,0,0,1,.5.3,8.18,8.18,0,0,0,1.4.5.49.49,0,0,1,.3.1,2.79,2.79,0,0,0,1,.1c.3,0,.4,0,.4.1s.6.7.7.8a2,2,0,0,1,.1.8c0,.6,0,.7.1.8s0,.1.1,0a.75.75,0,0,0,.1-.5v-.2a1,1,0,0,0,.1-.3c.1-.5.2-.7.2-.8V43l.1.1c.1.1.2.2.3.1a.1.1,0,0,0,.1-.1h0a1.72,1.72,0,0,0-.2.8c0,.2.2,0,.4-.3a.76.76,0,0,0,.2-.4,3.17,3.17,0,0,0,.5-.6,2.18,2.18,0,0,1,.4-.5.31.31,0,0,0,.1-.2.31.31,0,0,1,.1-.2c.1-.1.1-.2.2-.2a.1.1,0,0,1,.1-.1c.1,0,.1-.1.1-.2v-.1a1.09,1.09,0,0,0,.2-.4c.1-.2.1-.4.2-.4a4.2,4.2,0,0,0,.3-1.4c0-.2.1-.4.1-.6v-.6a9.25,9.25,0,0,0-.1-2.4c0-.1-.1-.4-.1-.6,0-.4-.2-1.1-.2-1.4s-.1-.7-.2-1.2c0-.2-.1-.5-.1-.7a16.79,16.79,0,0,1,.2-2.9,21.55,21.55,0,0,0,0-3.6c0-.6-.1-1.2-.1-1.3-.1-.4-.2-1.2-.4-1.8-.1-.2-.1-.5-.2-.7a.76.76,0,0,0-.2-.5c0-.1-.1-.3-.1-.4s0-.2-.1-.2-.1-.3-.1-.4-.1-.3-.1-.4a.35.35,0,0,1-.1-.2c-.1-.2-.3-.8-.4-1.1l-.2-.4a.35.35,0,0,0-.1-.2.35.35,0,0,1-.1-.2.35.35,0,0,0-.1-.2l-.1-.1a.31.31,0,0,0-.1-.2c0-.1-.1-.2-.1-.3a7.81,7.81,0,0,0-.5-1.2c-.3-.6-.4-.8-.6-.9a.31.31,0,0,1-.1-.2c-.1-.1-.3-.5-.5-.7a.52.52,0,0,1-.2-.4c-.1-.1-.2-.3-.4-.5a1.24,1.24,0,0,0-.2-.3.1.1,0,0,0-.1-.1.35.35,0,0,1-.1-.2,11.3,11.3,0,0,0-5-4,2,2,0,0,0-1.9-.9Zm-.2.4a9.64,9.64,0,0,1,7.1,4c.1.2.5.6.7,1a9.82,9.82,0,0,1,.7,1,15.35,15.35,0,0,1,1,1.7,5.44,5.44,0,0,1,.4.8c.1.1.1.2.1.4a9.44,9.44,0,0,1,.3.9c.3.8.8,2,.9,2.3a4.33,4.33,0,0,1,.1.5,12.47,12.47,0,0,1,.7,3.1,35.75,35.75,0,0,1,.2,3.7v1.1a11.31,11.31,0,0,1-.2-1.2,31,31,0,0,0-.9-4.4,14,14,0,0,0-1.1-3.6,1.69,1.69,0,0,1-.2-.5c-.1-.3-.5-1.4-.7-1.8a2.74,2.74,0,0,0-.4-.7,3.32,3.32,0,0,0-.9-1.3,13.5,13.5,0,0,1-.9-1.1,15.79,15.79,0,0,0-1.4-1.6l-.7-.7a4.51,4.51,0,0,0-.7-.7,7.39,7.39,0,0,0-6.1-1.9,2.51,2.51,0,0,0-1,.2,1.38,1.38,0,0,0-.4.3v.1h.3c.1,0,.3-.1.4-.1a7.12,7.12,0,0,1,6.6,1.7c.3.3,1.6,1.7,2.4,2.5.5.6,1.4,1.7,1.8,2.3a7.52,7.52,0,0,1,.8,1.4,12.2,12.2,0,0,1,.7,1.7c.1.3.3.7.3.8a20.29,20.29,0,0,1,.8,2.8c.2,1,.4,1.6.4,1.8a25.07,25.07,0,0,1,.5,3c.1.8.2,1.7.2,1.8V29a4.9,4.9,0,0,1-.8-1.6l-.2-.6-.1-.2a4.08,4.08,0,0,0-.2-.7c-.1-.3-.2-1-.4-1.5-.3-1.1-.9-3.4-1.1-4-.3-.8-.7-2.1-1.1-3a7.51,7.51,0,0,0-1-2.8,12.56,12.56,0,0,0-2.2-2.5,7.36,7.36,0,0,0-1.1-1c-1.5-1.1-3.7-2.4-5.7-2-.1,0-.2.1-.3.1a.35.35,0,0,0-.2.1l-.1.1c-.2.1-.2.1-.1.2s.2,0,.5-.1.4-.1.7-.1a8.56,8.56,0,0,1,4.2,1.3,15.91,15.91,0,0,1,2.4,2,11.6,11.6,0,0,1,1.9,2.2c0,.1.1.2.2.3a5.35,5.35,0,0,1,.6,1.3,4.12,4.12,0,0,1,.3.8c.3.8.4,1,.8,2.2.7,2.1.9,2.8,1.5,5.1a12.75,12.75,0,0,0,.4,1.4,5.06,5.06,0,0,1,.3,1.1v.1a9.37,9.37,0,0,1-.6-1.2,16.94,16.94,0,0,1-1.4-3.5c-.3-.9-.6-1.8-.7-2a.6.6,0,0,1-.1-.4c0-.1,0-.2-.1-.2a1.69,1.69,0,0,0-.2-.5c-.2-.5-.2-.7-.5-1.5a8.35,8.35,0,0,0-.8-1.9c-.7-.8-1-1.4-1.4-1.8a5.07,5.07,0,0,1-.6-.7,4.64,4.64,0,0,0-1-1,12.63,12.63,0,0,0-5.3-2.3,2.15,2.15,0,0,0-1,.2c-.1.1,0,.3.2.2,2.2-.5,4.9,1.3,6.4,2.6.6.7,1.3,1.5,1.4,1.7s.1.2.2.3a13.9,13.9,0,0,1,1,2.1c0,.1.2.5.3.8a18.94,18.94,0,0,1,.6,1.8c.2.8.6,1.8.9,2.7.2.5.3.9.6,1.8a4.79,4.79,0,0,0,.5,1.1,14.44,14.44,0,0,0,1.1,2,12,12,0,0,0,.9,1.2c.5.6.5.6.8.7.1,0,.2.1.1.2s-.1,0-.3,0a3,3,0,0,1-.7-.5l-.5-.5c-.2-.1-.3-.3-.5-.5a3.74,3.74,0,0,0-.6-.7,3,3,0,0,1-.5-.7,20.2,20.2,0,0,1-1.7-3.6,1.69,1.69,0,0,1-.2-.5c0-.1-.1-.2-.1-.4a2.07,2.07,0,0,0-.2-.6c-.2-.5-.3-1-.6-1.8a11,11,0,0,0-.3-1.1.76.76,0,0,0-.2-.4,9.34,9.34,0,0,0-1-2,1.24,1.24,0,0,0-.2-.3.1.1,0,0,0-.1-.1,1.44,1.44,0,0,0-.2-.3,4.62,4.62,0,0,0-.7-1c-.1-.2-.3-.4-.4-.6a6.61,6.61,0,0,0-3-2.1,5.55,5.55,0,0,0-2.8-.2c-.2,0-.3.1-.3.2a8.82,8.82,0,0,1,3.9.7,11.22,11.22,0,0,1,1.9,1.5,14.43,14.43,0,0,0,1.2,1.7,25.32,25.32,0,0,1,1.2,2.3c.2.6.5,1.5.8,2.5a5.64,5.64,0,0,0,.4,1.2c.1.3.1.3,0,.4a5.78,5.78,0,0,0-.7,1.4c-.1.2-.2.5-.3.7s-.2.5-.3.7a7.13,7.13,0,0,1-.8,1.9,10.06,10.06,0,0,1-1.1,1.7c-.1.1-.2.3-.4.5-.3.4-.5.6-.8,1s-1.3,1.2-1.5,1.4a2.41,2.41,0,0,1-1.9.6,5.4,5.4,0,0,1-1.2-.4,2.93,2.93,0,0,1-.8-.4,6.55,6.55,0,0,1-2.6-2.1q-.15-.3-.3-.3l-.1-.1c-.3-.5-.5-.7-.8-1.2l-.1-.1c0-.1-.1-.2-.2-.3a2.47,2.47,0,0,1-.4-.9,3.36,3.36,0,0,0-.4-1,2.18,2.18,0,0,1-.1-.6,1.82,1.82,0,0,1,.2-1.1.77.77,0,0,0,.1-.3h-.2v.1s-.2.3-.3.3h-.5c-.1,0-.1-.1-.2-.1l-.4-.4-.4-.8a9.46,9.46,0,0,1-.1-2.4,1.92,1.92,0,0,1,.5-1.2c.1-.1.3,0,.5.2s.1.2.2.3.1.3.2.3h.1a.1.1,0,0,0,.1-.1c.2,0,.2-.1.2-.8.1-.9.1-1.1.3-1.4a4.88,4.88,0,0,0,.3-.7,2.93,2.93,0,0,1,.4-.8,7.76,7.76,0,0,0,.4-.7A.1.1,0,0,1,19,15a1.44,1.44,0,0,1,.2-.3,10,10,0,0,1,1.7-1.8.1.1,0,0,0,.1-.1s.3-.1.8-.3c.8-.3.9-.3.8-.5s-.2-.1-.4,0a2.39,2.39,0,0,0-.7.3c-.1,0-.2.1-.4.2a2.84,2.84,0,0,0-.9.6,15.41,15.41,0,0,0-1.3,1.4,8.26,8.26,0,0,0-.7,1.3l-.2.4a5.21,5.21,0,0,0-.6,1.5c0,.1-.1.3-.1.4s0,.3-.1.3h-.1c-.1-.1-.1-.2-.1-.5a8.58,8.58,0,0,1,.3-1.7.76.76,0,0,1,.2-.5,1.06,1.06,0,0,1,.2-.5,4.88,4.88,0,0,0,.3-.7l.5-1c.1-.2.2-.3.2-.4l.1-.1.2-.2.2-.2a3.91,3.91,0,0,0,.5-.4,3.19,3.19,0,0,1,.7-.6,4.61,4.61,0,0,1,1-.5.76.76,0,0,0,.4-.2.6.6,0,0,1,.4-.1c.3-.1.3-.1.3-.2s-.6-.1-1.5.2c-.6.2-.7.3-1.8,1.2a4.65,4.65,0,0,0-1.4,1.8,16,16,0,0,0-.8,2,.37.37,0,0,1-.1.3,3.87,3.87,0,0,0-.3,1.2,3.2,3.2,0,0,0-.1.7c0,.1-.1.1-.1,0a1.34,1.34,0,0,0-.1-.5,12.48,12.48,0,0,1,.2-2.1,13,13,0,0,1,1-2.5,4.35,4.35,0,0,1,.9-1.3l.9-.9c.1-.1.3-.2.3-.3s.2-.1.3-.2.2-.1.3-.2a2.19,2.19,0,0,1,.5-.3,6.47,6.47,0,0,1,1.3-.4c.2,0,.3-.1.3-.2.3.1.3.1-.4.2a2.14,2.14,0,0,1-.6.1h-.1c-.2,0-.3.1-.6.3a3.33,3.33,0,0,1-.6.3,2.19,2.19,0,0,0-.5.3c-.1.1-.3.2-.4.3s-.3.2-.3.3a13.5,13.5,0,0,1-.9,1.1c0,.1-.2.3-.3.6a9,9,0,0,0-1.2,2.7,8.38,8.38,0,0,1-.2,1,6.61,6.61,0,0,0-.1,1.1v.8a.1.1,0,0,1-.1.1,1.09,1.09,0,0,1-.2-.4,5.62,5.62,0,0,1-.3-2,8.08,8.08,0,0,1,.1-1.6,2.35,2.35,0,0,1,.5-1.3,5.25,5.25,0,0,1,.7-1.1.76.76,0,0,0,.2-.4,4.05,4.05,0,0,1,.8-1c.6-.4,1.4-1.1,1.8-1.3a2,2,0,0,1,.8-.4,4.33,4.33,0,0,1,.5-.1,1,1,0,0,0,.4-.1h.6a.1.1,0,0,0,.1-.1l.1-.1a2.17,2.17,0,0,1,.7-.6,7.71,7.71,0,0,1,2.9-.5Zm-10.5,8.3v1a3.81,3.81,0,0,1-.3,1.8,2.07,2.07,0,0,0-.2.6c-.2.8-.4,1.4-.7,2.4-.4,1.3-.8,2.6-1,3.3-.1.4-.2,1-.3,1.5,0,.2-.1.5-.1.7a1.27,1.27,0,0,1-.1.6V31a15.52,15.52,0,0,0,.4,2.1,16.19,16.19,0,0,0,.6,1.7,4.08,4.08,0,0,0,.2.7,15.57,15.57,0,0,0,.6,1.5c1.1,2.1,2.1,3.6,4.7,4.3h.3c.2,0,.3.1.2.1a2.19,2.19,0,0,1-.5.3c-.1.1-.2.1-.4.1a5.8,5.8,0,0,1-5.1-3.2,2.15,2.15,0,0,0-.4-.7.76.76,0,0,1-.2-.4c0-.1-.1-.2-.2-.3a.76.76,0,0,0-.2-.4c-.1-.2-.1-.3-.2-.4a.31.31,0,0,1-.1-.2c0-.1,0-.1-.1-.2a1,1,0,0,1-.1-.3c0-.1-.1-.3-.1-.4a13.7,13.7,0,0,1-.4-2c0-.3-.1-.7-.1-.8a15.06,15.06,0,0,1-.1-2.8v-1.8l.1-.5c.1-.6.2-1.3.4-2.2a13,13,0,0,1,.8-2.9,7.36,7.36,0,0,1,.8-2,7.93,7.93,0,0,1,.4-.9,4.12,4.12,0,0,0,.3-.8,1.69,1.69,0,0,0,.2-.5.35.35,0,0,1,.1-.2,3.47,3.47,0,0,0,.2-1.3v-.4c.5-.1.5-.3.6-.6Zm7.4,2.3h-.4a2.37,2.37,0,0,0-1.5.5c-.2.2-.3.3-.2.4s.3,0,.5-.2.4-.2.7-.3a4.48,4.48,0,0,1,1.2-.1.6.6,0,0,1,.4.1c.2,0,.3.1.5.1a4.2,4.2,0,0,1,.5.2v-.1c-.1-.3-.6-.5-1.3-.6Zm-7.2.1a6.66,6.66,0,0,1,.3.7c.1.2,0,.4-.2.4a30.93,30.93,0,0,0-.8,3,11,11,0,0,0-.3,1.1c-.1.4-.2.8-.3,1.1a11.21,11.21,0,0,0-.4,2.1,21.63,21.63,0,0,0,0,3.6,9.34,9.34,0,0,0,.3,2.1,10.37,10.37,0,0,1,.4,1c.2.5.9,1.9,1.4,2.8s.9,1.3,1.5,2.1c.2.2.5.6.6.7l1.8,2.1a1.38,1.38,0,0,0,.3.4h-1.1a9.42,9.42,0,0,1-2.9-2c-.1-.1-.5-.7-.8-1.1-.1-.2-.9-1.7-1-2a8.4,8.4,0,0,1-.4-1.4c-.1-.3-.2-.7-.2-.7v-.1a.31.31,0,0,0-.1-.2c0-.1-.1-.2-.1-.4s-.3-1.4-.4-1.7a13.58,13.58,0,0,1-.1-2.4v-1.5c0-.1.1-.5.1-.7a18.46,18.46,0,0,1,.4-2.3c.2-.8.4-1.3.8-2.7a21.39,21.39,0,0,0,.7-2.5c.3-1.1.4-1.5.5-1.5ZM29,19h-.2a1.33,1.33,0,0,0-.5.3l-.1.1v.1c.1.2.1.2.4.1a.73.73,0,0,1,.6-.2,1.76,1.76,0,0,1,.6.1,1,1,0,0,0,.4.1c.1,0,.3.1.5.4.1.1.2.2.3.2s.1.1.2,0,0-.5-.4-.7a2.65,2.65,0,0,0-1.4-.3c-.2-.2-.3-.2-.4-.2Zm-6.6.1a1.64,1.64,0,0,0-.9.2c-.2.1-.4.1-.6.2-.5.1-.7.2-.7.3s.2.2.3.3,2,.7,2.1.7h.9c.4,0,.4-.1.5-.2s-.1-.5-.1-.7-.3-.5-.5-.5a1.93,1.93,0,0,0-1-.3Zm-.5.5v.6c-.1,0-.2-.1-.3-.1a1,1,0,0,1-.3-.1v-.1c0-.1.4-.3.6-.3Zm1.4.2s.3.3.3.4,0,.2-.1.2-.1.1-.3.1h-.3l.1-.1a.76.76,0,0,0,.2-.5l.1-.1Zm-6.2.8h0a1.78,1.78,0,0,0-.4,1,.6.6,0,0,0,.3.6c.1.1.3.1.3,0s.1,0-.1-.2a.85.85,0,0,1-.3-.5.76.76,0,0,1,.2-.4c.1-.1.1-.2.2-.2v-.1a.22.22,0,0,0-.2-.2Zm12.4.2a4.51,4.51,0,0,0-1.1.3c-1,.3-.4.6.1.8a12.09,12.09,0,0,0,1.8.5,2,2,0,0,0,.8-.1.6.6,0,0,0,.1-.4,1.19,1.19,0,0,0-.5-.9,2.54,2.54,0,0,0-1.2-.2Zm-14,0a2.81,2.81,0,0,0,.1.5,2.2,2.2,0,0,0,.1.8c0,.2.1.5.1.7a1.27,1.27,0,0,1-.1.6,24.39,24.39,0,0,0-.6,3.1,18.55,18.55,0,0,0,.1,2.2,7.75,7.75,0,0,0,.1.9,16.19,16.19,0,0,0,.8,2.7,1.06,1.06,0,0,1,.2.5,17.38,17.38,0,0,0,1,1.9c.2.3.5.8.7,1.1a15,15,0,0,1,1.5,2.5,13.44,13.44,0,0,1,1.2,2.4.1.1,0,0,0-.1.1l-.3.3a.1.1,0,0,0-.1-.1v-.2a.35.35,0,0,1-.1-.2,7.49,7.49,0,0,0-1.3-1.8,8,8,0,0,0-.6-.8,1.73,1.73,0,0,1-.3-.4c0-.1-.4-.5-.4-.5l-.3-.3c-.1-.1-.2-.2-.2-.3s-.2-.2-.2-.3a.31.31,0,0,1-.1-.2.1.1,0,0,1-.1-.1,3.74,3.74,0,0,0-.6-1,.76.76,0,0,1-.2-.4c0-.1-.1-.2-.1-.3s-.1-.2-.2-.4-.1-.3-.2-.3l-.3-.6c-.1-.2-.2-.5-.3-.7a7.79,7.79,0,0,1-.5-4,16,16,0,0,1,.2-2.8c0-.1.1-.3.1-.4a17.55,17.55,0,0,1,.6-2.5,4.33,4.33,0,0,0,.1-.5c0-.1.1-.3.1-.4s.1-.4.2-.5v-.3Zm11.5.1q-.15,0-.3.3a2.49,2.49,0,0,0-.3,2.4c0,.2.1.4.1.6s.1.8,0,.8-.1,0-.4-.1a.6.6,0,0,0-.4-.1H25c-.5,0-.5,0-.7-.1s-.1-.1-.2-.1-.2-.3-.3-.3-.1.1-.1.2a1.33,1.33,0,0,0,.3.5c.2.1.3.1.8.1h.6c.2.1.3.1.4.2s.1.1.2.1.5-.1.6-.3a2.51,2.51,0,0,0,.1-1,2.79,2.79,0,0,0-.1-1,3.21,3.21,0,0,1,.2-1.7c.3,0,.4-.4.2-.5Zm2.1.3h0c-.1.2,0,.4-.1.6-.2-.1-.4-.1-.6-.2s.1-.2.2-.2a.76.76,0,0,1,.5-.2Zm1.2.2a1,1,0,0,1,.4.5c0,.2-.2.2-.3.2h-.3a.86.86,0,0,0,.3-.6c.1,0-.1-.1-.1-.1Zm2.2,1.3a3.27,3.27,0,0,1,.2.8,24.81,24.81,0,0,1,.1,3.5v2.7a5.64,5.64,0,0,1,.1.7,11.66,11.66,0,0,0,.8,3.3,27.63,27.63,0,0,1,.9,3c.1.2.1.5.2.7a4.33,4.33,0,0,0,.1.5c0,.1.1.4.1.6a13.57,13.57,0,0,1,.4,2.7v.7c0,.3,0,.2-.1-.3a6.86,6.86,0,0,0-.4-1.9c0-.1-.1-.2-.1-.3a3,3,0,0,0-.3-.9.35.35,0,0,1-.1-.2,1.69,1.69,0,0,0-.2-.5,9.44,9.44,0,0,1-.3-.9c-.1-.3-.3-.8-.4-1.1a10.37,10.37,0,0,0-.4-1c-.1-.3-.3-.8-.4-1.1a16.56,16.56,0,0,0-.5-1.6.37.37,0,0,0-.1-.3,15.67,15.67,0,0,1-.5-3,2.81,2.81,0,0,0-.1-.8c.1-1.2.1-1.8.1-2.5s0-.7.1-.9a7.44,7.44,0,0,1,.8-1.9Zm-16.5.6h0c.1.1.1.4.1.7a15.48,15.48,0,0,0-.1,3.8,8.59,8.59,0,0,0,1.3,3.9,12.75,12.75,0,0,1,.7,1.2c.5,1,.8,1.5,1,1.9s.5.9.8,1.6a13.92,13.92,0,0,0,.6,1.3c.9,1.9,1.4,3.9,1.2,4.7,0,.1,0,.1-.1.2,0-.1-.1-.2-.1-.3s-.1-.1,0-.2v-.5a3.77,3.77,0,0,0-.5-1.6,1.69,1.69,0,0,1-.2-.5,4.7,4.7,0,0,0-.6-.9c-.1-.1-.1-.2-.2-.4a1.69,1.69,0,0,1-.2-.5.37.37,0,0,1-.1-.3,1.46,1.46,0,0,0-.3-.5,2.23,2.23,0,0,0-.3-.5l-.1-.1a.35.35,0,0,0-.1-.2c-.1-.1-.1-.2-.2-.3s-.2-.2-.2-.3a4.7,4.7,0,0,1-.6-.9,2.19,2.19,0,0,0-.3-.5,3.13,3.13,0,0,1-.5-1,1.69,1.69,0,0,0-.2-.5,10.83,10.83,0,0,1-.7-1.8.35.35,0,0,0-.1-.2.35.35,0,0,1-.1-.2.37.37,0,0,0-.1-.3c-.2-.2-.2-.2-.2-.8,0-.3-.1-.6-.1-.9v-2.3a20.85,20.85,0,0,1,.4-2.6.35.35,0,0,0,.1-.2Zm.6.5h0a.6.6,0,0,1,.1.4v.5a7.57,7.57,0,0,0-.1,1.5,11.2,11.2,0,0,0,.6,2.3,2.07,2.07,0,0,0,.2.6,31.27,31.27,0,0,0,2.1,4.6c.2.3.3.6.5.9s.2.3.2.4a.35.35,0,0,1,.1.2,6.66,6.66,0,0,0,.6,1.1,9.58,9.58,0,0,1,1.1,2.1,9,9,0,0,1,1.2,3.6c-.3-.1-.5-.7-.9-1.6a12.78,12.78,0,0,0-1.4-2.3,1.69,1.69,0,0,1-.3-.6v-.1a1,1,0,0,1-.1-.3.76.76,0,0,0-.2-.4c-.1-.1-.2-.5-.4-.8s-.3-.6-.3-.7l-.3-.6c0-.1-.1-.2-.2-.3a.76.76,0,0,1-.2-.4c-.1-.1-.1-.2-.2-.2a.35.35,0,0,1-.1-.2c0-.1-.7-1.4-.7-1.4V32c-.1-.2-.3-.4-.4-.6a.35.35,0,0,1-.1-.2c0-.1-.1-.2-.2-.4a.76.76,0,0,1-.2-.5.35.35,0,0,0-.1-.2.44.44,0,0,1-.1-.3c0-.1-.1-.3-.1-.4a7.26,7.26,0,0,1-.3-3c-.1-1.6,0-2.6.2-2.6Zm.5.2c.1,0,.1.2.2.4a10.83,10.83,0,0,0,.5,1.9,1.69,1.69,0,0,1,.2.5l.7,1.4a1.46,1.46,0,0,0,.3.5c.1.2.3.5.4.7a11.47,11.47,0,0,0,.8,1.4c.1.3.5,1,.8,1.6l.7,1.4a14.91,14.91,0,0,1,1.3,4.7v0c0-.1,0-.1-.1-.1-.5-.6-.6-1.3-1.1-1.9l-.2-.4a2.09,2.09,0,0,0-.4-.6c-.1-.2-.3-.4-.3-.5s-.2-.4-.3-.5a3.33,3.33,0,0,1-.3-.6,2.13,2.13,0,0,0-.5-.8l-.1-.1c0-.1,0-.2-.1-.2a4.35,4.35,0,0,1-.4-.7.35.35,0,0,0-.1-.2.35.35,0,0,1-.1-.2c-.6-1.5-.6-.9-.9-2.2a1.42,1.42,0,0,1-.2-.6,1,1,0,0,0-.1-.3c0-.1,0-.1-.1-.2a2.26,2.26,0,0,1-.3-1,4.08,4.08,0,0,1-.2-.7,5.9,5.9,0,0,1-.2-1.4c-.1-.8,0-1.3.1-1.3Zm16.3.8a1.44,1.44,0,0,0,.2.3l.5,1a1.69,1.69,0,0,1,.3.7.31.31,0,0,1-.1.2,2.38,2.38,0,0,0-.3,1.2,6.37,6.37,0,0,0,.4,2.4c.1.1.1.3.2.5.2.5.3.9.5,1.5.1.4.3.8.4,1.1a6.89,6.89,0,0,0,.3.8,14.31,14.31,0,0,1,.5,1.8,9,9,0,0,1,.2,2.4V40a8,8,0,0,1-.4,1.8c-.1.2-.1.3-.2.4s0,.1-.1.1h-.1v-.2a7.35,7.35,0,0,0,0-2.1c0-.2-.1-.5-.1-.6a17.53,17.53,0,0,0-.5-2.5,10.38,10.38,0,0,0-.4-1.3c0-.1-.1-.2-.1-.3a.37.37,0,0,0-.1-.3c0-.1-.1-.2-.1-.3s-.1-.2-.1-.4a2.07,2.07,0,0,0-.2-.6,9.44,9.44,0,0,1-.3-.9,12.87,12.87,0,0,1-.8-4,30.06,30.06,0,0,0,.4-4Zm-2.2,1.1h0v.6a32.26,32.26,0,0,0,.4,4.9,43,43,0,0,0,1.4,4.4c.7,1.9,1.2,3.2,1.4,3.7a12.29,12.29,0,0,1,.5,2.5v.3l-.6-.6a13.87,13.87,0,0,1-1.1-1.9,5.56,5.56,0,0,0-.4-.8.35.35,0,0,0-.1-.2.35.35,0,0,1-.1-.2,1.69,1.69,0,0,0-.2-.5c-.2-.4-.2-.5-.3-.7a.76.76,0,0,0-.2-.4.6.6,0,0,1-.1-.4.35.35,0,0,0-.1-.2.31.31,0,0,0-.1-.2c0-.1-.1-.2-.1-.4a4.71,4.71,0,0,1-.3-.9,1.09,1.09,0,0,0-.1-.5,2.81,2.81,0,0,1-.1-.8,5.64,5.64,0,0,0-.1-.7v-.4a4.14,4.14,0,0,0-.1-1,20.74,20.74,0,0,1-.1-4.2,4.61,4.61,0,0,1,.5-1.4Zm-9.3.4h0l-.1.1v.2a1.24,1.24,0,0,0,.3.2,1.18,1.18,0,0,1,.5.5.35.35,0,0,0,.2.1c.1,0,.2.2.4.3.5.4.8.6,1,.6s.1,0,.1.1.3.2.5.2a1.49,1.49,0,0,0,.6-.1,6.38,6.38,0,0,0,1.5-.6,3.4,3.4,0,0,0,1-.6c.1-.1.1-.1,0-.2h0c-.1-.1-.4,0-1.1.2-.4.1-.8-.3-1-.2h-.6c-.2,0-.3-.1-.5-.2a4.77,4.77,0,0,1-2.2-.5c-.1-.1-.2-.1-.3-.2a.37.37,0,0,1-.3.1Zm.6.5h0a3.88,3.88,0,0,0,1.7.6c.1,0,.2,0,.2.1a1.44,1.44,0,0,1,.3.2h.6a3.22,3.22,0,0,0,1.4,0,2.2,2.2,0,0,1-1.6.5,4.73,4.73,0,0,1-2.6-1.4Zm12.3.4a6.12,6.12,0,0,1,.5.6,3.81,3.81,0,0,0,.5.6c.1.2.2.3.2.4v.1c-.1.1-.1.4-.1.7a11.48,11.48,0,0,0,.2,1.4c0,.1.2.6.3,1a9.25,9.25,0,0,1,.3,1,1,1,0,0,0,.1.3.35.35,0,0,1,.1.2c0,.1.1.3.1.4.1.4.2,1,.3,1.4,0,.2.1.5.1.7a19.1,19.1,0,0,1,.2,2.8v.7l-.1.6a11.33,11.33,0,0,1-.9,2,.37.37,0,0,0-.1.3,8.3,8.3,0,0,0,.5-1.8,26.08,26.08,0,0,0,0-2.8c0-.4-.2-1.4-.2-1.8a2.07,2.07,0,0,0-.2-.6,1.09,1.09,0,0,1-.1-.5,1.6,1.6,0,0,0-.3-.8c-.1-.1-.1-.4-.2-.6s-.1-.5-.2-.5a.35.35,0,0,0-.1-.2c0-.1-.1-.2-.2-.4s-.1-.4-.2-.4a.76.76,0,0,0-.2-.4c-.1-.2-.1-.4-.2-.5a9.25,9.25,0,0,0-.3-1,8.81,8.81,0,0,1-.2-1.7,1.27,1.27,0,0,1,.1-.6c.2-.4.2-.6.3-.6Zm-4.5.7v.4a1.62,1.62,0,0,0,0,1c.1,1.5.2,2.8.4,4.2.1.6.1.8.2,1.2a3.09,3.09,0,0,0,.2.8,5.79,5.79,0,0,0,.4,1.3c.3.8.6,1.5.7,1.8a5.9,5.9,0,0,0,.4.8,8.72,8.72,0,0,0,.9,1.7c.1.2.3.4.3.5a.49.49,0,0,1,.1.3h-.1c-.1,0-.1,0-.3-.1s-.4-.2-.8-.7a3.49,3.49,0,0,1-.6-.9,1.38,1.38,0,0,0-.3-.4c-.1-.1-.1-.1-.1-.2s-.1-.1-.2-.4a.76.76,0,0,1-.2-.4.76.76,0,0,0-.2-.4,7.08,7.08,0,0,1-.8-1.9,2.07,2.07,0,0,1-.2-.6c-.1-.1-.1-.2-.1-.4s-.1-.3-.1-.4a4.33,4.33,0,0,1-.1-.5,2.8,2.8,0,0,1-.1-.6v-.8a12.83,12.83,0,0,1-.1-2.7c0-.7.2-1.6.2-1.8s.3-.5.4-.7Zm6,1.2s.1,0,.3.2a7.26,7.26,0,0,0,.9.5l.3.2v.5a4.44,4.44,0,0,0,.2,1.3c0,.2.1.5.1.8a1.21,1.21,0,0,0,.1.5,9,9,0,0,1,.3,1.9,14.12,14.12,0,0,1,.1,2.2,9.91,9.91,0,0,1-.2,1.8,8.51,8.51,0,0,1-.6,1.7c-.1.3-.2.4-.2.3a1.75,1.75,0,0,1,.1-.5,5.63,5.63,0,0,1,.2-1,13.55,13.55,0,0,0-.1-3.5c0-.2-.1-.4-.1-.6a4.33,4.33,0,0,0-.1-.5c0-.1-.1-.3-.1-.4a2.43,2.43,0,0,0-.3-1.1,1.06,1.06,0,0,0-.2-.5,2.07,2.07,0,0,1-.2-.6c-.1-.1-.1-.4-.1-.5a4.08,4.08,0,0,0-.2-.7,11.15,11.15,0,0,1-.3-1.3c0-.4,0-.6.1-.7Zm-7.1.3v.3a2.81,2.81,0,0,1-.1.8v2.6a1.09,1.09,0,0,0,.1.5c.1.7.1,1,.3,2.1a10.38,10.38,0,0,0,.4,1.3c0,.1.1.2.1.3s.7,1.5,1,2c.2.3.4.7.5.7l.1.1c0,.1.1.2.3.5a1.46,1.46,0,0,1,.3.5c0,.1-.2,0-.3-.1h-.1a.1.1,0,0,1-.1-.1.1.1,0,0,0-.1-.1.1.1,0,0,1-.1-.1l-.4-.4a.1.1,0,0,1-.1-.1l-.2-.2c-.1-.1-.2-.3-.4-.4s-.2-.3-.3-.3a.35.35,0,0,1-.1-.2c0-.1-.1-.2-.2-.3a16,16,0,0,1-1-2.3,4.5,4.5,0,0,1-.2-.8c0-.1-.1-.2-.1-.3s-.1-.3-.2-1.2a.44.44,0,0,0-.1-.3v-1.7a5.94,5.94,0,0,1,.2-1.7l.1-.2c.2-.3.7-.9.7-.9Zm-1.1,1.3v.2A8.77,8.77,0,0,0,28,33a5.6,5.6,0,0,0,.2,2.1,2.19,2.19,0,0,0,.3.9c.1.1.1.3.2.6a.37.37,0,0,0,.1.3,1,1,0,0,1,.1.3,8.2,8.2,0,0,0,.4,1.1,3.93,3.93,0,0,1,.2.6,15.14,15.14,0,0,0,.9,1.4.31.31,0,0,1,.1.2,4.5,4.5,0,0,1-1-1,2.18,2.18,0,0,0-.4-.5l-.2-.2v-.1a.35.35,0,0,1-.1-.2c-.1-.2-.1-.2-.2-.2h0a.37.37,0,0,0-.1-.3s-.1-.1,0-.1v-.1a1.42,1.42,0,0,1-.2-.6.37.37,0,0,0-.1-.3c0-.1-.1-.2-.1-.3a.35.35,0,0,0-.1-.2v-.1c0-.1-.1-.4-.1-.5v-.2c-.1-.1-.1-.2-.1-.9,0-.3-.1-.7-.1-.8v-.4a10.42,10.42,0,0,0,.1-1.1,3.26,3.26,0,0,1,.4-1.4c-.3-.1-.2-.3-.1-.3Zm-7.7.1a4.43,4.43,0,0,1,1,.6,9.36,9.36,0,0,0,2.8,1.4h.6c1.1-.1,1.5-.3,1.9-.9.2-.3.3-.3.4-.3s.1.1,0,.3a12.91,12.91,0,0,0-.1,4,3,3,0,0,1-1.1.6,6.25,6.25,0,0,1-3,.4,13.06,13.06,0,0,0-1.2-3.3c0-.2-.1-.3-.1-.4a.35.35,0,0,0-.1-.2.35.35,0,0,1-.1-.2.76.76,0,0,0-.2-.4A.76.76,0,0,1,21,32c0-.1-.1-.2-.2-.3a.31.31,0,0,1-.1-.2,1.44,1.44,0,0,0-.2-.3,1.58,1.58,0,0,1-.1-.4Zm6.8,5.4h0a1.09,1.09,0,0,1,.1.5v.1a7.46,7.46,0,0,1-1.2.7,7.77,7.77,0,0,1-3,.4v-.6a5.46,5.46,0,0,0,1.8-.1,5.23,5.23,0,0,0,2.3-1Z"/></g></g></g></svg>