<svg xmlns="http://www.w3.org/2000/svg" viewBox="0 0 100.6 100.6"><defs><style>.cls-1{fill:#e3eaea;}.cls-2{fill:#edf1f1;}.cls-3{fill:#df9996;}.cls-4{fill:#b69564;stroke:#b69564;}.cls-5{fill:#d8ab8d;}.cls-6{fill:#f1e5d2;}.cls-7{fill:#fff;}.cls-8{fill:#d6dad4;}.cls-9{fill:#322722;}</style></defs><g id="圖層_2" data-name="圖層 2"><g id="_0-ui_kits" data-name="0-ui_kits"><g id="Group_6637" data-name="Group 6637"><path id="Path_40242" data-name="Path 40242" class="cls-1" d="M99.72,50.3A49.43,49.43,0,1,1,50.3.87,49.41,49.41,0,0,1,99.72,50.3Z"/><path id="Path_40243" data-name="Path 40243" class="cls-2" d="M55.82,6.31A49.37,49.37,0,0,0,18.36,87.9,49.39,49.39,0,0,0,87.54,17.85,49.38,49.38,0,0,0,55.82,6.32Z"/><path id="Path_40244" data-name="Path 40244" class="cls-3" d="M36.53,82.8c-1.37,1.33-3.32,1.55-5.06,2.12-4,1.1-8.07,2-12.11,2.92-.61.21-.37,1,.12,1.14a49.6,49.6,0,0,0,26,10.54A57.73,57.73,0,0,0,56.2,99.4a48.9,48.9,0,0,0,20.2-7.12c.58-.35.18-1.14-.43-1.14-4.18-1.61-8.43-3.07-12.5-4.94-.73-.32-1.18-1-1.87-1.4-.78,0-.87,1.1-1.29,1.61-1.73,2.9-3.26,6.09-5.87,8.29A17.43,17.43,0,0,1,51,97.29c-1.7.2-3.15-1-4.41-2a33,33,0,0,1-6.39-7.39c-1.13-1.63-2.08-3.4-3.17-5-.14-.19-.32-.1-.5-.09Z"/><path id="Path_40245" data-name="Path 40245" class="cls-4" d="M50.3.5a49.8,49.8,0,1,0,49.8,49.8A49.8,49.8,0,0,0,50.3.5Zm0,.74a49.06,49.06,0,1,1-49,49.06h0a49.06,49.06,0,0,1,49-49.06Z"/><path id="Path_40246" data-name="Path 40246" class="cls-5" d="M56.86,9.21c-.12.21-.56.77-.75,1.14a8.58,8.58,0,0,0-1.17,2.73c.9,0,1.86-.23,2.78-.18a8.19,8.19,0,0,1,6.15,2.43,18.3,18.3,0,0,1,3.36,4.85,5.49,5.49,0,0,1-.15,6.21c-.14.41-1,1.07-.48,1.44,1.62-.27,2.84-1.57,4-2.67.48-.35.58-1,1-1.39,0,1.06-1.06,1.82-1.65,2.6-.2.33-1.15,1-.47,1.26,1.29.2,2.73.37,3.58,1.49a12.77,12.77,0,0,0-2.28-.78,4,4,0,0,0-2.55.28c1.78,1.93,4.16,3.47,5.38,5.9-1.33-1.35-2.61-2.75-4-4-.9-.66-1.67-1.7-2.79-1.95-.68-.06-.58.68-.13.93a19.28,19.28,0,0,1,5.33,8.85c.62,2,.14,4.07,0,6.1.26,3.4.13,6.94-1.51,10-.48.9-1.08,1.73-1.64,2.6a2.89,2.89,0,0,0-.84,2.95c.13,1.43,1,2.6,1.38,3.94a19.53,19.53,0,0,1-1.76-3.12c-.74.35-.78,1.72-1.24,2.45A15.86,15.86,0,0,0,67.7,67c.32.6-.32,0-.44-.24-.58-.62-.74-1.61-1.32-2.15a24.05,24.05,0,0,0-1.64,2.59c-.95,1.84-4.07,4-4.81,6a20.84,20.84,0,0,0-.65,9c.19,3.4,4.73.52.58,5.55-1.62,4.41-5.82,9-8.83,9-2,.45-7.6-4.39-9.39-7.07-7.59-11.35-1-5.72-1-8.14,2-2.39.64-6.73-.4-12.16.35-1.56-.73-2.83-1.22-4.23-.34-.47-.28-1.52-1-1.61-.63.68-.73,1.7-1.23,2.47A20.84,20.84,0,0,0,37,62.38c0-.73.14-1.73-.33-2.26-.89.9-1.52,2.06-2.4,3-.12.14-.69.75-.66.44a8.32,8.32,0,0,0,2.06-3.74,29.56,29.56,0,0,0-1.53-3.09c-1-1.86-2.49-4.13-1.34-6.26a2.58,2.58,0,0,0,.64-2.31c-.2-.93,0-2.08-.55-2.87a17.34,17.34,0,0,1-.63-6c-.08-3.4,1.62-6.52,3.85-9,.43-.55,1.63-1.18.59-1.78a8.46,8.46,0,0,1-2.48-4.38,11.37,11.37,0,0,1,.3-5.73,5.42,5.42,0,0,1,2.39-2.72,31.16,31.16,0,0,1,3.2-2.25,13.77,13.77,0,0,1,6-1.31c1.93-.19,3.83.75,5.77.37.6-.34.93.5,1.4.43a7,7,0,0,0-.68-3.43A11,11,0,0,1,54,13.26c0,.56.68.2.49-.24a8.83,8.83,0,0,1,2.42-3.81ZM32.23,25.54c1,.88,2,2,3.1,2.78.35,0,.8.73.15.58-1.59-.43-2.34-2.15-3.25-3.36Zm2.09,3.82c.26,0,.55.2.35.48a27.2,27.2,0,0,0-4.28,1.78c-.17-.57.66-.39.8-.82a5.58,5.58,0,0,1,3-1.44h.11Z"/><path id="Path_40247" data-name="Path 40247" class="cls-6" d="M43.78,30.42l-.24.73h.06c.52.45.14,1.37.28,2a15,15,0,0,0,3.55,9.57c1.43,1.82,3.11,3.76,5.58,3.94a23.52,23.52,0,0,0,8.81,0,9.52,9.52,0,0,0,3.06-.13c1.08-.31,1.31,1.1,1.32,2,.2,1,.45,2.06.75,3.07.48-1.24,1.12-1.95,1.71-1.88,1,.11,1.53,2.23,1.25,4.72s-1.32,4.44-2.29,4.32a.86.86,0,0,1-.56-.33A13.59,13.59,0,0,1,65.68,63c-1.93,4.23-4.37,8.35-8,11.39-2,1.67-4.83,2.79-7.41,1.8A20.09,20.09,0,0,1,38.19,61.84c-.56-2.76-1.3-5.49-1.64-8.29.13-1-.46-2-.31-3,.46-.32,1.1-.55,1.2-1.2.76-3.84,1-7.82,2.38-11.52.37-.82.74-3,1.39-3.66.65.06-.06,2.22.07,2.65a11.92,11.92,0,0,0,.17,2.8,31,31,0,0,1,1.07-6.12c.35-.74.59-2.56,1.26-3.08ZM44,46.06c-1,.06-2.42.24-2.85,1.29-.12.59.52.39.74.1,1-.82,2.47-.6,3.66-.34,1.24.54,2.4,1.5,3.73,1.72,0-.63-.91-.84-1.32-1.2a10.3,10.3,0,0,0-4-1.56ZM62.17,48A12,12,0,0,0,58,49.27c-.31.25-.06.53.3.26a18.59,18.59,0,0,1,4.51-.7c.61.19,1.16.52,1.75.77-.17-1-1.51-1.6-2.43-1.62ZM33.89,50.45c.7.22,1.1.95,1.53,1.5.22.42.67,1,.4,1.47-.35.28-.7-.41-1,0a.85.85,0,0,0-.24,1.13,3.84,3.84,0,0,0,1.33,1.93c-.05-.84-1-1.33-1.12-2.12,0-.51.74-.52,1-.16.58.54.44,1.44.69,2.13.21,1.1.54,2.18.73,3.27-.22.47-.82,0-1-.25a52.48,52.48,0,0,1-3-5.25c-.37-.95-.8-2.16-.11-3.06a1.19,1.19,0,0,1,.84-.57ZM61,51.37a4.51,4.51,0,0,0-3.7,1.77A4.1,4.1,0,0,0,61.56,55c1.16-.33,2.71-.53,3.35-1.7a2.6,2.6,0,0,0-2.31-1.76A8.76,8.76,0,0,0,61,51.36Zm-16.08.05a4.45,4.45,0,0,0-3.6,2,4,4,0,0,0,4.78,1.43c1-.41,2.31-.76,2.72-1.83-.66-1.29-2.32-1.54-3.62-1.55ZM40.22,68.25c1.11.71,2.42,3.58,3.38,4.47a14.91,14.91,0,0,0,7.87,4.36,7.42,7.42,0,0,0,6.05-1.4c.34-.16,1.36-1.67,1.56-1-.36,1.47-1.07,3.66-.93,5.2a14,14,0,0,0,.9,5.08,34.26,34.26,0,0,1-6.33,7.95,2.62,2.62,0,0,1-3.42.34,26,26,0,0,1-9.23-9.55,20.59,20.59,0,0,0,1.09-8.24c0-1.82-.45-3.59-.52-5.39,0-.15-.57-1.81-.42-1.79Z"/><path id="Path_40248" data-name="Path 40248" class="cls-7" d="M61,52c2,0,3.58.65,3.58,1.44S63,54.86,61,54.86s-3.57-.63-3.57-1.42S59.05,52,61,52ZM45,52c1.71,0,3.1.61,3.1,1.36S46.7,54.7,45,54.7s-3.1-.6-3.1-1.34S43.27,52,45,52Z"/><path id="Path_40249" data-name="Path 40249" class="cls-8" d="M37.93,82.09c.64.18.84,1,1.17,1.45,1.3,2.23,2.56,4.58,4.53,6.3a35.5,35.5,0,0,0,5.94,4.49,2.12,2.12,0,0,0,2.34,0,24.34,24.34,0,0,0,5.88-6.18,28.41,28.41,0,0,0,2.62-4.32c.31-.33,1,.14.71.57a35.93,35.93,0,0,1-6.38,9.33c-1.13,1.12-2.24,2.44-3.8,2.91-1.36.33-2.67-.51-3.68-1.33A40.22,40.22,0,0,1,39.12,86a15.13,15.13,0,0,1-1.63-3.3.46.46,0,0,1,.32-.55l.12,0Z"/><path id="Path_40250" data-name="Path 40250" class="cls-9" d="M57,9a.43.43,0,0,0-.45.36c0,.1-.06.17-.13.16a10.86,10.86,0,0,0-1.91,2.69,1.89,1.89,0,0,0-.21,1.07c0,.49,0,.65-.11.57a1,1,0,0,1-.1-.61,1.31,1.31,0,0,0-.07-.65.67.67,0,0,1-.14-.36A7.12,7.12,0,0,0,53,10.05a1,1,0,0,1-.21-.4c0-.18-.13-.26-.26-.21s-.14.1-.08.14a.69.69,0,0,1,.18.36c0,.15.13.28.22.29s.13.15.13.34a7,7,0,0,0,.1.92,3.7,3.7,0,0,1,0,1.15c-.07.55-.09.57-.2.28-.16-.45-.43-.67-.73-.6a3.91,3.91,0,0,1-.58.1,1.55,1.55,0,0,0-.48.13,1.12,1.12,0,0,1-.86-.08A8.36,8.36,0,0,0,49,12.24a10.82,10.82,0,0,1-1.27-.2,14.47,14.47,0,0,0-1.5,0,18.18,18.18,0,0,0-3.67.41l-.29,0a.17.17,0,0,0-.1.17c0,.08-.2.13-.51.13s-.55,0-.58.11a.21.21,0,0,1-.21.12,5.21,5.21,0,0,0-1.93,1.19c0,.08,0,.14,0,.13a1.42,1.42,0,0,0-.95.47,1.46,1.46,0,0,1-.42.32c-.17-.05-.3.06-.35.3a.77.77,0,0,1-.18.36c-.06.05-.07,0,0-.06s0-.14-.08-.15-.2,0-.2.11-.06.1-.12.06-1.25,1-1.76,1.88c-.68,1.11-.85,1.83-1,4.08a6.09,6.09,0,0,0,.61,3.56,11.3,11.3,0,0,1,.47,1.31,7.09,7.09,0,0,0,1.65,2,2.13,2.13,0,0,1,.46.54,2,2,0,0,1-.4.48,25.07,25.07,0,0,0-2,2.36,2.88,2.88,0,0,1-.4.52,10.74,10.74,0,0,0-1,1.89,1,1,0,0,1-.14.32c-.67.93-1.25,4.75-1,6.58,0,.38.1.9.11,1.17a8.54,8.54,0,0,0,.16,1.13,4.43,4.43,0,0,1,.11,1c0,.2,0,.38.09.39s.14.11.18.25a.32.32,0,0,0,.23.26c.12,0,.17.15.15.41a3.87,3.87,0,0,0,.06.83,7,7,0,0,1,.11.93c0,.26.05.8.07,1.19,0,.67,0,.71-.37,1.07-1.56,1.8-.54,3.87.73,6.4a5.45,5.45,0,0,0,.66,1,9.15,9.15,0,0,1,1.14,2.43,6.32,6.32,0,0,1-2.09,3.73c.06,1.66,3.78-4.52,3.26-3.24.13.08.22.2.16.27a1.78,1.78,0,0,0,0,.69,11,11,0,0,1-.47,4.31,1.7,1.7,0,0,0-.24.53c-.08.3-.06.37.09.33a.32.32,0,0,0,.19-.23.15.15,0,0,1,.15-.16h0c.08,0,.11,0,.07-.07a.18.18,0,0,1,0-.21c.4-.88.61-1.63,1-2.44,0-.11.1.08.22.42a2.83,2.83,0,0,0,.31.74.61.61,0,0,1,.1.37,1.3,1.3,0,0,0,.2.57c.12.19.41.8.66,1.34s.48,1.06.51,1.14c-.06,2.4.92,6.59.75,9.51a12.3,12.3,0,0,1-1,5.07l0,0c-.22-.4-.33-.75-.79-.93a1.43,1.43,0,0,0-.61-.14,1.83,1.83,0,0,0-1.08.42,1.73,1.73,0,0,0-.19.28.67.67,0,0,0-.34.23,2.88,2.88,0,0,1-1.36,1c-2.59,1.05-14.29,4-17.34,4.06l1,.9a18.3,18.3,0,0,0,2.2-.35c2-.47,13.26-3,14.93-4a3.46,3.46,0,0,0,1-.78,76,76,0,0,0,5.32,8.23A39.78,39.78,0,0,0,46.8,96c1.29.93,3.41,2.49,5,1.37a38.51,38.51,0,0,0,4.7-4,72.51,72.51,0,0,0,5-8.26,5.71,5.71,0,0,0,1.36,1.28c1.35.83,10,4.07,14.24,5.62.43-.28.35-.44.78-.73-5-1.67-12.32-4.72-14.21-5.49a5.93,5.93,0,0,1-1.88-1.64.64.64,0,0,0-.1-.24c-.41-.71-1.57-.87-1.9-.34-.1.19-.21.37-.31.55-.07-.33-.17-.75-.27-1.37-.51-3.43.43-8.94.93-9.5.28-.32,1.9-2.4,2.16-2.75,1.19-1.63,2.26-3.56,3.34-5.33.27-.52.5-.59.55-.17a1.65,1.65,0,0,0,.24.54.91.91,0,0,1,.2.52c0,.26.25.54.4.43s.07,0,0,0,0,.23.1.34a4.32,4.32,0,0,1,.35.42c.08.12.21.19.28.17.28-.07.25-.33-.08-.71a2.31,2.31,0,0,1-.46-.86c-.07-.25-.31-.93-.54-1.5s-.37-1.09-.29-1.18A7.29,7.29,0,0,0,67,62c.4-1,.55-1.24.66-.82a9.33,9.33,0,0,0,.82,1.68.73.73,0,0,1,.15.29c0,.12.12.19.2.16s.12,0,.09,0,.38.9.52.86.13-.65-.08-.92a6.6,6.6,0,0,1-.9-1.8.56.56,0,0,0-.09-.31A3.49,3.49,0,0,1,68,59.93c.15-.07.44-.51.93-1.77a6.63,6.63,0,0,0,.56-1.35l.35-1.15a14.37,14.37,0,0,0,1.82-4.17c0-.15.07-.28.1-.27a14.21,14.21,0,0,0,.36-2.91,12.05,12.05,0,0,0,0-1.9c0-.54-.12-1.34-.15-1.78a4.2,4.2,0,0,1,.08-1.37,8.89,8.89,0,0,0,.32-2.95,14,14,0,0,0-.65-3.19.91.91,0,0,1-.1-.4c0-.1,0-.19-.11-.19a.12.12,0,0,1-.12-.13,2.8,2.8,0,0,0-.28-.67,8.57,8.57,0,0,1-.53-1.1A17.23,17.23,0,0,0,67.3,30a4.41,4.41,0,0,1-.74-.63c-.57-.54-.45-.71.52-.7h.17c.1.08.21.18.38.3a2.06,2.06,0,0,1,.58.52c0,.06,2.29,2.06,2.56,2.26a18.18,18.18,0,0,1,1.72,1.79c.67.76,1.25,1.4,1.29,1.4s.07-.17-.07-.49a14.79,14.79,0,0,0-1.09-1.73,49.35,49.35,0,0,0-3.72-3.52,6.1,6.1,0,0,1-.62-.52.56.56,0,0,0-.15-.1l.34-.06a5.37,5.37,0,0,1,4.16.58c.47.33.77.28.58-.07a.53.53,0,0,0-.23-.26,1.86,1.86,0,0,1-.47-.32,3.13,3.13,0,0,0-2.18-.81c-1.45-.07-1.45-.14.09-1.66a2.36,2.36,0,0,0,.5-.63.13.13,0,0,1,.12-.13c.17,0,.76-1.1.74-1.4s-.41-.34-.48,0c-.14.61-.23.78-.39.77s-.22.12-.27.28-.15.3-.2.3-.12.07-.13.16a.3.3,0,0,1-.23.24,2.32,2.32,0,0,0-.68.53,4.94,4.94,0,0,1-2.21,1.47,2.47,2.47,0,0,1-.79.23c-.06-.07.29-.64.94-1.55.89-1.25,1-1.91.89-3.91a5,5,0,0,0-.81-2.13.54.54,0,0,1-.18-.32,8.89,8.89,0,0,0-1.47-2.48c-.1,0-.2-.14-.24-.28a11.4,11.4,0,0,0-2.22-2.53,8.56,8.56,0,0,0-4.12-1.86c-.42-.07-.76-.08-.76,0s-.33.07-.71,0a6.92,6.92,0,0,0-1.51.07C55.06,13,55,13,55,13s.2-.46.43-1A8.16,8.16,0,0,0,55.85,11a1.12,1.12,0,0,1,.3-.41c.16-.14.29-.28.27-.3s.16-.46.35-.66.15-.2.1-.21,0-.07.14-.15.18-.18.1-.25A.13.13,0,0,0,57,9Zm-9.78,3.87a2.7,2.7,0,0,1,.41.06,2.06,2.06,0,0,1,.72.21,2.2,2.2,0,0,1-1.1.43,1.59,1.59,0,0,0-.57.14,1.7,1.7,0,0,1-.48.16,3.28,3.28,0,0,0-.73.24,6.82,6.82,0,0,1-.9.31,2.49,2.49,0,0,0-1.14.84c0,.06-.13.14-.28.16a13.48,13.48,0,0,0-2.55,2.08,3.22,3.22,0,0,1-.42.6c-.23.26-.38.48-.35.49a2,2,0,0,1-.2.68,8.71,8.71,0,0,0-.08,5,2.17,2.17,0,0,1,.19.66c0,.09.05.13.11.1s.12.05.11.2a3.94,3.94,0,0,0,1,1.6c.41.47.87.71,1.13.59s.27-.29-.2-.62a4.31,4.31,0,0,1-.62-.51A5.07,5.07,0,0,1,40.46,25c0-.08,0-.11-.11-.08s-.18-.08-.33-1.37c0-.15-.09-.48-.14-.75a6.9,6.9,0,0,1,.82-4,12.41,12.41,0,0,1,5.06-3.64c.66-.26,1.29-.52,1.41-.58a.62.62,0,0,1,.38,0,2.2,2.2,0,0,0,.88-.14,2,2,0,0,1,.77-.14s0,.22-.17.4c-.4.52-2.23,3.56-2.54,4.22a9.23,9.23,0,0,0-1,3.36,7.14,7.14,0,0,0,.6,2.77A10.88,10.88,0,0,1,46.46,26c.06.19.14.28.28.26.34,0,.35-.34.06-1a7.79,7.79,0,0,1-.66-3.09,8,8,0,0,1,1.15-3.29c.24-.46.58-1.07.74-1.36a11.18,11.18,0,0,1,.62-1,5.82,5.82,0,0,0,.47-.71,7.41,7.41,0,0,1,1.57-1.27c.06,0,.1.13.12.34s0,.33-.09.28-.08,0,0,.13,0,.19,0,.15-.17.18-.26.49-.28.89-.42,1.29a8.55,8.55,0,0,0-.33,1.5,10.08,10.08,0,0,1-.3,1.45,8.08,8.08,0,0,0-.2.85,36.32,36.32,0,0,0,.73,5.4c.19.69.39,1.47.45,1.74.21,1.05.46,1.28.56.51a6.36,6.36,0,0,0-.37-2.07,23.83,23.83,0,0,1-.69-5.24,26.27,26.27,0,0,1,1.7-5.95c.28-.65,1-1.51,1.18-1.5s.06.82-.1,1.2a.64.64,0,0,0,0,.47.57.57,0,0,1-.13.53c-.17.27-.19.38-.08.58s.1.27,0,.32c-.29.25-.5,2.52-.36,4,.16,1.77.27,3.91.62,5.79a4.78,4.78,0,0,1,.18.93c0,.34.28.72.49.66s.17-.14.08-.5a1,1,0,0,0-.18-.45,2.33,2.33,0,0,1,0-.79,26.77,26.77,0,0,0-.4-4.81,25.94,25.94,0,0,1,.61-6.15l.11-.4.24.72a4.28,4.28,0,0,1,.23.92.46.46,0,0,0,.11.32,1.51,1.51,0,0,1,.14.62q0,.46.12.93a7.45,7.45,0,0,1,.07,2.9.53.53,0,0,0,0,.59c.15.23.17.23.36,0a2,2,0,0,0,.25-1,36.55,36.55,0,0,0-.29-4.79c-.23-1.09,0-1,.53.25.23.53.45,1,.48,1A17.17,17.17,0,0,1,56.51,21c.19,1.42-.19,5.23-.56,5.59s-.56,1.18-.19,1.2.79-.76.93-1.28a3.39,3.39,0,0,1,.2-.53c.16-.23.22-.62.32-1.94a13.93,13.93,0,0,0-.49-5.52,6.52,6.52,0,0,0-.95-2.39c-.39-.63-.4-.91,0-.52a.69.69,0,0,0,.33.22.71.71,0,0,1,.34.23.75.75,0,0,0,.35.26.72.72,0,0,1,.33.21c.09.09.47.44.85.76a8.22,8.22,0,0,1,1.22,1.47c.3.48.69,1.06.86,1.28a1.54,1.54,0,0,1,.3.49.51.51,0,0,0,.14.26,6.08,6.08,0,0,1,.72,1.84.42.42,0,0,0,.06.31,6.59,6.59,0,0,1,.54,2.55c0,1.25-.28,2.38-.71,2.63-.24.13-.36.13-.82,0s-.59-.14-.43-2a20.7,20.7,0,0,0-.47-3.68,2.27,2.27,0,0,1-.29-.84,1.08,1.08,0,0,0-.25-.59,1.71,1.71,0,0,1-.3-.5c0-.21-.59-.64-.67-.52a1.17,1.17,0,0,0,.25.58,6.24,6.24,0,0,1,.64,2c.19.82.4,3.68.46,3.85s0,.45-.23.92-.37.62-.78.66a4.09,4.09,0,0,1-1.1-.06c-.71-.11-.92,0-.63.35a.9.9,0,0,1,.17.3A5.44,5.44,0,0,1,55.16,28a.77.77,0,0,0-.4,0c-.41.13.47.84,1.53,1.22a12.34,12.34,0,0,1,1.47.69c.43.23.81.44.86.45l.19.05a24.55,24.55,0,0,1,5.54,6.39c1.37,2.13,3.24,5,3.81,7.9a8.54,8.54,0,0,1,.12,1.23,3.08,3.08,0,0,0,.1.8,6.47,6.47,0,0,1-.08,1.81,3.19,3.19,0,0,0-1,1.27l-.15-.41a3.33,3.33,0,0,1-.22-1.36,7,7,0,0,0-.14-1.38,6.39,6.39,0,0,1-.19-1,5.47,5.47,0,0,0-.41-1.32,20.48,20.48,0,0,0-2-4A43.77,43.77,0,0,0,58,33.11c-.07,0-.18-.11-.26-.29a13.77,13.77,0,0,0-2.58-2.42c-.05,0-.09,0-.09-.07a2.82,2.82,0,0,0-1.1-.83c-.27,0-.33.34-.1.61a1,1,0,0,0,.32.26,1.73,1.73,0,0,1,.44.37,10.45,10.45,0,0,0,1,.9c.46.41.9.83,1.32,1.28s.94,1,1.27,1.26c1.66,2.19,3.75,4.39,5.35,6.74a12.87,12.87,0,0,1,2.14,5,3,3,0,0,0,.2.83.44.44,0,0,1,.08.25c-.06.24,0,.55.06.5s.08.2,0,.52a2.24,2.24,0,0,0,.09.89,37.57,37.57,0,0,1,1,3.75,1.75,1.75,0,0,0,.14.6,18,18,0,0,1-.08,3.2c-.2,2.93-.2,2.95-.64,4.13a6.23,6.23,0,0,0-.4,1.29c0,.06,0,.1,0,.1a58.93,58.93,0,0,1-3.3,6.36,18.8,18.8,0,0,1-2.25,3A1.7,1.7,0,0,1,60,72a11.3,11.3,0,0,1-6.71,4.43c-3.14.47-7-2.15-9.52-4.51-1.16-1.67-2.69-2.79-3.49-4.76a.75.75,0,0,0-.2-.37,14.59,14.59,0,0,1-1.83-5c-.12-.68-.37-1.94-.57-2.79s-.43-2-.53-2.54-.23-1.25-.31-1.57a4.06,4.06,0,0,1-.11-.92,9.39,9.39,0,0,0-.58-3.4c-.19-.18-.41-.06-.43.24s-.14.29-.71-.31-.7-1-1-2.44a9.28,9.28,0,0,1-.15-1.48c0-.47,0-.94,0-1a23,23,0,0,1,.49-3.19,1.88,1.88,0,0,0,.11-.74,1.56,1.56,0,0,1,.15-.74,6.86,6.86,0,0,0,.31-1.07,7.17,7.17,0,0,1,.42-1.26c.16-.36.41-.91.55-1.24.27-.59.48-1.05.76-1.6a10.44,10.44,0,0,1,.65-.94,29.14,29.14,0,0,0,2-3c.16-.3.44-.8.62-1.11.37-.63.42-.86.23-1s-.74.35-.76.57a.71.71,0,0,1-.27.35.75.75,0,0,0-.27.42.67.67,0,0,1-.22.4,1,1,0,0,0-.26.41,2.05,2.05,0,0,1-.4.63,1.73,1.73,0,0,0-.35.54,4.24,4.24,0,0,1-.67.86,4.59,4.59,0,0,0-.8,1.14,1.91,1.91,0,0,1-.4.65.93.93,0,0,0-.26.41,5.12,5.12,0,0,1-.34,1.07,2,2,0,0,0-.15.54s-.08.11-.22.25-.31.43-.41,1.18a2.11,2.11,0,0,1-.16.61,3,3,0,0,0-.19.78,7.36,7.36,0,0,1-.25,1,.79.79,0,0,0-.08.45s0,.08-.07.08-.12,0-.1.14a3.78,3.78,0,0,1-.16.94c-.18.7-.22.75-.34.5A20,20,0,0,1,33,37.12,16.07,16.07,0,0,1,34,34.27c.12-.17.18-.31.12-.31s0-.05,0-.1a1.83,1.83,0,0,0,.39-.49,23.4,23.4,0,0,1,2.56-3.14,5.55,5.55,0,0,0,1-1.19c0-.1-.19-.33-.43-.5a8.83,8.83,0,0,1-2.57-3.06c-.1-.23-.23-.41-.3-.42s-.11-.13-.1-.28a2.63,2.63,0,0,0-.14-.83,12.5,12.5,0,0,1,.2-4.44,6.13,6.13,0,0,1,.58-1.37,7.68,7.68,0,0,1,1.78-2c.07,0,.12,0,.13-.05s.08-.13.18-.12a.35.35,0,0,0,.28-.15c.44-.66,4.37-2.72,4.82-2.52.23.11.17.3-.14.44a15.05,15.05,0,0,0-2.1,1.62,7.84,7.84,0,0,0-1.78,2,.72.72,0,0,1-.19.34,9.07,9.07,0,0,0-1.27,4.14,7,7,0,0,0,.38,2.36,1,1,0,0,1,.07.18,23.13,23.13,0,0,0,.58,2.32,17.08,17.08,0,0,0,2.17,2.84.91.91,0,0,0,.33-.22c.28-.27-.63-1.2-1.42-2.4a8.22,8.22,0,0,1-1.33-5.58l.1-1.27.85-1.44A11.08,11.08,0,0,1,42.25,15c1.16-.9,1.32-1,1.77-1.16a3.57,3.57,0,0,0,.57-.23.47.47,0,0,1,.3-.08A5.42,5.42,0,0,0,46,13.14a2.36,2.36,0,0,1,1.22-.31Zm-4.19.3c.1,0,.15.07.11.13a.31.31,0,0,1-.2.11.11.11,0,0,1-.11-.12h0c0-.07.1-.11.2-.11Zm17.31.9a6.26,6.26,0,0,1,1.2.48,5.75,5.75,0,0,1,2.09,1.66c.44.52,1.1,1.07,1.23,1s.1.05.1.18a.75.75,0,0,0,.21.47.72.72,0,0,1,.22.4.34.34,0,0,0,.15.26,1.44,1.44,0,0,1,.33.52c.1.23.23.41.29.42s.14.17.17.38a1.25,1.25,0,0,0,.19.53,7.75,7.75,0,0,1,.81,2.08A9.31,9.31,0,0,1,67,25.2c-.07.11-.26.47-.44.8a5.89,5.89,0,0,1-1.42,1.72l-.49.43L63.45,28l-1.22-.13.08-.65c0-.36.12-.89.18-1.19a9.25,9.25,0,0,0-1-4.71c-.13-.25-.32-.65-.44-.89s-.24-.47-.38-.7-.4-.6-.66-1a17.29,17.29,0,0,0-1-1.43,15.89,15.89,0,0,0-3-2.62,1.05,1.05,0,0,1-.39-.27c-.1-.15,0-.2.57-.27a4,4,0,0,1,2.16.22c.25.1.48.2.54.21a3.68,3.68,0,0,1,.8.44c.06.05.24.22.38.37a1.16,1.16,0,0,0,.39.26,2.34,2.34,0,0,1,.56.48c.25.26.46.44.46.4a6.87,6.87,0,0,1,1.4,1.77,2.84,2.84,0,0,0,.44.75,7.24,7.24,0,0,1,.89,2.6A9,9,0,0,1,63.46,26c-.18.31-.18.68,0,.7.51,0,1.48-2.23,1.61-3.76a7.45,7.45,0,0,0-.33-2.57c-.1-.29-.24-.71-.31-.95a2.85,2.85,0,0,0-.29-.64.71.71,0,0,1-.14-.29,9.75,9.75,0,0,0-1.23-1.87c-.33-.37-1.28-1.28-1.64-1.58l-.65-.62c-.34-.35-.37-.42-.16-.4ZM46.4,15.64c-.2,0-2.95,2.4-3.47,2.84-1,.85-1.18,1.17-1.15,1.95a9.8,9.8,0,0,0,.69,3.79,5.83,5.83,0,0,1,.49.83,24.22,24.22,0,0,0,2.72,3.71c.18.09.54-.08.54-.24a2.07,2.07,0,0,0-.36-.53l-.66-.84c-.17-.21-.6-.7-1-1.09a3.75,3.75,0,0,1-.64-.8.07.07,0,0,0,0-.1h0c-.06,0-.12-.2-.15-.43a2,2,0,0,0-.25-.72,4.38,4.38,0,0,1-.57-1.79c0-.28-.07-.63-.1-.81A2.1,2.1,0,0,1,42.67,20c.12-.2,2.62-2.58,2.63-2.65a2.92,2.92,0,0,1,.67-.69c.42-.37.64-.64.63-.81s-.08-.22-.2-.22ZM31.92,25s0,.07,0,.2.07.29.13.31a1.74,1.74,0,0,1,.43.54,7,7,0,0,0,2.45,2.79c.7.43,1.26.2.93-.37a.81.81,0,0,0-.37-.26,8,8,0,0,1-2.34-2,3.9,3.9,0,0,0-.86-.86c-.09,0-.2-.11-.27-.24s-.08-.13-.1-.13Zm16.11.8,0,.34a3.46,3.46,0,0,0,.3.89c.14.31.37.9.51,1.31a3.73,3.73,0,0,0,.42,1,1.08,1.08,0,0,1,.09.82,7.93,7.93,0,0,0,0,1.38c0,.44.06,1.15.08,1.6a5.94,5.94,0,0,0,.43,2.2.38.38,0,0,1,0,.33.87.87,0,0,0,.07.53c.08.19.3.72.48,1.19a5.66,5.66,0,0,0,.48,1,1,1,0,0,1,.2.44,5.1,5.1,0,0,0,1,1.79.26.26,0,0,1,.16.18A8.09,8.09,0,0,0,53.79,43a10.67,10.67,0,0,0,3.06,2.45l1.35.8h-.85a8.12,8.12,0,0,1-6.6-3.39A11.21,11.21,0,0,1,49,39.7c-.37-.87-.8-1.83-.93-2.14a4.11,4.11,0,0,1-.3-1c0-.25-.12-.49-.21-.53s-.14-.14-.09-.21a2.45,2.45,0,0,0-.11-.89,19.79,19.79,0,0,1,.07-5.1A3,3,0,0,0,47.58,28c-.13-.33-.15-.34-.36-.18s-.32.46-.55,1.29a20.67,20.67,0,0,0-.4,4.9,2.7,2.7,0,0,0,.19.83,1.85,1.85,0,0,1,.15.57,19.49,19.49,0,0,0,.76,2.5c.08.22.23.67.34,1A15.13,15.13,0,0,0,49.14,42l1.55,2c.08.11,1.13,1.08,1.49,1.38l.3.25-.64-.11c-.61-.1-1.81-.74-1.8-1,0,0-.06-.11-.15-.11A9.66,9.66,0,0,1,48,42.33a10.45,10.45,0,0,1-1.43-2.17,7.71,7.71,0,0,0-.49-.89,3.49,3.49,0,0,1-.41-.79,3.65,3.65,0,0,0-.2-.64A18.47,18.47,0,0,1,45,35.52a11.13,11.13,0,0,1-.18-3.73c.14-2.06.1-2.24-.44-2a.56.56,0,0,1-.52,0c-.19-.13-.3-.08-.66.24a1.78,1.78,0,0,1-.52.39s-.1-.17-.13-.37-.1-.38-.16-.38A11.08,11.08,0,0,0,39.86,32a1.66,1.66,0,0,1-.34.49,1.77,1.77,0,0,0-.33.52,3,3,0,0,1-.41.63,1.7,1.7,0,0,0-.41.68.84.84,0,0,1-.12.31,4.15,4.15,0,0,0-.38.76,3.25,3.25,0,0,1-.38.77.54.54,0,0,0-.13.32,1.17,1.17,0,0,1-.22.51,1.94,1.94,0,0,0-.29.68,16.79,16.79,0,0,1-.74,2.38,15.7,15.7,0,0,0-.63,5.45c0,.38,0,.9.05,1.17a7,7,0,0,0,.06.8,6.69,6.69,0,0,1,.08.68,6.82,6.82,0,0,0,.59,2.13.4.4,0,0,0,.55.12.41.41,0,0,0,.15-.17,1.76,1.76,0,0,1,.42-.44c.22-.15.27-.36.35-1.24.06-.59.16-1.45.24-1.93s.19-1.2.25-1.6.2-1.16.3-1.69.25-1.35.3-1.81a3.15,3.15,0,0,1,.24-1,.67.67,0,0,0,.14-.36,30,30,0,0,1,1.12-3.72c.38-.93.82-1.77.91-1.68,0,.73,0,1.46,0,2.19-.12,2.21-.08,2.78.19,2.8s.38-.7.36-1.79a15.37,15.37,0,0,1,.72-4.14A8.78,8.78,0,0,1,43.63,31a3,3,0,0,1,.09,1,10.76,10.76,0,0,0,.07,2.27,2.51,2.51,0,0,1,.1.6,6.59,6.59,0,0,0,.35,2,9.26,9.26,0,0,1,.41,1.33,6.51,6.51,0,0,0,.71,1.39.37.37,0,0,1,.1.3.57.57,0,0,0,.18.4,3.61,3.61,0,0,1,.44.66,8.13,8.13,0,0,0,.57.87c.17.2.5.65.76,1A10.16,10.16,0,0,0,50,45.52s.19.12.3.26a1.47,1.47,0,0,0,.7.41l.79.31a14.91,14.91,0,0,0,3.64.61,8.19,8.19,0,0,1,1.85.06,8.29,8.29,0,0,0,3.83-.28,2.76,2.76,0,0,1,2.11,0,1.18,1.18,0,0,0,1.09.13c.2-.12.32-.12.41,0a.31.31,0,0,0,.44,0,.32.32,0,0,0,.08-.21c0-.13,0-.27-.08-.29a3.82,3.82,0,0,1-.44-.91c-.8-2.06-2.17-2.8-3.9-5s-3.22-4.2-5.3-6.89c-.31-.4-.5-.83-.59-.83a.16.16,0,0,1-.14-.16,9.12,9.12,0,0,0-1.19-1.87,1.2,1.2,0,0,1-.25-.42c0-.06-.12-.2-.29-.33s-.32-.21-.5-.05a.27.27,0,0,1-.39.06l0,0C52,30,51.83,30,51.78,30a2.44,2.44,0,0,0,0,1.39.81.81,0,0,1,0,.53,6.57,6.57,0,0,0,.49,2.6,12.23,12.23,0,0,1,.4,1.26c.12.44.33,1.1.46,1.46a3.84,3.84,0,0,1,.25.72,24.26,24.26,0,0,0,3.28,4.8l.48.49c.07.08.19.13.24.08s.06,0,0,.06,0,.24.23.38a9.25,9.25,0,0,1,.78.67,3.61,3.61,0,0,0,.84.61c.22.1.4.21.39.26s.19.14.41.2.44.19.47.29,0,.17-.15.1-.46-.17-.75-.26a11.44,11.44,0,0,1-5.25-3.1,19.42,19.42,0,0,1-2.82-4.74,13.77,13.77,0,0,1-1.22-5.28c-.17-2.72-.15-2.64-.47-2.78s-.31-.29-.39-.79a7.11,7.11,0,0,0-1.16-2.83Zm9.37,2.77c.25,0,.6,0,1.06.06,1.56.13,1.95.24,2.33.58a14.68,14.68,0,0,0,1.43,1.06,5.73,5.73,0,0,1,.63.47,4.81,4.81,0,0,0,.62.47c2,1.54,3.16,3.84,4.67,5.74.29.33.49.59.43.58s0,.19.18.41A13.45,13.45,0,0,1,70,40.65a4.48,4.48,0,0,0,.2.62,1.73,1.73,0,0,1,.15.55,1.53,1.53,0,0,0,.21.6,1.52,1.52,0,0,1,.19.75,9,9,0,0,0,.17,1.14,4.61,4.61,0,0,1,.13,1.11,1.74,1.74,0,0,0,.07.68,5.55,5.55,0,0,1,0,2.26s0,.2,0,.46a6.34,6.34,0,0,1-.25,2.37,2.84,2.84,0,0,0-.22.77V52A4.57,4.57,0,0,0,70,49.4a3.81,3.81,0,0,0-.7-.69C69.75,43,66,36.86,62.52,33c-.16-.2-.3-.34-.3-.31s-.15-.09-.32-.28-1-1-1.35-1.3a14.69,14.69,0,0,0-1.78-1.36.55.55,0,0,1-.25-.2,2.25,2.25,0,0,0-.75-.43c-.94-.38-1.1-.52-.37-.49Zm5.22.11.55,0a2.9,2.9,0,0,1,1.75.58,6.88,6.88,0,0,1,.91.61,6.18,6.18,0,0,0,.61.52,3.66,3.66,0,0,1,.73.74c.1.17.24.28.34.24s.18,0,.17.14a.38.38,0,0,0,.15.3,4.73,4.73,0,0,1,1,1.43.12.12,0,0,0,.11.14h0a.13.13,0,0,1,.11.15h0a1.78,1.78,0,0,0,.28.57c.15.23.25.42.2.42s0,.16.15.37a1.78,1.78,0,0,1,.23.43,2.69,2.69,0,0,0,.31.44,2.75,2.75,0,0,1,.45,1c.07.35.17.64.23.65s.09.1.08.21a1.84,1.84,0,0,0,.15.58.73.73,0,0,1,.1.42s0,.18.06.32a7.36,7.36,0,0,1,.19,2c0,.34,0,.38-.17.24a.83.83,0,0,1-.23-.42,14.58,14.58,0,0,0-1.1-2.61,14.91,14.91,0,0,1-1.12-1.72,22.61,22.61,0,0,0-4.61-5.74A12.43,12.43,0,0,1,62,28.92c0-.15.18-.22.64-.22Zm-28.43.48a2.2,2.2,0,0,0-.75.2c-.28.11-.5.17-.5.12s-.14,0-.32.18a1.24,1.24,0,0,1-.54.29.94.94,0,0,0-.43.25.57.57,0,0,1-.34.23.21.21,0,0,0-.23.18.19.19,0,0,0,.08.19c.13.09.1.12-.09.12a1.83,1.83,0,0,1-.33,0,.07.07,0,0,0-.1,0v0c0,.06-.11.13-.25.16s-.22.12-.18.36.07.3.26.22a2.57,2.57,0,0,0,.44-.29.75.75,0,0,1,.37-.2.83.83,0,0,0,.34-.13,10.6,10.6,0,0,1,2.59-1c.52-.09.65-.16.67-.36a.6.6,0,0,0-.13-.4.57.57,0,0,0-.35-.16h-.21ZM52.25,30.4s.06,0,.13.09a.55.55,0,0,1,.18.31,2,2,0,0,0,.39.65,10.55,10.55,0,0,1,.64.93c.14.23.31.42.4.43a.14.14,0,0,1,.14.16,1.09,1.09,0,0,0,.24.48,1.38,1.38,0,0,1,.28.48,1.48,1.48,0,0,0,.28.45c3.28,3.83,4.93,7.2,9.1,11.27.33.7.31.79-.16.64s-1.18-.42-2-.73a3.39,3.39,0,0,1-.82-.48,4.52,4.52,0,0,0-1-.55A4.33,4.33,0,0,1,59.2,44c-.21-.18-.38-.31-.38-.27a1.81,1.81,0,0,1-.44-.39,5.23,5.23,0,0,0-.8-.68,1.58,1.58,0,0,1-.51-.52c-.07-.16-.19-.3-.27-.31a1,1,0,0,1-.35-.34c-.12-.17-.4-.54-.62-.82a5,5,0,0,1-.78-1.1,2.86,2.86,0,0,0-.3-.54,9.16,9.16,0,0,1-1.1-2.4,1.74,1.74,0,0,0-.19-.54,3.33,3.33,0,0,1-.26-.77,6.28,6.28,0,0,0-.27-.87,20.72,20.72,0,0,1-.69-3.49c0-.35,0-.5,0-.51ZM41.36,31.73a5.58,5.58,0,0,1-.81,2.08,7.8,7.8,0,0,0-.77,2,2.12,2.12,0,0,1-.29.63c-.11.14-.15.26-.1.26s0,.07,0,.14a.31.31,0,0,0-.09.3.21.21,0,0,1-.14.24.38.38,0,0,0-.22.38,18.66,18.66,0,0,1-.49,2.06c-.26,1-.54,2.18-.62,2.71s-.18,1.3-.25,1.7-.14.93-.18,1.18,0,.46.06.47.09,0,0,.09-.32.86-.42,2.11-.45,1-.68-.38a26.47,26.47,0,0,1,.48-6.94c.15-.6.34-1.35.42-1.69a8.13,8.13,0,0,1,1-2.45,4.64,4.64,0,0,0,.41-.8,12.84,12.84,0,0,1,.67-1.46,8.12,8.12,0,0,1,1.3-2,3.1,3.1,0,0,1,.74-.66Zm2.3,14.21h0a4.16,4.16,0,0,0-1.6.37c-1.06.46-1.34.89-1,1.46.17.27.31.22.83-.29A1.88,1.88,0,0,1,43,47a6.21,6.21,0,0,1,2.64.18.21.21,0,0,0,.2.13,2.06,2.06,0,0,1,.59.34,2.94,2.94,0,0,0,.8.43,2.17,2.17,0,0,1,.67.36,2.53,2.53,0,0,0,1.41.47c.18,0,.21-.25.09-.46a4.78,4.78,0,0,0-.84-.57c-.43-.24-1-.59-1.28-.77a6.46,6.46,0,0,0-3-1.15,5.15,5.15,0,0,0-.56,0Zm18.47,1.93a1.55,1.55,0,0,0-.74.1c-.1.08-.19.1-.18.06s-.21,0-.47.12a4.48,4.48,0,0,1-.88.27,2.79,2.79,0,0,0-.75.21,2,2,0,0,1-.47.14,1.45,1.45,0,0,0-.84.68c-.08.44,0,.47.52.23a4.32,4.32,0,0,1,1.23-.34A12.16,12.16,0,0,0,61,49.05a3.16,3.16,0,0,1,2.8.29,2,2,0,0,0,.84.37c.24-.12.12-.48-.29-.9-.24-.24-.46-.42-.5-.4s-.19-.08-.31-.2a2.73,2.73,0,0,0-1.42-.33Zm6.78,1.94c1.07,1.49.79,3.56.26,5.44,0,0,0,0,0,0l0,.17c-.28,1-.62,1.86-.86,2.58-.12.33-.2.53-.28.76a4.43,4.43,0,0,1,.06-.51c0-.57,0-1.32-.06-2.1l.08-.1a9.59,9.59,0,0,0,1-2.79c.1-.34-.11-.53-.22-.76a.78.78,0,0,0-.56-.55,5.36,5.36,0,0,0-.57.34c0,.1,0,.2,0,.3-.08-.39-.15-.71-.2-1a4,4,0,0,1,1.12-1.75.94.94,0,0,1,.28-.1Zm-35.2.77a.93.93,0,0,1,.29.05A4.25,4.25,0,0,1,35.74,53c.07.37-.06.42-.43.16-.17-.12-.29-.12-.55,0s-.31.24-.28.3a.1.1,0,0,1,0,.13l0,0c-.27.07-.18.63.21,1.4s.72,1.25,1,1.45c.62.39.45-.5-.26-1.34-.57-.68-.64-.87-.39-1.09s.25-.07.54.1a.75.75,0,0,1,.44.66c0,.43.43,2.17.84,3.78.24.93.24,1.09.06,1-.53-.15-.56-.2-1.87-2.48-.92-1.7-3.59-5.25-1.31-6.6ZM61,51.2a5.38,5.38,0,0,0-3.81,1.74c-.12.34.72,1.27,1.63,1.8,1.42.83,1.93.8,5.09-.32a2,2,0,0,0,1.08-1c.15-.3.12-.36-.38-1a2.09,2.09,0,0,0-1-.76c-.26-.07-.56-.16-.65-.2s-.7-.16-1.35-.28a3,3,0,0,0-.31,0l-.28,0Zm-16,.06A5.08,5.08,0,0,0,41.35,53c-.43.31,0,.75.28,1a4.78,4.78,0,0,0,2.5,1.26,3.88,3.88,0,0,0,2.11-.4c1-.41,2.28-.68,2.68-1.82a2.57,2.57,0,0,0-1.06-1.21A7.8,7.8,0,0,0,45,51.26Zm10.26.05a2.85,2.85,0,0,0-1.08,1,6.2,6.2,0,0,0-.41,2.45,5.12,5.12,0,0,0,.88,3.13A5.46,5.46,0,0,1,55.51,60c.08.17.24.59.47.45,0-.23.29-.4.32-.6a17.26,17.26,0,0,0-.67-2c-.22-.51-.51-1-.71-1.53a2.47,2.47,0,0,1-.39-1.69c.06-.65.09-1.32.2-2,.2-.45.61-.85.63-1.36a.1.1,0,0,0-.1-.06Zm-9.78.8c.29,0,.58.11.87.17.51.16,1.27.22,1.5.79-.31.65-1.15.7-1.72,1-.12,0-.57.29-.47,0a2.31,2.31,0,0,0-.18-1.94Zm16.15,0,.32.08a4,4,0,0,1,1.81.73c.25.27.2.37-.22.64-.22.13-.38.2-.38.15s-.12,0-.28.09a6.28,6.28,0,0,1-1.2.33,1.79,1.79,0,0,0,.28-.85,1.82,1.82,0,0,0-.33-1.17Zm-2.94.77a.17.17,0,0,1,.15,0,.61.61,0,0,0,0,.14,1.18,1.18,0,0,0,0,.46c0,.06,0,.08-.07.08a.75.75,0,0,1-.31-.18.3.3,0,0,1-.13-.4.32.32,0,0,1,.34-.15Zm-16.13.13c.26,0,.21.34.22.5s-.15.4-.31.2c-.33-.14-.32-.71.09-.7Zm25.73.1c.1,0,.19.1.23.29.06.57-.38,1-.56,1.41v0c0-.25,0-.51,0-.74a5.56,5.56,0,0,0-.08-.82.75.75,0,0,1,.45-.16ZM56.7,61.37a.3.3,0,0,0-.36.22.22.22,0,0,0,0,.08c0,.3-.19.7-.4.71A6.5,6.5,0,0,0,54.56,62c-.53,0-1,.35-1.23.38s-.85-.19-1.4-.21a2.41,2.41,0,0,0-1.15.28.73.73,0,0,1-.5-.09,1,1,0,0,0-.57-.1c-.2.07-.22.08,0,.24.29.62.67.9,1.7.71a.2.2,0,0,0,.23,0,.73.73,0,0,1,.74.06.79.79,0,0,0,.8.05,2.17,2.17,0,0,1,.43-.08,4.58,4.58,0,0,0,.66-.19c.33-.13.46-.14.58,0,.54.16.4.31,1.19.18a1.45,1.45,0,0,0,.9-1.22c0-.31,0-.53-.13-.58l-.08,0Zm-9.61,5.47a.26.26,0,0,0-.25.13c-.08.17.37.72.59.74a13.13,13.13,0,0,0,2.73,1.23,7.42,7.42,0,0,0,3.7.44c1,.13,2.42-.85,3.59-1.42.32-.16,1-.84.9-.89a.41.41,0,0,0-.18,0,3.67,3.67,0,0,0-1.36.14c-1.76,2-5.07,1.78-7.16.7a7,7,0,0,0-2.56-1ZM40.51,69.1c1.57,1.81,1.94,2.78,4.22,4.92,2.07,1.73,6.13,3.47,8.32,3.36s3.13-.51,5.79-2.56c.1,0-.09.73-.14.88A12.66,12.66,0,0,0,59,84.94a34.27,34.27,0,0,1-4.46,6c-1.7,1.8-3.07,3.8-5.48,2a22.26,22.26,0,0,1-4.71-3.72,33.28,33.28,0,0,1-4.27-5.67,16.61,16.61,0,0,0,1.31-6.18c.14-2.9-.62-6-.65-7.08ZM54.59,70a4.56,4.56,0,0,0-1,.19,5.78,5.78,0,0,1-2.92.06,3,3,0,0,0-1-.09c-.2.17.71.67,1.45.79s2.88.53,3.71-.68c0-.19-.06-.25-.26-.27ZM37.76,82.15c.12,0,.33.12.65.42s.33.62.51.94a1.38,1.38,0,0,0,.14.27,36.36,36.36,0,0,0,3.18,4.93,37.13,37.13,0,0,0,5,4.29c3.28,2.34,3.67,2.66,6.83-.23a34,34,0,0,0,2.37-2.58c.77-1,1.55-2.08,2.24-3.08a24.24,24.24,0,0,0,1.49-2.69c.27-1,1-.36.51.39a34.7,34.7,0,0,1-6.3,9.07c-1.48,1.56-2.8,2.68-4.08,2.66-1.94,0-3.81-2-6.11-4.34a33.8,33.8,0,0,1-6.34-8.85c-.26-.55-.38-1.18-.09-1.2Z"/></g></g></g></svg>