<svg xmlns="http://www.w3.org/2000/svg" viewBox="0 0 49.6 49.6"><defs><style>.cls-1{fill:#e3eaea;}.cls-2{fill:#edf1f1;}.cls-3{fill:#b69564;stroke:#b69564;}.cls-4{fill:#633;}.cls-5{fill:#f1e5d2;}.cls-6{fill:#df9996;}.cls-7{fill:#eebaa7;}.cls-8{fill:#c17e7e;}.cls-9{fill:#322722;}</style></defs><g id="圖層_2" data-name="圖層 2"><g id="_0-ori" data-name="0-ori"><g id="圖層_2-2" data-name="圖層 2"><g id="圖層_1-2" data-name="圖層 1-2"><g id="Outline"><path id="Path_64394" data-name="Path 64394" class="cls-1" d="M48.9,24.8A24.1,24.1,0,1,1,24.8.7,24.1,24.1,0,0,1,48.9,24.8Z"/><path id="Path_64395" data-name="Path 64395" class="cls-2" d="M27.6,3.5A24.11,24.11,0,0,0,9.3,43.3,24.13,24.13,0,0,0,43.1,9.1,24.62,24.62,0,0,0,27.6,3.5Z"/><path id="Path_64396" data-name="Path 64396" class="cls-3" d="M24.8.5A24.3,24.3,0,1,0,49.1,24.8h0A24.34,24.34,0,0,0,24.8.5Zm0,.4A23.9,23.9,0,1,1,.9,24.8,23.9,23.9,0,0,1,24.8.9Z"/></g></g></g><path class="cls-4" d="M25.6,7.91h-.7c-.7.1-1.6-.2-2.2.3-.3.4-.9.2-1.3.2a5.36,5.36,0,0,0-4.5,1.4,7.81,7.81,0,0,0-2.2,3.7c-.5,1-.4,2.2-.9,3.3-.1.4-.3.1-.5-.1-.2,0-.1.4,0,.5.2.5-.2.8-.5,1.1a6.81,6.81,0,0,0-1.5,2.6c-.2,1.4.8,2.6,1.3,3.8s1.4,2.4,1,3.8c-.4.8-1.4,1.1-1.9,1.9a3.89,3.89,0,0,0,.1,3.9,10.34,10.34,0,0,1,1.6,4.1,2.53,2.53,0,0,1-1.2,2.4c-.3.3-.8.2-1.2.5,0,.1.4.1.5.2a1.94,1.94,0,0,0,1.3.3,4.35,4.35,0,0,0,2.1-.9c.3-.1.3.4.4.6a.55.55,0,0,1-.3.8c-.1.1-.5.2-.3.3.4.2.8-.3,1.2-.3a1.91,1.91,0,0,0,1,.5c.5,0,1.2.2,1.7-.1.2-.4-.3-.9-.1-1.3a21.12,21.12,0,0,1,1.8-3.3c.3-.2.6.1.9.2a8.71,8.71,0,0,0,6.9,0c.3,0,.6-.4.8-.2-.1.5-.3.9-.4,1.4a5.58,5.58,0,0,1-1.4,2c-.2.2.1.2.2.1A7.2,7.2,0,0,0,29.9,39c.2-.3.2-.7.5-.8a2.92,2.92,0,0,1,.7,1.2,2.87,2.87,0,0,1,.2,2.4c-.1.2-.4.7,0,.8s.8-.3,1.2.1,1-.3,1.3-.7a5.67,5.67,0,0,0,1.3-2.7c.1-.3-.1-.8.3-.7a1.68,1.68,0,0,0,1.9-.9c.1-.1.2-.5,0-.4-.4.3-1.2.2-1.2-.4-.2-1.4.8-2.5,1.4-3.6a5.66,5.66,0,0,0,.8-2.8,11.11,11.11,0,0,0-1-2.9c-.5-1.1.3-2.3.3-3.4s.3-2.5-.2-3.7c-.1-.4-.5-.8-.4-1.2a.37.37,0,0,0,0-.6A8.08,8.08,0,0,1,35.9,16a11.33,11.33,0,0,0-2.5-5.3,9.94,9.94,0,0,0-3.8-2.6c-1.5-.1-2.8-.1-4-.2Z"/><path class="cls-5" d="M23.3,11.81a3.36,3.36,0,0,0-1.6,1c-.7.8-1.3,1.8-2,2.6a6.11,6.11,0,0,0-.7,2.4,5.5,5.5,0,0,1,.9.7c.1.2.4.4.6.1.4-.3.9-.8,1.4-.6a2.37,2.37,0,0,1,1.3,1.3,9.85,9.85,0,0,1,1.7.2c.4,0,.4-.5.7-.7a1.4,1.4,0,0,1,1.8-.4c.3.1.6.5.9.5.3-.2.7-.6,1.1-.5.2-.1,0-.5.1-.7a4.39,4.39,0,0,0-.9-2.7,11.13,11.13,0,0,0-3.8-2.2c-.6-.3-1-.8-1.5-1Zm.5,7.8c-.6,0-.8.7-1.1,1.1a13.94,13.94,0,0,1-2.3,2.5c-.4.3-.6-.3-.9-.5A20.41,20.41,0,0,1,17.2,20c-.3-.3-.7.1-.6.4a10.18,10.18,0,0,0,.3,3.5c.4,1.7.7,3.6,2,4.9a8.39,8.39,0,0,0,5.3,2.8c1.7.1,3-1,4.3-2A9.79,9.79,0,0,0,30.9,27a10.86,10.86,0,0,1,.4-2.5,10.82,10.82,0,0,0,.5-3.6c0-.5-.5-.7-.9-1-.3.1-.3.5-.5.7a8.5,8.5,0,0,1-2.3,2.7,18.57,18.57,0,0,1-2.7-2.9,1.44,1.44,0,0,0-1.1-.9.75.75,0,0,1-.5.1Zm-8.1,0c-.6,0-.8.8-.6,1.3l.9,2.7a1.79,1.79,0,0,0,.5.7c.2-.2,0-.5,0-.8-.2-1.2-.1-2.4-.3-3.6-.1-.3-.3-.3-.5-.3Zm9,1.8h0a3.71,3.71,0,0,0,.4,1.5c.2.6.7,1.2.6,1.8-.1.4-.6.2-.9.3a8.13,8.13,0,0,1-2.2.1.82.82,0,0,1-.2-1.2c.1-.1.4-.1.2.1s-.1.8.3.8a4.88,4.88,0,0,0,1.7-.1c.3-.1.7.1.9-.1a5.64,5.64,0,0,0-.4-1.2,2.53,2.53,0,0,1-.4-2Zm2,5.2h0c.2.2-.2.4-.3.5a6.58,6.58,0,0,1-1.5,1.4c-.7,0-1.5.2-2-.4a8.32,8.32,0,0,0-1.8-1.3c-.1-.1-.4-.3-.1-.2.7.2,1.4.7,2.1.6a16.15,16.15,0,0,0,2.2,0c.4,0,.9-.4,1.4-.6Zm1.3,4c-1.1.6-2.2,1.5-3.5,1.5s-2.6-.7-3.9-1.1c-.3.1,0,.5,0,.7a12.35,12.35,0,0,1,.2,4.3.52.52,0,0,0,.3.7,7.58,7.58,0,0,0,3.6.8,8.65,8.65,0,0,0,4.2-1.3c.3-.2-.1-.6-.1-.8-.3-1-.8-1.9-1-2.9a3.23,3.23,0,0,1,.3-1.7c.1-.2,0-.2-.1-.2Z"/><path class="cls-6" d="M18.8,18.21c-.4.1-.3.6-.6.7l-.9.6a10.18,10.18,0,0,0,2.6,3.2.49.49,0,0,0,.7-.1,11,11,0,0,0,2-2.3,1.51,1.51,0,0,0-.3-1.7.8.8,0,0,0-1.1-.2,4.81,4.81,0,0,0-1.1.9c-.3-.5-.6-1.1-1.3-1.1Zm7.8.3a1.08,1.08,0,0,0-1,1.5c.3,1.1,1.3,1.8,2.1,2.6.2.1.4.4.6.2a6.8,6.8,0,0,0,2.1-2.9c-.1-.5-.5-.8-.7-1.2s-.8,0-.8.4c.1.1.2.2.1.4a24.26,24.26,0,0,1-1.4,2c-.1.1-.4.4-.3.1.3-.8,1-1.4,1.3-2.2-.2-.2-.5.1-.7-.1a1.65,1.65,0,0,0-1.3-.8Zm-7.5.5a2.59,2.59,0,0,1-.7,1.1c-.2.1-.2-.3-.1-.3a2,2,0,0,1,.8-.8Zm2.3,0c.1.1-.1.3-.2.4-.6.7-1.1,1.4-1.7,2.1-.2.1-.1-.2,0-.3A16.29,16.29,0,0,1,21.2,19Zm5.4.3a3,3,0,0,1-.4.8c-.2,0-.2-.4,0-.4.1-.2.2-.4.4-.4Zm-7,.1c.1.1-.2.3-.2.5-.3.3-.5.8-.9,1-.1-.3.2-.5.3-.7a6,6,0,0,1,.8-.8Zm9.8.3c.2.1,0,.4-.1.5a9,9,0,0,1-1.4,2c-.1.1-.4-.1-.2-.3.6-.7,1-1.5,1.7-2.2Zm-2,.1h0c.2,0,0,.2-.1.3s-.3.7-.7.7c0-.4.4-.7.6-1Zm-5.6,0a8.78,8.78,0,0,1-1.2,1.5c-.2.1-.4.4-.5.4,0-.3.4-.5.5-.8a13.07,13.07,0,0,1,1.2-1.1Z"/><path class="cls-7" d="M22.7,27.71c-.3,0,0,.3.1.3a2.65,2.65,0,0,0,2.3,0c.2-.1.1-.4-.1-.3a5.93,5.93,0,0,1-2.3,0Z"/><path class="cls-8" d="M28.9,36.61a8.26,8.26,0,0,1-5.3,1.1,12.9,12.9,0,0,1-2.8-.8c-.3,0-.2.5-.4.7,0,.3.5.3.8.4a10.19,10.19,0,0,0,5.2.4,6.91,6.91,0,0,0,2.5-1,2.35,2.35,0,0,0,.2-.8c-.1.1-.1,0-.2,0Z"/><path class="cls-8" d="M28.9,36.61a8.26,8.26,0,0,1-5.3,1.1,12.9,12.9,0,0,1-2.8-.8c-.3,0-.2.5-.4.7,0,.3.5.3.8.4a10.19,10.19,0,0,0,5.2.4,6.91,6.91,0,0,0,2.5-1,2.35,2.35,0,0,0,.2-.8c-.1.1-.1,0-.2,0Z"/><path class="cls-9" d="M23.8,7.81c-.2,0-.3,0-.3.1a.14.14,0,0,1-.2,0c-.2-.1-.7.3-.8.5h-.1c-.1.1-.3,0-.7-.1a5.5,5.5,0,0,0-5.3,2c-.1.1-.3.3-.3.4a.31.31,0,0,0-.1.2.1.1,0,0,1-.1.1,6.28,6.28,0,0,0-.8,1.5,2.39,2.39,0,0,1-.3.7,4.41,4.41,0,0,0-.5,1.9v.3a4.33,4.33,0,0,0-.1.5c-.1.5-.1.7-.2.7l-.1.1c0,.1-.1.2-.1.3l-.1.2-.2-.3c-.1-.2-.2-.3-.3-.1a.45.45,0,0,0,0,.5l.1.3-.1.3a1.44,1.44,0,0,0-.2.3l-.2.2c-.1.1-.2.2-.2.3s-.2.3-.3.4-.2.4-.3.4a1.38,1.38,0,0,0-.3.4c-.1.2-.2.3-.2.4s-.1.2-.2.4a6.6,6.6,0,0,0-.1,1.4,6.46,6.46,0,0,0,.9,1.9,9.22,9.22,0,0,1,.5.8c.1.2.3.5.4.7l.2.4a6,6,0,0,0,.3.7,1.82,1.82,0,0,1,.3,1.1,1.45,1.45,0,0,1-.6,1.4,4.17,4.17,0,0,1-.8.6,1.65,1.65,0,0,0-.8,1,3.86,3.86,0,0,0-.2,2.8,3.39,3.39,0,0,0,.3.8,9.4,9.4,0,0,1,1.5,3.2,3.54,3.54,0,0,1,.1.6,3.67,3.67,0,0,1-.1,1.8c-.2.4-.5.9-.7.9a.31.31,0,0,0-.2.1H12c0,.1-.3.2-.6.2-.1,0-.3,0-.3.1l-.1.1a.1.1,0,0,0-.1.1c0,.1.1.1.6.2h.1a.1.1,0,0,1,.1.1l.1.1h.1a4.15,4.15,0,0,0,1.3.1,4.59,4.59,0,0,0,1.4-.7c.3-.3.4-.3.4-.1a1.69,1.69,0,0,0,.2.5c.1.3.2.4.1.5a3.51,3.51,0,0,1-.8.5c-.1,0-.1.2.1.2s.2.1.5,0a.52.52,0,0,0,.4-.2c.2-.2.3-.2.6.1l.2.2a.1.1,0,0,1,.1.1c0,.1.2.1.4.1a3.75,3.75,0,0,1,1,.1c.5,0,.5,0,.7-.1s.2-.3.1-.5a1.67,1.67,0,0,1,0-1.4,7.46,7.46,0,0,1,.9-1.5c.1-.1.1-.1.1-.2a3.33,3.33,0,0,1,.3-.6v-.1a1.44,1.44,0,0,1,.2-.3c0-.1.1-.2.1-.3h0c2.4.9,4.7,1.8,8.4-.1,0,.1,0,.1-.1.2a2,2,0,0,0-.1.5A8.34,8.34,0,0,1,28,40c0,.1-.1.2-.2.3s-.3.4-.6.7-.5.5-.5.6.1.2.7-.2A5.84,5.84,0,0,0,29,40l.2-.2a7.62,7.62,0,0,0,.7-1.3c.1-.4.2-.4.3-.3a10.08,10.08,0,0,1,.9,1.8,2.53,2.53,0,0,1-.3,2c-.3.3,0,.6.5.6a4.71,4.71,0,0,0,1.5-.6,2.58,2.58,0,0,0,.9-2.1v-.8a1,1,0,0,1-.1-.4,4.33,4.33,0,0,0-.1-.5.31.31,0,0,1-.1-.2,9.13,9.13,0,0,0-.8-1.3l-.1-.1a1.69,1.69,0,0,0-.2-.5,2.86,2.86,0,0,1-.4-1.7c0-.7,0-.8.2-1.1a6.31,6.31,0,0,0,.4-.9c0-.1.2-.3.3-.5a11.34,11.34,0,0,0,.8-1.9,1,1,0,0,1,.1-.4,1.39,1.39,0,0,0,0-.9c0-.1-.1-.2,0-.2a.49.49,0,0,0-.1-.3.6.6,0,0,1-.1-.4v-.2c0-.1-.1-.2-.2-.4a8.33,8.33,0,0,1-.4-1.5A2,2,0,0,1,33,25c.4-1.3,1-2.6.4-3.7a1.13,1.13,0,0,0-.6-.6.31.31,0,0,1-.2-.1l-.4-.2-.6-.3c0-.1-.2-.2-.3-.2a2.79,2.79,0,0,1-1-.8.85.85,0,0,1-.3-.5,7.43,7.43,0,0,1-.3-1.8,7.49,7.49,0,0,0-.4-1.6,6.69,6.69,0,0,0-2.8-2.1c-.2-.1-.3-.2-.4-.2a1.69,1.69,0,0,1-.5-.2,4.61,4.61,0,0,1-1-.5.75.75,0,0,1-.3-.3,4.89,4.89,0,0,1-1.2-1.3l-.2-.4a.35.35,0,0,1-.1-.2c-.2-.4,0-.2.4.3a3.24,3.24,0,0,0,.9.8c.2.1.5.4.7.5s.4.3.6.4a1.24,1.24,0,0,1,.3.2,1.44,1.44,0,0,1,.3.2.76.76,0,0,0,.4.2.35.35,0,0,1,.2.1c.1,0,.2,0,.2.1a4.08,4.08,0,0,1,.7.2,5,5,0,0,1,1.3.5c1.1.5,1.2.6,1.5,1.2a3.81,3.81,0,0,1,.3,1.8,5.35,5.35,0,0,0,.4,1.6,1.8,1.8,0,0,0,.8.9,1.44,1.44,0,0,1,.3.2.77.77,0,0,0,.3.1h.1l.1.1a3.33,3.33,0,0,1,.6.3l.1.1c.3,0,1,.7,1.1,1.2a3.55,3.55,0,0,1,.1,1.5,2.35,2.35,0,0,1-.2.8,11.43,11.43,0,0,0-.5,2.4,2,2,0,0,0,.2,1.2,4.71,4.71,0,0,1,.2.5A4.65,4.65,0,0,1,35,29a4.31,4.31,0,0,1-1,3,2.18,2.18,0,0,1-.4.5,2.19,2.19,0,0,0-.3.5,3.19,3.19,0,0,0-.6,1.7,1.72,1.72,0,0,0,.1.8,5.85,5.85,0,0,0,1,1.7,4.59,4.59,0,0,1,.7,1.4,3.23,3.23,0,0,1-.3,2.3,3,3,0,0,1-.7,1.1c-.6.6-.6.7-1.1.9a.35.35,0,0,0-.2.1c0,.1.3.2.4.2a.35.35,0,0,1,.2-.1H33a3,3,0,0,0,.9-1c.1-.1.2-.3.3-.4a4.36,4.36,0,0,0,.7-2.1v-.5h.8a1.89,1.89,0,0,0,1.4-.7c0-.1.1-.2.2-.3a.37.37,0,0,0,.1-.3c0-.1,0-.1-.2-.1s-.2.1-.3.1a.8.8,0,0,1-.8-.1c-.2-.1-.2-.4-.2-1a3.26,3.26,0,0,1,.7-1.8,8.71,8.71,0,0,0,1-1.9.76.76,0,0,1,.2-.4,5,5,0,0,0,.3-1.3,6.59,6.59,0,0,0-.9-2.8v-.1c0-.1-.1-.6-.2-.6a3,3,0,0,1,.1-1.6.75.75,0,0,0,.1-.5,4.33,4.33,0,0,0,.1-.5c0-.8.2-1.5.2-2.4a5.59,5.59,0,0,0-.8-2.9c-.1,0-.1,0,0-.1s.1-.1,0-.1h.1c.1,0,.1,0,.1-.1s0-.3-.3-.4c-.1,0-.2-.1-.3-.4a39.9,39.9,0,0,1-1.3-4.2,7.26,7.26,0,0,0-.5-1.2,6.17,6.17,0,0,0-1.5-2.2,10.58,10.58,0,0,0-3.4-2.5,9.93,9.93,0,0,0-2.5-.4h-.6a13.42,13.42,0,0,1-2.1-.1.62.62,0,0,0-.6-.4Zm.2.4a2.18,2.18,0,0,0,.6.1,6.22,6.22,0,0,0,1.6.1h2a1.34,1.34,0,0,1,.5.1,2.24,2.24,0,0,1,1,.3,15.39,15.39,0,0,1,3.2,2.3,2.7,2.7,0,0,1,.7.8,15.05,15.05,0,0,1,1,1.7c0,.1.1.1.1.2a.31.31,0,0,0,.1.2c.1.1.1.3.4,1.5.2.9.2,2.6,0,2.6l-.4-.2c-.4-.3-.4-.3-.4-.5a4.14,4.14,0,0,0-.1-1,7.58,7.58,0,0,0-5-6.6c-.1,0-.2-.1-.3-.2a3.69,3.69,0,0,0-1.7-.4,1,1,0,0,1-.4-.1c-.1,0-.4-.1-.6-.1a3.54,3.54,0,0,1-.6-.1c-.1,0-.2-.1-.4-.1a1.9,1.9,0,0,1-.9-.3l-.4-.2c-.1,0-.1-.2,0-.1Zm-2.9.4a1.44,1.44,0,0,1,.9.2c.1.1.1.6,0,.6h-.7a3.75,3.75,0,0,0-1.1.1,5.31,5.31,0,0,0-3.1,2.4c-.9,1.3-.9,3.7-2,4.7a.35.35,0,0,0-.1.2c0,.1-.1.2-.1.3s-.2.1-.5.1h-.2a4.17,4.17,0,0,1,.2-.6c.1,0,.2-.6.3-1.1,0-.2.1-.5.1-.7a4.33,4.33,0,0,1,.1-.5,2.07,2.07,0,0,1,.2-.6,1.85,1.85,0,0,0,.2-.7c.2-.5.5-1.1.5-1.1l.6-.9a1.44,1.44,0,0,0,.2-.3l.3-.3a4.72,4.72,0,0,1,3.7-1.7.75.75,0,0,1,.5-.1Zm2.4.2a5.87,5.87,0,0,1,1.8.4c.8.2,1.5.3,1.5.3a10.5,10.5,0,0,1,1.3.2,9.75,9.75,0,0,1,1.4.6l.1.1a5.2,5.2,0,0,1,.5.3A5.76,5.76,0,0,1,32.2,14a6.72,6.72,0,0,0,1.5,3.3c.1.2.3.3.3.4a2.2,2.2,0,0,0,.6.5,4.35,4.35,0,0,1,.7.4c0,.1,0,.1-.4-.1a4.58,4.58,0,0,1-1.7-1l-.1-.1a5.69,5.69,0,0,1-1.2-1.7c0-.2-.2-.5-.2-.4h0a11.15,11.15,0,0,0-.6-2.3c-.2-.5-.5-1-.6-1h0c0-.1-.4-.4-.4-.4h0a.35.35,0,0,0-.2-.1.35.35,0,0,1-.2-.1c0-.1-.7-.4-.8-.3h0c0-.1-.3-.2-.7-.3a9.64,9.64,0,0,1-1.2-.2,7.72,7.72,0,0,1-1-.1,8.65,8.65,0,0,1-1.7-.7,2.44,2.44,0,0,1-.9-.8.1.1,0,0,0-.1-.1l-.1-.1Zm-.7,0h.1a.37.37,0,0,1,.1.3c0,.2.7.9.9,1a5.69,5.69,0,0,0,2.4.8,10.53,10.53,0,0,1,2,.3l.6.2c.1,0,.2.1.3.1s.2.1.3.2l.1.1h.1l.2.2a2.42,2.42,0,0,1,.8,1.3c.1.2.1.5.2.6a10.38,10.38,0,0,1,.4,1.3,1,1,0,0,0,.1.3v.2a4.56,4.56,0,0,0,1.1,1.8l.6.6c.2.2.4.4.5.4a1.23,1.23,0,0,1,.5.8c.1.3,0,.4-.1.3s-.3-.2-.9-.6c-.1-.1-.3-.1-.4-.2a6.66,6.66,0,0,1-.7-.3l-.1-.1a.22.22,0,0,1-.2-.2c0-.1-.1-.2-.2-.3a1.44,1.44,0,0,1-.2-.3.31.31,0,0,0-.1-.2,3,3,0,0,1-.2-1.3c0-.1-.1-.7-.1-1a4.35,4.35,0,0,0-1-1.6,7.56,7.56,0,0,0-2.2-1,5.14,5.14,0,0,1-2.1-1c-.1-.1-.2-.2-.3-.2a.35.35,0,0,0-.2-.1c-.1-.1-.1-.1-.2-.1h-.1a1.24,1.24,0,0,0-.3-.2c-.1-.1-.3-.1-.3-.2l-.2-.2a10,10,0,0,1-1.4-1.6c.2,0,.2,0,.2-.1Zm-.9,1c.3,0,.3,0,.4.2a1,1,0,0,0,.1.3c0,.1,0,.1.1.1s.1.3,0,.3a5.09,5.09,0,0,0-1.1.4.37.37,0,0,1-.3.1c-.1,0-.2.1-.7.5-.8.6-2.9,4.4-3.8,4.5a3,3,0,0,1,.7-1.6c.3-.4.6-1,.9-1.4.5-.7.8-1.1,1.1-1.5s.9-.7,1-.8a1,1,0,0,1,.3-.1,2,2,0,0,1,1.1-.3c.6-.1.6-.1.6-.2s-.1-.1-.5-.1a3,3,0,0,0-2,.7,1.38,1.38,0,0,0-.4.3c0,.1-.2.2-.3.3a5.08,5.08,0,0,0-1.2,1.6c-.4.9-1.2,1.7-1.5,2.6a4.33,4.33,0,0,0-.1.5.6.6,0,0,1-.1.4,1,1,0,0,1-.7.4q-.3,0,0-.3c.9-1.3.8-2.2,1.3-3.5v-.1c0-.1.1-.2.2-.4a.49.49,0,0,0,.1-.3.31.31,0,0,1,.1-.2.31.31,0,0,0,.1-.2.1.1,0,0,1,.1-.1c.1,0,.2-.3.5-.6a5.18,5.18,0,0,1,4-1.5Zm.7,1.3a.75.75,0,0,1,.3.3l.2.3-.3.1c-1.6.5-2.7,2.5-3.6,3.9a1.44,1.44,0,0,0-.2.3v.1a10.59,10.59,0,0,1-1.5,1.6,3,3,0,0,1-1.9.6,2.51,2.51,0,0,1-1-.1c-.3-.1-.3-.1-.3-.2s.1-.1.3-.1a4.8,4.8,0,0,0,1.5-.4.76.76,0,0,1,.4-.2.35.35,0,0,0,.2-.1.1.1,0,0,1,.1-.1c.1,0,.2-.1.3-.2a1.44,1.44,0,0,1,.3-.2.1.1,0,0,0,.1-.1.1.1,0,0,1,.1-.1v-.2s.2-.1.2-.2a.1.1,0,0,1,.1-.1c1-1.3,2.1-2.8,3-3.8a2,2,0,0,1,.7-.6,4.71,4.71,0,0,0,.5-.2,1.46,1.46,0,0,1,.5-.3Zm9.1.7h0a3.57,3.57,0,0,1,1,1.1,6.37,6.37,0,0,1,1.2,3.4V17c0,.1-.1.1-.1,0s-.1-.2-.5-.7a4.54,4.54,0,0,1-.8-2.3,8.34,8.34,0,0,0-.4-1.2.37.37,0,0,1-.1-.3.35.35,0,0,1-.1-.2.31.31,0,0,1-.1-.2c0-.1-.1-.2-.1-.3Zm-8.4,0c.1,0,.2.1.4.2s.3.2.4.2a1.44,1.44,0,0,1,.3.2c.3.2.4.3.5.2s.1,0,0,.1a1.63,1.63,0,0,0,.6.3,6.11,6.11,0,0,1,1.4.7.1.1,0,0,1,.1.1.31.31,0,0,1,.2.1c.1.1.2.2.3.2a3.43,3.43,0,0,1,1.9,3.1,7.72,7.72,0,0,0,.1,1c-.4-.1-.5,0-.9.3a1.73,1.73,0,0,1-.4.3,1.73,1.73,0,0,1-.4-.3,1.56,1.56,0,0,0-2.4.3c-.1.2-.3.4-.3.5s-.1.2-.4.1a7.75,7.75,0,0,0-.9-.1h-.7L23,19c-.4-.9-1.3-1.4-1.9-1.1a6.13,6.13,0,0,0-.6.4l-.4.4-.3-.3a1.13,1.13,0,0,0-.8-.5c-.1,0-.1-.2.1-1a5.64,5.64,0,0,1,.4-1.2h0c0-.1.1-.1.1-.2a.31.31,0,0,0,.1-.2c.7-.6,1.6-2.9,3.2-3.3.1,0,.1,0,.2-.1s.1-.1.2-.1Zm-4,4h0v0Zm-.5.8c-.1.2-.1.5-.2.7-.3,1.3-.9,1.8-2.6,2h-.1a.75.75,0,0,0-.5.1c-.1.1-.1,0-.1-.1a.76.76,0,0,1,.1-.4,1,1,0,0,1,.1-.3c-.1-.1.1-.2.3-.2,1.1,0,.9-.3,1.9-.8l1-.8a.31.31,0,0,1,.1-.2Zm17,.9h0c.1,0,.3,1,.3,1.1a.77.77,0,0,1-.3-.1c-.1-.1-.2-.1-.2-.2V18c.1-.3.1-.5.2-.5ZM13.6,18l.3.2a1.88,1.88,0,0,0,.8.2,1,1,0,0,1,.4.1s-.3.9-.7,1.9a3.19,3.19,0,0,0-.3,1.4c-.1,1.1-.1,1.2,1.2,3.8.2.3.3.8.4.9a.76.76,0,0,0,.2.5,4.32,4.32,0,0,1-.1,2.5c-.1.3-.6,1.2-.7,1.4a4.37,4.37,0,0,0-.8,1.7,4.45,4.45,0,0,0,.1,1.6c0,.1.2.3.3.5.7,1.1,1.2,3.2.6,4.4a.49.49,0,0,1-.1.3,2.09,2.09,0,0,1-.7,1.3c-.2.1-.8.5-.8.5a.31.31,0,0,0-.2.1c-.2.1-.3.1-.8.1h-.5c-.1,0-.1-.1.1-.2a1.44,1.44,0,0,1,.3-.2q.15,0,.9-.9a3.75,3.75,0,0,0,1.1-2.4,6.46,6.46,0,0,0-.3-2.2.6.6,0,0,1-.1-.4,6.89,6.89,0,0,1-.7-1.5,1.82,1.82,0,0,1-.2-1.1,2,2,0,0,1,.7-1.7,5.56,5.56,0,0,0,1-1.5,5.35,5.35,0,0,0,.4-2.2,1.69,1.69,0,0,0-.2-.5,3.37,3.37,0,0,0-.6-1.2c0-.1-.1-.1-.1-.2l-.2-.2c-.1-.1-.2-.2-.2-.3a.35.35,0,0,0-.1-.2.1.1,0,0,1-.1-.1.31.31,0,0,0-.1-.2l-.1-.1a4.71,4.71,0,0,0-.2-.5,3.65,3.65,0,0,1-.3-1.5,8.81,8.81,0,0,1,.2-1.5l.2-.4a5.42,5.42,0,0,1,.6-1.1l.2-.2.1-.1c.1-.1-.1-.2-.2-.1a3.74,3.74,0,0,0-.6.7.35.35,0,0,0-.1.2,8.36,8.36,0,0,0-.7,1.6,3.78,3.78,0,0,0-.1,1.2,4.51,4.51,0,0,0,.1,1.3,3.93,3.93,0,0,1,.2.6l.2.4c.1.2.5.8.6,1a7.56,7.56,0,0,1,.9,1.8,2,2,0,0,1,0,1.1c-.1.3-.1.7-.2.9s-.7.9-1.2,1.4-.5.5-.6.9a1.64,1.64,0,0,0-.2,1c.2,1.6,1.2,2.6,1.4,4.2a4.88,4.88,0,0,1-.1,1.7c-.1.5-.3.7-.2.3a3.61,3.61,0,0,0-.3-1.8c0-.1-.1-.2,0-.3a1.09,1.09,0,0,0-.1-.5,2.07,2.07,0,0,1-.2-.6.44.44,0,0,0-.1-.3,8.34,8.34,0,0,0-.8-1.2,2.57,2.57,0,0,0-.2-.5h0a1,1,0,0,0-.2-.6,3.78,3.78,0,0,1,0-1.5A2.44,2.44,0,0,1,12.9,30a6.79,6.79,0,0,0,1.2-1.2.35.35,0,0,1,.1-.2,2.88,2.88,0,0,0,.1-1.3,1,1,0,0,1-.1-.3,5.34,5.34,0,0,0-.6-1.4.76.76,0,0,1-.2-.4c-.2-.4-.3-.7-.5-.8a.31.31,0,0,1-.1-.2.1.1,0,0,0-.1-.1.1.1,0,0,1-.1-.1.31.31,0,0,0-.1-.2,12.22,12.22,0,0,1-.6-1.2c-.1-.2-.1-.4-.2-.6a2.36,2.36,0,0,1,0-1.2.35.35,0,0,0,.1-.2,5.94,5.94,0,0,1,1.1-1.7.31.31,0,0,0,.1-.2.1.1,0,0,1,.1-.1l.1-.1q0-.15.3-.3Zm8,.3a.37.37,0,0,1,.3.1c.3.1.4.3.6.6a1.29,1.29,0,0,1,.1.7c0,.7-.2,1.1-1.4,2.2a8.37,8.37,0,0,0-1,1,.68.68,0,0,1-.5-.3l-.9-.9a6.73,6.73,0,0,1-1.4-2.2,3.13,3.13,0,0,0,1.1-.8c.3-.7.1-.5.8-.4a2.7,2.7,0,0,1,.7.8.1.1,0,0,0,.1.1,3.91,3.91,0,0,0,.5-.4,1.87,1.87,0,0,1,1-.5Zm7.8.4h.2a1.56,1.56,0,0,0,.6.8h.1v.1a1.08,1.08,0,0,1-.2.8,13.3,13.3,0,0,1-1.4,1.9,3.91,3.91,0,0,1-.5.4,1.87,1.87,0,0,0-.4-.3l-.8-.8a2.63,2.63,0,0,1-1-1.4,1.47,1.47,0,0,1,0-1.3c.4-.7,1.4-.6,2.1.2.2.3.4.3.5.2a.35.35,0,0,1,.2-.1c.1,0,.1,0,.1.1s-.3.4-.5.8c-.8,1.1-.8,1.2-.8,1.3s0,.2.1.2a1.33,1.33,0,0,0,.5-.3,9,9,0,0,1,.7-1.1c.6-.7.7-1.2.5-1.2s-.1-.2.1-.4c-.3.1-.2.1-.1.1Zm5.1.3a.37.37,0,0,1,.3.1.6.6,0,0,0,.4.1c.2.1.2.1.2.5,0,.2,0,.5.1.6v.2h0a.1.1,0,0,1,.1.1c.8,1.7.5,2.6.1,4.3a5,5,0,0,0-.1,2.4,4.58,4.58,0,0,0,.4,1.5,2,2,0,0,1,0,2,5.34,5.34,0,0,1-1.1,1.3,4.42,4.42,0,0,1-.9.8c-.1.1-.1.1-.1,0s0-.2.1-.2a4.86,4.86,0,0,1,.6-.9,4.15,4.15,0,0,0,.7-1.3v-.1c.1,0,.2-.8.2-1.2a4.19,4.19,0,0,0-.4-1.5c-.3-.5-.7-1.3-.8-1.5v-.8a8.51,8.51,0,0,1,.5-2.6,5.91,5.91,0,0,0,0-1.9,2.25,2.25,0,0,1-.1-.7.6.6,0,0,0-.1-.4c-.1-.3-.2-.7-.1-.8Zm1.7.4c.2,0,.3.1.4.3a1.69,1.69,0,0,0,.2.5,8.13,8.13,0,0,1,.4,4.4,9.68,9.68,0,0,1-.3,1.1,2.84,2.84,0,0,0-.1,1.8,11.89,11.89,0,0,1,1.2,3.2,2,2,0,0,1-.2,1.1.35.35,0,0,1-.1.2,6.37,6.37,0,0,0-.2.7l-.1.1-.4.8a8.64,8.64,0,0,1-1,1.6c-.1.2-.1.3-.2.4v.1h0c-.2.1-.3.9-.2,1.4,0,.2,0,.2-.1.2-.9-.6-.7-1.3-.7-2a9.67,9.67,0,0,1,1.3-2.5,3.7,3.7,0,0,0,.5-1.1c.2-1-.2-1.6-.4-2.7,0-.1,0-.1-.1-.2a1,1,0,0,1-.1-.3c0-.1-.1-.3-.1-.4s-.1-.3-.1-.4,0-.3-.1-.3a2.71,2.71,0,0,1,0-1.3,3.54,3.54,0,0,1,.1-.6v-.6a7,7,0,0,1,.3-1.4,1.58,1.58,0,0,1,.1-.4,5,5,0,0,0-.6-2.4,1.42,1.42,0,0,1-.2-.6c0-.2,0-.3.1-.4a2.6,2.6,0,0,1,.7-.3Zm-14.9-.5c-.1,0-.3.1-.5.4s-.5.6-.8,1.1c-.7.8-.8,1-.7,1.1s.4,0,.7-.5c.2-.2.4-.6.6-.8.8-.8,1-1.2.7-1.3Zm5.5.3c-.1,0-.2.1-.3.2a.78.78,0,0,0-.3.6c.1.2.1.2.3.1a1.22,1.22,0,0,0,.3-.9c.1.1.1,0,0,0Zm-7.7-.3c-.2,0-.4.2-.8.7-.2.3-.2.4-.1.5a.19.19,0,0,0,.3,0,4.89,4.89,0,0,0,.7-1.1.1.1,0,0,0-.1-.1Zm10.5.6h0a4.25,4.25,0,0,0-1,1.3c-.8,1.1-.8,1.2-.7,1.3s.1.1.2.1.2-.1.5-.5c.1-.2.4-.6.6-.9a2.77,2.77,0,0,0,.5-.9c.1-.3.1-.3,0-.4,0,.1,0,0-.1,0Zm-9.8-.1c-.1,0-.3.1-.6.5-.5.5-.6.8-.5,1l.1.1c.1,0,.4-.2.4-.3a3.61,3.61,0,0,0,.4-.5c.4-.5.6-.7.5-.8Zm7.8.3c-.1,0-.3.1-.7.6-.2.2-.2.3-.2.4.1.3.4.1.8-.5.2-.4.3-.5.1-.5Zm-3.7-.1a2,2,0,0,0,.5.1c.6.2.7.3.9.8a5.67,5.67,0,0,0,1,1.3,9.11,9.11,0,0,1,1,1c.4.4.7.7.8.7a6.64,6.64,0,0,0,1.8-1.9,2.19,2.19,0,0,0,.3-.5,5.94,5.94,0,0,0,.4-.8c.1-.1.1-.3.2-.3a1.73,1.73,0,0,0,.4.3,1.44,1.44,0,0,1,.3.2l.1.1V21a12.43,12.43,0,0,1-.3,3,5.22,5.22,0,0,0-.6,2.1v.8a5,5,0,0,1-1.4,1.9c-.2.2-.6.5-.8.7a7.05,7.05,0,0,1-.9.7c-1.6,1.2-2.9,1.8-4.8,1.2a6.67,6.67,0,0,1-2.5-1.3c-2.4-1.7-2.7-3.1-3.2-5.2a1.27,1.27,0,0,0-.1-.6,11.11,11.11,0,0,1-.4-3.4v-.7c0-.1.1-.1.1-.2.3-.3.5.1.7.5a21.6,21.6,0,0,0,2.5,2.7c.1.1.2.1.4,0s.3-.2.4-.3l.8-.8a8,8,0,0,0,1.5-2c.2-.4.2-.4.6-.5Zm-1.9.1c-.1,0-.4.2-1,.9-.2.3-.5.6-.6.6-.2.2-.3.3-.2.4s.2.1.4-.1.4-.4,1.2-1.3c.3-.2.3-.4.2-.5Zm-6.3,0h.1c.1,0,.3.1.4.1s.1.1.1,2.4a4.87,4.87,0,0,0,.1,1.2,1.45,1.45,0,0,0,.2.7v.1a1.28,1.28,0,0,1-.5-.7,2.07,2.07,0,0,0-.2-.6,1.49,1.49,0,0,1-.1-.6,1.33,1.33,0,0,0-.3-.7c-.1-.3-.3-.7-.3-.8a1,1,0,0,0-.1-.4,1.14,1.14,0,0,1,.3-.6.37.37,0,0,1,.3-.1Zm16,1a.76.76,0,0,1,.2.4c-.1-.2-.2-.3-.2-.4Zm.6.2a.37.37,0,0,1,.3.1c.3.1.4.4.6.9a4.48,4.48,0,0,1-.6,3,1,1,0,0,0-.2.7,7.42,7.42,0,0,0,.4,1.8,4.71,4.71,0,0,1,.3.9c.1.2.1.5.2.5a3.45,3.45,0,0,1-.4,2c-.1.2-.4.7-.6,1.1a5.44,5.44,0,0,0-.4.8c0,.1,0,.1-.1.1a2.83,2.83,0,0,1-.3.6,2.74,2.74,0,0,0-.1,2,2.57,2.57,0,0,0,.5,1.2,1.27,1.27,0,0,1,.4.7,1.89,1.89,0,0,0,.4.6,7.26,7.26,0,0,1,.5,1.2,2.77,2.77,0,0,1-.3,2c-.2.3-.9.9-1,.8l.2-.4a3,3,0,0,0,.5-1.7,9,9,0,0,0-.2-1.3v-.4l-.2-.4-.2-.4-.2-.2a.76.76,0,0,1-.2-.4c0-.1-.1-.2-.1-.3a6.12,6.12,0,0,1-.5-1.2,6.5,6.5,0,0,1,.1-1.9,7.49,7.49,0,0,1,.5-1.6c.1-.2.3-.7.5-1.1a2.58,2.58,0,0,0,.3-1.3v-.6c0-.1-.2-.3-.4-.6a.91.91,0,0,1-.3-.5,1.24,1.24,0,0,1-.2-.3,1.44,1.44,0,0,1-.2-.3.1.1,0,0,0-.1-.1.44.44,0,0,1-.1-.3,4.29,4.29,0,0,1,0-1.6,3.93,3.93,0,0,1,.2-.6,3.93,3.93,0,0,0,.2-.6,6.07,6.07,0,0,0,.4-1.7v-.9c.3-.2.3-.3.4-.3Zm-7.5.4a.1.1,0,0,0-.1.1c-.1.1-.1.2-.1.6s0,.4.6,1.7c.1.3.3.6.3.7v.1H25a1.29,1.29,0,0,0-.7.1.75.75,0,0,1-.5.1h-.6c-.5.1-.8-.2-.6-.7.1-.3.1-.3-.1-.4s-.3.1-.3.4a.88.88,0,0,0,.5,1,6,6,0,0,0,1.9,0,1.48,1.48,0,0,1,.7-.1c.4,0,.4,0,.6-.2a.75.75,0,0,0,.1-.5,4.12,4.12,0,0,0-.3-.8c-.5-1-.7-1.3-.6-1.8l-.3-.3Zm-10.1,0a1.24,1.24,0,0,1,.2.3,1.69,1.69,0,0,1,.2.5,4.05,4.05,0,0,1,.3,1c.2,1,.4,1.3,1,1.6.3.2.4.3.6,1.3a12.3,12.3,0,0,1,.4,2.7,6.53,6.53,0,0,1-.2,1.1c-.3,1-.2,1-.4,1.2a.37.37,0,0,0-.1.3.31.31,0,0,1-.1.2s-.2.3-.3.5-.3.5-.4.7a1.45,1.45,0,0,0-.2.7,2.24,2.24,0,0,0,.4,1.5c.2.7.8,1.1,1.1,1.8a3.65,3.65,0,0,1,.3,1.5,8.44,8.44,0,0,1-.2,1.9c-.3.5-.7,1.2-.8,1.3s-.1.1-.1-.1a4.33,4.33,0,0,0,.1-.5,7.89,7.89,0,0,0,.3-1.3,3.25,3.25,0,0,0-.1-1.5.35.35,0,0,0-.1-.2.49.49,0,0,0-.1-.3,1.58,1.58,0,0,1-.1-.4,9.41,9.41,0,0,0-1.2-2.2l-.1-.1a.31.31,0,0,0-.1-.2,2.13,2.13,0,0,1-.3-1.6c0-.4,0-.4.5-1.3a7.51,7.51,0,0,0,1.2-3.2,2.36,2.36,0,0,0-.2-1.3.76.76,0,0,1-.1-.4l-.2-.6a3.93,3.93,0,0,1-.2-.6,2.74,2.74,0,0,0-.4-.7,1.44,1.44,0,0,1-.2-.3,1.44,1.44,0,0,0-.2-.3,2.83,2.83,0,0,1-.4-1.3,5.64,5.64,0,0,0-.1-.7c.1-.4.2-1,.3-1Zm12,5.3c-.1,0-.2.1-.4.2s-.5.3-.7.4a2.68,2.68,0,0,1-1.1.2c-1.8,0-2.2,0-3.1-.5-.4-.2-.4-.2-.5-.1s-.1.1.1.2a2.19,2.19,0,0,0,.5.3,2.56,2.56,0,0,1,1.1.8c.2.2.5.5.6.5s.3.1.9.1a2.22,2.22,0,0,0,.9-.1,3.83,3.83,0,0,0,1.2-1.1c.1-.2.4-.4.5-.5.3-.2.4-.3.3-.5l-.3.1Zm4.3.7a2.89,2.89,0,0,0,.7,1.1v.2a1.24,1.24,0,0,1,.2.3,1.69,1.69,0,0,1,0,1.4c-.2.5-.5,1.2-.9,2a12,12,0,0,0-.6,2.3,2.2,2.2,0,0,0,.2,1.4c.4.9.6,1.2.6,1.3a8.7,8.7,0,0,1,.8,1.4,3.35,3.35,0,0,1,.1,2.2c-.2.4-.5,1-.6,1v-.5a2.75,2.75,0,0,0-.4-2.4,1.44,1.44,0,0,0-.2-.3.31.31,0,0,1-.1-.2v-.1a7.46,7.46,0,0,0-.7-1.2l-.2-.4a5.43,5.43,0,0,1-.2-2.8c.1-.2.2-.5.3-.7a3.33,3.33,0,0,1,.3-.6,1.69,1.69,0,0,1,.2-.5l.2-.4a.44.44,0,0,0,.1-.3c.1-.2.1-.3.3-.7a3.26,3.26,0,0,0-.1-2.2.52.52,0,0,1-.2-.4c-.1-.1-.1-.2-.2-.2.1-.2.3-.4.4-.6v-.1Zm-6.2.5h.5l-.2.2a.76.76,0,0,1-.4.2,3.19,3.19,0,0,1-1.9-.3c-.3-.2,0-.2.5-.1h1.5Zm5.6.5Zm.2.3a.1.1,0,0,0,.1.1,1.74,1.74,0,0,1,.3,1.4,1,1,0,0,1-.2.7.49.49,0,0,0-.1.3,2.83,2.83,0,0,1-.3.6,2.83,2.83,0,0,0-.3.6.1.1,0,0,1-.1.1c-.1.1-.2-.1-.3-.5a2.14,2.14,0,0,1,.1-1.4l.2-.4a6.89,6.89,0,0,0,.4-1V29a.49.49,0,0,1,.1-.3c0,.1,0,0,.1-.1Zm-.4.1c-.3.5-.8,1.6-.9,1.8a8.92,8.92,0,0,0-.2,1.1,12.43,12.43,0,0,0,.5,1.5,1.34,1.34,0,0,1-.2.8,4.08,4.08,0,0,0-.2.7c0,.1,0,.2-.1.2v-.1a1,1,0,0,1-.1-.3.37.37,0,0,1-.1-.3,1,1,0,0,0-.1-.4,3.91,3.91,0,0,1-.3-3,4.71,4.71,0,0,0,.2-.5c0-.1.1-.1.1-.2h0a10.14,10.14,0,0,0,1.4-1.3Zm-12.5-.5c.1,0,.1,0,.2.1s.1.1.1.2.3.2.4.4a4.48,4.48,0,0,0,0,2,15.64,15.64,0,0,0,.5,2.2,4.42,4.42,0,0,1,.2,2,6.47,6.47,0,0,1-.4,2,1.85,1.85,0,0,0-.2.7.35.35,0,0,1-.1.2.35.35,0,0,0-.1.2c-.3.6-.4.5-.3-.2,0-.3,0-.5-.1-.6a1.7,1.7,0,0,1,0-1c0-.1.2-.4.2-.5a4.23,4.23,0,0,0,.4-1.2,2.63,2.63,0,0,0,0-1.3,4.33,4.33,0,0,0-.4-1.1,7.81,7.81,0,0,1-.5-1.2.35.35,0,0,1-.1-.2c-.1-.1-.1-.1-.1-.3a4.33,4.33,0,0,0,.1-.5c0-.2.1-.3.1-.4a5.38,5.38,0,0,0,.1-.8v-.7Zm1,1.1h0l.2.2h0c.5.4.8.7,1.1.9a2.61,2.61,0,0,1,.3.8,4.33,4.33,0,0,1,.1.5,8.66,8.66,0,0,1,.2,1,6.37,6.37,0,0,1,0,2,9.23,9.23,0,0,1-.4,2.6,18.34,18.34,0,0,1-1.3,2.4c-.1.2-.3.5-.4.7l-.2.4a1,1,0,0,0-.1.4.44.44,0,0,1-.1.3,1.44,1.44,0,0,0-.2-.3,2.22,2.22,0,0,1-.1-.9c0-.6,0-.6.6-1.7.4-.8.6-1.1.8-1.5.1-.2.1-.3.2-.4v-.1a6.66,6.66,0,0,0,.1-3.7c-.3-1.1-.4-1.3-.5-1.7a1.7,1.7,0,0,1-.1-.7v-.3c-.3.2-.2-.5-.2-.9Zm17.7,1.4h0c-.2,2-2.4,3.3-2,5.4a2.81,2.81,0,0,0,.5,1.1,4.13,4.13,0,0,0,1.5.7c.2,0,.2.1,0,.2s-.1.1-.2.1a1.85,1.85,0,0,1-.7.2c-.5,0-.6-.1-.7-.4,0-.1-.2-.4-.3-.7s-.3-.5-.3-.5a.1.1,0,0,0-.1-.1h0c0-.1-.2-.5-.3-.5v-.1a.1.1,0,0,0-.1-.1.1.1,0,0,1-.1-.1v-.1a.44.44,0,0,1-.1-.3,3.08,3.08,0,0,1,.2-1.7s.1-.1,0-.1a1.24,1.24,0,0,0,.2-.3l.3-.3a.1.1,0,0,1,.1-.1c.1,0,.1,0,.1-.1s0-.1.1-.1a3.45,3.45,0,0,0,.9-.8,1.44,1.44,0,0,1,.2-.3c.1-.1.2-.2.2-.3a.1.1,0,0,1,.1-.1.35.35,0,0,0,.1-.2.76.76,0,0,1,.2-.4.14.14,0,0,0,.2,0Zm-8.2-.3a4.12,4.12,0,0,0-.3.8c0,.1-.1.5-.1.8a6.15,6.15,0,0,0,.7,2.6A13,13,0,0,1,29,36v.1a8,8,0,0,1-8.2.3,9.68,9.68,0,0,0,.1-3.8.35.35,0,0,1-.1-.2,1.64,1.64,0,0,0-.2-.9,1.42,1.42,0,0,1-.2-.6.35.35,0,0,0,.2.1c.1,0,.2,0,.4.2,3.2,1.4,4,1.3,6.6-.4a5.92,5.92,0,0,0,.6-.4Zm-11.1.8a.1.1,0,0,1,.1.1c0,.1.2.4.3.8a4.56,4.56,0,0,1,.5,2.6,2.78,2.78,0,0,1-.4,1.2l-.1.3-.1-.3a.31.31,0,0,1-.1-.2v-.1c-.1,0-.3-.4-.3-.5a.37.37,0,0,1,.1-.3,4.1,4.1,0,0,0,0-2.2c0-.1-.1-.2-.2-.4a.78.78,0,0,1,.1-.8.35.35,0,0,1,.1-.2Zm-.8,1.3c.1,0,.2.3.3.7a3.7,3.7,0,0,1,0,1.5c-.1,0-.4-.5-.5-.9a2.7,2.7,0,0,1,0-.9l.2-.4ZM29,36.61c0,.2-.1.5-.1.8a9.21,9.21,0,0,1-8.4.3c0-.1.1-.2.1-.3a6.37,6.37,0,0,0,.2-.7v.1h0c3.3,1.6,5.7,1.3,8.2-.2Zm.5.5.2.2a1.44,1.44,0,0,1,.2.3c.1.1.1.1-.1.5a4.47,4.47,0,0,1-.7,1.4c-.1.2-.3.3-.3.4a.22.22,0,0,1-.2.2c-.1,0-.1.1-.1,0V40a7867464773627.24,7867464773627.24,0,0,0,.2-.4c0-.1.1-.2.1-.3s.1-.3.2-.5a9.05,9.05,0,0,1,.5-1.7Zm-13.6.3a1.09,1.09,0,0,1,.2.4,3.34,3.34,0,0,1,0,2.6,2.21,2.21,0,0,1-.5,1.1c-.1,0-.3-.4-.3-.6s0-.2-.1-.2v-.3a4.33,4.33,0,0,0,.1-.5,1,1,0,0,1,.1-.3,1,1,0,0,0,.1-.4,4.33,4.33,0,0,1,.1-.5,3.54,3.54,0,0,0,.1-.6c.1-.2.1-.5.2-.7Zm1.2,3.5.1.3a2.33,2.33,0,0,0,.7,1.3l.1.1h-.7a1.05,1.05,0,0,1-1-.4c-.2-.3-.2-.3.1-.6l.5-.5Z"/></g></g></svg>