<?xml version="1.0" encoding="utf-8"?>
<!-- Generator: Adobe Illustrator 25.2.3, SVG Export Plug-In . SVG Version: 6.00 Build 0)  -->
<svg version="1.1" xmlns="http://www.w3.org/2000/svg" xmlns:xlink="http://www.w3.org/1999/xlink" x="0px" y="0px"
	 viewBox="0 0 50 50" style="enable-background:new 0 0 50 50;" xml:space="preserve">
<style type="text/css">
	.st0{fill:#E8ECED;}
	.st1{fill:#B29262;}
	.st2{fill:#664C34;}
	.st3{fill:#F1E5D2;}
	.st4{fill:#FFFFFF;}
	.st5{fill:#CC3366;}
	.st6{fill:#F3D1A2;}
	.st7{fill:#322722;}
</style>
<g id="圖層_1">
	<g>
		<circle class="st0" cx="25" cy="25" r="23.9"/>
		<path class="st1" d="M25,2.2c12.5,0,22.8,10.2,22.8,22.8S37.5,47.8,25,47.8S2.2,37.5,2.2,25S12.5,2.2,25,2.2 M25,0
			C11.2,0,0,11.2,0,25s11.2,25,25,25s25-11.2,25-25S38.8,0,25,0L25,0z"/>
	</g>
	<path class="st1" d="M25,2.2c12.5,0,22.8,10.2,22.8,22.8S37.5,47.8,25,47.8S2.2,37.5,2.2,25S12.5,2.2,25,2.2 M25,0
		C11.2,0,0,11.2,0,25s11.2,25,25,25s25-11.2,25-25S38.8,0,25,0L25,0z"/>
	<path class="st2" d="M25.3,6.8c-1.2,0-2.4,0.1-3.4,0.7c-0.3,0.1-0.4,0.6-0.7,0.7c-0.6-0.1-1.3-0.1-1.8,0.2
		c-1.6,0.9-2.9,2.3-3.8,3.9c-1,1.8-1.2,3.8-1.8,5.7c-0.7,2-1.7,3.9-2.2,5.9c-0.8,2.4-0.8,4.9-0.8,7.4c0.1,1.7,0.4,3.3,0.9,4.9
		c0.1,0.1,0.2,0.6,0,0.5c1.1,1.8,2.5,3.5,4.1,4.8c0-0.1,0.2-0.1,0.2,0c0.7,0.3,1.5,0.5,2.3,0.5c0.7,0.1,1.2-0.4,1.6-0.8
		c0.2-0.1,0.3-0.4,0.5-0.3c0.2,0.5,0.2,1,0.3,1.5c0,0.2,0.2,0.4,0.1,0.6c0,0.2,0.2-0.1,0.2-0.1c0.4-0.8,0.3-1.8,0.2-2.7
		c0-0.1-0.1-0.5,0.1-0.4c0.4,0.7,0.8,1.5,1.2,2.3c0.1,0.2,0.2,0.4,0.4,0.5c0.2-0.5,0.2-1.1,0.1-1.7c-0.2-0.8-0.3-1.6-0.3-2.5
		c-0.1-0.3,0-0.5,0.3-0.4c1.4,0,2.8-0.3,3.9-1.1h0l0,0c0.2,0.3,0.3,0.6,0.5,0.9c0.3,0.5,0.6,1,1,1.5c0.3,0.4,0.7,0.8,1.1,1.2
		c1.2,0.7,2.5,1.2,3.9,1.3c0.4-0.1,0.6,0.3,0.8,0.6c0.1,0.2,0.3,0.3,0.3,0.5c1.2-0.8,2.4-1.8,3.5-3c0,0-0.1,0-0.1-0.1
		c0.2-1.1,0.5-2.2,0.5-3.3c0.1-2.2-0.6-4.2-0.7-6.4c0.2-1.9,0.2-3.8,0.2-5.6c0.1-1.8-0.4-3.6-0.9-5.3c-0.4-1.5-1.1-2.8-1.7-4.2
		c-0.8-1.6-1.9-3.1-3-4.5c-1.4-1.7-3.3-3.2-5.6-3.6C26.1,6.9,25.7,6.8,25.3,6.8L25.3,6.8z M25.3,6.8"/>
	<path class="st3" d="M22.9,11.5c-0.4,0-0.8,0.3-1.2,0.4c-0.8,0.2-1.6,0.7-2.1,1.3c-1.3,1.2-2.1,2.9-2.4,4.6c-0.1,0.4,0,0.9-0.2,1.3
		c-0.2,0.2-0.4,0-0.5-0.2c-0.1-0.3-0.6-0.7-0.8-0.3c-0.6,1.1-0.5,2.5-0.3,3.7c0.2,0.5,0.5,1.1,1.1,1.3c0.3,0.1,0.6-0.4,0.8-0.4
		c-0.5,0.8-0.3,1.7,0,2.5c0.4,1.6,1.5,2.9,2.5,4.1c1,1.2,2.4,1.8,3.8,2.3c1.1,0.4,2.2-0.4,2.9-1.1c1.8-1.7,3.2-3.9,4-6.2
		c0.4-0.9,0.7-1.8,1.2-2.7c0-0.6-0.4-1.2-0.5-1.7c-0.5-1.9-1.3-3.8-2.5-5.5c-0.7-1.1-1.6-1.9-2.7-2.5c-0.9-0.4-2-0.6-3-0.6
		C23,11.5,23,11.5,22.9,11.5L22.9,11.5z M22,17.8c0.5,0,1.1,0.1,1.5,0.5c0,0.2-0.3-0.1-0.4-0.1c-0.8-0.2-1.7-0.3-2.5,0.1
		c-0.2,0.1-0.5,0.4-0.7,0.3c0.3-0.6,1.2-0.6,1.8-0.7C21.8,17.8,21.9,17.8,22,17.8L22,17.8z M28.7,18.9c0.7,0,1.5,0.1,1.9,0.7
		c0.1,0.2-0.2,0.4-0.3,0.2c-0.5-0.5-1.2-0.7-1.8-0.6c-0.3,0-0.5,0.4-0.7,0.3c-0.2-0.2,0.3-0.3,0.4-0.5
		C28.3,18.9,28.5,18.9,28.7,18.9L28.7,18.9z M21.8,19c0.6,0,1.4,0.4,1.4,1.1c0.1,0.2,0.1,0.4-0.2,0.4c-0.9,0.2-1.8-0.3-2.7-0.6
		c-0.2-0.1-0.5-0.2-0.6-0.3c0.5-0.2,1.1-0.3,1.6-0.5C21.5,19,21.7,19,21.8,19L21.8,19z M16.5,20.5c0.4,0.1,0,0.3-0.1,0.5
		c-0.2,0.3,0,0.7,0.3,0.9c-0.4,0.1-0.6-0.3-0.5-0.7C16.2,21,16.2,20.5,16.5,20.5L16.5,20.5z M29.1,20.7c0.7,0,1.3,0.6,1.2,1.2
		c-0.1,0.3-0.5,0.2-0.7,0.2c-0.8-0.1-1.6-0.3-2.3-0.7c-0.2-0.3,0.3-0.4,0.5-0.5c0.4-0.1,0.8-0.2,1.2-0.2
		C29.1,20.7,29.1,20.7,29.1,20.7L29.1,20.7z M26.4,20.8c0,0.6-0.4,1.2-0.3,1.9c0,0.7,0.2,1.3,0.1,2c0,0.3,0,0.7-0.4,0.7
		c-0.4-0.1-0.8-0.4-1.2-0.3c-0.4,0-1,0-1.1-0.4c-0.1-0.1-0.1-0.4,0.1-0.2c0.2,0.3,0.6,0.4,0.9,0.4c0.5,0,0.9,0.1,1.4,0.2
		c0.3-0.2,0.1-0.6,0.1-0.9c-0.2-1.1-0.4-2.3,0.3-3.2C26.3,20.9,26.4,20.8,26.4,20.8L26.4,20.8z M21.3,26.2c0.5,0.2,1,0.5,1.6,0.5
		c0.7,0.1,1.4,0.3,2.1,0.3c0.4,0,0.8,0.4,1.3,0.1c0.3-0.1,0.7-0.3,1-0.2c-0.3,0.4-0.8,0.5-1.2,0.8c-0.8,0.4-1.9,0.8-2.7,0.2
		c-0.7-0.4-1.3-1-2-1.6C21.3,26.4,21.2,26.2,21.3,26.2L21.3,26.2z M19.9,30.6C19.9,30.6,19.9,30.6,19.9,30.6
		c-0.2,0.2,0.2,0.5,0.2,0.8c0.8,1.7,1.8,3.3,2.2,5.2c0.3,0.2,0.8,0,1.1,0.1c1.1-0.1,2.2-0.4,3-1.1c0-1.4-0.1-2.8,0.1-4.1
		c-0.1-0.3-0.4,0.1-0.5,0.2c-0.6,0.7-1.6,0.9-2.5,0.8c-1.3-0.3-2.3-1.1-3.5-1.7C20.1,30.7,20,30.6,19.9,30.6L19.9,30.6z M19.9,30.6"
		/>
	<path class="st4" d="M21.3,19.3c-0.2,0.1-0.5,0.1-0.6,0.3c-0.1,0.1,0.1,0.3,0.2,0.3c0.1,0,0.3,0.1,0.4,0.1c0.2-0.1,0-0.3,0.1-0.4
		C21.3,19.5,21.5,19.3,21.3,19.3L21.3,19.3z M22.7,19.5c-0.2,0.1-0.1,0.3-0.2,0.4c0,0.1-0.2,0.2-0.2,0.4c0.2,0.1,0.4,0,0.5,0
		c0.2,0,0.4-0.2,0.2-0.4C23.1,19.8,23,19.6,22.7,19.5C22.8,19.5,22.8,19.5,22.7,19.5L22.7,19.5z M28.4,20.9
		c-0.2,0.1-0.5,0.1-0.6,0.3c-0.1,0.1,0.1,0.3,0.2,0.3c0.1,0,0.3,0.1,0.4,0.1c0.2-0.1,0-0.3,0.1-0.4C28.5,21.1,28.6,20.9,28.4,20.9
		L28.4,20.9z M29.9,21.2c-0.2,0.1-0.1,0.3-0.2,0.4c0,0.1-0.2,0.2-0.2,0.4c0.2,0.1,0.4,0,0.5,0c0.2,0,0.4-0.2,0.2-0.4
		C30.2,21.4,30.1,21.2,29.9,21.2C29.9,21.2,29.9,21.2,29.9,21.2L29.9,21.2z M29.9,21.2"/>
	<path class="st5" d="M22,26.6c-0.1,0.1,0.1,0.2,0.1,0.3c0.5,0.5,1.2,0.9,2,1c0.5,0.1,1,0.1,1.4-0.2c0.2-0.1,0.4-0.2,0.5-0.3
		c0.1-0.1-0.1-0.2-0.2-0.1c-0.4,0.1-0.9-0.1-1.3,0c-0.2,0-0.5,0-0.7-0.2c-0.3-0.1-0.6,0-0.9-0.2C22.7,26.9,22.4,26.7,22,26.6
		C22.1,26.6,22.1,26.6,22,26.6L22,26.6z M22,26.6"/>
	<path class="st6" d="M14.8,17.8L14.8,17.8c-0.3,0.6-0.4,1.2-0.6,1.8c-0.7,2.7-1.9,5.3-1.9,8.1c0,1.7-0.2,3.4,0.3,5
		c0.4,1.4,0.8,2.9,1.5,4.3c0.6,1.3,1.5,2.5,2.7,3.2c0.8,0.5,1.6,1,2.6,0.9c0.1-0.3-0.2-0.5-0.3-0.7c-1.5-1.9-3.4-3.6-4.4-5.8
		c-0.5-1.1-1-2.1-1.3-3.2c-0.2-1.7-0.2-3.5-0.1-5.3c0.2-1.8,0.8-3.5,1.2-5.3c0.2-0.7,0.4-1.4,0.8-2C15.2,18.3,15.1,18,14.8,17.8
		L14.8,17.8z M31.8,22.6c-0.3,0.3-0.4,0.8-0.6,1.2c-0.4,1-0.2,2.2-0.2,3.3c0.1,2.8,0.8,5.6,1.9,8.3c0.4,1.2,0.9,2.3,1.3,3.4
		c0.3,0.8,0.4,1.7,0.6,2.6C35,41.4,35,41,35,40.9c-0.2-3.2-1.4-6.2-2.3-9.2c-0.6-2.4-0.4-4.8-0.5-7.2c-0.1-0.6,0-1.2-0.2-1.8
		C31.9,22.6,31.9,22.5,31.8,22.6L31.8,22.6z M16,23.6C16,23.6,16,23.6,16,23.6c-0.3,0.2-0.2,0.6-0.2,0.9c-0.1,1.5-0.2,3.1,0.2,4.6
		c0.4,1.4,1.3,2.6,1.9,3.9c1,1.8,1.8,3.8,2.9,5.5c0.7,1,1.1,2.1,1.7,3.1c0.1,0.2,0.4,0,0.3-0.2c-0.4-2.3-1.7-4.3-2.8-6.3
		c-0.9-1.7-1.9-3.4-2.6-5.2c-0.5-1.3-1-2.7-1.3-4.1C16,25.1,16.2,24.4,16,23.6C16,23.6,16,23.6,16,23.6L16,23.6z M35.7,28.8
		c-0.3,0.2-0.1,0.6-0.1,0.8c0.2,1.4,0.7,2.7,1.1,4.1c0.5,2,0.7,4,0.4,6c0,0.3-0.2,0.6-0.1,0.9c0.3,0.1,0.3-0.4,0.4-0.5
		c0.4-1,0.6-2,0.6-3c0.1-1.6-0.1-3.2-0.4-4.7c-0.2-0.9-0.3-1.8-0.4-2.6C36.7,29.5,36.2,29.1,35.7,28.8L35.7,28.8z M28.5,29.4
		C28.5,29.4,28.5,29.4,28.5,29.4c-0.3,0.2-0.5,0.6-0.6,1c-0.4,2.4,0,4.9,0.9,7.2c0.3,0.8,0.8,1.6,1.4,2.3c0.4,0.5,0.8,1,1.4,1.3
		c0.3-0.1-0.1-0.4-0.2-0.6c-1.9-2.5-2.8-5.7-2.7-8.8C28.6,30.9,28.7,30.2,28.5,29.4C28.6,29.4,28.5,29.4,28.5,29.4L28.5,29.4z
		 M28.5,29.4"/>
	<path class="st6" d="M24.2,8.2c-0.8,0-1.6,0.1-2.2,0.4c-0.3,0.2,0.1,0.7,0.4,0.5C23.6,8.6,25,9,26.1,9.4c1.4,0.6,2.7,1.5,3.7,2.6
		c1,1,2.1,2,2.6,3.4c1.6,3.4,2.5,7.2,3.5,10.8c0.3,0.8,0.5,1.8,1,2.5c0.3,0.1,0.2-0.3,0.2-0.4c-0.3-2-0.4-4-1-5.9
		c-0.6-2.7-1.5-5.4-3-7.7c-1.1-1.7-2.5-3.2-4-4.6C27.9,8.9,26.1,8.2,24.2,8.2L24.2,8.2z M24.2,8.2"/>
	<path class="st6" d="M21.7,9.2c-1.7,0.4-3.3,1.5-4.2,3.1c-0.9,1.4-1.6,2.9-1.5,4.6c0,0.4-0.1,0.8,0.1,1.1c0.3,0,0.2-0.5,0.3-0.7
		c0.3-1.6,0.8-3.1,1.7-4.5c0.6-0.7,1.3-1.4,2.1-2c0.6-0.3,1.3-0.4,1.9-0.5c0.3-0.1,0.3-0.6,0.1-0.8C22,9.4,21.9,9.2,21.7,9.2
		L21.7,9.2z M21.7,9.2"/>
	<path class="st6" d="M23,10.4c-0.5,0-1.1,0.1-1.2,0.6c0.2,0.3,0.5,0.7,0.9,0.5c1.1-0.2,2.3,0,3.4,0.4c1.6,0.7,2.7,2.2,3.6,3.7
		c1,1.5,1.6,3.2,2.1,4.9c0.7,2.3,1.6,4.7,3,6.6c0.6,0.8,1.2,1.5,2,2.1c0.3,0,0-0.4-0.1-0.5c-1.1-1.2-1.7-2.7-2.4-4.2
		c-0.8-2.1-1.5-4.3-2.2-6.5c-0.5-1.4-1-2.8-2.1-3.9c-1.2-1.5-2.8-2.6-4.5-3.3C24.6,10.5,23.8,10.3,23,10.4L23,10.4z M23,10.4"/>
	<path class="st7" d="M25.3,6.7c-1,0-1.9,0.1-2.8,0.4c-0.5,0.2-1.2,0.5-1.3,1.1c0,0,0,0-0.1,0c-0.4-0.2-1.1-0.2-1.6,0
		c-0.7,0.2-2.3,1.5-3.1,2.5c-0.1,0.1-0.2,0.3-0.3,0.4c-0.1,0.1-0.2,0.3-0.2,0.3c-0.1,0.1-0.3,0.4-0.5,0.9c-0.1,0.2-0.2,0.4-0.3,0.5
		c-0.1,0.1-0.3,0.6-0.4,1c-0.2,0.1-0.8,2.5-0.8,2.9c-0.1,0.8-0.5,1.7-1.3,3.6c-0.3,0.6-0.6,1.4-0.7,1.8c-0.1,0.2-0.2,0.6-0.3,0.9
		c-0.2,0.6-0.3,0.9-0.5,1.5c-0.1,0.3-0.1,0.6-0.2,0.8c-0.1,0.5-0.2,0.7-0.3,1.8c-0.1,1.1-0.1,1.6-0.1,3.3v1.5l0.1,0.4
		c0,0.2,0.1,0.6,0.1,0.8c0.1,0.7,0.2,1.4,0.4,1.9c0,0.2,0.1,0.5,0.2,0.6c0,0.2,0.1,0.4,0.1,0.5c0.2,0.5,0.8,1.8,1,2.1
		c0,0.1,0.2,0.2,0.2,0.4c1.1,1.9,3.3,3.6,5.8,3.4c0.3-0.1,0.4-0.1,0.6-0.3c0.2-0.1,0.3-0.2,0.3-0.2c0,0,0.1-0.1,0.1-0.1
		c0.1,0,0.5-0.4,0.7-0.6c0,0.1,0.1,0.2,0.1,0.3c0,0.1,0.1,0.5,0.2,0.8c0.1,0.8,0.2,0.9,0.2,0.9c0,0,0,0,0.1,0
		c-0.1,0.2-0.1,0.3-0.1,0.4c0,0,0.1,0,0.1,0c0.1,0,0.2-0.2,0.3-0.4c0.4-1,0.3-2.1,0-3.3c0,0,0,0,0,0c0.2,0.3,0.3,0.7,0.5,1.1
		c0.7,1.2,1.4,3.7,1.5,0.8c0-0.3,0-0.4-0.1-0.6c-0.3-0.8-0.2-1.8-0.3-2.6c0.5,0,1.1,0,1.7-0.1c0.9-0.1,1.8-0.5,2.6-1
		c0,0.1,0.2,0.4,0.2,0.5c0,0,0.1,0.1,0.1,0.1c0,0,0,0.2,0.1,0.3c0.1,0.1,0.1,0.2,0.1,0.3c0,0,0.1,0.1,0.1,0.2
		c0.1,0.1,0.1,0.1,0.1,0.2c0,0,0,0.1,0.1,0.1c0,0,0.1,0.2,0.2,0.3c0.2,0.3,0.3,0.5,0.3,0.5c0,0,0.1,0.1,0.1,0.2
		c0.1,0.1,0.2,0.2,0.4,0.5c0.3,0.3,0.7,0.7,0.8,0.7c0,0,0.2,0.1,0.3,0.2c0.2,0.1,0.4,0.2,0.5,0.3c0.4,0.2,1.3,0.5,1.4,0.5
		c0,0,0.2,0,0.3,0.1c0.3,0.1,0.5,0.1,1,0.1c0.3,0,0.4,0,0.4,0.1c0.1,0.1,0.6,0.7,0.7,0.8c0,0.1,0.1,0.1,0.1,0.8c0,0.6,0,0.7,0.1,0.8
		c0,0.1,0,0.1,0.1,0c0.1-0.1,0.1-0.3,0.1-0.5c0-0.1,0-0.1,0-0.2c0,0,0.1-0.2,0.1-0.3c0.1-0.5,0.2-0.7,0.2-0.8c0-0.1,0-0.1,0-0.1
		s0,0,0.1,0.1c0.1,0.1,0.2,0.2,0.3,0.1c0,0,0.1,0,0.1-0.1c0,0,0,0,0,0c-0.2,0.4-0.2,0.7-0.2,0.8c0,0.2,0.2,0,0.4-0.3
		c0.1-0.1,0.2-0.3,0.2-0.4c0.1-0.1,0.4-0.4,0.5-0.6c0.1-0.2,0.3-0.4,0.4-0.5c0.1-0.1,0.1-0.2,0.1-0.2c0,0,0-0.1,0.1-0.2
		c0.1-0.1,0.1-0.2,0.2-0.2c0-0.1,0.1-0.1,0.1-0.1c0.1,0,0.1-0.1,0.1-0.2c0-0.1,0-0.1,0-0.1c0,0,0.1-0.1,0.2-0.4
		c0.1-0.2,0.1-0.4,0.2-0.4c0.1-0.1,0.3-1,0.3-1.4c0-0.2,0.1-0.4,0.1-0.6c0-0.1,0-0.4,0-0.6c0.1-0.7,0-1.9-0.1-2.4
		c0-0.1-0.1-0.4-0.1-0.6c0-0.4-0.2-1.1-0.2-1.4c-0.1-0.3-0.1-0.7-0.2-1.2c0-0.2-0.1-0.5-0.1-0.7c-0.1-0.6,0.1-1.8,0.2-2.9
		c0.1-1.3,0.1-2.6,0-3.6c0-0.6-0.1-1.2-0.1-1.3c-0.1-0.4-0.2-1.2-0.4-1.8c-0.1-0.2-0.1-0.5-0.2-0.7c0-0.2-0.1-0.4-0.2-0.5
		c0-0.1-0.1-0.3-0.1-0.4c0-0.1,0-0.2-0.1-0.2c0-0.1-0.1-0.3-0.1-0.4c0-0.2-0.1-0.3-0.1-0.4c0,0-0.1-0.1-0.1-0.2
		c-0.1-0.2-0.3-0.8-0.4-1.1c-0.1-0.2-0.2-0.4-0.2-0.4c0-0.1-0.1-0.2-0.1-0.2c0,0-0.1-0.1-0.1-0.2c0-0.1-0.1-0.2-0.1-0.2
		c0,0-0.1-0.1-0.1-0.1c0,0,0-0.1-0.1-0.2c0-0.1-0.1-0.2-0.1-0.3c-0.1-0.3-0.2-0.6-0.5-1.2c-0.3-0.6-0.4-0.8-0.6-0.9
		c-0.1-0.1-0.1-0.2-0.1-0.2c-0.1-0.1-0.3-0.5-0.5-0.7c-0.1-0.1-0.2-0.2-0.2-0.4c-0.1-0.1-0.2-0.3-0.4-0.5c-0.1-0.2-0.2-0.3-0.2-0.3
		c0,0,0-0.1-0.1-0.1c0,0-0.1-0.1-0.1-0.2c-1.3-1.8-3.1-3.3-5-4C26.8,6.9,26.1,6.7,25.3,6.7L25.3,6.7z M25.1,7.1
		c2.8,0.1,5.3,1.7,7.1,4c0.1,0.2,0.5,0.6,0.7,1c0.3,0.4,0.6,0.8,0.7,1c0.3,0.5,0.5,0.7,1,1.7c0.2,0.4,0.4,0.7,0.4,0.8
		c0.1,0.1,0.1,0.2,0.1,0.4c0.1,0.3,0.2,0.5,0.3,0.9c0.3,0.8,0.8,2,0.9,2.3c0,0.1,0.1,0.3,0.1,0.5c0.3,0.8,0.7,2.4,0.7,3.1
		c0.1,0.8,0.2,2.4,0.2,3.7c0,0.9,0,1.1,0,1.1c0,0-0.1-0.4-0.2-1.2c-0.2-1.5-0.3-2-0.9-4.4c-0.5-2.2-0.7-2.8-1.1-3.6
		c-0.1-0.2-0.2-0.4-0.2-0.5c-0.1-0.3-0.5-1.4-0.7-1.8c0-0.1-0.2-0.4-0.4-0.7c-0.3-0.6-0.5-1-0.9-1.3c-0.3-0.3-0.5-0.6-0.9-1.1
		c-0.3-0.4-0.8-1-1.4-1.6c-0.3-0.3-0.6-0.6-0.7-0.7c-0.1-0.2-0.4-0.4-0.7-0.7c-1.3-1.1-3.2-2.3-6.1-1.9c-0.4,0-0.8,0.1-1,0.2
		c-0.2,0.1-0.3,0.2-0.4,0.3c0,0.1,0,0.1,0,0.1c0,0,0.1,0,0.3,0c0.1,0,0.3-0.1,0.4-0.1c2.6-0.7,5.1,0.3,6.6,1.7
		c0.3,0.3,1.6,1.7,2.4,2.5c0.5,0.6,1.4,1.7,1.8,2.3c0.3,0.4,0.4,0.6,0.8,1.4c0.4,0.8,0.4,0.9,0.7,1.7c0.1,0.3,0.3,0.7,0.3,0.8
		c0.2,0.5,0.6,1.8,0.8,2.8c0.2,1,0.4,1.6,0.4,1.8c0.1,0.3,0.2,0.9,0.5,3c0.1,0.8,0.2,1.7,0.2,1.8c0,0.3,0,0.4,0,0.4
		c-0.1,0-0.4-0.6-0.8-1.6c-0.1-0.3-0.2-0.6-0.2-0.6c0,0-0.1-0.2-0.1-0.2c0-0.1-0.1-0.4-0.2-0.7c-0.1-0.3-0.2-1-0.4-1.5
		c-0.3-1.1-0.9-3.4-1.1-4c-0.3-0.8-0.7-2.1-1.1-3C32.8,16,32.4,15,32,14.4c-0.5-0.8-0.8-1.1-2.2-2.5c-0.6-0.6-0.8-0.8-1.1-1
		c-1.5-1.1-3.7-2.4-5.7-2c-0.1,0-0.2,0.1-0.3,0.1c-0.1,0-0.2,0.1-0.2,0.1c0,0-0.1,0.1-0.1,0.1c-0.2,0.1-0.2,0.1-0.1,0.2
		c0.1,0.1,0.2,0,0.5-0.1c0.2-0.2,0.4-0.1,0.7-0.1c1.4,0,2.8,0.5,4.2,1.3c0.9,0.6,1.7,1.3,2.4,2c1,1,1.8,1.9,1.9,2.2
		c0,0.1,0.1,0.2,0.2,0.3c0.2,0.3,0.4,0.7,0.6,1.3c0.1,0.3,0.3,0.6,0.3,0.8c0.3,0.8,0.4,1,0.8,2.2c0.7,2.1,0.9,2.8,1.5,5.1
		c0.1,0.5,0.3,1.1,0.4,1.4c0.3,1,0.3,1,0.3,1.1c0,0,0,0.1,0,0.1c0,0-0.2-0.3-0.6-1.2c-0.7-1.4-0.8-1.6-1.4-3.5
		c-0.3-0.9-0.6-1.8-0.7-2c-0.1-0.1-0.1-0.3-0.1-0.4c0-0.1,0-0.2-0.1-0.2c0-0.1-0.1-0.3-0.2-0.5c-0.2-0.5-0.2-0.7-0.5-1.5
		c-0.3-0.9-0.4-1.2-0.8-1.9C31,15,30.7,14.4,30.3,14c-0.1-0.1-0.4-0.4-0.6-0.7c-0.5-0.6-0.6-0.7-1-1c-1.3-1-3.6-2.1-5.3-2.3
		c-0.5,0-0.8,0.1-1,0.2c-0.1,0.1,0,0.3,0.2,0.2c2.2-0.5,4.9,1.3,6.4,2.6c0.6,0.7,1.3,1.5,1.4,1.7c0,0.1,0.1,0.2,0.2,0.3
		c0.2,0.3,0.8,1.5,1,2.1c0,0.1,0.2,0.5,0.3,0.8c0.3,0.7,0.4,1.2,0.6,1.8c0.2,0.8,0.6,1.8,0.9,2.7c0.2,0.5,0.3,0.9,0.6,1.8
		c0.1,0.3,0.2,0.6,0.5,1.1c0.3,0.6,0.5,1.1,1.1,2c0.2,0.3,0.4,0.6,0.9,1.2c0.5,0.6,0.5,0.6,0.8,0.7c0.1,0,0.2,0.1,0.1,0.2
		c0,0.1-0.1,0-0.3,0c-0.2-0.1-0.5-0.3-0.7-0.5c-0.1-0.1-0.3-0.3-0.5-0.5c-0.2-0.1-0.3-0.3-0.5-0.5c-0.1-0.2-0.4-0.5-0.6-0.7
		c-0.2-0.2-0.4-0.5-0.5-0.7c-0.4-0.6-1.4-2.6-1.7-3.6c-0.1-0.2-0.2-0.4-0.2-0.5c0-0.1-0.1-0.2-0.1-0.4c0-0.1-0.1-0.4-0.2-0.6
		c-0.2-0.5-0.3-1-0.6-1.8c-0.2-0.7-0.2-0.9-0.3-1.1c0-0.1-0.1-0.3-0.2-0.4c-0.2-0.6-0.6-1.4-1-2c-0.1-0.2-0.2-0.3-0.2-0.3
		c0,0,0-0.1-0.1-0.1c0,0-0.1-0.2-0.2-0.3c-0.2-0.3-0.3-0.6-0.7-1c-0.1-0.2-0.3-0.4-0.4-0.6c-1-1.1-1.8-1.7-3-2.1
		c-0.9-0.3-2.2-0.4-2.8-0.2c-0.2,0-0.3,0.1-0.3,0.2c0.4,0.1,2.2-0.2,3.9,0.7c0.6,0.3,1.2,0.9,1.9,1.5c0.1,0.2,0.7,1.1,1.2,1.7
		c0.3,0.5,1,1.8,1.2,2.3c0.2,0.6,0.5,1.5,0.8,2.5c0.1,0.5,0.2,0.7,0.4,1.2c0.1,0.3,0.1,0.3,0,0.4c-0.2,0.2-0.4,0.7-0.7,1.4
		c-0.1,0.2-0.2,0.5-0.3,0.7c-0.1,0.2-0.2,0.5-0.3,0.7C30,26,30,26,29.6,26.7c-0.4,0.7-0.8,1.4-1.1,1.7c-0.1,0.1-0.2,0.3-0.4,0.5
		c-0.3,0.4-0.5,0.6-0.8,1c-0.3,0.3-1.3,1.2-1.5,1.4c-0.6,0.5-1.3,0.7-1.9,0.6c-0.3,0-0.6-0.2-1.2-0.4c-0.3-0.1-0.7-0.3-0.8-0.4
		c-1.1-0.5-1.8-1.1-2.6-2.1c-0.1-0.2-0.2-0.3-0.3-0.3c0,0-0.1-0.1-0.1-0.1c-0.3-0.5-0.5-0.7-0.8-1.2c0,0-0.1-0.1-0.1-0.1
		c0-0.1-0.1-0.2-0.2-0.3c-0.2-0.3-0.3-0.5-0.4-0.9c-0.1-0.4-0.3-0.9-0.4-1c0-0.1-0.1-0.2-0.1-0.6c0-0.6,0-0.7,0.2-1.1
		c0.1-0.2,0.1-0.3,0.1-0.3c0,0-0.1,0-0.2,0c0,0,0,0.1,0,0.1c0,0-0.2,0.3-0.3,0.3c-0.1,0-0.1,0-0.2,0c0,0-0.1,0-0.1,0
		c-0.1,0-0.1,0-0.2,0c-0.1,0-0.1-0.1-0.2-0.1c0,0-0.2-0.2-0.4-0.4c-0.1-0.2-0.3-0.6-0.4-0.8c-0.1-0.4-0.2-1.9-0.1-2.4
		c0.1-0.6,0.3-1.1,0.5-1.2c0.1-0.1,0.3,0,0.5,0.2c0.1,0.1,0.1,0.2,0.2,0.3c0,0.1,0.1,0.3,0.2,0.3c0.1,0,0.1,0,0.1,0
		c0,0,0.1,0,0.1-0.1c0.2,0,0.2-0.1,0.2-0.8c0.1-0.9,0.1-1.1,0.3-1.4c0.1-0.1,0.2-0.5,0.3-0.7c0.2-0.5,0.2-0.5,0.4-0.8
		c0.2-0.4,0.4-0.6,0.4-0.7c0,0,0-0.1,0.1-0.1c0,0,0.1-0.2,0.2-0.3c0.3-0.5,1.5-1.7,1.7-1.8c0.1,0,0.1-0.1,0.1-0.1
		c0,0,0.3-0.1,0.8-0.3c0.8-0.3,0.9-0.3,0.8-0.5c-0.1-0.1-0.2-0.1-0.4,0c-0.3,0.1-0.6,0.2-0.7,0.3c-0.1,0-0.2,0.1-0.4,0.2
		c-0.4,0.2-0.6,0.3-0.9,0.6c-0.3,0.3-1.2,1.2-1.3,1.4c-0.4,0.6-0.4,0.7-0.7,1.3c-0.1,0.2-0.2,0.4-0.2,0.4c-0.2,0.3-0.5,1-0.6,1.5
		c0,0.1-0.1,0.3-0.1,0.4c0,0.1,0,0.3-0.1,0.3c0,0,0,0-0.1,0c-0.1-0.1-0.1-0.2-0.1-0.5c0-0.4,0.2-1.4,0.3-1.7c0-0.2,0.1-0.4,0.2-0.5
		c0-0.1,0.1-0.4,0.2-0.5c0.1-0.2,0.2-0.4,0.3-0.7c0.2-0.4,0.3-0.6,0.5-1c0.1-0.2,0.2-0.3,0.2-0.4c0,0,0.1-0.1,0.1-0.1
		c0,0,0.1-0.1,0.2-0.2c0.1-0.1,0.2-0.2,0.2-0.2c0,0,0.3-0.2,0.5-0.4c0.3-0.3,0.5-0.5,0.7-0.6c0.3-0.2,0.5-0.3,1-0.5
		c0.1,0,0.3-0.1,0.4-0.2c0.1-0.1,0.3-0.1,0.4-0.1c0.3-0.1,0.3-0.1,0.3-0.2c0-0.1-0.6-0.1-1.5,0.2c-0.6,0.2-0.7,0.3-1.8,1.2
		c-0.8,0.7-1,1-1.4,1.8c-0.4,0.9-0.7,1.6-0.8,2c0,0.1,0,0.2-0.1,0.3c-0.1,0.2-0.2,0.5-0.3,1.2c-0.1,0.4-0.1,0.7-0.1,0.7
		c0,0.1-0.1,0.1-0.1,0c0-0.1,0-0.2-0.1-0.5c0-0.7,0.1-1.6,0.2-2.1c0.2-0.7,0.6-1.8,1-2.5c0.4-0.7,0.7-1.2,0.9-1.3
		c0.3-0.3,0.7-0.7,0.9-0.9c0.1-0.1,0.3-0.2,0.3-0.3c0.1-0.1,0.2-0.1,0.3-0.2c0.1,0,0.2-0.1,0.3-0.2c0.1-0.1,0.3-0.2,0.5-0.3
		c0.3-0.1,1-0.4,1.3-0.4c0.2,0,0.3-0.1,0.3-0.2C22,9,22,9,21.3,9.1c-0.4,0.1-0.5,0.1-0.6,0.1c0,0-0.1,0-0.1,0
		c-0.2,0-0.3,0.1-0.6,0.3c-0.1,0.1-0.4,0.2-0.6,0.3c-0.2,0.1-0.4,0.2-0.5,0.3c-0.1,0.1-0.3,0.2-0.4,0.3c-0.1,0.1-0.3,0.2-0.3,0.3
		c-0.2,0.3-0.8,1-0.9,1.1c0,0.1-0.2,0.3-0.3,0.6c-0.6,0.9-1,1.9-1.2,2.7c0,0.1-0.1,0.6-0.2,1c-0.1,0.8-0.1,0.8-0.1,1.1
		c0,0.6,0,0.7,0,0.8c0,0.1-0.1,0.1-0.1,0.1c0,0-0.1-0.1-0.2-0.4c-0.2-0.6-0.3-1.1-0.3-2c0-0.7,0-1,0.1-1.6c0.1-0.6,0.1-0.7,0.5-1.3
		c0.3-0.6,0.4-0.7,0.7-1.1c0.1-0.1,0.2-0.3,0.2-0.4c0.1-0.2,0.3-0.5,0.8-1C17.8,9.9,18.6,9.2,19,9c0.3-0.2,0.6-0.4,0.8-0.4
		c0.1,0,0.3-0.1,0.5-0.1c0.2,0,0.4-0.1,0.4-0.1c0.1,0,0.1,0,0.3,0c0.2,0,0.2,0,0.3,0c0,0,0.1,0,0.1-0.1c0,0,0.1-0.1,0.1-0.1
		c0.2-0.2,0.3-0.4,0.7-0.6C23.2,7.2,24.2,7.1,25.1,7.1L25.1,7.1z M14.6,15.4c0,0.1,0,0.3,0,0.4c0,0.1,0,0.4,0,0.6
		c0,0.7,0,1.1-0.3,1.8c-0.1,0.2-0.2,0.5-0.2,0.6c-0.2,0.8-0.4,1.4-0.7,2.4c-0.4,1.3-0.8,2.6-1,3.3c-0.1,0.4-0.2,1-0.3,1.5
		c0,0.2-0.1,0.5-0.1,0.7c0,0.2,0,0.4-0.1,0.6c0,0.4,0,3.1,0,3.5c0.1,0.7,0.2,1.4,0.4,2.1c0.2,0.5,0.4,1.4,0.6,1.7
		c0,0.1,0.1,0.4,0.2,0.7c0.2,0.5,0.3,0.9,0.6,1.5c1.1,2.1,2.1,3.6,4.7,4.3c0.1,0,0.3,0,0.3,0c0.2,0,0.3,0.1,0.2,0.1
		c-0.1,0.1-0.3,0.2-0.5,0.3c-0.1,0.1-0.2,0.1-0.4,0.1c-2.3-0.1-4-1.2-5.1-3.2c-0.1-0.3-0.3-0.6-0.4-0.7c-0.1-0.1-0.2-0.3-0.2-0.4
		c0-0.1-0.1-0.2-0.2-0.3c0-0.1-0.1-0.3-0.2-0.4c-0.1-0.2-0.1-0.3-0.2-0.4c-0.1-0.1-0.1-0.2-0.1-0.2c0-0.1,0-0.1-0.1-0.2
		c0,0-0.1-0.2-0.1-0.3c0-0.1-0.1-0.3-0.1-0.4c-0.1-0.3-0.3-1.2-0.4-2c0-0.3-0.1-0.7-0.1-0.8c-0.1-0.4-0.1-1-0.1-2.8l0-1.8l0.1-0.5
		c0.1-0.6,0.2-1.3,0.4-2.2c0.2-1.1,0.2-1.2,0.8-2.9c0.5-1.5,0.5-1.5,0.8-2c0.1-0.3,0.3-0.7,0.4-0.9c0.1-0.3,0.3-0.6,0.3-0.8
		c0.1-0.2,0.2-0.4,0.2-0.5c0-0.1,0.1-0.2,0.1-0.2c0.1-0.1,0.2-0.8,0.2-1.3c0-0.2,0-0.4,0-0.4C14.5,15.9,14.5,15.7,14.6,15.4
		L14.6,15.4z M22,17.7c-0.1,0-0.2,0-0.4,0c-0.8,0.1-1.2,0.2-1.5,0.5c-0.2,0.2-0.3,0.3-0.2,0.4c0.1,0.1,0.3,0,0.5-0.2
		c0.2-0.2,0.4-0.2,0.7-0.3c0.3-0.1,0.8-0.1,1.2-0.1c0.1,0,0.3,0,0.4,0.1c0.2,0,0.3,0.1,0.5,0.1c0.3,0.1,0.5,0.2,0.5,0.2
		c0,0,0-0.1,0-0.1c-0.1-0.3-0.6-0.5-1.3-0.6C22.2,17.7,22.1,17.7,22,17.7L22,17.7z M14.8,17.8c0,0,0.2,0.4,0.3,0.7
		c0.1,0.2,0,0.4-0.2,0.4c-0.4,1.4-0.4,1.2-0.8,3c-0.1,0.3-0.1,0.3-0.3,1.1c-0.1,0.4-0.2,0.8-0.3,1.1c-0.2,0.7-0.3,1.2-0.4,2.1
		c-0.1,0.6-0.1,2.9,0,3.6c0.1,1.2,0.2,1.9,0.3,2.1c0.1,0.1,0.3,0.8,0.4,1c0.2,0.5,0.9,1.9,1.4,2.8c0.5,0.8,0.9,1.3,1.5,2.1
		c0.2,0.2,0.5,0.6,0.6,0.7c0.6,0.7,1.2,1.4,1.8,2.1c0.1,0.2,0.2,0.3,0.3,0.4c-0.1,0-0.2,0-0.3,0c-0.1,0-0.2,0-0.3,0c0,0-0.1,0-0.2,0
		c-0.1,0-0.2,0-0.2,0c-0.1,0-0.1,0-0.1,0c-1.2-0.7-1.9-0.9-2.9-2c-0.1-0.1-0.5-0.7-0.8-1.1c-0.1-0.2-0.9-1.7-1-2
		c-0.1-0.3-0.3-0.8-0.4-1.4c-0.1-0.3-0.2-0.7-0.2-0.7c0,0,0-0.1,0-0.1c0,0,0-0.1-0.1-0.2c0-0.1-0.1-0.2-0.1-0.4
		c-0.1-0.3-0.3-1.4-0.4-1.7c-0.1-0.4-0.1-1.2-0.1-2.4c0-1,0-1.3,0-1.5c0-0.1,0.1-0.5,0.1-0.7c0.1-0.9,0.2-1.4,0.4-2.3
		c0.2-0.8,0.4-1.3,0.8-2.7c0.4-1.3,0.6-1.9,0.7-2.5C14.6,18.2,14.7,17.8,14.8,17.8L14.8,17.8z M28.4,18.8c-0.1,0-0.1,0-0.2,0
		c-0.1,0-0.4,0.2-0.5,0.3l-0.1,0.1l0,0.1c0.1,0.2,0.1,0.2,0.4,0.1c0.2-0.2,0.4-0.2,0.6-0.2c0.2,0,0.2,0,0.6,0.1
		c0.2,0.1,0.4,0.1,0.4,0.1c0.1,0,0.3,0.1,0.5,0.4c0.1,0.1,0.2,0.2,0.3,0.2c0.1,0.1,0.1,0.1,0.2,0c0.2-0.2,0-0.5-0.4-0.7
		c-0.4-0.2-0.7-0.3-1.4-0.3C28.6,18.8,28.5,18.8,28.4,18.8L28.4,18.8z M21.8,18.9c-0.4,0-0.4,0-0.9,0.2c-0.2,0.1-0.4,0.1-0.6,0.2
		c-0.5,0.1-0.7,0.2-0.7,0.3c0,0.1,0.2,0.2,0.3,0.3c0.2,0.1,2,0.7,2.1,0.7c0.1,0,0.2,0,0.3,0c0.2,0,0.2,0,0.6,0
		c0.4,0,0.4-0.1,0.5-0.2c0-0.2-0.1-0.5-0.1-0.7c-0.1-0.2-0.3-0.5-0.5-0.5C22.4,19,22.2,18.9,21.8,18.9L21.8,18.9z M21.3,19.4l0,0.1
		c0,0.1,0,0.2,0,0.3c0,0.1,0,0.2,0,0.2c-0.1,0-0.2-0.1-0.3-0.1c-0.1,0-0.3-0.1-0.3-0.1c0,0,0-0.1,0-0.1
		C20.7,19.6,21.1,19.4,21.3,19.4L21.3,19.4z M22.7,19.6c0,0,0.3,0.3,0.3,0.4c0,0.1,0,0.2-0.1,0.2c-0.1,0-0.1,0.1-0.3,0.1l-0.3,0
		l0.1-0.1c0.1-0.1,0.2-0.3,0.2-0.5C22.7,19.6,22.7,19.6,22.7,19.6L22.7,19.6z M16.5,20.4C16.5,20.4,16.5,20.4,16.5,20.4
		c-0.2,0.2-0.4,0.7-0.4,1c0,0.3,0.1,0.5,0.3,0.6c0.1,0.1,0.3,0.1,0.3,0c0.1-0.1,0.1,0-0.1-0.2c-0.1-0.1-0.3-0.3-0.3-0.5
		c0-0.1,0.1-0.3,0.2-0.4c0.1-0.1,0.1-0.2,0.2-0.2c0-0.1,0-0.1,0-0.1C16.7,20.5,16.6,20.4,16.5,20.4C16.5,20.4,16.5,20.4,16.5,20.4
		L16.5,20.4z M28.9,20.6c-0.4,0-0.7,0.2-1.1,0.3c-1,0.3-0.4,0.6,0.1,0.8c0.6,0.2,1.2,0.4,1.8,0.5c0.3,0,0.6,0,0.8-0.1
		c0.1-0.1,0.1-0.3,0.1-0.4c0-0.3-0.2-0.7-0.5-0.9C29.7,20.6,29.3,20.6,28.9,20.6C28.9,20.6,28.9,20.6,28.9,20.6L28.9,20.6z
		 M14.9,20.6c0,0,0,0.1,0.1,0.5c0,0.2,0,0.6,0.1,0.8c0,0.2,0.1,0.5,0.1,0.7c0,0.3,0,0.3-0.1,0.6c-0.2,0.7-0.5,2.2-0.6,3.1
		c0,0.6,0,1.3,0.1,2.2c0,0.4,0.1,0.8,0.1,0.9c0.1,0.7,0.5,1.9,0.8,2.7c0.1,0.1,0.2,0.4,0.2,0.5c0.2,0.5,0.7,1.4,1,1.9
		c0.2,0.3,0.5,0.8,0.7,1.1c0.7,1,0.9,1.3,1.5,2.5c0.5,0.9,0.9,1.5,1.2,2.4c0,0-0.1,0-0.1,0.1c-0.1,0.1-0.2,0.2-0.3,0.3
		c0-0.1-0.1-0.1-0.1-0.1c0,0,0,0,0-0.1c0,0,0-0.1,0-0.1c0,0-0.1-0.1-0.1-0.2c-0.4-0.6-0.7-1.3-1.3-1.8c-0.1-0.2-0.3-0.4-0.6-0.8
		c-0.2-0.2-0.3-0.4-0.3-0.4c0-0.1-0.4-0.5-0.4-0.5c0,0-0.1-0.1-0.3-0.3c-0.1-0.1-0.2-0.2-0.2-0.3c-0.1-0.1-0.2-0.2-0.2-0.3
		c-0.1-0.1-0.1-0.2-0.1-0.2c0,0-0.1,0-0.1-0.1c-0.1-0.2-0.3-0.7-0.6-1c-0.1-0.1-0.2-0.3-0.2-0.4c0-0.1-0.1-0.2-0.1-0.3
		c0-0.1-0.1-0.2-0.2-0.4c0-0.1-0.1-0.3-0.2-0.3c-0.1-0.2-0.1-0.2-0.3-0.6c-0.1-0.2-0.2-0.5-0.3-0.7c-0.5-1.2-0.6-2-0.5-4
		c0-1.4,0.1-2.2,0.2-2.8c0-0.1,0.1-0.3,0.1-0.4c0-0.4,0.4-1.8,0.6-2.5c0-0.1,0.1-0.3,0.1-0.5c0-0.1,0.1-0.3,0.1-0.4
		c0.1-0.1,0.1-0.4,0.2-0.5C14.9,20.8,14.9,20.6,14.9,20.6L14.9,20.6z M26.4,20.7c-0.1,0-0.2,0.1-0.3,0.3c-0.5,0.7-0.6,1.4-0.3,2.4
		c0,0.2,0.1,0.4,0.1,0.6c0,0.3,0.1,0.8,0,0.8c0,0.1-0.1,0-0.4-0.1c-0.1-0.1-0.3-0.1-0.4-0.1c-0.1,0-0.4,0-0.7,0
		c-0.5,0-0.5,0-0.7-0.1c-0.1,0-0.1-0.1-0.2-0.1c-0.1-0.1-0.2-0.3-0.3-0.3c-0.1,0-0.1,0.1-0.1,0.2c0,0.1,0.2,0.4,0.3,0.5
		c0.2,0.1,0.3,0.1,0.8,0.1c0.4,0,0.5,0,0.6,0c0.2,0.1,0.3,0.1,0.4,0.2c0.1,0,0.1,0.1,0.2,0.1c0.2,0.1,0.5-0.1,0.6-0.3
		c0.1-0.2,0.1-0.5,0.1-1c0-0.5,0-0.7-0.1-1c-0.1-0.4,0-1.4,0.2-1.7C26.5,21.2,26.6,20.8,26.4,20.7C26.5,20.7,26.5,20.7,26.4,20.7
		L26.4,20.7z M28.5,21C28.5,21,28.5,21,28.5,21c-0.1,0.2,0,0.4-0.1,0.6c-0.2-0.1-0.4-0.1-0.6-0.2c-0.1-0.1,0.1-0.2,0.2-0.2
		C28.1,21.1,28.3,21,28.5,21L28.5,21z M29.7,21.2c0.2,0.1,0.3,0.3,0.4,0.5c0,0.2-0.2,0.2-0.3,0.2c-0.1,0-0.1,0-0.3,0
		c0.2-0.2,0.3-0.4,0.3-0.6C29.9,21.3,29.7,21.2,29.7,21.2L29.7,21.2z M31.9,22.5c0,0,0.1,0.2,0.2,0.8c0.1,1,0.1,0.9,0.1,3.5
		c0,2.1,0,2.5,0,2.7c0,0.1,0.1,0.4,0.1,0.7c0.1,1.1,0.2,1.5,0.8,3.3c0.6,1.9,0.8,2.4,0.9,3c0.1,0.2,0.1,0.5,0.2,0.7
		c0,0.2,0.1,0.4,0.1,0.5c0,0.1,0.1,0.4,0.1,0.6c0.2,0.9,0.4,1.9,0.4,2.7c0,0.3,0,0.5,0,0.7c0,0.3,0,0.2-0.1-0.3
		c-0.1-0.7-0.2-1.6-0.4-1.9c0-0.1-0.1-0.2-0.1-0.3c-0.1-0.4-0.2-0.8-0.3-0.9c0,0-0.1-0.1-0.1-0.2c0-0.1-0.1-0.3-0.2-0.5
		c-0.1-0.2-0.2-0.6-0.3-0.9c-0.1-0.3-0.3-0.8-0.4-1.1c-0.1-0.3-0.3-0.8-0.4-1c-0.1-0.3-0.3-0.8-0.4-1.1c-0.2-0.7-0.4-1.4-0.5-1.6
		c0-0.1,0-0.2-0.1-0.3c-0.2-0.4-0.5-2.6-0.5-3c0-0.1,0-0.5-0.1-0.8C31,26.6,31,26,31,25.3c0-0.6,0-0.7,0.1-0.9
		C31.3,23.7,31.8,22.5,31.9,22.5L31.9,22.5z M15.4,23.1C15.4,23.1,15.5,23.2,15.4,23.1c0.1,0.1,0.1,0.4,0.1,0.7
		c-0.2,0.9-0.2,2.5-0.1,3.8c0.1,1.5,0.5,2.4,1.3,3.9c0.2,0.3,0.5,0.8,0.7,1.2c0.5,1,0.8,1.5,1,1.9c0.2,0.4,0.5,0.9,0.8,1.6
		c0.1,0.3,0.4,0.9,0.6,1.3c0.9,1.9,1.4,3.9,1.2,4.7c0,0.1,0,0.1-0.1,0.2c0-0.1-0.1-0.2-0.1-0.3c-0.1-0.1-0.1-0.1,0-0.2
		c0-0.1,0-0.1,0-0.5c-0.1-0.9-0.2-0.9-0.5-1.6c-0.1-0.2-0.2-0.4-0.2-0.5c-0.1-0.3-0.4-0.6-0.6-0.9c-0.1-0.1-0.1-0.2-0.2-0.4
		c-0.1-0.2-0.2-0.4-0.2-0.5c-0.1-0.1-0.1-0.2-0.1-0.3c0,0-0.1-0.3-0.3-0.5c-0.2-0.4-0.3-0.5-0.3-0.5c0,0-0.1-0.1-0.1-0.1
		c0-0.1-0.1-0.2-0.1-0.2c-0.1-0.1-0.1-0.2-0.2-0.3c0-0.1-0.2-0.2-0.2-0.3c-0.2-0.2-0.5-0.7-0.6-0.9c-0.1-0.2-0.2-0.4-0.3-0.5
		c-0.1-0.1-0.5-0.8-0.5-1c0-0.1-0.1-0.3-0.2-0.5c-0.3-0.6-0.6-1.4-0.7-1.8c0-0.1-0.1-0.2-0.1-0.2c0,0-0.1-0.1-0.1-0.2
		c0-0.1,0-0.2-0.1-0.3C15,29.7,15,29.7,15,29.1c0-0.3-0.1-0.6-0.1-0.9c0-0.5,0-2,0-2.3c0.1-1.1,0.3-2.2,0.4-2.6
		C15.3,23.3,15.4,23.2,15.4,23.1C15.4,23.2,15.4,23.1,15.4,23.1L15.4,23.1z M16,23.6C16,23.6,16,23.6,16,23.6
		c0.1,0.2,0.1,0.2,0.1,0.4c0,0.1,0,0.3,0,0.5C16,24.8,16,25.7,16,26c0,0.3,0.4,1.9,0.6,2.3c0,0.1,0.1,0.4,0.2,0.6
		c0.5,1.4,1.3,3.2,2.1,4.6c0.2,0.3,0.3,0.6,0.5,0.9c0.1,0.2,0.2,0.3,0.2,0.4c0,0,0.1,0.1,0.1,0.2c0,0.1,0.3,0.6,0.6,1.1
		c0.4,0.6,0.6,0.9,1.1,2.1c0.6,1.1,1.1,2.3,1.2,3.6c-0.3-0.1-0.5-0.7-0.9-1.6c-0.4-0.9-0.9-1.6-1.4-2.3c-0.1-0.1-0.3-0.5-0.3-0.6
		c0,0,0-0.1,0-0.1c0,0-0.1-0.2-0.1-0.3c0-0.1-0.1-0.3-0.2-0.4c-0.1-0.1-0.2-0.5-0.4-0.8C19.2,35.4,19,35.1,19,35
		c-0.1-0.2-0.2-0.4-0.3-0.6c0-0.1-0.1-0.2-0.2-0.3c-0.1-0.1-0.2-0.3-0.2-0.4c-0.1-0.1-0.1-0.2-0.2-0.2c0,0-0.1-0.1-0.1-0.2
		c0-0.1-0.7-1.4-0.7-1.4c0,0,0-0.1,0-0.1c-0.1-0.2-0.3-0.4-0.4-0.6c0,0-0.1-0.1-0.1-0.2c0-0.1-0.1-0.2-0.2-0.4
		c-0.1-0.1-0.2-0.3-0.2-0.5c0-0.1-0.1-0.2-0.1-0.2c0,0-0.1-0.1-0.1-0.3c0-0.1-0.1-0.3-0.1-0.4c-0.3-0.6-0.3-1.4-0.3-3
		C15.7,24.6,15.8,23.6,16,23.6L16,23.6z M16.5,23.8c0.1,0,0.1,0.2,0.2,0.4c0,0.4,0.3,1.2,0.5,1.9c0.1,0.2,0.2,0.4,0.2,0.5
		c0.1,0.2,0.6,1.2,0.7,1.4c0,0,0.1,0.3,0.3,0.5c0.1,0.2,0.3,0.5,0.4,0.7c0.2,0.4,0.4,0.8,0.8,1.4c0.1,0.3,0.5,1,0.8,1.6
		c0.3,0.6,0.6,1.2,0.7,1.4c0.6,1.4,1.2,3.1,1.3,4.7c0,0,0,0.1,0,0.1c0,0,0,0,0-0.1c0-0.1,0-0.1-0.1-0.1c-0.5-0.6-0.6-1.3-1.1-1.9
		c0,0-0.1-0.2-0.2-0.4c-0.1-0.2-0.2-0.4-0.4-0.6c-0.1-0.2-0.3-0.4-0.3-0.5c-0.1-0.1-0.2-0.4-0.3-0.5c-0.1-0.1-0.2-0.4-0.3-0.6
		c-0.2-0.5-0.4-0.7-0.5-0.8c0,0-0.1-0.1-0.1-0.1c0-0.1,0-0.2-0.1-0.2c-0.1-0.1-0.3-0.5-0.4-0.7c0-0.1-0.1-0.2-0.1-0.2
		c0,0-0.1-0.1-0.1-0.2c-0.6-1.5-0.6-0.9-0.9-2.2c-0.1-0.2-0.2-0.4-0.2-0.6c0-0.1-0.1-0.3-0.1-0.3c0-0.1,0-0.1-0.1-0.2
		c-0.1-0.1-0.2-0.4-0.3-1c-0.1-0.3-0.2-0.6-0.2-0.7c-0.1-0.5-0.2-0.8-0.2-1.4C16.3,24.3,16.4,23.8,16.5,23.8L16.5,23.8z M32.8,24.6
		c0,0,0.1,0.2,0.2,0.3c0.1,0.2,0.3,0.6,0.5,1c0.3,0.5,0.3,0.7,0.3,0.7c0,0,0,0.1-0.1,0.2c-0.2,0.4-0.3,0.7-0.3,1.2
		c0,0.7,0.1,1.8,0.4,2.4c0.1,0.1,0.1,0.3,0.2,0.5c0.2,0.5,0.3,0.9,0.5,1.5c0.1,0.4,0.3,0.8,0.4,1.1c0.1,0.3,0.2,0.6,0.3,0.8
		c0.2,0.5,0.3,1,0.5,1.8c0.2,1,0.2,1.2,0.2,2.4c0,0.8,0,1,0,1.3c-0.1,0.7-0.2,1.3-0.4,1.8c-0.1,0.2-0.1,0.3-0.2,0.4
		c0,0.1,0,0.1-0.1,0.1c0,0-0.1,0-0.1,0c0,0,0-0.1,0-0.2c0.1-0.5,0.1-1.4,0-2.1c0-0.2-0.1-0.5-0.1-0.6c0-0.2-0.1-0.8-0.5-2.5
		c-0.1-0.4-0.3-1.1-0.4-1.3c0-0.1-0.1-0.2-0.1-0.3c0-0.1,0-0.2-0.1-0.3c0-0.1-0.1-0.2-0.1-0.3c0-0.1-0.1-0.2-0.1-0.4
		c0-0.1-0.1-0.4-0.2-0.6c-0.1-0.2-0.2-0.6-0.3-0.9c-0.5-1.5-0.8-2.8-0.8-4C32.7,27.9,32.7,25.1,32.8,24.6
		C32.8,24.6,32.8,24.6,32.8,24.6L32.8,24.6z M30.6,25.7C30.6,25.7,30.6,25.7,30.6,25.7c0,0,0,0.3,0,0.6c0,1.7,0.2,3.8,0.4,4.9
		c0.3,1.3,0.8,2.7,1.4,4.4c0.7,1.9,1.2,3.2,1.4,3.7c0.3,0.9,0.4,1.7,0.5,2.5c0,0.3,0,0.3,0,0.3c0,0-0.4-0.4-0.6-0.6
		c-0.3-0.4-0.7-1.1-1.1-1.9c-0.2-0.4-0.3-0.7-0.4-0.8c0-0.1-0.1-0.2-0.1-0.2c0,0-0.1-0.1-0.1-0.2c0-0.1-0.1-0.3-0.2-0.5
		c-0.2-0.4-0.2-0.5-0.3-0.7c0-0.1-0.1-0.3-0.2-0.4c-0.1-0.1-0.1-0.3-0.1-0.4c0-0.1-0.1-0.2-0.1-0.2c0,0,0-0.1-0.1-0.2
		c0-0.1-0.1-0.2-0.1-0.4c-0.1-0.3-0.3-0.7-0.3-0.9c0-0.1,0-0.3-0.1-0.5c-0.1-0.4-0.1-0.6-0.1-0.8c0-0.3-0.1-0.6-0.1-0.7
		c0-0.1,0-0.2,0-0.4c0-0.2,0-0.6-0.1-1c-0.2-2-0.2-3.5-0.1-4.2C30.3,26.4,30.5,25.7,30.6,25.7L30.6,25.7z M21.3,26.1L21.3,26.1
		l-0.1,0.1c0,0.1,0,0.2,0,0.2c0,0,0.1,0.1,0.3,0.2c0.3,0.2,0.4,0.3,0.5,0.5c0,0,0.1,0.1,0.2,0.1c0.1,0,0.2,0.2,0.4,0.3
		c0.5,0.4,0.8,0.6,1,0.6c0.1,0,0.1,0,0.1,0.1c0,0.1,0.3,0.2,0.5,0.2c0.2,0,0.3,0,0.6-0.1c0.4-0.1,0.7-0.2,1.5-0.6
		c0.8-0.4,0.9-0.5,1-0.6c0.1-0.1,0.1-0.1,0-0.2c0,0,0,0,0,0c-0.1-0.1-0.4,0-1.1,0.2c-0.4,0.1-0.8-0.3-1-0.2c-0.1,0-0.4,0-0.6,0
		c-0.2,0-0.3-0.1-0.5-0.2c-0.8-0.1-1.7-0.1-2.2-0.5c-0.1-0.1-0.2-0.1-0.3-0.2C21.5,26.1,21.4,26.1,21.3,26.1L21.3,26.1z M21.9,26.6
		C22,26.6,22,26.6,21.9,26.6c0.6,0.3,1.1,0.6,1.7,0.6c0.1,0,0.2,0,0.2,0.1c0,0,0.2,0.1,0.3,0.2c0.2,0,0.2,0,0.6,0
		c0.4,0,0.7,0.2,1.4,0c-0.5,0.3-0.9,0.6-1.6,0.5C23.5,27.8,22.5,27.3,21.9,26.6L21.9,26.6z M34.2,27c0,0,0.2,0.2,0.5,0.6
		c0.2,0.3,0.4,0.5,0.5,0.6c0.1,0.2,0.2,0.3,0.2,0.4c0,0,0,0.1,0,0.1c-0.1,0.1-0.1,0.4-0.1,0.7c0,0.2,0.1,0.9,0.2,1.4
		c0,0.1,0.2,0.6,0.3,1c0.1,0.4,0.3,0.8,0.3,1c0,0.1,0.1,0.3,0.1,0.3c0,0,0.1,0.1,0.1,0.2c0,0.1,0.1,0.3,0.1,0.4
		c0.1,0.4,0.2,1,0.3,1.4c0,0.2,0.1,0.5,0.1,0.7c0.1,0.6,0.2,1.7,0.2,2.8l0,0.7l-0.1,0.6c-0.2,0.8-0.5,1.1-0.9,2
		c-0.1,0.1-0.1,0.2-0.1,0.3c0.3-0.7,0.4-1.3,0.5-1.8c0-0.3,0.1-2.3,0-2.8c0-0.4-0.2-1.4-0.2-1.8c0-0.1-0.1-0.4-0.2-0.6
		c-0.1-0.2-0.1-0.4-0.1-0.5c0-0.2-0.1-0.5-0.3-0.8c-0.1-0.1-0.1-0.4-0.2-0.6c-0.1-0.2-0.1-0.5-0.2-0.5c0-0.1-0.1-0.2-0.1-0.2
		c0-0.1-0.1-0.2-0.2-0.4c-0.1-0.2-0.1-0.4-0.2-0.4c0-0.1-0.1-0.3-0.2-0.4c-0.1-0.2-0.1-0.4-0.2-0.5c0-0.2-0.2-0.6-0.3-1
		c-0.1-0.4-0.2-1.2-0.2-1.7c0-0.3,0-0.3,0.1-0.6C34.1,27.2,34.1,27,34.2,27L34.2,27z M29.7,27.7l0,0.1c0,0.1,0,0.2,0,0.3
		c-0.1,0.3-0.1,0.4,0,1c0.1,1.5,0.2,2.8,0.4,4.2c0.1,0.6,0.1,0.8,0.2,1.2c0,0.2,0.1,0.5,0.2,0.8c0.1,0.5,0.1,0.5,0.4,1.3
		c0.3,0.8,0.6,1.5,0.7,1.8c0.1,0.2,0.2,0.5,0.4,0.8c0.4,0.9,0.5,1.1,0.9,1.7c0.1,0.2,0.3,0.4,0.3,0.5c0.1,0.1,0.1,0.3,0.1,0.3
		c0,0,0,0-0.1,0c-0.1,0-0.1,0-0.3-0.1c-0.3-0.1-0.4-0.2-0.8-0.7c-0.3-0.3-0.3-0.4-0.6-0.9c-0.1-0.2-0.2-0.3-0.3-0.4
		c-0.1-0.1-0.1-0.1-0.1-0.2c0-0.1-0.1-0.1-0.2-0.4c-0.1-0.1-0.2-0.3-0.2-0.4c0-0.1-0.1-0.3-0.2-0.4c-0.5-0.9-0.6-1.2-0.8-1.9
		c-0.1-0.2-0.2-0.5-0.2-0.6c-0.1-0.1-0.1-0.2-0.1-0.4c0-0.1-0.1-0.3-0.1-0.4c0-0.1-0.1-0.3-0.1-0.5c-0.1-0.4-0.1-0.6-0.1-0.6
		c0,0,0-0.1,0-0.2c0-0.1,0-0.4,0-0.6c-0.1-0.8-0.2-2.2-0.1-2.7c0-0.7,0.2-1.6,0.2-1.8c0.1-0.2,0.3-0.5,0.4-0.7L29.7,27.7z
		 M35.7,28.9c0,0,0.1,0,0.3,0.2c0.3,0.2,0.5,0.3,0.9,0.5l0.3,0.2l0,0.5c0,0.6,0.1,0.9,0.2,1.3c0,0.2,0.1,0.5,0.1,0.8
		c0,0.3,0.1,0.5,0.1,0.5c0.1,0.1,0.2,1,0.3,1.9c0.1,0.5,0.1,1.4,0.1,2.2c0,0.7-0.1,1.2-0.2,1.8c-0.2,0.7-0.3,1.1-0.6,1.7
		c-0.1,0.3-0.2,0.4-0.2,0.3c0,0,0-0.2,0.1-0.5c0.1-0.6,0.1-0.7,0.2-1c0.1-1.1,0.1-2.5-0.1-3.5c0-0.2-0.1-0.4-0.1-0.6
		c0-0.2-0.1-0.4-0.1-0.5c0-0.1-0.1-0.3-0.1-0.4c-0.1-0.6-0.1-0.8-0.3-1.1c0-0.1-0.1-0.4-0.2-0.5c-0.1-0.2-0.2-0.5-0.2-0.6
		c-0.1-0.1-0.1-0.4-0.1-0.5c0-0.1-0.1-0.4-0.2-0.7c-0.2-0.6-0.2-0.9-0.3-1.3C35.6,29.2,35.6,29,35.7,28.9
		C35.7,28.9,35.7,28.9,35.7,28.9L35.7,28.9z M28.6,29.2c0,0,0,0.1,0,0.3c0,0.1,0,0.5-0.1,0.8c0,0.7,0,2.5,0,2.6c0,0.1,0,0.3,0.1,0.5
		c0.1,0.7,0.1,1,0.3,2.1c0.1,0.4,0.3,1.1,0.4,1.3c0,0.1,0.1,0.2,0.1,0.3c0.1,0.2,0.7,1.5,1,2c0.2,0.3,0.4,0.7,0.5,0.7
		c0,0,0.1,0.1,0.1,0.1c0,0.1,0.1,0.2,0.3,0.5c0.2,0.2,0.3,0.5,0.3,0.5c0,0.1-0.2,0-0.3-0.1c0,0-0.1,0-0.1,0c0,0-0.1,0-0.1-0.1
		c0-0.1-0.1-0.1-0.1-0.1c0,0-0.1,0-0.1-0.1c-0.1-0.1-0.3-0.3-0.4-0.4c-0.1,0-0.1-0.1-0.1-0.1c0,0-0.1-0.1-0.2-0.2
		c-0.1-0.1-0.2-0.3-0.4-0.4c-0.1-0.2-0.2-0.3-0.3-0.3c0,0-0.1-0.1-0.1-0.2c0-0.1-0.1-0.2-0.2-0.3c-0.3-0.5-0.8-1.7-1-2.3
		c-0.1-0.3-0.2-0.7-0.2-0.8c0-0.1-0.1-0.2-0.1-0.3c0-0.2-0.1-0.3-0.2-1.2c0-0.2-0.1-0.3-0.1-0.3c0,0,0-0.3,0-0.6c0-0.4,0-0.6,0-0.6
		c0,0,0,0,0-0.1c0,0,0-0.1,0-0.4c0-0.7,0.1-1.5,0.2-1.7c0,0,0.1-0.2,0.1-0.2C28.1,29.8,28.6,29.2,28.6,29.2L28.6,29.2z M27.5,30.5
		c0,0,0,0.1,0,0.2c-0.1,0.3-0.1,0.8-0.1,2.1c0,1.4,0,1.3,0.2,2.1c0.1,0.5,0.2,0.8,0.3,0.9c0.1,0.1,0.1,0.3,0.2,0.6
		c0,0.1,0,0.2,0.1,0.3c0,0,0.1,0.2,0.1,0.3c0,0.2,0.2,0.5,0.4,1.1c0.1,0.3,0.2,0.5,0.2,0.6c0.1,0.2,0.6,1,0.9,1.4
		c0.1,0.1,0.1,0.2,0.1,0.2c-0.1,0-0.7-0.6-1-1c-0.1-0.2-0.3-0.4-0.4-0.5c-0.1-0.1-0.2-0.2-0.2-0.2c0,0,0-0.1,0-0.1
		c0,0-0.1-0.1-0.1-0.2c-0.1-0.2-0.1-0.2-0.2-0.2c-0.1,0.1-0.1,0.1,0,0c0-0.1,0-0.2-0.1-0.3c0,0-0.1-0.1,0-0.1c0,0,0,0,0-0.1
		c-0.1-0.1-0.2-0.5-0.2-0.6c0-0.1,0-0.2-0.1-0.3c0-0.1-0.1-0.2-0.1-0.3c0-0.1-0.1-0.2-0.1-0.2c0,0,0,0,0-0.1c0-0.1-0.1-0.4-0.1-0.5
		c0,0,0-0.1,0-0.1c0,0,0-0.1,0-0.1c-0.1-0.1-0.1-0.2-0.1-0.9c0-0.3-0.1-0.7-0.1-0.8c0-0.2,0-0.3,0-0.4c0-0.1,0.1-0.6,0.1-1.1
		c0-0.5,0.2-1,0.4-1.4C27.3,30.7,27.4,30.5,27.5,30.5L27.5,30.5z M19.8,30.6c0,0,0.5,0.2,1,0.6c1.7,1,2.2,1.3,2.8,1.4
		c0.2,0,0.2,0,0.6,0c1.1-0.1,1.5-0.3,1.9-0.9c0.2-0.3,0.3-0.3,0.4-0.3c0.1,0,0.1,0.1,0,0.3c-0.2,0.6-0.3,2.9-0.1,4
		c-0.4,0.3-0.7,0.5-1.1,0.6c-1,0.5-2,0.4-3,0.4c-0.2-1.1-0.7-2.3-1.2-3.3C21.1,33.2,21,33.1,21,33c0-0.1-0.1-0.2-0.1-0.2
		c0,0-0.1-0.1-0.1-0.2c0-0.1-0.1-0.3-0.2-0.4c-0.1-0.1-0.2-0.3-0.2-0.4c0-0.1-0.1-0.2-0.2-0.3c-0.1-0.1-0.1-0.2-0.1-0.2
		c0,0-0.1-0.2-0.2-0.3C19.8,30.7,19.8,30.6,19.8,30.6L19.8,30.6z M26.6,36C26.6,36,26.6,36.1,26.6,36c0.1,0.2,0.1,0.4,0.1,0.5
		c0,0,0,0.1,0,0.1c-0.4,0.3-0.8,0.5-1.2,0.7c-1,0.4-2,0.4-3,0.4c0-0.1,0-0.2,0-0.3c0-0.1,0-0.2,0-0.3c0.6,0.1,1.2,0,1.8-0.1
		C25.1,36.9,25.9,36.5,26.6,36L26.6,36z M26.6,36"/>
</g>
<g id="圖層_2">
</g>
</svg>
