<svg xmlns="http://www.w3.org/2000/svg" viewBox="0 0 49.6 49.6"><defs><style>.cls-1{fill:#e3eaea;}.cls-2{fill:#edf1f1;}.cls-3{fill:#b69564;stroke:#b69564;}.cls-4{fill:#636;}.cls-5{fill:#c06;}.cls-6{fill:#f3d1a2;}.cls-7{fill:#e5ddbd;}.cls-8{fill:#c0c;}.cls-9{fill:#fff;}.cls-10{fill:#322722;}</style></defs><g id="圖層_2" data-name="圖層 2"><g id="_0-ori" data-name="0-ori"><g id="圖層_2-2" data-name="圖層 2"><g id="圖層_1-2" data-name="圖層 1-2"><g id="Outline"><path id="Path_64394" data-name="Path 64394" class="cls-1" d="M48.9,24.8A24.1,24.1,0,1,1,24.8.7,24.1,24.1,0,0,1,48.9,24.8Z"/><path id="Path_64395" data-name="Path 64395" class="cls-2" d="M27.6,3.5A24.11,24.11,0,0,0,9.3,43.3,24.13,24.13,0,0,0,43.1,9.1,24.62,24.62,0,0,0,27.6,3.5Z"/><path id="Path_64396" data-name="Path 64396" class="cls-3" d="M24.8.5A24.3,24.3,0,1,0,49.1,24.8h0A24.34,24.34,0,0,0,24.8.5Zm0,.4A23.9,23.9,0,1,1,.9,24.8,23.9,23.9,0,0,1,24.8.9Z"/></g></g></g><path class="cls-4" d="M37.31,12.31h-.2a3.3,3.3,0,0,1-1.4,0,1.17,1.17,0,0,0-1.2,1.4c.1.4-.3.1-.4,0a1.09,1.09,0,0,0-1.2.4c-.1.3-.3.6-.6.6a1.51,1.51,0,0,0-1.6,1.1c0,.4-.5.3-.7.3-.4,0-.4-.4-.6-.6a1.24,1.24,0,0,0-1.5-.3c-.4-.1-.6-.5-1.1-.5a1.49,1.49,0,0,0-1.4.4,4.51,4.51,0,0,0-1.1-.3c-.4-.1-.6.2-.9.3a1.82,1.82,0,0,0-2,0,1,1,0,0,0-.7.2c-.4.2-.5.6-.8.8-.2,0-.6.1-.8,0-.2-.5-.4-1.1-1-1.2-.4-.2-1,.1-1.2-.4a1,1,0,0,0-1-.7c-.3-.1-.5.3-.7.2a2.72,2.72,0,0,0,0-.9c-.3-.8-1.3-.8-2-.6-.4,0-.8-.2-1.2-.1s-.6.6-1,.8a2.36,2.36,0,0,0-2,.5c-.3.3-.1.6-.3.9a1.37,1.37,0,0,0-.6,1.3.76.76,0,0,1-.3.9,1.13,1.13,0,0,0,.2,1.8c.3.1.4.5.4.8-.1.6.5.8.7,1.2s-.2.5-.2.7a1.82,1.82,0,0,0,1.8,1.5c.5-.1.6.4,1,.6a1.57,1.57,0,0,0,1.8-.5,7.46,7.46,0,0,0,1.2.7c.4.1.2.7.5.9.1.4.7.5.7,1s.3.8.5,1.1a2.82,2.82,0,0,0-.4,1.5,4.72,4.72,0,0,0,1,2,7.46,7.46,0,0,0-.7,1.2,2.48,2.48,0,0,0,1.3,3.1c.6.3,1.2,0,1.8-.1a3.78,3.78,0,0,1,1,1.2,2.42,2.42,0,0,1,.6,2,3.26,3.26,0,0,1-.8,1.9c-.4.6-1.2.9-1.6,1.5-.9.7-2.2.7-3.2,1-.2.1-.7,0-.6.4a10.27,10.27,0,0,1,2.4-.5,7.37,7.37,0,0,1,1.4-.4c.2.3.5.7.9.7s.5.1.5.4c.1.6.9.5,1.3.6.4-.1.4.3.5.5.3.4,1,.1,1.4.4a1.53,1.53,0,0,0,1.6,0c.2.2.4.5.7.6s.3,0,.5-.1c.4,0,.6-.5.9-.3.5.3,1-.1,1.4-.2s1.1-.1,1.4-.5.7-.3,1-.6.4-.6.6-.8.6-.2.7-.5.5-.1.7,0c1.1.6,2.3.4,3.4.6,0-.1.3-.1.2-.3-1-.2-2-.2-3-.5a6.93,6.93,0,0,1-1.7-1,3.62,3.62,0,0,1-1.5-1.5,2.93,2.93,0,0,1-.3-1,5,5,0,0,1,0-2.7c.1-.4.5-.5.9-.5a2.5,2.5,0,0,0,2.6-1.7,3.13,3.13,0,0,0-.2-1.9c-.1-.3-.5-.6-.3-1a5.43,5.43,0,0,0,.9-2.7c.1-.3-.3-.7,0-1s.2-.7.4-1.1a1.85,1.85,0,0,0,.7-1.2c0-.5.5-.5.8-.6s.5-.4.8-.4a1.47,1.47,0,0,0,1.6.5c.4-.2.7-.8,1.2-.7.8.1,1.3-.6,1.6-1.2.2-.3-.1-.6-.2-.9.1-.4.7-.6.8-1s-.2-1,.3-1.2a1.31,1.31,0,0,0,.6-1.2c.1-.5-.4-.7-.6-1.1-.1-.6.2-1.3-.4-1.7-.3-.1-.3-.4-.3-.6-.1-.7-.8-.9-1.4-1-.3-.1-.6.1-.9,0s-.8-.7-1.4-.7Zm-19.7,18.4c.2,0,.3.2.4.3a17.8,17.8,0,0,1,1.2,2.9c-.2.2-.6.1-.9.1A2.37,2.37,0,0,1,17,32c.1-.4.1-1.1.6-1.3Zm14.4.4c.3,0,.3.5.3.7a2.22,2.22,0,0,1-1.2,2.3c-.2.1-.6.2-.6-.1a10.09,10.09,0,0,0,.7-1.5c.2-.5.2-1.2.8-1.4Z"/><path class="cls-5" d="M25.41,33l-.6.3-.1.1c-.1-.1-.2-.1-.2-.2s-.2-.2-.3-.1c-.4,0-.7.4-1,.6-.1.1-.3.3-.1.3h.1a.37.37,0,0,0-.1.3c0,.5.8.9,1.7.9s1.7-.4,1.7-.9a.76.76,0,0,0-.2-.4.52.52,0,0,0,.4-.2c.1-.2-.2-.2-.3-.3a10.37,10.37,0,0,0-1-.4Z"/><path class="cls-6" d="M17.31,30.41c-.1,0-.3.1-.4.5-.2.1-.2.3-.3.5s-.3.3-.2.6a2,2,0,0,0,.2,1.3,3.11,3.11,0,0,0,.7.9,1.49,1.49,0,0,0,.7.3.64.64,0,0,0,.6,0c.1-.1-.1-.2-.2-.2a2,2,0,0,1-1.3-1.1,3.65,3.65,0,0,1-.3-1.5c0-.3.5-1.1.5-1.3Zm15.1.2c-.2,0-.1.2,0,.3a2.5,2.5,0,0,1,.1,1.7,2,2,0,0,1-1,1.3c-.1.1-1,.2-1.1.3s.8.1.9,0a6.12,6.12,0,0,0,1.2-.5,2.59,2.59,0,0,0,.7-1.1,3.33,3.33,0,0,0-.2-1.7c-.2,0-.4-.2-.6-.3Z"/><path class="cls-7" d="M26,18a1.7,1.7,0,0,1-1.4,0c-.3,0-.6.3-.9.3s-.7.4-1.1.3c-.2,0-.5-.2-.7,0s-.3.8-.8.8-.7-.5-1-.8c-.3,0-.1.4,0,.5a.93.93,0,0,1-.2,1.2,1.35,1.35,0,0,1-.9.5c-.2.2.1.5,0,.7a1.09,1.09,0,0,1-.4,1.2c-.4.1-.7-.1-1.1-.1-.2.1-.2.5.1.5a1,1,0,0,1,.3,1.7c-.2.1-.4.2-.4.5a12.86,12.86,0,0,0,.3,3.9,10.88,10.88,0,0,0,.7,2.4c.3.7.6,1.5.9,2.2a7,7,0,0,0,1.9,2.6c.6.4,1.3.7,1.9,1.1a2.88,2.88,0,0,0,2,.5,4.74,4.74,0,0,0,2.7-1.2,10.79,10.79,0,0,0,2.6-3.7,11.55,11.55,0,0,0,1.2-4c.1-1.3-.1-2.6.1-3.9.2.1,0,.6.3.5a1.45,1.45,0,0,0,.2-.7,1.19,1.19,0,0,1-.8-1,1.09,1.09,0,0,1,.7-1c.2-.1.1-.6-.2-.4-.4,0-.9.3-1.2-.1a1.8,1.8,0,0,1,0-1.6c-.1-.2-.4,0-.6-.2-.4-.3-.9-.8-.7-1.4,0-.2.2-.5.1-.7-.2,0-.3.3-.5.5a.54.54,0,0,1-.8.2c-.4-.1-.3-.7-.7-.8a1.6,1.6,0,0,1-1.5-.2c.1-.2,0-.3-.1-.3Zm3.1,6.2c.5,0,.8.4,1.2.6.1.2,0,.4-.2.3a1.91,1.91,0,0,0-1.6-.6,5.17,5.17,0,0,0-1.3.6c-.3,0-.4.4-.7.4-.2-.2.2-.4.4-.5a4.19,4.19,0,0,1,2.2-.8Zm-9,.3a4.69,4.69,0,0,1,2.2.9c.1.1.5.4.2.5a4.13,4.13,0,0,0-1.1-.7,1.91,1.91,0,0,0-1.8-.2c-.3.1-.5.4-.8.5s-.1-.3,0-.4c.4-.3.7-.7,1.3-.6Zm8.3,1.3a2.24,2.24,0,0,1,1.5.8c.2.2-.2.4-.3.6a2.77,2.77,0,0,1-2,.3,1.8,1.8,0,0,1-.9-.6c.2-.5.7-.7,1-1h.6a.1.1,0,0,1,.1-.1Zm-7.6.1a2.24,2.24,0,0,1,1.5.8c.2.2-.1.4-.3.5-.5.5-1.3.4-2,.4a1.27,1.27,0,0,1-.9-.7,2.66,2.66,0,0,1,1.1-1c.2.1.4,0,.6,0Zm2.8.1h0a4.84,4.84,0,0,1,.3,2.4c0,.2,0,.6-.3.6-.1-.4.2-.7.1-1.1,0-.6-.1-1.2-.1-1.9Zm-6.8.8c-.4.1-.5.6-.5,1a2.44,2.44,0,0,0,1,2.2c.3.1.4-.3.3-.5a3.26,3.26,0,0,0-.4-1.3c-.3-.1-.1.4-.3.4a1.41,1.41,0,0,1-.1-.9c.2-.1.6,0,.4-.3,0-.2-.1-.6-.4-.6Zm16.1.1a.86.86,0,0,0-.7.6c0,.2,0,.6.2.6s.4-.4.7-.5c0,.1.1.2.1.3-.4.1-1,.4-1,.9a2.88,2.88,0,0,0-.1,1.3c.2.2.4-.2.5-.3a14.17,14.17,0,0,0,.8-1.8h0c0-.3.3-.8-.1-1a.76.76,0,0,0-.4-.1Zm-6.2,3.6c.3.1.1.5-.1.5-.6.2-1.2-.2-1.7.2a1.08,1.08,0,0,1-1.1,0c-.3-.1-.7.1-1,0-.1-.1,0-.3.1-.4,0,.4.5.2.7.2s.6.1.9.1.8-.4,1.3-.2c.1-.1.6,0,.9-.4Zm-1.2,2.3c.1,0,.2,0,.2.1h.1c.5.2,1,.7,1.6.4.1-.1.3-.3.5-.1-.1.3-.5.5-.7.7s-.7.3-.7.7a1.21,1.21,0,0,1-1.2.7c-.7,0-1.5.1-1.9-.6a1.21,1.21,0,0,0-.5-.5c-.3-.1-.6-.2-.7-.5.4-.1.9.2,1.1-.2.3-.2.5-.5.8-.6a.63.63,0,0,1,.8.2.85.85,0,0,1,.6-.3Zm3.7,3.3h0a8.69,8.69,0,0,1-2.8,1.9,3.1,3.1,0,0,1-1.9.1,23,23,0,0,1-3.2-1.5,4.05,4.05,0,0,0,0,1.1c.1.5-.3,1-.6,1.4s-.5.7-.7,1.1c.3.3.3.7.5,1.1.3.1.8.1,1,.5.2.2.2.5.4.6.3-.1.8-.4,1,0,.3.2.6.4.9.2a1.23,1.23,0,0,1,1.1.7c.3,0,.4-.3.7-.4s.6.2.9.2c.3-.3.8-.7,1.2-.4.2.2.5.3.5-.1.2-.4.6-.3.9-.5s.4-.9.9-.9.5-.6.6-.9-.3-.4-.4-.7c-.9-1-.8-2.4-1-3.6.1.1,0,.1,0,.1Z"/><path class="cls-8" d="M31.21,40.21a.77.77,0,0,0-.8.7.86.86,0,0,0,.8.8.79.79,0,0,0,.8-.8.77.77,0,0,0-.8-.7Zm-11.6.1a.86.86,0,0,0-.8.8.79.79,0,0,0,.8.8.8.8,0,0,0,0-1.6Zm10.6,1.1a.77.77,0,0,0-.8.7c0,.2.1.3.1.4a.76.76,0,0,0-.5-.2.77.77,0,0,0-.8.7.86.86,0,0,0,.8.8.79.79,0,0,0,.8-.8c0-.2-.1-.3-.1-.4a.76.76,0,0,0,.5.2A.79.79,0,0,0,31,42a1,1,0,0,0-.8-.6Zm-9.5.1a.79.79,0,0,0-.8.8.81.81,0,0,0,1.6,0,.74.74,0,0,0-.8-.8Zm1.8.9a.77.77,0,0,0-.8.7.86.86,0,0,0,.8.8.75.75,0,0,0,.7-.5h0a.86.86,0,0,0,.8.8.79.79,0,0,0,.8-.8.71.71,0,0,0-.8-.7.75.75,0,0,0-.7.5h0a.74.74,0,0,0-.8-.8Zm4.8.4a.79.79,0,0,0-.8.8.86.86,0,0,0,.8.8.8.8,0,1,0,0-1.6Zm-1.6.2a.79.79,0,0,0-.8.8.81.81,0,0,0,1.6,0c-.1-.5-.4-.8-.8-.8Z"/><path class="cls-9" d="M28.31,25.91c-.8,0-1.4.4-1.4.8s.6.8,1.4.8,1.4-.4,1.4-.8a1.44,1.44,0,0,0-1.4-.8Zm-7.6.2c-.8,0-1.5.3-1.5.7s.7.7,1.5.7,1.5-.3,1.5-.7-.7-.7-1.5-.7Z"/><path class="cls-4" d="M16,13.91c-.3,0-.6.2-.6.4a1.19,1.19,0,0,0,1,.8.67.67,0,0,0,.1-1,.76.76,0,0,0-.5-.2Zm17.7,0a.46.46,0,0,0-.5.6c0,.3.3.7.6.5a1,1,0,0,0,.5-.4c.3-.2.2-.5-.1-.6a.9.9,0,0,0-.5-.1Zm3.2.2c-.5.1-.6.8-.4,1.2s.6.6.8.2c.2-.1.2-.5-.1-.5s-.1-.1.1-.1.3.2.3.4.1.5.4.6c.1.1.4,0,.2-.2s.1-.3.1-.5c.1-.5-.5-.8-.8-.9a1.42,1.42,0,0,0-.6-.2Zm-10.6.8a1,1,0,0,0-.9.9c.1.4.3.9.7.8.5.1,1-.7.4-.9-.2.1-.3.5-.6.3s.2-.5.4-.5a.51.51,0,0,1,.6.7c-.1.1,0,.5.2.3a1.72,1.72,0,0,0,.2-1.2c-.1-.3-.6-.4-1-.4Zm-6.6,1.4c-.4,0-1,.3-.9.8.2.2.4-.3.6-.3s.4,0,.3.2c-.2,0-.5.1-.3.4.4.3,1.1,0,1-.5a.86.86,0,0,0-.7-.6Zm21.3.3c-.5.1-.6.8-.2,1.2.2.2.6.1.5-.2-.1-.1-.2-.3,0-.3s.4,0,.4.2-.4.7-.7.6-.7,0-.5.3.7.5,1.1.3a1,1,0,0,0,.3-1.7,1.8,1.8,0,0,0-.9-.4Zm-17.5.1c-.4.1-.8.6-.6,1a.94.94,0,0,0,1.3.1c.3-.3,0-.9-.4-.8-.1.1.1.4-.2.4s-.1-.4,0-.5,0-.2-.1-.2Zm10.5.8c-.5.1-.7.6-.8,1.1s.6.6.9.4,0-.5-.2-.6.1-.2.2-.1a.4.4,0,0,1,.4.5c0,.2-.2.4,0,.5s.5.2.7.1c0-.2-.1-.4-.1-.6s-.4-.4-.4-.6a1.21,1.21,0,0,0-.7-.7Zm-3.4,1a.87.87,0,0,0-.4,1.4c.2.3.5.5.8.3s.8-.7.4-1.1a.3.3,0,0,0-.5.3c-.1.2-.3.2-.3,0s.2-.6.4-.8c-.1,0-.3-.1-.4-.1Zm-13.5.7c-.6.1-1.2,1-.8,1.5.2.2.4.3.6.5.4.2.5-.3.8-.5s.6-.2.6-.5a.21.21,0,0,0-.4-.1c-.2.4-1.1.3-1.1-.2.2-.1.3.3.5.2.4.1.4-.5.2-.7a.52.52,0,0,0-.4-.2Zm19.4.6c-.5,0-.7.9-.1,1,.2,0,.2-.3.3-.3s0,.4-.2.5-.5,0-.8-.1c-.2.1-.3.4,0,.5a1.2,1.2,0,0,0,1.5,0,.85.85,0,0,0-.1-1.3.86.86,0,0,0-.6-.3Zm-24.4,1.9h0a.88.88,0,0,0-.7,1.3.7.7,0,0,0,.9.4,1,1,0,0,0,.8-1.4c-.2-.2-.4.1-.4.2s-.2.5-.5.5c-.1-.1-.4-.2-.1-.2.4-.2.4-.8,0-.8ZM34,23.21c-.2.1-.5.3-.5.6a.47.47,0,0,0,.6.1c-.2.3-.8.2-.9.6a.3.3,0,0,0,.2.5.92.92,0,0,0,1.1-.7c.1-.4,0-1-.5-1.1Zm-18.2,0a.75.75,0,0,0-.5,1c.1.5.4.9,1,.8.2,0,.5,0,.4-.3s-.3-.5-.6-.6c-.1,0-.5-.3-.2-.2a.33.33,0,0,0,.4-.5c-.2,0-.4-.2-.5-.2Z"/><path class="cls-10" d="M14,12.21a3.2,3.2,0,0,1-.7.1c-.1.1-.1.1-.3,0a1.3,1.3,0,0,0-1.2.1,2.7,2.7,0,0,0-.7.8c0,.1-.1,0-.2,0a1.93,1.93,0,0,0-1.6.2c-.4.2-.7.7-.6,1s0,.3-.1.3-.3.2-.4.5a1.29,1.29,0,0,0-.1.7c0,.2,0,.5.1.5v.1a1.9,1.9,0,0,0-.7.8V18a1.34,1.34,0,0,0,.7.8l.3.1v.3c0,.4,0,.8.2.9,0,.1.1.1.2.2l.3.3a.19.19,0,0,1,.1.3.22.22,0,0,1-.2.2.37.37,0,0,0-.1.3v.3c.1.2.5.8.5.8a.35.35,0,0,0,.2.1,3,3,0,0,0,.8.4c.2,0,.5-.1.6-.1s.1,0,.2.2l.5.5a1.14,1.14,0,0,0,1,0,1.16,1.16,0,0,0,.7-.5c.1-.1.1-.1.2-.1.4.4.5.5.6.5a.31.31,0,0,1,.2.1c.1,0,.2.1.3.1s.2.1.2.3c0,.4.3,1,.5,1l.2.2a.37.37,0,0,1,.1.3.83.83,0,0,0,.3.8l.2.2.1.1a1.63,1.63,0,0,0-.3.6,2.85,2.85,0,0,0,0,1.3c.1.2.5,1,.7,1.3s.3.4.2.5a3,3,0,0,0-.5.7.35.35,0,0,0-.1.2,2.13,2.13,0,0,0-.3,1.2,4.67,4.67,0,0,0,.4,1.4c.1.1.2.3.3.4a.31.31,0,0,1,.1.2l.4.2a1.42,1.42,0,0,0,.6.2h.7c.1,0,.2,0,.2-.1.6-.3.6-.3.8.1s.4.5.6.8c.1.1.2.3.3.4l.2.2a3.26,3.26,0,0,1,.2,1.2,4.44,4.44,0,0,1-.2,1.3.35.35,0,0,0-.1.2V39a1.44,1.44,0,0,1-.2.3,1.38,1.38,0,0,1-.3.4l-.3.3a2.18,2.18,0,0,1-.5.4c-.4.2-.7.4-.8.7a.35.35,0,0,1-.1.2.49.49,0,0,0-.3.1,2.07,2.07,0,0,1-.6.2,1,1,0,0,0-.4.1,4.33,4.33,0,0,0-.5.1h-.3a6.78,6.78,0,0,0-1.7.4v.2c.1,0,.1,0,.2-.1a14.58,14.58,0,0,1,1.7-.4,5.49,5.49,0,0,0,1.7-.5.37.37,0,0,1,.3-.1l.1.1c.1.2.3.3.5.5s.4.1.6.1.2,0,.2.3.2.5.3.5a.1.1,0,0,1,.1.1.35.35,0,0,0,.2.1h.4c.1,0,.1-.1.1,0a.1.1,0,0,0,.1.1h.2a.35.35,0,0,1,.2-.1c.1,0,.2,0,.2.2s.3.5.4.5h.8c.1,0,.2.1.3.2a.9.9,0,0,0,.9.2.76.76,0,0,0,.5-.2.31.31,0,0,1,.2-.1,1.24,1.24,0,0,1,.2.3.78.78,0,0,0,.4.4c.3.1.4.1.5,0l.1-.1a1.69,1.69,0,0,0,.5-.2l.2-.2.1-.1.3.1a.94.94,0,0,0,1.1-.2c.1-.1.2-.1.6-.1s.5,0,.6-.1a.37.37,0,0,1,.3-.1h.1a.1.1,0,0,1,.1-.1c.1,0,.1-.1.2-.2s.1-.2.3-.2a.6.6,0,0,0,.4-.1c.2-.1.6-.5.6-.6a.1.1,0,0,1,.1-.1.35.35,0,0,0,.1-.2c0-.1,0-.2.2-.2s.2-.1.3-.1a.75.75,0,0,0,.3-.3l.3-.3.3.1c.1.1.3.1.4.2s.2.1.3.1.3.1.4.1a1,1,0,0,1,.3.1H35c.1,0,.1-.1.1,0a.1.1,0,0,0,.1.1c.1,0,.1,0,0-.1h0a.35.35,0,0,0,.2.1H36a2.18,2.18,0,0,1,.6.1c.2.1.2.1.2,0a.1.1,0,0,1,.1-.1c.3-.2.1-.3-.4-.3H36a2,2,0,0,1-.7-.1c-.2,0-.5-.1-.6-.1a7.47,7.47,0,0,1-1.1.1,3.45,3.45,0,0,1-1.6-.8l-.3-.3a4.77,4.77,0,0,1-.8-.4l-.2-.2c-.1-.1-.2-.2-.2-.3a.1.1,0,0,0-.1-.1.35.35,0,0,1-.1-.2c0-.1-.1-.2-.2-.3a.31.31,0,0,1-.1-.2v-.1a6.46,6.46,0,0,1-.4-2.6,1.88,1.88,0,0,1,.2-.8c.2-.4.2-.4.4-.4h1.2a10.37,10.37,0,0,0,1-.4,1.38,1.38,0,0,1,.4-.3c.1-.1.3-.3.3-.4s.1-.3.2-.4a.35.35,0,0,1,.1-.2c.1-.5.1-.7,0-.9s-.1-.3-.1-.4,0-.3-.1-.3-.1-.1-.1-.2,0-.1-.1-.1l-.1-.1a1.44,1.44,0,0,0-.2-.3c-.2-.2-.2-.2-.1-.4a.35.35,0,0,1,.1-.2l.2-.4.2-.4a1,1,0,0,0,.1-.3,1,1,0,0,1,.1-.3.44.44,0,0,0,.1-.3v-.1a.44.44,0,0,0,.1-.3v-.9a.35.35,0,0,0-.1-.2.25.25,0,0,1,.1-.4,1.33,1.33,0,0,0,.3-.8.37.37,0,0,1,.1-.3l.2-.2c.2,0,.5-.7.5-1s.1-.3.2-.3a.37.37,0,0,0,.3-.1.35.35,0,0,0,.2-.1c.1,0,.2-.1.6-.5.1-.1.1-.1.2.1a.94.94,0,0,0,.7.5,1.67,1.67,0,0,0,1,0c.2-.2.4-.3.5-.5l.2-.2c0,.1.3.1.6.1a1.52,1.52,0,0,0,.8-.4.31.31,0,0,1,.2-.1c.1,0,.4-.6.5-.8s.1-.2,0-.2v-.1a.37.37,0,0,0-.1-.3l-.2-.2c0-.1.1-.3.2-.3s.2-.1.3-.3l.2-.2a1.69,1.69,0,0,0,.2-.9v-.3l.3-.1a1.78,1.78,0,0,0,.7-.8v-.7a1.9,1.9,0,0,0-.7-.8c-.1,0-.1,0,0-.1a4.33,4.33,0,0,0,.1-.5,1.29,1.29,0,0,0-.1-.7c-.1-.3-.3-.5-.4-.5s-.2-.1-.1-.3a1,1,0,0,0-.6-1,1.93,1.93,0,0,0-1.6-.2c-.1.1-.2.1-.2,0a5,5,0,0,0-.7-.8,1.67,1.67,0,0,0-1.2-.1c-.2.1-.2.1-.3,0s-.2-.1-.7-.1h-.3a.76.76,0,0,1-.4.1c-.2,0-.6.7-.6,1a1.07,1.07,0,0,0,.2.6c.1.1.1.1,0,.2s-.2.1-.2-.1a.37.37,0,0,0-.1-.3c-.1-.1-.2-.2-.3-.2a1.64,1.64,0,0,0-.9.2.78.78,0,0,0-.4.4.6.6,0,0,0-.1.4c0,.1,0,.1-.5.1s-.7,0-1,.3a1.35,1.35,0,0,0-.5.9c0,.3-.1.3-.3.2s-.3-.1-.4,0c-.3,0-.3,0-.3-.2a1.59,1.59,0,0,0-1.2-.9,1.07,1.07,0,0,0-.6.2.77.77,0,0,1-.3-.1c-.3-.3-.4-.3-.9-.4a1.82,1.82,0,0,0-1.1.2l-.3.2-.2-.1a1.21,1.21,0,0,0-1.6,0c-.1.1-.1.1-.3,0a2.39,2.39,0,0,0-.9-.3,1.76,1.76,0,0,0-.6.1c-.2.1-.3.1-.4.3h-.1a1.59,1.59,0,0,0-1.2.9c0,.2-.1.2-.3.2h-.4c-.2.1-.2,0-.3-.2a2,2,0,0,0-.5-.9,1.21,1.21,0,0,0-1-.3c-.5,0-.5,0-.5-.1s-.1-.2-.1-.4a.78.78,0,0,0-.4-.4,3.71,3.71,0,0,0-.9-.2c-.1,0-.2.1-.3.2s-.2.2-.1.3,0,.2-.2.1-.1-.1,0-.2a1.07,1.07,0,0,0,.2-.6,1.7,1.7,0,0,0-.6-1c-.1,0-.3-.1-.4-.1.1-.3,0-.3-.1-.3Zm-1.6.4a.82.82,0,0,1,.6.4c.1.3.1.4-.1.5s-.3.2-.5.1-.1-.3,0-.3.2-.2,0-.2h-.3l-.2.1V14l-.1.1a.49.49,0,0,1-.3.1,1,1,0,0,1-.1-.4,1.48,1.48,0,0,1,.1-.7,1.15,1.15,0,0,1,.9-.5Zm25,0h0c.5.1.7.3.8.6s.2.3.1.7a1,1,0,0,1-.1.4,1,1,0,0,0-.3-.1l-.2-.1v-.8l-.2-.1a.19.19,0,0,0-.3,0c-.2.1-.2.2,0,.2s.2.2,0,.3-.2.1-.5-.1-.2-.2-.1-.5a1.46,1.46,0,0,1,.8-.5Zm-23.4,0c.5,0,.7.1.9.5.1.1,0,.5-.1.6s-.6.2-.7,0a.31.31,0,0,1-.1-.2c0-.1.1-.1.4-.1h.2c0-.1,0-.1-.1-.2s-.6-.2-.8,0-.1.1-.1.3v.3c0,.1.1.2.2.3s.2.2,0,.3h-.1c0-.1-.1-.2-.2-.3l-.2-.2.1-.3a1.09,1.09,0,0,0,.1-.5c0-.4.1-.4.5-.5Zm21.8,0c.4,0,.5.1.4.3a1.09,1.09,0,0,0,.1.5l.1.3-.2.2a1.44,1.44,0,0,0-.2.3c0,.1-.1.1-.1,0q-.3-.15,0-.3c.1-.1.2-.2.2-.3v-.3c0-.2,0-.2-.1-.3a1.1,1.1,0,0,0-.8,0c-.1.1-.1.1-.1.2s.1.1.2,0c.4.2.5.2.5.3s0,.2-.1.2a.85.85,0,0,1-.7,0,.61.61,0,0,1-.1-.6.94.94,0,0,1,.9-.5Zm-25.4.8c.2,0,.2,0,.3.1a.56.56,0,0,1,.1.9c-.2.3-.3.3-.5.2s-.3-.2-.2-.3.1-.1.2-.1.2-.1.1-.2a.45.45,0,0,0-.5,0,.63.63,0,0,0,0,.6.35.35,0,0,0,.1.2c0,.1-.1.1-.3.1s-.2-.1-.3-.1h-.2a1.07,1.07,0,0,1-.2-.6c0-.1.3-.6.5-.6a.31.31,0,0,0,.2-.1.75.75,0,0,1,.5-.1.14.14,0,0,0,.2,0Zm28.9,0h.2a4.33,4.33,0,0,1,.5.1.35.35,0,0,1,.2.1,1,1,0,0,1,.5.6,1.07,1.07,0,0,1-.2.6h-.2a.37.37,0,0,0-.3.1c-.2.1-.3.1-.3-.1a.31.31,0,0,1,.1-.2.63.63,0,0,0,0-.6.45.45,0,0,0-.5,0c-.1.1-.1.3.1.2s.1,0,.2.1-.1.3-.2.3-.2,0-.5-.2a.52.52,0,0,1,.1-.9c.1,0,.2-.1.3-.1Zm-23.2.6a.76.76,0,0,1,.5.2.78.78,0,0,1-.1.8c-.1.2-.2.2-.3.1A.35.35,0,0,0,16,15q-.15,0-.3-.3a1.44,1.44,0,0,1-.2-.3c-.1-.1-.1-.1,0-.1a.35.35,0,0,1,.2-.1c0-.2.2-.2.4-.2Zm17.6,0a.76.76,0,0,1,.5.2c.1.1.1.1.2.1s.1,0,0,.1-.2.2-.2.3-.2.3-.3.3-.2,0-.2.1-.2.1-.3-.1-.2-.7-.1-.8a.4.4,0,0,1,.4-.2Zm-20.8.1c.1,0,.1,0,.2.1a1.16,1.16,0,0,1,.2,1,.89.89,0,0,1-.5.4.78.78,0,0,1-.4-.4.22.22,0,0,1,.2-.2.1.1,0,0,0,.1-.1c.1-.1.1-.1,0-.1s-.2-.1-.3-.1c-.3,0-.3.1-.3.5v.3l-.3.3a.77.77,0,0,1-.3.1s.1-.2.2-.2.1-.1-.1-.3a.85.85,0,0,1,0-.7,2.23,2.23,0,0,1,1.3-.6Zm24,0h0a2.23,2.23,0,0,1,1.3.6.48.48,0,0,1,0,.7c-.1.2-.2.4-.1.3l.2.2a1,1,0,0,0-.3-.1l-.3-.1v-.3c0-.4,0-.5-.3-.5a.37.37,0,0,0-.3.1c-.1,0-.1.1,0,.1l.1.1a.22.22,0,0,1,.2.2.78.78,0,0,1-.4.4c-.2,0-.5-.2-.5-.4a1.16,1.16,0,0,1,.2-1c.1-.3.1-.3.2-.3Zm-22.4.3a.37.37,0,0,1,.3.1.35.35,0,0,1,.2.1,1,1,0,0,1,.4.9c0,.2,0,.2-.2.4l-.2.2-.2-.1a.52.52,0,0,0-.4-.2.35.35,0,0,1-.2-.1c-.1-.1.1-.3.4-.3s.3-.1.3-.2-.2-.2-.5-.1-.3.1-.4.2-.2.3-.1.6v.2l-.2.2q-.15.3-.3,0a.35.35,0,0,0-.1-.2c-.1-.1-.1-.3,0-.3a1.69,1.69,0,0,0,.3-.6c0-.1.1-.2.3-.4a.75.75,0,0,0,.3-.3.37.37,0,0,1,.3-.1Zm20.8,0h.2a.75.75,0,0,0,.3.3c.2.2.3.3.3.4s.2.6.3.6a.19.19,0,0,1,0,.3.35.35,0,0,0-.1.2q-.15.3-.3,0c-.1-.1-.1-.2-.2-.2v-.2c.1-.3.1-.4-.1-.6a.52.52,0,0,0-.4-.2c-.3-.1-.5-.1-.5.1s.1.1.3.2.5.2.4.3a.35.35,0,0,1-.2.1.76.76,0,0,0-.4.2l-.2.1-.2-.2c-.1-.2-.2-.2-.2-.4a1.1,1.1,0,0,1,.4-.9.35.35,0,0,1,.2-.1Zm-9,.5h.1c.4,0,.7.1.8.3s.2.3.1.8a1,1,0,0,1-.1.4.1.1,0,0,1-.1.1c-.1,0-.1,0,0-.3s.1-.3,0-.5a.78.78,0,0,0-1-.2c-.2.1-.3.3-.2.4s.5.2.5-.1.2-.2.3-.1.1.3-.1.5-.3.2-.4.2a.71.71,0,0,1-.6-.3,1.1,1.1,0,0,1,.1-1.1c.2,0,.4-.1.6-.1Zm-2,0a1.49,1.49,0,0,1,.8.3l.1.1-.4.1c-.4,0-.6,0-.7.2s0,.5.2.5a.32.32,0,0,0,.3-.3c0-.1,0-.1.1-.1s.2.3.1.5-.2.2-.5.2a.46.46,0,0,1-.5-.3,1.7,1.7,0,0,1,0-1,.76.76,0,0,1,.5-.2Zm-2.1.1h.4c.6.1.7.2.7.8v.4c-.1-.2-.4-.6-.5-.5a.1.1,0,0,1-.1-.1.63.63,0,0,0-.6,0,.37.37,0,0,0-.2.5c.1.1.3.3.4.2h.2c.1,0,.1-.2,0-.2s-.1,0-.1-.1.1-.1.3,0,.3.3.1.5-.1.1-.4,0a1.09,1.09,0,0,0-.5-.1.22.22,0,0,1-.2-.2,1,1,0,0,1,.1-.9c0-.2.1-.3.4-.3Zm-4.4,0c.4,0,.7.3.9.8,0,.1,0,.6-.1.7a.71.71,0,0,1-.6.3c-.2,0-.2,0-.3-.3s-.1-.4,0-.4.2.2.2.3.1.1.3,0,.1-.1.1-.3-.3-.4-.8-.2c-.1,0-.2,0-.2-.1a.37.37,0,0,0-.3-.1c-.2,0-.2-.1-.1-.3s.3-.3.7-.3c.1-.1.1-.1.2-.1ZM32,15h.2c.4,0,.6.1.7.3s.1.2-.1.3-.2.1-.3.1a.31.31,0,0,1-.2.1c-.4-.1-.6-.1-.8.2s-.1.2.1.3.3.1.3,0,.1-.3.2-.3.1.1,0,.4-.1.3-.3.3a.71.71,0,0,1-.6-.3c-.1-.1-.2-.6-.1-.7A.93.93,0,0,1,32,15ZM8.91,15c.1,0,.1,0,.2.1s.1.1.2.1.1.1-.1.3A.76.76,0,0,0,9,16c-.1.3-.1.3-.2.4s-.3-.1-.4-.3a.72.72,0,0,1,.2-.8q.15-.3.3-.3Zm32,0c.1,0,.2.1.3.2a.72.72,0,0,1,.2.8c-.1.3-.2.4-.4.3s-.2-.1-.2-.4a1.69,1.69,0,0,1-.2-.5c-.1-.1-.2-.3-.1-.3a.35.35,0,0,1,.2-.1Zm-12.4.2a1.15,1.15,0,0,1,.9.6c.1.2,0,.2-.1.1a2,2,0,0,0-.8-.4c-.2,0-.2-.1,0-.2-.1-.1-.1-.1,0-.1Zm-7.3,0c0,.1-.1.2-.1.3a3.33,3.33,0,0,0-.6.3c-.1.2-.2.1-.1-.1a2.77,2.77,0,0,1,.8-.5Zm-10.7.1c.2,0,.3,0,.4.2s.1.2.2.3,0,.5-.1.6-.6.3-.6.1,0-.1.1-.2,0-.3-.3-.2l-.2.1v.4c0,.4,0,.5-.1.3a.35.35,0,0,0-.2-.1c-.1,0-.3-.4-.3-.6a1,1,0,0,1,1.1-.9Zm28.8,0a1,1,0,0,1,1.1.9c0,.2-.2.6-.3.6s-.1,0-.2.1-.2.1-.1-.3v-.4l-.2-.1c-.3-.1-.5,0-.3.2a.35.35,0,0,1,.1.2c0,.2-.4.2-.6-.1-.1-.1-.1-.5-.1-.6s.1-.2.2-.3.2-.2.4-.2Zm-11.2.5a1,1,0,0,1,.6.2h0a.35.35,0,0,1-.1.2.1.1,0,0,1,.1.1V16c.4.2.5.4.4.7-.1.1-.1.1-.3,0a.6.6,0,0,0-.4-.1c-.2,0-.3.2-.2.3s0,.1-.2-.1-.3-.4-.1-.8a.22.22,0,0,1,.2-.2Zm-11.8,0h.3a.86.86,0,0,1,.7.8v.2c0,.1-.1.2-.2.3a.52.52,0,0,1-.4.2c-.3,0-.5-.1-.5-.3s.1-.3.3-.2.4-.1.2-.3-.8,0-.9.3v-.1a1,1,0,0,1,.4-.7.35.35,0,0,1,.1-.2Zm17.1,0c.1,0,.1,0,.2.1a1.27,1.27,0,0,1,.4.7v.1a1,1,0,0,0-.9-.3c-.2.2,0,.4.2.3s.3.1.3.2-.2.3-.5.3-.3,0-.4-.2-.2-.2-.2-.3v-.2a1,1,0,0,1,.7-.8.31.31,0,0,0,.2.1Zm-12.3.2v.3a1.87,1.87,0,0,0,.3.4.1.1,0,0,1,.1.1.35.35,0,0,0,.2.1.66.66,0,0,1-.7.2.62.62,0,0,1,.1-1.1Zm-8.7,0a.86.86,0,0,1,.6.3.8.8,0,0,1,.2,1,.55.55,0,0,1-.5.3.35.35,0,0,1-.2-.1.19.19,0,0,1,0-.3.76.76,0,0,0,.2-.4c-.1-.1-.2-.1-.4.1s-.2.2-.2.4.1.3.3.6a.49.49,0,0,1-.1.3c-.1.2-.2.3-.2.4v.2l-.5-.1a.77.77,0,0,1,.1-.3c.2-.3.2-.3.1-1.3,0-.4,0-.6.1-.7-.1-.2.2-.4.5-.4Zm25,0a.55.55,0,0,1,.6.4,1.29,1.29,0,0,1,.1.7c-.1.9-.1,1,.1,1.3a.37.37,0,0,1,.1.3c-.1.1-.5.2-.5.1v-.2a.76.76,0,0,0-.2-.4c-.1-.2-.2-.3-.1-.3.2-.3.3-.4.3-.6s0-.3-.2-.4-.3-.2-.4-.1a.76.76,0,0,0,.2.4c.1.1.1.3,0,.3a.35.35,0,0,1-.2.1.55.55,0,0,1-.5-.3.8.8,0,0,1,.2-1c.1-.2.3-.2.5-.3Zm-17.7.3a.51.51,0,0,1,.5.4c.1.2.1.2,0,.5-.1.1-.1.2-.3.2a.56.56,0,0,1-.6-.1c-.1-.1,0-.2.1-.2s.3-.1.3-.2-.2-.2-.5-.2-.4.3-.4.5v-.3a1.29,1.29,0,0,1,.9-.6Zm10.4,0c.4,0,1,.4.9.7v.3a.66.66,0,0,0-.4-.5c-.2,0-.4,0-.4.2s.1.2.3.2.2.1.1.2a.56.56,0,0,1-.6.1c-.2,0-.2-.1-.3-.2a.45.45,0,0,1,0-.5.46.46,0,0,1,.4-.5Zm-15.7.1a.37.37,0,0,1,.3.1c.5.2.6.3.6.4s0,.3-.1.3v.2l-.2-.2c-.2-.2-.3-.2-.3.1s-.1.3-.4.3-.3,0-.4-.1-.1-.1-.1-.4.1-.3.2-.5.3-.2.4-.2Zm20.9,0c.1,0,.2.1.4.2a.55.55,0,0,1,.2.5c0,.2,0,.3-.1.4a.37.37,0,0,1-.3.1c-.3,0-.4-.1-.4-.3s-.1-.3-.3-.1l-.2.2-.1-.2c0-.1-.1-.2-.1-.3s0-.2.5-.4a1.58,1.58,0,0,1,.4-.1Zm-26.6.3c.1,0,.3,0,.3.2a.63.63,0,0,1-.4,1c-.2,0-.2-.2-.1-.3s.1-.3-.1-.3-.4,0-.4.2a.78.78,0,0,0,.3.6l.2.2h.4c.4,0,.5,0,.5.2a.35.35,0,0,1-.2.1.76.76,0,0,0-.4.2c-.2.2-.3.1-.6-.1a1,1,0,0,1-.4-.9.55.55,0,0,1,.2-.5,1,1,0,0,1,.7-.6Zm32.4,0a1.52,1.52,0,0,1,.8.4.55.55,0,0,1,.2.5,1.27,1.27,0,0,1-.4.9c-.3.2-.4.2-.6.1a.76.76,0,0,0-.4-.2.35.35,0,0,1-.2-.1c0-.1.1-.2.5-.2h.4l.2-.2a.86.86,0,0,0,.3-.6c-.1-.2-.2-.2-.4-.2s-.2.2-.1.3.1.3-.1.3c-.4.1-.7-.6-.4-1Zm-29.9,0h0v.1c-.1.1-.1.1,0-.1Zm27.4,0h0c0,.1.1.1,0,0,.1.1.1.1,0,.1v-.1Zm-13.5.1c.1,0,.1,0,.1.1a.45.45,0,0,0,.3.3l.1-.1c.1-.1.1-.1.2,0s.2.4,0,.6-.3.3-.7.2c-.2,0-.2-.1-.3-.3s-.1-.3,0-.5a.32.32,0,0,1,.3-.3Zm-1.6,0c.1,0,.1.1-.1.3s-.1.3,0,.4.5.1.4-.2c0-.1,0-.1.1-.1s.3.2.3.4,0,.2-.2.3a1.06,1.06,0,0,1-1.2-.2c-.2-.4-.1-.6.4-.9Zm5,.1c.1,0,.1,0,.2.1s0,.2-.2.1-.3-.1,0-.2Zm-1.4.1c.2,0,.2.1,0,.2a.37.37,0,0,0-.2.5c.1.2.2.3.4.1s.1-.1.1-.2,0-.2.2-.1.3.2.2.4-.2.3-.6.3-.3,0-.5-.2a.59.59,0,0,1-.1-.8c0-.1.2-.2.5-.2Zm-9.1.1q.3,0,.6.6a.85.85,0,0,1,0,.7c-.1.1-.1.2-.4.2s-.3.1-.5,0-.2-.2-.1-.4.2-.2.4-.1.1.1.2,0,0-.4-.3-.4a.71.71,0,0,0-.6.3c-.1.1-.1.2-.1.5s0,.3-.1.2-.1-.1-.1-.2a1.07,1.07,0,0,0-.2-.6c-.2-.2,0-.3.3-.3.1,0,.2-.1.4-.2a1.33,1.33,0,0,1,.5-.3Zm13.8,0a.76.76,0,0,1,.4.2c.2.2.3.2.4.2q.6,0,.3.3a5.64,5.64,0,0,1-.1.7c0,.1,0,.2-.1.2s-.1,0-.1-.2a.75.75,0,0,0-.1-.5.71.71,0,0,0-.6-.3c-.3,0-.6.3-.3.4h.2c.2-.1.3-.1.4.1s.1.3-.1.4-.2.1-.5,0a.52.52,0,0,1-.4-.2c-.1-.2-.2-.5,0-.7q.3-.6.6-.6Zm-21.2.1a.37.37,0,0,1,.3.1,2.09,2.09,0,0,1,.4.6c0,.1-.1.2-.1.4a1.24,1.24,0,0,1-.2.3.45.45,0,0,1-.5,0c-.1,0-.1-.3,0-.3s.2-.3.2-.3-.6.1-.7.2v.3c.1.2,0,.3-.1.2a1.88,1.88,0,0,1-.2-.8c0-.4.5-.7.9-.7Zm28.5,0c.4,0,1,.3,1,.6a1.88,1.88,0,0,1-.2.8c-.1.1-.2,0-.1-.2s.1-.2,0-.3-.5-.4-.7-.2,0,.3.2.3.1.3,0,.3-.4,0-.5,0a1.44,1.44,0,0,0-.2-.3.76.76,0,0,1-.1-.4c0-.2.2-.6.4-.6Zm-16.7.2h0v.1h0c-.1.1,0,.1.1.2h.1a1.38,1.38,0,0,0,.4.3h0a.6.6,0,0,1-.4.1q-.6,0-.6-.3c-.1-.3,0-.4.2-.4s.1,0,.2,0Zm-3.4.1.1.1c0,.1.1.1.2.1a1,1,0,0,0,.3.1.37.37,0,0,0,.3.1s.1,0,0,.2v.2h-.6v-.2c-.3-.3-.3-.4-.3-.6Zm11.8,0h0c0,.2-.1.3-.1.5v.2h-.6v-.4a.49.49,0,0,0,.3-.1.37.37,0,0,1,.3-.1.35.35,0,0,1,.2-.1Zm-15.1.1c.3,0,.6.4.8.9v.2a.1.1,0,0,1-.1.1c-.2.3-1,.4-1,0,0-.1,0-.1.2-.2s.3-.2.2-.3a.48.48,0,0,0-.6.1c-.2.1-.2.2-.1.4a1,1,0,0,0,.1.3c.1.1.1.1-.3.2a1,1,0,0,0-.4.1c-.1.1-.1,0-.1-.2s.1-.3.1-.4,0-.2.1-.2a.45.45,0,0,0,.3-.3,1.33,1.33,0,0,1,.5-.6.49.49,0,0,1,.3-.1Zm18.3,0c.1,0,.2.1.3.1.2.2.5.5.5.6a.45.45,0,0,0,.3.3.35.35,0,0,1,.1.2.6.6,0,0,0,.1.4c.1.2.1.3-.1.2a1,1,0,0,0-.4-.1c-.3,0-.4-.1-.3-.2a1,1,0,0,0,.1-.3c0-.3,0-.3-.1-.4s-.6-.2-.6-.1.1.3.2.3a.22.22,0,0,1,.2.2c0,.3-.8.3-1,0a.1.1,0,0,0-.1-.1v-.2c.2-.5.6-.9.8-.9Zm-13.1.1c.4,0,.6.1.6.5s-.1.6-.2.6c-.3.1-.4.1-.5-.1s-.2-.3.1-.4.3-.1.2-.3-.2-.1-.5-.1c-.1,0-.2.1-.3.2s-.1.2,0,.4a1.34,1.34,0,0,0,.8.7c.1,0,.2,0,.2-.1.3,0,.5-.3.6-.6s.2-.3.3-.2.2.1.3.1h.6c.1,0,.3-.2.5-.3h.3c.2,0,.3,0,.3-.1a.35.35,0,0,1,.2-.1.19.19,0,0,1,.3,0,1.72,1.72,0,0,0,.8.1.76.76,0,0,0,.4-.1c.2-.1.2-.1.3,0,.2.3.4.5.6.5s.3.1.3,0h.3c.1,0,.3,0,.3-.1s.2,0,.3.2.3.6.6.6c.1,0,.2,0,.2.1.2.1.7-.4.8-.7s.1-.2,0-.4-.2-.2-.3-.2c-.3,0-.4,0-.5.1s0,.2.2.3.3.2.1.4-.2.2-.5.1-.2-.2-.2-.6.1-.5.6-.5.5.1.7.5.2.4,0,.8a1,1,0,0,0,.3,1.2c.4.4.5.5.8.4s.2,0,.1.3a4.33,4.33,0,0,0-.1.5c0,.4.1.9.3,1s.5.1.5,0h.1a.76.76,0,0,0,.4-.1.49.49,0,0,1,.3-.1.31.31,0,0,0,.1.2c0,.1,0,.2-.1.2a.94.94,0,0,0-.7.5,1.69,1.69,0,0,0-.2.5,1,1,0,0,0,.6.9c.3.1.2.1.1.3a1.1,1.1,0,0,0,0,.8.22.22,0,0,0,.2.2c.1.1.2.1.4,0s.5-.3.5-.4-.2-.1-.3,0a.35.35,0,0,1-.2.1c-.2,0-.3-.3-.1-.5s.1-.1.2-.1h.3c.2,0,.5.2.5.3v.3a.7.7,0,0,1-.8.6c-.3,0-.3,0-.5-.2A1.49,1.49,0,0,1,32,25c0-.2-.1-.4-.2-.3a1.72,1.72,0,0,0-.1.8,18.19,18.19,0,0,1,0,3.3,1.08,1.08,0,0,0-.1.6c0,.1-.1.3-.1.4a1,1,0,0,1-.1.3,1,1,0,0,0-.1.3,1,1,0,0,1-.1.3,3.93,3.93,0,0,1-.2.6c0,.1-.1.2-.2.4a9.13,9.13,0,0,1-.8,1.7s-.2.3-.3.5a3.51,3.51,0,0,1-.5.8c-.1.2-.3.4-.3.5a6.82,6.82,0,0,1-2.9,2.2,2,2,0,0,1-.7.1c-1.2.2-2.2-.7-3.3-1.3a3.29,3.29,0,0,1-.6-.3c-.3-.3-.4-.3-.4-.3h0v-.1l-.1-.1a.75.75,0,0,0-.3-.3,4.19,4.19,0,0,1-1.1-1.6.49.49,0,0,1-.1-.3.1.1,0,0,0-.1-.1.1.1,0,0,1-.1-.1L18,30a2.35,2.35,0,0,1-.2-.8v-.1a.77.77,0,0,0-.1-.3c0-.2,0-.3-.1-.3s-.2-.6-.1-.6h0a.44.44,0,0,1-.1-.3c0-.4,0-.6-.1-.6v-1.2l-.2.2-.1.3h-.3a1.21,1.21,0,0,1-.7-.7v-.3c0-.1.3-.3.5-.3h.3c.1,0,.2,0,.2.1.2.2.1.5-.1.5s-.1,0-.2-.1-.3-.1-.3,0,.2.3.5.4.4.1.5-.2a1.1,1.1,0,0,0,0-.8c-.1-.2-.1-.2.1-.3a1,1,0,0,0,.6-.9,1.69,1.69,0,0,0-.2-.5c-.2-.3-.2-.4-.7-.5-.1,0-.1-.1-.1-.2s0-.2.1-.2a.77.77,0,0,1,.3.1.76.76,0,0,0,.4.1H18c0,.1.3,0,.5,0a1.33,1.33,0,0,0,.4-1,4.33,4.33,0,0,0-.1-.5c-.1-.3-.1-.4.1-.3s.3,0,.8-.4a1,1,0,0,0,.3-1.2c-.2-.5-.2-.5,0-.8.4-.5.5-.6.9-.6Zm-6.3.3c.1,0,.1,0,.1.1a.31.31,0,0,1-.1.2c0,.2,0,.2-.1.1a.35.35,0,0,0-.1-.2c.1-.2.1-.2.2-.2Zm20.6,0c.1,0,.1,0,.1.1s0,.2-.1.2-.1.1-.1-.1,0-.2-.1-.2Zm-21.9,0a.82.82,0,0,1,.8.5.47.47,0,0,1-.1.6c-.1.1-.1.2-.2.2-.4.1-.5,0-.6-.1L13,19c0-.1.1-.1.2-.2s.1-.1.2-.1c.1-.2-.3-.3-.5-.1s-.2.3-.1.5.1.4-.1.4-.3-.3-.4-.5a.89.89,0,0,1,.8-1,.14.14,0,0,0,.2,0Zm23.2,0h.1c.6.1.9.5.8,1a.46.46,0,0,1-.4.5c-.2,0-.2-.1-.1-.4s.1-.4-.1-.5-.7-.1-.5.1c0,.1.1.1.2.1a.22.22,0,0,1,.2.2l-.2.2c-.2.2-.2.2-.6.1l-.2-.2a.48.48,0,0,1-.1-.6,1.38,1.38,0,0,1,.9-.5Zm-17.3.6a.82.82,0,0,1,.6.4c.1.4.1.7-.1.9s-.2.2-.2.3-.4.2-.6,0a.74.74,0,0,1-.4-.9c0-.1.1-.1.2-.1a.27.27,0,0,1,.3.3c0,.1,0,.2.1.1a.1.1,0,0,1,.1.1c.1.1.1.1.2,0s.1-.1.1-.2a.71.71,0,0,0-.3-.6q-.45-.15,0-.3Zm11.4,0h0c.3.1.3.2.1.3a.71.71,0,0,0-.3.6.35.35,0,0,0,.1.2c.1.1.1.1.2,0l.1-.1c.1,0,.1,0,.1-.1a.27.27,0,0,1,.3-.3c.1,0,.2,0,.2.1a.74.74,0,0,1-.4.9q-.45.3-.6,0c0-.1-.1-.2-.2-.3a.94.94,0,0,1-.1-.9c0-.2.3-.4.5-.4Zm-21.3.2c.2,0,.3.1.4.3.2.4-.1.8-.4.4l-.2-.2c-.1,0-.1.2,0,.3.2.3.3.3.6.3s.3,0,.3.1,0,.2.1.2,0,.2-.1.2a1.5,1.5,0,0,1-1.1-.4,2.35,2.35,0,0,1-.2-.8c0-.3.3-.4.6-.4Zm31.2,0a.63.63,0,0,1,.6.5c0,.2,0,.7-.2.8s-.8.4-1,.4-.2-.1-.1-.2a.31.31,0,0,1,.1-.2c0-.1,0-.1.3-.1s.5,0,.6-.3c.1-.1.1-.3,0-.3l-.2.2c-.3.3-.6,0-.4-.4,0-.4.1-.4.3-.4Zm-30.3.1h0c.1,0,.1.3,0,.3a.35.35,0,0,1-.1-.2l.1-.1Zm29.3,0V19c0,.1,0,.1-.1.2s0-.3.1-.3Zm-28.3.2h.1c.3,0,.3,0,.5.2s.4.5.3.7-.2.2-.4.3-.3.1-.4,0-.2-.1,0-.3.2-.2.1-.2-.4,0-.6.1-.2.3,0,.5a.31.31,0,0,1,.1.2.35.35,0,0,1,.1.2c.1.1.2.1.4.1h.3l.1.3c.1.3.1.4-.1.4s-.8.5-.9.7a.35.35,0,0,1-.1.2.35.35,0,0,0-.1.2c-.1.1-.1.1-.3.1s-.3,0-.3-.1l-.1-.1c-.2,0-.7-.8-.7-1,.1-.4.6-.8.9-.7s.4.1.5.2a.45.45,0,0,1,0,.5c-.1.2-.2.2-.4.1s-.3-.1-.3,0a.35.35,0,0,1,.1.2c.1.1.2.1.2.2s.4.2.5.1a2.09,2.09,0,0,0,.4-.6v-.2a2.31,2.31,0,0,0-.5-.7c-.2-.1-.3-.5-.3-.7a.64.64,0,0,1,.5-.5c.1,0,.1,0,.1-.1s.2-.3.3-.3Zm27.4,0h.2l.1.1a.64.64,0,0,1,.5.5.78.78,0,0,1-.3.7,1.53,1.53,0,0,0-.5.7v.2c0,.2.3.6.4.6a.44.44,0,0,0,.5-.1c.1-.1.2-.1.2-.2s.1-.1.1-.2-.2-.1-.3,0-.3.1-.4-.1a.45.45,0,0,1,0-.5.59.59,0,0,1,.5-.2c.3-.1.8.3.9.7.1.2-.4,1-.7,1-.1,0-.1,0-.1.1a1,1,0,0,1-.3.1c-.2,0-.3,0-.3-.1s-.1-.1-.1-.2a.35.35,0,0,1-.1-.2,1.27,1.27,0,0,0-.9-.7c-.2,0-.2-.1-.1-.4l.1-.3h.3c.3,0,.3,0,.4-.1s.1-.1.1-.2a.35.35,0,0,0,.1-.2.45.45,0,0,0,0-.5c-.1-.1-.5-.2-.6-.1a.35.35,0,0,1,.1.2q.3.3,0,.3H38c-.2-.1-.3-.1-.4-.3s-.1-.4.3-.7a.55.55,0,0,1,.5-.2c.1.3.2.3.2.3Zm-21.6.1h.1c.3,0,.6.4.5.6s-.1.2-.3.2-.2,0-.2-.1a.19.19,0,0,0-.3-.1c-.1,0-.1.1,0,.2.1.3.2.4.4.4h.4c.2,0,.5-.2.5-.4s.1-.1.2,0,0,.3-.1.3a1,1,0,0,0-.7.6c-.1.2-.2.2-.2.2h-.2L17,21c0-.1-.1-.2-.3-.2a.7.7,0,0,1-.4-.5,1.22,1.22,0,0,1,.4-.9c.2-.1.2-.2.3-.2Zm15.8,0c.1,0,.2.1.3.2.3.3.5.6.4.9s-.1.4-.4.5c-.1,0-.2.1-.3.2a.1.1,0,0,1-.1.1h-.1c-.1,0-.1,0-.2-.2a3.74,3.74,0,0,0-.7-.6c-.2,0-.2-.1-.1-.3s.2-.2.2,0a.7.7,0,0,0,.5.4h.4c.2,0,.3-.1.4-.4a.14.14,0,0,0,0-.2c-.2-.1-.3,0-.3.1s-.1.1-.2.1-.3-.1-.3-.2.2-.6.5-.6Zm-16.9.3h0c.1.1,0,.1,0,.1s-.1,0,0-.1Zm18,0h0c.1.1,0,.1,0,.1v-.1Zm-19,.2c.2,0,.3.1.5.2.4.4.5.8.2,1.1-.1.1-.2.2-.3.1s-.3-.2-.1-.3,0-.4-.2-.3-.3.1-.3.4-.1.2-.2.1-.1-.4-.1-.7.3-.6.5-.6Zm19.9,0c.3,0,.5.2.5.6s0,.6-.1.7-.2.1-.2-.1,0-.3-.3-.4-.4.1-.2.3.1.2-.2.3-.2,0-.3-.1c-.3-.3-.2-.7.2-1.1a1,1,0,0,1,.6-.2Zm-21.5.1c.1,0,.2.1.3.2.3.3.2.8-.2.7-.1,0-.1-.1-.1-.2s-.1-.2-.2-.2-.1.2.1.4.2.2.5.2.3,0,.4-.1l.1-.1.1.1a.19.19,0,0,1,0,.3.35.35,0,0,1-.2.1.35.35,0,0,0-.2.1,2.48,2.48,0,0,1-.9.1.75.75,0,0,1-.5-.7,1.62,1.62,0,0,1,.5-.9c.1.1.2,0,.3,0Zm23.2,0a.76.76,0,0,1,.4.1.94.94,0,0,1,.5.9.75.75,0,0,1-.5.7c-.3.1-.8.1-.9-.1a.35.35,0,0,0-.2-.1.35.35,0,0,1-.2-.1.19.19,0,0,1,0-.3l.1-.1.1.1c.1.1.2.1.4.1a.55.55,0,0,0,.5-.2c.2-.2.2-.4.1-.4s-.2,0-.2.2-.1.1-.1.2a.4.4,0,0,1-.2-.7c0-.2.1-.3.2-.3Zm-18.2,1h.1l.2.2c.1.2.1.2.1.6s0,.5-.1.5a.37.37,0,0,1-.3.1c-.2,0-.3,0-.4-.1s-.2-.4,0-.5.1-.1.1,0,.4.1.4,0,0-.2-.2-.3a.47.47,0,0,0-.6.1c-.3.2-.2,0,.1-.3a.86.86,0,0,1,.6-.3Zm13.2,0a.72.72,0,0,1,.6.4c.3.3.3.4.1.3a.66.66,0,0,0-.6-.1c-.2.1-.2.2-.2.3s.3.2.4,0,.1,0,.1,0a.45.45,0,0,1,0,.5c-.1.1-.2.1-.4.1s-.3,0-.3-.1-.1-.2-.1-.5,0-.5.1-.6l.2-.2a.1.1,0,0,1,.1-.1Zm-15.3.2c.2,0,.1.1-.2.4s-.4.4-.2.5.1,0,.2-.1a.86.86,0,0,1,.6-.3c.3,0,.4.3.4.7,0,.2,0,.3-.2.4a.37.37,0,0,1-.3.1c-.2,0-.2-.2-.1-.3s.1-.1,0-.2-.2-.1-.4.1a.45.45,0,0,0,0,.5c.1.2.1.2-.1.1a.35.35,0,0,1-.2-.1c.1-.2.1-.7,0-.7a.35.35,0,0,0-.2-.1c-.1,0-.2,0-.3.5a.54.54,0,0,1-.3.4c-.4.4-.7.5-1,.2a1.58,1.58,0,0,1-.5-.8.6.6,0,0,1,.1-.4c.4-.5.8-.5.8,0a.43.43,0,0,1-.4.4c-.1,0-.1,0,0,.1s.3.2.6.1.4-.8.2-1c0-.1-.1-.2-.1-.3v-.1l.2.2c.2.2.2.2.4.1s.3-.2.4-.2a1.37,1.37,0,0,0,.6-.2Zm17.3,0a.22.22,0,0,1,.2.2.76.76,0,0,0,.4.2c.2.1.2.1.5-.1l.2-.2v.1a.37.37,0,0,1-.1.3c-.2.2,0,.9.2,1s.5.1.6-.1v-.1a.43.43,0,0,1-.4-.4c0-.4.4-.4.8,0,.1.1.2.2.1.4a1.37,1.37,0,0,1-.5.8c-.4.2-.6.2-1-.2-.1-.2-.3-.3-.3-.4-.1-.5-.1-.5-.3-.5s-.2,0-.2.1v.7c0,.1,0,.1-.2.1s-.2,0-.1-.1.2-.4,0-.5-.2-.2-.4-.1-.1.1,0,.2,0,.3-.1.3a.37.37,0,0,1-.3-.1c-.1-.1-.1-.2-.2-.4,0-.4.2-.7.4-.7a.86.86,0,0,1,.6.3.31.31,0,0,0,.2.1c.2-.1.1-.3-.2-.5,0-.2,0-.4.1-.4Zm-21.4.7a.37.37,0,0,1,.3.1c.2.2-.1.7-.3.5s-.2,0,0,.2.3.2.5.1a1.61,1.61,0,0,0,.4-.7c0-.1.1-.1.2,0s.1.2.1.4-.1.3-.2.5a2.18,2.18,0,0,1-.5.4,1.1,1.1,0,0,1-.8,0,1.14,1.14,0,0,1-.3-.6c-.3-.3.1-.9.6-.9Zm25.6,0a.78.78,0,0,1,.7,1,3.33,3.33,0,0,1-.3.6c-.1.1-.6,0-.8,0a.7.7,0,0,1-.5-.4.76.76,0,0,1-.2-.5c0-.2,0-.3.1-.4s.2-.1.2,0a1,1,0,0,0,.4.7c.2.1.3.1.5-.1s.2-.3,0-.2-.5-.3-.3-.5a.22.22,0,0,1,.2-.2Zm-21.1,1.4h0c.1.1,0,.1,0,.1s-.1,0,0-.1Zm16.6,0h0c.1.1,0,.1,0,.1v-.1Zm-15.9.1a.51.51,0,0,1,.5.4c.2.4.2.5-.1.8s-.3.2-.4.1-.2-.3,0-.3.2-.2.2-.3-.4,0-.5.1-.1.1-.2.1.1-.5.2-.7.2-.2.3-.2Zm15.2,0a.37.37,0,0,1,.3.1c.2.2.4.7.2.7a.35.35,0,0,0-.2-.1c-.1-.1-.5-.2-.5-.1s0,.2.2.3.1.2,0,.3-.2.1-.4-.1-.3-.4-.1-.8a.85.85,0,0,1,.5-.3Zm-16.7.1c.2,0,.3.1.4.3s-.2.4-.5.2c-.1-.1-.1.1.1.2a.52.52,0,0,0,.4.2c.3,0,.3.1.4.3a.49.49,0,0,1,.1.3.44.44,0,0,1-.3.1,1,1,0,0,1-.7-.2c-.2-.1-.3-.5-.3-.9-.1-.2.1-.4.4-.5Zm18.2,0h0a.63.63,0,0,1,.5.6c0,.4-.1.8-.3.9s-.3.2-.7.2a.44.44,0,0,1-.3-.1.49.49,0,0,1,.1-.3c.1-.2.1-.3.4-.3a.52.52,0,0,0,.4-.2c.2-.2.2-.3.1-.2-.4.2-.7,0-.5-.2,0-.3.2-.4.3-.4Zm-4.9.9a3.81,3.81,0,0,0-1.9.6.49.49,0,0,1-.3.1,1.44,1.44,0,0,0-.3.2c-.3.3-.3.3-.2.4a.25.25,0,0,0,.4-.1c0-.1.1-.1.2-.1a.1.1,0,0,0,.1-.1.1.1,0,0,1,.1-.1c.1,0,.1,0,.1-.1a.1.1,0,0,1,.1-.1c.1,0,.2-.1.3-.1a.31.31,0,0,1,.2-.1.31.31,0,0,0,.2-.1,1.53,1.53,0,0,1,1.3-.1.49.49,0,0,0,.3.1l.2.2c.2.2.2.3.4.2s.1-.2.1-.4a.1.1,0,0,0-.1-.1.31.31,0,0,1-.2-.1l-.2-.2v-.1a.35.35,0,0,0-.2-.1.1.1,0,0,1-.1-.1.54.54,0,0,1-.5.3Zm-9.2.2a1.49,1.49,0,0,0-.9.4c-.1.1-.2.2-.2.1a.1.1,0,0,0-.1.1c-.1.2,0,.4.1.4s.2,0,.4-.2l.2-.2a1,1,0,0,1,.3-.1A1.51,1.51,0,0,1,21,25a.31.31,0,0,0,.2.1.31.31,0,0,1,.2.1.49.49,0,0,0,.3.1.1.1,0,0,1,.1.1.1.1,0,0,0,.1.1c.1,0,.1,0,.1.1a.1.1,0,0,0,.1.1.35.35,0,0,0,.2.1.25.25,0,0,0,.4.1c.1-.1.1-.2-.2-.4a1.44,1.44,0,0,0-.3-.2,1,1,0,0,0-.3-.1,3.45,3.45,0,0,0-2-.8Zm8.4,1.3c-.5,0-.5,0-.7.1s-.4.3-.6.5c-.5.5-.5.5-.2.8s.3.2.7.4a2,2,0,0,0,1.1,0,1.85,1.85,0,0,0,.7-.2,2.17,2.17,0,0,0,.7-.6c.1-.1.1-.1-.1-.3a2.31,2.31,0,0,0-.9-.6l-.2-.1Zm-4.8.2s-.1,0,0,.2a6.08,6.08,0,0,1,0,2.7c-.2.4.1.6.3.2a3.42,3.42,0,0,0,.1-1.1,3,3,0,0,0-.2-1.5c0-.3-.1-.5-.2-.5Zm-2.8,0c-.5,0-.5,0-.7.1s-.4.3-.6.5c-.5.5-.5.5-.2.8s.3.2.7.4a2,2,0,0,0,1.1,0,1.85,1.85,0,0,0,.7-.2,2.17,2.17,0,0,0,.7-.6c.1-.1.1-.1-.1-.3a2.31,2.31,0,0,0-.9-.6l-.4-.2h-.3Zm8,.2a1.1,1.1,0,0,1,.6.3,1.44,1.44,0,0,0,.3.2c.2.1.1.3-.3.4-.1,0-.3.1-.4.1s-.1,0-.1-.1a.75.75,0,0,0-.1-.8c-.1,0-.1,0,0-.1Zm-1.2.2v.8c-.1,0-.5-.2-.5-.3l.5-.5Zm-6.5,0a1.1,1.1,0,0,1,.6.3,1.44,1.44,0,0,0,.3.2c.2.1.1.3-.3.4-.1,0-.3.1-.4.1s-.1,0-.1-.1a.75.75,0,0,0-.1-.8v-.1Zm-1.1.2v.8c-.1,0-.4-.2-.4-.3s.3-.5.4-.5Zm12.3.2h0c.1,0,.1.2.1.2-.2,0-.2,0-.1-.2Zm-15.3.1H17a1,1,0,0,1,.1.3,1,1,0,0,0,.1.3c.1.1,0,.2-.2.1s-.3,0-.3.2.1.9.2.9a.31.31,0,0,0,.2-.1c.1-.1.1-.1.1-.3s0-.3.1-.2a2.54,2.54,0,0,1,.3,1.2c.1.4,0,.5-.2.5a.79.79,0,0,1-.5-.5.22.22,0,0,0-.2-.2.1.1,0,0,1-.1-.1.31.31,0,0,0-.1-.2.35.35,0,0,0-.1-.2.37.37,0,0,0-.1-.3c-.1-.3-.1-.3-.1-.4v-.2a1.88,1.88,0,0,1,.2-.8l.1-.1c.1.2.2.1.4.1Zm16,.1a.6.6,0,0,1,.4.1.37.37,0,0,1,.1.3c0,.1-.1.3-.1.4a8.08,8.08,0,0,1-.9,2.1q-.15.3-.3.3c-.1,0-.1,0-.1-.3s0-.3.1-.3v-.2a.31.31,0,0,1,.1-.2c0-.5.2-.9.3-.9a.35.35,0,0,1,.2-.1.31.31,0,0,1,.2-.1.31.31,0,0,0,.2-.1c.1-.1.1-.1.1-.3s0-.2-.1-.2-.3.1-.5.3l-.2.2a.19.19,0,0,1-.1-.3v-.1c-.1,0,0-.4,0-.4l.2-.2c.1.1.3,0,.4,0Zm-6.2,3.6c-.1,0-.1,0-.2.1-.5.4-1.1-.2-1.7.2-.1.1-.7.2-.7.1a.35.35,0,0,0-.2-.1.85.85,0,0,0-.7,0c-.1,0-.2.1-.3.1s-.2,0-.2-.2,0-.1-.1-.1h-.1l-.1.1c-.1.2-.1.2,0,.3s.1.1.3.1h.4c0-.1.4,0,.6.1s.2.1.3.1.6,0,.6-.1a.1.1,0,0,0,.1-.1c.1,0,.2,0,.2-.1a.64.64,0,0,1,.6,0,1.73,1.73,0,0,0,1-.1c.2-.1.3-.2.2-.4Zm-9.5.1h0a1.49,1.49,0,0,0-.4.9v.9a2.39,2.39,0,0,0,.3.9l.2.4a2.09,2.09,0,0,0,.6.4c.1,0,.2.1.4.1h.2q-.45.15-.6,0h-.3a.35.35,0,0,0-.2-.1,2,2,0,0,1-.7-.6c-.1-.2-.2-.3-.2-.4h0a.31.31,0,0,0-.1-.2c-.1-.1-.1-.3-.1-.6,0-.6,0-.8.1-.9a1.44,1.44,0,0,1,.2-.3c.2-.1.5-.5.6-.5Zm15.2.1h0c.2.1.4.5.5,1.2a1.86,1.86,0,0,1-1.1,2.1c-.5.2-.6.3-.9.3h-.2a.37.37,0,0,0,.3-.1c.2,0,.3-.1.4-.1a2.09,2.09,0,0,1,.6-.4l.2-.4a1.61,1.61,0,0,0,.3-.9,1.35,1.35,0,0,0,0-.9,1.18,1.18,0,0,0-.1-.8Zm-14.9,0c.1,0,.1,0,.2.1a2.48,2.48,0,0,1,.4.6,18.94,18.94,0,0,1,.9,2.1.6.6,0,0,1,.1.4V34a.82.82,0,0,1-.7,0h-.1c-.1,0-.1,0-.1-.1a.35.35,0,0,0-.2-.1,1.87,1.87,0,0,1-.6-.7c0-.1-.1-.2-.1-.3a.1.1,0,0,0-.1-.1v-.1c-.1-.2-.1-.3,0-.8s.1-.6.2-.7a.76.76,0,0,1,.1-.4Zm14.6.4c.1.1.1.3.2.7v.9a.1.1,0,0,1-.1.1c0,.1-.1.2-.1.3a2,2,0,0,1-.6.7c-.1,0-.1.1-.2.1a.1.1,0,0,1-.1.1h-.1a.45.45,0,0,1-.5,0l.3-.6v-.2s.4-.5.4-.7a.1.1,0,0,1,.1-.1,2.61,2.61,0,0,0,.3-.8c0-.1.3-.4.4-.5Zm-6.7,1.6c-.1,0-.2.1-.3.2-.3.2-.3.2-.4,0a.37.37,0,0,0-.3-.1c-.3,0-.6.1-.6.2h0a3.53,3.53,0,0,0-.7.6c-.2.2-.2.2-.5.2s-.3,0-.3-.1h-.2c-.1,0-.1.1.1.3a1.33,1.33,0,0,0,.5.3c.1,0,.3.1.4.1s.2.1.2,0h.3c.1,0,.4-.1.6-.1.6-.2.6-.2,1-.1.2.1.4.2.5.1H26a2.28,2.28,0,0,0,1.1-.3,3.11,3.11,0,0,1,.6-.4c-.1,0,.1-.2.1-.2s.1-.3,0-.3a.6.6,0,0,0-.4.1.35.35,0,0,1-.2.1.82.82,0,0,1-.7-.1,3.7,3.7,0,0,0-1.1-.5Zm0,.4c.1,0,.8.3.8.4l.2.2c.1.1.2.1.2.2s-.3.1-.6.2a5.16,5.16,0,0,1-1.1-.2,1.09,1.09,0,0,0-.5-.1,2.28,2.28,0,0,1-1.1.3H23a1.44,1.44,0,0,1,.7-.6c.4-.2.5-.2.7,0s.2.2.2.1a.1.1,0,0,1,.1-.1,1,1,0,0,1,.3-.1c.3-.3.4-.3.4-.3Zm.8,1.5c-.1,0-.1,0-.2.1a2.31,2.31,0,0,1-2.1.1c-.3-.2-.4-.2-.5-.1s.1.5.5.5a.35.35,0,0,1,.2.1c0,.1.2.1.8.1s.8,0,1-.1.5-.6.3-.7Zm3,1.5h0c0,.4.2,1.7.2,1.9a3.77,3.77,0,0,0,.8,1.8l.3.3.1.1c.1,0,.1.2-.1.5s-.2.3-.2.4a.22.22,0,0,1-.2.2,1.69,1.69,0,0,0-.6.3,1.1,1.1,0,0,0-.3.6c0,.1,0,.1-.3.2a.72.72,0,0,0-.7.4.31.31,0,0,0-.1.2l-.2-.2c-.2-.2-.3-.2-.5-.1a.75.75,0,0,0-.7.4c-.1.2-.2.2-.5,0a.37.37,0,0,0-.3-.1h-.2a1.44,1.44,0,0,0-.3.2l-.4.2-.1-.2c-.1-.3-.2-.4-.4-.4s-.2-.1-.3-.1a.64.64,0,0,0-.6,0c-.1.1-.1.1-.4,0-.1-.1-.3-.2-.4-.3s-.2-.2-.4-.1-.3.1-.4.1h-.1l-.1-.2a.35.35,0,0,0-.1-.2.35.35,0,0,1-.1-.2.31.31,0,0,1-.1-.2c0-.1-.4-.3-.7-.3s-.2,0-.2-.2a.37.37,0,0,0-.1-.3.37.37,0,0,1-.1-.3v-.1l-.1-.1a.35.35,0,0,0-.1-.2V40l.2-.2c.1-.1.2-.3.3-.4a5.76,5.76,0,0,0,.5-.9,2.71,2.71,0,0,0,.3-.8v-1.2l.4.2c1.2.6,2.4,1.5,3.7,1.4a2.77,2.77,0,0,0,.8-.1.35.35,0,0,1,.2-.1c.1,0,.2,0,.2-.1a.1.1,0,0,1,.1-.1,5.87,5.87,0,0,0,2.3-1.6Zm-9.3,4.3c.1,0,.1,0,.1.1s.1.1,0,.2-.1.2,0,.4a.59.59,0,0,1-.1.7c-.1.1-.2.2-.3.2a.89.89,0,0,1-.5-.4.59.59,0,0,1,.3-.9.91.91,0,0,1,.5-.3Zm11.4.2a.55.55,0,0,1,.5.3.37.37,0,0,1-.1.3c-.2.3-.2.3-.5.3s-.3,0-.3-.2-.1-.2,0-.2A.1.1,0,0,1,31,41c-.1-.1.1-.3.3-.4Zm-1.1,1.1c.1,0,.2,0,.4.2s.2.2.2.3a.55.55,0,0,1-.6.4c-.3,0-.3,0-.4-.1-.1-.3,0-.8.3-.9a.1.1,0,0,0,.1.1Zm-9.2.1c.1,0,.2,0,.2.1a1.07,1.07,0,0,1,.2.6.49.49,0,0,1-.9.2c-.2-.2-.2-.2-.2-.4s.1-.2.2-.4a4.33,4.33,0,0,0,.5-.1Zm1.6.8q.15,0,.3.3c0,.1.1.1.2.1s.2.3-.1.5-.5.2-.7,0-.2-.4-.1-.4l.1-.1c-.2-.2.1-.4.3-.4Zm6.3.1a.52.52,0,0,1,.4.2c.1.3,0,.4-.4.6q-.3.15-.3,0c-.1-.1-.1-.3-.1-.6.1-.1.3-.1.4-.2ZM24,43h0a.46.46,0,0,1,.5.4c0,.2,0,.3-.3.4s-.4.1-.5,0a.48.48,0,0,1,0-.7c.1,0,.2-.1.3-.1Zm3.4.1a.37.37,0,0,1,.3.1.38.38,0,0,1,0,.6q-.3.3-.3,0c0-.1-.1-.1-.2-.1a.35.35,0,0,1-.2-.1c-.1-.1,0-.4.1-.4h0a.35.35,0,0,1,.2-.1Zm-1.5.3q.15,0,.3.3c.1.2.1.3-.2.5s-.3.2-.5.2-.2,0-.2-.1,0-.1-.1-.2,0-.2.2-.4.4-.4.5-.3Z"/></g></g></svg>