<svg xmlns="http://www.w3.org/2000/svg" viewBox="0 0 133.07 40"><defs><style>.cls-1{fill:#a67f56;}</style></defs><g id="圖層_2" data-name="圖層 2"><g id="event"><path id="af_t" class="cls-1" d="M39.16,36.53,38.71,36l-.69-.7-1.48-.65-.75-1-1.14-2.68-.44-1v-.84l-.45-2-.39-.89.1-1.19-.9-.4,0-1,.24-.39,0-1.69-.35-.8L29.41,17l-.2-1.94-.65-1.14.25-2.34-.1-2.68-.49.25L26.93,7.92l.25-.79-.34-.65-.24-1-.72-2.32h-.39l0-1.34.34.1L25.64.84,24.53.25H23L18.93,2.72,17.1,7.62l-.39.4L15.92,9.8l-.39.79-.1.89-1.18,2.93-.05,1-.74.44-.64,1.93-1,2.68-.44.29,0,1.44-.8.69v1.19L9.9,25,8.75,27.43l-1.39,4.4L6.52,33l-1,.94-.74.5-1.94.49L1,36,0,37.28l.4.94.79.84,1.44.33L3.77,40l.45-.94.65.35,1.54-.35H7.6l.89.59.84-.59,1,.35,4.12-.35,2.13.25.15-.65.37-.1.33-.69-1-.69-2-.65h-1l-.8-.54-.49.1L12,34.89l-.79-.65L11,33.3l.54,0,.2-.65-.54-.3.89-2.69,0-.9.64.15V27.5l1.29-2.66-.4-.05.4-.5v-.7l.55-.41.1-.75.55-.35H23l1,.35,1,.35.2,1.64.95,1.79.1,1.05.61,1.15.85,3,.45.7-.2.44L29.11,35l.3.7-.7.79-.89.35-.74-.35H25.45l-.05.35-.55-.35-.49.31-.3,1,.54.93,1.29.31.65.39,1.38-.39h4.9l1.44.29,3.36-.29,1.59.44,1.09-.44.84-1.14-1.29-1.39ZM23,18.91l-.4.4L21.17,20l-.69.15-1.25-.45L18,19.41l-1.3-.4L16,18.36l.74-.39L16.58,17l.55-1.29.1-1.19.54-1.23.65-1.44.89-.94.84.39.44,1.1.65.69.1,1.09.59,1.28.6.7L23,17.47ZM60.55,17l-.5.55-.69.83H56.48l-1.28.5-1.59.29v.59l-.59.4.59,1.18v4.82l.3.5-.3.49v3.74l-.19.69.49.39V35.1l.41.59,1.42.41,1.12.41.71.81.3.72v.61l-.29.41-2.72-.2-1.84.2H51.49l-.61.29h-.71L49.65,39l-.79.39-1.19.3H47l-1-.29-.59-.29v-1l-.2-.49.2-.48.37-.68.46-.77h.84l.55-.2L48,34.9l.37-.49.39-3.08-.39-.49.2-.39v-.6l-.2-.5V25.3l.39-1.79-.39-.09.2-.6V18.46l-.4.1-2.38-.2-1-.39-.2-.69V16.19l.6-.4L46,15.2l1.39-.3.29-.39V12.94l.7-.79V8l.39-.69.5-1-.1-1,.49-1,.6-.48V3.22h.39l.11-.6,1.18-1.18,1.29-.5,1-.1L54.8.25l.89.2.5-.45.59.45.8-.45.79.45h1.48l.2-.45.5.64H63l1.78.2.7.2.39.59v.2l.79.6.2,2.67-.4.27-.39.55-.8.47L65,7H64l-.49-.59h-.6l-.7-.7h-.5L61,5l-.4-.3-.7-.1L59.6,4l-.7-.3-.5-.2H55.71l-.8.19-.7.67-.3.56-.3.76-.11.7L53,6.68v2.8l.24.39.35,1.35-.59.39-.4.68.18,1.64.45.49.76.48h5.55l.89.59Zm18.71.13.39.8-.2,1.5-.2.8-.89,1V22l-.89.7-.69-.29-1-.6-.69-.69-.6-.89-1.09-.6-.59.6-1,.29-.89.4-.89.3-.6,1v5.94l.33,4.75.66.2-.29,1.29.59.59.69.79.9.5.69,1-.4,1.28-.49.6-2.28-.3-.79.79-2.28-.11-.69-.46L65.3,39l-.5.39-1.48.3-1-.2-.8-.29-.59-.7-.5-.89.32-1.28,1-.6.83-.2.94-.39.52-.69.31-.5-.69-.49.12-1.1.57-.69V25.49l.1-2.37L64.4,22l-.54-.89-.66-.6L63,20l-.56-.4.42-1.38.31-.4.52-.89.73-.69.59-.6.6-.19.78-.4h2.17l.19.82.59.41.59,1.23.59.41.5-.51.78-.62.79-.51,1-.51,1.38-.21L76.21,15l1.08.5,1.18.9ZM90.4,36.83l.89.89-.45,1.19-1.19.44-1.33-.14L87,39.35l-1.63-.59-1,.59-1,.6H81.78l-1-.89-.44-.89.14-1.34,1.34-.15L83,35.49l.3-1.78.14-1.78L83,30.59l.59-.44v-1l.6-.75-.6-.74-.44-2.52.15-1.79-1.19-.44-1.49-.74-.15-1.34.75-1,.89-.29,1-.3.74-1.34,1.19.15,1.19-.15,1.48-.44.89.44.3,1-.15,1-.59,1.49.44.59.15,1.19-.3,1.48L88.32,26v4.16l-.15,1.63.59,1-.3,1,.3.59.45,1.34ZM85.64,7.28l-.89-1V4.9l.6-1.19,1.48-.44,1.49.44.74.45v.59L90,5.2l.15,1.33-.89.9-.89.74L86.83,8ZM98.36,24.5a11.06,11.06,0,0,0-.24,2,10.83,10.83,0,0,0,.07,1.37,2.85,2.85,0,0,0,.25.94c.13.24.25.37.38.37s.19.18.19.54v.94a1.9,1.9,0,0,0,.39.94l.55.8c.33.46.67.91,1,1.33a3.91,3.91,0,0,0,1.91.82,12.06,12.06,0,0,0,2.44.27,6.57,6.57,0,0,0,3-.64,2.76,2.76,0,0,0,1.53-2.08l.94.39c.26.17.39.33.39.5a.57.57,0,0,0-.09.2,2.2,2.2,0,0,0-.2.39l-.44,2.13-3.15,2.87a6.72,6.72,0,0,1-3.65,1,7.75,7.75,0,0,1-3.47-.76,8.36,8.36,0,0,1-2.78-2.31,4.9,4.9,0,0,1-.59-1,4.19,4.19,0,0,0-.59-1c-.39-.49-.66-.84-.79-1a6,6,0,0,1-.64-1.16c-.13-.35-.24-.69-.34-1a2.21,2.21,0,0,0-.42-.81,1.33,1.33,0,0,1-.27-.87V26.19a1.86,1.86,0,0,1,.54-1.09,3.12,3.12,0,0,0,.64-1,11.32,11.32,0,0,1,1.23-2.72c.49-.86,1-1.74,1.53-2.63.1-.07.32-.24.66-.52s.65-.5.91-.67a12.94,12.94,0,0,1,1.92-.89c1.12-.43,1.77-.68,2-.77a1.75,1.75,0,0,1,.71-.12,8.46,8.46,0,0,1,1,.1,8.58,8.58,0,0,0,1.18.1,7.12,7.12,0,0,1,3.54.74,3.2,3.2,0,0,1,1.68,3,2.6,2.6,0,0,1-.35,1.46,1.38,1.38,0,0,1-1.24.52,3.91,3.91,0,0,1-2.38-.86,8.22,8.22,0,0,0-2-1.22h-.59a1.35,1.35,0,0,0-.4-.1,5.27,5.27,0,0,0-.94-.14l-.44.44a2.73,2.73,0,0,0-1.24.3,1.91,1.91,0,0,0-.44.3,3.37,3.37,0,0,0-2,.49,2.21,2.21,0,0,0-.67,1.88A9.92,9.92,0,0,1,98.36,24.5Zm34.71,9.41a1.29,1.29,0,0,0-.72-.2,2.2,2.2,0,0,1-.72-.1h-.25c-.06.24-.18.36-.34.38l-.55,0h-.79l0,.3a.54.54,0,0,0-.46-.3h-.74l-.24.05a3.24,3.24,0,0,0-.15-.94,3.9,3.9,0,0,1-.14-.89.51.51,0,0,1,.07-.3,1.09,1.09,0,0,1,.22-.2V30.1a3.08,3.08,0,0,1,0-1.09l.25-.35s0-.21-.12-.54a3.75,3.75,0,0,1-.13-.84c0-.1.12-.7.35-1.79a4.49,4.49,0,0,0,.1-1,5.25,5.25,0,0,0-.18-1.1c-.13-.49-.21-.87-.27-1.13V19.46a7.58,7.58,0,0,0-.84-1.69A3.48,3.48,0,0,0,126,16.58a6.88,6.88,0,0,1-.84-.19c-.2-.07-.72-.3-1.55-.7a3.2,3.2,0,0,0-1.34-.39,2.46,2.46,0,0,0-.53.06l-.82.18a2.3,2.3,0,0,1-.75,0,1.51,1.51,0,0,0-.42.33,1.77,1.77,0,0,1-.53.37l-.89.09a1.18,1.18,0,0,0-.68.28c-.15.14-.31.32-.49.52a3.56,3.56,0,0,1-.48.44c-.3.23-.71.55-1.24.94a5.3,5.3,0,0,0-1,1.17L113.61,21a3,3,0,0,0-.44,1.63,1.92,1.92,0,0,0,.49.94,1,1,0,0,1,.2.6l1.54.14a2.14,2.14,0,0,0,1.23-.37,3.22,3.22,0,0,0,1-1,1.29,1.29,0,0,0,.14-.7V21.09a1.07,1.07,0,0,1,.2-.69l.4-.3a.93.93,0,0,1,.54-.27c.3-.09.45-.19.45-.33a4.19,4.19,0,0,0,.68-.07,4.19,4.19,0,0,1,.68-.08,4.57,4.57,0,0,1,1.62.4,11.68,11.68,0,0,0,1.26.45,1.9,1.9,0,0,1,.65,1L124,23.07l.19,3.41c-.13.17-.26.33-.39.47a2,2,0,0,1-.72.45l-.87.37a4.24,4.24,0,0,1-.89.25q-1.33.11-2.67.15a5.44,5.44,0,0,0-1.53.34,4.64,4.64,0,0,1-.42.37,1.11,1.11,0,0,1-.42.23h-1.14a5.5,5.5,0,0,0-1.94,2.14,5.86,5.86,0,0,0-.79,2.78,1.9,1.9,0,0,0,.3.92,7.76,7.76,0,0,1,.37.7,8.76,8.76,0,0,1,.27,1.09,2,2,0,0,0,.77,1.3,4.63,4.63,0,0,0,.89.47,3.81,3.81,0,0,0,.65.15,3.39,3.39,0,0,1,.81.25l1.14.44a2.79,2.79,0,0,0,1.54-.44l1.38-.89,1.68-.89a2.31,2.31,0,0,0,1.19-1.29,9.62,9.62,0,0,1,.84,1.14,3,3,0,0,0,1,.94l.55.59a1.29,1.29,0,0,1,.82.2c.15.13.35.12.61-.05H128a2.34,2.34,0,0,1,.74.2,2.4,2.4,0,0,0,.84.2,1.37,1.37,0,0,0,.84-.25l.6-.44a4.24,4.24,0,0,0,.94-1.13c.13-.26.36-.67.69-1.22a1.08,1.08,0,0,1,.4-.4,4.19,4.19,0,0,0,0-.88A1.81,1.81,0,0,1,133.07,33.91ZM124,32.47a2.24,2.24,0,0,1-.69,1.44,6.26,6.26,0,0,1-1.34.79c-.23.1-.51.23-.84.4a2.5,2.5,0,0,1-1.1.24,1.7,1.7,0,0,1-.44-.24l-.89-.2a2.32,2.32,0,0,1-1-1.19,4.08,4.08,0,0,1-.37-1.68q0-.75,1.11-1.41a4.75,4.75,0,0,1,1.66-.74,7,7,0,0,0,1.31-.35,3.88,3.88,0,0,1,1.16-.27H124Z"/></g></g></svg>