<svg xmlns="http://www.w3.org/2000/svg" viewBox="0 0 68.24 47.68"><defs><style>.cls-1{fill:#a67f56;}</style></defs><g id="圖層_2" data-name="圖層 2"><g id="event"><g id="af_t_c"><g id="af_t_c-2" data-name="af_t_c"><path class="cls-1" d="M8.79,1.65l.21,0C11,1.54,12,2.05,12,3.15a44.46,44.46,0,0,1,.21,4.5V27.33c0,.25-.11.38-.35.39-2.53,0-3.79-.36-3.79-1V21.85l-4.86.25c-2.11,0-3.16-.31-3.16-.83,0-.26.15-.39.35-.4l1.74-.08q1.84-.08,5.91-.5l.21-1.17V13.43H7.93q-1.19,0-5.19.69C1.5,14,.88,13.82.88,13.43v-.37a53.35,53.35,0,0,1,7.33-1V6.94l-5.05.23C1.21,7.17.23,6.89.23,6.33V6.17l1-.25,7-.35V2.9C8.3,2.08,8.5,1.66,8.79,1.65ZM16.14.84l1.09,0c1.67-.08,2.51.42,2.51,1.51v2l.3,0c1.46-.07,3.26-.23,5.4-.49l2.09.53V5.1a29,29,0,0,1-5.33.68l-2.46.13v6c2.8-.44,4.56-.67,5.27-.71,1.39.36,2.08.66,2.08.92v.19q0,.59-4.89.81l-2.46.14v6.86l.3,0Q21.89,20,27,19.55a2.85,2.85,0,0,1,2.27.91q0,.75-6.4,1.07l-1.53.09-1.58-.14v5.91a.33.33,0,0,1-.35.38l-.21,0c-1.85.1-3.06-.26-3.61-1.07V5.36C15.57,2.37,15.76.87,16.14.84Z"/><path class="cls-1" d="M39.16,9.39l.43.17,1.31-.28c.84,0,1.67,1.13,2.52,3.5v1.07c0,.18-.2.38-.6.62a1.42,1.42,0,0,1-.84-.2,1.59,1.59,0,0,1-.83.28q-1.92-3.81-2.79-3.79v-.55C38.36,10.08,38.62,9.81,39.16,9.39Zm6.56,4.87c1.23-.06,1.85.25,1.85.93,0,.37-1.16,3-3.48,8a43.07,43.07,0,0,0-1.32,4.64l-.6.41-2.58.14c-.18,0-.37-.18-.57-.53q2.59-6,5.7-12.36c-.18,0-.26,0-.26,0S45,15,45.72,14.26ZM42.22,1.58A2.1,2.1,0,0,1,44.3,3a9.48,9.48,0,0,1,1.07,3.09l-1,.25a2.5,2.5,0,0,1-2.74-1.76Q40.93,3,40.32,3V2.27C40.32,2,41,1.77,42.22,1.58ZM64,.07,65,0c1.84.34,2.76.63,2.76.88v.23c0,.37-.08.57-.23.58l.23,1.16v.63c0,.4-.07.6-.21.62l.65,6.53-.44,1.59a1.6,1.6,0,0,1,.23.58.44.44,0,0,0-.44.49v1.3a7,7,0,0,0,.21,1.74q-.27,2-.42,2.64l.21,1.28-.21,1.34a6.4,6.4,0,0,1,.21,1.51c0,.09-.08.14-.23.16l.23,1.14v1.53q0,2.55-.81,2.58l-1.65.09c0-.29-.14-.44-.42-.44V17.37c0-2-.32-2.9-.95-2.87-1.56.08-2.34-.38-2.34-1.39a7.83,7.83,0,0,1-1.65-1.56c-.11,1.24-.27,1.87-.5,1.88l.25.49v.86c0,.11-.08.16-.25.16a1.94,1.94,0,0,1,.25.72c-.13,1-.19,1.63-.19,1.78.28.29.49,1.57.63,3.85l-.21.89A6.76,6.76,0,0,1,60,23.85a.5.5,0,0,0-.44.53l.21,1-.37.19-1.91.09c-.84-.33-1.25-.57-1.25-.72a8.51,8.51,0,0,1,.44-2.62,11.61,11.61,0,0,1-.21-1.95V18a1.6,1.6,0,0,0-.22-.88,1.67,1.67,0,0,0,.22-.88,17.91,17.91,0,0,1-.23-1.86l-.53.31c-.73,0-1.35-.75-1.88-2.32l-.35,0a20,20,0,0,1-.65,4.89c0,.21.06.31.19.3l-.63,2.56.21.86q-2,4-2.09,4a14.25,14.25,0,0,1-2.83,1c-.53-.18-.79-.35-.79-.53v-.17a12.14,12.14,0,0,0,2.39-7.72c.17,0,.39-1,.66-3-1.1,0-1.91-.63-2.44-2.05-.15,0-.72-.54-1.7-1.62v-.12l1-.25.2,0a3.88,3.88,0,0,1,2.58.53l.76,0a7.9,7.9,0,0,1,.22-2L49.89,2.3h.37c.09,0,.14.07.14.26l.52-.3c1.25.14,1.87.52,1.87,1.13q0,.15,1.3,5.58a1.76,1.76,0,0,0-.21.88v.53a9.24,9.24,0,0,1,2.3.55l.25-1.6V2.9l-.43,0V2.57q0-.27.6-.6l1.27-.07a1.62,1.62,0,0,1,1.65,1c0,.08-.08.12-.23.12a15.33,15.33,0,0,1,.46,2.67l-.42,4.19.72.45.44-.23a4.63,4.63,0,0,1,3.2,2,2.43,2.43,0,0,1,.4.88l.39,0c0-.72.08-1.09.26-1.1l-.26-.49V7.59q0-2.18-.23-6.61L63.6,1V.47C63.63.22,63.76.08,64,.07Z"/></g><path class="cls-1" d="M15.45,34.06l3.7,10.74a6.52,6.52,0,0,0,.66,1.4,2.08,2.08,0,0,0,.92.82v.4H16.87V47c.64-.06.78-.66.42-1.68l-1-3h-4l-1,2.8c-.42,1.2-.32,1.86.28,1.88v.4H8.41V47a2.1,2.1,0,0,0,.82-.76,15.9,15.9,0,0,0,.88-1.82l4.12-10.38Zm-1.1,2.3-1.8,5H16Z"/><path class="cls-1" d="M22,47.42V47a1.86,1.86,0,0,0,.76-.8,4.44,4.44,0,0,0,.16-1.38V39.1H21.31v-.94h1.58V36.94a3.83,3.83,0,0,1,.9-2.46,3.09,3.09,0,0,1,2.28-.88,5.62,5.62,0,0,1,1.52.16c.18,0,.7.22,1.48.46v1.94h-.4l-1.52-1.34a1.64,1.64,0,0,0-1-.38c-.9,0-1.36.76-1.4,2.26v1.46h2.44v.94H24.77v5.74a4.44,4.44,0,0,0,.16,1.38,2,2,0,0,0,.76.8v.4Z"/><path class="cls-1" d="M32,44.84a5.36,5.36,0,0,0,.14,1.38A2.06,2.06,0,0,0,33,47v.4H29.23V47a2,2,0,0,0,.76-.8,4.44,4.44,0,0,0,.16-1.38V41.4a4.76,4.76,0,0,0-.22-1.62,2.12,2.12,0,0,0-.7-.8V38.6l2.8-.72V39.8L33,38.52a6.41,6.41,0,0,1,2.76-.64v2.24h-.38a2,2,0,0,0-1.56-.56,2.21,2.21,0,0,0-1.76,1Z"/><path class="cls-1" d="M39.23,44.84a5.36,5.36,0,0,0,.14,1.38,2.06,2.06,0,0,0,.78.8v.4H36.43V47a2,2,0,0,0,.76-.8,4.44,4.44,0,0,0,.16-1.38V41.4a4.76,4.76,0,0,0-.22-1.62,2.12,2.12,0,0,0-.7-.8V38.6l2.8-.72ZM37,34.8a1.2,1.2,0,0,1,.36-.86,1.15,1.15,0,0,1,.86-.34,1.18,1.18,0,0,1,.86.34,1.26,1.26,0,0,1,.34.86,1.23,1.23,0,0,1-.34.86,1.2,1.2,0,0,1-.86.36A1.23,1.23,0,0,1,37,34.8Z"/><path class="cls-1" d="M46.07,47.68A4.4,4.4,0,0,1,41.37,43a5.41,5.41,0,0,1,1.26-3.68,4.11,4.11,0,0,1,3.26-1.46,10.15,10.15,0,0,1,3.18.64v1.94h-.4l-1.52-1.34a2.25,2.25,0,0,0-1.18-.4,2.35,2.35,0,0,0-2.1,1.52,5.25,5.25,0,0,0-.52,2.42,3.93,3.93,0,0,0,.9,2.74,3.63,3.63,0,0,0,2.76,1,2.19,2.19,0,0,0,1.08-.4c.54-.36,1-.7,1.4-1l.16.12-1.6,2.16A4.66,4.66,0,0,1,46.07,47.68Z"/><path class="cls-1" d="M55.37,47.56a5.62,5.62,0,0,1-1.18.12,3.1,3.1,0,0,1-2.76-1.56,5.61,5.61,0,0,1-.72-2.94,6,6,0,0,1,1.14-3.74A3.75,3.75,0,0,1,55,37.88a3.23,3.23,0,0,1,2.08.8l.5-.52h2.3v.4a2.92,2.92,0,0,0-.92,2.56v3.72A5.73,5.73,0,0,0,59,46,1.88,1.88,0,0,0,59.83,47v.4H57.47a1.56,1.56,0,0,1-.44-.84Zm-2-2.22a3.18,3.18,0,0,0,2.64,1.06l1-.1v-7a2.57,2.57,0,0,0-3.56.62,4.41,4.41,0,0,0-.82,2.78A4,4,0,0,0,53.41,45.34Z"/></g></g></g></svg>