<?xml version="1.0" encoding="utf-8"?>
<!-- Generator: Adobe Illustrator 25.2.0, SVG Export Plug-In . SVG Version: 6.00 Build 0)  -->
<svg version="1.1" id="圖層_1" xmlns="http://www.w3.org/2000/svg" xmlns:xlink="http://www.w3.org/1999/xlink" x="0px" y="0px"
	 viewBox="0 0 67.2 48.9" style="enable-background:new 0 0 67.2 48.9;" xml:space="preserve">
<style type="text/css">
	.st0{fill:#7C4821;}
</style>
<g id="圖層_2_1_">
	<g id="event">
		<g id="as_t_c">
			<g id="as_t_c-2">
				<path class="st0" d="M8.8,2.6l1.3-0.1c0.6-0.1,1.2,0.2,1.4,0.7v5L12.8,9c0,0.4-0.9,0.7-2.8,0.9l-5.2,0.3C5,11.7,5,12.8,5,13.5
					v2.7c1.6-0.4,3.2-0.7,4.8-0.9H10c1.4-0.1,2.1,0.4,2.1,1.5c0,0.6,0.1,1.9,0.2,3.9c-0.2,2.2-0.2,4.2-0.2,6.1
					c0,0.4-0.2,0.6-0.6,0.6v0.4c1.6-0.1,3.2-0.1,4.8,0h0.3v-0.4l-1.1-0.2v-2.7c0-1.6,0.1-4.2,0.2-7.7l-1.5-0.4v-0.1
					c0-0.5,1.2-0.9,3.6-1l2.9-0.2v-0.2c0-0.7,0.1-2.4,0.2-5.1h-0.5c-1.3,0.1-2.6,0.3-3.9,0.6c-1.5-0.1-2.3-0.3-2.3-0.7V3.7
					c0-1,0.6-1.5,1.9-1.5h0.4c0.8-0.2,1.7,0.3,1.9,1.1c0.1,0.2,0.1,0.4,0,0.7v4.6l2.3-0.1c0.7-0.5,1.6-0.8,2.6-0.8h0.2
					c1.3-0.1,1.9,0.4,1.9,1.3c-0.2,2.6-0.2,4.7-0.2,6.5c0,0.5-1.7,0.9-5,1V21c0,0.6-0.1,1.2-0.4,1.7c0.1,1,0.2,2,0.2,3V27l-1.3,0.3
					v0.4c4.4-0.2,7.2,0,8.4,0.6v0.1c-0.1,0.4-0.6,0.6-1.6,0.7l-2,0.1c-2.7-0.2-7.1-0.2-13.4,0c-2.4,0.3-5,0.5-7.5,0.6l-1-0.2v-0.7
					c3.8-0.6,6.1-1,6.9-1v-0.4H7.9v-2.3c0-0.5,0-1,0.2-1.5C8,23.1,8,22.4,8,21.8v-4.6c-2.5,0.3-4.3,0.4-5.5,0.5
					c-1.1-0.1-1.7-0.3-1.7-0.7v-5.6c0-0.6-0.4-1.2-0.9-1.5C0,9.6,0.6,9.3,1.9,9c1.4,0.1,2.9,0.1,4.3,0h1.2V3.5
					C7.6,2.9,8.2,2.5,8.8,2.6z M18.3,0.1l3-0.1c1,0,1.6,0.1,1.7,0.5v0.2c0,0.4-0.8,0.6-2.3,0.7L3.6,2.3c-0.7,0-1.1-0.1-1.2-0.5V1.6
					c0.4-0.1,0.7-0.3,1-0.5C9.8,0.7,14.8,0.3,18.3,0.1z"/>
				<path class="st0" d="M38.1,9.9l0.4,0.2l1.3-0.3c0.8,0,1.7,1.2,2.5,3.5v1.1c0,0.2-0.2,0.4-0.6,0.6c-0.3,0-0.6,0-0.8-0.2
					c-0.2,0.2-0.5,0.3-0.8,0.3c-1.3-2.5-2.2-3.8-2.8-3.8v-0.5C37.3,10.6,37.5,10.4,38.1,9.9z M44.7,14.8c1.2-0.1,1.8,0.2,1.8,0.9
					c0,0.4-1.2,3-3.5,8c-0.5,1.5-1,3.1-1.3,4.6l-0.6,0.4l-2.6,0.1c-0.2,0-0.4-0.2-0.6-0.5c1.7-4,3.6-8.1,5.7-12.4
					c-0.2,0-0.3,0-0.3,0S44,15.6,44.7,14.8z M41.2,2.1c0.9,0,1.8,0.5,2.1,1.4c0.2,0.1,0.6,1.2,1.1,3.1l-1,0.2
					c-1.2,0.2-2.4-0.6-2.7-1.8c-0.4-1-0.9-1.5-1.3-1.5V2.8C39.2,2.5,39.9,2.3,41.2,2.1z M62.9,0.6L64,0.5c1.8,0.3,2.8,0.6,2.8,0.9
					v0.2c0,0.4-0.1,0.6-0.2,0.6l0.2,1.2V4c0,0.4-0.1,0.6-0.2,0.6l0.7,6.5l-0.4,1.6c0.1,0.2,0.2,0.4,0.2,0.6c-0.2,0-0.4,0.2-0.4,0.4
					c0,0,0,0,0,0.1v1.3c0,0.6,0.1,1.2,0.2,1.7c-0.1,0.9-0.2,1.8-0.4,2.6l0.2,1.3l-0.2,1.3c0.1,0.5,0.2,1,0.2,1.5
					c0,0.1-0.1,0.1-0.2,0.2l0.2,1.2v1.5c0,1.7-0.3,2.6-0.8,2.6L64,29.2c0-0.3-0.1-0.4-0.4-0.4V17.9c0-1.9-0.3-2.9-1-2.9
					c-1.6,0.1-2.3-0.4-2.3-1.4c-0.6-0.4-1.2-1-1.7-1.6c-0.1,1.2-0.3,1.9-0.5,1.9l0.2,0.5v0.9c0,0.1-0.1,0.1-0.2,0.1
					c0.1,0.2,0.2,0.5,0.2,0.7c-0.1,1-0.2,1.6-0.2,1.8c0.3,0.3,0.5,1.6,0.6,3.9l-0.2,0.9c0.1,0.5,0.2,1.1,0.2,1.7
					c-0.3,0-0.5,0.2-0.4,0.5c0,0,0,0,0,0l0.2,1l-0.4,0.2l-1.9,0.1c-0.8-0.3-1.2-0.6-1.2-0.7c0-0.9,0.2-1.8,0.4-2.6
					c-0.1-0.6-0.2-1.2-0.2-1.9v-2.4c0-0.3-0.1-0.6-0.2-0.9c0.1-0.3,0.2-0.6,0.2-0.9c-0.2-1-0.2-1.6-0.2-1.9l-0.5,0.3
					c-0.7,0-1.4-0.8-1.9-2.3h-0.3c0,1.7-0.2,3.3-0.7,4.9c0,0.2,0.1,0.3,0.2,0.3l-0.6,2.6l0.2,0.9c-1.3,2.6-2,4-2.1,4
					c-0.9,0.4-1.9,0.8-2.8,1c-0.5-0.2-0.8-0.4-0.8-0.5v-0.2c1.7-2.2,2.5-4.9,2.4-7.7c0.2,0,0.4-1,0.7-3c-1.1,0-1.9-0.6-2.4-2.1
					c-0.1,0-0.7-0.5-1.7-1.6v-0.1l1-0.2h0.2c0.9-0.1,1.8,0,2.6,0.5h0.8c0-0.7,0.1-1.3,0.2-2L48.8,3h0.4c0.1,0,0.1,0.1,0.1,0.3
					l0.5-0.3c1.2,0.1,1.9,0.5,1.9,1.1c0,0.1,0.4,2,1.3,5.6c-0.1,0.3-0.2,0.6-0.2,0.9v0.5c0.8,0.1,1.6,0.3,2.3,0.6l0.2-1.6V3.4h-0.4
					V3.1c0-0.2,0.2-0.4,0.6-0.6l1.3-0.1c0.7-0.1,1.4,0.3,1.7,1c0,0.1-0.1,0.1-0.2,0.1c0.2,0.9,0.4,1.8,0.5,2.7l-0.4,4.2l0.7,0.5
					l0.4-0.2c1.3,0.2,2.5,0.9,3.2,2c0.2,0.3,0.3,0.6,0.4,0.9h0.4c0-0.7,0.1-1.1,0.3-1.1l-0.3-0.5V8.1c0-1.5-0.1-3.7-0.2-6.6h-0.7V1
					C62.6,0.8,62.7,0.6,62.9,0.6z"/>
			</g>
			<path class="st0" d="M23.2,35.2L26.9,46c0.2,0.5,0.4,1,0.7,1.4c0.2,0.4,0.5,0.7,0.9,0.8v0.4h-3.9v-0.4c0.6-0.1,0.8-0.7,0.4-1.7
				l-1-3h-4l-1,2.8c-0.4,1.2-0.3,1.9,0.3,1.9v0.4h-3.1v-0.4c0.3-0.2,0.6-0.4,0.8-0.8c0.3-0.6,0.6-1.2,0.9-1.8L22,35.3L23.2,35.2z
				 M22.1,37.5l-1.8,5h3.4L22.1,37.5z"/>
			<path class="st0" d="M33.3,45.4c-0.6-0.4-1.2-0.8-1.9-1.2c-0.6-0.3-1.1-0.7-1.6-1.2c-0.3-0.4-0.4-0.9-0.4-1.5
				c0-0.7,0.3-1.3,0.8-1.8c0.6-0.5,1.3-0.8,2.1-0.8c0.5,0,0.9,0,1.4,0.1c0.6,0.1,1.2,0.3,1.7,0.5v1.9h-0.4l-1.5-1.3
				c-0.3-0.2-0.7-0.4-1.1-0.4c-0.3,0-0.6,0.1-0.9,0.2c-0.2,0.2-0.4,0.5-0.4,0.8c0,0.4,0.2,0.8,0.6,1c0.5,0.3,1,0.6,1.5,0.9
				c0.6,0.3,1,0.5,1.4,0.8c0.9,0.5,1.4,1.4,1.4,2.5c0,0.7-0.3,1.5-0.8,2c-0.8,0.6-1.7,0.9-2.7,0.8c-0.7,0-1.3-0.1-1.9-0.3
				c-0.3-0.1-0.7-0.2-1.1-0.4v-1.9h0.4l1.5,1.3c0.3,0.2,0.6,0.4,1,0.4c0.5,0,1-0.1,1.4-0.4c0.3-0.2,0.4-0.6,0.4-0.9
				C34,46.1,33.7,45.7,33.3,45.4z"/>
			<path class="st0" d="M39.8,46c0,0.5,0,0.9,0.1,1.4c0.2,0.3,0.5,0.6,0.8,0.8v0.4H37v-0.4c0.3-0.2,0.6-0.5,0.8-0.8
				c0.1-0.4,0.2-0.9,0.1-1.4v-3.4c0-0.5-0.1-1.1-0.2-1.6c-0.2-0.3-0.4-0.6-0.7-0.8v-0.4l2.8-0.7V46z M37.6,36c0-0.3,0.1-0.6,0.4-0.9
				c0.2-0.2,0.5-0.4,0.9-0.3c0.3,0,0.6,0.1,0.9,0.3c0.2,0.2,0.3,0.5,0.3,0.9c0,0.3-0.1,0.6-0.3,0.9c-0.2,0.2-0.5,0.4-0.9,0.4
				C38.1,37.2,37.6,36.7,37.6,36z"/>
			<path class="st0" d="M46.6,48.7c-0.4,0.1-0.8,0.1-1.2,0.1c-1.1,0-2.2-0.6-2.8-1.6c-0.5-0.9-0.8-1.9-0.7-2.9
				c0-1.3,0.4-2.7,1.1-3.7c0.7-1,1.9-1.6,3.1-1.6c0.8,0,1.5,0.3,2.1,0.8l0.5-0.5H51v0.4c-0.7,0.6-1.1,1.6-0.9,2.6V46
				c0,0.4,0,0.8,0.1,1.1c0.1,0.4,0.4,0.8,0.8,1.1v0.4h-2.3c-0.2-0.2-0.4-0.5-0.4-0.8L46.6,48.7z M44.6,46.5c0.7,0.7,1.6,1.1,2.6,1.1
				l1-0.1v-7c-1.2-0.8-2.7-0.5-3.6,0.6c-0.6,0.8-0.9,1.8-0.8,2.8C43.8,44.8,44.1,45.7,44.6,46.5L44.6,46.5z"/>
		</g>
	</g>
</g>
</svg>
