<svg xmlns="http://www.w3.org/2000/svg" viewBox="0 0 96.44 40"><defs><style>.cls-1{fill:#7c4821;}</style></defs><g id="圖層_2" data-name="圖層 2"><g id="event"><path id="as_t" class="cls-1" d="M39.4,36.51,39,36l-.69-.7-1.5-.65-.74-1-1.15-2.7-.45-.95v-.85L34,27l-.4-.91.1-1.19-.89-.41-.05-1,.25-.41,0-1.69-.34-.8-3.09-3.75-.2-2-.65-1.15L29,11.42l-.1-2.7-.5.25L27.1,7.72l.25-.79L27,6.28l-.24-1L26,2.94h-.39l0-1.35.35.1L25.8.6,24.69,0H23.16L19.05,2.49,17.21,7.42l-.4.4L16,9.61l-.4.8-.1.9-1.19,2.94-.05,1-.74.45-.65,2-1,2.68-.45.3,0,1.45-.8.69V24l-.75.9L8.81,27.35l-1.4,4.43-.85,1.15-1,.94-.74.5-2,.5L1.05,36,0,37.26l.4,1,.8.84,1.45.34L3.8,40l.45-1,.65.35,1.54-.35h1.2l.9.6.85-.6,1,.35,4.15-.35,2.15.25.15-.64.37-.1.32-.7-1-.7-2-.65h-1L12.7,36l-.49.09-.16-1.2-.79-.65-.15-1,.55,0,.2-.66-.55-.3.9-2.7,0-.91.64.15V27.43l1.3-2.68-.4-.05.4-.51v-.71l.55-.4.1-.76.56-.35h7.75l1.05.35,1,.35.2,1.66,1,1.8.1,1.05.6,1.16.86,3,.45.7-.19.45L29.29,35l.3.7-.7.8-.89.35-.75-.35H25.6l-.05.35L25,36.51l-.5.31-.3,1,.55.93,1.29.31.65.4,1.4-.4H33l1.45.3,3.39-.3,1.59.45,1.1-.45.84-1.15L40.1,36.51ZM23.16,18.78l-.4.4-1.45.65L20.6,20l-1.25-.45-1.21-.25-1.3-.4-.75-.65.75-.4-.15-.94.55-1.3.1-1.19.54-1.25.65-1.44.9-1,.84.4.45,1.09.65.7.1,1.1.6,1.29.59.7.5,1.3ZM59.82,30.49l.5,1.09-.39,2.19v1.6l-.6,1.29-1,1.3-1.4.6-1,.19-.6.7-1.39.1-2.29.3-.9-.3-2.2-.1-1-.4-.9-.2-.79-1.19-.4-1.3-.4-.89-.1-1.3.3-1.09.6-.4.6-.5.29.2h.8l.8,1,.5.6.4.8.39.9.8.1.89.79,1.2.2.8.6,1.09-.1.5-1.4.5-.6.1-1.9.2-.5-.6-.6v-.7l-.7-.2-1.59-.91-1.39-.3-2.1-.9-1.19-.8-.9-.7-.7-.5L46,26.05l-.2-1-.2-.9-.4-.5-.1-1.2.2-1.3.8-1.4v-.7l.79-.61v-.6l1-1,.6-.1,1.19-.8.7-.5h3l1.09.4,1.2.1.9.1.29.4.9.7.8.59.4,1.3.5,1.29-.2,1.4-.9.9-.9.39-1.09-.29-1-.8-.8-.8-.29-.8-.9-.79-1.1-.5-.59-.3-.6.3h-.6l-.4.9-.3,1,.3.7.3,1.3.8,1.09,1,.5.9.3,1.09.5,2.2.79.8.4.89,1,1.1.89ZM67.7,7.07l-.9-1V4.68l.6-1.19L68.89,3l1.49.45.75.45v.59L72,5l.15,1.35-.9.89-.9.75-1.49-.15Zm4.78,29.74.89.9-.45,1.19-1.19.45-1.35-.15L69,39.35l-1.64-.6-1.05.6-1,.6H63.81l-1.05-.9-.44-.89.14-1.35,1.35-.15L65,35.47l.3-1.8.15-1.79L65,30.54l.6-.45V29l.6-.75-.6-.74L65.16,25l.14-1.8-1.19-.45L62.61,22l-.15-1.35.75-1,.9-.3,1-.3.74-1.35,1.2.15,1.19-.15,1.5-.44.9.44L71,18.73l-.15,1.05-.59,1.49.45.6.14,1.19-.3,1.5-.15,1.34v4.19l-.14,1.64.59,1.05-.3,1,.3.6.45,1.35Zm24-2.94a1.33,1.33,0,0,0-.73-.2,2.2,2.2,0,0,1-.72-.1h-.25c-.07.24-.18.37-.35.38a4.7,4.7,0,0,1-.55,0h-.79l0,.3a.54.54,0,0,0-.46-.3h-.75l-.24.05a3.63,3.63,0,0,0-.15-.94,4.17,4.17,0,0,1-.15-.9.51.51,0,0,1,.08-.3.87.87,0,0,1,.22-.2V30a2.7,2.7,0,0,1,0-1.1l.25-.35s0-.21-.12-.54a3.91,3.91,0,0,1-.13-.85c0-.1.12-.7.35-1.79a4.68,4.68,0,0,0,.1-1.05,5.35,5.35,0,0,0-.18-1.1l-.27-1.14V19.33a7.57,7.57,0,0,0-.85-1.69,3.44,3.44,0,0,0-1.35-1.2,6.4,6.4,0,0,1-.85-.2c-.2-.07-.72-.3-1.56-.7a3.32,3.32,0,0,0-1.35-.4,2.49,2.49,0,0,0-.53.07l-.83.18a2.28,2.28,0,0,1-.75,0,1.67,1.67,0,0,0-.43.33,1.62,1.62,0,0,1-.52.37l-.9.1a1.07,1.07,0,0,0-.68.27l-.5.53a4.45,4.45,0,0,1-.48.45l-1.25.94a5.34,5.34,0,0,0-1,1.17c-.28.45-.58.91-.88,1.37a3,3,0,0,0-.45,1.65,2,2,0,0,0,.5.94,1,1,0,0,1,.2.6l1.55.15a2.23,2.23,0,0,0,1.24-.37,3.51,3.51,0,0,0,.95-1,1.34,1.34,0,0,0,.14-.7V21a1.12,1.12,0,0,1,.2-.7l.4-.29a1,1,0,0,1,.55-.28c.3-.08.45-.19.45-.32a4.41,4.41,0,0,0,.69-.08,4,4,0,0,1,.68-.07,4.4,4.4,0,0,1,1.63.4c.4.16.83.31,1.27.44a2,2,0,0,1,.66,1.05L87.32,23l.2,3.44c-.13.17-.27.32-.4.48a2.19,2.19,0,0,1-.72.44l-.88.38a4.24,4.24,0,0,1-.89.25c-.9.06-1.79.11-2.69.15a5.69,5.69,0,0,0-1.55.34,3.79,3.79,0,0,1-.42.38,1.22,1.22,0,0,1-.42.22H78.4a5.68,5.68,0,0,0-1.94,2.15,5.88,5.88,0,0,0-.8,2.81,1.93,1.93,0,0,0,.3.92c.2.35.33.59.38.7a9.58,9.58,0,0,1,.27,1.11,2,2,0,0,0,.77,1.3,3.56,3.56,0,0,0,.9.47,3.81,3.81,0,0,0,.65.15,4.73,4.73,0,0,1,.82.25l1.14.45a2.81,2.81,0,0,0,1.55-.45L83.83,38l1.69-.9a2.33,2.33,0,0,0,1.2-1.29A12.12,12.12,0,0,1,87.57,37a3,3,0,0,0,1,.95l.54.6a1.24,1.24,0,0,1,.83.2c.14.13.35.11.62-.05h.75a2.26,2.26,0,0,1,.74.19,2.2,2.2,0,0,0,.85.2,1.49,1.49,0,0,0,.85-.24l.59-.45a4.25,4.25,0,0,0,1-1.13c.13-.27.36-.68.7-1.24a1.06,1.06,0,0,1,.4-.39,4.29,4.29,0,0,0,0-.89A1.86,1.86,0,0,1,96.44,33.87Zm-9.12-1.44a2.2,2.2,0,0,1-.7,1.44,6,6,0,0,1-1.34.8c-.24.1-.52.23-.85.4a2.5,2.5,0,0,1-1.1.25,2.09,2.09,0,0,1-.44-.25l-.9-.2a2.37,2.37,0,0,1-1-1.2A4.13,4.13,0,0,1,80.6,32c0-.5.37-1,1.11-1.42a5.18,5.18,0,0,1,1.68-.75,6.88,6.88,0,0,0,1.31-.34,3.76,3.76,0,0,1,1.18-.28h1.44Z"/></g></g></svg>