<svg xmlns="http://www.w3.org/2000/svg" viewBox="0 0 826.35 241.06"><defs><style>.cls-1{fill:#7c4821;}</style></defs><g id="圖層_2" data-name="圖層 2"><g id="圖層_2-2" data-name="圖層 2"><g id="as_wave"><g id="map_deco_7"><path class="cls-1" d="M184.59,151.76c-2.44,2-4.87,3.07-7.92,1.09-1.06.67-2,1.31-3,1.92-2,1.18-2.75,1.18-4.49-.2a8.66,8.66,0,0,0-4.06-1.89c-.61.32-1.37.74-2.15,1.13a18.52,18.52,0,0,1-2.38,1.13c-1.84.61-2.92.05-3.43-1.69-.07-.27-.13-.54-.2-.83-1.33-.18-2.13.67-3.15,1-2.09.72-3.18.34-3.91-1.5a8.59,8.59,0,0,1-.26-1.26c-3.15.34-5.06,2.86-8.21,3.31.05-.46,0-.72.09-.78,4.2-2.35,7.23-3.66,9.69-4.21,0,.76,0,1.51,0,2.26,0,1.17,1,1.69,2.37,1.18.72-.28,1.38-.69,2.08-1s1.22-.55,1.84-.78a3.55,3.55,0,0,1,.89,0c0,.73-.15,1.46-.14,2.18a1.45,1.45,0,0,0,1.95,1.11,8.13,8.13,0,0,0,1.51-.66c1.15-.63,2.27-1.29,3.34-1.9a9.38,9.38,0,0,1,4.64,2c1.52,1.22,2.24,1.21,3.87.19.55-.34,1-.78,1.56-1.13s1.15-.61,1.73-.92a7.15,7.15,0,0,1,1,.33c2.43,1.18,3.19,1.11,5.2-.3.84-.59,1.34-1.58,2.57-1.66,1.12.56.61,1.44.85,2.14a1.71,1.71,0,0,0,2.31,1.16,11.74,11.74,0,0,0,2.68-1.2c.86-.47,1.61-1.07,2.43-1.6a3.92,3.92,0,0,1,.8-.19c1.2.69,2.05,2.12,3.84,2.06,1.44-.05,2.87-.36,4.48-.58-3.45,2.49-4.83,2.48-9.05,0-.48.3-1,.62-1.54,1-.36.24-.66.54-1,.76a6.25,6.25,0,0,1-4.2,1C185.64,154.17,185.33,153,184.59,151.76Z"/><path class="cls-1" d="M203.36,173.9a9.24,9.24,0,0,1,1.22.61c2.1,1.43,4.47,1.38,6.86.77,1.63-.41,3.19-1,4.76-1.49.53.61-.09.71-.42.86a31,31,0,0,1-4.3,1.79c-2.85.79-5.69.86-8.08-1a22,22,0,0,0-2.38.74,3.62,3.62,0,0,1-4.08-.52c-.39-.35-.74-.73-1.23-1.21-1.06.63-2,1.19-2.91,1.7a26.21,26.21,0,0,1-3,1.48,4.06,4.06,0,0,1-4.18-.33,14.54,14.54,0,0,0-1.56-.9l-1.86,1.15c-.55.34-1.09.71-1.68,1-2.49,1.21-4.49.81-6.22-1.21-.26-.3-.48-.63-.75-1-1.44.18-2.14,1.17-3.18,1.7a6.77,6.77,0,0,1-3.33,1.18c0-.4-.09-.67,0-.72,1.7-1,3.4-1.92,5.15-2.81a18.94,18.94,0,0,1,2.24-.81c.37.57.62,1,.9,1.38,1.39,2,3.21,2.28,5.41.89.64-.41,1.17-.92,1.8-1.34s1.1-.62,1.76-1c.63.43,1.17.76,1.66,1.14a3.78,3.78,0,0,0,4.15.34c1.29-.61,2.46-1.4,3.69-2.1.65-.37,1.31-.71,1.94-1a6.88,6.88,0,0,1,1,.54c2.36,1.88,2.36,1.88,5.31.66C202.5,174.18,202.93,174.05,203.36,173.9Z"/><path class="cls-1" d="M191.24,164.7c-1.45,2-3.78,2.69-6.35,2.81-.9,0-1.85-.59-3.1-1a7,7,0,0,1-7.34-1.82c-1.23.51-2.32,1-3.47,1.42-2.15.72-3.47.17-4.23-1.67-.14-.36-.26-.72-.41-1.07,0-.06-.17-.1-.44-.23l-1.39.6c-.51.22-1,.48-1.53.66-3,1-4.77.7-7-1.37-1.56.32-2.5,1.91-4.93,1.82a30.83,30.83,0,0,1,5.84-3.66c.28.39.52.67.7,1a2.86,2.86,0,0,0,3.73,1.64,28.81,28.81,0,0,0,3.48-1.24c.91-.36,1.8-.76,2.94-1.25.11,1,.16,1.74.29,2.47a1.73,1.73,0,0,0,2.15,1.43,7.06,7.06,0,0,0,2.23-.63,22.72,22.72,0,0,0,2.32-1.42,7.79,7.79,0,0,1,1.06.69c2.27,2.11,3.44,2.3,6.54,1,.21,0,.52,0,.62.15a3.56,3.56,0,0,0,4.22,1c1.38-.45,2.78-.83,4.17-1.23Z"/><path class="cls-1" d="M232.8,158.41a6.82,6.82,0,0,1-1.14,1,21.44,21.44,0,0,1-7.42,2.21c-2.51.38-4.54-.29-5.82-2.21-.33-.49-.63-1-1-1.63-.84.24-1.58.42-2.29.66a4.71,4.71,0,0,1-5-.83,3.13,3.13,0,0,0-.5-.4c-.08,0-.22,0-.49,0-.71.47-1.48,1-2.3,1.53-2.45,1.51-3.5,1.45-6.15-.34-2.41.1-4.42,1.64-7.18,2.08,1.58-1.72,3.87-2.64,7.93-3.37a1.52,1.52,0,0,1,.32.12c.72.41.92,1.35,2.07,1.36a4.49,4.49,0,0,0,2.82-.93c1-.79,1.84-1.7,2.92-2.72.69.67,1.11,1.06,1.5,1.47a3.13,3.13,0,0,0,3.88.86l2.79-1.09c.08,0,.21,0,.54.06l.94,1.68c1.31,2.28,2.91,3,5.8,2.44,2.12-.42,4.17-1.07,6.25-1.6.53-.14,1.09-.21,1.64-.31Z"/><path class="cls-1" d="M145.27,174c2.17-.26,4.08.1,5.72-.81s3.12-1.57,4.65-2.33c2.27,2.31,2.27,2.31,5.74,2.6.33.65-.29.85-.79.92-2.23.31-4.07-.24-5.31-2.1l-4.64,2a6.51,6.51,0,0,1-4.3.6C146,174.86,145.8,174.5,145.27,174Z"/><path class="cls-1" d="M191.29,164.76c.12-.15.21-.36.38-.42s.32.13.49.21c-.09.06-.17.15-.27.16a4.73,4.73,0,0,1-.65,0Z"/></g><g id="map_deco_7-2" data-name="map_deco_7"><path class="cls-1" d="M715.26,76.45c-2.44,2-4.87,3.07-7.92,1.08-1.06.67-2,1.32-3.05,1.92-2,1.18-2.75,1.18-4.49-.2a8.81,8.81,0,0,0-4.06-1.89c-.61.33-1.37.74-2.14,1.13a18,18,0,0,1-2.39,1.14c-1.84.61-2.92,0-3.43-1.7-.07-.27-.13-.54-.2-.82-1.33-.18-2.13.67-3.15,1-2.09.72-3.18.34-3.91-1.49a9.19,9.19,0,0,1-.26-1.26c-3.15.34-5.06,2.85-8.21,3.3.05-.46,0-.72.09-.77a38.47,38.47,0,0,1,9.69-4.22c0,.77,0,1.51,0,2.26,0,1.18,1,1.69,2.37,1.18.72-.28,1.38-.68,2.08-1s1.22-.54,1.84-.78a3.24,3.24,0,0,1,.89,0c0,.72-.15,1.45-.14,2.18a1.45,1.45,0,0,0,2,1.1,7.28,7.28,0,0,0,1.51-.66c1.15-.62,2.27-1.28,3.34-1.9a9.56,9.56,0,0,1,4.64,2c1.52,1.22,2.24,1.21,3.87.2.55-.35,1-.79,1.56-1.13s1.15-.62,1.73-.93a7.15,7.15,0,0,1,1,.33c2.43,1.18,3.19,1.11,5.2-.3.84-.58,1.34-1.58,2.57-1.66,1.12.56.61,1.45.85,2.14a1.72,1.72,0,0,0,2.31,1.17,12.19,12.19,0,0,0,2.68-1.2c.86-.48,1.61-1.08,2.43-1.6a2.92,2.92,0,0,1,.8-.19c1.2.68,2.05,2.11,3.84,2,1.44,0,2.87-.36,4.48-.57-3.45,2.49-4.82,2.48-9,0-.48.29-1,.61-1.54,1-.36.23-.66.53-1,.76a6.24,6.24,0,0,1-4.2,1C716.31,78.86,716,77.71,715.26,76.45Z"/><path class="cls-1" d="M734,98.58a9.9,9.9,0,0,1,1.22.61c2.1,1.44,4.47,1.38,6.86.78,1.63-.41,3.19-1,4.76-1.5.53.61-.09.72-.42.86a31.75,31.75,0,0,1-4.3,1.8c-2.84.79-5.69.86-8.08-1a24.45,24.45,0,0,0-2.38.74,3.58,3.58,0,0,1-4.08-.52c-.39-.34-.74-.73-1.23-1.21-1.06.63-2,1.19-2.91,1.71a30.09,30.09,0,0,1-3,1.48,4,4,0,0,1-4.18-.34,14.64,14.64,0,0,0-1.56-.89l-1.86,1.14a17.71,17.71,0,0,1-1.68,1c-2.49,1.21-4.49.81-6.22-1.21-.26-.3-.48-.63-.75-1-1.44.18-2.14,1.17-3.18,1.71a6.86,6.86,0,0,1-3.33,1.17c0-.39-.09-.66,0-.71,1.7-1,3.4-1.92,5.15-2.82a19,19,0,0,1,2.24-.8c.37.57.62,1,.9,1.37,1.39,2,3.21,2.28,5.41.89.64-.4,1.17-.92,1.8-1.34s1.1-.62,1.77-1c.62.43,1.16.77,1.65,1.15a3.8,3.8,0,0,0,4.15.34c1.29-.62,2.46-1.41,3.69-2.11.65-.36,1.31-.7,1.94-1a6.66,6.66,0,0,1,1,.54c2.35,1.87,2.35,1.88,5.3.66C733.17,98.87,733.6,98.74,734,98.58Z"/><path class="cls-1" d="M721.91,89.38c-1.45,2-3.78,2.69-6.35,2.81-.9,0-1.85-.58-3.1-1a6.92,6.92,0,0,1-7.34-1.82c-1.23.52-2.32,1-3.47,1.43-2.15.72-3.47.16-4.23-1.68-.14-.35-.25-.71-.41-1.06,0-.07-.17-.1-.44-.24l-1.39.6c-.51.22-1,.48-1.53.66-3,1-4.77.71-7-1.37-1.56.32-2.5,1.92-4.93,1.82a30.83,30.83,0,0,1,5.84-3.66c.28.39.52.67.7,1a2.86,2.86,0,0,0,3.73,1.63,26.66,26.66,0,0,0,3.48-1.24c.92-.35,1.8-.76,2.94-1.24.11,1,.16,1.73.29,2.47a1.73,1.73,0,0,0,2.15,1.42,7,7,0,0,0,2.23-.62,22.91,22.91,0,0,0,2.32-1.43,7.79,7.79,0,0,1,1.06.69c2.27,2.12,3.44,2.3,6.54,1,.21,0,.52,0,.62.15a3.56,3.56,0,0,0,4.22,1c1.38-.44,2.78-.82,4.17-1.23Z"/><path class="cls-1" d="M763.47,83.09a6.82,6.82,0,0,1-1.14,1,21.44,21.44,0,0,1-7.42,2.21c-2.51.38-4.54-.28-5.82-2.2-.33-.49-.63-1-1-1.64-.84.25-1.58.43-2.29.67a4.69,4.69,0,0,1-5-.84,3.73,3.73,0,0,0-.5-.39c-.08,0-.22,0-.49,0-.7.47-1.48,1-2.3,1.53-2.45,1.51-3.5,1.46-6.15-.34-2.41.11-4.42,1.64-7.18,2.08,1.58-1.72,3.87-2.64,7.93-3.36a1.51,1.51,0,0,1,.32.11c.72.42.92,1.35,2.07,1.36a4.37,4.37,0,0,0,2.82-.93c1-.78,1.84-1.7,2.92-2.72.69.67,1.11,1.06,1.5,1.47a3.13,3.13,0,0,0,3.88.86c.93-.36,1.85-.73,2.79-1.08.08,0,.21,0,.54.05.28.5.61,1.1,1,1.68,1.3,2.28,2.91,3,5.79,2.45,2.12-.43,4.17-1.08,6.25-1.61.53-.13,1.09-.21,1.64-.31Z"/><path class="cls-1" d="M675.94,98.72c2.17-.27,4.08.1,5.72-.82s3.12-1.57,4.65-2.33c2.27,2.31,2.27,2.31,5.75,2.6.32.65-.3.85-.8.92A5,5,0,0,1,686,97l-4.64,2a6.57,6.57,0,0,1-4.3.61C676.69,99.55,676.47,99.18,675.94,98.72Z"/><path class="cls-1" d="M722,89.44c.12-.15.21-.35.38-.42s.32.14.49.21c-.09.06-.17.16-.27.17s-.43,0-.65,0Z"/></g><g id="map_deco_7-3" data-name="map_deco_7"><path class="cls-1" d="M116.14,99.76c1.85,1.51,3.69,2.32,6,.82.8.51,1.54,1,2.31,1.45,1.5.9,2.08.9,3.4-.15a6.59,6.59,0,0,1,3.07-1.43c.47.25,1,.56,1.63.86a12.93,12.93,0,0,0,1.8.86c1.4.46,2.21,0,2.6-1.29.06-.2.1-.41.15-.62,1-.14,1.61.51,2.39.77,1.58.55,2.4.26,3-1.13a7.2,7.2,0,0,0,.19-1c2.39.26,3.84,2.16,6.22,2.5,0-.35,0-.54-.07-.59a29.17,29.17,0,0,0-7.34-3.19c0,.58,0,1.15,0,1.71,0,.89-.78,1.28-1.79.9-.55-.21-1-.52-1.58-.77s-.92-.41-1.4-.59a2.35,2.35,0,0,0-.67,0c0,.55.12,1.1.11,1.65a1.11,1.11,0,0,1-1.48.84,6.46,6.46,0,0,1-1.14-.5c-.87-.48-1.72-1-2.53-1.44a7.06,7.06,0,0,0-3.51,1.5c-1.15.92-1.7.92-2.94.14-.41-.26-.76-.59-1.18-.85s-.87-.47-1.31-.7a4.69,4.69,0,0,0-.75.25c-1.84.89-2.42.84-3.94-.23-.63-.44-1-1.2-1.94-1.25-.85.42-.47,1.09-.65,1.62a1.31,1.31,0,0,1-1.75.88,9.76,9.76,0,0,1-2-.91c-.64-.36-1.21-.82-1.84-1.21a2.55,2.55,0,0,0-.6-.15c-.91.52-1.56,1.61-2.91,1.56-1.09,0-2.17-.27-3.39-.44,2.61,1.89,3.65,1.88,6.85,0,.36.23.77.47,1.17.73s.5.4.78.58a4.74,4.74,0,0,0,3.18.74C115.35,101.59,115.58,100.71,116.14,99.76Z"/><path class="cls-1" d="M101.92,116.52a7.17,7.17,0,0,0-.92.46,6.1,6.1,0,0,1-5.19.59c-1.24-.31-2.42-.75-3.61-1.13-.4.46.07.54.32.65a25.78,25.78,0,0,0,3.26,1.36c2.15.6,4.3.65,6.12-.78a18.56,18.56,0,0,1,1.8.56,2.71,2.71,0,0,0,3.08-.39c.3-.26.57-.55.94-.92.8.48,1.49.9,2.2,1.29a20.34,20.34,0,0,0,2.24,1.12,3.05,3.05,0,0,0,3.16-.25,11.67,11.67,0,0,1,1.19-.68l1.4.87a14.69,14.69,0,0,0,1.27.76,3.55,3.55,0,0,0,4.72-.92c.19-.23.36-.47.56-.74,1.09.13,1.62.89,2.41,1.29a5.2,5.2,0,0,0,2.53.89c0-.3.06-.5,0-.54-1.29-.73-2.58-1.45-3.91-2.14a14.77,14.77,0,0,0-1.69-.6c-.28.43-.47.74-.68,1-1.06,1.49-2.44,1.73-4.1.67-.48-.3-.89-.7-1.36-1s-.84-.47-1.34-.75c-.47.32-.88.58-1.25.86a2.86,2.86,0,0,1-3.14.26c-1-.46-1.87-1.06-2.8-1.59-.49-.28-1-.54-1.47-.79a5.38,5.38,0,0,0-.75.4c-1.79,1.43-1.79,1.43-4,.5C102.58,116.74,102.25,116.64,101.92,116.52Z"/><path class="cls-1" d="M111.11,109.55a5.93,5.93,0,0,0,4.8,2.13,7.57,7.57,0,0,0,2.35-.77,5.26,5.26,0,0,0,5.56-1.38c.93.39,1.75.79,2.62,1.08,1.63.55,2.63.13,3.21-1.27.11-.27.19-.54.31-.8,0-.05.13-.08.33-.18l1.06.45a11.75,11.75,0,0,0,1.15.5c2.27.79,3.62.54,5.35-1,1.18.25,1.89,1.45,3.72,1.38a23.08,23.08,0,0,0-4.42-2.77c-.21.3-.39.51-.52.74a2.17,2.17,0,0,1-2.83,1.24,21.62,21.62,0,0,1-2.63-.94c-.7-.27-1.37-.58-2.23-.94-.09.74-.12,1.31-.22,1.87a1.32,1.32,0,0,1-1.63,1.08,5.39,5.39,0,0,1-1.69-.48,14.36,14.36,0,0,1-1.75-1.08,6,6,0,0,0-.81.53c-1.72,1.6-2.6,1.74-5,.77-.16,0-.4,0-.47.11a2.7,2.7,0,0,1-3.2.75c-1-.33-2.1-.62-3.16-.93Z"/><path class="cls-1" d="M79.63,104.79a5.27,5.27,0,0,0,.87.77,16.38,16.38,0,0,0,5.61,1.67,4.15,4.15,0,0,0,4.41-1.67c.25-.37.48-.75.79-1.24.63.19,1.19.32,1.73.51a3.58,3.58,0,0,0,3.8-.64,2.79,2.79,0,0,1,.38-.3s.17,0,.37,0c.53.36,1.12.78,1.74,1.16,1.86,1.14,2.65,1.1,4.65-.26,1.83.08,3.35,1.24,5.45,1.58-1.2-1.31-2.93-2-6-2.55a1.69,1.69,0,0,0-.24.08c-.55.32-.7,1-1.57,1a3.41,3.41,0,0,1-2.13-.71c-.76-.59-1.4-1.29-2.22-2.06-.52.51-.84.8-1.14,1.11a2.36,2.36,0,0,1-2.93.66l-2.11-.83a1.77,1.77,0,0,0-.41,0L90,104.43c-1,1.72-2.2,2.29-4.39,1.85-1.6-.32-3.15-.81-4.73-1.22-.41-.1-.83-.15-1.24-.23Z"/><path class="cls-1" d="M145.92,116.62c-1.65-.2-3.09.08-4.34-.62s-2.36-1.18-3.52-1.76c-1.71,1.75-1.71,1.75-4.35,2-.25.49.23.64.6.7a3.82,3.82,0,0,0,4-1.59l3.51,1.53a5,5,0,0,0,3.26.46C145.35,117.25,145.52,117,145.92,116.62Z"/><path class="cls-1" d="M111.06,109.6c-.09-.11-.15-.27-.28-.32s-.25.1-.37.16a.49.49,0,0,0,.2.13,4.26,4.26,0,0,0,.5,0Z"/></g><g id="map_deco_7-4" data-name="map_deco_7"><path class="cls-1" d="M43.22,47.28c-2.45,1.79-4.88,2.76-7.93,1-1,.6-2,1.18-3,1.72-2,1.07-2.74,1.07-4.49-.18a9.16,9.16,0,0,0-4.05-1.69c-.62.29-1.38.66-2.15,1a19.5,19.5,0,0,1-2.39,1c-1.84.55-2.92,0-3.42-1.52-.08-.25-.14-.49-.21-.75-1.33-.16-2.13.61-3.15.93-2.09.65-3.17.31-3.9-1.35a6.34,6.34,0,0,1-.26-1.13c-3.16.31-5.07,2.57-8.22,3,.05-.41,0-.64.1-.7a40.25,40.25,0,0,1,9.69-3.78c0,.68,0,1.35,0,2,0,1.06,1,1.53,2.37,1.07.73-.25,1.38-.62,2.08-.91s1.22-.49,1.85-.7a3.47,3.47,0,0,1,.88,0c0,.65-.15,1.31-.14,2s1,1.25,2,1a8.06,8.06,0,0,0,1.51-.6c1.15-.56,2.27-1.16,3.35-1.71a10.06,10.06,0,0,1,4.63,1.78c1.52,1.1,2.24,1.09,3.87.18.55-.31,1-.71,1.57-1s1.14-.55,1.72-.83a8.94,8.94,0,0,1,1,.29c2.42,1.07,3.19,1,5.2-.26.83-.53,1.33-1.43,2.56-1.49,1.12.5.62,1.29.86,1.92a1.75,1.75,0,0,0,2.3,1.05A12.71,12.71,0,0,0,50,47.51c.85-.43,1.6-1,2.42-1.44a3.06,3.06,0,0,1,.81-.17c1.2.61,2,1.9,3.84,1.84,1.44,0,2.86-.32,4.47-.51-3.44,2.24-4.82,2.23-9,0L51,48.05c-.36.22-.67.48-1,.69a6.85,6.85,0,0,1-4.21.88C44.26,49.45,44,48.42,43.22,47.28Z"/><path class="cls-1" d="M62,67.19a9.28,9.28,0,0,1,1.22.55c2.09,1.29,4.46,1.24,6.86.7,1.62-.37,3.18-.9,4.76-1.35.52.55-.09.64-.43.78a35.15,35.15,0,0,1-4.3,1.61c-2.84.71-5.68.77-8.08-.93-.9.25-1.68.4-2.38.67a3.88,3.88,0,0,1-4.07-.47c-.4-.31-.75-.65-1.23-1.08-1.07.56-2,1.07-2.92,1.53a29.12,29.12,0,0,1-3,1.33,4.41,4.41,0,0,1-4.17-.3,14.85,14.85,0,0,0-1.57-.81l-1.86,1c-.55.3-1.08.64-1.67.9-2.49,1.08-4.49.72-6.23-1.09-.26-.28-.48-.57-.75-.88-1.43.16-2.13,1-3.18,1.53a7.27,7.27,0,0,1-3.33,1c0-.35-.08-.59,0-.64,1.7-.86,3.41-1.72,5.15-2.53a18.17,18.17,0,0,1,2.25-.72c.36.51.61.88.89,1.23,1.4,1.78,3.22,2.06,5.41.8.64-.36,1.17-.83,1.8-1.2S42.33,68.35,43,68c.62.38,1.16.69,1.65,1a4.14,4.14,0,0,0,4.15.3c1.29-.55,2.46-1.26,3.7-1.89.64-.33,1.3-.64,1.93-.94a8,8,0,0,1,1,.48c2.36,1.69,2.35,1.7,5.3.6C61.12,67.45,61.55,67.33,62,67.19Z"/><path class="cls-1" d="M49.86,58.91c-1.44,1.78-3.78,2.43-6.34,2.53a10.67,10.67,0,0,1-3.1-.92,7.44,7.44,0,0,1-7.34-1.63c-1.24.46-2.32.94-3.47,1.28-2.15.65-3.47.15-4.23-1.51-.15-.31-.26-.64-.41-.95,0-.06-.18-.09-.44-.22l-1.4.54c-.51.2-1,.44-1.53.6-3,.93-4.77.63-7-1.24-1.56.29-2.5,1.73-4.92,1.64a31.58,31.58,0,0,1,5.83-3.29,8.32,8.32,0,0,1,.7.88c.92,1.44,1.86,1.87,3.74,1.47A31.2,31.2,0,0,0,23.37,57c.92-.32,1.81-.68,2.94-1.12.11.89.16,1.56.3,2.23.19.92.92,1.39,2.14,1.28A7.61,7.61,0,0,0,31,58.79a21.91,21.91,0,0,0,2.31-1.28,7.81,7.81,0,0,1,1.06.63c2.27,1.89,3.44,2.06,6.55.91.21,0,.52,0,.61.13a3.84,3.84,0,0,0,4.22.9c1.38-.4,2.79-.75,4.18-1.11Z"/><path class="cls-1" d="M91.43,53.26a7.31,7.31,0,0,1-1.15.91,23.6,23.6,0,0,1-7.41,2c-2.51.34-4.54-.26-5.83-2-.33-.44-.63-.89-1-1.47-.84.22-1.57.38-2.29.6a5.11,5.11,0,0,1-5-.76,3.16,3.16,0,0,0-.5-.35c-.07,0-.22,0-.49,0-.7.42-1.48.92-2.3,1.37-2.45,1.36-3.5,1.31-6.14-.3-2.41.09-4.43,1.47-7.19,1.87,1.58-1.55,3.87-2.38,7.93-3,.11,0,.23.06.32.1.72.38.92,1.22,2.07,1.23a4.76,4.76,0,0,0,2.82-.84c1-.7,1.84-1.53,2.93-2.44.68.6,1.11,1,1.5,1.32a3.35,3.35,0,0,0,3.87.77l2.79-1a1.83,1.83,0,0,1,.54,0c.28.45.61,1,1,1.51,1.31,2.05,2.91,2.71,5.8,2.19,2.11-.38,4.16-1,6.24-1.44.54-.12,1.09-.19,1.64-.28Z"/><path class="cls-1" d="M3.89,67.31c2.18-.23,4.08.09,5.72-.73s3.12-1.41,4.65-2.1c2.27,2.08,2.27,2.08,5.75,2.34.33.59-.3.77-.79.83-2.24.28-4.07-.22-5.32-1.88L9.26,67.58a7.24,7.24,0,0,1-4.3.55C4.64,68.06,4.42,67.73,3.89,67.31Z"/><path class="cls-1" d="M49.92,59c.12-.14.2-.32.37-.38s.33.12.5.19c-.09,0-.18.14-.27.15s-.44,0-.66,0Z"/></g><g id="map_deco_7-5" data-name="map_deco_7"><path class="cls-1" d="M675,2c-2.24,1.45-4.47,2.23-7.26.79-1,.48-1.86,1-2.79,1.39-1.82.86-2.52.86-4.12-.14a9,9,0,0,0-3.71-1.37c-.57.23-1.26.53-2,.81a17.82,17.82,0,0,1-2.18.83c-1.69.44-2.67,0-3.14-1.23-.07-.2-.12-.4-.19-.6-1.21-.13-2,.49-2.88.74-1.92.53-2.91.25-3.58-1.08a5.05,5.05,0,0,1-.24-.92c-2.88.25-4.64,2.08-7.52,2.4.05-.33,0-.52.09-.56A39.94,39.94,0,0,1,644.37,0c0,.55,0,1.1,0,1.64,0,.85,1,1.23,2.17.86.67-.21,1.27-.5,1.91-.74s1.12-.39,1.69-.56a3.86,3.86,0,0,1,.81,0,14.2,14.2,0,0,0-.13,1.59c0,.59.94,1,1.79.8A7.49,7.49,0,0,0,654,3.13c1-.46,2.08-.93,3.06-1.38a9.94,9.94,0,0,1,4.25,1.44,2.88,2.88,0,0,0,3.54.14c.51-.25.93-.57,1.44-.82s1-.45,1.58-.68a9,9,0,0,1,.91.24c2.22.86,2.92.81,4.76-.21.76-.43,1.22-1.15,2.35-1.21,1,.41.56,1,.78,1.56a1.67,1.67,0,0,0,2.11.84,12.14,12.14,0,0,0,2.46-.87c.78-.35,1.47-.78,2.22-1.16a3.22,3.22,0,0,1,.74-.14c1.1.5,1.88,1.54,3.52,1.49,1.31,0,2.62-.26,4.09-.41-3.15,1.8-4.41,1.8-8.28,0-.44.21-.94.44-1.41.69s-.61.39-1,.56a6.92,6.92,0,0,1-3.84.71C675.94,3.75,675.66,2.92,675,2Z"/><path class="cls-1" d="M692.17,18.08a11.41,11.41,0,0,1,1.12.44,9.18,9.18,0,0,0,6.28.57c1.49-.3,2.92-.73,4.36-1.09.48.44-.08.52-.39.62a34.82,34.82,0,0,1-3.93,1.31c-2.61.57-5.21.62-7.4-.75-.83.2-1.55.32-2.19.54a3.92,3.92,0,0,1-3.72-.38c-.37-.25-.68-.53-1.13-.88-1,.46-1.81.87-2.67,1.24s-1.76.78-2.7,1.08a4.54,4.54,0,0,1-3.83-.25c-.38-.23-.86-.39-1.43-.65l-1.7.84c-.51.24-1,.52-1.54.72a5,5,0,0,1-5.7-.88c-.23-.22-.44-.45-.68-.71-1.32.13-2,.85-2.92,1.24a7.19,7.19,0,0,1-3,.85c0-.28-.07-.48,0-.52,1.56-.69,3.12-1.39,4.72-2a21.33,21.33,0,0,1,2.06-.59c.33.42.56.72.81,1,1.28,1.44,3,1.66,5,.65.58-.29,1.07-.67,1.65-1s1-.46,1.62-.72c.57.31,1.06.55,1.51.83a4.24,4.24,0,0,0,3.8.24c1.18-.44,2.26-1,3.38-1.52.59-.27,1.2-.52,1.78-.76a8.17,8.17,0,0,1,.91.39c2.16,1.36,2.15,1.37,4.85.48C691.38,18.29,691.77,18.19,692.17,18.08Z"/><path class="cls-1" d="M681.07,11.4c-1.32,1.43-3.46,1.95-5.81,2a11.14,11.14,0,0,1-2.84-.75,7.5,7.5,0,0,1-6.72-1.32c-1.13.38-2.12.76-3.18,1-2,.52-3.17.12-3.87-1.22-.14-.25-.24-.52-.38-.77,0-.05-.16-.07-.4-.17l-1.28.43c-.46.16-.91.35-1.4.49-2.74.75-4.37.51-6.46-1-1.42.23-2.29,1.39-4.51,1.32a30.65,30.65,0,0,1,5.35-2.66,8.87,8.87,0,0,1,.64.71c.84,1.17,1.7,1.51,3.42,1.19a32.36,32.36,0,0,0,3.18-.9c.84-.26,1.65-.56,2.69-.91.11.72.15,1.26.27,1.8.18.74.85,1.12,2,1a7.57,7.57,0,0,0,2-.45c.72-.27,1.34-.65,2.13-1a7.88,7.88,0,0,1,1,.51c2.08,1.53,3.15,1.67,6,.73.19,0,.48,0,.56.11a3.83,3.83,0,0,0,3.87.72c1.26-.32,2.55-.6,3.82-.89Z"/><path class="cls-1" d="M719.13,6.83a5.76,5.76,0,0,1-1,.73,23.93,23.93,0,0,1-6.79,1.61C709,9.44,707.14,9,706,7.56c-.3-.35-.58-.72-1-1.18-.77.17-1.45.31-2.1.48a5.21,5.21,0,0,1-4.59-.61,3.4,3.4,0,0,0-.45-.28c-.07,0-.21,0-.45,0-.65.34-1.36.75-2.11,1.11-2.25,1.1-3.2,1.06-5.63-.25-2.21.08-4,1.2-6.58,1.52,1.45-1.25,3.54-1.92,7.27-2.45l.29.08c.66.31.84,1,1.89,1a4.89,4.89,0,0,0,2.58-.68c.92-.57,1.69-1.24,2.68-2,.63.49,1,.77,1.38,1.07a3.38,3.38,0,0,0,3.55.63l2.55-.79a1.77,1.77,0,0,1,.5,0l.86,1.22c1.2,1.65,2.67,2.19,5.31,1.77,1.94-.3,3.82-.78,5.72-1.16.49-.1,1-.15,1.5-.23Z"/><path class="cls-1" d="M639,18.18c2-.19,3.74.07,5.24-.6s2.86-1.13,4.26-1.69c2.08,1.68,2.08,1.68,5.26,1.89.3.47-.27.62-.72.67-2,.23-3.73-.18-4.87-1.52l-4.25,1.47a7.37,7.37,0,0,1-3.94.44C639.66,18.78,639.46,18.51,639,18.18Z"/><path class="cls-1" d="M681.12,11.44c.11-.11.19-.26.34-.31s.3.1.46.16a1,1,0,0,1-.25.12c-.2,0-.4,0-.6,0Z"/></g><g id="map_deco_7-6" data-name="map_deco_7"><path class="cls-1" d="M692.3,186.16c-2.44,2-4.88,3.07-7.92,1.08-1.06.67-2,1.32-3,1.92-2,1.18-2.75,1.18-4.49-.2a8.86,8.86,0,0,0-4.06-1.89c-.62.33-1.37.74-2.15,1.13a17.33,17.33,0,0,1-2.38,1.14c-1.85.61-2.92,0-3.43-1.7-.08-.27-.14-.54-.21-.82-1.32-.18-2.12.67-3.15,1-2.09.72-3.17.34-3.9-1.49a7.9,7.9,0,0,1-.26-1.26c-3.15.34-5.07,2.85-8.22,3.3,0-.46,0-.72.1-.77a38.47,38.47,0,0,1,9.69-4.22c0,.77,0,1.51,0,2.26,0,1.18,1,1.69,2.37,1.18.73-.28,1.39-.68,2.09-1s1.21-.54,1.84-.78a3.17,3.17,0,0,1,.88,0c0,.72-.14,1.45-.14,2.18a1.45,1.45,0,0,0,2,1.1,7.52,7.52,0,0,0,1.51-.66c1.14-.62,2.26-1.28,3.34-1.9a9.53,9.53,0,0,1,4.63,2c1.52,1.22,2.25,1.21,3.88.2.55-.35,1-.79,1.56-1.13s1.14-.62,1.73-.93a7.15,7.15,0,0,1,1,.33c2.43,1.18,3.19,1.11,5.2-.3.83-.58,1.33-1.58,2.57-1.66,1.11.56.61,1.45.85,2.14a1.72,1.72,0,0,0,2.31,1.17,12.19,12.19,0,0,0,2.68-1.2c.85-.48,1.61-1.08,2.43-1.6a2.82,2.82,0,0,1,.8-.19c1.2.68,2,2.11,3.84,2,1.44,0,2.86-.36,4.48-.57-3.45,2.49-4.83,2.48-9,0-.48.29-1,.61-1.54,1-.36.23-.66.53-1,.76a6.27,6.27,0,0,1-4.21,1C693.34,188.57,693,187.42,692.3,186.16Z"/><path class="cls-1" d="M711.07,208.29a10.66,10.66,0,0,1,1.22.61c2.1,1.44,4.46,1.38,6.86.78,1.63-.41,3.19-1,4.76-1.5.52.61-.09.72-.43.86a31.62,31.62,0,0,1-4.29,1.8c-2.85.79-5.69.86-8.08-1-.91.28-1.69.44-2.39.74a3.57,3.57,0,0,1-4.07-.52c-.39-.34-.74-.73-1.23-1.21-1.07.63-2,1.19-2.91,1.71a30.09,30.09,0,0,1-3,1.48,4,4,0,0,1-4.18-.34,13.94,13.94,0,0,0-1.57-.89L690,211.92a19.06,19.06,0,0,1-1.68,1c-2.49,1.21-4.49.81-6.22-1.21-.26-.3-.49-.63-.76-1-1.43.18-2.13,1.17-3.18,1.71a6.83,6.83,0,0,1-3.33,1.17c0-.39-.08-.66,0-.71,1.71-1,3.41-1.92,5.16-2.82a19,19,0,0,1,2.24-.8c.37.57.61,1,.89,1.37,1.4,2,3.22,2.29,5.42.89.63-.4,1.17-.92,1.79-1.34s1.11-.62,1.77-1c.62.43,1.16.77,1.66,1.15a3.79,3.79,0,0,0,4.14.34c1.3-.62,2.47-1.41,3.7-2.11.64-.36,1.31-.7,1.94-1a7.48,7.48,0,0,1,1,.54c2.36,1.88,2.36,1.88,5.3.66C710.21,208.58,710.63,208.45,711.07,208.29Z"/><path class="cls-1" d="M699,199.09c-1.45,2-3.79,2.69-6.35,2.81-.9,0-1.85-.58-3.1-1a6.92,6.92,0,0,1-7.34-1.82c-1.24.52-2.32,1-3.47,1.43-2.15.72-3.47.16-4.23-1.68-.15-.35-.26-.71-.41-1.06,0-.07-.18-.1-.44-.24l-1.4.6c-.5.22-1,.48-1.52.66-3,1-4.77.71-7.06-1.37-1.56.32-2.5,1.92-4.92,1.82a30.52,30.52,0,0,1,5.84-3.66c.28.39.52.67.7,1a2.86,2.86,0,0,0,3.73,1.63,27.19,27.19,0,0,0,3.48-1.24c.91-.35,1.8-.76,2.93-1.24.12,1,.16,1.73.3,2.47a1.73,1.73,0,0,0,2.15,1.42,7.12,7.12,0,0,0,2.23-.62,24.07,24.07,0,0,0,2.32-1.43,9.27,9.27,0,0,1,1.06.69c2.27,2.12,3.43,2.3,6.54,1,.21,0,.52,0,.61.15a3.58,3.58,0,0,0,4.23,1c1.37-.44,2.78-.82,4.17-1.23Z"/><path class="cls-1" d="M740.51,192.8a6.88,6.88,0,0,1-1.15,1A21.39,21.39,0,0,1,732,196c-2.51.38-4.54-.28-5.83-2.2-.32-.49-.63-1-1-1.64-.84.25-1.58.43-2.29.67a4.71,4.71,0,0,1-5-.84,3.11,3.11,0,0,0-.49-.39c-.08-.05-.23,0-.49,0-.71.47-1.48,1-2.3,1.53-2.46,1.51-3.5,1.46-6.15-.34-2.41.11-4.42,1.64-7.19,2.08,1.58-1.72,3.87-2.64,7.94-3.36a1.63,1.63,0,0,1,.31.11c.73.42.93,1.35,2.07,1.36a4.35,4.35,0,0,0,2.82-.93c1-.78,1.85-1.7,2.93-2.72.68.67,1.11,1.06,1.5,1.47a3.13,3.13,0,0,0,3.88.86c.93-.36,1.85-.73,2.78-1.08.09,0,.22,0,.55,0,.28.5.6,1.1.94,1.68,1.31,2.28,2.91,3,5.8,2.45,2.12-.43,4.16-1.08,6.25-1.61.53-.13,1.09-.21,1.63-.31Z"/><path class="cls-1" d="M653,208.43c2.18-.27,4.09.1,5.73-.82s3.11-1.57,4.65-2.33c2.26,2.31,2.26,2.31,5.74,2.6.33.65-.3.85-.79.92a5,5,0,0,1-5.31-2.09l-4.65,2a6.55,6.55,0,0,1-4.3.61C653.72,209.26,653.5,208.89,653,208.43Z"/><path class="cls-1" d="M699,199.15c.12-.15.21-.35.37-.42s.33.14.5.22c-.09.05-.18.15-.27.16s-.44,0-.65,0Z"/></g><g id="map_deco_7-7" data-name="map_deco_7"><path class="cls-1" d="M561.58,215.81c-2,1.83-4,2.82-6.46,1-.86.61-1.66,1.2-2.48,1.76-1.61,1.09-2.24,1.09-3.66-.18a6.69,6.69,0,0,0-3.3-1.74c-.51.3-1.12.68-1.75,1a13.58,13.58,0,0,1-1.95,1c-1.5.56-2.37,0-2.79-1.56-.06-.25-.11-.5-.17-.76-1.08-.16-1.73.62-2.56,1-1.7.66-2.59.31-3.18-1.38a7,7,0,0,1-.21-1.16c-2.57.32-4.13,2.63-6.69,3,0-.42,0-.66.08-.71a29.32,29.32,0,0,1,7.89-3.88c0,.7,0,1.39,0,2.08,0,1.08.84,1.56,1.93,1.08.59-.25,1.13-.62,1.7-.92s1-.5,1.5-.72c.14-.06.35,0,.72,0,0,.67-.12,1.34-.12,2a1.2,1.2,0,0,0,1.6,1,6,6,0,0,0,1.22-.61c.94-.58,1.85-1.19,2.73-1.75a7.3,7.3,0,0,1,3.77,1.82c1.24,1.12,1.83,1.11,3.16.18.44-.32.82-.72,1.27-1s.93-.57,1.41-.85a5.33,5.33,0,0,1,.81.3c2,1.09,2.59,1,4.23-.27.68-.54,1.09-1.46,2.09-1.53.91.52.5,1.33.69,2a1.38,1.38,0,0,0,1.88,1.07,9.18,9.18,0,0,0,2.19-1.1c.7-.44,1.31-1,2-1.48a2.64,2.64,0,0,1,.65-.17c1,.63,1.67,2,3.13,1.89a35.15,35.15,0,0,0,3.64-.53c-2.8,2.29-3.93,2.28-7.36,0-.39.28-.84.57-1.26.89s-.54.49-.84.7a4.64,4.64,0,0,1-3.42.9C562.42,218,562.18,217,561.58,215.81Z"/><path class="cls-1" d="M576.86,236.16a8.48,8.48,0,0,1,1,.56c1.7,1.33,3.63,1.27,5.58.72,1.33-.38,2.6-.92,3.88-1.38.43.56-.07.66-.35.8a25.38,25.38,0,0,1-3.5,1.65c-2.31.72-4.63.79-6.58-.95-.74.26-1.37.41-1.94.68a2.65,2.65,0,0,1-3.32-.48c-.32-.31-.6-.67-1-1.11-.87.58-1.6,1.1-2.37,1.57a21.78,21.78,0,0,1-2.4,1.36,3,3,0,0,1-3.41-.31,11.31,11.31,0,0,0-1.27-.82l-1.51,1.05c-.46.32-.89.66-1.37.93a3.54,3.54,0,0,1-5.07-1.12c-.21-.28-.39-.58-.61-.9-1.17.16-1.74,1.08-2.59,1.57a5.15,5.15,0,0,1-2.71,1.08c0-.37-.07-.61,0-.66,1.38-.88,2.77-1.76,4.19-2.59a15.75,15.75,0,0,1,1.83-.74c.3.52.5.9.73,1.27,1.13,1.81,2.62,2.1,4.4.81.52-.37,1-.84,1.47-1.23s.9-.57,1.44-.91c.51.39.94.7,1.35,1.05a2.79,2.79,0,0,0,3.37.32c1.06-.57,2-1.29,3-1.94.52-.33,1.06-.65,1.57-1a4.67,4.67,0,0,1,.81.5c1.92,1.72,1.92,1.72,4.32.6C576.16,236.43,576.51,236.31,576.86,236.16Z"/><path class="cls-1" d="M567,227.7a6.12,6.12,0,0,1-5.17,2.59c-.74,0-1.51-.54-2.53-.94a5.19,5.19,0,0,1-6-1.67c-1,.47-1.89.95-2.83,1.31-1.75.66-2.83.15-3.45-1.55-.11-.32-.21-.65-.33-1,0-.07-.14-.09-.36-.22l-1.14.55c-.41.21-.81.44-1.24.61-2.44,1-3.88.65-5.74-1.26-1.27.29-2,1.76-4,1.67a25,25,0,0,1,4.75-3.36c.23.36.43.61.57.89.74,1.48,1.51,1.92,3,1.5a20.86,20.86,0,0,0,2.83-1.13c.75-.33,1.47-.7,2.39-1.15.1.91.13,1.6.25,2.27a1.42,1.42,0,0,0,1.74,1.31,5.23,5.23,0,0,0,1.82-.57,18.09,18.09,0,0,0,1.89-1.31,5.49,5.49,0,0,1,.86.64c1.85,1.94,2.8,2.11,5.33.93.17,0,.43,0,.5.14a2.7,2.7,0,0,0,3.44.91c1.12-.41,2.27-.76,3.4-1.13Z"/><path class="cls-1" d="M600.84,221.92a6.29,6.29,0,0,1-.93.93,16.25,16.25,0,0,1-6,2,4.24,4.24,0,0,1-4.75-2c-.26-.45-.51-.91-.84-1.5-.68.22-1.29.39-1.87.61a3.5,3.5,0,0,1-4.08-.77,2.78,2.78,0,0,0-.41-.36c-.06,0-.18,0-.39,0-.58.44-1.21,1-1.88,1.41-2,1.39-2.85,1.34-5-.31-2,.1-3.6,1.51-5.86,1.91,1.29-1.58,3.15-2.43,6.47-3.09a1.09,1.09,0,0,1,.25.1c.59.38.76,1.24,1.69,1.25a3.37,3.37,0,0,0,2.3-.86c.81-.71,1.5-1.56,2.38-2.49.56.61.9,1,1.22,1.35a2.36,2.36,0,0,0,3.16.79l2.27-1c.07,0,.17,0,.44.05l.77,1.55c1.07,2.09,2.37,2.78,4.72,2.24,1.73-.38,3.39-1,5.09-1.47.44-.13.89-.19,1.33-.29Z"/><path class="cls-1" d="M529.54,236.29c1.78-.24,3.33.09,4.67-.75s2.53-1.44,3.78-2.14c1.85,2.12,1.85,2.12,4.68,2.39.27.6-.24.78-.64.84a3.88,3.88,0,0,1-4.33-1.92l-3.78,1.86a4.83,4.83,0,0,1-3.5.56C530.15,237.05,530,236.72,529.54,236.29Z"/><path class="cls-1" d="M567,227.76c.1-.14.17-.33.31-.39s.26.13.4.2c-.07.05-.14.14-.22.15a4.7,4.7,0,0,1-.53,0Z"/></g><g id="map_deco_7-8" data-name="map_deco_7"><path class="cls-1" d="M603.06,122.93c2.44,1.87,4.87,2.88,7.92,1,1.06.62,2,1.23,3,1.8,2,1.1,2.75,1.1,4.49-.19a9,9,0,0,1,4.06-1.77c.61.3,1.37.69,2.15,1a17,17,0,0,0,2.38,1.07c1.84.57,2.92,0,3.43-1.59.08-.25.13-.5.21-.77,1.32-.17,2.12.63,3.14,1,2.1.68,3.18.32,3.91-1.4a6.58,6.58,0,0,0,.26-1.18c3.15.32,5.06,2.67,8.21,3.09,0-.43,0-.67-.09-.72a39.21,39.21,0,0,0-9.69-3.94c0,.71,0,1.41,0,2.11,0,1.1-1,1.58-2.37,1.1-.73-.26-1.39-.63-2.09-.94s-1.21-.51-1.84-.73a3.55,3.55,0,0,0-.89,0c.05.68.15,1.36.14,2s-1,1.3-2,1a8.71,8.71,0,0,1-1.51-.62c-1.14-.59-2.27-1.2-3.34-1.78a9.86,9.86,0,0,0-4.63,1.85c-1.52,1.14-2.25,1.14-3.88.19-.55-.33-1-.74-1.56-1.06s-1.15-.58-1.73-.87a9.07,9.07,0,0,0-1,.31c-2.43,1.11-3.19,1-5.2-.28-.83-.55-1.34-1.48-2.57-1.55-1.12.52-.61,1.35-.85,2a1.75,1.75,0,0,1-2.31,1.09,12.43,12.43,0,0,1-2.68-1.12c-.86-.45-1.61-1-2.43-1.5a3.31,3.31,0,0,0-.8-.18c-1.2.64-2,2-3.84,1.93-1.44,0-2.87-.34-4.48-.54,3.45,2.33,4.83,2.32,9,0,.48.28,1,.58,1.54.9.36.22.66.5,1,.71a6.56,6.56,0,0,0,4.2.92C602,125.19,602.32,124.11,603.06,122.93Z"/><path class="cls-1" d="M584.29,143.64a12.8,12.8,0,0,0-1.22.57c-2.1,1.35-4.47,1.3-6.86.73-1.63-.38-3.19-.93-4.76-1.4-.53.57.09.67.42.81a34.51,34.51,0,0,0,4.3,1.68c2.85.73,5.69.8,8.08-1,.91.26,1.69.42,2.38.7a3.79,3.79,0,0,0,4.08-.49c.39-.32.74-.68,1.23-1.13,1.06.59,2,1.12,2.91,1.6a29.43,29.43,0,0,0,2.95,1.38,4.3,4.3,0,0,0,4.18-.31,15.21,15.21,0,0,1,1.56-.84L605.4,147c.56.32,1.09.67,1.68.94,2.49,1.13,4.49.76,6.22-1.13.26-.29.49-.59.75-.92,1.44.17,2.14,1.1,3.18,1.59a7.12,7.12,0,0,0,3.34,1.1c0-.37.08-.62,0-.67-1.7-.89-3.4-1.79-5.15-2.63a19.5,19.5,0,0,0-2.24-.75c-.37.53-.62.91-.89,1.28-1.4,1.85-3.22,2.14-5.42.84-.64-.38-1.17-.87-1.8-1.26s-1.1-.58-1.76-.92c-.63.4-1.17.71-1.66,1.07a4,4,0,0,1-4.15.31c-1.29-.57-2.46-1.31-3.69-2-.65-.34-1.31-.66-1.94-1a6.37,6.37,0,0,0-1,.5c-2.36,1.76-2.36,1.76-5.31.62C585.15,143.91,584.72,143.79,584.29,143.64Z"/><path class="cls-1" d="M596.41,135c1.45,1.84,3.78,2.51,6.35,2.63.9,0,1.85-.55,3.1-1a7.28,7.28,0,0,0,7.34-1.7c1.24.48,2.32,1,3.47,1.33,2.15.68,3.47.16,4.23-1.57.14-.33.26-.66.41-1,0-.06.17-.09.44-.22l1.39.56c.51.21,1,.45,1.53.62,3,1,4.77.66,7.05-1.29,1.56.31,2.5,1.8,4.93,1.71a31.62,31.62,0,0,0-5.84-3.43c-.28.37-.52.63-.7.91-.91,1.51-1.86,2-3.73,1.53A30.16,30.16,0,0,1,622.9,133c-.91-.34-1.8-.72-2.94-1.17-.11.93-.16,1.62-.29,2.31-.19,1-.92,1.45-2.15,1.34a7.89,7.89,0,0,1-2.23-.59,22.91,22.91,0,0,1-2.32-1.33,6.91,6.91,0,0,0-1.06.65c-2.27,2-3.44,2.15-6.54,1-.21,0-.52,0-.62.14a3.74,3.74,0,0,1-4.22.93c-1.38-.42-2.78-.78-4.17-1.16Z"/><path class="cls-1" d="M554.85,129.15a6.61,6.61,0,0,0,1.15.95,22.77,22.77,0,0,0,7.41,2.07c2.51.35,4.54-.27,5.82-2.07.33-.46.63-.93,1-1.53.84.23,1.58.4,2.29.62a5,5,0,0,0,5-.78,4.62,4.62,0,0,1,.5-.37c.08,0,.22,0,.49,0,.71.44,1.48,1,2.3,1.43,2.45,1.41,3.5,1.36,6.15-.32,2.41.1,4.42,1.53,7.19,1.95-1.59-1.61-3.87-2.47-7.94-3.15a1.7,1.7,0,0,0-.32.1c-.72.4-.92,1.27-2.07,1.28a4.66,4.66,0,0,1-2.82-.87c-1-.73-1.84-1.59-2.92-2.55-.69.63-1.11,1-1.5,1.38a3.27,3.27,0,0,1-3.88.81c-.93-.34-1.85-.69-2.79-1a2.35,2.35,0,0,0-.54,0l-.94,1.57c-1.31,2.14-2.91,2.83-5.8,2.29-2.12-.4-4.17-1-6.25-1.5-.53-.13-1.09-.2-1.64-.29Z"/><path class="cls-1" d="M642.38,143.77c-2.17-.24-4.08.09-5.72-.76s-3.11-1.47-4.65-2.18c-2.27,2.16-2.27,2.16-5.74,2.43-.33.61.29.8.79.86,2.23.3,4.07-.22,5.31-2l4.64,1.89a6.89,6.89,0,0,0,4.3.57C641.64,144.55,641.85,144.21,642.38,143.77Z"/><path class="cls-1" d="M596.36,135.09c-.12-.14-.21-.33-.38-.39s-.32.13-.49.2c.09,0,.17.14.27.15s.43,0,.65,0Z"/></g><g id="map_deco_7-9" data-name="map_deco_7"><path class="cls-1" d="M794.08,131.61c1.83,1.48,3.65,2.29,5.92.81.79.49,1.52,1,2.28,1.43,1.48.88,2.05.88,3.35-.15a6.47,6.47,0,0,1,3-1.41l1.6.84A13.79,13.79,0,0,0,812,134c1.38.46,2.18,0,2.56-1.27.06-.2.11-.4.16-.61,1-.13,1.58.5,2.35.76,1.56.54,2.37.26,2.91-1.11a5.87,5.87,0,0,0,.2-.94c2.35.25,3.78,2.13,6.13,2.46,0-.34,0-.53-.07-.58a28.47,28.47,0,0,0-7.23-3.14c0,.57,0,1.13,0,1.68,0,.88-.77,1.27-1.77.89-.54-.21-1-.51-1.55-.76s-.91-.4-1.38-.58a2.28,2.28,0,0,0-.66,0c0,.54.11,1.08.11,1.63a1.09,1.09,0,0,1-1.46.82,6.32,6.32,0,0,1-1.13-.49c-.85-.47-1.69-1-2.5-1.42a7,7,0,0,0-3.45,1.48c-1.14.91-1.68.9-2.9.14-.41-.25-.75-.58-1.16-.84s-.86-.46-1.29-.69a6.07,6.07,0,0,0-.75.24c-1.81.89-2.38.83-3.88-.22-.62-.44-1-1.18-1.91-1.24-.84.42-.46,1.08-.64,1.6a1.28,1.28,0,0,1-1.72.87,8.88,8.88,0,0,1-2-.9c-.64-.35-1.2-.8-1.81-1.19a2.2,2.2,0,0,0-.6-.14c-.89.51-1.53,1.58-2.87,1.53-1.07,0-2.13-.27-3.34-.43,2.58,1.86,3.6,1.85,6.76,0,.35.22.76.46,1.15.72s.49.4.77.57a4.68,4.68,0,0,0,3.14.73C793.31,133.41,793.53,132.55,794.08,131.61Z"/><path class="cls-1" d="M780.07,148.13a7,7,0,0,0-.91.46,6.05,6.05,0,0,1-5.12.58c-1.22-.31-2.38-.75-3.56-1.12-.39.46.07.53.32.64A23.65,23.65,0,0,0,774,150c2.12.59,4.25.65,6-.76a17.39,17.39,0,0,1,1.78.55,2.66,2.66,0,0,0,3-.39c.3-.26.56-.54.92-.9.8.47,1.47.89,2.18,1.27a20.58,20.58,0,0,0,2.2,1.11,3,3,0,0,0,3.12-.25,9.69,9.69,0,0,1,1.17-.67l1.38.85a13.48,13.48,0,0,0,1.26.75,3.47,3.47,0,0,0,4.64-.9c.2-.23.36-.47.57-.73,1.07.13,1.59.87,2.37,1.27a5.1,5.1,0,0,0,2.49.88c0-.3.06-.5,0-.54-1.27-.71-2.54-1.43-3.85-2.1a13.27,13.27,0,0,0-1.67-.6c-.28.42-.46.73-.67,1-1,1.47-2.4,1.7-4,.66-.48-.3-.88-.69-1.34-1s-.83-.47-1.32-.74c-.47.32-.87.57-1.24.85a2.83,2.83,0,0,1-3.1.26c-1-.46-1.84-1.05-2.76-1.57l-1.44-.78a5.38,5.38,0,0,0-.75.4c-1.76,1.4-1.75,1.4-4,.49Z"/><path class="cls-1" d="M789.12,141.26a5.87,5.87,0,0,0,4.74,2.1,7.56,7.56,0,0,0,2.32-.76,5.18,5.18,0,0,0,5.48-1.36c.92.39,1.73.78,2.59,1.07,1.6.53,2.59.12,3.16-1.26.1-.26.19-.53.3-.79,0,0,.13-.07.33-.18l1,.45c.38.17.75.36,1.14.5,2.24.77,3.56.52,5.27-1,1.16.24,1.87,1.43,3.68,1.36a23.58,23.58,0,0,0-4.36-2.73,8.77,8.77,0,0,0-.52.73,2.15,2.15,0,0,1-2.79,1.22,21.74,21.74,0,0,1-2.6-.93c-.68-.26-1.35-.57-2.19-.93-.09.74-.12,1.3-.22,1.85a1.3,1.3,0,0,1-1.61,1.06,5.2,5.2,0,0,1-1.66-.47,16.18,16.18,0,0,1-1.73-1.06,5.69,5.69,0,0,0-.79.52c-1.7,1.57-2.57,1.71-4.89.76-.16,0-.39,0-.46.11a2.66,2.66,0,0,1-3.15.74c-1-.33-2.08-.62-3.12-.92Z"/><path class="cls-1" d="M758.09,136.57a5.14,5.14,0,0,0,.86.75,15.92,15.92,0,0,0,5.53,1.65,4.09,4.09,0,0,0,4.35-1.64c.25-.37.47-.74.77-1.22.63.18,1.18.31,1.71.49a3.51,3.51,0,0,0,3.75-.62,2.2,2.2,0,0,1,.37-.3,1.41,1.41,0,0,1,.37,0c.52.35,1.1.77,1.71,1.14,1.83,1.13,2.62,1.09,4.59-.25,1.8.08,3.3,1.22,5.37,1.55-1.18-1.29-2.89-2-5.93-2.51a1.23,1.23,0,0,0-.23.08c-.54.32-.69,1-1.55,1a3.28,3.28,0,0,1-2.1-.7c-.75-.58-1.38-1.26-2.19-2-.51.5-.83.79-1.12,1.1a2.33,2.33,0,0,1-2.89.65l-2.08-.82a1.77,1.77,0,0,0-.41.05c-.21.37-.45.81-.71,1.25-1,1.7-2.17,2.26-4.33,1.82-1.57-.31-3.1-.8-4.66-1.19-.4-.1-.81-.16-1.22-.24Z"/><path class="cls-1" d="M823.45,148.23c-1.63-.19-3.05.08-4.28-.61s-2.32-1.17-3.47-1.73c-1.69,1.72-1.69,1.72-4.29,1.94-.24.48.23.63.6.68a3.73,3.73,0,0,0,4-1.56l3.47,1.51a4.86,4.86,0,0,0,3.21.45C822.89,148.85,823.05,148.58,823.45,148.23Z"/><path class="cls-1" d="M789.08,141.31c-.09-.11-.15-.27-.28-.31s-.24.1-.37.15c.07,0,.13.12.21.12a2.57,2.57,0,0,0,.48,0Z"/></g><g id="map_deco_7-10" data-name="map_deco_7"><path class="cls-1" d="M155.94,3.51c-1.45,1.19-2.89,1.83-4.7.65-.62.39-1.21.78-1.81,1.14-1.17.7-1.63.7-2.66-.12a5.1,5.1,0,0,0-2.41-1.12l-1.27.67a10.81,10.81,0,0,1-1.42.67c-1.09.36-1.73,0-2-1,0-.15-.08-.32-.12-.48-.79-.11-1.27.39-1.87.6-1.24.43-1.89.21-2.32-.88a4.94,4.94,0,0,1-.15-.75c-1.87.2-3,1.69-4.88,2,0-.27,0-.43.06-.46a22.83,22.83,0,0,1,5.75-2.5c0,.45,0,.9,0,1.34,0,.7.61,1,1.41.7.43-.17.82-.4,1.23-.6s.72-.32,1.1-.46a2,2,0,0,1,.52,0c0,.43-.09.86-.08,1.29s.6.82,1.16.66a4.71,4.71,0,0,0,.89-.39c.68-.37,1.35-.77,2-1.13a5.6,5.6,0,0,1,2.74,1.17,1.58,1.58,0,0,0,2.3.12c.33-.2.6-.46.93-.67s.68-.37,1-.55a5.14,5.14,0,0,1,.59.19c1.43.71,1.89.67,3.08-.17.49-.35.79-.94,1.52-1,.67.33.37.85.51,1.26a1,1,0,0,0,1.37.7A7.6,7.6,0,0,0,160,3.66c.51-.28.95-.64,1.44-1a2,2,0,0,1,.48-.11c.71.41,1.21,1.26,2.28,1.22.85,0,1.69-.21,2.65-.34-2,1.48-2.86,1.47-5.37,0l-.91.57c-.21.15-.39.32-.61.46a3.74,3.74,0,0,1-2.5.58C156.56,5,156.38,4.26,155.94,3.51Z"/><path class="cls-1" d="M167.08,16.65a6,6,0,0,1,.72.36,4.81,4.81,0,0,0,4.07.46c1-.24,1.9-.59,2.83-.89.31.36,0,.43-.25.51a18.34,18.34,0,0,1-2.55,1.07,5.14,5.14,0,0,1-4.8-.61,12.54,12.54,0,0,0-1.41.44,2.14,2.14,0,0,1-2.42-.31c-.23-.2-.44-.43-.73-.72-.63.37-1.17.71-1.73,1a14.32,14.32,0,0,1-1.75.88,2.39,2.39,0,0,1-2.48-.2,9.9,9.9,0,0,0-.93-.53l-1.1.68c-.33.2-.64.43-1,.6a2.77,2.77,0,0,1-3.69-.72c-.16-.18-.29-.37-.45-.58-.85.1-1.27.69-1.89,1a4,4,0,0,1-2,.69c0-.23-.05-.39,0-.42,1-.57,2-1.14,3.06-1.67a11.17,11.17,0,0,1,1.33-.48c.22.34.36.58.53.82a2.11,2.11,0,0,0,3.21.53c.38-.24.7-.55,1.07-.8s.66-.37,1.05-.59c.37.26.69.46,1,.68a2.23,2.23,0,0,0,2.46.2c.77-.36,1.46-.83,2.19-1.24l1.15-.62a3.06,3.06,0,0,1,.59.32c1.4,1.11,1.4,1.11,3.15.39C166.57,16.82,166.82,16.74,167.08,16.65Z"/><path class="cls-1" d="M159.89,11.19a4.69,4.69,0,0,1-3.77,1.67,6.23,6.23,0,0,1-1.84-.61,4.1,4.1,0,0,1-4.35-1.08c-.74.31-1.38.62-2.06.85-1.28.42-2.06.1-2.51-1-.09-.21-.15-.42-.25-.63,0,0-.1-.06-.26-.14l-.82.36c-.31.13-.6.28-.91.39a3.56,3.56,0,0,1-4.19-.81c-.92.19-1.48,1.13-2.92,1.08a17.56,17.56,0,0,1,3.47-2.17c.16.23.31.39.41.57a1.69,1.69,0,0,0,2.22,1,16.8,16.8,0,0,0,2.06-.73c.54-.21,1.07-.45,1.74-.74.07.59.1,1,.18,1.47a1,1,0,0,0,1.27.84,4.31,4.31,0,0,0,1.33-.37,14.76,14.76,0,0,0,1.37-.85,5.75,5.75,0,0,1,.63.41c1.35,1.26,2,1.37,3.88.61.13,0,.31,0,.37.09a2.11,2.11,0,0,0,2.5.59c.82-.27,1.65-.49,2.48-.74Z"/><path class="cls-1" d="M184.55,7.46a4.3,4.3,0,0,1-.68.6,12.84,12.84,0,0,1-4.4,1.31A3.27,3.27,0,0,1,176,8.06c-.19-.29-.37-.59-.61-1-.5.14-.94.25-1.36.39a2.8,2.8,0,0,1-3-.49,1.68,1.68,0,0,0-.29-.24,1.29,1.29,0,0,0-.29,0c-.42.28-.88.61-1.37.91-1.45.89-2.07.86-3.64-.2-1.43.06-2.63,1-4.27,1.23.94-1,2.3-1.57,4.71-2l.19.07c.43.25.55.8,1.23.81A2.66,2.66,0,0,0,169,7c.59-.47,1.09-1,1.74-1.62.4.4.65.63.89.88a1.86,1.86,0,0,0,2.3.51l1.65-.65s.13,0,.32,0c.17.29.36.64.56,1a2.77,2.77,0,0,0,3.44,1.45c1.26-.25,2.47-.63,3.71-.95.32-.08.65-.12,1-.18Z"/><path class="cls-1" d="M132.61,16.73c1.29-.16,2.42.06,3.4-.49s1.84-.93,2.75-1.38c1.35,1.37,1.35,1.37,3.41,1.54.2.39-.17.51-.47.55a3,3,0,0,1-3.15-1.24l-2.75,1.2a3.9,3.9,0,0,1-2.56.36C133.05,17.22,132.92,17,132.61,16.73Z"/><path class="cls-1" d="M159.92,11.22c.07-.08.12-.21.22-.24s.19.08.29.12a.39.39,0,0,1-.16.1c-.12,0-.25,0-.38,0Z"/></g><g id="map_deco_7-11" data-name="map_deco_7"><path class="cls-1" d="M72.78,203.74c2.49,2,5,3.12,8.07,1.1,1.08.68,2.07,1.34,3.1,2,2,1.2,2.8,1.2,4.58-.21a8.82,8.82,0,0,1,4.13-1.92c.62.33,1.39.75,2.18,1.15A18,18,0,0,0,97.27,207c1.87.63,3,.05,3.49-1.72.08-.28.14-.55.21-.84,1.35-.18,2.16.68,3.2,1,2.13.74,3.23.35,4-1.52a8,8,0,0,0,.26-1.28c3.21.34,5.16,2.9,8.37,3.36-.06-.47,0-.73-.1-.79-4.28-2.39-7.36-3.72-9.87-4.29,0,.78,0,1.54,0,2.3,0,1.2-1,1.72-2.41,1.2-.74-.28-1.41-.69-2.12-1s-1.24-.56-1.88-.8a3.31,3.31,0,0,0-.9,0c0,.74.15,1.48.14,2.22a1.47,1.47,0,0,1-2,1.12,8.06,8.06,0,0,1-1.53-.67c-1.17-.64-2.31-1.31-3.4-1.93a9.65,9.65,0,0,0-4.72,2c-1.55,1.24-2.28,1.23-3.94.2-.56-.35-1-.8-1.59-1.15s-1.17-.63-1.76-.95a8.46,8.46,0,0,0-1,.34c-2.47,1.21-3.25,1.13-5.3-.3-.84-.6-1.36-1.61-2.61-1.69-1.14.57-.62,1.47-.87,2.18a1.75,1.75,0,0,1-2.35,1.18A12.17,12.17,0,0,1,65.84,204c-.87-.48-1.63-1.1-2.47-1.63a2.91,2.91,0,0,0-.81-.19c-1.23.7-2.09,2.15-3.91,2.09-1.47,0-2.92-.36-4.56-.58,3.51,2.53,4.91,2.52,9.21-.05.49.31,1,.63,1.57,1,.36.24.67.54,1,.78a6.39,6.39,0,0,0,4.27,1C71.72,206.19,72,205,72.78,203.74Z"/><path class="cls-1" d="M53.68,226.27a9,9,0,0,0-1.24.62c-2.14,1.46-4.55,1.4-7,.79-1.66-.42-3.25-1-4.85-1.53-.53.62.09.73.43.88a33.48,33.48,0,0,0,4.38,1.83c2.89.8,5.78.87,8.22-1.05a22.85,22.85,0,0,1,2.43.76,3.64,3.64,0,0,0,4.14-.53c.41-.35.76-.74,1.25-1.23,1.09.64,2,1.21,3,1.73a28.05,28.05,0,0,0,3,1.51,4.14,4.14,0,0,0,4.26-.34,12.11,12.11,0,0,1,1.59-.91L75.17,230a18.36,18.36,0,0,0,1.71,1c2.53,1.23,4.57.83,6.33-1.23.27-.31.49-.64.77-1,1.46.18,2.17,1.19,3.24,1.74a6.83,6.83,0,0,0,3.39,1.19c0-.4.08-.67,0-.73-1.73-1-3.46-1.95-5.24-2.86a18,18,0,0,0-2.28-.82c-.38.58-.63,1-.91,1.4-1.43,2-3.28,2.32-5.51.91-.65-.42-1.2-.94-1.83-1.37s-1.13-.63-1.8-1c-.64.44-1.18.78-1.69,1.17a3.84,3.84,0,0,1-4.22.34c-1.31-.62-2.51-1.42-3.76-2.14-.66-.37-1.33-.72-2-1.06a6.93,6.93,0,0,0-1,.55C58,228,58,228,55,226.73,54.56,226.56,54.12,226.42,53.68,226.27Z"/><path class="cls-1" d="M66,216.9c1.47,2,3.85,2.74,6.46,2.86.92.05,1.88-.59,3.16-1a7,7,0,0,0,7.47-1.85c1.26.53,2.36,1.06,3.53,1.45,2.19.74,3.53.17,4.3-1.7.15-.36.27-.73.42-1.09,0-.06.18-.1.45-.24l1.42.62c.52.22,1,.48,1.55.67,3.06,1.06,4.86.71,7.18-1.4,1.59.33,2.55,1.95,5,1.86a31.18,31.18,0,0,0-6-3.73c-.28.4-.53.68-.71,1-.93,1.64-1.89,2.13-3.8,1.66A26,26,0,0,1,93,214.7c-.94-.36-1.84-.77-3-1.26-.11,1-.16,1.76-.3,2.51a1.75,1.75,0,0,1-2.18,1.45,7.72,7.72,0,0,1-2.28-.63,23,23,0,0,1-2.35-1.46,7.49,7.49,0,0,0-1.08.71c-2.31,2.15-3.5,2.34-6.66,1-.22,0-.53,0-.63.15a3.64,3.64,0,0,1-4.3,1c-1.4-.46-2.83-.84-4.25-1.26Z"/><path class="cls-1" d="M23.71,210.5a7.14,7.14,0,0,0,1.17,1,21.91,21.91,0,0,0,7.55,2.25c2.55.38,4.62-.29,5.93-2.25.33-.5.64-1,1-1.66.86.25,1.61.43,2.33.68a4.8,4.8,0,0,0,5.11-.86,4,4,0,0,1,.5-.4,1.92,1.92,0,0,1,.5,0c.72.48,1.51,1,2.34,1.56,2.5,1.53,3.56,1.48,6.26-.35,2.45.11,4.5,1.67,7.31,2.12-1.61-1.76-3.94-2.69-8.07-3.43a1.85,1.85,0,0,0-.33.12c-.73.42-.93,1.37-2.1,1.38a4.43,4.43,0,0,1-2.87-.95c-1-.79-1.88-1.72-3-2.76-.7.68-1.13,1.08-1.53,1.5a3.19,3.19,0,0,1-3.94.87l-2.84-1.1c-.09,0-.22,0-.55.05-.29.51-.62,1.12-1,1.71-1.33,2.32-3,3.08-5.9,2.49-2.15-.43-4.24-1.09-6.36-1.63-.54-.14-1.11-.22-1.66-.32Z"/><path class="cls-1" d="M112.81,226.4c-2.21-.26-4.15.11-5.82-.83s-3.17-1.59-4.73-2.37c-2.31,2.36-2.31,2.36-5.85,2.65-.34.66.3.86.81.94,2.27.32,4.14-.25,5.4-2.14l4.73,2.06a6.67,6.67,0,0,0,4.38.62C112.05,227.25,112.28,226.88,112.81,226.4Z"/><path class="cls-1" d="M66,217c-.12-.15-.21-.36-.38-.42s-.33.13-.5.21c.09.06.18.16.28.17a4.9,4.9,0,0,0,.66,0Z"/></g></g></g></g></svg>