<svg xmlns="http://www.w3.org/2000/svg" viewBox="0 0 106.03 49.77"><defs><style>.cls-1{fill:#7c4821;}</style></defs><g id="圖層_2" data-name="圖層 2"><g id="event"><g id="au_t_c"><g id="au_t_c-2" data-name="au_t_c"><path class="cls-1" d="M11.23.19l.86-.06c1.26-.06,2.68.59,4.28,1.94v.19a83.83,83.83,0,0,1-.88,9l4.65-.25c.11,0,.16.09.16.26l.53-.3h.42a9.82,9.82,0,0,1,3.17.47v.74l-1.23.28a15.68,15.68,0,0,1-2.82-.07c-1.4.21-2.93.36-4.57.46h-.56q4.57,8.33,7,10a67.37,67.37,0,0,0,5.18,5.16v.32c-.36,0-.58.39-.65,1.13h-.35a10.2,10.2,0,0,1-7.12-2.45L14.1,19.47l-.32,0a18.3,18.3,0,0,1-8.66,10L1,30.56c-.67-.13-1-.3-1-.51v-.16c1.73-.57,4.2-3.17,7.38-7.78A28.74,28.74,0,0,0,10,13.58l-5.75.28q-2.76,0-2.76-.63v-.37c.73-.19,3.54-.47,8.44-.86q.5,0,1.6-10.67c-.25,0-.47-.18-.67-.56V.57C10.92.33,11,.2,11.23.19Z"/><path class="cls-1" d="M37.74,10.52l.84,0A5.31,5.31,0,0,1,42.89,12c1.5.65,2.36,1.24,2.58,1.78v.63a.34.34,0,0,1-.36.39l-2.57.12a29.43,29.43,0,0,0-5.4-3.81C37.14,10.91,37.34,10.73,37.74,10.52Zm5.7,6h.15c1.4-.06,2.1,0,2.1.21a15.3,15.3,0,0,0-1.08,4.65l-2.39,7.66-.37,0c-.09,0-.14-.09-.14-.28l-.56.32-2.57.12c-.23,0-.35-.1-.35-.35v-.17q1.17-1.62,4.12-10C42.59,18.75,43,18,43.44,16.53ZM42.24,1.79l.23.47L42.94,2a17,17,0,0,1,3.41,1.93V5q0,.27-.63.6l-2.27.13q0-1.61-3.48-2.62v-1C41.21,1.92,42,1.81,42.24,1.79Zm17-1.71L60.35,0c1.48-.07,2.26.23,2.32.9q0,2.61-3.5,5.34V6.6l2.92-.14c.09,0,.14.08.14.26l.56-.31h.37A2.43,2.43,0,0,0,64.85,7v.12c-.14.4-.56.62-1.23.65-2.68,0-4.36,0-5.07,0l-.24.51V9.61L59,11.77v.72l2.69-.16c.1,0,.14.11.14.28a2.37,2.37,0,0,1,.71-.31,7.92,7.92,0,0,0,2.34.75v.3l-1.67.07a1.72,1.72,0,0,0-.87.27,1.51,1.51,0,0,0-.87-.16l-.87,0a1.86,1.86,0,0,0-.89.26,1.38,1.38,0,0,0-.67-.18l-.26.5v1.1A10.08,10.08,0,0,0,59,17.17a1.6,1.6,0,0,0-.22.66c0,1.09.46,1.62,1.38,1.57,2-.25,3.23-.38,3.7-.41a12.31,12.31,0,0,1,3.85.65v.16a.33.33,0,0,1-.36.37l-2.63.14-1.43.3c0-.15-.13-.22-.38-.21v.18l-.34-.16-.66,0c-.2,0-.3.08-.3.2l-.36-.16-.35.17c0-.11-.13-.16-.38-.14v.18l-.36-.16-.72,0-.24,1,.23,1.08c-.32,3-.61,4.59-.86,4.81v.46a1.63,1.63,0,0,0,.19.84l-.21.46a1.66,1.66,0,0,1,.23.84c-.14.4-.55.62-1.23.65-1.4-.31-2.1-.61-2.1-.89V26.31q-.27-5.29-1-5.26l-1.31.07c-.2,0-.3.08-.3.23-1.49-.06-2.24-.19-2.24-.39l-.49.3a1.84,1.84,0,0,0-1-.17v.21c-1.93-.14-2.9-.35-2.9-.64s.19-.36.57-.38C48,20.21,50.71,20,55,19.66V17a1.83,1.83,0,0,1,.23-.88,1.7,1.7,0,0,1-.23-.86v-1l-6.73.33V14c0-.24.19-.36.56-.37s2.28-.2,5.73-.53a.46.46,0,0,1,.44-.46c-.29-2.84-.61-4.26-1-4.23a26.3,26.3,0,0,1-3.47.6L48,9.17V8.24q2.35-.32,2.76-.78a1.52,1.52,0,0,0,.71.18c0-.29.17-.44.38-.44s.13.08.13.25a11,11,0,0,1,2.56-.62V6.44q-1.65.1-3.72-3a2.18,2.18,0,0,0-1.08-.63v-.7c1.32-.07,2-.25,2-.53Q53.7,1.83,56,5l.49.23a6.11,6.11,0,0,0,2.69-3.88V1.06A1.41,1.41,0,0,1,58.9.27Z"/><path class="cls-1" d="M77,10.38l.42.18,1.32-.28c.83,0,1.67,1.13,2.51,3.49v1.08c0,.17-.2.38-.6.61a1.48,1.48,0,0,1-.84-.19,1.68,1.68,0,0,1-.83.28c-1.27-2.54-2.21-3.81-2.79-3.8v-.54C76.15,11.08,76.42,10.8,77,10.38Zm6.55,4.87c1.23-.06,1.85.25,1.85.93q0,.57-3.48,8a43.56,43.56,0,0,0-1.32,4.65l-.6.4-2.58.14c-.18,0-.36-.18-.56-.53q2.58-6,5.69-12.35c-.17,0-.26,0-.26,0S82.81,16,83.51,15.25ZM80,2.58A2.06,2.06,0,0,1,82.09,4c.21.13.57,1.16,1.07,3.1l-1,.24A2.49,2.49,0,0,1,79.4,5.56C79,4.52,78.53,4,78.12,4V3.26C78.12,3,78.75,2.76,80,2.58Zm21.74-1.52L102.83,1c1.84.34,2.76.64,2.76.88V2.1c0,.38-.07.57-.23.58l.23,1.16v.63c0,.4-.07.61-.21.62l.65,6.54-.44,1.58a1.66,1.66,0,0,1,.23.58.45.45,0,0,0-.44.49v1.3a7,7,0,0,0,.21,1.74,24.15,24.15,0,0,1-.42,2.64l.21,1.28-.21,1.34a6.47,6.47,0,0,1,.21,1.51c0,.1-.08.15-.23.16l.23,1.14v1.53c0,1.7-.27,2.56-.81,2.59l-1.65.08c0-.29-.14-.44-.42-.44V18.36c0-1.94-.32-2.9-1-2.86-1.56.08-2.34-.38-2.34-1.39a7.74,7.74,0,0,1-1.65-1.57c-.11,1.25-.27,1.87-.49,1.88l.24.5v.86c0,.1-.08.16-.24.16a2.06,2.06,0,0,1,.24.72c-.13,1-.19,1.62-.19,1.77.28.29.49,1.58.63,3.85l-.21.9a6.76,6.76,0,0,1,.21,1.67.49.49,0,0,0-.44.53l.21,1-.37.2-1.91.08C94.41,26.37,94,26.12,94,26a8.82,8.82,0,0,1,.44-2.62,11.41,11.41,0,0,1-.21-2V19a1.71,1.71,0,0,0-.21-.88,1.74,1.74,0,0,0,.21-.88c-.15-1-.23-1.65-.23-1.86l-.53.32c-.72,0-1.35-.75-1.88-2.32h-.35a20,20,0,0,1-.65,4.89c0,.21.06.31.19.3l-.63,2.57.21.86C89,24.65,88.31,26,88.26,26a13.56,13.56,0,0,1-2.83,1c-.53-.17-.79-.35-.79-.52v-.18A12.14,12.14,0,0,0,87,18.55c.18,0,.4-1,.67-3-1.1,0-1.92-.64-2.45-2.06-.15,0-.72-.54-1.7-1.61v-.13l1-.24.19,0a3.83,3.83,0,0,1,2.58.53l.76,0a7.86,7.86,0,0,1,.23-2L87.68,3.3l.37,0c.09,0,.14.08.14.26l.53-.3c1.24.15,1.86.52,1.86,1.13,0,.1.43,2,1.3,5.59a1.76,1.76,0,0,0-.21.88v.53a9,9,0,0,1,2.3.54l.25-1.6V3.89l-.42,0V3.56c0-.17.2-.37.59-.6l1.27-.07a1.63,1.63,0,0,1,1.65.95c0,.08-.07.13-.23.13a14,14,0,0,1,.46,2.67l-.42,4.18.72.46.44-.23a4.57,4.57,0,0,1,3.2,2,2.36,2.36,0,0,1,.4.88l.39,0c0-.73.09-1.1.26-1.11l-.26-.49V8.59c0-1.45-.08-3.66-.23-6.61l-.65,0V1.47C101.43,1.21,101.55,1.08,101.76,1.06Z"/></g><path class="cls-1" d="M19.57,43a8.08,8.08,0,0,1,1.12-4.35,5.36,5.36,0,0,1,4.7-2.48,5.33,5.33,0,0,1,4.68,2.48,8.85,8.85,0,0,1,0,8.69,5.31,5.31,0,0,1-4.68,2.46,5.34,5.34,0,0,1-4.7-2.46A8,8,0,0,1,19.57,43ZM29,43a9.14,9.14,0,0,0-.86-4,3.13,3.13,0,0,0-5.68.12,9.32,9.32,0,0,0-.66,4.09,8.81,8.81,0,0,0,.84,4,3.09,3.09,0,0,0,2.88,1.76,3.06,3.06,0,0,0,2.78-1.88A9.24,9.24,0,0,0,29,43Z"/><path class="cls-1" d="M37.25,49.77a4.4,4.4,0,0,1-4.7-4.66,5.41,5.41,0,0,1,1.26-3.68A4.11,4.11,0,0,1,37.07,40a9.87,9.87,0,0,1,3.18.64v1.94h-.4l-1.52-1.34a2.27,2.27,0,0,0-1.18-.41,2.36,2.36,0,0,0-2.1,1.53,5.25,5.25,0,0,0-.52,2.42,3.93,3.93,0,0,0,.9,2.74,3.63,3.63,0,0,0,2.76,1,2.19,2.19,0,0,0,1.08-.4c.54-.36,1-.7,1.4-1l.16.12-1.6,2.16A4.66,4.66,0,0,1,37.25,49.77Z"/><path class="cls-1" d="M43,48.23a4.88,4.88,0,0,1-1.06-3.16,5.49,5.49,0,0,1,1.2-3.56A4.13,4.13,0,0,1,46.39,40a3.63,3.63,0,0,1,2.74,1.14,4.38,4.38,0,0,1,1,2.9L43.85,45a3.83,3.83,0,0,0,.8,2.42,3.36,3.36,0,0,0,2.62,1.06,5.82,5.82,0,0,0,2.88-1.36l.16.12-1.6,2.06a4.82,4.82,0,0,1-2.14.52A4.58,4.58,0,0,1,43,48.23Zm5-4.72a4.76,4.76,0,0,0-.32-1.7,1.63,1.63,0,0,0-1.56-1.07,1.94,1.94,0,0,0-1.86,1.13,5.17,5.17,0,0,0-.42,2.22Z"/><path class="cls-1" d="M56.21,49.65a5.62,5.62,0,0,1-1.18.12,3.13,3.13,0,0,1-2.77-1.56,5.61,5.61,0,0,1-.71-2.94,6,6,0,0,1,1.14-3.74A3.75,3.75,0,0,1,55.79,40a3.22,3.22,0,0,1,2.08.79l.5-.52h2.3v.41a2.92,2.92,0,0,0-.92,2.56v3.72a5.73,5.73,0,0,0,.08,1.12,1.88,1.88,0,0,0,.84,1.06v.4H58.31a1.56,1.56,0,0,1-.44-.84Zm-2-2.22a3.18,3.18,0,0,0,2.64,1.06l1-.1v-7a2.57,2.57,0,0,0-3.56.62,4.41,4.41,0,0,0-.82,2.78A4,4,0,0,0,54.25,47.43Z"/><path class="cls-1" d="M68.49,44a4.87,4.87,0,0,0-.24-1.82,1.54,1.54,0,0,0-1.62-.88,3.54,3.54,0,0,0-1.08.2,2.21,2.21,0,0,0-.88.5v5a5.36,5.36,0,0,0,.14,1.38,2.06,2.06,0,0,0,.78.8v.4H61.86v-.4a1.92,1.92,0,0,0,.76-.8,4.44,4.44,0,0,0,.16-1.38V43.49a5.07,5.07,0,0,0-.21-1.62,2.16,2.16,0,0,0-.71-.8v-.38L64.67,40v1.54l1.9-1.37A5.67,5.67,0,0,1,68,40c1.6,0,2.42,1.14,2.42,3.38v3.58a4.44,4.44,0,0,0,.16,1.38,1.86,1.86,0,0,0,.76.8v.4H67.57v-.4a2,2,0,0,0,.76-.8,4.44,4.44,0,0,0,.16-1.38Z"/><path class="cls-1" d="M75.2,46.93a5.36,5.36,0,0,0,.14,1.38,2.1,2.1,0,0,0,.79.8v.4H72.4v-.4a2,2,0,0,0,.76-.8,4.44,4.44,0,0,0,.16-1.38V43.49a4.76,4.76,0,0,0-.22-1.62,2.12,2.12,0,0,0-.7-.8v-.38L75.2,40Zm-2.2-10a1.2,1.2,0,0,1,.36-.86,1.15,1.15,0,0,1,.86-.34,1.18,1.18,0,0,1,.86.34,1.27,1.27,0,0,1,.35.86,1.24,1.24,0,0,1-.35.86,1.2,1.2,0,0,1-.86.36A1.23,1.23,0,0,1,73,36.88Z"/><path class="cls-1" d="M82,49.65a5.65,5.65,0,0,1-1.19.12,3.1,3.1,0,0,1-2.76-1.56,5.61,5.61,0,0,1-.72-2.94,6,6,0,0,1,1.14-3.74A3.75,3.75,0,0,1,81.59,40a3.22,3.22,0,0,1,2.08.79l.5-.52h2.3v.41a2.92,2.92,0,0,0-.92,2.56v3.72a5.73,5.73,0,0,0,.08,1.12,1.88,1.88,0,0,0,.84,1.06v.4H84.11a1.56,1.56,0,0,1-.44-.84Zm-2-2.22a3.21,3.21,0,0,0,2.65,1.06l1-.1v-7A2.58,2.58,0,0,0,80.1,42a4.41,4.41,0,0,0-.82,2.78A4,4,0,0,0,80,47.43Z"/></g></g></g></svg>