<svg xmlns="http://www.w3.org/2000/svg" viewBox="0 0 194.91 40"><defs><style>.cls-1{fill:#7c4821;}</style></defs><g id="圖層_2" data-name="圖層 2"><g id="event"><path id="au_t" class="cls-1" d="M39.3,36.52,38.85,36l-.69-.7-1.49-.64-.75-1.05-1.14-2.69-.45-.95v-.85l-.44-2-.4-.9.1-1.2-.89-.4-.06-1,.25-.39,0-1.7-.34-.8-3.08-3.73L29.32,15l-.65-1.15.25-2.34-.1-2.69-.5.24L27,7.8,27.28,7l-.34-.65-.24-1L26,3h-.39l-.05-1.34.35.1L25.73.7,24.62.1H23.1L19,2.58,17.17,7.5l-.4.4L16,9.69l-.39.8-.1.89L14.3,14.31l-.05,1-.74.45-.65,1.94-1,2.68-.44.3.05,1.44-.79.7V24l-.76.89L8.79,27.38,7.39,31.8l-.85,1.14-1,1-.75.49-1.94.5L1.05,36,0,37.26l.4,1,.8.85,1.44.33L3.79,40l.45-.94.64.34,1.55-.34H7.62l.9.59.85-.59,1,.34,4.14-.34,2.14.24.16-.64.36-.1.33-.7-1-.69-2-.65h-1L12.67,36l-.5.1L12,34.87l-.8-.65-.15-.95.55-.05.19-.65-.54-.3.89-2.7.05-.9.65.15V27.46l1.29-2.67-.4-.05.4-.51v-.71l.55-.4.11-.75.55-.36H23.1l1,.35,1,.35.21,1.65,1,1.81.1,1,.6,1.15.86,3,.45.7-.2.45L29.21,35l.31.7-.7.8-.9.35-.74-.35H25.54l-.05.35-.55-.35-.49.31-.3,1,.55.93,1.29.32.64.39L28,39.06h4.92l1.44.29,3.38-.29,1.59.44,1.09-.44.85-1.15L40,36.52ZM23.1,18.83l-.4.4-1.45.65-.7.15-1.25-.45-1.21-.25-1.29-.4-.75-.64.75-.4-.16-.95.55-1.29.1-1.19.54-1.24.65-1.44.9-.95.84.4.45,1.1.65.69.1,1.09L22,15.4l.6.7.49,1.29ZM64.64,35.88l.3.39-.51,1.49-.53.6-1.15.3-.77.4-.77.19-1.27.3h-.87l-.69-.66v-1l-.3-.47-.5-.6-.9.6-.4.59-1.5.6h-1l-1.1.69-.6-.39-.4.39h-1.2l-1-.17-1.6-.52-.9-.6h-.7l.1-.59-.7-.5-.59-.5-.6-1.09v-2l-.4-.4.2-1.59v-.29l.2-1.2-.2-1v-.8l.2-.59-.4-.4.2-4.17-.3-1.2L43.78,20l-.51-.6-.89-.5-1.09-.49.09-.7.2-1,.69-.5,2.45-.1.88-.3.69-.2h1.37l1,.4,1.08.89.11.59-.29,1.28-.2.2-.2,1.09.4,1.58-.6.29v1.29l.4.59.2,1.38-.6,1.29v1.38l-.3.59V31.9l.7.5v1.07l.2.85,1,.53.71.43.9-.2,1.61.2,1.11-.4,1.41.2,1.3-1.49V33l.6-.39.2-.7-.2-.79.2-.9-.2-.69.2-.6v-.5l-.2-1.19V25.94l.2-1.1.2-1-.2-3.08v-.5l-.8-.69-.91-.2-.31.3-.92-.3-.51-.5-.71-.49-.1-.8-.41-.79.7-.7,1.09-.5.2.5.79-.1,1.09.4.6-.4.89-.1,1.3.1.3-.4,1.09-.2.55.8.44.3.5.49v1.2l-.2,2.28-.3.4v.89l.4.3-.4.6V27l-.2.6.2.49v3l-.2.82.2.47v1.49l.42.3.32.69h.63l.52.4Zm18.28-5.37.5,1.09L83,33.79v1.59l-.59,1.29-1,1.29-1.39.6-1,.19-.6.7-1.39.1-2.28.3-.9-.3-2.18-.1-1-.39-.89-.21L69,37.66l-.4-1.29-.39-.89-.1-1.29.3-1.1L69,32.7l.6-.5.29.2h.8l.8,1L72,34l.4.79.4.89.79.11.9.79,1.19.2.79.6,1.09-.11.51-1.39.49-.6.1-1.9.2-.5-.6-.6v-.69l-.7-.21L76,30.48l-1.39-.3-2.09-.9-1.19-.8-.9-.7-.69-.5-.6-1.2-.2-1-.2-.9-.4-.5-.09-1.2.2-1.3.79-1.39v-.7l.79-.6v-.6l1-1,.6-.1,1.19-.8.69-.49h3l1.09.39,1.2.1.89.1.3.4.9.69.79.6.4,1.29.5,1.29-.2,1.39-.9.9-.89.4-1.1-.3-1-.8-.79-.79-.3-.8-.9-.79-1.09-.5-.59-.3-.6.3h-.6l-.4.9-.29,1,.29.69.3,1.3.8,1.09,1,.49.9.3,1.09.5,2.18.79.8.4.9,1,1.09.89Zm19.28,4,.1,1-.1,1.19L101.11,38l-1.44,1.14H98.43l-1,.45-1.09.1-1,.3H93.8l-1.59-.3-1.14-.85-.84-.65-.85-.3v-.85l-.12-.95-.53-1.6.35-.75-.35-.6V31.36l-.29-1.7.29-1.15-.59-4.15-.35-.95v-.8l.65-.65-.35-.44-.18-1.64-.12-1.2L87.51,18l-.62-.35-.76-.2L85.7,17l-.09-1.49.53-.29.57-.43.63-.49.57-.54.53-.48V13l1-.71.4-1.1.66-1.25.46-1.15.71-.66.56-.4h.3l.56.86V9l-.35.2V10l.35.56.2.86-.4.71-.15.56.65.3h4.81l.26.3h.39L99,13h1l.35.3.79.22.1.62.35.45-.3,1.22-.15.34-.1.59-.69.1v.54l-1.18.39h-2.9l-.58-.35h-.74l-.83.35-.54.43-.49.83-.2.58h.2V23h-.35v.49l.84.95-.12.94-.37.55-.35.54v2.69l.35.44.49.5-.19,2.14.19,2,.55.59.75.25h.74l.4-.35,1.15.85.44-.5h1l.5-.65,1-.1.75-.84.74.4ZM123.12,17l.4.81-.21,1.51-.19.8-.9,1V22l-.89.7-.7-.3-1-.6-.7-.69-.59-.9-1.1-.59-.6.59-1,.3-.89.4-.89.3-.6,1v6l.33,4.77.66.2L114,34.38l.59.6.7.8.89.49.7,1-.4,1.3-.5.59-2.28-.3-.8.8-2.28-.12-.7-.46-.8-.11-.49.39-1.5.3-1-.2-.79-.3-.6-.69-.49-.9.31-1.29,1-.6.83-.19.94-.4.53-.7.31-.49-.69-.5.11-1.09.58-.7V25.44l.1-2.38-.1-1.1-.55-.89-.66-.6-.23-.59-.55-.4.42-1.39.31-.4.53-.89.73-.7.59-.59.6-.21.79-.39h2.16l.21.82.59.41.59,1.24.59.41.5-.52.79-.61.78-.52,1-.51,1.39-.21,1.28-.51,1.08.5,1.19.91Zm21.54,16.67a2.57,2.57,0,0,1-.73-.1h-.24c-.07.23-.19.36-.35.37a4.68,4.68,0,0,1-.55,0H142l-.05.3a.53.53,0,0,0-.47-.3h-.74l-.23,0a4.2,4.2,0,0,0-.15-.94,3.49,3.49,0,0,1-.15-.89.49.49,0,0,1,.07-.3,1.22,1.22,0,0,1,.23-.2V30.06a2.65,2.65,0,0,1,0-1.09l.24-.35s0-.22-.12-.55a3.67,3.67,0,0,1-.12-.84c0-.1.11-.7.35-1.79a5.32,5.32,0,0,0,.1-1,5.55,5.55,0,0,0-.19-1.1c-.12-.49-.21-.87-.26-1.14V19.38a8,8,0,0,0-.85-1.69,3.42,3.42,0,0,0-1.36-1.19,6.82,6.82,0,0,1-.85-.2c-.19-.07-.71-.3-1.55-.7a3.2,3.2,0,0,0-1.34-.39,2.46,2.46,0,0,0-.53.06l-.82.18a2.3,2.3,0,0,1-.75,0,1.52,1.52,0,0,0-.43.33,1.74,1.74,0,0,1-.52.37l-.91.1a1.15,1.15,0,0,0-.67.27l-.5.52a3.13,3.13,0,0,1-.48.45c-.3.23-.71.55-1.25,1a5.8,5.8,0,0,0-1,1.16L125.85,21a2.94,2.94,0,0,0-.44,1.64,1.92,1.92,0,0,0,.49.94,1,1,0,0,1,.2.6l1.55.15a2.22,2.22,0,0,0,1.23-.37,3.38,3.38,0,0,0,1-1,1.34,1.34,0,0,0,.14-.7V21a1.07,1.07,0,0,1,.2-.69l.4-.3a1.08,1.08,0,0,1,.55-.28c.3-.08.44-.19.44-.32a4.41,4.41,0,0,0,.69-.08,4.09,4.09,0,0,1,.68-.07,4.36,4.36,0,0,1,1.63.4c.4.16.82.31,1.26.44a1.92,1.92,0,0,1,.66,1.05l-.2,1.84.2,3.42a4.7,4.7,0,0,1-.4.47,1.93,1.93,0,0,1-.71.45l-.87.37a4.06,4.06,0,0,1-.9.26c-.89.06-1.79.11-2.69.14a6.17,6.17,0,0,0-1.54.35,2.47,2.47,0,0,1-.42.37,1,1,0,0,1-.42.23h-1.14a5.57,5.57,0,0,0-1.94,2.14,5.82,5.82,0,0,0-.79,2.8,1.87,1.87,0,0,0,.3.92c.19.35.32.59.37.7a9.77,9.77,0,0,1,.27,1.1,2,2,0,0,0,.77,1.3,3.56,3.56,0,0,0,.9.47,3.71,3.71,0,0,0,.64.15,4.49,4.49,0,0,1,.82.25l1.15.45a2.8,2.8,0,0,0,1.54-.45L132.8,38l1.7-.89a2.38,2.38,0,0,0,1.19-1.29,11,11,0,0,1,.84,1.14,2.94,2.94,0,0,0,1,.94l.54.6a1.27,1.27,0,0,1,.82.2c.15.13.36.11.62-.05h.75a2.26,2.26,0,0,1,.74.19,2.28,2.28,0,0,0,.85.21,1.44,1.44,0,0,0,.84-.25l.6-.44a4.3,4.3,0,0,0,.94-1.14c.13-.26.37-.67.7-1.23a1.15,1.15,0,0,1,.4-.39,4.3,4.3,0,0,0,0-.89,1.81,1.81,0,0,1,0-.83A1.26,1.26,0,0,0,144.66,33.69Zm-8.38-1.25a2.24,2.24,0,0,1-.69,1.45,6.71,6.71,0,0,1-1.34.79c-.24.1-.52.23-.85.4a2.46,2.46,0,0,1-1.09.25,1.94,1.94,0,0,1-.45-.25l-.89-.2a2.39,2.39,0,0,1-1-1.19,4.13,4.13,0,0,1-.37-1.69c0-.5.37-1,1.11-1.42a5.07,5.07,0,0,1,1.67-.74,7,7,0,0,0,1.31-.35,4,4,0,0,1,1.17-.27h1.44ZM158,36.67l.4.8v1.09l-.8.4-1,.1-.59-.4-1.39.3-.21.1-.69.09-.5-.19-.39.1h-1.6l-.69-.31-.4.21-.39.49h-.9l-1.09-.2-.5-.59V38l.79-.79,1.1-.5,1.09-.4-.2-6.85.2-.8-.2-.3V24.15l.5-.4V23l-1-1.79.49-.3-.39-1.29v-1l-.1-.79.49-.4-.39-1.59-.4-.59.68-.7.11-1.39-.39-1-.1-.49.3-1.89.39-.4V8.15l-.69-1V5.07l-.8-.4V4.08h-.89l-.5-.5-.4-.5.3-.69.38-.6.84-.59.67-.5L150,.3l1-.3,2,.3.82.3.5.69.19,1.2-.19.69-.2.3.39,2.38.4.6-.59.8.59.3-.59.59.4.3.19,2.08-.4.21-.19,1.19.4.4-.4,1.19V15.4l.59,1.2v.59l-.59,1.2V20l.59,1v.79l-.19.5-.21,1.59.4.5-.4,1,.21.9.19,4.17.2.79-.2.2-.19,1.09.69,1.4.2,1.19.3.4.59.3.9.59Zm13,.15.89.89-.44,1.19-1.19.45-1.35-.15-1.34.15-1.64-.6-1,.6-1,.6h-1.5l-1-.89-.45-.9.14-1.34,1.34-.15,1.2-1.19.3-1.79L164,31.9l-.44-1.34.6-.45v-1l.59-.75-.59-.74L163.71,25l.15-1.79-1.19-.44-1.5-.75L161,20.72l.75-1,.9-.3,1-.3.74-1.34,1.19.15,1.19-.15,1.5-.45.89.45.3,1-.15,1-.59,1.48.44.61.15,1.19-.3,1.49-.15,1.34v4.17l-.14,1.64.59,1-.3,1.05.3.59.45,1.35ZM166.24,7.16l-.89-1V4.77l.59-1.19,1.49-.45,1.49.45.75.45v.59l.89.45.15,1.34-.89.9-.9.74-1.49-.15Zm28.67,26.73a1.22,1.22,0,0,0-.72-.2,2.5,2.5,0,0,1-.72-.1h-.25c-.07.23-.18.36-.35.37a4.68,4.68,0,0,1-.55,0h-.79l0,.3A.54.54,0,0,0,191,34h-.75L190,34a3.69,3.69,0,0,0-.15-.94,3.49,3.49,0,0,1-.15-.89.58.58,0,0,1,.07-.3,1.22,1.22,0,0,1,.23-.2V30.06A2.65,2.65,0,0,1,190,29l.25-.35s0-.22-.13-.55a3.67,3.67,0,0,1-.12-.84c0-.1.12-.7.35-1.79a4.65,4.65,0,0,0,.1-1,5.55,5.55,0,0,0-.19-1.1c-.12-.49-.21-.87-.26-1.14V19.38a8,8,0,0,0-.85-1.69,3.4,3.4,0,0,0-1.35-1.19,6.4,6.4,0,0,1-.85-.2c-.2-.07-.72-.3-1.55-.7a3.24,3.24,0,0,0-1.35-.39,2.53,2.53,0,0,0-.53.06l-.82.18a2.3,2.3,0,0,1-.75,0,1.52,1.52,0,0,0-.43.33,1.74,1.74,0,0,1-.52.37l-.9.1a1.15,1.15,0,0,0-.68.27L179,17a3.13,3.13,0,0,1-.48.45c-.29.23-.71.55-1.25,1a5.8,5.8,0,0,0-1,1.16c-.28.45-.58.9-.87,1.37a2.86,2.86,0,0,0-.45,1.64,1.92,1.92,0,0,0,.49.94,1,1,0,0,1,.2.6l1.55.15a2.28,2.28,0,0,0,1.24-.37,3.48,3.48,0,0,0,.94-1,1.24,1.24,0,0,0,.14-.7V21a1,1,0,0,1,.21-.69l.39-.3a1.08,1.08,0,0,1,.55-.28c.3-.08.44-.19.44-.32a4.41,4.41,0,0,0,.69-.08,4.09,4.09,0,0,1,.68-.07,4.36,4.36,0,0,1,1.63.4c.4.16.83.31,1.26.44a2,2,0,0,1,.67,1.05l-.2,1.84.2,3.42c-.14.17-.27.33-.4.47a2,2,0,0,1-.72.45l-.87.37a3.76,3.76,0,0,1-.9.26c-.89.06-1.78.11-2.68.14a6,6,0,0,0-1.54.35,2.93,2.93,0,0,1-.42.37,1.07,1.07,0,0,1-.43.23h-1.14A5.48,5.48,0,0,0,175,31.21a5.84,5.84,0,0,0-.8,2.8,1.87,1.87,0,0,0,.3.92c.2.35.32.59.37.7a9.77,9.77,0,0,1,.27,1.1,2,2,0,0,0,.77,1.3,3.56,3.56,0,0,0,.9.47,3.71,3.71,0,0,0,.64.15,4.49,4.49,0,0,1,.82.25l1.15.45A2.8,2.8,0,0,0,181,38.9l1.39-.89,1.69-.89a2.38,2.38,0,0,0,1.19-1.29,12.12,12.12,0,0,1,.85,1.14,2.83,2.83,0,0,0,1,.94l.55.6a1.31,1.31,0,0,1,.82.2c.14.13.35.11.61-.05h.75a2.3,2.3,0,0,1,.75.19,2.23,2.23,0,0,0,.84.21,1.44,1.44,0,0,0,.84-.25l.6-.44a4.32,4.32,0,0,0,1-1.14q.19-.39.69-1.23a1.15,1.15,0,0,1,.4-.39,4.3,4.3,0,0,0,0-.89A2,2,0,0,1,194.91,33.89Zm-9.09-1.45a2.25,2.25,0,0,1-.7,1.45,6.16,6.16,0,0,1-1.34.79c-.23.1-.51.23-.84.4a2.54,2.54,0,0,1-1.1.25,2.17,2.17,0,0,1-.45-.25l-.89-.2a2.39,2.39,0,0,1-1-1.19,4.13,4.13,0,0,1-.37-1.69c0-.5.37-1,1.12-1.42a5,5,0,0,1,1.66-.74,7.28,7.28,0,0,0,1.32-.35,3.87,3.87,0,0,1,1.17-.27h1.44Z"/></g></g></svg>