<svg xmlns="http://www.w3.org/2000/svg" viewBox="0 0 787.16 278.09"><defs><style>.cls-1{fill:#7c4821;}</style></defs><g id="圖層_2" data-name="圖層 2"><g id="圖層_2-2" data-name="圖層 2"><g id="au_wave"><g id="map_deco_7"><path class="cls-1" d="M135.64,3.45c-2.44,2-4.87,3.07-7.92,1.09-1.06.66-2,1.31-3,1.91-2,1.18-2.75,1.19-4.49-.2a8.75,8.75,0,0,0-4.06-1.88c-.62.32-1.37.73-2.15,1.12a17.33,17.33,0,0,1-2.38,1.14c-1.84.61-2.92,0-3.43-1.7-.08-.27-.14-.54-.21-.82-1.32-.18-2.12.67-3.14,1-2.1.73-3.18.35-3.91-1.49a7.67,7.67,0,0,1-.26-1.26c-3.15.34-5.07,2.85-8.22,3.3.06-.46,0-.72.1-.77,4.2-2.35,7.23-3.66,9.69-4.21,0,.76,0,1.5,0,2.25,0,1.18,1,1.69,2.37,1.18.73-.28,1.39-.68,2.09-1s1.21-.54,1.84-.77a3.11,3.11,0,0,1,.89,0c-.06.73-.15,1.45-.15,2.18a1.47,1.47,0,0,0,2,1.11A8.17,8.17,0,0,0,112.72,5c1.14-.62,2.27-1.28,3.34-1.9a9.48,9.48,0,0,1,4.63,2c1.52,1.22,2.25,1.22,3.88.2.55-.35,1-.78,1.56-1.13s1.14-.62,1.73-.93a8.8,8.8,0,0,1,1,.33c2.43,1.19,3.19,1.12,5.2-.3.83-.58,1.34-1.58,2.57-1.65,1.12.56.61,1.44.85,2.13a1.72,1.72,0,0,0,2.31,1.17,12.19,12.19,0,0,0,2.68-1.2c.86-.48,1.61-1.08,2.43-1.6a2.82,2.82,0,0,1,.8-.19c1.2.68,2.05,2.11,3.84,2.05,1.44,0,2.87-.35,4.48-.57-3.45,2.49-4.83,2.48-9,0-.48.3-1,.61-1.54,1-.36.24-.66.53-1,.76a6.25,6.25,0,0,1-4.2,1C136.68,5.86,136.38,4.71,135.64,3.45Z"/><path class="cls-1" d="M154.41,25.58a10.66,10.66,0,0,1,1.22.61c2.1,1.44,4.46,1.38,6.86.78,1.63-.41,3.19-1,4.76-1.5.52.61-.09.72-.42.86a32.29,32.29,0,0,1-4.3,1.8c-2.85.79-5.69.86-8.08-1-.91.28-1.69.44-2.39.74a3.57,3.57,0,0,1-4.07-.52c-.39-.34-.74-.73-1.23-1.21-1.07.63-2,1.19-2.91,1.71a30.09,30.09,0,0,1-2.95,1.48,4,4,0,0,1-4.18-.34,15.69,15.69,0,0,0-1.57-.89c-.62.38-1.23.77-1.85,1.14s-1.09.72-1.68,1c-2.49,1.2-4.49.8-6.22-1.21-.26-.31-.49-.63-.75-1-1.44.18-2.14,1.18-3.19,1.71a6.73,6.73,0,0,1-3.33,1.17c0-.39-.08-.66,0-.71,1.7-1,3.4-1.92,5.15-2.82a19,19,0,0,1,2.24-.8c.37.57.61,1,.89,1.37,1.4,2,3.22,2.29,5.42.89.63-.4,1.17-.92,1.8-1.34s1.1-.62,1.76-1c.62.43,1.16.77,1.66,1.15a3.79,3.79,0,0,0,4.14.34c1.3-.62,2.47-1.4,3.7-2.11.64-.36,1.31-.7,1.94-1a7.48,7.48,0,0,1,1,.54c2.36,1.88,2.36,1.88,5.3.66C153.55,25.87,154,25.74,154.41,25.58Z"/><path class="cls-1" d="M142.29,16.38c-1.45,2-3.79,2.69-6.35,2.82-.9,0-1.85-.59-3.1-1a6.92,6.92,0,0,1-7.34-1.82c-1.24.52-2.32,1-3.47,1.43-2.15.72-3.47.17-4.23-1.68-.14-.35-.26-.71-.41-1.06,0-.07-.18-.1-.44-.24l-1.4.6c-.5.22-1,.48-1.52.67-3,1-4.77.7-7.06-1.38-1.56.32-2.5,1.92-4.92,1.83a30.89,30.89,0,0,1,5.84-3.67c.28.39.52.67.7,1a2.86,2.86,0,0,0,3.73,1.63,27.19,27.19,0,0,0,3.48-1.24c.91-.35,1.8-.76,2.93-1.24.12,1,.16,1.73.3,2.47a1.73,1.73,0,0,0,2.15,1.42,7.12,7.12,0,0,0,2.23-.62,21.23,21.23,0,0,0,2.32-1.43,7.49,7.49,0,0,1,1.06.7c2.27,2.11,3.43,2.3,6.54,1,.21,0,.52,0,.62.15a3.56,3.56,0,0,0,4.22,1c1.37-.45,2.78-.83,4.17-1.24Z"/><path class="cls-1" d="M183.85,10.09a6.88,6.88,0,0,1-1.15,1,21.55,21.55,0,0,1-7.41,2.22c-2.51.37-4.54-.29-5.83-2.21-.32-.49-.63-1-1-1.63-.84.24-1.58.42-2.29.66a4.71,4.71,0,0,1-5-.84,3.11,3.11,0,0,0-.49-.39c-.08-.05-.23,0-.49,0-.71.47-1.48,1-2.3,1.53-2.46,1.51-3.5,1.46-6.15-.34-2.41.11-4.42,1.64-7.19,2.09,1.59-1.73,3.87-2.65,7.94-3.37a2,2,0,0,1,.32.11c.72.42.92,1.35,2.07,1.36a4.34,4.34,0,0,0,2.81-.93c1-.78,1.85-1.7,2.93-2.72.68.67,1.11,1.06,1.5,1.47A3.14,3.14,0,0,0,166,9c.93-.36,1.85-.74,2.78-1.09a2.39,2.39,0,0,1,.55,0c.28.5.6,1.1.94,1.69,1.31,2.27,2.91,3,5.8,2.44,2.12-.43,4.16-1.07,6.25-1.61.53-.13,1.09-.21,1.63-.31Z"/><path class="cls-1" d="M96.32,25.72c2.17-.26,4.08.1,5.72-.82s3.11-1.57,4.65-2.33c2.27,2.32,2.27,2.32,5.74,2.6.33.65-.3.85-.79.92A5,5,0,0,1,106.33,24l-4.64,2a6.59,6.59,0,0,1-4.31.61C97.06,26.55,96.85,26.18,96.32,25.72Z"/><path class="cls-1" d="M142.34,16.44c.12-.15.21-.35.37-.42s.33.14.5.22c-.09.05-.17.15-.27.16a4.66,4.66,0,0,1-.65,0Z"/></g><g id="map_deco_7-2" data-name="map_deco_7"><path class="cls-1" d="M36.55,136.66c1.85,1.51,3.69,2.32,6,.82.8.51,1.54,1,2.31,1.45,1.5.9,2.08.9,3.4-.15a6.59,6.59,0,0,1,3.07-1.43c.47.25,1,.56,1.63.86a12.93,12.93,0,0,0,1.8.86c1.4.46,2.21,0,2.6-1.29.06-.2.1-.41.15-.62,1-.14,1.61.51,2.39.77,1.58.55,2.4.26,3-1.13a7.2,7.2,0,0,0,.19-1c2.39.26,3.84,2.16,6.22,2.5,0-.35,0-.54-.07-.59a29.17,29.17,0,0,0-7.34-3.19c0,.58,0,1.15,0,1.71,0,.89-.78,1.28-1.79.9-.55-.21-1-.52-1.58-.77s-.92-.41-1.4-.59a2.35,2.35,0,0,0-.67,0c0,.55.12,1.1.11,1.65a1.11,1.11,0,0,1-1.48.84,6.46,6.46,0,0,1-1.14-.5c-.87-.48-1.72-1-2.53-1.44a7.06,7.06,0,0,0-3.51,1.5c-1.15.92-1.7.92-2.94.14-.41-.26-.76-.59-1.18-.85s-.87-.47-1.31-.7a4.69,4.69,0,0,0-.75.25c-1.84.89-2.41.84-3.94-.23-.63-.44-1-1.2-1.94-1.25-.85.42-.47,1.09-.65,1.62a1.31,1.31,0,0,1-1.75.88,9.76,9.76,0,0,1-2-.91c-.64-.36-1.21-.82-1.83-1.21a2.81,2.81,0,0,0-.61-.15c-.91.52-1.56,1.61-2.91,1.56-1.09,0-2.17-.27-3.39-.44,2.61,1.89,3.65,1.88,6.85,0,.36.23.77.47,1.17.73s.5.4.78.58a4.74,4.74,0,0,0,3.18.74C35.76,138.48,36,137.61,36.55,136.66Z"/><path class="cls-1" d="M22.34,153.42a6.72,6.72,0,0,0-.93.46,6.1,6.1,0,0,1-5.19.59c-1.24-.31-2.42-.75-3.61-1.13-.4.46.07.54.32.65a25.78,25.78,0,0,0,3.26,1.36c2.15.6,4.3.65,6.12-.78a18.56,18.56,0,0,1,1.8.56,2.71,2.71,0,0,0,3.08-.39c.3-.26.57-.55.94-.92.8.48,1.49.9,2.2,1.29a20.34,20.34,0,0,0,2.24,1.12,3.05,3.05,0,0,0,3.16-.25,11.67,11.67,0,0,1,1.19-.68l1.4.87a14.69,14.69,0,0,0,1.27.76,3.55,3.55,0,0,0,4.72-.92c.19-.23.36-.47.56-.74,1.09.13,1.62.89,2.41,1.29a5.2,5.2,0,0,0,2.53.89c0-.3.06-.5,0-.54-1.29-.73-2.58-1.45-3.91-2.14a14.77,14.77,0,0,0-1.69-.6c-.28.43-.47.74-.68,1-1.06,1.49-2.44,1.73-4.1.67-.48-.3-.89-.7-1.36-1s-.84-.47-1.34-.75c-.47.32-.88.58-1.25.86a2.86,2.86,0,0,1-3.14.26c-1-.46-1.87-1.06-2.8-1.59-.49-.28-1-.54-1.47-.79a5.38,5.38,0,0,0-.75.4c-1.79,1.43-1.78,1.43-4,.5C23,153.64,22.67,153.54,22.34,153.42Z"/><path class="cls-1" d="M31.52,146.45a5.93,5.93,0,0,0,4.8,2.13,7.57,7.57,0,0,0,2.35-.77,5.26,5.26,0,0,0,5.56-1.38c.93.39,1.75.79,2.62,1.08,1.63.55,2.63.13,3.21-1.27.11-.27.19-.54.31-.8,0-.05.13-.08.33-.18l1.06.45a11.75,11.75,0,0,0,1.15.5c2.27.79,3.62.54,5.35-1,1.18.25,1.89,1.45,3.72,1.38a23.08,23.08,0,0,0-4.42-2.77c-.21.3-.39.51-.52.74a2.17,2.17,0,0,1-2.83,1.24,21.62,21.62,0,0,1-2.63-.94c-.7-.27-1.37-.58-2.23-.94-.09.74-.12,1.31-.22,1.87a1.32,1.32,0,0,1-1.63,1.08,5.39,5.39,0,0,1-1.69-.48,15.17,15.17,0,0,1-1.75-1.08,6,6,0,0,0-.81.53c-1.72,1.6-2.6,1.74-5,.77-.16,0-.4,0-.47.11a2.7,2.7,0,0,1-3.2.75c-1-.33-2.1-.62-3.16-.93Z"/><path class="cls-1" d="M0,141.69a5.27,5.27,0,0,0,.87.77,16.38,16.38,0,0,0,5.61,1.67,4.15,4.15,0,0,0,4.41-1.67c.25-.37.48-.75.79-1.24.64.19,1.19.32,1.73.5a3.56,3.56,0,0,0,3.8-.63,2.79,2.79,0,0,1,.38-.3c.05,0,.17,0,.37,0,.53.36,1.12.78,1.74,1.16,1.86,1.14,2.65,1.1,4.65-.26,1.83.08,3.35,1.24,5.45,1.58-1.2-1.31-2.93-2-6-2.55a1.69,1.69,0,0,0-.24.08c-.55.32-.7,1-1.57,1a3.41,3.41,0,0,1-2.13-.71c-.76-.59-1.4-1.29-2.22-2.06-.52.51-.84.8-1.14,1.11a2.36,2.36,0,0,1-2.93.66L11.49,140a1.77,1.77,0,0,0-.41.05c-.22.37-.46.82-.72,1.27-1,1.72-2.2,2.29-4.39,1.85-1.6-.32-3.15-.81-4.73-1.22-.41-.1-.83-.16-1.24-.23Z"/><path class="cls-1" d="M66.33,153.52c-1.65-.2-3.09.08-4.34-.62s-2.35-1.18-3.52-1.76c-1.71,1.75-1.71,1.75-4.35,2-.25.49.23.64.6.7a3.82,3.82,0,0,0,4-1.59l3.51,1.53a5,5,0,0,0,3.26.46C65.76,154.15,65.93,153.88,66.33,153.52Z"/><path class="cls-1" d="M31.47,146.5c-.09-.11-.15-.27-.28-.32s-.25.1-.37.16c.06,0,.13.12.2.12a2.8,2.8,0,0,0,.5,0Z"/></g><g id="map_deco_7-3" data-name="map_deco_7"><path class="cls-1" d="M119.73,211.67c-2.45,1.78-4.88,2.76-7.93,1-1,.6-2,1.18-3,1.73-2,1.06-2.74,1.06-4.49-.18a9,9,0,0,0-4.06-1.7c-.61.29-1.37.66-2.14,1a20.25,20.25,0,0,1-2.39,1c-1.84.54-2.92,0-3.42-1.53-.08-.24-.14-.49-.21-.74-1.33-.16-2.13.6-3.15.92-2.09.65-3.18.31-3.91-1.35a6,6,0,0,1-.25-1.13c-3.16.31-5.07,2.57-8.22,3,0-.41,0-.64.1-.69a39.91,39.91,0,0,1,9.68-3.79c0,.68,0,1.36,0,2,0,1.05,1,1.52,2.37,1.06.72-.25,1.38-.61,2.08-.91s1.22-.49,1.85-.7a3.47,3.47,0,0,1,.88,0c0,.66-.15,1.31-.14,2s1,1.25,2,1a7.67,7.67,0,0,0,1.51-.6c1.15-.56,2.27-1.15,3.34-1.71a10.1,10.1,0,0,1,4.64,1.78c1.52,1.1,2.24,1.1,3.87.18.55-.31,1-.7,1.56-1s1.15-.56,1.73-.84a7.56,7.56,0,0,1,1,.3c2.42,1.06,3.18,1,5.2-.27.83-.53,1.33-1.42,2.56-1.49,1.12.5.61,1.3.85,1.92a1.77,1.77,0,0,0,2.31,1.05,12.93,12.93,0,0,0,2.69-1.08c.85-.43,1.6-1,2.42-1.44a4.22,4.22,0,0,1,.8-.17c1.2.62,2.06,1.9,3.85,1.85,1.43,0,2.86-.32,4.47-.52-3.45,2.24-4.82,2.23-9,0-.48.27-1,.56-1.54.87-.36.21-.67.48-1,.68a6.81,6.81,0,0,1-4.2.89C120.77,213.83,120.46,212.8,119.73,211.67Z"/><path class="cls-1" d="M138.49,231.57a9.4,9.4,0,0,1,1.22.55c2.1,1.29,4.47,1.24,6.86.7,1.63-.37,3.19-.9,4.77-1.35.52.55-.1.65-.43.78a33.58,33.58,0,0,1-4.3,1.61c-2.84.71-5.68.77-8.08-.92-.91.25-1.69.4-2.38.66a3.87,3.87,0,0,1-4.07-.46c-.4-.31-.75-.66-1.23-1.09-1.07.56-2,1.07-2.92,1.53a29.12,29.12,0,0,1-3,1.33,4.41,4.41,0,0,1-4.17-.3,17.29,17.29,0,0,0-1.57-.8l-1.86,1c-.55.3-1.08.64-1.68.9-2.48,1.08-4.48.73-6.22-1.09-.26-.27-.48-.57-.75-.88-1.43.16-2.13,1-3.18,1.53a7.31,7.31,0,0,1-3.33,1.06c0-.36-.08-.6,0-.65,1.7-.86,3.4-1.72,5.15-2.53a19.39,19.39,0,0,1,2.25-.72c.36.51.61.88.89,1.24,1.39,1.77,3.21,2.05,5.41.8.64-.37,1.17-.83,1.8-1.21s1.1-.56,1.77-.89c.62.38,1.16.69,1.65,1a4.12,4.12,0,0,0,4.15.3c1.29-.55,2.46-1.26,3.7-1.89l1.93-.94a8.54,8.54,0,0,1,1,.49c2.36,1.69,2.35,1.69,5.3.59C137.63,231.83,138.06,231.71,138.49,231.57Z"/><path class="cls-1" d="M126.37,223.3c-1.45,1.77-3.78,2.42-6.35,2.53a11.08,11.08,0,0,1-3.1-.92,7.45,7.45,0,0,1-7.33-1.64c-1.24.46-2.32.94-3.47,1.28-2.15.65-3.47.15-4.24-1.51-.14-.31-.25-.64-.41-.95,0-.06-.17-.09-.43-.21-.41.15-.91.34-1.4.54s-1,.43-1.53.59c-3,.94-4.77.63-7-1.23-1.56.29-2.5,1.72-4.93,1.64a31.46,31.46,0,0,1,5.84-3.3,9.86,9.86,0,0,1,.7.88c.92,1.44,1.86,1.88,3.74,1.47a31.16,31.16,0,0,0,3.47-1.11c.92-.32,1.8-.69,2.94-1.12.11.88.16,1.56.29,2.22.2.92.92,1.39,2.15,1.28a7.77,7.77,0,0,0,2.23-.56,21.21,21.21,0,0,0,2.32-1.29,7.81,7.81,0,0,1,1.06.63c2.27,1.9,3.44,2.07,6.55.91.21,0,.51,0,.61.14a3.83,3.83,0,0,0,4.22.89c1.38-.4,2.78-.74,4.18-1.11Z"/><path class="cls-1" d="M167.93,217.64a6.33,6.33,0,0,1-1.14.91,23.32,23.32,0,0,1-7.42,2c-2.5.34-4.53-.26-5.82-2-.33-.44-.63-.89-1-1.46-.84.21-1.58.38-2.29.59a5.08,5.08,0,0,1-5-.75,2.81,2.81,0,0,0-.5-.35,1.68,1.68,0,0,0-.49,0c-.7.42-1.48.92-2.3,1.38-2.45,1.35-3.5,1.31-6.14-.31-2.42.1-4.43,1.47-7.19,1.87,1.58-1.55,3.87-2.37,7.93-3a2.39,2.39,0,0,1,.32.11c.72.37.92,1.21,2.07,1.22a4.76,4.76,0,0,0,2.82-.84c1-.7,1.84-1.52,2.93-2.44.68.6,1.1.95,1.5,1.32a3.35,3.35,0,0,0,3.87.78l2.79-1a2.35,2.35,0,0,1,.54,0c.28.45.61,1,.95,1.51,1.3,2,2.91,2.72,5.8,2.2,2.11-.38,4.16-1,6.24-1.44.54-.13,1.09-.19,1.64-.29Z"/><path class="cls-1" d="M80.4,231.69c2.17-.23,4.08.09,5.72-.73s3.12-1.41,4.65-2.09C93,231,93,231,96.52,231.2c.33.59-.3.77-.8.83-2.23.28-4.06-.22-5.31-1.88L85.77,232a7.17,7.17,0,0,1-4.3.54C81.15,232.44,80.93,232.11,80.4,231.69Z"/><path class="cls-1" d="M126.43,223.35c.12-.13.2-.32.37-.38s.32.13.49.2a.78.78,0,0,1-.27.14,4.73,4.73,0,0,1-.65,0Z"/></g><g id="map_deco_7-4" data-name="map_deco_7"><path class="cls-1" d="M222.23,260c1.61,1.32,3.22,2,5.24.72.69.44,1.34.87,2,1.27,1.31.78,1.81.78,3-.13a5.71,5.71,0,0,1,2.68-1.25l1.42.74a11.42,11.42,0,0,0,1.58.75c1.21.41,1.93,0,2.26-1.12.05-.17.09-.35.14-.54.87-.12,1.4.44,2.08.68,1.38.47,2.09.22,2.58-1a6,6,0,0,0,.17-.83c2.08.22,3.34,1.88,5.42,2.18,0-.31,0-.48-.06-.51a24.91,24.91,0,0,0-6.4-2.78c0,.5,0,1,0,1.48,0,.78-.69,1.12-1.57.78-.48-.18-.91-.45-1.37-.66s-.81-.36-1.22-.52a2.11,2.11,0,0,0-.58,0c0,.48.09,1,.09,1.44a1,1,0,0,1-1.29.73,5.61,5.61,0,0,1-1-.44c-.76-.41-1.5-.85-2.21-1.25a6.26,6.26,0,0,0-3.06,1.3,1.76,1.76,0,0,1-2.56.13c-.36-.23-.66-.52-1-.74s-.75-.41-1.14-.62a5.66,5.66,0,0,0-.66.22c-1.6.78-2.1.74-3.43-.2-.55-.38-.88-1-1.69-1.09-.74.37-.41.95-.57,1.41a1.13,1.13,0,0,1-1.52.77,7.83,7.83,0,0,1-1.77-.79c-.57-.32-1.07-.71-1.61-1.06a1.9,1.9,0,0,0-.53-.12c-.79.45-1.35,1.39-2.53,1.35a28.26,28.26,0,0,1-3-.38c2.28,1.65,3.19,1.64,6,0,.32.19.68.4,1,.63s.44.35.68.5a4.08,4.08,0,0,0,2.78.65C221.54,261.55,221.74,260.79,222.23,260Z"/><path class="cls-1" d="M209.83,274.57c-.29.15-.57.25-.8.4a5.34,5.34,0,0,1-4.53.52c-1.08-.27-2.11-.66-3.15-1-.34.4.06.47.28.57a21.26,21.26,0,0,0,2.84,1.18c1.88.52,3.76.57,5.34-.67.6.18,1.11.29,1.57.48a2.34,2.34,0,0,0,2.69-.34c.26-.23.49-.48.81-.8.71.42,1.31.79,1.93,1.13a18.69,18.69,0,0,0,1.95,1,2.67,2.67,0,0,0,2.76-.23c.28-.2.62-.35,1-.59l1.23.76a11.19,11.19,0,0,0,1.11.66,3.07,3.07,0,0,0,4.11-.8c.17-.2.32-.41.49-.64.95.11,1.41.77,2.1,1.12a4.48,4.48,0,0,0,2.2.78c0-.26.06-.44,0-.48-1.13-.63-2.25-1.26-3.41-1.86a14.51,14.51,0,0,0-1.48-.53c-.24.38-.4.65-.59.91-.92,1.31-2.12,1.51-3.57.59-.42-.27-.78-.61-1.19-.89s-.73-.41-1.17-.65c-.41.28-.77.51-1.09.76a2.51,2.51,0,0,1-2.74.22c-.85-.41-1.63-.93-2.44-1.39l-1.28-.69a4.16,4.16,0,0,0-.66.36c-1.56,1.24-1.55,1.24-3.5.43C210.4,274.76,210.12,274.67,209.83,274.57Z"/><path class="cls-1" d="M217.84,268.5a5.22,5.22,0,0,0,4.19,1.85,6.63,6.63,0,0,0,2.05-.67,4.59,4.59,0,0,0,4.85-1.2c.82.34,1.53.68,2.29.94,1.42.47,2.29.11,2.79-1.11.1-.23.17-.47.27-.7,0-.05.12-.07.29-.16l.93.4c.33.15.66.32,1,.44a4,4,0,0,0,4.65-.91c1,.21,1.66,1.26,3.26,1.2a20.6,20.6,0,0,0-3.86-2.41c-.18.25-.34.44-.46.64a1.89,1.89,0,0,1-2.47,1.08,18.34,18.34,0,0,1-2.29-.82c-.61-.23-1.19-.5-1.94-.82-.08.65-.11,1.14-.2,1.63a1.15,1.15,0,0,1-1.42.94,5,5,0,0,1-1.47-.41,14.76,14.76,0,0,1-1.53-.94,4.46,4.46,0,0,0-.7.45c-1.5,1.4-2.27,1.52-4.32.68-.14,0-.35,0-.41.09a2.36,2.36,0,0,1-2.79.66c-.91-.29-1.84-.55-2.76-.82Z"/><path class="cls-1" d="M190.39,264.34a4.4,4.4,0,0,0,.76.67,14.17,14.17,0,0,0,4.89,1.46,3.62,3.62,0,0,0,3.85-1.46c.22-.32.42-.65.68-1.08.56.16,1.05.28,1.52.44a3.1,3.1,0,0,0,3.31-.55,2.1,2.1,0,0,1,.33-.26c.05,0,.14,0,.32,0,.47.32,1,.68,1.52,1,1.62,1,2.31,1,4.06-.23,1.59.07,2.92,1.08,4.75,1.38-1-1.14-2.56-1.75-5.24-2.23a1.31,1.31,0,0,0-.21.08c-.48.27-.61.89-1.37.9a2.88,2.88,0,0,1-1.86-.62c-.66-.51-1.22-1.12-1.94-1.79-.45.44-.73.7-1,1a2.06,2.06,0,0,1-2.56.57c-.61-.24-1.22-.49-1.84-.72a1.24,1.24,0,0,0-.36,0l-.62,1.11c-.86,1.5-1.92,2-3.83,1.61-1.4-.28-2.75-.71-4.13-1.06-.35-.09-.72-.14-1.08-.21Z"/><path class="cls-1" d="M248.2,274.66c-1.43-.17-2.69.07-3.78-.54s-2-1-3.07-1.54c-1.49,1.53-1.49,1.53-3.79,1.72-.22.43.2.56.52.61a3.31,3.31,0,0,0,3.51-1.38l3.07,1.33a4.28,4.28,0,0,0,2.84.4C247.71,275.21,247.85,275,248.2,274.66Z"/><path class="cls-1" d="M217.8,268.53c-.07-.09-.13-.23-.24-.27s-.22.09-.33.14a.58.58,0,0,0,.18.11c.14,0,.29,0,.43,0Z"/></g><g id="map_deco_7-5" data-name="map_deco_7"><path class="cls-1" d="M495.1,149.13c-3.1,2-6.19,3.07-10.05,1.09-1.34.66-2.58,1.31-3.87,1.91-2.51,1.18-3.48,1.19-5.69-.2a12.6,12.6,0,0,0-5.15-1.88c-.78.32-1.74.73-2.72,1.12a25.53,25.53,0,0,1-3,1.14c-2.33.61-3.7,0-4.34-1.7-.1-.27-.18-.54-.27-.82-1.68-.18-2.69.67-4,1-2.65.73-4,.35-4.95-1.49a6.33,6.33,0,0,1-.33-1.26c-4,.34-6.42,2.85-10.42,3.3.07-.46,0-.71.13-.77a55.63,55.63,0,0,1,12.28-4.21c0,.76,0,1.51,0,2.25,0,1.18,1.31,1.69,3,1.18.92-.28,1.75-.68,2.65-1s1.54-.54,2.33-.77a4.92,4.92,0,0,1,1.12,0c-.06.73-.19,1.45-.18,2.18s1.3,1.38,2.48,1.11a12.26,12.26,0,0,0,1.91-.66c1.46-.63,2.88-1.29,4.25-1.91a13.9,13.9,0,0,1,5.87,2c1.93,1.22,2.85,1.22,4.91.2.7-.34,1.29-.78,2-1.13s1.45-.62,2.19-.93c.48.13.9.19,1.26.33,3.07,1.19,4,1.12,6.59-.3,1.06-.58,1.69-1.58,3.26-1.65,1.41.56.77,1.44,1.08,2.14.43,1,1.41,1.48,2.92,1.16a17.19,17.19,0,0,0,3.41-1.2c1.08-.48,2-1.08,3.07-1.6a4.52,4.52,0,0,1,1-.19c1.52.68,2.6,2.12,4.87,2,1.83,0,3.63-.35,5.68-.57-4.37,2.49-6.12,2.48-11.47,0-.61.3-1.3.62-2,1-.45.24-.84.53-1.31.76a9.63,9.63,0,0,1-5.33,1C496.42,151.54,496,150.39,495.1,149.13Z"/><path class="cls-1" d="M518.9,171.26a14.76,14.76,0,0,1,1.55.61c2.66,1.44,5.66,1.38,8.7.78,2.06-.41,4-1,6-1.5.67.61-.11.72-.54.87a48.26,48.26,0,0,1-5.45,1.79c-3.6.79-7.21.86-10.24-1-1.15.28-2.14.44-3,.74a5.49,5.49,0,0,1-5.16-.52c-.5-.34-.94-.73-1.56-1.21-1.35.63-2.5,1.2-3.7,1.71s-2.43,1.06-3.74,1.48a6.27,6.27,0,0,1-5.29-.34c-.54-.31-1.2-.54-2-.89l-2.35,1.14c-.71.34-1.38.72-2.13,1-3.16,1.2-5.69.81-7.89-1.21-.33-.31-.62-.63-1-1-1.82.17-2.7,1.17-4,1.7a10.12,10.12,0,0,1-4.23,1.17c0-.39-.1-.66,0-.71,2.16-1,4.32-1.92,6.53-2.82a28.58,28.58,0,0,1,2.85-.8c.46.57.78,1,1.13,1.38,1.77,2,4.08,2.28,6.87.88.8-.4,1.48-.92,2.28-1.34s1.4-.62,2.24-1c.79.42,1.47.76,2.1,1.14a5.88,5.88,0,0,0,5.25.34c1.64-.62,3.13-1.4,4.69-2.1.82-.37,1.66-.71,2.46-1a10,10,0,0,1,1.26.54c3,1.88,3,1.88,6.72.66C517.81,171.55,518.35,171.42,518.9,171.26Z"/><path class="cls-1" d="M503.52,162.06c-1.83,2-4.79,2.69-8,2.82-1.15,0-2.35-.59-3.93-1a10.46,10.46,0,0,1-9.31-1.82c-1.57.52-2.94,1.05-4.4,1.43-2.73.72-4.4.17-5.37-1.68-.18-.35-.32-.71-.52-1.06,0-.07-.22-.1-.55-.24l-1.78.6c-.64.23-1.26.48-1.93.67-3.8,1-6.05.7-8.95-1.38-2,.32-3.17,1.92-6.24,1.83a41.77,41.77,0,0,1,7.4-3.67,11.64,11.64,0,0,1,.89,1c1.16,1.6,2.35,2.09,4.73,1.63a39.85,39.85,0,0,0,4.41-1.24c1.16-.35,2.29-.76,3.73-1.24.14,1,.2,1.74.37,2.47.24,1,1.17,1.55,2.73,1.42a10.89,10.89,0,0,0,2.83-.62,29,29,0,0,0,2.93-1.43,9.36,9.36,0,0,1,1.35.7c2.88,2.11,4.36,2.3,8.3,1,.26,0,.66,0,.78.15,1.38,1.3,3.16,1.56,5.35,1,1.75-.45,3.53-.83,5.29-1.24Z"/><path class="cls-1" d="M556.23,155.77a8.38,8.38,0,0,1-1.45,1,33.4,33.4,0,0,1-9.4,2.21c-3.18.37-5.76-.29-7.39-2.21-.42-.49-.8-1-1.31-1.63-1.07.24-2,.42-2.91.66a7.22,7.22,0,0,1-6.36-.84,3.54,3.54,0,0,0-.63-.39,2.17,2.17,0,0,0-.62,0c-.89.47-1.87,1-2.91,1.53-3.12,1.51-4.44,1.46-7.8-.34-3.06.11-5.61,1.64-9.11,2.09,2-1.73,4.9-2.65,10.06-3.37.13,0,.28.06.4.11.91.42,1.17,1.35,2.63,1.36A6.53,6.53,0,0,0,523,155c1.27-.78,2.34-1.7,3.71-2.72.87.67,1.41,1.06,1.91,1.47a4.68,4.68,0,0,0,4.91.87c1.18-.36,2.35-.74,3.53-1.09a3.74,3.74,0,0,1,.69.05c.36.51.77,1.1,1.2,1.69,1.66,2.27,3.69,3,7.36,2.44,2.68-.42,5.28-1.07,7.92-1.61.67-.13,1.38-.21,2.07-.31Z"/><path class="cls-1" d="M445.23,171.4c2.75-.26,5.17.1,7.25-.82,1.92-.84,3.95-1.56,5.9-2.33,2.88,2.32,2.88,2.32,7.29,2.6.41.65-.38.85-1,.92-2.83.32-5.16-.24-6.74-2.09l-5.88,2a10.35,10.35,0,0,1-5.46.61C446.17,172.23,445.9,171.86,445.23,171.4Z"/><path class="cls-1" d="M503.59,162.12c.16-.15.27-.35.48-.42s.41.14.62.22a1.17,1.17,0,0,1-.34.16,7.73,7.73,0,0,1-.83,0Z"/></g><g id="map_deco_7-6" data-name="map_deco_7"><path class="cls-1" d="M677.2,31.77c-2.23,1.44-4.46,2.23-7.26.79-1,.48-1.86.95-2.79,1.39-1.81.86-2.51.86-4.11-.15a9.1,9.1,0,0,0-3.71-1.37c-.57.24-1.26.54-2,.82a19.61,19.61,0,0,1-2.18.83c-1.69.44-2.68,0-3.14-1.24-.07-.19-.13-.39-.19-.6-1.22-.12-2,.49-2.89.75-1.91.52-2.9.25-3.57-1.09a4.93,4.93,0,0,1-.24-.91c-2.89.25-4.64,2.07-7.52,2.4,0-.34,0-.52.09-.57a40.33,40.33,0,0,1,8.87-3.05c0,.55,0,1.09,0,1.63,0,.86.95,1.23,2.17.86.67-.2,1.27-.49,1.91-.73s1.11-.4,1.69-.57a4.11,4.11,0,0,1,.81,0,14,14,0,0,0-.13,1.58c0,.59.93,1,1.79.81a9.75,9.75,0,0,0,1.38-.48c1-.46,2.08-.94,3.06-1.38A9.84,9.84,0,0,1,663.51,33a2.88,2.88,0,0,0,3.55.14c.51-.24.93-.56,1.43-.81s1-.45,1.59-.68a9,9,0,0,1,.91.24c2.22.86,2.91.81,4.76-.22.76-.42,1.22-1.14,2.35-1.2,1,.41.56,1,.78,1.55a1.67,1.67,0,0,0,2.11.85,13,13,0,0,0,2.46-.87c.78-.35,1.47-.79,2.22-1.17a4.11,4.11,0,0,1,.73-.13c1.1.5,1.88,1.53,3.52,1.49,1.32,0,2.63-.26,4.1-.42-3.16,1.81-4.42,1.8-8.28,0-.44.22-.94.45-1.41.7s-.61.39-1,.55a7,7,0,0,1-3.85.72C678.16,33.52,677.88,32.68,677.2,31.77Z"/><path class="cls-1" d="M694.39,47.84a10,10,0,0,1,1.12.45,9.12,9.12,0,0,0,6.28.56c1.49-.3,2.92-.72,4.36-1.09.48.45-.08.52-.39.63a32.45,32.45,0,0,1-3.94,1.3c-2.6.58-5.2.63-7.4-.74-.83.2-1.54.32-2.18.54a4,4,0,0,1-3.73-.38c-.36-.25-.68-.53-1.12-.88-1,.46-1.81.87-2.67,1.24s-1.76.77-2.7,1.07a4.54,4.54,0,0,1-3.83-.24c-.38-.23-.86-.39-1.43-.65l-1.7.83c-.51.25-1,.52-1.54.73a5,5,0,0,1-5.7-.88c-.24-.22-.44-.46-.69-.71-1.31.13-2,.85-2.91,1.24a7.38,7.38,0,0,1-3.05.85c0-.29-.08-.48,0-.52,1.56-.7,3.12-1.39,4.72-2a20.46,20.46,0,0,1,2.05-.58c.34.41.56.71.82,1,1.28,1.43,3,1.66,5,.65.58-.3,1.07-.67,1.64-1s1-.45,1.62-.72c.57.31,1.07.56,1.52.83a4.21,4.21,0,0,0,3.8.25c1.18-.45,2.25-1,3.38-1.53l1.77-.76a7.46,7.46,0,0,1,.92.4c2.16,1.36,2.15,1.36,4.85.47C693.6,48.05,694,48,694.39,47.84Z"/><path class="cls-1" d="M683.29,41.16c-1.33,1.44-3.47,2-5.81,2a10.57,10.57,0,0,1-2.84-.74,7.53,7.53,0,0,1-6.72-1.32c-1.14.37-2.13.76-3.18,1-2,.52-3.18.12-3.87-1.22-.14-.26-.24-.52-.38-.77,0,0-.16-.08-.4-.18l-1.28.44c-.47.16-.92.35-1.4.48-2.74.75-4.37.51-6.46-1-1.43.24-2.29,1.4-4.51,1.33a30,30,0,0,1,5.35-2.66,7.42,7.42,0,0,1,.64.71c.83,1.16,1.7,1.51,3.42,1.18a30.5,30.5,0,0,0,3.18-.9c.84-.25,1.65-.55,2.69-.9.1.72.15,1.26.27,1.79.18.75.84,1.13,2,1a8,8,0,0,0,2-.46,20.41,20.41,0,0,0,2.12-1,6.68,6.68,0,0,1,1,.5c2.08,1.54,3.15,1.67,6,.74.19,0,.47,0,.56.11a3.86,3.86,0,0,0,3.87.72c1.26-.32,2.54-.6,3.82-.9Z"/><path class="cls-1" d="M721.35,36.59a6.59,6.59,0,0,1-1.05.74,23.59,23.59,0,0,1-6.79,1.6c-2.3.28-4.15-.2-5.33-1.6-.3-.36-.58-.72-.95-1.19-.77.18-1.45.31-2.1.49a5.21,5.21,0,0,1-4.59-.61,2.39,2.39,0,0,0-.46-.29,2.05,2.05,0,0,0-.45,0c-.64.34-1.35.74-2.1,1.11-2.25,1.1-3.21,1.06-5.63-.25-2.21.08-4,1.19-6.58,1.52,1.45-1.26,3.54-1.92,7.26-2.45a2.63,2.63,0,0,1,.3.08c.65.31.84,1,1.89,1a4.74,4.74,0,0,0,2.58-.68c.92-.56,1.69-1.23,2.68-2,.63.48,1,.77,1.38,1.07a3.37,3.37,0,0,0,3.55.62l2.55-.79a3.25,3.25,0,0,1,.49,0l.87,1.23c1.2,1.65,2.67,2.19,5.31,1.77,1.94-.31,3.81-.78,5.72-1.17.49-.09,1-.15,1.5-.22Z"/><path class="cls-1" d="M641.19,47.94c2-.19,3.74.07,5.24-.59s2.85-1.14,4.26-1.69c2.07,1.68,2.07,1.68,5.26,1.89.3.47-.27.61-.73.66-2,.23-3.72-.17-4.86-1.52l-4.25,1.47a7.38,7.38,0,0,1-3.94.44C641.87,48.55,641.67,48.28,641.19,47.94Z"/><path class="cls-1" d="M683.34,41.2c.11-.1.19-.25.34-.3s.3.1.45.16c-.08,0-.16.11-.24.11a4,4,0,0,1-.6,0Z"/></g><g id="map_deco_7-7" data-name="map_deco_7"><path class="cls-1" d="M622.18,213.48c-2.45,2-4.88,3.07-7.93,1.08-1,.67-2,1.32-3,1.92-2,1.18-2.74,1.19-4.49-.2a8.66,8.66,0,0,0-4.06-1.88c-.61.32-1.37.73-2.14,1.12a18,18,0,0,1-2.39,1.14c-1.84.61-2.92,0-3.42-1.7-.08-.27-.14-.54-.21-.82-1.33-.18-2.13.67-3.15,1-2.09.72-3.18.34-3.91-1.49a7.77,7.77,0,0,1-.25-1.26c-3.16.34-5.07,2.85-8.22,3.3,0-.46,0-.72.1-.77,4.2-2.35,7.22-3.66,9.68-4.21,0,.76,0,1.5,0,2.25,0,1.18,1,1.69,2.37,1.18.72-.28,1.38-.68,2.08-1s1.22-.54,1.85-.78a3.65,3.65,0,0,1,.88,0c0,.72-.15,1.45-.14,2.18a1.46,1.46,0,0,0,2,1.11,7.88,7.88,0,0,0,1.51-.67c1.15-.62,2.27-1.28,3.34-1.9a9.56,9.56,0,0,1,4.64,2c1.52,1.22,2.24,1.21,3.87.2.55-.35,1-.79,1.56-1.13s1.15-.62,1.73-.93a7.82,7.82,0,0,1,1,.33c2.42,1.19,3.18,1.11,5.2-.3.83-.58,1.33-1.58,2.56-1.66,1.12.56.61,1.45.85,2.14a1.73,1.73,0,0,0,2.31,1.17,12.27,12.27,0,0,0,2.69-1.2c.85-.48,1.6-1.08,2.42-1.6a2.92,2.92,0,0,1,.8-.19c1.2.68,2.06,2.11,3.85,2.05,1.43-.05,2.86-.36,4.47-.57-3.45,2.49-4.82,2.48-9,0-.48.29-1,.61-1.54,1s-.67.53-1,.76a6.24,6.24,0,0,1-4.2,1C623.22,215.89,622.91,214.74,622.18,213.48Z"/><path class="cls-1" d="M640.94,235.61a9.24,9.24,0,0,1,1.22.61c2.1,1.44,4.47,1.38,6.86.78,1.63-.41,3.19-1,4.77-1.5.52.61-.1.72-.43.86a31.75,31.75,0,0,1-4.3,1.8c-2.84.79-5.68.86-8.08-1a24.45,24.45,0,0,0-2.38.74,3.57,3.57,0,0,1-4.07-.52c-.4-.34-.75-.73-1.23-1.21-1.07.63-2,1.19-2.92,1.71a30.09,30.09,0,0,1-3,1.48,4,4,0,0,1-4.17-.34,16,16,0,0,0-1.57-.89l-1.86,1.14a16.53,16.53,0,0,1-1.68,1c-2.48,1.21-4.48.81-6.22-1.21-.26-.3-.48-.62-.75-1-1.43.18-2.13,1.18-3.18,1.71a6.86,6.86,0,0,1-3.33,1.17c0-.39-.08-.66,0-.71,1.7-1,3.4-1.92,5.15-2.82a18.59,18.59,0,0,1,2.25-.8c.36.57.61,1,.89,1.37,1.39,2,3.21,2.29,5.41.89.64-.4,1.17-.92,1.8-1.34s1.1-.62,1.77-1c.62.43,1.16.77,1.65,1.15a3.8,3.8,0,0,0,4.15.34c1.29-.62,2.46-1.41,3.7-2.11.64-.36,1.3-.7,1.93-1a7.71,7.71,0,0,1,1,.54c2.36,1.88,2.35,1.88,5.3.66C640.08,235.9,640.51,235.77,640.94,235.61Z"/><path class="cls-1" d="M628.82,226.41c-1.45,2-3.78,2.69-6.35,2.81-.9.05-1.85-.58-3.1-1a6.9,6.9,0,0,1-7.33-1.82c-1.24.52-2.32,1-3.47,1.43-2.15.72-3.47.16-4.24-1.68-.14-.35-.25-.71-.41-1.06,0-.07-.17-.1-.43-.24l-1.4.6c-.51.22-1,.48-1.53.67-3,1-4.77.7-7-1.38-1.56.32-2.5,1.92-4.93,1.82a31.35,31.35,0,0,1,5.84-3.66,11.18,11.18,0,0,1,.7,1c.92,1.6,1.86,2.08,3.73,1.63a26.15,26.15,0,0,0,3.48-1.24c.92-.35,1.8-.76,2.94-1.24.11,1,.16,1.73.29,2.47a1.73,1.73,0,0,0,2.15,1.42,7,7,0,0,0,2.23-.62,21.85,21.85,0,0,0,2.32-1.43,7,7,0,0,1,1.06.7c2.27,2.11,3.44,2.3,6.54,1,.21.05.52,0,.62.15a3.55,3.55,0,0,0,4.22,1c1.38-.44,2.78-.82,4.18-1.23Z"/><path class="cls-1" d="M670.38,220.12a6.44,6.44,0,0,1-1.14,1,21.67,21.67,0,0,1-7.42,2.22c-2.5.37-4.53-.29-5.82-2.21-.33-.49-.63-1-1-1.63-.84.24-1.58.42-2.29.66a4.69,4.69,0,0,1-5-.84,3.73,3.73,0,0,0-.5-.39c-.08-.05-.22,0-.49,0-.7.47-1.48,1-2.3,1.53-2.45,1.51-3.5,1.46-6.14-.34-2.42.11-4.43,1.64-7.19,2.09,1.58-1.73,3.87-2.65,7.93-3.37a1.51,1.51,0,0,1,.32.11c.72.42.92,1.35,2.07,1.36a4.37,4.37,0,0,0,2.82-.93c1-.78,1.84-1.7,2.93-2.72.68.67,1.1,1.06,1.5,1.47a3.11,3.11,0,0,0,3.87.86l2.79-1.08c.08,0,.21,0,.54.05.28.5.61,1.1,1,1.69,1.3,2.27,2.91,3,5.8,2.44,2.11-.43,4.16-1.07,6.24-1.61.54-.13,1.09-.21,1.64-.31Z"/><path class="cls-1" d="M582.85,235.75c2.17-.26,4.08.1,5.72-.82s3.12-1.57,4.65-2.33c2.27,2.32,2.27,2.32,5.75,2.6.33.65-.3.85-.8.92a5,5,0,0,1-5.31-2.09l-4.64,2a6.57,6.57,0,0,1-4.3.61C583.6,236.58,583.38,236.21,582.85,235.75Z"/><path class="cls-1" d="M628.88,226.47c.12-.15.2-.35.37-.42s.32.14.49.22c-.09,0-.17.15-.27.16a4.75,4.75,0,0,1-.65,0Z"/></g><g id="map_deco_7-8" data-name="map_deco_7"><path class="cls-1" d="M743.94,123.79c2.44,2,4.88,3.07,7.92,1.08,1.06.67,2,1.32,3,1.92,2,1.18,2.75,1.19,4.49-.2a8.75,8.75,0,0,1,4.06-1.88c.62.32,1.37.73,2.15,1.12A17.33,17.33,0,0,0,768,127c1.85.61,2.92,0,3.43-1.7.08-.27.14-.54.21-.82,1.32-.18,2.12.67,3.15,1,2.09.73,3.17.35,3.9-1.49a7.67,7.67,0,0,0,.26-1.26c3.15.34,5.07,2.85,8.22,3.3,0-.46,0-.72-.1-.77-4.2-2.35-7.23-3.66-9.69-4.21,0,.76,0,1.5,0,2.25,0,1.18-1,1.69-2.37,1.18-.73-.28-1.39-.68-2.09-1s-1.21-.54-1.84-.77a3,3,0,0,0-.88,0c0,.72.14,1.45.14,2.18a1.47,1.47,0,0,1-2,1.11,8.17,8.17,0,0,1-1.51-.67c-1.14-.62-2.26-1.28-3.34-1.9a9.53,9.53,0,0,0-4.63,2c-1.52,1.22-2.25,1.22-3.88.2-.55-.35-1-.79-1.56-1.13s-1.14-.62-1.73-.93a7.15,7.15,0,0,0-1,.33c-2.43,1.19-3.19,1.11-5.2-.3-.83-.58-1.34-1.58-2.57-1.65-1.11.55-.61,1.44-.85,2.13a1.72,1.72,0,0,1-2.31,1.17,12.19,12.19,0,0,1-2.68-1.2c-.86-.48-1.61-1.08-2.43-1.6a2.82,2.82,0,0,0-.8-.19c-1.2.68-2,2.11-3.84,2-1.44,0-2.86-.35-4.48-.57,3.45,2.49,4.83,2.48,9,0,.48.29,1,.61,1.54,1,.36.24.66.53,1,.76a6.27,6.27,0,0,0,4.21,1C742.9,126.2,743.2,125.05,743.94,123.79Z"/><path class="cls-1" d="M725.17,145.92a10.66,10.66,0,0,0-1.22.61c-2.1,1.44-4.46,1.38-6.86.78-1.63-.41-3.19-1-4.76-1.5-.52.61.09.72.42.86a32.29,32.29,0,0,0,4.3,1.8c2.85.79,5.69.86,8.08-1,.91.28,1.69.44,2.39.74a3.57,3.57,0,0,0,4.07-.52c.39-.34.74-.73,1.23-1.21,1.07.63,2,1.19,2.91,1.71a30.09,30.09,0,0,0,2.95,1.48,4,4,0,0,0,4.18-.34,15.69,15.69,0,0,1,1.57-.89l1.85,1.14a19.06,19.06,0,0,0,1.68,1c2.49,1.21,4.49.81,6.22-1.21.26-.3.49-.62.76-1,1.43.18,2.13,1.18,3.18,1.71a6.83,6.83,0,0,0,3.33,1.17c0-.39.08-.66,0-.71-1.71-1-3.41-1.92-5.16-2.82a19,19,0,0,0-2.24-.8c-.37.57-.61,1-.89,1.37-1.4,2-3.22,2.29-5.42.89-.63-.4-1.17-.92-1.79-1.34s-1.11-.62-1.77-1c-.62.43-1.16.77-1.66,1.15a3.79,3.79,0,0,1-4.14.34c-1.3-.62-2.47-1.41-3.7-2.11-.64-.36-1.31-.7-1.94-1a7.48,7.48,0,0,0-1,.54c-2.36,1.88-2.36,1.88-5.3.66C726,146.21,725.61,146.08,725.17,145.92Z"/><path class="cls-1" d="M737.29,136.72c1.45,2,3.79,2.69,6.35,2.81.9.05,1.85-.58,3.1-1a6.92,6.92,0,0,0,7.34-1.82c1.24.52,2.32,1.05,3.47,1.43,2.15.72,3.47.17,4.23-1.68.15-.35.26-.71.41-1.06,0-.07.18-.1.44-.24l1.4.6c.5.22,1,.48,1.52.67,3,1,4.77.7,7.06-1.38,1.56.32,2.5,1.92,4.92,1.82a31,31,0,0,0-5.84-3.66c-.28.39-.52.67-.7,1a2.86,2.86,0,0,1-3.73,1.63,27.19,27.19,0,0,1-3.48-1.24c-.91-.35-1.8-.76-2.93-1.24-.12,1-.16,1.73-.3,2.47a1.73,1.73,0,0,1-2.15,1.42,7.12,7.12,0,0,1-2.23-.62,21.23,21.23,0,0,1-2.32-1.43,8.12,8.12,0,0,0-1.06.7c-2.27,2.11-3.43,2.3-6.54,1-.21,0-.52,0-.61.15a3.56,3.56,0,0,1-4.23,1c-1.37-.44-2.78-.82-4.17-1.23Z"/><path class="cls-1" d="M695.73,130.43a6.88,6.88,0,0,0,1.15,1,21.55,21.55,0,0,0,7.41,2.22c2.51.37,4.54-.29,5.83-2.21.32-.49.63-1,1-1.63.84.24,1.58.42,2.29.66a4.71,4.71,0,0,0,5-.84,3.11,3.11,0,0,1,.49-.39c.08-.05.23,0,.49,0,.71.47,1.48,1,2.3,1.53,2.46,1.51,3.5,1.46,6.15-.34,2.41.11,4.42,1.64,7.19,2.09-1.58-1.73-3.87-2.65-7.94-3.37a2,2,0,0,0-.32.11c-.72.42-.92,1.35-2.06,1.36a4.35,4.35,0,0,1-2.82-.93c-1-.78-1.85-1.7-2.93-2.72-.68.67-1.11,1.06-1.5,1.47a3.13,3.13,0,0,1-3.88.86c-.93-.35-1.85-.73-2.78-1.08a2.39,2.39,0,0,0-.55.05c-.28.5-.6,1.1-.94,1.69-1.31,2.27-2.91,3-5.8,2.44-2.12-.43-4.16-1.07-6.25-1.61-.53-.13-1.09-.21-1.63-.31Z"/><path class="cls-1" d="M783.27,146.06c-2.18-.26-4.09.1-5.73-.82s-3.11-1.57-4.65-2.33c-2.26,2.32-2.26,2.32-5.74,2.6-.33.65.3.85.79.92a5,5,0,0,0,5.31-2.09l4.65,2a6.55,6.55,0,0,0,4.3.61C782.52,146.89,782.74,146.52,783.27,146.06Z"/><path class="cls-1" d="M737.24,136.78c-.12-.15-.21-.35-.37-.42s-.33.14-.5.22c.09,0,.18.15.27.16a4.66,4.66,0,0,0,.65,0Z"/></g><g id="map_deco_7-9" data-name="map_deco_7"><path class="cls-1" d="M454,2.06c1.83,1.48,3.64,2.29,5.92.81.79.49,1.52,1,2.28,1.43,1.47.88,2.05.88,3.35-.15a6.47,6.47,0,0,1,3-1.41c.46.24,1,.55,1.6.84a13.19,13.19,0,0,0,1.78.85c1.38.46,2.18,0,2.56-1.27.06-.2.1-.4.16-.61,1-.14,1.58.5,2.35.76,1.56.54,2.37.26,2.91-1.11a5.87,5.87,0,0,0,.2-.94c2.35.25,3.78,2.13,6.13,2.46,0-.34,0-.53-.07-.58A28.63,28.63,0,0,0,479,0c0,.57,0,1.13,0,1.68,0,.88-.77,1.27-1.77.89-.54-.21-1-.51-1.55-.76s-.91-.4-1.38-.58a2.28,2.28,0,0,0-.66,0c0,.54.11,1.08.1,1.62a1.08,1.08,0,0,1-1.45.83,6,6,0,0,1-1.13-.49c-.86-.47-1.69-1-2.5-1.42a7.12,7.12,0,0,0-3.46,1.47c-1.13.92-1.67.91-2.89.15-.41-.26-.76-.58-1.17-.84s-.85-.46-1.29-.69a6.47,6.47,0,0,0-.74.24c-1.81.89-2.38.83-3.88-.22-.62-.44-1-1.18-1.92-1.24-.83.42-.45,1.08-.63,1.6a1.29,1.29,0,0,1-1.73.87,9,9,0,0,1-2-.9c-.64-.35-1.2-.8-1.81-1.19a2.2,2.2,0,0,0-.6-.14c-.9.51-1.53,1.58-2.87,1.53-1.07,0-2.14-.27-3.34-.43,2.57,1.86,3.6,1.85,6.75,0,.36.22.77.46,1.15.72s.5.4.77.57A4.68,4.68,0,0,0,452.1,4C453.22,3.86,453.45,3,454,2.06Z"/><path class="cls-1" d="M440,18.58a7,7,0,0,0-.91.46,6.05,6.05,0,0,1-5.12.58c-1.22-.31-2.38-.75-3.56-1.12-.39.45.07.53.32.64a23.13,23.13,0,0,0,3.21,1.34c2.12.59,4.24.64,6-.76a17.39,17.39,0,0,1,1.78.55,2.68,2.68,0,0,0,3-.39c.3-.26.56-.54.92-.9.8.47,1.47.89,2.18,1.27a20.58,20.58,0,0,0,2.2,1.11,3,3,0,0,0,3.12-.26,11.39,11.39,0,0,1,1.17-.66l1.38.85A12.3,12.3,0,0,0,457,22a3.48,3.48,0,0,0,4.64-.9c.2-.23.36-.47.56-.73,1.07.13,1.6.87,2.38,1.27a5,5,0,0,0,2.49.87c0-.29.06-.49,0-.53-1.27-.72-2.55-1.43-3.85-2.1a12.9,12.9,0,0,0-1.68-.6c-.27.42-.45.73-.66,1-1.05,1.47-2.4,1.7-4,.66-.48-.3-.88-.69-1.35-1s-.82-.47-1.32-.74c-.46.32-.86.57-1.23.85a2.83,2.83,0,0,1-3.1.26c-1-.46-1.84-1.05-2.76-1.57-.48-.28-1-.53-1.44-.78a5.38,5.38,0,0,0-.75.4c-1.76,1.4-1.75,1.4-4,.49C440.63,18.8,440.31,18.7,440,18.58Z"/><path class="cls-1" d="M449,11.71a5.87,5.87,0,0,0,4.74,2.1,7.8,7.8,0,0,0,2.31-.76,5.17,5.17,0,0,0,5.48-1.36c.93.39,1.74.78,2.59,1.07,1.61.53,2.6.12,3.16-1.26.11-.26.2-.53.31-.79,0-.05.13-.07.33-.18l1,.45c.38.17.75.36,1.14.5,2.24.77,3.56.52,5.27-1,1.16.24,1.86,1.43,3.67,1.36a22.68,22.68,0,0,0-4.35-2.73c-.21.29-.4.5-.53.72A2.13,2.13,0,0,1,471.42,11a19.56,19.56,0,0,1-2.6-.92c-.68-.26-1.35-.57-2.19-.93-.09.74-.12,1.3-.22,1.85a1.3,1.3,0,0,1-1.61,1.06,5.2,5.2,0,0,1-1.66-.47,15.25,15.25,0,0,1-1.73-1.06,5,5,0,0,0-.8.52c-1.69,1.57-2.56,1.71-4.88.75-.16,0-.39,0-.46.12a2.66,2.66,0,0,1-3.15.74c-1-.33-2.08-.62-3.12-.92Z"/><path class="cls-1" d="M418,7a5.5,5.5,0,0,0,.85.75,16,16,0,0,0,5.54,1.65,4.09,4.09,0,0,0,4.35-1.65c.24-.36.47-.74.77-1.21.63.18,1.18.31,1.71.49A3.52,3.52,0,0,0,435,6.42a2.16,2.16,0,0,1,.37-.29s.16,0,.36,0c.53.35,1.11.76,1.72,1.14C439.26,8.4,440,8.36,442,7c1.8.09,3.3,1.23,5.37,1.56-1.19-1.29-2.89-2-5.93-2.51a1,1,0,0,0-.24.08c-.53.31-.68,1-1.54,1a3.31,3.31,0,0,1-2.11-.7c-.74-.58-1.37-1.26-2.18-2-.51.5-.83.79-1.12,1.1a2.33,2.33,0,0,1-2.9.64l-2.08-.81a2.18,2.18,0,0,0-.4,0l-.71,1.26c-1,1.7-2.17,2.25-4.33,1.82-1.58-.31-3.11-.8-4.66-1.19-.4-.11-.82-.16-1.22-.24Z"/><path class="cls-1" d="M483.37,18.68c-1.63-.19-3.05.08-4.28-.61s-2.32-1.17-3.47-1.73c-1.69,1.72-1.69,1.72-4.29,1.94-.24.48.22.63.59.68a3.74,3.74,0,0,0,4-1.56l3.47,1.51a4.86,4.86,0,0,0,3.21.45C482.81,19.3,483,19,483.37,18.68Z"/><path class="cls-1" d="M449,11.76c-.09-.11-.15-.27-.28-.32s-.24.1-.37.16c.07.05.13.12.2.12a2.68,2.68,0,0,0,.49,0Z"/></g></g></g></g></svg>