<svg xmlns="http://www.w3.org/2000/svg" viewBox="0 0 66 115.95"><defs><style>.cls-1{fill:#7c4821;}</style></defs><g id="圖層_2" data-name="圖層 2"><g id="event"><g id="bigini"><path class="cls-1" d="M65.66,49.94a10.55,10.55,0,0,0-2.09-3c-2.37-2.48-4.87-4.84-7.22-7.33a4,4,0,0,1-1.14-2.35,9.76,9.76,0,0,0-2.73-6.07c-2-2.42-4.37-3.87-7.8-3.09-2.71.62-3.55-.38-2.79-3.06a6.14,6.14,0,0,0-2-6.65c-.38-.35-.81-.66-1.21-1C36.47,15.6,36.26,14.78,37,12A22.69,22.69,0,0,0,38,7.5a2.71,2.71,0,0,0-2.2-2.84c-1.83-.56-2.11-1-2.11-2.91,0-.38.12-.77.09-1.16,0-.21-.22-.59-.34-.59a1,1,0,0,0-.73.33c-1.72,2.2-2.6,4.51-.84,7.11A2.42,2.42,0,0,1,32,10c-.38.83-.93,1.58-1.25,2.41a27.67,27.67,0,0,0-1.58,4.76,5.84,5.84,0,0,0,3.26,6.36,4.08,4.08,0,0,1,1.76,1.62A10.11,10.11,0,0,0,38,29.67a2.21,2.21,0,0,1,.84.76,7.35,7.35,0,0,1,.45,1.49,6.88,6.88,0,0,1-1.44-.24,9.74,9.74,0,0,1-1.11-.78c-2.23-1.29-4.44-2.66-6.73-3.84-1.55-.79-2.61,0-2.73,1.73a5.05,5.05,0,0,0,.11,1.74c.92,3,4.24,13.53,4.32,13.58l-.32.45a.78.78,0,0,1-.1.15c-.4.6-.81,1.25-1,1.55C26.68,51.1,23.16,56,19.54,60.8,15.7,65.91,11.72,70.93,7.87,76c-2.41,3.2-4.69,6.5-7.06,9.72-1.22,1.65-1.1,2.15.61,3.45,3,2.25,6,4.54,8.86,6.91a1.91,1.91,0,0,1,.45,1.66c-1.48,4.49-3,9-4.61,13.41-.67,1.84-.79,1.8.92,2.56,1.46.64,1.82.56,2.6-.86a24,24,0,0,0,1.1-2.48c1.33-3.23,2.65-6.47,4-9.69.14-.33.58-.8.86-.78A2.06,2.06,0,0,1,17,102.29c-1.55,3.55-2.81,7.28-5.86,9.95A5.18,5.18,0,0,0,10,113.6a1.38,1.38,0,0,0,.94,2.22,2.4,2.4,0,0,0,2.85-1.06c2.1-2.89,4.19-5.77,6.3-8.64,1-1.39,1-1.38,2.16-.21s1.42,1.1,2.46-.07c.69-.77,1.4-1.51,2-2.32,3.81-4.91,7.58-9.86,11.42-14.74,4.37-5.53,8.8-11,13.21-16.51L64.55,55.93c.4-.49,1.69-3,1.39-4.08A3,3,0,0,0,65.66,49.94ZM52,41.08c.44,0,1.07.53,1.35,1,.9,1.41,1.68,2.89,2.49,4.37.21.37.38.76.57,1.15l-1.27.15c-2.44-.3-4.8-.57-7.17-.89a5.85,5.85,0,0,1-1.84-.55c-.35-.17-.57-.63-.84-1a5,5,0,0,0,1-.15c1.32-.44,2.63-.88,3.9-1.44.26-.11.4-.76.38-1.15A1.32,1.32,0,0,1,52,41.08Zm-7.72-4.69a6,6,0,0,1,.17-1.53c0-.19.42-.47.54-.44a1.13,1.13,0,0,1,.59.59c.59,1.91.59,1.92,2.34,1.16.24-.1.46-.31.7-.33.86-.06,1.73-.05,2.58-.07a19.81,19.81,0,0,1-.45,2.32,12.74,12.74,0,0,0-.91,2.33c-.15,1.92-1.65,2.47-2.92,3.24a1.19,1.19,0,0,1-1.15-.14,25.5,25.5,0,0,1-1.43-2.43C44.32,39.22,44.28,37.8,44.29,36.39Zm-3.87,4.85a15.08,15.08,0,0,1-2.12,1.39c-.13.06-.77-.59-.92-1-.69-1.87-1.29-3.78-1.91-5.68a2.47,2.47,0,0,1,0-.72,3.69,3.69,0,0,1,.7.3c1.27,1.13,3,1.89,3.1,4C39.28,40.05,39.93,40.55,40.42,41.24ZM30,36.33a58.91,58.91,0,0,1-1.71-6.15,3,3,0,0,1,.52-1.94c.1-.17,1.09,0,1.54.29,2.55,1.52,5.09,3.07,7.58,4.67a2.37,2.37,0,0,1,.65,1.3c.08.28-.1.62-.16.93a3.89,3.89,0,0,1-1-.4c-1.43-1.06-2.83-2.17-4.27-3.22a2.1,2.1,0,0,0-.86-.15c0,.28-.14.69,0,.85,2.38,2.71,2.75,6.23,3.91,9.42.92,2.52,2.74,3,4.57,1,.17-.2.26-.58.45-.62A3.85,3.85,0,0,1,43,42.16c.28.08.57.78.53,1.17-.32,2.86,1.32,4,3.24,4.53a5.4,5.4,0,0,0,1,.21c4.19.39,8.38.78,12.58,1.12.31,0,.64-.24,1-.37-.28-.19-.57-.52-.85-.53-1.89,0-2.87-1.27-3.72-2.7s-1.71-2.9-2.49-4.38c-.15-.27,0-.7,0-1.06.34.09.79,0,1,.25,2.83,2.84,5.62,5.71,8.41,8.58a3.63,3.63,0,0,1,.78,1.1c.55,1.28.14,2-1.24,2.15-.89.09-1.81,0-2.72.05,0-.06,0-.12,0-.18-3.78.48-7.55.92-11.33,1.48a2.53,2.53,0,0,0-1.66,1.14,10.43,10.43,0,0,1-3.77,4c-1.14.77-1.87,2.12-2.81,3.2A13,13,0,0,0,38,69.28c-.15,1.29-.54,2.54-.69,3.81-.12,1-.29,1.13-1.05.4a21.85,21.85,0,0,0-7.74-4.73,21.44,21.44,0,0,0-3.21-.63c-.69-.13-.93-.42-.4-1a44.71,44.71,0,0,1,3.72-3.93,7.38,7.38,0,0,0,2.71-3.89c.84-3.32,1.8-6.61,2.47-10a7.83,7.83,0,0,0-.38-3.79C32.4,42.45,31.1,39.43,30,36.33Zm5.54,38.5a2.1,2.1,0,0,1-.67.3,13.58,13.58,0,0,0-7,2c-.07,0-.61-.33-.61-.51A10.44,10.44,0,0,0,25.41,70c-.07-.09.26-.5.41-.75a16.21,16.21,0,0,1,2.89.92c2.19,1.24,4.32,2.59,6.46,3.92C35.38,74.18,35.44,74.56,35.57,74.83ZM30.71,47.11c.07-.08,1.09-1.42,1.56-2A24.66,24.66,0,0,1,33,47.42a9.64,9.64,0,0,1,0,2.34c-.09,1.34-.24,1.4-1.46.73C29.15,49.23,29.15,49.23,30.71,47.11Zm-2.95,4.4a2.89,2.89,0,0,1,1.3-1.31c.74-.28,3.18,1.88,3.23,2.83A6.06,6.06,0,0,0,32,54c-.11.95-.53,1.12-1.26.56a28.54,28.54,0,0,1-2.42-1.94C28,52.37,27.64,51.74,27.76,51.51Zm-2.41,3.13c.51-.56,1.45-1.52,1.73-1.37A31.77,31.77,0,0,1,31,56c.17.12.21.43.27.56a9.08,9.08,0,0,0-.4,1.23c-.18,1.11-.56,1.51-1.6.68-1.21-1-2.51-1.82-3.71-2.8C25.35,55.5,25.2,54.8,25.35,54.64Zm-1.88,2.27c.38-.57.77-.86,1.41-.41,1.47,1.06,3,2.09,4.39,3.2.26.21.51.84.38,1.07A5.5,5.5,0,0,1,28.46,62a3.88,3.88,0,0,1-.58-.29c-1.45-1.06-2.9-2.14-4.36-3.19C22.75,58,23.07,57.5,23.47,56.91Zm-1.8,2.61c.22-.21.74-.44.92-.33,1.52,1,3,2,4.48,3,.09.06.13.21.33.58-.52.23-1.22.77-1.48.61a48.09,48.09,0,0,1-4.2-3.08A.83.83,0,0,1,21.67,59.52ZM20,61.63c.16-.25.75-.54.92-.44a22.72,22.72,0,0,1,4.35,3.08c.61.65-.4,1.5-1.29,1.84a10.78,10.78,0,0,0-1.2-1.48c-.79-.74-1.69-1.36-2.5-2.1C20.06,62.34,19.88,61.81,20,61.63Zm-1.38,1.78c.58-.95,1-.22,1.51.12L24,66.12c-.44.83-.86,1.68-1.37,2.47-.08.13-.68.12-.86,0-1.17-1-2.25-2.1-3.43-3.09S18.22,64,18.61,63.41Zm-2.7,3.71A8.33,8.33,0,0,1,17,65.85c.53.36.92.59,1.27.87.94.77,1.91,1.53,2.79,2.36a1.89,1.89,0,0,1-.18,2.67.49.49,0,0,1-.45,0c-1.5-1.22-3-2.43-4.42-3.7A1,1,0,0,1,15.91,67.12Zm-2.63,3.57a13.18,13.18,0,0,1,1.47-2,5.28,5.28,0,0,1,.62.33c1.37,1.07,2.81,2.07,4.1,3.23a2.21,2.21,0,0,1-.26,3.24,1.08,1.08,0,0,1-1-.05c-1.56-1.12-3.1-2.29-4.58-3.51A1.4,1.4,0,0,1,13.28,70.69Zm-1.62,2.12c.77-.87,1.2-.26,1.72.16q2.28,1.78,4.51,3.61a5.49,5.49,0,0,1,.71.81,5.23,5.23,0,0,1-.7,1.26c-.11.1-.67-.12-.92-.32-1.67-1.27-3.31-2.59-5-3.87C11.42,74,10.91,73.66,11.66,72.81ZM9.78,75.22c.62-.78,1.13-.38,1.62,0,1.84,1.46,4.14,2.41,5.27,4.66a6.41,6.41,0,0,0,.53.79c-.28.45-.43.93-.77,1.16-.17.11-.71-.13-1-.35q-2.71-2.28-5.38-4.62C9.57,76.44,9.21,76,9.78,75.22ZM7.87,77.85c.59-.64,1.09-.49,1.65,0,1.85,1.51,3.72,3,5.53,4.56A1.89,1.89,0,0,1,15.66,85l-.33.58a5.85,5.85,0,0,1-.64-.36q-3.28-2.85-6.56-5.72C7.61,79,7.2,78.57,7.87,77.85ZM6.08,80.24c.63-.85,1.15-.23,1.59.13C9.79,82.17,11.88,84,14,85.84a13.6,13.6,0,0,1,1.12,1.32,6.36,6.36,0,0,1-.74,1.43c-.1.09-.79-.22-1.09-.48-2.36-2-4.66-4.08-7-6.07C5.48,81.41,5.6,80.9,6.08,80.24ZM3.72,83.5c.37-.41.62-1.28,1.48-.72a13.6,13.6,0,0,1,1.59,1.1c2,1.71,4,3.44,6,5.19a8.9,8.9,0,0,1,1,1.3L13,92.07a7.32,7.32,0,0,1-1.27-.68c-2.62-2.2-5.18-4.47-7.83-6.64C3.34,84.29,3.34,83.92,3.72,83.5Zm6.74,11.33C7.62,92.39,4.83,89.9,2,87.45c-.64-.57-.37-1.09.1-1.45.31-.23,1-.4,1.26-.22,2.93,2.43,5.81,4.92,8.69,7.4.14.12.17.34.3.6a3.71,3.71,0,0,1-.71,1.28C11.43,95.23,10.74,95.06,10.46,94.83Zm1.79,9.07c-1.07,2.36-2,4.79-3,7.17a2.7,2.7,0,0,1-.66,1.16,1.25,1.25,0,0,1-1.16.15,1.12,1.12,0,0,1-.39-1c3.06-6.78,4.34-14.21,7.82-20.86,1.48-2.84,2.05-6.13,3.22-9.15,1.42-3.67,3.05-7.27,4.57-10.9.48-1.15,1.07-1,1.58-.13.84,1.42,1.58,2.9,2.35,4.37l-.38.15a11.42,11.42,0,0,1-1.81,6.23c-1.8,3.14-3.42,6.38-5.11,9.57,0,.06,0,.14-.08.19C15.66,94.52,14.28,99.4,12.25,103.9Zm7.34-11.48c-.12-.51.84-1.29,1.31-1.94.68.51,1.34,1,2.19,1.68l-1.7,2.08C20.75,93.65,19.76,93.13,19.59,92.42Zm1.61,2.87c-.63.87-1.13,1.54-1.62,2.2a11.89,11.89,0,0,1-2-2.18c-.13-.24,1-1.64,1.21-1.56A10.83,10.83,0,0,1,21.2,95.29ZM23,90.57c-.52-.47-1.44-.95-1.43-1.4s.77-1.17,1.21-1.74l1.41,1.24Zm.4-5c.64-1.53,1.45-3,2.23-4.49.05-.08.21-.12.32-.18.09.28.18.56.26.79-.42,1.5-.79,2.94-1.23,4.35-.09.3-.41.54-.63.8C24,86.45,23.24,85.86,23.35,85.61ZM16.19,99c-.73-.6-.31-1.2.11-1.61.21-.22.87-.17,1.21,0a12.8,12.8,0,0,1,1.7,1.2,6.58,6.58,0,0,1-1.1,1.55c-.18.12-.73-.19-1.05-.39A10.15,10.15,0,0,1,16.19,99Zm1.28,9.19c-1,1.51-2.07,3-3.15,4.43a9.43,9.43,0,0,1-1.77,1.8c-.31.23-.88.15-1.34.21.09-.39.15-.78.24-1.17,0-.11.16-.2.24-.3a23.56,23.56,0,0,0,4.91-7.58,62.8,62.8,0,0,1,4.62-8.38c2.45-3.9,3.74-8.24,5-12.57.5-1.66.72-3.42,1.24-5.08A2.68,2.68,0,0,1,28.8,78c1.84-.75,3.75-1.31,5.63-2l.12.32c.32,0,.65,0,1,0,.95-.08,1.19.47.94,1.21-1.07,3.17-1.9,6.42-4.25,9A92.47,92.47,0,0,0,26.27,94c-.93,1.29-1.43,2.9-2.29,4.25C21.86,101.61,19.67,104.9,17.47,108.17Zm6.25-3c-.47,0-1.32-1-1.38-1.54s.7-1.22,1.11-1.83l1.92,1.5c.14.22.28.43.42.66C25.1,104.42,24.43,105.17,23.72,105.19ZM26,102.77c-.81-1-1.69-1.73-1.92-2.61-.13-.5.81-1.27,1.27-1.93a13.43,13.43,0,0,1,2.24,2.49C27.7,101,26.64,101.91,26,102.77Zm2.9-3.67c-.17.16-.93-.06-1.27-.3a6.29,6.29,0,0,1-1.51-1.49A1.31,1.31,0,0,1,26,96.15a13.86,13.86,0,0,1,1.28-1.84,18.71,18.71,0,0,1,3,2.71C30.47,97.25,29.45,98.46,28.86,99.1Zm2.67-3.29c-.24.16-.91-.14-1.31-.37a6.41,6.41,0,0,1-1.15-1c-.49-.51-1.43-.88-.53-1.81.73-.74,1.41-1.24,2.36-.26A24.31,24.31,0,0,0,33,94.11,8.61,8.61,0,0,1,31.53,95.81ZM33.89,93c-.22.16-.89-.21-1.29-.43s-.78-.67-1.21-1c-.72-.48-1.2-.88-.42-1.78s1.24-1.06,2.09-.35c.54.45,1.15.83,1.7,1.26a3.51,3.51,0,0,1,.52.62A7.94,7.94,0,0,1,33.89,93Zm1.43-3a8.75,8.75,0,0,1-1.91-1.56,1.47,1.47,0,0,1,0-1.27c.22-.57.71-.66,1.24-.25s1.35,1,2,1.47a3.26,3.26,0,0,1,.42.44C37.05,89.68,36,90.37,35.32,90Zm2.62-2.22c-.15.13-.71,0-1-.25a15.64,15.64,0,0,1-1.9-1.64,1.16,1.16,0,0,1-.24-1c.4-1.47.8-1.6,2.08-.67.77.55,1.47,1.2,2.33,1.91A11.86,11.86,0,0,1,37.94,87.73Zm2.78-3.22c-.62.88-1.11.59-1.7.07-.77-.67-1.54-1.33-2.31-2-.21-.2-.38-.44-.6-.69.28-.56.38-1.19.74-1.4s.92.14,1.29.39c.83.6,1.56,1.33,2.39,1.92S41.22,83.79,40.72,84.51Zm2-2.71c-.07.27-.38.48-.59.71-.25-.14-.43-.23-.57-.33-1.19-.87-2.42-1.71-3.55-2.64a1.93,1.93,0,0,1-.66-1.27c0-.67.37-1.18,1.1-.59,1.37,1.08,2.7,2.19,4,3.33A1,1,0,0,1,42.7,81.8Zm.56-1.74a42.17,42.17,0,0,1-4.37-3.16,2.74,2.74,0,0,1-.71-1.5,1.14,1.14,0,0,1,.39-1,1.14,1.14,0,0,1,1,.2c1.56,1.26,3.09,2.56,4.62,3.85.19.16.35.33.84.77C44.28,79.61,43.53,80.23,43.26,80.06Zm2.45-2.31a.82.82,0,0,1-.8-.06C43,76.16,41.12,74.63,39.3,73a2.36,2.36,0,0,1-.53-1.39c-.06-.48.13-1,.76-.52,2.17,1.71,4.31,3.47,6.46,5.21a2,2,0,0,1,.37.49A3.64,3.64,0,0,1,45.71,77.75Zm1.74-2.18c-.18.14-.81-.09-1.09-.33-2.09-1.69-4.13-3.45-6.2-5.17a1.66,1.66,0,0,1-.7-1.82c.24-1.15.7-1.27,1.53-.63,2.44,1.9,4.85,3.82,7.28,5.71a3.24,3.24,0,0,0,.8.32A15,15,0,0,1,47.45,75.57Zm2.39-2.94a1.57,1.57,0,0,1-1.36-.27c-2-1.51-4-3.07-6-4.64a17.62,17.62,0,0,0-1.6-1.4c-1.09-.65-.65-1.33-.21-2.1.54-1,1.18-.56,1.75-.1,2.66,2.16,5.29,4.35,7.94,6.54.18.16.34.35.58.6C50.56,71.77,50.3,72.38,49.84,72.63Zm2.29-2.8A1.32,1.32,0,0,1,51,69.6c-2.72-2.08-5.41-4.2-8.09-6.32-.55-.43-1.2-.76-.5-1.68a1.2,1.2,0,0,1,2-.24c2.08,1.53,4.15,3.09,6.22,4.65.72.53,1.43,1.1,2.13,1.68a6.78,6.78,0,0,1,.63.8A6.36,6.36,0,0,1,52.13,69.83ZM54.36,67c-.25.15-.84,0-1.14-.28-2.6-1.91-5.19-3.85-7.74-5.82a4.86,4.86,0,0,1-.84-1.23A20.42,20.42,0,0,1,47,58.73c.21-.06.56.28.8.48,2.33,1.86,4.65,3.7,7,5.57a9.94,9.94,0,0,1,.85.86A6.27,6.27,0,0,1,54.36,67Zm2-2.49c-.15.11-.72-.24-1-.48-2.43-1.9-4.83-3.84-7.28-5.73a1.11,1.11,0,0,1-.3-1.77c.37-.56.68-.64,1.22-.24.83.61,1.72,1.15,2.54,1.77q2.64,2,5.23,4a8.89,8.89,0,0,1,1,1A10,10,0,0,1,56.39,64.49ZM60,60.17c-.29.35-.62.67-.87,1-.53.77-1.1.76-1.78.23q-3.83-3-7.67-5.88c-.63-.48-.34-.7.2-.84.8-.22,1.62-.4,2.63-.63a11.37,11.37,0,0,1,1.94.89c1.81,1.26,3.51,2.66,5.34,3.86C60.5,59.34,60.35,59.67,60,60.17Zm1.62-2.32a.7.7,0,0,1-1.2.32c-1.35-1-2.79-1.83-4.15-2.78a5.66,5.66,0,0,1-1-1.1c.51-.2,1-.38,1.75-.65.86.51,1.77,1,2.67,1.57a9.68,9.68,0,0,1,1.84,1.37A1.44,1.44,0,0,1,61.58,57.85Zm2.19-2.57c-.23.23-.39.55-.65.71a1,1,0,0,1-.81.08,15.12,15.12,0,0,1-1.91-1.33c-.22-.17-.28-.52-.41-.79a2.59,2.59,0,0,1,.81-.38c1-.08,2,0,2.89-.13A3.93,3.93,0,0,0,65,53,14.31,14.31,0,0,1,63.77,55.28Z"/><path class="cls-1" d="M41.83,48c-.38.83-.76,1.64-1.12,2.47q-2.31,5.3-4.6,10.6c-.33.77-.54,1.59-.9,2.35a5.27,5.27,0,0,1-.92,1.1,4.14,4.14,0,0,1,.05-1.37c1.11-2.89,2.22-5.77,3.44-8.61.94-2.19,2-4.32,3.06-6.46.12-.24.45-.38.68-.56C41.61,47.64,41.71,47.78,41.83,48Z"/><path class="cls-1" d="M32.71,69c-.4-.64-.72-1-.65-1.08.32-.65.74-1.25,1.12-1.87.18.14.53.34.51.41C33.45,67.17,33.15,67.88,32.71,69Z"/></g></g></g></svg>