<svg xmlns="http://www.w3.org/2000/svg" viewBox="0 0 20.64 19.61"><defs><style>.cls-1{fill:#7c4821;stroke:#7c4821;stroke-linecap:round;stroke-linejoin:round;stroke-width:0.25px;}</style></defs><g id="圖層_2" data-name="圖層 2"><g id="event"><g id="boat"><path class="cls-1" d="M20.42,7.25l-.13,0,0,0a.88.88,0,0,0-.14-.23.34.34,0,0,0-.49.08l-.05.07-.55,0c-.15,0-.29,0-.44,0a.43.43,0,0,1-.39-.32.63.63,0,0,0-.27-.31,1.71,1.71,0,0,0-.81-.28l-.43,0L16.64,6a2.12,2.12,0,0,0-.29-.48,1.85,1.85,0,0,0-.39-.3,1,1,0,0,0-1.11,0,.49.49,0,0,0-.23.44.7.7,0,0,1,.49-.09.94.94,0,0,1,.47.2.82.82,0,0,1,.24.71.78.78,0,0,0-.54-.33.4.4,0,0,0-.46.32.7.7,0,0,0,0,.25.2.2,0,0,0,.14.19s0-.08,0-.12a.25.25,0,0,1,.12-.18.28.28,0,0,1,.38.17.39.39,0,0,1-.07.4c-.09.15-.2.29-.29.44s-.24.5-.35.75a.36.36,0,0,0,0,.11c-.05.28-.11.55-.14.84s-.07.71-.09,1.07,0,.48,0,.72a.92.92,0,0,1,0,.15c-.11-.14-.21-.27-.32-.39a10.83,10.83,0,0,1-.92-1.11.14.14,0,0,1,0-.16c.08-.17.14-.34.21-.52h0l-.08.12c-.06.14-.11.28-.18.41a.17.17,0,0,1-.09.08l-.64.09c0-.15.09-.28.14-.4a6,6,0,0,0,.31-.93,9.17,9.17,0,0,0,.18-1.28,7.16,7.16,0,0,0,0-1.31c0-.25,0-.5-.06-.74a1.82,1.82,0,0,0-.1-.45c-.07-.24-.14-.47-.22-.7s-.15-.34-.23-.51a.58.58,0,0,1-.05-.14.55.55,0,0,0,.39.08.6.6,0,0,0,.37-.17l.07.07a2.41,2.41,0,0,1,.33.71c.08.31.16.62.23.93a6,6,0,0,1,.1.74c0,.36,0,.71,0,1.07,0,.19,0,.39-.07.59a6.64,6.64,0,0,1-.24,1.16c0,.16-.1.32-.15.48s0,.07,0,.1a2.32,2.32,0,0,0,.19-.47c.06-.31.17-.6.22-.91a2.63,2.63,0,0,0,.06-.39c0-.25.05-.5.05-.76a7.37,7.37,0,0,0-.07-1.41c0-.17-.05-.34-.08-.51s-.09-.32-.13-.48a2.51,2.51,0,0,0-.38-.87l-.06-.1a.76.76,0,0,0,.38-.08c.06-.19,0-.29-.21-.32h-.06l-.7,0-1.33,0-.82-.05-.94,0a1.3,1.3,0,0,1-.43,0c0-.24,0-.48,0-.71s.05-.5.06-.75,0-.49,0-.73a1.5,1.5,0,0,0,0-.2l-.17,0c-.09,0-.11,0-.13.1a.5.5,0,0,1,0,.13.13.13,0,0,1-.13,0,1,1,0,0,0-.58,0C8,.37,7.8.41,7.62.47a1.44,1.44,0,0,1-1,0A1.52,1.52,0,0,0,5.74.38l-.5.14L4.6.72s0,0,0,0A2.32,2.32,0,0,0,5.39,1,1.27,1.27,0,0,1,6,1.11a5.39,5.39,0,0,0,.48.25,2.06,2.06,0,0,0,1,0,2,2,0,0,1,.24,0h0a1.47,1.47,0,0,1,.76.26,1.26,1.26,0,0,1,.2.2s0,0,0,.06c0,.2,0,.4,0,.62l-.45,0-1,0L6.62,2.4l-.2,0c-.21,0-.41-.06-.62-.07s-.33,0-.5,0l-.84,0-1,0H3a.5.5,0,0,0-.21,0c-.13,0-.17.09-.18.18s0,.15.13.2.21.06.31.09.07,0,.09,0a2.29,2.29,0,0,1,.51.52c.12.2.24.4.35.61a5.76,5.76,0,0,1,.43,1c.12.32.2.65.29,1A4.46,4.46,0,0,1,4.94,7c0,.41,0,.81,0,1.22a.5.5,0,0,1-.15.4c-.23.22-.44.46-.65.69L3.51,10a2.3,2.3,0,0,1-.22.2v-.11l0-.68c0-.1,0-.2,0-.3a1.11,1.11,0,0,0,0-.48c0-.06,0-.12,0-.17L3.2,7.92a2.51,2.51,0,0,0-.34-.83,1.94,1.94,0,0,0-.68-.74L1.9,6.21a1,1,0,0,0-.64-.11l-.2,0a1.11,1.11,0,0,0-.59.25.92.92,0,0,0-.33.9A1.2,1.2,0,0,0,.6,8a.8.8,0,0,0,.22.12,1.05,1.05,0,0,0,.7-.07.37.37,0,0,0,.18-.17c.05-.11.11-.21.17-.33A1.2,1.2,0,0,1,2,8.06a4.14,4.14,0,0,1,0,.79,4.73,4.73,0,0,1-.18.91c-.07.26-.16.51-.25.77s-.19.55-.3.83a4.61,4.61,0,0,0-.25,1A7.58,7.58,0,0,0,1,13.5a1.33,1.33,0,0,0,0,.4,4,4,0,0,0,.26.76,4.54,4.54,0,0,0,.54,1l.39.51a4.3,4.3,0,0,0,1.12,1.09l0,.11c-.08.13-.17.26-.24.4a1.33,1.33,0,0,1-.56.54,2.92,2.92,0,0,0-.84.68l-.35.41h0l.86,0h.24l.59,0a.12.12,0,0,0,.09,0,1.44,1.44,0,0,0,.18-.68v-.22a.57.57,0,0,1,.08-.29l.34-.6.1-.17c.64.15,1.52.22,2.15.31,0,0,0,0,0,0a2,2,0,0,1-.48.56l-.41.31a2.76,2.76,0,0,0-.68.8.56.56,0,0,0-.06.17l.76-.05A4,4,0,0,1,6,19.37a.1.1,0,0,0,.1-.06l.1-.21a1.36,1.36,0,0,0,.17-.81.23.23,0,0,1,0-.12c.05-.11.12-.22.18-.33a.22.22,0,0,1,.27-.13l.4,0c.24,0,.48,0,.72,0a6.25,6.25,0,0,0,1.06,0,.31.31,0,0,1,.23,0,.91.91,0,0,1-.44.49,2.87,2.87,0,0,0-1.1,1.06.64.64,0,0,0,0,.09c.56-.1,1.11-.08,1.64-.14l.18-.3a.77.77,0,0,0,.11-.66.2.2,0,0,1,0-.15c.06-.14.14-.27.21-.41h.09l.93,0c.45,0,.89,0,1.34,0h2.07l.82,0a.74.74,0,0,0,.42-.17,5.34,5.34,0,0,0,.86-.57,4.12,4.12,0,0,0,.57-.61,4.46,4.46,0,0,0,.31-.52,3.34,3.34,0,0,0,.23-.58,3.15,3.15,0,0,0,0-.43,2.84,2.84,0,0,0,0-.77,6.63,6.63,0,0,0-.18-.77c-.09-.31-.19-.61-.29-.91l-.33-.9c-.08-.23-.19-.46-.26-.7A1.51,1.51,0,0,1,16.3,10V10c0-.16,0-.32,0-.48a1.33,1.33,0,0,1,.48-.93.66.66,0,0,1,.35-.16c.09,0,.14,0,.11.13a.29.29,0,0,1-.07.12l-.27.23a.48.48,0,0,0-.12.16.07.07,0,0,0,0,.09s.06,0,.08,0l.1-.05A.69.69,0,0,1,17.25,9a.12.12,0,0,1-.09.16,1.27,1.27,0,0,0-.47.42.46.46,0,0,0-.06.41.2.2,0,0,0,.32.1,1.09,1.09,0,0,0,.24-.24,1.35,1.35,0,0,1,.52-.37l.22,0a1.56,1.56,0,0,1,.61,0,.22.22,0,0,1,.15.32,1,1,0,0,1-.13.18l0,.08a.4.4,0,0,0,.4-.16.94.94,0,0,0,.1-.23c0-.06,0-.12.05-.18s.07-.12.16-.13l.24-.06a.24.24,0,0,0,.17-.17,1.26,1.26,0,0,0,.05-.55.14.14,0,0,0-.24-.09.46.46,0,0,0-.09.15c-.08.18-.07.18-.29.18l-.09,0c-.09-.2-.06-.43-.17-.64a1.48,1.48,0,0,0-.14.36,1.83,1.83,0,0,1-.08.25s0,.08-.08.08A.83.83,0,0,1,18,8.73a.26.26,0,0,1-.09-.09.48.48,0,0,1,0-.45.67.67,0,0,1,.53-.32,1.29,1.29,0,0,1,.61.06c0,.24,0,.49,0,.75l.05,0,.15-.33.1-.19s.05,0,.1,0a1,1,0,0,0,.79-.25.6.6,0,0,0,.26-.41C20.53,7.31,20.51,7.28,20.42,7.25Zm-5.8,2.56.09.3a.53.53,0,0,0,.22.25l-.35,0A2,2,0,0,1,14.62,9.81Zm.29.61.37-.07a.22.22,0,0,1,.14,0,.26.26,0,0,0,.29,0v.37c-.36.13-.73.23-1.12.33l0-.55Zm.22-.09.16-.28c0,.08,0,.15,0,.23Zm.58.42c.06.2.11.39.17.6a5.43,5.43,0,0,1-1.3.4c0-.22,0-.45,0-.67Zm-1,1a5,5,0,0,0,.91-.28l.28-.1c.07.17.14.33.21.52L16,12a9.23,9.23,0,0,1-1.55.56l-.29.06a.2.2,0,0,1,.07-.2.84.84,0,0,0,.32-.48A.22.22,0,0,1,14.71,11.78Zm1.71,2.51-.71.29a9.6,9.6,0,0,1-1.07.36l-.68.2-.73.18-1.46.3-.76.13h-.17l.53-1.09,1-.19.89-.2a5.36,5.36,0,0,0,.71-.23l.76-.27a8.79,8.79,0,0,0,1.53-.7l.25-.18a5.27,5.27,0,0,1,.26,1.24Zm.35.49c0,.21-.06.42-.09.63a.16.16,0,0,1-.12.13c-.24.09-.48.19-.73.27-.41.14-.82.25-1.22.38a8.8,8.8,0,0,1-1.13.26l-1,.16-.7.11a13.55,13.55,0,0,1-1.43.11h-.11l.13-.24c0-.08.08-.15.11-.23l.26-.48a.11.11,0,0,1,.09,0c.29-.05.59-.08.88-.14s.7-.14,1-.21l1.07-.23c.24-.06.49-.13.73-.21a12.34,12.34,0,0,0,1.21-.42l.39-.17.58-.23A3.62,3.62,0,0,1,16.77,14.78Zm-6.64,1-1.24,0H7.73l.17-.26L8.26,15A.14.14,0,0,1,8.39,15l1,0a8.27,8.27,0,0,0,1.22-.13h.08c0,.09-.07.18-.11.26s-.22.45-.32.67A.12.12,0,0,1,10.13,15.8Zm0,.08s0,.06,0,.08c-.13.27-.25.53-.38.79a.11.11,0,0,1-.11.08L8,16.87l-.78,0h0a6.48,6.48,0,0,1,.55-.94Zm.42-1.13-1,.11-1.09.05-.08,0a2.19,2.19,0,0,1,.4-.59l.06,0a1.71,1.71,0,0,0,.66.36,1.23,1.23,0,0,0,1.25-.31,1.67,1.67,0,0,0,.38-.46,3.05,3.05,0,0,0,.13-.32.66.66,0,0,0,0-.15l.09.14,0,.09-.54.89A.3.3,0,0,1,10.58,14.75ZM7,15.86c-.41,0-.82,0-1.23-.09l-.73-.12-.26,0,.45-.78a2,2,0,0,1,.55,0l.81.07.7.05.42,0c0,.08-.08.15-.12.21l-.39.6-.08,0A.25.25,0,0,1,7,15.86Zm.12.07,0,.07-.52.74a.15.15,0,0,1-.17.07l-1.3-.14-.78-.09-.08,0,.51-.9c.41.06.8.14,1.19.18S6.74,15.9,7.15,15.93Zm.58-1-1,0-.47,0-1-.09.4-.63c.07.1.15.18.2.27a.86.86,0,0,0,.48.34,2.18,2.18,0,0,0,.75.12h.13a.38.38,0,0,0,.21,0A1.59,1.59,0,0,0,8,14.61H8a3.06,3.06,0,0,1-.21.29S7.75,14.93,7.73,14.93Zm-.06-.23a.86.86,0,0,1-.39.09,3.53,3.53,0,0,1-.72-.08.9.9,0,0,1-.6-.39l-.14-.18a1.44,1.44,0,0,1-.21-.53,1.4,1.4,0,0,1,0-.29,1.21,1.21,0,0,1,.13-.67A1.67,1.67,0,0,1,6.33,12a1.49,1.49,0,0,1,1.11-.19,1.23,1.23,0,0,1,.4.19,1.44,1.44,0,0,1,.49.49.19.19,0,0,1,0,.15,2.15,2.15,0,0,0-.12.5.74.74,0,0,0,.13.51s0,.05,0,.06a.19.19,0,0,1,0,.28A1.63,1.63,0,0,1,7.67,14.7ZM5.52,13.39a.55.55,0,0,1-.22.49L5.21,14a1.49,1.49,0,0,1-.83.39H4.25a1.8,1.8,0,0,1-1.11-.43,2.08,2.08,0,0,1-.38-.55.65.65,0,0,1-.1-.39s0-.05,0-.07a1,1,0,0,1,.05-.58,1.43,1.43,0,0,1,1.4-1.11,1.51,1.51,0,0,1,.77.23,1.58,1.58,0,0,1,.56.5,1.36,1.36,0,0,1,.2.48.58.58,0,0,1,0,.37A1.15,1.15,0,0,0,5.52,13.39ZM3.65,16.48l-.32-.08a.72.72,0,0,0-.19,0,.43.43,0,0,1-.29-.15,3.31,3.31,0,0,1-.5-.62c-.1-.16-.18-.33-.27-.49L2,15l2.38.63-.25.4-.28.41C3.79,16.5,3.79,16.51,3.65,16.48Zm.11.07-.18.32a2.26,2.26,0,0,1-.5-.48Zm.5-1.07-1.11-.27-1.06-.3a.23.23,0,0,1-.16-.14,5.16,5.16,0,0,1-.25-.85l0-.13a4.13,4.13,0,0,1,.42.14,8.67,8.67,0,0,0,.9.31c.27.09.54.16.82.23l.46.13.08,0,.57.09-.48.8A.76.76,0,0,1,4.26,15.48Zm.47-.83-.43-.09-.85-.22-.56-.18L2,13.86l-.32-.13c-.06,0-.06-.07-.07-.11s0-.2-.05-.3,0-.35,0-.56l.57.27.49.21a.23.23,0,0,1,.12.12,5,5,0,0,0,.26.46,2,2,0,0,0,.25.25,1.6,1.6,0,0,0,1.09.36A1.4,1.4,0,0,0,5,14.22,2.26,2.26,0,0,0,5.31,14c-.12.24-.25.45-.38.67Zm-1.5-4.53c0,.28,0,.56,0,.86l-1.17-.59c.06-.25.11-.49.16-.74C2.45,9.76,3.09,10.05,3.23,10.12Zm-1-.51c0-.21.09-.4.13-.61l.13.06.55.29.2.11c0,.19,0,.39,0,.59a9.37,9.37,0,0,1-.86-.38Zm-.12.85a5.28,5.28,0,0,0,.53.27L3.2,11a.2.2,0,0,1,.11.13,1.52,1.52,0,0,0,.06.2,1,1,0,0,0-.44.37l-1.08-.55c.08-.3.18-.6.22-.71S2.11,10.44,2.13,10.46Zm-.25.75,1,.51c-.1.21-.19.42-.29.62A5.16,5.16,0,0,1,1.64,12c0-.09.1-.44.2-.78Zm.7,1.21a2.54,2.54,0,0,0,0,.39,3.12,3.12,0,0,0,.05.4,11.23,11.23,0,0,1-1.12-.5c0-.23.07-.46.11-.7ZM6,7.8c0-.53-.07-1.07-.13-1.61,0-.16-.07-.31-.1-.47-.09-.42-.25-.82-.38-1.23a6.07,6.07,0,0,0-.74-1.43L4.54,3a1,1,0,0,0,.85-.08l.18.22a8.4,8.4,0,0,1,.64,1.13c.18.39.29.81.43,1.21a3.57,3.57,0,0,1,.11.47c0,.24.11.49.15.73A7.84,7.84,0,0,1,7,8.25,7.23,7.23,0,0,1,6.9,9.38c-.06.33-.15.65-.23,1a.14.14,0,0,1-.12.11l-.26,0-.62,0c0-.11,0-.2.07-.3a5,5,0,0,0,.14-.85A5.69,5.69,0,0,0,6,8.66C6,8.37,6,8.09,6,7.8Zm5.1-4.41c.12.3.24.61.34.93s.13.47.19.71a7.72,7.72,0,0,1,.23,2c0,.27,0,.54-.06.81l-.06.71a4.93,4.93,0,0,1-.22,1.08c0,.08-.06.16-.08.23l-1,0a.53.53,0,0,1,0-.18,3.22,3.22,0,0,0,.19-.6A5.42,5.42,0,0,0,10.79,8c0-.3.05-.61,0-.91a8.22,8.22,0,0,0-.06-1,9.26,9.26,0,0,0-.27-1.27c-.08-.26-.13-.53-.22-.78a3.29,3.29,0,0,0-.23-.62,2.16,2.16,0,0,1-.17-.34,1.66,1.66,0,0,0,1,0A.79.79,0,0,1,11.06,3.39ZM11,3s0,0,0,0l1.08,0v0l-.13.07a1.62,1.62,0,0,1-.62.05.94.94,0,0,1-.28-.1S11,3,11,3ZM9.78,3a3.49,3.49,0,0,1,1.09,0A1.14,1.14,0,0,1,9.78,3Zm0,.17a4.38,4.38,0,0,1,.37.83l.21.73c.09.34.18.67.25,1s.07.6.11.9a6.2,6.2,0,0,1,0,1.14,7.77,7.77,0,0,1-.13,1.08l-.18.73c0,.12-.09.23-.13.34s0,.07-.09.07l-1.09.13h0l.12-.56c0-.17.07-.35.09-.53s0-.52.05-.79,0-.67,0-1a5.58,5.58,0,0,0-.08-.57c-.05-.24-.09-.49-.15-.74A2.85,2.85,0,0,0,9,5.37c-.09-.3-.19-.59-.29-.88L8.52,4c0-.06,0-.12-.08-.17s-.18-.32-.26-.48l-.11-.21s0,0,0-.08a1.09,1.09,0,0,0,.49.25A.94.94,0,0,0,9,3.3a2.43,2.43,0,0,0,.58-.18A1.36,1.36,0,0,0,9.72,3S9.8,3.08,9.82,3.12ZM8,2.85h.24l1.38.08,0,0A1.16,1.16,0,0,1,8,2.85Zm0,.3.27.48c.06.11.11.23.16.34A9.17,9.17,0,0,1,8.9,5.1c.07.25.16.49.22.74s.1.59.16.89a5.64,5.64,0,0,1,.05,1.48c0,.12,0,.23,0,.35s0,.39-.06.59a6,6,0,0,1-.2.94l-1.19.23c0-.06,0-.1,0-.14S8,9.81,8,9.62a7.41,7.41,0,0,0,.14-1.33,3.53,3.53,0,0,0,0-.46,4.94,4.94,0,0,0-.12-.94C8,6.71,8,6.52,8,6.34s0-.32-.09-.48a4.21,4.21,0,0,0-.12-.48c-.06-.2-.14-.4-.21-.6L7.43,4.4l-.06-.14c0-.1-.09-.2-.14-.29S7.07,3.66,7,3.5a1.73,1.73,0,0,0-.24-.44.18.18,0,0,0,0-.05A1,1,0,0,0,7.92,3S8,3.09,8,3.15Zm1,7c0,.37-.06.71-.09,1.06,0,.2,0,.4,0,.61a.88.88,0,0,1,0,.16s0,0,0,0a2.87,2.87,0,0,0-.4.46l0,0a.25.25,0,0,1-.09-.26c.07-.42.11-.83.14-1.25,0-.21,0-.42.07-.62a.81.81,0,0,0,0-.16Zm-1.77-7a.94.94,0,0,1-.63-.32c.43,0,.85,0,1.28,0A.68.68,0,0,1,7.26,3.11Zm-.42.16c.07.12.12.25.18.38l.35.75.06.18.24.69a6.23,6.23,0,0,1,.22,1c.06.29.11.59.16.89a3.74,3.74,0,0,1,.08,1.16C8.08,8.64,8.06,9,8,9.4a3,3,0,0,1-.24.92l-1.08.12a.64.64,0,0,1,0-.09c.09-.32.16-.64.23-1a7.28,7.28,0,0,0,.11-.91A6.63,6.63,0,0,0,7,7.07a4.85,4.85,0,0,0-.09-.55c0-.24-.09-.48-.15-.72s-.11-.38-.16-.57-.13-.4-.2-.6a.34.34,0,0,0,0-.12,6.64,6.64,0,0,0-.6-1.19A4,4,0,0,0,5.55,3l0-.06L5.94,3a.69.69,0,0,0,.61-.1l0,0A3.11,3.11,0,0,1,6.84,3.27ZM6.19,3a1.23,1.23,0,0,1-.7-.16c-.07,0-.1,0-.15,0a.25.25,0,0,1-.19.11,1,1,0,0,1-.58-.06l-.18-.11s0,0,0,0a20.37,20.37,0,0,1,2.2,0A.59.59,0,0,1,6.19,3Zm-.3,7.58h.74l.53-.07.63-.06h0a2.19,2.19,0,0,1,.63-.11c0,.67-.11,1.33-.17,2-.08,0-.11-.07-.15-.1L8,12.06a1.17,1.17,0,0,0-.58-.28,1.58,1.58,0,0,0-1.55.6l-.15.17c0-.07,0-.13,0-.18a1.35,1.35,0,0,0-.53-.81c-.12-.1-.27-.16-.4-.25a.9.9,0,0,0-.51-.15H4a.17.17,0,0,1,.06-.06c.11-.1.22-.18.32-.28a.33.33,0,0,1,.24-.1l.27,0a1.16,1.16,0,0,1,.18,0A7,7,0,0,0,5.89,10.54ZM8.3,13a1.57,1.57,0,0,1,.56-.91L9,12a1.28,1.28,0,0,1,1-.24,2.18,2.18,0,0,1,.44.11,1.39,1.39,0,0,1,.73.74.65.65,0,0,1,0,.19,1,1,0,0,1,0,.17,1.67,1.67,0,0,0,.05.39.43.43,0,0,1,0,.25,1.29,1.29,0,0,1-.41.65l-.23.22a.89.89,0,0,1-.25.14,1.21,1.21,0,0,1-.95,0A4,4,0,0,1,9,14.36a1.31,1.31,0,0,1-.2-.21l-.24-.3A.91.91,0,0,1,8.3,13Zm2.95-.16a1.05,1.05,0,0,1,.3-.81,1.37,1.37,0,0,1,.34-.34c.07,0,.12-.08.19-.11a1.57,1.57,0,0,1,.77-.13h0a2.05,2.05,0,0,1,.81.49A1.65,1.65,0,0,1,14,13.48a.84.84,0,0,1-.2.33,1.86,1.86,0,0,1-1.11.5,1.14,1.14,0,0,1-.73-.22A1.54,1.54,0,0,1,11.25,12.86ZM11.73,14l.35.24a1.58,1.58,0,0,0,.37.11,5.69,5.69,0,0,1-1,.2C11.55,14.4,11.58,14.19,11.73,14Zm4.47-1-.68.35a5.55,5.55,0,0,1-.56.24l-1.4.5-.1,0,.19-.15a1.11,1.11,0,0,0,.47-.89v-.43a8.7,8.7,0,0,0,1-.29l1-.4a5.29,5.29,0,0,1,.35.84A1,1,0,0,1,16.2,13.05ZM12.92,9.72H13a.29.29,0,0,1,.33.14,5.71,5.71,0,0,0,.58.72c.2.22.37.45.56.68a.2.2,0,0,1,0,.18c0,.14,0,.29,0,.43a.8.8,0,0,1-.33.54l0,0h0a1.43,1.43,0,0,0-.36-.52,1.75,1.75,0,0,0-.63-.44,1.21,1.21,0,0,0-.68,0,1.58,1.58,0,0,0-.79.43,1.49,1.49,0,0,0-.36.57.36.36,0,0,0,0,.11h0c-.1-.14-.18-.28-.29-.41a1.36,1.36,0,0,0-.76-.45,1.57,1.57,0,0,0-.57,0,.9.9,0,0,0-.47.17L8.94,12c.07-.61.06-1.21.16-1.8l.17,0c.31,0,.61-.08.91-.1s.35-.06.52-.06h.38a2.7,2.7,0,0,0,.85-.08,3.7,3.7,0,0,1,.48-.08Zm-.36-6c.07.2.16.38.23.58A4.16,4.16,0,0,1,13,5.57c0,.21,0,.42,0,.63A8.09,8.09,0,0,1,13,7.5a8,8,0,0,1-.22,1.19,6.68,6.68,0,0,1-.25.71,2.6,2.6,0,0,1-.1.25.14.14,0,0,1-.13.1l-.62.11-.23,0a.93.93,0,0,0,0-.13c.06-.23.14-.46.19-.7a6.17,6.17,0,0,0,.08-.62c0-.17,0-.35.05-.53s0-.27,0-.4a5,5,0,0,0,0-.95c0-.18,0-.36,0-.53a5.59,5.59,0,0,0-.08-.59c-.08-.35-.15-.71-.25-1s-.18-.51-.27-.76L11,3.19a2.58,2.58,0,0,0,.37.06,1.75,1.75,0,0,0,.4,0,2.72,2.72,0,0,0,.37-.13A1.91,1.91,0,0,1,12.56,3.69Zm.52-.46a.59.59,0,0,1-.14.06.72.72,0,0,1-.64-.2s0,0,0,0l.86.07,0,0A.73.73,0,0,1,13.08,3.23ZM9,.4S9,.34,9,.32,9,.17,9.17.24a17.55,17.55,0,0,1-.1,2.29H8.8V2.26c0-.2,0-.39,0-.59A4.9,4.9,0,0,1,8.88.9C8.91.73,8.93.57,9,.4Zm-1,1a1.3,1.3,0,0,0-.52,0h0a1.81,1.81,0,0,1-.77,0,3.29,3.29,0,0,1-.46-.23,1.36,1.36,0,0,0-.7-.21A1.83,1.83,0,0,1,5,.84,1.09,1.09,0,0,1,4.75.75L4.89.7A6.54,6.54,0,0,1,5.75.44a1.49,1.49,0,0,1,.81,0l.23.07a1.64,1.64,0,0,0,.73,0c.17,0,.34-.09.51-.13A2.66,2.66,0,0,1,8.42.35a.51.51,0,0,1,.33.08A.87.87,0,0,0,8.4.94a1.19,1.19,0,0,0,.11.63A1.35,1.35,0,0,0,7.94,1.37Zm.83.37a.6.6,0,0,1-.22-.23A.81.81,0,0,1,8.5.8.77.77,0,0,1,8.77.48s.07,0,.1,0C8.84.89,8.8,1.31,8.77,1.74Zm-5.63.89a1,1,0,0,1-.33-.08.13.13,0,0,1-.11-.14.18.18,0,0,1,.15-.13H4.17l1.06.06h.58l.56.05,1.19.1,1.12.05h.21a2,2,0,0,0,.34.05l1.09,0,.46,0h.12l1.27,0a7.66,7.66,0,0,1,1.17.07h.09c.14,0,.19.06.15.21a1,1,0,0,1-.6,0L11.76,3,10.63,2.9l-.59,0L8.78,2.81l-.86,0-.51,0-.7,0c-.23,0-.45,0-.68,0-.43,0-.85,0-1.28,0S3.68,2.65,3.14,2.63Zm.19.12a3.64,3.64,0,0,1,.87,0,.47.47,0,0,0,0,.1.76.76,0,0,1-.47.05A.6.6,0,0,1,3.33,2.75ZM5,8.82a2.9,2.9,0,0,0,0-.51C5,8.2,5,8.09,5,8c0-.26,0-.51,0-.77s-.06-.5-.08-.75a7.24,7.24,0,0,0-.3-1.24,5.59,5.59,0,0,0-.37-1A2,2,0,0,1,4.15,4a3.92,3.92,0,0,0-.52-.88l-.11-.15a1.16,1.16,0,0,0,.49,0s.11,0,.14-.08.16,0,.27.09a3.1,3.1,0,0,1,.46.73c.11.22.24.42.34.65A7.86,7.86,0,0,1,5.72,6c0,.22,0,.44.08.66a10,10,0,0,1,.1,1.64A8.59,8.59,0,0,1,5.77,9.8a5.8,5.8,0,0,1-.13.6c0,.14,0,.14-.17.16l-.87.12H4.5a.07.07,0,0,1,0,0A4.36,4.36,0,0,0,4.9,9.32,2.89,2.89,0,0,0,5,8.82ZM3.4,10.14c.31-.3.61-.62.91-.93l.43-.44c.06,0,.11-.12.18-.19a1.41,1.41,0,0,1,0,.41c0,.11,0,.22-.06.33a3.35,3.35,0,0,1-.2.83,2.62,2.62,0,0,1-.19.46,1.34,1.34,0,0,1-.27.31.1.1,0,0,0,0,0,.85.85,0,0,1-.55.29.25.25,0,0,0-.12,0h0c0-.07,0-.13-.07-.19s-.05-.38-.08-.57a.34.34,0,0,1,0-.1A.36.36,0,0,1,3.4,10.14Zm-.14-.75-.9-.46V8.4l.38.18.42.22A.2.2,0,0,1,3.28,9C3.28,9.13,3.27,9.25,3.26,9.39ZM1,7.36a.24.24,0,0,0,.26.14h.07c0-.06,0-.09,0-.1l-.11,0a.21.21,0,0,1-.14-.16.42.42,0,0,1,0-.33c0-.06.09-.11.17-.09a.84.84,0,0,1,.28.09.63.63,0,0,1,.24.72s-.05.09-.07.15a.55.55,0,0,1-.3.26A.72.72,0,0,1,.6,8a1.17,1.17,0,0,1-.31-.45c0-.07,0-.14-.07-.2a.67.67,0,0,1,0-.42.43.43,0,0,1,0-.07l0-.06c.06-.22.25-.33.4-.46A.91.91,0,0,1,1,6.21l.3,0a.8.8,0,0,1,.63.14.57.57,0,0,0,.13.08,1.56,1.56,0,0,1,.56.43A.75.75,0,0,1,2.71,7c.07.12.13.25.21.36a1.83,1.83,0,0,1,.23.54,5,5,0,0,1,.11.93l-.93-.45-.12-.48c.35.11.64.3,1,.42v0L3.12,8.2l-.85-.36a.25.25,0,0,1-.15-.15A1.3,1.3,0,0,0,2,7.43c-.12-.18-.17-.41-.34-.55a.5.5,0,0,0-.43-.15A.3.3,0,0,0,1,7,.44.44,0,0,0,1,7.36Zm2.33,9.76a5.33,5.33,0,0,1-.62-.54A6.28,6.28,0,0,1,2.24,16c-.16-.2-.32-.41-.46-.62A4.25,4.25,0,0,1,1.51,15a5.3,5.3,0,0,1-.34-.86c0-.13,0-.27-.07-.41v-.06a1.94,1.94,0,0,1,0-.72,5.33,5.33,0,0,1,.16-1.05c.05-.17.11-.34.17-.5.13-.4.26-.8.41-1.19a6.37,6.37,0,0,0,.26-.95,2.2,2.2,0,0,0,.05-.57,4.53,4.53,0,0,1,0-.52A1.12,1.12,0,0,0,2,7.77l-.12-.31,0,0L2,7.63a2.71,2.71,0,0,1,.29,1.08.41.41,0,0,1,0,.11c0,.14,0,.28,0,.43s0,.25-.07.37,0,0,0,0h0v0c0,.14-.06.28-.1.42-.16.57-.32,1.14-.47,1.72a4.44,4.44,0,0,0-.17,1,4.94,4.94,0,0,0,.08.87c0,.05,0,.08.05.12s.09.33.13.5a5,5,0,0,0,.54,1.23,4.4,4.4,0,0,0,.84,1l.43.41-.11.2Zm.13.67a2.07,2.07,0,0,0-.15.25,1.27,1.27,0,0,0-.06.28,3.59,3.59,0,0,1,0,.47,2.67,2.67,0,0,1-.13.4c0,.08-.09.08-.15.08l-1.31,0h-.2l.12-.15a2.45,2.45,0,0,1,.62-.58l.58-.39a.8.8,0,0,0,.29-.34l.24-.41.34-.56c.15-.28.34-.55.52-.82s.33-.53.49-.8.44-.73.65-1.1c.07-.11.13-.22.19-.33s0-.05.07-.08.08.21.13.32l-.19.3c-.13.21-.27.42-.39.64-.33.56-.64,1.12-1,1.68C3.93,17,3.7,17.42,3.48,17.79ZM6,17.55a1.9,1.9,0,0,1-.25,0l-1.06-.13c-.17,0-.6-.1-.77-.14h0s.07-.11.11-.17.16-.3.25-.45l2.27.26c-.15.23-.29.43-.43.63C6.06,17.54,6,17.55,6,17.55Zm.56.1s0,.09,0,.13a1,1,0,0,1-.1.17.69.69,0,0,0-.12.52.81.81,0,0,1,0,.22,1.62,1.62,0,0,1-.27.56.15.15,0,0,1-.09,0c-.33,0-.65.07-1,.07l-.39,0H4.46v0l0,0,0,0c-.06-.07,0-.1,0-.14L4.73,19a1.67,1.67,0,0,1,.38-.37l.52-.4A1.4,1.4,0,0,0,6,17.79c0-.07.07-.17.16-.18a.79.79,0,0,1,.08-.16L6.49,17a5.25,5.25,0,0,1,.33-.49A4.3,4.3,0,0,0,7.18,16c.18-.27.35-.55.52-.82l.44-.64a2.55,2.55,0,0,0,.37-.59,1,1,0,0,1,.22.28l-.44.67-.56.85c-.07.1-.12.21-.19.32s-.13.22-.2.33l-.19.32c-.06.11-.12.22-.19.33l-.3.52C6.63,17.61,6.6,17.65,6.54,17.65Zm2.63,0H7.44l-.75,0a.31.31,0,0,1,0-.1L7,17l.07-.11,1.28,0c.42,0,.84,0,1.29,0l-.16.31c-.07.13-.14.26-.2.39A.13.13,0,0,1,9.17,17.67Zm.64-.08s-.05.06-.08.1a1,1,0,0,1,0,.11L9.58,18a.59.59,0,0,0-.05.43.54.54,0,0,1-.06.39c-.05.1-.11.2-.17.3a.11.11,0,0,1-.1.07H9.13l-1.2.09h-.2a2,2,0,0,1,.53-.63l.61-.43a1.16,1.16,0,0,0,.36-.4l.39-.75c0-.08.1-.16.14-.24l.45-.92a.94.94,0,0,1,.09-.12c-.05-.06,0-.12,0-.18l.3-.62c0-.09.07-.2.17-.27h0a2,2,0,0,1,.28-.52,4.25,4.25,0,0,1,.32-.54l.22.23s0,.07,0,.12l-.5.94c-.14.29-.27.59-.42.88-.23.45-.48.9-.72,1.36C9.94,17.33,9.88,17.47,9.81,17.59Zm5.23,0a.31.31,0,0,1-.13,0l-1.22.1c-.23,0-.45,0-.68,0h-.44l-1.46,0c-.37,0-.74,0-1.12,0H9.85a1.62,1.62,0,0,1,.06-.17c.09-.18.19-.35.28-.52a.14.14,0,0,1,.14-.09l.48,0,.63-.05.7-.08.77-.12.62-.1a5.63,5.63,0,0,0,.69-.14c.39-.1.77-.23,1.16-.35l.78-.25.39-.15.09,0c0,.1-.05.19-.08.27a5.86,5.86,0,0,1-.26.57,3,3,0,0,1-.54.7A2.39,2.39,0,0,1,15,17.61Zm1.26-7a5.89,5.89,0,0,0,.34,1c.09.26.2.51.28.78s.23.65.33,1a4.55,4.55,0,0,1,.19,1.46,2.74,2.74,0,0,1-.31,1.08,3.41,3.41,0,0,1-.6.81,3.3,3.3,0,0,1-.91.67l-.3.18,0,0,.26-.18a3.47,3.47,0,0,0,.58-.63,3.13,3.13,0,0,0,.5-1,4,4,0,0,0,.14-.6,3.61,3.61,0,0,0,0-.93,4.46,4.46,0,0,0-.14-.89,8.57,8.57,0,0,0-.51-1.39,6.72,6.72,0,0,1-.32-.85,3,3,0,0,1-.09-.61,1.22,1.22,0,0,1,0-.33v.09c0,.1,0,.19.14.23a.22.22,0,0,0,.26-.06h0Zm4-2.89a.91.91,0,0,1-.84.26h-.07l-.24.49h0l0-.61a1.38,1.38,0,0,0-1,0,.56.56,0,0,0-.3.74.34.34,0,0,0,.26.19.64.64,0,0,0,.36,0,.4.4,0,0,1,.15,0c.13-.17.12-.41.23-.62a1.25,1.25,0,0,1,.06.5.28.28,0,0,0,.17.07h.18a.13.13,0,0,0,.15-.09l.07-.18s0-.09.09-.08a.1.1,0,0,1,.1.09.81.81,0,0,1-.06.53.2.2,0,0,1-.15.12l-.22,0a.2.2,0,0,0-.18.17,3,3,0,0,1-.1.32.32.32,0,0,1-.25.21.3.3,0,0,1,0-.1.36.36,0,0,0,0-.32.23.23,0,0,0-.19-.16,1.64,1.64,0,0,0-.93,0,1.08,1.08,0,0,0-.39.28c-.1.1-.18.2-.28.29s-.18.09-.24,0a.34.34,0,0,1,0-.19.38.38,0,0,1,.11-.26.88.88,0,0,1,.35-.31.41.41,0,0,0,.11-.07A.42.42,0,0,0,17.33,9c0-.09,0-.14-.12-.11A1.34,1.34,0,0,0,17,9s-.08.06-.13,0,0-.1.06-.13l.28-.25a.64.64,0,0,0,.14-.22c0-.1,0-.17-.13-.17a.56.56,0,0,0-.39.15,1.39,1.39,0,0,0-.52.8,1.84,1.84,0,0,0,0,.33c0,.13,0,.26,0,.4a1.24,1.24,0,0,1,0,.27.33.33,0,0,1-.11.15.16.16,0,0,1-.24-.12c0-.21,0-.41,0-.61V9.51h0a.3.3,0,0,0,0,.19,1.29,1.29,0,0,1-.11.47l0,0c0,.05,0,.12-.11.11s-.11-.06-.13-.14a1,1,0,0,1,0-.42.89.89,0,0,0,0-.37c-.08,0-.07.11-.08.16s0,.21,0,.32a1.24,1.24,0,0,1-.12.32.17.17,0,0,1-.29.05.49.49,0,0,1-.13-.2,2.34,2.34,0,0,1-.09-.38,1.13,1.13,0,0,1,0-.25c0-.27.06-.54.1-.82A1.91,1.91,0,0,1,15,8l.4-.68a.87.87,0,0,0,.16-.4.51.51,0,0,0,0-.22.33.33,0,0,0-.45-.16c-.05,0-.09.08-.13.12s0,.07,0,.11h0a.41.41,0,0,1,0-.4.35.35,0,0,1,.4-.14.58.58,0,0,1,.39.23,1.14,1.14,0,0,1,.1.19s0,.08.08.1,0-.11,0-.16A2.8,2.8,0,0,0,15.84,6a.74.74,0,0,0-.49-.48,1.25,1.25,0,0,0-.61,0,.56.56,0,0,1,.51-.35,1.21,1.21,0,0,1,1,.34,1.45,1.45,0,0,1,.4.63l0,.07a2.1,2.1,0,0,1,1.23.27.57.57,0,0,1,.25.3.45.45,0,0,0,.38.34c.15,0,.31,0,.46.06l.66,0c.07-.19.15-.25.32-.23a.33.33,0,0,1,.24.33l.17,0c.06,0,.08,0,.08.11A.5.5,0,0,1,20.27,7.74Z"/><path class="cls-1" d="M18.28,7.14a.12.12,0,0,1-.14.08,1.52,1.52,0,0,0-.7.12,1.52,1.52,0,0,1-1,0,1.42,1.42,0,0,0-.61-.09h-.08a.34.34,0,0,1,.16-.26,1.84,1.84,0,0,1,1.41-.36A1.47,1.47,0,0,1,18.28,7.14Zm-2.45,0a2.85,2.85,0,0,1,.78.16,1.38,1.38,0,0,0,.78,0L18,7.13l.12,0a1.63,1.63,0,0,0-1.31-.46A1.51,1.51,0,0,0,15.83,7.12Z"/><path class="cls-1" d="M15.76,7.49l-.14.24c-.08.15-.17.3-.24.45s-.17.34-.25.52a2,2,0,0,0-.06.28c.12,0,.12-.15.21-.19a.49.49,0,0,1,0,.41.43.43,0,0,1-.18.22c-.12.06-.19,0-.2-.09a1.27,1.27,0,0,1,.05-.51,3.83,3.83,0,0,1,.44-.94,3.59,3.59,0,0,1,.25-.33S15.66,7.5,15.76,7.49ZM15,9.05a.33.33,0,0,1,0-.26,5.37,5.37,0,0,1,.48-1l.06-.11s-.07,0-.08.07-.17.24-.24.37a3,3,0,0,0-.28.57,2.29,2.29,0,0,0-.11.52.71.71,0,0,0,0,.14c0,.06.06.07.12,0a.44.44,0,0,0,.21-.42C15.17,9,15.14,9.07,15,9.05Z"/><path class="cls-1" d="M15.73,9.09a.15.15,0,0,1-.25.09.18.18,0,0,1,0-.11,2.59,2.59,0,0,1,.18-.6,3.14,3.14,0,0,1,.44-.75l.11-.12.11,0a3.15,3.15,0,0,0-.5,1.16l.14,0c.05,0,.08,0,.06.07a1,1,0,0,1-.23.35h0c0-.1.15-.18.17-.31-.17,0-.19,0-.15-.17A1.93,1.93,0,0,1,16,8a.36.36,0,0,0,0-.09l0-.08a2.71,2.71,0,0,0-.56,1.26C15.59,9.18,15.61,9.18,15.73,9.09Z"/><path class="cls-1" d="M19.81,7.42s-.08,0-.11,0a.17.17,0,0,1-.1-.06s0-.07,0-.09l.21-.16a.18.18,0,0,1,.2,0,.2.2,0,0,1,0,.19.17.17,0,0,1-.16.1Z"/><path class="cls-1" d="M16.68,7.71l-.1.11a.41.41,0,0,0-.13.25.19.19,0,0,0,0,.16c.12.15,0,.33-.16.37a.16.16,0,0,1-.18-.15.76.76,0,0,1,0-.15,1.17,1.17,0,0,1,.25-.48,1,1,0,0,1,.17-.12h.09Zm-.21.16a.71.71,0,0,0-.23.33c0,.08,0,.15,0,.23a.1.1,0,0,0,.06.1.12.12,0,0,0,.13,0c.1-.08.11-.13.05-.25a.29.29,0,0,1,0-.31A.35.35,0,0,1,16.47,7.87Z"/><path class="cls-1" d="M15,10c-.09,0-.17-.06-.17-.12s.08-.19.16-.18a.2.2,0,0,1,.16.15C15.13,10,15.08,10,15,10Zm0-.24a.08.08,0,0,0-.07.1s.07.07.13.07a.07.07,0,0,0,.08-.06S15,9.75,15,9.76Z"/><path class="cls-1" d="M16,9.94a.15.15,0,0,1,.1.15s0,.07-.05.1-.09,0-.13,0,0-.07,0-.11Zm.07.18,0-.11h0l-.05.08Z"/><path class="cls-1" d="M15.65,9.91a.12.12,0,0,1-.11.13.1.1,0,0,1-.11-.1.13.13,0,0,1,.11-.14A.11.11,0,0,1,15.65,9.91Zm-.14,0c0,.05,0,.09,0,.1a.08.08,0,0,0,.06,0C15.6,9.87,15.56,9.87,15.51,9.87Z"/><path class="cls-1" d="M17.86,7l-.79.1A.89.89,0,0,1,16.4,7a.73.73,0,0,1,.08-.09,1.1,1.1,0,0,1,.67-.11l.21,0,.37.11A.16.16,0,0,1,17.86,7Z"/><path class="cls-1" d="M4.82,12a.59.59,0,0,0-.18-.14.84.84,0,0,0-.48-.12,1.12,1.12,0,0,0-.56.11.51.51,0,0,0-.13.09A1.45,1.45,0,0,0,3.1,13a.72.72,0,0,0,.18.48,1.1,1.1,0,0,0,.78.36.83.83,0,0,0,.38,0c.09-.05.19-.09.28-.15a1,1,0,0,0,.47-.74A1.14,1.14,0,0,0,4.82,12Zm0,1.58a1.07,1.07,0,0,1-1.21.14,1,1,0,0,1-.31-.26.19.19,0,0,1,0-.1,1.13,1.13,0,0,1,0-.81A1.3,1.3,0,0,1,3.44,12a.61.61,0,0,1,.38-.23,1.07,1.07,0,0,1,.8.08,1,1,0,0,1,.4.43,1.26,1.26,0,0,1,.12.48A.9.9,0,0,1,4.79,13.54Z"/><path class="cls-1" d="M4.16,14H4.07a.11.11,0,0,0-.14.07.13.13,0,0,0,0,.17.21.21,0,0,0,.1,0C4.16,14.24,4.21,14.14,4.16,14Zm-.12.2A.07.07,0,0,1,4,14.12.09.09,0,0,1,4,14l.11.05A.1.1,0,0,1,4,14.18Z"/><path class="cls-1" d="M3.53,13.8l-.08.09h0a.12.12,0,0,0,0,.15s.1,0,.14,0a.19.19,0,0,0,0-.14C3.65,13.83,3.59,13.81,3.53,13.8Zm0,.19s0,0-.06,0l0,0a.29.29,0,0,1,.1,0C3.61,13.94,3.6,14,3.54,14Z"/><path class="cls-1" d="M5.39,12.39a.09.09,0,0,0-.12.07.36.36,0,0,0,0,.1s0,.08,0,.09.09,0,.12,0a.24.24,0,0,0,.06-.09C5.48,12.44,5.45,12.41,5.39,12.39Zm0,.2a.06.06,0,0,1-.05-.05s0-.08.08-.1,0,.05,0,.07A.07.07,0,0,1,5.36,12.59Z"/><path class="cls-1" d="M5.12,13.55a.08.08,0,0,0-.12.06.44.44,0,0,0,0,.1s0,.08,0,.09.09,0,.11,0a.26.26,0,0,0,.07-.1C5.21,13.59,5.18,13.56,5.12,13.55Zm0,.19a.06.06,0,0,1,0-.05s0-.08.08-.09,0,0,0,.06S5.14,13.75,5.09,13.74Z"/><path class="cls-1" d="M3.35,11.67a.16.16,0,0,0-.16.14s.07.11.12.12a.13.13,0,0,0,.12-.14A.09.09,0,0,0,3.35,11.67Zm0,.18a.07.07,0,0,1-.07,0,.08.08,0,0,1,0-.05l0,0h.08C3.41,11.8,3.38,11.84,3.34,11.85Z"/><path class="cls-1" d="M3.82,11.4a.14.14,0,0,0-.15.13.14.14,0,0,0,.11.12c.06,0,.12-.05.13-.13A.1.1,0,0,0,3.82,11.4Zm0,.18-.06,0s0,0,0-.05a0,0,0,0,1,0,0h.09A.08.08,0,0,1,3.81,11.58Z"/><path class="cls-1" d="M3.1,13.45a.76.76,0,0,0-.08.11.15.15,0,0,0,.06.16s.1,0,.14-.06S3.24,13.51,3.1,13.45Zm0,.22a.07.07,0,0,1-.07-.08l.06-.08a.37.37,0,0,1,.06.1S3.16,13.66,3.14,13.67Z"/><path class="cls-1" d="M2.94,13a.54.54,0,0,0-.12.09.12.12,0,0,0,0,.16c.05,0,.1,0,.13-.05A.14.14,0,0,0,2.94,13Zm0,.18s0,0,0,0,0-.08,0-.1S3,13.14,2.92,13.17Z"/><path class="cls-1" d="M5.4,13.07a.11.11,0,0,0-.15.07.1.1,0,0,0,0,.09c.08.1.18,0,.18-.1A.08.08,0,0,0,5.4,13.07Zm-.08.14s0,0,0,0l.06,0s0,0,.06,0Z"/><path class="cls-1" d="M5.26,12.07h0c0,.12-.07.15-.15.1a.09.09,0,0,1,0-.12s0-.11.08-.12.13,0,.11.15l0-.06s-.06-.06-.09,0a.12.12,0,0,0,0,.1.07.07,0,0,0,.1,0Z"/><path class="cls-1" d="M3,12.07c-.06,0-.08.06-.1.11a.08.08,0,0,0,0,.12s.09,0,.12,0S3.13,12.05,3,12.07Zm0,.16s-.07,0-.07,0,0-.08.08-.09S3.08,12.2,3,12.23Z"/><path class="cls-1" d="M4.75,14v0a.07.07,0,0,0,0-.1.08.08,0,0,0-.1.05l0,.05a.09.09,0,0,0,0,.12.12.12,0,0,0,.15,0S4.77,14.06,4.75,14Zm-.1.05a.07.07,0,0,1-.05,0,.38.38,0,0,1,.08-.11s0,0,0,.07A.06.06,0,0,1,4.65,14.05Z"/><path class="cls-1" d="M2.87,12.49c-.06,0-.08.07-.1.12s0,.09,0,.11a.08.08,0,0,0,.12,0C3,12.62,3,12.47,2.87,12.49Zm0,.17s-.07,0-.07,0,0-.08.08-.09S2.94,12.63,2.89,12.66Z"/><path class="cls-1" d="M4.78,11.57a.12.12,0,0,0-.1.11.11.11,0,0,0,.1.11c.06,0,.1,0,.1-.13S4.85,11.57,4.78,11.57Zm0,.15s-.07,0,0-.09l.1,0v0S4.81,11.73,4.79,11.72Z"/><path class="cls-1" d="M4.39,11.42c-.08,0-.12,0-.12.1s0,.11.08.11.14-.07.14-.14S4.46,11.42,4.39,11.42Zm0,.15s0,0,0-.06.07,0,.11,0S4.44,11.58,4.38,11.57Z"/><path class="cls-1" d="M4.41,12.72a.46.46,0,0,1-.09.27l-.06,0A.39.39,0,0,1,4,13s0,0-.07-.06a.29.29,0,0,1,0-.31.34.34,0,0,1,.45-.14A.18.18,0,0,1,4.41,12.72Zm-.06,0c0-.1,0-.16-.14-.17a.57.57,0,0,0-.22,0,.2.2,0,0,0-.05.3.3.3,0,0,0,.28.07A.25.25,0,0,0,4.35,12.73Z"/><path class="cls-1" d="M10.31,12.3a1,1,0,0,0-.63-.09,1.09,1.09,0,0,0-.69.51,1.07,1.07,0,0,0-.16.76.68.68,0,0,0,.15.37l.19.18a1,1,0,0,0,.57.25.55.55,0,0,0,.18,0l.33-.1a.88.88,0,0,0,.49-.42,1.24,1.24,0,0,0,.15-.6A1,1,0,0,0,10.31,12.3ZM10,14.17a.91.91,0,0,1-1-1.29.8.8,0,0,1,.3-.38,1.29,1.29,0,0,1,.32-.19.92.92,0,0,1,1.2.77C10.8,14.08,10.08,14.15,10,14.17Z"/><path class="cls-1" d="M8.62,13.25a.14.14,0,0,0-.16.15.1.1,0,0,0,.1.11.15.15,0,0,0,.15-.14C8.71,13.29,8.68,13.26,8.62,13.25Zm0,.19a.08.08,0,0,1-.08,0s0-.06,0-.09h.12A.07.07,0,0,1,8.61,13.44Z"/><path class="cls-1" d="M8.8,13.76a.12.12,0,0,0-.14.12.09.09,0,0,0,.09.1.12.12,0,0,0,.12-.12C8.87,13.79,8.85,13.76,8.8,13.76Zm0,.16a.11.11,0,0,1-.08,0s0-.05,0-.07h.11A.07.07,0,0,1,8.8,13.92Z"/><path class="cls-1" d="M8.66,12.75a.14.14,0,0,0-.16.15.1.1,0,0,0,.11.11.14.14,0,0,0,.14-.14C8.75,12.79,8.73,12.76,8.66,12.75Zm0,.19a.11.11,0,0,1-.08,0s0-.06,0-.09H8.7A.07.07,0,0,1,8.66,12.94Z"/><path class="cls-1" d="M9.83,11.86l-.06,0,0,.11v0c0,.06,0,.09.09.09A.15.15,0,0,0,10,12C10,11.87,9.92,11.84,9.83,11.86Zm0,.19a.53.53,0,0,1,0-.12c.06,0,.12,0,.13,0S9.87,12.05,9.8,12.05Z"/><path class="cls-1" d="M9.6,14.32a.14.14,0,0,0-.14.13.09.09,0,0,0,.08.11.14.14,0,0,0,.15-.12A.1.1,0,0,0,9.6,14.32Zm0,.18s0,0,0-.05l.07-.06,0,0A.21.21,0,0,1,9.57,14.5Z"/><path class="cls-1" d="M9.1,14.08A.12.12,0,0,0,9,14.2a.09.09,0,0,0,.08.12.16.16,0,0,0,.15-.13S9.15,14.08,9.1,14.08Zm0,.18-.05,0a.13.13,0,0,1,.07-.06l0,0Z"/><path class="cls-1" d="M10.15,14.28c-.06,0-.11.07-.12.15s0,.11.08.11a.15.15,0,0,0,.14-.14A.12.12,0,0,0,10.15,14.28Zm-.06.16s0-.07.06-.11S10.2,14.43,10.09,14.44Z"/><path class="cls-1" d="M10.41,12a.13.13,0,0,0-.13.14c0,.07,0,.12.09.12s.12-.08.13-.16A.1.1,0,0,0,10.41,12Zm0,.19s0,0,0-.05a.12.12,0,0,1,.06-.06l.06,0A.21.21,0,0,1,10.37,12.17Z"/><path class="cls-1" d="M11,13.61c-.06,0-.06.05-.09.08a0,0,0,0,0,0,0,.65.65,0,0,0,0,.14s.05,0,.08,0a.13.13,0,0,0,.1-.12v0S11,13.63,11,13.61Zm-.05.22c-.06-.07,0-.1,0-.14S11,13.78,10.92,13.83Z"/><path class="cls-1" d="M10.65,14.05c-.08,0-.11,0-.11.12a.08.08,0,0,0,.08.1.14.14,0,0,0,.12-.12C10.74,14.08,10.72,14.06,10.65,14.05Zm-.06.11.06-.05C10.67,14.18,10.67,14.18,10.59,14.16Z"/><path class="cls-1" d="M9.37,11.94c-.1,0-.15,0-.14.14s0,.12.12.07A.14.14,0,0,0,9.43,12S9.42,12,9.37,11.94Zm-.06.17c0-.12,0-.13.09-.09Z"/><path class="cls-1" d="M8.94,12.31a.18.18,0,0,0-.11.14.1.1,0,0,0,.09.1A.14.14,0,0,0,9,12.42.11.11,0,0,0,8.94,12.31Zm0,.2s-.07,0-.06-.06,0-.06,0-.09,0,0,0,0A1,1,0,0,1,9,12.51Z"/><path class="cls-1" d="M11.07,13.11a.07.07,0,0,0-.1,0c0,.06,0,.13,0,.15s.12-.05.11-.11A.1.1,0,0,0,11.07,13.11Zm0,.14,0,0a.25.25,0,0,1,.05-.08C11.08,13.21,11.06,13.23,11,13.25Z"/><path class="cls-1" d="M11,12.6a.12.12,0,0,0-.1.11.09.09,0,1,0,.17,0C11,12.63,11,12.59,11,12.6Zm0,.12h0a.64.64,0,0,1,0-.07h0S11,12.7,11,12.72Z"/><path class="cls-1" d="M10.77,12.27s-.08.06-.08.11,0,.09.07.1.09-.05.09-.11S10.81,12.27,10.77,12.27Zm0,.16v-.1h0a.43.43,0,0,0,0,.05Z"/><path class="cls-1" d="M10.19,13.14a.3.3,0,0,0-.19-.27.36.36,0,0,0-.49.29.33.33,0,0,0,.12.35.32.32,0,0,0,.38,0h0a.37.37,0,0,0,.17-.31S10.19,13.17,10.19,13.14Zm-.33.37a.3.3,0,0,1-.3-.28.34.34,0,0,1,.32-.32c.18,0,.27.17.28.3A.31.31,0,0,1,9.86,13.51Z"/><path class="cls-1" d="M13.33,12.19A.86.86,0,0,0,12.22,12a.47.47,0,0,0-.09.06,1,1,0,0,0-.43.5,1.09,1.09,0,0,0,0,.64.6.6,0,0,0,.36.44c.13,0,.27.09.4.15a.89.89,0,0,0,.6,0h0a.88.88,0,0,0,.45-.42.84.84,0,0,0,.1-.44A1,1,0,0,0,13.33,12.19Zm0,1.3a1,1,0,0,1-.43.24,1.07,1.07,0,0,1-.8-.15.53.53,0,0,1-.35-.5v0a.78.78,0,0,1,.33-.83,1,1,0,0,1,.18-.13A.89.89,0,0,1,12.8,12a.61.61,0,0,1,.57.35,1.4,1.4,0,0,1,.2.54.56.56,0,0,1,0,.18A.9.9,0,0,1,13.33,13.49Z"/><path class="cls-1" d="M12.41,13.9a.15.15,0,0,0-.14.15.12.12,0,0,0,.13.13c.07,0,.11,0,.11-.13A.14.14,0,0,0,12.41,13.9Zm0,.16a.05.05,0,0,1,0,0c-.05,0-.09,0-.08-.07s.05,0,.11,0A.15.15,0,0,1,12.44,14.06Z"/><path class="cls-1" d="M12,11.84a.12.12,0,0,0-.16,0,.14.14,0,0,0,0,.17.1.1,0,0,0,0,.08A.11.11,0,0,0,12,12,.13.13,0,0,0,12,11.84Zm-.15.15c0-.09,0-.12.08-.15S12,12,11.88,12Z"/><path class="cls-1" d="M13.49,13.6c-.06,0-.08,0-.1.08a.43.43,0,0,0,0,.07s0,.08,0,.1a.18.18,0,0,0,.11,0,.12.12,0,0,0,.1-.13h0A.16.16,0,0,0,13.49,13.6Zm0,.18s-.06,0-.1.06,0-.12,0-.19S13.54,13.73,13.52,13.78Z"/><path class="cls-1" d="M13,13.86a.6.6,0,0,0-.09.13.09.09,0,0,0,0,.12.17.17,0,0,0,.12,0,.09.09,0,0,0,.07-.1C13.09,14,13.06,13.9,13,13.86Zm0,.23L12.92,14s0,0,.06-.08,0,0,0,.06S13,14.05,13,14.09Z"/><path class="cls-1" d="M13.14,11.66c-.08,0-.12.05-.12.13a.11.11,0,0,0,.11.1.15.15,0,0,0,.13-.13A.11.11,0,0,0,13.14,11.66Zm0,.15s0,0-.05-.05l.06,0s0,0,.09,0Z"/><path class="cls-1" d="M11.56,12.22s-.12.11-.11.16,0,.1.09.09a.13.13,0,0,0,.13-.13A.14.14,0,0,0,11.56,12.22Zm0,.17s0,0,0-.05a.18.18,0,0,1,.07-.05s0,0,.08,0S11.57,12.39,11.54,12.39Z"/><path class="cls-1" d="M12.5,11.58a.16.16,0,0,0-.12.13.1.1,0,0,0,.09.1.13.13,0,0,0,.13-.11A.12.12,0,0,0,12.5,11.58Zm0,.17c0-.09,0-.09.07-.12S12.54,11.72,12.47,11.75Z"/><path class="cls-1" d="M13.8,12.54c-.05,0-.1,0-.1.1s0,.14.07.18.14-.09.14-.16A.14.14,0,0,0,13.8,12.54Zm0,.22a.13.13,0,0,1,0-.19s.08.06.08.09S13.82,12.72,13.8,12.76Z"/><path class="cls-1" d="M13.77,13.16c-.07,0-.08.06-.1.1s0,.08,0,.11a.11.11,0,0,0,.13,0,.35.35,0,0,0,.06-.09C13.86,13.19,13.83,13.16,13.77,13.16Zm0,.16c0-.05,0-.08,0-.1l.06,0C13.81,13.32,13.76,13.31,13.72,13.32Z"/><path class="cls-1" d="M11.89,13.65a.09.09,0,0,0-.09.1.13.13,0,0,0,.11.15c.05,0,.09,0,.09-.11A.14.14,0,0,0,11.89,13.65Zm0,.18c-.06,0-.1-.05,0-.12S12,13.76,11.93,13.83Z"/><path class="cls-1" d="M13.54,12a.17.17,0,0,0-.08.19.09.09,0,0,0,.1.08s0,0,.06-.06S13.64,12,13.54,12Zm0,.18h0s0-.08,0-.12S13.62,12.08,13.58,12.13Z"/><path class="cls-1" d="M11.44,12.72c-.07,0-.1,0-.1.11a.12.12,0,0,0,.11.13.1.1,0,0,0,.09-.12C11.54,12.76,11.51,12.72,11.44,12.72Zm0,.16s-.06,0,0-.06,0,0,0-.06l.08.06S11.47,12.88,11.45,12.88Z"/><path class="cls-1" d="M11.64,13.3c0-.08-.1-.05-.16,0s-.05.15,0,.18.11,0,.13,0A.23.23,0,0,0,11.64,13.3Zm-.08.1-.06-.05s0,0,.05-.06l0,.06Z"/><path class="cls-1" d="M13,13c0,.27-.13.34-.38.35s-.33-.14-.32-.35a.38.38,0,0,1,.54-.33.21.21,0,0,1,.12.14A1.29,1.29,0,0,1,13,13Zm-.39.25c.19,0,.27,0,.33-.24a.21.21,0,0,0-.14-.27c-.24-.06-.42,0-.44.28a.2.2,0,0,0,.13.21Z"/><path class="cls-1" d="M8,12.76a1.59,1.59,0,0,0-.26-.32.91.91,0,0,0-.89-.22,1,1,0,0,0-.61.44.5.5,0,0,0-.08.12,1.39,1.39,0,0,0-.15.63v.14a.55.55,0,0,0,.2.43,1.4,1.4,0,0,0,.61.33,1,1,0,0,0,1-.27A1.12,1.12,0,0,0,8,12.76Zm-.4,1.39a1.11,1.11,0,0,1-.74.1C6.56,14.19,6,14,6,13.34a1.29,1.29,0,0,1,.34-.77,1,1,0,0,1,.54-.3.91.91,0,0,1,.9.35,1.06,1.06,0,0,1-.24,1.53Z"/><path class="cls-1" d="M8.19,13.91a.11.11,0,0,0-.13.08.45.45,0,0,0,0,.12.08.08,0,0,0,.11.06.15.15,0,0,0,.1-.11C8.26,14,8.23,13.92,8.19,13.91Zm0,.2c-.06,0-.08-.07,0-.12h.05C8.22,14,8.21,14.07,8.16,14.11Z"/><path class="cls-1" d="M7.72,14.33a.19.19,0,0,0-.17.16.12.12,0,0,0,.13.12c.08,0,.13-.07.13-.16S7.78,14.33,7.72,14.33Zm0,.22s-.06,0-.06-.07,0-.09.08-.09.06,0,.06.07A.08.08,0,0,1,7.68,14.55Z"/><path class="cls-1" d="M7.11,14.41c-.08,0-.17.09-.16.16a.13.13,0,0,0,.12.13.15.15,0,0,0,.13-.17Q7.2,14.41,7.11,14.41Zm0,.22A.06.06,0,0,1,7,14.56c0-.05,0-.08.08-.09s.06,0,.07.07S7.12,14.64,7.08,14.63Z"/><path class="cls-1" d="M6.06,14a.15.15,0,0,0-.13.13.12.12,0,0,0,.12.12.11.11,0,0,0,.11-.13A.11.11,0,0,0,6.06,14Zm0,.17s-.07,0-.09-.06l.1,0C6.12,14.13,6.12,14.16,6.08,14.18Z"/><path class="cls-1" d="M6.51,14.36a.15.15,0,0,0-.13.14c0,.07,0,.11.09.11a.15.15,0,0,0,.15-.15A.1.1,0,0,0,6.51,14.36Zm0,.19s0,0-.06-.05a.07.07,0,0,1,.07-.07s.06,0,0,.05A.13.13,0,0,1,6.5,14.55Z"/><path class="cls-1" d="M5.9,13.54c-.07-.1-.18,0-.19.07a.11.11,0,0,0,.08.14c.06,0,.14,0,.14-.09A.18.18,0,0,0,5.9,13.54Zm-.05.12s0,0,0,0,0-.07,0-.11S5.88,13.61,5.85,13.66Z"/><path class="cls-1" d="M5.88,13c-.07-.1-.18,0-.19.08a.1.1,0,0,0,.08.13c.06,0,.14,0,.14-.09A.18.18,0,0,0,5.88,13Zm0,.12,0,0s0-.08,0-.12S5.86,13.08,5.83,13.13Z"/><path class="cls-1" d="M6.43,12.09l-.09.09s0,.08,0,.12a.08.08,0,0,0,.12,0,.46.46,0,0,0,.07-.1C6.55,12.08,6.49,12.05,6.43,12.09Zm0,.16s0-.05,0-.06.06,0,.09,0S6.46,12.27,6.41,12.25Z"/><path class="cls-1" d="M7.46,11.94a.11.11,0,0,0-.11.12.15.15,0,0,0,.11.12.12.12,0,0,0,.11-.1C7.57,12,7.53,11.94,7.46,11.94Zm0,.17s-.05,0-.08-.06,0-.05,0-.05.07,0,.07.08Z"/><path class="cls-1" d="M7,11.91a.12.12,0,0,0-.11.13.12.12,0,0,0,.11.11.09.09,0,0,0,.1-.1C7.07,12,7,11.92,7,11.91Zm0,.18L6.91,12s0,0,0,0S7,12,7,12.05Z"/><path class="cls-1" d="M6.05,12.41a.12.12,0,0,0-.12.12.14.14,0,0,0,.12.12.12.12,0,0,0,.1-.1C6.15,12.46,6.11,12.42,6.05,12.41Zm0,.17s0,0-.07-.06l0,0s.07,0,.08.08S6.07,12.59,6.06,12.58Z"/><path class="cls-1" d="M7.8,12.15s-.08,0-.08.13,0,.09.08.1.13-.06.12-.12A.12.12,0,0,0,7.8,12.15Zm0,.17c-.07,0-.07-.06-.05-.12s.11,0,.1.09S7.84,12.32,7.82,12.32Z"/><path class="cls-1" d="M8.09,12.47a.09.09,0,0,0-.09.11.12.12,0,0,0,.11.11s.09-.07.09-.12A.1.1,0,0,0,8.09,12.47Zm0,.15s0,0,0,0l0-.06.05.08A.09.09,0,0,1,8.11,12.62Z"/><path class="cls-1" d="M7,13c-.17,0-.27.1-.28.28a.32.32,0,1,0,.63,0A.32.32,0,0,0,7,13Zm0,.53a.28.28,0,0,1-.26-.26A.2.2,0,0,1,7,13c.19,0,.31.11.31.26A.24.24,0,0,1,7,13.5Z"/></g></g></g></svg>