<svg xmlns="http://www.w3.org/2000/svg" viewBox="0 0 130.01 92.59"><defs><style>.cls-1{fill:#792221;opacity:0.55;}</style></defs><g id="圖層_2" data-name="圖層 2"><g id="event"><path id="coming_soon" class="cls-1" d="M63.56,40.35c-.28.29-.65.65-1,1l-.24-.87a1.71,1.71,0,0,0,1.07-.21ZM67.2,67.4l-.27.29.42.21c-.79,2.38-2.66,3.87-5.6,4.66-5.4,1.44-9-1-11-8.43S50.67,52.69,56,51.25c5-1.33,8.38.67,10.44,6.8l-.73.2-.3.25.34-.09.72-.29c.17.51.33,1,.48,1.6.07.25.12.49.18.74-.55.25-.76.26-.69.82,0,.1.5.18.91.17a13.39,13.39,0,0,1,.09,6Zm-7.11-15c-.28.35-.35.43-.39.65l-.13.15.15.07C60.15,52.78,60.16,52.83,60.09,52.44Zm-1.86.33.81,0,1-1-.74.2C59.31,52.08,59,52.36,58.23,52.77Zm-1.14.39,0,.09.7-.37,0-.09Zm-.86,1.45,0,.08.88-.06.33-.09,0-.07-.79,0Zm-.78,0a1.64,1.64,0,0,1,0,.22c.06.19.06.16.32.37l.4-.44-.45-.22Zm-3.1,1.2.13-.14.28-.07-.3-.15C52.33,55.71,52.36,55.56,52.35,55.77Zm-.47,1.45-.29.07-.8.87c.54,0,1.31.23,1.91.31a4.46,4.46,0,0,0,.8-.86c-.67-.17-.57,0-1.15.06C52,57.78,52.17,57.49,51.88,57.22Zm-1,.35-.31-.14c-.33.4-.28.12,0,.43Zm-.28-.91.34-.09.78-.39,0-.09-.84.22Zm-.35.4.76.37c.14-.14.27-.29.4-.43l-.89-.23Zm1,2.84.72-.32v0l-.75.2v.06l-.33.09v-.06l-.42.11-.38.26Zm.77-.12.83-.22v0L52,59.7,50.94,60l.36,0,.42-.13.33-.09,0,.08.42-.11,0-.08Zm1.69,0v0l-.75.2L53,60Zm.78,7.58.3-.53c-.55.14-.81.27-.79.38l.07.26Zm.68-2.11v0l-.41.11-.28.29C55,65.44,55.21,65.31,55.18,65.21Zm5.56,5c-.1.09-.18.19-.28.28C60.86,70.51,60.68,70.55,60.74,70.23Zm2,.17-.41.43.15.08.29-.07C63,70.39,63,70.77,62.79,70.4ZM63.32,66A.64.64,0,0,1,63,66,18.94,18.94,0,0,0,62.2,61c-1.41-5.26-2.65-6.75-5.14-6.13l-.43-.11-.36.39c-1.15.52-1.65,1.48-1.57,3.23a3.22,3.22,0,0,0-1-.67c-.13.15-.27.29-.41.43.53.4.52,1,1.38.9l.12.05c0,.17,0,.34.07.52l-.31.08-.31.22v0l.34-.09.29-.13a28.8,28.8,0,0,0,.68,3.08,27.1,27.1,0,0,0,1.25,3.77,3.38,3.38,0,0,0-1,1l.46,0a3.88,3.88,0,0,0-1.71,1.59c0,.1.42,0,1.2-.16l0,.05-1.17.32,1,.51.34-.08-.07-.27-.35,0a9.47,9.47,0,0,0,1.68-2.12c.93,1.59,2,2,3.55,1.59A2.69,2.69,0,0,0,63,66.32h0l.15.08C63.53,66.15,63.31,66.18,63.32,66Zm.2-3.48c-.2.06-.67.5-.25.51S63.49,62.7,63.52,62.55Zm.41,3.78c-.36-.12-.23.21-.12.36C64.16,66.56,63.94,66.4,63.93,66.33ZM65,66c-.33.19-.16.12-.42.21l-.13.14.3.15C64.92,66.18,64.92,66.21,65,66Zm.42-4c-.55.46-1.11.84-1.19,1.52,0,.07,0,.14,0,.22.44-.3.8-.79,1.1-.94C65.66,62.22,65.67,62.4,65.37,62Zm1.74,4.32a2.84,2.84,0,0,1-.72.06l-.27.29C66.94,66.9,67.1,66.83,67.11,66.31ZM65.05,33.56v0l0,0S65,33.56,65.05,33.56ZM26.82,50.4l.19-.06h0a1.22,1.22,0,0,0-1.64,0A5.94,5.94,0,0,0,26.82,50.4ZM81,30.59l.33-.13-.32.09S81.05,30.58,81,30.59ZM44.26,77.24a12.89,12.89,0,0,1-5.93.23,1.34,1.34,0,0,1-1-1.47l.22-1.42a1.12,1.12,0,0,1,1.36-.94,7.89,7.89,0,0,0,4,0c2.07-.55,2.71-1.71,2.31-3.21a2.09,2.09,0,0,0-1.44-1.66c.17-.66.32-1.37.44-2.13l0-.19-.41.12-.39.2.44,0-.4.19.49.15-1,.76,0,.08.44,0a2.07,2.07,0,0,0-.73.64l-.83-.05-.89,0,.05-.18a3.47,3.47,0,0,0-.43.15c-3-.29-5-1.28-6-4.87-.85-3.18.21-5.43,2.47-6.78v.06l.42-.11,0-.14H37.2a9.56,9.56,0,0,1,2.09-.8A10.88,10.88,0,0,1,44,55.38a1.26,1.26,0,0,1,1,1.42l-.25,1.3a1.24,1.24,0,0,1-1.41,1,6.72,6.72,0,0,0-2.72.26c-1.54.41-2.18,1.31-1.84,2.58A2.07,2.07,0,0,0,41,63.73a.35.35,0,0,1,.08.16l.3-.12.47,0a23.52,23.52,0,0,1,2.6.19l.19.68.33-.09-.14-.52c2.25.42,4,1.52,4.91,4.72C50.74,72.69,49.61,75.81,44.26,77.24ZM42.44,55.86l0,.07.42-.11.72-.27Zm-3.35,1.2v0l.34-.09.77-.46-.83.22Zm-3.92,5.71-.4-.18-.42.11.09.34.4-.19Zm2.64-5.85,0,.13.73-.29v0Zm.57,10.71,0-.1-.42-.19.32-.19-.2,0v0l.18-.08v0l-.34.09-.33.27.43.1-.18.09.26.23Zm.94-3.78c-.69.26-1,.41-1,.47l0,.15C39.05,64.28,39.38,64.07,39.32,63.85ZM41,65.76l0-.07-.42.11-.24.43C40.8,66.09,41,65.94,41,65.76Zm3.67-.32L44.54,65l-.42.12-.32.16,0,.1.35,0,0,.09-.31.19Zm1.4,10.7.07.27.42-.11.34-.39Zm-1.29-1.8,0,.06.78-.11-.05-.15Zm-4.34.27.35.59.19,0-.05-.2ZM40.63,76l-.07-.26L39.29,75l1,1Zm.83.47-.05-.2-.15,0,0,.17-.25.21-.09,0,0-.08.15-.2-.19.05,0,.15-.3.4.41-.34.1,0C41.13,76.54,41.24,76.48,41.46,76.42Zm.25.44-.18-.2-.05-.17-.15,0Zm.3-2.13-.06-.2-.83.22v0l.46,0Zm1.45.75-.86.12-.29.25Zm.12-.89,0,0-.33.09-.78.43.44-.06.41-.11ZM87.83,26.51l-.25.73.73-.26c.3.4.59.81.88,1.22l-.12-.05-.71.37c.5-.14.79-.09.85.15l.25-.07c.37.54.7,1.07,1,1.54h0c-.15-.39-.35-.89-.56-1.44l.37-.1.35-.38,0-.09-.82.22c-.09-.22-.17-.45-.25-.68h0l0,.09.49-.13s.08,0,.09.06l-.35.37a16.1,16.1,0,0,0,2.84-.4l.31-.18,0-.08c-1,.23-1.54.28-1.57.14l-.4.21-.33.09-.44,0,0-.1a2.55,2.55,0,0,0,1.39-1.12l-.83.23,0-.09c-.6.19-1,.36-1.36.48-.16-.44-.31-.89-.45-1.34h0l.33-.13-.15,0-.24.07c-.12-.37-.23-.73-.32-1.08l-1.93-7.21a1.47,1.47,0,0,1,0-.36l2.25-.76-.83.22.4-.17,0-.18-.73.27.36,0-.33.09-1.06.46a1.1,1.1,0,0,1,.19-.56L88.77,16v0l-.42.07,0-.06.41-.14-.42.11-1.13.44-.28.08a1.21,1.21,0,0,1,.38-.33l.26-.07s0,0,0,0l1.6-.43a1.22,1.22,0,0,1,1.5.86l.14.52-.62.17,0,.15.62-.17.6,2.23-.21.06,0,.06-.15,0,0-.06-.19.05-.14.21.53-.15.18-.12,0,.08-.35.12.19.11.19-.08h0l1.36,5.06h0l0,.07-.24.06V25l.19-.05,0,0L95,32.78l-.15.07v0l.15-.08.5,1.86a1.22,1.22,0,0,1-.87,1.49l-2.07.56a1.85,1.85,0,0,1-1.9-.6l-1.23-1.51.35-.14h-.4l0,.06-4.29-5.26a47.89,47.89,0,0,1-3.21-4.4h0A47.84,47.84,0,0,1,84,30.74L84.84,34c-.16-.08-.34-.17-.56-.26,0,.07,0,.14,0,.21a1.58,1.58,0,0,0,.72.73l.41,1.52-.09,0c-.39.51-.79,1-1.19,1.52A2.1,2.1,0,0,0,83,37.53L83,38c0,.19,0,.07.17.29.3-.08.62-.15.93-.2l-.23.1.16,0,.38-.1v0a3.5,3.5,0,0,1,1.25.06,1.21,1.21,0,0,1-.81.71l-1.65.45a1.22,1.22,0,0,1-1.27-.42l.4-.06.18-.11-.21,0-.19,0s-.07.08-.2.12a.61.61,0,0,0-.07-.1l.43-.18.19-.05v0l-.65.19a.36.36,0,0,1,0-.09l.28-.11-.17,0,.15,0,.51-.24v0l-.81.29s0,0,0,0l-.25-.91.19-.05.74-.27-.36,0-.41.11-.18.1-.14-.53.19.15.4-.43h0l0,0v0l-.09,0-.59-.12L80.79,35a.68.68,0,0,0,.2-.46v0l-.15,0-.11.24-.49-1.84.16,0v0l.37-.13.08,0,.34-.09.34-.39-.32.1v0l-.29.05v0l-.18.05s-.08,0-.08,0l.15-.19c-.2,0-.36,0-.52,0v0l-.17,0h0L80,32.08l.21,0,.34-.13-.14.17,0,0,.46-.13h0l.24.13.31-.18c-.22.06-.36,0-.39-.1l-.19,0h0l-.12-.08h0l.22-.08c-.5.14-.76.15-.79,0l-.19.05-.33-1.21.19-.07v0l-.19.07L77.82,23.9l.39-.12v0l-.39.1-1-3.66a1.22,1.22,0,0,1,.86-1.5l1.84-.49a2,2,0,0,1,2,.61l5.9,7c.18.21.35.42.52.64Zm-9.72-3.09.2,0,.15,0,0-.07Zm.38,0v0l-.53.14,0,.07.19,0Zm.11-.34c.48-.15.7-.26.68-.35A1.64,1.64,0,0,0,78.6,23.12Zm.88.39,0-.11-.51.22.36,0Zm.2-.6v-.05l-.19.05c0,.06-.09.12-.32.18l.21,0,.15,0ZM80.9,33l0-.16-.41.11,0,.16Zm2.75,1.92.75.38c.12-.41,0-.33-.05-.66C83.78,34.66,84.21,34.51,83.65,34.91Zm-3.31-4.36v.06l.32-.19v-.05Zm1.32,2.83,0-.2-.19,0,0,.2Zm.19-.66-.51.19.26.23.15,0Zm1.38,5.9v0l.19,0v0l-.35.09v0l.15,0a2.3,2.3,0,0,0,.69-.3l-.19.05Zm-.55.07v0l.19-.05.32-.17-.18,0-.18,0Zm-.16-3.28-.55.36.45.22C82.6,35.59,82.58,35.73,82.52,35.41Zm-.74-5.14-1.89.59.46,0a3.3,3.3,0,0,0,.47-.15l.16.09c.23-.06.33-.15.3-.28l.66-.23v0l.62-.18v-.05ZM83.42,22l-.35,0,0,.1Zm5.52-4.58-.06-.24-.19.06-.09.27Zm2.56,7.47,0,.09.42-.11.58-.82-.75.2Zm.77-.09-.69.18v0l.68-.2Zm-.83.39-.52.19-.19.05v0l.9-.25v0l-.19,0v0l.18-.06Zm-.65-1.78.06.22.18-.1.15,0-.2-.13Zm-.1,1.89h.21l.19-.05s.1-.08.32-.14l-.54.1Zm-.61-4.53.2-.05.29-.27v0l-.19,0Zm-.47,3,0,.09.33-.09.6-1.1A1.22,1.22,0,0,0,89.61,23.81Zm.91,1.46-.19.05-.32.15h.16l.19-.05.17-.15Zm-1.06.27.52-.17h0l-.2,0h0l.34-.09v0l-.16,0a2.89,2.89,0,0,0-.69.28Zm.62.22V25.7l-.33.12v0Zm.55-.11-.19.05-.34.13h0Zm1.05-.28-.37.1.18-.07,0-.08-.33.12h.16l-.15,0-.51.21h0ZM92.89,25v0a3.15,3.15,0,0,1-.89.19l-.33.12.35-.06-.19.07v0l.19,0,.15,0A2.44,2.44,0,0,1,92.89,25Zm-5.75,3.7-.25-.34-.19.05,0,.15-.13.12.38.06ZM89,33.48l-.06-.22-.38.1v0l.24.12Zm.76.1,0,0-.15,0-.32.32h.21l.19,0Zm.93,0,0-.17-.35.09,0,.06Zm.91,1.87-.38.1.08.3.19-.05Zm.7-4.22v0l-.32.16v0Zm0-1.18v0l-.47.12h0L91.6,30l-.32.16c.22-.06.35,0,.37.05l.2-.05h0l.11.06.19-.05Zm.41,6.11,0-.15-.15,0-.08.43C92.66,36.42,92.76,36.31,92.72,36.16Zm.14-.95v-.07l-.19,0-.18.71C92.76,35.82,92.89,35.59,92.86,35.21Zm.3-1.06H93l-.15,0-.15.19.19-.05Zm1.39.38,0,.13.19,0,0-.14Zm-.42-1h.17l.18,0-.06-.23-.19.05Zm.18.06-.16,0,0,.18.16,0Zm-.19.72.15-.05.2,0,0-.13-.19,0Zm-.72-.63-.34.09,0,.14.32-.19Zm-.66-5v0l.19,0,.28-.33-.34.09Zm-.83-.41v0l.15,0,.28-.45A.55.55,0,0,0,91.91,28.3Zm-.37,1.5,0,.1.28-.06v0l.19-.05h.07L92,30a8.21,8.21,0,0,0,1.29-.2l.14-.08v0c-.46.11-.69.13-.71.08l-.18.09-.15,0h-.2v0a1.23,1.23,0,0,0,.64-.46l-.37.1v0C91.81,29.65,91.52,29.76,91.54,29.8Zm-.37-.6,0,.14.19-.05,0-.14Zm-.23.5.52-.18-.24-.15-.16,0Zm-.25,1.8v0l.34-.09.85-.31-.22-.08c-.23.06-.33.13-.31.22ZM90,31.45l0,.09.7-.37,0-.09Zm-2.78.28,0,.09.76-.2.68-.26s0,.06,0,.1l0,.05.19-.05.07-.19.93-.35-.5-.23L89,30.8l.11-.32c-.23.06-.33.15-.3.26l0,.11.11,0c-.24.12-.35.25-.31.41Zm-20.88-10,6.12-1.64A1.21,1.21,0,0,1,73.9,21l0,.09a1.55,1.55,0,0,1-.77,1.76l-.78.4,4,14.77.88,0a1.43,1.43,0,0,1,.71.17L77.2,38l-.41.43c.67.1,1.12,0,1.71.11a1.59,1.59,0,0,1,.26.52v.06a1.12,1.12,0,0,1,0,.48h0v0a1.21,1.21,0,0,1-.89,1l-3.36.91c.24-.36.28-.51.68-.7l.27-.29-.1,0h0l0-.08-.08,0-.11,0a7.2,7.2,0,0,0-1.51,1.15l.28.14-2.18.58a1.23,1.23,0,0,1-1.48-.8,3.24,3.24,0,0,0,.52-.24l-.42.11-.13,0v0a1.51,1.51,0,0,1,.2-1.21,1.12,1.12,0,0,0,.49.06c.69.15.81-.06,1.44-.12.11-.47.2-.15-.18-.52-.52.12-.94.1-1.42.21a2,2,0,0,1,.23-.18l.78-.4-.21-.79.53.07c.13-.45.17-.07,0-.44l-.56.14-.13-.47.08,0,.29-.07-.3-.15-.11,0L70.2,33.15a.52.52,0,0,0,.14-.32v0l-.19.05,0,0L69.61,31l.19-.16h-.23l-.12-.48h.22l.12-.18-.36.13-1.57-5.85-.87,0a1.53,1.53,0,0,1-1.54-1.14l0-.09A1.22,1.22,0,0,1,66.29,21.76Zm5.31,20,0,0-.19,0-.13.11.15,0Zm4.61-3.37c0,.08,0,.15,0,.22l.29-.07c.11-.47.19-.15-.19-.51C76.19,38.33,76.22,38.18,76.21,38.39Zm-2-.17c0,.18.5.1,1,.31l.55-.36-.3-.15c-.66.18-.28.09-.89-.23.14-.3.1-.16.12-.36l-.27.29.15.07C74.15,38.19,74.26,38,74.16,38.22Zm-.88-8.36v0l.72-.28v0Zm-.72,8.42.89.22.54-.57a3,3,0,0,0-.73.06L73,37.84Zm-.89-3.18.2.13.19,0,0-.07.14-.08-.36,0Zm-1.09-4.85.07.23.15,0-.07-.23Zm-.53.9,0,.18.38-.1v0l-.23-.09Zm-20.39,3.4c.3-.08.48-.07.55,0,0-.08-.05-.16-.07-.23l-.5.13ZM91,49.57h0l.46,1.14a11.57,11.57,0,0,0-2.07.72l0,.11a9.65,9.65,0,0,0,2.09-.71,41.24,41.24,0,0,1,1.6,4.6L94.87,62A1.22,1.22,0,0,1,94,63.5l-1.66.44a1.21,1.21,0,0,1-1.49-.86L86,44.91a1.23,1.23,0,0,1,.87-1.5l1.83-.5a2,2,0,0,1,2,.62l5.08,6-.2,0-.33.14-.41.11-.43.07v0c.57-.08.88,0,.92.12l.7-.22.57.68a36.15,36.15,0,0,1,3,4.28h0a53.45,53.45,0,0,1-1.88-5.35l0-.13L99.1,49l0-.08c-.36.1-.84.2-1.4.3l-1.85-6.91a1.22,1.22,0,0,1,.86-1.5l1.63-.44a1.24,1.24,0,0,1,1.5.87l4.87,18.17a1.23,1.23,0,0,1-.87,1.5l-2.07.56a1.85,1.85,0,0,1-1.9-.6L94.24,54A47.56,47.56,0,0,1,91,49.57Zm4.49,5.86.41.17.42-.11,0-.1.32-.15-.78.1Zm14-35.52ZM81.72,38.43l.14-.06-.15,0ZM45.51,27.32,49,26.38a1.6,1.6,0,0,1,1.79.76l4,7.13a27.11,27.11,0,0,1,1.35,2.78h0l-.36.31c.19,0,.33-.1.44-.14.2.5.4,1,.58,1.55h0c-.14-.69-.24-1.3-.32-1.9a1.21,1.21,0,0,0,.7-.47v0l-.41.11-.3.23c-.08-.59-.13-1.16-.16-1.76l.44-.2-.43.07h0c0-.13,0-.27,0-.4l.36-.07.31-.2-.68.21c0-.16,0-.32,0-.48l-.08-2.22,0,0h0v-.25l.28-.17v0l-.28.07L56,25.74a1.54,1.54,0,0,1,1.14-1.54l3.84-1a1.24,1.24,0,0,1,1.5.87l2.38,8.89-.28.24,0,.06.32-.08,0,.14a20.79,20.79,0,0,0-2.43.44l-.31.16v0c1-.24,1.52-.31,1.55-.21l.4-.18.33-.09.44,0,0,.07a2.93,2.93,0,0,0-.91.47L64,33.88l-.15,0,0,.2c-.12.1-.24.18-.36.3l.47-.13a6.91,6.91,0,0,0-.49,1.38v0l-.42.11-.63.65.76-.2.28-.45a13.33,13.33,0,0,0-.26,1.65l0,.1.19,0,.18-.11h-.21l.18-.1-.22-.09.46-.38v0h-.2a1.37,1.37,0,0,0,.54-.85l-.23-.09a1.9,1.9,0,0,0,.66-1.19c0-.09-.21-.08-.56,0l0-.05.53-.14-.23-.23h.05l0,.07.78-.26,1.19,4.46a8.94,8.94,0,0,1-3.19.64l-.27.29c1.16-.07,2.42-.15,3.65-.25l.69,2.57-1.62.46v0l.42-.09v0l-.41.14.42-.11,1.14-.41h0l0,.16h0l-.42.12c0,.06-.22.16-.72.29l1.19-.23,0,0,0,.12a1.14,1.14,0,0,1,0,.66l-.16.05-.31.19v0l.35-.09,0,0,.11,0a1.22,1.22,0,0,1-.82.74l-1.89.51a1.24,1.24,0,0,1-.81-.07l.28-.12v0l-.34.09v0L63.6,44a1.75,1.75,0,0,0,.46-.05v0l-.16,0-.31.08a1.25,1.25,0,0,1-.47-.67l-.45-1.68a6.32,6.32,0,0,1,1.62-1.38c-.06-.19,0-.16-.32-.37l-1.66.4-.06-.21c.37-.28.27-.09.4-.43L62.2,40,62,39.12A4.62,4.62,0,0,1,63.31,39c.11-.46.19-.15-.19-.51a10,10,0,0,1-1.21.42L61,35.58c-.9-3.37-1.5-6.31-1.78-7.82h-.06c0,.09,0,.2,0,.3l-.7.33,0,.06.69-.32a62.91,62.91,0,0,1,.43,7.08l0,2.68h0l-.34.09.38.17,0,2.52a1.68,1.68,0,0,1-1.2,1.56l-1.65.44A1.65,1.65,0,0,1,55,42L52.3,37.51a71.65,71.65,0,0,1-3.39-7h0c.28.81.74,2.17,1.22,3.69l-.6-.88-.15,0,.1.38.18,0a17.44,17.44,0,0,0-.35,5.06l0,.17.19,0,.17-.13-.21,0,.17-.11-.25-.19.42-.54,0-.07-.21,0A1.87,1.87,0,0,0,50,36.6l-.25-.18a2.82,2.82,0,0,0,.49-1.74c.36,1.17.73,2.42,1,3.6l1.21,4.52a1.72,1.72,0,0,1-.48,0l-.54.57c.17.23.12.1.17.3.36-.09.66-.26,1-.36l.57,2.12h0l0,.1h0l.1.39a1.22,1.22,0,0,1-.87,1.49l-1.47.4a1.23,1.23,0,0,1-1.5-.87l-.21-.76c.23-.09.36-.15.35-.18l0-.1-.36.11-.09-.34.17,0,.72-.34-.42.11-.49.22L44.65,28.82A1.23,1.23,0,0,1,45.51,27.32Zm4.64,17.52.25.18.15,0-.07-.27-.34.09Zm1.18,1.36.76-.15,0-.11Zm-.14,1.33,0,.16.42-.12.29-.25Zm-.49-9.7c.25-.07.36-.18.32-.33l-.11-.39-.18,0Zm.2,2.11,0,.07.19-.06.07-.34C51,39.67,50.86,39.78,50.9,39.94Zm-.21,5.55-.32.2,0,.14.44.28-.3.24h.2v0l-.17.1v0l.34-.09.32-.34-.46-.18.18-.09Zm-.29-4.93.15.07c.13-.29.1-.15.11-.36A3.58,3.58,0,0,1,50.4,40.56Zm-.61,3,.07.23.31.43.15,0,0-.19h-.16V43.9l.1-.24L50,43.47Zm14.14,0,0-.07-.34.09,0,.07Zm.32-.33v0l-.19,0-.33.14Zm2.58-.24-.38.1v0l.39-.05.48-.16-.18-.09-.18.08-.16,0v-.07l-.19,0v.07ZM66,42.79v0l.34-.09,0-.08Zm-.41-.15-.22.14-.39.11h.45l.33-.08,0-.09-.08,0,.09-.11v0Zm-.35-2.92c.34-.14.13-.3.11-.37C65,39.23,65.15,39.56,65.26,39.72Zm-.57.13-.14.15c.51.09.27.1.57-.14C64.86,39.9,65,39.89,64.69,39.85Zm-.88,0,.29-.08.3.15c.21-.32.22-.29.25-.5A3.72,3.72,0,0,0,63.81,39.85Zm-.72.06.15.07c.14-.29.1-.15.12-.36Zm1.22-2.63a1.27,1.27,0,0,0,1-.88l0-.07-.25.07s0,0,0,0L65,36.13l-.18,0-.09.42a.45.45,0,0,0,.14-.06Zm.4.64,0,0,.18-.05.11-.22C64.79,37.75,64.69,37.82,64.71,37.92Zm-1.13.75A6.42,6.42,0,0,0,66,38.41l.15.08c.12-.45.16-.07,0-.44a9.63,9.63,0,0,1-2.31.34ZM63,38l.06.23.19-.05.14-.08v0h-.16l0-.05.14-.09ZM62.38,26.5l0,.07.3-.24,0-.09Zm-1.7-1.07-.43.06.07.24.42-.11.28-.28Zm-1-.6.07.25.41-.12.38-.73ZM58,41.81l-.27.29.16.08C58,41.88,58,42,58,41.81ZM58.63,34l.06.19.79.17L59,33.86ZM58.5,40.8l-.26.29c.51.18.28.07.6.3.3-.53.29-.18.1-.58A.94.94,0,0,1,58.5,40.8Zm0-.66a2.87,2.87,0,0,0-1,.57l.3.15.57-.13C58.54,40.32,58.52,40.46,58.45,40.14Zm-.7-.37c.35-.13.13-.29.12-.36C57.52,39.29,57.65,39.62,57.75,39.77Zm.34-3.15.13-.1-.36,0-.16,0,.23.24.19-.05ZM57.21,31h.17l.19-.05-.06-.23-.19.05Zm.18.05-.15,0,0,.19.15,0Zm-.14,4,.83-.22v0h-.44l-.42.11ZM57,41.51l.15.07c.44-.38.42-.23.54-.57A3,3,0,0,0,57,41.51Zm-1.45-4.64v0l.37,0-.05-.17Zm-2.65-2.79-.35.31.82-.22,0-.2Zm-.6-1.25.22.82.33-.1-.22-.81Zm-1.78-.11v.05l.38-.1,0-.14Zm-.89,10.81,0-.15-.41.15-.34.09.37,0Zm-.43-3.72.11.39.18-.05.14-.11,0-.08-.17,0,0-.08.13-.13Zm-.32.75,0,.14.35-.09,0-.14Zm-.14.24.1.38.19,0-.1-.38ZM48.59,39l-.15,0,0,.18.16,0Zm-.29-.48.05.18.15,0,0-.18ZM47,35.36l.07.28.56.17-.44-.5Zm-.63-1.74.07.27.15,0-.06-.23.19,0,0,.14.19-.05-.09-.33-.19.05C46.74,33.48,46.64,33.55,46.41,33.62Zm-.09-.34.06.24.15,0-.06-.24Zm34.29-.93h-.2l-.14,0-.1,0,0,0,.06.25a.88.88,0,0,1,.45-.32ZM80.25,67.6c-5,1.33-8.4-.6-10.48-6.72.15,0,0,0,.44-.29l-.46-.22a1.15,1.15,0,0,1-.09.19c-.06-.19-.12-.4-.18-.6l.11.12.13-.15-.29-.14-.18-.61c-2-7.48-.08-11.45,5.29-12.89,2.64-.71,4.85-.47,6.64.84l-.63.16-.32.17-.41.11-.44,0,0,.07c.58,0,.91.07,1,.34.46-.17.9-.31,1.34-.46,1.6,1.42,2.85,3.78,3.77,7.2C87.51,62.3,85.69,66.14,80.25,67.6Zm-7-16.07-.53-.32-.33.09.27.31h.61Zm-1.17,4.11v.06l.72-.31v0ZM71,49.26l1,.3-.4.18.61.6.7-.38-.07-.26-.94-.5.68-.46-.44,0,0-.1.39-.2,0-.08-.75.2Zm.73,11.86-.27.29.16.07C71.72,61.19,71.68,61.33,71.7,61.12Zm0-1.23-.32-.37c-.37.29-.28.09-.4.43,0,.19,0,.07.16.29a1.85,1.85,0,0,0,.14-.14C71.59,60,71.42,60.09,71.75,59.89Zm.59-3.41,0,0-.78.1-.41.11v0l.86-.12Zm.39,4.73c-.14.29-.11.15-.12.36l-.14.14a1.19,1.19,0,0,0,.16.08C72.93,61.26,72.91,61.61,72.73,61.21Zm.71,1.15v0h-.37l.06.23Zm1,1.62v0l-.78.12,0,.19ZM77,65.87l-.18-.69-.49.13.09.35ZM80.7,56c-1.43-5.32-2.68-6.79-5.22-6.11a2.75,2.75,0,0,0-2.29,2.9l0,0-.33.09.1.36h.26c0,.09,0,.19,0,.29l-.13.24.15.12a12.79,12.79,0,0,0,.2,1.36l-.16.07.17,0c.14.75.33,1.59.59,2.54,1.44,5.38,2.7,6.91,5.25,6.23a4.92,4.92,0,0,0,.87-.33l0,.59.29-.08-.16-.58C81.86,62.68,81.92,60.59,80.7,56Zm1.62.66.31-.18-.79,0-.34.09L82,57l.42-.11Zm1.9,5-.42.11L84,62l.07,0Zm.33-.29a1,1,0,0,0-.93-.79l-.09,0,.1.34Zm.75.17c-.11-.41-.26-.6-.45-.55l-.13,0-.27-.79-.1,0,0,.13.26.71h0l.06.22Zm14.6-41.9.2,0v0l-.21.06ZM32.38,50l-.12,0v0l.41-.15v-.05l-.43.08.72-.31-.83-.11,0-.07c-.39.11-.76.22-1.13.35a8,8,0,0,0,.79.76Zm74.06-16.54c-4.79,1.28-8.38-1.14-10.38-8.59-2.11-7.86.09-11.49,5.35-12.9A9.24,9.24,0,0,1,107,12a1.15,1.15,0,0,1,.69,1.52l-.6,1.53a1.29,1.29,0,0,1-1.61.74,4.49,4.49,0,0,0-2.86-.15c-2,.53-2.77,1.47-2.55,3.94a8.28,8.28,0,0,0-1.35.49l.42-.11.94-.28a5.06,5.06,0,0,0,.06.53l-.44.15v.05l.44-.12a27.74,27.74,0,0,0,.66,3c.3,1.14.6,2.09.9,2.9l-.07.11.1,0a10.47,10.47,0,0,0,1,2c-.13.05-.21.1-.2.15l0,.07.11,0c-.25.09-.37.19-.34.29l-1.49.46,0,.05.75-.2.69-.23s0,0,0,.07v0l.19-.05.1-.13.42-.14a2.7,2.7,0,0,0,3.21.94,3.76,3.76,0,0,0,2.08-1.35l-1-3.75-1.39.37a1.23,1.23,0,0,1-1.5-.86v-.06l.67-.74a1.76,1.76,0,0,0-.76.4l-.24-.88a1.22,1.22,0,0,1,.87-1.49l4.58-1.23h0l-.33.12v0l.34-.09v-.05a1.23,1.23,0,0,1,1.48.86l.57,2.14V23l-.14.15.15.07,0-.09,1.81,6.75a1.22,1.22,0,0,1-.87,1.49l-.83.23a1.83,1.83,0,0,1-1.91-.66l-.06-.11A5.4,5.4,0,0,1,106.44,33.42ZM112.19,29l0,.07.49.15.42-.11-.09-.34Zm-.38.32.1.35.45.34-.36-.74ZM106.36,21l-.48.16.17.05.19-.07.15,0v.05l.19-.05v0h-.2l.38-.11h0Zm-.87.24.53-.15.32-.16v0L106,21v0l-.15,0v0l-.19.05Zm-.24.46v0l-.19.06-.31.21.19-.05Zm.3,1.86-.18-.06-.19.05,0,.13.18-.08Zm1.26.23-.75.2-.34.43,0,.05.42-.11Zm.35-2.68h0l-.34.09v0Zm3.18,9.2-.72.3v.06l.72-.32Zm-.76-5.8-.14.08.34-.1,0-.17-.19.06-.14.06v0h.16Zm.08-1,.34-.09,0-.17-.35.09Zm.16-.77.12.45.19-.05-.12-.45Zm-.65-2.61h.16l.38-.1A2.44,2.44,0,0,0,109.17,20.07Zm0,1.84-.32.16.79-.08.34-.09-.43-.23-.41.11Zm-1.22,2.77-.11.17c.22-.06.33-.12.31-.19v0Zm-.37-3.5.36-.2-.38.1-.13.13h0ZM107.9,26l.12-.33c-.25.07-.37.14-.35.21l0,.17Zm.65,1.67.15,0,0-.17h-.16a6.19,6.19,0,0,0,1-2.49l0-.07-.19.05-.18.09.2,0-.18.08.21.06-.48.32v0l.2,0a1.36,1.36,0,0,0-.6.68l.22.05a1.72,1.72,0,0,0-.72.93c0,.07.2.05.55,0v0l-.53.14Zm-6.27-15.58,0,.15.73-.27ZM96.15,18.7v-.06l-.53.14,0,.07Zm.63-.38v0l-.51.23.19-.05Zm1.32,2,.15,0,.35-.21,0-.06-.37.1Zm0,3-.35.06v.06Zm.68-3.05-.34.07-.83.22,0,.08.42-.11Zm1.9,6.89-.14.09H101l.15,0-.21-.19-.19.05Zm1.2,3.88-.08-.28,0-.17-.15,0Zm.5-1,0-.13-.38.1v0l.22.05Zm2,1.09.05.18.19-.05.14-.23Zm-1.73-.86h.2l.19,0,.11-.18v0l-.15,0Zm0,.49.53-.18-.4,0Zm.85,2.56-.19.05-.31.2h.2l.15,0Zm.6-3.39,0-.1-.34.09v0Zm-.17,2.11.34-.09,0-.1-.33.16Zm.74,0-.49.13,0,.07.15,0Zm.42.34-.2-.73-.15,0Zm-2.23-4.11,0-.07-.07.11ZM85.61,36.89c-.26,0-.37.1-.77.3a1.77,1.77,0,0,1,.9.6.93.93,0,0,0,0-.29l-.31,0c.09-.08.17-.17.26-.26Zm-53.7,13.7.27-.07c0-.11.31-.34,1.06-.69l-.57.05.34-.09.79-.41h-.9l.41-.15-.27-.1a27.6,27.6,0,0,0,3.61-1h.14l-.53.2a14.57,14.57,0,0,1-2.25,1c-.11.24-.11.2-.11.29l-.24.11,0,.06.21-.1c0,.19,0,.07.17.29,3-1.49,6.08-2,9.15-3.89l-.3-.15a20.15,20.15,0,0,1-3.84,1.46,2.2,2.2,0,0,0,.69-.85,9.49,9.49,0,0,0,3.65-1.62L43,44.69a12,12,0,0,1-3,1.38,2.86,2.86,0,0,0,.11-.54.8.8,0,0,0,.2-.29l-.17.07c0-.14,0-.3,0-.45l.56,0c.33-.38.48-.55.52-.79a6.58,6.58,0,0,1-.84.42,2.73,2.73,0,0,1-.23.25A10.53,10.53,0,0,0,40,43.4a2.62,2.62,0,0,0,.41,0c-.16-.27-.06-.12-.44-.22h0c.84-.4,2.69-.78,2.91-1.71-.85.44-1.9,1-3,1.44-.14-.85-.36-1.82-.66-3-1.43-5.32-2.68-6.79-5.22-6.11s-2.89,2.58-1.46,7.9c.1.39.2.75.31,1.09h0l.1.39h0c.24.79.49,1.48.73,2.06-.29.11-.58.22-.86.31-.13.29-.1.15-.12.36s0,.15,0,.22a8.9,8.9,0,0,1,1.07-.64,9.67,9.67,0,0,0,.6,1.13,4.93,4.93,0,0,0-1.59.6l-.15-.07-.25.51A2.89,2.89,0,0,0,34.68,47a3.53,3.53,0,0,0,.54.55h0C34,48,33,48.63,31.81,49.07a4.66,4.66,0,0,1-1.19.24L30.37,49l.26-.07c.3-.53.29-.18.1-.58l-.47.51a13.22,13.22,0,0,1-1-1.72A12.14,12.14,0,0,1,32,46.23c.3-.53.28-.18.1-.58a10.23,10.23,0,0,1-3.08,1.06,22.3,22.3,0,0,1-1.25-3.59c-2-7.47-.09-11.44,5.29-12.88,5.07-1.36,8.54.76,10.59,7.26-1.5.41-2.19.81-2.08,1.22a13,13,0,0,0,2.17-.9c.09.29.18.58.26.89,2,7.53.2,11.38-5.24,12.84C36,52.29,33.75,52,31.91,50.59Zm.72-2.22-.75.2v0l.47.08.33-.09Zm-.52-.61.29-.25-.38-.1-.42.11,0,.19.53.28.32-.09,0-.15-.34,0Zm-4.26-8.21.34-.09-.05-.2-.34.09ZM28.73,45c-.35-.13-.22.21-.11.36C29,45.25,28.75,45.1,28.73,45Zm.35-5.56L29,39.2l-.42.11c0,.08-.22.18-.72.32l.06.23.54.37-.25-.66.41-.11,0,.12Zm1.65,6.14-.08-.31-.42.11.08.31Zm.66-.55,0-.12-.76.2,0,.12ZM31.71,44l-.56.36.15.07C31.68,44.11,31.58,44.31,31.71,44Zm2.52-12.13-.44.05-.33.09-.37.3.42-.11Zm.63-.65v-.06l-.76.2,0,.2Zm2-.13-.07-.25-.33.09.07.25Zm.33-.43-.08-.31-.42.11-.26.33.35,0Zm2.86,10.53c.22-.33.22-.29.25-.51l-.55.36Zm.59.08-.41.43.16.08.28-.07C40.82,41.23,40.86,41.61,40.66,41.24Zm2.47,1.85c.17.22.12.1.17.29l.15.08c.21-.45.19-.45.08-.8Zm-1.33-.23-.3-.15c-.39.27-.44.2-.54.57l-.13.15.3.15Zm.51.88c.29-.53.29-.18.1-.58-.64.35-.87.39-.95,1a1.8,1.8,0,0,1,0,.22C41.84,44.15,42.15,43.8,42.31,43.74Zm1.2.59c.3-.52.29-.18.11-.58-.59.43-.42.33-1,.35-.13.3-.1.16-.11.37s0,.14,0,.22l.14-.15ZM41,46.4l-.33.09-.8.34,0,.07.83-.22ZM41.62,48l.15.07c.21-.32.22-.3.25-.5C41.89,47.74,41.75,47.88,41.62,48Zm-2.69,2.15c-.46.25-.48.35-1,.36-.13.14-.27.28-.4.43l.29-.07C38.39,50.82,38.8,50.67,38.93,50.18Zm-1.53-1,.15.07c.44-.38.43-.23.54-.57A3.31,3.31,0,0,0,37.4,49.22Zm-.1.58-.55.36.15.07C37.27,49.94,37.18,50.13,37.3,49.8Zm-.88-.23.14.07c.39-.27.44-.2.54-.57A3.4,3.4,0,0,0,36.42,49.57Zm-11,4.92c-1.36.47-2.63.87-3.8,1.18l0,.11a21.76,21.76,0,0,1,2.74-.45l.66-.18a11.27,11.27,0,0,1-1.24.41c-5.64,1.51-9.1-1-11.09-8.4-2.13-7.95.06-11.48,5.29-12.88a9.42,9.42,0,0,1,4.57-.21,1.21,1.21,0,0,1,.92,1.43L23.17,37a1.21,1.21,0,0,1-1.43.92,5.35,5.35,0,0,0-2.48.07c-2.87.77-3.17,2.24-1.73,7.62a26.87,26.87,0,0,0,1.1,3.35,2.18,2.18,0,0,1-.36,0c0,.19-.07.38-.1.58a4.52,4.52,0,0,0,.75.1,5.17,5.17,0,0,0,1.31,1.8c-.26.1-.28.08-.43.38l-.13.14a1.18,1.18,0,0,0,.85-.21l.15,0a3.13,3.13,0,0,0,2.31.09,5.64,5.64,0,0,0,.62-.21,10.05,10.05,0,0,0,2.7-.36c.35-.14.69-.38,1-.54l.67.66a1.3,1.3,0,0,1,.1,1.78,7.61,7.61,0,0,1-2.15,1.66C25.64,54.73,25.46,54.65,25.42,54.49ZM21.65,34.6v.07l.84-.23-.06-.19ZM18,50.3l.59.53.33-.09-.07-.26-.34,0,0-.06.26-.35-.41-.23-.42.11Zm.4,1.47.5.2.33-.09-.1-.37-.75.2Zm1.36,2.08.75-.53-.94-.16L20,53l-.56-.41-.71.34.06.19.88.3-.7.4.44-.06v.07L19,54l0,0Zm1,.26-.3-.15-.27.29.3.15Zm3.61-1.19-1-.45-.28.07c-.11.46-.2.15.19.51C23.38,52.9,24.19,53.06,24.32,52.92Zm97.12,9.22c-.14-.19-.17-.27-.21-.3l-.38.1c0,.08,0,.05-.06.19a2.78,2.78,0,0,0,.46.57l.31-.08C121.47,62.16,121.61,62.36,121.44,62.14Zm-1.66,1.78c-.32.11,0,.24.23.28C120.1,63.92,119.84,64,119.78,63.92ZM127.23,60a2.35,2.35,0,0,0-1,.06c.17.25.07.15.24.29s.28,0,.76-.19A1.24,1.24,0,0,1,127.23,60Zm2,2.06c0-.21.1-.4.15-.6-.15.25-.31.56-.49.88Zm-3.44-2.77c-.11.16-.23.32-.35.47a1.92,1.92,0,0,1,.17.13c.08-.15.11-.4.19-.55A.09.09,0,0,1,125.76,59.32Zm-6.6,4.07a9,9,0,0,1-.37,1.11.94.94,0,0,0,0,.16c.53-.45,0-.3.68-.51a2.86,2.86,0,0,1-.05-.84Zm4.42-1.1.15,0c-.17-.61-.16-.68-.54-.88l-.23.39c.07.14,0,.19.54.21C123.53,62.08,123.55,62.18,123.58,62.29Zm-1.87-.58c.09.21.18.43.26.64l.12-.2.42-.27c-.05-.15-.08-.26-.11-.36ZM125,60.22l-.13.11a1.84,1.84,0,0,1,.78,1.11c.38-.34.22-.32.72-.35,0-.1,0-.21-.08-.32A3.9,3.9,0,0,1,125,60.22Zm-4.19,2.59c.16.25.07.15.23.28l.19.13c0-.06,0-.11,0-.16l.31-.08A3,3,0,0,0,120.8,62.81ZM124,61.18l-.15,0,.12.48a2,2,0,0,1,1.11-.11l.45-.11-.27-.45A5.85,5.85,0,0,0,124,61.18ZM85,72.09l.15,0c-.17-.25-.07-.15-.23-.28C85,71.88,85,72,85,72.09Zm37.75-9.77-.31.07c.19.09.06.06.35.09C122.81,62.43,122.79,62.38,122.78,62.32Zm-.72.35.12.48.3-.08C122.22,62.59,122.5,62.8,122.06,62.67ZM114.51,5.52c-.14-.31-.11-.3-.27-.44L114,5a2.23,2.23,0,0,0,0,.68Zm.37-1.44c-.12-.36-.14-.45-.31-.6a2.17,2.17,0,0,0,0,.67Zm5.73,59.29c-.13-.08-.25-.17-.38-.24l-.61.14c.16.26.07.15.23.29.24.31.3.15.73.33Zm-8-59.59c-.49.23-.9.39-1.35.56a5.39,5.39,0,0,1,1.58,1.36,3.41,3.41,0,0,0,.44-.56l.27-.23c-.3-.34,0-.13-.39-.25,0-.11,0-.21-.08-.32.46.06.4.15.73.33a.94.94,0,0,0,0-.16c.07-.23,0-.15-.16-.64l-.87.39C112.7,4.1,112.66,3.94,112.61,3.78ZM90.25,70.14a3,3,0,0,0,.23.43l.8,0c-.08-.42-.16-.52-.08-.66ZM115,4.56c.19.09.06.05.35.08.12-.16,0-.06.26-.23-.26-.52-.18-.39-.61-.53-.13.46.08.18-.38.43C114.92,4.65,114.57,4.45,115,4.56Zm-.71,2c.17.26.07.15.23.29s0,.1,0,.16l.15,0C114.46,6.52,114.74,6.73,114.29,6.59ZM119,17.69l.24,1A.92.92,0,0,0,119,17.69ZM86.44,71.91l.46-.12c-.06-.21-.11-.42-.16-.64l-.15,0c-.11.44.1.1-.23.4C86.39,71.69,86.41,71.8,86.44,71.91ZM115.05,5.4a3,3,0,0,0-.08-.32l-.3.07a3,3,0,0,0,.08.32Zm13.34,52.8-.49,0c0,.16.08.32.11.48l.12-.2C128.37,58.27,128.27,58.38,128.39,58.2Zm.08-.68h0s0,0,0,0S128.31,57.5,128.47,57.52Zm-59-44.17.15,0c-.3-.34,0-.14-.38-.25a1.7,1.7,0,0,1-.38.43c0,.11,0,.22.08.33A1.14,1.14,0,0,0,69.47,13.35Zm60.34,47.58a1.73,1.73,0,0,0-.46.56,5.54,5.54,0,0,0,.25-1,11.3,11.3,0,0,0-.83-2.69c.29-.13-.1-.07.2-.2-.05-.22-.11-.43-.16-.64l-.16,0c0,.05,0,.1,0,.16-.23.3.08.18-.15.34h-.09s0,0-.12-.1a3,3,0,0,0-.08-.32c.25-.15.11-.12,0-.17l.14,0c.23-.14-.15-.11-.29-.09a.21.21,0,0,1,0-.16c-.06,0-.09,0-.09,0s0,.12,0,.18h.06a.19.19,0,0,0,.15.12h0a.94.94,0,0,1,0,.16l-.19-.13c-.26-.22-.35-.52-.65-.68a1.37,1.37,0,0,1-.2-.13,5.13,5.13,0,0,1,.26,2.32c-.64,0-.37-.11-1,.07,0,.22.1.43.15.64.56.07.61.19.85.81l-.15,0c0-.11,0-.22-.08-.32-.44-.16-.44-.28-1-.25-.08.13-.16.26-.23.39l0-.16c-.17-.16,0-.21-.21-.38a5.46,5.46,0,0,0,.69-4.4L113.91,8c.06.13.12.25.17.37l.15,0c0-.22-.1-.43-.16-.64.53,0,.22-.14.54.21,0,.23,0,.57.51.72l0-.16c.1-.42-.34-.5-.24-1s.2-.8.37-1.44a3.21,3.21,0,0,0,.8,0c.16.43.31.85.46,1.28l.07.29c-.28.1-.18-.12-.24.23a55.65,55.65,0,0,1,1.91,7.87,2.89,2.89,0,0,1-1-.25c0,.1,0,.21.08.32.48.37.35.6,1.11.57a23.05,23.05,0,0,0,1.11,3.13l.15,0a2.6,2.6,0,0,1-.09-.64l10.47,41a3.17,3.17,0,0,0-.12,1C129.54,60.87,130,60.76,129.81,60.93ZM128,56.44l0,.13S128.15,56.44,128,56.44Zm.63,1.21c.14-.13.07-.17,0-.18l-.06,0A1.17,1.17,0,0,1,128.58,57.65Zm-.93,2.78a.94.94,0,0,0,0-.16l-.3.08C127.5,60.44,127.36,60.4,127.65,60.43Zm.14,1.84a2,2,0,0,0-1,1.1c0,.1.21.18.39.39l1-.27a12.2,12.2,0,0,0,.7-1.12l-.19.19A1,1,0,0,1,127.79,62.27Zm-.19-3.36a3,3,0,0,0,.08.32C127.91,59,127.83,59.14,127.6,58.91Zm1.62,1.3a3,3,0,0,0,.08.32C129.53,60.31,129.46,60.44,129.22,60.21ZM13,81.69c0,.1.06.21.08.31l.31-.07c-.28-1.36-1.68-8.13-2.69-9C10.91,74,13.07,81.11,13,81.69Zm6.9,8.15c.19.09.05,0,.34.08a.83.83,0,0,0,0-.15ZM37,84.67c.56.23,2.42.08,2.9-.72a.61.61,0,0,0,0-.32l-3.06.83C36.91,84.6,36.86,84.55,37,84.67Zm-24-10.15.15,0c-.17-.25-.07-.15-.23-.28C13,74.31,13,74.41,13.05,74.52Zm30.21,8.6a1.77,1.77,0,0,0,1-.59s0,0,0-.06l-1.06.28Zm-30.4-8c.1-.28-.16-.25-.23-.29C12.32,74.91,12.67,75,12.86,75.08Zm98.36-73c0,.3,0,.17-.07.36a.94.94,0,0,0,0,.16l.3-.08C111.35,2.21,111.38,2.23,111.22,2.08ZM113,3.34c0,.11.06.22.08.32l.16,0C113.06,3.37,113.16,3.48,113,3.34ZM64.63,14.72c.66,0,3.7-1.58,4.37-1.93a27.88,27.88,0,0,1,3.21-.8,7.48,7.48,0,0,0,2,0c.15-.06.52-.6.64-.67a13,13,0,0,1,3.4-.67c1.55,0,23.72-7.16,24.36-7s.24.27.62.53c0-.31,1.9-.2,3-.06l1.31-.35a4.87,4.87,0,0,1,3,.12c.4-.39.67-.26.92-.72l.15,0a1.3,1.3,0,0,0-.8,0A4.87,4.87,0,0,0,110.38,2l.76-.19a2.85,2.85,0,0,1-.08-1l.6-.15c-.1.44.1.1-.22.4.48.19.69,0,.76-.19.17.16.19.24.31.6.4-.16.29-.17.69.17l.31-.07c-.49-.53-.61-.45-.43-1.09-.37-.06-.26-.09-.54-.21,0,0,0-.1,0-.15-.07.19-.06.17,0,.51l-.16,0c-.1-.51-.32-.16,0-.52l-.09-.1L79.5,8.78s0,0,0,0,0,0,0,0l-6.86,1.84a23.65,23.65,0,0,1-4.71,1.26l-3.67,1c-.39.31-.69.79-1,.84-.32.33-.19,0-.18.55C63.8,14.24,64,14.71,64.63,14.72ZM113.12.59c0,.11,0,.21.08.32C113.43.7,113.35.81,113.12.59Zm-1.43,2.74-.3.07c.14.43-.06.23.38.25A3,3,0,0,0,111.69,3.33ZM32.32,86a1.28,1.28,0,0,0,.11-.2l-.3.08C32,86.09,32.22,86.05,32.32,86Zm-1.52.38.8,0-.12-.47-.84.23Zm1.82-.45.16,0c-.17-.25-.07-.15-.24-.28A3,3,0,0,1,32.62,85.93ZM20.17,90.28c0,.11.06.22.08.32C20.49,90.39,20.41,90.51,20.17,90.28ZM33,85.49c.21,0,.41-.09.61-.15v0l-.61.17Zm85.3-20.36a1.71,1.71,0,0,1-1.15-.06c0-.1-.05-.21-.08-.31.4,0,.27,0,.54.2.59-.24.72-.54.75-.86.29-.46.14-.11,0-.68.46-.39.94-.49,1.26-.82.24-.17.14-.07.26-.24a.39.39,0,0,1-.08-.14l-25,6.71a4.85,4.85,0,0,0,0,1.26c-.24.16-.15.06-.27.23l-.3.08c-.09-.6-.09-1-.15-1.38l-1.48.4a13,13,0,0,1,0,1.39,16,16,0,0,0-2.29.57l.12.48a2.71,2.71,0,0,0-1.26.14l-.31.08a4,4,0,0,1,.15-.72l-.58-.36-.3.07c.16.35.17.15.12.48l.12.48c.08-.19,0,0,.07-.36l.15,0c0,.3,0,.16-.07.35s0,.11,0,.17c-.44-.15-.26,0-.47-.57-.37.41,0,.41-.14.72-.34.32-.66.21-1.11.1,0,.27-.2-.15-.54-.21-.55,0-.12.43-.68.51-.79.12-2.37-.21-2.9,0-.18.09-.22.55-.69.51-.19,0-.87-.57-1.11-.57-.83,0-1.12.85-2.18.46l-.7.18-.17.12.12,1.16c1-.21,3.25-.62,3.47-1a2.31,2.31,0,0,1,.65,0c-.11.2-.22.4-.34.6l-.45.11.12.48c.61,0,1.57.14,2.14.15l2.55-.8a15.71,15.71,0,0,0,7-1.74c.24-.14.51.33.84.13l.45-.79a4.23,4.23,0,0,1,.92-.23c.52-.21,21.93-5.47,22.47-5.47A6.71,6.71,0,0,0,119,66l3-.82a3,3,0,0,0,.49-.19,4.31,4.31,0,0,0,1.33-.5l.11-.2C122.34,63.6,120,65.34,118.3,65.13ZM23.06,88.89a3,3,0,0,0-.08-.32l-.3.07C22.81,89.07,22.62,88.87,23.06,88.89ZM55,16.43,54.89,16c-.44.09-.25-.06-.46.11l-.3.08c0,.21.1.42.16.64A2.29,2.29,0,0,0,55,16.43ZM112,3.25c0,.1,0,.22.08.32l.15,0C112.06,3.28,112.16,3.38,112,3.25Zm.5,0c0,.1,0,.21.08.32l.15,0C112.56,3.33,112.66,3.43,112.5,3.3ZM13.56,83.93l.36.76.15,0C13.87,84.09,13.93,84.12,13.56,83.93Zm-.09-1.68a2,2,0,0,0,0,.68l.15,0C13.57,82.42,13.69,82.52,13.47,82.25Zm-2.81-9.52a3.52,3.52,0,0,0-.76-2.36C10.16,71.15,10.41,72,10.66,72.73Zm-3-42.17,16.74-4.48a1.6,1.6,0,0,0,.22-.26l.12-.2-.16,0-.12-.48.16,0a2.33,2.33,0,0,1,.31.6c.31,0,.64,0,1-.06l9.68-2.59,0,0,.22,0,1.5-.4c.4-.37.75-.91,1.13-1.1a12,12,0,0,1,2.22-.21l-.12-.48c.86-.08.95-.34,1.53-.38a2,2,0,0,1,.11-.2l-.12-.48c-.78,0-1.72-.39-2.71.17a8.12,8.12,0,0,1-2.17,1,21.66,21.66,0,0,0-5.53.61L29,22.31c-3.48,1-6.78,1.94-9.4,2.52L1.4,29.7c-2.35.38-1.06,3.24-.95,4.63,1,3.06,2.2,11.59,3.57,13.2a3.37,3.37,0,0,0,.64,2.56.94.94,0,0,0,0,.16l.3-.08a4.06,4.06,0,0,1-.17-2c-.29,0-.16,0-.35-.09-.42-.14.34-.87.37-1.11s-.23-.51-.35-.76L5,46.1l-.12-.48a3.7,3.7,0,0,1,1.48,2.7s.49.09.83.18L4.09,37.09C3.32,34.23,2,31.9,7.7,30.56ZM16,90.31c-.53-.91-.33-1.89-.65-2.57-.15-.33-.45-.64-.54-.88-.23-.62-.26-1.9-.71-2.21,0,.75.63,1.8.56,2.25a2.42,2.42,0,0,0-.34.59c0,1.07,1.05,1.79,1,2.81a6.36,6.36,0,0,0,1.73,1.1,1.24,1.24,0,0,0,0,.16l.15,0C16.86,90.85,16.31,90.9,16,90.31ZM77.53,75.14l-.16,0a1.21,1.21,0,0,1,.15-.72c-.14-.31-.12-.3-.27-.44-.31-.34-.15.15-.39-.25a2.49,2.49,0,0,0-.53.47c0,.28,0,.56,0,.84-.63.06-1.12-.33-1.65-.1-.37.17-.76.91-1.21,1a104.23,104.23,0,0,0-15.37,4.46c-1.11.48-3.93-.22-4.31.9-.47-.17-.14.06-.27-.45-2.75.53-9.43,3.48-12.36,3.78-1.22.12-2.3,1.07-3,.91-.31.34-.22.13-.14.72-.17-.16-.19-.24-.31-.6a1.5,1.5,0,0,1-1.6-1.05l-1.62.44c.22.16.44.11.95,0a2,2,0,0,1-1.63,1.25,2,2,0,0,1-.11.2,5.67,5.67,0,0,0,.55.89l-.16,0c-.27-.4-.32-.27-.54-.88-.83.38-1.9.73-2,1.17-.36-.06-.25-.08-.53-.21-.44-.3,0,.48-.58.31-.36-.11,0-.28-.69-.16.14-.47.37-.46,1-.59a.94.94,0,0,0,0-.16,5.54,5.54,0,0,0-1.41.18c0,.34,0,.32,0,.52s.13.53.2.8c-.61-.2-.32-.58-1.12-.58a1.17,1.17,0,0,1,.15-.71.94.94,0,0,1,0-.16,1.72,1.72,0,0,0-.88.38c-.31.28-4,1.63-3.91,2.24-.57-.13-.27-.12-.95.07a2,2,0,0,1-.32-.6c-.47.77-.69.79-1.67,1.09l.39.25c0,.41,0,.28-.19.55.3.34,0,.13.39.25,0,.1.05.21.08.32-.43-.12-.09.1-.39-.25a1.62,1.62,0,0,0-.75.87,2.56,2.56,0,0,1-1.73-.42l-.46.11a1.92,1.92,0,0,0,1.43.78l4.54-1.21c.09-.1,4.09-1.23,4.22-1.32-.32-.34-4,.8-4.57.87a3,3,0,0,1-.08-.32c.13-.22,4.11-1.53,4.18-1.79.38,0,1-.12,1.11-.11l.45-.11c-.15.49.05.22-.41.27.24.35.23.21.46.57a1.62,1.62,0,0,0,.84-.55c-.23-.35-.13-.25-.43-.41a1.58,1.58,0,0,1,1-.58c.06.53,0,.8.28,1.12-.32.35-.61.32-1.07.75l9.2-2.46a4.75,4.75,0,0,1,3.16-1.09,23.66,23.66,0,0,0,4-1.5c1.31-.49,3.74-.76,5.5-1.39.16-.06.45.2.53.2l4-1a26.44,26.44,0,0,1,3-2.11,5.79,5.79,0,0,1,2.6,0c.95,0,8-2.3,8.77-2.31a7.73,7.73,0,0,0,3.62-1.07c1.1-.52,5.34-.47,6.25-1.55.34-.24.2-.23.53-.47a2.47,2.47,0,0,0-.35-.76C79.93,74.52,77.9,74.79,77.53,75.14ZM30.4,88.69c.29.14.19.23.31-.08Zm-2.1.69c.31.23.19.2.69.17a.94.94,0,0,0,0-.16A1.94,1.94,0,0,0,28.3,89.38ZM4.84,46.3c0,.11.06.22.08.32C5.16,46.41,5.08,46.52,4.84,46.3ZM57.11,16.42c.26-.42.77-.69,1-1.11a1.18,1.18,0,0,1,.11-.19,7.07,7.07,0,0,0-2.11,0,1.69,1.69,0,0,1-.9.9,3,3,0,0,0,.08.32A7.93,7.93,0,0,1,57.11,16.42ZM44.69,20.31c1.28-.35.85-.81,1.4-1.53-.23-.35-.13-.25-.43-.41s-1.7-.08-2,.33c-1.18.24-1.26.56-1.06,1.63A3.18,3.18,0,0,1,44.69,20.31ZM60.89,16a2,2,0,0,1-.23.38l1.86-.5a1.72,1.72,0,0,0-.75-.27A1.57,1.57,0,0,1,60.89,16Zm1.25-1.5L62,14a4.93,4.93,0,0,0-2.33.41,2.3,2.3,0,0,0-1.29.66C59.22,15.83,60.76,14.92,62.14,14.49Zm-6.78,3.36a4.29,4.29,0,0,1,.63-.23l.9-.24,0-.05-1.11.11A4.91,4.91,0,0,1,55.36,17.85Zm-49.87,31c-.32.12,0,.25.23.29C5.81,48.87,5.55,48.9,5.49,48.86ZM4.93,47.3l.28.44.61-.15c0-.11-.06-.21-.08-.32Zm.09,1,.12.48.31-.08C5.18,48.22,5.47,48.43,5,48.3Zm-.44,2.15c.06.21.11.43.16.64l.16,0A1.18,1.18,0,0,1,5,50.86C4.75,50.37,5,50.58,4.58,50.45Z"/></g></g></svg>