<svg xmlns="http://www.w3.org/2000/svg" viewBox="0 0 62.66 80.46"><defs><style>.cls-1{fill:#7c4821;}</style></defs><g id="圖層_2" data-name="圖層 2"><g id="event"><g id="deco_jp"><path class="cls-1" d="M39.12,44.84a3.19,3.19,0,0,1,.09-.34.65.65,0,0,1,.61-.48l1-.06.31-.49,1.4-.18V39.84a4.35,4.35,0,0,1-1.69-1.91.84.84,0,0,1-.11-.78c.22,0,.44.05.67.05a3.81,3.81,0,0,0,2.33-1.6.51.51,0,0,0,0-.25c-.07-.7-.14-1.41-.21-2.14a2.69,2.69,0,0,1-1.17-.66,8.53,8.53,0,0,1-1.87-2.14c-.13-.22-.11-.34.11-.37a3.8,3.8,0,0,0,2.15-1.34,3.09,3.09,0,0,0,.42-.72,3.71,3.71,0,0,1-.25-.69c0-.33.1-.49.43-.5a.7.7,0,0,1,.44.08,1.69,1.69,0,0,0,1,.25c1.41,0,2.8,0,4.21-.13a39.14,39.14,0,0,0,4.82-.7c.33-.07.65-.21,1-.29a.4.4,0,0,1,.33,0c.07,0,.08.22,0,.32,0,.27-.33.47-.11.81a2,2,0,0,0,1,.73,3.25,3.25,0,0,0,2.09,0l.38-.12a2.5,2.5,0,0,1,0,.32,10.22,10.22,0,0,1-1.33,2.79c-.31.46-.68.87-1,1.31a2.27,2.27,0,0,0-.27,1.08,6,6,0,0,0,.06,1c.21.2.35.36.51.49a2.49,2.49,0,0,0,2.88.68,3.93,3.93,0,0,1,.4-.17,6.48,6.48,0,0,1-1.22,1.84c-.36.39-.74.77-1.13,1.13a.47.47,0,0,0-.17.41c0,1,.06,2,.1,3.05,0,.28,0,.55.07.88a1.19,1.19,0,0,1,1.4.81.49.49,0,0,0,.33.2c.34,0,.68.08,1.08.12a4.77,4.77,0,0,1,.19.5c.16.54.17.55.74.62l.36.05a1,1,0,0,1,.83.62,5.77,5.77,0,0,0,.35.55c0,.23-.2.24-.36.24H52.79l-5.4,0c-1.08,0-2.15,0-3.22,0-.85,0-1.7.08-2.54.1-.47,0-.94-.08-1.4-.07s-1,.06-1.5.1l-.48.06c-.1-.31-.21-.6-.28-.89s.15-.54.5-.62S38.88,44.88,39.12,44.84ZM53.9,32.05l.84-.08c-.28,0-.57-.13-.83.09L53,32v.11Zm8.35,14c-.25-.72-.56-1-1.21-1C60,45,58.86,45,57.78,45a10.13,10.13,0,0,1-1.09.07,14.54,14.54,0,0,0-2.38,0c-1,.06-2,.09-3,.1s-2.15,0-3.22,0c-1.42,0-2.84.11-4.25.16-1,0-2,.09-3,.08-.71,0-1.42-.1-2.12-.18-.47,0-.61.11-.46.56,0,.12.09.23.12.3H50.31Zm-22.77-.95.2,0a20,20,0,0,0,3.37,0c1.27-.06,2.53-.07,3.8-.1L50.17,45c.88,0,1.76-.05,2.64,0a29.55,29.55,0,0,1,4.1-.1,1.41,1.41,0,0,0,.2,0l2.38-.05c.24,0,.47,0,.7,0,0-.67-.1-.8-.48-.83-.92-.06-1.84-.12-2.75-.12s-1.59.08-2.39.11l-8.87.41-1.3,0c-.83,0-1.66,0-2.49,0-.6,0-1.21-.09-1.81-.07S39.42,44.5,39.48,45.09ZM57.66,28.81c-.44.17-.87.34-1.31.49-.86.29-1.72.61-2.61.83a28.4,28.4,0,0,1-2.9.52c-.94.14-1.89.24-2.84.3a32.05,32.05,0,0,1-5.53-.36,3.84,3.84,0,0,0-1.36-.11A5.92,5.92,0,0,0,43,31.91c.38.2.74.47,1.19.17.05,0,.14,0,.21,0,.43,0,.86-.08,1.29-.14,1.72-.26,3.45-.54,5.18-.78.87-.12,1.75-.14,2.63-.24a4.47,4.47,0,0,1,2.09.16A6.52,6.52,0,0,0,57.66,28.81ZM41.07,44.05c.7,0,1.28.11,1.87.11.88,0,1.76,0,2.64-.08S47.42,44,48.33,44l5.45-.29c.64,0,1.28,0,1.92,0L58,43.56l.4,0c-.15-.55-.3-.7-.69-.73l-.93,0a47.42,47.42,0,0,0-4.91.32c-1.61.13-3.21.24-4.82.34-1.16.08-2.32.13-3.47.19a4,4,0,0,1-1.29,0,2.11,2.11,0,0,0-.92.1C41.3,43.7,41.22,43.87,41.07,44.05ZM43.3,27c-.13.27-.09.45.09.57a1.53,1.53,0,0,0,.59.28,7,7,0,0,0,1.29.11c1.12,0,2.24,0,3.36-.08a21.93,21.93,0,0,0,4.55-.74,13.82,13.82,0,0,0,1.36-.49,1.67,1.67,0,0,0,.35-.29c-1.37.23-2.66.49-4,.66a39.82,39.82,0,0,1-6.27.34,1.49,1.49,0,0,1-1.07-.3C43.54,27,43.41,27,43.3,27ZM55.76,37.66a3.52,3.52,0,0,1-.14,3,3.68,3.68,0,0,0-.18.9,1.29,1.29,0,0,1-.08.4.32.32,0,0,1-.25.14c-.08,0-.21-.11-.21-.18a2.93,2.93,0,0,0-.63-1.44.38.38,0,0,1-.05-.15A4.47,4.47,0,0,1,54,38s0-.05,0-.11l-.24.05c.23,1.55-.2,3.1.2,4.65l2.29-.11V37.62ZM53,42.73V39.89a7.88,7.88,0,0,0-1.76.08l.16,3ZM44,35.26c.11.25.31.18.46.18.8,0,1.6,0,2.39,0a54.81,54.81,0,0,0,7.79-.77l.88-.13c.21,0,.25-.15.15-.26C51.77,34.6,47.92,35.11,44,35.26ZM49,40c.07,1,.13,2,.2,3L50.51,43c0-1-.09-2-.13-2.93Zm-6.55-.61c0-.19,0-.29,0-.39,0-.56,0-.58.57-.61.94,0,1.87,0,2.8-.07s2-.13,3-.2l2-.14s.1-.06.24-.16c-.24,0-.38,0-.5,0-1.21.11-2.41.21-3.62.22a33.77,33.77,0,0,1-4.61-.15c-.4,0-.8-.16-1.27-.26A3.54,3.54,0,0,0,42.4,39.43Zm5.78.81a3,3,0,0,0-1.26.07c.06.94.11,1.86.16,2.78h1.1Zm-4.29-6.08,0,.14.55,0L46,34.08c1.2-.13,2.4-.21,3.6-.39a37.25,37.25,0,0,1,4.84-.48l.93-.05c.29,0,.28-.18.22-.4-1.08.1-2.12.19-3.17.31s-2.19.27-3.29.38c-.58.06-1.13.22-1.71.26-1.07.07-2.15.23-3.22.35C44.1,34.08,44,34.13,43.89,34.16ZM51,37.78l0,.16a.85.85,0,0,0,.22,0c1.45-.2,2.91-.39,4.36-.61a8.73,8.73,0,0,1,1.53,0l.08.6A6.52,6.52,0,0,0,59,36,23.67,23.67,0,0,1,51,37.78Zm-6.41,5.46c-.06-.26-.1-.48-.16-.69a1.27,1.27,0,0,0-.2-.51,2,2,0,0,1-.49-1.23c0-.7,0-1.4,0-2.13h-.36c0,.79,0,1.55,0,2.31a9.69,9.69,0,0,0,.08,2.34Zm11.86-5.69c0,.88,0,1.68,0,2.49s.05,1.55.08,2.32c0,0,.05.09.07.15a.7.7,0,0,0,.21,0,1.56,1.56,0,0,0,.28-.08c0-1.63-.11-3.24-.17-4.87ZM44.1,38.66a4,4,0,0,0-.09,2,2,2,0,0,0,.32,1,1.86,1.86,0,0,1,.42,1.16.49.49,0,0,0,.15.06c0-.25.07-.48.09-.71a1.16,1.16,0,0,1,.24-.66,2.56,2.56,0,0,0,.12-2.91Zm11.08,3a2.34,2.34,0,0,1,0-.38,2.83,2.83,0,0,1,.25-.94,2.87,2.87,0,0,0,.19-2.2.58.58,0,0,0-.24-.38.87.87,0,0,0-1.21.62c0,.34,0,.69,0,1a1.81,1.81,0,0,0,.34,1.12A3.61,3.61,0,0,1,55.18,41.66ZM49,30.64c-.07-.87-.14-1.68-.2-2.52l-.43,0a4.94,4.94,0,0,0-.27,2.56Zm5.2-3.5c.25.62.27.69.71,1a4.62,4.62,0,0,0,1,.6,1.53,1.53,0,0,0,.84.11,3.58,3.58,0,0,0,.88-.43,1.24,1.24,0,0,0,.21-.23c-1.82.26-2.51-.08-3.27-1.17Zm-6.48,3.6c.12-.89.22-1.71.34-2.57h-.48l-.88,2.57Zm-1.65,9.44a2.84,2.84,0,0,1-.68,1.55.39.39,0,0,0-.09.28,2.08,2.08,0,0,1-.32,1.2h1.17C46.11,42.16,46.08,41.17,46.06,40.18Zm.55-1.57c-.21,0-.36,0-.36.18a4.51,4.51,0,0,0,0,.52L46.34,42l0,1.07c.42,0,.42,0,.41-.39l-.12-3.41C46.65,39.08,46.63,38.86,46.61,38.61ZM43.1,43.33V38.68l-.39,0v1.17c0,.77,0,1.55,0,2.32,0,.28,0,.55,0,.83S42.81,43.39,43.1,43.33Zm3.12-7.64-1,2.19c.31-.06.65,0,.77-.17a4.29,4.29,0,0,0,.87-1.93,1,1,0,0,0-.19-.09Zm9.94-6.54c-1.49-.81-1.52-.71-2.34-1.91-.24,0-.24.13-.19.3A2.6,2.6,0,0,0,55,29.3a.82.82,0,0,0,.49.06A3,3,0,0,0,56.16,29.15ZM52.91,38l-1.86.23.13.78H53Zm-4.3.38h-.15c0,.09-.11.18-.1.27.14,1.46,0,3,.22,4.43.23,0,.36,0,.34-.24s-.07-.34-.08-.51c0-1.06-.07-2.11-.12-3.16A7,7,0,0,0,48.61,38.4Zm1.79-2.95a3.27,3.27,0,0,0,.2,2.18l.89-.13a2.69,2.69,0,0,1-.39-2Zm1.37-1.07L54,34.19l-.11-.73-2,.15Zm-7.69,3.41c.55.11.69.11.86-.12a5.46,5.46,0,0,0,1-2l-.49,0Zm6.67,5.15c.46,0,.35-.33.34-.52C51,41.27,51,40.11,50.91,39c0-.23,0-.46-.07-.67-.33-.05-.3.12-.29.28,0,.55.11,1.09.09,1.65C50.61,41.1,50.71,42,50.75,42.94Zm-.52-5.28c-.07-.44-.14-.8-.17-1.15s0-.7,0-1c-.25,0-.33.09-.41.27a3,3,0,0,0-.31,2Zm-4.94-9.45-1.11,2.32.45.1a5.6,5.6,0,0,0,1.18-2.42Zm5.56,6.27-.14-.71-2,.27v.66Zm-3.62,1.2-.9,2.12h.56a3.65,3.65,0,0,0,.84-2.12Zm6,2.35c0,.39,0,.75,0,1.11,0,1.07.07,2.14.11,3.21a1.76,1.76,0,0,0,.1.3h.12c0-.2,0-.39,0-.59,0-.9,0-1.8,0-2.69,0-.38,0-.77-.06-1.14S53.37,37.91,53.2,38Zm-4.65-5.88,3.23-.39v-.45l-3.2.4a2.2,2.2,0,0,0,0,.27A1.09,1.09,0,0,0,48.55,32.15Zm-2.22-1.38a7,7,0,0,0,.86-2.56c-.43,0-.45,0-.49.22a4.33,4.33,0,0,1-.57,1.47,6.61,6.61,0,0,0-.37.84Zm-3.58,6.91.87.14a7.32,7.32,0,0,0,1.44-2.07c-.45,0-.43,0-.61.21-.34.43-.7.84-1.08,1.24A4.49,4.49,0,0,1,42.75,37.68Zm10-10.27a3.32,3.32,0,0,0,1.42,2.15c.3.18.3.18.66-.06a3.26,3.26,0,0,1-1.58-2.19Zm-.93,5.41-.05-.37-2.09.26-.93.13c-.24,0-.3.19-.17.43.45,0,.9-.07,1.34-.14C50.57,33,51.18,32.93,51.85,32.82ZM58.3,36a4.89,4.89,0,0,1-2.16-1,.54.54,0,0,0-.65,0,2.9,2.9,0,0,0,.38.45c.4.27.83.49,1.22.77S57.91,36.24,58.3,36Zm-7.37-8.3a5.45,5.45,0,0,0,.53,2c.27.56.36.61,1,.39a6.21,6.21,0,0,1-1.23-2.18C51.24,27.83,51.11,27.78,50.93,27.66Zm-1.87.44a10.86,10.86,0,0,0,.22,2.51l.62-.07c-.17-.82-.33-1.62-.5-2.46ZM55,31.19a6.34,6.34,0,0,0-2.26.07l0,.54,2.3-.13a2.15,2.15,0,0,0,0-.23C55,31.38,55,31.31,55,31.19ZM50.36,28a3.19,3.19,0,0,0,.68,2.4l.46-.06A10.29,10.29,0,0,1,51,29.15a10,10,0,0,1-.26-1.26ZM49,39.33l1.4-.1-.08-.85H48.91ZM43.8,28.08a5,5,0,0,1-1.34,2.21.56.56,0,0,0,.83-.2,5.66,5.66,0,0,0,1-1.81.37.37,0,0,0,0-.11Zm4.07,6-.95.08c-.29,0-.57.06-.89.1l0,.65,1.85-.15Zm.21,1.54c-.26.74-.49,1.41-.73,2.11H48c.17-.73.32-1.43.49-2.17Zm.76-.09a4.18,4.18,0,0,0-.38,2.26l.59-.11a3.58,3.58,0,0,1,.36-2.15Zm-3.77-1.83,2.58-.27V33a11.3,11.3,0,0,0-2.43.35C45,33.38,45,33.47,45.07,33.73Zm1.8,5.74a2.63,2.63,0,0,0,1.28-.12c0-.3,0-.59,0-.86-.7-.1-.87-.08-1.23.15Zm-1.39-8.75a7.57,7.57,0,0,0,1-2.53l-.42,0A7.53,7.53,0,0,1,45,30.64ZM54,29.8a9.79,9.79,0,0,1-.88-1.07,10.63,10.63,0,0,1-.59-1.27l-.36.15A2.3,2.3,0,0,0,53,29.28c.19.18.43.3.6.48S53.87,29.83,54,29.8Zm3.13,6.62-.27-.16A4.54,4.54,0,0,1,55.29,35c-.08-.1-.17-.28-.31-.15s-.07.27-.06.41a.46.46,0,0,0,.14.21,3.38,3.38,0,0,0,1.45,1.05A.47.47,0,0,0,57.09,36.42ZM45,32.65c.89-.13,1.73-.24,2.56-.37.21,0,.19-.2.13-.43-.92.07-1.8.27-2.69.39Zm5.3-2.15.5-.07a4,4,0,0,1-.62-2.22c0-.08-.06-.15-.09-.21-.2,0-.34.05-.33.26A4.78,4.78,0,0,0,50.25,30.5Zm3.67,4.56c-.34,0-.44.09-.37.36a2.67,2.67,0,0,0,.91,1.35.62.62,0,0,0,.78.11A3.7,3.7,0,0,1,53.92,35.06ZM51.49,27.7c0,.08,0,.13,0,.18a5.07,5.07,0,0,0,1.18,2c.19.24.4.15.65,0a2.91,2.91,0,0,1-1.42-2.28Zm-7.2,8c-.28-.16-.37,0-.48.13a3.72,3.72,0,0,1-1.43,1.24c-.21.11-.41.24-.65.38.31.18.55.2.78-.06a1,1,0,0,1,.31-.19A4.23,4.23,0,0,0,44.29,35.74Zm7.87,1.65a3.39,3.39,0,0,1-.39-2c-.23,0-.42-.07-.44.21a2.76,2.76,0,0,0,0,.86,8.33,8.33,0,0,0,.46,1.08Zm-8.7-6.92c.13,0,.31,0,.39-.1a5.17,5.17,0,0,0,1.07-2.16l-.38,0A9.47,9.47,0,0,1,43.46,30.47Zm0-2.47a12.26,12.26,0,0,1-.91,1.18,13.91,13.91,0,0,1-1.17,1c.56.13.56.14.91-.16a4.92,4.92,0,0,0,1.16-1.75A.58.58,0,0,0,43.51,28Zm13.94,1.76.13.13L55.9,31.38l.12.4A4.55,4.55,0,0,0,57.45,29.76Zm-4.27,5.39c-.37,0-.28.28-.23.46a3.59,3.59,0,0,0,.92,1.47c.15.17.3.17.49,0A3.91,3.91,0,0,1,53.18,35.15Zm1.07-.2-.08.09a6.45,6.45,0,0,0,.51.93,2,2,0,0,0,1,.82,2.12,2.12,0,0,0,.44,0c-.64-.52-1.3-.93-1.54-1.75C54.54,35,54.36,35,54.25,35Zm-1.61-2.31.1.11L55,32.59l0-.1c-.09-.08-.18-.21-.27-.21-.65,0-1.29.08-1.94.15C52.77,32.44,52.71,32.57,52.64,32.64ZM41.75,31.49l-.08.11A5.29,5.29,0,0,0,43.57,33l0-.42Zm10,.73a5.11,5.11,0,0,0-3.14.39Zm1.73,5.08.12-.09a7.59,7.59,0,0,1-.62-.9,10.82,10.82,0,0,1-.43-1.13c-.08.11-.19.19-.19.26A2.71,2.71,0,0,0,53.45,37.3Zm-.45,0a6.7,6.7,0,0,1-.56-.68,6,6,0,0,1-.35-.8.63.63,0,0,0-.07.58,5.49,5.49,0,0,0,.24.68C52.44,37.45,52.45,37.45,53,37.27ZM47.67,32.7v-.12a5.31,5.31,0,0,0-2.61.5Zm8,1.27-.06-.6-.8.06v.69ZM45.14,35l-.1-.57-.87.09c-.27,0-.3.19-.17.4ZM55.7,32.53c0-1,0-1-.45-1.22v1.26Zm-7.78-.7v1.53l.34,0V31.78Zm4.21,1.06c.11-.09.2-.12.21-.16,0-.43.07-.85.08-1.28,0-.05-.15-.1-.24-.16A2.44,2.44,0,0,0,52.13,32.89ZM53,39.35c-.88-.11-1.55,0-1.8.26h1.52C52.84,39.6,53,39.6,53,39.35Zm-8.72-5.59c0-.85,0-1-.12-1.31a1.56,1.56,0,0,0-.21,1.35Zm.27-1.5a3.82,3.82,0,0,0,0,1.43s.09,0,.13,0A1.55,1.55,0,0,0,44.52,32.26Zm6.95,1.45c-.47,0-.47,0-.34.7l.34,0ZM49,39.61a1.52,1.52,0,0,0,1.42-.1Zm-3.28-5.29c-.39.06-.44.13-.38.41s.23.23.42.15Zm2.39,5.57v-.13a1.6,1.6,0,0,0-1.11.13Zm6.06-5.68c.11,0,.22-.05.22-.08a2,2,0,0,0,0-.55s-.14-.08-.26-.13Zm-6-.15v.71c.13-.08.25-.13.25-.18S48.54,34.18,48.18,34.06ZM45.75,38.6l.14.51C46,38.91,46.13,38.69,45.75,38.6Z"/><path class="cls-1" d="M44.83,41.53a1.06,1.06,0,0,1-.56-.84c0-.46,0-.92,0-1.38a.42.42,0,0,1,.33-.46,1,1,0,0,1,.5.2.41.41,0,0,1,.18.25A2.43,2.43,0,0,1,45,41.41.92.92,0,0,1,44.83,41.53Zm0-.38A2.11,2.11,0,0,0,45,39.47c-.05-.12-.19-.21-.3-.33A1.75,1.75,0,0,0,44.85,41.15Z"/><path class="cls-1" d="M54.78,40.35a2.38,2.38,0,0,1-.21-1.91c0-.19.13-.42.39-.41a.42.42,0,0,1,.42.39,10.29,10.29,0,0,1,0,1.47A.54.54,0,0,1,54.78,40.35Zm.15-.31a1.31,1.31,0,0,0,0-1.63A2.1,2.1,0,0,0,54.93,40Z"/><path class="cls-1" d="M37.07,15.3c-.07-.62-.15-1.21-.22-1.81L34,14.65A.57.57,0,0,1,33.6,14c0-.75,0-1.49,0-2.24V8.82a42.83,42.83,0,0,0-5-.45l0-.18c.31-.11.62-.23.93-.32L34,6.61c.24-.06.47-.15.71-.22,1-.27,1-.34,1.07-1.44-.56,0-.82.92-1.57.54A21.07,21.07,0,0,1,36.09.75l1,1.38,2.57-.6L40.09,5a16.44,16.44,0,0,1,1.73,0,2.09,2.09,0,0,0,1.53-.66l1.29,1c.25-.29.46-.5.64-.73.87-1.09,1.71-2.2,2.59-3.28.38-.46.85-.85,1.28-1.28l.15.08a2.53,2.53,0,0,1,0,.55c-.26,1.42-.55,2.83-.81,4.24-.08.44-.1.89-.16,1.33-.13,1-.27,1.92-.4,2.88a1.25,1.25,0,0,0,0,.51c.31,1.14.63,2.29,1,3.44.06.2.1.41.16.68-.6,0-.8-.48-1.2-.63s-.85-.42-1.27-.64l-1.28-.67c0,.33,0,.53,0,.74,0,.42-.14.53-.54.53a19.24,19.24,0,0,0-2.52.05,5.57,5.57,0,0,0-1.44.56l-3.32,1.54A2.11,2.11,0,0,1,37.07,15.3ZM39.42,2.17c-.74.49-1.38.92-2,1.32A.83.83,0,0,0,37,4.3c0,.25,0,.5,0,.75.08,1.21.21,2.43.24,3.64.05,1.54,0,3.08,0,4.62,0,.26,0,.52.07.93a7,7,0,0,0,.42-.57c.69-1.15,1.36-2.31,2-3.47a6.65,6.65,0,0,0,.33-.58,1.42,1.42,0,0,0,.12-.57c-.08-.83-.2-1.66-.29-2.5-.15-1.2-.29-2.41-.44-3.62C39.52,2.72,39.47,2.51,39.42,2.17ZM37.75,14.43l.15.16C39,14,40.16,13.48,41.28,12.9a2.12,2.12,0,0,1,1.19-.31c.78.07,1.57,0,2.37,0,0-.54,0-1-.46-1.28-1.05-.62-2.12-1.2-3.18-1.79a.51.51,0,0,0-.8.24c-.27.5-.55,1-.83,1.49Zm6.41-6.76,4.06,4.6A47.63,47.63,0,0,0,46.9,6.88,8.42,8.42,0,0,0,44.16,7.67ZM43.42,4.9a2.16,2.16,0,0,0-.32.28,8,8,0,0,1-2.29,2.2.6.6,0,0,0-.26.77,4.85,4.85,0,0,1,.14.58l5-2.08ZM41,9.12c.79.45,1.45.84,2.12,1.2a20.55,20.55,0,0,0,2,1,6.37,6.37,0,0,0,2.07.89L43.21,8ZM35.94,6.75A56,56,0,0,0,34.21,14c1.46-.31,1.43-.53,1.46-1.59,0-1.51.13-3,.2-4.54C35.88,7.52,35.92,7.13,35.94,6.75Zm.68-1.9h-.25c-.18,2.76-.21,5.53-.35,8.39l.85-.34C36.79,10.19,36.71,7.52,36.62,4.85ZM48.59,2c-.7,1.44-1.52,2.84-2.13,4.41l.69,0c.17.47.33.93.49,1.39l.17,0A38.24,38.24,0,0,1,48.59,2Zm-18.21,6c1,.09,1.93.19,2.82.24a2,2,0,0,0,.86-.15,10.11,10.11,0,0,0,1.06-.69.43.43,0,0,0,.14-.63A19.67,19.67,0,0,0,30.38,8.08Zm3.68,4.4h.07L35,8.15a1.14,1.14,0,0,0-.94,1.29C34.08,10.45,34.06,11.46,34.06,12.48Zm8.22-7H40.55c-.24,0-.39.13-.36.37.06.41.14.81.23,1.28A8.81,8.81,0,0,0,42.28,5.45Zm-5.48-3L36,1.48a10.43,10.43,0,0,0-.88,2.84Zm7,5.59a44.82,44.82,0,0,0,3.37,3.65A23.32,23.32,0,0,0,43.82,8ZM36.07,3.84a5.15,5.15,0,0,0,2.25-1.55C37.19,2.24,36.71,3.09,36.07,3.84Zm11-.57-.11-.09L45,5.57l.46.32Zm-1.2,2.79L46,6.2l.39-.84-.12-.06Z"/><path class="cls-1" d="M44.88,57.27a.26.26,0,0,1-.3.26.28.28,0,0,1-.26-.33.26.26,0,0,1,.31-.24A.27.27,0,0,1,44.88,57.27Z"/><path class="cls-1" d="M45.61,67.12c-.26,0-.44-.16-.42-.38s.3-.42.55-.42.26.17.26.46S45.88,67.12,45.61,67.12Zm.12-.45-.11-.08-.15.22s.11.08.11.07S45.68,66.74,45.73,66.67Z"/><path class="cls-1" d="M45.05,61.68v.49a.38.38,0,0,1-.37.4.38.38,0,0,1-.43-.25c-.11-.22,0-.37.16-.52s.43-.12.66-.1Zm-.22.26c-.23,0-.37.09-.34.31C44.77,62.26,44.77,62.26,44.83,61.94Z"/><path class="cls-1" d="M57,65a.72.72,0,0,1-.1-.59.07.07,0,0,1,0,0,2.31,2.31,0,0,0,0-.58,1.32,1.32,0,0,1-.43-.47.87.87,0,0,0-.53-.48l-.74.63a2.26,2.26,0,0,1-1.71.55,15.26,15.26,0,0,0-1.65-.12,5.76,5.76,0,0,0-1.44,0,23.7,23.7,0,0,0-2.58.75,8.89,8.89,0,0,0-1.53.72c-.58.33-1.13.7-1.7,1.06l-.4-.24L43,66.88a3,3,0,0,0-.4.21,1.52,1.52,0,0,1-1.18.21,9.48,9.48,0,0,0-1.31,0c0-.85.1-1.75.15-2.68l1.27-.38a.72.72,0,0,1,.25,0,9.41,9.41,0,0,1,1.41.22.76.76,0,0,0,.89-.25.61.61,0,0,1,.66-.21,8.87,8.87,0,0,0,1.53.18,6,6,0,0,0,3.39-1.32,8.63,8.63,0,0,0,2-1.82.89.89,0,0,1,.52-.36,4.68,4.68,0,0,1,2.17,0c.38.11.76.19,1.16.29A1.74,1.74,0,0,0,55,59.76a1.3,1.3,0,0,1-.49-.78.8.8,0,0,0-.2-.4,4.5,4.5,0,0,1-.84-1.35l-.1,0a1.07,1.07,0,0,0-.25.23,6.2,6.2,0,0,1-1.76,1.81.77.77,0,0,1-.31.16c-.41,0-.82.08-1.23.1a9,9,0,0,0-2.31.35c-.67.2-1.31.47-2,.69a4.69,4.69,0,0,0-2.21,1.64.53.53,0,0,1-.45.24c-.11,0-.32.19-.31.26.09.44-.26.65-.48.92a1.14,1.14,0,0,1-.44.38c-.47.15-1,.25-1.44.37l-.89-2.94a13.76,13.76,0,0,0,1.24-.81,2.35,2.35,0,0,1,1.83-.42A1.93,1.93,0,0,0,44,59.89a.83.83,0,0,1,.43-.08,8.16,8.16,0,0,0,2.86-.64A13,13,0,0,0,51.56,56a1.54,1.54,0,0,1,.43-.33,4,4,0,0,1,2.3-.66,1.71,1.71,0,0,0,.45,0,1,1,0,0,0,.29-.17.88.88,0,0,0-.08-.14,3.2,3.2,0,0,1-1.06-2A2.16,2.16,0,0,0,53,51.41c-.11.14-.19.23-.25.32-.36.48-.69,1-1.08,1.43a1.27,1.27,0,0,1-1.32.57.91.91,0,0,0-.4,0,12.58,12.58,0,0,0-2.56.62c-.3.13-.62.22-.93.35a6.51,6.51,0,0,0-2,1.14A7.61,7.61,0,0,0,43,57.76a1,1,0,0,1-.48.38.88.88,0,0,0-.47.46,5.44,5.44,0,0,1-1,1.38,15.63,15.63,0,0,1-1.85,1.23l-1-1.22a1.19,1.19,0,0,0,0-1.37.77.77,0,0,0-1.29,0c-.23.35-.29,1.16.21,1.44a.53.53,0,0,1,.26.54c0,.68,0,1.37.09,2.05.08,1.29.19,2.59.27,3.88.07,1,.11,2,.16,3.11h0a2.43,2.43,0,0,1,0,.38h0c0,.31,0,.63,0,1s0,.69,0,1h0c0,.12,0,.23,0,.35v.17a.71.71,0,0,1,0,.17c0,.59.06,1.19.08,1.79,0,.25.05.51.09.77a.08.08,0,0,1,0,.07,3.71,3.71,0,0,1,.06.54c0,.5,0,1,.06,1.5,0,.22.08.44.11.66.75-.14.85-.23,1-.93h0c0-.13,0-.27-.06-.4v-.17h-.11c0-.72-.13-1.43-.16-2.18A30.85,30.85,0,0,1,39,70.62a2.74,2.74,0,0,0,.67-1.31,10,10,0,0,0,.3-1.2.55.55,0,0,1,.45-.51,2.3,2.3,0,0,1,1.42,0,8.25,8.25,0,0,1,1.92.81c.32.22.7.42,1.06,0,0,0,.22,0,.34,0l1.42.2s0,0,0,0h0l.37,0h0a10.49,10.49,0,0,0,4-1,11.39,11.39,0,0,0,1.46-.86c.31-.19.6-.41.9-.62a2.5,2.5,0,0,1,2.09-.34l1.31.31a.33.33,0,0,0,.45-.36A1.5,1.5,0,0,0,57,65Zm-10-1.74a.63.63,0,0,1-.58.51c-.2,0-.4,0-.66,0l.43-1.09a1.37,1.37,0,0,1,.34,0C46.77,62.83,47,63,46.92,63.3ZM46,62.39c-.41-.7-.37-.81.43-1,0,.15.18.33.16.48C46.55,62.22,46.29,62.34,46,62.39Zm.63.11.37-.9a1.31,1.31,0,0,1,.28,0c.33,0,.48.27.34.56a6.38,6.38,0,0,1-.46.64Zm.42,1.26.13-.61a.54.54,0,0,1,.75.05C47.82,63.61,47.67,63.7,47.05,63.76Zm.6-1.06.38-.78a.29.29,0,0,1,.4.21.49.49,0,0,1-.15.58A.41.41,0,0,1,47.65,62.7Zm.69-1.11.18-.67a.55.55,0,0,1,.62.37c.09.28,0,.56-.4.8Zm0,1.74-.06-.12c.14-.25.37-.25.6-.25l0,.1Zm.41-.72c.18-.42.59-.5,1-.18C49.34,62.84,49.34,62.84,48.72,62.61Zm1.48-.47-.17.11-.68-.3.1-.44.42-.09c.21-.05.41-.05.52.17A.41.41,0,0,1,50.2,62.14Zm1.91-2.43,1-1c.37.19.37.19.54.58l-1.49.54Zm.09.55a1.78,1.78,0,0,1,1.11-.55c.35-.06.54.3.8.55Zm1.2-2.7a1.36,1.36,0,0,0,.58.9,1.22,1.22,0,0,1,.36.68,1.52,1.52,0,0,0,.45.75,1.14,1.14,0,0,1,.46.66,1,1,0,0,1-.81-.39,4.91,4.91,0,0,0-.63-.57c.12-.65.07-.74-.5-1.1a2,2,0,0,1-.37-.44Zm-.58.73c0,.13.08.27,0,.3-.34.31-.69.6-1,.89,0,0-.09,0-.25-.06Zm-.92,1.63c.18,0,.11.33-.17.59l-.42-.92C51.58,59.68,51.65,59.91,51.9,59.92Zm-1.33-.06a.68.68,0,0,1,.84.43c.08.19.08.19-.22.48l-.74-.4Zm.49,1.24c.07.2,0,.35-.39.64-.08-.53-.43-.59-.87-.57.13-.27.24-.5.57-.48A.87.87,0,0,1,51.06,61.1Zm-.78-1.37-.14.63-.53-.63Zm-1.11.36a.44.44,0,0,1,.57.26c.11.26,0,.44-.34.72L49,60.56ZM48.08,60a1,1,0,0,1,.85.05l-.47.57c-.17-.12-.31-.21-.43-.31S47.94,60.06,48.08,60Zm-.64.13s.08,0,.17.06c-.09.06-.13.11-.19.12s-.07,0-.11-.07S47.39,60.13,47.44,60.11Zm0,.7a.37.37,0,0,1,.5-.24.4.4,0,0,1,.27.51,3.17,3.17,0,0,1-.25.53l-.77-.32A5.39,5.39,0,0,1,47.42,60.81Zm-1-.38.55-.16c.25.34.26.48,0,.76s-.23.23-.62.08Zm-.28.28c-.06.49-.43.6-.73.79l-.54-.27C45.17,60.77,45.65,60.82,46.12,60.71ZM44,62a2,2,0,0,1,.24-.44l.82.14,0,0c.41.19.54.45.36.8a.63.63,0,0,1-.58.41.88.88,0,0,1-.82-.37A.84.84,0,0,1,44,62Zm-.38.19c0,.66.46.85.93,1a1,1,0,0,0,1.15-.56,1,1,0,0,1-.22.92.6.6,0,0,1-.48.16,1.4,1.4,0,0,0-1,.15l-.67-1.32Zm-.09,1.94a3.9,3.9,0,0,0-.12-.75A3.47,3.47,0,0,0,43,62.8C43.7,63.24,43.85,63.7,43.54,64.13Zm-.74-1,.43.36-.84.28,0-.07Zm.44.67c0,.22,0,.39-.25.36l-.71,0A2.63,2.63,0,0,1,43.24,63.75ZM41.9,59.87c.25-.32.61-.35.91-.59l.27.57C42.65,60.05,42.31,59.85,41.9,59.87Zm5.29-1a3.45,3.45,0,0,1-1.36.37l.5-1a.76.76,0,0,1,.91.19C47.39,58.68,47.38,58.85,47.19,58.91Zm-.86-1-.53-1c.34-.2.56-.18.74,0S46.68,57.59,46.33,57.94Zm.48,0L47,57a.42.42,0,0,1,.6.25.56.56,0,0,1,0,.65C47.34,58.16,47.09,58.08,46.81,57.94Zm1.42.49-.51.28-.21-.38a.86.86,0,0,1,.94-.08A2.22,2.22,0,0,1,48.23,58.43Zm.82-.57a.32.32,0,0,1-.45.17,5.18,5.18,0,0,0-.63-.2l-.08-.47a.77.77,0,0,1,1.13.1A.47.47,0,0,1,49.05,57.86Zm0-.75-.68-.28,0-.61c.45-.14.71-.07.87.21S49.36,56.82,49.06,57.11Zm.37.5-.2-.24a.72.72,0,0,1,.87-.28Zm.24-.87-.13-.44c.54-.37.85-.34,1.22.11C50.47,56.78,50.47,56.78,49.67,56.74Zm1.38-.53c-.35-.29-.35-.29-.15-.85l.65.24Zm1-2.14L52,54l1-.91.09.45C52.77,53.72,52.5,54.05,52.07,54.07Zm1.13-.35.59.51-1.35.35s-.09,0-.14,0C52.34,54.26,52.34,54.26,53.2,53.72Zm-.15,1.21a5.86,5.86,0,0,1-1,.26c.1-.11.18-.27.31-.32.42-.15.85-.26,1.29-.38.18-.05.33,0,.33.24C53.68,54.79,53.36,54.84,53.05,54.93Zm.16-3a1.45,1.45,0,0,1,.49.85,3.38,3.38,0,0,0,1,1.91l-.37.1a3,3,0,0,0-.77-1.1,1.66,1.66,0,0,1-.33-.75c-.1-.34-.15-.7-.23-1.08A.6.6,0,0,1,53.21,51.91Zm-.43.28a.28.28,0,0,1,.13.41,3.61,3.61,0,0,1-1.14,1.16.32.32,0,0,1-.14,0,.19.19,0,0,1-.1-.05ZM50.49,54c.36,0,.72.06,1.06.14s.6.42.39.86c-.06.13-.14.26-.22.4l-.32-.12c.08-.7,0-.8-.92-1.16Zm.2.47a1.62,1.62,0,0,1,.45.34s0,.18-.09.23a1,1,0,0,1-.29.11l-.5-.4C50.34,54.46,50.5,54.36,50.69,54.43Zm-.2,1.34H50L49.6,55c.24-.24.47,0,.65.06A.55.55,0,0,1,50.49,55.77ZM50.07,54c.09.42,0,.45-.69.67l0-.51Zm-.53,1.44c.14.19.1.28-.2.6l-.54-.19c0-.31.11-.54.43-.58A.41.41,0,0,1,49.54,55.43Zm-1.08-1.11L49,54.2c.19.42.17.53-.21.87l-.48-.32Zm.09,1c.08.25,0,.44-.34.63l-.51-.3c.06-.47.08-.49.41-.54S48.48,55.07,48.55,55.28ZM48,54.45a.28.28,0,0,1,.12,0c0,.07,0,.11,0,.13a3,3,0,0,1-.3.19.73.73,0,0,1-.1-.14Zm-.33,1.47a1,1,0,0,1,.47.26c.23.22.12.52-.3.9a2.43,2.43,0,0,0-.25-.2c-.08-.06-.17-.1-.25-.15V56C47.4,56,47.53,55.89,47.63,55.92Zm-1-1,.56-.24c.44.29.41.65-.1,1l-.55-.28Zm.1.9c.37.22.39.59,0,.94a3.68,3.68,0,0,0-.35-.15,2.36,2.36,0,0,0-.37-.11c0-.16,0-.27,0-.38A.39.39,0,0,1,46.76,55.83Zm-.43-.8a.56.56,0,0,1-.37.59c-.1,0-.25,0-.38-.07l0-.11ZM45,55.8a1.21,1.21,0,0,1,.57,0c.31.11.31.37.06.78l-1-.48A.46.46,0,0,1,45,55.8Zm-.83.79a1.39,1.39,0,0,1,.33-.1.87.87,0,0,1,.87.37.7.7,0,0,1-.1.87,2,2,0,0,1-.62.35c-.25-.08-.43-.11-.6-.18a.59.59,0,0,1-.37-.59A.8.8,0,0,1,44.21,56.59Zm-.8.86a1.12,1.12,0,0,0,1.26.84,1,1,0,0,0,1.07-.88,1.13,1.13,0,0,1,.13,1.24,1.45,1.45,0,0,1-1.2.84l-.85.06a2.55,2.55,0,0,0-.91-1.27ZM43,58.68a1,1,0,0,1,.39,1.19,5.28,5.28,0,0,0-.45-.73,6.22,6.22,0,0,0-.69-.62A.61.61,0,0,1,43,58.68Zm-.87.19.39.24-.75.47-.07-.07C41.86,59.31,42,59.11,42.16,58.87ZM37,59.26a.73.73,0,0,1,.63-.72c.27,0,.64.42.66.77a.72.72,0,0,1-.7.65A.7.7,0,0,1,37,59.26Zm2.16,17.82a.53.53,0,0,1-.44.65,1.71,1.71,0,0,1-.13-.49c.06-1.17-.21-2.32-.25-3.48s-.09-2.57-.17-3.85c-.1-1.59-.25-3.18-.35-4.77-.07-.93-.1-1.86-.15-2.79,0-.54,0-1.07,0-1.6,0-.18-.08-.4.12-.56.26.13.21.37.23.57,0,.6.06,1.2.11,1.8.13,1.59.29,3.18.41,4.77.08,1,.18,2,.16,3s.13,2,.2,3C38.89,74.55,39,75.82,39.11,77.08Zm-.19-7s-.05,0-.1.07c-.25-3.21-.5-6.42-.76-9.69a1.89,1.89,0,0,1,.83.8,8,8,0,0,1,.82,2.24A7.69,7.69,0,0,1,40,64.75,9.77,9.77,0,0,1,38.92,70.06Zm5-1.83-1.23-.61h1.27Zm-1.1-.89,0-.11,1-.46.17.57Zm1.75.83c0,.09-.14.15-.22.22-.06-.08-.18-.18-.16-.24a3,3,0,0,0-.08-1.51l.15-.09a2,2,0,0,1,.14.25A2,2,0,0,1,44.55,68.17Zm10.86-3.28a6.69,6.69,0,0,1-1.35.06l1.64-.79C55.93,64.68,55.86,64.84,55.41,64.89Zm-3.86-.74a.32.32,0,0,1,.46.17.37.37,0,0,1-.23.44c-.15.08-.31.14-.5.23l-.46-.44A4.83,4.83,0,0,1,51.55,64.15ZM50,64.23l.8-.1a.77.77,0,0,1-.81.21Zm.82.66c.36.28.32.53-.12.81a1.38,1.38,0,0,0-.88-1A1,1,0,0,1,50.83,64.89ZM49.18,66l.49-.89a.55.55,0,0,1,.74.31c.16.39,0,.68-.64,1.09Zm.08,1a1.34,1.34,0,0,1-.27.17l-.71-.74a.73.73,0,0,1,.84-.13C49.47,66.45,49.52,66.75,49.26,67Zm.43-2.71-.1.47-.5-.22Zm-.88.43a.76.76,0,0,1,.5.32c.14.25-.12.58-.64.84,0-.41-.22-.51-.48-.62C48.35,64.86,48.53,64.67,48.81,64.74Zm-.86.12L48,65a.58.58,0,0,1-.74.21Zm-.53.73c.15,0,.32-.07.5-.11a2.92,2.92,0,0,1,.36.11.22.22,0,0,1,.09.37,2.79,2.79,0,0,1-.38.39c-.17.15-.29.11-.43-.09a2.65,2.65,0,0,0-.21-.26C47.19,65.82,47.21,65.67,47.42,65.59Zm-.13.68c.16.22,0,.51-.37.77l-.29-.69C47,66.13,47.16,66.11,47.29,66.27Zm-.33-1c.09.47.06.51-.57.82l-.27-.36Zm-1.89,1.18c.18-.15.37-.28.56-.41a.4.4,0,0,1,.24-.05c.33,0,.44.32.56.57a.49.49,0,0,1-.08.64c-.21.18-.41.34-.71.19a2.75,2.75,0,0,1-.49-.23,1.48,1.48,0,0,1-.27-.4A1.1,1.1,0,0,1,45.07,66.45ZM44.92,68l-.05-.68c.56.27,1.09.65,1.67,0C46.38,68.17,45.83,68.37,44.92,68Zm2.61,0a.44.44,0,0,1-.42.36c-.22,0-.45-.06-.68-.09l.5-.84a4.11,4.11,0,0,1,.42.15A.33.33,0,0,1,47.53,68Zm1.16-.37c0,.12-.11.29-.2.32-.24.08-.33.47-.7.31a.76.76,0,0,0-.62-1c.64-.57.78-.61,1.15-.37A.69.69,0,0,1,48.69,67.63Zm.16.38c.2-.56.55-.67,1.16-.39A2.8,2.8,0,0,1,48.85,68Zm1.22-.62a2.34,2.34,0,0,0-.53-.21.57.57,0,0,1,.66-.38c.3.06.68,0,.83.43C50.73,67.46,50.45,67.64,50.07,67.39Zm1.63-.56a2.41,2.41,0,0,1-.31.25l-1-.63c.29-.55.69-.69,1.19-.41S52,66.54,51.7,66.83Zm-.4-1.17a.5.5,0,0,1,.43-.57.35.35,0,0,1,.42.19A.52.52,0,0,1,52,66Zm.83-.87a.41.41,0,0,1,.57.12c.13.16.06.39-.19.66Zm.06,1.77c0-.44.24-.6.79-.51Zm1.37-1-.21.28-.46-.16c.27-.7.22-1-.64-1.23.06-.1.1-.21.14-.22a1,1,0,0,1,.39,0c.12,0,.23.12.34.13a.75.75,0,0,1,.65.46C53.92,65.14,53.72,65.34,53.56,65.55Zm.22-1.19a9.8,9.8,0,0,0,.95-.36,9.93,9.93,0,0,0,.87-.54.6.6,0,0,1-.36.63c-.33.16-.67.29-1,.45S53.87,64.57,53.78,64.36Zm.25,1.1v-.11l1.09-.16c.18,0,.37,0,.55,0,.47-.06.56,0,.79.54C55.62,65.64,54.85,65.23,54,65.46Zm2.84.37-.76-1.1A.82.82,0,0,0,56,64c-.16-.23,0-.47,0-.7l.1-.06a.76.76,0,0,1,.09.18.72.72,0,0,0,.36.53c.11.06.13.32.14.49a1.66,1.66,0,0,1-.12.42C56.69,65.14,57,65.35,56.87,65.83Z"/><path class="cls-1" d="M17.89,12.9c.08-.23.09-.42.32-.38a.25.25,0,0,1,.12.19C18.27,12.9,18.12,12.92,17.89,12.9Z"/><path class="cls-1" d="M16.08,14.36c0,.15.14.29-.07.36a.21.21,0,0,1-.19-.08C15.76,14.46,15.87,14.39,16.08,14.36Z"/><path class="cls-1" d="M15.62,14.21c-.08-.09-.17-.16-.16-.2s.1-.14.15-.21.17.11.18.18S15.7,14.11,15.62,14.21Z"/><path class="cls-1" d="M16.74,13.64c0,.1,0,.17-.06.2a.78.78,0,0,1-.22.12s-.09-.09-.08-.11a.62.62,0,0,1,.15-.2S16.63,13.64,16.74,13.64Z"/><path class="cls-1" d="M14.69,16.5c-.1.07-.17.14-.24.15s-.15-.12-.14-.14a.35.35,0,0,1,.18-.18S14.59,16.41,14.69,16.5Z"/><path class="cls-1" d="M16.19,13.59c-.06-.1-.12-.17-.12-.23s.1-.1.15-.15.14.11.14.17S16.27,13.5,16.19,13.59Z"/><path class="cls-1" d="M17.13,13.34c.19-.24.19-.24.41-.06A.28.28,0,0,1,17.13,13.34Z"/><path class="cls-1" d="M19.17,11.9c0,.19,0,.29-.15.31s-.07-.05-.08-.08S19,11.94,19.17,11.9Z"/><path class="cls-1" d="M16.85,12.64c.2.1.26.2.13.31a.2.2,0,0,1-.14,0A1.41,1.41,0,0,1,16.85,12.64Z"/><path class="cls-1" d="M15.18,15.23l.23-.28c.11.24,0,.33-.12.36Z"/><path class="cls-1" d="M29,35.29a5.07,5.07,0,0,1-.27-1.2c-.05-.67,0-1.34,0-2a8.43,8.43,0,0,1,.2-3,.87.87,0,0,0,0-.36c-.09-.73-.15-1.46-.28-2.18a21.2,21.2,0,0,0-1.08-4,4.51,4.51,0,0,0-.4-.75.44.44,0,0,0-.22-.15,4.78,4.78,0,0,0-.69-.25l-1.1-.28a1,1,0,0,1,.09-.27,6.25,6.25,0,0,1,1.06-1.51,3.93,3.93,0,0,0,.78-1.28,2.25,2.25,0,0,0,.17-1.26.78.78,0,0,0-.62-.72,1.68,1.68,0,0,1-.8-.37.35.35,0,0,0-.2-.1c-.36,0-.61-.26-.94-.38.07-.17.15-.32.2-.48a10.92,10.92,0,0,0,.38-1.32,2.6,2.6,0,0,0-.46-1.71,1.33,1.33,0,0,0-1.19-.71,15.57,15.57,0,0,0-3.06.31,26.35,26.35,0,0,0-3,.84,9.93,9.93,0,0,0-2.42,1.09.89.89,0,0,0-.27.23c-.17.36-.33.73-.48,1.09-.48,1.16-1,2.32-1.44,3.49-.34.85-.66,1.71-.95,2.59a3.55,3.55,0,0,0-.15,1.94c0,.18,0,.37.09.55a1.18,1.18,0,0,0,.69,1,3.16,3.16,0,0,0,2.16.15,14.25,14.25,0,0,0,1.85-.69,13.49,13.49,0,0,0,2.54-1.55l1.26-.92.7.9c-.36.71-.71,1.33-1,2a9.74,9.74,0,0,0-1,4.81,1.67,1.67,0,0,1,0,.32c-.08.87-.14,1.75-.25,2.61A10.19,10.19,0,0,1,18.21,35a1,1,0,0,0,.2,1.15,1.4,1.4,0,0,1,.37,1.55,2.25,2.25,0,0,0-.06.36,1.59,1.59,0,0,0,.42,1.32.85.85,0,0,1,.24.75c-.07.68-.12,1.37-.2,2.06a.43.43,0,0,0,.23.49c.26.12.54.21.81.31l.06.62,1,.09a.81.81,0,0,0-.4.89s0,.05,0,.08c0,.25-.07.49-.09.73s.07.44.27.46a.53.53,0,0,0,.66-.48s.05-.07.1-.14l.92.07.09.57.62.17c.34.09.49,0,.52-.36,0-.1,0-.2.05-.35h1v.75l.71-.1c0-.3.07-.52.11-.75a1.41,1.41,0,0,0-.45-1.45.33.33,0,0,1-.07-.28,2.08,2.08,0,0,1,.15-.57c.49-1,1-2,1.49-3.06a1.2,1.2,0,0,1,.32-.49,2.47,2.47,0,0,0,.7-.94c.37-.68.66-1.41,1-2.11A1.23,1.23,0,0,0,29,35.29ZM27,22.11c.09.22.18.41.26.6a15.8,15.8,0,0,1,1,3.62c.1.56.22,1.11.33,1.67a3.2,3.2,0,0,1-.22,1.88c-.16.42-.26.87-.42,1.42,0-.23,0-.35,0-.48,0-.93,0-1.87,0-2.8s-.12-1-1-.83h-.19c-.07-.7-.15-1.38-.2-2.07,0-.17.11-.34.14-.52a1.32,1.32,0,0,0-.07-.32c-.11,0-.27,0-.31.12a7.52,7.52,0,0,0-.48,1,1.91,1.91,0,0,0,.06.62c-.25.45-.25.47.11.72l-.07.4A8.1,8.1,0,0,1,24.1,24.6l.75.49c.27-.45.53-.87.76-1.29a5.9,5.9,0,0,1,1.23-1.58A1.63,1.63,0,0,1,27,22.11ZM23.45,34.55l-.08.06a4.13,4.13,0,0,0-.31-.42c-.06-.07-.17-.09-.27-.14l.07-.42ZM23,33.15c.13-.34.25-.68.38-1a2.13,2.13,0,0,1,.78,1.61,1,1,0,0,1-.43.87l-.68-1A.44.44,0,0,1,23,33.15Zm.45,2.05-.48,1c-.24-.3-.44-.56-.64-.83a.25.25,0,0,1-.05-.2c.15-.37.32-.73.48-1.1C23,34.43,23.23,34.8,23.48,35.2Zm-1,.66a6.12,6.12,0,0,1,.4.49s0,.12,0,.28c-.29-.37-.62-.59-.75-1l.09-.08Zm.3,1-.6,1.57c-.14-.13-.25-.22-.35-.33a.8.8,0,0,1-.22-.91c.14-.37.25-.74.41-1.2ZM21.6,38.26c.1.23.42.28.42.7l-.5-.63Zm.27,1.05-.42,1.33c-.22-.24-.41-.42-.56-.62a.46.46,0,0,1,0-.33c.11-.41.25-.82.38-1.24l.06,0Zm-.57,1.84c-.35-.28-.59-.51-.61-.89C20.93,40.49,21.27,40.65,21.3,41.15Zm.81-1.77c.09-.26.14-.53.23-.78A18.59,18.59,0,0,1,24,34.75l.12-.18.12,0c-.22.64-.43,1.27-.64,1.91,0,.13-.1.26-.13.39a3.68,3.68,0,0,1-.57,1.48,12.27,12.27,0,0,0-1.37,3.2c-.08.24-.14.5-.23.74,0,.06-.09.11-.22.13a3.29,3.29,0,0,1,.14-.54C21.48,41.07,21.8,40.23,22.11,39.38Zm.78-.59c-.2,1-.38,1.88-.58,2.81-.11.49-.18.54-.71.6A9.77,9.77,0,0,1,22.89,38.79Zm-.19,1.83c.17-.06.31-.13.46-.17a1,1,0,0,1,1.06.2c.22.22.48.39.71.6A.5.5,0,0,1,25,42a5.36,5.36,0,0,1-.76-.37,1.82,1.82,0,0,0-1.57-.44Zm1.89,0a1.36,1.36,0,0,0-1.66-.4s-.05,0-.13,0a8.75,8.75,0,0,1,.2-1c.25-.93.53-1.85.8-2.77.14-.46.27-.91.44-1.35a3,3,0,0,0,.06-1.84c-.19-.73-.37-1.46-.53-2.19-.08-.38-.12-.78-.19-1.21A5.81,5.81,0,0,0,25.39,29a3.85,3.85,0,0,0,.55.15.67.67,0,0,1,.62.73A13.83,13.83,0,0,1,26,32.47c-.13.63-.34,1.24-.42,1.88a2.83,2.83,0,0,0,.52,2.26.48.48,0,0,1,.12.51,28.28,28.28,0,0,0-.9,3.74c0,.09,0,.18-.09.32A4.85,4.85,0,0,1,24.59,40.66Zm-1.14-11a3.09,3.09,0,0,1,.5-1.8l.58-.08a1.39,1.39,0,0,1,0,.39c0,.3-.1.6-.16.89a.42.42,0,0,1-.36.41A3.57,3.57,0,0,0,23.45,29.64Zm2.75-3.88c-.22-.26-.1-.46.11-.76,0,.42.07.76.11,1.1s.07.61.1.91,0,.38-.25.46a1.21,1.21,0,0,1,0-.49.44.44,0,0,0-.26-.61,1.94,1.94,0,0,0,.23-.32C26.23,26,26.25,25.82,26.2,25.76Zm.95,6.78a1.94,1.94,0,0,1-.53-1.26A2.36,2.36,0,0,1,27.15,32.54Zm-.28-2.33c.24.68.46,1.3.67,1.92l-.13.06c-.07-.11-.14-.22-.2-.33s-.2-.51-.33-.74A.89.89,0,0,1,26.87,30.21ZM27,32.82l-.63.83a.86.86,0,0,1-.17-1c.1-.24.18-.5.31-.85ZM25.8,34.4c0-.18,0-.31,0-.43s.07-.23.11-.4C26.19,34,26.19,34,25.8,34.4Zm.07.37c.52-.74,1.06-1.47,1.59-2.19a1.4,1.4,0,0,1,.21-.2c0,.14.06.24,0,.29-.16.24-.33.47-.5.7a1.92,1.92,0,0,0-.13.17c-.38.62-.76,1.25-1.13,1.88l-.1,0A.74.74,0,0,1,25.87,34.77Zm.77.09c.11.26.23.52.33.78,0,0,0,.07-.11.16C26.69,35.46,26.53,35.21,26.64,34.86Zm.11-.33.43-.64.41.77-.45.72Zm.64-.89.09-.06a1.22,1.22,0,0,1,.16.26.33.33,0,0,0,.34.23l-.29.28Zm.3-.17c-.1-.19-.05-.31.14-.44a.84.84,0,0,1,.15,1A6.63,6.63,0,0,0,27.69,33.47Zm0-5.67c0,1.29,0,2.58,0,3.87a10.81,10.81,0,0,1-.76-2.11c.6-.46.49-1.19-.27-1.91a1,1,0,0,1,.86-.3c.06,0,.15.11.18.18A.61.61,0,0,1,27.74,27.8Zm-.66,1.13c0,.21-.16.33-.34.27s-.49-.08-.65-.36c.32-.21.53-.45.28-.85A.79.79,0,0,1,27.08,28.93Zm-1.41-.26c-.18,0-.34.12-.51.18l-.48.18a6.27,6.27,0,0,1,.13-1.13c.08-.28.42-.32.68-.4s.33.09.41.27a.35.35,0,0,0,.05.08C26.33,28.38,26.28,28.52,25.67,28.67Zm.69,6.56.38.8-.37.57C25.8,36,25.87,35.88,26.36,35.23Zm.29,1.35c.34-.58.7-1.15,1.05-1.72.16-.28.33-.54.51-.83a.5.5,0,0,1,0,.7c-.48.77-1,1.53-1.46,2.28C26.5,36.93,26.54,36.76,26.65,36.58ZM28,32.7a.79.79,0,0,1,0-.52A11.28,11.28,0,0,0,28.37,31a20.63,20.63,0,0,1,.13,2.67h-.12C28.26,33.32,28.14,33,28,32.7Zm-3.86-7.56c-.23-.06-.25-.06-.37-.29Zm2.17-3.47.51.18a2.68,2.68,0,0,1-.28.34,5.21,5.21,0,0,0-1.12,1.55,7.82,7.82,0,0,1-.5.82c-.12.2-.21.2-.41.06A6,6,0,0,1,22.85,23c-.28-.42-.6-.8-1-1.25a4.19,4.19,0,0,1,.69-.25,8.66,8.66,0,0,1,2,2.2C24.67,23.6,26,21.54,26.34,21.67ZM15.55,17.36c-.33,0-.66.12-1.08.2a8.37,8.37,0,0,1,1.74-2,1.83,1.83,0,0,1,.24.19c.38.39.37.62.07,1.07A1.23,1.23,0,0,1,15.55,17.36Zm.35.19c-.08.3-.14.6-.24.88,0,.1-.15.18-.25.24L13.52,19.9l-.9.59A7.6,7.6,0,0,1,14,18.08s.07-.12.12-.13A5.73,5.73,0,0,1,15.9,17.55Zm1-.95.5.52h-.91Zm.32.88L16,18.3C16.05,17.51,16.47,17.21,17.27,17.48Zm-.81.88-.44.37C16,18.43,16.25,18.4,16.46,18.36Zm.85-.47.07.05c-.15.31-.29.63-.45.93s-.18.32-.63.18C16.66,18.64,17,18.27,17.31,17.89Zm.35.12c0,.59-.08.81-.5,1A2.22,2.22,0,0,1,17.66,18Zm-.61-1.58.54-.57.11.05V17Zm.64-1a.45.45,0,0,1-.13.23l-.56.5c-.16-.22-.32-.42-.45-.64a.35.35,0,0,1,0-.33c.35-.35.71-.67,1.08-1,0,0,.08,0,.16,0C17.76,14.58,17.74,15,17.69,15.4Zm.17,3,.08,0-.07.27-.08,0Zm0-3.08c0-.49.08-.95.14-1.42a.44.44,0,0,1,.17-.26c.32-.23.66-.44,1-.66l.07.07-.32.75c-.1.26-.22.51-.31.77C18.46,15,18.47,15,17.9,15.29Zm.42.16-.3,1C17.86,15.73,17.83,15.6,18.32,15.45Zm1.11-.58-1.06,1.35C18.5,15.25,18.71,15,19.43,14.87Zm-.41.9.71-.94C19.81,15.11,19.66,15.31,19,15.77Zm.92-.55,0,.07-.27.21,0-.05Zm.25.18c.12.41.13.41-.15.57l-1.14.62,0-.08Zm3.06,1.46.15.43c.06.16,0,.3-.16.31a1.44,1.44,0,0,1-1.41-.32,4.06,4.06,0,0,1,.42-.63A.56.56,0,0,1,23.25,16.86Zm-.5-.73c.19-.65.52-.88.93-.71l-.6.65C23,16.19,22.89,16.27,22.75,16.13Zm.44,4.16a1.66,1.66,0,0,1-1.24-1c.21,0,.38.06.54.07C23.07,19.41,23.26,19.66,23.19,20.29Zm.09.34c0,.21-.16.3-.29.41C23,20.63,23,20.63,23.28,20.63Zm-1.59-1.31a8.17,8.17,0,0,1-2.29-1.59c.13-.07.24-.2.36-.2.4,0,.8,0,1.2.06a5.45,5.45,0,0,1,.62.09A2.17,2.17,0,0,0,21.69,19.32Zm0-1.41,1.39.35c-.08.36-.14.41-.49.29a4.61,4.61,0,0,1-.74-.36C21.78,18.15,21.76,18,21.69,17.91Zm1.19.93c.08,0,.12.16.19.26-.84.25-1.37,0-1.38-.68C22.1,18.56,22.5,18.69,22.88,18.84Zm-.77-1.07h1.27A1,1,0,0,1,22.11,17.77Zm-.55-.33-1.64-.13c.16-.35.3-.58.73-.6A8.14,8.14,0,0,0,22,16.43C21.87,16.77,21.73,17.07,21.56,17.44Zm-2.4-.69,1-.61C20.09,16.6,19.86,16.73,19.16,16.75Zm.6.14c-.21.43-.21.43-.83.24Zm1.76,2.7-.63.7A13.07,13.07,0,0,1,19.12,18C20,18.47,20.7,19.08,21.52,19.59Zm.23.09,1.13.89c0,.22-.2.35-.43.45l-.83.38L21,20.53Zm3.55,1.8.65.1-1.39,1.65c-.16-.26-1.69-1.86-1.69-1.86l.35-.22,1.45,1.28Zm-1.92-.37.27-.75,1.19.71-.07.8C24.19,21.85,23.84,21.42,23.38,21.11Zm2.8-1.92c-.18-.48-.11-.61.42-.7Zm.31-.85-.13-.57.54.27Zm.16-.7.35-.07C26.92,17.81,26.82,17.78,26.65,17.64Zm-.33-1.38c.61.14.76.39.67,1a.69.69,0,0,1-.67,0Zm-.12,1.79h0v.21h0a1,1,0,0,1-.1.33c0,.07-.12.2-.15.27s0,.38-.07.46a7.33,7.33,0,0,1-.76,1.28h0c-.16.17-.35.16-.62,0a1.53,1.53,0,0,1-.9-1.09.6.6,0,0,0-.12-.24c-.28-.38-.29-.38-.15-.91l.18.11c.05,0,.09.07.18.12.07-.1.15-.19.21-.29s.1-.26.15-.39c.19-.52.19-.51.75-.5h1c.3,0,.36,0,.4.31C26.2,17.85,26.2,18,26.2,18.05Zm-2.49,0v-.7h.36l-.28.71Zm2.44-1a.43.43,0,0,1-.34.24,2.15,2.15,0,0,1-1.3-.11.67.67,0,0,0-.35-.05h-.49c-.22-.48-.08-.85.38-1a7.33,7.33,0,0,1,1.15-.24C25.85,15.73,26.26,16.52,26.15,17ZM24.7,15.63a5.19,5.19,0,0,0-.84.27,4.2,4.2,0,0,0-.61.53A1.1,1.1,0,0,1,24.7,15.63Zm-.14-.69a.32.32,0,0,1-.42.24l-.22,0a1.16,1.16,0,0,0-1.41.82c0,.08-.05.17-.07.21l-2,.41a.8.8,0,0,1,.37-.78,27.14,27.14,0,0,1,3.26-1.68l.83-.39.09.08C24.85,14.18,24.68,14.55,24.56,14.94ZM25,13.09a.52.52,0,0,1-.33.49c-.45.21-.9.41-1.33.63l-2.32,1.21-.43.24a.51.51,0,0,1,.12-.76c.59-.46,1.18-.93,1.78-1.37s1.41-1,2.13-1.47A1.79,1.79,0,0,1,25,13.09Zm-1.29-1.63a.32.32,0,0,1,.45,0,5.25,5.25,0,0,1,.42.41,33.91,33.91,0,0,0-4.25,3.08l-.07-.06a2.69,2.69,0,0,1,.2-.27c.59-.63,1.17-1.28,1.8-1.89C22.74,12.27,23.26,11.88,23.74,11.46Zm-1.15-.07.85-.07,0,.1-.57.55-2.4,2.4a2,2,0,0,1-.3.29c-.06,0-.17,0-.36,0,.25-.32.42-.57.61-.8l2-2.37A.34.34,0,0,1,22.59,11.39Zm-.45.12-2.45,3-.92.22c.12-.29.21-.53.3-.76a2.32,2.32,0,0,0,.19-.47,2.33,2.33,0,0,1,1.68-1.59l.88-.37A1.65,1.65,0,0,1,22.14,11.51ZM13,18.26c.16,0,.37.18.43-.09,0-.07-.13-.18-.24-.32l.56-1.3c.18,0,.43.07.48-.19,0-.08-.13-.19-.26-.35l.25-.52c.2-.1.42-.15.43-.22s-.1-.28-.18-.48c.07-.17.17-.41.28-.65s.13-.41.43-.4c.07,0,.22-.16.21-.2-.08-.26.11-.28.25-.35L17,12.56l.27.25.2-.27c.06-.07.11-.15.18-.18a2.31,2.31,0,0,1,.35-.14l.35.24.15-.37c.35-.1.75-.38,1.19,0,.26-.61.82-.43,1.31-.46-.22.12-.44.24-.67.35a14.37,14.37,0,0,0-2.71,1.87c-.19.17-.33.4-.69.28-.18,0-.15.16,0,.28-.16.09-.19.37-.48.23a.16.16,0,0,0-.2.22c.09.2-.05.28-.15.38L15,16.36c-.22,0-.38,0-.47.1s-.07.27.11.39l-1.46,2-.31-.12Zm-.33.8c.19.26.2.26,0,.68-.1.21-.23.41-.34.62l-.1-.06ZM12.36,21a.28.28,0,0,1,.1-.14L15.38,19c.08-.05.18-.08.26-.12l0,.07s0,0,0,.05l-3.55,3.16-.11,0C12.14,21.72,12.24,21.36,12.36,21Zm0,2.77c-.43-.33-.31-.79-.32-1.21,0-.11.16-.25.27-.35.6-.56,1.22-1.11,1.83-1.68a11,11,0,0,1,1.4-1.24l.3-.17A38,38,0,0,1,12.4,23.77Zm.35.23c0-.34.28-.55.44-.78.43-.62.9-1.2,1.35-1.8L16,19.5c.19-.26.2-.26.72-.07-.81,1.61-1.59,3.18-2.37,4.75A2.85,2.85,0,0,1,12.75,24Zm3.63-.49a9.22,9.22,0,0,1-1.82.64c.07-.18.11-.31.17-.43l2.05-4.1a.64.64,0,0,1,.66-.41c-.2.76-.41,1.46-.59,2.17S16.54,22.78,16.38,23.51Zm.28-.18a24.76,24.76,0,0,1,1-4.08,1.28,1.28,0,0,1,.15-.25l.13,0,.21,3.52A4.87,4.87,0,0,1,16.66,23.33Zm1.68-.93a24.44,24.44,0,0,1-.2-3.49,19,19,0,0,1,.75,3.15Zm.83-.52a29.26,29.26,0,0,1-.84-3.14l.13-.06L20.25,21Zm1.66-.56c-.71-.91-1.39-1.85-2.08-2.77-.15-.2-.3-.39-.44-.59s-.26-.4-.38-.6c.18-.2.28-.07.38.05l1,1.35,1.14,1.5,1.43,1.92c.58.79,1.17,1.57,1.74,2.37a.71.71,0,0,1,.11.25,5.33,5.33,0,0,1-.54-.52C22.42,23.3,21.61,22.32,20.83,21.32ZM19.3,27.75a13,13,0,0,1,1.44-4.57c.14-.27.31-.52.51-.85l4.13,4.82a1.58,1.58,0,0,1-1,.45c-.7,0-1.4,0-2.14,0,.09-.32.14-.67.49-.86a.28.28,0,0,0,.12-.4.4.4,0,0,1,0-.42,2,2,0,0,0-.07-1.16c0-.13-.17-.17-.31-.07a4.85,4.85,0,0,1-.55,1.89c-.15.3-.22.32-.55.27l-.27-.06c-.35-.05-.46,0-.52.28s0,.37.33.49l.11,0a4.15,4.15,0,0,0-.29.66.33.33,0,0,0,.16.28c.05,0,.19,0,.28-.08a.43.43,0,0,0,.13-.19.81.81,0,0,1,.93-.4c.44.05.87.07,1.33.1-.07.22-.15.47-.22.73s-.1.39-.13.59c-.08.46-.1.5-.56.58s-.73.08-1.1.12a2,2,0,0,1-2-1A1.82,1.82,0,0,1,19.3,27.75Zm2.26-.38h0s0-.05,0-.06c.59-.31.71-.91.88-1.48a.92.92,0,0,1,.21-.42c0,.15,0,.34-.06.43a.44.44,0,0,0-.06.55l-.64,1.19-.46.07Zm-.8-.14c.1-.3.31-.22.49-.17s.39,0,.3.31A1.56,1.56,0,0,1,20.76,27.23Zm.2,4.15-.87-1.17.1-.08C20.48,30.53,20.89,30.84,21,31.38Zm-.41-1.22,1,.11-.39.73Zm-.36.56c.2.28.41.55.6.85a.39.39,0,0,1,0,.3c-.2.53-.43,1.07-.68,1.69A8.71,8.71,0,0,1,20.19,30.72Zm0,3.39c.21-.42.31-.89.49-1.33.29-.69.6-1.37.92-2,.12-.25.25-.52.65-.56-.7,1.57-1.37,3.08-2.06,4.65A.83.83,0,0,1,20.15,34.11Zm.7-.28a2.22,2.22,0,0,1,.73,1.06l-.1.07c-.25-.31-.49-.62-.73-.94C20.73,34,20.8,33.93,20.85,33.83Zm.09-.29.51-1.15c.23.31.44.56.62.82,0,.06,0,.18,0,.26-.09.31-.2.61-.32,1Zm.6-1.42a1.06,1.06,0,0,1,.66.8Zm.2-.4.52-1.07a2,2,0,0,1,.67.75l-.54,1.15Zm.72-1.53c.28.26.59.49.64.9C22.88,30.79,22.44,30.64,22.46,30.19Zm.33-.09.57-.17a1,1,0,0,1-.06.83ZM18.64,36a1,1,0,0,1-.22-1,13,13,0,0,0,.64-3.08c.08-.76.13-1.52.19-2.28,0,0,0-.09,0-.14A29.61,29.61,0,0,1,19,36.34Zm.75,3.25A1.65,1.65,0,0,1,19,37.69l.3-2.42c.06-.55.14-1.09.18-1.64s.08-1.34.1-2,0-1.16,0-1.74a.56.56,0,0,1,.08-.2.44.44,0,0,1,.22.49c0,.35,0,.7,0,1.06,0,1.09,0,2.18,0,3.26,0,.86.14,1.72.18,2.57s.06,1.9.08,2.84l-.1,0C19.81,39.7,19.61,39.47,19.39,39.26Zm.8,3.46c-.24-.09-.45-.16-.66-.26s-.18-.22-.16-.38c.07-.69.13-1.37.2-2a.79.79,0,0,1,0-.17,1,1,0,0,1,.51.71c0,.64.07,1.28.1,1.92C20.22,42.55,20.2,42.61,20.19,42.72Zm0-7.38.47-1c.26.33.51.6.71.9a.68.68,0,0,1,0,.47c-.07.33-.19.64-.32,1.06Zm.68,2A1.89,1.89,0,0,1,20.22,36C20.42,36.41,20.94,36.71,20.83,37.3Zm-.57,1.44V37.12a.72.72,0,0,1,.36.89c-.08.25-.17.49-.25.74Zm.08.83c.21-.69.46-1.36.67-2s.39-1.29.56-1.94a19.61,19.61,0,0,1,1.18-3.27q.22-.51.48-1a.68.68,0,0,1,.31-.32,1.46,1.46,0,0,1,0,.37c-.37,1-.76,1.94-1.12,2.92-.29.79-.53,1.6-.83,2.38s-.47,1.73-.75,2.58c-.11.34-.25.68-.38,1l-.14,0A3.6,3.6,0,0,1,20.34,39.57Zm.15,1.17.19.15c.48.52.48.52.24,1.2-.05.14-.07.29-.12.43a1.17,1.17,0,0,1-.17.26l-.13-.05A4.06,4.06,0,0,1,20.49,40.74Zm-.06,2.54a1.57,1.57,0,0,1,.83-.62c.3-.13.59-.25.89-.36s.26-.28.32-.47c.11-.35.15-.41.5-.41a1.69,1.69,0,0,1,.71.13c.44.23.85.52,1.32.81l-.08.77a2.43,2.43,0,0,0-2.28,0A2.87,2.87,0,0,1,20.43,43.28Zm2.86,2.38c-.53,0-.24-.42-.42-.58a3,3,0,0,0-1.29,0c-.16.17-.08.61-.55.46,0-.25,0-.5,0-.76a.23.23,0,0,1,.28-.23,6.38,6.38,0,0,0,1.69,0,1.36,1.36,0,0,1,.29.06Zm-2.16-1.43c.32-.7,1.51-.69,2.19,0A4.75,4.75,0,0,1,21.13,44.23Zm1.28-.75a1.9,1.9,0,0,1,2.35,0,3.35,3.35,0,0,0-.69.15,3.56,3.56,0,0,0-.57.39Zm3.13,2.23-.34.08L25.13,45a3.75,3.75,0,0,0-1.29.08c-.13.6-.13.6-.4.65l.08-1,2,.07C25.69,45.12,25.51,45.4,25.54,45.71Zm.05-1.2a4.48,4.48,0,0,1-2-.06c0-.11,0-.26.09-.32a1.94,1.94,0,0,1,.64-.41C24.86,43.56,25.33,43.87,25.59,44.51Zm-.34-1.82a30.62,30.62,0,0,1,1.18-5.55h.11a1.92,1.92,0,0,1,.11.46,1.4,1.4,0,0,0,.55,1.29C26.54,40.18,25.89,41.43,25.25,42.69Zm2.11-3.92a1.22,1.22,0,0,1-.23-1.8c.16.43.33.84.46,1.25C27.66,38.42,27.64,38.44,27.36,38.77Zm.43-.77a6.22,6.22,0,0,1-.51-1.51A2.73,2.73,0,0,1,27.79,38Zm.24-.42a7.85,7.85,0,0,1-.47-1.24c0-.19.16-.42.26-.64h.11a3.17,3.17,0,0,0,.23.49A1,1,0,0,1,28,37.58Zm.14-2.16a2.69,2.69,0,0,1,.4,1A1.82,1.82,0,0,1,28.17,35.42Zm.64.57-.11,0c-.12-.31-.24-.63-.34-1,0-.06.09-.16.16-.29A2.39,2.39,0,0,1,28.81,36Z"/><path class="cls-1" d="M19,59.3a1,1,0,0,0-.57-.84,4.08,4.08,0,0,0-1.82-.32,2.1,2.1,0,0,0-2.09,1.31c-.06.12-.11.24-.16.37H14.3c0-.25,0-.5-.05-.75a5.34,5.34,0,0,0-1.06-2.84,1.9,1.9,0,0,0-2.9.11c-.25.52-.54,1-.8,1.52-.1.18-.16.38-.27.54A.7.7,0,0,1,8,58.33c-.17-.29-.34-.58-.49-.88a4.77,4.77,0,0,0-.8-1.22,3.63,3.63,0,0,0-1.48-.71.2.2,0,0,0-.15,0,4.39,4.39,0,0,0-.88.48A3.78,3.78,0,0,0,3.1,57.54a8.25,8.25,0,0,0-.57,3.92A11,11,0,0,0,3.22,65a1.38,1.38,0,0,1-.15,1.35c-.45.72-.91,1.44-1.3,2.2a4.1,4.1,0,0,0-.35,3,1.32,1.32,0,0,1,0,.88c-.17.46-.34.91-.47,1.38a4.52,4.52,0,0,0,0,2.65c.14.43.27.86.41,1.32a2.62,2.62,0,0,1-.37,0,.59.59,0,0,0-.66.36,4.66,4.66,0,0,0-.22.45A.79.79,0,0,0,.6,79.72a3,3,0,0,0,1.54.16.67.67,0,0,1,.39,0A2.08,2.08,0,0,0,4,79.8a4.68,4.68,0,0,1,1.07-.12s.07.1.12.12a2.58,2.58,0,0,0,2,.31c.16,0,.45-.09.53,0,.28.31.65.26,1,.31A3.29,3.29,0,0,0,11,80c.1-.06.21-.1.3-.15.31.41.55.48,1,.25a1,1,0,0,1,.72-.11,1.22,1.22,0,0,0,.84-.1,1.05,1.05,0,0,1,.82-.09,1.6,1.6,0,0,0,1.33-.12.68.68,0,0,0,.39-.74,2.53,2.53,0,0,0-.51-1.3,1.74,1.74,0,0,1-.33-.82c-.09-1-.13-2-.18-3a4.27,4.27,0,0,0-.88-2.54.61.61,0,0,1-.09-.81l.5,0a2.55,2.55,0,0,0,1.55-.38A4,4,0,0,0,17.84,68a10.16,10.16,0,0,0,.36-2.39c0-1.16,0-2.33.11-3.49a3.18,3.18,0,0,1,.46-1.68A1.7,1.7,0,0,0,19,59.3Zm-4.5,2.63a4.65,4.65,0,0,1,.31-2.41c0,.94,0,1.76.06,2.59,0,.65.08,1.31.06,2a15.12,15.12,0,0,1-.21,1.9A1.85,1.85,0,0,1,14,67.14c-.24.19-.38.19-.52,0s-.23-.51,0-.7A2.77,2.77,0,0,0,14.3,65,9.06,9.06,0,0,0,14.52,61.93ZM5.13,68.42a2.51,2.51,0,0,1,.46-.6.86.86,0,0,1,.54-.22,6,6,0,0,1,1,.15c-.09.17-.16.32-.24.46a2.39,2.39,0,0,0-.18,2.05,1.34,1.34,0,0,0,1.27,1l.66,0a1,1,0,0,0,.93-.42,2.64,2.64,0,0,0,.56-2.14,1,1,0,0,0-.29-.46,3.27,3.27,0,0,0-.45-.41l1.25-.23c.08,0,.18.07.25.14a1.77,1.77,0,0,1,.53,1.85,5.9,5.9,0,0,1-1,2.3c-.26.33-.54.64-.85,1a2.35,2.35,0,0,0-1.62-1.21c-.33-.11-.66-.25-1-.37a1.72,1.72,0,0,0-.54-.14c-.72,0-1.05-.51-1.36-1A1.62,1.62,0,0,1,5.13,68.42Zm-.2,2.28a2,2,0,0,1-.71-1.47,5.87,5.87,0,0,1,1-1.74s.35,0,.38.06-.37.49-.43.57A2.35,2.35,0,0,0,4.93,70.7Zm1.9-1.39A1.37,1.37,0,0,1,7.9,67.9a1.79,1.79,0,0,1,1.39.27,1.06,1.06,0,0,1,.49,1,4.15,4.15,0,0,1,0,.61,1.44,1.44,0,0,1-1,1.25,1.73,1.73,0,0,1-1.83-.68,1,1,0,0,1-.09-.44,2.88,2.88,0,0,1,0-.41ZM10,72.74a5.86,5.86,0,0,0,1.6-3.25,1.91,1.91,0,0,0-.35-1.67.92.92,0,0,1-.13-.21s0,0,0-.07a.77.77,0,0,1,.46.53A3.7,3.7,0,0,1,11.4,71a10.25,10.25,0,0,1-1.47,2.25l-.22-.14A3,3,0,0,1,10,72.74Zm1.23-.83a4.45,4.45,0,0,0,.63-3.86c-.07-.22-.19-.42-.29-.65L12.91,67a5.63,5.63,0,0,1,1.08,4l-.5,0a1.4,1.4,0,0,0-1.12.68,8.53,8.53,0,0,0-1.19,3.15c-.36-.53-.4-1.13-.93-1.43C10.59,72.84,11,72.4,11.24,71.91ZM14.31,63c-.08,1.17-.05,2.38-1.19,3.16A12,12,0,0,0,14.31,63ZM3,63.21A19.74,19.74,0,0,1,2.73,60a5.87,5.87,0,0,1,1.06-3.27,2.17,2.17,0,0,1,1.07-.89.68.68,0,0,1,.39-.05A2.38,2.38,0,0,1,7,57.06c.22.51.48,1,.74,1.49a1.06,1.06,0,0,0,1.68.1,1.37,1.37,0,0,0,.23-.45,4.4,4.4,0,0,1,.85-1.75,1.5,1.5,0,0,1,2.06-.38,2.72,2.72,0,0,1,1,1.43,11.84,11.84,0,0,1,.58,3.78,10.33,10.33,0,0,1-.69,3.61,2.34,2.34,0,0,1-.32.63.79.79,0,0,1-.62.38,2,2,0,0,0-.64.15,9,9,0,0,1-2.81.6,8.22,8.22,0,0,1-2.16,0,10.64,10.64,0,0,1-1.38-.32c-.56-.18-1.11-.39-1.65-.61a.57.57,0,0,1-.29-.3A12.87,12.87,0,0,1,3,63.21ZM3.61,66a2.91,2.91,0,0,1,1.28.35,9.55,9.55,0,0,0,5,.53,7.11,7.11,0,0,0,2.45-.75.65.65,0,0,1,.29,0,1,1,0,0,1,.15.22.88.88,0,0,1,.07.23,1.05,1.05,0,0,1-.77.46c-1,.22-2,.46-3,.6a7,7,0,0,1-1.71,0,21.34,21.34,0,0,1-2.24-.37c-.61-.15-1.21-.38-1.84-.59ZM1.55,70.14a4.93,4.93,0,0,1,.64-2c.27-.48.58-.94.88-1.42L5,67.44c-.23.34-.49.69-.71,1.06a1.82,1.82,0,0,0,.42,2.29c.43.37.79.82,1.18,1.23l-.06.08-.5-.26c-.15.42.27.59.31.94-.63.34-.73-.38-1.13-.55-.16.49.44.65.43,1.09-.18-.08-.31-.16-.46-.21s-.36.08-.28.27a3.24,3.24,0,0,0,.31.48c-.52,0-.61-.5-.91-.74-.2.29-.2.29.11.8l-.54.2c-.25-.13-.32-.41-.44-.67s-.27-.5-.41-.74A4.17,4.17,0,0,1,1.55,70.14ZM3.21,74.9A7.46,7.46,0,0,1,2.87,76a.66.66,0,0,1-.68.42c-.41,0-.51-.1-.65-.5a4.15,4.15,0,0,1,0-2,11.17,11.17,0,0,1,.34-1.26l.13,0c.13.25.28.48.39.74a3.3,3.3,0,0,0,.66,1.07A.54.54,0,0,1,3.21,74.9ZM1.76,72.44a11.82,11.82,0,0,0-.7,3.43A4.93,4.93,0,0,1,1.76,72.44Zm-1.2,6.8H.47l0-.33H.62Zm.26.24c0-.13,0-.26,0-.39.06-.48,0-.55-.47-.5.33-.55.58-.64,1.09-.31a2.6,2.6,0,0,0-.41.53A4.14,4.14,0,0,1,.82,79.48Zm.88.19c-.12-.22-.1-.34.07-.46C1.94,79.41,1.8,79.51,1.7,79.67Zm.39-.08c0-.1,0-.21,0-.31S2,79,1.78,79s-.23.16-.32.26a1.34,1.34,0,0,0-.12.3.79.79,0,0,1,.15-.85c.09-.09.27-.2.36-.17a.53.53,0,0,1,.31.33A1.5,1.5,0,0,1,2.09,79.59Zm-.4-1.49c-.2-.62-.42-1.26-.63-1.9l.08-.08a1.36,1.36,0,0,0,1.58.46l.13,1.24-.11-.11-.53.59.08.1Zm1.45,1.65c-.19-.12-.11-.26-.06-.44C3.3,79.53,3.3,79.53,3.14,79.75Zm.43-.11c-.1-.28-.15-.59-.57-.63l-.27.6s-.06,0-.07,0a1.42,1.42,0,0,1,0-1.27c.14-.16.28-.16.41,0,.25.36.48.73.74,1.12ZM7,79.88c-.23.12-.59,0-.89,0a.92.92,0,0,1-.79-.46c.44-.4.85-.79,1.26-1.18A.52.52,0,0,0,6.66,78s0,0,0-.09a2.67,2.67,0,0,0-.38.37,3.87,3.87,0,0,1-1.33,1c-.49.27-.69.22-1-.21-.09-.1-.16-.21-.24-.31h0a2,2,0,0,1-.5-1.09,9.25,9.25,0,0,0,2.6-2.28l.11.08c-.09.14-.18.29-.28.43a6.45,6.45,0,0,0-.37.54c0,.1-.06.32,0,.36a.47.47,0,0,0,.41.05,4.77,4.77,0,0,0,.64-.55A3.68,3.68,0,0,0,6.57,76c.37.29.38.38.16.66-.09.11-.2.19-.28.3-.2.27-.22.44,0,.58a.46.46,0,0,0,.67,0c.11-.11.2-.23.31-.34s.15-.11.26-.2A1.38,1.38,0,0,1,7.36,78c-.19.3-.41.59-.63.9a.39.39,0,0,0,.53,0,2.69,2.69,0,0,0,.8-.91c.12-.22.28-.42.39-.64a.93.93,0,0,1,.91-.51c.19,0,.33.06.36.2a.53.53,0,0,1-.09.41c-.45.5-.9,1-1.39,1.45A6.64,6.64,0,0,1,7,79.88Zm-.18-4.76a.58.58,0,0,0,.52-.25c.2-.24.43-.46.65-.69l.1.08c-.07.09-.13.19-.2.27s-.35.37-.51.56-.24.36-.07.55A.67.67,0,0,0,8,76l.23,0a2,2,0,0,0-.06.23c-.06.39,0,.52.49.61l-.35.43-.34.53c-.07-.42.2-.84-.21-1.12a.9.9,0,0,0-.6.41c-.12.16-.23.39-.53.3,0-.22.15-.28.25-.4.42-.46.42-.69,0-1.15a1.4,1.4,0,0,0-.18-.13c-.48.2-.63.82-1.24,1,.1-.17.15-.27.21-.36A3.88,3.88,0,0,1,5.87,76a.79.79,0,0,0,.13-.9c-.15-.29-.43-.19-.71-.14L6.4,73.34h0c-.09.23-.19.45-.28.68A.82.82,0,0,0,6.78,75.12Zm2,1.5c.36-.39.63-.46,1-.3s.34.26.31.76A1.08,1.08,0,0,0,8.78,76.62ZM10.41,80a3.52,3.52,0,0,1-1.78.11A10.62,10.62,0,0,0,10.89,78a1.45,1.45,0,0,0,.41-1.17A5.67,5.67,0,0,1,10,78.74a5,5,0,0,1-1.86,1.31l-.46-.25c.33-.33.68-.65,1-1s.64-.7,1-1.08a.79.79,0,0,0,.79-.94A.92.92,0,0,0,9.35,76a2.79,2.79,0,0,0-.61.22,2.28,2.28,0,0,0-.3.17c-.18-.24,0-.37.11-.5s.43-.38.63-.58.25-.26.09-.44a.31.31,0,0,0-.46,0,6.87,6.87,0,0,0-.63.58c-.31.33-.34.33-.76-.07.16-.18.31-.37.47-.56s.27-.3.39-.46a.26.26,0,0,0,0-.37.3.3,0,0,0-.41,0,3.88,3.88,0,0,0-.31.26c-.12.12-.23.25-.34.37s-.35.3-.6.14-.32-.29-.2-.64c0-.14.12-.28.17-.42a1.11,1.11,0,0,0,0-.91c-.08,0-.21,0-.24.1A12.82,12.82,0,0,1,4.93,75s0,.09,0,.14c.19.32.45.09.77.08a9.34,9.34,0,0,1-2.55,2.23,2.53,2.53,0,0,1,.07-1.37,8.76,8.76,0,0,1,.44-1.24A5.87,5.87,0,0,0,4.84,74c.4-.43.78-.86,1.19-1.28A.74.74,0,0,0,6,71.68l-.13-.18a2.07,2.07,0,0,1,1.57.3.53.53,0,0,1,.15.44,3.51,3.51,0,0,1-.21.72,1.51,1.51,0,0,0-.07.37,1.53,1.53,0,0,0,.52-1.39,3.35,3.35,0,0,1,.62.24.38.38,0,0,1,.18.32c0,.3-.1.59-.16.89a1.51,1.51,0,0,0-.06.36c.39-.32.4-.81.58-1.26.73.58.59,1.26.24,2,.35-.15.42-.27.58-1a.73.73,0,0,1,.74.39,1.58,1.58,0,0,1,.05,1.64l-.29.55c.33-.09.33-.09.74-1,.07.08.16.14.19.21a7.27,7.27,0,0,1,.57,2.81A2.17,2.17,0,0,1,10.41,80Zm-2.2-4.17a1.8,1.8,0,0,1,.66-.71C8.74,75.48,8.43,75.63,8.21,75.87Zm4.22,3.64c-.49.8-.73.32-.95.19.3-.43.45-1.3.95-1.48A2,2,0,0,1,12.43,79.51Zm1,0c-.06,0-.12,0-.12-.07s0-.21,0-.31h.1Zm.57,0s-.11.1-.19.18c-.25-.29,0-.79-.5-.84-.42.17-.12.68-.46,1a2.83,2.83,0,0,1,0-1.47.54.54,0,0,1,.54-.37.5.5,0,0,1,.56.33A2.66,2.66,0,0,1,14,79.42Zm1.22.2c-.39-.12-.41-.2-.19-.68A.58.58,0,0,1,15.22,79.62Zm.6-1.45a1.84,1.84,0,0,1,.24.6c.09.43-.07.65-.56.8-.06-.37,0-.85-.55-.91-.36.18-.1.75-.55.87a1.86,1.86,0,0,1,.06-1.45A.77.77,0,0,1,15.82,78.17Zm-1.53-6.64A3.43,3.43,0,0,1,15,73.31c.11.92.15,1.85.22,2.77,0,.43.07.87.11,1.32a1.08,1.08,0,0,0-1.13.69c-.28-.23-.51-.55-.91-.45a3.15,3.15,0,0,0-.44.11c-.24.09-.48.2-.75.32-.05-.45-.08-.83-.15-1.21a4.46,4.46,0,0,0-.29-1.17,2.27,2.27,0,0,1-.1-1.58,8.46,8.46,0,0,1,1-2.35.37.37,0,0,1,.23-.17c-.18.48-.39,1-.53,1.45a6.32,6.32,0,0,0-.23,2.8,4.61,4.61,0,0,0,.15.53,1.06,1.06,0,0,0,.9.85,1.32,1.32,0,0,0,1.23-.57,3.42,3.42,0,0,0,.59-2.38,9.79,9.79,0,0,0-.17-1.21,5.17,5.17,0,0,0-.37-1c-.2-.45-.44-.55-.94-.47l-.45.08A.76.76,0,0,1,14.29,71.53Zm-.72.24a.65.65,0,0,1,.66.46,4.93,4.93,0,0,1,0,4.21,1.16,1.16,0,0,1-1.07.56.81.81,0,0,1-.8-.66c-.1-.33-.14-.68-.21-1a2.09,2.09,0,0,1,0-.25,6.93,6.93,0,0,1,.59-2.8A.83.83,0,0,1,13.57,71.77ZM18.2,61.51A11.4,11.4,0,0,0,18,64.12a16.72,16.72,0,0,1-.19,3.08,4.47,4.47,0,0,1-.89,2.06,2.72,2.72,0,0,1-2.67.91c-.09-.47-.14-.88-.23-1.29s-.21-.81-.33-1.25a3.71,3.71,0,0,0,.56-.33,2.51,2.51,0,0,0,.9-2,17,17,0,0,0,0-2.94,14.35,14.35,0,0,1,0-1.74c.41.21.79.36,1.13,0a.61.61,0,0,0,1,.08l1,.3A3.56,3.56,0,0,1,18.2,61.51ZM18.67,60a1.34,1.34,0,0,1-.22.41.67.67,0,0,1-.46.25.35.35,0,0,1-.18,0l0,0c-.33-.15-.28-.44-.28-.71s0-.36-.11-.49l-.06,0-.06,0,0,.11a1,1,0,0,1-.26.9.33.33,0,0,1-.17.07v0l-.12,0h0a.3.3,0,0,1-.13-.09.28.28,0,0,1-.09-.22,4.56,4.56,0,0,0-.16-.91.34.34,0,0,1-.14,0,.39.39,0,0,0-.06.2v.12a.93.93,0,0,1-.13.68c-.06.11-.16.2-.22.2l-.09,0a.41.41,0,0,1-.21,0,.4.4,0,0,1-.22-.36.14.14,0,0,1,0-.06,1.41,1.41,0,0,1,1.25-1.69,9.5,9.5,0,0,1,1.31.09A1,1,0,0,1,18.67,60Z"/><path class="cls-1" d="M4.79,60.33c.34-.06.32-.31.3-.57a.62.62,0,0,0,.65.16c.84-.14,1.25-.05,1.64.86.23.56.37,1.15.57,1.77h.77a6.46,6.46,0,0,1,.8-1.88.87.87,0,0,1,1-.5c.37.08.74.19,1.14.29l.37-.73a.37.37,0,0,1,0,.46l-.19.43.3.16.26-.49c.33.2-.22.62.25.76l.28-.53c.1.31.1.31-.16.9l-.34-.14c-.52-.25-1-.52-1.55-.74a.83.83,0,0,0-1.11.31,3,3,0,0,0-.68,1.28c-.05.21-.12.41.09.6a.32.32,0,0,1,0,.46c-.22.28-.45.55-.69.8s-.31.41-.06.72a1.5,1.5,0,0,0,2,.48s.09,0,.24,0c-.13.13-.18.22-.27.25a1.54,1.54,0,0,1-.52.14,1.87,1.87,0,0,0-1,.38,1.21,1.21,0,0,1-1.4-.2.75.75,0,0,0-.61-.28,1.05,1.05,0,0,1-1-.4c.06-.2.18-.12.31-.08a3.9,3.9,0,0,0,.93.21A1.21,1.21,0,0,0,7.77,65a.65.65,0,0,0,.12-1,4.7,4.7,0,0,1-.37-.54.7.7,0,0,1,0-.63,1.5,1.5,0,0,0,.07-.63,3.62,3.62,0,0,0-.67-1.72.73.73,0,0,0-.7-.33,2.06,2.06,0,0,0-1.25.47c-.3.27-.63.5-.95.75a1.51,1.51,0,0,1-.28.07L4,60.94c0-.34-.49-.61-.19-1.13l.36.91.37-.16-.12-.5C4.62,60,4.65,60.23,4.79,60.33ZM7.73,63a.65.65,0,0,0,.37.74c.34.13.45-.2.59-.42A1.75,1.75,0,0,0,8.82,63,2.12,2.12,0,0,0,7.73,63ZM9,65.5l-.68-.58-.66.59C8.25,66,8.48,65.94,9,65.5Z"/><path class="cls-1" d="M10.13,59.2a3.84,3.84,0,0,1,.67-1.91,1.71,1.71,0,0,1,.61-.52.73.73,0,0,1,.89.12A2.49,2.49,0,0,1,13,58.14c.09.38.15.76.23,1.21A14.23,14.23,0,0,1,10.13,59.2Zm2.7-.13a3,3,0,0,0-.43-1.7.71.71,0,0,0-1.25-.12,3.19,3.19,0,0,0-.7,1.69A8.37,8.37,0,0,0,12.83,59.07Z"/><path class="cls-1" d="M3.86,59.06a2.39,2.39,0,0,1,.81-2.31,1.15,1.15,0,0,1,1.3,0,2.23,2.23,0,0,1,1.1,1.62c0,.44,0,.5-.48.53l-2.22.2Zm2.94-.5a1.66,1.66,0,0,0-.69-1.42,1,1,0,0,0-1.59.09A2.22,2.22,0,0,0,4,58.47c0,.36.07.44.45.38L6,58.65C6.27,58.61,6.54,58.59,6.8,58.56Z"/><path class="cls-1" d="M6.11,64a3.93,3.93,0,0,1-2-.32c.09,0,.16-.12.23-.11l1.79.31Z"/><path class="cls-1" d="M9.9,64.36c.11-.16.13-.24.18-.26a5.64,5.64,0,0,1,1.74,0c-.29.23-.62.09-.91.15A10,10,0,0,1,9.9,64.36Z"/><path class="cls-1" d="M5.8,64.58a3.53,3.53,0,0,1-1.51.23c.06-.08.11-.2.18-.21.43-.06.86-.09,1.29-.13Z"/><path class="cls-1" d="M10,64.86c.07-.08.14-.19.18-.18.36.06.72.14,1.08.22a.5.5,0,0,1,.14.08C11.15,65.12,11.15,65.12,10,64.86Z"/><path class="cls-1" d="M6,63.35c-.21.18-.21.18-.82-.13C5.37,63.07,5.46,63.08,6,63.35Z"/><path class="cls-1" d="M11.08,61.47l.07-.67c.29.25.29.25,0,.68Z"/><path class="cls-1" d="M11,63.46c-.18.28-.48.26-.74.36C10.26,63.56,10.46,63.46,11,63.46Z"/><path class="cls-1" d="M6.12,60.34v.85C5.89,60.9,5.88,60.72,6.12,60.34Z"/><path class="cls-1" d="M10.77,60.69a1.14,1.14,0,0,1,0,.83A.62.62,0,0,1,10.77,60.69Z"/><path class="cls-1" d="M5.45,60.48c.26.27.14.49,0,.8A.79.79,0,0,1,5.45,60.48Z"/><path class="cls-1" d="M5.17,61.38c-.3-.13-.31-.15-.18-.55.26.14.07.39.16.57Z"/><path class="cls-1" d="M11.85,61.24l0,.42C11.66,61.4,11.66,61.4,11.85,61.24Z"/><path class="cls-1" d="M15.78,63.63a4.6,4.6,0,0,1,0-1.85.44.44,0,0,1,.28-.25,8.89,8.89,0,0,1,1.15-.08c.08,0,.23.16.24.25,0,.52,0,1,0,1.57,0,.26-.2.35-.41.36Zm1.39-.44a1.76,1.76,0,0,0,0-1.39c-.57,0-.74.11-.78.63S16.54,63.15,17.17,63.19Zm-1-1.45c-.07.08-.18.14-.2.23a2.38,2.38,0,0,0,0,1.4l.47,0C15.91,62.9,16.18,62.33,16.22,61.74Z"/><path class="cls-1" d="M17,66.47c.05.1.08.14.07.16a5,5,0,0,0,0,1.5.61.61,0,0,1-.56.71,2.69,2.69,0,0,1-.8,0,.53.53,0,0,1-.43-.5,4.75,4.75,0,0,1,0-1.25c.07-.47.4-.64.89-.6C16.51,66.49,16.79,66.47,17,66.47Zm-1.49,1.75L15.7,67h-.12a1.82,1.82,0,0,0,0,1.24.67.67,0,0,0,1.16.19l-.9,0C15.74,68.39,15.64,68.31,15.55,68.22Zm.39,0h.89l.06-1.38h-1Z"/><path class="cls-1" d="M17.33,64.26c0,.48-.06,1-.11,1.45A.36.36,0,0,1,17,66a7,7,0,0,1-1.2.11.43.43,0,0,1-.45-.5,3.59,3.59,0,0,1,.16-1,.88.88,0,0,1,1.1-.55A7.2,7.2,0,0,1,17.33,64.26Zm-.34.26c-.91-.11-1.1.15-.83,1.12a.8.8,0,0,0,.83,0Zm-1.22.29a.68.68,0,0,0,0,.88Z"/><path class="cls-1" d="M3.64,78.78c.06-.11.1-.28.18-.31a5,5,0,0,0,2-1.24s0,0,0,0c0,.57-1.44,1.33-2.21,1.53Z"/><path class="cls-1" d="M9.3,69.11c-.09-.37-.29-.72-.65-.77a1.09,1.09,0,0,0-1.3.67,1.8,1.8,0,0,0-.07.7.82.82,0,0,0,.87.89A1.13,1.13,0,0,0,9.3,69.11Zm-.8,1.18a.75.75,0,0,1-1-.8,1.88,1.88,0,0,1,.15-.61.89.89,0,0,1,1.51.19A1,1,0,0,1,8.5,70.29Z"/><path class="cls-1" d="M11.28,61.63c-.79-.22-1.32.14-1.41,1h2.35s.08-.1.11-.15C11.94,61.88,11.82,61.78,11.28,61.63Zm-1.19.84a.85.85,0,0,1,.08-.24h0a1,1,0,0,1,.58-.45,1.3,1.3,0,0,1,1.12.5l0,0h0a1.48,1.48,0,0,1,.12.17Z"/><path class="cls-1" d="M5.15,61.4h0v0Z"/><path class="cls-1" d="M6.44,61.42a1.94,1.94,0,0,0-1.28,0c-.29.3-.73.47-.85,1a20.86,20.86,0,0,0,2.61,0C7.19,61.91,7,61.61,6.44,61.42Zm-1.82.85a1.39,1.39,0,0,1,1.24-.75.89.89,0,0,1,.92.75Z"/></g></g></g></svg>