<svg xmlns="http://www.w3.org/2000/svg" viewBox="0 0 59.7 178.46"><defs><style>.cls-1{fill:#a7a9ac;}.cls-1,.cls-2,.cls-3,.cls-4{fill-rule:evenodd;}.cls-2{fill:#c3be82;}.cls-3{fill:#22a3dd;}.cls-4{fill:#4fbee6;}.cls-5{fill:#231f1e;}</style></defs><g id="圖層_2" data-name="圖層 2"><g id="event"><g id="us-deco"><path class="cls-1" d="M5.79,178.46l-.41-10.59,5.28-.08-.6-8.08L53,158.32l.65,6.81,5.26.37-.29,9.93a81,81,0,0,1-15.81-.18c-8.87-.95-11.54-3.36-16.45-.95a26.61,26.61,0,0,1-12.49,2.76,33.2,33.2,0,0,0-8.06,1.4Z"/><path class="cls-2" d="M6.8,2.07s3.84,2.45,3.53,6.59S9.86,14,9.86,14l2.46.86.12,1.89-.15.92L9.12,19.69,9,24.14s2.6,2.05,1.7,4.68S9.13,33.9,9.13,33.9s2.56,16.86,2.73,17.55a11.77,11.77,0,0,0,1.67,2.47l2,1.92a16.6,16.6,0,0,1,2.49,3.62c.39,1.21,2.29,1.68,2.29,1.68S22,50.2,22,49.73s-1.49-3.08-.62-3.85,3.16-4.34,6.09-4.29,4.88-.59,5.86.93,3,5.87,2.92,6.43-1.42,4.14-1.42,4.14l2.8,16.75s2.41,2.63,2.72,3.19,1.2,6.85,1.2,6.85l1.77,3.05,6.41-8.35,7.41,6.57-3.63,5.76s-3.38,5.71-4,7.12a2.77,2.77,0,0,1-1.87,1.65L47.1,100l-1.81,1.08-.84,11.09-.38,6.24.79,14.45,3.93,24.63-27.71.84-3-38.56.16-33L9,63.71l-2.87-33L5.47,13.53l.63-6.6L5.8,2.25l1-.18Z"/><path class="cls-3" d="M3.94,4.92s-1.18,3.67-.84,5.5a9.4,9.4,0,0,0,1.1,3L1,15.14l.2,3.18,2.62,1,1.45,4.81s-.74,8.74-.56,9.43,3.06,23,3.23,24.55-.82,7,.08,6.51S10.9,61,10.9,61,7.31,34.2,7.5,32.84s1.91-5.19,1.35-6.7-1-7.84-1-7.84l-.64-4.43a32.24,32.24,0,0,0-.56-5.82A6.7,6.7,0,0,0,3.94,4.92Z"/><path class="cls-4" d="M6.46,63.42a3.57,3.57,0,0,0-.13,4.09,6.89,6.89,0,0,0,3.59,3.16l1.44,1.52L12,74.63s-1.63,1.15-1.33,2A10.57,10.57,0,0,0,12,79.79a2.55,2.55,0,0,0,1.69.55l1.17,9.89s-1.42,5.43-1.2,6.46a23.94,23.94,0,0,1,.64,3.15c-.08.25-2.2,7.36-1.38,8.72a3.38,3.38,0,0,0,1.77,1.61s-.2,10,.62,14.43,1,7.15,1,7.15-1.55,16-2.2,19.3-1.08,6.29-1.08,6.55-.08,1.5-.08,1.5l10.29-.64L25,122.75l-3.19,1.9,1-4.8s5.66-26.64,5.91-28.71,2.86-13.22,2.86-13.22L22.74,91.4l-.67-8,4.43-7.78-3.78-2.08A44.17,44.17,0,0,1,21,78.89a8,8,0,0,1-1.19,1.42l-.54-2S21.63,75,21.44,73.7s-2.17-4-2.17-4l-1.59,3.23-2-4.22.77-6.59-3.62,2.28-2.25-1.49-4.1.5Z"/><path class="cls-3" d="M24.48,50.28s.48,7.43,1.79,9.16a3.46,3.46,0,0,0,2.82,1.61L27.84,49.16l-3.36,1.12Z"/><path class="cls-5" d="M42,148.28c.21,1.84.37,3.67.44,5.42l0,.82.39-.72a3.35,3.35,0,0,0,.24-2.05l0-.33c-.12-1.42-.26-2.85-.41-4.28l.07-.13-.08.08c-.18-1.72-.39-3.44-.58-5.13l-.45-3.79c-.14-1.3-.31-2.58-.47-3.83l.27-.65-.3.39a87.05,87.05,0,0,1-.94-11.39c0-.17,0-.35,0-.54,0-.66.1-1.34-.41-1.63l-.09-.06-.1,0a.53.53,0,0,0-.35.5l-.12,0a4.38,4.38,0,0,0-1.89,2,3.43,3.43,0,0,1-.39.43c-.53.53-1.32,1.32-.67,2l.27.29.11-.38a6.24,6.24,0,0,1,1.38-2.27A9.09,9.09,0,0,0,39,121.76a.35.35,0,0,0,.3-.15l0,.15a3.44,3.44,0,0,1,.07,1.24,7.16,7.16,0,0,0-2.58,3l-.39.67,0,.08a.35.35,0,0,0,.06.28.4.4,0,0,0,.3.14c0,1.36.11,2.78.18,4.15l.09,1.88c0,.39.07.84.13,1.31a11.11,11.11,0,0,1,.14,2.08,21.35,21.35,0,0,0,.17,3.55,14.23,14.23,0,0,1,0,4.7l0,.18.17.08a.78.78,0,0,1,.31.49,2.29,2.29,0,0,1-.13,1.53l-.09.14.1.12a.87.87,0,0,0,.16.17c.11.09.15.13.15.23,0,.87,0,1.6.1,2.31a23.69,23.69,0,0,1,.08,2.76,1.61,1.61,0,0,0-.23,1.19.58.58,0,0,0,.4.36l.16,0,.09-.14a2.72,2.72,0,0,0,.36-1.17h0l.17,0a.69.69,0,0,0,.3-.07l.12,0h.17l0-.17a.37.37,0,0,0-.24-.5c.54-1.05,1.13-2.08,1.71-3.07l.63-1.09Zm-8-67.6a2.13,2.13,0,0,0-.33.34l0,0v.06c-.9,6.4-2.2,12.51-3.45,18.42l-.24,1.12-.33,1.46c-1.69,7.43,1.05,3.92-4,11.7-.79,1.21-1.6,2.46-2.36,3.74a3.78,3.78,0,0,0-2,2.87l0,.27.28,0a1.27,1.27,0,0,0,.77-.48.84.84,0,0,1,.49-.34h.07l.05,0a27.71,27.71,0,0,0,4.88-6.53l.12-.19c.11-.19.24-.38.36-.57,2.32-3.43,1.76-3.78,2.61-9,1-6.41,2.44-12.5,3.63-18.83.29-1.51.54-3.09.78-4.62.37-2.39.73-4.64,1.2-6.63l0-.07,0-.07a.74.74,0,0,0-.25-.36l-.07,0a.93.93,0,0,0-.22,0c-.61,0-.64.77-.67,1.39,0,.16,0,.32,0,.46a29.16,29.16,0,0,1-.67,3.19A22.13,22.13,0,0,0,34,80.68Zm25.45,87c-.09-1-.18-2-.24-3v-.25l-.25,0-.12,0c-.1,0-.12,0-.22-.16a1,1,0,0,0-.43-.38l-.19-.09-.1.18a1.34,1.34,0,0,0-.12.3v-.32h-.46a10.92,10.92,0,0,0-1.53-.1c-.8,0-1.55.08-2.34.15-.48,0-1,.1-1.49.13L4,166.17l-.15,0,0,.14a.46.46,0,0,0,0,.37.53.53,0,0,0,.38.2h0a.08.08,0,0,1,0,0v0c-.29,3.32-.18,7.8,1,10.38l.12.25.22-.16a.9.9,0,0,0,.27-.7c0-.13,0-.34.09-.38l.12-.08,0-.15a37.5,37.5,0,0,1-.54-5.37c-.08-1.41-.16-2.75-.32-3.91,16.32-.07,33.87-1.8,50.3-1.8h.44l.33,0a3.21,3.21,0,0,0,.55,0,.89.89,0,0,0,.86-.42,8.39,8.39,0,0,0-.08,1.93,60.49,60.49,0,0,0,.82,7.78l0,.16.16,0h.13a1,1,0,0,0,.35-.07.57.57,0,0,1,.32,0l.25,0,0-.25a40.59,40.59,0,0,0-.22-6.62ZM4.14,33.22c.15,4.66.53,12.94,1.33,18.2.67,4.46,1.81,6,1.73,9.07a6,6,0,0,0-1.68,2.89l-.11.31c-.13.32-.3.68-.46,1C3.46,67.84,6.21,70.44,8.74,72l.1.06L9,72a5.81,5.81,0,0,1,.7-.21,4.38,4.38,0,0,0,.73-.21l.06.26a2.61,2.61,0,0,1,.06.62,2.33,2.33,0,0,0,.33,1.35,2.27,2.27,0,0,0,.72.55,3.79,3.79,0,0,1,.42.28c0,.05-.08.1-.27.19s-.68.32-.43.84l.13.27.22-.19c3.61-3.12,5.23-8.28,6.42-13a6.24,6.24,0,0,1,.25,3.65l.4.18a19.34,19.34,0,0,1-2.81,7.14c-.23.37-.48.77-.72,1.18l-.37.65C14.14,76.74,12.93,79,12,79c-.41,0-.5-.5-.6-1.35s-.18-1.77-1-1.89l-.23,0,0,.23c-.33,2.48,1.43,5.28,4.14,5.41v2.3c0,2.57,0,5.22-.18,7.62v.05a.94.94,0,0,0,.23.48.55.55,0,0,1,.11.17c-3.56,5.77-1,4.65-.88,8.06a6.53,6.53,0,0,1-.43,1.91c-.1.31-.2.62-.28.91-.65,2.45-1.56,5.4.41,7.69l.16.18.17-.17a.32.32,0,0,1,.24-.13,1.32,1.32,0,0,1,.26,0,1.5,1.5,0,0,0,.32.07,1.06,1.06,0,0,0,.07.66l.07.15.16,0h.08a32.54,32.54,0,0,0-.34,6.27c0,.4,0,.79,0,1.18,0,.82,0,1.68-.07,2.51-.18,4,1.36,7.65,1.25,9.1a.52.52,0,0,1-.15.28,1.5,1.5,0,0,0-.2.38,16.12,16.12,0,0,0-.57,3c-.08.58-.15,1.16-.25,1.72-1.24,6.76,0,11.52-1.12,16.68a18.62,18.62,0,0,0-.6,5.64l0,.3c-.8.32-4.63.21-4.56.67-.07,0,.33,2.47.36,2.71.15,1.38.32,2.81,1.18,3.58l.33.3.05-.44a13,13,0,0,0-.19-2.83,12.33,12.33,0,0,1-.19-2.75c13.06-.06,28.75-.79,41.74-1.42a15.77,15.77,0,0,0,.22,1.75c0,.28.1.56.14.84a6.48,6.48,0,0,1,0,.65,2.67,2.67,0,0,0,.57,1.92l.28.26.09-.37a17.1,17.1,0,0,0,.15-4.42c0-.49-.05-.94-.05-1.32v-.2l-.21,0a16.34,16.34,0,0,0-2.74.09c-.38,0-.78,0-1.23,0-12.17,0-24,1-35.73,1l.13-.21a8.84,8.84,0,0,0,.89-3.34c.32-2.24,1.23-2.4,1.4-4.59.38-4.69-.11-11.27.56-15.39.35-2.1,3-4.39,4.55-5.87,3-2.89,2.24-3.27,5.69-4.84l3.12-1.39.27-.12c3.21-1.38,6.52-2.82,8.07-5.71a1,1,0,0,0,.42-.12c.11,0,.14-.06.23,0l.19.11.11-.18a4,4,0,0,1,1.77-1.22,9.19,9.19,0,0,0,1.12-.59c.05,0,.07,0,.15,0a.35.35,0,0,0,.54,0l0,0a1.05,1.05,0,0,1,.8-.34,2,2,0,0,1,.25.55c.14.36.29.75.62.86a85.13,85.13,0,0,0,1.32,13.24,2.46,2.46,0,0,0-.82,2.22.44.44,0,0,0-.3.19.41.41,0,0,0,0,.31c1.2,7.86.57,14.83,3.07,23.28a1.77,1.77,0,0,1,.07.29c.12.51.29,1.28,1,1.31h.25l0-.25A95.89,95.89,0,0,0,47.24,147c-1-5.85-.59-9.73-1.55-14.86a1.73,1.73,0,0,0,.36-.7c.11-.34.19-.54.38-.62l.12-.05,0-.13c.06-.53-1.46-13.18-1.59-14.24a.6.6,0,0,0,.37-.19l.12-.09.07,0,0-.07c.17-.46.37-.9.56-1.32a6.64,6.64,0,0,0,.89-4.31,3.79,3.79,0,0,0-.19-.54,1.86,1.86,0,0,1-.17-.52c-.08-.58-.16-1.16-.24-1.76-.27-2-.55-4-.65-5.95a4.13,4.13,0,0,0,2.82-2,2.49,2.49,0,0,0-.06-2.37l-.3-.56c0-.12,0-.23,0-.34s0-.34,0-.5l.28-.16a1.28,1.28,0,0,0,.71-.68.42.42,0,0,1,0-.1l0,.17,0,.32.3-.08c.51-.12.65-.59.77-1a1.59,1.59,0,0,1,.24-.54l.15,0a.94.94,0,0,0,.52.11h.1l.06-.08a9.78,9.78,0,0,0,1-1.7c.06-.15.13-.29.2-.43,1.6-.68,1.67-2.5,1.74-4.42l0-.52a18.67,18.67,0,0,0,2.19-3l.3-.45.42-.61c.59-.8,1-1.35,1-1.77a2.45,2.45,0,0,0-1-1.6,5.36,5.36,0,0,1-.57-.61l.05-.09-.08,0a.62.62,0,0,1-.08-.12l0-.08-.1,0c-2-.42-5.69-4-7.31-4.24l-.15,0-.08.14a28,28,0,0,1-1.63,2.44c-.3.41-.6.82-.88,1.23s-.42.66-.62,1a7.89,7.89,0,0,1-1.89,2.37,4.31,4.31,0,0,1-.76-1.12A3.1,3.1,0,0,0,42,79c-.33-1.72-.54-3.56-.77-5.5-.06-.55-.13-1.11-.2-1.66l-.06-.21a11,11,0,0,1-2.16-1.45c-.93-1.52-1.77-9-1.9-10.43-.2-2.15-.39-4.18-.75-6.22l0-.08a.4.4,0,0,0-.42-.17A13,13,0,0,0,37,49.45c.45-.07,7-2,7.08-2a.63.63,0,0,0,.16-.46v-.21H44c-2.55-.11-4.84.95-7.34,1.15a5.78,5.78,0,0,0-1-2.9c-.18-.3-.34-.59-.48-.88a22.44,22.44,0,0,1,3.37-3.07A10.49,10.49,0,0,0,41,38.56l.28-.45-.52.11-.29.07,0,0-.1.07c-3,.78-4.54,2.89-7.08,4.21l-.31-.14a23.32,23.32,0,0,0-2.88-1.13c-.1-3,.37-5.93.54-8.92l-.38-.18c-.52.5-2.09,8.31-2.27,9a10.84,10.84,0,0,0-2.64.41c-.47-.51-4.36-6.3-5-6.61l-.28-.14,0,.31c-.06.53,1.73,4.43,1.93,5,.36,1,.72,2,1.16,2.9a4.61,4.61,0,0,0-.86,1,5.89,5.89,0,0,1-.51.67c-2.25-1.41-5.44-4.26-6.22-4.55l-.67.46,0,.34a1.86,1.86,0,0,0,.05.27.42.42,0,0,1,0,.33l-.09.18.17.11c1.78,1.86,3.62,3.18,5.25,5.07l0,.06.06,0,.36.16.27.13a1.88,1.88,0,0,0,.22,1.12,1.59,1.59,0,0,1,.18.63,86.37,86.37,0,0,1-1.65,11.49,1.22,1.22,0,0,0-.65.19.54.54,0,0,1-.26.09A13.05,13.05,0,0,0,18.35,59a9.22,9.22,0,0,1-.61-2.31l0-.09-.07-.06a5.64,5.64,0,0,1-1-1.08c-.66-.87-1.4-1.86-3-1.67h-.12l-.05.1a2.21,2.21,0,0,0-.61-1.28,1.92,1.92,0,0,1-.33-.49,2,2,0,0,1,0-1,4.57,4.57,0,0,0,.09-.66C12.85,48,9.38,33.12,9.16,32.9a3.3,3.3,0,0,0,1-1.78c.08-.24.16-.47.25-.7l.16-.39a9.62,9.62,0,0,0,.76-2.47A3.86,3.86,0,0,0,10,24.12a6.48,6.48,0,0,1-.84-1,9.51,9.51,0,0,0-.06-3.39,20.59,20.59,0,0,0,2.62-.76c.77-.25,1.49-.49,2.13-.63l.16,0v-.17c0-.17,0-.39.05-.62.1-1,.23-2.43-.33-3.14a.33.33,0,0,0,.16-.12.38.38,0,0,0,0-.35l0-.1-.09,0A5.58,5.58,0,0,0,12,13.47a6.77,6.77,0,0,1-1.42-.14C12.45,8.57,9.42,3.85,6.24.18L6.08,0,5.91.17c-1,1-.81,2.31-.56,3.67a13,13,0,0,1,.23,1.77c-.13-.12-.25-.26-.37-.39A3.18,3.18,0,0,0,3.6,4.07L3.25,4l.1.46c.69,3.3-1.09,3.89-.75,6.9a3.62,3.62,0,0,0,.86,1.8,4.73,4.73,0,0,1,.28.39,32.37,32.37,0,0,1-3.4.93l-.09.13c-.52.68.19,2.28.1,3.46v.09l.06.07.08.09c-1.7.75,1.58.94,2.33,1.27A4.92,4.92,0,0,0,4,20c0,.16,0,.36,0,.58A8.78,8.78,0,0,0,4.51,24c-1.25,1-2.3,2.64-1.68,4.25a1.57,1.57,0,0,0-.18,1.17,1.08,1.08,0,0,1-.09.81l-.1.11.08.13a2.86,2.86,0,0,0,1,1.08,2,2,0,0,0,.18,1.41.81.81,0,0,0,.4.29ZM3.75,26h0v0a4.36,4.36,0,0,1,.77-.89,8.93,8.93,0,0,1-.61,1.13.48.48,0,0,0-.13-.19l0,0ZM25.19,43.27h0a1.13,1.13,0,0,1-.73-.2,1.74,1.74,0,0,1,.4-.31l.17-.12a2.63,2.63,0,0,1,.16.63Zm-1.46.36h0l.12,0,.21.05.11,0,.06.25,0,.14.13,0a1.75,1.75,0,0,0,.85,0,2.21,2.21,0,0,1,.65-.06h.19l0-.19a3,3,0,0,0-.3-1.48A5.26,5.26,0,0,1,28,42h.28a.6.6,0,0,0-.33.3l-.05.11.06.1a.84.84,0,0,0,.8.38h.32l.32,0a1,1,0,0,1,.45.09l.17.1.19-.25a.76.76,0,0,0,.2-.49,8.51,8.51,0,0,1,2.15.83.64.64,0,0,1-.19.16,1,1,0,0,0-.36.34l-.07.13.09.12a.54.54,0,0,0,.43.23.63.63,0,0,0,.29-.08,4.55,4.55,0,0,0,.3.49,2,2,0,0,1,.38.71l.06.26.25-.1a1.47,1.47,0,0,0,.63-.57l.07-.08A7.53,7.53,0,0,1,35.84,48a1.82,1.82,0,0,0-.33.11l-.14.06-.25.09.13.23a2.84,2.84,0,0,1,.32,1.6.83.83,0,0,0-.43.07l-.1,0c0-2.65-1-4.5-2.88-5.51a1.28,1.28,0,0,1-.15-.31,1.47,1.47,0,0,0-.06-.14l0-.1-.1,0a10.24,10.24,0,0,0-2.71-.38c-3.7,0-6.43,2.16-6.9,5.41a4,4,0,0,1,.27-1.77c.08-.24.16-.48.22-.73l.09-.41-.39.14a.84.84,0,0,0-.42.34,5.14,5.14,0,0,1,1.72-3l0,0Zm5.75-5.21h0c0,.3,0,.61,0,.92,0,.66-.06,1.3-.07,1.85h-.12a5.11,5.11,0,0,1,.23-2.78Zm4.13,5.49h0c.07,0,.13,0,.23.12l.13.1a.35.35,0,0,1-.08.11.41.41,0,0,1-.28-.33ZM53.43,86.22h0l.07-.2a10.67,10.67,0,0,1,0,1.79c0,.15,0,.31,0,.46s0,.25,0,.37a6.65,6.65,0,0,0-.56-1.7.91.91,0,0,0,.5-.72Zm-3.2,4.43h0a5.57,5.57,0,0,1-.59-.9.67.67,0,0,0,.25,0l.39-.06L50,89.4a2.81,2.81,0,0,1-.62-2.56,3.09,3.09,0,0,1,1.24,1.92,4.19,4.19,0,0,0,1.09,1.93,7.39,7.39,0,0,0-.2.87,2.2,2.2,0,0,1-.48,1.29,3,3,0,0,0-.84-2.2Zm1.22-4.31h0c.8.49.87,1.75.93,3,0,.3,0,.6.06.89a4.28,4.28,0,0,1-1-3.86Zm1.76-4.11h0a23.82,23.82,0,0,1-2,2.84H51a.67.67,0,0,0-.53.17l-.09.09,0,.12a3.61,3.61,0,0,1,.1,1.22s0,0,0,0a1.21,1.21,0,0,0-1.1-.79,2.09,2.09,0,0,0-.34,0H49l0,0a1.87,1.87,0,0,0-.45,1.86h-.19a.48.48,0,0,1-.31,0l-.25-.1,0,.26a14.68,14.68,0,0,1-2.1,4.49l-.19.29a12.6,12.6,0,0,1-2.07-2,16.27,16.27,0,0,0-2.06-2c1.09-1.91,2.28-3.77,3.44-5.56,1.59-2.47,3.24-5,4.64-7.75,2,1.24,3.75,2.81,5.85,3.89a24.47,24.47,0,0,0-2,2.9ZM40.5,113.28h0c-.11.93-.35,1.83-1.13,2l.09-.27c.23-.76.44-1.42,1-1.69Zm1.66-29h0a4,4,0,0,1-1.08,1.45,2.68,2.68,0,0,1,.11-.49l.06-.24v-.06l0-.07a22.45,22.45,0,0,1-.86-5.4c.07.12.15.26.24.4a10.58,10.58,0,0,1,.74,1.47l0,.13a8.14,8.14,0,0,1,.75,2.81Zm4.6,9.92h0c-.16-.63.68-1.63,1.23-2.28l.3-.36a1,1,0,0,1,.42.66c.09.71-.72,1.59-1.31,2.23l-.21.23a.73.73,0,0,1-.43-.48Zm-2.4,19h0a3.15,3.15,0,0,1,0,.62.46.46,0,0,0-.23,0s0,0,0,0a.48.48,0,0,0-.13-.09s0-.08,0-.12a3.41,3.41,0,0,1,.43-1.51l0,0a2.5,2.5,0,0,0-.09,1.06Zm-.8-1.08h0a4.23,4.23,0,0,1-.13.51,3.19,3.19,0,0,0-.19.94l-.48.15-.22.07.06-.22c.22-.79.4-1.31,1-1.45Zm-6.72,3.38h0l-.18.18v0l0,0,.21-.14Zm-1.73,1.77h0l.22-.21a1.29,1.29,0,0,1-.47.7,2.22,2.22,0,0,0-.38.42.14.14,0,0,1,0-.06c0-.21.35-.56.65-.85Zm-14.94-54h0v-.05a3.46,3.46,0,0,1,.56,1.14,17.81,17.81,0,0,1,.53,6.32A20.78,20.78,0,0,1,17.77,80a22.47,22.47,0,0,0-1.66,3.52l-.25.61c0-.74,0-1.5,0-2.25,0-.26,0-.53,0-.79a35.47,35.47,0,0,0,3.58-8.58c.32-1,.65-2,1-3l.05-.14-.11-.1a.52.52,0,0,0-.32-.13.57.57,0,0,0-.31.11c-.12.06-.18.09-.28.06l-.08,0a13.64,13.64,0,0,0,.79-6Zm2.34-13.37a1,1,0,0,0,.25,0h.12a65.35,65.35,0,0,1-.19,10c0,.48-.1.93-.16,1.35A4.63,4.63,0,0,0,22.62,64l.15.3L23,64a2,2,0,0,0,.33-1.49c0-.21,0-.43,0-.63a29.57,29.57,0,0,1,.44-3.28,4.53,4.53,0,0,1,.83,2,4.32,4.32,0,0,1-.08.88,5.64,5.64,0,0,0-.1,1.18c0,.22,0,.37,0,.52a5.36,5.36,0,0,1,.05.82,2.84,2.84,0,0,0,0,.42c0,.36,0,.39-.28.43a.38.38,0,0,0-.09-.18.3.3,0,0,0-.21-.08h-.07a2.18,2.18,0,0,1-.43.05c-.87,0-1.16-.77-1.49-1.65a5.39,5.39,0,0,0-.59-1.23c.07-1.43,1.3-10.32,1.16-11.89ZM16.26,89.74l-.23.39h-.32c0-.15,0-.28-.06-.4a6.29,6.29,0,0,1-.09-1.66.71.71,0,0,0,.49-.16l0,0,0-.06a1.53,1.53,0,0,0,.05-.42.53.53,0,0,1,0-.15,89.71,89.71,0,0,1,7.88-9.76l.34-.37c-2.36,6-5.65,8.29-8.13,12.65ZM29.74,72h0l-.34.53a31.16,31.16,0,0,1-3.59,4.23c.44-.79.94-1.55,1.42-2.29a23.07,23.07,0,0,0,2-3.53l.11-.25-.27-.06a1.39,1.39,0,0,0-1,.36,1.82,1.82,0,0,1-.74.36h-.09l-.06.07c-.69.79-1.36,1.7-2,2.58S23.72,76,23,76.81a29,29,0,0,0,1.25-6.53,5,5,0,0,0-.76-3.59l-.27-.37-.13.45a2.62,2.62,0,0,0,0,2c-.75,5.33-1.67,10.34-4.53,13.13l0,0A22.67,22.67,0,0,1,16,85.5c0-.28-.06-.58-.07-.88l.43-.42a9,9,0,0,0,1.56-2.39,8,8,0,0,1,1.5-2.29l.05-.06,0-.07a.49.49,0,0,0-.11-.39h0a21.24,21.24,0,0,0,2.52-13.23,4.22,4.22,0,0,0,.94.26,2.88,2.88,0,0,1,1.07.36,1,1,0,0,1,.25.41,1.44,1.44,0,0,0,.37.57,4.34,4.34,0,0,0,1.93.7,5.41,5.41,0,0,1,1.61.49,2.1,2.1,0,0,1,.42.36,2.06,2.06,0,0,0,.79.56l.28.11,0-.3.13.08a5.3,5.3,0,0,0,1.86.85A4,4,0,0,0,29.74,72Zm.41-11.14a1.44,1.44,0,0,1-.75.22,2.75,2.75,0,0,1-2.18-1.23c-1.84-2.44-1.51-5.62-1.88-8.46a11.83,11.83,0,0,0,4.42-1.62l.49.36A5.22,5.22,0,0,0,33,51.44c-.28,2,.38,6.56-2.85,9.45Zm.66-15.78h0a.36.36,0,0,0,0,.27l0,.06,0,0a8.46,8.46,0,0,1,2.87,4.67c-.07.13-.27.19-.59.19s-.34,0-.49,0c-1.19-.15-1.9-1.42-2.53-2.53-.16-.29-.31-.56-.47-.8l-.09-.15-.17.06a.71.71,0,0,0-.44.36l0,.11a.41.41,0,0,0-.23.11l0,0,0,0a4.88,4.88,0,0,1-3.15,2.36.83.83,0,0,0-.62-.27,2.09,2.09,0,0,0-.51.09,2.22,2.22,0,0,1-.49.07v0a4.61,4.61,0,0,1,4.39-4.5h.11l.05-.1a.49.49,0,0,1,.1-.08l.11-.08a1.45,1.45,0,0,0,.75.17l.54,0a3.23,3.23,0,0,1,.88,0Zm3.69,7.28h0c0-.25-.1-.51-.16-.76l.11-.09a.67.67,0,0,0,.34-.56,2.46,2.46,0,0,0,.65-.23,4,4,0,0,1-.94,1.67v0Zm-15.18,11h0a1.79,1.79,0,0,1-.11-.81,1.84,1.84,0,0,1,.84.51H20a.61.61,0,0,0-.65.31Zm-4.6,14.82h0c.15-.18.31-.35.46-.51a7.57,7.57,0,0,1-1,1.84c-.17.26-.35.53-.5.79l-.12,0a2.74,2.74,0,0,1-1.1-.51,4.06,4.06,0,0,0,2.23-1.57Zm-.79,24.48h0A97.62,97.62,0,0,0,19,94c1.28-2.36,2.61-4.81,4-7,.06-.09.13-.2.21-.3.42-.6,1.06-1.51.19-2.24l-.18-.16-.14.19a93.53,93.53,0,0,0-8.28,13.48,1.86,1.86,0,0,0-.46.31c-.12-4.9,9.45-17.45,13.51-22.35l1.62-2c.2-.26.42-.5.63-.76A13.13,13.13,0,0,0,32,70.44l.09-.19a2.32,2.32,0,0,0,.38,0l.18,0V69.3l-.12-.06A7.13,7.13,0,0,1,30.74,68l-.08,0a1.08,1.08,0,0,0-.73,0A3.76,3.76,0,0,0,27.87,67l-.78-.2a4.36,4.36,0,0,0-.4-.35,2.75,2.75,0,0,1-.74-.82.52.52,0,0,0,.47-.19l0,0v-.07a9.46,9.46,0,0,0-.07-2.78,12,12,0,0,1-.13-2.47c1.33,1.69,2.74,2.6,4.86,1.24.07.66.09,1.46.12,2.29a22.34,22.34,0,0,0,.46,4.71l0,.12.12,0a.53.53,0,0,0,.64-.23s0-.05,0-.05h0l.06.09a.54.54,0,0,0,.48.31l.22,0,.22-.06-.06-.22a19.47,19.47,0,0,1-.44-4c0-.9-.07-1.83-.18-2.68a40.35,40.35,0,0,0,1.81-4.83l.24-.72a2.64,2.64,0,0,1,0,.29s0,.08-.08.14a.64.64,0,0,0-.19.53,62.25,62.25,0,0,1,1,6.67c.19,1.79.39,3.65.69,5.37l-.08,0a2.59,2.59,0,0,0-1-.28.69.69,0,0,0-.69.51l-.07.2.2.08a15,15,0,0,1,3.86,2.53c.4.33.82.67,1.24,1,.1.58.24,1.17.37,1.75a15,15,0,0,1,.52,3.38l-.19.16a.59.59,0,0,0-.18.47V79c0-.11,0-.22,0-.34-.08-1-.14-2-.25-2.81v-.14c-.06-.49-.13-1.11-.65-1.38l-.24-.13-.08.26a5.24,5.24,0,0,0,0,2.3c0,.31.08.62.1.94,0,.48.06,1,.09,1.48.16,2.68.32,5.45,1.23,7.39a8,8,0,0,0-1,1.75l0,.1,0,.09A14,14,0,0,0,43,92.34a16.91,16.91,0,0,1,2.74,2.74l0,.06.07,0a1.79,1.79,0,0,1,1.08.7s0,.09,0,.14a1.18,1.18,0,0,1-.07.2l-.13,0a.55.55,0,0,0-.34.14c-.09.06-.17.09-.23.05l-.42-.26.08.49c.08.45.17.89.27,1.31a16.65,16.65,0,0,1,.34,1.86,1.28,1.28,0,0,0-.42.15,1,1,0,0,1-.24.1,13.05,13.05,0,0,1-.22-2,7.55,7.55,0,0,0-.56-2.94L44.86,95h-.25a.55.55,0,0,0-.12-.33.42.42,0,0,0-.32-.13c-.26,0-.41.12-.44.36h0l-.21,0v.21c.11,2.84.46,5.58.8,8.24s.67,5.21.78,7.9a1.31,1.31,0,0,0-.78-.38c.43-.27.31-.75.24-1a.86.86,0,0,1,0-.24v-.12A117,117,0,0,0,43.05,95.8q0-.12,0-.27c0-.41-.09-1.17-.83-1.17H41.9l.09.28a47.2,47.2,0,0,1,1.37,9.89c.15,2.08.3,4.24.6,6.2l0,.14a4.75,4.75,0,0,0-1.46.37v-.69a2.83,2.83,0,0,0-.14-.35,1.74,1.74,0,0,1-.13-.36,32.18,32.18,0,0,1-.45-4.66c0-.89-.1-1.81-.18-2.7,0-.51-.09-1-.14-1.52-.13-1.29-.25-2.51-.31-3.79v-.32a1.66,1.66,0,0,0-.45-1.47l-.37-.28v.47c.1,2.58.38,5.54.66,8.4.12,1.26.24,2.5.34,3.69l0,.63a4.1,4.1,0,0,0,.75,2.66l.31.32-.82.35c-.17.08-.34.16-.5.22a41.17,41.17,0,0,0-4,2.05,36.87,36.87,0,0,1-3.61,1.87c.19-1.85.21-3.69.24-5.48A87.12,87.12,0,0,1,35,97.62c.12-.81.24-1.61.36-2.38v-.12L35.23,95c-.16-.13-.14-.29-.11-.55a.86.86,0,0,0-.14-.78l-.3-.33-.09.44c-1.55,8.09-2.94,16.08-2.8,24.91v.19l.18,0a5,5,0,0,1,1.29.45A34.85,34.85,0,0,1,28,122a21.29,21.29,0,0,0-5.95,3.42,24.61,24.61,0,0,0-2.88,3.17,23.74,23.74,0,0,1-2.32,2.61l.06-.26a3,3,0,0,0,.11-.66v-.09l-.06-.07C15.53,128.54,15.75,113,15.75,113a1,1,0,0,0,.23-.59.86.86,0,0,1,.11-.39l.15-.28-.31,0h-.06a1.2,1.2,0,0,1,0-.24,1.74,1.74,0,0,0,0-.53l.05,0c.17-.14.38-.31.35-.56s-.28-.36-.37-.41a.48.48,0,0,0-.2,0,6.09,6.09,0,0,0,.63-1.83c.07-.31.15-.63.24-.92a73.55,73.55,0,0,1,4.92-11.49c1.19-2.36,2.37-4.32,3.57-6.54.06-.13.13-.25.2-.37a176.14,176.14,0,0,0-3.46,20.65l0,.37.34-.13c1.05-.39,1.31-1.54,1.52-2.48.05-.22.1-.44.15-.64.41-1.4.71-2.62.91-3.63,1.08-5.48,1.43-10,2.88-15.57.16-.59.26-1.2.37-1.79a13,13,0,0,1,.52-2.24,8.26,8.26,0,0,1,.83-1.45,10.9,10.9,0,0,0,.6-1l.56-1c1.21-2.2,2.45-4.46,3.5-6.74l0-.08a1.85,1.85,0,0,1,.32-.85,1.59,1.59,0,0,0,.3-1.2l-.08-.34-.28.22a4.45,4.45,0,0,0-1.22,1.93,8.16,8.16,0,0,1-.37.84,26.41,26.41,0,0,1-1.61,2.59c-1.43,2.07-2.65,4.28-3.84,6.41-.78,1.43-1.6,2.9-2.47,4.32a100.15,100.15,0,0,0-10.15,22.49.83.83,0,0,0-.48.14.31.31,0,0,1-.23.08c-1.28-1.87-.68-4.54,0-6.9ZM27.41,85.17h0c-1.11,6.39-2.83,16.71-4.5,21.91q.15-1.2.3-2.46c.6-5.12,1.76-13,3.26-17.81a5.66,5.66,0,0,1,.75-1.36c.06-.09.13-.18.19-.28ZM15.26,110.79h0V111a0,0,0,0,1,0,0h0c0-.08,0-.16,0-.23ZM38,115.89h0c-.33-.69.13-1.1.86-1.63-.08.86-.23,1.6-.86,1.63Zm4.13-3.3h0l-.06.21c-.23.73-.43,1.37-1,1.58.17-1,.39-1.62,1.11-1.79Zm6.39-17.92h0a1.83,1.83,0,0,1-.25.06l-.11,0a4.26,4.26,0,0,1,.46-.59,2.1,2.1,0,0,1-.1.5ZM53.4,84.8h0l-.06,0a2.19,2.19,0,0,0-.79,1.31l-.27-.55s0,0,0,0h0v0l.21,0,.16,0,.08-.13c1-1.59,2.12-3.19,3.16-4.73l.51-.77a2.46,2.46,0,0,1,.63.91l.12.23-.16.29a23.67,23.67,0,0,1-2.74,4.15.89.89,0,0,0-.78-.79ZM34.07,43.14h0a38.23,38.23,0,0,1,4.65-3.25c-1.27,1.31-2.82,2.32-4.12,3.59a5.37,5.37,0,0,1-.53-.34Zm-9.46-1.27h0a2.36,2.36,0,0,1-.69.4,9.07,9.07,0,0,1-1.37-3c0-.11-.07-.21-.1-.31.7,1,1.42,1.93,2.16,2.87ZM21.5,45.66a1,1,0,0,1-.09.22,2,2,0,0,0-.09.2A33.85,33.85,0,0,1,18,42.91c1.25.77,2.29,1.86,3.46,2.75ZM6.38,20.76h0a3,3,0,0,1-.31,1.68L6,22.52v.09a8.36,8.36,0,0,0,.45,1.62c.13.38.26.76.35,1.13A2,2,0,0,0,6.07,25s0,0,0-.05A.69.69,0,0,0,6,24.26l-.1-.15-.1,0c0-.56,0-1.2-.1-1.87a21.49,21.49,0,0,1-.11-2.41,2.38,2.38,0,0,1,.87-.1c0,.31-.05.66-.06,1ZM7.57,22h0v-.13s0,0,0-.12a1.75,1.75,0,0,1,0-.33c0,.16,0,.35,0,.52l0,.06ZM5.41,26.51h0c0,.55-.41.89-.86,1.27-.14.12-.29.24-.42.37A.74.74,0,0,0,4,27.77a3.19,3.19,0,0,1,1.4-1.26ZM4.61,29h0a2.73,2.73,0,0,1,1.57-.92A5,5,0,0,1,4,29.84,2.86,2.86,0,0,1,4.61,29Zm1.65,1h0a2.37,2.37,0,0,1-.18.72,7.44,7.44,0,0,0-1.5.64A2.41,2.41,0,0,1,6.26,30ZM9.18,11.71h0a22.86,22.86,0,0,0,.38-2.77,7,7,0,0,1-.38,2.77Zm1.44,4.43h0a5.23,5.23,0,0,1,.22-1.36.08.08,0,0,1,.07,0c.1.11,0,.56,0,.86s-.06.33-.07.47Zm-9.21,1v-.19a6.27,6.27,0,0,0,0-.91c1.54-1,4.33-1.14,6.38-1.27l.56,0a3.33,3.33,0,0,1-.06,1.45c-1,.1-6.08.66-6.84,1Zm7.18.37h0a.69.69,0,0,1,.57-.23,1.88,1.88,0,0,1,.93.28l.08.06.09,0a.39.39,0,0,0,.27-.26,4.82,4.82,0,0,0,1.63.3h.13a16.68,16.68,0,0,1-1.65.32c-.33.05-.68.11-1,.18a.41.41,0,0,0-.15-.3l0,0h0a3.47,3.47,0,0,0-.86-.19l.07-.1Zm1.2-2.7H10c0,.14,0,.27-.07.41-.05.3-.11.61-.14.94H9.62a3,3,0,0,1,.17-1.35Zm-2.4,2.49h0a4.63,4.63,0,0,1,.54,0H8l.1,0s0,0,.08.12l0,.11A10.27,10.27,0,0,0,5.6,18a10.56,10.56,0,0,1-2.47.42,12.3,12.3,0,0,1,4.26-1.11ZM5.94,9.83h0a.35.35,0,0,0,.06.28.58.58,0,0,0,.48.19.45.45,0,0,1,0,.12,1.39,1.39,0,0,0,0,.41l.06.28L6.8,11a1,1,0,0,0,.44-.73c0-.2.09-.39.19-.44l.1-.05,0-.11c.59-3.08-1-4.55-1.25-7.17C8.91,6,9.19,9.19,6.91,13.2a2.46,2.46,0,0,1-.72.12c-3.76,0-1.73-6.13-1.75-7.42a4.1,4.1,0,0,1,1.5,3.93Zm2.79,22.9h0v0c-1.37.8,3.53,14.67,2.37,19.53a1.37,1.37,0,0,1-.26.2,1.16,1.16,0,0,0-.56.66l0,.29h.3s0,0,.1.11a.57.57,0,0,0,.49.34h0c.33,0,.49-.34.61-.58a.73.73,0,0,0,.05-.09,8.91,8.91,0,0,0,.59,2.25l0,.16h0A.67.67,0,0,0,12,56,27.07,27.07,0,0,1,9.1,62C9,61,9,60,8.93,59c0-2-.08-3.92-.84-5.27L8,53.18A3.43,3.43,0,0,1,7.82,52v-.11l-.08-.08c-1-.9-1.13-2.92-1.23-4.87-.22-3.77-.21-8-.67-11.67a13,13,0,0,1-.14-2,1.35,1.35,0,0,0,.8.31c.89,0,1.29-1.2,1.68-2.35a5.26,5.26,0,0,1,.74-1.67L9,29.43v-.09a4.32,4.32,0,0,1,.18-1.29,4.33,4.33,0,0,0,.17-1.8v-.06a6.41,6.41,0,0,0-.74-1.13,3.26,3.26,0,0,1-.95-2c.07.07.15.13.21.18s.19.16.15.29l-.11.41.4-.14c.38-.13.82.51,1.15,1l.22.3a3.3,3.3,0,0,1,.77,1.61,8.18,8.18,0,0,1-1,4,10.41,10.41,0,0,0-.72,2Zm-5.16-6h0a.75.75,0,0,1,.14-.12h0l-.1.17,0-.06ZM9.92,70.67a1,1,0,0,1-.7.35C7.54,71,4,67.26,6.4,64.25a6.51,6.51,0,0,0,.75-1.07,1.66,1.66,0,0,0,.21-.93.37.37,0,0,0,0-.11,5.47,5.47,0,0,1-.51,2.35l-.13.34,0,.07a2.3,2.3,0,0,0,.14.4.41.41,0,0,1,0,.5L6.73,66l.23.12a.68.68,0,0,0,.28.07A1,1,0,0,0,7.78,66a.75.75,0,0,1,.51-.19l.13,0,.08-.1a28.1,28.1,0,0,0,4.91-8.49h0a23,23,0,0,1-4.11,8c-.13.16-.29.3-.45.46A2,2,0,0,0,8,67.18l0,.45.37-.26a7.62,7.62,0,0,0,1.75-2l.2-.29a25.71,25.71,0,0,0,4.27-9c.18.17.38.33.57.49a2.6,2.6,0,0,1,1.06,1.33,5.89,5.89,0,0,1-.06,1.88l0,.2c-.69,4.84-3.13,8-6.2,10.72ZM47.51,99.89h0l0,.06a3.86,3.86,0,0,0,0-1.22l.13-.1a1.77,1.77,0,0,0,.56-1.07,3.17,3.17,0,0,1-.62,2.33Zm-32-34.1c0-.07.09-.14.14-.21-.53,1.89-1.49,3.68-1.45,5.69-.2.3-.4.62-.58.92a10.09,10.09,0,0,1-1.33,1.86c-.4-.15-.52-.51-.67-1.06a1.93,1.93,0,0,0-.87-1.4l-.19-.11c.21-.1,4.8-5.46,4.95-5.69Zm34,28h0a2.67,2.67,0,0,1,.35-1.38l.07-.09,0-.11A4.26,4.26,0,0,0,49.23,91a2.39,2.39,0,0,1-.66-1.46c.17.29.36.6.56.91s.5.79.72,1.17a2.1,2.1,0,0,1-.14,2.07,6.69,6.69,0,0,0-.27.67c0-.21.05-.42.07-.62ZM18.83,107.33h-.1l-.17,0v.17c-.31,3.36-.36,6.64-.4,9.82,0,1.93,0,3.92-.14,5.86,0,.28-.05.56-.08.83a4.71,4.71,0,0,0,.19,2.52l.43-.07c.19-2.69.24-5.42.29-8.32.06-3.3.12-6.7.42-10a.25.25,0,0,0,.08-.18.52.52,0,0,0-.18-.37.32.32,0,0,0-.33-.28ZM23.18,132l-.5.43a2.28,2.28,0,0,0-.52,1.76c0,.13,0,.26,0,.38-.31,5.81-.69,11.68-.45,17.5,0,.28,0,.63,0,1-.05.85-.09,1.65.27,2l.26.23.11-.32c.24-.71.74-19.78.82-22v-.06a.73.73,0,0,0-.07-.17c0-.05,0-.06,0-.1l.13-.64Zm2.31,1.05v-.26l-.26,0a.81.81,0,0,0-.61.29.7.7,0,0,0,0,.6,1.65,1.65,0,0,1,.1.32c-.15,5,.27,14.77-.35,19.17a1.82,1.82,0,0,1-.11.33.85.85,0,0,0,.08,1l.12.12.15-.08a1,1,0,0,0,.55-.93c0-.05,0-.1,0-.14.63-4.44.15-15.41.28-20.48Zm1.44-85.39a3,3,0,0,1-.91.82H26c.1-.1.2-.22.3-.34l.08-.1.42-.47c.3-.34.59-.66.76-.89l0-.06v-.74l-.29.09a2.35,2.35,0,0,0-1.2,1.1c-.33.5-.6.91-1.15.87l-.3,0,.06.29c.11.51.34.65.54.66h0V49l0,0a.74.74,0,0,0,.71.41l.24,0c.44-.06,2.34-1.85,2.36-2.47v-.26l-.26,0a2.23,2.23,0,0,0-1.37,1Zm5.68,2.27h.19a.34.34,0,0,0,.25-.42v-.11l-.1-.06-.42-.21a2.05,2.05,0,0,1-.94-.7,1.76,1.76,0,0,1-.15-.49A1.33,1.33,0,0,0,31,47l-.27-.22-.09.34a2.27,2.27,0,0,0,.37,2,2.06,2.06,0,0,0,1.61.83Zm.85,105.24.3.39.1-.48c.84-4.2-.75-19.59-.72-25.09l0-.36a1.41,1.41,0,0,0-.39-1.46l-.35-.23v.42c0,2.22.43,26,1,26.81Zm.23-92.65c.19,1.52.31,3.13.36,4.66v.17l.16,0c.12,0,.18.36.21.59s.14.77.52.77h.11l.17,0v-.38c-.23-2.15-.56-5.23-.91-7.76l0-.31-.28.14c-.72.34-.53,1.13-.39,1.7,0,.15.07.3.09.42Zm4.64,49.08.29-.17c.4-.23.34-.72.31-1a.6.6,0,0,1,0-.12c0-.78-.14-1.6-.24-2.46-.08-.61-.15-1.25-.21-1.88a105.77,105.77,0,0,1-.27-11.41c0-.15,0-.31.05-.48a2,2,0,0,0-.18-1.56l-.37-.48,0,.6a91.18,91.18,0,0,0,.63,18.61l0,.33Zm1.78,21h0c-.68,0-1.13.8-1.5,1.41l0,.05a15.55,15.55,0,0,0-.69,1.42,3.73,3.73,0,0,1,0-.67c0-.14,0-.28,0-.39a31.4,31.4,0,0,0,1.75-3.06l.25-.46c.09.56.17,1.12.25,1.7Zm-.85-3.44h0l.45-.67a2.3,2.3,0,0,1,.11,1.27.11.11,0,0,1-.08.05l-.14,0,0,.13a9.89,9.89,0,0,1-1,2c-.25.41-.51.82-.74,1.28a5.9,5.9,0,0,1,1.47-4Zm-1,.21h0c-.21.35-.42.71-.65,1.05a5,5,0,0,1,1.26-3.55c.22-.3.45-.61.66-1a4.87,4.87,0,0,1,0,.55,6.61,6.61,0,0,0,.07,1,10.48,10.48,0,0,0-1.36,1.93Zm1.2-4.49h0a5.52,5.52,0,0,0-1.16,1.55,8.44,8.44,0,0,1-.76,1.12,1.11,1.11,0,0,1,0-.19,1.21,1.21,0,0,0-.19-1,15.06,15.06,0,0,1,2-2.67,6.29,6.29,0,0,1,.06,1.18ZM38,136.87h0a6,6,0,0,1,1.43-2.63,9,9,0,0,0,.8-1.11c.08.58.15,1.18.22,1.78l-.06.08a13,13,0,0,0-2.11,3.76l-.15.43a7.59,7.59,0,0,1-.13-2.31Zm3.07,3.72h0a5.41,5.41,0,0,1,.05.59,4,4,0,0,0,.1.93,20.27,20.27,0,0,0-1.47,2.1c-.33.53-.68,1.08-1.06,1.59-.3-1.62.52-2.67,1.39-3.78a11.74,11.74,0,0,0,1-1.43Zm-.18-1.18h0a5.5,5.5,0,0,1-1,1.67c-.14.18-.26.36-.36.5l-.27.42a11.62,11.62,0,0,1-.91,1.28,5.45,5.45,0,0,1,1.37-3.86,10.38,10.38,0,0,0,1-1.67h0a5.72,5.72,0,0,1,.1,1.65ZM38.69,139h0a19.22,19.22,0,0,0,1.87-3.22l.12,1.12,0,.29v0l-.17.1A5.48,5.48,0,0,0,39,139.41a12.28,12.28,0,0,1-.64,1.13c0-.31-.07-.61-.12-.91l.48-.68Zm2.73,6h0a9.21,9.21,0,0,0-1.53,2.11,10.55,10.55,0,0,1-1,1.52c0-.12,0-.24,0-.36a10.19,10.19,0,0,0-.11-1.25l1.44-2.13,1.16-1.72c.07.57.15,1.13.23,1.7l-.15.13Zm-2.35,7.27h0c0-.22,0-.45,0-.68a10.19,10.19,0,0,1,0-1.83c.21-.33.43-.64.65-1a24.57,24.57,0,0,0,2-3.27c.11.78.2,1.56.29,2.34l-.53.57a9.9,9.9,0,0,0-2.34,3.83Z"/></g></g></g></svg>