<svg xmlns="http://www.w3.org/2000/svg" viewBox="0 0 21.53 27.97"><defs><style>.cls-1{fill:#7c4821;}</style></defs><g id="圖層_2" data-name="圖層 2"><g id="event"><g id="deco_bl"><path class="cls-1" d="M7.2,5.81a1,1,0,0,0-.92-.36s0,0,0,0,.13.07.21.1A2.22,2.22,0,0,1,7,5.8a.42.42,0,0,1,.22.27A1.2,1.2,0,0,1,7.06,7,5.61,5.61,0,0,1,5.83,8.32c-.06,0-.13.1-.2,0s-.3-.09-.43-.14,0,0,0,0a.47.47,0,0,1,0-.1,4.38,4.38,0,0,0,.88-2.46,2.73,2.73,0,0,0-.48-1.37.8.8,0,0,0-.54-.42c-.21,0-.65.16-.39-.26A2.5,2.5,0,0,0,5,2.94,1.4,1.4,0,0,0,4.6,1.49c.13-.13.13-.13,0-.3,0-.05.11-.06.17-.09L4.93,1C5,.94,5,.87,5,.84A1,1,0,0,0,4.68.68c-.08,0-.14,0-.19.1A.85.85,0,0,1,4.07,1a.08.08,0,0,1-.1,0C4,.88,4,.85,4,.83A1.34,1.34,0,0,0,4.31.7c.11-.06.1-.17,0-.2S4,.23,3.74.27c0,0-.09-.06-.12-.1A.42.42,0,0,0,3.2,0,3.26,3.26,0,0,0,2,.33C1.85.4,1.75.5,1.83.66a.12.12,0,0,1-.08.17L1.54.92c-.05,0-.09.09-.05.14s0,.2-.1.27a.81.81,0,0,0-.1.09c-.11.11-.07.22.09.25a.78.78,0,0,0,.4,0,4.9,4.9,0,0,0,.65-.32c.08,0,.12,0,.12.08a.33.33,0,0,1-.24.28,7.84,7.84,0,0,0-.93.43,3,3,0,0,0-.46.26c-.11.08-.1.18,0,.23a.51.51,0,0,0,.24,0c.1,0,.2,0,.32,0-.09.12-.22.13-.31.19s-.16.1-.1.17,0,.21-.05.31-.09.3.11.34a.69.69,0,0,0,.4,0l.05,0a.14.14,0,0,1,.11,0l.05,0a.09.09,0,0,1,.1,0,.07.07,0,0,1,0,.09.47.47,0,0,1,.12.3L2,4a.74.74,0,0,0,.29.29c.09,0,.1.12,0,.19s-.08.09-.13.1C1.5,4.69.45,6,.77,6.68c.08.18.13.38.23.56a.22.22,0,0,1-.07.31A2.48,2.48,0,0,0,0,9.15a1.37,1.37,0,0,0,.61,1.47,2.69,2.69,0,0,0,.55.31c.29.12.33.21.3.51,0,.06,0,.11,0,.16a2.57,2.57,0,0,0,.13,1.6.62.62,0,0,1,.07.19,1.42,1.42,0,0,1,.05.54,10,10,0,0,0-.23,1.44,1.67,1.67,0,0,0,.19,1.05.5.5,0,0,1,.08.2c0,.18.17.25.32.31A3.46,3.46,0,0,0,3.21,17a1.45,1.45,0,0,0,.93-.33.65.65,0,0,0,.29-.56c0-.21.05-.25.25-.2a1.27,1.27,0,0,0,.88-.13.28.28,0,0,0,.18-.31,1,1,0,0,0-.51-.77c-.35-.23-.35-.27-.25-.68a10.41,10.41,0,0,1,.55-1.57,1.63,1.63,0,0,0,0-1.13c-.14-.45-.28-.9-.41-1.36-.07-.27-.06-.27.21-.37a2.32,2.32,0,0,0,.72-.4.67.67,0,0,0,.19-.29.14.14,0,0,0,.06-.1.44.44,0,0,0-.24-.41L6,8.36A8,8,0,0,0,7.16,7.11a.93.93,0,0,0,.17-.38A1,1,0,0,0,7.2,5.81ZM4,1.12a1,1,0,0,0,.24-.05s.11,0,.13,0,0,.1-.08.12-.28.11-.42.15a4,4,0,0,1-.74.15H3s-.05,0-.06-.05A.08.08,0,0,1,3,1.4l.2-.1A2.49,2.49,0,0,1,4,1.12Zm-1.24.19c-.07,0-.1,0-.11-.08A.23.23,0,0,1,2.87,1a.9.9,0,0,1,.46,0A1.74,1.74,0,0,1,2.78,1.31Zm.53-1s.07,0,.06.08a.1.1,0,0,1,0,0,4.79,4.79,0,0,1-.58.33c-.06,0-.11,0-.15,0s0-.11,0-.16A1,1,0,0,1,3.31.29ZM1.53,1.48a.91.91,0,0,1,.73-.29A.92.92,0,0,1,1.53,1.48Zm.9-.89a.25.25,0,0,1,0,.07.32.32,0,0,1-.31.07A.14.14,0,0,1,2,.59c0-.1.08-.15.16-.2A1.52,1.52,0,0,1,2.84.17c0,.12-.09.12-.14.15A.55.55,0,0,0,2.43.59Zm-1,2.89c-.08.06-.27.07-.29,0s.07-.16.14-.21a.23.23,0,0,1,.18,0C1.5,3.32,1.55,3.41,1.45,3.48ZM1.35,3a.58.58,0,0,1,.44-.21A.35.35,0,0,1,1.35,3Zm.54-.58-.57.1a.17.17,0,0,1-.2-.06A3.5,3.5,0,0,1,1.94,2l.28-.12a.08.08,0,0,1,.1,0s0,.07,0,.1C2.25,2.16,2.15,2.35,1.89,2.39Zm3.56,9.22a1.23,1.23,0,0,1-.06.76c-.07.18-.16.35-.23.54-.15.4-.3.81-.43,1.22a2.07,2.07,0,0,0-.1.43.16.16,0,0,0,.1.2c.15.06.79.37.79.56v.06s0,0-.07,0l-.15,0-.12,0h0l.21.07h0s0,0,0,0h0a0,0,0,0,1,0,0c0,.08,0,.07-.11.09H5.37a.57.57,0,0,1-.13-.08A.92.92,0,0,1,5,15.48l0,0c0,.1.06.13.12.17l.08.08c-.16.08-.28.15-.42,0s-.24,0-.37,0a1.44,1.44,0,0,1-.81-.18c-.33-.14.07-1.11.06-1.38a1.41,1.41,0,0,1,.17-.66,6.14,6.14,0,0,0,.46-1.09A2.26,2.26,0,0,0,4.32,12a1.18,1.18,0,0,0-.2-.83,3,3,0,0,1-.44-1.33c0-.09,0-.21.06-.25s.28-.15.41-.07a1.09,1.09,0,0,0,.57.18A.21.21,0,0,1,5,9.91C5.11,10.48,5.29,11.05,5.45,11.61ZM5.76,9.2a1.73,1.73,0,0,1-.42.25c-.06,0-.15.08-.21,0a.24.24,0,0,0-.35,0,.14.14,0,0,1-.18,0s0-.1,0-.15.12-.11.06-.21-.14.13-.24.14a4.67,4.67,0,0,0-.65.13,1,1,0,0,1-.55,0c-.07,0-.15-.08-.18,0s.05.13.12.15a.31.31,0,0,0,.13,0c.15,0,.17.1.19.22A3.7,3.7,0,0,0,4,11.37a.92.92,0,0,1,.14.39,2.19,2.19,0,0,1-.21,1.1,5.35,5.35,0,0,0-.34.73,3,3,0,0,0-.24.75,9.45,9.45,0,0,1-.08,1.07.43.43,0,0,0,.53.55.46.46,0,0,1,.39.09.14.14,0,0,1,0,.12c0,.06-.06.07-.1.07a.88.88,0,0,0-.36.06s-.08.05-.07.1a.1.1,0,0,0,.11.07c.09,0,.17-.08.28,0a.42.42,0,0,1-.45.17c-.09,0-.18,0-.22.05s-.13.12-.22.12l-.69,0a.64.64,0,0,1-.54-.3,1.59,1.59,0,0,1-.3-1c.05-.43.12-.86.19-1.29a1,1,0,0,1,.18-.4.24.24,0,0,0-.08-.4c-.05,0-.11-.07-.13-.14a2.88,2.88,0,0,1-.22-.76,3.74,3.74,0,0,1,.21-1.33c.07-.22,0-.36-.23-.35a.53.53,0,0,1-.22,0A2.43,2.43,0,0,1,.4,10.1a.93.93,0,0,1-.19-.43A2.21,2.21,0,0,1,.86,7.83.47.47,0,0,1,1,7.76c.2-.12.2-.12.37,0a2.19,2.19,0,0,0,1.39.48A.46.46,0,0,0,3.21,8a.91.91,0,0,1-.58.09A3.4,3.4,0,0,1,2,7.92a1.21,1.21,0,0,1-.6-.39A2.71,2.71,0,0,1,1,6.46.85.85,0,0,1,1,5.84,2.35,2.35,0,0,1,2.29,4.69a1.64,1.64,0,0,0,.39-.21c.13-.09.12-.2,0-.28l-.12-.06a1,1,0,0,1-.35-.22c-.09-.09-.15-.19,0-.31s.07-.14-.07-.14a0,0,0,0,1,0-.08c.07-.09.17-.17.06-.31s0-.07.07-.09l.32-.1c.08,0,.22-.05.2-.15s-.17-.06-.26-.06a1.29,1.29,0,0,0-.19,0s-.1,0-.13,0,0-.1.07-.13l.26-.11c.06,0,.16,0,.14-.14s-.1-.05-.16-.06,0,0-.06,0c.1-.21.12-.49.47-.44.05,0,.1-.05.15-.08s.14-.05.15.06.12.15.2.12c.27-.08.6,0,.83-.22a.49.49,0,0,1,.21-.08s.09,0,.12,0a1.77,1.77,0,0,1,.34.89A2.46,2.46,0,0,1,4,4.25l-.14.09a.58.58,0,0,1-.76-.15C3,4.11,3,4,2.86,4a.6.6,0,0,0,.37.59A.84.84,0,0,0,4,4.44c.19-.13,1.17-.41,1.35-.23a1.66,1.66,0,0,1,.55,1,3.89,3.89,0,0,1-.33,2,2.62,2.62,0,0,1-1,1.2A2.9,2.9,0,0,0,4.09,9,.47.47,0,0,0,4,9.26a.06.06,0,0,0,.08,0,1.77,1.77,0,0,1,1-.78.68.68,0,0,1,.65.17C6,8.86,5.92,9.05,5.76,9.2Z"/><path class="cls-1" d="M2.87,8.57a.1.1,0,0,0-.07,0s0,.07,0,.11a.85.85,0,0,1-.9.72c0-.1.06-.16.09-.23a.08.08,0,0,0,0-.1.07.07,0,0,0-.11,0c-.07.11-.14.21-.21.33a.19.19,0,0,1,0-.29l.19-.3s0-.1,0-.13-.11,0-.14.05a.2.2,0,0,0,0,.08c0,.17-.2.3-.21.5s-.11.09-.18.09-.08-.07-.08-.12A.66.66,0,0,1,1.25,9a1.79,1.79,0,0,1,.34-.44,1,1,0,0,0,.17-.18.07.07,0,0,0,0-.12.09.09,0,0,0-.12,0,.15.15,0,0,0-.06.05c-.15.17-.3.33-.43.51A.87.87,0,0,0,1,9.33c0,.13,0,.25.16.29a1.73,1.73,0,0,0,1.7-.43.58.58,0,0,0,.1-.58S2.89,8.57,2.87,8.57Z"/><path class="cls-1" d="M2.35,5.84a.09.09,0,0,0-.11,0c-.07,0-.06.09,0,.14a.67.67,0,0,0,.06.12l.43.78a.46.46,0,0,1,.06.26c0,.06,0,.14,0,.16s.1-.07.11-.13a.3.3,0,0,0,0-.12.31.31,0,0,0,0-.1C2.74,6.55,2.55,6.19,2.35,5.84Z"/><path class="cls-1" d="M3.9,3.78c.09.08.17,0,.25,0a.19.19,0,0,0,.15-.18s0,0,0-.08a1.16,1.16,0,0,1-.13-.61c0-.06,0-.14-.11-.12S4,2.84,4,2.91s0,.31.06.47a.18.18,0,0,1-.11.26C3.86,3.66,3.83,3.73,3.9,3.78Z"/><path class="cls-1" d="M7.28,9a1.12,1.12,0,0,0-.51-.18H6.6c-.06,0-.12,0-.12.08s.06.06.11.07a2.29,2.29,0,0,1,.64.14s.08,0,.1,0S7.31,9,7.28,9Z"/><path class="cls-1" d="M7.54,9.49a.14.14,0,0,0-.13,0,.11.11,0,0,0,0,.13l.33.33a.11.11,0,0,0,.08,0s0-.05,0-.08A.67.67,0,0,0,7.54,9.49Z"/><path class="cls-1" d="M8.55,12.32c.13,0,.15-.17.2-.28a.15.15,0,0,0,0-.2H8.66a1,1,0,0,0-.19.41A.09.09,0,0,0,8.55,12.32Z"/><path class="cls-1" d="M8.26,11.28c.14,0,.09-.18.11-.26s0-.23-.1-.23-.07.12-.08.2S8.08,11.27,8.26,11.28Z"/><path class="cls-1" d="M8.8,13c-.07,0-.09.06-.11.11a1.11,1.11,0,0,0-.07.26.09.09,0,0,0,.08.11.08.08,0,0,0,.1-.07,2.56,2.56,0,0,0,0-.27C8.86,13.08,8.86,13,8.8,13Z"/><path class="cls-1" d="M8.35,15.35c-.08,0-.11,0-.13.1s-.07.11-.05.18,0,.06.07.06a.27.27,0,0,0,.13-.16C8.4,15.46,8.41,15.38,8.35,15.35Z"/><path class="cls-1" d="M4.54,2.66a.14.14,0,0,0,.13-.16.08.08,0,0,0-.08-.09.15.15,0,0,0-.17.14C4.42,2.61,4.46,2.65,4.54,2.66Z"/><path class="cls-1" d="M8.57,14.39c-.11,0-.13.14-.13.25a.06.06,0,0,0,.06.07c.13,0,.09-.11.12-.18a0,0,0,0,0,0,0C8.64,14.45,8.65,14.37,8.57,14.39Z"/><path class="cls-1" d="M4.93,5.8c.06,0,.11,0,.11-.1S5,5.62,5,5.61s-.11,0-.12.08A.09.09,0,0,0,4.93,5.8Z"/><path class="cls-1" d="M3.32,2.81a.11.11,0,0,0,.1-.09c0-.07,0-.09-.11-.1s-.09,0-.09.08A.1.1,0,0,0,3.32,2.81Z"/><path class="cls-1" d="M3.76,5.85a.08.08,0,0,0-.09.08A.07.07,0,0,0,3.75,6s.06,0,.06-.1S3.81,5.85,3.76,5.85Z"/><path class="cls-1" d="M7.45,16.87s0,0-.06,0-.07.07,0,.14.09-.06.11-.11S7.48,16.88,7.45,16.87Z"/><path class="cls-1" d="M4.37,9.07a.57.57,0,0,1-.27.16.05.05,0,0,0,0,.1.61.61,0,0,0,.31-.18C4.48,9.1,4.42,9,4.37,9.07Z"/><path class="cls-1" d="M6.33,5.48a1,1,0,0,1-.25,0c-.07,0-.07.11,0,.12a1.24,1.24,0,0,0,.27,0A.06.06,0,0,0,6.33,5.48Z"/><path class="cls-1" d="M3.91,4s0,.09-.06.11-.08,0-.12,0a.53.53,0,0,1,0-.13A.06.06,0,0,0,3.6,4a.37.37,0,0,0,0,.21.39.39,0,0,0,.18.06c.12,0,.19-.1.21-.21A.06.06,0,1,0,3.91,4Z"/><path class="cls-1" d="M21.41,22.51h.05a.11.11,0,0,0,.07-.12c0-.16,0-.32,0-.47s0-.09-.1-.08l-.07,0c-.11,0-.11,0-.12-.08a.28.28,0,0,1,0-.09c0-.44,0-.89-.05-1.33,0-.28,0-.57,0-.85,0-.08,0-.12.1-.11s.12,0,.13-.08,0-.28,0-.42,0-.09-.11-.08-.09.05-.15,0a1.48,1.48,0,0,1,0-.42.33.33,0,0,0,0-.14.56.56,0,0,1,0-.34.29.29,0,0,0,0-.16,9.56,9.56,0,0,0-.35-1.07.15.15,0,0,0,0-.07s-.06-.06-.11-.05a.11.11,0,0,0-.06.1.45.45,0,0,1-.05.26c-.09.24-.18.47-.26.71a.46.46,0,0,1-.14.23.07.07,0,0,0,0,.06c0,.11,0,.22,0,.33a6.76,6.76,0,0,0,0,.9.28.28,0,0,1,0,.2,0,0,0,0,1-.05,0c-.11-.26-.23-.51-.33-.77a.56.56,0,0,1-.1-.24.1.1,0,0,0-.13-.11c-.11,0-.21,0-.32,0l-.79,0H17.06a4.23,4.23,0,0,1-.94,0,3.57,3.57,0,0,0-.46,0,2.6,2.6,0,0,0-.39.05,2.26,2.26,0,0,1,0-.45.38.38,0,0,1,.2-.35.8.8,0,0,0,.32-.36c0-.05.06-.1,0-.15a.61.61,0,0,1,0-.35c0-.19,0-.37,0-.56a6.44,6.44,0,0,0,0-.76c0-.25,0-.5-.06-.75,0-.05,0-.1-.09-.1s-.06.06-.06.11a3,3,0,0,1-.1.72c0,.13-.16.3-.14.42.05.38,0,.76,0,1.14,0,.05,0,.13-.07.13s0-.08,0-.13a17,17,0,0,1,0-1.75c0-.31,0-.61,0-.92,0-.66.05-1.32,0-2,0-.24,0-.47,0-.71a2.12,2.12,0,0,0-.25-.82,5.25,5.25,0,0,1-.21-.87c0-.14-.05-.29-.09-.42a9.89,9.89,0,0,1-.29-1.31c-.06-.33-.08-.66-.11-1s0-.37,0-.56,0-.1-.07-.1a.11.11,0,0,0-.12.08.59.59,0,0,0,0,.13,5.8,5.8,0,0,1-.18,1.25c-.1.37-.13.75-.22,1.11a6.14,6.14,0,0,1-.23.84c-.18.43-.27.91-.42,1.35a1.81,1.81,0,0,0,0,.52c0,.35,0,.71,0,1.07,0,.69,0,1.38,0,2.07,0,.23,0,.47,0,.71s0,.62,0,.93c0,.11,0,.22,0,.32a.16.16,0,0,1-.12.17,1.57,1.57,0,0,1,0-.43,4.71,4.71,0,0,0,0-.75,5.78,5.78,0,0,1-.11-1.1.06.06,0,0,0-.07-.07s-.07,0-.07.07v.09c0,.21-.06.41-.1.62a3.1,3.1,0,0,0-.15.52c0,.16,0,.32,0,.49a4.51,4.51,0,0,1,0,.52s0,.08,0,.1-.07.08,0,.13a.43.43,0,0,0,.13.19,1.11,1.11,0,0,0,.38.22c.06,0,.1.05.09.12s0,.37,0,.56a.1.1,0,0,1-.11.11l-.83.05c-.44,0-.88,0-1.32,0l-.65,0c-.2,0-.4,0-.6,0H8.19c-.16,0-.41-.13-.56-.09s-.27.48-.35.71A3.78,3.78,0,0,1,7,19.4a.74.74,0,0,1,0-.29c0-.17,0-.35,0-.52a.88.88,0,0,1,0-.28c0-.12,0-.24-.11-.3a.1.1,0,0,1,0-.05,1.07,1.07,0,0,1-.14-.39c0-.25-.13-.49-.16-.74,0,0,0,0,0-.08s0-.08-.09-.07-.07.05-.08.09a1,1,0,0,1,0,.17c-.09.36-.24.7-.35,1a.2.2,0,0,1,0,.08.14.14,0,0,0,0,.17c0,.16,0,.34.08.5v0c0,.15,0,.31,0,.47s0,.08-.08.08-.15,0-.16.16,0,.08,0,.11a.2.2,0,0,0,.15.25.19.19,0,0,1,.13.21c0,.44,0,.87,0,1.31,0,.21,0,.42,0,.63s0,.19-.17.11a.25.25,0,0,0-.12,0c-.06,0-.1,0-.09.11a3.4,3.4,0,0,1,0,.45.21.21,0,0,0,.2.21H6s.06,0,.06.07,0,.35,0,.52a12,12,0,0,0,0,1.34c0,.47,0,.93,0,1.39a14.22,14.22,0,0,0,0,1.46.29.29,0,0,1,0,.2.08.08,0,0,0,0,.1S6,28,6,28a2.61,2.61,0,0,1,.48,0h.34a7.55,7.55,0,0,1,.83-.05h.38c.39,0,.79,0,1.18,0h.47c.75,0,1.49,0,2.24,0,1,0,1.92.1,2.87,0,.41,0,.81.07,1.22.06s.79-.05,1.15-.05h1.86c.36,0,.73,0,1.09,0a7.32,7.32,0,0,1,.94,0c.08,0,.16,0,.24,0s.17,0,.15-.17,0-.23,0-.34c0-.39,0-.77-.06-1.15s-.05-.78-.05-1.17a5.8,5.8,0,0,0-.05-.93c0-.15,0-.3,0-.45s0-.56,0-.84S21.23,22.58,21.41,22.51Zm-5.92-6.67a.15.15,0,0,1,0-.11.14.14,0,0,1,.12,0s0,.05,0,.08,0,.05,0,.08c0,.19,0,.23-.19.25Zm0,.54c0-.15,0-.15.16-.13s.07,0,.07.08a4.87,4.87,0,0,0,0,.54.11.11,0,0,1-.14.1s0,0,0-.06,0-.31,0-.44Zm-2.87-.88c.05.05,0,.09,0,.16A.18.18,0,0,1,12.59,15.5Zm.09.84a3.37,3.37,0,0,0,0,.55c0,.06,0,.11-.08.11s-.15,0-.15-.1v-.33s0-.11,0-.19,0-.11.12-.11h.06C12.66,16.26,12.68,16.29,12.68,16.34Zm0-.24a.23.23,0,0,1-.18,0c-.06,0,0-.24,0-.27s.18,0,.18.15S12.7,16.08,12.65,16.1ZM5.9,19.7a.13.13,0,0,1-.08-.16s0,0,0-.05,0,0,0,.05A.31.31,0,0,1,5.9,19.7Zm15.22-.65A.06.06,0,0,1,21.2,19s0,.05,0,.08,0,.11-.07.14h0A.18.18,0,0,1,21.12,19.05ZM21,20.45c0,.08-.09.16-.2.18a.3.3,0,0,1-.31-.16,1.27,1.27,0,0,1-.16-.64c0-.1,0-.17,0-.24s0-.12.08-.11a1.18,1.18,0,0,0,.42-.05c.09,0,.11,0,.11.09C21,19.83,21,20.14,21,20.45Zm-.61-1.18c0-.05,0-.12.08-.15a.22.22,0,0,1,0,.16.06.06,0,0,1-.06,0A0,0,0,0,1,20.42,19.27Zm.23-.09s0,0,0,0,0-.05.06,0,0,0,0,.06v0c0,.06,0,.12-.06.14h0C20.62,19.27,20.65,19.23,20.65,19.18Zm.31,0v.08s0,0,0,0-.07,0-.07,0a.17.17,0,0,1,0-.17,0,0,0,0,1,.05,0S21,19.14,21,19.16Zm0-.66a1.41,1.41,0,0,0,0,.21.25.25,0,0,0,0,.08c0,.11,0,.09-.12.12a1.27,1.27,0,0,1-.28.06h-.11c-.07,0-.1,0-.1-.1v-.4c0-.06,0-.08.08-.08a2.42,2.42,0,0,1,.47,0C21,18.43,21,18.47,21,18.5Zm-.17-.57a.24.24,0,0,1,0,.3A.51.51,0,0,1,20.8,17.93Zm-.1-.88a1.28,1.28,0,0,1,.16.36,2.3,2.3,0,0,0,.06.28c0,.07,0,.11-.08.1a.14.14,0,0,1-.11-.07.5.5,0,0,1-.05-.13A1.23,1.23,0,0,1,20.7,17.05Zm-.06.92a.39.39,0,0,1,0,.24,0,0,0,0,1,0,0,.05.05,0,0,1,0,0A.5.5,0,0,1,20.64,18Zm-.29-.34.12-.34s0-.06.05-.07,0,.06,0,.09a1.45,1.45,0,0,0,0,.36c0,.06,0,.13-.08.11h0C20.29,17.82,20.29,17.82,20.35,17.63Zm0,.35a.25.25,0,0,1-.06.2C20.27,18.09,20.31,18,20.37,18Zm-.11,1.74a.05.05,0,0,1,0,.06s0,0,0-.05a.57.57,0,0,1,0-.29.11.11,0,0,1,.1.08Zm0-.45a0,0,0,0,1,0,0s0,0,0,0,0,0,0,0S20.25,19.27,20.23,19.27Zm-.1-.63s0-.06.06-.06,0,0,0,.06a.86.86,0,0,0,0,.16c0,.09,0,.12-.11.14A1.53,1.53,0,0,1,20.13,18.64Zm-4.86-1.49a.18.18,0,0,1-.12.29h0a0,0,0,0,1,0,0h0a.31.31,0,0,1,0-.11C15.15,17.17,15.19,17,15.27,17.15ZM15,11.06a1.33,1.33,0,0,1,.09.52,5.89,5.89,0,0,0,0,.84.15.15,0,0,1,0,.13,1,1,0,0,1-.36-.22c-.35-.28-.2-1-.05-1.31,0-.08.08-.16.12-.25A.69.69,0,0,1,15,11.06Zm-.88-.89a4.06,4.06,0,0,0,0-.7c0-.38,0-.77,0-1.15A.8.8,0,0,1,14.21,8a3.94,3.94,0,0,1,.13.61,4.58,4.58,0,0,0,.18.73c.05.16.07.33.11.49a4.37,4.37,0,0,0,.12.49c.05.12,0,.22-.06.33a1.77,1.77,0,0,1-.15.31c0,.06-.06.06-.09,0l-.3-.37a.29.29,0,0,1-.05-.18A1.32,1.32,0,0,1,14.12,10.17Zm.24,1.55v.49s0,.07-.06.08a1.41,1.41,0,0,1-.58,0c-.07,0-.09,0-.09-.1,0-.25,0-.5,0-.75a2.13,2.13,0,0,1,.23-.57.15.15,0,0,1,.14-.09C14.38,10.8,14.37,11.52,14.36,11.72Zm-1-1.45a2.29,2.29,0,0,1,.12-.37,7.76,7.76,0,0,0,.35-1.44c.05-.32.14-.63.2-1,.06.07,0,.12,0,.18,0,.22-.06.44-.06.66A14.42,14.42,0,0,0,14,9.8c0,.1,0,.21,0,.32a1.26,1.26,0,0,1-.24.75.29.29,0,0,1-.07.12.56.56,0,0,1-.29-.33A.39.39,0,0,1,13.38,10.27Zm-.08.54a.73.73,0,0,1,.24.61c0,.25,0,.51,0,.77a.28.28,0,0,1-.16.26l-.2.13c-.05,0,0-.07,0-.1,0-.32,0-.63,0-1A1.64,1.64,0,0,1,13.3,10.81Zm-.22,4.84c0-.21,0-.43,0-.64,0-.43,0-.85,0-1.28s0-.56,0-.84a.19.19,0,0,1,.1-.19l.32-.21a.22.22,0,0,1,.16,0,4.17,4.17,0,0,0,.5,0,3.13,3.13,0,0,1,.44,0,.86.86,0,0,1,.34.18.11.11,0,0,1,0,.09c0,.68,0,1.36,0,1.83,0,.84,0,1.48,0,2.11v.08c0,.12,0,.13-.13.13-.36,0-.72,0-1.08,0s-.46,0-.7-.05a.1.1,0,0,1-.11-.11C13.07,16.39,13.06,16,13.08,15.65Zm2,1.41c0,.12-.06.22-.08.32a.23.23,0,0,1-.25.07s0,0,0-.05a.69.69,0,0,0,0-.25c0-.06,0-.09.1-.09Zm-.68.42H14.1c0-.11,0-.21,0-.31s0-.12.13-.11h.24c.07,0,.12,0,.11.11s0,0,0,.06C14.61,17.46,14.59,17.48,14.37,17.48ZM14,17.4s0,.05-.05.06a.45.45,0,0,1-.2,0,1.2,1.2,0,0,1,0-.33c0-.09.08-.08.14-.08s.08,0,.08.1A.71.71,0,0,0,14,17.4Zm-.49.05c-.13,0-.21,0-.18-.22v-.08c0-.13,0-.13.15-.12s.15,0,.13.2c0,0,0,.08,0,.12S13.59,17.46,13.5,17.45Zm-.6-.24a.05.05,0,0,1,0,0A.23.23,0,0,1,13,17a.09.09,0,0,1,.1,0h0s0,.05,0,.08a1.71,1.71,0,0,0,0,.32.23.23,0,0,1-.14,0C12.92,17.42,12.87,17.35,12.9,17.21Zm-6.08,1c0,.06,0,.06,0,.14A.12.12,0,0,1,6.82,18.23ZM6.76,19a1.48,1.48,0,0,0,0-.21s0,0,0,0,0,0,0,0,0,.05,0,.07a2.64,2.64,0,0,1,0,.4,0,0,0,0,1-.05.05s0,0,0-.06Zm0,.57s0,0,0-.05,0-.06,0-.06.05,0,.05,0A.07.07,0,0,1,6.8,19.53Zm0,.43h0c0-.05,0-.1,0-.13h0A.1.1,0,0,1,6.79,20Zm-.3-2.56a1.1,1.1,0,0,1,.11.35.66.66,0,0,0,.06.2s0,.07,0,.08-.1,0-.13,0v0A2.9,2.9,0,0,1,6.49,17.4Zm.09.91s0,0,0-.07,0,0,0,0,0,0,0,0a.15.15,0,0,1,0,.07s0,.09,0,.09S6.58,18.34,6.58,18.31Zm-.14.09s0,0,0,0,0,0,0,0,0-.1,0-.19A.22.22,0,0,1,6.44,18.4Zm-.12-1.09a.8.8,0,0,1,0,.33c0,.1,0,.2,0,.3s0,.12-.12.11a.42.42,0,0,0-.17,0A5.44,5.44,0,0,1,6.32,17.31Zm-.09,1s0,0,0-.06,0,0,0,0A.09.09,0,0,1,6.23,18.33ZM6,22.68a.12.12,0,0,1-.15-.07.36.36,0,0,1,0-.23c0-.08.09-.06.14-.07s.06,0,.06.08,0,.12,0,.18S6.07,22.67,6,22.68Zm0-4.24a.69.69,0,0,1,0-.2h0c0,.06,0,.13,0,.19a0,0,0,0,1,0,0S6,18.46,6,18.44Zm0,.84c0-.18,0-.36,0-.54s0-.1.1-.11.22-.05.33-.06.12,0,.13.11.05.54,0,.59a.54.54,0,0,1-.35.13l-.13,0C6.07,19.37,6,19.34,6.05,19.28Zm.43.43c-.07,0-.05-.09,0-.15S6.48,19.66,6.48,19.71Zm-.23.06a.08.08,0,0,1-.08-.09V19.6s0-.07.07-.06.06,0,.06.07v0C6.3,19.71,6.32,19.77,6.25,19.77Zm-.19.28c0-.13,0-.13.13-.14h.09a.63.63,0,0,0,.23,0c.11,0,.13,0,.11.11a.57.57,0,0,0,0,.13.58.58,0,0,1-.07.41.12.12,0,0,1-.13.08l-.12,0c-.23,0-.23,0-.24-.26Zm.14.67h0a.44.44,0,0,1,.38.17.36.36,0,0,1,.14.34c0,.16,0,.33,0,.45a2.51,2.51,0,0,0,0,.3.12.12,0,0,1-.09.14.82.82,0,0,1-.41.08c-.08,0-.12,0-.12-.12s0-.22,0-.33c0-.31,0-.61,0-.92C6.08,20.72,6.09,20.72,6.2,20.72Zm.54,1.82a.61.61,0,0,1,0-.27C6.8,22.37,6.8,22.4,6.74,22.54Zm-.19.09c-.09,0-.06-.07-.07-.12a.76.76,0,0,1,0-.15s0,0,0,0,0,0,0,0,0,.1,0,.16S6.62,22.63,6.55,22.63Zm-.26,0c-.06,0,0-.09,0-.13a1.15,1.15,0,0,0-.06-.17.09.09,0,0,1,.14.07.11.11,0,0,1,0,.08C6.33,22.55,6.38,22.64,6.29,22.65Zm.47,5a.11.11,0,0,1,0,.08.09.09,0,0,1-.07,0,.05.05,0,0,1,0-.06c0-.16,0-.32,0-.49s0-.49,0-.74,0-.15-.13-.15a.16.16,0,0,0-.15.14,2.2,2.2,0,0,0,0,.36l-.06.89s0,.05,0,.06,0,0,0-.06,0-.1,0-.15V27c0-.5,0-1,0-1.49,0-.1,0-.1.11-.09h.35c.16,0,.16,0,.15.17a5.11,5.11,0,0,0,0,.78c0,.35,0,.7.06,1A2.28,2.28,0,0,1,6.76,27.66Zm.06-3.77c0,.46,0,.83,0,1.19,0,.14,0,.15-.15.15H6.3c-.13,0-.13,0-.14-.13,0-.28,0-.55,0-.83,0-.43,0-.87,0-1.31,0-.07,0-.11.1-.12a.94.94,0,0,0,.47-.09s.06,0,.07,0,0,.09,0,.14C6.83,23.27,6.84,23.63,6.82,23.89Zm0-3.16c-.09,0-.09,0-.08-.12a1.26,1.26,0,0,1,.13-.37c.13-.25.19-.53.32-.78a6,6,0,0,0,.39-.94.14.14,0,0,1,.15-.11H9.36a8.24,8.24,0,0,0,1,.07c.6,0,1.21,0,1.81,0h.55c.08,0,.1,0,.1.1,0,.31,0,.63,0,.95s0,.61,0,.91c0,.11,0,.13-.12.12a14.08,14.08,0,0,0-1.59.05c-.24,0-.47,0-.71,0-.43,0-.86.05-1.28,0s-.88,0-1.32,0c-.24,0-.48,0-.73,0C7,20.72,6.9,20.74,6.8,20.73Zm1,6.57a2.11,2.11,0,0,0,0,.26c0,.14,0,.14-.14.14H7.58c-.12,0-.15,0-.14-.15a4.25,4.25,0,0,1,.13-.87l0-.1c0-.07.08-.06.12,0A1,1,0,0,1,7.85,27.3Zm.7.32c0,.1,0,.1-.13.1s-.12,0-.12-.09a3.64,3.64,0,0,1,0-.74.45.45,0,0,1,.14-.31.49.49,0,0,1,.08.23A3.14,3.14,0,0,1,8.55,27.62Zm.77,0c0,.09-.06.12-.14.1s-.06-.06-.06-.1,0-.29,0-.43,0-.23,0-.35,0-.06,0-.1a.1.1,0,0,1,.06-.05s0,0,0,.05a.42.42,0,0,1,0,.15c0,.13,0,.25,0,.42Zm.93.06c0,.1,0,.11-.12.11l-.07,0c-.12,0-.13,0-.13-.14a2.46,2.46,0,0,1,.09-.81.2.2,0,0,1,.1-.16.59.59,0,0,1,.12.35A5,5,0,0,1,10.25,27.65Zm.91,0c0,.07,0,.11-.11.1s-.14,0-.16-.08a.93.93,0,0,1,0-.33,2,2,0,0,1,.12-.63s0-.06,0-.06.05,0,.06.07a1.12,1.12,0,0,1,.07.4A2.35,2.35,0,0,1,11.16,27.6Zm.85,0s0,.06-.07.06h-.06c-.17,0-.16,0-.16-.18s0-.44.06-.66a.51.51,0,0,1,.09-.27c0-.06.08-.05.1,0a.75.75,0,0,1,0,.16l0,.4C12,27.33,12,27.49,12,27.65Zm.89-2.09c0,.23,0,.47,0,.7s0,.33,0,.49,0,.56,0,.84c0,.13,0,.15-.14.15a4.53,4.53,0,0,1-.52,0,2.5,2.5,0,0,1,0-.47,2.7,2.7,0,0,0-.07-.69.69.69,0,0,0,0-.1c-.07-.13-.16-.12-.26,0a1.1,1.1,0,0,0-.17.59c0,.19,0,.38-.05.58s0,.09-.09.1-.14,0-.16-.09a3.42,3.42,0,0,1,0-.44,3.09,3.09,0,0,0-.08-.61c0-.12-.06-.14-.14-.15s-.16,0-.19.14a2.94,2.94,0,0,0-.16,1c0,.14,0,.14-.14.16h-.06c-.09,0-.11,0-.12-.11l0-.61a1.36,1.36,0,0,0-.08-.39.26.26,0,0,0-.08-.13c-.09-.11-.15-.11-.23,0a1.15,1.15,0,0,0-.15.54,3.52,3.52,0,0,0,0,.56c0,.08,0,.1-.1.1-.24,0-.25,0-.24-.24a5.54,5.54,0,0,0,0-.7.53.53,0,0,0-.08-.25.1.1,0,0,0-.15,0,.28.28,0,0,0-.16.26c0,.26,0,.52,0,.78a.13.13,0,0,0,0,.06.16.16,0,0,1-.25.1c-.05,0,0-.07,0-.12a3.86,3.86,0,0,0,0-.76.75.75,0,0,0-.1-.32c-.06-.13-.16-.14-.25,0a1,1,0,0,0-.14.41c0,.25,0,.49,0,.73A.08.08,0,0,1,8,27.7s0-.06,0-.1a3.73,3.73,0,0,1,0-.47,1.29,1.29,0,0,0-.16-.66s0,0-.07-.08-.16-.05-.22.05a1.14,1.14,0,0,0-.13.35l-.09.62c0,.1-.08.18,0,.28s0,0,0,0H7c-.06,0-.07,0-.07-.07,0-.53-.08-1.06-.06-1.59,0-.14,0-.29,0-.44s0-.08.07-.07l.33,0s.07,0,.06.07,0,.09,0,.14l0,.09s0,.09.07.1.08,0,.09-.09v-.1a.21.21,0,0,1,.23-.2c.08,0,.18,0,.23,0s0,.14,0,.22,0,.06,0,.08a.1.1,0,0,0,.09,0s0,0,0-.06,0-.11,0-.17,0-.1.1-.1h.53a1.09,1.09,0,0,1,.26,0,1.8,1.8,0,0,0,0,.22s0,.08,0,.08.08,0,.08-.07a.53.53,0,0,1,0-.12c0-.13,0-.13.17-.14l.34,0c.09,0,.1,0,.09.1a1.46,1.46,0,0,0-.05.2.07.07,0,0,0,.05.09s.07,0,.08-.06,0-.13.07-.2,0-.13.18-.13l.43,0c.12,0,.12,0,.13.12a.41.41,0,0,0,0,.11.06.06,0,0,0,0,.07s.06,0,.08-.06,0-.09,0-.13,0-.13.12-.13a2.35,2.35,0,0,1,.7,0,.26.26,0,0,0,0,.24.06.06,0,0,0,.08,0,.07.07,0,0,0,0-.07c0-.06,0-.13,0-.2l.44,0c.1,0,.11,0,.09.11a.43.43,0,0,1,0,.11.07.07,0,0,0,.05.08.05.05,0,0,0,.07,0,0,0,0,0,0,0,0c0-.08,0-.18.12-.21a1.66,1.66,0,0,1,.32,0C12.9,25.47,12.91,25.52,12.9,25.56Zm0-.57v.09c0,.08,0,.1-.1.1l-1.28,0-1.33.05-1.36,0-1.48,0c-.1,0-.21,0-.32,0s-.12,0-.12-.14,0-.19,0-.28v-1c0-.3,0-.6,0-.9s-.07-.87-.07-1.31c0-.21,0-.43,0-.64,0-.06,0-.11.08-.09a4,4,0,0,0,.91,0c.33,0,.65,0,1,0s.6,0,.9,0,.6,0,.9,0L11,21a2.72,2.72,0,0,1,.57,0c.26,0,.53,0,.8,0h.29a.25.25,0,0,0,.2-.06.69.69,0,0,1,0,.31c0,.58.07,1.15.07,1.72,0,.32,0,.64,0,1S12.92,24.64,12.93,25Zm0-5.74a8.45,8.45,0,0,1,0-1.51s0-.06,0-.09,0-.08.09-.08h.34c.28,0,.57,0,.85,0a2.68,2.68,0,0,0,.49,0,.75.75,0,0,1,.26,0c.1,0,.13,0,.13.14s0,.3,0,.46,0,.26,0,.39h0c0,.28,0,.56,0,.84a.1.1,0,0,1-.11.11c-.53,0-1.06.09-1.6.09h-.07a1.14,1.14,0,0,1-.33-.07C12.87,19.49,12.94,19.35,12.94,19.25Zm.7,8.51s0,0,0,0,0,0,0,0a0,0,0,0,1,0,0S13.65,27.75,13.64,27.76Zm1,0c-.14,0-.15,0-.17-.14a2.29,2.29,0,0,1,0-.64,1.49,1.49,0,0,0-.15-.81.58.58,0,0,0-.2-.21.28.28,0,0,0-.42.09,1.17,1.17,0,0,0-.16.36,5.38,5.38,0,0,0-.17,1.26.11.11,0,0,1,0,.09.15.15,0,0,1,0-.13,6.62,6.62,0,0,1,.09-1,1.46,1.46,0,0,1,.29-.69.53.53,0,0,1,.87,0,.29.29,0,0,1,.07.16,1.49,1.49,0,0,1,.06.51,2.69,2.69,0,0,0,0,.4c0,.21,0,.42,0,.64S14.72,27.74,14.65,27.75Zm.54-.34a2.09,2.09,0,0,1,0,.25.06.06,0,0,1-.07.07c-.14,0-.2,0-.23-.14s0,0,0-.05a4.55,4.55,0,0,0,0-.53.18.18,0,0,1,.09-.22.27.27,0,0,0,.09-.12.06.06,0,0,0,0-.07s0,0-.06,0-.05,0-.09,0,0-.07,0-.11a.9.9,0,0,0,0-.4.29.29,0,0,1,0-.28.08.08,0,0,0,0-.05s0-.1,0-.13-.08,0-.11.06-.08.08-.16,0a1.13,1.13,0,0,0-.26-.16c-.05,0-.08,0-.06-.11a.08.08,0,0,0-.07-.1c-.06,0-.09,0-.09.09s0,.08-.09.08a.48.48,0,0,0-.25.09c-.12.08-.21,0-.21-.11s0-.11-.06-.12-.09.05-.09.12a.39.39,0,0,0,.09.23s.06.05,0,.1-.05.12-.11.15,0,0-.08,0a.08.08,0,0,0-.13,0c0,.05,0,.09,0,.12l.09.06a1.54,1.54,0,0,0-.09.37c0,.06,0,.13-.12.12s-.05,0-.06.06a.08.08,0,0,0,0,.09c.09,0,.08.1.08.17a4.89,4.89,0,0,0-.05.66s0,0,0,.06a.07.07,0,0,1-.07.06c-.05,0-.09,0-.09-.06a.88.88,0,0,1,0-.16c0-.41,0-.82,0-1.22,0-.67,0-1.34,0-2a7.66,7.66,0,0,1,0-.83c0-.42,0-.84,0-1.25,0-.11,0-.23,0-.34,0-.67,0-1.34,0-2,0-.13,0-.15.11-.14a8.42,8.42,0,0,0,1.23,0c.23,0,.45,0,.67,0s.13,0,.14.14a6.42,6.42,0,0,1,0,.76,1.48,1.48,0,0,0,0,.21,10.45,10.45,0,0,1,0,1.37c0,.3,0,.6,0,.9,0,.58,0,1.16,0,1.74a4.45,4.45,0,0,1,0,.73,2,2,0,0,0,0,.24c0,.37,0,.73-.05,1.1A5.15,5.15,0,0,0,15.19,27.41Zm0-6.94v-.65c0-.43,0-.85,0-1.28,0-.15.52-.18.61-.19l.57,0,.65,0a4,4,0,0,1,.69,0c.23,0,.46,0,.68,0s.54,0,.81.05a.22.22,0,0,1,.16.12c.13.24.24.5.35.75s.19.43.3.65.14.2.2.32.17.35.26.53,0,.09-.06.1a2.57,2.57,0,0,1-.48,0,11.63,11.63,0,0,0-1.32,0c-.38,0-.77,0-1.15-.06s-.92-.09-1.39-.08c-.24,0-.49,0-.73,0h-.15A.36.36,0,0,1,15.22,20.47Zm0,2.71c0-.58,0-1.16,0-1.74v-.27c0-.11,0-.12.11-.12H16a1.41,1.41,0,0,0,.46,0,1.64,1.64,0,0,1,.38,0c.33,0,.66,0,1,0s.46,0,.68,0l1.34,0a2.54,2.54,0,0,0,.39,0c.1,0,.12,0,.12.12a5.45,5.45,0,0,1,0,.7,8.42,8.42,0,0,0,0,.87c0,.46,0,.93,0,1.4s0,.66,0,1c0,.14,0,.14-.13.14s-.49,0-.74,0-.72,0-1.08,0-.56,0-.84,0l-.7,0H15.81c-.15,0-.29,0-.43-.05s-.05-.06-.05-.11c0-.35,0-.7,0-1.05h0C15.28,23.8,15.27,23.49,15.27,23.18Zm1.1,4.54a.07.07,0,0,1-.06.06h-.06c-.31,0-.26,0-.26-.3,0-.13,0-.3,0-.47a.61.61,0,0,1,.11-.28c.05-.08.11-.08.15,0a.94.94,0,0,1,.08.34A2.66,2.66,0,0,1,16.37,27.72Zm.95-.18s0,.06,0,.09,0,.12-.09.12-.14,0-.18-.07a.39.39,0,0,1-.05-.14,2.32,2.32,0,0,1,.15-.94c0-.06,0-.06.12-.13a.71.71,0,0,1,.06.31Zm1,.14a.08.08,0,0,1-.09.09h0c-.18,0-.2,0-.21-.19a2.81,2.81,0,0,1,0-.65.22.22,0,0,1,.1-.18c.06,0,.09,0,.11,0a1.33,1.33,0,0,1,.09.55A2,2,0,0,1,18.36,27.68Zm1.19.06h-.32a.19.19,0,0,1-.23-.2,2.28,2.28,0,0,1,.1-.86.19.19,0,0,1,.21-.14c.1,0,.15,0,.19.16a.76.76,0,0,1,0,.21,2.72,2.72,0,0,1,0,.7S19.57,27.69,19.55,27.74Zm.72,0a3.47,3.47,0,0,1-.56,0,6.11,6.11,0,0,0-.07-1l0-.1c-.05-.3-.29-.28-.48-.22a.2.2,0,0,0-.12.13.76.76,0,0,0-.06.2c-.05.2-.06.4-.09.59a1.05,1.05,0,0,0,0,.31c0,.06,0,.08-.06.09h-.24s-.05,0-.06-.06a1.56,1.56,0,0,1,0-.43,1.38,1.38,0,0,0-.11-.57.21.21,0,0,0-.06-.1.1.1,0,0,0-.14,0,.43.43,0,0,0-.23.31,3.21,3.21,0,0,0,0,.76c0,.13,0,.14-.13.14h-.12c-.21,0-.21,0-.22-.22s0-.45,0-.68a1.75,1.75,0,0,0,0-.4c0-.06,0-.14-.1-.15a.21.21,0,0,0-.18.1,1.36,1.36,0,0,0-.19.52,2.37,2.37,0,0,0,0,.75s0,.06,0,.07h-.06c-.2,0-.25,0-.27-.23s0-.28,0-.42a1.74,1.74,0,0,0-.11-.45.27.27,0,0,0-.06-.1c-.09-.08-.18-.08-.24,0a1.14,1.14,0,0,0-.19.56c0,.18,0,.36,0,.54s0,.09-.11.09l-.32,0c-.06,0-.08,0-.08-.08a6.22,6.22,0,0,1,0-1.22c0-.22,0-.45,0-.67s0-.12.1-.12h.33a.09.09,0,0,1,.11.1.57.57,0,0,0,0,.13s0,.07.07.07a.07.07,0,0,0,.06-.07.57.57,0,0,0,0-.13s0-.09.09-.08a3.12,3.12,0,0,0,.43,0c.06,0,.08,0,.08.08s0,.11,0,.16,0,.07,0,.08a.06.06,0,0,0,.08,0,1,1,0,0,0,0-.17c0-.08.05-.11.13-.11l.47,0c0,.07,0,.13,0,.18s0,.06,0,.06a.06.06,0,0,0,.08,0,.8.8,0,0,1,0-.15.12.12,0,0,1,.1-.09l.35,0c.06,0,.08,0,.08.07s0,.11,0,.16,0,.09.07.09.06-.05.06-.09a.66.66,0,0,0,0-.14c0-.06,0-.1.09-.1h.44c.1,0,.11,0,.11.12a.29.29,0,0,0,0,.09s0,.07,0,.07a.07.07,0,0,0,.08-.05.57.57,0,0,0,0-.13c0-.07,0-.1.11-.1a3.26,3.26,0,0,0,.54,0c.05,0,.09,0,.09.08a.17.17,0,0,0,0,.07s0,0,0,0,.05,0,.06,0h0c0-.16.09-.17.2-.18a2.85,2.85,0,0,1,.29,0c.1,0,.11,0,.12.11,0,.46,0,.91,0,1.37,0,.2,0,.4,0,.6S20.41,27.69,20.27,27.71Zm.2-6.48a.22.22,0,0,1,.17-.24c.11,0,.11,0,.09-.21a.61.61,0,0,0,.3-.11c0,.22,0,.41,0,.6a5.43,5.43,0,0,0,0,.57c0,.21,0,.22-.23.24a.81.81,0,0,1-.31,0c-.06,0-.07,0-.07-.1C20.47,21.73,20.47,21.48,20.47,21.23ZM21,22.51s0,0-.06,0,0,0,0,0a1.49,1.49,0,0,1,0-.21s0-.05.05,0,0,0,0,0a.27.27,0,0,1,0,.09h0A.48.48,0,0,1,21,22.51Zm-.2-.21a.39.39,0,0,1,0,.21.32.32,0,0,1,0-.21.05.05,0,0,1,0-.06S20.75,22.27,20.75,22.3Zm-.24.17a.24.24,0,0,1,0-.21s0,0,0,0,0,0,0,0A.31.31,0,0,1,20.51,22.47Zm-.05.35c0-.12,0-.12.13-.11a1.07,1.07,0,0,0,.47-.05.17.17,0,0,1,0,.11c0,.33,0,.65,0,1,0,.13,0,.27.05.4a7.07,7.07,0,0,1,0,.92c0,.07,0,.09-.1.13a1,1,0,0,1-.46.08c-.1,0-.11,0-.11-.12s0-.47,0-.7a8,8,0,0,0,0-.85C20.48,23.34,20.46,23.08,20.46,22.82Zm.83,4c0,.21,0,.41,0,.61a.53.53,0,0,1,0,.13c0,.08,0,.1-.14.1a.09.09,0,0,1-.09-.11v-.08c0-.3,0-.61,0-.91a.51.51,0,0,0-.13-.29.05.05,0,0,0-.08,0,.07.07,0,0,0-.05.07l0,.32a6.7,6.7,0,0,0,0,.9c0,.1,0,.13-.1.13s-.07,0-.08-.06,0-.25,0-.38,0-.55,0-.82,0-.54,0-.81,0-.2.19-.21l.37,0c.1,0,.13,0,.13.12C21.22,26,21.28,26.4,21.29,26.84Zm-.06-4.72h0a0,0,0,0,1,0-.05l.08,0h0s.05,0,.05,0v.3a0,0,0,0,1,0,0h-.07a0,0,0,0,1,0,0v-.21S21.22,22.12,21.23,22.12Z"/><path class="cls-1" d="M7.88,21.91c0,.18,0,.32-.07.47s0,.13.06.16,0,.06,0,.1a.61.61,0,0,1-.39.17c-.09,0-.2-.14-.16-.21a.87.87,0,0,0,.07-.42c0-.1,0-.2,0-.3a.17.17,0,0,1,0-.1s.07-.05.1,0,0,.05.1,0l.07,0C7.84,21.79,7.88,21.82,7.88,21.91ZM7.74,22c-.07,0-.11,0-.16,0a0,0,0,0,0,0,.06c0,.11,0,.22,0,.34s0,.11.07.12.08-.05.1-.1A2,2,0,0,0,7.74,22Z"/><path class="cls-1" d="M8.8,22l-.06.31a.14.14,0,0,0,.06.18c.06,0,0,.07,0,.12a.2.2,0,0,1-.16.09,1.38,1.38,0,0,0-.2,0,.13.13,0,0,1-.15-.07s0-.07,0-.1.1-.21.12-.33,0-.21,0-.31.06-.16.17-.09l.11,0C8.8,21.88,8.81,21.9,8.8,22Zm-.25,0c0,.13,0,.26,0,.39s0,.07,0,.08,0,0,.06-.08a2.74,2.74,0,0,1,.05-.28C8.68,22,8.63,22,8.55,22Z"/><path class="cls-1" d="M9.43,22.69c-.2,0-.23-.1-.21-.24s.08-.38.11-.57.06-.13.15-.05.08,0,.13,0,.12,0,.09.15l-.06.31a.25.25,0,0,0,0,.17c0,.1,0,.12-.08.15a.38.38,0,0,1-.1,0Zm.14-.61s0-.06,0-.07-.08,0-.09,0a1.06,1.06,0,0,0,0,.31s0,0,.06,0,0,0,.05,0Z"/><path class="cls-1" d="M10.66,22.08a1.61,1.61,0,0,0,0,.38.1.1,0,0,1-.1.13,1.89,1.89,0,0,0-.23.05.21.21,0,0,1-.17,0c-.05,0-.08-.1,0-.14s.12-.31.17-.46a.4.4,0,0,0,0-.15.08.08,0,0,1,.09-.07.81.81,0,0,1,.21.1C10.69,21.94,10.65,22,10.66,22.08Zm-.12,0h0s0-.08,0-.09-.07,0-.08.08a1.06,1.06,0,0,0,0,.19s0,.08,0,.09a.09.09,0,0,0,.11-.08A1.62,1.62,0,0,1,10.54,22.1Z"/><path class="cls-1" d="M12.49,21.82a.94.94,0,0,0,0,.09.88.88,0,0,0-.06.36.12.12,0,0,1-.08.13l-.31.12s-.09,0-.12,0a.08.08,0,0,1,0-.12.82.82,0,0,0,.17-.48s0-.1.05-.13a.6.6,0,0,1,.25-.1C12.45,21.67,12.49,21.73,12.49,21.82Zm-.31.29s0,.08,0,.09.06,0,.07-.08a1.94,1.94,0,0,0,.05-.2s0-.08,0-.09a.07.07,0,0,0-.08.05A.56.56,0,0,0,12.18,22.11Z"/><path class="cls-1" d="M11.35,21.8a.71.71,0,0,0,.2,0c.08,0,.1.05.06.12a.94.94,0,0,0-.06.28.26.26,0,0,0,0,.15c0,.11-.05.22-.16.2a1.23,1.23,0,0,1-.2,0,.14.14,0,0,1-.11-.1c0-.05,0-.07.06-.09a.2.2,0,0,0,.1-.18,1.13,1.13,0,0,0,0-.26C11.23,21.83,11.27,21.8,11.35,21.8Zm0,.52a.79.79,0,0,0,.07-.22s0-.11,0-.12,0,.06,0,.1A.39.39,0,0,0,11.38,22.32Z"/><path class="cls-1" d="M7.53,24.74c0-.15,0-.29,0-.43a.09.09,0,0,1,.08-.11l.2,0c.08,0,.13,0,.12.1s0,.43,0,.64a.13.13,0,0,1,0,.06.52.52,0,0,1-.31,0,.11.11,0,0,1-.06-.15Zm.13-.11a.37.37,0,0,0,0,.11s0,.08,0,.09.07,0,.08-.08l0-.33s0-.07-.05-.08-.06,0-.08.06A1,1,0,0,0,7.66,24.63Z"/><path class="cls-1" d="M8.86,24.37a3.42,3.42,0,0,0,0,.45c0,.14,0,.15-.14.18s-.28,0-.26-.22a3.29,3.29,0,0,1,.05-.44c0-.08.16-.15.27-.13S8.86,24.27,8.86,24.37Zm-.14.19h0s0-.07,0-.1,0-.08,0-.09a.08.08,0,0,0-.09.07,1.24,1.24,0,0,0,0,.33s0,.08.06.08.08,0,.08-.08Z"/><path class="cls-1" d="M10.47,24.2l-.28,0h0a3.31,3.31,0,0,1,0,.55.12.12,0,0,0,.13.14l.07,0c.16,0,.17,0,.19-.17a2.31,2.31,0,0,1,0-.37C10.59,24.28,10.55,24.23,10.47,24.2Zm0,.31h0a.71.71,0,0,0,0,.14s0,.08-.06.08,0-.05-.06-.09a1.79,1.79,0,0,1,0-.23s0-.06.06-.05a.06.06,0,0,1,0,.06Z"/><path class="cls-1" d="M9.65,24.55v.23a.11.11,0,0,1-.1.12l-.13,0c-.1,0-.17,0-.16-.12s0-.35,0-.53a.1.1,0,0,1,.07-.07c.09,0,.16,0,.24,0s.05.06.05.11v.22Zm-.25,0v.08s0,.07,0,.08a.06.06,0,0,0,.06,0,.73.73,0,0,0,0-.25s0-.07-.06-.08-.05,0-.06.06S9.41,24.54,9.4,24.58Z"/><path class="cls-1" d="M11.72,24.64c0-.1,0-.21,0-.32s0,0,0-.06a.36.36,0,0,1,.3-.09.11.11,0,0,1,.06.07s0,.06,0,.09l-.06.44c0,.05,0,.11-.08.12a.39.39,0,0,1-.24,0s0-.05,0-.08S11.72,24.7,11.72,24.64Zm.13,0v0s0,.08,0,.08.06,0,.06-.07a2.51,2.51,0,0,0,0-.27s0-.05,0-.06a.05.05,0,0,0-.07,0A.86.86,0,0,0,11.85,24.61Z"/><path class="cls-1" d="M10.94,24.72c0-.13,0-.26,0-.38s.23-.21.31-.16a.11.11,0,0,1,.07.13,2.42,2.42,0,0,0-.07.47c0,.09,0,.11-.13.1l-.1,0C11,24.85,10.93,24.82,10.94,24.72Zm.13-.11v0s0,.07,0,.08.05,0,.06-.07a1.94,1.94,0,0,0,0-.24.05.05,0,0,0,0-.07.06.06,0,0,0-.06.06Z"/><path class="cls-1" d="M7.62,21.28a.21.21,0,0,1,.23.26.08.08,0,0,1-.06.08s-.06,0-.08-.06-.09-.15-.21-.06l0,0s-.07,0-.09,0,0-.08,0-.11A.37.37,0,0,1,7.62,21.28Z"/><path class="cls-1" d="M10.52,21.28a.23.23,0,0,1,.17.16.09.09,0,0,1,0,.11s-.06,0-.09,0-.1-.1-.19,0a.48.48,0,0,0-.09.11.11.11,0,0,1-.07.06.07.07,0,0,1-.08-.08.63.63,0,0,1,.38-.3Z"/><path class="cls-1" d="M9.75,21.48a.07.07,0,0,1-.06.07s-.07,0-.09,0-.08-.11-.18,0a.44.44,0,0,0-.08.11.07.07,0,0,1-.1,0s0-.06,0-.1a.56.56,0,0,1,.34-.26A.27.27,0,0,1,9.75,21.48Z"/><path class="cls-1" d="M11.58,21.58a.1.1,0,0,1-.08,0c-.07-.08-.1-.08-.18,0s-.05.08-.1.09a.05.05,0,0,1-.08,0s0,0,0-.07a.47.47,0,0,1,.3-.21c.09,0,.21.1.21.19S11.62,21.58,11.58,21.58Z"/><path class="cls-1" d="M8.87,21.45a.09.09,0,0,1,0,.06s-.06,0-.08,0,0-.11-.12-.1-.08.06-.12.09,0,.06-.09,0a.06.06,0,0,1,0-.09.36.36,0,0,1,.23-.17C8.73,21.21,8.87,21.36,8.87,21.45Z"/><path class="cls-1" d="M12.44,21.43s0,.06,0,.08-.06,0-.09,0-.09-.09-.16,0-.05.09-.1.05,0-.07,0-.12a.29.29,0,0,1,.16-.13A.18.18,0,0,1,12.44,21.43Z"/><path class="cls-1" d="M9.35,23.63s-.07,0-.07-.08a.32.32,0,0,1,.26-.23c.06,0,.09,0,.06.09a.52.52,0,0,1-.22.22Z"/><path class="cls-1" d="M12.22,23.39c0,.09-.21.22-.29.19a.1.1,0,0,1,0-.15.4.4,0,0,1,.2-.11C12.19,23.31,12.22,23.34,12.22,23.39Z"/><path class="cls-1" d="M11.18,23.64c-.06,0-.08,0-.07-.09a.31.31,0,0,1,.27-.17.07.07,0,0,1,.06.09A.43.43,0,0,1,11.18,23.64Z"/><path class="cls-1" d="M7.64,23.7a.09.09,0,0,1-.07-.06.16.16,0,0,1,0-.15l.07,0c.05,0,.11-.09.16,0s0,.11,0,.16S7.72,23.69,7.64,23.7Z"/><path class="cls-1" d="M8.44,23.71a.07.07,0,0,1-.06-.07.22.22,0,0,1,.22-.21.06.06,0,0,1,.06.05C8.67,23.56,8.53,23.71,8.44,23.71Z"/><path class="cls-1" d="M10.52,23.41c0,.06-.12.18-.18.19a.07.07,0,0,1-.08,0,.12.12,0,0,1,0-.14.26.26,0,0,1,.17-.09C10.49,23.34,10.52,23.36,10.52,23.41Z"/><path class="cls-1" d="M7.62,23l0-.15a.11.11,0,0,1,.09,0s.07,0,.06.08a.7.7,0,0,0,0,.14.08.08,0,0,1-.1.07S7.62,23.06,7.62,23Z"/><path class="cls-1" d="M9.06,22.92a.5.5,0,0,1,0,.13.09.09,0,0,1-.1.05.07.07,0,0,1,0-.09.5.5,0,0,0,0-.12.08.08,0,0,1,.1-.06C9.06,22.84,9.05,22.88,9.06,22.92Z"/><path class="cls-1" d="M9.45,23s0,0,0-.06,0-.12.08-.12.06.08.07.13a.13.13,0,0,1,0,.06c0,.05,0,.09-.1.08S9.46,23,9.45,23Z"/><path class="cls-1" d="M11.3,23s0,0,0-.05,0-.11.07-.11,0,.06,0,.1a.45.45,0,0,0,0,.11s0,.07,0,.08a.07.07,0,0,1-.1,0A.64.64,0,0,0,11.3,23Z"/><path class="cls-1" d="M8.3,23.13c-.06,0-.08,0-.09-.05a.37.37,0,0,1,.06-.21,0,0,0,0,1,.07,0s.05,0,0,.05a.85.85,0,0,1-.06.17S8.29,23.13,8.3,23.13Z"/><path class="cls-1" d="M10.05,22.91c0-.06,0-.11.07-.13s.08.06.07.14,0,.12-.08.12S10.05,23,10.05,22.91Z"/><path class="cls-1" d="M10.85,22.94s0,.09-.06.1-.08,0-.1-.14a.09.09,0,0,1,.08-.11s0,0,.06,0A.2.2,0,0,1,10.85,22.94Z"/><path class="cls-1" d="M12.67,23s0,.05,0,.06-.07,0-.09,0a.14.14,0,0,1,0-.16.08.08,0,0,1,.07-.05s.05,0,.05.07S12.66,23,12.67,23Z"/><path class="cls-1" d="M12.2,23c0,.05,0,.06-.06.06s-.09,0-.09-.09a.1.1,0,0,1,.09-.12S12.19,22.88,12.2,23Z"/><path class="cls-1" d="M18.89,21.81v-.07c0-.1,0-.13.12-.14h.12c.13,0,.16.05.13.18a2.57,2.57,0,0,0-.05.4.19.19,0,0,0,0,.17c.05.05,0,.1,0,.13a.58.58,0,0,1-.26.06c-.09,0-.11,0-.1-.13S18.88,22,18.89,21.81Zm.24,0s0-.09,0-.1-.06,0-.07.08a1.18,1.18,0,0,0,0,.27s0,0,0,0,0,0,.06,0S19.12,21.93,19.13,21.85Z"/><path class="cls-1" d="M19.74,21.58h.07c.14,0,.15,0,.14.17a2.35,2.35,0,0,0,0,.59.06.06,0,0,1-.06.07l-.26.08a.21.21,0,0,1-.11,0c-.05,0-.07-.09,0-.12s.05-.08.06-.14,0-.24,0-.36a.33.33,0,0,0,0-.14c0-.12,0-.15.12-.14Zm-.07.45s0,.09,0,.1.07,0,.08-.08l0-.2a.18.18,0,0,0,0-.1.09.09,0,0,0-.05,0,0,0,0,0,0,0,0C19.7,21.85,19.68,21.94,19.67,22Z"/><path class="cls-1" d="M18.16,22.49a.14.14,0,0,1-.12-.06c0-.05,0-.08.05-.11s0,0,0-.05a4.85,4.85,0,0,0,.09-.55c0-.14.06-.17.2-.1s.16.09.12.26a.86.86,0,0,0,0,.45c0,.05,0,.08-.06.1A1.07,1.07,0,0,1,18.16,22.49Zm.13-.39s0,.06,0,.07.06,0,.06-.06l0-.28s0,0,0,0,0,0,0,0A.93.93,0,0,0,18.29,22.1Z"/><path class="cls-1" d="M17.52,21.92s0,.14,0,.23a.08.08,0,0,0,0,.1c.07,0,0,.09,0,.12a.89.89,0,0,1-.41.15c-.1,0-.15-.06-.1-.15a1.39,1.39,0,0,0,.1-.53.34.34,0,0,0,0-.1c0-.07,0-.1.1-.08a.42.42,0,0,0,.15,0C17.53,21.69,17.54,21.7,17.52,21.92Zm-.32.21c0,.05,0,.1.05.11s.1,0,.11-.09,0-.15,0-.22,0-.1,0-.11a.09.09,0,0,0-.12.07Z"/><path class="cls-1" d="M17.11,24.15l.12,0a.12.12,0,0,1,.09.17,1.72,1.72,0,0,0-.08.38c0,.08,0,.12-.14.11l-.16,0c-.08,0-.12,0-.11-.11a1.93,1.93,0,0,0,0-.48.07.07,0,0,1,0-.08Zm-.13.38s0,0,0,0,0,.1,0,.11a.1.1,0,0,0,.12-.08c0-.07,0-.13,0-.19s0-.11-.05-.12-.11,0-.12.08A.77.77,0,0,0,17,24.53Z"/><path class="cls-1" d="M18.05,24.81s-.07,0-.11,0-.15,0-.14-.1a1.75,1.75,0,0,0,0-.46c0-.06,0-.09.09-.11a1,1,0,0,1,.24,0c.1,0,.13.06.11.16a.69.69,0,0,0,0,.32C18.25,24.78,18.2,24.82,18.05,24.81Zm.06-.43s0-.08,0-.08a.08.08,0,0,0-.1.07h0a.68.68,0,0,0,0,.2s0,.09.06.09.09,0,.09-.08S18.11,24.46,18.11,24.38Z"/><path class="cls-1" d="M19.71,24.81h-.07c-.12,0-.16,0-.13-.14s0-.14,0-.21a.65.65,0,0,0,0-.24.08.08,0,0,1,.09-.1c.06,0,.13,0,.19,0s.14.06.12.13a2,2,0,0,0-.07.43C19.88,24.79,19.85,24.81,19.71,24.81Zm0-.16a.1.1,0,0,0,.11-.08l0-.23s0-.06,0-.07-.07,0-.08.05A.91.91,0,0,0,19.67,24.65Z"/><path class="cls-1" d="M16,24.77a2.59,2.59,0,0,0,0-.48s0-.05,0-.06a.44.44,0,0,1,.15-.05c.12,0,.19.05.16.18s-.05.24-.07.37,0,.12-.14.13h-.06C16,24.88,16,24.86,16,24.77Zm.26-.34s0-.07,0-.08-.05,0-.06.06l0,.22s0,.06,0,.06,0,0,.05,0S16.19,24.5,16.21,24.43Z"/><path class="cls-1" d="M19,24.77c-.06,0-.1,0-.15,0s-.14,0-.12-.11a1.85,1.85,0,0,0,0-.23.41.41,0,0,0,0-.19c0-.11,0-.15.15-.14s.21,0,.18.22a.87.87,0,0,0,0,.28C19.1,24.76,19.09,24.78,19,24.77Zm-.06-.46a.41.41,0,0,0-.07.26.05.05,0,0,0,.1,0A.6.6,0,0,0,18.9,24.31Z"/><path class="cls-1" d="M17.63,21.48a.16.16,0,0,1-.05.08.08.08,0,0,1-.09,0l0-.06c-.06-.1-.14-.09-.19,0s0,.08-.08.08a.09.09,0,0,1-.07-.13c.1-.14.24-.26.41-.09S17.61,21.43,17.63,21.48Z"/><path class="cls-1" d="M16.3,21.4l0,0,0,0c-.07.08-.11.1-.15.06s0-.11,0-.16a.29.29,0,0,1,.16-.11.22.22,0,0,1,.26.17.09.09,0,0,1-.05.09.08.08,0,0,1-.08,0S16.35,21.4,16.3,21.4Z"/><path class="cls-1" d="M18.14,21.45a.45.45,0,0,1,.21-.22s.18.05.22.12a.28.28,0,0,1,0,.09s-.06.08-.08,0-.18-.1-.26,0,0,0-.08,0S18.14,21.47,18.14,21.45Z"/><path class="cls-1" d="M16.48,23.48a.06.06,0,0,1,0,0,.63.63,0,0,1-.24.19s-.07,0-.09,0a.08.08,0,0,1,0-.1,1,1,0,0,1,.18-.17C16.38,23.37,16.48,23.41,16.48,23.48Z"/><path class="cls-1" d="M19.73,21.25c.06,0,.23.14.23.19s0,.07-.06.06a.09.09,0,0,1-.06,0c-.07-.08-.14-.07-.22,0s-.08.05-.11,0a.09.09,0,0,1,0-.11A.93.93,0,0,1,19.73,21.25Z"/><path class="cls-1" d="M19,21.38a.26.26,0,0,0-.09.05c-.05,0-.1.05-.13,0s0-.08.06-.11.21-.1.32,0,.07.08,0,.13-.08,0-.11,0A.14.14,0,0,0,19,21.38Z"/><path class="cls-1" d="M17.31,23.53c0,.08-.15.22-.23.21a0,0,0,0,1,0,0,.2.2,0,0,1,.23-.21A.06.06,0,0,1,17.31,23.53Z"/><path class="cls-1" d="M18.27,23.57c0,.09-.14.22-.21.2A.06.06,0,0,1,18,23.7c0-.05.13-.18.18-.18S18.27,23.52,18.27,23.57Z"/><path class="cls-1" d="M19.05,23.61a.25.25,0,0,1-.19.18c-.05,0-.06,0-.05-.09a.27.27,0,0,1,.13-.15S19.05,23.56,19.05,23.61Z"/><path class="cls-1" d="M19.9,23.64s-.11.11-.16.11a.07.07,0,0,1-.08-.08c0-.05.09-.15.13-.15S19.9,23.6,19.9,23.64Z"/><path class="cls-1" d="M15.69,23.18a.07.07,0,0,1,0-.08,1.28,1.28,0,0,1,.11-.2.06.06,0,0,1,.08,0,0,0,0,0,1,0,.06.69.69,0,0,1-.13.2Z"/><path class="cls-1" d="M18.54,23s0-.08.05-.1.05,0,.05,0,.07.12.07.18,0,0-.08,0S18.54,23,18.54,23Z"/><path class="cls-1" d="M20,23.06s0,.07-.06.07-.1,0-.11-.13,0-.09.07-.1S20,23,20,23.06Z"/><path class="cls-1" d="M16,23c0-.05,0-.07.06-.07s.09.07.09.15,0,.06-.07.07S16,23.08,16,23Z"/><path class="cls-1" d="M16.73,23c0,.05,0,.1-.08.1s-.06,0-.06-.09,0-.11.09-.11S16.73,23,16.73,23Z"/><path class="cls-1" d="M19.33,23s0,.08-.06.08-.09,0-.08-.08,0-.11.07-.11S19.32,23,19.33,23Z"/><path class="cls-1" d="M18,22.94a.07.07,0,0,1-.07.08c-.05,0-.09,0-.08-.08s0-.1.06-.11S18,22.88,18,22.94Z"/><path class="cls-1" d="M17.28,23.05s0,.06-.05.06-.09-.07-.09-.15,0-.06.05-.06S17.28,23,17.28,23.05Z"/><path class="cls-1" d="M14.64,20.16c0,.13,0,.27,0,.41a3.54,3.54,0,0,0,0,.56c0,.06,0,.12.09.14s0,0,0,0a.1.1,0,0,1,0,.09s0,.05-.08,0a.73.73,0,0,0-.33,0s-.07,0-.09,0,0-.06,0-.09.15-.05.15-.14,0-.11-.06-.17a2.26,2.26,0,0,1,.06-.93s0-.05,0-.06a.09.09,0,0,1,.09-.08s0,.05.06.08A.47.47,0,0,1,14.64,20.16Z"/><path class="cls-1" d="M13.92,24.16l-.06.64c0,.08,0,.19-.14.18s-.24-.08-.24-.18v-.17c0-.14,0-.53.12-.63a.17.17,0,0,1,.14,0C13.81,24,13.92,24.07,13.92,24.16Zm-.16.42s0-.08,0-.1a.11.11,0,0,0-.08,0,.23.23,0,0,0,0,.28s.08,0,.09,0S13.75,24.63,13.76,24.58Zm0-.32s0,0,0,0,0,0,0,.06a0,0,0,0,0,0,0S13.74,24.29,13.74,24.26Z"/><path class="cls-1" d="M14.53,24.9h-.06a.07.07,0,0,1-.07-.1,2.6,2.6,0,0,0,.06-.56.23.23,0,0,1,.31-.17.14.14,0,0,1,.05.15,5.17,5.17,0,0,0-.07.55C14.75,24.89,14.7,24.91,14.53,24.9Zm.11-.69c0,.09-.08.14,0,.22A.16.16,0,0,0,14.64,24.21Z"/><path class="cls-1" d="M13.65,22.59a.27.27,0,0,1-.09,0,.11.11,0,0,1-.1-.15,1.12,1.12,0,0,0,.08-.45.23.23,0,0,1,.33-.19.08.08,0,0,1,0,.08c0,.12,0,.24-.05.36a.74.74,0,0,0,0,.21c0,.09,0,.12-.09.14Zm.09-.6a.38.38,0,0,0-.05.28A.41.41,0,0,0,13.74,22Z"/><path class="cls-1" d="M14.32,22.36c0-.15,0-.31,0-.46s0-.12.16-.1h0c.21,0,.21,0,.18.22s0,.24,0,.36,0,.13,0,.17a.62.62,0,0,1-.27.05s-.06,0-.06-.09a.76.76,0,0,1,0-.15Zm.13-.14c0,.05,0,.1.06.1s.07,0,.08-.09a1.1,1.1,0,0,1,0-.18s0-.09,0-.1-.07,0-.08.08Z"/><path class="cls-1" d="M13.38,23.57a1.33,1.33,0,0,1,0-.19.06.06,0,0,1,.09-.05s0,.05,0,.09-.06.11-.05.17,0,.09-.08.09S13.38,23.63,13.38,23.57Z"/><path class="cls-1" d="M13.93,23.46c0,.06,0,.13-.06.19a.05.05,0,0,1-.07,0c-.05,0-.06,0-.05-.08a1.09,1.09,0,0,1,.05-.17s0-.08.08-.07S13.93,23.42,13.93,23.46Z"/><path class="cls-1" d="M13.92,23c-.05,0-.08,0-.06-.09a.38.38,0,0,1,.11-.14.08.08,0,0,1,.12,0s0,.09,0,.12S14,23,13.92,23Z"/><path class="cls-1" d="M14.27,23.52a.5.5,0,0,1,0-.13.09.09,0,0,1,.12,0s0,.06,0,.09,0,.08,0,.12a.09.09,0,0,1-.09.07C14.26,23.61,14.27,23.56,14.27,23.52Z"/><path class="cls-1" d="M14.77,23.56a.58.58,0,0,1,0-.18.07.07,0,0,1,.06,0s.05,0,.05,0a.31.31,0,0,1,0,.19s0,.08-.09.06S14.76,23.6,14.77,23.56Z"/><path class="cls-1" d="M13.49,23c-.05,0-.06,0-.06-.1s.05-.09.12-.08a.09.09,0,0,1,.1.07C13.65,22.93,13.56,23,13.49,23Z"/><path class="cls-1" d="M14.7,22.9a.12.12,0,0,1-.12.1c-.06,0-.07-.06-.07-.12a.13.13,0,0,1,.11-.11A.13.13,0,0,1,14.7,22.9Z"/><path class="cls-1" d="M8.67,19.61h.08c.07,0,.1.06.07.12a.72.72,0,0,0-.08.26.07.07,0,0,1,0,.06.4.4,0,0,1-.32,0,.1.1,0,0,1,0-.14.38.38,0,0,0,0-.15c0-.13,0-.13.16-.14Zm0,.2a0,0,0,0,0,0,0h0a.16.16,0,0,0-.07.16h0c.06,0,0-.07.08-.11S8.66,19.81,8.65,19.81Z"/><path class="cls-1" d="M10,20.14H9.92c-.07,0-.1-.05-.08-.11a1,1,0,0,0,.06-.25c0-.05,0-.08.09-.09h.14c.1,0,.12,0,.09.15a.75.75,0,0,0,0,.16C10.16,20.12,10.13,20.15,10,20.14Z"/><path class="cls-1" d="M12,19c.12,0,.15.05.1.16a1.19,1.19,0,0,1-.08.2.21.21,0,0,1-.3.09.09.09,0,0,1,0-.13.58.58,0,0,0,.05-.14c0-.16,0-.16.2-.17Zm-.14.32h0a.15.15,0,0,0,0-.14s0,0,0,0a.14.14,0,0,0-.06.13S11.84,19.29,11.85,19.29Z"/><path class="cls-1" d="M11.41,20.11c-.06,0-.17,0-.22-.05s0-.14.07-.21l0-.08c0-.14.17-.17.29-.07a.08.08,0,0,1,0,.08.64.64,0,0,0-.05.24C11.54,20.09,11.5,20.11,11.41,20.11Zm0-.23s0,0,0,0,0,0,0,0,0,0,0,0S11.42,19.9,11.42,19.88Z"/><path class="cls-1" d="M7.85,19.3c0-.07,0-.17.06-.27S8,19,8,19s.18-.06.24.05,0,.06,0,.09a.41.41,0,0,0-.08.24c0,.07,0,.1-.1.09l-.11,0C7.87,19.42,7.84,19.39,7.85,19.3Zm.16,0c0-.05.05-.09,0-.13a0,0,0,0,0,0,0,.1.1,0,0,0,0,.1S8,19.28,8,19.3Z"/><path class="cls-1" d="M9.35,19.06H9.4c.13,0,.17,0,.14.17a1.06,1.06,0,0,1-.06.19.07.07,0,0,1-.11,0c-.07,0-.19.06-.22-.05a.45.45,0,0,1,.06-.32C9.23,19,9.3,19.06,9.35,19.06Zm.06.18a0,0,0,0,0-.05,0,.08.08,0,0,0-.07.08s0,0,.05,0S9.4,19.28,9.41,19.24Z"/><path class="cls-1" d="M10.6,19.36c-.13,0-.17-.05-.13-.18a.56.56,0,0,1,0-.12c.06-.13.16-.12.28-.08a.08.08,0,0,1,.05.07c0,.1-.05.17-.09.25S10.66,19.35,10.6,19.36Zm0-.18s0,0,0,0,0,0,0,0,0,0,0,0S10.63,19.18,10.64,19.18Z"/><path class="cls-1" d="M17,19.62c0,.11-.08.22-.11.33s-.29.07-.32,0v0c-.06-.11,0-.21,0-.32s.07-.08.13-.08l.2,0C17,19.53,17,19.55,17,19.62Zm-.16.09a.1.1,0,0,0-.11,0,.08.08,0,0,0,0,.1s0,0,0,0a.08.08,0,0,0,.09,0A.13.13,0,0,0,16.82,19.71Z"/><path class="cls-1" d="M18.06,19.15c-.08,0-.1,0-.1-.11a0,0,0,0,1,0,0c0-.07,0-.18.06-.23a.88.88,0,0,1,.29-.06c.07,0,.1,0,.08.1l0,.1C18.31,19.13,18.27,19.16,18.06,19.15Zm.2-.28a.14.14,0,0,0-.11,0s-.07.08,0,.12.07,0,.11,0A.1.1,0,0,0,18.26,18.87Z"/><path class="cls-1" d="M18.52,20h0c-.08,0-.14,0-.11-.11a1.84,1.84,0,0,0,.05-.25.07.07,0,0,1,.08-.07.38.38,0,0,1,.15,0c.08,0,.1.05.08.12a.38.38,0,0,0,0,.23.07.07,0,0,1-.08.08Z"/><path class="cls-1" d="M17.26,19.16h-.07c-.06,0-.08,0-.07-.09a1.87,1.87,0,0,0,0-.25c0-.07.12-.11.22-.09s.07.06.07.12a.6.6,0,0,0,0,.23s0,.07-.08.08h-.09Z"/><path class="cls-1" d="M16.1,19.21c-.08,0-.11,0-.09-.11s0-.19.07-.29a.13.13,0,0,1,.17-.06.09.09,0,0,1,.06.12,1.31,1.31,0,0,0-.06.27C16.24,19.22,16.15,19.2,16.1,19.21Z"/><path class="cls-1" d="M14.27,14a1.85,1.85,0,0,0,0,.47c0,.12,0,.14-.13.1a.49.49,0,0,0-.17,0q-.11,0-.09-.09c.05-.44,0-.89.11-1.33,0-.07,0-.12.1-.13s.1,0,.12.1a1.66,1.66,0,0,1,.07.49Zm-.16-.7,0,0s0,0,0,0,0,0,0,0Z"/><path class="cls-1" d="M13.88,16a2.78,2.78,0,0,1,0-.58c0-.1.2-.22.27-.09a.39.39,0,0,1,0,.15c0,.36,0,.7,0,1.06,0,.11-.1.1-.19.1s-.14-.11-.14-.26A2.41,2.41,0,0,0,13.88,16Z"/><path class="cls-1" d="M13.29,16.53h.13l.07,0h0c0-.17,0-.34,0-.51s0-.38,0-.58a.11.11,0,0,0-.07-.12c-.31-.08-.21.58-.21.73A1.14,1.14,0,0,0,13.29,16.53Z"/><path class="cls-1" d="M14.62,14c0,.13,0,.27,0,.41h0a.66.66,0,0,0,.2.06.22.22,0,0,0,0-.08,3,3,0,0,1,0-.51,4.46,4.46,0,0,0,0-.51.58.58,0,0,0,0-.19c0-.06-.07-.07-.13,0a.15.15,0,0,0-.06.11,2,2,0,0,0,0,.25Z"/><path class="cls-1" d="M14.63,16.54h.17a.17.17,0,0,0,.06-.14c0-.16,0-.32,0-.48a1.63,1.63,0,0,1,0-.44.38.38,0,0,0,0-.15.08.08,0,0,0-.15,0,.31.31,0,0,0-.07.18,6.69,6.69,0,0,0,0,1A.13.13,0,0,0,14.63,16.54Z"/><path class="cls-1" d="M13.34,14.31a.33.33,0,0,0,0,.17v0l.15,0h0v0c0-.21,0-.42,0-.62h0v-.43a.29.29,0,0,0,0-.18.13.13,0,0,0-.1-.06s-.07,0-.08.08A5.77,5.77,0,0,0,13.34,14.31Z"/><path class="cls-1" d="M14.61,18.55c0,.21,0,.42,0,.63s0,.13-.13.11l-.08,0c-.15,0-.16,0-.15-.2s0-.36,0-.55a5.54,5.54,0,0,1,.07-.57c0-.05,0-.11.07-.12a.12.12,0,0,1,.11.09.35.35,0,0,1,0,.17Zm-.13-.4a.15.15,0,0,0,0,.11c0,.21,0,.41,0,.62V19s0,.07.06.07.05,0,.05-.06a0,0,0,0,0,0,0c0-.18,0-.37,0-.55A.85.85,0,0,0,14.48,18.15Z"/><path class="cls-1" d="M13.6,18s.05,0,.06.06a.77.77,0,0,1,0,.15c0,.25,0,.51,0,.76,0,.07,0,.14,0,.21s0,.11-.06.12-.11.06-.17.08-.08,0-.09-.05l0-.16c0-.19,0-.38,0-.56a3.56,3.56,0,0,1,0-.47A.17.17,0,0,1,13.6,18Zm0,.24a.18.18,0,0,0,0,.14c0,.23,0,.45,0,.68a.29.29,0,0,0,0,.09,0,0,0,0,0,0,0,.06.06,0,0,0,.06,0s0,0,0-.06l0-.81S13.58,18.21,13.55,18.2Z"/><path class="cls-1" d="M20.73,23.84c0,.05,0,.12-.07.12s-.08-.05-.07-.11,0-.13.09-.13S20.74,23.79,20.73,23.84Z"/><path class="cls-1" d="M21,23.88S21,24,21,24a.11.11,0,0,1-.09-.1.09.09,0,0,1,.07-.1S21,23.8,21,23.88Z"/><path class="cls-1" d="M6.38,23.77a.07.07,0,0,1,.07.06.35.35,0,0,1-.1.19.06.06,0,0,1-.08,0c0-.05,0-.1,0-.15S6.32,23.77,6.38,23.77Z"/><path class="cls-1" d="M6.7,23.88a.09.09,0,0,1-.1.1c-.06,0-.08,0-.08-.08a.13.13,0,0,1,.13-.11S6.7,23.84,6.7,23.88Z"/><path class="cls-1" d="M14.12,11.8c0,.09,0,.18,0,.28s0,.08-.07.08-.06,0-.06-.08a2.21,2.21,0,0,1,0-.37v-.06c0-.09.05-.17.11-.16s.07.1.07.16a.75.75,0,0,1,0,.15Z"/><path class="cls-1" d="M6.5,21.58v.22s0,.08-.06.08-.07,0-.08-.08,0-.07,0-.11a1.08,1.08,0,0,0,0-.31c0-.06,0-.11.08-.11s.07.05.08.1v.21Z"/><path class="cls-1" d="M14.86,11.81V12s0,.07-.07.07a.07.07,0,0,1-.06-.07c0-.13,0-.27,0-.41s0-.09.07-.1.05,0,.07.09A.65.65,0,0,1,14.86,11.81Z"/><path class="cls-1" d="M20.84,21.5a.89.89,0,0,1,0,.23.08.08,0,0,1-.09.09c-.05,0-.06-.05-.06-.09a2.26,2.26,0,0,1,0-.45.07.07,0,0,1,.08-.08.08.08,0,0,1,.07.09A1.48,1.48,0,0,0,20.84,21.5Z"/><path class="cls-1" d="M20.52,19.91a1.77,1.77,0,0,1,0-.2.06.06,0,0,1,.08-.05s.09,0,.09.06a.47.47,0,0,1-.07.29s0,.07-.08.06,0-.05-.06-.09S20.52,19.94,20.52,19.91Z"/><path class="cls-1" d="M13.21,11.84a2.62,2.62,0,0,1,0-.28s0-.08.06-.07.07,0,.06.08,0,.31,0,.47a.34.34,0,0,1,0,.1s0,.06-.07,0a.05.05,0,0,1,0-.06v-.29Z"/><path class="cls-1" d="M6.21,20.31a.77.77,0,0,1,0-.15c0-.06.1-.11.14-.09a.11.11,0,0,1,.06.13,1.06,1.06,0,0,1-.06.19.09.09,0,0,1-.11.08c-.06,0-.06-.06,0-.11Z"/><path class="cls-1" d="M13.91,21.28a.21.21,0,0,1,0-.06,1,1,0,0,1,0-.39c0-.22.1-.6,0-.79,0,0,0,0-.06,0s0,0,0,0a.07.07,0,0,0-.06.07.09.09,0,0,0,0,.05l0,.56c0,.05,0,.58,0,.59h-.08s-.11.05-.11.11.08.08.13.07l.32,0C14,21.4,14,21.34,13.91,21.28Z"/><path class="cls-1" d="M14.53,20.89c0-.1-.15-.12-.15,0s0,.25,0,.37.16.07.15,0S14.53,21,14.53,20.89Z"/><path class="cls-1" d="M16.5,22.32s-.12,0-.12-.08a.32.32,0,0,1,0-.14.08.08,0,0,1,0,0c0-.09,0-.19,0-.28s0-.14-.11-.14H16.3c-.13,0-.12,0-.16.12s0,.17,0,.26,0,.21-.13.28a.07.07,0,0,0,0,.1.1.1,0,0,0,.09.05h0c.07,0,.54.07.47-.12Zm-.35-.16a2.41,2.41,0,0,0,.08-.25v0a0,0,0,0,1,0,0v0a0,0,0,0,1,0,0s0,0,0,0,0,0,0,.05a.77.77,0,0,1-.07.28l0,.06A0,0,0,0,1,16.15,22.16Z"/><path class="cls-1" d="M13.69,27.65a.16.16,0,0,0-.16.05.09.09,0,0,0,0,.13.09.09,0,0,0,.12,0h0a.09.09,0,0,0,.11-.07A.1.1,0,0,0,13.69,27.65Z"/></g></g></g></svg>