<svg xmlns="http://www.w3.org/2000/svg" viewBox="0 0 51.37 68.88"><defs><style>.cls-1{fill:#7c4821;}</style></defs><g id="圖層_2" data-name="圖層 2"><g id="event"><g id="deco_gm"><path class="cls-1" d="M37.12,2.61c0,.49,0,1,0,1.48A14.52,14.52,0,0,0,37.33,6c0,.12.09.21.27.25a.4.4,0,0,1,.36.38,2.13,2.13,0,0,0,0,.25c0,.17.16.34.07.53a3.47,3.47,0,0,1,.62.19c.7.37,1.44.73,1.58,1.41.28.33.2.74.41,1.08a4.26,4.26,0,0,1-.2.67,4.49,4.49,0,0,1-.4.7,2.63,2.63,0,0,1-1.4.91l-.7.25a.76.76,0,0,0-.28.16c-.15.12-.17.28.12.34a2.83,2.83,0,0,1,.52.13c.28.09.33.24.22.45a1.14,1.14,0,0,1-.72.46c-.11,0-.11.12,0,.15l.5.17c.26.11.29.36,0,.51a1.67,1.67,0,0,1-.5.19c-.24,0-.29.15-.28.3a11.32,11.32,0,0,1,.08,1.43c0,1.09.05,2.17.1,3.25,0,.77,0,1.55.06,2.32a5.9,5.9,0,0,0,.06.59c0,.29,0,.37-.45.49a3.09,3.09,0,0,1-1.32.1l-1.57-.27c-.21,0-.32-.14-.34-.27a1.36,1.36,0,0,1,0-.45c.06-.47.14-.95.21-1.43.1-.74.24-1.48.28-2.22.06-1,.18-2,.32-3a2.58,2.58,0,0,0,0-.39.38.38,0,0,0-.21-.34c-.41-.25-.37-.53.07-.78l.12-.05c.31-.16.31-.23,0-.36-.07,0-.17-.06-.23-.1-.29-.2-.21-.51.14-.67.14-.07.4-.05.4-.24a.46.46,0,0,0-.31-.47,4.88,4.88,0,0,0-.78-.31,1.73,1.73,0,0,1-1-.65,2.37,2.37,0,0,1-.11-2.85,1.14,1.14,0,0,1,.45-.45,3.51,3.51,0,0,1,1.48-.7c.13,0,.18-.09.17-.18,0-.28,0-.56,0-.84a.36.36,0,0,1,.32-.36c.24,0,.3-.15.3-.29,0-.33,0-.66,0-1,0-.53,0-1.05.06-1.58.07-1,.15-1.94.25-2.92a1.58,1.58,0,0,1,.15-.43A.3.3,0,0,1,36.53,0a.22.22,0,0,1,.15.08,2.63,2.63,0,0,1,.07.49,4.39,4.39,0,0,0,.19,1,5.11,5.11,0,0,1,.14,1ZM37.3,17.8h0l-.09-2.26c0-.33,0-.33-.48-.31l-.5,0a1.93,1.93,0,0,0-.66.13c-.14.1-.1.31-.14.47a.83.83,0,0,0,0,.15,19.44,19.44,0,0,0-.3,2.26c0,.93-.18,1.84-.26,2.76,0,.55-.11,1.09-.16,1.63,0,.33,0,.37.44.45s.69.11,1,.17a2,2,0,0,0,.91,0c.39-.09.41-.1.4-.38,0-.53-.05-1.05-.06-1.58s0-.89,0-1.33C37.4,19.25,37.34,18.52,37.3,17.8ZM37,7.69A6.23,6.23,0,0,0,34.82,8a2.28,2.28,0,0,0-1.34,1,.44.44,0,0,0,0,.23,1.2,1.2,0,0,0,.27,0c.73-.17,1.48-.24,2.22-.37a16.75,16.75,0,0,1,2.83-.18,6.51,6.51,0,0,0,.76-.07.08.08,0,0,0,.06-.08.2.2,0,0,0-.09-.12,2.79,2.79,0,0,0-2.33-.76Zm.88,2.5a9.55,9.55,0,0,0-1.68.22l-.76.13a9.1,9.1,0,0,0-1.82.42.36.36,0,0,0-.19.14c0,.14.23.3.43.28l2-.28A12.26,12.26,0,0,1,37.64,11c.51,0,1,.06,1.54.07.72,0,.84-.05,1-.56a.31.31,0,0,0,0-.1c0-.09,0-.16-.17-.18a3.91,3.91,0,0,0-.48-.05Zm-1.53,1.7L35.14,12a2,2,0,0,0-.34.06.17.17,0,0,0-.1.06.08.08,0,0,0,0,.08l.54.23a.87.87,0,0,1,.58.57c0,.16.16.16.35.14s.38,0,.57,0,.32,0,.35-.19c.06-.33.39-.48.79-.6.22-.06.44-.13.65-.21a.61.61,0,0,0,.14-.1c-.06,0-.11-.07-.17-.07A10,10,0,0,0,36.35,11.89Zm.42-4.48h.75c.06,0,.17-.08.17-.13a1.15,1.15,0,0,0-.21-.75l-.69-.06-.28,0c-.63,0-.81.11-.79.55a3.29,3.29,0,0,0,.05.44h.61ZM36.44,1.7c0,.17,0,.34,0,.52,0,.55-.06,1.11-.07,1.67s0,1.18,0,1.77a2.56,2.56,0,0,0,0,.39c0,.11.14.16.3.14s.22-.06.22-.16a2.57,2.57,0,0,0,0-.68,7,7,0,0,1-.09-1.71A6.77,6.77,0,0,0,36.44,1.7Zm-.3,7.41a3.5,3.5,0,0,0-.37.05c-.55.11-.81.06-.53.57a1.43,1.43,0,0,1,.09.34c0,.15.13.2.34.17l.9-.15c.43-.06.48-.11.41-.4,0-.11,0-.23,0-.34-.06-.3-.12-.32-.54-.27Zm-3,1.2s0,.08,0,.13a.28.28,0,0,0,0,.09c0,.14.07.17.27.13l1.23-.25c.18,0,.24-.1.25-.21a.76.76,0,0,0-.32-.76c-.2-.16-.52.07-.79.1l-.2.05c-.3.1-.51.24-.45.5A.56.56,0,0,1,33.17,10.31ZM39,9.43a.61.61,0,0,1,0-.18c0-.31,0-.27-.37-.29l-.56,0c-.59,0-.77.17-.67.58,0,0,0,0,0,.05.13.39.22.44.81.41C39.12,9.92,39,10,39,9.43Zm.17,2.26a1.06,1.06,0,0,0,.26-.1c.11-.06.09-.17,0-.19a4.86,4.86,0,0,0-.55-.07c-.4,0-.8,0-1.2-.06a12.09,12.09,0,0,0-3.29.31.8.8,0,0,0-.26.09.1.1,0,0,0-.06.08.12.12,0,0,0,.08.05l.36,0a17.38,17.38,0,0,1,3.38-.18C38.29,11.6,38.71,11.65,39.18,11.69Zm-2.56,1.67c-.39.05-.86.11-1.32.19-.07,0-.17.09-.17.13s.08.11.15.15a.82.82,0,0,0,.27.06c.54,0,1.08-.06,1.62-.12a1.48,1.48,0,0,1,.47,0c.28,0,.48,0,.51-.18s-.15-.22-.39-.22Zm.09,1.17-1.36.16a.52.52,0,0,0-.2.06.27.27,0,0,0-.12.16s.06.1.11.11a2,2,0,0,0,.54,0A11,11,0,0,1,37,15a5.67,5.67,0,0,0,.91-.12.16.16,0,0,0,.11-.12s0-.09-.11-.11a.53.53,0,0,0-.19-.06Zm3.41-4.9h.05a5.36,5.36,0,0,0-.28-.53s-.16-.05-.25,0-.11.07-.11.11a5.62,5.62,0,0,0,0,.58c0,.14.17.18.34.2s.24,0,.24-.11A.67.67,0,0,0,40.12,9.63Zm-3.75,4.64h0l.56,0,.09-.06s0,0-.05,0a3.47,3.47,0,0,0-1.16.06.08.08,0,0,0,0,.08.14.14,0,0,0,.11,0Z"/><path class="cls-1" d="M1.79,61.57c0-.29.05-.59.09-.88a.27.27,0,0,1,.28-.25.33.33,0,0,1,.37.24.89.89,0,0,1,0,.28c0,.48-.08,1-.14,1.43,0,.22-.15.31-.37.34s-.34-.09-.32-.26a8.65,8.65,0,0,1,.09-.89Z"/><path class="cls-1" d="M3.47,58.43c0,.25,0,.5-.08.75s-.18.28-.42.27-.35-.12-.33-.35c0-.48.08-1,.16-1.44a.34.34,0,0,1,.51-.29.31.31,0,0,1,.23.37c0,.23-.08.45-.12.68Z"/><path class="cls-1" d="M2,58.39c0,.37-.06.58-.09.78a.26.26,0,0,1-.26.27.32.32,0,0,1-.34-.18.69.69,0,0,1-.07-.39,2.89,2.89,0,0,0,.16-1c0-.13.12-.23.27-.27s.34,0,.34.21S2,58.31,2,58.39Z"/><path class="cls-1" d="M31.6,64.6a16.51,16.51,0,0,1-.81-2.2.14.14,0,0,0,0-.06.41.41,0,0,0-.37-.27,2.81,2.81,0,0,0-.41,0c-.57,0-1.14.1-1.71.13-.81,0-1.61,0-2.42.08H25.1a.23.23,0,0,1-.25-.2,3.88,3.88,0,0,1,0-.48c0-.18.11-.26.32-.24a1.42,1.42,0,0,0,.2,0s.11,0,.12,0a.22.22,0,0,0,0-.18,1.43,1.43,0,0,0-.23-.26,39.14,39.14,0,0,1-3.3-3.63A11.73,11.73,0,0,1,21,56a6.68,6.68,0,0,1-.9-1.93c-.09-.42-.32-.7-.81-.62-.16,0-.26-.07-.26-.25,0-.46,0-.92,0-1.38a.5.5,0,0,1,.24-.47.16.16,0,0,0,.05-.24l-.64-.9c-.13-.18-.33-.2-.45,0a9.93,9.93,0,0,0-.59.94.34.34,0,0,0,.12.52c.07,0,.1.2.1.3,0,.33,0,.65,0,1s-.09.37-.37.38c-.71,0-1.43.05-2.14.06-.06,0-.16,0-.18-.07a1.1,1.1,0,0,1-.12-.39c0-.06.1-.15.18-.19s.17-.19.07-.33l-.35-.52c-.15-.22-.32-.45-.49-.67a.18.18,0,0,0-.33,0,8.15,8.15,0,0,0-.61.84.35.35,0,0,0,.12.53.35.35,0,0,1,.19.39c0,.14,0,.28-.05.42s0,.28-.35.3c-.85,0-1.7.11-2.55.11a.94.94,0,0,0-.91.6l0,.06a7,7,0,0,1-1.23,2,1.15,1.15,0,0,0-.2.36,6.36,6.36,0,0,1-.89,1.56c-.07.1-.2.26-.28.24s-.08-.21-.08-.33a5.23,5.23,0,0,1,0-.56.34.34,0,0,1,.24-.3c.32-.15.32-.17.18-.42a1.87,1.87,0,0,0-.39-.56,3.63,3.63,0,0,1-.79-1A29.09,29.09,0,0,1,4.84,52a2,2,0,0,1-.12-1.09c0-.16.11-.26.26-.27s.42,0,.62-.05c.45,0,.57-.14.63-.57,0-.16,0-.32,0-.48,0-.34-.09-.49-.43-.44a10.06,10.06,0,0,0-1.21.27c-.19.05-.22.23-.23.39,0,.42,0,.83-.08,1.25a4.89,4.89,0,0,1-.26,1.35,6.8,6.8,0,0,1-.73,1.25A9.78,9.78,0,0,1,1.41,55.9C1,56.24.65,56.63.28,57c-.17.16-.15.27.1.45s.13.22.13.36c0,.68,0,1.38-.08,2.07C.36,61.15.27,62.42.19,63.68c0,.26,0,.51,0,.76l-.12,2.7c0,.35,0,.69,0,1s.15.38.4.36.32-.06.48-.06l3.63,0,.3.06a23.72,23.72,0,0,0,3,.16l2.7.07,2.62.08c.28,0,.56,0,.83,0a18.41,18.41,0,0,1,2.35,0h.34c1.66-.06,3.32-.14,5-.21a5.7,5.7,0,0,0,.83,0,40.68,40.68,0,0,1,4.26-.42c1.17-.08,2.35,0,3.52-.23a.77.77,0,0,0,.76-.72c0-.12,0-.24,0-.35a12,12,0,0,1,.09-1.58c0-.18.1-.2.27-.18a.22.22,0,0,0,.26-.24A.9.9,0,0,0,31.6,64.6ZM5.65,49.39a.15.15,0,0,1,.09.1,2,2,0,0,1,0,.34c0,.25,0,.3-.23.3H5.19c-.12,0-.21,0-.25,0a.32.32,0,0,1-.1-.23A.8.8,0,0,1,5.65,49.39Zm17.74,10.2s-.08.09-.13.1c-.32,0-.64,0-1,0a1.91,1.91,0,0,1-.52-.14.12.12,0,0,1-.07-.11.18.18,0,0,1,.08-.09.88.88,0,0,1,.27-.06l.55.06v0c.22,0,.45,0,.67.08C23.33,59.43,23.38,59.53,23.39,59.59Zm-1.58-1.84s.07.09.06.12-.09.12-.13.12l-.81-.08s-.06,0-.09-.07.08-.13.13-.14l.71,0ZM18.24,51c.09-.08.16-.25.32-.16a.38.38,0,0,1,.2.25c0,.15-.15.1-.25.13a.56.56,0,0,1-.18,0s-.12,0-.13-.06A.29.29,0,0,1,18.24,51Zm.35,2.34c0,.25,0,.5-.09.75,0,.05-.13.1-.2.14s-.1-.1-.1-.15c0-.35,0-.69,0-1s.05-.73.08-1.1a.84.84,0,0,1,.09-.25s.09-.07.11-.06.12.08.12.12c0,.46,0,.92,0,1.37a1.49,1.49,0,0,1,0,.21Zm-4-.49a1.24,1.24,0,0,1,0,.27c0,1,0,2,0,3,0,.09,0,.18,0,.2,0,.21,0,.35-.06.49a.32.32,0,0,1-.16.18.33.33,0,0,1-.25-.07.47.47,0,0,1-.17-.43c0-.85,0-1.71,0-2.56,0-.34.1-.68.14-1,0-.09,0-.19.13-.19S14.56,52.66,14.62,52.81Zm-.6-.87.07-.11c.07-.1.15-.17.26,0l.19.27s0,.1,0,.12-.08,0-.12,0H14.1C14,52.15,13.93,52.09,14,51.94Zm-3.43,2.32a.81.81,0,0,1,.27,0L13.34,54c.22,0,.29,0,.29.26,0,.81,0,1.62,0,2.42s0,.74.74.72c.4,0,.53-.12.56-.54,0-.74.08-1.48.07-2.22s0-.79.78-.84c.55,0,1.11-.06,1.66-.08.21,0,.29,0,.33.26V54c0,.18,0,.39.17.5a.93.93,0,0,0,.73.07c.19,0,.24-.22.26-.38s0-.34.24-.36a.46.46,0,0,1,.52.27,1.12,1.12,0,0,1,.08.26A6.15,6.15,0,0,0,21.23,57c.15.15.11.22-.14.29a3.27,3.27,0,0,0-.53.17.39.39,0,0,0-.24.38c0,.15.05.29.21.31a6.54,6.54,0,0,0,.89.06,1.92,1.92,0,0,0,.41-.05.53.53,0,0,1,.5.17c.16.19.33.37.5.56,0,0,0,0,0,.06s-.07.08-.1.08L22,59a2.79,2.79,0,0,0-.4.07c-.16,0-.33.07-.36.27a.49.49,0,0,0,.19.49.82.82,0,0,0,.37.16,2.92,2.92,0,0,0,1.44,0,.62.62,0,0,1,.78.23c.15.17.32.33.47.51s.25.23.22.31-.26.07-.4.08c-1.08.08-2.16,0-3.24.2a4.24,4.24,0,0,1-.61,0l-2.76.11c-.55,0-1.1,0-1.65,0l-1,0a.64.64,0,0,1-.62-.33c-.4-.59-.87-1.14-1.28-1.72s-.86-1.25-1.3-1.87a1.06,1.06,0,0,0-.23-.19h0a.66.66,0,0,0,.12.56c.19.29.37.57.55.87a3.17,3.17,0,0,1,.17.37l-.45.08h-.06a2.16,2.16,0,0,1-.58-.16c-.2-.11-.07-.34-.07-.51,0-.34,0-.68,0-1s.16-.23.32-.19v0l0,0c0-.09.06-.18,0-.25-.13-.32-.28-.63-.42-.94s-.16-.49.28-.5l.9-.05a.76.76,0,0,0,.26-.06.46.46,0,0,0,.29-.43.33.33,0,0,0-.26-.37,3.17,3.17,0,0,0-.81-.12c-.37,0-.73,0-1.1.07a.44.44,0,0,1-.2,0,.37.37,0,0,1-.12-.23A.26.26,0,0,1,10.59,54.26Zm.21,6.14c-.15.18-.3.35-.46.52a.78.78,0,0,1-.19.12c0-.06-.09-.11-.09-.16,0-.27,0-.55,0-.82s0-.31.23-.36h.13c.31,0,.62-.16.92,0Zm.7-.15a.11.11,0,0,1,.12,0s.06.06.06.09,0,.33,0,.42,0,.2,0,.27a.24.24,0,0,1-.23.22h-.6c-.07-.25.15-.35.25-.51A4.6,4.6,0,0,1,11.5,60.25ZM10,59.33l-.27.05c-.32,0-.42,0-.43-.35s0-.64,0-1c0-.53,0-.53.5-.58.35,0,.39,0,.44.34s.06.78.1,1.16A.35.35,0,0,1,10,59.33Zm-.59,1.3s.08,0,.09,0,0,.17,0,.25,0,.2-.05.28a.32.32,0,0,1-.49.16s-.06-.08,0-.1C9.12,61.06,9.28,60.84,9.45,60.63Zm1.82,1a.74.74,0,0,1,.21,0,9.92,9.92,0,0,0,2.11,0c.11,0,.18,0,.16.15s-.08.14-.12.14L12.19,62l-1.32.07c-1.14.08-2.29.18-3.43.25-.28,0-.56,0-.73,0l-.45,0a.3.3,0,0,1-.1-.07s.06-.07.09-.08L7,62ZM12.2,60a1.48,1.48,0,0,0,0-.21.27.27,0,0,1,.38-.25.55.55,0,0,1,.31.73.21.21,0,0,1,0,.06c-.18.21-.32.48-.64.55l0-.74S12.2,60,12.2,60Zm1.22,1.28a2.8,2.8,0,0,1-.41,0,.53.53,0,0,1-.19,0c-.05,0-.1-.13-.08-.15a5.69,5.69,0,0,1,.33-.52c.11-.15.18-.14.32,0a2.83,2.83,0,0,1,.24.25,3.65,3.65,0,0,1,.18.34A2.91,2.91,0,0,1,13.42,61.28ZM11,55.46l-.06,0a.67.67,0,0,1-.1-.23c0-.05.07-.12.13-.14a.75.75,0,0,1,.26,0L12,55l.37.1s.06.06.06.09a.16.16,0,0,1-.08.1l-1.21.17A.34.34,0,0,1,11,55.46Zm-1.08-.28c.06-.1.17-.08.23,0,.21.35.42.71.62,1.07.05.09,0,.17-.11.21a.33.33,0,0,1-.13,0H9.32s-.08-.12-.06-.16C9.48,56,9.71,55.57,9.94,55.18ZM9.12,57c.61-.1,1.22-.2,1.83-.28a.21.21,0,0,1,.24.22.42.42,0,0,1-.14.09l-1.22.13-.69,0s-.07,0-.11-.06S9.08,57,9.12,57Zm-.63,3c.23,0,.45-.06.68-.07s.17.08.1.17c-.25.36-.5.71-.76,1.06a.12.12,0,0,1-.21,0c-.05-.27-.09-.53-.11-.64C8.21,60.08,8.29,60,8.49,60Zm-1.13-.6c.2-.28.41-.54.62-.81a.16.16,0,0,1,.12,0,.17.17,0,0,1,0,.12c0,.23-.05.46-.07.68s-.05.32-.3.36a1.22,1.22,0,0,1-.27,0,1.17,1.17,0,0,1-.26,0A1.18,1.18,0,0,1,7.36,59.35Zm.07,1.27c.07-.09.19-.22.25-.2s.06.22.08.34a3.57,3.57,0,0,1,0,.47c0,.24-.07.32-.32.35H7l-.22-.06a.48.48,0,0,1,.07-.18C7,61.1,7.22,60.86,7.43,60.62Zm-.31-.41a.5.5,0,0,1,0,.13A3.17,3.17,0,0,1,5.85,61.4H5.79s0,0-.06,0,0-.05,0-.05c.41-.38.6-1,1.22-1.15C7,60.16,7.06,60.2,7.12,60.21ZM4.37,60c0-.55,0-1.11,0-1.66h0c0-.3.06-.6.1-.89s.1-.35.34-.34c.55,0,1.1.11,1.65.17a.27.27,0,0,1,.24.29c0,.5,0,1,.07,1.51a.76.76,0,0,1-.19.63c-.43.53-.85,1.08-1.27,1.62a1.53,1.53,0,0,0-.13.16.26.26,0,0,0,.21.4c.24,0,.33.11.33.33,0,.51,0,1-.07,1.52a.35.35,0,0,1-.33.38c-.22,0-.44.11-.67.16s-.45,0-.45-.35c0-.5,0-1,.07-1.52A17.6,17.6,0,0,0,4.37,60Zm0-5.55h0L4.55,53c0-.09,0-.27.14-.25s.17.15.2.24A14.66,14.66,0,0,0,6,55.32a6.56,6.56,0,0,0,1,1.4.16.16,0,0,1,0,.12.16.16,0,0,1-.1.08.22.22,0,0,1-.14,0,8.32,8.32,0,0,0-2.17-.26c-.29,0-.31,0-.33-.32s0-.37,0-.55Zm-3.22,2.3a3.59,3.59,0,0,1,.32-.36,9.24,9.24,0,0,0,1.67-1.91c.26-.38.55-.74.82-1.1a.15.15,0,0,1,.13,0,.11.11,0,0,1,0,.09c-.2.88-.15,1.79-.27,2.68,0,.35-.06.37-.41.43l-2.2.4a.45.45,0,0,1-.14-.07S1.17,56.74,1.19,56.71ZM2.81,67.94c0,.06-.11.12-.17.17s0,0-.07,0c-.92,0-.94.15-.87-.85,0-.15,0-.32.05-.47h0c.06-.36.11-.73.18-1.08a1.7,1.7,0,0,1,.18-.44.24.24,0,0,1,.41,0,2,2,0,0,1,.26.55A7.6,7.6,0,0,1,2.81,67.94Zm2.88.16c0,.15-.1.19-.23.18l-1.94-.1c-.3,0-.33-.05-.33-.38l0-1.18a2.92,2.92,0,0,0-.34-1.47,1.62,1.62,0,0,0-.1-.18.58.58,0,0,0-1,.1,5,5,0,0,0-.29,1.07c-.07.45-.09.92-.13,1.38,0,.16,0,.32-.05.48a.19.19,0,0,1-.25.17A1.82,1.82,0,0,1,.62,68a.26.26,0,0,1-.14-.2,3.37,3.37,0,0,1,0-.55,14.08,14.08,0,0,0,.06-2.34,14.24,14.24,0,0,1,0-1.46H.64c.06-1.36.13-2.72.19-4.08l.09-1.8a.31.31,0,0,1,.29-.33c.62,0,1.21-.31,1.84-.31.2,0,.41-.07.56.14,0,0,.18,0,.26,0s.24.1.23.25c0,.55-.07,1.1-.1,1.65,0,.28,0,.56,0,.84A20.22,20.22,0,0,1,3.86,63c0,.39,0,.78-.06,1.17s.08.42.46.45a3,3,0,0,0,1.08-.16c.18-.06.26,0,.27.19q.09,1.45.15,2.91A3.33,3.33,0,0,1,5.69,68.1Zm.38-2.87a2.39,2.39,0,0,1,0-1,1.42,1.42,0,0,0,0-.41c0-.23,0-.46,0-.69s0-.39.39-.43l1-.07,3.86-.28,2.07-.13c.21,0,.3.05.31.26,0,.74,0,1.48,0,2.14v.22c0,.31-.09.36-.37.37a27.84,27.84,0,0,0-3,0,.79.79,0,0,1-.34,0c-.13,0,0-.08,0-.09a.23.23,0,0,0,.19-.25c0-.6,0-1.19-.07-1.79A.26.26,0,0,0,10,63a1.17,1.17,0,0,0-.41,0,.39.39,0,0,0-.36.36,1.32,1.32,0,0,0,0,.48c.09.46-.13.92,0,1.37,0,0-.07.1-.12.11-.34,0-.69.07-1,.08-.57,0-1.15,0-1.72.08A.22.22,0,0,1,6.07,65.23Zm.11,2.08c0-.16,0-.32,0-.53l.25-.24a.19.19,0,0,1,.13,0l.54,0c0,.23-.15.31-.25.44a4.47,4.47,0,0,1-.44.43C6.27,67.48,6.19,67.44,6.18,67.31Zm1.23.32c0,.25,0,.42-.07.57a.23.23,0,0,1-.14.13l-.88,0c0-.31.28-.43.4-.66a.43.43,0,0,1,.14-.16c.15-.13.26-.42.46-.34S7.39,67.52,7.41,67.63Zm.88.74c-.39,0-.53,0-.43-.45,0-.15,0-.31,0-.47h0a.66.66,0,0,1,0-.14c.09-1,0-.83.84-.81l.34,0c.22,0,.45-.08.64.1a2.37,2.37,0,0,1-.31.59,7.28,7.28,0,0,0-.84,1.08A.36.36,0,0,1,8.29,68.37Zm1.93,0c-.23,0-.46,0-.69,0v0l-.34,0a.12.12,0,0,1,0-.21l1.06-1.34a.26.26,0,0,1,.18-.07s.07.11.08.17c0,.41,0,.82,0,1.24A.25.25,0,0,1,10.22,68.41Zm.89,0a.13.13,0,0,1-.09.07.18.18,0,0,1-.1-.09.46.46,0,0,1-.05-.2c0-.48,0-1,0-1.44,0-.25.08-.31.34-.33h.61c.17.06.42-.09.49.12s-.12.28-.21.4c-.24.31-.5.6-.73.92A4.58,4.58,0,0,0,11.11,68.4Zm1.83,0c-.18.25-.51.07-.77.09a2.32,2.32,0,0,1-.53,0,.71.71,0,0,1,.2-.55l1-1.37s.12,0,.17,0,.06.07.06.11c0,.34.06.67.08,1A2.54,2.54,0,0,1,12.94,68.39Zm-.14-2.34c-1.13,0-2.25,0-3.38.06-.71,0-1.42,0-2.13,0-.28,0-.55,0-.84,0l-.19,0,0,0s0-.09.06-.09l.47-.08c.69-.06,1.38-.13,2.06-.17s1.52-.13,2.28-.12a15.7,15.7,0,0,0,2.47-.09c.12,0,.23.13.22.3a.19.19,0,0,1-.21.21C13.31,66,13.05,66.05,12.8,66.05Zm.88,2.39a.14.14,0,0,1-.19-.13c0-.37,0-.73,0-1.1h0s0-.09,0-.13c0-.54.08-.72.19-.64s.09.42.1.64c0,.4,0,.82,0,1.23C13.8,68.35,13.73,68.42,13.68,68.44Zm.44-3.61c0-.78,0-1.57,0-2.35h0c0-.14,0-.27,0-.41s.07-.21.22-.22l3-.11,2.42-.1,2.21-.09,1.66-.07h.41c.13,0,.24.06.25.19.06.72.25.67-.54.76l-3.5.38c-.39,0-.78.1-1.17.11a.93.93,0,0,0-.73.33c-.27.28-.56.54-.84.82s-.74.74-1.13,1.11a.39.39,0,0,1-.24.09l-1.73-.05C14.25,65.2,14.12,65.15,14.12,64.83Zm.22.79c.32,0,.64-.06,1-.05.49,0,1,.06,1.45.1.11,0,.23,0,.25.18s-.11.2-.3.21h-.27l-1-.1v0l-1,0c-.05,0-.11,0-.14,0a.55.55,0,0,1-.15-.19S14.29,65.62,14.34,65.62Zm2.59,1.89c0,.21,0,.42-.07.62s-.07.36-.37.36h-2c-.23,0-.31-.06-.31-.27,0-.53,0-1.06,0-1.58a.26.26,0,0,1,.3-.3c.76,0,1.51,0,2.27.06a.19.19,0,0,1,.2.23c0,.29-.06.59-.09.89ZM17.28,65a2.73,2.73,0,0,1,.23-.25c.33-.36.66-.71,1-1.06a1.89,1.89,0,0,1,1.35-.57c.46,0,.92-.07,1.38-.11,1.38-.11,2.75-.23,4.13-.32,1.12-.07,2.25-.11,3.41-.16h.1a.14.14,0,0,1,.1.21c-.3.67-.62,1.34-.93,2a.38.38,0,0,1-.38.24c-.68,0-1.38.11-2.07.12s-1.19,0-1.79,0a2,2,0,0,0-.55,0,7,7,0,0,1-1.58.06c-.69,0-1.38,0-2.07,0l-1.17,0-1,0a.34.34,0,0,1-.16-.1A.18.18,0,0,1,17.28,65Zm10,.79c0,.37-.09.73-.15,1.1a4.11,4.11,0,0,0-.07.47c0,.43,0,.44-.44.48L24.26,68c-.57,0-1.14.15-1.71.19-.95.07-1.89.12-2.83.16-.55,0-1.11,0-1.66.05a2.84,2.84,0,0,1-.41,0c-.31,0-.39-.07-.39-.36l0-1.59h0c0-.23,0-.46.07-.69a.28.28,0,0,1,.28-.25c.86,0,1.71-.09,2.56-.08a22.9,22.9,0,0,0,3.1,0,5.15,5.15,0,0,1,1.11,0,14.66,14.66,0,0,0,2.48,0C27.21,65.38,27.29,65.46,27.26,65.77Zm3.33,1.47c0,.29-.09.34-.31.37a12,12,0,0,1-2.47.12c-.25,0-.3-.07-.29-.35s.06-.6.1-.9h0c0-.27,0-.55.09-.82a.3.3,0,0,1,.31-.3c.6,0,1.2-.06,1.79-.09H30c.2,0,.47-.09.6,0s.06.47,0,.71C30.65,66.42,30.62,66.83,30.59,67.24Zm.34-2.49a6,6,0,0,1-.61.12l-1.47,0-.18,0c-.13,0-.18-.11-.13-.25s0,0,0-.06c.27-.59.57-1.16.8-1.76A.63.63,0,0,1,30,62.4c.35,0,.4,0,.5.31l.57,1.84C31.09,64.66,31,64.72,30.93,64.75Z"/><path class="cls-1" d="M20,56.32a3.19,3.19,0,0,0-.61-.08,3.9,3.9,0,0,0-1.62.28.32.32,0,0,0-.23.3.35.35,0,0,0,.24.32c.19.06.4.09.7.15s.78,0,1.21-.06a1,1,0,0,0,.49-.22A.39.39,0,0,0,20,56.32Zm0,.62-1.18,0a1.14,1.14,0,0,1-.25,0,.1.1,0,0,1-.09-.08s0-.09.06-.09a3.12,3.12,0,0,1,.67-.11,5.27,5.27,0,0,1,.81.12s.06.07.06.09S20,56.94,19.93,56.94Z"/><path class="cls-1" d="M17.89,59.06a.59.59,0,0,0-.63-.51,4.39,4.39,0,0,0-1.69.24.31.31,0,0,0-.23.31.44.44,0,0,0,.26.44l.48.1,1.56-.17A.3.3,0,0,0,17.89,59.06Zm-.53.12a8.65,8.65,0,0,1-.89.09,3.37,3.37,0,0,1-.55,0s-.07-.06-.07-.09,0-.07.07-.1L16,59l1.11-.14a2.25,2.25,0,0,1,.25.06l.11.13A.16.16,0,0,1,17.36,59.18Z"/><path class="cls-1" d="M20.44,59.77a.78.78,0,0,0-.33-.09c-.43,0-.86,0-1.3,0a1.28,1.28,0,0,0-.45.16.47.47,0,0,0-.24.46.21.21,0,0,0,.19.24l.35.06,1.49-.14a.69.69,0,0,0,.31-.12A.33.33,0,0,0,20.44,59.77Zm-.31.47-.13,0H18.73l-.09,0s-.05,0-.05,0,0-.09.05-.11a.27.27,0,0,1,.12-.06c.45,0,.91,0,1.36,0,0,0,.09,0,.08.08A.17.17,0,0,1,20.13,60.24Z"/><path class="cls-1" d="M18.61,66.32c0-.13.14-.23.45-.22s.4,0,.48.43.1.63.13,1a.25.25,0,0,1-.22.29,3.94,3.94,0,0,1-.47.1.31.31,0,0,1-.37-.3C18.6,67.2,18.61,66.84,18.61,66.32Z"/><path class="cls-1" d="M21.66,67.42a.31.31,0,0,1-.28.34,1.93,1.93,0,0,1-.41.06.24.24,0,0,1-.28-.23c0-.43-.06-.86-.07-1.29a.27.27,0,0,1,.32-.28.91.91,0,0,1,.33,0c.09,0,.21.14.22.22C21.56,66.65,21.6,67,21.66,67.42Z"/><path class="cls-1" d="M23.11,66c.36,0,.4.09.49.46a5.35,5.35,0,0,1,.11.68c0,.29-.12.41-.41.44H23c-.24,0-.34-.16-.34-.41s0-.55,0-.83S22.76,65.93,23.11,66Z"/><path class="cls-1" d="M25.13,66c.07.06.23.12.26.22a7.47,7.47,0,0,1,.24.93.23.23,0,0,1-.2.3c-.82.18-.9.15-.9-.67,0-.11,0-.23,0-.34C24.54,66,24.69,66,25.13,66Z"/><path class="cls-1" d="M15.72,63.48a6.38,6.38,0,0,1,0-.64c0-.29.1-.36.38-.36s.48.1.49.35a11.28,11.28,0,0,1,0,1.3.55.55,0,0,1-.85.32.35.35,0,0,1-.1-.24,2.84,2.84,0,0,1,0-.41C15.69,63.67,15.71,63.53,15.72,63.48Z"/><path class="cls-1" d="M12.86,64.64s-.09.13-.16.15c-.29.08-.58.14-.87.2s-.25,0-.26-.23,0-.41,0-.62a8.64,8.64,0,0,0,0-.88.41.41,0,0,1,.29-.48,1.18,1.18,0,0,1,.74-.05.32.32,0,0,1,.26.29C12.83,63.55,12.84,64.07,12.86,64.64Z"/><path class="cls-1" d="M7,63.51c0-.06.07-.24.18-.32a.71.71,0,0,1,.72,0,.28.28,0,0,1,.12.16c0,.52,0,1,0,1.57a.29.29,0,0,1-.25.29,3.54,3.54,0,0,1-.47.07A.33.33,0,0,1,7,64.91C7,64.48,7,64,7,63.51Z"/><path class="cls-1" d="M28.76,66.44c0-.23,0-.32,0-.41,0-.37.15-.47.52-.46s.44.13.46.47,0,.46,0,.68a.42.42,0,0,1-.36.5,1.35,1.35,0,0,1-.4.08.23.23,0,0,1-.27-.24C28.75,66.81,28.76,66.56,28.76,66.44Z"/><path class="cls-1" d="M36.4,26.79c.2,0,.37-.15.35-.48a2.35,2.35,0,0,0-.24-.48.37.37,0,0,0-.32-.06.56.56,0,0,0-.33.51A.69.69,0,0,0,36.4,26.79Z"/><path class="cls-1" d="M51.12,44.24c-.17-.24-.37-.46-.53-.71a2.3,2.3,0,0,1-.23-.53,6.82,6.82,0,0,1-.15-1.69,30.76,30.76,0,0,1-.21-4.5.85.85,0,0,0-.54-1,.73.73,0,0,1-.44-.77c0-1.16,0-2.32,0-3.48a8.92,8.92,0,0,0,0-1.55,2.11,2.11,0,0,0-.79-1.45l-.86-.7A.92.92,0,0,1,47,27c.06-.37.12-.73.17-1.09a.41.41,0,0,0-.32-.5.4.4,0,0,0-.45.28.5.5,0,0,0,.06.56c.18.17.12.35.07.54a2.27,2.27,0,0,1-1.1,1.35,5.68,5.68,0,0,0-1.06.9,2.32,2.32,0,0,0-.62,2.38,2.42,2.42,0,0,1,0,.66c0,.42-.1.84-.07,1.25a14.17,14.17,0,0,1,0,2.06,1.11,1.11,0,0,1-.27.67c-.24.31-.47.63-.7.95a.67.67,0,0,0-.1.34c0,1,0,1.93,0,2.89,0,.37,0,.74,0,1.11s-.08.34-.36.35-.74,0-1.11,0v0c-.39,0-.79,0-1.18-.05-.57-.06-.57-.07-.57-.61,0-.32,0-.65,0-1,.06-1.2,0-2.41-.05-3.62a.8.8,0,0,0-.17-.62,2.11,2.11,0,0,1-.52-1.78c0-.52.06-1,.08-1.56a3.9,3.9,0,0,1,.14-1,2.13,2.13,0,0,0-.55-2.25,4.81,4.81,0,0,0-.75-.6c-.53-.37-1-.74-1.06-1.48a.58.58,0,0,0-.07-.21c0-.07-.21-.09-.25,0a.69.69,0,0,0-.1.19,2,2,0,0,1-1.07,1.26,6.57,6.57,0,0,0-1.22.83,2.09,2.09,0,0,0-.79,2.1,2.18,2.18,0,0,0,.22.62,1.33,1.33,0,0,1,.16.78c-.05.59-.09,1.19-.13,1.78a1.33,1.33,0,0,1-.26.68,2.84,2.84,0,0,0-.5,1.88c0,1.21.12,2.41.06,3.62,0,.74,0,1.48,0,2.22a1.42,1.42,0,0,1-.55,1.3,3.06,3.06,0,0,0-.3.32,1.2,1.2,0,0,0-.39.7c0,.57-.09,1.13-.13,1.7a1.64,1.64,0,0,0,0,.44c.07.3.19.39.52.4.52,0,1,0,1.55.07a6.91,6.91,0,0,0,1.76,0h.15A15.35,15.35,0,0,1,38.5,48h.22c.56,0,.61,0,.61-.54,0-.18,0-.35,0-.52,0-1,0-1,1.06-1.1s2-.16,3-.25c.41,0,.46,0,.57.29s.33.57.75.49a1,1,0,0,1,.29,0,3.34,3.34,0,0,0,1.18,0c.69-.06,1.38-.07,2.07-.13s1.57-.15,2.35-.24a.62.62,0,0,0,.39-.18A1.2,1.2,0,0,0,51.12,44.24ZM50,44.48a1.38,1.38,0,0,1,.12-.34c.09-.19.26-.22.39-.06a2.79,2.79,0,0,1,.2.31c-.06.06-.09.13-.15.15a2.58,2.58,0,0,1-.42.12C50,44.68,49.93,44.57,50,44.48ZM49.22,36a.71.71,0,0,1,.42.71c0,.55,0,1.09,0,1.63,0,.78.13,1.57.18,2.35s.1,1.42.14,2.13c0,.32,0,.42-.35.45a11.87,11.87,0,0,1-2,.21c-.29,0-.36-.07-.36-.36,0-1.08,0-2.17,0-3.3,0-.84,0-1.72-.08-2.61a2.76,2.76,0,0,0-.47-1.67c-.14-.18-.05-.35.17-.35.52,0,1,0,1.55,0,.08,0,.21.08.22.15A.9.9,0,0,0,49.22,36Zm-1.89,8.8c-.16.23-.39.14-.57.16l-.33,0c-.12,0-.18-.11-.1-.2l.42-.51a.14.14,0,0,1,.24,0l0,.06Zm-.87-10.06v0H44.61c-.51,0-.52,0-.51-.56,0-.72,0-1.43,0-2.15,0-.26.09-.37.33-.41a3.59,3.59,0,0,1,.73-.05,18,18,0,0,1,3,.28.94.94,0,0,0,.29,0c.12,0,.19,0,.19.14,0,.89,0,1.78,0,2.67,0,.15-.1.2-.24.19Zm1.38-3.66c0-.36.12-.72.18-1.12s-.11-.65-.17-1a1,1,0,0,1,0-.14s.11,0,.14.05a1.52,1.52,0,0,1,.58,1c0,.25.1.49.11.73a1.63,1.63,0,0,1-.08.58.47.47,0,0,1-.73.16A.32.32,0,0,1,47.84,31.12Zm-1.18-2.87c.07-.12.2-.12.28,0a4.4,4.4,0,0,0,.33.65,2.36,2.36,0,0,1,.38,1.27c-.08.3-.14.61-.24.91a.29.29,0,0,1-.34.2c-.29,0-.59-.08-.88-.12a.32.32,0,0,1-.28-.3,2.9,2.9,0,0,1,0-.51A5,5,0,0,1,46.66,28.25Zm-2.58,2.37a2.69,2.69,0,0,1,1.24-1.9,5.09,5.09,0,0,1,.74-.46.09.09,0,0,1,.07,0,.11.11,0,0,1,0,.06,1.76,1.76,0,0,0-.09.2c-.14.36-.28.73-.4,1.1a2,2,0,0,0-.11,1.15c.08.25-.09.39-.38.39a2.85,2.85,0,0,0-.29,0,.56.56,0,0,0-.17,0l-.12,0C44,31.19,44.06,31.19,44.08,30.62ZM39,36.27a4.13,4.13,0,0,1,.06,1.17v1.63h0v2.3c0,.12,0,.24,0,.37a.33.33,0,0,0,.34.32h.37c.39,0,.79,0,1.18.06a4.16,4.16,0,0,0,1.32-.07.75.75,0,0,0,.66-.75c0-.47,0-.94,0-1.4,0-.74,0-1.48,0-2.22a1.49,1.49,0,0,1,.55-1.1,1.41,1.41,0,0,0,.56-1.06.3.3,0,0,1,.34-.3c.32,0,.64,0,1,0s.54,0,.81.06a8,8,0,0,1,.49.91,3.36,3.36,0,0,1,.15.94c.05,1.26.07,2.52.08,3.77,0,.76,0,1.52-.05,2.29,0,.3,0,.33-.35.36-.61.06-1.22.11-1.84.15s-1.18.07-1.77.07c-.91,0-1.82,0-2.73,0-.34,0-.68,0-1,.05a1,1,0,0,1-.29,0,13.36,13.36,0,0,0-2.36-.1c-.31,0-.32,0-.38-.34a2.14,2.14,0,0,1-.07-.43c.06-1.49-.27-2.94-.34-4.42,0-.69-.1-1.38-.09-2.07a3.6,3.6,0,0,1,.25-1c0-.05.11-.1.17-.11.69-.05,1.37-.1,2.06-.13.1,0,.22.1.29.18A3,3,0,0,1,39,36.27ZM35.5,45.38c-.15,0-.23-.13-.16-.24a2,2,0,0,1,.21-.3c.12-.13.07-.45.33-.41.11,0,.17.27.25.42a.61.61,0,0,1,.09.28.27.27,0,0,1-.14.2,2.27,2.27,0,0,1-.5.05ZM33.94,35c-.15,0-.21-.08-.22-.22v-.07c0-.69.06-1.38.1-2.07,0-.3.11-.37.42-.37H36v.06c.72,0,1.43-.07,2.14-.12.18,0,.21.1.21.22,0,.32,0,.64,0,1s0,.73,0,1.1a.28.28,0,0,1-.27.3,3.77,3.77,0,0,1-.58,0,10.17,10.17,0,0,1-1.83,0A7.35,7.35,0,0,1,33.94,35Zm3.31-6.08.66.45A1.7,1.7,0,0,1,38.63,31a.78.78,0,0,1-.9.76.16.16,0,0,1-.16-.19c0-.12,0-.24,0-.21a3.53,3.53,0,0,0-.2-1.67C37.33,29.45,37.1,29.21,37.25,28.9Zm-1-.14a.29.29,0,0,1,.24,0,8.24,8.24,0,0,1,.72,1.86.75.75,0,0,1,0,.21l-.15.87-.63.11h-.45c-.36,0-.52-.14-.55-.47A3.64,3.64,0,0,1,36.3,28.76Zm-2.88,2.33a1.9,1.9,0,0,1,.67-1.57,16.45,16.45,0,0,1,1.66-1.1.23.23,0,0,1,.14,0c.11.06,0,.13,0,.18a4.7,4.7,0,0,0-.77,2.87c0,.31,0,.32-.32.34H34.2C33.61,31.81,33.43,31.65,33.42,31.09Zm-.52,5.69a1.38,1.38,0,0,1,.12-.72c.17-.34.35-.61.82-.59a13.2,13.2,0,0,0,1.4-.11c.16,0,.23.09.15.24A2.45,2.45,0,0,0,35.23,37c.12,1.3.22,2.61.31,3.91.05.67.06,1.33.09,2a1.62,1.62,0,0,1,0,.22c0,.29-.11.37-.43.38H34.6c-.35,0-.7,0-1,0-.61,0-.63,0-.65-.63s0-1.52,0-2.29h0c0-.61.06-1.23.06-1.85S32.93,37.44,32.9,36.78Zm-1,8.3a2.18,2.18,0,0,1,.26-.34c.18-.19.31-.17.46,0a3.87,3.87,0,0,1,.27.43.13.13,0,0,1,0,.12.21.21,0,0,1-.13,0l-.19,0c-.31,0-.46,0-.6-.08S31.85,45.17,31.91,45.08Zm1.24,1.54c0,.08,0,.23,0,.37,0,.34-.13.4-.49.37a5.67,5.67,0,0,0-.58,0c-.33,0-.42,0-.42-.33s0-.63.06-.95a.27.27,0,0,1,.3-.25,5.93,5.93,0,0,1,.73,0c.32,0,.42.15.43.48C33.15,46.36,33.15,46.46,33.15,46.62Zm1.6-.9a12.94,12.94,0,0,1,.07,1.39c0,.25-.06.29-.31.31h-.22c-.86,0-.86,0-.81-.78,0-.31,0-.63,0-1a.75.75,0,0,0-.14-.48c-.17-.27-.31-.55-.46-.84s-.11-.37.24-.4a5.62,5.62,0,0,1,.58,0h1.62c.12,0,.19.1.13.2A6,6,0,0,1,35,45,1,1,0,0,0,34.75,45.72Zm1.67.75v.14c0,.77-.24.94-1,.78a.33.33,0,0,1-.18-.2c-.06-.36-.1-.72-.14-1.09a.29.29,0,0,1,.29-.34,2.83,2.83,0,0,1,.29,0c.7,0,.74,0,.74.72Zm9.34-.68c0,.2,0,.27-.21.25s-.64-.06-1-.12a.64.64,0,0,1-.29-.18,3.4,3.4,0,0,1-.23-.3.76.76,0,0,0-1-.29,3.46,3.46,0,0,1-1,.17l-2.28.13-.52,0c-.25,0-.3.14-.28.41a1.39,1.39,0,0,1,0,.5c-.11.35.09.75-.17,1.07l-1.1-.07-.22,0c-.76-.15-.75,0-.7-.78a3.49,3.49,0,0,1,0-1c0-.09-.06-.22-.1-.33-.11-.3-.23-.59-.34-.89a.16.16,0,0,1,.14-.22c.29,0,.59,0,.88,0l3.78,0v0c1.28,0,2.56,0,3.85,0,.37,0,.73-.06,1.1-.09a.76.76,0,0,1,.21,0c0,.08,0,.2-.1.24A1.39,1.39,0,0,0,45.76,45.79Zm1.58.1a2.35,2.35,0,0,1-.37,0h-.23l-.36,0a.15.15,0,0,1-.18-.17.69.69,0,0,1,.12-.31s.13,0,.21,0l.72-.09c.13,0,.26-.07.33.07A.39.39,0,0,1,47.34,45.89Zm1.91-.47c.09.26,0,.33-.27.42l-.22,0h-.52c-.17,0-.28-.07-.29-.25a.81.81,0,0,1,0-.22,1,1,0,0,0-.4-1,.7.7,0,0,1-.17-.24c-.08-.12,0-.23.13-.25l2.12-.27c.18,0,.23.07.16.22a1.93,1.93,0,0,1-.3.59A.83.83,0,0,0,49.25,45.42Zm1.41.16a5.4,5.4,0,0,1-.67.18c-.08-.08-.19-.15-.22-.25s-.06-.3.13-.36l.57-.14c.11,0,.24-.09.32.05S50.79,45.54,50.66,45.58Z"/><path class="cls-1" d="M45.15,40.86c.1,0,.2,0,.3,0a.29.29,0,0,0,.27-.29c0-.4,0-.79,0-1.18h0a8.85,8.85,0,0,0,0-1,2.94,2.94,0,0,0-.35-1.48c-.09-.13-.09-.38-.3-.34s-.2.2-.25.33a3.52,3.52,0,0,0-.22.62A11,11,0,0,0,44.27,40C44.28,40.87,44.13,40.91,45.15,40.86Zm-.38-2.33a3.61,3.61,0,0,1,.35-1.32,14.71,14.71,0,0,1,.17,2.93.29.29,0,0,1-.28.29c-.17,0-.32,0-.31-.21C44.71,39.66,44.71,39.09,44.77,38.53Z"/><path class="cls-1" d="M37.51,40.1A4.18,4.18,0,0,0,38,40a.28.28,0,0,0,.25-.31c0-.27-.06-.54-.07-.81a6.16,6.16,0,0,0-.58-2.35.2.2,0,0,0-.15-.12.31.31,0,0,0-.18.12,1.16,1.16,0,0,0-.16.4c-.1.58-.24,2.29-.23,2.56C36.94,40.14,37.06,40.15,37.51,40.1Zm-.22-1.62c0-.26,0-.61.06-.95,0,0,.07-.07.11-.08s.1,0,.11.06a8,8,0,0,1,.19,1.9.17.17,0,0,1,0,.07c-.06.06-.13.17-.2.17a.24.24,0,0,1-.21-.14,1.54,1.54,0,0,1-.05-.43C37.28,38.9,37.29,38.73,37.29,38.48Z"/><path class="cls-1" d="M37.84,41.05a1,1,0,0,0-1,1.11,1.31,1.31,0,0,0,.13.5.83.83,0,0,0,.93.26.79.79,0,0,0,.61-.66,3.2,3.2,0,0,0-.13-.86A.5.5,0,0,0,37.84,41.05Zm.07,1.48c0,.07-.27,0-.41,0s-.28-.15-.27-.37,0-.29.07-.43a.45.45,0,0,1,.46-.29c.18,0,.29.09.37.29A.8.8,0,0,1,37.91,42.53Z"/><path class="cls-1" d="M48.47,37a3,3,0,0,0-.16.48c-.1.54-.19,1.07-.26,1.61-.06.39-.09.78-.14,1.17H48a5.8,5.8,0,0,0,0,.59.29.29,0,0,0,.36.28,1.34,1.34,0,0,1,.72,0,.32.32,0,0,0,.22-.15.75.75,0,0,0,.08-.41c-.05-.47-.12-.93-.2-1.39-.13-.7-.27-1.4-.41-2.09,0-.05-.09-.1-.15-.13S48.48,37,48.47,37Zm.21,1.86c.08.44.16.87.22,1.18s0,.33,0,.43a.26.26,0,0,1-.29.26c-.19,0-.29-.06-.31-.23a.89.89,0,0,1,0-.23l.18-1.39a.16.16,0,0,1,.1-.08A.13.13,0,0,1,48.68,38.86Z"/><path class="cls-1" d="M33.79,39.16c0,.17,0,.34,0,.51,0,.5.17.63.64.54a2.29,2.29,0,0,0,.28-.08.3.3,0,0,0,.28-.36l-.12-1.92a2.45,2.45,0,0,0-.36-1c-.07-.11-.14-.11-.24-.06a1,1,0,0,0-.48,1C33.83,38.24,33.77,38.7,33.79,39.16ZM34.21,38a3,3,0,0,1,.06-.43.15.15,0,0,1,.1-.09s.08,0,.09.07c0,.44.11.88.14,1.32a4.45,4.45,0,0,1,0,.73c0,.07-.11.18-.18.18s-.16-.1-.19-.17a.94.94,0,0,1,0-.29c0-.22,0-.44,0-.51C34.23,38.43,34.21,38.21,34.21,38Z"/><path class="cls-1" d="M34.13,42.71l.07,0a1,1,0,0,0,1-1,.14.14,0,0,0,0-.07,1.34,1.34,0,0,0-.8-.58.73.73,0,0,0-.75.57C33.53,42.18,33.71,42.59,34.13,42.71Zm0-1a.36.36,0,0,1,.41-.22c.1,0,.18.13.23.18a.63.63,0,0,1-.37.62.22.22,0,0,1-.19-.05A.42.42,0,0,1,34.15,41.7Z"/><path class="cls-1" d="M45.59,32.63c0-.16-.34-.36-.45-.3a.93.93,0,0,0-.29.3.47.47,0,0,0-.1.27c0,.42,0,.84,0,1.25s.08.52.5.34c.13-.06.32,0,.39-.14s0-.27,0-.41,0-.39.06-.67S45.65,32.87,45.59,32.63Z"/><path class="cls-1" d="M47,33.53c0-.11,0-.38-.06-.65a2.86,2.86,0,0,0-.1-.42.3.3,0,0,0-.34-.22.39.39,0,0,0-.22.25c0,.54,0,1.08,0,1.62a.23.23,0,0,0,.24.23c.36,0,.52,0,.49-.43Z"/><path class="cls-1" d="M47.82,32.31s-.13.08-.14.13c-.09.43-.19.86-.25,1.3a.53.53,0,0,0,.28.49.32.32,0,0,0,.51-.21c0-.14,0-.29.06-.55s-.12-.66-.22-1C48.05,32.37,47.91,32.32,47.82,32.31Z"/><path class="cls-1" d="M34.94,32.87c-.1-.12-.23-.23-.38-.16a.41.41,0,0,0-.21.26,10.53,10.53,0,0,0-.1,1.24c0,.34.14.44.46.35s.31-.13.33-.4,0-.3,0-.44A1.1,1.1,0,0,0,34.94,32.87Z"/><path class="cls-1" d="M36.35,34.14a1.85,1.85,0,0,0-.06-1.23.31.31,0,0,0-.23-.16.53.53,0,0,0-.31.15.46.46,0,0,0-.1.27c0,.17,0,.34,0,.52h0v.37c0,.13,0,.24.19.26S36.32,34.29,36.35,34.14Z"/><path class="cls-1" d="M37.59,34.36c.2,0,.29-.1.31-.33s0-.19,0-.32a1.14,1.14,0,0,0-.15-.82c0-.08-.13-.17-.21-.17a.29.29,0,0,0-.23.13,1.81,1.81,0,0,0-.17,1.21A.41.41,0,0,0,37.59,34.36Z"/></g></g></g></svg>