<svg xmlns="http://www.w3.org/2000/svg" viewBox="0 0 104.23 98.24"><defs><style>.cls-1{fill:#7c4821;}</style></defs><g id="圖層_2" data-name="圖層 2"><g id="event"><g id="deco_sp"><path class="cls-1" d="M102,96l-1.08,1.48c-.11.16-.26.3-.48.21a.73.73,0,0,0-.56,0,3.47,3.47,0,0,1-2.61,0,.77.77,0,0,0-.54,0,9,9,0,0,1-2.42.43,9.73,9.73,0,0,0-1.2.11.74.74,0,0,1-.82-.52.63.63,0,0,0-.7-.41,2.17,2.17,0,0,0-1.14.34l-.29.17a1.84,1.84,0,0,0-1.66-.57,3.52,3.52,0,0,0-1.76.18c-.14.08-.27,0-.33-.15s-.06-.21-.09-.3c-.25-.11-.49-.21-.73-.33a.9.9,0,0,1-.33-.25,5.85,5.85,0,0,1-1-2c-.1-.39-.23-.77-.35-1.16a.63.63,0,0,1,0-.09c.13-.15.38-.29.39-.45a4,4,0,0,0-.11-1,1.74,1.74,0,0,0-.16-.34.23.23,0,0,1,.13-.34c.35-.14.45-.46.55-.78a2.05,2.05,0,0,0,0-1.34,1.86,1.86,0,0,1-.1-.25c-.15-.39-.15-.39.17-.65l.33-.26c0-.74,0-1.51,0-2.28,0-.08,0-.21,0-.25.32-.3.14-.65.12-1a10.67,10.67,0,0,0-1-4.09,23.44,23.44,0,0,0-1.6-3,17.48,17.48,0,0,0-1.58-1.88.34.34,0,0,0-.17-.08c-.36-.13-.42-.22-.32-.57a1.18,1.18,0,0,1,.64-.79,2.31,2.31,0,0,1,2.08,0c.2.11.41.2.68.32-.18-1.45-.35-2.85.51-4.18-.22,0-.37-.06-.51-.1s-.46-.14-.69-.22a1.54,1.54,0,0,1-.35-2.54c.32-.32.32-.32.35-.84l-.83,0c-.57,0-1.37-.46-1.37-1a5.38,5.38,0,0,0-.37-1.31c0-.09-.08-.19,0-.26a1.56,1.56,0,0,0-.25-1.24A1.29,1.29,0,0,1,80.74,61a1,1,0,0,1,1-.22,1.54,1.54,0,0,0,.71-.06c.52-.13,1.07-.17,1.61-.25a1.14,1.14,0,0,1,.19,0c.18-.39.35-.73.51-1.07a.78.78,0,0,0,.07-.25A2,2,0,0,1,87,57.28a10.53,10.53,0,0,1,1.19.13,1,1,0,0,0,.16-.39,6.34,6.34,0,0,1,.29-1.36,2,2,0,0,1,.89-1.23l.21.33a2.08,2.08,0,0,1,1.83-.19,13.69,13.69,0,0,0,1.82.19c1,.09,2.06.13,3.07.26a3.77,3.77,0,0,1,1.81.92c.32.27.65.54,1,.84a5.07,5.07,0,0,1,.65.74A16.61,16.61,0,0,1,102,62.13c.19.67.24,1.35.4,2,0,.13.06.27.11.4a.46.46,0,0,1-.11.56,2.51,2.51,0,0,0-.7.91c-.08.31.12.69.17,1a15.25,15.25,0,0,0,1,2.93c.15.45.34.88.46,1.34.18.64,0,.88-.59,1.13l-.87.3c.11.36.19.7.31,1,.31.9.64,1.81,1,2.71.19.52.42,1,.65,1.54a.66.66,0,0,1-.16.85,4.77,4.77,0,0,1-.6.51.62.62,0,0,0-.33.74c.15.56.25,1.13.37,1.72-.25.26-.27.29-.07.61s.34.53.51.8c0,.07-.07.15-.12.18-.24.17-.2.37-.1.6q.26.58.48,1.17c0,.1.06.29,0,.33-.23.19-.16.42-.11.63.09.39.22.78.34,1.16a.84.84,0,0,1,0,.47A3.66,3.66,0,0,0,104,89a6.64,6.64,0,0,0,.23.93l-.4.21c0,.63.08,1.24.13,1.89l-.35.13.11,1.66-.6.15c-.05.58-.11,1.18-.17,1.81-.29.2-.72-.17-1,.18a1.36,1.36,0,0,0-.18-.34c-.39-.35-.79-.68-1.2-1a5.67,5.67,0,0,1-1.13.19,6.35,6.35,0,0,1-1.26-.27,1.9,1.9,0,0,1-2.72-.81c-1.1.06-1.57-.18-2.61-1.35l0,.65.32.09a1.55,1.55,0,0,0,.47,1c.34.4.73.14,1.12,0,.16.36,0,.78.44,1a.9.9,0,0,0,1.06-.07,4.8,4.8,0,0,0,.3.52.8.8,0,0,0,.34.32,1.79,1.79,0,0,0,1.71-.06,4,4,0,0,1,.5-.23c.09.27.15.51.23.74a1.38,1.38,0,0,0,.93.93.44.44,0,0,0,.54-.18,11.36,11.36,0,0,1,.77-.92A2,2,0,0,1,102,96Zm-9.7-19.15.46-.28a1.35,1.35,0,0,1,.12.12A2,2,0,0,0,95,77.3c.18-.07.36-.16.34-.4,0-.47-.06-.93-.09-1.43A2,2,0,0,1,93.09,75a2.36,2.36,0,0,1-2,.92c0,.25,0,.44,0,.63.06.5.2.62.68.49a2,2,0,0,0,.48-.26ZM90,55.05a3.42,3.42,0,0,0,.18.54c.06.12.23.19.28.31a2.51,2.51,0,0,1,.17.55c.09.35.16.71.26,1.07a8.42,8.42,0,0,1,.18,3.8A14.38,14.38,0,0,1,89.23,66c-.77,1.29-1.64,2.53-2.5,3.76a10.82,10.82,0,0,0-1.44,2.86,7.07,7.07,0,0,0-.18,3.42q.11.67.24,1.35c.11.54.24,1.07.37,1.68.14-.13.23-.19.3-.27a8.58,8.58,0,0,1,2.34-1.66c.46-.24,1-.43,1.44-.63s.43-.19.4-.63-.13-1.14-.18-1.72a17.54,17.54,0,0,1-.12-1.77,13,13,0,0,1,.8-4.31c.74-2,1.44-4.06,2.17-6.09a8.5,8.5,0,0,0,.64-3.48c0-.21,0-.42,0-.63a6.49,6.49,0,0,0-1.13-2.51,2,2,0,0,0-1.54-.66A.86.86,0,0,0,90,55.05Zm-8.42,9.79c.34-.11.71-.24,1.1-.34A16.12,16.12,0,0,1,84.76,64a2.18,2.18,0,0,1,1.79.35,1.42,1.42,0,0,1,.51,1.36,1,1,0,0,1-.92.93A2.06,2.06,0,0,1,83.91,66a.7.7,0,0,0-.18-.13A1.37,1.37,0,0,0,83.52,67a1.83,1.83,0,0,0-.83,1.14A1.11,1.11,0,0,0,83,69.28a3.61,3.61,0,0,0,1,.51.59.59,0,0,0,.8-.28,2.7,2.7,0,0,1,.25-.34C86,68,87,66.9,87.87,65.74a15.15,15.15,0,0,0,2.42-4.34,9.59,9.59,0,0,0,.41-3.1.55.55,0,0,0-.14-.37,1.54,1.54,0,0,0-2.37.43c-.09.18-.14.39-.24.57s-.23.46-.4.51a3.06,3.06,0,0,0-1.24.85,1.55,1.55,0,0,1-1.14.46c-.42,0-.84,0-1.26,0a3.47,3.47,0,0,0-1.82.42,1.55,1.55,0,0,0-.43.38,3.56,3.56,0,0,0-.73,1.82A1.24,1.24,0,0,0,81.53,64.84Zm8.79,18.22a1.48,1.48,0,0,0-1.59-1.91c-.24,0-.37.15-.37.42a8.81,8.81,0,0,1-.68,3,1.24,1.24,0,0,1-.14.18h-.11c0-.2-.05-.4,0-.6,0-.59.1-1.19.12-1.78a3.09,3.09,0,0,0-.29-1.69,1.69,1.69,0,0,0-1.34-1.05c-.22,0-.27-.17-.33-.34-.26-.65-.5-1.3-.79-1.94a4.43,4.43,0,0,0-1.33-1.73,2.12,2.12,0,0,0-2.19-.5,13.55,13.55,0,0,1,2.26,3.09c.45.9.9,1.78,1.28,2.7a11.63,11.63,0,0,1,.85,4,.74.74,0,0,0,.14.43c.2.29.44.57.7.91.93-.06,1.31.63,1.57,1.42l.57.09A3.75,3.75,0,0,1,91,86a2.61,2.61,0,0,1,2.57,1.25,1.52,1.52,0,0,0-.87-2,3.68,3.68,0,0,0-2.32,0,1.81,1.81,0,0,0-1.2.87,5.66,5.66,0,0,1-.34.49c0-.15-.07-.2-.06-.25a.35.35,0,0,1,0-.2,2.93,2.93,0,0,1,1.73-1.45c.24-.05.47-.14.71-.17.53-.07,1.06-.11,1.6-.16a1.16,1.16,0,0,0-1-.87c-.36,0-.73,0-1.1-.06a2.16,2.16,0,0,0-2.14,1.15c-.07.12-.17.23-.29.41C88.22,84.16,89.05,83.33,90.32,83.06ZM92.4,54.91a5,5,0,0,0,.5.67,6.18,6.18,0,0,1,1.8,3.7,7.68,7.68,0,0,1,0,2.62c-.08.45-.18.89-.23,1.34a27.26,27.26,0,0,1-1,4.09,13.28,13.28,0,0,0-.58,4.56,5.07,5.07,0,0,0,.14.76,1.72,1.72,0,0,0,.35,0c.49,0,1-.06,1.46-.09s.49-.07.48-.55c0-.21,0-.42,0-.63,0-.89-.1-1.78-.06-2.67s.17-1.53.27-2.29l.42-3.18a7.4,7.4,0,0,0,.12-.93c0-1,0-2,0-3a6,6,0,0,0-.67-2.89,2.27,2.27,0,0,0-1.48-1.31C93.47,55,93,55,92.4,54.91Zm4.19.86c.16.4.26.71.39,1A6.45,6.45,0,0,1,97.33,59c.06,1.06.09,2.13.13,3.2,0,.56,0,1.12.05,1.68s.09,1.32.13,2c0,.31,0,.63,0,.94.12,1.07.26,2.15.41,3.22a1.81,1.81,0,0,0,.39,1.11,12.78,12.78,0,0,1,3.9-1.62c0-.18-.09-.33-.14-.47a12.88,12.88,0,0,1-.69-2.37.82.82,0,0,0-.41-.63c-.23-.12-.41-.33-.63-.47a7.9,7.9,0,0,0-1.19-.75.83.83,0,0,1-.57-.79c0-.54,0-1.08-.11-1.62a12.88,12.88,0,0,0-.44-3.32c-.25-.65-.41-1.34-.67-2A3.27,3.27,0,0,0,96.59,55.77ZM90.82,73.85c.56-.29,1.06-.56,1.58-.81a.48.48,0,0,0,.31-.58A14.5,14.5,0,0,1,92.62,71a12.29,12.29,0,0,1,.64-3.61,47.18,47.18,0,0,0,1.16-5.11,11.83,11.83,0,0,0,.14-1.46,7.49,7.49,0,0,0-.74-3.61,4.54,4.54,0,0,0-.3-.53.3.3,0,0,0,0,.27,6.36,6.36,0,0,1,.29,1.12A10,10,0,0,1,93.33,62a39.7,39.7,0,0,0-1.57,5c-.1.51-.31,1-.44,1.51a22.21,22.21,0,0,0-.58,4A10.23,10.23,0,0,0,90.82,73.85Zm4.86-1.69a14.93,14.93,0,0,0,0,5A21.66,21.66,0,0,0,98,76.76c.76-.11,1.53-.11,2.29-.16-.46-1.54-.91-3-1.37-4.55-.27,0-.53,0-.79.06a.43.43,0,0,1-.54-.36,2.47,2.47,0,0,0-.16-.39ZM91.87,97a1,1,0,0,1,.63-1.16,1.58,1.58,0,0,1,.22-2.28,2.36,2.36,0,0,1,.11-1.86.81.81,0,0,1,.56-.52c.53,1,1,1,2.24.39,0,0,.08.07.1.11.41.78.73.79,1.41.54a7.43,7.43,0,0,0,1-.56,1.8,1.8,0,0,0,1.32,1.38,1.63,1.63,0,0,0,1.85-.64,2,2,0,0,0,2.19,1.19,11.6,11.6,0,0,1-.07-1.28.86.86,0,0,0-.49-.84,3.9,3.9,0,0,1-1.94.45c-.75-.12-1.12-.71-1.51-1.24-1.14.62-2.28,1-3.46-.32a1.86,1.86,0,0,1-2.41.13.58.58,0,0,0-.8.32,1.76,1.76,0,0,1-.37.49,4.06,4.06,0,0,1-.57.35l.41.66a1.6,1.6,0,0,0-1.12,1.08A1.52,1.52,0,0,0,91.38,95a1.56,1.56,0,0,0-1.14,1,2.67,2.67,0,0,0-.16,1.48Zm11.6-6.84A3.07,3.07,0,0,1,101.11,89c-.51.14-1,.28-1.52.4a2.09,2.09,0,0,1-2.19-.66c-.08-.09-.17-.16-.24-.23-1.67.82-2.36.52-3-.31A2.88,2.88,0,0,0,94.4,88a1.82,1.82,0,0,0,0-2.74,3.19,3.19,0,0,0-2.79-.54,3.33,3.33,0,0,0,.55.1,2,2,0,0,1,1.76,2.48,1.11,1.11,0,0,0,0,.72,2.29,2.29,0,0,1-.12,1.83l-.18.36a1.31,1.31,0,0,0,1,.46A1.62,1.62,0,0,0,96,89.93l.28.36a1.48,1.48,0,0,0,1.52.72,3.19,3.19,0,0,0,1.28-.43l.36-.2a9.82,9.82,0,0,0,.67.87,1.49,1.49,0,0,0,1.58.41c.43-.15.83-.35,1.26-.54a1.31,1.31,0,0,0,.72.63C103.62,91.19,103.55,90.7,103.47,90.17ZM99.09,78.8c.38.65.6,1.3,1.34,1.44a1.79,1.79,0,0,0,1.79-.47,3.24,3.24,0,0,0-1.43-.91c-.28-.09-.58-.15-.86-.24-.89-.31-1.78-.64-2.68-.92A4.68,4.68,0,0,0,96,77.51a4.55,4.55,0,0,0-1.32.12,1.39,1.39,0,0,1-.78-.06c-.43-.15-.84-.37-1.29-.58a1.85,1.85,0,0,1-1.11.38c-.12,0-.29,0-.34.09-.3.49-.83.54-1.31.69l-1.37.43a1.17,1.17,0,0,0,.81.38c.52,0,.78-.39,1.14-.67.13.18.22.35.34.5a1.25,1.25,0,0,0,1.56.52,3.36,3.36,0,0,0,.78-.53c.28-.23.35-.24.6,0l.14.16a.84.84,0,0,0,1.28.13l.35-.23a1.79,1.79,0,0,0,1.79,1A2.22,2.22,0,0,0,99.09,78.8Zm-2.18,3.07c.26.36.35.82.78,1a1.55,1.55,0,0,0,1.28,0,8.41,8.41,0,0,0,1.14-.65l.18.24a2.48,2.48,0,0,0,2.16,1.08.84.84,0,0,0,.68-.32,4,4,0,0,1-.3-.51,1.57,1.57,0,0,0-1-1,4.49,4.49,0,0,1-1.1-.82,2.22,2.22,0,0,1-1.34.48,1.43,1.43,0,0,1-1.33-.67,2.18,2.18,0,0,1-3.19-.4,2.11,2.11,0,0,1-1.41.6,1.35,1.35,0,0,1-1.33-.65c-.22.15-.4.29-.6.4a6.54,6.54,0,0,1-.6.28c.17.36.33.72.5,1.06a1.22,1.22,0,0,0,1.34.7A1.83,1.83,0,0,0,94,82l.22-.28c.19.24.33.47.51.66a.86.86,0,0,0,1.26.18A12,12,0,0,0,96.91,81.87Zm.46-10.82c-.1-.31-.2-.53-.25-.77-.12-.6-.22-1.2-.34-1.8a11.32,11.32,0,0,1-.18-3c.15-2,.29-4,.4-6A8.42,8.42,0,0,0,96.86,57a2.58,2.58,0,0,0-.73-1.37,1.57,1.57,0,0,0-1.43-.56c0,.06,0,.11,0,.12a4.42,4.42,0,0,1,1.46,3.1,28.17,28.17,0,0,1,.08,3.05c0,.69-.11,1.39-.17,2.08,0,.18-.08.34-.1.52-.18,1.52-.37,3.05-.51,4.58a14.9,14.9,0,0,0,0,1.89c0,.46.1.91.16,1.46ZM95.23,86.83c0,.66-.37,1-.76,1.49,1,.82,1.83.37,2.66-.12,0,0,.06,0,.07,0l.13.15a2,2,0,0,0,2.19.79c.44-.11.87-.26,1.31-.39l.31-.12c.91,1.09,1.91,1.48,2.73,1.07-.09-.61-.18-1.22-.27-1.87a2.72,2.72,0,0,1-2.3-.91,2.53,2.53,0,0,1-1.76.35,2.94,2.94,0,0,1-1.39-1A3.3,3.3,0,0,1,95.23,86.83Zm2.88-.91a2.64,2.64,0,0,0,1.5,1.15,2.12,2.12,0,0,0,1.74-.51c.79,1,1.64,1.29,2.38.93-.16-.59-.32-1.18-.47-1.78a2.21,2.21,0,0,1-1.31-.85,2.2,2.2,0,0,1-3.35-.55,2.77,2.77,0,0,1-1.23.59,1.63,1.63,0,0,1-1.69-.58l-1.17.24-.32.1c.06.09.09.22.18.28a1.67,1.67,0,0,1,.74,1.16c.07.45.36.6.77.63A2.5,2.5,0,0,0,98.11,85.92ZM98,92.12a2.39,2.39,0,0,1-1.29.46.81.81,0,0,1-.79-.29c-.29-.35-.31-.34-.75-.15a1.47,1.47,0,0,1-1.74-.43s-.09-.08-.16-.15c-.26.52,0,.87.3,1.17a1.72,1.72,0,0,0,2.1.53,1.21,1.21,0,0,0,1,1.19c.57.09,1.16.22,1.57-.4.8.84,1.62.51,2.47.11a2,2,0,0,0,2,1.38c.09-.57.17-1.11.25-1.64a2.4,2.4,0,0,1-1.66-1.05C100,93.81,98.78,93.35,98,92.12ZM84.7,74.61c0-.09,0-.17,0-.25a.76.76,0,0,0,0-.21,8.45,8.45,0,0,1,1.46-4.06,32.37,32.37,0,0,1,1.89-2.78,17.32,17.32,0,0,0,2.45-5.13,4.23,4.23,0,0,0,.25-2,15.41,15.41,0,0,1-1.17,3.13,21.66,21.66,0,0,1-2.2,3.26c-.35.47-.74.93-1.11,1.39s-.81,1-1.2,1.46a1.43,1.43,0,0,0-.1.44c-.32,0-.46.33-.59.63a5.27,5.27,0,0,0-.27,3.39C84.25,74.2,84.32,74.53,84.7,74.61Zm13-18.69a12.39,12.39,0,0,1,1.47,3.86,17.51,17.51,0,0,1,.45,4.14l2.49.32a10,10,0,0,0-.18-1.32,18.16,18.16,0,0,0-1.76-4.48A7.44,7.44,0,0,0,97.74,55.92ZM93,83a2.65,2.65,0,0,1,1.2,1.25,3.71,3.71,0,0,0,.82,0,3.08,3.08,0,0,0,.7-.4c.59,1.17,1.68,1.15,2.88,0a8.55,8.55,0,0,0,.82,1.06c.37.35.88.23,1.35.26s.82-.33,1.23-.6a1.37,1.37,0,0,0,1.57.81l-.75-1.55a2.82,2.82,0,0,1-2.76-1.2,2.85,2.85,0,0,1-1.66.68,1.22,1.22,0,0,1-1.2-.51l-.35-.45c-.47.27-.83.68-1.4.71s-.9-.45-1.22-.77Zm.35-4.1a2.34,2.34,0,0,1-1.56.75,1.91,1.91,0,0,1-1.42-.94,1.48,1.48,0,0,1-2.24-.06l-1,.38a7.19,7.19,0,0,1,.67.52,5.42,5.42,0,0,1,.42.64l.48-.15a1.71,1.71,0,0,1,1.63.29.89.89,0,0,0,1.28,0c.17-.13.33-.29.54-.47a1.31,1.31,0,0,0,1.3.84,2,2,0,0,0,1.45-.79c.46.53.82,1.06,1.58,1.08a1.61,1.61,0,0,0,1.61-.85c.15.28.22.58.41.73a1.26,1.26,0,0,0,.82.28c.48,0,1,0,1.29-.66-.85,0-1.14-.63-1.52-1.17-1.45,1.27-2.83,1-3.74,0C94.49,79.79,94.24,79.72,93.35,78.93ZM86.29,96.68c.19-.94.63-1.62,1.7-1.6a2.06,2.06,0,0,1,.34-1.52A2.17,2.17,0,0,1,89.75,93c0-.83.6-1.25,1.22-1.65a.53.53,0,0,0-.25,0,2.16,2.16,0,0,1-.87,0c-.53-.19-.8.08-1,.43a6.6,6.6,0,0,0-.36.64,1.32,1.32,0,0,0-1.87.86,2.06,2.06,0,0,0-2-.28c-.32.1-.39.27-.28.6s.11.36.16.55a5.42,5.42,0,0,0,.77,1.88A1.49,1.49,0,0,0,86.29,96.68Zm17.16-18.49.09-.08a2.17,2.17,0,0,0-.07-.24c-.55-1.45-1.13-2.9-1.66-4.36-.32-.86-.29-.86-1.15-1.17l-.15,0a3.72,3.72,0,0,0-1.3-.15,28.61,28.61,0,0,0,1.22,4.1,1.2,1.2,0,0,0,.73.7,9,9,0,0,1,1,.52C102.62,77.69,103,78,103.45,78.19ZM90.07,93.44a2.16,2.16,0,0,1-.26-.08,1.11,1.11,0,0,0-1.57,1,8.11,8.11,0,0,0,.06,1,1.53,1.53,0,0,0-1.4.4,1.69,1.69,0,0,0-.34,1.44,8.72,8.72,0,0,1,3.14,0c.07-.33.18-.65.22-1A1.77,1.77,0,0,1,90.64,95l.29-.22a2.27,2.27,0,0,1,0-1.74l-.57-.66.08-.08.62.44.68-.56c-.15-.64-.4-.65-.87-.48a1.2,1.2,0,0,0-.86,1.34C90.06,93.16,90.06,93.26,90.07,93.44ZM97.22,60.6h-.06c-.12,1.62-.22,3.24-.35,4.86a12.13,12.13,0,0,0,.32,3.85c.2.83.51,1.63.79,2.51a3.4,3.4,0,0,0,.82-.1c.7-.22,1.38-.5,2.08-.72a2.32,2.32,0,0,1,1.84.11l.37.17c-.15-.43-.24-.77-.38-1.08s-.3-.45-.7-.33a10.13,10.13,0,0,0-1.44.48c-.58.26-1.12.58-1.68.86s-.75.13-.85-.43a.34.34,0,0,1,0-.1l-.42-3.12c0-.33-.14-.66-.16-1,0-1.15-.08-2.31-.12-3.46C97.25,62.28,97.24,61.44,97.22,60.6ZM86.58,89.12l-.11,0a4,4,0,0,0,0-.49c0-.4-.29-.74-.63-.7a2.39,2.39,0,0,0-.73.23c-.22.08-.25.26-.2.48a2.9,2.9,0,0,1,.14.76c0,.46-.1.92-.17,1.42a1.74,1.74,0,0,1,1.54.63c.54-.59,1.11-.79,1.71-.23l.93-.56L89,90l-.44.2c-.13.07-.23.24-.44.11a2,2,0,0,0,0-.24,4.06,4.06,0,0,0,0-.78.74.74,0,0,0-1.28-.4Zm15.79-9.6c.42-.3.89-.47,1.13-1-.7-.41-1.37-.86-2.08-1.22a3.5,3.5,0,0,0-1.39-.42A6.25,6.25,0,0,0,97,77.3a3.4,3.4,0,0,0,.34.16l2.12.74A6.94,6.94,0,0,1,102.37,79.52ZM82.63,65.87l-.71-.82-.7,0A1.33,1.33,0,0,0,82,66a1.38,1.38,0,0,0,1.75-.5,2,2,0,0,1,.29.29,1.82,1.82,0,0,0,2.12.59c.32-.12.66-.29.67-.72a1,1,0,0,0-.51-1.11,2.33,2.33,0,0,0-2.16-.18,1.76,1.76,0,0,1-.44.15.68.68,0,0,0-.54.43A10.34,10.34,0,0,1,82.63,65.87Zm3.59,13.06,0,.09c.23,0,.47-.09.69-.16.5-.15,1-.32,1.49-.48s1.27-.41,1.9-.63.61-.32.56-.86c0-.34-.08-.69-.14-1a16,16,0,0,1-.25-3.39,18.57,18.57,0,0,1,.91-5.06c.1-.29.17-.59.25-.89a6.87,6.87,0,0,0-.61,1.25,11.77,11.77,0,0,0-.89,4.83c.06,1.13.17,2.27.27,3.41,0,.45,0,.54-.43.71l-.15,0a11.63,11.63,0,0,0-3.25,1.8A4.75,4.75,0,0,0,86.22,78.93Zm6.58,17a.66.66,0,0,1-.15.14c-.68.32-.5.48-.41,1a1.82,1.82,0,0,0,.19.43.74.74,0,0,0,.83.5c.62-.07,1.26-.08,1.88-.16a6.78,6.78,0,0,0,1.53-.4,1.92,1.92,0,0,1-.32-.36.77.77,0,0,0-1-.42,1,1,0,0,1-1-.34,2.32,2.32,0,0,1-.29-.49c-1.05-.26-1.11-1.13-1.28-1.93C92.22,94.34,92.2,95,92.8,95.92Zm6.07.12a2,2,0,0,1-2.77-.56.93.93,0,0,1-1-.08,1.2,1.2,0,0,1-.55-1,1,1,0,0,1-1.29-.25c.06.86.39,1.25,1,1.26.37,1,.5,1,1.88.86a2,2,0,0,0,1.47,1.27,3,3,0,0,0,2-.12Zm3.34-31.36a3.71,3.71,0,0,0-.69-.27,12,12,0,0,0-1.46-.15c-.58,0-.62-.05-.64-.63,0-.8,0-1.61-.15-2.4s-.36-1.74-.57-2.61a7.22,7.22,0,0,0-1.5-2.91,2.27,2.27,0,0,0-.42-.33l-.07.09.27.35a5.41,5.41,0,0,1,.49.69,11.22,11.22,0,0,1,1.23,4c.11,1.15.2,2.3.29,3.45a.57.57,0,0,0,.34.55,4.51,4.51,0,0,1,1.38.94,5.27,5.27,0,0,0,.6.41ZM89.42,88.79a2.32,2.32,0,0,1,1.78-.43,1.91,1.91,0,0,1,1.53,1A1.71,1.71,0,0,0,91.84,87a3.17,3.17,0,0,0-2.68.49.36.36,0,0,0-.11.51C89.19,88.26,89.29,88.52,89.42,88.79ZM93.08,74.6c.1.07.16.1.18.14a1.35,1.35,0,0,0,1.37.58c.48,0,.65-.24.64-.74l0-.5c-.51-.15-1-.28-1.44-.44a1.41,1.41,0,0,0-1,0c-.45.17-.92.3-1.38.46a6,6,0,0,0-.61.32L91,75.6C92,75.88,92.52,75.24,93.08,74.6ZM85.52,85.41l0,2.16a2.72,2.72,0,0,1,.87.25,2.67,2.67,0,0,1,.49.72,1,1,0,0,1,1.23.13,1.74,1.74,0,0,1,.4,1.27l.55-.18a2.34,2.34,0,0,0,.11-.67,2.39,2.39,0,0,0-.31-.92c-.23-.38-.55-.37-.9-.06a.76.76,0,0,1-.2.08,3.15,3.15,0,0,1,0-.4,1.41,1.41,0,0,0-.56-1.23c-.25-.23-.44-.2-.69.08a1.06,1.06,0,0,1-.19.11C86,86.34,86.1,85.75,85.52,85.41Zm-.85,7.36a2.65,2.65,0,0,1,1.8.12,1.64,1.64,0,0,1,1.58-.76c.23,0,.37-.08.5-.29a5.21,5.21,0,0,1,.54-.62,1.32,1.32,0,0,0,.12-.2l-.06-.09a2.27,2.27,0,0,0-.53.22,3.35,3.35,0,0,0-.43.41c-.33-.24-.58-.66-1-.43a5.5,5.5,0,0,0-.87.74c-.45-.92-1.33-1.17-2-.58C84.46,91.79,84.57,92.28,84.67,92.77Zm6.77-3.06c0-.62-.31-1.06-.7-1.06-.64,0-1.19.12-1.37.87a1.88,1.88,0,0,0-.11.62,1.07,1.07,0,0,0,.41,1A1,1,0,0,0,90.81,91,2.36,2.36,0,0,0,91.44,89.71Zm-3.14-32c-.37-.07-.66-.14-1-.18a2.28,2.28,0,0,0-1.85.57c-.43.36-.38,1,.09,1.1a2.59,2.59,0,0,0,1.65,0,.8.8,0,0,0,.32-.26C87.8,58.48,88,58.11,88.3,57.66ZM85,77.08l.07,0c-.1-.55-.18-1.1-.29-1.65a.84.84,0,0,0-.22-.39,4.19,4.19,0,0,0-1.65-1,1.91,1.91,0,0,0-1.29,0,1.06,1.06,0,0,0-.83.88l.34-.11A2.19,2.19,0,0,1,83,75a5,5,0,0,1,1.68,1.63C84.81,76.8,84.91,76.94,85,77.08Zm5.06,9.67a9.66,9.66,0,0,1,1.2-.07A2,2,0,0,1,93,89.37a1.86,1.86,0,0,0-.06,1,1.88,1.88,0,0,0,.8-1.83,2.53,2.53,0,0,0-1.66-2.24A1.8,1.8,0,0,0,90.06,86.75ZM103.14,71.9a1.55,1.55,0,0,0-1.58-.81,17,17,0,0,0-2,.55,1.28,1.28,0,0,0-.25.15,7.63,7.63,0,0,1,2,.54C102,72.64,102.54,72.24,103.14,71.9ZM89.47,54.81a3.24,3.24,0,0,0-.82,2.57l1.27-.09A2.37,2.37,0,0,0,89.47,54.81Zm1.69,36.46A1.11,1.11,0,0,0,92.42,91c.21-.33.5-.72.1-1.12a.12.12,0,0,1,0-.1c.15-.35-.16-.5-.32-.7a.82.82,0,0,0-.76-.36,1.65,1.65,0,0,1-.1,2A2.08,2.08,0,0,0,91.16,91.27ZM88.39,80.92c1.57-.21,2.21.6,2.29,2l.45-.1a2.45,2.45,0,0,0-.38-1.68,1.63,1.63,0,0,0-2.44-.64Zm-.57,2.35a6.9,6.9,0,0,0,.3-2.06,2.37,2.37,0,0,0-.47-1.41,1.06,1.06,0,0,0-1.27-.43l.22.15a2.58,2.58,0,0,1,1.11,2.08C87.72,82.16,87.78,82.71,87.82,83.27ZM95.28,73a4.62,4.62,0,0,0-3.65.84c.45-.15.85-.26,1.24-.42a1.35,1.35,0,0,1,1,0c.24.07.46.16.7.24l.7.21Zm7.46,8.7-.36-1.48-1.43.44A1.71,1.71,0,0,0,102.74,81.65ZM91.83,83.1a1.83,1.83,0,0,1,1.41,1.32l.78.27c-.11-.33-.12-.6-.25-.74A2.21,2.21,0,0,0,91.83,83.1Zm-10.23-22c-.53-.06-.78.05-.94.43a1,1,0,0,0,.13,1.21Zm1,4.4.4-.64-.06-.07-.73.24Zm7.74-8.69c-.13.6-.11.66.25.77C90.55,57.25,90.58,57,90.32,56.76Zm1.21,25.76-.13.09,0,.26.49-.05Z"/><path class="cls-1" d="M89.32,60.68c.37,1.07-1.34,3.26-2.71,3.32.27-.36.7-.3,1-.54a8.91,8.91,0,0,0,.84-.78,4,4,0,0,0,.57-.93C89.11,61.43,89.19,61.08,89.32,60.68Z"/><path class="cls-1" d="M81.78,62.91c.19-.32.48-.35.74-.43a10.53,10.53,0,0,1,2.34-.14,1.37,1.37,0,0,1-.85.24,4.75,4.75,0,0,0-1.9.32A1.64,1.64,0,0,1,81.78,62.91Z"/><path class="cls-1" d="M82.13,62a3.82,3.82,0,0,1,2.78-.18Z"/><path class="cls-1" d="M84.42,63.25a9,9,0,0,0-2.71.46,1.39,1.39,0,0,1,1.07-.53A2.27,2.27,0,0,1,84.42,63.25Z"/><path class="cls-1" d="M86.22,63.74a3.47,3.47,0,0,1,.62-2.82A9.69,9.69,0,0,0,86.22,63.74Z"/><path class="cls-1" d="M102.89,93.06a1,1,0,0,1,0-1.21C102.88,92.33,102.88,92.7,102.89,93.06Z"/><path class="cls-1" d="M91.67,96.34c-.35-.23-.69,0-1-.29a1.56,1.56,0,0,1,1,0S91.63,96.14,91.67,96.34Z"/><path class="cls-1" d="M91.69,96.55c-.3.28-.62.18-1,.16C90.94,96.5,91.21,96.45,91.69,96.55Z"/><path class="cls-1" d="M91.77,95.38a.57.57,0,0,1-.82.1A.94.94,0,0,1,91.77,95.38Z"/><path class="cls-1" d="M99.66,91.75a.78.78,0,0,1-.13.75C99.39,92.16,99.4,92.13,99.66,91.75Z"/><path class="cls-1" d="M100,92.61l.14-.64a.44.44,0,0,1,0,.67Z"/><path class="cls-1" d="M94.81,91.78l.22-.67c.09.14.18.22.16.25a4.45,4.45,0,0,1-.26.48Z"/><path class="cls-1" d="M102.1,92.31a.51.51,0,0,1,.07.67A.75.75,0,0,1,102.1,92.31Z"/><path class="cls-1" d="M96.52,92c-.23-.3-.08-.42,0-.58C96.79,91.58,96.56,91.71,96.52,92Z"/><path class="cls-1" d="M97.28,91.63l-.22.47c-.09-.33-.09-.33.12-.52Z"/><path class="cls-1" d="M94.16,91.55l.18-.33c.13.2.07.32-.08.41Z"/><path class="cls-1" d="M101.43,89.59c-.05.46-.09.86-.14,1.35-.22-.2-.1-.36-.12-.49a4.43,4.43,0,0,1,0-.52C101.16,89.79,101.11,89.61,101.43,89.59Z"/><path class="cls-1" d="M97.19,89.13A1.91,1.91,0,0,1,97,90.37,2.2,2.2,0,0,1,97.19,89.13Z"/><path class="cls-1" d="M100.58,89.64c0,.37.15.75-.19,1.08,0-.36,0-.72,0-1.08Z"/><path class="cls-1" d="M101.82,90.12a1.61,1.61,0,0,1,0,1c-.25-.14-.07-.35-.11-.51S101.58,90.28,101.82,90.12Z"/><path class="cls-1" d="M98.19,90.41l.09-.74c.24.27.14.51.08.75Z"/><path class="cls-1" d="M97.62,89.66c.2.47.19.53-.09.89Z"/><path class="cls-1" d="M94.59,89.11c.24.37,0,.61,0,.92C94.43,89.76,94.43,89.69,94.59,89.11Z"/><path class="cls-1" d="M95.27,89.23c.07.3.13.54,0,.76C95.15,89.75,95,89.51,95.27,89.23Z"/><path class="cls-1" d="M96.8,78c.15.37,0,.71-.48,1.2C96.34,78.66,96.66,78.35,96.8,78Z"/><path class="cls-1" d="M92.3,78.59a1.62,1.62,0,0,1-.25-1.14C92.32,77.62,92.38,77.86,92.3,78.59Z"/><path class="cls-1" d="M100.91,80.1a.94.94,0,0,1,0-1.1A1.62,1.62,0,0,1,100.91,80.1Z"/><path class="cls-1" d="M97.27,79.51a3.25,3.25,0,0,1,.15-1.3A1.42,1.42,0,0,1,97.27,79.51Z"/><path class="cls-1" d="M91.6,77.63c.34.37,0,.74.18,1.12C91.49,78.47,91.46,78.28,91.6,77.63Z"/><path class="cls-1" d="M94.4,79a.88.88,0,0,1-.05-.85A.8.8,0,0,1,94.4,79Z"/><path class="cls-1" d="M93.73,78.55c.07-.22.14-.45.23-.72.19.34.18.38-.12.75Z"/><path class="cls-1" d="M100.36,78.91c.14.54.12.65-.1.89A1.25,1.25,0,0,1,100.36,78.91Z"/><path class="cls-1" d="M94.88,78l.2.79-.11,0a1.15,1.15,0,0,1-.23-.79Z"/><path class="cls-1" d="M97.92,78.36c0,.24,0,.49,0,.83a1,1,0,0,1-.18-.82Z"/><path class="cls-1" d="M98.29,81.28l.09,1.33a1.4,1.4,0,0,1-.2-1.34Z"/><path class="cls-1" d="M95.08,81c.2.36.08.79.19,1.22-.35-.11-.23-.37-.27-.56s-.07-.42-.1-.62Z"/><path class="cls-1" d="M92.49,81.12c0,.36.05.73.07,1.11A.73.73,0,0,1,92.49,81.12Z"/><path class="cls-1" d="M101.51,83.17c-.05-.44-.35-.83-.23-1.29.06,0,.12,0,.12,0a.84.84,0,0,1,.1.33C101.46,82.53,101.73,82.84,101.51,83.17Z"/><path class="cls-1" d="M97.61,81.24c.3.41,0,.74.08,1.11C97.43,82.06,97.42,82,97.61,81.24Z"/><path class="cls-1" d="M102.07,82c.12.34.23.68.37,1.1a1.08,1.08,0,0,1-.5-1.08Z"/><path class="cls-1" d="M92.92,81.11a2.65,2.65,0,0,1,.22,1.13c-.31-.09-.21-.34-.26-.52a4,4,0,0,1-.11-.58Z"/><path class="cls-1" d="M95.8,81.34l.19.88a.79.79,0,0,1-.32-.86Z"/><path class="cls-1" d="M98.7,81.71c.22.27.22.27.25.78C98.64,82.3,98.6,82.18,98.7,81.71Z"/><path class="cls-1" d="M100.9,82.53a.83.83,0,0,1-.06-.93A1.21,1.21,0,0,1,100.9,82.53Z"/><path class="cls-1" d="M92,81.09l-.12.75c-.26-.33-.25-.38,0-.77Z"/><path class="cls-1" d="M98.71,87.4a1.47,1.47,0,0,1-.3,1.39C98.52,88.3,98.41,87.86,98.71,87.4Z"/><path class="cls-1" d="M102.3,89.08l-.06-1C102.57,88.27,102.62,88.58,102.3,89.08Z"/><path class="cls-1" d="M99.35,88.65a1.81,1.81,0,0,1,.09-1.08A1.12,1.12,0,0,1,99.35,88.65Z"/><path class="cls-1" d="M95.6,87.39a1.09,1.09,0,0,1-.06.94A.93.93,0,0,1,95.6,87.39Z"/><path class="cls-1" d="M103.09,89.33a1.08,1.08,0,0,1-.2-1C103.18,88.68,103.09,89,103.09,89.33Z"/><path class="cls-1" d="M101.93,87.8c.16.3.16.3.06,1C101.8,88.56,101.8,88.56,101.93,87.8Z"/><path class="cls-1" d="M100,88.66l-.06-1A.7.7,0,0,1,100,88.66Z"/><path class="cls-1" d="M96.19,88.14l0-.69c.3.24.22.46.2.67Z"/><path class="cls-1" d="M96.93,85.26c.32.55.31.86.06,1Z"/><path class="cls-1" d="M102.35,85.9a1.27,1.27,0,0,1,.11,1.13A1.51,1.51,0,0,1,102.35,85.9Z"/><path class="cls-1" d="M96.29,86.25c0-.31-.14-.62.09-.93.24.18.14.43.14.63S96.52,86.25,96.29,86.25Z"/><path class="cls-1" d="M100.42,86.63l-.16-.88C100.61,86,100.63,86.09,100.42,86.63Z"/><path class="cls-1" d="M99.8,86.62a1.44,1.44,0,0,1,.11-1A.88.88,0,0,1,99.8,86.62Z"/><path class="cls-1" d="M95.78,84.93a1.26,1.26,0,0,1,0,1.08C95.74,85.69,95.48,85.37,95.78,84.93Z"/><path class="cls-1" d="M99.31,85.47a.82.82,0,0,1-.1.88A1.08,1.08,0,0,1,99.31,85.47Z"/><path class="cls-1" d="M103,87.2a1.44,1.44,0,0,1-.18-1A1,1,0,0,1,103,87.2Z"/><path class="cls-1" d="M97.31,94.12a1.85,1.85,0,0,1,.35-1.27C97.74,93.2,97.66,93.5,97.31,94.12Z"/><path class="cls-1" d="M102.07,95.19a2,2,0,0,1,.3-1.11l.15,0c-.11.36-.21.72-.32,1.09Z"/><path class="cls-1" d="M96.66,93.83c-.1-.35.15-.58.2-1C97,93.31,97,93.4,96.66,93.83Z"/><path class="cls-1" d="M96.3,93.77c-.27-.3-.1-.52-.07-.81C96.48,93.24,96.34,93.46,96.3,93.77Z"/><path class="cls-1" d="M101.69,94.61c-.07-.32-.07-.32.26-.55l-.15.57Z"/><path class="cls-1" d="M100.12,84.34,100,83.23A.86.86,0,0,1,100.12,84.34Z"/><path class="cls-1" d="M94.57,82.81a1,1,0,0,1,.16,1A1.11,1.11,0,0,1,94.57,82.81Z"/><path class="cls-1" d="M97,83.07a.86.86,0,0,1,0,1.06l-.13-1Z"/><path class="cls-1" d="M100.75,84.62a2.39,2.39,0,0,1-.22-1C100.77,83.83,100.8,83.92,100.75,84.62Z"/><path class="cls-1" d="M99.79,83.63l-.06.79h-.12a2.91,2.91,0,0,1,0-.78Z"/><path class="cls-1" d="M96.63,83.24l0,.74h-.13a1.05,1.05,0,0,1,0-.74Z"/><path class="cls-1" d="M97.82,84.09c-.28-.13-.23-.37-.23-.64C97.92,83.61,97.75,83.89,97.82,84.09Z"/><path class="cls-1" d="M94.23,83.46c-.2-.31-.2-.31-.09-.62C94.28,83.05,94.28,83.05,94.23,83.46Z"/><path class="cls-1" d="M85.86,95.75a3.34,3.34,0,0,1-.71-1.89A7.57,7.57,0,0,1,85.86,95.75Z"/><path class="cls-1" d="M85.77,94a1.34,1.34,0,0,1,.55,1A1.61,1.61,0,0,1,85.77,94Z"/><path class="cls-1" d="M86.51,93.65l.59,1C86.7,94.57,86.48,94.21,86.51,93.65Z"/><path class="cls-1" d="M88,94a.83.83,0,0,1-.64-.92Z"/><path class="cls-1" d="M87.92,93.51c-.06-.24-.13-.47-.21-.77C88,93,88.07,93.12,87.92,93.51Z"/><path class="cls-1" d="M101.27,95.73l-.82,1.13A1.25,1.25,0,0,1,101.27,95.73Z"/><path class="cls-1" d="M99.7,96.14c.29-.33.59-.65.89-1a.62.62,0,0,1,.16.07l-.92,1Z"/><path class="cls-1" d="M87.35,96.56c.52-.29,1.09-.07,1.63-.11.16,0,.33,0,.36.3C88.67,96.78,88,96.59,87.35,96.56Z"/><path class="cls-1" d="M87.86,95.76a.59.59,0,0,1,.14-.05l1.41.22c-.08.27-.28.2-.43.18C88.15,96,88,96,87.86,95.76Z"/><path class="cls-1" d="M89.25,93.83a4.41,4.41,0,0,1,1.11.81A1.44,1.44,0,0,1,89.25,93.83Z"/><path class="cls-1" d="M88.92,94.46,90,95c-.31.11-.54,0-1-.27-.06,0-.08-.14-.11-.22Z"/><path class="cls-1" d="M85.52,90.21c-.14-.58.14-1.15.06-1.73A1.84,1.84,0,0,1,85.52,90.21Z"/><path class="cls-1" d="M86.11,89.26c.2.24.2.44,0,1.2A1.77,1.77,0,0,1,86.11,89.26Z"/><path class="cls-1" d="M87.31,89.35c-.07.34-.15.67-.25,1.09A.87.87,0,0,1,87.31,89.35Z"/><path class="cls-1" d="M94.49,96.82c-.13.11-.21.23-.29.23-.39,0-.77,0-1.22-.08.23-.33.5-.16.72-.18A4.45,4.45,0,0,1,94.49,96.82Z"/><path class="cls-1" d="M93.46,97.38c.17,0,.34,0,.5,0s.3,0,.49-.07C94.15,97.64,93.91,97.67,93.46,97.38Z"/><path class="cls-1" d="M93.7,75.82l-.31,1A.64.64,0,0,1,93.7,75.82Z"/><path class="cls-1" d="M94.15,77c-.26-.29-.26-.56,0-1C94.34,76.38,94.14,76.69,94.15,77Z"/><path class="cls-1" d="M92.26,76.8a.58.58,0,0,1,0-.88,1.15,1.15,0,0,1,0,.89Z"/><path class="cls-1" d="M94.84,75.94l.08,1.16A1.35,1.35,0,0,1,94.71,76Z"/><path class="cls-1" d="M91.59,76.73l-.12-.44c.33.09.25.26.24.41Z"/><path class="cls-1" d="M94,73.92A6.72,6.72,0,0,1,94,75.1.88.88,0,0,1,94,73.92Z"/><path class="cls-1" d="M94.24,74.83l.12-.76c.24.31.23.43,0,.77Z"/><path class="cls-1" d="M92.2,74.23c.28.26.15.51.08.85A.8.8,0,0,1,92.2,74.23Z"/><path class="cls-1" d="M91.56,75.25c0-.2,0-.39-.09-.66.36.2.25.44.24.65Z"/><path class="cls-1" d="M85.05,92.53c-.28-.37-.1-.69-.16-1C85.17,91.74,85.18,91.83,85.05,92.53Z"/><path class="cls-1" d="M85.39,91.54c.34.23.14.46.21.72C85.3,92.05,85.36,91.84,85.39,91.54Z"/><path class="cls-1" d="M26.25,21a1.5,1.5,0,0,1,.09-.18c0-.07,0-.16,0,0a1,1,0,0,1,.22-.53l0,0,1.09-2.76c.36-.92.71-1.84,1.08-2.76.13-.33.28-.65.46-1.06.55.53,1,1,1.5,1.46a.64.64,0,0,1,.08.14.81.81,0,0,1,.38.44v-.1c.31.31.58.55.82.8.62.64,1.24,1.28,1.83,1.95h0a2.89,2.89,0,0,1,.58.22,1.88,1.88,0,0,1-.12-.3A23.1,23.1,0,0,0,33.53,16c-.64-1.48-1.23-3-1.91-4.44-.48-1-.89-2.1-1.44-3.1s-.89-1.85-1.34-2.78a2.39,2.39,0,0,0-.25-.32,5.33,5.33,0,0,0-.27.52C27.89,7,27.48,8.19,27,9.33c-.58,1.46-1.2,2.91-1.83,4.35a4.32,4.32,0,0,1-.53.76c.25.93.54,1.9.77,2.88.29,1.21.57,2.43.81,3.65Zm.27-1.27a3.2,3.2,0,0,1,.05-1.6c.12-.94.29-1.87.38-2.81a1.05,1.05,0,0,1,.53-.88l1.35-.86.11.09Q27.74,16.66,26.52,19.69Zm2.31-6.47-1.66,1.11a6.5,6.5,0,0,1,.21-1.53c0-.08.11-.17.19-.22.37-.25.74-.48,1.21-.78Zm.84-3.64c.1.42.18.79.28,1.2L29,11.4c0-.22-.07-.37-.09-.53C28.83,10.06,28.83,10.06,29.67,9.58ZM29,11.7l1-.64c.12.41.23.78.35,1.17L29.11,13C29.08,12.54,29.06,12.14,29,11.7Zm1.63,3-1.45-1.45,1.18-.61c.14.73.26,1.36.37,2Zm2.87,2.16a4.09,4.09,0,0,1,.48,1l-.1.07a2.3,2.3,0,0,1-.34-.28L31.4,15.46a1,1,0,0,1-.34-1.11C31.93,15.22,32.76,16,33.53,16.85Zm-.26-.65L32,15l-.73-.72c-.49-.48-.51-.52-.49-1.3a2.75,2.75,0,0,1,.9.67c.21.19.39.42.61.59A3.1,3.1,0,0,1,33.27,16.2Zm-1.59-4,.72,1.63-.08,0a15,15,0,0,1-1.54-1.31,2.07,2.07,0,0,1-.34-1.17l1.08.64A.52.52,0,0,1,31.68,12.18Zm-.33-.72C30.43,11.3,30.19,11,30,9.69,31,9.91,30.94,10.81,31.35,11.46Zm-1-2c-.53,0-.53,0-.61-.53C30.16,9,30.16,9,30.37,9.46Zm-.83-1.88c.14.31.27.62.45,1.05-.59-.25-.47-.68-.6-1Zm.05,1.69-.65.42c-.15-1-.15-1,.39-1.24C29.42,8.71,29.5,9,29.59,9.27Zm-.75-2.55c.11.39.24.78.34,1.18.07.24-.07.32-.34.31l-.1-1.46Zm-.41.65c.23.8.19,1-.3,1.35Zm.17,1.47c0,.35,0,.66,0,1l-.73.5C28,9.79,27.75,9.07,28.6,8.84Zm-.68,1.82c.21-.16.43-.29.74-.49,0,.49.06.9.09,1.32l-1.16.77-.1-.09c.06-.4.12-.8.2-1.19A.66.66,0,0,1,27.92,10.66ZM28,7.52a3.47,3.47,0,0,1-.4,1.68l-.16-.06Zm-.74,2,.34.14c.14.75-.2,1.18-1,1.45Zm.16,1.57c-.07.45-.13.88-.22,1.31a.69.69,0,0,1-.23.33,13.86,13.86,0,0,1-1.35.91C26,12.62,26.11,11.43,27.42,11.05ZM25.07,14.9a.55.55,0,0,1,.2-.64c.56-.42,1.13-.82,1.81-1.31-.09.59-.15,1-.23,1.49a.49.49,0,0,1-.16.24l-1.39.91C25.21,15.32,25.13,15.11,25.07,14.9Zm.28,1,1.27-.9.12.07-.51,3.81H26.1C25.86,17.92,25.61,16.94,25.35,15.92Z"/><path class="cls-1" d="M37,38.94c-.05.88-.1,1.76-.15,2.7l-1.59,0c0-.68.07-1.33.11-2l.39,0c.16.29-.09.62.18.92.24-.27.1-.58.21-.85l.65-.26-.65-.23c.07-.35-.14-.77.31-1.06-.48-.39-.26-.89-.22-1.34s-.19-.93.18-1.32l-.38-.6-.17.47-.5,0-.09-2.24.48-.2-.51-.24c0-.69-.09-1.41-.13-2.21-.42.37-.17.73-.18,1s0,.72,0,1.14l-.81-.1c-.27-1.93-.24-3.87-.57-5.89a.88.88,0,0,0-.17.77c.14,1.49.28,3,.4,4.47a3.29,3.29,0,0,1,0,.54l-.52.15v.13l.56.17c0,.79,0,1.63.07,2.48l-.76.06c.14.43.5.11.72.36,0,.55,0,1.19,0,1.85l-.74.12c.26.22.26.22.68.24.27.59-.11,1.17,0,1.78a10.55,10.55,0,0,1-.07,1.84l-1.21-.07c0-.51,0-1,.08-1.46.06-1,.14-2,.18-3.07s.09-1.94.07-2.91c0-1.55-.11-3.1-.18-4.66a78.39,78.39,0,0,0-1.1-10.59c-.11-.63-.15-1.27-.24-1.9a.36.36,0,0,0-.23-.29c0,.14,0,.28,0,.42.17,1.13.36,2.27.51,3.4.21,1.54.41,3.08.56,4.62.1.9.1,1.81.15,2.72.08,1.37.19,2.74.26,4.11,0,.86,0,1.73,0,2.6,0,1.17-.06,2.34-.12,3.5s-.15,2.09-.23,3.14c0,.1,0,.19-.07.37l-5-.26c.13-1.41.26-2.87.39-4.35l1-.31a8.84,8.84,0,0,1,0,2.57l-.73.31.61.29c.11.19-.21.54.27.65,0-.3.09-.59.13-.91l1-.35c0,.2.05.35.08.59a3,3,0,0,1,.87-1l-.48,0c0-.83.08-1.65.13-2.46L31,36l-.48-.1a3.17,3.17,0,0,1,.3-2c-.45-.59-.17-1.26-.3-1.9l1-.27c0,.41.06.78.1,1.15s-.13.73.19,1.17c.32-.93-.15-1.81.18-2.66a1.93,1.93,0,0,1-.07-1.82c-.09-.15-.24-.29-.25-.43a4.79,4.79,0,0,1,0-1.73.2.2,0,0,0,0-.15c-.34-.51-.19-1.1-.26-1.65,0-.16.13-.34.22-.55l-.3-.11c0-.39-.05-.8-.13-1.19s-.13-.79.31-1.07l-.43,0c-.06-.41-.12-.85-.17-1.29l.47-.39a2.07,2.07,0,0,0-.28-.06,1.41,1.41,0,0,0-.25,0c-.08-.44-.16-.85-.23-1.29l.39-.34-.45-.11c-.07-.36-.15-.72-.22-1.08l.39-.3-.48-.19a4.58,4.58,0,0,0-.6-1.66c-.21.4.09.66.12.94s.09.6.13.91l-1.45.47.34.21h0c0,.42.08.84.12,1.31l-1.47.53,0,.17c.52.1.93-.34,1.46-.35a4.53,4.53,0,0,1,.35,1.47L28,22.15c0-.27-.08-.49-.14-.7a1.67,1.67,0,0,0-.24-.53c-.23.46,0,.89,0,1.37l-.89.34c-.1-.56-.21-1.07-.27-1.58a1.23,1.23,0,0,1,.12-.52c.36-.92.73-1.83,1.09-2.75L28.75,15c.13-.33.29-.66.46-1.06.55.53,2.55,2.49,2.79,2.74.62.64,1.24,1.27,1.83,1.94a2.34,2.34,0,0,1,.5.88A40,40,0,0,1,35.75,26c.11.94.3,1.87.41,2.81.17,1.44.33,2.88.45,4.32s.22,2.94.32,4.41c0,.28,0,.56,0,.84A3.82,3.82,0,0,0,37,39Z"/><path class="cls-1" d="M28.72,30.45c0,.59,0,1.13.06,1.67l-.84.36c.28.3.53,0,.8.07a5.43,5.43,0,0,1,0,1.71l-1.15.34c-.12-2,0-3.91-.1-5.89l1-.32c.05.59.1,1.12.14,1.58-.17.33-.64.07-.7.54Z"/><path class="cls-1" d="M29.94,38.94l-1,.29c.05-.92.1-1.78.15-2.69l1.14-.27C30.12,37.21,30,38.06,29.94,38.94Z"/><path class="cls-1" d="M29.54,23.52c.1.66.18,1.27.27,1.92l-1.19.43c-.31-.58-.16-1.21-.38-1.84Z"/><path class="cls-1" d="M28.63,26.17l1.17-.39c.09.63.17,1.21.27,1.86L28.89,28C28.8,27.39,28.73,26.83,28.63,26.17Z"/><path class="cls-1" d="M30.07,27.93l.14,1.79L29,30c-.06-.57-.11-1.1-.17-1.68Z"/><path class="cls-1" d="M35.11,35.39h-.9c0-.83-.06-1.61-.09-2.45L35,33C35,33.8,35.08,34.57,35.11,35.39Z"/><path class="cls-1" d="M30.29,34.11c0,.68-.07,1.26-.1,1.86l-1.09.28v-1.8Z"/><path class="cls-1" d="M29,30.27,30.28,30c0,.62-.06,1.16-.09,1.74l-1.06.34A7.8,7.8,0,0,1,29,30.27Z"/><path class="cls-1" d="M31.09,25l-1,.31c-.3-.6-.16-1.24-.36-1.88l1.1-.4C31,23.75,31,24.36,31.09,25Z"/><path class="cls-1" d="M29.08,32.39,30.26,32l0,1.71a2,2,0,0,1-1.17.38C29.12,33.53,29.1,33,29.08,32.39Z"/><path class="cls-1" d="M31.11,25.31c.06.7.11,1.3.16,2l-.89.32A7.44,7.44,0,0,1,30,25.72Z"/><path class="cls-1" d="M28.82,34.56c0,.6-.05,1.09-.09,1.58a.36.36,0,0,1-.2.26c-.28.1-.57.16-.92.26,0-.51,0-.94,0-1.38a.44.44,0,0,1,.4-.5C28.23,34.73,28.45,34.66,28.82,34.56Z"/><path class="cls-1" d="M35.11,37.84l-.92-.1c0-.68,0-1.31,0-2h.94Z"/><path class="cls-1" d="M28.54,28.09l-1,.28c-.06-.6-.12-1.13-.18-1.7l1-.42C28.43,26.91,28.49,27.47,28.54,28.09Z"/><path class="cls-1" d="M27,24.55l1-.41L28.3,26l-1,.31C27.21,25.68,27.13,25.15,27,24.55Z"/><path class="cls-1" d="M29.35,21.88l.17,1.35-1.27.48c-.05-.25-.08-.44-.12-.63s-.06-.39-.11-.66Z"/><path class="cls-1" d="M31.29,27.6l.14,1.83-.92.2-.21-1.71Z"/><path class="cls-1" d="M34.21,39.64H35c0,.71-.07,1.36-.1,2l-.79,0C34.14,41,34.17,40.35,34.21,39.64Z"/><path class="cls-1" d="M30.5,31.66l.09-1.74.77-.16a3.7,3.7,0,0,1,.13,1.63Z"/><path class="cls-1" d="M29.31,19.93l1-.28c.11.43.19.79.28,1.15a.3.3,0,0,1-.19.39l-.77.31C29.49,21,29.4,20.49,29.31,19.93Z"/><path class="cls-1" d="M29.75,23.17c-.05-.51-.1-.94-.15-1.38l1-.42c.05.46.1.89.16,1.39Z"/><path class="cls-1" d="M28.8,18.47l1.19-.4.29,1.24-.94.31c-.23-.36-.12-.9-.55-1.16Z"/><path class="cls-1" d="M36,35.74c0,.42,0,.76,0,1.1S36,37.55,36,38l-.56-.1v-2Z"/><path class="cls-1" d="M35.09,39.31l-.93,0c0-.43,0-.82,0-1.26l1,0C35.09,38.49,35.09,38.86,35.09,39.31Z"/><path class="cls-1" d="M26.84,23l.88-.37c.08.42.15.79.24,1.22l-.92.38C27,23.74,26.9,23.36,26.84,23Z"/><path class="cls-1" d="M35.35,39.31l.06-1.07.5,0c0,.36,0,.69-.06,1.05Z"/><path class="cls-1" d="M21.59,22.67c0,.4.11.82.11,1.24l.45,1.6c.27,1,.53,2,.83,3a4.7,4.7,0,0,1,.18,1,.81.81,0,0,1,.31.1v0a2.79,2.79,0,0,1,.44.09l1.94.79a1,1,0,0,1,.21.11c.18.06.35.13.53.21a1.69,1.69,0,0,0-.12-.44c-.07-.18-.1-.38-.16-.57-.41-1.34-.76-2.7-1.24-4-.58-1.61-1.27-3.19-1.93-4.77-.22-.52-.47-1-.71-1.52l-.16,0a1.84,1.84,0,0,0-.09.25c-.18.92-.46,1.81-.64,2.73A1.55,1.55,0,0,1,21.59,22.67Zm.27.83c.8.75,1.4,1.44,1.17,2.54C22.1,25.46,22.19,24.46,21.86,23.5ZM23,27.45c-.14-.45-.28-.9-.45-1.43A1,1,0,0,1,23,27.45Zm.24-3.62c.62.21.4.75.55,1.12C23.23,25,23.11,24.73,23.22,23.83Zm.14,1.49a4,4,0,0,1,.75,1.25C23.4,26.52,23.22,26.37,23.36,25.32Zm0,2.32c0-.31,0-.61.05-1l.74.35c.07.4.15.82.24,1.34l-.74-.25A.38.38,0,0,1,23.34,27.64Zm1.09,1.95c-.29-.12-.59-.21-.86-.34a.54.54,0,0,1-.18-.34c0-.18,0-.38,0-.62C24.44,28.6,24.54,28.63,24.43,29.59Zm.06-2.36a5.3,5.3,0,0,1,.9,1.58c-.53-.12-.87-.32-.86-.88C24.53,27.71,24.47,27.48,24.49,27.23Zm1.6,3c-.53,0-.88-.38-1.34-.54,0-.26-.05-.5-.07-.8A1.82,1.82,0,0,1,26.09,30.19Zm-.34-1.29-.68-1.32.11-.08C25.73,27.79,25.62,28.4,25.75,28.9Zm-.38-1.63a1.52,1.52,0,0,1-1.13-1.56C25.09,25.86,25.12,26.59,25.37,27.27Zm-.61-1.76c-.68-.07-.74-.21-.83-1.32C24.59,24.46,24.49,25.08,24.76,25.51Zm-.68-1.65c-.42-.14-.56-.44-.62-1.47C23.66,22.87,23.86,23.35,24.08,23.86Zm-.65-.32-.12.06c-.41-.4-.25-1-.3-1.47ZM22.3,20.47h.08c.06.31.12.62.2,1l-.49-.25C22.17,21,22.23,20.72,22.3,20.47Zm-.25,1a1.32,1.32,0,0,1,.64,1.39C22.4,22.46,21.76,22.21,22.05,21.49Zm-.18.78c.34.73,1.12,1.06,1.06,1.88l-.13.1-1-1.35-.11.08Z"/><path class="cls-1" d="M21.48,23.94c.16.59.33,1.18.5,1.78.28,1,.54,2.06.85,3.08a4.73,4.73,0,0,1,.2,1.67c-.11,2.28-.23,4.55-.31,6.83,0,1.15,0,2.3,0,3.45,0,.45-.09.55-.52.54s-1.09,0-1.63,0-.74-.12-.7-.76c.13-2.12.28-4.23.42-6.35.08-1.25.11-2.5.24-3.75.22-2.14.5-4.28.76-6.43Z"/><path class="cls-1" d="M25.89,34.55c-.57-.47-.19-1-.32-1.48l.57-.17-.49-.24-.12-.84h-.17l-.13.82-.65-.1L24.42,32l-.12,0a1.2,1.2,0,0,1-.16.4c-.07.08-.23.1-.44.18.75.41.32,1,.41,1.52l-.67.2.62.31c0,.49,0,1-.08,1.58l-.52.11c0,.37.36.22.57.39,0,.16,0,.37,0,.62l-.66.24.6.23q0,.42.09.9l-.78.18c.18.36.53.16.76.4,0,.57,0,1.21,0,1.84.22.06.32,0,.31-.22,0-.56,0-1.12,0-1.75l.71,0a9.53,9.53,0,0,1,.13,2.21H23c-.12-3.81.12-7.56.33-11.37.2,0,.34.05.46.09l2,.83c.3.12.53.28.51.66a9.48,9.48,0,0,0,0,1.07c0,.83,0,1.66.06,2.48.06,1.58.13,3.15.18,4.72,0,.5-.05,1-.08,1.55h-.91l0-2.16.4,0,.32-.08v-.12l-.7-.19c0-.29,0-.6-.05-.92L26,37.7l0-.1-.53-.21,0-.66.49-.28c-.16-.21-.57-.14-.47-.54a2.49,2.49,0,0,0,0-.72C25.49,34.92,25.51,34.66,25.89,34.55Z"/><path class="cls-1" d="M24.44,34.55l.78,0c0,.53,0,1.06-.08,1.63l-.79,0Z"/><path class="cls-1" d="M25.2,34.29l-.76-.09c0-.48,0-.89.07-1.37l.76.15Z"/><path class="cls-1" d="M25.13,38.76l-.76,0c0-.33,0-.64,0-1l.83,0C25.17,38.08,25.15,38.39,25.13,38.76Z"/><path class="cls-1" d="M25.26,37.48l-.87-.1c0-.27,0-.52,0-.81h.76C25.18,36.84,25.21,37.11,25.26,37.48Z"/><path class="cls-1" d="M23.71,10.3c-.31-.6-.62-1.21-1-1.78-1.1-1.75-2.23-3.47-3.31-5.22-.62-1-1.17-2-1.75-3.07C17.62.14,17.5,0,17.47,0a.52.52,0,0,0-.29.25c-.52,1.21-1,2.43-1.54,3.64-.24.57-.47,1.14-.72,1.71-.17.4-.35.79-.52,1.16h0v0c0,.11,0,.24,0,.36a7.1,7.1,0,0,1,2.33.26c.12.58.23,1.09.33,1.6a.7.7,0,0,1,.15.51h0l.05.1h0l0-.12c.46.62.86,1.11,1.21,1.65a4.5,4.5,0,0,1,1,1.63,4,4,0,0,1,.51.49,20.9,20.9,0,0,0,2.21,2.64c0-.11.07-.22.09-.33a27.75,27.75,0,0,1,1.5-4.54A.8.8,0,0,0,23.71,10.3Zm-1.2-1.69L21.37,9l-.69-1.81.75-.28ZM21,11.23c-.35-.5-.25-1.09-.53-1.62l.78-.29c.19.53.38,1,.57,1.6Zm.91,0c.17.53.32,1,.49,1.51l-.95.45c-.14-.55-.27-1-.41-1.61ZM17.93,6.57a7.94,7.94,0,0,1,1.54.8.27.27,0,0,1,.1.15c.17.48.32,1,.51,1.52a3.69,3.69,0,0,1-1.54-.79c-.12-.1-.23-.22-.36-.32a.5.5,0,0,1-.24-.6A2.79,2.79,0,0,0,17.93,6.57Zm1.4.36L18,6.23V5.34C18.71,5.45,19.11,5.91,19.33,6.93Zm0-.85.51-.31L20.43,7l-.76.11C19.56,6.76,19.45,6.44,19.34,6.08Zm.46,1.45.68-.34.68,1.87-.78.13C20.18,8.63,20,8.11,19.8,7.53Zm1.45-.89-.66.26c-.17-.39-.32-.77-.48-1.16l.43-.23ZM19.53,4l.85,1.2-.4.21a4.84,4.84,0,0,1-.56-1.34Zm.2,1.49c-.37.19-.57.13-.67-.2a5.45,5.45,0,0,1-.2-.69A1.59,1.59,0,0,1,19,4.18h.16ZM18.48,2.57c.18.42.35.84.57,1.37-.2,0-.38,0-.39,0A1.63,1.63,0,0,1,18.48,2.57Zm-1.19-.12c.28.22.28.22.28.89C17,3.11,17,3.11,17.29,2.45Zm.3,2.2-.78-.41c.06-.27.11-.51.16-.76C17.68,3.71,17.71,3.76,17.59,4.65ZM17.68,6c-.2-.11-.39-.19-.56-.29s-.36-.25-.6-.42c.07-.24.14-.46.21-.68C17.84,5.08,17.75,4.81,17.68,6ZM17,1.29a.46.46,0,0,1,0,.58l-.13,0Zm0,.89-.19.76C16.49,2.57,16.51,2.48,17,2.18Zm-.61.9.37.18L16.55,4C16,3.74,16,3.74,16.37,3.08ZM15.71,6.9l-1-.1L15,6C15.84,6.37,15.84,6.37,15.71,6.9Zm-.53-1.2c.22-.55.44-1.08.69-1.67l.58.32L16.27,5c-.25.17-.43-.43-.68,0l.59.39L16,6.15Zm.89.92.39.31C16.2,6.94,16.2,6.94,16.07,6.62Zm.34-.1a.57.57,0,0,1-.14-.41,2.1,2.1,0,0,1,.18-.51c.39.24.76.47,1.11.71a.33.33,0,0,1,.13.25c0,.25,0,.51,0,.87C17.17,7.08,16.77,6.82,16.41,6.52ZM17.35,9C17,8.45,17.19,7.93,17,7.42,17.73,7.84,17.79,8.14,17.35,9Zm.47-6.28c.39.22.31.58.45.86C17.85,3.56,17.85,3.56,17.82,2.7ZM18,4c.64.23.63.79.79,1.28C17.91,4.93,17.82,4.86,18,4ZM17.77,9c.06-.26.09-.53.13-.79.07,0,.12,0,.14,0a4.4,4.4,0,0,0,1.69,1.09,1.08,1.08,0,0,1,.68.88c0,.21.09.42.17.76-.91-.41-1.7-.73-2.46-1.1C17.63,9.62,17.64,9.56,17.77,9Zm1.63,3.07a14.4,14.4,0,0,0-1.15-1.68,6.85,6.85,0,0,1,2,.77,1.13,1.13,0,0,1,.58.72c.1.36.18.72.31,1.21C20.45,12.78,19.76,12.8,19.4,12.07Zm2,2.91-1.26-1.87C21.31,13.43,21.51,13.73,21.41,15Zm.59.46a4.78,4.78,0,0,1-.48-2l1-.47C22.72,13.91,22.17,14.62,22,15.44Zm.66-2.77c-.2-.54-.37-1-.56-1.52l1.41-.31C23.12,11.45,23.24,12.13,22.66,12.67ZM22,10.91c-.18-.55-.36-1.07-.55-1.64l1.22-.36c.28.51.54,1,.86,1.61Z"/><path class="cls-1" d="M18.55,41.46c-1.87.08-3.68.42-5.57.39,0-.33,0-.63,0-.93,0-.87,0-1.73,0-2.6s0-2,.05-3c0-.78.19-1.56.29-2.34,0-.2,0-.4.05-.6a52.29,52.29,0,0,1,.71-5.28c.3-1.56.55-3.13.79-4.71.4-2.59.81-5.18,1.44-7.73.26-1.06.4-2.14.61-3.21.09-.47.19-.94.32-1.53.46.63,3.8,5.43,4.34,6.23a.91.91,0,0,1,.1.8c-.3,1.2-.58,2.39-.83,3.6s-.51,2.65-.74,4c-.14.78-.24,1.56-.34,2.34-.08.62-.13,1.24-.2,1.86s-.16,1-.21,1.56c-.16,1.69-.32,3.38-.45,5.07-.13,1.87-.23,3.75-.35,5.62C18.59,41.13,18.57,41.25,18.55,41.46Zm-3-10.76.49.29c-.07.42-.14.83-.21,1.2-.24.17-.55-.2-.72.18l.65.22-.14,1.34c-.22.19-.49-.12-.64.22l.49.2c0,.2.09.4.14.6h.13l.22-.58,1.08.23c0,.49-.05.91-.07,1.39l-2.64-.27c-.21-.52.25-1-.2-1.49-.06.47-.12.93-.18,1.37l-.62.06,0,.1.6.27c0,.61-.06,1.17-.09,1.74l-.47.21.49.28q0,.57,0,1.08l-.59.22.35.15.21.08c.09,1.07.09,1.07.34,1.24v-1.3l2.29,0c.26.37-.19.85.34,1.08l.11-1.06c.78,0,.78,0,.85-.32L17,39.37c0-.37.07-.7.1-1,.34-.25.74.07,1.06-.28l-1.05-.22a4.14,4.14,0,0,1,.22-1.53c.26-.09.53.1.75-.19l-.77-.23.11-1.15c.3-.13.59.12.85-.21l-.83-.28c.05-.43.1-.88.15-1.33.34,0,.64.24,1.07,0l-1-.34c.05-.36.1-.71.14-1,.32-.21.68.19,1-.23l-.89-.28.25-1.5.67-.08v-.12l-.59-.25c0-.38.09-.74.12-1.06.25-.12.54.09.7-.24l-.62-.27c.08-.45.2-.9.24-1.36s.07-.67.62-.7l-.47-.35c.07-.35.14-.68.21-1l.65-.09c0-.09,0-.12,0-.12l-.52-.3c.18-.95.35-1.9.53-2.87l.64.16.07-.12-.64-.49L19.92,19l.52.08,0-.09L20,18.5c.07-.27.15-.52.21-.78a.76.76,0,0,0-.06-.79l-.45,1.42-.92-.66c.1-.41.21-.81.31-1.2l.59.22.09-.14-.5-.49c-.06-.34.25-.62.11-.94-.41.07-.25.51-.51.66l-.24-.18c-.9-.67-.71-.48-.46-1.43.06-.24.19-.47,0-.75-.16.44-.31.88-.46,1.33l-.79-.36c.09.53.58.53.69.87l-.35,1.29c-.44.11-.66-.57-1.22-.23l1.11.71-.39,1.61-.86-.35c0,.55.58.45.69.8-.32,1.71-.65,3.43-1,5.11l-.5.19.44.36q-.2.9-.39,1.77l-.57,0,0,.11.48.34c0,.93-.08,1.16-.51,1.38a.93.93,0,0,1,.24,1c0,.22-.09.44-.11.66a.77.77,0,0,0,.11.27h.1c.09-.53.18-1.05.28-1.61l1.2.32-.25,1.53Z"/><path class="cls-1" d="M12.66,41.84l-1.37.1a9.32,9.32,0,0,1,0-2.36c.06-.92.11-1.84.14-2.77,0-.73,0-1.45.05-2.18.07-1.94.14-3.87.23-5.8,0-.77.16-1.53.2-2.3.07-1.46.12-2.93.18-4.4.07-1.81.17-3.63.21-5.44s0-3.79,0-5.68c0-.77,0-1.54.08-2.3a.52.52,0,0,1,.17-.37c.26-.2.55-.37.92-.61,0,.64.06,1.15.06,1.67,0,2.16,0,4.31,0,6.47,0,1.34,0,2.67-.05,4s0,2.83,0,4.24c-.05,1.65-.15,3.3-.22,5,0,.14,0,1.94-.1,2.7-.19,1.81-.36,3.62-.46,5.43-.08,1.35,0,2.71-.06,4.06C12.63,41.44,12.65,41.62,12.66,41.84Z"/><path class="cls-1" d="M12,15.07c0,.77,0,1.53,0,2.3q-.19,4.51-.43,9c-.1,2-.25,3.91-.33,5.87-.08,1.72-.08,3.44-.14,5.15,0,1.07-.13,2.14-.19,3.21,0,.42-.05.84-.07,1.31l-2,.05a13.19,13.19,0,0,1,.08-1.81c0-.24,0-.48,0-.72,0-1.11-.06-2.22,0-3.33,0-.66.13-1.32.19-2,.09-.88.15-1.76.27-2.64.27-2,.57-3.91.86-5.87.19-1.28.38-2.56.58-3.83.25-1.58.5-3.15.76-4.73.11-.67.24-1.34.35-2Z"/><path class="cls-1" d="M13.66,28.12c.24-6.84.19-13.66.12-20.52a7.38,7.38,0,0,1,2.92.22c.12.59.24,1.12.34,1.64a.87.87,0,0,1,0,.36c-.25,1.28-.51,2.57-.77,3.85s-.48,2.25-.7,3.38c-.16.81-.3,1.62-.44,2.43l-1,5.91c-.08.51-.15,1-.23,1.55Z"/><path class="cls-1" d="M17.44,23l-.92-.24c.11.5.57.34.82.68-.05.34-.12.77-.21,1.26L16,24.44A26.22,26.22,0,0,1,17,19.22l1.05.53C17.91,20.82,17.61,21.86,17.44,23Z"/><path class="cls-1" d="M16.74,38l-2.58-.14c0-.59.06-1.18.1-1.86l2.61.3A7.23,7.23,0,0,1,16.74,38Z"/><path class="cls-1" d="M18.32,19.9l1.07.64c-.19,1-.38,2-.57,3l-1.09-.38A22.73,22.73,0,0,1,18.32,19.9Z"/><path class="cls-1" d="M14.15,39.46c0-.49,0-.86.07-1.26l2.57.13-.17,1.12Z"/><path class="cls-1" d="M16.74,27l-1.27-.34.38-2,1.23.28C17,25.68,16.86,26.32,16.74,27Z"/><path class="cls-1" d="M18.13,27.48,17,27.13c.11-.68.23-1.32.35-2l1,.25A8.74,8.74,0,0,1,18.13,27.48Z"/><path class="cls-1" d="M17.59,31l-1.18-.28c.09-.57.17-1.09.27-1.67l1.15.3Z"/><path class="cls-1" d="M18.11,19.44c-.16-.07-.29-.11-.41-.17L17,18.86c.13-.55.25-1.07.38-1.67l1.09.64C18.36,18.36,18.24,18.88,18.11,19.44Z"/><path class="cls-1" d="M16.42,28.71l-1.24-.35c.08-.46.15-.89.22-1.36l1.31.38C16.61,27.83,16.52,28.23,16.42,28.71Z"/><path class="cls-1" d="M16.09,32.62l1.2.25c-.06.48-.12.91-.18,1.42l-1.18-.22A5.51,5.51,0,0,1,16.09,32.62Z"/><path class="cls-1" d="M18.56,17.52l-1.08-.67.39-1.49,1,.85C18.78,16.63,18.68,17,18.56,17.52Z"/><path class="cls-1" d="M18.73,18l.93.64-.22,1.53a5.11,5.11,0,0,1-.88-.5.58.58,0,0,1-.13-.47C18.5,18.84,18.61,18.48,18.73,18Z"/><path class="cls-1" d="M17.49,31.34a3.68,3.68,0,0,1,0,.49,7.34,7.34,0,0,1-.16.75l-1.19-.19c.09-.48.16-.9.24-1.37Z"/><path class="cls-1" d="M17,27.46l1.1.32-.18,1.3-1.13-.31Z"/><path class="cls-1" d="M17.62,23.43l1.14.49L18.5,25.1l-1.08-.29C17.49,24.34,17.55,23.92,17.62,23.43Z"/><path class="cls-1" d="M3.78,32h0A.59.59,0,0,1,4,32a4.07,4.07,0,0,0,.7,0,16,16,0,0,1,.72-2.39c.32-.86.63-1.72.94-2.58a2.9,2.9,0,0,1,.25-.58,4.57,4.57,0,0,1,.35-.7c-.15-.56-.3-1.12-.46-1.68-.3-1-.61-2-1-3a20.46,20.46,0,0,0-1.06-3c-.1.07-.14.08-.16.11-.44,1-.9,2-1.31,3A67.35,67.35,0,0,0,.66,28.13a13.33,13.33,0,0,0-.59,2.79C0,31.48,0,32,0,32.6a6.08,6.08,0,0,1,1.53-.22C2.27,32.23,3,32.11,3.78,32ZM2.23,26.37c0-.33.15-.43.44-.44.11.7,0,1-.48,1.33C2.2,26.93,2.24,26.65,2.23,26.37Zm.32,1c-.09.62-.16,1.13-.25,1.71l-.6.2C1.92,28.61,1.75,27.88,2.55,27.39Zm.89,4.38c0-.86-.08-1.71-.11-2.57a2.44,2.44,0,0,1,.35-.12,1.19,1.19,0,0,1,.32,0c0,.86.07,1.69.11,2.56Zm1.35-9.36.1.86-.6.33C4.13,23,4.16,22.91,4.79,22.41Zm-.51-.05c0-.42.2-.41.44-.37ZM4.2,23.89l.69-.32c0,.12.13.25.09.31-.2.32-.43.63-.65.94l-.15-.07c0-.19,0-.37,0-.55S4.19,24,4.2,23.89Zm.78.59c.28.54.28.54-.19.84l-.57.37-.12-.1A3.89,3.89,0,0,1,5,24.48Zm.23,1.76a11.61,11.61,0,0,1-1,1.6c0-.52,0-1,0-1.55A.43.43,0,0,1,4.31,26c.25-.2.51-.38.8-.59A.74.74,0,0,1,5.21,26.24Zm.3,2.44a17.52,17.52,0,0,0-.94,2.63.67.67,0,0,1-.11.18l-.11,0-.09-2.62a.61.61,0,0,1,0-.33l1.07-2.06c.13.63.26,1.13.32,1.63A1.26,1.26,0,0,1,5.51,28.68Zm-.06-3.26.26-.4.13.07-.24.4Zm1.17.1a.63.63,0,0,1,0,.38c-.22.5-.45,1-.69,1.52-.44-1-.34-1.52.52-2.6C6.49,25.07,6.57,25.29,6.62,25.52ZM6.3,24.25l-.82.64c-.3-.82-.28-.89.51-1.52Zm-.49-1.4-.58.29c-.35-.62-.29-1,.23-1.35Zm-1-3.06.51,1.5L5,21.5A3.55,3.55,0,0,1,4.84,19.79Zm-.37.36.18,1.28c0,.21-.08.26-.3.26A3.65,3.65,0,0,1,4.47,20.15ZM4,28.44c0,.29-.12.33-.69.36l.11-2.12.53-.39C3.92,27.07,4,27.76,4,28.44Zm.18-8.34c-.11.64.13,1.33-.29,1.92A3.12,3.12,0,0,1,4.13,20.1Zm-.2,2.2c.11.46.11.46-.31.54C3.5,22.49,3.62,22.33,3.93,22.3ZM3.51,24l0-.84.36,0C4,23.83,4,23.83,3.51,24Zm0,.5c0-.14.24-.23.46-.43l-.07,1.27-.46.09A5.26,5.26,0,0,1,3.48,24.51Zm-.14,1.25.66.09c-.29.22-.45.36-.69.55Zm-.18,6.09-1,.16c0-.4,0-.73.06-1.06s.16-.86.24-1.29.07-.35.6-.39Zm0-7.23h.07l0,.75H3.11ZM3.07,27c0,.58,0,1.15,0,1.73,0,.1-.2.19-.31.29L2.57,29c.11-.66.21-1.31.32-2Zm-.15-3.73.15,0a2.07,2.07,0,0,1-.34,1.31l-.13,0C2.71,24.16,2.81,23.73,2.92,23.29Zm-.15,1.59c.13.66.12.67-.38.77A.61.61,0,0,1,2.77,24.88Zm-.32-1.47.15.05c-.26.58-.12,1.31-.78,1.74Zm-1,3.22c.06-.17.32-.27.55-.44-.09.94-.15,1.8-1.13,2.27C1,27.83,1.18,27.22,1.41,26.63Zm.2,1.66c-.06.35-.09.63-.16.89a.46.46,0,0,1-.24.27,3,3,0,0,1-.53.15A2.66,2.66,0,0,1,1.61,28.29ZM.3,32.34c0-.71.06-1.38.12-2.06A.55.55,0,0,1,.68,30a5.82,5.82,0,0,1,.69-.25c-.16.89-.3,1.71-.45,2.54Zm1.16-1.62.12-.61c.06-.4,0-.56.67-.62L1.88,32l-.65.15C1.31,31.65,1.39,31.19,1.46,30.72Z"/><path class="cls-1" d="M1.41,32.92c.8-.16,1.61-.29,2.42-.42a.52.52,0,0,1,.59.52c0,.12,0,.24,0,.36,0,1.65,0,3.31,0,5l0,2.85c0,.29,0,.59,0,1l-4,.13a5.48,5.48,0,0,1-.16-.76c-.05-.92-.09-1.85-.12-2.77a44.25,44.25,0,0,1,0-5.15c0-.19,0-.38.22-.51A2.82,2.82,0,0,1,1.41,32.92Zm2.05,6.63c.23-.1.57,0,.48-.38l-.51-.08,0-1.67.6-.31L3.35,37c0-.35,0-.67-.06-1s0-.65-.07-1,.23-.6-.13-1c-.32,1.09.08,2.07-.06,3.06l-1,.09L2,36.44c-.5.14-.09.57-.39.82H.62a1.2,1.2,0,0,0-.06.33c0,.36.09.72.11,1.08s0,.49-.39.78l.43.29c0,.51.05,1,.08,1.53.3-.37.59-.58,1-.39.18.19-.14.58.32.72l0-.74,1,.05c.05.26.09.48.13.71h.16L3.62,41l.45-.26-.55-.2C3.5,40.17,3.48,39.87,3.46,39.55Z"/><path class="cls-1" d="M8.25,40.18c-.28-.32-.28-.32-.33-1.83L8.48,38l-.55-.12c0-.56-.27-1.14,0-1.74-.23-.23-.23-.23-.42-1.61L8,34.14,7.49,34s0,0,0-.05c0-.35-.09-.71-.14-1.1l.33-.29c0-.06,0-.12-.05-.12-.29,0-.4-.21-.45-.48-.09-.47-.19-.95-.3-1.42a.66.66,0,0,0-.28-.35c-.05.76.33,1.44.3,2.2l-.33.11-.32.08L6,32.07c-.32.14-.24.43-.3.66L5,33l0,.13.78.08c.06.42.12.83.19,1.25l-.68.29c.24.23.46.09.71.09.08.5.15,1,.23,1.54l-.49.12c-.32-.16-.06-.59-.48-.66-.08.32-.15.63-.24,1a2,2,0,0,1,.16,2c.49.44.29,1,.36,1.57L5,40.68l.57.21-.06,1.22-.72,0c0-.4-.06-.8-.07-1.2,0-1.25,0-2.51-.06-3.76,0-.93-.06-1.86-.08-2.78A12,12,0,0,1,5.56,30c.33-.91.66-1.82,1-2.73a1.48,1.48,0,0,1,.5-.86A47.58,47.58,0,0,1,8.55,42a.84.84,0,0,1-.24.06.5.5,0,0,1-.19,0c0-.44-.08-.88-.07-1.32C8.05,40.5,8.18,40.35,8.25,40.18Z"/><path class="cls-1" d="M6.75,36.6l.76-.16c0,.54.1,1,.16,1.57l-.76.22C6.86,37.67,6.8,37.17,6.75,36.6Z"/><path class="cls-1" d="M6.9,38.57l.76-.21c0,.6,0,1.15.08,1.76l-.67.07Z"/><path class="cls-1" d="M6.54,34.69l.69-.18.23,1.57-.72.19C6.67,35.73,6.61,35.24,6.54,34.69Z"/><path class="cls-1" d="M6.72,40.25,6,40.37l-.07-1.54.69-.18C6.65,39.2,6.69,39.7,6.72,40.25Z"/><path class="cls-1" d="M6.59,38.33l-.67.11c-.07-.53-.14-1-.22-1.59l.66-.18Z"/><path class="cls-1" d="M7.07,40.56l.67-.13L7.81,42l-.64,0Z"/><path class="cls-1" d="M6.46,34.36,6.21,33l.68-.19c.3.39.15.86.31,1.32Z"/><path class="cls-1" d="M6.74,40.58c0,.52,0,1,0,1.45l-.62.11c0-.49-.06-.94-.09-1.43Z"/><path class="cls-1" d="M3.16,39.18l-1,0A8.68,8.68,0,0,1,2,37.5l1-.15Z"/><path class="cls-1" d="M1.82,39.25H1.09a4.19,4.19,0,0,1-.15-1.59l.78-.14C1.75,38.13,1.78,38.66,1.82,39.25Z"/><path class="cls-1" d="M3.19,40.57l-1-.06,0-1,1.06-.08C3.18,39.83,3.18,40.16,3.19,40.57Z"/><path class="cls-1" d="M1.85,39.56l-.05,1L1,40.6c0-.33-.06-.62-.09-1Z"/><path class="cls-1" d="M66.73,66.67c-.13-.43-.3-.85-.46-1.27a6.81,6.81,0,0,0-3.21-3.46,3.83,3.83,0,0,0-3.72-.44,10.08,10.08,0,0,1,1.1-3.19A2.64,2.64,0,0,0,61,56.75a8,8,0,0,0-.15-1c-.35.11-.7.2-1,.33a.92.92,0,0,0-.32.27l-2,2.25a1,1,0,0,1-.2-.23,6.53,6.53,0,0,0-3.64-3.15c-.29-.12-.85-.24-.94-.11a2.17,2.17,0,0,0-.29,1.14c0,.26.2.51.28.78s.19.71.29,1.08c-.29.17-.51.29-.7.42a1.16,1.16,0,0,0-.09,2.06c.19.15.43.25.6.41s.36.37.33.5c-.2.75.37,1,.77,1.29a23,23,0,0,0-2.45,2.5,10.3,10.3,0,0,1-.82,1,12.33,12.33,0,0,0-.72,2.2,11.53,11.53,0,0,0-.3,1.64c-.31,3.18,1.49.77,1.7.4a6.58,6.58,0,0,0,.35-.87c.15-.39.26-.8.44-1.18a1.57,1.57,0,0,1,.95-1c-.08.33-.14.52-.17.72a3.35,3.35,0,0,0-.13.92c0,.29.16.68.37.79a.6.6,0,0,0,.4,0A3.88,3.88,0,0,0,54.2,69a4.26,4.26,0,0,0,.43-1c-.08-.25,0-.53.5-.84.12.33.25.66.43,1.12,1-1.08,1.11-2.25,1.83-3.36,3.34,10.54.53,14.4.33,15,.7.85,1.64.22,2.46.64l.06-.21c.08-.79.49-3.16.49-3.38,0-1.36,0-2.72-.07-4.07a17.85,17.85,0,0,0-1.93-7.54,4.55,4.55,0,0,1-.26-.88,2.68,2.68,0,0,1,1.69,1.55c.15.31.26.65.39,1s.24.55.6.42.36-.37.27-.69-.2-.88-.3-1.32l.22-.1c.35.61.7,1.23,1.06,1.84a4.41,4.41,0,0,0,.63.94A.57.57,0,0,0,64,68a1.63,1.63,0,0,0,0-.9c-.12-.43-.36-.84-.49-1.27a4.29,4.29,0,0,1,0-1c.44.43.7.65.93.9.44.5.86,1,1.28,1.52.21.24.41.5.79.28S66.82,67,66.73,66.67ZM53,60a.69.69,0,0,0-.11-.13l.08,0,.11.13Z"/></g></g></g></svg>