<svg xmlns="http://www.w3.org/2000/svg" viewBox="0 0 89.28 137.41"><defs><style>.cls-1{fill:#bb764e;}.cls-1,.cls-2,.cls-3{fill-rule:evenodd;}.cls-2{fill:#22a3dd;}.cls-3{fill:#de2726;}.cls-4{fill:#231f1e;}</style></defs><g id="圖層_2" data-name="圖層 2"><g id="event"><g id="deco_rs"><path class="cls-1" d="M5.69,133.67l-1.92-25.3,6.11-.21s1.81-1.64,1.51-3.32S9,101,9,101s.32-8,1.38-8.64l1.06-.66L11,78.56,9.34,75.87a7,7,0,0,1,2-1c.52,0,10.48-.51,10.48-.51l13-.8.14-8.8-1.76-4.88,2-7.29,6.09-.45,7.71-.28,3.21.09H53.7l3,12-1.83-.47-2.26-4.46-2.5,4.68s-6,11-4.88,12.53A11,11,0,0,0,48.54,79l10,.53L62,88.35l3.35,2.48,3.51-1.2-3.21-6.7,1.17-3L69.36,75l-.54-7.33,12.89-.71,0,10s3.39,3.43,3.22,3.95.74,3.56.74,3.56l-1.88,6L82,96.18,83.71,104,87,110.49s2,5.16,1.83,5.61-.29,17.34-.29,17.34l-7.61.73-21.37,1.72-1-19.6L40.89,117.8l.82,9.57-14.29,2.11-4.33.36-17.4,3.83Z"/><path class="cls-2" d="M26.2,57.16s-2.88,5.08-2.41,8.7,1.62,5.71.53,5.85-1.78.83-2.47-.25a14.65,14.65,0,0,1-1.77-3.79c-.12-.82-.64-3,.26-4.22a30.11,30.11,0,0,0,2.5-3.92,15.94,15.94,0,0,1,1.59-2.41c.18-.22,1.77,0,1.77,0Z"/><path class="cls-2" d="M27.84,58.45l1.24,13s1.6-.29,1.64-.68,0-5.44,0-5.44-.6-2.79-.73-3.22-2.11-3.66-2.11-3.66Z"/><path class="cls-3" d="M72.54,48s-1.93,3.1-3.05,4.52S66,56.65,66.17,58s.56,6.34,1,6.94,1.55,1.85,1.55,1.85l12.06-1.33s2-5,1.34-6.81a11.85,11.85,0,0,0-3-4.5c-.77-.5-4.82-7.86-4.82-7.86L72.54,48Z"/><path class="cls-4" d="M44.61,36.71l-.16-.13-.08.44a.9.9,0,0,1-.14.19c-.13.15-.42.51-.08.82l.39.33,0-.53s.09-.13.14-.18a.72.72,0,0,0,.24-.47.61.61,0,0,0,0-.11A1.67,1.67,0,0,0,45.83,36l.09-.08c.56-.49,1.4-1.24,1-1.8l-.21-.29-.2.3a11.56,11.56,0,0,1-.76,1,7.66,7.66,0,0,0-1.13,1.62Zm40.8,96.47h-.94c-.61,0-1.22,0-1.85-.05s-1.3,0-2,0a17.17,17.17,0,0,0-2,.1c-.12,0-.26,0-.41,0a2.2,2.2,0,0,0-1.64.56l-.16.18.19.16a2.19,2.19,0,0,0,1.43.38,3.69,3.69,0,0,1,.54,0h-.24l-.68,0-.7,0,.56.42a2.24,2.24,0,0,0,1.4.4c.26,0,.5,0,.74,0h.12a24,24,0,0,0,2.69-.42,21.6,21.6,0,0,1,2.3-.38l.68,0h.44a3.83,3.83,0,0,0,1.87-.25,2.72,2.72,0,0,0,.68.13.71.71,0,0,0,.73-.53l.07-.24-.23-.07a12.05,12.05,0,0,0-3.64-.41ZM17.09,118.63h-.67l-.05.18a8.69,8.69,0,0,0,.21,4.46l.15.3.25-.22c1.3-1.19.53-3.46.16-4.55l-.05-.17ZM36.59,123l.09-.43-.41.13h0a.7.7,0,0,0-.1-.26c-.08-.34-.16-.7-.23-1a12.66,12.66,0,0,0-.56-2.12l-.06-.15h-.16a1.75,1.75,0,0,1-.82-.32,2.14,2.14,0,0,0-1.3-.38h-.1l-.07.08c-.82.87-1.22,3.41-1,4.8.15.79.58,1.25,1.17,1.2l.19,0,0-.2a6.55,6.55,0,0,0-.14-1.71c-.18-1.1-.38-2.34.1-2.91-.12,1.77-.2,4.1.94,5l.1.08.12,0a4.09,4.09,0,0,0,.61-.24,1,1,0,0,1,.74-.16l.36.11,0-.37a.59.59,0,0,1,.2-.5,1.23,1.23,0,0,0,.3-.52Zm-1.58.36h0a1.44,1.44,0,0,1-.31.19,7.38,7.38,0,0,1-.32-1.74,3.45,3.45,0,0,0,.14.34l.07.14h.15l.12,0,.14,0c0,.22,0,.47.07.71,0,.08,0,.16,0,.24l-.08,0Zm-13.17-4,0-.32-.3.11-.11,0a.68.68,0,0,1-.08-.22.79.79,0,0,0-.58-.72l-.39-.07.1.38c.05.18,0,.25,0,.27s-.2.1-.32.12L20,119v.21c0,.87,1.43,13.88,2.46,14.92l.34.34.08-.47a11.28,11.28,0,0,0,.28-3.94c-.24-3-1-7.57-1.27-10.68Zm19.89,13.83h.16a9.82,9.82,0,0,0,.81,2.07l.15.29.24-.22a1,1,0,0,0,.12-1.08c-.13-.39-.15-.55.06-.7l.56-.41-.76,0h0c0-.66,0-1.33,0-2-.07-3.67-.16-7.82-.56-11.73l0-.19-.19,0a2,2,0,0,0-.85,0l-.19,0a.55.55,0,0,1-.2,0l-.51-.21.18.52a2.19,2.19,0,0,1-.52,2.12c-.05-.28-.08-.6-.11-.91a2.59,2.59,0,0,0-.68-2l-.07-.06h-.09a.71.71,0,0,0-.63.45.52.52,0,0,0-.62-.14l-.18,0v.18c0,.38,0,.8-.06,1.25a8.48,8.48,0,0,0,.17,3.23l.05.13.15,0a.48.48,0,0,0,.46-.15,3.35,3.35,0,0,1,.18,1l-1.48,0c-1.93,0-3.77.1-5.56.21-1.46.08-2.86.15-4.26.18l.07-.24a2.88,2.88,0,0,0,.12-.77,1.33,1.33,0,0,0,.83.35h.06A.6.6,0,0,0,29,124c.06.3.16.65.57.73l.17,0,.09-.15a2.29,2.29,0,0,0,.16-1.34c0-.22,0-.45,0-.68.05-1.46.09-2.61-.56-3.27a.61.61,0,0,0-.17-.15l.09-.05-.13,0a2.61,2.61,0,0,0-1.58-.4h-.2l-.07.08c-1.27,1.41-1.59,4.69-.2,6.12l.14.14h-.68c-.87,0-1.67,0-2.45-.07-1.29-.09.07.69.44.83l-.24.08L24,126l.2.26a1.11,1.11,0,0,0,.92.33,6,6,0,0,0,.92-.09l.08,0a6.19,6.19,0,0,1,.16,1.1,3.85,3.85,0,0,0,.48,1.84,16.72,16.72,0,0,1-1.92-.17l-.32,0,0,.31c.08.83,1,.83,1.41.83h.43a73.81,73.81,0,0,0,11.2-.8l0-.5H36.41a1.92,1.92,0,0,1-.61-.08,6.87,6.87,0,0,0-.09-1.4,5.16,5.16,0,0,1-.05-1.42H38c0,.14,0,.32-.05.53-.1,1.11-.24,2.63.43,3.21l.45.38,0-.59c0-.37,0-.88,0-1.43a14.55,14.55,0,0,0,0-2.1h.14c.4,2,.63,4.08.85,6.26l0,.34.32-.14.13-.06v0a.71.71,0,0,0,.31.32.38.38,0,0,0,.23.09.42.42,0,0,0,.36-.27.54.54,0,0,0,.55.42Zm-11.32-4.05h0v.29c-1,.05-2,.08-3,.06a6.25,6.25,0,0,0-.21-1.51,6.17,6.17,0,0,1-.19-1.48c.34,0,.68,0,1-.06.51,0,1-.07,1.47-.07l.63,0c0,.3.08.58.13.85a7.63,7.63,0,0,1,.15,1.9Zm.33.28h0l.09-.08c.58-.51.43-1.46.29-2.3,0-.26-.08-.5-.1-.71.65,0,1.21,0,1.75,0a9.66,9.66,0,0,1,1.94,0,25.33,25.33,0,0,0,.35,2.76c-1.21.13-2.74.28-4.32.38Zm9.36-6h0a2.35,2.35,0,0,1,.32-.72c-.05.13-.11.25-.16.36l-.16.36Zm.17,3.5h0a1.05,1.05,0,0,1,.16-.58.23.23,0,0,1,.09-.08,3.74,3.74,0,0,1-.25.66Zm1.09-2.71h0l0-.07a3,3,0,0,1,0,.6h-.26a3.25,3.25,0,0,1,.23-.54ZM41,130h0c-.12.35-.24.7-.34,1.06V131l.15-.69a2.86,2.86,0,0,1,.24-.43L41,130Zm.1-.34h0a.3.3,0,0,0-.15-.21,6.26,6.26,0,0,1,.52-1.23,5.72,5.72,0,0,1-.36,1.48v0ZM41,92l-.18,0a.9.9,0,0,0-.66.21.4.4,0,0,1-.4.1l-.25-.06,0,.25a10.32,10.32,0,0,0,0,3c0,.4.07.81.09,1.21s0,.81,0,1.2c0,1.45,0,2.82.84,3.83l.16.2.19-.17a.51.51,0,0,0,.17-.23,1.32,1.32,0,0,0,.62.29l.23,0,.06-.22c.7-2.63,0-6.28-.8-9.5L41,92Zm32-7.49h-.23l-.06.14a2.2,2.2,0,0,0,.86,2.69l.19.16.16-.19a2.1,2.1,0,0,0,.28-2.07,1.25,1.25,0,0,0-1.2-.73ZM55.46,85.77c.07,1.07.14,2.17.87,2.71l.13.09.11-.06a.73.73,0,0,0,.15.25.57.57,0,0,0,.43.16h.27v-.5c0-1.62.09-3.84-.64-5l-.17-.26-.22.21a.4.4,0,0,1-.17.12.41.41,0,0,1-.12,0,.81.81,0,0,0-.35-.09.93.93,0,0,0-.52.18l-.17.12.08.19a5.77,5.77,0,0,1,.31,1.88ZM39,77.36h.08l.07,0,0,0a.7.7,0,0,0,.15.39.53.53,0,0,0,.39.15H40v-.24c0-.42,0-1,.06-1.67a44.81,44.81,0,0,0,0-5.54,2.09,2.09,0,0,0-1.23-1.69l-.29-.15-.07.32c0,.12-.1.18-.24.29a1.12,1.12,0,0,0-.32.33l-.08.12.07.13a3.2,3.2,0,0,1,.17,2.08c0,.34-.09.7-.1,1.08a10.27,10.27,0,0,0,.11,1.61c0,.29.07.55.09.8a3.16,3.16,0,0,1,0,.43c0,.57-.08,1.43.81,1.6Zm3.2-17.78L42,60l.42,0a1.12,1.12,0,0,0,.31-.1l-.15.36.44-.06,1-.18a16.21,16.21,0,0,1,3-.33,13.29,13.29,0,0,1,1.64.11h.08l0,0a.54.54,0,0,0,.4.19l.19,0,.06,0a1.91,1.91,0,0,0,.46-.43l.18-.2.17-.17-.15-.17a5.25,5.25,0,0,0-3.81-1.28c-1.58,0-3.63.51-4.19,1.95Zm-32.13,41.8c-2.2-1.14-3.92-4.88-4.39-5.84L5.5,95.2l-.24.29c.08,1.51-2.57,5.61-3.54,6.14-3.24,3.08-1.24,6.86.59,7.6v.15l.14.06a1.7,1.7,0,0,1,.65.45c.28,6.24,1.65,18.48,1.19,24.42l0,.24.24,0c.19,0,.25.16.33.58a1.18,1.18,0,0,0,.47.89l.18.09.13-.14c.31-.34.22-.89.13-1.42a2.77,2.77,0,0,1-.07-.9l.09.59a5.17,5.17,0,0,0,.66,2.3l.6.85-.15-1a221.54,221.54,0,0,1-2-26.74c0-.22,0-.44,0-.65.44-.13,4.49-.17,4.51-.17a29.14,29.14,0,0,1,.18,5c0,.86-.05,1.75,0,2.69,0,.15,0,.31,0,.48,0,1.1.06,2.61.75,3.37l.24.26.17-.31.06-.15.11.14.2-.25a1.62,1.62,0,0,0,.23-1.51c0-.14,0-.3-.08-.47a20.62,20.62,0,0,1-.07-2.42c0-.56,0-1.13,0-1.65,0-.89-.16-1.66-.27-2.41a15.67,15.67,0,0,1-.24-2.95c2.5-2.56,1.1-5.85-.61-7.24Zm-6.31,6.54h0a1.71,1.71,0,0,1-.43.29,5.91,5.91,0,0,0-.41-.78,4.69,4.69,0,0,1-.71-1.74,4.25,4.25,0,0,1,.58-3.17,1.5,1.5,0,0,1,.87-.51c-.3,1.87-.69,4.36.32,5.74a1.84,1.84,0,0,0-.22.17Zm2-.77h0c0-.14-.09-.28-.14-.43-.48-1.42-1.26-3.72-.17-4.9a28.66,28.66,0,0,1,.32,5.34Zm.14-8.86h0c0-.11,0-.23,0-.35h0c0,.12,0,.25,0,.36Zm2.67,9h0a3.59,3.59,0,0,1-.39.06l-.13,0a45.64,45.64,0,0,0-.9-7.45c.33.38.68.74,1,1.1.07.06.13.13.2.2l-.11.73a9.59,9.59,0,0,0,.14,2.56,12.48,12.48,0,0,1,.17,2.78Zm.79-1.63h0l-.06-.8a7.67,7.67,0,0,0-.58-3l-.33-.61a17.29,17.29,0,0,1,1.27,1.43c.83,1.19.3,2.11-.3,3ZM50.64,56a.46.46,0,0,0,.42.19h.17l.06-.09a1.26,1.26,0,0,1,1-.37,2.65,2.65,0,0,1,1.11.25l.23.11.1-.24a1.34,1.34,0,0,0,.08-1.28,1,1,0,0,0-.92-.4A3.66,3.66,0,0,0,50,55.79l-.11.27.28.06a.56.56,0,0,0,.5-.08Zm27.19,57,.07-.13-.08-.12a.66.66,0,0,0-.23-.21c1.41-.12,2.88-.2,4.31-.27s3.19-.17,4.72-.32a1.63,1.63,0,0,0,.81.62,1.79,1.79,0,0,1,.49.31v1.21l.41-.31a1.57,1.57,0,0,0,.59-1.41v-.16l-.34-.13a3.6,3.6,0,0,1-.74-.33.42.42,0,0,0,.08-.42l0-.1-.09-.06a1.81,1.81,0,0,0-.46-.17l-.25-.08c-.3-1.25-.73-2.54-1.18-3.9s-.91-2.76-1.26-4.15a2.09,2.09,0,0,0,.08-1.52c0-.21-.08-.43-.1-.64a50.61,50.61,0,0,1,0-9.71c0-.12.05-.25.08-.38.13-.59.3-1.34-.37-1.85L84,88.52l-.06.42c-.06.46-.1.94-.12,1.43,0-.54,0-1.07,0-1.58V88.5l-.26,0,0,0a.49.49,0,0,0-.42-.35l.08-.15.14-.31-.34,0-.4,0a2.1,2.1,0,0,0,.25-.28.88.88,0,0,1,.31-.3l.22-.09-.07-.22a1.19,1.19,0,0,1,0-.65,3.25,3.25,0,0,0,0-.79l0-.2-.21,0a.77.77,0,0,0-.48.09.57.57,0,0,0,0-.13v-.08a.38.38,0,0,0-.47-.28l-.13,0-.06.12c-.16.31-.86,1.82-.25,2.74-.62,0-1.29-.06-2-.06-2.23,0-4.61.17-6.9.34-.83.06-1.62.12-2.38.16l0-.07a3.64,3.64,0,0,0,.24-.52l.12,0a1,1,0,0,0,.3-.07l.25-.09-.1-.24a3.25,3.25,0,0,1-.08-1.08c0-.22,0-.44,0-.64l0-.33-.32.11a.39.39,0,0,1-.44,0,1.19,1.19,0,0,0-.67-.19h-.14l-.07.12a2.92,2.92,0,0,0-.09,2.17,1.36,1.36,0,0,0,.67.85l-.78,0h-.18l0,.14a9.33,9.33,0,0,1-1.21-2.33c-.2-.48-.4-1-.64-1.43,1.39-.06,2.87-.21,4.42-.37s3.07-.32,4.66-.41c.79,0,1.61-.06,2.4-.07,1,0,2.1,0,3.09-.13a5.8,5.8,0,0,0,3-.85l.19-.14-.13-.2a.78.78,0,0,0-.8-.29,1.07,1.07,0,0,0,.11-1c0-.13,0-.26-.07-.4C84,78.8,83.64,76.87,81.75,77V76.9c0-.94,0-2,0-3.18a33.11,33.11,0,0,0-.26-6.19.44.44,0,0,0,.16-.1.5.5,0,0,0,.09-.41l0-.09a1.77,1.77,0,0,0-.68-.7l.09-.16a3.37,3.37,0,0,1,1-1,3.36,3.36,0,0,0,1.28-1.49l0-.06a.93.93,0,0,0-.19-.65l0,0a1.87,1.87,0,0,0,1.26-.56l0-.06v-.08c.06-.75-.62-1.34-1.16-1.82l-.17-.15a3.33,3.33,0,0,1,.38-.48,2.58,2.58,0,0,0,.65-1.1l0-.19-.18-.09a2.75,2.75,0,0,0-.93-.18,1.85,1.85,0,0,1-.77-.15l.08-.14a1.27,1.27,0,0,0,.24-1.2l-.06-.15H81.43a9.93,9.93,0,0,0-2-2,9.8,9.8,0,0,1-1.94-1.92,12.37,12.37,0,0,1-1.4-2.82C75,48,74.42,44,73.53,41.24a1.83,1.83,0,0,1,.28-.1c.33-.1.79-.24.86-.78v-.1l-.06-.07a1.27,1.27,0,0,0-1.3-.45c0-.29-.07-.6-.11-.9A8.61,8.61,0,0,0,73,37.28L72.89,37l-.24.09c-1.12.37-1,1.41-.86,2.32a9.15,9.15,0,0,1,.09,1,1.28,1.28,0,0,1-.42.37,1.44,1.44,0,0,0-.67.72l0,.09,0,.1a1,1,0,0,0,1.34.57c.42,3.93.37,7.2-2.38,10.1l-.06-.1a1,1,0,0,0-.85-.66l-.21,0,0,.21a7.76,7.76,0,0,1-.42,1.26,7.12,7.12,0,0,0-.28.74h0a.6.6,0,0,0-.68-.29l-.07,0-.06,0a2.55,2.55,0,0,0-.65,1.53,2.56,2.56,0,0,1-.34,1,.87.87,0,0,0-.67-.13l-.28,0,.08.27a3.54,3.54,0,0,1,0,2.53l-.15,0a1.07,1.07,0,0,0-.68.42l-.06.1,0,.12a3,3,0,0,0,.8,1c.08.08.17.16.25.25a1,1,0,0,1-.36.43,1.92,1.92,0,0,0-.36.34l-.08.11,0,.12a1.12,1.12,0,0,0,.48.54c.18.12.28.18.3.33a6.31,6.31,0,0,0-.49,1.81l0,.23.23,0a4.39,4.39,0,0,1,1.35.47v0a2.86,2.86,0,0,0,0,2l.11.25.24-.14c.33-.19.61.05.93.32l.1.09c0,.07,0,.1-.1.18a.68.68,0,0,0-.21.58,29.54,29.54,0,0,0,.4,4.56c.12.92.24,1.79.3,2.55a.88.88,0,0,0,0,.16c0,.33,0,.42-.11.51l-.58.37.65.08v.2a.79.79,0,0,0,.14.58l0,0a4.31,4.31,0,0,0-1.54,1.68,3.31,3.31,0,0,0,.13,3.49l.16.23q-.69,0-1.32-.12l-.17,0-.08.15a.73.73,0,0,1-.28.21,6.58,6.58,0,0,0,.15-2.11,7,7,0,0,0-1.65-3.45,10.24,10.24,0,0,1-.84-1.27v-.9a.72.72,0,0,0-.42-.46c-.17-.08-.17-.1-.17-.16A12.22,12.22,0,0,0,62,71.42c-.06-.31-.12-.61-.17-.93l0-.17-.18,0a.85.85,0,0,0-.44.06h0a14.67,14.67,0,0,0-3-3.09c-.55-.47-1.09-.92-1.58-1.41l.11-.17a4.64,4.64,0,0,1,.82-.84,3.45,3.45,0,0,0,1.32-1.94l0-.26-.26,0a1.65,1.65,0,0,0-.86.12l-.1,0a62.42,62.42,0,0,1-1.47-6.17A61.2,61.2,0,0,0,54.56,50a7.69,7.69,0,0,0,.94-2.1,6.89,6.89,0,0,1,.88-2l.3-.41H56.1a6.18,6.18,0,0,1-1.9-.35,7.86,7.86,0,0,0-1.16-.3,4.49,4.49,0,0,0-.28-2.74,6.25,6.25,0,0,1-.42-2.52v-.1l-.06-.08a.74.74,0,0,0-.59-.19h-.3c-1.67-4.86-2.52-10-4.3-14.81a.42.42,0,0,0,.35-.53l0-.08a39.74,39.74,0,0,1-1.07-6.3,2,2,0,0,1,.55-.82,2.77,2.77,0,0,0,.54-.73,5,5,0,0,0,.31-1.36c.29-2.43-.83-3.45-1.92-4.44-.46-.42-3-4.92-2.72-6.12a.82.82,0,0,1,.3,0,1.35,1.35,0,0,0,.53.06H44l.06,0a1,1,0,0,0,.18-.75,1.61,1.61,0,0,1,0-.22V2.9l-.15-.07a1.31,1.31,0,0,0-.59-.06A1.4,1.4,0,0,1,43,2.71c-.1-.77-.13-1.47-.16-2l0-.68-.25,0A1.14,1.14,0,0,0,42,.2a.81.81,0,0,1-.29.12l-.21,0V.56a8.23,8.23,0,0,0,.18,2.36L41.49,3a.66.66,0,0,0-.51.66v.07l0,.06a.64.64,0,0,0,.59.21h.17V4a4.14,4.14,0,0,1,0,2.1c-.11,2-.54,2.64-1,3.17-1.19,1.23-3,3.09-2.58,5.35a4.07,4.07,0,0,0,1,1.77c.17.21.34.43.49.65a.42.42,0,0,0-.25.19.5.5,0,0,0,0,.42l0,.14.15,0q.34.06.69.09a5.41,5.41,0,0,0-.11,2.27,8.84,8.84,0,0,1,0,1.42,1.87,1.87,0,0,0-.89.74l0,0a1.9,1.9,0,0,0,.32,1.71,2.27,2.27,0,0,1,.27.54c.29.94-2.41,14.72-2.61,15.63a.69.69,0,0,0-.69-.51h-.2l-.07.13c-.66,1.21-.68,3-.71,4.79,0,.17,0,.33,0,.49a6,6,0,0,0-2.1.91,8.06,8.06,0,0,1-1,.57l-.28.13.17.24.44.66a8.88,8.88,0,0,0,1.58,2,43.82,43.82,0,0,0-.87,6.53c-.13,1.64-.26,3.18-.49,4.5l-.07.36L33.3,61a1.37,1.37,0,0,0,1.09-1.11l.12,0a.85.85,0,0,0,.62-.18,1.08,1.08,0,0,0-.13.79l.11.44.32-.33a4.78,4.78,0,0,1,3.21-1.22,2.89,2.89,0,0,1,1.65.45l.13.1.2-.13a.84.84,0,0,0,.46-.91l0-.07,0,0a3.83,3.83,0,0,0-2.92-1.15,4.4,4.4,0,0,0-3.6,1.62c0-.34,0-.7.06-1.05a7.9,7.9,0,0,1,.1-1.33,1.09,1.09,0,0,0,.52-.37.39.39,0,0,0,.35.2h.07l.06,0a7.06,7.06,0,0,1,3-.94,2.59,2.59,0,0,1,.63.07c.07,0,.12.06.2.14a.74.74,0,0,0,.56.26h0a1.24,1.24,0,0,0,.82-.36.54.54,0,0,0,.12-.42l0-.15-.13,0L40.09,55a6.78,6.78,0,0,0-3.36-.72l-.09,0a7,7,0,0,0-1.78,1.23c0-.5.1-1,.19-1.47a.89.89,0,0,0,.57-.55.71.71,0,0,1,.18-.28,4.44,4.44,0,0,1,2.87-.55c.16.08.31.18.47.27a2.78,2.78,0,0,0,1.48.55,3.83,3.83,0,0,0-.41.61l-.08.15.11.12a1,1,0,0,0,.53.39,1.15,1.15,0,0,1,.31.16l.25.17.12-.27c.58-1.22,2.6-2.48,5-2.48a6.3,6.3,0,0,1,1.3.13,2.44,2.44,0,0,1,1.29.89,3.11,3.11,0,0,0,1.16.89l.2.08.11-.19a2.79,2.79,0,0,1,2.23-1.39,1.46,1.46,0,0,1,1.1.48,52.14,52.14,0,0,0,1.52,6.18c.38,1.27.73,2.47,1,3.66a2.36,2.36,0,0,0-1.54.48l-.19-.38a4.33,4.33,0,0,0-.44-2.26,5,5,0,0,1-.47-2.27l0-.18-.16-.08a2.29,2.29,0,0,0-1.07-.26,1.9,1.9,0,0,0-1.87,1.2l0,.12.07.1a.43.43,0,0,0,.34.2.58.58,0,0,0-.18.46v.17l.16.06a.71.71,0,0,0,.3,0,12.26,12.26,0,0,0-.15,1.51,4.82,4.82,0,0,1-.63,2.64A4.81,4.81,0,0,0,49,64.38h-.71l-.61,0a1.74,1.74,0,0,0-.39,0,1.65,1.65,0,0,1-.31,0c-.71,0-1.48,0-2.25,0l-1.62,0c-.54,0-1,0-1.43,0a1.5,1.5,0,0,0-.5.18,1.48,1.48,0,0,1-.31.13,17.46,17.46,0,0,1-2.81.23,9.26,9.26,0,0,1-1.69-.13l-.18,0-.09.17a.86.86,0,0,1-.3.33,1.89,1.89,0,0,0-.49.56l-.2.35a10.89,10.89,0,0,0-.24-1.48C33.59,59,28.84,59.21,27,48.15c-.1-.59-.19-1.18-.28-1.78a1,1,0,0,1,.32-.09c.27-.06.73-.15.76-.65v-.16l-.14-.07-.22-.15a1.14,1.14,0,0,0-.89-.24,3.59,3.59,0,0,1,0-.47c0-.65-.06-1.54-1-1.56h-.22l0,.22a9.27,9.27,0,0,0,0,1.41c0,.35,0,.74,0,1.15a1.42,1.42,0,0,0-.8.7.56.56,0,0,0,0,.47l0,0a.45.45,0,0,0,.38.19.9.9,0,0,0,.44-.16c-.2,8.21-.53,7.81-4.83,14.1A7.06,7.06,0,0,0,17.75,58a7.64,7.64,0,0,1-2.4-2.33A50.18,50.18,0,0,1,14,48.42c-.1-.77-.21-1.56-.32-2.35h.73l-.08-.32c-.08-.29,0-.34,0-.43a1.07,1.07,0,0,0,.19-.58l0-.22-.21,0a1,1,0,0,0-.78.18l-.14.08c0-.16,0-.33,0-.5-.05-.73-.1-1.57-.78-1.84l-.21-.09-.11.2a4.24,4.24,0,0,0-.23,2c0,.26,0,.52,0,.77l-.12,0a2.12,2.12,0,0,0-1.26.9l0,.11,0,.1c.15.34.36.52.64.52a1.32,1.32,0,0,0,.59-.19l.35-.14c0,.75.08,1.53.15,2.35a33.05,33.05,0,0,1,.17,4.4c.25-.4-2.18,5.16-3.74,6.53C5.17,64.9,4.05,69,7.43,74.13l.3.46c-.11,0-.27.1-.34.4a2.85,2.85,0,0,0,1.12,2.68,1.56,1.56,0,0,0,0,1.44,1.4,1.4,0,0,0,1.07.72,62.92,62.92,0,0,0,.26,6.89c.09,1.28.19,2.61.24,3.92-.62.12-.79.7-.92,1.14a2.86,2.86,0,0,1-.12.35H8.91a.39.39,0,0,0-.28.18l0,.1a.54.54,0,0,1-.14,0l-.28,0v.27a5.2,5.2,0,0,0,.11,1.18c0,.15,0,.3.07.45l-.2.09L8,94.43l-.13,0,0,.14c-.23,1.7-.09,4.08,1.07,5.2l.23.22.16-.28a6.63,6.63,0,0,0,.31-3.4c-.11-1.55-.2-3,.75-3.36l.13,0,0-.13a.37.37,0,0,0-.17-.45,1.12,1.12,0,0,1,.35-.17,1.17,1.17,0,0,0,.71-.49c1.23,0,1.66.67,2.15,1.5a2.94,2.94,0,0,0,1.85,1.69l.19,0,.09-.18a1.85,1.85,0,0,0,0-1.29,2.75,2.75,0,0,1-.09-.45A3.78,3.78,0,0,1,19,91.42a1.53,1.53,0,0,1,.35.43,1.37,1.37,0,0,0,.86.76l.22,0,.07-.22a1.17,1.17,0,0,0-.19-1.1,2.5,2.5,0,0,0-1.65-.91,1.53,1.53,0,0,0,.39-1.49,2.38,2.38,0,0,1,0-.36c0-.23,0-.49,0-.76A32.73,32.73,0,0,0,19,82.35a.57.57,0,0,0-.34-.38l-.32-.15,0,.35a28.59,28.59,0,0,0,0,4,27,27,0,0,1,0,4l0,.2a6,6,0,0,0-2.76,1.36v-.15c-.05-.6-.09-1.24-.14-1.9-.17-2.48-.37-5.29-.76-7.59l0-.21h-.2a.42.42,0,0,0-.37-.09l-.24,0,0,.32c.05.26.05.26-.07.45l-.07.1,0,.11a17,17,0,0,1,.58,4.25,16.75,16.75,0,0,0,.58,4.23,2.52,2.52,0,0,0-2.05-1.18,3.15,3.15,0,0,0-.52,0l-.24.06,0-.06a51.28,51.28,0,0,0-.15-8.13c-.05-.74-.1-1.47-.14-2.16a17.19,17.19,0,0,1,1.9-.08l2,0c.69,0,1.4,0,2.09,0s1.36,0,1.91-.07h.18a4.06,4.06,0,0,0,2.36-.65l.17-.16a28,28,0,0,0,0,4.6l0,.11a.92.92,0,0,0,.54.88l.6.22-.29-.57c-.17-.32,0-.6.2-1a2.79,2.79,0,0,0,.32-.8A8.65,8.65,0,0,0,23.66,80a8.41,8.41,0,0,1,0-2.79l.05-.24-.24,0a.93.93,0,0,1-.27-.12,1.12,1.12,0,0,0-.44-.18l-.29,0v.3c0,.31,0,.89-.07,1.57,0,.1,0,.22,0,.33l-.39,0a45.66,45.66,0,0,1-5.39.22c-1.52,0-3.1,0-4.86.16a.42.42,0,0,0-.53-.31V78.6l-.2,0a1.69,1.69,0,0,0-.69,0l-.2,0a2.91,2.91,0,0,0,0-1.68c0-.2-.08-.4-.1-.6v-.07l-.05-.06a.35.35,0,0,0-.26-.11.59.59,0,0,0-.23,0c-.06,0-.12,0-.13,0s0,0,0-.08a.25.25,0,0,1,0-.21l0-.08c2.58,0,5.12-.13,7.57-.29,1.36-.08,2.65-.17,3.91-.21a2.14,2.14,0,0,1,.32,0,1.83,1.83,0,0,0,.46.07.69.69,0,0,0,.73-.61l0-.18-.16-.09a1.69,1.69,0,0,0-.79-.14h-.25a.61.61,0,0,0,.16-.26l.11-.34h-.36c-1.84.1-4.78.25-7.72.34a16.18,16.18,0,0,1-.7-5.87C13,65.19,15,63.59,15,60.11c.06.26.13.53.2.78C16.05,64.16,12.86,73,17,73.67l.3,0v-.3a5.4,5.4,0,0,0-.42-1.81,6,6,0,0,1-.37-1.4A7.57,7.57,0,0,1,17,67.06a12,12,0,0,0,.57-2.48,14.78,14.78,0,0,0-.87-5.87l.07.06a12.26,12.26,0,0,0,1.1.72C19,60.17,20,60.81,20,62.05a3.8,3.8,0,0,1-.46,1.29A4.53,4.53,0,0,0,19,64.83c0,.1.41,2.39-.27-1.21-.59-3.12-.85-2.37-.47.72a47.4,47.4,0,0,1,.24,5.5l0,1.59.45-1.52a7,7,0,0,0,.25-1.52,8.4,8.4,0,0,0,2,3.71,1.58,1.58,0,0,0,.21,1.17,1.53,1.53,0,0,1,.23.83l0,.34.33-.07a2.12,2.12,0,0,0,.33-.11.65.65,0,0,1,.23-.07.27.27,0,0,1,.16,0l.07,0-.11.25.34,0,.37,0,.29.16-.11-.14c.46,0,.94.06,1.48.06,1.2,0,2.46-.1,3.68-.19S31,74.32,32,74.32q.48,0,.9,0a.44.44,0,0,0,0,.1.48.48,0,0,0,.3.28l.14.08.12.11.15-.07a1.57,1.57,0,0,0,.57-.54.91.91,0,0,1,.34-.36l.09,0,.09-.3a2.13,2.13,0,0,1,.72-1.35v-.44a3.18,3.18,0,0,0-.4-.17c-.34-.14-.43-.18-.46-.43l0-.18-.13,0a9,9,0,0,0,.68-4.7h.48c1.5,0,3.12-.15,4.84-.3,1-.09,2-.18,3-.25l-.11.14a1,1,0,0,0-.14,1,2,2,0,0,1,.08.42c.06,1,.09,2.16.11,3.36a37.65,37.65,0,0,0,.68,7.83l-1.36,0c-1.68,0-5.64-.21-5.68-.19l-.07,0c.38-2.25.17-5.57-.66-10.13a.52.52,0,0,0-.33-.38l-.41-.2.05.45c0,.51.12,1.06.19,1.63l.5,9.58,0,.43c2-.07,5.12.41,7.66-.29l.29-.08v0l.49,0v-.87a11.61,11.61,0,0,0-.2-2.25,16.11,16.11,0,0,1-.22-1.88c0-.74-.05-1.54-.07-2.39a33.07,33.07,0,0,0-.44-6l-.06-.25c.77,0,1.53-.08,2.29-.08a22.87,22.87,0,0,1,2.59.14h.06l.06,0,.26-.13a2.18,2.18,0,0,1,.79-.27c-.35.39-.73.78-1.12,1.18-1.83,1.88-3.72,3.83-4,7A4.69,4.69,0,0,0,45,75.46a4.81,4.81,0,0,1,.3,1.65v.07l0,.06c.4.7,1,1.29,1.37,2a.49.49,0,0,0-.31.46v.1a.48.48,0,0,0,.47.37,1.64,1.64,0,0,0,.32-.05.68.68,0,0,1,.22,0A5.35,5.35,0,0,1,48,82.86c0,.44.07.89.13,1.36s.08.63.12.93l-.7.09-1.83.22c-2.3.29-4.68.59-6.43.67l-.49,0,.31.38a1.31,1.31,0,0,0,1.09.43,6,6,0,0,0,.85-.09l.37,0,1.09-.14c.42-.07.82-.13,1.2-.16l.73,0a6.19,6.19,0,0,0,3.29-.8l.54-.4c0,.16.05.33.08.5a14.88,14.88,0,0,1,.27,3.28v.2l.19,0a.85.85,0,0,1,.21.11l.09.06a.55.55,0,0,0-.17.44h0c-.18,0-.22,0-.35-.15a.72.72,0,0,0-.72-.36l-.11,0-.07.09a2.41,2.41,0,0,0,.1,2.62c-1.38.65-1.71,2.22-1.84,3.38l0,.3.31,0c.9-.1.95-.79,1-1.3a2.27,2.27,0,0,1,.11-.65,2.8,2.8,0,0,1,2.26-1.14h0a2.92,2.92,0,0,1,2.88,3c-.87-.07-1.32.64-1.67,1.21q-.12.19-.24.36a7.16,7.16,0,0,1-.87-.56,4,4,0,0,0-2.45-1,3.21,3.21,0,0,0-2,.77,9.19,9.19,0,0,0,.07-2.06,16.64,16.64,0,0,1,0-1.73v-.09l0-.07c-.23-.32-.44-.66-.64-1l-.12-.2h-.11l.71-.11.39,0c.52,0,1.24-.1,1.4-.74l.09-.3h-.3a.43.43,0,0,0-.28-.1h-.08a7.72,7.72,0,0,0-.79.14c-.36.06-.73.13-1.09.16s-1,.05-1.6.05H41.08c-1.68,0-2.85.12-3.51.72l-.3.28a1.36,1.36,0,0,0-.3,0,3.19,3.19,0,0,0-.54.06l-.3,0c-.81,0-1.84,0-2.85,0s-1.74-.05-2.63,0a42.94,42.94,0,0,0-4.45.51c-1.35.21-2.63.41-3.92.48h-.05a7.43,7.43,0,0,0-.46-1.18L21.65,91a54.34,54.34,0,0,1,7.43-.38,59.22,59.22,0,0,0,7.1-.31,1.68,1.68,0,0,0-.09.71l0,.32.31-.11a4.8,4.8,0,0,0,1-.59,4.61,4.61,0,0,1,1.33-.7l.42-.1-.31-.31a3.25,3.25,0,0,0-1.18-.76l-.1,0-.09,0a1,1,0,0,0-.4.35c-.11.14-.18.22-.33.23a55.07,55.07,0,0,1-7.51.37H28l.18-.06v-.19c0-.14,0-.31-.06-.5-.1-.6-.24-1.51.2-1.84l.49-.05a9.56,9.56,0,0,1,1.17-.1,1.64,1.64,0,0,1,1,.23v1.38l.2,0a1.65,1.65,0,0,0,1.09-.19.61.61,0,0,0,.52.45.4.4,0,0,0,.27-.1c.33-.22.33-.65.32-1.08a3.37,3.37,0,0,0,.34.09l.44.1v-.3a.66.66,0,0,0-.3-.57c-.1-.07-.12-.08-.11-.15a.81.81,0,0,1,.67-.47c.64,0,1.4,1,1.43,1.89l0,.44.37-.24c.08-.06.13,0,.21,0a.72.72,0,0,0,.61-.11l.08-.07v-.1a5,5,0,0,0-1.45-3.37l-.08-.1h-.14A4.9,4.9,0,0,0,32.68,86c-.2.16-.39.31-.58.44a2.78,2.78,0,0,0-1-1.12v-.07A81.18,81.18,0,0,0,30.84,76a8.77,8.77,0,0,1,.9,0A3.89,3.89,0,0,0,34,75.51l.41-.35-.53-.09a10.47,10.47,0,0,0-2.3,0l-1.14.08c-.67,0-1.44,0-2.11,0H26.75c-.93,0-1.89,0-2.68.07h-.29c-.52,0-1.31,0-1.44.69l-.05.31h.31c1.24-.06,2.54-.12,3.82-.15V78a35.3,35.3,0,0,0,.67,8.64,7.26,7.26,0,0,0-.59.78l-.3.44a5.8,5.8,0,0,1-.27-.69,2.5,2.5,0,0,0-.7-1.26,2.71,2.71,0,0,0-1.69-.54,3.29,3.29,0,0,0-3.3,2.38,3.46,3.46,0,0,0,.08,1.33,6.8,6.8,0,0,1,.12.92.78.78,0,0,0,0,.16.31.31,0,0,0-.16.11.41.41,0,0,0-.06.38l0,.07.05,0a2.43,2.43,0,0,1,.3.74c.21.7.51,1.66,1.45,1.73l.31,0,0-.15a1.7,1.7,0,0,0,1.07.32,6.9,6.9,0,0,0,1.26-.16c.29,0,.56-.11.81-.13,1.09-.11,2.25-.18,3.42-.23v.42a27.38,27.38,0,0,1,.14,6.19,26.22,26.22,0,0,0,.05,5c-.36-1.25-.76-2.53-1.16-3.79-.28-.89-.56-1.77-.82-2.63a5,5,0,0,0-.25-1.61A8.46,8.46,0,0,1,26.62,95v-.18l-.18,0c-.14,0-.2-.15-.31-.36a1.31,1.31,0,0,0-.65-.72l-.17-.08-.12.15a5.84,5.84,0,0,0-.94,3c-.06.44-.12.89-.21,1.31a22.14,22.14,0,0,1-.8,2.54l-.06.16c-.05-1-.14-1.92-.22-2.82l-.12-1.44a5.4,5.4,0,0,1,0-.7,3.14,3.14,0,0,0-.44-2l-.2-.26L22,93.8a2.36,2.36,0,0,0-.32,2c0,.21.05.4.06.59,0,.94.06,1.94.08,3a42.54,42.54,0,0,0,.68,8.31,2.53,2.53,0,0,1-.54,0,1.28,1.28,0,0,0-.8.06l-.21.13.13.22a1.56,1.56,0,0,1,.2.74,2.12,2.12,0,0,0,.19.82,2,2,0,0,0,.55.65c.28.24.52.46.52.79h-.05l0,.2c-.42,2-.07,3.33,1,3.58l.38.1-.08-.39a24.81,24.81,0,0,1-.49-3.19l.35,0a.84.84,0,0,0,.18.53l.08.13H24c.54,0,1.16,0,1.94,0l2.14,0c.78,0,1.56,0,2.35,0,1.21,0,2.18,0,3-.1a12.32,12.32,0,0,0,1.72-.29,9.46,9.46,0,0,1,1.09-.21,1.05,1.05,0,0,1,.33,0,1.36,1.36,0,0,0,.36,0c.23,0,.53-.1.61-.59l0-.08.2,0h.05a4.37,4.37,0,0,0-.14,2.42,130.75,130.75,0,0,0-13.57,1.09l-.45.08.31.34a1.41,1.41,0,0,0,1.11.46h0a4.9,4.9,0,0,0,1.23-.22,6.23,6.23,0,0,1,.77-.16,47.39,47.39,0,0,1,4.91-.33c1.13,0,2.29-.08,3.35-.17l.52,0h.5a2,2,0,0,0,1.47-.43v0l.25-.09c.72-.27.64-1.46.59-2.34a4.16,4.16,0,0,1,0-.58l0-.25h-.25a.4.4,0,0,0-.34-.09,6,6,0,0,0,.65-1.08c.09-.19.18-.37.28-.55l.08-.13-.09-.13a.63.63,0,0,0-.1-.12c.24,0,.61-.18.54-.67l0-.23-.29,0h-.09a.61.61,0,0,1,0-.14.58.58,0,0,0-.48-.65l-.19,0-.08.17,0,.09,0,0a2.2,2.2,0,0,1-.22-1.08c0-.09,0-.19,0-.28a44.51,44.51,0,0,1,0-5.29,30.43,30.43,0,0,0-.38-7.5l0-.2H36.28v.27c.25,3.58.3,7.33.37,11.67v1.07c-.14-.28-.28-.56-.41-.86l-.07-1.64c0-.74-.07-1.53-.11-2.37-.13-2.64-.28-5.63-.19-8.15h.38c.61,0,1.19,0,1.58-.6l.1-.15-.11-.14a1.37,1.37,0,0,0-.22-.2h.11c.72,0,1.46,0,2.2,0h0c.91,0,2.06,0,3.22-.11l0,.16a15.86,15.86,0,0,1,0,3.1,9.78,9.78,0,0,0,.38,4.44l.13.26.24-.16a.46.46,0,0,0,.07-.07,4,4,0,0,0,.25,1.35l.11.27.26-.15c.66-.4.58-1.08.52-1.62a2.24,2.24,0,0,1,0-.63,1.53,1.53,0,0,1,1.59-1.33,3,3,0,0,1,2.9,2.48l0,.71.41-.58a1.74,1.74,0,0,1,.73-.47,2.55,2.55,0,0,0,.52-.27l0,0a.41.41,0,0,0,0-.51c0-.09-.06-.11,0-.21a4.09,4.09,0,0,1,3.36-1.92,3.88,3.88,0,0,1,.48,0c.93.12,1.29.75,1.72,1.47a6.45,6.45,0,0,0,.72,1l.12.13a.67.67,0,0,0-.06.54.56.56,0,0,0,.33.29l.15.06.11-.11a7.46,7.46,0,0,0,1-1.41c.62-1,1.26-2,2.13-2a1.82,1.82,0,0,1,1,.42,13.9,13.9,0,0,0,.78,1.64.36.36,0,0,0,.33.22.61.61,0,0,0,.24-.06h0c0,.17,0,.35,0,.55a10.16,10.16,0,0,0,.23,2H64c-.07,0-.1,0-.18-.15a.71.71,0,0,0-.6-.35h-.07a2.52,2.52,0,0,0-1.93-1.2c-1.93-.19-3.94,1.53-4.75,2.89a1.18,1.18,0,0,1-.11-.43,2,2,0,0,0-.24-.75,3.42,3.42,0,0,0-3-1.26,3.86,3.86,0,0,0-3,1.13,1.55,1.55,0,0,0-.23,1.43l.08.29.27-.14a4,4,0,0,0,.85-.61L50.5,103a74.45,74.45,0,0,1-5.39,9.59l0,.06v.06c-.06.64-.17.88-.51,1.13h0a.48.48,0,0,0-.44-.15H44l-.07.07a13.65,13.65,0,0,1-1.8,1.59A13.46,13.46,0,0,0,40,117.22l-.15.19.17.15a1.05,1.05,0,0,0,.8.24h0a.48.48,0,0,0,0,.21l0,.2.2,0c.65.06,1.32.1,2.07.1,2.52,0,13.66-.66,15.55-1l-.1.86s0,.07-.17.15a.69.69,0,0,0-.43.56v0c.6,5.27.91,10.58,1.37,15.87h0a9.25,9.25,0,0,0-1.19.09,5.48,5.48,0,0,1-1.49,0c-.14-1.24-.17-2.67-.2-4.18a32.86,32.86,0,0,0-.59-6.83l0-.14-.14,0a.52.52,0,0,0-.6.18l-.07-.05a2.3,2.3,0,0,0-1.5-.74c-1.48,0-2.13,1.73-2.55,2.88-.1.25-.18.47-.26.66l0,.06h0l-.08-.46-.23.22c-.38-1.5-1.38-3.25-3-3.25a2.58,2.58,0,0,0-1.33.4.53.53,0,0,0-.13-.27.45.45,0,0,0-.45-.13l-.15,0-.05.15c0,.13-.06.28-.09.42-.1.53-.19.88-.55,1l-.18.07,0,.19c.12,1.54.22,3.11.31,4.63s.18,2.9.28,4.14l0,.2.21,0a1.83,1.83,0,0,0,.92-.14.89.89,0,0,1,.3-.09.45.45,0,0,1,.24.1.54.54,0,0,0-.17.68l.12.28.25-.17A43.31,43.31,0,0,0,52,130.49c.76-.72,1.49-1.41,2.18-2l.06.34a3.69,3.69,0,0,0,.08.46,35.61,35.61,0,0,1-6.65,5.84l-.64.47c-1.46.06-2.92.09-4.4.08h-.23l0,.23a.2.2,0,0,1,0,.08,2.12,2.12,0,0,1-.27,0l-.26,0a.66.66,0,0,0-.62.34l-.12.22.21.11A3.18,3.18,0,0,0,43,137a11.11,11.11,0,0,0,1.15-.08c.28,0,.55-.06.83-.07,1-.05,1.94-.08,2.91-.12a110.85,110.85,0,0,0,12.56-1l.24,0,0-.24c-.69-5.76-.49-11.62-1.49-17.35l-.12-.69a.6.6,0,0,0,.45,0l.15,0,0-.16a4.37,4.37,0,0,0-.37-1.87,3.33,3.33,0,0,1-.25-2.25l0-.13-.08-.11-.52-.72.23-.11a1.38,1.38,0,0,0,.4-.28,1.46,1.46,0,0,0,0,.2l-.07.27.28,0a1.2,1.2,0,0,0,.65-.15.56.56,0,0,1,.48-.07l.24.09.09-.23c.43-1.14.81-2.34,1.18-3.51.3-.94.6-1.9.93-2.83,0,.71-.07,1.44-.1,2.15,0,1.16-.08,2.26-.2,3.17a1.46,1.46,0,0,1-.11.36c-.13.32-.34.86.23,1.18l.24.14.11-.25a7.53,7.53,0,0,0,.49-3.4c0-.48,0-1,0-1.47.06-.78.17-1.59.28-2.37l.12-.92c.52,1.17,1,2.26,1.31,3.26.15.41.26.85.37,1.27a6.24,6.24,0,0,0,1.39,3l.66.65-.25-.9c-.38-1.38-.95-3-1.5-4.48l-.39-1.06c.42.62.8,1.29,1.17,1.94A12.15,12.15,0,0,0,70,112.1l.28.2.1-.33c.21-.67-.25-1.11-.62-1.47a4.37,4.37,0,0,1-.31-.34c-.58-.78-1.17-1.66-1.7-2.45-.17-.26-.33-.51-.49-.74-.6-.88-1.12-1.84-1.63-2.76s-.91-1.66-1.42-2.45v-.68a2,2,0,0,0,1.38,1.59l.24.06.07-.23s0,0,0-.08a11.67,11.67,0,0,0,.3,1.27l0,.16.15,0a2.33,2.33,0,0,1,.71.27,1.1,1.1,0,0,0,0,.18.66.66,0,0,0,.18.48l.07.07h.17c1.19,0,2.33-.07,3.44-.13s2-.12,3-.12a15.31,15.31,0,0,1,2.35.15h0l0,0a15.9,15.9,0,0,1,4.38-.35h.75c.43,0,1,0,1.5,0h.06l.05,0a.38.38,0,0,0,.21-.32v0h.38c.24.72.43,1.51.62,2.27s.32,1.29.51,1.91a9.61,9.61,0,0,0-2.83.12c-.52.07-1.06.14-1.63.19-2.48.2-5.36.29-8.15.38l-.76,0H71c-.25,0-.92,0-1.11.58l-.12.34h.37c1.27-.07,2.6-.11,3.9-.15a59.72,59.72,0,0,0,10.89-1H85A7,7,0,0,0,86.21,111c-3.51.08-7.19.26-10.41.49h-.19l0,.19c0,.14-.1.28-.43.28a2.2,2.2,0,0,1-.73-.16l-.23-.09-.09.23c-.57,1.44-1.71,1.73-3.43,2.16l-.69.18A79.34,79.34,0,0,0,61.11,117h0a.69.69,0,0,1-.28-.08,1.09,1.09,0,0,0-.57-.13l-.25,0,0,.25c0,.59.61.67,1,.71a1.67,1.67,0,0,1,.45.1l.11,0,.11-.06A38.7,38.7,0,0,1,70.5,115l2.16-.54s0,0,.11,0a.68.68,0,0,0,.41.15h.13l.06,0a3.28,3.28,0,0,0,.81-1,3.82,3.82,0,0,1,.48-.67,5.53,5.53,0,0,0,2.16.54c.52,0,.86-.15,1-.44ZM82,80.25h0a3.23,3.23,0,0,1,0-1.59c.6.7.57,2.14.47,3.51l-.63,0a4,4,0,0,0,.11-2Zm1-19.09h0a.67.67,0,0,1,.46.56l-.2.13A.66.66,0,0,1,83,62v-.85Zm-.21-2.26h0l.19,0a3.76,3.76,0,0,0-.25.31c0-.09-.06-.2-.09-.31v0Zm-3.5,23.58h0l-1,.1a1.28,1.28,0,0,0,.47-.31,1,1,0,0,1,.19-.16l.32-.21a2,2,0,0,0,.36.55l-.29,0Zm1.73-5.13h0c0,.08-.09.16-.13.24l0,0a1.79,1.79,0,0,0-.22-.25,2.21,2.21,0,0,0,.37,0Zm-4.6-1h0a2,2,0,0,0-1.75-.94,1.94,1.94,0,0,0-.73.14A67.64,67.64,0,0,0,73.49,67a11.77,11.77,0,0,1,2.28-.24,7.68,7.68,0,0,1,1,.06c0,.77.06,1.56.09,2.4a35.62,35.62,0,0,0,.73,7.63,3.73,3.73,0,0,0-1.08.32,1.05,1.05,0,0,0-.05-.85Zm-6.73.48h0A1.47,1.47,0,0,1,71,77l.15.08a3.71,3.71,0,0,0-.67-.06,3.87,3.87,0,0,0-1.26.21,1.77,1.77,0,0,0,.15-.46V77l.35-.16Zm0-1h-.34c0-.29,0-.59-.07-.9a10.08,10.08,0,0,1-.07-1c0-.74,0-1.5.08-2.23a20.56,20.56,0,0,0,0-3.68v-.08l-.05-.06a.77.77,0,0,0-.5-.23c1.21-.19,2.37-.37,3.8-.52a52.52,52.52,0,0,1,.46,9.14A2.8,2.8,0,0,0,72,77.2l-.1-.27c-.26-.72-.94-1.06-2.09-1.06Zm3.79,1.67h0l.16,0h.08l.07,0a.57.57,0,0,0,.16-.66h0a2.49,2.49,0,0,1,1.48,0,.9.9,0,0,1,0,.19.66.66,0,0,0,.28.57A3.89,3.89,0,0,0,74.66,79a3.16,3.16,0,0,0-.32,1.06,3.78,3.78,0,0,0-1.47-2.28,1,1,0,0,0,.69-.25Zm4-10.77h0a5.44,5.44,0,0,1,.57,0,4.22,4.22,0,0,1,2.39.6,19.86,19.86,0,0,0,0,5.22,36.75,36.75,0,0,1,.2,4,2.26,2.26,0,0,0-.64-.11.61.61,0,0,0-.66.4v0a5,5,0,0,0-.57,0h-.4a30.23,30.23,0,0,1-.78-7.23c0-1-.07-1.93-.13-2.85Zm-7.15-4.56h0a1.14,1.14,0,0,0,0-.59l0-.07-.06-.06a1.46,1.46,0,0,0-.66-.29,1.84,1.84,0,0,0,.06-.29c.52-.12.68-.77.81-1.35a2.71,2.71,0,0,1,.33-.93c.06,0,.1.05.18.13a1.37,1.37,0,0,0,.21.18,1.72,1.72,0,0,0,0,.67l0,.19.19,0a.74.74,0,0,0,.66-.2.48.48,0,0,1,.11-.08,1.86,1.86,0,0,0,.7.37l.14,0a2.51,2.51,0,0,0-.34,1.16,1.31,1.31,0,0,0-.28-.09H72.4l-.07,0a2.11,2.11,0,0,0-1.18,1.36l-.26-.07a2.51,2.51,0,0,0-.47-.11Zm.08.87h0a.81.81,0,0,1-.3.31,1.32,1.32,0,0,1-.36-.2l.29,0a1.88,1.88,0,0,1,.37-.06Zm-1.82-4.81h0l-.06-.06a1.56,1.56,0,0,0-.74-.53l.14-.07a1.51,1.51,0,0,0,.6-.45,2,2,0,0,0,.86.14c.42,0,.82,0,1,.32l.08.11h.13c.44,0,.44-.47.44-.66V57a1.39,1.39,0,0,1,.31.18l.09.06v.84h0a.92.92,0,0,0-.65-.32h-.06l0,0a2.91,2.91,0,0,0-1.14,1.9l-.06.18a2.2,2.2,0,0,0-1.16-.24H68.3l.09-.16a1.74,1.74,0,0,0,.3-1.08v-.09Zm1.72-2.14h0a2.76,2.76,0,0,1,.08-.27,2.56,2.56,0,0,1,0,.27ZM73,58.44h0a1.1,1.1,0,0,1-.56.17,2.59,2.59,0,0,0-.27-2,1.32,1.32,0,0,0-.86-.54,3,3,0,0,1,.09-.56,2,2,0,0,1,.54.47,2.81,2.81,0,0,0,.57.51l.14.09.13-.09a1.81,1.81,0,0,0,.58-1.39,2.52,2.52,0,0,1,.21-.86h0a1.87,1.87,0,0,1,0,.68,2.31,2.31,0,0,0,.11,1.16l.06.12.12,0,.2,0a.92.92,0,0,0,.45-.14l.14-.07a2.06,2.06,0,0,1,.79,1.05,1.28,1.28,0,0,1-.24-.23,1.4,1.4,0,0,0-.74-.52l-.06,0-.06,0A2.18,2.18,0,0,0,73,58.44ZM72.06,55h0a1.3,1.3,0,0,0,.47-.24,3.06,3.06,0,0,1-.07.64,3.16,3.16,0,0,1-.43-.39Zm2.31-.5h0l.08.12a3.92,3.92,0,0,0,.38.47,1.81,1.81,0,0,0-.27.06l-.11,0c0-.24,0-.47-.08-.69Zm-1,4.87h0a3,3,0,0,1,.28-.54,2.73,2.73,0,0,1-.3.59l0-.05ZM74,61.34h0l-.06.17a2,2,0,0,0-.08.22,1.73,1.73,0,0,1-.3-.16,1.52,1.52,0,0,0,.44-.23Zm-.13-.9h0c.05-.11.11-.23.17-.34.32-.65.63-1.26.41-1.64l-.07-.09.4-.27-.66.07,0-.12-.23.09h0a1.31,1.31,0,0,1,.52-.85l.32.17a2.23,2.23,0,0,1,.67.47,1.75,1.75,0,0,1,.18.26.61.61,0,0,0,.92.3.79.79,0,0,0,.31-.32.46.46,0,0,1,.09-.12.71.71,0,0,0,.23.12,2,2,0,0,1-.3.76,1.53,1.53,0,0,0-.28,1.31l.09.25.24-.1a1.67,1.67,0,0,0,.4-.25.8.8,0,0,1,.51-.24A3.4,3.4,0,0,1,77.23,61a7.92,7.92,0,0,1-2.18-.92L75,60h-.09a2.55,2.55,0,0,0-.87.34l-.16.08Zm1.62.79h0a2.58,2.58,0,0,1,.89.34,3.19,3.19,0,0,0,.79.34l.09,0,.08,0a1.93,1.93,0,0,0,1-1.22,2.83,2.83,0,0,1-.1.47,1.47,1.47,0,0,0,.1,1.36c-.25.41-.81.46-1.66.47a4.76,4.76,0,0,0-1.33.15,15.58,15.58,0,0,0,.15-1.89Zm3,2.21h0l0,0a1.53,1.53,0,0,0-.18.57v.29l.29,0a.79.79,0,0,0,.57-.3,2,2,0,0,0,.27-1.39,2.09,2.09,0,0,1,.47-.08c.42-.05,1-.1,1.1-.6v0a3.71,3.71,0,0,1-.09,1,4.32,4.32,0,0,1-.93,1.49,3.24,3.24,0,0,0-.87,1.5h-.69v-.46c0-1-.83-1.34-1.48-1.59a5.06,5.06,0,0,0,1.57-.41Zm2.58-4h0c0,.18-.06.36-.08.56a10.57,10.57,0,0,0,0,1.38v.27h-.26a9.16,9.16,0,0,0-1.57.22c0-.29,0-.6,0-.9A10.17,10.17,0,0,0,79,59.66a1.35,1.35,0,0,0,.7.06h.06l.05-.05a3.74,3.74,0,0,0,.65-.73,3.69,3.69,0,0,1,.55-.62c.2.29.16.59.07,1.08Zm-1.35-3.2h0a.56.56,0,0,0-.14.1.58.58,0,0,0-.09.43l0,.1.09.07a1.41,1.41,0,0,0,.57.18c.21,0,.36.07.41.15a1.64,1.64,0,0,1-.56.92,2.8,2.8,0,0,0-.52.65,2.15,2.15,0,0,0-.43,0,2.36,2.36,0,0,0-.92.2,2.46,2.46,0,0,1-.58.16l.1-.22a2,2,0,0,0,.22-1.07c-.09-.39-.47-.47-.73-.52A2,2,0,0,1,78,56a5,5,0,0,1,.1.58A2.39,2.39,0,0,0,78.53,58l.07.08h.9l0-.2a.57.57,0,0,0-.48-.72l-.1,0a2.07,2.07,0,0,0-.31-1.56l.34-.05.68.72Zm-3-3.25h0l0-.11a22.15,22.15,0,0,0,2.15,2.46l-.44-.07a4.37,4.37,0,0,0-.75-.57c-.65-.42-1.17-.75-1-1.71Zm.58,2.47h0a2.44,2.44,0,0,0-.64,1.07,4.69,4.69,0,0,1-.27.59A2,2,0,0,0,75.78,56a2.57,2.57,0,0,1-.38-.57h0l.07,0a1,1,0,0,0,.6-.76c0-.08,0-.15.08-.21l.28.27a3.38,3.38,0,0,0,.8.68Zm-3.45-6.78h0a12.22,12.22,0,0,0,.35,1.22H73.9A2.54,2.54,0,0,0,73,50a11.56,11.56,0,0,0,.07-1.58,12.46,12.46,0,0,1,.06-1.52,6,6,0,0,1,.63,1.77ZM72.88,45h0c.75.42.4.43,0,.2l-.11-.08a.54.54,0,0,1,0-.11ZM69,53.21h0l.12-.22h0a.87.87,0,0,0,.13.15c-.16.2-.33.39-.51.59l0,0a2.45,2.45,0,0,1,.27-.57Zm3.15-2.07h0a.54.54,0,0,0,.2.1l.16,0,.11-.15a1.86,1.86,0,0,0,.22-.42c.22.2.62.16,1.05.06a2.54,2.54,0,0,1,.57-.1.32.32,0,0,1,.26.09l.09.09H75a.55.55,0,0,0,.44-.37,10,10,0,0,0,1.18,2.2l-.09,0-.21,0c-.41,0-.48.39-.51.55s0,0,0,.06-.12-.16-.16-.49-.11-.73-.48-.88l-.23-.09-.09.23a1.7,1.7,0,0,0,.09,1.46,1.17,1.17,0,0,0,.55.51h0a2.11,2.11,0,0,1-.1.49,2.05,2.05,0,0,1-.54-.62,2.14,2.14,0,0,0-.87-.87l-.08,0-.08,0a1.51,1.51,0,0,0-.78.56,1.42,1.42,0,0,1-.42.36l.09-.42a5.69,5.69,0,0,1,.4-1.34l.21-.42-.47.06a.8.8,0,0,0-.55.38,4.16,4.16,0,0,0-.48,2.59,3.7,3.7,0,0,0-.29-.24l-.1-.07-.12,0a.93.93,0,0,0-.56.52,2.47,2.47,0,0,0,0-1l-.11-.41-.3.3a2.35,2.35,0,0,0-.53,1.46,3.73,3.73,0,0,1-.25,1.06l-.42,0a.67.67,0,0,1-.48-.07L68.11,56l.08.57a.71.71,0,0,0,.06.22,2.44,2.44,0,0,0-.83.36l0,0a1.15,1.15,0,0,0,.24-1,29.73,29.73,0,0,0,4.53-5Zm-4.74,3.61h0a.08.08,0,0,0,0,0h0a.92.92,0,0,1-.13.21l.1-.17Zm-.33,6.56h0l0-.11L67,61.11a2.67,2.67,0,0,1-.15-2c0-.18.06-.36.08-.54l.25,0a2.35,2.35,0,0,1,.35,0,.28.28,0,0,1,.2.06,6.49,6.49,0,0,1-.24.65,3,3,0,0,0-.34,1.45l0,.29.28-.08.14-.06a2.57,2.57,0,0,1,.87-.23.44.44,0,0,1,.37.14,1.3,1.3,0,0,1-.05.49,1.9,1.9,0,0,0-.06.52V62h.48a1.06,1.06,0,0,1,.3,0,.5.5,0,0,1-.16.19.62.62,0,0,0-.27.5A.84.84,0,0,0,68,63l-.18.24.27.13a3.06,3.06,0,0,0,.54.2c.73.23,1.29.46,1.31,1.08l0,.24h.24a2.2,2.2,0,0,1,1,.41,2.05,2.05,0,0,0,1,.39.92.92,0,0,0,.48-.14l.23-.15-.17-.21a3,3,0,0,0-1.07-.65l-.49-.23a1.06,1.06,0,0,0,.3-.16l.08,0,0-.09a6.85,6.85,0,0,0,.16-.76c.13-.73.23-1.18.64-1.25s.49.11.76.32a2.42,2.42,0,0,0,.82.47l.13,0,.1-.09a.73.73,0,0,0,.22-.3v.35c0,1.06,0,1.72-.54,1.91l-.07,0,0-.09a.56.56,0,0,0-.68-.33l-.18,0v.19a1.11,1.11,0,0,0,.26.79.8.8,0,0,0,.58.23,2.13,2.13,0,0,0,1.7-1.26,3,3,0,0,1,1.88.89c.18.16.37.31.57.46l.35.24h-.79a55.78,55.78,0,0,0-7.58.38,5.16,5.16,0,0,0-1.46-2.19c-.81-.85-1.57-1.66-1.39-2.78Zm.33,21.34h0a1.93,1.93,0,0,0,.09-1.25l.26-.75c.4-1.2.72-2.14,2-2.29l.41,0c2.16,0,3.17,2,3.2,4.07V83l.41-.39a1.64,1.64,0,0,1,.25-.21,2.54,2.54,0,0,0,.55-.58,4.37,4.37,0,0,0,.32.55l.27.39.17-.45a6.26,6.26,0,0,0,.3-1.56,5.1,5.1,0,0,1,.55-2.14,3.19,3.19,0,0,1,2-.72A2.83,2.83,0,0,1,81,80.25a3.17,3.17,0,0,1,0,.63,2.23,2.23,0,0,0,.29,1.41l-1.08.1a1.17,1.17,0,0,0,.07-.67A4.3,4.3,0,0,0,79,79.29a1.61,1.61,0,0,0-.82-.21A2.65,2.65,0,0,0,76,80.56a1.49,1.49,0,0,0,.27,1.7l.15.17.18-.13a2.41,2.41,0,0,0,.72-1.1c.28-.65.48-1,1.13-1A2.79,2.79,0,0,1,79,81.26c0,.14.1.27.16.41h-.22a.2.2,0,0,0,0-.07.92.92,0,0,0,0-.37l-.06-.17H78l0,.29c0,.09,0,.14-.19.27a.59.59,0,0,0-.16.93l.06.09c-2.77.28-5.59.52-8.23.52-.8,0-1.55,0-2.26-.07l.14-.43ZM48.11,41.37h0c0,.38.1.76.17,1.14-.83-1.38-1.59-2.69-.68-3.88a20.49,20.49,0,0,1,.51,2.74ZM44.5,43.92h0a1.18,1.18,0,0,1,0-.31A12.41,12.41,0,0,1,46,40.82c.2.49.4,1,.59,1.5.27.72.55,1.46.87,2.16-.61,0-1.13.06-1.63.1s-1,.07-1.52.09a1.41,1.41,0,0,0,.24-.75Zm-.9-.06h0a1.23,1.23,0,0,0,0-.19,2.7,2.7,0,0,1,.15-1.8c.34-.51.77-1,1.22-1.6l.68-.85a23.82,23.82,0,0,0-2,4.44Zm3.12-5.21h0c-.06.07-.11.15-.16.22a.36.36,0,0,0-.32-.18h-.07a9.42,9.42,0,0,0,1.22-2.19c.32.68-.08,1.34-.67,2.15Zm.09-6.18h0a7.44,7.44,0,0,1,.35,2.94,5.82,5.82,0,0,1-1.33,2.28c-.23.28-.44.54-.62.81l-.71,1-1,1.42a13.83,13.83,0,0,1,.07-1.81,12.1,12.1,0,0,0,0-2.63A7.75,7.75,0,0,0,46,33.69c.22-.36.46-.74.7-1.09l.1-.13Zm-2.76-5.76h0l-.45.56a1.46,1.46,0,0,1,0-.55A3,3,0,0,1,44.92,25a2.63,2.63,0,0,1-.87,1.67Zm1.13-.18h0c.6,1.24-.42,2.38-1.33,3.4l-.22.26c0-.11,0-.23,0-.34a6.24,6.24,0,0,1,0-1.36,14.23,14.23,0,0,0,1.15-1.44l.38-.52Zm-1.7-1.1h0c0-.13,0-.26,0-.39a5.26,5.26,0,0,1,0-.55,2.86,2.86,0,0,1,.77,0h.13a7.4,7.4,0,0,1-.87.92ZM46.68,32h0l-.32.26a8.15,8.15,0,0,0-1.58,1.84,9.51,9.51,0,0,1-1.2,1.5c0-.52,0-1,0-1.44l.24-.24A15.09,15.09,0,0,0,45.33,32c.3-.43.61-.86.93-1.27.15.42.29.85.42,1.3Zm-2.92,1h0l-.21.39c0-.53,0-1.06,0-1.62.26-.4.55-.78.84-1.15a19.38,19.38,0,0,0,1.23-1.75c.1.35.24.75.4,1.2a.19.19,0,0,1,0,.08A6.63,6.63,0,0,0,43.76,33Zm-4.58-18.4h0c-.24-1.49.63-2.61,1.47-3.68A6.68,6.68,0,0,0,42,8.7l0-.16.12.16.15.17.19-.13a.55.55,0,0,0,.25-.4,15.45,15.45,0,0,0,1.51,1.84,13.38,13.38,0,0,1,1.37,1.68,3.43,3.43,0,0,1,.19,3.06,1.12,1.12,0,0,0-.3-.68l-.18-.17-.18.18c-.33.34-.3,1-.28,1.61a4,4,0,0,1,0,.7h-.2a5.55,5.55,0,0,1,0-.69c0-.69.1-1.41-.44-1.68L44,14.1l-.12.19a2.46,2.46,0,0,0-.13,1.33,2.63,2.63,0,0,1,0,1c-.15-.12-.17-.43-.15-1s0-1.25-.46-1.5L42.88,14l-.09.27a4.14,4.14,0,0,0,0,2l.06.4-.21.05h0c-.06-.23-.09-.5-.13-.76a2.44,2.44,0,0,0-.69-1.73L41.51,14l-.12.3a2.25,2.25,0,0,0,.14,1.4,2.43,2.43,0,0,1,.17,1c-.29-.14-.43-.47-.59-1a1.85,1.85,0,0,0-.88-1.26l-.37-.16,0,.4a3.84,3.84,0,0,0,.47,1.42.8.8,0,0,1,.08.16l-.08-.08a2.65,2.65,0,0,1-1.17-1.65Zm5.47,6.55h0a9.12,9.12,0,0,1-3,.32h-.22a8,8,0,0,1-.16-1.52A6.67,6.67,0,0,0,41,18a19,19,0,0,0,2-.16l1.34-.14c.18,1.12.27,2.35.34,3.46Zm-4.49,1.64h0a.36.36,0,0,1,.14-.23s.05.05.1.21a1.25,1.25,0,0,0,.12.27l.08.14.16,0c.32,0,.33-.37.33-.5h0c.75,0,1.47-.1,2.16-.17.48,0,1-.09,1.44-.12a.41.41,0,0,0,.22.37h0a.55.55,0,0,0,.48-.07,1.36,1.36,0,0,0,.2.57,1.11,1.11,0,0,1,.12.3,3.78,3.78,0,0,1-1.07.12H43.39a.11.11,0,0,1,0-.05.69.69,0,0,0-.06-.51L43.28,23l-.13,0a.7.7,0,0,0-.61.19.84.84,0,0,0-.18.52l-.61,0a13.79,13.79,0,0,1-1.38,0,1.46,1.46,0,0,1-.21-1Zm-1.67,16h0C39.11,34.63,40.68,28.5,41,24.6a7,7,0,0,1,1.5-.09c-.23,4.15-.21,8.93-.19,13.55,0,1.51,0,3,0,4.35A18.67,18.67,0,0,1,41,39.69l-.33-.81-.3.33c-.4.43-.57.54-1.07.3l-.27-.13-.08.29a20.58,20.58,0,0,1-1.06,2.8c.19-1.2.37-2.43.56-3.69Zm.2,4.18h0a11.23,11.23,0,0,1,.89-2,5.18,5.18,0,0,1,1,2,6.83,6.83,0,0,0,.81,1.8,25.52,25.52,0,0,1-3.19.34l-.5,0a10,10,0,0,0,1-2.17Zm-1.93,4.09h0c0-.12.07-.23.1-.35h.08c.14,0,.2.26.27.63,0,.11,0,.22.07.33a6.37,6.37,0,0,0-.66.07,2,2,0,0,1,.14-.67Zm-2.67,1h0a1.4,1.4,0,0,1-.33-.46,2.54,2.54,0,0,0-.16-.28,4.14,4.14,0,0,0,.76-.3,1.53,1.53,0,0,0,1.19-.14l.23-.09a1.75,1.75,0,0,1,.1,1,3.17,3.17,0,0,1-.44,0,2.21,2.21,0,0,0-1.35.3Zm5.46,4h0c-.18-.12-.34-.24-.49-.33l0,0H39a5,5,0,0,0-3.83.89c0-.38.1-.76.16-1.12a8,8,0,0,0,.15-2.2A40.72,40.72,0,0,1,40,49.05a11.26,11.26,0,0,0,.19,3.45c-.2-.11-.41-.26-.6-.39Zm0-4.59h0l-1.06,0a2.5,2.5,0,0,1-.23-1c1.14-.05,2.27-.14,3.36-.23l.73,0v.13a.63.63,0,0,0,.37.73l.06,0h.07a.56.56,0,0,0,.23-.07,2.54,2.54,0,0,0,0,.29c-.91,0-2.2.09-3.57.14Zm6.51,3.66h0a7.79,7.79,0,0,0-4.8,1.64c0-.5-.08-1.1-.12-1.68-.07-.79-.13-1.6-.15-2.19l3.23-.12,4.05-.14c.06.28.13.55.2.82a12.81,12.81,0,0,1,.46,2.39,5.55,5.55,0,0,0-2.87-.72Zm3.84-4.75h0a3.3,3.3,0,0,0,0,1c-1.21,0-2.46,0-3.66-.06l-2,0A4.11,4.11,0,0,1,44,46.17a29.11,29.11,0,0,0,4.67-.3c.08-.11,1.17.16,1.23.16s0,.26,0,.4Zm.22-4.34h0c0,.3-.12.61-.17.92-.56-2.29-1-4.75-1.38-7.14A18,18,0,0,0,50.33,41c-.06.37-.13.73-.21,1.1Zm.86.73h0l.06-.61a6.09,6.09,0,0,1,.39,2.16h-.64c.09-.62.14-1.09.19-1.55Zm1.81,9h0a3.59,3.59,0,0,0-1.87.62c0-.23,0-.46,0-.69,0-.66,0-1.33-.1-2l.14-.7c.05-.26.35-.39.89-.39a5.78,5.78,0,0,1,1.66.3,4.85,4.85,0,0,0,.07,2.19c0,.27.1.55.14.84a2.13,2.13,0,0,0-.91-.2Zm1.26-5.31h0a4.22,4.22,0,0,0-.29.89,15.57,15.57,0,0,1-2.73,0,2.78,2.78,0,0,1,.17-1l.09-.31h0c.85,0,1.85.12,2.81.21l-.07.18ZM9.67,75.12H9.53L9.67,75v.08Zm.46,0h0a.21.21,0,0,1,0-.12h0a.14.14,0,0,1,0-.07h.07l0,.17-.07,0Zm.11-3.62h-.07c-.19,0-.22,0-.3-.12-1-6.47.65-6.8,3.52-12.33-1,5.81-4,5.58-3.15,12.46Zm2.94-15.24-.18.34c-.62,1.15-.91,1.9-1.41,2.95a15.91,15.91,0,0,1-1.87,3,14.12,14.12,0,0,0-1.63,3.89c-.4,2.49,0,5.57,1.8,6.82l.19.13.14-.18a.8.8,0,0,0,0-.91.36.36,0,0,0,0-.09h.32a4.2,4.2,0,0,0,1.14,1.57,3.85,3.85,0,0,1,.35.35l.1.1.15,0a1.12,1.12,0,0,0,.42-.23h0a.33.33,0,0,0,0,.23.21.21,0,0,0,0,.06c-1.09,0-2.18,0-3.2,0a9.6,9.6,0,0,0-.68-1.11,6.79,6.79,0,0,1-.74-1.32A11.57,11.57,0,0,1,9.34,61.51c1.2-1.71,2.6-3.86,3.7-5.65l.14.36Zm16.66,15-.08.17-.68,0c-.52-4.22-.07-6.54-1-11.62,1.64,4.11,4.37,5.58,1.77,11.4ZM25.58,58h.07v.25h0v.16h-.07c-.17-.19,0-.12,0-.39Zm.91.49h0l0,.24c-.44,3.4-.32,9.67,1.33,12.78a4.52,4.52,0,0,1-1,.09c1.22-1.32-5.25-6.37-.29-13.11Zm-3.09,1.2a25.91,25.91,0,0,0,1.49-2.2,16.7,16.7,0,0,1-1.17,2.86c-1.54,3.17-2.63,8.72.6,11.38-3.38-.25-4.38-4.13-3.65-7.42.43-2,1.78-3.31,2.73-4.62Zm9.82,13.15h0a1.22,1.22,0,0,1-.17.47c-2,.25-4.2.35-6.36.45L24,73.87l-.29,0a1,1,0,0,0-.73.07l0,0a8.17,8.17,0,0,1-.64-1.17c0-.06-.07-.13-.11-.2a4,4,0,0,0,1.5.25,13,13,0,0,0,1.52-.12l.54-.06a14.26,14.26,0,0,1,1.54-.07c.71,0,1.43,0,2.19.07s1.59.07,2.39.07c.49,0,.93,0,1.34,0,0,.07,0,.14,0,.21ZM32,70.53h0a11.52,11.52,0,0,0,.05-7.25A12.79,12.79,0,0,0,31,61.18l-.13-.24a5.49,5.49,0,0,0-.77-1l-.25-.29.24.22C33.31,62.72,36,66.76,32,70.53Zm-5.19,5.9h0l-.33-.31h1.3c.79,0,1.52,0,2.22,0a89.15,89.15,0,0,1,.28,9,4.08,4.08,0,0,0-2.66.81c-.26-2.54-.47-5.54-.54-7.64,0-.17,0-.35,0-.52a1.49,1.49,0,0,0-.3-1.35Zm-.61,12.93h0c0-.08.12-.23.16-.24s.28.12.44.26a1.62,1.62,0,0,0,.52.34l-1.48,0a.8.8,0,0,0,.36-.39Zm-4-1.76h0a2.12,2.12,0,0,1,1.69-1,1.24,1.24,0,0,1,.33,0c.73.15.87,1.23,1,2.28,0,.2.05.41.08.6l0,.11.09.06a.38.38,0,0,0,.17.08,32.71,32.71,0,0,0-3.75.33,2.86,2.86,0,0,1,.35-2.49Zm2,15.22h0c.33-2,.66-4,1.16-5.85a7.33,7.33,0,0,1,.21,1.13c0,.22.05.45.09.68a22.72,22.72,0,0,0,1.23,4.2c.29.79.56,1.55.77,2.31a3.2,3.2,0,0,1,.07.49,1.45,1.45,0,0,0,.65,1.36l.22.11.12-.21c.06-.11.1-.15.1-.16l.07,0a1,1,0,0,0,.69,0l.21-.08-.05-.21h0a.16.16,0,0,1,0,.07l.09.2.21-.07c.74-.24.84-1,.93-1.62a2.51,2.51,0,0,1,0-.27c.17-1.09.3-2.26.43-3.39a34.34,34.34,0,0,1,1-5.87c.43,1.7.72,3.56,1,5.37s.62,3.91,1.09,5.71l.05.21c-4,.33-8.15.44-11.26.47.34-1.5.61-3.09.87-4.64Zm12.35,7.8h0c-2.9.26-5.41.48-8.25.48h-.75c3.16-.31,6.44-.53,9.66-.64a.47.47,0,0,0,0,.1l-.71.06Zm1.12-2.16h0a8.33,8.33,0,0,1-.38,1.13l0,.09-.13-.06a1.14,1.14,0,0,1-.19-.09l-.07-.07h-.1c-2.75,0-5.56.32-8.28.58-1.3.13-2.54.26-3.74.35h0l.06-.19-.16-.1a.86.86,0,0,0-.43-.11,2.4,2.4,0,0,0-.73.16l-.29.09-.16-.16c-.13-.12-.51-.49-.49-.57.12-.28.37-.4.86-.4a4.93,4.93,0,0,1,.55,0l.46,0c2,0,4.18-.16,6.45-.34s4.52-.34,6.8-.36ZM34.74,107h0l.07,0,.1,0s.05,0,.06,0l-.23,0Zm1.92-.61h0v.43l-.81.08a.87.87,0,0,1,.78-.5ZM36,104.22h0A45.56,45.56,0,0,1,34.22,98c-.37-1.54-.76-3.13-1.23-4.61l-.05-.16h-.17l-.3,0a1.61,1.61,0,0,0-.78,0l-.16,0,0,.16c-.34,2.78-.86,5.44-1.36,8-.08.43-.16.86-.25,1.29,0-1.47,0-3,0-4.44,0-.94,0-1.86,0-2.74a5.86,5.86,0,0,1,.06-.69,2.26,2.26,0,0,0-.37-2c1.53-.06,3.07-.09,4.52-.12h.79c.08,1.1.09,2.27.1,3.41a26.41,26.41,0,0,0,.7,7.07l.32,1Zm8.22-6.29h0a.09.09,0,0,0,0-.05,4.14,4.14,0,0,1-.07-.45A25,25,0,0,1,44.24,94c0,.28,0,.58,0,.87a6.38,6.38,0,0,0,.18,2.56l0,.1a2.76,2.76,0,0,0-.18.39Zm2.36,28.69h0l0-.2c.2-.24.43-.48.65-.71a8.18,8.18,0,0,0,1.13-1.34l.14.18.1.14a3.41,3.41,0,0,1-.94.91,3.91,3.91,0,0,0-1,1ZM46.8,128h0c0-.28-.06-.55-.1-.81h0a2.18,2.18,0,0,0,1.48-1,3.43,3.43,0,0,1,.86-.77c.15.66-.62,1.3-1.64,2.06-.23.16-.44.32-.62.47Zm.17,1.3h0c0-.33.32-.58.73-.89a4.18,4.18,0,0,0,.38-.29l.45-.45a6.87,6.87,0,0,1,1-.93.59.59,0,0,0,.44.11A27.84,27.84,0,0,1,47,129.31Zm.76,4h0l-.28.26a3.69,3.69,0,0,0-.05-.94l0-.17c2-1.87,4.14-3.74,6.17-5.54l.22-.19c.06.22.11.45.15.68a78.46,78.46,0,0,1-6.18,5.9Zm6-9h0a1.29,1.29,0,0,0-1,.48l-.1.12.06.14a.81.81,0,0,0,.52.42c.2.08.25.11.26.19a38.65,38.65,0,0,1-5.32,4.92l-.85.7c0-.14,0-.27,0-.41s0-.36,0-.54c.6-.54,1.28-1.12,1.88-1.59a5.48,5.48,0,0,1,.46-.34c.6-.42,1.28-.9,1.24-1.57,0,.1.12.28.45.28h.41l.37.1-.05-.37a2.32,2.32,0,0,1,.51-1.94,1.77,1.77,0,0,1,1.31-.63,1.11,1.11,0,0,1,.85.35.48.48,0,0,1,.09.11,1.59,1.59,0,0,0-1-.4ZM47.9,135.55h0a20,20,0,0,0,6.42-5.09l.16-.16c0,.17.08.32.11.47l-.57.47a30.53,30.53,0,0,0-3.52,3.42l-.69.78-1.92.11Zm2.22-.13h0l.7-.38a10.14,10.14,0,0,0,3.58-3.48l.24-.41c.06,1.27-.78,2-1.66,2.85-.26.24-.54.5-.77.76l-.46.5.67-.09a3.27,3.27,0,0,0,1.77-1.2,7.87,7.87,0,0,1,.59-.57.79.79,0,0,0,.23.41l.14.13.16-.1a.79.79,0,0,0,.22-.18c0,.45.09.9.16,1.34-1.89.15-3.74.3-5.57.42ZM58,113.05h0a1.2,1.2,0,0,1-.09.35l-.06.16h-.07a10.48,10.48,0,0,0-1.5-.09h-.15a6.32,6.32,0,0,0-1-3.73l-.18-.37a27.34,27.34,0,0,0,1.91,2.5c.11.13.28.29.46.46a4.63,4.63,0,0,1,.68.73Zm0-1.52h0l.25-.1.13-.06a3.82,3.82,0,0,0-.08.39l0,.16-.28-.39Zm-2.5,1.94h0c-2.06.07-4.13.35-6.18.37a76.56,76.56,0,0,0,2.3-9.36,24,24,0,0,1,2,4.66,27.09,27.09,0,0,0,1.84,4.33Zm-10,.29h0c0-.06,0-.06.15-.08a.69.69,0,0,0,.49-.22l0,0v-.06a5.1,5.1,0,0,1,.68-1.41,4.21,4.21,0,0,0,.71-1.59.67.67,0,0,0,.17-.08l0,0,.11,0,.06-.1c.54-1,1.06-2.07,1.57-3.09q.45-.93.93-1.86a36.22,36.22,0,0,1-1.1,3.94,35.18,35.18,0,0,0-1.24,4.65l-.21,0a3.25,3.25,0,0,1-.95,0H46.9l-.09.1a.63.63,0,0,1-.11.12,1.11,1.11,0,0,0-.28.34,1.67,1.67,0,0,0-.51,0h-.17a.67.67,0,0,0-.11-.32.32.32,0,0,1-.07-.26Zm13,2.53h0a1.17,1.17,0,0,1-.31-.19l-.07-.07h-.11c-5.28.15-10.55.58-15.84.68l.43-.31a6,6,0,0,1,2.5-1.27c.36-.06.78-.1,1.3-.14l.41,0c2.1-.11,9.21.21,11-.92a5.31,5.31,0,0,0,.38,1.29,7.09,7.09,0,0,1,.33,1ZM61,104.8h0c-.34.62-.7,1.26-1,1.9l-.34.68a27.35,27.35,0,0,0-1.66,3.74l-.07.2c-1.58-2.23-3.07-4.56-4.53-6.83-.43-.68-.86-1.36-1.3-2v-.15a.93.93,0,0,0-.18-.75l-.07-.07h-.32a2.69,2.69,0,0,1,1.78-.83,2.56,2.56,0,0,1,.39,0c.67.12,1.08.86,1.47,1.57a8.54,8.54,0,0,0,.57.93,1.08,1.08,0,0,0,.28.23,2,2,0,0,1,.31.25,2,2,0,0,0-1,.38l-.49.43h.78l.9,0,.08.29.07-.29a24.68,24.68,0,0,0,3.46-.47l1.16-.26-1.17-.23a7.54,7.54,0,0,0-2.26,0l-.32,0-.65.06a4.32,4.32,0,0,1,4-3.24,4.61,4.61,0,0,1,1,.13c0,.06.11.16.17.25s.3.49.59.53A27.34,27.34,0,0,1,61,104.8ZM61.32,78h0c.13-.26.27-.54.41-.8a1.11,1.11,0,0,0,.08.21,4.75,4.75,0,0,0-.49.6ZM61,80.48h0a7.91,7.91,0,0,1,1.27-2.23l.12,0,.14,0a18.37,18.37,0,0,0-1.35,2.37,21.34,21.34,0,0,1-1,1.88,1.73,1.73,0,0,1,.26-.84c.19-.36.38-.78.59-1.23Zm-.85-.35h0V80l.23-.29-.23.43ZM60,72.8h0a3.1,3.1,0,0,1-.72,3,2,2,0,0,1-.84-.42c-.16-.11-.31-.22-.49-.32.31-.4.67-.77,1-1.14s.71-.75,1-1.17Zm-2.86,5.31h0a2.73,2.73,0,0,0-.25.23,2.65,2.65,0,0,0-1.28-.55,5.19,5.19,0,0,1-.69-.2,8.56,8.56,0,0,0,.62-.6c.49-.5,1-1.08,1.54-1.12a1.57,1.57,0,0,1,1.09.5c.13.1.26.21.4.3a19.43,19.43,0,0,1-1.43,1.44Zm1.19,0h0a3.21,3.21,0,0,0-.24.45h-.17a2.85,2.85,0,0,1,.41-.44ZM54.07,77h0c-.39,0-.66-.34-1-.73a4.69,4.69,0,0,0-.46-.54,4.56,4.56,0,0,1,1.25-.84,7.18,7.18,0,0,0,1-.63,4.57,4.57,0,0,1,.68.57,4.62,4.62,0,0,0,.62.54c-.22.18-.44.4-.67.63-.49.49-1,1-1.47,1Zm.84,1.5h0a9.19,9.19,0,0,1-1,0l-.7,0a1.75,1.75,0,0,1,1.75,0ZM55.26,73h0l-.09.06a5.39,5.39,0,0,1-1.68-1.71,3,3,0,0,1,.88-.73,4.65,4.65,0,0,0,.74-.54c.33.23.69.43,1,.63s.69.4,1,.62A5.2,5.2,0,0,1,55.26,73ZM58,71.79h0c.34.25.67.52,1,.79l0,0a6.48,6.48,0,0,1-1.56,1.79l-.29.25a3.31,3.31,0,0,1-1.29-.93h0a5.51,5.51,0,0,1,.89-.75A4.21,4.21,0,0,0,58,71.79Zm-3.67,1.87h0l-.34.2c-.65.36-1.31.74-1.94,1.15a5.14,5.14,0,0,1-1.4-1.89l.46-.28c.53-.33,1.07-.67,1.57-1a16,16,0,0,0,1.13,1.3l.52.57Zm-.78-3.5h0c-.17.11-.35.23-.52.36a4,4,0,0,1-.69-.9c-.14-.22-.29-.45-.46-.67a3.85,3.85,0,0,1,.54-.32,3.09,3.09,0,0,0,.67-.41,1.93,1.93,0,0,1,.73.61,2.88,2.88,0,0,0,.64.61,3.49,3.49,0,0,1-.91.72ZM52,70.74h0a3.45,3.45,0,0,0,.2.32l-.5.38a5.73,5.73,0,0,1-1.42.88l0,0c-.31-.69-.63-1.4-.89-2.16a8.55,8.55,0,0,0,.86-.37,6.41,6.41,0,0,1,.76-.32,5.69,5.69,0,0,1,1,1.32Zm-1.3,4.1h0c.16.22.32.43.47.66a8.75,8.75,0,0,0-1.4.71l0,0a5.82,5.82,0,0,1-1.54-1.71,14.46,14.46,0,0,0,1.66-.89,10,10,0,0,0,.85,1.27Zm.12,1.77h0a9.2,9.2,0,0,0,.93-.49,6.25,6.25,0,0,1,1.06,1.06l.35.39a9.26,9.26,0,0,1-1.09.56l-.29-.19a5.16,5.16,0,0,1-1.38-1.13l.42-.2Zm8-5.77h0c.07-.08.15-.15.22-.24a1.62,1.62,0,0,1,.66,1,.31.31,0,0,1-.15,0,1.18,1.18,0,0,1-.55-.29,3.6,3.6,0,0,0-.4-.28,1.71,1.71,0,0,1,.22-.25Zm-.94-1.12h0a4.22,4.22,0,0,1,.5.16,1.39,1.39,0,0,1-.37.51l-.19.21c-.28-.18-.57-.34-.86-.5s-.7-.39-1-.61a1.88,1.88,0,0,1,.23-.16,3.29,3.29,0,0,0,.33-.23,4.06,4.06,0,0,0,1.38.62Zm-2.53-2.85h0c.27,0,.56.34.73.66a3,3,0,0,1-.73-.66Zm.47-2.82h0a3.68,3.68,0,0,1,.84-.06,1.79,1.79,0,0,0-.44,1.52,9,9,0,0,1-1.07-1.39c.22,0,.45,0,.67-.07Zm.09,4.45h0a1.38,1.38,0,0,1-.49.26l-.24.1a3,3,0,0,1-.73-.65,4.23,4.23,0,0,0-.47-.48l.06-.07c.14-.16.24-.26.36-.27v-.24h0v.24c.35,0,1.24.82,1.5,1.11Zm-3.28-7.88h0c.1.3.21.58.33.85a6.24,6.24,0,0,1,.57,2.16,2.32,2.32,0,0,1-.63.21,2,2,0,0,0-1,.44l0,0,0,0a.57.57,0,0,0,.1.53l-.07.41.39-.13a2.75,2.75,0,0,1,.89-.16,1.61,1.61,0,0,1,1.54,1.09,2.26,2.26,0,0,1-.73.58,4.5,4.5,0,0,0-.53.36,1.83,1.83,0,0,1-.64-.68,2.92,2.92,0,0,0-.67-.74l-.15-.1-.15.12a.68.68,0,0,0-.29.52c0,.34.29.6.58.85a2,2,0,0,1,.47.49l-.41.24a3.8,3.8,0,0,1-.65.36c-.07-.18-.14-.38-.2-.58a4.53,4.53,0,0,0-.53-1.23l0-.08a9.75,9.75,0,0,0,1.88-5.61ZM49.13,68h0a10.87,10.87,0,0,0,1-1,2.7,2.7,0,0,0,.28.75,2.15,2.15,0,0,1,.29.81c-.3.16-.62.3-.94.44l-.6.27a2.45,2.45,0,0,1,.05-.35,1.58,1.58,0,0,0,0-1Zm-.93,1.16h0c0,.09,0,.21,0,.3a1,1,0,0,0,0,.17,1.88,1.88,0,0,0-.42.14l-.1,0c.16-.21.32-.43.49-.64Zm-1.07,1.62h0a4.25,4.25,0,0,0,.8-.2,5.5,5.5,0,0,1,.58-.16A7.77,7.77,0,0,0,49,71.72a8.29,8.29,0,0,1,.41,1,3.55,3.55,0,0,1-1.7,1l-.12,0h0c-.72-1.16-1.2-2.12-.48-2.94Zm-.67,3.4h0c0-.26,0-.52,0-.76a3.13,3.13,0,0,1,.33.66l-.08,0-.26.11v0ZM47.22,77h0A5,5,0,0,1,46.58,75a1.16,1.16,0,0,1,.42-.1c.44,0,.72.42,1.06.9a3.84,3.84,0,0,0,.73.87,2.13,2.13,0,0,1-1,.28c-.19,0-.39.06-.61.11Zm1.32,2h0c-.21-.39-.42-.78-.6-1.19l.49-.17a5,5,0,0,0,1-.43,9.4,9.4,0,0,0,.85.71,7.52,7.52,0,0,1,.79.67c-.83.12-1.68.25-2.56.41ZM49,80.71h0a17,17,0,0,1,2.94-.36l1.6,0c.66,0,1.33,0,2,0a13.11,13.11,0,0,1,2.76.22c.16,1.37.21,2.79.27,4.3.05,1.26.1,2.56.21,3.87a.45.45,0,0,0,.12.33,79.73,79.73,0,0,1-8.59.43H50v-.06a31.59,31.59,0,0,0-.47-4.15A39.9,39.9,0,0,1,49,80.71Zm-.51,10.5h0v-.3c1.3,0,2.69-.21,4-.37a42.54,42.54,0,0,1,4.58-.36,10.4,10.4,0,0,1,1.56.1,7.58,7.58,0,0,1-2.26.24h-.82c-.59,0-1.19,0-1.78,0a23.53,23.53,0,0,0-3,.39,19,19,0,0,1-2.31.3Zm6.12,1.43h0a3.49,3.49,0,0,0-.76,2.71l-.15.06a4,4,0,0,0-.87-2.9,2.76,2.76,0,0,0-1.44-.85,24.88,24.88,0,0,1,3.7-.26,24.53,24.53,0,0,0,4-.3,1.24,1.24,0,0,1,0,.3v.14a6.8,6.8,0,0,0-1.26-.12,4.16,4.16,0,0,0-3.2,1.22Zm7.06,2.57h0a6.05,6.05,0,0,0-3,1.55l-.05,0,0,.07a4.29,4.29,0,0,1-.19.54,4.73,4.73,0,0,0-3.51-2.29,2.84,2.84,0,0,1,.65-2,3.4,3.4,0,0,1,2.82-.69A4.15,4.15,0,0,1,60,95.22l.08.29.28-.13c.78-.4.62-1.24.5-1.91a2.33,2.33,0,0,1-.05-1.13,3.79,3.79,0,0,1,.49,1.46,3.84,3.84,0,0,0,.45,1.41Zm-.69-9.4h0a4.22,4.22,0,0,1-.55,0s.07-.06.16-.1a.92.92,0,0,0,.29-.18l0,0c.08-.12.16-.24.23-.37-.07.16-.13.31-.18.46l0,.14.06.06Zm-.54-1.37h0l0-.24c0-.11,0-.22,0-.33a16.64,16.64,0,0,0,1.59-2.79,22.74,22.74,0,0,1,1.18-2.18,1.72,1.72,0,0,1,.29.49l-.5,1a22,22,0,0,1-2.48,4.08Zm3.51-4.07h0a2.32,2.32,0,0,1,.15.47h0c-.55.1-.71.6-.83,1a2.08,2.08,0,0,1-.14.36,8.28,8.28,0,0,1-.45.71,9.8,9.8,0,0,1,1.32-2.51Zm-.15,3.52h0a3,3,0,0,1-.67,1c.2-.33.43-.64.67-1Zm-.56,6.78h0l.27-.09a1.51,1.51,0,0,0-.26.46c0-.12,0-.25,0-.37Zm0,2.11h0a5.32,5.32,0,0,1,.39-.65,5.88,5.88,0,0,1-.39.65Zm1.94,3h0A8.56,8.56,0,0,1,66,94.08a14.39,14.39,0,0,1-.86,1.71Zm.74-3.27h0c-.14.21-.26.42-.37.62-.28.52-.6,1-1,1.59a12.08,12.08,0,0,1,.71-1.62,10.7,10.7,0,0,0,1-2.69v0l.47.08a5.18,5.18,0,0,1-.87,2.06Zm-.84-1.34h0a4.83,4.83,0,0,0,.29-.86h.38a6.11,6.11,0,0,0-.67.85Zm-2-1.5h0a7.19,7.19,0,0,1,0-1.33,4,4,0,0,0-.25-2.06,4.1,4.1,0,0,0,2.13-2,.68.68,0,0,0,.4.1h.11a12.71,12.71,0,0,0,.71,2.44,10.29,10.29,0,0,1,.75,2.84,10.23,10.23,0,0,0-3.82,0ZM67.21,98h-.07a16.19,16.19,0,0,0,0-2.09c0-.41,0-.82,0-1.21.1,1,.19,2.16.25,3.32a.3.3,0,0,0-.12,0Zm1.43-1.48h0c-.19-2.74-.38-5.56.49-8,0,0,0,0,0,0a.39.39,0,0,0,.34.15,1.13,1.13,0,0,0,0,.26l0,.21h.21c.31,0,.67,0,1.1,0h.9a2,2,0,0,0-.61.84,1.44,1.44,0,0,0,0,1.1c-.41,1-.75,2.19-1.08,3.29a33.52,33.52,0,0,1-1.32,3.85c0-.58-.07-1.18-.11-1.8Zm3.21,6.86h0a16.82,16.82,0,0,1-.08-2.36c0-.5,0-1,0-1.53a12,12,0,0,1,.22,2.08,15.06,15.06,0,0,0,.15,1.81Zm2.42-.14h0a8.25,8.25,0,0,1-1.13.05,24.09,24.09,0,0,1-.24-2.61c-.05-.87-.1-1.76-.23-2.57l0-.13-.11-.06a1.78,1.78,0,0,0-1.2-.09l-.43.07-.25,0,0,.25a22.11,22.11,0,0,1,.13,3c0,.66,0,1.34,0,2.23l-.44,0a5.63,5.63,0,0,1-1.2,0A99.33,99.33,0,0,1,71.68,93a32.06,32.06,0,0,1,1.42,4.6A25.34,25.34,0,0,0,75,103.18q-.37,0-.72.06ZM74.42,97h0c-.11-.49-.22-1-.36-1.5s-.35-1.17-.56-1.78a12.74,12.74,0,0,1-.93-4.49c.69,0,1.38,0,2,0a44.39,44.39,0,0,1,.33,6.14c0,1.29,0,2.63.12,4A17.2,17.2,0,0,1,74.42,97Zm1.63,4.37h0a83.15,83.15,0,0,1-.19-11.67v-.06l0-.06a1.2,1.2,0,0,0-.16-.25l-.05-.06a16.11,16.11,0,0,0,2.2,0l.5,0a7.05,7.05,0,0,1-.17,3.28c-.21,1-.5,2.1-.78,3.13q-.27,1-.51,2c-.16.64-.29,1.3-.42,1.93s-.25,1.24-.4,1.84Zm3.52,1.76h0l0,0a1.38,1.38,0,0,1-.07-.66c0-.15,0-.3,0-.43l0-.3a14,14,0,0,1-.09-2.21,11.07,11.07,0,0,1,.24,3.62Zm1,0h0c0-.4,0-.87,0-1.35,0-1.66,0-3.54-1.49-3.54a2,2,0,0,0-.65.12l-.21.06,0,.22a15.75,15.75,0,0,1,.22,4.49H76.79a42.73,42.73,0,0,1,1.4-6c.38-1.31.76-2.65,1.06-4.07.23.78.45,1.56.67,2.33a55,55,0,0,0,2.58,7.75Zm2.7-3.46h0c-.23-.62-.46-1.28-.68-1.93-.38-1.1-.73-2.13-1.11-3a1.05,1.05,0,0,0-.15-.32,11.85,11.85,0,0,0-.51-1.76,6.77,6.77,0,0,1-.57-3.39,5.76,5.76,0,0,0,1-.1,2.41,2.41,0,0,1,1.16,0l.2.07.1-.19a1.75,1.75,0,0,1,.18-.29,23.91,23.91,0,0,0,.14,5.83,34,34,0,0,1,.29,5.09ZM62.65,120.24c-1.31.62-1.07,3.42-.87,5.67l0,.63c.11,1.36.23,2.77.89,3.21l.3.2.08-.35a13.28,13.28,0,0,0-.18-3.63c-.26-2.06-.59-4.63.3-4.86a1,1,0,0,1,1.09.27c.69.75.81,2.58.69,4.05a4.85,4.85,0,0,1-.14.76c-.14.63-.32,1.42.51,1.69l.32.11v-.34c0-.41,0-.91.06-1.44.11-1.88.24-4.23-.62-5.3a2.29,2.29,0,0,0-2.49-.67ZM72.24,119l-.25.17c-1.16.78-1.28,2.88-1.31,4.79v.64l.44-.47a3.31,3.31,0,0,0,.56-2,5.54,5.54,0,0,1,.23-1.41,26.31,26.31,0,0,1,.38,3.22,8.48,8.48,0,0,1-.07,1.11,3.51,3.51,0,0,0,.31,2.41l.4.57,0-.69c.29-3.79.1-6.36-.61-8.09l-.12-.28Zm-57.71.2-.25,0,0,0a.49.49,0,0,0-.33-.08h-.11l-.06.09a.86.86,0,0,0-.2.53.86.86,0,0,0-.15-.17l-.43-.34,0,.54c0,.14,0,.29,0,.45,0,1.25.09,3,.84,3.89l.24.29.18-.33c.65-1.22.52-2.6.36-4.2l-.07-.68Zm55,6.84c0-.84,0-1.63,0-2.4A14.66,14.66,0,0,0,69,118.9l0-.17h-.68l0,.19a24.48,24.48,0,0,0-.5,6.45l0,.59.4-.44a2.87,2.87,0,0,0,.39-2.14,8.39,8.39,0,0,1,0-1c0-.41.06-.78.1-1.11,0,.65,0,1.37,0,2.07-.06,1.61-.11,3.13.45,4l.19.27.21-.25a.82.82,0,0,0,.14-1,1.08,1.08,0,0,1-.09-.32Zm9.13-10.61a2.73,2.73,0,0,1-.39.36,1.88,1.88,0,0,0-.67.79.2.2,0,0,0-.11,0,.47.47,0,0,0-.31.14l-.13.14.09.16a4.5,4.5,0,0,1,.29,1.76c0,1,.09,2.13.92,2.53l.23.12.1-.24a.9.9,0,0,0,.08-.38.58.58,0,0,0,.53.12l.16,0,0-.15a.5.5,0,0,0,0-.12h.07l.19,0,0-.2a8.48,8.48,0,0,0-.73-4.94l-.19-.31-.22.28Zm4.33,0v-.2l-.19,0a.49.49,0,0,0-.61.19.55.55,0,0,0-.59-.2l-.12,0,0,.09,0-.06v.11a5.61,5.61,0,0,0-.31,3.36c0,.41.08.83.1,1.22l0,.24h.24a.5.5,0,0,0,.51-.32,2.13,2.13,0,0,0,.43.38l.4.26V120c0-.83,0-1.77.1-2.76,0-.6.08-1.22.1-1.81Zm2.89.25-.06-.35-.31.17c-.13.07-.17,0-.32-.11a1,1,0,0,0-.64-.32h-.19l-.06.18c-.29.84-.91,3.5,0,4.53l.13.14.17-.09a.63.63,0,0,0,.31-.41.48.48,0,0,0,.18,0l.07.09v-.09l.22,0a.86.86,0,0,1,.21,0h.27l0-.27a12.93,12.93,0,0,1,0-1.54,8.35,8.35,0,0,0,0-1.87Zm2.79.9a2.55,2.55,0,0,0,.2-1.81l0-.2h-.71l0,.2c-.06.31-.11.64-.14,1a1,1,0,0,0-.73-.17l-.23,0v.22c-.09,4.75.36,9.45.69,14.18a2.67,2.67,0,0,1,0,.49,1.62,1.62,0,0,0,.62,1.7l.06,0a.59.59,0,0,0,.21,0,.49.49,0,0,0,.44-.3v0l.22,0,0-.24c.3-2.25-.63-11.43-.6-15.12Zm-67.12.52c2.7,0,5.44-.24,8.08-.48a73.58,73.58,0,0,1,8.75-.46l.46.06a6.76,6.76,0,0,0,1,.1c.75,0,1.2-.29,1.33-.84l.08-.33-.33,0c-7,.36-13.34.74-19.32,1.17a.49.49,0,0,0,0-.11.35.35,0,0,0-.22-.16,3.37,3.37,0,0,1,.32-.19c.41-.25.84-.5.93-.88a.63.63,0,0,0-.09-.51l-.17-.28-.22.24c-.05,0-.22.23-.3.23a.58.58,0,0,1-.26-.15l-.29-.23-.1.34c-.1.32-.37.48-.67.68a1.56,1.56,0,0,0-.94,1.5V117h.23c.58,0,1.19,0,1.81,0Zm18.09-5.66a2.34,2.34,0,0,0,1.33.33,7.36,7.36,0,0,0,2.7-.61l1.83-.83-2,.36a15.57,15.57,0,0,1-1.88.15,13,13,0,0,0-1.91.15l-.6.1.5.35Zm-21.26-2.35a8.87,8.87,0,0,0-1.84.09c-.36,0-.74.09-1.09.11a7.13,7.13,0,0,1-.79,0l-.64,0a1.76,1.76,0,0,0-1.32.42l-.4.39.56,0q.46,0,1,0a17.44,17.44,0,0,0,4.57-.53l0-.49Zm26-1.17c-.28,0-.57.06-.86.07s-.44,0-.66,0H42.4a1.7,1.7,0,0,0-1.48.52l-.3.43.53,0c.31,0,.7,0,1.13-.07a13.21,13.21,0,0,0,3.63-.45l.71-.3-.75-.17a5.07,5.07,0,0,0-1.5,0Zm-31.23-1-.21.21.25.17a1,1,0,0,0,.54.15h0a3.68,3.68,0,0,0,.73-.11,4.74,4.74,0,0,1,.49-.1,6.13,6.13,0,0,1,.62,0c.65,0,1.32,0,1.39-.58l.06-.41-.39.14a4,4,0,0,1-.9,0c-.93,0-2.09,0-2.58.51Zm45-.64h-.6c-.67,0-1.13.06-1.36.36a.72.72,0,0,0-.07.63l.09.29.26-.15a3.68,3.68,0,0,1,1-.26,3.1,3.1,0,0,0,1.39-.46l.78-.6-1,.16a3.51,3.51,0,0,1-.56,0Zm13.91,1h0a45.34,45.34,0,0,0,5.67-.48,41,41,0,0,1,4.39-.41,2.89,2.89,0,0,1,.55.06,1.64,1.64,0,0,0,.37,0c.44,0,.63-.34.76-.67l.13-.34h-.7c-2.08.28-4.57.48-7.19.69-2,.15-4,.31-5.85.51l-2.27.24,2.26.25a15.82,15.82,0,0,0,1.88.1Zm-45.94-4.69c-.21-.37-.39-.69-.78-.69h-.17l-.05.17a10.14,10.14,0,0,0-.11,4.39l0,.15.14,0a.92.92,0,0,0,.36.07c.58,0,.85-.58,1.05-1a2.22,2.22,0,0,0-.21-2.74,3.85,3.85,0,0,1-.25-.42Zm-.22,2.07h0a2.09,2.09,0,0,1,0-.25c0-.13,0-.26,0-.38a1.36,1.36,0,0,1,0,.63Zm7.68-.91c-.2-.86-.41-1.74-1.26-2l-.33-.11v.34c0,.13,0,.27,0,.42-.05,1.28-.1,3,.7,3.66l.22.18.15-.24a2.07,2.07,0,0,0,.24-.91.56.56,0,0,0,.41,0l.26-.07-.09-.26a7.12,7.12,0,0,1-.29-1Zm8.3.93-.63,0c-.2,0-.74,0-.88.41l-.09.27.28.06a9.09,9.09,0,0,0,1.63.14A25,25,0,0,0,45,105.2,26.19,26.19,0,0,1,48.6,105H49l-.16-.36a1,1,0,0,0-1-.5l-.5,0-.25,0c-.51,0-1,.09-1.54.16s-1.19.14-1.72.15a3.08,3.08,0,0,1,4.25-2.43,2.25,2.25,0,0,1,.48.71c.22.45.45.92.93.92h.24v-.24a2.83,2.83,0,0,0-2.42-2.85,6.44,6.44,0,0,0-2.93.53A3.27,3.27,0,0,0,43.11,103a6.47,6.47,0,0,1-.31.77l0,0a.87.87,0,0,0,.16.7,4.46,4.46,0,0,1-1,0ZM13.79,97.24a18.27,18.27,0,0,0,5.09-.65l1.42-.46-1.49,0c-.81,0-1.75.06-2.76.13s-2.15.17-3.25.17A15.07,15.07,0,0,1,11,96.3l-.57-.06.35.46a1.84,1.84,0,0,0,1.5.49h.28c.41,0,.84,0,1.28,0Zm5.93-2.55A.86.86,0,0,0,20,94V94l-.06-.07a.86.86,0,0,0-.61-.27,1.37,1.37,0,0,0-1.1.85l-.07.17.14.11A1.05,1.05,0,0,0,19,95a1,1,0,0,0,.77-.31Zm-8.34.81.12,0,.09-.08a1.15,1.15,0,0,0,.39-1.3.92.92,0,0,0-.86-.64,1,1,0,0,0-.91.64l0,.06v.08a1.3,1.3,0,0,0,1.2,1.22ZM77.06,84.65a1.74,1.74,0,0,0-.28-.34l-.11-.1-.14,0a1.22,1.22,0,0,0-.75,1.14,1.84,1.84,0,0,0,.71,1.71l.31.16,0-.13.28.24.06-.46a4,4,0,0,1,.13-.58,3.51,3.51,0,0,0,.17-1.16v-.12l-.1-.07a1.18,1.18,0,0,1-.29-.33Zm3.83-.44-.23-.06-.23,0c-.73,0-1.18.84-1.22,1.62s.37,1.51,1.06,1.59h.1l.08-.06c.61-.48.51-1.35.43-2.06a2.74,2.74,0,0,1,0-.78l0-.23Zm-28,5.18a.84.84,0,0,0,.37-.09l.23-.12L53.41,89a5.32,5.32,0,0,1-.25-2.17c0-1.09,0-2.23-.56-2.8a1.43,1.43,0,0,0-1.24-.35l-.21,0v.21a11,11,0,0,0,.52,4.4c.12.26.57,1.11,1.26,1.11Zm31-1.32.29,0c.89-.15,1-.94,1-1.64,0-.22,0-.44.08-.65a11,11,0,0,1,.37-1.33,7.28,7.28,0,0,0,.43-1.9v0a.55.55,0,0,0-.34-.38L85.62,82l-.12.14c-1.17,1.31-1.58,3.77-1.56,5.65v.29ZM71.46,81.2l-.18,0a1,1,0,0,0-.24,0,.91.91,0,0,0-.91.88.75.75,0,0,0,.67.83l.1,0,.08-.07a1.48,1.48,0,0,0,.5-1.42l0-.17Zm-27.85.24-.1-.13-.17,0a.88.88,0,0,0-.49,1,1,1,0,0,0,.87.88.92.92,0,0,0,.28,0l.07,0,0-.06,0-.05a.59.59,0,0,0,.6.45h.09l.34,0L45,83.19A4.47,4.47,0,0,1,44.79,82c0-.25-.08-.52-.13-.76l0-.2h-.68l-.06.17a3.13,3.13,0,0,0-.1.44c0,.12,0,.21-.06.29a.61.61,0,0,0-.11-.51Zm-2.28-.76-.28,0a.76.76,0,0,0-.83.62l0,.12a.63.63,0,0,0-.38,0l-.1,0-.06.08a.79.79,0,0,0-.13.69,1.14,1.14,0,0,0,.62.68.49.49,0,0,0,.26,0,.67.67,0,0,0,.18.51l.1.1.13,0c.62-.16.55-.86.49-1.48a4.21,4.21,0,0,1,0-1l.06-.27Zm29.45,0,.68,0,.06.25a2.46,2.46,0,0,0,.07.29l0,.06a.37.37,0,0,0,.33.21h0a.28.28,0,0,0,.13,0v.08c0,.2,0,.66.47.66h.13l.13,0,0-.12a1.78,1.78,0,0,0,0-1.79,2.59,2.59,0,0,0-2.18-1,2.52,2.52,0,0,0-2,.82,2.42,2.42,0,0,0-.46,2l0,.21h.21l.13,0a.69.69,0,0,0,.33.08.65.65,0,0,0,.19,0l.22,0,0-.22a1.42,1.42,0,0,1,.23-1.09,1.65,1.65,0,0,1,1.27-.38Zm-45.1-1.24,0-.06-.06,0a2.59,2.59,0,0,0-.88-.22l-.39,0,.14.38a5.09,5.09,0,0,1,.17,2.1,5.89,5.89,0,0,0,.12,2l.05.16H25a1,1,0,0,0,.57-.19.52.52,0,0,1,.24-.11l.24,0,0-.24A8.59,8.59,0,0,1,26,82a4.7,4.7,0,0,0-.34-2.56Zm6.39-.8h-.64l0,.22c0,.19,0,.39-.07.61-.18,1.53-.4,3.44.33,4.27l.16.17.18-.14c.9-.7.51-2.72.23-4.19l-.14-.73,0-.21ZM20.92,77c-.13,0-.26,0-.38,0l-.24,0h0c-1.85,0-4,.1-6.14.22-1.24.08-2.41.15-3.44.18h-.33l.1.32a.74.74,0,0,0,.76.55h0a2.59,2.59,0,0,0,.62-.1,2.27,2.27,0,0,1,.37-.08C13.85,78,15.36,78,16.82,78s3.09,0,4.69-.16l.33,0-.11-.3a.79.79,0,0,0-.81-.52Zm13.7.07L34.48,77a.81.81,0,0,1-.24-.42,1.13,1.13,0,0,0-.46-.68l-.06,0H33.6a.74.74,0,0,0-.51.16l-.08,0v.11a.45.45,0,0,0-.08.4,28.75,28.75,0,0,1,1,4.94,2.89,2.89,0,0,1,0,.51c0,.51,0,1.14.52,1.47l.24.13.11-.24a5.12,5.12,0,0,0,0-3.35,7.92,7.92,0,0,1-.22-2.8l0-.17Zm40.6-6.77-.35-.17v.39c0,.22,0,.46,0,.7-.06,1.07-.12,2.29.66,2.71l.2.11.12-.19A3.09,3.09,0,0,0,76,71.5a1.77,1.77,0,0,0-.82-1.19Zm-3.1,3.37.09-.11,0-.13a4.08,4.08,0,0,1-.1-1.31c0-.79,0-1.6-.48-2l-.07,0H71v.23c0,.3-.06.63-.1,1a5.21,5.21,0,0,0,.24,3.25l.15.26.22-.2A1.92,1.92,0,0,0,71.9,74a2.33,2.33,0,0,1,.22-.35Zm6.67-.23.22-.1c.7-.32.58-1.32.5-2.13a6.29,6.29,0,0,1-.06-.68v-.37l-.34.13a1.19,1.19,0,0,1-.2.07s0-.13,0-.19-.08-.51-.41-.59l-.21,0-.08.19a5.2,5.2,0,0,0,.51,3.5l.11.21Zm-37.65.63a2.71,2.71,0,0,0,.51,1.81l.12.13.16-.07a1.13,1.13,0,0,0,.52-.83,1.12,1.12,0,0,1,.17-.44l.31-.38-.56,0h0A27.28,27.28,0,0,0,42,71.39c-.13-.79-.26-1.61-.34-2.47V68.7h-.22a.44.44,0,0,0-.37-.1l-.2,0v.2a.42.42,0,0,0-.1.32,8.6,8.6,0,0,0,.14,3.3c.06.32.12.63.16.93s0,.48.06.72ZM36.68,63.46a.58.58,0,0,0-.58.56l0,.08,0,.07a1.06,1.06,0,0,0,1,.49c.17,0,.33,0,.49,0l.25,0c1.48-.06,3-.25,4.39-.43a39.93,39.93,0,0,1,4.94-.43,12.37,12.37,0,0,1,1.4.07,1.51,1.51,0,0,1,.34.08,1.46,1.46,0,0,0,.52.11.89.89,0,0,0,.63-.26l.21-.19-.22-.19a3.29,3.29,0,0,0-2.06-.5c-.3,0-.62,0-.93,0l-.66,0a43.9,43.9,0,0,0-4.91.46c-1.3.18-2.64.35-4,.43a1.68,1.68,0,0,0-.84-.34ZM46,54c-1.82,0-4,.73-4.6,2.34l-.08.23.23.08a.59.59,0,0,0,.23,0,.89.89,0,0,0,.68-.46h0a1.3,1.3,0,0,0,.15.32l.17.27.22-.22c.59-.6,1.94-.93,3.8-.93a16.47,16.47,0,0,1,1.66.09.86.86,0,0,0,1,.51l.28,0-.08-.28C49.3,54.71,47.91,54,46,54Z"/></g></g></g></svg>