<svg xmlns="http://www.w3.org/2000/svg" viewBox="0 0 73.46 178.88"><defs><style>.cls-1{fill:#1d9ed1;fill-rule:evenodd;}.cls-2{fill:#221f20;}</style></defs><g id="圖層_2" data-name="圖層 2"><g id="event"><g id="deco_fc"><path class="cls-1" d="M.62,177.53s-1.51-5.24.17-4.93,2.37.76,2.88.07,13-43.11,13-43.11-1.95-.91-2.21-2.55-2.4-8.91-.29-8.89a59.52,59.52,0,0,0,6.84-.76s4.13-33.08,3.79-33.94-1.43-3.76-1-4.22S27,78.6,27,78.6l.51-3.88L29.77,33S26.67,28.9,27.19,28s1.69-3.79,1.69-3.79.78-20.08,1.91-19.9,2.87,20,3.81,19.47S36,25,36,25l1.85.28,1.63,1.47-1.61,4.9s-1.54-.05-1.28.46,5.34,45.14,5.34,45.14,3.73-.4,4.16,1.42,1.5,2.77.19,3.42a4,4,0,0,0-1.77,2.22s4.47,32.51,5.43,32,6.48-1.75,7,1.54,2.31,8.89.59,9.4a2.32,2.32,0,0,0-1.76,2s12.27,39,13.48,40,2.29-.56,3.34,1.75.06,5.89.06,5.89S53.21,180.06,52,178.3s.56-5.79.56-5.79,1.57-2.2,1.41-2.67S47,145.77,44.68,145s-11.28-1.06-13.79,1-6.8,6.76-7.32,8.57S20,169.47,20,169.47s.56-.44,1.37,2,1.62,5.3.49,5.28-21.24.8-21.24.8Z"/><path class="cls-2" d="M73.19,171.93l-.09-.38-.38.07c-2.94.5-6.49.75-9.92,1-2.16.15-4.37.31-6.48.53.83-1.3.2-2.66-.32-3.76a10,10,0,0,1-.43-1c-.47-1.47-1-3.22-1.74-5.08a1.06,1.06,0,0,0,.4.1.89.89,0,0,0,0,.32l.08.41.41-.09h0c-.45,1.2.92,1.73,1.82,2.08l.62.26c.28.14.57.26.86.39a6.89,6.89,0,0,1,1.82,1,10.37,10.37,0,0,1-1,1.06c-.9.9-1.92,1.93-1.81,3.52l0,.56.52-.2a5.83,5.83,0,0,0,2.41-2.1c.22-.28.43-.55.66-.8.1.32.21.63.34,1l.09.22.24,0a1.42,1.42,0,0,0,.74-.09.67.67,0,0,1,.42,0l.47.09,0-.48a3.46,3.46,0,0,0-.32-1.39c.45.24.92.55,1.38.85a15.16,15.16,0,0,0,2.09,1.18,3.07,3.07,0,0,0,1.16.31,1,1,0,0,0,.91-.52l.13-.28-.23-.21a14.39,14.39,0,0,0-3.38-2.09c-.71-.35-1.43-.71-2.09-1.12l.69-.86a17.07,17.07,0,0,0,2.11-3.06l.12-.24c.53,1.28,1,2.52,1.5,3.75a8.91,8.91,0,0,1,.31,1.06A4.42,4.42,0,0,0,69,170.65l.41.28.2-.45a2.59,2.59,0,0,0-.3-2.19c-.08-.17-.16-.33-.22-.49l-.28-.74c-.87-2.29-1.69-4.45-2.48-6.74-.68-2-1.38-4-2.09-6-1.7-4.8-3.45-9.77-4.87-14.52-.28-.92-.54-1.86-.81-2.8a56.31,56.31,0,0,0-3.45-9.84,8.54,8.54,0,0,1,1.05-.07,4.18,4.18,0,0,0,2-.36l.28-.17-.11-.31a22,22,0,0,1-.67-5.21c-.08-1.35-.16-2.75-.36-4.06l0-.31-.32,0a1,1,0,0,0-.31,0l.06-.08-.58-.18a5.42,5.42,0,0,0-1.68-.23c-.37,0-.76,0-1.17,0-.56,0-1.14.06-1.81,0a11.71,11.71,0,0,0-.8-4.53c-.17-.52-.32-1-.45-1.49a50.43,50.43,0,0,1-1-5.4c-.18-1.29-.36-2.61-.61-3.91-.31-1.59-.65-3.18-1-4.71A92.39,92.39,0,0,1,45.49,83.3a2.07,2.07,0,0,0,.32-.09.76.76,0,0,1,.37,0l.22,0,.15-.17c.83-1,.49-2.21.2-3.3l-.14-.5A1,1,0,0,0,47,79c.07-.06.07-.06.12-.06l.91.12-.52-.76a1.58,1.58,0,0,0-1.34-.82,3.21,3.21,0,0,0-.95.19,3.85,3.85,0,0,1-1.38.23c-.16-.85-.26-1.74-.36-2.6a22,22,0,0,0-.78-4.26,2.76,2.76,0,0,0-.29-.57,1.7,1.7,0,0,1-.23-.44,47,47,0,0,1-.78-5.52c-.19-1.79-.37-3.47-.66-4.86a23.31,23.31,0,0,1-.37-3.23,26,26,0,0,0-.28-2.8,1.42,1.42,0,0,0-.25-.54.74.74,0,0,1-.15-.27,10.54,10.54,0,0,1-.1-2.25,17.3,17.3,0,0,0,0-2c0-.5-.09-1-.13-1.56-.08-.88-.16-1.78-.25-2.6a.8.8,0,0,0,.56-.33.71.71,0,0,0,.07-.59.7.7,0,0,0-.6-.45A4.49,4.49,0,0,0,39,41.35c-.17-.7-.27-1.14,0-1.43l.21-.21-.13-.27a11.16,11.16,0,0,1-.66-4.84c0-.8,0-1.62-.05-2.39.11,0,.23,0,.34,0,.58,0,1.24-.09,1.54-.63l.09-.17-.06-.17a8.66,8.66,0,0,1-.26-2.56A9.88,9.88,0,0,0,39.79,26l-.08-.27-.28,0a1.73,1.73,0,0,0-.73.09,1.8,1.8,0,0,1-.32.06,4.48,4.48,0,0,0-.4-.72,3,3,0,0,1-.42-.84l-.05-.19L37.32,24a3.27,3.27,0,0,0-1.24-.17c-.11-.76-.22-1.54-.32-2.32A146.21,146.21,0,0,1,34,3.6V3.38l-.19-.12c-.27-.17-.33-.75-.38-1.3A3.13,3.13,0,0,0,33,.34L32.77,0l-.33.26c-.9.71-1,2.11-1,3.35,0,.31,0,.61-.06.87-.29,2.76-.3,6.4-.3,9.92,0,3.07,0,6-.22,7.83v.07l0,.07A3.79,3.79,0,0,1,31,24a1,1,0,0,1-.21-.09,1,1,0,0,0-.94,0l-.13.07-.05.14c-.08.22-.17.43-.26.64a5.83,5.83,0,0,0-.55,1.85,4.62,4.62,0,0,0-1.58.3l-.22.08,0,.23c0,.15-.06.32-.1.51-.27,1.39-.73,3.7.88,4.36.12.24.24.5.35.78a3.87,3.87,0,0,0,1.47,2c-.56,5.48-1,11.61-1.44,17.54-.4,5.44-.8,11.07-1.3,16.09-.05.59-.06,1.22-.06,1.82a7.55,7.55,0,0,1-.66,3.79l-.14.21.13.22a6.11,6.11,0,0,1,.19,2.62,10,10,0,0,0,0,1.78,6.17,6.17,0,0,0-1.09.24,1.62,1.62,0,0,1-1.22,0L23.68,79l-.17.39a6.71,6.71,0,0,0-.12,3.43q0,.38.09.72l0,.26.25.09a1.5,1.5,0,0,1,.91.76l-.06,0h.07c.36.8.1,2.09-.33,3.91a24.83,24.83,0,0,0-.6,3.29c-.37,4-1,8.34-1.64,12.49-.71,4.68-1.38,9.1-1.63,13A22.22,22.22,0,0,1,16,118a6,6,0,0,1-.78,0l-.2,0-.15.14a.78.78,0,0,0-.23.61.82.82,0,0,0-.64-.06l-.3.09V119c0,.6,0,1.22,0,1.85a35.68,35.68,0,0,0,.53,7.71l.13.56.49-.31a.32.32,0,0,1,.16,0,1.42,1.42,0,0,1,.57.27,3.22,3.22,0,0,0,1.2.5A.59.59,0,0,0,17,130a.47.47,0,0,0,.23.18C14.93,138,12.32,145.58,9.8,153,8,158.22,6.15,163.67,4.43,169.14l0,.16.08.15a1.56,1.56,0,0,1,.14.77,2.85,2.85,0,0,0,.09.73l.12.43.42-.16h0l-.06.19,0,.16.08.14a.63.63,0,0,0,.56.34,1.3,1.3,0,0,0,.41-.1.56.56,0,0,1,.29-.06l.22.09.19-.16a21.11,21.11,0,0,1,5.69-3,2.47,2.47,0,0,0-.18,1.81,1.13,1.13,0,0,0,.67.57l.11,0,.1,0a1.21,1.21,0,0,0,.82-.63,2.65,2.65,0,0,0,.32-1.73c1.21.75,2.45,1.53,3.72,2.25,0,.08,0,.17.08.27a2.49,2.49,0,0,0,.22.61c-2.43.17-4.92.28-7.36.37-3.11.13-6.34.26-9.37.55a.56.56,0,0,0-.41.26,1.18,1.18,0,0,0-.42-.07.84.84,0,0,0-.59.19l-.13.13v.18c0,.49.09,1,.14,1.51a15.17,15.17,0,0,1,.13,2.51l0,.52.52-.08.21,0a.43.43,0,0,0,0,.05.76.76,0,0,0,.75.63H2A122.16,122.16,0,0,1,16.58,178L20,178h.2l.12-.16c.38-.5.46-.5.85-.5h.3l1,0-.4-.64a2.94,2.94,0,0,1-.11-2.13,5.18,5.18,0,0,0,0-2.51l-.1-.32-.34,0c-.63.07-1.28.13-1.92.18a2.07,2.07,0,0,0,.19-.25c.13-.17.21-.27.32-.31l.24-.07,0-.24a63.18,63.18,0,0,1,5.94-17.76.52.52,0,0,0,.19-.22.45.45,0,0,0,0-.32,2.52,2.52,0,0,0,.85-1.78.82.82,0,0,0,0-.28c.51-.69,1.07-1.35,1.61-2,.26-.31.52-.61.77-.93a.79.79,0,0,0,.63.06l.6-.17-.4-.48c-.14-.18-.17-.26.3-.71a.53.53,0,0,0,.39.17.58.58,0,0,0,.41-.18,14.62,14.62,0,0,1,5.91-1.24A11.29,11.29,0,0,1,43.9,147a5,5,0,0,1,1,1.1,5.21,5.21,0,0,0,1,1.15.85.85,0,0,0-.09.67l0,.11c3.81,6.65,6.66,14.72,9,21.75a1.53,1.53,0,0,1,0,.34,1.27,1.27,0,0,0,.6,1.13l-.38,0a.94.94,0,0,0-.47-.69l-.13,0-.16,0c-.59,0-.66.58-.68.77a.07.07,0,0,1,0,.05.51.51,0,0,1-.26-.09,1.27,1.27,0,0,0-.35-.15l0,0v0a.91.91,0,0,0-.63.15l-.21.12v.24c0,.65.08,1.34.14,2a18.88,18.88,0,0,1,.12,2.81l0,.45H53a180.45,180.45,0,0,0,19.9-1.18l.23,0,.09-.22a13.82,13.82,0,0,0,0-5.51ZM19.06,174.1h0a9.1,9.1,0,0,0-.08,1.21l-4.44.27c-3.61.23-7.34.46-11.13.5a2.47,2.47,0,0,1-.3-1.65v-.1a72.89,72.89,0,0,1,11.43-.83c1.5,0,3.05-.06,4.58-.13,0,.25,0,.48-.07.73Zm13-164h0l.25-.16a.19.19,0,0,1,0,.13.3.3,0,0,1-.11.21A.33.33,0,0,1,32,10.2l0,0,0-.09Zm.94,14h-.09a44.4,44.4,0,0,0-.11-6.1,48.82,48.82,0,0,1-.07-7.19c.05.95.09,1.9.13,2.85.14,3.54.29,7.2.75,10.42a3.3,3.3,0,0,1-.61,0Zm-1.6,2.24h0a3,3,0,0,1,.14-.54,18,18,0,0,1,5-.24l.11.14a2.29,2.29,0,0,1,.15.24,22.28,22.28,0,0,0-2.56.21,21.76,21.76,0,0,1-2.86.2Zm-14,140h0a16.51,16.51,0,0,0,2.17-1.13,17,17,0,0,1-.69,2.26,20.17,20.17,0,0,0-.65,2,18.93,18.93,0,0,1-2.37-1.22c-.31-.19-.64-.38-1-.56a11.57,11.57,0,0,1,2.51-1.39ZM29.84,76.75h0a6.21,6.21,0,0,1-1.15,1.59c0-.18,0-.36.08-.54a8.58,8.58,0,0,0,.15-1.31,8.23,8.23,0,0,0,.92.26Zm3.39-23.5h0L33,52.89a6.22,6.22,0,0,0-.61-.87,4.13,4.13,0,0,1,.72-1.09c0,.77.06,1.55.12,2.32ZM31.71,42.53h0a1.09,1.09,0,0,0,.66-.1c.12,0,.14-.06.23,0l.34.07v1c-.22,0-.46.05-.7.07a3.35,3.35,0,0,0-1.57.34c0-.67.1-1.36.09-2.13.19.06.56.17.61.26l-.08.42.42.06ZM31.15,35h0a3.23,3.23,0,0,1,1.48-.2c0,.39-.24.75-.68,1.25s-1.27,1.46-.35,2.44l.74.79h-.2a5.65,5.65,0,0,0-1.07,0,15.39,15.39,0,0,1,0-2,17.32,17.32,0,0,0,0-2.28Zm1.16,3.19h0a2.42,2.42,0,0,1,.48-1.28,9.17,9.17,0,0,1,.12,1.63c0,.23,0,.48,0,.74h-.55l-.06-1.09Zm-.48,2.62h0l-.39-.19c.23,0,.46,0,.69,0a1.82,1.82,0,0,1-.3.21Zm-.63,4.35h0l-.07.14q-.12.21-.24.45a.72.72,0,0,0-.22,0h-.13c0-.19,0-.39,0-.58a.89.89,0,0,0,.62,0Zm.15,2.46h0a3.94,3.94,0,0,1,1.21.67,5.56,5.56,0,0,1-1.2,0l-.48,0a2,2,0,0,1,.47-.68ZM33,47.05h0l-.15-.12a3.55,3.55,0,0,0-.85-.51A2.3,2.3,0,0,1,32.94,45c0,.72,0,1.45.06,2Zm6.07,20.6h0a2,2,0,0,1-.37-.06l.14-.19a.93.93,0,0,0,.2-.1c0,.12,0,.23,0,.35Zm-7.93,7.26h0a2.23,2.23,0,0,0-.21.45c0,.08-.07.16-.1.23l-.33-.06a5.07,5.07,0,0,1-1-.24A8.72,8.72,0,0,0,31,75l.16,0Zm.1-4.16h0a3.45,3.45,0,0,1-.71.79,2.17,2.17,0,0,1-1.41-.9.73.73,0,0,1-.07-.52c.54-.06,1-.14,1.52-.22a14.33,14.33,0,0,1,1.83-.24,2.83,2.83,0,0,0-1.16,1.09Zm-2.15,2h0c0-.12,0-.26.06-.4l.18.09.26.14a2.72,2.72,0,0,1-.57.63,2.24,2.24,0,0,1,.07-.46Zm2.62-.56h0a7.27,7.27,0,0,1,.64-.73,5.28,5.28,0,0,0,1-1.24l.09-.18,0,.94a19.24,19.24,0,0,1-.12,2,1.46,1.46,0,0,1-1-.41,2.83,2.83,0,0,0-.51-.34Zm.06-17.81h0c-.35,0-.71.07-1.05.12a5,5,0,0,1,.53-.79c.13-.18.26-.35.37-.53a3.57,3.57,0,0,1,.78,1.13l-.63.07Zm-1,1.54h0a2.86,2.86,0,0,1,.64-.15c-.08.12-.16.23-.23.35a2.58,2.58,0,0,1-.41-.2Zm-1.2,2.49h0q0-.77.15-1.44l.32.13.3.12a7.55,7.55,0,0,1-.77,1.19Zm1.43.15h0a5.08,5.08,0,0,1,.55-.74.55.55,0,0,1,.3.17,1.32,1.32,0,0,0,.84.35h.24l.12-.2a.76.76,0,0,0,.07-.7,1.46,1.46,0,0,0-.77-.68c.29-.61.54-1,1-1.23a22.78,22.78,0,0,1-.06,2.28c0,.48-.07,1-.08,1.56a4.12,4.12,0,0,1-1.77.1c-.32,0-.66-.06-1-.06h-.07a5.43,5.43,0,0,0,.63-.86Zm1,4.09h0a1.29,1.29,0,0,1,.26-.12,1,1,0,0,0,.81-1.1L33,60.92l-.47.14a2.24,2.24,0,0,0-1.31,1.25,7,7,0,0,0-1.82-.58v-.28a11.53,11.53,0,0,1,3.77-.62v.3c0,.68,0,1.42.07,2.18l-.91-.45L32,62.67v-.05Zm-2.26.5h0a2,2,0,0,0-.41.34,3.71,3.71,0,0,1,0-.57,3.07,3.07,0,0,0,.39.23Zm1.05.39h0c.26.08.52.17.75.26h0l-.95.08a1.21,1.21,0,0,0,.18-.36Zm1.59,3.11h0A1.73,1.73,0,0,1,33,66a6,6,0,0,0,.48-.42v2c-.33-.22-.66-.46-1-.71l-.13-.09.07-.15Zm-.62-1.08h0a1.38,1.38,0,0,0-.2.69,8.58,8.58,0,0,0-1.51-.83l.48-.08a16,16,0,0,1,1.61-.23,1.6,1.6,0,0,0-.38.45ZM35.7,66h0l0,.2h0a7.49,7.49,0,0,0-.23-.81c0-.16-.1-.32-.14-.49h.46l0,.1a2.55,2.55,0,0,0-.07,1Zm.14,1.44h0a2.55,2.55,0,0,0,.66.36,1.7,1.7,0,0,1,.29.12,4.23,4.23,0,0,1-1,.09c0-.2,0-.39,0-.57Zm1.94-6h0A.9.9,0,0,0,37,62h0a1.17,1.17,0,0,0-1.38-.65l-.34.07v.34A1.39,1.39,0,0,0,36,62.9c.22.17.34.26.36.46a.61.61,0,0,0-.07.14,3.39,3.39,0,0,1-.64,0h-.43a14.8,14.8,0,0,0-.2-2.78l.47-.09a11.72,11.72,0,0,1,2.76-.28c0,.21.06.43.1.64s.07.48.11.72l-.12-.09a.87.87,0,0,0-.56-.22Zm-1.29-2.52h0L36,59c.06-.13.13-.25.19-.36a2.12,2.12,0,0,0,.11-.21,3.32,3.32,0,0,1,.69.46,4.78,4.78,0,0,1-.53.06Zm-1.43-1.23h0l0,0a4.08,4.08,0,0,0-.16.6c0,.1,0,.19-.06.26,0-.35,0-.68,0-1a1,1,0,0,0,.21.13ZM37,55.43h0c-.64,0-1,.63-1.23,1.09h0a1,1,0,0,0-.62-.24,1.22,1.22,0,0,0-.32,0h0c0-.32,0-.65-.08-1,.56-.11,1.18-.19,1.78-.26l1-.13c.07.24.13.5.18.77l-.21-.13a1,1,0,0,0-.51-.15ZM34.45,41.74h0c0-.37-.05-.74,0-1.15a8.39,8.39,0,0,0,1.06-.09c.23,0,.46-.06.69-.07-.33.89-.36,1.47-.11,1.86a.84.84,0,0,0,.55.37,3.19,3.19,0,0,0,.09.43l0,.13a16.14,16.14,0,0,1-1.87.16h-.38a8.84,8.84,0,0,0,0-1.63Zm1-4h0c-.07.27-.13.52-.18.76l-.05.32.29.13a.58.58,0,0,0,.67-.09v.19a8.21,8.21,0,0,1-1.85.18,35.67,35.67,0,0,1-.22-4.58h1a.59.59,0,0,1,0,.08.78.78,0,0,0,.52.33,6.55,6.55,0,0,1-.25,2.68ZM37,46.63h0a2,2,0,0,0-.26-.16A1.82,1.82,0,0,1,37,46c0,.19,0,.39,0,.59Zm-2.12,7.29h0l-.14,0a12.94,12.94,0,0,1,0-2.07l.09.22c.31.67.54,1.18.09,1.83Zm.28-7h0l-.09.4a3.43,3.43,0,0,0-.14.71l-.15.06-.06-.42c0-.35-.09-.72-.12-1.1a3.71,3.71,0,0,0,.56.35Zm.23-1.5h0a3,3,0,0,0-.46-.49l-.27-.21s0,0,0-.08a12.66,12.66,0,0,0,2.16-.1v.07a1.91,1.91,0,0,0-1.22,1.1l-.24-.29Zm.46,5.73h0A4.58,4.58,0,0,1,35.18,50l-.25-.58a9.64,9.64,0,0,1,2.19-.09l0,.12A2.18,2.18,0,0,0,37,50a2.11,2.11,0,0,0-1.15,1.22ZM36.13,48h0a.67.67,0,0,0,.06-.12,1,1,0,0,0,.09-.15,2,2,0,0,1,.48.25,1.92,1.92,0,0,1-.63,0Zm.12,22.25h0c-.42,1,.54,1.58,1.1,1.91a.81.81,0,0,0-.09.31,3.81,3.81,0,0,1-1.08.15c-.08-.45-.12-1-.16-1.46a12.14,12.14,0,0,0-.24-1.85,1.24,1.24,0,0,1,.43,0h.16a.06.06,0,0,1,0,0,4.44,4.44,0,0,1-.12.55l-.09.31.1.06Zm2-4.21h0l-.17,0-.11.14a1.13,1.13,0,0,0-.21.63l-.42-.22a4.18,4.18,0,0,0-1-.42,2.31,2.31,0,0,0,.71-1.43A2.41,2.41,0,0,1,38.5,65l.32.11a6,6,0,0,1,.15,1,1.48,1.48,0,0,0-.68-.06ZM38,62.93h0a.88.88,0,0,1,.14-.17,1.15,1.15,0,0,0,.38-.74,10.47,10.47,0,0,1,.1,1.15,1.36,1.36,0,0,1-.62-.24Zm-.33-5.13h0a4.71,4.71,0,0,1-.83-.68.86.86,0,0,1,.31-.35,1.62,1.62,0,0,0,.56-.7l.07-.19c.11.68.17,1.43.23,2.16l-.34-.24ZM37,52.54h0a1.76,1.76,0,0,1,.34-1.36c0,.76.11,1.47.18,2.07a.85.85,0,0,1-.52-.71Zm-6.87,0h0c0-.32,0-.66,0-1l.11.09a3.76,3.76,0,0,1,.42.36,11.9,11.9,0,0,1-.57,1.2c0-.22,0-.45,0-.67Zm-1,13.77h0c.18.1.36.2.55.29s.81.41.8.57l0,.44h.44a2.89,2.89,0,0,1,1.51.71,15.21,15.21,0,0,1-1.57.15,14.67,14.67,0,0,0-1.92.2,6.53,6.53,0,0,1,.16-2.36ZM30.8,77.73h0l.45-.53a3.1,3.1,0,0,1,1.08,1.13l.15.22-1.2.08L30,78.72a10.38,10.38,0,0,1,.79-1Zm1.13-1.65h0l.14-.15a1.6,1.6,0,0,0,.51-1v-.16h0c.78.19.8,1.08.73,2.52v.24a3.57,3.57,0,0,0-1.39-1.42Zm7.69-1.57h0a4.43,4.43,0,0,0-.38.46,2.2,2.2,0,0,1-.55-.85,9.8,9.8,0,0,1,1.22,0,2.64,2.64,0,0,1-.29.34Zm-2.22-.27h0l0,.1c-.1.54.31,1,.71,1.45a4.12,4.12,0,0,1,.44.56,4.18,4.18,0,0,0-.5.87c-.29.6-.49,1-1,1a20.45,20.45,0,0,0-.54-3.8,7.31,7.31,0,0,1,.92-.22Zm1.87,3.47h0a5.16,5.16,0,0,0,.33-.52l.14.08a1.83,1.83,0,0,0,.74.26,2.45,2.45,0,0,0,.08.29c0,.05,0,.11,0,.17a8.39,8.39,0,0,0-.93.09c-.23,0-.45.06-.69.07.09-.15.19-.29.29-.44Zm-.06-6.14h0l-.17,0s0-.1,0-.16a1.81,1.81,0,0,0,.06-.91l0-.25-.25-.07a1.17,1.17,0,0,0-.3,0c-.57,0-.7.49-.74.77l-.17-.2a2.53,2.53,0,0,0-.43-.44,2.86,2.86,0,0,0,.51-1,7,7,0,0,0,1.67-.08l.1,0a10.12,10.12,0,0,0,.15,1.44,9.61,9.61,0,0,1,.14,1.11,3.63,3.63,0,0,1-.57-.13ZM31.44,51.05h0a2.14,2.14,0,0,1-.27-.31,1.38,1.38,0,0,0-1-.67s0-.07,0-.1,0-.11,0-.16a12.64,12.64,0,0,1,2.29-.25l.57,0v.07c-.72-.05-1.32.82-1.64,1.45Zm6.75-22.64h0a7.61,7.61,0,0,0-.13,1.86,1.41,1.41,0,0,0,0,.2c-.31,0-.63,0-1,0a20.6,20.6,0,0,0-3.33.38,19.52,19.52,0,0,1-4,.41c-.06-.39-.1-.8-.15-1.19-.07-.61-.14-1.24-.25-1.82A31.43,31.43,0,0,1,37,27.47l1.35,0a8,8,0,0,1-.13,1Zm17.38,91.11h0a8.85,8.85,0,0,1,.14,1.66,5.89,5.89,0,0,0-1.11,0c-.26,0-.53,0-.85,0,0,0,0,0,0,0,0-.38,0-.8,0-1.22a6.79,6.79,0,0,0-.09-2.14,5.36,5.36,0,0,0,1.76-.26v.06a10,10,0,0,0,.15,1.81Zm3.26,44.08h0a14.77,14.77,0,0,1,.68,2.16c-1.06-.53-2.13-1-3.18-1.53l-.83-.4a10.49,10.49,0,0,1,3.33-.23Zm-5.36-1.46h0l.07.28,0,0c-.35-.89-.72-1.79-1.13-2.69s-.8-1.72-1.2-2.55a31.76,31.76,0,0,1-2.58-6.47,14.6,14.6,0,0,0,5.5-.08c.18.49.36,1,.55,1.46.26.69.53,1.4.78,2.14l-.29.31h0a.66.66,0,0,0-.08-.32l-.08-.19-.2-.05a4.23,4.23,0,0,1-2-1.29,4.77,4.77,0,0,0-2.93-1.61L49,151l.4.69a10.9,10.9,0,0,0,4,3.44c.26.16.52.32.77.49l-.81.88,1-.73a15.4,15.4,0,0,1,1.45,1.06A11.92,11.92,0,0,1,55,158c-.93,1.13-2,2.41-1.49,4.11Zm-34.6-39.72h0l-2.55.46c.07-1,.07-1.65.08-2.62v-.08l.49-.09a7.32,7.32,0,0,1,1.79-.2,5.49,5.49,0,0,0,.19,2.53Zm22.37,17.49h0a7.27,7.27,0,0,0-.55,1.8,10.19,10.19,0,0,1-.33,1.27,4.41,4.41,0,0,0-1.37-.22h-.2c.05-.94.07-1.81.09-2.53v-.15c.79,0,1.53-.09,2.24-.16Zm-5.41.29h0l.57,0c.23,0,.45,0,.67,0a10.42,10.42,0,0,1,0,2.79,8.35,8.35,0,0,1-1.44.29,11.83,11.83,0,0,1-.23-1.55,6.77,6.77,0,0,0-.25-1.47,1.61,1.61,0,0,1,.68-.1Zm1.42-3h0c0,.57,0,1.17,0,1.68a8.11,8.11,0,0,0-1.34.08c-.37,0-.73.07-1.13.08a8.94,8.94,0,0,1,.5-4.2l2.08-.13h.1a9.07,9.07,0,0,0-.17,2.49ZM35.43,133h0a6.49,6.49,0,0,0-.7-.46,5.14,5.14,0,0,1-1.36-1.09c.14-.1.29-.21.45-.31a4,4,0,0,0,1.74-1.9l0,.14.14.15a6.59,6.59,0,0,0,1.31,1,5.31,5.31,0,0,1,1.22.93,5.19,5.19,0,0,1-.78.56,4,4,0,0,0-1.37,1.25l-.29.05,0-.05-.38-.27ZM30.15,139h0c.07-.35.13-.71.19-1.06A16.91,16.91,0,0,1,31,135h2.6a10.75,10.75,0,0,1-.32,2,12.59,12.59,0,0,0-.33,2H31.46a10,10,0,0,1-1.31-.07Zm-7.87-1.55h0a11.53,11.53,0,0,1,.17-1.6v0l1-.11c.64-.08,1.24-.15,1.83-.17a8,8,0,0,0-.54,2.13,11.41,11.41,0,0,1-.34,1.55l-.39.06a8.33,8.33,0,0,1-1.94.14,12.08,12.08,0,0,0,.24-2Zm2.16-3.26h0l0,.4,0-.41Zm2.79-10.35h0l1.29,0,0,.19c-.18.8.71,1.29,1.36,1.66l.08,0a3.36,3.36,0,0,1-.65.57,4.53,4.53,0,0,0-.55.43l-1.18,0a2.71,2.71,0,0,0-1.32-1.49l.15-.08a1.33,1.33,0,0,0,.81-.93l.06-.31Zm16.59-2.11h0l-4.33.24a4.43,4.43,0,0,0-.21-.61c-.26-.68-.42-1.18-.13-1.45l.24-.23-.16-.28a1.41,1.41,0,0,1-.1-.31,2.13,2.13,0,0,0-.1-.35l4.35-.4c.08.7.08,1.71.08,2.54a.79.79,0,0,0,.36.85Zm6.81,3.65h0a2.93,2.93,0,0,0,.55.56h0l-1.09,0-.49,0a6.64,6.64,0,0,1,1-.52Zm-24.34,1.28h0a18.27,18.27,0,0,0-2.17.19l.53-.4.61-.45a6.21,6.21,0,0,1,1,.66Zm17.07-2h0l-.14.15c-.7.75-1.42,1.53-2.43,1.35a2.06,2.06,0,0,1-.94-.62,5.27,5.27,0,0,0-.72-.59l.22-.15a1.78,1.78,0,0,0,.84-1l.08-.33c.79,0,1.6-.06,2.4-.08a1.21,1.21,0,0,0,.69,1.3Zm-12.55,1.89h0l.1-.06h0l.15.08Zm7.8-.37h0l-1,.1a3,3,0,0,0,.42-.31c.19.07.37.13.55.21Zm6.35-.27h0c-.31,0-.56,0-.84,0H44l.05,0,.46-.37a2.36,2.36,0,0,1,.48.43Zm3.84-.95h0c-.71.52-1.43,1.06-2.1.94-.27-.06-.4-.24-.61-.57a3,3,0,0,0-.59-.73l.26-.14a1.35,1.35,0,0,0,.88-1l0-.18c1,0,1.91-.06,2.79-.11a2.71,2.71,0,0,0,.3.59,1.89,1.89,0,0,1,.21.43,8.89,8.89,0,0,0-1.17.76Zm-3.91-1.4h0a3.67,3.67,0,0,1-.41.34.8.8,0,0,1-.28-.28,1.58,1.58,0,0,0-.25-.28l.73,0h.49l-.28.25Zm-6.52.38h0c-.12.12-.24.25-.35.34-.17-.08-.26-.28-.39-.66.38,0,.77-.07,1.17-.09a3.35,3.35,0,0,0-.43.41Zm-4.69.49h0l.15-.08,0-.17a1.58,1.58,0,0,0,.11-.48,18.81,18.81,0,0,0,1.9-.1l.2,0a4.59,4.59,0,0,0,.61,1c.12.17.24.34.34.51-.31.24-.61.5-.9.75s-.55.47-.84.69c-1.8.24-2.76,0-3.44-.84a3,3,0,0,1,1.42-1.08l.41-.21ZM38.07,122h0c-2.23.11-4.4.22-6.58.3a13.23,13.23,0,0,1-.11-1.59,9.94,9.94,0,0,0-.11-1.4c2.06-.15,4.16-.31,6.34-.5a3.9,3.9,0,0,0,.46,3.19Zm-6.16,1.91h0a8.88,8.88,0,0,0-1.05.83,2.2,2.2,0,0,1-.57-.42,2.77,2.77,0,0,0-.91-.6l1.54,0,1.31,0-.32.24Zm-6.39.15h0a2.3,2.3,0,0,1-.39.29,4.11,4.11,0,0,0-.56-.27l-.13,0c.43-.06.86-.1,1.3-.14l-.22.17Zm-4,3h0c-.24-.23-.47-.48-.71-.74s-.62-.67-1-1a2.8,2.8,0,0,1,2.49-1.21h0A10.23,10.23,0,0,0,24,125.25a6.71,6.71,0,0,1-2.5,1.86Zm-2.42-2.83h0l-.12.09-.12.11a1.24,1.24,0,0,1-.26-.19Zm2.54,4.5h0a9,9,0,0,1,2.17,0c.5,0,1,.06,1.58,0l.9,0A5.37,5.37,0,0,0,24.54,130a8.46,8.46,0,0,1-1,.9A10.67,10.67,0,0,1,22,129.63c-.26-.25-.53-.51-.81-.75l.42-.1Zm6.3.81h0A.71.71,0,0,1,28,130l-.06.35.32.12a12.05,12.05,0,0,1,1.88.89,7.68,7.68,0,0,1-.58.54,3.72,3.72,0,0,0-1.45,2l-.52,0-.06-.07a6.15,6.15,0,0,0-1.57-1.22,6.62,6.62,0,0,1-1.24-.91,3.94,3.94,0,0,1,1-.68c.76-.43,1.7-1,1.54-2.1l0-.27.69,0,0,.16a1.62,1.62,0,0,0,.08.75Zm4.92-.39h0a2.84,2.84,0,0,1-1.48,1,1.8,1.8,0,0,1-1.41-.69,4.18,4.18,0,0,0-1.21-.87c1.66-.08,3.36-.18,5.06-.28a7,7,0,0,0-1,.84ZM27,135.31h0a16.81,16.81,0,0,1,2.32-.21l-.12.79a13.62,13.62,0,0,1-.72,3.15,10.1,10.1,0,0,1-1.3.06H26.05a35.15,35.15,0,0,0,.94-3.8Zm29.75,13.37h0c-.54,0-1,.08-1.52.07a4.19,4.19,0,0,1-.15-.83c0-.16,0-.33-.06-.53a7.41,7.41,0,0,1,2.09,1.26l-.36,0ZM49.62,138h0a21.35,21.35,0,0,1-1.43-4c.27,0,.51-.05.74-.09a6.56,6.56,0,0,1,.8-.08c.21.79.47,1.52.73,2.23s.44,1.2.63,1.84a13.76,13.76,0,0,0-1.47.08Zm-1.93,0h0c-.62,0-1.19.08-1.75.14s-1.11.12-1.7.13a17.74,17.74,0,0,0-.35-1.79,14.11,14.11,0,0,1-.38-2.13c.44,0,.86,0,1.26-.07a14.3,14.3,0,0,1,1.75-.07,11.3,11.3,0,0,0,.69,2.4,13.41,13.41,0,0,1,.48,1.39Zm3.24-5.63h0c-1.07,0-2.14.13-3.11.21l-.41,0c.68-.44,1.3-.87,1.86-1.31l.08.06a7.63,7.63,0,0,0,1.58,1Zm-.38-4.1h0a7,7,0,0,1-1.39,1.12L48.6,129a6.28,6.28,0,0,0-2.25-1.34c1.74-.06,3.44-.11,5.07-.11-.31.24-.59.5-.87.76Zm-14.82,0h0v-.14h.07c3.19-.19,6.44-.39,9.58-.51l-.29.08.08.37c.13.62,1,1,1.82,1.38a6.1,6.1,0,0,1,1.26.67c-.29.22-.94.65-1.25.85l-.35.23c-.33.22-.65.4-1,.58a4.16,4.16,0,0,0-1.54,1.18h-.8l-.19-.32a2.84,2.84,0,0,0-1.47-1.08,3.67,3.67,0,0,1-.84-.45,7.23,7.23,0,0,1,1.26-1A5.64,5.64,0,0,0,44,128.44l.35-.62H43.6a4.55,4.55,0,0,0-2.9,1.53,4.75,4.75,0,0,1-1.31,1,.73.73,0,0,0,0-.09,3.39,3.39,0,0,0-.44-.57,3,3,0,0,0-.52-.38,2.67,2.67,0,0,1-.88-.75l-.19-.27-.31.13a2.15,2.15,0,0,1-.35.07c-.31,0-.8.12-1,.53a3.63,3.63,0,0,0,.08-.6ZM38.61,133h0a5.78,5.78,0,0,1,.7-.57,3.83,3.83,0,0,0,1.2.81c-.76.05-1.54.08-2.26.07.13-.1.25-.21.36-.31Zm6.94,6.56h0a19.83,19.83,0,0,1,2-.15,3.51,3.51,0,0,1,1.76.35l.33.18.21-.32a.5.5,0,0,1,.17-.13,5.66,5.66,0,0,0,.7,2.06c.42.88.85,1.79.63,2.41-1-.6-1.92-1.27-2.83-1.93-.6-.42-1.19-.85-1.8-1.27l-.84-.56.21,1c.28,1.37,1.58,2,2.84,2.7a9.94,9.94,0,0,1,1.72,1,8,8,0,0,0-1.59,1.64A7.16,7.16,0,0,1,47.69,148c-.11-.38-.21-.76-.31-1.13A44.24,44.24,0,0,0,45,139.64l.53-.06Zm11.39,14h0a2.62,2.62,0,0,0-.54-1.86,2.48,2.48,0,0,1-.48-1.28c.39-.07.82-.11,1.24-.15a7.47,7.47,0,0,0,2.4-.48l.1-.05a10.11,10.11,0,0,0-1.31,2.53,12.15,12.15,0,0,1-.93,2,1.21,1.21,0,0,0-.48-.66Zm-3.23-12.07h0l-.59.61,0-.1a4.75,4.75,0,0,0-1.53-2.61,2,2,0,0,1,.55.15l.77.36-.2-.83v0a.85.85,0,0,0,.5,0l.63-.16-.43-.5A8.79,8.79,0,0,1,52,135.24c-.14-.44-.27-.88-.43-1.32a5.26,5.26,0,0,0,.73-.08,5.33,5.33,0,0,1,.91-.07,11.12,11.12,0,0,1,.67,2,6.25,6.25,0,0,0,1.7,3.42l.32.26a14.71,14.71,0,0,0-2.19,2ZM51,123.55h0c-.11-.22-.12-.36-.08-.43s.2-.28,1.26-.28h0a2.68,2.68,0,0,1-1.22.71Zm-2-5.23h0a14.09,14.09,0,0,0-.12,3.05c-.83,0-1.62,0-2.37.08-.44,0-.87,0-1.32.06a14.75,14.75,0,0,1-.34-2.71c0-.19,0-.37,0-.56l.87-.06c1.1-.07,2.07-.14,3.36-.17a2.91,2.91,0,0,0,0,.31Zm-18.91,1.07h0a3.14,3.14,0,0,0-.41,2,2.48,2.48,0,0,0,.28.94l-3.87.11c0-.34,0-.7,0-1a3.78,3.78,0,0,0-.21-1.8c1.39-.06,2.79-.14,4.21-.24ZM17,124.72h0a3.08,3.08,0,0,0,.74.69,4.62,4.62,0,0,1-1.1.86l-.07,0a7.89,7.89,0,0,1-.19-2.16,2.05,2.05,0,0,1,.62.57Zm1.75,1.52h0a3.79,3.79,0,0,1,1,.93c-.37,0-.71,0-1,0s-.85,0-1.25,0a12.51,12.51,0,0,1,1.24-1Zm3.7,7.36h0a6.81,6.81,0,0,1,1.11-.81h0a13.59,13.59,0,0,0,2.23,1.34,7.52,7.52,0,0,0-.85.16.6.6,0,0,0-.22-.12l.06-.36-.66.22a6.75,6.75,0,0,1-2,.18h-.46c.27-.19.53-.4.79-.62Zm-7.29,27.34h0a6.58,6.58,0,0,0-.49,1.56,9.73,9.73,0,0,1-4.2,0l-.87-.13-.15.22c-.17.26-.2.27-.57.33l-.16,0a34.78,34.78,0,0,1,6.81-3.79,3.07,3.07,0,0,1-.37,1.79Zm.58-8.08h0a14.45,14.45,0,0,1,1.65-.15c-.13.46-.22.94-.31,1.41-.26,1.33-.51,2.6-1.37,3.17l-.54-.82a16.66,16.66,0,0,0-2.93-3.66l.06-.2v0l.63.23a6.33,6.33,0,0,0,2.8,0Zm2.44,9.43h0a6.87,6.87,0,0,0-.76,0,8.61,8.61,0,0,0-1.18.07,4.9,4.9,0,0,1,.19-.67,9,9,0,0,0,.31-1.22,6.48,6.48,0,0,1,.9,1.11c.18.25.36.51.54.74Zm-4.71-11h0a45.63,45.63,0,0,1,5.38-3.69,13.45,13.45,0,0,1-1.05,3.72l0,0c-.49.06-1.05.07-1.6.09a6.74,6.74,0,0,0-3.32.6l-.5.32a1,1,0,0,0,0-.16l1.06-.92Zm-.19,4.51h0a12.3,12.3,0,0,1,.95,1.55c.13.24.26.47.39.68-1.2.69-2.46,1.33-3.68,2l-1.56.8a32.65,32.65,0,0,1,1.32-3.41c.42-1,.85-1.95,1.2-3a7.42,7.42,0,0,1,1.38,1.44Zm6.87-1.5h0A22.15,22.15,0,0,1,18,155.93c0-.1.05-.21.09-.32a25.52,25.52,0,0,1,1-3c.57,0,1.22-.05,1.84-.1a20.58,20.58,0,0,1,2.12-.09,19.16,19.16,0,0,0-2.82,2Zm4.25-3.5h0c-.88,0-1.71.11-2.52.2s-1.62.16-2.49.19c.4-1.59.92-3.09,1.43-4.54a7.71,7.71,0,0,1,2.94,3.56l.07.13.13.06a1,1,0,0,0,.56.07,1.61,1.61,0,0,1-.12.33Zm0-3.41h0l-.49-.12a2.24,2.24,0,0,0-1-1.16,3.3,3.3,0,0,1-.63-.5,27,27,0,0,0,2.9-1.66l1.48-.9a24.51,24.51,0,0,1-.8,2.6c-.26.72-.52,1.46-.73,2.26a1.2,1.2,0,0,0-.69-.52Zm5.71-13.82h0A7.23,7.23,0,0,1,32,132.33a3.17,3.17,0,0,1,.31.37,2.56,2.56,0,0,0,.63.64.8.8,0,0,0,.71,0l.19.15.16.13-.66.06a23.59,23.59,0,0,1-3.38.12l.18-.15Zm11.71.94h0a28.64,28.64,0,0,0,.87,3.87,29.21,29.21,0,0,1-3.65.36h-.3a9.08,9.08,0,0,1,.08-1.63,4.6,4.6,0,0,0-.18-2.53,29.21,29.21,0,0,1,3.18-.06Zm1.25,5.9h0l.19-.43a7,7,0,0,1,1,1.93c-.71.24-.85,1-.94,1.61l-.06.32c-.48,0-.8-.11-.94-.33-.4-.61.27-2.11.71-3.1Zm1.74,4h0c.05-.29.1-.58.14-.86.34.87.62,1.8.9,2.7-.21-.22-.41-.47-.61-.71l-.52-.61c0-.16,0-.34.09-.52Zm4.35,4.65h0c.29-.41.57-.81.84-1.22h0l.25,0,.14-.22a8.22,8.22,0,0,1,1.09-1.2l.6-.59a4.32,4.32,0,0,1,1,2.08c.09.32.19.66.31,1l-.59.07c-1.11.12-2.48.27-3.82.28l.15-.21Zm10.79,12.28h0c-.1-.28-.21-.56-.32-.85-.18-.45-.35-.9-.5-1.36a16.64,16.64,0,0,1,1.7,1.23c.35.28.71.56,1.08.83-.61.09-1.29.12-2,.15Zm-.16-11.74h0l0-.13a.75.75,0,0,0-.54-.89.69.69,0,0,0,.13-.73l-.06-.21-.2-.07a1.09,1.09,0,0,0-.65.06.68.68,0,0,1-.21.06,11.84,11.84,0,0,1-3.94-2.34A3,3,0,0,1,54,144.2c0-.08,0-.17-.05-.25a7.71,7.71,0,0,1,1.22-1.42c.89-.89,1.81-1.82,1.64-2.91l-.09-.58-.44.24v-.38a7.18,7.18,0,0,0-.72-2.92,9.57,9.57,0,0,1-.7-2.33l.11,0c1.68,5.3,3.54,10.45,5.37,15.47a3.6,3.6,0,0,0-.53.5ZM53,132.42h0l.6-.32-.56-.39a4.54,4.54,0,0,0-1.16-.47,3,3,0,0,1-1.44-.7l.35-.36c.69-.72,1.4-1.47,2.18-1.53l.44,0q.57,2,1.17,3.9c-.5-.05-1-.09-1.59-.1Zm3-6.7h0a8.34,8.34,0,0,1-1.56.16c-.67,0-2.24-.12-2.78-1.15a3.52,3.52,0,0,1,.87-.54c.57-.3,1.11-.57,1.24-1.07l0-.13a9.41,9.41,0,0,0,1.69-.35l.14,0a8.75,8.75,0,0,0,.37,3.12ZM42,113.14h0a9,9,0,0,1-.43-2.44,3.06,3.06,0,0,0,1.61,0,2.6,2.6,0,0,0,1.09,1.64,3.79,3.79,0,0,1,.71.75,3.26,3.26,0,0,1-.89,1,7.06,7.06,0,0,0-.67.67l-.23.25a6,6,0,0,0-.83,1.08,7,7,0,0,0-.36-3Zm.14,3.69h0a1.23,1.23,0,0,0,0,.19H42l.12-.2Zm-19.31.78h0a.72.72,0,0,0-.1-.22l.07-.15a3.83,3.83,0,0,0,.22-.56l.29-.19a12.34,12.34,0,0,0,1.89-1.61c.33-.32.65-.64,1-.93.23.24.48.47.73.69.81.75,1.59,1.45,1.54,2.54v.34l.33.08a1.19,1.19,0,0,0,.45,0,.72.72,0,0,0,.36.43c-2.26.12-4.51.2-6.8.18a.8.8,0,0,0,0-.63Zm23.58-6.24h0a8.17,8.17,0,0,0-.6.7,3,3,0,0,1-.71-.77,4.13,4.13,0,0,0-.71-.81,6.45,6.45,0,0,1,2.83-.24,3.45,3.45,0,0,1-.81,1.12Zm.3,1.82h0a7.69,7.69,0,0,1,.83-1.16l.11-.14c.16.6.27,1.24.39,1.87l.15.78a12.84,12.84,0,0,1-1.48-1.35Zm-5.1-9.9h0a24.23,24.23,0,0,1,3.6-.34h0a8,8,0,0,0-1,1.66l-.06.11a12.62,12.62,0,0,1-2.36-1.3l-.21-.13Zm-13.85,9.37h0c.33-.37.72-.79,1.07-1.11,0,.83-.09,1.67-.18,2.54a3.67,3.67,0,0,1-.63-.62,6.32,6.32,0,0,0-.51-.53c.08-.09.17-.18.25-.28Zm.92-7.27h0a11.3,11.3,0,0,0,1.17-1.13l-.09.7a30.71,30.71,0,0,1-.63,3.78,4.64,4.64,0,0,1-1.41-1.59c-.11-.16-.21-.32-.32-.47a9.17,9.17,0,0,1,1.28-1.29Zm-2-8.75h0c-.13-.17-.25-.34-.39-.51C27,96,27.7,96,28.43,95.92c.46,0,.93-.06,1.38-.11A7,7,0,0,0,28.31,97c-.23.22-.46.44-.66.61a3.35,3.35,0,0,1-1-1ZM28.63,87h0c.3-.21.61-.43.91-.66l.23.17a6.31,6.31,0,0,1,.84.65,23.33,23.33,0,0,0-2.81.43l.83-.59Zm5.88-.13h0l0-.17a2.81,2.81,0,0,0,.82-.12,3,3,0,0,1,.81-.12v.18a3.84,3.84,0,0,0-1.56.2l-.1,0ZM36,85.21h0a2.74,2.74,0,0,1-1.27,0c0-.23-.1-.44-.16-.65s-.1-.35-.14-.53l1.61-.09h.16a2.19,2.19,0,0,0-.2,1.31Zm-4,.3h0c0,.4-.06.8-.11,1.19a2.15,2.15,0,0,1-.62-.62,3.93,3.93,0,0,0-.66-.7,4.35,4.35,0,0,1,.74-.56,7,7,0,0,0,.78-.59,11.51,11.51,0,0,0-.13,1.28Zm-2.54-.88h0l-.08.05c-.3-.08-.58-.18-.88-.29l-.09,0,.72,0,.84,0-.51.32Zm1.75,5.79h0l.38-.34c0,.66-.11,1.45-.21,2.28-.06.5-.12,1-.17,1.51A3.18,3.18,0,0,0,30,92.56a6.31,6.31,0,0,1-.54-.38,18.29,18.29,0,0,1,1.85-1.76ZM29,98.87h0c.22-.22.46-.43.68-.64A13.5,13.5,0,0,0,30.93,97c-.09,1-.29,2.12-.47,3.11a.77.77,0,0,0,0,.15,3.9,3.9,0,0,0-.81-.77,3.09,3.09,0,0,1-.64-.6ZM42.15,85.1h0a3.87,3.87,0,0,1,.54-.34l.36-.2a4.59,4.59,0,0,1,.07.67,4.57,4.57,0,0,0,.05.52,3.8,3.8,0,0,1-.57-.35,5,5,0,0,0-.45-.3Zm-.43-1.22h0a6.22,6.22,0,0,0-.69.49l-.43-.25c-.23-.13-.46-.26-.71-.38.72,0,1.41,0,2,0l-.2.12ZM41.08,86h0a8,8,0,0,0,1.37.76l.15.06a21.71,21.71,0,0,1-3.09.26,8.92,8.92,0,0,1,1.14-.81l.43-.27Zm.38,15.49h0c.5-.73,1-1.48,1.48-2.27a19,19,0,0,1,2.37,2l-.94.16-.12,0a4.69,4.69,0,0,0-2.13.07l-.74.14a1,1,0,0,1,.08-.11Zm-.63-4.29h0a3.42,3.42,0,0,1,1.12.91,11.78,11.78,0,0,1-1.07,1.55c-.21.28-.42.54-.61.82-.25-1.45-.5-2.9-.76-4.35a4.45,4.45,0,0,0,1.32,1.07Zm-1-8.68h0l.63,0c.66,0,1.34-.1,2.15-.1a5.29,5.29,0,0,1-.54.73,5.46,5.46,0,0,0-.62.85,5.27,5.27,0,0,1-.93-.79,8.3,8.3,0,0,0-.69-.64Zm0,1.71h0c.38.21.87.48.89.69s-.27.47-.77.8a4.05,4.05,0,0,0-1,.87c-.23-1.34-.47-2.69-.71-4h.15c0,.85.81,1.3,1.48,1.67Zm1.46,2.32h0c.14-.18.27-.34.4-.48a14,14,0,0,0,2.52,1.47,12.31,12.31,0,0,1-1.67-.11,12.42,12.42,0,0,0-1.47-.11,3.7,3.7,0,0,0-.48,0,8.78,8.78,0,0,0,.7-.79ZM39.2,85h0a6.16,6.16,0,0,1,.76.25,10.8,10.8,0,0,1-1.59,1.27l-.44.31a7.91,7.91,0,0,1-.08-1.1,6,6,0,0,0-.15-1.42,3.15,3.15,0,0,0,1.5.69Zm1.59,19.51h0a8.2,8.2,0,0,1,1.71.9c.29.19.59.38.92.56a11.34,11.34,0,0,1-2,2.47c-.06-.39-.13-.77-.19-1.15-.16-.9-.32-1.82-.42-2.78Zm2.31,3.88h0a7,7,0,0,0,1.48-1.62,8,8,0,0,1,2,1.74l-1.15.14a13.13,13.13,0,0,0-3.22.61c.27-.29.59-.58.9-.87Zm1.39-9.69h0c-.22-.26-.46-.53-.7-.79a3.58,3.58,0,0,1,.58-1,6.07,6.07,0,0,0,.49-.78l.09.5q.3,1.57.57,3.21c-.35-.34-.68-.72-1-1.11Zm-1.43-2.33h0l-.37.68a9.24,9.24,0,0,1-.75-.67,5.2,5.2,0,0,0-2.3-1.49l-.37-.11c0-.06,0-.12,0-.18l.23,0a13.32,13.32,0,0,0,2,.14,26.06,26.06,0,0,0,2.69-.17,10.82,10.82,0,0,0-1.06,1.76Zm.53-4.41h0a3.54,3.54,0,0,1-1-.78,8.2,8.2,0,0,1,.71-1l.39-.51a22.51,22.51,0,0,1,.46,2.69c-.2-.15-.41-.28-.61-.41ZM26.52,86.51h0c0-.42.09-.84.17-1.28l.49.12a9.73,9.73,0,0,1,1.1.29,19,19,0,0,1-1.84,1.46c0-.19,0-.39.08-.59Zm3,2.75h.32l0,0A14.3,14.3,0,0,0,28.28,91,18.62,18.62,0,0,1,27,89.62l-.28-.31c.54,0,1.1-.06,1.64-.06Zm-3.68,1.33h0a6.86,6.86,0,0,0,.9.81c.21.16.41.33.6.5a4.45,4.45,0,0,1-1,1,8.53,8.53,0,0,0-.73.65c.05-.52.1-1,.14-1.56s.07-1,.12-1.45ZM27.33,94h0a6.76,6.76,0,0,1,1.2-1c.18.19.38.35.57.52a4.29,4.29,0,0,1,.75.72,16.16,16.16,0,0,1-2.87.44l-.4,0c.26-.21.5-.45.75-.69Zm-2.87,9.19h0a2.24,2.24,0,0,0,1,0,3.07,3.07,0,0,1,.38,0,42,42,0,0,0,4.22-.45l0,.15c-1.24-.12-1.9.75-2.47,1.51a3.75,3.75,0,0,1-1.18,1.17c-.14-.2-.29-.39-.43-.58a5.84,5.84,0,0,1-.8-1.2l-.17-.37-.37.16-.16.06a1.16,1.16,0,0,1,0-.39Zm1.37,5.28h0a6,6,0,0,1,.55-.63,5.38,5.38,0,0,1,1,1.12l-.9.15c-.51.09-1,.17-1.46.23a5.13,5.13,0,0,0,.81-.87Zm.93,1.9h0c.28-.07.55-.14.8-.18a9.86,9.86,0,0,0-1.27,1.32l-.1-.06c-.45-.27-.76-.47-.89-.81a6.74,6.74,0,0,0,1.46-.27Zm20-3.63h0a18.39,18.39,0,0,0-1.38-1.24c.12-.2.23-.41.34-.62a8.07,8.07,0,0,1,.62-1.05c.07.53.16,1,.25,1.52s.17,1,.23,1.46l-.06-.07ZM26.52,99h0a6.51,6.51,0,0,1-1.76,1.71v0c.09-1,.19-2.14.33-3.18.47.49.95,1,1.42,1.51Zm2.62,2.44h0a19.77,19.77,0,0,1-3.61.42c.43-.32.84-.67,1.23-1l.74-.62a4.28,4.28,0,0,1,1.64,1.21Zm-4.45,5.87h0a7.5,7.5,0,0,0-.89,1.22,12.85,12.85,0,0,1,.23-1.6,13.86,13.86,0,0,0,.24-1.61,5.08,5.08,0,0,1,1.09,1.14,10.51,10.51,0,0,1-.67.85Zm-.45,6.47h0a7.19,7.19,0,0,0-.89.93c0-.49,0-1,0-1.48a21.2,21.2,0,0,1,.1-2.27,16,16,0,0,0,1.73,1.78,5.52,5.52,0,0,1-1,1Zm6.35,3.72h0l.52.19,0-.57c.22-5.83,1-11.7,1.78-17.38.5-3.66,1-7.44,1.35-11.08h.09c.63-.12,1.23-.22,1.87-.28a1,1,0,0,0-.11.21l0,.1,0,.11c1.07,5.47,1.86,11.3,2.5,16.27.17,1.38.41,2.67.63,3.93A51.2,51.2,0,0,1,40,114.6v.14a3,3,0,0,0,.87,2.4c-3.5.34-7.06.67-10.63.88a.82.82,0,0,0,.3-.56Zm14.14-2h0c.32-.42.63-.83,1-1.2a8.1,8.1,0,0,0,1.2.84,3.5,3.5,0,0,1,1.54,1.36c-1.63.14-3.28.29-4.91.45a14.88,14.88,0,0,0,1.2-1.45ZM34.42,82.05h0c-2.93.24-5.7.47-8.32.66a3.09,3.09,0,0,0-.28-.73,1.73,1.73,0,0,1-.23-.66c6-.1,12.67-.75,18-1.27l1.51-.14c0,.15.09.3.14.44a4.53,4.53,0,0,1,.24.84c-3.65.23-7.44.55-11.1.86Zm-9.9,40h0a1.7,1.7,0,0,0,.22.47q-2,0-4.14.06a4.37,4.37,0,0,1-.1-1.21,4.74,4.74,0,0,0-.16-1.53c1.46,0,2.92-.08,4.39-.14a3.41,3.41,0,0,0-.21,2.35Zm-4.23,7.06h0a1.22,1.22,0,0,1-.12.33,1.86,1.86,0,0,0-.24.72l0,.18.12.14a4.46,4.46,0,0,0,1.6,1.12c.25.13.5.25.72.39a6.59,6.59,0,0,1-.77.55c-.7.46-1.42.94-1.51,1.71l0,.16a1.84,1.84,0,0,0-1.1.71l-.36.54.64.1a11.87,11.87,0,0,0,1.38.11V136a9.62,9.62,0,0,1-.46,1.71,8,8,0,0,0-.47,2h-.77c-.48,0-1.48,0-1.59.93l0,.35.33.09a2.79,2.79,0,0,0,1.1,0,4.56,4.56,0,0,1,.79-.09c.4,0,.43.12.45.22l.05.22.21.08a.83.83,0,0,0,.46,0l0,.17a6.76,6.76,0,0,1-.67,2.17,5.66,5.66,0,0,1-1.51-1.39,4.29,4.29,0,0,0-2.5-1.78h0a76.64,76.64,0,0,0,2.93-11.27,8.79,8.79,0,0,0,1.44-.22ZM17.91,144h0a9.8,9.8,0,0,1,1.56,1.44h0a2,2,0,0,0-.19.59c-1.15.6-2.34,1.3-3.48,2-.87.51-1.7,1-2.48,1.43.66-2.7,1.5-5.35,2.32-7.92A7.82,7.82,0,0,0,17.91,144Zm-9.65,20.2h0A6.79,6.79,0,0,1,10,164h.31a9.49,9.49,0,0,0,1.66-.1l-.3.31.9.05a6.23,6.23,0,0,0,1,0,4.19,4.19,0,0,1,.5,0A5.74,5.74,0,0,1,13,166.83a13.24,13.24,0,0,1-3.27-1.66c-.47-.3-1-.61-1.46-.89v-.12Zm7.29,1.05h0a6.17,6.17,0,0,1,.34-1.12c.47-.1,1-.16,1.55-.22a14.74,14.74,0,0,0,1.66-.24,17.62,17.62,0,0,0-1.67.92,13.33,13.33,0,0,1-2,1c0-.13.07-.25.1-.38Zm3.7-2.74h0a1.58,1.58,0,0,0,.34-.53l.2-.39-.22-.21c-.2-.19-.42-.37-.65-.56-1.16-1-1.91-1.72-1.53-2.95,1.22-.81,2.41-1.68,3.55-2.51.61-.45,1.21-.89,1.83-1.33a.62.62,0,0,0,.55.06c-.31.83-.64,1.65-1,2.45a54.92,54.92,0,0,0-2.3,6.53l-.21-.22a1.34,1.34,0,0,0-.6-.34Zm12.67-22.11H33.4c0,.24.08.46.12.67a7.39,7.39,0,0,1,.13,2.79,10.43,10.43,0,0,0-1,.33l-.32.12a23,23,0,0,0-1.43-3.91Zm23.45,19.88h0A16.07,16.07,0,0,1,56.74,158l.39,1c.33.84.67,1.71.94,2.62a13.09,13.09,0,0,1-1.56.09,7.71,7.71,0,0,0-2,.2c.33-.53.63-1.09.91-1.63Zm-3-40.48h0a6.61,6.61,0,0,1,0,1.61l-.57,0-.5,0a1.57,1.57,0,0,1-.58-.08c0-.28,0-.56,0-.84a21.2,21.2,0,0,0-.07-2.65c.47,0,1.05,0,1.61,0h.23a5.86,5.86,0,0,0-.1,1.88Zm-45,47.6h0a14.48,14.48,0,0,1,.41-1.75c.68.33,1.35.7,2,1s1.31.71,2,1.05l-.5.26c-1.38.74-2.81,1.5-4.13,2.1a4.31,4.31,0,0,1-.43.15l-.3.09a7.34,7.34,0,0,0,1-2.95Zm20.12-19.7h0c-.35.31-.68.61-1,.89a9.77,9.77,0,0,1,.59-1.63c.13-.3.26-.62.38-.94a11.26,11.26,0,0,0,.92.91l-.86.77Zm.41-3.23h0c.07-.26.15-.51.23-.76a7.56,7.56,0,0,0,.48-2.69v-.32l-.31-.07a2.57,2.57,0,0,0-.55-.06A4.41,4.41,0,0,0,25,141.91l-.57.46c-1,.75-1.87,1.39-2.8,2A29.19,29.19,0,0,1,23,140.59c2-.18,4.08-.22,6-.23l0,.06a8,8,0,0,0,1,2.38,6.68,6.68,0,0,1,.78,1.76l-.3.36a11.36,11.36,0,0,1-.93,1,1.87,1.87,0,0,1-.74-.67,2.82,2.82,0,0,0-.91-.83Zm37,16.9h0a2.77,2.77,0,0,0-.77-.12h0a2.39,2.39,0,0,0-.13-.21,6.46,6.46,0,0,0-1.13-1.52,12.35,12.35,0,0,0-1.7-1.07c-1.26-.71-3.15-1.78-3.16-2.56a5.33,5.33,0,0,1,1-2,9.83,9.83,0,0,0,.63-1l.36-.62a7.69,7.69,0,0,0,.86-1.72c.53,1.47,1.06,2.93,1.58,4.39.79,2.18,1.67,4.33,2.54,6.41l-.08,0Zm.27,1.34h0c-1.22.06-1.92,1-2.61,1.91a7.33,7.33,0,0,1-1,1.13l-.3-.73a12.09,12.09,0,0,1-.6-1.69c.41-.06.81-.09,1.2-.12,1.27-.11,2.48-.21,3.34-1.12l0,0,.26.63-.35,0Zm-10,12.18h0A95.69,95.69,0,0,1,68,173.59c1.23-.07,2.43-.13,3.55-.21l-.06.48a13.14,13.14,0,0,0-.14,1.34c-3.37.31-6.89.54-10.6.77-1.77.12-3.56.23-5.33.36a3.62,3.62,0,0,1-.23-1.48Z"/></g></g></g></svg>