<svg xmlns="http://www.w3.org/2000/svg" viewBox="0 0 125.15 107.12"><defs><style>.cls-1{fill:#f18d4a;fill-rule:evenodd;}.cls-2{fill:#221f20;}</style></defs><g id="圖層_2" data-name="圖層 2"><g id="event"><g id="deco_uk"><polygon class="cls-1" points="15.52 101.87 16.54 83.95 21.28 83.79 25.86 38.48 28.45 25.64 30.05 30.53 34.37 21.23 40.48 20.7 41.98 20.91 43.36 25.93 45.14 27.9 45.68 39.01 52.47 38.76 52.55 35.41 54.94 33.64 57.97 35.59 68.93 32.96 71.36 21.31 73.43 12.67 74.67 20.28 81.12 6.23 86.48 5.57 93.83 19.1 95.29 12.55 97.4 22.49 101.52 86.74 116.81 89.36 116.78 91.06 109.11 92.93 106.9 105.7 63.59 104.64 63.25 86.86 71.28 84.71 69 42.98 46.47 46.76 47.2 84.85 57.09 86.21 54.67 88.24 47.68 94.4 50.05 101.95 15.52 101.87 15.52 101.87"/><path class="cls-2" d="M27.44,73c0-.79-.07-1.62-.15-2.46l0-.24-.51,0-.09-.37,0,.37h-.07l-.06.16A7.16,7.16,0,0,0,26,72.36l0,.13a24.76,24.76,0,0,0-.23,3.33c0,.83.14,2,.88,2.12l.23,0,.07-.22a14.44,14.44,0,0,0,.5-4.81Zm61.82-6.44v-.25c0-.22,0-.45,0-.69a2,2,0,0,0-.72-1.73l-.11-.07-.12.06a1.6,1.6,0,0,0-.85.9h0l.08-1-.55.87a5.63,5.63,0,0,0-.37,2.89c0,.67.06,1.39.1,2.08s.07,1.2.09,1.72a2.09,2.09,0,0,1,0,.34,2.43,2.43,0,0,0,0,.38.8.8,0,0,0,.42.71l.23.14.13-.23a4,4,0,0,0,.25-.56,4.7,4.7,0,0,0,0,.84l.11,1.43.39-1.38a28.46,28.46,0,0,0,1-6.42ZM88,68.64h0c0-.31,0-.62,0-.93a5.85,5.85,0,0,1,.37-2.62,6.69,6.69,0,0,1,.1,1,21,21,0,0,1-.35,3.66L88,70c0-.46,0-.91-.05-1.38ZM30.12,54.91a3.1,3.1,0,0,0,.33,1.55l.28.42.17-.47a10,10,0,0,0,.51-4.85l0-.22H30.6v.24a.46.46,0,0,0-.09.3,10.15,10.15,0,0,0-.38,3Zm.24-10.49.37.45.09-.58A7.13,7.13,0,0,1,31.18,43a5.73,5.73,0,0,0,.44-1.91,1.55,1.55,0,0,0-.22-.79l-.14-.23-.23.16a3.34,3.34,0,0,0-1.21,2.63,2.66,2.66,0,0,0,.54,1.54Zm60.1-12c-.13.15-.19.22-.36.22h-.31l.06.3a6.41,6.41,0,0,1-.12,2,12.31,12.31,0,0,0-.2,2A2.78,2.78,0,0,0,90,38.61l.44,0a6.84,6.84,0,0,0,.29-2.68A6.8,6.8,0,0,1,91,33.49a4.67,4.67,0,0,1,.16,1.24,17,17,0,0,1-.08,1.88,13.78,13.78,0,0,0,0,1.64l.49.06a11.35,11.35,0,0,0,.55-3.59,5.39,5.39,0,0,0-.62-2.55L91.36,32h-.15a.92.92,0,0,0-.75.42Zm17.43,74.62.07,0L108,107a3.27,3.27,0,0,0,.53-2.24c0-.18,0-.35,0-.51a52,52,0,0,1,.59-11.32,35.27,35.27,0,0,1,4.27-.14,18.77,18.77,0,0,0,4.45-.27l.36-.07-.2-.32-.2-.28s-.06-.07-.06,0v0l.15-.13h-.09l.09-.17.17-.33-.37,0a32.47,32.47,0,0,0-4.23.07c-1.26.07-2.55.15-3.77.13-2.88,0-6.09,0-9.18,0-4.24,0-8.63,0-12.29-.06h-.32l.06.31a.75.75,0,0,0,0,.16h-.06c0-.26-.06-.51-.09-.75a4.51,4.51,0,0,1,0-1.75c.17,0,28.31,0,30.75.24a22.59,22.59,0,0,0,0-2.92c0-.55-.07-1.12-.09-1.67s0-1,0-1.45a17,17,0,0,0,1.76.88l.16.07.13-.13.39-.36a4.73,4.73,0,0,0,.4-.37l.19-.19-.2-.18a4.66,4.66,0,0,0-1.54-.78,5,5,0,0,1-1.29-.62c0-.55,0-1.53,0-2.52s0-2,0-2.67l.74.31a17.56,17.56,0,0,0,5.74,1.72l.26,0,0-.26a.71.71,0,0,0-.44-.7l-.09,0a.81.81,0,0,1,.07-.17l.12-.25-.26-.1q-2.73-1-5.32-2.24h.38l.08-.11a2.85,2.85,0,0,0,.37-1.68c0-.32,0-.65-.06-1s-.06-.65-.07-1a3.66,3.66,0,0,1,.09-1c.26.1.53.22.81.35a5.44,5.44,0,0,0,3,.79l.41-.08-.27-.33a5.22,5.22,0,0,0-2-1.17,6.9,6.9,0,0,1-1.89-1c0-.32,0-.66,0-1a6.42,6.42,0,0,1,.11-1.53l.59.3a10.9,10.9,0,0,0,3.66,1.32l.45,0-.19-.4a4.68,4.68,0,0,0-2.66-2l-.59-.26a27.36,27.36,0,0,1-3.29-2l-1.49-1c-5.84-3.8-11.87-7.73-16.17-13.21a.68.68,0,0,0-.49-.29l-.09,0c.07-1.13.08-2.33,0-3.65,0-1.65-.15-3.29-.28-5.12-.43-6-.91-12-1.17-18-.14-3.19-2.37-8-2.65-11.8l0-.32-.31.09c-1.49.43-1.49,2.32-1.5,4.16A15.22,15.22,0,0,1,94,15.83a4.9,4.9,0,0,1-.57,1.9c-.91-1.85-1.76-3.81-2.59-5.71-.74-1.69-1.5-3.45-2.3-5.12l-.06-.13-.15,0c-.25,0-.35-.17-.52-.44a1.33,1.33,0,0,0-.65-.63,3.71,3.71,0,0,0-1.4-.09h-.49a8.17,8.17,0,0,1-.46-2.7,13.73,13.73,0,0,0-.18-1.78l0-.14c0-.33-.13-.93-.74-1h-.26V.25A10.79,10.79,0,0,1,83.27,2a9.34,9.34,0,0,0-.37,2.27,3,3,0,0,0,.12.77l.12.39c-.79-.1-1.53-.19-1.81.27l0,.08,0,.09a.46.46,0,0,0,.4.36h0l-.07.37-.47,0A4.61,4.61,0,0,0,81,5.59l-.5.06a1.64,1.64,0,0,1,0,.32,1.8,1.8,0,0,0,0,.46h0l-.19.13a.91.91,0,0,1-.16.11l-.1.06,0,.1a29.31,29.31,0,0,1-1.67,4.4c-1.18,2.62-1.49,4.69-3,6.82a2.86,2.86,0,0,0-.75,1.61,1.06,1.06,0,0,0,.2.61h-.18q-.18-1.2-.42-2.55c-.25-1.49-.52-3-.67-4.44v0a1.79,1.79,0,0,1,0-.32,4.24,4.24,0,0,0,0-.51c0-.73-.4-.94-.71-1l-.23,0,0,.22c-.7,2.75-2,6.12-2.56,8.59-.57,2.77-.26,4.64-.3,7.81,0,1.24,0,2.52-.1,3.8-1,.29-2.1.64-3.13,1-1.43.47-2.91.95-4.3,1.3-.23.06-.46.1-.71.14a3.92,3.92,0,0,0-1.93.69l-.29.24.33.18a1.74,1.74,0,0,0,1.38.08,3.1,3.1,0,0,0-.51.71,2.23,2.23,0,0,1-.56.71A2.88,2.88,0,0,0,58,36c0-.13,0-.26,0-.39,0-1.9-1.36-2.9-2.63-3.63l-.18-.1L55,32a28.33,28.33,0,0,0-2.47,3.4l-.39.59.05.13a5.2,5.2,0,0,1,.27,1.65,18.17,18.17,0,0,1-.08,1.95c-.91.32-1.56.37-1.81.13a3.83,3.83,0,0,1,.64-.7,3,3,0,0,0,1-1.41l.11-.38-.39.06a25,25,0,0,0-3.34.82c-.73.21-1.47.43-2.23.61a10.4,10.4,0,0,0,.14-2.1,22.38,22.38,0,0,0-.22-2.43c-.21-1.67-2-11.24-2.26-11.53l-.22-.29-.19.31a1.76,1.76,0,0,0-.2,1c0,.21,0,.44,0,.66s0,.44,0,.64a1.4,1.4,0,0,1-.15.81c-.13-.42-.28-.86-.44-1.33a11.19,11.19,0,0,1-.74-3c0-.15,0-.29,0-.43l0-.24-.25,0c-.16,0-.23-.13-.36-.33a1,1,0,0,0-.8-.56h-.09l-.07,0a.56.56,0,0,0-.18.64,1.59,1.59,0,0,1-.08-.46,1.73,1.73,0,0,0-.09-.56,3.62,3.62,0,0,0-1.47-1.62L38.65,18l-.14.16a4.26,4.26,0,0,1-.66.61A3.51,3.51,0,0,0,36.78,20l-.19.42a1.35,1.35,0,0,1-1-.52l-.23-.33-.2.34a62.43,62.43,0,0,0-3.64,7.38c-.47,1.08-1,2.2-1.47,3.28-1-3.39-.29-6.27-.73-8l-.2-.33-.23.32c-.7,1-4.47,18.61-4.48,18.85C23.35,60.32,21.22,66.06.35,77.34c-.93.83.15,1.26,1.57.88a22.48,22.48,0,0,0,3.2-1.55c.53-.15,1.08-.3,1.59-.48a0,0,0,0,0,0,0,7.17,7.17,0,0,1,.09.81,1,1,0,0,1-.08.5h0a20.26,20.26,0,0,1-3.54,1.06l.26.35c.58.75,1.64.4,2.59.08.26-.08.51-.17.73-.22,0,.57,0,1.2,0,1.83,0,.84,0,1.68,0,2.43a13.75,13.75,0,0,0-3.82.31l-.22.08.07.23.12.41a6.49,6.49,0,0,0,.45,1.26l.07.13h.15c1.67,0,3.19.12,4.66.2a59.76,59.76,0,0,0,6.15.09l-.23,14.38a3.94,3.94,0,0,0,.58,2.11l.07.11h.13a.55.55,0,0,0,.59-.51A.68.68,0,0,0,16,102c6,.14,34.39,2.3,35.32.84l.07-.1,0-.12a.89.89,0,0,0-.76-.5.93.93,0,0,1-.49-.2,23.39,23.39,0,0,1-.35-3.62c0-1.7,0-3.4.14-4.88a16.84,16.84,0,0,0,2.71-1.3l.7-.39c.29-.15.6-.34.92-.54a7.08,7.08,0,0,1,2.52-1.15,5.91,5.91,0,0,1,2.68.64,5.67,5.67,0,0,0,3.31.63l.14,0,0-.13a.93.93,0,0,0,0-.31,1.21,1.21,0,0,0,0-.2l.28.07c0,1.28.37,13.57.34,13.66l0,.13.09.1c1.15,1.32,28.85,1.59,31.71,1.8a74.9,74.9,0,0,0,11.91.27v0a.48.48,0,0,0,.67.34ZM83.35,5.48h0l.15-.4a9.47,9.47,0,0,0,.4-1.63c0-.08,0-.16,0-.25a11.79,11.79,0,0,1,.22,2.34c-.24,0-.53,0-.82-.06Zm-1.28,1h0a4.4,4.4,0,0,1,2-.15h.23l.56,0h0a23.14,23.14,0,0,0-2.39.18l-.72.07.29-.13ZM38,20.41h0a8.88,8.88,0,0,1-1.16,0l.3-.1a3,3,0,0,0,1.13-.74,4.34,4.34,0,0,1,.54-.44l.13.14a2,2,0,0,1,.64,1.22A8.14,8.14,0,0,0,38,20.41Zm68.17,77h0a7.66,7.66,0,0,1,.73,1.56,8.47,8.47,0,0,1,.19,1.72,1.77,1.77,0,0,1,0,.23c-.7-1.17-1.37-2.43-2-3.64-.73-1.38-1.48-2.81-2.31-4.14h.91a4.11,4.11,0,0,0,.59,1.38s.09.18.15.28l.07.14c.06.08.13.17.22.27A12.67,12.67,0,0,1,105.91,97l.21.39ZM104.7,93h0a2.43,2.43,0,0,0,.67,0,5.49,5.49,0,0,1,.27.78c.06.19.12.38.19.57l.17.47.28-.42a.37.37,0,0,0,0-.11,9.1,9.1,0,0,1,.39,2.61c-.3-.52-.58-1-.86-1.58-.43-.8-.88-1.62-1.36-2.39l.2,0ZM71.1,60.31h0l-.18.08a1,1,0,0,0-.37-.6l-.06-.06c0-.77,0-1.62.06-2.52a.79.79,0,0,0,.76-.28.85.85,0,0,1,.48-.28,2.4,2.4,0,0,1,0,.24,1,1,0,0,0,.33.65c0,.92,0,1.85,0,2.77a.65.65,0,0,0-.18-.15,1.12,1.12,0,0,0-.91.15ZM26.3,62.64h0c.05-.44.09-.9.12-1.35a12.77,12.77,0,0,0,3-.5,13.38,13.38,0,0,1,2.25-.44,3.55,3.55,0,0,1-.05.57,4.1,4.1,0,0,0,0,.81l-1.4.34a13,13,0,0,0-3.31,1.06,1.8,1.8,0,0,0-.54-.49Zm-1.51.1h0l.06-.51c0-.34.09-.7.13-1.06l.25,0a2.13,2.13,0,0,1,.37,0l-.06.61c0,.23-.05.45-.07.68l-.5.17-.18.06Zm7.65-1h0c0-.13,0-.26,0-.39,0-.55,0-1.12.32-1.3l.07,0,0-.08a.54.54,0,0,0,0-.2.34.34,0,0,0-.33-.34c.28-2.75.5-5.61.7-8.39.34-4.51.68-9.18,1.36-13.45h.14a.55.55,0,0,0,.29.33c-.29,2.64-.47,5.65-.63,8.55-.25,4.28-.5,8.55-.85,12.82a203.55,203.55,0,0,0-.83,20.62c0,1.25,0,2.49,0,3.7v.32l.32-.08a.88.88,0,0,0,.52-.31h0l.21.08.37.17v-.4c0-1.72,0-3.43.05-5.16,0,0,0,.06,0,.09,0,.42.06.85,0,1.26v.87c0,1,0,2.11,0,3.11,0,.4,0,.76.05,1.09-1,0-1.77,0-2.91-.06a146.39,146.39,0,0,1,.45-14.92c.2-2.22.42-4.52.48-6.85a1,1,0,0,1,.16-.05c.75-.15.76-1,0-1Zm-5.9-1.3h0a108.29,108.29,0,0,1,1.17-12.7,7.26,7.26,0,0,1,5-.86c-.15,1.84-.28,3.7-.42,5.6-.17,2.25-.34,4.57-.53,6.93a15.07,15.07,0,0,0-2.09.45,14.41,14.41,0,0,1-3.11.58Zm16-21.77h0l0,.08,0,.07a1.38,1.38,0,0,0,.3.39.56.56,0,0,1,.24.51c-1.1.28-2.17.61-3.2.92s-2.22.68-3.39,1c0-.47,0-1,.06-1.45a13.68,13.68,0,0,1,.16-2.28c1.21-.1,2.61-.17,4-.24l1.77-.09a2.3,2.3,0,0,1,.06,1.12Zm1.38-1h0c.27.08.32.26.33.57,0,.12,0,.26,0,.4a5,5,0,0,0,0,.78l-.17.07-.12,0a8.9,8.9,0,0,1,0-1.76v-.11Zm-2.54,4.78h0a1.49,1.49,0,0,1-1.69-.34l.1-.07a.64.64,0,0,0,.38-.6h0c.46-.15.85-.26,1.22-.36a.48.48,0,0,1,.31.46,1.87,1.87,0,0,1-.32.91Zm1.35-.35h0l-.22,0a.24.24,0,0,1,.14,0Zm-5,1.19h0a1.37,1.37,0,0,0-.25.05,1.58,1.58,0,0,0-.05-.43,4.67,4.67,0,0,1-.09-.53,1.71,1.71,0,0,1,1.14-.24,2.63,2.63,0,0,1-.29.39,2,2,0,0,0-.46.76Zm1.47-.52h0a.31.31,0,0,1,.26.11,3.84,3.84,0,0,0-.51.1l-.12,0a.54.54,0,0,1,.37-.24Zm3.89-1.43h0a2.46,2.46,0,0,1,2.09-1.28,1.58,1.58,0,0,0,.45.74l.12.13a1.64,1.64,0,0,1-1.18.69,1.89,1.89,0,0,1-1.48-.28ZM46.21,40h0a.53.53,0,0,1-.16-.26c.23-.05.47-.1.71-.17a2.34,2.34,0,0,1-.46.53l-.09-.1Zm32.41-10.7h0a.69.69,0,0,0,.25-.57,1.59,1.59,0,0,0-.14-.57,1,1,0,0,1-.11-.39l.1,0a.91.91,0,0,1,.06.16.58.58,0,0,0,.58.5h.21l0-.21a10.47,10.47,0,0,0,.08-1.77,22.61,22.61,0,0,1,.4,3.94c0,.37,0,.74,0,1.11,0-.18-.07-.36-.11-.53l0-.2-.73,0,0,.21a6.65,6.65,0,0,1-.48,1.4,5.15,5.15,0,0,0-.58,2.14,2.21,2.21,0,0,0,.16.81l.14.38.28-.3a3.07,3.07,0,0,0,.6-1.58,1.16,1.16,0,0,1,0-.18c0,.74,0,1.44,0,2.05,0,.24-.08.51-.14.78A4.6,4.6,0,0,0,79,37.6a1.14,1.14,0,0,0,.58,1l.25.13c0,.5,0,1,0,1.43a15.94,15.94,0,0,0-3.21.52l-.87.2-.44.12c-.68.18-1.22.3-1.46.05L73.9,41a.66.66,0,0,0,.29-.56V40.4c.18-2.5.26-5,.34-7.42,0-1.51.09-2.94.16-4.36a14.32,14.32,0,0,1,3-.63c0,.11,0,.25,0,.37,0,.39,0,1,.68,1h.1l.07-.06ZM81,25.08h0c0-.24,0-.49,0-.76,0-.56,0-1.11,0-1.7s.06-1.22,0-1.87c0-.13,0-.26,0-.38.51-.67,1.21-.54,2.29-.27a8.49,8.49,0,0,0,1,.22,10.29,10.29,0,0,1,.11,1.38c0,.44,0,.89,0,1.34s0,.93,0,1.39a12.28,12.28,0,0,0,.09,1.32.55.55,0,0,0-.53-.24A.87.87,0,0,0,83.7,25c-.58-.44-1.73-.16-2.67.08Zm4.43-4.66h0l0,.2,0-.1.06-.1Zm2.77,5h0v-.27c0-.12,0-.23,0-.34-.06-.83-.1-1.63-.13-2.38.13,1.19.19,2.45.24,3.56,0,.11,0,.21,0,.31a3.15,3.15,0,0,1-.11-.88Zm-1.2.92h-.11a5.43,5.43,0,0,1,.08-.63c0,.18,0,.36,0,.56v.07Zm-3.36-.26h0l0,0a12,12,0,0,1,.5,3.32c.09,3.71-.23,7-.14,10.56.07,2.85-.07,5.69-.2,8.43-.1,2.2-.21,4.47-.21,6.69A.64.64,0,0,0,83,55c-.42,0-.8.12-1.17.19l-.75.14c.07-3.31.08-6.76.09-10.1s0-7,.09-10.58l0-.61c0-.73,0-1.56,0-2.34l0-.54a15.23,15.23,0,0,0-.17-1.53,8.68,8.68,0,0,1-.13-2.2,1,1,0,0,0,0-.23v0l.1,0,.53-.16-.47-.3c-.19-.12-.24-.18-.22-.37a2.66,2.66,0,0,1,2.7-.18Zm8.86,1.11h0a10.42,10.42,0,0,1-.41-2.1h.08a.61.61,0,0,0,.34-.19v.21a4.37,4.37,0,0,0,.4,2,.62.62,0,0,1-.42.1ZM88,27.93h0a.56.56,0,0,0,.13-.43v-.16c.45.08.93.21,1.43.34a6.85,6.85,0,0,0,3.73.31h0l0,0a.51.51,0,0,0,.51.3c.12,1.11.2,2.38.27,3.87H94a2.79,2.79,0,0,0-.88.07l-.3.06-.24,0,0,.24a9.36,9.36,0,0,1-.15,2.55c-.07.44-.13.85-.16,1.3l0,.34a6.91,6.91,0,0,0,0,.8,1.44,1.44,0,0,0,.41,1.11l.28.24.13-.35a8.75,8.75,0,0,0,.34-2.48A10.09,10.09,0,0,1,93.6,34c0,.45-.06.92-.11,1.37a9.18,9.18,0,0,0,0,2.39H94c0-.17.07-.34.11-.53.07-.34.15-.71.21-1.1,0,1.52,0,3,.07,4.55L91,40.48c-1.63-.12-3.32-.24-4.94-.4.23-4.22.26-7.89.47-12.72a2.11,2.11,0,0,1,.36,0h.29l0,.14c0,.18.1.56.49.56a.43.43,0,0,0,.34-.11Zm.58,24h0l.6.74a2.83,2.83,0,0,1-.16.62A1.73,1.73,0,0,0,89,54.55l.09.17.19,0c.61-.11.63-.75.65-1.21h0a10.38,10.38,0,0,1,1.53,1.69,16.12,16.12,0,0,0,1.08,1.27,6.64,6.64,0,0,1-1.53-.1,9.88,9.88,0,0,0-1.08-.11c-.43-.64-.84-1.32-1.24-2a23.7,23.7,0,0,0-3.1-4.31c0-.71,0-1.39.07-2a43,43,0,0,0,3,4Zm.22-2.47h0a9.14,9.14,0,0,1,.32-1.7c.06-.26.12-.52.18-.8a5.77,5.77,0,0,1,.26,1.72c0,.57,0,1.17-.06,1.69-.14-.16-.27-.33-.4-.51l-.3-.4Zm4.22-.8h0a15.93,15.93,0,0,1,0,3.09c0,.69-.1,1.41-.08,2.1,0,.22,0,.43,0,.63l-.7-.82a14.46,14.46,0,0,1,.75-5Zm10.55,20.66h0a15.71,15.71,0,0,0,.21,2s0,.07,0,.1a32.05,32.05,0,0,1-3.6-3.2c0-.49,0-1-.08-1.51-.06-.74-.11-1.51-.12-2.34L102,65.85l2.15,1.73c-.36.29-.51.85-.49,1.74Zm1.3-1.1h0l.25.18a.64.64,0,0,0-.22.06,2,2,0,0,0,0-.24Zm.56.43h0A55.4,55.4,0,0,0,112,73.06a4.9,4.9,0,0,0-.51,2.83c0,.2,0,.41,0,.63,0,.4,0,.8,0,1.22a.93.93,0,0,1-.24-.49l0-.09-.07-.06-2-1.49c-1.12-.84-2.28-1.71-3.38-2.6a22.27,22.27,0,0,1-.29-2.82c0-.5-.06-1-.11-1.54Zm-6.93.58h0c.23,2.4.35,4.81.47,7.14.17,3.2.32,6.23.72,9.25l-.71,0c-.76-5.62-1.12-11.24-1.5-17.2l0-.34a4.84,4.84,0,0,1,.87.93,1.63,1.63,0,0,1,.17.2Zm-.45-4.46h0c0,.54.1,1.1.19,1.62-.35-.26-.51-.85-.54-1.9,0-.3,0-.61,0-.92v-.92s0-.1,0-.15a12.84,12.84,0,0,1,.36,2.27Zm-2.48-1.16h0a9.92,9.92,0,0,1-2.54-2.89l.29-.06A2.1,2.1,0,0,1,94,60.6l.55.06-.31-.45c-.21-.32-.65-.31-1.1-.31a3.83,3.83,0,0,1-.69,0,18.92,18.92,0,0,0-1.79-2.71,7.15,7.15,0,0,1,1.51.09,11.18,11.18,0,0,0,1.15.11l.49.5c.62.66,1.27,1.34,1.89,2,0,.41,0,.81-.07,1.21a22.87,22.87,0,0,0-.06,2.52ZM89.9,59.78c-.91,0-1.77-.08-2.6-.15-.55-.05-1.12-.1-1.7-.13-.09-2-.21-4.46-.25-6.38,1.7,2,2.91,4.67,4.55,6.66Zm-16.33-3.3a.66.66,0,0,0-.4-.43h0c.21-3.88.44-8.64.65-13.79l1-.23a25.1,25.1,0,0,1,5.32-.9h.13l.07-.11,0-.06c0,2.45,0,5.19,0,7.85,0,2.45-.09,4.31-.07,6.64-.08.44-5.51.9-6.64,1ZM81,56.26h0A3.62,3.62,0,0,1,83.58,56c.06,1,.11,2,.15,3.21l-.06,0c-.56-.43-1.9-.2-2.49-.07A18.1,18.1,0,0,1,81,56.26Zm-.73,2.89h0a45.62,45.62,0,0,1-6.66.64,12.19,12.19,0,0,1-.05-2.37h0c2.13-.39,4.28-.65,6.42-.95l.22,0c0,.94,0,1.85.07,2.72ZM78.69,26.84h0a12.44,12.44,0,0,1-.24-2.39c0-.79,0-1.62,0-2.42,0-.26,0-.51,0-.77.14,1.21.2,2.66.23,3.89a3.49,3.49,0,0,0,.05.53c0,.19,0,.39,0,.58a.92.92,0,0,1-.12.58ZM72.22,42.73h0c.09,3.79.06,8.15-.09,13a1.91,1.91,0,0,0-1.58.73c0-.89,0-1.81,0-2.75A114.4,114.4,0,0,1,71,41.42a6.46,6.46,0,0,1,.77-.52l.36-.22c0,.67,0,1.36.07,2Zm-3.24.1h0A.78.78,0,0,1,69,43c-8.09,1.57-16.49,2.22-24.45,4.25-.52-.11-1-.25-1.49-.39s-.73-.21-1.11-.3c2.08-.5,4.23-1,6.47-1.35,5.53-.88,15.07-2.7,20.26-3.54a2.86,2.86,0,0,1,.3,1.19ZM43.23,54.9h0a14.61,14.61,0,0,0,0,1.48A2.07,2.07,0,0,1,42.72,55a3.65,3.65,0,0,1,.45-1.81,8.28,8.28,0,0,1,.06,1.72Zm1.46-1h0a1.52,1.52,0,0,1,0,.23.73.73,0,0,1-.1.44h-.2a5.86,5.86,0,0,1,.28-.67ZM44.28,55h0c0,.06,0,.12,0,.18s0,.17,0,.25a.7.7,0,0,1-.05.34l-.1,0a4.84,4.84,0,0,1,.12-.79Zm-3.49,2.64h0a1.2,1.2,0,0,0,.3-.73,1.31,1.31,0,0,0,.37.51l.13.11.15-.07a.51.51,0,0,0,.26-.26,4.17,4.17,0,0,1,.29,2.3l-1.92-.09c-1.81-.1-3.69-.2-5.35-.13.21-2.17.42-4.3.6-6.47.15-.1.17-.09.19-.06L36,53a12.23,12.23,0,0,1-.13,1.84,12.55,12.55,0,0,0-.11,2.53l0,.27.27,0a1.52,1.52,0,0,1,.73.11c.17,0,.37.11.61.16l.14,0,.1-.11A2.17,2.17,0,0,0,38,56.24q0-.42-.06-.87c0-.4-.06-.81-.05-1.13.51,0,.84.41,1.22.85a3.52,3.52,0,0,0,.91.85l0,.36a2.63,2.63,0,0,0,.35,1.35l.18.24.2-.21ZM37,53.42h0a5.69,5.69,0,0,1,.13,1.08c0,.51,0,1.07,0,1.56,0,.09,0,.17,0,.26a.65.65,0,0,0-.35,0A9.11,9.11,0,0,1,37,53.42Zm4.21.87h0a4.35,4.35,0,0,1-.12,1.25c0,.1,0,.2,0,.29,0-.2,0-.39,0-.58,0-.54.07-.82.21-1Zm.9-.85h0a2.72,2.72,0,0,1,.65-1.62c.11-.17.23-.34.33-.52h0a3,3,0,0,1-.74,1.77l-.24.36Zm2.48-2.75h0a9.8,9.8,0,0,1-.56,2.89,5.44,5.44,0,0,1,.56-2.89Zm-2.41.48h0c-.18.31-.37.62-.53,1l0,0a1.79,1.79,0,0,0-.14-.15,15.33,15.33,0,0,1,1.27-2.21c.09-.12.17-.24.25-.37a5.69,5.69,0,0,1-.82,1.8Zm2.52-2.74h0a2.79,2.79,0,0,1-.72,1.7,2.48,2.48,0,0,1,.72-1.7Zm-1.17.09h0l.14-.25h.17a.75.75,0,0,1-.31.25Zm-3.5,4h0l-.87,1.32a.77.77,0,0,1-.44-.46c.77-1.1,1.53-2.2,2.29-3.31.46-.65.91-1.3,1.36-2l.06.07a.4.4,0,0,0,.17.09,42.41,42.41,0,0,1-2.57,4.25Zm-2,.36h0c-.26-.23-.27-.4-.26-.47,0-.41.44-.94.91-1.5.22-.26.44-.52.65-.81s.53-.75.75-1.07a7.89,7.89,0,0,1,1.11-1.42l.21,0,.24,0c-1.21,1.73-2.41,3.47-3.61,5.2Zm.78-3.52h0c-.46.63-.94,1.29-1.39,2a1.52,1.52,0,0,0-.48,0h-.16c.4-.59.83-1.17,1.24-1.74.57-.76,1.15-1.55,1.68-2.37a.88.88,0,0,1,.3.1,1,1,0,0,0,.18.08c-.44.66-.91,1.31-1.37,1.94Zm-.09-2.28h0l-.33.53a14,14,0,0,1-2,2.78s0-.06,0-.1a5.19,5.19,0,0,0,0-.61.76.76,0,0,1,0-.15,3.67,3.67,0,0,0,.82-1.19c.37-.72.67-1.31,1.48-1.26Zm-2.36,1.17h0a5.65,5.65,0,0,1,0-.58c0-.24.05-.49.05-.76l.27,0a2.25,2.25,0,0,0,.4.06,4.5,4.5,0,0,1-.76,1.25Zm4.65,14.26h0c-.23,0-.44,0-.64,0-.76,0-1.57,0-2.39,0-1.13,0-2.29,0-3.3,0a8.48,8.48,0,0,1,.2-2.37c2.63,0,5.08.07,7.36.21.14.72.26,1.51.36,2.36a2.45,2.45,0,0,0-1.59-.19ZM36.16,82.94h0c0-.51,0-1-.08-1.59S36,80.22,36,79.66a6.89,6.89,0,0,1,.57-3.6l0,0c.23,0,.87,1,1.09,1.59a18,18,0,0,1,.87,5.79c0,.44,0,.9,0,1.4l-1-.05-1.48-.06a10.89,10.89,0,0,0,.07-1.74Zm2.77-5.62h0a16.88,16.88,0,0,1,.59,4.79l0,1v0c0-.44-.07-.89-.11-1.33-.12-1.5-.25-3-.5-4.49Zm1.6,7.23h0s0,0,0,0l.12.27-.34,0a1.21,1.21,0,0,0,.2-.3Zm.46.08h0a.57.57,0,0,0,.08-.13c0,.13,0,.24,0,.36h-.27l.15-.24Zm1.19-1.72h0a21.41,21.41,0,0,0-1.39-7.31,3.21,3.21,0,0,0-3.15-1.92A4,4,0,0,0,34.29,76l0,.13c.09-2.9.22-5.85.35-8.89,0-1.26.11-2.53.16-3.81,1.39-.07,2.73-.05,4,0s2.7,0,3.92-.05h0c.14,1.41.24,3,.28,4.85s0,3.72,0,5.56,0,3.66,0,5.42a49.7,49.7,0,0,0,.39,5.6l0,.17-1.41-.08a12.82,12.82,0,0,0,.07-1.94Zm2.63,1h0a.44.44,0,0,0,.2,0l.16,0,0-.15a1.79,1.79,0,0,0,0-.46,3.63,3.63,0,0,0-.4-1.39,3.21,3.21,0,0,1-.31-.88,3.35,3.35,0,0,1,.06-.92,5.47,5.47,0,0,0,.09-1v-.56c-.05-1.85-.1-3.65-.16-5.44l-.15-5.26c-.09-3.58-.12-6.5-.11-9.4.18.15.3.45.31,1,0,.25,0,.52,0,.79a9.26,9.26,0,0,0,0,1c.05.65.08,1.39.1,2.33,0,.62,0,1.25,0,1.89s0,1.3,0,1.94a34,34,0,0,0,.42,5.21,1.73,1.73,0,0,0,.32.74,40.56,40.56,0,0,1,0,4.38c-.05,1.38-.11,2.81-.08,4.22a23.3,23.3,0,0,0,.26,3L44.28,85h-.37c.5-.2.84-.39.9-1Zm2.47.6h0c-.12-3-.28-6.09-.44-9.34-.27-5.22-.54-10.62-.71-16.29v-.3c0-1.62,0-3.23,0-4.79s0-2.91,0-4.28c0-.37,0-.73,0-1.08a7.9,7.9,0,0,0,1.81-.08c1.73-.24,19.5-3.12,21.1-4h.07c.1.06.19.19.2.49a3,3,0,0,1,0,.43c0,.13,0,.25,0,.35,0,1.56,0,3,0,4.44,0,2.27,0,4.38.13,6.51.41,8.38.13,20.65-.18,29.07-3.69-.2-7.25-.25-11-.3-3.6,0-7.31-.1-11.22-.3a.53.53,0,0,0,.32-.51Zm36.47-24.2v0c0,.64,0,1.31.06,2,0,1.7.08,3.46.11,5.24s.07,3.69.12,5.54c.09,3.81.22,6.79.4,9.37,0,.21,0,.43,0,.65.07,1.43.15,2.9,1.08,3.6l.4.3v-.5c0-1.62,0-3.39,0-5.41s-.12-3.76-.21-5.73-.16-4-.22-6.06c-.08-3.38-.06-6.24.08-9a8.72,8.72,0,0,0,2.64.14,6.83,6.83,0,0,1,2.37.15c.64.2,1.35,1.16,1.92,1.93.25.33.48.65.7.89.58.64,1.12,1.21,1.65,1.76.36.38.7.73,1,1.08.26,2.83.34,6,.42,9,.09,3.48.18,7.08.54,10.37l-.19,0-.3,0c-.09-1-.15-2-.2-3-.09-1.65-.19-3.36-.4-4.76,0-.36-.08-.65-.1-.9a3.53,3.53,0,0,0-.62-2c-.23-.35-2.31-3.33-5.16-2.33-1,.34-1.7,1.81-2.27,3-.12.25-.23.48-.34.68l0,.08,0,.09a12.84,12.84,0,0,1,.21,2.09c0,1,0,2-.09,3s-.13,2.1-.1,3.14a12.5,12.5,0,0,0,.1,1.43l-.1,0a.64.64,0,0,0-.58.38l0,.12.06.09a2,2,0,0,0,.17.23h0l-4.67.09V87.1a7.52,7.52,0,0,0,0-3.5c-.48-6.21-.6-19.06-.9-23.47l2.43.21Zm9.63,15.38h0a3.45,3.45,0,0,0,.18-.8l0-.24a2,2,0,0,1,.46.49l-.15.1a2.51,2.51,0,0,0-.52.45Zm.88-.1h0a1.7,1.7,0,0,1,.06.64A5.26,5.26,0,0,1,93.1,78l0,0a10.13,10.13,0,0,0,1.14-2.36Zm-2.38.7h0l-.3.52a3.06,3.06,0,0,1,.53-1,2.94,2.94,0,0,0,.64-1.5,2,2,0,0,1,.62.24l-.21.15a4.74,4.74,0,0,0-1.28,1.64Zm-2.29.77h0c.48.56.79,2.64.83,4.31a10.52,10.52,0,0,1,0,1.2,2.26,2.26,0,0,1-.49,1,2,2,0,0,0-.39.71l0,.1.06.09a.52.52,0,0,0,.4.3.59.59,0,0,0,.48-.21l0,1.35L89.3,86a.56.56,0,0,0,.13-.32v-.08A28.73,28.73,0,0,1,89,80.65q0-.7,0-1.44c0-.51,0-1,0-1.59,0-.28,0-.57,0-.86a7.47,7.47,0,0,1,.68.33ZM94,82h0a1.79,1.79,0,0,1-.48.75c.11-.17.21-.34.32-.5S93.91,82,94,82Zm-.79,3.52H93c-.25,0-.54,0-.85,0,.4-.44.77-.9,1.12-1.35.21-.26.41-.52.62-.77a4.08,4.08,0,0,1-.37,1.1,6.72,6.72,0,0,0-.35,1Zm1-.24h0c0,.07,0,.14,0,.2l-.1,0c0-.08,0-.16.08-.24Zm7.17-.55h0c-.35-4.58-.68-8.92-.93-13.82l.77.59c1,.78,2,1.58,3,2.45.49,4.76.85,9.78.95,13.51-1.63-.06-1.73-.45-3.61-.68l-.16-2Zm6.35,2.62h0l-1,.06c-.07-1.07-.1-2.13-.12-3l0-1.52c0-.52,0-1,0-1.57,0-1.82-.12-3.78-.35-5.81l1.5,1c1.3.87,2.64,1.76,3.86,2.74.12,2.18.25,4.86.3,7.8-1.49.06-2.62.14-4.16.25Zm6.58-6.19h0a11.24,11.24,0,0,0,2.58,1.34v.38c0,.54,0,1,0,1.51,0,.82.06,1.6.06,2.47-1.14,0-2.08.08-3,.15l-.42,0a17.37,17.37,0,0,1-.21-2.58c0-.3,0-.59,0-.89s0-.61,0-.91c0-.65,0-1.4-.14-2.16.35.19.72.42,1.11.66ZM116.63,77h0c0,.49.06,1,.1,1.56s.11,1.18.12,1.76a5.42,5.42,0,0,1,0,.57,13.93,13.93,0,0,1-3.76-2.38,21.31,21.31,0,0,0-.09-2.36,19.16,19.16,0,0,1-.07-2.32,7.69,7.69,0,0,1,1.8,1,13.16,13.16,0,0,0,2,1.08,6.36,6.36,0,0,0-.06,1.14Zm.21-2h0a4.44,4.44,0,0,1-1.06-.61,3.68,3.68,0,0,0,.35.15,1.57,1.57,0,0,0,.71.46Zm1.74-5.6h0c0,.47,0,1,0,1.52,0,.8-.05,1.62,0,2.38a10.06,10.06,0,0,0,.09,1.23,73.33,73.33,0,0,1-19-12.92,10.84,10.84,0,0,0,.31-3.4l0-1c0-.36,0-.71,0-1.06a14.11,14.11,0,0,1,.13-2.66l.44.39-.35-.27.14.67a4.58,4.58,0,0,0,1.66,2.25l1,.86c.45.38.94.8,1.42,1.23.19.17.43.37.7.58a5.89,5.89,0,0,1,1.53,1.51,4,4,0,0,1,.19,1.25c0,.33,0,.67,0,1a11.49,11.49,0,0,0,0,1.44l0,.38c.08,1.2.16,2.44.86,3l.23.19.16-.26a1.46,1.46,0,0,0,.2-.64l.12,0,.31.06v-.31c0-.86,0-1.82-.08-2.73,0-.73-.06-1.44-.06-2,.68.55,1.4,1.08,2.09,1.59s1.48,1.1,2.2,1.67a15.49,15.49,0,0,0,.1,2c0,.47.08,1,.1,1.42a5.14,5.14,0,0,1,0,.66,6.23,6.23,0,0,0,0,.74,1.25,1.25,0,0,0,.45,1l.19.15.16-.19a1.9,1.9,0,0,0,.31-.64,1.3,1.3,0,0,1,.2-.41h.19l0-.19a12,12,0,0,0,.15-2.65c0-.21,0-.42,0-.63v-.2c.81.5,1.58,1.06,2.33,1.61.56.41,1.13.83,1.73,1.22Zm-.28-4.48h0l.57.37c-.36.31-.34.94-.34,1.29,0,.14,0,.3,0,.45s0,.48,0,.68a50.58,50.58,0,0,1-4.21-2.86,9.25,9.25,0,0,1,0-1.4c0-.31,0-.63,0-1,1.32.78,2.62,1.62,3.87,2.44Zm-8.72-6h0a35.14,35.14,0,0,0,3.4,2.51,2.85,2.85,0,0,0-.27,1.8c0,.13,0,.25,0,.37a31.27,31.27,0,0,1-3.87-3.15l-.75-.67c0-.27,0-.55,0-.83s0-.77,0-1.22c.52.39,1,.8,1.53,1.19Zm-5.25-4.36h0c.84.73,1.71,1.49,2.59,2.22a2.29,2.29,0,0,1,0,.45h-.14a.49.49,0,0,0-.41.13.74.74,0,0,0-.17.54s0,.11,0,.16a28.64,28.64,0,0,1-5.29-5.79l-.05-.06-.07,0-.33-.09c-.31-.07-.42-.11-.44-.21s0-.26.12-.41a1.53,1.53,0,0,0,.17-.23c1.39,1.05,2.71,2.21,4,3.33ZM97.78,42.23h0l.18.22c0,1.72,0,3.6.05,5.56,0,4.09,0,8.38.19,12.4a9,9,0,0,1-1-1c-.17-.2-.33-.4-.49-.56A2.89,2.89,0,0,0,97.1,57v-.24h-.36c-.07-.93-.12-2-.15-3.12,0-1.74,0-3.5,0-5.21s0-3.08,0-4.46c0-.93-.07-1.72-.13-2.4.69-.15,1,.19,1.36.66Zm-3.42-.59h0c0,1.86,0,3.65,0,5.39s0,3.66,0,5.39c0,1.46.11,2.74.24,3.9a2.6,2.6,0,0,1-.66-.72,4.47,4.47,0,0,0-.32-.41,1.83,1.83,0,0,0-.13-.16,1.44,1.44,0,0,0,.39-1.18,3.59,3.59,0,0,0,0-.47c0-.14,0-.27,0-.39V52.9c0-.58,0-1.18.08-1.75,0-.82.1-1.66.08-2.48a10.38,10.38,0,0,0-.22-2l-.07-.33-.3.16a3,3,0,0,0-1.28,2.23l0-.66a9,9,0,0,0-.17-1.77l-.07-.28-.26.1a.73.73,0,0,0-.48.8,3.85,3.85,0,0,0,.08.58,3.7,3.7,0,0,1,.06.41c0,.68.09,1.53.11,2.34a21,21,0,0,1,0,2.22,3.26,3.26,0,0,1-1-1.22,8.76,8.76,0,0,1,0-2.14c0-.55.08-1.12.07-1.65a2.81,2.81,0,0,0-.8-2.17l-.15-.11-.15.1a1.3,1.3,0,0,0-.23.18h0v0a3.38,3.38,0,0,0-.68,2,8.89,8.89,0,0,1-.18.95c-.24-.31-.46-.64-.69-1a6.89,6.89,0,0,0-1.7-2c0-.27,0-.53,0-.78A25.94,25.94,0,0,1,86,41l2.6.17c1.92.11,3.91.23,5.74.48Zm3.45-.84a2.46,2.46,0,0,0-1.54-.13c0-1.2-.07-2.39-.08-3.55,0-.67,0-1.34,0-2A26.56,26.56,0,0,0,95.24,28c1.49.28,1.67,2,2,4.21.44,3.3.56,7.6.61,8.62ZM96.68,20.59h0l.48.39v-.15c0,.11,0,.22.08.33.23,1,.57,6.8.61,8.35v0a.49.49,0,0,1,0,.19v0a3.39,3.39,0,0,0-1.1-2.05,3.49,3.49,0,0,0-1.58-.7c-.09-1-.23-1.93-.36-2.84-.16-1.07-.32-2.17-.4-3.34a2.21,2.21,0,0,1,2.33-.21Zm-1.44-6.65h0c.29,1.31.67,2.6,1.07,4,.18.61.37,1.23.55,1.86a1.5,1.5,0,0,0-.26-.21,2.17,2.17,0,0,0-1.68,0,29.14,29.14,0,0,1,.32-5.63Zm-3.65,4.55h0c-.08-.15-.15-.31-.22-.48l.26.46,0,0Zm-.38,7.11h0c0,.53,0,1,0,1.51a7.93,7.93,0,0,1-1.77-.38c-.23-1.29-.35-2.7-.47-4.07a34.78,34.78,0,0,0-.39-3.51l.41-.54a9.48,9.48,0,0,1,.79-.95c1.35,1.55,1.38,5.13,1.41,7.94ZM90,15.65h0a.19.19,0,0,0-.09,0,2.89,2.89,0,0,1,0-.29s0,0,0,0a3.29,3.29,0,0,1,0,.36Zm-1-1.41h0a8.84,8.84,0,0,1-.5,3,3.15,3.15,0,0,1-.6.87l.24-.84c.3-1.05.61-2.13.85-3.22a1.34,1.34,0,0,1,0,.2Zm-.53-1.67h0l-.33,0,0,.26a11.27,11.27,0,0,1-.88,4.52c-.18.53-.34,1-.48,1.51a1.56,1.56,0,0,1-.5.42l-.12.08v.43a.54.54,0,0,0-.42,0,25,25,0,0,0,2-5.93c.15-.63.31-1.27.49-1.9a1.7,1.7,0,0,1,.18.59Zm-1.08-.86h0a13.92,13.92,0,0,1-.83,4.12l0,.14c-.2.66-.45,1.3-.7,1.93s-.5,1.27-.67,1.86c-.13-.48-.27-1-.4-1.39a43.83,43.83,0,0,0,2.54-7.45,3.79,3.79,0,0,1,.1.79ZM81,19.19h0a30.19,30.19,0,0,1,.69-4,24,24,0,0,0,.71-4.84l.09.29.1.37c.62,2.55,1.07,5.58,1.43,8l.06.38a3.77,3.77,0,0,0-3.08-.2Zm7.2-9.45h0A2.16,2.16,0,0,1,88,9.29a1.79,1.79,0,0,1,.19.45ZM85,7.94h0c.22,0,.45.07.7.09l-.36,1.28a35.54,35.54,0,0,0-1,4.51l0,.17.16.09a.51.51,0,0,0,.53,0,.93.93,0,0,0,.33-.82,1.14,1.14,0,0,0-.09-.46c.19-.8.43-1.56.67-2.3s.47-1.49.66-2.28h.27l0,.09c0,.19,0,.39,0,.59A12.53,12.53,0,0,1,86,13c-.09.26-.18.52-.26.78s-.23.75-.33,1.12a14.71,14.71,0,0,1-.83,2.35c-.06-.37-.13-.73-.2-1.1a28.74,28.74,0,0,1-.57-4.33,7.35,7.35,0,0,1,.82-3.89l.38.05Zm-1.24-.1h0c-.12.35-.22.72-.32,1.08s-.13.48-.2.71a.65.65,0,0,0-.65-.38H82.4l0-.05a1.14,1.14,0,0,0,.34-.56l.09-.42-.41.12h0a.49.49,0,0,1,0-.12,1.62,1.62,0,0,0,0-.5c.19-.22.92-.08,1.32.11Zm-2.52-.43h0c0-.24,0-.46,0-.67l.45.33a1,1,0,0,1,.29.39l0,.12a9.67,9.67,0,0,0-.52,2,8.85,8.85,0,0,1-.12-1.42l0-.79ZM77.8,17.12C77,15.8,79.69,10.7,80.41,8.9a2,2,0,0,0,.7,1.57l.12.08c0,.44-.09.9-.13,1.37-.08.86-.16,1.74-.3,2.59-.11.65-.26,1.31-.4,2a20.57,20.57,0,0,0-.51,2.69,10,10,0,0,0,0,1.37c0,.69.08,1.37.14,2.1s.14,1.47.15,2.22c0,.19,0,.38,0,.55s-.06.16-.17.26a1,1,0,0,0-.31.52c0-.72-.09-1.48-.15-2.21s-.14-1.67-.16-2.44a11.53,11.53,0,0,1,0-1.37v0a3.77,3.77,0,0,0-1.05-1.9c-.44-.55-.54-.55-.55-1.08Zm-2.3,2.45h0a3.89,3.89,0,0,1,1-1.7c.94,1.06,1.11,3,1.15,4.52,0,.78,0,1.58,0,2.36s0,1.64,0,2.34l-.77.13c-.42.07-.85.15-1.3.19a29.41,29.41,0,0,1-.42-4.64c0-.64,0-1.31,0-2.13v-.06s0,0,0,0l.09-.19c.11-.25.21-.51.31-.77Zm-3.41-2h0c.13-.49.26-1,.38-1.48.12.74.19,1.53.26,2.3s.16,1.78.31,2.62a5.16,5.16,0,0,0-1.68.26,16.66,16.66,0,0,1,.73-3.7Zm-1,9.45h0a13.85,13.85,0,0,1-.18-1.82h0a12.14,12.14,0,0,1,.22-2.63A2.79,2.79,0,0,1,73.23,22a4.11,4.11,0,0,1,.59,2.33,22.09,22.09,0,0,1-.18,2.84l0,.35a3,3,0,0,0-2.49-.41Zm-.19,2.13H71l.09-.13a2.16,2.16,0,0,1,.24-.33,1.36,1.36,0,0,0,.39-.85,1.63,1.63,0,0,1,1.72,1l-.17,0-.23.07-.17.06v.17c0,3.15-.46,6.85-.54,10.44a2.81,2.81,0,0,0-.82.3l0,0a.59.59,0,0,0-.76-.33l-.06,0a3.83,3.83,0,0,0,.18-.76l.07-9.71Zm-5.49,8.73h0a15.29,15.29,0,0,1-1.88.35l-1,.16a4.1,4.1,0,0,1,1.1-2,3.44,3.44,0,0,1,.9.72,4.33,4.33,0,0,0,.9.74Zm2.74-2.12h0a.65.65,0,0,1,.68.14l0,1.33c-.38.11-.8.19-1.21.27-.25.05-.51.09-.75.15a2.76,2.76,0,0,1,1.25-1.89Zm-7.52,3h0a6.53,6.53,0,0,1-1,.15,5,5,0,0,0-.56.06c.14-.16.3-.3.46-.45l.36-.34a1.44,1.44,0,0,1,.48.36,2.61,2.61,0,0,0,.24.22Zm8-5.7h0l.29-.1c-.08.13-.15.27-.22.4a2.2,2.2,0,0,1-.42.66c-.13-.06-.23-.28-.15-.81a5,5,0,0,0,.5-.15ZM67,33.44h0a4.71,4.71,0,0,0,.63,1.47l-.18.2A7,7,0,0,0,66,37.18a4.88,4.88,0,0,1-1.08-.9,7.31,7.31,0,0,0-.64-.6A4.85,4.85,0,0,1,67,33.44Zm-3.5,1.31h0a1.09,1.09,0,0,0-.08-.15,2.64,2.64,0,0,1,.54-.16l.13,0-.18.18-.32.33a.82.82,0,0,1-.09-.17Zm-2.43,2h0a2.45,2.45,0,0,0,.81-1.4v-.22a3.16,3.16,0,0,1,.54-.15l.1.11a2,2,0,0,1,.48.76l0,.06a5.33,5.33,0,0,0-1.32,2.4L61.31,38a3.7,3.7,0,0,1-.75-.65,5,5,0,0,1,.52-.66Zm-2,.85h0A10.84,10.84,0,0,1,57.9,39a9.81,9.81,0,0,1,0-1.8c0-.11,0-.21,0-.32a2.92,2.92,0,0,1,1.17.67ZM57,35.9h0a8.27,8.27,0,0,0-.42-.91,5.45,5.45,0,0,1-.63-1.63A3.67,3.67,0,0,1,57,35.9Zm-3.46,3.88h0c0-.26,0-.53-.06-.8s0-.52,0-.78a2.67,2.67,0,0,1,.15-1.07l0-.09,0-.09a2.06,2.06,0,0,1-.14-.66,3.1,3.1,0,0,1,1-2c.18-.21.36-.43.52-.65.12.33.28.65.43,1A6.14,6.14,0,0,1,56,36.29a5.73,5.73,0,0,1-.15,2,9.18,9.18,0,0,0-.2,1.73,3.34,3.34,0,0,0,.29,1.29l.07.15h.16a.52.52,0,0,0,.38-.14.57.57,0,0,0,.16-.38.57.57,0,0,0,.29,0,.24.24,0,0,0,.12-.07.48.48,0,0,0,.53.18c3.92-.93,7.58-1.71,11.19-2.38a4.88,4.88,0,0,1-.12,1.1c-6.13.79-8.32,1.24-14.15,2.44-4.44.92-12.85,2.65-17.48,3.39a4.17,4.17,0,0,0,.25-.78c2.72-.34,5.51-1,8.21-1.58,2.25-.52,4.38-1,6.5-1.33a.71.71,0,0,0,.46-.39.36.36,0,0,0,.27.17h.12l.09-.09a2.35,2.35,0,0,0,.52-1.74Zm-4.38.7h0c-.23.05-.47.12-.71.19a2,2,0,0,1-1.32.14l.19-.34c.34-.65.64-1.21,1.43-1.31l.08.12a1.3,1.3,0,0,1,.33,1.2Zm1.07-1.74h0l.22-.06a4.83,4.83,0,0,1-.56.55,1.66,1.66,0,0,1-.18-.35c.19,0,.36-.09.52-.14ZM45.27,37h0a3.77,3.77,0,0,0,.41,2l-.48.09a14,14,0,0,1,0-2.15v-.06h0s0,.06,0,.1Zm-12.85.2h0a23.33,23.33,0,0,0-2.61.8c0-.15,0-.31,0-.49l.06,0,.07,0H30c.38,0,.56-.28.55-.78,0-.08,0-.16,0-.24s0-.22,0-.31c.23-.65.42-1.33.61-2s.45-1.56.73-2.3c.08.66.13,1.37.18,2.06a22.87,22.87,0,0,0,.35,3l0,.18ZM38.71,37h0A22.4,22.4,0,0,1,39,32.23c.06-.39.13-.81.19-1.28v0a.76.76,0,0,0,.59.52h.06l.06,0c.28-.11.33-.28.33-.4a.6.6,0,0,0-.21-.38c.3.23.46.81.48,1.78,0,.5,0,1.05,0,1.59a15.48,15.48,0,0,0,.07,2.72,7.87,7.87,0,0,0-.89.09,6.17,6.17,0,0,1-1,.09ZM34.3,35.32h0l-.12,0s0-.09,0-.13a37.08,37.08,0,0,1,1.45-8.38,16.61,16.61,0,0,1,.19,2.26c0,1,0,2.09-.05,3.21s-.09,2.33-.07,3.58a.63.63,0,0,0-.32,0c-.14,0-.3.16-.29.5a.62.62,0,0,0,0,.13v.08h-.41c0-.09,0-.19,0-.28a2,2,0,0,0,0-.41.68.68,0,0,0-.33-.59l-.08,0Zm2.76-8.48h0l.09.81.05.35c.08.61.15,1.18.17,1.73,0,.15,0,.28,0,.41A1.67,1.67,0,0,0,37,30c0-.27-.07-.53-.12-.79a16.1,16.1,0,0,1-.24-2.2v-.12h0l.44,0Zm4.24,6.81h0c0,.25,0,.51.05.78a10.38,10.38,0,0,0,.31,2.35h-.21a31,31,0,0,1-.15-3.13ZM44,36.75a.9.9,0,0,1-.09-.42c0-.2,0-.43,0-.65a1.75,1.75,0,0,0-.08-1l-.09-.14-.17,0a.62.62,0,0,0-.25.09c-.11-1.18-.22-2.48-.25-3.7a13.64,13.64,0,0,1,.13-2.63,2.5,2.5,0,0,1,.43-.92h0A33.89,33.89,0,0,1,44,36.75ZM39.08,22.24h0a.45.45,0,0,0,.11-.17l.11.94c.24,2.17.49,4.42.82,6.55a1,1,0,0,0-.35.11l-.15.07a45.91,45.91,0,0,1-.87-7.47l0,0,.17.08.12-.13ZM42,25.81h0a1,1,0,0,1,0-.16c0-.28,0-.54,0-.78a7.09,7.09,0,0,1,0,.94Zm-1.52-1.4h0a11.16,11.16,0,0,1,.18,1.2c.07.86.11,1.74.15,2.67,0,.3,0,.6,0,.91a49.11,49.11,0,0,1-.58-5c0-.74-.12-1.5-.19-2.23l.3,0h.07l-.07.31a5.7,5.7,0,0,0,.1,2.15Zm.66-2.35h0a.38.38,0,0,1,.11.26,1.81,1.81,0,0,1-.1.47l0,.08a3.35,3.35,0,0,0-.27-.67l-.15-.28a.53.53,0,0,1,.44.14Zm-2.88,4.17h0A30.58,30.58,0,0,0,38.8,30h0a.32.32,0,0,0-.39-.27l-.13,0c-.21-1.21-.36-2.5-.52-3.75s-.33-2.71-.55-4a2.13,2.13,0,0,0,.44-.07,22.67,22.67,0,0,1,.68,4.34ZM37,26.58h0l-.2-.16a.74.74,0,0,1-.22-.45c0-.09,0-.11.1-.13l.24-.07c0,.22,0,.44.07.66,0,.05,0,.1,0,.15Zm-.11-1.07h0l-.1-.1c-.23-.22-.24-.59-.24-1.11a7.25,7.25,0,0,0,0-.93,13.16,13.16,0,0,1,.39,2.14ZM36,23h0a1.56,1.56,0,0,1,.07-.62v0a3.59,3.59,0,0,1,.34.77A.3.3,0,0,0,36.3,23,.33.33,0,0,0,36,23Zm-4.38,6.41h0a.24.24,0,0,1,.13,0,.77.77,0,0,0,.35.07h.07l.06,0a.35.35,0,0,0,.19-.31c0-.2-.18-.28-.29-.34l-.1-.06A20.47,20.47,0,0,1,34.43,23L35,21.8a9.11,9.11,0,0,1,.39,2.28c0,.62-.07,1.43-.56,1.75l-.09.06,0,.11c-.67,3.63-1.26,7.34-1.74,11l-.15,0V37a14,14,0,0,0,.1-2.17,14.52,14.52,0,0,0-.8-4.7L32,29.58l-.23.52a50.7,50.7,0,0,0-1.92,5.5h0c0-.11,0-.22,0-.33,0-.59,0-1.19,0-1.78a.43.43,0,0,0,.24,0l.07,0,0-.06A5.43,5.43,0,0,0,31,31.26a5.71,5.71,0,0,1,.66-1.83ZM27.14,38.7h-.2c.06-.64.09-1.25.12-1.84.07-1.24,1-7,1.56-8.06A18.71,18.71,0,0,1,29,32.42c0,1.62,0,3.25-.1,4.55,0,.47,0,.91-.06,1.29l-.22.07-.3.09v0a1.85,1.85,0,0,0,0-.23.48.48,0,0,0-.16-.37.43.43,0,0,0-.34-.07.37.37,0,0,0-.31.11.51.51,0,0,0-.14.42,1.64,1.64,0,0,0,0,.22c0,.07,0,.15,0,.2a1.32,1.32,0,0,1-.27,0Zm2.93,0h0A13.42,13.42,0,0,1,32.62,38l.07.31,0-.33a3.67,3.67,0,0,1,.81,0h0c-.33,2.7-.58,5.36-.8,8a2.36,2.36,0,0,0-1.7-.13l-.27,0a13.93,13.93,0,0,0-3.05.77c.08-1.71.22-3.3.36-4.84.08-.86.16-1.71.22-2.56.58-.15,1.17-.36,1.75-.57Zm-3.2,1a1.11,1.11,0,0,0,.36-.09l.08,0c-.07,2.17-.29,4.8-.5,7.13A1.41,1.41,0,0,0,26.22,48a1.2,1.2,0,0,0,.4.91c-.45,3.82-.69,7.67-1,11.51a.91.91,0,0,1-.33-.12l-.2-.08c.14-4.33,1.34-18.22,1.77-20.47Zm-4.29,19.7h0c.32-.47.64-.94.92-1.45a23.73,23.73,0,0,1-.36,3,28.36,28.36,0,0,0-.4,3.55,8.38,8.38,0,0,0-1.22,1.66,9.58,9.58,0,0,1-.83,1.2c0-.15,0-.31,0-.46A23.61,23.61,0,0,1,21,62.45a8.56,8.56,0,0,1,1.54-3Zm-5.4,8.16h0a4.2,4.2,0,0,1,.82-1.2c.21-.26.44-.53.62-.8s.27-.38.39-.56c.29-.4.57-.8.82-1.19a18,18,0,0,1-.17,2A16.29,16.29,0,0,0,19.47,69a23.68,23.68,0,0,1-2.1,2.19c0-.42-.1-.82-.15-1.2a6.51,6.51,0,0,1,0-2.4Zm-4.86,4.78h0a24,24,0,0,0,3.76-3.55,5.62,5.62,0,0,1,.05.74,18.17,18.17,0,0,1-.08,1.95q0,.42-.06.81A33.64,33.64,0,0,1,12.23,75a8.81,8.81,0,0,1,0-1.22c0-.4.06-.8.05-1.15a2.17,2.17,0,0,0,0-.26Zm4.89,10.38h0c-.05-.16-.13-8.68.11-9.53.15-.55.71-.87,1.25-1.18a6.29,6.29,0,0,0,.79-.51c.17,3.74,0,7.49.05,11.23l-.54.05a5,5,0,0,1-1.66-.06Zm-1.29.09h0l-3.36.08c0-1.1-.11-2.15-.18-3.17s-.14-2-.17-3.06a30.46,30.46,0,0,0,3.63-2.39c.05,1.15,0,2.44,0,3.68,0,1.07-.05,2.17,0,3.2,0,.62,0,1.17.1,1.66Zm-8-5.89h0a8,8,0,0,0-.12-1.3l.62-.41c1-.63,1.94-1.29,2.85-2a6.66,6.66,0,0,1,0,1.34,6.92,6.92,0,0,0,0,1.12,16.68,16.68,0,0,1-3.33,1.53v-.28ZM7.77,80.7h0c0-.5,0-1,0-1.58,0-.22,0-.44,0-.67,1.09-.4,2.18-.82,3.24-1.23l.28-.1c0,.71,0,1.47,0,2.28,0,1.16,0,2.36,0,3.57h-.06l-.09,0A13.7,13.7,0,0,1,9.54,83a14.46,14.46,0,0,0-1.71.06,13.45,13.45,0,0,1-.06-2.4Zm12.74,2.11h-.07c0-3.6.28-7.2.24-10.79v0c0-.23,0-.44-.06-.65a2.62,2.62,0,0,1,0-1,11.69,11.69,0,0,1,1.78-2.7c-.22,1.52-1.22,13.21-1.19,14.56l0,.55a4,4,0,0,1-.73,0Zm2.56.54h0l0,0v-.16a.53.53,0,0,0-.15-.36.69.69,0,0,0-.49-.13c.32-.55,1.79-15.57,2.26-19a2.14,2.14,0,0,0,.43-.18l.19-.1c-.15,1.83-.37,3.74-.57,5.58A83.63,83.63,0,0,0,24,81.75l0,.55.41-.37a1.63,1.63,0,0,0,.44-1.31c0-.23,0-.48-.06-.73a7.07,7.07,0,0,1-.06-.91c.07-3,.44-6.13.79-9.11.25-2.18.5-4.24.64-6.28a1,1,0,0,1,.14.68l-.09.76.53-.56c.93-1,2.44-1.53,4.73-1.76,0,2.44-.29,4.94-.54,7.58-.46,4.69-1.13,9.39-.57,14.1v.14c-.33,0-.44,0-.78-.06-1.61-.06-3.28-.12-4.77-.14h-.62a3.69,3.69,0,0,1-1.92-.25c0-.18.06-.24.31-.38a1.21,1.21,0,0,0,.47-.36Zm-19,1.31h0A1.36,1.36,0,0,1,4,84.29a1.16,1.16,0,0,0,0-.18c.72,0,1.51.17,2.81.22,0,0,0,0,0,.07a.75.75,0,0,0,0,.4c-.89,0-1.77-.08-2.68-.14Zm3.47.16h0a1.19,1.19,0,0,0,.13-.46l3.47-.09a.41.41,0,0,0,.38.3c0,.1,0,.2,0,.3-1.47,0-2.77,0-4-.05Zm24.52,1.44h0c-4.59,0-8.94.08-13.73-.31v-.19l-.1-.08a.44.44,0,0,0-.39,0l-.41.07a3.14,3.14,0,0,0-.91.24,1.36,1.36,0,0,0,0-.17.85.85,0,0,0,.46-.21.55.55,0,0,0,.17-.45l0-.22-.16-.05a6.29,6.29,0,0,0-1.9,0,12.12,12.12,0,0,1-2.47,0,2.12,2.12,0,0,0,0-.45c0-.11-.06-.2,0-.33,1.33,0,2.68-.09,4-.18a40.36,40.36,0,0,1,4.74-.16v.47A3.76,3.76,0,0,1,20,84.19a2,2,0,0,0-1.61.15l-.36.28.43.16a8.17,8.17,0,0,0,3.19.33h1.1c1.67,0,3.45.09,5.18.16,2.1.08,4.21.16,6.31.16a1,1,0,0,1,.17.34l.1.22.06.12.12,0a.45.45,0,0,0,.4-.07.58.58,0,0,0,.2-.47.19.19,0,0,0,0-.08,9.56,9.56,0,0,0,1.54.08,6.81,6.81,0,0,1,1.53.09v.26a1.1,1.1,0,0,1,0,.31c-2.18,0-4.28,0-6.31,0Zm11.57,15.46h0l-.21,0c-.25-.59-.61-1.24-1-1.92A16.88,16.88,0,0,1,41.14,97,1.86,1.86,0,0,1,41,96.4c0-.15,0-.21,0-.22l.17-.06v-.19a.52.52,0,0,0-.19-.38,1.15,1.15,0,0,0,.39,0,48.12,48.12,0,0,1,1.88,4.52c.2.55.41,1.09.62,1.64l-.27,0Zm-1.29-.21h0c-.58-.23-1-1.08-1.33-1.85-.09-.2-.18-.38-.27-.55s-.24-.48-.37-.72a18,18,0,0,1-1.2-2.58c.13-.28.27-.41.71-.34a13,13,0,0,0,1.53,4.07c.32.63.66,1.28.93,2Zm1.81-1.45h0c-.07-.25-.14-.49-.22-.7-.17-.45-.35-.89-.53-1.31a18.58,18.58,0,0,1-.88-2.38v0h.4a27.89,27.89,0,0,1,1.07,3,30,30,0,0,0,1.07,3.07c-.44-.21-.66-.85-.91-1.69Zm2.09,1.82h0a20.18,20.18,0,0,1-2-5.49c-.06-.2-.11-.39-.16-.58a1.77,1.77,0,0,0,.59-.18,23.64,23.64,0,0,1,1.17,3.68c.23.86.46,1.75.75,2.58ZM47.39,100h0c.15.69.3,1.35.45,2l-.29,0c-.18-.58-.38-1.18-.57-1.76a28,28,0,0,1-1.27-4.76c0-.07.08-.11.26-.19l.17-.09A47.27,47.27,0,0,1,47.39,100Zm.17-5.32h0a1.64,1.64,0,0,0-.21.83v.15l.06.07a3.14,3.14,0,0,1,.42,1.82c0,.24,0,.49,0,.74-.26-1.06-.45-2.19-.63-3.3l-.06-.32a2,2,0,0,0,.41-.21l.12-.07c0,.1-.08.19-.12.29Zm-9.38,0h0a1.27,1.27,0,0,0-.13,1l0,.08a30.05,30.05,0,0,1,1.49,2.88c.46,1,.93,1.95,1.48,2.86-1.95-.09-3.8-.21-5.59-.32-7.31-.45-12.41-.93-19.18-.76-.05-4.15-.48-8.35.06-12.48,2.95-.11,5.94,0,8.84.11a85,85,0,0,0,12.55-.14.58.58,0,0,0,.53-.58s0,0,0-.06h.08s0,0,0,0a2,2,0,0,1-.51,1.07l-.08.07v.11c0,.6,0,1.2,0,1.9s0,1.19.08,1.8.06,1.2.08,1.84a.72.72,0,0,0,.28.59Zm1.52-.59h0c.06-.73,0-1.46,0-2.18a8.51,8.51,0,0,1,.53-4,63,63,0,0,0,7.82.2c2.22,0,4.48-.06,6.57.09l-.18.16a.74.74,0,0,1-.32.2,8.06,8.06,0,0,0-3.52.83c-.37.15-.74.3-1.12.43a62,62,0,0,0-9.83,4.22Zm23.14-5.5h.06a5.42,5.42,0,0,0,.08.54c0,.07,0,.14,0,.21l-1.77-.49-.9-.26.33,0a5.55,5.55,0,0,0,2.16,0ZM63,90.46h0a.1.1,0,0,1,0-.06.21.21,0,0,1,.17,0c0,.1,0,.2,0,.31L63,90.46ZM64.55,104c.25-4.45-.12-8.91.06-13.37h0a1,1,0,0,0,.3,0l.75-.2L65,90.09c-.34-.13-.47-.58-.61-1a1.87,1.87,0,0,0-.87-1.37l-.13-.06-.12.08A.72.72,0,0,0,63,88a.6.6,0,0,0-.22-.27c.29,0,.62-.18.54-.69l0-.2h-.2A224.13,224.13,0,0,0,40.39,87a1.24,1.24,0,0,1,0-.68,2,2,0,0,0,.09-.59v0c5.34.19,11.91.42,18.19.54.81,0,1.65,0,2.49,0a38.19,38.19,0,0,1,8.51.62h.08c.39,0,.49-.34.53-.57v0a.8.8,0,0,0,.21.64l.12.1.14,0a.78.78,0,0,0,.5-.84,2.33,2.33,0,0,0,0-.38,2.06,2.06,0,0,1,0-.33,13.36,13.36,0,0,0,0-1.58c-.15-6.08-1.17-17.58-.35-22.59.06-.11.18-.12.49-.12a1,1,0,0,0,.78-.2c0,8-.47,15.92.15,23.93v.18c0,.53.08,1.19.81,1.46l.18.07.12-.17a8.26,8.26,0,0,0,.51-.92l.19-.35,0-.06v-.08c-.14-1.69-.25-3.72-.31-6.22-.07-2.84-.08-6-.1-9s0-6.16-.09-9v-.14a23.29,23.29,0,0,0,3.58-.27c.89-.12,1.8-.24,2.85-.31a3.37,3.37,0,0,1,.28,1.41c0,.23,0,.46,0,.7s0,.47,0,.69c.18,7.07.14,14.13.63,21.18a6.14,6.14,0,0,0,.72,3c-5.54.08-11.83.13-16.53,0H65l-.07.15a1.3,1.3,0,0,0-.08.37s0,.08,0,.07a.42.42,0,0,1-.13,0l-.54.09.42.36a2.68,2.68,0,0,0,2.06.34l.57,0c5.75-.19,12.82-.07,18.94.33A6.75,6.75,0,0,1,86.53,91a7,7,0,0,0,.24,1.88,7.89,7.89,0,0,0,1.51,2.37c.22.27.45.55.65.82.73,1,1.48,2,2.23,3,1.36,1.82,2.76,3.69,4,5.54-6.68.09-24.84.89-30.66-.69Zm35.76.8h0a16.37,16.37,0,0,1-3-3.62L96.5,100c-.38-.53-.78-1.06-1.18-1.58a33,33,0,0,1-2.51-3.62,1.69,1.69,0,0,1-.13-.38c-.1-.39-.26-1-1.05-1h-.3l0,.3A5.45,5.45,0,0,0,92.64,96c.22.27.42.52.6.78,1.68,2.48,3.45,5,5.16,7.31a1,1,0,0,0-.54-.24c-.72-1-1.49-2-2.24-2.95a46.61,46.61,0,0,1-5.3-7.9,12.42,12.42,0,0,0,1.24.11,10.32,10.32,0,0,1,1.13.1c2,3,4.87,7.37,8,11.53a.66.66,0,0,0-.37,0Zm.16-1.62h0c-.15-.23-.29-.45-.43-.65-2.09-2.87-4.28-6.11-6.36-9.21a7.11,7.11,0,0,1,1.14,0,.88.88,0,0,0,0,.32,1.83,1.83,0,0,0,.53,1.05,2.64,2.64,0,0,1,.23.29c1,1.52,2.06,3.11,3.11,4.65,1.18,1.74,2.4,3.52,3.52,5.28-.75-.19-1.23-1-1.7-1.7Zm3.86,1.84h0a4.74,4.74,0,0,0-.94,0c-1.83-2.4-3.54-5-5.19-7.52-.9-1.37-1.83-2.78-2.77-4.15a8.78,8.78,0,0,0,1.45,0A54.93,54.93,0,0,0,104.45,105ZM97.92,93.23h0l.92,0c1.16,1.7,2.2,3.57,3.21,5.38a61.59,61.59,0,0,0,3.76,6.2l.11.14.18-.05.07,0,.09.14a1.41,1.41,0,0,0-.55.08,40,40,0,0,1-7.79-11.84Zm8.79,12.44h0a.7.7,0,0,0,0-.4l0-.07,0,0a.54.54,0,0,0-.25-.15l0-.26a.77.77,0,0,0,.1-1l0,0,0,0a.44.44,0,0,0-.39-.11,90.27,90.27,0,0,1-5.88-10.42h.38c1.44,2.42,2.89,5,4.2,7.42.1.2.2.42.29.65.29.66.6,1.42,1.33,1.68l.63.24-.31-.6c-.55-1-1.15-2.12-1.77-3.24-1.1-2-2.24-4.09-3.26-6.11a2,2,0,0,1,.4-.08.44.44,0,0,0-.09.28.49.49,0,0,0,0,.15l0,.08a27,27,0,0,1,2.33,3.89c.4.75.78,1.47,1.18,2.13.09.15.17.3.25.46a2.52,2.52,0,0,0,1.14,1.35l.17.07c0,.46,0,.92-.08,1.36,0,.71-.11,1.44-.09,2.17,0,.22,0,.43,0,.63a1.08,1.08,0,0,1-.19,0ZM78.38,78.09a1.12,1.12,0,0,0,.05.13l.49-.08c0-.8.17-1.63.27-2.44a23.92,23.92,0,0,0,.32-3.82,6.4,6.4,0,0,0-1-3.5l-.08-.12h-.56l-.07.09a1,1,0,0,0-.21.45.27.27,0,0,0-.08-.07.57.57,0,0,0-.51,0l-.21.07,0,.21A13.43,13.43,0,0,1,77,71.07c0,.67,0,1.36,0,2s0,1.36,0,2a10,10,0,0,0,.83,4.13l.48-.08c0-.32,0-.68,0-1.1Zm-.16-2.69h0c-.07-.88-.15-1.78-.17-2.64a9.79,9.79,0,0,1,.25-2.83,4.31,4.31,0,0,1,.38,1.85,17.35,17.35,0,0,1-.24,2.83c-.07.48-.13.94-.17,1.38,0-.19,0-.39,0-.59Zm-2.61,4.1A1.65,1.65,0,0,0,76,78.29c0-.13,0-.27,0-.41a4,4,0,0,1,0-.69v0c.08-1.37.18-2.92.14-4.43a12,12,0,0,0-.8-4.52L75.21,68h-.73v.24a.5.5,0,0,0-.09.33,26.05,26.05,0,0,0-.15,4.48c0,.79,0,1.6,0,2.37,0,.27,0,.55,0,.84s-.06.81,0,1.21a2.67,2.67,0,0,0,.44,1.58c.17.23.69.77,1,.41ZM75.05,75h0c0-.53,0-1.08-.06-1.62a25.71,25.71,0,0,1,0-2.6,24,24,0,0,1,.1,6.84.64.64,0,0,0,0,.07c0-.75,0-1.72-.06-2.69ZM28.77,76.1l.18.41h0v.06l0-.1.24-.32c.77-1.07.88-3.21.84-4.82,0-.72-.07-1.49-.15-2.23v0a.4.4,0,0,0-.49-.27h-.1l-.06.08a6.21,6.21,0,0,0-1.11,4.07,9,9,0,0,0,.63,3.16Zm.52-4.79h0a10.05,10.05,0,0,1-.06,1.45,10.64,10.64,0,0,1,.06-1.45Zm64.24-5.66a17.08,17.08,0,0,0-.6,4.23c0,.12,0,.24,0,.38s0,.55,0,.84a2.27,2.27,0,0,0,.48,1.51l.46.47,0-1.11a22.29,22.29,0,0,1,.55-6.24v-.09a.53.53,0,0,0-.38-.52L93.63,65v.34a.43.43,0,0,0-.1.31Zm-56.68,5a9.32,9.32,0,0,1,.34-3.16,9.93,9.93,0,0,1,0,3c0,.19-.09.41-.15.64a3.47,3.47,0,0,0-.19,1,.93.93,0,0,0,.39.77l.35.25.06-.42c0-.25.08-.56.14-.89a17.83,17.83,0,0,0,.38-3.43,3.19,3.19,0,0,0-.88-2.45l-.2-.17-.16.2a2.3,2.3,0,0,0-.41.81.74.74,0,0,0-.29-.23l-.3-.16-.06.34a17,17,0,0,0-.19,3,7.37,7.37,0,0,0,.57,3.05l.36.66.12-.74a16.33,16.33,0,0,0,.1-2.06Zm4.57.07c0,.55-.08,1.07-.07,1.54a2.54,2.54,0,0,0,.38,1.45l.42.56,0-.7c0-.47.06-1,.1-1.47a30.33,30.33,0,0,0,.15-3.13,6.1,6.1,0,0,0-.56-2.69l-.08-.14h-.15a1.07,1.07,0,0,1-.64-.24,2.48,2.48,0,0,0-.4-.23l-.34-.14v.37c0,1-.06,1.9-.09,2.73-.06,1.17-.1,2.26-.07,3.51,0,.3,0,.62,0,.95l0,.66.42-.52a4.75,4.75,0,0,0,.55-3l0-.8a7.71,7.71,0,0,1,.15-2,4.88,4.88,0,0,1,.23,1.5,17.77,17.77,0,0,1-.07,1.78Zm48.72-1.87c0,.16,0,.31,0,.47s0,.59,0,.87a2.32,2.32,0,0,0,.35,1.37l.32.45.13-.54a18.74,18.74,0,0,0,.36-2.76A11,11,0,0,1,92,64.91c0,.12,0,.24,0,.36A13.64,13.64,0,0,1,91.68,68a17.8,17.8,0,0,0-.29,1.89V70c0,.19,0,.44,0,.7,0,1,.46,1.22.83,1.26l.41,0-.14-.39a3.14,3.14,0,0,1-.2-1.11,11.9,11.9,0,0,1,.28-2.41,14.12,14.12,0,0,0,.31-2.74,4.61,4.61,0,0,0-.4-1.84l-.11-.22-.22.09a1.77,1.77,0,0,0-1,1.24A4.05,4.05,0,0,0,91,62.79l-.25-.59-.22.59a.48.48,0,0,1-.12.21l-.1.09v.12c0,1.06,0,2.31-.08,3.51,0,.74-.07,1.45-.08,2.1ZM28.92,56.74a5.16,5.16,0,0,0,.84-3A2,2,0,0,0,28.94,52l-.37-.2v.42a6.88,6.88,0,0,1-.28,1.54A6.67,6.67,0,0,0,28,55.52a2.5,2.5,0,0,0,.21,1l.23.52.08-.18,0,.36.4-.44Zm46-3.37a1.07,1.07,0,0,0,.18.19l.41-.18c0-.38.08-.78.14-1.21a16.6,16.6,0,0,0,.19-2.44,4.91,4.91,0,0,0-.27-1.58L75.53,48l-.61,0-.07.09A7,7,0,0,0,73.91,52a4.29,4.29,0,0,0,.44,1.95l.46,0a2.44,2.44,0,0,0,.13-.5Zm1.73-2.15a3.7,3.7,0,0,0,.42,1.8l.14.24.22-.15c.83-.54,1.17-2.15,1.14-3.42a5.26,5.26,0,0,0-.35-1.82l0-.1-.11,0a.37.37,0,0,0-.23,0,.35.35,0,0,0,0-.11l0-.19-.73,0,0,.22c0,.26-.07.55-.12.86a17.85,17.85,0,0,0-.24,2.71Zm.84.1h0A4.9,4.9,0,0,1,77.77,50a4.76,4.76,0,0,1-.26,1.33ZM88.07,31.71l0,0a.38.38,0,0,0-.37-.06l-.21,0v.21c0,.47,0,1,0,1.62s-.06,1.39,0,2.08c0,1.08.17,2.59,1.06,3.23l.41-.19c0-.46.11-1,.19-1.6a20.38,20.38,0,0,0,.3-3.44A6,6,0,0,0,89,31.45l-.07-.17-.61,0-.08.11a1.4,1.4,0,0,0-.15.3Zm.35,3.81h0l0-.56a8.48,8.48,0,0,1,.11-1.71,8.73,8.73,0,0,1-.08,2.27Zm-11.87-2.7a12.71,12.71,0,0,0-.63,3.58,4.57,4.57,0,0,0,.26,1.47l.24.68a1.42,1.42,0,0,0,.25,1l.09.1h.13c.27,0,.59-.18.57-.83,0-.13,0-.28,0-.43a1.94,1.94,0,0,1,0-.43,19.58,19.58,0,0,1,.27-2.62A20.7,20.7,0,0,0,78,32.23a4.25,4.25,0,0,0-.25-1.42l-.06-.17-.6,0,0,.21a19.49,19.49,0,0,1-.47,1.95ZM75.42,22.54l-.18.09,0,.2a8.44,8.44,0,0,1,.15,1.49c.06,1.11.11,2.25.89,2.74l.24.15.12-.26a6.66,6.66,0,0,0,.53-2.85,3,3,0,0,0-.82-2.26l-.22-.17-.19.27c-.22.33-.34.5-.56.6Z"/></g></g></g></svg>