<svg xmlns="http://www.w3.org/2000/svg" viewBox="0 0 85.75 151.83"><defs><style>.cls-1{fill:#d19c6f;stroke:#221f20;stroke-miterlimit:22.93;stroke-width:0.57px;}.cls-1,.cls-2{fill-rule:evenodd;}.cls-2{fill:#4fbee6;}.cls-3{fill:#231f1e;}</style></defs><g id="圖層_2" data-name="圖層 2"><g id="event"><g id="deco_it"><path class="cls-1" d="M4.05,7.71S5,4.29,14.69,2.19,28,2.62,28,2.62l1.37,2.85.43,7.66,2.5,7.17s6.72.93,7.41,1.79a4.34,4.34,0,0,1,.52,2.59l-2,2.41L41.33,36s6.78,17,6.52,17.7S51,68,51,68s2.42,3.27,2.24,5.08-.56,2.19-.38,2.78,11.4,32.89,11.4,32.89,4.66,4.82,4.83,7.14,8.88,35.48,8.88,35.48l-54.5-1.8s-3.82-22.05-4.25-23a30.53,30.53,0,0,0-2.31-3.4l3.63-3.67-4.77-16.79s-.78-3.58-1.29-4-2.6-15.64-2.6-15.64-3.26.13-1.79-1.76,2.6-2,2.6-2L7.2,65.08s-2.93,1-1.3-1.47,3.28-5.42,3.28-5.42L6.3,47.71s-3-.21-2-1.76-2.16-14-2.16-14l6-6.72L4.05,7.71Z"/><path class="cls-2" d="M8,6.22,12.8,23.8,9,27.52,12.1,41l4,17.13-2.93,2,4,16.56s-3.53-1.39-2.64.93,1.72,4,1.72,4l3.68,15,6.74-3.83,3.74,23.13-.81,6.07,7,28.08-13.16-.43-5.79-26.52.42-2.6L15.54,102l-1.26-5S10.34,83.7,10.66,81.71s.52-1.57.52-1.57l-3-14.29s-2.78.41-2.22-1.61a19.58,19.58,0,0,1,2.51-4.75L5.71,48,2.4,33.1s1.2-3.79,3.05-5.48A10.09,10.09,0,0,0,8,24.36L4.33,8.93,6,6.09l2,.13Z"/><path class="cls-3" d="M47.69,133c.21,1.07.42,2.15.64,3.2.58,2.79,1.26,6,2,8.87,0,.18.07.38.1.59.12.81.29,1.93,1.36,2.23l.66.18-.19-.65c-1.62-5.45-2.77-11.51-3.88-17.37-.31-1.63-.62-3.25-.94-4.86l.36-.11c.7-.19.8-.84.77-1.39.82-.07.83-1.17.83-1.83,0-.08,0-.15,0-.21a2,2,0,0,1,.81-.15,1.45,1.45,0,0,1,1,.29,2.91,2.91,0,0,1-.66.86,3.82,3.82,0,0,0-1.11,1.69l0,.19.12.14c.3.34.58.72.85,1.08a7,7,0,0,0,2.58,2.46l.43.21.09-.47c.06-.27.11-.56.16-.84a8.63,8.63,0,0,1,.59-2.22c.51,3,1.28,6,2,9,.66,2.57,1.28,5,1.74,7.44.08.42.14.87.2,1.31.22,1.59.44,3.22,1.54,4.42l.35.39.29-.52c.12-.23.15-.24.24-.24l.2,0,.64.17-.18-.63A94.83,94.83,0,0,1,59,134.15c-.33-2.32-.8-4.46-1.25-6.52-.31-1.43-.61-2.77-.85-4.12a.86.86,0,0,0-.59-.69c-.05,0-.13-.06-.15-.12a4.24,4.24,0,0,0-.6-3.26,6.64,6.64,0,0,1-.47-1.09l0-.12-.1-.08a4.59,4.59,0,0,0-2.8-.86c-2.4,0-5.17,1.52-5.45,4A4.62,4.62,0,0,0,47,123.2c0,.09,0,.18.08.28l-1.05,0,0,.31s0,0,0,0a.8.8,0,0,0-.25.39l0,.11,0,.11a63.22,63.22,0,0,1,2,8.6Zm-13.61-1.6c.2,1,.4,1.93.61,2.91.57,2.66,1.16,5.42,1.63,8,.06.33.11.67.17,1,.25,1.64.51,3.33,1.6,4.31l.82.73-.2-1.08c-.47-2.52-1-5-1.51-7.47-.89-4.2-1.81-8.54-2.45-13.07a.61.61,0,0,0,.57-.22.76.76,0,0,0,.09-.18h0a5.67,5.67,0,0,1,1.38,1.75,5.71,5.71,0,0,0,1.62,2l.47.33.11-.56a3.34,3.34,0,0,1,1.25-1.83,4.81,4.81,0,0,0,1.2-1.4,65.08,65.08,0,0,1,2.62,10.73,72.46,72.46,0,0,0,2.46,10.4l.13.36.36-.13a2.44,2.44,0,0,0,.89-.54c.17.25.41.49.66.49.08,0,.45,0,.49-.57v-.13a150.24,150.24,0,0,1-3.41-16.59c-.39-2.31-.79-4.71-1.24-7.08l0-.12a.83.83,0,0,0-.89-.4h0a5.34,5.34,0,0,0-2.7-3.22,5.13,5.13,0,0,0-1.89-.37A6,6,0,0,0,34,122.31c-1.4,2.28-.76,5.19-.14,8,.08.37.17.75.25,1.12Zm1.31-5.65h0a4.84,4.84,0,0,1,1.08-3.64,2.5,2.5,0,0,1,1.79-1,2.14,2.14,0,0,1,1.8,1.27,2.33,2.33,0,0,0,.1.8,1.45,1.45,0,0,1,.06.7l0,.14.07.12c.11.17.21.36.31.54-.34-.36-.66-.76-1-1.16s-.73-.91-1.14-1.34l-.3-.31-.27.35c-.23.3-.47.6-.72.89a13,13,0,0,0-1.78,2.61Zm3,2.2h0a5.49,5.49,0,0,0-1-1.4c-.2-.22-.38-.43-.55-.65.19-.36.4-.69.63-1s.32-.51.48-.78c.65.14,1,.63,1.34,1.19a5.18,5.18,0,0,0,.68.88A4.73,4.73,0,0,1,38.4,128ZM50.56,95.1a2.68,2.68,0,0,0-2.82-1.83,3.4,3.4,0,0,0-2.8,1.26l0,0a.84.84,0,0,0-.45-.34l-.28-.09L44,94.4c-.54.86-.22,2.18.06,3.35.07.28.14.56.19.82.18.92.35,1.88.52,2.87a62.35,62.35,0,0,0,1.74,7.83l.19.58.43-.44a1,1,0,0,0,.23-1,.76.76,0,0,0,.44.06l.36,0,0-.36a31,31,0,0,0-.76-5c-.19-.87-.38-1.77-.52-2.7a1,1,0,0,0,.68-.32.75.75,0,0,1,.07.12.93.93,0,0,1,.1.2l.08.2.21,0a.58.58,0,0,0,.59-.18c.25.83.44,1.74.62,2.62.38,1.91.78,3.89,1.86,5.23l.26.31.29-.28a1,1,0,0,0,.27-.71.48.48,0,0,0,.18,0,.64.64,0,0,0,.47-.23l.15-.16-.06-.21a55.34,55.34,0,0,1-1.35-6c-.34-1.77-.68-3.59-1.14-5.28a.57.57,0,0,0,.39-.68Zm34.51,55.39c-.54-.1-1-.21-1.49-.32a11.94,11.94,0,0,0-3-.45,9.49,9.49,0,0,0-1.47.12,4.16,4.16,0,0,1,0-1.79V148l0-.09a206.31,206.31,0,0,1-8.81-32.65c.1-.17.18-.22.2-.22s.07,0,.21.13l.53.48.09-.71a5,5,0,0,0-.34-2.53,6.66,6.66,0,0,1-.26-.9l0-.16-.14-.08a17.51,17.51,0,0,0-5.07-1.9l.3-.07-.18-.41-.1-.22h.23l.1-.1c.82-.86.38-2,0-3-.09-.24-.18-.48-.24-.7-.7-2.56-1.36-5.33-2-8-.36-1.51-.72-3-1.1-4.54a4,4,0,0,0,.42-2.47c0-.17,0-.33,0-.49v-.09l0-.08a6.81,6.81,0,0,0-5.31-3.32,2.21,2.21,0,0,1,.07-1.74l.08-.17-.09-.16a52.24,52.24,0,0,1-3-8.45c-.12-.43-.24-.85-.37-1.28A2.39,2.39,0,0,0,55,72.4a2.34,2.34,0,0,1,.4-1.11l.1-.1V71c0-1.92-1.24-2.65-2.33-3.3a9.59,9.59,0,0,1-1-.65A73.66,73.66,0,0,0,48.71,55a3.48,3.48,0,0,0,1-2.45,5.66,5.66,0,0,1,.35-1.47l.06-.13,0-.13a3.23,3.23,0,0,0-2-1.81,3.63,3.63,0,0,1-1.54-1.13,11.44,11.44,0,0,1-.82-2.6c-.1-.46-.21-.92-.33-1.35L45.19,43a10.44,10.44,0,0,1-.65-3.55c.7-.59.66-1.8.63-2.78l0-.14A6.55,6.55,0,0,0,42,33.68l-.37-.21a12.5,12.5,0,0,0-.9-3.92,20.53,20.53,0,0,1-.84-3l.08.05a1.23,1.23,0,0,0,.67.21h.09l.09-.05c1.27-.66,1.78-2.68,1.07-4.24-.85-1.86-7.79-3.91-9.39-4a39.56,39.56,0,0,1-2-6.61,3.36,3.36,0,0,1,1.08-.91,4.62,4.62,0,0,0,1.22-1l.1-.12,0-.16a7.56,7.56,0,0,0-.68-2c-.06-.12-.12-.24-.17-.37a.54.54,0,0,0,.42-.17.51.51,0,0,0,.14-.4l0-.27-.26-.07A3,3,0,0,1,30.74,5.3a4.9,4.9,0,0,0-1.22-1.13C28.84,1.37,26.62,0,22.74,0,16.61,0,7.51,2.56,4.05,7.71H3.91a.88.88,0,0,0-.56.13l-.14.08,0,.16a5,5,0,0,0,.17,2.45,7.11,7.11,0,0,1,.27,1.69l0,.11a.58.58,0,0,0,.22.32A4.64,4.64,0,0,0,2.75,16a3.37,3.37,0,0,0,1.82,2.89l.06,0a.66.66,0,0,0,.68-.14,41.85,41.85,0,0,1,1.28,6.38l-1.21.93C3.21,27.7.23,30,0,33.06a4.07,4.07,0,0,0,.86,2.85,2,2,0,0,0,1.82.61,22.23,22.23,0,0,1,.57,2.15,15.14,15.14,0,0,0,.83,2.82l.11.24.34,0c.31,0,.43.14.65.44a1.59,1.59,0,0,0,.95.73c-1.69,1.46-3.25,3.24-2.82,5a1.63,1.63,0,0,0,1.57,1.27A1.58,1.58,0,0,0,5.47,49a9.22,9.22,0,0,0,.58,3.64,16.32,16.32,0,0,1,.57,2.24,4.31,4.31,0,0,1,0,.72,1.91,1.91,0,0,0,.31,1.48,1.27,1.27,0,0,0,1,.36H8.3l-.15-1.53a57.52,57.52,0,0,0-1.06-7.19c.73-.08.92-.71,1-1.14a2.51,2.51,0,0,1,.17-.45,60.75,60.75,0,0,1,12.87-6.89l.14,1.84c.11,1.24.35,2.54.6,3.92a38.15,38.15,0,0,1,.74,5.53l-.48.15-.11-.55c-.16-.77-.33-1.53-.51-2.29a35.17,35.17,0,0,1-1-5.91v-.29l-.29-.05-.05,0a.81.81,0,0,0-.38-.25l-.2,0-.16.14a.94.94,0,0,0-.31.62c-1.14-.4-2.89.22-3,1.59v.23l.21.11a1.09,1.09,0,0,0,.57.17,1,1,0,0,0,.84-.57c.2-.29.29-.39.52-.37a34.13,34.13,0,0,0,.77,4.35l.11.53a8.64,8.64,0,0,1,.15.91,4.37,4.37,0,0,0,.8,2.38q-1.37.47-2.64,1c-.13-.82-.24-1.64-.36-2.47a51.32,51.32,0,0,0-1.12-6.34L16,44.26h-.73l-.36,0,0,.33a.62.62,0,0,0-.08.49.5.5,0,0,0,.19.24,13.58,13.58,0,0,1,.72,3.76,11,11,0,0,0,1.1,4.55c-.67.29-1.31.58-1.94.88v0c.9-2.33.13-7.88-2.25-9.45l-.23-.15-.28.23c-.66.53-1.75,1.42-1.79,2.42a1.27,1.27,0,0,0,0,.34,1.15,1.15,0,0,0-.54,0l-.35,0,0,.35a33.62,33.62,0,0,0,.83,5.08c.23,1.07.47,2.17.65,3.32-.55.54-1.17,1-1.76,1.53-2,1.67-4.13,3.4-4.37,7v.16l.1.12A3.68,3.68,0,0,0,7.3,66.8a1.52,1.52,0,0,0,.6-.11c.15.91.39,1.86.62,2.78s.49,1.9.65,2.83c.06.4.1.83.14,1.25.13,1.36.26,2.77,1.34,3.64l.66.52-.05-.84a35.94,35.94,0,0,0-.62-4.09,26.82,26.82,0,0,1-.73-6.51l0-.28-.14,0a.84.84,0,0,0,.22-.27l.29-.51-.41,0,0-.06c.15-.16.23-.24.39-.26l.21,0,.09-.2c1-2.23,3-3.42,5.18-4.68.48-.28,1-.56,1.43-.85a42.69,42.69,0,0,1,11.29-4.91c3-.78,13.3-1.86,16.24.29a5.46,5.46,0,0,1,.89.74c1.08,3.39,2.15,7.2,3.28,11.63a6.46,6.46,0,0,0-.92.06,21.09,21.09,0,0,1-.63-3.74c-.4-3.36-.82-6.84-2.65-6.84a2,2,0,0,0-1.22.5l-.18.14,0,.22c.32,1.87.7,3.7,1.06,5.48.27,1.34.56,2.73.81,4.12a2.94,2.94,0,0,0-.5.1,3,3,0,0,1-.41.08,31,31,0,0,1-.64-3.66c-.39-2.93-.8-6-2.88-7.39l-.34-.23-.2.35a4,4,0,0,0-.48,1.77A6.49,6.49,0,0,0,39,56l-.68.28c.65,3.74,1.35,7.65,2.17,10.93a5.5,5.5,0,0,1-1.17.18l-.09-.76C38.73,63,38.27,59.37,37,56.49l0-.1-.09-.06a3.94,3.94,0,0,0-2.12-.65,1.85,1.85,0,0,0-1.41.52A1.52,1.52,0,0,0,33,57.42l0,.48.46-.16a2,2,0,0,0,.74-.49c.06,0,.1-.09.15-.13A39.35,39.35,0,0,1,36.07,64c.24,1.3.48,2.63.77,3.9l-.32.09-1.73.45c-.34-1.72-.75-4-1-5.59-.07-.41-.13-.82-.19-1.24-.25-1.68-.48-3.26-1.41-4.21l-.11-.11h-.89l.06.43v.1a.8.8,0,0,0,.22.57,28.22,28.22,0,0,1,.95,4.19l.18,1c.07.36.13.73.18,1.1A9.18,9.18,0,0,0,34,68.65c-.56.12-1.12.24-1.71.33a20.09,20.09,0,0,1-.67-4.17c-.32-3.28-.66-6.67-2.43-7.32a2.77,2.77,0,0,0-1-.15c-1.19,0-3.07.51-3.41,1.89a1.42,1.42,0,0,0-.4-.24l-.65-.26.14.68c.23,1.13.46,2.39.7,3.73.46,2.55,1,5.42,1.62,7.83l-1.29.5,0,0-.1-.39c-.16-.62-.36-1.27-.57-1.95-.33-1-.66-2.11-.93-3.29-.15-.71-.27-1.46-.38-2.19A19.26,19.26,0,0,0,22,60l-.1-.27-.28,0a3.35,3.35,0,0,0-3,2.51l-.13.39a3.27,3.27,0,0,0-.28-.37l-.66.28a54.83,54.83,0,0,0,2.32,11.17c-.46.22-.93.42-1.4.62l0-.3c-.28-3.83-.58-7.8-2-10.64l-.06-.13-.15-.05a2,2,0,0,0-2.23.45,2.44,2.44,0,0,0-.52,1.89l0,.26.26.06a.57.57,0,0,0,.18,0,.71.71,0,0,0,.63-.41c.2.78.34,1.6.48,2.4.38,2.2.74,4.28,2.3,5.41a1.52,1.52,0,0,1,0,.23c0,.25,0,.9.68.91h.14l-.1,0c-.85.36-1.74.73-2.56,1.16a26.53,26.53,0,0,1-1.4-5.52A33.44,33.44,0,0,0,13,65.22l-.73.11a36.61,36.61,0,0,0,1.57,9c.16.65.33,1.28.48,1.89-2,1.14-4.64,2.69-5.23,5a4.39,4.39,0,0,0,.69,3.46l.07.09A8.31,8.31,0,0,0,11.76,86c.29,1.25.55,2.57.79,3.84A49.87,49.87,0,0,0,14.28,97l.25.68A9.17,9.17,0,0,0,13,100l0,.11c-.34,2.34.63,4,2.58,4.55.24,1.65,1.42,12.85,3.43,12.85h0l.27,0,.26,0,.05-.26c.14-.83-2.19-12.92-2.41-13.81l0-.14-.12-.08a1.19,1.19,0,0,1-.31-.5c-.06-.13-.12-.26-.19-.39,5.23-7.35,27.47-10.92,36.31-11.18a14.59,14.59,0,0,1,2.09.15,17.27,17.27,0,0,0,1.79.15h.11c.26,0,.51,0,.74,0l.57,0a1.18,1.18,0,0,1,1,.33c.44,1.42.86,2.81,1.26,4.2A19.27,19.27,0,0,0,59.37,94l-.13-.25-.28.07c-.16,0-.25,0-.47-.18a1.9,1.9,0,0,0-1.07-.43l-.57,0,.19.53a68,68,0,0,1,2.69,9.7c.07.36.13.73.19,1.11.25,1.66.51,3.37,1.93,4.24l.19.11c-1-.09-2.13-.14-3.29-.14-.94,0-1.89,0-2.83.09l0-.49a2,2,0,0,0-.57-1.44,3.11,3.11,0,0,1-.5-.82,16.33,16.33,0,0,1-.57-3.2,24.47,24.47,0,0,0-.36-2.47l.06,0c0,.45.11,1.2,1,1.09l.19,0,.09-.16a.3.3,0,0,0,0-.08c.16.39.33.76.5,1.13a9,9,0,0,1,1,3.29l0,.32.31,0a1,1,0,0,1,.53.31,1.17,1.17,0,0,0,.74.37l.18,0a1,1,0,0,0,1.18.84l.54-.06-.25-.48A30.31,30.31,0,0,1,58,99.4a41,41,0,0,0-1.56-6.13l-.06-.16-.16-.06a3.51,3.51,0,0,0-1.28-.25,1.84,1.84,0,0,0-2.08,1.79v.31l.29.06a.56.56,0,0,0-.27.12c0-.08,0-.16,0-.24-.09-.52-.22-1.3-1.06-1.37l-.52,0,.12.5c.51,2.2,1.29,5.52,1.8,8.53.07.46.13,1,.18,1.43.2,1.89.41,3.85,2.12,4.7l.41.2a117.28,117.28,0,0,0-13.9,1.92l-2.25.41c-.1-.45-.21-1-.32-1.47A59.64,59.64,0,0,1,38,101.92a.79.79,0,0,0,.72.09l.12,0,.08-.1a1.84,1.84,0,0,0,.22-.47,1.46,1.46,0,0,0,.83,1.2l.31.12.16-.29a1.34,1.34,0,0,0,.14-.36.68.68,0,0,0,.38,0,21.1,21.1,0,0,1,.6,2.52c.38,1.9.77,3.87,2,5l.74.65-.11-1a.72.72,0,0,0,.82-.2l.13-.16-.07-.2a43.66,43.66,0,0,1-1.85-8.47c-.28-1.87-.58-3.8-1-5.59l0-.19-.18-.07A2.9,2.9,0,0,0,41,94.18c-1.55,0-3.72,1.42-4.64,1.25l-.37-.07-.07.37a.49.49,0,0,1-.44.45l-.42.07.12.41a78.47,78.47,0,0,1,1.95,9c.34,1.94.69,3.93,1.12,5.83q-.45.14-.93.24a1.27,1.27,0,0,0-.47-.93,1.33,1.33,0,0,1-.2-.24c-.36-1.82-.61-3.79-.85-5.71-.28-2.24-.57-4.56-1-6.67l0,0a1,1,0,0,0,.2-1.24,1.46,1.46,0,0,0-1.48-1c-1.7,0-4.29,1.93-5,2.67l-.15.16.05.18L28,98.74l-.08.44a12.44,12.44,0,0,0,.58,5.16c.17.66.34,1.35.47,2,.18.94.34,1.93.49,2.88.22,1.43.45,2.9.78,4.28q-1.11.28-2.16.63l.05,0a2.17,2.17,0,0,1,.75-.57l.35-.14-.14-.35a5.88,5.88,0,0,1-.26-1.69l0-.37,0-.08a.6.6,0,0,0-.53-.34.66.66,0,0,0-.26.06,20,20,0,0,1-.66-4c-.33-3.19-.67-6.49-3-7.05a3.8,3.8,0,0,0-3.08,1,3.82,3.82,0,0,0-.57,1.12c-.2.54-.37,1-.8,1.19l-.3.13.1.32a41.46,41.46,0,0,1,1.19,6.12,38,38,0,0,0,1.4,6.78l-.19.13a1.61,1.61,0,0,1-.47.24v-.1c-.14-.68-.31-1.47-.49-2.32-.49-2.28-1.39-5.78-1.32-8.05,0-.81.06-1.73-.78-2.19l-.6-.33,0,.68c.23,3.79.82,9,2.3,12.71A15.29,15.29,0,0,0,16.13,121a3.38,3.38,0,0,0-.46,3.41,2.12,2.12,0,0,0,2.21,1.06,1.12,1.12,0,0,0,0,.68c1.6,3.77,2.31,8.89,3,13.83.19,1.39.38,2.77.59,4.09.06.37.1.76.14,1.16.17,1.65.37,3.51,1.81,4.4-2.79,0-5.43-.07-8-.14l-.4,0v.4a1,1,0,0,0,.68,1l.12.05s0,0,0,.19l-.11.36.36.11c2.4.74,68.89,0,69.25-.4l.47-.5-.68-.13Zm-61-35.8h0l.16-.21-.05-.22a36.84,36.84,0,0,1-1.31-8.89.69.69,0,0,0,.56-.1.78.78,0,0,0,.33-.59A4,4,0,0,0,24,105a1.89,1.89,0,0,1,.29.27,12.51,12.51,0,0,0,.64,3,10.49,10.49,0,0,1,.49,2.19l-.38-.22.19,1c.23,1.32.47,2.68,1.53,3.32l-1,.35c-.76.28-1.55.56-2.34.82a3.19,3.19,0,0,1-.41-1,.87.87,0,0,0,1-.07Zm6.93-13h0a.61.61,0,0,0,.75.21.85.85,0,0,0,.52-.74c.79.95.87,2.72,1,4.45,0,.65.07,1.33.14,2l0,.27.26.06a.5.5,0,0,0,.17,0c.07.32.14.64.2,1a10,10,0,0,0,.73,2.58l0,.08a.84.84,0,0,0,.82.23,1.41,1.41,0,0,0,.1.31l0,.09c-1.23.21-2.38.47-3.47.74l0-.4a15.29,15.29,0,0,0-.82-4.5c-.62-2.21-1.26-4.49-.49-6.32Zm.36,11h0l.4.16.28.14-.57.14a2.13,2.13,0,0,1-.12-.44Zm1.87-15h0l0,0-.1-.07h-.12a2.92,2.92,0,0,0-1.05.27l-.24.1A2.54,2.54,0,0,1,33,97.47h.19l0,.14Zm-14.14,23h0a7.9,7.9,0,0,0,1.83-1.59c5.71-2.42,12.3-4,19.28-5.61l4.57-1.08a89.2,89.2,0,0,1,14.54-1.83l1.61-.12a17,17,0,0,1,6.17.92q.95.28,2,.54c.35.5.71,1.39.52,1.77,0,0-.11.21-.55.23-.13-.07-.18-.28-.24-.74s-.14-1.08-.67-1.32a.77.77,0,0,0-.43-.15c-.39,0-.55.35-.65.58s-.14.3-.25.28c-5.48-1-13-.58-22.19,1.2-1.66.32-3.32.62-4.94.9a82.85,82.85,0,0,0-13.12,3c-3.72,1.34-6.34,2.73-7.78,4.14a5.67,5.67,0,0,0-.56.65c-.46.63-.74.94-1.31.74a4.41,4.41,0,0,1,2.19-2.53Zm1.77,7.51h0a2.69,2.69,0,0,1,1.41,1.65,34.43,34.43,0,0,1,.93,5.45c.16,1.32.32,2.67.56,4l.07.4A36.52,36.52,0,0,0,26,148l.74,1.57H24.19l0-.26c-.76-6.53-2-13.3-3-19.28l-.33-1.88Zm5.89,19.67h0a52.14,52.14,0,0,0-1.33-7.23,42.39,42.39,0,0,1-1.52-10.44V130l-.1-.11a3.11,3.11,0,0,1-.4-1.49,3.24,3.24,0,0,0-.67-2l-.18-.17-.22.1a2.92,2.92,0,0,1-1.07.17,3.59,3.59,0,0,0-.91.11c0-.14-.06-.28-.08-.42a10.38,10.38,0,0,0-.8-2.77c3.15-3.64,9.24-5.1,15.23-6.28a14.24,14.24,0,0,0,1.89-.55,14.55,14.55,0,0,1,1.71-.5c5.86-1.22,14.53-2.84,22.21-2.84h.22a16.22,16.22,0,0,1,5.2.7,2.86,2.86,0,0,1,.38.54,2.12,2.12,0,0,0,1.12,1.08,1.54,1.54,0,0,1-.07.27,1.5,1.5,0,0,0-.1.66v.08l.42,1.43a.67.67,0,0,0-.37-.11,1,1,0,0,0-.53.17,4.25,4.25,0,0,0-3.17-1.41,4.73,4.73,0,0,0-4.77,4.46,5.76,5.76,0,0,0,.48,1.92,10.69,10.69,0,0,1,.43,1.32c.25,1,.42,2.23.58,3.28l0,.14a138.41,138.41,0,0,0,3.31,17.3c.09.33.15.67.21,1a4.19,4.19,0,0,0,.93,2.31l.29.28.26-.3c.6-.68.22-1.5-.09-2.16s-.47-1-.3-1.38l.07-.15-.06-.15c-1.57-3.87-2.27-8.73-3-13.43-.35-2.4-.71-4.85-1.19-7.19L61,124a2.58,2.58,0,0,1,.88,1.16A2.54,2.54,0,0,0,64,126.93l.41,0,0-.41a11.47,11.47,0,0,1,.24-2,9.27,9.27,0,0,0,.23-2.15,106.64,106.64,0,0,1,3.09,12.23,95,95,0,0,0,3.67,13.82l.4,1,.29-1c.35,0,.58-.11.63-.39l0-.13-.06-.12a6.51,6.51,0,0,1-.39-.94h0l.21,0,.09-.07a.47.47,0,0,0,.1-.1,3.1,3.1,0,0,0,.41,1.09l.6.79.07-1a14.12,14.12,0,0,0-1-5.29c-.18-.58-.37-1.16-.53-1.74-1.62-5.93-2.82-12.71-4-19.27l-.21-1.22c1.12,3.84,2.2,7.75,3.24,11.56,1.68,6.1,3.41,12.39,5.33,18.4-2.2,0-4.37-.18-6.47-.31s-3.87-.24-5.76-.28c-3-.07-6.14-.11-9.52-.11-4.72,0-9.38.07-13.88.13s-9.47.14-14.34.13l-.16-1.76Zm37.6-26h0c-.65.26-.85,1.4-1.06,2.61,0,.13,0,.25-.07.37-.23-.31-.43-.66-.64-1s-.26-.44-.39-.64a3.23,3.23,0,0,1,.67-1.13,4.81,4.81,0,0,0,.61-.89l.25-.48-.54-.06c-1.37-.15-2.13,1.56-2.36,3v.07c-.1-.45-.18-.9-.28-1.34l.12,0,.39.09.07-.39c0-.11,0-.23,0-.35a6.72,6.72,0,0,1,.16-.76l.61-.22a3.18,3.18,0,0,1,2.27-.26c.15.4.3.8.44,1.21l-.29.12Zm-56-61h0a43.79,43.79,0,0,1,9.51-5.73l0,0v0c1.26-.58,2.6-1.15,4-1.7l.37-.14.28.59c-5.43,1.77-10.66,4.42-14,8.41l-.05.06,0,.08q0,.18-.09.39c-.22.87-.58,2.34-1.34,2.34-.47,0-.54-.2-.57-.29-.32-.88,1.12-3.39,1.85-4ZM45.86,49.46a9.15,9.15,0,0,0,.47.94A4.23,4.23,0,0,1,47,52.46a18.55,18.55,0,0,0-10.87-1.69,76.49,76.49,0,0,0-13.55,3l-.13-.66c5.26-2,17.27-5,23.41-3.69Zm-8.42-2h0l-.1.05a10.79,10.79,0,0,1-.69-3.1,2.7,2.7,0,0,1,0-.28c.32,1.06.6,2.17.83,3.33ZM8.63,32.38h0a2,2,0,0,0,.94-1c.22-.41.36-.66.68-.73a18.3,18.3,0,0,1,1.66,5.07,28.2,28.2,0,0,0,.72,2.77l0,.09-.53.28a21.23,21.23,0,0,1-1.91,1,24.72,24.72,0,0,1-.63-3A16.31,16.31,0,0,0,8.5,32.43l.13,0ZM5,15.83H5L5,16a1.4,1.4,0,0,0-.3.14c-.18-.71.27-1.53.93-2.59L6,13c1.7-2.86,7.11-5,9.67-6l.09,0h0l.06.06a.86.86,0,0,0,.43.26l.18,0c-5,1.67-8.78,5.77-10.21,7.47a.94.94,0,0,0-.37-.41l-.14-.07-.15.05a1,1,0,0,0-.59.45,1.23,1.23,0,0,0,.06,1ZM25.27,2.53h0a2.94,2.94,0,0,1,1.88,1.41,4.62,4.62,0,0,1-1-.17c-.19,0-.38-.09-.59-.12a2.34,2.34,0,0,0-.19-.88,2.25,2.25,0,0,1-.08-.24ZM8,6.22H8a19.11,19.11,0,0,1,2.72-1.48,4.87,4.87,0,0,1,.43,1.52c.05.28.1.57.16.84-.29.18-.6.34-.9.51A12,12,0,0,0,8.7,8.68,3.77,3.77,0,0,1,8.31,7.4,7.56,7.56,0,0,0,8,6.22ZM14,6.14h0a5.55,5.55,0,0,1-1.08.39,7.52,7.52,0,0,0-.42-1.62c-.08-.27-.17-.52-.24-.79a7.27,7.27,0,0,1,1.34-.66l.49-.2a4.12,4.12,0,0,1,.34,1.26,5.9,5.9,0,0,0,.32,1.32c-.26.09-.51.2-.75.3ZM6.69,7.54h0l.09.56a3.55,3.55,0,0,0,.5,1.56l-.64.55a6.75,6.75,0,0,1-1.08.87A3.69,3.69,0,0,1,6.69,7.54ZM22.88,3.71h0a9.82,9.82,0,0,0-1.5.11c-.06-.24-.14-.47-.21-.69A6.26,6.26,0,0,1,20.88,2a4.21,4.21,0,0,1,2,0l.6.09a5.29,5.29,0,0,0,.42,1.59,5.91,5.91,0,0,1-1,.06Zm-4.38.7h0c-.64.26-1.3.53-2,.75a8.74,8.74,0,0,1-.29-2.26l.46-.15a7.94,7.94,0,0,1,2.58-.51c0,.24.06.48.08.72s.07.72.12,1.07c-.32.13-.63.26-1,.38ZM16.55,7.25h0c1.23-1.2,5.28-1.71,8.16-1.46A9.71,9.71,0,0,1,28.6,7.11,5.71,5.71,0,0,1,29,8.35c-3.12-2.91-6.87-2.22-10.81-1.44a16.82,16.82,0,0,0-1.76.46l.14-.12Zm-5.3,4.54h0c6-4.06,9.25-2.19,14.27-2.19a1.87,1.87,0,0,0,.59.48l.2.11c.11.47.25.93.4,1.37-.46,0-.8-.22-1.26-.89l-.14-.22-.25.06a4.43,4.43,0,0,0-2.29,1.16l-.13.13,0,.19c0,.27.09.58.14.9.25,1.75.6,4.15,1.58,5.42l.14.17c-1,.11-2,.23-2.86.37l-.06-.51a23,23,0,0,0-.79-3.44A27.31,27.31,0,0,1,20,11.27l0-.14-.12-.1a5.82,5.82,0,0,0-1.42-.74,8.84,8.84,0,0,1-1-.48l-.14-.1-.17.06C13.61,11,14.86,14.84,15.86,18c.24.75.47,1.46.62,2.08a4.28,4.28,0,0,1-1.43.59,8.54,8.54,0,0,0-.82.25,11,11,0,0,1-.39-2.2c-.17-1.63-.35-3.31-1.65-3.67a3.51,3.51,0,0,0-2.29.52C8.2,16.9,9.27,20.1,9.9,22c.07.19.13.37.18.53l0,.1.07.06a1,1,0,0,0,.15.11,8.21,8.21,0,0,1-1.54.77,14.88,14.88,0,0,0-.65-2.32c-.12-.34-.24-.69-.35-1s-.26-.78-.41-1.17a6.74,6.74,0,0,1-.62-2.45c.08-1.27,2.38-3.39,4.49-4.81Zm16.68,3h0A21.38,21.38,0,0,1,29,18.3h-.3c-.2-.79-.38-1.62-.56-2.43l-.24-1.07Zm-3.36,0h0a9.88,9.88,0,0,1-.55-2.4,1.93,1.93,0,0,0,.43-.23,1.27,1.27,0,0,1,.23-.12A61.62,61.62,0,0,0,26,18.34l-1,.09,0-.29a6.79,6.79,0,0,0-.49-3.35Zm-7,.53h0a8.37,8.37,0,0,1-.73-3c0-.16.13-.7.36-.7.49,0,1.48,1.19,1.76,2a12.23,12.23,0,0,1,.48,1.94c.3,1.52.58,3,1.74,3.24l.48.12c-1.16.18-2.23.4-3.23.65.23-1.12-.32-2.68-.86-4.19ZM13,21.46h0l-.41.18A23,23,0,0,0,12,18.86c-.12-.53-.26-1.08-.36-1.62a6.57,6.57,0,0,1,1,2.87c.09.45.18.91.3,1.35ZM27.4,26.78h0v.1a36.45,36.45,0,0,0,1.25,6.34l-.11.06h0a16.74,16.74,0,0,1-.72-3.23,19.24,19.24,0,0,0-.69-3.19.62.62,0,0,0,.27-.09Zm5-3.53h0a5.92,5.92,0,0,1,1.62.53,11.57,11.57,0,0,0,1.2.47c1.07,1.47,1.51,3.68,1.93,5.81.19,1,.39,2,.65,2.95h-.61a3.86,3.86,0,0,1-.84-.07,17.43,17.43,0,0,1-.55-3.08c-.3-2.58-.61-5.25-3.11-5.84L32.54,24l-.28.24a3.88,3.88,0,0,1-.57.45l-.23.15.07.26c.21.9.37,1.88.53,2.82a23.9,23.9,0,0,0,1.15,4.85,4.32,4.32,0,0,0-.76.12L32,33a.63.63,0,0,0,.11-.56l0-.08a13.39,13.39,0,0,1-1-3.85A11.77,11.77,0,0,0,29.81,24l-.11-.17h-.2a4.1,4.1,0,0,0-2.57.8,6.29,6.29,0,0,1-.75.43l-.13.06a1.85,1.85,0,0,0-.27-.19l-.39-.24-.16.44a1.63,1.63,0,0,0,.4,1.57,3.94,3.94,0,0,1,.36.63,15.53,15.53,0,0,1,.65,3.14,18.9,18.9,0,0,0,.58,3c-.29.1-.64.21-.95.29a.49.49,0,0,0,0-.12l0-.1a23.91,23.91,0,0,1-1.18-4c-.07-.32-.15-.7-.23-1.09-.36-1.76-.76-3.76-1.77-4.26l-.21-.1-.18.15c-.27.2-.56.39-.86.59a7.13,7.13,0,0,0-1.27.93l-.13.12,0,.18a.59.59,0,0,0,.58.62,1.3,1.3,0,0,0,.4-.09l.12,0c.27.86.51,1.79.73,2.69a20.64,20.64,0,0,0,1.66,4.92l0,0c-.59.19-1.18.39-1.81.54-.25-1.1-.47-2.28-.69-3.43a48.71,48.71,0,0,0-1.34-5.83l-.44-1.76a35.45,35.45,0,0,1,12.79-.46Zm6.85,1.49h0a5.91,5.91,0,0,0-.46-.69,4.86,4.86,0,0,1-.59-1l-.07-.18L38,22.82a.64.64,0,0,0-.81.33C36,22,34.89,21.7,32.83,21.46a38.79,38.79,0,0,0-4.6-.27c-9.56,0-18.46,3.34-23.47,8.57a4,4,0,0,0,.61-1.25,59.31,59.31,0,0,1,11.74-6.76l.05.1a.78.78,0,0,0,.72.54,1.18,1.18,0,0,0,.31-.05l.11-.05a.59.59,0,0,0,.28-.43.8.8,0,0,0-.27-.61l-.06-.06.63-.17c4.8-1.34,17.14-1.83,20.6,2a4.25,4.25,0,0,1-.19,1.71Zm-19.77-1-.15,1.84a18.6,18.6,0,0,0,.81,5.69,32.69,32.69,0,0,1,.8,3.91,3.11,3.11,0,0,0-.8.29l-.21.1v-.07a15.69,15.69,0,0,0-1.22-5.07c-.11-.28-.21-.57-.31-.87-.47-1.36-1-2.9-2.27-3.53l-.37-.19-.15.38a3.4,3.4,0,0,1-.45.7,2.1,2.1,0,0,0-.61,1.8l.06.2.2.05a.75.75,0,0,0,1-.5,9.91,9.91,0,0,1,.35,3v.18l.13.12c1.06.9,1.37,2.66,1.63,4.42l-.67.29c-.31.14-.6.27-.91.38-.14-.49-.3-1-.47-1.56a47.27,47.27,0,0,1-1.36-5.09,2.48,2.48,0,0,1,0-.61,1.66,1.66,0,0,0-.22-1.27,1.2,1.2,0,0,0-.88-.37l-.42,0,0,.42a20.46,20.46,0,0,0,1,4.9,26.74,26.74,0,0,1,1,4.26,15.07,15.07,0,0,0-1.78.74c-.06-1.58-.45-6.32-2.63-8.82l-.1-.11h-.15a2,2,0,0,0-1.6.68,2.78,2.78,0,0,0-.74,1.77L8,31.44l-.29.76a4.13,4.13,0,0,0,.21,2.52c.08.28.16.57.22.85.19.83.35,1.68.51,2.51s.32,1.67.49,2.38c-.28.25-.7.58-1.17.95s-.8.62-1.22,1a39.84,39.84,0,0,1-2.35-9.79c3.93-4.85,9.14-7.5,15.14-8.88ZM30.41,75.88h0a64.85,64.85,0,0,1,16.26-3,8.6,8.6,0,0,1,2.08.21,2.31,2.31,0,0,1,.7.39,1.75,1.75,0,0,0,1,.44,1.06,1.06,0,0,0,.73-.31l.2-.17-.09-.24a2.56,2.56,0,0,0-1.79-1.33,3.39,3.39,0,0,1-1-.48l-.11-.09h-.14c-10.52.31-17.91,1.76-25.49,5l-.63.27c-3.73,1.57-7.58,3.2-9.67,6.22a2.65,2.65,0,0,0-.5.3l-.11.08.27-.43-.83.13-.26,0c-.25,0-.26,0-.33-.35l0-.15c-.19-.75.27-2.43,5.56-5.22l.1,0c7.59-4,22.06-7.63,31.46-8.18.51,0,1-.06,1.53-.06,1.91,0,2.68.49,2.77,1.78a2.29,2.29,0,0,1-.25.87,5.14,5.14,0,0,0-.35,1.15,3.08,3.08,0,0,0,0,.88c.05.37.07.54-.09.72l-.38.43.54.18.06,0a.51.51,0,0,0-.35.17l0,.06a1.37,1.37,0,0,0-.81-.52l-.53-.13L50,75c.22,1.58.59,3.25,1,5s.81,3.62,1.06,5.43l-.15,0a2.47,2.47,0,0,1-.63.08c-.28-1.13-.54-2.3-.8-3.43a59.73,59.73,0,0,0-2.14-7.9l-.11-.28-.3,0a3.25,3.25,0,0,0-.47.1l-.3-.44.05.51a6,6,0,0,0-1.44.78l-.66.43.38.33c.11.09.07.32,0,.66a.43.43,0,0,0,0,0,5.85,5.85,0,0,0-.64-1.22l-.67.3c.77,3.59,1.37,7.29,1.9,10.77a2.62,2.62,0,0,1-.78.09c-.57-2-.92-4-1.29-6.16-.26-1.52-.54-3.09-.9-4.71L43,75.14l-.33,0-.74,0A9.37,9.37,0,0,0,38,76l-.19.1v.22a1.39,1.39,0,0,0,.3.92l-.28-.08c-.08,0-.13-.13-.21-.36a1.06,1.06,0,0,0-.91-.85l-.47,0,.07.47a32.86,32.86,0,0,0,1.08,4.2,28.25,28.25,0,0,1,1.45,6.81,1.91,1.91,0,0,0-.46.15,1.43,1.43,0,0,1-.54.13,22.8,22.8,0,0,1-1.06-4.81c-.36-2.36-.72-4.79-1.89-6.45l-.23-.33-.31.25a.72.72,0,0,0-.29.73A4.11,4.11,0,0,0,32,76.67c-.74.12-1.87.74-2,1.69v.06l0,.07c.19.75,1.06.75,1.53.75h.34a2.28,2.28,0,0,1,.61.05,27.37,27.37,0,0,1,1.3,4.84,33.31,33.31,0,0,0,1.06,4.27,14.73,14.73,0,0,1-2.58.67,33.23,33.23,0,0,1-1-4.47,20.07,20.07,0,0,0-1.92-6.55l-.87-1.46,1.92-.71Zm7.86,1.48h0a2.57,2.57,0,0,0,1.58.38h.36a21.24,21.24,0,0,0,1,5.44,25.4,25.4,0,0,1,.8,3.67,3.92,3.92,0,0,0-1.25.18c-.19,0-.39.09-.59.12-.11-.52-.21-1-.31-1.56a47,47,0,0,0-2-7.67.84.84,0,0,0,.22-.21l.21-.34Zm8.15.51h.16l.12-.11a.65.65,0,0,0,.15-.2c.41,1.45.72,3,1,4.56.25,1.29.52,2.62.84,3.87a2.12,2.12,0,0,1-1,.11H47.3a27.1,27.1,0,0,1-.86-4.68c-.17-1.3-.33-2.57-.59-3.69a1.49,1.49,0,0,0,.57.14Zm7.33,2.6h0A30.05,30.05,0,0,0,52,75.08l-.09-.17a1,1,0,0,0,.53-.18c.22.76.45,1.52.68,2.27a78.18,78.18,0,0,1,2.23,8.51l0,.09.05.07h-.06a29.12,29.12,0,0,1-1.64-5.21Zm-36.29,8.9h0c-.22-1.42-.43-2.76-.59-4h.86l-.19-.51a.86.86,0,0,1,0-.72,1.46,1.46,0,0,1,.64-.58,70.83,70.83,0,0,0,2.06,9.63l0,.18.17.07a3,3,0,0,0,.51.17c-.94.4-1.86.82-2.74,1.29-.23-1.82-.52-3.7-.8-5.53Zm-3.65-3.88h0v-.08l0-.08a.66.66,0,0,0-.52-.42c2.54-2.9,6.41-4.62,10.16-6.28,1-.45,2-.92,3-1.38.62-.17,1.24-.38,1.86-.6l.37,1.68c.26,1.15.53,2.43.82,3.77.53,2.51,1.08,5.09,1.65,7.43l-.43.17a4.45,4.45,0,0,1-.51.19.88.88,0,0,0-.09-.44c-.94-1.54-1.24-3.85-1.53-6.08A23.86,23.86,0,0,0,27.75,79l0-.1-.08-.06a4.05,4.05,0,0,0-2.14-1l-.19,0-.13.15a2.68,2.68,0,0,1-1,.51,2.27,2.27,0,0,0-1.64,1.27l-.11.34.33.13a1.52,1.52,0,0,0,.59.12,2.58,2.58,0,0,0,1.39-.55,3.14,3.14,0,0,1,.46-.28,24.49,24.49,0,0,0,1.23,7,42.65,42.65,0,0,1,1,4.27c-.84.45-1.74.87-2.65,1.26l0-.1c-.71-3-1.26-6.25-1.8-9.38l-.33-1.94-.23-.06s0,0-.08-.06a.57.57,0,0,0-.42-.22.59.59,0,0,0-.4.17.62.62,0,0,0-.31.73c.45,1.48.91,3.44,1.34,5.67.09.48.14,1,.19,1.63.14,1.61.29,3.27,1.43,3.83l-1.38.56-.52.21a3.15,3.15,0,0,0-.08-.67,1.28,1.28,0,0,0,.51,0l.5-.11-.26-.44c-1-1.65-1.16-4.18-1.35-6.63-.1-1.26-.2-2.56-.4-3.75l-.07-.39-.5.11c-1.82.4-3.7.8-4.54,2.32a.7.7,0,0,0-.61-.09l-.26.07,0,.26a16.16,16.16,0,0,0,.57,4.35,24.61,24.61,0,0,1,.63,3.81c0,.36,0,.71,0,1.06,0,1,0,2.11.8,2.55A12.88,12.88,0,0,0,15,97.16v-.31a26.69,26.69,0,0,0-.66-5.16,19.74,19.74,0,0,1-.54-6.2ZM15,101.81h0a5.82,5.82,0,0,1,1.58-2.75c5.54-5.78,27.63-11.7,38.55-11.73h1.5a5.47,5.47,0,0,0,1.3,1.11,3.78,3.78,0,0,1,1.32,1.21c-.26-.13-.57-.32-.76-.44l-.61-.34-.11,0a17.56,17.56,0,0,0-2.53-.16C43,88.66,21.84,93,15,101.81ZM6.26,47.05h0a.53.53,0,0,0-.4-.23c.2-2.18,5.62-6.43,14.23-9.42C28,34.67,39,32.93,41.33,36a2,2,0,0,1,.32,1.63,32.87,32.87,0,0,0-6.36-.83,32.48,32.48,0,0,0-18.58,3.44l-.54.29c-2.18,1.15-9.6,4.61-9.64,7.17H6.3c0-.06,0-.11,0-.17a.55.55,0,0,0,0-.49Zm22.09-5.8h0a3.46,3.46,0,0,1,1,0l.4,0c1.19,1.65,1.45,4.37,1.71,7l0,.34-.3.13a5.3,5.3,0,0,1-1.27.44c-.27-1-.54-2.28-.81-3.85-.06-.36-.11-.73-.16-1.1a8,8,0,0,0-.75-2.94l.15,0Zm-5.51,2.09h0a1,1,0,0,0,.62-.28,51.36,51.36,0,0,0,1.28,6q.21.78.39,1.56a5.12,5.12,0,0,0-.59.21,4.28,4.28,0,0,1-.88.27c-.11-.77-.18-1.6-.26-2.47a26.62,26.62,0,0,0-.84-5.39.64.64,0,0,0,.28.06Zm-1.63-3.09h0a30.58,30.58,0,0,1,10.47-1.92,26.57,26.57,0,0,1,6,.67.66.66,0,0,0,.82-.37,8.62,8.62,0,0,0,1,.29,4.45,4.45,0,0,1,1.8.75,10.07,10.07,0,0,0,.92,4.63A14.31,14.31,0,0,1,43,47.11h-1a29.47,29.47,0,0,1-.94-3.46c-.07-.28-.11-.6-.16-.93-.17-1.2-.37-2.56-1.53-2.66L38.9,40l.13.51c.17.72.39,1.57.63,2.48.35,1.36.74,2.89,1.06,4.26h-.39a15.17,15.17,0,0,0-1.67-6.13c-.18-.28-1.12-1.67-2.23-1.67a1.44,1.44,0,0,0-1.17.65l-.59.34a16,16,0,0,0,.55,3.21,19.16,19.16,0,0,1,.64,3.77,5.92,5.92,0,0,0-1.32.33c-.37-1.22-.65-2.57-.91-3.87-.24-1.14-.47-2.31-.78-3.41l0-.1-.08-.07c-.17-.16-4.92-1.85-4.84.55l-.59.34A35.55,35.55,0,0,0,28.25,47c.19.87.36,1.69.51,2.49l-.33.13a2.32,2.32,0,0,1-.79.22A14.28,14.28,0,0,1,27,46.94c-.35-2.31-.74-4.93-2.88-5.23a5.06,5.06,0,0,0-.69-.06,1.26,1.26,0,0,0-1,.34.94.94,0,0,0-.23.43c-.07-.17-.15-.34-.22-.5l-.82-1.67ZM21.16,52h0a3.87,3.87,0,0,0,0-.59s0,0,0-.08l.08,0c.05,0,.12,0,.12,0l.23.5-.42.14Zm-9,3.92h0a17.62,17.62,0,0,1-.7-3.83A22.32,22.32,0,0,0,11,49a.51.51,0,0,1,0-.13s0-.08,0-.13l.36.34.13-.66a3.36,3.36,0,0,1,1-1.82c1.31,1.43,1.49,4.15,1.67,6.78,0,.33.05.66.07,1l0,.46c-.7.35-1.38.71-2,1.08Zm13,3.76h0a2,2,0,0,0,1.23-.44A1.59,1.59,0,0,1,27,59c.11.09.23.16.34.24a1.36,1.36,0,0,1,.47.4c.19.93.38,2,.58,3.08.41,2.25.87,4.78,1.42,6.89l-.64.22a11.35,11.35,0,0,1-1.8.51A46.8,46.8,0,0,1,26,64c-.15-.84-.29-1.65-.44-2.38a5,5,0,0,1-.08-.59,4.32,4.32,0,0,0-.3-1.36ZM24.4,71.57h.26l-1.28.5v0L23.5,72a.89.89,0,0,0,.47-.49,1.1,1.1,0,0,0,.43.08Zm-5.48-8.86h0a1,1,0,0,0,1.21-.63h0a49.89,49.89,0,0,1,1.06,5.49c.26,1.68.53,3.42.93,5l-.46.21a2.1,2.1,0,0,1-.64.26,32.19,32.19,0,0,1-1.67-6.28c-.08-.42-.12-.88-.17-1.33a6.3,6.3,0,0,0-.68-2.81l.41.08Zm43.37,44.9h0c-.11-.25-.15-.36-.09-.47a1,1,0,0,1,.14.32c.1.33.27,1,1.11.86l.44-.06-.13-.41a4.73,4.73,0,0,1,.23.45,2.5,2.5,0,0,0,.53.86c-.73-.12-1.49-.24-2.29-.31l.15-.27a1,1,0,0,0-.09-1ZM27,145.48a2.52,2.52,0,0,0,.72,2.22l.64.51,0-.82a.31.31,0,0,1,0-.1,3.25,3.25,0,0,0,.38.65l.62.81.06-1a23.74,23.74,0,0,0-.8-5.57c-.32-1.46-.65-3-.86-4.55-.18-1.37-.32-2.82-.47-4.23l-.13-1.31q0-.47-.12-1a5.36,5.36,0,0,0,1,1l.09.07h.29A1.51,1.51,0,0,0,30,130.88l.38,1.46c.4,1.7.89,3.44,1.36,5.13a82.38,82.38,0,0,1,2.08,8.65c0,.23,0,.49.07.76a3,3,0,0,0,.81,2.31l.33.29.23-.37a2.52,2.52,0,0,0,.22-1.25c0-.34,0-.8.14-.9l.18-.13,0-.22c-.63-4.26-1.63-8.7-2.61-13l-.39-1.74c-.17-.74-.32-1.5-.47-2.24a19.82,19.82,0,0,0-1.52-5.36,2.93,2.93,0,0,0-2.5-1.66,3.6,3.6,0,0,0-3,2.08,3.8,3.8,0,0,0-.34.94l-.24,0-.05,0a.76.76,0,0,0-.38-.25l-.32-.08-.13.3a.7.7,0,0,1-.18.3l-.16.12,0,.21a75.8,75.8,0,0,0,1.95,10.45A82.15,82.15,0,0,1,27,144.76c0,.21,0,.45,0,.72Zm1.65-14.9h0l-.14.07h0a1.19,1.19,0,0,1-.3-1.37,4.48,4.48,0,0,0,.19.44,2.41,2.41,0,0,1,.27.85Zm0-2.44h-.06c.07-.2.13-.39.18-.58L29,127l-.61.14c-1,.22-1.22,1.19-1.4,2l-.15.59c-.5-3.07-.63-5.14,1.27-5.7a3.76,3.76,0,0,1,.6.65,4,4,0,0,0,.61.69,1.62,1.62,0,0,0-.18,1v.25a10.76,10.76,0,0,0,.26,2,1.42,1.42,0,0,0-.7-.44Zm-2.49,6.59h0c-.35-1.64-.68-3.29-.91-4.92.34,1.57.64,3.24.91,4.92Zm-1.09-6.3h0c0-.26-.05-.51-.08-.77a3.26,3.26,0,0,0,.26.53.79.79,0,0,0-.18.24Zm26.56-5.37h0l0,0,.57.09a4.78,4.78,0,0,1,1,.2,18.66,18.66,0,0,1-.55,2c-.09.27-.18.54-.26.82a9.44,9.44,0,0,1-.61-.75,11.75,11.75,0,0,0-.87-1,8.68,8.68,0,0,1,.73-1.3Zm-4.44,1.3h0c0-.15,0-.3-.08-.45,0,.14.06.29.08.45Z"/></g></g></g></svg>