<svg xmlns="http://www.w3.org/2000/svg" viewBox="0 0 80.5 72.27"><defs><style>.cls-1{fill:#7c4821;}</style></defs><g id="圖層_2" data-name="圖層 2"><g id="event"><g id="deco_vm"><path class="cls-1" d="M44.75,61.08a3,3,0,0,1-.16.31.75.75,0,0,1-.79.42,5,5,0,0,0-.55,0c.12-.42.47-.69.71-1.12a5.49,5.49,0,0,0-1.44.58c-.4.23-.43.17-.66-.06s-.42-.34-.66-.53c.36-.4.86-.48,1.24-.8-.56.09-1.12.18-1.68.29-.25,0-.5.14-.75.18-.41.07-.6-.17-.56-.58A.81.81,0,0,1,40,59c.37-.15.71-.34,1.12-.54l-.91-.6a2.37,2.37,0,0,1,.35-.2,2.32,2.32,0,0,1,1.17.06l1.47.39a4,4,0,0,0-1.25-1c-.46-.19-.91-.41-1.38-.6-.17-.07-.24-.18-.17-.35a2.69,2.69,0,0,1,.28-.53.53.53,0,0,1,.76-.14l2,1.3a5.08,5.08,0,0,0,.59.4,13.51,13.51,0,0,0-1.8-2.7c.31-.62.92-.78,1.36-1.22l.73.63a1,1,0,0,0-.14-.73c-.07-.17-.18-.37,0-.5a2,2,0,0,1,.7-.26c.08,0,.23.19.28.31.27.6.52,1.2.8,1.87,0-.29-.09-.5-.12-.73-.06-.52-.13-1-.16-1.58s.07-.63.61-.82c.3.26.33.65.49,1,.06-.11.12-.19.17-.29a.37.37,0,0,1,.46-.19.3.3,0,0,1,.26.32c0,.39.08.78.1,1.17a14.36,14.36,0,0,0,.12,1.59c.19-.67.36-1.34.57-2a4.93,4.93,0,0,1,.37-.77.35.35,0,0,1,.44-.13,2.5,2.5,0,0,1,.88.47.4.4,0,0,1,.14.47c-.26.81-.49,1.63-.74,2.45a1.34,1.34,0,0,0-.07.51c.29-.31.57-.62.87-.92s.34-.34.53-.5a.24.24,0,0,1,.39.06c.16.35.5.67.24,1.15.13,0,.22-.08.3-.06s.25.06.29.13c.22.37.4.75.61,1.15l-1.56.78.48.4-.44.14-.41.07c.3.24.82.19.75.72-.18.16-.39.1-.6.08a4.47,4.47,0,0,0-2,.23,1,1,0,0,0-.74,1A12,12,0,0,1,47.09,65,6.24,6.24,0,0,0,46.52,68c.06.84-.1,1-1,1l-.11,0a.81.81,0,0,1-.1-.71,8.54,8.54,0,0,0,.15-2.14,1.51,1.51,0,0,0-.24-.86l0,0a13.26,13.26,0,0,1-.52-1.84,10.1,10.1,0,0,1,0-1.82,3.59,3.59,0,0,1,.05-.46Zm1.94-.73a1.5,1.5,0,0,1,0-.84,2.61,2.61,0,0,0,0-.79c0-.06-.13-.15-.2-.15s-.18.1-.18.16a6.12,6.12,0,0,0,0,1.21c0,.14.24.27.38.4l.27.22.16-.47c.56-.08.57-.08.73-.65-.43,0-.08-.32-.22-.47s-.4.09-.47.3-.16.52-.26.78A1.54,1.54,0,0,1,46.69,60.35Zm-1.52.24a4.9,4.9,0,0,0-.2,3,4.83,4.83,0,0,0,.65,1.79.4.4,0,0,1,.06.22,7.24,7.24,0,0,1,.08,1.13c0,.52-.1,1-.15,1.54a3.69,3.69,0,0,0,0,.47c.62,0,.78-.1.71-.58a5.19,5.19,0,0,1,.45-2.89,17.09,17.09,0,0,0,1.07-3.62A4.7,4.7,0,0,0,48,60.2l-.67.14-.14.49-.45-.09c0,.17,0,.31,0,.44a19.43,19.43,0,0,1-.17,3.05q0,.31-.12.63a3.52,3.52,0,0,1-.18.4c-.37-.06-.43-.3-.47-.57a8.89,8.89,0,0,1,.28-4,1.58,1.58,0,0,0,.07-.53c0-.3-.09-.6-.13-.9a1.39,1.39,0,0,0-.2-.72,2,2,0,0,1-.22.1l-.22,0c0,.65.5,1.13.55,1.79Zm-5.43-.54A1.66,1.66,0,0,0,40.6,60a10.94,10.94,0,0,1,1.88-.28,6,6,0,0,0,1.89-.41,4.71,4.71,0,0,0-3.5-1.36c.61.59.57.54,1.22.5a.93.93,0,0,1,.72.14c-.12.19-.28.1-.42.11a4.65,4.65,0,0,0-2.28.52A.74.74,0,0,0,39.74,60.05ZM45,56.7a6.43,6.43,0,0,0-.78-2.37,3,3,0,0,0-.44-.57.28.28,0,0,0-.4-.08c-.24.17-.49.32-.72.49s-.25.33,0,.61.53.7.79,1l.53.72C44.4,56.32,44.4,56.32,45,56.7Zm3.14-1.92c.53.06.69.26.62.72a2.84,2.84,0,0,1-.16.57c0,.14-.12.27-.2.45l.56-.07.94-3c.18-.55.07-.77-.47-1s-.57-.13-.72.31C48.55,53.45,48.38,54.1,48.18,54.78Zm-1.92.5.1,0a4.19,4.19,0,0,1,.24-.42c.18-.27.32-.28.56-.08s.2.22.32.34a7.13,7.13,0,0,0-.16-2.85c-.27,0-.3.26-.32.46s0,.44-.08.71c-.13-.08-.22-.11-.23-.16a3,3,0,0,1-.18-.65,1.57,1.57,0,0,0-.3-.87.4.4,0,0,0-.37.45A19.46,19.46,0,0,0,46.26,55.28Zm1.21,3.14-.12-.06a5,5,0,0,1,.2-.54c.15-.31.33-.61.49-.92s.36-.71.51-1.07a1.2,1.2,0,0,0,.07-.53.31.31,0,0,0-.17-.24c-.06,0-.18.07-.25.13a.51.51,0,0,0-.15.28,4.48,4.48,0,0,1-.57,1.26c-.18.37-.32.76-.5,1.13A1,1,0,0,0,47.05,59c.23-.35.55-.32.92-.16.29-.44.58-.84.82-1.28a.71.71,0,0,0-.08-.89C48.2,57.19,48,57.9,47.47,58.42ZM52.31,57c-.11-.26-.2-.5-.3-.73a.29.29,0,0,0-.42-.15,9.1,9.1,0,0,0-1.78,1.08c.41.27.46.68.6,1h.19l.21,0c0-.37,0-.42.31-.57S51.87,57.22,52.31,57ZM44.38,58.1l.06-.06a1.83,1.83,0,0,0-.21-.26,9.37,9.37,0,0,0-.89-.78c-.64-.44-1.29-.84-2-1.26a.39.39,0,0,0-.56.09c-.09.11-.15.24-.27.42.5.24,1,.42,1.39.66s.85.55,1.28.83l.37-.28Zm1.72.5a10.92,10.92,0,0,1,.13-1.18A2.06,2.06,0,0,0,46,55.94a.8.8,0,0,0-.6-.44.63.63,0,0,0-.16.75,1.6,1.6,0,0,1,.11.48c0,.28,0,.58.07.86a1.74,1.74,0,0,0,.24.62A2.29,2.29,0,0,0,46.1,58.6Zm-.22-3.11a8.61,8.61,0,0,0-.58-1.92,5,5,0,0,0-.36-.73c-.11-.18-.27-.19-.47-.08s-.17.22-.12.38c.1.32.17.64.26,1,.14.48.28.95.45,1.51C45.3,55.23,45.56,55.32,45.88,55.49Zm.46,2.88c.14-.1.23-.14.26-.2.27-.58.54-1.16.77-1.75a1.52,1.52,0,0,0,0-1.11.58.58,0,0,0-.48-.42,1.38,1.38,0,0,0-.32,1A9.53,9.53,0,0,1,46.35,58,1.3,1.3,0,0,0,46.34,58.37Zm2.55-.59.12.07.33-.45a2.39,2.39,0,0,1,.28-.35c.28-.26.56-.51.85-.75l.89-.77c-.13-.26-.13-.53-.43-.67l-1.53,1.6-.08.12C49,56.92,49.14,57.42,48.89,57.78Zm-.75,1.89,1.78-1.25a.5.5,0,0,0,0-.8c-.16-.13-.29,0-.4.08-.42.35-.84.69-1.24,1A.76.76,0,0,0,48.14,59.67Zm-1.76,1c-.51.72-.71,3.58-.28,4.08A11.54,11.54,0,0,0,46.38,60.68Zm-2.54-.24L43.5,60a5.07,5.07,0,0,0-1.94.73l.58.46ZM45,58.71c.17-.21.35-.37.31-.54a3.54,3.54,0,0,0-.51-1.39.39.39,0,0,0-.56-.13Zm.29.62c-.6-.53-1-1.23-1.72-1.56-.13.19,0,.28.08.38a14.13,14.13,0,0,1,1,1.06A.46.46,0,0,0,45.3,59.33Zm-.37.78c-.14-.58-.48-.67-1.19-.34C43.9,60.29,44.23,60.39,44.93,60.11ZM43.7,61.46c.34.15.47.14.62-.11s.31-.57.46-.86A2.53,2.53,0,0,0,43.7,61.46ZM49.53,59h1.63a2.33,2.33,0,0,0-.83-.31A.68.68,0,0,0,49.53,59Zm-4.35.49c-.14.5,0,.62.4.58Z"/><path class="cls-1" d="M80.3,47.06c0,.07-.07.13-.1.19a1.7,1.7,0,0,1-2.27.67,5,5,0,0,1-.53-.37c-.23-.19-.43-.42-.66-.62a5,5,0,0,1-1.13-1.51,17.42,17.42,0,0,1-1.34-3.18,14.66,14.66,0,0,1-.53-2.93c0-.86,0-1.72,0-2.59a1.07,1.07,0,0,0-.06-.3l-.1,0c-.1.17-.21.33-.3.5-.23.41-.43.84-.69,1.24s-.61.77-.91,1.15a9,9,0,0,1-3.12,2.48.31.31,0,0,1-.42-.06,2.56,2.56,0,0,1-.7-1.17,3.08,3.08,0,0,0-.32-.75c-.1-.19-.29-.17-.46-.11s-.18.21-.15.36a2.24,2.24,0,0,0,.1.37c0,.15.1.29.15.43a.45.45,0,0,1-.34-.13,8.35,8.35,0,0,1-.62-.93c-.15-.26-.22-.56-.36-.83a6.13,6.13,0,0,0-.46-.78.28.28,0,0,0-.38-.09.43.43,0,0,0-.17.32,1,1,0,0,0,.09.41c.14.34.29.67.44,1a1.65,1.65,0,0,1-.58-.45A7.59,7.59,0,0,1,63.05,37a4.14,4.14,0,0,0-.35-.84,1.49,1.49,0,0,0-.45-.45.52.52,0,0,0-.81.49,2.44,2.44,0,0,0,.22.82c.21.48.45,1,.69,1.48-.43.36-.84.73-1.27,1.07-.86.7-1.73,1.39-2.6,2.07-.63.49-1.27,1-1.9,1.43a.77.77,0,0,1-.6.14,11.54,11.54,0,0,1-5.27-1.63,2.53,2.53,0,0,1-1-.87.53.53,0,0,0-.54-.3.44.44,0,0,0,0,.16c.1.73.2,1.46.31,2.18a10.81,10.81,0,0,0,1.19,3,6.05,6.05,0,0,0,.57.91c.38.45.8.87,1.2,1.3.08.09.19.21.19.32a.73.73,0,0,0,.39.58c.5.35,1,.66,1.51,1,.15.09.28.21.42.31a.54.54,0,0,1,.21.49c0,.9,0,1.81,0,2.72,0,.09,0,.19-.06.32a5.59,5.59,0,0,0-.57,0,9.11,9.11,0,0,0-1.16.06A.44.44,0,0,0,53,54a1.4,1.4,0,0,0,0,1,1.24,1.24,0,0,0,1.16.76h.8c0,.07.05.11,0,.15-.05.89-.11,1.78-.17,2.67,0,.58-.07,1.15-.11,1.72-.06.83-.13,1.67-.19,2.5,0,.6-.09,1.2-.13,1.8L50,66.35a2,2,0,0,0,0,.36c0,.58,0,1.15.08,1.72,0,.35.07.4.39.47.8.16,1.59.31,2.38.48.34.07.67.18,1,.28-.24.59-.69,1-.75,1.64l.24.07a.93.93,0,0,0,1-.13,1.43,1.43,0,0,1,1.22-.31,1.94,1.94,0,0,0,.34,0,5,5,0,0,1,1.54.29c-.12.19-.23.34-.32.5a.29.29,0,0,0,.16.46,1,1,0,0,0,1.08-.2,2.81,2.81,0,0,1,.51-.4c.39-.27.8-.51,1.17-.81a1.49,1.49,0,0,1,1.17-.27l2.7.34c1,.12,2,.24,3,.38a1.13,1.13,0,0,0,.77-.17c.88-.5,1.79-1,2.69-1.45a.57.57,0,0,1,.34,0c.46.08.93.17,1.39.28.86.19,1.71.41,2.57.6a.73.73,0,0,0,.48-.09,6.67,6.67,0,0,0,.65-.56l-.13-.28c.42-.31.82-.63,1.24-.93a.54.54,0,0,1,.37-.07.61.61,0,0,0,.84-.43c0-.09.11-.17.17-.28l-2-1.5c.48-.31.48-.31.49-.82,0-.32,0-.64,0-1,0-.16,0-.31,0-.48-1-.27-2.06,0-3.09-.29,0-2.28-.2-4.53-.14-6.81a1.64,1.64,0,0,1,.2,0,2,2,0,0,1,.34.06.62.62,0,0,0,.82-.58,4.53,4.53,0,0,0,0-.73c0-.21-.14-.3-.33-.33l-.6-.06c-.17,0-.33-.06-.5-.09a19.35,19.35,0,0,1-.14-2.74l.42,0c.28,0,.57.1.85.13.09,0,.24,0,.26-.08.08-.21.26-.23.42-.24a4.78,4.78,0,0,0,1.44-.42,7.26,7.26,0,0,0,2.14-1.27A6,6,0,0,0,80,48.89a4.79,4.79,0,0,0,.46-1.43A.33.33,0,0,0,80.3,47.06Zm-5.68,8.67c.22.31.21.57-.06,1A.58.58,0,0,1,74.62,55.73ZM66.66,40a.17.17,0,0,1,.06-.14c.06,0,.17,0,.19,0a3,3,0,0,1,.29.52c.12.3.21.6.34,1A2,2,0,0,1,66.66,40Zm-2-1.71a3.29,3.29,0,0,1,1.11,2A2.52,2.52,0,0,1,64.67,38.31Zm-2.38-.37c-.14-.35-.34-.66-.48-1a1.92,1.92,0,0,1-.11-.71c0-.31.19-.4.47-.27a.68.68,0,0,1,.31.27,2,2,0,0,1,.25.51,11.17,11.17,0,0,0,1.21,2.51,1.7,1.7,0,0,1,.07.18A2.69,2.69,0,0,1,62.29,37.94Zm.06.93c.94.43,1.91.94,2.87,1.44S67,41.42,68,42l-.76.27-4.94-2.6-1.14.91c-1,.84-2.09,1.66-3.12,2.51a.82.82,0,0,1-.71.21,3.82,3.82,0,0,0-.56,0Zm.29,2.72,2.21,1.34a.44.44,0,0,0,0,.1,26.24,26.24,0,0,1-4.58.45A11.46,11.46,0,0,1,62.64,41.59Zm-2.78,1.78s-.1,0-.18,0a11.41,11.41,0,0,1,2.8-2.07C61.61,42,60.74,42.7,59.86,43.37ZM63,41.49a.31.31,0,0,1-.09-.16,24.79,24.79,0,0,1,2.94,1.42c-.22.17-.42.24-.62.11A15,15,0,0,1,63,41.49Zm.3-.25-.78-.41c-1,.76-1.93,1.47-2.85,2.23a1.53,1.53,0,0,1-1.38.32c0-.18.16-.25.28-.34l2.87-2.35c.24-.19.49-.36.71-.56a.44.44,0,0,1,.55,0l3.13,1.65.81.42c.12.06.24.14.42.25-.28.11-.49.19-.71.26a.4.4,0,0,1-.24,0ZM49.56,41a8.41,8.41,0,0,0,2.37,1.48,10.25,10.25,0,0,0,3.8.93c1,.09,2,.15,2.92.23a.67.67,0,0,1,.33.07c.1.08.17,0,.27,0a1.48,1.48,0,0,1,.46-.08,19.06,19.06,0,0,0,4.94-.37,13.93,13.93,0,0,0,2.46-.65,10.18,10.18,0,0,0,3.83-2.28c.43-.44.83-.91,1.24-1.37l.17-.18.07,0c-.18.34-.35.7-.56,1a15,15,0,0,1-3.15,3.64,12.7,12.7,0,0,1-4.24,2.42,1.36,1.36,0,0,0-.64.41.73.73,0,0,1-.52.23l-2.49.26-1.91.24-.14-.16c-.23-.33-.22-.32-.65-.25a1.46,1.46,0,0,1-.55,0,18.63,18.63,0,0,1-3-.84A11.3,11.3,0,0,1,51.38,44,6.12,6.12,0,0,1,50,42.28a2.58,2.58,0,0,1-.44-1.15A1.37,1.37,0,0,1,49.56,41ZM73.27,56.64a.73.73,0,0,1,.08.33c0,1,0,1.93.06,2.89,0,1.12.08,2.25.11,3.37,0,.37,0,.75,0,1.12a.3.3,0,0,1-.28.32c-.52.11-.84,0-.87-.58s-.07-1.14-.12-1.72h0c-.06-1.35-.11-2.7-.16-4,0-.45,0-.89,0-1.34a.67.67,0,0,1,.38-.73.7.7,0,0,0,.17-1.08s0-.08-.09-.09c-.43-.2-.39-.6-.39-1,0-.55,0-1.09.07-1.64a.8.8,0,0,1,0-.21.47.47,0,0,1,.47-.31c.22,0,.32.14.36.31a3.87,3.87,0,0,1,.12.68c0,.66.08,1.32.1,2a2.61,2.61,0,0,1-.08.55A1.32,1.32,0,0,0,73.27,56.64Zm-6.45-3.5c0-.34,0-.66.05-1,0-.91,0-1.83.08-2.75,0-.13,0-.26,0-.39.07-.35.22-.48.55-.48a.64.64,0,0,1,.68.47,5,5,0,0,1,.06.86c0,1,0,2.07,0,3.11a.73.73,0,0,1-.17.54,3.48,3.48,0,0,0-.33.7A1,1,0,0,0,66.82,53.14Zm.36,1.45v-1.1C67.73,54,67.72,54.35,67.18,54.59Zm-2,8.59c-.06-.41-.2-.51-.61-.42h-.14c-.06-.23,0-.43.18-.55a13.53,13.53,0,0,0,1.52-.77s.11,0,.18,0v.64c-.54,0-.71.41-.77.84s-.08,1-.12,1.5c0,.15,0,.3-.07.47-.22-.08-.2-.22-.19-.34l0-1.08A2.26,2.26,0,0,0,65.23,63.18Zm-1.41,2.66c-.16,0-.15-.15-.14-.26s0-.46,0-.69c.05-.71.08-1.41.14-2.11,0-.39.07-.4.4-.59-.05.91-.1,1.77-.15,2.63a3.15,3.15,0,0,1-.09.42,2.25,2.25,0,0,0-.06.36C64,65.72,64,65.86,63.82,65.84Zm.41-4a.85.85,0,0,0-.56.74c-.05.53-.1,1.06-.14,1.59s-.06,1.06-.1,1.6a.34.34,0,0,1,0,.11c-.24,0-.22-.2-.21-.35,0-.69,0-1.38,0-2.07,0,0,0-.05,0-.08,0-.7-.19-.72-.78-.55a.38.38,0,0,0-.29.38c0,.39-.07.78-.08,1.17s0,.91,0,1.45l-.42-.15v-1.5c0-.23,0-.46,0-.69a.43.43,0,0,0-.51-.48c-.23,0-.46,0-.69,0s-.42.08-.45.4c0,.48,0,1,0,1.46,0,.25,0,.49,0,.77-.29-.09-.35-.24-.34-.45,0-.62,0-1.24,0-1.86,0-.36-.08-.47-.37-.53s-.49.05-.5.39L58.76,65c0,.17,0,.34,0,.49-.18.07-.28,0-.28-.12a4.08,4.08,0,0,1,0-.61c.07-.9.14-1.8.21-2.61-.45-.42-.83-.76-1.19-1.12a1.51,1.51,0,0,1-.4-1c0-.15,0-.32.2-.39.22.38.46.75.65,1.15a3.2,3.2,0,0,0,3.24,1.57,5.85,5.85,0,0,0,1.6-.5,5.52,5.52,0,0,0,2.65-2.9c.06-.14.11-.29.19-.51A1.18,1.18,0,0,1,66,59.53,3.43,3.43,0,0,1,64.23,61.83Zm-1.68,3.46c0,.18,0,.35-.23.39,0-.77,0-1.51,0-2.26,0-.3.14-.42.42-.42a.28.28,0,0,1,.21.1c0,.08,0,.22-.08.25-.27.12-.3.37-.31.61C62.55,64.4,62.56,64.85,62.55,65.29Zm-2.1-.11c0,.16.09.35-.17.45a.63.63,0,0,1-.06-.2c0-.53-.06-1.06-.06-1.59s.11-.53.57-.55l.47,0c.12,0,.23,0,.21.26l-.53,0c-.37,0-.46.08-.48.46A11.06,11.06,0,0,0,60.45,65.18ZM57.62,70l-1.31-.28L56,69.68a.19.19,0,0,1-.12-.28.36.36,0,0,1,.22-.2,1.27,1.27,0,0,1,.43,0l1.8.34C58.13,70.15,58.13,70.15,57.62,70Zm0,.53-.93-.16-1.39-.28a.52.52,0,0,0,0-.11c.2,0,.4-.09.61-.12a1.36,1.36,0,0,1,.17,0l1.79.37C57.91,70.55,57.8,70.6,57.63,70.57ZM56.36,69c.1-.2.21-.24.35-.23a9.82,9.82,0,0,1,1.92.3c0,.22-.09.31-.25.28Zm1-.38c-.19,0-.4,0-.59-.09a.28.28,0,0,1-.12-.23s.1-.14.16-.14a9.7,9.7,0,0,1,2.28.27c-.12.18-.19.3-.27.43Zm-.27-.66a1.31,1.31,0,0,1,1.15-.27c.23.06.48.07.72.13a2.3,2.3,0,0,1,.37.16c-.06.08-.09.15-.11.15ZM59,48.2l.62.67c-.4.22-.59.14-.94-.42Zm-.42-.09a1.07,1.07,0,0,1-.17-1.23A.85.85,0,0,1,58.59,48.11Zm5-.73a37.17,37.17,0,0,1-4.63.41c0-.14,0-.29,0-.49,1.55-.14,3.05-.49,4.65-.51Zm.66.88a3.08,3.08,0,0,1,.22.28l-1.14.11c-.57,0-1.15.07-1.72.12s-1,.1-1.46.12a.56.56,0,0,1-.37-.13,5.66,5.66,0,0,1-.52-.64L60,48c1-.1,2-.19,3-.32A1.36,1.36,0,0,1,64.25,48.26Zm2.53.45c-.28.22-.61.13-.92.18a8.91,8.91,0,0,1-1,.07l-1,0-1,.1-1,.1-1,.1-1,.11c-.32,0-.65.07-1,.09l-1,.06a8.18,8.18,0,0,1-1,0A77.4,77.4,0,0,1,66.78,48.71Zm3.15-1.1a.49.49,0,0,1,.23.11L71.38,49a1.67,1.67,0,0,1-.29.08c-.56,0-1.12,0-1.68.06a1.13,1.13,0,0,1-1.12-.52,1,1,0,0,0-1-.32c-.61.07-1.22.12-1.87.18l-.68-.86L67,47.4l2.14-.26A1.23,1.23,0,0,0,69.93,47.61Zm-.64-.92c0-.35.25-.55.54-.75a1.41,1.41,0,0,0,.86,1,.92.92,0,0,1-1,.33A.62.62,0,0,1,69.29,46.69Zm2.15,2.6c.36,0,.37,0,.32.47-.12,0-.25,0-.37,0-.55,0-1.09,0-1.64-.07a1.64,1.64,0,0,1-.46-.18c.12-.09.14-.12.16-.12C70.11,49.36,70.77,49.31,71.44,49.29Zm-4.88,3.77-.46,0a16.83,16.83,0,0,1,.1-3.88l.48,0a11.74,11.74,0,0,1-.05,2A13.29,13.29,0,0,1,66.56,53.06Zm-2.28.58c0-.07.09-.13.09-.19,0-1,0-2.07,0-3.11,0-.36,0-.71.06-1.12l.77,0c0,1.52-.09,3-.15,4.5.25,0,.23-.2.24-.33,0-.48,0-1,0-1.43,0-.9.07-1.81.1-2.73l.45-.07c0,.28,0,.52,0,.76,0,.84,0,1.67,0,2.5a2.69,2.69,0,0,1-.37,1.39H63.3a36.16,36.16,0,0,1,.11-4.43c.22-.19.46-.12.74-.13a34,34,0,0,1,0,4.4Zm-4.56-3.21A10.59,10.59,0,0,1,63,50,22,22,0,0,1,59.72,50.43Zm2.93,0c0,1.11-.08,2.2-.12,3.29-.18.07-.3,0-.32-.12a4.35,4.35,0,0,1,0-.72c0-.81.06-1.61.1-2.45ZM62,53.72h-.35c0-.44,0-.88,0-1.32s.09-1.12.13-1.67c0-.15,0-.3.3-.22A26.65,26.65,0,0,1,62,53.72Zm-.37-3.18c-.06,1.05-.13,2.09-.19,3.13-.34.11-.41.08-.41-.24,0-.57,0-1.15,0-1.72a8.08,8.08,0,0,1,.08-.86C61.16,50.53,61.16,50.53,61.6,50.54Zm-1.36,3.14h.1c.16-1,0-2,.22-3.07h.35c0,1.07-.08,2.12-.13,3.15l-.08.05c-.81.08-.91.07-.84-.74s.07-1.38.11-2.06a.46.46,0,0,1,0-.21.86.86,0,0,1,.2-.18c.05.06.14.12.14.19,0,.38,0,.77,0,1.15l-.12,1.46A.87.87,0,0,0,60.24,53.68Zm-.44-3c-.09,1-.1,2-.21,3l-.15,0,.18-2.9Zm3,.43c.06-.28,0-.61.31-.89a7.59,7.59,0,0,1,0,1.79,5.55,5.55,0,0,1-.16,1.72A7.68,7.68,0,0,1,62.79,51.11Zm-3.14-1v-.44l3.47-.37c0,.15,0,.27,0,.45Zm-.43,3.68h-.75a36.34,36.34,0,0,1,.11-4l.69,0C59.44,50.11,59.42,51.23,59.22,53.77Zm-.89-3.58q0,1.53-.09,3.06c0,.54-.06.57-.62.58h-.3c0-1.35,0-2.66.1-4l.89-.07A3.55,3.55,0,0,1,58.33,50.19Zm-1.15-.26c-.11,1.26,0,2.54-.14,3.79-.19.08-.29,0-.33-.12a.91.91,0,0,1,0-.17c0-1.08,0-2.16.08-3.24C56.79,49.88,56.81,49.88,57.18,49.93Zm-.31,4.12H64.8c.24,0,.48.05.74.07a.89.89,0,0,0,1.08.86v.44H56.4a.9.9,0,0,1-.15-1.09.73.73,0,0,1,.32-.25A.75.75,0,0,1,56.87,54.05Zm1.76,5.51c-.68-.57-.58-2.61.11-3A4.11,4.11,0,0,0,58.63,59.56Zm-1.05-1.81a3.54,3.54,0,0,0,2,3.59,1.87,1.87,0,0,0,.62.14c.23,0,.47,0,.69,0A2.58,2.58,0,0,0,63,60.8a5.51,5.51,0,0,0,1.41-1.93,2.83,2.83,0,0,0,.11-1.44,3.78,3.78,0,0,0-.08-.56s0,0,0-.06a2.42,2.42,0,0,0-.51-1.11l.58,0a4,4,0,0,1,.61,3.19,4,4,0,0,1-1.73,2.37,3.94,3.94,0,0,1-2.66.86,2.69,2.69,0,0,1-2.42-1.33c-.25-.44-.46-.89-.71-1.32a3.75,3.75,0,0,1-.2-2.67,2.77,2.77,0,0,1,.47-.92.34.34,0,0,1,.49-.11A3,3,0,0,0,57.58,57.75Zm5.87-.43a2.93,2.93,0,0,0-.85-1.26c-.11-.16.22-.15.39,0a2.46,2.46,0,0,1,.4,3.09s-.06,0-.06-.06,0-.18,0-.21A1.87,1.87,0,0,0,63.45,57.32Zm-.73-.08a2.28,2.28,0,0,1-1.43,3.11,2.69,2.69,0,0,1-1.81-.15c-.13-.06-.13-.06-.17-.34a2.29,2.29,0,0,0,3.41-2.62ZM59.56,58.6a.74.74,0,0,1-.24-.73.91.91,0,0,1,.53-.72A1.8,1.8,0,0,0,59.56,58.6Zm1.85-1.05a.9.9,0,0,1-.17,1.32c.07-.27.14-.47.17-.67S61.41,57.8,61.41,57.55Zm.44-.59a.75.75,0,0,1-.07-.25c.54.16.69,1.27.42,2a1.37,1.37,0,0,1-1.68,1c.16-.08.23-.15.31-.16a1.31,1.31,0,0,0,1.18-1A1.69,1.69,0,0,0,61.85,57Zm-1.25.62a.53.53,0,0,1,.45.45c0,.38-.19.61-.66.7a.68.68,0,0,1-.25-.83A.44.44,0,0,1,60.6,57.58ZM60.25,57c.25-.27.41-.26.75,0l0,.1Zm.8-.44a1.38,1.38,0,0,0-1.09.09c-.05,0-.13,0-.19,0s0-.15,0-.18a1.68,1.68,0,0,1,1.37-.09s.05.11.11.23A1.07,1.07,0,0,1,61.05,56.55ZM59.84,59c.2,0,.39.07.59.11,0,0,.1.1.09.12s-.08.14-.12.13c-.24,0-.47-.06-.71-.1l0-.11C59.71,59.08,59.78,59,59.84,59Zm2.23-2.48a4.56,4.56,0,0,0-.7-.41,1.7,1.7,0,0,0-1.66.13c-.1.07-.21.22-.39.07.08-.26.32-.31.53-.43,1.67-.4,2.55.56,2.57.83Zm-2.74.5a5.85,5.85,0,0,0-.34.72,2,2,0,0,0,.12,1.33,2.11,2.11,0,0,0,.69.6c0,.16-.16.13-.29.05a1.47,1.47,0,0,1-.73-1A2.27,2.27,0,0,1,59,57.31a2.7,2.7,0,0,1,.25-.4Zm-2.9,2.74c0-1.33.1-2.65.16-4h.95s0,.08,0,.1a5.11,5.11,0,0,0-.38,3.29.36.36,0,0,1-.09.3.8.8,0,0,0-.19.72,2,2,0,0,0,.7,1.34c.22.2.46.4.69.59a.65.65,0,0,1-.16,1.1c-.53.2-1.06.38-1.59.57a1,1,0,0,1-.26.05C56.32,62.42,56.38,61.08,56.43,59.75Zm2.7,5.55s0,0,0,.08H59c0-.12,0-.24,0-.36,0-.51,0-1,0-1.55a1.09,1.09,0,0,1,0-.25c0-.13.16-.2.27-.13s.18.21.16.25A4.26,4.26,0,0,0,59.13,65.3Zm7.05-5.59a1.84,1.84,0,0,1-.73,1.68,4.66,4.66,0,0,1-.67.46,12.65,12.65,0,0,0,.8-1C65.81,60.49,66,60.09,66.18,59.71ZM66,61.19c.07-.16.14-.31.2-.47s.12-.32.19-.51C66.54,60.87,66.45,61.1,66,61.19Zm.39-2.09a1.57,1.57,0,0,0-.69-1,.55.55,0,0,1-.26-.49,4.87,4.87,0,0,0-.58-1.94h1.82c-.06,1.19-.11,2.36-.17,3.62C66.42,59.16,66.38,59.13,66.38,59.1Zm.06-4.37a.66.66,0,0,1-.68-.76c0-.45.25-.74.57-.73a.75.75,0,0,1,.72.85A.63.63,0,0,1,66.44,54.73Zm1.78-1c.11-.21.32-.22.53-.2l.81.12c0,.49-.1,1-.15,1.48a4,4,0,0,1-1.08-.07c-.21,0-.26-.21-.3-.38A1.43,1.43,0,0,1,68.22,53.76Zm.3-4,.8.57v3.14h-.56a1,1,0,0,1-.24-.06A24.7,24.7,0,0,1,68.52,49.74Zm2.38,2.72a2.94,2.94,0,0,1-1.33-1.1A3.44,3.44,0,0,1,70.9,52.46Zm-1.22-1.9,1.07.87c.16.13.15.28.06.5-.37-.28-.73-.54-1.07-.82C69.56,51,69.57,51,69.68,50.56Zm1.18,2.63c0,.32,0,.65-.08,1-.36,0-.43-.08-.45-.4s0-.8,0-1.25C70.73,52.64,70.9,52.83,70.86,53.19Zm-1,.78a.16.16,0,0,1,.3,0,5.4,5.4,0,0,1,.15.61,1.47,1.47,0,0,1-.09.4.46.46,0,0,1-.27.15.26.26,0,0,1-.21-.18A1.39,1.39,0,0,1,69.83,54Zm-.24-.57V51.91A1.85,1.85,0,0,1,69.59,53.4Zm.47-1.13a1.91,1.91,0,0,1,0,1.29A2,2,0,0,1,70.06,52.27Zm-.21,6.38a3.31,3.31,0,0,1-1.48,1.75,30.61,30.61,0,0,1,.07-5h.49a.29.29,0,0,1,.3.19,3.23,3.23,0,0,0,.29.43A2.54,2.54,0,0,1,69.85,58.65ZM68.28,63c0-.61.07-1.23.08-1.85a.71.71,0,0,1,.3-.62,3.76,3.76,0,0,0,1.6-3.06,8.38,8.38,0,0,0-.1-.94,1.37,1.37,0,0,1,.68,1.11,2.91,2.91,0,0,1-.66,2.42,2.26,2.26,0,0,1-.53.44.73.73,0,0,0-.35.51A14,14,0,0,0,69,63.67c0,.24,0,.49,0,.73,0,.44-.2.57-.67.54C68.28,64.29,68.26,63.65,68.28,63Zm1.08-1.3a1,1,0,0,0,0-.17,1.57,1.57,0,0,1,.72-1.11A2.54,2.54,0,0,0,71,58.74a6.05,6.05,0,0,0,0-1.41,1.24,1.24,0,0,0-.85-1.1c-.24-.08-.35-.28-.46-.58.76.26,1.46.49,2.15.8,0,2.45.25,4.87.28,7.38l-2.86-.26A6.77,6.77,0,0,1,69.36,61.7Zm2.84-6.56a.56.56,0,0,1,.21.72.49.49,0,0,1-.62.25c-.55-.15-1.08-.36-1.62-.54a.43.43,0,0,0,0-.11c.35-.22.36-.57.39-.91.2-.11.37,0,.53.07.31.13.61.26.9.4A1.67,1.67,0,0,1,72.2,55.14Zm-.32-1v.53L71,54.34c0-.84,0-1.65.08-2.48.62.24.79.5.78,1.08C71.87,53.34,71.88,53.74,71.88,54.14Zm-.77-2.67h0c-.89-.72-1.76-1.45-2.64-2.17l.05-.07.14.07,2.25,1.79c.12.1.23.2.2.38h0c.08,0,.17,0,.23,0a1.81,1.81,0,0,1,.65.58A3.09,3.09,0,0,1,71.11,51.47Zm.17-.38A4,4,0,0,1,73.17,51c.1,0,.18.1.27.16s0,.09,0,.14A10.82,10.82,0,0,1,71.28,51.09Zm1.33-1.32c-.07-.1,0-.29,0-.44l.12,0c.29.29.58.58.85.89s0,.36-.08.62A7.42,7.42,0,0,1,72.61,49.77Zm.37.95a2.73,2.73,0,0,1-.38,0H70.93a.28.28,0,0,1-.15-.06L70,50a.3.3,0,0,0,0-.1l1.54.07h.3C72.4,50,72.65,50.15,73,50.72Zm-.77-.93c-.1-.18-.21-.28-.19-.36a1.39,1.39,0,0,1,.36-.84A1.56,1.56,0,0,1,72.21,49.79Zm-.43-.64c-.5-.56-1-1.06-1.47-1.66l.51-.35A7.45,7.45,0,0,1,72,48.45C72.07,48.58,72,48.75,71.78,49.15Zm-1.29-2.62-.13-.11a.71.71,0,0,1-.22-.78c.16-.27.43-.18.66-.18.06,0,.11,0,.15,0,.09.18.13.3.2.42a.53.53,0,0,1,0,.63A.45.45,0,0,1,70.49,46.53Zm.72-1.21-.56-.21c.18-.45.37-.88.53-1.33s.35-1,.53-1.49c.07-.18.1-.39.39-.52A12.26,12.26,0,0,1,71.21,45.32Zm-.67-.53a2.59,2.59,0,0,1-.44.51c0,.05-.12.09-.15.14-.27.5-.73.53-1.24.52a13.29,13.29,0,0,0,2.47-3l.09,0C71,43.6,70.81,44.2,70.54,44.79ZM69,46.27v.66a32.9,32.9,0,0,1-4.33.43c0-.2,0-.38,0-.56A18.6,18.6,0,0,1,69,46.27Zm-3.85,2.2c-.48.14-.59-.24-.84-.43l.24-.29Zm-1-.78c-.38-.28-.43-.62-.19-1.15.25,0,.33.11.37.31S64.53,47.47,64.2,47.69Zm-13.58-2.5a.57.57,0,0,1-.15-.16,6.49,6.49,0,0,1-.85-2.78v0c.37.47.75.93,1.12,1.39A5.14,5.14,0,0,0,52,44.71l.75.5c.2.12.39.24.6.34A16.73,16.73,0,0,0,57,46.76,6.64,6.64,0,0,1,58,47l-.47.11-3,.41a1.35,1.35,0,0,1-.71-.11,7.65,7.65,0,0,1-2-1.33C51.48,45.77,51,45.49,50.62,45.19Zm3,2.45a.46.46,0,0,1-.55,0,3.88,3.88,0,0,1-1.13-1.18Zm-1.2.1a6.49,6.49,0,0,1-1.61-2.09,1.09,1.09,0,0,1,.19.05l1.84,2.17C52.67,48,52.52,47.84,52.42,47.74Zm.7.86a.39.39,0,0,1-.21-.28.37.37,0,0,1,.22-.27,11.74,11.74,0,0,1,1.18-.24c.77-.12,1.54-.22,2.31-.32.46-.06.93-.09,1.41-.13,0,.21.08.37.12.58a2.45,2.45,0,0,1-.31.12l-3.32.53c-.33,0-.66.07-1,.09A.94.94,0,0,1,53.12,48.6Zm.43.39,4.66-.75.69.76a15.68,15.68,0,0,1-2.07.27,10.43,10.43,0,0,0-1.11.11.61.61,0,0,0-.54.67A10.35,10.35,0,0,1,53.55,49Zm1.22,6.55a1.89,1.89,0,0,1-1.22-.16.89.89,0,0,1-.33-1.17.52.52,0,0,1,.3-.19,2,2,0,0,1,.42,0s0,0,0-.05l.85.08a.24.24,0,0,1,.25.28l0,.91A.29.29,0,0,1,54.77,55.54ZM54.62,64c0-.48.12-.95.14-1.42.05-.91.05-1.81.1-2.71.06-1.12.16-2.23.23-3.35,0-.85.1-1.69.14-2.54.05-1.25.11-2.5.15-3.75a.64.64,0,0,1,.48-.63c.45-.14.74.05.73.52,0,1.09-.07,2.19-.1,3.28a.73.73,0,0,1-.24.52,1.33,1.33,0,0,0-.06,1.77.53.53,0,0,1,.17.41c-.07,2-.12,4-.2,6,0,.79-.12,1.58-.18,2.37,0,.54-.17.66-.73.68-.2,0-.41,0-.63-.06C54.62,64.63,54.6,64.3,54.62,64Zm-.88,5.38c-1.08-.24-2.16-.47-3.24-.72a.38.38,0,0,1-.22-.27,6,6,0,0,1,0-1.79,24.13,24.13,0,0,1,4.92.75,2.66,2.66,0,0,1-.16.39c-.27.47-.55.94-.81,1.42A.41.41,0,0,1,53.74,69.36Zm.51,1.3-.14.22c-.22.33-.3.35-.76.16.08-.16.14-.33.23-.49.59-1,1.19-2,1.77-3,.16-.28.37-.28.7-.22l-.61,1.13C55,69.19,54.64,69.92,54.25,70.66Zm.09.29.37-.77C54.85,70.62,54.82,70.68,54.34,71Zm1.82-3.3a.48.48,0,0,1,.27-.17c.23,0,.45,0,.67,0a.29.29,0,0,1,0,.09c-.13.06-.25.14-.39.2a.43.43,0,0,0-.32.45.53.53,0,0,1-.36.53.48.48,0,0,0-.33.4.86.86,0,0,1-.86.71C55.29,69.13,55.72,68.38,56.16,67.65Zm1,3.27-1.57-.19a1.43,1.43,0,0,1-.37-.08.33.33,0,0,1-.12-.24,12.64,12.64,0,0,1,2.46.41l0,.14Zm1,.72c-.23.36-.28.38-.84.22l2.58-4.32.32.06a1.82,1.82,0,0,1,.31.07l-.57.93L59,70.12C58.73,70.62,58.44,71.13,58.14,71.64ZM60.49,70a.35.35,0,0,1-.15.25l-1.79,1.35a16.11,16.11,0,0,1,2.11-3.52C60.61,68.7,60.56,69.34,60.49,70ZM67,71l-6.32-.79A10.85,10.85,0,0,1,60.93,68h.61l3.65.32c.48,0,1,.1,1.42.16s.35.06.37.39c0,.54.06,1.07.08,1.6A5.15,5.15,0,0,1,67,71Zm0-4.6a1.11,1.11,0,0,1-.25-.05c-.43-.1-.52-.22-.53-.65,0-.22,0-.43,0-.65.1-1.58.21-3.15.29-4.73s.11-2.87.17-4.31c0-.33.06-.66.09-1l.85-.48a1.23,1.23,0,0,0,.16.44,2,2,0,0,1,.27,1.51,23.88,23.88,0,0,0-.05,2.93c.05,1.34,0,2.68,0,4,0,.74,0,1.47-.09,2.2S67.79,66.48,67.09,66.4Zm3.46,2.88-3,1.55-.17,0c0-.56-.08-1.08-.11-1.61a2.09,2.09,0,0,0,0-.25c-.06-.43.13-.64.52-.8.82-.34,1.63-.72,2.44-1.08.16-.07.32-.12.54-.2a4.43,4.43,0,0,1,0,.48c0,.44,0,.89,0,1.33A.53.53,0,0,1,70.55,69.28Zm.47.09v-2.2l.12,0a33,33,0,0,1,3.22,3A18.1,18.1,0,0,1,71,69.37Zm2.33-2h0l.62-.26c.14-.06.28-.15.42-.22.38-.16.46-.13.81.26L74,68l-.67-.62h0L72.86,67a8.84,8.84,0,0,1,1.4-.66c.11.24.09.41-.15.52s-.32.18-.5.25a.37.37,0,0,0-.26.3Zm.91.77a1.93,1.93,0,0,1,1-.68c.09.41-.26.49-.5.63S74.47,68.31,74.26,68.16ZM75,69l-.41-.47a2.1,2.1,0,0,1,1-.6c.17-.05.39.09.68.16A7.08,7.08,0,0,1,75,69Zm1.34-.23-.91.62-.22-.24a7.16,7.16,0,0,1,1.33-.92A.42.42,0,0,1,76.38,68.77Zm.19-4.34c0,.43,0,.83,0,1.22a.39.39,0,0,1-.15.24,3,3,0,0,1-.32.22l-1.23-.93A6.28,6.28,0,0,1,76.57,64.43Zm-1.86,1.71,1,.85h0l1.53,1.11-.32.2c-.1-.34-.36-.41-.63-.49s-.45-.19-.7-.29l.12-.53h0l0,0a3.68,3.68,0,0,1-.35-.15c-.23-.14-.44-.3-.68-.46A2,2,0,0,1,74.71,66.14Zm-.3-.17-1.7.86L72,66.22a13.48,13.48,0,0,0,1.27-.54A.8.8,0,0,1,74.41,66Zm-.94-10.39c.17-.17.42,0,.63,0v1c-.38.1-.45.08-.62-.23a.37.37,0,0,1,0-.11A.64.64,0,0,1,73.47,55.58Zm-.38-3.68a.43.43,0,0,0-.59-.2c-.3.17-.48,0-.65-.27l.84,0c.22,0,.43.06.64.07a1,1,0,0,1,1,.76C73.83,52.27,73.38,52.37,73.09,51.9ZM74,50.25a.77.77,0,0,1-.25,1A1.06,1.06,0,0,1,74,50.25Zm.58,2c-.16-.36-.61-.52-.37-1C74.73,51.61,74.78,51.71,74.6,52.22Zm.38-.13a1,1,0,0,0-.39-.89.83.83,0,0,1-.26-.78s0,0,0,0c0-.45-.16-.56-.63-.37-.31-.35-.64-.7-1-1.08-.07-.08,0-.24-.08-.37s-.11-.38-.39-.34a.39.39,0,0,1-.29-.13c-.3-.33-.59-.68-.89-1,.06-.1.1-.21.16-.3a1,1,0,0,0,.13-1,.59.59,0,0,1,0-.49,17.5,17.5,0,0,0,.84-3,5.32,5.32,0,0,0,.06-.56.35.35,0,0,0-.27-.39c-.18,0-.24.12-.31.24-.48.76-.92,1.53-1.42,2.27a9.77,9.77,0,0,1-1.73,1.85,1.7,1.7,0,0,1-1,.42c-.8.07-1.6.17-2.4.27l-.63.09-.18-.25a15,15,0,0,0,8.51-7.79.62.62,0,0,1,.08.48c0,.82-.14,1.64-.15,2.46A14.39,14.39,0,0,0,73,44c.07.46.12.92.17,1.37a5.24,5.24,0,0,0,.48,1.74c.09.2.16.41.23.61a3.14,3.14,0,0,0,.85,1.33,1.47,1.47,0,0,1,.21.22,3.21,3.21,0,0,0,2.3,1.13,2.29,2.29,0,0,0,2-.88l.42-.46.07.08C79.11,50.72,76.42,52.2,75,52.09Zm4.64-3.46c-.22.28-.47.54-.71.8a2.12,2.12,0,0,1-2.08.67,3.46,3.46,0,0,1-2-1.18A4.16,4.16,0,0,1,74,47.34c-.1-.31-.25-.61-.36-.92a11.92,11.92,0,0,1-.39-2.29c0-.16,0-.32-.07-.47a10,10,0,0,1-.08-2.19c0-.92.09-1.84.16-2.75,0-.41.1-.82.15-1.23h.11c0,.44,0,.89.09,1.33.11.91.21,1.83.37,2.73A13.76,13.76,0,0,0,75.24,45a7.45,7.45,0,0,0,2.27,2.82,2.87,2.87,0,0,0,1,.5,1.72,1.72,0,0,0,1.19-.28.81.81,0,0,1,.37-.12C80,48.17,79.8,48.41,79.62,48.63Z"/><path class="cls-1" d="M60.48,58.45c.14,0,.38-.18.35-.36s-.13-.2-.17-.26c-.25,0-.33.08-.34.31S60.33,58.41,60.48,58.45Z"/><path class="cls-1" d="M27.45,11a.7.7,0,0,0,0-.2c0-.84-.08-1.68-.13-2.52,0-.18-.07-.33-.29-.32s-.26.17-.25.35c0,.78.05,1.57.1,2.35C26.91,11,27,11,27.45,11Z"/><path class="cls-1" d="M28.3,13.7a.69.69,0,0,0,.42.2c.18,0,.1-.2.09-.33,0-.53-.06-1.06-.1-1.58a4.05,4.05,0,0,0-.12-.5c-.42.07-.43.07-.43.37,0,.53.05,1.06.07,1.59C28.24,13.53,28.24,13.66,28.3,13.7Z"/><path class="cls-1" d="M29.4,12.28c.48-.16.49-.16.48-.39,0-.53-.07-1.05-.11-1.59l-.52-.06A6.38,6.38,0,0,0,29.4,12.28Z"/><path class="cls-1" d="M27.3,13.62c0,.43,0,.87-.05,1.3a.29.29,0,0,0,0,.17c.1.1.22.24.33.25s.17-.18.18-.32c0-.46,0-.93,0-1.4a2.19,2.19,0,0,0-.12-.49l-.16,0A1.87,1.87,0,0,0,27.3,13.62Z"/><path class="cls-1" d="M29.44,15.85v1.68c0,.18,0,.3.25.3a.26.26,0,0,0,.28-.29c0-.42,0-.85,0-1.27S29.75,15.88,29.44,15.85Z"/><path class="cls-1" d="M27.7,16c0-.26-.18-.31-.46-.25v1.68c.59.08.68,0,.62-.54C27.82,16.6,27.75,16.31,27.7,16Z"/><path class="cls-1" d="M28.63,15.68a2.62,2.62,0,0,0-.25.22.27.27,0,0,0,0,.18c0,.37,0,.75,0,1.12a1.54,1.54,0,0,0,.14.36c.34-.26.38-.28.38-.55a7.6,7.6,0,0,0-.05-1.07C28.83,15.84,28.7,15.76,28.63,15.68Z"/><path class="cls-1" d="M27.66,12.69c0-.37,0-.74-.08-1.11,0-.16-.16-.21-.31-.2s-.23.12-.23.28,0,.43,0,.64C27.1,12.68,27.15,12.72,27.66,12.69Z"/><path class="cls-1" d="M29.6,14.3c-.07,0-.17.1-.21.18a1.32,1.32,0,0,0-.05.37,2,2,0,0,0,.05.33c.05.24.24.23.42.22a.25.25,0,0,0,.25-.31,3.06,3.06,0,0,0-.16-.68C29.88,14.34,29.7,14.29,29.6,14.3Z"/><path class="cls-1" d="M28.43,9.52c.1,0,.15-.21.19-.27,0-.27-.07-.45-.09-.63s-.13-.22-.28-.24a.25.25,0,0,0-.3.22,2.75,2.75,0,0,0,0,.7A.34.34,0,0,0,28.43,9.52Z"/><path class="cls-1" d="M28.73,14.27a.28.28,0,0,0-.42.11.91.91,0,0,0,.06.91C28.88,15.17,29,15,28.73,14.27Z"/><path class="cls-1" d="M28.41,10H28c-.12.69-.1.78.18,1C28.68,10.84,28.71,10.69,28.41,10Z"/><path class="cls-1" d="M29.82,9.71l-.08-.78-.6-.21.12,1Z"/><path class="cls-1" d="M29.6,12.83c-.18,0-.23.12-.25.27a.85.85,0,0,0,.13.59H30c0-.25,0-.45-.06-.64A.28.28,0,0,0,29.6,12.83Z"/><path class="cls-1" d="M10.25,21.47c-.06-.32-.06-2-.12-2.09s-.19-.13-.51,0c.08.69,0,1.36.07,2.13C9.92,21.44,10.05,21.53,10.25,21.47Z"/><path class="cls-1" d="M9.74,22.15a3.93,3.93,0,0,0,.18,1.62c.28,0,.47-.14.46-.39,0-.41-.1-.83-.16-1.28Z"/><path class="cls-1" d="M6,22.41c0,.34,0,.68,0,1h.69a4.63,4.63,0,0,0-.13-1.31C6.14,22.13,6.05,22.16,6,22.41Z"/><path class="cls-1" d="M8.6,22.23a2.17,2.17,0,0,0,.1,1.4l.48-.08c0-.32,0-.62,0-.91C9.11,22.17,9.11,22.17,8.6,22.23Z"/><path class="cls-1" d="M7.7,22.13c-.31,0-.35.06-.34.39a1.08,1.08,0,0,0,0,.31c0,.21,0,.47.2.61.4-.1.46-.15.46-.5s0-.5-.06-.8A1.43,1.43,0,0,0,7.7,22.13Z"/><path class="cls-1" d="M9,20.5l-.56.07a1.32,1.32,0,0,0,.11,1C9.17,21.44,9.3,21.13,9,20.5Z"/><path class="cls-1" d="M6.49,20.64l-.66.05a1.41,1.41,0,0,0,.17,1l.56-.11Z"/><path class="cls-1" d="M7.93,21c0-.37-.17-.45-.5-.31a.37.37,0,0,0-.19.22c0,.24,0,.49,0,.8l.66-.1A4.43,4.43,0,0,0,7.93,21Z"/><path class="cls-1" d="M6.51,19.66c0-.32-.14-.46-.46-.47s-.4.1-.41.4.11.41.4.41S6.51,19.9,6.51,19.66Z"/><path class="cls-1" d="M7.53,20.08c.17,0,.27-.11.28-.33a.42.42,0,0,0-.34-.45c-.14,0-.24.14-.24.36S7.35,20.08,7.53,20.08Z"/><path class="cls-1" d="M8.66,20.11c.17,0,.28-.11.28-.33s-.1-.39-.26-.4-.27.14-.28.38S8.5,20.1,8.66,20.11Z"/><path class="cls-1" d="M18.92,18.86a3,3,0,0,0-.07-.67.32.32,0,0,0-.23-.21c-.07,0-.19.13-.21.22a2.47,2.47,0,0,0-.05.54,6.92,6.92,0,0,0,.11,1.81l.46,0C18.93,20,18.93,19.41,18.92,18.86Z"/><path class="cls-1" d="M19.58,22l.12,0c.12-.15.31-.28.33-.44a4.46,4.46,0,0,0-.1-1.82c-.55,0-.58.05-.54.54s.07.92.11,1.39A1.57,1.57,0,0,0,19.58,22Z"/><path class="cls-1" d="M18.54,21.62c0,.48,0,1,0,1.47l.51,0a3.75,3.75,0,0,0,0-1.8C18.85,21.42,18.55,21.31,18.54,21.62Z"/><path class="cls-1" d="M20.08,18.79a1.2,1.2,0,0,0,0-.27c0-.11-.07-.27-.14-.29a1.81,1.81,0,0,0-.52,0s-.08.1-.07.15c0,.34.08.67.13,1C20.07,19.31,20.09,19.28,20.08,18.79Z"/><path class="cls-1" d="M19.6,22.55c-.16.08-.13.41,0,.75l.47-.05c.08-.28.12-.54-.09-.73A.52.52,0,0,0,19.6,22.55Z"/><path class="cls-1" d="M1,21.43c0-.12.05-.25.06-.38,0-.4,0-.81,0-1.21,0,0,0-.07,0-.09a.53.53,0,0,0-.16-.24c-.13-.06-.23,0-.29.14a.43.43,0,0,0-.06.22q0,.63.06,1.26C.59,21.31.71,21.42,1,21.43Z"/><path class="cls-1" d="M1.1,23.27V21.9c-.16.06-.32.07-.38.15A1,1,0,0,0,1.1,23.27Z"/><path class="cls-1" d="M31.11,19a2.5,2.5,0,0,0-.25-.14.66.66,0,0,0,0-1,.5.5,0,0,1,0-.13c-.05-.41-.11-.81-.14-1.22-.07-1.17-.13-2.33-.18-3.49s-.1-2.54-.12-3.82a19,19,0,0,0,0-2.13c-.1-.21-.05-1.21-.3-1.43S29.39,5,29,4.72a.67.67,0,0,0-.28-.14c-.35-.11-.7-.2-1-.32a2,2,0,0,0-1.38,0l-.43.15a.75.75,0,0,0-.57.81c0,.4,0,.79,0,1.19a2.19,2.19,0,0,1,0,.31h0a1.08,1.08,0,0,1-.21-.14c-.23-.23-.48-.46-.69-.71a.52.52,0,0,0-.52-.21,8.08,8.08,0,0,0-1,.24.79.79,0,0,0-.6.59c0-.12,0-.23-.05-.34A2.44,2.44,0,0,0,22,5.3c-.48-.83-1.65-.84-2.61-.74l-2.08.21a1.72,1.72,0,0,0-1.15.41,1.61,1.61,0,0,0-.26,1.2,8.31,8.31,0,0,0,.64,2.55,8.88,8.88,0,0,0-2.36-.74l-.63-.1c-.27-.9-.51-1.76-.78-2.6A7.16,7.16,0,0,0,11.56,3a1.23,1.23,0,0,1-.17-.32c-.3-.64-.6-1.29-.91-1.93a2.06,2.06,0,0,0-.37-.52A.56.56,0,0,0,9.56,0a.56.56,0,0,0-.39.51c-.05.3-.09.6-.11.9,0,.49,0,1,0,1.46A38.25,38.25,0,0,0,9.2,8.64c.08,1.08.21,2.17.29,3.25.16,2.08.3,4.16.45,6.27l-.59,0c0-.11,0-.18,0-.26,0-.86,0-1.72-.07-2.58a6.59,6.59,0,0,0-.1-1.09.89.89,0,0,0-.58-.75A1,1,0,0,1,8,13c-.18-.27-.39-.6-.81-.56-.59.06-1.17.11-1.75.21A.41.41,0,0,1,5,12.6a7.84,7.84,0,0,1-.88-.85,1.42,1.42,0,0,0-.78-.45l-.3.35c-.43-.23-.42-.23-.85,0a.53.53,0,0,1-.28,0c-.43-.06-.67.13-.67.55s0,1,0,1.46c0,.66,0,1.33,0,2s0,1.33,0,2a.64.64,0,0,1-.31.6c-.27.19-.53.4-.79.61a.46.46,0,0,0-.18.43Q.14,21.11.24,23c0,.19,0,.39,0,.59a.26.26,0,0,0,.29.28c.45,0,.9,0,1.35,0,.63-.06,1.25-.18,1.88-.26a1.16,1.16,0,0,0,1-.49l.54-.47v1.29a.46.46,0,0,0,.14.05c.7.06,1.39.09,2.09.17,1.09.11,2.19.24,3.29.4a.56.56,0,0,0,.49-.11c.3-.25.61-.5.9-.76a.78.78,0,0,1,.56-.24c1.14-.07,2.27-.17,3.4-.23.51,0,1.1-.05,1.62-.05,0,.17.06.38.1.54s0,.36.36.35c.56,0,1.12-.06,1.67-.09a7.87,7.87,0,0,0,1,0,6,6,0,0,0,.79-.62,1.53,1.53,0,0,1,1.16-.41.51.51,0,0,1,.36.12,1.15,1.15,0,0,0,.85.25,2.05,2.05,0,0,0,1.2-.27,3.62,3.62,0,0,1,2.58-.34,11.38,11.38,0,0,0,2.54.15,4,4,0,0,0,.56-.11c0-.84,0-1.61,0-2.37a.82.82,0,0,1,.25-.69A.39.39,0,0,0,31.11,19Zm-.49-1.16c0,.19.29.36.26.58s-.23.26-.51.12A5.31,5.31,0,0,0,28.51,18a4.11,4.11,0,0,0-1.71.09c-.21.06-.43.09-.68.14v-.54l.63-.05c.18-.63,0-.93-.63-1l0-.27a2.12,2.12,0,0,0,.5-.14.63.63,0,0,0,.23-.32c.09-.34-.07-.5-.74-.78.15-.26.44-.15.64-.24.18-.59-.05-.91-.65-.81L26,13.43h.56a.84.84,0,0,0,0-.74c0-.1-.19-.17-.31-.2s-.2,0-.34,0l0-.42.23-.08c.14,0,.35,0,.38-.16a1.85,1.85,0,0,0,0-.62c0-.06-.17-.12-.26-.13a1,1,0,0,0-.29.08c-.18-.49-.16-.52.35-.75a5.79,5.79,0,0,1,0-.61c0-.28,0-.57,0-.86,0-.55,0-.59-.56-.65a.68.68,0,0,1-.07-.2,1.48,1.48,0,0,1,0-.21,2.59,2.59,0,0,1,2.68-.15c.28.11.58.16.86.27a5.76,5.76,0,0,1,.61.3.74.74,0,0,1,.44.8c0,1.22,0,2.45.06,3.67C30.36,14.49,30.49,16.16,30.62,17.83Zm0,1.1-.09.13c-.72-.11-1.44-.27-2.16-.31s-1.45.08-2.21.12c-.1-.21-.09-.37.14-.45a4.56,4.56,0,0,1,4.05.37Zm-8.75.7c0-.3.2-.29.38-.31l.6,0C22.83,19.65,22.78,19.66,21.91,19.63Zm1,.36a1.38,1.38,0,0,1-1,0l1-.09Zm-.14-7.33v0a2.25,2.25,0,0,1,1.13-.35A3.52,3.52,0,0,1,24,13.54l-1.05.29Zm3,.23c-.05,0-.1,0-.13,0-.44-.24-.88-.48-1.3-.74a.43.43,0,0,1-.22-.26c0-.34-.05-.69-.07-1l.1-.06.61.46a4.5,4.5,0,0,0,.5.39C25.82,11.92,25.86,12.37,25.79,12.89Zm.12,1.41-1.74-.9v-.94c.25-.06.41.09.6.18l.44.22A1.18,1.18,0,0,1,25.91,14.3ZM25.73,11c0,.21,0,.42,0,.72-.17-.11-.29-.16-.39-.24-.33-.25-.62-.55-1-.76A.68.68,0,0,1,24,9.92a1.29,1.29,0,0,1,0-.25,1.24,1.24,0,0,1,.22,0l1.07.59A.64.64,0,0,1,25.73,11Zm-1.67,5.27-1,.55V16l1-.49ZM24,13.81c0,.44,0,.82,0,1.2a.33.33,0,0,1-.16.25c-.25.13-.51.24-.84.38,0-.56,0-1-.08-1.49Zm.07,2.7c0,.21.07.35.09.49.09.61,0,.77-.65.84a2.28,2.28,0,0,1-.37,0L23,17.08Zm.08-1.79a8.82,8.82,0,0,1,.06-1,5.55,5.55,0,0,1,1.47.7.67.67,0,0,1,.34.68c0,.16,0,.32,0,.54a7.26,7.26,0,0,1-1.67-.54A.54.54,0,0,1,24.11,14.72Zm.09.73A13.64,13.64,0,0,1,26,16v1l-1.75-.77ZM25,16.78c.14.06.27.13.41.18.62.25.63.27.48,1.06l-1.57-.55-.1-1Zm5.21-8.51c-.63-.23-1.31-.55-1.92-.77a3,3,0,0,0-2.42,0,.9.9,0,0,1-.24,0,4.34,4.34,0,0,1-.06-.62,2,2,0,0,1,1.5-.68,3.1,3.1,0,0,1,1.92.7c.29.22.62.38.91.58S30.24,7.73,30.23,8.27ZM26,4.59a2.2,2.2,0,0,1,1.89,0,1.14,1.14,0,0,0,.26.09,3.12,3.12,0,0,1,1.62,1c.16.15.5.49.35.82-.24-.24-.43-.45-.64-.65a2.77,2.77,0,0,0-1.09-.63c-.22-.06-.43-.14-.64-.22a2,2,0,0,0-2,.2l-.11.08h-.05C25.58,4.81,25.62,4.74,26,4.59Zm-.39,1A1.92,1.92,0,0,1,27.12,5a4.11,4.11,0,0,1,2.77,1.58,1.34,1.34,0,0,1,.34.79,10.79,10.79,0,0,1-1-.58A4,4,0,0,0,27.37,6a2.62,2.62,0,0,0-1.77.57C25.58,6.23,25.6,5.86,25.59,5.57Zm0,3.55c-.53-.35-1-.63-1.39-.92-.19-.13-.18-.15-.13-.73l1.21.46a.34.34,0,0,1,.2.21C25.53,8.43,25.55,8.72,25.59,9.12ZM24,6.75c0-.22,0-.44.06-.73a6.82,6.82,0,0,1,1.24,1.13c.09.1.08.3.12.45l-.1.09c-.35-.14-.7-.27-1-.43A.45.45,0,0,1,24,6.75ZM24,8.4a7.19,7.19,0,0,1,1.5,1c.18.19.13.47.09.79L24,9.25ZM24,11.91l-1.22.37c0-.42,0-.84-.07-1.26l1.23-.25Zm-.08-1.44-1.17.3a1.32,1.32,0,0,1-.07-.32v-.12a1.09,1.09,0,0,1,.06-.36,1.75,1.75,0,0,1,1.14-.29Zm-1.18-.84V8.57l1.09-.15a1.59,1.59,0,0,1,0,.23c0,.66,0,.66-.65.82Zm.44-3.54L23.84,6v.89L22.52,7C22.43,6.47,22.6,6.2,23.13,6.09Zm.67,1.16c0,.12.05.23.06.35,0,.48,0,.51-.47.59l-.67.13-.24-.92A1.55,1.55,0,0,1,23.8,7.25ZM21.07,13a.19.19,0,0,1,.19.17l.06.41.06.88a1.1,1.1,0,0,0,0,.16.53.53,0,0,1,.69.29,1.82,1.82,0,0,1,.17.44,3.84,3.84,0,0,1,.05,1.22c0,.1,0,.19-.16.22a.2.2,0,0,1-.26-.19c0-.27,0-.54,0-.81a.47.47,0,0,0-.18-.43.45.45,0,0,0-.32.46,7.31,7.31,0,0,0,0,.81c0,.21-.06.29-.22.34s-.18,0-.2-.09a2,2,0,0,1,0-.24c0-.83,0-1.67-.05-2.5,0-.24,0-.49,0-.73a1.09,1.09,0,0,1,0-.25A.22.22,0,0,1,21.07,13Zm-1.18-1.38a.27.27,0,0,1,.34-.29c.13,0,.2.07.2.2,0,.53,0,1.06-.05,1.59,0,.06,0,.13-.07.18a.37.37,0,0,1-.33.15c-.13,0-.13-.15-.13-.24C19.86,12.65,19.87,12.12,19.89,11.59Zm.07-1.2a.24.24,0,0,1,.27-.13c.14,0,.17.13.19.24a1.28,1.28,0,0,1,0,.21c0,.09,0,.16-.05.19a.54.54,0,0,1-.27.16c-.11,0-.16-.09-.18-.19A.58.58,0,0,1,20,10.39Zm.38,4.36A3.81,3.81,0,0,1,20.47,16s0,.05,0,.08c0,.19-.09.22-.35.2s-.28,0-.29-.24,0-.45,0-.68-.1-.76-.31-.64a4.38,4.38,0,0,0,0,.84c0,.2,0,.4,0,.61a.32.32,0,0,1-.05.19.28.28,0,0,1-.19.08s-.11-.07-.12-.11a.55.55,0,0,1,0-.22V14.16c0-.23.06-.25.4-.21l.06.37h.05C20,14.27,20.24,14.38,20.34,14.75Zm-.86-1.52c0,.07,0,.18-.29.17a.19.19,0,0,1-.17-.22V12.7a.31.31,0,0,0-.42-.31.14.14,0,0,0-.11.16l0,.62c0,.23,0,.25-.25.22l-.13,0c0-.06,0-.13,0-.19C18,12.81,18,11.37,18,11a.8.8,0,0,1,0-.27c0-.15.09-.18.22-.17s.18.07.19.21a1.88,1.88,0,0,1,0,.34c0,.26,0,.8,0,.8s.3-.06.39-.06a.56.56,0,0,1,.47.19.64.64,0,0,1,.13.26A3,3,0,0,1,19.48,13.23Zm-.87,1.19c0,.53,0,1.06,0,1.59a2.4,2.4,0,0,1,0,.24.23.23,0,0,1-.27.19h0s-.07,0-.08-.08a14.85,14.85,0,0,1-.07-1.57c0-.48.05-.68.3-.72.1,0,.16,0,.18.1A2.18,2.18,0,0,1,18.61,14.42Zm-2.1-5.17-.05,0a1.09,1.09,0,0,0-.5.1,15.39,15.39,0,0,1-3,.09l-.12-.9A4.18,4.18,0,0,1,16.51,9.25Zm-1,10.17h-.23v-.05A.69.69,0,0,0,15.56,19.42ZM13.25,19l-.07-.37L15,18.58c0,.12,0,.23,0,.34S15,19,15,19Zm1.73.28c-.26.18-.34.19-1.23,0Zm-.55-4.59c-.83,0-.94,0-1.07.67l1.29.06.13,1.14c0,.13,0,.26,0,.38H13.38a28.3,28.3,0,0,1-.12-4.41,1.8,1.8,0,0,1,1.1-.07.31.31,0,0,1,.28.31c0,.52,0,1,0,1.54A1.39,1.39,0,0,1,14.43,14.72Zm.14.45h-.83C14,14.87,14.16,14.85,14.57,15.17Zm-.05,2.06c.19,0,.28,0,.32.16s0,.15,0,.22,0,.08,0,.13H13.34l-.07-.43A9.23,9.23,0,0,1,14.52,17.23ZM13.41,18a1.18,1.18,0,0,1,.27,0l1,0c.19,0,.19,0,.23.32h-1.4a.44.44,0,0,1-.16-.06.29.29,0,0,1-.1-.18S13.36,18.05,13.41,18Zm1.34-7.49-1.63.19c0-.13,0-.25.1-.29a.88.88,0,0,1,.4-.17c.43,0,.86,0,1.29,0C15,10.44,14.9,10.54,14.75,10.55Zm.07.29a2,2,0,0,0-.09.59v.07l-.06.37-1.49-.12-.06-.68A6.34,6.34,0,0,1,14.82,10.84Zm-.36,1.34a10.88,10.88,0,0,1-1.31.06C13.42,11.93,13.85,11.92,14.46,12.18ZM15,10l-.59,0-1.3.06c-.07-.1-.06-.22.13-.25.37-.06.75-.12,1.12-.15a7.85,7.85,0,0,1,.84,0C15.2,9.87,15.14,10,15,10Zm-1.69-1.8-.44,0c-.27-1.31-.54-2.6-.81-3.89A15.78,15.78,0,0,1,13.28,8.18ZM9.6,9.93a2.22,2.22,0,0,1-.09-.37C9.4,8.08,9.25,6.61,9.2,5.12c0-1.28,0-2.57.05-3.86a2.59,2.59,0,0,1,.1-.62C9.48.23,9.8.16,10,.51a10.43,10.43,0,0,1,.7,1.22,20,20,0,0,1,1.78,6A50.52,50.52,0,0,1,13,16.12c0,.4,0,.79,0,1.18,0,.71,0,1.42-.08,2.22-.12-.12-.26.07-.27,0a2.62,2.62,0,0,1,0-.56,32.3,32.3,0,0,0-.15-4.17c-.07-.78,0-1.57-.09-2.35s-.11-1.78-.2-2.67-.22-2-.38-3a15.69,15.69,0,0,0-1.64-5,.67.67,0,0,0-.49-.41,12.9,12.9,0,0,0-.23,3.38c0,.74.14,1.47.16,2.22A26.71,26.71,0,0,1,9.6,9.93Zm2.7,5.27-2.07.07c-.11-.22-.07-.34.16-.37s.42,0,.63-.05.4-.09.41-.3a.39.39,0,0,0-.4-.44c-.28,0-.56,0-.93,0,.09-.14.1-.2.13-.2A3.25,3.25,0,0,1,12,13.72c.19,0,.31.12.3.33Zm-1.8-.87c.24,0,.55-.16.7.22a2.54,2.54,0,0,1-1,.1C10.12,14.35,10.36,14.33,10.5,14.33Zm.12-1.81a3.1,3.1,0,0,1,1.25-.06c.3.07.35.11.37.41s0,.37,0,.55c0,0,0,.05,0,0l-2.12.15a2.93,2.93,0,0,1,0-.37C10,12.55,10,12.65,10.62,12.52ZM10,12.36l0-.48a2.82,2.82,0,0,1,2.2-.19v.52Zm.45-5c-.26.09-.28.26-.13.73L10.66,8A5.83,5.83,0,0,1,11.38,8c.38,0,.46.1.52.48,0,.22.07.44.11.67l-2.15.09V8.84c.06-.81.08-1.63.19-2.44a17.74,17.74,0,0,1,.41-2,1.53,1.53,0,0,1,.31-.59,11.68,11.68,0,0,1,1,3.55A2.32,2.32,0,0,0,10.45,7.35Zm1.3.13a2.29,2.29,0,0,1,0,.25l-1.23.1c-.1-.2,0-.3.1-.35A3,3,0,0,1,11.75,7.48ZM9.89,1.72a5.94,5.94,0,0,1,.79,1.6.3.3,0,0,1,0,.22A8.65,8.65,0,0,0,10,5.78a3.34,3.34,0,0,0-.1.43H9.77A16.17,16.17,0,0,1,9.89,1.72Zm.43,7.68a11.35,11.35,0,0,1,1.17,0c.55,0,.59.07.52.66H9.94C9.77,9.57,9.83,9.44,10.32,9.4Zm-.43,1a4,4,0,0,1,2,0c.3.07.2.32.2.58A5.07,5.07,0,0,0,9.89,11Zm.15.87a3.09,3.09,0,0,1,1.9-.15c.09,0,.15.15.26.25L10,11.48A.15.15,0,0,1,10,11.23ZM8.88,15C9,15,9,14.94,9,15a0,0,0,0,1,0,0,.31.31,0,0,1,0,.08v3A17.06,17.06,0,0,1,8.88,15Zm-.49-1.24a.65.65,0,0,1,.28.64v2.81c0,.26,0,.52,0,.77a.43.43,0,0,1-.1.23A15.82,15.82,0,0,1,8.39,13.73Zm-.81-.64h.1a2.29,2.29,0,0,1,.41,1.27,14.42,14.42,0,0,0,.11,3.08c0,.2,0,.4,0,.59s-.06.24-.21.24-.21-.1-.22-.24,0-.09,0-.13c-.07-1.46-.15-2.91-.22-4.36A3.24,3.24,0,0,1,7.58,13.09Zm-1-.31c0,.18,0,.31,0,.44,0,1.51.07,3,.1,4.54,0,.15-.06.34.2.46a16.2,16.2,0,0,0,0-2.7c0-.91,0-1.81,0-2.75l.39,0c0,.12,0,.21.05.29.08,1.44.16,2.88.23,4.31,0,.3,0,.6,0,.93H6.17c-.07-1.8-.13-3.6-.2-5.43Zm-1.12.31c0-.06.08-.11.17-.24a1.54,1.54,0,0,1,.15.36c0,.33,0,.66,0,1,0,1.15.07,2.3.1,3.44v.7h-.4s-.06-.07-.06-.09C5.26,16.53,5.43,14.81,5.42,13.09ZM1.17,18.38c.17.15.12.28.05.43l-.64.12,0-.08Zm.25,5.17-.92.06a17.76,17.76,0,0,1-.2-4.39l1-.12C1.36,20.62,1.47,22.07,1.42,23.55Zm.73-.06-.44.05c0-.09,0-.14-.05-.2,0-1.42-.11-2.84-.15-4.27,0-1.18,0-2.36,0-3.54s0-2.18,0-3.27a.53.53,0,0,1,0-.22.28.28,0,0,1,.17-.11.22.22,0,0,1,.14.09.84.84,0,0,1,0,.27c0,.82.08,1.63.1,2.45,0,2.22.06,4.45.1,6.67,0,.36.08.72.1,1.08S2.15,23.12,2.15,23.49Zm.33-.09-.06-.52a62.25,62.25,0,0,1-.21-6.26c0-1.39-.1-2.78-.15-4.17,0-.24-.08-.51.36-.56a4.29,4.29,0,0,1,.07.59q.07,2.88.12,5.76a32.8,32.8,0,0,0,.23,4.21,5.23,5.23,0,0,1,0,.68C2.88,23.38,2.75,23.45,2.48,23.4ZM3.65,23c0,.37,0,.37-.47.35,0-.26-.09-.53-.11-.8A40.41,40.41,0,0,1,2.85,18c0-1.09,0-2.18,0-3.27,0-.79-.09-1.57-.13-2.36,0-.16,0-.33,0-.5.44.1.51.19.52.67s0,1,0,1.5c0,1,0,2,.07,3,.09,1.69.21,3.39.32,5.08C3.66,22.44,3.66,22.71,3.65,23Zm.33.23a1.26,1.26,0,0,1-.09-.31l-.21-3.8c0-.59-.1-1.18-.13-1.77,0-.77,0-1.54,0-2.31,0-1-.09-2-.14-2.94a.33.33,0,0,1,.25-.41c.16,3.84.32,7.61.48,11.38C4.09,23.1,4.05,23.13,4,23.22Zm1.22-.91a2.37,2.37,0,0,1-.86.64c-.25-3.67-.35-7.3-.49-11,.23.17.38.28.52.4s.13.17.22.23c.61.37.62,1,.61,1.58L5.14,17c0,.32,0,.63,0,.95s0,.36-.18.47c0,0-.06.19,0,.29.09.75.19,1.5.27,2.25,0,.38,0,.75.06,1.13A.29.29,0,0,1,5.2,22.31Zm.38,1.35c-.14-1.66-.28-3.28-.42-4.89a.72.72,0,0,1,.61-.19L9,18.47c.45,0,.89,0,1.35-.06.12,2,.24,3.89.36,5.81Zm6.32-.08a2.52,2.52,0,0,1-.82.63,17.05,17.05,0,0,1-.32-2.92,23.56,23.56,0,0,1-.15-3c.34.11.9.19,1.27.3.06.5.09,1,.12,1.48.07.92.11,1.84.17,2.76A.88.88,0,0,1,11.9,23.58Zm.19-5.18a7.14,7.14,0,0,0-1.76-.32l-.1-1a1.64,1.64,0,0,1,.82,0,.72.72,0,0,0,.67-.19c.26-.3.17-.61-.22-.66a11.73,11.73,0,0,0-1.19,0c-.12-.2-.12-.2-.1-.66a4.91,4.91,0,0,1,2.16,0c.14,1.31.12,3.94.12,3.94s-.25.09-.29,0A9.1,9.1,0,0,1,12.09,18.4Zm-1.84-1.72a.23.23,0,0,1,.14-.19,2.06,2.06,0,0,1,1.23,0l.05.12c-.1.07-.2.2-.31.21a5.9,5.9,0,0,1-.94,0A.2.2,0,0,1,10.25,16.68Zm1.95,3.14A6.35,6.35,0,0,1,13,19.7l4.32-.05c.14,0,.33,0,.43.24l-5.51.25ZM16.46,18a.17.17,0,0,1-.13.17l-.08,0A.17.17,0,0,1,16,18,9.38,9.38,0,0,1,16,17c0-.69,0-1.37-.06-2.06,0-.29,0-.57,0-.86s0-.2.24-.22.16.24.19.39.26,1.16.36,1.55a.06.06,0,0,0,.12,0,12.09,12.09,0,0,1,.5-1.86.09.09,0,0,1,.16,0,.41.41,0,0,1,.09.23,7.46,7.46,0,0,1,.1.95c0,.61.07,1.23.1,1.84,0,.1,0,.22-.11.27s-.32,0-.34-.16a5.56,5.56,0,0,1-.08-.7.68.68,0,0,0-.07-.27c-.1.19-.19.51-.28.73a.1.1,0,0,1-.15,0c-.14-.12-.32-.92-.34-.77C16.38,16.4,16.46,17.55,16.46,18Zm1.26,4.84a20.92,20.92,0,0,1-2.61.17c-.87.11-1.74.14-2.67.2l-.09-1.29a28.51,28.51,0,0,1,5.37-.23Zm0-1.56a40.36,40.36,0,0,1-5.39.24l0-.41a26.94,26.94,0,0,1,5.42-.29Zm-.12-.79a.82.82,0,0,1-.35.08l-4.53.19h-.22c-.21,0-.25-.12-.22-.35,1.8-.18,3.6-.23,5.41-.27l.09.1C17.74,20.31,17.7,20.42,17.62,20.47Zm0-7.06a1,1,0,0,1-.26.08,2.3,2.3,0,0,1-1-.11.62.62,0,0,1-.44-.49,3.87,3.87,0,0,1-.13-.84A3.61,3.61,0,0,1,16,11a.92.92,0,0,1,.38-.52,1.52,1.52,0,0,1,1.05-.24s0,0,0,.07,0,.3,0,.39-.23.09-.35.11a.61.61,0,0,0-.46.39,2.2,2.2,0,0,0-.19,1.18c0,.36.19.5.56.49h.36l.37,0a.44.44,0,0,1,.12.36A.26.26,0,0,1,17.64,13.41Zm.24-5c0,.32,0,.63-.07.93a2.08,2.08,0,0,1,0,.36.28.28,0,0,1-.33.2.32.32,0,0,1-.29-.29c0-.17,0-.33,0-.5A8.51,8.51,0,0,0,17,6.94,3.36,3.36,0,0,1,17,6.31c0-.19.07-.23.27-.24a.25.25,0,0,1,.3.23c0,.17,0,.34.05.5s.08.4.11.61.1.18.24.17.36-.07.35-.31-.05-.53-.07-.79a1.47,1.47,0,0,1,0-.21c0-.2.07-.24.27-.24s.27,0,.28.23a9.76,9.76,0,0,1,.05,1.08,10.85,10.85,0,0,1-.08,2.13c0,.15-.09.23-.27.26s-.25,0-.26-.17,0-.34,0-.5,0-.32,0-.48S18.17,8.39,17.88,8.37Zm2.7,11.2c0,1.21,0,2.42-.07,3.63,0,.11,0,.21,0,.38a14.45,14.45,0,0,1-2.34.12c0-.07-.17-2.59-.17-3.1s0-1,0-1.5.11-1.05.17-1.6a2.91,2.91,0,0,1,.55-.1c.46,0,.93,0,1.4,0s.47.11.48.46C20.59,18.45,20.58,19,20.58,19.57Zm-.51-9.8c-.11,0-.22,0-.33,0-.29,0-.41-.15-.43-.4q-.07-1-.12-2c0-.31,0-.63,0-1s.14-.49.59-.4a2,2,0,0,0,.35,0,.56.56,0,0,1,.61.39,2,2,0,0,1,.13.59c0,.48,0,1,0,1.48-.08.29-.16.6-.27.91A.48.48,0,0,1,20.07,9.77Zm.6,13.8c0-2,.1-3.94.15-5.87H21a2.16,2.16,0,0,1,.55.29l.11.15a1.93,1.93,0,0,1,.06.73c0,1.1,0,2.21.08,3.3C21.82,23,21.45,23.31,20.67,23.57Zm2.07-1-.74.08c-.05-.79-.08-1.5-.12-2.27l1.06-.08c0,.21,0,.37,0,.53,0,.46,0,.91.06,1.37C23,22.44,23,22.56,22.74,22.59Zm.41-2.89c0-.5-.06-1-.08-1.49l1.09-.29c.16.54.14.59-.31.79-.14.06-.29.09-.43.16s-.11.13-.17.2l.06.09.9-.33c0,.12.06.18.07.23.09.57,0,.64-.49.81l-.6.18C23.18,19.92,23.15,19.81,23.15,19.7Zm1.12.28v.94l-1.06.18,0-.76ZM23.2,21.63c0-.1.11-.21.2-.27a1.25,1.25,0,0,1,.91-.1l0,.7-1,.14-.1.28A6.3,6.3,0,0,1,23.2,21.63Zm.05.76,1.07-.18.08.63C23.81,23.19,23.28,23,23.25,22.39Zm1.16-4.55a2.25,2.25,0,0,1,.4.06c.28.08.55.18.82.28s.32.13.33.63c-.54-.16-1-.3-1.55-.44Zm0,.85a3.46,3.46,0,0,1,1.49.44.32.32,0,0,1,.11.23,5,5,0,0,1,0,.56,3.59,3.59,0,0,1-1.48-.29c-.06,0-.11-.14-.12-.21C24.43,19.2,24.44,19,24.44,18.69Zm1.62,1.54.08.74-1.62-.19L24.45,20A9,9,0,0,1,26.06,20.23Zm-.18,2.2a3.24,3.24,0,0,1-1.22.47l-.14-.68,1.61-.41C26.19,22.27,26.19,22.27,25.88,22.43Zm-1.34-.5,0-.8a3.39,3.39,0,0,1,1.72.16A2.39,2.39,0,0,1,24.54,21.93Zm6.16.19c0,.4,0,.42-.44.44a8.67,8.67,0,0,1-1.14,0c-.75-.07-1.5-.17-2.25-.26a3.82,3.82,0,0,1-.5-.14l-.1-1.11a8.6,8.6,0,0,1,2.91-.29,4.81,4.81,0,0,1,1.05.23c.42.14.46.23.47.66Zm-.05-1.2a7.79,7.79,0,0,0-3.35-.28c-.26,0-.75.16-1,.22l-.09-1a6.23,6.23,0,0,1,2.27-.38,4.19,4.19,0,0,1,1.74.41C30.76,20.2,30.77,20.2,30.65,20.92Zm.09-1a5.86,5.86,0,0,0-4.51-.25c-.08-.37-.05-.55.23-.59a6.27,6.27,0,0,1,.86-.09,8,8,0,0,1,1.76,0c.38.08.63.1,1,.2.2.05.59.06.72-.18,0-.07.19,0,.21.12C31.07,19.58,30.79,19.65,30.74,19.94Z"/><path class="cls-1" d="M20.2,7.05A.32.32,0,0,0,20,6.73a.5.5,0,0,0-.16.44c0,.21,0,.42,0,.63,0,.36.05.72.08,1.08,0,.13.08.19.24.14a.25.25,0,0,0,0-.09,3,3,0,0,0,.09-1.12A6.51,6.51,0,0,0,20.2,7.05Z"/></g></g></g></svg>