<svg xmlns="http://www.w3.org/2000/svg" viewBox="0 0 47 101.4"><defs><style>.cls-1{fill:#643519;}.cls-2{fill:#7c4821;}</style></defs><g id="圖層_2" data-name="圖層 2"><g id="event"><g id="deco_sw"><path class="cls-1" d="M30.1,96.45a4,4,0,0,0-1.1-.28c0-.32,0-.64,0-1s.08-.75.09-1.13L29.3,94c.34-.22.19-.56.05-.85a4.15,4.15,0,0,0-1-1.64,5.59,5.59,0,0,0-2.19-.39c-.82-.15-1.63-.43-2.46-.51a3.24,3.24,0,0,0-2.23,1c0-.17.05-.34.08-.5A5.86,5.86,0,0,0,21.63,90a.22.22,0,0,0,0-.11,1.59,1.59,0,0,0-.69-1.32,9.31,9.31,0,0,0-.1-2,1.85,1.85,0,0,0-1.45-.67h-.11c0-.41,0-.83.05-1.25.14,0,.73-.31.62-.33a3.94,3.94,0,0,0-.61-.06c0-.33-.26-1.35-.29-1.11s-.07.73-.09,1.09a8.25,8.25,0,0,0-.86,0c-.25,0,.55.41.84.43h0c0,.42,0,.85-.06,1.27a0,0,0,0,0,0,0,3.4,3.4,0,0,0-.5.1,1.58,1.58,0,0,0-.87.61c-.41.4-.33,1.3-.31,1.78h0a1.25,1.25,0,0,0-.81.74c-.63,1.48-.4,3.28-.59,4.87a2,2,0,0,0-1.19-.54.77.77,0,0,0-.33.12s0,0-.09,0c-.95,0-1.89.1-2.83.1l-.08,0a3.93,3.93,0,0,0-1-1,.87.87,0,0,0-.88,0l0,0a12.31,12.31,0,0,0-1.51-.12c-.71-.08-1.45,0-2.16-.13H5.62c0-.59-.23-1.14-.93-1.24a1.68,1.68,0,0,0-.5,0A3.63,3.63,0,0,1,3,91.09a2,2,0,0,0-1.3.23,1.78,1.78,0,0,0-.31.23A6.14,6.14,0,0,1,.76,92a.79.79,0,0,0-.33.83c.26.83,1.36.4,2,.18.14.29.44.35.81.25s.51-.29.87-.29c-.67.75-1.35,1.49-2,2.24-.2.22-.68.66-.53,1s.8.16,1.14.28a2.18,2.18,0,0,0-.06.22,13.07,13.07,0,0,0-.2,2.17c-.3,0-.6,0-.9,0a.2.2,0,0,0,0,.39,29.18,29.18,0,0,1,3.36.46c.49.06,1,.1,1.46.19a4,4,0,0,1,.94.3l.11.08v.05l-.91.59c-.31.21,0,.71.3.51.59-.4,1.18-.78,1.78-1.14a5.27,5.27,0,0,0-.39.79c0,.1.1.19.15.08.18-.37.38-.72.59-1.07h0c.34-.19.68-.38,1-.56a.61.61,0,0,1-.07.1c-.16.23-.31.46-.45.71-.05.08.08.18.14.1s.34-.45.5-.68a5.19,5.19,0,0,0,.36-.46l.17-.08.62-.27a5.71,5.71,0,0,0-.58.72c-.06.08.07.17.13.1.24-.28.45-.57.68-.85a.07.07,0,0,0,0-.07c.27-.12.55-.22.83-.32a1.37,1.37,0,0,0-.13.2.09.09,0,0,0,.15.1,5.19,5.19,0,0,0,.37-.45l.65-.21a7,7,0,0,0-1.22,1.38c-.06.09.09.19.15.11a15.27,15.27,0,0,1,1.37-1.53.09.09,0,0,0,0-.07l1.19-.34a4.1,4.1,0,0,0-.53.49c-.07.07,0,.2.11.13l1-.77.7-.17a11.17,11.17,0,0,0-2.45,2.05.09.09,0,1,0,.13.12c.52-.44,1-.9,1.56-1.31s1-.65,1.45-1c1-.2,2-.35,3-.45a10.38,10.38,0,0,0-2.93,1.64c-.1.07,0,.22.09.15a23.29,23.29,0,0,1,3.72-1.82.12.12,0,0,0,.05,0l.49,0a4.21,4.21,0,0,0-.48.35c-.09.07,0,.22.12.15a6.09,6.09,0,0,1,.8-.52l.58,0c-.14.1-.27.21-.39.31s0,.21.11.15c.25-.18.52-.3.77-.47h.3l1.28,0a7.94,7.94,0,0,0-.79.74c-.08.08,0,.18.12.12.35-.29.69-.61,1.06-.87.38,0,.76,0,1.14,0a2.18,2.18,0,0,0-.49.37c-.09.09.05.22.14.13a3,3,0,0,1,.74-.46,0,0,0,0,0,0,0l.69.06a.49.49,0,0,0-.13.12c-.05.08,0,.16.12.14a.5.5,0,0,0,.19-.1.59.59,0,0,0,.18-.13l.5,0a6.82,6.82,0,0,1,2,.28C30.15,97.1,30.44,96.6,30.1,96.45Zm-8.85-6.7a1.84,1.84,0,0,1-.33,0l.29-.23A1.18,1.18,0,0,1,21.25,89.75Zm-.8,1.54c0-.14-.11-.26-.27-.25h-.05a6.69,6.69,0,0,0-.06-.9h.43C20.48,90.53,20.46,90.91,20.45,91.29Zm-.11-1.52c.24-.19.5-.37.73-.57a1,1,0,0,1,.12.25c-.14.1-.27.22-.4.33Zm.68-.63c-.26.18-.5.39-.74.59a0,0,0,0,0,0,0c-.15,0-.3,0-.45,0h0l1-.77A.57.57,0,0,1,21,89.14Zm-1.94.71H19a1.8,1.8,0,0,1,.16-.38,1.31,1.31,0,0,1,1.46-.63A3.67,3.67,0,0,0,19.08,89.85Zm1.62-.95.09,0h0a6.84,6.84,0,0,0-1.12.82l-.49.07A4,4,0,0,1,20.7,88.9Zm-2.83-2c.23-.14,1,0,1.25,0h.62c.32,0,.39,0,.57.16a2.91,2.91,0,0,1-1.51.12c-.06,0-.06.09,0,.11a1.94,1.94,0,0,0,1.63-.1.91.91,0,0,1,.11.22,1.06,1.06,0,0,1-.19.06c-.12,0-.25,0-.38.08s0,.07,0,.08a1.21,1.21,0,0,0,.61-.09s0,.1,0,.15a2,2,0,0,1-.55.13,3.57,3.57,0,0,0-.65.06c-.05,0,0,.09,0,.09a2,2,0,0,0,1.21-.14,5.85,5.85,0,0,1,0,.6l-.26,0a1.76,1.76,0,0,0-1.44.77,1.46,1.46,0,0,0-1.3-.75C17.54,87.93,17.45,87.1,17.87,86.87ZM15,94c.36.1,1.28.78,1.36,1.14.12.51-.42,0-.59-.18-.53-.41-1-.91-1.55-.36l-.08.09h0c0-.06,0-.08,0-.15a0,0,0,1,0-.08,0c0,.07,0,.18.07.2h0l-.36.36c0-.12,0-.24,0-.37h0C14,94.29,14.38,93.82,15,94Zm.3,2.94c.05-.6.07-1.21.06-1.81l.27.26c0,.49,0,1-.07,1.48Zm-2.77.81c0-.35,0-.71,0-1.06l.38-.33c0,.42,0,.84,0,1.26Zm1.09-2.55a2,2,0,0,1,0-.34h0l0,0a1,1,0,0,0,.05.34ZM13.47,95a1.13,1.13,0,0,0,0,.32l-.13.12a0,0,0,0,0,0,0,1.67,1.67,0,0,0-.05-.31Zm-.2.19a1.84,1.84,0,0,0,.05.25.05.05,0,0,0,0,0l-.25.23a2.65,2.65,0,0,0-.06-.3h0Zm-.3.29a1.55,1.55,0,0,1,0,.21s0,.06,0,.09l-.15.13s0-.06,0-.09a1.55,1.55,0,0,1,0-.22Zm-.2.22a.92.92,0,0,0,0,.29l-.13.11a.22.22,0,0,1,0-.08.76.76,0,0,1,0-.15Zm-.21.44s0,0,0,0h0A.13.13,0,0,0,12.56,96.09Zm.41.19.41-.35.18-.15a12.78,12.78,0,0,0-.06,1.64l-.52.16C13,97.15,13,96.71,13,96.28Zm.68-.57a5.8,5.8,0,0,0,.52-.47,11.19,11.19,0,0,0-.07,2l-.51.15C13.6,96.83,13.63,96.27,13.65,95.71Zm1.57-.23a.15.15,0,0,0-.06-.09c-.05,0-.21,0-.38.07,0-.2,0-.39,0-.58a.76.76,0,0,1,.36.1l.1.07Zm-.55,0a1.21,1.21,0,0,0-.43.28q0-.32,0-.63a.8.8,0,0,1,.45-.27C14.7,95.09,14.69,95.3,14.67,95.5Zm-.45.64c0-.09,0-.19,0-.29a3.87,3.87,0,0,0,0,.76.19.19,0,0,0,.14.13.57.57,0,0,0,.24,0c0,.13,0,.26,0,.39l-.44.11C14.21,96.86,14.2,96.5,14.22,96.14Zm.51.54c.22-.07.45-.2.46-.27v.53l-.5.13Zm-.9-2.7-.28.32a15,15,0,0,0-1.11,1.14,8,8,0,0,0-.92-1.37C12.29,94.06,13.06,94,13.83,94Zm-4.78-.26a.38.38,0,0,1,0,.1.66.66,0,0,1,0,.14c0,.14,0,.11-.12-.11A1.47,1.47,0,0,0,9.05,93.72Zm.1-.12v.11l0,0v0Zm.19,0h-.1v-.09a.36.36,0,0,0,.07-.1A.57.57,0,0,0,9.34,93.55ZM8.83,94v.09c0,.19,0,.19-.05,0,0,0,0,0,0,0Zm-.13.17v0a.54.54,0,0,1,0,.25c0,.1,0,.1-.06,0a.23.23,0,0,1-.07-.07v-.07l.08-.12A.1.1,0,0,1,8.7,94.16Zm-.2.27a.37.37,0,0,1,0,.18c0,.19-.07.09-.09,0A1.3,1.3,0,0,0,8.5,94.43Zm-.18.35V94.7h0Zm-.09,0V95a.78.78,0,0,1,0-.16ZM8.11,95v.3a.53.53,0,0,1,0-.17v-.07Zm-.24,1h0l0,.08Zm-.07.32v-.18s0,0,0,0A1.54,1.54,0,0,0,7.8,96.36ZM7.94,96v0s0,0,0,0H8Zm-.54.11a1.37,1.37,0,0,1,0,.19s0-.1,0-.14Zm-.56,1s0,0,0,0h0l0,0ZM8,95.78H8Zm.06-.12v-.18l0,.07h0S8.11,95.63,8.09,95.66Zm.13-.24v-.15l0,.07h0Zm.12-.2v-.17l0,0a0,0,0,0,0,.08,0v-.21l0,.06a0,0,0,0,0,.08,0,2.33,2.33,0,0,0,.05-.28.12.12,0,0,0,.13.07C8.58,94.85,8.46,95,8.34,95.22Zm.48-.85,0,0h0l-.08.12Zm.12,0V94.1a.6.6,0,0,0,.13.09Zm.22-.3a.81.81,0,0,0,0-.16h0a0,0,0,0,0,.08,0v-.08a.2.2,0,0,0,.08,0A1.77,1.77,0,0,0,9.16,94.05Zm1.47-.47h0l-.17,0a.83.83,0,0,0,.07-.13Zm.48.59.05.07a1,1,0,0,0-.11.17c-.08.08-.16.12-.19,0s.07-.27.16-.38Zm.31.4-.09.08a.17.17,0,0,1-.11-.06.19.19,0,0,1-.05-.17.27.27,0,0,0,.07-.08Zm-.2.41s0-.11.1-.18a1,1,0,0,0,.17-.12l.15.2C11.55,94.93,11.31,95.14,11.22,95Zm.48,0,.12.18a.6.6,0,0,1-.32.12A.49.49,0,0,1,11.7,95Zm-.95-.84L10.64,94a1.11,1.11,0,0,0,.1-.29l.21.24A1.16,1.16,0,0,1,10.75,94.12Zm-.31,0v0h0Zm.33.15a1.11,1.11,0,0,1-.07.16l-.07-.09A.37.37,0,0,0,10.77,94.28Zm.24.25a.25.25,0,0,0,0,.25.17.17,0,0,0,.13,0l-.06.11c-.09-.12-.19-.23-.29-.35A.64.64,0,0,0,11,94.53Zm.44.59a.75.75,0,0,0,0,.16l-.08-.1A.38.38,0,0,0,11.45,95.12Zm.27.19a.78.78,0,0,0-.07.23c0,.08.11.11.12,0a.78.78,0,0,1,.12-.32,1.74,1.74,0,0,1,.1.19,1,1,0,0,0-.13.16.3.3,0,0,1-.15.05h0l-.12-.17-.08-.1A1.35,1.35,0,0,0,11.72,95.31Zm0,.46,0,0h.06Zm.08.12a.39.39,0,0,0,0-.06.64.64,0,0,1,.08-.14.33.33,0,0,0,.13-.11l.06.15h0l-.19.18-.06,0A.25.25,0,0,1,11.83,95.89ZM10.36,93.3a.32.32,0,0,0-.1.17.69.69,0,0,1-.18,0,1,1,0,0,0,0-.38A2,2,0,0,1,10.36,93.3Zm-.12.59-.07-.09a.06.06,0,0,0,.06,0S10.24,93.86,10.24,93.89ZM10,93.05a.7.7,0,0,0-.11.23H9.83l-.09.07a.7.7,0,0,0,0-.32l0,0A.54.54,0,0,1,10,93.05Zm-.38,0h0a.88.88,0,0,0-.06.48l0,0a2.75,2.75,0,0,0-.06-.43v0ZM1.89,96c0-.07.62-.76.75-.89C3.27,94.4,3.9,93.71,4.52,93l.34.1h0a1.24,1.24,0,0,1,.42.54v.08s0,.08.08.07a.06.06,0,0,0,.1,0v0a.06.06,0,0,0,0-.07h0a.74.74,0,0,0,.09-.36.15.15,0,0,0,0-.16s0,0,0,0,0-.2,0-.3c.67.1,1.34.08,2,.14.31,0,.65.08,1,.1A1.61,1.61,0,0,0,9,93L9,93a2.57,2.57,0,0,1-.28.37c-.23.32-.46.63-.68,1-.5.76-1,1.53-1.5,2.29-.37,0-.74,0-1.11-.1-.77-.09-1.57-.35-2.33-.38a.59.59,0,0,0-.2,0C2.62,96,2.06,96.19,1.89,96Zm5.29,3.7a6.63,6.63,0,0,0-1.81-.37c-.87-.12-1.73-.31-2.6-.42l0-.32a3.86,3.86,0,0,0,.66.2,6.06,6.06,0,0,0,1,.15s0-.07,0-.07a8.22,8.22,0,0,1-1.61-.39l.06-.52a1.61,1.61,0,0,0,.52.11,0,0,0,0,0,0-.08l-.52-.13.06-.47a3.32,3.32,0,0,0,.63.11s0,0,0-.07a3.06,3.06,0,0,0-.63-.13A1.24,1.24,0,0,0,3,97a.34.34,0,0,0,0-.09,6.6,6.6,0,0,0,1.32.15s0-.06,0-.07A9.44,9.44,0,0,1,3,96.83c0-.19.09-.21.37-.2s.84.13,1.26.2a20.51,20.51,0,0,0,2.06.2.69.69,0,0,0,.32.35.62.62,0,0,0,.62-.07c-.07.66-.1,1.32-.15,2a1.87,1.87,0,0,0-.47,0,0,0,0,1,0,0,.08,2.49,2.49,0,0,1,.46.05c0,.12,0,.25,0,.37Zm3.58-1.27a24.24,24.24,0,0,0-3,1.59c.09-.63.15-1.25.19-1.89a8.42,8.42,0,0,1,.11-1.33,5.48,5.48,0,0,1,.78-1.66C9,95,9.55,93.89,9.75,94s.78.87,1,1.11a3.9,3.9,0,0,1,1.12,2.79.18.18,0,0,0,0,.11Q11.33,98.17,10.76,98.41ZM12,96.33a1.69,1.69,0,0,0-.12-.28,1.16,1.16,0,0,0,.21-.16h0A.44.44,0,0,1,12,96.33Zm.42.4c0,.34,0,.69,0,1l-.19.07a5.1,5.1,0,0,0-.06-.9Zm3.18.11c0-.46.06-.92.07-1.38a.6.6,0,0,1,.08.08,4.85,4.85,0,0,0,0,.66c0,.12,0,.22,0,.34s0,.16.05.24Zm2.89-.54c-.5.07-1,.14-1.51.24l-.75.15a3.64,3.64,0,0,0-.07-.44,2,2,0,0,1,0-.49.32.32,0,0,0,.17,0,.64.64,0,0,0,.53-.52c0-.28-.43-.68-.74-.94.14-.93.15-1.89.25-2.82.05-.52.08-1.06.18-1.57a8,8,0,0,0,.91.16c.33,0,.67.13,1,.17a4.11,4.11,0,0,0,0,.7A45.45,45.45,0,0,1,18.52,96.3Zm0-6.44a13.89,13.89,0,0,1-1.9-.3,1.15,1.15,0,0,1,.52-.75,1.12,1.12,0,0,1,1.46.78A2.76,2.76,0,0,0,18.54,89.86Zm2.26,6.22-.45,0a2.25,2.25,0,0,0,0-.26,1.13,1.13,0,0,0-.05-.41s-.11-.06-.12,0a3,3,0,0,0,0,.42,2.35,2.35,0,0,1,0,.27l-.4,0a7,7,0,0,0-.06-1.72s-.08,0-.08,0c0,.57,0,1.15,0,1.72l-.47,0a4.3,4.3,0,0,0,.13-1.33s-.07,0-.07,0a7.63,7.63,0,0,1-.14,1.35l-.26,0c0-1.33.12-2.65.11-4,0-.55-.13-1.08-.16-1.63a2.41,2.41,0,0,1,0-.38l.24,0a7.28,7.28,0,0,0,.11,1.4,0,0,0,1,0,.08,0,7.37,7.37,0,0,0-.08-1.41,4.65,4.65,0,0,1,.74-.08,5.84,5.84,0,0,0,0,.93c-.3.12-.28.5-.29.56a.75.75,0,0,0,0,.26A.19.19,0,0,0,20,92c.17,0,.38,0,.44-.21a1.79,1.79,0,0,0,.05-.29c0,.65,0,1.3,0,1.93a0,0,0,0,0,.08,0,30.46,30.46,0,0,0,0-3.31h.27c0,.35,0,.7,0,1a0,0,0,1,0,.07,0c0-.34,0-.69,0-1l.3,0a9.58,9.58,0,0,1-.14,1.14c-.09.59-.19,1.18-.25,1.78A15.22,15.22,0,0,0,20.8,96.08Zm2.86-.14-.42,0c0-.55.1-1.1.1-1.64a1.35,1.35,0,0,0-.16-.82,1.06,1.06,0,0,0-.38-.12c-.37,0-.46.6-.51.84A8.93,8.93,0,0,0,22.13,96l-.95,0a12.26,12.26,0,0,1,.08-3l.06,0c.4-.34.85-.62,1.28-.93s.65-.31,1,.22l.35.43c.79,1,.28,2.1.3,3.22Zm4.75-1.84a6.67,6.67,0,0,0-.25,2h-.28c.07-.68.16-1.35.22-2Zm-.63,2h-.21c.11-.67.19-1.37.25-2l.19,0A9.77,9.77,0,0,0,27.78,96.07Zm-.29,0-.25,0H27.1a16.2,16.2,0,0,0,.16-2.09h0l.43.06A10.15,10.15,0,0,0,27.49,96.05ZM27,96l-.3,0a13.24,13.24,0,0,0,.23-2.08l.26,0A16.08,16.08,0,0,0,27,96Zm-.41,0h-.14l.09-1c0-.15,0-.31,0-.47a2.42,2.42,0,0,1,.06-.65l.21,0C26.73,94.58,26.67,95.29,26.59,96Zm-.14-1.23c0,.41-.08.81-.11,1.22L26,96c.08-.69.13-1.4.19-2.1l.33,0A2.68,2.68,0,0,0,26.45,94.75ZM25.94,96h-.19c.05-.7.13-1.41.17-2.11h.22A10,10,0,0,0,25.94,96Zm-.3,0h-.16c.08-.69.11-1.42.12-2.12h.24A10,10,0,0,0,25.64,95.94Zm-.25,0h-.27c.07-.71.11-1.42.18-2.13h.22A11.72,11.72,0,0,0,25.39,95.93Zm-.36,0h-.19c.12-.69.19-1.4.26-2.1,0,0-.05,0-.05,0-.12.7-.23,1.41-.3,2.11h-.07c0-.71.18-1.43.17-2.14h.36A13.94,13.94,0,0,0,25,95.93Zm3.6-.68a8.42,8.42,0,0,0,0,.87l-.33,0c0-.31,0-.61.07-.92s.11-.71.15-1.07h.22C28.71,94.5,28.66,94.87,28.63,95.25Zm-.33-1.61c-1.17-.1-2.33-.22-3.5-.25A3.85,3.85,0,0,0,24,92.14c-.26-.36-.54-.9-1.06-.78A3.14,3.14,0,0,0,22,92c-.23.16-.47.32-.69.49,0-.1,0-.2,0-.29a10.42,10.42,0,0,1,1.51-1.08c1.05-.47,2.58.31,3.66.44.85.1,1.54,0,2,.87a2.94,2.94,0,0,1,.4.79C29,93.76,28.7,93.67,28.3,93.64Z"/><path class="cls-1" d="M17.16,90.8c-.34,0-.46.78-.44.91a.2.2,0,0,0,.14.13.77.77,0,0,0,.45,0c.18-.06.32-.7.27-.84A.38.38,0,0,0,17.16,90.8Z"/><path class="cls-1" d="M9,97a.21.21,0,0,0-.19.2c0,.14,0,.72.05.81a.23.23,0,0,0,.15.19A1.66,1.66,0,0,0,9.84,98a2.74,2.74,0,0,0-.11-.91C9.67,96.82,9.26,97,9,97Z"/><path class="cls-1" d="M11.1,96.69c-.15-.08-.7.21-.71.27a2,2,0,0,0,0,.59c0,.18.15.36.3.31s.43-.1.54-.27S11.27,96.79,11.1,96.69Z"/><path class="cls-1" d="M10.25,95.3c-.13,0-.8-.06-.8.13a2.1,2.1,0,0,0,0,.56.18.18,0,0,0,.18.14,3.6,3.6,0,0,0,.49,0,.38.38,0,0,0,.27-.36C10.42,95.58,10.42,95.36,10.25,95.3Z"/><path class="cls-1" d="M6.05,98.56c0-.13,0-.51.06-.59A.19.19,0,0,0,6,97.8a3.34,3.34,0,0,0-1-.24.92.92,0,0,0-.76.11s-.06.83,0,.83a10.1,10.1,0,0,1,1.52.2A.2.2,0,0,0,6.05,98.56Z"/><path class="cls-1" d="M5.07,95.2c.13,0,.29,0,.41,0s.1-.23.13-.35a3.45,3.45,0,0,0,.1-.56c0-.29-.6-.38-.81-.44s-.22.23-.23.26a3.18,3.18,0,0,0,0,.62c0,.14,0,.34.07.45S4.94,95.2,5.07,95.2Zm.09-1,.1,0a1.37,1.37,0,0,0-.35.33s0-.09,0-.13a2.5,2.5,0,0,0,.24-.22Zm.17.52a.06.06,0,0,1,0,0,2.43,2.43,0,0,1-.14.2h-.1l.26-.3A.17.17,0,0,1,5.33,94.7Zm-.39.23s0,0,0,0h0a.4.4,0,0,1,0-.11s0,0,0,0,.17-.18.26-.27a1.8,1.8,0,0,0,.2-.19.69.69,0,0,1,0,.13,1.84,1.84,0,0,0-.39.44Zm.17-.45a2.43,2.43,0,0,0-.2.25v-.09c.14-.15.29-.27.43-.41h0l0,0A1.18,1.18,0,0,0,5.11,94.48Zm-.18-.2a1,1,0,0,1,0-.17l.11,0Zm.35.67h0S5.28,95,5.28,95Z"/><path class="cls-1" d="M14.09,98.6a.1.1,0,0,0,0-.2C14,98.4,14,98.6,14.09,98.6Z"/><path class="cls-1" d="M11.44,99.43v0a.1.1,0,0,0,.14.14h0a.11.11,0,1,0-.16-.15Z"/><path class="cls-1" d="M20.43,97.23a5.52,5.52,0,0,0-1,.79c-.08.07,0,.17.11.11a12.19,12.19,0,0,1,1-.76C20.6,97.31,20.52,97.17,20.43,97.23Z"/><path class="cls-1" d="M26.51,97.17a.15.15,0,0,0,0,.29A.15.15,0,0,0,26.51,97.17Z"/><path class="cls-1" d="M28,97c-.17,0-.16.27,0,.27A.14.14,0,0,0,28,97Z"/><path class="cls-1" d="M3.67,98s-.06.09,0,.09a.53.53,0,0,0,.28,0,0,0,0,0,0,0-.07A.8.8,0,0,0,3.67,98Z"/><path class="cls-1" d="M6.56,99.24C6,99.12,5.5,99.07,5,99c0,0,0,0,0,.06a5.14,5.14,0,0,0,1.59.3A0,0,0,0,0,6.56,99.24Z"/><path class="cls-1" d="M13.89,94.87a1,1,0,0,0,0-.24.05.05,0,0,0-.1,0,1.93,1.93,0,0,0,0,.24S13.89,94.9,13.89,94.87Z"/><path class="cls-1" d="M14.19,94.49s.06,0,.05,0,0-.08,0-.13-.1-.06-.1,0A.16.16,0,0,0,14.19,94.49Z"/><path class="cls-1" d="M14.31,94.34s.06,0,0-.06v0c0-.06-.09-.05-.09,0A.08.08,0,0,0,14.31,94.34Z"/><path class="cls-1" d="M14.49,94.34s.06,0,0-.06a.18.18,0,0,1,0-.07c0-.06-.12,0-.1,0A.15.15,0,0,0,14.49,94.34Z"/><path class="cls-1" d="M14.63,94.27h.06s.05,0,0,0l-.05,0C14.62,94.15,14.57,94.24,14.63,94.27Z"/><path class="cls-1" d="M14.8,94.31h.06s.05,0,0-.07l0,0C14.79,94.19,14.74,94.28,14.8,94.31Z"/><path class="cls-1" d="M15.05,94.38l.06,0s0,0,0-.06,0,0,0,0S15,94.4,15.05,94.38Z"/><path class="cls-1" d="M15.27,94.46c.08,0,.07-.12,0-.12S15.2,94.46,15.27,94.46Z"/><path class="cls-1" d="M1.06,93.57a.93.93,0,0,1-.71-.27c-.2-.21-.16-.49-.18-.76,0,0-.05,0-.05,0a.84.84,0,0,0,.94,1.1C1.11,93.63,1.11,93.57,1.06,93.57Z"/><path class="cls-1" d="M2,93.36s0-.07,0-.06l-.38.16s0,.08,0,.07A1.12,1.12,0,0,0,2,93.36Z"/><path class="cls-1" d="M.63,93.86a1.35,1.35,0,0,1-.29,0,1.05,1.05,0,0,1-.29-.17,0,0,0,1,0,0,0,.62.62,0,0,0,.62.23S.66,93.86.63,93.86Z"/><path class="cls-1" d="M3.33,93.42s0-.09,0-.07a1.73,1.73,0,0,1-.31.14.9.9,0,0,1-.4,0,.05.05,0,0,0,0,.1A.76.76,0,0,0,3.33,93.42Z"/><path class="cls-1" d="M.47,91.76c.37-.06.62-.38.93-.57a2.3,2.3,0,0,1,1.4-.36,0,0,0,0,0,0-.07,2,2,0,0,0-1.12.18,3.76,3.76,0,0,0-.55.32,1.94,1.94,0,0,1-.69.44S.43,91.77.47,91.76Z"/><path class="cls-1" d="M19.21,93.21c0,.45.05.9.05,1.34a0,0,0,1,0,.08,0,4.38,4.38,0,0,0-.06-1.35S19.21,93.18,19.21,93.21Z"/><path class="cls-1" d="M19.64,93.69a.61.61,0,0,0,0,.19,1.47,1.47,0,0,1,0,.21,0,0,0,0,0,.09,0,1.8,1.8,0,0,0,0-.22c0-.07,0-.15,0-.2A0,0,0,0,0,19.64,93.69Z"/><path class="cls-1" d="M20.28,95.11c-.08,0-.07.12,0,.12A.06.06,0,0,0,20.28,95.11Z"/><path class="cls-1" d="M20.23,93.8a2.87,2.87,0,0,0,0,1,.05.05,0,0,0,.1,0,2.88,2.88,0,0,0,0-1S20.24,93.74,20.23,93.8Z"/><path class="cls-1" d="M19.3,92.19c-.09,0-.08.14,0,.14S19.39,92.19,19.3,92.19Z"/><path class="cls-1" d="M18.93,88.07c.11.1.22-.12.08-.14h-.07a.06.06,0,0,0-.05.09A.13.13,0,0,0,18.93,88.07Z"/><path class="cls-2" d="M30.88,80.17V80c0-.76.12-.7-.7-.74s-1.73-.16-2.6-.26c-.08,0-.21-.11-.21-.16a.32.32,0,0,1,.17-.24,1,1,0,0,1,.43-.1c.88,0,1.34-.64,1.88-1.17,0,0,0-.13.07-.2h-.18c-.38.07-.75.16-1.13.2a1.45,1.45,0,0,1-.49-.11,3.72,3.72,0,0,1,.3-.52c.32-.41.68-.8,1-1.22.22-.27.09-.32-.21-.34a3,3,0,0,1-.74-.22c.17-.23.28-.54.5-.67a5.27,5.27,0,0,0,2.55-3.65c.09-.39.23-.77.35-1.15a.9.9,0,0,1,.15-.19c.07.07.18.13.2.21a8.53,8.53,0,0,1,.22,1.12,4.45,4.45,0,0,0,1.09,2.67.92.92,0,0,1,.19.25c.12.25,0,.37-.24.34a2.24,2.24,0,0,1-.37-.1c-.32-.06-.44.09-.39.39a2.87,2.87,0,0,0,1.59,2.24s.1,0,.12,0a3.9,3.9,0,0,1,.19.35c-.1,0-.22.13-.32.12a7.09,7.09,0,0,1-1.11-.24c-.35-.11-.37,0-.31.29a3.2,3.2,0,0,0,1.92,2.15,4.3,4.3,0,0,1,.56.42,3.25,3.25,0,0,1-.76,0c-.54-.1-1.06-.32-1.6-.37s-.87.17-.79.86c.1.94.1.93-.82.93-.38,0-.57-.09-.51-.5A1.71,1.71,0,0,0,30.88,80.17Zm.94-.21c0-.95.35-1.3,1.28-1.18a1.84,1.84,0,0,0,.25,0c.06,0,.13,0,.2-.06s0-.13-.09-.16c-.64-.33-.73-1-1-1.58s-.06-.73.45-.83c.32-.06.12-.2.06-.28a3.72,3.72,0,0,1-.68-1.84c-.05-.36,0-.7.49-.7.28,0,.19-.1.07-.25a3.57,3.57,0,0,1-.75-2,3,3,0,0,0-.11-.5,4.45,4.45,0,0,0-.19.51,5,5,0,0,1-1.08,2.21c-.37.4-.84.71-1.26,1.08a2.31,2.31,0,0,0-.24.29l.4-.06.4-.08a1.89,1.89,0,0,1-.06.47,10.48,10.48,0,0,1-.48,1c-.13.26-.31.5-.46.75.29-.09.58-.18.87-.25a3.31,3.31,0,0,1,.55-.07,1.53,1.53,0,0,1-.13.54,15.2,15.2,0,0,1-1.11,1.43c-.22.25-.11.32.12.34a13,13,0,0,0,1.53.06c.34,0,.46.1.44.43s0,.6,0,.9,0,.37.3.36.33-.14.27-.38C31.85,80.1,31.83,80,31.82,80Z"/><path class="cls-2" d="M38.21,70.1c-1,0-1,0-.91,1a.5.5,0,0,1-.49.64,1.58,1.58,0,0,0-.38,0c-.47.15-.52-.16-.55-.5a.65.65,0,0,1,0-.19c.11-.84,0-1-.89-1.11a6.5,6.5,0,0,1-.75-.12c-.15,0-.42-.15-.41-.19a1,1,0,0,1,.23-.55c.26-.26.57-.45.84-.69a1.3,1.3,0,0,0,.22-.29,1.4,1.4,0,0,0-.35,0c-.25,0-.5.09-.76.11s-.33,0-.38-.12a.45.45,0,0,1,.05-.4c.32-.43.66-.84,1-1.26.1-.13.19-.28.29-.42s.08-.3-.16-.29c-.48,0-.43-.27-.27-.53s.57-.73.82-1.12A21.61,21.61,0,0,0,36.69,62,5.91,5.91,0,0,0,37,60.64a1.31,1.31,0,0,1,.12-.27c.1.07.25.13.27.21.18.59.33,1.19.48,1.79a5.81,5.81,0,0,0,1.36,2.9.37.37,0,0,1,.07.33c0,.08-.2.1-.32.13a.65.65,0,0,1-.19,0c-.8-.16-.89-.06-.64.74A1.8,1.8,0,0,0,39,67.6c.13.07-.56.38-.75.28-.4-.2-.38,0-.31.31a2,2,0,0,0,1,1.34c.19.1.37.17.25.4s-.26.14-.4.16A3.72,3.72,0,0,1,38.21,70.1Zm-.63-.41c.13,0,.25,0,.38,0s.24,0,.35-.07c-.06-.1-.13-.2-.2-.3s-.31-.45-.44-.69c-.31-.57-.2-.9.36-1.28,0,0,0-.2,0-.3-.14-.44-.31-.88-.44-1.32s0-.64.45-.62.31-.09.2-.37c-.29-.77-.53-1.56-.79-2.34-.08-.23-.18-.44-.27-.66l-.29.6a1.64,1.64,0,0,1-.14.22c-.49.77-1,1.54-1.49,2.31-.11.17-.25.34.14.34.1,0,.28.09.28.15a.66.66,0,0,1-.12.38c0,.08-.24.12-.24.19-.05.65-.56,1-.9,1.49-.06.09-.09.19-.14.28a1,1,0,0,0,.3,0c.4,0,.79-.12,1.19-.16a1.71,1.71,0,0,1,.39,0A1.15,1.15,0,0,1,36,68c-.46.42-.92.81-1.38,1.22a1.21,1.21,0,0,0-.17.25,1.33,1.33,0,0,0,.28.1c.35.07.71.12,1.06.18a.71.71,0,0,1,.63.82,1.69,1.69,0,0,0,0,.45,1.19,1.19,0,0,0,.18.3c.1-.11.26-.2.3-.33a2.65,2.65,0,0,0,0-.63C36.88,69.66,36.88,69.66,37.58,69.69Z"/><path class="cls-2" d="M41.64,78.46c-.28,0-.38.12-.37.39s-.06.34-.05.51c0,.42-.14.54-.56.53-.75,0-.78,0-.79-.92,0-.46-.08-.57-.57-.41a10,10,0,0,1-1.73.34.31.31,0,0,1-.24-.12,1.3,1.3,0,0,1,.17-.44c.38-.53.78-1,1.17-1.58a1,1,0,0,0,.13-.29c.21-.56.21-.57-.4-.45-.21,0-.31,0-.22-.2a1.51,1.51,0,0,1,.25-.47,6.57,6.57,0,0,0,2.07-4.2,1.24,1.24,0,0,1,.16-.4.6.6,0,0,1,.11-.12.6.6,0,0,1,.09.15,7.35,7.35,0,0,0,1.65,3.6,2.18,2.18,0,0,1,.22.31c.16.35,0,.56-.38.56h-.23a1.49,1.49,0,0,0,.15.2,2.91,2.91,0,0,1,.37.33,1.93,1.93,0,0,1,.18.44l-.41,0a2.2,2.2,0,0,1-.36,0,1.73,1.73,0,0,0,.2.32c.44.54,1.68,1.6,1.74,1.72a1.39,1.39,0,0,1-.32.12Zm.33-.52v0h.7l.19,0-.09-.16-1.29-1.55c-.24-.3-.69-.58-.09-1,0,0,0-.13-.06-.2-.06-.44,0-.5.46-.38a2.58,2.58,0,0,0,.29,0,2.44,2.44,0,0,0-.14-.28c-.35-.65-.71-1.3-1.07-2a.68.68,0,0,0-.12-.12.6.6,0,0,0-.09.13,6.76,6.76,0,0,1-1.42,2.67c-.13.16-.13.24.12.24s.32.24.23.44c-.22.49-.45,1-.7,1.43s-.42.68-.63,1c.45-.07.91-.13,1.35-.21a1.14,1.14,0,0,0,.3-.13c.34-.19.48-.12.41.29a3.44,3.44,0,0,0,0,.64c0,.21-.12.53.23.56s.21-.38.35-.56c0,0,0-.08,0-.12,0-.75,0-.76.66-.78Z"/><path class="cls-2" d="M46.76,47.3a.53.53,0,0,1-.25-.53A1.74,1.74,0,0,0,46,45.44c-.4-.42-.75-.88-1.17-1.27a1.67,1.67,0,0,1-.47-1.3c0-1.2,0-2.4,0-3.6,0-.77.06-1.53.09-2.3,0-.29.07-.6-.22-.82a.39.39,0,0,1-.08-.22c0-.74-.06-1.48-.08-2.22a.54.54,0,0,1,.13-.39.62.62,0,0,0,0-1,.63.63,0,0,1-.27-.58c0-1,0-2.07.06-3.1a7.81,7.81,0,0,1,0-.83A25.37,25.37,0,0,0,44,24c-.07-1.15-.19-2.3-.28-3.45,0-.41-.06-.81-.11-1.22,0-.1-.12-.2-.19-.29a1.05,1.05,0,0,0-.15.3c-.07.87-.12,1.74-.18,2.61a1.09,1.09,0,0,1,0,.17s0-.1,0-.14c-.07-.71.07-1.47-.57-2,0,0,0-.12,0-.19,0-.42,0-.85-.07-1.28s.09-.92-.21-1.34a1.1,1.1,0,0,1-.21-.57c-.07-.66-.09-1.32-.14-2a1.05,1.05,0,0,0-.13-.52,2.32,2.32,0,0,1-.42-1.63c0-.41,0-.83-.44-1.06a.32.32,0,0,1-.1-.17,10.59,10.59,0,0,1-.34-1.43,29.26,29.26,0,0,1-.32-4.48A12.77,12.77,0,0,0,40,3.9a.53.53,0,0,1,.17-.52.91.91,0,0,0,.13-1.27.88.88,0,0,1-.11-.45c0-.48,0-1,0-1.44,0-.08-.1-.15-.15-.22,0,.08-.15.15-.15.23,0,.44,0,.88,0,1.32a.86.86,0,0,1-.2.61c-.25.32-.57.75-.26,1.16a1.34,1.34,0,0,1,.23,1c-.12,1.51-.24,3-.37,4.53-.06.7-.12,1.41-.22,2.11,0,.19,0,.47-.35.51-.08,0-.2.19-.2.3,0,.41,0,.82,0,1.23s.18.81-.27,1.09a.51.51,0,0,0-.11.32c-.06.68-.1,1.37-.18,2.06,0,.47-.31,1.55-.32,1.63-.13,1.13-.25,2.25-.39,3.38,0,.3-.12.61-.19.91a.74.74,0,0,1,0,.14,1.21,1.21,0,0,1-.1-.14.63.63,0,0,1,0-.19c-.1-1.14-.2-2.27-.31-3.4-.05-.47-.12-.94-.2-1.41a1,1,0,0,0-.17-.29,1.43,1.43,0,0,0-.13.28,2.8,2.8,0,0,0-.08.58c0,1.08,0,2.17,0,3.25,0,.61-.11,1.21-.1,1.82,0,1.73,0,3.46.05,5.19,0,.91-.05,1.81-.05,2.72,0,.36,0,.6-.49.55a.48.48,0,0,0-.38.24.39.39,0,0,0,.12.37c.41.15.34.47.34.77s0,.67,0,1,0,.48-.35.56a.65.65,0,0,0-.33.42.37.37,0,0,0,.33.46c.22,0,.25.13.26.32,0,1.62.05,3.23.09,4.85,0,0,0,.29.06.52a1,1,0,0,1-1.21-.68,6,6,0,0,0-1.45-2.21c-.42-.37-.83-.73-1.24-1.11-.06-.06-.13-.19-.1-.24.34-.59.33-.65-.31-.8-.24-.06-.16-.15-.08-.26s.1-.09.14-.14c.23-.28.2-.47-.13-.61a3.34,3.34,0,0,0-.52-.14c-.25-.06-.42-.16-.42-.46s-.05-.79-.09-1.18c0-.07-.1-.14-.15-.21s-.12.1-.14.17a4.52,4.52,0,0,0-.11.53c-.1.54-.12,1.1-.76,1.37a.6.6,0,0,0-.11.91c.12.16.13.23,0,.4s-.08.31-.13.47a.46.46,0,0,1-.17.24c-.33.22-.68.41-1,.64a4.25,4.25,0,0,0-1.75,2.7,8.93,8.93,0,0,1-.4,1.09.26.26,0,0,0,.08.25,1,1,0,0,1,.57.75c0,.06,0,.13,0,.19a.7.7,0,0,1-.32.81.76.76,0,0,0-.32.45.69.69,0,0,0,.44.73.77.77,0,0,0-.2.89s.05.09.07.14a4,4,0,0,1,.16.75c0,1.06.07,2.11.11,3.17,0,.38.11.4.49.39a11.66,11.66,0,0,1,1.31.08.57.57,0,0,0,.18,0c.67,0,1.35-.07,2,0,.43,0,.89.06,1.1.58a.72.72,0,0,0,.78.4c.59,0,1.18-.1,1.78-.11,1.27,0,2.55-.12,3.83,0,1.09.06,2.18.2,3.28.17a5.21,5.21,0,0,0,2-.41,4.57,4.57,0,0,1,2.06-.37c.61,0,1.22.06,1.82.12.25,0,.34-.07.35-.29,0-.77.08-1.54.09-2.31A.72.72,0,0,0,46.76,47.3ZM44.21,36.53c-.17,0-.26.06-.29,0-.68-.58-1.35-1.16-2-1.75-.07-.06-.08-.18-.11-.26a1.09,1.09,0,0,1,.23.09l1.9,1.57A2.8,2.8,0,0,1,44.21,36.53Zm-1.6,2c0-.82,0-1.64-.06-2.46a2,2,0,0,1,0-.24l.21.1a1,1,0,0,1,.42,1.31c0,2.12,0,4.24,0,6.37,0,.54-.12.66-.57.59a.24.24,0,0,1-.15-.16c0-.44,0-.88,0-1.32,0-.68.09-1.35.1-2S42.62,39.3,42.61,38.58Zm-6-1.93c0,1,0,2.08,0,3.12,0,.31.1.72-.06.91s-.58.2-.88.29h0c0-.21,0-.41.05-.47a4.86,4.86,0,0,0,0-.54c0-.81,0-2.43-.07-2.43,0-.64,0-1.29,0-1.93,0-.23.06-.34.3-.32h.35c.22,0,.34,0,.33.29S36.59,36.29,36.59,36.65Zm.26-1.16c0-.2.06-.24.2-.25,1-.11,2-.22,2.93-.31.18,0,.36,0,.36.33q0,4.32,0,8.64v.2c0,.19-.07.17-.21.1-.61-.31-1.22-.63-1.85-.89a1.36,1.36,0,0,1-.75-.79c-.22-.5-.47-1-.66-1.51a1.61,1.61,0,0,1,0-.58h0C36.86,38.78,36.87,37.13,36.85,35.49Zm-.16,7.94c.07.24,0,.29-.19.24s-.35-.17-.39-.3a15.64,15.64,0,0,1-.41-1.8c0-.11.13-.26.26-.47a2,2,0,0,1,.21.31C36.34,42.08,36.49,42.76,36.69,43.43Zm.24,3.08a2.61,2.61,0,0,1,.89-1.39,1.49,1.49,0,0,1,2,.08c.17.13.22.42.31.64s.22.6.32.9l-.94,0h-.84v0c-.48,0-1,0-1.43,0C37,46.8,36.85,46.78,36.93,46.51Zm3.63-2.12c0-.76,0-1.52,0-2.28h0q0-3,0-6.08c0-.26,0-.52.06-.78s.25-.51.54-.41c.08,0,.15.2.15.31,0,1.46.08,2.93.12,4.39,0,.93.08,1.85.07,2.77,0,1.36,0,2.73-.08,4.1a.61.61,0,0,1,0,.13s-.09,0-.11-.08A5.09,5.09,0,0,1,40.56,44.39Zm.92-10.61c0-.62,0-1.25.07-1.87a.16.16,0,0,1,.11-.07.13.13,0,0,1,.1.09c0,.2.06.42.07.52,0,.5-.06.9-.1,1.29,0,.06-.07.11-.11.16S41.48,33.82,41.48,33.78Zm.57-.57v-.1c0-.31.05-.63.07-1a7.59,7.59,0,0,1,1,.63c.13.11.12.39.13.6,0,.52,0,1,.06,1.58,0,.23-.1.31-.29.11a.88.88,0,0,0-.15-.12A1.41,1.41,0,0,1,42.05,33.21Zm1.77,1.27v.94a2,2,0,0,1-.07.26,2.06,2.06,0,0,1-.26-.25s0-.09,0-.14l0-2c0-.06.05-.12.07-.19s.16.11.16.17c0,.41,0,.82,0,1.23Zm-.39-12.83c0-.2,0-.4,0-.6,0,.19,0,.39.06.58l.08.75c0,.28,0,.48,0,.68s-.12.15-.19.22-.12-.15-.11-.22C43.35,22.59,43.39,22.12,43.43,21.65Zm0,2c.3-.06.22.17.23.31,0,.76.1,1.52.09,2.27,0,1.73-.1,3.45-.15,5.17a1.42,1.42,0,0,1-.11.33c-.06-.12-.18-.23-.18-.35,0-1.2-.08-3.6-.11-3.6,0-1.26-.06-2.52-.11-3.78C43.13,23.69,43.29,23.67,43.48,23.64Zm.42,8.76a.46.46,0,0,1,.19.2.7.7,0,0,1,0,.29c-.09,0-.2,0-.26,0-.7-.46-1.4-.92-2.09-1.39a.68.68,0,0,1-.16-.29c0-.05,0-.12.07-.19a3,3,0,0,1,.3.14C42.61,31.55,43.26,32,43.9,32.4ZM43,29h0V31.1a.56.56,0,0,1-.08.2.61.61,0,0,1,0-.18l-.27-4.43a1.36,1.36,0,0,0-.06-.29,2.26,2.26,0,0,0-.13-.2.8.8,0,0,0-.11.23c-.2,1.3-.31,2.38-.5,3.68a4.18,4.18,0,0,1-.1.51c0,.06-.09.17-.16.16s-.1-.13-.1-.19c-.06-1.9-.21-3.81-.11-5.72,0-.28.12-.26.28-.14a7.36,7.36,0,0,1,1.17,1.05A2.06,2.06,0,0,1,43,26.85C43.05,27.56,43,28.27,43,29Zm-1.79-5.08,0-.28a.68.68,0,0,1,.21.1c.4.34.79.7,1.18,1.05a.37.37,0,0,1,.14.19,2.87,2.87,0,0,1,0,.41,1.38,1.38,0,0,1-.33-.2c-.36-.29-.71-.59-1-.9A2.13,2.13,0,0,1,41.24,23.89Zm1.38-3.18c.05.57.14,1.14.19,1.71s.06.88.08,1.33h0l-.14.67-.51-.36c-.7-.52-1.18-1.12-.74-2.07.16-.33.2-.72.34-1.06a1,1,0,0,1,.36-.39C42.43,20.4,42.6,20.39,42.62,20.71Zm-.8-3.4c.07.1.18.2.2.31a6,6,0,0,1,0,.73h0c0,.54.1,1.08.14,1.63,0,.08,0,.23,0,.26-.63.33-.67,1-.82,1.55l-.06.24a.75.75,0,0,1-.06.13.65.65,0,0,1,0-.13c0-.18,0-.36-.07-.54C41,21,41,20.47,41,20a5,5,0,0,1,.61-2.44C41.62,17.43,41.74,17.38,41.82,17.31ZM40.5,19.22c0-.36,0-.72,0-1.08a.73.73,0,0,1,.07-.19.56.56,0,0,1,.07.16l.21,3.64a4,4,0,0,0,.08.48c0,.2,0,.3-.25.32s-.21-.14-.22-.28,0-.43,0-.64C40.46,21.63,40.5,20,40.5,19.22Zm-.06,3.87c0-.3.24-.23.4-.25s.17.17.17.26c0,.39,0,.79,0,1.25.07,1.76.14,3.59.19,5.42a9.1,9.1,0,0,1-.08,1c0,.29-.28.24-.45.27s-.21-.15-.21-.3c0-.92,0-1.84,0-2.76,0-1.3,0-2.6,0-3.9C40.38,23.78,40.43,23.43,40.44,23.09Zm1.2-6.41a.75.75,0,0,1-.07.33c-.18.38-.38.75-.58,1.12,0,.05-.08.09-.11.14s0-.1,0-.15a7.32,7.32,0,0,0-.18-.91c0-.1-.21-.15-.32-.23,0,.1,0,.2,0,.31,0,.87-.05,1.74-.07,2.6s-.06,2-.1,3a.58.58,0,0,1-.1.23c0-.07-.09-.13-.1-.2l-.18-2.1c.05-1.37,0-2.38.14-3.37a4.7,4.7,0,0,1,.71-2.06.57.57,0,0,1,.66-.3c.28.09.35.32.35.59S41.64,16.35,41.64,16.68Zm-.48-2.84c.25.21.46.77.35.92a.22.22,0,0,1-.16,0c-.61-.11-.9.25-1.13.72l-.08.18c-.06.1-.12.2-.17.3v-.34A3,3,0,0,1,40.61,14C40.75,13.79,40.93,13.64,41.16,13.84Zm-.31-2a.9.9,0,0,1,.08.21c0,.33.08.65.11,1a.43.43,0,0,1-.33.55c-.47.19-.57.69-.77,1.1a.57.57,0,0,1-.08.13s-.07-.07-.07-.11a3.64,3.64,0,0,1,.86-2.74A1,1,0,0,1,40.85,11.81Zm-.78-2a.35.35,0,0,1,0-.11.5.5,0,0,1,0,.13c.13.54.26,1.08.38,1.63a.52.52,0,0,1-.09.29,6.15,6.15,0,0,1-.37.52l-.18.22,0-.29ZM40,2.41c.05,0,.14.14.27.28l-.41.53a.72.72,0,0,1-.16-.28A.41.41,0,0,1,40,2.41Zm-1.29,9.86c0-.22,0-.44.31-.52.13,0,.25-.34.28-.53.09-.59.15-1.18.19-1.77.09-1,.15-2,.22-3,0-.06,0-.12.07-.19a.64.64,0,0,1,.06.18c0,.53-.14,4.71-.26,6.27,0,.34,0,.69,0,1a1.94,1.94,0,0,1,0,.24l-.2-.12c-.07-.05-.13-.14-.2-.14-.54,0-.44-.35-.44-.66S38.67,12.52,38.68,12.27Zm-.36,2.28c.08-.23.37-.4.59-.56.05,0,.28.1.33.21.18.44.32.91.45,1.28l-.09.34a1.28,1.28,0,0,1-.2-.11.71.71,0,0,0-.95.07,1,1,0,0,1-.2.11.88.88,0,0,1-.06-.27A3.78,3.78,0,0,1,38.32,14.55Zm-.52,3.64c.45-.46.27-1.09.48-1.61,0,0,0-.07,0-.1.1-.29.49-.63.71-.62s.52.3.61.68a.8.8,0,0,1,0,.15V18c0,.05,0,.11-.07.17a.69.69,0,0,1-.11-.13,2.78,2.78,0,0,0-.21-.27.5.5,0,0,0-.84,0c-.18.16-.32.36-.49.54l-.1.08S37.78,18.21,37.8,18.19Zm.19.58a2.55,2.55,0,0,1,.59-.81.32.32,0,0,1,.59.11,7.91,7.91,0,0,1,.37,1.6s-.13.1-.16.08a.93.93,0,0,0-1.55.43c0,.09-.06.19-.1.28s-.06.07-.1.1,0-.08,0-.12A13.43,13.43,0,0,1,38,18.77Zm-.33,2.55c.14-.08.15-.35.24-.52a3.46,3.46,0,0,1,.48-.84.54.54,0,0,1,.95.23,2.85,2.85,0,0,1,.18.54,5.3,5.3,0,0,1,0,.69h0v.66l-.23-.3a1.11,1.11,0,0,0-1.61.07,3,3,0,0,0-.2.29s0,0-.07.05,0-.08,0-.11C37.45,21.82,37.34,21.52,37.66,21.32Zm-.33,2A12.08,12.08,0,0,1,38,22a.67.67,0,0,1,1,0A8.89,8.89,0,0,1,39.65,23c-.16.1-.24.2-.34.21-.61.1-1.22.17-1.83.26C37.29,23.54,37.26,23.47,37.33,23.33Zm-.25.57c.9-.17,1.8-.3,2.77-.45l.28.19c-.11.07-.2.19-.31.21-.89.17-1.77.33-2.66.48-.1,0-.22,0-.33-.08C36.91,24.13,37,23.92,37.08,23.9Zm.15.73c.86-.13,1.71-.29,2.56-.46.26-.05.33,0,.34.27,0,1.47.08,2.94.13,4.41h0c0,.66,0,1.32,0,2,0,.37-.25.28-.44.32s-.14-.2-.15-.29a27,27,0,0,0-.77-5.3,1.84,1.84,0,0,0-.09-.28,1.24,1.24,0,0,0-.19-.21c-.06.06-.17.11-.18.19A13.23,13.23,0,0,0,38,27.11c-.13,1.29-.19,2.59-.28,3.89,0,.33-.24.49-.56.38-.06,0-.12-.13-.14-.21a2.54,2.54,0,0,1,0-.39c-.06-1.88-.1-3.76-.18-5.64C36.81,24.8,36.9,24.68,37.23,24.63Zm-1-3.65h0V19.55a1.48,1.48,0,0,1,0-.19c0,.06,0,.12,0,.19.09.89.19,1.79.27,2.68,0,.1,0,.22,0,.29a.81.81,0,0,1-.27.19,1.17,1.17,0,0,1-.07-.25C36.19,22,36.19,21.48,36.19,21Zm-.09,2.37c0-.18,0-.33.24-.26a.4.4,0,0,1,.21.3c.07,1.74.14,3.48.19,5.21,0,.81,0,1.62,0,2.43a.46.46,0,0,1-.16.35c-.34.19-.48.1-.49-.29C36.09,30.51,36.08,24.66,36.1,23.35Zm-.77,8.55c.18,0,.37-.08.56-.1l3.56-.37c.49,0,1-.08,1.47-.1.11,0,.21.08.31.12a.65.65,0,0,1-.28.13c-1.19.11-2.39.21-3.58.3L35.84,32Zm5.87,1.86c0,.06-.08.11-.12.17s-.12-.11-.12-.18c0-.27,0-.55,0-.83s0-.49,0-.74-.11-.28.12-.26c.07,0,.16.17.17.26,0,.25,0,.49,0,.74h0C41.2,33.2,41.21,33.48,41.2,33.76Zm-.56-.1c0,.19,0,.3-.27.31-.72,0-1.45.07-2.17.11v0l-1.58.13c-.22,0-.33-.06-.32-.3a11.57,11.57,0,0,0,0-1.18c0-.31.12-.41.39-.42l1.09-.06c.2,0,.21.08.13.24a1.47,1.47,0,0,0-.08.28,1.07,1.07,0,0,0,.28,1.08,1.14,1.14,0,0,0,1.16-.16.91.91,0,0,0,.27-1.34c-.24-.35,0-.29.18-.3h.35c.58,0,.59,0,.59.61C40.64,33,40.63,33.31,40.64,33.66Zm-2.55-.6c0-.48.28-.82.67-.82a.54.54,0,0,1,.59.58.87.87,0,0,1-.84.75C38.18,33.57,38.08,33.45,38.09,33.06ZM36,34c0,.06-.1.13-.15.19s-.13-.1-.14-.16c0-.54,0-1.08,0-1.62,0,0,.07-.08.1-.13s.14.1.14.15c0,.29,0,.59,0,.88h0C36,33.58,36,33.81,36,34Zm-.76.93c-.06,0-.13-.07-.19-.11s.08-.16.13-.17a5.35,5.35,0,0,1,1-.18c1.26-.09,2.52-.15,3.79-.22l1.22-.07a.79.79,0,0,1,.22.05c-.05.07-.1.17-.17.2a3.09,3.09,0,0,1-.53.09c-1,.12-2,.26-3,.36-.43,0-.86,0-1.29,0v0Zm-3.39,2.69A6.88,6.88,0,0,1,34,40.73a2.74,2.74,0,0,0,.28.57c.15.27,0,.34-.22.33l-.4,0v0c-.41,0-.82-.09-1.23-.11-.19,0-.28,0-.31-.27-.07-.52-.18-1-.26-1.55a6,6,0,0,0-.9-2.38.66.66,0,0,1-.05-.15c.05,0,.11,0,.14,0A4.63,4.63,0,0,1,31.85,37.66ZM34.21,43c0,.23,0,.46,0,.69a.82.82,0,0,1-.06.19c-.06-.05-.15-.1-.16-.16,0-.29,0-.58,0-.87s0-.46,0-.68A.55.55,0,0,1,34.1,42c0,.05.09.1.09.15,0,.27,0,.55,0,.83Zm-.51-.33c0,.32,0,.65-.06,1,0,0-.06.1-.09.15s-.12-.11-.12-.16c0-.5.06-1,.1-1.52,0,0,.07-.08.11-.12a.31.31,0,0,1,0,.12c0,.18,0,.36,0,.55Zm-.5-.36c0,.44-.06.83-.11,1.22a.34.34,0,0,1-.2.18c-.09-.05-.21-.15-.21-.24,0-.4,0-.81.06-1.22,0-.13-.11-.36.18-.35s.33.13.28.36C33.19,42.25,33.2,42.29,33.2,42.27ZM32.15,42c0-.06.07-.11.11-.17s.14.11.14.17c0,.46,0,.91,0,1.37,0,.07-.08.13-.13.19a1.15,1.15,0,0,1-.1-.23c0-.21,0-.43,0-.64h0C32.14,42.47,32.13,42.24,32.15,42Zm-.32,1.24c0,.26-.06.33-.34.3-.87-.08-1.73-.14-2.6-.2,0-.16,0-.49,0-.5,0-1,0-1,1-1.07h1.58c.3,0,.44.09.39.44A5.08,5.08,0,0,0,31.83,43.25ZM28.28,42c0-.08.08-.15.13-.22s.17.12.17.19c0,.29,0,.59,0,.88,0,.07,0,.28,0,.44l-.34,0C28.28,43,28.26,42.34,28.28,42Zm.14-.69c.15-.79.29-1.67.51-2.44a9.9,9.9,0,0,1,.62-1.52c0-.06.17-.16.25,0s-.05.15-.08.21a13.62,13.62,0,0,0-.93,3.83S28.4,41.44,28.42,41.35ZM30,37.67c.13-.26.26-.21.37,0a8.59,8.59,0,0,1,.56,1.14,6.9,6.9,0,0,1,.44,2.41.36.36,0,0,1-.25.26,8.77,8.77,0,0,1-.89,0v0a5.3,5.3,0,0,0-.69,0c-.36,0-.5-.08-.49-.46A7.56,7.56,0,0,1,30,37.67Zm1.57,3.77a7.59,7.59,0,0,0-1.15-4.11h.35a8.81,8.81,0,0,1,1.16,4.11Zm-.51-5.15a.5.5,0,0,1,.21.1c.09.66-1.76.41-2,.45a1,1,0,0,1-.25,0c0-.11,0-.39.08-.44a1.08,1.08,0,0,1,.57-.11C30.1,36.26,30.58,36.28,31.06,36.29Zm-1.94-1.06c.2-.14.38-.3.57-.43,0,0,.12,0,.17,0,.26.12.52.26.78.37s.28.13.14.37-.28.45-.85.45c-.32,0-.49.07-.79,0S28.82,35.45,29.12,35.23ZM25.9,41.17c.05-.25.11-.5.17-.74a3.12,3.12,0,0,1,.82-1.78,5,5,0,0,1,1.88-1.35,1.27,1.27,0,0,1,.5-.1.32.32,0,0,1,0,.16c-.25.68-.55,1.34-.76,2a12.71,12.71,0,0,0-.3,1.54c-.1.57-.09.57-.66.57h-.3v0l-1.13-.09C26,41.42,25.85,41.37,25.9,41.17Zm1.78.9a.7.7,0,0,1,.11-.23c.07.07.2.13.2.21,0,.31,0,.63.05.94,0,0,0,.2,0,.3h0c-.25,0-.38,0-.33-.33A8.77,8.77,0,0,0,27.68,42.07Zm-.23.16c0,.27-.05.56-.09.85a.69.69,0,0,1-.1.19c-.05-.07-.14-.14-.14-.21,0-.35,0-.69,0-1a.74.74,0,0,1,.08-.22,1.89,1.89,0,0,1,.2.2C27.47,42.06,27.45,42.14,27.45,42.23Zm-.6.28V43c0,.25-.14.28-.35.29s-.21-.15-.21-.3c0-.36,0-.71,0-1.07a.22.22,0,0,1,.17-.15c.16,0,.38-.07.42.2a4.86,4.86,0,0,1,0,.54Zm-.93,1.55a.83.83,0,0,1-.21-.06c0-.08.07-.2.13-.22.34-.11.69-.2.95-.27,1.21.07,2.33.1,3.44.21,1.4.13,2.8.32,4.2.48a1.05,1.05,0,0,1,.24.06l.23.07a1.18,1.18,0,0,0-.19.11c-.36.35-.79.2-1.17.11a19.55,19.55,0,0,0-3.82-.37C28.46,44.12,27.19,44.1,25.92,44.06Zm.68,1.63a6.58,6.58,0,0,0-.05,1.18c0,.84,0,1.69,0,2.54,0,.08-.05.23-.14.24s-.17-.16-.17-.23c0-.56,0-1.68,0-1.68,0-.51,0-1,0-1.53a1,1,0,0,0-.08-.48c-.22-.32-.06-.33.22-.37S26.65,45.37,26.6,45.69Zm.56,1.17c0,.81,0,1.62,0,2.43,0,.11,0,.32-.12.33s-.19-.2-.21-.32a4,4,0,0,1,0-.69s.05-2,.08-3c0,0,0-.08,0-.1s.12-.27.23-.25.12.18.12.27C27.22,46,27.17,46.43,27.16,46.86Zm.68-1.11s-.09,2.33-.1,3.5a.64.64,0,0,1,0,.24c0,.07-.07.16-.14.16s-.18-.11-.18-.17a5.87,5.87,0,0,1,.05-.59c0-.56,0-1.12,0-1.68s.05-1,.09-1.57c0-.11,0-.32.12-.33s.1.23.15.34A.34.34,0,0,1,27.84,45.75ZM27.75,45c-.53,0-1.06,0-1.58.05-.14,0-.27,0-.11-.17a.42.42,0,0,0,.08-.12c.18-.5.18-.5.78-.36s1.42,0,2.12,0a25.73,25.73,0,0,1,4.46.44,3.35,3.35,0,0,1,1.24.4c.13.09.19.27.29.41a1.21,1.21,0,0,1-.44.1c-.43-.08-.85-.24-1.29-.29-1.09-.12-2.19-.2-3.29-.29C29.25,45.11,28.5,45,27.75,45Zm.68,4.47c0,.07-.17.21-.24.21s-.12-.14-.12-.21c0-.58,0-1.15,0-1.73,0-.74.07-1.47.11-2.21,0-.06.07-.12.1-.18s.15.13.16.2a5.76,5.76,0,0,1,0,.59S28.48,48.37,28.43,49.48Zm3.78-3.54c-.1,1.36-.18,2.72-.27,4.09a2.64,2.64,0,0,1,0,.29,2.7,2.7,0,0,1-.08.39c-.15-.05-.38-.06-.44-.16a11.44,11.44,0,0,1-.36-2.22L31,46.61a.45.45,0,0,0-.43-.46c-.26,0-.52,0-.59.31-.19.75-.51,2.58-.51,2.75,0,.45-.23.64-.64.47-.09,0-.15-.24-.15-.37,0-.62,0-1.25,0-1.87s.08-1.15.09-1.73c0-.28.09-.36.38-.34.91.09,1.83.17,2.75.22C32.15,45.61,32.23,45.68,32.21,45.94Zm.49,1.84c0,.78-.05,1.2-.09,2a5.72,5.72,0,0,1,0,.59,1.72,1.72,0,0,1-.11.29c0-.09-.14-.17-.14-.26,0-.67,0-1.34,0-2.24,0-.58.12-1.4.2-2.21,0-.08.09-.15.13-.22s.13.15.13.22C32.77,46.54,32.73,47.16,32.7,47.78Zm.8-1.16c-.06,1.19-.1,2.37-.15,3.55,0,.08,0,.18,0,.24a.36.36,0,0,1-.22.19c-.06,0-.2-.11-.2-.17,0-.28.09-3.11.2-4.23A.5.5,0,0,1,33.2,46c0-.07.13-.12.19-.19.07.09.19.18.19.27S33.51,46.43,33.5,46.62Zm.39,3.72s0,.1-.07.16-.22,0-.23,0c-.05-.47.09-3.52.2-4.43,0-.1.19,0,.26-.14a1.91,1.91,0,0,1,.06.33c-.07,1.28-.15,2.55-.22,3.83A2.09,2.09,0,0,1,33.89,50.34Zm.81-.05c0,.14,0,.25-.19.24s-.3,0-.29-.22c0-.81,0-1.62,0-2.42,0-.49.09-1,.14-1.47,0-.1.07-.2.1-.3a.74.74,0,0,1,.1.27c.05.85.09,1.71.13,2.56h0C34.69,49.4,34.69,49.84,34.7,50.29Zm1,.24c-.7,0-.7,0-.72-.7,0-.12,0-.23,0-.35h0v-.39c0-.78,0-.87.82-.91.15,0,.21,0,.21.21,0,.58,0,1.15.08,1.72C36.09,50.38,36.06,50.53,35.72,50.53Zm.89,0a.35.35,0,0,1-.21-.22c0-.63-.07-1.25-.1-1.87,0-.17,0-.33.24-.35s.23.18.23.33v1.06c0,.18,0,.47,0,.77S36.84,50.56,36.61,50.51ZM40,50.42c0,.11-.18.21-.29.3s-.09,0-.14,0c-.71,0-.7,0-.72-.66a6.53,6.53,0,0,0-.11-1.17.69.69,0,0,0-.36-.44c-.27-.09-.44.13-.49.37-.08.47-.13.94-.19,1.41,0,.13.1.32-.18.29s-.42,0-.43-.26,0-.73,0-1.09h0v-.34c0-.86,0-.89.85-1,.62,0,1.24,0,1.87,0,.23,0,.31.08.29.33C40.07,48.94,40.07,49.68,40,50.42Zm1.21-2c0,.67-.07,1.34-.06,2,0,.42-.29.1-.34.18-.48.2-.5,0-.48-.36,0-.69.07-1.38.08-2.07,0-.19.06-.19.2-.15a1.27,1.27,0,0,0,.37.1C41.22,48.16,41.24,48.28,41.23,48.45Zm-.33-.71a13,13,0,0,0-2-.16c-1.22.07-2.45.24-3.67.37-.11,0-.22,0-.33,0,.14-.17-.08-.5.26-.56a10,10,0,0,1,1.2-.19c1.36,0,2.73-.07,4.09-.09a1.71,1.71,0,0,1,.59.11,2.2,2.2,0,0,1,.44.21A1.62,1.62,0,0,1,40.9,47.74Zm2,2.42a1.17,1.17,0,0,1-.14-.33c0-.26,0-.52,0-.79s0-.62,0-.94c0-.06.11-.13.17-.2a.6.6,0,0,1,.08.21c0,.57.08,1.15.09,1.72C43.1,49.94,43,50.05,42.9,50.16Zm3.26-.84c0,.18,0,.44,0,.62a1.21,1.21,0,0,1-.5,0,7.23,7.23,0,0,1,.09-.81s.17-.91.34-.89S46.17,49,46.16,49.32Zm.5.32a.94.94,0,0,1-.06.28c0,.06-.08.09-.12.14s-.07-.11-.07-.16V48.47c0-.35-.08-.71-.35-.73s-.35.36-.41.58c-.12.44-.15.9-.23,1.35,0,.11-.08.29-.12.29s-.38,0-.37-.27,0-.86,0-1.29c0-.89,0-1.77-.12-2.66a1.59,1.59,0,0,0-.38-.82.32.32,0,0,0-.59.14,8.16,8.16,0,0,0-.14,1.56c0,.93.08,1.85.12,2.77a1,1,0,0,1,0,.39c0,.1-.2.16-.3.24-.05-.09-.14-.17-.14-.26-.05-.55-.08-1.11-.11-1.67,0-.28-.08-.53-.39-.51s-.34.26-.34.52c0,.64,0,1.29,0,1.93,0,.27-.66.68-.89.56,0,0-.06-.1-.06-.16,0-.72,0-1.44,0-2.16a.43.43,0,0,1,.1-.28c.37-.31.25-.64.1-1a1.94,1.94,0,0,1-.11-.72c0-2.09.08-4.19.09-6.28,0-1.45-.07-2.89-.1-4.34a1.13,1.13,0,0,1,.12-.51,1.34,1.34,0,0,1,.47.6c0,1,.06,2,.08,3.06,0,.17,0,.33,0,.5h0l-.12,4.45a3.23,3.23,0,0,0,0,.44c0,.49.07.53.53.42.67-.17.67-.17.67-.88,0-1.48,0-3,0-4.44,0-.75,0-1.51.06-2.27a1.06,1.06,0,0,1,.05-.23l.2.11a.8.8,0,0,1,.3.74c0,1.72,0,3.44,0,5.16a2,2,0,0,0,.74,1.82,7,7,0,0,1,.65.68,2,2,0,0,1,.72,1.8c0,.13.15.29.24.43s.23.26.23.39C46.69,48.48,46.67,49.06,46.66,49.64Z"/><path class="cls-2" d="M38.67,37.64a.14.14,0,0,0-.28,0,17,17,0,0,0-.31,3.6H39A23,23,0,0,0,38.67,37.64Z"/></g></g></g></svg>