<svg xmlns="http://www.w3.org/2000/svg" viewBox="0 0 8.5 15"><defs><style>.cls-1{fill:#792221;}</style></defs><g id="圖層_2" data-name="圖層 2"><g id="event"><path id="ear-r-red" class="cls-1" d="M4.3,4a1,1,0,0,1,1.16-.75c.62.13,1.14.93.44,1.9A6.27,6.27,0,0,1,1.53,7.24,7.4,7.4,0,0,0,4.3,4Zm0,7a1,1,0,0,0,1.16.75c.62-.13,1.14-.93.44-1.9A6.31,6.31,0,0,0,1.53,7.76,7.46,7.46,0,0,1,4.3,11ZM6.23,6.3a18.88,18.88,0,0,0-3,1.18,18,18,0,0,0,3,1.18C7.52,9.05,8.5,7.5,8.5,7.5S7.52,6,6.23,6.32ZM2.42.41C4.33,1.78,2.59,5.74.5,6.55,2.75,4.74,3.41,1,1.5,1c.56.39-.23,1.68-1.12,1C-.69,1.07.67-.84,2.42.41Zm0,14.18C4.33,13.22,2.59,9.26.5,8.45,2.75,10.26,3.41,14,1.5,14c.56-.39-.23-1.68-1.12-1C-.69,13.93.67,15.84,2.42,14.59Z"/></g></g></svg>