<?xml version="1.0" encoding="utf-8"?>
<!-- Generator: Adobe Illustrator 25.2.0, SVG Export Plug-In . SVG Version: 6.00 Build 0)  -->
<svg version="1.1" id="圖層_1" xmlns="http://www.w3.org/2000/svg" xmlns:xlink="http://www.w3.org/1999/xlink" x="0px" y="0px"
	 viewBox="0 0 68.8 52.7" style="enable-background:new 0 0 68.8 52.7;" xml:space="preserve">
<style type="text/css">
	.st0{fill:#7C4821;}
</style>
<g id="圖層_2_1_">
	<g id="event">
		<g id="eu_t_c">
			<g id="eu_t_c-2">
				<path class="st0" d="M1,1.7l2.2-0.1c0.2,0,0.4,0.3,0.6,1.1l1.6-0.3h0.9c4.7-0.5,7.2-0.8,7.6-0.8c0.8,0,1.2,0.2,1.2,0.5
					c0,0.5-2.7,1-7.9,1.4L3.7,3.6C3.9,6.3,4,8.3,4,9.5v5.4c0,2.2,0.1,5.8,0.2,10.9c2.7,0.2,5.4,0.2,8.1,0c0.6,0.1,1.1,0.2,1.6,0.3
					v0.5l-1,0.2L11.6,27c-1.9,0.1-4.4,0.1-7.4-0.1l0.2,2.2v0.4c0,0.4-0.8,0.7-2.3,0.9c-0.6-0.1-1.2-0.2-1.8-0.3v-6
					c0-0.8-0.1-1.6-0.2-2.4c0.2-0.9,0.2-1.9,0.2-2.8V7.5C0.2,3.7,0.5,1.8,1,1.7z M5.2,14.3h1c0.5,0.2,0.8,0.7,0.8,1.5l2.4-0.1
					c0.2,0,0.4,0.2,0.6,0.6v0.6c0,4.1-0.6,6.2-1.9,6.3l-0.4,0.2H7.4v-0.4H7v0.6l-2,0.1v-5.5c0-0.8-0.1-2-0.2-3.6L5.2,14.3z M7.5,5.3
					c1,0,1.4,0.2,1.4,0.8h1c0.3-0.5,0.9-0.9,1.5-1h0.4c1,0,1.4,0.6,1.4,2c-0.1,2-0.2,3.3-0.2,4.1c-0.7,0.6-1.5,1-2.4,1
					c0-0.2-0.3-0.5-0.9-0.8H9.2c0,0.6-0.6,0.9-1.7,1s-1.6-0.1-1.7-0.5v-1.8c0-0.9,0.1-2.3,0.2-4.3L7.5,5.3z M7,16.9V20h0.4
					c0.2-1.2,0.4-2.4,0.4-3.6H7.5C7.1,16.5,7,16.6,7,16.9z M9.2,7.5v2.9h0.6L10,9.2V7H9.6C9.3,7.1,9.1,7.2,9.2,7.5L9.2,7.5z
					 M12.3,13.7c1-0.1,1.4,0.7,1.4,2.3l1.8-0.1c0.4,0.1,0.6,0.6,0.6,1.6c0,3.1-0.2,4.7-0.6,4.7c-0.2,0.1-0.4,0.2-0.6,0.2l-1.3-0.2
					c-0.6,0.2-1.3,0.3-1.9,0.3c-0.5-0.2-0.8-0.4-0.8-0.5v-1.5c0-1.4,0.1-3.6,0.2-6.4C11.4,13.9,11.8,13.8,12.3,13.7L12.3,13.7z
					 M13.7,16.7v2.1h0.4c0-0.7,0.1-1.4,0.2-2.1L13.7,16.7z M20.5,8.7h0.2c1,0,1.6,0.1,1.7,0.5v1.9c0,1.2-0.1,2.5-0.2,4.1
					c1.4,3.6,3.3,7,5.6,10.1l2.6,2.9v0.2c0,0.3-0.5,0.6-1.4,0.9c-2.3,0.4-4.5-1.2-4.9-3.5c-1-2-1.9-4.1-2.6-6.2h-0.3
					c-0.5,2.6-1.7,4.9-3.4,6.9c-0.9,0.3-1.7,0.8-2.4,1.4c-0.1-0.1-0.3-0.1-0.4-0.2c0.3-0.3,0.6-1.4,0.9-3.4
					c2.1-4.5,3.2-9.4,3.2-14.4V9.6C19.3,9.1,19.9,8.7,20.5,8.7L20.5,8.7z M17.9,0h0.4C20.1,0,21,0.2,21,0.6
					c-0.2,1.9-0.6,3.7-1.1,5.6h0.3c2-0.1,3.9-0.4,5.9-0.9h0.2c1,0,1.6,0.1,1.6,0.5v0.4c0,2-1.2,4.6-3.5,7.7c0,0.4-0.3,0.6-1,0.6
					h-0.2l-0.4-0.2c0.1-2.6,0.6-5.2,1.3-7.7l-2.1,0.1l-1.3,0.3c-0.3-0.1-0.7-0.2-1.1-0.1h-0.3c0,1.6-1.3,3.4-3.9,5.6h-0.2
					c-0.4,0-0.6-0.8-0.6-2.2c0-0.5,0.6-3.6,1.9-9.2c-0.1-0.2-0.2-0.4-0.2-0.6C17,0.2,17.4,0,17.9,0z"/>
				<path class="st0" d="M39.7,10.4l0.4,0.2l1.3-0.3c0.8,0,1.7,1.1,2.5,3.5v1.1c0,0.2-0.2,0.4-0.6,0.6c-0.3,0-0.6,0-0.8-0.2
					c-0.2,0.2-0.5,0.3-0.8,0.3c-1.3-2.5-2.2-3.8-2.8-3.8v-0.5C38.9,11.1,39.2,10.8,39.7,10.4z M46.3,15.2c1.2-0.1,1.8,0.3,1.8,0.9
					c0,0.4-1.2,3-3.5,8c-0.5,1.5-1,3.1-1.3,4.6l-0.6,0.4l-2.6,0.1c-0.2,0-0.4-0.2-0.6-0.5c1.7-4,3.6-8.1,5.7-12.4
					c-0.2,0-0.3,0-0.3,0S45.6,16,46.3,15.2z M42.8,2.5c0.9-0.1,1.8,0.5,2.1,1.5c0.2,0.1,0.6,1.2,1.1,3.1l-1,0.2
					c-1.2,0.2-2.4-0.6-2.7-1.8c-0.4-1-0.9-1.6-1.3-1.5V3.2C40.9,3,41.5,2.7,42.8,2.5z M64.5,1h1.1c1.8,0.3,2.8,0.6,2.8,0.9v0.2
					c0,0.4-0.1,0.6-0.2,0.6l0.2,1.2v0.6c0,0.4-0.1,0.6-0.2,0.6l0.7,6.5l-0.4,1.6c0.1,0.2,0.2,0.4,0.2,0.6c-0.2,0-0.4,0.2-0.4,0.5
					c0,0,0,0,0,0v1.3c0,0.6,0.1,1.2,0.2,1.7c-0.1,0.9-0.2,1.8-0.4,2.6l0.2,1.3l-0.2,1.3c0.1,0.5,0.2,1,0.2,1.5
					c0,0.1-0.1,0.1-0.2,0.2l0.2,1.1v1.5c0,1.7-0.3,2.6-0.8,2.6l-1.7,0.1c0-0.3-0.1-0.4-0.4-0.4V18.3c0-1.9-0.3-2.9-1-2.9
					c-1.6,0.1-2.3-0.4-2.3-1.4c-0.6-0.4-1.2-1-1.7-1.6c-0.1,1.2-0.3,1.9-0.5,1.9l0.2,0.5v0.9c0,0.1-0.1,0.2-0.2,0.2
					c0.1,0.2,0.2,0.5,0.2,0.7c-0.1,1-0.2,1.6-0.2,1.8c0.3,0.3,0.5,1.6,0.6,3.9l-0.2,0.9c0.1,0.5,0.2,1.1,0.2,1.7
					c-0.3,0-0.5,0.3-0.4,0.5l0.2,1l-0.4,0.2L58,26.7c-0.8-0.3-1.2-0.6-1.2-0.7c0-0.9,0.2-1.8,0.4-2.6c-0.1-0.6-0.2-1.3-0.2-2V19
					c0-0.3-0.1-0.6-0.2-0.9c0.1-0.3,0.2-0.6,0.2-0.9c-0.2-1-0.2-1.7-0.2-1.9l-0.5,0.3c-0.7,0-1.3-0.8-1.9-2.3H54
					c0,1.6-0.2,3.3-0.7,4.9c0,0.2,0.1,0.3,0.2,0.3l-0.6,2.6l0.2,0.9c-1.3,2.7-2,4-2.1,4c-0.9,0.4-1.9,0.8-2.8,1
					c-0.5-0.2-0.8-0.4-0.8-0.5v-0.2c1.7-2.2,2.5-4.9,2.4-7.7c0.2,0,0.4-1,0.7-3c-1.1,0.1-1.9-0.6-2.4-2.1c-0.2,0-0.7-0.5-1.7-1.6
					v-0.1l1-0.2h0.2c0.9-0.1,1.8,0.1,2.6,0.5h0.8c0-0.7,0.1-1.3,0.2-2l-0.7-6.6h0.4c0.1,0,0.1,0.1,0.1,0.3l0.5-0.3
					c1.2,0.1,1.9,0.5,1.9,1.1c0,0.1,0.4,2,1.3,5.6c-0.1,0.3-0.2,0.6-0.2,0.9v0.5c0.8,0.1,1.6,0.3,2.3,0.5l0.2-1.6V3.9h-0.4V3.5
					c0-0.2,0.2-0.4,0.6-0.6l1.3-0.1c0.7-0.1,1.4,0.3,1.7,0.9c0,0.1-0.1,0.1-0.2,0.1c0.2,0.9,0.4,1.8,0.5,2.7l-0.4,4.2l0.7,0.5L61,11
					c1.3,0.2,2.5,0.9,3.2,2c0.2,0.3,0.3,0.6,0.4,0.9H65c0-0.7,0.1-1.1,0.3-1.1L65,12.2V8.6c0-1.5,0-3.7-0.2-6.6h-0.7V1.4
					C64.2,1.2,64.3,1,64.5,1z"/>
			</g>
			<path class="st0" d="M8.7,41.5v6.3h3c0.4,0,0.8-0.2,1.1-0.4l1.7-1.4h0.4l-0.4,2.6H5.7v-0.4c0.3-0.2,0.6-0.5,0.8-0.9
				c0.2-0.5,0.3-1.1,0.2-1.6v-7.3c0-0.5-0.1-1.1-0.2-1.6c-0.2-0.4-0.4-0.7-0.8-0.9v-0.4h8.4V38h-0.4l-1.5-1.4
				c-0.3-0.2-0.6-0.3-1-0.3H8.7v4.4h1.5c0.5,0,1.1-0.1,1.6-0.3c0.4-0.2,0.8-0.5,1.1-0.9h0.4v3.2h-0.4c-0.3-0.4-0.6-0.7-1.1-0.9
				c-0.5-0.2-1.1-0.3-1.6-0.3L8.7,41.5z"/>
			<path class="st0" d="M22.6,42.6c0-0.5-0.1-1.1-0.2-1.6c-0.2-0.3-0.4-0.6-0.7-0.8v-0.4l2.8-0.7v7c0,0.4,0,0.8,0.1,1.1
				c0.1,0.4,0.4,0.8,0.8,1.1v0.4H23c-0.2-0.3-0.4-0.6-0.4-1l-1.5,1.1c-0.3,0.1-0.7,0.1-1,0.1c-0.9,0.1-1.9-0.3-2.5-0.9
				c-0.4-0.7-0.6-1.6-0.5-2.4v-3c0-0.5-0.1-1.1-0.3-1.6c-0.2-0.3-0.4-0.6-0.7-0.8v-0.4l2.8-0.7v5.8c-0.1,0.7,0.1,1.4,0.4,2
				c0.5,0.6,1.3,0.8,2,0.7c0.5-0.1,1-0.2,1.4-0.4L22.6,42.6z"/>
			<path class="st0" d="M29.4,46c0,0.5,0,0.9,0.1,1.4c0.2,0.3,0.5,0.6,0.8,0.8v0.4h-3.7v-0.4c0.3-0.2,0.6-0.5,0.8-0.8
				c0.1-0.4,0.2-0.9,0.2-1.4v-3.4c0-0.5-0.1-1.1-0.2-1.6c-0.2-0.3-0.4-0.6-0.7-0.8v-0.4l2.8-0.7V41l0.9-1.3c0.9-0.4,1.8-0.6,2.8-0.6
				v2.2h-0.4c-0.4-0.4-1-0.6-1.6-0.6c-0.7,0-1.4,0.4-1.8,1L29.4,46z"/>
			<path class="st0" d="M33.8,44c-0.1-1.3,0.4-2.7,1.3-3.7c1.8-1.7,4.6-1.7,6.4,0c1.8,2.1,1.8,5.2,0,7.3c-1.8,1.7-4.6,1.7-6.4,0
				C34.2,46.7,33.8,45.3,33.8,44z M40.8,43.9c0-1-0.2-2-0.7-2.9c-0.4-0.7-1.1-1.1-1.9-1.1c-0.8,0-1.5,0.5-1.8,1.2
				C36,42.1,35.8,43,35.9,44c0,1,0.2,2,0.7,2.9c0.4,0.7,1.1,1.1,1.9,1.1c0.8,0,1.5-0.5,1.8-1.2C40.7,45.9,40.9,44.9,40.8,43.9
				L40.8,43.9z"/>
			<path class="st0" d="M46.9,50.1c0,0.5,0,0.9,0.1,1.4c0.2,0.3,0.5,0.6,0.8,0.8v0.4h-3.7v-0.4c0.3-0.2,0.6-0.5,0.8-0.8
				C45,51,45,50.6,45,50.1v-7.5c0-0.5,0-1.1-0.2-1.6c-0.2-0.3-0.4-0.6-0.7-0.8v-0.4l2.8-0.7v1.2l2-1.2c1.2-0.1,2.3,0.3,3.2,1.1
				c0.9,0.9,1.3,2.2,1.2,3.4c0,1.3-0.4,2.7-1.2,3.7c-0.7,1-1.8,1.5-3,1.5c-0.8,0-1.6-0.2-2.3-0.6L46.9,50.1z M50.6,41.4
				c-0.6-0.7-1.5-1.1-2.5-1.1c-0.4,0-0.9,0.2-1.2,0.4v6.9c0.4,0.2,0.9,0.3,1.4,0.3c0.9,0,1.7-0.4,2.3-1.1c0.6-0.8,0.9-1.8,0.8-2.8
				C51.4,43.1,51.2,42.2,50.6,41.4z"/>
			<path class="st0" d="M55.7,47.3c-0.7-0.9-1.1-2-1.1-3.2c0-1.3,0.4-2.5,1.2-3.6c0.8-1,2-1.6,3.3-1.5c1,0,2,0.4,2.7,1.1
				c0.7,0.8,1,1.8,1,2.9L56.6,44c0,0.9,0.3,1.7,0.8,2.4c0.7,0.7,1.6,1.1,2.6,1.1c1.1-0.2,2.1-0.6,2.9-1.4l0.2,0.1l-1.6,2.1
				c-0.7,0.3-1.4,0.5-2.1,0.5C57.9,48.9,56.6,48.4,55.7,47.3z M60.7,42.6c0-0.6-0.1-1.2-0.3-1.7c-0.2-0.6-0.9-1.1-1.6-1.1
				c-0.8,0-1.5,0.4-1.8,1.2c-0.3,0.7-0.4,1.5-0.4,2.2L60.7,42.6z"/>
		</g>
	</g>
</g>
</svg>
