<svg xmlns="http://www.w3.org/2000/svg" viewBox="0 0 142.69 56.94"><defs><style>.cls-1{fill:#7c4821;}</style></defs><g id="圖層_2" data-name="圖層 2"><g id="event"><path id="eu_t" class="cls-1" d="M30.73,29.18a5.66,5.66,0,0,0,1,.24v1a2.21,2.21,0,0,0-.39.91c-.06.36-.11.7-.14,1-.36.54-.68,1.08-1,1.62a9.11,9.11,0,0,0-.73,1.81,1.42,1.42,0,0,0,0,.91c.1.29.2.55.29.78a1.24,1.24,0,0,1-.53,1.18,3,3,0,0,1-1.51.31,3.8,3.8,0,0,1-1.5-.26,3,3,0,0,0-.82-.27,1.18,1.18,0,0,0-.49.07,1.59,1.59,0,0,0-.44.46H19.66a1.7,1.7,0,0,0-.39-.18,6.47,6.47,0,0,0-1.39-.28,15.34,15.34,0,0,0-1.62-.07l-1.7,0-1.45,0a4.46,4.46,0,0,1-.69-.27,2.94,2.94,0,0,0-.57-.22H10.44A7.24,7.24,0,0,0,9,38.16l-1.7.34-7-.34A4.91,4.91,0,0,1,0,36.7,1.85,1.85,0,0,1,1.26,35a5.4,5.4,0,0,1,2.34-.61,2.86,2.86,0,0,0,.29-1.16,5.47,5.47,0,0,0-.13-1,2.86,2.86,0,0,1-.07-.89c0-.07.09-.18.26-.34a1.39,1.39,0,0,0,.34-.83,15.71,15.71,0,0,0,.1-1.72c0-.76,0-1.24,0-1.43a7.55,7.55,0,0,0-.27-1.8,7,7,0,0,1-.26-1.55,3.9,3.9,0,0,1,0-.8,2.13,2.13,0,0,1,.49-.51V18.89a2.15,2.15,0,0,1-.19-.63,4.57,4.57,0,0,1-.1-1,5.26,5.26,0,0,1,.21-1.58q.21-.65.42-1.14V13.46l-.49-.29.49-1.56V10.16l-.34-.39.34-1.36v-2A.57.57,0,0,0,4.59,6a1.49,1.49,0,0,1-.17-.87,7.32,7.32,0,0,1-2.23-.44C.93,4.3.29,3.77.29,3.12c0-.16.33-.53,1-1.12.2-.16.41-.34.64-.56a.91.91,0,0,1,.53-.31l1,.29,3.49.83h4.32a.45.45,0,0,1,.34.14.76.76,0,0,0,.54.15,6.47,6.47,0,0,0,1-.22A14.38,14.38,0,0,1,15,2c.26.07.56.13.9.2a7.14,7.14,0,0,0,1.24.1,18.7,18.7,0,0,0,3.78-.44,6.48,6.48,0,0,1,1.21-.12,6.61,6.61,0,0,0,1-.08c.13,0,.4,0,.82.1a6.19,6.19,0,0,0,1,.1,2.16,2.16,0,0,0,.78-.15L26.94.44a1.47,1.47,0,0,1,1-.44l.48.1c.16,0,.27.09.3.19l.82,3.55a3.49,3.49,0,0,1-1.06,2.82V11s-.4.23-1.07.58c-.2.1-.52.28-1,.54a.55.55,0,0,1-.44-.24,3,3,0,0,0-.49-.49,3.76,3.76,0,0,1-.75-.68,8.8,8.8,0,0,1-.56-.92c-.09-.2-.26-.54-.48-1a4.72,4.72,0,0,1-.39-1A11.69,11.69,0,0,0,23,6.32c-.32-.78-1.1-1.16-2.33-1.16H17.18c-.22-.12-.45-.23-.68-.34L15.05,5l-1,.32-.59-.48H11.65c-.29.58-.5,1-.63,1.22a1.93,1.93,0,0,0-.34,1.07,12.76,12.76,0,0,0,.2,1.77c.12.86.24,1.51.33,1.93a7.51,7.51,0,0,1,0,1.36q-.26,3.51-.25,6.33l.73.68H16.5a1.25,1.25,0,0,0,.63-.24c.26-.16.46-.27.59-.34a1.3,1.3,0,0,1,.92,0c.26.11.49.2.68.26a.72.72,0,0,0,.63-.48,15.79,15.79,0,0,0,.63-1.65l.29-1.36a5.78,5.78,0,0,0,.44-.68c.1-.2.22-.43.39-.71s.34-.41.53-.41a.59.59,0,0,1,.41.15L23,14a3.94,3.94,0,0,1,.65.32,1.25,1.25,0,0,1,.44.55,2.92,2.92,0,0,1,.22.87c0,.32.05.7.05,1.15l-.1,1.4a2.16,2.16,0,0,0,.26.72,2.06,2.06,0,0,1,.28.82,1.43,1.43,0,0,1-.28.79,1.38,1.38,0,0,0-.26.65v3.18a3.13,3.13,0,0,1-.93.57h-.72a2.74,2.74,0,0,1-1.36-.21,4,4,0,0,1-.78-.93L20,22.67a1.27,1.27,0,0,0-.78-.24,7.66,7.66,0,0,1-.8-.09,3.71,3.71,0,0,0-.7-.05H16.6c-1.23-.19-2-.32-2.25-.37a2.92,2.92,0,0,1-1.19-.7H10.68v1.85l.24.48-.24,1.07.24,1V27l-.24.58.45,2,.08,1.16-.53.49v.58A9.42,9.42,0,0,0,10.92,33a1.84,1.84,0,0,0,.73,1,4.37,4.37,0,0,0,2.09,1,16,16,0,0,0,3,.24,2.64,2.64,0,0,0,.85-.09L18,35h3.2a4.91,4.91,0,0,0,1.92-.46,13,13,0,0,0,2.21-1.28l.87-.57a13.49,13.49,0,0,0,1.41-1.26c.22-.25.47-.51.72-.77a4.68,4.68,0,0,0,.78-.38A5.68,5.68,0,0,1,30.73,29.18Zm23.73,5.63-.52-.39h-.61L53,33.74l-.41-.29V32l-.19-.46.19-.81V27.82l-.19-.48.19-.59V22.48L53,21.9l-.39-.29v-.87l.29-.39.2-2.23V17l-.49-.49-.43-.29-.54-.77-1.07.19-.28.39L49,15.88l-.87.1-.59.39L46.5,16l-.78.1-.19-.49-1.07.49-.68.68.4.77.1.78.69.48.5.49.9.29.3-.29.89.19.78.68v.49l.19,3-.19,1-.19,1.07V27l.19,1.16v.49l-.19.58.19.68-.19.87.19.78-.19.68-.59.39v.58l-1.27,1.46-1.38-.2-1.08.39-1.57-.19-.89.19-.68-.42-1-.52L39.51,33V32l-.68-.49V28.13l.29-.57V26.2L39.7,25l-.19-1.35L39.12,23V21.76l.58-.28-.39-1.55.2-1.06.19-.19.3-1.25-.11-.58L38.83,16l-1-.39H36.53l-.67.2-.86.29-2.4.09-.66.49-.2,1-.09.68,1.07.48.87.49.48.58.19,1.75.3,1.17-.2,4.07.39.39-.19.58v.78l.19,1-.19,1.16V31l-.2,1.56.39.39v1.94L35.33,36l.59.49.68.49-.1.58h.69l.88.58,1.56.51,1,.17h1.18l.39-.39.59.39,1.08-.68h1l1.46-.58.39-.58.88-.59.49.59.29.46v.92L49,39h.85l1.23-.29.76-.19.75-.39,1.13-.29.51-.58.5-1.46-.29-.39ZM74.07,16.29l-1.16-.89-1.06-.49-1.25.5-1.35.21-1,.5-.77.5-.77.6-.48.51-.58-.41-.58-1.2-.58-.4-.19-.81H62.21l-.77.39-.59.2-.57.58-.72.68-.51.87-.3.39-.42,1.36.55.39.21.58.65.58.54.87.09,1.07-.09,2.33v6l-.57.68L59.6,33l.68.48-.31.49-.51.68-.92.39-.82.19-1,.58L56.4,37l.48.88.58.68.78.29,1,.19,1.46-.29.48-.39.78.11.68.46,2.23.11.77-.78,2.24.3.49-.59.38-1.26-.68-1-.87-.48-.68-.78-.58-.58.29-1.26-.65-.2-.32-4.66V22l.58-1,.87-.29.88-.39,1-.29.58-.59,1.07.59.58.87.68.68,1,.58.68.29L74,21.8V21l.88-1,.19-.79.2-1.48L74.84,17Zm23.64,15.8-.57,1.07-.38.87-.67.68-1.61,1.85.1.29-.77.48v.49l-.58.39-1.06.29-1.27.1-.87.58-.78-.39-.58.26-.78.13-.77-.39H85.76l-.49.19-1.46-.19L83.14,38,82,37.27l-.68-.61-.87-.1v-.39l-1-.67v-.58l-.78-1.26-.58-.87L78,31.44l-.49-.2.1-1.64-.49-.48-.49-.78-.29-.77V26.7l.78-.77v-.77l-.19-.78.38-.67.1-1L77.7,22l.2-.58.77-.87.59-.68.58-.09.1-.87.77-.68.19-.39.49-.58.68-.29.68-.58.78-.29L85,15.78l.68-.28h2.72l1,.48,1.26.1,1.07.48.68.39H93l.68.87.78.78H95l.39.68.77.87.2.88.48.87.59,1v.78l.48,1L98.28,26v4.85Zm-4.38-2.76-.49-1.07V26.5l-.19-1.27-.48-1.07-.2-2-.68-.68-.48-.78-.49.09L89.93,20l-.87-.19-.77-.59-1-.29-.77-.19-.88.19-.39.2-.19.58-.78.1-.58.68-.39.48-.58.68-.39.78-.09.58-.59.68.1,1.26-.49.58.2,1.07V29l.26,1,.34.87.18.78V32l1,.68.29.48.48.78.39.39.68.58.68.29.49.68h.48l.58.39h1.07l.78-.39.67-.49.59-.68.67-.69.59-.68.19-.78.3-.88.29-.88.19-1.08Zm28.88-.69.38.77-.38,1.25-1,2.52-.68,2.12-1.18,1.26h-.88l-.78.87-1.36.68-1.47.58-1.47.2-1.85.39-2.15-.2-1.27-.29-.88-.39v2.72l.29,1.17-.29.87.29,1.75-.78.67.29,2.62v4.18l1.45,1.07,1,.58.73.39.2.68v1.36l-.6.29-2.8.19-.48-.39H105l-.57.39-2-.39-1.38.39H99.24l-1.19-.39L97.26,56V55l.4-1.17.7-1,.79.29h1.9V51.21l.29-1.56.29-3.21.58-.68-.49-1.17.49-2.34L102.5,41l-.39-4,.39-2.63.39-1.95-.39-1,.39-1.46-.39-1.27.29-.87-.29-1.17.34-1.46.34-1.27-.26-1-.16-2.92-1.13-.2-.88-.64-.48-1,.48-1,.78-1.07,1-.29,1.07-.19,1.65-.19.58-.49H107l.58.87.68.68.09,1,1.16-.29.38-.29.87-1.07h1.35l.77-.31,1.44-.07,2.8.38.58.58,1,.68.67.39.29.57,1.16,1v.87l.68,1.35.48.49-.29.87.39.86-.48.87.68.87Zm-4.27-3.8-.79-.88-.19-.78-.5-.68-.68-.49-1.18-1-.88-.88-1.08-.29H109.9l-1,.68-.69,1-.39,1.56V25l-.29,1.26-.29,1.36.29,1.36-.29,1.36.29,1.35-.29.68.29.68-.29,1.36,1.38,1.26,1.27,1,.6.19,1,.19,2.36-.29.69-.39v-.88l.77-.1.59-1.07,1-1.37.29-1.17.19-1.95.59-.68v-4.3Zm24.75,10-.68.92.14.49-.82.48h-.39l-.39.54-.77.68H139l-.44.48h-.39l-.63.58h-2.23L133,38.79l-1.21-.19-.78-.2-.49-.48-.92-.48-1.06-.74-.2-.58-.58-.39-.15-.82-.53-.48V34l-.68-.53-.63-1-.49-.92-.14-2,.39-.43v-.48l-.25-.63-.14-1,.39-.91.24-2.66.48-1.06.15-1.4.73-.34.19-.63-.1-.48.73-.53.39-.58.05-.63.92-.92h.53l.39-.24.78-.24.63-.29.58-.49.68-.44.88-.14h2.91l1.11.34.93.54,1,.59.87.64.49,1,.63,1.13.48.78.3,1.28.09.78-.09,1.08-.1.83-.39.35h-1l-.1.24h-2.13l-.24-.24h-3.16l-2,.24-.82-.24h-2.77V25l-.44.34v2.15l.44.91.48.66.59.82.43.76.15,1,.63.81.39.29.19.52,1,.24.44.18.53.5h1.27l.19.39h.78l.68.44.53-.44h2l.58-.77.78-.3,1.36.92ZM130.5,21.07l.78.25h1.31l.78.29h2.43l.53-.2.44-.4.48-.45-.39-.54-.58-.65-.29-.8-.44-.1-.78-.35-.48-.2h-1.5l-.59.44-.92.59-.29.64-.49.69Z"/></g></g></svg>