<svg xmlns="http://www.w3.org/2000/svg" viewBox="0 0 868.36 268.38"><defs><style>.cls-1{fill:#7c4821;}</style></defs><g id="圖層_2" data-name="圖層 2"><g id="圖層_2-2" data-name="圖層 2"><g id="eu_wave"><g id="map_deco_7"><path class="cls-1" d="M679.55,230c2.45,2.42,4.88,3.73,7.93,1.32,1.06.81,2,1.6,3,2.33,2,1.44,2.75,1.44,4.49-.24a8.11,8.11,0,0,1,4.06-2.29c.61.39,1.37.89,2.14,1.36a17.46,17.46,0,0,0,2.39,1.39c1.84.74,2.92,0,3.43-2.07.07-.32.13-.65.2-1,1.33-.21,2.13.82,3.15,1.25,2.09.88,3.18.42,3.91-1.82a12.63,12.63,0,0,0,.26-1.53c3.15.41,5.06,3.47,8.21,4,0-.56,0-.88-.1-.95-4.19-2.85-7.22-4.45-9.68-5.12,0,.93,0,1.84,0,2.75,0,1.43-1,2-2.37,1.43-.72-.34-1.38-.83-2.08-1.22s-1.22-.67-1.85-.95c-.17-.08-.42,0-.88,0,.05.88.15,1.77.14,2.65a1.47,1.47,0,0,1-2,1.35,6.87,6.87,0,0,1-1.51-.81c-1.15-.76-2.27-1.56-3.34-2.31a8.76,8.76,0,0,0-4.64,2.4c-1.52,1.49-2.24,1.48-3.87.25-.55-.42-1-1-1.56-1.38s-1.15-.75-1.73-1.13a9,9,0,0,0-1,.4c-2.42,1.45-3.18,1.36-5.19-.36-.84-.71-1.34-1.92-2.57-2-1.12.68-.61,1.75-.85,2.6-.35,1.2-1.12,1.8-2.31,1.41a11.07,11.07,0,0,1-2.68-1.45c-.86-.58-1.61-1.31-2.43-2a2.69,2.69,0,0,0-.8-.23c-1.2.83-2,2.57-3.84,2.5a40,40,0,0,1-4.48-.7c3.45,3,4.82,3,9-.05.48.36,1,.75,1.54,1.17.35.29.66.64,1,.92a5.4,5.4,0,0,0,4.2,1.2C678.51,233,678.82,231.56,679.55,230Z"/><path class="cls-1" d="M660.79,256.94a8.76,8.76,0,0,0-1.22.74c-2.1,1.74-4.47,1.68-6.86.94-1.63-.49-3.19-1.21-4.76-1.82-.53.74.09.87.42,1.05a28.47,28.47,0,0,0,4.3,2.18c2.84,1,5.69,1.05,8.08-1.25a22.3,22.3,0,0,1,2.38.9,3.1,3.1,0,0,0,4.07-.63c.4-.42.75-.88,1.23-1.47,1.07.76,2,1.45,2.92,2.08a26.94,26.94,0,0,0,2.95,1.79,3.45,3.45,0,0,0,4.18-.41A16.42,16.42,0,0,1,680,260l1.86,1.39a18.45,18.45,0,0,0,1.68,1.22c2.48,1.46,4.48,1,6.22-1.47.26-.37.48-.77.75-1.19,1.44.21,2.13,1.42,3.18,2.07s2,1.46,3.33,1.42c0-.47.09-.8,0-.87-1.7-1.16-3.4-2.33-5.15-3.42a16.5,16.5,0,0,0-2.24-1c-.37.69-.62,1.19-.9,1.67-1.39,2.4-3.21,2.77-5.41,1.08-.64-.49-1.17-1.12-1.8-1.63s-1.1-.76-1.77-1.2c-.62.52-1.16.93-1.65,1.39a3.24,3.24,0,0,1-4.15.41c-1.29-.75-2.46-1.7-3.69-2.56-.65-.44-1.31-.86-1.94-1.27a7.51,7.51,0,0,0-1,.66c-2.36,2.28-2.35,2.28-5.3.8C661.65,257.29,661.22,257.13,660.79,256.94Z"/><path class="cls-1" d="M672.91,245.75c1.45,2.4,3.78,3.28,6.35,3.42.9.05,1.85-.71,3.1-1.24,2.67,1,5.26.31,7.33-2.21,1.24.62,2.32,1.27,3.47,1.73,2.16.88,3.47.2,4.24-2,.14-.43.25-.86.41-1.29,0-.08.17-.12.44-.29l1.39.73c.51.27,1,.59,1.53.81,3,1.26,4.77.85,7.05-1.67,1.56.39,2.5,2.33,4.93,2.21a31.17,31.17,0,0,0-5.84-4.45c-.28.48-.53.82-.7,1.19-.91,1.95-1.86,2.53-3.73,2a23.71,23.71,0,0,1-3.48-1.5c-.92-.43-1.8-.93-2.94-1.51-.11,1.2-.16,2.11-.29,3a1.79,1.79,0,0,1-2.15,1.73,6.15,6.15,0,0,1-2.23-.76,21.06,21.06,0,0,1-2.32-1.73,7.26,7.26,0,0,0-1.06.84c-2.27,2.57-3.44,2.8-6.54,1.24-.21.05-.52,0-.62.18a3.18,3.18,0,0,1-4.22,1.21c-1.38-.55-2.78-1-4.18-1.51Z"/><path class="cls-1" d="M631.35,238.11a7.43,7.43,0,0,0,1.14,1.23,18.86,18.86,0,0,0,7.42,2.69,5.07,5.07,0,0,0,5.82-2.69c.33-.59.63-1.2,1-2,.84.29,1.58.51,2.29.8a4.07,4.07,0,0,0,5-1,3.67,3.67,0,0,1,.5-.47c.08-.06.22,0,.49,0,.7.57,1.48,1.25,2.3,1.86,2.45,1.84,3.5,1.77,6.14-.41,2.42.13,4.43,2,7.19,2.53-1.58-2.1-3.87-3.21-7.93-4.09a1.53,1.53,0,0,0-.32.13c-.72.51-.92,1.65-2.07,1.66a3.94,3.94,0,0,1-2.82-1.13c-1-1-1.84-2.07-2.92-3.31-.69.81-1.11,1.29-1.51,1.79-1.16,1.49-2.27,1.8-3.87,1.05-.93-.44-1.85-.89-2.79-1.32-.08,0-.21,0-.54.06-.28.61-.61,1.33-.95,2.05-1.3,2.77-2.91,3.67-5.79,3-2.12-.52-4.17-1.31-6.25-1.95-.53-.17-1.09-.26-1.64-.38Z"/><path class="cls-1" d="M718.88,257.1c-2.17-.32-4.08.12-5.72-1s-3.12-1.9-4.65-2.83c-2.27,2.81-2.27,2.81-5.75,3.16-.33.79.3,1,.8,1.12a4.65,4.65,0,0,0,5.31-2.55l4.64,2.46a5.51,5.51,0,0,0,4.3.74C718.13,258.11,718.35,257.67,718.88,257.1Z"/><path class="cls-1" d="M672.85,245.82c-.12-.17-.2-.42-.37-.5s-.32.16-.49.26c.09.06.17.18.27.19a4.75,4.75,0,0,0,.65,0Z"/></g><g id="map_deco_7-2" data-name="map_deco_7"><path class="cls-1" d="M156.29,111.71c2.44,2,4.88,3.07,7.92,1.08,1.06.67,2,1.32,3,1.92,2,1.18,2.75,1.19,4.49-.2a8.86,8.86,0,0,1,4.06-1.89c.62.33,1.37.74,2.15,1.13a17.33,17.33,0,0,0,2.38,1.14c1.85.61,2.92,0,3.43-1.7.08-.27.14-.54.21-.82,1.32-.18,2.12.67,3.14,1,2.1.72,3.18.34,3.91-1.49a7.67,7.67,0,0,0,.26-1.26c3.15.34,5.07,2.85,8.22,3.3,0-.46,0-.72-.1-.77-4.2-2.35-7.23-3.66-9.69-4.21,0,.76,0,1.5,0,2.25,0,1.18-1,1.69-2.37,1.18-.73-.28-1.39-.68-2.09-1s-1.21-.54-1.84-.78a3.72,3.72,0,0,0-.89,0c.06.72.15,1.45.15,2.18a1.47,1.47,0,0,1-2,1.11,8.17,8.17,0,0,1-1.51-.67c-1.14-.62-2.26-1.28-3.34-1.9a9.53,9.53,0,0,0-4.63,2c-1.52,1.22-2.25,1.21-3.88.2-.55-.35-1-.79-1.56-1.13s-1.14-.62-1.73-.93a7.15,7.15,0,0,0-1,.33c-2.43,1.19-3.19,1.11-5.2-.3-.83-.58-1.34-1.58-2.57-1.66-1.12.56-.61,1.45-.85,2.14a1.72,1.72,0,0,1-2.31,1.17,12.19,12.19,0,0,1-2.68-1.2c-.86-.48-1.61-1.08-2.43-1.6a2.82,2.82,0,0,0-.8-.19c-1.2.68-2.05,2.11-3.84,2-1.44,0-2.86-.36-4.48-.57,3.45,2.49,4.83,2.48,9.05,0,.48.29,1,.61,1.54,1,.36.24.66.53,1,.76a6.25,6.25,0,0,0,4.2,1C155.25,114.12,155.55,113,156.29,111.71Z"/><path class="cls-1" d="M137.52,133.84a10.66,10.66,0,0,0-1.22.61c-2.1,1.44-4.46,1.38-6.86.78-1.63-.41-3.19-1-4.76-1.5-.52.61.09.72.42.86a32.29,32.29,0,0,0,4.3,1.8c2.85.79,5.69.86,8.08-1,.91.28,1.69.44,2.39.74a3.57,3.57,0,0,0,4.07-.52c.39-.34.74-.73,1.23-1.21,1.07.63,2,1.19,2.91,1.71a30.09,30.09,0,0,0,2.95,1.48,4,4,0,0,0,4.18-.34,13.94,13.94,0,0,1,1.57-.89l1.85,1.14a19.06,19.06,0,0,0,1.68,1c2.49,1.21,4.49.81,6.22-1.21.26-.3.49-.62.76-1,1.43.18,2.13,1.18,3.18,1.71a6.83,6.83,0,0,0,3.33,1.17c0-.39.08-.66,0-.71-1.7-1-3.4-1.92-5.15-2.82a19,19,0,0,0-2.24-.8c-.37.57-.61,1-.89,1.37-1.4,2-3.22,2.29-5.42.89-.63-.4-1.17-.92-1.79-1.34s-1.11-.62-1.77-1c-.62.43-1.16.77-1.66,1.15a3.79,3.79,0,0,1-4.14.34c-1.3-.62-2.47-1.41-3.7-2.11-.64-.36-1.31-.7-1.94-1a7.48,7.48,0,0,0-1,.54c-2.36,1.88-2.36,1.88-5.3.66C138.38,134.13,138,134,137.52,133.84Z"/><path class="cls-1" d="M149.64,124.64c1.45,2,3.79,2.69,6.35,2.81.9,0,1.85-.58,3.1-1a6.92,6.92,0,0,0,7.34-1.82c1.24.52,2.32,1,3.47,1.43,2.15.72,3.47.16,4.23-1.68.14-.35.26-.71.41-1.06,0-.07.18-.1.44-.24l1.4.6c.5.22,1,.48,1.52.67,3,1,4.77.7,7.06-1.38,1.56.32,2.5,1.92,4.92,1.82a31.35,31.35,0,0,0-5.84-3.66c-.28.39-.52.67-.7,1a2.86,2.86,0,0,1-3.73,1.63,27.19,27.19,0,0,1-3.48-1.24c-.91-.35-1.8-.76-2.93-1.24-.12,1-.16,1.73-.3,2.47a1.73,1.73,0,0,1-2.15,1.42,7.12,7.12,0,0,1-2.23-.62,22.91,22.91,0,0,1-2.32-1.43,7.49,7.49,0,0,0-1.06.7c-2.27,2.11-3.43,2.3-6.54,1-.21,0-.52,0-.61.15a3.56,3.56,0,0,1-4.23,1c-1.37-.44-2.78-.82-4.17-1.23Z"/><path class="cls-1" d="M108.08,118.35a6.88,6.88,0,0,0,1.15,1,21.55,21.55,0,0,0,7.41,2.22c2.51.37,4.54-.29,5.83-2.21.32-.49.63-1,1-1.63.84.24,1.58.42,2.29.66a4.71,4.71,0,0,0,5-.84,3.11,3.11,0,0,1,.49-.39c.08,0,.23,0,.49,0,.71.47,1.48,1,2.3,1.53,2.46,1.51,3.5,1.46,6.15-.34,2.41.11,4.42,1.64,7.19,2.09-1.58-1.73-3.87-2.65-7.94-3.37a2,2,0,0,0-.32.11c-.72.42-.92,1.35-2.06,1.36a4.35,4.35,0,0,1-2.82-.93c-1-.78-1.85-1.7-2.93-2.72-.68.67-1.11,1.06-1.5,1.47a3.13,3.13,0,0,1-3.88.86c-.93-.36-1.85-.73-2.78-1.08-.09,0-.22,0-.55,0-.28.5-.6,1.1-.94,1.69-1.31,2.27-2.91,3-5.8,2.44-2.12-.43-4.16-1.07-6.25-1.61-.53-.13-1.09-.21-1.63-.31Z"/><path class="cls-1" d="M195.61,134c-2.17-.26-4.08.1-5.72-.82s-3.11-1.57-4.65-2.33c-2.26,2.32-2.26,2.32-5.74,2.6-.33.65.3.85.79.92a5,5,0,0,0,5.31-2.09l4.65,2a6.55,6.55,0,0,0,4.3.61C194.87,134.81,195.09,134.44,195.61,134Z"/><path class="cls-1" d="M149.59,124.7c-.12-.15-.21-.35-.37-.42s-.33.14-.5.22c.09,0,.18.15.27.16a4.66,4.66,0,0,0,.65,0Z"/></g><g id="map_deco_7-3" data-name="map_deco_7"><path class="cls-1" d="M831.81,200.55c-1.85,1.51-3.69,2.33-6,.82-.8.51-1.54,1-2.31,1.46-1.5.89-2.08.89-3.4-.16a6.63,6.63,0,0,0-3.07-1.42l-1.63.85a13.49,13.49,0,0,1-1.8.86c-1.4.46-2.22,0-2.6-1.29-.06-.2-.1-.4-.16-.62-1-.13-1.61.51-2.38.78-1.58.54-2.41.26-3-1.14a5.66,5.66,0,0,1-.19-.95c-2.39.26-3.84,2.16-6.23,2.5,0-.35,0-.54.08-.58a28.55,28.55,0,0,1,7.33-3.19c0,.57,0,1.14,0,1.7,0,.89.78,1.29,1.79.9.55-.21,1.05-.52,1.58-.76a14.3,14.3,0,0,1,1.4-.59,2.23,2.23,0,0,1,.67,0c0,.55-.12,1.1-.11,1.65a1.1,1.1,0,0,0,1.48.84,5.8,5.8,0,0,0,1.14-.5c.87-.48,1.72-1,2.53-1.44a7.15,7.15,0,0,1,3.51,1.5c1.15.92,1.7.92,2.93.15.42-.26.77-.6,1.19-.86s.86-.47,1.31-.7a4.69,4.69,0,0,1,.75.25c1.84.9,2.41.84,3.94-.23.63-.44,1-1.19,1.94-1.25.85.42.46,1.09.65,1.62a1.3,1.3,0,0,0,1.74.88,8.63,8.63,0,0,0,2-.91c.65-.36,1.22-.82,1.84-1.21a2.4,2.4,0,0,1,.61-.14c.91.51,1.55,1.6,2.91,1.55,1.09,0,2.17-.27,3.39-.43-2.61,1.88-3.66,1.87-6.85,0-.37.23-.78.47-1.17.73s-.5.41-.78.58a4.74,4.74,0,0,1-3.18.74C832.6,202.38,832.37,201.51,831.81,200.55Z"/><path class="cls-1" d="M846,217.31a9,9,0,0,1,.93.46,6.1,6.1,0,0,0,5.19.59c1.23-.31,2.42-.75,3.61-1.13.39.46-.07.54-.32.65a24.39,24.39,0,0,1-3.26,1.36c-2.15.6-4.31.65-6.12-.78-.69.21-1.28.34-1.8.56a2.72,2.72,0,0,1-3.09-.39c-.3-.26-.56-.55-.93-.92-.81.48-1.49.91-2.21,1.3a23.21,23.21,0,0,1-2.23,1.12,3.07,3.07,0,0,1-3.16-.26,11.67,11.67,0,0,0-1.19-.68c-.47.29-.93.59-1.4.87a14.87,14.87,0,0,1-1.28.76,3.54,3.54,0,0,1-4.71-.92c-.19-.23-.36-.47-.57-.74-1.08.14-1.61.89-2.41,1.29a5,5,0,0,1-2.52.89c0-.3-.06-.5,0-.54,1.29-.73,2.58-1.45,3.9-2.13a13.76,13.76,0,0,1,1.7-.61c.28.43.47.74.68,1,1.06,1.5,2.43,1.73,4.1.67.48-.3.88-.69,1.36-1s.84-.47,1.34-.75c.47.32.88.58,1.25.87a2.87,2.87,0,0,0,3.14.25c1-.46,1.87-1.06,2.8-1.59.49-.28,1-.53,1.47-.79a4.85,4.85,0,0,1,.75.41c1.79,1.42,1.78,1.42,4,.5C845.37,217.53,845.69,217.43,846,217.31Z"/><path class="cls-1" d="M836.84,210.35a6,6,0,0,1-4.8,2.13,7.82,7.82,0,0,1-2.35-.78,5.23,5.23,0,0,1-5.56-1.38c-.94.39-1.75.79-2.63,1.08-1.62.55-2.62.13-3.2-1.27-.11-.26-.19-.54-.31-.8,0-.05-.13-.08-.33-.18l-1.06.45c-.39.17-.76.37-1.16.51-2.27.78-3.61.53-5.34-1.05-1.18.25-1.89,1.46-3.73,1.39a23.26,23.26,0,0,1,4.42-2.78,8.46,8.46,0,0,1,.53.74,2.17,2.17,0,0,0,2.83,1.24,20.05,20.05,0,0,0,2.63-.94c.7-.27,1.37-.58,2.23-.94.08.75.12,1.31.22,1.87a1.32,1.32,0,0,0,1.63,1.08,5.46,5.46,0,0,0,1.69-.48,16.07,16.07,0,0,0,1.75-1.08,6,6,0,0,1,.81.53c1.71,1.6,2.6,1.74,4.95.77.16,0,.39,0,.47.11a2.67,2.67,0,0,0,3.19.75c1-.33,2.11-.62,3.16-.93Z"/><path class="cls-1" d="M868.32,205.58a5.27,5.27,0,0,1-.87.77,16.23,16.23,0,0,1-5.61,1.67,4.16,4.16,0,0,1-4.42-1.67l-.78-1.23c-.64.18-1.2.32-1.73.5a3.56,3.56,0,0,1-3.8-.64,2.72,2.72,0,0,0-.38-.29c-.06,0-.17,0-.37,0-.53.36-1.12.78-1.74,1.16-1.86,1.14-2.65,1.1-4.65-.26-1.83.08-3.35,1.24-5.45,1.58,1.2-1.31,2.93-2,6-2.55a1.69,1.69,0,0,1,.24.08c.55.32.7,1,1.57,1a3.31,3.31,0,0,0,2.13-.71c.76-.59,1.4-1.28,2.22-2.06.52.51.84.8,1.14,1.12a2.36,2.36,0,0,0,2.93.65c.71-.27,1.4-.56,2.11-.82.06,0,.16,0,.41,0,.21.38.46.83.72,1.27,1,1.73,2.2,2.29,4.39,1.85,1.6-.32,3.15-.81,4.73-1.21.4-.11.82-.16,1.24-.24Z"/><path class="cls-1" d="M802,217.42c1.65-.2,3.09.07,4.33-.62s2.36-1.19,3.52-1.77c1.72,1.75,1.72,1.75,4.36,2,.24.5-.23.65-.6.7a3.79,3.79,0,0,1-4-1.59l-3.51,1.53a5,5,0,0,1-3.26.46C802.6,218,802.43,217.77,802,217.42Z"/><path class="cls-1" d="M836.88,210.39c.1-.11.16-.27.29-.32s.24.11.37.16c-.07.05-.13.12-.2.13s-.33,0-.5,0Z"/></g><g id="map_deco_7-4" data-name="map_deco_7"><path class="cls-1" d="M705.59,68.33c2.45,1.79,4.88,2.76,7.93,1,1.06.6,2,1.18,3.05,1.72,2,1.06,2.74,1.07,4.49-.18a9.16,9.16,0,0,1,4.06-1.7l2.14,1a20.19,20.19,0,0,0,2.39,1c1.84.55,2.92,0,3.43-1.53.07-.24.13-.48.2-.74,1.33-.16,2.13.61,3.15.92,2.09.65,3.18.31,3.91-1.34a6.41,6.41,0,0,0,.25-1.13c3.16.3,5.07,2.56,8.22,3,0-.42,0-.65-.1-.7A40.61,40.61,0,0,0,739,65.85c0,.69,0,1.36,0,2,0,1.06-1,1.52-2.37,1.06-.72-.25-1.38-.61-2.08-.9s-1.22-.49-1.85-.7a3.47,3.47,0,0,0-.88,0c0,.65.15,1.3.14,2s-1,1.24-2,1a8.31,8.31,0,0,1-1.51-.59c-1.15-.57-2.27-1.16-3.34-1.71a10,10,0,0,0-4.64,1.78c-1.52,1.1-2.24,1.09-3.87.17-.55-.3-1-.7-1.56-1s-1.15-.56-1.73-.84c-.38.12-.71.18-1,.3-2.42,1.07-3.18,1-5.2-.27-.83-.52-1.33-1.42-2.56-1.49-1.12.51-.61,1.3-.85,1.93a1.77,1.77,0,0,1-2.31,1,12.32,12.32,0,0,1-2.68-1.08c-.86-.43-1.61-1-2.43-1.44a4.22,4.22,0,0,0-.8-.17c-1.2.62-2.06,1.91-3.85,1.85-1.43,0-2.86-.32-4.47-.52,3.45,2.24,4.82,2.23,9,0,.47.27,1,.55,1.54.86.35.22.66.48,1,.69a6.81,6.81,0,0,0,4.2.88C704.55,70.5,704.86,69.46,705.59,68.33Z"/><path class="cls-1" d="M686.83,88.24a10.09,10.09,0,0,0-1.22.54c-2.1,1.3-4.47,1.25-6.86.7-1.63-.37-3.19-.89-4.77-1.34-.52.54.1.64.43.77a33.63,33.63,0,0,0,4.3,1.62c2.84.71,5.68.77,8.08-.93.91.25,1.69.4,2.38.67a3.9,3.9,0,0,0,4.07-.47c.4-.31.75-.65,1.23-1.09,1.07.57,2,1.07,2.92,1.54a31.52,31.52,0,0,0,3,1.33,4.43,4.43,0,0,0,4.18-.31c.42-.28.94-.48,1.56-.8l1.86,1a17.9,17.9,0,0,0,1.68.9c2.48,1.09,4.48.73,6.22-1.09.26-.27.48-.56.75-.88,1.43.16,2.13,1.06,3.18,1.53A7.2,7.2,0,0,0,723.1,93c0-.35.08-.6,0-.64-1.7-.86-3.4-1.73-5.15-2.54a21.53,21.53,0,0,0-2.25-.72c-.36.51-.61.89-.89,1.24-1.39,1.78-3.21,2-5.41.8-.64-.36-1.17-.83-1.8-1.21s-1.1-.56-1.77-.88c-.62.38-1.16.68-1.65,1a4.14,4.14,0,0,1-4.15.31c-1.29-.55-2.46-1.26-3.7-1.89-.64-.33-1.3-.64-1.93-.94a7.33,7.33,0,0,0-1,.48c-2.36,1.69-2.35,1.69-5.3.6C687.69,88.49,687.26,88.38,686.83,88.24Z"/><path class="cls-1" d="M699,80c1.45,1.78,3.78,2.42,6.35,2.53a11.08,11.08,0,0,0,3.1-.92,7.47,7.47,0,0,0,7.33-1.63c1.24.46,2.32.93,3.47,1.28,2.15.65,3.47.15,4.24-1.51.14-.32.25-.64.41-1,0-.06.17-.09.43-.21l1.4.54c.51.2,1,.43,1.53.6,3,.93,4.77.63,7-1.24,1.56.29,2.5,1.72,4.93,1.64a31.4,31.4,0,0,0-5.84-3.29c-.28.35-.53.6-.7.87-.91,1.45-1.86,1.88-3.73,1.47A28.79,28.79,0,0,1,725.44,78c-.92-.32-1.8-.68-2.94-1.12-.11.89-.16,1.56-.29,2.22-.19.92-.92,1.39-2.15,1.28a7.77,7.77,0,0,1-2.23-.56,22.86,22.86,0,0,1-2.32-1.28,7.82,7.82,0,0,0-1.06.62c-2.27,1.9-3.44,2.07-6.54.92-.21,0-.52,0-.62.13a3.82,3.82,0,0,1-4.22.89c-1.38-.4-2.78-.74-4.18-1.11Z"/><path class="cls-1" d="M657.39,74.3a5.92,5.92,0,0,0,1.14.91,23.06,23.06,0,0,0,7.42,2c2.5.34,4.53-.25,5.82-2,.33-.44.63-.89,1-1.47.84.22,1.58.38,2.29.6a5.11,5.11,0,0,0,5-.76,4.46,4.46,0,0,1,.5-.35,1.68,1.68,0,0,1,.49,0c.7.43,1.48.93,2.3,1.38,2.45,1.36,3.5,1.31,6.14-.31,2.42.1,4.43,1.48,7.19,1.88-1.58-1.55-3.87-2.38-7.93-3a1.5,1.5,0,0,0-.32.1c-.72.38-.92,1.22-2.07,1.23a4.76,4.76,0,0,1-2.82-.84c-1-.71-1.84-1.53-2.92-2.45-.69.6-1.11,1-1.51,1.33a3.35,3.35,0,0,1-3.87.77l-2.79-1a2.35,2.35,0,0,0-.54,0c-.28.45-.61,1-1,1.52-1.3,2-2.91,2.71-5.8,2.19-2.11-.38-4.16-1-6.24-1.44-.54-.12-1.09-.19-1.64-.28Z"/><path class="cls-1" d="M744.92,88.36c-2.17-.24-4.08.09-5.72-.74s-3.12-1.41-4.65-2.09c-2.27,2.08-2.27,2.08-5.75,2.34-.33.58.3.76.8.82,2.23.29,4.06-.21,5.31-1.88l4.64,1.82a7.25,7.25,0,0,0,4.3.55C744.17,89.1,744.39,88.78,744.92,88.36Z"/><path class="cls-1" d="M698.89,80c-.12-.13-.2-.31-.37-.37s-.32.12-.49.19c.09,0,.17.14.27.15s.43,0,.65,0Z"/></g><g id="map_deco_7-5" data-name="map_deco_7"><path class="cls-1" d="M95,51.25c2.24,1.45,4.47,2.23,7.26.79,1,.48,1.86,1,2.79,1.39,1.82.86,2.52.86,4.12-.14a9,9,0,0,1,3.71-1.37c.57.23,1.26.53,2,.81a17.82,17.82,0,0,0,2.18.83c1.69.44,2.67,0,3.14-1.23.07-.2.12-.4.19-.6,1.21-.13,2,.49,2.88.74,1.92.53,2.91.25,3.58-1.08a5.05,5.05,0,0,0,.24-.92c2.88.25,4.64,2.08,7.52,2.4,0-.33,0-.52-.09-.56a39.94,39.94,0,0,0-8.87-3.06c0,.55,0,1.1,0,1.64,0,.85-1,1.23-2.17.86-.67-.21-1.27-.5-1.91-.74s-1.12-.39-1.69-.56a3.86,3.86,0,0,0-.81,0,14.2,14.2,0,0,1,.13,1.59c0,.59-.94,1-1.79.8a7.49,7.49,0,0,1-1.38-.48c-1-.46-2.08-.93-3.06-1.38a9.94,9.94,0,0,0-4.25,1.44,2.88,2.88,0,0,1-3.54.14c-.51-.25-.93-.57-1.44-.82s-1-.45-1.58-.68a9,9,0,0,0-.91.24c-2.22.86-2.92.81-4.76-.21-.76-.43-1.22-1.15-2.35-1.21-1,.41-.56,1.05-.78,1.56a1.67,1.67,0,0,1-2.11.84,12.14,12.14,0,0,1-2.46-.87c-.78-.35-1.47-.78-2.22-1.16a3.22,3.22,0,0,0-.74-.14c-1.1.5-1.88,1.54-3.52,1.49-1.31,0-2.62-.26-4.09-.41,3.15,1.8,4.41,1.8,8.28,0,.44.21.94.44,1.41.69s.61.39,1,.56a6.9,6.9,0,0,0,3.84.71C94,53,94.29,52.17,95,51.25Z"/><path class="cls-1" d="M77.78,67.33a11.41,11.41,0,0,0-1.12.44,9.18,9.18,0,0,1-6.28.57c-1.49-.3-2.92-.73-4.36-1.09-.48.44.08.52.39.62a34.82,34.82,0,0,0,3.93,1.31c2.61.57,5.21.62,7.4-.75.83.2,1.55.32,2.19.54a3.92,3.92,0,0,0,3.72-.38c.37-.25.68-.53,1.13-.88,1,.46,1.81.87,2.67,1.24s1.76.78,2.7,1.08A4.54,4.54,0,0,0,94,69.78c.38-.23.86-.39,1.43-.65l1.7.84c.51.24,1,.52,1.54.72a5,5,0,0,0,5.7-.88c.23-.22.44-.45.68-.71,1.32.13,2,.85,2.92,1.24a7.19,7.19,0,0,0,3,.85c0-.28.07-.48,0-.52-1.56-.69-3.12-1.39-4.72-2a21.33,21.33,0,0,0-2.06-.59c-.33.42-.56.72-.81,1-1.28,1.44-3,1.66-5,.65-.58-.29-1.07-.67-1.65-1s-1-.46-1.62-.72c-.57.31-1.06.55-1.51.83a4.24,4.24,0,0,1-3.8.24c-1.18-.44-2.26-1-3.38-1.52-.59-.27-1.2-.52-1.78-.76a8.17,8.17,0,0,0-.91.39c-2.16,1.36-2.15,1.36-4.85.48C78.57,67.54,78.18,67.44,77.78,67.33Z"/><path class="cls-1" d="M88.88,60.65c1.32,1.43,3.46,2,5.81,2a11.14,11.14,0,0,0,2.84-.75,7.5,7.5,0,0,0,6.72-1.32c1.13.38,2.12.76,3.18,1,2,.52,3.17.12,3.87-1.22.14-.25.24-.52.38-.77,0-.05.16-.07.4-.17l1.28.43c.46.16.91.35,1.4.49,2.74.75,4.37.51,6.46-1,1.42.23,2.29,1.39,4.51,1.32a30.65,30.65,0,0,0-5.35-2.66,8.87,8.87,0,0,0-.64.71C118.9,60,118,60.3,116.32,60a32.36,32.36,0,0,1-3.18-.9c-.84-.26-1.65-.56-2.69-.91-.11.72-.15,1.26-.27,1.8-.18.74-.85,1.12-2,1a7.57,7.57,0,0,1-2-.45c-.72-.27-1.34-.65-2.13-1a7.88,7.88,0,0,0-1,.51c-2.08,1.53-3.15,1.67-6,.73-.19,0-.48,0-.56.11a3.83,3.83,0,0,1-3.87.72c-1.26-.32-2.55-.6-3.82-.89Z"/><path class="cls-1" d="M50.82,56.08a5.76,5.76,0,0,0,1,.73,23.93,23.93,0,0,0,6.79,1.61c2.29.27,4.15-.21,5.33-1.61.3-.35.58-.72.95-1.18.77.17,1.45.31,2.1.48a5.21,5.21,0,0,0,4.59-.61,3.4,3.4,0,0,1,.45-.28c.07,0,.21,0,.45,0,.65.34,1.36.75,2.11,1.11,2.25,1.1,3.2,1.06,5.63-.25,2.21.08,4,1.2,6.58,1.52-1.45-1.25-3.54-1.92-7.27-2.45l-.29.08c-.66.31-.84,1-1.89,1a4.89,4.89,0,0,1-2.58-.68c-.92-.57-1.69-1.24-2.68-2-.63.49-1,.77-1.38,1.07a3.38,3.38,0,0,1-3.55.63l-2.55-.79a1.77,1.77,0,0,0-.5,0l-.86,1.22c-1.2,1.65-2.67,2.19-5.31,1.77-1.94-.3-3.82-.78-5.72-1.16-.49-.1-1-.15-1.5-.23Z"/><path class="cls-1" d="M131,67.43c-2-.19-3.74.07-5.24-.6s-2.86-1.13-4.26-1.69c-2.08,1.68-2.08,1.68-5.26,1.89-.3.47.27.62.72.67,2,.23,3.73-.18,4.87-1.52l4.25,1.47a7.37,7.37,0,0,0,3.94.44C130.29,68,130.49,67.76,131,67.43Z"/><path class="cls-1" d="M88.83,60.69c-.11-.11-.19-.26-.34-.31s-.3.1-.46.16a1,1,0,0,0,.25.12c.2,0,.4,0,.6,0Z"/></g><g id="map_deco_7-6" data-name="map_deco_7"><path class="cls-1" d="M154.16,240.93c2.45,2,4.88,3.07,7.93,1.08,1,.67,2,1.32,3,1.92,2,1.18,2.74,1.19,4.49-.2a8.67,8.67,0,0,1,4.05-1.88c.62.32,1.38.73,2.15,1.12a17.45,17.45,0,0,0,2.39,1.14c1.84.61,2.92,0,3.42-1.7.08-.27.14-.54.21-.82,1.33-.18,2.13.67,3.15,1,2.09.73,3.17.35,3.9-1.49a7.67,7.67,0,0,0,.26-1.26c3.16.34,5.07,2.85,8.22,3.3,0-.46,0-.72-.1-.77-4.2-2.35-7.23-3.66-9.69-4.21,0,.76,0,1.5,0,2.25,0,1.18-1,1.69-2.37,1.18-.73-.28-1.38-.68-2.09-1s-1.21-.54-1.84-.77a3,3,0,0,0-.88,0c.05.72.15,1.45.14,2.18a1.46,1.46,0,0,1-2,1.11,7.62,7.62,0,0,1-1.51-.67c-1.15-.62-2.27-1.28-3.35-1.9a9.53,9.53,0,0,0-4.63,2c-1.52,1.22-2.24,1.22-3.87.2-.55-.35-1-.79-1.57-1.13s-1.14-.62-1.72-.93a6.89,6.89,0,0,0-1,.33c-2.42,1.19-3.19,1.11-5.2-.3-.83-.58-1.33-1.58-2.56-1.65-1.12.55-.62,1.44-.86,2.13a1.72,1.72,0,0,1-2.3,1.17,12.06,12.06,0,0,1-2.69-1.2c-.85-.48-1.61-1.08-2.42-1.6a2.91,2.91,0,0,0-.81-.19c-1.2.68-2.05,2.11-3.84,2.05-1.44-.05-2.86-.35-4.47-.57,3.44,2.49,4.82,2.48,9,0,.48.29,1,.61,1.54,1,.36.24.67.53,1,.76a6.28,6.28,0,0,0,4.21,1C153.12,243.34,153.43,242.19,154.16,240.93Z"/><path class="cls-1" d="M135.39,263.06a10.66,10.66,0,0,0-1.22.61c-2.09,1.44-4.46,1.38-6.86.78-1.62-.41-3.18-1-4.76-1.5-.52.61.09.72.43.86a31.75,31.75,0,0,0,4.3,1.8c2.84.79,5.68.86,8.08-1,.9.28,1.68.44,2.38.74a3.57,3.57,0,0,0,4.07-.52c.4-.34.74-.73,1.23-1.21,1.07.63,2,1.19,2.92,1.71a31.07,31.07,0,0,0,2.94,1.48,4,4,0,0,0,4.18-.34,15.69,15.69,0,0,1,1.57-.89l1.86,1.14c.55.34,1.08.72,1.67,1,2.49,1.2,4.49.8,6.23-1.22.26-.3.48-.62.75-1,1.43.18,2.13,1.18,3.18,1.71a6.73,6.73,0,0,0,3.33,1.17c0-.39.08-.66,0-.71-1.7-1-3.41-1.92-5.15-2.82a19.23,19.23,0,0,0-2.25-.8c-.36.57-.61,1-.89,1.37-1.4,2-3.22,2.29-5.41.89-.64-.4-1.17-.92-1.8-1.34s-1.11-.62-1.77-1c-.62.43-1.16.77-1.65,1.15a3.8,3.8,0,0,1-4.15.34c-1.29-.62-2.46-1.41-3.7-2.11-.64-.36-1.3-.7-1.93-1a7.09,7.09,0,0,0-1,.54c-2.36,1.88-2.35,1.88-5.3.66C136.26,263.35,135.83,263.22,135.39,263.06Z"/><path class="cls-1" d="M147.52,253.86c1.44,2,3.78,2.69,6.34,2.81.91.05,1.85-.58,3.1-1a6.92,6.92,0,0,0,7.34-1.82c1.24.52,2.32,1,3.47,1.43,2.15.72,3.47.17,4.23-1.68.15-.35.26-.71.41-1.06,0-.07.18-.1.44-.24l1.4.6c.51.22,1,.48,1.52.67,3,1,4.78.7,7.06-1.38,1.56.32,2.5,1.92,4.92,1.82a31,31,0,0,0-5.83-3.66,9.4,9.4,0,0,0-.7,1c-.92,1.6-1.86,2.08-3.74,1.63A26.52,26.52,0,0,1,174,251.7c-.92-.35-1.81-.76-2.94-1.24-.11,1-.16,1.73-.3,2.47a1.72,1.72,0,0,1-2.14,1.42,7.1,7.1,0,0,1-2.24-.62,21.16,21.16,0,0,1-2.31-1.43,7,7,0,0,0-1.06.7c-2.27,2.11-3.44,2.3-6.55,1-.21.05-.52,0-.61.15a3.58,3.58,0,0,1-4.23,1c-1.37-.45-2.78-.83-4.17-1.24Z"/><path class="cls-1" d="M106,247.57a6.88,6.88,0,0,0,1.15,1,21.62,21.62,0,0,0,7.41,2.22c2.51.37,4.54-.29,5.83-2.21.33-.49.63-1,1-1.63.85.24,1.58.42,2.3.66a4.69,4.69,0,0,0,5-.84,2.79,2.79,0,0,1,.5-.39c.07,0,.22,0,.49,0,.7.47,1.48,1,2.3,1.53,2.45,1.51,3.5,1.46,6.14-.34,2.41.11,4.42,1.64,7.19,2.09-1.58-1.73-3.87-2.65-7.93-3.37a1.51,1.51,0,0,0-.32.11c-.72.42-.92,1.35-2.07,1.36a4.37,4.37,0,0,1-2.82-.93c-1-.78-1.84-1.7-2.93-2.72-.68.67-1.11,1.06-1.5,1.47a3.11,3.11,0,0,1-3.87.86l-2.79-1.08a2.32,2.32,0,0,0-.54,0c-.28.5-.61,1.1-1,1.69-1.31,2.27-2.91,3-5.8,2.44-2.11-.43-4.16-1.07-6.24-1.61-.54-.13-1.09-.21-1.64-.31Z"/><path class="cls-1" d="M193.49,263.2c-2.18-.26-4.08.1-5.72-.82s-3.12-1.57-4.65-2.33c-2.27,2.32-2.27,2.32-5.75,2.6-.33.65.3.85.79.92a5,5,0,0,0,5.32-2.09l4.64,2a6.56,6.56,0,0,0,4.3.61C192.74,264,193,263.66,193.49,263.2Z"/><path class="cls-1" d="M147.46,253.92c-.12-.15-.2-.35-.37-.42s-.33.14-.5.22c.09.05.18.15.27.16a4.85,4.85,0,0,0,.66,0Z"/></g><g id="map_deco_7-7" data-name="map_deco_7"><path class="cls-1" d="M198.39,1.74c1.37,1.27,2.73,2,4.45.69.59.42,1.14.83,1.71,1.22,1.11.75,1.54.75,2.52-.13a4.59,4.59,0,0,1,2.27-1.19l1.21.71a9.59,9.59,0,0,0,1.34.72c1,.39,1.63,0,1.92-1.08,0-.17.07-.34.11-.52.75-.11,1.2.43,1.77.65,1.17.46,1.78.22,2.19-.95a5.59,5.59,0,0,0,.15-.79c1.77.21,2.84,1.8,4.61,2.09,0-.29,0-.46-.06-.49A20,20,0,0,0,217.15,0c0,.48,0,1,0,1.43,0,.74-.59,1.07-1.33.75-.41-.18-.78-.44-1.17-.64a10.9,10.9,0,0,0-1-.49c-.1-.05-.24,0-.49,0,0,.46.08.92.07,1.38a.81.81,0,0,1-1.09.7,4.48,4.48,0,0,1-.85-.42c-.64-.4-1.27-.82-1.87-1.2a4.93,4.93,0,0,0-2.6,1.25c-.86.77-1.26.77-2.18.12-.31-.21-.57-.49-.87-.71s-.65-.39-1-.59a3.91,3.91,0,0,0-.56.21c-1.36.75-1.79.71-2.92-.19-.47-.37-.75-1-1.44-1.05-.63.35-.34.92-.48,1.36a.94.94,0,0,1-1.29.73,6.12,6.12,0,0,1-1.51-.76c-.48-.3-.9-.68-1.36-1a1.4,1.4,0,0,0-.45-.12c-.67.43-1.15,1.34-2.16,1.3-.8,0-1.6-.23-2.51-.36,1.94,1.57,2.71,1.57,5.08,0,.27.19.57.39.86.61s.38.34.58.48a3.21,3.21,0,0,0,2.36.62C197.8,3.27,198,2.54,198.39,1.74Z"/><path class="cls-1" d="M187.86,15.77a6.29,6.29,0,0,0-.69.38,4.08,4.08,0,0,1-3.85.5c-.91-.26-1.79-.63-2.67-.95-.29.39,0,.45.24.55a17.56,17.56,0,0,0,2.41,1.13,4.4,4.4,0,0,0,4.54-.65,13.39,13.39,0,0,1,1.33.47,1.83,1.83,0,0,0,2.29-.33c.22-.22.41-.46.69-.77.6.4,1.1.76,1.63,1.09a15,15,0,0,0,1.66.93,2,2,0,0,0,2.34-.21c.24-.2.53-.34.88-.57l1,.73c.31.22.61.45.94.64a2.45,2.45,0,0,0,3.5-.77c.14-.19.27-.4.42-.62.8.11,1.2.74,1.78,1.08a3.58,3.58,0,0,0,1.87.74c0-.25,0-.42,0-.45-1-.61-1.92-1.22-2.9-1.79a9.5,9.5,0,0,0-1.25-.51c-.21.36-.35.63-.51.88a1.86,1.86,0,0,1-3,.56c-.36-.26-.66-.58-1-.85s-.62-.39-1-.63c-.35.27-.66.49-.93.73a1.93,1.93,0,0,1-2.33.21c-.72-.39-1.38-.89-2.07-1.33-.36-.23-.74-.45-1.09-.66a4.07,4.07,0,0,0-.56.34c-1.32,1.19-1.32,1.19-3,.42C188.34,16,188.1,15.87,187.86,15.77Z"/><path class="cls-1" d="M194.66,9.94a4.2,4.2,0,0,0,3.56,1.78c.51,0,1-.37,1.74-.65a3.58,3.58,0,0,0,4.12-1.15c.69.33,1.3.66,1.94.91a1.6,1.6,0,0,0,2.38-1.07c.08-.22.14-.45.23-.67,0,0,.1-.06.25-.15l.78.38c.28.14.56.3.86.42a3.09,3.09,0,0,0,3.95-.87c.88.2,1.41,1.21,2.77,1.15A17.55,17.55,0,0,0,214,7.7c-.16.25-.29.43-.39.62-.51,1-1,1.32-2.1,1a16.24,16.24,0,0,1-1.95-.79c-.51-.22-1-.48-1.64-.79-.07.63-.09,1.1-.17,1.57a1,1,0,0,1-1.21.9,3.66,3.66,0,0,1-1.25-.4A12.3,12.3,0,0,1,204,9a3.62,3.62,0,0,0-.59.44c-1.28,1.34-1.93,1.46-3.68.65-.11,0-.29,0-.34.09a1.87,1.87,0,0,1-2.37.63c-.77-.28-1.56-.52-2.34-.78Z"/><path class="cls-1" d="M171.34,6a3.94,3.94,0,0,0,.64.65A11.26,11.26,0,0,0,176.14,8a2.93,2.93,0,0,0,3.27-1.4c.18-.31.35-.63.58-1,.47.16.89.27,1.29.42a2.39,2.39,0,0,0,2.81-.53,2.18,2.18,0,0,1,.28-.25,1.11,1.11,0,0,1,.27,0c.4.3.83.65,1.29,1,1.38,1,2,.92,3.45-.22,1.36.07,2.48,1,4,1.32-.89-1.09-2.18-1.67-4.46-2.13l-.17.07c-.41.27-.52.86-1.17.87a2.31,2.31,0,0,1-1.58-.6c-.56-.49-1-1.07-1.64-1.72-.38.42-.62.67-.84.93a1.64,1.64,0,0,1-2.18.55l-1.56-.69s-.12,0-.31,0c-.15.31-.34.69-.53,1.06a2.51,2.51,0,0,1-3.25,1.55c-1.19-.27-2.34-.68-3.51-1-.29-.08-.61-.13-.91-.2Z"/><path class="cls-1" d="M220.45,15.86c-1.22-.17-2.29.06-3.21-.52s-1.74-1-2.6-1.48c-1.28,1.47-1.28,1.47-3.23,1.65-.18.41.17.54.45.58a2.68,2.68,0,0,0,3-1.32l2.6,1.28a3.28,3.28,0,0,0,2.41.38C220,16.38,220.16,16.15,220.45,15.86Z"/><path class="cls-1" d="M194.63,10c-.07-.1-.12-.23-.21-.27s-.18.09-.28.14c.05,0,.1.09.15.1a2.29,2.29,0,0,0,.37,0Z"/></g><g id="map_deco_7-8" data-name="map_deco_7"><path class="cls-1" d="M48,170c-2.71,1.86-5.41,2.87-8.8,1-1.17.63-2.26,1.23-3.38,1.8-2.2,1.1-3,1.1-5-.19a10.39,10.39,0,0,0-4.5-1.77c-.68.31-1.52.69-2.38,1.06A21.22,21.22,0,0,1,21.27,173c-2,.57-3.24,0-3.8-1.59-.09-.25-.15-.5-.23-.77-1.48-.16-2.36.63-3.5,1-2.32.68-3.52.32-4.33-1.4A5.65,5.65,0,0,1,9.12,169c-3.5.32-5.62,2.67-9.12,3.1.06-.44,0-.68.11-.73a46.85,46.85,0,0,1,10.75-3.94c0,.71,0,1.41,0,2.11,0,1.1,1.15,1.58,2.63,1.11.8-.27,1.53-.64,2.31-.95s1.35-.51,2-.73a3.93,3.93,0,0,1,1,0,19.6,19.6,0,0,0-.16,2c0,.76,1.13,1.3,2.17,1a9.75,9.75,0,0,0,1.67-.62c1.28-.59,2.52-1.2,3.71-1.78a11.73,11.73,0,0,1,5.15,1.85c1.68,1.15,2.49,1.14,4.3.19.61-.32,1.12-.74,1.73-1.06s1.27-.58,1.92-.87a11,11,0,0,1,1.1.31c2.7,1.11,3.54,1,5.77-.28.93-.54,1.48-1.48,2.85-1.55,1.24.53.68,1.35,1,2a2,2,0,0,0,2.56,1.09,14.77,14.77,0,0,0,3-1.12c1-.45,1.78-1,2.69-1.5a4.09,4.09,0,0,1,.89-.18c1.33.65,2.28,2,4.27,1.93,1.59,0,3.17-.34,5-.54-3.82,2.33-5.35,2.32-10,0-.53.28-1.13.58-1.71.9-.4.22-.74.5-1.14.71a8,8,0,0,1-4.67.92C49.13,172.25,48.79,171.17,48,170Z"/><path class="cls-1" d="M68.8,190.71a11.73,11.73,0,0,1,1.35.56c2.33,1.35,5,1.3,7.62.73,1.8-.38,3.54-.93,5.28-1.4.58.57-.1.67-.47.81a38.47,38.47,0,0,1-4.77,1.68c-3.16.74-6.31.8-9-1-1,.26-1.87.41-2.64.69a4.57,4.57,0,0,1-4.52-.49c-.44-.32-.83-.68-1.37-1.13-1.18.59-2.19,1.12-3.23,1.6a34.28,34.28,0,0,1-3.28,1.38,5.2,5.2,0,0,1-4.63-.31,18,18,0,0,0-1.74-.84l-2.06,1.07c-.62.32-1.21.67-1.87.94-2.76,1.13-5,.76-6.9-1.13-.29-.29-.54-.59-.84-.92-1.59.17-2.36,1.1-3.53,1.59a8.35,8.35,0,0,1-3.69,1.1c0-.37-.1-.62,0-.67,1.89-.89,3.78-1.79,5.72-2.63a22.94,22.94,0,0,1,2.49-.75c.41.53.68.92,1,1.29,1.55,1.84,3.57,2.13,6,.83.7-.38,1.3-.86,2-1.26s1.23-.58,2-.92c.69.4,1.29.71,1.84,1.07a4.87,4.87,0,0,0,4.6.32c1.44-.58,2.74-1.32,4.11-2,.71-.34,1.45-.66,2.14-1a9.91,9.91,0,0,1,1.11.5c2.62,1.76,2.61,1.76,5.89.62C67.84,191,68.32,190.85,68.8,190.71Z"/><path class="cls-1" d="M55.34,182.1c-1.6,1.84-4.19,2.52-7,2.63-1,0-2-.55-3.44-1a8.72,8.72,0,0,1-8.15-1.7c-1.37.48-2.57,1-3.85,1.34-2.38.67-3.85.15-4.69-1.58-.17-.32-.29-.66-.46-1,0-.06-.19-.09-.49-.22l-1.55.56c-.56.21-1.1.45-1.69.62-3.33,1-5.3.66-7.83-1.28-1.73.3-2.77,1.79-5.47,1.7a35.64,35.64,0,0,1,6.48-3.42,9,9,0,0,1,.78.91c1,1.5,2.06,1.95,4.14,1.53a37.46,37.46,0,0,0,3.86-1.16c1-.33,2-.71,3.26-1.17.13.93.18,1.63.33,2.32.21,1,1,1.44,2.38,1.33a8.74,8.74,0,0,0,2.48-.59A26.48,26.48,0,0,0,37,180.64a8,8,0,0,1,1.18.65c2.52,2,3.82,2.15,7.26,1,.24,0,.58,0,.69.14,1.2,1.21,2.76,1.45,4.68.93,1.53-.42,3.09-.78,4.63-1.16Z"/><path class="cls-1" d="M101.48,176.21a7.59,7.59,0,0,1-1.28.95A27.2,27.2,0,0,1,92,179.23c-2.79.35-5-.27-6.47-2.07-.36-.46-.7-.92-1.15-1.52-.93.22-1.75.39-2.54.61a6,6,0,0,1-5.57-.78,4.4,4.4,0,0,0-.55-.37,2.23,2.23,0,0,0-.54,0c-.79.44-1.64,1-2.55,1.43-2.73,1.41-3.89,1.36-6.83-.32-2.67.1-4.91,1.54-8,1.95,1.76-1.61,4.3-2.47,8.81-3.15a1.79,1.79,0,0,1,.35.11c.8.39,1,1.26,2.3,1.27a5.52,5.52,0,0,0,3.13-.87c1.11-.73,2-1.59,3.25-2.54.76.62,1.23,1,1.66,1.37a3.92,3.92,0,0,0,4.31.81c1-.34,2-.69,3.09-1a2.87,2.87,0,0,1,.6.05l1,1.58c1.45,2.13,3.23,2.82,6.44,2.28,2.34-.4,4.62-1,6.93-1.5.59-.13,1.21-.2,1.82-.29Z"/><path class="cls-1" d="M4.32,190.83c2.41-.24,4.53.1,6.35-.76s3.46-1.47,5.16-2.18c2.52,2.16,2.52,2.16,6.38,2.43.36.61-.33.8-.88.86-2.48.3-4.52-.22-5.9-2l-5.15,1.9a8.48,8.48,0,0,1-4.77.56C5.15,191.61,4.91,191.27,4.32,190.83Z"/><path class="cls-1" d="M55.4,182.15c.14-.14.23-.33.42-.39s.36.13.55.2a1.05,1.05,0,0,1-.3.15,6,6,0,0,1-.73,0Z"/></g><g id="map_deco_7-9" data-name="map_deco_7"><path class="cls-1" d="M231.72,168.93c-1.57,1.28-3.13,2-5.09.7-.68.43-1.31.84-2,1.23-1.27.76-1.76.76-2.88-.13a5.75,5.75,0,0,0-2.61-1.21c-.4.21-.88.47-1.38.72a10.19,10.19,0,0,1-1.53.73c-1.19.4-1.88,0-2.21-1.09-.05-.17-.08-.34-.13-.53-.85-.11-1.36.44-2,.66-1.35.47-2,.22-2.51-1a5.12,5.12,0,0,1-.17-.81c-2,.22-3.25,1.84-5.28,2.13,0-.3,0-.46.07-.5a24.57,24.57,0,0,1,6.22-2.71c0,.49,0,1,0,1.45,0,.76.67,1.09,1.53.76.46-.18.88-.44,1.34-.65s.78-.35,1.18-.5a2.35,2.35,0,0,1,.57,0,13.33,13.33,0,0,0-.09,1.4c0,.53.65.89,1.25.72a4.69,4.69,0,0,0,1-.43c.74-.4,1.46-.83,2.15-1.22a6.17,6.17,0,0,1,3,1.27,1.72,1.72,0,0,0,2.49.13c.35-.22.65-.51,1-.73s.74-.4,1.11-.6a4.72,4.72,0,0,1,.64.22c1.56.76,2,.71,3.34-.19.54-.38.86-1,1.65-1.07.72.36.39.93.55,1.37a1.1,1.1,0,0,0,1.48.75,7.88,7.88,0,0,0,1.73-.77c.54-.3,1-.69,1.55-1a3.15,3.15,0,0,1,.52-.12c.77.44,1.32,1.36,2.47,1.32.92,0,1.84-.23,2.87-.37-2.21,1.6-3.1,1.6-5.81,0-.31.19-.65.39-1,.61s-.43.35-.66.49a4,4,0,0,1-2.7.63C232.39,170.48,232.2,169.74,231.72,168.93Z"/><path class="cls-1" d="M243.78,183.15a7.28,7.28,0,0,1,.79.39,5.21,5.21,0,0,0,4.41.51c1-.27,2-.65,3.06-1,.33.39-.06.46-.28.56a20.85,20.85,0,0,1-2.76,1.15,5.56,5.56,0,0,1-5.19-.66,13.35,13.35,0,0,0-1.53.48,2.3,2.3,0,0,1-2.62-.34c-.26-.22-.48-.47-.79-.78-.69.41-1.27.77-1.87,1.1a18.7,18.7,0,0,1-1.9.95,2.59,2.59,0,0,1-2.68-.22c-.27-.2-.61-.34-1-.57l-1.19.74a11.79,11.79,0,0,1-1.08.64,3,3,0,0,1-4-.78c-.17-.19-.31-.4-.48-.63-.92.12-1.37.76-2,1.1a4.4,4.4,0,0,1-2.14.75c0-.25-.05-.42,0-.46,1.09-.61,2.19-1.23,3.31-1.81a12.47,12.47,0,0,1,1.44-.51c.24.36.4.63.58.88.89,1.27,2.06,1.47,3.47.57.41-.26.76-.59,1.16-.86s.71-.4,1.14-.63c.4.27.74.49,1.06.73a2.43,2.43,0,0,0,2.66.22c.83-.4,1.59-.9,2.38-1.35.41-.24.84-.46,1.24-.67a4,4,0,0,1,.64.34c1.52,1.21,1.52,1.21,3.41.43C243.23,183.34,243.5,183.25,243.78,183.15Z"/><path class="cls-1" d="M236,177.24a5.07,5.07,0,0,1-4.08,1.81,6.65,6.65,0,0,1-2-.66,4.43,4.43,0,0,1-4.71-1.17c-.8.33-1.49.67-2.23.92-1.38.46-2.23.11-2.72-1.08-.09-.22-.17-.46-.27-.68,0,0-.11-.06-.28-.15l-.89.38c-.33.15-.65.31-1,.43a3.86,3.86,0,0,1-4.54-.88c-1,.2-1.6,1.23-3.16,1.17a20.05,20.05,0,0,1,3.75-2.36c.18.26.34.43.45.63a1.84,1.84,0,0,0,2.4,1.05,19,19,0,0,0,2.23-.79c.59-.23,1.16-.49,1.89-.8.07.63.1,1.11.19,1.58a1.11,1.11,0,0,0,1.38.92,4.61,4.61,0,0,0,1.43-.4,15.94,15.94,0,0,0,1.49-.92,4.72,4.72,0,0,1,.68.45c1.46,1.35,2.21,1.47,4.21.65.13,0,.33,0,.39.1a2.3,2.3,0,0,0,2.72.63c.88-.28,1.78-.53,2.68-.79Z"/><path class="cls-1" d="M262.7,173.2a4.16,4.16,0,0,1-.74.65,13.64,13.64,0,0,1-4.76,1.42,3.51,3.51,0,0,1-3.74-1.42c-.21-.31-.41-.63-.67-1-.54.16-1,.28-1.47.43a3,3,0,0,1-3.22-.54,2,2,0,0,0-.32-.25c-.05,0-.15,0-.32,0-.45.3-1,.66-1.47,1-1.58,1-2.25.94-4-.22-1.55.07-2.85,1.05-4.62,1.34,1-1.11,2.48-1.7,5.1-2.17a1.67,1.67,0,0,1,.2.08c.46.27.59.87,1.33.87a2.8,2.8,0,0,0,1.81-.6c.64-.5,1.19-1.09,1.88-1.74l1,.94a2,2,0,0,0,2.49.56l1.79-.7a1.39,1.39,0,0,1,.35,0l.6,1.08c.84,1.47,1.87,1.94,3.73,1.57,1.36-.27,2.68-.69,4-1,.35-.08.71-.13,1.06-.2Z"/><path class="cls-1" d="M206.45,183.24c1.4-.17,2.63.06,3.68-.52s2-1,3-1.5c1.45,1.49,1.45,1.49,3.69,1.67.21.42-.19.55-.51.59a3.22,3.22,0,0,1-3.41-1.34l-3,1.3a4.22,4.22,0,0,1-2.76.39C206.93,183.77,206.79,183.54,206.45,183.24Z"/><path class="cls-1" d="M236,177.28c.08-.09.13-.23.24-.27s.21.09.32.14c-.06,0-.12.1-.18.1a3,3,0,0,1-.42,0Z"/></g><g id="map_deco_7-10" data-name="map_deco_7"><path class="cls-1" d="M644.89,4.92c1.45,1.18,2.89,1.82,4.7.64.63.4,1.21.78,1.81,1.14,1.18.7,1.63.7,2.67-.12a5.16,5.16,0,0,1,2.4-1.12c.37.19.82.44,1.28.67a10.17,10.17,0,0,0,1.41.68c1.1.36,1.73,0,2-1l.12-.49c.79-.11,1.26.4,1.87.61,1.24.43,1.88.2,2.31-.89a3.88,3.88,0,0,0,.16-.75c1.87.21,3,1.7,4.87,2,0-.27,0-.42,0-.46a22.5,22.5,0,0,0-5.75-2.49c0,.45,0,.89,0,1.33,0,.7-.61,1-1.4.7-.43-.16-.82-.4-1.24-.59s-.72-.33-1.09-.47a2.63,2.63,0,0,0-.53,0c0,.43.09.87.09,1.3a.86.86,0,0,1-1.16.65,4,4,0,0,1-.9-.39c-.68-.37-1.34-.76-2-1.13a5.52,5.52,0,0,0-2.75,1.18,1.58,1.58,0,0,1-2.3.11c-.33-.2-.6-.46-.93-.67s-.67-.36-1-.55c-.23.08-.42.12-.59.2-1.44.7-1.89.66-3.09-.18-.49-.34-.79-.94-1.52-1-.66.33-.36.86-.5,1.27a1,1,0,0,1-1.37.69,7,7,0,0,1-1.6-.71c-.5-.29-1-.64-1.44-1a1.48,1.48,0,0,0-.47-.12c-.71.41-1.22,1.26-2.28,1.22-.85,0-1.7-.21-2.66-.34,2,1.48,2.87,1.47,5.37,0,.29.18.61.36.91.57s.4.31.62.45a3.71,3.71,0,0,0,2.49.58C644.27,6.35,644.45,5.67,644.89,4.92Z"/><path class="cls-1" d="M633.75,18.05a6.9,6.9,0,0,0-.72.36,4.77,4.77,0,0,1-4.07.46c-1-.24-1.89-.59-2.83-.88-.31.36.06.42.26.51a17.79,17.79,0,0,0,2.55,1.06,5.12,5.12,0,0,0,4.79-.61c.54.17,1,.26,1.42.44a2.11,2.11,0,0,0,2.41-.31c.24-.2.44-.43.73-.71.64.37,1.17.7,1.73,1a17.88,17.88,0,0,0,1.75.88,2.41,2.41,0,0,0,2.48-.2,9,9,0,0,1,.93-.53l1.1.68c.33.2.65.42,1,.59a2.76,2.76,0,0,0,3.69-.72c.15-.18.29-.37.44-.58.86.11,1.27.7,1.89,1a4.06,4.06,0,0,0,2,.7c0-.24.05-.4,0-.43-1-.57-2-1.13-3.06-1.67a10.09,10.09,0,0,0-1.33-.47c-.21.33-.36.58-.53.81a2.1,2.1,0,0,1-3.21.53c-.38-.24-.69-.55-1.06-.79s-.66-.37-1.05-.59c-.37.25-.69.45-1,.68a2.25,2.25,0,0,1-2.46.2c-.76-.37-1.46-.83-2.19-1.25-.38-.22-.77-.42-1.15-.62a4.79,4.79,0,0,0-.59.32c-1.4,1.11-1.4,1.12-3.14.39C634.27,18.22,634,18.14,633.75,18.05Z"/><path class="cls-1" d="M641,12.59a4.67,4.67,0,0,0,3.76,1.67,5.87,5.87,0,0,0,1.84-.61,4.12,4.12,0,0,0,4.36-1.07c.73.3,1.37.61,2.06.84,1.27.43,2,.1,2.51-1,.08-.21.15-.43.24-.63,0,0,.1-.06.26-.15l.83.36c.3.13.59.29.9.4a3.57,3.57,0,0,0,4.19-.82c.93.19,1.48,1.14,2.92,1.08a18.79,18.79,0,0,0-3.46-2.17c-.17.23-.31.4-.42.58a1.69,1.69,0,0,1-2.21,1,17.34,17.34,0,0,1-2.06-.74c-.55-.21-1.08-.45-1.75-.74-.07.59-.09,1-.17,1.47a1,1,0,0,1-1.28.84,4,4,0,0,1-1.32-.37,11.88,11.88,0,0,1-1.38-.84,4.58,4.58,0,0,0-.63.41c-1.34,1.25-2,1.36-3.88.6-.12,0-.31,0-.36.09a2.13,2.13,0,0,1-2.51.59c-.82-.26-1.65-.49-2.48-.73Z"/><path class="cls-1" d="M616.29,8.86a3.9,3.9,0,0,0,.68.6,12.57,12.57,0,0,0,4.39,1.31,3.25,3.25,0,0,0,3.46-1.31c.2-.29.38-.58.62-1,.49.15.93.26,1.35.4a2.8,2.8,0,0,0,3-.5,1.7,1.7,0,0,1,.3-.23s.13,0,.29,0c.41.28.87.61,1.36.91,1.46.9,2.08.87,3.65-.2,1.43.06,2.62,1,4.26,1.24-.94-1-2.29-1.57-4.71-2a.56.56,0,0,0-.18.07c-.43.24-.55.8-1.23.8a2.58,2.58,0,0,1-1.67-.55c-.6-.46-1.1-1-1.74-1.61-.41.39-.66.63-.89.87a1.85,1.85,0,0,1-2.3.51l-1.65-.64c-.06,0-.13,0-.33,0-.16.3-.36.65-.56,1A2.77,2.77,0,0,1,620.93,10c-1.25-.25-2.47-.64-3.71-.95a9.79,9.79,0,0,0-1-.19Z"/><path class="cls-1" d="M668.22,18.13c-1.29-.15-2.42.06-3.39-.48s-1.85-.93-2.76-1.38c-1.35,1.37-1.35,1.37-3.41,1.54-.19.38.18.5.47.54a3,3,0,0,0,3.15-1.24l2.76,1.2a3.86,3.86,0,0,0,2.55.36C667.78,18.62,667.91,18.41,668.22,18.13Z"/><path class="cls-1" d="M640.91,12.63c-.07-.09-.12-.21-.22-.25s-.19.08-.29.13c.05,0,.1.09.16.09a2.54,2.54,0,0,0,.39,0Z"/></g><g id="map_deco_7-11" data-name="map_deco_7"><path class="cls-1" d="M757.14,147.14c-2.49,2-5,3.12-8.07,1.1-1.07.68-2.07,1.34-3.1,1.95-2,1.2-2.8,1.21-4.57-.2a8.81,8.81,0,0,0-4.13-1.92c-.63.33-1.4.75-2.19,1.14a16.91,16.91,0,0,1-2.43,1.16c-1.87.62-3,0-3.48-1.73-.08-.27-.14-.54-.22-.83-1.35-.19-2.16.68-3.2,1-2.13.73-3.23.35-4-1.52a7.88,7.88,0,0,1-.26-1.29c-3.21.35-5.16,2.91-8.36,3.37.05-.47,0-.73.1-.79,4.27-2.39,7.35-3.73,9.86-4.29,0,.78,0,1.54,0,2.3,0,1.2,1.06,1.72,2.41,1.2.74-.28,1.41-.69,2.13-1s1.23-.55,1.87-.79a3.31,3.31,0,0,1,.9,0c0,.73-.15,1.48-.14,2.22a1.48,1.48,0,0,0,2,1.12,8.06,8.06,0,0,0,1.53-.67c1.17-.64,2.31-1.31,3.41-1.94a9.67,9.67,0,0,1,4.71,2c1.55,1.24,2.29,1.23,3.94.2.57-.35,1-.8,1.6-1.15s1.16-.63,1.75-.95a9.34,9.34,0,0,1,1,.34c2.47,1.21,3.24,1.13,5.29-.3.85-.6,1.36-1.61,2.61-1.69,1.14.57.62,1.47.87,2.18a1.75,1.75,0,0,0,2.35,1.18,12.17,12.17,0,0,0,2.73-1.22c.87-.49,1.64-1.1,2.47-1.63a2.91,2.91,0,0,1,.82-.19c1.22.69,2.08,2.15,3.91,2.09,1.46,0,2.91-.37,4.55-.59-3.51,2.54-4.91,2.53-9.21,0-.48.3-1,.63-1.56,1-.37.24-.68.54-1,.78a6.42,6.42,0,0,1-4.28,1C758.2,149.59,757.89,148.42,757.14,147.14Z"/><path class="cls-1" d="M776.24,169.66a10.23,10.23,0,0,1,1.24.62c2.14,1.47,4.55,1.41,7,.8,1.65-.42,3.24-1,4.84-1.53.54.62-.09.73-.43.88a32.37,32.37,0,0,1-4.38,1.83c-2.89.8-5.78.87-8.22-1-.92.28-1.72.45-2.43.75a3.64,3.64,0,0,1-4.14-.52c-.4-.36-.76-.75-1.25-1.24-1.09.64-2,1.22-3,1.74a31.15,31.15,0,0,1-3,1.51,4.1,4.1,0,0,1-4.25-.35,16.26,16.26,0,0,0-1.6-.91l-1.89,1.17a17.14,17.14,0,0,1-1.71,1c-2.53,1.23-4.56.82-6.33-1.23-.27-.31-.49-.64-.77-1-1.46.18-2.17,1.19-3.23,1.73a6.92,6.92,0,0,1-3.39,1.2c0-.4-.09-.67,0-.73,1.73-1,3.46-1.95,5.24-2.86a17.59,17.59,0,0,1,2.29-.82c.37.58.62,1,.9,1.4,1.43,2,3.28,2.32,5.51.9.65-.41,1.2-.93,1.84-1.36s1.12-.63,1.79-1c.64.44,1.19.78,1.69,1.17a3.84,3.84,0,0,0,4.22.34c1.31-.62,2.51-1.42,3.76-2.14.66-.37,1.33-.72,2-1.06a6.93,6.93,0,0,1,1,.55c2.4,1.91,2.39,1.91,5.39.67C775.36,170,775.8,169.82,776.24,169.66Z"/><path class="cls-1" d="M763.9,160.3c-1.47,2-3.85,2.74-6.46,2.86-.92.05-1.88-.6-3.15-1a7.06,7.06,0,0,1-7.47-1.85c-1.26.52-2.36,1.06-3.54,1.45-2.18.73-3.53.17-4.3-1.71-.15-.35-.27-.72-.42-1.08,0-.07-.18-.1-.45-.24l-1.42.61c-.52.23-1,.49-1.55.68-3,1.05-4.86.71-7.18-1.4-1.59.33-2.55,1.95-5,1.86a31,31,0,0,1,5.95-3.73c.28.39.53.68.71,1,.93,1.63,1.89,2.12,3.8,1.66a28.13,28.13,0,0,0,3.54-1.26c.93-.36,1.83-.77,3-1.26.11,1,.16,1.76.3,2.51a1.75,1.75,0,0,0,2.18,1.45,7.29,7.29,0,0,0,2.28-.64,21.81,21.81,0,0,0,2.35-1.45,7.49,7.49,0,0,1,1.08.71c2.32,2.15,3.5,2.34,6.67,1,.21.05.52,0,.62.16a3.64,3.64,0,0,0,4.3,1c1.4-.46,2.83-.84,4.25-1.26Z"/><path class="cls-1" d="M806.21,153.9a7.14,7.14,0,0,1-1.17,1,21.92,21.92,0,0,1-7.54,2.25c-2.56.38-4.62-.29-5.93-2.25-.34-.5-.65-1-1.06-1.66-.85.25-1.61.43-2.33.67a4.76,4.76,0,0,1-5.1-.85,3.33,3.33,0,0,0-.51-.4,1.92,1.92,0,0,0-.5,0c-.72.48-1.5,1-2.34,1.55-2.5,1.54-3.56,1.49-6.25-.34-2.46.11-4.51,1.67-7.32,2.12,1.61-1.76,3.94-2.69,8.07-3.43a3.19,3.19,0,0,1,.33.11c.73.43.94,1.38,2.1,1.39a4.43,4.43,0,0,0,2.87-1c1-.79,1.88-1.72,3-2.76.7.68,1.13,1.07,1.53,1.49a3.19,3.19,0,0,0,4,.88c.94-.37,1.88-.75,2.83-1.11a2.09,2.09,0,0,1,.55.06c.29.51.62,1.11,1,1.71,1.33,2.32,3,3.08,5.9,2.49,2.15-.43,4.24-1.09,6.36-1.63.54-.14,1.11-.22,1.66-.32Z"/><path class="cls-1" d="M717.11,169.8c2.21-.26,4.15.1,5.82-.83s3.17-1.59,4.73-2.37C730,169,730,169,733.51,169.25c.34.66-.3.86-.8.93-2.28.32-4.14-.24-5.41-2.13l-4.73,2.06a6.65,6.65,0,0,1-4.37.62C717.87,170.65,717.65,170.28,717.11,169.8Z"/><path class="cls-1" d="M764,160.36c.12-.15.21-.36.38-.43s.33.14.5.22c-.09.06-.18.16-.27.17s-.45,0-.67,0Z"/></g></g></g></g></svg>