<svg xmlns="http://www.w3.org/2000/svg" viewBox="0 0 87.49 106.69"><defs><style>.cls-1{fill:#7c4821;}</style></defs><g id="圖層_2" data-name="圖層 2"><g id="event"><g id="fish"><path class="cls-1" d="M17.93,36.32l.86.28a4.16,4.16,0,0,1,1.81,1.22,13.21,13.21,0,0,1,1.15,1.33,5.68,5.68,0,0,1,.71,1.36c.07.2-.06.48-.1.73a3.81,3.81,0,0,1-2.06-.43c-.62-.27-1.23-.57-1.9-.88a3.42,3.42,0,0,0-.18.6,4.62,4.62,0,0,1-1.45,2.93,3.2,3.2,0,0,1-1.45,1,1.77,1.77,0,0,1-.21,0A2.53,2.53,0,0,1,14.9,43c0-.13.07-.28,0-.38a1.91,1.91,0,0,1,0-1.11c.08-.49.1-1,.15-1.47,0-.23.16-.48.1-.66a2.29,2.29,0,0,0-.56-1,14.31,14.31,0,0,1-2.37-2.84c-.29-.38-.6-.74-.87-1.14a16,16,0,0,1-1.55-2.81A30.74,30.74,0,0,1,8.8,27.77a6.24,6.24,0,0,1-.12-1.19c-.07-.73-.15-1.46-.21-2.19a11.57,11.57,0,0,1,.61-5,15.68,15.68,0,0,1,.6-1.71c.31-.59.56-1.27,1.27-1.57a12.89,12.89,0,0,1,3,2.85,14,14,0,0,1,1.29,2.3c.56,1.17,1.07,2.37,1.57,3.57a10,10,0,0,1,.32,1.1c.08.22.21.43.27.65.24,1.06.46,2.12.69,3.18.05.23.1.47.17.69a3.54,3.54,0,0,1,.13,1.77c-.11.58-.11,1.19-.18,1.78C18.16,34.74,18,35.5,17.93,36.32ZM9,22.85a5.49,5.49,0,0,0,2.88.47,4.72,4.72,0,0,0,3-1.68l-1-1.78a2.9,2.9,0,0,0-.44-.69,9.45,9.45,0,0,0-2.12-2c-.37-.21-.58-.23-.76.12a11.72,11.72,0,0,0-1,2.25A31.61,31.61,0,0,0,9,22.85Zm.48,5.42c.15.64.27,1.13.38,1.62a3.49,3.49,0,0,0,1.57,2.26.53.53,0,0,0,.49,0,2,2,0,0,0,.74-1.59,8.32,8.32,0,0,1-.17-1.19,1.79,1.79,0,0,0-.47-1.25,1.9,1.9,0,0,1-.17-.6c0-.13-.05-.25-.07-.35-.25.41-.47.83-.73,1.21a.79.79,0,0,1-1.07.24A5.22,5.22,0,0,1,9.52,28.27ZM14.74,34l1-.07A2.68,2.68,0,0,0,16,32.09c-.17-.56-.36-1.12-.54-1.68a7.11,7.11,0,0,1-.73.36c-.45.18-.89.24-1.2-.26,0,0-.07,0-.14,0s0,.2,0,.3-.05.2-.08.31c.5,0,.62.18.78.69C14.23,32.55,14.5,33.26,14.74,34ZM13.47,23.6l-1.64.57c.09.36.22.76.3,1.16a3.4,3.4,0,0,0,.69,1.43.43.43,0,0,0,.66.14,4.84,4.84,0,0,1,.47-.21C14.6,25.54,14,24.6,13.47,23.6Zm2,14.25A3,3,0,0,0,14.83,35a1.19,1.19,0,0,1-1.17,1.4C14.23,36.93,14.62,37.6,15.48,37.85Zm1.11-9.18a2.42,2.42,0,0,0,.23-2.2,8.31,8.31,0,0,0-.86.16.34.34,0,0,0-.28.38A2.23,2.23,0,0,0,16.59,28.67Zm0,4.5c0,.45,0,.45.38.43Zm3.3,5,0,0,.55.3,0,0ZM11.81,26.87l.16,0c0-.13,0-.26,0-.4h-.13Zm1.36,4.7h-.12l0,.34h.07Zm3.26,7.14,0,0,.34.18v0Zm-.57,3.34,0-.1-.19.11,0,.08A1.76,1.76,0,0,0,15.86,42.05Zm.23-13.15-.07,0,.05.22.13-.05Zm-2.78,6.67a1.26,1.26,0,0,0,.18.1l.16,0,0,0Z"/><path class="cls-1" d="M29.94,60.23c-.51-.52-1.15-.84-1.62-1.38s-1.18-1.17-1.72-1.8a16,16,0,0,1-1.1-1.59,15.78,15.78,0,0,1-1.24-2.82c-.13-.31-.28-.62-.44-.92a.64.64,0,0,1-.1-.61.57.57,0,0,0,0-.23c0-.86-.08-1.72-.11-2.58a3.94,3.94,0,0,1,.1-1.28c0-.09,0-.2,0-.3,0-.37,0-.61.43-.74a1.7,1.7,0,0,1,1.8.42c.71.66,1.44,1.3,2.13,2,.51.51,1,1.08,1.45,1.59a8.4,8.4,0,0,1,1,1.55c.21.35.38.74.6,1.09a5.42,5.42,0,0,1,.71,2c.17.92.43,1.81.62,2.72.09.42.11.86.17,1.38l.68.23c.55.18,1.11.34,1.66.54a2.27,2.27,0,0,1,.49.34A5.9,5.9,0,0,1,37,61.09a.78.78,0,0,1,.16.36.28.28,0,0,1-.29.34c-.25,0-.5.1-.75.13a5.39,5.39,0,0,1-.9,0c-.72-.06-1.45-.15-2.18-.23l-.25,0a5,5,0,0,1,.1,2A7.92,7.92,0,0,1,32.25,66a.57.57,0,0,1-.63.29c-.08,0-.17-.16-.23-.26s-.07-.2-.12-.3c-.32-.67-.65-1.33-1-2-.14-.3-.21-.62-.34-.92A3.91,3.91,0,0,1,29.94,60.23Zm-.74-8.82.2.45.1-.07-.31-.38-.06-.19-.05,0ZM30,52.87l.19.54.1,0-.3-.49-.09-.31-.09,0Zm.51,0a2.92,2.92,0,0,0,.43,1,4.22,4.22,0,0,0-.23-.79c0-.07-.13-.11-.2-.16.11-.37-.24-.54-.33-.83l-.07,0Zm5.77,8.37A8.89,8.89,0,0,0,34.59,60a2.88,2.88,0,0,0-1.66-.42.84.84,0,0,1-.62-.12c-.36-.39-.74-.13-1,0a1.69,1.69,0,0,0-.84,1.08A3.43,3.43,0,0,0,30.56,63c.24.56.53,1.1.8,1.64.13.27.27.53.41.79h.09c.06-.18.13-.35.2-.52a6.5,6.5,0,0,0,.34-1.62,2.9,2.9,0,0,0,0-.93,5.66,5.66,0,0,0-.36-1,.44.44,0,0,1,.05-.52c.16-.15.25,0,.32.14s.08,0,.11,0c.39.11.77.24,1.16.33A5.57,5.57,0,0,0,36.26,61.26ZM31.93,58.7a2.63,2.63,0,0,0,.13-.57A1.2,1.2,0,0,0,32,57.6c-.12-.22-.31-.4-.45-.62-.44-.69-.9-1.38-1.32-2.09s-.77-1.44-1.13-2.17c-.23-.46-.43-.92-.62-1.39s-.38-1-.58-1.59l-.94,1c.25.55.49,1.13.76,1.69s.65,1.23,1,1.85l1.18,2.25a7.88,7.88,0,0,0,.4.76c.32.52.66,1,1,1.53Zm-4.25-10c-.2-.23-.37-.44-.56-.62a3.16,3.16,0,0,0-.95-.79c-.07,0-.11-.14-.18-.19a2,2,0,0,0-1.16-.61.94.94,0,0,0-.31.06,2.75,2.75,0,0,1,.74,1.37,1.42,1.42,0,0,0,.16.45.5.5,0,0,1,.06.59c-.41.09-.63,0-.57-.41.12-.69-.26-1.14-.73-1.67-.05.4-.11.71-.13,1a8.68,8.68,0,0,0,0,1c0,.66.08,1.33.12,2a.23.23,0,0,0,.28.24,3.27,3.27,0,0,0,2.35-1.05A2.67,2.67,0,0,0,27.68,48.66Zm-3.37,3a16.33,16.33,0,0,0,2,4.32,16.12,16.12,0,0,0,3.28,3.37c-.25-.48-.51-.94-.79-1.41s-.7-1.15-1-1.73-.66-1.16-1-1.75a11,11,0,0,1-.57-1.07c-.22-.48-.39-1-.58-1.46a.48.48,0,0,0-.55-.36C24.83,51.58,24.59,51.63,24.31,51.66Zm6.16,7.22c-.1-.17-.12-.44-.42-.34C30.2,58.67,30.33,58.78,30.47,58.88Zm0-5,.06,0-.17-.23,0,0Zm-2.24,1.53,0,0,.21.1v0Zm3.63,1.42,0,0-.1-.16-.05,0Z"/><path class="cls-1" d="M31.87,42.44a10,10,0,0,1,1.13.43,7.85,7.85,0,0,1,1.85,1.07,8.13,8.13,0,0,1,1.23,1.74c.15.25,0,.49-.34.53A3.54,3.54,0,0,1,34.13,46,11.08,11.08,0,0,1,33,45.54a.48.48,0,0,0-.69.24c-.38.62-.81,1.21-1.19,1.83-.24.38-.53.2-.82.17a19.17,19.17,0,0,1-.13-2.13c0-.72.22-1.43.31-2.15a.78.78,0,0,0-.09-.5c-.65-.91-1.31-1.81-2-2.71a8.42,8.42,0,0,1-1.15-2.23c-.35-1-.8-1.94-1.15-2.92a21.75,21.75,0,0,1-.63-2.27,15,15,0,0,0-.37-1.93A4.58,4.58,0,0,1,24.86,29a15.67,15.67,0,0,0-.2-1.91,9.52,9.52,0,0,1,0-1.51c0-.48.13-.95.21-1.41a1.11,1.11,0,0,1,1.81-.71A11.34,11.34,0,0,1,28.83,26a18.41,18.41,0,0,1,1.55,3.11c.07.16.26.27.4.38a.68.68,0,0,1,.31.59,2.49,2.49,0,0,0,.09,1,19.35,19.35,0,0,1,1,4.3,15.63,15.63,0,0,1,0,4.1C32.05,40.44,32,41.42,31.87,42.44ZM29.14,28a.59.59,0,0,0-.05-.13s-.06,0-.08-.07a9.13,9.13,0,0,0-2.51-3.21c-.44-.35-.72-.25-.87.3a9.36,9.36,0,0,0-.17,2.84.84.84,0,0,0,.51.63A4.11,4.11,0,0,0,29.14,28Zm-3.32,2.52c.17,1,.34,2,.5,3a7.14,7.14,0,0,1,.64-.68c.38-.31.82-.56,1.21-.86a5.83,5.83,0,0,0,1.16-1.65A8,8,0,0,1,25.82,30.47Zm1.35,5.25a7.7,7.7,0,0,0,.28.82.58.58,0,0,0,.27.32,5.3,5.3,0,0,0,3.34.14c.26-.09.31-.23.18-.53A5.91,5.91,0,0,1,27.17,35.72Zm1.75,3.73A6.41,6.41,0,0,0,31,37.82c-.61,0-1.08,0-1.55,0s-1-.08-1.54-.12C28.26,38.33,28.59,38.88,28.92,39.45Zm-3.18-10a4.9,4.9,0,0,0,4-.61c-.53-.12-.91.22-1.33.23s-.91.08-1.36.08-.9-.06-1.39-.1Zm4.65,3.87-.12,0c.05.15.09.31.14.46l.09,0C30.47,33.69,30.43,33.53,30.39,33.37Zm.16,2.34h.18l0-.39h-.11Zm-2.91-1.25h.06l0-.27h-.07ZM34,43.93l0,0-.12-.08,0,0Z"/><path class="cls-1" d="M7,42.8c.79.24,1.58.44,2.32.72a2.26,2.26,0,0,1,.82.69c.29.35.19.65-.23.82s-1.05.37-1.56.58a.64.64,0,0,0-.31.32,8.2,8.2,0,0,0-.18.86A2.75,2.75,0,0,1,5.9,48.7c-.25.11-.5.22-.77,0,0,0-.15,0-.23,0-.44.08-.57-.13-.61-.61-.06-.88.15-1.74.12-2.61a.66.66,0,0,0-.12-.41c-.58-.56-.89-1.3-1.44-1.89a10.61,10.61,0,0,1-1.2-1.95c-.08-.14-.16-.28-.25-.42A8.62,8.62,0,0,1,.17,36.26c0-.72-.12-1.44-.16-2.16a5.35,5.35,0,0,1,0-1,13.32,13.32,0,0,1,.38-1.88c.17-.51.56-.63,1.05-.4a6.59,6.59,0,0,1,3,2.76c.44.82.92,1.62,1.32,2.46a10.56,10.56,0,0,1,.68,1.88,13.68,13.68,0,0,1,.42,2.21C7,41,7,41.93,7,42.8ZM.77,38c.24,0,.41-.14.54-.1a6.89,6.89,0,0,0,1.87,0,3.46,3.46,0,0,0,2.28-1.31c-.3-.61-.6-1.2-.92-1.86A3.43,3.43,0,0,1,.66,35.93C.7,36.68.73,37.33.77,38Zm.09-6.74c-.1.64-.24,1.28-.3,1.93s0,1,0,1.53c0,.33.12.47.44.56a2.64,2.64,0,0,0,1.82,0c.42-.17.72-.62,1.08-1s.21-.45,0-.67c-.38-.42-.73-.87-1.15-1.25a6.26,6.26,0,0,0-1.13-.77A8.33,8.33,0,0,0,.86,31.27Zm5.26,7.92a7.05,7.05,0,0,1-4.48,1.06l1,1.76c.74-.17,1.36-.36,2-.46s1.05-.74,1.65-1C6.23,40.07,6.18,39.63,6.12,39.19Zm-1,4.93L5,44.05c-.07.05-.19.08-.2.14s.05.16.1.29C5,44.31,5,44.21,5.08,44.12ZM6,42.61l.13,0,.17-.48-.09,0Zm-.33.46,0-.1-.3-.09,0,.12Zm-.53-.85-.08,0,.09.17.11-.06Z"/><path class="cls-1" d="M70.14,106a1,1,0,0,0,.5-1.15c-.12-.51-.15-1-.22-1.57A6.58,6.58,0,0,1,68,101.93a2,2,0,0,0-.42-.27,5.23,5.23,0,0,1-1.89-1.7.93.93,0,0,0-.25-.3c-1.11-.59-1.62-1.72-2.36-2.64a3.51,3.51,0,0,1-.4-.77l-1-2.13a1.23,1.23,0,0,0-.17-.32.63.63,0,0,1-.05-.84c.2-.36.53-.3.82-.25a2.86,2.86,0,0,1,.83.3,15.61,15.61,0,0,1,4.1,2.87,12.88,12.88,0,0,1,1.31,1.62c.49.66,1,1.31,1.44,2s.86,1.52,1.33,2.36l1,0c.51,0,1-.1,1.53-.09a7.58,7.58,0,0,1,1.16.19.82.82,0,0,1-.58.87c-.48.15-1,.3-1.45.47a.54.54,0,0,0-.38.54,4,4,0,0,1-.2,1,7.75,7.75,0,0,1-.44.86c-.09.17-.14.37-.24.55s-.17.25-.24.24-.25.1-.37.18-.47,0-.64-.21S70.25,106.13,70.14,106ZM68,99.35l-.08.07.54.58.06-.06C68.38,99.75,68.21,99.55,68,99.35Zm.93,2.74,0,0-.27-.14,0,0Zm-2.28-5,0,0,.12.08v0Z"/><path class="cls-1" d="M46.57,95.48c.1.18.19.3.25.43.13.31,0,.44-.31.54a10.29,10.29,0,0,0-1,.4.3.3,0,0,0-.14.17,6.76,6.76,0,0,1-1.25,1.92.51.51,0,0,1-.68,0,.52.52,0,0,1-.08-.43,1.22,1.22,0,0,0-.08-1.16,1,1,0,0,1-.12-.72.89.89,0,0,0-.54-.91l.31,0c-.27-.24-.5-.46-.75-.66A11,11,0,0,1,41,94.18c-.67-.65-1.3-1.33-1.91-2a18.65,18.65,0,0,1-1.16-1.53A5.82,5.82,0,0,1,37,88.81a5.93,5.93,0,0,0-.52-1.28,8.63,8.63,0,0,1-.69-3c0-.09,0-.21,0-.26-.32-.36-.1-.64.08-.93a2.87,2.87,0,0,1,1.38.6c.15.16.31.3.47.45.39.36.81.69,1.18,1.07a9.29,9.29,0,0,1,1.75,2.29,2.37,2.37,0,0,0,.36.49,9.67,9.67,0,0,1,1.37,2.5c.45,1,.8,2.06,1.19,3.1a.81.81,0,0,1,0,.27c0,.54.09.55.58.72a4.12,4.12,0,0,1,1.11.49C45.68,95.58,46.06,95.84,46.57,95.48Zm-10-11.2-.07,0c0,.08.07.15.11.22s.06,0,.09,0Zm1.89,5.79.1,0-.07-.2-.08,0ZM37,86.24l-.12,0,0,.23.07,0Z"/><path class="cls-1" d="M13.27,65.39a5,5,0,0,0-.64.13c-.66.26-1.3.54-2,.82a1.35,1.35,0,0,0-.47.26c-.28.31-.52.27-.77,0a1,1,0,0,0-.11-.1c.17-.53.33-1,.5-1.56a.55.55,0,0,0-.25-.7,4.55,4.55,0,0,1-1.29-1.4C8,62.37,7.68,62,7.4,61.56a13.9,13.9,0,0,1-1.93-3.8c-.23-.76-.43-1.54-.6-2.33a5,5,0,0,1-.08-1.16c0-.55.34-.74.85-.55a6.79,6.79,0,0,1,1.14.46,4,4,0,0,1,1.34,1.65c.48.9,1,1.81,1.36,2.75a10.62,10.62,0,0,1,1,3.32,6,6,0,0,1,.18,1.4c0,.32.23.41.5.47A3.25,3.25,0,0,1,13.11,65,1.28,1.28,0,0,1,13.27,65.39Zm-5.53-6-.09-.25-.07,0,.17.2.06.25.07,0ZM6,54.74l-.1,0-.1.26.11,0Z"/><path class="cls-1" d="M20.15,20.19l-1.71-1.9a4.89,4.89,0,0,1-1.25-2.88c-.07-.72,0-1.45,0-2.18,0-.36,0-.72-.05-1.12a1.64,1.64,0,0,1,.36-.32.46.46,0,0,1,.39,0,7.79,7.79,0,0,1,2.49,2.86,6.38,6.38,0,0,1,.46,1.46c.29,1.16.56,2.33.84,3.5.25.1.51.08.65.42s.53.25.82.31a2.73,2.73,0,0,0,.68-.06c.07.13.19.27.18.39s-.15.43-.2.43c-.56-.11-1,.35-1.53.31-.05,0-.12,0-.16,0-.72-.28-1.11.24-1.56.63a6.11,6.11,0,0,1-.67.57.6.6,0,0,1-.5.07.56.56,0,0,1-.21-.46,1.25,1.25,0,0,1,.36-.8,2.92,2.92,0,0,0,.43-.8Z"/><path class="cls-1" d="M42.23,63.17,42,63c0-.43,0-.8-.06-1.17a.45.45,0,0,1,.21-.51.51.51,0,0,0,0-.79,11.86,11.86,0,0,1-1.47-2.24,3.62,3.62,0,0,0-.22-.32,17.25,17.25,0,0,1-2.41-4.62c-.1-.29-.2-.59-.28-.88s0-.42.31-.43a1.65,1.65,0,0,1,1,.2c.33.21.71.35,1,.57a4.58,4.58,0,0,1,.77.69,9.35,9.35,0,0,1,.77,1,13.87,13.87,0,0,1,1.67,4.06,3.11,3.11,0,0,1,.06.44.81.81,0,0,0,.83.84l.48.07a.79.79,0,0,1,.58.67.45.45,0,0,1-.21.28c-.27.14-.56.24-.84.37a1.73,1.73,0,0,0-1.07,1.22c0,.16-.25.3-.41.41A3.84,3.84,0,0,1,42.23,63.17Z"/><path class="cls-1" d="M7.44,0c.45.32.91.55,1.12,1.07a9,9,0,0,1,.78,3.1c0,.53.13,1.06.2,1.59a10.54,10.54,0,0,1,0,3,1.06,1.06,0,0,0,.69,1,2,2,0,0,0,.58.14c.67,0,.77.14.66.83-.4.12-.81.22-1.21.35a1.53,1.53,0,0,1-1.17,0c-.38-.18-.65.07-.9.29s-.65.65-1,1l-.59-.48.92-1.7a10.38,10.38,0,0,0,.48-.94,1.47,1.47,0,0,0,0-1.31A12.26,12.26,0,0,1,6.7,3.28,11.61,11.61,0,0,1,7,.54C7,.34,7.28.17,7.44,0Zm0,3.87.1.3a13.36,13.36,0,0,0,.31,2l.17,0c-.16-.65-.33-1.29-.49-1.94l-.1-.3,0-.27-.2,0Z"/><path class="cls-1" d="M45,76a.63.63,0,0,1,.12,1,2.74,2.74,0,0,0-.19.34,2.8,2.8,0,0,1-1,1.2c-.19.13-.31.36-.51.48a.67.67,0,0,1-.55.11.73.73,0,0,1-.25-.5c0-.23.07-.47.07-.7a7.72,7.72,0,0,0,0-1.18.68.68,0,0,0-.37-.41,3.53,3.53,0,0,1-1.31-1c-.48-.52-.94-1.06-1.39-1.62a4.09,4.09,0,0,1-.61-1c-.3-.74-.58-1.49-.81-2.26a.54.54,0,0,1,.75-.68,7.37,7.37,0,0,1,1.21.71A13.84,13.84,0,0,1,42,72a5.24,5.24,0,0,1,1,1.63,10.6,10.6,0,0,1,.42,1.79c.1.54.17.61.7.62h.49A2.72,2.72,0,0,0,45,76ZM40,72.53l0,.14.08,0Zm1.3,2,0,.06.2.07,0,0Zm-1.71-2.83-.08,0,.11.15s.06,0,0-.07S39.56,71.71,39.54,71.67Z"/><path class="cls-1" d="M87.21,103.59a.63.63,0,0,1,.12,1,2.74,2.74,0,0,0-.19.34,2.86,2.86,0,0,1-1,1.2c-.19.13-.32.36-.51.48a.67.67,0,0,1-.55.11.73.73,0,0,1-.25-.5c0-.23.07-.47.07-.71a6.51,6.51,0,0,0,0-1.17.59.59,0,0,0-.36-.41,3.53,3.53,0,0,1-1.31-1c-.48-.52-.94-1.06-1.39-1.62a4,4,0,0,1-.61-1,21.48,21.48,0,0,1-.81-2.25.54.54,0,0,1,.75-.68,6.72,6.72,0,0,1,1.21.71,13.11,13.11,0,0,1,1.89,1.5,5.19,5.19,0,0,1,1,1.62,11,11,0,0,1,.42,1.8c.1.54.17.61.7.62.16,0,.33,0,.49,0Zm-5.07-3.47,0,.13.09,0Zm1.3,2,0,.06.2.07,0,0Zm-1.72-2.83-.07,0,.11.15s.06-.06,0-.07A.48.48,0,0,0,81.72,99.26Z"/><path class="cls-1" d="M12.27,21.14c-.38-.21-.43-.41-.22-.8s.41-.52.66-.38a1,1,0,0,1,.4,1.13C13,21.33,12.65,21.35,12.27,21.14Z"/><path class="cls-1" d="M27.66,26.88c.27.13.33.4.16.71a1.45,1.45,0,0,1-1,.25c-.16-.06-.25-.53-.15-.75S27.23,26.67,27.66,26.88Z"/><path class="cls-1" d="M25.77,74.06c.33.15.63.28.93.44a4.23,4.23,0,0,1,2.4,2.63c0,.09,0,.17,0,.25,0,.28,0,.38-.35.39a6.56,6.56,0,0,1-2.68-.58c0,.7,0,1.37.07,2a1.55,1.55,0,0,1-.22.94,1.23,1.23,0,0,0-.14.42c0,.18-.42.71-.58.72a.49.49,0,0,1-.32-.14,7.2,7.2,0,0,1-1.07-1.56,2.74,2.74,0,0,1-.3-1c-.08-.87-.12-1.74-.17-2.61a6.83,6.83,0,0,1,.08-.82c-.26-.23-.57-.49-.86-.77-.46-.46-.87-1-1.35-1.4A6.85,6.85,0,0,1,19.8,70.9a9.92,9.92,0,0,1-1-2.24A13.23,13.23,0,0,0,18.18,67a4.58,4.58,0,0,1-.14-.53c-.14-.6-.32-1.2-.41-1.81a13.68,13.68,0,0,1-.15-1.92c0-1,.1-1.93.17-2.89,0-.39.05-.38.42-.39a2.35,2.35,0,0,1,1.21.31,11.12,11.12,0,0,1,2.11,1.57l1.48,1.29s.05,0,.06,0c.38,1.19,1.25,2.13,1.71,3.28a14,14,0,0,1,1.11,4.14c.07.93.13,1.85.16,2.78A8.06,8.06,0,0,1,25.77,74.06Zm-2.6-9.76a10.61,10.61,0,0,1-4.65,2c.21.62.43,1.18.59,1.75a15.8,15.8,0,0,0,2,4.17,7.93,7.93,0,0,0,1.31,1.47,6.88,6.88,0,0,0,1.49,1.23c.2-.53.48-1,1.13-.94.06,0,.16-.14.17-.23a17.71,17.71,0,0,0,.14-1.93A14.87,14.87,0,0,0,24.57,67,12.78,12.78,0,0,0,23.17,64.3Zm-4-4.07-.68-.18c-.18,0-.24.05-.28.21A8.26,8.26,0,0,0,18,62.53c0,.61.09,1.23.12,1.85s.09.56.58.56a2.53,2.53,0,0,0,1.29-.3c.43-.26.89-.46,1.29-.73a4.26,4.26,0,0,0,.74-.73c.13-.16.22-.37,0-.56s-.32-.34-.5-.48A13.89,13.89,0,0,0,19.16,60.23Zm4.94,18c-.05.21-.05.21.25.61s.32.42.49.47Zm1-3.35.13-.31-.5.08Zm.42,2.5h-.1l.1.5.1,0C25.59,77.72,25.56,77.55,25.53,77.39Zm-.48,2.8.11-.24-.27,0Zm1.43-5L26.14,75l.18.29Zm-1.32,2.78-.07,0,.14.2,0,0Zm2-1.94-.05,0a.61.61,0,0,0,.05.12h0Z"/><path class="cls-1" d="M21.89,66.77c.14.28.29.57.46.86a11.6,11.6,0,0,1,.8,1.46,3.33,3.33,0,0,1,.32,1.84,3.5,3.5,0,0,1-.23.56.56.56,0,0,1-.79-.16c-.19-.26-.39-.51-.59-.76s-.59-.78-.85-1.2-.41-.55-.24-1,.26-.87.41-1.3c0-.1.17-.19.28-.25A2.42,2.42,0,0,1,21.89,66.77Zm.31,3,.23.09,0-.07H22l0,.09Zm-.26-1.86,0,0,.12.12.05-.06Z"/><path class="cls-1" d="M20.24,62.17a3.81,3.81,0,0,1,.62.56c.19.27.08.42-.26.43a.91.91,0,0,1-.33,0C19.9,63,19.9,63,20,62.64a3,3,0,0,0,.09-.32Z"/><path class="cls-1" d="M2.9,33.53c-.09.3.21.72-.23.86a.72.72,0,0,1-.62-.27,1,1,0,0,1,.22-.72C2.49,33.13,2.68,33.43,2.9,33.53Z"/></g></g></g></svg>