<svg xmlns="http://www.w3.org/2000/svg" viewBox="0 0 25.76 300"><defs><style>.cls-1{fill:#792221;}</style></defs><g id="圖層_2" data-name="圖層 2"><g id="event"><path id="line" class="cls-1" d="M25.76,150c-.05,0-.54-.9-1.12-1.89a8.8,8.8,0,0,0-1.35-1.91,6.74,6.74,0,0,1-1.06-1.86,5.89,5.89,0,0,0-1.14-1.95c-.37-.14-2.18-3.13-3.68-6.09-2.14-4.26-2.6-5.07-3.21-5.63h-.07l.71-1.22A32.52,32.52,0,0,1,17,126c.82-1,.89-.76-2-5.19-2.07-3.18-2.45-4.13-2.35-6,.07-1.62,1.87-5.08,4-7.8,1.35-1.71,1.35-1.71-.89-5.89-1.49-2.82-2.45-7.59-2.36-11.89a19.7,19.7,0,0,0-.15-3.43c0-15.29-.36-38.54-.15-66.26,1-3.79,3-5.38,6.34-6a2.55,2.55,0,0,1,1.65.47c1.25.9,1.43,3.36.41,5.62-1.14,2.57-.7,3.15,1,1.31,1.08-1.13,1.55-4.07,1-6.36-.36-1.57-.43-1.63-2.19-2.33a6.19,6.19,0,0,0-8.07,2.89c-1,1.91-1,1.89-2.93-1.17-1.61-2.61-3.87-4.08-6-3.85A7.59,7.59,0,0,0,3,10.45c-.08.06-.53.33-1,.61a5.18,5.18,0,0,0-1.53,2c-.33,2.69.89,4.81,2.69,7.51.08.12.35.15.64,0s.37-.36.07-.75c-2.69-3.46-3.9-7.36,1.8-7.42,2.44.53,5,4.48,5.52,8.39C11.34,44,12,61.15,11.61,88a33,33,0,0,0,.12,4.66c.35,3.4.24,5-.34,5.21a10,10,0,0,0-1.79,2.21A15.82,15.82,0,0,1,8,102.21a4.36,4.36,0,0,0-.85,1.23c-.9,1.5-.55,3,1.35,6.27.9,1.54,1.66,2.92,1.74,3.1.63,1.23.46,2.12-1.1,5.66-2.29,5.24-2.32,5.56-.53,7.67A13.33,13.33,0,0,1,11.24,130a3.31,3.31,0,0,0,1.12,1.26c-.09.22-.15.3-.27.56a54,54,0,0,1-4.84,8.74C5.32,143.75,3,147,1,150c-1,1.46-1.1,1.8-.9,2.69.23,1.13,1.63,3.38,3.36,5.38a65.05,65.05,0,0,1,6.18,8.65,11.78,11.78,0,0,0,1.18,1.79,2.31,2.31,0,0,0,.34.36,3,3,0,0,0-.79,1,13.14,13.14,0,0,1-2.52,4C6,176,6,176.32,8.41,181.54c1.56,3.54,1.73,4.43,1.12,5.67-.08.17-.9,1.56-1.73,3.09-1.88,3.32-2.18,4.79-1.32,6.27a5.19,5.19,0,0,0,.85,1.23,13.83,13.83,0,0,1,1.57,2.08,9.43,9.43,0,0,0,1.79,2.19c.59.24.7,1.79.38,5.21a29,29,0,0,0-.1,4.66c.46,26.84-.05,44-.11,67.23-.46,3.9-3,7.85-5.48,8.4-5.73,0-4.58-3.94-1.88-7.42.31-.37.3-.61-.06-.75s-.58-.09-.64,0c-1.8,2.69-3,4.81-2.69,7.51a5.08,5.08,0,0,0,1.54,2l1,.59a6.89,6.89,0,0,0,1.49.23c2.09.22,4.35-1.26,5.93-3.89,1.87-3.05,1.91-3.06,3-1.08a6.17,6.17,0,0,0,8.06,2.83c1.8-.7,1.8-.77,2.18-2.35.51-2.28,0-5.22-1.06-6.35-1.73-1.84-2.17-1.25-1,1.3,1,2.26.9,4.75-.37,5.64a2.64,2.64,0,0,1-1.65.48c-3.3-.55-5.38-2.15-6.37-6-.36-27.67-.16-51-.19-66.28a20.56,20.56,0,0,0,.13-3.42c-.11-4.29.82-9.08,2.29-11.89,2.2-4.18,2.21-4.2.85-5.89-2.19-2.69-4-6.17-4.08-7.79-.11-1.84.27-2.8,2.33-6,2.85-4.42,2.78-4.24,2-5.19a27.78,27.78,0,0,1-2.19-3.37L13,169a20.32,20.32,0,0,0,2.81-3.77,28.25,28.25,0,0,1,2.14-2.73,33.12,33.12,0,0,0,3.22-4.73c1-1.79,2.47-4.25,3.25-5.46A17.43,17.43,0,0,0,25.76,150Zm-2.24-.13a1.76,1.76,0,0,1-.38.9l-1.26,2.19a15.39,15.39,0,0,1-1.31,1.88,6.88,6.88,0,0,0-1,1.71c-.4,1-2.13,3.46-5.51,7.89-1.79,2.4-2.28,2.34-3.73-.38a13.16,13.16,0,0,0-1.84-2.54,19.89,19.89,0,0,1-2-2.61,5.73,5.73,0,0,0-1.36-1.66,11.53,11.53,0,0,1-1.91-2.49l-1.48-2.35,1-1.12a42,42,0,0,1,3.63-5.16c.68-1.13,2.32-3.8,3.64-5.92a48.67,48.67,0,0,0,3-5.38c.3-.81.67-1.42.81-1.37a9.88,9.88,0,0,1,1.24,2.07c2,4.1,2.46,4.93,3.06,5.61a12.35,12.35,0,0,1,1.25,2,4.84,4.84,0,0,0,.9,1.41,11.92,11.92,0,0,1,1.42,2.17,16.07,16.07,0,0,0,1.7,2.54.69.69,0,0,1,.28.56Zm-4.43.22a4.54,4.54,0,0,0-.53-1.38,5.14,5.14,0,0,0-1.17-1.8.75.75,0,0,1-.37-.67A20.48,20.48,0,0,0,13.59,141c-.62-.36-1.74.74-6.08,6.27-2.58,3.3-2.69,2.84,2.36,10.76a17.78,17.78,0,0,0,2,2.81c.39.16.89-.25,1.44-1.23.28-.46,1.11-1.79,1.86-3s1.73-2.9,2.24-3.84a9.79,9.79,0,0,1,1.45-2.17.73.73,0,0,0,.25-.71ZM16.49,7.79A5.28,5.28,0,0,0,16.25,7c-.24-.72-.9-2.64-1.37-4.26-.83-2.69-1-2.92-1.47-2.69a4.36,4.36,0,0,0-.9.49c-.14.13-1,.81-1.95,1.5A4.7,4.7,0,0,0,8.73,4.22c-.26,1.3.73,4.69,1.75,5.94s1.57,1.5,2.26,1.14a3,3,0,0,0,.7-.62A9.3,9.3,0,0,1,15.49,9C16.38,8.54,16.62,8.38,16.49,7.79Zm0,141.47a2.6,2.6,0,0,1-.27,1.37,52.13,52.13,0,0,1-3.43,6.43c-.23.37-.54.63-.67.56a17.19,17.19,0,0,1-3.24-4.35c-1.61-2.69-1.59-2.75.94-5.89,2-2.48,2.87-3.48,3.36-3.51.31,0,.49.33.69.9a2,2,0,0,0,.67,1,6.21,6.21,0,0,1,1.28,1.84,5.61,5.61,0,0,1,.67,1.62ZM16.21,292.2c.14-.58-.1-.75-1-1.26a8.63,8.63,0,0,1-2-1.61,2.66,2.66,0,0,0-.72-.62c-.68-.36-1.32,0-2.24,1.14s-2,4.66-1.71,5.95A4.51,4.51,0,0,0,10.33,298l2,1.49a5.63,5.63,0,0,0,.9.49c.54.23.66,0,1.47-2.68.49-1.64,1.09-3.59,1.36-4.29.08-.25.16-.5.23-.76Zm-.78-187.54c-.06.89-1.32,3.1-3,5.21l-.89,1.18L10.11,109c-1.6-2.35-2-3.3-1.84-4.16.07-.34.17-.51.23-.38s.57-.53,1.14-1.48a31.25,31.25,0,0,1,2.12-2.69c.27-.79,1.05-1.15,1.28-.6.42,1,2.08,4.24,2.38,4.71a.58.58,0,0,1,.05.29Zm-.53,20.4c0,.83-.26,1.79-.7,1.92a3,3,0,0,0-.76,1.08L13,129l-.76-.76a5.9,5.9,0,0,1-1.1-1.61,7.48,7.48,0,0,0-1.31-1.85l-1-1,.9-2.23a6.08,6.08,0,0,1,1.51-2.46c.33-.14.59-.1.54.09a8.48,8.48,0,0,0,1.26,2.23,18.67,18.67,0,0,1,1.67,2.87,3.37,3.37,0,0,1,.15.78Zm-.23,70.32a.39.39,0,0,1-.05.28c-.31.47-1.93,3.73-2.35,4.72-.24.56-1,.2-1.29-.59-.7-.94-1.51-1.86-2.13-2.69s-1.1-1.61-1.16-1.48-.15,0-.22-.36c-.18-.9.23-1.8,1.8-4.18L10.66,189l.89,1.16c1.7,2.12,3,4.33,3.06,5.2ZM14.49,7.18c-2.44,2.87-2.13,3.74-4.09-.11-.69-1.73-.68-1.79.43-3A7.09,7.09,0,0,1,12.56,2.7c.55-.3.65-.11,1.21,1.79C14.12,5.66,14.44,6.87,14.49,7.18Zm-.28,285.57c-.05.32-.35,1.52-.69,2.69-.53,1.93-.66,2.12-1.2,1.87a7.43,7.43,0,0,1-1.74-1.47c-1.12-1.19-1.13-1.22-.46-3,2-3.86,1.65-3,4.09-.13ZM14,174.93a2.07,2.07,0,0,1-.15.77,17.45,17.45,0,0,1-1.65,2.88A8.14,8.14,0,0,0,11,180.83c0,.17-.22.22-.54.08a6,6,0,0,1-1.52-2.47L8,176.21l1-1a7.66,7.66,0,0,0,1.3-1.84,6.46,6.46,0,0,1,1.09-1.63l.76-.78.46,1a2.57,2.57,0,0,0,.75,1.06c.44.17.74,1.1.71,1.93Zm-1.15-24.49a5.24,5.24,0,0,0-.5-1.87.72.72,0,0,0-.51-.11c-.64.12-1.37,1.43-1.38,2.44,0,1.34,1.33,1.52,2.21.28A2.43,2.43,0,0,0,12.88,150.44Z"/></g></g></svg>