<svg xmlns="http://www.w3.org/2000/svg" viewBox="0 0 433.83 533.79">
    <defs>
        <style>.cls-1{fill:#231815;}</style>
    </defs>
    <g id="圖層_2" data-name="圖層 2">
        <g id="event">
            <g id="map_us">
                <path class="us_path" d="M73.67,181l1.06,1.43a4.26,4.26,0,0,0,.93.5,34.57,34.57,0,0,1,7.08,3.18,9.09,9.09,0,0,0,4,1.08c1.08,0,2.17,0,3.12,0l2.75-1.05.93-1.39h5.64l1,.52,3.09,4.19c.78,1.48.66,2.9.87,4.28.77.77,1.28,1.83,2.33,2.23H108l1.6-2.23a6.94,6.94,0,0,1,4.14-.66l1.12.57c.69,1.25,1.84,2.12,2.19,3.8v1.85c.65,1.08,1.29,2.17,1.93,3.23a4.24,4.24,0,0,0-.31,2.59c.38.75.75,1.52,1.09,2.21a10.7,10.7,0,0,1,3.7,1.52l.52-.63c.27-2-.39-4.22,1.17-6.34.73-1.4,3-1.67,3.71-3.51a38.69,38.69,0,0,0,8.13-4,7.5,7.5,0,0,1,5.23-1.38l2,1h2.91l1.48,1c1,0,1.94.2,2.83-.3a1.33,1.33,0,0,0,1.64.06c0-.21-.06-.45-.08-.65l-1.74-1.25c-.16-.63-.11-1,.37-1.36h5.62l1.78-1a4.11,4.11,0,0,0,2.93.08,8,8,0,0,1,1-.16,4.48,4.48,0,0,1,4.25,1.67c.37.44.68.94,1,1.36a3.6,3.6,0,0,0,2.44-.58,11.89,11.89,0,0,1,1.39-.45c1.17,1.23,2.08,2.56,3.18,3.5a6,6,0,0,1-.43,4.08,12.4,12.4,0,0,0,.16,2.44,39.93,39.93,0,0,0,1.57,4.86,31.12,31.12,0,0,0,2,3.57c.06.12.27.15.52.28a8.28,8.28,0,0,0,2.9-3.73c0-.68,0-1.63,0-2.58a12.91,12.91,0,0,0-.61-4.83,9.43,9.43,0,0,1-.5-3.29,1.93,1.93,0,0,0,0-.76c-.74-2-.39-4.09-.36-6.07a27.71,27.71,0,0,0,2-3.09,8.45,8.45,0,0,1,2.25-3.05,8.47,8.47,0,0,0,1-1.2c2.95-1.43,4.95-3.42,7.1-5l2.22-.76,2.21-2.4,3.94-.91c.33-.91.65-1.77.94-2.54l1.81-1.07L205,167a19.68,19.68,0,0,1,.25-3.41,21.62,21.62,0,0,0,.79-5.28c.43-.72.47-1.66,1.31-2,1.17.7.4,2,1,2.93,1.44-1,1.82-2.6,2.58-4l1.41-.36a10.38,10.38,0,0,1,1.49-1.75,6,6,0,0,0,1.52-1.4c.19-.76.33-1.33.48-2a24.6,24.6,0,0,0,5.8-3,8.65,8.65,0,0,0,3.95-.54c1.16-.62,2.61-.66,3.55-1.86a5.19,5.19,0,0,1,.86-3.48c2-2.06,3.83-4.53,7-4.65.74-.77,1.21-1.63,2.28-2h1.66c1.19-.85,2.74-1.16,3.73-2.41-.37-1.12-.72-2.16-1-3,.1-1.57,1.17-2.67,1-4.16l-3.24-.6c-1.55,1.61-3.51,2.86-4.48,5.08a2.58,2.58,0,0,1-.69.75c-.62.58-1.25,1.14-1.71,1.56a12.87,12.87,0,0,0-2.07.73,7.89,7.89,0,0,1-5.75.86,7.74,7.74,0,0,0-1.71-.24H221.5l-5.29,2.58c-.85.85-1.92,1.94-3,3-1.22,0-2.39,0-3.56,0a20,20,0,0,0-3.39.1,29.1,29.1,0,0,1-2,4.43,56.21,56.21,0,0,1-8.62,3.72,10.28,10.28,0,0,1-5.59.5c-.12-.14-.36-.38-.56-.59v-1.54a7.5,7.5,0,0,1,3-2.83c.53-1.48,1-2.76,1.46-4.09-.08-.19-.17-.42-.27-.64-.79-.1-1.39.7-2.18.39-.15-.06-.29-.14-.56-.27,0-.42-.05-.91-.08-1.45l3.44-4.2c-1-.48-1.67-1.45-2.73-1.54a22.65,22.65,0,0,1-3.12,2.25,8.92,8.92,0,0,0-3.81,3.59,12.3,12.3,0,0,1-1.13,1.44c-.31,1.38-.57,2.54-.81,3.63-2.45,3.16-2.45,3.16-4.79,4.81h-1.82l-.66-1.28a6.37,6.37,0,0,1,.29-2.64c.36-1.26,1.09-2.33,1.46-3.55a12.42,12.42,0,0,1,2.5-4.41c.65-.79,1.4-1.49,2.08-2.25s1.41-1.69,2.12-2.53a2.08,2.08,0,0,1,.44-.28,16,16,0,0,0,4.81-1.1,7.42,7.42,0,0,1,3.17-.57,12.14,12.14,0,0,0,1.38-.17l-3.36-1.26c-2.94.65-5.47,1-7.6-.87-.66.11-1.23.22-1.8.3a43,43,0,0,0-4.41.69,11.7,11.7,0,0,1-4.2.28c-.14,0-.27-.19-.44-.32V124.7a48.56,48.56,0,0,0,7.37-3.72H175.6a11.83,11.83,0,0,1-1.38-.68c-.55-.4-1.05-.86-1.62-1.33-1.77.84-3.28.08-4.63-.76-.36-.72,0-1.38-.42-1.83l-1.94,1.22-.27-.09a1.15,1.15,0,0,0-.23-.1,2.88,2.88,0,0,0-.49-.11c-.25,0-.5,0-.75,0l-80.36,0a.69.69,0,0,0-.25,0,1.89,1.89,0,0,0-.32.23l-1.32,4.2a.81.81,0,0,1-1.21-.41c-.37-.58.9-1.24.15-2a13,13,0,0,1-1.8.78,20.08,20.08,0,0,1-2.16.42c-.1.17-.2.31-.27.46a6.85,6.85,0,0,0-.38.94A27.58,27.58,0,0,1,72.2,130c-1.13,1.71-2.27,3.4-3.46,5.06-.79,1.11-1.64,2.17-2.51,3.21-1.4,1.7-2.85,3.37-4.18,4.94-1,4.22-1.14,4.29-3.24,7-.16.2-.35.38-.51.58a3.79,3.79,0,0,0-.91,1.75c.13.36.24.68.38,1l-1,2.23c0,.63.06,1.4.09,2,.56,1.2,1,2.21,1.54,3.34-.14.92-.3,1.92-.48,3.06l.36,1c-.18.56-.34,1-.53,1.6,1.11,2.3.24,4.87.74,7.34l3.93,1a17.44,17.44,0,0,0,1.89,2.1,5.44,5.44,0,0,1,2.09,3.95c0,.14.19.26.4.51C69,181.41,71.36,181.76,73.67,181Z"/>
                <g class="other">
                    <path class="cls-1" d="M1.48,88.74h.1s0,0,0-.09l-.09,0S1.49,88.71,1.48,88.74Z"/>
                    <path class="cls-1" d="M0,89.59a1.18,1.18,0,0,0,1.48-.85H.87Z"/>
                    <path class="cls-1" d="M256,529.58c-.22,1-.18,1.07,1.6,3.23h2.08c1,.34,1.81.66,2.67.92.23.07.62.19.78-.39-1.09-.73-2.46-.84-3.58-1.51S257.18,530.35,256,529.58Z"/>
                    <path class="cls-1" d="M396.58,37.74c.69,0,1.43.34,2.22-.05-.42-.82-.61-1.71-1.8-1.84C397.11,36.52,396.19,36.82,396.58,37.74Z"/>
                    <path class="cls-1" d="M87.41,58.33c-1.22,1-2.4,2.14-3.63,3.16a146.29,146.29,0,0,0-11.11,9.57c-.41.42-.94.71-1.39,1.09a3.82,3.82,0,0,0-.46.67c1.07.74,2.1.08,3.1.08l1,.57-1,1.8a1.91,1.91,0,0,0,.68,2c1.52.18,2.92-.59,4.14-1.13l1.86-1.86H81.7L83,75.67a11.29,11.29,0,0,0-.48,2.07,9.46,9.46,0,0,0,.39,2c-.34,1.28-.64,2.61-1,3.91A16.48,16.48,0,0,1,81,85.49c.24,2.13,2.13,2.66,2.88,4.18-.21.54-.43,1.09-.48,1.21-.76,1.28-1.72,1.41-2.74,1.84l-1.67,2-2,1-.64,1.54a31.8,31.8,0,0,0,.5,6.57A13.18,13.18,0,0,0,76,106c-.16.72-.95,1.31-.44,2.2l2.63,1.1a4,4,0,0,0,1.62,2.45,5.09,5.09,0,0,1,1.68,2.8,6.74,6.74,0,0,0,.72,1.57h83.36c.77-.48,1.28-1.25,2.58-1.1l.67.7c.08.83.12,1.33.17,1.85l2.05.52,1.77-.37,2.95,2.07c1.67.19,3.39-.38,4.83.68l6-2.67h5.59l1,2,1.54.22.69.85c0,1.47-.77,2.86-.31,4.49a6.57,6.57,0,0,0,.52.68c.35.36.74.69,1.17,1.08a7.75,7.75,0,0,1,4.09.78c1.38.52,3,.64,4,2.1.08.93.84,1.86.51,2.91s-.67,2.16-2.06,2.48c-.58-.48-1.19-1-1.89-1.6a10.86,10.86,0,0,1-.74,1.07c-1.72,1.76-3.07,3.85-4.61,5.76-1.12,1.4-2.25,2.81-4,3.29-.06.31-.1.47-.13.63.13.09.26.24.4.26a6.89,6.89,0,0,0,.9,0l6.23-3.66h2.85a3.54,3.54,0,0,0,2.47-1.82l.33-1.57,1.25-.65c2.26-.14,4.52.09,6.62-.11l2-2.3,5.89-2.88h9.44a27.74,27.74,0,0,0,3.16-1.27,18.46,18.46,0,0,0,2.23-1.67c.48-.9.69-1.77,1.23-2.2,1.05-.85,1.6-2.22,2.92-2.74a1,1,0,0,0,.7-.91c-.23,0-.5,0-.68.09a24.5,24.5,0,0,0-2.06,1.44,3.27,3.27,0,0,1-1.74.84l-.41-.69c1.37-1.49,3.17-2.26,4.84-3.33.18-.33.37-.71.59-1.07.5-.83,1.38-1.22,2-1.86s1-1.54,1.79-2.11c1.86-1.36,4-2,6.15-2.94a5.09,5.09,0,0,1,2.72-1.76c1.39.14,2.88-.18,4.37.36a6.08,6.08,0,0,0,2.46-.1c.33,0,.64-.24,1-.24,2.51,0,5,0,7.53,0a11.78,11.78,0,0,1,2,.4c.81-.29,1.67-.6,2.53-.89.24-.08.55,0,.73-.14,1.33-1,3-1.48,4.25-2.64a18.17,18.17,0,0,1,2.19-1.5h4.62c.85-.48,1.67-.92,2.45-1.4a5.63,5.63,0,0,0,.76-.61,10.4,10.4,0,0,0,.6-5.18l-1.82-1.38c-.18-.36-.36-.74-.54-1.11,0-.53-.05-1-.08-1.56-1.75-1.11-3.89-1.18-5.44-2.56-.69-1.55-1.39-3.09-2.15-4.76a7.81,7.81,0,0,1,.37-1.09,13.72,13.72,0,0,1,.7-1.2c-.89-3.53-1.55-7-3.22-10.19-2.84,1.86-5.45,4-8.25,5.6h-2.59a6.47,6.47,0,0,1-3.89-3.82c.28-.9.58-1.78.82-2.69s1.08-1.53,1-2.54a4,4,0,0,0-2.2-1.24,2.25,2.25,0,0,1-1.66-1.43,7.27,7.27,0,0,1-.32-1.08l-2.17-1.67-1.32.55A13.84,13.84,0,0,1,251,66.29a4.28,4.28,0,0,0-2.42-.42L246.62,67c-1,.91-.82,1.94-1.1,3.16l-1.87,1.51v2.9a6.41,6.41,0,0,1-4.23,4.31c-.39.13-.75.36-1.14.51a.71.71,0,0,0-.54.81,6.16,6.16,0,0,1,1.94,3.15c-.28,2.43-1.79,4.2-3,6.14-2.46,1.56-4.79,3.39-7.73,4-1.19.75-2.66.93-3.8,1.86v2.57L224,100.21V102a9.24,9.24,0,0,1-3.33,4.77l-1.79.11-1.78,1.51h-1.2l-1.77-2.32a18.49,18.49,0,0,1-1.12-5.08c.53-.94,1.14-1.95,1.68-3,.35-.68.52-1.46.89-2.12A17.62,17.62,0,0,1,216.94,94c-2.14-1.27-4.41-1-6.52-1.16l-6.32-3.41L203.29,88c-1.27-1.28-3-1.52-4.35-2.33-1.89-.38-3.59,1.37-5.41.23-.55-2,.7-3.77.93-5.6-.85-.75-1.51.17-2.31,0l-.6-.68a19.23,19.23,0,0,1,4.29-6.66,6.79,6.79,0,0,1,.77-.65c1.21-.92,2.42-1.83,3.61-2.76A22.39,22.39,0,0,1,204,67.1a41.38,41.38,0,0,1,7.06-2.9h2.32l1.64-1.78,1.25-.34a9.25,9.25,0,0,1,4.75-2.53,8.36,8.36,0,0,0,3.2-1.37c1.17-.79,2.39-1.51,3.69-2.32l.59-1.13a2.56,2.56,0,0,1,.57-.23,4.81,4.81,0,0,0,3.33-1.57,9.85,9.85,0,0,1,1.63-1.13c2.09.26,4-.46,5.84-.95l2.44,1a10.7,10.7,0,0,0,3.69-2c1.15-.82,2.36-1.55,3.51-2.3.07-.8.13-1.48.19-2.18a11.7,11.7,0,0,1,1.34-.77,5,5,0,0,0,1.76-1.42.86.86,0,0,0,.16-1.05L250.68,41h-4.39a23.1,23.1,0,0,1-9.59,8.21h-2.39c-.61-.84-1.29-1.59-1.11-2.56.87-.84,1.61-1.52,2.32-2.24.09-.09.06-.32.08-.48-.23-.54-.67-.38-1-.34-.85.56-1.68,1.11-2.37,1.58-1,0-1.43-.44-1.57-1.07-.13-.91.94-1.46.33-2.33-.7-.52-1.83-.32-2.36-1.45,0-1.59,1.86-1.39,2.54-2.53a8.31,8.31,0,0,0-.25-3l-1-.63a8.44,8.44,0,0,1-2.17.74,7.18,7.18,0,0,0-2,.88l-2.12.92-2.34,2.49a3.36,3.36,0,0,0,1.56,1.42,1.28,1.28,0,0,1,.74,1.12,8.14,8.14,0,0,1-.68,1.23c-.69.86-1.44,1.67-2.13,2.45L215,48.2c-.68.06-1.35.29-1.86-.32a1,1,0,0,1,0-.29c.07-.24.17-.47.25-.7a6.39,6.39,0,0,0-3.61-.67l-1.18,1c-1.91,0-3.83,0-5.76,0a6.17,6.17,0,0,0-1.72.17,10.42,10.42,0,0,1-5.88-.36,3,3,0,0,1-1.62-1.14,2.75,2.75,0,0,0-2.53-1.34,10.51,10.51,0,0,0-3.23.16c-1,.31-2,.27-2.88.55-1.89,1.75-2.09,1.85-4.69,2.35l-1.2-.8c-2,.95-4.22.82-6.32,1.27a22.5,22.5,0,0,1-4.5.06A3,3,0,0,1,166,45.84c.44-1,1.49-.55,2.19-1-1.36-1.26-1.89-1.54-3.15-1.12a6.22,6.22,0,0,1-2.5.23,14.85,14.85,0,0,1-2.16-1.21,9.18,9.18,0,0,0-6.1-1.85c-1.67,0-3.34,0-5,0-.35.25-.62.46-.9.64s-.57.33-.76.44a6.87,6.87,0,0,1-4.08-.85c-.1-.4-.22-.89-.31-1.38-.06-.32,0-.7-.55-.8l-2.17,1a19.41,19.41,0,0,1-2.29,0c-3.37-.4-6.61.36-9.85,1.16a5.82,5.82,0,0,1-1.44.35c-2.17,0-4.27.75-6.3.51-1.65.74-3.07,1.74-4.77,1.5l-4-1.93a3.12,3.12,0,0,0-2,.31l-2.09-.7c-2.82,2.35-5.6,4.67-8.38,7Q93.39,53.24,87.41,58.33Z"/>
                    <path class="cls-1" d="M326.74,336.17l-1-1.05h-2.35l-4.84-2.83a23,23,0,0,0-3.65-4.18c-1.31-.7-2.42-1.27-3.52-1.89a2.41,2.41,0,0,0-2.16-.26c-2.19.85-4.28.25-6.3-.53a27.42,27.42,0,0,0-4.63-1.62c-1,.31-1.84,1.38-3,.82-.09-.16-.23-.3-.24-.45a5.08,5.08,0,0,0-3.77-4.62,48.53,48.53,0,0,1-5.74-2.49,2.62,2.62,0,0,0-.7-.06l-1.45.79-1.25,1.81-.73-.32a10,10,0,0,1,.2-3.37,1.12,1.12,0,0,0,0-.44l-1.29-.62h-2.76a3,3,0,0,0-1.13-2.22,4.15,4.15,0,0,1-1-2c.17-.86.33-1.69.47-2.43-1.09-1.8-2.34-3.33-3-5.24l-.17-2.17c-.27-.6-.48-1.07-.67-1.54s-.34-.84-.57-1.43a14.12,14.12,0,0,0-1.16,1.58c-.68,1.29-1.31,2.59-1.92,3.91a4.32,4.32,0,0,1-1.51,2.17,4.1,4.1,0,0,1-3.19-.43,2.79,2.79,0,0,1-2.41.44l-2.19-1.38c-.26.12-.48.23-.7.31a1.1,1.1,0,0,1-.49.1c-.53-.08-1.06-.2-1.8-.34l1,1.7c-.21.4-.39.77-.67,1.33a14.27,14.27,0,0,0-4.9-.63,10.45,10.45,0,0,0-4.22,2.59H245l-1.52-.94c-.62-1.29-1.22-2.51-1.76-3.65a8.35,8.35,0,0,1,.43-4.16,8.24,8.24,0,0,0,.47-4.27l-.93-.85c-.08-.54-.15-1-.22-1.51l-.67-.14c-.65,2-2.34,2.74-4.1,3.5l-2.47.25c-.48.6-1,1.19-1.49,1.83l-.91.42a10.86,10.86,0,0,0-4.27-1.22c.23.83.41,1.55.65,2.25a17.83,17.83,0,0,0,.85,2.13c.33.67.76,1.28,1.31,2.17a20.86,20.86,0,0,0-3.19,3.18,45.64,45.64,0,0,1-3.72,3.16,19.45,19.45,0,0,1-2.83-.63,20.4,20.4,0,0,1-2.86-1.48c-.28-.15-.45-.5-.59-.67-.34-.88,0-1.91-1-2.45-1.17.47-2.4,1-3.74,1.47-1.18.14-2.53-.2-3.79.23,0,.29-.06.45-.09.64.71.41,1.44.82,2.15,1.26.12.08.19.27.33.47,0,.28-.09.61-.08.54-.69,1.62-2.33.6-2.95,1.92V315l1.31,1.53c.17.61.29,1.11.46,1.59a2.38,2.38,0,0,1,0,1.76,9.36,9.36,0,0,0-.38,3.32,19.51,19.51,0,0,1-.27,2.27,24.56,24.56,0,0,0-.76,5.33,2.33,2.33,0,0,1-.19.61l-.86.59-1.51-.48a14.09,14.09,0,0,1-2.82,1.1,10.76,10.76,0,0,0-4.37,2.56l-.54,1.09c-.31,1.91-.53,3.34-.75,4.69a5.12,5.12,0,0,0-.82.73,8.84,8.84,0,0,0-.63,1.14v2.31c.61,1,1.22,2.07,1.82,3.1a5.77,5.77,0,0,1,.76,2.44c0,.14.18.26.27.38l1,.23,1.86,1.85,1.55.48c1.35-.35,2.1-1.61,3.1-2.34,1.25.1,1.18,1.19,1.6,1.85.09,1.38-.09,2.75.13,4.26,2.26,0,4.41.12,6.51,0l2.83-1.93c.64-1.26,2.18-1.63,3-2.68,1.36-.32,2.67.18,3.77-.61l1.33.77a4.47,4.47,0,0,1-.31,3.18c1.29,1.27,1.29,3.05,1.53,4.61a6.73,6.73,0,0,0,4.32,3.07,4.5,4.5,0,0,1,1.61.64c1.7,1.08,3.36,2.21,5,3.31,1.77.05,3.53.05,4.86,1.65.06.56.12,1.15.17,1.61l1.09,2c-.11.76-.22,1.58-.34,2.46l1.62,3.09,5,.72,1.14,1.23v2.32l2.27,1.88c.29.62.5,1.09.67,1.46a13.29,13.29,0,0,1-.64,6.44,11.15,11.15,0,0,0-.19,3.15l.85,2c.13,1.35,0,2.68.93,3.86L258,404l3,1.07a2.84,2.84,0,0,1,1.77,1.7c.35.86.79,1.69,1.21,2.56h2.2l1.43.77.52,1a9.61,9.61,0,0,1-.45,5.2l1.51.47.89,1,.72,2.13a19.08,19.08,0,0,1-.07,3.29c-1.34,1.14-2.64,2.21-3.89,3.34a16.79,16.79,0,0,0-3.09,4.05c-.84,1.43-2.11,2.62-2.43,4.43,2.12.33,3.35,1.92,4.84,3.35a4.1,4.1,0,0,1,3.29,1.37,11.93,11.93,0,0,0,1.65,1.16,29.57,29.57,0,0,1,2.69,1.83,33.83,33.83,0,0,1,2.49,2.58c0,.74.1,1.47.18,2.62.7-1.74,1.25-3.08,1.86-4.58v-2.2l2.26-4.25,1.22-.58,1,.41c.07-.81.14-1.56.2-2.28a12.34,12.34,0,0,1,4.32-5.18,15.89,15.89,0,0,0-.38-6.24,11,11,0,0,1-.51-4.31c.05-.6,0-1.21,0-1.71,1.47-3.52,3.92-5.4,7.47-6.91a27.48,27.48,0,0,0,5.34-2.74,7.86,7.86,0,0,1,1.34-.64c2,.1,3.95-.66,6-.63.44,0,.9-.38,1.23-.54l.85-1.72,1.75-1.07c.19-.37.38-.76.6-1.21v-3.32a25.15,25.15,0,0,0,3-5.78v-4.62l1.42-2.32c.05-1.64.1-3.28.15-4.75.3-.72.54-1.27.78-1.84L315,374.62v-3.95a5.78,5.78,0,0,1,.34-2c.41-1.11.69-2.26,1.07-3.55,1.68-.63,2.59-2.14,3.32-3.83.51-1.17,1.1-2.32,1.63-3.44a19.64,19.64,0,0,0,3.42-3.81,29.89,29.89,0,0,0,2.56-4.42c.64-1.7.54-3.55,1.06-5.26S328,341,328,339.47Z"/>
                    <path class="cls-1" d="M265.46,460.08c-.22-.7-.42-1.35-.64-2s-.44-1.27-.66-1.89c-.62-.26-1.17-.46-1.69-.71a22.34,22.34,0,0,1-2-1.06,3.23,3.23,0,0,1-.65-.79c0-.44-.05-.87-.08-1.3l-1-2v-2.18a3.08,3.08,0,0,0,.37-2.87,5.06,5.06,0,0,1-.3-1.49c0-2.24,0-4.48,0-6.49a36.43,36.43,0,0,1,2.22-4.59c1.23-1.83,2.29-3.77,3.63-5.53a12.6,12.6,0,0,1,3-3c.69-.46,1.35-1,2-1.48V420l-1.11-2.26-1.25.65v2.76l-2.68,3.41-1.85.8h-2.92l-2.34-1-2.67.4-.71-.66a22.19,22.19,0,0,1,2.13-7.2,2.69,2.69,0,0,0-.23-.6c-.14-.21-.32-.38-.49-.59-3.22-.7-5.6-2.93-8.3-4.77h-2a7.58,7.58,0,0,1-2.56-1.87c-1-1.06-2.08-2-3.47-3.26l-1.4-2.16a16.57,16.57,0,0,0-3.45,0c-.3.84-.5,1.58-.82,2.25a1,1,0,0,1-1.2.71c-1.07-1.06-1.07-1.06-1.56-2.88l-2.81-.12-1.16-.8-2.44,3c-.11,1-.17,1.88-.33,2.78s-.41,1.82-.5,2.17c-.9,1.93-2.44,2.25-3.55,3.21.45,2.9,1.26,5.68,1.55,8.52a10.11,10.11,0,0,0-1.55,5.09,9.94,9.94,0,0,0-.68,1.47c-.5,1.79-1.27,3.61.09,5.38a1.67,1.67,0,0,1,.16.46c0,.62.2,1.33,0,1.81-.7,1.4-.47,2.85-.5,4.12a8.61,8.61,0,0,1,.93,2.29,6.17,6.17,0,0,0,1.27,3,12.39,12.39,0,0,1,2.31,5.19c-.28.69-.6,1.48-.94,2.34V456l.91,1.9v1.89L222,462.2a12.24,12.24,0,0,0,2.55,6.78v1.55l-.93,1.38c.21,1.6.39,3,.58,4.55,1,1.74,1.2,3.8,1.54,5.76.51.38,1.18.5,1.25,1.28-.15.44-.32.92-.45,1.32l.71,2c.29.31.59.59.86.91a13.46,13.46,0,0,1,1.92,3.87,3.86,3.86,0,0,0,.38.6,1.89,1.89,0,0,1,1.66,1v1.55c.21.45.41.91.58,1.28-.18.51-.31.9-.44,1.25,1.22,1.79,1.22,3.94,1.94,5.74-.23,1.2-.93,2.2-.43,3.59a4.63,4.63,0,0,1,.8,3.95l-.9,1.19v1.48l3.28,3.85c2,.11,2.54,2,3.38,3.48l1.7,1.25c1.3.21,2.62.09,3.95.41a8.39,8.39,0,0,0,4.28,0c-.54-.82-1.29-1.25-1.67-2.07a15.5,15.5,0,0,1-1.29-2.5,7.76,7.76,0,0,0,.34-1.19,12.41,12.41,0,0,0,0-1.49l1.07-1.36a8,8,0,0,1,.78-3.67c.91-1,1.85-1.93,2.68-2.79.15-1.17.22-2.11-.72-2.91a9.44,9.44,0,0,1-6.67-4.55v-2.36c.22-.46.41-.84.63-1.31a10.63,10.63,0,0,0,3.79-3,4.43,4.43,0,0,0-.45-2.36,3.27,3.27,0,0,1,.28-2.4c-.33-.5-.61-.92-.94-1.44l.87-1.29,2.23.23.43-.65-.59-.61-2.39.18a2.71,2.71,0,0,1-1.77-1.41c-.56-1-1.09-2.12-1.58-3.21a1.63,1.63,0,0,1,.24-1.8,12.07,12.07,0,0,1,1.39-.06,7.44,7.44,0,0,1,1.2.28l3.39.85c.78-.39,1.53-.76,2.26-1.14.11-.06.16-.23.23-.35l-.78-1.22v-3.12l-1.45-1.88c0-.34.05-.59.08-.95l1.23-.68a4.34,4.34,0,0,0,3.44.12,3.14,3.14,0,0,1,1.24-.12c1.25-.06,2.5-.1,3.78-.15l4.22-2.25c.49-1.71,1-3.43,1.46-5.16a4.32,4.32,0,0,0-.05-1.24Z"/>
                    <path class="cls-1" d="M59.3,73.09a11,11,0,0,1,5.84,1,2.86,2.86,0,0,0,.74.14,9.44,9.44,0,0,1,2.64.62c.87.47,1.85.06,2.62.54a13.52,13.52,0,0,0,2.46,5l2.41.18c.85.48.77,1,.86,1.54a12.67,12.67,0,0,0,.46,1.66c-.37.55-.71,1-1,1.46.59,1.49,1.15,2.91,1.69,4.25l-.58,1.49c.45.67.87,1.29,1.35,2,.59-.49,1.12-1,1.73-1.45s1.41-.5,1.9-1.19c0-.23,0-.48,0-.79-1.2-.57-1.72-1.78-2.43-2.85-.33-2,.93-3.59,1.4-5.32a5.68,5.68,0,0,0-.16-3.13c.1-.78.21-1.37.23-2,0-.18-.19-.38-.28-.53-.69,0-.89.58-1.26.89s-.76.68-1.09,1l-4.56,1.13a3.16,3.16,0,0,1-1.33-2.09,21.31,21.31,0,0,0-.16-2.32c-.35.11-.65.31-.82.23-.9-.43-2-.17-2.81-.91a2.8,2.8,0,0,1-.27-.47c0-.22.06-.47.08-.7a32.25,32.25,0,0,0,3.36-2.7,57.85,57.85,0,0,1,4.53-4.06c1.29-1.09,2.54-2.23,3.83-3.32,2.63-2.23,5.28-4.45,7.92-6.68L91.84,53c2.32-2,4.66-3.88,7-5.84s4.89-4.14,7.32-6.22a2,2,0,0,0,.32-.59,3.88,3.88,0,0,0-3.34-.87c-.9.09-1.79.42-2.68.43s-2-.37-2.94-.37A25.54,25.54,0,0,1,89.39,38a28.48,28.48,0,0,1-4.15-.25c-1.54-.32-3.06-.72-4.62-1-1.3-.2-2.57-.58-3.81-.88L73.29,37.3c-1.42,0-2.84,0-4.26,0a6.23,6.23,0,0,0-2,.14,9.71,9.71,0,0,1-3.7.36,10.87,10.87,0,0,0-5.75,1.44,15.34,15.34,0,0,1-4.43,1.63,13.23,13.23,0,0,0-2.13.69,23.42,23.42,0,0,1-4.69,1.62,53.89,53.89,0,0,0-6.45,1.13l-1.55,1L40,48.81l1.25.77,1.42,2.27c-.11.18-.14.28-.2.31-.93.56-2,.1-3,.34l-1.77.86c-2.91.27-4.13.39-5.8-.53a13.29,13.29,0,0,0-3.67.49,16.06,16.06,0,0,1-3.67.58,6.48,6.48,0,0,0-3.37,1c0,.36-.08.79-.14,1.21s-.15,1-.25,1.55c2.56,0,5.07-.42,6.75.17,2.79.07,4.73-1,6.83-.61.35.28.75.48.66,1a5.57,5.57,0,0,1-2.57,1.41,14.5,14.5,0,0,0-3.1,1.61A7.1,7.1,0,0,1,25,62.72c-.67,0-1.34.06-1.8.08l-3.89,1.93-2.24.17c-2.55,1.23-5,2.4-7.36,3.55A5,5,0,0,1,8.06,69,2.87,2.87,0,0,0,5.6,70.5c-.06.87-.13,1.72-.19,2.48L3.64,74.41c0,.71.28,1.13.84,1.33a7.91,7.91,0,0,0,3.7-1.57c.58,0,1-.13,1.35.32a5,5,0,0,1,.08.71,8.29,8.29,0,0,1-.15.86c-.4.45-.88.94-1.29,1.47S7,78.39,6.68,79.2c2.41-.33,4.67-.83,7,.06a2.08,2.08,0,0,0,1.7-.22,2.57,2.57,0,0,1,.87-.15A1.26,1.26,0,0,1,17,80.7a3.67,3.67,0,0,1-.67.61c-1.56.78-3.14,1.51-4.72,2.27a13.26,13.26,0,0,1-2.95,1.36c-2.36.44-4.26,1.88-6.38,2.84a1,1,0,0,0-.66.87,10.88,10.88,0,0,0,3.19-1.1c3.08-1.48,6.35-2.49,9.44-4A37,37,0,0,0,18.15,82c1.31-.83,2.82-1,4.19-1.61S25.1,79.19,26,78.82A23.56,23.56,0,0,1,28.71,77c2.11-1,4.26-1.9,6.4-2.84l8-3.52L46,70.18a.8.8,0,0,1,0,1.18l-4,1.66c-1.17,1.6-3.15,2.23-5,3.76,1.49-.23,2.64-.31,3.73-.6,1.68-.44,3.33-1,5-1.56a11.75,11.75,0,0,0,1.15-.5,1.31,1.31,0,0,0,.24-.21L48,72l.72-.62c.94-.32,1.63-.6,2.35-.79A8,8,0,0,1,54.71,70a6.14,6.14,0,0,1,.59.19c.2.35.45.78.68,1.2l2.83,1.67C59,73.07,59.13,73.09,59.3,73.09Z"/>
                    <path class="cls-1" d="M137.25,248.45h3.36c-.82-1.51-2.13-2.35-2.94-3.57.07-.32.12-.57.17-.82l1.13-.51c.13-.58.25-1.14.4-1.82h5.82a12.21,12.21,0,0,0,3.34-2.7l2.5.34,2.12-5.77c.06-1.09.11-2,.15-2.92.57-.65,1.09-1.21,1.58-1.8a.72.72,0,0,0-.08-1.19,17.1,17.1,0,0,1-1.88,0c-.73-.07-1.45-.25-2.1-.36-2.16.81-4.4,1.15-6.5,2.27a25.35,25.35,0,0,1-3.13,8.95l-2.08,1.15h-7.37l-2.09,1H128l-1.95-1.9-1.25-.32c-2.1-1.89-2.39-2.18-2.91-3.53-.82-2.15-1.57-4.32-2.29-6.3a4.77,4.77,0,0,0,.16-3.2,8.94,8.94,0,0,1-.11-1.27,26.39,26.39,0,0,1,1.65-9.8c.28-.71.58-1.42.8-2.16s.91-1.23.76-2.08c-1-1.28-2.84-1-4.23-2.28l-1-1.93v-3.25l-1.42-2.3c-.23-1.18-.46-2.35-.72-3.63a5.42,5.42,0,0,0-1.81-2.26,10.45,10.45,0,0,0-3,.19l-1.86,2.41h-2.83l-1.38-.78-1.4-2.09a20.62,20.62,0,0,1-.54-2.69,3.68,3.68,0,0,0-.7-1.9c-.88-1.24-1.86-2.41-2.8-3.6a.84.84,0,0,0-.33-.18,5.81,5.81,0,0,0-3.16.35l-1.29-.43-.74,1.88c-1.24-.45-2.17.47-3,.56h-6.7a28.24,28.24,0,0,0-2.47-1.48c-1.89-.89-3.78-1.77-5.72-2.53a7.18,7.18,0,0,1-2.74-1.68c-2.09.25-4.21-.22-6.13.88a10.8,10.8,0,0,0,.17,2.88,12.88,12.88,0,0,1,.41,4.08,9.07,9.07,0,0,0,.54,3.75l2.43,3.51v2.79l-.67,1.11-1.82,1.08c.06.46.09.79.14,1.16l2.64,2.6,1.8.11a7.14,7.14,0,0,1,2.41,3.74c-.8,1.1-.5,2.41-.47,3.74l2.23,1.17c.44.52.92,1,1.31,1.57s.84,1.38,1.26,2.07a.81.81,0,0,0,.17-1c-.4-.75-.88-1.45-1.34-2.16s-.75-1.12-1-1.56c0-.78-.07-1.38-.1-1.93-.32-.68-.61-1.3-.9-1.94a20.77,20.77,0,0,0-2.57-8.91,9.1,9.1,0,0,0-1.68-5.12,14.59,14.59,0,0,1-1.92-4.07,4.81,4.81,0,0,0,.53-2.64,4.31,4.31,0,0,1,1.83-3.72c1.4-.21,2.56.88,3.92.66.07,0,.15.08.47.24L77.8,188c0,2.76.11,5.34.16,7.95l4,5.73c0,.57.06,1.17.09,1.69L84.71,208c-.15.95-.26,1.61-.34,2.12A8.58,8.58,0,0,0,87,212.59a8.19,8.19,0,0,0,.94,1.32,12.51,12.51,0,0,1,2.78,4.26,24.33,24.33,0,0,0,2.45,4.45,3.48,3.48,0,0,1,.69,1.62c.09,1.37.49,2.69.55,4.11L92.94,231a5.91,5.91,0,0,0,1.62,5l2.32.87L99,239.53l4.12,1.59a7.66,7.66,0,0,1,1,.88,9,9,0,0,0,3.64,2.65c2.15.92,4.28,1.85,6.44,2.74,1.62.65,3.27,1.22,4.89,1.87a3.88,3.88,0,0,0,2.45.09,24.68,24.68,0,0,0,3.34-1,4.75,4.75,0,0,1,2.26-.34,10.13,10.13,0,0,1,4.45,3.1c.46.5.94,1,1.4,1.47.33.33.51.87,1.11.82a16.57,16.57,0,0,1,1.94-4.31Z"/>
                    <path class="cls-1" d="M213.34,379.92c-.46-.95-.89-1.88-1.34-2.82.14-.52.26-1,.43-1.63a3,3,0,0,1-.38-2.4l.9-2c-.64-1.8-.36-3.61-.41-5.28.36-.8,1.12-1.28.9-2.25l-3.87-4.92-1.64.37-.76-.66a20.24,20.24,0,0,1-.58-2.29c-.11-.84-.08-1.7-.12-2.73L203.26,355l-2.24-.77-1.61-1.76-1.86-.32a8.92,8.92,0,0,0-1.05-3.64c-.72-1.15-1.36-2.35-2-3.45v-2.23a16.56,16.56,0,0,1,.86-1.51c.34-.48.76-.9,1.15-1.35a12.39,12.39,0,0,1,.62-4.59,8.39,8.39,0,0,1,3.6-3.12,45.58,45.58,0,0,1,5.13-1.94c-.25-.57-.48-1.1-.67-1.52.18-1.34,1.06-2.45.58-4-1.14-.88-2.67-1-3.91-1.52l-1.84.88h-2.37l-1.35-.88c-.51-1.15-1-2.16-1.36-3.06l-2.42-1.43-1.08-2.7c-.3-.27-.92-.84-1.56-1.4-.08-.07-.26,0-.48,0,.19,1,.37,2,.56,3-1,1.77-2,3.49-3,5.15a5.57,5.57,0,0,1-2.65,2.29c-.69.29-1.42.5-2.1.8a4.33,4.33,0,0,0-2.39,2.15c-.36.77-.85,1.47-1.33,2.28-.44,2.41-.44,2.41-2.09,3.85l-1-.15c-.39-.56-.75-1.12-1.15-1.66-.09-.11-.29-.14-.44-.2l-1.09.33a2.13,2.13,0,0,1-1.21-1.86c-.05-.53.69-1-.07-1.64-.49,1.67-2.45,2.37-2.54,4.3.66,1.37,1.66,2.58,1.85,4.28l-.38,1.46,3,1.62a13.42,13.42,0,0,1,2.64,3.82,11.33,11.33,0,0,0,1.58,2.3l1.91,5.13a11,11,0,0,1,1.5,1.46,22.58,22.58,0,0,1,1.79,3.09c1.09,2.31,2.08,4.68,3.13,7a10.63,10.63,0,0,0,1.83,3.05,3.78,3.78,0,0,1,1.06,3,41.7,41.7,0,0,0,5.38,6.71c2.74,1.17,5.21,2.17,7.63,3.28a10.29,10.29,0,0,1,2.05,1.47c.91.74,1.76,1.59,2.71,2.27a19.48,19.48,0,0,1,3.55,3.24,4.84,4.84,0,0,0,.67.54,6,6,0,0,1,.27-1.28,9.25,9.25,0,0,1,.85-1.29C211.94,382.79,213.11,381.48,213.34,379.92Z"/>
                    <path class="cls-1" d="M216.05,298.61l-1.93-4.83c.21-1.55,1.47-2.51,1.38-4-1.95-.79-4,.21-5.88-.38l-1.86-2.84-1.4-.74-2.38.55-3.14-.72-1.38-1.37v-4l-.74-2-1.87-1c.77-2.34,1.38-4.73,2.16-6.55.91-1.18,1.51-2,2.15-2.79a3.87,3.87,0,0,1,1.54-1.29,5.9,5.9,0,0,0,1.28-.79.78.78,0,0,0,.33-.89c-.35-.33-.74-.3-1.3,0l-.82,1.11c-.81.52-1.63,1.12-2.51,1.59a7.56,7.56,0,0,1-4,1.14c-.33,0-.66.06-.5,0a25.45,25.45,0,0,0-2.85,1.44,28,28,0,0,0-2.38,2c.23,2.43-1.07,4.18-2.68,5.75a13.73,13.73,0,0,0-1.71,1.49c-1.3,1.75-2.5,3.58-3.69,5.31.53,1.32,1,2.5,1.48,3.72a37.49,37.49,0,0,1-.67,11.13c-.68,1.28-1.45,2.7-2.27,4.23l-1.83,1.2-1.06,2.36,1.12,1.34a16.4,16.4,0,0,1,2.75,1.75,5.41,5.41,0,0,0,2.53,1.41l2.16-.53c1.59.15,2.2,1.37,2.95,1.79l1.48.4-.17.24,2.33,2c.67,1.95.68,1.94,2.18,2.83.36.22.69.47,1,.7.35.71.68,1.41,1,2.09.23.43.5.84.75,1.25,1.1,0,2.09.21,3.05-.33a2.7,2.7,0,0,1,2-.11,16.6,16.6,0,0,1,1.67.47,4.38,4.38,0,0,1,2.62,1.77,7.72,7.72,0,0,1-.53,4.07l.84.8a55.85,55.85,0,0,0,1.15-5.79c.2-2.05,0-4.14,0-6.33a5.79,5.79,0,0,1-1.94-3.41,10,10,0,0,1,.87-2.75l1.92-.54c-.61-.79-1.88-.71-2.2-1.84.26-.8.41-1.67,1.39-2.13h3.15c1.06-.24,1.94-1,3-1.13a1.51,1.51,0,0,0,1.37-1.09c-.3-.53-.65-1.11-1-1.7a2.22,2.22,0,0,1,0-.66l1-1.68Z"/>
                    <path class="cls-1" d="M224.19,353.83h-2.92c-2.29,1.51-4.08,3.74-6.61,5.11a15.29,15.29,0,0,0-1.68,0c-.43.06-1-.29-1.29.42.9,1.31,2.41,2.17,2.85,3.8v1.52c-.37.75-.7,1.44-1,2.06.1,1,.9,1.88.22,2.64.13,1,.23,1.82.31,2.5l-1,1.69a8.66,8.66,0,0,1,.52,4l1,2.29c-.06,1.72-1.62,3-.9,5a10.47,10.47,0,0,1,1.73,3.42,6.59,6.59,0,0,0,1.44,2.94,4.33,4.33,0,0,1,.72,2.15c.23,1.11-.52,2-.47,2.86a3.75,3.75,0,0,0,1.77,1.88c1.31,2.12.87,4.73,2,6.93h2.5l1.52-1.65c.3-.81.29-1.74,1.06-2.28,1.1,0,1.66,1.06,2.52,1.37l2.55.16c1.06.35,1,1.21,1.32,1.93l.92-1.82,1.38-.67c.54,0,1,0,1.38,0s1,.12,1.45-.19c1.28-3.07,1.28-3.07.75-5,.41-1.08.8-2.11,1.25-3.27a11,11,0,0,1,3.91-1.9,10.56,10.56,0,0,1,4.9-1c1.2.61,2.46,1.25,3.73,1.88,1.14-1,.6-2.45,1.06-3.63s-.19-2.34-.66-3.49c-.9-.81-2.21-1.23-2.69-2.7V381.6a1.37,1.37,0,0,0-.45-1.25l-4.39-.2-1.07-.63-.31-1.55-1.47-2.09c.21-.79.4-1.52.61-2.3-.34-.59-.73-1.15-1-1.76s-.53-1.4-.76-2c-.23-.14-.36-.3-.51-.31-1-.1-2-.17-3-.24a25.52,25.52,0,0,0-7.76-4.51,5.82,5.82,0,0,1-4.34-4.79,10.35,10.35,0,0,0-1.32-3.61c.12-.51.23-1,.37-1.49C224.45,354.51,224.62,354.2,224.19,353.83Z"/>
                    <path class="cls-1" d="M227.54,297.17l2.13.17,2.11,1c.72-.7,1.45-1.39,2.11-2a7.39,7.39,0,0,0,5.61-2.4,17.35,17.35,0,0,1-1.93-3.72c.25-1.08.5-2.16.77-3.31l1.86-1.59c-.17-.53-.32-1-.48-1.53l.71-1.49,1.62-1.27v-.61l-3.19-.86c-.4-.76.26-1.08.27-1.58v-1.57c-1.06-1.6-2.55-1.87-4-2.06l-.83-1.09c-.38-.74.09-1.46-.55-1.86H230c-.56.48-1.08.92-1.54,1.33-1.1.3-2.1.93-3.2.65a7.92,7.92,0,0,1-4.1-1.9c-1.27-.05-2.36,0-3.44-.17s-2.09-.44-3.07-.65c-.81-.74-1-1.92-2.09-2.41h-2.33l-.92-.84c-1.94,1.11-4.28,1.65-5.29,3.94a19.67,19.67,0,0,1,1.43,4.27l-1.24,1.52-1.59-.1c-.44-.7-.85-1.33-1.16-1.81-.38-1.84.72-3.13,1-4.59-.33-1-.36-1.09-.75-1.16l-1.54,1.44-1.74,5.38a8.28,8.28,0,0,1,2.5,4.76,3.38,3.38,0,0,0-.16,2.8l.95.92c1.54.09,3,.41,4.47-.24l1.49.5a8.15,8.15,0,0,1,2.65,3.39,4.08,4.08,0,0,0,2.11-.15,3.3,3.3,0,0,1,1.45-.2c.89.13,1.76.41,2.61.62a2.64,2.64,0,0,1,.45,2,8.1,8.1,0,0,0-1.5,2.94,11.71,11.71,0,0,0,2,4.52v2.32c-.3.8-1.15,1.22-.89,2.27l1.38,1.61c.13,1.33-.12,2.65.38,3.93l3.19,1.39,1.64.09,3.39-2.47,1.93-2.51q-1-2.91-2.09-5.76L225,297.13l.34-.86C226.34,296,226.78,296.82,227.54,297.17Z"/>
                    <path class="cls-1" d="M295.87,49.88c-.21-.55-.49-1.07-.69-1.48-2.59-1.5-5.45-2-7.7-3.56-.22-.46-.36-.76-.46-1a3,3,0,0,1,2.39-2.44c.13,0,.24-.22.39-.36V39.31a9.2,9.2,0,0,0-6.21-4,8.61,8.61,0,0,1-4.1-1.68,11.37,11.37,0,0,0-4.16-2.07,11.56,11.56,0,0,0-3.07.19c-2.32.74-4.61.42-6.93.29-.21-.34-.38-.61-.52-.82.29-1,1.27-1.31,1.38-2.42l-.62-.66c-2.21-.4-4.12.5-5.87.47a17,17,0,0,0-3.63,2.24c-1,.84-2.47,1-3.3,2.17-.06.72-.11,1.4-.15,1.89-.39.51-.62.9-1.24.69-.22-.45-.47-1-.67-1.42.68-2.24,0-2.45,3.53-5.68a41.85,41.85,0,0,0-5.36.13c-2.65,1.87-5.55,3.71-7.73,6.45,0,.43.08.77.11,1,.93,1.22,2.22,1.65,3.48,2.28a11,11,0,0,0,5.28-.53l3,1.11h4.64c1.69.75,3.46.29,5.18.4.37-.51.72-1,1.09-1.5l.8,0a10.28,10.28,0,0,0,1.65,1.77,9,9,0,0,1,3.32,3.68c1.37.63,2.7,1.19,3.48,2.62v1.49L272,49.72l-5.71,3.92a2.5,2.5,0,0,1-2.25,2.53,15.81,15.81,0,0,1-1.94.37,9.93,9.93,0,0,1-5.37-.79,5,5,0,0,0-.82-.28,4.88,4.88,0,0,0-2.39,1.6.68.68,0,0,0-.06,1,22.54,22.54,0,0,1,4.06.51,5.82,5.82,0,0,0,3.7-.2c1.42-.62,2.59-.2,3.83.84.62,1.34,1.29,2.8,2.07,4.47l1,.76c2.55,1,4.63,1.86,6.71,2.72.47.2.91.43,1.31.13A7.59,7.59,0,0,0,273.84,63c-.09-.67-.15-1.18.27-1.59a1.78,1.78,0,0,1,.47-.17c.24,0,.49,0,.83,0,1.51,1.33,3.49,1.73,5.25,2.58l2.27-1.34,1.32-1.63V58.91c-.51-.73-.95-1.47-1.5-2.11-.38-.44-.95-.69-1.37-1.1s-1-1.1-1.48-1.58v-2l1.34-.7a20.08,20.08,0,0,1,5.13.07,3.66,3.66,0,0,1,.75.94,13.73,13.73,0,0,0,2.68,4h.87l5.72-4.78C296.2,51,296.08,50.43,295.87,49.88Z"/>
                    <path class="cls-1" d="M251.27,523.89a8.07,8.07,0,0,1-2.69-.06,12.65,12.65,0,0,0-4-.4,8.7,8.7,0,0,1-3.82-.79,5.71,5.71,0,0,1-2.6-3.66l-2.37-.93a11.25,11.25,0,0,0-1.39-2.1,6.49,6.49,0,0,1-1.86-5l1-1.34a7.25,7.25,0,0,0-1.32-3c-.29-1.52.44-2.56.64-3.5l-1-3.87-1.17-1.92c.16-.47.29-.87.41-1.23l-1.11-1.34c.15-.5.27-.87.38-1.23l-1.14-.63c-.89-2-1.49-4.07-3-5.42a43.21,43.21,0,0,1-2.36-8.89,14.29,14.29,0,0,1-1.35-7.09c.24-.74,1.19-1.09.88-2.24a11.16,11.16,0,0,1-1.87-3.07c-.44-1.31-.37-2.72-.73-3.6-.13-1.76,1.28-2.26,1.64-3.37a5.51,5.51,0,0,0-1.29-2.95c.12-.77.23-1.44.33-2.1a7.8,7.8,0,0,1,.3-1.77,4.7,4.7,0,0,0,.15-2.8l-3.35-5.48v-1.52l-1-2.06a19.86,19.86,0,0,1,1.07-5l-1.08-1.91v-3.48l1.4-3.57c.06-.81.11-1.58.17-2.33.34-.71.67-1.4.9-1.85v-3.19l-.84-1.91c-.13-1.16-.24-2.17-.37-3.29.12-.29.28-.68.45-1.12l2.66-1.77c.64-1.53,1.36-3,1-4.73a1.89,1.89,0,0,0-1.74.17l-1.57-.95c-.45-2-.9-3.95-1.39-6.12l-2.11-2.31a4.41,4.41,0,0,1,.26-2.89c-.18-.85-.34-1.6-.51-2.36l-1.09-1.29c-.67-1.62-.73-3.44-2.16-4.79-.12.54-.2.95-.29,1.37l-.9,1.16a10.88,10.88,0,0,0,.54,3.85,14.17,14.17,0,0,1,.56,5.09c0,.7,0,1.39,0,2.08a3.11,3.11,0,0,0,.07,1.27,6.23,6.23,0,0,1,.33,2.8c0,.95,0,1.9,0,2.85,0,1.64,0,3.29.12,4.92s.57,3.17.89,4.88a2.28,2.28,0,0,0-.18,2.58c.18.37.15.86.34,1.22a4.26,4.26,0,0,1,.28,3,19.55,19.55,0,0,0-.34,5.11,4.53,4.53,0,0,1-.5,2,2,2,0,0,0,0,.61l.9,1.46c-.11,1.69.45,3.42-.3,5,.47,1.37.91,2.66,1.4,4.07V443a11.85,11.85,0,0,1,1,5.09,4.89,4.89,0,0,0,.24,1.77,3.89,3.89,0,0,1-.06,2.52,18.79,18.79,0,0,0-.72,7.39,26,26,0,0,1,0,2.95l-.92,1.54c.82,2,1.58,3.79,2.39,5.74,0,1.23.45,2.55.55,3.91a12.58,12.58,0,0,0,.62,3c.19.57.31,1.15.47,1.72.32,1.12.34,2.4,1.46,3.29l1.31-.38c1.92,1.28,2.14,3.6,3.14,5.52,0,1.23.09,2.52.14,3.73.3.71.58,1.34.86,2-.06,1.71.59,3.34.6,5.08a3.41,3.41,0,0,0,.59,1.93c.92,1.17,1.2,2.62,1.84,3.91a19.58,19.58,0,0,1,1.52,4.5c-.16.51-.28.91-.38,1.22a16.06,16.06,0,0,0,1.18,2.91c.59,1,1,2,1.56,2.94a11.08,11.08,0,0,0,1,1.48,36.93,36.93,0,0,1,3,4.7c-.12.54-.19.86-.25,1.1,1.73,1.91,3.23,3.9,5.47,5H244c.47-.48,1-1,1.42-1.45a4.32,4.32,0,0,1,1.73-1h2l.64.8c0,.65,0,1.26,0,1.86,0,.07.09.14.14.21,1.49.58,2.21,2,3.19,3,.18.71-.15,1.39.47,1.82a3.64,3.64,0,0,0,2.18-.24,19.85,19.85,0,0,1-3.29-7.65Z"/>
                    <path class="cls-1" d="M257.92,423.23c1.69.63,3.05,1.31,4.35,1.08l1.89-1.2,2.08-2.75v-4.09l1-2.3c0-.86-.07-1.72-.11-2.58l-1.22-.92c-1-.19-1.6.85-2.4.24a13.63,13.63,0,0,1-2.18-4.32,8.14,8.14,0,0,0-1.9-.63,4.2,4.2,0,0,1-1.86-.71,12.85,12.85,0,0,1-4.22-3.7c-.16-1.11-.26-2.05-.46-3-.14-.66-.48-1.28-.61-1.94a16.84,16.84,0,0,1-.16-2c-.77-.57-1.41-1.11-2.12-1.56a5,5,0,0,0-2.85-.78,13.11,13.11,0,0,0-6.75,2.34c-.3,1-.52,1.71-.81,2.63.4,1.83-.25,3.69-.91,5.51,1.58,2.58,1.59,2.57,3.63,4.19a4.52,4.52,0,0,1,1.48,1.73,2.91,2.91,0,0,0,.49.57l1.43.72h2c2.77,1.93,5.24,4,8.28,4.88a4.32,4.32,0,0,1,1.7,2,17.88,17.88,0,0,0-2.25,6.56Z"/>
                    <path class="cls-1" d="M173,330.91l1.6.07,1.63,1.73a3.71,3.71,0,0,0,1.05-2c.28-2.07,1.64-3.49,2.87-5a2.27,2.27,0,0,1,.85-.51c.76-.34,1.52-.68,2.29-1a4.83,4.83,0,0,0,2.92-2.63,12.31,12.31,0,0,1,1.07-1.72l1-1.63c.39-1.79-.29-3-.72-4.63l-.78-.65-.59-.45a8.93,8.93,0,0,1-3.93.25l-1-.5a9.22,9.22,0,0,0-1.29-1.38,12.67,12.67,0,0,0-1.59-.68c-.49-.25-.95-.58-1.57-1-.76,1.72-2.67,1.12-3.75,2,.07,1,.14,1.94.2,2.84L172,315.64c-.07.57-.12,1.08-.18,1.59l-1.28,1.55c.16,1.52.29,2.79.43,4.11l.55.75c.79.14,1.55.23,1.85,1.25a5,5,0,0,1-.17,2.68c-.45.88.13,1.81-.28,2.67C172.8,330.4,173,330.69,173,330.91Z"/>
                    <path class="cls-1" d="M270.09,441.64a2.82,2.82,0,0,1-.84-.54,5.62,5.62,0,0,0-3.89-1.83,12.66,12.66,0,0,0-3.82-3.09l-1.35.81c0,1.86,0,3.66,0,5.46a8.44,8.44,0,0,0,.46,3.79,2.57,2.57,0,0,1,0,1c-.34.51-.66,1-.9,1.35a3.81,3.81,0,0,0,.75,2.62l3,1.59,2.18.1,2.15,1a10.13,10.13,0,0,1,4.72.5l2.53-3.34a4.46,4.46,0,0,0-.27-3.05l.48-1.92A15.15,15.15,0,0,0,270.09,441.64Z"/>
                    <path class="cls-1" d="M242.61,303.43c1,1.57,1.17,3.61,3,4.68h1.22c.27-.24.53-.45.77-.69a5.78,5.78,0,0,1,3.67-2c.36,0,.68-.41,1-.62-.63-1.53-1.2-2.94-1.67-4.1l-1.22-.87c-.16-.63-.3-1.2-.47-1.85a5,5,0,0,0-.13-3.5c.43-1,1.3-1.21,1.84-1.62a5.33,5.33,0,0,0,.65-3.12l-2.15-2.66-1.28-.38a20.3,20.3,0,0,0-1.23-3.09,16.64,16.64,0,0,0-2-2.34l-1.1-.4c-.75.83-1.48,1.63-2.19,2.44-.11.11-.12.31-.17.47.19.54.39,1.08.54,1.5-.48,1.31-1.75,1.46-2.34,2.15-.23,1-.42,1.83-.62,2.74l1.42,2.2c.66-.1,1.18-.51,1.93,0,.21.61.47,1.4.73,2.16l1.25,1.45v2Z"/>
                    <path class="cls-1" d="M244.5,123.12l1,.54a6.55,6.55,0,0,1-.81,5l1.19,3,8-2.85a4.58,4.58,0,0,1,.18,2.95l-3.61,1.94c-.91,1.19-2.29,2-2.94,3.5l.72.33c1.77-1.21,2.76-3.32,4.9-4.14h3l5.47-2.38c0-.19-.05-.35-.09-.65l-3.1-.25-3.1-2.22a5.4,5.4,0,0,1-.61-2.25,11.24,11.24,0,0,0-.53-2.23l.92-1.34c-.48-.32-1-.59-1.44-.94s-.57-.64,0-1.25c1.77.29,3.16-.79,4.59-2-.05-.26-.1-.58-.15-.85l-1.84-.67a15.17,15.17,0,0,0-3.33.36,13.46,13.46,0,0,0-6.21,2.5,43.49,43.49,0,0,1-5.62,3.3c-.17.08-.28.31-.41.49a5.44,5.44,0,0,1,3,.49Z"/>
                    <path class="cls-1" d="M240.69,122.93h-.06v0h0Z"/>
                    <path class="cls-1" d="M258.08,303.24a2.45,2.45,0,0,1,2.42,0l1.13-1.59c.12-.93.23-1.78.36-2.71-.39-.69-.85-1.5-1.31-2.29.05-.93.08-1.79.12-2.55.45-1,.87-1.94,1.3-2.89L260,290.5c-1.43.32-3-.36-4.56.41-.83-.18-1.39-.32-1.94-.4a1.93,1.93,0,0,0-.66.08c-1.15,1-.37,2.37-1,3.57l-1.7.79c0,1.12,0,2.23,0,3.35a3.41,3.41,0,0,0,.15.72l1.14.79c.22.56.47,1.2.73,1.83.36.86.69,1.74,1.12,2.57a4.47,4.47,0,0,0,1,1.15.49.49,0,0,0,.82-.08c-.43-1.16-.43-1.16.11-2.08A3.84,3.84,0,0,1,258.08,303.24Z"/>
                    <path class="cls-1" d="M193,135.71c.52.86,1.4.55,2.36,1,0,.48,0,.9,0,1.32s-.62.88-.13,1.54q2.84-3.61,5.62-7.16c1.32-.41,1.78,1,2.8,1.44a4.83,4.83,0,0,0,.24-3.2c-1.59-1.54-3.8-1.37-5-2.2-1.29-.25-2.1-.41-2.91-.55a1.12,1.12,0,0,0-.4.07c-.12.38-.23.77-.4,1.32a9.73,9.73,0,0,0-4.69-.37,11.19,11.19,0,0,1-5.44,1.46c-1.37,1.44-2.71,2.75-3.92,4.17a15.26,15.26,0,0,0-2.15,3.13c-.83,1.67-1.44,3.45-2.11,5.09.06.87-.21,1.66.23,2.35.2,0,.41.09.51,0a17.29,17.29,0,0,0,3.72-3.82,2.62,2.62,0,0,0,.63-1.92,3.09,3.09,0,0,1,.65-2.17c.87-1.26,1.83-2.46,2.81-3.63a6,6,0,0,1,1.68-1.53,23.47,23.47,0,0,0,3.51-2.41,13.53,13.53,0,0,1,1.19-.7c1.15,1,2.79,1.15,3.57,2.54V133C194.61,134.07,193.51,134.64,193,135.71Z"/>
                    <path class="cls-1" d="M290.4,116.7l1-1.37c-1.75-.7-3,.87-4.62.87-1.41-.81-2-2.32-2.8-3.53.16-1.67,1.58-2.07,2.38-3.06-.1-.23-.18-.44-.35-.82-1,.81-1.84,1.42-2.62,2a4.09,4.09,0,0,0-.7.74c-1.31,1.78-2.58,3.59-3.91,5.34a13.4,13.4,0,0,1-3.61,3.55,11.31,11.31,0,0,0-1.39,1.21l1.64.7a13.74,13.74,0,0,0,1.59,0,12.34,12.34,0,0,0,1.19-.33,4.81,4.81,0,0,1,1-.07,9.12,9.12,0,0,0,4.11-.6l1.28.86c.45-.08.85-.18,1.25-.22.14,0,.28.14.43.22l.4,1a8.72,8.72,0,0,1,1.28.51,8,8,0,0,1,1,.79l1.22-.12c.23-.55.75-.82.63-1.46l-1.2-.84c-.45-1.33.52-2.29.8-3.4C290.34,118,290.37,117.34,290.4,116.7Z"/>
                    <path class="cls-1" d="M161.61,255.24l-2.58-.41a6.78,6.78,0,0,0-1.43,1.69,3.42,3.42,0,0,1-3.12,1.78,5.57,5.57,0,0,0-1.46.34c-.38,1.31-.7,2.59-2.27,3a10.86,10.86,0,0,1,2.74,4.89h1l.67-.94h1.2a7.7,7.7,0,0,1,2.85,3.38l2,.51c.07-1.22.13-2.33.21-3.61,1-1.37,1.09-3.22,1.32-5a9.68,9.68,0,0,1,1.51-4.57c.05-.92.11-1.62-.64-2Z"/>
                    <path class="cls-1" d="M152.2,257.61c.78-.23,1.4-.45,2-.62s1.26-.29,1.8-.42a10.39,10.39,0,0,1,2.54-2.85c1.16,0,2.24,0,3.32,0,.44,0,.83-.14.85-.79l-2.12-2.26c-2.83-.25-5.48-.42-7.79.89h-4.79l-2.82,1.93c0,.5-.06.92-.07,1.29l1.89,2c.59.1,1.41-.1,2.07.77s.62,2.07,1.49,2.83c.2-.05.33,0,.35-.09C151.36,259.41,151.75,258.57,152.2,257.61Z"/>
                    <path class="cls-1" d="M146.63,250.84c-.32-1-1.33-.54-1.91-1l-.39-.61c-.41-2.17.65-4.15.71-6.35-1.59,0-3.07-.07-4.53,0l-.84,2.26,2,2.63c0,1.32,0,1.32-1,2.3H137c-1.35,2-1.43,2.14-2.07,5a4.16,4.16,0,0,0,2.48,1.7,6.94,6.94,0,0,1,1.63-.4,9.69,9.69,0,0,1,1.88.28l2.59-2C144.13,252.84,144.13,252.84,146.63,250.84Z"/>
                    <path class="cls-1" d="M194.08,121.25l-1.76-.63c-.29-.54-.62-1.12-1-1.8a10.75,10.75,0,0,0-5.82.74c-1.56.75-3.29,1.18-4.69,2.31a4.51,4.51,0,0,1-1.36.6,29,29,0,0,0-4.77,2.5c1.37,0,2.36.07,3.34,0a12.69,12.69,0,0,1,2.67-.49c1,.11,1.84-.93,2.89-.34.21.24.42.5.63.76a8.31,8.31,0,0,1,1.66.46,2.43,2.43,0,0,0,2,.11,9.3,9.3,0,0,1,3.58-.37c.88.2,1.49.9,2.39.92.09-1.37.16-2.63.26-3.9,0-.15.16-.29.21-.45S194.2,121.5,194.08,121.25Z"/>
                    <path class="cls-1" d="M265.85,304.45a2.85,2.85,0,0,0,1.48-1.6,30.26,30.26,0,0,1,2.83-5.41,2.39,2.39,0,0,0,.16-.83,11.15,11.15,0,0,1-3.75-4l-3.24-.89c-.91,1.56-1.71,2.95-1.5,4.67a8.92,8.92,0,0,1,1.46,2.85,11.7,11.7,0,0,0-.37,1.33c-.11.58-.16,1.17-.23,1.68a8.42,8.42,0,0,0-.81,1.08c-.2.38-.29.81.16,1.11C263.51,303.93,263.51,303.93,265.85,304.45Z"/>
                    <path class="cls-1" d="M239,56.77l-2.18-2.3h-3.39c-2.05,1.76-2.81,4.6-4.87,6.41.3.47.56.89.88,1.41a7.62,7.62,0,0,0,1.14-.38c1.17-.63,2.3-1.36,3.5-1.93a4.83,4.83,0,0,1,3.25-.72l1.76,1.11a1.81,1.81,0,0,0,2,.15l-1.79-2.06C239.22,57.91,239.14,57.41,239,56.77Z"/>
                    <path class="cls-1" d="M172.35,283v-2.86c1-.91,1.91-1.76,2.85-2.61h2.32c1.13.75,2.06,1.86,3.41,2.41v3.3a4.35,4.35,0,0,0,1.74-1.69c-.17-.91-.3-1.66-.45-2.49l-1.93-1.77L177.15,276a28.33,28.33,0,0,0-5.54,2.47,7.1,7.1,0,0,1-4.44-.49l-2-1.5-.37.54c.18.43.36.89.49,1.21.12.74-.71,1.14-.25,1.84.53.1,1.1.19,1.65.31s1.28.31,2,.49l2.47,2.49Z"/>
                    <path class="cls-1" d="M162,273.38a4.33,4.33,0,0,0-2.14-3c-1,.28-2.08-.89-3.47-.45-.19.67-.39,1.39-.58,2.11a4.58,4.58,0,0,0,0,.63l1.12,1.12.75-.16c1,.8,1.75,2,3.09,2.18.51.56,1,1.1,1.53,1.68.31.39.54.86.86,1.26.11.14.36.17.63.29a5,5,0,0,0-.37-2.54c.16-.43.31-.82.52-1.35C163.31,274.58,162.76,274.06,162,273.38Z"/>
                    <path class="cls-1" d="M77.12,113l-1-.86c-1.07,0-2-.3-3.11.08,0,1.14.68,1.92,1.18,3,1.57.74,2.19,2.3,3.16,3.55l.85.4,1.13-.64c.06-.26.11-.5.19-.88a19.06,19.06,0,0,1-1.36-2A24.2,24.2,0,0,1,77.12,113Z"/>
                    <path class="cls-1" d="M146.47,258.31c-.44-.6-.81-1.16-1.22-1.68a1.54,1.54,0,0,0-1.25-.79,11.57,11.57,0,0,0-1.24.74,17.8,17.8,0,0,0-1.31,1.27c1.46,1.57,3.39,1.64,4.87,2.6l2.46-.81c-.29-.64-.52-1.16-.72-1.58Z"/>
                    <path class="cls-1" d="M146.29,243.08c.08,1.92-1.2,3.74-.33,5.88a22.76,22.76,0,0,0,2.24-2.51c0-1,.08-1.9.13-2.87.54-1,1.09-1.91,1.61-2.87.05-.1,0-.27-.06-.42l-.87-.07C148.38,241.38,147.08,241.93,146.29,243.08Z"/>
                    <path class="cls-1" d="M273.33,29.13a21.08,21.08,0,0,0,2.4-.28c-.19-.25-.27-.42-.4-.5a1.8,1.8,0,0,0-.67-.29,10.76,10.76,0,0,1-2.43-.47,3.52,3.52,0,0,0-1.48,0c-.14,0-.26.18-.39.28a1.09,1.09,0,0,0,.66,1.5C271.94,29.76,272.6,29.26,273.33,29.13Z"/>
                    <path class="cls-1" d="M195.47,144.94c.1.12.15.22.2.22,2.15,0,3.79-1.49,5.75-2.06a6.44,6.44,0,0,0,1.31-.82H200.1C198.67,143.23,196.88,143.73,195.47,144.94Z"/>
                    <path class="cls-1" d="M81.43,117.35l-1.85-4.15c-.33-.09-.58-.51-1.09-.35.17.65.34,1.3.47,1.82.69,1,1.29,1.94,1.93,2.84C81.06,117.74,81.29,117.69,81.43,117.35Z"/>
                    <path class="cls-1" d="M203.56,276.06c.57-1.33.57-1.33-.41-3.22l-.73,1.21A4.36,4.36,0,0,0,203.56,276.06Z"/>
                    <path class="cls-1" d="M239.11,271.61c-.22-.29-.5-.37-.75-.1a.49.49,0,0,0,0,.78C239,272.38,239.11,272.07,239.11,271.61Z"/>
                    <path class="cls-1" d="M398.77,39.68c-1.23-1.17-2.85-.65-4.21-.91L394,38a8.9,8.9,0,0,0,2-3.18l2-.14c1.09.74,1.53,2,2.77,2.57.77-.11,1.7.23,2.6-.24V34.73a3.6,3.6,0,0,0-2.11-1.8c-1.74-.51-3-1.79-4.48-2.82.12-.38.22-.67.3-.93.84-.14,1.59-.22,2.3-.4s1.42-.47,2.3-.78h4.86l5.2-3.06c.23-1.45,1.69-1.89,2.26-3.18a3.59,3.59,0,0,0-.25-.9c-.33-.59-.78-1.11-1.1-1.71a5.55,5.55,0,0,1-.3-1.2c.33-.28.58-.5.84-.74a16.73,16.73,0,0,0,1.75-.16c.48-.09.94-.29,1.42-.43s.52-.37.43-.89l-2.87-1.46c0-.35,0-.68.06-1.06l3-1.62,1.17-1.65c.59-.2,1.2-.46,1.84-.61a13.82,13.82,0,0,0,3-1.14,19.26,19.26,0,0,1,5.59-2.06,16.89,16.89,0,0,0,4.59-1c.31-.14.74-.28.67-.89-2.87,0-5.71,0-8.54-.11s-5.68.29-8.44,0a2.49,2.49,0,0,1-1-1.79c-.84-.84-2-.73-3-1A29.38,29.38,0,0,0,405.78.07c-2.92-.14-5.86,0-8.78,0a9.12,9.12,0,0,0-1.72.23,30.16,30.16,0,0,1-4.65.82,9.58,9.58,0,0,0-1.81.33c-1.17-.14-2-.31-2.8-.33-2.09,0-4.19.06-6.27,0s-3.95.54-5.95.56c-1.06.62-2.28.38-3.41.64a22.08,22.08,0,0,1-5.89.8,8.34,8.34,0,0,0-1.5,0c-1.73.21-3.52-.28-5.19.48a30.45,30.45,0,0,1-4.49-.15,10.76,10.76,0,0,0-3.92,0c-3.17.58-6.32,1.45-9.6,1.21a21.93,21.93,0,0,0-2.59.07l-3.56,1.43a20.14,20.14,0,0,0-6.89,1.29,12.82,12.82,0,0,1-3.86.83c-.58,0-1.15.11-1.71.16-.2.83-.37,1.54-.56,2.31A45.43,45.43,0,0,1,316,11.85c-1.72.24-3.39.93-5.18.66-.22,0-.47.11-.72.16a6.79,6.79,0,0,1-1.7.32c-1.77-.1-3.43.59-5.18.64-.25,0-.49.38-.71.56.37.7.68,1.31.92,1.77,0,.67.06,1.17.09,1.62l1.2,1c.9.25,1.74.18,2.55.5s1.94-.11,2.92-.28a34.81,34.81,0,0,1,10.67.62c.56.13,1.13.26,1.7.34a3.6,3.6,0,0,1,2.22,1.08c1.4,1.48,2.77,3,2.9,5.24a2.5,2.5,0,0,0,.3.89l-.55,3.47c-.38.81-.83,1.73-1.25,2.67,0,.11.08.29.16.54a5.3,5.3,0,0,0,2.61-.23,7,7,0,0,0,1.59.75,3.85,3.85,0,0,1,2.48,2v1.43L331.6,39c-1.14-.34-2.23-.86-3.35-.37L330.56,42c-.44.69-.85,1.33-1.24,1.92l-1.21.67c-3.7.06-6.23,1.92-7.55,6,0,.29.09,1,.17,1.7-.06.56-.13,1.23-.18,1.77l1,2.09a5.3,5.3,0,0,1-.19,1.67,3.51,3.51,0,0,0,0,2.94l-.34.95a57.4,57.4,0,0,0,3.83,8.4c1.49-.2,2.84-.81,4.07-.51l3,1.28a3,3,0,0,0,1.47,2.19l2,.59,5.61-6.06a5,5,0,0,1,.94-3l2.53-1.1L346.21,62c.6-1.08,1-1.93,1.52-2.7.7-1.06,1.49-2.06,2.26-3.11l2.15-1.68H355l2.05-.74,1.11-1.32h1.72l1.18,1a28.53,28.53,0,0,0,6.47-2.12,14.71,14.71,0,0,0,3.07-1.66l4.67-3.45c.13-.1.25-.22.34-.3.15-.42.29-.8.41-1.12,1.23-.25,2,.71,3.27.89.35-.06,1-.15,1.64-.29a15.91,15.91,0,0,1,2.9-.65A21.37,21.37,0,0,0,388,44a21.92,21.92,0,0,0,5.18-1.73C395,41.33,396.94,40.6,398.77,39.68Z"/>
                    <path class="cls-1" d="M179.29,39.88a10.54,10.54,0,0,0-2.15-.45q-3.13-.07-6.27.06a9.66,9.66,0,0,0-2.16.5c-.13,0-.21.23-.32.35.17,1.3,1.32,1.17,2.11,1.43a15,15,0,0,0,2.68.42l1.49,1.26a10.57,10.57,0,0,0,2.83-.05,9.1,9.1,0,0,1,2.46-.3,9.66,9.66,0,0,0,3.44-.49,8,8,0,0,1,2.42-.55,29.1,29.1,0,0,0,5-1.05l3.95,1.41,4.06.49,3.47-.54,1.33-1.76c.62-.12,1.19-.2,1.75-.36s1.05-.38,1.53-.56c0-.2.06-.3,0-.37-.51-1.26-2.07-1-2.83-2.15V34.9c.82-1.44,2-2.83,2.17-4.72a3.2,3.2,0,0,0-1.88-1.11,2.08,2.08,0,0,0-.95,0,15.53,15.53,0,0,0-4.8,4.57c-.69.17-1.18.23-1.63-.36-.05-.73-.11-1.57-.16-2.38a1.48,1.48,0,0,0-1.53-.28c-.19.15-.44.37-.72.56s-.58.31-.9.48l-2.54-1.09a6.54,6.54,0,0,0-3,.32,2.57,2.57,0,0,1-2.2,0c-.08-.52-.16-1-.26-1.64A20.63,20.63,0,0,1,183,30c-2.3.35-4.54,1-6.86,1.18a3.91,3.91,0,0,0-1.89.53,36.07,36.07,0,0,1-3.33,1.73l.62.73,4.09.15a1.83,1.83,0,0,1,.22.52,3.67,3.67,0,0,1-.13.66c-1.47,1.33-3.28.57-4.92,1,.13.31.22.52.32.78,1.55,0,3,0,4.56,0s3,.1,4.52.16l.65,1A2.25,2.25,0,0,1,179.29,39.88Z"/>
                    <path class="cls-1" d="M159,34.82a41.44,41.44,0,0,1,7.59-2.18,44.84,44.84,0,0,0,6.89-2,16,16,0,0,1,4.34-1,20.33,20.33,0,0,0,3.9-.72c1.11-.33,2.32-.3,3.33-1,.12-.08.18-.25.27-.38a1.15,1.15,0,0,0-.4-.92c-2.24-.78-3.88.5-5.64.2l-2.59-1.57c-1.49.19-3,.48-4.43.54a27.86,27.86,0,0,0-4.73.7,11.07,11.07,0,0,1-4.06,2.34,70.64,70.64,0,0,0-7.1,3.44A1.26,1.26,0,0,0,156.9,34Z"/>
                    <path class="cls-1" d="M285.91,6.23c.14,0,.26.18.43.3,0,.23-.1.46-.16.77a4.81,4.81,0,0,1-1.15.41,14.37,14.37,0,0,0-4.32,1.14c-.1,0-.14.22-.2.32.21.48.87.62.79,1.37-.66,1.33-2.58.94-3.31,2.3-1.63,1.08-3.61,1.23-5.25,2.17h-4.62a3,3,0,0,1-2.61,1.62c-1.23.09-2.41.56-3.68.59A6.46,6.46,0,0,0,260,18a13.21,13.21,0,0,0,1.35.19c1.25,0,2.51,0,3.76,0a19.32,19.32,0,0,0,4.2-.43,8.35,8.35,0,0,1,3.72,0,20.77,20.77,0,0,0,2.45.31,19.34,19.34,0,0,0,5.69-.69c.18-.46.35-.93.49-1.28,1.13-1.2,2.67-1.2,3.9-1.91a12.22,12.22,0,0,1,2.11-.73,2.13,2.13,0,0,1,.25,0,22.26,22.26,0,0,0,7.56-2.39,14.29,14.29,0,0,1,3.79-1.15,30.9,30.9,0,0,1,3.44-.47c1.17-.11,2.26-.5,3.41-.66a20.33,20.33,0,0,0,5.23-1.5,13.28,13.28,0,0,1,2.14-.67c2-.47,4.09-.76,5.75-1.79,1.48-.27,2.8-.42,4.08-.76,1.89-.51,3.75-1.16,5.82-1.81A6.39,6.39,0,0,0,328,2q-3.51,0-7,0a3.87,3.87,0,0,0-1.49.15,8.94,8.94,0,0,1-3.69.45c-1.92,0-3.85,0-5.77,0a6,6,0,0,1-2-.15,12.48,12.48,0,0,0-4.2-.47,13.1,13.1,0,0,1-2.7-.28,8.35,8.35,0,0,0-3.72-.05,16.6,16.6,0,0,1-2.95.35,18.5,18.5,0,0,0-4.19.53,24.21,24.21,0,0,1-5.84,1.11,7.85,7.85,0,0,0-1.2.31,38.51,38.51,0,0,1-6.83,1.23c-.11,0-.23.16-.48.33,2.35.21,4.52.84,6.78.65A27.28,27.28,0,0,1,285.91,6.23Z"/>
                    <path class="cls-1" d="M191.68,232.5l2.86,1.52,1.57-.08,1.07-.72a24.86,24.86,0,0,0-2.31-1.58,17.71,17.71,0,0,0-2.23-.85l-.39-.65A22.74,22.74,0,0,1,190,229a15.93,15.93,0,0,1-2.9-2.42,7.63,7.63,0,0,0-3-2.35l-1.94-.17c-1.26-1.43-3-1.81-4.62-2.47a9.71,9.71,0,0,0-5.18-.54,9.53,9.53,0,0,1-4.15,1.06c-2.33,1.39-2.58,1.59-3.06,2.46l2.54-.66,1.63-1.34a22,22,0,0,1,4.22.08l.65.85,1.19.57a8.89,8.89,0,0,1,6.54,2.13l1.93.13,1.3,2.35,2.25.92c.32.35.66.73,1,1.16a7.08,7.08,0,0,1-.27,1.23.77.77,0,0,0,.21,1C189.4,232.88,190.46,232.14,191.68,232.5Z"/>
                    <path class="cls-1" d="M250,21.66l-1.36,1.1a11.13,11.13,0,0,0,2.72.09,21.46,21.46,0,0,1,6.14.71,41.79,41.79,0,0,0,7.12.91c1.78,0,3.43-.54,5.16-.69,1-.09,2.48-1.31,3.25-2.37-2-.26-4.34-.38-5.43,0a6.22,6.22,0,0,1-2.2.3h-7.73c-2.17-.27-2.93-2-4.51-2.54l-1.66.09-1.14,1C250.22,20.76,250.11,21.17,250,21.66Z"/>
                    <path class="cls-1" d="M191.55,22.18a21,21,0,0,0,3,.23l1.23.84c1.6.13,3.2-.11,4.73.51a1.76,1.76,0,0,0,1.21-.1,4.06,4.06,0,0,1,1.71-.29l4.26-.08a3.77,3.77,0,0,0,1.48-.12,5.5,5.5,0,0,1,2.46-.3c1,0,2,0,2.91,0,.67-.52,1.6-.47,1.8-1.41-.8-.57-1.57.18-2.18.1-1.09-.45-1-1.46-1.32-2.17l-1.86.45a8,8,0,0,1-4,2.94c-.9,0-.88-.62-1.24-.82l-3.58-1.45-1.64-1.36a4.13,4.13,0,0,0-1,.12c-1.16.46-2.38.68-3.57,1C194.42,20.71,192.79,20.87,191.55,22.18Z"/>
                    <path class="cls-1" d="M210.56,239.66l1.94-1c1.17-.62,2.19.73,3.65.28a27.17,27.17,0,0,0-2.91-1.79,8.54,8.54,0,0,0-3-.72L208.67,235c-.67.06-1.34-.18-1.93.28a1.78,1.78,0,0,0-.17.47,8,8,0,0,1-.55,3.5c-.18.31,0,.81,0,1.56l1.53-1.11Z"/>
                    <path class="cls-1" d="M202.35,239.5c-.85.24-1.59,0-2.51.54,1,.14,1.78.14,2.51.22s1.53.67,2.42.27c-.09-.45-.18-.92-.25-1.3l.91-2.1a3.66,3.66,0,0,0-.26-2,5,5,0,0,0-2.56,0c.81,1.87.81,1.87.65,3.55Z"/>
                    <path class="cls-1" d="M259.28,12.49c.93,0,1.93,0,2.92,0a9.71,9.71,0,0,0,2.43-.44,17.83,17.83,0,0,1,4.55-1.12c1.66,0,3.24-.66,4.91-.61a4.09,4.09,0,0,0,.84-.24l-4.25-2.52a7.83,7.83,0,0,0-4.67-.8c-1.27.51-2.19.9-3.13,1.24a11.72,11.72,0,0,0-2.78,1,7.5,7.5,0,0,1-2.69,1A3.23,3.23,0,0,0,259.28,12.49Z"/>
                    <path class="cls-1" d="M192,17.7a12.81,12.81,0,0,0,3.91-.9,2.33,2.33,0,0,0-1.78,0,3.91,3.91,0,0,1-2.19.35c-1.77-.14-3.43.61-5.17.58a3.82,3.82,0,0,1-1.93.43,2.21,2.21,0,0,0-.94.3c-.27.19-.78.08-.87.7h4.41A8.82,8.82,0,0,1,192,17.7Z"/>
                    <path class="cls-1" d="M215.51,32,219,34.35c2.49-.35,4.6-1.58,6.76-2.3L227,30.22A8.83,8.83,0,0,1,227,29a10.64,10.64,0,0,1,.37-1.35A1.45,1.45,0,0,0,226,27a34.34,34.34,0,0,0-4.76,0c-.42.45-.81.88-1.1,1.21-.08.66-.14,1.16-.19,1.65l-1.28.69c-1.1.24-2.11-.05-3.12.31C215.57,31.25,215.54,31.57,215.51,32Z"/>
                    <path class="cls-1" d="M237.39,26.59c-.12.16-.22.3-.33.43a4.82,4.82,0,0,1-.39.37L235,27.5a7.54,7.54,0,0,0-3.32,3.05c-.05.1.07.29.11.45.48.29,1,.08,1.45,0l1.51-1h4.86c1.34-.67,2.7-1,3.44-2.5Z"/>
                    <path class="cls-1" d="M233.24,21.79l3.46-2.45a10,10,0,0,0-2.91-.1c-.9-.07-1.81,0-2.72,0-1,.5-2.19.79-2.39,2.36C230.12,22,231.51,21.76,233.24,21.79Z"/>
                    <path class="cls-1" d="M210.57,42.84l2,.64a8.52,8.52,0,0,0,4.07-.5c.18-.06.28-.32.42-.49-.84-.92-2-.93-3-1.48C212.94,41.67,211.44,41.54,210.57,42.84Z"/>
                    <path class="cls-1" d="M241,12.71c-1.38-.85-2.88-.73-4.46-.75l-.8-1.08c-.69,0-1.45-.27-1.62.79,1.67,1.59,3.88,1.09,5.77,1.7Z"/>
                    <path class="cls-1" d="M184.39,240.92l2.25.92,2.07-.19,1.21-1.31c-1.44-.18-2.64-.78-4.15-.57C185.54,240.25,184.59,239.92,184.39,240.92Z"/>
                    <path class="cls-1" d="M250.73,14.35a3.67,3.67,0,0,0-3.53-.71A3.41,3.41,0,0,0,250.73,14.35Z"/>
                    <path class="cls-1" d="M238.7,23l.55.83h2.82c.07-.34.54-.43.22-1A10.18,10.18,0,0,0,238.7,23Z"/>
                    <path class="cls-1" d="M215.17,14.75a4.62,4.62,0,0,0-2.86,0A5.15,5.15,0,0,0,215.17,14.75Z"/>
                    <path class="cls-1" d="M246.22,18.59c.07,0,.14-.09.21-.13a5.1,5.1,0,0,0-3.41-.65l.92.78C244.76,18.59,245.49,18.6,246.22,18.59Z"/>
                    <path class="cls-1" d="M224.32,20.21a7.25,7.25,0,0,0,1.46-.12s.05-.11.08-.17a3.15,3.15,0,0,0-.31-.41,5.93,5.93,0,0,0-.53-.37l-1.86.1A1.21,1.21,0,0,0,224.32,20.21Z"/>
                    <path class="cls-1" d="M222.07,240.42a1.61,1.61,0,0,0,1.9,0A1.67,1.67,0,0,0,222.07,240.42Z"/>
                </g>
            </g>
        </g>
    </g>
</svg>