<svg xmlns="http://www.w3.org/2000/svg" viewBox="0 0 500 405.87">
    <defs>
        <style>.cls-1{fill:#231815;}</style>
    </defs>
    <g id="圖層_2" data-name="圖層 2">
        <g id="event">
            <g id="map_as">
                <path class="rs_path" d="M0,34c0,.4,0,.7.05,1,1.15,1.2,3,1.18,4,2.72a3.91,3.91,0,0,1-.16,2.67,10.34,10.34,0,0,0-.43,1.3l2.13,3.1a3.81,3.81,0,0,1-.11,3.15c.25.78.46,1.46.64,2l3,2.77c-.19.63-.35,1.19-.55,1.86a23.87,23.87,0,0,0,4.41,3.87,5.11,5.11,0,0,1-2.73,3.61,7.23,7.23,0,0,0-3,3,5.29,5.29,0,0,1-2.3,2.31c-.12.07-.12.36-.19.58a5.61,5.61,0,0,0,.53.7c.27.29.59.55.82.76a6.06,6.06,0,0,1,3.07,1.32,2.2,2.2,0,0,1,.22.61l-.93.89a6.69,6.69,0,0,0-4,.63v1L2.48,75.46c-.65,2.34,1,4.2.44,6.18L4,83c-.09,1.91,1.2,3.31,1.87,4.86l3.78,1.44,4.25.17,1.51,1.37a6.52,6.52,0,0,0,1.28,3.76L19.81,98a6.94,6.94,0,0,1,3.43,2.4,1.64,1.64,0,0,1-1,2c-1.1.36-2.16-.39-3.25.56.56,1.06.45,2.52,1.91,3.22l2.44-1.13h3a4.11,4.11,0,0,1,2.94,2.83c.13.84.22,1.43.32,2.11a12.13,12.13,0,0,0,1.44.48c.58.1,1.17.1,1.51.13,1.44.89,1.62,2.37,2.49,3.44l3,.79,2.65-.64,1.37.94c3.36,1,6.07,2.38,9.18,2.28l.9,1.87L50.49,122l1.77,2.18c0,.76-.06,1.46-.08,1.86-1.42,1.64-3.19,1.05-4.65,1.47l-.76.88,2.35.35c.77,1,.78,1,.42,2.31l-3.16,1.44c.41.6.74,1.1,1.14,1.7a8.09,8.09,0,0,0-1.43,4.29c-.43.24-.76.45-1.11.61s-.77-.1-1,.39c1.58,2,4.19,2.23,6.13,3.7a44.22,44.22,0,0,0,6.39,3.42,5.58,5.58,0,0,1,3.16.51,27.34,27.34,0,0,0,4.39,1.25l1.61-.62,3.41,2.48h4.58l3.6,1.43c.78.91,1.38,1.6,1.65,1.9,3.62,1.21,3.86,1.51,6.87,3.48a3.79,3.79,0,0,0,1.9-1.55A22,22,0,0,0,83,149.42c-.09-1.35-.17-2.57-.25-3.68L79.32,143c0-.39,0-.79-.07-1.11.45-.91.9-1.7,1.24-2.54s.58-1.73.87-2.61a22,22,0,0,0,2.56-1,6.63,6.63,0,0,0,1.26-1.17c-.37-.77-.69-1.41-1-2.06,0-.61-.06-1.21-.08-1.64-.73-1-1.34-1.79-1.92-2.59-.56-.31-1.08-.61-1.78-1-.62,0-1.42,0-2.22,0a1.89,1.89,0,0,1-.55-.25c-.33-.61-.66-1.24-.93-1.76l-1.78-1.44c.18-.75.35-1.43.51-2.12.07-.29.12-.58.17-.82l-1.24-1.75a12.47,12.47,0,0,1,1.86-4.52l1.06-.35,1.68.85,1.23,2.16c.7.08,1-.29,1.42-.88a5.18,5.18,0,0,1-.32-3.94c1.71-1.4,4-2.36,5.52-4.35l2.9.76,2.8-1.36,3.41,2.41c1.82-.15,3.33,1.24,5.18,1.91h2.22l2.47,1.27,2.22-1.85,2.11.49,2.4-1.12h2.25c1.67.86,3,2.16,5,2.39,1.47-1.3,3.11-.12,4.73,0l.9-.84a4,4,0,0,0-2.35-1.91c-1-.42-2-.89-3-1.37-.17-.08-.28-.29-.5-.54V107l1.66-1.23c-.22-.77-.41-1.42-.61-2.1l1.19-.87c-.39-.33-.74-.63-1.1-.92a3,3,0,0,1-1.2-2.36,1.87,1.87,0,0,1,1.13-1.88,11.71,11.71,0,0,0,1.89-.2,45,45,0,0,1,6.11-1.23,25.61,25.61,0,0,1,3.82-.51c.37,0,.73-.28,1.11-.41a22.24,22.24,0,0,1,4.24-1.36c1.58-.2,3.12-.57,4.75-.83l1.91-1.55L147,90.7l2.16.91,2.23-.27c2.85,1.54,2.94,1.64,4.88,5l2.41-.69c1.08.77,2,1.66,3.25,1.79l1.28-.3a3.62,3.62,0,0,1,1.68,2.15h2.63l4.77-3.11,2.32.13c.17.53.33,1,.54,1.64a42.92,42.92,0,0,1,9,5.87,10.42,10.42,0,0,0,3.32,3.82c1.72,1.21,3.19,2.71,4.91,4.13.69-.76,1.24-1.82,2.65-1.72l3.79,2.25h1.32l2.32-1.13a8.45,8.45,0,0,1,6.51,3.58,4.72,4.72,0,0,1,3.69,1.86,2.72,2.72,0,0,0,3.4,1.12,4.13,4.13,0,0,1,2.5-.28A8.44,8.44,0,0,0,222,120a14.79,14.79,0,0,0,1.47-.71c.6-.35,1.15-.79,1.72-1.19l2.72-.18c.59-.69,1.17-1.39,1.82-2.16,2.1-.41,3.53-2.09,5.24-3.32a12.14,12.14,0,0,1,3.9.18,40.4,40.4,0,0,0,6.14,1.2l2.48,1.62c1.4.23,2.76.54,4.14.66a15.56,15.56,0,0,1,4.11.62,1.09,1.09,0,0,0,1.38-.39c.38-2.27-2.15-3.37-2.22-5.75.36-.92.75-2.08,1.25-3.19a6.52,6.52,0,0,1,1-1.24c1.39,1,3,.32,4.39.88s2.74.35,4.07.93a25.41,25.41,0,0,0,4.2,1.08l1.6,2.37,4.89,2.87c1.49-.17,2.93.46,4.22-.48h5.11c2.31,1,4.83,1,7.22,1.74a5.55,5.55,0,0,1,2.61,1.4,6.94,6.94,0,0,0,3.36,1.88,21.59,21.59,0,0,0,2.62.5c1.16.19,2.32.41,3.06.54l4.44-1.81h3.17a8.86,8.86,0,0,1,3.54-2.27c2.31-1,2.75-1,5.15-.21.57.2,1.1.48,1.37.6,1.34.26,2.48-.5,3.5.39,0,.25.07.51.11.76l1.09-.43c1.11.22,2,1.26,3.4,1.09l2.75-2.33a11.12,11.12,0,0,1-.57-5.12l1.07-2.61-1.07-2-2.6-1.3a13.78,13.78,0,0,1,.29-1.94,19.13,19.13,0,0,1,.75-1.92,6.79,6.79,0,0,0,1-.17c2.27-.86,4.76-.2,7-1.12a1,1,0,0,1,.6,0c1.61.49,3.35.36,4.91,1.1a7.33,7.33,0,0,0,3.58.72l6.81,3.43c1.82,2.18,3.53,4.33,5.36,6.37s3.93,3.82,5.37,6l4.23,1.51h2.73c2.5.84,4.5,2.43,6.69,3.35,1.3,1.43,2.83,2.46,3.83,4l1.48.65h3.46l1.85-1.71a9.91,9.91,0,0,0,1.81,0,11,11,0,0,0,1.67-.63,9.43,9.43,0,0,1,1.4-.51,1.43,1.43,0,0,1,1.75.59,5.69,5.69,0,0,0,0,1.25,35,35,0,0,1,1.54,7.8c0,.39.35.77.36,1.16.06,1.44.91,2.73.7,4.23a1.81,1.81,0,0,1-.84,1.53c-1.61.5-3.12-.16-4.61-.52l-1.69,1c2.71,2.16,4,5,4.91,8.13,2.48-1.3,4.27.07,5.83,1.37h3.72a5.76,5.76,0,0,0,2.41-3.56c.52-2.18.95-4.38,1.23-6.43.8-2,1.53-3.75,2.25-5.55,0-.84,0-1.67,0-2.5a15.56,15.56,0,0,1,.72-5.77,10.7,10.7,0,0,0,.49-4.85c0-.2,0-.41,0-.71a19.82,19.82,0,0,0-1.06-1.78c-1.36-1.9-2.74-3.79-4.15-5.65a9.19,9.19,0,0,1-2-4.09,9,9,0,0,0-2.84-5.27c-.87-.83-1.63-1.78-2.7-3l-6.48-2.94h-2.79l-1.16,1.66a2.83,2.83,0,0,1-2.35,0,3.56,3.56,0,0,0-3.07-.1c-1.55-.9-2.15-2.47-2.89-3.9L380.4,95h-4.57l-1.37-1.48c1.94-1.62,2.37-4.07,3.61-5.93V84.3l2-3.86c-.08-.71-.15-1.3-.22-1.87l1.71-1.44a4.31,4.31,0,0,1,1-3.12l1.27-.65c.41,0,1,0,1.6,0a11.71,11.71,0,0,0,1.78-.23,11.57,11.57,0,0,1,6.15,0A5.49,5.49,0,0,0,397,73a6.32,6.32,0,0,1,2.63-.42h2.64l1.36-1.1c3.29.8,6.61.77,9.64,2.06.19.29.36.54.54.78,0,.07.16.11.35.22h4.1l1.23-.75h3c-3-1.6-3.47-2.38-3.53-5.52.19-.34.38-.7.67-1.24V64.15l1.25-1.26,5-.52c1.29,1.07,3.13-.11,4.64.52.7,1,1.34,1.93,1.94,2.81a12.66,12.66,0,0,1,1.86.22,10.9,10.9,0,0,1,1.52.62c1.15-.49.88-1.66,1.44-2.51l1.3-1.07-2.23-2V59.39c1.17-.8,2.29-1.41,3.76-.59,1.2,2.25,2,4.9,4.33,6.27.33.8.61,1.45.85,2-.89,1.81-.89,1.81-2.21,2.79a18.32,18.32,0,0,0-.63,2.11c-.14.81-.14,1.64-.2,2.41.45,1,.88,1.88,1.31,2.79A17.16,17.16,0,0,1,439,81.38c-.14.09-.17.34-.33.68l1.22,1.8c.06.85.1,1.56.13,2l1.75,2.5c1.53,2.16,3,4.35,5.32,5.77a26.92,26.92,0,0,1,4.25,3.8,13.79,13.79,0,0,1,2.56,3,10.42,10.42,0,0,0,3.18,3.26,41.23,41.23,0,0,1,6.65,5.73,2.31,2.31,0,0,0,.71.54c.13.07.35,0,.7-.12a14.06,14.06,0,0,0-.07-3.5l-1.68-3.74.71-1.73c.25-.19.5-.36.73-.55s.85,0,.74-.75c-.82-.92-1.9-1.76-2.16-3.36.22-.41.49-.94.79-1.51l2.18-.39.55-1.2a12.86,12.86,0,0,0-3.79-3.49l-1.5-2.39c.06-.29.09-.49.15-.68s.21-.56.34-.9l-4.67-5.33-2.82-.19c-1.17-.67-2.52-1-3.3-2.33.16-2.13-.9-4-1.65-6.09l1.22-2h2.51l1.36-1.29,2,.09,2.09,2.38c.25-.74.45-1.31.59-1.71a4.62,4.62,0,0,1,3.72-1.36,10,10,0,0,1,3.47.8,6,6,0,0,0,3.05.45l2.39-2.3c.39-1.56.31-3,1.46-3.87,1.36-1.2,2.71-2.41,4-3.6l1.72-.57c1.6.74,3.32.45,5,.48a3.16,3.16,0,0,0,2.29-.4,4.08,4.08,0,0,0-2.6-1.48A16.06,16.06,0,0,1,479,56c-1.59-.87-3.22-1.64-4.81-2.5a4.53,4.53,0,0,1-2.43-1.94c0-.25.12-.63.2-1l2.06-.34c.79-.63,1.51-1.21,1.38-2.38-.38-.62-.8-1.28-1.31-2.1l1.24-.38L477,46.61h6.22A19.78,19.78,0,0,0,489.5,49a40.73,40.73,0,0,1,7,2.51c1.08,0,2.17.07,3.15-.06a1.29,1.29,0,0,0,.09-1.56,3.31,3.31,0,0,0-1.5-1.46,3.41,3.41,0,0,1-1.75-1.8c.35-.91,1.14-.54,1.77-1.07a4.29,4.29,0,0,0-.76-.52c-3-1.29-6-2.81-9.36-2.86A5.27,5.27,0,0,1,487,42a23.28,23.28,0,0,0-6.49-1c-4-1.62-7.55-3.82-11.66-4.44a3.07,3.07,0,0,1-.82-.35,16.43,16.43,0,0,0-4.83-1.49,48.75,48.75,0,0,0-5.31-.67A17.47,17.47,0,0,1,453,33.2a72.66,72.66,0,0,0-9.88-2c-1.95-.29-4,0-5.91-.67-2.42.29-4.7-.85-7.11-.75-2.52-.89-5.13-.55-7.71-.6a14,14,0,0,0-1.71.19,10.65,10.65,0,0,0,1.29.74,7.77,7.77,0,0,0,1.43.4,3.8,3.8,0,0,1,2.77,1.81c-.05.31-.12.69-.2,1.17a6.84,6.84,0,0,1-3.57-.32,32,32,0,0,0-6.64-1.55,39.14,39.14,0,0,0-6.82-.62,1.17,1.17,0,0,1-.58-.13,6.76,6.76,0,0,0-3.23-.44c-2.71,0-5.41.07-8.11.07a16.12,16.12,0,0,1-4.18-.23c-1.18-.32-2.35-.34-3.78-.58l-4.21-2.94c-2.23.37-4.18-.61-6.22-1a30.12,30.12,0,0,0-7.07-.85,8.07,8.07,0,0,0-2,.3,9.1,9.1,0,0,1-2.66.31c-2.2,0-4.41,0-6.55,0-1.84-.7-3.58-1.43-5.37-2a22.19,22.19,0,0,0-5.82-1.16L347,21.27a9.65,9.65,0,0,1-1.85-.19,13.51,13.51,0,0,0-5.61-.52,2,2,0,0,1-1.18-.09c-1.37-.83-2.95-.31-4.37-.87s-3.17-.21-4.76-.24a45.49,45.49,0,0,1-9.73-1.17c-.52.42-1.17.71-1.31,1.49a3.57,3.57,0,0,1,2,2c0,.75-.53.95-1.09,1.3-1.54-.13-3.24.27-4.88-.48a3.14,3.14,0,0,0-1.19,0h-3.57l-3.06,1.12c-2.66.46-4.8-.49-7-.87,0,1.13.88,1.85,1,3.07l-.83.91A18.5,18.5,0,0,1,293.75,24a8.51,8.51,0,0,0-2.64-1.4,12,12,0,0,1-3.53-2.08l-.43-1.26c-2.48-2.63-5.6-2.92-8.68-3.56-.7.65-1.66.37-2.53.53s-1.75.27-2.8.43l-6.08-2.28c-.28.24-.56.49-.82.7l1.16,1.63-.74.78c-.79,0-1.29-.1-1.79-.09a17.72,17.72,0,0,1-5.32-.55,15.22,15.22,0,0,0-3.21-.57c-1.19-.1-2.4,0-3.6,0-.3,0-.6,0-.9,0a21.31,21.31,0,0,1-4.42-.56c-1.45-.3-3.06.11-4.48-.27a28.25,28.25,0,0,0-5.63-.53,6.6,6.6,0,0,1-2.06-.18,7.87,7.87,0,0,0-4.13-.34,26.3,26.3,0,0,1-3.52,1.56c-1.62.42-3.31.62-5,.9-1,.16-1.95.28-3,.43a1.19,1.19,0,0,1-.39-.27,7.16,7.16,0,0,1-.5-.84l1.51-2.22c.3-.2.56-.35.79-.54a25.37,25.37,0,0,1,6.74-4.45c.38-.14.61-.52.53-1.18a7.09,7.09,0,0,0-1.46-1.28,25.29,25.29,0,0,0-10-2.62c-2.39-.14-4.8,0-6.85,0l-2.78-1.28a21.81,21.81,0,0,1-11-2.55c-1.91.67-4,.51-5.78,1.56V3.39A19,19,0,0,1,183.24,5c-1.21,0-2.41,0-3.61,0a7.88,7.88,0,0,0-2.07.25c-1.62.52-3.31.67-4.92,1.09a20.84,20.84,0,0,1-5,.63,8,8,0,0,0-1.16.24,8.25,8.25,0,0,0-3.74,1.86l-4,1.15c.5,1,1.45,1.63,1.38,2.77-.26.22-.46.52-.72.59-4,1-8.12.8-12.16.82-2,.75-2.24.87-2.34,1.32.11.5.79.4,1.29,1a1.19,1.19,0,0,1,.33.49,3.19,3.19,0,0,0,2.34,2.14,4.16,4.16,0,0,1,2.49,1.6c.1.51.19,1-.46,1.35-.23-.07-.52-.12-.79-.23a41.93,41.93,0,0,0-6.85-2,5,5,0,0,0-2.36,0c-1.52.42-3.15.57-4.44,1.65l-2.12-.16c-.09,0-.17-.09-.3-.17l-1.6-2h-1.23c-.14.59-.25,1.08-.39,1.66l-1.65,1.09V23c.74,1.71,2.39,2.29,3.44,3.43.08.9.16,1.71.22,2.48.67.75,1.27,1.44,1.78,2l1.66.7c1.62.16,3.12-.16,4.46.18a1.36,1.36,0,0,1,.25,1.72,2.56,2.56,0,0,1-.88.36A1.8,1.8,0,0,0,138.23,35c1.58,1,2.62,2.33,2.21,4.38a17.76,17.76,0,0,0-.92,1.91,3.82,3.82,0,0,1-2.18,2.38,26.23,26.23,0,0,0-2.56,1.49,1.31,1.31,0,0,0-.28-.12c-.89-.11-1.8-.13-2.67-.32-1.53-.32-3.21-.36-4.22-1.92a3.12,3.12,0,0,1-.19-.76l.93-1h2.29l2.64-2.35.65-1.27c-.34-.94-.64-1.8-.92-2.56-.58-.43-1.08-.77-1.55-1.15s-1.07-.92-1.5-1.3c-.45-3.35-2.33-5.62-4.26-8a3.78,3.78,0,0,1-2.61-1.87,8.14,8.14,0,0,1,.18-1.14,6.39,6.39,0,0,1,.43-1c-.3-.58-.52-1-.77-1.54l-2.61-1.32c-2.33-.08-4.62-.19-6.7,1-.45,1.38.39,2.88-.36,4.29-.53.27-1.06.55-1.6.8a1.47,1.47,0,0,0-1,1.25c1.76,1.05,2.22,3.16,3.09,4.87a5.83,5.83,0,0,1,1.3.3c1.84,1,3.67,2.07,5.48,3.1l.7,1.36c-.26.49-.5.94-.75,1.39a6.56,6.56,0,0,1-3,0A104.56,104.56,0,0,0,102,30H95.24l-.92.77,1.75,1.91-1.58,1.66A9.33,9.33,0,0,1,91.57,34a6.27,6.27,0,0,0-4.37-.15,6.17,6.17,0,0,1-1.45.27c-1.4,0-2.8,0-3.83,0l-2.45,1.21H76.1l-2.41-1.85a20.65,20.65,0,0,0-3.86,1.8A8.59,8.59,0,0,1,66,36.79a41.19,41.19,0,0,0-5.68,1.63,2.81,2.81,0,0,0-.72.45c-.08,1,0,2-1,2.64a4.11,4.11,0,0,1-4.16.16,22,22,0,0,1-4.59-2.33V37.77l.75-.87,2.17-.47-.82-1c-1.58,0-3.08,0-4.58,0-.16,0-.33.21-.55.36.15.56.32,1.13.47,1.68A2.52,2.52,0,0,0,47,39.73,6.91,6.91,0,0,1,49.54,44l-.6.68-1.55-1.14-4.71.91-2,2-4.09,1.11,2.51,2.82-.44,1.16H35.22l-7.08-2.84c-.69.24-.62.74-.48,1.26,1.34,1.32,3.6,1.33,4.56,3.39l-1.43,1.37-1.89-.54c-.57-.17-1.13-.34-1.7-.53a14.59,14.59,0,0,0-4.06-.92c-.17,0-.33-.22-.66-.45-.16-.62-.34-1.4-.5-2L19.3,47.79c-.09-.72-.16-1.21-.23-1.73-1.06-.85-2.47-1-3.47-1.73s-2.75-.71-3.64-2.1c0-.23.06-.53.12-.81,0-.08.14-.14.34-.33a9.6,9.6,0,0,1,1.62.13,34.36,34.36,0,0,0,4,1A14.77,14.77,0,0,1,24,44.09c3.49-.21,7,.49,10.62-.89l2.54-1.75V39.62a3.7,3.7,0,0,0-.66-.73c-3.22-1.85-6.73-3-10.08-4.6-1.18-.14-2.42,0-3.5-.64-2.58-.25-5-1.49-7.41-1.41a16.34,16.34,0,0,0-9.46-1.76L1.27,32.53Z"/>
                <path class="vm_path" d="M333.67,311a13,13,0,0,1,.61,3.73l1.53-.87.44-1.45,2.92-2.27a9,9,0,0,0,1-3.35c0-.17.2-.34.33-.55a6.47,6.47,0,0,1,.83-.15c.39,0,.79,0,1.19,0,4-2.45,4.09-2,6.63-5.69a15.65,15.65,0,0,1,.58-5,23.25,23.25,0,0,0-.84-2.73,17.2,17.2,0,0,1-1.56-5.89,5.15,5.15,0,0,0-1.07-2.5c-.75-1.1-1.62-2.1-2.33-3.21A23.94,23.94,0,0,0,340.4,277c-2.88-2.86-5.41-6-7.83-8.94a10.51,10.51,0,0,1-.72-6.19c1.29-1.52,1.4-3.85,2.9-5.77.4-.86,2.16-.66,2.35-2.36a27.87,27.87,0,0,1-4-3.16c-.43-1.2.06-2.3-.51-3.25l-3.24-.2c-1-.53-1.75-1.48-2.93-1.58l-1.38,2-3.37.88-1.58-.53-1.45,1.09-1.79.23a13.12,13.12,0,0,1,2.15,3,8.29,8.29,0,0,0,2.9,3.64,5.46,5.46,0,0,1,3.5-.48c.41.35.86.55,1,.89a25,25,0,0,0,2.23,3.23c.1.16.06.4.11.75l-.89,1.67c-1.51,1-1.52,1-2,2.24.14.14.25.33.42.4a16.93,16.93,0,0,1,3.49,1.64,14.91,14.91,0,0,1,2.47,3.06c1.74,2.37,3.9,4.39,5.52,6.86a7.64,7.64,0,0,0,1.55,1.45c.45.38.94.7,1.39,1,.06.93.11,1.75.16,2.58l2.31,2.53a12.78,12.78,0,0,0,.43,9.37v4.12c-.9,1.55-2.62,1.68-3.68,2.78l-1.12,1.77c-.42.57-1.41-.39-1.6.72.34.6.72,1.28,1.18,2.08l-.93,1h-3.23l-1.4,1.69,1,1.58A5.93,5.93,0,0,0,333.67,311Z"/>
                <path class="sp_path" d="M327.55,336.27l-6.37,3.18a15.9,15.9,0,0,0,7,3.71l1.54-1.28A18.68,18.68,0,0,1,327.55,336.27Z"/>
                <path class="jp_path" d="M452.49,199.93v4.56l-1.24-1.4-2-.21c-1.62.65-1.61,2.1-2,3.36l-3.42.29c-.58.81-1.16,1.6-1.77,2.46a4.6,4.6,0,0,1-1.17,0,9.92,9.92,0,0,1-4-2.41,1.93,1.93,0,0,0-2.59,1.28c-.27,1.21,1.1,1.17,1.38,2,.06.38.13.8.2,1.21a13.71,13.71,0,0,1-2.91,4.64c-2.43-1.28-3.53-3.52-4.2-6.35-1.82-.76-3.79-1.57-5.91-1.18a32.11,32.11,0,0,0-5.16,1.62c-1,.38-2,.93-3.08,1.41L413,213.39a26.71,26.71,0,0,0-2.76-.73c-1-.14-1.94-.1-3.19-.15a26.29,26.29,0,0,1,1.89-3c.62-.74,1.54-1.22,2.19-2a34.42,34.42,0,0,0,2-2.88c3.64-.18,7.33.16,10.57-1.68,1.32.3,2.4,1.22,4.1.6l1.7-1.52c-.21-1-.41-1.9-.65-3l1.39-3.1h2.22l4.2-3,3.62-6.39c-.1-1.64-.24-2.78-.24-3.91a19.8,19.8,0,0,0-2-9.16,59.34,59.34,0,0,1-2.21-5.76l2-2.22c.77.76,1.41,1.49,2.15,2.1s1.78,1,2.36,1.74c2.82,3.59,5.7,7.19,5.38,12l1.28,2-1.35,2.86,2.52,4.48C449.79,194.16,451.12,197.18,452.49,199.93Zm-38.78,21.51a17.61,17.61,0,0,0-1.48-1.05c-1.68-1-3.36-1.94-5.06-2.85a13.9,13.9,0,0,0-1.91-.69c-.7.7-1.34,1.25-1.9,1.89a1.74,1.74,0,0,0-.19,2.14l4.35,3c.58,1.14,1.32,2.22,1.18,3.61s.76,2.1,1.3,3.11l1.75,1a4.48,4.48,0,0,0,2-2.6,24.8,24.8,0,0,1-.66-3.83A20.72,20.72,0,0,1,413.71,221.44Zm6.2-6.41-2.34.42-1.19,2.44c2.27,1.66,2.28,1.65,3.58,1.32l1.34-2,3.37-.77v-1.8l-2.33-1.26Zm-4.5-.63.17-.09-.12-.12A1.29,1.29,0,0,0,415.41,214.4Zm-7.36,1c.59,1.08,1.5,1.21,2.46,1.5a12,12,0,0,1,2.78,1.82,6.82,6.82,0,0,0,2.12-4.32l-1.49.74C411.87,215.45,409.94,214.58,408.05,215.4Zm23.13-62.17-1.94-.61c-.3,1.2-.6,2.41-.92,3.67.82.87,1.65,1.65,2.37,2.53s1.48,2,2.22,3.05l.77-.23c-.15-2.07-1.95-3-2.95-4.6l.46-1,5.31-.88c2.87,1,5.16,3.07,8.13,3.35a23.8,23.8,0,0,1,1.16-2.91,22.84,22.84,0,0,1,1.85-2.45h5.66a13.85,13.85,0,0,1-5.1-6.56,6.81,6.81,0,0,1-4.71.5c-2.55-1.19-4.86-2.21-7.12-3.35s-4.41-2.37-7.48-4c.52,1.86.73,2.8,1.05,3.69a16.16,16.16,0,0,0,.95,1.91,10.5,10.5,0,0,1,1.32,6.76Z"/>
                <g class="other">
                    <path class="cls-1" d="M356,251.13l1.48.3c1.63-.69,2.59-2.46,3.38-3.62a17,17,0,0,0,2.27,1.53s1-.27,1.4-.31l1.17-1.47,6.52-2.82a14.92,14.92,0,0,1,3.9-3.58c.69-.88,1.16-1.54,1.69-2.15a4.81,4.81,0,0,0,1.42-2.31,3.85,3.85,0,0,1,.77-1.29c.58-.84,1.19-1.65,1.77-2.49a1.57,1.57,0,0,0,.15-.45l-.34-1.33c.59-1.49,1.15-3,1.8-4.52a8.31,8.31,0,0,0,.66-2.35,7.61,7.61,0,0,1,1.81-4.5c0-2.08,0-4.14,0-6.2a5.83,5.83,0,0,0-.16-1l-.83-.72-2.34.47-1-.9c0-.45.06-.85.08-1.1.63-1.24,1.85-1.8,2.29-2.92a20.85,20.85,0,0,0-.79-2.42,10.75,10.75,0,0,0-1.19-1.77,2.8,2.8,0,0,0-.84-.87c-1.81-1-2.58-2.77-3.54-4.45a39.26,39.26,0,0,0-5-7.13l-4-1-.73-.84a9.14,9.14,0,0,1,.29-4.17c.39-.34,1.09-.92,1.74-1.56a5.36,5.36,0,0,0,1.37-1.62,6.32,6.32,0,0,1,2.38-2.65,16,16,0,0,0,1.78-.37,8.31,8.31,0,0,0,1.29-.7c-4.18-.47-4.18-.47-7.61-2a24.58,24.58,0,0,1-1.49,2.22,4.77,4.77,0,0,1-1.21.79l-2.57-.88c-1.47-1.55-1.51-1.54-2-3.38a2,2,0,0,0-1.31-1.33H357.6l-2.13-1.22a16,16,0,0,1-.91-2.23,1.59,1.59,0,0,1,1-2.05l2.84-.17,1-.88c.07-1.16,0-2.32.9-3.2,1.6-.94,1.56-1,2.11-2.4a8.86,8.86,0,0,1,.92-1.47,8,8,0,0,1,5.39,1.83c.28.64.57,1.28.82,1.87a5.1,5.1,0,0,0-.48,3.08,6.31,6.31,0,0,0,1.54,1.75l2.63-2.84,3.78-1.2.71-2.47,4.16-3.68c.43-1.12.19-2.22,1.53-2.77a5.42,5.42,0,0,1,1.46.17,16.53,16.53,0,0,1,1.87,1,1.12,1.12,0,0,0,1.4-.18,2.25,2.25,0,0,1-.12-2.68l2.22-.3,1.54-2.13c.11-.68-.14-1.36.62-2,.3,0,.79,0,1.28,0s1,.82,1.74.22c-.46-1.38-.65-2.94-1.62-4.14s-1.76-2.74-3.25-3.54c-.2-.12-.27-.5-.4-.75a6.33,6.33,0,0,1,2.25-2.36,20.61,20.61,0,0,1,2.5,0c.75.1,1.4.88,2.35.24.47-2.4-.86-4.73-.67-7.18-1-1.91-.78-4.23-2-6.15-.66.22-1.29.47-1.95.63s-1.6-.16-2.29.24L389.24,128c-2.49-.2-5,.69-7.31-.89a6.57,6.57,0,0,0-.68-1c-.91-1-1.85-1.88-2.8-2.84l-6.57-3.44h-3.36l-3.61-1.47c-2.55-2-3.77-4.94-6-6.28l-5.37-6.41-6.74-3.08-.94.38-3.27-1.58a29.66,29.66,0,0,0-10.68.75l-.7,1.36.8.34c1.95.82,3.28,3,2.57,4.92s-.47,3.65-.5,5.48c0,.82,0,1.63,0,2.33l-3.42,3.32a6.47,6.47,0,0,0-1.72-.58c-.66,0-1.18-.88-2.06-.27-.1,1.55,0,3.19,0,4.83a10.79,10.79,0,0,0,.19,1.5l.95.68c2.52-.79,2.52-.79,5.82.64l1.19-.95a3.74,3.74,0,0,1,3.63.6,46.53,46.53,0,0,1,3.94,2.77,11.21,11.21,0,0,1,2.9,3c.1.62.05,1.1-.58,1.4a7.36,7.36,0,0,1-3.16-.33A2.94,2.94,0,0,0,340,133c-1.53.4-3,.93-4.55,1.41-.06.9-.12,1.7-.15,2.24L333,139a7.13,7.13,0,0,1-1.46,0c-.47-.1-.87-.54-1.57-.19l-2,2.82c-1.08,0-2.08.1-3.06,0-.47,0-.91-.43-1.39-.49a21.6,21.6,0,0,0-2.67-.11c-.13,0-.26.26-.51.53l.74,1.61c.85,1,2.26,1.16,2.29,2.6A7.63,7.63,0,0,1,321,149.3c-.66.63-1.37,1.21-2,1.9a9.32,9.32,0,0,1-4.57,2.81h-7.14c-2.39.79-3.82,2.45-5.47,3.62a12.16,12.16,0,0,1-4.87-2.26c-1.34-.19-2.32-.35-3.3-.48s-2-.23-2.85-.34l-3.44-1.64a22.82,22.82,0,0,1-3.43-.54,3.28,3.28,0,0,0-2.33,0c-1.79.79-3.5.41-5.26.06-1.55-.31-3.13-.38-4.68-.8-1.27-.35-2.53.3-3.87.52a9.52,9.52,0,0,1-1.51-1.46,13.49,13.49,0,0,0-3.73-3.94,7.54,7.54,0,0,1-1.32-1.65c-.24-.3-.51-.57-.67-.76-1.39.39-2.16-.65-3.12-1s-1.81-.86-2.7-1.32-2-1-3-1.57h-7c-1.75-.62-3.43-1.06-4.32-3,0-.57-.1-1.29-.15-2a40.14,40.14,0,0,0-5.25-7.75l-2-.89a11,11,0,0,1-7.93-3.15c-.47-.8-1-1.66-1.53-2.59l-2.24.86c-.16.61-.29,1.1-.39,1.51a5.12,5.12,0,0,1-2.75,1.78v1.7l1.06,1.71v1.55A5.3,5.3,0,0,1,216.1,132,24.47,24.47,0,0,0,211,131a6,6,0,0,0-1.06.18c-.57,1.84.79,3.34.31,4.83.53.95,1,1.75,1.42,2.58l-.58,1.1h-3.83c-.81.7-2.29.32-3,1.73a19.44,19.44,0,0,1,3.61,6.44c-.2,1.11-.46,2.11-.55,3.11s0,2.06,0,3.18l-1.32,1.55a13.72,13.72,0,0,0-5,3.09l-4.21,1c-.68,1.42-1.23,2.93-3,3.32-.73-.2-1.36-1-2.46-.89l-1.08,1.42-2.56,1.19c-.09,1-.17,1.78-.24,2.61.34.65.66,1.28,1,1.93l2.45.23,1.65,1.59c.65,1.63,1.15,2.85,1.67,4.13v2.18c1.89.89,4,1.39,5.19,3.41l.5,1.81a23.22,23.22,0,0,0,6.39,2.86c.29-.15.47-.25.65-.32a.86.86,0,0,1,.28,0,2.2,2.2,0,0,1,.48.35c.8,1.17,1.59,2.36,2.47,3.67a3.3,3.3,0,0,1,2.65,2c.61,1.15.44,2.42.78,3.54,2.26,2.47,2.37,2.78,2,5.52l-2,1.15c.71,1,.83,2.34,1.75,3.19l1-.19,1.61,1.57,7,4.6a2.39,2.39,0,0,1,2.7-.74,5.34,5.34,0,0,1,2.1,1.12,14.88,14.88,0,0,0,3.24,2.16c1.13.62,2.16,1.43,3.25,2.17l2.17.13,2.32,2.88c.93.45,1.9,1,2.9,1.42s2,.81,3.13,1.25h2.66l3,1.15,4.28-1a.61.61,0,0,1,.27,0c.75.25,1.08,1.32,2.21,1l1.37-1.66,2.36-.65a19.89,19.89,0,0,0,2.27.87,23.71,23.71,0,0,0,2.61.41l2.13,1.17,1.74-.13a14.08,14.08,0,0,1,3.15-4.07l1.48-.37c.62-.81,1.16-1.53,1.73-2.29a6.25,6.25,0,0,1,3.27.26,7.2,7.2,0,0,0,1.33.28l1.84-1.2c1.77,1,3.35,2.05,4.16,4,.14.35.56.57.87.87a8.4,8.4,0,0,0,1.79.11,8.26,8.26,0,0,0,1.57-.54l1.8,1c1,1.66,2.59,3,3.14,5.08s1.72,3.73,1.44,6.17l-2.59,4.57a4,4,0,0,0-.67,3.36l.62.8c1.41.23,2.71-1.28,4.07-.15.92.91.91,2.25,1.39,3.33l2,2.15c.11,1.25.2,2.36.29,3.51l3.19,1.33c.43.81.61,1.58,1.46,1.67l2.35-1.24c.35.23.59.39.84.54s.38.75,1,.38V248.7l3.12-1.6c1,0,1.89.28,2.77-.24a3,3,0,0,1,2.82,0l2.28-.78,1.46-2L327,244l3.19,1.76,3.17.3.8.92v2.36a15.1,15.1,0,0,0,4.2,3.37l2.5-1.18,4.86,1.37c2.21,1,1.77,3.44,3.12,4.74.88-1.2-.65-2.17.1-3.74l.64-1.09c1.17-.12,2.24-.38,3.3-.56S355.06,251.33,356,251.13Z"/>
                    <path class="cls-1" d="M78.4,125.37c.13.25.43.41.67.63h2.05a9.6,9.6,0,0,1,4.45,4.35c.41,1.46,0,2.37.72,3,.19,0,.42,0,.56-.08,1.06-.77,2.1-1.57,3.15-2.36a4.56,4.56,0,0,1,5.31-.58,14.27,14.27,0,0,0,1.38.58,5.21,5.21,0,0,1,3.75-.41c.9.46,1.19,1.37,1.65,2.37v2.57l1.19,1.8v1.62l-.76.74c-2,.09-3.94.16-5.83.26-.17,0-.32.22-.5.35l-.37,2.1-1.93,1.46,3,1.65,2.62,3.47c1,.35,2,.63,2.92,1a3.63,3.63,0,0,1,.78.55c.12,1.16.2,2,.3,2.91a7.25,7.25,0,0,1,6.2-1.67l2.4,1.34c.56,1.37,1.94,1.9,3.44,3.19-.38-2.14-.74-3.82-1-5.48a40.48,40.48,0,0,1-1-5.4c0-1.73-1.06-3.36-.51-5.16a3.41,3.41,0,0,1,2.45-1.57,32.34,32.34,0,0,0,3.69-1.17c1-.33,2.1-.58,3.1-.84,2.37,1.09,4.7,2,6.88,3.21a21,21,0,0,1,5.55,4.14c.81.9,1.75,1.69,2.62,2.51h8.13l2.39-1.1c2.3.92,3.92,2.64,5.76,4,.91,2,.81,4.52,3.11,5.59.59,1,.72,2.25,2.24,2.82h3.53l1.6,1.79a10.31,10.31,0,0,1,1.89-2.09c.75-.47.95-1.3,1.53-1.81s1.46-1.07,2.16-1.63,1.36-1.19,2-1.78l.42-1.49,1.85-1c1,.72,2.2.25,3.34.6l2.53,1.05c.54-.38.46-.79.45-1.2s0-1,0-1.45c1.54-1,3-1.39,4.6-.5a31.33,31.33,0,0,0,3.54,1.36,7.25,7.25,0,0,1,3.85-.68,36.21,36.21,0,0,1,9.5.95c1.18.88,2.32,1.94,4,1.47-.49-1.47.79-2.76.26-4.2-.61-1.17-1.27-2.31-1.93-3.45s-2-1.91-2.8-3.34c2-1.4,4.29-1.33,6.19-2.36a5.15,5.15,0,0,0,2,.17l-1-2.28c.06-2-.13-4.08.11-6.14l1-.76c1.18.36,2.3,1,3.5.79s2.46.92,3.93.48l.86-.7c-.4-.87-.77-1.7-1-2.28V124c.9-.39,1.72-.74,2.51-1.11.16-.08.24-.31.33-.42v-1.88l-1.94-1.76a8.39,8.39,0,0,1-4.11.38,5.73,5.73,0,0,1-1.7-1,6.69,6.69,0,0,0-4-2.25c-1.25-1.28-2.33-2.53-4.25-2.94-.35,0-1,0-1.55,0a1.79,1.79,0,0,0-.85.25,4.33,4.33,0,0,1-3.17.32c-1.51,0-2.15-1.93-3.76-1.7-.55,1-1,2.12-2.61,1.59-.31-.28-.76-.68-1.2-1.1-.81-.76-1.56-1.61-2.43-2.29-1.8-1.43-3.89-2.52-5-4.77a2.82,2.82,0,0,0-.85-.87c-2.36-1.89-4.69-3.81-7.64-4.8L173,97.48c-.69.39-1.39.75-2.05,1.18s-1.25,1-1.95,1.42c-.87.47-1.82.79-2.72,1.17-.92-.24-1.84.16-2.88-.38-.26-.57-.59-1.27-.91-2l-2.25-.24-1.82-1.21c-1.1.18-2.06,1.09-3.26.37l-1.82-3.59-2.13-1.17c-1.76.68-3.37-.89-5.39-.43a4.88,4.88,0,0,0-.87.49,9,9,0,0,1-5.51,2,6.16,6.16,0,0,0-1.45.31c-2.18.61-4.24,1.77-6.6,1.61-1.55.81-3.31.49-4.94,1a34.11,34.11,0,0,1-5,.9l-.7.77a4.41,4.41,0,0,0,.81.85,6.32,6.32,0,0,0,2.86.73c.15,0,.29.25.49.44,0,.35,0,.75-.06,1.25l-2.18,1.42c.13.51.23.88.35,1.37l-1.74,2c1,.5,1.89.94,2.78,1.41.7.37,1.4.77,2.07,1.21a2.87,2.87,0,0,1,.56.73v1.62l-1.41,1.31a5.67,5.67,0,0,1-3.59-.34c-1.08.7-2.2.44-3.62.47l-4.29-2.44-3.09,1.29H108l-1.49,1.24h-1.46l-2.32-1.23h-2.07a27.78,27.78,0,0,1-3.5-1.4c-1.21-.71-2.67-.8-3.77-1.76a6.45,6.45,0,0,0-1.25-.72c-.86.51-1.62,1-2.4,1.44-1-.36-1.87-1-2.62-.75l-4.83,3.66c0,1.37,1.14,2.67.37,4.14a3.5,3.5,0,0,1-3.76.73c-.32-.93-.51-2.12-1.74-2.66a4.35,4.35,0,0,0-1,3c.21.36.4.71.72,1.28-.09,1-.2,2.18-.31,3.37C77.66,123.64,78,124.57,78.4,125.37Z"/>
                    <path class="cls-1" d="M278.19,249.07l-1-2.28c.29-.56.5-1,.77-1.46a13.66,13.66,0,0,1,.83-1.15c-.43-1.1-.92-2-.39-3.2l.76-.51c.75-.16,1.21.7,2,.07.64-2,1.54-4,1.27-6.28q.72-1.31,1.29-2.37c0-1.35-1.09-2.42-.46-3.71a11.84,11.84,0,0,1,3.81-3.27c.85-.21,1.68.14,2.4-.3.24-.7.5-1.36.69-2a6.3,6.3,0,0,0,.12-1.14c-1.13-.66-2.47-.58-3.32-1.71l-.57-1.77-1.7-1.29a2.19,2.19,0,0,0-.5.1c-.36.18-.7.38-1.12.62-.64,0-1.34,0-2-.12s-1.31-.34-2.12-.56c-.66.77-1.33,1.53-2,2.29l-1.45.42c-1.67,1.18-2.13,3.41-3.79,4.64-.48.37-.59,1.27-.88,2l-4.47,2.45H260.8c-1.11-.64-2.22-.95-2.83-2-.35-1.14-.7-2.3-1-3.4-1.09-.13-1.09-.13-1.54.33v2.49l1.2,2.82-1.36,1.54c-2.14.34-4-.6-5.89-1l-1.12.42-2.62-.87c-.53-.81-1.07-1.66-1.63-2.53l-3.25-1.48c-2.06-.61-3.92.94-5.81.64-2.09-1-3.81-2.45-5.93-3.1a2.61,2.61,0,0,1-.77-.48,9.33,9.33,0,0,0-2.91-1.49,5.91,5.91,0,0,1-3.56-2.89v-3.31l1.64-2.2a15.69,15.69,0,0,0-5.82-4.15c-.59-.57-1.18-1.12-1.67-1.6l-2-.18c-.37-.91-.69-1.77-1.08-2.58s-.86-1.6-1.37-2.52c.25-.48.52-1,.75-1.46l2.13-.36a3.43,3.43,0,0,0-2-3.12c-.37-1.51-.71-2.89-1-4.25a18.5,18.5,0,0,1-2.5-1.81,18.9,18.9,0,0,1-1.78-2.56l-7.41,3.8a9.48,9.48,0,0,1-4.56-.53,1.35,1.35,0,0,0-1.47.27c-.14.91.84,1.29,1.06,2.2-.29,1.4.8,2.55,1,4,.91.67,1.81,1.31,2.67,2s1.79,1.36,1.82,2.83l-1.92,2.32c.15.74.31,1.53.49,2.44-.48.77-1,1.66-1.57,2.49s-.48,2-.78,2.85l-1.43,1.75a7.07,7.07,0,0,1-2.56,4.38,5,5,0,0,0-1.43,1.94,18.17,18.17,0,0,1-1.69,2.49l-2,.94-2.89-.69a16.85,16.85,0,0,0-2.2,3.72,1,1,0,0,0,.26,1.22l2,.35c.08,1.19.16,2.3.24,3.48l2.44,1.12c.71,2.07,1.41,4.09,2.09,6.11a3.35,3.35,0,0,1-.11.87l-.57.65a8.69,8.69,0,0,0-2.63,0,14.83,14.83,0,0,1-4.73.44c-.39,0-.78.09-1.08.13-.63.65-1.4,1-1.47,2,.85,1.38,2.26,2,3.39,2.86l3.67.22.65.93a1.82,1.82,0,0,1-1.34,2,2.18,2.18,0,0,0-1.73,1.18,6.26,6.26,0,0,0,2.27,1.83,5.75,5.75,0,0,1,2.07,2.14,10.57,10.57,0,0,0,1.46,1.73,6.3,6.3,0,0,0,1.09,0,11.47,11.47,0,0,0,1.13-.37c.29-.09.58-.16.87-.22s.76-.16,1.15-.24l.85-1.68c-.18-.65-.35-1.23-.52-1.86.43-.86.58-2,1.65-2.48.91-.13,1.44.42,1.88,1.35v4.1c.42.95.78,1.79,1.18,2.7v4.24a15.78,15.78,0,0,1,1.3,5.71,16.74,16.74,0,0,0,.78,4.2,27.69,27.69,0,0,0,2.72,6.71,6.58,6.58,0,0,0,.16,1.62c.57,1.54,1.19,3.05,1.84,4.55a5.65,5.65,0,0,0,.94,1.57c2,2.18,2.73,5,3.58,7.71.7,2.24,1.67,4.37,2.36,6.61a3.75,3.75,0,0,0,.76,1.31,10.9,10.9,0,0,1,1.94,3.77c1,2.81,2.1,5.53,3.2,8.36a10.2,10.2,0,0,0,2.53,2.6l1.22-.24c.63-1,1.25-2.06,1.91-3.14l2.18-1,1.68-4.31,2.05-1.54a3.69,3.69,0,0,0-.05-.76,8.36,8.36,0,0,1,.48-8.5,3.69,3.69,0,0,0,.18-.53,12,12,0,0,1,.53-3.38,2.08,2.08,0,0,0,.06-1.51c-.48-1.18-.26-2.47-.59-3.63a22,22,0,0,1-.61-3.94c0-.19-.18-.37-.24-.56s-.12-.59-.17-.83l.89-1.76,1.92-.78c.56-.7,1.11-1.42,1.62-2.06l2-.32,1.3-1.35c.1-.61.16-1,.24-1.56.78-.54,1.61-1.08,2.41-1.67a6.48,6.48,0,0,0,1.84-1.53,26.45,26.45,0,0,1,4.11-5.28,4,4,0,0,0,.47-.78l1.69-2.71c1.4-.75,2.63-1.42,3.87-2.07a5,5,0,0,0,2.33-2.3c.13-.27.24-.54.31-.7l-.77-2.62a3.54,3.54,0,0,1,1.87-1.6,6.09,6.09,0,0,0,3.17-2.19l2.34-.18c.33-.36.59-.66.9-1-.83-2-1.65-4-2.5-6.07v-3.28c-.22-.46-.43-.92-.66-1.43.09-1.36-.26-2.79.47-4.21L256,232.47v-1.66l1.33-1.63h2.52a6.6,6.6,0,0,0,3.37,2.16l1.56,2.81c3.41-.26,6.5,1,9.63,1.38a2.53,2.53,0,0,1,.61,2.2l-3.88,4c.06,1.32.06,1.32.82,2.21.53-.79.69-2.06,2.11-1.75a3.67,3.67,0,0,1,1.67,2.42c.27.77.42,1.59.74,2.33s.43,1.82,1.22,2.42C277.92,249.52,278.05,249.48,278.19,249.07Z"/>
                    <path class="cls-1" d="M103,228.48a22.79,22.79,0,0,0-4.94-3.74,15.1,15.1,0,0,0-2.8-4.75L93,219.63c-.5-.66-1.12-1.47-1.55-2.06-2.22-.58-4.12-.14-6-.16a12.74,12.74,0,0,1-5.45-1,41.35,41.35,0,0,0-7.09-5.78c-2.45-1.78-4.93-3.49-7.34-5.31a10.43,10.43,0,0,0-6.24-2.65c-2.29,1-4.48,2-6.65,3-.23.11-.34.48-.52.74l.74,1.73v3a4.67,4.67,0,0,1-1.75,2.39l-2,.23-2,2.3c-1.54.27-3-.2-4.37.31-.06,1.3-.11,2.52-.17,3.82a7.2,7.2,0,0,1,2.88,3.85,9.45,9.45,0,0,0,1.42,2.69,57.64,57.64,0,0,0,3.47,5,16.4,16.4,0,0,1,2.6,4.49c.61,1.65,1.15,3.27,3,4,.42.16.71.71,1,1.12s.82,1.16,1.23,1.74a17.64,17.64,0,0,1,3.14,7.88,25.61,25.61,0,0,0,1.38,5.31,4.18,4.18,0,0,0,2,2.58,11.75,11.75,0,0,1,4.57,4.28c1.39,1.91,2.67,3.83,2.87,6.28l2,1.95A8.21,8.21,0,0,1,77,275.9c.06.33.45.6.72.94.62-.8-.11-1.23-.19-1.61v-2.35l.92-1.51h1.36L82,272.72a6,6,0,0,1,5.15-.63,14.11,14.11,0,0,0,4.12.44,7.39,7.39,0,0,1,.85.06l2.24,1.34c1.33-.81,1.44-2.17,2.25-3.57.36-.36,1-1,1.68-1.63a12,12,0,0,1,5.22-2.86,26.77,26.77,0,0,1,6.49-.81c1.21.05,2.41,0,3.84,0,1.8-.85,3.84-1.69,5.76-2.76s4.13-1.49,5.78-2.9c.6-2.91,1.17-5.68,1.77-8.56-.43-.59-.9-1.25-1.36-1.91a11.39,11.39,0,0,1-5.27-1.1,18.51,18.51,0,0,0-4.58-1.24,6.4,6.4,0,0,1-2.77-1c-.75-1.07-1.59-2.1-2.24-3.25a9.29,9.29,0,0,0-2.22-2.85l-2.08-.89c-.37-.88-.68-1.63-1-2.34l-1.42-1c-.36-1-.67-1.85-1-2.71C103,231.24,103.72,229.87,103,228.48Z"/>
                    <path class="cls-1" d="M319.68,116.79h-3l-2.94,1.53-1.13,1.49h-4.88l-1.87,1.25a34,34,0,0,1-3.65,0c-1.27-.14-2.52-.5-4.18-.85-1.18-.72-2.95-1.19-4.27-2.56a3,3,0,0,0-1.61-.77c-3.22-.56-6.36-1.71-9.7-1.4-.6,0-1.21,0-1.8,0a7.94,7.94,0,0,0-1.28.29l-3.8-.34c-.86-.47-1.84-1-2.79-1.54s-1.86-1.18-2.73-1.73l-1-1.58c-1.28-.43-2.54-.77-3.72-1.28s-2.78-.36-4.08-.77a9,9,0,0,0-3.71-.39,3.84,3.84,0,0,0-.88,3.37l1.72,2.8v2.79l-1.48,1.38A45.85,45.85,0,0,0,251,117.4c-2.5-.2-4.93-.67-6.85-2.45-2.72.14-5.16-.81-7.8-1.44-1.82,1.15-3.72,2.25-5.51,3.52a9.75,9.75,0,0,0-1.71,1.89c-1.48.66-2.67,0-3.79.79a4.77,4.77,0,0,0,.24,1.7,6.94,6.94,0,0,0,4.14,3.34,18.3,18.3,0,0,0,3.5.66,5.36,5.36,0,0,1,2.58.85c.66.81,1.19,1.43,1.68,2.07.87,1.12,1.79,2.21,2.55,3.41a8,8,0,0,1,1.68,4.22,4.45,4.45,0,0,0,.6,1.56,8.46,8.46,0,0,0,5.78,1.66c1.49-.08,3,0,4.57,0,2.06,1.51,4.69,2,6.81,3.62l1.95.27c.37.4.67.68.92,1a6.41,6.41,0,0,0,.86,1.21,18.52,18.52,0,0,1,4.64,4.93c2.17.42,4.15-.19,6.16.33a49.21,49.21,0,0,0,6,.86,6,6,0,0,1,1.49-.5,13.62,13.62,0,0,1,7,1,14.7,14.7,0,0,0,7.13,1.52A18.18,18.18,0,0,1,299,155a9.06,9.06,0,0,0,2.73,1,12.74,12.74,0,0,1,5.18-3.28,5,5,0,0,0,2.06-.05c1.38-.59,2.76-.35,4.14-.42.89-.05,1.78-.06,2.54-.09,1.58-1.36,3-2.61,4.47-3.88a4.67,4.67,0,0,0,1.47-2.54c-.85-1-1.94-1.66-2.41-2.9V140l1.53-.83a7.57,7.57,0,0,1,3.85.88,3.78,3.78,0,0,0,2.58.15c.9-.87.91-2.37,2.23-3h3.18l1.51-1.46c-.1-.59-.19-1.06-.27-1.55l.94-1a30.91,30.91,0,0,1,4.1-1.38,34.59,34.59,0,0,1,4.49-.27l-5.32-4-1.86-.6c-.87.5-1.18,1.81-2.48,1.63l-3.11-1.91a4.16,4.16,0,0,1-3.54.49l-1.05-1-.78-2.67c.05-2-.17-4,.49-6l-3,.48Z"/>
                    <path class="cls-1" d="M325.66,117.44l.11,0s0-.08,0-.13l-.08,0A.5.5,0,0,0,325.66,117.44Z"/>
                    <path class="cls-1" d="M153.66,227.36l1.14.32c.73-.79.72-.79.65-1.28l-2-1.09-1-3.92c-1.37-.64-2.86-1-3.88-2.43a16.82,16.82,0,0,0-3.58-5.67,3.68,3.68,0,0,1,.48-2.81c.47-.79,1-1.56,1.42-2.36a2.23,2.23,0,0,0,.15-.58l-.73-1.3-2.26-.35-.86-.91c-.12-2.53-1.19-4.42-2-6.53v-2.2L140,193.83c0-3.39,1.57-6.45,2.07-9.84l-1.7-3a43.73,43.73,0,0,1-7.74-4.37c-2-.6-3.48-1-5-1.54s-3.13-1.25-4.43-1.77h-4.41l-1.73.84a12.23,12.23,0,0,1-1.74,2.41,9.31,9.31,0,0,0-1.72,2.44,7.14,7.14,0,0,0-1.11.52c-2.39,1.71-5.25,1.7-7.94,2.3a4.32,4.32,0,0,1-2-.24,9,9,0,0,1-5.22-3.88,5.14,5.14,0,0,0-.5-.62l-2.34-.2c-2.49-.94-2.42-3.3-3.25-4.43l-2.91-2.15c.07-1.05.15-2.14.24-3.38l-.54-.59c-2.28.71-3.67,2.63-5.61,3.69a11.93,11.93,0,0,1-2.07,0,13.16,13.16,0,0,1-2-.71,3.34,3.34,0,0,0-.53-.73c-.93-.75-1.89-1.46-2.89-2.22-.48.72-1.07,1.27-1.08,2.14.17,1.26,1,2.17,1.54,3.15-.12.48-.21.87-.25,1.05.69,1.26,1.26,2.34,1.87,3.4a8.93,8.93,0,0,0,1.14,1.79,11.18,11.18,0,0,1,2.38,3.78c1.26,1,2.91,1.05,3.74,2.09-.1,1.66-.19,3.07-.28,4.57a8.39,8.39,0,0,0-2.16,5.19c1.29,1.2,3.17,1.86,3.55,3.92l4.9,3,2.24,2.59v3.35c.55.61,1,1.14,1.55,1.75l.42,1.55,1.78,1.69c1.32-.94,2.71-1.39,4.17-.52,1.75-.47,2.6,1.13,3.81,1.76l3.16,4.48a6,6,0,0,0,1.39,4.28,27.91,27.91,0,0,1,5.93,3.69,6.12,6.12,0,0,0,2.41,1.19,29.23,29.23,0,0,1,5.19,2.06l4.09-1.33.83-1c1.32,0,2.51-.25,3.74.3a25.79,25.79,0,0,1,2.55,5.61c1.26.32,2.31.6,3.36.85s2.13.51,3.2.65a28.72,28.72,0,0,1,2.91.56c1.06.23,2.14.45,3.21.61a6.79,6.79,0,0,0,3.2,0A15.86,15.86,0,0,1,152,228.1Z"/>
                    <path class="cls-1" d="M182.85,239.64a20.79,20.79,0,0,1,2.13-.57c.76-.12,1.55-.11,2.44-.16.08-1.95-1.27-3.28-1.46-5a14.15,14.15,0,0,1-1.75-.62,3.65,3.65,0,0,1-.8-.76c-.1-.93-.17-1.74-.25-2.47L181,228.87c-.28-.67-.52-1.23-.71-1.7,1.16-2.18,1.73-4.59,3.56-5.82l3.59.43a5.24,5.24,0,0,0,2.64-3.82,6.34,6.34,0,0,0,3.56-4.86l1.48-1.71c.06-.8.12-1.52.17-2.2l1.88-2.49c-.22-.95-.43-1.83-.63-2.7l1.93-2.46c-1.06-1.68-3.09-2-4.07-3.56-.51-1.26-1-2.48-1.47-3.63.13-.38.22-.67.31-.95-.72-1.09-1.73-2.05-1.44-3.72l1.65-1a14.9,14.9,0,0,0,6.81.52,24.26,24.26,0,0,0,4.06-2.62c-1.27-.59-2.31-1.12-3.39-1.56a4,4,0,0,1-2.85-3.41,5.48,5.48,0,0,0-3.11-2.19c-1.6-.06-3.29-.32-4.93.47a3.86,3.86,0,0,1-1.49.08h-2.94a43.7,43.7,0,0,0-4,2.68c.94,1.59,1.81,3.09,1.57,4.94L182,189.32c.23,1,.43,1.88.59,2.6-.69,1.29-1.92,1.37-2.79,2,.14.56.29,1.12.41,1.59-.71,1.44-2,2.17-3,3.19a14,14,0,0,1,0,1.83c-.19,1.42-.36,2.86-1.79,3.82H172.7l-2.28,2.77a3.18,3.18,0,0,1-2.63-.26,1,1,0,0,0-1.3.34c-.5,1.89.81,3.62.44,5.26-.75,1.57-2.1,1.83-3.05,2.36-2,.2-3.81-.27-5.51.63a2,2,0,0,1-.89.05h-5.71a5.56,5.56,0,0,1-2.62-.51c-.16-.08-.47.16-.82.29.55,1.11,1,2.1,1.49,3,.6.42,1.07.82,1.59,1.11s1.25.57,1.9.85a4.73,4.73,0,0,1,1.06,2.84,1.87,1.87,0,0,0,.36,1.44c.89.43,2,.43,2.57,1.41-.24,1.54-.24,1.54-2.11,3.09l-2.4.13c-.67,1.67-1.3,3.17-1.86,4.69a1.1,1.1,0,0,0,.44,1.4h6A14.89,14.89,0,0,1,164,234a10.46,10.46,0,0,0,3-.23,8.81,8.81,0,0,1,3.31-.17c1.3,1,1.31,2.51,2.06,3.81,2,.51,2.27,3.16,4.19,4h1l2-2.26A5.12,5.12,0,0,1,182.85,239.64Z"/>
                    <path class="cls-1" d="M73.87,172.22a2.17,2.17,0,0,0-.3-.86c-.46-1.13-.93-2.26-1.37-3.4-.07-.17,0-.39,0-.59l1.48-1.85a1.94,1.94,0,0,0-1.46-1.06,7.18,7.18,0,0,1-1.55-.84,8.39,8.39,0,0,1-1.13-4.21l-2.91-2.36c-1.64,1.38-3.6.4-5.56.7-.85.55-1.75,1.19-2.71,1.74a4.55,4.55,0,0,1-4.3.47,4.54,4.54,0,0,0-3.59.11,51.25,51.25,0,0,0-5.25-1.63,11.13,11.13,0,0,1-5.1-2.21l-3.3-1a16.35,16.35,0,0,0-5.74.69,49.35,49.35,0,0,0-5.34,2.16l-1.71,1.44c-2.18.35-4.29-.35-6.41.2L17,161.28l-2.84,1.56c-2.45-.54-4.83.63-7.15.49-.83.49-1.29,1-1,1.95l1.12.92v2c.6,1.18,1.58,2,1.71,3.48L7.36,173l2,1.18,1.7,4.54a15.31,15.31,0,0,1,2.08-.51,23.62,23.62,0,0,1,2.38,0c1.26,1.78,3.11,2.11,4.79,2.63.31-.19.53-.25.64-.39.37-.48.69-1,1-1.48l1.1-.59,3.93.78L31.12,182h2.37l4.38-2.56,3.28.5,2.21-1.06,2,2.92c.78-.78-.34-1.54,0-2.31l.75-.71c1.31.13,2.73-.15,3.95.51l3.16-.83a6.29,6.29,0,0,0,4.69,0A18.9,18.9,0,0,1,65.76,177a5.81,5.81,0,0,0,2.67-.14c2.16-.94,4.3-.6,6.48-.33.25,0,.51.3.63-.16a2,2,0,0,0-.19-.56A5.43,5.43,0,0,1,73.87,172.22Z"/>
                    <path class="cls-1" d="M181.93,180.33l-1.34-.76c-.29-.62-.6-1.26-.82-1.74-.1-1.1-.18-2-.27-3l-1.36-.59c-.6-.66-.57-1.78-1.47-2.15-.67,0-.87.52-1.27,1.1v1.93c-.47,1.29-1.5,1-2.1,1.38l-.68,1.77-2.46-.39-2.52,1.57c-2-1.26-4.28-1.53-6.21-2.53l-1.51.5-1.84-.5-.88,1c-.91.26-1.56,0-2.18.64,0,.35,0,.85,0,1.35s0,1,0,1.55a6.53,6.53,0,0,1-2.32,2.83l-2.35.23-1.61,2.25c-.73,0-1.56.25-2.08,0-1.08-.65-2.28-.47-3.38-.84a24.4,24.4,0,0,0-1.13,4.43c-.4,1.65-.68,3.19.13,4.77a2.62,2.62,0,0,1,.19.89,28.31,28.31,0,0,0,2.49,8.09c1.27.55,2.69.87,3.35,2.5v2.18c-.64,1.28-1.88,2.11-1.64,3.75a6.1,6.1,0,0,0,1,.56,14.05,14.05,0,0,0,4.61,1c1.89,0,3.79,0,5.79,0,1.46-1,3.22-.48,4.92-.66l2.16-.87c.49-1.82-.12-3.49-.51-5.27.5-.63,1-1.25,1.45-1.85h3.83l1.74-2.21,3.12-.48c1.31-1.11.46-2.62,1-4.15.21-1.37,1.73-2,2.71-3-.18-1.24-1.66-1.39-1.65-2.8l.79-.84c1.12-.27,2.15.14,3-.3.77-1-.23-1.62-.16-2.55.32-.48.69-1.08,1.08-1.67v-2c-.6-1.3-1.67-2.32-1-4Z"/>
                    <path class="cls-1" d="M296.4,274.12a1.21,1.21,0,0,1,1.29-.87,3.12,3.12,0,0,1,.72.73,17.93,17.93,0,0,1,1.42,3,17.33,17.33,0,0,0,2.37,4.82,10.81,10.81,0,0,0,.63,3.11c1.45,3,2.81,6.13,4.08,8.93.49,3,.93,5.71,1.39,8.43,0,.15.2.28.35.48.28-1.12.54-2.2.83-3.39-.56-1.45-1.15-3-1.79-4.64v-3.69c-.71-1-1.54-2-2.25-3.1-1.21-1.86-2.7-3.69-1.35-6.18.13-.23,0-.61.06-.91.13-.78.3-1.56.41-2.06L303,275.5l-2.36-1.9c-.33-.83-.7-1.78-1.15-2.9l-1.21-1-.35-.69c-.37-1.64.91-1.78,1.28-2.57.16-1.65-.18-3.32.27-4.94l.89-.61,2.24.51,1.21-1.77,1.09-.29,1-1,1.32-.17a11.64,11.64,0,0,1,1.58-1.36c.7-.41.75-1.2,1.21-1.72s.92-1.06,1.35-1.57l-.2-.62c-1.07.07-1.83,1.29-3.2.84-.64-.83-1.38-1.77-2.07-2.67-1.13-.33-2.43-.05-3-1.85,0-.6,0-1.63,0-2.66a1.76,1.76,0,0,0-.22-.57l-2-1.67c-.27-1.1,0-2.28-1.48-2.9l-3.24.56c-.85-.51-1-1.48-1.32-2.24v-2.86l2.78-4.9c.57-2.65-.6-4.47-1.07-6.43a8.94,8.94,0,0,0-2.33-3.55c-.38-.44-.72-1-1.45-.91-1.27,1.28-1,3-1.14,4.59l-1,.9h-3.2l-1.5.92-1.25,1.84c.34.81.66,1.55.93,2.2-.45,1.07-.85,2-1.2,2.86v1.69l-1.06,2.29c-.16,1.23,0,2.63-1.11,3.65l-2.08.39v2.91c-.36.81-1.07,1.06-1,1.82s1.19,1.14,1,2.23l-1.71,2.13v2.36l-1.61,1.05c1.44,1.87,2.86,3.71,4.3,5.6l1.34.39A6.23,6.23,0,0,1,284,263.4c1.32,3.09,2.66,6.18,3.93,9.12,0,1.24,0,2.27,0,3.31s-.34,2.23.07,3.37a9.4,9.4,0,0,1,1.54.21,9.8,9.8,0,0,1,1.36.58l4.68-2.22c.31-.36.05-1,.21-1.61A16.5,16.5,0,0,1,296.4,274.12Z"/>
                    <path class="cls-1" d="M112.4,175c.16.58.36,1.18,1.09,1.26A3,3,0,0,0,114,176c1-.75,1-2.21,2.07-3.13l2.33-.89h5.42a56.92,56.92,0,0,0,9.39,3.25c1.46,1.65,3.8,2,5.48,3.49a8.25,8.25,0,0,0,2.51,1c.89,1.45,1.79,2.93,2.76,4.54a8.52,8.52,0,0,1,1.61.28,18.34,18.34,0,0,1,2,1l1.3-1.85,3.18-.86c.49-.55,1.1-1.22,1.76-2a3.9,3.9,0,0,1-.4-3.11c.21-.19.49-.47.75-.72l1.75-.26,1.22-1.07,2.46-.14c-.25-.67-.44-1.22-.57-1.58-1-1.07-2.24-.65-3.35-1a11.87,11.87,0,0,0-2.21-1.45,24.78,24.78,0,0,1-8.06-4.55c-1.94-.65-3-2.3-4-3.93-.65-1-1.22-2.11-1.82-3.17l-.47-.79-1.66-.83-1.74.53a9,9,0,0,0-1.36-.42,15.07,15.07,0,0,0-1.7-.12,4,4,0,0,1-1.08-2.57,5.66,5.66,0,0,0-.63-1.55c-.73-.21-1.31-.32-1.86-.54s-1.05-.59-1.59-.84a4.34,4.34,0,0,0-2.56-.73c-.28,0-.57.13-.81.18l-1,1.41-1.69.67c-.3,1.31.16,2.58-.31,3.77-1,.46-2,.12-3,.15s-2.18,0-3.13-.05c-2.22-2-3.66-4.65-6.38-5.4-.81,0-1.31.22-1.42,1a3.37,3.37,0,0,1,2.14,1c1,1.77,1.9,3.26,2.75,4.77a3.56,3.56,0,0,1,.21.93l-1,1.12c-2,.86-3-.48-4.23-.53-1,.79-.9,1.76-.55,2.81l2.57,1.32c.13.65.24,1.14.37,1.74.51.37,1.07.77,1.61,1.14.24.5.47.95.75,1.5a24.77,24.77,0,0,0,0,2.72A19.25,19.25,0,0,0,112.4,175Z"/>
                    <path class="cls-1" d="M163.26,165.32l2.36-.21.56-1.94,1.33-.94c0-.34,0-.65.08-1a8.09,8.09,0,0,1,.19-.84c2.18-1.4,3.9-1.81,5.24-1.1l1,1.13c.24.89-.72,1.34-.14,2,.55.37.93-.14,1.39-.23a10.56,10.56,0,0,1,1.45-.11c.69-.49,1.36-.93,2-1.41.12-.1.13-.34.23-.62l-2.3-1.68-2.27.83c-1-1.42-3-1-4.29-2.39.28-.38.53-.71.76-1s.47-.64-.06-1c-.84,1.29-2.36,1.79-3.21,3.14a36.21,36.21,0,0,1-2.87,3.52l-1.17-.14L161.36,159h-3.64l-3.84-4.74-1.57-3.85a16.18,16.18,0,0,0-4.06-3.37,11.24,11.24,0,0,1-2.57.64,88,88,0,0,1-9.05.05c-1.56-1.42-3.09-2.9-4.7-4.28a15.87,15.87,0,0,0-2.72-1.88c-2-1.09-4.11-2.08-6.37-3.22a18.23,18.23,0,0,0-3.08.34,40,40,0,0,0-4.48,1.63,4.62,4.62,0,0,0-1.07.88c.65,3,1.11,5.95,1.6,8.86a33.28,33.28,0,0,0,1.61,6.24c.82.08,1.53.82,2.6.51-.07-1.1-.86-2.17-.12-3.3,1.24-.71,2.69-1.22,3.47-2.61h3.44c.79.4,1.58.85,2.4,1.2s1.85.65,2.88,1l1.68,3.94H138a5.84,5.84,0,0,1,3.75,3.64A10.81,10.81,0,0,0,145,165c.79.63,1.6,1.22,2.42,1.8A15.84,15.84,0,0,0,151,169c2.61.94,4.95,2.57,7.72,3.13a6.37,6.37,0,0,1,1.51.79l1.13,3c1.24-1,2.16,1,3.55.35.44-1.14.88-2.26,1.31-3.35l-.86-1.09c-.1-.79-.17-1.39-.23-1.83-1-.83-2.23-.93-2.91-1.92-.16-.24-.29-.51-.42-.73C162.18,166.51,162.36,165.65,163.26,165.32Z"/>
                    <path class="cls-1" d="M82.89,187.47c-.24-1,.16-1.92-.31-2.94l-2.89-1.24c-.9-1.36-1.16-3.09-2.35-4.2a7.72,7.72,0,0,1-2-.53,7.56,7.56,0,0,0-5.37-.81l-5,3.85a11.7,11.7,0,0,0,.49,5.26c-.3,1.31-.57,2.5-.82,3.58a9.91,9.91,0,0,1-4.52,3.63c-.73.31-1.47.64-2.17,1a6.36,6.36,0,0,0-1,.84c.75,1.72,1.47,3.39,2.24,5.15l2.05.24a22.9,22.9,0,0,1,6,3.34l6.56,4.85,8,6c1.72.75,3.91.51,6.21.46.35-.73.72-1.45,1-2.2s.56-1.5.77-2.08c1-.73,1.92-.53,2.78-.7.17,0,.31-.22.52-.38,0-.48-.07-1-.11-1.49l-1.62-2c-.06-1.18-.1-2.21-.14-3.05L89,201.25l-4.78-2.63c-.15-.52-.31-1.1-.48-1.71-1.13-1-2.53-1.67-3.34-3.23,0-.89.1-1.91.14-2.7Z"/>
                    <path class="cls-1" d="M104.41,267.08c-.19,0-.36.16-.56.22a13.61,13.61,0,0,0-6,3.81c-1,1.62-1.33,3.34-2.69,4.47-1.72.15-2.53-1.12-3.85-1.76-1,0-2.23,0-3.43,0s-2.41-1.09-4-.43l-1.23.84-3-1.05c-.87,1.25.08,2.25.21,3.32l-1.62,2.05c-.22,1-.4,1.92-.6,2.88.9,2.64,1.82,5.34,2.84,8.3a20.06,20.06,0,0,0,.22,4.39c1.64.15,3.06,1.07,4.93.75a7.84,7.84,0,0,0,1.92-1.55,4.53,4.53,0,0,1,1.93-1.44h1.45a5.38,5.38,0,0,0,4.3-1.79,5.73,5.73,0,0,1,2.66-1.5h2.69a10.75,10.75,0,0,0,2.62-2.86,29.68,29.68,0,0,1,6.85-1.44c1.54-.7,3.06-1.27,4.14-2.76v-3.32l1.14-1.06c1.11-.36,2-.2,2.47-1.32-1.46-3.11-2.94-6.33-4.59-9.41C110.09,266,107.27,266.87,104.41,267.08Z"/>
                    <path class="cls-1" d="M308.85,294c.44,1.07.82,2,1.2,3,.63,1.56,1,3.11.11,4.72a1,1,0,0,0,.25,1.24l.47-1c.17-.37.33-.74.45-1v-8.19l1.46-1.41a11,11,0,0,1,1.92,0,4.11,4.11,0,0,1,1.11.52c.5,1.06.12,2.07.56,2.9,1.39.6,2.82,0,4.33.43l1.21,1.41a3.32,3.32,0,0,0-.47-2.27,4.16,4.16,0,0,1-.54-2.48c.77-1.61,1-3.7,2.83-4.81,1.7-.4,3.52,0,5.26-.65a3,3,0,0,1,2.6.41c.12.07.36-.06.58-.1l.66-1.6v-2.81c-.26-.49-.5-.95-.66-1.27l-1.57-1.21a29.6,29.6,0,0,1-1.32-3.41,10.73,10.73,0,0,0-2.62-5.08,6.23,6.23,0,0,1-.67-1,8,8,0,0,0-3.34-1.45,15.61,15.61,0,0,1-1,1.46c-.46.54-1,1-1.43,1.46-1,0-1.55-1.08-2.61-.91a3.78,3.78,0,0,1-3,2.27l-.64-.61c-.27-1.44-.5-2.64-.74-3.88,1.1-1.79,0-3.47-.25-5.31h-2.63l-.74-.75c0-.71-.06-1.21-.08-1.72a1.72,1.72,0,0,0-1-1.7c-.86.46-2,.31-2.6,1.36-1.23.18-1.32,1.76-2.62,2.13-.73.34-1.8-.28-2.65.38-.29,1.67.11,3.34-.25,4.83l-.89.73c.54.75,1.25,1.34,1.43,2.07a5.62,5.62,0,0,0,1.8,2.77l2,1.93c-.41,1.69,1.44,2.14,1.69,3.8,0,.64-.64,1.38-.68,2.35a11.32,11.32,0,0,1-1,3,30.12,30.12,0,0,0,2.4,3.33,10.86,10.86,0,0,1,2.36,4.18c-.11.37-.19.66-.28.95S309,293.72,308.85,294Z"/>
                    <path class="cls-1" d="M137.66,243.43c-1.61-.26-3.14.4-4.57-.26-1.45-2-2.88-3.95-4.36-6l-.71.25c-.31,1.23.16,2.28.29,3.37-.83,2.06-2.29,3.84-2.53,6.24,1.11,1.23,2.55,2.29,2.8,4.09-.67,3.06-1.33,6-2,9.1a14.52,14.52,0,0,1-1.75,1.18c-2.6,1.27-5.24,2.47-7.85,3.73-.71.34-1.36.79-2.18,1.28l4.49,9.21c2.32-.79,4.4-2,6.68-2.63.63-.89.7-2.17,1.89-2.84l2.7-.25c1.26-.77,1.33-2.17,2.24-3.42.35-.17.95-.5,1.59-.76a3.54,3.54,0,0,0,2-1.33c0-2.25-.57-4.72,1.43-6.64l1.15-.21c2.87-4.38,3.28-5.34,3.38-8.25C140.41,247.81,139.87,244.85,137.66,243.43Z"/>
                    <path class="cls-1" d="M170.24,165c1.87.64,3.84-.58,5.31.45l2.15-.38,2.08,1.36c1.91,0,3.71,0,5.5,0a2.23,2.23,0,0,0,.77-.31l.57-2.45,2.28-1.09c.55-.69,1-1.23,1.39-1.73a6.8,6.8,0,0,1,1.59-.07,14.7,14.7,0,0,1,1.84.61c1.27-.64,1.38-2.11,2.35-3,.9-.21,1.85-.52,2.82-.65a4.06,4.06,0,0,0,2.4-1.13,10.5,10.5,0,0,1,4.15-2.33c0-.4-.08-.69-.12-1.05a17.28,17.28,0,0,1-3-1.26,7.05,7.05,0,0,0-4-1.18,2,2,0,0,1-.88-.07c-1.33-.74-2.75-.39-4.13-.42a8.25,8.25,0,0,0-4.1.51c-.49.24-1.18,0-1.61,0l-4.55-1.84-1,.79c-.05.75-.1,1.45-.15,2.23-.2.22-.41.44-.29.32-2.07.8-3.26,0-4.45-.39a8.14,8.14,0,0,0-3.22-.5c-.38,0-.8.14-.81.72L174.3,154l-1.82,2.22,1.89.95,2.3-.75a22.16,22.16,0,0,0,5.42,3.51c-.06.45-.1.84-.15,1.31a15.68,15.68,0,0,0-4.93,2.59,11.18,11.18,0,0,0-1.9.12,11.89,11.89,0,0,0-1.64.65C171.23,164.46,171.23,164.46,170.24,165Z"/>
                    <path class="cls-1" d="M314.16,254.17l-2.44,1.1-1.62,3c.16.42.43,1,.6,1.55s-.19,1.46.4,2.07l2.11-.48,1.49,1.45c.17,1.73.31,3.15.49,4.93-.39,1.43-.39,1.43.12,3.45l2.35-2.32c1,.08,1.57,1.07,2.54.92l1.48-2c1.77-.62,3.09.27,4.46.75,1.12.77,1.68,2.05,2.56,3a6.64,6.64,0,0,1,1.87,4.87,24.56,24.56,0,0,0,1.5,2.48,28.34,28.34,0,0,0,2.07,2.17v6.3a6.77,6.77,0,0,0,1,.7,3.33,3.33,0,0,0,1,0,4.85,4.85,0,0,1,2.25-2.42,2.8,2.8,0,0,0,2.66.48,2.64,2.64,0,0,0,.16-2.14l-1.7-2c-.05-1-.09-2-.13-2.89a6.16,6.16,0,0,1-1.45-.58,3.69,3.69,0,0,1-1.25-1.3c-.83-1.8-2.34-3-3.5-4.51s-2.38-3-3.61-4.53a21.23,21.23,0,0,0-1.58-1.55,5.46,5.46,0,0,1-3.43-1.71,3.45,3.45,0,0,1,.84-3.33c.73-.35,1.49-.67,1.51-1.84a3.37,3.37,0,0,1-1.48-2.48l-1.43-.76-2.26,1-2.36-1.65c-.65-1.14-1.32-2.28-2-3.43s-1-1.55-2.9-2.83c-.46,1.19.75,2.18.05,3.76Z"/>
                    <path class="cls-1" d="M44.5,185V189c2.31.68,2.31.68,3.54,2.26a8.42,8.42,0,0,1,0,.86,3.87,3.87,0,0,1-.13.59c-3.23,3.68-3.23,3.68-3.35,5.68a13.43,13.43,0,0,1,1.58.68,10.65,10.65,0,0,1,1.24.88,2.83,2.83,0,0,0,2.44-.82c3.28-2.49,6.38-5.26,10.33-6.62a1.66,1.66,0,0,0,.27-.13,5.81,5.81,0,0,0,3.23-3.74v-7.75L65.87,179a4.86,4.86,0,0,0-.88-.24,13.29,13.29,0,0,0-6.16.89,28.74,28.74,0,0,1-3.29,1L53.2,180a7.14,7.14,0,0,1-5.6.22c-.14-.06-.35.09-.53.15.1.38.19.77.29,1.13a19.82,19.82,0,0,1-1.21,1.82C45.65,183.93,45.06,184.46,44.5,185Z"/>
                    <path class="cls-1" d="M333.49,304.28a16.06,16.06,0,0,1,2.5-1c-.2-.61-.39-1.18-.58-1.78l.91-1.6,1.78.28a7.53,7.53,0,0,1,3.76-3.25c.74-2.91-.62-5.63-.64-8.56l-2.63-.9-2,2.62-7.07-2.41c-1.58.71-3.34.18-4.85.6a3.88,3.88,0,0,0-1.53,2c-.29.75-.66,1.47-1,2.15.6,1.31,1.14,2.52,1.72,3.78,0,.87.09,1.78.13,2.45,1,1.54,1.95,2.87,2.74,4.05.16.79.27,1.38.35,1.8l2.78,1.63,1.49-.2A18.69,18.69,0,0,1,333.49,304.28Z"/>
                    <path class="cls-1" d="M192.8,176c-.44-1.23-.8-2.39-1.26-3.51a2.57,2.57,0,0,0-1.87-1.64l-1.81.52-.75-.56c-.28-.79-.54-1.54-.8-2.29a14.72,14.72,0,0,0-3-.71,12.52,12.52,0,0,0-2.79.49,7.16,7.16,0,0,1-3-1.61c-.12-.1-.37-.05-.56-.07-.6.31-.95,1.13-1.77.94l-1.42-1.07a7.32,7.32,0,0,1-4.53.34l-.5-.59v-1.73a3.33,3.33,0,0,1,2.89-1.87c.17-.75.89-1.24.51-2.18l-1-.16L169,161.85c0,.34,0,.74-.16.93-.95,1.07-1.34,2.48-2.15,3.62a3.18,3.18,0,0,1-.64.51c-.84.22-1.68-.18-2.51.43l2.84,1.61.27,2.08,1.06,1a13.18,13.18,0,0,1-.23,1.74c-.27,1-.65,1.93-.91,2.91-.07.24.15.55.27.9l1.05.06,1.58-1.22,2.22.2c.1-.51.2-1,.29-1.48l1.64-.85c.11-.53.21-1,.41-1.92l1.72-1.66,2.19.29,1.37,2,1.39,1c.36,1.44,0,3,1.21,4.24l4.55-2.55C188.38,175.56,190.55,177.07,192.8,176Z"/>
                    <path class="cls-1" d="M395.35,171.32c-3.28-2.37-3.28-2.37-4.53-5.13.23-.77.45-1.54.64-2.19,1.31-1.59,3-2.6,3.87-4.32.31-1-.17-1.65-.38-2.44a6.93,6.93,0,0,1-.12-2.45,17.76,17.76,0,0,1,.54-2.44l-1.28-1.5-.82.22c-.15.46-.3.94-.47,1.51L390.61,155s-.91-.71-1.13.21c.15.44.3.92.49,1.5l-1.35,1.47a16,16,0,0,1-2.4-.47,22.9,22.9,0,0,1-2.48-1.19c-.19.78-.36,1.45-.54,2.23a12.16,12.16,0,0,1-2.38,2.17,8.32,8.32,0,0,0-1.78,1.63,3.31,3.31,0,0,0-.43,1c.22.28.32.51.48.58a20,20,0,0,0,2.16,1,5.86,5.86,0,0,1,3.32,2.22v2.29c0,.71,0,1.42,0,2.14l1.74,1.5a7.27,7.27,0,0,1,4,.54c.15.06.36-.08.6-.14.38-.74.23-1.87,1.72-2.36Z"/>
                    <path class="cls-1" d="M253.45,223.68l-2.22-.21-2.59-1.19-1.7.53c-.67-.31-1.3-.62-1.94-.89s-1.29-.5-1.95-.74a11.05,11.05,0,0,1-4.42-2.87c-.47-.53-.92-1.08-1.32-1.55l-2.1-.1c-1-1.19-2.57-1.68-3.92-2.52s-2.76-2-4.1-2.93c-1.93.52-3,2-4.13,3.42V217a4.46,4.46,0,0,0,2.7,2,12.07,12.07,0,0,1,3.43,1.79,2.92,2.92,0,0,0,1.33.68,6.39,6.39,0,0,1,3.15,1.61,16.16,16.16,0,0,0,1.84,1.07c1.9-1.13,3.91-.56,5.8-.67,1.54.67,3.09,1.08,4.31,2.22a4.05,4.05,0,0,0,1.88,2.16c2.29-.21,4.64.55,7,1.12a1.3,1.3,0,0,0,.15-1.54,14.82,14.82,0,0,1-.77-1.67C253.65,225.13,253.59,224.43,253.45,223.68Z"/>
                    <path class="cls-1" d="M274.29,244.87c-.5.86-.81,2-2.17,1.59a6.24,6.24,0,0,1-2.26-3v-2.16c1.05-1.69,2.73-2.61,3.64-4.36a21.72,21.72,0,0,0-7.85-1.06l-2.16-.83c-.41-.77-.84-1.57-1.25-2.32l-3.56-2.34c-.43.41-1,.58-.91,1.22a1.76,1.76,0,0,0,.26.55c.45.41.93.79,1.39,1.18a9.4,9.4,0,0,1,1.13,1,2.74,2.74,0,0,1,.27.9l-1.25,1.89v1.2c.37.84.79,1.76,1,2.3-.18,1.2-.3,2-.34,2.29l3.16,7.75a11.25,11.25,0,0,1,4.65-1.07l2.12-1.73,1.89-.53c1.95,1.37,1.88,4,3.6,5.42l.77-.36c0-.78-.07-1.5-.09-1.92Z"/>
                    <path class="cls-1" d="M320.64,338.62l6.72-3.32a18.79,18.79,0,0,1-.16-4,17.06,17.06,0,0,0-4.47-5.48l-3.35,1.47-1.34-.64c-.67-1-1.22-1.83-1.84-2.63a.89.89,0,0,0-1.26-.32c.67,1.49,1.33,3,2,4.46a2.86,2.86,0,0,1,.16.52c.19,1.06.43,2.12.56,3.19a4.78,4.78,0,0,0,1.27,3,4.44,4.44,0,0,1,1.25,2.4A6.78,6.78,0,0,0,320.64,338.62Z"/>
                    <path class="cls-1" d="M399.19,174.69a5.31,5.31,0,0,0-2.25-1.95c-1.43,0-2.63,0-3.82,0-.17,0-.33.2-.55.34v1.54c.66,1.05,1.58,2,1.73,3.45-.22.55-.45,1.1-.57,1.41l2.26,4.24c.08.9.13,1.51.18,2.15.7,1.29,1,2.81,2.06,3.92a7.85,7.85,0,0,0,1.95-.77,5,5,0,0,1,2.46-1,6.74,6.74,0,0,0,2-.62,6.65,6.65,0,0,0,1.19-.9c-.42-3-1.91-5.43-3.26-7.94A36.45,36.45,0,0,1,399.19,174.69Z"/>
                    <path class="cls-1" d="M56.46,202.36a4.71,4.71,0,0,0,1.25-.82,24.07,24.07,0,0,0-2.34-4.78c-1.27.94-2.44,1.88-3.68,2.71s-2.27,2-3.84,2.25l-3.35-1.66c0,1.29,0,2.42-.06,3.53s-.49,2.19-.55,3.29a21,21,0,0,1-.92,4.8,5.39,5.39,0,0,0-.29,1.48,1.71,1.71,0,0,0,.36,1.58h3.32l1.89-2.23,1.92-.26,1.41-1.46v-2.11c-.4-1.07-1.41-1.57-1.15-2.72a3.88,3.88,0,0,1,2-1.75A26.72,26.72,0,0,1,56.46,202.36Z"/>
                    <path class="cls-1" d="M91.13,170.7l1.43-2.36v-4.09L94.11,163c-2.53-1.35-3.16-4.32-5-6.21a11.86,11.86,0,0,1-4,2.17,6.9,6.9,0,0,1-1-1,6.49,6.49,0,0,0-2.39-1.81c-.23-.11-.36-.12-.47.19.15.45.3.93.45,1.38-.21.7-.33,1.43-1.18,1.78-.81-.39-1.69-.8-3-1.42a15,15,0,0,0,3.13,5.09,30.45,30.45,0,0,1,2.35,3.16c.24.35.41.68,1,.76l3.81-2.46a5.36,5.36,0,0,1,2.39,2.28v2.87Z"/>
                    <path class="cls-1" d="M62.67,155.82c1.2.69,1.26.79,2,.44a4.34,4.34,0,0,1,2.88-.3L70,157.61h4.65l.94-1.09H78.1l1.82,1.12c-.34-1-.57-1.64-.82-2.33a10.54,10.54,0,0,1-1.48-1,9.58,9.58,0,0,1-1-1.33L73,151.52l-3.31.68c-1.27-.85-2.51-1.68-3.77-2.54-.66,0-1.36,0-2.05,0s-1.6-.11-2.4,0-1.15-.94-1.92-.33c.77.93,1.55,1.84,2.3,2.78C62.69,153.18,62.33,154.64,62.67,155.82Z"/>
                    <path class="cls-1" d="M127.89,234.65c-.21-.45-.47-1-.74-1.54,0,0-.14,0-.39,0a25.09,25.09,0,0,1-4.85,7l-2.86,1.37c-1.14.05-2.24.12-3.34.15s-2.16,0-3.4,0a7.07,7.07,0,0,0,2.93,3.58,12.46,12.46,0,0,1,5.48,1.26,9,9,0,0,0,1.69.61,2,2,0,0,0,1.81-.19,13.84,13.84,0,0,1,2.59-5.93,10.35,10.35,0,0,0-.09-1.34c-.14-.69-.35-1.38-.57-2.23a11.51,11.51,0,0,1,.91-1.41C127.38,235.58,127.92,235.4,127.89,234.65Z"/>
                    <path class="cls-1" d="M307.53,315.45l.28.6c2.74,1.25,3.69,3.84,5.71,5.75,2.84-.17,4.29,1.79,5.54,3.78a1.44,1.44,0,0,0,1.6-.82l-2.2-2.67-2-.49a5.22,5.22,0,0,1-.66-.75,5,5,0,0,1-.78-1.45c-.63-2.56-2.29-4.76-2.78-7.48l-1.77.46-.8-.65c-.07-.32-.11-.59-.19-.85a7.39,7.39,0,0,1,0-5.3.86.86,0,0,0-.26-1.18l-1.55,2.67.55,1.62c-.46,2.09-1.23,4-.95,6.06Z"/>
                    <path class="cls-1" d="M417.7,113.49a10,10,0,0,0-3.67-4,15.33,15.33,0,0,1-1.5-2.18,6.88,6.88,0,0,0-4.1-3.69,14.77,14.77,0,0,0-3.16-3.55c-.07.53-.12.91-.17,1.38,1.23,1.72,2.44,3.46,3.71,5.16a7.36,7.36,0,0,0,2.42,2.25,7.47,7.47,0,0,1,2.87,3.07,80.12,80.12,0,0,0,4.84,7,7.69,7.69,0,0,1,1.3,2.37,3.55,3.55,0,0,0,1.72,2.42c.36.17.61.61,1.07,1.11.23-1.69-1.28-3.09-.25-4.63l1.34-.44s0-.15.06-.34c-1.15-1.09-2.85-1.32-4.19-2.47A32.28,32.28,0,0,1,417.7,113.49Z"/>
                    <path class="cls-1" d="M134.29,34.09c.29,1.43,1.19,2.54.83,4.25-.45.6-1,1.42-1.68,2.19s-1.13,1.16-1.65,1.79c-.15.18-.13.53-.21,1l3,.29,3.22-1.82c.35-1.34,1.34-2.51.94-4.19l-1.79-2a9.19,9.19,0,0,1,0-1.17,13.21,13.21,0,0,1,.36-1.4c-1.5-.1-2.95,0-4-1.13-.53-.74-1-1.5-1.6-2.21-.14-.19-.44-.24-.69-.34a3.47,3.47,0,0,0,.67,2.58Z"/>
                    <path class="cls-1" d="M131,29.28s0-.05,0-.08h-.05v.06Z"/>
                    <path class="cls-1" d="M265.55,222.86c-.71-.45-1.29-.83-1.78-1.16a4.18,4.18,0,0,0-2.32.12l-2.34,2.53v1.24c.75,1.28,2.1,1.14,2.89,1.6h3.61a23,23,0,0,0,4.37-2.74l-2.78-1.9Z"/>
                    <path class="cls-1" d="M75.85,164.93l4.28.74a46.67,46.67,0,0,1-4.28-6.77c-1.61.39-3.2-.2-4.93.3-.08,1.26.59,2.23.62,3.33l2.73,1.05Z"/>
                    <path class="cls-1" d="M94.19,212.53H91.31c-.6,1-1.34,1.89-1.16,3.26l1.91.44c1.07.62,1,1.88,2.06,2.05.4-.65,0-1.18-.16-1.75a6.58,6.58,0,0,1-.23-1.08c.36-.85.67-1.58,1-2.27Z"/>
                    <path class="cls-1" d="M40.76,202.53c-.16.07-.37.14-.37.23a10.86,10.86,0,0,1-.88,4c.36,1.09.62,2.07,1,3,.18.41.56.88,1.24.5.24-1,.49-2.06.73-3.08l-1.74-1.42Z"/>
                    <path class="cls-1" d="M423.92,125.94c-.07.47-.23.8-.13,1a10.45,10.45,0,0,0,1.11,1.81,14.51,14.51,0,0,1,2.6,4.41c.11.35.5.62.81.86.1.08.35,0,.53-.07-.07-.37-.14-.75-.24-1.26l1-.95C427.09,130.39,425.7,128.1,423.92,125.94Z"/>
                    <path class="cls-1" d="M109.16,236.31c.35-1.58-.38-2.72-.77-4l-.85.37a22,22,0,0,0,.07,4.81l.79.19Z"/>
                    <path class="cls-1" d="M42.78,195.32c-.09.17,0,.46.12.92.56-.61,1-1,1.35-1.48s.77-1.17,1.21-1.68A15.18,15.18,0,0,1,47,191.71c-.82-.45-1.24-.7-1.68-.91a2.09,2.09,0,0,0-.57-.05c-.65.52-.3,1.32-.47,1.81C43.74,193.57,43.23,194.43,42.78,195.32Z"/>
                    <path class="cls-1" d="M41.77,201.06a17.42,17.42,0,0,0,1.36-1.4,2.46,2.46,0,0,0-.23-1.92l-.67-.07c-.1.58-.2,1.17-.3,1.74-.39.61-.77,1.2-1.09,1.68v1.23C41.48,202.17,41.36,201.42,41.77,201.06Z"/>
                    <path class="cls-1" d="M40.84,202.32s0,.07-.08.07v.14l.08-.06Z"/>
                    <path class="cls-1" d="M130.94,29.19V27l-2.76-2.55c0,.34-.16.61-.08.7a23.44,23.44,0,0,1,2.61,4C130.73,29.19,130.85,29.18,130.94,29.19Z"/>
                    <path class="cls-1" d="M190.84,177.86l-4.4-.71-.95.81A10.56,10.56,0,0,0,190.84,177.86Z"/>
                    <path class="cls-1" d="M105.44,233.39c.24-.47.47-.9.77-1.5a6.11,6.11,0,0,1-.87-.55,8.23,8.23,0,0,1-.75-1.06c0,.94,0,1.43,0,1.92a3,3,0,0,0,.17.63Z"/>
                    <path class="cls-1" d="M43,202.18c-.45,1-.74,1.58-1,2.26l1,.6Z"/>
                    <path class="cls-1" d="M439,59.69l-.88.89c.52.42.79,1.11,1.64.68Z"/>
                    <path class="cls-1" d="M195.6,253.22a1.94,1.94,0,0,0,0-2.22A1.92,1.92,0,0,0,195.6,253.22Z"/>
                    <path class="cls-1" d="M386.44,355.07c.69-1,1.31-1.95,1.67-2.47,1-.82,2-.06,2.5-1.07-.81-1.24-1.63-2.5-2.37-3.62v-2.13c-.38-.77-.8-1.58-1.25-2.49a17.37,17.37,0,0,0-.8-5.91l-2-.7h-3.73l-.58.66c-.08,2.22-.15,4.41-1.89,5.82,0,2.53-1.81,4.22-2.09,6.47a35.13,35.13,0,0,1-5.36,1.89c-.73-.28-1.37-.56-2-.76s-1.43-.8-2.54-.28l-2.37,2.33c-1.85-.62-3.72.49-5.55.47-1.17-1.07-2.21-2-3.28-2.95-.2-.16-.55-.13-1.13-.25-.23.3-.55.69-.9,1.12a10.7,10.7,0,0,0,0,2.78,27.51,27.51,0,0,1,.64,5.48,9.44,9.44,0,0,0,.58,2c.06.17.26.29.38.43l1.13.27c.28.51.52,1,.72,1.34.07,1,.14,1.93.21,2.83l1,2.28c.06.69.13,1.41.2,2.13.14.14.26.35.43.4a4.66,4.66,0,0,0,1.18.15c1.2,0,2.39,0,3.59,0,.16,0,.33.19.5.3l.49,1.38c1.75.54,2.83-.48,3.88-1.68h2.07l1.36,1.65,2.17-.38a4.55,4.55,0,0,1,.82.69c.47.75.89,1.53,1.4,2.4a10.61,10.61,0,0,0,4.71-2.33c0-.91.09-1.83.13-2.64.45-.93.86-1.75,1.21-2.47a19.32,19.32,0,0,1,.07-4.59,8.91,8.91,0,0,1,3.56-3c.43-.18.74-.64,1.16-1Z"/>
                    <path class="cls-1" d="M392.28,331.76s0-.19,0-.43l-3.41-2.16-2.12-.14c-1.13-1.37-1.27-3.5-3.23-4.21-.4.55-.86,1.1-1.24,1.69-1,1.55-2,3.08-2.87,4.69a5.11,5.11,0,0,1-1.74,1.88,8,8,0,0,1,.37,1.23,8.29,8.29,0,0,1-.07,1.28l-2.85,2.18a11.26,11.26,0,0,1-1.22-.26c-.47-.14-.92-.33-1.3-.48-2.22,1.25-2.11,4.07-3.76,5.42l-6.17,1.77c-1.28,1.67-.78,4.19-2.34,5.8-1.11,0-2.09-.92-3.32-.22l1.54,2c1.57-.74,3.23-.09,4.81-.52l1.71-2.26h3.33l2.07.94,4.34-1.34a20.91,20.91,0,0,1,.5-2,18.38,18.38,0,0,1,.89-1.83q.1-1.06.18-1.8l1.54-1.88c.3-1.56.57-3,.87-4.47l1.36-1.21h5.18l2,1a18.7,18.7,0,0,0,2.47-1.47,1.57,1.57,0,0,1,0-1.93C390.52,332.63,391.4,332.2,392.28,331.76Z"/>
                    <path class="cls-1" d="M373.88,335c-.11.88.34,1,1.05,1.05l1.87-1.71-1-.37Z"/>
                    <path class="cls-1" d="M396.65,357.32c0,1.55,0,3.1,0,4.67l-1.75,3.1v3.23l-1.77,2.85c0,.62-.17,1.26.28,1.79l1.66.59c.36,1,.69,2,1,2.89a26.23,26.23,0,0,0,0,3.44c.18,1.24-1,2.29-.49,3.51l.82.25.53-.5c.53-2.73,1-5,1.44-7.47-.32-.93-.73-2-1-3.05a2.19,2.19,0,0,1,.14-2,4.38,4.38,0,0,1,2.51-1.15,2.78,2.78,0,0,1,.94.21l1,1.92c.09,1.16.16,2.08.22,2.88l1,1.56c0,1.14.09,2.16.15,3.3.69-.39,1.19-.69,1.71-1a11.93,11.93,0,0,0,1.33-.69c.45-.33,1.23.15,1.44-.61-.7-1-1.39-2-2-2.91.18-.46.29-.75.46-1.17l-3.08-5.81c.08-.42.15-.82.23-1.29a8.33,8.33,0,0,0,4.06-3.22c-.5-.09-1-.13-1.43-.25s-1.12-.37-1.67-.55c-1,.69-1.23,2.3-2.66,2.34a7.46,7.46,0,0,1-3.49-2.9,11.42,11.42,0,0,1-1-4.88A.8.8,0,0,0,396.65,357.32Z"/>
                    <path class="cls-1" d="M397.22,356.47s0,0,.07,0,0-.1,0-.17-.08.08-.13.09S397.22,356.43,397.22,356.47Z"/>
                    <path class="cls-1" d="M416.51,351.91c0-.26-.09-.64-.17-1.19a6.92,6.92,0,0,1-3.91,2.56c-.92-.15-2.17-.43-3.44-.54s-2.79-.09-3.85-.12l-3-1.25a7.52,7.52,0,0,1-3.66,2.74c-.48.65-1.2,1.18-1.17,2.15.85-.23,1.14-1.25,2.31-1.67.49,0,1.39-.06,2.28-.13a10.31,10.31,0,0,0,1.76-.2,7.91,7.91,0,0,1,4.67.08,31.73,31.73,0,0,0,3.9.83C413.94,354.3,415.59,353.74,416.51,351.91Z"/>
                    <path class="cls-1" d="M303.41,369.31a6.52,6.52,0,0,1-3.73-4.17c-.31-.86-.59-1.74-.92-2.6-.06-.17-.25-.29-.37-.43l-1.77-.22-.83-1.21c.21-1.46,1-2.68.36-4.26a10.87,10.87,0,0,1-2.85-3.53c-2.6-1.16-5-2.47-6.29-5.15l-2.32-.18L282.43,346a26.83,26.83,0,0,0-7.27-8.15,8.19,8.19,0,0,1-2.79-3.18,3.86,3.86,0,0,0-2.73-2.24,14.77,14.77,0,0,0-4.08-.8,16,16,0,0,1-2.71-.31c0,.35-.09.74-.15,1.26.86.84,1.75,1.67,2.58,2.55s1.74,2,2.92,3.33a12.53,12.53,0,0,1,3.14,3c.57,1.41,1,2.54,1.48,3.63l1.83.4a7.78,7.78,0,0,1,2.52,3.78,59.3,59.3,0,0,1,1.93,6.29c1.49,1,1.51,1,2.35,2.81a3.2,3.2,0,0,0,.51.75,19,19,0,0,1,3.52,6.72,6.48,6.48,0,0,0,2.53,3.69,3.61,3.61,0,0,1,.76.91c.9,1.23,1.86,2.43,2.68,3.71a16,16,0,0,0,4.34,4.64,8.44,8.44,0,0,1,2.47,2.64,30.53,30.53,0,0,0,2,2.7c.11.14.36.15.71.29l2-1.21,1.17.39c0-2.11.79-4,.63-6.13a25.72,25.72,0,0,1,0-3.4,13.39,13.39,0,0,1,.38-1.91c-.26-.72-.56-1.58-.85-2.4C304,369.56,303.69,369.42,303.41,369.31Z"/>
                    <path class="cls-1" d="M329.19,397.19a19.3,19.3,0,0,0,4.75-.07,5.59,5.59,0,0,1,4,.23,10.11,10.11,0,0,0,2,.52l1.49-.82-1.63-.63-1.6-1.53a8.65,8.65,0,0,1-4.1-1.12c-.12-.46-.26-1-.42-1.61a10.23,10.23,0,0,0,1.37-.86c.39-.34,1.13.23,1.37-.73a11,11,0,0,0-2.71.21,6,6,0,0,1-3.79,0,16.11,16.11,0,0,1-4.23-1.62L323.86,391c-2.62.48-4.91-.49-7.33-.49-.73-.74-1.44-1.45-2.16-2.16a1.49,1.49,0,0,0-.56-.19A10.76,10.76,0,0,1,308.3,387a1.47,1.47,0,0,0-1.45,0,5.37,5.37,0,0,0-1.12,2.87,3.57,3.57,0,0,1,3.63,1.63,2.57,2.57,0,0,0,1.6.72c.69.12,1.34.34,2,.52a13.49,13.49,0,0,0,4.68.78,13.76,13.76,0,0,1,2.19.08l6.7,3C327.24,396.9,328.29,396.58,329.19,397.19Z"/>
                    <path class="cls-1" d="M393.87,286.22l1.84.15c1.05.51,1.45,1.48,2.06,2.38l1.78-.1c-1.46-3.19-2.35-6.27-.87-9.62l1.48-1.75c.06-.81.11-1.53.16-2.21l-1.12-2.2c-.28-1.08.18-2.35-.69-3l-4.09-1.39-1.29.65c.69,2.44.79,5.12.42,10l-1.41.88c-.66,1.6.11,2.92.53,4.24A9.4,9.4,0,0,0,393.87,286.22Z"/>
                    <path class="cls-1" d="M407.86,290.24l-3.4-1.45c-.9,0-1.76-.2-2.19.84l1.33,1,5.2,1.91c-.27-.79-.38-1.16-.53-1.51S407.92,290.36,407.86,290.24Z"/>
                    <path class="cls-1" d="M418.72,328.36c.55-2-.24-4,.53-6.22l0,0c1.08-.68,1.91-.08,2.41-.77.53-1-.21-1.8-.36-2.66a31.47,31.47,0,0,0-2.08-6.35c-.08-.2-.45-.27-.68-.39-.32.69-.6,1.32-.85,1.85l-1.68.61c-.65,1.81-1.48,3.28-3.18,4-1.12-.49-1.65-1.77-3-2.2a10.13,10.13,0,0,1-1.37,1.55,14.46,14.46,0,0,1-2.09,1.14c-.25.8-1.1,1.49-.54,2.52.7-.77.91-2,2.31-2.18l1.51,1,2.13-.43,1.64,1.47V324l1.94,3.26c.71.37,1.4.79,2.13,1.09A3.51,3.51,0,0,0,418.72,328.36Z"/>
                    <path class="cls-1" d="M413,298c.46.49,1,.9,1.43,1.42a18.43,18.43,0,0,1,1.2,1.84,4.9,4.9,0,0,0-.72-3.12l-1.72-.56C413.11,297.73,412.94,298,413,298Z"/>
                    <path class="cls-1" d="M234.38,314.19a4,4,0,0,0-1.56-1.61c-.45,1-.88,1.86-1.36,2.9-.06.76-.1,1.68-.21,2.59a5.58,5.58,0,0,1-.52,1.17c1.06,1.42.39,3.18,1.08,4.74s.71,3.12,1.81,4.45c1.94-.82,3.77-1.58,4.9-3.51a8.81,8.81,0,0,0-1.29-6.09C236.26,317.3,235.31,315.74,234.38,314.19Z"/>
                    <path class="cls-1" d="M422.33,398.17a6.43,6.43,0,0,0-3.11-.08c-1.78,1.78-1.78,1.78-2,3.15l5.1-2.4C422.35,398.66,422.34,398.47,422.33,398.17Z"/>
                    <path class="cls-1" d="M410.71,405.87A5.74,5.74,0,0,0,414,403c-.59,0-1,0-1.34,0s-.94.12-1.34.17C411,404.11,410.17,404.79,410.71,405.87Z"/>
                    <path class="cls-1" d="M384.1,400.29a11.53,11.53,0,0,0,1.37.1,4.43,4.43,0,0,0,.82-.18c0-.25.06-.44.08-.65a2,2,0,0,0-2.18-.17C384.17,399.63,384.15,399.82,384.1,400.29Z"/>
                    <path class="cls-1" d="M386.85,237.45l-2.65,1.94c0,3.27-1.55,6.33-2.76,9.35,1.05,2.1,2,4.06,2.79,5.54l2.71,2.85,1.67-1.25c.14-1.34-.15-2.64.46-3.59,1.72-2.66,1-5.48,1.29-7.83l2.25-5.39C391.3,237.21,389.38,237,386.85,237.45Z"/>
                    <path class="cls-1" d="M429.39,353c.36.23.69.28,1-.52-.34-.37-.62-.67-.9-1A1.27,1.27,0,0,0,429.39,353Z"/>
                    <path class="cls-1" d="M351.47,261.79c-1.22-.63-2.52-.21-3.52-.31a3.8,3.8,0,0,0-2.89,3.09c.52,1.14.9,2.33,2.19,3.08l2.53-.22A10.46,10.46,0,0,0,351.47,261.79Z"/>
                    <path class="cls-1" d="M408.25,310.51c1-2,2.11-3.82,2.15-6.27l-2.21,1.67c-.4,1.29-.8,2.52-1.22,3.87Z"/>
                    <path class="cls-1" d="M398.19,296.65c.16,0,.28,0,.35,0s.26-.25.4-.38c-.27-1.61-.44-2.07-1-2.71a2.76,2.76,0,0,0-1.9-.86C396.66,294.23,397.07,295.66,398.19,296.65Z"/>
                    <path class="cls-1" d="M404.81,304.78l1-1.3-1.14-1.14c-.22.87-.38,1.53-.57,2.28Z"/>
                    <path class="cls-1" d="M423.94,373.47v.7a3.35,3.35,0,0,0,3.11-.29,11.48,11.48,0,0,0-1.42-.18C425.06,373.7,424.64,372.93,423.94,373.47Z"/>
                    <path class="cls-1" d="M32.94,189.11c.59-.36,1.48-.41,1.66-1.34-.66-.31-1,.21-1.47.31s-1.14.19-1.68.28c-.07.29-.11.48-.16.66C32.49,189.32,32.52,189.38,32.94,189.11Z"/>
                </g>
            </g>
        </g>
    </g>
</svg>