<svg xmlns="http://www.w3.org/2000/svg" viewBox="0 0 502 369.47">
    <defs>
        <style>.cls-1{fill:#221714;}</style>
    </defs>
    <g id="圖層_2" data-name="圖層 2">
        <g id="event">
            <g id="map_eu">
                <path class="sw_path" d="M265.26,108.51l-.17.13h0a21.5,21.5,0,0,0-1.92,1.69l-.86.8a1,1,0,0,0-.32.74v5.47l-.74.41-5.3,2.93a1,1,0,0,0-.43,1.28,39.38,39.38,0,0,0,7.5,11.37,33.25,33.25,0,0,1,6.11,9.27,3.27,3.27,0,0,1,.15.74c0,.21.06.45.11.73l-1.29,5a1,1,0,0,0,.13.79l4.07,6.31a1,1,0,0,0,.68.44,22.17,22.17,0,0,0,3.62.39,8.56,8.56,0,0,0,3.37-.63,1,1,0,0,0,.58-.72l.85-4.19.55-.34a5.9,5.9,0,0,1,1.79-.9c2-.41,4.08-.7,6.26-1l2.81-.4a1,1,0,0,0,.76-.57,30.51,30.51,0,0,0,2-6.75,40.68,40.68,0,0,1,1.39-5.37,20.61,20.61,0,0,0,.91-7.06,21.37,21.37,0,0,1,.51-5.32,32.11,32.11,0,0,1,4-1.77c2.81-1.11,5.71-2.25,7.83-5a.82.82,0,0,0,.12-.2l2.93-6.32a1,1,0,0,0,0-.78c-1.34-3.42-4.05-4.86-6.67-6.26a19.21,19.21,0,0,1-3.68-2.32c-.69-2-1.34-3.92-2-5.7V84.54l2.4-4.41,3.06-1.61c2.35-1.22,4.56-2.38,6.8-3.62l.63-.35c3.06-1.69,6.21-3.44,9.2-5.37a56.85,56.85,0,0,0,5-3.77L329.83,64a1.62,1.62,0,0,0,.54-.94l0-.12a1,1,0,0,0,0-.58l-.06-.27c-.32-1.36-.64-2.7-.92-3.91C332.12,54,336,52,339.74,50.25a8.13,8.13,0,0,1,2.79-.06,7.38,7.38,0,0,0,4.74-.67,1,1,0,0,0,.45-1.18c-.18-.52-.37-1-.56-1.53a17,17,0,0,1-.93-3.05,18.07,18.07,0,0,1-.07-3.28c0-.45,0-.88,0-1.27a.9.9,0,0,0-.07-.37c-1.65-4.11-3.17-7.89-4.67-11.65a1,1,0,0,0-.57-.55c-.44-.18-.87-.39-1.29-.59a8,8,0,0,0-3.13-1c-2.48-.06-4.52-1.27-6.71-2.57-.86-.51-1.73-1.09-2.56-1.65s-1.45-1-2.18-1.43a3.1,3.1,0,0,0-1.32-.38c-.12,0-.25,0-.36-.06a1.1,1.1,0,0,0-.25,0,3.06,3.06,0,0,0-2.93,2.2A8.38,8.38,0,0,1,319,23q-.12.18-.24.33h-2.21c-3.07,0-6,0-8.89,0a2.85,2.85,0,0,0-1.35.45L306,24a1,1,0,0,0-.38.3,5.23,5.23,0,0,0-.85,2.14c-.26,1.16-.46,2-1.86,2.49l-5.86.54a1,1,0,0,0-.65.33l-1.42,1.59a1,1,0,0,0-.24.59l-.32,4.62c-2.94,1.52-4.74,4.12-6.49,6.64l-.28.41c-1.44,2.08-1.44,2.08-4.77,3.39l-.83.33a1,1,0,0,0-.63,1l.52,5.39-5.11,6.55a1,1,0,0,0-.16.95l1.24,3.5L277,66.48a10.94,10.94,0,0,1-5.43,2.11,20.93,20.93,0,0,0-2.42.57.75.75,0,0,0-.25.13c-3.28,2.24-5.39,5.06-7.06,9.42a1,1,0,0,0,0,.77l3,6.74-.81,3.63a1,1,0,0,0,.36,1l3.19,2.49c.64,2.15-.32,3.42-1.53,5-.17.23-.35.46-.52.7a1,1,0,0,0-.12,1l2.16,5.4C266.7,107.41,266.62,107.47,265.26,108.51Z"/>
                <path class="gm_path" d="M256.92,243.58a.75.75,0,0,0,.21,0,1,1,0,0,0,.54-.16l4.43-2.88,6.69-.46a1,1,0,0,0,.74-.4,1,1,0,0,0,.17-.83l-1-3.94c.65-1.39,1.92-2,3.38-2.65.52-.24,1-.47,1.51-.74l.18-.1a3.87,3.87,0,0,0,2.47-3.62,1,1,0,0,0-.51-.9l-8.2-4.62-3.1-9.62a1.74,1.74,0,0,1,.11-.18,2.85,2.85,0,0,1,.78-1c4.33-2.1,8.79-4.14,13.1-6.11l2.81-1.29h.23l2.26.65a1,1,0,0,0,1-.29l1.3-1.42a1,1,0,0,0,.13-1.18L284,198.16c-.39-7-1.08-9.58-3.94-14.28.37-2,.74-4,1.08-5.79a1,1,0,0,0-.18-.78l-6-8.09a1.05,1.05,0,0,0-.34-.29l-4.73-2.44a1,1,0,0,0-.86,0l-13.29,5.93-4.2-3.64a1.08,1.08,0,0,0-.44-.22c-2.5-.56-4.49-1.34-6-3.32-1.06-1.37-3-2-4.54-2.48l-.21-.07A3.55,3.55,0,0,0,238,163c-.23.08-.44.17-.65.22a1,1,0,0,0-.74,1v6.47l-4.54,6.43-.45-.05a3.93,3.93,0,0,1-1.44-.3,7.28,7.28,0,0,0-4.65-1.1,4.61,4.61,0,0,0-1.62.63c-.16.08-.31.17-.47.24a1,1,0,0,0-.57,1.06l.8,5.13-3.38,3.12a1,1,0,0,0-.31.87,10.2,10.2,0,0,0,.39,1.54,4.33,4.33,0,0,1-.61,4.58c-.51.7-2.42,1.32-4.27,1.91l-1.86.62a1,1,0,0,0-.5,1.51c1.26,1.87,1.1,4,.93,6.23a14.05,14.05,0,0,0,.49,6.23,41.19,41.19,0,0,1,1.92,8.39c.19,1.22.38,2.38.6,3.51a1,1,0,0,0,.34.56c2.41,2,5.06,2.63,7.63,3.2a28.64,28.64,0,0,1,4.26,1.2,16.73,16.73,0,0,1-1.75,5.89,16.93,16.93,0,0,0-1.86,6.69,1,1,0,0,0,.35.77c2.24,1.91,4.39,1,6.11.29a6.53,6.53,0,0,1,3.45-.76c3.13,1.74,7,2.77,11.32,3.84a.92.92,0,0,0,.57,0c3.28-1.17,3.28-1.17,5.77-.16l.17.07a11.94,11.94,0,0,0,2.49.62Z"/>
                <path class="nw_path" d="M213,122.24a1,1,0,0,0,.43.79l6.32,4.39a1,1,0,0,0,.44.17,21.81,21.81,0,0,0,2.65.17c5.11,0,9.82-2,14.63-6.14,3.09-2.66,6-4.27,8.69-4.77a1.05,1.05,0,0,0,.47-.21,7.33,7.33,0,0,0,1.84-2.68c.49-1,.74-1.48,1.33-1.62a12,12,0,0,1,3.41,3.73c.51.75,1.05,1.52,1.67,2.27a1,1,0,0,0,.82.36,1,1,0,0,0,.78-.45c.24-.36.59-.45,1.38-.56a3.47,3.47,0,0,0,3-1.9,1,1,0,0,0,.06-.69l-.79-2.95a10.4,10.4,0,0,1,3-3.77,19.73,19.73,0,0,0,2.31-2.42,1,1,0,0,0,.15-.92L264,100.2l1.62-4.45a1,1,0,0,0-.17-1l-2.7-3.22V85a1,1,0,0,0-.08-.38L260,78.14l4.67-7.63a12.71,12.71,0,0,1,5.78-3,15.88,15.88,0,0,0,4.66-2.08,1,1,0,0,0,.34-1.19L274,60.67l5.51-5.82a1,1,0,0,0,.27-.69V48.08a5.58,5.58,0,0,1,4.48-3.72l.68-.2a.93.93,0,0,0,.48-.32l6.77-8.32a1,1,0,0,0,.21-.53l.38-3.6c1.58-1.92,3.62-2.61,5.77-3.34a15.69,15.69,0,0,0,4.62-2.16,1,1,0,0,0,.35-.52c.62-2.1,2-3.3,4.72-4.07A15.37,15.37,0,0,0,317,22a1,1,0,0,0,.7-.46l2.45-3.87.46-.74,3.86-.49a.93.93,0,0,0,.46-.18l3.33-2.44h2.9l8.08,5.72a1,1,0,0,0,.81.15l5.66-1.35,1.13.53c1.29.62,2.51,1.2,3.79,1.75a3.09,3.09,0,0,0,1.45.14q.31,0,.75,0a1,1,0,0,0,.64-.24l3.41-2.85a1,1,0,0,0,.35-.63l.7-4.83a11.25,11.25,0,0,1,4.84-4.3l3.27.86a1,1,0,0,0,.42,0l5-.84,2.48,1c1.73.67,3.22,1.25,4.67,1.87s2.9,1.32,4.42,2l2,.93a.92.92,0,0,0,.59.08l3.56-.6a1,1,0,0,0,.65-.41,1,1,0,0,0,.17-.75c-.23-1.35-.4-2.38-.58-3.38A3.4,3.4,0,0,1,390,8a3.34,3.34,0,0,0,1.32-3.38,1,1,0,0,0-.55-.7l-.37-.2a4.42,4.42,0,0,0-1.57-.64c-1.19-.16-2.38-.28-3.56-.4a54.24,54.24,0,0,1-6.76-1,18.2,18.2,0,0,0-11.18.55L364.86.35a1,1,0,0,0-.9-.16l-.57.17L362,.77,360,1.46l-.39.13C355.54-.2,351.36-.06,347.32.07c-1.69.06-3.28.11-4.86,0a1.27,1.27,0,0,0-.47.09l-4.25,2a.9.9,0,0,0-.32.23l-4.26,4.67c-1.5.38-3,.65-4.42.9a36,36,0,0,0-7.33,1.85,7.43,7.43,0,0,1-7.21-.54,5.36,5.36,0,0,0-2.7-.61,10.36,10.36,0,0,1-1.11-.08,1,1,0,0,0-1,.48L307.1,12.9l-5.24,3a1,1,0,0,0-.42.48c-1.92,4.61-5.71,7-11.9,7.54a1,1,0,0,0-.9.79c-.76,3.75-3.33,6.2-5.74,8.09a1,1,0,0,0-.34.49l-.95,3.08a9.93,9.93,0,0,1-5.08,3,21.05,21.05,0,0,0-2.49.94,1,1,0,0,0-.42.37c-.27.42-.53.87-.79,1.31a16.78,16.78,0,0,1-1.82,2.7,23,23,0,0,1-2.75,2.44c-.39.31-.77.61-1.11.9a1.1,1.1,0,0,0-.29.42l-2.2,6.08-6,4.35a1,1,0,0,0-.32.39l-1.34,3-5.48,2.94a1.37,1.37,0,0,0-.23.17l-7.9,7.78a22.25,22.25,0,0,0-12.08,2.59A.89.89,0,0,0,231,76l-1.76,2.47-.72.23a10.11,10.11,0,0,0-2.42,1,49.85,49.85,0,0,1-11.86,5.51c-1.65.51-4.42,1.36-5.84,4a1.12,1.12,0,0,0-.11.47v15a1,1,0,0,0,.12.48A36.79,36.79,0,0,1,213,122.24Z"/>
                <path class="it_path" d="M305.07,314.55a27.16,27.16,0,0,1-6.82-3.43,6.08,6.08,0,0,1-.1-.79,3.41,3.41,0,0,0-1.42-2.9,1,1,0,0,0-.47-.16L293,307l-2.62-1.76c-2.18-1.46-4.36-2.92-6.54-4.41a12.73,12.73,0,0,1-5-6.16c-.33-.88-.61-1.79-.88-2.68-.14-.43-.27-.86-.4-1.27a1.14,1.14,0,0,0-.23-.38c-3.14-3.31-3.14-3.31-4-3.41a.87.87,0,0,0-.36,0l-5.25,1.36-2-1.77c-.58-2.06-.4-3.47.62-4.82a1,1,0,0,0,.06-1.11c-1.38-2.35-1.36-5,.06-8a1,1,0,0,0,0-.89c-1-1.9-1.38-3.26-.4-4.79l.78,0a14.13,14.13,0,0,0,3.06-.37l.1,0c2.66-.72,6-1.61,7-5.49a1,1,0,0,0,0-.6c-1.46-4-4.53-6.08-7.24-7.94a21.94,21.94,0,0,1-4.2-3.42,1,1,0,0,0-.75-.35h-7.61a1,1,0,0,0-.66.25l-6.17,5.39-1.93.23a1.11,1.11,0,0,0-.57.26l-.64.62a11.29,11.29,0,0,1-1.35,1.19,9.57,9.57,0,0,1-1.52.81l-.3.15-2.54-1a1,1,0,0,0-1.26.51,13.62,13.62,0,0,0-.61,1.64c-.44,1.32-.82,2.46-2,3.1l-1.39-.08-4.35-4a1,1,0,0,0-1.35,0l-2.82,2.58a16.18,16.18,0,0,1-2.7.12,10.85,10.85,0,0,0-4.83.73,1,1,0,0,0-.54,1.21l1.48,4.74-2.3,3.16a1,1,0,0,0,0,1.19l1.9,2.54-1.28,4a1,1,0,0,0,.75,1.28l4.85,1,2.48,2.12a1,1,0,0,0,1.23.06l5.74-4h5c5.48,2.65,8.71,5.64,10.44,9.69,2.53,5.88,6.83,10.11,11.39,14.28,1,.93,2.13,1.78,3.2,2.6s2,1.52,2.89,2.34a12.21,12.21,0,0,0,7.54,3.47,8.46,8.46,0,0,1,6,3.27l2.44,2.82a.94.94,0,0,0,.43.3c4.79,1.6,4.79,1.6,8.42,6.76a1.1,1.1,0,0,0,.42.35l5.87,2.51a19,19,0,0,1,2,7,19.9,19.9,0,0,0,1.35,5.4,7.9,7.9,0,0,1-1.05,2.86,6.43,6.43,0,0,0-1.05,4.23,1,1,0,0,0,.8.82,4.11,4.11,0,0,0,.75.07c1.92,0,2.82-1.55,3.33-2.43a1,1,0,0,0,.13-.36l.59-4.08,1.88-1.61a1,1,0,0,0,.3-.44c.76-2.32-.26-3.87-1.15-5.23a6.87,6.87,0,0,1-1.29-2.72,9,9,0,0,1,3.53-8,8.82,8.82,0,0,1,2.5.79c1.6.69,3.6,1.54,5.62,0a1,1,0,0,0,.38-.7,1,1,0,0,0-.25-.75C313.58,317.92,309.25,316,305.07,314.55Z"/>
                <path class="dm_path" d="M247,146.39s0-.07,0-.11v-4.59c.84-1.8,1.62-3.45,2.55-5.42a1,1,0,0,0,0-.91,1,1,0,0,0-.76-.51l-3-.36a1,1,0,0,0-.8.27L239.4,140l-4.1,1.19a1,1,0,0,0-.66.61c-.24.65-.49,1.28-.74,1.91-.54,1.38-1.09,2.8-1.53,4.24s-.75,2.88-1.09,4.4c-.14.66-.29,1.34-.45,2a1,1,0,0,0,.18.84c.2.27.42.54.64.81.49.62,1,1.26,1.43,1.93a19.6,19.6,0,0,1,1.08,2l.48.95a1,1,0,0,0,.87.54c.47,0,.94,0,1.41.09s1.09.1,1.66.1a6.07,6.07,0,0,0,4-1.33,1,1,0,0,0,.35-1l-1-4.16a7.42,7.42,0,0,1,1.86-2.74A10.44,10.44,0,0,0,247,146.39Z"/>
                <path class="bl_path" d="M188.86,207.91c.35.11.69.2,1,.29a5.83,5.83,0,0,1,2.47,1.06,14.4,14.4,0,0,0,3.15,1.82c.39.18.78.36,1.17.56l.22.36a7,7,0,0,0,4,3.42l.33.12c.77.27,1.15.42,1.34.88a2.92,2.92,0,0,0,2.85,1.92l.46,0a1,1,0,0,0,.84-.65c.39-1.08.79-2.2,1.15-3.22l3.9-.93.63-.15a1,1,0,0,0,.76-1.07l-.3-3.23a1,1,0,0,0-.89-.9l-4.45-.49-.85-1.12.56-2.64a1,1,0,0,0-.55-1.12l-5.2-2.45a1,1,0,0,0-.89,0l-5.61,3a16.94,16.94,0,0,1-8-.71,1,1,0,0,0-.84.11,1,1,0,0,0-.45.72C185.31,206.8,187.89,207.61,188.86,207.91Z"/>
                <path class="uk_path" d="M136.57,99.17l3.26,3.93-.59,2.35a5.88,5.88,0,0,1-1.52,1.14c-1.15.69-2.58,1.55-2.8,3.68a1.16,1.16,0,0,0,.31.92l3,3.08-.09,3.82a1.17,1.17,0,0,0,.36.88l4.38,4.07a1.08,1.08,0,0,0,.5.28l8.37,2.1.79,1.28-2.39,4.14a1.13,1.13,0,0,0,0,1.1l3.93,7.74-3.69,6c-4,1.82-7.79,1.21-10.94.35a1.1,1.1,0,0,0-1,.16L136,147.87a1.17,1.17,0,0,0-.44,1.34l1.61,4.49-.93,3.1-7.45,1.42a1.15,1.15,0,0,0-.53,2,11.6,11.6,0,0,0,5.41,2.29,13.68,13.68,0,0,1,2.67.78,46.24,46.24,0,0,1,4.75,2.57l1.48.86-.82,2.38c-3.32,1.84-6.48,1.65-10.24,1.21a1.1,1.1,0,0,0-.66.12c-1.32.68-2.73,1.23-4.09,1.77-2.78,1.09-5.65,2.21-8,4.49a1.14,1.14,0,0,0-.36.85,1.16,1.16,0,0,0,.38.84,4.36,4.36,0,0,1,.37.38,2.6,2.6,0,0,0,1.27.93,1.09,1.09,0,0,0,.26,0c3.43.3,6.57-.49,9.91-1.32a47.14,47.14,0,0,1,6.67-1.33c7.51,2.36,15.56,4.64,24.17,4.5a6.44,6.44,0,0,1,1,.12l.43.07c.76.11,1.49.3,2.29.49a13.35,13.35,0,0,0,5.19.61,26.12,26.12,0,0,1,5.11.11c.9.07,1.85.15,2.85.2a1.16,1.16,0,0,0,.83-2c-.59-.54-1.14-1-1.66-1.49a39.38,39.38,0,0,1-2.9-2.75,2.59,2.59,0,0,1-.94-2.51A18.21,18.21,0,0,1,180,171.2a12.08,12.08,0,0,0,6.89-5.34,1.15,1.15,0,0,0,0-1.16c-2.21-3.78-5.73-4.94-8.06-5.7l-.73-.25c-1.85-1.67-1.67-3.19-1.47-4.95a8.3,8.3,0,0,0,0-3.1l-.06-.18c-.52-1.16-1-2.3-1.46-3.28l1.08-6.33a1.11,1.11,0,0,0-.28-1c-.3-.33-.57-.65-.82-.95a14.47,14.47,0,0,0-1.71-1.78,21.33,21.33,0,0,0-2.28-1.62l-.28-.18c-1.8-3.31-1.37-6.24-.68-9.43a1.2,1.2,0,0,0-.12-.81l-.61-1.09c-1.68-3-3.31-5.94-4.89-8.78l-.09-.57c-.1-.62-.19-1.19-.24-1.76s-.06-1.09-.07-1.59v-.23c3.38-4.17,3.5-4.22,8.5-6.13a1.12,1.12,0,0,0,.74-1.12l-.25-5.81a1.14,1.14,0,0,0-.79-1c-4.31-1.46-8.76-3-13.56-2.1l-.79-.68-2.52-2.19c.22-.72.76-1.13,1.58-1.72a5.24,5.24,0,0,0,1.88-1.89c.16-.31.45-.44,1.11-.71a3.57,3.57,0,0,0,2.71-3.17,1.14,1.14,0,0,0-.92-1.25l-9.47-1.87a1.16,1.16,0,0,0-1.19.49,10.59,10.59,0,0,1-6.88,4.58,2.86,2.86,0,0,0-1.43,1l-.28.29a1.07,1.07,0,0,0-.31.45L141,91.56l-3.21,1.55a1.16,1.16,0,0,0-.63.81l-.84,4.29A1.15,1.15,0,0,0,136.57,99.17Z"/>
                <path class="fc_path" d="M222,281.67a10.18,10.18,0,0,1-4.37-4.14l.88-2.77a1,1,0,0,0,0-.56,5.39,5.39,0,0,0-1.36-2.19c-.57-.66-.91-1.07-.92-1.65l2.59-2.74a1,1,0,0,0,.2-1.05l-1.43-3.69a3,3,0,0,1,.35-1.07,3.26,3.26,0,0,0-.32-3.89,1,1,0,0,0-1-.34l-4.12.82-1.86-2,1.81-3.35c3.78-1.44,6.33-4.53,7.78-9.45l3.55-.93a1,1,0,0,0,.74-1.11c-.45-3.16.48-5.91,1.45-8.81.42-1.25.86-2.55,1.18-3.89a1,1,0,0,0-.39-1,17.27,17.27,0,0,0-4.75-2.18c-2.55-.87-4.75-1.62-6-4a1,1,0,0,0-.89-.54h-.87c-.57,0-1.06,0-1.58,0-5.74.47-10.26-2.39-15.12-5.93a8.18,8.18,0,0,0-3.9-3.28A8,8,0,0,1,191,210a1,1,0,0,0-.67-.37c-2.29-.28-4-1.77-5.9-3.35-.45-.38-.91-.77-1.37-1.14A1,1,0,0,0,182,205l-5.35,2.67a1,1,0,0,0-.53.7l-.11.52c-.51,2.56-1,5-3.06,7.32l-6.71,2.69a1,1,0,0,0-.4.29l-2.73,3.33H152.6L149.35,220a1,1,0,0,0-1.39.17l-1.86,2.31a1,1,0,0,0-.19.88c.13.5.26,1,.39,1.46.33,1.17.64,2.28.85,3.41a3.07,3.07,0,0,1-.15,1c0,.08-.05.17-.07.26L144.07,231l-6.19.28L134,229.56a1,1,0,0,0-.44-.08l-10.21.57a1,1,0,0,0-.64.28l-1.81,1.76a1,1,0,0,0-.19,1.19l.2.37c.29.55.57,1.06.84,1.58l1.29,2.49a1,1,0,0,0,.68.51l1,.21,2,.43c4.76.95,10.67,2.76,14.18,8.33a38.12,38.12,0,0,0,3.91,4.94c.84,1,1.65,1.85,2.4,2.81l3.11,7c0,.71,0,1.41,0,2.11,0,2,0,3.85,0,5.74a6,6,0,0,1-.46,2.42,30.66,30.66,0,0,0-2.33,9.39,35,35,0,0,1-1.62,7.65,1,1,0,0,0,.44,1.21c.72.41,1.41.83,2.1,1.24a43.28,43.28,0,0,0,7,3.65c2.18.83,4.72,1.49,7,.12,1.9-1.14,3.51-.8,5.94-.1a17.58,17.58,0,0,1,4.85,2.54l.75.5a1.11,1.11,0,0,0,.34.14l1.18.24c2.43.5,4.22.86,6,1.2a1,1,0,0,0,.24,0,1.61,1.61,0,0,0,.87-.29l.13-.07c1.92-.93,2.08-2.58,2.22-4a6.26,6.26,0,0,1,.95-3.23,1,1,0,0,0,.15-.32,2.4,2.4,0,0,1,.59-.61c1.73-1.09,3.53-2.1,5.12-3l1.46-.82c5.56-.72,10.59.69,15.46,2.05,1.9.53,3.87,1.08,5.83,1.49a.94.94,0,0,0,.73-.13c4.74-3,4.88-3.11,7.35-8.06A1,1,0,0,0,222,281.67Z"/>
                <g class="other">
                    <path class="cls-1" d="M501.75,234.26c-.31-.35-.64-.69-1-1-1.4-1.42-2.71-2.76-2.94-5.22a1.55,1.55,0,0,0,0-.21c-.27-.82.21-1.52,1.06-2.68a8.44,8.44,0,0,0,1.87-3.84,1,1,0,0,0-.79-1.12L499,220a12.51,12.51,0,0,0-1.89-.34h0a28.88,28.88,0,0,1-9.79-2.56,26.48,26.48,0,0,0-7.65-2.08l-2.75-2.16a1,1,0,0,0-1.05-.11c-4.36,2.08-8.24.75-12.34-.66l-1.34-.45c-1.43-.42-1.81-1.44-2.36-3.21-.49-1.57-1.05-3.36-2.91-4.44a1,1,0,0,0-.37-.12l-5.52-.75L448.47,200c-.24-1.74-.42-3.07-.53-3.83a.92.92,0,0,0-.1-.32c-1.83-3.52-4.52-4.56-7.34-5.39a1,1,0,0,0-.67,0c-5.63,2.35-10.66,3.31-14.95,2.88a.9.9,0,0,0-.43,0c-3.2,1.11-4.36,3.51-5.39,5.63a13.88,13.88,0,0,1-1.55,2.7l-.95.08a6.12,6.12,0,0,1-2.73-.12,20.88,20.88,0,0,0-10.15-1.19c-5.28.44-9.82-.79-12.8-3.45a1,1,0,0,0-.46-.24c-1.13-.23-2.16-.46-3.11-.67-2-.45-3.79-.84-5.56-1.08l-.69-.1c-1.76-.27-3.76-.57-5.39.16a10.48,10.48,0,0,1-3.79.69,17.47,17.47,0,0,0-3.19.37,1.17,1.17,0,0,0-.26.1l-6.17,3.49a1,1,0,0,0-.41,1.29L365,208l-1.32,2.85a13.61,13.61,0,0,1-2.32,1.76,9.81,9.81,0,0,0-4.13,4.21,1,1,0,0,0-.09.34c-.39,4.81-1.77,8.53-4.23,11.37a1,1,0,0,0-.25.7c.1,1.92.18,3.58.27,5.27a1,1,0,0,0,.53.84l4.28,2.25a.93.93,0,0,0,.46.12h7.51l1.28,0a14.31,14.31,0,0,1,2.8.09,20.92,20.92,0,0,1,3.11.87c.46.15.92.31,1.39.45a1,1,0,0,0,.7-.05l3.24-1.45h6.29a1.05,1.05,0,0,0,.49-.13l7.52-4.25h7.74l10.53,6.31a23.27,23.27,0,0,0,5.26,7.8,9.42,9.42,0,0,1,3.2,6.78l-1.65,1.82-4,.74a1,1,0,0,0-.81.92c-.19,2.65-1.55,4.6-3.28,7.07-.52.74-1.06,1.51-1.59,2.34a1,1,0,0,0,0,1.14,1,1,0,0,0,1.07.37c2.37-.66,4.15-1.31,5.22-1.69l.82-.29a1.07,1.07,0,0,0,.36-.2l6-5.31a.9.9,0,0,0,.25-.33c1.08-2.35,1.75-3.78,2.38-5.14,1.17-.22,2.31-.5,3.41-.77,3-.74,5.9-1.44,9.16-.85l4.27,5.28a1,1,0,0,0,.77.37h8.83l.32.38a6.57,6.57,0,0,1,.79,1.07,2.85,2.85,0,0,1,.08.58c0,.1,0,.2,0,.3L448,266a1,1,0,0,0,.3,1.57l.51.25c1.93,1,3.46,1.7,4.29,3.33l.07.11a3.64,3.64,0,0,1,.36,1.7,4.69,4.69,0,0,0,1.7,3.85,1,1,0,0,0,.6.2.94.94,0,0,0,.48-.13,15.91,15.91,0,0,0,4.65-4.17,4.35,4.35,0,0,1,2.59-1.25,8.16,8.16,0,0,0,2.7-1,1,1,0,0,0,.29-1.38,19.13,19.13,0,0,0-4.95-4.9l-.65-.5a28.05,28.05,0,0,1-3.53-3.19,1.82,1.82,0,0,1-.09-.52l1.38-.65c1.57-.74,3.06-1.43,4.51-2.23s2.95-1.74,4.24-2.55l1.29-.82h4.92a1.26,1.26,0,0,0,.33-.05l9.53-3.36a1.2,1.2,0,0,0,.4-.26c.34-.37.72-.73,1.1-1.1a15.27,15.27,0,0,0,2.68-3.12,15.62,15.62,0,0,0,1.48-3.87c.1-.35.19-.69.29-1l3.35-1.95c.59-.06,1.21-.07,1.82-.09,2.51-.06,5.37-.13,7.24-3.5A1,1,0,0,0,501.75,234.26Z"/>
                    <path class="cls-1" d="M182.62,301.41h-5.51l-11.42-5.67a1,1,0,0,0-.88,0l-4.39,2.09a15.45,15.45,0,0,0-3.34-.8,10.34,10.34,0,0,1-4-1.21c-1.87-1.17-3.83-2.16-5.73-3.11l-2.33-1.2a1.19,1.19,0,0,0-.42-.11c-1.29,0-2.6,0-3.86,0a30.74,30.74,0,0,1-8-.62,34.7,34.7,0,0,0-8.28-.88c-.79,0-1.58,0-2.37-.08-1,0-2.08,0-3.09,0a18.91,18.91,0,0,1-5.81-.43,28.76,28.76,0,0,0-7.9-.92l-1.39,0h-.23c-2-.06-4.15-.12-6.24,0a14.75,14.75,0,0,1-7-1.32,2.75,2.75,0,0,0-1.5-.09c-.2,0-.41.05-.66.06a1,1,0,0,0-.71.35c-.88,1-1.89,2.18-2.64,3.06l-5.09,2.75a1,1,0,0,0-.51,1c.06.41.12.78.17,1.13a17.56,17.56,0,0,0,.37,2.1,6.46,6.46,0,0,0,.47,1.22,5.86,5.86,0,0,1,.33.82,2.77,2.77,0,0,1,.06.75,3,3,0,0,0,.78,2.39.87.87,0,0,0,.34.22l8.62,3.3a1.14,1.14,0,0,0,.45.06,9.81,9.81,0,0,0,2.69-.78c1.68-.66,2.77-1,4-.25,1.78,1.2,3.45,2.45,4.36,4.63l-.31,1.85-3.71,3.15a1,1,0,0,0-.36.76v7c-2,3.74-3.73,6.79-5.39,9.83a1,1,0,0,0,0,1c1.13,2,1.89,3.63,1.3,5.69l-2.34,4.65a1,1,0,0,0,0,1c1.16,1.87,1.34,3.29.62,5L88,353.05a1,1,0,0,0-.33.88l.43,3.26a1,1,0,0,0,.51.75l8.59,4.74,1,1.43c.93,1.38,1.81,2.68,2.72,3.95a3.24,3.24,0,0,0,1.13.88l.63.37a1,1,0,0,0,.54.16.84.84,0,0,0,.27,0l3.3-.91,2.73.61a1,1,0,0,0,.72-.1l6.39-3.63a44.83,44.83,0,0,1,8.76-.37,29.44,29.44,0,0,0,8.1-.52,1.11,1.11,0,0,0,.36-.18L147,354.07a1,1,0,0,0,.36-.57l1-4.74.54-.67c.6-.75,1.15-1.43,1.72-2.09a5.63,5.63,0,0,1,.83-.74,4.65,4.65,0,0,0,2.08-3.18,1,1,0,0,0-.07-.49l-.32-.8c-.78-1.92-1.67-4.08-1.32-5.12l12.49-18.28c2.28-2,5.71-2.36,8.23-2.33a1,1,0,0,0,.61-.2c.76-.58,1.51-1.13,2.23-1.67,1.68-1.26,3.27-2.44,4.84-3.69a28.12,28.12,0,0,0,3.23-3.05,3.11,3.11,0,0,0-.12-4.75A1,1,0,0,0,182.62,301.41Z"/>
                    <path class="cls-1" d="M386.16,38.17a12.61,12.61,0,0,1,.69-1.66c.37-.67.8-1.31,1.25-2l.62-.93a1,1,0,0,0,0-1c-1.12-2-2.65-4.12-5.56-4.72-1.69-.35-3-1.36-4.44-3.47l.33-5.62a4.52,4.52,0,0,1,1-.88,2.91,2.91,0,0,0,1.52-2.72,1.09,1.09,0,0,0-.11-.39,2.71,2.71,0,0,1-.13-.3,2.19,2.19,0,0,0-1-1.3c-.47-.22-.95-.47-1.42-.72a14.14,14.14,0,0,0-4.65-1.8,84.57,84.57,0,0,0-8.6-.55c-1.31,0-2.66-.08-4.07-.15a1,1,0,0,0-.8.34L359.33,12a1.07,1.07,0,0,0-.2.38,14.3,14.3,0,0,0-.46,3.69,5.17,5.17,0,0,1-.46,2.59L354,21.82a11,11,0,0,1-6.86-1.09l-.41-.17a1,1,0,0,0-.39-.08H338l-7.77-5.64a1.06,1.06,0,0,0-1.39.21l-1.43,1.66a1,1,0,0,0-.1,1.16c3,5.17,7.89,6,12.29,6.05a14,14,0,0,1,4.87,7.22A38,38,0,0,0,346.29,36c.3.69.61,1.39.91,2.13v5.36a1,1,0,0,0,.14.52l4,6.61a1,1,0,0,0,.67.47l4.8.91c1.73,3.14,1.79,3.38,1.44,6.26l-2.57,2.23c-2.23,1.91-4.33,3.71-6.32,5.74a28.33,28.33,0,0,1-8.24,6.12,21.42,21.42,0,0,0-9.38,8.36,1.07,1.07,0,0,0-.14.52v6.33a1,1,0,0,0,.22.63L335.77,93c.13,3,.25,5.76.38,8.68a1,1,0,0,0,.56.86l1.21.59,2,1,.89.4a10.12,10.12,0,0,1,1.51.75,19.53,19.53,0,0,1,1.83,1.4l.58.47a1,1,0,0,0,.62.22h13.38a1,1,0,0,0,.38-.08,57.38,57.38,0,0,1,19.92-4.52,17.23,17.23,0,0,0,8.39-2.78c1.43-.86,2.79-1.76,4.23-2.72l1.82-1.2a1,1,0,0,0,.29-.28c.29-.44.61-.88.94-1.33A32.85,32.85,0,0,0,397,91.05a10.79,10.79,0,0,1,5.16-4.84,19.75,19.75,0,0,0,3.19-2,4.18,4.18,0,0,0,2-3.94.86.86,0,0,0-.06-.23c-1.12-2.92-3.38-4.62-5.55-6.26A17.2,17.2,0,0,1,397.68,70l1-3.52a1,1,0,0,0-.22-.93l-5.33-6a10.11,10.11,0,0,0-.83-3.36,7.12,7.12,0,0,1-.65-4.41l1-1.82a1,1,0,0,0,0-1L386,38.68Z"/>
                    <path class="cls-1" d="M332.39,77c.95-.7,1.88-1.45,2.78-2.17A31.81,31.81,0,0,1,342.51,70a8.12,8.12,0,0,0,2.5-2l.52-.53L346,67a41.19,41.19,0,0,1,5.25-4.59,28.63,28.63,0,0,0,4.16-3.82c.58-.61,1.17-1.22,1.79-1.82a1,1,0,0,0,.08-1.34l-2.11-2.69a1,1,0,0,0-1-.35c-2.86.68-5.81.11-8.67-.43a41.21,41.21,0,0,0-4.43-.69,1,1,0,0,0-.52.1A28.59,28.59,0,0,0,332,57.19a1.05,1.05,0,0,0-.24.44q0,.15-.09.27a1.91,1.91,0,0,0-.11,1.1c.3,1,.61,2,1,3.18l.22.71c-.33.34-.66.69-1,1-1.1,1.15-2.25,2.33-3.45,3.42a18.21,18.21,0,0,1-3.3,2.3c-4.12,2.31-8.25,4.59-12.38,6.88l-7.43,4.13a5,5,0,0,0-.93.7l-.29.25a1,1,0,0,0-.28.36L302,85.59a.94.94,0,0,0-.1.43v8.41a1,1,0,0,0,.06.34l2,5.54a1,1,0,0,0,.48.54l5.4,2.83,5.77,6.32c-.23.33-.47.65-.7,1a15.49,15.49,0,0,0-2.21,3.54c-1.78,4.41-5.07,7.15-10.35,8.59a5.72,5.72,0,0,0-2.3,1.58c-.25.25-.5.49-.75.7a1,1,0,0,0-.38.82A36.72,36.72,0,0,1,297.45,139c-.38,1.21-.64,2.46-.9,3.68-.6,2.86-1.17,5.56-3.11,7.69a15.91,15.91,0,0,1-3.43.23,12.71,12.71,0,0,0-6.56,1.23,1,1,0,0,0-.46.55c-.06.17-.14.35-.23.55a5.9,5.9,0,0,0-.61,2.15c-.06,1.28-.49,2.16-2.57,3.06l-8.47-.39-.53-1.07c-.74-1.51-1.43-2.94-2.17-4.33a1.88,1.88,0,0,0-1.25-.85.9.9,0,0,1-.23-.08,1,1,0,0,0-1.2.3,2.61,2.61,0,0,0-.11,3,2.57,2.57,0,0,1,.3.89,13.85,13.85,0,0,0-2.17,5.66,19.34,19.34,0,0,1-1.21,4c-.39.77.27,1.27.62,1.53l.43.34a1,1,0,0,0,1.16.07l4.1-2.56c4.93,1.79,8.12,4.43,10.31,8.49a1,1,0,0,0,.88.53,1.09,1.09,0,0,0,.39-.08,69.78,69.78,0,0,1,8.32-2.82,53.28,53.28,0,0,0,9.53-3.45,18.83,18.83,0,0,1,5.75-1.61c3-.43,5.81-1.05,8.85-1.71l3.24-.7,3.6,3.5a1,1,0,0,0,.95.24l5.67-1.51a1,1,0,0,0,.43-.23c3-2.75,5.73-5.34,8.47-7.91a1,1,0,0,0,.32-.83l-.58-5.78c1.19-2,1.21-4.09,1.22-6.13a17.59,17.59,0,0,1,.2-3.13c.84-4.34,2.23-7.37,6.27-8.06a2.08,2.08,0,0,0,1.16-.77,4.11,4.11,0,0,1,.29-.31,1,1,0,0,0,.33-.72,1,1,0,0,0-.3-.73l-.71-.69c-.46-.45-.91-.87-1.34-1.33a2.9,2.9,0,0,1-1.15-2.37l7.63-8.26,3.81-1.45c3.66-1.39,7.46-2.84,11.18-4.19l.23-.09c1.07-.38,2.39-.87,3.16-.62a24.32,24.32,0,0,0,5.36,1,24.62,24.62,0,0,1,4.33.71,23.15,23.15,0,0,0,7.93,1,3.59,3.59,0,0,0,1.24-.34l.38-.14a1.06,1.06,0,0,0,.55-.45l1.65-2.81,5.26-2.83a1,1,0,0,0,.13-1.68L389,102.78a1,1,0,0,0-.82-.17c-.51.12-1,.25-1.51.39a27.2,27.2,0,0,1-3.13.69c-2.81.37-5.63.69-8.45,1l-6.86.82a6.27,6.27,0,0,0-1.7.54l-.5.21-6.36,2.37-2.34.88H346.48l-.94-.6c-.88-.55-1.83-1.15-2.8-1.73-.24-.14-.48-.3-.72-.46a7.44,7.44,0,0,0-2.66-1.27c-2.07-.38-3.36-1.55-4.54-4.15V94.05a1,1,0,0,0-.24-.66L330.74,89V80Z"/>
                    <path class="cls-1" d="M353.93,224.83a9,9,0,0,0,.9-4,10.46,10.46,0,0,1,.23-2,28.52,28.52,0,0,1,1.31-3.67l.59-1.48.71-.45c.83-.53,1.69-1.07,2.52-1.7l.52-.39c1.11-.79,2.24-1.62,2.36-2.91a1.1,1.1,0,0,0-.05-.4l-.94-2.77c-1.28-3.8-2.49-7.35-3.82-11.3a.9.9,0,0,0-.28-.43l-.22-.19c-.9-.78-1.84-1.59-1.46-3.31a6.22,6.22,0,0,1,1.61-2,6.87,6.87,0,0,0,2.43-3.63,1,1,0,0,0,0-.51c-.15-.45-.29-.9-.43-1.34-.32-1-.62-2-1-2.92-.29-.67-.56-1.35-.83-2a23.52,23.52,0,0,0-3.89-7.21,5.76,5.76,0,0,0-1.35-1,5.29,5.29,0,0,1-.5-.32,1,1,0,0,0-1.2.05L348.51,171c-.47,0-.93,0-1.38.09a6.91,6.91,0,0,1-2.88-.12,25.78,25.78,0,0,0-9.12-1.28c-1.39,0-2.7-.05-4-.18L325,167.34a1,1,0,0,0-.9.12c-1.44,1-3.15,1.17-5.68.51l-3.48-2.73a1,1,0,0,0-1-.14,27.05,27.05,0,0,1-6.3,1.43,28.67,28.67,0,0,0-7.18,1.69c-.81.33-1.68.63-2.52.91a21.48,21.48,0,0,0-4.78,2.07,9.12,9.12,0,0,1-3.78,1.1,11,11,0,0,0-4.27,1.25c-.51.32-1,.62-1.59.95l-1,.59a1,1,0,0,0-.49.86V184a1,1,0,0,0,.2.6c2.59,3.43,2.75,7.63,2.7,12a.91.91,0,0,0,.1.46l3.69,7.43a1,1,0,0,0,.6.51l1.9.56c1.52.46,3.09.92,4.63,1.46l1.21.39a10.36,10.36,0,0,1,3.58,1.63c2.8,2.46,6.1,3.6,10.67,3.69.51.38,1,.77,1.48,1.16,2.09,1.65,4.24,3.36,7.08,4.09a5.39,5.39,0,0,1,2.05,1.65,11.61,11.61,0,0,0,.86.86,1,1,0,0,0,.42.22l9.1,2.18a1.33,1.33,0,0,0,.28,0,24.31,24.31,0,0,0,4-.65c2.74-.59,5.85-1.25,9.11-.39a14,14,0,0,1,1.55,1.15c1.29,1.06,2.86,2.35,5.05,2.35a5.84,5.84,0,0,0,.91-.07A1,1,0,0,0,353.93,224.83Z"/>
                    <path class="cls-1" d="M414.94,268.78a1,1,0,0,0-.78-.2l-5,.84-4.43-3.06c-.23-1.31-.51-2.59-.78-3.83-.75-3.45-1.46-6.72-1-10.17a1,1,0,0,0-.18-.71l-7.8-10.85a.92.92,0,0,0-.22-.22l-4.75-3.49a1,1,0,0,0-1.07-.08l-5,2.67-3.67-1.07a.91.91,0,0,0-.49,0,7.31,7.31,0,0,0-2.87,1.49c-1.06.77-1.84,1.34-3.16,1l-3.57-2.27a1,1,0,0,0-.54-.15H359.9l-.2,0c-4.19.85-7,2.87-9.56,4.65-.52.37-1,.73-1.53,1.06a.86.86,0,0,0-.2.18c-1.93,2.24-2.32,4.88-2.66,7.2-.3,2-.58,3.87-1.74,5.37l-5,2.66a1,1,0,0,0-.53.76,1,1,0,0,0,.33.87,33.17,33.17,0,0,1,4.65,5.53,27.06,27.06,0,0,0,6.35,6.92,1.08,1.08,0,0,0,.45.17l4.53.51,1,1.32c.9,1.24,1.76,2.42,2.72,3.55s2,2.21,3.07,3.23l1.31,1.33a1,1,0,0,0,.71.3l1.88,0a32,32,0,0,1,4.27.08,34.17,34.17,0,0,1,4.16.81c.7.17,1.42.35,2.18.51a1,1,0,0,0,.57-.05l1.95-.75,2.74.89a1,1,0,0,0,.8-.08l7.22-4.12H400a15.27,15.27,0,0,1,3,1.29c1.77.91,3.6,1.86,6.05,1a1,1,0,0,0,.64-.69,20.3,20.3,0,0,0,.51-3.53c.21-2.31.4-4.5,2.06-6.26l2.69-1.59a1,1,0,0,0,.48-.95l-.11-1.37A1,1,0,0,0,414.94,268.78Z"/>
                    <path class="cls-1" d="M396.76,151.83c-1.12-.32-2.24-.65-3.35-.93a1,1,0,0,0-.84.16l-3.74,2.75h-.91c-1.29,0-2.75,0-4.18,0a2.12,2.12,0,0,0-1.32.64.79.79,0,0,1-.15.12,1,1,0,0,0-.43,1l.45,2.23a6.52,6.52,0,0,1-3,2.8,8.17,8.17,0,0,0-3.2,2.89.94.94,0,0,0-.1.28l-.89,4.21a69.59,69.59,0,0,1-15.48,6.52,1,1,0,0,0-.68,1.33c.23.6.47,1.21.72,1.81,1.24,3,2.41,5.92,1.48,9.1l-2.29,3.11a1,1,0,0,0,0,1.21c.25.32.5.61.74.88a7,7,0,0,1,1,1.42,13.28,13.28,0,0,1,.76,2.24c.12.42.24.87.39,1.34a1,1,0,0,0,.63.65,1,1,0,0,0,.89-.12l3.28-2.26,1.46-.16a19.16,19.16,0,0,0,4-.69,18.8,18.8,0,0,1,9.92-.57c1.2.27,2.42.46,3.6.65a24.51,24.51,0,0,1,7.68,2.09c6.39,3.31,7.55,3.27,13.94,1.6l7.68,2.56a.89.89,0,0,0,.32.05,1,1,0,0,0,.83-.44L420.3,194l4.68-2.82a1,1,0,0,0,.44-1.15l-2.76-9.15,1.67-1.57,1,0a12.27,12.27,0,0,1,2.31.06h0a3.07,3.07,0,0,1,.75.33,3,3,0,0,0,3.23.14,1,1,0,0,0,.45-1c-.6-3.18-2.95-3.89-5-4.52a18.16,18.16,0,0,1-1.92-.67c-1.3-3.69-4.42-6-6.75-7.46-1.78-1.89-2.16-3.88-2.55-6a18.35,18.35,0,0,0-.75-3.05,1,1,0,0,0-.29-.42l-3.33-2.82a1,1,0,0,0-.81-.22C405.84,154.44,401.22,153.11,396.76,151.83Z"/>
                    <path class="cls-1" d="M404.09,293.91a6.19,6.19,0,0,1,1.41-3.08,9.53,9.53,0,0,0,1.68-3.39,1,1,0,0,0-.32-1,15.53,15.53,0,0,0-4.3-2.42,21.17,21.17,0,0,1-2.66-1.3,1,1,0,0,0-.52-.14h-9.23a.93.93,0,0,0-.54.16l-6.43,4.1a29,29,0,0,0-4.46-.08c-2.9.1-5.64.19-8.13-1.33a1,1,0,0,0-.88-.08l-.91.36c-.46.19-.86.35-1.26.48s-.89.26-1.35.38l-.35.09-1.38-.41a26.08,26.08,0,0,1-3.56-1.2,9.2,9.2,0,0,1-2-1.45c-.4-.35-.84-.72-1.34-1.11a1,1,0,0,0-1-.12,1,1,0,0,0-.58.85,6.89,6.89,0,0,0,2,5,6.66,6.66,0,0,1,1.75,3.51L358.31,302a1,1,0,0,0,.11.61,10.64,10.64,0,0,0,5.06,4.51c.38.2.76.4,1.13.61a.9.9,0,0,0,.53.14c3.4-.08,6.57.95,9.91,2a40.71,40.71,0,0,0,8.7,2.14h.1a1,1,0,0,0,.46-.11c.49-.26,1-.5,1.51-.74a21.61,21.61,0,0,0,5.53-3.39,24.63,24.63,0,0,1,4.6-3.08c.61-.36,1.21-.7,1.78-1.05a3,3,0,0,1,1.07.4c.79.41,2.12,1.1,3.43-.25a1,1,0,0,0,.22-1l-1-2.88c.27-.52.57-1,.86-1.53A10.93,10.93,0,0,0,404.09,293.91Z"/>
                    <path class="cls-1" d="M343.17,255.19c.26-.92.5-1.8.73-2.66.49-1.83,1-3.56,1.54-5.22,1-2.77,2.34-4.5,4.29-5.47A8.29,8.29,0,0,0,352.3,240a3.58,3.58,0,0,0,.71-1.76c0-.22.09-.45.15-.67a1,1,0,0,0-.1-.79,1,1,0,0,0-.64-.46c-1.73-.4-3.47-.92-5.15-1.42-4.37-1.32-8.89-2.67-13.77-1.94a1,1,0,0,0-.53.25,39.23,39.23,0,0,1-8.6,5.48c-1.71.9-3.34,1.75-4.86,2.72-3.43.29-5.89-1-8.54-2.35a4.81,4.81,0,0,0-1.76-.4c-.25,0-.53,0-.83-.1a1,1,0,0,0-.82.23l-3.62,3.15a1,1,0,0,0-.34.64c-.05.42-.08.82-.12,1.22a14.69,14.69,0,0,1-.32,2.34,13.07,13.07,0,0,1-.82,2.09c-.17.36-.33.72-.49,1.1a1,1,0,0,0,0,.84l2,3.8a1,1,0,0,0,.32.36l1.64,1.13,7.71,5.33a1.06,1.06,0,0,0,.57.17h10.07a1,1,0,0,0,.55-.17l4.21-2.79c.77,0,1.53,0,2.29.09,3.82.18,7.78.36,11.59-2.33A1,1,0,0,0,343.17,255.19Z"/>
                    <path class="cls-1" d="M391.4,313.38a1,1,0,0,0-.33-.74,3.61,3.61,0,0,0-4.48-.33,7.23,7.23,0,0,1-4.12.74c-.52,0-1.05,0-1.58,0a10.83,10.83,0,0,1-4.68-1.2l-.93-.38A19.74,19.74,0,0,0,365,310.34a1,1,0,0,0-.71.42l-2.55,3.63-.14.2-5.52.3a1,1,0,0,0-.77.44l-2.37,3.47-4.79.71a1,1,0,0,0-.65.4c-.84,1.15-1.78,2.26-2.68,3.34-2.2,2.64-4.48,5.36-5.51,8.64a1,1,0,0,0,0,.49c1.32,6.78,5.25,10.81,9.86,15a1,1,0,0,0,.86.24l10.39-1.91,8,4.11a.92.92,0,0,0,.46.11,1,1,0,0,0,.87-.51,7,7,0,0,0,.54-5.29.86.86,0,0,0-.11-.28,25,25,0,0,0-1.6-2.36,12,12,0,0,1-2.5-4.7l1-3.1a1,1,0,0,0-.12-.85l-.95-1.44c-.82-1.23-1.67-2.5-2.45-3.81a3.31,3.31,0,0,1-.26-1.05c0-.17-.05-.35-.09-.53l2.06-3.54a30.6,30.6,0,0,0,5.31-2.84,20.74,20.74,0,0,1,6.57-3.13L388.52,319a1,1,0,0,0,1.1-.52c.15-.3.31-.59.46-.88.42-.78.85-1.59,1.2-2.42a2.65,2.65,0,0,0,.14-1.42C391.41,313.61,391.4,313.49,391.4,313.38Z"/>
                    <path class="cls-1" d="M317.91,219.32l-2.38-1.55c-1.52-1-2.83-1.83-4.06-2.76-1.75-1.35-3.66-1.44-5.51-1.52a18.81,18.81,0,0,1-2.18-.19c-2.4-2.61-5.53-3.63-8.55-4.61a20.35,20.35,0,0,1-6.9-3.22,1,1,0,0,0-1.33.05c-1,.95-2.08.92-3.77.8a9.25,9.25,0,0,0-3.22.14l-.12,0c-1,.44-2.11.84-3.15,1.22-1.34.5-2.72,1-4.05,1.63-.44.2-.91.38-1.37.56-1.77.69-3.76,1.46-4.84,3.66a1,1,0,0,0-.06.72l1.8,6.27a1.09,1.09,0,0,0,.21.38,13.49,13.49,0,0,0,4.6,3.11c.52.25,1.05.51,1.56.79a12.36,12.36,0,0,1,3.23,3.07c.49.59,1,1.19,1.54,1.75a1,1,0,0,0,.72.31h4.06a1.05,1.05,0,0,0,.49-.13l6.55-3.67c.95.25,1.84.52,2.71.79a41.82,41.82,0,0,0,6.37,1.55,41.22,41.22,0,0,0,9.37,0,8.94,8.94,0,0,0,3.41-1.32c.32-.18.61-.35.88-.47a.92.92,0,0,0,.41-.35l3.85-5.65a1,1,0,0,0-.27-1.4Z"/>
                    <path class="cls-1" d="M85.84,353.35l4.81-5.4a1,1,0,0,0,0-1.27A5.11,5.11,0,0,1,90,342l2.48-4a1,1,0,0,0,0-1.06l-2.58-4.1v-2.28l2.87-2a1,1,0,0,0,.33-.4l2.7-5.86a1,1,0,0,0,.09-.41v-7.08l3.34-3.07a1,1,0,0,0,.32-.68l.13-2.1a1,1,0,0,0-.58-1c-1.08-.48-2.25-1-3.29-1.5l-.15-.07a1,1,0,0,0-.92.05c-1.76,1-3.54.9-5.42.77a17.76,17.76,0,0,0-2.92-.05L83,304.89a1,1,0,0,0-1.23.1l-.57.51A15.29,15.29,0,0,0,80,306.61c-.47.53-.9,1.08-1.27,1.57l-.41.53a1,1,0,0,0-.18.88c1.22,4.62,2,9.58-.12,14.49-.67,1.5-1.28,3-1.87,4.54s-1.11,2.77-1.7,4.13h0c-.53,1.21-1.12,2.42-1.7,3.59-.48,1-1,1.94-1.41,2.92a2.74,2.74,0,0,0-.13,1.44,2.32,2.32,0,0,1,0,.24,1,1,0,0,0,.33.74L75.22,345a87.07,87.07,0,0,0-.12,12.63,1,1,0,0,0,.61.83l4.52,1.91a.91.91,0,0,0,.39.08,1,1,0,0,0,.88-.53c.22-.41.6-.49,1.56-.62a4.13,4.13,0,0,0,3.52-2,1,1,0,0,0,.08-.73Z"/>
                    <path class="cls-1" d="M355.33,277.47c-.17-.09-.31-.2-.45-.29a2.44,2.44,0,0,0-1.42-.59,9.53,9.53,0,0,1-8.48-5,32.38,32.38,0,0,0-13.39-12.28,1,1,0,0,0-.86,0l-1,.41c-1.65.64-3.52,1.37-4.64,3.41a1,1,0,0,0,0,.89l2,4.42.52,9.19a.94.94,0,0,0,.08.33c.38.92.72,1.79,1,2.61a30.94,30.94,0,0,0,2.17,4.8,27.3,27.3,0,0,0,2.93,3.85c.5.59,1,1.18,1.49,1.79a20.34,20.34,0,0,1,1.55,2.27,2.94,2.94,0,0,1,.2.7c0,.15.07.31.11.49l-1.05,3.72a1,1,0,0,0,.35,1.06l4.59,3.52a1,1,0,0,0,.61.21,1,1,0,0,0,.39-.08l5.09-2.21h1.36c1.06,0,2.06,0,3.05,0,.32,0,.66,0,1,0a5.2,5.2,0,0,0,4.61-1.55,1,1,0,0,0,.26-.6l.57-7.2a1,1,0,0,0-.16-.64l-3.25-4.89,1.3-7.22A1,1,0,0,0,355.33,277.47Z"/>
                    <path class="cls-1" d="M257.45,247c2.21,1.27,4.22.63,6.16,0l1.24-.38,5.6,5.25a1,1,0,0,0,.68.28h22.12a1.06,1.06,0,0,0,.47-.12l6-3.21a1,1,0,0,0,.39-.38L302,245.2a1,1,0,0,0,.09-.21,7.07,7.07,0,0,0,.18-2.51,2.87,2.87,0,0,1,.16-1.66l2.27-1.65a1,1,0,0,0,.37-1.08l-1.94-7a1,1,0,0,0-.67-.69l-1.81-.58a33.09,33.09,0,0,0-4.29-1.21,34.39,34.39,0,0,0-4.44-.48c-.58,0-1.15-.07-1.69-.12a1,1,0,0,0-.72.22l-3.54,2.92H277.2a1,1,0,0,0-.6.2,9.15,9.15,0,0,1-1.77.93,7.58,7.58,0,0,0-4.06,3.19,1,1,0,0,0-.07.82l.42,1.09a12.43,12.43,0,0,1,.72,2.16c.32,1.71-.35,2.39-1,2.73a15.06,15.06,0,0,0-7.89-.77.9.9,0,0,0-.44.18l-5.1,3.59a1,1,0,0,0-.43.86A1,1,0,0,0,257.45,247Z"/>
                    <path class="cls-1" d="M352.45,166.64c1.47.48,2.29,1.74,3.16,3.07a10.86,10.86,0,0,0,2.17,2.65,1,1,0,0,0,.62.22h.15c5.77-.84,10.85-3.31,14.94-5.3a1,1,0,0,0,.52-.63l1-3.5a9.51,9.51,0,0,1,2.48-3,9.12,9.12,0,0,0,2.87-3.87,1,1,0,0,0-.18-.95c-2.82-3.41-6.48-4.79-10-6.13-1.27-.48-2.47-.93-3.63-1.47a1,1,0,0,0-.74,0l-4.31,1.43-1-.27c-5.62-1.43-10.92-2.79-16.94-2.43a.94.94,0,0,0-.43.13l-6.63,3.68a1,1,0,0,0-.47,1.16l1.54,5.15a1.11,1.11,0,0,0,.22.38c2.6,2.86,5.32,3.06,7.51,3.21a13.56,13.56,0,0,1,1.7.19,12.44,12.44,0,0,1,4.93,5.81A1,1,0,0,0,352.45,166.64Z"/>
                    <path class="cls-1" d="M388.46,152.42a1,1,0,0,0,.7-.28l2.32-2.3a1,1,0,0,0,.29-.87,28.28,28.28,0,0,0-3.32-8.52,41.74,41.74,0,0,1-2.26-4.81,1,1,0,0,0-.83-.64c-1.13-.13-2.17-.21-3.15-.28a23.11,23.11,0,0,1-5.13-.73,29.84,29.84,0,0,1-5.1-2.39c-.75-.41-1.5-.82-2.25-1.2a1,1,0,0,0-.44-.1h-6.64a1,1,0,0,0-1,.84c-.31,1.93-.6,3.71-.79,4.89-1.21,2.37-2.92,3.06-5.09,3.9l-9-6.31a1,1,0,0,0-.94-.11l-5.71,2.29a1,1,0,0,0-.61.72,14.41,14.41,0,0,1-.87,2.51c-.75,1.81-1.61,3.88-.95,6.54a1,1,0,0,0,1.38.67c2.4-1.08,4.84-1.05,7.42-1h1.08a27.9,27.9,0,0,1,8.69,1.2,14.17,14.17,0,0,0,10.18-.56l13.64,6.46a1,1,0,0,0,.43.09Z"/>
                    <path class="cls-1" d="M328.31,286.63a1,1,0,0,0,.49-1.07,31.55,31.55,0,0,0-1.26-4.07c-.88-2.41-1.71-4.69-1.26-7.15a1,1,0,0,0-.57-1.09l-5.44-2.47a1,1,0,0,0-.41-.09H303.6a1,1,0,0,0-.71.29l-2.32,2.33a1,1,0,0,0-.17,1.17q.5.94,1,1.8c.66,1.21,1.28,2.36,1.8,3.51.62,1.34,1.16,2.73,1.73,4.2.25.63.5,1.28.77,1.94a1,1,0,0,0,.69.6c3.74.9,6.33,3.49,9.08,6.23.91.91,1.85,1.85,2.83,2.72a1,1,0,0,0,.67.25,1,1,0,0,0,.4-.08c2-.89,2.72-2.71,3.26-4.16a5.41,5.41,0,0,1,1.25-2.3Z"/>
                    <path class="cls-1" d="M250.86,243,247,244.38l-1.41-.38c-3.51-.94-7.13-1.91-10.14-3.81a1,1,0,0,0-.9-.09l-13,5.13a1,1,0,0,0-.56.56c-1.44,3.58-4,6.29-8.18,8.54a1,1,0,0,0,.44,1.88c.55,0,1,.06,1.43.08a12.39,12.39,0,0,0,2.08,0,3.17,3.17,0,0,0,1.28-.48c.42-.25.49-.27.61-.19l3.8,3.68a1,1,0,0,0,.7.28h0l2.5-.12a1,1,0,0,0,.76-.4,8.84,8.84,0,0,1,4.61-3.36l5.6,3.51a1,1,0,0,0,.89.09,1,1,0,0,0,.6-.65,7.06,7.06,0,0,1,2.92-4.38l2.32,1.8a1,1,0,0,0,.76.19,1,1,0,0,0,.66-.41l1.37-1.93,7.64-4.3a1,1,0,0,0,.42-1.27l-2.09-4.81A1,1,0,0,0,250.86,243Z"/>
                    <path class="cls-1" d="M383.47,116.67a1,1,0,0,0-1-.72,36.66,36.66,0,0,1-8.52-1.16c-3.79-.83-7.37-1.61-10.81-.72l-.11,0-13.24,5.15a1,1,0,0,0-.42.32l-4.78,6.14a1,1,0,0,0,.95,1.6c2.85-.46,3.12-.65,7.49-4.87l1.3.41a21.4,21.4,0,0,1,3.47,1.3,30,30,0,0,1,3.6,2.33c.58.41,1.18.83,1.8,1.25a1,1,0,0,0,.65.17c3.23-.31,6.43,1.31,9.26,2.73a30.08,30.08,0,0,0,9.07,3l.16,0a1,1,0,0,0,.7-.29l2.3-2.22a1,1,0,0,0,.29-.92c-.15-.74-.24-1.51-.33-2.25a11,11,0,0,0-1.24-4.71,4.24,4.24,0,0,1-.4-2.92A9.57,9.57,0,0,0,383.47,116.67Z"/>
                    <path class="cls-1" d="M307,230.55a1,1,0,0,0-.35.2c-.08.08-.18.15-.27.23-.73.61-2.08,1.73-1.19,3.74a1,1,0,0,0,.5.51l11.63,5.26a1,1,0,0,0,.41.09.94.94,0,0,0,.51-.14l14.7-8.68h10.29L348.8,234a1,1,0,0,0,.81,0,1,1,0,0,0,.53-.63l1.42-5.11a1,1,0,0,0-.45-1.12l-5.5-3.29a1,1,0,0,0-.55-.14c-1.21.05-2.46,0-3.67,0-3.75,0-7.63-.09-11.32,1.55l-3.59-2.53a1,1,0,0,0-.58-.19h-6.46a1,1,0,0,0-.8.4l-3.82,5Z"/>
                    <path class="cls-1" d="M298.74,271c1.52-.78,3.05-1.5,4.66-2.26l1.13-.54a13.34,13.34,0,0,0,11.32.36,5.74,5.74,0,0,1,2.71-.1,9.4,9.4,0,0,0,.94.08,3.81,3.81,0,0,1,1.55.86,3.25,3.25,0,0,0,3,.9,1,1,0,0,0,.69-.64c.74-2.15-.17-3.69-1-5a9.29,9.29,0,0,1-.86-1.69,1,1,0,0,0-.88-.67l-10-.65L302.71,255a1,1,0,0,0-1.2,0L297,258.59a1,1,0,0,0-.34.5l-.41,1.4c0,.13-.07.27-.11.4l-5,6.39-5.72-2.23a1,1,0,0,0-1,.16,1,1,0,0,0-.34,1c.06.25.08.48.11.68a2.06,2.06,0,0,0,.54,1.41c2.39,2.19,4.81,4.34,7.59,6.81l1.92,1.71a15.13,15.13,0,0,0,6.22,7.3,1,1,0,0,0,1,0,1,1,0,0,0,.54-.8c0-.23.07-.45.11-.66a3.14,3.14,0,0,0,0-1.87c-.48-1.1-1-2.17-1.54-3.21s-1.09-2.18-1.57-3.28a9.23,9.23,0,0,1-.52-2.07l-.09-.5c.08-.12.15-.24.21-.35Z"/>
                    <path class="cls-1" d="M190.78,201.57a1,1,0,0,0,.37.4c2.07,1.29,3.87.07,4.94-.67a10.21,10.21,0,0,1,7.44-1.65l4.48,2.59,1,3.34a1,1,0,0,0,.95.72h1.59a1,1,0,0,0,1-.75c.64-2.48,1.06-5.41-.68-8.35a3.11,3.11,0,0,1-.18-1.33c0-.14,0-.28,0-.41.89-1.21,2.15-1.6,3.6-2.05a7.81,7.81,0,0,0,4.14-2.33,1,1,0,0,0,.16-1L218,186.17l3.44-4.09a1,1,0,0,0,.2-.88,1,1,0,0,0-.59-.69,13.74,13.74,0,0,0-6.91-.55l-.91.09a.91.91,0,0,0-.43.14l-6.91,4.16-3.31.37a1,1,0,0,0-.81.62l-3.55,8.73-.13.11c-2.66,2.06-5,3.86-7.28,5.67l-.08.07a1.14,1.14,0,0,0,0,1.47Z"/>
                    <path class="cls-1" d="M486.06,252a1,1,0,0,0-1.19-.44c-.95.32-1.88.66-2.78,1-3.62,1.33-6.74,2.47-10.19,2.21a4,4,0,0,0-1.7.37,5,5,0,0,1-.61.22c-3.27.8-5.85,2.76-8.22,4.69a1,1,0,0,0-.24,1.27c1.34,2.37,3.42,3.53,5.44,4.65.51.28,1,.56,1.52.86a1,1,0,0,0,.57.15l1.56-.11c3.14-.21,6.1-.42,9,1.15a.91.91,0,0,0,.48.13,1,1,0,0,0,.84-.47c.68-1.07,1.6-1.08,3.16-1a5.67,5.67,0,0,0,3.17-.45,1,1,0,0,0,.48-.63l1.93-7.6a1.06,1.06,0,0,0-.11-.76Z"/>
                    <path class="cls-1" d="M406.18,263.34a1,1,0,0,0,.76.52h.12a1,1,0,0,0,.75-.33l2.73-3a1.14,1.14,0,0,0,.18-.3,8.83,8.83,0,0,0,.58-3.1c.05-1,.1-1.52.49-1.92l4.55-.71a1,1,0,0,0,.84-1l-.17-3.68a1,1,0,0,0-.48-.81c-3.11-1.85-5.08-5-7.16-8.71a1,1,0,0,0-.49-.44l-1.52-.57a14.06,14.06,0,0,1-2.88-1.26,22.51,22.51,0,0,1-2.89-2.34c-.37-.34-.71-.66-1-.93a1,1,0,0,0-.65-.24h-6.13a1,1,0,0,0-.87.5,1,1,0,0,0,0,1,52.45,52.45,0,0,0,4.86,6.55c2.46,3,4.78,5.78,6.19,9.39A20.75,20.75,0,0,0,406.18,263.34Z"/>
                    <path class="cls-1" d="M354.51,301.75c-2.22-.59-4.25,0-6.22.61a13.43,13.43,0,0,1-3.76.78,1,1,0,0,0-.89.56l-2.29,4.73a1.15,1.15,0,0,0-.09.58l.72,5.07a1,1,0,0,0,.33.61l3.8,3.33a1,1,0,0,0,.66.25h.11l4.53-.5a1,1,0,0,0,.7-.4l2.32-3.17a6.82,6.82,0,0,1,2.54-.38,6.2,6.2,0,0,0,4.31-1.3.93.93,0,0,0,.33-.55l.48-2.21a1,1,0,0,0-.27-.92L355,302A1,1,0,0,0,354.51,301.75Z"/>
                    <path class="cls-1" d="M340,327.33a6,6,0,0,1,2-3,8.28,8.28,0,0,0,2.7-4.58,1,1,0,0,0-.2-.77l-3.87-4.83v-8.37a1,1,0,0,0-.31-.72L335,300a1,1,0,0,0-1.1-.2c-3.47,1.52-3.93,3.94-3.9,6.33a.91.91,0,0,0,.08.37,39,39,0,0,1,2.76,17,1,1,0,0,0,.27.75c.32.33.61.67.88,1,1.18,1.38,2.39,2.81,4.95,2.92h0A1,1,0,0,0,340,327.33Z"/>
                    <path class="cls-1" d="M279.69,262.9a1,1,0,0,0,.48.48,9.27,9.27,0,0,0,4.57.56c1.8-.09,2.95-.1,4,.87a1,1,0,0,0,.69.29,1,1,0,0,0,.62-.22l4.56-3.57a1,1,0,0,0,.37-.65,9,9,0,0,1,2-4.11,3.68,3.68,0,0,1,1.14-.85c1.13-.66,2.68-1.56,2.54-4.11a1,1,0,0,0-1.42-.85l-5.37,2.51c-1.19,0-2.41-.06-3.59-.12-4.39-.22-8.93-.45-13.22,2.14a1,1,0,0,0-.38,1.29Z"/>
                    <path class="cls-1" d="M411.19,313.19a17.79,17.79,0,0,1-2.5-2,29.05,29.05,0,0,1-2.42-3.08c-.41-.57-.85-1.17-1.33-1.81a1,1,0,0,0-.8-.4h-7a1,1,0,0,0-.66.25l-1.87,1.66-.22.19a1,1,0,0,0-.33.66c0,.37,0,.76-.08,1.16a16.89,16.89,0,0,1-.3,2.76,28.17,28.17,0,0,1-1,3.25q-.29.82-.57,1.74a1,1,0,0,0,.07.78,1,1,0,0,0,.6.48l6.79,2a1,1,0,0,0,.28,0,1,1,0,0,0,.79-.38l3.2-4.06h8.65a1,1,0,0,0,.61-1.79C412.39,314.05,411.76,313.6,411.19,313.19Z"/>
                    <path class="cls-1" d="M292.38,348.79,285.31,351c-.68,0-1.35,0-2-.05a25.88,25.88,0,0,0-4.59.12h0a4.45,4.45,0,0,1-2.21-.5c-1.4-.57-3.15-1.26-5.19.08a1,1,0,0,0-.05,1.64,42.52,42.52,0,0,0,8,4.32c3.26,1.48,6.34,2.88,8.85,5.25a1,1,0,0,0,.69.28,1.12,1.12,0,0,0,.31-.05l2.38-.76a1,1,0,0,0,.69-.81,17.16,17.16,0,0,0,.13-2.75,17,17,0,0,1,.1-2.29,30.39,30.39,0,0,1,.81-3.66c.16-.6.32-1.22.48-1.88a1,1,0,0,0-1.28-1.19Z"/>
                    <path class="cls-1" d="M347.68,162.9l-1.92-.57c-1.32-.4-2.65-.79-4-1.2a14.67,14.67,0,0,1-1.42-.58,7.62,7.62,0,0,0-5.73-.76.89.89,0,0,0-.31.15l-.39.26a12.29,12.29,0,0,0-2,1.57,19.8,19.8,0,0,0-1.88,2.32c-.27.36-.54.73-.84,1.11a1,1,0,0,0,.44,1.55A34.58,34.58,0,0,0,342,168.87a53.93,53.93,0,0,0,5.52-.3,1.53,1.53,0,0,0,1-.66.86.86,0,0,1,.07-.1.87.87,0,0,0,.22-.32,3.66,3.66,0,0,0-.73-4.34A1,1,0,0,0,347.68,162.9Z"/>
                    <path class="cls-1" d="M358,125.89c-.57-.16-1.16-.33-1.73-.52s-1.24-.46-1.73-.65l-.46-.18a1,1,0,0,0-1,.13l-6.69,5.14a1,1,0,0,0,0,1.58l8.21,6.4a1.05,1.05,0,0,0,.62.21h.13l2.27-.31a1,1,0,0,0,.81-.68c.18-.54.37-1.07.57-1.61a28.93,28.93,0,0,0,1.19-3.9c.27-1.25.71-3.34-.9-5.08a1,1,0,0,0-.45-.27Z"/>
                    <path class="cls-1" d="M363,355.32a1,1,0,0,0-.15-.33,11.8,11.8,0,0,0-8.46-5.06,1,1,0,0,0-.87.32l-1.86,2.05a1,1,0,0,0-.22.94q.23.76.45,1.47a23.25,23.25,0,0,1,.74,2.76,10.31,10.31,0,0,1,.11,1.18,6.41,6.41,0,0,0,1.57,4.4,1,1,0,0,0,.73.32.9.9,0,0,0,.23,0l4.55-1c.17.09.35.2.53.32.83.51,2.54,1.59,4.07-.56a1,1,0,0,0,.15-.83Z"/>
                    <path class="cls-1" d="M334.38,296.61c.48-.35,1-.71,1.45-1.1a1,1,0,0,0,.24-1.32,17.7,17.7,0,0,0-5.62-6,1,1,0,0,0-.63-.14c-3.65.42-5.43,2.75-6.57,4.73a1.13,1.13,0,0,0-.13.5v3.9a1,1,0,0,0,.2.6l3.66,4.86a1,1,0,0,0,.79.4h0a1,1,0,0,0,.79-.39c.3-.39.6-.79.89-1.2a18.44,18.44,0,0,1,2-2.46A28.61,28.61,0,0,1,334.38,296.61Z"/>
                    <path class="cls-1" d="M255.11,154.72a1,1,0,0,0,.23,1c1.47,1.56,2.59,2.74,3.86,4.07a1,1,0,0,0,.73.32,1,1,0,0,0,.53-.16l.85-.52a17.18,17.18,0,0,0,1.75-1.17,2.89,2.89,0,0,0,.8-1.18l.22-.46a1,1,0,0,0,.12-.6l-.29-2.37a1,1,0,0,0-.4-.69,1,1,0,0,0-.77-.18l-6.86,1.27A1,1,0,0,0,255.11,154.72Z"/>
                    <path class="cls-1" d="M209.31,215.8a1,1,0,0,0-.37,1.16,3.55,3.55,0,0,0,3.33,2.71,4.42,4.42,0,0,0,.78-.07,1,1,0,0,0,.77-.64l.6-1.62a1,1,0,0,0-.18-1C213.27,215.21,211.63,214.19,209.31,215.8Z"/>
                    <path class="cls-1" d="M475.65,268.23c-.49,0-1-.09-1.42-.15-1.82-.21-3.72-.44-5.53.91a1,1,0,0,0-.37,1.09,1,1,0,0,0,.91.71c.43,0,.87.09,1.34.16a12.53,12.53,0,0,0,2,.21,6,6,0,0,0,3.55-1.11,1,1,0,0,0,.4-1.08A1,1,0,0,0,475.65,268.23Z"/>
                    <path class="cls-1" d="M62.55,45.85a1,1,0,0,0-.64-.3l-6.07-.45a1.13,1.13,0,0,0-.41,0l-6.91,2.47a16,16,0,0,0-6.53-.7,23.81,23.81,0,0,1-2.53,0A1,1,0,0,0,39,47L32.1,49.82l-1.38-.45c-1.35-.45-2.62-.87-3.92-1.18a3.67,3.67,0,0,0-1.89.16l-.48.12a1,1,0,0,0-.62.37l-2.89,3.67H17.79l-2.35-4.6a1,1,0,0,0-.29-.33,10.93,10.93,0,0,0-7.24-2.47c-2.52.08-4.76,1-7.5,3a1,1,0,0,0,.52,1.81l6.2.45,2.59,2.81c.5,1.72-.24,2.64-1.18,3.79A7.19,7.19,0,0,0,7.2,59a1,1,0,0,0,.17,1l3.54,4.45-.21.42c-.47,1-1.19,2.38.5,4,.42.4,1.07.28,1.73.3a21.2,21.2,0,0,0,3,0,18.66,18.66,0,0,1,10.42,1.77A9.58,9.58,0,0,0,30.67,72a9.79,9.79,0,0,0,5.89-2.17c4.59-3.4,9.92-5,15.07-6.51,1.36-.4,2.74-.77,4.11-1.14,2.43-.66,4.93-1.33,7.35-2.2,2.79-1,5.76-2.53,6.53-6.19a1,1,0,0,0-.26-.91Z"/>
                    <path class="cls-1" d="M81.06,151.46a1.16,1.16,0,0,0,.8.71l.12,0c4.57.65,8.38-.92,12.06-2.44l.44-.19a23.11,23.11,0,0,1,11.37-1.17,26.37,26.37,0,0,1,3.07.58l1.31.28a1.16,1.16,0,0,0,1.11-.38l5.69-6.71a1,1,0,0,0,.24-.46l2.85-11.33a1.14,1.14,0,0,0-.24-1l-2.61-3.13a1.16,1.16,0,0,0-1-.41l-5,.53-2.21-4,.52-2.06,3.38-2.9a1.15,1.15,0,0,0,.21-1.52c-1.65-2.43-4.14-1.63-5.34-1.24a1.14,1.14,0,0,0-.67.57l-2.68,5.24-3.94,1.83-1.84-.47c-2.35-.59-4.77-1.21-7.19-1.76a2.79,2.79,0,0,0-1.76.33c-.21.09-.44.2-.71.29a1.15,1.15,0,0,0-.75.81l-1.13,4.51a1.2,1.2,0,0,0,.07.77l3,6.4-.85,3.4c-2.13,1.65-4.36,3.29-7.06,3.73h0a4.6,4.6,0,0,0-4.06,2.94,1.16,1.16,0,0,0,0,.82Z"/>
                    <path class="cls-1" d="M111.88,121.5a1.17,1.17,0,0,1,0,.2,1.16,1.16,0,0,0,.17,1,5.47,5.47,0,0,0,4.22,2,8.2,8.2,0,0,1,1,.13l6.77,5.34a1.14,1.14,0,0,0,1.2.13l.56-.25c1.47-.66,3-1.33,3.66-3.68a1.11,1.11,0,0,0,0-.6l-.24-1c-.29-1.22-.64-2.66-1-4.11a2.85,2.85,0,0,0-.45-.85,4.89,4.89,0,0,1-.27-.41,1.09,1.09,0,0,0-.39-.38l-6.2-3.7a1.16,1.16,0,0,0-1.25,0l-1.53,1.06c-1.82,1.25-3.68,2.54-5.51,3.84A1.82,1.82,0,0,0,111.88,121.5Z"/>
                    <path class="cls-1" d="M239.62,316.28a5,5,0,0,0-5.46,2.21,1,1,0,0,0-.16.55v18.22a1,1,0,0,0,.47.85,1,1,0,0,0,.53.15,1,1,0,0,0,.44-.1l6.63-3.3a1,1,0,0,0,.55-.89c0-1.06,0-2.11.09-3.15.17-4.76.35-9.67-2.44-14.1A1,1,0,0,0,239.62,316.28Z"/>
                    <path class="cls-1" d="M238.88,306.88a.92.92,0,0,0,.36-.07,1,1,0,0,0,.64-.93v-6.42a1,1,0,0,0-1.52-.86c-1.93,1.16-3,2.29-2.92,4.65a1,1,0,0,0,.26.63l2.44,2.68A1,1,0,0,0,238.88,306.88Z"/>
                </g>
            </g>
        </g>
    </g>
</svg>