<svg xmlns="http://www.w3.org/2000/svg" viewBox="0 0 105 34.83"><defs><style>.cls-1{fill:#7c4821;}</style></defs><g id="圖層_2" data-name="圖層 2"><g id="圖層_2-2" data-name="圖層 2"><g id="map_deco_7"><path class="cls-1" d="M49.61,3.17c-2.81,2.3-5.6,3.54-9.1,1.26-1.21.76-2.34,1.51-3.5,2.21C34.74,8,33.86,8,31.85,6.41A9.88,9.88,0,0,0,27.2,4.23c-.71.37-1.58.85-2.47,1.3A19.68,19.68,0,0,1,22,6.84c-2.11.71-3.34,0-3.93-2-.09-.3-.15-.62-.24-.95-1.52-.2-2.43.78-3.61,1.19-2.4.83-3.64.39-4.48-1.73a9.35,9.35,0,0,1-.3-1.45C5.81,2.33,3.62,5.23,0,5.75c.06-.53,0-.83.11-.89C4.93,2.15,8.41.64,11.23,0c0,.88,0,1.74,0,2.6C11.27,4,12.43,4.55,14,4c.83-.32,1.58-.78,2.39-1.16s1.39-.63,2.12-.9a3.7,3.7,0,0,1,1,0c-.06.84-.17,1.68-.16,2.51a1.67,1.67,0,0,0,2.24,1.28A8.65,8.65,0,0,0,23.29,5c1.32-.73,2.61-1.49,3.84-2.19a10.88,10.88,0,0,1,5.32,2.28c1.74,1.4,2.57,1.4,4.44.22.63-.39,1.17-.9,1.8-1.3s1.31-.71,2-1.07a8.43,8.43,0,0,1,1.14.38c2.79,1.37,3.66,1.29,6-.34.95-.68,1.53-1.82,2.94-1.91,1.29.64.71,1.66,1,2.46a2,2,0,0,0,2.65,1.35,13.82,13.82,0,0,0,3.08-1.39c1-.55,1.85-1.24,2.79-1.84a3.85,3.85,0,0,1,.92-.22c1.38.79,2.35,2.44,4.41,2.37a51.72,51.72,0,0,0,5.13-.67C66.73,6,65.15,6,60.3,3.06c-.55.34-1.17.71-1.77,1.1-.41.28-.76.62-1.18.88a7.16,7.16,0,0,1-4.83,1.14C50.8,6,50.45,4.63,49.61,3.17Z"/><path class="cls-1" d="M71.15,28.7a11.41,11.41,0,0,1,1.4.7c2.41,1.66,5.12,1.59,7.87.9,1.87-.48,3.66-1.15,5.47-1.73.6.7-.11.82-.49,1a35.57,35.57,0,0,1-4.94,2.07c-3.26.91-6.52,1-9.27-1.18-1,.32-1.94.51-2.74.85a4.08,4.08,0,0,1-4.67-.6c-.45-.39-.85-.84-1.41-1.39-1.23.72-2.27,1.37-3.35,2A33.36,33.36,0,0,1,55.64,33a4.62,4.62,0,0,1-4.8-.39,18.79,18.79,0,0,0-1.8-1c-.71.44-1.41.89-2.12,1.32A21,21,0,0,1,45,34c-2.86,1.39-5.15.93-7.14-1.4-.3-.35-.56-.72-.87-1.13-1.64.21-2.45,1.35-3.65,2S31,34.87,29.51,34.83c0-.45-.1-.76,0-.82,2-1.11,3.91-2.21,5.92-3.25A21.92,21.92,0,0,1,38,29.83c.42.66.7,1.13,1,1.59,1.6,2.28,3.69,2.63,6.21,1,.73-.47,1.34-1.07,2.06-1.55s1.27-.72,2-1.14c.71.49,1.33.88,1.9,1.32a4.35,4.35,0,0,0,4.76.39c1.48-.71,2.83-1.62,4.24-2.43.74-.42,1.5-.81,2.22-1.2a8.11,8.11,0,0,1,1.15.62c2.71,2.17,2.7,2.17,6.08.76C70.16,29,70.65,28.88,71.15,28.7Z"/><path class="cls-1" d="M57.23,18.09c-1.66,2.27-4.34,3.1-7.28,3.24-1,.05-2.13-.68-3.56-1.18A7.91,7.91,0,0,1,38,18.05c-1.43.6-2.67,1.21-4,1.65-2.47.83-4,.19-4.85-1.94-.17-.4-.3-.82-.47-1.22,0-.08-.21-.12-.51-.27l-1.6.69c-.58.25-1.15.55-1.75.76-3.44,1.2-5.48.81-8.1-1.58-1.79.37-2.87,2.21-5.65,2.1A35,35,0,0,1,17.75,14c.32.45.6.77.8,1.12C19.6,17,20.68,17.55,22.84,17a33.25,33.25,0,0,0,4-1.43c1.05-.41,2.07-.88,3.37-1.44.13,1.14.18,2,.34,2.85A2,2,0,0,0,33,18.65a7.93,7.93,0,0,0,2.56-.72,24.37,24.37,0,0,0,2.66-1.64,8.9,8.9,0,0,1,1.22.8c2.61,2.43,4,2.65,7.51,1.17.24.06.6,0,.71.17,1.25,1.5,2.86,1.8,4.84,1.15,1.58-.51,3.2-.95,4.79-1.43Z"/><path class="cls-1" d="M104.94,10.84A8.07,8.07,0,0,1,103.62,12a24.53,24.53,0,0,1-8.51,2.55c-2.88.44-5.21-.33-6.68-2.54-.38-.57-.73-1.15-1.19-1.89-1,.28-1.82.49-2.63.77a5.37,5.37,0,0,1-5.76-1,3.65,3.65,0,0,0-.57-.45c-.09-.05-.25,0-.56,0-.81.55-1.7,1.19-2.64,1.77-2.82,1.74-4,1.68-7-.4-2.77.13-5.08,1.9-8.25,2.41,1.81-2,4.44-3.05,9.1-3.89a3.19,3.19,0,0,1,.37.13c.82.49,1.06,1.56,2.37,1.58A5.08,5.08,0,0,0,74.86,10C76,9.08,77,8,78.22,6.85c.78.77,1.27,1.22,1.72,1.69a3.58,3.58,0,0,0,4.45,1c1.07-.42,2.13-.85,3.2-1.26.09,0,.24,0,.62.07.32.57.7,1.26,1.09,1.94,1.5,2.62,3.34,3.48,6.65,2.81,2.43-.49,4.78-1.23,7.17-1.85.61-.15,1.25-.24,1.88-.36Z"/><path class="cls-1" d="M4.47,28.85C7,28.55,9.15,29,11,27.91c1.73-1,3.57-1.81,5.33-2.68,2.6,2.66,2.6,2.66,6.6,3,.37.75-.35,1-.91,1.06-2.57.37-4.67-.27-6.1-2.41L10.63,29.2a7.51,7.51,0,0,1-4.94.7C5.32,29.81,5.07,29.39,4.47,28.85Z"/><path class="cls-1" d="M57.29,18.15c.14-.16.24-.4.43-.48s.38.16.57.25c-.1.06-.2.18-.31.19a6.26,6.26,0,0,1-.75,0Z"/></g></g></g></svg>