<svg xmlns="http://www.w3.org/2000/svg" xmlns:xlink="http://www.w3.org/1999/xlink" viewBox="0 0 227.03 108.54"><defs><style>.cls-1{fill:#fff;}.cls-2{mask:url(#mask);}.cls-3{fill:#7c4821;}</style><mask id="mask" x="32.32" y="-14.18" width="139.89" height="113.82" maskUnits="userSpaceOnUse"><path class="cls-1" d="M171.46,38.75c-1.57-5-5.82-9.3-10.67-12.2-4.65-2.77-10.38-4.66-15.78-6.35l.35-1.22c2.08-1,4.18-1.91,6.28-2.84A12.14,12.14,0,0,0,157.72.76c-2.43-5.86-8.62-10.94-15.59-11.15l-2,0a19.57,19.57,0,0,0-7.9-3.36C125.61-15,119-13.16,112.76-12q-7.2,1.35-14.32,2.9C92.35-7.79,86-6.51,81.68-2.35c-6.07,5.9-6,14.44-1.72,22.22.11.19.23.38.35.57a12.7,12.7,0,0,0-1.73,4.19l-4.92-.73-4-1.45c-5.16-1.87-10-3.57-15.46-4.22a24,24,0,0,0-18.05,4.94c-4.36,3.43-4.79,10.09-2.2,15.09,2.93,5.67,8.32,8.4,14.69,9.43q9.86,1.59,19.69,3.1l.64.23a11.2,11.2,0,0,0,.73,6.58A19.78,19.78,0,0,0,79,67.21a2,2,0,0,1,.36-.19c1.47-.61,2.88-1.33,4.3-2a4.2,4.2,0,0,1,5,1.46,2.9,2.9,0,0,1-.11,3.68,32.81,32.81,0,0,0,4.9,3.07,33.29,33.29,0,0,0,13.22,3.47c1,0,2,0,3,0,.6.53,1.22,1,1.84,1.48.13.1.26.18.39.27a5.83,5.83,0,0,1,4.76-1.6,7.08,7.08,0,0,1,6.78,5.41,16.12,16.12,0,0,0,8-1.81A14.45,14.45,0,0,0,139.15,66a31.49,31.49,0,0,0-1.35-5.83c2,.15,3.94.23,5.9.21,8.24-.1,17.45-1.09,23.47-6C171.76,50.73,173.29,44.57,171.46,38.75ZM131.55,59.54l.2,0C132.45,60.37,132.47,60.64,131.55,59.54Zm14-27.67-.12,0c-.2-.16.15-.52,2-.49A9.72,9.72,0,0,0,145.54,31.87Z"/></mask></defs><g id="圖層_2" data-name="圖層 2"><g id="圖層_2-2" data-name="圖層 2"><g id="map_deco_2"><g class="cls-2"><g id="_2" data-name="2"><path class="cls-3" d="M129.46,18.78l2.37-4.65-1.11-.32-1.36,4.93S129.45,18.8,129.46,18.78Z"/><path class="cls-3" d="M138.16,5.64C137.45,5.1,131,.82,125.5,0a2.65,2.65,0,0,0-2.12.74c-1.06,1-2.1,2.4-.67,3-.23-.1-.94,1-1,1.21-1.68,2.69,1.71,4.94,4.06,6.52a29.77,29.77,0,0,0,5,2.36s3.87,1.13,5,.75c1.35-.47,2.12-2.56,2.1-3.94C139.92,12.31,140.39,7.32,138.16,5.64Zm-1.73-.32c3.9,2.64-3.74,0-9.14-3.25S130.69,2.16,136.43,5.32Zm-.21,7.13a3.33,3.33,0,0,1-1.75,1.3,5.31,5.31,0,0,1-2.53-.48,28,28,0,0,1-5.88-2.67c-1.73-1-4-2.23-3.75-4.33a2.29,2.29,0,0,1,.2-.62c.34-.74,1-1.66,1.65-1.53l-.89,2.45.08,0,1.37-2,0,.06a1.49,1.49,0,0,0,.81.86c.45.13.75-.22,1.16-.12.65.16.41.89.77,1.29A1.19,1.19,0,0,0,128.7,7a1.39,1.39,0,0,1,.9,0c.29.19.23.58.41.86.64,1,1.62-.09,2.37.45.34.26.25.79.69,1s.92-.06,1.36-.17L133.75,12s.07,0,.08,0l1.38-2.58a5.14,5.14,0,0,1,.37.54l-1,3.22s.07.06.08.05l1.66-2.87h0c.12,0,.24-.14.37-.09C137.18,10.47,136.38,12.21,136.22,12.45Zm2.32-2.29s-.07,0-.21,0-.17-.07-.26-.27c-.15-.37-.4-.78-.79-.84-.76-.11-.91,1.32-1.37.11s-1.14-1.36-2-.67c-.4.32-.53.35-.7-.28a1.3,1.3,0,0,0-.74-1c-1.11-.48-1.68,1.24-1.9-.1-.18-1.12-.92-1.44-1.9-.94-.52.26-.64.23-.67-.36-.1-2.08-2.08-.8-2.36-1-.11-.07-.12-.17-.1-.48.07-1.07-.6-1.5-1.74-1.2s-1.26-.43-.16-1.57l1.21.66,0,0-.88-1,.5-.42c2.61,2.76,10.68,6.45,14.19,6.64a.29.29,0,0,1,0,.09h-.07c-.22,0-.54,0-.93,0a18,18,0,0,1-2.91-.5,19.14,19.14,0,0,1-2.9-1c-.39-.17-.7-.32-.92-.43l-.35-.18s-.05,0,0,0l.33.2c.22.12.53.3.91.49a21.76,21.76,0,0,0,2.89,1.18,18.4,18.4,0,0,0,3,.68c.41.07.74.1,1,.12h.09c0,.08,0,.17,0,.25L138,8.25a21.94,21.94,0,0,1-2.56-.47A23.43,23.43,0,0,1,132.86,7c-.7-.26-1.15-.46-1.15-.46s0,0,0,0,.44.24,1.12.54a23.7,23.7,0,0,0,2.56,1,22.07,22.07,0,0,0,2.6.66c.36.07.66.11.87.14C138.82,9.53,138.72,10.05,138.54,10.16Z"/><path class="cls-3" d="M114.36,81.76C132,44.79,131.1,49.59,127.52,40c-.76-2-.7-2.64,4.7-16.58,2.09-5.42,3.27-8,3.76-9a19.19,19.19,0,0,1-4-.32l.62.18c-.06.22-.16.58-.31,1-.23.75-.58,1.74-.94,2.73s-.71,2-.94,2.73-.37,1.27-.37,1.27.09.07.11,0,.19-.48.53-1.19.82-1.63,1.31-2.56,1-1.86,1.33-2.58.46-1,.52-1.17a6,6,0,0,0,.82.1c-.16.61-2.34,5-4.47,10.07a2.45,2.45,0,0,0-.39-.4,5.78,5.78,0,0,0-1.12-.7c-.42-.21-.86-.4-1.3-.59-.88-.4-1.76-.79-2.44-1.05s-1.13-.41-1.13-.41,0,.05,0,.07.44.18,1.08.51,1.48.78,2.32,1.26c.42.23.85.46,1.21.69a5.12,5.12,0,0,1,.9.68,1,1,0,0,1,.31.49s0,0,0,.06,0,0,0,0c-1-.23-2-.34-3-.61a24,24,0,0,1-4.07-1.52,24.37,24.37,0,0,1-3.77-2.19,7.71,7.71,0,0,1-1.4-1.2,6.33,6.33,0,0,1-.49-.7c2-3.6,4.7-9.91,5.14-10.69a5.75,5.75,0,0,0,.48.53L119.32,17s.06.06.08,0l3.87-7.27a17.84,17.84,0,0,0,2.56,1.72,18,18,0,0,1-4.26-4.19S111.25,26.71,108.85,29c-2,1.9-5.39,2-7.74,3.5C97.64,34.73,97.94,35.12,77.49,78c-.82,1.71-2,3.5-2,5.49a8.63,8.63,0,0,0,2.11,5.07c2.88,3.77,7.57,6,11.92,8a32,32,0,0,0,10.09,3C107.27,100.24,107.3,96.57,114.36,81.76Zm-9.15,14.13a6.34,6.34,0,0,0-.72-.92,15.65,15.65,0,0,0-2.06-1.77c-.76-.55-1.58-1.09-2.45-1.62s-1.76-1-2.69-1.55-1.9-1-2.87-1.45c-2-.91-3.94-1.71-5.8-2.41a46.59,46.59,0,0,0-5.18-1.75,16.84,16.84,0,0,0-2.12-.4c-.32,0-.61-.06-.89-.07s-.26,0-.39,0h-.35a4.5,4.5,0,0,0-.59.06l-.23,0-.19,0-.35.08c-.09,0,0,.18.07.16l.34-.06.19,0,.23,0a4.88,4.88,0,0,1,.57,0h.34l.38,0a7.51,7.51,0,0,1,.86.11,17,17,0,0,1,2,.49,46.28,46.28,0,0,1,5,2c1.83.79,3.74,1.67,5.6,2.65.93.49,1.84,1,2.72,1.54s1.73,1.09,2.54,1.63,1.56,1.1,2.24,1.65a14.07,14.07,0,0,1,1.31,1.18l-.85-.13-1.13-.19C100,95,99,94.77,98,94.53s-2.12-.57-3.21-.91-2.15-.74-3.15-1.14-1.91-.8-2.69-1.17l-.56-.26-.5-.25-.81-.41L86.38,90c-.06,0-.11,0-.06.08l.68.41.79.46.48.27.55.3c.76.41,1.67.86,2.65,1.33s2,.9,3.13,1.32,2.18.79,3.22,1.11c.78.23,1.52.44,2.2.62-.66-.07-1.36-.16-2.09-.27a38.77,38.77,0,0,1-4.45-1A41.88,41.88,0,0,1,89.14,93a39.67,39.67,0,0,1-3.6-1.85l-.74-.43-.64-.42c-.4-.26-.76-.49-1-.7L82.24,89c-.07,0-.13,0-.07.07l.86.67c.27.22.62.46,1,.74l.63.45.73.46a35.31,35.31,0,0,0,3.57,2,40.8,40.8,0,0,0,4.35,1.81,38.92,38.92,0,0,0,4.54,1.23,35.19,35.19,0,0,0,4,.58l.32,0c-4.33.71-8.85-.69-13-2.73S80.38,89.9,78.32,85.8c-1.63-3.26-.12-5.48,1.19-8.21,2.15-4.54,3.59-8.41,5.75-13,.37-.77,11.56-24.34,11.91-25.1,4.43-9.45,9.38-5.78,13.74-10.71,2.13-2.41,3.38-5.46,5.11-8.1.1-.15.19-.3.29-.47.83,1.42,3.47,2.91,4.4,3.42a26.67,26.67,0,0,0,4.53,1.95,17.87,17.87,0,0,0,4.21,1c-8,20,2.57,11.87-2.82,26.32C122.72,60.13,107.58,94,105.21,95.89Z"/><path class="cls-3" d="M127.24,27.94c-.2.44-.47,1-.81,1.78s-.78,1.66-1.26,2.81c-.23.58-.48,1.21-.71,1.91a16.63,16.63,0,0,0-.59,2.34,11.72,11.72,0,0,0-.15,1.37c0,.25,0,.49,0,.74l0,.39c0,.13,0,.26.05.4A18,18,0,0,0,124.85,43a11.64,11.64,0,0,1,.5,1.72,6.9,6.9,0,0,1,.05,1.82,13.16,13.16,0,0,1-1.08,3.8c-.28.65-.59,1.31-.9,2s-.64,1.39-1,2.11c-.67,1.45-1.38,3-2.14,4.55l-4.15,8.62-3.32,6.94c-1.95,4.1-3.39,7.19-4.45,9.48-2.11,4.6-2.68,6-2.68,6s.77-1.33,3.08-5.82c1.16-2.25,2.7-5.29,4.72-9.36,1-2,2.14-4.32,3.41-6.89s2.67-5.42,4.19-8.61q1.14-2.38,2.13-4.56c.33-.72.64-1.43,1-2.12s.62-1.35.89-2a13.49,13.49,0,0,0,1.09-4,7.37,7.37,0,0,0-.09-2,10.28,10.28,0,0,0-.56-1.83,18.73,18.73,0,0,1-1.08-3.15l-.06-.37c0-.12,0-.23,0-.35s0-.47,0-.7a9.27,9.27,0,0,1,.11-1.32,15.84,15.84,0,0,1,.5-2.31c.2-.7.42-1.33.62-1.91.42-1.16.8-2.1,1.1-2.87s.53-1.37.69-1.83.26-.78.32-1l.08-.29-.12.27C127.57,27.2,127.44,27.5,127.24,27.94Z"/><path class="cls-3" d="M123.47,50.48a11.91,11.91,0,0,0,.79-3.28,10.91,10.91,0,0,0-.05-2.41,13,13,0,0,0-.29-1.52c-.09-.38-.17-.64-.22-.8l-.07-.23,0,.24c0,.16.07.42.12.79s.11.88.15,1.51a11.48,11.48,0,0,1-.11,2.33,11.93,11.93,0,0,1-.92,3.13c-.25.58-.57,1.18-.91,1.85l-1.08,2.12c-1.53,3-3.43,6.81-5.77,11.57-9.38,19-11,23.37-11,23.37s2.43-3.94,11.8-23c2.35-4.76,4.2-8.58,5.65-11.63l1-2.15C122.92,51.72,123.24,51.09,123.47,50.48Z"/><path class="cls-3" d="M101.39,36.51a3.11,3.11,0,0,1,.33-.29,7.26,7.26,0,0,1,1.46-1A26.21,26.21,0,0,1,106.3,34a20.81,20.81,0,0,0,2.76-1.19,12.09,12.09,0,0,0,3.54-3,15.32,15.32,0,0,0,1.73-2.62,18.07,18.07,0,0,0,.82-1.81c.17-.46.28-.78.34-1l.08-.29a2.88,2.88,0,0,1-.12.28c-.08.19-.22.5-.43.94s-.5,1-.93,1.73a16.82,16.82,0,0,1-1.84,2.5,12.34,12.34,0,0,1-3.53,2.75,20.93,20.93,0,0,1-2.73,1.1,27.78,27.78,0,0,0-3.22,1.27,8.06,8.06,0,0,0-1.6,1,2.83,2.83,0,0,0-.37.32l-.35.35q-.33.36-.63.75a21.7,21.7,0,0,0-2.12,3.57c-.33.64-.66,1.31-1,2l-.56,1c-.19.34-.37.7-.56,1.06-.74,1.44-1.45,3-2.19,4.6L86,65.14c-1.94,4.17-3.37,7.31-4.42,9.64-2.1,4.67-2.66,6.12-2.66,6.12s.76-1.36,3.06-5.93c1.15-2.28,2.68-5.38,4.69-9.51l3.39-7,2-4.14c.69-1.46,1.43-3,2.17-4.61s1.45-3.16,2.17-4.59c.18-.36.37-.71.55-1s.37-.69.55-1c.36-.68.69-1.35,1-2a21.47,21.47,0,0,1,2-3.49c.19-.25.39-.49.59-.72S101.28,36.62,101.39,36.51Z"/></g></g><path class="cls-3" d="M155.5,76.88a4.82,4.82,0,0,1-6.25.88c-3.31-2-6.26-1.33-9.4-.11l-1.38.52c-4.17,1.67-8.26,2.34-11.82-.81-2.47.68-4.66,1.35-6.88,1.86-3.07.71-5.55,0-6.82-3.22-.1-.26-.48-.41-1-.78a26.39,26.39,0,0,0-5.35,1.85c-4.28,2.16-6,1.29-7.44-3.46a12.28,12.28,0,0,0-.68-1.47c-1.62.48-3.16,1-4.72,1.38-3.67,1-5.77-.37-6.18-4.08a34.59,34.59,0,0,1,0-3.81c-1.7-.54-3,.34-4.3,1C76.37,70,69.51,73.56,62.58,77c-4.53,2.22-6.38,1.8-10-1.86a2.87,2.87,0,0,0-.77-.44,43,43,0,0,1-5.64,1.67c-3.32.52-4.21-.31-4.79-3.84-.06-.32-.15-.63-.26-1.12l-1.84-.2.09.1c1-1.14,2-2.15,4-2,0,1-.16,1.88-.15,2.79,0,1.54,1,2.68,2.4,2.44a28.16,28.16,0,0,0,4.68-1.39,31.57,31.57,0,0,0,3-1.38c.38.41.72.62.8.89a4.7,4.7,0,0,0,2.78,3.26,6.34,6.34,0,0,0,5.23-.58c6.8-3.32,13.63-6.56,20.38-10a17.24,17.24,0,0,1,6-2,8.31,8.31,0,0,1,2,.34c-.34,1.34-.68,2.41-.86,3.52a7.92,7.92,0,0,0,0,2.43,2.63,2.63,0,0,0,3.19,2.32c1.28-.24,2.51-.75,3.77-1.12.94-.29,1.87-.59,2.83-.79a8.05,8.05,0,0,1,1.73.1c.07.94.11,1.88.22,2.81.32,2.83,1.78,3.79,4.35,2.83,2.15-.8,4.28-1.67,6.44-2.45A9.19,9.19,0,0,1,114,73c.29.34.61.55.69.83.36,1.26.59,2.54,2,3.25a5.71,5.71,0,0,0,4.78.17c2-.73,3.94-1.57,6.07-2.43,3.37,3.86,7.3,3,11.33,1.5,1.38-.51,2.83-.85,4.22-1.35,2.66-.94,5.09-.94,7.35,1.1,1.48,1.34,3.39,1,5.2.83Z"/><path class="cls-3" d="M78.32,90.82a14.1,14.1,0,0,1,8.6-4.74,3.41,3.41,0,0,1,3.51,1.32l1.71,2.11c2.69.62,4.83-.22,6.88-1.3a10.89,10.89,0,0,1,6.1-1.46c.33.15.77.21.88.44,1.37,2.73,3.55,3.2,6.2,2.23s5.57-2,8.8-1.88a15.09,15.09,0,0,1,1.17,1.38c2.44,3.56,5,4.37,8.8,2.73,2.4-1,4.78-2.11,7.27-3.2,1,1,1.75,1.83,2.47,2.68,1.79,2.12,4.21,2.3,6.72,1.11,1-.49,2-1.19,3-1.68.88-.42,1.84-.69,2.93-1.08.57.56,1.17,1.1,1.69,1.7a4.26,4.26,0,0,0,4,1.53c2.41-.39,4.81-.94,7.19-1.55,3.81-1,7.59-2.13,11.4-3.14a2.15,2.15,0,0,1,1.87.67c-2,.72-3.89,1.81-5.93,2.1a41.79,41.79,0,0,0-8.47,2.54c-.77.28-1.56.5-2.34.75-3.86,1.27-7.48,1.26-10.24-2-1.87-.25-3,.69-4.33,1.41-4.25,2.35-6,2.08-9.65-1.32-.47-.43-.92-.88-1.57-1.51-1.53.66-3,1.38-4.51,1.92A23.85,23.85,0,0,1,127.76,94c-3,.4-5.54-.44-7.14-3.26a12.55,12.55,0,0,0-1-1.27,17.78,17.78,0,0,0-7,1.65c-3.5,1.36-6.45,1.19-8.35-2.25a10.18,10.18,0,0,0-5.43,1.27,16.22,16.22,0,0,1-4.19,1.38c-2,.3-4,.17-5.2-1.87s-2.93-1.94-4.73-1.23c-1.37.53-2.61,1.37-4,2A12.74,12.74,0,0,1,78.32,90.82Z"/><path class="cls-3" d="M53.87,102.16c-8.61,1.81-8.61,1.81-16.56.09a15.26,15.26,0,0,0-3,1.37c-3.28,2.37-6.79,1.53-10.31,1a29.07,29.07,0,0,0-6.3-.76c-3.32.23-5.34-1-6.43-4.08-.22-.6-.51-1.18-.74-1.71-2.77-.91-4.92.17-7,1.51-1.57,1-1.6.93-3.5.84,2.82-3.49,6.49-4.82,11.78-4.2a6.25,6.25,0,0,1,.72,1.13c1.6,4.24,1.6,4.16,5.88,4.28a24.88,24.88,0,0,1,5.81.86c3.51,1,6.77.79,9.87-1.31a5.94,5.94,0,0,1,6-.64,12.62,12.62,0,0,0,8.67.59A6.27,6.27,0,0,1,53.87,102.16Z"/><path class="cls-3" d="M74.72,101.06c.5,1.06.86,2,1.34,2.79,1.31,2.24,2.82,3.07,5.31,2.51a50.1,50.1,0,0,0,6-2c.9-.33,1.76-.8,2.8-1.28,4.14,5.35,9.78,3.15,15,3.08-2.06,1.74-2.92,1.88-7.82,2.34-3.2.3-5.69-1.14-8.2-2.78l-7,2.29c-3.46,1.13-6.08,0-8-3-.26-.4-.54-.79-1-1.44-1.49.37-3,.8-4.61,1.12-2.49.51-5,.7-6.6-1.83-.81-1.27-2.21-.38-3.33-1.32a5.38,5.38,0,0,1,3.14-2.26c.41.22.78.3.92.53,1.93,3.21,2.46,3.56,5.8,2.94C70.46,102.39,72.32,101.73,74.72,101.06Z"/><path class="cls-3" d="M227,89.84c-2.68,2.41-5.9,2.69-9.17,2-1.14-.24-2.06-1.48-3.26-2.4-.38.17-1,.4-1.54.69-4.5,2.36-4.74,2.34-8.63-.72a42,42,0,0,1-5.74,2.54c-3,.83-5.26-.3-7-3.14-.19-.3.09-.89.19-1.64.62.68,1,1.18,1.48,1.6,2.75,2.4,5.6,2.56,8.41.39a40.72,40.72,0,0,0,3-2.88c.8.84,1.41,1.53,2.08,2.16,1.49,1.42,2.7,1.68,4.45.79,1.44-.73,2.81-1.61,4.3-2.47A9.5,9.5,0,0,1,217,88.23c1.22,2,3.1,2.24,5.14,2.12,1.62-.1,3.23-.28,4.85-.42Z"/><path class="cls-3" d="M37,72c-.51,1.25-1.6,1.21-2.68,1.19l.08.09c.4-1.53,1.69-1,2.69-1.19Z"/><path class="cls-3" d="M34.32,73.18c-.46.77-1,1.1-2.47.2l2.55-.11Z"/><path class="cls-3" d="M155.61,76.9l-.1,0Z"/><path class="cls-3" d="M37.09,72.08l2.27-.81-.09-.1c-.5,1-1.38.88-2.27.82Z"/></g></g></g></svg>