<svg xmlns="http://www.w3.org/2000/svg" xmlns:xlink="http://www.w3.org/1999/xlink" viewBox="0 0 165.98 141"><defs><style>.cls-1{fill:#fff;}.cls-2{mask:url(#mask);}.cls-3{fill:#7c4821;}</style><mask id="mask" x="1.32" y="-13.95" width="128.02" height="154.95" maskUnits="userSpaceOnUse"><path class="cls-1" d="M129.26,4.25c-.64-4.74-4.32-7.3-8.84-7.8q-3.18-.36-6.36-.67a7.64,7.64,0,0,0-.29-3.23c-1.59-4.93-6.1-7.24-11.06-6.28C89.9-11.26,77.07-8.89,64.27-6.4c-2.55,0-5.11.07-7.66.14C47.12-6,37.28-5.84,28.05-3.4,19.21-1.06,6.34,5.13,6,15.72a12.24,12.24,0,0,0,2.42,7.37C5.65,25,3.75,28,4.15,31.34l-.23.23c-3.28,3.3-3.65,9.48,0,12.73l2.5,2.22a11,11,0,0,0,1.42,1.07,8.23,8.23,0,0,0,5.78,5.33,7.86,7.86,0,0,0-2.36,6c.23,5.21,4,8.58,9,9-1.4-.12.33.21,1.26.44.28.1.79.28.95.36l1.52.77A58,58,0,0,0,31.92,73a20.8,20.8,0,0,0,10.47.65c-1.51-.17-3-.33-4.51-.61a3.5,3.5,0,0,1-2.42-4.27,3.57,3.57,0,0,1,4.27-2.42c3,.56,6.15.66,9.19,1.23a3.33,3.33,0,0,1,2.5,2.94c1.79-.89,3.52-1.88,5.29-2.83A21.3,21.3,0,0,1,63,65.27a28.6,28.6,0,0,1,7.07-1c3-.19,6.1-.19,9.15-.19.24,0,.49,0,.73,0a3.34,3.34,0,0,1-.32-2.56A3.49,3.49,0,0,1,83.85,59a31.1,31.1,0,0,1,7.56,4.07A12.67,12.67,0,0,0,94,62.64a14.47,14.47,0,0,0,9.68-10.06,16,16,0,0,0,0-7.74,11.12,11.12,0,0,0,1.32-2.57,19.62,19.62,0,0,0,0-12.71c-.16-1.2-.36-2.38-.61-3.56l.74-.33c3.52-1.62,6.74-4.78,7.72-8.62a3.94,3.94,0,0,0,.1-.47q5-1.14,9.9-2.46A9,9,0,0,0,129.26,4.25Z"/></mask></defs><g id="圖層_2" data-name="圖層 2"><g id="圖層_2-2" data-name="圖層 2"><g id="map_deco_1"><g class="cls-2"><g id="_3" data-name="3"><path class="cls-3" d="M95.34,18.2c5.17-8-4.58-20.31-16.2-15.35C76.11-.84,69.56-.88,66,2.33A10.16,10.16,0,0,0,52.19,5.09c-6.64-2.23-14.31,2.63-15.8,8.68-7.75,1.52-12.64,9.61-6,13a87.81,87.81,0,0,0,8.38,34.46c7.65,16.52,16,23.37,18.93,62.8.06.78-.66,1.24-.9,1.91a10,10,0,0,0-.43,2.83,7.18,7.18,0,0,0,.34,2.27l-.15.12.25.23a9.7,9.7,0,0,1,.79,3.91,6.3,6.3,0,0,0,0,1.3h-.11s0,0,0,.15a1.5,1.5,0,0,0,.15.41l.05.07a3.39,3.39,0,0,0,2.71,2.83,66.37,66.37,0,0,0,8.36.91c9.18.29,30.41-2.4,34.76-9.5a4.49,4.49,0,0,0,.24-3.81l0-.15-.09,0c-.11-.34-.24-.69-.39-1a.54.54,0,0,0-.42-.35,10.43,10.43,0,0,0-.18-4,22.11,22.11,0,0,0-2-4.3c-1.57-3-5.26-19.09-5.73-22.74C91.22,65.34,99.27,56.73,98.58,38,98.19,27.36,95.39,20.09,95.34,18.2ZM36.2,14.78a4.36,4.36,0,0,0,.08,2,17.13,17.13,0,0,1,.78-2.92c.07-.05.11-.1.07-.17A12.71,12.71,0,0,1,48.93,5.9a10.66,10.66,0,0,1,3.12.47,7.23,7.23,0,0,0-.71,1.75c.31-.32,6.27-9.37,14-5.24a4.72,4.72,0,0,0-1.06,1.77,10.66,10.66,0,0,1,8.19-3.58A9,9,0,0,1,78,3.38a10.45,10.45,0,0,0-2.42,1.69l1-.6c9.11-4.86,19.28.25,18.84,9-.24,4.43-3.31,7.42-8.61,10.71-7.41,4.59-8.2,8.48-11.82,6.26a6.55,6.55,0,0,1-.92-.7l0-.05h0c-1-.9-1.73-2-2.93-3.13l0-.07h0a11,11,0,0,0-3.1-1.95v-.06l-.08,0C62.27,22.17,55.9,23,50,24.34c-5.64,1.28-12.7,3.71-18.18,1.59C26.1,23.72,28.83,16.79,36.2,14.78Zm58.41,7.07c-.85.34-2.45.93-4.67,1.65L94,20c.18.53.34,1,.49,1.56ZM31.32,27.16c.34,1.59,8.09.82,9.23.65a102.92,102.92,0,0,0,10.53-2.57A33.28,33.28,0,0,1,61,23.93,12.61,12.61,0,0,1,70.06,28S48.18,32.38,32.2,32.93C32,31,31.72,29.05,31.32,27.16ZM32.47,35C44,34.71,71,29.5,71,29.5l.86.81-.8.22-1,.26L69,31.05c-3,.74-7.1,1.55-11.19,2.26-8.2,1.43-16.47,2.5-16.47,2.5s-.09.13,0,.12S49.69,35.2,58,34.1c4.14-.55,8.26-1.2,11.35-1.82l1.1-.22,1-.23c.62-.15,1.17-.26,1.62-.4h0a7.35,7.35,0,0,0,4.4,1.67c2.47.15,3.36-1.09,4.57-2.65a12.65,12.65,0,0,1,1.16-1.28c.74-.22,2-.58,3.19-1,1.91-.63,3.78-1.36,3.78-1.36s0-.13,0-.13-1.95.41-3.92.72L85,27.56c.76-.61,1.54-1.21,2.27-1.81,1.6-.4,3.2-.84,4.72-1.3,0,.25.12.55.21.93a60.52,60.52,0,0,1,1,6.91A81,81,0,0,1,93,46.59c-.29,3.11-.75,6.6-1.32,10.54s-1.24,8.33-1.74,13.24a84.46,84.46,0,0,0-.42,13.43,106.36,106.36,0,0,0,1.26,10.71c.52,3.13,1,5.87,1.48,8.25s1,4.41,1.41,6.12a59.56,59.56,0,0,0,2.24,6.9c.21.52.37.91.49,1.19a10.76,10.76,0,0,0-1.22-.19,28.31,28.31,0,0,0-5.07,0L87.3,117c-1,.09-1.93.18-2.89.3a81.45,81.45,0,0,0-10.53,1.94c-1.41.37-2.57.73-3.37,1-.4.13-.71.26-.92.34l-.33.13c-.09,0,0,.15,0,.12l.33-.11c.21-.08.52-.19.93-.31.8-.25,2-.56,3.39-.87a83.47,83.47,0,0,1,10.52-1.48c1-.07,1.92-.12,2.88-.17s1.89-.09,2.79-.11A28.11,28.11,0,0,1,95,118a9.16,9.16,0,0,1,3.1,1l.06,0c-5,3.81-12.38,5.22-18.3,6.21a70.44,70.44,0,0,1-12.54,1c-3,0-8.24-1.38-8.25-1.71C56.54,69.11,36.9,68.89,32.47,35Zm70.23,95.5c-.69,1.63-2.53,2.24-3.92,3.12-7.06,4.5-25,6.26-33.34,5.59-1.56-.13-4.22.09-5.6-.93h0a11.46,11.46,0,0,0,1.34.14,14,14,0,0,0,2.49-.07c.67-.08,1.11-.17,1.11-.17s0-.13,0-.13-.44,0-1.09,0a13.55,13.55,0,0,1-2.36-.37c-.42-.11-.83-.23-1.21-.37l-.53-.2a1.58,1.58,0,0,1-.37-.2c-.21-.14-.25-.26-.24-.28s0,0,0,0h-.08c-.1-2,3.16-.67,4.38-.5C72.77,137.38,89,134.9,97,131c1.52-.75,2.77-1.87,4.23-2.67a1.65,1.65,0,0,1,1.14-.26,3.93,3.93,0,0,1-.67,1.35,9.81,9.81,0,0,1-1.21,1.31l-.61.55s0,.11.07.11l.74-.38a10.79,10.79,0,0,0,1.57-1,5,5,0,0,0,.74-.72A3.47,3.47,0,0,1,102.7,130.47Zm-1.2-8.21a3.17,3.17,0,0,1,.12.41l-.14-.06a5.2,5.2,0,0,1-.19.69,5.42,5.42,0,0,1-.73,1.44A5.78,5.78,0,0,1,99.39,126a4.62,4.62,0,0,1-.65.45s0,.13,0,.12a6.23,6.23,0,0,0,.78-.27,6.78,6.78,0,0,0,1.57-1,6,6,0,0,0,.45-.42c-2.17,7-23.83,9.9-32.55,9.86a45.88,45.88,0,0,1-7.31-.8,4.57,4.57,0,0,1-3.13-1.51,8.28,8.28,0,0,0,1.84.48,16.71,16.71,0,0,0,2.73.12l1.23-.06s0-.12,0-.13-.49-.05-1.21-.15a15.31,15.31,0,0,1-2.56-.56A6.34,6.34,0,0,1,58.44,131l-.18-.15-.14-.15a2.51,2.51,0,0,1-.23-.25l0-.07c-.24-1.89.47-3.56,2.5-3.29,2.85.38,8,1.74,19.79-.21,6.2-1,13.89-2.58,19.09-6.6C100.25,119.47,101.07,121,101.5,122.26ZM97.19,36.88c.8,18-6.68,30.39-3.46,58.36.86,7.45,4.8,20.81,5.39,22.72l-.33-.19a9,9,0,0,0-2.3-.79c-.09-.29-.22-.7-.39-1.26-.41-1.35-1.06-3.56-1.82-7-.37-1.72-.77-3.74-1.17-6.13s-.82-5.12-1.28-8.25-.91-6.65-1.11-10.61a88.89,88.89,0,0,1,.47-13.24c.5-4.87,1.16-9.25,1.68-13.2s1-7.48,1.18-10.62a82.47,82.47,0,0,0,.25-8.3,57.49,57.49,0,0,0-.45-6.15,44.56,44.56,0,0,0-1.42-6.9l-.3-.91c1-.31,2-.63,2.86-1A84.22,84.22,0,0,1,97.19,36.88Z"/><path class="cls-3" d="M80,43.12c1.83,0,3.33-1.48,2.7-3.34-.36-1.09-1.16-1.94-1.59-3-.33-.83-.92-2.18-2-2.16A2.72,2.72,0,0,0,77,36a3,3,0,0,0-.2.52,15.21,15.21,0,0,0,.07,3.88A3.1,3.1,0,0,0,80,43.12Zm2-4.33-.05,0a2.87,2.87,0,0,0,0-.31C81.87,38.6,81.9,38.69,81.93,38.79Zm-4.29-1c-.11-.65-.43-1.57.23-2.08,1-.75,1.77.31,2.23,1,3.1,4.7-.93,6.07-2,4.1C77.54,39.93,77.8,38.81,77.64,37.83Z"/><path class="cls-3" d="M49.3,22.78c.7-.25,3.33-1.21,3.68-1.35a36.08,36.08,0,0,0-3.84.86c-.73.18-1.58.4-2.57.61-9.94,2-8.24-4.16-4.18-6.78,3-1.91,7.5-2.14,11-1.52a6.68,6.68,0,0,0-1.34,2.3c1.41-1.16,5.45-7.35,16.26-5.27l.39.07A6.64,6.64,0,0,0,67.28,11c2.78-3.51,7.39-4.39,10.91-1-.36-3.66-9-4.83-11.48.8a13.14,13.14,0,0,0-12.83,3.3C37.45,9.67,30.44,29.3,49.3,22.78Z"/><path class="cls-3" d="M91.79,15.11c-1.54,3.93-5.57,7.23-6.41,8.45,3-1.59,11.84-9.7,6.61-16.1-3-3.64-8.46-2.91-10,0A5.51,5.51,0,0,1,84.33,6C89.2,4.46,94.18,8.91,91.79,15.11Z"/><path class="cls-3" d="M77.87,19.21a3.05,3.05,0,0,0-.52.05c-1.66.27-2.86,1.55-1.76,2.86,1.41,1.7,4.85.81,4.43-1.47A1.92,1.92,0,0,0,77.87,19.21Zm.12,3.1c-1.37.23-2.34-.83-2-1.52a2.23,2.23,0,0,1,1.9-.93C79.79,19.83,79.79,22,78,22.31Z"/><path class="cls-3" d="M76.5,26c-1.43,2,1.35,3.22,2.76,1.75C81,25.9,77.91,24,76.5,26ZM78,27.66c-.63.11-1.41-.26-1-1.09a1.1,1.1,0,0,1,1.94-.32C79.26,26.8,78.67,27.55,78,27.66Z"/><path class="cls-3" d="M71.46,21.38a1.8,1.8,0,0,0,1.74,3,2,2,0,0,0,1.69-1.95C74.75,21,72.63,20.29,71.46,21.38ZM73,23.73a1.39,1.39,0,0,1-1.41-1h0a1.28,1.28,0,0,1,1.17-1.24,1.26,1.26,0,0,1,1.35,1A1.27,1.27,0,0,1,73,23.73Z"/><path class="cls-3" d="M44.54,20a4.37,4.37,0,0,0,.62-.16,2.43,2.43,0,0,0,1.59-1.61,1.35,1.35,0,0,0-.65-1.45,2,2,0,0,0-1.47-.37C42.54,16.74,41.85,20.43,44.54,20ZM46,18.14a1.81,1.81,0,0,1-1.58,1.21c-.64.11-.79-.16-.85-.24-.43-.74.6-2.81,2-1.82A.79.79,0,0,1,46,18.14Z"/><path class="cls-3" d="M49.19,26.29a55.15,55.15,0,0,1-8.33,2,56.92,56.92,0,0,1-8.4.36C36.16,29.9,45.34,28.79,49.19,26.29Z"/><path class="cls-3" d="M90.51,8.25a3.4,3.4,0,0,0-1.14-.87,2.39,2.39,0,0,0-.69-.21l-.2,0,.16.1a5.14,5.14,0,0,1,.55.36,3.83,3.83,0,0,1,.87.91c1.57,2.29.21,4.94.2,6C90.6,14.18,92.6,10.73,90.51,8.25Z"/><path class="cls-3" d="M42.23,29.23a1.39,1.39,0,0,0-.55,0,1.19,1.19,0,0,0-.62.36c-.2.27-.13.38-.14.37s.95-.53,1.48-.06a.77.77,0,0,1,.22.6,1.45,1.45,0,0,1-.12.45c-.12.22-.19.31-.19.32a.62.62,0,0,0,.43-.14,1.15,1.15,0,0,0,.41-.57,1.2,1.2,0,0,0,0-.51,1,1,0,0,0-.31-.58A1.25,1.25,0,0,0,42.23,29.23Z"/><path class="cls-3" d="M48.22,28a1.4,1.4,0,0,0-1.14.72c-.13.34,0,.43,0,.43a1.83,1.83,0,0,1,.8-.53c.62-.19,1.11,0,1.19.66a1.52,1.52,0,0,1-.22.89.78.78,0,0,0,.44-.23,1.15,1.15,0,0,0,.25-1.24A1.2,1.2,0,0,0,48.22,28Z"/><path class="cls-3" d="M53,29.81a1.65,1.65,0,0,1,.31-.45,1.23,1.23,0,0,1,.72-.39,1.2,1.2,0,0,1,.79.21,1.56,1.56,0,0,1,.39.37c.15.22.19.33.2.33a.83.83,0,0,0-.21-1.07A1.47,1.47,0,0,0,54,28.39a1.57,1.57,0,0,0-1.12.71,1.08,1.08,0,0,0-.18.68c.06.34.19.38.18.38S52.94,30.05,53,29.81Z"/><path class="cls-3" d="M67.3,16.65a1.58,1.58,0,0,0-1,0c-1.38.47-1.17,2.2-.4,2.3a1.45,1.45,0,0,1-.07-1.06,1.16,1.16,0,0,1,.68-.72,1.28,1.28,0,0,1,1,.16,1.33,1.33,0,0,1,.48.46,2.69,2.69,0,0,1,.19.43C68.56,17.9,68.3,16.93,67.3,16.65Z"/><path class="cls-3" d="M72.18,15.51a1.86,1.86,0,0,1,.37-.47,1.66,1.66,0,0,1,.85-.42,1.62,1.62,0,0,1,.95.18,1.94,1.94,0,0,1,.49.36,3.39,3.39,0,0,0,.29.32.63.63,0,0,0,0-.45,1.24,1.24,0,0,0-.45-.62,1.89,1.89,0,0,0-1.35-.35,1.8,1.8,0,0,0-1.19.7,1.21,1.21,0,0,0-.26.7c0,.35.14.42.13.42l0-.08C72.07,15.74,72.11,15.64,72.18,15.51Z"/><path class="cls-3" d="M80.45,16.32s0-.13.27-.44a1.79,1.79,0,0,1,.61-.47,1.3,1.3,0,0,1,1.18,0,1,1,0,0,1,.61.9,1.32,1.32,0,0,1-.21.7,2.22,2.22,0,0,1-.34.43s.19.05.59-.25a1.39,1.39,0,0,0,.5-.86,1.32,1.32,0,0,0-.12-.73,1.64,1.64,0,0,0-.7-.68,1.92,1.92,0,0,0-1-.21,1.75,1.75,0,0,0-.79.25,1.44,1.44,0,0,0-.62.77C80.32,16.21,80.47,16.33,80.45,16.32Z"/><path class="cls-3" d="M79.88,11.29s.08-.08.31-.25a1.9,1.9,0,0,1,.53-.24,1.35,1.35,0,0,1,.86,0,1,1,0,0,1,.48.62,1.24,1.24,0,0,1,0,.53c0,.26-.11.37-.1.38a.78.78,0,0,0,.4-.28,1.06,1.06,0,0,0,.2-.7,1.12,1.12,0,0,0-.15-.52,1.25,1.25,0,0,0-.55-.51,1.53,1.53,0,0,0-.79-.14,1.65,1.65,0,0,0-.59.15,1.21,1.21,0,0,0-.57.51C79.79,11.19,79.89,11.3,79.88,11.29Z"/><path class="cls-3" d="M44.34,9.34a1.28,1.28,0,0,1,1.91.51,1.69,1.69,0,0,1,0,1.15,1.15,1.15,0,0,0,.49-1.3A1.68,1.68,0,0,0,44.05,9a1.22,1.22,0,0,0-.59,1.15l0,.1A2.12,2.12,0,0,1,44.34,9.34Z"/><path class="cls-3" d="M54.65,9.35a1.91,1.91,0,0,1,.78-1,1.27,1.27,0,0,1,2,.48,1.63,1.63,0,0,1,0,1.19,1.17,1.17,0,0,0,.52-1.34A1.7,1.7,0,0,0,55.1,8a1.18,1.18,0,0,0-.5,1.22Z"/><path class="cls-3" d="M62.17,4a1.11,1.11,0,0,1,.74.36,1.54,1.54,0,0,1,.36.84.67.67,0,0,0,.23-.4,1,1,0,0,0-.14-.69A1.24,1.24,0,0,0,63,3.65a1.41,1.41,0,0,0-.74-.24,1.64,1.64,0,0,0-.78.17A1.54,1.54,0,0,0,61,4c-.54.63-.15,1-.15,1S61.22,3.92,62.17,4Z"/><path class="cls-3" d="M69.34,4.84a2,2,0,0,1,.44-.44,1.44,1.44,0,0,1,.94-.25,1.16,1.16,0,0,1,.75.51,1.27,1.27,0,0,1,.21.55,4.2,4.2,0,0,1,0,.42s.16,0,.31-.39a1.11,1.11,0,0,0,0-.78A1.4,1.4,0,0,0,71.6,4a1.42,1.42,0,0,0-.76-.35,1.73,1.73,0,0,0-.87.1,1.75,1.75,0,0,0-.54.36,1.14,1.14,0,0,0-.38.69c0,.37.11.44.1.45S69.19,5.1,69.34,4.84Z"/><path class="cls-3" d="M31.9,22.5a1.24,1.24,0,0,0,1.31-.42s-1.48.31-1.77-.64,1.08-1.52,1.08-1.52a1.19,1.19,0,0,0-1.28.39A1.23,1.23,0,0,0,31.9,22.5Z"/><path class="cls-3" d="M79.7,39c.31.28,0,.68.19,1a.61.61,0,0,0,.26-.18c1-1-.78-2.15-1.35-1.15-.11.22,0,.31,0,.3S79.34,38.69,79.7,39Z"/><path class="cls-3" d="M60.74,113.44c.48,3.24.79,5.36,1,6.66s.3,1.79.3,1.79,0-.5-.1-1.81-.24-3.45-.57-6.72-.8-7.68-1.85-13.5C59,97,58.27,93.69,57.24,90.09c-.27-.9-.52-1.83-.84-2.77-.16-.47-.31-.94-.47-1.42s-.35-1-.52-1.46c-.34-1-.76-2-1.17-3s-.87-2-1.33-3.09c-1.9-4.19-3.84-7.84-5.56-11.12s-3.25-6.19-4.53-8.8a88.84,88.84,0,0,1-5.06-12.31L37.13,44,36.7,42.3c-.12-.52-.26-1-.33-1.39l-.21-1.08c-.24-1.24-.34-1.69-.34-1.69s0,.46.15,1.72c0,.31.07.68.11,1.1s.15.88.23,1.42.21,1.12.33,1.78.33,1.36.52,2.14a75.14,75.14,0,0,0,4.7,12.6c1.24,2.65,2.73,5.6,4.42,8.89s3.6,6.94,5.48,11.09a95.87,95.87,0,0,1,6.71,21.18C59.63,105.82,60.25,110.2,60.74,113.44Z"/><path class="cls-3" d="M88.26,106.87c.6,2.4,1,3.95,1.33,4.9s.4,1.31.4,1.31,0-.37-.21-1.35-.46-2.57-.9-5-1.06-5.7-1.8-10.07S85.47,86.82,84.86,80c-.3-3.42-.43-6.5-.5-9.29s-.13-5.26-.21-7.46c-.15-4.4-.4-7.68-.67-10.09s-.55-4-.73-4.88S82.47,47,82.47,47s0,.35.08,1.3.19,2.49.3,4.9.21,5.67.24,10.06c0,2.2,0,4.68.07,7.47s.14,5.92.45,9.37A160,160,0,0,0,86,96.85C86.9,101.21,87.66,104.46,88.26,106.87Z"/><path class="cls-3" d="M82.73,128.73a24.23,24.23,0,0,0,5.53-.9,24.58,24.58,0,0,0,5.27-2c.46-.25.74-.44.91-.55a2,2,0,0,0,.23-.18l-.28.06c-.21,0-.53.14-1,.29-1,.29-2.6.87-5.32,1.62s-4.4,1.05-5.37,1.29c-.49.12-.8.2-1,.27l-.26.09a1.41,1.41,0,0,0,.27,0A7.36,7.36,0,0,0,82.73,128.73Z"/><path class="cls-3" d="M94.86,127.83a64.81,64.81,0,0,1-6.51,2c-3.37.82-5.44,1.07-6.65,1.27l-1.24.21-.32.08.33.05a9.89,9.89,0,0,0,1.26.07,26.48,26.48,0,0,0,6.82-.88A26.8,26.8,0,0,0,95,128.21a9.81,9.81,0,0,0,1.11-.68,2.07,2.07,0,0,0,.28-.21l-.34.1C95.84,127.49,95.45,127.63,94.86,127.83Z"/><path class="cls-3" d="M95.67,132.55a71.64,71.64,0,0,1-7.38,2.14c-3.82.87-6.14,1.3-7.48,1.64a12.88,12.88,0,0,0-1.72.48,12.09,12.09,0,0,0,1.78-.08,54.18,54.18,0,0,0,7.61-1.23,31.94,31.94,0,0,0,7.36-2.57,13.92,13.92,0,0,0,1.26-.73l.33-.22-.38.1Z"/><path class="cls-3" d="M83.53,40.65a.86.86,0,0,0-.07.12c0,.09-.09.22-.17.42a8.3,8.3,0,0,1-.37.75,4,4,0,0,1-.85,1,3.7,3.7,0,0,1-1.15.59,7.83,7.83,0,0,1-.8.19l-.43.08a.4.4,0,0,0-.12,0l.09.09a1.76,1.76,0,0,0,.43.2,2.28,2.28,0,0,0,1,.08,3,3,0,0,0,1.52-.62,3,3,0,0,0,1-1.34,2.64,2.64,0,0,0,.15-1,1.32,1.32,0,0,0-.11-.47Z"/><path class="cls-3" d="M78.07,34.31A5.08,5.08,0,0,0,80.13,34a3.57,3.57,0,0,0,1.65-1.39,11.15,11.15,0,0,0,.57-1.08c.12-.27.19-.44.23-.55a.77.77,0,0,0,.06-.17l-.15.08a2.88,2.88,0,0,0-.48.4c-.22.21-.47.53-.79.9a3.67,3.67,0,0,1-1.41,1,7.32,7.32,0,0,1-1.78.43l-1.15.14a2.65,2.65,0,0,0-.74.17,2,2,0,0,0,.72.24A5.41,5.41,0,0,0,78.07,34.31Z"/><path class="cls-3" d="M60.31,25.33a16.86,16.86,0,0,1,3.18.66c1.58.51,2.54.94,3.14,1.12a3.19,3.19,0,0,0,.81.19,3,3,0,0,0-.62-.56,9.52,9.52,0,0,0-1.1-.7,10.92,10.92,0,0,0-2-.85,6.74,6.74,0,0,0-3.44-.27,2.48,2.48,0,0,0-.61.2.54.54,0,0,0-.16.09l.17,0Z"/></g></g><path class="cls-3" d="M.1,68.29a4.68,4.68,0,0,0,6.06.86c3.2-2,6.06-1.29,9.1-.11.45.17.9.33,1.34.51,4,1.61,8,2.26,11.45-.79,2.4.66,4.52,1.31,6.67,1.8,3,.69,5.38,0,6.61-3.12.1-.25.47-.39.93-.75a24.73,24.73,0,0,1,5.18,1.79c4.15,2.09,5.85,1.25,7.21-3.36a11.54,11.54,0,0,1,.66-1.42c1.57.47,3.06.93,4.57,1.34,3.56,1,5.6-.36,6-4a32.47,32.47,0,0,0,0-3.69c1.66-.53,2.93.32,4.17.93,6.71,3.3,13.35,6.74,20.07,10,4.39,2.15,6.18,1.75,9.69-1.81a3.54,3.54,0,0,1,.75-.42A40.45,40.45,0,0,0,106,67.76c3.21.51,4.08-.3,4.64-3.72,0-.31.14-.61.25-1.08l1.78-.2-.09.1a4.27,4.27,0,0,0-3.9-1.93c0,.94.15,1.82.14,2.7,0,1.5-1,2.6-2.32,2.37A27.29,27.29,0,0,1,102,64.66c-1-.37-2-.91-2.9-1.34-.37.4-.69.59-.77.86a4.53,4.53,0,0,1-2.69,3.15,6.22,6.22,0,0,1-5.08-.55c-6.58-3.22-13.2-6.37-19.74-9.67a16.83,16.83,0,0,0-5.83-2,7.75,7.75,0,0,0-2,.33c.33,1.29.66,2.33.84,3.4a7.78,7.78,0,0,1,0,2.36,2.56,2.56,0,0,1-3.09,2.25,37.15,37.15,0,0,1-3.65-1.09c-.91-.27-1.82-.57-2.74-.76a7.38,7.38,0,0,0-1.67.09c-.07.92-.12,1.83-.22,2.73-.31,2.74-1.73,3.67-4.21,2.74-2.09-.77-4.15-1.62-6.24-2.38a9.56,9.56,0,0,0-1.78-.29c-.28.34-.59.54-.67.81-.35,1.22-.57,2.46-1.88,3.14a5.51,5.51,0,0,1-4.64.17c-1.93-.71-3.81-1.52-5.88-2.35-3.26,3.74-7.07,2.91-11,1.45-1.34-.5-2.75-.82-4.1-1.3-2.57-.92-4.93-.92-7.11,1.06-1.44,1.3-3.29,1-5,.81Z"/><path class="cls-3" d="M166,81.24a13.66,13.66,0,0,0-8.33-4.6,3.32,3.32,0,0,0-3.4,1.28l-1.65,2a9.15,9.15,0,0,1-6.67-1.26A10.58,10.58,0,0,0,140,77.29c-.32.15-.75.21-.86.43-1.33,2.64-3.44,3.1-6,2.16a21.79,21.79,0,0,0-8.53-1.82,14,14,0,0,0-1.13,1.33c-2.36,3.45-4.86,4.24-8.53,2.65-2.32-1-4.63-2-7-3.1-.93,1-1.7,1.77-2.4,2.6-1.73,2-4.07,2.22-6.5,1.07-1-.47-1.91-1.15-2.91-1.62a30.22,30.22,0,0,0-2.84-1c-.55.55-1.13,1.06-1.64,1.64a4.08,4.08,0,0,1-3.85,1.48c-2.34-.37-4.67-.9-7-1.5-3.69-1-7.35-2.06-11-3a2.08,2.08,0,0,0-1.82.65c1.91.71,3.77,1.75,5.74,2a40.31,40.31,0,0,1,8.21,2.46c.75.27,1.52.48,2.27.73,3.74,1.23,7.25,1.22,9.93-1.89,1.8-.24,2.94.67,4.19,1.36,4.12,2.28,5.81,2,9.35-1.27.45-.42.89-.86,1.51-1.47,1.49.64,2.9,1.33,4.38,1.86a22.27,22.27,0,0,0,4.55,1.31c2.89.39,5.36-.42,6.91-3.16a10.86,10.86,0,0,1,1-1.23,17.15,17.15,0,0,1,6.8,1.6c3.4,1.31,6.26,1.15,8.1-2.18a9.79,9.79,0,0,1,5.26,1.23,16.12,16.12,0,0,0,4.06,1.34c1.92.28,3.88.16,5-1.82s2.84-1.87,4.58-1.19c1.32.51,2.53,1.33,3.83,1.93A12.08,12.08,0,0,0,166,81.24Z"/><path class="cls-3" d="M67.64,93.91C76,95.67,76,95.67,83.68,94a15.5,15.5,0,0,1,2.89,1.32c3.18,2.3,6.58,1.49,10,.94a27.86,27.86,0,0,1,6.1-.74c3.22.23,5.17-1,6.23-4,.21-.58.5-1.13.72-1.65,2.68-.88,4.77.16,6.83,1.46,1.52,1,1.55.91,3.39.82-2.73-3.38-6.29-4.67-11.41-4.07a5.83,5.83,0,0,0-.7,1.09c-1.55,4.11-1.55,4-5.69,4.15a23.79,23.79,0,0,0-5.63.83c-3.41.93-6.56.77-9.56-1.27A5.77,5.77,0,0,0,81,92.3a12.21,12.21,0,0,1-8.4.57A6.08,6.08,0,0,0,67.64,93.91Z"/><path class="cls-3" d="M47.43,92.85c-.48,1-.82,1.9-1.29,2.7-1.27,2.17-2.73,3-5.15,2.43A47.42,47.42,0,0,1,35.16,96c-.88-.32-1.71-.77-2.72-1.23-4,5.17-9.47,3-14.54,3,2,1.69,2.83,1.82,7.57,2.26,3.1.29,5.52-1.1,8-2.69l6.77,2.22c3.36,1.1,5.89,0,7.74-2.91.25-.4.53-.77,1-1.4,1.45.35,2.94.77,4.46,1.08,2.42.49,4.84.68,6.41-1.77.77-1.23,2.13-.37,3.22-1.28a5.19,5.19,0,0,0-3-2.19c-.4.22-.76.3-.89.51-1.87,3.11-2.39,3.45-5.62,2.86C51.57,94.13,49.77,93.49,47.43,92.85Z"/><path class="cls-3" d="M114.91,63.55c.5,1.22,1.55,1.18,2.6,1.16l-.08.09c-.38-1.48-1.64-1-2.61-1.16Z"/><path class="cls-3" d="M117.51,64.71c.45.74,1,1.06,2.39.19l-2.47-.11Z"/><path class="cls-3" d="M0,68.32l.09,0Z"/><path class="cls-3" d="M114.82,63.64l-2.2-.78.09-.1c.49.94,1.35.86,2.2.8C114.91,63.55,114.82,63.64,114.82,63.64Z"/></g></g></g></svg>