<svg xmlns="http://www.w3.org/2000/svg" xmlns:xlink="http://www.w3.org/1999/xlink" viewBox="0 0 168.3 127.1"><defs><style>.cls-1{fill:#fff;}.cls-2{mask:url(#mask);}.cls-3{fill:#7c4821;}</style><mask id="mask" x="-30.89" y="-20.9" width="167.14" height="141.5" maskUnits="userSpaceOnUse"><path class="cls-1" d="M120.44,24l-11.34.93-.49-.22c-1.8-1.38-3.62-2.74-5.46-4.05a14,14,0,0,0,.3-9.43C100.58,2.32,92.63-1.51,83.77,0A113.57,113.57,0,0,1,68.28,1.5c-.74-6.28-5-11.31-11.5-13.65a13.63,13.63,0,0,0-3.07-4.2,16.34,16.34,0,0,0-22.63,0C29.65-15,28.2-13.54,26.79-12l-1.05.18A125.47,125.47,0,0,0,2-5.51C-6.71-2.15-16.15,1.91-22.32,9.18c-7.28,8.58-7.89,20.15-8.55,30.91C-31.61,52.23-16.72,60-6.79,53.9-5.24,53-3.72,52-2.21,51a14.31,14.31,0,0,0,4.47,9.51A17.12,17.12,0,0,0,15.59,65a12.9,12.9,0,0,0,8,2l33.33-2.9c-.09,5.53,2.21,10.93,7.61,13.78,5.72,3,14,2.7,19-1.81,1,0,2,0,2.14,0,.89,0,3.08-.44,4.88-.74a16,16,0,0,0,13.26,2.29A17.87,17.87,0,0,0,112.39,72a14.78,14.78,0,0,0,4.41-10.91,17.87,17.87,0,0,0-.3-2.44,95.13,95.13,0,0,0,12-4.8C142.58,47,136,22.73,120.44,24Z"/></mask></defs><g id="圖層_2" data-name="圖層 2"><g id="圖層_2-2" data-name="圖層 2"><g id="map_deco_6"><g class="cls-2"><g id="_6" data-name="6"><path class="cls-3" d="M113.42,114.94q-.21-1-.45-1.92c-.31-1.27-.65-2.54-1-3.8-.72-2.5-1.55-5-2.48-7.41-.5-1.31-1-2.61-1.6-3.9-.28-.64-.56-1.28-.86-1.91-.14-.31-.29-.61-.43-.92s-.44-.66-.44-.91c0-.41-.05-.82-.08-1.22.08,0,.17,0,.17-.12a3.85,3.85,0,0,0,0-.48,93.81,93.81,0,0,1,4.1,9,70.09,70.09,0,0,1,2.43,7.25,35.44,35.44,0,0,1,1.21,7.19l.14-.18a5.47,5.47,0,0,1,.41-.54,52.72,52.72,0,0,0-2.82-13A82.33,82.33,0,0,0,106,90c0-.22,0-.43-.07-.64s0-.5,0-.75,0-.36,0-.53a86.23,86.23,0,0,1,6.15,12.4,50.54,50.54,0,0,1,2.29,7,31.43,31.43,0,0,1,.72,7,2.3,2.3,0,0,1-.25,1.09,3,3,0,0,1-.72.91.85.85,0,0,1-.16-.17A3.07,3.07,0,0,1,113.42,114.94Z"/><path class="cls-3" d="M11.94,48.57a20.58,20.58,0,0,0,5.62,2c4,1.06,8.16.07,11.21,1a20.48,20.48,0,0,0,2.62.74c-2.6.79-5.34.39-7.77.08a.1.1,0,0,0-.05.18c5.08,1.86,8.2,0,11.41.19,2.33.12,4.26,1.19,6.35,1.31-3,.86-3.9,1.18-4.31,1.32s-.66.09-1,.12c-1.79.16-3.54,0-5.32.11-.11,0-.08.15,0,.17a15.91,15.91,0,0,0,4.45.33h0l.1,0a19.6,19.6,0,0,0,2-.22,32.1,32.1,0,0,0,6.17-.91,26.31,26.31,0,0,1,2.66-.83c1.74-.25,2.86,1.38,6,1.08-4.26,1.88-7.37,1-12.48,2.17a26.52,26.52,0,0,0,5.64-.22,14.8,14.8,0,0,0,4.69-.49,20.56,20.56,0,0,1,6.29-.2c2,.38,3.89,1.44,5.94,1.5,4,.11,4.92-2.91,16.61,4.78a78.09,78.09,0,0,1,25.32,27.41,8.89,8.89,0,0,1-.19-2,.1.1,0,0,1,0-.08A85.33,85.33,0,0,0,96,76.9,73.28,73.28,0,0,0,84.71,66a73.41,73.41,0,0,0-13-8.24,12.08,12.08,0,0,0-5.84-1.26,12.24,12.24,0,0,1,4.78-.66C74.8,56.16,77.86,58.55,81,61c2.08,1.63,4.1,3.35,6,5.14A98.77,98.77,0,0,1,103.62,86a6.27,6.27,0,0,1,.08-1.37C93.93,69.75,81.25,59.34,74.05,55.29a21.59,21.59,0,0,1-6.61-5.36C66,48.07,67,48.05,61,45c-3.28-1.69-2.93-1.91-4.37-2.3-.47-.2-1.15-.56-1.12-.22-1.2-.17-2.44-.18-3.34-.29a18.24,18.24,0,0,1-5.52-1.81C43.47,39.13,34,36,33.45,35.83c-.05,0-.09.07,0,.08l.71.22c1.45.87,9.92,3.94,11.51,4.51a8,8,0,0,1,2.82,1.29c-1.85-1-4.55-1.17-6.34-1.45-5.51-.87-12.37-4.32-10.15-3.23-1.33-.52-6.25-2.14-7.64-2.55,0,0-.08.07,0,.08a114.47,114.47,0,0,1,12,4.87c-3.82-1.46-7.05-.53-17.06-3.1a13.94,13.94,0,0,0-4.5-.76c-.08.29,3.56,1.37,6.22,1.87,1.1.34,3,.93,4,1.28-1.63-.19-3.31-.2-4.93-.44C15,37.72,9.89,36.39,4.74,36.43a0,0,0,0,0,0,.06c2.13.27,4.23.66,6.33,1.08,2.19.85,4.61.75,8.06,2.13-1.47,0-3.05.38-4.3.48a21.07,21.07,0,0,1-10.69-2s-.07.05,0,.07a24.17,24.17,0,0,0,6.66,2.61c-.86.07-1.83.18-2.69.3a3.34,3.34,0,0,0-.43-.1c-1.14-.42-2.39-.68-3.51-1-1.34-.41-2.67-.94-4-1.26C0,38.76,0,38.91,0,39a44.11,44.11,0,0,0,7.43,2.72c1.88.83,1.76.94,2.48,1.86a46.89,46.89,0,0,1-5.13-1.18,22.67,22.67,0,0,0,5.71,1.85,14.33,14.33,0,0,0,2.53,2.18c-1.63-.3-3.26-.7-4.84-1.15-2-.56-3.9-1.36-5.9-1.81-.37-.08-.06.67,6.22,2.4a54.22,54.22,0,0,0,5.73,1.37c.13,0,.27,0,.4.06.58.18,1.14.41,1.73.53a20.87,20.87,0,0,1,2.08.47c1.39.45,2.35,1.62,3.73,2.28a22.61,22.61,0,0,1-3.43-.16A26.11,26.11,0,0,1,12,48.43.08.08,0,0,0,11.94,48.57Zm2.19-4.22a9.33,9.33,0,0,1,3.25.13h.05a12.72,12.72,0,0,0,1,1.06l-.57-.19a15.9,15.9,0,0,0-2.18-.5s0,.06,0,.06a14.63,14.63,0,0,1,2,.81l.66.34-.52,0A6.47,6.47,0,0,1,16.77,46a3.61,3.61,0,0,1-.49-.13s0,.06,0,.06a3.13,3.13,0,0,0,.46.23,6.17,6.17,0,0,0,1.1.36,7,7,0,0,0,.76.11,10.62,10.62,0,0,1-2.72.18L15,46.56a4.62,4.62,0,0,1-1.81-1.21,7.89,7.89,0,0,0-1.35-1A11,11,0,0,0,14.13,44.35Zm.44-2.24L14.25,42a7.72,7.72,0,0,0-1.8-.2,4.89,4.89,0,0,0-.59,0l-.22,0s0,.07,0,.07h.22a4.81,4.81,0,0,1,.58,0,7.92,7.92,0,0,1,1.7.42,7.62,7.62,0,0,1,1.07.52l-2.54-.17s0,0,0,.06l2,.53a17.93,17.93,0,0,1-2,.33,12.33,12.33,0,0,1-1.49,0c-.23-.32-.57-.56-.83-.88a4.89,4.89,0,0,0-1-1.05A1.75,1.75,0,0,0,9,41.55c.33,0,.67-.06,1-.11a21.86,21.86,0,0,1,2.41-.17A12.47,12.47,0,0,1,14.57,42.11Zm7.25-1a4.37,4.37,0,0,1,.78,1,5.36,5.36,0,0,0-.94-.54,4.57,4.57,0,0,0-1.56-.39c-.22,0-.4,0-.53,0h-.19s0,.07,0,.07l.19,0a3.23,3.23,0,0,1,.51.08,4.64,4.64,0,0,1,1.4.58,4.57,4.57,0,0,1,1,.86,5.41,5.41,0,0,0-1.15-.37,4.73,4.73,0,0,0-.63-.08s0,.06,0,.06a5.8,5.8,0,0,1,.6.19,4.66,4.66,0,0,1,1.19.64,4.37,4.37,0,0,1,.95.9l.09.11-2.2-.87s0,.05,0,.06l2.4,1.48h-.85a8.29,8.29,0,0,1-1.09-.15,9.73,9.73,0,0,1-1.21-.36,10.25,10.25,0,0,1-1.15-.56,7.32,7.32,0,0,1-.92-.65,3.62,3.62,0,0,1-.34-.29l-.26-.24-.21-.22s-.06,0-.05,0l.19.24a2.6,2.6,0,0,0,.24.27c.09.1.19.22.31.33a9.17,9.17,0,0,0,.89.75,8.41,8.41,0,0,0,1.14.69,10.81,10.81,0,0,0,1.24.51l.39.1q-.46.18-.9.39l-.3.14a6.29,6.29,0,0,1-3.25-2.35,7.68,7.68,0,0,0-2.52-2,13.12,13.12,0,0,0-1.25-.58c1.15,0,2.28-.17,3.42-.31A9.41,9.41,0,0,1,21.82,41.11Zm2.1,3.9,0,0h0Zm4.17-4.51a5.17,5.17,0,0,1,1.31.84,8.2,8.2,0,0,0-1.22-.55,6.68,6.68,0,0,0-1.14-.3c-.17,0-.33-.06-.47-.08l-.36,0-.32,0s0,.06,0,.07l.31,0a3.08,3.08,0,0,1,.35.07,2.93,2.93,0,0,1,.45.11,7.54,7.54,0,0,1,2.22,1.05,8.16,8.16,0,0,1,1,.83,7.56,7.56,0,0,1,.68.78c.08.15.17.29.25.43l-.2-.15a15.13,15.13,0,0,0-1.82-1.11c-.51-.27-.87-.43-.87-.43s0,.05,0,.06.33.19.81.51a16.53,16.53,0,0,1,1.65,1.29,15.4,15.4,0,0,1,1.46,1.48c.05.06.09.12.14.17-.25-.09-.51-.19-.77-.31a10.92,10.92,0,0,1-1.64-.93s-.05,0,0,0a11.18,11.18,0,0,0,1.48,1.23l.2.13a8.87,8.87,0,0,1-1.4-.3,8.18,8.18,0,0,1-1.44-.62c-.38-.21-.61-.37-.61-.37s0,0,0,.05a6.57,6.57,0,0,0,.56.46,8.19,8.19,0,0,0,1.32.81,7.48,7.48,0,0,1-1.08-.25A8.32,8.32,0,0,1,27.55,45a8.21,8.21,0,0,1-1.17-.78,7.23,7.23,0,0,1-.88-.86l-.17-.2-.15-.19L25,42.62l-.18-.28s-.07,0-.06,0l.16.3a3.24,3.24,0,0,0,.2.33l.13.21.15.21a7.83,7.83,0,0,0,.84,1,8.91,8.91,0,0,0,1.15.92,8.23,8.23,0,0,0,1.31.69,8.09,8.09,0,0,0,1.25.4l.44.08a5.36,5.36,0,0,0-.86.44l0,0a9.16,9.16,0,0,1-3.73-1.21,4.21,4.21,0,0,1-.86-.88l0-.07-.11,0a8.87,8.87,0,0,1-.8-1.49A6.52,6.52,0,0,0,21.65,40,8.83,8.83,0,0,0,20,39.23c1.46.17,2.93.3,4.39.45A12.78,12.78,0,0,1,28.09,40.5Zm5.11,5.58.06.05h-.07Zm2.31,1.25ZM38,41.9l-.49-.29a12.82,12.82,0,0,0-3.07-1.18A12.62,12.62,0,0,0,33,40.19c-.21,0-.4,0-.57,0l-.44,0H31.6s0,.06,0,.06l.38,0,.43.06.55.09a11.36,11.36,0,0,1,1.37.34,13.84,13.84,0,0,1,1.49.58,15.26,15.26,0,0,1,1.39.78,11.21,11.21,0,0,1,1.1.83c.16.13.3.25.41.36a3,3,0,0,1,.31.3l.23.24a7.29,7.29,0,0,0-.87-.65,7.84,7.84,0,0,0-1.83-.84,4.83,4.83,0,0,0-.64-.17l-.25-.05s0,.06,0,.06l.23.08c.15.05.36.13.61.24a7.61,7.61,0,0,1,1.66,1,7.29,7.29,0,0,1,1.26,1.32,17.54,17.54,0,0,0-1.67-1c-.54-.26-.9-.41-.9-.41s-.05,0,0,.06.35.19.84.5a17.84,17.84,0,0,1,1.74,1.27,15.93,15.93,0,0,1,1.43,1.35c-.37-.11-.77-.24-1.16-.39a15.48,15.48,0,0,1-1.92-.86c-.51-.27-.84-.47-.84-.47s0,0,0,0,.3.24.78.57a15.92,15.92,0,0,0,1.78,1,10.67,10.67,0,0,1-1.51-.4,11.68,11.68,0,0,1-1.73-.74,12.05,12.05,0,0,1-1.6-1,11.11,11.11,0,0,1-1.26-1.07l-.25-.24-.21-.24a5,5,0,0,1-.34-.38l-.28-.35s-.07,0,0,0,.09.14.26.37.19.25.31.41l.2.25.24.26a11.4,11.4,0,0,0,1.21,1.17A13.4,13.4,0,0,0,36,45.75a14.21,14.21,0,0,0,1.74.88,12.72,12.72,0,0,0,1.54.52,10,10,0,0,1-4.45-1A7.49,7.49,0,0,1,32.27,44a24.29,24.29,0,0,0-2-3,12.57,12.57,0,0,0-5.4-2.69c.92.14,1.83.27,2.75.39a45,45,0,0,1,6.63,1.21A12.6,12.6,0,0,1,38,41.9Zm1.33,1.91v0l0,.05ZM49.68,44l.09.32a12.22,12.22,0,0,0-1.14-.81,10.29,10.29,0,0,0-3-1.24A10.3,10.3,0,0,0,44.26,42c-.21,0-.39,0-.56,0a3.25,3.25,0,0,0-.43,0h-.38s0,.06,0,.07l.37,0,.43,0,.54.09a9.29,9.29,0,0,1,1.34.33,11.2,11.2,0,0,1,1.45.61,9.42,9.42,0,0,1,2.36,1.68,4.53,4.53,0,0,1,.38.38l.08.09-.25-.16a10.14,10.14,0,0,0-2.17-1.05c-.31-.11-.58-.18-.76-.23l-.29-.07s0,0,0,.06l.28.1a7.19,7.19,0,0,1,.73.3,10.39,10.39,0,0,1,2,1.21A10.74,10.74,0,0,1,51,47.05v0l-2.81-1.49s0,0,0,.05l2.23,1.54a17.07,17.07,0,0,1-4-1.46c-.54-.28-.89-.49-.89-.49s0,0,0,.05.32.25.84.58a16.91,16.91,0,0,0,2,1.11,17.11,17.11,0,0,0,2.11.86l.1,0-.68,0a13.93,13.93,0,0,1-1.9-.3,15,15,0,0,1-2.1-.67,15.9,15.9,0,0,1-2-1,15.21,15.21,0,0,1-1.58-1.12L42,44.48l-.27-.25c-.17-.16-.32-.3-.43-.42l-.36-.37s-.08,0,0,0l.34.4c.11.13.25.27.41.44l.26.26.31.28a13.16,13.16,0,0,0,1.54,1.23A14.47,14.47,0,0,0,47.85,48c.51.13,1,.25,1.45.33a16.51,16.51,0,0,1-2.11,0,10.32,10.32,0,0,1-3.39-1,8.58,8.58,0,0,1-3-2.45,13.73,13.73,0,0,1-1.5-3.34,3.66,3.66,0,0,0-1-1.43c.73.26,1.47.5,2.24.7,1.4.36,2.83.53,4.25.79a11.69,11.69,0,0,1,2.78.82A12.62,12.62,0,0,1,49.68,44Zm2.07,4.11.08.05h-.08Zm6.83-2.78a2.59,2.59,0,0,1,.09.4c-.12-.16-.25-.32-.4-.49a5.83,5.83,0,0,0-.74-.65,4.86,4.86,0,0,0-1.65-.75l-.33-.07-.26,0-.22,0s0,.06,0,.07l.22,0a1.53,1.53,0,0,1,.24.07,2.22,2.22,0,0,1,.31.1,4.42,4.42,0,0,1,1.45.9,6.1,6.1,0,0,1,.59.68,4.35,4.35,0,0,1,.39.66,2.66,2.66,0,0,1,.11.28,1.52,1.52,0,0,1,.08.22h0a3.87,3.87,0,0,0-.43-.49,4,4,0,0,0-1-.68,3.73,3.73,0,0,0-.52-.18s0,.05,0,.06a2.89,2.89,0,0,1,.45.27,3.37,3.37,0,0,1,.8.8,3.26,3.26,0,0,1,.48,1c0,.16.06.28.08.36L58,47.59a7,7,0,0,0-1.14-.83c-.33-.19-.56-.3-.56-.3s0,0,0,.06a5.69,5.69,0,0,1,.49.38,6.28,6.28,0,0,1,.95,1,6.4,6.4,0,0,1,.62.91l-2.89-1.84s-.05,0,0,.05l2.28,2.06c-.33-.11-.7-.24-1.08-.4a14.87,14.87,0,0,1-1.45-.71,13.52,13.52,0,0,1-2.44-1.78,5.16,5.16,0,0,1-.41-.39,4.16,4.16,0,0,1-.3-.31l-.26-.28s-.07,0,0,0l.24.3c.07.1.17.21.28.34l.38.43a14.2,14.2,0,0,0,2.36,2c.47.31,1,.6,1.43.85l.56.26a13.6,13.6,0,0,1-3.45-1.3,7.5,7.5,0,0,1-2.42-2.27,5.45,5.45,0,0,1-.29-.53l0,0-.07-.07c-.28-.64-.42-1.31-.65-2A3.46,3.46,0,0,0,49.39,42l.83.26a34.21,34.21,0,0,0,4.14.75,8.38,8.38,0,0,1,2.45.65A5.32,5.32,0,0,1,58.58,45.3Zm-.22,2.63.11,0c0,.05,0,.09,0,.13Zm.2-1,.07,0,0,.09Zm9.51,6.54c-.14-.4.11-1.08-.13-1.43a13.21,13.21,0,0,0,1.58,1.75c.39.39.81.82,1.27,1.2-.31-.26-1.18,0-1.62-.28A2.42,2.42,0,0,1,68.07,53.42Zm-2.56-.28a16.31,16.31,0,0,1-2.39-1.62A15.84,15.84,0,0,1,61,49.41c-.26-.31-.46-.59-.6-.78l-.22-.31s-.07,0-.05,0l.19.32a9.16,9.16,0,0,0,.54.83,15.9,15.9,0,0,0,2,2.31c.4.38.82.74,1.23,1.06a10.94,10.94,0,0,0,1,.73l-.14.08a14.73,14.73,0,0,1-1.64-.83l0-.12L63,52.67l-.45-.26C61.08,51.55,59,49.87,59.16,48c.08-1.11.52-2,.19-3l1,.57c1.47.91,3.05,1.65,4.48,2.61a4.88,4.88,0,0,1,1.83,2.19,5.74,5.74,0,0,0-.36-.5A6.9,6.9,0,0,0,64,48a5.87,5.87,0,0,0-.88-.37l-.34-.11s-.05,0,0,.06l.33.14A6.57,6.57,0,0,1,66,50.07a6,6,0,0,1,.68,1.34l0,0a9.83,9.83,0,0,0-1.35-1.42,7.53,7.53,0,0,0-.7-.55s0,0,0,.06a8,8,0,0,1,.62.61,9.51,9.51,0,0,1,1.14,1.53A9.11,9.11,0,0,1,67,53l-1.68-2.06s-.06,0,0,0l1.25,2.25a14.62,14.62,0,0,1-1.21-.86,18.8,18.8,0,0,1-2-1.81s-.06,0-.05,0A18.08,18.08,0,0,0,65,52.64Zm-.12.66.22.14-.18-.06ZM52.81,55.71a10.56,10.56,0,0,0,2.86-2,8.86,8.86,0,0,1,1.89-1.83,6.11,6.11,0,0,1,2.63-.45c.16.15.33.29.5.43a6.38,6.38,0,0,0-1.38.26,6.65,6.65,0,0,0-1.41.64,5.79,5.79,0,0,0-.57.39s0,.06,0,.06a5.07,5.07,0,0,1,.61-.3,6.31,6.31,0,0,1,1.42-.4,5.51,5.51,0,0,1,1.45,0,5.38,5.38,0,0,1,.64.1v-.13l.3.19-.32,0a5.73,5.73,0,0,0-1.22.3,4.37,4.37,0,0,0-.52.23s0,.06,0,.06a3.57,3.57,0,0,1,.54-.12,4.92,4.92,0,0,1,1.19-.07,4.83,4.83,0,0,1,1.15.21,4.24,4.24,0,0,1,.49.17l0-.06.19.1a10.21,10.21,0,0,0,1.15.46c-.36.19-.82.41-1.3.61a17,17,0,0,1-2.2.71s0,.06,0,.06a15.59,15.59,0,0,0,2.31-.4,14.92,14.92,0,0,0,2.15-.7l.39.11-.4.22c-.36.19-.79.39-1.26.58a11.27,11.27,0,0,1-1.52.49,11.53,11.53,0,0,1-1.58.3,12.24,12.24,0,0,1-1.4.09,5.09,5.09,0,0,1-.56,0l-.43,0-.38,0s0,.06,0,.07l.38,0a3.71,3.71,0,0,0,.43.06l.57,0a13.15,13.15,0,0,0,1.43,0A14,14,0,0,0,62.77,56a13.52,13.52,0,0,0,1.61-.39,12.24,12.24,0,0,0,1.36-.51c.19-.08.37-.16.52-.24l.4-.21.17-.09.59.15c-1.92.86-3.82,2.21-5.92,2.37s-4.2-1.1-6.37-1.17h-.9A6.46,6.46,0,0,0,56,55.44a10.32,10.32,0,0,0-3,.25Zm-8.34-2c1.82-.92,2.67-2.63,4.26-3.79a6.13,6.13,0,0,1,3-1.14,4.55,4.55,0,0,1,1.17.06l.09.06,0,0,.68.11.24.13c.23.12.47.24.73.35a11,11,0,0,0-1.8.08,11.69,11.69,0,0,0-1.92.45,9.83,9.83,0,0,0-1.58.69l-.31.17-.28.17a5.08,5.08,0,0,0-.43.3l-.37.28s0,.06,0,0l.38-.25a4.09,4.09,0,0,1,.45-.27l.28-.15.32-.15A9.56,9.56,0,0,1,51,50.26,11.3,11.3,0,0,1,52.9,50a11.93,11.93,0,0,1,1.9,0,11.45,11.45,0,0,1,1.4.29h-.71a13.57,13.57,0,0,0-2.36.29c-.32.07-.57.14-.76.2l-.28.08s0,.06,0,.06l.29,0c.18,0,.44-.08.76-.12a12.32,12.32,0,0,1,2.32-.06,11,11,0,0,1,1.61.21l0,0s0,0,0,0L53.46,52s0,.06,0,.06l2.69-.4a11,11,0,0,1-.91.62,11.81,11.81,0,0,1-1.38.68,10.79,10.79,0,0,1-1.47.46,9.41,9.41,0,0,1-1.33.22l-.54,0h-.79s0,.06,0,.06l.36,0c.12,0,.26,0,.43,0h.55a10.17,10.17,0,0,0,1.37-.11A11.3,11.3,0,0,0,54,53.35a11,11,0,0,0,1.49-.59l.13-.08-.94.9a6.94,6.94,0,0,1-5.28.7c-1.38-.28-2.51-.79-3.9-.41-1.66.45-3.26,1-5,1.3l.24-.08A19,19,0,0,0,44.47,53.73ZM33.86,52.17h0c1.88-1.05,3.15-3,5.11-3.88a6.19,6.19,0,0,1,3.35-.43c.39,0,.78.14,1.17.23l.22.1c-.36,0-.72,0-1.08.08a15.22,15.22,0,0,0-1.9.37,14.17,14.17,0,0,0-1.6.54c-.23.09-.44.18-.62.27l-.46.23-.4.21s0,.07,0,.06l.41-.19.47-.19a5.64,5.64,0,0,1,.63-.23,14.56,14.56,0,0,1,1.6-.43,14,14,0,0,1,1.88-.24,14.63,14.63,0,0,1,1.88,0c.26,0,.5,0,.74.09s.48.13.73.18l-3.49.61s0,.06,0,.06l4.19-.28-2.92,1.15s0,.06,0,.06l3.43-.89h0L47,49.9l-.27.21a8.68,8.68,0,0,1-1.38.9,9.8,9.8,0,0,1-3.64,1.12,9.7,9.7,0,0,1-1.68,0l-.36,0-.31,0a4.59,4.59,0,0,1-.52-.09l-.44-.09s0,0,0,.06l.44.13.51.11.32.07.36.05a10.36,10.36,0,0,0,1.72.07,10.52,10.52,0,0,0,3.85-.93c.37-.18.72-.36,1-.55l0,.06a8,8,0,0,1-1.2,1.2,5,5,0,0,0-1.18.47,6.9,6.9,0,0,1-2.59.67,16.59,16.59,0,0,1-4.23-.82A12.43,12.43,0,0,0,33.86,52.17Zm-8.42-1.6a2.91,2.91,0,0,0,.31-.3,18.06,18.06,0,0,0,2.9-2,7.25,7.25,0,0,1,5.56-1.49h0a8.47,8.47,0,0,0-3.15,1l-.52.32-.19.13s0,.07,0,.06a6.37,6.37,0,0,1,.76-.36,8,8,0,0,1,1.75-.48,7.51,7.51,0,0,1,1.79-.08l.48,0a11.14,11.14,0,0,0-2.12.65c-.29.12-.53.25-.7.33l-.26.14s0,.07,0,.06l.27-.11a7.59,7.59,0,0,1,.72-.26,10.35,10.35,0,0,1,2.27-.45,10.58,10.58,0,0,1,1.79,0l.12,0-.09,0h0l0,0-3.55,1.26s0,.06,0,.06l2.76-.59c-.06,0-.11.09-.18.13a8.36,8.36,0,0,1-1.12.75,9.68,9.68,0,0,1-1.42.63,10.51,10.51,0,0,1-1.52.37,8.5,8.5,0,0,1-1.37.1h-.28l-.26,0-.43,0-.36,0s0,.06,0,.06l.37.08.42.08.27,0,.29,0a9.23,9.23,0,0,0,1.4,0,10.41,10.41,0,0,0,1.61-.27,9.69,9.69,0,0,0,1.54-.55l.41-.2-.24.22a11,11,0,0,1-2.08,1.56,6.32,6.32,0,0,1-.71.16,6,6,0,0,1-2.34-.25,23.18,23.18,0,0,0-3.06-.76A12.07,12.07,0,0,0,25.44,50.57ZM20,48.22a8.15,8.15,0,0,0-2.71-.83A9.11,9.11,0,0,0,19.42,47c1.14-.34,2.16-.9,3.32-1.21a9.67,9.67,0,0,1,1.16-.24H24c.25,0,.46,0,.54.07s.23.26.35.38l.34.28H24.8a8,8,0,0,0-1.72.25c-.46.12-.75.23-.75.23s0,.06,0,.06a7,7,0,0,1,.76-.12,7.73,7.73,0,0,1,1.68,0,7.46,7.46,0,0,1,1.63.32l.14,0,.37.13.1,0-2.13.35s0,.06,0,.07l2.39,0-1.8.7s0,.06,0,.06l2.08-.33-.17.13a5.82,5.82,0,0,1-.84.5,7.75,7.75,0,0,1-1.06.37,6.34,6.34,0,0,1-1.13.14,5.22,5.22,0,0,1-1-.06L23,49.13l-.3-.08L22.45,49s0,0,0,.06l.25.12a2.45,2.45,0,0,0,.3.11,1.8,1.8,0,0,0,.39.12,5.47,5.47,0,0,0,1,.18,6.07,6.07,0,0,0,1.2,0c.25,0,.49-.08.72-.14a4.83,4.83,0,0,1-.45.26A6.13,6.13,0,0,1,25,50C23.06,50.32,21.67,49.1,20,48.22Z"/><path class="cls-3" d="M74.4,58.35c-.41-.25-.68-.41-.84-.52l-.22-.15.25.09c.18.07.48.18.92.38a31.54,31.54,0,0,1,4.68,2.73,30,30,0,0,1,4.2,3.5c.36.35.57.6.7.75l.18.21L84,65.18l-.8-.64c-.77-.61-2-1.7-4.3-3.29S75.23,58.86,74.4,58.35Z"/><path class="cls-3" d="M108.41,96.18a26.49,26.49,0,0,1-2-4.37A25.35,25.35,0,0,1,108.8,96a24,24,0,0,1,1.93,4.31A24.72,24.72,0,0,1,108.41,96.18Z"/><path class="cls-3" d="M104.62,89.24a114.52,114.52,0,0,0-2.27-11.83A116.36,116.36,0,0,0,98.82,66c-.37-1-.6-1.66-.75-2.06l-.19-.54s.08.13.26.52.48,1,.89,2a78.18,78.18,0,0,1,3.75,11.38,78,78,0,0,1,2.06,11.9c.11,1.1.14,1.82.16,2.26s0,.6,0,.6,0-.16-.1-.6S104.77,90.33,104.62,89.24Z"/><path class="cls-3" d="M105.11,120.59a18,18,0,0,0,.31-2.45,149,149,0,0,0,1.48-16.47,83.53,83.53,0,0,0-4.56-31c-.89-2.47-1.9-4.92-3-7.29-1-2-2-4-2.81-6.11a16.92,16.92,0,0,1-1-7.22c0-.48,0-1.16-.65-1.17h-.08c0-.2.09-.39.13-.58a8.07,8.07,0,0,0-.94-5,37.49,37.49,0,0,0-3.52-5.06,28.38,28.38,0,0,1-2.51-4.63c-.86-1.78-1.63-3.62-2.42-5.45-.05-.13-.25,0-.2.09.52,1.53,1,3.06,1.56,4.58.3.83.55,1.78.92,2.64.08.41.17.83.22,1.25-1.28-2-3.17-3.6-3.91-5.87A35.84,35.84,0,0,0,83,27.27a9.57,9.57,0,0,0-2.33-3.14c.52,1.06,1.14,2.06,1.6,3.14a20.85,20.85,0,0,1,.9,3.27A5.38,5.38,0,0,1,83,31.59a35.8,35.8,0,0,0-3.14-6.43,28,28,0,0,0-1.45-2.47,13.82,13.82,0,0,0-1.87-2.18,11.93,11.93,0,0,1,1.71,5.25c-1-1.5-2.16-2.85-3.17-4.33-.81-1.17-1.13-2.6-1.91-3.76-1.59-2.36-3.47-4.54-5.15-6.86,1.17,2.37,2.65,4.62,3.73,7a9.65,9.65,0,0,0-1-.88c-1.75-1.4-3.64-2.5-5.27-4.06s-3.16-3.36-4.74-5C59.5,6.49,58,4.61,56.18,4c-.07,0-.13.06-.09.11,1.15,1.56,2.88,2.77,4.2,4.2.87.93,1.71,1.89,2.56,2.82-1-.56-2.09-1-3.2-1.57-2.46-1.26-4.47-3.08-6.71-4.62a38.39,38.39,0,0,0-6.6-3.71c-.07,0-.14.08-.07.12a76.8,76.8,0,0,1,7.5,5.05s0,0,0,0l.78.67a21.14,21.14,0,0,1,1.57,1.57c-.46-.19-.94-.34-1.41-.5A18.12,18.12,0,0,1,50.36,6a46.24,46.24,0,0,1-3.73-3c-1.23-1-2.54-1.87-3.71-3h0c1.1,1.08,2,2.35,3.1,3.39.58.54,1.19,1,1.82,1.52a.17.17,0,0,0,0,.22c1.35,1.26,2.85,2.41,3.52,4.2a10.67,10.67,0,0,0,.93,2.17C49,10,46.79,7.2,44.49,4.58A.31.31,0,0,0,44,5a32.33,32.33,0,0,0,4.65,5c1.07,1.14,2.13,2.29,3.12,3.5.78,1,1.58,2.36,2.53,3.57a106.32,106.32,0,0,0-9-6.25.08.08,0,0,0-.09.13c3.32,2.94,7.18,5.35,10.75,8,1.52,1.12,2.44,2.7,3.76,4-.58-.56-2-.61-2.69-1-1.24-.58-2.45-1.22-3.68-1.83.82.41,1.46,1.35,2.26,1.84a26.94,26.94,0,0,0,3,1.69c.9.4,1.86.6,2.77,1a7.67,7.67,0,0,1,2.55,2.16c.2.23.42.46.64.69-1.27-.41-2.51-.92-3.76-1.38a8.74,8.74,0,0,1,1.78,1.21c.6.42,1.2.79,1.76,1.27a29,29,0,0,1,3.52,3.49c.5.6,1,1.21,1.47,1.77l-1.81-1a.39.39,0,0,0-.25,0l-.06,0c-1-.7-2-1.49-3-2.28-.06-.05-.16,0-.1.11a17.17,17.17,0,0,0,2.8,2.63.3.3,0,0,0,.16.21c.86.5,1.72,1,2.61,1.54l0,0A19.59,19.59,0,0,1,73,37.44c1.46,1.41,2.37,3.29,3.82,4.72l-.1,0c-.29-.08-.61.24-.38.51,2.12,2.5,4.11,5.57,7.15,7.06a6.53,6.53,0,0,0,1.91.57.39.39,0,0,0,.2.49,19.46,19.46,0,0,1,6.11,4.15,17.73,17.73,0,0,1,1.54,1.81,119.8,119.8,0,0,1,5,11.15,92.87,92.87,0,0,1,5.94,25.23,93.8,93.8,0,0,1,.29,13.2c-.11,2.12-.26,4.25-.45,6.37-.1,1.15-.25,2.29-.35,3.44-.05.52-.14,1-.14,1.54a5.4,5.4,0,0,0,.28,1.88C104,119.73,105.13,120.52,105.11,120.59ZM79.46,43.35c1.09.15,2.19.25,3.3.41a9.6,9.6,0,0,1,1,.17,10.58,10.58,0,0,1,1.71.51,11.91,11.91,0,0,1,2,1v0c-.18-.09-.41-.19-.68-.3a12.84,12.84,0,0,0-2.46-.75,13.26,13.26,0,0,0-2.54-.28c-.35,0-.64,0-.84,0l-.32,0s0,.06,0,.06h.32c.2,0,.49,0,.83.07a13.07,13.07,0,0,1,2.45.49,13.82,13.82,0,0,1,2.3.94,6.14,6.14,0,0,1,.7.4l.27.16,0-.09a9.94,9.94,0,0,0,.31,1.38l-1.91-.07s0,.06,0,.06l2.17.74h0l.07.18h-.25l-.51,0a11.25,11.25,0,0,1-1.28-.15A13.41,13.41,0,0,1,84.64,48a12.46,12.46,0,0,1-2.55-1.13l-.44-.28-.33-.22L81,46.16s-.06,0,0,.05l.26.23.32.26c.12.1.26.2.42.31a11.45,11.45,0,0,0,2.51,1.36,11.85,11.85,0,0,0,1.46.48c.47.12.92.21,1.32.27l.53.06.32,0a6,6,0,0,1-1.22.25,6.47,6.47,0,0,1-4.11-1.15A25.81,25.81,0,0,1,77.56,43l.37.08C78.43,43.2,78.94,43.28,79.46,43.35Zm-5.15-6.71c1,.11,2.16.1,3.26.16l.63.05a7.46,7.46,0,0,1,3.46,1c0,.11,0,.22,0,.33s0,.24,0,.36a7.87,7.87,0,0,0-3.29-1.16,5.69,5.69,0,0,0-.63,0h-.23s0,.06,0,.07l.24,0a4.46,4.46,0,0,1,.6.12,7.26,7.26,0,0,1,1.73.64,7.42,7.42,0,0,1,1.49,1l.12.11c0,.16,0,.32,0,.47-.15-.08-.3-.16-.46-.23a6.79,6.79,0,0,0-1.45-.47s0,.06,0,.06A6.29,6.29,0,0,1,81,40a5.43,5.43,0,0,1,.8.74c0,.2.1.4.16.6l-1.3-.66s0,0,0,0l1.71,1.55a5,5,0,0,0,.41.71h-.07l-.32-.08a8.3,8.3,0,0,1-.82-.25,12.33,12.33,0,0,1-2.39-1.1,12.54,12.54,0,0,1-2.13-1.59l-.62-.62L76.21,39s-.07,0,0,0l.2.27c.13.16.32.41.57.68a13.36,13.36,0,0,0,2,1.8,11.31,11.31,0,0,0,1.33.84c-.69-.07-1.37-.14-2-.24a13.48,13.48,0,0,1-2-2.07,23.48,23.48,0,0,0-2.88-3.75l-.2-.17A8.62,8.62,0,0,0,74.31,36.64ZM72.86,30a6.7,6.7,0,0,1,.91.21,5.18,5.18,0,0,1,2.44,1.46l.06.44-.53-.34a12,12,0,0,0-1.29-.65,11.57,11.57,0,0,0-2.57-.77c-.18,0-.35-.06-.5-.07a3.08,3.08,0,0,0-.38,0l-.33,0s0,.06,0,.06l.33.06.37.07.48.12a10.94,10.94,0,0,1,2.44,1,13.21,13.21,0,0,1,1.18.73c.36.27.68.52.94.76l.24.23v.12c-.21-.15-.44-.29-.68-.43a10.62,10.62,0,0,0-1.82-.82s0,0,0,.06a11.06,11.06,0,0,1,1.61,1.09,9.23,9.23,0,0,1,.94.88c0,.12,0,.23,0,.34l-1.59-.74s0,0,0,.05L76.81,35a5.75,5.75,0,0,0,.23.78H77a5.32,5.32,0,0,1-.59-.13,11.93,11.93,0,0,1-1.46-.42,14,14,0,0,1-1.61-.7,15.84,15.84,0,0,1-1.51-.9,13.49,13.49,0,0,1-1.21-.95c-.17-.14-.32-.28-.45-.41s-.25-.24-.34-.34l-.29-.3s-.06,0,0,0l.27.32a4.36,4.36,0,0,0,.32.37,5.77,5.77,0,0,0,.43.45,11.35,11.35,0,0,0,1.16,1,13.81,13.81,0,0,0,1.48,1,15.39,15.39,0,0,0,1.61.83l.16.07a11.79,11.79,0,0,1-2.05-.3h0a8.65,8.65,0,0,1-2.92-2.15,36.09,36.09,0,0,0-2.45-2.8c-.52-.49-1.06-1-1.61-1.44a9.79,9.79,0,0,0,2,.5C69.48,29.78,71.25,29.7,72.86,30Zm3.85,2.42h0v0ZM62.84,24.24A20.61,20.61,0,0,0,66.43,24a12.47,12.47,0,0,1,3.27-.36,4.44,4.44,0,0,1,2.36,1.24c0,.28,0,.48,0,.54a5.65,5.65,0,0,0-1.41-.86,5.79,5.79,0,0,0-2.49-.44,4.81,4.81,0,0,0-.83.1l-.3.06s0,.07,0,.07l.31,0a6.05,6.05,0,0,1,.81,0,5.57,5.57,0,0,1,2.32.64,5.22,5.22,0,0,1,1.72,1.49s0,.09,0,.13a4.78,4.78,0,0,0-.69-.44,6.31,6.31,0,0,0-1.31-.53,5.87,5.87,0,0,0-.62-.12s0,.05,0,.06a5.21,5.21,0,0,1,.58.22,5.58,5.58,0,0,1,1.14.7,5.36,5.36,0,0,1,.86.86v.38l-1.83-.54s0,.06,0,.06l1.88,1c0,.2,0,.39.09.59h-.09a10.05,10.05,0,0,1-1.33-.14,10.89,10.89,0,0,1-1.48-.4A10.11,10.11,0,0,1,68,27.56a9.44,9.44,0,0,1-1.14-.72l-.44-.33c-.12-.11-.23-.19-.31-.27L65.83,26s-.07,0,0,0l.25.27a4.22,4.22,0,0,0,.3.3c.12.12.26.24.41.37a11,11,0,0,0,1.11.83,13.4,13.4,0,0,0,1.41.75l.27.1a16.37,16.37,0,0,1-2.12-.2h0A5.62,5.62,0,0,1,65,27.07c-.62-.62-1.17-1.3-1.81-1.91a5.41,5.41,0,0,0-1.36-.95A2.78,2.78,0,0,0,62.84,24.24Zm9.51,1.3v.05a.46.46,0,0,1-.07-.07Zm-.08,0-.14-.13.18,0C72.29,25.46,72.27,25.51,72.27,25.52Zm-1.93-3.67s-.06,0-.06,0l.4,1.41A4,4,0,0,0,69.62,23a5.89,5.89,0,0,1-.71-1.26,5.65,5.65,0,0,1-.39-1.56,3.72,3.72,0,0,1,0-.53v-.21s-.06,0-.06,0l0,.2c0,.13,0,.32,0,.55a6.17,6.17,0,0,0,.18,1.68A7.15,7.15,0,0,0,68.94,23l-.65,0a7.7,7.7,0,0,1-.53-2.52c.06-.84.32-1.64.39-2.47a4.18,4.18,0,0,0-.61-2.63c.37.29.75.56,1.15.82a14.17,14.17,0,0,1,2.66,2.09,9.1,9.1,0,0,1,1.29,2.29,7,7,0,0,1,.08.91,2.44,2.44,0,0,0-.1-.24,7.11,7.11,0,0,0-1.72-2.48,6.93,6.93,0,0,0-.77-.62c-.19-.14-.31-.21-.31-.21s-.06,0,0,.06.11.07.3.22a6.68,6.68,0,0,1,.7.67,6.87,6.87,0,0,1,1.47,2.5,6.65,6.65,0,0,1,.29,2.72,12.22,12.22,0,0,0-.48-1.29,11.6,11.6,0,0,0-.82-1.52c-.25-.39-.44-.64-.44-.64s-.06,0,0,0,.15.28.34.7a11.82,11.82,0,0,1,.6,1.57c.09.33.17.65.23,1a6,6,0,0,0-.59-.39ZM57.63,19.39c1.21.39,2.34-.34,3.67-.52h0a6.33,6.33,0,0,1,.86-.06,6.87,6.87,0,0,1,4.61,1.93v.05a4.23,4.23,0,0,0-.42-.25A8.78,8.78,0,0,0,65.08,20a10.17,10.17,0,0,0-1.36-.31,8.93,8.93,0,0,0-1.21-.07,3.43,3.43,0,0,0-.48,0l-.37,0-.32,0s0,.07,0,.07l.32,0H62l.48,0a8.06,8.06,0,0,1,1.16.18,7.81,7.81,0,0,1,1.27.41,10,10,0,0,1,1.17.62,8,8,0,0,1,.68.51,3.7,3.7,0,0,0,.07.57L65,21.26s0,0,0,.06l2.29,1.74a.57.57,0,0,0,.11.11l-.27,0L63.75,22s0,.06,0,.06l2.36,1.35-1,.14a10,10,0,0,1-2-.68,10.92,10.92,0,0,1-1.93-1.18c-.25-.19-.44-.37-.58-.49L60.45,21s-.06,0,0,0l.19.22c.12.13.3.33.53.54A9.49,9.49,0,0,0,63,23.19a8.83,8.83,0,0,0,.8.43,7.82,7.82,0,0,1-1.18-.05l-.36,0a10.11,10.11,0,0,1-3.39-2.89,12.72,12.72,0,0,0-1.37-1.27ZM59,13.68c0,.22.06.44.08.66v0a5.23,5.23,0,0,0-1-.44,8.76,8.76,0,0,0-2.74-.4c-.75,0-1.25,0-1.25,0s0,.06,0,.06.5,0,1.24.1a8.36,8.36,0,0,1,2.61.61,4.6,4.6,0,0,1,1.19.74c0,.22.06.43.11.65a7,7,0,0,0,.27.85l-.1-.07A20.54,20.54,0,0,0,56.88,15s0,0,0,.06a21.62,21.62,0,0,1,2.34,1.67c.3.24.58.49.83.73a4.85,4.85,0,0,0,.58.77l-.09,0L58.36,17s0,0,0,.05L60,18.47l-.55.23-.52-.17a10.55,10.55,0,0,1-1.09-.5A7.92,7.92,0,0,1,56,16.66a4,4,0,0,1-.29-.31c-.08-.09-.16-.18-.21-.25l-.18-.22s-.06,0-.05,0l.15.25.19.27c.08.11.16.22.27.35a8.33,8.33,0,0,0,1.71,1.59,8.65,8.65,0,0,0,1.05.61l-.39.09c-3.06-1.63-4.7-4.68-7-7.16-.09-.1-.19-.2-.28-.31a.78.78,0,0,0,.15.1C53.6,13.05,56.43,12.88,59,13.68ZM57,9.61l.5.66a6,6,0,0,0-1.64-.66,4.35,4.35,0,0,0-.62-.12l-.23,0s0,0,0,.06l.23.06a4.75,4.75,0,0,1,.59.19,6,6,0,0,1,1.6.91,6.39,6.39,0,0,1,1,1,.41.41,0,0,0,0,.09l-.23-.15a11.15,11.15,0,0,0-1.51-.79,7.43,7.43,0,0,0-.72-.28s0,.05,0,.06a7.24,7.24,0,0,1,.67.37,9.73,9.73,0,0,1,1.36,1,9.07,9.07,0,0,1,.83.79v-.06c0,.16.09.33.13.5l-.4-.13,0,0-3.27-2s0,0,0,.05l1.86,1.63-1.8-.32a10.07,10.07,0,0,1-.95-.83,8.75,8.75,0,0,1-1.16-1.45,7.49,7.49,0,0,1-.43-.74s-.06,0-.06,0a7.22,7.22,0,0,0,.34.8,9,9,0,0,0,1,1.64c.1.13.21.25.31.37-.32-.07-.63-.15-1-.24h0A17.57,17.57,0,0,1,52.3,9.76a8.08,8.08,0,0,0-.9-2,6.48,6.48,0,0,0-.9-1h0a20.49,20.49,0,0,0,2.9,1.42A22.15,22.15,0,0,1,57,9.61Zm8.4,4.08a.08.08,0,0,0,.08,0c.37.34.75.67,1.14,1a6.85,6.85,0,0,1,.83,2.37,13,13,0,0,0-.92-1.36,10.67,10.67,0,0,0-1.42-1.43,9.37,9.37,0,0,0-1.45-1l-.32-.18L63,13c-.19-.09-.36-.16-.5-.21l-.44-.16s0,0,0,.06l.43.19a4.23,4.23,0,0,1,.47.24l.29.15.31.19a9.87,9.87,0,0,1,1.35,1.06,9.86,9.86,0,0,1,2.24,3.15c.08.19.14.37.21.54s-.1.46-.16.69a12.45,12.45,0,0,0-.77-1.18,12.06,12.06,0,0,0-1.36-1.58c-.4-.4-.69-.65-.69-.65s-.05,0,0,0,.26.27.61.71a12.94,12.94,0,0,1,1.15,1.69A13.71,13.71,0,0,1,67,19.73v.07L63.58,16s-.06,0,0,0l1.88,2.7a7.47,7.47,0,0,0-1.9-.64,10.33,10.33,0,0,1-1-1.05,11,11,0,0,1-.93-1.29,9.75,9.75,0,0,1-.64-1.23,4,4,0,0,1-.21-.52,3.94,3.94,0,0,1-.14-.4l-.11-.36s-.07,0-.07,0l.09.37a3.31,3.31,0,0,0,.11.42,4.72,4.72,0,0,0,.17.54,10.48,10.48,0,0,0,.56,1.31,11.74,11.74,0,0,0,.86,1.4,7.46,7.46,0,0,0,.56.7,6.5,6.5,0,0,0-1.08,0,6.37,6.37,0,0,1-1.88-2.53,9.56,9.56,0,0,1-.36-1.67c0-.17,0-.34-.08-.51a7.31,7.31,0,0,0-.18-.78,9.63,9.63,0,0,0-1.1-2.4A.15.15,0,0,0,58,10a2.71,2.71,0,0,0-.35-.4c-.12-.19-.25-.36-.39-.54.36.23.72.46,1.08.66C60.73,11.06,63.22,11.93,65.37,13.69Zm13,13.6A4.3,4.3,0,0,1,78,29l-.08.2a8.46,8.46,0,0,0-.57-1.95,13.62,13.62,0,0,0-1.71-2.81c-.54-.72-.91-1.17-.91-1.17s-.07,0,0,0,.34.48.82,1.22A13.94,13.94,0,0,1,77,27.35a7.85,7.85,0,0,1,.43,2.94.64.64,0,0,1,0,.07c0-.17-.08-.35-.13-.54a11.36,11.36,0,0,0-.56-1.63c-.19-.43-.34-.71-.34-.71s-.06,0-.06,0,.11.29.24.74a10.44,10.44,0,0,1,.33,1.65,12.12,12.12,0,0,1,.08,1.63h0A4.21,4.21,0,0,0,76.6,31l-.77-2.33s-.06,0-.06,0L76,30.33a5,5,0,0,0-1.14-.76c-.12-.3-.23-.63-.33-1a11.13,11.13,0,0,1-.37-1.69c-.07-.47-.09-.79-.09-.79s-.06,0-.07,0,0,.32,0,.8a10.91,10.91,0,0,0,.15,1.77,6.18,6.18,0,0,0,.12.62,9.12,9.12,0,0,0-.93-.28c-.16,0-.33-1.21-.36-1.38a11.11,11.11,0,0,1-.08-1.41c0-1.09.43-2.19.49-3.3s0-3.35-.84-4.38c.86,1.05,1.24,2.19,2,3.3.6.86,1.36,1.58,2,2.41A25.51,25.51,0,0,1,78.33,27.29Zm4.46,5.29c-.12.41-.25.81-.36,1.21-.07-.3-.14-.59-.23-.87a10.67,10.67,0,0,0-.45-1.26c-.08-.18-.15-.34-.23-.48a3,3,0,0,0-.18-.36l-.17-.31s-.07,0-.06,0l.15.32.15.37c.06.15.12.31.18.5A11.67,11.67,0,0,1,81.94,33a11.31,11.31,0,0,1,.21,1.47c0,.1,0,.19,0,.29A19,19,0,0,0,81.75,37l-.18-.23a5.88,5.88,0,0,1-.55-.92,6.71,6.71,0,0,1-.39-1c-.07-.29-.11-.49-.11-.49s-.06,0-.06,0a4.94,4.94,0,0,0,0,.51A5.85,5.85,0,0,0,80.64,36c.06.24.14.47.21.68l-.48-.2a7.34,7.34,0,0,1-.57-1.37,8.61,8.61,0,0,1-.31-1.62c0-.45,0-.75,0-.75s-.06,0-.07,0-.05.3-.08.76a8,8,0,0,0,.09,1.71,9.57,9.57,0,0,0,.24,1.05l-.53-.13v0a9.93,9.93,0,0,1-.36-1.3,11,11,0,0,1-.16-1.55,10,10,0,0,1,.11-1.57A9.53,9.53,0,0,1,79,30.32L79.1,30l.1-.24c.06-.15.11-.29.16-.39l.16-.34s0-.06-.06,0l-.18.33a4.23,4.23,0,0,0-.2.38L79,30l-.11.27a8,8,0,0,0-.43,1.35,10.05,10.05,0,0,0-.24,1.61,9.86,9.86,0,0,0,0,1.64,8.64,8.64,0,0,0,.2,1.12l-.55-.08a7.37,7.37,0,0,1-.21-4.6C78.11,30,78.88,29,79,27.68a.28.28,0,0,0,0-.13,2.9,2.9,0,0,0,0-.51,6.19,6.19,0,0,0-.19-1.23c-.07-.3,0-1-.18-1.24.25.35.49.72.7,1.08.54.9,1,1.85,1.5,2.78A28.78,28.78,0,0,1,82.79,32.58ZM88,37.92c0,.55-.08,1.09-.15,1.63a16.21,16.21,0,0,0-1-1.86,19,19,0,0,0-1.59-2.22c-.48-.57-.83-.93-.83-.93s-.06,0,0,.05.32.38.74,1a18,18,0,0,1,1.39,2.32,18.28,18.28,0,0,1,1,2.48c.06.18.11.34.15.49l-.09.65c-.12-.26-.24-.52-.38-.78a22.06,22.06,0,0,0-1.2-2c-.36-.54-.61-.88-.61-.88s-.07,0-.06,0,.22.36.52.93a21.12,21.12,0,0,1,1,2.1c.25.61.45,1.23.61,1.76l-.06.68c0-.14-.11-.27-.17-.4a9,9,0,0,0-.88-1.51s-.06,0-.06,0a8.46,8.46,0,0,1,.56,1.61,7.33,7.33,0,0,1,.19,1.22,6.87,6.87,0,0,0-1.33-.66l-.43-.45a10,10,0,0,1-.93-1.32A8.55,8.55,0,0,1,83.33,39l0-.3,0-.27a3.82,3.82,0,0,1,0-.43l0-.39s-.06,0-.06,0V38c0,.12,0,.27,0,.45v.27l0,.3a7.57,7.57,0,0,0,.27,1.43,9.28,9.28,0,0,0,.6,1.58,10.47,10.47,0,0,0,.75,1.26c-.34-.09-.68-.16-1-.23a6.1,6.1,0,0,1-1.18-3.76l0,0,0,0v-.64c0-.22,0-.45,0-.67.06-.8.17-1.59.29-2.32.19-1.13.56-2.28.78-3.43h0a.18.18,0,0,0,.22.11C85,34.37,86.81,35.94,88,37.92Zm5.49,11a5.65,5.65,0,0,1-.29,1,5.91,5.91,0,0,0,.12-1.64,6.39,6.39,0,0,0-.71-2.56,6.78,6.78,0,0,0-.46-.74,3.25,3.25,0,0,0-.2-.26s-.06,0,0,0,.07.1.17.28a5.16,5.16,0,0,1,.39.76A6.05,6.05,0,0,1,93,48.24a5.85,5.85,0,0,1-.35,1.85,3.85,3.85,0,0,0-.34-1,3,3,0,0,0-.29-.49s0,0,0,0a2.78,2.78,0,0,1,.18.52,3.28,3.28,0,0,1,.13,1.17,2.93,2.93,0,0,1-.11.69L92,51l-.15-.15a9.77,9.77,0,0,1-1.19-1.41,10.73,10.73,0,0,1-1-1.86,11.34,11.34,0,0,1-.62-2,9.87,9.87,0,0,1-.18-1.86v-.4l0-.35a3,3,0,0,1,.06-.58l.07-.5s0,0-.06,0l-.11.5a5.14,5.14,0,0,0-.09.58l-.05.35,0,.4a10.7,10.7,0,0,0,.07,1.92,11.73,11.73,0,0,0,.53,2.14,11.54,11.54,0,0,0,1,2,12,12,0,0,0,1,1.36h0c-.42-.25-.86-.49-1.3-.7a4.82,4.82,0,0,1-.61-.72,6.53,6.53,0,0,1-.46-.77,7.05,7.05,0,0,1-.65-1.73,10.07,10.07,0,0,1-.2-1.34c0-.29,0-.59,0-.9a21.66,21.66,0,0,1,.18-2.79c.14-1.15.28-2.29.34-3.44q0-.54,0-1.08v-.07c0-.24,0-.5,0-.76a38.34,38.34,0,0,0,2.71,3.77,13.46,13.46,0,0,1,2.66,4.9,7.92,7.92,0,0,1,.2,1.86c0-.17,0-.34-.08-.51a11.06,11.06,0,0,0-1.56-3.64l-.71-1.08-.28-.41s-.07,0,0,0l.25.42c.16.27.39.65.64,1.12a10.65,10.65,0,0,1,1.32,3.61,7.18,7.18,0,0,1,0,1A6.1,6.1,0,0,1,93.53,48.91Zm11.34,70.66a1.75,1.75,0,0,1-.66-1.72c.12-1,.3-2,.44-3s.25-2.19.36-3.29c.25-2.45.37-4.93.41-7.39a98.1,98.1,0,0,0-2.18-22.41c-.15-.67-.3-1.33-.46-2a91.06,91.06,0,0,0-5-14.89c-1.14-2.62-2.26-5.25-3.53-7.83a14,14,0,0,0-4.05-4.51c-.62-.48-2.56-2.17-3.37-2,2.33-.37,4.67,1.91,6.61,2.91.3.15.53-.31.29-.51l.44-1.77-.06,0-.9,1.41c-.34-.24-.69-.5-1.06-.75a2.61,2.61,0,0,0,.27-.06,3.14,3.14,0,0,0,2-1.85.32.32,0,0,0,.5-.24,17.22,17.22,0,0,0,.41,6.47,40.7,40.7,0,0,0,2.6,6.13,85.23,85.23,0,0,1,7.79,27.71,98.39,98.39,0,0,1,.24,15.64c-.13,2.39-.3,4.77-.48,7.14l-.27,3.54c0,.6-.1,1.2-.14,1.8A4.52,4.52,0,0,1,104.87,119.57Z"/><path class="cls-3" d="M100.4,80.41l.3.34a65.51,65.51,0,0,0-3.84-8.31c-6-11-16.54-22.77-18.8-24.91-.24-.23-.31-1.26-.42-1.6a12.19,12.19,0,0,0-1.26-2.46l-.45.36a10,10,0,0,0-.49-2,7.45,7.45,0,0,0-1.59-2.23,13.29,13.29,0,0,0-2.17-1.64c-.39-.25-.79-.48-1.19-.72-.25-.15-.88-.37-1-.61a10.15,10.15,0,0,0-.94-1.11.08.08,0,0,0-.14.08l.21.5c-1.14-1.56-3.18-2.52-4.74-3.66-3.44-2.52-3.17-3.87-8.43-7,1.66,1,2.86,2.68,5.59,5.37-1.07-.56-2.36-.91-3.23-1.34-3.51-1.72-4.9-4.13-10.41-6.56,1,.44,4.91,3.4,5.82,5.37-1.48-1.4-3.39-1.79-5.11-2.8-2.06-1.21-3.81-3.13-2.25-1.32a.08.08,0,0,0-.09.08,17.19,17.19,0,0,0-4.66-2.48A33.31,33.31,0,0,1,37.66,20a18.4,18.4,0,0,0-8.53-4c-.13,0-.18.19-.05.23a27.89,27.89,0,0,1,5.26,2.51c1.16.69,2.22,1.53,3.32,2.31l.57.76a3.84,3.84,0,0,1,.82,1.81,8.21,8.21,0,0,0-3.16-2.37c-2.28-.94-3.42-.1-6.46-1.26a11.82,11.82,0,0,0-3.36-2,26,26,0,0,0-2.8-1.32,19.46,19.46,0,0,0-5.85-1.49c-.11,0-.16.16-.05.19a36.15,36.15,0,0,1,5.47,1.72,19.18,19.18,0,0,1,2.41,1.29c-1.8-.35-3,0-4.85-.13a28.34,28.34,0,0,0-5.48-1.57l-.67-.14-.65-.29a0,0,0,0,0,0,0l.39.19a41.8,41.8,0,0,0-6.42-.74.1.1,0,0,0,0,.2c2.27.39,4.56.84,6.81,1.33,1,.21,1.91.48,2.86.75a9.15,9.15,0,0,0,1.05.33c-1.69.08-3.44.64-5.37.39-1.26-.17-2.51-.52-3.75-.8,0,0,0,0,0,0a14,14,0,0,0,4.69,1.5c-2.14.56-3.79.89-8.25-.22-.08,0-.17.09-.08.15a9,9,0,0,0,4.32,1.2c2.08,1.06,1.62,2.52,3,3.1-2.62,1.52-5.28.9-8.91-.37a0,0,0,0,0,0,0,12.81,12.81,0,0,0,6.67,1.68,38.07,38.07,0,0,1,3.81,2.46A6.46,6.46,0,0,1,13,27.6a37.75,37.75,0,0,1-5.08-.77.08.08,0,0,0,0,.16,16.47,16.47,0,0,0,7.17.93c.6.41,1.28.66,1.92,1s1.16.8,1.77,1.14a4.38,4.38,0,0,0,.9.37A40.3,40.3,0,0,1,13.11,29a.12.12,0,0,0-.09.22,14.35,14.35,0,0,0,5.53,1.58,8.4,8.4,0,0,0,5.11-.16,14.79,14.79,0,0,0,4.07,1.19c-.78.06-1.56.12-2.34.12a54,54,0,0,1-5.4-.31s-.08.08,0,.09A19.93,19.93,0,0,0,30,32.1a12,12,0,0,1,1.55.36,14.6,14.6,0,0,1,2.12,1.17,6.73,6.73,0,0,0,.87.4c-1.79-.15-3.55-.42-5.33-.64-.06,0-.09.08,0,.1a23.46,23.46,0,0,0,5.51,1.13,17.64,17.64,0,0,0,5.33,0,7.15,7.15,0,0,1,2.72.9l.67.42-.44,0-.19-.08s0,0,0,0a.1.1,0,0,1,.05,0l-2.09-.15a34.78,34.78,0,0,0-5.68-.31c-.07,0,0,.1,0,.12a41,41,0,0,0,6.16.66c.89.07,1.77.18,2.66.26a7.14,7.14,0,0,0,2.59.54c1.12.42,2.29.34,3.42.71,1.82.6,2.76,2.39,4.74,2.89a5.86,5.86,0,0,1-4.21-.78,5.46,5.46,0,0,0,4.34,1.43,6.07,6.07,0,0,1,3.33,1c1.13.68,2.22,1.29,3.41,1.88-.41-.22-1-.26-1.46-.44l-1.91-.76a13.36,13.36,0,0,0,2.51,1.57,5.2,5.2,0,0,1,1.16.74A13,13,0,0,0,64.3,46.8a20,20,0,0,0,5,2.18,7.06,7.06,0,0,0,3.76-.15,21,21,0,0,1,3.42,1.8c2.8,4.29,6.36,4,16.85,21.49l.08,0,0,0h0a12.17,12.17,0,0,1,1.43,1.69c.25.27.51.53.77.78C92.08,68.51,87.11,60.53,82,55.27c-.21-.41-.42-.8-.64-1.19a8.18,8.18,0,0,0-.53-1l0,0q-.4-.65-.9-1.29a9.22,9.22,0,0,1-.94-1.45,7.49,7.49,0,0,1-.41-1,5.21,5.21,0,0,0-.3-1.1C83.3,55,93.32,65.17,99.09,78.74A12.63,12.63,0,0,1,100.4,80.41ZM62.23,44.61c2.78.19,4-1.82,7.33-1l.15.08,0,0c.27.07.55.16.85.27a11.05,11.05,0,0,0-1.41,0,9,9,0,0,0-1.56.27l-.32.09-.29.1a3.61,3.61,0,0,0-.45.17l-.39.17s0,.07,0,.06l.39-.14a3.18,3.18,0,0,1,.46-.14l.28-.08.32-.06a7.92,7.92,0,0,1,1.54-.16,9.62,9.62,0,0,1,1.75.15,11.17,11.17,0,0,1,1.61.47l.2.11.12.13h0l-.15,0a7.55,7.55,0,0,0-1.31-.16,6.63,6.63,0,0,0-1.15.09L70,45l-.22.05a1.87,1.87,0,0,0-.33.1l-.29.1s0,.06,0,.06l.29-.07a2.24,2.24,0,0,1,.34-.07l.21,0,.23,0a6,6,0,0,1,1.11,0,7,7,0,0,1,1.23.27,7.3,7.3,0,0,1,1.13.51,6,6,0,0,1,.59.41l-3.74-.17s0,.06,0,.06l3.47.7a12.58,12.58,0,0,1-1.31.32,11.07,11.07,0,0,1-3.75,0,11.2,11.2,0,0,1-1.6-.42l-.33-.12-.29-.12-.46-.21-.4-.2s-.06,0,0,0l.38.23c.13.08.28.15.46.24l.29.15.32.13a10,10,0,0,0,1.6.54,11.62,11.62,0,0,0,1.93.3,11.46,11.46,0,0,0,1.95,0c.35,0,.67-.09,1-.15a4.45,4.45,0,0,1-2,.75C68.36,48.73,65.15,46.34,62.23,44.61Zm12.84,2.73h0a6.86,6.86,0,0,0,.55,1.78,6,6,0,0,0-1.87-.59A3,3,0,0,0,75.07,47.34ZM55.91,40.93l.22-.09c1.22-.58,2.22-1.61,3.52-2.05,1.51-.51,2.7.21,4.09.56,0,0,.07.11.11.17a7.62,7.62,0,0,0-1.21-.26,7.88,7.88,0,0,0-1.94,0c-.26,0-.48.08-.63.11l-.23,0s0,.07,0,.06l.24,0c.15,0,.36,0,.62,0a7.25,7.25,0,0,1,1.86.23,7.08,7.08,0,0,1,1.71.68l.08,0a5,5,0,0,0-.56-.09,8.92,8.92,0,0,0-1.89-.05s0,.06,0,.06a9.22,9.22,0,0,1,1.8.38,8.08,8.08,0,0,1,1.48.63l.23.25-.56-.1a14.91,14.91,0,0,0-2.44-.15s0,.06,0,.06a14.66,14.66,0,0,1,2.36.48,15.64,15.64,0,0,1,1.8.68l.09.06c-.18,0-.39,0-.63,0a13.53,13.53,0,0,1-2.8-.18,14.66,14.66,0,0,1-2.74-.76c-.36-.14-.65-.27-.86-.37l-.32-.15s-.06,0,0,.06l.31.18c.2.11.48.27.84.44a14.24,14.24,0,0,0,2.71,1c.52.12,1,.23,1.53.3l.59.07c-.75.19-1.5.41-2.26.54-3.3-.76-2.6-1.15-4.61-2.24A4.61,4.61,0,0,0,55.91,40.93Zm-7.54-4.09c2.38-.55,5-2.9,7.38-1.72.16.21.34.41.51.61a8.57,8.57,0,0,0-1.18-.18,7.72,7.72,0,0,0-1.93.11c-.26.05-.47.11-.62.15l-.23.07s0,.06,0,.06l.23,0,.62-.07A7.24,7.24,0,0,1,55,36a7,7,0,0,1,1.74.57,4.86,4.86,0,0,1,.53.28l.19.11h0l.32.24L57.16,37a14.4,14.4,0,0,0-2.45-.16s0,.07,0,.07a14.67,14.67,0,0,1,2.37.48A12.66,12.66,0,0,1,58.7,38,4.75,4.75,0,0,1,58,38a11.36,11.36,0,0,1-2-.17s0,.06,0,.06a11.37,11.37,0,0,0,2,.51l.35,0-.07,0a6,6,0,0,1-2.59.38,6.32,6.32,0,0,1-2.56-.75,7.6,7.6,0,0,1-.75-.49l-.26-.21s-.06,0,0,.05l.26.24a6.47,6.47,0,0,0,.72.55,6.46,6.46,0,0,0,4.26,1c-.22.15-.44.31-.7.47C52.65,40.41,52.54,37.13,48.37,36.84Zm-8-2.91c1.87-.89,3.52-2.94,6.43-2.4l.18.14a2.13,2.13,0,0,0,.35.22l-.32,0a6,6,0,0,0-1.54.12l-.49.14-.18.06s0,.06,0,.06a5.21,5.21,0,0,1,.68-.09,5.48,5.48,0,0,1,1.47.1,5.41,5.41,0,0,1,1.35.48l.29.16a2,2,0,0,0,.17.23l-2.23-.24s0,0,0,.06l2.91.92.29.25-2.88.06s0,.06,0,.06l3.62.5-.34.11a9,9,0,0,1-1.26.26,9.08,9.08,0,0,1-1.49.07A10.15,10.15,0,0,1,45.94,35a11.55,11.55,0,0,1-1.26-.36c-.18-.07-.35-.13-.49-.2l-.37-.17-.31-.16s-.06,0,0,.05l.3.19a3.61,3.61,0,0,0,.36.2l.48.24a9.67,9.67,0,0,0,1.25.48,10.36,10.36,0,0,0,1.53.3q.39,0,.78.06a6.92,6.92,0,0,1-4-.15C43,35,41.74,34.1,40.41,33.93Zm-9.75-2.36a19.23,19.23,0,0,0,3-2,7.2,7.2,0,0,1,1.59-.75.28.28,0,0,0,.31-.1,9.39,9.39,0,0,1,1.51-.3,5.89,5.89,0,0,1,2.75.44l.49.2a9.51,9.51,0,0,0-1.13-.24A7.79,7.79,0,0,0,38,28.71l-.49,0-.38,0-.32,0s0,.07,0,.07l.33,0h.37l.48,0a8.2,8.2,0,0,1,1.18.19,9.35,9.35,0,0,1,1.3.42,9.81,9.81,0,0,1,1.16.62L41,30a10.63,10.63,0,0,0-2-.16c-.54,0-.9.05-.9.05s0,.06,0,.06.36,0,.9.06a10,10,0,0,1,1.92.38,11.28,11.28,0,0,1,1.54.59,7.61,7.61,0,0,1-1.23.25,10.3,10.3,0,0,1-2,.07s0,.05,0,.06l.64.13a9.21,9.21,0,0,0,1.42.14c.23,0,.45,0,.67,0-.3.23-.62.45-.94.65h0a8.56,8.56,0,0,1-1.49.4,9.12,9.12,0,0,1-1.55.11,7.68,7.68,0,0,1-1.35-.14l-.28,0-.25-.07a2.56,2.56,0,0,1-.41-.12l-.35-.11s0,0,0,.05l.34.15.4.15.25.09.28.08a9.27,9.27,0,0,0,1.38.25,8.51,8.51,0,0,0,1.34,0l-.06,0a7.72,7.72,0,0,1-4.07.26C33.65,33,32.24,31.67,30.66,31.57Zm-6.25-1.29a21.32,21.32,0,0,0,3.18-2.83,5.3,5.3,0,0,1,3.22-1.14l.25,0a6,6,0,0,1,.64.14c.1.13.22.26.33.39a5.1,5.1,0,0,0-.68,0,6.81,6.81,0,0,0-1.92.34c-.25.09-.45.18-.59.24l-.22.11s0,.06,0,.05l.23-.07a4.28,4.28,0,0,1,.61-.16,5.81,5.81,0,0,1,1.86-.11,5.92,5.92,0,0,1,1.43.3,5.23,5.23,0,0,0,.56.4L29.66,28s0,.06,0,.06l3.72.28c-.19.09-.39.17-.6.25a9.17,9.17,0,0,1-1.61.46c-.45.09-.76.12-.76.12s0,.06,0,.07.31,0,.77,0A9.28,9.28,0,0,0,32.9,29a11,11,0,0,0,1.46-.45,11.58,11.58,0,0,0-1.76,1.21c-.27.07-.55.13-.83.18a9.9,9.9,0,0,1-1.51.12,10.09,10.09,0,0,1-1.33-.12c-.19,0-.36-.07-.52-.11l-.4-.1-.34-.11s-.05.05,0,.06l.34.14.39.13a3.22,3.22,0,0,0,.52.15,7.92,7.92,0,0,0,1.34.23,9.23,9.23,0,0,0,1.58,0l.11,0c-.19.16-.38.32-.58.47a6.93,6.93,0,0,1-4.33.27A19.12,19.12,0,0,0,24.41,30.28Zm-8.27-2.51a1.57,1.57,0,0,0,.41-.28c2.63-1.13,4.52-4,7.71-2.76a.21.21,0,0,0,.11,0l.32.4-.3-.07A7.19,7.19,0,0,0,23.06,25a7.68,7.68,0,0,0-1.3.19,5.86,5.86,0,0,0-1.08.39l-.21.1-.19.11L20,26l-.25.17s0,.06,0,.05L20,26l.31-.16.19-.08.22-.08a5.53,5.53,0,0,1,1.07-.28,7.21,7.21,0,0,1,1.24-.06,6.61,6.61,0,0,1,1.22.2,6,6,0,0,1,1,.39,2,2,0,0,1,.36.2.13.13,0,0,1,.06,0l-.48-.05a19.16,19.16,0,0,0-2.65,0s0,.06,0,.06a18.5,18.5,0,0,1,2.6.33,14.18,14.18,0,0,1,1.43.36,7.28,7.28,0,0,1-1.08.23,8.38,8.38,0,0,1-1.33.11,5.76,5.76,0,0,1-.62,0s0,.06,0,.07.25.06.62.12a8.62,8.62,0,0,0,1.37.13,6,6,0,0,0,.74,0c-.14.15-.27.31-.4.46a7.24,7.24,0,0,1-1.18.35,9.06,9.06,0,0,1-1.41.17,8.51,8.51,0,0,1-1.44-.09,7.3,7.3,0,0,1-1.22-.29,3.79,3.79,0,0,1-.48-.17l-.36-.15-.31-.15s0,0,0,.06l.3.17a3.48,3.48,0,0,0,.35.19c.14.07.29.14.47.21a7.73,7.73,0,0,0,1.23.4,8.64,8.64,0,0,0,1.48.22,10.68,10.68,0,0,0,1.51-.05l.31-.05c-.71.61-1.74,1.08-3.83,1S17.91,28.35,16.14,27.77ZM17.91,23l.12.25a5.9,5.9,0,0,0-3.19.48,3.5,3.5,0,0,0-.53.28l-.2.12s0,.06,0,.05l.21-.09a4.54,4.54,0,0,1,.55-.2,5.54,5.54,0,0,1,3.42,0l.19.07a2.85,2.85,0,0,0,.23.26l-2.48.24s0,.06,0,.06l3.18.28-.39.24a3.44,3.44,0,0,1-.4.15,8.31,8.31,0,0,1-1.61.38,8.59,8.59,0,0,1-1.66,0,6.41,6.41,0,0,1-.76-.09s0,.06,0,.07.29.09.75.19a8.39,8.39,0,0,0,1.71.18c.23,0,.46,0,.69,0a13.13,13.13,0,0,1-1.32.82c-2.78.3-1.67-.93-5.56-1.77C13.45,24.6,15.22,21.88,17.91,23Zm-1.23-2.53a3.92,3.92,0,0,0-.49-.13,4.64,4.64,0,0,0-1.59-.08,3.39,3.39,0,0,0-.52.09l-.19.05s0,.06,0,.06l.19,0a3.92,3.92,0,0,1,.51,0,4.44,4.44,0,0,1,1.47.29,4.36,4.36,0,0,1,1.2.69,1.47,1.47,0,0,1,.1.22,5.37,5.37,0,0,0-.9-.23,5.1,5.1,0,0,0-1.13-.07l-.51,0s0,.07,0,.07a4.53,4.53,0,0,1,.5.06,4.91,4.91,0,0,1,1,.3,7.65,7.65,0,0,1,.7.33,3.4,3.4,0,0,0-1.48.13,3.53,3.53,0,0,1-.46,0,4.38,4.38,0,0,1-1.74-.44,2,2,0,0,1-.3-.19l0,0a2.93,2.93,0,0,0,.25.28,2.67,2.67,0,0,0,.7.48,5.18,5.18,0,0,0,.61.24,8.89,8.89,0,0,0-.91.51c-1.83-.77-1.33-1.79-2.69-2.56C14,20.43,15.52,19.21,16.68,20.46Zm5.67.07.06.06a3.39,3.39,0,0,0-.65-.41,5.09,5.09,0,0,0-3.14-.52l-.3.06s0,.06,0,.06l.3,0a5.32,5.32,0,0,1,.77,0,4.87,4.87,0,0,1,2.16.75,4.8,4.8,0,0,1,1.52,1.63,4,4,0,0,1,.25.54A5.41,5.41,0,0,0,22.5,22a5.86,5.86,0,0,0-1.35-.73,5.55,5.55,0,0,0-.67-.21s0,.06,0,.06a5.94,5.94,0,0,1,.61.3,5.76,5.76,0,0,1,1.17.89,5.45,5.45,0,0,1,.87,1.13l.1.13-.37-.1a6.26,6.26,0,0,1-1-.33,7.19,7.19,0,0,1-1-.52,4.92,4.92,0,0,1-.41-.29s-.05,0,0,.05a4.46,4.46,0,0,0,.35.37,6.42,6.42,0,0,0,.88.74q.24.16.48.3a3.9,3.9,0,0,0-.57.13l-.05,0a4.81,4.81,0,0,1-1.36-.66A5.53,5.53,0,0,1,19,22.15c-.13-.17-.23-.32-.3-.42l-.1-.17s-.07,0-.06,0l.08.18a4.23,4.23,0,0,0,.24.47,5.37,5.37,0,0,0,1,1.27,5.64,5.64,0,0,0,.85.65l-.11,0a.45.45,0,0,0-.27-.12c-2.25-.2-1.8-3.46-3.85-4.71.27.16,1.49-.18,1.86-.19a5.26,5.26,0,0,1,1.53.18A7.36,7.36,0,0,1,22.35,20.53ZM29,21.65l-.11-.08a9.26,9.26,0,0,0-1.31-.83,8.72,8.72,0,0,0-1.24-.52l-.51-.15-.4-.1L25,19.91S25,20,25,20l.35.1a3.17,3.17,0,0,1,.38.12,4.44,4.44,0,0,1,.49.19,10.05,10.05,0,0,1,1.17.6,9.79,9.79,0,0,1,1.19.9,8.5,8.5,0,0,1,1,1.07c.15.2.3.39.42.58l.34.67c-.21-.21-.43-.42-.66-.62a10,10,0,0,0-1.45-1c-.41-.23-.7-.36-.7-.36s-.05.05,0,.06a7.62,7.62,0,0,1,.64.44,9.2,9.2,0,0,1,1.26,1.15,9.34,9.34,0,0,1,1,1.34l.17.29h-.05l-2.67-1.61s-.05,0,0,.05l1.67,1.47h-.06a8.63,8.63,0,0,1-1-.38,10.41,10.41,0,0,1-1.08-.58A9.27,9.27,0,0,1,25.61,23a4,4,0,0,1-.29-.32l-.21-.26-.18-.24s-.06,0-.05,0l.15.25.19.28.26.36a9.63,9.63,0,0,0,1.69,1.7,11.92,11.92,0,0,0,1.08.72c.21.11.41.22.61.31a5.49,5.49,0,0,0-1,.5c-5.72-2.13-2.61-6.57-6.37-7.36l-.29-.14h0c2.53.2,4.67.17,6.32,1.29A5.51,5.51,0,0,1,29,21.65ZM37.16,23a6.79,6.79,0,0,1,1.37,1.53,8.38,8.38,0,0,0-.75-.7A9.67,9.67,0,0,0,36.54,23a8.36,8.36,0,0,0-1.18-.53,4.83,4.83,0,0,0-.49-.17l-.39-.1-.34-.07s0,.05,0,.06l.33.1.37.13.47.2a8.48,8.48,0,0,1,1.1.62,9.39,9.39,0,0,1,1.12.9,10.22,10.22,0,0,1,.94,1.08,7.86,7.86,0,0,1,.64,1.06,2.79,2.79,0,0,1,.15.3,8,8,0,0,0-.76-.79,7.07,7.07,0,0,0-1.6-1.07,4.57,4.57,0,0,0-.58-.25l-.22-.08s0,.05,0,.06l.21.1a5.29,5.29,0,0,1,.54.32,6.65,6.65,0,0,1,2.35,2.63,13.74,13.74,0,0,1-1.56-.68A14.61,14.61,0,0,1,36,25.88c-.41-.28-.67-.49-.67-.49s0,0,0,.05.23.24.61.57a13.34,13.34,0,0,0,1.46,1.14l.61.4a6.35,6.35,0,0,0-1,.08,8.7,8.7,0,0,1-1.68-.83,8.61,8.61,0,0,1-1.73-1.43c-.21-.22-.38-.42-.49-.56L33,24.58s-.06,0,0,0l.15.24c.1.16.24.38.43.63a9.29,9.29,0,0,0,1.63,1.64,11.79,11.79,0,0,0,1,.68l-.45.13a4.94,4.94,0,0,0-.49.19c-4.16-2-4.07-5.55-4.95-7.14C32.16,21.53,34.59,21,37.16,23Zm8.78,2.61a3.63,3.63,0,0,1,.47.66l-.09-.1a11.88,11.88,0,0,0-1.19-1A9.7,9.7,0,0,0,44,24.52a4.9,4.9,0,0,0-.48-.22l-.38-.15L42.77,24a0,0,0,0,0,0,.07l.32.14a3.73,3.73,0,0,1,.37.17c.14.07.29.16.45.26a7.81,7.81,0,0,1,1.07.75,8.56,8.56,0,0,1,1.94,2.22c.11.18.21.35.3.52s0,.11,0,.16a7.6,7.6,0,0,0-1-1.08,8.08,8.08,0,0,0-.62-.52s-.05,0,0,.05.23.22.54.59a7.43,7.43,0,0,1,.95,1.45c.09.19.17.37.24.56s0,.36.08.55l-.2-.25a13.49,13.49,0,0,0-1.57-1.54s-.05,0-.05,0a13.33,13.33,0,0,1,1.3,1.74c.24.37.44.76.61,1.09a2.91,2.91,0,0,0-.58-.15,11.78,11.78,0,0,1-1-.83,11,11,0,0,1-1.26-1.41,8,8,0,0,1-.48-.72s-.06,0-.06,0,.14.32.4.78a10.52,10.52,0,0,0,1.12,1.6l.3.33-.25-.16a14,14,0,0,1-2.16-1.74,13.79,13.79,0,0,1-1.77-2.15c-.21-.32-.37-.6-.48-.79l-.17-.31s-.07,0-.06,0,0,.12.15.32a8.11,8.11,0,0,0,.42.83A14.05,14.05,0,0,0,43.19,29a15.24,15.24,0,0,0,1.9,1.83,6.55,6.55,0,0,0-1.1.27.45.45,0,0,0-.11-.13c-5.52-4.2-3.17-6.82-4.62-9.09C41.2,22.89,44.16,23.59,45.94,25.61Zm7.77,4.49c0,.12,0,.25.07.38a9.84,9.84,0,0,0-1.1-1,11.07,11.07,0,0,0-1.84-1.19l-.66-.3-.25-.1s0,.05,0,.06l.24.13c.15.08.37.2.61.36a9.79,9.79,0,0,1,1.67,1.34,10.05,10.05,0,0,1,1.34,1.63c.16.24.28.44.36.59h0c0,.14.09.28.14.42L53.79,32a16.13,16.13,0,0,0-1.88-1.32c-.53-.32-.91-.5-.91-.5s0,.05,0,.06.36.22.85.58a15,15,0,0,1,1.7,1.48A15.2,15.2,0,0,1,55,34l-2.81-1.85s0,0,0,.05l2.14,1.95h-.08A17.29,17.29,0,0,1,52,32.92a16.92,16.92,0,0,1-2.09-1.62s-.06,0,0,0a16.79,16.79,0,0,0,1.91,1.9,14.8,14.8,0,0,0,1.32,1,5,5,0,0,0-.78.22.26.26,0,0,0-.09,0c-5.11-2-3.69-6.26-4.55-8.63C50.26,27.75,51.82,27.41,53.71,30.1Zm8.52,3.38a.31.31,0,0,0,.15.18c.13.07.21.36.25.72a8.2,8.2,0,0,0-.73-1,9.45,9.45,0,0,0-1.1-1.09,9.25,9.25,0,0,0-1.27-.87,7.88,7.88,0,0,0-1.22-.55l-.26-.1-.25-.07-.39-.1-.35-.07s0,0,0,.06l.34.1.38.13.24.09.25.11a9.07,9.07,0,0,1,1.14.64,8,8,0,0,1,2.1,2,8.66,8.66,0,0,1,.56.91A6.6,6.6,0,0,0,61,33.71a5.28,5.28,0,0,0-.55-.34l-.21-.11s0,.05,0,.06l.2.13c.12.09.3.22.49.39a6.55,6.55,0,0,1,1.92,2.81c0,.11,0,.22.05.32-.22-.25-.47-.52-.73-.78a21.38,21.38,0,0,0-1.81-1.61s-.06,0-.05.05a22.18,22.18,0,0,1,1.56,1.83c.27.35.52.72.73,1l-.33-.15c-.42-.2-.88-.46-1.38-.76a16.77,16.77,0,0,1-1.46-1.06,14.34,14.34,0,0,1-1.33-1.23,14,14,0,0,1-1-1.21c-.15-.18-.27-.36-.38-.51s-.2-.29-.27-.41l-.23-.36s-.07,0-.06,0l.21.38c.06.12.15.26.25.43s.21.34.34.54a14.23,14.23,0,0,0,1,1.29,14.67,14.67,0,0,0,1.28,1.35A15.54,15.54,0,0,0,60.55,37c.36.25.7.48,1,.68a8.74,8.74,0,0,1-1.52-.24,9.32,9.32,0,0,1-4.9-5.14,17.34,17.34,0,0,1-.68-2.47c-.1-.44-.21-1.72-.6-2C58.23,31,61.05,30.7,62.23,33.48Zm6.09,3.29c-.12-.12-.25-.25-.39-.37a7.58,7.58,0,0,0-1.6-1.09,5.27,5.27,0,0,0-.58-.27L65.53,35s0,0,0,.06l.21.12c.13.07.32.18.53.32a7.41,7.41,0,0,1,1.41,1.24,7,7,0,0,1,1,1.52c.06.12.12.23.16.32a4.53,4.53,0,0,0-.06.5,7.91,7.91,0,0,0-.59-.77,8.73,8.73,0,0,0-1.13-1c-.34-.25-.57-.39-.57-.39s0,0,0,0,.21.18.5.47a7,7,0,0,1,.92,1.17,6.55,6.55,0,0,1,.65,1.3c0,.14.15.34.25.55a20.81,20.81,0,0,0-1.54-1.59s0,0,0,0A20.4,20.4,0,0,1,68.78,41c.27.43.51.86.71,1.24-.28-.19-.57-.41-.86-.65a17.55,17.55,0,0,1-1.49-1.36c-.38-.4-.62-.68-.62-.68s-.06,0,0,0,.2.31.55.75a18.07,18.07,0,0,0,1.35,1.55c.21.22.44.44.66.64l-.29-.17a10.6,10.6,0,0,1-1.2-.86,12.48,12.48,0,0,1-1.2-1.21,10.73,10.73,0,0,1-1-1.41,9.11,9.11,0,0,1-.65-1.35l-.11-.29L64.52,37a4.36,4.36,0,0,1-.12-.44c-.07-.25-.1-.4-.1-.4s-.07,0-.06,0l.06.4c0,.13.06.28.1.46l.07.28.09.31A10.62,10.62,0,0,0,65.12,39,10.91,10.91,0,0,0,66,40.52a11.88,11.88,0,0,0,1.16,1.35l.41.37-.35-.18v0h0v0a8.15,8.15,0,0,1-3.71-5.93,11.56,11.56,0,0,0-.85-3.8C64.51,33.73,67.1,34.82,68.32,36.77Zm6.28,6.86a9.62,9.62,0,0,1,.31,1.23c0,.19,0,.35.06.5v0l-3.13-3.5s-.06,0,0,0l1.8,2.54c-.31-.19-.63-.36-1-.52a12,12,0,0,1-.91-1.06,10.76,10.76,0,0,1-1.16-2c-.13-.29-.21-.55-.27-.72l-.1-.28s-.06,0-.06,0l.07.29a6.14,6.14,0,0,0,.21.75,10.28,10.28,0,0,0,1,2.17c.08.13.16.26.25.38l-.5-.2c-.53-1.17-1.93-2.25-1.46-4.92a3.69,3.69,0,0,0,.07-.76c1.56,1.72,3.94,2.25,4.93,5q-.17-.28-.36-.57a8.83,8.83,0,0,0-1-1.18,7.56,7.56,0,0,0-1-.86l-.23-.16-.22-.13a3.42,3.42,0,0,0-.36-.2l-.31-.16s-.06,0,0,.06l.3.18.33.23L72,40l.21.18a7.16,7.16,0,0,1,.93.91A9,9,0,0,1,74,42.3,9.83,9.83,0,0,1,74.6,43.63Zm3.54,6.46c.18.34.38.69.59,1a12,12,0,0,1-2-3.86c-.08-.21-.12-.34-.16-.43a.61.61,0,0,0,0-.11.69.69,0,0,0,0,.12,4.12,4.12,0,0,0,0,.47,6.11,6.11,0,0,0,.76,2.41,6.21,6.21,0,0,0,1.6,2,1.67,1.67,0,0,0,.33.23,18.5,18.5,0,0,0,1.11,1.58l-.09.08c-.51-.46-1-.88-1.54-1.27a14.25,14.25,0,0,1-2.61-4,7.32,7.32,0,0,1-.67-1.71,8.34,8.34,0,0,1,.87-2.23C77.64,46,77.17,48.29,78.14,50.09Z"/><path class="cls-3" d="M94.54,71.17c-.68-1.3-1.44-2.57-2.05-3.49s-1-1.52-1-1.52,0-.06,0,0,.47.57,1.14,1.46,1.5,2.12,2.26,3.4,1.44,2.6,1.91,3.62c.23.5.42.93.54,1.23l.2.48-.69.26-.16-.48c-.11-.3-.27-.73-.47-1.24A39.25,39.25,0,0,0,94.54,71.17Z"/><path class="cls-3" d="M84.88,57a17.64,17.64,0,0,1,2.37,3.19,18.17,18.17,0,0,1-2.71-2.91,16.92,16.92,0,0,1-2.34-3.15A17,17,0,0,1,84.88,57Z"/><path class="cls-3" d="M100.81,114.58c-.34-.46-.83-1-.71-1.53.08-.34.13-.69.19-1,.57-3,1.26-6,1.67-9.1A38.91,38.91,0,0,0,102,92.24a37,37,0,0,0-4.28-12.42l-.94-1.68.56.64c.6.81,1.2,1.62,1.87,2.39a33.44,33.44,0,0,1,3.64,17.48,46.44,46.44,0,0,1-2.47,14.44,2.4,2.4,0,0,1,.25.37,3.22,3.22,0,0,0,.34.56s0,0,0,0a47.8,47.8,0,0,0,1.77-6.29,49.82,49.82,0,0,0-1.89-24.27l0,0,0,0c.13.16.25.32.39.48a13.86,13.86,0,0,0,1,1.44,3.86,3.86,0,0,1,.34,1.24c.11.4.21.81.31,1.22.19.8.36,1.6.52,2.4.29,1.53.52,3.07.67,4.61a42.41,42.41,0,0,1-.5,12.32,29,29,0,0,1-1.32,4.74,20.44,20.44,0,0,1-1.32,2.8A1.37,1.37,0,0,0,100.81,114.58Z"/></g></g><path class="cls-3" d="M92.46,75.13c-3.84,3.76-7.67,5.81-12.46,2.05-1.66,1.26-3.2,2.49-4.79,3.63-3.11,2.24-4.32,2.24-7.06-.38a12.82,12.82,0,0,0-6.37-3.57c-1,.62-2.16,1.39-3.38,2.13a26.44,26.44,0,0,1-3.74,2.16c-2.9,1.15-4.59.08-5.39-3.22-.12-.5-.21-1-.33-1.56C46.86,76,45.61,77.65,44,78.32c-3.29,1.36-5,.64-6.14-2.84a17.27,17.27,0,0,1-.41-2.38c-5,.65-8,5.4-12.91,6.25.08-.87,0-1.35.16-1.46,6.59-4.45,11.35-6.93,15.22-8,0,1.44,0,2.85,0,4.26.06,2.23,1.63,3.21,3.73,2.24,1.14-.53,2.17-1.29,3.28-1.91.94-.53,1.9-1,2.89-1.47.28-.12.68,0,1.39.06-.08,1.38-.23,2.75-.22,4.13a2.29,2.29,0,0,0,3.07,2.09,11,11,0,0,0,2.37-1.25c1.8-1.19,3.56-2.43,5.25-3.6A13.69,13.69,0,0,1,69,78.22c2.39,2.31,3.53,2.3,6.09.37.87-.65,1.6-1.48,2.46-2.14s1.8-1.17,2.71-1.75a11.42,11.42,0,0,1,1.57.62c3.81,2.24,5,2.11,8.17-.56,1.3-1.11,2.09-3,4-3.14,1.76,1.06,1,2.73,1.34,4,.54,1.87,1.75,2.81,3.63,2.2a17.35,17.35,0,0,0,4.21-2.27c1.34-.9,2.53-2,3.82-3a4.32,4.32,0,0,1,1.26-.36c1.88,1.3,3.22,4,6,3.89a61.36,61.36,0,0,0,7-1.09c-5.41,4.71-7.57,4.7-14.21-.08-.75.57-1.6,1.17-2.42,1.82-.56.45-1,1-1.62,1.45a8.62,8.62,0,0,1-6.61,1.86C94.09,79.69,93.61,77.51,92.46,75.13Z"/><path class="cls-3" d="M122,117a15.72,15.72,0,0,1,1.92,1.15c3.29,2.73,7,2.62,10.78,1.48,2.55-.78,5-1.89,7.48-2.84.82,1.16-.14,1.36-.67,1.64a46.42,46.42,0,0,1-6.76,3.39c-4.47,1.49-8.93,1.63-12.69-1.94a32.85,32.85,0,0,0-3.75,1.4,4.91,4.91,0,0,1-6.4-1c-.62-.66-1.16-1.38-1.93-2.29-1.68,1.19-3.1,2.25-4.58,3.23a43.83,43.83,0,0,1-4.63,2.8c-2.26,1.09-4.52,1.2-6.57-.64a22.44,22.44,0,0,0-2.46-1.69l-2.92,2.17a30.11,30.11,0,0,1-2.63,1.89c-3.91,2.29-7.06,1.53-9.78-2.29-.41-.57-.76-1.19-1.18-1.85-2.26.33-3.36,2.21-5,3.22s-3.15,2.29-5.24,2.22c0-.74-.13-1.25,0-1.35,2.68-1.82,5.35-3.63,8.1-5.33a26.32,26.32,0,0,1,3.52-1.52c.58,1.08,1,1.86,1.41,2.6,2.19,3.74,5.05,4.32,8.5,1.69,1-.77,1.84-1.75,2.83-2.54.81-.66,1.73-1.18,2.78-1.87,1,.81,1.82,1.44,2.6,2.16a5.11,5.11,0,0,0,6.51.64c2-1.16,3.87-2.65,5.81-4,1-.7,2-1.34,3-2a11.33,11.33,0,0,1,1.57,1c3.71,3.56,3.7,3.56,8.33,1.25C120.6,117.57,121.26,117.32,122,117Z"/><path class="cls-3" d="M102.9,99.61c-2.28,3.74-6,5.09-10,5.32-1.41.08-2.9-1.11-4.87-1.94-4.2,1.63-8.27.49-11.53-3.44-1.94,1-3.64,2-5.45,2.7-3.38,1.36-5.45.32-6.65-3.17-.23-.67-.41-1.35-.65-2,0-.13-.27-.19-.68-.45l-2.2,1.14c-.8.41-1.57.9-2.4,1.25-4.71,2-7.5,1.33-11.08-2.6C45,97,43.48,100,39.67,99.86a47.57,47.57,0,0,1,9.17-6.93c.44.74.83,1.26,1.1,1.84,1.44,3,2.92,4,5.87,3.09a39,39,0,0,0,5.46-2.34c1.44-.67,2.84-1.44,4.62-2.35.18,1.87.25,3.28.46,4.67.3,1.94,1.45,2.93,3.38,2.7a9.94,9.94,0,0,0,3.5-1.18,33.46,33.46,0,0,0,3.64-2.71A12.47,12.47,0,0,1,78.54,98c3.57,4,5.4,4.35,10.28,1.92.33.09.82.07,1,.29,1.71,2.46,3.91,2.94,6.64,1.88,2.16-.85,4.37-1.57,6.55-2.34Z"/><path class="cls-3" d="M168.21,87.7a11.36,11.36,0,0,1-1.8,1.92c-3.52,2.38-7.55,3.44-11.65,4.18-3.94.72-7.13-.54-9.15-4.18-.52-.92-1-1.87-1.63-3.08-1.32.45-2.48.8-3.6,1.25-3,1.21-5.64.87-7.88-1.59a5.46,5.46,0,0,0-.78-.74c-.12-.08-.35,0-.77,0-1.11.89-2.32,1.94-3.61,2.9-3.86,2.85-5.51,2.75-9.66-.65-3.79.21-7,3.11-11.3,4,2.49-3.27,6.08-5,12.47-6.38a2.78,2.78,0,0,1,.5.21c1.13.8,1.45,2.56,3.25,2.59A6.25,6.25,0,0,0,127,86.3c1.57-1.48,2.9-3.21,4.6-5.14,1.07,1.26,1.74,2,2.36,2.78,1.83,2.32,3.57,2.8,6.09,1.63,1.46-.68,2.91-1.39,4.38-2.06.13-.06.34,0,.85.11.44.94,1,2.07,1.49,3.18,2,4.31,4.57,5.72,9.11,4.62,3.32-.8,6.54-2,9.82-3,.84-.26,1.71-.4,2.57-.6Z"/><path class="cls-3" d="M30.66,117.28c3.41-.5,6.41.19,9-1.55,2.37-1.59,4.89-3,7.3-4.4,3.57,4.37,3.57,4.37,9,4.92.52,1.23-.47,1.61-1.24,1.74a7.33,7.33,0,0,1-8.35-4c-2.57,1.35-4.93,2.59-7.3,3.82C37,119,34.75,119.73,32.34,119,31.83,118.85,31.49,118.16,30.66,117.28Z"/><path class="cls-3" d="M103,99.72c.19-.28.33-.67.59-.79s.51.25.78.4c-.14.11-.28.29-.43.31a8.75,8.75,0,0,1-1,0Z"/></g></g></g></svg>