<svg xmlns="http://www.w3.org/2000/svg" viewBox="0 0 500 367.47">
	<defs>
		<style>
			.cls-1{fill:#231815;}
		</style>
	</defs>
	<g id="圖層_2" data-name="圖層 2">
		<g id="event">
			<g id="map_eu">
				<path class="cls-1" d="M496,219.61A29.88,29.88,0,0,1,485.91,217a25.38,25.38,0,0,0-7.63-2l-3-2.33c-5.22,2.49-9.88.44-14.39-1-3.79-1.09-2.24-5.85-5.49-7.74l-5.91-.81-3-3.59L446,195.3c-1.63-3.14-4-4.09-6.73-4.89-5.08,2.11-10.49,3.44-15.44,2.94-4.36,1.52-4.37,5.67-6.79,8.38-1.37,0-3.17.48-4.54-.1a19.9,19.9,0,0,0-9.68-1.13c-5.3.45-10.26-.75-13.56-3.7-3.56-.74-6.06-1.39-8.59-1.74-1.84-.26-4-.71-5.54,0-2.32,1-4.66.53-7.16,1.11l-6.16,3.49c1.1,2.4,2.19,4.77,3.37,7.31-.55,1.18-1.15,2.46-1.59,3.42-2.05,2.19-5,2.7-6.38,5.82-.33,4.1-1.47,8.47-4.48,11.94.1,1.92.18,3.58.27,5.27l4.27,2.26h7.52a26,26,0,0,1,4.24.08,38.8,38.8,0,0,1,4.62,1.35l3.44-1.54h6.5l7.75-4.38h8.28l11,6.61a22.41,22.41,0,0,0,5.16,7.76,10.46,10.46,0,0,1,3.53,7.89l-2.14,2.37-4.33.8c-.27,3.79-2.66,6.22-5,9.9,3.14-.88,5.24-1.73,6-2l6-5.31,2.6-5.62c4.56-.74,8.72-2.69,13.81-1.63l4.49,5.56H450a16.66,16.66,0,0,1,1.5,2,6.11,6.11,0,0,1,.27,1.7l-4.08,4.48c2.21,1.1,4.19,1.94,5.25,4,1,1.5-.08,3.87,1.84,5.31a15.09,15.09,0,0,0,4.35-3.93c1.44-1.77,3.78-1.32,5.52-2.48a20.63,20.63,0,0,0-5.37-5.14,29.9,29.9,0,0,1-3.68-3.34c-.38-.4-.3-1.25-.4-1.77,2.31-1.11,4.44-2,6.48-3.15s4-2.44,5.73-3.5h5.2l9.53-3.36a24.73,24.73,0,0,0,3.65-4,24.51,24.51,0,0,0,1.8-5l3.86-2.25c3.14-.38,6.45.59,8.51-3.11-1.59-1.78-3.84-3.35-4.17-6.82-.78-2.45,2.46-4,2.9-7A21.65,21.65,0,0,0,496,219.61Z" />
				<path class="cls-1" d="M264.7,108.43c-.93.7-1.75,1.56-2.71,2.44v6.07c-2.11,1.15-4.13,2.27-6.56,3.61a38.25,38.25,0,0,0,7.31,11.09,34,34,0,0,1,6.3,9.53,10.49,10.49,0,0,1,.37,1.94c-.36,1.37-.83,3.2-1.35,5.18,1.36,2.1,2.77,4.27,4.08,6.31,2.39.39,4.44.67,6.43-.18.33-1.59.61-3,.94-4.63a12.17,12.17,0,0,1,3-1.58c2.89-.59,5.84-.92,9.12-1.41,1.68-3.56,1.88-8,3.32-12,1.53-4.24.23-8.69,1.51-12.71,4.09-2.39,8.88-2.83,11.88-6.67l2.93-6.32c-1.89-4.84-7.06-5.38-10.27-8.38l-2.1-6.1V83.29c.85-1.57,1.76-3.24,2.67-4.9,3.44-1.83,6.8-3.54,10.1-5.36s6.61-3.64,9.78-5.69c2.36-1.53,4.51-3.42,6.73-5.17.15-.11.17-.41.26-.62-.38-1.61-.76-3.21-1.08-4.58,2.81-4.61,7-6.81,11-8.66,2.54-.71,4.94.74,7.37-.65a29.65,29.65,0,0,1-1.52-4.75,28.77,28.77,0,0,1-.06-4.7c-1.65-4.11-3.16-7.89-4.67-11.64-1.47-.58-2.77-1.48-4.08-1.52-2.76-.07-5-1.38-7.2-2.71-1.62-1-3.15-2.1-4.76-3.09a4.29,4.29,0,0,0-1.37-.31,2.06,2.06,0,0,0-2,1.56,15.87,15.87,0,0,1-1.78,2.81c-4.1,0-7.86,0-11.61,0-.42,0-.84.35-1.33.57-1.09,1.4-.2,4-3.29,5l-6,.55c-.47.54-1.1,1.24-1.41,1.59-.14,2.08-.24,3.51-.35,5.2-3.17,1.42-5,4.21-6.91,7-1.73,2.5-1.85,2.41-6.05,4.08.18,1.94.36,3.82.55,5.79-1.79,2.3-3.53,4.51-5.35,6.86l1.37,3.89-1.1,2.28c-2.75,2.41-6,2.23-8.35,3a17.76,17.76,0,0,0-6.69,9l3.17,7c-.33,1.47-.58,2.6-.89,4l3.44,2.68c1.11,3.21-.71,5-2.1,6.91.8,2,1.6,4,2.32,5.81C266.46,107.15,266.43,107.11,264.7,108.43Z" />
				<path class="cls-1" d="M102.82,288.39c-2.12-.06-4.25-.13-6.37,0a15.84,15.84,0,0,1-7.52-1.4c-.39-.17-.92,0-1.71.05l-2.77,3.2-5.24,2.84c.2,1.27.29,2.23.51,3.14.18.7.62,1.32.81,2,.25.89-.19,2,.56,2.7l8.63,3.29c2.38-.21,4.67-2.54,7.36-.86,2,1.32,3.85,2.76,4.84,5.35-.14.78-.29,1.71-.42,2.49l-4,3.38v7.24c-2.11,3.84-3.82,7-5.51,10.05,1.16,2.09,2.1,4,1.35,6.55L91,343.17c1.24,2,1.66,3.81.59,6.13l-3.92,3.5c.18,1.36.33,2.53.43,3.26l8.81,4.86c1.37,2,2.55,3.81,3.81,5.56.25.36.76.52,1.48,1l3.55-1,3,.67,6.55-3.72c6.71-1.14,12.18.34,17-.9,4.58-3.56,8.68-6.76,13.16-10.26l1.09-5c.89-1.1,1.64-2,2.42-3s2.45-1.54,2.67-3.39c-1-2.54-2.26-5.21-1.6-6.76l12.62-18.48c2.24-2,5.65-2.7,9-2.66,2.51-1.89,4.81-3.56,7.05-5.34a27.12,27.12,0,0,0,3.12-3,2.11,2.11,0,0,0-.09-3.36h-5.75l-11.62-5.77-4.81,2.29c-2.44-1.17-5.4-.69-7.92-2.26s-5.41-2.91-8-4.27c-4.14-.18-8.3.3-12.09-.69-3.54-.93-7-.77-10.45-.93-3-.14-6.29.39-9.13-.47C108.8,288.39,105.85,288.49,102.82,288.39Z" />
				<path class="cls-1" d="M379.58,14.23c-.21-.39-.33-1-.65-1.16-1.89-.91-3.78-2.18-5.77-2.44-3.93-.52-7.93-.47-12.59-.69l-1.48,1.68c-.81,2.94.05,5-1.14,6.71l-4.58,3.42c-3.59.79-6.19-.49-8.08-1.27h-8.64l-8-5.83-1.47,1.71c2.86,4.83,7.41,5.55,11.79,5.57a15.18,15.18,0,0,1,5.47,7.94,71.47,71.47,0,0,0,2.79,7v5.55c1.31,2.19,2.66,4.41,4,6.61l5.26,1c2.2,4,2.18,4,1.74,7.64-3.14,2.78-6.3,5.3-9.13,8.18a29.09,29.09,0,0,1-8.53,6.32,20.34,20.34,0,0,0-8.94,8v6.33l4.15,5.14c.14,3.09.27,6,.4,9l3.25,1.59a24.18,24.18,0,0,1,2.51,1.21,30.31,30.31,0,0,1,2.48,1.93h13.38A58.28,58.28,0,0,1,378,100.8a16.34,16.34,0,0,0,7.91-2.64c2-1.21,4-2.56,6-3.9a55.18,55.18,0,0,0,3.13-4.68,11.75,11.75,0,0,1,5.62-5.28,17.69,17.69,0,0,0,3-1.86,3.14,3.14,0,0,0,1.65-3c-1.85-4.8-7.21-6.08-9.78-10.24l1.09-4-5.59-6.31c.19-2.72-2.34-5.09-1.4-8.51l1-1.92-6.88-10.71c.42-1,.69-1.95,1.12-2.76.56-1,1.26-2,1.91-3-1.25-2.24-2.61-3.76-4.88-4.23s-3.76-1.9-5.25-4.17c.12-2,.25-4.41.36-6.23C378,15.89,379.71,15.84,379.58,14.23Z" />
				<path class="cls-1" d="M392.19,106.15l-4.8-3.57a47,47,0,0,1-4.74,1.1c-5.1.67-10.21,1.2-15.31,1.85a8.6,8.6,0,0,0-2,.68l-8.87,3.32h-11.3c-1.17-.73-2.55-1.63-4-2.47a10.44,10.44,0,0,0-3.05-1.61c-2.63-.48-4.13-2.12-5.36-4.92V93.05l-4.08-4.72V78.69l1.88-3.39c3.45-2.51,6.5-5.58,10.5-7.27a10,10,0,0,0,2.71-2.31,47.58,47.58,0,0,1,5.88-5.18c2.1-1.47,3.8-3.58,5.82-5.54l-2.12-2.69c-4.57,1.09-9.07-.73-13.41-1.09a27.73,27.73,0,0,0-8.3,5.66c-.1.37-.26.64-.2.84.39,1.38.82,2.73,1.35,4.45-1.56,1.58-3.16,3.32-4.91,4.91a18.71,18.71,0,0,1-3.48,2.43c-6.59,3.7-13.21,7.34-19.82,11a8.32,8.32,0,0,0-1.08.86c-.52,1.12-1,2.21-1.71,3.64v8.41c.66,1.8,1.32,3.59,2,5.54l5.56,2.91,6.43,7c-1.19,1.77-2.56,3.22-3.26,5-2.09,5.19-6,7.81-11,9.19-1,.27-1.81,1.37-2.7,2.09a38,38,0,0,1-1.5,13.11c-1.26,4.05-1.21,8.65-4.44,12-3.21.83-6.65-.43-10,1.43a8.75,8.75,0,0,0-.79,2.41c-.08,2-1.11,3.1-3.38,4l-9.29-.43c-1.06-2.14-2-4.05-2.94-5.91-.15-.27-.68-.32-1-.47-1,1.3.65,2.17.37,3.68-2.2,2.6-1.91,6.5-3.46,9.72a5.91,5.91,0,0,0,.79.64l4.51-2.82c4.75,1.65,8.62,4.15,11.31,9.13,6.22-2.68,12.31-3.45,17.78-6.24a19.51,19.51,0,0,1,6.07-1.71c4.12-.61,8.19-1.61,12.55-2.5l4,3.86,5.67-1.51,8.47-7.91c-.19-1.86-.4-4-.61-6.12,1.9-2.84.88-6.16,1.47-9.21.81-4.18,2.22-8,7.07-8.85.31-.06.56-.48,1-.84-.72-.71-1.41-1.35-2.07-2a3.86,3.86,0,0,1-1.4-3.5l8-8.68c5.14-2,10.17-3.9,15.23-5.73,1.29-.47,2.88-1.1,4-.71,3.19,1.06,6.56.76,9.66,1.66a22.45,22.45,0,0,0,7.6,1,5.7,5.7,0,0,0,1.35-.43l1.79-3.06Z" />
				<path class="cls-1" d="M234.92,237.1c3.12,1.76,7.16,2.82,11.22,3.82,3.71-1.33,3.69-1.28,6.65-.08a19.51,19.51,0,0,0,3.34.76l4.64-3,7-.47-1.05-4.27c1-2.55,3.44-3.06,5.46-4.18,1-.55,2.07-1,2.13-2.87L265.73,222c-1.21-3.73-2.23-6.91-3.37-10.44.39-.51.81-1.55,1.55-1.9,5.3-2.57,10.66-5,16-7.44a2.22,2.22,0,0,1,.69-.06l2.42.69c.48-.54.8-.88,1.3-1.43l-2.28-3.94c-.39-7.22-1.06-9.58-4-14.37.41-2.16.8-4.26,1.16-6.17l-6-8.09-4.72-2.44-13.88,6.19-4.68-4c-2.55-.57-4.82-1.4-6.6-3.69-.91-1.18-2.74-1.72-4.27-2.21-.7-.22-1.65.36-2.43.57V170l-5.08,7.2a9.4,9.4,0,0,1-2.84-.56,6.38,6.38,0,0,0-4-1,6.76,6.76,0,0,0-1.79.78c.31,2,.59,3.82.88,5.65L220,185.55c.27,1.9,1.85,3.59-.4,6.84-.89,1.23-3.68,1.88-6.61,2.9,2.64,3.92-.1,8.39,1.53,12.66,1.49,3.93,1.82,8.33,2.56,12.06,3.69,3.11,8,2.57,12.26,4.5.12,5-3.58,8.57-3.62,13.25C228.77,240.4,231.33,236.38,234.92,237.1Z" />
				<path class="cls-1" d="M219.31,125.6c6.69.85,11.89-1.76,16.5-5.73,2.92-2.53,6.07-4.42,9.16-5,1.94-1.63,1.56-4.35,4-4.57,2.56,1.34,3.73,4.07,5.66,6.4,1.09-1.65,3.37-.3,4.33-2.34-.28-1-.59-2.19-.87-3.25,1-3,3.74-4.41,5.52-6.76l-1.71-5.17,1.74-4.77-2.93-3.49V84l-2.82-6.9,5-8.16c3.29-3.43,7.53-3,10.64-5.31-.56-1.37-1.09-2.67-1.69-4.12,2-2.15,4-4.21,5.95-6.3V46.89c1.44-3.9,4.21-4.16,5.87-4.68l6.76-8.32c.16-1.51.31-2.93.41-3.89,3-3.91,7.61-3.5,10.74-5.91.89-3,3.15-4.17,5.77-4.85,2.65,1.27,5.41,1.25,8.48.78L319,15l4.32-.54,3.59-2.63h3.54l8.35,5.9,6-1.44c1.76.84,3.46,1.68,5.19,2.42a5.94,5.94,0,0,0,1.81,0l3.41-2.86c.28-1.91.52-3.58.73-5.07,1.53-2.16,3.08-3.95,5.73-5l3.6.94,5.31-.89c3.07,1.21,5.27,2,7.43,3s4.22,2,6.41,3l3.56-.6c-.24-1.47-.43-2.56-.62-3.64.35-1.39,2.42-1.72,2-3.78a5.79,5.79,0,0,0-1.65-.74c-3.46-.48-6.94-.6-10.41-1.4a17,17,0,0,0-11.09.72l-3-2.23c-.6.18-1.25.36-1.9.58-.88.28-1.77.58-2.8.93C353-1,347,.38,341.41.1l-4.25,1.95L332.7,7c-4.2,1.09-8.17,1.26-11.91,2.78a8.49,8.49,0,0,1-8.13-.63c-.86-.55-2.18-.37-3.41-.54l-2.43,4.08-5.46,3.16c-2.27,5.45-6.78,7.63-12.74,8.14-.81,4-3.52,6.65-6.11,8.68-.51,1.66-.85,2.79-1,3.26-2.37,3-5.41,3.11-8,4.36a30.67,30.67,0,0,1-2.72,4.13,37.35,37.35,0,0,1-3.95,3.44l-2.3,6.37-6.21,4.53c-.6,1.32-1.08,2.4-1.47,3.26L251,65.08l-8.21,8.07c-4.24-.16-8.17.28-12,2.45l-1.94,2.73a17.08,17.08,0,0,0-3.24,1.24,51.06,51.06,0,0,1-12.1,5.63c-1.89.58-4.08,1.35-5.24,3.53v15A38,38,0,0,1,213,121.21Z" />
				<path class="cls-1" d="M316.92,167.89,313.27,165c-4.25,1.72-9.07,1.27-13.47,3.11-2.37,1-5,1.53-7.14,2.9-2.56,1.64-5.6.87-8.07,2.37L282,175V183c2.82,3.73,2.95,8.34,2.9,12.62l3.68,7.42c2.1.64,4.36,1.26,6.57,2,1.76.61,3.77,1,5.12,2.22,3.08,2.7,6.64,3.41,10.35,3.45,2.77,2,5.11,4.41,8.46,5.27,1.41.36,2.5,2,3.32,2.73l9.11,2.18c3.57-.15,8.3-2.43,13.58-1,2.06,1.15,3.8,3.87,7,3.37,1-1.91.57-3.95,1-5.79a53.06,53.06,0,0,1,2.05-5.57c1.1-.72,2.32-1.43,3.44-2.29s2.4-1.59,2.49-2.58c-1.65-4.89-3.1-9.18-4.76-14.07-.92-.82-2.57-2-2-4.54.78-2.12,3.52-3,4-5.48-.49-1.47-.86-2.87-1.42-4.19-1.33-3.1-2.28-6.4-4.56-9a8.61,8.61,0,0,0-1.66-1.21L347.87,171c-1.73,0-3.54.47-5-.09-4.34-1.66-8.84-1-12.95-1.41l-6.32-2.2C321.57,168.72,319.26,168.52,316.92,167.89Z" />
				<path class="cls-1" d="M383,239.75,379,238.57c-2.51.53-3.56,3.32-6.64,2.46l-3.71-2.35H358.9c-4.85,1-7.89,3.66-10.73,5.56-3.37,3.92-1.53,9.11-4.51,12.71l-5.17,2.75c4.21,3.73,6.3,9.23,10.9,12.37l4.95.56c1.35,1.8,2.55,3.57,3.91,5.17s2.87,3,4.33,4.51a59.4,59.4,0,0,1,6.25.05,65.42,65.42,0,0,1,6.45,1.34l2.28-.88,3.08,1,7.44-4.25h11c3.56.92,5.42,3.47,8.63,2.36.89-3.33,0-7.33,2.91-10.32l2.81-1.66c0-.48-.08-.92-.12-1.38l-5.44.9-5.11-3.53c-.83-5.06-2.52-9.65-1.87-14.71l-7.8-10.84-4.75-3.5Z" />
				<path class="cls-1" d="M426.84,177.34c1.09.18,2,1.42,3.29.6-.69-3.62-4.05-3.26-6.79-4.65-1.1-3.63-4.15-5.9-6.56-7.4-3-3.12-2.54-6.58-3.61-9.48l-3.32-2.82c-6.3,1.08-12.05-1.27-17.69-2.72l-4,2.94c-1.64,0-3.52,0-5.4,0-.34,0-.67.42-.94.59.2,1,.39,1.92.51,2.53-1.25,3.34-4.86,3.47-6.32,6.07l-1,4.67a72.09,72.09,0,0,1-16.11,6.83c1.45,3.81,3.51,7.47,2.18,11.73l-2.39,3.24A14.85,14.85,0,0,1,360.6,192a28.62,28.62,0,0,1,1.21,3.72l3.46-2.38a35.1,35.1,0,0,0,5.54-.85,19.81,19.81,0,0,1,10.44-.6c3.84.87,7.84.93,11.52,2.83,6.18,3.2,7,3.14,13.51,1.45l8,2.65,4.35-6.56,4.86-2.94-2.94-9.75,2.41-2.26A24.68,24.68,0,0,1,426.84,177.34Z" />
				<path class="cls-1" d="M224.51,278.44l2.68,2.29,6-4.22h5.52c5.48,2.61,9.18,5.73,11.13,10.29,2.49,5.79,6.74,9.9,11.14,13.94,1.93,1.76,4.15,3.19,6.09,4.93a11.18,11.18,0,0,0,6.93,3.22,9.46,9.46,0,0,1,6.67,3.62c.95,1.08,1.88,2.17,2.44,2.82,5.1,1.71,5.1,1.71,8.92,7.14l6.16,2.64c2.75,4.42,1.89,9.36,3.71,13-.16,2.95-2.56,4.58-2.13,7.11,1.59.31,2.3-.62,3-1.88.21-1.45.45-3.08.65-4.45l2.16-1.84c1-3.19-2-4.45-2.48-7.58a10,10,0,0,1,4.21-9.1c3,0,5.27,3,7.81,1-3.12-3.5-7.18-5.32-11.41-6.81a28.64,28.64,0,0,1-7.37-3.77c-.42-1.27.06-2.66-1.18-3.46l-3.53-.25c-3.11-2.1-6.26-4.19-9.38-6.33a13.83,13.83,0,0,1-5.35-6.63c-.51-1.34-.89-2.73-1.3-4-2.9-3.05-2.9-3.05-3.41-3.11l-5.77,1.5-2.59-2.32c-.69-2.27-.68-4.14.7-6-1.7-2.88-1.4-5.89,0-8.91-1.05-2-1.77-4-.05-6.22a25,25,0,0,0,4.12-.4c2.69-.73,5.51-1.44,6.39-4.81-2.14-5.83-8-7.28-11.25-11.05h-7.61l-6.41,5.6-2.24.26a20.94,20.94,0,0,1-2.09,1.9,17.71,17.71,0,0,1-2.36,1.22l-2.94-1.13c-.85,1.85-.95,4.26-3.29,5.34l-2-.13-4.61-4.22-3,2.77c-2.68.52-5.09-.3-7.58.83.59,1.87,1.14,3.62,1.64,5.23L218.64,270l2.21,2.95c-.48,1.48-.9,2.8-1.44,4.45Z" />
				<path class="cls-1" d="M396.41,301.71c1.67-.25,2.73,1.84,4.1.43-.41-1.15-.82-2.27-1.19-3.29,1.05-2.15,2.62-4,2.77-6,.22-2.71,2.55-4,3.11-6.6-2-1.75-4.61-2.28-6.82-3.62h-9.23l-6.74,4.29c-4.36-.62-9.13,1-13.34-1.58-.92.35-1.56.63-2.22.85s-1.34.37-2,.56a48.83,48.83,0,0,1-5.33-1.74,22.24,22.24,0,0,1-3.55-2.68c-.22,3.76,3.38,4.59,3.73,8.48-.37,2.83-.9,6.85-1.36,10.34,1.54,2.86,3.85,3.59,5.81,4.74,6.5-.16,12.11,3.53,18.74,4.19,2.15-1.11,4.66-2,6.83-4S394.34,303,396.41,301.71Z" />
				<path class="cls-1" d="M303.13,245.36a27,27,0,0,1-1.36,3.32l2,3.8,9.35,6.45h10.07l4.46-3c4.71,0,9.26,1,13.6-2.06.81-2.87,1.41-5.45,2.29-7.94s2.26-4.78,4.79-6a7.25,7.25,0,0,0,2.27-1.64c.4-.44.41-1.25.64-2-6.25-1.42-12.05-4.32-18.55-3.34-4.24,3.85-9.62,5.7-13.8,8.44-3.87.39-6.59-1-9.34-2.44a9,9,0,0,0-2.29-.41l-3.63,3.15A28.54,28.54,0,0,1,303.13,245.36Z" />
				<path class="cls-1" d="M376.12,314.49l11.61,2.5c.57-1.1,1.17-2.14,1.64-3.24a3.68,3.68,0,0,0,0-1.37,2.62,2.62,0,0,0-3.29-.21c-2,1.2-4.07.79-6.17.9s-4.17-.91-6-1.66a19,19,0,0,0-9.81-1.08l-3,4.23-6,.33-2.62,3.83-5.22.78c-2.9,4-6.66,7.3-8,11.69,1.28,6.58,5.23,10.52,9.56,14.46l10.72-2,8.31,4.27a5.94,5.94,0,0,0,.43-4.59c-1.38-2.42-3.67-4.35-4.27-7.61.29-.9.65-2,1.08-3.35-1.09-1.67-2.32-3.43-3.42-5.28a8.15,8.15,0,0,1-.54-2.26l2.43-4.19C368,319.09,371.42,315.39,376.12,314.49Z" />
				<path class="cls-1" d="M279.28,206.43c-2.37,1-4.85,1.75-7.17,2.83-2.07,1-4.56,1.38-5.73,3.76.61,2.14,1.2,4.2,1.8,6.27,1.61,1.84,3.84,2.56,5.89,3.68s3.33,3.26,5,5h4.06l6.91-3.88c3.49.94,6.37,2,9.34,2.42a39.27,39.27,0,0,0,9.13,0c1.53-.15,3-1.24,4-1.7l3.86-5.66c-2.6-1.72-4.63-2.92-6.5-4.35-2.27-1.74-5-1-7.6-1.58-4.11-4.75-10.83-4.1-15.57-8C284.48,207.35,281.72,205.75,279.28,206.43Z" />
				<path class="cls-1" d="M74.41,332.15c-1,2.21-2.11,4.33-3.12,6.53a3.16,3.16,0,0,0,0,1.26l4,3.6a91.76,91.76,0,0,0-.15,13l4.53,1.91c1-1.89,3.83-.34,5.08-2.64-.32-1.2-.62-2.34-1-3.68l5.17-5.81a6.22,6.22,0,0,1-.87-5.7l2.56-4.14c-1-1.67-1.93-3.08-2.73-4.34V329l3.29-2.33c.92-2,1.71-3.73,2.7-5.86V313.3l3.67-3.36c0-.85.07-1.32.12-2.12l-3.44-1.57c-3.14,1.83-6.25.49-9.09.9l-3.66-2.42c-.62.57-1.19,1-1.67,1.55-.61.69-1.16,1.45-1.63,2.05,1.39,5.26,2,10.21-.18,15.15C76.71,326.34,75.66,329.29,74.41,332.15Z" />
				<path class="cls-1" d="M353.83,277.34c-.57-.33-1-.75-1.37-.75a10.53,10.53,0,0,1-9.33-5.52,31.49,31.49,0,0,0-13-11.91c-1.91.83-4,1.29-5.18,3.39q1,2.29,2.05,4.59c.18,3.14.35,6.29.53,9.37a61.55,61.55,0,0,0,3.15,7.29,54.47,54.47,0,0,0,4.35,5.53,23.16,23.16,0,0,1,1.62,2.38,8.33,8.33,0,0,1,.49,1.72c-.31,1.07-.69,2.42-1.13,4l4.59,3.52,5.28-2.29c1.73,0,3.15.06,4.55,0,1.58-.08,3.32.52,4.94-1.22.18-2.3.39-4.92.57-7.2L352.46,285C352.93,282.32,353.39,279.79,353.83,277.34Z" />
				<path class="cls-1" d="M269.8,242.37a13.79,13.79,0,0,0-7.75-.87c-1.63,1.16-3.35,2.36-5.1,3.59,2.41,1.39,4.57,0,7.18-.59l6,5.63h22.12l6-3.21c.71-1.22,1.31-2.25,1.87-3.23.51-1.64-.39-3.48.6-4.6l2.38-1.73c-.71-2.55-1.33-4.79-1.94-7a61.29,61.29,0,0,0-6-1.76,55.66,55.66,0,0,0-6-.58l-3.81,3.14H276.2c-1.66,1.24-4.25,1.43-5.55,3.81a24.3,24.3,0,0,1,1.17,3.39C272.17,240.19,271.65,241.7,269.8,242.37Z" />
				<path class="cls-1" d="M351.76,164.69c2.95,1,3.65,4.29,5.64,5.89,5.39-.78,10-3,14.65-5.21.43-1.53.81-2.92,1-3.57,1.38-3.11,4.37-3.92,5.34-6.86-3.63-4.39-8.86-5.26-13.29-7.34-1.77.59-3.32,1.11-4.59,1.52-6-1.52-11.63-3.12-18-2.74l-6.63,3.68c.61,2,1.15,3.84,1.54,5.15,3.16,3.47,6.5,2.56,8.86,3.13A13.48,13.48,0,0,1,351.76,164.69Z" />
				<path class="cls-1" d="M375.79,133.94c-2.65-.83-5.07-2.42-7.5-3.64h-6.64c-.33,2-.63,3.86-.81,5-1.49,3-3.77,3.77-6.19,4.73l-9.45-6.62-5.71,2.28c-.59,2.8-2.69,5.1-1.83,8.61,3-1.34,5.95-1.11,8.91-1.1a29.5,29.5,0,0,1,9,1.24,13.29,13.29,0,0,0,9.88-.7l14.06,6.65h7.95l2.32-2.29c-.8-4.88-3.87-8.68-5.53-13.14C380.84,134.61,378.19,134.69,375.79,133.94Z" />
				<path class="cls-1" d="M305.59,284.56c5.33,1.28,8.48,5.76,12.34,9.17,2.89-1.26,2.39-4.77,4.33-6.36l4.56-2.61c-.82-3.94-3.28-7.45-2.52-11.6l-5.44-2.47H302.6L300.28,273c1.05,2,2,3.63,2.79,5.35C304,280.32,304.7,282.34,305.59,284.56Z" />
				<path class="cls-1" d="M212.23,254.21a30.57,30.57,0,0,0,3.39.12c.85-.07,1.52-1.23,2.6-.45l3.87,3.74,2.51-.12a9.78,9.78,0,0,1,5.58-3.84l6,3.74c.75-2.53,1.92-4.29,4-5.29l2.84,2.2,1.5-2.11,7.83-4.41c-.7-1.6-1.35-3.1-2.09-4.81L246,244.42c-4.18-1.14-8.5-2.09-12.12-4.39l-13,5.13C219.35,248.9,216.64,251.81,212.23,254.21Z" />
				<path class="cls-1" d="M372.57,128.75a29.69,29.69,0,0,0,8.79,2.89l2.31-2.24c-.48-2.46-.37-4.94-1.44-6.61-1.35-2.13.06-4.12-.72-6.84-6.8.17-13.39-3.39-19.1-1.91l-13.23,5.15c-1.49,1.92-3.05,3.91-4.78,6.15,2.63-.43,2.63-.43,7.4-5a43.54,43.54,0,0,1,5.48,2,60.52,60.52,0,0,1,5.5,3.64C366.21,125.58,369.42,127.16,372.57,128.75Z" />
				<path class="cls-1" d="M331.68,229.76h10.76l5.73,2.32c.5-1.76.93-3.32,1.43-5.11l-5.5-3.28c-5.15.18-10.34-.65-15.14,1.71l-4.06-2.87h-6.46l-4,5.29-8.08,2.68c-.76.67-1.88,1.31-1.21,2.82l11.62,5.26Z" />
				<path class="cls-1" d="M303.54,266.08a12.42,12.42,0,0,0,10.92.55c1.4-.59,3.23-.1,4.15-.1,2,.37,2.55,2.23,4.19,1.79.87-2.51-1.12-4-1.84-6.09l-10.24-.66c-3-2.11-6.25-4.43-9.59-6.78l-4.49,3.58c-.33,1.14-.66,2.28-.58,2l-5.61,7.13L284,265c.16.79.11,1.34.35,1.55,3,2.72,6,5.38,9.66,8.67a14.48,14.48,0,0,0,5.9,7c.07-.79.37-1.54.15-2-1-2.2-2.16-4.29-3.11-6.5a16.59,16.59,0,0,1-.75-3.17c.48-.67.67-1.23,1-1.42C299.33,268.05,301.41,267.09,303.54,266.08Z" />
				<path class="cls-1" d="M194.53,199.48a11.24,11.24,0,0,1,8.33-1.8l5,2.89c.42,1.43.75,2.55,1.09,3.73h1.59c.67-2.6.91-5.09-.57-7.59a6.41,6.41,0,0,1-.35-2.53c2-3.2,5.93-2.21,8-4.73L215.85,185l3.82-4.54c-2.55-1-4.86-.62-7.36-.4-2.28,1.38-4.68,2.83-7.09,4.27l-3.52.4-3.65,9c-2.81,2.17-5.22,4-7.62,5.94a3.33,3.33,0,0,0,.24.48C192.13,201,193.34,200.29,194.53,199.48Z" />
				<path class="cls-1" d="M485.36,264.37c.71-2.81,1.29-5.12,1.93-7.61l-3.1-5.24c-4.72,1.61-8.78,3.6-13.36,3.26a7.34,7.34,0,0,0-2,.56c-3,.73-5.41,2.52-7.83,4.5,1.52,2.7,4.22,3.69,6.61,5.15,3.71-.21,7.43-.83,11.07,1.17C480.36,263.5,483.47,265.43,485.36,264.37Z" />
				<path class="cls-1" d="M406.06,261.87l2.74-3c1-2.39-.08-4.33,1.55-5.6l4.84-.75c-.06-1.29-.11-2.23-.17-3.67-3.4-2-5.5-5.51-7.52-9.08a28.51,28.51,0,0,1-4.56-1.92,37,37,0,0,1-4-3.35h-6.13c3.44,5.77,8.76,9.83,11.2,16.29A20.19,20.19,0,0,0,406.06,261.87Z" />
				<path class="cls-1" d="M245,140.46l2.65-5.62-3-.35-5.72,5.36-4.33,1.26c-.78,2.08-1.63,4-2.26,6.09s-1,4.14-1.52,6.36c.7.91,1.48,1.81,2.12,2.81s1.09,2.06,1.61,3.06c2.19,0,4.31.77,6.44-.92-.31-1.31-.63-2.67-1-4.39.63-3,4.54-4.39,5.07-8.84Z" />
				<path class="cls-1" d="M343.54,303.14c-.87,1.81-1.59,3.3-2.29,4.73.26,1.81.49,3.46.72,5.07,1.37,1.19,2.59,2.26,3.8,3.33l4.54-.49,2.47-3.39c2.44-1.17,4.75.16,6.85-1.63.13-.6.33-1.5.48-2.21l-6.85-6.83C349.93,300.83,346.84,303.1,343.54,303.14Z" />
				<path class="cls-1" d="M188.16,206c1.33.42,2.65.53,3.84,1.53a24.89,24.89,0,0,0,4.38,2.38,11.45,11.45,0,0,0,1.53,2.19,6.93,6.93,0,0,0,2.36,1.42c.9.34,1.82.55,2.24,1.55a2,2,0,0,0,2.29,1.29l1.34-3.73,5.05-1.2c-.12-1.22-.2-2.12-.31-3.24l-4.88-.53-1.38-1.83c.2-1,.39-1.88.65-3.09l-5.19-2.46-5.75,3.07a17.69,17.69,0,0,1-8.6-.72C185.43,204.91,186.9,205.57,188.16,206Z" />
				<path class="cls-1" d="M338,326.16c.52-3.07,4.15-4.13,4.67-7.57-1.35-1.68-2.68-3.33-4.09-5.1v-8.72c-1.74-1.68-3.42-3.29-5.25-5.07-2.77,1.21-3.34,2.92-3.31,5.41a40.26,40.26,0,0,1,2.84,17.44C334.44,324.21,335.32,326.05,338,326.16Z" />
				<path class="cls-1" d="M288.39,263.1l4.56-3.58a9.85,9.85,0,0,1,2.18-4.56c1-1.43,3.65-1.37,3.49-4.31l-5.57,2.6c-5.61,0-11.29-1.27-16.51,1.87,1.08,2.26,2.11,4.4,3,6.35C282.64,262.88,285.94,260.71,288.39,263.1Z" />
				<path class="cls-1" d="M402.37,314.39h9.13a42,42,0,0,1-4.53-3.52,59,59,0,0,1-3.83-5h-7L394,307.74a32.2,32.2,0,0,1-.4,4.05c-.35,1.61-1,3.16-1.56,5.07l6.79,2Z" />
				<path class="cls-1" d="M277.87,351.1c-2.36.36-4.31-2.35-7-.57,5.38,4,12.11,5.14,16.89,9.65.91-.3,1.54-.5,2.39-.76.25-1.7,0-3.4.23-5,.24-1.8.8-3.56,1.3-5.64L284.47,351A46.41,46.41,0,0,0,277.87,351.1Z" />
				<path class="cls-1" d="M331.63,161.47a37.51,37.51,0,0,0-2.64,3.34c5.92,2.2,11.64,2.36,17.42,1.76.18,0,.34-.31.51-.47a2.7,2.7,0,0,0-.53-3.24c-2-.6-3.94-1.17-5.9-1.78s-3.69-2.16-6.57-1.33A14.58,14.58,0,0,0,331.63,161.47Z" />
				<path class="cls-1" d="M352.68,124.47,346,129.6l8.22,6.4,2.26-.31a49.75,49.75,0,0,0,1.73-5.4c.29-1.37.53-2.91-.65-4.2-.84-.24-1.75-.48-2.63-.77S353.21,124.67,352.68,124.47Z" />
				<path class="cls-1" d="M351.41,352a42.44,42.44,0,0,1,1.21,4.32c.28,1.62-.12,3.4,1.43,5.08l4.88-1.11c1.27.47,2.36,2.09,3.68.23-.48-1.81-1-3.64-1.57-5.91a10.69,10.69,0,0,0-7.77-4.66Z" />
				<path class="cls-1" d="M329.76,297.26a52.62,52.62,0,0,1,4.46-3.54,16.88,16.88,0,0,0-5.29-5.69c-2.79.33-4.44,1.86-5.81,4.24v3.9l3.66,4.86A35,35,0,0,1,329.76,297.26Z" />
				<path class="cls-1" d="M258.93,158.11c1-.63,1.8-1.06,2.51-1.63a4.69,4.69,0,0,0,.76-1.34c-.07-.59-.15-1.29-.28-2.38L255.06,154Z" />
				<path class="cls-1" d="M208.88,215.62c.5,1.35,1.26,2.3,3,2,.19-.51.41-1.1.6-1.63C211.3,214.62,210.12,214.76,208.88,215.62Z" />
				<path class="cls-1" d="M468.29,268.79c1.95.1,3.93,1,6.29-.56C472.16,268.05,470.19,267.39,468.29,268.79Z" />
				<path class="cls-1" d="M121.79,143.89v2.83c-.77,1.87-2.94,2.38-2.63,4.61l3.48,2.19c.27,1.21.53,2.37.82,3.64l4.54,2.51h7.88l1.66,1.61c-.56,2-.95,3.32-1.3,4.56l5.31,6.1c-.77,2.46-1.47,4.73-2.09,6.69-3.18,2.64-6.65,3.07-10,3l-1.69,1.88,2.48,3.71c-.05,1.1-.1,2.29-.17,3.74l-6.51,3c2.49,1.22,4.9.38,7.17.78s4.44,1.17,6.86,1.82c-.12,1.36-.22,2.5-.29,3.38-2.81,2.8-6.08,3.3-9.19,3.7-3,2.62-6.54,4.21-8.68,7.61.51.27.92.69,1.26.63,4.73-.76,8.47-4,13.39-5.76,6.76.41,14,.65,21.16-1.27a8.35,8.35,0,0,1,1.41-.17c2.08-.21,4.16.2,6.27-.6a47.39,47.39,0,0,1,6.9-1.46c-1.94-1.05-3.43-1.75-4.8-2.65a3.18,3.18,0,0,1-1.76-3.08,16.31,16.31,0,0,1,5.18-4.59,9.49,9.49,0,0,0,4.24-5.38c-2.75-2.8-6.17-2.65-8.22-2.86-3.77-1.88-2.45-4.92-3.57-7l-2.11-2.69c-.16-2.12-.3-4-.44-5.85a26.19,26.19,0,0,0-2.58-1.7,26.52,26.52,0,0,0-2.66-1c-2.61-2.71-2.91-5.61-3-8.61L143.26,150c-.32-.78-.63-1.44-.86-2.11s-.4-1.37-.57-1.94c2.23-4.79,2.23-4.79,6.35-7.67-.46-1.53-.92-3.09-1.44-4.83-4.13-.33-8.05-.64-11.79,1.21l-4.33-2.18c-.38-2.36,1.79-3.11,2.13-4.63s2.69-1.44,2.38-3.71l-8.36.43a10.24,10.24,0,0,1-5.3,5.85c-.36.19-.54.75-.8,1.13-.13,1.19-.27,2.38-.38,3.4l-2.68,2.24c.08,1.55.14,2.75.2,3.78Z" />
				<path class="cls-1" d="M54.76,45.09l-7.25,2.59c-3.32-1.35-6.4-.56-9.12-.75l-7.25,3c-2-.65-3.79-1.28-5.58-1.72a5.05,5.05,0,0,0-2,.29c-1.09,1.4-2.12,2.69-3.19,4.06H16.18l-2.63-5.14a10.08,10.08,0,0,0-6.61-2.26A12.15,12.15,0,0,0,0,47.87l6.6.48c1.23,1.33,2.34,2.54,3,3.27,1.19,3.51-1.77,4.75-2.45,6.75l3.9,4.9c-.46,1.46-1.71,2.38-.16,3.85a36.51,36.51,0,0,0,3.9,0,19.56,19.56,0,0,1,11,1.87c3.48,1.75,6.45,1.09,9.22-1,4.66-3.45,10-5.07,15.37-6.67,3.8-1.13,7.69-2,11.41-3.32,2.61-.94,5.22-2.27,5.89-5.46l-6.81-7Z" />
				<path class="cls-1" d="M80.64,188.68a3,3,0,0,0-2.2,2.53l4,5.69c3.86-.41,6.69-2.6,9.47-4.66a20.64,20.64,0,0,1,9.76-3.56,39.55,39.55,0,0,1,4-.22l3.38-6.84V171.49l-2.86-2.08-4.72,1.74L98,167.43v-2.55l2.42-3.41c-1.11-1-2.17-.68-3.56.18L95.6,167l-3.47,2.81c-2.78,0-5.59,0-8.4,0-.38,0-.76.46-1.42.88v4l4.08,5v3.74C84.75,185.56,83.12,187.61,80.64,188.68Z" />
				<path class="cls-1" d="M102.17,166c1.62,1.32,3.6.15,4.58.51l6.81,3.06c1.2-1,2.28-1.57,2.36-3.46-.58-1.09-1.33-2.55-2.11-4a5.09,5.09,0,0,0-.7-.68l-6-1.79c-1.59,1.82-3.25,3.7-4.88,5.6C102.11,165.41,102.19,165.74,102.17,166Z" />
				<path class="cls-1" d="M238.42,316.26A4,4,0,0,0,234,318v18.22l6.62-3.3C240.67,327.07,241.63,321.34,238.42,316.26Z" />
				<path class="cls-1" d="M237.88,298.45c-1.81,1.09-2.53,1.94-2.44,3.75l2.44,2.68Z" />
				<path class="cls-1" d="M165.64,218.8l-3,3.7H151.26l-3.52-2.7c-.62.78-1.21,1.5-1.87,2.32.45,1.7.95,3.3,1.26,4.93a6.67,6.67,0,0,1-.32,2.1l-3.47,1.8-6.64.3-4.14-1.77-10.2.57-1.81,1.76,1,2c.42.82.85,1.63,1.29,2.49l2.9.63c5.92,1.18,11.42,3.36,14.83,8.78,1.83,2.91,4.29,5.13,6.32,7.77l3.25,7.26c0,2.74,0,5.42,0,8.09a7.29,7.29,0,0,1-.56,2.83c-2.56,5.31-1.83,11.33-3.91,16.94,3.1,1.8,5.83,3.65,8.92,4.82,2,.77,4.23,1.34,6.13.2,2.34-1.41,4.39-.87,6.72-.2a21.17,21.17,0,0,1,5.87,3.16c3,.62,5.11,1,7.18,1.44.18,0,.4-.16.6-.25,2.59-1.26.82-4.13,2.79-6.94-.2.25.26-.72,1-1.2,2.38-1.51,4.88-2.84,6.79-3.93,8.06-1.11,14.82,2.06,21.82,3.53,4.59-2.86,4.59-2.86,7-7.65a11.32,11.32,0,0,1-5-4.88l1-3.2c-.48-1.75-2.59-2.43-2.28-4.53.9-.95,1.84-1.94,2.83-3l-1.49-3.84c-.14-1.65,1.77-2.69.25-4.53l-4.67.93-2.71-3c.78-1.46,1.47-2.73,2.32-4.31,4.17-1.44,6.45-5,7.68-9.46l4.1-1.08c-.69-4.84,1.6-8.72,2.65-13.07-3.56-2.56-8.75-2.12-11.05-6.55-1,0-1.66,0-2.37,0-6.28.51-11.18-2.76-16-6.26-1.37-2.87-4.79-3-6.6-5.23-3.18-.38-5.34-2.75-7.77-4.7l-5.35,2.68c-.58,2.82-1,5.72-3.56,8.48Z" />
			</g>
		</g>
	</g>
</svg>
