<svg xmlns="http://www.w3.org/2000/svg" xmlns:xlink="http://www.w3.org/1999/xlink" viewBox="0 0 264.22 156"><defs><style>.cls-1{fill:#fff;}.cls-2{mask:url(#mask);}.cls-3{fill:#7c4821;}</style><mask id="mask" x="9.64" y="-0.63" width="190.53" height="152.96" maskUnits="userSpaceOnUse"><path class="cls-1" d="M9.73,56.83a10.87,10.87,0,0,1,10.69-9.44c2.43,0,4.86,0,7.29,0a9.34,9.34,0,0,1-.44-3.13c-3.71-1-7-3.74-7.93-7.61a11.89,11.89,0,0,1-.29-2.75,9.68,9.68,0,0,1-1.95-6.19A11.11,11.11,0,0,1,28,16.87c4.65-.15,9.31-.24,14-.31,2.7-1.07,5.42-2.1,8.15-3.07a14,14,0,0,1,5.43-1.88,238.35,238.35,0,0,1,84.57-12c5.68.23,11.16,4.85,10.89,10.89,0,.29-.05.58-.08.86q6.38.67,12.73,1.52h0l2.9.39c5.34.74,8.44,7.19,7.8,11.94a10.62,10.62,0,0,1-1.56,4.34A11.26,11.26,0,0,1,175.06,41q7.11,0,14.21.26c5.68.21,11.16,4.86,10.89,10.89-.28,6.31-4.79,10.38-10.89,10.89-2.83.23-5.65.45-8.48.65,5.13,1,8.1,7.16,7.47,11.87a11.28,11.28,0,0,1-6.57,8.68,9.17,9.17,0,0,1,.43,3.18,11.52,11.52,0,0,1-4.43,8.68,9.6,9.6,0,0,1,1.21,5,11.87,11.87,0,0,1-1.57,5.41c-.63-1.37-.07-3.68-.06-5a13.06,13.06,0,0,0-1.09-6c-2.1-4.18-6.5-5.31-10.76-6.07s-6.49,4.22-4.57,6.76a4.4,4.4,0,0,0,.15,1.62c1.56,5.58,5.33,10,9.41,13.94a10.51,10.51,0,0,1-2.4.28c-5.69,0-11.15-5-10.89-10.89a13.12,13.12,0,0,1,.19-1.55c-4.22.64-8.81-.73-11.33-4.09a10.81,10.81,0,0,1-8,3.58,171.55,171.55,0,0,1-20.81-1.15,4.12,4.12,0,0,0-3.34-2,3.56,3.56,0,0,1-2.8-1.38c-2.54-4-9-1.44-7.67,3.24l.15.57c-2.29.55-4.47,1.45-6.86,2.17a4,4,0,0,0-3,4,19.72,19.72,0,0,1-5,.58c-4.07-.13-8.11-1.49-12.17-1.94-1.5-.17-2.76-.31-3.79-1.47S71,98.89,69.62,97.68a4.29,4.29,0,0,0-5.93,0c-2.55,2.53-7.22,1.18-10.28,3.3a4.52,4.52,0,0,0-1,1,198.24,198.24,0,0,1-20.76-6.07c-5.15-1.83-8.55-6.35-7.8-12S29,75.13,34.5,74.52c1.61-.18,3.22-.32,4.82-.44a11.74,11.74,0,0,1,.1-1.55c0-.11,0-.22.06-.33L17.53,68.78C12.19,68,9.08,61.65,9.73,56.83Z"/></mask></defs><g id="圖層_2" data-name="圖層 2"><g id="圖層_2-2" data-name="圖層 2"><g id="map_deco_5"><g class="cls-2"><g id="_4" data-name="4"><path class="cls-3" d="M126.37,25.74c-1.49.89-3.14.77-4.71,1.44-4.16,1.77-2,5.54-1.47,7.32a11.06,11.06,0,0,1-4.28,12.19c-3.06,2-8.37,2.85-9.71,6.88-.23-2.11,1.35-4,3.15-5.16s3.88-1.78,5.61-3a10.26,10.26,0,0,0,4.11-9.88c-.35-2.12-1.76-5.06-.28-7.23,2.08-3.05,7.22-1.76,8.12-6.11,1.3-6.35-7.64-6.65-11.63-5.63a13,13,0,0,0-10,10.53,9.45,9.45,0,0,1,.35-5.57c-10.16-5.76-21.7.74-18.49,11.22-4.29-5.29,1.24-12,6-13.84a15.74,15.74,0,0,1,13.6,1.38c3.69-4,10.5-6,15.36-5.27C129.36,16,130.55,23.25,126.37,25.74Z"/><path class="cls-3" d="M70.23,42c2.58,2.59,6.86,2.95,10.37,4,13.08,4.12,5.54,19.49,14.2,24.77,2.9,1.56,4.85,1.18,6.69,0-1.9,2-4.58,1.88-7.09.74-9.59-5-2.25-20.19-14.23-24.21-3.07-1-6-1.37-8.76-3.08-4.9-3.12-4-8.66-.84-9.79C67.9,36.23,68.18,40,70.23,42Z"/><path class="cls-3" d="M67.28,119.1c10.67,14.67,20.17,16.83,35,15.61,3.38-.28,6.51-2,8.94.27a14.15,14.15,0,0,0,1.57,3c-1,1.8.45,4,2.21,5.42-1.45,1.32-.55,4.41.38,5.78,3.42,5,11.53,2.82,16.29,1.79a138.59,138.59,0,0,0,29.67-10.39C185,129.36,186,122.39,183.91,118.8l0-.07-.09,0a12.77,12.77,0,0,0-2.83-2.87c-.1-2.13-1.23-5.22-3.3-4.93l-.1-.07c-.86-2.73,1.35,2.66-27.28-65.22-1.87-4.44-3.53-9-5.4-13.39-1.63-3.89-4.26-7.29-4.06-11.69.52-11.21-6.6-15.19-15.53-13C117.64-6,97.93.4,92.56,13c-4.5-2.44-11-2.49-15.23.26-4.64,3-8.14,9.3-6.68,14.87-10.14,5.34-9.17,17.55.15,23.05,1.78,1.06,3.64,1.77,5.36,2.67.56,1.33,1.15,2.64,1.75,3.94-5.35-.24-10.42-.37-15.38,2.17-11,5.66-13.67,15.43-10.35,27.48A99.21,99.21,0,0,0,67.28,119.1Zm71.54-96c-1.77,4.09-5.62,3.68-9.48,4.38-8.1,1.49-4.2,9.09-3.94,12.44.34,4.43-3.46,7-7,8.72-3.21,1.59-7.24,2.93-9.31,6.07A18.41,18.41,0,0,0,106,66.81c.2,1.49.81,2.88,1,4.35a4.2,4.2,0,0,1-.66,2.78.47.47,0,0,0-.06.09,6.3,6.3,0,0,1-3,2.4l-1,.21c-.35,0-.71.08-1.07.1-3.14-.14-6.53-2.85-9.34-5.86l0-.07h0a54.63,54.63,0,0,1-4.17-5.12c-6.43-8.91-4.23-11-13.45-14.77-10.44-4.3-12.65-15.56-3-21.18a11.62,11.62,0,0,0,2,2.26A12.49,12.49,0,0,1,72,29.45a15.77,15.77,0,0,1-.35-6.3c.61-3.38,3.38-6.86,6.2-8.79,4.46-3,9.84-2.49,14.08-.38a10.66,10.66,0,0,0-.22,4,34,34,0,0,1,1.06-3.28c.21-.54.44-1.08.69-1.6C97.27,5,108.09-1.51,116.76,1.87a12.36,12.36,0,0,1,4.33,2.9l2.78,2.86a36.73,36.73,0,0,0-5.22,2.52s3.89-1.07,6-1.51C139.5,5.5,141.06,18,138.82,23.08ZM91.1,84.72c1.84,3.78,11.63,26.25,11,29.83-1.28,7-20.56,10.08-31.62-13.13-2.73-5.73-5.71-12.32-6.17-18.72-.47-6.61,3.62-12.78,10.51-13.54,4.1-.45,6.85,1.53,9.87,4C88.22,76,89.16,80.74,91.1,84.72ZM83.55,62.31a69.42,69.42,0,0,0,4.66,7l-.08.08c1.6,1.73,5.62,5.76,7.65,7,3.62,2.14,10.45,2.75,12-2.35.91-3-.72-6.12-.89-9.13-.09-1.44.79-4.55,2.63-7.48L111,57c.48-.14,1.08-.27,1.74-.49l2.23-.71A119.35,119.35,0,0,0,126.56,51c4.12-1.92,8.15-4,11.13-5.65s4.94-2.8,4.94-2.8,0-.15-.06-.1-2,1.1-5,2.64-7.12,3.5-11.28,5.27a117.42,117.42,0,0,1-11.64,4.32l-2.22.63c-.65.2-1.24.31-1.72.43l-.08,0c.18-.24.38-.47.58-.7,7.47-1.78,30.38-12.43,34.43-16.43.18.43,29.19,69.86,30.85,72.91-10,11.42-23,18-37.57,22.33-7.52,2.25-15.56,3.94-23.43,3.08,0-.16-4.06-9.19-4.12-9.34a40.13,40.13,0,0,0-5.1-11.7c-.17-.4-2.55-6-3-7.28C91.88,79.16,87.62,72.41,83.55,62.31ZM145,37.16c-.48.28-10.31,7.63-28.35,14.26,3.22-1.59,7.57-3.14,9.57-6.3A7.27,7.27,0,0,0,127.34,41a30.77,30.77,0,0,0-1-5.54C124.17,25,134.63,33,139.66,24,140.87,27.88,142.38,30.93,145,37.16ZM115.83,144c4.36,2.91,10.77.39,15.43-.82.16-.05.2-.31,0-.32-4.19-.16-11.36,2.86-15-.42l.52,0a28.46,28.46,0,0,0,4.85-.17c1-.13,2-.31,2.88-.52a1.3,1.3,0,0,1-.76-.44c-.71.08-1.45.13-2.19.15a27.29,27.29,0,0,1-4.67-.28c-.63-.09-1.14-.19-1.51-.27l-.33-.07a8.39,8.39,0,0,1-.7-1.86c.22,0,.27-.17.31-.33,16,3.33,54.91-11.76,62.68-26.14a.74.74,0,0,0,.25,0c.3.27.64.51.93.82h0a6.93,6.93,0,0,1-.09.84,8.81,8.81,0,0,1-.78,2.47,9.3,9.3,0,0,1-1.49,2.19,8.47,8.47,0,0,1-.64.62l-.26.22s0,.12.08.1l.29-.17c.19-.12.46-.29.76-.52a9.79,9.79,0,0,0,2-2,10.72,10.72,0,0,0,1-1.78,4.85,4.85,0,0,1-.46,2.58c-1.4,3-8,8.6-7.71,8.53,3.66-.83,8.81-5.22,9.76-9.24a2.39,2.39,0,0,0,.49,1.19l-1.82,2.88s.08.09.1.08l2.34-1.88a1.62,1.62,0,0,0,.1.18,12.13,12.13,0,0,1-1.06,2.15,11.62,11.62,0,0,1-1.61,2,10.43,10.43,0,0,1-.88.81s0,.12.07.11.43-.24,1-.67a12.87,12.87,0,0,0,2-1.82c.32-.37.63-.76.9-1.14a1.77,1.77,0,0,1,0,.4c-1.45,9.16-38.76,27.59-63.95,28.34l-.17-.09.67,0a52.85,52.85,0,0,0,6.2-.74,55.77,55.77,0,0,0,6.05-1.46c.81-.25,1.48-.48,1.95-.64l.73-.25s0-.14,0-.13l-.75.2c-.48.13-1.16.31-2,.49a54.08,54.08,0,0,1-6.08,1,52.91,52.91,0,0,1-6.12.27c-.84,0-1.53,0-2-.06l-.33,0a4.53,4.53,0,0,1-.3-.46l.45,0a27.54,27.54,0,0,0,4.42-.16,29,29,0,0,0,4.32-.82c1.15-.32,1.9-.59,1.9-.59s0-.13,0-.13-.77.2-1.94.38a27.45,27.45,0,0,1-8.55.05c-.42-.06-.79-.12-1.08-.18A12.09,12.09,0,0,1,115.83,144ZM55,90.59c-2.29-7-4-15.18.14-21.91,4.34-7,15-11.61,22.8-8.51,3.62,1.44,4.93,4.84,5.89,8.41s-2.46.17-3.53-.24c-9.27-3.54-19,3.86-17.79,15.26a46.89,46.89,0,0,0,3.31,11.64,69.71,69.71,0,0,0,6.45,13.22C81.21,122,94.18,123.17,100,120c2.1-1.14,4.43-4.81,6.08-1.1l3.71,8.37a6.26,6.26,0,0,1,.72,2.55c0,2.6-2.4,1.93-4.13,2.26A65.6,65.6,0,0,1,94,133c-8,0-15.39-2.46-23.85-13.21C63.33,111.24,58.41,100.94,55,90.59Z"/><path class="cls-3" d="M112.77,91.41a7.3,7.3,0,0,0-2.56-7.09l-.59-.41a2.27,2.27,0,0,0-3.15.8,8,8,0,0,0-.57,4.41c.19,2,.78,4.29,2.87,5.17S112.5,93.4,112.77,91.41ZM112,89.8a3.39,3.39,0,0,1-1.72,3.56c-1.81.74-2.93-1-3.18-2.56s-.71-7.49,2.21-6.1a3.6,3.6,0,0,1,1.46,1.44A9.49,9.49,0,0,1,112,89.8Z"/><path class="cls-3" d="M102,34.07a3.8,3.8,0,0,1,.86,1.13,3.52,3.52,0,0,1,.33,2.17,2.22,2.22,0,0,1-.17-.3,5.13,5.13,0,0,0-1.22-1.8,4.22,4.22,0,0,0-.74-.52c-2.94-1.57-5.06,2.75-2.3,5.14A4.7,4.7,0,0,0,101.08,41a3.1,3.1,0,0,1-2.87-.28C93.37,37.86,97.9,30.18,102,34.07Z"/><path class="cls-3" d="M91.62,37.67a3.32,3.32,0,0,1-.09,1.19c0,.09-.06.16-.08.23a2.1,2.1,0,0,1-.16.34,2.83,2.83,0,0,1-.06-.36l0-.23a5.17,5.17,0,0,0-.26-1c-.59-1.46-2.14-1.59-3.33-1.23-1.52.42-3.23,1.85-1,4.32a4.56,4.56,0,0,0,3.83,1.15,2.86,2.86,0,0,1-1.72.66,4.06,4.06,0,0,1-2.92-.95c-2.55-2.37-1.89-4.77.16-6a4.64,4.64,0,0,1,3.61-.47A2.74,2.74,0,0,1,91.62,37.67Z"/><path class="cls-3" d="M90.7,54.34a4,4,0,0,1,2.49-4.26,3.55,3.55,0,0,1,3.48.67,2.69,2.69,0,0,1,1.07,2.39,5.8,5.8,0,0,0-.89-1.09c-4-3.66-7.75,4.19-1.5,4.73h.34C94.53,57.94,91.1,57.06,90.7,54.34Z"/><path class="cls-3" d="M108.48,12a2.05,2.05,0,0,1-2.54-.47c-2.7-2.78,1.37-7.8,5-5.71a3.68,3.68,0,0,1,1.66,1.88,2.28,2.28,0,0,1,.12,1.48,4.68,4.68,0,0,0-2.3-2.3C106.94,5.43,104.26,11.24,108.48,12Z"/><path class="cls-3" d="M82.53,22.58a1,1,0,0,1-.22.09,1.62,1.62,0,0,1-.86,0A2.45,2.45,0,0,1,80,21.57a2.53,2.53,0,0,1-.37-1.39,2.83,2.83,0,0,1,.61-1.66,2.86,2.86,0,0,1,1.47-1,2.53,2.53,0,0,1,1.43,0,2.43,2.43,0,0,1,1.38,1.11,1.6,1.6,0,0,1,.21.81,1.32,1.32,0,0,1,0,.22s-.19-.21-.7-.57a2.52,2.52,0,0,0-1.13-.42,1.69,1.69,0,0,0-.76.09A1.85,1.85,0,0,0,81,20.27a1.6,1.6,0,0,0,.09.76,2.58,2.58,0,0,0,.69,1A7.57,7.57,0,0,0,82.53,22.58Z"/><path class="cls-3" d="M105.16,14.38c0,.33,0,.22-.72-.22a2.69,2.69,0,0,0-2.59-.12c-1.44.92-.9,3.24-.9,3.24-.69-.08-1.64-1.62-.86-3.26a2.72,2.72,0,0,1,2.52-1.58A2.41,2.41,0,0,1,105.16,14.38Z"/><path class="cls-3" d="M133.25,17.36a3.25,3.25,0,0,0-.44-1.88,1.57,1.57,0,0,0-2.68-.28,3.23,3.23,0,0,0-.79,1.82c-.74-.37-.87-2.38.72-3.42A2.55,2.55,0,0,1,133.89,15C134.32,16.28,133.71,17.25,133.25,17.36Z"/><path class="cls-3" d="M81.07,36.82c-.77-4.4-5.34-2.86-5.09.7a3.2,3.2,0,0,0,2.21,2.66,6.51,6.51,0,0,0,1.46.32,3,3,0,0,1-2.75.08c-3.44-1.43-2.61-6.15.18-7.44C79.65,31.91,82.33,34.85,81.07,36.82Z"/><path class="cls-3" d="M96.32,60.14a3.38,3.38,0,0,1,2.41-.82,3.07,3.07,0,0,1,2.11,5.32,2,2,0,0,1-1.07.56,1.47,1.47,0,0,1-.31,0,1.4,1.4,0,0,1,.22-.21,3.88,3.88,0,0,0,.62-.81c.86-1.55.24-3.42-1.63-3.49a2,2,0,0,0-2.14,1.48,3.25,3.25,0,0,0,1,3C95.88,65.28,94.26,61.93,96.32,60.14Z"/><path class="cls-3" d="M140.61,33.82a.79.79,0,0,1-.19.12,2.16,2.16,0,0,0-.15-.82,1.74,1.74,0,0,0-.67-.79,1.07,1.07,0,0,0-.6-.15,1.4,1.4,0,0,0-.77.28,1.68,1.68,0,0,0-.71,1.38A3.34,3.34,0,0,0,137.7,35c.09.29.18.49.22.62a1,1,0,0,1,.07.2s-.28.07-.87-.43a2.59,2.59,0,0,1-.77-1.42,2.51,2.51,0,0,1,.08-1.31,2.72,2.72,0,0,1,1-1.33,2.48,2.48,0,0,1,1.64-.47,1.93,1.93,0,0,1,.75.19,1.88,1.88,0,0,1,.54.39,2,2,0,0,1,.61,1.63A1.21,1.21,0,0,1,140.61,33.82Z"/><path class="cls-3" d="M131.49,38.3a2.64,2.64,0,0,1,1.2-.93,2.87,2.87,0,0,1,1.14-.17,2.32,2.32,0,0,1,1.4.54,1.38,1.38,0,0,1,.4.6.47.47,0,0,1,0,.19s-.24-.07-.76-.17a3,3,0,0,0-1,0,1.69,1.69,0,0,0-1.49,2.14,3,3,0,0,0,.36,1c.28.46.47.65.45.66a.5.5,0,0,1-.2,0,1.35,1.35,0,0,1-.71-.18,2.31,2.31,0,0,1-1-1.12,3,3,0,0,1-.24-1.14A2.6,2.6,0,0,1,131.49,38.3Z"/><path class="cls-3" d="M132.57,34.06s-.18-.13-.5-.35a2.26,2.26,0,0,0-.66-.31,1.41,1.41,0,0,0-.95,0,1.38,1.38,0,0,0-.66.69,2.91,2.91,0,0,0-.24.7c-.06.4-.06.63-.07.63a.54.54,0,0,1-.16,0,1.14,1.14,0,0,1-.44-.4,1.77,1.77,0,0,1-.24-1.18,2.31,2.31,0,0,1,.32-.88,2.06,2.06,0,0,1,2.16-.92,2.08,2.08,0,0,1,.85.37,1.76,1.76,0,0,1,.69,1,1,1,0,0,1,0,.58A.44.44,0,0,1,132.57,34.06Z"/><path class="cls-3" d="M135.23,29.61a2.18,2.18,0,0,1-.9.68,3.63,3.63,0,0,1-1,.25,7.56,7.56,0,0,1-1.29.05,8.59,8.59,0,0,0-1.5.06,4.21,4.21,0,0,0-1.62.68A4,4,0,0,0,127.3,34a4.7,4.7,0,0,0,.13,2,7.87,7.87,0,0,0,.37,1,2.78,2.78,0,0,1,.13.27,1.59,1.59,0,0,1-.25-.18,3.33,3.33,0,0,1-.69-.89,4.21,4.21,0,0,1-.5-2.28,4.44,4.44,0,0,1,1.93-3.35,4.51,4.51,0,0,1,2-.8,7,7,0,0,1,1.69,0,6.82,6.82,0,0,0,2,0,2.85,2.85,0,0,0,.93-.33l.24-.15,0,.06A1.52,1.52,0,0,1,135.23,29.61Z"/><path class="cls-3" d="M116.33,40.65a7.35,7.35,0,0,0,.11-4.23c-.19-.92-.53-2-.86-3.14a11.43,11.43,0,0,1-.51-4.21,6.11,6.11,0,0,1,.62-2.23,4.74,4.74,0,0,1,1.38-1.61,8.52,8.52,0,0,1,3.15-1.32c1-.23,1.76-.38,2.44-.58a9,9,0,0,0,1.69-.67,4.57,4.57,0,0,0,1.57-1.34,3.07,3.07,0,0,0,.23-.36l.07-.11,0,.12a2,2,0,0,1-.14.43,4,4,0,0,1-1.45,1.67,8.15,8.15,0,0,1-1.73.88c-.7.28-1.53.48-2.44.74a8.52,8.52,0,0,0-2.8,1.27,4,4,0,0,0-1.09,1.32,5.48,5.48,0,0,0-.51,1.89,11.45,11.45,0,0,0,.44,3.87c.3,1.17.61,2.24.77,3.23a8.63,8.63,0,0,1,.1,2.65,6.42,6.42,0,0,1-.57,1.92,3.84,3.84,0,0,1-1.5,1.71,2.27,2.27,0,0,1-.42.21l-.12.05.1-.08a3,3,0,0,0,.35-.3A4.44,4.44,0,0,0,116.33,40.65Z"/><path class="cls-3" d="M90.93,25a8.17,8.17,0,0,1,1.52-1.89,8.94,8.94,0,0,1,7.46-2.28,8,8,0,0,1,2.28.71,4.9,4.9,0,0,1,1,.61l.23.2a2.12,2.12,0,0,1-.3-.07L102,22a12.79,12.79,0,0,0-2.21-.35,10.32,10.32,0,0,0-3.61.4A10.45,10.45,0,0,0,93,23.73a13.06,13.06,0,0,0-1.65,1.55c-.36.41-.6.7-.74.87a2.27,2.27,0,0,1-.22.24l.08-.31A6.26,6.26,0,0,1,90.93,25Z"/><path class="cls-3" d="M87.77,14a13.58,13.58,0,0,0-2.44-.18,10.26,10.26,0,0,0-7.22,3.08,13,13,0,0,0-1.57,1.93c-.33.51-.54.86-.67,1.07a1.86,1.86,0,0,1-.19.3s0-.1,0-.35a6,6,0,0,1,.38-1.25,9.13,9.13,0,0,1,1.4-2.25A9.55,9.55,0,0,1,85.34,13a8.72,8.72,0,0,1,2.55.54,5.6,5.6,0,0,1,1.13.57,2.93,2.93,0,0,1,.27.19,1.63,1.63,0,0,1-.33-.06Z"/><path class="cls-3" d="M109.54,3.27a13.75,13.75,0,0,0-5,1.77,16.51,16.51,0,0,0-2.62,2c-.58.54-.94.92-1.16,1.16l-.32.32a3.4,3.4,0,0,1,.19-.41,8.29,8.29,0,0,1,.94-1.4,11.5,11.5,0,0,1,2.54-2.31A12.51,12.51,0,0,1,115,2.8a11.93,11.93,0,0,1,3,1.47,9.12,9.12,0,0,1,1.25,1.05c.22.23.29.32.29.32a2.72,2.72,0,0,1-.38-.2c-.27-.15-.72-.4-1.41-.75a15.63,15.63,0,0,0-3-1.11A13.86,13.86,0,0,0,109.54,3.27Z"/><path class="cls-3" d="M136.71,23.22A5.82,5.82,0,0,1,134,25.09a4.4,4.4,0,0,1-1.6.21,3.67,3.67,0,0,1-.42-.07l.41-.08a6.27,6.27,0,0,0,1.43-.51,6.11,6.11,0,0,0,2.26-1.92,7.64,7.64,0,0,0,1.3-4.63,10.37,10.37,0,0,0-1.25-4.74A8.16,8.16,0,0,0,134.26,11a8.06,8.06,0,0,0-1.21-.86,3.09,3.09,0,0,1-.34-.21l.4.07a4.86,4.86,0,0,1,1.43.61,7.08,7.08,0,0,1,2.27,2.29,9.91,9.91,0,0,1,1.53,5.14A7.75,7.75,0,0,1,136.71,23.22Z"/><path class="cls-3" d="M106.56,130.45a4.64,4.64,0,0,0,.79-.48,2,2,0,0,0,.69-.85,2.18,2.18,0,0,0,0-1.37,12.79,12.79,0,0,0-.77-1.86c-2.6-5.63-2.67-7-2.67-7s.95.93,3.55,6.56a10.09,10.09,0,0,1,.79,2,2.79,2.79,0,0,1-.18,1.93,2.61,2.61,0,0,1-1.07,1.07,4.05,4.05,0,0,1-1,.37,5.83,5.83,0,0,1-1.17.15h-.31a1.71,1.71,0,0,1,.28-.14C105.74,130.81,106.08,130.68,106.56,130.45Z"/><path class="cls-3" d="M77,60.73a7.3,7.3,0,0,1,5.37,5.73,3.58,3.58,0,0,1,0,.78,1,1,0,0,1,0,.21,2,2,0,0,1-.12-.18c-.08-.13-.17-.35-.34-.67a12.18,12.18,0,0,0-2.09-3.14,12.55,12.55,0,0,0-3-2.28c-.3-.19-.51-.29-.62-.38a1.22,1.22,0,0,1-.17-.13l.21,0A2.67,2.67,0,0,1,77,60.73Z"/><path class="cls-3" d="M98,122.18a10,10,0,0,1-1.11.34l-.69.18-.78.15a19.83,19.83,0,0,1-4.17.32,23.08,23.08,0,0,1-5.88-.91,24.1,24.1,0,0,1-3.49-1.32,22.42,22.42,0,0,1-3.66-2.21,31.29,31.29,0,0,1-6.87-7.54,76.68,76.68,0,0,1-6.25-11c-.52-1-1-2.09-1.41-3.09s-.84-2-1.2-3a41.38,41.38,0,0,1-1.8-5.73,24.33,24.33,0,0,1-.22-10.15,16.94,16.94,0,0,1,3.29-7.19A14.19,14.19,0,0,1,66,68.79,12.72,12.72,0,0,1,68.3,67.3,12.21,12.21,0,0,1,72.18,66a10.82,10.82,0,0,1,2.58-.1,8.38,8.38,0,0,1,1.33.21l.38.09-.39,0a8.58,8.58,0,0,0-1.33-.06,11.46,11.46,0,0,0-2.49.3,12.53,12.53,0,0,0-3.64,1.47,12.26,12.26,0,0,0-2.07,1.52,13.38,13.38,0,0,0-2,2.22,16.52,16.52,0,0,0-2.91,6.85A23.78,23.78,0,0,0,62,88.13a42.08,42.08,0,0,0,1.78,5.54c.36,1,.78,1.94,1.19,3s.89,2,1.39,3a81.2,81.2,0,0,0,6.1,10.8,31.12,31.12,0,0,0,6.51,7.37,22.42,22.42,0,0,0,3.43,2.2,25.22,25.22,0,0,0,3.31,1.36,23.23,23.23,0,0,0,5.65,1.11,20.51,20.51,0,0,0,4.08-.07l.78-.09.68-.13A9.74,9.74,0,0,0,98,122c.65-.14,1.08-.31,1.36-.39l.4-.12-.38.17A11.48,11.48,0,0,1,98,122.18Z"/><path class="cls-3" d="M76.22,124.12l.81.57,1,.61c.68.46,1.53.89,2.47,1.42a35.28,35.28,0,0,0,7.64,2.88,35.91,35.91,0,0,0,8.07,1c1.07,0,2,0,2.82-.11l1.13-.08,1-.12c1.18-.11,1.93-.29,2.4-.33a5.21,5.21,0,0,1,.65-.07s-.15.08-.59.26a15,15,0,0,1-2.33.78l-1,.25-1.15.21a27.64,27.64,0,0,1-2.89.32,30.23,30.23,0,0,1-8.41-.82,29.88,29.88,0,0,1-7.87-3.19A29.13,29.13,0,0,1,77.5,126l-.94-.73c-.28-.24-.52-.47-.75-.68a14.78,14.78,0,0,1-1.75-1.84c-.32-.38-.43-.53-.43-.53s.17.1.57.39S75.21,123.44,76.22,124.12Z"/><path class="cls-3" d="M54.53,86.88a32.89,32.89,0,0,1-1.1-5,22.39,22.39,0,0,1,.38-8.5A14.56,14.56,0,0,1,58.08,66a11.21,11.21,0,0,1,4.46-2.53A8.25,8.25,0,0,1,65,63.12l.65.05a5.25,5.25,0,0,1-.62.15,15.3,15.3,0,0,0-2.26.76,12.88,12.88,0,0,0-3.92,2.72,14.79,14.79,0,0,0-3.76,6.9,25,25,0,0,0-.55,8.06c.18,2.15.45,3.77.64,5s.32,2,.38,2.48.08.68.08.68-.09-.17-.28-.63S54.88,88.05,54.53,86.88Z"/><path class="cls-3" d="M107.19,127.74a2.06,2.06,0,0,1,0,1,1.16,1.16,0,0,1-.43.67.87.87,0,0,1-.82.17.5.5,0,0,1-.17-.13s.07,0,.19,0a.75.75,0,0,0,.46-.36.73.73,0,0,0,.11-.42,1.62,1.62,0,0,0-.16-.64c-.1-.25-.27-.56-.43-.92s-.35-.76-.54-1.21c-1.54-3.56-1.4-4.47-1.4-4.47s.74.53,2.28,4.09c.2.45.36.85.51,1.22A9.92,9.92,0,0,1,107.19,127.74Z"/><path class="cls-3" d="M99.44,38c.07.27.14.41.13.42a.58.58,0,0,1-.51-.13,1.22,1.22,0,0,1-.46-.72,1.46,1.46,0,0,1,0-.66,1.39,1.39,0,0,1,.45-.76,1.35,1.35,0,0,1,.81-.32,1.44,1.44,0,0,1,.65.1,1.17,1.17,0,0,1,.63.55c.17.38,0,.51,0,.51s-.14-.07-.39-.17a1.87,1.87,0,0,0-.5-.11.92.92,0,0,0-.62.18.88.88,0,0,0-.27.59A1.69,1.69,0,0,0,99.44,38Z"/><path class="cls-3" d="M94.44,54.65s-.1.15-.49.08a1.11,1.11,0,0,1-.65-.46,1.3,1.3,0,0,1-.24-.57,1.29,1.29,0,0,1,.69-1.41,1.5,1.5,0,0,1,.6-.16,1,1,0,0,1,.75.24c.29.26.22.43.23.42l-.4,0a1.26,1.26,0,0,0-.45.12.83.83,0,0,0-.44.36.89.89,0,0,0,0,.58,1.58,1.58,0,0,0,.19.43C94.34,54.53,94.45,54.65,94.44,54.65Z"/><path class="cls-3" d="M90,38.51l-.36-.11a1.67,1.67,0,0,0-.41,0,.85.85,0,0,0-.47.15.83.83,0,0,0-.21.44,1.55,1.55,0,0,0,0,.42c0,.23.08.38.07.38s-.14.1-.46-.1a1,1,0,0,1-.4-.62,1.26,1.26,0,0,1,0-.58,1.21,1.21,0,0,1,.39-.67,1.25,1.25,0,0,1,1.28-.21,1,1,0,0,1,.56.47A.53.53,0,0,1,90,38.51Z"/><path class="cls-3" d="M107.81,30.39a2.7,2.7,0,0,0-.32.73c-.1.4-.12.58-.13.58s-.2-.06-.35-.57a1.87,1.87,0,0,1,.06-1.08A2.1,2.1,0,0,1,110.21,29a1.88,1.88,0,0,1,.71.81c.18.48,0,.64.06.64l-.11-.08-.34-.27a2.54,2.54,0,0,0-.69-.37,1.82,1.82,0,0,0-1.14,0A1.79,1.79,0,0,0,107.81,30.39Z"/><path class="cls-3" d="M110.55,92.28a1.66,1.66,0,0,1-1.08.23,2.27,2.27,0,0,1-1.19-.55,2.42,2.42,0,0,1-.73-1.07,3.36,3.36,0,0,1-.17-1,4.57,4.57,0,0,1,.16-1.25,2,2,0,0,1,.29-.71,3.25,3.25,0,0,1,.09.75,10.52,10.52,0,0,0,.11,1.15,2.41,2.41,0,0,0,.75,1.52,1.34,1.34,0,0,0,1.45.33,1.55,1.55,0,0,0,.7-.72c.23-.5.26-.71.28-.71l.06.17a1.71,1.71,0,0,1-.72,1.83Z"/><path class="cls-3" d="M100.48,75.49a9.3,9.3,0,0,0,2.1-.08,3.39,3.39,0,0,0,2.55-1.79,4.9,4.9,0,0,0,.52-1.75,6.74,6.74,0,0,0,0-1.5,17.83,17.83,0,0,0-.38-2.06A9.75,9.75,0,0,1,105,67a6,6,0,0,1,.62,1.19,9.46,9.46,0,0,1,.66,2.08A5.63,5.63,0,0,1,105.8,74a3.75,3.75,0,0,1-1.49,1.56,3.91,3.91,0,0,1-1.64.51,7,7,0,0,1-2.24-.18,8.42,8.42,0,0,1-1.05-.32l-.27-.12h.3Z"/><path class="cls-3" d="M73.89,48.53l.53.11.6.18a14.66,14.66,0,0,1,1.48.54,15.77,15.77,0,0,1,3.82,2.43,15.93,15.93,0,0,1,2.93,3.42A12.82,12.82,0,0,1,84,56.58c.1.2.19.38.26.56s.13.35.18.5a8.11,8.11,0,0,1,.36,1.26,2.08,2.08,0,0,1,0,.34l-.17-.3c-.12-.22-.28-.6-.59-1.15a18.28,18.28,0,0,0-10.3-8.89c-.6-.23-1-.34-1.25-.43a2.79,2.79,0,0,1-.35-.13h.37A8.65,8.65,0,0,1,73.89,48.53Z"/><path class="cls-3" d="M78.86,49.58a4.39,4.39,0,0,1-.42-.35l-.11-.11h.16a3.2,3.2,0,0,1,.54.1,6.35,6.35,0,0,1,2.49,1.53,6.21,6.21,0,0,1,1.63,2.4,1.88,1.88,0,0,1,.12.52.43.43,0,0,1,0,.15l-.11-.1c-.08-.07-.19-.2-.36-.39a22.21,22.21,0,0,0-1.82-2A22.69,22.69,0,0,0,78.86,49.58Z"/><path class="cls-3" d="M106.76,105.44c9.87,23.46,11.51,28.77,11.51,28.77s-2.65-4.88-12.52-28.35S94.41,77.48,94.41,77.48,96.89,82,106.76,105.44Z"/><path class="cls-3" d="M112.16,107.77c9.09,21.62,10.42,26.58,10.42,26.58s-2.62-4.42-11.71-26S100.6,82.07,100.6,82.07,103.06,86.14,112.16,107.77Z"/><path class="cls-3" d="M159.9,79.28c11.28,26.8,13.22,32.83,13.22,32.83s-3-5.6-14.23-32.4-13-32.39-13-32.39S148.63,52.48,159.9,79.28Z"/><path class="cls-3" d="M111.16,96.29s1.76,2.79,8,17.74,7.15,18.41,7.15,18.41-1.87-3-8.16-18S111.16,96.29,111.16,96.29Z"/><path class="cls-3" d="M91.74,74.1a17.73,17.73,0,0,0,2.77,2.12c.64.4,1.38.83,2.23,1.28a21.52,21.52,0,0,0,2.88,1.34,7,7,0,0,0,3,.28,8.16,8.16,0,0,0,2.38-.66,8.49,8.49,0,0,0,2.73-2,9.73,9.73,0,0,0,.64-.79l.21-.31.15-.24c.17-.28.24-.38.24-.38s0,.11-.14.43a2.33,2.33,0,0,1-.1.27l-.16.34a6.27,6.27,0,0,1-.56.91A7.81,7.81,0,0,1,105.3,79a8.38,8.38,0,0,1-2.56.8,7.32,7.32,0,0,1-3.35-.29,18.93,18.93,0,0,1-3-1.41c-.85-.48-1.6-.94-2.24-1.38a13.87,13.87,0,0,1-2.69-2.38,8.68,8.68,0,0,1-1-1.46c-.15-.31-.2-.43-.2-.43a4.45,4.45,0,0,1,.3.36A13.81,13.81,0,0,0,91.74,74.1Z"/><path class="cls-3" d="M105.15,88a5.42,5.42,0,0,1,.2-.92,1,1,0,0,1,.09-.24s0,.07,0,.25,0,.47.06.92a14.73,14.73,0,0,0,.23,1.85,12.12,12.12,0,0,0,1,2.91A4.79,4.79,0,0,0,108.6,95a2.94,2.94,0,0,0,1.71.33,2.39,2.39,0,0,0,.87-.27l.23-.13a1,1,0,0,1-.16.22,2,2,0,0,1-.85.53,3,3,0,0,1-2.06-.13,4,4,0,0,1-1.25-.9,6.26,6.26,0,0,1-1-1.55,9.58,9.58,0,0,1-.9-3.14A8.88,8.88,0,0,1,105.15,88Z"/><path class="cls-3" d="M110.71,60a18.94,18.94,0,0,0,0,10.31c.12.47.21.77.25,1a2.41,2.41,0,0,1,.06.27,2.73,2.73,0,0,1-.16-.23,7.51,7.51,0,0,1-.49-.89l-.17-.37-.16-.44c-.13-.32-.23-.69-.36-1.12a14,14,0,0,1-.41-3.37,14.24,14.24,0,0,1,.41-3.35c.12-.43.23-.8.35-1.11s.11-.3.17-.44l.16-.36a6.26,6.26,0,0,1,.48-.86,1.34,1.34,0,0,1,.15-.21,1.23,1.23,0,0,1,0,.26C110.92,59.27,110.82,59.56,110.71,60Z"/><path class="cls-3" d="M135.87,131.51c2.54-.68,5.74-1.54,9.64-2.84a80.85,80.85,0,0,0,9.33-3.78l1.66-.85c.52-.25,1-.52,1.43-.77l1.23-.69c.38-.22.72-.44,1-.63,1.28-.75,2.07-1.31,2.58-1.62s.7-.43.7-.43-.16.16-.6.56a26.67,26.67,0,0,1-2.37,2c-.3.22-.62.47-1,.72l-1.19.78c-.43.28-.9.59-1.41.87l-1.65.94a62.23,62.23,0,0,1-9.4,4,99.91,99.91,0,0,1-9.77,2.7c-2.59.58-4.52.94-6,1.18a35.16,35.16,0,0,1-3.71.52s.79-.3,3.59-1.05Z"/><path class="cls-3" d="M143.54,127a114.21,114.21,0,0,1-10.95,3.48,22,22,0,0,1-2.68.57,23.77,23.77,0,0,1,2.51-1.09c1.94-.78,5.27-2,10.74-4s8.76-3.19,10.7-3.82a21.63,21.63,0,0,1,2.54-.74,20.15,20.15,0,0,1-2.33,1.25C152.22,123.51,149,125,143.54,127Z"/><path class="cls-3" d="M122.49,112.49c6.24,14.83,7.09,18.27,7.09,18.27s-1.86-3-8.1-17.85-7-18-7-18S116.24,97.65,122.49,112.49Z"/></g></g><path class="cls-3" d="M121.74,97.55c2.85-.09,4.26,1.27,6.2,2a24.57,24.57,0,0,0,5.59,1.46c4.57.5,7.1-.58,8.8-3.48a12.41,12.41,0,0,0,.77-2c2.91-.11,4.72,1.24,7,1.88,2.79.8,5.53,1.73,8.43,2.26,4.64.83,7.78-.12,10.36-2.81.92-1,1.68-2,2.62-3.1,1.24.18,2.23.25,3.15.46,1.92.44,3.76,1.06,5.71,1.41,5.31,1,7.81.53,12.84-2.06,4.48.27,8.34,1.9,12.27,3.41,2.41.93,4.78,1.91,7.27,2.74.67.22,1.7,0,4-.1-9-3.61-16.48-7-25.45-8.43a7.31,7.31,0,0,0-1.95,1c-1.46,1.79-3.92,2.05-6.54,1.81a52.23,52.23,0,0,1-5.87-1c-2.38-.5-4.73-1.07-7.46-1.7-.78,1.25-1.34,2.32-2.1,3.33-2.1,2.79-4.82,3.75-9.29,3a65.9,65.9,0,0,1-8.42-2.25c-2.7-.86-5-2.22-8.6-2.71A25.31,25.31,0,0,0,139.9,96c-.5,2.77-5,4.6-9.13,2.75-2.72-1.23-5.35-2.55-8.06-3.79-1.17-.54-2.45-1-4.18-1.66-1.28,2.93.85,5.77-2.13,8.3-2.92.52-6.65,0-9.49,1.82-1.16.73-3,0-4.08-.71-2-1.23-3.87-2.53-5.55-3.63a6.84,6.84,0,0,0-1.35.21c-1.22.8-2.19,2-3.65,2.35-2.35.59-4.36-.53-6.19-1.44s-3.57-1.83-5.57-2.87a12.65,12.65,0,0,0-2.24,1.44c-2.12,2.25-5.4,3.09-9.12,2.93-5.07-.21-10.11-.73-15.15-1.12-2.52-.2-5-.5-7.55-.57-.77,0-1.58.53-3,1.06a19.72,19.72,0,0,0,2.51.71c3.25.36,6.51.69,9.78,1,3,.29,6,.66,9.06.83,8.73.49,10,.2,17-3.38l2.91,1.44c5.88,2.84,6.41,2.87,13.32.61a12.16,12.16,0,0,1,2.14,1.12c3,2.38,6.26,3.37,10.46,1.12a7,7,0,0,1,2.87-.5c4.69,0,6.83-1.83,7.65-4.59C121.3,98.79,121.54,98.17,121.74,97.55Z"/><path class="cls-3" d="M.15,115.8C12.38,121,24.67,121.25,37,116c10.26,2.69,10.26,2.69,20.38.07a39,39,0,0,0,4.09,2c2.19.81,4.49,1.52,6.81,2.14a11.06,11.06,0,0,0,8.53-1c1-.54,1.94-1.06,3.22-1.75,2.1.77,4.31,1.52,6.4,2.38a10.35,10.35,0,0,0,8.51-.27c6.12-2.6,7.39-2.63,13.8-1.61,3.1.49,6.1.5,8.17-1.56a8.59,8.59,0,0,1,2-.93l4.79,1.42c6.63,2,8.55,1.74,14.1-1.83l.92-.54c1.33.52,2.9,1,4.23,1.67,3.22,1.63,6.32,3.37,9.5,5a3.63,3.63,0,0,0,3.84.09c-6.27-3.38-12.26-6.82-18.95-9.4a6.24,6.24,0,0,0-1.18.49c-1.18,1.23-1.47,2.93-4.13,3.37a15.91,15.91,0,0,1-8.13-.69l-7.29-2.65a16.57,16.57,0,0,0-1.51,1.4c-2,2.49-2.84,2.85-6.33,2.21a33,33,0,0,1-4.18-1.16c-1.8-.59-3.56-1.24-5.71-2A27,27,0,0,1,96.27,116c-3.15,2.77-6.8,3.18-11.21,1.35-1.92-.8-3.78-1.67-6-2.66-1.15.78-2.24,1.42-3.16,2.16-2.26,1.83-5.18,2.12-8.25,1.32a48.11,48.11,0,0,1-6.58-2.43c-1.45-.61-2.71-1.42-3.92-2.06-11.45,3.39-11.56,3.13-20.9-.69a37.22,37.22,0,0,0-3.38,1.73,22.3,22.3,0,0,1-13.28,3.07c-5-.26-10.07-.85-15.11-1.32-1.5-.14-3-.35-4.5-.52Z"/><path class="cls-3" d="M125.51,129.54a46.24,46.24,0,0,1-3.39,3.33c-2.19,1.73-3.92,1.94-7.35,1.09-.71-.18-1.38-.42-2.09-.6a2,2,0,0,0-.62.14c5.37,4.67,8.25,3.83,14.93-.7l5,2.06c3.58,1.47,7.25,2.37,11.55,1.31a12.19,12.19,0,0,1,4.46-.28,14.29,14.29,0,0,0,10.41-2.12,15,15,0,0,1,2.11-.92c2.35.86,4.79,1.72,7.17,2.65,5.08,2,10,2.26,14.93-.27.59-.3,1.29-.51,2.13-.84a56.35,56.35,0,0,0,5.77,2.29c4.87,1.37,8.83,1.2,10.79-2.14a6.32,6.32,0,0,1,1.24-1.24,5.11,5.11,0,0,1,.79-.43c6.18,1.29,9.07,6,15.7,7.26,0-.63.19-1.06,0-1.18-4.64-2.6-9.26-5.21-14-7.72a26.53,26.53,0,0,0-4.54-1.34c-.56,1.18-.95,2.09-1.42,3-1.28,2.41-3.36,3.07-7,2.13a31.85,31.85,0,0,1-4-1.45c-1.29-.51-2.52-1.09-3.83-1.66a10,10,0,0,0-2.07.69c-4.84,3.17-10,2.69-15.32.63-2.38-.94-4.55-2.11-7.16-3.34-1,.71-2,1.39-3,2.08a9.54,9.54,0,0,1-8.85,1.51,6.7,6.7,0,0,0-3.53,0c-5.35,2-9.73.86-13.88-1.55C129.06,131.2,127.58,130.57,125.51,129.54Z"/><path class="cls-3" d="M36.59,152.56c9.8.61,19.65,1.41,29.27-1a17.28,17.28,0,0,1,6-.43c5.51.69,10.56.28,15.07-2.08,2.06,1,3.8,2,5.67,2.82a11.37,11.37,0,0,0,9.91.08c1.24-.58,2.6-1,3.81-1.51,9.76,1.91,10.91,1.81,18-1.56,7.79,2.16,14.31,6.62,25,7.16-1.61-1.16-2.1-1.87-2.81-2-6.84-1.05-12.48-3.61-18.34-5.92a53.54,53.54,0,0,0-5.33-1.51c-7.32,3.95-7.7,4-17.51.92-.91.6-1.89,1.32-3,2-3.26,1.86-6,2-9.63.31a29,29,0,0,1-2.81-1.68l-3.1-1.84c-5.26,2.8-10.82,4.55-17.24,1.87C59,151.39,47.85,151.94,36.59,152.56Z"/><path class="cls-3" d="M180.78,111.81c2.56,2.51,6.74,2.73,10.69,3s7.66.09,10.85-1.66c.76-.42,1.56-.82,2.71-1.42,1.65.72,3.3,1.42,4.91,2.17,5.75,2.68,9.67,2.34,14.48-1.3.49-.37.87-.81,1.54-1.44,1.49.58,2.94,1.16,4.4,1.72,2,.76,3.86,1.64,5.94,2.23,3.58,1,5.56.67,8.08-1.28a26.23,26.23,0,0,0,2.43-2.39c6.56.52,10.53,5,17.41,4.22-6.21-2.48-12.06-5.38-19.67-6.59a21.37,21.37,0,0,1-1.48,2.33c-1.85,2.22-4.19,2.8-7.56,1.58-2.65-1-5-2.26-7.5-3.42-1.21-.57-2.39-1.17-4-2l-1.47,2.47c-2.07,3.43-6.33,4.45-10.84,2.48-2.52-1.11-4.84-2.41-7.13-3.57-.72.17-1.41.18-1.62.4-3.61,3.69-9,3.95-14.85,3.34-2.48-.26-5-.57-7.42-.86Z"/><path class="cls-3" d="M180.66,111.91c-.77-1-1.87-1.27-4.12-.36l4.24.26Z"/></g></g></g></svg>