<svg xmlns="http://www.w3.org/2000/svg" viewBox="0 0 500 499.05"><defs><style>.cls-1{fill:#de2726;}</style></defs><g id="圖層_2" data-name="圖層 2"><g id="event"><g id="map_at"><path class="cls-1" d="M390.23,291.11c-2-4.68-3.66-8.76-5.38-12.85-1.84-4.39-5.87-7.2-8-12v-7.74l-3.21-3.59-4.53-.49L366.71,250v-9.4l-4.36-5.53v-6.86c-1.74-1.41-3.52-2.67-5.09-4.17s-2.95-3.24-4.6-5.09a9.73,9.73,0,0,1-2.44-.78c-1.66-1-3.21-2.19-4.72-3.25-.66-1.16-1.26-2.24-1.85-3.29a51.93,51.93,0,0,0,0-6,52.85,52.85,0,0,0-1.34-5.92l1.67-4.73c-.51-1.71-1-3.35-1.5-5.08.29-.85.62-1.77.91-2.7a3.12,3.12,0,0,0,0-.82c-2.36-4.11-2.44-8.94-3.38-12.92.23-2.16.39-3.82.53-5.16l-6.28-7.25-6,.71L326.43,160c-.95-6.54,1.38-12.65-1.25-18.38a62.25,62.25,0,0,0-4-17.12l-1.58.11c-2.05,4.66-4.13,9.39-6.19,14.13a3.86,3.86,0,0,0-.32,1.45c-.14,4.07-2,7.64-3.19,11.38a80.68,80.68,0,0,0-2.65,10c-.71,3.86-.87,8.17-3.17,11.29-3,4-3.67,8.5-4.21,12.93-1.08,2.48-2.05,4.75-3.12,7.23-2,2.14-3.92,4.78-7.15,6.2-4.21-1.5-8.72-2.34-12.18-5.16l-2.4-3.61a16.21,16.21,0,0,1-7.08-4.36,54.54,54.54,0,0,0-11.65-8.89c-1.16-2.08-2.36-4.21-3.44-6.12-5.25-3-5.25-3-7.94-6.93,1.58-4.67,5.71-8.4,6.08-13.81,0-.21.27-.4.51-.75l2.9-1.93L261,137.37c-.26-.83-.39-1.3-.58-1.75a2.26,2.26,0,0,0-.47-.56c-5.73,1.46-5.73,1.46-9.76-.47-6.55,1.07-12.56-3.55-19.18-3.05L222,126.21c.43,2.62.82,5,1.22,7.4l-4,3.92c-4.1.71-7.65.46-10.65-1.13l-4.51,2L199,144c-.36,2-.62,3.41-.89,4.84l-4.25,2.55c-2,3-3.54,5.19-5,7.44a5.06,5.06,0,0,0-.39,1.35l2.9,5.07-3.18,3.27c-5.13-1.24-10.18-.52-15.07-1-1.69-2-2-4.51-2.57-7.09-2-1.51-3.53-3.9-6.51-5a13.13,13.13,0,0,1-8,2.07l-8.1,6.63c-.93,3.55-.93,3.55-3.8,6.34-4.06.6-4.06.6-6.42,2.5-.12,2.69-.25,5.38-.37,8l-2.47,1.56L131,181.41l-2.33,2.8c.65,2.09,1.22,3.93,1.78,5.71a8.76,8.76,0,0,1-7,5.67c-2.67-2.17-2.57-6.16-5.82-8.1l-4.69,6.94c0,2.16.06,3.91,0,5.65s-.31,3.41-.48,5.21a19.46,19.46,0,0,0-9.38,9.14c-.45.87-1.32,1.52-1.73,2.4-1.46,3.12-4.08,4.88-6.94,6.24-3.48,1.65-7.05,3.09-10,4.35L78,226.18l-7.17,4.47H64.91c-1.41,1.61-2.68,3.06-3.76,4.31l-14.29,2.13c-1.59,1.06-3.89,1.7-5.31,4.08-1.24,2.08-3.47,3.32-5.62,4.43-1.5.79-3,1.5-4.3,2.12-3.67,3.22-6.17,7.31-10.5,9.51,1.22,4.47-1,7.89-2.88,11.36-1.29,2.37-2.82,4.6-3.67,6-1.58,8.17.18,14.09,2.31,19.52-.92,5.61-4.18,8.68-8.72,10.84,1,2.32,1.88,4.57,2.88,7,.13,2.07.27,4.3.41,6.38q1.33,2.91,2.45,5.36c0,8.48,0,16.72,0,25,0,3.47,0,6.9,1.13,10.31.67,2.05.41,4.41.55,6.23-1.93,4-3.87,7.49-5.28,11.17-1.85,4.84-4.67,8.66-9,11-.49,1.12-.88,2-1.37,3.16,2.12,1.06,4.33,2.27,5.13,4.71,1.27,3.82,4.36,5,7.65,6.25H19c5.31-3.52,11.25-6.76,16.63-11a19.19,19.19,0,0,1,5.55-3.39,55.09,55.09,0,0,1,9.14-1.77,9.56,9.56,0,0,1,4.33.1c6.87,2.38,13.85,1,20.84,1.2,1.89-1.78,3.81-3.33,5.42-5.17s3.1-3.83,5.37-5l6.58-.55,14.57-7.29c3.51.53,7-1.71,11-1.38,4.12.34,8.1-.77,11.94-2.32l9.12-3.68c2.36-.53,5.2-.37,8.06-1.27,3.11-1,6.61-.79,9.88-1.62a6.33,6.33,0,0,1,2.83.31c2.09.49,4.16,1.09,6.38,1.69a15.9,15.9,0,0,0,9,5.51,21.76,21.76,0,0,1,9.75,5.46l2,7.22,2.38,3.25c0,4,0,8,0,12,0,.43.39.86.6,1.3l1.36.49c4.84-4.44,9.94-8.55,15.63-11.23,6-6,8.72-8.05,12.23-9.21a3.34,3.34,0,0,1,.65,3.47c-1.92,4.49-2.88,9.52-6.71,13-1.82,1.64-3.56,3.38-5.29,5.12-.83.84-1.56,1.78-2.32,2.67a1.71,1.71,0,0,0,2.74,0c2.62-2.57,5.14-5.25,7.87-8.06l1.84,2L215,405.65l3.15,1c2.26,5,3,9.82,1.25,15.2a18,18,0,0,0-.08,10.9,7.32,7.32,0,0,0,4.78,3.32,16.85,16.85,0,0,1,4.12,1.22c4.2,1.85,8.74,2.63,12.88,4.63a7.88,7.88,0,0,0,2.51.18c5.41-3.5,11.13-7.05,18.07-8.74.46,1.9.9,3.75,1.36,5.67l4.63,4.47a8.26,8.26,0,0,0,5.06-.62c4-1.82,7.34-4.77,10.84-7.36a18.22,18.22,0,0,1,11.35-3.93,28.48,28.48,0,0,0,11.53-2.54c3.13-4.25,6.47-8.78,9.78-13.33a4.89,4.89,0,0,0,1.07-1.93c.57-3.82,3.42-5.93,5.85-8.28a53.62,53.62,0,0,1,5.39-4.13l3.12-7.61a158.78,158.78,0,0,1,22.67-21.41c3.36-2.61,6.28-5.32,7.79-8.71a92.53,92.53,0,0,0,7.1-6.07c2.11-2.22,2.23-5.38,2.5-8.08,2.46-2.86,4.8-5.37,5.53-9a13.62,13.62,0,0,1,1.66-3.24c1-2,2.13-3.89,3-5.91,2.22-4.92,4.35-9.88,6.64-15.11a19.69,19.69,0,0,1-1-2.52c-.63-2.44-1.05-5,.06-7.33C390.07,301.33,390.22,295.91,390.23,291.11Z"/><path class="cls-1" d="M382.81,99h-4c-3-1.79-4.07-4.61-5.35-7.29-.73-1.55-1.21-3.54-2.43-4.47-3.23-2.45-4.5-6.34-7-9.31a7.41,7.41,0,0,1-1.83-6.64,13.27,13.27,0,0,1,2.48-2c1.49-.76,3.13-1.18,4.68-1.82.3-.13.44-.67.76-1.19l-2-2.26-10.49-5.44a9.59,9.59,0,0,1-7.1-2.61c.44-1.74.9-3.6,1.31-5.22L340.25,39.05l-3.95-2.11a10,10,0,0,0-7.91-5.59,17.08,17.08,0,0,1-4.07-1.3c-4-1.7-8-3.5-12-5.19a28.37,28.37,0,0,0-3.33-1c-9.27-5.16-19.32-7.63-28.47-11.74-3.61,1.35-6.15,3.52-7.42,6.82l-6.68.88c-2.75,4.88-5.26,9.73-9.81,12.78-4.56-.07-5.73-4.36-7.49-5.7l-5.8-11.47V7.65L234,0h-7.37c-3.05,1.81-6.38,3.76-9.68,5.76-.25.15-.29.66-.47,1.09l4.32.81c3.75,1.41,4.68,5.54,7.21,8.26,4.15.15,8.24.28,12.32.48.41,0,.81.46,1.46.86.09.76.2,1.69.33,2.75-1.08,1.12-2.09,2.17-2.74,2.86l-12,4.87a55.67,55.67,0,0,1,2.73,6.2c.63,2.06,1.15,4.1,2.59,5.66,2.24-.85,1.55-3,2.18-4.47A8.41,8.41,0,0,1,236.7,33h4.44c1.55,1,3.59,2.32,5.55,3.73,1.77,1.28,3.36,2.85,5.19,4a14.86,14.86,0,0,0,5.23,2.34c4.6.74,8.71,2.7,12.84,4.71a45,45,0,0,0,5.88,2.78c3.81,1.21,6.05,3.94,7.51,7.51,1.3,3.19,2.5,6.43,3.66,9.68a20.24,20.24,0,0,1,1.46,9.46,6.1,6.1,0,0,1-.57,1.39l-4.82,2.75c-1.06,2.24-2.05,4.24-2.93,6.28-.14.34.18.89.29,1.37a5.14,5.14,0,0,0,5.11-.14c.68-.92,1.53-2.09,2.49-3.38a47.42,47.42,0,0,1,12.47-.12A52.68,52.68,0,0,0,304,90c0,1.45.06,2.9.11,4.35l3.25,3h9.72c2-1.33,4.8-.88,6.6-3.57.75-5.72,5.19-9.36,9.05-13.59l7.18-2.1c2,1.23,3.72,2.16,5.31,3.26s3.7,1,5.51,1.56A23.52,23.52,0,0,1,355,85.23a60.84,60.84,0,0,1,3.34,6.89,31.3,31.3,0,0,0,12,15.82h11.8c5.44,1.29,7.73,5.24,12.23,5.8.13-.11.44-.41,1.23-1.14L384,103C383.68,101.92,383.27,100.52,382.81,99Z"/><path class="cls-1" d="M255.4,471.37c-3.11,1.08-5.62.26-8.21-1.14-1.43-.77-2.38-2.57-4.76-2.17-1.5,2.15-3.17,4.53-5,7.06v9.21c-1.14,1.84-2,3.29-2.88,4.66.15,2.43.29,4.64.4,6.45.86,1.44,1.47,2.48,2.14,3.61a12.73,12.73,0,0,0,3-.6c3.65-1.81,7.27-3.66,10.78-5.8a25.78,25.78,0,0,0,6.46-5.76c3.72-4.52,7.06-9.36,10.51-14.11.24-.33.1-.95.13-1.44-.18-.16-.34-.44-.54-.47A23.89,23.89,0,0,0,255.4,471.37Z"/><path class="cls-1" d="M411.54,57.36c-2.81,2-5.24,2.71-8,2.34A13.33,13.33,0,0,0,395.84,61c-.4.19-.95,0-1.8,0-1.35-.18-2.92-2.18-4.93-.33.73.65,1.43,1.3,2.23,2h15.18L413.37,59c4.91-6.27,4.91-6.27,5.36-9.37L414,52.82Z"/><path class="cls-1" d="M498.06,102.3c-.24,1.79-.24,1.79,1.79,3.6C500.35,103.64,499.55,102.74,498.06,102.3Z"/></g></g></g></svg>