<svg xmlns="http://www.w3.org/2000/svg" viewBox="0 0 500 447.37">
	<defs>
		<style>
			.cls-1{fill:#231815;}
		</style>
	</defs>
	<g id="圖層_2" data-name="圖層 2">
		<g id="event">
			<g id="map_us">
				<path class="cls-1" d="M0,132.8a2,2,0,0,0,2.49-1.43h-1Z" />
				<path class="cls-1" d="M147.45,80.07c-2.06,1.75-4,3.61-6.12,5.33-6.34,5.26-12.91,10.24-18.73,16.15-.7.71-1.6,1.2-2.36,1.84a6.79,6.79,0,0,0-.78,1.12c1.82,1.25,3.54.15,5.25.13.46.29.94.57,1.62,1l-1.61,3c-.07,1.17-.18,2.35,1.15,3.32,2.56.32,4.91-1,7-1.89l3.14-3.14h1.84c.62.71,1.36,1.54,2.12,2.39a16.87,16.87,0,0,0-.81,3.49,16.61,16.61,0,0,0,.65,3.41c-.57,2.15-1.09,4.4-1.76,6.59a25.16,25.16,0,0,1-1.32,3.07c.39,3.6,3.59,4.49,4.86,7.05-.37.92-.74,1.84-.82,2.06-1.27,2.14-2.91,2.36-4.62,3.09l-2.81,3.29L129.92,143l-1.09,2.6a53.49,53.49,0,0,0,.85,11.08,23.15,23.15,0,0,0-1.54,3.72c-.27,1.21-1.59,2.21-.74,3.72l4.43,1.84c.16,1.83,1.5,2.94,2.74,4.13a8.56,8.56,0,0,1,2.82,4.73,12.07,12.07,0,0,0,1.23,2.66H279.23c1.31-.81,2.18-2.13,4.36-1.87l1.13,1.19c.13,1.4.21,2.24.29,3.12l3.45.87,3-.63,5,3.5c2.82.33,5.74-.65,8.15,1.14,3.41-1.5,6.63-2.92,10.18-4.5h9.43l1.72,3.31,2.61.38,1.15,1.43c0,2.47-1.3,4.81-.53,7.56a9.9,9.9,0,0,0,.89,1.15c.59.61,1.24,1.17,2,1.83,2.43-.43,4.68.46,6.91,1.31s5,1.09,6.71,3.55c.15,1.57,1.43,3.13.87,4.9s-1.14,3.65-3.48,4.2l-3.2-2.71a14.33,14.33,0,0,1-1.24,1.8c-2.91,3-5.17,6.49-7.77,9.73-1.89,2.35-3.8,4.73-6.7,5.55-.11.51-.17.79-.22,1.06.22.15.44.4.68.43a11.26,11.26,0,0,0,1.52,0l10.51-6.17h4.8c2.07-.69,3.43-1.42,4.16-3.07.19-.9.39-1.87.56-2.65l2.12-1.1c3.8-.23,7.61.15,11.15-.19l3.42-3.87,9.94-4.87h15.92a44.88,44.88,0,0,0,5.34-2.14,32.51,32.51,0,0,0,3.76-2.82c.8-1.51,1.16-3,2.07-3.71,1.76-1.42,2.7-3.74,4.92-4.62a1.6,1.6,0,0,0,1.18-1.53,2.66,2.66,0,0,0-1.15.14c-1.19.76-2.35,1.58-3.48,2.43a5.33,5.33,0,0,1-2.92,1.42c-.26-.42-.46-.76-.7-1.16,2.32-2.52,5.34-3.81,8.17-5.61.3-.56.62-1.2,1-1.81.84-1.4,2.34-2.06,3.43-3.15s1.67-2.58,3-3.55c3.15-2.3,6.81-3.35,10.39-4.95a8.53,8.53,0,0,1,4.59-3c2.34.24,4.84-.29,7.36.61,1.22.44,2.77,0,4.16-.17.55,0,1.07-.39,1.61-.4,4.23,0,8.47-.09,12.7,0a17.69,17.69,0,0,1,3.34.68c1.37-.49,2.82-1,4.27-1.51.4-.13.93,0,1.24-.23,2.24-1.72,5-2.49,7.16-4.45a28,28,0,0,1,3.7-2.53h7.79c1.44-.82,2.81-1.56,4.14-2.37a9.63,9.63,0,0,0,1.28-1c.91-3.19,1.63-5.83,1-8.73l-3.07-2.33c-.3-.61-.62-1.26-.91-1.88,0-.89-.09-1.74-.14-2.63-2.95-1.87-6.56-2-9.17-4.31l-3.63-8a14.77,14.77,0,0,1,.62-1.84c.36-.75.85-1.45,1.18-2-1.49-6-2.61-11.78-5.43-17.19-4.79,3.12-9.2,6.71-13.91,9.44h-4.37a10.91,10.91,0,0,1-6.56-6.44c.47-1.52,1-3,1.37-4.54s1.83-2.59,1.74-4.29a6.88,6.88,0,0,0-3.73-2.09,3.81,3.81,0,0,1-2.8-2.42,12.44,12.44,0,0,1-.52-1.81L435,94.52l-2.22.94a23.46,23.46,0,0,1-9.4-2,7.14,7.14,0,0,0-4.09-.7L416,94.62c-1.68,1.53-1.38,3.26-1.84,5.32L411,102.49v4.9a10.79,10.79,0,0,1-7.13,7.26c-.66.23-1.27.61-1.93.86a1.19,1.19,0,0,0-.9,1.37c1.41,1.47,2.86,3.06,3.26,5.32-.47,4.1-3,7.08-5.12,10.35-4.15,2.63-8.09,5.73-13,6.76-2,1.28-4.49,1.58-6.41,3.14v4.33l-1.8,3.94v3a15.7,15.7,0,0,1-5.63,8l-3,.18-3,2.55h-2l-3-3.91a30.85,30.85,0,0,1-1.88-8.57c.89-1.59,1.93-3.29,2.83-5.07.59-1.15.88-2.45,1.49-3.57a32.85,32.85,0,0,1,2.24-3.18c-3.61-2.14-7.45-1.74-11-1.94l-10.66-5.76c-.44-.79-.93-1.67-1.37-2.48-2.14-2.16-5.06-2.57-7.34-3.93-3.18-.64-6.06,2.31-9.13.39-.92-3.42,1.19-6.36,1.57-9.44-1.43-1.28-2.55.28-3.89,0-.29-.34-.65-.74-1-1.15a32.51,32.51,0,0,1,7.24-11.23,12.7,12.7,0,0,1,1.31-1.1c2-1.55,4.08-3.07,6.09-4.65a37,37,0,0,1,6.43-4.09A69.88,69.88,0,0,1,356.11,90H360l2.77-3,2.11-.57a15.54,15.54,0,0,1,8-4.27,14.31,14.31,0,0,0,5.41-2.31c2-1.34,4-2.55,6.21-3.92.29-.55.68-1.3,1-1.89a3.8,3.8,0,0,1,1-.4A8.08,8.08,0,0,0,392.11,71a15.51,15.51,0,0,1,2.75-1.91c3.53.43,6.72-.78,9.86-1.6l4.11,1.7a17.93,17.93,0,0,0,6.22-3.34c1.94-1.39,4-2.62,5.93-3.89.12-1.35.22-2.48.32-3.68A24.25,24.25,0,0,1,423.56,57a8.54,8.54,0,0,0,3-2.4,1.46,1.46,0,0,0,.27-1.77l-3.91-2h-7.41c-4,6.42-9.8,10.59-16.17,13.85h-4.05c-1-1.42-2.17-2.68-1.86-4.32,1.47-1.4,2.71-2.56,3.91-3.77.16-.16.1-.54.13-.82-.39-.9-1.12-.64-1.77-.57l-4,2.66c-1.64,0-2.41-.74-2.64-1.79-.21-1.54,1.57-2.47.55-3.93-1.18-.89-3.08-.54-4-2.46,0-2.67,3.14-2.33,4.28-4.26a14,14,0,0,0-.41-5.13l-1.7-1.06a13.58,13.58,0,0,1-3.65,1.24c-1.19.13-2.31,1-3.46,1.48s-2.32,1-3.58,1.57l-3.94,4.19a5.67,5.67,0,0,0,2.62,2.4A2.15,2.15,0,0,1,377,52a11.43,11.43,0,0,1-1.14,2.08c-1.16,1.46-2.43,2.82-3.59,4.14L362.72,63c-1.14.09-2.27.49-3.13-.54a1.83,1.83,0,0,1,0-.5c.12-.4.28-.79.42-1.18-2-.75-3.93-1.57-6.09-1.13l-2,1.74c-3.22,0-6.46,0-9.71,0a10.9,10.9,0,0,0-2.91.29c-3.39,1-6.67.29-9.92-.61a5.05,5.05,0,0,1-2.72-1.92,4.71,4.71,0,0,0-4.27-2.27,17.62,17.62,0,0,0-5.45.29c-1.65.51-3.34.44-4.85.92-3.2,2.95-3.54,3.12-7.92,4l-2-1.35c-3.38,1.61-7.11,1.39-10.65,2.14-2.44.52-5.06.1-7.59.1-2-.67-3.5-1.77-3.87-3.93.74-1.74,2.51-.93,3.7-1.64-2.3-2.13-3.2-2.6-5.33-1.89a10.49,10.49,0,0,1-4.21.39,27.28,27.28,0,0,1-3.64-2,15.47,15.47,0,0,0-10.29-3.11c-2.82,0-5.64,0-8.36,0-.6.42-1.05.77-1.52,1.07s-1,.57-1.29.75c-3.88-.06-3.88-.06-6.89-1.44-.15-.68-.36-1.49-.52-2.32-.1-.55,0-1.19-.92-1.36l-3.67,1.7a32.9,32.9,0,0,1-3.85,0c-5.69-.67-11.16.6-16.62,1.95a9.81,9.81,0,0,1-2.43.6c-3.66-.06-7.2,1.26-10.62.86-2.8,1.25-5.19,2.93-8.06,2.52l-6.78-3.24a5.24,5.24,0,0,0-3.4.51l-3.53-1.18C177,55.1,172.31,59,167.64,63Q157.53,71.49,147.45,80.07Z" />
				<path class="cls-1" d="M124.28,287.06c.68.93,1.26,1.71,1.79,2.42a7.73,7.73,0,0,0,1.56.84c4.25,1.17,8.08,3.28,11.94,5.35a15.27,15.27,0,0,0,6.82,1.83c1.83.05,3.67,0,5.27,0l4.63-1.79c.66-1,1.12-1.66,1.57-2.34h9.53l1.59.88,5.22,7.07c1.3,2.51,1.11,4.89,1.46,7.22,1.31,1.3,2.15,3.09,3.93,3.76h2.62l2.7-3.76c2.25-.9,4.37-1.62,7-1.11l1.9.95c1.17,2.11,3.1,3.58,3.7,6.42v3.12l3.24,5.45c-.85,1.44-.58,2.9-.51,4.36l1.84,3.73a18.17,18.17,0,0,1,6.24,2.58l.88-1.08c.46-3.44-.67-7.1,2-10.69,1.24-2.35,5-2.82,6.26-5.92a65.44,65.44,0,0,0,13.72-6.66c2.7-1.71,5.54-2.82,8.83-2.34l3.43,1.64h4.91l2.51,1.62c1.69-.06,3.27.33,4.76-.52.86.49,1.75.88,2.77.1-.05-.36-.09-.76-.13-1.09L255.25,307c-.27-1.06-.18-1.73.62-2.28h9.49l3-1.76c2.46.68,2.46.68,4.94.13.54-.12,1.1-.19,1.66-.26a7.57,7.57,0,0,1,7.17,2.81c.62.75,1.14,1.58,1.65,2.29,1.62.39,2.83-.4,4.12-1a20,20,0,0,1,2.34-.75c2,2.07,3.5,4.33,5.36,5.9a10.11,10.11,0,0,1-.72,6.88,21.37,21.37,0,0,0,.26,4.13,68.21,68.21,0,0,0,2.66,8.2,51.16,51.16,0,0,0,3.33,6c.12.2.46.26.88.48a14,14,0,0,0,4.89-6.3c0-1.15-.06-2.75,0-4.35a22.11,22.11,0,0,0-1-8.14,15.27,15.27,0,0,1-.85-5.55,3.74,3.74,0,0,0-.09-1.3c-1.25-3.4-.66-6.89-.6-10.22a45.47,45.47,0,0,0,3.28-5.23,14.4,14.4,0,0,1,3.8-5.14,11.91,11.91,0,0,0,1.74-2c5-2.4,8.37-5.76,12-8.36l3.75-1.28,3.73-4,6.63-1.55,1.59-4.28,3.06-1.8,1.84-4.8a33.08,33.08,0,0,1,.41-5.74,36.28,36.28,0,0,0,1.35-8.91c.71-1.21.79-2.81,2.21-3.37,2,1.18.67,3.38,1.74,5,2.41-1.63,3.06-4.4,4.35-6.75l2.38-.59a16.76,16.76,0,0,1,2.5-3,10,10,0,0,0,2.56-2.36l.82-3.29a41.39,41.39,0,0,0,9.79-5.09c2.27-.08,4.58.17,6.65-.92s4.41-1.11,6-3.13a8.86,8.86,0,0,1,1.45-5.88c3.36-3.48,6.46-7.64,11.78-7.84,1.25-1.3,2-2.75,3.85-3.32h2.79c2-1.43,4.62-2,6.29-4.07-.62-1.88-1.22-3.64-1.7-5.09.17-2.64,2-4.51,1.69-7l-5.46-1c-2.61,2.71-5.93,4.82-7.56,8.57a4.45,4.45,0,0,1-1.16,1.26c-1.05,1-2.11,1.93-2.9,2.64a21.67,21.67,0,0,0-3.48,1.22,13.32,13.32,0,0,1-9.7,1.45,13.77,13.77,0,0,0-2.89-.4h-5.85l-8.93,4.35-5,5.11c-2.06,0-4,0-6,0a35,35,0,0,0-5.73.16,48.34,48.34,0,0,1-3.33,7.48,96.65,96.65,0,0,1-14.54,6.27,17.25,17.25,0,0,1-9.43.85l-1-1v-2.6c1.53-2.12,3.06-4,5.06-4.77.9-2.5,1.67-4.66,2.47-6.9-.14-.32-.3-.7-.46-1.09-1.33-.16-2.35,1.19-3.67.66-.26-.1-.5-.23-1-.45,0-.71-.08-1.54-.13-2.44l5.8-7.08c-1.66-.82-2.81-2.46-4.61-2.6a37.48,37.48,0,0,1-5.25,3.79,15.07,15.07,0,0,0-6.44,6.06,19.88,19.88,0,0,1-1.9,2.43c-.51,2.32-1,4.28-1.37,6.12-4.13,5.32-4.13,5.32-8.08,8.11h-3.06L296,226.09a10.58,10.58,0,0,1,.49-4.46c.6-2.12,1.85-3.92,2.46-6a21.32,21.32,0,0,1,4.22-7.44c1.1-1.33,2.37-2.5,3.51-3.8s2.37-2.85,3.58-4.26a2.94,2.94,0,0,1,.74-.47,26.86,26.86,0,0,0,8.12-1.86,12.54,12.54,0,0,1,5.35-1,19.37,19.37,0,0,0,2.32-.28l-5.67-2.13c-5,1.11-9.22,1.76-12.83-1.46-1.11.19-2.07.37-3,.51a65.63,65.63,0,0,0-7.43,1.16,19.54,19.54,0,0,1-7.09.46c-.24,0-.45-.31-.74-.52V192c4.19-1.49,7.91-3.72,12.44-6.28h-6.21a16.33,16.33,0,0,1-2.31-1.15c-.93-.66-1.78-1.43-2.74-2.23-3,1.41-5.54.13-7.82-1.29-.59-1.2.06-2.31-.71-3.09l-3.27,2.06-.45-.15a3.42,3.42,0,0,0-.4-.17,5.88,5.88,0,0,0-.81-.18c-.43,0-.85,0-1.27,0l-135.57,0a1.14,1.14,0,0,0-.41.07,4.85,4.85,0,0,0-.55.39l-2.23,7.09a1.36,1.36,0,0,1-2-.7c-.63-1,1.51-2.09.25-3.43a26.19,26.19,0,0,1-3,1.32,33.29,33.29,0,0,1-3.64.69,6.82,6.82,0,0,0-.46.78,10.08,10.08,0,0,0-.64,1.6A46.85,46.85,0,0,1,121.79,201c-1.9,2.87-3.82,5.73-5.82,8.53-1.34,1.86-2.78,3.65-4.24,5.42-2.37,2.86-4.8,5.68-7.06,8.33-1.65,7.12-1.92,7.23-5.47,11.79-.26.34-.58.64-.85,1a6.5,6.5,0,0,0-1.54,3l.64,1.75c-.51,1.16-1,2.34-1.64,3.76,0,1.07.1,2.37.14,3.32l2.61,5.64c-.25,1.55-.51,3.25-.82,5.16.15.43.4,1.1.61,1.71l-.89,2.7c1.88,3.87.41,8.22,1.24,12.38l6.63,1.59a28.61,28.61,0,0,0,3.2,3.55,9.21,9.21,0,0,1,3.52,6.67c0,.23.32.44.67.86C116.45,287.69,120.38,288.29,124.28,287.06Z" />
				<path class="cls-1" d="M100,105c3.39-.1,6.75,0,9.86,1.67a5,5,0,0,0,1.24.23c1.5.32,3.16.34,4.47,1,1.46.79,3.1.11,4.41.91a22.87,22.87,0,0,0,4.14,8.4l4.08.31c1.44.81,1.3,1.73,1.44,2.6a23.09,23.09,0,0,0,.78,2.8c-.63.92-1.19,1.74-1.7,2.47q1.5,3.77,2.84,7.16l-1,2.51c.75,1.14,1.45,2.18,2.27,3.42,1-.84,1.89-1.74,2.91-2.46s2.38-.84,3.22-2c0-.39-.05-.82-.07-1.33-2-1-2.91-3-4.1-4.81-.56-3.41,1.56-6.06,2.36-9a9.77,9.77,0,0,0-.27-5.28c.17-1.32.35-2.3.39-3.3,0-.31-.33-.64-.47-.9-1.17,0-1.51,1-2.14,1.5s-1.27,1.15-1.83,1.66l-7.7,1.9c-1.53-.82-1.79-2.31-2.24-3.52-.23-1.37.08-2.67-.28-3.92-.58.18-1.08.53-1.37.39-1.52-.73-3.39-.28-4.74-1.53a4.13,4.13,0,0,1-.46-.8c0-.37.1-.79.14-1.18a54.35,54.35,0,0,0,5.67-4.56,96.81,96.81,0,0,1,7.64-6.85c2.17-1.84,4.28-3.75,6.45-5.59,4.45-3.77,8.92-7.51,13.37-11.27L154.93,71c3.92-3.29,7.86-6.55,11.77-9.85q6.2-5.22,12.35-10.5a3.32,3.32,0,0,0,.54-1C177.91,48,175.93,48,174,48.19c-1.51.15-3,.71-4.52.72s-3.3-.62-5-.62a43.07,43.07,0,0,1-13.68-2.56,48.24,48.24,0,0,1-7-.43c-2.6-.54-5.16-1.21-7.79-1.63-2.19-.34-4.33-1-6.43-1.48l-5.94,2.4c-2.39,0-4.79,0-7.18,0a10.38,10.38,0,0,0-3.36.23,16.57,16.57,0,0,1-6.24.62,18.11,18.11,0,0,0-9.69,2.42,25.71,25.71,0,0,1-7.48,2.74,24.26,24.26,0,0,0-3.59,1.16,39.65,39.65,0,0,1-7.92,2.74c-3.57.62-7.2.83-10.87,1.91l-2.61,1.73L67.47,64l2.11,1.28c.84,1.35,1.65,2.64,2.41,3.84-.19.31-.24.47-.34.53-1.57.94-3.32.17-5,.57l-3,1.44c-4.9.46-7,.66-9.78-.88a22.16,22.16,0,0,0-6.2.81,26.41,26.41,0,0,1-6.18,1c-2,.2-3.89.34-5.69,1.61-.07.62-.14,1.34-.24,2.05s-.24,1.59-.41,2.61c4.32,0,8.55-.7,11.38.28,4.72.13,8-1.64,11.53-1,.58.49,1.26.83,1.11,1.78-1.1,1.42-2.81,1.74-4.34,2.39A23.55,23.55,0,0,0,49.62,85a12,12,0,0,1-7.45,2.48c-1.13,0-2.25.09-3,.13l-6.55,3.25-3.79.3c-4.29,2.07-8.35,4-12.42,6a8.18,8.18,0,0,1-2.78.9,4.83,4.83,0,0,0-4.14,2.57c-.11,1.46-.23,2.89-.33,4.18-1.15.92-2.11,1.71-3,2.41a2.21,2.21,0,0,0,1.42,2.24,13.16,13.16,0,0,0,6.23-2.65c1,0,1.71-.21,2.29.54a7.27,7.27,0,0,1,.12,1.2A10.08,10.08,0,0,1,16,110c-.67.76-1.48,1.58-2.18,2.49s-2,1.45-2.51,2.81c4.06-.55,7.88-1.41,11.73.1a3.47,3.47,0,0,0,2.86-.37,4.23,4.23,0,0,1,1.46-.25c1.37.64,1.93,1.5,1.34,3a5,5,0,0,1-1.13,1c-2.64,1.32-5.3,2.56-8,3.83-1.66.8-3.25,2-5,2.3-4,.75-7.19,3.18-10.77,4.79a1.65,1.65,0,0,0-1.11,1.47,18.61,18.61,0,0,0,5.39-1.85c5.2-2.51,10.72-4.2,15.92-6.72,2.13-1,4.57-1.45,6.6-2.73,2.21-1.4,4.75-1.71,7.06-2.72s4.66-1.94,6.14-2.56a41,41,0,0,1,4.61-3.08c3.56-1.69,7.19-3.21,10.8-4.79l13.58-5.94,4.79-.77a1.36,1.36,0,0,1,0,2l-6.71,2.8c-2,2.69-5.31,3.76-8.39,6.34,2.51-.39,4.44-.52,6.29-1,2.83-.75,5.61-1.73,8.41-2.64a20.57,20.57,0,0,0,1.93-.85,2.06,2.06,0,0,0,.4-.34c.43-1,.89-2,1.39-3.16l1.21-1c1.59-.54,2.75-1,4-1.34,2-.55,4-1.46,6.16-1.06a10.46,10.46,0,0,1,1,.32l1.15,2,4.77,2.81A7.22,7.22,0,0,0,100,105Z" />
				<path class="cls-1" d="M231.53,400.79h5.67c-1.38-2.54-3.59-4-4.95-6,.1-.54.19-.94.27-1.37l1.92-.86c.21-1,.42-1.93.66-3.07h9.83c2.18-1.53,4.21-2.56,5.64-4.55l4.21.56c1.19-3.22,2.43-6.59,3.58-9.72.09-1.85.17-3.44.25-4.93,1-1.1,1.83-2.05,2.67-3a1.23,1.23,0,0,0-.13-2c-.94,0-2.07.08-3.18,0s-2.45-.43-3.54-.63c-3.65,1.37-7.42,1.94-11,3.84a43,43,0,0,1-5.3,15.1l-3.5,1.93H222.24l-3.53,1.74h-2.8l-3.28-3.2-2.11-.54c-3.54-3.19-4-3.68-4.92-6-1.38-3.62-2.65-7.28-3.86-10.63.77-2.71.75-2.71.26-5.38a17.31,17.31,0,0,1-.17-2.16,44.36,44.36,0,0,1,2.78-16.52c.48-1.2,1-2.4,1.34-3.64s1.55-2.08,1.29-3.52c-1.76-2.16-4.79-1.63-7.13-3.84l-1.73-3.26V323.6l-2.4-3.88c-.4-2-.79-4-1.22-6.13-.79-1.28-1.44-2.94-3-3.81-1.69,0-3.39-.22-5.13.32l-3.14,4.06h-4.78l-2.32-1.31L174,309.33a33.53,33.53,0,0,1-.92-4.54,6.27,6.27,0,0,0-1.18-3.21c-1.48-2.09-3.13-4.07-4.73-6.07a1.29,1.29,0,0,0-.54-.3c-2.06-.56-3.79.21-5.34.59l-2.17-.73c-.42,1.07-.78,2-1.26,3.17-2.08-.75-3.66.8-5.06.95H141.49c-1.5-.91-2.78-1.84-4.17-2.5-3.18-1.51-6.38-3-9.66-4.26a12.2,12.2,0,0,1-4.61-2.83c-3.53.42-7.1-.38-10.35,1.48.07,1.69-.19,3.4.29,4.86a21.16,21.16,0,0,1,.69,6.88,15.39,15.39,0,0,0,.91,6.32l4.11,5.93v4.69l-1.14,1.88-3.06,1.82c.09.78.15,1.34.22,2l4.47,4.39,3,.19c2.17,1.59,3.19,3.78,4.06,6.3-1.35,1.86-.85,4.06-.8,6.31l3.76,2c.75.89,1.55,1.72,2.21,2.66.77,1.11,1.42,2.31,2.13,3.49a1.37,1.37,0,0,0,.29-1.69c-.68-1.26-1.49-2.45-2.26-3.65-.62-1-1.27-1.89-1.76-2.63-.07-1.31-.12-2.33-.17-3.25l-1.52-3.27c-.12-5.46-2-10.43-4.34-15a15.41,15.41,0,0,0-2.82-8.64,25,25,0,0,1-3.25-6.85c.85-1.27.86-2.85.9-4.46a7.25,7.25,0,0,1,3.09-6.28c2.36-.35,4.31,1.49,6.61,1.12.12,0,.25.12.79.41.56.62,1.4,1.58,2.1,2.37.09,4.65.17,9,.26,13.41,2.24,3.24,4.44,6.42,6.67,9.67,0,.95.1,2,.15,2.84l4.57,7.83c-.25,1.59-.43,2.7-.58,3.57,1.21,2.11,3.08,3,4.48,4.1a13.64,13.64,0,0,0,1.59,2.24,21.07,21.07,0,0,1,4.68,7.19,41.55,41.55,0,0,0,4.13,7.49,5.83,5.83,0,0,1,1.17,2.75c.15,2.3.83,4.53.93,6.92-.83,1.46-1.69,2.95-2.52,4.42-.16,3.22.35,6.13,2.74,8.35l3.9,1.48c1.19,1.56,2.31,3,3.51,4.62l7,2.68a11.71,11.71,0,0,1,1.6,1.49,15.3,15.3,0,0,0,6.14,4.46c3.62,1.55,7.23,3.13,10.87,4.62,2.73,1.11,5.52,2.07,8.25,3.16a6.43,6.43,0,0,0,4.13.14,40.06,40.06,0,0,0,5.64-1.63,7.89,7.89,0,0,1,3.8-.56,17.08,17.08,0,0,1,7.52,5.21c.77.86,1.57,1.67,2.36,2.49.54.57.85,1.47,1.87,1.38.56-2.76,2.1-5,3.28-7.27Z" />
				<path class="cls-1" d="M499.12,65.82c-.35-.93-.84-1.8-1.17-2.5-4.36-2.53-9.19-3.39-13-6l-.79-1.67c.63-2.25,1.84-3.71,4-4.13.23,0,.4-.36.65-.61V48c-2.76-3.72-6.28-6.26-10.47-6.76a14.43,14.43,0,0,1-6.92-2.83,19,19,0,0,0-7-3.5c-1.54.08-3.49-.21-5.18.33-3.91,1.24-7.77.72-11.7.49l-.86-1.38c.48-1.62,2.13-2.21,2.31-4.08-.33-.35-.79-.84-1-1.12-3.73-.67-6.94.84-9.9.79A28.19,28.19,0,0,0,432,33.72c-1.74,1.41-4.17,1.76-5.57,3.65-.1,1.22-.19,2.36-.25,3.2-.65.86-1,1.51-2.1,1.16-.36-.77-.79-1.66-1.13-2.39,1.16-3.78-.06-4.13,6-9.59a70.18,70.18,0,0,0-9,.21c-4.47,3.16-9.37,6.27-13.05,10.89.08.73.15,1.29.2,1.72,1.56,2.06,3.74,2.78,5.87,3.85,3.25.17,6.2.33,8.9-.9l5.11,1.88h7.83c2.85,1.26,5.83.48,8.74.66l1.84-2.52,1.34.06a16.74,16.74,0,0,0,2.8,3A15.19,15.19,0,0,1,455,54.8c2.32,1.06,4.55,2,5.87,4.41v2.53l-2,3.8-9.63,6.62c-.12,2.34-1.33,3.73-3.8,4.26a25.85,25.85,0,0,1-3.27.63,16.62,16.62,0,0,1-9.06-1.34,8.94,8.94,0,0,0-1.39-.46,8.16,8.16,0,0,0-4,2.69,1.15,1.15,0,0,0-.1,1.68,37,37,0,0,1,6.84.86,9.86,9.86,0,0,0,6.24-.34c2.39-1,4.36-.35,6.46,1.42l3.48,7.53,1.65,1.28c4.3,1.75,7.81,3.15,11.31,4.6.8.33,1.54.72,2.22.21-.26-3.13-2.16-5.28-3.86-7.28-.16-1.13-.25-2,.46-2.69a2.92,2.92,0,0,1,.78-.28,10.45,10.45,0,0,1,1.41.06c2.53,2.24,5.88,2.92,8.85,4.35l3.82-2.27,2.24-2.74V81.05A43.21,43.21,0,0,0,477,77.49c-.64-.74-1.6-1.17-2.31-1.85-.92-.87-1.74-1.86-2.49-2.68V69.61l2.26-1.18c2.84-.15,5.65-.48,8.65.12a6,6,0,0,1,1.27,1.58,22.89,22.89,0,0,0,4.51,6.78h1.48L500,68.85C499.68,67.72,499.47,66.75,499.12,65.82Z" />
				<path class="cls-1" d="M412.45,189.37l1.74.9c.92,3.24-.07,5.93-1.35,8.43l2,5,13.58-4.81c.89,1.6.49,3.26.3,5l-6.1,3.27c-1.53,2-3.87,3.31-5,5.9l1.21.56c3-2.05,4.67-5.61,8.27-7h5l9.23-4c0-.32-.08-.58-.14-1.09l-5.24-.43-5.23-3.74a9.25,9.25,0,0,1-1-3.79,19.11,19.11,0,0,0-.89-3.76l1.56-2.28a26.63,26.63,0,0,1-2.43-1.58c-.56-.45-1-1.08,0-2.1,3,.48,5.32-1.34,7.73-3.44-.08-.45-.16-1-.24-1.44l-3.12-1.13c-2.07-.2-3.82.43-5.6.61a22.8,22.8,0,0,0-10.48,4.21,73.6,73.6,0,0,1-9.49,5.57c-.29.14-.47.53-.69.82,1.79,0,3.59-.09,5.08.83Z" />
				<path class="cls-1" d="M406,189h-.1s0,0,0,.06H406Z" />
				<path class="cls-1" d="M325.58,210.61c.87,1.45,2.37.92,4,1.62,0,.81,0,1.52,0,2.22s-1,1.49-.21,2.61L338.83,205c2.23-.7,3,1.66,4.72,2.44,1.05-1.87.59-3.69.4-5.41-2.68-2.6-6.4-2.3-8.51-3.72-2.18-.41-3.55-.67-4.92-.91a2.27,2.27,0,0,0-.67.1c-.2.66-.39,1.31-.68,2.24-2.6-.61-5.06-1.3-7.9-.63a18.81,18.81,0,0,1-9.19,2.47c-2.31,2.43-4.56,4.64-6.62,7a26.11,26.11,0,0,0-3.61,5.28c-1.4,2.82-2.44,5.82-3.57,8.59.1,1.46-.35,2.8.39,4,.35,0,.69.15.87,0a28.82,28.82,0,0,0,6.27-6.44,4.47,4.47,0,0,0,1.07-3.24A5.19,5.19,0,0,1,308,213.1c1.47-2.12,3.08-4.14,4.73-6.11a10.06,10.06,0,0,1,2.84-2.58,41.58,41.58,0,0,0,5.93-4.08,21.44,21.44,0,0,1,2-1.18c1.94,1.68,4.72,1.95,6,4.29V206C328.29,207.84,326.44,208.81,325.58,210.61Z" />
				<path class="cls-1" d="M489.88,178.54l1.62-2.32c-3-1.18-5.09,1.48-7.79,1.47-2.39-1.36-3.43-3.91-4.73-5.95.26-2.82,2.66-3.5,4-5.16-.16-.39-.31-.74-.59-1.39-1.75,1.37-3.1,2.4-4.42,3.47a6.67,6.67,0,0,0-1.18,1.25c-2.2,3-4.35,6-6.59,9a22.79,22.79,0,0,1-6.09,6,19.21,19.21,0,0,0-2.35,2.05l2.77,1.17a23.63,23.63,0,0,0,2.68,0c.68-.08,1.33-.42,2-.55a6.77,6.77,0,0,1,1.68-.13,15.21,15.21,0,0,0,6.93-1l2.17,1.45c.75-.14,1.43-.31,2.11-.37.22,0,.47.24.71.37.26.65.51,1.3.69,1.73a15.78,15.78,0,0,1,2.16.87,14.47,14.47,0,0,1,1.6,1.33l2.05-.2c.39-.93,1.27-1.39,1.07-2.46l-2-1.42c-.77-2.25.87-3.87,1.34-5.73C489.78,180.77,489.83,179.61,489.88,178.54Z" />
				<path class="cls-1" d="M272.63,412.25l-4.36-.69a11.61,11.61,0,0,0-2.41,2.84c-1.23,1.86-2.86,3.13-5.26,3a9.25,9.25,0,0,0-2.47.58c-.63,2.2-1.18,4.37-3.82,5.12,2.5,2.33,3.64,5.25,4.63,8.25h1.65l1.13-1.59h2a13,13,0,0,1,4.81,5.71l3.35.87c.12-2.07.23-4,.36-6.11,1.75-2.31,1.85-5.42,2.24-8.37s1-5.63,2.54-7.72c.08-1.54.18-2.73-1.09-3.37Z" />
				<path class="cls-1" d="M256.75,416.25c1.32-.4,2.37-.76,3.44-1s2.13-.5,3-.71c1.35-1.89,2.56-3.69,4.28-4.82,2,0,3.79,0,5.61,0,.73,0,1.4-.24,1.43-1.33L271,404.51c-4.76-.41-9.24-.7-13.14,1.5h-8.08L245,409.28c-.05.84-.09,1.56-.12,2.17l3.19,3.31c1,.17,2.38-.17,3.5,1.3.88,1.32,1,3.5,2.51,4.77.34-.08.55-.07.59-.14C255.34,419.28,256,417.87,256.75,416.25Z" />
				<path class="cls-1" d="M247.35,404.82c-.53-1.64-2.24-.91-3.21-1.71-.23-.35-.46-.72-.66-1-.7-3.65,1.1-7,1.19-10.7-2.67-.08-5.17-.13-7.63,0-.51,1.34-.95,2.52-1.43,3.8,1.08,1.45,2.2,2.93,3.34,4.45,0,2.22,0,2.22-1.61,3.87H231c-2.28,3.33-2.4,3.62-3.49,8.41a6.94,6.94,0,0,0,4.2,2.86,12.63,12.63,0,0,1,2.74-.68,17.42,17.42,0,0,1,3.18.48l4.37-3.4C243.14,408.19,243.14,408.19,247.35,404.82Z" />
				<path class="cls-1" d="M327.4,186.21l-3-1.07c-.5-.9-1.05-1.88-1.68-3-3.6-.34-6.82-.16-9.81,1.26-2.64,1.27-5.55,2-7.91,3.9a8.06,8.06,0,0,1-2.3,1,48.71,48.71,0,0,0-8.05,4.22c2.31,0,4,.12,5.63,0s2.94-1,4.51-.82,3.11-1.56,4.88-.58l1.06,1.28a14.49,14.49,0,0,1,2.8.78,4,4,0,0,0,3.28.19,15.52,15.52,0,0,1,6-.62c1.48.33,2.51,1.51,4,1.54.14-2.31.26-4.44.42-6.57,0-.26.28-.5.37-.77C327.76,186.79,327.61,186.63,327.4,186.21Z" />
				<path class="cls-1" d="M403.25,77.44l-3.68-3.88h-5.73c-3.45,3-4.73,7.75-8.2,10.8l1.49,2.39a11.27,11.27,0,0,0,1.91-.64c2-1.06,3.88-2.3,5.9-3.26,1.62-.76,3.28-1.66,5.49-1.22l3,1.88a3,3,0,0,0,3.31.26l-3-3.49C403.55,79.36,403.42,78.51,403.25,77.44Z" />
				<path class="cls-1" d="M130.1,172.23l-1.77-1.45c-1.79.05-3.45-.5-5.23.13,0,1.93,1.14,3.25,2,5.1,2.64,1.24,3.69,3.87,5.32,6l1.43.68,1.9-1.07.34-1.49a29.56,29.56,0,0,1-2.3-3.39A41.2,41.2,0,0,1,130.1,172.23Z" />
				<path class="cls-1" d="M247.08,417.42c-.73-1-1.35-1.95-2.05-2.83a2.59,2.59,0,0,0-2.11-1.33,19.44,19.44,0,0,0-2.1,1.26,28.27,28.27,0,0,0-2.19,2.12c2.46,2.65,5.71,2.79,8.21,4.39l4.14-1.37c-.48-1.07-.88-1.94-1.2-2.66Z" />
				<path class="cls-1" d="M246.78,391.74c.14,3.23-2,6.31-.56,9.92,1.29-1.51,2.78-2.62,3.78-4.24.07-1.62.14-3.21.22-4.84.91-1.61,1.84-3.22,2.73-4.85.08-.16-.06-.44-.11-.71l-1.47-.1C250.31,388.86,248.12,389.79,246.78,391.74Z" />
				<path class="cls-1" d="M461.09,30.81a32.92,32.92,0,0,0,4.05-.47,3.82,3.82,0,0,0-.68-.84,2.93,2.93,0,0,0-1.13-.5,18.12,18.12,0,0,1-4.09-.78,6.19,6.19,0,0,0-2.5,0c-.23,0-.44.32-.65.48a1.82,1.82,0,0,0,1.11,2.53C458.75,31.87,459.87,31,461.09,30.81Z" />
				<path class="cls-1" d="M329.74,226.17c.18.2.26.38.35.38,3.62,0,6.39-2.52,9.69-3.47a11.45,11.45,0,0,0,2.21-1.39h-4.44C335.15,223.29,332.13,224.14,329.74,226.17Z" />
				<path class="cls-1" d="M137.37,179.64l-3.12-7c-.55-.15-1-.86-1.84-.59.28,1.11.57,2.19.8,3.07,1.15,1.71,2.17,3.27,3.25,4.79C136.74,180.29,137.14,180.22,137.37,179.64Z" />
				<path class="cls-1" d="M343.39,447.37c1-2.25,1-2.25-.68-5.44-.47.79-.89,1.48-1.23,2.06A7.33,7.33,0,0,0,343.39,447.37Z" />
				<path class="cls-1" d="M403.37,439.85c-.37-.48-.85-.61-1.28-.15a.83.83,0,0,0,.09,1.31C403.11,441.17,403.37,440.65,403.37,439.85Z" />
				<path class="cls-1" d="M302.46,48.94a19.87,19.87,0,0,0-3.63-.76c-3.53-.07-7.06,0-10.57.1a17,17,0,0,0-3.66.85c-.21.06-.35.38-.54.6.29,2.18,2.24,2,3.56,2.41a24.42,24.42,0,0,0,4.53.7l2.5,2.13c1.72,0,3.37.34,4.79-.09a15.13,15.13,0,0,1,4.14-.5,16.38,16.38,0,0,0,5.8-.83,13.36,13.36,0,0,1,4.08-.92,48.27,48.27,0,0,0,8.46-1.78c2.52.89,4.89,1.74,6.66,2.38l6.85.82,5.86-.91c.72-1,1.48-2,2.24-3,1-.21,2-.34,3-.6s1.78-.65,2.59-.95c0-.35.1-.51.05-.63-.86-2.13-3.49-1.7-4.79-3.62V40.54c1.4-2.42,3.36-4.76,3.67-8-.72-1.17-2-1.44-3.18-1.87a3.44,3.44,0,0,0-1.6,0c-3.74,2-6,5-8.09,7.7-1.16.3-2,.39-2.76-.6-.08-1.23-.17-2.65-.26-4a2.48,2.48,0,0,0-2.58-.48c-.32.25-.75.63-1.22.94s-1,.53-1.51.82l-4.29-1.84c-1.7,0-3.36-.24-5,.54a4.32,4.32,0,0,1-3.71-.09c-.14-.87-.27-1.71-.44-2.76a37.36,37.36,0,0,1-4.65,1.35c-3.86.59-7.64,1.66-11.55,2a6.69,6.69,0,0,0-3.21.9c-1.72,1.23-3.71,1.86-5.6,2.92l1,1.23,6.91.26c.17.37.38.63.37.87a5.88,5.88,0,0,1-.22,1.11c-2.48,2.24-5.53,1-8.29,1.71.21.52.36.88.54,1.31,2.6,0,5.14,0,7.68,0s5,.17,7.63.26l1.09,1.66A3.75,3.75,0,0,1,302.46,48.94Z" />
				<path class="cls-1" d="M268.27,40.42c4.06-1.85,8.46-2.66,12.79-3.68a78.87,78.87,0,0,0,11.63-3.38A26.68,26.68,0,0,1,300,31.71a35.19,35.19,0,0,0,6.58-1.21c1.86-.57,3.9-.51,5.61-1.63.2-.13.31-.42.46-.64a1.94,1.94,0,0,0-.67-1.55c-3.78-1.32-6.54.84-9.53.33l-4.36-2.64c-2.51.32-5,.82-7.48.92a45.27,45.27,0,0,0-8,1.18,18.75,18.75,0,0,1-6.85,3.93c-4.28,1.51-8.07,3.94-12,5.81a2.1,2.1,0,0,0,.85,2.79Z" />
				<path class="cls-1" d="M323.35,373.88l4.83,2.57,2.64-.13,1.82-1.22a44,44,0,0,0-3.91-2.67A32,32,0,0,0,325,371l-.66-1.08a41.22,41.22,0,0,1-3.86-2,27.7,27.7,0,0,1-4.9-4.1c-1.46-1.55-2.87-3.23-5.06-3.95l-3.26-.3c-2.13-2.41-5.1-3.05-7.8-4.16a16.4,16.4,0,0,0-8.73-.91c-2.32.89-4.62,2-7,1.79-3.94,2.34-4.36,2.68-5.16,4.14l4.27-1.1,2.76-2.27a36.71,36.71,0,0,1,7.12.13l1.09,1.43,2,1a14.9,14.9,0,0,1,11,3.6l3.27.22,2.2,4,3.79,1.55,1.74,2a13.7,13.7,0,0,1-.46,2.08,1.29,1.29,0,0,0,.36,1.65C319.51,374.54,321.3,373.27,323.35,373.88Z" />
				<path class="cls-1" d="M421.71,18.21l-2.29,1.86a19.74,19.74,0,0,0,4.59.15c3.54-.31,7,.5,10.37,1.19a67.36,67.36,0,0,0,12,1.53c3,.08,5.78-.9,8.7-1.16,1.74-.15,4.18-2.2,5.48-4-3.4-.43-7.32-.63-9.16,0a10.59,10.59,0,0,1-3.71.5c-4.64,0-9.28,0-13,0-3.67-.46-4.94-3.45-7.62-4.28l-2.79.14-1.92,1.7C422.11,16.69,421.93,17.38,421.71,18.21Z" />
				<path class="cls-1" d="M323.13,19.08c1.73.54,3.45.1,5.09.39l2.09,1.43c2.69.21,5.39-.19,8,.85a2.88,2.88,0,0,0,2.05-.17,6.86,6.86,0,0,1,2.88-.48c2.4-.05,4.8-.08,7.19-.14a6.41,6.41,0,0,0,2.5-.2c1.37-.7,2.76-.46,4.15-.5,1.69-.05,3.38,0,4.9,0,1.13-.88,2.7-.79,3-2.38-1.35-.95-2.64.3-3.67.17-1.84-.75-1.68-2.45-2.22-3.65l-3.14.75a13.48,13.48,0,0,1-6.82,5c-1.51,0-1.49-1-2.09-1.39l-6-2.44c-.8-.67-1.78-1.49-2.77-2.3a7.14,7.14,0,0,0-1.75.2,58.28,58.28,0,0,1-6,1.73C328,16.61,325.22,16.88,323.13,19.08Z" />
				<path class="cls-1" d="M355.2,386l3.27-1.7c2-1,3.71,1.24,6.17.47a47.86,47.86,0,0,0-4.92-3c-1.6-1-3.48-.85-5-1.22L352,378c-1.13.09-2.27-.31-3.26.47a3.16,3.16,0,0,0-.29.79c-.12,2,.11,4-.93,5.9-.29.53-.05,1.37-.05,2.63l2.58-1.86Z" />
				<path class="cls-1" d="M341.36,385.7c-1.44.41-2.69,0-4.24.9,1.75.25,3,.24,4.24.38s2.57,1.13,4.07.45c-.15-.76-.29-1.55-.42-2.19.59-1.35,1.1-2.53,1.55-3.54-.06-1.19.24-2.21-.45-3.38a8.31,8.31,0,0,0-4.32,0c1.37,3.14,1.37,3.14,1.1,6Z" />
				<path class="cls-1" d="M323.94,11.52a21.18,21.18,0,0,0,6.6-1.51,3.94,3.94,0,0,0-3,0,6.37,6.37,0,0,1-3.69.59c-3-.23-5.79,1-8.73,1-1,.7-2.14.58-3.25.72a3.72,3.72,0,0,0-1.58.5c-.47.32-1.32.15-1.48,1.18h7.44A15,15,0,0,1,323.94,11.52Z" />
				<path class="cls-1" d="M363.56,35.59l5.92,4c4.22-.61,7.78-2.67,11.42-3.89L383,32.65a13.78,13.78,0,0,1,0-2.13,17.84,17.84,0,0,1,.62-2.27,2.47,2.47,0,0,0-2.3-1,59.57,59.57,0,0,0-8-.05l-1.86,2.05c-.13,1.12-.23,2-.32,2.78L369,33.18c-1.86.4-3.58-.09-5.26.51C363.65,34.38,363.61,34.93,363.56,35.59Z" />
				<path class="cls-1" d="M400.46,26.53c-.21.27-.36.51-.55.72a8.25,8.25,0,0,1-.66.63l-2.81.18c-2.25,1.34-4.42,2.68-5.61,5.15-.08.17.12.49.19.75.81.5,1.63.14,2.45,0L396,32.38h8.21c2.25-1.14,4.55-1.77,5.8-4.22Z" />
				<path class="cls-1" d="M393.47,18.43l5.83-4.14c-1.87-.61-3.4,0-4.91-.17s-3.06,0-4.58,0c-1.71.84-3.71,1.34-4.05,4C388.2,18.85,390.55,18.38,393.47,18.43Z" />
				<path class="cls-1" d="M355.23,53.93l3.3,1.09a14.4,14.4,0,0,0,6.87-.84c.29-.11.47-.54.71-.83-1.43-1.55-3.37-1.57-5.09-2.49C359.21,52,356.69,51.74,355.23,53.93Z" />
				<path class="cls-1" d="M406.61,3.12c-2.31-1.44-4.85-1.24-7.51-1.28L397.75,0c-1.17.05-2.45-.45-2.73,1.34,2.81,2.68,6.54,1.83,9.73,2.86Z" />
				<path class="cls-1" d="M311.05,388.08l3.8,1.56,3.5-.31,2-2.23c-2.43-.29-4.46-1.31-7-1C313,387,311.4,386.41,311.05,388.08Z" />
				<path class="cls-1" d="M423,5.88A6.16,6.16,0,0,0,417,4.68,5.71,5.71,0,0,0,423,5.88Z" />
				<path class="cls-1" d="M402.67,20.44l.94,1.4h4.76c.1-.58.91-.74.36-1.62A17.09,17.09,0,0,0,402.67,20.44Z" />
				<path class="cls-1" d="M363,6.55a7.76,7.76,0,0,0-4.83,0A8.63,8.63,0,0,0,363,6.55Z" />
				<path class="cls-1" d="M415.36,13c.12,0,.23-.14.35-.22-2.79-1.23-2.79-1.23-5.75-1.09L411.51,13Z" />
				<path class="cls-1" d="M378.41,15.77a12.88,12.88,0,0,0,2.47-.21c.05,0,.09-.19.13-.29a5.08,5.08,0,0,0-.52-.68,7.52,7.52,0,0,0-.89-.63l-3.14.17A2.07,2.07,0,0,0,378.41,15.77Z" />
				<path class="cls-1" d="M374.62,387.25a2.73,2.73,0,0,0,3.21.05A2.81,2.81,0,0,0,374.62,387.25Z" />
			</g>
		</g>
	</g>
</svg>
