<?xml version="1.0" encoding="utf-8"?>
<!-- Generator: Adobe Illustrator 25.2.0, SVG Export Plug-In . SVG Version: 6.00 Build 0)  -->
<svg version="1.1" id="圖層_1" xmlns="http://www.w3.org/2000/svg" xmlns:xlink="http://www.w3.org/1999/xlink" x="0px" y="0px"
	 viewBox="0 0 245.9 326" style="enable-background:new 0 0 245.9 326;" xml:space="preserve">
<style type="text/css">
	.st0{fill:#792221;}
	.st1{clip-path:url(#SVGID_2_);}
	.st2{fill:#153162;}
	.st3{fill:#D6242D;}
	.st4{fill:#FFFFFF;}
	.st5{fill:#D0222B;}
	.st6{fill:#FDFEFE;}
</style>
<g id="圖層_2_1_">
	<g id="event">
		<g id="mug_nz">
			<path id="glass" class="st0" d="M205.3,135h-2.9v-14.8l0,0V68.2H2.6v63.5l0,0v177.6c0,3.5,2.4,6.6,5.8,7.4
				c1.6,0.4,39.1,9.4,93.8,9.4s92.8-9,94.4-9.3c3.4-0.8,5.8-3.9,5.8-7.4v-66.9h2.9c22.8,0,40.7-13.4,40.7-30.5v-46.4
				C245.9,148.4,228.1,135,205.3,135z M102.3,310.8c-28.3,0.1-56.6-2.5-84.4-7.7V155.3l0,0v-72h169.4v70.5l0,0v149.3
				C159.2,308.3,130.7,310.9,102.3,310.8L102.3,310.8z M230.8,211.9c0,8.2-11.9,15.3-25.5,15.3h-2.9v-77h2.9
				c13.6,0,25.5,7.2,25.5,15.3V211.9z"/>
			<path id="foam" class="st0" d="M2.6,68.2h12.8c-0.4-2-0.6-4.1-0.6-6.2C15,46.3,30.3,43.4,39.3,43c3-0.1,5.7-2.1,6.7-4.9
				c3.9-11.2,20.6-23.7,37.2-23.7c13.3,0,25.2,5.8,31.2,15.1c1.1,1.8,3,3,5.1,3.3c2.1,0.3,4.2-0.2,5.9-1.5
				c5.3-4.1,11.9-6.2,18.6-6.1c12.6,0,23.7,7.4,26.3,17.5c0.8,2.9,3.2,5.1,6.2,5.4c7.8,1,13.6,6.6,13.6,12.8c0,2.7-1,5.3-2.9,7.3
				h15.1v3.6c1.7-3.4,2.6-7.2,2.6-11c0-12.2-8.7-22.6-21.7-26.2c-6-14.4-21.6-23.9-39.3-23.9c-7.5,0-14.9,1.8-21.6,5.3
				C113.1,6,98.6,0,83.3,0c-19.5,0-41,12.7-49.3,29C12.9,31.3,0.3,43.5,0,61.8C-0.1,67.3,2.6,68.2,2.6,68.2z"/>
			<g>
				<defs>
					<path id="SVGID_1_" d="M29.7,97.6v195.5c24,3.8,48.2,5.8,72.5,5.7c24.5,0,48.9-1.9,73.1-5.8V97.6H29.7z"/>
				</defs>
				<clipPath id="SVGID_2_">
					<use xlink:href="#SVGID_1_"  style="overflow:visible;"/>
				</clipPath>
				<g class="st1">
					<g id="flag_new_zealand_square">
						<rect x="-49.3" y="92.2" class="st2" width="299.9" height="216"/>
						<polygon class="st3" points="70.8,145.9 29.7,173 29.7,176.8 31.1,176.8 75.5,147.6 75.5,145.9 						"/>
						<polygon class="st3" points="139.7,105.3 139.7,100.6 98.3,127.9 105.4,127.9 						"/>
						<polygon class="st3" points="29.7,102 29.7,106.7 61.8,127.9 68.9,127.9 						"/>
						<polygon class="st3" points="93.6,145.9 93.6,148.8 136.2,176.8 139.7,176.8 139.7,174.4 96.4,145.9 						"/>
						<polygon class="st4" points="139.7,97.6 133.3,97.6 93.6,123.7 93.6,97.6 89.6,97.6 89.6,126.4 89.6,131.9 92.2,131.9 
							99.3,131.9 105.5,131.9 139.7,131.9 139.7,127.9 111.7,127.9 139.7,109.4 139.7,105.3 105.4,127.9 98.3,127.9 139.7,100.6 
													"/>
						<polygon class="st4" points="76.9,141.9 76.9,141.9 77,141.9 						"/>
						<polygon class="st4" points="90.3,141.9 90.3,141.9 90.3,141.9 						"/>
						<polygon class="st4" points="77,141.9 76.9,141.9 76.9,141.9 66,141.9 29.7,141.9 29.7,145.9 59.9,145.9 29.7,165.8 29.7,173 
							70.8,145.9 75.5,145.9 75.5,147.6 31.1,176.8 37.3,176.8 75.5,151.7 75.5,176.8 79.5,176.8 79.5,149 79.5,144.9 79.5,143.6 
							79.5,141.9 						"/>
						<polygon class="st4" points="75.5,97.6 75.5,124.9 34,97.6 29.7,97.6 29.7,102 68.9,127.9 61.8,127.9 29.7,106.7 29.7,110.8 
							55.6,127.9 29.7,127.9 29.7,131.9 61.7,131.9 67.9,131.9 75.1,131.9 79.5,131.9 79.5,127.6 79.5,97.6 						"/>
						<polygon class="st4" points="96.4,145.9 139.7,174.4 139.7,167.2 107.4,145.9 139.7,145.9 139.7,141.9 101.3,141.9 
							90.3,141.9 90.3,141.9 90.3,141.9 89.6,141.9 89.6,142.4 89.6,146.1 89.6,150.2 89.6,176.8 93.6,176.8 93.6,152.9 130,176.8 
							136.2,176.8 93.6,148.8 93.6,145.9 						"/>
						<polygon class="st3" points="105.5,131.9 99.3,131.9 92.2,131.9 89.6,131.9 89.6,126.4 89.6,97.6 79.5,97.6 79.5,127.6 
							79.5,131.9 75.1,131.9 67.9,131.9 61.7,131.9 29.7,131.9 29.7,141.9 66,141.9 76.9,141.9 77,141.9 79.5,141.9 79.5,143.6 
							79.5,144.9 79.5,149 79.5,176.8 89.6,176.8 89.6,150.2 89.6,146.1 89.6,142.4 89.6,141.9 90.3,141.9 90.3,141.9 101.3,141.9 
							139.7,141.9 139.7,131.9 						"/>
						<polygon class="st5" points="127,270.9 118.9,270.9 116.5,263.1 113.9,270.8 105.7,270.7 112.2,275.5 109.7,283.2 
							116.3,278.5 122.8,283.4 120.4,275.6 						"/>
						<path class="st4" d="M130.6,269.8l-10.8-0.1l-3.2-10.3l-3.5,10.2l-10.8-0.1l8.7,6.5l-3.4,10.2l8.8-6.3l8.8,6.4l-3.2-10.3
							L130.6,269.8z M116.3,278.5l-6.6,4.7l2.6-7.7l-6.5-4.8l8.1,0.1l2.6-7.7l2.4,7.8l8.1,0.1l-6.6,4.7l2.4,7.8L116.3,278.5z"/>
						<polygon class="st5" points="102.3,227.3 95.1,227.2 92.9,220.4 90.6,227.2 83.4,227.1 89.2,231.4 86.9,238.2 92.8,234.1 
							98.6,238.4 96.4,231.5 						"/>
						<path class="st4" d="M105.5,226.3l-9.6-0.1l-2.8-9.2l-3.1,9.1l-9.6-0.1l7.7,5.7l-3.1,9.1l7.8-5.6l7.7,5.7l-2.9-9.2
							L105.5,226.3z M92.8,234.1l-5.9,4.2l2.3-6.8l-5.8-4.3l7.2,0.1l2.3-6.8l2.2,6.9l7.2,0.1l-5.9,4.2l2.2,6.9L92.8,234.1z"/>
						<polygon class="st5" points="127.9,189.8 121.7,189.7 119.9,183.8 117.9,189.7 111.7,189.6 116.7,193.3 114.7,199.1 
							119.7,195.5 124.7,199.2 122.8,193.3 						"/>
						<path class="st4" d="M130.6,188.9l-8.2-0.1l-2.5-7.8l-2.6,7.8l-8.2-0.1l6.6,4.9l-2.6,7.8l6.7-4.8l6.6,4.9l-2.5-7.8
							L130.6,188.9z M119.7,195.5l-5,3.6l2-5.8l-5-3.7l6.2,0.1l2-5.8l1.8,5.9l6.2,0.1l-5,3.6l1.8,5.9L119.7,195.5z"/>
						<polygon class="st5" points="156.8,213.6 151,213.6 149.3,208.1 147.5,213.5 141.7,213.5 146.3,216.9 144.5,222.4 149.2,219 
							153.8,222.5 152.1,217 						"/>
						<path class="st6" d="M159.3,212.8l-7.7-0.1l-2.3-7.3l-2.5,7.3l-7.7-0.1l6.2,4.6l-2.4,7.3l6.3-4.4l6.2,4.6l-2.3-7.3
							L159.3,212.8z M149.2,219l-4.7,3.3l1.8-5.5l-4.6-3.4l5.8,0.1l1.8-5.5l1.7,5.5l5.8,0.1l-4.7,3.4l1.7,5.5L149.2,219z"/>
					</g>
				</g>
			</g>
		</g>
	</g>
</g>
</svg>
