<?xml version="1.0" encoding="utf-8"?>
<!-- Generator: Adobe Illustrator 25.2.0, SVG Export Plug-In . SVG Version: 6.00 Build 0)  -->
<svg version="1.1" id="圖層_1" xmlns="http://www.w3.org/2000/svg" xmlns:xlink="http://www.w3.org/1999/xlink" x="0px" y="0px"
	 viewBox="0 0 245.9 326" style="enable-background:new 0 0 245.9 326;" xml:space="preserve">
<style type="text/css">
	.st0{fill:#792221;}
	.st1{clip-path:url(#SVGID_2_);}
	.st2{fill:#153162;}
	.st3{fill:#D6242D;}
	.st4{fill:#FFFFFF;}
</style>
<g id="圖層_2_1_">
	<g id="event">
		<g id="mug_au">
			<path id="glass" class="st0" d="M205.3,135h-2.9v-14.8l0,0V68.2H2.6v63.5l0,0v177.6c0,3.5,2.4,6.6,5.8,7.4
				c1.6,0.4,39.1,9.4,93.8,9.4s92.8-9,94.4-9.3c3.4-0.8,5.8-3.9,5.8-7.4v-66.9h2.9c22.8,0,40.7-13.4,40.7-30.5v-46.4
				C245.9,148.4,228.1,135,205.3,135z M102.3,310.8c-28.3,0.1-56.6-2.5-84.4-7.7V155.3l0,0v-72h169.4v70.5l0,0v149.3
				C159.2,308.3,130.7,310.9,102.3,310.8L102.3,310.8z M230.8,211.9c0,8.2-11.9,15.3-25.5,15.3h-2.9v-77h2.9
				c13.6,0,25.5,7.2,25.5,15.3V211.9z"/>
			<path id="foam" class="st0" d="M2.6,68.2h12.8c-0.4-2-0.6-4.1-0.6-6.2C15,46.3,30.3,43.4,39.3,43c3-0.1,5.7-2.1,6.7-4.9
				c3.9-11.2,20.6-23.7,37.2-23.7c13.3,0,25.2,5.8,31.2,15.1c1.1,1.8,3,3,5.1,3.3c2.1,0.3,4.2-0.2,5.9-1.5
				c5.3-4.1,11.9-6.2,18.6-6.1c12.6,0,23.7,7.4,26.3,17.5c0.8,2.9,3.2,5.1,6.2,5.4c7.8,1,13.6,6.6,13.6,12.8c0,2.7-1,5.3-2.9,7.3
				h15.1v3.6c1.7-3.4,2.6-7.2,2.6-11c0-12.2-8.7-22.6-21.7-26.2c-6-14.4-21.6-23.9-39.3-23.9c-7.5,0-14.9,1.8-21.6,5.3
				C113.1,6,98.6,0,83.3,0c-19.5,0-41,12.7-49.3,29C12.9,31.3,0.3,43.5,0,61.8C-0.1,67.3,2.6,68.2,2.6,68.2z"/>
			<g>
				<defs>
					<path id="SVGID_1_" d="M29.7,97.6v195.5c24,3.8,48.2,5.8,72.5,5.7c24.5,0,48.9-1.9,73.1-5.8V97.6H29.7z"/>
				</defs>
				<clipPath id="SVGID_2_">
					<use xlink:href="#SVGID_1_"  style="overflow:visible;"/>
				</clipPath>
				<g class="st1">
					<g id="flag_australia_square">
						<rect x="-49.3" y="92.2" class="st2" width="300" height="216"/>
						<polygon class="st3" points="70.8,145.9 29.7,173 29.7,176.8 31.1,176.8 75.5,147.6 75.5,145.9 						"/>
						<polygon class="st3" points="139.7,105.3 139.7,100.6 98.3,127.8 105.4,127.8 						"/>
						<polygon class="st3" points="29.7,102 29.7,106.7 61.8,127.8 68.9,127.8 						"/>
						<polygon class="st3" points="93.6,145.9 93.6,148.8 136.2,176.8 139.7,176.8 139.7,174.4 96.4,145.9 						"/>
						<polygon class="st4" points="139.7,97.6 133.3,97.6 93.6,123.7 93.6,97.6 89.6,97.6 89.6,126.4 89.6,131.9 92.2,131.9 
							99.3,131.9 105.5,131.9 139.7,131.9 139.7,127.8 111.7,127.8 139.7,109.4 139.7,105.3 105.4,127.8 98.3,127.8 139.7,100.6 
													"/>
						<polygon class="st4" points="76.9,141.9 76.9,141.9 77,141.9 						"/>
						<polygon class="st4" points="90.3,141.9 90.3,141.9 90.3,141.9 						"/>
						<polygon class="st4" points="77,141.9 76.9,141.9 76.9,141.9 66,141.9 29.7,141.9 29.7,145.9 59.9,145.9 29.7,165.8 29.7,173 
							70.8,145.9 75.5,145.9 75.5,147.6 31.1,176.8 37.3,176.8 75.5,151.7 75.5,176.8 79.5,176.8 79.5,149 79.5,144.9 79.5,143.6 
							79.5,141.9 						"/>
						<polygon class="st4" points="75.5,97.6 75.5,124.9 34,97.6 29.7,97.6 29.7,102 68.9,127.8 61.8,127.8 29.7,106.7 29.7,110.8 
							55.6,127.8 29.7,127.8 29.7,131.9 61.7,131.9 67.9,131.9 75.1,131.9 79.5,131.9 79.5,127.6 79.5,97.6 						"/>
						<polygon class="st4" points="96.4,145.9 139.7,174.4 139.7,167.2 107.4,145.9 139.7,145.9 139.7,141.9 101.3,141.9 
							90.3,141.9 90.3,141.9 90.3,141.9 89.6,141.9 89.6,142.4 89.6,146.1 89.6,150.2 89.6,176.8 93.6,176.8 93.6,152.9 130,176.8 
							136.2,176.8 93.6,148.8 93.6,145.9 						"/>
						<polygon class="st3" points="105.5,131.9 99.3,131.9 92.2,131.9 89.6,131.9 89.6,126.4 89.6,97.6 79.5,97.6 79.5,127.6 
							79.5,131.9 75.1,131.9 67.9,131.9 61.7,131.9 29.7,131.9 29.7,141.9 66,141.9 76.9,141.9 77,141.9 79.5,141.9 79.5,143.6 
							79.5,144.9 79.5,149 79.5,176.8 89.6,176.8 89.6,150.2 89.6,146.1 89.6,142.4 89.6,141.9 90.3,141.9 90.3,141.9 101.3,141.9 
							139.7,141.9 139.7,131.9 						"/>
						<polygon class="st4" points="57.5,243.2 60.1,253.8 70.1,249.3 63.5,258 73.3,263 62.3,263.2 64.5,273.9 57.5,265.5 
							50.5,273.9 52.7,263.2 41.7,263 51.5,258 44.8,249.3 54.8,253.8 						"/>
						<polygon class="st4" points="140,258.1 141.3,263.3 146.2,261.1 142.9,265.4 147.8,267.8 142.4,267.9 143.4,273.2 140,269 
							136.5,273.2 137.6,267.9 132.2,267.8 137.1,265.4 133.8,261.1 138.7,263.3 						"/>
						<polygon class="st4" points="112.4,220.4 113.7,225.6 118.6,223.3 115.3,227.6 120.2,230.1 114.8,230.2 115.9,235.4 
							112.4,231.3 108.9,235.4 110,230.2 104.6,230.1 109.5,227.6 106.2,223.3 111.1,225.6 						"/>
						<polygon class="st4" points="132.2,188.7 133.5,193.9 138.5,191.7 135.2,196 140,198.4 134.6,198.5 135.7,203.8 132.2,199.6 
							128.8,203.8 129.9,198.5 124.5,198.4 129.3,196 126,191.7 130.9,193.9 						"/>
						<polygon class="st4" points="155.5,208.5 156.8,213.7 161.7,211.4 158.4,215.7 163.3,218.2 157.9,218.3 159,223.5 
							155.5,219.4 152.1,223.5 153.2,218.3 147.8,218.2 152.6,215.7 149.3,211.4 154.2,213.7 						"/>
						<polygon class="st4" points="146.9,237.6 147.9,240.7 151.1,240.6 148.5,242.5 149.5,245.6 146.9,243.7 144.3,245.6 
							145.3,242.5 142.7,240.6 145.9,240.7 						"/>
					</g>
				</g>
			</g>
		</g>
	</g>
</g>
</svg>
