<?xml version="1.0" encoding="utf-8"?>
<!-- Generator: Adobe Illustrator 25.2.0, SVG Export Plug-In . SVG Version: 6.00 Build 0)  -->
<svg version="1.1" id="圖層_1" xmlns="http://www.w3.org/2000/svg" xmlns:xlink="http://www.w3.org/1999/xlink" x="0px" y="0px"
	 viewBox="0 0 245.9 326" style="enable-background:new 0 0 245.9 326;" xml:space="preserve">
<style type="text/css">
	.st0{fill:#792221;}
	.st1{clip-path:url(#SVGID_2_);}
	.st2{fill:#B92230;}
	.st3{fill:#FFFFFF;}
	.st4{fill:#343669;}
</style>
<g id="圖層_2_1_">
	<g id="event">
		<g id="mug_us">
			<path id="glass" class="st0" d="M205.3,135h-2.9v-14.8l0,0V68.2H2.6v63.5l0,0v177.6c0,3.5,2.4,6.6,5.8,7.4
				c1.6,0.4,39.1,9.4,93.8,9.4s92.8-9,94.4-9.3c3.4-0.8,5.8-3.9,5.8-7.4v-66.9h2.9c22.8,0,40.7-13.4,40.7-30.5v-46.4
				C245.9,148.4,228.1,135,205.3,135z M102.3,310.8c-28.3,0.1-56.6-2.5-84.4-7.7V155.3l0,0v-72h169.4v70.5l0,0v149.3
				C159.2,308.3,130.7,310.9,102.3,310.8L102.3,310.8z M230.8,211.9c0,8.2-11.9,15.3-25.5,15.3h-2.9v-77h2.9
				c13.6,0,25.5,7.2,25.5,15.3V211.9z"/>
			<path id="foam" class="st0" d="M2.6,68.2h12.8c-0.4-2-0.6-4.1-0.6-6.2C15,46.3,30.3,43.4,39.3,43c3-0.1,5.7-2.1,6.7-4.9
				c3.9-11.2,20.6-23.7,37.2-23.7c13.3,0,25.2,5.8,31.2,15.1c1.1,1.8,3,3,5.1,3.3c2.1,0.3,4.2-0.2,5.9-1.5
				c5.3-4.1,11.9-6.2,18.6-6.1c12.6,0,23.7,7.4,26.3,17.5c0.8,2.9,3.2,5.1,6.2,5.4c7.8,1,13.6,6.6,13.6,12.8c0,2.7-1,5.3-2.9,7.3
				h15.1v3.6c1.7-3.4,2.6-7.2,2.6-11c0-12.2-8.7-22.6-21.7-26.2c-6-14.4-21.6-23.9-39.3-23.9c-7.5,0-14.9,1.8-21.6,5.3
				C113.1,6,98.6,0,83.3,0c-19.5,0-41,12.7-49.3,29C12.9,31.3,0.3,43.5,0,61.8C-0.1,67.3,2.6,68.2,2.6,68.2z"/>
			<g>
				<defs>
					<path id="SVGID_1_" d="M29.7,97.6v195.5c24,3.8,48.2,5.8,72.5,5.7c24.5,0,48.9-1.9,73.1-5.8V97.6H29.7z"/>
				</defs>
				<clipPath id="SVGID_2_">
					<use xlink:href="#SVGID_1_"  style="overflow:visible;"/>
				</clipPath>
				<g class="st1">
					<g id="flag_us_square">
						<rect x="-49.3" y="90.2" class="st2" width="300" height="16.9"/>
						<rect x="-49.3" y="107.1" class="st3" width="300" height="16.9"/>
						<rect x="-49.3" y="124" class="st2" width="300" height="16.9"/>
						<rect x="-49.3" y="140.9" class="st3" width="300" height="16.9"/>
						<rect x="-49.3" y="157.8" class="st2" width="300" height="16.9"/>
						<rect x="-49.3" y="174.8" class="st3" width="300" height="16.9"/>
						<rect x="-49.3" y="191.7" class="st2" width="300" height="16.9"/>
						<rect x="-49.3" y="208.6" class="st3" width="300" height="16.9"/>
						<rect x="-49.3" y="225.5" class="st2" width="300" height="16.9"/>
						<rect x="-49.3" y="293.2" class="st2" width="300" height="16.9"/>
						<rect x="-49.3" y="242.5" class="st3" width="300" height="16.9"/>
						<rect x="-49.3" y="259.4" class="st2" width="300" height="16.9"/>
						<rect x="-49.3" y="276.3" class="st3" width="300" height="16.9"/>
						<rect x="-49.3" y="90.2" class="st4" width="164.5" height="118.2"/>
						<polygon class="st3" points="-20.9,106.1 -19.3,111.1 -14.1,111.1 -18.3,114.3 -16.7,119.4 -20.9,116.2 -25.2,119.4 
							-23.6,114.3 -27.8,111.1 -22.6,111.1 						"/>
						<polygon class="st3" points="6.2,106.1 7.8,111.1 13.1,111.1 8.8,114.3 10.5,119.4 6.2,116.2 1.9,119.4 3.6,114.3 -0.7,111.1 
							4.6,111.1 						"/>
						<polygon class="st3" points="33.3,106.1 35,111.1 40.2,111.1 36,114.3 37.6,119.4 33.3,116.2 29.1,119.4 30.7,114.3 
							26.5,111.1 31.7,111.1 						"/>
						<polygon class="st3" points="60.5,106.1 62.1,111.1 67.4,111.1 63.1,114.3 64.7,119.4 60.5,116.2 56.2,119.4 57.9,114.3 
							53.6,111.1 58.9,111.1 						"/>
						<polygon class="st3" points="87.6,106.1 89.3,111.1 94.5,111.1 90.3,114.3 91.9,119.4 87.6,116.2 83.4,119.4 85,114.3 
							80.8,111.1 86,111.1 						"/>
						<polygon class="st3" points="-20.9,129.7 -19.3,134.8 -14.1,134.8 -18.3,138 -16.7,143 -20.9,139.9 -25.2,143 -23.6,138 
							-27.8,134.8 -22.6,134.8 						"/>
						<polygon class="st3" points="6.2,129.7 7.8,134.8 13.1,134.8 8.8,138 10.5,143 6.2,139.9 1.9,143 3.6,138 -0.7,134.8 
							4.6,134.8 						"/>
						<polygon class="st3" points="33.3,129.7 35,134.8 40.2,134.8 36,138 37.6,143 33.3,139.9 29.1,143 30.7,138 26.5,134.8 
							31.7,134.8 						"/>
						<polygon class="st3" points="60.5,129.7 62.1,134.8 67.4,134.8 63.1,138 64.7,143 60.5,139.9 56.2,143 57.9,138 53.6,134.8 
							58.9,134.8 						"/>
						<polygon class="st3" points="87.6,129.7 89.3,134.8 94.5,134.8 90.3,138 91.9,143 87.6,139.9 83.4,143 85,138 80.8,134.8 
							86,134.8 						"/>
						<polygon class="st3" points="-20.9,153.4 -19.3,158.5 -14.1,158.5 -18.3,161.6 -16.7,166.7 -20.9,163.6 -25.2,166.7 
							-23.6,161.6 -27.8,158.5 -22.6,158.5 						"/>
						<polygon class="st3" points="6.2,153.4 7.8,158.5 13.1,158.5 8.8,161.6 10.5,166.7 6.2,163.6 1.9,166.7 3.6,161.6 -0.7,158.5 
							4.6,158.5 						"/>
						<polygon class="st3" points="33.3,153.4 35,158.5 40.2,158.5 36,161.6 37.6,166.7 33.3,163.6 29.1,166.7 30.7,161.6 
							26.5,158.5 31.7,158.5 						"/>
						<polygon class="st3" points="60.5,153.4 62.1,158.5 67.4,158.5 63.1,161.6 64.7,166.7 60.5,163.6 56.2,166.7 57.9,161.6 
							53.6,158.5 58.9,158.5 						"/>
						<polygon class="st3" points="87.6,153.4 89.3,158.5 94.5,158.5 90.3,161.6 91.9,166.7 87.6,163.6 83.4,166.7 85,161.6 
							80.8,158.5 86,158.5 						"/>
						<polygon class="st3" points="-20.9,177.1 -19.3,182.2 -14.1,182.2 -18.3,185.3 -16.7,190.4 -20.9,187.2 -25.2,190.4 
							-23.6,185.3 -27.8,182.2 -22.6,182.2 						"/>
						<polygon class="st3" points="6.2,177.1 7.8,182.2 13.1,182.2 8.8,185.3 10.5,190.4 6.2,187.2 1.9,190.4 3.6,185.3 -0.7,182.2 
							4.6,182.2 						"/>
						<polygon class="st3" points="33.3,177.1 35,182.2 40.2,182.2 36,185.3 37.6,190.4 33.3,187.2 29.1,190.4 30.7,185.3 
							26.5,182.2 31.7,182.2 						"/>
						<polygon class="st3" points="60.5,177.1 62.1,182.2 67.4,182.2 63.1,185.3 64.7,190.4 60.5,187.2 56.2,190.4 57.9,185.3 
							53.6,182.2 58.9,182.2 						"/>
						<polygon class="st3" points="87.6,177.1 89.3,182.2 94.5,182.2 90.3,185.3 91.9,190.4 87.6,187.2 83.4,190.4 85,185.3 
							80.8,182.2 86,182.2 						"/>
						<polygon class="st3" points="-34.8,94.2 -33.2,99.3 -27.9,99.3 -32.2,102.4 -30.5,107.5 -34.8,104.4 -39,107.5 -37.4,102.4 
							-41.7,99.3 -36.4,99.3 						"/>
						<polygon class="st3" points="-7.6,94.2 -6,99.3 -0.7,99.3 -5,102.4 -3.4,107.5 -7.6,104.4 -11.9,107.5 -10.3,102.4 
							-14.5,99.3 -9.3,99.3 						"/>
						<polygon class="st3" points="19.5,94.2 21.1,99.3 26.4,99.3 22.1,102.4 23.8,107.5 19.5,104.4 15.3,107.5 16.9,102.4 
							12.6,99.3 17.9,99.3 						"/>
						<polygon class="st3" points="46.7,94.2 48.3,99.3 53.5,99.3 49.3,102.4 50.9,107.5 46.7,104.4 42.4,107.5 44,102.4 39.8,99.3 
							45,99.3 						"/>
						<polygon class="st3" points="73.8,94.2 75.4,99.3 80.7,99.3 76.4,102.4 78.1,107.5 73.8,104.4 69.5,107.5 71.2,102.4 
							66.9,99.3 72.2,99.3 						"/>
						<polygon class="st3" points="100.9,94.2 102.6,99.3 107.8,99.3 103.6,102.4 105.2,107.5 100.9,104.4 96.7,107.5 98.3,102.4 
							94.1,99.3 99.3,99.3 						"/>
						<polygon class="st3" points="-34.8,117.9 -33.2,123 -27.9,123 -32.2,126.1 -30.5,131.2 -34.8,128.1 -39,131.2 -37.4,126.1 
							-41.7,123 -36.4,123 						"/>
						<polygon class="st3" points="-7.6,117.9 -6,123 -0.7,123 -5,126.1 -3.4,131.2 -7.6,128.1 -11.9,131.2 -10.3,126.1 -14.5,123 
							-9.3,123 						"/>
						<polygon class="st3" points="19.5,117.9 21.1,123 26.4,123 22.1,126.1 23.8,131.2 19.5,128.1 15.3,131.2 16.9,126.1 12.6,123 
							17.9,123 						"/>
						<polygon class="st3" points="46.7,117.9 48.3,123 53.5,123 49.3,126.1 50.9,131.2 46.7,128.1 42.4,131.2 44,126.1 39.8,123 
							45,123 						"/>
						<polygon class="st3" points="73.8,117.9 75.4,123 80.7,123 76.4,126.1 78.1,131.2 73.8,128.1 69.5,131.2 71.2,126.1 66.9,123 
							72.2,123 						"/>
						<polygon class="st3" points="100.9,117.9 102.6,123 107.8,123 103.6,126.1 105.2,131.2 100.9,128.1 96.7,131.2 98.3,126.1 
							94.1,123 99.3,123 						"/>
						<polygon class="st3" points="-34.8,141.6 -33.2,146.7 -27.9,146.7 -32.2,149.8 -30.5,154.9 -34.8,151.7 -39,154.9 
							-37.4,149.8 -41.7,146.7 -36.4,146.7 						"/>
						<polygon class="st3" points="-7.6,141.6 -6,146.7 -0.7,146.7 -5,149.8 -3.4,154.9 -7.6,151.7 -11.9,154.9 -10.3,149.8 
							-14.5,146.7 -9.3,146.7 						"/>
						<polygon class="st3" points="19.5,141.6 21.1,146.7 26.4,146.7 22.1,149.8 23.8,154.9 19.5,151.7 15.3,154.9 16.9,149.8 
							12.6,146.7 17.9,146.7 						"/>
						<polygon class="st3" points="46.7,141.6 48.3,146.7 53.5,146.7 49.3,149.8 50.9,154.9 46.7,151.7 42.4,154.9 44,149.8 
							39.8,146.7 45,146.7 						"/>
						<polygon class="st3" points="73.8,141.6 75.4,146.7 80.7,146.7 76.4,149.8 78.1,154.9 73.8,151.7 69.5,154.9 71.2,149.8 
							66.9,146.7 72.2,146.7 						"/>
						<polygon class="st3" points="100.9,141.6 102.6,146.7 107.8,146.7 103.6,149.8 105.2,154.9 100.9,151.7 96.7,154.9 
							98.3,149.8 94.1,146.7 99.3,146.7 						"/>
						<polygon class="st3" points="-34.8,165.2 -33.2,170.3 -27.9,170.3 -32.2,173.5 -30.5,178.6 -34.8,175.4 -39,178.6 
							-37.4,173.5 -41.7,170.3 -36.4,170.3 						"/>
						<polygon class="st3" points="-7.6,165.2 -6,170.3 -0.7,170.3 -5,173.5 -3.4,178.6 -7.6,175.4 -11.9,178.6 -10.3,173.5 
							-14.5,170.3 -9.3,170.3 						"/>
						<polygon class="st3" points="19.5,165.2 21.1,170.3 26.4,170.3 22.1,173.5 23.8,178.6 19.5,175.4 15.3,178.6 16.9,173.5 
							12.6,170.3 17.9,170.3 						"/>
						<polygon class="st3" points="46.7,165.2 48.3,170.3 53.5,170.3 49.3,173.5 50.9,178.6 46.7,175.4 42.4,178.6 44,173.5 
							39.8,170.3 45,170.3 						"/>
						<polygon class="st3" points="73.8,165.2 75.4,170.3 80.7,170.3 76.4,173.5 78.1,178.6 73.8,175.4 69.5,178.6 71.2,173.5 
							66.9,170.3 72.2,170.3 						"/>
						<polygon class="st3" points="100.9,165.2 102.6,170.3 107.8,170.3 103.6,173.5 105.2,178.6 100.9,175.4 96.7,178.6 
							98.3,173.5 94.1,170.3 99.3,170.3 						"/>
						<polygon class="st3" points="-34.8,188.9 -33.2,194 -27.9,194 -32.2,197.1 -30.5,202.2 -34.8,199.1 -39,202.2 -37.4,197.1 
							-41.7,194 -36.4,194 						"/>
						<polygon class="st3" points="-7.6,188.9 -6,194 -0.7,194 -5,197.1 -3.4,202.2 -7.6,199.1 -11.9,202.2 -10.3,197.1 -14.5,194 
							-9.3,194 						"/>
						<polygon class="st3" points="19.5,188.9 21.1,194 26.4,194 22.1,197.1 23.8,202.2 19.5,199.1 15.3,202.2 16.9,197.1 12.6,194 
							17.9,194 						"/>
						<polygon class="st3" points="46.7,188.9 48.3,194 53.5,194 49.3,197.1 50.9,202.2 46.7,199.1 42.4,202.2 44,197.1 39.8,194 
							45,194 						"/>
						<polygon class="st3" points="73.8,188.9 75.4,194 80.7,194 76.4,197.1 78.1,202.2 73.8,199.1 69.5,202.2 71.2,197.1 66.9,194 
							72.2,194 						"/>
						<polygon class="st3" points="100.9,188.9 102.6,194 107.8,194 103.6,197.1 105.2,202.2 100.9,199.1 96.7,202.2 98.3,197.1 
							94.1,194 99.3,194 						"/>
					</g>
				</g>
			</g>
		</g>
	</g>
</g>
</svg>
