<?xml version="1.0" encoding="utf-8"?>
<!-- Generator: Adobe Illustrator 25.2.0, SVG Export Plug-In . SVG Version: 6.00 Build 0)  -->
<svg version="1.1" id="圖層_1" xmlns="http://www.w3.org/2000/svg" xmlns:xlink="http://www.w3.org/1999/xlink" x="0px" y="0px"
	 viewBox="0 0 245.3 326" style="enable-background:new 0 0 245.3 326;" xml:space="preserve">
<style type="text/css">
	.st0{fill:#792221;}
	.st1{clip-path:url(#SVGID_2_);}
	.st2{fill:#222323;}
	.st3{fill:#D93E33;}
	.st4{fill:#F1C51E;}
</style>
<g id="圖層_2_1_">
	<g id="event">
		<g id="mug_gm">
			<path id="glass" class="st0" d="M205.3,135h-2.9v-14.8l0,0V68.2H2.6v63.5l0,0v177.6c0,3.5,2.4,6.6,5.8,7.4
				c1.6,0.4,39.1,9.4,93.8,9.4s92.8-9,94.4-9.3c3.4-0.8,5.8-3.9,5.8-7.4v-66.9h2.9c22.8,0,40.7-13.4,40.7-30.5v-46.4
				C245.9,148.4,228.1,135,205.3,135z M102.3,310.8c-28.3,0.1-56.6-2.5-84.4-7.7V155.3l0,0v-72h169.4v70.5l0,0v149.3
				C159.2,308.3,130.7,310.9,102.3,310.8L102.3,310.8z M230.8,211.9c0,8.2-11.9,15.3-25.5,15.3h-2.9v-77h2.9
				c13.6,0,25.5,7.2,25.5,15.3V211.9z"/>
			<path id="foam" class="st0" d="M2.6,68.2h12.8c-0.4-2-0.6-4.1-0.6-6.2C15,46.3,30.3,43.4,39.3,43c3-0.1,5.7-2.1,6.7-4.9
				c3.9-11.2,20.6-23.7,37.2-23.7c13.3,0,25.2,5.8,31.2,15.1c1.1,1.8,3,3,5.1,3.3c2.1,0.3,4.2-0.2,5.9-1.5
				c5.3-4.1,11.9-6.2,18.6-6.1c12.6,0,23.7,7.4,26.3,17.5c0.8,2.9,3.2,5.1,6.2,5.4c7.8,1,13.6,6.6,13.6,12.8c0,2.7-1,5.3-2.9,7.3
				h15.1v3.6c1.7-3.4,2.6-7.2,2.6-11c0-12.2-8.7-22.6-21.7-26.2c-6-14.4-21.6-23.9-39.3-23.9c-7.5,0-14.9,1.8-21.6,5.3
				C113.1,6,98.6,0,83.3,0c-19.5,0-41,12.7-49.3,29C12.9,31.3,0.3,43.5,0,61.8C-0.1,67.3,2.6,68.2,2.6,68.2z"/>
			<g>
				<defs>
					<path id="SVGID_1_" d="M29.7,97.6v195.5c24,3.8,48.2,5.8,72.5,5.7c24.5,0,48.9-1.9,73.1-5.8V97.6H29.7z"/>
				</defs>
				<clipPath id="SVGID_2_">
					<use xlink:href="#SVGID_1_"  style="overflow:visible;"/>
				</clipPath>
				<g class="st1">
					<g id="flag_germany_square">
						<rect x="-49.3" y="92.2" class="st2" width="300" height="72"/>
						<rect x="-49.3" y="164.2" class="st3" width="300" height="72"/>
						<rect x="-49.3" y="236.2" class="st4" width="300" height="72"/>
					</g>
				</g>
			</g>
		</g>
	</g>
</g>
</svg>
