<svg xmlns="http://www.w3.org/2000/svg" xmlns:xlink="http://www.w3.org/1999/xlink" viewBox="0 0 245.94 325.98"><defs><style>.cls-1{fill:none;}.cls-2{fill:#792221;}.cls-3{clip-path:url(#clip-path);}.cls-4{fill:#0e8541;}.cls-5{fill:#fff;}.cls-6{fill:#d33135;}</style><clipPath id="clip-path"><path id="beer" class="cls-1" d="M29.69,97.61V293.13a454.58,454.58,0,0,0,72.52,5.74,461.47,461.47,0,0,0,73.06-5.76V97.61Z"/></clipPath></defs><g id="圖層_2" data-name="圖層 2"><g id="event"><g id="mug_it"><path id="glass" class="cls-2" d="M205.26,135h-2.88V120.23h0V68.16H2.57v63.48h0V309.25a7.6,7.6,0,0,0,5.8,7.38C9.94,317,47.43,326,102.21,326s92.76-9,94.35-9.34a7.61,7.61,0,0,0,5.82-7.39V242.42h2.88c22.81,0,40.68-13.41,40.68-30.53V165.53C245.94,148.4,228.07,135,205.26,135Zm-103,175.8a450.54,450.54,0,0,1-84.44-7.69V155.33h0v-72H187.18v70.49h0V303.09A457,457,0,0,1,102.21,310.79Zm128.54-98.9c0,8.17-11.91,15.34-25.49,15.34h-2.88v-77h2.88c13.58,0,25.49,7.16,25.49,15.34Z"/><path id="foam" class="cls-2" d="M2.57,68.16H15.41A28.37,28.37,0,0,1,14.83,62C15,46.29,30.26,43.37,39.31,43a7.45,7.45,0,0,0,6.74-4.91c3.86-11.19,20.61-23.71,37.23-23.71,13.27,0,25.22,5.78,31.19,15.09a7.4,7.4,0,0,0,5.07,3.3,7.69,7.69,0,0,0,5.89-1.51A30.1,30.1,0,0,1,144,25.13c12.61,0,23.68,7.35,26.3,17.46A7.3,7.3,0,0,0,176.51,48c7.76,1,13.62,6.56,13.62,12.85a11.2,11.2,0,0,1-2.85,7.34h15.09v3.6A24.57,24.57,0,0,0,205,60.82c0-12.16-8.7-22.6-21.73-26.17C177.29,20.3,161.64,10.72,144,10.72A46.31,46.31,0,0,0,122.45,16C113.11,6,98.57,0,83.28,0c-19.5,0-41,12.67-49.34,29C12.92,31.28.25,43.49,0,61.78-.07,67.28,2.57,68.16,2.57,68.16Z"/><g class="cls-3"><g id="flag_italy_square"><rect class="cls-4" x="15.66" y="92.16" width="56.67" height="216"/><rect class="cls-5" x="72.33" y="92.16" width="56.67" height="216"/><rect class="cls-6" x="129" y="92.16" width="56.67" height="216"/></g></g></g></g></g></svg>