<svg xmlns="http://www.w3.org/2000/svg" xmlns:xlink="http://www.w3.org/1999/xlink" viewBox="0 0 162.1 200"><defs><style>.cls-1,.cls-4{fill:#fff;}.cls-2{mask:url(#mask);}.cls-3{fill:#792221;}.cls-4{fill-rule:evenodd;}</style><mask id="mask" x="117.63" y="72.8" width="24.93" height="122.56" maskUnits="userSpaceOnUse"><path class="cls-1" d="M142.34,101.37c-1.18-7-7.65-13.65-6.36-21,1.32-7.55-10.24-10.79-11.57-3.19a27,27,0,0,0,1.37,14.58c.59,1.57,5.63,12.63,5.18,12.81a6.67,6.67,0,0,0-3.21,9.3l-.15.26a2.55,2.55,0,0,0-.32,1.54,9.71,9.71,0,0,0-2.81.81,9.43,9.43,0,0,0-4.22,4.4,2.5,2.5,0,0,0,4.32,2.52,15.12,15.12,0,0,1,.9-1.49,5.71,5.71,0,0,1,.55-.55,7.83,7.83,0,0,1,.79-.47,7.61,7.61,0,0,1,1-.28,6.17,6.17,0,0,1,.86,0,4.89,4.89,0,0,1,.64.14,2.55,2.55,0,0,0,3.08-1.75,2.64,2.64,0,0,0-.55-2.3l0,0,0-.06a5.64,5.64,0,0,0,2.2-.46C140.33,113.57,143.46,108.08,142.34,101.37Z"/><path class="cls-1" d="M129.44,135.1c-2.58-4.26-7.82-3.25-10.13-.22a5.61,5.61,0,0,0-.86,6.92c4,7,4.28,14.18,4.25,22.09q0,7.47-.07,14.93a7.29,7.29,0,0,1-1.13,1.47c-3.08,3.11-1.7,7.18,1.08,9.13v.15c0,7.72,12,7.73,12,0q0-4.4,0-8.79a32.78,32.78,0,0,0,1.05-8,4.65,4.65,0,0,0,3.43-4.17C140.93,156,135.81,145.59,129.44,135.1Z"/></mask></defs><g id="圖層_2" data-name="圖層 2"><g id="event"><g id="pipi_balloon"><g class="cls-2"><path id="Path_34153" data-name="Path 34153" class="cls-3" d="M132,75c-2.82,11.43,5.43,22.49,2.14,34-1.53,5.35-4.82,9.95-6.79,15.13a20.15,20.15,0,0,0-1.42,8.12,30.45,30.45,0,0,0,1.8,8.22c2,5.85,4.72,11.61,4.5,17.93,0,1.06-1.7,1.06-1.66,0,.4-11.24-8.71-20.83-5.61-32.29,1.49-5.44,4.83-10.09,6.83-15.32,2.17-5.67,1.57-11.29.27-17.09-1.4-6.28-3.25-12.7-1.66-19.14.25-1,1.85-.59,1.59.44"/></g><path id="Path_34154" data-name="Path 34154" class="cls-3" d="M129.36,77.74h0s0,0,0,0l0,0m1.18-4.09.1-.09.06.07A5.13,5.13,0,0,1,132.05,76v0a5.09,5.09,0,0,1,.11,1.51,5.31,5.31,0,0,0-.71-.54,1.19,1.19,0,0,0-1.67.11,1.37,1.37,0,0,0-.2.29,2,2,0,0,1-.18.29,1.66,1.66,0,0,1-.21-.65,3.8,3.8,0,0,1,1.34-3.38Zm-21-64.08a30.56,30.56,0,0,1,52.16,21.61,51.63,51.63,0,0,1-10.23,28.74c-5.39,7.26-12.48,12.46-20.21,12.52a.73.73,0,0,0-.51.2l-.06.06a.7.7,0,0,0-.53-.29c-7.59-.42-14.51-5.77-19.74-13a51.7,51.7,0,0,1-9.83-28.2,30.45,30.45,0,0,1,9-21.61"/><path id="Path_34155" data-name="Path 34155" class="cls-3" d="M129.36,77.62c0-.29,0-.63,0-.88V77c0,.1,0,.16.11.23l.05,0,.07,0,.18.17a.49.49,0,0,1,0,.52c-.11.12-.07.05-.11.09s-.08,0-.1,0l0,0a.35.35,0,0,0,.05.11l.19.46,0,0L128.67,77a.81.81,0,0,1,.24-.28c0-.07.12.09.16.14a1.14,1.14,0,0,1,.15.23,1.33,1.33,0,0,1,.13.52v.21a1.34,1.34,0,0,0,.14.52,1.14,1.14,0,0,0,.15.23c.05,0,.15.21.17.13a1,1,0,0,0,.25-.29L129,76.78l0,0,.18.47c0,.09,0,.12,0,.11l0,0s0,0-.11,0,0,0-.11.08a.47.47,0,0,0,0,.52l.18.17.07,0,.06,0c.09.06.08.13.11.23v.25c0-.23,0-.59,0-.87Z"/><path id="Path_34156" data-name="Path 34156" class="cls-3" d="M130.64,73.67a.2.2,0,0,0,.08,0h-.18a1.65,1.65,0,0,1,.36,1.07,6,6,0,0,0,0,1,2.1,2.1,0,0,0,.39.81,2.71,2.71,0,0,1,.46,1l.63-.27c-.6-.26-.83-.8-1.67-1.14a1.62,1.62,0,0,0-1.46.21,2.37,2.37,0,0,0-.49.46,3.33,3.33,0,0,1-.25.28l1.77,0c.07.05,0-.29,0-.51a7.53,7.53,0,0,0,0-.8,7.22,7.22,0,0,1-.14-1,1.8,1.8,0,0,1,.1-.57,1.49,1.49,0,0,1,.14-.24.39.39,0,0,1,.08-.1l0,0,0,0h0c0-.06,0,.12,0-.13a.06.06,0,0,1,0,.06m-.21,0a.06.06,0,0,0,0,.06.88.88,0,1,0,0-.12h0l0,0-.06,0-.12.09a2.26,2.26,0,0,1-.26.16l-.58.32a2.85,2.85,0,0,0-1.06,1,3,3,0,0,0-.35,1.41,2.92,2.92,0,0,0,.53,1.66l1,1.58.73-1.54.21-.44,0-.22c0-.1,0-.22.1-.33a.7.7,0,0,1,.66,0,2.14,2.14,0,0,1,.63.49l.42.52.21-.78c.1-.38.29-.79.39-1.24a1.93,1.93,0,0,0-.17-1.31,2.18,2.18,0,0,0-1-.9,4.77,4.77,0,0,1-1-.62l-.1-.1-.08.09a.83.83,0,0,0-.11.15"/><path id="Path_34157" data-name="Path 34157" class="cls-3" d="M109.59,9.65A28.56,28.56,0,0,1,123.34,2a29.81,29.81,0,0,1,7.82-.77,31.48,31.48,0,0,1,28.89,22.31,30.44,30.44,0,0,1,1.18,7.76,37.25,37.25,0,0,1-.82,7.88,47,47,0,0,1-2.28,7.62A49.65,49.65,0,0,1,154.7,54a43.3,43.3,0,0,1-10,12.08,26.09,26.09,0,0,1-6.62,4,19.16,19.16,0,0,1-5.53,1.31l-.93,0h-.37l-.29,0a1.75,1.75,0,0,0-1,.6l1.61,0a1.7,1.7,0,0,0-1.29-.71l-.58-.06a9,9,0,0,1-1.16-.16,17.43,17.43,0,0,1-2.27-.54,20.43,20.43,0,0,1-4.3-1.91,31.71,31.71,0,0,1-7.34-6.07,55.78,55.78,0,0,1-12.65-25.84,32.45,32.45,0,0,1-.52-9.68,28.62,28.62,0,0,1,8.22-17.45m-.16-.16A32.44,32.44,0,0,0,100.33,27a40.24,40.24,0,0,0,2.24,19.89A54.05,54.05,0,0,0,106.83,56a46.28,46.28,0,0,0,6,8.2,32.24,32.24,0,0,0,8,6.41,23.16,23.16,0,0,0,4.78,2,25.06,25.06,0,0,0,2.54.56c.44.07.87.12,1.31.15l.65.06a.33.33,0,0,1-.24-.14l1.62,0a.35.35,0,0,1-.19.1h.34l1.06-.06a18.53,18.53,0,0,0,2.09-.33,20.13,20.13,0,0,0,4-1.27,26.93,26.93,0,0,0,6.92-4.48,45.66,45.66,0,0,0,9.83-12.85,58.58,58.58,0,0,0,5.59-15.09,42.41,42.41,0,0,0,1-8,31.46,31.46,0,0,0-.82-8.09A30.76,30.76,0,0,0,153.46,9,29.9,29.9,0,0,0,139.3.86a31.12,31.12,0,0,0-16.17.44,32.93,32.93,0,0,0-13.71,8.21"/><path id="Path_34161" data-name="Path 34161" class="cls-4" d="M135,6.15A22.64,22.64,0,0,1,155.68,24,29.58,29.58,0,0,1,147.15,53s16-28-12.15-46.83"/><path id="Path_34163" data-name="Path 34163" class="cls-3" d="M101.46,105.55a.5.5,0,0,0,.53-.47v0a.47.47,0,0,0-.46-.5.45.45,0,0,0-.35.13.5.5,0,0,0,0,.7.49.49,0,0,0,.32.16"/><path id="Path_34164" data-name="Path 34164" class="cls-3" d="M103.27,98.12c.18-1.53-3.18-2.28-4.13-1.26a.64.64,0,0,0-.12.89.61.61,0,0,0,.52.25,5,5,0,0,1,2.06.39c.36,1.08,1.57.64,1.67-.27"/><path id="Path_34165" data-name="Path 34165" class="cls-3" d="M93.15,98.5c-.79-.14-1,1.1-.28,1.33.41.13.89.28,1.18.11,3.18,0,4.4-2.62,3.22-4.26a5.09,5.09,0,0,0,1.89-2.19,3.79,3.79,0,0,0,5-5,.42.42,0,0,0-.78.27c.44,2.92-1.77,4.43-3.9,3.12-.33-1.2-1.91-1.41-2.13-.71a2.14,2.14,0,0,0,.78,1.68c-1,1.86-1.88,1.91-2.59,1.74a.6.6,0,0,0-.51,1.06,1.68,1.68,0,0,0,1.27.39c.72,1-.18,3-3.18,2.49"/><path id="Path_34166" data-name="Path 34166" class="cls-3" d="M86.35,96.51c-3.27.25-3.35,4.37-1.69,5.84a.48.48,0,0,0,.34.14c1,0,.07-2.15.23-3.18a1.4,1.4,0,0,1,1.52-1.25h.06a4.27,4.27,0,0,1,.59.05c-.77,0-1.22.46-1.13.9s.64.5,1,.47c1.6-.12,1.34.84,1.68,1.53a.63.63,0,0,0,.86.25.65.65,0,0,0,.29-.32,2.29,2.29,0,0,0-1.28-2.48,3.14,3.14,0,0,1,2,1.85.43.43,0,0,0,.56.22.44.44,0,0,0,.25-.34c.52-2.68-3.18-3.86-5.3-3.7"/><path id="Path_34167" data-name="Path 34167" class="cls-3" d="M90.53,102.58c.07-.26-.16-.48-.36-.66a.78.78,0,0,0-.93-.26c-1,.42-1.14,2.33-.41,2.72a2.25,2.25,0,0,0,.87.33c.74,0,1.34-.84.27-1.53A1.72,1.72,0,0,1,90,103a.66.66,0,0,0,.49-.38"/><path id="Path_34168" data-name="Path 34168" class="cls-3" d="M85.46,104.38c-.18.1-.16.34-.15.43.28,2.47,4.07,3.81,6,2.87a.71.71,0,0,0,.31-1,.74.74,0,0,0-.42-.36.77.77,0,0,0-.52,0,5.35,5.35,0,0,1-1.2.08,5,5,0,0,1-3-1.55c-.5-.42-.72-.62-1-.5"/><path id="Path_34169" data-name="Path 34169" class="cls-3" d="M101.46,103.39a.19.19,0,0,0,0-.08,1.06,1.06,0,0,0,.51-1.41,1,1,0,0,0-.13-.22,3.93,3.93,0,0,0-3.35-1.33,5.29,5.29,0,0,1-1,.24.34.34,0,0,0-.28.38.34.34,0,0,0,.32.28,4.22,4.22,0,0,1,2.22,1.4l-.31,1a.53.53,0,0,0-.15.36.38.38,0,0,0,0,.15.76.76,0,0,0,.07.47,1,1,0,0,0,1.42.19l0,0a1.47,1.47,0,0,0,.6-1.38"/><path id="Path_34170" data-name="Path 34170" class="cls-3" d="M100.34,105.25a.52.52,0,0,0-.49.3.52.52,0,1,0,.69-.26.45.45,0,0,0-.2,0"/><path id="Path_34171" data-name="Path 34171" class="cls-3" d="M102,126.52c-.67.12-.48,0-1-.31a.8.8,0,0,0-1.12.27.81.81,0,0,0-.11.55,1.81,1.81,0,0,0,2.91.86.79.79,0,0,0,0-1.13.82.82,0,0,0-.72-.24"/><path id="Path_34172" data-name="Path 34172" class="cls-3" d="M111,122.56c8.61,1.06,9.81,1.7,9.93,1.23.06-.21-.15-.28-.3-.34A52.61,52.61,0,0,0,106,121c-2.35.21-3.25,1.16-3.39,1.68a.43.43,0,0,0,.09.47.39.39,0,0,0,.46,0c2.3-1.29,3.94-1,7.83-.54"/><path id="Path_34173" data-name="Path 34173" class="cls-3" d="M78.45,110.28a4,4,0,0,0,4.12-4.88.41.41,0,0,0-.54-.2.39.39,0,0,0-.23.32,4.53,4.53,0,0,1-.64,2.21c-1.76,2.38-3.87,1-5,.26l-.08.12.08-.12c-.43-.29-.64-.42-.82-.29-.4.3.51,2.44,3.11,2.59"/><path id="Path_34174" data-name="Path 34174" class="cls-3" d="M105.8,106.64c.26-2.73-3.06-2.35-1.73-5.87a16.92,16.92,0,0,0,1.38-4c.22-2-1.42-3.47-2-2.76-.44.54.45.89.63,1.91.43,2.49-2.88,5.61-1,8.35.54.78,1.79,1.62,1.41,2.55a1.19,1.19,0,0,1-.75.78,2.18,2.18,0,0,0-1.15,2.87c0,.09.08.18.13.27a3.93,3.93,0,0,1-3.1-.08,11.22,11.22,0,0,0-1.09-1c-.26-.21-.47-.44-.81-.31a.68.68,0,0,0-.38.9.7.7,0,0,0,.19.26c.06.06.7.55,1.08.81.22.15.5.64.77.84s.61.28.67.8c.37,3.31-5.9,3.5-9,2.37a7,7,0,0,1-4.38-3.5c-.26-.7-.65-.36-.68-.09a4.53,4.53,0,0,0,1.37,3c-.52,0-1.16-.82-1.64-1.09-2.56-1.43-5.7-.64-5.61.35.06.74.89.71,1.57.65a9.65,9.65,0,0,1,5.64,1.6c3.07,1.93,7,1.64,10.35,3.18.43.19,3,2.18,3.28,1.54a.27.27,0,0,0-.12-.36c-1-.51-1.84-1.22-2.84-1.73l-.22-.12c-1.13-.57-2.28-1.09-3.43-1.63,2.7,0,6.19-.62,7-3.18,1.34-.16,1.72-1.28,1-1.58,1-.25,2.07-.79,2.22-1.38s-.8-.68-.73-1.49,1.82-1.26,2-2.84"/><path id="Path_34175" data-name="Path 34175" class="cls-3" d="M111.24,132.74a6.92,6.92,0,0,0-2.15-.44,1.87,1.87,0,0,1-1,0c-.87,0-1.74,0-2.58,0a2.25,2.25,0,0,1-1.73-.85c-1.11-.17-1.82-.33-1.84-.33a11.68,11.68,0,0,0-3.12.18,16.29,16.29,0,0,1-8.7-.45,9,9,0,0,0-4.86-.6c-2.69.64-2.35,1.93-1.48,2.09a13.23,13.23,0,0,1,6.88.73,15.23,15.23,0,0,0,8.49.05,6.74,6.74,0,0,1,3.28,0,11.73,11.73,0,0,0,2.5.32,36.79,36.79,0,0,0,6.45-.62l-.09,0"/><path id="Path_34176" data-name="Path 34176" class="cls-3" d="M101.91,86.56a.7.7,0,0,0,.64.27c3-.22,4.86.24,5.84,1.52l-.9-.24c-.73-.19-1.27.6-.56.87a5.25,5.25,0,0,1,1.75,1.76,2.37,2.37,0,0,1,.2,2,5.41,5.41,0,0,1-3.95,2.7c-.5.21-.68.66-.39,1a1.12,1.12,0,0,0,.9.38c3.59-.49,6-3,5.27-5.57a3.89,3.89,0,0,0-.58-1.24.86.86,0,0,0,.32-.15c1.09-.9-1.54-5.17-7.13-4.37a2.54,2.54,0,0,0-1.06.45c-.24.14-.51.29-.34.58"/><path id="Path_34177" data-name="Path 34177" class="cls-3" d="M75.57,84.83c-2.79-.39-4.36,3.56-1.68,5.91a5.91,5.91,0,0,0,3,1.42.48.48,0,0,0,.47-.49.5.5,0,0,0-.22-.4C75.73,90.5,74,89.69,73.75,88A1.53,1.53,0,0,1,76,86.23a.6.6,0,0,0,.83-.18.58.58,0,0,0,0-.57,2.12,2.12,0,0,1,3.49-2.23c.37.36,1-.06.76-.55-1.68-2.91,2.72-6.84,8.09-2.75a.26.26,0,0,0,.36-.07.26.26,0,0,0-.05-.34c-5.49-4.43-10-1.14-9.64,2.32a3.15,3.15,0,0,0-4.07,1.81,3.26,3.26,0,0,0-.21,1.16"/><path id="Path_34178" data-name="Path 34178" class="cls-3" d="M77.6,101.35a.52.52,0,0,0,.24-.68.53.53,0,0,0-.32-.27,3.41,3.41,0,0,1-3-2,2.94,2.94,0,0,1,1.27-3.3.38.38,0,1,0-.32-.68,3.65,3.65,0,0,0-2.18,4.67,3.59,3.59,0,0,0,.84,1.32,3.21,3.21,0,0,0,3.47,1"/><path id="Path_34179" data-name="Path 34179" class="cls-3" d="M45.84,60.38a7.12,7.12,0,0,1-.36-5.63.69.69,0,0,1,1.34.24,5.24,5.24,0,0,0,2,3.57,10.51,10.51,0,0,0,4.44,1.92,7,7,0,0,0,2.62.26,9,9,0,0,0,2.35-.91c1-.51,2.08-1,3.14-1.54a4.67,4.67,0,0,1-1.24,0,12.74,12.74,0,0,1-4.61-2.12,7.08,7.08,0,0,1-3.26-3.74c-.18-.59.76-.8.94-.21A6,6,0,0,0,56,55.27c.68.43,1.38.85,2.09,1.22a6.87,6.87,0,0,0,2.37.85,14.36,14.36,0,0,0,5-1.15,13,13,0,0,1,4.88-.27,13.1,13.1,0,0,1,5.25,1.88.43.43,0,0,1,.22.41,14,14,0,0,1,5.09,4,9,9,0,0,1,1.8,5,6.73,6.73,0,0,1-.4,2.59,3.16,3.16,0,0,1-1,1.51,5,5,0,0,1,.61,1.6,6.59,6.59,0,0,1,7.75,2.21,7.12,7.12,0,0,1,8.64.87c1,.92,2.23,2.55,1.92,3.79a6.06,6.06,0,0,1,5,5.46.3.3,0,0,1-.27.32h0a.28.28,0,0,1-.28-.24c-.85-4.6-6.83-5.95-6.7-2.89a.38.38,0,0,1-.38.38.37.37,0,0,1-.29-.14c-.85-1,0-3,2.32-2.93-.51-.82-2.7-5.9-8.26-4-.42.14-.8.34-1.25.46a.35.35,0,0,1-.14.4c-.41.19-1.07-1-1.43-1.35a5.52,5.52,0,0,0-7.8-.17,5.89,5.89,0,0,0-1.11,1.51,3.87,3.87,0,0,0-4.43-.12c-.77.57-1.5,1.46-1.11,2.34.22.45.85.37.92.86a.37.37,0,0,1-.12.46.8.8,0,0,1-1,.14,11.73,11.73,0,0,0-4.36,1.43.73.73,0,0,1,.06,1,.68.68,0,0,1-.36.22c-1.78.51-4.2,2.21-3.57,2.47.42.17,1-.24,1.4-.5.75-.48,1.52.53,1.09,1.19C65.36,90.4,63.45,94.19,67,98.19a.63.63,0,0,1-.57,1,2.71,2.71,0,0,0-1.63,1.13,2.64,2.64,0,0,0-.25,2.32c.68,2.33,2.91,2.75,3.67,3.25a.62.62,0,0,1,.2,1.22c-1,.23-1.55,1.6-.44,2.07a1.38,1.38,0,0,0,1,0c.47-.13,1.08.37.64,1.12,1.51,2,3.78,1.07,3.24-.24a.4.4,0,0,1,.21-.52.38.38,0,0,1,.36,0c.61.37.87,1.13,1.3,1.57a3.47,3.47,0,0,0,3.67.9c.56-.43.67-.67.94-.61.21-.09.44.07.33.38,0,.46-.93,2.1-3.43,2a4,4,0,0,1-2.31-.91c-1.55,1.32-5.32,0-5.38-2.25A2.41,2.41,0,0,1,66,108.39a2.44,2.44,0,0,1,.41-1.53c-4.24-1.91-4.23-6.68-1.31-8.35a4.62,4.62,0,0,1-1.27-1.87,10.39,10.39,0,0,1,1.65-9.55c-1.64-.26-3.11-2.38,1-4.6.1-1,3.8-2.8,6.37-3-1-1.56.13-3.5,2.06-4.31a.76.76,0,0,1-.21-.23,3.23,3.23,0,0,1-.52-1.81.48.48,0,0,1-.27-.52,1.53,1.53,0,0,0-.89-1.52,4.34,4.34,0,0,0-2.36-.27,17,17,0,0,0-5.06,1.27c-1.52.66-2.93,1.56-4.46,2.19a8.29,8.29,0,0,1-5,.55,5.27,5.27,0,0,1-3.74-3.28.58.58,0,0,1,.24-.61.59.59,0,0,1,.64,0,4.33,4.33,0,0,0,3.26.14c-.18,0-.37,0-.55,0a29,29,0,0,1-4.25-.62,7.92,7.92,0,0,1-5.49-4.85,11.55,11.55,0,0,1-.77-4.69.52.52,0,0,1,.33-.49M77,74.77l-.47-.25-.2,0a.5.5,0,0,1-.27,0,.63.63,0,0,1-.05.3,4.73,4.73,0,0,1,1-.08m2.51-.09a2.27,2.27,0,0,1-.78.42h0l.34.15c.14-.2.29-.39.45-.58M46.5,58a5.5,5.5,0,0,0,.9,2.36,9,9,0,0,0,3.9,2.86,16.37,16.37,0,0,0,9.52,1.08,15.8,15.8,0,0,0,5.1-1.9c.76-.45,1.39.77.63,1.22a17.57,17.57,0,0,1-15.57,1,11.37,11.37,0,0,1-4.3-2.9,8.67,8.67,0,0,0,2.24,5.9,6.28,6.28,0,0,0,2.92,1.68,23.38,23.38,0,0,0,3.82.61A9.58,9.58,0,0,0,60,69.48c.64-.23.95.77.4,1.08a10,10,0,0,1-6.1,1.83,4.61,4.61,0,0,0,2.62,1.39,8,8,0,0,0,4.8-1A46.5,46.5,0,0,1,66.3,70.6a15.91,15.91,0,0,1,5.24-1,4,4,0,0,1,2.65.84,2.64,2.64,0,0,1,1,1.93,3.56,3.56,0,0,0,1.91-.49,22,22,0,0,0,2-.91,5.14,5.14,0,0,1,.87-.46.72.72,0,0,1,.34-.19c.53-.12.74-1,.86-1.41a5.5,5.5,0,0,0,.15-2.06,7.73,7.73,0,0,0-1.62-3.94,12.5,12.5,0,0,0-3.55-3,20.47,20.47,0,0,0-4.46-1.91,10.33,10.33,0,0,0-4.88-.24,19.44,19.44,0,0,0-4.45,1.56c-1.49.68-2.92,1.46-4.4,2.13a6,6,0,0,1-2.66.65,12.47,12.47,0,0,1-2.58-.39,11.17,11.17,0,0,1-5-2.36A6.75,6.75,0,0,1,46.52,58"/><path id="Path_34180" data-name="Path 34180" class="cls-3" d="M75.77,73.91v0a1.8,1.8,0,0,1-.08-.21h.11a.49.49,0,0,0,0,.21"/><path id="Path_34181" data-name="Path 34181" class="cls-3" d="M36.89,140.86c-.12-.41-.77-.37-.76.08.43,14,16.81,23.88,24.59,22.27a.42.42,0,0,0,.3-.52.45.45,0,0,0-.25-.29c-2.76-.87-7.05-.94-12.21-4.23A27.59,27.59,0,0,1,37.15,142c-.08-.4-.15-.79-.26-1.18"/><path id="Path_34182" data-name="Path 34182" class="cls-3" d="M17.91,195.8c-1.49.17-1.88,2.32-1.13,2.27a.33.33,0,0,0,.33-.33,1.32,1.32,0,0,1,.95-1.29.33.33,0,0,0-.15-.64"/><path id="Path_34183" data-name="Path 34183" class="cls-3" d="M56.82,181.75a.12.12,0,0,0,0-.17.05.05,0,0,0,0,0,1.18,1.18,0,0,1,.07.2"/><path id="Path_34184" data-name="Path 34184" class="cls-3" d="M56.33,181.36c-.43,0-.93.51-1.18.8a8,8,0,0,1-1.94,1.44,15.53,15.53,0,0,1-2.91,1.24,28,28,0,0,1-3.16.36c-.79.14-1.55.39-2.34.53-2,.37-4,.56-6,.75A19.2,19.2,0,0,0,28,190c-4.57,3.77-6.43,3.9-8.55,6.76-.24.32-.68.41-.87.74a6.45,6.45,0,0,0-.42.64c-.23.5.32,1,1,.34a17.5,17.5,0,0,1,4.61-4.09c6.21-2.89,2.74-5.43,15-6.65a51.58,51.58,0,0,0,5.94-.76c1.47-.32,2.92-.7,4.41-.91a19.23,19.23,0,0,0,2.38-.46c.53-.14,1-.43,1.51-.58a5.72,5.72,0,0,0,3-2.14c.22-.28,1.09-1.46.33-1.5"/><path id="Path_34185" data-name="Path 34185" class="cls-3" d="M16.66,199.09c.32.41.05,1-.45.9s-.51-.4-.83-.85a4.56,4.56,0,0,1-.51-.85.4.4,0,0,1-.31.46.39.39,0,0,1-.28-.06,2.77,2.77,0,0,1-.94-2.62,3.43,3.43,0,0,1,1.27-2.15,5.15,5.15,0,0,1,.27-2.58c1-2.64,4.22-3.34,5.2-5.3a6.63,6.63,0,0,0,0-3.82c-.6-4,1.63-6,6.05-4.21a.5.5,0,0,1-.35.93c-2.53-.8-4.39-1-4.65,1.68-.21,2.11,1,4.15-.16,6.22-1.57,2.81-5.92,2.52-5,7.79.07.37.45.66.46,1.11,0,.7-.61.46-.76.6a2.68,2.68,0,0,0,.3,2.14c.18.28.49.34.73.64m-1.52-3.73c-.07-.12-.13-.23-.19-.36a2.24,2.24,0,0,0-.58,2.17,6.18,6.18,0,0,0,.43.9,3.38,3.38,0,0,1,0-1.58c.09-.41.23-.45.38-1.13"/><path id="Path_34186" data-name="Path 34186" class="cls-3" d="M21.81,185.2c-.12.2-.26.43-.11.6a.25.25,0,0,0,.2.09c.23.79.29,1.05.63,1.06a.4.4,0,0,0,.41-.29,6.52,6.52,0,0,0,.19-1c0,.27,0,.55.27.55.5,0,.74-1.75-.5-4.09a.26.26,0,1,0-.46.24c0,.1.09.21.13.3-.16-.15-.44,0-.37.26a7.2,7.2,0,0,1,.18,2.07.41.41,0,0,0-.56.14l0,0"/><path id="Path_34187" data-name="Path 34187" class="cls-3" d="M52,148c4.59,1.56,9.59,2.16,14,4.21.18.08.22,0,.37-.08l0-.12a26.19,26.19,0,0,0-6.82-3c-2.23-.75-4.53-1.37-6.75-2.15a23.59,23.59,0,0,1-10.42-6.58.45.45,0,0,0-.63,0,.44.44,0,0,0-.09.5c1.71,3.51,6.73,5.95,10.38,7.2"/><path id="Path_34188" data-name="Path 34188" class="cls-3" d="M.51,132.51a4.55,4.55,0,0,1,1.08-1,1.57,1.57,0,0,1,2,.13.34.34,0,0,0,.51-.46c-1.7-2-4.18-1.06-4.12,1.14a.28.28,0,0,0,.28.28.31.31,0,0,0,.23-.12"/><path id="Path_34189" data-name="Path 34189" class="cls-3" d="M1.22,130.06a.93.93,0,0,1,1-.52.41.41,0,0,0,.42-.36c.11-.74-1.56-.71-2.15.5a.43.43,0,1,0,.75.43l0-.05"/><path id="Path_34190" data-name="Path 34190" class="cls-3" d="M4.74,130.37a5.31,5.31,0,0,1,4.57-.77,6.19,6.19,0,0,0,5.12-.85c3.59-1.87,5.45-2.14,6.27,1.83a2.58,2.58,0,0,1,.42-.13,4.3,4.3,0,0,0-1.78-3.58,4.57,4.57,0,0,0-4.53.63,7.08,7.08,0,0,1-5.32,1.15,6.29,6.29,0,0,0-5.15,1c-.4.32,0,1.05.4.71"/><path id="Path_34191" data-name="Path 34191" class="cls-3" d="M11.62,130.25a.34.34,0,0,0-.26.33c0,.76,2.28.63,3.79-.46a.31.31,0,0,0,0-.44.33.33,0,0,0-.35-.1c-2,.75-2.16.54-2.33.57v0a3,3,0,0,0-.9.1"/><path id="Path_34192" data-name="Path 34192" class="cls-3" d="M18.88,135.2c.4.09.92-.56.75-1.27s-1.06-1.33-1.54-.79a.36.36,0,0,0-.1.31c.09.51,1,.28.66,1.06-.13.31-.09.62.23.69"/><path id="Path_34193" data-name="Path 34193" class="cls-3" d="M20.74,135.36c1.78,1.59,6,2,8.83,8.42.11.24.21.21.38.21.31-.69-1.21-4.19-4-6.53-2.47-2.05-5.71-2.41-5.37-5.28.05-.42-.36-.61-.67-.06a2.6,2.6,0,0,0,.87,3.25"/><path id="Path_34194" data-name="Path 34194" class="cls-3" d="M30.16,143.87c-.32.18,0,.43.53,2.22-.13-.3-.14-.3-1-2.07a8.87,8.87,0,0,1-.09,6.93c.35,0,.69.13,1-.61.23.18.62,0,.76-.94.23.5,1.11.42.63-2.09.22.38,1,.08,0-2.13-.42-.93-1.13-1.7-1.36-1.7h-.12c-.09.14-.16.22,0,.39a6.45,6.45,0,0,1,1.15,2.26,7.91,7.91,0,0,0-1.13-2.2.25.25,0,0,0-.31-.07"/><path id="Path_34195" data-name="Path 34195" class="cls-3" d="M32.61,175.21c-2.76,1.84-5.39,4.54-5.18,5a.45.45,0,0,0,.58.25l.14-.08c.29-.26.65-.46,1-.75a22.52,22.52,0,0,1,10.27-6.32,10.07,10.07,0,0,1,4.37,0,.56.56,0,0,0,.42-.16l.17-.25,0-.1v0l.06-.07,0-.07-.1-.17h0c-.48-.93-6-1.2-11.71,2.6"/><path id="Path_34196" data-name="Path 34196" class="cls-3" d="M89.88,137.35a40.19,40.19,0,0,1-3.82,5.43,34.1,34.1,0,0,1-8.87,7.58,31.91,31.91,0,0,1-5.25,2.49q-.48.18-1,.33a15.63,15.63,0,0,0-.71-1.75c-6-5.75-15.88-6.58-21.17-12.41a10.27,10.27,0,0,1,4.21-2c.53-.16.71-.17.73-.38a.23.23,0,0,0-.13-.23,7.36,7.36,0,0,0-5.44,1.9,13.53,13.53,0,0,1-2.67-5.88.71.71,0,0,0-.08-.18,3.75,3.75,0,0,1,.8-.2.35.35,0,0,0,.3-.41.35.35,0,0,0-.32-.31l-.39,0a8.1,8.1,0,0,0-8.78,7.38,5.35,5.35,0,0,0,0,.8,14.46,14.46,0,0,0-3.6.24c-4.8,1-3.32,1.86-3,1.78a24.76,24.76,0,0,1,3.14-1,47.75,47.75,0,0,0,5.55,18,32.46,32.46,0,0,1-17.76-5.09c-6.17-5.72-4.58-16-10.4-17.85-3.05-1-7.21-4.21-11-2.33h0a.3.3,0,0,0-.16.35.33.33,0,0,0,.3.27c3.33.11,3.56.21,9.49,2.92s2.8,4,8.25,15c2.32,4.67,12.94,8.62,21.76,8.35l-.07-.17h.39A34.84,34.84,0,0,0,43,164c-.9,3-.63,7.44.35,7.72,1.63.47-.13-2.24.64-6.53a30.89,30.89,0,0,0,15.19,9.64c.29-.55.37-.69.65-1.21-12.78-3.07-21.15-15-24.3-28-.7-2.87-.85-4.34-1.13-5.32a13.49,13.49,0,0,1,2.91-.13,1.22,1.22,0,0,0,1.43,1,1.49,1.49,0,0,0,.37-.14c.31-.25.33-.7.35-1.33a7.28,7.28,0,0,1,2.83-5.78,9.22,9.22,0,0,1,2.55-1.41,6.61,6.61,0,0,0,.26,2.46,13,13,0,0,0,2.3,4.2,2.68,2.68,0,0,0-.92,1.43.44.44,0,0,0,.18.39c.44.3.94-.51,1.42-1.06,6.55,6.91,16,6.1,22.69,13.27-.56.18-1.13.35-1.71.5s-.95.21-1.43.35a3.79,3.79,0,0,0-1.41.54.58.58,0,0,0-.14.82.66.66,0,0,0,.24.2c-.22.81-.36,1.65-.54,2.48s-.43,1.95-.73,2.89-.6,1.61-.88,2.43-.55,1.63-.85,2.44c-.6,1.63-1.22,3.24-1.91,4.83a61.19,61.19,0,0,1-4.93,9.16c-.45.68.57,1.45,1,.76,1.09-1.67,2.1-3.4,3-5.17a52.92,52.92,0,0,0,4.06-9.82,25,25,0,0,0,.66-2.58c.16-.87.3-1.73.48-2.59s.34-1.74.48-2.61a15.94,15.94,0,0,0,.27-2.16,3.92,3.92,0,0,0,1.77-.08c.58-.12,1.16-.27,1.73-.43a30,30,0,0,0,3.19-1.09,33,33,0,0,0,10.28-6.6,27.76,27.76,0,0,0,6.81-9.94.21.21,0,0,0-.1-.3.23.23,0,0,0-.31.09h0"/><path id="Path_34197" data-name="Path 34197" class="cls-3" d="M18,95.68c-.85-1-2.07-2.42-1.73-3.81a1.58,1.58,0,0,1,1.27-1.25,2.83,2.83,0,0,1,1.94.7,69.59,69.59,0,0,0,9.72,5.35,21.07,21.07,0,0,1-4.79-3.61,8.18,8.18,0,0,1-1.91-2.72,11.14,11.14,0,0,1-.67-3.22.31.31,0,0,1,.11-.26,12.4,12.4,0,0,1-2.22-2.76c-.66-1-1.57-2.36-1.09-3.65a1.72,1.72,0,0,1,1.16-1.08,2.6,2.6,0,0,1,1.88.43c3.46,1.88,7,4,10.61,6.3A19.84,19.84,0,0,1,28.8,75a.5.5,0,0,1,.53-.48.55.55,0,0,1,.32.14c4.5,4.06,8.56,8.22,14,12.47,1.55,1.21,3.18,2.35,4.76,3.51,10,7.32,9.52,9.72,14.66,17.63a17.65,17.65,0,0,0,8.7,7.74.56.56,0,0,1,.35.71v0a.52.52,0,0,1-.64.35h0c-5.75-2-8.78-7.15-11.72-12.17a35.28,35.28,0,0,0-6.3-8.65C48.51,91.61,42.57,89.4,29.7,76.12a17.09,17.09,0,0,0,4.07,10.94c5.12,3.37,8.61,6,13.44,9.58a.39.39,0,0,1,.14.54.4.4,0,0,1-.55.14,35.88,35.88,0,0,1-13.28-9.57C27.8,84.06,23.22,81.6,22,80.87c-1.06-.64-1.76-1-2.28-.66-1.54,1.11,2,4.46,3.43,5.71,2.89,2.52,4.15,2.4,3.79,3.25a.62.62,0,0,1-.57.39v0a37.59,37.59,0,0,1-3.74-1.91,6.15,6.15,0,0,0,1.33,2.57,16.85,16.85,0,0,0,5.88,5.09,37.3,37.3,0,0,0,15.88,5.16,26.44,26.44,0,0,0,3.67.28.47.47,0,0,1,.45.47.46.46,0,0,1-.46.45c-1.17,0-2.37.12-3.55.08a37.69,37.69,0,0,1-11-2.41c-.62.77-11.23-3.88-15.55-7.13-.53-.39-1.26-.94-1.76-.7-1.16.56.41,2.65,1,3.5a20.08,20.08,0,0,0,7.86,6.37,74.3,74.3,0,0,1,10.42,2.22.62.62,0,0,1,.63.58.61.61,0,0,1-.58.63,23,23,0,0,1-10.41-2.32c-4.7-.72-6.1-.87-6.83-.33-.26.2-.6-.18-.34-.4,1.33-1.09,2.21-1,4.65-.74A25.77,25.77,0,0,1,18,95.68m17.63-6.54A32.77,32.77,0,0,0,43.5,94.7c-2.38-1.81-5-3.65-7.85-5.56"/><path id="Path_34198" data-name="Path 34198" class="cls-3" d="M19.17,102.9a0,0,0,0,0,0,0l0,0h0a0,0,0,1,0,0,0"/><path id="Path_34199" data-name="Path 34199" class="cls-3" d="M19.33,103l-.1.09h-.06a.17.17,0,0,1-.16-.18v-.07l.1-.09h.06a.17.17,0,0,1,.16.18Zm-.15-.21a.13.13,0,0,0-.14.12.13.13,0,0,0,.13.13.13.13,0,0,0,0-.25"/><path id="Path_34200" data-name="Path 34200" class="cls-3" d="M21,104.7a.22.22,0,0,0,.21-.2.22.22,0,0,0-.1-.18,3.76,3.76,0,0,1-1.51-1.25.2.2,0,1,0-.33.21A3.16,3.16,0,0,0,21,104.7"/><path id="Path_34201" data-name="Path 34201" class="cls-3" d="M74.58,133.45c2.51,3.22,7.76-2.61,6.92-7.87a.43.43,0,0,0-.48-.37.42.42,0,0,0-.36.46.64.64,0,0,1,0,.07c.46,5.57-4.35,9.37-5.39,6.39a8,8,0,0,0,.63-2.55c0-.27.07-.56.12-.84a.39.39,0,0,0-.24-.46.42.42,0,0,0-.53.17A5.62,5.62,0,0,0,74,132.23c-1.57,2.48-3.35,2.67-3.78,1.38a3.77,3.77,0,0,1,.69-2.79c.32-.6-.58-1.23-1-.66l-.08.11a8.86,8.86,0,0,1-4.46,3.37,12.63,12.63,0,0,0,3.44-6,4.48,4.48,0,0,0,2.94-1.11,2,2,0,0,0,1.78,1.43c1.78,0,3.82-2.39,3.91-3.88a.19.19,0,0,0-.11-.18c-.14-.07-.26,0-1.12,1-.67.78-2.05,2.31-3,1.78a1.15,1.15,0,0,1-.32-1.39,6.25,6.25,0,0,0,.62-1.06.57.57,0,0,0-.25-.78.59.59,0,0,0-.74.19,5.68,5.68,0,0,1-2.71,2.5c-1,.43-1.69.21-1.68-.42a3.65,3.65,0,0,0,1-1.62.52.52,0,0,0-.36-.63.51.51,0,0,0-.57.22,5.82,5.82,0,0,1-1.27,1.44,3.69,3.69,0,0,1-3.65.46c-.72-.29-1.51-.57-1.47-1.65a3.33,3.33,0,0,0,.36-.46c.22-.37-.19-.55-.61-.38-.67.28-1.34.59-2,.82-.91.31-2.7.76-3.33,0a1,1,0,0,1-.21-.78,3,3,0,0,1,1.23-1.75l.09-.08a.57.57,0,0,0,.08-.8v0a.66.66,0,0,0-.92-.1c-1.27,1-3,1.94-4.19.87a2.42,2.42,0,0,1-.16-3,2.7,2.7,0,0,0,.87-1.16.51.51,0,0,0-.21-.62.57.57,0,0,0-.72,0,7.49,7.49,0,0,0-.79.9,4.24,4.24,0,0,1-3.13-.15c-1.5-.69-1.36-2.3-.49-2.63.66-.24.25-1.32-.41-1.11a1.94,1.94,0,0,0-.36.15,8.26,8.26,0,0,1-2.27-.17,5.83,5.83,0,0,1-2.16-1c-1.51-1.2-1.22-2.52-.42-2.84H43a.64.64,0,0,0,.6-.67.63.63,0,0,0-.42-.56,2.14,2.14,0,0,0-.91-.07c-3.13-.37-3.4-3.09-2.14-3.86a5,5,0,0,1,2.28-.46c.14,0,.47,0,.51-.32a.34.34,0,0,0-.24-.37c-3.5-1.13-4.82,1-4.71,2.8a3.62,3.62,0,0,0,2.77,3.22c-1.27,2,.66,5.38,5.24,5.48-1.06,2.44,1.66,4.63,4.7,4.11A3.18,3.18,0,0,0,55,122.8a2,2,0,0,0,0,.24c-.19,1.62,1.09,3.22,4.67,2.07a9,9,0,0,0,1.3-.51,2.21,2.21,0,0,0,1,1.63,27.9,27.9,0,0,1-1.88,2.45c-.85,1-1.81,1.89-2.63,2.91a.34.34,0,0,0,.45.48,22,22,0,0,0,4.8-5.43,5.17,5.17,0,0,0,4.64-.33,1.61,1.61,0,0,0,.58.92,22.64,22.64,0,0,1-3,6,.31.31,0,0,0,.1.43.09.09,0,0,0,.06,0c-1.54.28-2.55-.71-2.49-1.61.17-.19.33-.39.49-.58.38-.47.71-.72.48-1.11-.39-.67-1.69-.06-2.07,1.24-2.14,1.67-5.64,2.43-5.95.31a4.5,4.5,0,0,1,1-2.87c.43-.65-.58-1.29-1.06-.75-1.37,1.53-3,3-4.92,2.48a1.94,1.94,0,0,1-1.47-1.4,3.29,3.29,0,0,1,.82-2.26c.13-.16.25-.33.37-.5a.73.73,0,0,0-.16-1,.61.61,0,0,0-.85.07l0,0c-.17.22-.38.48-.57.75-4.11,4.88-8.87,1.16-6.85-1.7a13.29,13.29,0,0,0,2.9-1.62.56.56,0,0,0,.2-.71.57.57,0,0,0-.68-.32,6.7,6.7,0,0,0-2.9,1.37,2.49,2.49,0,0,0-.81.59c-4.62,1.56-7.83.59-4.69-2.27A15.5,15.5,0,0,0,41,120.47a.64.64,0,0,0-.09-1.22,7.24,7.24,0,0,0-5.49,1.39,15.23,15.23,0,0,1-4.1-.11A2.17,2.17,0,0,1,30,120c-1-1,.45-2.55,1.65-3.25a18.3,18.3,0,0,0,5.59-.88.65.65,0,0,0-.07-1.25,7.51,7.51,0,0,0-5.42.89,14.13,14.13,0,0,1-8.68-2.15,1,1,0,0,1-.14-1.39,1,1,0,0,1,.36-.28,15.28,15.28,0,0,1,4.73-.88,23.82,23.82,0,0,0,6.94.6.49.49,0,0,0,.44-.52.48.48,0,0,0-.37-.43,26.53,26.53,0,0,0-7.7-.52A22.41,22.41,0,0,1,21,107.54a.24.24,0,0,0-.3.14.24.24,0,0,0,.09.27,28.48,28.48,0,0,0,4.84,2.19c-1.43.19-3,.46-3.66,1.53-1.74,2.93,4.73,4.76,8.2,5-1.88,1.8-1.76,3.86.76,4.8a8.68,8.68,0,0,0,2.43.38l.86,0a2.28,2.28,0,0,0-.53,1.41c.15,2.51,3.78,2.62,6.22,2.09-1.1,4.08,3.77,6.74,7.8,3.94.16,2.37,3.32,4.16,6.48,2-.36,3.37,3.71,4.36,7.35,1.71.63,1.82,3.8,2.91,7.28-.29-.3,2.77,3.1,4.85,5.79.66"/><path id="Path_34202" data-name="Path 34202" class="cls-3" d="M51.54,101.13a11,11,0,0,0,1.52,2,1.32,1.32,0,0,0-.52,1.78A6.73,6.73,0,0,0,55,107.42c-1.4,1.56.75,4,3.56,4.29a2.06,2.06,0,0,0,.13,2.16,4.28,4.28,0,0,0,5.58.59.35.35,0,0,0,.13-.48.39.39,0,0,0-.31-.18c-.79,0-1.54.34-2.31.35-1.65,0-2.54-1.07-2.42-1.87a1.29,1.29,0,0,1,.27-.58,4.5,4.5,0,0,0,1.09-.23c.53-.18.57-1.31-.89-.83a4.92,4.92,0,0,1-2.71-.58c-2-1.11-1.28-2.17-.87-2l.08,0a.54.54,0,0,0,.7-.3h0a.54.54,0,0,0-.2-.72h0a6.67,6.67,0,0,1-2.55-1.74c-.19-.21-.87-.89-.71-1.18s1,.28,1.19.45c.51.37,1.15-.42.67-.83-.11-.09-.29-.23-.47-.35-.7-.57-1.2-1.38-1.91-1.91a1.32,1.32,0,0,1-.56-1.77c.23-.66-.65-1-1.2-.48h0c-.52.54,0,1.4.28,1.88"/><path id="Path_34203" data-name="Path 34203" class="cls-3" d="M72.67,122.07c1.17-2.35,0-3.31-.2-2.76-.41.89.21,1.7-1.56,3.48-.73.74-.77.83-.68,1,.2.38,1.57,0,2.44-1.72"/><path id="Path_34204" data-name="Path 34204" class="cls-3" d="M69.86,119.57c.19-.43-.43-.76-.63-.34a13.26,13.26,0,0,1-4,4.56.26.26,0,0,0,0,.36.26.26,0,0,0,.2.1,8.54,8.54,0,0,0,4.43-4.68"/><path id="Path_34205" data-name="Path 34205" class="cls-3" d="M59.84,121c-1,.43-1.29.55-1.19.89a.3.3,0,0,0,.3.21c2.83-.23,7-4.51,6.22-5-.31-.22-1,.61-1.17.89a10.66,10.66,0,0,1-4.16,3.06"/><path id="Path_34206" data-name="Path 34206" class="cls-3" d="M50,111.24a4.39,4.39,0,0,0,2.67-2.12.31.31,0,0,0-.14-.42.31.31,0,0,0-.39.09,8.2,8.2,0,0,1-2.3,2,.22.22,0,1,0,.16.4"/><path id="Path_34207" data-name="Path 34207" class="cls-3" d="M50,108.88a4.42,4.42,0,0,1-2.29,1.67c-.21.07-1.41.14-1.55.58-.33,1,2.83.62,4.24-2a.25.25,0,0,0-.11-.32.23.23,0,0,0-.29.07"/><path id="Path_34208" data-name="Path 34208" class="cls-3" d="M45.83,109.92c-.46.19-1.1.35-1.39.84a.35.35,0,0,0,.13.48.3.3,0,0,0,.16.05c.58,0,.6-.2,3-1.59a.3.3,0,0,0,.13-.41h0c-.22-.43-.61,0-2,.63"/><path id="Path_34209" data-name="Path 34209" class="cls-3" d="M33.6,91.57c-2.37-1.56-4.61-3.37-6.91-5a.33.33,0,0,0-.45.1.32.32,0,0,0,0,.4,61.3,61.3,0,0,0,19,11.24.21.21,0,0,0,.27-.13c.09-.22-.14-.28-.33-.37A79.44,79.44,0,0,1,33.6,91.58"/><path id="Path_34210" data-name="Path 34210" class="cls-3" d="M40.18,81.37a21.16,21.16,0,0,1-1.71-5.87,5.09,5.09,0,0,1,1.37-3.88C41,74.85,39.9,78.19,52.2,91a32.2,32.2,0,0,1,5.47,6.62c.63,1,1.31,2.09,1.91,3.19a.21.21,0,0,0,.29.09.22.22,0,0,0,.1-.29h0a28.83,28.83,0,0,0-4.41-6.62c-5.38-7-9.41-9.41-13-16.52a16.68,16.68,0,0,1-2-5.7,8.61,8.61,0,0,0,0-.89.46.46,0,0,0-.67-.4c-2.83,1.48-4.36,5.82-.53,11.27.28.4,1,.18.83-.34"/><path id="Path_34211" data-name="Path 34211" class="cls-3" d="M132.51,130.31l.05.14-.05-.14c.36-.15-.18-.89,0-1.66.23-1.18,1.41-1.06,1.49-1.57a.59.59,0,0,1,.62-.55.61.61,0,0,1,.52.4c.21.43,0,1.18-1,1.65-.45.22-.47.27-.36.8.29,1.36.05,1.75-1.12,2.42a.68.68,0,0,1-.95-.19.66.66,0,0,1-.11-.24c-.18-.6.6-.92.93-1.06"/><path id="Path_34212" data-name="Path 34212" class="cls-3" d="M120,132.12a20.37,20.37,0,0,0-4.59.82,24.91,24.91,0,0,1-12,.35,6.07,6.07,0,0,0-4.16-.12,15.25,15.25,0,0,1-8.42,0,13.18,13.18,0,0,0-6.84-.68c-.85-.15-1.2-1.44,1.47-2.09a8.92,8.92,0,0,1,4.82.56,16.13,16.13,0,0,0,8.63.39,11.52,11.52,0,0,1,3.1-.21,37.51,37.51,0,0,0,9.34.67c2.63-.21,3.93-.65,6.93-.8a19,19,0,0,1,3-.47,14.91,14.91,0,0,1,2.69.67,13.76,13.76,0,0,0,5.74.5,1.75,1.75,0,0,1,1.15-.06c.59.32.45.95-.09,1.31a3.59,3.59,0,0,1-1.94.28c-3.67-.13-3.76-.78-8.79-1.14"/><path class="cls-3" d="M135.65,119.49a1.62,1.62,0,0,0-1.48-.86,6.46,6.46,0,0,0-1.62.7c-.56.27-1.12.56-1.69.81a4,4,0,0,1-1.61.27,7.3,7.3,0,0,0-.94.07,2.82,2.82,0,0,0,.08-2.33A2,2,0,0,0,127,117a1.3,1.3,0,0,0-1.51.82,3.66,3.66,0,0,1-.46.93,5.28,5.28,0,0,1-1,.81c-.79.57-1.7,1.06-2.07,2a4.09,4.09,0,0,0-.24,1.55.69.69,0,0,0,.3.68.71.71,0,0,0,1.08-.69c-.35-2.15,2-2.24,2.94-3.53a1.61,1.61,0,0,0,.39-1.45c0-.07.08-.16.17-.17a.26.26,0,0,1,.15,0,1.13,1.13,0,0,1,.69.66,2.47,2.47,0,0,1-.54,2.18,6,6,0,0,0-2.89,2.43.68.68,0,0,0,.23.94.7.7,0,0,0,.81-.08l0,0a4.28,4.28,0,0,1,1.44-1.55,18,18,0,0,1,4.88-1.33,9.37,9.37,0,0,0,1.52-.59c.31-.15.64-.26.94-.43.13-.06.26-.21.39-.16s.26.31.33.41a4.35,4.35,0,0,1,.75,2,2.41,2.41,0,0,1-.77,1.87c-.31.22-1.56.42-1.71,1-.11.39.41,1,1.39.77a3.54,3.54,0,0,0,2.35-2.55A4.77,4.77,0,0,0,135.65,119.49Z"/><g id="Group_1096" data-name="Group 1096"><g id="Group_1090" data-name="Group 1090"><path id="Path_8924" data-name="Path 8924" class="cls-1" d="M133.2,45.71a12.22,12.22,0,0,1-6.14-1.55,12.35,12.35,0,1,1-.27-21.44,12.35,12.35,0,1,1,6.41,23Zm-6.15-2,.11,0a11.93,11.93,0,1,0-.26-20.6.22.22,0,0,1-.21,0A11.93,11.93,0,1,0,127,43.75.19.19,0,0,1,127.05,43.72Z"/></g><g id="Group_1091" data-name="Group 1091"><path id="Path_8925" data-name="Path 8925" class="cls-1" d="M117.66,36a2,2,0,0,1-1.15.4h-.23v-1h-1l0,1.12c0,.16-.56.48-1.15.49h-.22l-.1-8.47,1.42.59h.82l.66-.75,1.39,1.07a.93.93,0,0,1-.53.29Zm-1.4-1-.07-5.49h-1l.07,5.5Zm8.47.34s.85.73,1.33,1.21c0,.15-.18.22-.37.22l-2.27,0,0,2.55c0,.12-.67.38-1.25.39h-.28l0-2.92-4.45.06-.11-.37,4.55-.06,0-2.27,2,.16c0,.16-.12.28-.45.34l0,1.75H124Zm-5-1.28c0,.09-.43.41-1.15.42h-.24l-.07-6,1.57.58h.75c.08-.52.2-1.26.27-1.78l2.14.41c0,.21-.24.32-.53.32-.33.3-.84.72-1.23,1l2.41,0,.67-.75,1.42,1.07a1,1,0,0,1-.49.26l.06,4.17a2.12,2.12,0,0,1-1.22.43h-.24v-.54l-1.75,0c-.46,1-1.54,1.89-4,2.47L118,36a4.66,4.66,0,0,0,2.76-2.3l-1,0Zm-.06-4.59,0,1.69,1.34,0,0-1.68Zm1.21,3.88a5.09,5.09,0,0,0,.17-1.5v-.32l-1.34,0,0,1.82Zm3,0,0-1.82-1.4,0v.31a4.81,4.81,0,0,1-.18,1.51Zm-1.44-3.87,0,1.69,1.39,0,0-1.69Z"/></g><g id="Group_1092" data-name="Group 1092"><path id="Path_8926" data-name="Path 8926" class="cls-1" d="M139.1,29.6s1.06.81,1.7,1.36c0,.15-.18.22-.38.22l-2.54,0a9.88,9.88,0,0,1-1.78,4.71c5.44,2,3.69,4,2.29,3.43A15.72,15.72,0,0,0,135.11,37a13,13,0,0,1-6.59,2.66l-.08-.16a12.09,12.09,0,0,0,5.5-3.14,28.32,28.32,0,0,0-3.83-1.58c.48-1.13.91-2.28,1.28-3.45l-2.86,0-.11-.39,3.11,0a38.52,38.52,0,0,0,1.08-3.73l2.21.54c0,.15-.14.28-.55.29-.22.71-.56,1.75-1,2.88l2.84,0c.06-.56.09-1.15.11-1.72l2.31.46c0,.23-.22.34-.53.34,0,.31-.06.6-.09.89h.22Zm-5.93,1.67c-.42,1.23-.9,2.5-1.34,3.5,1.07.22,2,.45,2.79.68a9.55,9.55,0,0,0,1.5-4.22Z"/></g><g id="Group_1093" data-name="Group 1093"><path id="Path_8927" data-name="Path 8927" class="cls-1" d="M133.09,47.62a14.07,14.07,0,0,1-6-1.26,14,14,0,0,1-6,1.41,14.22,14.22,0,0,1-.38-28.43h0a14.07,14.07,0,0,1,6,1.26,14,14,0,0,1,6-1.41,14.22,14.22,0,0,1,.38,28.43Zm-6-2.14a.58.58,0,0,1,.18,0,13.16,13.16,0,0,0,5.85,1.27A13.39,13.39,0,0,0,132.83,20h-.09a13.17,13.17,0,0,0-5.81,1.41.44.44,0,0,1-.37,0,13.16,13.16,0,0,0-5.85-1.27A13.39,13.39,0,1,0,121,46.94h.09a13.24,13.24,0,0,0,5.82-1.41A.53.53,0,0,1,127.05,45.48Z"/></g><g id="Group_1095" data-name="Group 1095"><g id="Group_1094" data-name="Group 1094"><path id="Path_8928" data-name="Path 8928" class="cls-1" d="M119.5,52.47l-.21-.06-.24-.08-.25-.1-.21-.13a.41.41,0,0,1-.2-.45L119,49.2a.2.2,0,0,1,.1-.15.33.33,0,0,1,.19-.06,1.78,1.78,0,0,1,.46,0,5,5,0,0,1,.56.1,2.15,2.15,0,0,1,1,.48.79.79,0,0,1,.19.79.62.62,0,0,1-.24.37.73.73,0,0,1-.43.16,1,1,0,0,1,.38.38.74.74,0,0,1,0,.53.87.87,0,0,1-.57.67A2.22,2.22,0,0,1,119.5,52.47Zm-.16-.83a.71.71,0,0,0,.18.08l.22.06a.59.59,0,0,0,.37,0,.28.28,0,0,0,.2-.24.25.25,0,0,0,0-.27.68.68,0,0,0-.33-.16L119.5,51Zm.31-1.27.39.09a.53.53,0,0,0,.35,0,.35.35,0,0,0,.16-.23.26.26,0,0,0-.07-.25.59.59,0,0,0-.33-.17l-.18,0-.16,0Z"/><path id="Path_8929" data-name="Path 8929" class="cls-1" d="M122.49,50.18a.46.46,0,0,1,.48-.45H123l1.77.2a.74.74,0,0,1,.06.37.4.4,0,0,1-.12.28.35.35,0,0,1-.24.06l-1.14-.13-.05.5,1.2.14a.43.43,0,0,1,0,.16.44.44,0,0,1,0,.2.36.36,0,0,1-.12.28.34.34,0,0,1-.24.06l-1-.11-.07.56,1.38.16a.75.75,0,0,1,0,.16,1.48,1.48,0,0,1,0,.21.43.43,0,0,1-.13.28.29.29,0,0,1-.24.06L122.67,53a.47.47,0,0,1-.45-.47s0-.06,0-.08Z"/><path id="Path_8930" data-name="Path 8930" class="cls-1" d="M125.71,50.48a.47.47,0,0,1,.42-.5H128a.77.77,0,0,1,.07.16.69.69,0,0,1,0,.2.41.41,0,0,1-.09.3.33.33,0,0,1-.24.08h-1.13v.5h1.21a.77.77,0,0,1,.07.16.64.64,0,0,1,0,.2.39.39,0,0,1-.09.29.33.33,0,0,1-.23.09h-1v.56H128a1.11,1.11,0,0,1,.07.16.76.76,0,0,1,0,.21.39.39,0,0,1-.09.29.33.33,0,0,1-.23.09h-1.58a.46.46,0,0,1-.5-.43V50.48Z"/><path id="Path_8931" data-name="Path 8931" class="cls-1" d="M130.1,52l.13,1-.18.05-.25,0h-.22a.33.33,0,0,1-.16,0,.32.32,0,0,1-.11-.12.9.9,0,0,1-.06-.22l-.32-2.52a.26.26,0,0,1,0-.19.48.48,0,0,1,.16-.12,2,2,0,0,1,.41-.14,3.06,3.06,0,0,1,.51-.1,1.76,1.76,0,0,1,1.15.17,1,1,0,0,1,.48.8.93.93,0,0,1-.1.59,1.18,1.18,0,0,1-.36.41l.44.45a2.11,2.11,0,0,1,.35.38.47.47,0,0,1-.16.31.64.64,0,0,1-.3.14.74.74,0,0,1-.21,0,.44.44,0,0,1-.16-.06l-.13-.1a.75.75,0,0,1-.12-.14l-.54-.67Zm.25-.76a.45.45,0,0,0,.31-.14.41.41,0,0,0,.08-.32.37.37,0,0,0-.17-.29.65.65,0,0,0-.43-.06l-.13,0-.1,0,.1.81Z"/><path id="Path_8932" data-name="Path 8932" class="cls-1" d="M135.65,50.69a1.41,1.41,0,0,1,0,.54,1.11,1.11,0,0,1-.17.47,1.37,1.37,0,0,1-.38.38,2,2,0,0,1-1.18.31,1.28,1.28,0,0,1-.51-.13,1.18,1.18,0,0,1-.38-.32,1.59,1.59,0,0,1-.24-.49l-.53-2,.17-.08.24-.08a.78.78,0,0,1,.22,0,.35.35,0,0,1,.17,0,.33.33,0,0,1,.13.11.67.67,0,0,1,.09.21l.42,1.59a.58.58,0,0,0,.24.35.51.51,0,0,0,.75-.62l-.53-2,.18-.08.23-.08.22,0a.33.33,0,0,1,.17,0,.35.35,0,0,1,.13.11.67.67,0,0,1,.09.21Z"/></g></g><circle id="Ellipse_83" data-name="Ellipse 83" class="cls-1" cx="116.36" cy="49.98" r="0.93"/><circle id="Ellipse_84" data-name="Ellipse 84" class="cls-1" cx="138.15" cy="49.71" r="0.93"/></g></g></g></g></svg>