<svg xmlns="http://www.w3.org/2000/svg" viewBox="0 0 102.43 100"><defs><style>.cls-1{fill:#792221;}</style></defs><g id="圖層_2" data-name="圖層 2"><g id="event"><g id="pipi_plane_big"><g id="Group_3589" data-name="Group 3589"><g id="Group_3528" data-name="Group 3528"><g id="Group_3527" data-name="Group 3527"><g id="Group_3526" data-name="Group 3526"><g id="Group_3525" data-name="Group 3525"><path id="Path_25486" data-name="Path 25486" class="cls-1" d="M60,83.49c-.1.07-.28,0-.18-.13A163.43,163.43,0,0,1,72.75,72c.27-.23.66.14.39.37A168.85,168.85,0,0,1,60,83.49Z"/><path id="Path_25487" data-name="Path 25487" class="cls-1" d="M33.41,97c1.45-2.24,4.69-4.4,6.29-5.71,5.32-4.34,10.92-8.4,16.41-12.57C71,67.43,84.63,55.32,100.3,44.88a.91.91,0,0,1,.22-.11c.63-.19,1.27.52.65.95C86.44,55.87,73.38,67.34,59.43,78.25,50.68,85.09,41.55,91.48,34.3,99.63a.9.9,0,0,1-1.25.2.88.88,0,0,1-.37-.63,3.55,3.55,0,0,1,.54-1.88.4.4,0,0,1-.38,0Z"/><path id="Path_25488" data-name="Path 25488" class="cls-1" d="M32.55,46.32a.13.13,0,0,1,.13.14.12.12,0,0,1-.12.12c-5.29.79-11.78,1.54-17,.63-.7-.12-.45-1.15.27-1.1C21.33,46.53,27.17,45.58,32.55,46.32Z"/><path id="Path_25489" data-name="Path 25489" class="cls-1" d="M33.32,56.41c1.23-.17,2.46-.37,3.71-.55a4.23,4.23,0,0,0,.25.47c-1.27.28-2.54.57-3.83.82A6.37,6.37,0,0,1,33.32,56.41Zm5.56-.82,1.62-.25a1.14,1.14,0,0,0-.19.34l-1.21.25a4,4,0,0,1-.22-.34ZM15.79,58.21l.43,0A11.07,11.07,0,0,0,17,59.3c.77,1,1.51,2.06,2.31,3.06a36.14,36.14,0,0,1-2.07,3,15.23,15.23,0,0,0-2.45-4.24,5.16,5.16,0,0,0,.1-.87,8.28,8.28,0,0,0,.07-.87.76.76,0,0,0,.79-1.17Zm9.45.45c-1.59.25-3.17.51-4.77.72a.93.93,0,0,0-.69.42c-.39-.61-.81-1.21-1.2-1.8,2-.17,4.05-.36,6.08-.56.2.4.4.8.58,1.21ZM12.55,56.79a59,59,0,0,1-6.32-3.62c-.49-.3-1.17-.86-1.94-1.37,23.09-1.7,46.25-2.5,69.3-4.76-5.14,1.06-10.24,2.19-15.14,3.11-8.69,1.62-17.4,3.16-26.16,4.31q-3.21.43-6.4.78a1.35,1.35,0,0,0-.32-.26,1.17,1.17,0,0,0-1.6.46c-3.43.35-6.87.62-10.31.79a1.59,1.59,0,0,0-1.11.55Zm14.31,1.59a9.31,9.31,0,0,0-.18-1.16c1.55-.16,3.09-.37,4.64-.56a4.2,4.2,0,0,0,.2.85C30,57.81,28.41,58.11,26.86,58.38ZM9.63,66.76A71.37,71.37,0,0,0,5.86,77.85C5.58,79,7.31,79.12,8,78.42v0a1,1,0,0,0,.69,0c5.16-2.07,10.44-3.78,15.4-6.23,1.14,4.64,2.38,9.26,3.78,13.83,1,3.43,1.9,8.9,5,11.32l.57-.31s0,0,0,0c-4.6-8-6-18.71-7.76-27.79a1,1,0,0,0,.47-1,27.75,27.75,0,0,0-1.22-4.93A12.72,12.72,0,0,0,24.1,61a92.73,92.73,0,0,0,15.76-2.86,3.91,3.91,0,0,0,.83.15h0a.65.65,0,0,0,.74-.56c5.75-1.52,11.45-3.28,17-4.67,13.87-3.4,28.17-4.71,41.94-8.57.45-.11.89-.25,1.34-.37a.79.79,0,0,0,.52-.35.78.78,0,0,0-.24-1.07.58.58,0,0,0-.68-.38c-33,5-66.3,4.89-99.44,7.3a1.45,1.45,0,0,0-1.26.84,1.18,1.18,0,0,0-.36.12.56.56,0,0,0-.32.6c.13,1,1.48,1.35,2.36,1.85,1.31.76,2.61,1.54,3.93,2.3a45.17,45.17,0,0,0,6.28,3.19q0,.62,0,1.23c-1.56,1.82-2.25,5.22-3,7Zm13.19-2.47c.27,1,.47,2,.71,3a.84.84,0,0,0-.38.94c.14.65.31,1.31.46,2-4.2,2.09-8.66,3.73-13,5.53,4.29-4.43,8.64-8.9,11.35-14.17C22.1,62.48,22.59,63.38,22.82,64.29Zm-10.3,6.53c-1,1.06-2.09,2.12-3.14,3.16.66-1.91,1.42-3.81,2.22-5.68a14.6,14.6,0,0,0,.19,1.48c.09.41.22.89.72,1Zm1.86-7.32A12.8,12.8,0,0,1,16,66.91c-.72.86-1.46,1.71-2.23,2.55a1.1,1.1,0,0,0-.21-.22c0-.2-.05-.42-.05-.61a16.36,16.36,0,0,0-.11-1.71v0a.81.81,0,0,0-1-.62c.3-.69.79-1.51,1.24-2.39a1.5,1.5,0,0,0,.67-.38Z"/></g></g></g></g><path id="Path_25490" data-name="Path 25490" class="cls-1" d="M65.43,43v0a1.53,1.53,0,0,0-.59-1,1.88,1.88,0,0,0-2.52.66l-.41.54-.07.09-.08.1a7.09,7.09,0,0,1-.78.77,11.63,11.63,0,0,0-1.56,1.42l-.21.27-.35.23A27.78,27.78,0,0,1,55.71,48l-.39.18h0l-.19.08a8.39,8.39,0,0,1-.89.28l-.44.1c-.11-.55-.51-1.07-1-1l-2.23.13a4,4,0,0,0-3.18-1.28A9,9,0,0,0,43.27,48a1.4,1.4,0,0,0-.6,1.44,1.18,1.18,0,0,0,1,1H44a1.2,1.2,0,0,0,1,1,8.47,8.47,0,0,0,1.13,0,1.55,1.55,0,0,0-.07,1.06,1.18,1.18,0,0,0,.78.8,1.38,1.38,0,0,0,.19.84,1.08,1.08,0,0,0,1.18.53l3.93-1.27a31.08,31.08,0,0,1,3.8-1.08c.27-.05.54-.09.82-.12h0l.23,0,.46,0c.64,0,1.27-.1,1.9-.19a5.22,5.22,0,0,0,3.29-1.65,3.22,3.22,0,0,0,.78-2.72.84.84,0,0,0,0-.17,1.29,1.29,0,0,0,.83-1.14l0,0h0a1.19,1.19,0,0,0,1-.59,3,3,0,0,0,.59-1.24A1.59,1.59,0,0,0,65.43,43Z"/><g id="Group_3529" data-name="Group 3529"><path id="Path_25491" data-name="Path 25491" class="cls-1" d="M37,47.83h0a.14.14,0,0,0,0-.07h0a.19.19,0,0,1,0,.07Z"/><path id="Path_25492" data-name="Path 25492" class="cls-1" d="M37.58,47.39h0Z"/><path id="Path_25493" data-name="Path 25493" class="cls-1" d="M60.58,47.33c-1.24.17-2.47.34-3.71.48L55.15,48a4.34,4.34,0,0,1-2.72,2,29.92,29.92,0,0,1-3.35.86c-.82.18-1.65.33-2.48.46a8.48,8.48,0,0,1-6,.62l-.23-.09c-.7,0-1.41,0-2.11,0a1.17,1.17,0,0,1-1.06-.9,1,1,0,0,1,0-.53,12.1,12.1,0,0,1-3.68,1.32,1.16,1.16,0,0,1-1.26-.6,1.13,1.13,0,0,1,.25-1.37,8.57,8.57,0,0,0,.83-.66.75.75,0,0,0,.16-.15l.08-.08,0,0c.06-.09.14-.23.17-.29v0s0-.08,0-.11v0a.2.2,0,0,0,0-.11h0V48.2h0v0a.52.52,0,0,0,0-.11h-.1l-.31,0-.54.09-2.45.42a1.37,1.37,0,0,1-.57,0,12.51,12.51,0,0,1-1.07.72,1.17,1.17,0,0,1-1.38-.25,4.86,4.86,0,0,1-1.11-2.37,1.16,1.16,0,0,1,.6-1.26,11.83,11.83,0,0,1,3.94-.89,1.16,1.16,0,0,1,1.08,1.21.85.85,0,0,1-.06.31l1-.17a3.66,3.66,0,0,1,1.71,0,2,2,0,0,1,.75.42,3.09,3.09,0,0,1,1-.89,3.2,3.2,0,0,1,4.22,1.25.72.72,0,0,1,.09.2,8,8,0,0,1,1.26-.4,12.82,12.82,0,0,1,1.51-.24h.09c.55,0,1.12-.07,1.67-.07.35,0,.71,0,1.06,0h.41l.67,0c1.09,0,2.19-.08,3.28-.15l1.64-.1L53,45.9h.2l.41,0c2.18-.19,4.36-.44,6.52-.75a1.14,1.14,0,1,1,.5,2.23ZM46,49.09l.65-.32.31-.16-.87-.1-1.34,0a1.17,1.17,0,0,1-.24.76l.84-.11Zm1.7-.31h0l0,0h0ZM37.05,47.71a.09.09,0,0,1,0,0h0l0,.06h0v0h0v0h0l0,0a3.18,3.18,0,0,0,.37-.27l.17-.14h0c-.08,0-.11,0-.06,0l-.14,0-.09,0a.62.62,0,0,1-.11.09l-.07.07-.07.12v0Zm-3.53,1.21s0,0,.09-.1Zm3.18,1.21h0Z"/><path id="Path_25494" data-name="Path 25494" class="cls-1" d="M33.83,48.24v0a.3.3,0,0,0,0,.13h0Z"/></g><g id="Group_3587" data-name="Group 3587"><g id="Group_3537" data-name="Group 3537"><g id="Group_3536" data-name="Group 3536"><g id="Group_3535" data-name="Group 3535"><g id="Group_3534" data-name="Group 3534"><path id="Path_25550" data-name="Path 25550" class="cls-1" d="M83.06,26.93a2.18,2.18,0,0,1-.56.84,5,5,0,0,1-.71.32.33.33,0,0,0,0,.46c.66.45,1.56-.64,1.44-1.59a.08.08,0,0,0-.16,0Z"/><path id="Path_25551" data-name="Path 25551" class="cls-1" d="M99.61,35.88l.32.19-.11.4-.28,1.18-.37.11A2.11,2.11,0,0,0,97.88,39a1.76,1.76,0,0,0,.2,1.65l.23.3-.28.46-.51.92-.35,0a1.71,1.71,0,0,0-1.45.68,1.88,1.88,0,0,0-.29,1.61l.12.36-.25.22h0l-.79.76-.29-.15a1.37,1.37,0,0,0-1.42.11,1.71,1.71,0,0,0-.66,1.37v.37l-.61.27-.58.31-.23-.25a1.2,1.2,0,0,0-1.24-.38,1.43,1.43,0,0,0-.9,1l-.08.31-.86.1h0l-.24,0-.13-.31a1.27,1.27,0,0,0-1-.78,1.14,1.14,0,0,0-1,.62l-.15.26-.65-.18-.34-.08,0-.32a1.42,1.42,0,0,0-.68-1.06.92.92,0,0,0-1,.2l-.18.18-.61-.44-.2-.14,0-.32A1.56,1.56,0,0,0,81,45.44a.81.81,0,0,0-1-.18l-.21.11-.46-.65h0l-.14-.2.1-.28A1.8,1.8,0,0,0,79.29,43a.86.86,0,0,0-.83-.53l-.21,0-.27-.8h0l-.08-.21.15-.23a1.85,1.85,0,0,0,.21-1.26,1.05,1.05,0,0,0-.66-.82l-.2,0,0-.24h0l0-.3,0-.34h0l0-.34.19-.16a1.68,1.68,0,0,0,.5-1.15,1.37,1.37,0,0,0-.4-1.1l-.17-.13.08-.52.06-.61.22-.1a1.57,1.57,0,0,0,.7-1,1.71,1.71,0,0,0-.17-1.27l-.13-.2.31-.9h0l.11-.3h.22a1.2,1.2,0,0,0,.9-.72,2.09,2.09,0,0,0,.18-1.39L79.8,28l.49-.76.18-.29.31.11a.83.83,0,0,0,.91-.4l.08-.1a2.7,2.7,0,0,0,.44-1.53V24.9l.14-.13h0l.39-.38h0l.4-.36h0l.14-.13.09.08a1,1,0,0,0,1.12.13l.11-.07a1.83,1.83,0,0,0,.75-1.16l.11-.52.29-.13.79-.4.13.26a.86.86,0,0,0,1,.45,2.07,2.07,0,0,0,1.14-1.13L89,21l.3,0h0l.91-.07,0,.35a1.06,1.06,0,0,0,.83,1,1.68,1.68,0,0,0,1.39-.69l.28-.34.56.25.5.15,0,.4a1.36,1.36,0,0,0,.54,1.38,1.41,1.41,0,0,0,1.5-.21l.35-.26.27.27h0l.28.28.24.24h0l.19.2-.18.4a2,2,0,0,0,0,1.72,1.25,1.25,0,0,0,1.41.47l.39-.11.11.29h0l.44,1-.27.35a2.26,2.26,0,0,0-.45,1.79,1.31,1.31,0,0,0,1.14,1l.39,0v.39h0l.07,1.23-.35.25a2.34,2.34,0,0,0-1,1.61A1.54,1.54,0,0,0,99.61,35.88Zm-16.75,9.3s-.22-.15-.25-.17l-.25-.19a2.24,2.24,0,0,0-.34-.27,1.11,1.11,0,0,0-.26-.07.58.58,0,0,0-.45,0l-.1.05a1.16,1.16,0,0,1,.24.2,2.51,2.51,0,0,1,.64,1.71l0,0a4.89,4.89,0,0,0,.46-.56A1.08,1.08,0,0,0,82.86,45.18Zm2.58,1.34.15-.23-.16,0-.55-.13a1.33,1.33,0,0,0-.67.61,2.43,2.43,0,0,1,.53,1h.06a1.57,1.57,0,0,1,.21-.24,4.64,4.64,0,0,1,.43-1Zm2.52,1c.05-.38.13-1,.28-1l-.6.06-.27,0h-.22a1.46,1.46,0,0,1,.23.51c.07.21.13.4.21.6s.26.66.34.17c0,0,0-.14,0-.27Zm3.23-1.85c0-.14,0-.26-.16-.22a2.33,2.33,0,0,0-.34.2c-.2.1-.47.13-.32.41A6.84,6.84,0,0,0,91,47.09c.07.09.16.18.25.15s.11-.18.12-.29A5.71,5.71,0,0,0,91.19,45.65Zm3.33-1.47c-.07-.11-.83-1.11-.7-1.23a10.71,10.71,0,0,1-.83.94,5,5,0,0,1,1.13.63.58.58,0,0,0,.25.12h0a.22.22,0,0,0,.2-.14A.35.35,0,0,0,94.52,44.18ZM97,41.08a2.81,2.81,0,0,1-.3-1.4,2.08,2.08,0,0,0-.82.17A11.35,11.35,0,0,1,95.25,41h.14a4.46,4.46,0,0,1,1.19.22,2.63,2.63,0,0,1,.39-.06Zm1.63-4.38a2.57,2.57,0,0,1-.81-2.17,2.65,2.65,0,0,1,.09-.49.71.71,0,0,0-.17.11,3.27,3.27,0,0,0-.35.3A15.12,15.12,0,0,1,97,37a1.26,1.26,0,0,0,.67,0,6.48,6.48,0,0,0,1-.22Zm-.43-4.38a3.28,3.28,0,0,1,.82-.2h0V32a2,2,0,0,1-1-.63c-.24-.28-.25-1-.75-.87a.91.91,0,0,0-.53.43c-.1.17-.37.76-.22.89a2,2,0,0,1-.34-2.36,3.14,3.14,0,0,1,1.51-1.15l.08,0c.07-.16.14-.3.22-.45l0-.08s-.6,0-.67,0a1.89,1.89,0,0,1-.6-.22,4.59,4.59,0,0,1-.44-.33c-.12-.1-.29-.17-.43,0a1.46,1.46,0,0,0-.16.85.73.73,0,0,0,.17.46c.05.06.25.24.2.39s-.32,0-.4,0a1.56,1.56,0,0,1-.8-.78,2.78,2.78,0,0,1,.9-3,3.21,3.21,0,0,1,.14-.63l-.08-.08a2.44,2.44,0,0,1-1.63.29,1.27,1.27,0,0,1-.36-.12c-.11,0-.22-.16-.35.06a1,1,0,0,0,0,.9,3.34,3.34,0,0,0,.72.78s-.28.08-.34.07-.3,0-.45,0a1.72,1.72,0,0,1-.85-.23,1,1,0,0,1-.46-1.08,5.29,5.29,0,0,1,.42-1.35,3,3,0,0,0,.37-1.06c0-.24-.39.16-.55.27a2.26,2.26,0,0,1-1.57.43,2.2,2.2,0,0,1-.54-.2c0,.13,0,.27,0,.41a3.87,3.87,0,0,0,0,.48c.06.69.56.73,1.07.76-.09,0-.27.16-.36.19a1.43,1.43,0,0,1-.34.09,1,1,0,0,1-.63-.13,1.43,1.43,0,0,1-.58-1.11c0-.56.14-1.12.16-1.68,0-.24-.15,0-.21.11a3.37,3.37,0,0,1-.29.37,3.2,3.2,0,0,1-.64.58,2,2,0,0,1-.6.31c-.16.06-.26,0-.41,0s-.32.33-.21.55a.52.52,0,0,0,.53.32.8.8,0,0,1-.54.33c-.45,0-.75-.52-.87-1,0-.19,0-.59-.13-.71H86A3.72,3.72,0,0,1,84.75,25h0a1.76,1.76,0,0,1-.94.31,1.29,1.29,0,0,1-.43-.07c-.09,0-.24-.2-.35-.12s-.1.38-.13.53a3.55,3.55,0,0,1-.17.64,3.27,3.27,0,0,1-.6,1.06v0a1.77,1.77,0,0,1-1.47.7l0,.07c0,.16.23.33.3.49A2,2,0,0,1,81,30.08a.82.82,0,0,1-.37.45,1.17,1.17,0,0,0,0-.76c-.07-.23-.22-.34-.35,0a3,3,0,0,1-.15.45,2.73,2.73,0,0,1-.37.52,1.85,1.85,0,0,1-.88.57c0,.12.11.17.17.22a2.75,2.75,0,0,1,.65.53,1.8,1.8,0,0,1,.3,1.13,2.33,2.33,0,0,1-.17.69,1.91,1.91,0,0,1-.33.52c0-.08.05-.25.07-.33a2.57,2.57,0,0,0,.08-.38,1,1,0,0,0-.16-.66c-.07-.09-.34-.37-.44-.15s0,.26-.05.4a3,3,0,0,1-.68,1.29c-.1.1-.37.21-.28.38s.42.13.56.15a2.17,2.17,0,0,1,.5.13.46.46,0,0,1,.29.29,2.48,2.48,0,0,1,0,1.72,1.59,1.59,0,0,1-.18.4c-.13.14-.11-.1-.1-.22a2.05,2.05,0,0,0-.16-.88c-.07-.12-.28-.42-.41-.23a1.52,1.52,0,0,0-.07.52,4.56,4.56,0,0,1-.13.53,3.32,3.32,0,0,1-.23.51,4,4,0,0,0-.27.39v.09a1.07,1.07,0,0,1,.28.19s.22-.09.25-.1a.9.9,0,0,1,.28,0,.83.83,0,0,1,.54.17,1.56,1.56,0,0,1,.46,1c0,.1.09,1,0,1s-.14-.26-.16-.36a.77.77,0,0,0-.43-.6.18.18,0,0,0-.23.11.58.58,0,0,0,0,.39,4.15,4.15,0,0,1,0,.49,2.63,2.63,0,0,1-.1.47s-.16.38-.15.4l0,.06.25.05s0,0,0-.05a1.8,1.8,0,0,1,.74-.57.81.81,0,0,1,.82.25,1.7,1.7,0,0,1,.3.75,1.26,1.26,0,0,1,0,.28.81.81,0,0,0,0,.22.68.68,0,0,0-.77-.12c-.16.08-.2.22-.15.44a3.94,3.94,0,0,1,.14.49,2.86,2.86,0,0,1-.06,1l0,.05h0a2.32,2.32,0,0,1,.34-.48,1.58,1.58,0,0,1,.31-.27.75.75,0,0,1,.4-.19,1.83,1.83,0,0,1,1.33.28c.19.13.37.28.54.4s.36.21.53.31a6.21,6.21,0,0,0,3.22.87,8.7,8.7,0,0,0,6.36-3.21,12.88,12.88,0,0,0,2.25-3.71A13.14,13.14,0,0,0,96,36.13a9.58,9.58,0,0,1,.52-2.3,3.32,3.32,0,0,1,1.71-1.51Z"/><path id="Path_25552" data-name="Path 25552" class="cls-1" d="M85.38,24.89a10.17,10.17,0,0,1-.6.86,1.33,1.33,0,0,1-.79.35c-.06,0-.12.16-.06.24.48.64,1.63,0,1.74-1.22C85.69,24.9,85.5,24.73,85.38,24.89Z"/></g><path id="Path_25553" data-name="Path 25553" class="cls-1" d="M95.49,31c0-.1,0-.2-.07-.3v0a.52.52,0,0,0-.1-.23.14.14,0,0,0-.16,0,.25.25,0,0,0-.1.16.45.45,0,0,0,0,.23.06.06,0,0,0,0,0c0,.08,0,.18.06.28a8.92,8.92,0,0,1,.09,1.79c0,.61-.08,1.22-.16,1.83a12.35,12.35,0,0,1-3.35,7,9.18,9.18,0,0,1-1.23,1,8.71,8.71,0,0,1-1.43.8,6.53,6.53,0,0,1-2.42.52,5.92,5.92,0,0,1-3-.77,8,8,0,0,1-1-.66,5,5,0,0,1-.88-.84l-.13-.16,0,0a.28.28,0,0,0-.12-.12.09.09,0,0,0-.1,0,.13.13,0,0,0,0,.13.66.66,0,0,0,.09.19l0,0c0,.07.09.13.13.19a7,7,0,0,0,2,2,5.88,5.88,0,0,0,2.82.88h.32a7.16,7.16,0,0,0,2.39-.43,11.26,11.26,0,0,0,1.75-.93,12.25,12.25,0,0,0,1.52-1.26,12.21,12.21,0,0,0,2.06-2.93,12.64,12.64,0,0,0,1.29-4.24A12.1,12.1,0,0,0,95.49,31Z"/></g></g></g><g id="Group_3556" data-name="Group 3556"><g id="Group_3538" data-name="Group 3538"><path id="Path_25554" data-name="Path 25554" class="cls-1" d="M74.64,31.36a.32.32,0,0,1-.36-.31.31.31,0,0,1,.08-.24.33.33,0,0,1,.46-.06A.34.34,0,0,1,75,31a.35.35,0,0,1-.29.38Z"/></g><g id="Group_3539" data-name="Group 3539"><path id="Path_25555" data-name="Path 25555" class="cls-1" d="M74,26.54a3.44,3.44,0,0,0-1.43-.06c-.42,0-.62-.37-.37-.73.54-.78,2.87-.61,2.91.44C75.13,26.81,74.36,27.23,74,26.54Z"/></g><g id="Group_3540" data-name="Group 3540"><path id="Path_25556" data-name="Path 25556" class="cls-1" d="M74.78,19.59a2.58,2.58,0,0,1-2.89,3.89,3.56,3.56,0,0,1-1,1.66c1,1,.39,2.85-1.75,3.19-.18.15-.52.08-.8,0a.46.46,0,0,1,.06-.92c2.06.07,2.46-1.4,1.89-2a1.23,1.23,0,0,1-.9-.14h0a.41.41,0,0,1-.16-.55.4.4,0,0,1,.4-.21c.5,0,1.12-.09,1.57-1.43-.38-.28-.73-.75-.68-1.06.07-.49,1.16-.5,1.5.27,1.56.67,2.9-.57,2.32-2.49a.27.27,0,0,1,.19-.35A.27.27,0,0,1,74.78,19.59Z"/></g><g id="Group_3541" data-name="Group 3541"><path id="Path_25557" data-name="Path 25557" class="cls-1" d="M67.5,28.73a.29.29,0,0,1-.53.16,2.12,2.12,0,0,0-1.51-1,1.57,1.57,0,0,1,1.1,1.54.44.44,0,0,1-.5.34.44.44,0,0,1-.26-.18c-.3-.43-.22-1.1-1.29-.86-.27.06-.62.13-.75-.22s.16-.61.68-.71l-.41,0a1,1,0,0,0-.94.95v0c0,.71.86,2.06.16,2.16a.32.32,0,0,1-.25-.05c-1.26-.83-1.61-3.61.57-4.1C65,26.45,67.58,26.88,67.5,28.73Z"/></g><g id="Group_3542" data-name="Group 3542"><path id="Path_25558" data-name="Path 25558" class="cls-1" d="M66.64,32a1.44,1.44,0,0,1-.62-.13c-.53-.19-.62-1.49,0-1.88a.54.54,0,0,1,.65.08c.15.1.33.23.31.42s-.17.24-.29.3a.29.29,0,0,0,0,.16C67.45,31.27,67.13,31.91,66.64,32Z"/></g><g id="Group_3543" data-name="Group 3543"><path id="Path_25559" data-name="Path 25559" class="cls-1" d="M68,33.8a3.1,3.1,0,0,1-4.22-1.2c0-.05,0-.09-.07-.14s-.06-.22.06-.3.31,0,.68.24a3.44,3.44,0,0,0,2.19.75,3.66,3.66,0,0,0,.81-.18.58.58,0,0,1,.34,0,.48.48,0,0,1,.41.55A.5.5,0,0,1,68,33.8Z"/></g><path id="Path_25560" data-name="Path 25560" class="cls-1" d="M71.49,28.42a4.14,4.14,0,0,0,.61-.26,2.66,2.66,0,0,1,2.39.57.71.71,0,0,1,0,1,.74.74,0,0,1-.13.12.17.17,0,0,0,0,.05,1,1,0,0,1-.27,1,.69.69,0,0,1-1,.05l0,0a.49.49,0,0,1-.09-.31.36.36,0,0,1,0-.1.4.4,0,0,1,.06-.26c0-.23.08-.45.11-.68a2.9,2.9,0,0,0-1.63-.73.22.22,0,0,1-.09-.43Z"/><g id="Group_3544" data-name="Group 3544"><path id="Path_25561" data-name="Path 25561" class="cls-1" d="M73.84,31.26a.36.36,0,0,1,.24.65.36.36,0,0,1-.49-.13.32.32,0,0,1,0-.25A.36.36,0,0,1,73.84,31.26Z"/></g><g id="Group_3545" data-name="Group 3545"><path id="Path_25562" data-name="Path 25562" class="cls-1" d="M97.93,41.57c0-.39.88-.65,1.07-.83s.46-1.44.69-1.5c.39-.09.59.7.57.91A2.2,2.2,0,0,1,98.94,42C98.3,42.2,97.89,41.84,97.93,41.57Z"/></g><g id="Group_3546" data-name="Group 3546"><path id="Path_25563" data-name="Path 25563" class="cls-1" d="M98.12,45l0,.09h0l0-.09h0c.23-.14-.21-.59-.18-1.12,0-.83.86-.85.86-1.21a.4.4,0,0,1,.75-.21c.18.27.12.8-.51,1.21-.28.19-.29.23-.17.58.33.9.2,1.18-.53,1.74a.47.47,0,0,1-.67-.05l-.08-.13C97.41,45.45,97.9,45.16,98.12,45Z"/></g><g id="Group_3547" data-name="Group 3547"><path id="Path_25564" data-name="Path 25564" class="cls-1" d="M77.7,46.27a1.23,1.23,0,0,1-2-.28.56.56,0,0,1,.36-.7.58.58,0,0,1,.39,0c.36.15.25.26.69.11a.55.55,0,0,1,.69.35A.56.56,0,0,1,77.7,46.27Z"/></g><g id="Group_3548" data-name="Group 3548"><path id="Path_25565" data-name="Path 25565" class="cls-1" d="M79.19,41.29a35.47,35.47,0,0,1,10.08.24c.11,0,.25,0,.24.19,0,.33-.91,0-6.8.16-2.67.06-3.8,0-5.22,1.14a.27.27,0,0,1-.3,0,.27.27,0,0,1-.11-.31C77.12,42.39,77.63,41.66,79.19,41.29Z"/></g><g id="Group_3549" data-name="Group 3549"><path id="Path_25566" data-name="Path 25566" class="cls-1" d="M57.84,35.5c.84.39,2.4,1.11,3.34-.67a2.94,2.94,0,0,0,.21-1.55.27.27,0,0,1,.25-.29.3.3,0,0,1,.26.13,2.71,2.71,0,0,1-1.51,3.52,2.61,2.61,0,0,1-.78.18c-1.76.16-2.59-1.19-2.35-1.43s.26,0,.58.11l0,.09h0Z"/></g><g id="Group_3550" data-name="Group 3550"><path id="Path_25567" data-name="Path 25567" class="cls-1" d="M62.19,39.43c-.46.11-1,.22-1.13-.28-.16-.66,1.87-1.49,3.74-.79.35.14.86.61,1.22.58a3.08,3.08,0,0,1-1.22-1.88c0-.18.22-.44.46,0A4.81,4.81,0,0,0,68.56,39c2.21.45,6.42-.3,5.83-2.48-.09-.35-.24-.32-.52-.48s-.44-.41-.6-.49a8.58,8.58,0,0,1-.81-.44.48.48,0,0,1-.14-.66.67.67,0,0,1,.15-.14c.21-.12.38,0,.57.13a9.33,9.33,0,0,1,.84.55A2.64,2.64,0,0,0,76,34.72a1.5,1.5,0,0,1,.21-2.1l.16-.11a.81.81,0,0,0,.43-.6c.16-.66-.76-1.1-1.2-1.58-1.52-1.65.4-4.08-.14-5.71-.22-.68-.85-.82-.61-1.23s1.57.26,1.62,1.66a11,11,0,0,1-.53,2.84c-.54,2.5,1.65,1.92,1.75,3.78,0,1.09-1.08,1.54-1,2.11s.69.43.64.93-.72.88-1.36,1.15c.49.14.34.92-.55,1.16-.28,1.82-2.57,2.61-4.39,2.84,5.61-.36,18.76-1.38,20.64-1.52.65-.55.43-.75.61-1.07.31-.52,1.16,0,.56,1.1S90.66,39.61,91.1,41a.48.48,0,0,1-.31.6.56.56,0,0,1-.36,0,.46.46,0,0,1-.26-.43,2.46,2.46,0,0,1,.43-2c-9.33.74-17.21,1.42-17.18,1.42a20.15,20.15,0,0,1,2.25.94.18.18,0,0,1,.11.23c-.14.46-2-.63-2.35-.72-2.4-.71-5-.12-7.28-1.12A6.59,6.59,0,0,0,62.19,39.43Z"/></g><g id="Group_3551" data-name="Group 3551"><path id="Path_25568" data-name="Path 25568" class="cls-1" d="M89.78,47.45a14.07,14.07,0,0,0-3,1,17.09,17.09,0,0,1-8.14,1.38,4.2,4.2,0,0,0-2.83.31A10.53,10.53,0,0,1,70,51a8.93,8.93,0,0,0-4.7.19c-.6,0-1-.87.8-1.55a6,6,0,0,1,3.32-.08,11.1,11.1,0,0,0,5.9-.56,8.27,8.27,0,0,1,2.09-.43,25.46,25.46,0,0,0,6.4-.43c1.77-.39,2.6-.82,4.63-1.19a12.52,12.52,0,0,1,2-.62,9.17,9.17,0,0,1,1.88.2,9.45,9.45,0,0,0,4-.21,1.28,1.28,0,0,1,.77-.15c.43.17.39.6.06.9a2.47,2.47,0,0,1-1.29.37C93.35,47.66,93.23,47.22,89.78,47.45Z"/></g><g id="Group_3552" data-name="Group 3552"><path id="Path_25569" data-name="Path 25569" class="cls-1" d="M96.88,48.18l-.23.07-.14-.13.15-.1.16,0Z"/></g><g id="Group_3553" data-name="Group 3553"><path id="Path_25570" data-name="Path 25570" class="cls-1" d="M77.57,24.38a.47.47,0,0,1-.52-.42.45.45,0,0,1,.16-.41,2.69,2.69,0,0,0,1.54-1.95,2.12,2.12,0,0,0-.28-1.25,3,3,0,0,0-1-1,.31.31,0,0,1-.14-.41.28.28,0,0,1,.3-.17l.44.09c-.56-.73-1.43-.9-2.77-.56a.28.28,0,0,1-.31-.13c-.1-.16,0-.28.1-.38a1,1,0,0,1,.43-.35c2.44-.88,4,1.62,3.61,2.25a.25.25,0,0,1-.12.11,3,3,0,0,1-1.49,4.56Z"/></g><g id="Group_3554" data-name="Group 3554"><path id="Path_25571" data-name="Path 25571" class="cls-1" d="M64,15a.19.19,0,0,1,.07.24.17.17,0,0,1-.24.07c-4-2.22-6.6.87-5.18,2.66.24.3-.17.65-.46.44a1.44,1.44,0,0,0-2,.22,1.42,1.42,0,0,0-.11,1.62.41.41,0,0,1-.14.57.39.39,0,0,1-.38,0,1,1,0,0,0-1.32,1.38c.31,1.15,1.58,1.52,2.61,1.9a.32.32,0,0,1,.16.43.3.3,0,0,1-.24.19,3.87,3.87,0,0,1-2.16-.66c-2-1.32-1.37-4.13.55-4.14A2.15,2.15,0,0,1,57,17.54a2.27,2.27,0,0,1,.78,0C57.15,15.27,59.88,12.61,64,15Z"/></g><g id="Group_3555" data-name="Group 3555"><path id="Path_25572" data-name="Path 25572" class="cls-1" d="M56,26.42a.26.26,0,0,1,.29.43,2,2,0,0,0-.54,2.35A2.33,2.33,0,0,0,58,30.27a.34.34,0,0,1,.3.39.32.32,0,0,1-.15.24,2.19,2.19,0,0,1-2.43-.31A2.48,2.48,0,0,1,56,26.42Z"/></g><path id="Path_25573" data-name="Path 25573" class="cls-1" d="M32.71,6.46a4.87,4.87,0,0,1-.79-3.76.46.46,0,0,1,.48-.38.47.47,0,0,1,.45.41,3.61,3.61,0,0,0,1.72,2.21,7.4,7.4,0,0,0,3.19.85,4.91,4.91,0,0,0,1.79-.09A5.94,5.94,0,0,0,41,4.86c.65-.45,1.29-.91,2-1.35a3.31,3.31,0,0,1-.83.1,8.57,8.57,0,0,1-3.31-1A4.75,4.75,0,0,1,36.28.43c-.18-.38.43-.62.61-.24A4,4,0,0,0,39.06,2c.5.23,1,.43,1.52.61A4.66,4.66,0,0,0,42.26,3a9.77,9.77,0,0,0,3.25-1.26A8.77,8.77,0,0,1,48.78,1a9,9,0,0,1,3.72.75.3.3,0,0,1,.18.25A9.41,9.41,0,0,1,56.5,4.25a6.16,6.16,0,0,1,1.71,3.19,4.64,4.64,0,0,1,0,1.78,2.26,2.26,0,0,1-.54,1.12,3.3,3.3,0,0,1,.57,1,4.47,4.47,0,0,1,5.43.72,4.84,4.84,0,0,1,5.9-.27c.8.51,1.76,1.49,1.67,2.36a4.11,4.11,0,0,1,3.94,3.18v0a.21.21,0,0,1-.4.09c-1-3-5.18-3.33-4.79-1.29a.26.26,0,0,1-.43.23c-.66-.61-.31-2,1.27-2.2-.42-.5-2.4-3.71-6-1.91-.26.14-.5.31-.79.44A.23.23,0,0,1,64,13c-.26.18-.82-.54-1.09-.76A3.76,3.76,0,0,0,57.06,14a2.63,2.63,0,0,0-3,.36c-.46.46-.87,1.13-.51,1.68.19.29.6.17.7.49a.25.25,0,0,1,0,.32.56.56,0,0,1-.69.2,8,8,0,0,0-2.79,1.39.58.58,0,0,1,.18.23.48.48,0,0,1-.26.64c-1.15.51-2.61,1.89-2.17,2s.65-.26.9-.48c.46-.39,1.07.21.85.7-1.41,3.14-2.31,5.89.48,8.22a.44.44,0,0,1,.15.32.43.43,0,0,1-.43.43,1.75,1.75,0,0,0-.92,2.51c.68,1.5,2.23,1.57,2.79,1.82a.42.42,0,0,1,.25.81c-.63.25-.88,1.24-.09,1.44a.93.93,0,0,0,.67-.13c.3-.13.76.15.54.69,1.21,1.17,2.65.34,2.16-.48a.3.3,0,0,1,0-.26.28.28,0,0,1,.36-.13c.45.19.69.68,1,.93a2.36,2.36,0,0,0,2.56.24c.34-.34.38-.51.57-.5s.3,0,.26.22-.42,1.51-2.11,1.66A2.73,2.73,0,0,1,56.84,39a2.12,2.12,0,0,1-.56.33A2.49,2.49,0,0,1,53,38a1.65,1.65,0,0,1-1.84-2.31c-3-.87-3.5-4.08-1.7-5.5a3.08,3.08,0,0,1-1.05-1.13,7.05,7.05,0,0,1,.16-6.59c-1.13,0-2.33-1.29.25-3.2,0-.68,2.29-2.25,4-2.65-.85-.95-.27-2.37,1-3.11a.65.65,0,0,1-.16-.13,2.23,2.23,0,0,1-.52-1.17.32.32,0,0,1-.24-.33A1,1,0,0,0,52.1,11a2.85,2.85,0,0,0-1.61,0,11.5,11.5,0,0,0-3.28,1.36c-1,.6-1.81,1.34-2.79,1.92a5.51,5.51,0,0,1-3.31.86,3.57,3.57,0,0,1-2.85-1.84.41.41,0,0,1,.1-.42.42.42,0,0,1,.44-.08,3,3,0,0,0,2.2-.23l-.37,0a19.11,19.11,0,0,1-2.93,0A5.4,5.4,0,0,1,33.52,9.9a8,8,0,0,1-1-3.08A.36.36,0,0,1,32.71,6.46Zm24.07,6.3a1.55,1.55,0,0,1-.48.36h0l.24.07Zm-2.33.45a3.52,3.52,0,0,1,.66-.15l-.34-.12-.13.05a.37.37,0,0,1-.18,0,.67.67,0,0,1,0,.2Zm-.24-.59h0a.33.33,0,0,1,0-.14l-.08,0ZM32.92,4.77a3.85,3.85,0,0,0,.84,1.5A6,6,0,0,0,36.67,7.8a11,11,0,0,0,6.51-.21,10.46,10.46,0,0,0,3.24-1.78c.48-.38,1,.38.55.75a11.87,11.87,0,0,1-6.75,2.55,11.71,11.71,0,0,1-3.64-.36A7.71,7.71,0,0,1,33.4,7.22,5.9,5.9,0,0,0,35.49,11a4.37,4.37,0,0,0,2.13.85,15.28,15.28,0,0,0,2.62,0,6.42,6.42,0,0,0,2.86-.66c.41-.22.71.43.38.7a6.82,6.82,0,0,1-3.92,1.83,3,3,0,0,0,1.9.67,5.42,5.42,0,0,0,3.13-1.14,31.05,31.05,0,0,1,2.9-1.93,10.77,10.77,0,0,1,3.43-1.19,2.77,2.77,0,0,1,1.87.3,1.82,1.82,0,0,1,.84,1.21c.42,0,.88-.32,1.23-.52a14.73,14.73,0,0,0,1.29-.82,3.54,3.54,0,0,1,.54-.39.42.42,0,0,1,.21-.16c.35-.14.4-.72.44-1a3.89,3.89,0,0,0-.1-1.4,5.35,5.35,0,0,0-1.48-2.48,8.49,8.49,0,0,0-2.69-1.65,13.94,13.94,0,0,0-3.18-.84,7,7,0,0,0-3.31.32,13.11,13.11,0,0,0-2.85,1.49C42.8,4.75,41.91,5.41,41,6a4.24,4.24,0,0,1-1.73.71,8.73,8.73,0,0,1-1.77,0,7.66,7.66,0,0,1-3.58-1.1,4.9,4.9,0,0,1-1-.84Z"/></g><path id="Path_25575" data-name="Path 25575" class="cls-1" d="M91,37.64a.72.72,0,0,0-.12-.21,1.15,1.15,0,0,0-1.66-1.18A2.19,2.19,0,0,0,88.17,38l-.18.14-.15.16c-.41.09-.82.17-1.26.23h-.12a.67.67,0,0,0-.34-.16c-1.23-.18-2.47-.29-3.71-.35a.77.77,0,0,0-.86.61l-.71.05a1,1,0,0,0-.93-.2,8.64,8.64,0,0,0-.85.31l-4.89.29a.6.6,0,0,0-.27.07l-.16,0a.74.74,0,1,0,.13,1.48h0l.54,0a12.17,12.17,0,0,0,2,.16,1.17,1.17,0,0,0,.29.93,1.18,1.18,0,0,0,1.61.09l.13-.1c.05,0,.06,0,0,0l.22-.14.6-.34.59-.28.34-.14.15-.05a1.83,1.83,0,0,0,.32-.14c1.14-.07,2.27-.17,3.4-.25h0a.89.89,0,0,0,.57.19A11.32,11.32,0,0,0,87.54,40h.09a.77.77,0,0,0,.29-.1l.52-.19a1.47,1.47,0,0,0,1-.06,1.54,1.54,0,0,0,.63-.47l.26-.1a.73.73,0,0,0,.46-.57h0A.76.76,0,0,0,91,37.64Z"/><path id="Path_25576" data-name="Path 25576" class="cls-1" d="M91.73,41.05A4.1,4.1,0,0,1,95,38.63,2.81,2.81,0,0,0,96,38.29c.37-.22.72-.47,1.08-.71a4.19,4.19,0,0,1,1-.63,1.11,1.11,0,0,1,1.09.45,4.06,4.06,0,0,1,1.13,2.28c.08.6-.85.69-.93.1a3.08,3.08,0,0,0-.35-1.06,2.74,2.74,0,0,0-.35-.49,1.07,1.07,0,0,0-.18-.19l-.2-.17h0a1.49,1.49,0,0,1-.31.2l-.6.41,0,0a.5.5,0,0,1-.3.44l-2.52,1.27a8.41,8.41,0,0,0-2.06,1.32.5.5,0,0,1-.61.1A.49.49,0,0,1,91.73,41.05Z"/><g id="Group_3571" data-name="Group 3571"><g id="Group_3557" data-name="Group 3557"><path id="Path_25577" data-name="Path 25577" class="cls-1" d="M55.69,41.32h0a.39.39,0,0,1,.3.46v0a.34.34,0,0,1-.41.27c-4.07-.75-6.63-3.94-9.1-7a23.56,23.56,0,0,0-5.1-5.21c-3.77-2.62-8-3.52-18-11.19a11.65,11.65,0,0,0,3.83,7c3.78,1.76,6.38,3.17,10,5.13a.28.28,0,0,1,.14.36.26.26,0,0,1-.35.14,24.35,24.35,0,0,1-9.89-5.13c-4.21-1.92-7.54-3.12-8.44-3.49s-1.29-.52-1.6-.22c-.93.9,1.8,2.8,2.87,3.5,2.2,1.41,3,1.21,2.87,1.81a.4.4,0,0,1-.34.32v0a26.19,26.19,0,0,1-2.71-.92,4.08,4.08,0,0,0,1.15,1.6,11.6,11.6,0,0,0,4.47,2.85,25.41,25.41,0,0,0,11.2,1.9,18.82,18.82,0,0,0,2.49-.17.31.31,0,0,1,.09.62c-.79.13-1.58.31-2.38.4a25.48,25.48,0,0,1-7.64-.53c-.34.58-7.94-1.5-11.17-3.26-.4-.22-.95-.51-1.26-.3-.73.49.54,1.74,1,2.25A13.53,13.53,0,0,0,23.66,36a51.58,51.58,0,0,1,7.24.47H31a.41.41,0,0,1,.1.82,15.67,15.67,0,0,1-7.23-.54c-3.24,0-4.19,0-4.63.46-.16.16-.43-.06-.27-.24.78-.86,1.38-.91,3-.95A17.81,17.81,0,0,1,17.48,33c-.67-.61-1.63-1.42-1.54-2.39a1.07,1.07,0,0,1,.72-1,1.91,1.91,0,0,1,1.38.27,46.67,46.67,0,0,0,7.08,2.64,14.75,14.75,0,0,1-3.6-2A5.67,5.67,0,0,1,20,28.93a7.46,7.46,0,0,1-.77-2.1.18.18,0,0,1,.05-.18A8.36,8.36,0,0,1,17.48,25c-.55-.6-1.3-1.43-1.1-2.35a1.17,1.17,0,0,1,.69-.84,1.73,1.73,0,0,1,1.3.11c2.52.91,5.13,2,7.77,3.18a14.07,14.07,0,0,1-2.09-3A14,14,0,0,1,22.69,18a.34.34,0,0,1,.06-.24.35.35,0,0,1,.48-.08c3.43,2.29,6.58,4.69,10.68,7,1.16.66,2.37,1.27,3.55,1.89,7.46,3.94,7.37,5.61,11.61,10.42A12,12,0,0,0,55.69,41.32Zm-27-14.49a22.43,22.43,0,0,0,5.83,3C32.75,28.81,30.83,27.83,28.7,26.83Z"/></g><g id="Group_3558" data-name="Group 3558"><path id="Path_25578" data-name="Path 25578" class="cls-1" d="M19,37.69v0h0S19,37.69,19,37.69Z"/></g><g id="Group_3559" data-name="Group 3559"><path id="Path_25579" data-name="Path 25579" class="cls-1" d="M19,37.82h0a.11.11,0,0,1-.12-.1v0l.06-.08h0a.11.11,0,0,1,.12.11v0l-.06.08Zm.07-.12a.09.09,0,0,0-.09-.08.09.09,0,0,0-.08.1.09.09,0,0,0,0,.06.09.09,0,0,0,.13,0A.13.13,0,0,0,19.06,37.7Z"/></g><g id="Group_3560" data-name="Group 3560"><path id="Path_25580" data-name="Path 25580" class="cls-1" d="M19.27,37.79a2.66,2.66,0,0,0,1.14.7.13.13,0,0,1,.08.17.13.13,0,0,1-.11.09,2.19,2.19,0,0,1-1.3-.79A.13.13,0,1,1,19.27,37.79Z"/></g><g id="Group_3561" data-name="Group 3561"><path id="Path_25581" data-name="Path 25581" class="cls-1" d="M28.71,49.1c-1.79-.39-2.07-1.76-1-3.16-2.36.15-6.9-.44-6-2.58C22,42.58,23.07,42.23,24,42a19,19,0,0,1-3.48-1,.15.15,0,0,1-.05-.22.14.14,0,0,1,.15-.08,15.26,15.26,0,0,0,4.52,1,18.1,18.1,0,0,1,5.24-.41.31.31,0,0,1,.27.37.32.32,0,0,1-.23.27,16.32,16.32,0,0,1-4.73.28,10.64,10.64,0,0,0-3.1,1.06.68.68,0,0,0-.2.93.69.69,0,0,0,.23.22,9.67,9.67,0,0,0,6.05.59,5.1,5.1,0,0,1,3.56-1.14.44.44,0,0,1,.41.47.44.44,0,0,1-.24.37,12.49,12.49,0,0,1-3.68,1.14c-.73.6-1.52,1.78-.78,2.35a1.44,1.44,0,0,0,.95.21A10.43,10.43,0,0,0,31.69,48a4.89,4.89,0,0,1,3.55-1.47c.47,0,.51.59.18.8a10.76,10.76,0,0,1-3.34,1.48c-1.83,2.23.43,2.57,3.38,1.06a1.69,1.69,0,0,1,.49-.47,4.51,4.51,0,0,1,1.82-1.22.39.39,0,0,1,.42.65,9.19,9.19,0,0,1-1.79,1.38c-1.08,2.12,2.49,4.16,4.78.46.1-.2.21-.39.31-.56A.4.4,0,0,1,42,50h0a.5.5,0,0,1,.21.67l-.2.37a2.2,2.2,0,0,0-.32,1.6,1.3,1.3,0,0,0,1.13.8c1.32.17,2.29-1,3.06-2.15.27-.42,1-.09.79.39a3.1,3.1,0,0,0-.42,2c.42,1.39,2.7.53,4-.8.11-.91.93-1.45,1.27-1,.19.24,0,.44-.22.8-.09.15-.17.3-.27.44a1.3,1.3,0,0,0,1.57.94l.26-.1a.23.23,0,0,1-.16-.26s0,0,0,0a15.5,15.5,0,0,0,1.41-4.35,1.14,1.14,0,0,1-.48-.56,3.51,3.51,0,0,1-3.09.67,14.85,14.85,0,0,1-2.69,4.13.23.23,0,0,1-.32-.05.24.24,0,0,1,0-.23c.44-.77,1-1.47,1.48-2.21s.71-1.21,1-1.84a1.48,1.48,0,0,1-.84-1,6.07,6.07,0,0,1-.82.48c-2.28,1.12-3.3.18-3.34-.93v-.16a2.18,2.18,0,0,1-3.34-2.22c-2,.65-4-.55-3.56-2.3-3.1.39-4.73-1.7-4.07-3.17A2.47,2.47,0,0,1,31.92,38c-.25-1.18.43-2.76,2.9-2.35a.23.23,0,0,1,.2.22c0,.23-.22.25-.32.27a3.28,3.28,0,0,0-1.48.54c-.78.64-.33,2.44,1.82,2.38a1.44,1.44,0,0,1,.62,0,.44.44,0,0,1,.35.5.44.44,0,0,1-.35.35,4.85,4.85,0,0,1-.53.08c-.51.29-.57,1.21.56,1.87a4.05,4.05,0,0,0,1.56.48,6.12,6.12,0,0,0,1.54-.11l.23-.14c.42-.2.81.48.38.71s-.48,1.41.59,1.73a3,3,0,0,0,2.13-.21,3.76,3.76,0,0,1,.44-.68.38.38,0,0,1,.48-.1.34.34,0,0,1,.2.4,1.82,1.82,0,0,1-.47.86,1.64,1.64,0,0,0,.41,2c.89.61,2-.21,2.73-1a.46.46,0,0,1,.63,0,.39.39,0,0,1,0,.55h0l0,.06a2,2,0,0,0-.66,1.3.65.65,0,0,0,.22.51c.5.42,1.66-.07,2.24-.36s.85-.5,1.27-.76c.26-.16.56-.07.45.2a1.9,1.9,0,0,1-.2.34c.08.74.64.85,1.16,1a2.52,2.52,0,0,0,2.41-.68,4.23,4.23,0,0,0,.71-1.1.36.36,0,0,1,.47-.17.35.35,0,0,1,.2.37,2.58,2.58,0,0,1-.54,1.19c.05.42.55.5,1.17.11A3.82,3.82,0,0,0,57,46.34a.4.4,0,0,1,.52-.18.39.39,0,0,1,.2.48,4.37,4.37,0,0,1-.31.78.76.76,0,0,0,.36.9c.65.27,1.43-.9,1.8-1.49.48-.76.56-.8.66-.76a.13.13,0,0,1,.09.11,3.29,3.29,0,0,1-2.24,3,1.33,1.33,0,0,1-1.35-.79,3,3,0,0,1-1.87,1,8.48,8.48,0,0,1-1.72,4.42,6.06,6.06,0,0,0,2.68-2.71l0-.08c.22-.42.89-.09.73.35a2.54,2.54,0,0,0-.18,2c.41.81,1.59.52,2.4-1.31a3.86,3.86,0,0,1,.46-2.66.3.3,0,0,1,.34-.17.27.27,0,0,1,.21.28c0,.2,0,.39,0,.58a5.35,5.35,0,0,1-.18,1.78c1,1.9,3.86-1.13,3-4.84a.27.27,0,0,1,.13-.37l0,0a.29.29,0,0,1,.36.2c1.09,3.46-1.87,7.9-3.88,6-1.4,3.08-3.89,2-4,.12-2,2.5-4.27,2.08-4.87.92-2.18,2.14-5,1.88-5.12-.42-1.91,1.77-4.21.87-4.56-.7-2.44,2.28-6,1-5.63-1.89-1.59.6-4,.89-4.39-.79a1.52,1.52,0,0,1,.21-1,5.9,5.9,0,0,1-.59.06A5.84,5.84,0,0,1,28.71,49.1Z"/></g><g id="Group_3562" data-name="Group 3562"><path id="Path_25582" data-name="Path 25582" class="cls-1" d="M48.75,41.08c.52-.08,1-.36,1.53-.47a.24.24,0,0,1,.18.43,2.92,2.92,0,0,1-3.82.15,1.42,1.42,0,0,1-.3-1.45c-1.91.1-3.61-1.34-2.82-2.53a4.65,4.65,0,0,1-1.89-1.45.9.9,0,0,1,.18-1.25,7.57,7.57,0,0,1-1.22-1.18c-.24-.3-.67-.82-.37-1.24h0c.31-.43.94-.27.85.2a.9.9,0,0,0,.55,1.14c.53.28,1,.78,1.48,1.09l.34.2c.37.22,0,.82-.36.62-.18-.1-.74-.47-.85-.19s.45.61.6.73a4.49,4.49,0,0,0,1.89.91h0a.39.39,0,0,1,.21.47.37.37,0,0,1-.44.28h0l-.06,0c-.29-.08-.69.71.78,1.26a3.38,3.38,0,0,0,1.89.12c.93-.47,1,.3.68.47a3.24,3.24,0,0,1-.71.27.86.86,0,0,0-.13.42C46.93,40.61,47.64,41.26,48.75,41.08Z"/></g><g id="Group_3563" data-name="Group 3563"><path id="Path_25583" data-name="Path 25583" class="cls-1" d="M55.41,46.73c-.08-.11-.06-.16.36-.74,1-1.38.52-1.86.71-2.5.11-.39,1,.15.4,1.84C56.48,46.58,55.58,47,55.41,46.73Z"/></g><g id="Group_3564" data-name="Group 3564"><path id="Path_25584" data-name="Path 25584" class="cls-1" d="M52.23,47.51a.17.17,0,0,1-.2-.15.18.18,0,0,1,0-.14,8.92,8.92,0,0,0,2.21-3.46c.11-.3.55-.13.47.17A5.79,5.79,0,0,1,52.23,47.51Z"/></g><g id="Group_3565" data-name="Group 3565"><path id="Path_25585" data-name="Path 25585" class="cls-1" d="M51.34,42.72c.59.28-1.8,3.58-3.68,4a.18.18,0,0,1-.22-.11c-.11-.22.09-.33.7-.71a7.21,7.21,0,0,0,2.5-2.47C50.76,43.23,51.12,42.61,51.34,42.72Z"/></g><g id="Group_3566" data-name="Group 3566"><path id="Path_25586" data-name="Path 25586" class="cls-1" d="M41.74,38.43h0a.21.21,0,0,1,.28-.11.22.22,0,0,1,.1.28,3,3,0,0,1-1.58,1.69.14.14,0,0,1-.19-.09.16.16,0,0,1,0-.16A5.66,5.66,0,0,0,41.74,38.43Z"/></g><g id="Group_3567" data-name="Group 3567"><path id="Path_25587" data-name="Path 25587" class="cls-1" d="M40.33,38.69a.16.16,0,0,1,.29.13c-.68,1.9-2.76,2.48-2.64,1.77.05-.32.85-.48,1-.54A3.06,3.06,0,0,0,40.33,38.69Z"/></g><g id="Group_3568" data-name="Group 3568"><path id="Path_25588" data-name="Path 25588" class="cls-1" d="M38.86,39.48c-1.47,1.16-1.45,1.32-1.85,1.36a.25.25,0,0,1-.27-.22.36.36,0,0,1,0-.11c.15-.36.57-.53.85-.7.88-.53,1.1-.88,1.29-.63A.22.22,0,0,1,38.86,39.48Z"/></g><g id="Group_3569" data-name="Group 3569"><path id="Path_25589" data-name="Path 25589" class="cls-1" d="M36.07,32a41.87,41.87,0,0,1-13.88-5.7.22.22,0,0,1,.23-.37c1.71.89,3.39,1.89,5.15,2.71a53.24,53.24,0,0,0,8.4,3c.14,0,.3.06.27.22A.15.15,0,0,1,36.07,32Z"/></g><g id="Group_3570" data-name="Group 3570"><path id="Path_25590" data-name="Path 25590" class="cls-1" d="M46,32.29h0c-.51-.69-1.07-1.35-1.6-2A21.8,21.8,0,0,0,40,26.41C30.48,19,30.91,16.68,29.8,14.62a3.49,3.49,0,0,0-.55,2.75A14.57,14.57,0,0,0,31,21.15c.17.32-.3.55-.53.31-3.11-3.29-2.51-6.37-.76-7.64a.33.33,0,0,1,.45.08.5.5,0,0,1,.05.13c.05.2,0,.4.07.6a11.41,11.41,0,0,0,1.9,3.64c3.15,4.42,6.09,5.61,10.41,9.83a19.17,19.17,0,0,1,3.62,4,.16.16,0,0,1,0,.21A.15.15,0,0,1,46,32.29Z"/></g></g><path id="Path_25605" data-name="Path 25605" class="cls-1" d="M99.17,38.71v0a1.37,1.37,0,0,0-.6-.85,2,2,0,0,0-2.5.58,6.12,6.12,0,0,0-.41.48l-.07.07-.08.1a7,7,0,0,1-.77.67A11,11,0,0,0,93.19,41a2.57,2.57,0,0,0-.21.24l-.35.2A30.09,30.09,0,0,1,89.49,43l-.39.15h0l-.19.07c-.29.09-.58.17-.88.24l-.45.09a1.09,1.09,0,0,0-1-.92l-2.23.1a4.38,4.38,0,0,0-3.19-1.15A9.63,9.63,0,0,0,77.05,43a1.16,1.16,0,0,0-.59,1.26v0c-1.17.08-2.35.21-3.52.37-.94.14-1.89.3-2.83.49l-.18.06-1.87.13a1.24,1.24,0,0,0-.82.3.75.75,0,0,0-.15.16,15.18,15.18,0,0,0-3.46.76,10.65,10.65,0,0,0-3.75,2.19,1.15,1.15,0,0,0,1.53,1.71c.21-.2.43-.38.66-.56l.17-.12h0l.42-.26a9.9,9.9,0,0,1,1.54-.74.52.52,0,0,0,.16-.06l.38-.12a9.32,9.32,0,0,1,.91-.23,14.52,14.52,0,0,1,1.73-.29l.42,0h0L68,48c.29,0,.58,0,.88,0,.64,0,1.27,0,1.91,0,1.45.07,2.9.21,4.35.29a27.17,27.17,0,0,0,5.18-.11.76.76,0,0,0,.32-.11,1.17,1.17,0,0,0,1.35.85l3.92-1.1a30.81,30.81,0,0,1,3.79-.93l.82-.1h0l.24,0,.46,0c.63,0,1.26-.07,1.89-.16a5.44,5.44,0,0,0,3.28-1.43,2.61,2.61,0,0,0,.76-2.41c0-.05,0-.1,0-.15a1.15,1.15,0,0,0,.82-1l0,0h0a1.19,1.19,0,0,0,1-.51A2.35,2.35,0,0,0,99.6,40,1.3,1.3,0,0,0,99.17,38.71Z"/></g><g id="Group_3588" data-name="Group 3588"><path id="Path_25607" data-name="Path 25607" class="cls-1" d="M82.56,30a2.93,2.93,0,0,0,2.35-.26,6.22,6.22,0,0,1,4.31-.62c1.34.32,1.92,1.4,2.34,2.66a3.9,3.9,0,0,0,1.83,2.09c.13.09.59-.72.37-.87a4.23,4.23,0,0,1-1.88-2.35,3.49,3.49,0,0,0-2.35-2.3,5.32,5.32,0,0,0-3.3.15c-1.29.41-2.08,1.11-3.42.87C82.64,29.37,82.41,30,82.56,30Z"/><path id="Path_25608" data-name="Path 25608" class="cls-1" d="M92,36a3.24,3.24,0,0,0-3.43.15,7.06,7.06,0,0,0-2,3c-.26.55.16.69.4.13a4.63,4.63,0,0,1,2.16-2.83,4.93,4.93,0,0,1,2.64,0C92,36.58,92.18,36.09,92,36Z"/><path id="Path_25609" data-name="Path 25609" class="cls-1" d="M83.57,38.6c1.51-2,1.28-6.18-1.33-6.53-.27,0-.56.87-.35.89A2.6,2.6,0,0,1,84,35a8.35,8.35,0,0,1-.47,3.54C83.49,38.64,83.53,38.65,83.57,38.6Z"/><path id="Path_25610" data-name="Path 25610" class="cls-1" d="M89.13,32.34c.48-1-.49-1.69-1.31-1.61-1.18.1-1.86,1.81-1.7,2.81s1.71,1.25,2.51.58a2.56,2.56,0,0,0,.81-1.41c.09-.44.08-1.11-.34-1.29a.17.17,0,0,0-.1,0c-.6.51.06.94,0,1.49-.11.89-1.41.8-1.88.61a.94.94,0,0,1-.58-1,1.23,1.23,0,0,1,.93-1,1.14,1.14,0,0,1,1,.17c.11.05.63.41.58.61S89.06,32.48,89.13,32.34Z"/><path id="Path_25611" data-name="Path 25611" class="cls-1" d="M82.62,30.3a.79.79,0,0,0,.13,1.12l0,0c1.18,1,2.31,1.43,2.71,3.2.24,1.07-1,3,.13,3.65,1,.58,2.69-1.69,3.32-2.25,0,0,.08-.16,0-.13-1,.63-1.66,1.78-2.77,2.09s-.4-3-.62-3.94a3.71,3.71,0,0,0-1.39-2c-.44-.3-2-.8-1.55-1.67C82.66,30.34,82.67,30.22,82.62,30.3Z"/><path id="Path_25612" data-name="Path 25612" class="cls-1" d="M83.8,32a5.69,5.69,0,0,0-.89,1.07s-.06.19,0,.14a2.73,2.73,0,0,0,.41-.48l.47-.54S83.9,31.89,83.8,32Z"/><path id="Path_25613" data-name="Path 25613" class="cls-1" d="M84.38,32.4a3,3,0,0,0-1,1.13s0,.13,0,.09a3.49,3.49,0,0,0,.37-.47,4.59,4.59,0,0,1,.54-.54S84.45,32.34,84.38,32.4Z"/><path id="Path_25614" data-name="Path 25614" class="cls-1" d="M84.65,32.89A3.06,3.06,0,0,0,83.72,34s0,.1,0,.08.24-.28.33-.4a4.25,4.25,0,0,1,.55-.57S84.73,32.83,84.65,32.89Z"/><path id="Path_25615" data-name="Path 25615" class="cls-1" d="M85.12,33.36A6.41,6.41,0,0,0,84,34.66s0,.14,0,.12a1.79,1.79,0,0,0,.46-.49c.23-.26.45-.51.68-.75C85.16,33.5,85.21,33.27,85.12,33.36Z"/><path id="Path_25616" data-name="Path 25616" class="cls-1" d="M85.45,33.92a6.64,6.64,0,0,0-1.4,1.59s0,.18,0,.13a4.5,4.5,0,0,0,.57-.66,8.93,8.93,0,0,1,.78-.85S85.51,33.86,85.45,33.92Z"/><path id="Path_25617" data-name="Path 25617" class="cls-1" d="M85.4,34.79A8.75,8.75,0,0,0,84,36.61s0,.11,0,.08a6,6,0,0,0,.64-.79c.25-.31.52-.61.77-.93C85.44,34.92,85.48,34.69,85.4,34.79Z"/><path id="Path_25618" data-name="Path 25618" class="cls-1" d="M85.45,35.71A9.41,9.41,0,0,0,84,37.44s-.07.23,0,.14.42-.53.63-.79l.76-.89C85.49,35.84,85.53,35.61,85.45,35.71Z"/><path id="Path_25619" data-name="Path 25619" class="cls-1" d="M85.41,36.76a5.49,5.49,0,0,0-1.5,1.68s-.06.27,0,.16a14.17,14.17,0,0,1,1.43-1.67S85.46,36.73,85.41,36.76Z"/><path id="Path_25620" data-name="Path 25620" class="cls-1" d="M85.55,37.66a4.77,4.77,0,0,0-.9,1.14s0,.14,0,.11a1.82,1.82,0,0,0,.38-.45l.5-.6S85.65,37.54,85.55,37.66Z"/><path id="Path_25621" data-name="Path 25621" class="cls-1" d="M86.4,37.8c-.21.25-.44.48-.66.73a1.44,1.44,0,0,0-.4.6s0,.13,0,.09a2.54,2.54,0,0,0,.41-.52L86.4,38C86.45,38,86.51,37.69,86.4,37.8Z"/><path id="Path_25622" data-name="Path 25622" class="cls-1" d="M87.24,37.74a5.75,5.75,0,0,0-1.35,1.75s0,.14,0,.08c.22-.23.39-.54.6-.8s.47-.54.71-.8C87.28,37.91,87.35,37.63,87.24,37.74Z"/></g></g><g id="Group_1096" data-name="Group 1096"><g id="Group_1090" data-name="Group 1090"><path id="Path_8924" data-name="Path 8924" class="cls-1" d="M45,74.45a5.21,5.21,0,0,1-3,.49,6,6,0,0,1-9,1.43A6.57,6.57,0,0,1,32,67a6,6,0,0,1,5.57-2,5.43,5.43,0,0,1,7.64-.59,6.39,6.39,0,0,1,1.88,8A5,5,0,0,1,45,74.45Zm-3.08.27h.06a5,5,0,0,0,5.67-5.11,6.44,6.44,0,0,0-5-6.19,5,5,0,0,0-4.9,1.78.09.09,0,0,1-.09,0A5.85,5.85,0,0,0,30.79,70a6.36,6.36,0,0,0,5.44,7.45,5.75,5.75,0,0,0,5.61-2.73S41.87,74.73,41.88,74.72Z"/></g><g id="Group_1091" data-name="Group 1091"><path id="Path_8925" data-name="Path 8925" class="cls-1" d="M36,72.79a1.08,1.08,0,0,1-.48.43l-.11,0-.2-.51-.49.21.23.57c0,.08-.17.36-.47.49l-.1,0-1.68-4.23.81,0,.39-.16.17-.48.86.26a.39.39,0,0,1-.19.23Zm-.87-.22L34,69.88l-.47.19,1.09,2.71Zm4-1.47s.52.19.84.33a.16.16,0,0,1-.12.17l-1,.45.54,1.24c0,.06-.22.32-.49.45l-.13.06-.61-1.44L36,73.28l-.12-.17L38,72.18l-.47-1.1.94-.29c0,.08,0,.15-.14.24l.37.84.27-.12Zm-2.55.32s-.12.29-.45.43L36,71.9,34.79,69h.85L36,68.9c-.06-.26-.14-.63-.21-.88l1-.17c0,.1,0,.18-.18.24s-.24.47-.36.69l1.09-.43.15-.46.84.25a.41.41,0,0,1-.17.2L39,70.26c0,.06-.23.33-.45.43l-.11,0-.11-.25-.79.33c0,.57-.34,1.21-1.38,2l-.08-.06A2.41,2.41,0,0,0,37,71.07l-.47.2Zm-.92-2.18L36,70l.62-.25L36.25,69ZM37,70.86a2.92,2.92,0,0,0-.22-.75L36.67,70l-.62.26.36.87Zm1.34-.56-.37-.85-.63.26.07.14a2.47,2.47,0,0,1,.21.75Zm-1.41-1.56.34.79.62-.26-.34-.78Z"/></g><g id="Group_1092" data-name="Group 1092"><path id="Path_8926" data-name="Path 8926" class="cls-1" d="M43.93,66.13l.93.31c0,.07,0,.12-.1.15l-1,.41A5,5,0,0,1,44,69.35c2.55,0,2.32,1.18,1.64,1.15A7.38,7.38,0,0,0,43.86,70a5.52,5.52,0,0,1-2.21,2.45l-.07-.06a5.37,5.37,0,0,0,1.66-2.47,13.69,13.69,0,0,0-1.92-.06c0-.59-.08-1.19-.16-1.77l-1.2.49-.13-.16,1.31-.53c-.09-.73-.2-1.43-.29-1.8l1-.1c0,.06,0,.14-.17.2.05.34.12.84.18,1.4L43,67.11c-.09-.25-.2-.51-.3-.76l1-.15c0,.11,0,.18-.14.23.05.13.1.26.14.39l.09,0Zm-2,1.64c.08.61.14,1.26.16,1.79.49-.08.91-.14,1.29-.17a4.8,4.8,0,0,0-.26-2.11Z"/></g><g id="Group_1093" data-name="Group 1093"><path id="Path_8927" data-name="Path 8927" class="cls-1" d="M45.34,75.4a5.86,5.86,0,0,1-2.88.65A6.84,6.84,0,0,1,40,78.13a7.43,7.43,0,1,1-5.82-13.66h0a6.89,6.89,0,0,1,2.89-.34,5.67,5.67,0,0,1,2.25-1.42c3.07-1.06,6.69.59,8.33,3.74,1.72,3.31.79,7.34-2.35,9Zm-3.07.21s0,0,.09,0A5.64,5.64,0,0,0,45.15,75c3-1.5,3.87-5.28,2.27-8.41A6.68,6.68,0,0,0,39.57,63h0a5.21,5.21,0,0,0-2.17,1.41.18.18,0,0,1-.16,0,6.43,6.43,0,0,0-2.82.33,7,7,0,1,0,5.43,12.88l0,0a6.45,6.45,0,0,0,2.35-2A.13.13,0,0,1,42.27,75.61Z"/></g><g id="Group_1095" data-name="Group 1095"><g id="Group_1094" data-name="Group 1094"><path id="Path_8928" data-name="Path 8928" class="cls-1" d="M40.34,81.07l-.11,0-.14,0h-.27a.23.23,0,0,1-.2-.21l-.25-1.5a.14.14,0,0,1,0-.11.27.27,0,0,1,.08-.07,1,1,0,0,1,.23-.11L40,79a.93.93,0,0,1,.57,0,.47.47,0,0,1,.26.38.39.39,0,0,1,0,.26.38.38,0,0,1-.16.19.54.54,0,0,1,.26.11.47.47,0,0,1,.14.28.57.57,0,0,1-.12.52A1.05,1.05,0,0,1,40.34,81.07Zm-.26-.42h.1l.12,0a.32.32,0,0,0,.18-.1.19.19,0,0,0,0-.18.17.17,0,0,0-.09-.14.31.31,0,0,0-.19,0l-.23.05Zm-.14-.78.21,0a.26.26,0,0,0,.16-.09.23.23,0,0,0,0-.16.18.18,0,0,0-.09-.13.31.31,0,0,0-.19,0l-.1,0-.08,0Z"/><path id="Path_8929" data-name="Path 8929" class="cls-1" d="M41.24,79.08a.28.28,0,0,1,.12-.35l0,0,.85-.31a.21.21,0,0,1,.06.08.37.37,0,0,1,0,.11.2.2,0,0,1,0,.17.13.13,0,0,1-.1.09l-.54.2.08.28.59-.21.06.07a1.17,1.17,0,0,1,0,.11.28.28,0,0,1,0,.18.16.16,0,0,1-.09.09l-.48.18.1.32.67-.25.06.07a.41.41,0,0,1,.06.29.19.19,0,0,1-.1.1l-.77.29a.24.24,0,0,1-.32-.15s0,0,0,0Z"/><path id="Path_8930" data-name="Path 8930" class="cls-1" d="M42.78,78.48a.28.28,0,0,1,.08-.36l0,0,.79-.4.07.06.06.1a.29.29,0,0,1,0,.18.16.16,0,0,1-.09.09l-.5.27.11.26.54-.28.07.06.06.1a.36.36,0,0,1,0,.18.12.12,0,0,1-.08.09l-.44.24.13.3.62-.33.06.07a.21.21,0,0,1,.06.1.28.28,0,0,1,0,.18.16.16,0,0,1-.08.1l-.71.37a.22.22,0,0,1-.32-.1s0,0,0,0Z"/><path id="Path_8931" data-name="Path 8931" class="cls-1" d="M45.07,78.27l.29.5-.06.07-.1.09-.09,0L45,79A.2.2,0,0,1,45,79l-.08-.1-.71-1.24a.19.19,0,0,1,0-.1.3.3,0,0,1,0-.1.8.8,0,0,1,.15-.17,1.56,1.56,0,0,1,.2-.16.7.7,0,0,1,.53-.16.54.54,0,0,1,.39.29.62.62,0,0,1,.09.32.73.73,0,0,1-.06.3l.29.13.24.11a.34.34,0,0,1,0,.2.24.24,0,0,1-.1.14l-.08,0a.14.14,0,0,1-.09,0l-.08,0-.08,0-.39-.22ZM45,77.82a.21.21,0,0,0,.1-.14.23.23,0,0,0,0-.18.19.19,0,0,0-.14-.11.23.23,0,0,0-.19.07l0,0,0,0,.22.39Z"/><path id="Path_8932" data-name="Path 8932" class="cls-1" d="M47.1,76.39a.72.72,0,0,1,.14.26.8.8,0,0,1,0,.27.77.77,0,0,1-.07.26.88.88,0,0,1-.41.42.53.53,0,0,1-.25.05.63.63,0,0,1-.23-.08.83.83,0,0,1-.22-.2l-.68-.89.06-.07a.24.24,0,0,1,.08-.09.27.27,0,0,1,.08-.07l.08,0,.08,0a.24.24,0,0,1,.08.09l.54.7a.35.35,0,0,0,.19.13.25.25,0,0,0,.25-.25.31.31,0,0,0-.09-.22l-.67-.87.06-.08.08-.09.08-.06.07,0,.08,0a.24.24,0,0,1,.08.09Z"/></g></g><path id="Ellipse_83" data-name="Ellipse 83" class="cls-1" d="M38,80a.49.49,0,0,1,.67.28.61.61,0,0,1-.25.76.47.47,0,0,1-.67-.27A.61.61,0,0,1,38,80Z"/><path id="Ellipse_84" data-name="Ellipse 84" class="cls-1" d="M47.66,74.94a.44.44,0,0,1,.59.25.48.48,0,0,1-.15.65.45.45,0,0,1-.59-.26A.48.48,0,0,1,47.66,74.94Z"/></g></g></g></g></svg>