<svg xmlns="http://www.w3.org/2000/svg" viewBox="0 0 35.28 23.56"><defs><style>.cls-1{fill:#7c4821;}</style></defs><g id="圖層_2" data-name="圖層 2"><g id="event"><g id="sea_animel_1"><path class="cls-1" d="M27.4,5.41a.35.35,0,0,1-.14-.47,1.76,1.76,0,0,1,.6-.67c.18-.1.34-.21.54-.07a.53.53,0,0,1,.16.58A1,1,0,0,1,27.4,5.41Z"/><path class="cls-1" d="M27.64,5.58a.82.82,0,0,1-.28,0h0a.45.45,0,0,1-.24-.28.42.42,0,0,1,0-.38l0,0a1.74,1.74,0,0,1,.61-.66l0,0a.52.52,0,0,1,.63,0,.63.63,0,0,1,.21.7,1,1,0,0,1-.54.65A1,1,0,0,1,27.64,5.58Zm-.19-.28A.72.72,0,0,0,28,5.23a.82.82,0,0,0,.41-.48.39.39,0,0,0-.12-.45c-.1-.08-.18,0-.36,0l0,0A1.46,1.46,0,0,0,27.4,5l0,0a.22.22,0,0,0,0,.18.19.19,0,0,0,.09.12Z"/><path class="cls-1" d="M18,16.44a1.51,1.51,0,0,1-1.14.74.19.19,0,0,1-.16-.32c.24-.23.5-.46.76-.68a.3.3,0,0,1,.2-.08.53.53,0,0,1,.31.06C18,16.2,18,16.34,18,16.44Zm-.24,0-.11-.12-.63.56.07.08Z"/><path class="cls-1" d="M16.88,17.31h0a.39.39,0,0,1-.3-.18.34.34,0,0,1,.05-.36c.27-.26.55-.5.76-.68a.46.46,0,0,1,.28-.12.63.63,0,0,1,.4.09c.09.07.08.19.08.29a.25.25,0,0,0,0,.08.08.08,0,0,1,0,.07A1.67,1.67,0,0,1,16.88,17.31Zm0-.47-.11.11a.09.09,0,0,0,0,.07.13.13,0,0,0,.09,0L17,17l0,0-.07-.08A.12.12,0,0,1,16.89,16.84Zm.88-.29-.48.38A1.5,1.5,0,0,0,17.77,16.55Zm0-.33.09.1a.08.08,0,0,1,0,0v0a.34.34,0,0,0,0-.11Z"/><path class="cls-1" d="M16.1,15.3a1.75,1.75,0,0,1,.83-.75,1.32,1.32,0,0,1,.44-.18c.07,0,.19.08.24.15a.25.25,0,0,1-.06.23q-.47.38-1,.72a.31.31,0,0,1-.2.09.44.44,0,0,1-.26-.07C16.08,15.45,16.1,15.33,16.1,15.3Zm1.39-.69a1.18,1.18,0,0,0-1.1.73Z"/><path class="cls-1" d="M16.39,15.69a.54.54,0,0,1-.35-.11.31.31,0,0,1-.07-.25.29.29,0,0,1,0-.09,1.84,1.84,0,0,1,.87-.8,1.61,1.61,0,0,1,.49-.19.44.44,0,0,1,.36.2.35.35,0,0,1-.08.4l-1,.73A.58.58,0,0,1,16.39,15.69Zm-.17-.28.08,0a.15.15,0,0,1,0-.13.76.76,0,0,1,.09-.18,1.1,1.1,0,0,0-.14.21h0v.08Z"/><path class="cls-1" d="M21.33,12.08c.23-.24.45-.48.69-.7a.93.93,0,0,1,.32-.24.3.3,0,0,1,.25,0,.37.37,0,0,1,0,.29c-.07.1-.21.16-.3.24s-.22.22-.33.32a2.73,2.73,0,0,1-.37.32.28.28,0,0,1-.22,0S21.35,12.17,21.33,12.08Z"/><path class="cls-1" d="M21.52,12.46a.43.43,0,0,1-.2-.06.28.28,0,0,1-.1-.21.28.28,0,0,0,0-.09.11.11,0,0,1,0-.11l.2-.21.49-.49a1.41,1.41,0,0,1,.36-.27c.09,0,.34-.07.41.06a.48.48,0,0,1,0,.42.93.93,0,0,1-.21.19l-.11.08-.18.17-.15.15-.06.05a2.31,2.31,0,0,1-.33.28A.33.33,0,0,1,21.52,12.46Zm0-.26a.06.06,0,0,0,.06,0,2,2,0,0,0,.29-.24l.06-.06.14-.14.19-.18.14-.1a.58.58,0,0,0,.14-.12.17.17,0,0,0,0-.12H22.4a1,1,0,0,0-.3.22l-.48.49-.15.16v.08Z"/><path class="cls-1" d="M10.19,17.88a.63.63,0,0,1-.62.31A2.51,2.51,0,0,1,9,18.14c-.07,0-.17-.12-.17-.18s.06-.24.12-.26A7.48,7.48,0,0,1,10,17.58.24.24,0,0,1,10.19,17.88Zm-1.1-.05V18l.87-.1,0-.12Z"/><path class="cls-1" d="M9.48,18.32a2.78,2.78,0,0,1-.54-.06.36.36,0,0,1-.28-.3c0-.09.07-.35.23-.38A5.93,5.93,0,0,1,10,17.46a.39.39,0,0,1,.29.14.37.37,0,0,1,.06.32s0,0,0,0a.77.77,0,0,1-.72.38Zm-.11-.25h.2A1,1,0,0,0,9.9,18ZM9,17.82a.33.33,0,0,0-.05.15L9,18H9a.08.08,0,0,1,0,0v-.16Zm1.23.06Z"/><path class="cls-1" d="M19.16,14.57c.17.32.15.36-.14.56s-.42.3-.64.41a.37.37,0,0,1-.35,0c-.13-.1,0-.24.06-.34A1.47,1.47,0,0,1,19.16,14.57Zm-.9.69.07.1.64-.5-.07-.08Z"/><path class="cls-1" d="M18.25,15.69a.49.49,0,0,1-.3-.09.25.25,0,0,1-.11-.2.45.45,0,0,1,.16-.32,1.63,1.63,0,0,1,1.15-.64.14.14,0,0,1,.12.07c.19.38.17.49-.19.72l-.2.14a3.4,3.4,0,0,1-.45.28A.34.34,0,0,1,18.25,15.69Zm-.11-.4a.2.2,0,0,0-.05.09.3.3,0,0,0,.14.06h0l-.06-.1A.05.05,0,0,1,18.14,15.29Zm.86-.58.07.08a.13.13,0,0,1,0,.09.09.09,0,0,1,0,.06c.1-.07.09-.11,0-.24Z"/><path class="cls-1" d="M16.79,16.26a1.83,1.83,0,0,1-1.24.85c-.18,0-.28-.11-.17-.26a1.9,1.9,0,0,1,.44-.41,6,6,0,0,1,.7-.39.24.24,0,0,1,.22,0C16.79,16.09,16.78,16.2,16.79,16.26Zm-1.16.56c.56-.16.81-.25.87-.63Z"/><path class="cls-1" d="M15.51,17.24a.32.32,0,0,1-.27-.14.31.31,0,0,1,0-.33,2.19,2.19,0,0,1,.47-.43,5.47,5.47,0,0,1,.71-.41.36.36,0,0,1,.36,0,.33.33,0,0,1,.09.23v0a.11.11,0,0,1,0,.1,2,2,0,0,1-1.33.91Zm0-.36,0,0a.1.1,0,0,0,0,0s0,0,.07,0a1.24,1.24,0,0,0,.48-.16l-.35.11A.13.13,0,0,1,15.52,16.88Zm1.1-.74a.2.2,0,0,1,0,.07.64.64,0,0,1,0,.07l.05-.06h0s0-.07,0-.08S16.64,16.14,16.62,16.14Z"/><path class="cls-1" d="M13.87,16.5a1.41,1.41,0,0,1,1-.75.32.32,0,0,1,.25.11c0,.05.05.21,0,.24a10.25,10.25,0,0,1-.91.68c-.06,0-.22,0-.3-.07S13.87,16.53,13.87,16.5ZM15,16l0-.07a.8.8,0,0,0-.78.67Z"/><path class="cls-1" d="M14.13,16.92a.58.58,0,0,1-.32-.12.28.28,0,0,1-.07-.27.22.22,0,0,1,0-.08,1.45,1.45,0,0,1,1-.79l.05,0a.41.41,0,0,1,.39.14.36.36,0,0,1,0,.42,9.71,9.71,0,0,1-.92.68A.2.2,0,0,1,14.13,16.92Zm-.14-.4v0s0,.07,0,.08h0a.47.47,0,0,1,0-.23Z"/><path class="cls-1" d="M23,12.61c-.3.25-.55.5-.84.7s-.29,0-.25-.21a.68.68,0,0,1,.14-.31,3.86,3.86,0,0,1,.5-.49.43.43,0,0,1,.34-.06C23,12.28,23,12.45,23,12.61Zm-.37-.18-.47.54.06,0C22.35,12.82,22.66,12.77,22.62,12.43Z"/><path class="cls-1" d="M22,13.47a.25.25,0,0,1-.14,0,.35.35,0,0,1-.12-.36.82.82,0,0,1,.18-.36,3.51,3.51,0,0,1,.51-.51.52.52,0,0,1,.48-.07c.1.06.12.18.14.31l0,.13a.12.12,0,0,1,0,.13l-.25.22a5.37,5.37,0,0,1-.6.49A.35.35,0,0,1,22,13.47ZM22,13a.19.19,0,0,0,0,.08c0,.06,0,.1,0,.1l0,0,.09-.06,0,0-.06,0Zm.69-.69a.14.14,0,0,1,0,.06.61.61,0,0,1,0,.28.86.86,0,0,1,.14-.13s0-.05,0-.08a.39.39,0,0,0,0-.14Z"/><path class="cls-1" d="M13.14,17.77a7,7,0,0,1,.63-.38,1.16,1.16,0,0,1,.42-.08.19.19,0,0,1,.17.08.28.28,0,0,1,0,.23,1.25,1.25,0,0,1-.74.49.68.68,0,0,1-.36-.08C13.16,18,13.17,17.89,13.14,17.77Zm1-.24-.05-.09-.7.37.06.11Z"/><path class="cls-1" d="M13.51,18.24a1,1,0,0,1-.36-.1c-.09,0-.1-.14-.11-.24s0-.07,0-.1a.13.13,0,0,1,.06-.14.94.94,0,0,0,.18-.12,4,4,0,0,1,.45-.26,1.27,1.27,0,0,1,.46-.1c.11,0,.28.07.31.18a.38.38,0,0,1-.07.33,1.35,1.35,0,0,1-.81.54Zm.51-.5-.4.23A1,1,0,0,0,14,17.74Zm-.73.19h0l0-.07h0Z"/><path class="cls-1" d="M19.39,13.19c-.24.21-.46.42-.71.6-.05,0-.19,0-.26,0s-.06-.15,0-.22a1.34,1.34,0,0,1,.76-.75c.05,0,.18,0,.19,0A1.68,1.68,0,0,1,19.39,13.19Zm-.23-.07-.08-.1-.49.47.07.07Z"/><path class="cls-1" d="M18.62,13.93a.51.51,0,0,1-.27-.09.34.34,0,0,1-.09-.35,1.43,1.43,0,0,1,.82-.83.29.29,0,0,1,.25,0,.2.2,0,0,1,.12.1,1.35,1.35,0,0,1,.05.29s0,.08,0,.12a.16.16,0,0,1,0,.12l-.19.16c-.18.16-.35.3-.53.44A.23.23,0,0,1,18.62,13.93Zm-.12-.37a.26.26,0,0,0,0,.09l.13,0a.09.09,0,0,1-.06,0l-.07-.07Zm.64-.65.05,0,.06.09a.61.61,0,0,0,0-.15h-.05Z"/><path class="cls-1" d="M22.23,13.8a.23.23,0,0,1,.12.37,1.21,1.21,0,0,1-.9.43c-.21,0-.14-.24-.11-.37A.76.76,0,0,1,22.23,13.8Zm-.67.52c.31-.06.54-.2.56-.34A.48.48,0,0,0,21.56,14.32Z"/><path class="cls-1" d="M21.51,14.74l-.09,0c-.32-.08-.24-.38-.21-.49v0a.72.72,0,0,1,.39-.44.79.79,0,0,1,.66-.07h0a.36.36,0,0,1,.24.22.38.38,0,0,1-.05.33A1.41,1.41,0,0,1,21.51,14.74Zm-.07-.39c0,.12,0,.12,0,.13a1.13,1.13,0,0,0,.76-.37s.05-.1,0-.12a.08.08,0,0,0,0,0s0,0,0,.05c0,.24-.36.39-.66.44a.11.11,0,0,1-.12,0A.08.08,0,0,1,21.44,14.35Z"/><path class="cls-1" d="M19.88,13.48a1.91,1.91,0,0,1,.82-.71c.05,0,.18,0,.18.06s.05.3,0,.38a3.21,3.21,0,0,1-.58.52.34.34,0,0,1-.31,0C19.91,13.71,19.9,13.56,19.88,13.48Zm.8-.4L20.6,13l-.48.48.07.06Z"/><path class="cls-1" d="M20.09,13.9a.34.34,0,0,1-.18,0,.38.38,0,0,1-.14-.27s0-.05,0-.07a.11.11,0,0,1,0-.11,1.93,1.93,0,0,1,.87-.75.36.36,0,0,1,.28,0,.16.16,0,0,1,.08.12v0a.54.54,0,0,1-.05.42,3.68,3.68,0,0,1-.6.54A.57.57,0,0,1,20.09,13.9ZM20,13.54a.53.53,0,0,0,0,.11h.08l0,0L20,13.56Zm.67-.63h0l.08.08h0V12.9h0Z"/><path class="cls-1" d="M11.15,17.83a1.49,1.49,0,0,1,1-.62.33.33,0,0,1,.23.15.25.25,0,0,1-.06.23,9.26,9.26,0,0,1-.86.51c-.07,0-.2,0-.28-.07S11.16,17.9,11.15,17.83Zm.31,0c.24-.15.6-.14.77-.5A1.12,1.12,0,0,0,11.46,17.87Z"/><path class="cls-1" d="M11.42,18.24a.66.66,0,0,1-.29-.1.29.29,0,0,1-.1-.23.13.13,0,0,0,0-.06.13.13,0,0,1,0-.06,1.57,1.57,0,0,1,1.14-.7.49.49,0,0,1,.33.2.36.36,0,0,1-.1.4,8.64,8.64,0,0,1-.87.52A.23.23,0,0,1,11.42,18.24Zm-.13-.3a.31.31,0,0,0,.13,0l0,0a.11.11,0,0,1,0-.15l.1-.15a.57.57,0,0,0-.17.19v0A.07.07,0,0,0,11.29,17.94Z"/><path class="cls-1" d="M8.1,17.71c.05.07.14.13.13.18a.38.38,0,0,1-.13.24.85.85,0,0,1-.8.09c-.08,0-.17-.15-.16-.22s.09-.22.16-.23A5.29,5.29,0,0,1,8.1,17.71Zm-.18.17L7.34,18v.1A.45.45,0,0,0,7.92,17.88Z"/><path class="cls-1" d="M7.59,18.41a.85.85,0,0,1-.35-.08A.45.45,0,0,1,7,18a.42.42,0,0,1,.27-.36,5.63,5.63,0,0,1,.59-.05h.22a.12.12,0,0,1,.1.05l.06.06c.05.06.12.13.1.22a.51.51,0,0,1-.19.33A1.26,1.26,0,0,1,7.59,18.41ZM8,17.83A.15.15,0,0,1,8,18l-.12.13L8,18a.42.42,0,0,0,.06-.12l0,0,0,0Z"/><path class="cls-1" d="M3.78,17.83a4.67,4.67,0,0,1-1.34-1.15c-.23-.27-.52-.49-.73-.78s-.57-.85-.84-1.29c0-.07,0-.19,0-.28a1,1,0,0,1,.26,0c.49.24,1,.52,1.45.73s1,.36,1.57.54c.17.06.35.14.53.19.7.18,1.42.32,2.11.54a4.22,4.22,0,0,0,2-.17,9.9,9.9,0,0,0,2.34-.58c.15-.06.29-.17.44-.24l1.12-.56c.65-.35,1.32-.67,1.94-1.07.83-.54,1.63-1.15,2.44-1.73a5.89,5.89,0,0,0,.45-.42c.48-.44,1-.86,1.44-1.32s1.14-1.14,1.65-1.76A16.66,16.66,0,0,1,22.7,6.45c.87-.75,1.74-1.5,2.62-2.23.38-.31.78-.59,1.18-.86.69-.47,1.37-.94,2.06-1.39.39-.25.81-.47,1.21-.71A8.91,8.91,0,0,0,30.7.69,3,3,0,0,1,31.81.32a3.53,3.53,0,0,1,.54-.13A3.17,3.17,0,0,1,33.1.13c.32,0,.63.1.94.15a.79.79,0,0,1,.61.69c.16.67.28,1.36.38,2a8.35,8.35,0,0,1,.07,2.34,12.32,12.32,0,0,1-.34,1.71,19.75,19.75,0,0,1-.68,2,7.21,7.21,0,0,1-.71,1.27,22.9,22.9,0,0,1-1.45,2,13.31,13.31,0,0,1-1.15,1.1c-.59.54-1.16,1.11-1.78,1.6a21.17,21.17,0,0,1-2,1.42,13,13,0,0,1-1.56.84,20.35,20.35,0,0,1-3.64,1.18c-.71.18-1.43.3-2.14.45-.34.07-.67.18-1,.24l-1.93.33c-.39.07-.78.15-1.17.19s-1,.07-1.54.08c-.7,0-1.41,0-2.11,0-.39,0-.78-.1-1.16-.15l-.44-.05-.85-.13L9,19.3c-.12,0-.23-.07-.34-.09a2.58,2.58,0,0,0-.82-.09,6.29,6.29,0,0,0-1.16.38c-.3.12-.59.27-.88.42-.89.48-1.78.94-2.65,1.44a17.82,17.82,0,0,0-2.8,2,1.08,1.08,0,0,1-.19.08c0-.07-.08-.16-.06-.21a8.23,8.23,0,0,1,.46-1.32c.3-.6.68-1.16,1-1.73a13.47,13.47,0,0,1,1.87-2.05Zm17.43-1.66a9.94,9.94,0,0,0,1-1.2,20.51,20.51,0,0,1,2.1-2.87c.51-.56,1-1.13,1.45-1.73s.77-1.23,1.17-1.84c.5-.78,1-1.54,1.51-2.32a1.78,1.78,0,0,1,1.49-1,.91.91,0,0,0,.55-.26,5.52,5.52,0,0,0,.62-.74c.57-.78,1.13-1.58,1.72-2.36A4.39,4.39,0,0,1,34.12.58L33.68.43A3.64,3.64,0,0,0,31.8.54a4.6,4.6,0,0,0-.89.28c-.36.17-.68.39-1,.59-.57.34-1.14.67-1.7,1s-1.05.75-1.58,1.11c-.3.21-.63.37-.9.6-.84.7-1.65,1.43-2.47,2.15-.51.44-1,.87-1.53,1.35s-.86,1-1.33,1.51c-.84.84-1.72,1.63-2.56,2.46a12.27,12.27,0,0,1-2,1.57c-.53.33-1,.73-1.56,1-.94.54-1.92,1-2.88,1.53l-.11.05a8.71,8.71,0,0,1-1.94.53,3.39,3.39,0,0,0-.77.15c-.38.11-.76.25-1.14.36-.2.06-.41.05-.61.1s-.53.17-.8.24-.49.1-.72.17c-.38.11-.75.25-1.12.38a24.43,24.43,0,0,0,4.06,1.14c0-.35.13-.46.46-.45s.39,0,.58,0c.37,0,.48.19.33.54.38,0,.77.05,1.15.05a.35.35,0,0,0,.22-.12,1.21,1.21,0,0,1,1-.37.52.52,0,0,1,.51.47l.5,0a.61.61,0,0,1,.55-.57c.44-.07.63,0,.75.27l.75-.24a1.05,1.05,0,0,1-.06-.37.41.41,0,0,1,.21-.22.68.68,0,0,1,.28-.07,2.3,2.3,0,0,1,.68-.06.53.53,0,0,0,.43-.06c.52-.31,1.06-.59,1.55-.94.65-.44,1.27-.94,1.89-1.42a.92.92,0,0,0,.24-.34c.09-.26.28-.31.54-.3A2.25,2.25,0,0,0,21.21,16.17ZM34.33.75c-.32.16-.31.16-.29.4s0,.26,0,.39c0,.41,0,.83,0,1.25,0,.7,0,1.4,0,2.1a10.44,10.44,0,0,1-.6,2.57,10.67,10.67,0,0,1-1.5,3,12.63,12.63,0,0,1-1,1.11c-.65.68-1.29,1.4-2,2a25.17,25.17,0,0,1-2.15,1.67,12.15,12.15,0,0,1-1.52.9c-.71.38-1.44.74-2.18,1.07-.56.26-1.15.48-1.73.69a12.72,12.72,0,0,1-1.48.47c-.61.15-1.24.25-1.87.35s-1,.17-1.5.23-.85.08-1.27.11a1.6,1.6,0,0,1-.72,0,1,1,0,0,0-.71,0,7.76,7.76,0,0,1-2,.28h-.62v.1l1.25.05c.47,0,.93,0,1.4,0s.88,0,1.32,0,1-.18,1.45-.26.92-.11,1.37-.2,1-.26,1.53-.37c1.14-.24,2.27-.46,3.39-.77a18.36,18.36,0,0,0,2.69-1,16.12,16.12,0,0,0,3.7-2.49c.6-.51,1.16-1.08,1.76-1.6a9.61,9.61,0,0,0,1.75-2.07,11.74,11.74,0,0,0,1.09-2c.34-.8.56-1.64.82-2.46a6.74,6.74,0,0,0,.12-2.49c0-.75-.15-1.49-.26-2.23A4.81,4.81,0,0,0,34.33.75ZM17,17.78l.31,0,1.36-.19a10.63,10.63,0,0,0,2.21-.6c.54-.2,1.13-.3,1.66-.53a14.27,14.27,0,0,0,3.42-2c.81-.65,1.64-1.28,2.41-2A8.1,8.1,0,0,0,29.76,11a29.38,29.38,0,0,0,1.83-3,9.37,9.37,0,0,0,.86-2.22c.27-1.16.42-2.35.62-3.52,0-.11,0-.23,0-.41-.33.42-.61.78-.88,1.14a.22.22,0,0,0,0,.11,9.35,9.35,0,0,1-.23,1.05c-.24.76-.46,1.52-.77,2.25A21.49,21.49,0,0,1,30,8.78a10.63,10.63,0,0,1-1.36,2c-.88.93-1.85,1.78-2.8,2.64a17.42,17.42,0,0,1-3.62,2.38,2.71,2.71,0,0,0-.34.18,1.86,1.86,0,0,0-.58.48.31.31,0,0,1-.43.16,2.22,2.22,0,0,1-1-.64ZM33.79,1.11c-.39.3-.5.46-.49.69a2,2,0,0,1,0,.42c-.07.49-.13,1-.22,1.48A17.16,17.16,0,0,1,32.63,6a13.42,13.42,0,0,1-1,2.44,25.8,25.8,0,0,1-1.75,2.77,10.24,10.24,0,0,1-2.13,2.13c-.75.58-1.48,1.19-2.25,1.74a17.22,17.22,0,0,1-1.73,1.08,11.4,11.4,0,0,1-1.38.62c-.41.16-.85.26-1.27.38-.66.19-1.3.41-2,.56s-1.49.26-2.23.4a6.77,6.77,0,0,0-1,.23,10.79,10.79,0,0,0-1,.46l.76-.07c.77-.08,1.55-.13,2.32-.24A14.3,14.3,0,0,0,20,18.08c1-.3,1.91-.68,2.86-1.06a18,18,0,0,0,1.72-.81c.62-.32,1.22-.64,1.81-1a18,18,0,0,0,3.14-2.51c.35-.35.65-.74,1-1.09A9.44,9.44,0,0,0,32.5,9,13.83,13.83,0,0,0,33.61,6a12.94,12.94,0,0,0,.19-3.46C33.77,2.06,33.79,1.61,33.79,1.11ZM31.87,3.59l-.08,0c-.06.08-.11.17-.17.26A9.52,9.52,0,0,1,30.74,5,4.34,4.34,0,0,0,30,6c-.47.82-.9,1.66-1.39,2.46a16.79,16.79,0,0,1-1.17,1.72c-.46.61-.95,1.19-1.46,1.76a16.69,16.69,0,0,1-1.33,1.33,13.15,13.15,0,0,1-1.25,1,4.65,4.65,0,0,0-.69.41,4.56,4.56,0,0,0-.49.72l0,.06c.45-.25.9-.49,1.34-.75a23,23,0,0,0,4.11-3.31A9,9,0,0,0,29.63,8.9c.36-.69.74-1.37,1.07-2.08a18.85,18.85,0,0,0,.71-1.75C31.59,4.59,31.72,4.09,31.87,3.59ZM30.14,5.44a1.55,1.55,0,0,1-.34,0,.88.88,0,0,0-.8.39c-.11.15-.22.29-.32.45s-.29.56-.45.82-.31.44-.47.65-.17.15-.23.24c-.25.39-.48.79-.74,1.18-.52.76-1,1.53-1.6,2.26s-1.09,1.26-1.63,1.9c-.18.22-.33.46-.5.7a1.13,1.13,0,0,0,.4-.18,9,9,0,0,0,1.9-1.64c.65-.72,1.31-1.42,1.91-2.17A20.87,20.87,0,0,0,28.5,8.26c.31-.49.59-1,.88-1.48S29.88,5.9,30.14,5.44ZM1.5,21.65l.08.05a18,18,0,0,1,3.19-3.45c-.08,0-.17,0-.22,0a12,12,0,0,0-1.69,1.37A18.9,18.9,0,0,0,1.5,21.65Zm4.09-3.16-.06,0a11.05,11.05,0,0,0-2.8,2.9l.21-.08c.52-.18.71-.7,1.07-1.05s.63-.75,1-1.11S5.38,18.7,5.59,18.49ZM1,22.57l-.06-.05a6.11,6.11,0,0,1,.9-1.85c.38-.59.82-1.15,1.22-1.7A9,9,0,0,0,.47,23ZM2.88,15.4l-.06.08A1.64,1.64,0,0,0,3,15.7c.47.45.94.9,1.4,1.36.19.19.38.1.54.05-.45-.43-.88-.87-1.34-1.28A5.22,5.22,0,0,0,2.88,15.4ZM1.79,22.05a5.55,5.55,0,0,0,.42-.42c.27-.34.49-.72.77-1.05.44-.5.91-1,1.38-1.45.23-.24.47-.45.71-.68A10.61,10.61,0,0,0,1.79,22.05Zm-.45-7.24s0,.1,0,.14a4.5,4.5,0,0,0,.87,1.2c.39.34.72.74,1.11,1.08a.69.69,0,0,0,.69.2,3.16,3.16,0,0,1-.46-.24,9.31,9.31,0,0,1-1.82-2C1.68,15,1.62,14.81,1.34,14.81Zm.65.32c.47.89,2,2.27,2.32,2.16-.47-.46-1-.94-1.46-1.43C2.59,15.59,2.42,15.22,2,15.13ZM20.9,16.31l-.34-1.2-.56.64A1.45,1.45,0,0,0,20.9,16.31ZM4,20.64a2.61,2.61,0,0,0,.52-.33c.26-.28.47-.61.73-.9s.52-.54.79-.82C5.71,18.57,4.75,19.53,4,20.64ZM5.61,17c-.71-.31-1.06-1.05-1.82-1.18a13.84,13.84,0,0,0,1.06,1A.71.71,0,0,0,5.61,17Zm.89,1.76c-.26-.11-1.26.77-1.56,1.4.32-.21.67-.29.88-.65A4.35,4.35,0,0,1,6.5,18.74Zm-.5.8,0,.05.71-.34c.23-.11.45-.23.61-.32-.08,0-.24-.06-.39-.07a.44.44,0,0,0-.32.07C6.41,19.11,6.21,19.33,6,19.54Zm5.24-.5c.37,0,.72.12,1-.1C12.12,18.64,11.58,18.68,11.24,19Zm-5.17-2.2c-.46-.19-.68-.68-1.26-.68l1,.78ZM3.31,18.9l1.06-.83C3.76,18,3.59,18.52,3.31,18.9Zm6.14-.18c-.67-.14-.74-.13-.89,0C9.26,18.92,9.26,18.92,9.45,18.72Zm3.84.13a.76.76,0,0,0,.73-.21C13.65,18.57,13.45,18.63,13.29,18.85ZM5.81,16.4a.61.61,0,0,0,.76.26,4,4,0,0,0-.36-.18A2.83,2.83,0,0,0,5.81,16.4Zm9.48,1.75.67-.1A.54.54,0,0,0,15.29,18.15ZM1.42,22H1.35l-.13.41.28-.19Z"/><path class="cls-1" d="M.19,23.56h0a.14.14,0,0,1-.07-.08l0,0a.31.31,0,0,1,0-.23c0-.11.07-.22.1-.33a5.33,5.33,0,0,1,.37-1c.24-.47.53-.92.8-1.36l.24-.38a8.06,8.06,0,0,1,1.33-1.52c.18-.18.37-.36.54-.54l.18-.19a5.27,5.27,0,0,1-1.22-1.09c-.1-.12-.21-.22-.31-.32A3.8,3.8,0,0,1,1.61,16c-.28-.38-.53-.79-.77-1.18l-.08-.13a.39.39,0,0,1,0-.26s0-.05,0-.08a.1.1,0,0,1,0-.09.1.1,0,0,1,.1,0H1a.59.59,0,0,1,.22,0l.53.27a9.61,9.61,0,0,0,.91.45c.35.15.72.27,1.07.38l.49.16.18.07.34.12.73.17c.46.11.93.22,1.39.37a2.34,2.34,0,0,0,1.31-.05,4.11,4.11,0,0,1,.61-.12A9.13,9.13,0,0,0,11,15.5a1.49,1.49,0,0,0,.25-.13l.19-.1.43-.22.68-.34.5-.27c.48-.25,1-.5,1.43-.79.64-.42,1.27-.89,1.89-1.33l.54-.4a2.52,2.52,0,0,0,.3-.27l.15-.14.45-.41c.32-.29.66-.59,1-.91l.1-.1a22.05,22.05,0,0,0,1.55-1.65,16.13,16.13,0,0,1,2.14-2.08c.93-.81,1.77-1.53,2.62-2.24.37-.3.77-.57,1.15-.84l0,0,2.06-1.38.81-.48.4-.24L30,1a7.14,7.14,0,0,0,.65-.41A2.06,2.06,0,0,1,31.5.26L31.78.2l.12,0a3.13,3.13,0,0,1,.44-.1h0a3,3,0,0,1,.74,0,5.36,5.36,0,0,1,.7.1l.25.05a.89.89,0,0,1,.71.78c.15.64.28,1.31.39,2.05a8.44,8.44,0,0,1,.07,2.38,13.24,13.24,0,0,1-.35,1.73,19.86,19.86,0,0,1-.69,2,7.27,7.27,0,0,1-.71,1.29c-.38.55-.89,1.27-1.46,2a8.13,8.13,0,0,1-.84.82l-.33.29-.48.45c-.41.39-.84.8-1.3,1.16s-1.21.91-2,1.43a13.34,13.34,0,0,1-1.58.84,20.34,20.34,0,0,1-3.66,1.19c-.45.11-.9.2-1.35.29l-.79.16-.45.11a5.07,5.07,0,0,1-.56.13c-.5.1-1,.18-1.5.26l-.43.08-.32,0a8.1,8.1,0,0,1-.86.13c-.47.05-1,.08-1.55.09s-1.38,0-2.12,0a7,7,0,0,1-.8-.09l-.37-.06-.18,0-.26,0-.4-.06-.44-.07-.2,0a2,2,0,0,1-.24,0l-.18,0a.53.53,0,0,0-.16,0l-.23-.05a1.53,1.53,0,0,0-.55-.05,6,6,0,0,0-1.06.35l-.07,0c-.3.12-.6.28-.87.42l-.62.33c-.67.36-1.36.72-2,1.11a17.4,17.4,0,0,0-2.78,2,.47.47,0,0,1-.17.09H.19Zm.06-.3a0,0,0,0,1,0,0h0l.16-.15h0A.13.13,0,0,1,.34,23a.13.13,0,0,0,0-.06h0c0,.11-.07.22-.1.33ZM1,21.82a4.85,4.85,0,0,0-.38.86l.15-.12v-.07A3.78,3.78,0,0,1,1,21.82Zm0,.65h0a.12.12,0,0,1,.05.09v0l.07-.06-.05,0a.17.17,0,0,1,0-.12A.19.19,0,0,1,1.07,22.47Zm.09-.27a.56.56,0,0,0,0,.12Zm.26-.33a.13.13,0,0,1,.12.08l.08.22a.06.06,0,0,1,0,0l.09-.06A.12.12,0,0,1,1.67,22a6.79,6.79,0,0,1,.9-1.37c-.29.35-.58.73-.89,1.15a.12.12,0,0,1-.17,0l-.08-.05a.12.12,0,0,1-.05-.07l-.11.22.07,0h.08Zm1.2-.59c-.1.14-.2.29-.31.42l-.09.11.58-.37,0,0a.12.12,0,0,1-.14,0A.12.12,0,0,1,2.62,21.28Zm1.94-1.9a11.4,11.4,0,0,0-1.48,1.68,1.88,1.88,0,0,0,.51-.54,3.19,3.19,0,0,1,.33-.4c.2-.2.39-.43.57-.65Zm-.62,1.1-.15.19a2.69,2.69,0,0,1-.3.37L4,20.76a.12.12,0,0,1-.11,0,.12.12,0,0,1,0-.16Zm.87-.35a2.75,2.75,0,0,1-.22.26.75.75,0,0,1-.17.14l.5-.27a.07.07,0,0,1-.06,0A.12.12,0,0,1,4.81,20.13ZM3.65,19.07a4.67,4.67,0,0,0-.69.64,5.31,5.31,0,0,0-.54.71A16.51,16.51,0,0,1,3.65,19.07ZM2.29,16.35a3,3,0,0,1,.25.25,4.74,4.74,0,0,0,1.3,1.13s.05.05.06.09a.12.12,0,0,1,0,.1l-.29.3c-.18.19-.37.37-.56.55a8,8,0,0,0-1.29,1.48h0A7.54,7.54,0,0,1,3,18.87a.13.13,0,0,1,.18.17l-.31.42A5,5,0,0,1,3.32,19a.17.17,0,0,1-.1,0,.14.14,0,0,1,0-.17l.15-.23c.22-.33.46-.7,1-.64a.11.11,0,0,1,.11.09.13.13,0,0,1,0,.12h0a.41.41,0,0,1,.34,0,.14.14,0,0,1,.08.1.13.13,0,0,1,0,.12,13.2,13.2,0,0,0-1.13,1,5.06,5.06,0,0,1,1.3-1,.12.12,0,0,1,.15.05.1.1,0,0,1,0,.15l-.09.09c.13-.1.26-.2.4-.29a.11.11,0,0,1,.08,0l-1.38-.46a.13.13,0,0,1,0-.24l.34-.12.78-.26.41-.1L6,17.06,6.37,17l.45-.13a1.57,1.57,0,0,1,.3-.05,1.34,1.34,0,0,0,.3-.05c.2,0,.38-.12.57-.18s.38-.13.58-.18h0l-.38.08a2.54,2.54,0,0,1-1.45,0,12.53,12.53,0,0,0-1.37-.36L4.64,16l-.37-.12-.12-.05a2.38,2.38,0,0,1,.54.35v0A.14.14,0,0,1,4.81,16h0a1.39,1.39,0,0,1,.88.4h0a.14.14,0,0,1,0-.11.12.12,0,0,1,.13,0l.11,0a1.59,1.59,0,0,1,.3.06l.26.13.11.06a.13.13,0,0,1,.07.11.13.13,0,0,1-.07.12.58.58,0,0,1-.43,0v0a.15.15,0,0,1-.08.12l-.29.09a.11.11,0,0,1-.11,0,.09.09,0,0,1-.06.06A.7.7,0,0,1,5,17a.14.14,0,0,1,0,.11.12.12,0,0,1-.09.09l0,0a.63.63,0,0,1-.45,0,.06.06,0,0,1,0,.06.11.11,0,0,1-.08.09.32.32,0,0,1-.17,0v0a.12.12,0,0,1-.09.11.81.81,0,0,1-.8-.23c-.19-.16-.37-.35-.54-.52S2.45,16.49,2.29,16.35Zm3.6,3.25a1.11,1.11,0,0,1-.3.31l.18-.1L6,19.7H6a.14.14,0,0,1-.08-.07A0,0,0,0,0,5.89,19.6Zm0-.37a4.72,4.72,0,0,0-.53.56,1,1,0,0,0,.4-.36A1.37,1.37,0,0,1,5.84,19.23ZM8,19a2.54,2.54,0,0,1,.47.07l.22,0,.19.05.15,0,.23,0,.2,0,.45.07.4.07.24,0,.19,0,.35.05a.14.14,0,0,1,0-.06v-.1a.1.1,0,0,1,0-.09s0,0,.09,0h0a.15.15,0,0,1-.11-.08.13.13,0,0,1,0-.12l0,0a.44.44,0,0,1-.31.17h0l-.86,0h-.3a.13.13,0,0,1-.1-.06.16.16,0,0,1,0-.12.38.38,0,0,0,.05-.25.11.11,0,0,1,0,.11c-.24.26-.3.25-1,.07a.12.12,0,0,1-.09-.08.12.12,0,0,1,0-.12.31.31,0,0,1,.14-.12c-.16,0-.21.09-.22.32a.1.1,0,0,1,0,.09.1.1,0,0,1-.1,0q-.44-.07-.87-.18a.13.13,0,0,1,.08.11A.11.11,0,0,1,7.4,19l-.16.09L7,19.24A4.55,4.55,0,0,1,7.85,19Zm5.87.35h.37a7,7,0,0,0,.92,0,8.32,8.32,0,0,0,.87-.15l.57-.1.57-.08c.27,0,.54-.07.8-.12l.43-.1-.09,0-.29,0c-.56.09-1.05.17-1.51.22s-.72.07-1.07.1h-.2l-.2,0a1,1,0,0,1-.58,0,.91.91,0,0,0-.63,0c-.24.07-.5.12-.75.17h.79ZM6.9,19a.45.45,0,0,0-.19,0l-.23.22.2-.1L7,19Zm5.51,0a.15.15,0,0,1-.06.09.9.9,0,0,1-.39.15c.26,0,.51,0,.76-.06h-.16a.11.11,0,0,1-.13-.09S12.42,19,12.41,19Zm.78,0s0,0,0,.08l0,.07.3-.06a.65.65,0,0,1-.21-.05A.1.1,0,0,1,13.19,18.92Zm1-.07a.92.92,0,0,1,.38.09.93.93,0,0,0,.44,0l.22,0h.2c.35,0,.71,0,1.06-.1l.69-.09-.84.08-.69.07-.44,0-.32,0a.13.13,0,0,1-.13-.09.13.13,0,0,1,.07-.15l.24-.12-.69.23a.13.13,0,0,1-.15-.07.37.37,0,0,0-.11-.15v0a.13.13,0,0,1,0,.12.84.84,0,0,1-.24.18A1.14,1.14,0,0,1,14.2,18.85Zm-2.62.09a1,1,0,0,0,.5,0,.3.3,0,0,0-.12,0A.77.77,0,0,0,11.58,18.94Zm-1.77-.06h.13l.85,0h0a.41.41,0,0,0,.13-.08,1.29,1.29,0,0,1,1.13-.41.63.63,0,0,1,.6.46l.3,0a.73.73,0,0,1,.64-.59c.37-.05.65,0,.82.25l.54-.18h0a.57.57,0,0,1,0-.29.53.53,0,0,1,.27-.31.74.74,0,0,1,.29-.08h0l.18,0a1.24,1.24,0,0,1,.54,0,.37.37,0,0,0,.33-.05l.5-.29c.35-.2.72-.41,1.05-.64.56-.38,1.1-.81,1.63-1.23L20,15.2a.69.69,0,0,0,.2-.28.6.6,0,0,1,.66-.39.14.14,0,0,1,.1.05.1.1,0,0,1,0,.09A2.09,2.09,0,0,0,21.23,16l.22-.24a6,6,0,0,0,.66-.8A19.78,19.78,0,0,1,24.22,12a19.44,19.44,0,0,0,1.44-1.72c.27-.37.51-.77.75-1.16l.41-.67.78-1.19.73-1.13a1.92,1.92,0,0,1,1.59-1.09.93.93,0,0,0,.48-.23A5.73,5.73,0,0,0,31,4.1l.69-1c.33-.46.68-.94,1-1.4A4.56,4.56,0,0,1,33.83.61L33.64.55a3.45,3.45,0,0,0-1.81.11A3.67,3.67,0,0,0,31,.94a7.78,7.78,0,0,0-.74.42L30,1.52c-.16.09-.32.18-.47.28-.41.23-.83.48-1.23.74l-1,.67-.62.45-.37.23a3.37,3.37,0,0,0-.52.35c-.62.52-1.24,1.06-1.83,1.59l-.64.56-.45.39c-.36.31-.73.62-1.07,1s-.45.49-.66.74-.43.52-.67.77c-.49.49-1,1-1.51,1.45l-1.06,1a12.6,12.6,0,0,1-2,1.59c-.22.13-.43.28-.64.43a9.85,9.85,0,0,1-.93.6c-.67.38-1.37.75-2,1.09l-.83.44a.84.84,0,0,1-.14.06c-.22.06-.43.14-.64.21a4.49,4.49,0,0,1-1.32.33,2.94,2.94,0,0,0-.74.14q-.29.07-.57.18c-.19.06-.38.13-.58.18a2,2,0,0,1-.34.06l-.27,0-.44.13-.36.11-.33.08a2.74,2.74,0,0,0-.39.09l-.77.26h0a23.07,23.07,0,0,0,3.58,1c.05-.31.22-.44.57-.42h.08l.51,0a.57.57,0,0,1,.46.21A.51.51,0,0,1,9.81,18.88Zm-3.36-.27a.16.16,0,0,1,.1,0,.13.13,0,0,1,.07.09.17.17,0,0,1,0,.07A.73.73,0,0,1,7,18.73l.14,0c-.48-.12-1-.26-1.51-.42l0,0,0,.06a.09.09,0,0,1,0,.08.1.1,0,0,1,0,.09l0,.05A.71.71,0,0,1,6,18.47a.12.12,0,0,1,.11.08.11.11,0,0,1,0,.13l-.1.11A.91.91,0,0,1,6.45,18.61ZM33.66,1.37c-.2.18-.24.29-.23.43a2.89,2.89,0,0,1,0,.43l0,.18c-.06.43-.12.87-.19,1.31,0,.2-.07.4-.1.6A12.34,12.34,0,0,1,32.75,6a13.46,13.46,0,0,1-1,2.46A25.37,25.37,0,0,1,30,11.27a10.41,10.41,0,0,1-2.15,2.16l-.69.54c-.5.4-1,.82-1.57,1.21a17.86,17.86,0,0,1-1.74,1.08,11.08,11.08,0,0,1-1.4.63c-.29.11-.59.19-.88.27l-.4.11-.59.18c-.45.14-.91.28-1.38.39s-1,.18-1.43.26l-.81.13h-.06a7.09,7.09,0,0,0-.91.22,3.89,3.89,0,0,0-.38.16h.08l.68-.07c.54-.05,1.09-.1,1.63-.17A14.27,14.27,0,0,0,20,18c.95-.3,1.85-.65,2.85-1.05.6-.24,1.2-.55,1.72-.81s1.2-.63,1.79-1a17.77,17.77,0,0,0,3.12-2.5c.18-.17.34-.36.5-.54s.32-.37.5-.55A9.3,9.3,0,0,0,32.39,9a13.61,13.61,0,0,0,1.09-3,12.61,12.61,0,0,0,.2-3.43c0-.32,0-.63,0-1ZM15.36,17.94h0a.5.5,0,0,0-.15.15.45.45,0,0,0,0,.18.61.61,0,0,1,0,.13.14.14,0,0,1,0,.11,4.82,4.82,0,0,1,.66-.3,5.23,5.23,0,0,1,.95-.22h.06l.81-.14.92-.16-.74.11-.81.11a.12.12,0,0,1-.13-.08.13.13,0,0,1,0-.15l.78-.52-.55.32-.5.29a.62.62,0,0,1-.52.07,1.13,1.13,0,0,0-.4,0,.88.88,0,0,1,.23.07.11.11,0,0,1,.07.13.11.11,0,0,1-.1.1l-.67.1a.11.11,0,0,1-.13-.07.11.11,0,0,1,0-.14A.83.83,0,0,1,15.36,17.94Zm6.2.37-.44.1ZM34.26.93c-.11.06-.11.08-.1.2a2.81,2.81,0,0,1,0,.41c0,.19,0,.39,0,.59s0,.44,0,.66,0,.45,0,.68c0,.47,0,.95,0,1.43a10.38,10.38,0,0,1-.6,2.6,10.53,10.53,0,0,1-1.52,3,11.55,11.55,0,0,1-1,1.12l-.42.46c-.5.53-1,1.08-1.58,1.58a23.44,23.44,0,0,1-2.15,1.68,12.18,12.18,0,0,1-1.54.91c-.73.39-1.47.75-2.19,1.07s-1.21.51-1.74.7l-.65.23c.71-.15,1.43-.31,2.14-.51a18.5,18.5,0,0,0,2.66-1,15.71,15.71,0,0,0,3.67-2.48c.32-.26.63-.56.93-.84l.83-.76a9.54,9.54,0,0,0,1.74-2,12.46,12.46,0,0,0,1.08-2c.25-.6.44-1.24.63-1.86l.18-.59a6.31,6.31,0,0,0,.12-2.33V3.76c-.06-.77-.17-1.55-.27-2.21A2.14,2.14,0,0,0,34.31,1,1.17,1.17,0,0,1,34.26.93ZM22.76,17.2c-.72.29-1.4.56-2.08.79l.65-.22C21.76,17.61,22.26,17.42,22.76,17.2Zm-3-1.11-2.24,1.49.27,0,.86-.12a10.71,10.71,0,0,0,2.18-.59,7.41,7.41,0,0,1,.76-.24,7.25,7.25,0,0,0,.9-.29,14.18,14.18,0,0,0,3.39-2l.71-.56c.57-.45,1.15-.92,1.7-1.4a8.47,8.47,0,0,0,1.33-1.45,28.67,28.67,0,0,0,1.82-3,8.9,8.9,0,0,0,.84-2.19c.2-.82.33-1.67.46-2.5,0-.33.11-.66.16-1L32.32,3s0,0,0,.06l-.06.34c0,.24-.1.48-.17.72L32,4.52c-.2.63-.4,1.28-.66,1.9a21.8,21.8,0,0,1-1.2,2.42,10.29,10.29,0,0,1-1.37,2c-.81.86-1.71,1.66-2.58,2.43l-.23.21a17,17,0,0,1-3.64,2.4l-.08,0a1.5,1.5,0,0,0-.25.15l-.17.11a1.19,1.19,0,0,0-.37.32.43.43,0,0,1-.58.22A2.43,2.43,0,0,1,19.8,16.09ZM3.14,15.7l.58.56.73.71a.22.22,0,0,0,.2.08c-.07-.08-.15-.15-.22-.22-.31-.3-.63-.61-.95-.9A2,2,0,0,0,3.14,15.7Zm19.11,1-.56.16-.51.15.27-.07C21.72,16.85,22,16.77,22.25,16.68Zm-2.13-1.26-.21.17c-.44.35-.9.7-1.36,1l1.2-.79a.12.12,0,0,1,.16,0l0,0a.14.14,0,0,1,0-.15Zm-17.73.09a7.7,7.7,0,0,0,1,1.06c-.21-.21-.42-.41-.62-.62s-.14-.16-.21-.24S2.45,15.57,2.39,15.51Zm2.06.75.32.28,0,0Zm16.21.1.23.09c.15,0,.2.05.29-.1l0-.06h0a.11.11,0,0,1-.1-.06,2.09,2.09,0,0,1-.19-.36l.11.41a.12.12,0,0,1-.16.15h0Zm2.9-.26-.66.32A6.78,6.78,0,0,0,23.56,16.1Zm-13.44,0-.47.11Zm10-.31a1.24,1.24,0,0,0,.57.36l-.21-.76Zm2.05-.54a8.51,8.51,0,0,1-.56.66l-.15.15.14-.09.16-.11.29-.16.07,0c.57-.28,1.09-.57,1.56-.86h0l-.9.51-.44.24a.11.11,0,0,1-.15,0l0-.05a.12.12,0,0,1,0-.15A.25.25,0,0,1,22.2,15.22ZM3.3,15.5a1.61,1.61,0,0,1,.34.24l0,0v0a.11.11,0,0,1,.13-.06l.1,0-.29-.1ZM15,13.64l-.34.22c-.46.3-1,.55-1.44.8l-.51.27c-.22.12-.45.23-.68.34l-.43.22-.17.09a1.18,1.18,0,0,1-.19.11h0l.07,0,.85-.45c.67-.35,1.37-.71,2-1.08C14.49,14,14.74,13.8,15,13.64ZM2.28,15.11a1.37,1.37,0,0,1,.42.37.11.11,0,0,1,0-.08l.06-.08h0l-.26-.11ZM1,14.47a.08.08,0,0,0,0,.07l.08.13c.16.26.32.53.49.79L1.4,15.2,1.28,15a.56.56,0,0,1,0-.12l0,0a.15.15,0,0,1,0-.11.12.12,0,0,1,.1-.05h0a.48.48,0,0,1,.18,0l-.45-.23A.13.13,0,0,0,1,14.47ZM20.56,15h0a.12.12,0,0,1,.09.09l.06.2a2.61,2.61,0,0,1,0-.49.29.29,0,0,0-.28.22l-.06.13.09-.11A.15.15,0,0,1,20.56,15Zm11-10.93-.13.2a5.18,5.18,0,0,1-.64.84,3.65,3.65,0,0,0-.68,1c-.2.33-.38.67-.57,1s-.53,1-.82,1.45S28,9.64,27.58,10.23s-.92,1.15-1.47,1.76a18.84,18.84,0,0,1-1.33,1.35c-.4.35-.83.66-1.26,1a2.79,2.79,0,0,1-.33.19,1.23,1.23,0,0,0-.35.22,2,2,0,0,0-.31.42l.15-.08.91-.51a23.15,23.15,0,0,0,4.08-3.29,8.94,8.94,0,0,0,1.85-2.41c.11-.22.22-.43.34-.64.24-.47.5-1,.73-1.44S31,5.74,31.3,5C31.41,4.71,31.51,4.37,31.6,4.05Zm-30,10.72a.8.8,0,0,1,.22.28l0,.06a.14.14,0,0,1,0-.06A.12.12,0,0,1,2,15l.15,0Zm21.31-.68c-.11.18-.23.35-.34.52l.07-.07a1.44,1.44,0,0,1,.42-.27,1.84,1.84,0,0,0,.28-.15l.07,0a1.42,1.42,0,0,1-.35.13.13.13,0,0,1-.13,0S22.94,14.11,22.93,14.09Zm6.78-8.48A.79.79,0,0,0,29.1,6a4.05,4.05,0,0,0-.31.43l-.2.37-.26.46a6.51,6.51,0,0,1-.43.6l0,.06L27.73,8l-.09.1c-.11.16-.21.33-.3.49s-.29.47-.45.7l-.23.35c-.44.64-.89,1.3-1.37,1.92-.32.41-.67.81-1,1.19-.21.23-.42.47-.62.71a2.85,2.85,0,0,0-.25.33,9.19,9.19,0,0,0,1.86-1.62l.48-.52c.48-.53,1-1.07,1.42-1.64a15.72,15.72,0,0,0,1-1.46l.22-.36c.28-.43.54-.87.79-1.3l.09-.17c.18-.3.35-.61.52-.91l.11-.2h-.19Zm-.77,6.47a4.63,4.63,0,0,1-.45.42c-.46.41-.94.8-1.41,1.18l.57-.45A11.4,11.4,0,0,0,28.94,12.08ZM17,12.18l-.47.34c-.31.23-.63.47-1,.7l.2-.13A11.46,11.46,0,0,0,17,12.18Zm8.07-.77-.68.77c-.25.27-.48.55-.7.83l.38-.43C24.43,12.21,24.77,11.82,25.09,11.41Zm1,.18c-.06.08-.13.15-.2.23s-.22.25-.34.37l.34-.36Zm8.55-4.72h0A18.76,18.76,0,0,1,34,8.75a9.37,9.37,0,0,1-.59,1.19A6.51,6.51,0,0,0,34,9,18.43,18.43,0,0,0,34.64,7C34.65,7,34.67,6.92,34.68,6.87Zm-13.23.88a10.47,10.47,0,0,0-.78.85c-.21.26-.44.51-.67.76l.29-.29c.23-.23.45-.5.66-.75S21.27,7.94,21.45,7.75Zm5.67.71L27,8.59l-.31.51c.14-.21.27-.43.4-.64Zm4-2.25c-.1.24-.2.46-.3.67-.23.49-.48,1-.73,1.45l-.24.44,0-.06a22,22,0,0,0,1.18-2.38Zm-2-.61a3.68,3.68,0,0,0-.55.68c-.24.38-.48.75-.73,1.12l-.31.48a.46.46,0,0,1,.07-.07l.09-.08,0-.06c.14-.19.29-.38.42-.58l.25-.44a2.82,2.82,0,0,1,.21-.38,2.87,2.87,0,0,1,.33-.46A1.68,1.68,0,0,1,29.09,5.6Zm3.66-.7c0,.24-.09.49-.15.72Q32.69,5.28,32.75,4.9ZM30.54,5a1.08,1.08,0,0,1-.61.28,1.18,1.18,0,0,0-.58.14.78.78,0,0,1,.47-.08.59.59,0,0,0,.17,0l.13,0a.11.11,0,0,1,.12,0v0A3.37,3.37,0,0,1,30.54,5ZM35,3.34c0,.14,0,.27,0,.41v.11c0,.19,0,.39,0,.59A8.92,8.92,0,0,0,35,3.34Zm-3.16.09h.05l.08,0,0,0,0-.12L32,3.08l-.15.21Zm2.12-2.26v1c0-.19,0-.39,0-.59A2.17,2.17,0,0,0,33.91,1.17Zm-.81.53h0l0,0a.59.59,0,0,1,.07-.26l-.19.24ZM33.79,1l.05,0a.12.12,0,0,1,.07.07A.31.31,0,0,1,34,.82L33.75,1ZM34,.4h0l.17.06a.14.14,0,0,1,.09.11.17.17,0,0,1,0,.1l.05,0a.12.12,0,0,1,.1,0h0A.51.51,0,0,0,34,.41Z"/></g></g></g></svg>