<svg xmlns="http://www.w3.org/2000/svg" viewBox="0 0 60.63 42.2"><defs><style>.cls-1{fill:#7c4821;}</style></defs><g id="圖層_2" data-name="圖層 2"><g id="event"><path id="ship" class="cls-1" d="M8.53,7.79a26.15,26.15,0,0,0,3.12-.67c1.48,1.67,3.46,1.44,5-.47,1.61,1,3.09.91,4.2-.75,2,.58,3.1-.33,2.85-2.22a5.43,5.43,0,0,1-.12-1.13C23.66,1,22.26.1,20.47.63c-.48.15-.94.38-1.39.57C17.35-.33,17.35-.33,15.61.81,15,.65,14.3.47,13.63.34a1.46,1.46,0,0,0-2,1.06c-.1.23-.22.44-.35.69-.33,0-.62,0-.91-.09A3.32,3.32,0,0,0,6.58,6.44C7,7.6,7.28,7.9,8.53,7.79ZM7,4.46a3,3,0,0,1,3.54-1.91c.51.15,1,.37,1.73.63a6.68,6.68,0,0,1-.18-.87C12,1.22,12.51.68,13.57.86c.76.13,1.65.05,2.07,1,.68-.4.85-1.45,1.81-1.26s1,.9,1.15,1.77c.32-.23.5-.37.69-.49a7,7,0,0,1,1-.59c1.6-.7,2.57-.14,2.82,1.69l-.89.52c1,.52,1.76,1.11.31,1.89-.77.41-1,.24-1.65-.89-.5,0-.45.38-.55.69a1.78,1.78,0,0,1-3,1,4.7,4.7,0,0,1-.74-1.3c-.21.52-.37.92-.54,1.32a2.23,2.23,0,0,1-3.16,1.08c-.69-.41-.77-.77-.39-1.55A3.93,3.93,0,0,0,12.67,5l-.24-.14c-.28.34-.61.65-.85,1A3.33,3.33,0,0,1,8.12,7.19C7.21,7.09,6.62,5.56,7,4.46ZM26,9.28a6.34,6.34,0,0,0,1,.14c.25.78.27,1.8,1.27,2a15.11,15.11,0,0,0,2.55.1c.24.25.51.79.88.87A1.89,1.89,0,0,1,33.35,14c.35-.14.71-.18.84-.37a3.46,3.46,0,0,1,2.59-1.29,3.24,3.24,0,0,0,1.44-.73,2,2,0,0,0,.45-2.73,7.06,7.06,0,0,0-.55-.64,8.77,8.77,0,0,0,.57-.9,1.58,1.58,0,0,0-.88-2.38,2.6,2.6,0,0,0-2.2,0c-.35.15-.67.35-1,.52-1.62-.9-3.14-1-4.38.14-1.08,0-2,0-2.83.1a2.82,2.82,0,0,0-2.18,1.75A1.34,1.34,0,0,0,26,9.28Zm-.21-1.89a3.32,3.32,0,0,1,3.75-1c.31.17.47.61.76,1,.15-.21.35-.37.39-.56.22-1.16.39-1.35,1.48-1.46,1.29-.14,1.85.33,2.14,1.8.55.09.45-.39.56-.65a1.81,1.81,0,0,1,2.44-1.15c.5.18,1,.42,1,1a2.49,2.49,0,0,1-.62,1.31c-.22.26-.68.32-1,.5a7.85,7.85,0,0,0-.76.52A3.65,3.65,0,0,1,36.1,9a6.66,6.66,0,0,0,.8-.17,1.11,1.11,0,0,1,1.27.33,1.23,1.23,0,0,1,.15,1.43,2.51,2.51,0,0,1-2.79,1.24,8,8,0,0,1-.87-.37c-.2.57.12,1.37-.8,1.56l-.94-1.3a1,1,0,0,0-.34,0c-.35.14-.74.18-.88-.19a1.64,1.64,0,0,1,.11-.94c.14-.45.73-.73.55-1.39-.67,0-.84.52-1.09.9a2.17,2.17,0,0,1-2.08,1,2.1,2.1,0,0,1-1.26-.68c-.35-.43-.12-.95.24-1.38a7.61,7.61,0,0,0,.51-.75l-.2-.19a5.85,5.85,0,0,1-.71.35,3.85,3.85,0,0,1-1.3.37C25.67,8.83,25.36,8.07,25.82,7.39ZM23.1,11.22a15.86,15.86,0,0,0-1.53.46c-1.13-.89-2.26-.34-3.32.31-.85.52-1,1.53-.27,2a1.8,1.8,0,0,1,.76,1.2,1.17,1.17,0,0,0,1.56.87c.32-.08.63-.21.91-.31,1.6,1,2.58.56,2.82-1.26a1.84,1.84,0,0,1,.43-.83,1.43,1.43,0,0,0,.15-1.76A1.32,1.32,0,0,0,23.1,11.22Zm1.26,1.38c.08.51-.17.74-.92.85a1,1,0,0,0-.21.1c.21,1.85.21,1.85-1.21,1.92a1.74,1.74,0,0,0,.21-.55,2.61,2.61,0,0,0-.16-.64,2.27,2.27,0,0,0-.53.22c-.32.26-.58.6-.91.84a.81.81,0,0,1-1.23-.15c-.35-.46,0-.76.37-1a3.5,3.5,0,0,0,.49-.51c-.79-.29-1.59.56-2.18-.29-.1-.5.2-.83.66-1a8,8,0,0,1,1.18-.46c.76-.21,1,0,1.06.92,0,.06.11.11.25.24a4.51,4.51,0,0,1,.71-.6,4.88,4.88,0,0,1,1.33-.62A.89.89,0,0,1,24.36,12.6ZM59.17,27.76c-2.46-.07-4.91-.13-7.36-.22-1.15-.05-2.33-.36-3.29.75-.38-.68-.72-1.21-1-1.78-.64-1.33-1.27-2.66-1.84-4-.23-.55-.43-.88-1.1-.65A2,2,0,0,1,42,20.78a2.31,2.31,0,0,0-2.4-1.24,28.86,28.86,0,0,1-3.26-.17c0-1.38-.07-2.63-.1-3.88-.42,0-.79.13-1.17.14-1,0-1.94,0-2.92.09s-1,.16-1,1.07.09,1.59.14,2.5l-4.69.15c0-.92.05-1.78.07-2.77-.88,0-1.63,0-2.38.12s-1.06.32-1,1.23a14.06,14.06,0,0,0,.22,1.47,29.4,29.4,0,0,1-2.41,1.69A2.26,2.26,0,0,0,20.1,22.5c-.5,1.38-1.13,2.72-1.69,4.09a1.26,1.26,0,0,1-1.19.77c-1.93.2-3.86.45-5.79.68a1.21,1.21,0,0,0-1.08.75,8.43,8.43,0,0,0-.39.8A1.54,1.54,0,0,1,8,30.72,3.4,3.4,0,0,0,4.59,31.8c-1.26,1.58-2.71,3-4.07,4.53a8.5,8.5,0,0,0-.52.73c.34.92,1.1.8,1.71.88.7,1.65,1.5,1.8,3.57,1.22,1.51,2,2.7,1.93,6-.22.75,2.15,1.91,2.59,3.91,1.52.43-.23.84-.5,1.25-.74,1,1.56,1.72,2.14,2.89,2.09a7,7,0,0,0,2.23-.43c1.25-.49,2.44-1.13,3.66-1.71.65,2,1.78,2.41,3.59,1.39A14.58,14.58,0,0,0,30,40.17c.19-.14.39-.26.59-.38,1,1.71,1.81,1.89,3.42.81a7.73,7.73,0,0,0,.83-.58c.47-.4.92-.83,1.37-1.25.13.16.21.21.23.28a3.53,3.53,0,0,0,5.49,1.82c.38-.3.75-.61,1.14-.93a4.06,4.06,0,0,0,6.45,1.14c.32-.33.72-.6,1-.95,1.64-1.93,3.28-3.86,4.89-5.82,1.21-1.46,2.38-3,3.56-4.44.51-.63,1-1.27,1.64-2.07ZM35.81,16.22c0,1.07-.05,2-.07,3.11l-3.86-.1c0-.91-.05-1.85-.08-2.9ZM24.88,17.28a6.46,6.46,0,0,1,.88,0,2.64,2.64,0,0,1,.52.15c0,.64,0,1.25-.05,2-.45,0-.89,0-1.33,0-.88-.05-1.11-.29-1.11-1.13S24,17.35,24.88,17.28Zm0,2.82c2.36-.19,4.73-.24,7.1-.24s4.89.14,7.34.18a2.66,2.66,0,0,1,2.64,1.85l-13.67.46c0,1.08-.07,2.09-.07,3.09a.92.92,0,0,1-1,1c-2,.11-4,.25-6.16.39a8.34,8.34,0,0,1,.89-3.66,8.88,8.88,0,0,0,.59-1.4A2.23,2.23,0,0,1,24.86,20.1Zm-5.49,5.65a28.43,28.43,0,0,0,1.2-2.92A2.07,2.07,0,0,1,22,21.38c-.53,1.68-1,3.2-1.49,4.71-.35,1-.44,1.06-1.66.93C19,26.58,19.2,26.17,19.37,25.75Zm29,15.45a3.24,3.24,0,0,1-4.14-.73A6.57,6.57,0,0,1,43.59,39a2.23,2.23,0,0,0-.68.24,12.77,12.77,0,0,0-1.23,1.09c-1.45,1.39-3.78.33-4.49-.94A5.72,5.72,0,0,1,37,37.48a8.85,8.85,0,0,0-.81.52c-.77.66-1.47,1.41-2.28,2-1.39,1-1.9.84-2.66-.7-.06-.11-.18-.17-.39-.37l-1.18.82a9.31,9.31,0,0,1-1.46,1c-1.22.54-2.07,0-2.29-1.28,0-.27-.12-.54-.21-1-.3.19-.51.3-.69.44a13.3,13.3,0,0,1-4.55,2.18,4,4,0,0,1-1.76,0c-1-.19-1.53-1-1.63-2.51-.4-.29-.6,0-.86.25a12.83,12.83,0,0,1-1.87,1.27c-1.21.59-2,.15-2.34-1.15-.07-.31-.17-.62-.31-1.1l-1.28,1a4.51,4.51,0,0,1-2.53,1.08C6.34,40,6,39.56,6.4,38a3.23,3.23,0,0,0-.61.1c-.34.16-.66.38-1,.53-1.44.6-2.21.16-2.36-1.39L.55,37l1.21-1.36c.83.2,1.65.4,2.47.58a41.78,41.78,0,0,0,8.72.68c3.77.08,7.53.17,11.3.16,3,0,6-.2,9-.28,4.4-.11,8.8-.22,13.2-.3,1.82,0,3.63,0,5.45.08.24,0,.48.07.85.12A15.23,15.23,0,0,1,48.38,41.2Zm5.93-6.35c-2.34-.16-4.66-.33-7-.47-.89-.05-1.77-.05-2.66,0-2,0-3.89.08-5.84.17-2.66.14-5.32.35-8,.48a134.39,134.39,0,0,1-20.56-.2C8.15,34.59,6,34.27,3.88,34l-.12-.35c.5-.61,1-1.24,1.53-1.81a1.41,1.41,0,0,1,.86-.48,13.1,13.1,0,0,1,3.26.14,39,39,0,0,0,10.09.9c2,0,4-.14,6-.24,1,0,1.94-.17,2.91-.23a.94.94,0,0,0,1-.93c.12-.87.29-1.74.48-2.77l3.61-.07L40,28.05a6.36,6.36,0,0,0,.75-.08,2,2,0,0,1,2.33,1.41,3.92,3.92,0,0,0,3.71,2.56c2.83,0,5.66.18,8.49.28l.93.07C55.54,33.23,54.94,34,54.31,34.85Zm2.53-3.38a1.18,1.18,0,0,1-.82.18c-2.89-.07-5.77-.12-8.65-.26-2.23-.1-3.51-1-4.37-3.87l-13.7.18c-.17,1-.29,1.89-.47,2.76s-.17.73-1.18.82c0-.82-.07-1.65-.1-2.42a3.88,3.88,0,0,0-2.88,0c-.08.92-.16,1.78-.25,2.75l-1.21,0c0-.72.06-1.35.05-2s-.25-.82-.89-.75l-1.92.22c-.1.82-.2,1.71-.31,2.68l-1,0c-.08-.17-.18-.28-.18-.39,0-.29.05-.59.06-.88a1.55,1.55,0,0,0-2.09-1.45,1,1,0,0,0-.49.54,4.71,4.71,0,0,0-.21,1c-.19,1.25-.19,1.25-1.6,1.13,0-.82,0-1.65.06-2.46-2.17-.64-2.65-.31-2.91,2.11l-1.87-.29c.22-.53.37-.88.5-1.23A2,2,0,0,1,12.2,28.5a100.6,100.6,0,0,1,11.47-1.28c1.47-.11,2.95-.15,4.6-.22.84-1.15.17-2.71.7-4.18,2.42-.1,4.87-.22,7.32-.28,2.62-.07,5.25-.06,7.87-.12a1.3,1.3,0,0,1,1.38.87c.82,1.86,1.66,3.7,2.47,5.5l10.79.27C58.11,29.92,57.51,30.73,56.84,31.47Zm-26,1.85.88,0a6.59,6.59,0,0,0,.67-.07c0-1.39.06-2.68.1-4.09l-1.34-.13C31.13,30.57,30.63,31.91,30.86,33.32Zm.94-3.64a4.6,4.6,0,0,1,0,3.09C31.29,32.1,31.29,31.82,31.8,29.68Zm2.45-.43a1.34,1.34,0,0,0-.47.8,21.45,21.45,0,0,0-.15,2.27,3.93,3.93,0,0,0,.19.8c1.36-.38,1.58-.64,1.55-1.75a14.9,14.9,0,0,0-.13-1.64C35.16,29.15,34.72,28.92,34.25,29.25Zm.1,3.21A3.3,3.3,0,0,1,34.52,30,2.59,2.59,0,0,1,34.35,32.46Zm5.4-3.4a.68.68,0,0,0-1.11.51c0,1,0,1.92,0,3,1.42.09,1.58,0,1.57-1.3a6.64,6.64,0,0,0,0-1.26A1.66,1.66,0,0,0,39.75,29.06Zm-.28,3.15c-.63-.92-.11-1.61-.06-2.31A2.62,2.62,0,0,1,39.47,32.21Zm-3.23.66c1.23.07,1.38,0,1.46-1s0-1.6.07-2.5l-1.43-.3C36.3,30.46,36.27,31.62,36.24,32.87Zm.55-2.73a1.54,1.54,0,0,1,0,2.09C36.76,31.53,36.77,30.84,36.79,30.14Zm5.72,1.76-1.12.61a3.76,3.76,0,0,1,.41-3.38C42.43,29.53,42.43,29.53,42.51,31.9ZM45.1,25l0,.51-3.61.11c-.05-.36-.07-.61-.11-.85-.23-1.34-.17-1.41,1.24-1.32l1,.08C45,23.61,45,23.61,45.1,25Zm-8.5-.43c0,.29,0,.58.09,1L33.53,26a2,2,0,0,1,.06-2.36c.78,0,1.33,0,1.87,0C36.37,23.63,36.48,23.71,36.6,24.57Zm-4.78-1.12c.08.86.15,1.67.23,2.56l-2.2.21a2.26,2.26,0,0,1,0-2.4C30.28,23,31.09,23.42,31.82,23.45Zm8-.13c.36.77.89,1.42.38,2.29L38,25.56c-.12-.61-.24-1.23-.38-2Zm-16.09.27c0-.92.48-1.47,1.22-1.45a1.5,1.5,0,0,1,1.52,1.66,1.57,1.57,0,0,1-1.61,1.32C24.09,25.09,23.68,24.54,23.7,23.59Z"/></g></g></svg>