<svg xmlns="http://www.w3.org/2000/svg" viewBox="0 0 49.46 96.4"><defs><style>.cls-1{fill:#7c4821;}</style></defs><g id="圖層_2" data-name="圖層 2"><g id="event"><g id="surf"><path class="cls-1" d="M29.74,15.7c-.1,0-.19-.07-.19-.11a.31.31,0,0,1,.05-.21c.16-.21.33-.41.49-.61a.22.22,0,0,0-.06-.38L30,14.33l-.09-.23c.09,0,.21-.08.26,0a4.33,4.33,0,0,1,.58.55.35.35,0,0,1-.06.29c-.26.07-.33.31-.48.47A3.39,3.39,0,0,1,29.74,15.7Z"/><path class="cls-1" d="M29.74,16a.21.21,0,0,1-.12,0l-.08,0a.34.34,0,0,1-.24-.26.57.57,0,0,1,.1-.39l.42-.53.08-.09a.46.46,0,0,1-.17-.17c0-.06-.05-.13-.08-.19l0-.06a.26.26,0,0,1,0-.21.27.27,0,0,1,.18-.13h.06a.41.41,0,0,1,.4,0,4.93,4.93,0,0,1,.61.59.44.44,0,0,1,0,.43s-.07.22-.23.26-.13.09-.21.21-.09.13-.15.19a1.7,1.7,0,0,1-.33.27l-.12.09A.3.3,0,0,1,29.74,16Zm.68-1.28s0,0,0,.05l.05,0Z"/><path class="cls-1" d="M49.09,31.51c-.08-.35-2.85-1.24-3.53-1.5a2.63,2.63,0,0,1-.85-.38c-.76-.73-1.51-1.47-2.21-2.26s-1.11-1.49-1.72-2.18c-.82-.93-1.71-1.82-2.57-2.72a6.94,6.94,0,0,1-1.52-1.92c-.31-.69-.71-1.35-1.07-2l-1.13-2.1a1.24,1.24,0,0,0-.18-.22c-.36-.41-.7-.83-1.08-1.22a5.83,5.83,0,0,0-1.43-1.34,20,20,0,0,0-3.14-1.15,18.32,18.32,0,0,0-3.42-.9,4.08,4.08,0,0,1-1.19-.35.63.63,0,0,1-.13-1.1c.38-.35.45-.53.26-1S23.8,8.39,23.64,8a2,2,0,0,1,.06-2,2.52,2.52,0,0,0,.1-2.86c-.32-.59-.86-1-1.14-1.64S22,.8,21.53.56A3.11,3.11,0,0,0,19.07.45c-.61.19-1.17.51-1.76.74a5.06,5.06,0,0,0-2.24,1.45A4.75,4.75,0,0,0,14,4.91a1.85,1.85,0,0,1-.9,1.37,1.89,1.89,0,0,0-1,1.75,3.77,3.77,0,0,1-.56,2.46c-.07.13,0,.5.08.55.29.15.27-.17.38-.34a4.1,4.1,0,0,0,.5-2.29,1.88,1.88,0,0,1,.82-1.64,2.16,2.16,0,0,0,1-1.64,3.89,3.89,0,0,1,.32-1.48c.05-.1.12-.19.18-.29,0,.11-.05.22-.07.33s0,.13,0,.19a2.46,2.46,0,0,0,0,1.37c.16.38.05.87.2,1.26a.77.77,0,0,1-.23.93,6.88,6.88,0,0,0-.8.82,2.27,2.27,0,0,0-.12,2.79c.44.69.38.92-.25,1.46a.48.48,0,0,0-.11.09,11.53,11.53,0,0,0-1.2,1.33c-.34.5-.66,1.05-.21,1.71a1,1,0,0,1-.2,1.44,1.51,1.51,0,0,0-.42,1.33c.06.46.18.91.28,1.36s.53,2.07.62,2.45a1.73,1.73,0,0,1,0,.32h0c-.14.53-.29,1.06-.45,1.58A16.72,16.72,0,0,1,10.57,28a6.52,6.52,0,0,1-.48.59c-.85,1.06-1.64,2.17-2.55,3.17a12.75,12.75,0,0,1-2.62,2.67,3.72,3.72,0,0,1-1.87.77,1.62,1.62,0,0,0-.49.18,2.08,2.08,0,0,0-1,1.2c-.46.85-.82,1.76-1.22,2.64A.54.54,0,0,0,.69,40,4.49,4.49,0,0,0,2,40.15,1.36,1.36,0,0,0,3.2,39.5c.36-.47.71-1,1.06-1.42a1,1,0,0,1,.2-.15,2,2,0,0,1-.06.23c0,.08-.1.16-.14.25s-.09.47.13.59.5.25.64.17a1.64,1.64,0,0,0,.75-.7,7.92,7.92,0,0,0,.66-1.84,1.84,1.84,0,0,1,.61-1c1.13-1.11,2.19-2.28,3.34-3.36A25.38,25.38,0,0,1,13,30.2,2.51,2.51,0,0,0,14,28.7a10.15,10.15,0,0,1,1.24-3.05,4.19,4.19,0,0,0,.57-1.06,21.53,21.53,0,0,1,1.34-3c.1-.21.16-.18.26,0,.79,1.09,4.41,3,4.44,3.06a6,6,0,0,1,.19.6,3.92,3.92,0,0,0,1.77,1.87,1.36,1.36,0,0,1,.78,1c.17,1,.46,1.92.63,2.88a4.82,4.82,0,0,1,0,1.42A12.62,12.62,0,0,0,25,34.16a4.41,4.41,0,0,1-.13,2c-.19.47-.32,1-.53,1.43-.29.65-.64,1.28-.93,1.93-.52,1.15-1,2.34-1.54,3.48-.44.89-3.08,4.92-3.34,5.33A4.6,4.6,0,0,0,18,49.59l0,.15a8.33,8.33,0,0,0,.31,1.19h0l.08.1a11.42,11.42,0,0,0,1,1.18c.81.75,1.67,1.45,2.51,2.18.05.05.12.17.1.22-.2.54-.43,1.06-.64,1.6a17.37,17.37,0,0,0-.86,2.38,15.94,15.94,0,0,1-.87,2.88,4.05,4.05,0,0,0-.35,1.14,10.54,10.54,0,0,0,0,3,28.24,28.24,0,0,1,.14,3.2,19.79,19.79,0,0,0,.26,2.67c.23,1.22.55,2.43.89,3.61s.71,2.29,1.13,3.41.85,2,1.3,3c.24.53.49,1.06.77,1.58s.68,1.23,1,1.86c.22.44.37.92.61,1.34a24,24,0,0,0,3.85,5,8.55,8.55,0,0,0,2,1.69,6.85,6.85,0,0,1,1,.75c.56.47,1.31.56,1.91,1a7.53,7.53,0,0,0,4.93,1.41A2,2,0,0,0,40.86,95c.44-.85.81-1.73,1.2-2.59a3.26,3.26,0,0,0,.41-1.75c0-.05,0-.09,0-.14a15.41,15.41,0,0,0,.53-3c.05-.44,0-.9.1-1.34a17.55,17.55,0,0,0,.28-3.76,28.4,28.4,0,0,0-.22-3.57c-.25-1.62-.61-3.23-1-4.82s-.83-2.91-1.33-4.34a17.2,17.2,0,0,0-2.3-4.44c-.44-.61-.91-1.19-1.38-1.77S36.35,62.53,36,62a19.65,19.65,0,0,0-3.4-3.59,3.63,3.63,0,0,1-1.38-2.37,9.12,9.12,0,0,0-1.52-3.51c-.41-.66-1-1.21-1.44-1.83a.94.94,0,0,1-.08-1.1,23.67,23.67,0,0,1,2.2-2.79c1.05-1.31,2.11-2.6,3.12-3.94.68-.9,1.29-1.86,1.89-2.81a20.53,20.53,0,0,0,1.32-2.33c.43-.95,1.81-3.31,1-5.36-.36-.87-.53-1.89-1.46-2.44-.32-.19-.54-.6-.86-.7s-.57-.54-1.05-.49a.74.74,0,0,1-.62-.59,8.13,8.13,0,0,0-.62-1.54c-.48-1-1-2-1.48-3-.15-.31-.42-.64-.4-.94a7.65,7.65,0,0,0-.2-2.57,2.48,2.48,0,0,1,0-.27,1.2,1.2,0,0,1,.26.18c.41.43.79.88,1.2,1.3A20.68,20.68,0,0,0,35.52,24a5.29,5.29,0,0,1,1.69,1.64,12.24,12.24,0,0,0,2.47,3.12,41.31,41.31,0,0,0,3.46,2.57c.33.22.53,2.3.57,2.57A1.34,1.34,0,0,0,44.44,35c.31.15.84-.83.9-1.1a1.21,1.21,0,0,1,0-.18.71.71,0,0,1,.1.14c.13.26.26.51.38.77a2.54,2.54,0,0,0,2.07,1.49A1,1,0,0,0,49,35.59,15.25,15.25,0,0,0,49.09,31.51Zm-31-20.89a0,0,0,0,0,0,0v0h0Zm.61-.3a6.26,6.26,0,0,1-2-3.61,3.61,3.61,0,0,1,.12-2,.69.69,0,0,1,.6-.46,5.17,5.17,0,0,0,2.44-.92,1.28,1.28,0,0,1,1.85,1c.07.78.22,1.54.29,2.31a4.18,4.18,0,0,1-.67,2.87c-.21.28-.38.59-.59.87a1,1,0,0,1-.95.5l-.06.09A4.93,4.93,0,0,1,18.73,10.32Zm1.88,11.32c-.07.19-.14.39-.22.58,0-.21.07-.42.12-.63a.87.87,0,0,1,.1-.19,1.09,1.09,0,0,0,0,.15A.3.3,0,0,1,20.61,21.64Zm.46,31.55a18.23,18.23,0,0,1-1.66-1.51,9.28,9.28,0,0,1-.88-1.46.41.41,0,0,1,0-.19,5.86,5.86,0,0,1,1.32-2.42,6,6,0,0,0,1.4-2.08c.66-1.56,1.39-3.08,2.08-4.63.46-1,.9-2,1.38-3s1.06-2.08,1.57-3.12c.13-.27.29-.37.56-.24.64.3,1.26.62,1.9.91.33.15.46.26.26.66-.52,1-1,2.13-1.43,3.19-.39.86-.77,1.72-1.17,2.57a10.92,10.92,0,0,1-.77,1.43c-.45.68-1,1.31-1.44,2s-1.05,1.56-1.62,2.32a1.8,1.8,0,0,0-.46,1.38,10.81,10.81,0,0,0,.49,1.94,11.59,11.59,0,0,0,.64,1.33l1.52,3.39c.06.13.14.26.19.39s.1.37.16.56a6.1,6.1,0,0,1-.46-.41,8.68,8.68,0,0,0-1.89-1.58A16.54,16.54,0,0,1,21.07,53.19Zm8-19.61a4,4,0,0,1,.24-.33l.08.23c-.09.09-.19.17-.28.27C29.09,33.69,29.05,33.61,29.07,33.58ZM42.43,89.17a25.89,25.89,0,0,1-.68,2.66,16,16,0,0,1-1.32,2.61,1.82,1.82,0,0,1-2.07,1,6.13,6.13,0,0,1-3.62-1.06c-.26-.16-.54-.28-.8-.43a29.23,29.23,0,0,1-2.74-1.54,19,19,0,0,1-1.89-1.7,19.81,19.81,0,0,1-2.76-3.49s0-.13-.07-.2a.78.78,0,0,1,.18.11c.52.4,1,.81,1.55,1.2s1.26.91,1.9,1.35,1.24.84,1.88,1.22,1.37.75,2.06,1.11l.71.36,1.46.68a10.31,10.31,0,0,0,1.63.66,4.17,4.17,0,0,0,1.61.09c.28,0,.55-.4.75-.67A13,13,0,0,1,41,91.8a8.72,8.72,0,0,0,1.2-2.7,1.5,1.5,0,0,1,.19-.25A.88.88,0,0,1,42.43,89.17ZM31.64,58.35a1.59,1.59,0,0,1,.21.15c.84.79,1.7,1.55,2.5,2.36a24.22,24.22,0,0,1,3.11,3.74c.41.64,1,1.19,1.36,1.84a27.77,27.77,0,0,1,1.52,2.91A22.14,22.14,0,0,1,41,71.49c0,.16.18.3.22.47.2.73.38,1.47.57,2.2.24,1,.53,2,.72,2.94s.23,1.78.33,2.67c0,.26.06.53.07.8,0,.51,0,1,0,1.54a17.32,17.32,0,0,1,0,2c-.11.81-.31,1.61-.49,2.4a17.71,17.71,0,0,1-.53,1.93c-.34.93-.72,1.84-1.15,2.73a7,7,0,0,1-.82,1.1c-.16.22-.25.52-.57.59A1.63,1.63,0,0,1,39,93a7.54,7.54,0,0,1-1,0,5.32,5.32,0,0,1-2-.8c-.83-.44-1.68-.86-2.54-1.22a14.57,14.57,0,0,1-2.69-1.67c-.43-.3-.87-.56-1.28-.87s-1.1-.78-1.61-1.22a21.73,21.73,0,0,1-2.36-2.23,12.86,12.86,0,0,1-1.39-2.28c-.46-.88-.87-1.78-1.28-2.68s-.86-1.88-1.22-2.85a21.61,21.61,0,0,1-.69-2.38c-.28-1.07-.55-2.15-.78-3.23-.13-.65-.18-1.33-.25-2s-.13-1.48-.18-2.22c0-.28,0-.56,0-.85-.05-.81-.15-1.63-.15-2.44a9.31,9.31,0,0,1,.69-3,10.22,10.22,0,0,0,.43-1.46,18.13,18.13,0,0,1,.72-2.27c.16-.48.35-1,.52-1.44.24-.67.36-1,1.24-.52a1.32,1.32,0,0,1,.32.2c.5.49,1,1,1.47,1.48.22.22.43.46.65.67a5,5,0,0,1,1,2.18c.38,1,.74,1.94,1.12,2.9.16.42.34.83.53,1.23s0,.34-.23.43c-.79.42-1.58.83-2.36,1.26a17.35,17.35,0,0,0-1.56.93c-.2.13-.3.41-.44.62.24.1.48.29.71.28a9.06,9.06,0,0,1,2.08.07,9.79,9.79,0,0,0,1.87-.07H29c0,.11,0,.25-.09.32a2,2,0,0,1-.54.44c-.39.22-.81.39-1.21.59l-4,2c-.33.17-.5.57-1,.59-.13,0-.3.38-.34.6s.09.34.36.35c.72,0,1.44.18,2.15.17a15.24,15.24,0,0,0,2.13-.23c.77-.12,1.52-.33,2.29-.44s1.57-.12,2.36-.22a5,5,0,0,0,.81-.25c.21-.06.41-.27.66,0,0,0,.31-.09.37-.19a2.86,2.86,0,0,0,.58-1.59,6.61,6.61,0,0,0-.82-2.47.67.67,0,0,1-.12-.51c0-.11.31-.17.46-.16a5.34,5.34,0,0,1,.88.2,1.93,1.93,0,0,0,2-.74c.06-.09.15-.16.21-.25s.25-.33,0-.55-.09-.29-.16-.43a5.07,5.07,0,0,0-.71-1.27c-.62-.61-1.39-1.08-2-1.71a11.82,11.82,0,0,1-1.32-1.79,2.19,2.19,0,0,1-.52-1.31A1.35,1.35,0,0,1,31.64,58.35Zm-3.05,6.9c.14.36.31.72.43,1.1s0,.53-.35.58c-.63.1-1.28.15-1.7.2l-1.8-.24-.18,0,.16-.09L28,65C28.27,64.85,28.48,65,28.59,65.25Zm3-5.16a1.34,1.34,0,0,1,.28.18c.42.55.83,1.11,1.26,1.66a3.76,3.76,0,0,0,.42.36c.59.55,1.21,1.08,1.77,1.66a1.64,1.64,0,0,1,0,1.9,1.27,1.27,0,0,1-1.12.14,1.73,1.73,0,0,0-1.47-.13c-.24.06-.3,0-.35-.24-.22-.89-.45-1.78-.68-2.67l.14,0c-.09-.84-.19-1.68-.27-2.51A1.17,1.17,0,0,1,31.58,60.09Zm3.29-30.25c.05-.06.15-.12.21-.1s.12.11.17.18-.13,0-.18,0l-.3.23-.05,0A2.34,2.34,0,0,1,34.87,29.84Zm1.05.8a.56.56,0,0,1,.49.21.3.3,0,0,1,.16.15c.26.65.5,1.3.74,2a5.3,5.3,0,0,1,.23.67,1.26,1.26,0,0,1,0,.61,18,18,0,0,1-2.25,5.14c-1,1.45-2,3-3,4.43-.38.54-.9,1-1.28,1.53-.9,1.24-2.08,2.23-3,3.41a1.8,1.8,0,0,0-.42,1.43A2,2,0,0,0,28,51c.42.59.87,1.17,1.3,1.76a4.75,4.75,0,0,1,.55.85,17.09,17.09,0,0,1,.69,1.66A17.53,17.53,0,0,1,31,57.16a5.19,5.19,0,0,1,.06,1.12c0,.53,0,1.06,0,1.59s0,1.15.07,1.72c.05.77.09,1.53.19,2.29a6.92,6.92,0,0,0,.34,1.24c.41,1.17.82,2.34,1.25,3.5A1.92,1.92,0,0,1,32,70.88a8.87,8.87,0,0,1-2.42.47c-.87.19-1.75.34-2.62.49l-1.61.27s0-.08,0-.12h-2a1.69,1.69,0,0,1-.36-.12l.21-.25a6.14,6.14,0,0,1,1.93-1.05c.53-.25,1-.55,1.57-.8s.78-.35,1.18-.52.33,0,.23.24c0,.06,0,.15,0,.23a1.66,1.66,0,0,0,.21-.06c.86-.27,1-1,1.22-1.75a3.59,3.59,0,0,0-.31-2.33c-.5-1.43-1.07-2.83-1.61-4.25s-.95-2.59-1.47-3.87c-.29-.73-.67-1.42-1-2.13-.45-.95-.88-1.91-1.33-2.87-.25-.55-.54-1.08-.77-1.64a5.64,5.64,0,0,1-.39-1.33,3,3,0,0,1,.2-.91c.05-.23.05-.45.12-.67a1.78,1.78,0,0,1,.24-.39,20.33,20.33,0,0,1,2.34-3.14,8.93,8.93,0,0,0,1.05-1.8c.38-.77.73-1.56,1.08-2.34.2-.44.37-.88.57-1.31s.55-1,.81-1.57a1.43,1.43,0,0,0,.17-.49c0-.23,0-.42.32-.48,0,0,.05,0,.06-.06l.69-1.87a2.18,2.18,0,0,1,.22-.59l.38-.51a4.31,4.31,0,0,1,1.34-1.57A6.73,6.73,0,0,1,35.92,30.64Zm-2.19-.4.11.1-.29.3s-.06-.06,0-.08S33.65,30.35,33.73,30.24ZM33,27.66c.17.44.13,1,.57,1.29a.62.62,0,0,1-.17.3c-.53.36-1.09.68-1.62,1a5.43,5.43,0,0,0-.68.59A5.49,5.49,0,0,1,28.71,32l-1.58.36A.87.87,0,0,1,26.3,32a12.19,12.19,0,0,0-.54-1.42,3.84,3.84,0,0,1-.35-1.75A2.58,2.58,0,0,0,24,26.56a3.75,3.75,0,0,1-1.55-1.77c0-.07-.05-.15-.09-.22-.17-.32-.13-.39.24-.39,0,0,.11,0,.14,0,.48.51,1.05.17,1.58.17l2.29,0a8.69,8.69,0,0,0,3-.85,4.59,4.59,0,0,0,.79-.42c.14-.09.23-.1.3.05s.08.11.11.16A31.46,31.46,0,0,1,33,27.66Zm-8.63-5.73s0-.07,0-.09l1.12-1.09s.07,0,.1.06L24.49,22Zm1.82.12c.21-.26.42-.52.64-.77,0,0,.06,0,.21.06l-.84.78S26.17,22.06,26.18,22.05Zm2.11-2.86c.05-.16.1-.32.16-.48s.05,0,.08-.05,0,.08,0,.11l-.05.1-.15.39S28.29,19.21,28.29,19.19Zm20.5,15.13a.91.91,0,0,1-.15-.23c-.18-.54-.34-1.1-.52-1.64a.54.54,0,0,0-.21-.29c-.08,0-.21,0-.31.05a2.5,2.5,0,0,0,.11.39A7.71,7.71,0,0,1,48.46,35c0,.32-.06.62-.38.66s-.33-.33-.39-.55c-.14-.56-.24-1.13-.39-1.69a2.72,2.72,0,0,0-.31-.7c-.06-.09-.25-.09-.38-.13s-.08.18,0,.25c.27.74.55,1.46.83,2.2,0,.16.06.34.1.51-.09-.1-.63.39-1.48-1.81-.22-.58-.47-1.11-.64-1.69a.33.33,0,0,0-.27-.18.4.4,0,0,0-.3.2.91.91,0,0,0,0,.49c.17.41.09,1.88-.31,1.9-.24,0-.66-2.61-.82-3.36a.22.22,0,0,0-.11-.15,12.52,12.52,0,0,1-1.92-1.39A19,19,0,0,1,38.8,27a17.89,17.89,0,0,1-1.37-2,3,3,0,0,0-.59-.72c-.59-.44-1.25-.81-1.82-1.28-.8-.65-1.57-1.33-2.3-2.05a14.15,14.15,0,0,1-2.56-3.11.52.52,0,0,0-.64-.32c-.57.13-1.14.24-1.71.4a16.48,16.48,0,0,0-1.67.58,11.08,11.08,0,0,0-1.52.81A19.74,19.74,0,0,0,23,20.51a.52.52,0,0,1-.57.07c-.4-.15-.8-.32-1.21-.46-.68-.22-1.36-.43-2.05-.63-.47-.13-.95-.23-1.43-.33a.3.3,0,0,0-.23.14c-.24.43-.72.78-.45,1.39a.62.62,0,0,1-.08.41c-.38.86-.77,1.71-1.16,2.56A13,13,0,0,1,15,25.52a10.57,10.57,0,0,0-1.48,3.06,1.94,1.94,0,0,1-.85,1.31,7.13,7.13,0,0,0-1.78,1.36c-.59.63-1.32,1.1-1.89,1.77s-1.31,1.19-1.88,1.87c0,0,0,.06-.06.07-.82.29-1,1-1.15,1.74a9.33,9.33,0,0,1-.67,1.6c0,.09-.16.13-.23.2a1.12,1.12,0,0,1,0-.32,9.85,9.85,0,0,0,.36-1,.55.55,0,0,0-.14-.47c-.11-.13-.71.12-.79.3a.88.88,0,0,1-.14.23c-.48.6-1,1.18-1.42,1.79a1.28,1.28,0,0,1-1.48.58A4.13,4.13,0,0,1,1,39.48c.1-.12.18-.29.31-.36a4.32,4.32,0,0,0,1.16-1.36A4.66,4.66,0,0,0,2.85,37c0-.09-.05-.23-.08-.34a2.29,2.29,0,0,0-.37.12c-.06,0-.06.15-.1.21-.35.57-.71,1.13-1.07,1.69,0,0-.09.07-.14.11s0-.12,0-.17a3.46,3.46,0,0,1,.19-.54c.2-.43.43-.86.62-1.29a1.65,1.65,0,0,1,1.23-1,8.68,8.68,0,0,0,1-.23,3.71,3.71,0,0,0,1.75-1.15c.51-.58,1-1.18,1.46-1.78L9,30.54a17,17,0,0,1,1.54-1.92,3.47,3.47,0,0,0,.92-1.6c.42-1.39.8-2.79,1.19-4.19.29-1,.59-2,.87-3,.09-.27.11-.57.22-.83.21-.5.48-1,.67-1.49a3.81,3.81,0,0,1,1.64-2c.67-.4,1.38-.73,2.06-1.11a6.33,6.33,0,0,0,1.18-.7c.33-.27.49-.41.82,0a4,4,0,0,1,1,1.54.34.34,0,0,0,.21.21.32.32,0,0,0,.26-.12c.23-.65.85-.8,1.36-1.07a3.82,3.82,0,0,1,1.2-.25c.41-.06.82-.08,1.24-.12a1.2,1.2,0,0,0,.33,0c.09,0,.16-.13.23-.2a1,1,0,0,0-.27-.16c-.1,0-.22.06-.32,0a5.62,5.62,0,0,0-2.2,0,.29.29,0,0,0-.14,0l-1.34.93a.21.21,0,0,1-.17,0c-.4-.51-.78-1-1.18-1.54s-.64-.76-.93-1.16a3.1,3.1,0,0,1-.28-.58l.63.14a1.91,1.91,0,0,0,1.27-.33c.38-.64.72-1.3,1.11-1.93a4.16,4.16,0,0,0,.42-.94s0-.25,0-.55c.21.87.49,1.94.5,2.05a9.5,9.5,0,0,0,.23,1.4.74.74,0,0,0,.38.46c.69.19,1.4.32,2.1.48.34.08.69.15,1,.25.78.25,1.55.51,2.33.78a16.44,16.44,0,0,1,2.29.83A6.1,6.1,0,0,1,32.63,15,10.39,10.39,0,0,1,34,16.44a21.23,21.23,0,0,1,1.1,2c.65,1.13,1.28,2.29,2,3.38a14.25,14.25,0,0,0,1.55,1.66,16.2,16.2,0,0,1,1.72,1.79,28.7,28.7,0,0,0,2,2.53c.52.6,1.13,1.13,1.62,1.75a2.87,2.87,0,0,0,1.56.93c.92.29,1.85.6,2.77.93a.45.45,0,0,1,.24.32c.11.79.2,1.58.29,2.37A.69.69,0,0,1,48.79,34.32Z"/><path class="cls-1" d="M38.69,96.4A7.75,7.75,0,0,1,34,94.93a4.1,4.1,0,0,0-.86-.44,3.64,3.64,0,0,1-1.06-.57,6.51,6.51,0,0,0-1-.72A9,9,0,0,1,29,91.46a24.41,24.41,0,0,1-3.89-5,6.55,6.55,0,0,1-.35-.77c-.08-.2-.17-.4-.26-.59s-.33-.61-.5-.92l-.51-.94c-.27-.52-.53-1-.77-1.59l-.27-.61c-.36-.79-.73-1.61-1-2.43-.41-1.11-.79-2.26-1.13-3.43-.39-1.35-.68-2.54-.9-3.63a20.46,20.46,0,0,1-.25-2.47v-.24c0-.4,0-.8,0-1.2a9.67,9.67,0,0,0-.11-2,11,11,0,0,1,0-3.08,3.93,3.93,0,0,1,.37-1.22,16.43,16.43,0,0,0,.86-2.84,10.52,10.52,0,0,1,.6-1.74l.27-.68.29-.74c.11-.26.22-.52.32-.78l-.9-.79c-.55-.47-1.09-.93-1.62-1.42a5.71,5.71,0,0,1-.73-.83l-.3-.37-.08-.1A.23.23,0,0,1,18,51a9.14,9.14,0,0,1-.31-1.19.21.21,0,0,1,0-.11l0-.15a5.55,5.55,0,0,1,.61-1.36l.31-.48c.73-1.12,2.65-4.09,3-4.82s.64-1.39.93-2.07c.2-.47.4-.94.61-1.41s.31-.63.47-1,.32-.64.46-1a7.38,7.38,0,0,0,.3-.78c.07-.22.14-.43.23-.64a3.58,3.58,0,0,0,.13-1.63l0-.24A4.34,4.34,0,0,1,24.92,33c0-.24.09-.46.12-.69A5.65,5.65,0,0,0,25,31c-.09-.46-.2-.91-.31-1.37s-.24-1-.33-1.51-.26-.55-.65-.79a4.11,4.11,0,0,1-1.88-2l-.09-.28a1.68,1.68,0,0,0-.07-.24l-.32-.19a18.45,18.45,0,0,1-4-2.77c-.11.24-.23.47-.35.71a13.06,13.06,0,0,0-.91,2.1,3.57,3.57,0,0,1-.5,1l-.09.15a9.8,9.8,0,0,0-1.22,3,2.72,2.72,0,0,1-1.17,1.64,27.29,27.29,0,0,0-2.55,2c-.66.62-1.31,1.29-1.94,1.94-.46.48-.92,1-1.39,1.41a1.61,1.61,0,0,0-.55.9A7.64,7.64,0,0,1,6,38.58a2.05,2.05,0,0,1-.86.81c-.25.14-.62,0-.88-.17A.63.63,0,0,1,4,38.87l-.58.78A1.63,1.63,0,0,1,2,40.4H1.85a4.11,4.11,0,0,1-1.24-.14.9.9,0,0,1-.56-.45,1,1,0,0,1,.06-.73L.5,38.2c.26-.59.52-1.2.84-1.79l.07-.15a2.15,2.15,0,0,1,1.06-1.17L2.59,35a1.31,1.31,0,0,1,.46-.14,3.12,3.12,0,0,0,1.56-.63l.18-.1a7.5,7.5,0,0,0,1.89-1.84c.22-.26.44-.53.67-.79.63-.69,1.21-1.44,1.78-2.18l.76-1,.2-.23a2.61,2.61,0,0,0,.27-.33,10.41,10.41,0,0,0,1-2.67c.1-.37.2-.74.31-1.1.16-.51.3-1,.44-1.53v-.08a.76.76,0,0,0,0-.16c0-.18-.16-.63-.28-1.1s-.3-1.15-.34-1.36l0-.16c-.09-.4-.19-.8-.25-1.21a1.75,1.75,0,0,1,.5-1.55.79.79,0,0,0,.17-1.12,1.6,1.6,0,0,1,.2-2,6.85,6.85,0,0,1,.87-1c.12-.12.24-.24.35-.37l.11-.1c.58-.48.6-.58.23-1.14a2.51,2.51,0,0,1,.13-3.08,4.21,4.21,0,0,1,.58-.61l.24-.24a.51.51,0,0,0,.18-.66,2.13,2.13,0,0,1-.11-.7,2.26,2.26,0,0,0-.09-.56A2.47,2.47,0,0,1,13.42,7a1.61,1.61,0,0,0-.71,1.43v.11a4.2,4.2,0,0,1-.54,2.32l0,.1a.54.54,0,0,1-.28.36.46.46,0,0,1-.39,0,.51.51,0,0,1-.21-.3.9.9,0,0,1,0-.6,3.47,3.47,0,0,0,.52-2.31,2.12,2.12,0,0,1,1.12-2,1.6,1.6,0,0,0,.78-1.21,5.19,5.19,0,0,1,1.16-2.38A5.45,5.45,0,0,1,17.22,1l.69-.31A10.18,10.18,0,0,1,19,.21a3.31,3.31,0,0,1,2.65.13l.15.07a2,2,0,0,1,1.09,1,4.32,4.32,0,0,0,.57.82A5.78,5.78,0,0,1,24,3a2.77,2.77,0,0,1-.12,3.14,1.71,1.71,0,0,0,0,1.79c.08.18.16.35.25.52s.21.4.29.61a1,1,0,0,1-.33,1.29.45.45,0,0,0-.17.4.39.39,0,0,0,.24.28,3.73,3.73,0,0,0,1.11.33,11.74,11.74,0,0,1,2.55.62c.31.11.61.2.92.29a20.93,20.93,0,0,1,3.18,1.16,4.16,4.16,0,0,1,1.16,1c.11.13.22.26.34.38.28.29.54.59.8.89l.34.39a1.28,1.28,0,0,1,.16.21c.38.7.76,1.4,1.13,2.11.1.2.22.4.33.6.26.46.53.94.75,1.44a6.31,6.31,0,0,0,1.36,1.74l.6.61c.69.72,1.41,1.46,2.09,2.22.31.36.6.74.88,1.11s.54.74.84,1.07c.62.7,1.31,1.41,2.19,2.24a1.38,1.38,0,0,0,.53.25l.24.09.69.24c2.3.81,2.92,1.11,3,1.43a15.15,15.15,0,0,1-.08,4.19,1.21,1.21,0,0,1-1.36.74,2.77,2.77,0,0,1-2.24-1.62l-.21-.42a2.15,2.15,0,0,1-.71.89.42.42,0,0,1-.39,0,1.6,1.6,0,0,1-.88-1.33,1.58,1.58,0,0,0,0-.23c-.2-1.71-.36-2.1-.44-2.18a39.35,39.35,0,0,1-3.47-2.58A12.27,12.27,0,0,1,37,25.75a5.09,5.09,0,0,0-1.63-1.57,21.34,21.34,0,0,1-3.14-2.67c-.24-.24-.47-.49-.7-.75l-.21-.23a7.88,7.88,0,0,1,.11,2.19,1.21,1.21,0,0,0,.22.52l.16.29.51,1c.33.66.65,1.31,1,2l0,.09a7.8,7.8,0,0,1,.59,1.5.5.5,0,0,0,.36.4,1.06,1.06,0,0,1,.83.31,1,1,0,0,0,.31.19,1.44,1.44,0,0,1,.6.44,1.6,1.6,0,0,0,.32.28,3.43,3.43,0,0,1,1.36,2c.06.18.13.36.2.54.79,1.92-.25,4-.8,5.2a2.84,2.84,0,0,0-.17.36,19.26,19.26,0,0,1-1.34,2.35c-.64,1-1.23,2-1.9,2.83-.79,1.06-1.64,2.1-2.46,3.12l-.67.82c-.22.29-.46.56-.7.84a13.27,13.27,0,0,0-1.47,1.93.67.67,0,0,0,.06.82c.19.25.39.49.59.73A10.67,10.67,0,0,1,31.46,56a3.33,3.33,0,0,0,1.29,2.21,19.56,19.56,0,0,1,3.44,3.64c.22.3.47.59.71.87l.47.57.09.1c.43.54.88,1.11,1.3,1.68a17.85,17.85,0,0,1,2.34,4.51c.54,1.54,1,3,1.33,4.36.45,1.76.79,3.35,1,4.84a22.76,22.76,0,0,1,.2,3l0,.64a18.07,18.07,0,0,1-.29,3.82,4.47,4.47,0,0,0-.06.75c0,.19,0,.38,0,.57a15.47,15.47,0,0,1-.54,3.06.36.36,0,0,0,0,.07,3.56,3.56,0,0,1-.43,1.85l-.3.67c-.28.64-.57,1.3-.9,1.93a2.26,2.26,0,0,1-2,1.26Zm-7.13-3.49a9,9,0,0,1,.83.62,3.19,3.19,0,0,0,.93.5,4.71,4.71,0,0,1,1,.5,7.38,7.38,0,0,0,4.77,1.36,1.75,1.75,0,0,0,1.58-1c.33-.62.62-1.27.9-1.9l.3-.67a4.05,4.05,0,0,0,.37-1.13c-.07.24-.14.48-.23.72a17.27,17.27,0,0,1-1.33,2.65,2.07,2.07,0,0,1-2.31,1.09,6.32,6.32,0,0,1-3.74-1.1l-.47-.26-.32-.16L33,93.72C32.54,93.46,32,93.2,31.56,92.91Zm6.78,2.25c1.12.08,1.45-.15,1.88-.85a15.44,15.44,0,0,0,1.29-2.57,3.26,3.26,0,0,0,.15-.44,3.14,3.14,0,0,1-.46.66,3.76,3.76,0,0,0-.43.68,5.29,5.29,0,0,1-.36.6c-.25.34-.54.71-.91.77a4.17,4.17,0,0,1-1.71-.09,6.54,6.54,0,0,1-1.27-.49l-.4-.18-1.22-.57-.24-.12c-.25-.12-.49-.23-.73-.36L33.44,92c-.52-.27-1.06-.56-1.58-.86s-1.12-.71-1.65-1.07L30,89.85c-.64-.44-1.28-.89-1.91-1.35L27.43,88a14.24,14.24,0,0,0,2.05,2.47c.2.18.39.37.58.56a8.85,8.85,0,0,0,1.28,1.12,17.41,17.41,0,0,0,1.92,1.11l.8.42a2.69,2.69,0,0,0,.29.16l.52.28A5.83,5.83,0,0,0,38.34,95.16ZM26.51,86.75a.16.16,0,0,1,.1,0,.85.85,0,0,1,.2.13l.58.45c.32.25.64.51,1,.75.62.46,1.25.9,1.89,1.34l.24.16c.53.36,1.07.73,1.63,1.06s1,.57,1.55.84l.49.26.71.35.24.12,1.21.56.41.19a7.19,7.19,0,0,0,1.18.46,3.72,3.72,0,0,0,1.51.08c.19,0,.47-.41.59-.57a4,4,0,0,0,.32-.54,3.57,3.57,0,0,1,.5-.78,4.61,4.61,0,0,0,.85-1.75c.1-.29.19-.59.31-.87a.91.91,0,0,1,.16-.24.18.18,0,0,0,.05-.07.25.25,0,0,1,.27-.09.24.24,0,0,1,.17.14q.09-.63.15-1.26c0-.17,0-.35,0-.53a5.67,5.67,0,0,1,.07-.82,18.17,18.17,0,0,0,.26-2.22,2.48,2.48,0,0,1,0,.27,19,19,0,0,1-.43,2.15l-.11.48a13.82,13.82,0,0,1-.49,1.75c-.35,1-.74,1.89-1.15,2.75a4.26,4.26,0,0,1-.58.81c-.09.11-.19.22-.27.33a1.3,1.3,0,0,0-.1.15,1,1,0,0,1-.61.53l-.08,0a2.38,2.38,0,0,1-.55.06c-.29,0-.54,0-.77,0a5.08,5.08,0,0,1-2-.74l-.17-.08a25.3,25.3,0,0,0-2.52-1.22,13,13,0,0,1-2.39-1.45l-.34-.24c-.19-.14-.39-.26-.58-.39l-.71-.48-.23-.17c-.47-.34-.95-.68-1.4-1.07L27.21,87a17.9,17.9,0,0,1-1.93-1.87,10.28,10.28,0,0,1-1.24-2l-.18-.33c-.45-.86-.87-1.77-1.23-2.56.09.21.19.43.29.64l.27.61c.23.52.49,1.05.76,1.56.16.31.33.62.5.93s.34.62.5.93.19.42.28.63a6.64,6.64,0,0,0,.33.71A20.5,20.5,0,0,0,28,89.59c-.44-.56-.84-1.14-1.23-1.71l-.39-.55a.53.53,0,0,1-.08-.23.29.29,0,0,1,.08-.29A.27.27,0,0,1,26.51,86.75Zm2.48,4,.38.4a8.68,8.68,0,0,0,1.94,1.64l.13.07-.39-.25a9.94,9.94,0,0,1-1.34-1.17l-.57-.55Zm-6.5-35.37h-.06c-.1,0-.19.3-.29.57l-.21.58c-.11.29-.21.58-.31.87s-.14.41-.22.61a10.52,10.52,0,0,0-.49,1.63,12,12,0,0,1-.44,1.5A9.08,9.08,0,0,0,19.79,64c0,.51,0,1,.09,1.55l.06.88a3.23,3.23,0,0,1,0,.44c0,.13,0,.27,0,.4q.08,1.11.18,2.22l0,.42a13.13,13.13,0,0,0,.21,1.55c.22,1.08.49,2.14.77,3.22l.08.3a18.64,18.64,0,0,0,.6,2.06c.33.87.72,1.74,1.11,2.59l.11.24c.37.81.8,1.76,1.28,2.66l.17.33a10,10,0,0,0,1.18,1.91,16.94,16.94,0,0,0,1.88,1.81L28,87c.43.37.9.71,1.36,1l.23.17c.23.17.46.32.7.47l.58.4.35.24a12.41,12.41,0,0,0,2.3,1.4,27.26,27.26,0,0,1,2.56,1.24l.16.08a4.93,4.93,0,0,0,1.79.69,8.85,8.85,0,0,0,.93,0,1,1,0,0,0,.2,0l.11,0c.13,0,.2-.13.3-.3a1.37,1.37,0,0,1,.13-.2L40,91.8a3.28,3.28,0,0,0,.51-.7c.4-.84.78-1.75,1.13-2.7a17,17,0,0,0,.48-1.69l.11-.48a21.28,21.28,0,0,0,.42-2.11,10.08,10.08,0,0,0,0-1.46v-.55c0-.51,0-1,0-1.54a6.88,6.88,0,0,0-.07-.77c0-.27-.05-.53-.08-.8-.06-.61-.13-1.24-.24-1.85s-.32-1.39-.5-2.07c-.08-.28-.15-.57-.22-.86l-.12-.47c-.15-.58-.29-1.16-.45-1.73a.75.75,0,0,0-.09-.18,1,1,0,0,1-.13-.28c-.08-.25-.15-.51-.22-.77a9,9,0,0,0-.44-1.33,25.91,25.91,0,0,0-1.5-2.89,9.71,9.71,0,0,0-.7-1,9.61,9.61,0,0,1-.66-.88A23.45,23.45,0,0,0,34.17,61c-.56-.56-1.15-1.11-1.73-1.65l-.58-.53a2.59,2.59,0,0,0,.46.95l.24.35a9.28,9.28,0,0,0,1.06,1.41,10.69,10.69,0,0,0,1,.86,10,10,0,0,1,1,.85,3,3,0,0,1,.58,1c.06.13.11.25.17.37a1.35,1.35,0,0,1,.08.24.68.68,0,0,0,0,.13.56.56,0,0,1,0,.83l-.16.19-.08.09a2.15,2.15,0,0,1-2.3.84l-.14,0a4.62,4.62,0,0,0-.7-.15.76.76,0,0,0-.21,0A.62.62,0,0,0,33,67a7.1,7.1,0,0,1,.86,2.57,2.48,2.48,0,0,1-.47,1.5,2,2,0,0,0-.14.25.87.87,0,0,1-.51.32.35.35,0,0,1-.26-.08s0,0-.22,0l-.18.08-.28.09a1.84,1.84,0,0,1-.59.17c-.35,0-.71.07-1.08.1s-.85.06-1.26.12-.81.14-1.2.22-.73.16-1.09.22a15.41,15.41,0,0,1-2.17.23,10.52,10.52,0,0,1-1.26-.09c-.3,0-.6-.07-.9-.08a.62.62,0,0,1-.49-.24.48.48,0,0,1-.11-.41s.17-.77.58-.8a.72.72,0,0,0,.47-.27,1.47,1.47,0,0,1,.39-.29L24.4,70l2.69-1.35.47-.23c.25-.11.49-.22.73-.35a1.9,1.9,0,0,0,.39-.31h-.34l-.58,0a5.46,5.46,0,0,1-1.34,0,8.51,8.51,0,0,0-2-.07,1.23,1.23,0,0,1-.62-.2l-.21-.1a.23.23,0,0,1-.14-.16.26.26,0,0,1,0-.21,1.18,1.18,0,0,0,.11-.19,1.54,1.54,0,0,1,.39-.5c.5-.34,1-.63,1.59-.94.78-.43,1.57-.84,2.37-1.26l.14-.08a12.49,12.49,0,0,1-.56-1.26l-.57-1.47c-.18-.48-.36-1-.55-1.44-.07-.2-.14-.4-.2-.6a3.23,3.23,0,0,0-.77-1.49c-.14-.13-.27-.27-.41-.41a3.07,3.07,0,0,0-.25-.26L24.53,57c-.41-.42-.82-.84-1.24-1.25a1.26,1.26,0,0,0-.17-.11l-.11,0A1.19,1.19,0,0,0,22.49,55.35Zm-.15,16.36a1.17,1.17,0,0,0-.17.4s0,0,.13,0c.31,0,.62,0,.94.08a10,10,0,0,0,1.2.09c.24,0,.48,0,.73,0l0-.05H23.37a1,1,0,0,1-.34-.1l-.1,0a.26.26,0,0,1-.16-.18.25.25,0,0,1,.05-.22l.06-.08.17-.19a4.44,4.44,0,0,1,1.52-.89l.48-.21c.29-.13.57-.28.85-.43l.71-.37c.35-.17.71-.32,1.07-.47l.13,0a.47.47,0,0,1,.52,0,.37.37,0,0,1,.09.31c.53-.24.68-.75.85-1.33l.05-.19a2.24,2.24,0,0,0,0-1.23.5.5,0,0,1-.08.28.68.68,0,0,1-.53.29c-.49.08-1,.13-1.38.16l-.28,0c.21,0,.43,0,.66-.05l.61,0h.73a.23.23,0,0,1,.19.1.24.24,0,0,1,0,.22s0,0,0,.07a.51.51,0,0,1-.14.35,2.25,2.25,0,0,1-.6.49c-.25.14-.5.26-.76.38l-.46.21-2.68,1.36-1.29.64a1.65,1.65,0,0,0-.27.21A1.19,1.19,0,0,1,22.34,71.71Zm3,0a.24.24,0,0,1,.19.08h.1c.43-.07.86-.13,1.28-.21l.59-.11c.67-.11,1.36-.23,2-.39a5.92,5.92,0,0,1,.93-.12,3.43,3.43,0,0,0,1.42-.32,1.69,1.69,0,0,0,.8-2c-.42-1.11-.81-2.23-1.2-3.34L31.36,65a6.06,6.06,0,0,1-.3-1.13c-.08-.63-.12-1.28-.16-1.91l0-.39c0-.47-.06-1.1-.07-1.74,0-.28,0-.56,0-.84s0-.5,0-.75v-.2a4.08,4.08,0,0,0-.05-.87,16.52,16.52,0,0,0-.54-1.85,15.22,15.22,0,0,0-.67-1.63,4.1,4.1,0,0,0-.46-.71l-.07-.1-.51-.68c-.27-.36-.54-.72-.8-1.09l-.06-.09a1.86,1.86,0,0,1-.41-.86,2,2,0,0,1,.48-1.61c.41-.51.88-1,1.32-1.45a17.68,17.68,0,0,0,1.71-2,9.61,9.61,0,0,1,.65-.76,9,9,0,0,0,.64-.77c.46-.66.91-1.32,1.35-2s1.09-1.64,1.67-2.44a17.54,17.54,0,0,0,2.21-5.06,1,1,0,0,0,0-.49,3.22,3.22,0,0,0-.16-.5l-.21-.55c-.19-.52-.38-1-.58-1.54a.36.36,0,0,1-.12-.08.31.31,0,0,0-.29-.12h0A6.38,6.38,0,0,0,32.41,32a4.1,4.1,0,0,0-1.26,1.48l-.18.25-.22.29a1.34,1.34,0,0,0-.12.31l-.06.22-.69,1.87a.35.35,0,0,1-.27.22c-.06,0-.07,0-.11.26a1.85,1.85,0,0,1-.18.57c-.12.25-.25.49-.38.73s-.29.56-.43.84-.23.51-.34.77l-.23.53-.24.53c-.27.6-.55,1.22-.85,1.83L26.7,43a7.16,7.16,0,0,1-.93,1.55,20.27,20.27,0,0,0-2.32,3.11l-.1.15a1,1,0,0,0-.11.18,2.2,2.2,0,0,0-.07.37c0,.09,0,.18-.05.28s-.06.22-.09.33a1.26,1.26,0,0,0-.1.5,5.16,5.16,0,0,0,.38,1.27c.14.35.31.69.48,1,.09.19.19.39.28.59l.53,1.15.79,1.71c.12.26.25.51.37.76.22.45.45.91.64,1.38.33.81.63,1.63.94,2.46.18.47.35,1,.53,1.42s.36.94.55,1.41c.36.93.73,1.89,1.06,2.84l.06.17A3.52,3.52,0,0,1,29.8,68l-.05.19c-.2.67-.42,1.44-1.33,1.73l-.14,0-.08,0a.23.23,0,0,1-.21,0,.27.27,0,0,1-.11-.19,1.34,1.34,0,0,1,0-.2c-.35.15-.7.29-1,.46l-.69.36c-.3.15-.59.31-.88.44l-.5.22a4.08,4.08,0,0,0-1.29.73h1.86Zm7.48-4.1.33.89a2.19,2.19,0,0,1-1,2.57,4,4,0,0,1-1.62.38,5.92,5.92,0,0,0-.75.09l.39,0c.35,0,.71-.05,1.06-.09a2.46,2.46,0,0,0,.47-.14l.3-.11.12,0a.67.67,0,0,1,.68,0l.09-.06.14-.24a2.05,2.05,0,0,0,.4-1.19A7.45,7.45,0,0,0,32.81,67.64Zm-7.72-.4a9.57,9.57,0,0,1,1.41.11,2.43,2.43,0,0,0,.47,0l-.89-.11-.95-.12-.15,0a.29.29,0,0,1-.21-.22.25.25,0,0,1,.1-.26l.15-.08.37-.23,2.4-1.47c-.68.35-1.34.7-2,1.07a16.94,16.94,0,0,0-1.54.92.89.89,0,0,0-.23.31,1,1,0,0,0,.35.13Q24.73,67.24,25.09,67.24Zm.61-.53.45.06.85.11.28,0c.39,0,.88-.09,1.36-.16.15,0,.18-.06.18-.06s0,0,0-.2-.15-.43-.24-.64-.13-.3-.18-.46h0a.36.36,0,0,0-.1-.15.23.23,0,0,0-.14,0C27.31,65.71,26.5,66.21,25.7,66.71Zm6.5-.78.24.69,0-.07c.09-.27.51-.34.72-.32a4.91,4.91,0,0,1,.78.17l.14,0a1.65,1.65,0,0,0,1.76-.63l.13-.15a.39.39,0,0,0,.08-.1,2,2,0,0,0,.11-.17.17.17,0,0,0,0,0A.71.71,0,0,1,36,65s0-.11,0-.14l-.09-.16A1.88,1.88,0,0,1,35.48,66,1.46,1.46,0,0,1,34,66.2a1.47,1.47,0,0,0-1.27-.1.55.55,0,0,1-.43,0A.38.38,0,0,1,32.2,65.93Zm1.15-.42a1.77,1.77,0,0,1,.95.27,1.23,1.23,0,0,0,.81-.09,1.44,1.44,0,0,0,0-1.57c-.4-.41-.84-.81-1.26-1.19l-.5-.46-.15-.11a1.56,1.56,0,0,1-.3-.28l-.71-.93-.4-.53c.05.42.09.85.14,1.27l.11,1a.25.25,0,0,1-.09.22c.21.82.42,1.63.62,2.45,0,0,0,0,0,.06h0A2.41,2.41,0,0,1,33.35,65.51Zm-1.86-2.26.06.6a6.57,6.57,0,0,0,.28,1l.12.32.13.4C31.89,64.81,31.69,64,31.49,63.25Zm-2.67,1.91.12.29-.42-1.14a.68.68,0,0,1-.36.34l-.14.07a.61.61,0,0,1,.4,0,.67.67,0,0,1,.4.45Zm9.07-.38.19.24Zm-6.56-4c0,.28,0,.53,0,.76l0,.39c0,.28,0,.57.05.86h0a.24.24,0,0,1,.09-.08L31.45,62Zm.31-2.72a.24.24,0,0,1,.14,0l0,0,.2.14.75.7c.58.53,1.18,1.09,1.75,1.66l.48.49a20.7,20.7,0,0,0-2.58-2.54,4.11,4.11,0,0,1-1.13-1.4,4.89,4.89,0,0,1,0,.85v.2c0,.25,0,.51,0,.76s0,.55,0,.83c0,.1,0,.2,0,.31v0l0-.09a.25.25,0,0,1,.38-.18l.08,0,0,0a2.28,2.28,0,0,1-.46-1.32.85.85,0,0,1,0-.23v-.08a.29.29,0,0,1,.15-.19Zm-6.59-1.31.06.05.26.27a4.68,4.68,0,0,0,.38.39,1.88,1.88,0,0,1,.3.34c0-.1-.07-.19-.11-.29-.19-.46-.41-.91-.63-1.35l-.15-.31h0a2.77,2.77,0,0,1,.12.41l0,.16a.26.26,0,0,1-.11.28A.33.33,0,0,1,25.05,56.79ZM30.3,54.1c.16.37.3.74.43,1.1l.15.45A7.38,7.38,0,0,0,30.3,54.1Zm-5.4,1.25.06.14.05.1-.07-.15Zm-6.14-5.27h0c.07.15.15.3.23.45a5.25,5.25,0,0,0,.61,1,12,12,0,0,0,1.28,1.18l.36.3h0l.38.34a11.9,11.9,0,0,0,1.25,1,8.92,8.92,0,0,1,1.58,1.23L24.19,55,23,52.31c-.08-.17-.17-.34-.25-.5a5.18,5.18,0,0,1-.4-.86,11.21,11.21,0,0,1-.49-2,2.1,2.1,0,0,1,.5-1.58c.31-.41.61-.85.9-1.28s.47-.69.72-1,.4-.55.61-.82.56-.75.82-1.14a10.2,10.2,0,0,0,.75-1.4c.36-.74.69-1.5,1-2.25l.14-.31.45-1c.31-.71.64-1.45,1-2.16a.68.68,0,0,0,.07-.21.85.85,0,0,0-.21-.11c-.39-.17-.77-.36-1.15-.55l-.75-.36c-.11,0-.14-.07-.24.12-.22.45-.44.89-.67,1.33-.3.59-.6,1.19-.89,1.78S24.3,39.3,24,40l-.47,1c-.23.52-.47,1-.71,1.56-.46,1-.93,2-1.37,3.06A5.94,5.94,0,0,1,20,47.79a4.41,4.41,0,0,0-1.06,1.84C18.88,49.78,18.82,49.93,18.76,50.08Zm3.44,4.4a.36.36,0,0,1,0,.23l-.1.27.16-.09a.88.88,0,0,1,.61,0l-.27-.17Zm-3.7-3.66,0,0,.19.25-.17-.33c-.05-.11-.11-.21-.16-.31A3.58,3.58,0,0,0,18.5,50.82ZM30,46.92l-.55.57c-.44.46-.89.93-1.3,1.42a1.54,1.54,0,0,0-.36,1.24s0,.06,0,.09a1.22,1.22,0,0,1,.18-.73,13.94,13.94,0,0,1,1.52-2C29.65,47.31,29.82,47.12,30,46.92ZM18.21,49.74c0,.08,0,.16.05.24a.06.06,0,0,0,0,0c.07-.16.13-.33.2-.49a4.86,4.86,0,0,1,1.19-2,5.57,5.57,0,0,0,1.34-2c.23-.53.46-1.07.7-1.6C21,45,19.71,47,19.08,48l-.31.48a4.67,4.67,0,0,0-.54,1.21Zm5.1-2.83c-.18.26-.36.53-.56.78a1.6,1.6,0,0,0-.41,1.2,4.21,4.21,0,0,0,.09.49,1.81,1.81,0,0,1,.12-.57c0-.1.06-.19.08-.29a1.87,1.87,0,0,0,0-.25c0-.14,0-.29.09-.43a1.16,1.16,0,0,1,.18-.33A.44.44,0,0,0,23,47.4C23.11,47.23,23.21,47.07,23.31,46.91Zm3.3-12.71a.75.75,0,0,1,.32.08l.76.36c.38.19.75.37,1.14.54a.81.81,0,0,1,.47.4.82.82,0,0,1-.09.6c-.35.7-.67,1.43-1,2.14l-.45,1-.14.31c-.34.76-.68,1.52-1,2.27a12.55,12.55,0,0,1-.79,1.46c-.27.4-.56.78-.84,1.16l-.61.81-.51.74c.47-.65,1-1.27,1.53-1.89a7.43,7.43,0,0,0,.87-1.45l.14-.3c.3-.59.58-1.21.84-1.8l.25-.54c.07-.17.14-.34.22-.51s.22-.54.35-.8.29-.57.44-.86.25-.47.37-.71a1.42,1.42,0,0,0,.14-.41.7.7,0,0,1,.43-.67l.66-1.79c0-.06,0-.12,0-.18a1.14,1.14,0,0,1,.21-.48l.2-.28.17-.23a4.5,4.5,0,0,1,1.4-1.63,7.08,7.08,0,0,1,1.33-.7.28.28,0,0,1-.13-.11.27.27,0,0,1,0-.34q.1-.16.21-.3a.3.3,0,0,1,.19-.12.27.27,0,0,1,.2,0l.12.1a.25.25,0,0,1,.08.18.26.26,0,0,1-.07.18l-.23.25a7,7,0,0,1,2.12-.37.81.81,0,0,1,.66.26l.11.08a2,2,0,0,0-.6-.56,1.86,1.86,0,0,1-.42-.37,1,1,0,0,0-.39-.3,1.54,1.54,0,0,1-.47-.28.67.67,0,0,0-.47-.21,1,1,0,0,1-.89-.77,4.42,4.42,0,0,0-.15-.48l.06.25a1.11,1.11,0,0,0,.36.74.28.28,0,0,1,.1.21.82.82,0,0,1-.28.5c-.25.17-.51.33-.77.48l-.85.55a3.67,3.67,0,0,0-.49.41l-.16.15a5.7,5.7,0,0,1-2.49,1.23l-1.28.3-.31.07a1.11,1.11,0,0,1-1.11-.55c-.07-.18-.13-.36-.19-.53a5.14,5.14,0,0,0-.34-.86,1.59,1.59,0,0,1-.12-.27l.09.47a5.75,5.75,0,0,1,0,1.49,6,6,0,0,1-.12.74,3.69,3.69,0,0,0-.13,1l0,.23a3.94,3.94,0,0,1-.17,1.85c-.08.2-.15.41-.22.62v0l.47-.92c.22-.44.45-.88.66-1.32A.63.63,0,0,1,26.61,34.2ZM35,40.28c-.39.55-.76,1.11-1.13,1.66l-.48.73C33.92,41.92,34.43,41.13,35,40.28ZM4.06,37.93,4,38c-.32.39-.64.78-.94,1.19a1.59,1.59,0,0,1-1,.71,1.16,1.16,0,0,0,1-.56l.6-.8Zm-3.24.79c-.08.18-.17.37-.25.56a.47.47,0,0,0-.06.32.44.44,0,0,0,.26.17,2.33,2.33,0,0,0,.65.11H1.34L1,39.76l-.13,0a.3.3,0,0,1-.16-.17.28.28,0,0,1,.05-.23,1,1,0,0,0,.08-.11L1,39H1a.28.28,0,0,1-.17-.18A.36.36,0,0,1,.82,38.72Zm.55.64.08,0a1,1,0,0,0,1.22-.48c.3-.42.62-.81,1-1.21l.47-.59a.58.58,0,0,0,.11-.18A1.16,1.16,0,0,1,5,36.45a.42.42,0,0,1,.42.11,1,1,0,0,1,.16.26,1.21,1.21,0,0,1,0-.18l0-.08c.18-.72.36-1.47,1.22-1.8,0,0,0,0,0,0a9.66,9.66,0,0,1,1-1,9.9,9.9,0,0,0,.92-.91,9.42,9.42,0,0,1,1.07-1,9.87,9.87,0,0,0,.82-.75,7.46,7.46,0,0,1,1.85-1.41,1.67,1.67,0,0,0,.73-1.16,10.48,10.48,0,0,1,1.51-3.13,6.32,6.32,0,0,0,.57-1.2c.08-.21.16-.42.25-.62l.4-.87c.26-.56.51-1.12.77-1.69.07-.16.07-.23.06-.23a1.22,1.22,0,0,1,.28-1.31,1.73,1.73,0,0,0,.19-.28.52.52,0,0,1,.49-.26c.48.09,1,.2,1.46.33.69.2,1.37.41,2.05.63l.79.29.43.17c.17.06.23.06.33,0a19.33,19.33,0,0,1,1.68-1.24A9.57,9.57,0,0,1,26,18.23a14.64,14.64,0,0,1,1.71-.59c.4-.11.82-.2,1.23-.29l.48-.11a.76.76,0,0,1,.92.44,14.31,14.31,0,0,0,2.51,3.06c.7.68,1.47,1.37,2.29,2a11.3,11.3,0,0,0,1,.69c.28.19.57.38.84.59a3.09,3.09,0,0,1,.63.73c.18.27.33.52.48.77A7.88,7.88,0,0,0,39,26.81a18.11,18.11,0,0,0,2.79,2.57c.22.16.44.34.65.52a5.31,5.31,0,0,0,1.23.85.49.49,0,0,1,.24.32c0,.17.09.44.15.74.11.62.33,1.79.49,2.28a3.32,3.32,0,0,0,0-1.4,1,1,0,0,1,0-.67.63.63,0,0,1,.52-.37.58.58,0,0,1,.52.35c.12.4.27.76.42,1.15.07.18.15.35.22.53a3.34,3.34,0,0,0,.93,1.57l0-.1c-.13-.36-.27-.73-.41-1.09L46.32,33a.58.58,0,0,1,0-.33.39.39,0,0,1,.13-.2.26.26,0,0,1,.21,0l.11,0a.55.55,0,0,1,.41.21,2.55,2.55,0,0,1,.34.77c.08.31.15.62.22.93s.11.51.18.76l0,.16a.71.71,0,0,0,.05.21c.19,0,.21-.23.19-.39a7.22,7.22,0,0,0-.73-2.35c0-.11-.07-.22-.1-.33l0-.11a.31.31,0,0,1,0-.19.3.3,0,0,1,.17-.12l.07,0a.5.5,0,0,1,.4,0,.75.75,0,0,1,.34.43l0,.13c0-.25-.07-.5-.1-.75a.29.29,0,0,0-.08-.13c-.86-.3-1.76-.61-2.76-.92a3.15,3.15,0,0,1-1.68-1,10.23,10.23,0,0,0-.89-1c-.25-.25-.49-.51-.72-.77l-.3-.35a23.36,23.36,0,0,1-1.74-2.2,6.58,6.58,0,0,0-1.05-1.13c-.22-.2-.44-.41-.64-.62s-.35-.36-.53-.54a6.84,6.84,0,0,1-1-1.16c-.58-.86-1.09-1.77-1.59-2.65l-.42-.75c-.15-.24-.28-.5-.41-.75a8.69,8.69,0,0,0-.68-1.2,8.65,8.65,0,0,0-1-1.14l-.26-.24-.29-.29a4,4,0,0,0-1-.81,9.83,9.83,0,0,0-1.62-.61L29,13.29l-2.32-.77c-.26-.08-.53-.14-.79-.2l-.21,0L25,12.13c-.48-.1-1-.21-1.46-.34a1,1,0,0,1-.55-.64,8.32,8.32,0,0,1-.24-1.44c0-.07-.11-.48-.21-.87v0a5.21,5.21,0,0,1-.24.47c-.25.38-.47.77-.69,1.17l-.42.75a2,2,0,0,1-1.56.44l-.14,0a.56.56,0,0,0,.05.08c.17.23.36.45.54.67l.4.49.58.76c.18.23.35.46.53.68l.8-.55.43-.3a.43.43,0,0,1,.26-.08l.59-.07a3.86,3.86,0,0,1,1.72,0,.58.58,0,0,1,.29,0,.67.67,0,0,1,.28.14l.07,0a.28.28,0,0,1,.12.19.25.25,0,0,1-.07.2l-.05.06a.84.84,0,0,1-.27.21.68.68,0,0,1-.31,0h-.1l-.33,0c-.3,0-.59.05-.89.09l-.29,0a2.53,2.53,0,0,0-.83.19,1.77,1.77,0,0,1-.31.15c-.42.2-.78.36-.93.78a.5.5,0,0,1-.54.28.54.54,0,0,1-.4-.4,2.65,2.65,0,0,0-.66-1.11l-.27-.33c-.12-.16-.18-.18-.18-.18a1.76,1.76,0,0,0-.27.2,4.47,4.47,0,0,1-.93.57l-.3.16-.75.4c-.43.23-.88.46-1.3.71a3.49,3.49,0,0,0-1.53,1.86c-.11.3-.25.58-.38.85s-.21.44-.3.66a2.55,2.55,0,0,0-.12.44c0,.12-.05.24-.09.36-.14.51-.29,1-.43,1.52s-.3,1-.44,1.49-.26.92-.38,1.38c-.26.94-.52,1.88-.81,2.82a3.69,3.69,0,0,1-1,1.7,9.46,9.46,0,0,0-1.05,1.27l-.46.62-.44.56L7.52,32.76l-.32.4c-.36.46-.74.93-1.14,1.38a4,4,0,0,1-1.87,1.23,9.14,9.14,0,0,1-1,.24,1.32,1.32,0,0,0-.85.54,1.92,1.92,0,0,1,.31-.11l.09,0a.27.27,0,0,1,.2,0A.23.23,0,0,1,3,36.6l0,.08a.52.52,0,0,1,0,.41,4.84,4.84,0,0,1-.43.8l-.13.19a3.67,3.67,0,0,1-1.11,1.25Zm3.07-1.65a.28.28,0,0,1,.13,0A.27.27,0,0,1,4.7,38a1.2,1.2,0,0,1-.07.26.8.8,0,0,1-.08.16l-.06.1c0,.1-.07.22,0,.28a1.05,1.05,0,0,0,.42.16,1.59,1.59,0,0,0,.62-.58,7.29,7.29,0,0,0,.63-1.79,2.14,2.14,0,0,1,.69-1.15l.24-.24c-.69.25-.82.8-1,1.49l0,.08A6.79,6.79,0,0,1,5.6,38l-.18.4a.69.69,0,0,1-.24.24l-.06,0a.24.24,0,0,1-.28,0,.26.26,0,0,1-.13-.25v-.09a1,1,0,0,1,0-.29l.15-.37a5.25,5.25,0,0,0,.21-.59.3.3,0,0,0,0-.19.92.92,0,0,0-.42.2,1.19,1.19,0,0,1-.17.27l-.4.51a.5.5,0,0,1,.18-.15A.3.3,0,0,1,4.44,37.71Zm-1.92-.6h0l-.74,1.17a5.72,5.72,0,0,0,.32-.48l.13-.19A3.3,3.3,0,0,0,2.52,37.11ZM2.58,37l0,.08a.59.59,0,0,0,0-.08Zm-.05,0h0ZM5,36.89H5Zm24.48-.74h0ZM6,33.87a5.66,5.66,0,0,1-.93.73l-.17.1a3.65,3.65,0,0,1-1.82.7.9.9,0,0,0-.26.09l-.15.07a1.07,1.07,0,0,0-.49.4,1.82,1.82,0,0,1,.9-.44c.41-.08.71-.15,1-.23a3.48,3.48,0,0,0,1.64-1.08Zm42.66.65c0,.16,0,.32.07.49a.84.84,0,0,1-.34.85.58.58,0,0,0,.39-.33c0-.1.07-.49.12-1h0A.3.3,0,0,1,48.64,34.52Zm-1,1.28.08,0,0,0Zm-10.22-.24-.09.26ZM7.93,34.37c-.23.21-.46.44-.67.67C7.49,34.82,7.71,34.6,7.93,34.37Zm36.5.36.12.07.1-.1a.38.38,0,0,1-.17,0ZM44,33.87a1.68,1.68,0,0,0,.16.52C44.07,34.26,44,34.09,44,33.87Zm1.44-.36a.23.23,0,0,1,.18.07.89.89,0,0,1,.13.18l.11.21v0a1.21,1.21,0,0,0,0-.14l-.21-.52c-.15-.38-.32-.78-.44-1.19,0,0,0,0,0,0a.22.22,0,0,0-.06.05.62.62,0,0,0,0,.3,3.19,3.19,0,0,1,0,1.5l.05-.13,0-.16a.31.31,0,0,1,.2-.2ZM36.85,31l.54,1.45.2.55v0a3.13,3.13,0,0,0-.16-.52q-.12-.28-.21-.57A8.61,8.61,0,0,0,36.85,31Zm11.9.52a.53.53,0,0,1,0,.16c.06.4.12.81.17,1.21a6.68,6.68,0,0,0-.1-1.29Zm-26.17-7.1v0a.47.47,0,0,1,.07.17l0,.07a3.51,3.51,0,0,0,1.44,1.65,2.83,2.83,0,0,1,1.53,2.49A3.64,3.64,0,0,0,26,30.47a6.1,6.1,0,0,1,.37.94c.06.17.12.34.19.5a.65.65,0,0,0,.53.25l.31-.07,1.27-.29a5.25,5.25,0,0,0,2.27-1.12l.16-.14a5,5,0,0,1,.55-.47l.87-.55.75-.47v0a1.8,1.8,0,0,1-.4-.91c0-.13-.06-.25-.1-.37a30.75,30.75,0,0,0-2.14-4.3l0-.06-.08-.11-.05,0a5,5,0,0,1-.76.4l-.43.17a7.58,7.58,0,0,1-2.64.69l-2.3,0a2.87,2.87,0,0,0-.41.05,1.36,1.36,0,0,1-1.29-.23Zm20.75,6.72.11.13a.29.29,0,0,1,0-.09Zm-31-.77a7.49,7.49,0,0,0-1,.74Zm23.62.27h0ZM32.24,20.8l.35.36a20.4,20.4,0,0,0,3.07,2.61,5.5,5.5,0,0,1,1.77,1.73,11.66,11.66,0,0,0,2.42,3.05c.61.53,1.53,1.22,2.35,1.81l-.09-.08c-.2-.17-.41-.34-.62-.49a18.7,18.7,0,0,1-2.87-2.64,8.74,8.74,0,0,1-.94-1.34c-.15-.24-.29-.48-.45-.71a3.1,3.1,0,0,0-.55-.66c-.26-.2-.53-.38-.81-.56s-.69-.46-1-.72c-.82-.68-1.6-1.37-2.32-2.07ZM22.26,25a.66.66,0,0,0,.06.2A3.47,3.47,0,0,0,24,26.89,1.61,1.61,0,0,1,24.87,28c.09.49.21,1,.33,1.47v0c0-.22,0-.45,0-.67a2.35,2.35,0,0,0-1.27-2.08A3.94,3.94,0,0,1,22.26,25Zm-8.09,2.44a8,8,0,0,0-.46,1.25,2.91,2.91,0,0,1-.32.83,2,2,0,0,0,.4-.82A9.73,9.73,0,0,1,14.17,27.39Zm3.15-6.18a.44.44,0,0,1,.34.22c.6.83,3,2.23,3.95,2.76a2.6,2.6,0,0,1,.43.26.43.43,0,0,1,0-.33.57.57,0,0,1,.56-.19.38.38,0,0,1,.29.08c.25.26.49.23.91.16a2.63,2.63,0,0,1,.5-.06l2.29,0a6.93,6.93,0,0,0,2.47-.66l.43-.17a4,4,0,0,0,.67-.36l.08-.05a.49.49,0,0,1,.39-.08.42.42,0,0,1,.27.24l0,.06.05.08,0,.07h0a1.12,1.12,0,0,1-.13-.53,7.56,7.56,0,0,0-.19-2.49,1,1,0,0,1,0-.24v-.07a.25.25,0,0,1,.12-.23.24.24,0,0,1,.26,0l.07,0,.12.07a12.53,12.53,0,0,1-1.33-1.84c-.13-.22-.2-.23-.37-.19l-.49.11c-.4.08-.8.17-1.2.29a12.8,12.8,0,0,0-1.64.56,10.37,10.37,0,0,0-1.48.79,19.75,19.75,0,0,0-1.63,1.22.77.77,0,0,1-.82.11l-.44-.17c-.25-.1-.51-.2-.76-.28-.67-.22-1.35-.43-2-.63-.45-.12-.92-.22-1.36-.31l-.24.33c-.24.33-.36.53-.22.84a.76.76,0,0,1-.08.62l0,0a.28.28,0,0,1,.13,0ZM15,3.18a.24.24,0,0,1,.07.23l-.08.5a2.2,2.2,0,0,0,0,1.25,2.15,2.15,0,0,1,.11.71,2.26,2.26,0,0,0,.09.55,1,1,0,0,1-.29,1.2l-.26.24a3.82,3.82,0,0,0-.52.55A2,2,0,0,0,14,10.92c.5.77.44,1.15-.3,1.78l-.05,0-.41.41a6.75,6.75,0,0,0-.8.92c-.35.51-.56.91-.21,1.43A1.27,1.27,0,0,1,12,17.26a1.27,1.27,0,0,0-.34,1.12,11.33,11.33,0,0,0,.23,1.16l0,.17c.05.21.2.79.34,1.34s.22.84.27,1.05c.08-.27.16-.55.25-.83.14-.51.29-1,.43-1.52a1.87,1.87,0,0,0,.08-.32,3.87,3.87,0,0,1,.15-.53c.09-.23.2-.46.31-.68s.26-.54.36-.81a4,4,0,0,1,1.74-2.12c.44-.26.89-.49,1.33-.72l.74-.4.31-.16a4.17,4.17,0,0,0,.83-.51c.22-.19.4-.34.65-.31a.81.81,0,0,1,.53.36,4,4,0,0,0,.26.32,3.18,3.18,0,0,1,.76,1.33h0a1.43,1.43,0,0,1,.23-.38.42.42,0,0,1-.29-.14c-.2-.25-.4-.51-.59-.77L20,13.15q-.2-.26-.39-.48L19.1,12a1.8,1.8,0,0,1-.23-.46c0-.06-.05-.12-.07-.17a.25.25,0,0,1,.28-.35l.21.05.43.1a2,2,0,0,0,1-.23l.41-.73.05-.09-.24.36a1.3,1.3,0,0,1-1.07.6c-.09.06-.2.1-.27.06L19.29,11a2.62,2.62,0,0,1-.73-.45h0a6.38,6.38,0,0,1-2.11-3.76,3.8,3.8,0,0,1,.15-2.16A.92.92,0,0,1,17.4,4a4.89,4.89,0,0,0,2.32-.87,1.34,1.34,0,0,1,1.36-.05A1.5,1.5,0,0,1,22,4.24q.06.58.15,1.17c.05.38.11.76.14,1.14a6.2,6.2,0,0,1,0,1,.28.28,0,0,1,.19-.12.26.26,0,0,1,.27.19c.08.37.19.78.27,1.13.18.7.22.89.23,1A8.58,8.58,0,0,0,23.45,11a.5.5,0,0,0,.2.27l.06,0a.8.8,0,0,1-.29-.51,1,1,0,0,1,.33-.86c.32-.29.34-.36.2-.73-.08-.19-.18-.38-.27-.57a5.6,5.6,0,0,1-.27-.55,2.24,2.24,0,0,1,.09-2.27,2.27,2.27,0,0,0,.08-2.6,4.44,4.44,0,0,0-.52-.73,5.34,5.34,0,0,1-.63-.92,1.51,1.51,0,0,0-.85-.72L21.42.79A2.86,2.86,0,0,0,19.15.68c-.35.12-.68.27-1,.43s-.48.22-.72.31A5,5,0,0,0,15.26,2.8C15.15,2.93,15.06,3.05,15,3.18Zm6.3,12.07h0ZM32,14a7.14,7.14,0,0,1,.56.54h0A4.05,4.05,0,0,0,32,14Zm-10.35.34h0Zm2.93-.67a6.11,6.11,0,0,0-.84.08l-.62.07-.22.15a3,3,0,0,1,.88-.19l.28,0,.65-.07ZM11.72,10.62h0Zm7.19-.48a2.17,2.17,0,0,0,.6.36l.18.1a.19.19,0,0,1,.11,0,.79.79,0,0,0,.74-.39l.29-.43q.14-.22.3-.45a3.85,3.85,0,0,0,.62-2.7c0-.37-.09-.74-.14-1.11s-.11-.8-.15-1.2a1,1,0,0,0-.6-.78.87.87,0,0,0-.86,0,5.39,5.39,0,0,1-2.56,1,.44.44,0,0,0-.39.31,3.44,3.44,0,0,0-.11,1.89A6,6,0,0,0,18.91,10.14Zm-7.06.26a.35.35,0,0,1,0,.08A.35.35,0,0,0,11.85,10.4ZM22.22,7.87a3.84,3.84,0,0,1-.19.76,4,4,0,0,0,.19-.51ZM13.46,6.31a1.85,1.85,0,0,1-.27.19,1.68,1.68,0,0,0-.86,1.15,1.94,1.94,0,0,1,.81-1.08A2.78,2.78,0,0,0,13.46,6.31ZM29.11,34H29a.25.25,0,0,1-.17-.19.4.4,0,0,1,0-.34h0l.2-.27.07-.08a.24.24,0,0,1,.24-.1.25.25,0,0,1,.19.17l.08.23a.27.27,0,0,1-.07.27l-.28.26A.28.28,0,0,1,29.11,34Zm5.66-3.62-.11,0A.26.26,0,0,1,34.5,30l0-.08a1.09,1.09,0,0,1,.14-.23h0a.52.52,0,0,1,.47-.19.53.53,0,0,1,.26.22.32.32,0,0,1,.05.3.27.27,0,0,1-.22.16l-.09,0-.13.11-.1.07A.25.25,0,0,1,34.77,30.38ZM20.39,22.47h-.07a.24.24,0,0,1-.17-.28l0-.26c0-.13,0-.26.07-.38a1,1,0,0,1,.1-.21.28.28,0,0,1,.28-.15.23.23,0,0,1,.21.19l0,.12a.34.34,0,0,1,0,.1c0,.06,0,.09,0,.11a.1.1,0,0,0,0,0l-.05.12c-.06.16-.11.31-.18.47A.24.24,0,0,1,20.39,22.47Zm5.8-.1h-.08a.24.24,0,0,1-.16-.2.25.25,0,0,1,0-.25v0l.65-.78c.1-.14.28-.07.35-.05l.13.05a.24.24,0,0,1,.17.18.24.24,0,0,1-.08.24l-.12.11-.72.67A.24.24,0,0,1,26.19,22.37Zm.81-.92h0l0,0Zm-2.51.77h-.07l-.12,0a.25.25,0,0,1-.16-.14.25.25,0,0,1,0-.19.51.51,0,0,1,.09-.18l1.13-1.1a.35.35,0,0,1,.37,0,.29.29,0,0,1,.14.19.24.24,0,0,1-.06.22l-1.13,1.16A.27.27,0,0,1,24.49,22.22Zm-.13-.29h0Zm4-2.43a.2.2,0,0,1-.13,0,.32.32,0,0,1-.19-.27s0,0,0-.06.1-.34.16-.51a.34.34,0,0,1,.18-.18.26.26,0,0,1,.21,0,.26.26,0,0,1,.16.13l0,.12a.25.25,0,0,1,0,.19l0,.07-.15.39a.28.28,0,0,1-.16.16Zm.33-.71h0ZM18.11,10.88a.15.15,0,0,1-.09,0,.24.24,0,0,1-.16-.2.28.28,0,0,1,0-.18.26.26,0,0,1,.46.22h0a.17.17,0,0,1-.06.1A.22.22,0,0,1,18.11,10.88Z"/><path class="cls-1" d="M32.05,76c.19.65.35,1.31.57,2,.49,1.4,1,2.8,1.53,4.17.33.84.76,1.63,1.13,2.46.59,1.32,1.15,2.66,1.75,4,.32.69.71,1.35,1.07,2a2.17,2.17,0,0,1,.21.53.41.41,0,0,1-.12.3s-.18,0-.26-.09a.55.55,0,0,1-.14-.19,9.51,9.51,0,0,0-.8-1.67,12.74,12.74,0,0,1-.82-1.82c-.32-.6-.51-1.27-.79-1.89-.4-.86-.86-1.68-1.22-2.54-.44-1-.81-2.11-1.21-3.17-.31-.81-.63-1.63-.93-2.45-.13-.35-.22-.72-.33-1.08-.32-1-.63-2.08-1-3.11a6.09,6.09,0,0,1-.21-.73c0-.1.06-.22.09-.33.1.07.24.13.28.22.29.82.56,1.65.85,2.47.12.32.28.62.43.93Z"/><path class="cls-1" d="M38.16,91.66a.77.77,0,0,1-.37-.13.8.8,0,0,1-.22-.29,5.55,5.55,0,0,1-.24-.56,5,5,0,0,0-.55-1.08,4.22,4.22,0,0,1-.53-1.12,5.31,5.31,0,0,0-.3-.73,7.86,7.86,0,0,1-.48-1.12c-.1-.26-.21-.52-.32-.78s-.35-.71-.52-1.07-.49-1-.7-1.47c-.31-.72-.58-1.47-.85-2.19-.12-.33-.24-.66-.37-1l-.31-.82c-.21-.54-.42-1.09-.62-1.63-.08-.25-.16-.49-.23-.74s-.07-.24-.1-.36l-1-3.32a5.44,5.44,0,0,1-.15-.54.63.63,0,0,1,.07-.37l0-.08a.25.25,0,0,1,.16-.17.27.27,0,0,1,.23,0l.07,0a.57.57,0,0,1,.28.29c.15.41.29.83.43,1.24s.28.82.43,1.22a4.85,4.85,0,0,0,.27.62c.05.1.1.2.14.3a.3.3,0,0,1,0,.21l-.06.08c0,.13.07.26.11.39.12.44.25.9.4,1.33.47,1.34,1,2.77,1.52,4.16.2.5.44,1,.67,1.49.16.31.31.63.46,1,.24.54.47,1.09.71,1.63.34.78.68,1.57,1,2.35.2.44.44.88.68,1.3l.38.71a2.43,2.43,0,0,1,.24.6.65.65,0,0,1-.19.52A.28.28,0,0,1,38.16,91.66Zm-.29-1L38,91l0,.07a1.85,1.85,0,0,0-.17-.39ZM31.55,75.2l.25.81a.24.24,0,0,1,.05-.16l0-.07C31.72,75.59,31.63,75.4,31.55,75.2Z"/><path class="cls-1" d="M25.48,48.18c-.1.94-.18,1.8-.29,2.65a.53.53,0,0,1-.17.33.38.38,0,0,1-.28,0s-.06-.15,0-.22c.09-.51.2-1,.28-1.54a1.93,1.93,0,0,0,0-.53,3.76,3.76,0,0,1,0-.67c0-.12.17-.23.27-.35Z"/><path class="cls-1" d="M24.9,51.44a.61.61,0,0,1-.24,0c-.27-.09-.21-.49-.21-.49l.12-.62c.06-.31.12-.61.16-.92a.83.83,0,0,0,0-.27l0-.2c0-.06,0-.12,0-.18a2,2,0,0,1,0-.55.74.74,0,0,1,.23-.38L25,47.7a.3.3,0,0,1,.19-.1.27.27,0,0,1,.19.08l.3.33a.26.26,0,0,1,.07.2l-.07.69c-.07.68-.14,1.32-.22,2a.83.83,0,0,1-.25.48A.4.4,0,0,1,24.9,51.44Zm.28-3.22,0,0a1.92,1.92,0,0,0,0,.41v0l0-.42Z"/><path class="cls-1" d="M20.15,49.41c0,.27-.08.61-.15.93,0,.1-.14.18-.22.27a1.21,1.21,0,0,1-.19-.35,1.59,1.59,0,0,1,.06-.37c0-.23,0-.45,0-.67a1.4,1.4,0,0,1,.2-.38c.1.12.21.24.3.37S20.15,49.31,20.15,49.41Z"/><path class="cls-1" d="M19.78,50.86h0a.25.25,0,0,1-.19-.12l-.06-.1a.84.84,0,0,1-.17-.34.81.81,0,0,1,0-.32.26.26,0,0,0,0-.11,2.18,2.18,0,0,0,0-.25,3.24,3.24,0,0,1,0-.44,1,1,0,0,1,.15-.36.21.21,0,0,0,.06-.1.28.28,0,0,1,.2-.13.27.27,0,0,1,.22.09l.08.1.23.28a.42.42,0,0,1,.06.27v.12l0,.23c0,.22-.08.47-.13.72a.7.7,0,0,1-.2.31.17.17,0,0,0-.06.06A.25.25,0,0,1,19.78,50.86Zm.12-1.57a1.21,1.21,0,0,0,0,.19v-.09s0-.06,0-.08Zm.25.12h0Zm-.2,0Z"/><path class="cls-1" d="M28.76,27.21c0,.07,0,.14,0,.19-.34.87.27,1.31.81,1.76a.92.92,0,0,1,.29.77.25.25,0,0,1-.11.18.28.28,0,0,1-.22,0c-.48-.55-.95-1.11-1.42-1.66a.36.36,0,0,1,0-.5,2.36,2.36,0,0,0,.18-.87c0-.16,0-.32.06-.48a.2.2,0,0,1,.16-.12.21.21,0,0,1,.18.11c.06.22.08.44.12.66Z"/><path class="cls-1" d="M29.69,30.37a.49.49,0,0,1-.34-.14l-1.13-1.32-.29-.34a.59.59,0,0,1-.05-.79,1.38,1.38,0,0,0,.11-.51A2.51,2.51,0,0,1,28,27a1.09,1.09,0,0,0,0-.18,2.91,2.91,0,0,1,0-.31.45.45,0,0,1,.4-.32.44.44,0,0,1,.43.3c0,.16.07.33.1.5l0,.17a.32.32,0,0,1,0,.14.79.79,0,0,1,0,.2c-.25.62.08.94.65,1.4l.08.06a1.14,1.14,0,0,1,.37.89.49.49,0,0,1-.26.49A.41.41,0,0,1,29.69,30.37Zm-1.26-2.65a.8.8,0,0,1-.13.32.32.32,0,0,0-.05.12l.06.09.29.34,1,1.17a.53.53,0,0,0-.18-.41l-.07-.06C28.89,28.92,28.33,28.46,28.43,27.72Zm.09-.64,0,.24,0,.23c0-.07.05-.15.08-.24a.08.08,0,0,1,0-.07.25.25,0,0,1,0-.12Zm.24.13Z"/><path class="cls-1" d="M28.49,31.28c0,.06,0,.14,0,.18s-.26.42-.38.41c-.29,0-.31-.28-.24-.51a.46.46,0,0,0-.14-.55c-.11-.09-.1-.32-.14-.49.19.05.43.05.54.17a4.56,4.56,0,0,1,.45.74Z"/><path class="cls-1" d="M28.1,32.12h0a.51.51,0,0,1-.41-.19.74.74,0,0,1-.06-.63c0-.18,0-.22-.07-.3a.73.73,0,0,1-.19-.48.59.59,0,0,0,0-.14.26.26,0,0,1,.07-.24.27.27,0,0,1,.24-.06.9.9,0,0,0,.16,0,.82.82,0,0,1,.5.21,2.28,2.28,0,0,1,.36.57c0,.07.07.15.11.22a.26.26,0,0,1,0,.19l-.06.11a.37.37,0,0,1-.07.21,1,1,0,0,0-.08.11C28.47,31.91,28.33,32.12,28.1,32.12Zm-.21-1.48h0a.69.69,0,0,1,.21.79.37.37,0,0,0,0,.17l.11-.15a.56.56,0,0,1,0-.08v-.09a.31.31,0,0,1,0-.1l0-.06a2,2,0,0,0-.28-.46Zm.36.76Zm.24-.12Z"/></g></g></g></svg>