<svg xmlns="http://www.w3.org/2000/svg" viewBox="0 0 178.3 40"><defs><style>.cls-1{fill:#7c4821;}</style></defs><g id="圖層_2" data-name="圖層 2"><g id="event"><path id="us_t" class="cls-1" d="M39.21,36.33l-.45-.55-.69-.69-1.49-.65-.74-1L34.7,30.71l-.45-.94v-.85l-.45-2L33.41,26l.1-1.2-.89-.4,0-1,.25-.4,0-1.69-.35-.8-3.08-3.73-.19-1.94L28.6,13.7l.25-2.34-.1-2.69-.49.25L27,7.68l.24-.79-.33-.65-.24-1-.73-2.33h-.38l-.05-1.33.35.09L25.68.59,24.56,0H23.05L19,2.48l-1.82,4.9-.4.4-.79,1.79-.39.79-.1.89-1.18,2.93,0,1-.75.44-.64,1.94-1,2.67-.45.3,0,1.44-.79.69v1.19l-.75.89L8.77,27.21l-1.4,4.41-.85,1.14-1,1-.75.49-1.94.5L1.05,35.79,0,37.08.4,38l.8.84,1.44.33,1.14.61.45-.94.64.35,1.54-.35h1.2l.89.6.85-.6,1,.35,4.13-.35,2.14.25.15-.64.36-.11.33-.69-1-.69-2-.65h-1l-.79-.54-.49.1L12,34.69,11.2,34l-.14-.95L11.6,33l.2-.65-.55-.3.9-2.69,0-.9.65.15V27.29l1.29-2.67-.4,0,.4-.51v-.7l.55-.41.1-.75.55-.35h7.72l1,.35.95.35.21,1.64L26.2,26l.1,1.05.6,1.15.86,3,.45.7-.2.45,1.13,2.49.3.7-.69.8-.89.35-.74-.35H25.48l-.05.35-.55-.35-.49.31-.3,1,.55.93,1.29.31.64.4,1.39-.4h4.91l1.43.3,3.37-.3,1.59.45,1.09-.45.84-1.14L39.9,36.33ZM23.05,18.69l-.4.39-1.45.65-.7.15-1.25-.45-1.2-.25-1.29-.4L16,18.14l.75-.4-.15-.94.54-1.29.1-1.18.55-1.24.64-1.44.89-.94.84.39.45,1.09.65.7.1,1.09L22,15.27l.59.69.5,1.29ZM82.54,38.5l.19.8-.79.7H80.45l-.69-.2-1.19-.3-.79-.59h-1.2L75,38.81l-1.82.1-.91-.2-.61-.58.2-.69.59-.68,1.27-.3.78-.39.5-.49V34.41l-.35-2.75.35-.58v-.91l-.35-.8L75,27.86l-.25-3.23-.25-1.58V22l-.74-.5v-.69l-.2-.4-.3-.49-.29-.6H71.59l-.89-.2-1-.19-.5.39h-.88l-.79.3H66.47l-.79.79-.3.7v2.18l-.29,1.38.29,3.28.3.39v.9l-.3,1.09.5.79-.2.5.2.7V35.4l.2.7.69.2.79.5.7.9v1.11L67,39l-1.82-.1H63.42l-1.21-.2-1.93.3-1.11.1-.91-.79-.41-.5V36.73l.57-.5.86-.2.48-.59.57-.1v-.69l.2-1.39-.2-.59L61,31.28l-.49-.7.49-.49V28.6l-.69-1.19V26l.55-.59L61,24.14l-.49-1.39.49-.89-.69-1L59,19.78l-1.38-.7-1.08-.19H55.33l-1.67.39-.88.89-.4,1.29-.88,2.18L51.8,26V28.8l-.3.59.3.7v1.68l-.3.5.68,1.19.09,1.68h.87l.48.7.77,1,.38,1.39-.79.29L52.5,39l-2.09.2-1.68-.4-2.88-.4-1.09-.29-.49-.4v-.89l.79-.6.2-1,.4-.89L46,32.47l.3-1,.41-.39-.41-.5V29.9L47,28.25l-.4-.58V26.21l.2-.48-.51-.4.31-2.24V22.5l-.7-.78-.6-.68-.3-.88-.1-.88-.19-.61v-.92l.49-.82.4-.61.69-.31.3-.5h2.23l1.11-.79h1l.6.79.3.5.5.59.79.3.8-.39,1.38-.5h2l.7-.5H59l1.29.29.69.1,1.09.58.69.19.7.48.69,1,1.19.67.3-.38.79-.28.9-.58.69-.76,1.09-.2,1-.57,1.29-.13.79-.37H74.7l1.59.5,1.09,1,1,.59,1.19,1.56.4,1v.78l-.23.39-.15,1.57-.2.58.2.4v.78l.07,2.64.31.49.31.88V29.8l-.31.78.31.6v2l.2,2.2.78.7L82,37.2Zm18.13-4.43-.59.78h-2l-.55.44-.69-.44H96l-.19-.4h-1.3L94,33.94l-.45-.18-1-.25-.2-.54L92,32.68l-.65-.83-.14-1-.45-.78-.6-.84-.49-.68-.45-.92v-2.2l.45-.34v-.68h2.82l.85.24,2-.24h3.22l.25.24H101l.1-.24h1l.39-.35.1-.86.11-1.1-.11-.8-.29-1.3-.5-.8-.64-1.15-.5-1.06-.89-.65-1-.6-1-.55-1.13-.35h-3l-.89.15-.69.44-.6.5-.65.3-.79.25-.39.24h-.55l-.94.94,0,.64-.39.59-.75.55.1.49-.2.64-.74.34-.15,1.43-.5,1.09-.24,2.71-.4.94.15,1,.25.64v.49l-.4.44.15,2.07.49.94.65,1,.69.54v.49l.55.5.14.83.6.4.2.6,1.09.75.94.49.49.49.8.2,1.24.2,2.38.2H97.6l.64-.6h.4l.45-.49h.79l.79-.69.4-.55h.39l.85-.5-.15-.5.69-.94V34.7l-1.39-.94ZM90.41,20.26l.49-.71.3-.65,1-.61.59-.45h1.54l.49.21.8.35.44.11.3.81.6.66.39.56-.49.46-.45.41-.54.2H93.34l-.8-.3H91.2l-.79-.25Zm34-3.38.39.8-.2,1.51-.2.8-.89,1v.8l-.89.7-.69-.3-1-.59-.69-.69-.6-.9-1.09-.59L118,20l-1,.3-.89.4-.9.3-.59,1V28l.33,4.75.66.2-.3,1.29.6.6.69.79.89.5.7,1-.4,1.28-.49.6-2.28-.3-.8.8-2.28-.12-.69-.46-.79-.12-.5.4-1.49.3-1-.2-.79-.3-.6-.69-.49-.9.31-1.28,1-.6.84-.2.94-.39.52-.7.31-.49-.69-.5.12-1.09.57-.69V25.28l.1-2.38-.1-1.09-.55-.89-.66-.6-.22-.59-.55-.4.42-1.39.31-.39.52-.9.73-.69.6-.59.59-.2.78-.4h2.17l.2.82.59.41.59,1.23.59.42.49-.52.79-.61.79-.52,1-.51,1.38-.21,1.29-.51,1.08.5,1.18.91ZM130.81,7l-.89-1V4.66l.59-1.19L132,3l1.49.45.74.44v.6l.89.45.15,1.33-.89.9-.89.74L132,7.78Zm4.76,29.59.89.89L136,38.71l-1.19.45L133.49,39l-1.34.15-1.64-.6-1,.6-1,.59h-1.49l-1-.89-.45-.89.16-1.34,1.33-.15,1.19-1.19.3-1.78.15-1.79-.45-1.34.6-.44v-1l.59-.75-.59-.74-.45-2.53.15-1.78-1.19-.45-1.49-.74-.14-1.34.74-1,.89-.3,1-.3L129,17.6l1.19.14,1.2-.14,1.48-.45.89.45.3,1-.15,1-.59,1.48.44.6.15,1.19-.29,1.49-.15,1.34v4.16l-.15,1.63.59,1-.29,1,.29.59.45,1.34Zm8-12.34a10.27,10.27,0,0,0-.25,2,10.66,10.66,0,0,0,.07,1.36,2.77,2.77,0,0,0,.26.94c.13.25.25.38.38.38s.18.18.18.54v.94a1.87,1.87,0,0,0,.4.95c.26.39.44.66.54.79.33.46.68.91,1,1.34a4.21,4.21,0,0,0,1.91.82,12.24,12.24,0,0,0,2.46.27,6.56,6.56,0,0,0,3-.65,2.73,2.73,0,0,0,1.54-2.08c.3.13.61.27.94.4s.4.33.4.49a.49.49,0,0,0-.1.2,2.1,2.1,0,0,0-.2.4l-.44,2.13-3.16,2.87a6.61,6.61,0,0,1-3.64,1,7.77,7.77,0,0,1-3.48-.77,8.37,8.37,0,0,1-2.79-2.31,4.48,4.48,0,0,1-.58-1,4.31,4.31,0,0,0-.6-1c-.39-.5-.66-.84-.79-1a5.79,5.79,0,0,1-.64-1.17c-.13-.34-.24-.68-.34-1a2.26,2.26,0,0,0-.42-.82,1.29,1.29,0,0,1-.27-.87V26a1.86,1.86,0,0,1,.54-1.09,3.12,3.12,0,0,0,.64-1,11.55,11.55,0,0,1,1.23-2.73c.49-.85,1-1.73,1.53-2.62l.67-.52a7.68,7.68,0,0,1,.91-.67,11.58,11.58,0,0,1,1.92-.89c1.12-.43,1.77-.69,2-.77a1.77,1.77,0,0,1,.71-.13c.2,0,.54,0,1,.1a8.58,8.58,0,0,0,1.18.1,7,7,0,0,1,3.55.75,3.19,3.19,0,0,1,1.68,3,2.62,2.62,0,0,1-.35,1.46,1.38,1.38,0,0,1-1.24.52,3.91,3.91,0,0,1-2.38-.86,8.22,8.22,0,0,0-2-1.22h-.6a1.05,1.05,0,0,0-.39-.1,4.74,4.74,0,0,0-1-.15l-.44.45a2.73,2.73,0,0,0-1.24.3,2.55,2.55,0,0,0-.45.29,3.33,3.33,0,0,0-2,.5,2.21,2.21,0,0,0-.67,1.88A11.37,11.37,0,0,1,143.55,24.29ZM178.3,33.7a1.29,1.29,0,0,0-.72-.19,2.5,2.5,0,0,1-.72-.1h-.25c-.07.23-.18.36-.35.37a4.52,4.52,0,0,1-.54,0h-.79l-.05.3a.54.54,0,0,0-.46-.3h-.75l-.23.05a3.69,3.69,0,0,0-.15-.94,3.49,3.49,0,0,1-.15-.89.51.51,0,0,1,.08-.3.89.89,0,0,1,.22-.2V29.89a2.65,2.65,0,0,1,0-1.09l.25-.35s-.05-.21-.13-.54a3.74,3.74,0,0,1-.12-.85c0-.1.11-.69.35-1.78a5.32,5.32,0,0,0,.1-1,5.37,5.37,0,0,0-.19-1.09c-.12-.5-.21-.88-.26-1.14V19.23a8.16,8.16,0,0,0-.85-1.68,3.26,3.26,0,0,0-1.35-1.19c-.36-.07-.64-.14-.84-.2s-.72-.3-1.55-.7a3.2,3.2,0,0,0-1.35-.39,2.37,2.37,0,0,0-.52.06l-.82.18a2.35,2.35,0,0,1-.76,0,1.67,1.67,0,0,0-.42.33,1.74,1.74,0,0,1-.52.37l-.9.1a1.12,1.12,0,0,0-.68.27l-.49.52a3.68,3.68,0,0,1-.48.45c-.29.23-.71.54-1.25.94a5.92,5.92,0,0,0-1,1.17l-.87,1.36a2.93,2.93,0,0,0-.45,1.63,2,2,0,0,0,.5.95.91.91,0,0,1,.19.59l1.55.15a2.22,2.22,0,0,0,1.23-.37,3.38,3.38,0,0,0,.95-1,1.27,1.27,0,0,0,.14-.69V20.87a1.12,1.12,0,0,1,.2-.7l.39-.29a1.08,1.08,0,0,1,.55-.28c.3-.08.45-.19.45-.32a4.09,4.09,0,0,0,.68-.07,4.19,4.19,0,0,1,.68-.08,4.52,4.52,0,0,1,1.62.4q.62.24,1.26.45a1.9,1.9,0,0,1,.67,1l-.21,1.83.21,3.42-.4.47a2.13,2.13,0,0,1-.72.45l-.87.37a4.42,4.42,0,0,1-.89.25c-.9.06-1.78.11-2.68.15a5.69,5.69,0,0,0-1.54.34,3.07,3.07,0,0,1-.42.38,1.31,1.31,0,0,1-.42.22h-1.13A5.5,5.5,0,0,0,158.42,31a5.77,5.77,0,0,0-.8,2.79,2,2,0,0,0,.3.92c.2.35.33.58.38.7s.14.48.27,1.09a2,2,0,0,0,.77,1.3,4.12,4.12,0,0,0,.89.47,3.71,3.71,0,0,0,.64.15,3.81,3.81,0,0,1,.82.25l1.14.45a2.8,2.8,0,0,0,1.54-.45l1.39-.89,1.68-.89a2.38,2.38,0,0,0,1.19-1.29,12.12,12.12,0,0,1,.85,1.14,2.83,2.83,0,0,0,1,.94l.54.6a1.28,1.28,0,0,1,.82.19c.15.14.35.12.62,0h.74a2.2,2.2,0,0,1,.74.19,2.28,2.28,0,0,0,.85.2,1.37,1.37,0,0,0,.84-.25c.23-.16.43-.31.59-.44a4.1,4.1,0,0,0,.95-1.13c.13-.26.36-.67.69-1.22a1.08,1.08,0,0,1,.4-.4,4.19,4.19,0,0,0,0-.88A1.86,1.86,0,0,1,178.3,33.7Zm-9.08-1.43a2.19,2.19,0,0,1-.69,1.44,6.16,6.16,0,0,1-1.34.79c-.23.1-.51.23-.84.4a2.49,2.49,0,0,1-1.09.24,2.14,2.14,0,0,1-.45-.24l-.89-.2a2.32,2.32,0,0,1-1-1.19,4.13,4.13,0,0,1-.37-1.69q0-.74,1.11-1.41a5.26,5.26,0,0,1,1.66-.75,6.2,6.2,0,0,0,1.31-.34,3.87,3.87,0,0,1,1.17-.27h1.43Z"/></g></g></svg>