<svg xmlns="http://www.w3.org/2000/svg" viewBox="0 0 848.22 246.73"><defs><style>.cls-1{fill:#7c4821;}</style></defs><g id="圖層_2" data-name="圖層 2"><g id="圖層_2-2" data-name="圖層 2"><g id="us_wave"><g id="map_deco_7"><path class="cls-1" d="M191,187.31c-2.44,2-4.87,3.07-7.92,1.09-1.06.66-2,1.31-3.05,1.91-2,1.18-2.75,1.19-4.49-.2a8.75,8.75,0,0,0-4.06-1.88c-.62.32-1.37.73-2.15,1.12a17.33,17.33,0,0,1-2.38,1.14c-1.84.61-2.92,0-3.43-1.7-.08-.27-.14-.54-.21-.82-1.32-.18-2.12.67-3.14,1-2.1.73-3.18.35-3.91-1.49a7.67,7.67,0,0,1-.26-1.26c-3.15.34-5.07,2.85-8.22,3.3.06-.46,0-.71.1-.77,4.2-2.35,7.23-3.66,9.69-4.21,0,.76,0,1.5,0,2.25,0,1.18,1,1.69,2.37,1.18.73-.28,1.39-.68,2.09-1s1.21-.54,1.84-.77a3.11,3.11,0,0,1,.89,0c-.06.73-.15,1.45-.14,2.18s1,1.38,1.95,1.11a8.17,8.17,0,0,0,1.51-.67c1.14-.62,2.27-1.28,3.34-1.9a9.48,9.48,0,0,1,4.63,2c1.52,1.22,2.25,1.22,3.88.2.55-.34,1-.78,1.56-1.13s1.14-.62,1.73-.93a8.8,8.8,0,0,1,1,.33c2.43,1.19,3.19,1.12,5.2-.3.83-.58,1.34-1.58,2.57-1.65,1.12.56.61,1.44.85,2.14a1.73,1.73,0,0,0,2.31,1.16,12.19,12.19,0,0,0,2.68-1.2c.86-.48,1.61-1.08,2.43-1.6a2.82,2.82,0,0,1,.8-.19c1.2.68,2,2.12,3.84,2,1.44,0,2.87-.35,4.48-.57-3.45,2.49-4.83,2.48-9.05,0-.48.3-1,.61-1.54,1-.36.24-.66.53-1,.76a6.25,6.25,0,0,1-4.2,1C192.07,189.72,191.77,188.57,191,187.31Z"/><path class="cls-1" d="M209.8,209.44a10.66,10.66,0,0,1,1.22.61c2.1,1.44,4.46,1.38,6.86.78,1.63-.41,3.19-1,4.76-1.5.53.61-.09.72-.42.86a32.29,32.29,0,0,1-4.3,1.8c-2.85.79-5.69.86-8.08-1-.91.28-1.69.44-2.39.74a3.57,3.57,0,0,1-4.07-.52c-.39-.34-.74-.73-1.23-1.21-1.06.63-2,1.19-2.91,1.71a30.09,30.09,0,0,1-3,1.48,4,4,0,0,1-4.18-.34,15.69,15.69,0,0,0-1.57-.89c-.62.38-1.23.77-1.85,1.14s-1.09.72-1.68,1c-2.49,1.2-4.49.8-6.22-1.21-.26-.31-.49-.63-.75-1-1.44.18-2.14,1.18-3.19,1.71a6.73,6.73,0,0,1-3.33,1.17c0-.39-.08-.66,0-.71,1.7-1,3.4-1.92,5.15-2.82a19,19,0,0,1,2.24-.8c.37.57.61,1,.89,1.38,1.4,2,3.22,2.28,5.42.88.64-.4,1.17-.92,1.8-1.34s1.1-.62,1.76-1c.62.43,1.16.77,1.66,1.15a3.79,3.79,0,0,0,4.14.34c1.3-.62,2.47-1.4,3.7-2.1.65-.37,1.31-.71,1.94-1.05a7.48,7.48,0,0,1,1,.54c2.36,1.88,2.36,1.88,5.3.66C208.94,209.73,209.36,209.6,209.8,209.44Z"/><path class="cls-1" d="M197.68,200.24c-1.45,2-3.79,2.69-6.35,2.82-.9,0-1.85-.59-3.1-1a6.92,6.92,0,0,1-7.34-1.82c-1.24.52-2.32,1-3.47,1.43-2.15.72-3.47.17-4.23-1.68-.14-.35-.26-.71-.41-1.06,0-.07-.17-.1-.44-.24l-1.39.6c-.51.23-1,.48-1.53.67-3,1-4.77.7-7.06-1.38-1.55.32-2.49,1.92-4.92,1.83a30.89,30.89,0,0,1,5.84-3.67c.28.39.52.67.7,1a2.86,2.86,0,0,0,3.73,1.63,27.19,27.19,0,0,0,3.48-1.24c.91-.35,1.8-.76,2.93-1.24.12,1,.16,1.73.3,2.47a1.73,1.73,0,0,0,2.15,1.42,7,7,0,0,0,2.23-.62,21.23,21.23,0,0,0,2.32-1.43,7,7,0,0,1,1.06.7c2.27,2.11,3.44,2.3,6.54,1,.21.05.52,0,.62.15a3.56,3.56,0,0,0,4.22,1c1.37-.45,2.78-.83,4.17-1.24Z"/><path class="cls-1" d="M239.24,194a7.43,7.43,0,0,1-1.15,1,21.76,21.76,0,0,1-7.41,2.21c-2.51.37-4.54-.29-5.83-2.21-.32-.49-.62-1-1-1.63-.84.24-1.58.42-2.29.66a4.71,4.71,0,0,1-5-.84,3.11,3.11,0,0,0-.49-.39c-.08-.05-.23,0-.49,0-.71.47-1.48,1-2.3,1.53-2.46,1.51-3.5,1.46-6.15-.34-2.41.11-4.42,1.64-7.19,2.09,1.59-1.73,3.87-2.65,7.94-3.37a3,3,0,0,1,.32.11c.72.42.92,1.35,2.07,1.36a4.34,4.34,0,0,0,2.81-.93c1-.78,1.85-1.7,2.93-2.72.68.67,1.11,1.06,1.5,1.47a3.13,3.13,0,0,0,3.88.87c.93-.36,1.85-.74,2.78-1.09a2.39,2.39,0,0,1,.55,0l.94,1.69c1.31,2.27,2.91,3,5.8,2.44,2.12-.43,4.16-1.07,6.25-1.61.53-.13,1.09-.21,1.63-.31Z"/><path class="cls-1" d="M151.71,209.58c2.17-.26,4.08.1,5.72-.82s3.11-1.56,4.65-2.33c2.27,2.32,2.27,2.32,5.74,2.6.33.65-.3.85-.79.92a5,5,0,0,1-5.31-2.09l-4.64,2a6.57,6.57,0,0,1-4.3.61C152.45,210.41,152.24,210,151.71,209.58Z"/><path class="cls-1" d="M197.73,200.3c.12-.15.21-.35.37-.42s.33.14.5.22c-.09.05-.17.15-.27.16a4.75,4.75,0,0,1-.65,0Z"/></g><g id="map_deco_7-2" data-name="map_deco_7"><path class="cls-1" d="M785.51,2.75c-2.44,2-4.88,3.07-7.93,1.09-1.05.67-2,1.31-3,1.92-2,1.18-2.75,1.18-4.5-.2a8.58,8.58,0,0,0-4-1.89c-.62.32-1.38.73-2.15,1.12a17.33,17.33,0,0,1-2.38,1.14c-1.85.61-2.92.05-3.43-1.69-.08-.27-.14-.54-.21-.83-1.33-.18-2.12.67-3.15,1-2.09.72-3.17.34-3.9-1.5a7.45,7.45,0,0,1-.26-1.26c-3.15.34-5.07,2.86-8.22,3.31.05-.46,0-.72.1-.78,4.2-2.35,7.23-3.66,9.69-4.21,0,.76,0,1.51,0,2.25,0,1.18,1,1.7,2.37,1.19.73-.28,1.38-.69,2.09-1s1.21-.55,1.84-.78a3,3,0,0,1,.88,0c0,.73-.15,1.46-.14,2.18a1.46,1.46,0,0,0,2,1.11,7.76,7.76,0,0,0,1.5-.66c1.15-.63,2.27-1.29,3.35-1.9a9.42,9.42,0,0,1,4.63,2c1.52,1.23,2.25,1.22,3.88.2.55-.34,1-.78,1.56-1.13s1.14-.62,1.73-.93c.38.13.71.2,1,.33,2.43,1.19,3.19,1.12,5.2-.29C784.75,2,785.25,1,786.49.9c1.11.56.61,1.44.85,2.14a1.72,1.72,0,0,0,2.31,1.16A11.74,11.74,0,0,0,792.33,3c.85-.47,1.61-1.07,2.43-1.6a3.59,3.59,0,0,1,.8-.19c1.2.69,2.05,2.12,3.84,2.06,1.44,0,2.86-.36,4.47-.58-3.44,2.49-4.82,2.48-9,0-.48.3-1,.62-1.54,1-.36.24-.67.54-1,.76a6.27,6.27,0,0,1-4.21,1C786.55,5.16,786.25,4,785.51,2.75Z"/><path class="cls-1" d="M804.28,24.89a10.68,10.68,0,0,1,1.22.6c2.1,1.44,4.46,1.39,6.86.78,1.62-.41,3.19-1,4.76-1.5.52.61-.09.72-.43.87a31.17,31.17,0,0,1-4.3,1.79c-2.84.79-5.68.86-8.07-1-.91.28-1.69.45-2.39.75a3.6,3.6,0,0,1-4.07-.52c-.4-.35-.74-.73-1.23-1.21-1.07.62-2,1.19-2.92,1.7a25.25,25.25,0,0,1-2.94,1.48,4,4,0,0,1-4.18-.34,15.69,15.69,0,0,0-1.57-.89l-1.85,1.15c-.56.34-1.09.71-1.68,1-2.49,1.21-4.49.81-6.23-1.21-.26-.3-.48-.63-.75-1-1.43.18-2.13,1.17-3.18,1.7A6.74,6.74,0,0,1,768,30.21c0-.4-.08-.67,0-.72,1.7-1,3.41-1.92,5.16-2.82a20.25,20.25,0,0,1,2.24-.8c.37.57.61,1,.89,1.38,1.4,2,3.22,2.28,5.41.89.64-.41,1.18-.92,1.8-1.34s1.11-.63,1.77-1c.62.42,1.16.76,1.66,1.14a3.77,3.77,0,0,0,4.14.34c1.29-.61,2.47-1.4,3.7-2.1.64-.37,1.3-.71,1.93-1.05a7.09,7.09,0,0,1,1,.54c2.36,1.88,2.35,1.88,5.3.66C803.42,25.17,803.84,25,804.28,24.89Z"/><path class="cls-1" d="M792.15,15.69c-1.44,2-3.78,2.69-6.34,2.81-.9,0-1.85-.59-3.1-1a6.93,6.93,0,0,1-7.34-1.81c-1.24.51-2.32,1-3.47,1.42-2.15.72-3.47.17-4.23-1.68-.15-.35-.26-.71-.41-1.06,0-.06-.18-.1-.44-.23l-1.4.6c-.51.22-1,.48-1.52.66-3,1-4.77.7-7.06-1.37-1.56.32-2.5,1.91-4.92,1.82a30.52,30.52,0,0,1,5.84-3.66c.28.39.52.67.69,1,.92,1.61,1.86,2.09,3.74,1.63a28,28,0,0,0,3.47-1.23c.92-.36,1.81-.76,2.94-1.25.12,1,.16,1.74.3,2.47a1.73,1.73,0,0,0,2.15,1.43,7.13,7.13,0,0,0,2.23-.63,22.64,22.64,0,0,0,2.31-1.42,7.79,7.79,0,0,1,1.06.69c2.28,2.11,3.44,2.3,6.55,1,.21,0,.52,0,.61.15A3.58,3.58,0,0,0,788,17c1.37-.45,2.78-.83,4.17-1.24Z"/><path class="cls-1" d="M833.72,9.4a6.88,6.88,0,0,1-1.15,1,21.39,21.39,0,0,1-7.41,2.21c-2.51.38-4.54-.29-5.83-2.21-.33-.49-.63-1-1-1.63-.84.24-1.58.42-2.29.66a4.71,4.71,0,0,1-5-.84,2.79,2.79,0,0,0-.5-.39c-.07,0-.22,0-.49,0-.7.47-1.47,1-2.29,1.53-2.46,1.51-3.51,1.45-6.15-.35-2.41.11-4.42,1.65-7.19,2.09,1.58-1.73,3.87-2.64,7.94-3.37a2.83,2.83,0,0,1,.31.11c.72.42.93,1.36,2.07,1.37a4.41,4.41,0,0,0,2.82-.94c1-.78,1.85-1.69,2.93-2.71.68.66,1.11,1.06,1.5,1.47a3.13,3.13,0,0,0,3.88.86l2.78-1.09a2,2,0,0,1,.54.06c.29.5.61,1.09,1,1.68,1.31,2.28,2.91,3,5.8,2.44,2.11-.42,4.16-1.07,6.25-1.6.53-.14,1.09-.21,1.63-.31Z"/><path class="cls-1" d="M746.18,25c2.18-.26,4.09.1,5.73-.81s3.11-1.57,4.64-2.33c2.27,2.31,2.27,2.31,5.75,2.6.33.65-.3.85-.79.92-2.23.31-4.07-.24-5.31-2.1l-4.65,2a6.49,6.49,0,0,1-4.3.6C746.93,25.85,746.71,25.49,746.18,25Z"/><path class="cls-1" d="M792.21,15.74c.12-.14.21-.35.37-.41s.33.13.5.21c-.09.06-.18.15-.27.16s-.44,0-.66,0Z"/></g><g id="map_deco_7-3" data-name="map_deco_7"><path class="cls-1" d="M110.73,128.4c1.85,1.51,3.69,2.33,6,.83.8.5,1.54,1,2.31,1.45,1.5.89,2.08.89,3.4-.15a6.54,6.54,0,0,1,3.07-1.43l1.63.85a13,13,0,0,0,1.81.86c1.39.46,2.21,0,2.59-1.28.06-.21.1-.41.16-.63,1-.13,1.61.51,2.38.78,1.59.55,2.41.26,3-1.13a5.08,5.08,0,0,0,.19-1c2.39.26,3.84,2.16,6.23,2.5,0-.34,0-.54-.08-.58a28.92,28.92,0,0,0-7.33-3.19c0,.57,0,1.14,0,1.71,0,.89-.78,1.28-1.79.89-.55-.21-1.05-.52-1.58-.76s-.92-.42-1.4-.59a2.57,2.57,0,0,0-.66,0c0,.55.11,1.1.1,1.65a1.1,1.1,0,0,1-1.48.84,5.8,5.8,0,0,1-1.14-.5c-.87-.47-1.72-1-2.53-1.44a7.15,7.15,0,0,0-3.51,1.5c-1.15.92-1.7.92-2.93.15-.42-.26-.77-.59-1.19-.86s-.86-.46-1.31-.7a6.57,6.57,0,0,0-.75.25c-1.84.9-2.41.84-3.94-.23-.63-.44-1-1.19-1.94-1.25-.85.42-.46,1.09-.64,1.62a1.31,1.31,0,0,1-1.75.88,8.63,8.63,0,0,1-2-.91c-.65-.36-1.22-.81-1.84-1.21a2.4,2.4,0,0,0-.61-.14c-.91.52-1.55,1.6-2.91,1.55-1.09,0-2.17-.27-3.39-.43,2.61,1.88,3.66,1.87,6.85,0,.37.22.78.46,1.17.72s.5.41.78.58a4.69,4.69,0,0,0,3.18.74C109.94,130.23,110.17,129.36,110.73,128.4Z"/><path class="cls-1" d="M96.52,145.16a9,9,0,0,0-.93.46,6.1,6.1,0,0,1-5.19.59c-1.23-.31-2.42-.75-3.61-1.13-.39.46.07.54.33.65a22.54,22.54,0,0,0,3.25,1.36c2.15.6,4.31.65,6.12-.78.69.21,1.28.34,1.8.56a2.71,2.71,0,0,0,3.09-.39c.3-.26.56-.55.93-.92.81.48,1.49.91,2.21,1.3a23.21,23.21,0,0,0,2.23,1.12,3.05,3.05,0,0,0,3.16-.26,10.12,10.12,0,0,1,1.19-.67l1.4.86a14.87,14.87,0,0,0,1.28.76,3.53,3.53,0,0,0,4.71-.91c.2-.23.36-.48.57-.75,1.08.14,1.61.89,2.41,1.29a5,5,0,0,0,2.52.89c0-.3.06-.5,0-.54-1.29-.73-2.58-1.45-3.9-2.13a15.61,15.61,0,0,0-1.7-.61c-.28.43-.46.74-.68,1-1,1.5-2.43,1.73-4.1.68-.48-.31-.88-.7-1.36-1s-.83-.47-1.34-.75c-.47.33-.88.58-1.25.87a2.87,2.87,0,0,1-3.14.25c-1-.46-1.87-1.06-2.8-1.59l-1.46-.79a5.47,5.47,0,0,0-.76.41c-1.79,1.42-1.78,1.42-4,.5C97.17,145.38,96.85,145.28,96.52,145.16Z"/><path class="cls-1" d="M105.7,138.2a6,6,0,0,0,4.8,2.13,7.74,7.74,0,0,0,2.35-.78,5.23,5.23,0,0,0,5.56-1.38c.94.4,1.76.79,2.63,1.09,1.62.54,2.62.12,3.2-1.28.11-.26.2-.54.31-.8,0-.05.13-.08.33-.18l1.06.46c.39.16.76.36,1.16.5,2.27.78,3.61.53,5.34-1,1.18.24,1.89,1.45,3.73,1.38a22.71,22.71,0,0,0-4.42-2.77,7.17,7.17,0,0,0-.53.73,2.17,2.17,0,0,1-2.83,1.24,20.05,20.05,0,0,1-2.63-.94c-.7-.27-1.37-.57-2.23-.94-.08.75-.12,1.31-.22,1.87a1.32,1.32,0,0,1-1.63,1.08,5.74,5.74,0,0,1-1.69-.47,19.94,19.94,0,0,1-1.75-1.08,5.28,5.28,0,0,0-.8.52c-1.72,1.6-2.61,1.74-5,.77-.16,0-.39,0-.47.11a2.69,2.69,0,0,1-3.19.76c-1-.34-2.11-.63-3.16-.94Z"/><path class="cls-1" d="M74.22,133.43a5.27,5.27,0,0,0,.87.77,16.45,16.45,0,0,0,5.62,1.68,4.17,4.17,0,0,0,4.41-1.68c.25-.37.47-.75.78-1.23.64.18,1.2.32,1.74.5a3.54,3.54,0,0,0,3.79-.64,2.72,2.72,0,0,1,.38-.29c.06,0,.17,0,.37,0,.53.36,1.12.78,1.74,1.16,1.86,1.14,2.65,1.1,4.66-.26,1.82.09,3.35,1.25,5.44,1.58-1.2-1.31-2.93-2-6-2.55a1.7,1.7,0,0,0-.24.09c-.54.31-.7,1-1.57,1a3.31,3.31,0,0,1-2.13-.71c-.76-.59-1.4-1.28-2.22-2.06-.51.51-.84.81-1.13,1.12a2.37,2.37,0,0,1-2.94.65l-2.11-.82c-.06,0-.16,0-.41,0-.21.38-.46.83-.72,1.27-1,1.73-2.2,2.29-4.39,1.85-1.6-.32-3.15-.81-4.73-1.21-.4-.11-.82-.16-1.24-.24Z"/><path class="cls-1" d="M140.51,145.27c-1.65-.2-3.09.07-4.33-.62s-2.36-1.19-3.52-1.76c-1.72,1.75-1.72,1.75-4.35,2-.25.5.22.65.6.7a3.78,3.78,0,0,0,4-1.59l3.51,1.54a5,5,0,0,0,3.26.46C139.94,145.89,140.11,145.62,140.51,145.27Z"/><path class="cls-1" d="M105.66,138.24c-.09-.11-.16-.27-.29-.32s-.24.11-.37.17c.07,0,.13.11.2.12s.33,0,.5,0Z"/></g><g id="map_deco_7-4" data-name="map_deco_7"><path class="cls-1" d="M43.22,60.51c-2.45,1.78-4.88,2.76-7.93,1-1,.6-2,1.18-3,1.73-2,1.06-2.74,1.06-4.49-.18a9.05,9.05,0,0,0-4.05-1.7c-.62.29-1.38.66-2.15,1a19.55,19.55,0,0,1-2.39,1c-1.84.54-2.92,0-3.42-1.53-.08-.24-.14-.49-.21-.74-1.33-.16-2.13.6-3.15.92-2.09.65-3.17.31-3.9-1.35a6,6,0,0,1-.26-1.13c-3.16.31-5.07,2.57-8.22,3,.05-.41,0-.64.1-.69A40,40,0,0,1,9.79,58c0,.68,0,1.36,0,2,0,1,1,1.52,2.37,1.06.73-.25,1.38-.61,2.08-.91s1.22-.49,1.85-.7a3.47,3.47,0,0,1,.88,0c0,.66-.15,1.31-.14,2s1,1.25,2,1a7.43,7.43,0,0,0,1.51-.6c1.15-.56,2.27-1.15,3.35-1.71A10.06,10.06,0,0,1,28.27,62c1.52,1.1,2.24,1.1,3.87.18.55-.31,1-.7,1.57-1s1.14-.56,1.72-.84a7.13,7.13,0,0,1,1,.3c2.42,1.06,3.19,1,5.2-.27.83-.53,1.33-1.42,2.56-1.49,1.12.5.62,1.3.86,1.92a1.75,1.75,0,0,0,2.3,1.05A12.71,12.71,0,0,0,50,60.73c.85-.43,1.6-1,2.42-1.44a3.53,3.53,0,0,1,.81-.17c1.2.62,2,1.9,3.84,1.85,1.44,0,2.86-.32,4.47-.52-3.44,2.24-4.82,2.23-9,0-.48.27-1,.56-1.54.87-.36.21-.67.48-1,.68a6.86,6.86,0,0,1-4.21.89C44.26,62.67,44,61.64,43.22,60.51Z"/><path class="cls-1" d="M62,80.41a10.8,10.8,0,0,1,1.22.55c2.09,1.29,4.46,1.24,6.86.7,1.62-.37,3.18-.9,4.76-1.35.52.55-.09.65-.43.78a33.58,33.58,0,0,1-4.3,1.61c-2.84.71-5.68.77-8.08-.92-.9.25-1.68.39-2.38.66A3.9,3.9,0,0,1,55.57,82c-.4-.31-.75-.66-1.23-1.09-1.07.56-2,1.07-2.92,1.53a29.12,29.12,0,0,1-3,1.33,4.41,4.41,0,0,1-4.17-.3,15,15,0,0,0-1.57-.8l-1.86,1c-.55.3-1.08.64-1.67.9-2.49,1.08-4.49.73-6.23-1.09-.26-.27-.48-.57-.75-.88-1.43.16-2.13,1-3.18,1.53a7.27,7.27,0,0,1-3.33,1.06c0-.36-.08-.6,0-.65,1.7-.86,3.41-1.72,5.15-2.53a20,20,0,0,1,2.25-.72c.36.51.61.88.89,1.24,1.4,1.77,3.22,2,5.41.8.64-.37,1.17-.83,1.8-1.21s1.11-.56,1.77-.89c.62.38,1.16.69,1.65,1a4.12,4.12,0,0,0,4.15.3c1.29-.55,2.46-1.26,3.7-1.89l1.93-.94a7.81,7.81,0,0,1,1,.49c2.36,1.69,2.35,1.69,5.3.59C61.12,80.67,61.55,80.55,62,80.41Z"/><path class="cls-1" d="M49.86,72.14c-1.44,1.77-3.78,2.42-6.34,2.53-.91,0-1.85-.53-3.1-.92a7.47,7.47,0,0,1-7.34-1.64c-1.24.46-2.32.94-3.47,1.28-2.15.65-3.47.15-4.23-1.51-.15-.31-.26-.64-.41-.95,0-.06-.18-.09-.44-.21l-1.4.54c-.51.2-1,.43-1.53.59-3,.94-4.77.63-7-1.23-1.56.29-2.5,1.72-4.92,1.64A31.06,31.06,0,0,1,15.46,69a8.32,8.32,0,0,1,.7.88c.92,1.44,1.86,1.88,3.74,1.47a31.16,31.16,0,0,0,3.47-1.11c.92-.32,1.81-.69,2.94-1.12.11.88.16,1.56.3,2.22.19.92.92,1.39,2.14,1.28A7.92,7.92,0,0,0,31,72a22.09,22.09,0,0,0,2.31-1.29,7.81,7.81,0,0,1,1.06.63c2.27,1.9,3.44,2.07,6.55.91.21,0,.52,0,.61.14a3.83,3.83,0,0,0,4.22.89c1.38-.4,2.79-.74,4.18-1.11Z"/><path class="cls-1" d="M91.43,66.48a6.77,6.77,0,0,1-1.15.91,23.33,23.33,0,0,1-7.41,2c-2.51.34-4.54-.26-5.83-2-.33-.44-.63-.89-1-1.46-.84.21-1.57.38-2.29.59a5.09,5.09,0,0,1-5-.75,2.24,2.24,0,0,0-.5-.35,1.66,1.66,0,0,0-.49,0c-.7.42-1.48.92-2.3,1.38-2.45,1.35-3.5,1.31-6.14-.31-2.41.1-4.43,1.47-7.19,1.87C53.66,66.8,56,66,60,65.32a2.39,2.39,0,0,1,.32.11c.72.37.92,1.21,2.07,1.22a4.76,4.76,0,0,0,2.82-.84c1-.7,1.84-1.52,2.93-2.44.68.6,1.11.95,1.5,1.32a3.35,3.35,0,0,0,3.87.78l2.79-1a2.32,2.32,0,0,1,.54.05c.28.45.61,1,1,1.51,1.31,2,2.91,2.72,5.8,2.2,2.11-.38,4.16-1,6.24-1.44.54-.13,1.09-.19,1.64-.29Z"/><path class="cls-1" d="M3.89,80.53c2.18-.23,4.08.09,5.72-.73s3.12-1.41,4.65-2.09C16.53,79.79,16.53,79.79,20,80c.33.59-.3.77-.79.83-2.24.28-4.07-.22-5.32-1.88L9.26,80.81a7.16,7.16,0,0,1-4.3.54C4.64,81.28,4.42,81,3.89,80.53Z"/><path class="cls-1" d="M49.92,72.19c.12-.13.2-.32.37-.38s.33.13.5.2a.87.87,0,0,1-.27.14c-.22,0-.44,0-.66,0Z"/></g><g id="map_deco_7-5" data-name="map_deco_7"><path class="cls-1" d="M637.86,38.16c-2.23,1.45-4.46,2.23-7.26.79-1,.48-1.86.95-2.79,1.39-1.81.86-2.51.86-4.11-.14A9,9,0,0,0,620,38.83c-.57.23-1.26.53-2,.81a17.82,17.82,0,0,1-2.18.83c-1.69.44-2.68,0-3.14-1.23-.07-.2-.13-.39-.19-.6-1.22-.13-2,.49-2.89.74-1.91.53-2.9.25-3.57-1.08a5.05,5.05,0,0,1-.24-.92c-2.89.25-4.64,2.08-7.52,2.4,0-.33,0-.52.09-.56a39.94,39.94,0,0,1,8.87-3.06c0,.55,0,1.1,0,1.64,0,.85,1,1.23,2.17.86.67-.21,1.27-.5,1.91-.74s1.11-.39,1.69-.56a3.86,3.86,0,0,1,.81,0A14.2,14.2,0,0,0,613.7,39c0,.59.93,1,1.79.8a7.75,7.75,0,0,0,1.38-.48c1-.46,2.08-.93,3.06-1.38a9.85,9.85,0,0,1,4.24,1.44,2.9,2.9,0,0,0,3.55.14c.51-.25.93-.57,1.43-.82s1.05-.45,1.59-.68a9,9,0,0,1,.91.24c2.22.87,2.91.81,4.76-.21.76-.43,1.22-1.15,2.35-1.21,1,.41.56,1,.78,1.56a1.67,1.67,0,0,0,2.11.84,12.35,12.35,0,0,0,2.46-.87c.78-.34,1.47-.78,2.22-1.16a3.22,3.22,0,0,1,.73-.14c1.1.5,1.88,1.54,3.52,1.49,1.32,0,2.63-.26,4.1-.41-3.16,1.8-4.42,1.8-8.28,0-.44.21-.94.44-1.41.69s-.61.39-1,.56a7,7,0,0,1-3.85.71C638.82,39.91,638.54,39.08,637.86,38.16Z"/><path class="cls-1" d="M655.05,54.24c.4.16.8.27,1.12.44a9.18,9.18,0,0,0,6.28.57c1.49-.3,2.92-.73,4.36-1.09.48.44-.08.52-.39.62a32.49,32.49,0,0,1-3.94,1.31c-2.6.57-5.2.62-7.4-.75-.83.2-1.54.32-2.18.54a3.94,3.94,0,0,1-3.73-.38c-.36-.25-.68-.53-1.12-.88-1,.46-1.81.87-2.67,1.24s-1.76.78-2.7,1.08a4.54,4.54,0,0,1-3.83-.25c-.38-.23-.86-.39-1.43-.65l-1.7.84c-.51.24-1,.52-1.54.72a5,5,0,0,1-5.7-.88c-.24-.22-.44-.45-.69-.71-1.31.13-1.95.85-2.91,1.24a7.23,7.23,0,0,1-3,.85c0-.28-.08-.48,0-.52,1.56-.69,3.12-1.39,4.72-2a18.1,18.1,0,0,1,2.05-.58c.34.41.56.71.82,1,1.28,1.44,3,1.66,5,.65.58-.29,1.07-.67,1.64-1s1-.46,1.62-.72c.57.31,1.07.55,1.52.83A4.27,4.27,0,0,0,643,56c1.18-.45,2.25-1,3.38-1.53.59-.27,1.2-.52,1.77-.76a7.68,7.68,0,0,1,.92.39c2.16,1.36,2.15,1.37,4.85.48C654.26,54.45,654.65,54.35,655.05,54.24Z"/><path class="cls-1" d="M644,47.56c-1.33,1.43-3.47,1.95-5.81,2a11,11,0,0,1-2.84-.75,7.5,7.5,0,0,1-6.72-1.32c-1.14.38-2.13.76-3.18,1-2,.52-3.18.12-3.87-1.22-.14-.25-.24-.52-.38-.77,0,0-.16-.07-.4-.17l-1.28.43c-.47.17-.92.35-1.4.49-2.74.75-4.37.51-6.46-1-1.43.23-2.29,1.39-4.51,1.32A30.65,30.65,0,0,1,612.45,45c.26.29.48.49.64.71.83,1.17,1.7,1.52,3.42,1.19,1.1-.22,2.13-.58,3.18-.9.84-.26,1.65-.56,2.69-.91.1.72.15,1.26.27,1.8.18.74.84,1.12,2,1a7.57,7.57,0,0,0,2-.45,22.85,22.85,0,0,0,2.12-1,6.65,6.65,0,0,1,1,.51c2.08,1.53,3.15,1.67,6,.73.19,0,.47,0,.56.11a3.83,3.83,0,0,0,3.87.72c1.26-.32,2.54-.6,3.82-.89Z"/><path class="cls-1" d="M682,43a6.54,6.54,0,0,1-1,.73,23.93,23.93,0,0,1-6.79,1.61c-2.3.27-4.15-.21-5.33-1.61-.3-.35-.58-.72-1-1.18-.77.17-1.45.31-2.1.48a5.21,5.21,0,0,1-4.59-.61,3,3,0,0,0-.46-.28c-.07,0-.2,0-.45,0-.64.34-1.35.75-2.1,1.11-2.25,1.1-3.21,1.06-5.63-.25-2.21.08-4,1.2-6.58,1.52,1.45-1.25,3.54-1.92,7.27-2.45l.29.08c.65.31.84,1,1.89,1a4.92,4.92,0,0,0,2.58-.68c.92-.57,1.69-1.24,2.68-2,.63.49,1,.77,1.38,1.07a3.38,3.38,0,0,0,3.55.63l2.55-.79c.08,0,.19,0,.49,0l.87,1.22c1.2,1.65,2.67,2.19,5.31,1.77,1.94-.3,3.81-.77,5.72-1.16.49-.1,1-.15,1.5-.23Z"/><path class="cls-1" d="M601.85,54.34c2-.19,3.74.07,5.24-.6s2.85-1.13,4.26-1.69c2.07,1.68,2.07,1.68,5.26,1.89.3.47-.27.62-.73.67-2,.23-3.72-.18-4.86-1.52l-4.25,1.47a7.38,7.38,0,0,1-3.94.44C602.54,54.94,602.34,54.68,601.85,54.34Z"/><path class="cls-1" d="M644,47.6c.11-.11.19-.26.34-.31s.3.1.45.16a.9.9,0,0,1-.24.12c-.2,0-.4,0-.6,0Z"/></g><g id="map_deco_7-6" data-name="map_deco_7"><path class="cls-1" d="M719.71,98.86c-2.45,2-4.88,3.07-7.93,1.09-1,.67-2,1.31-3,1.92-2,1.18-2.74,1.18-4.49-.2a8.57,8.57,0,0,0-4.06-1.89c-.61.32-1.37.74-2.14,1.13a19.31,19.31,0,0,1-2.39,1.13c-1.84.61-2.92,0-3.42-1.69-.08-.27-.14-.54-.21-.83-1.33-.18-2.13.67-3.15,1-2.09.72-3.18.34-3.91-1.5a7.55,7.55,0,0,1-.25-1.26c-3.16.34-5.07,2.86-8.22,3.31,0-.46,0-.72.1-.78,4.2-2.35,7.22-3.66,9.68-4.21,0,.76,0,1.51,0,2.26,0,1.17,1,1.69,2.37,1.18.72-.28,1.38-.69,2.08-1s1.22-.55,1.85-.78a3.47,3.47,0,0,1,.88,0c-.05.73-.15,1.46-.14,2.18a1.45,1.45,0,0,0,1.95,1.11,7.85,7.85,0,0,0,1.51-.66c1.15-.63,2.27-1.29,3.34-1.9a9.38,9.38,0,0,1,4.64,2c1.52,1.22,2.24,1.21,3.87.19.55-.34,1-.78,1.56-1.13s1.15-.61,1.73-.92a9.15,9.15,0,0,1,1,.32c2.42,1.19,3.18,1.12,5.2-.29.83-.59,1.33-1.58,2.56-1.66,1.12.56.61,1.44.85,2.14a1.73,1.73,0,0,0,2.31,1.16,11.82,11.82,0,0,0,2.69-1.2c.85-.47,1.6-1.07,2.42-1.6a3.92,3.92,0,0,1,.8-.19c1.21.69,2.06,2.12,3.85,2.06,1.43,0,2.86-.36,4.47-.58-3.45,2.49-4.82,2.48-9,0-.48.3-1,.62-1.54,1s-.67.54-1,.76a6.25,6.25,0,0,1-4.2,1C720.75,101.27,720.44,100.12,719.71,98.86Z"/><path class="cls-1" d="M738.47,121a9.26,9.26,0,0,1,1.22.6c2.1,1.44,4.47,1.39,6.86.78,1.63-.41,3.19-1,4.77-1.49.52.61-.1.71-.43.86a30.47,30.47,0,0,1-4.3,1.79c-2.84.79-5.68.86-8.08-1a22,22,0,0,0-2.38.74,3.6,3.6,0,0,1-4.07-.52c-.4-.35-.75-.73-1.23-1.21-1.07.63-2,1.19-2.92,1.7a26.21,26.21,0,0,1-2.95,1.48,4,4,0,0,1-4.17-.33,14.79,14.79,0,0,0-1.57-.9l-1.86,1.15a18.6,18.6,0,0,1-1.68,1c-2.48,1.21-4.48.81-6.22-1.21-.26-.3-.48-.63-.75-1-1.43.18-2.13,1.17-3.18,1.7a6.77,6.77,0,0,1-3.33,1.18c0-.4-.08-.67,0-.72,1.7-1,3.41-1.92,5.15-2.81a18.5,18.5,0,0,1,2.25-.81c.36.57.61,1,.89,1.38,1.4,2,3.21,2.28,5.41.89.64-.41,1.17-.92,1.8-1.34s1.1-.62,1.77-1c.62.43,1.16.76,1.65,1.14a3.78,3.78,0,0,0,4.15.34c1.29-.61,2.46-1.4,3.7-2.1.64-.37,1.3-.71,1.93-1a7.71,7.71,0,0,1,1,.54c2.36,1.88,2.35,1.88,5.3.66C737.61,121.28,738,121.15,738.47,121Z"/><path class="cls-1" d="M726.35,111.8c-1.45,2-3.78,2.69-6.35,2.81-.9,0-1.85-.59-3.1-1a6.94,6.94,0,0,1-7.33-1.82c-1.24.51-2.32,1-3.47,1.42-2.15.72-3.47.17-4.23-1.67-.15-.36-.26-.72-.42-1.07,0-.06-.17-.1-.43-.23l-1.4.6c-.51.22-1,.48-1.53.66-3,1-4.77.7-7.05-1.37-1.56.32-2.5,1.91-4.93,1.82a30.83,30.83,0,0,1,5.84-3.66c.28.39.53.67.7,1,.92,1.61,1.86,2.09,3.74,1.64a28.07,28.07,0,0,0,3.47-1.24c.92-.36,1.8-.76,2.94-1.25.11,1,.16,1.74.3,2.47a1.72,1.72,0,0,0,2.14,1.43,7,7,0,0,0,2.23-.63,21.69,21.69,0,0,0,2.32-1.42,7.79,7.79,0,0,1,1.06.69c2.27,2.11,3.44,2.3,6.55,1,.21,0,.51,0,.61.15a3.56,3.56,0,0,0,4.22,1c1.38-.45,2.78-.83,4.18-1.24Z"/><path class="cls-1" d="M767.91,105.51a6.44,6.44,0,0,1-1.14,1,21.44,21.44,0,0,1-7.42,2.21c-2.5.38-4.53-.29-5.82-2.21-.33-.49-.63-1-1-1.63-.84.24-1.58.42-2.29.66a4.69,4.69,0,0,1-5-.84,3.73,3.73,0,0,0-.5-.39c-.08,0-.22,0-.49,0-.7.47-1.48,1-2.3,1.53-2.45,1.51-3.5,1.45-6.14-.34-2.42.1-4.43,1.64-7.19,2.08,1.58-1.73,3.87-2.64,7.93-3.37a1.52,1.52,0,0,1,.32.12c.72.41.92,1.35,2.07,1.36a4.49,4.49,0,0,0,2.82-.93c1-.79,1.84-1.7,2.93-2.72.68.66,1.1,1.06,1.5,1.47a3.11,3.11,0,0,0,3.87.86l2.79-1.09c.08,0,.21,0,.54.06.28.5.61,1.09.95,1.68,1.3,2.28,2.91,3,5.8,2.44,2.11-.42,4.16-1.07,6.24-1.6.54-.14,1.09-.21,1.64-.31Z"/><path class="cls-1" d="M680.38,121.13c2.17-.26,4.08.1,5.72-.81s3.12-1.57,4.65-2.33c2.27,2.31,2.27,2.31,5.75,2.6.33.65-.3.85-.8.92a5,5,0,0,1-5.31-2.1l-4.64,2a6.51,6.51,0,0,1-4.3.6C681.13,122,680.91,121.6,680.38,121.13Z"/><path class="cls-1" d="M726.41,111.85c.12-.14.2-.35.37-.41s.32.13.49.21c-.09.06-.17.15-.27.16a4.73,4.73,0,0,1-.65,0Z"/></g><g id="map_deco_7-7" data-name="map_deco_7"><path class="cls-1" d="M656.1,205.87c-2,1.62-4,2.5-6.45.89-.86.54-1.66,1.07-2.49,1.56-1.61,1-2.23,1-3.65-.16a7.08,7.08,0,0,0-3.31-1.54c-.5.26-1.12.6-1.75.92a13.26,13.26,0,0,1-1.94.92c-1.5.5-2.38,0-2.79-1.38-.06-.22-.11-.44-.17-.67-1.08-.15-1.73.55-2.56.83-1.71.59-2.59.28-3.18-1.21a5.62,5.62,0,0,1-.21-1c-2.57.28-4.13,2.33-6.7,2.69,0-.37,0-.58.08-.63a31.22,31.22,0,0,1,7.89-3.43c0,.62,0,1.23,0,1.84,0,.95.84,1.38,1.93,1,.59-.23,1.12-.56,1.7-.82s1-.45,1.5-.64a2.71,2.71,0,0,1,.72,0,17.54,17.54,0,0,0-.12,1.78,1.19,1.19,0,0,0,1.59.9,6.19,6.19,0,0,0,1.23-.54c.93-.51,1.85-1,2.72-1.55a7.74,7.74,0,0,1,3.78,1.61c1.24,1,1.83,1,3.15.16.45-.28.83-.64,1.28-.92s.93-.5,1.4-.75a7.08,7.08,0,0,1,.81.26c2,1,2.6.91,4.24-.24.68-.47,1.08-1.28,2.09-1.35.91.46.5,1.18.69,1.75a1.41,1.41,0,0,0,1.88.94,9.55,9.55,0,0,0,2.19-1c.69-.39,1.31-.88,2-1.31a3.12,3.12,0,0,1,.66-.15c1,.56,1.67,1.72,3.13,1.67,1.17,0,2.33-.29,3.64-.47-2.81,2-3.93,2-7.37,0-.39.24-.83.5-1.25.78s-.54.44-.84.62a5,5,0,0,1-3.43.8C657,207.84,656.7,206.9,656.1,205.87Z"/><path class="cls-1" d="M671.39,223.9a9.14,9.14,0,0,1,1,.49A6.57,6.57,0,0,0,678,225c1.33-.33,2.6-.81,3.88-1.22.43.5-.08.58-.35.7A25.58,25.58,0,0,1,678,226c-2.32.65-4.63.7-6.58-.83a19.77,19.77,0,0,0-1.94.6,2.92,2.92,0,0,1-3.32-.42c-.32-.28-.6-.6-1-1-.87.51-1.61,1-2.37,1.39a24.5,24.5,0,0,1-2.4,1.21,3.3,3.3,0,0,1-3.41-.28,12.11,12.11,0,0,0-1.27-.73l-1.52.94c-.45.27-.88.58-1.36.81a3.8,3.8,0,0,1-5.07-1c-.21-.25-.39-.51-.61-.8-1.17.14-1.74,1-2.59,1.39a5.58,5.58,0,0,1-2.72.95c0-.32-.06-.54,0-.58,1.39-.78,2.78-1.56,4.2-2.29a15.75,15.75,0,0,1,1.83-.66c.3.47.5.8.72,1.12,1.14,1.61,2.62,1.86,4.41.73.52-.33,1-.75,1.47-1.09s.9-.51,1.44-.81c.5.35.94.62,1.34.93a3.09,3.09,0,0,0,3.38.28c1.05-.5,2-1.14,3-1.71.53-.3,1.07-.58,1.58-.86a6.76,6.76,0,0,1,.81.44c1.92,1.53,1.92,1.53,4.32.54C670.69,224.13,671,224,671.39,223.9Z"/><path class="cls-1" d="M661.51,216.41c-1.17,1.6-3.08,2.19-5.16,2.29a8.36,8.36,0,0,1-2.53-.84,5.65,5.65,0,0,1-6-1.48c-1,.42-1.88.85-2.82,1.16-1.75.59-2.83.14-3.45-1.36-.12-.29-.21-.58-.33-.87,0-.05-.15-.08-.36-.19l-1.14.49c-.41.18-.81.39-1.24.54-2.44.84-3.89.57-5.75-1.12-1.27.26-2,1.56-4,1.48a26,26,0,0,1,4.76-3c.23.32.42.55.57.8a2.33,2.33,0,0,0,3,1.33,23.21,23.21,0,0,0,2.83-1c.75-.29,1.47-.62,2.39-1,.1.8.13,1.41.24,2a1.41,1.41,0,0,0,1.75,1.16,6.15,6.15,0,0,0,1.82-.51,20.62,20.62,0,0,0,1.89-1.16,6.74,6.74,0,0,1,.86.56c1.85,1.72,2.8,1.87,5.33.83.17,0,.42,0,.5.12a2.9,2.9,0,0,0,3.44.81c1.12-.36,2.27-.67,3.4-1Z"/><path class="cls-1" d="M695.37,211.28a5.7,5.7,0,0,1-.94.83,17.59,17.59,0,0,1-6,1.8,4.46,4.46,0,0,1-4.75-1.8c-.27-.4-.51-.81-.84-1.33-.69.2-1.29.35-1.87.54a3.82,3.82,0,0,1-4.08-.68,2.51,2.51,0,0,0-.41-.32c-.06,0-.18,0-.4,0-.57.39-1.2.84-1.87,1.25-2,1.23-2.85,1.19-5-.28-2,.09-3.61,1.34-5.86,1.7,1.29-1.41,3.15-2.15,6.46-2.74a1.58,1.58,0,0,1,.26.09c.59.34.75,1.1,1.69,1.11a3.59,3.59,0,0,0,2.29-.76c.82-.64,1.5-1.38,2.39-2.21.55.54.9.86,1.22,1.19a2.56,2.56,0,0,0,3.16.71l2.27-.89c.07,0,.17,0,.44.05.23.4.49.89.77,1.37,1.06,1.85,2.37,2.45,4.72,2,1.72-.34,3.39-.87,5.09-1.3.43-.11.89-.17,1.33-.26Z"/><path class="cls-1" d="M624.07,224c1.77-.21,3.33.08,4.66-.67s2.54-1.27,3.79-1.89c1.85,1.88,1.85,1.88,4.68,2.12.27.53-.24.69-.65.75a4.09,4.09,0,0,1-4.32-1.71l-3.78,1.65a5.37,5.37,0,0,1-3.51.49C624.68,224.69,624.5,224.39,624.07,224Z"/><path class="cls-1" d="M661.56,216.45c.1-.12.17-.28.3-.34s.27.11.41.18c-.08,0-.14.12-.22.13s-.36,0-.53,0Z"/></g><g id="map_deco_7-8" data-name="map_deco_7"><path class="cls-1" d="M592.19,138.21c2.45,1.87,4.88,2.88,7.93,1,1,.62,2,1.23,3,1.79,2,1.11,2.74,1.11,4.49-.18a8.88,8.88,0,0,1,4.05-1.77c.62.3,1.38.69,2.15,1.05a18.32,18.32,0,0,0,2.39,1.07c1.84.57,2.91,0,3.42-1.59.08-.25.14-.5.21-.77,1.33-.17,2.12.63,3.15,1,2.09.68,3.17.32,3.9-1.4a6.58,6.58,0,0,0,.26-1.18c3.15.32,5.07,2.67,8.22,3.09,0-.43,0-.67-.1-.72a39.21,39.21,0,0,0-9.69-3.94c0,.71,0,1.41,0,2.11,0,1.1-1,1.58-2.37,1.1-.73-.26-1.38-.64-2.09-.94s-1.21-.51-1.84-.73a3.47,3.47,0,0,0-.88,0c0,.68.15,1.36.14,2s-1,1.3-2,1a8.3,8.3,0,0,1-1.5-.62c-1.15-.59-2.27-1.2-3.35-1.78a9.9,9.9,0,0,0-4.63,1.85c-1.52,1.14-2.24,1.14-3.87.19-.55-.33-1-.74-1.57-1.06s-1.14-.58-1.72-.87a8.64,8.64,0,0,0-1,.31c-2.42,1.11-3.19,1-5.2-.28-.83-.55-1.33-1.48-2.56-1.55-1.12.52-.62,1.35-.86,2a1.75,1.75,0,0,1-2.31,1.09,12.43,12.43,0,0,1-2.68-1.12c-.85-.45-1.61-1-2.43-1.5a3.2,3.2,0,0,0-.8-.18c-1.2.64-2,2-3.84,1.92-1.44,0-2.86-.33-4.47-.53,3.44,2.32,4.82,2.32,9,0,.48.28,1,.58,1.54.9.36.22.67.5,1,.71a6.61,6.61,0,0,0,4.21.92C591.15,140.47,591.45,139.39,592.19,138.21Z"/><path class="cls-1" d="M573.42,158.92a12.8,12.8,0,0,0-1.22.57c-2.1,1.35-4.46,1.3-6.86.73-1.62-.38-3.19-.93-4.76-1.4-.52.57.09.67.43.81a33.91,33.91,0,0,0,4.3,1.68c2.84.73,5.68.8,8.08-1,.9.26,1.68.42,2.38.7a3.78,3.78,0,0,0,4.07-.49c.4-.32.74-.68,1.23-1.13,1.07.59,2,1.11,2.92,1.6a30.33,30.33,0,0,0,2.94,1.38,4.27,4.27,0,0,0,4.18-.32,16.63,16.63,0,0,1,1.57-.83l1.85,1.07c.56.32,1.09.67,1.68.94,2.49,1.13,4.49.76,6.23-1.13.26-.29.48-.59.75-.92,1.43.16,2.13,1.09,3.18,1.59a7.08,7.08,0,0,0,3.33,1.1c0-.37.08-.62,0-.67-1.7-.9-3.41-1.79-5.15-2.63a17.92,17.92,0,0,0-2.25-.75c-.37.53-.61.91-.89,1.28-1.4,1.85-3.22,2.14-5.41.84-.64-.38-1.17-.87-1.8-1.26s-1.11-.58-1.77-.92c-.62.4-1.16.71-1.65,1.06a4,4,0,0,1-4.15.32c-1.29-.57-2.46-1.31-3.7-2-.64-.35-1.3-.67-1.93-1a6.56,6.56,0,0,0-1,.5c-2.36,1.76-2.35,1.76-5.3.62C574.28,159.19,573.86,159.07,573.42,158.92Z"/><path class="cls-1" d="M585.55,150.32c1.44,1.84,3.78,2.51,6.34,2.63.91,0,1.85-.55,3.1-1a7.27,7.27,0,0,0,7.34-1.7c1.24.48,2.32,1,3.47,1.33,2.15.68,3.47.16,4.23-1.57.15-.33.26-.67.41-1,0-.06.18-.09.44-.22l1.4.56c.51.21,1,.45,1.52.62,3,1,4.78.66,7.06-1.29,1.56.3,2.5,1.8,4.92,1.71A31.55,31.55,0,0,0,620,147a10.83,10.83,0,0,0-.7.91c-.92,1.51-1.86,2-3.74,1.53A29.38,29.38,0,0,1,612,148.3c-.92-.34-1.81-.72-2.94-1.17-.12.92-.16,1.62-.3,2.31-.19,1-.92,1.45-2.14,1.34a8,8,0,0,1-2.24-.59,21.22,21.22,0,0,1-2.31-1.34,8.94,8.94,0,0,0-1.06.65c-2.27,2-3.44,2.16-6.55,1-.21,0-.52,0-.61.14a3.74,3.74,0,0,1-4.23.92c-1.37-.41-2.78-.77-4.17-1.15Z"/><path class="cls-1" d="M544,144.43a7,7,0,0,0,1.15.95,22.84,22.84,0,0,0,7.41,2.07c2.51.35,4.54-.27,5.83-2.07.33-.46.63-.93,1-1.53.85.23,1.58.4,2.29.62a5,5,0,0,0,5-.78,2.7,2.7,0,0,1,.5-.37c.07,0,.22,0,.49,0,.7.44,1.47,1,2.3,1.43,2.45,1.41,3.5,1.36,6.14-.32,2.41.1,4.42,1.53,7.19,1.95-1.58-1.62-3.87-2.47-7.94-3.15a1.6,1.6,0,0,0-.31.1c-.72.4-.92,1.27-2.07,1.28a4.7,4.7,0,0,1-2.82-.87c-1-.74-1.84-1.59-2.93-2.55-.68.63-1.11,1-1.5,1.38a3.26,3.26,0,0,1-3.87.8c-.94-.33-1.86-.68-2.79-1a2.29,2.29,0,0,0-.54,0c-.28.47-.61,1-.95,1.57-1.31,2.13-2.91,2.83-5.8,2.29-2.11-.4-4.16-1-6.24-1.5-.54-.13-1.09-.2-1.64-.29Z"/><path class="cls-1" d="M631.52,159.05c-2.18-.25-4.08.09-5.73-.76-1.5-.79-3.11-1.47-4.64-2.18-2.27,2.16-2.27,2.16-5.75,2.43-.33.61.3.8.79.86,2.24.3,4.07-.22,5.32-2l4.64,1.89a6.88,6.88,0,0,0,4.3.57C630.77,159.83,631,159.49,631.52,159.05Z"/><path class="cls-1" d="M585.49,150.37c-.12-.14-.2-.33-.37-.39s-.33.12-.5.2c.09,0,.18.14.27.15s.44,0,.66,0Z"/></g><g id="map_deco_7-9" data-name="map_deco_7"><path class="cls-1" d="M816,182c1.83,1.49,3.65,2.3,5.92.82.79.49,1.52,1,2.28,1.43,1.48.88,2.05.88,3.35-.15a6.47,6.47,0,0,1,3-1.41l1.6.84a14.65,14.65,0,0,0,1.79.85c1.37.45,2.17,0,2.55-1.27.06-.2.11-.4.16-.61,1-.14,1.59.5,2.35.76,1.56.54,2.37.26,2.92-1.12a6.7,6.7,0,0,0,.19-.94c2.35.26,3.78,2.14,6.13,2.47,0-.34,0-.53-.07-.58a28.47,28.47,0,0,0-7.23-3.14c0,.57,0,1.13,0,1.68,0,.88-.77,1.27-1.77.88-.54-.2-1-.51-1.55-.75s-.91-.41-1.38-.58a2.28,2.28,0,0,0-.66,0c0,.54.11,1.08.11,1.62a1.09,1.09,0,0,1-1.46.83,6.32,6.32,0,0,1-1.13-.49c-.85-.47-1.69-1-2.49-1.42a6.94,6.94,0,0,0-3.46,1.47c-1.14.91-1.68.91-2.9.15-.41-.26-.75-.58-1.16-.84s-.86-.46-1.29-.7c-.29.1-.54.15-.75.25-1.81.89-2.38.83-3.88-.22-.62-.44-1-1.18-1.91-1.24-.84.42-.46,1.08-.64,1.6a1.29,1.29,0,0,1-1.72.87,8.88,8.88,0,0,1-2-.9c-.64-.36-1.2-.8-1.81-1.19a2.55,2.55,0,0,0-.6-.15c-.89.52-1.53,1.58-2.87,1.54-1.07,0-2.13-.27-3.34-.43,2.58,1.86,3.6,1.85,6.76,0,.35.22.76.46,1.15.72s.49.39.77.56a4.69,4.69,0,0,0,3.14.74C815.18,183.75,815.4,182.9,816,182Z"/><path class="cls-1" d="M801.94,198.48a8.58,8.58,0,0,0-.91.45,6,6,0,0,1-5.12.59c-1.22-.31-2.38-.75-3.56-1.12-.39.45.07.53.32.64a23.65,23.65,0,0,0,3.21,1.34c2.12.59,4.25.64,6-.77a17.25,17.25,0,0,1,1.78.56,2.68,2.68,0,0,0,3-.39c.3-.26.56-.54.92-.9.8.46,1.47.89,2.18,1.27a20.52,20.52,0,0,0,2.2,1.1,3,3,0,0,0,3.12-.25,11.39,11.39,0,0,1,1.17-.66l1.38.85a13.48,13.48,0,0,0,1.26.75,3.48,3.48,0,0,0,4.64-.9c.2-.23.37-.47.57-.74,1.07.14,1.59.88,2.37,1.28a5,5,0,0,0,2.49.87c0-.29.06-.49,0-.53-1.27-.72-2.54-1.43-3.85-2.1a13.27,13.27,0,0,0-1.67-.6c-.28.42-.46.73-.67,1-1,1.48-2.4,1.71-4,.67-.48-.3-.88-.69-1.34-1s-.83-.47-1.32-.74c-.47.32-.87.57-1.24.85a2.83,2.83,0,0,1-3.1.26c-1-.46-1.84-1.05-2.76-1.57-.48-.28-1-.53-1.44-.79a5.26,5.26,0,0,0-.75.41c-1.76,1.4-1.75,1.4-4,.49C802.58,198.69,802.27,198.6,801.94,198.48Z"/><path class="cls-1" d="M811,191.61a5.87,5.87,0,0,0,4.74,2.1,7.85,7.85,0,0,0,2.32-.76,5.18,5.18,0,0,0,5.48-1.36c.92.38,1.73.78,2.59,1.06,1.6.54,2.59.13,3.16-1.25.1-.26.19-.53.3-.79,0-.05.13-.08.33-.18l1,.45c.38.17.75.36,1.14.49,2.24.78,3.56.53,5.27-1,1.16.24,1.87,1.43,3.68,1.36a22.56,22.56,0,0,0-4.36-2.73c-.21.29-.39.5-.52.72a2.14,2.14,0,0,1-2.79,1.22,20.07,20.07,0,0,1-2.6-.92c-.68-.27-1.34-.57-2.19-.93-.09.74-.12,1.3-.22,1.84a1.3,1.3,0,0,1-1.61,1.07,5.2,5.2,0,0,1-1.66-.47,16.18,16.18,0,0,1-1.73-1.06,5.69,5.69,0,0,0-.79.51c-1.7,1.58-2.57,1.72-4.89.76-.16,0-.39,0-.46.12a2.66,2.66,0,0,1-3.15.74c-1-.34-2.08-.62-3.12-.93Z"/><path class="cls-1" d="M780,186.91a4.78,4.78,0,0,0,.86.76,15.92,15.92,0,0,0,5.53,1.65,4.09,4.09,0,0,0,4.35-1.65c.25-.36.47-.74.77-1.22.63.18,1.18.32,1.71.5a3.52,3.52,0,0,0,3.75-.63,2.16,2.16,0,0,1,.37-.29,1.41,1.41,0,0,1,.37,0c.52.35,1.1.76,1.71,1.14,1.83,1.13,2.62,1.09,4.59-.26,1.8.09,3.3,1.23,5.37,1.56-1.18-1.29-2.89-2-5.93-2.51a.9.9,0,0,0-.23.08c-.54.31-.69,1-1.55,1a3.28,3.28,0,0,1-2.1-.7c-.75-.58-1.38-1.27-2.19-2-.51.5-.83.79-1.12,1.1a2.32,2.32,0,0,1-2.89.64l-2.08-.81a2.19,2.19,0,0,0-.41,0c-.21.38-.45.82-.71,1.26-1,1.7-2.17,2.25-4.33,1.82-1.57-.31-3.1-.8-4.66-1.2-.4-.1-.81-.15-1.22-.23Z"/><path class="cls-1" d="M845.32,198.58c-1.63-.19-3.05.08-4.28-.61s-2.32-1.17-3.47-1.74c-1.69,1.73-1.69,1.73-4.29,1.94-.24.49.23.64.6.69a3.73,3.73,0,0,0,4-1.56l3.47,1.51a4.86,4.86,0,0,0,3.21.45C844.76,199.2,844.92,198.93,845.32,198.58Z"/><path class="cls-1" d="M811,191.65c-.09-.1-.15-.26-.28-.31s-.24.1-.37.16c.07,0,.13.12.21.12a2.57,2.57,0,0,0,.48,0Z"/></g><g id="map_deco_7-10" data-name="map_deco_7"><path class="cls-1" d="M155.94,16.74c-1.45,1.18-2.89,1.82-4.7.64-.62.4-1.21.78-1.81,1.14-1.17.7-1.63.7-2.66-.12a5.19,5.19,0,0,0-2.41-1.12c-.36.19-.81.44-1.27.67a10.81,10.81,0,0,1-1.42.67c-1.09.37-1.73,0-2-1,0-.16-.08-.32-.12-.49-.79-.11-1.27.4-1.87.61-1.24.43-1.89.2-2.32-.89a4.94,4.94,0,0,1-.15-.75c-1.87.2-3,1.7-4.88,2,0-.27,0-.42.06-.46a22.83,22.83,0,0,1,5.75-2.5c0,.46,0,.9,0,1.34,0,.7.61,1,1.41.7.43-.16.82-.4,1.23-.6s.72-.32,1.1-.46a2,2,0,0,1,.52,0c0,.43-.09.86-.08,1.3s.6.82,1.16.65a4.71,4.71,0,0,0,.89-.39c.68-.37,1.35-.76,2-1.13a5.52,5.52,0,0,1,2.74,1.18,1.58,1.58,0,0,0,2.3.11c.33-.2.6-.46.93-.67s.68-.36,1-.55c.22.08.42.12.59.2,1.43.7,1.89.66,3.08-.18.49-.35.79-.94,1.52-1,.67.33.37.85.51,1.27a1,1,0,0,0,1.37.69,7.57,7.57,0,0,0,1.59-.71c.51-.29.95-.64,1.44-1a1.56,1.56,0,0,1,.48-.12c.71.41,1.21,1.26,2.28,1.22.85,0,1.69-.21,2.65-.34-2,1.48-2.86,1.47-5.37,0-.28.17-.6.36-.91.57s-.39.31-.61.45a3.74,3.74,0,0,1-2.5.58C156.56,18.17,156.38,17.48,155.94,16.74Z"/><path class="cls-1" d="M167.08,29.87a6,6,0,0,1,.72.36,4.81,4.81,0,0,0,4.07.46c1-.24,1.9-.59,2.83-.89.31.37,0,.43-.25.52a19.58,19.58,0,0,1-2.55,1.06,5.14,5.14,0,0,1-4.8-.61c-.54.17-1,.26-1.41.44a2.12,2.12,0,0,1-2.42-.31c-.23-.2-.44-.43-.73-.72-.63.38-1.17.71-1.73,1a15.83,15.83,0,0,1-1.75.87,2.39,2.39,0,0,1-2.48-.2,9.9,9.9,0,0,0-.93-.53l-1.1.68a10,10,0,0,1-1,.6,2.77,2.77,0,0,1-3.69-.72c-.16-.18-.29-.37-.45-.58-.85.1-1.27.69-1.89,1a4,4,0,0,1-2,.7c0-.24-.05-.4,0-.43,1-.57,2-1.14,3.06-1.67a11.25,11.25,0,0,1,1.33-.47c.22.33.36.58.53.81a2.1,2.1,0,0,0,3.21.53c.38-.24.7-.55,1.07-.8s.66-.37,1.05-.58c.37.25.69.45,1,.68a2.25,2.25,0,0,0,2.46.2c.77-.37,1.46-.83,2.19-1.25l1.15-.62a4.79,4.79,0,0,1,.59.32c1.4,1.11,1.4,1.11,3.15.39C166.57,30,166.82,30,167.08,29.87Z"/><path class="cls-1" d="M159.89,24.41a4.69,4.69,0,0,1-3.77,1.67,6,6,0,0,1-1.84-.61,4.09,4.09,0,0,1-4.35-1.08c-.74.31-1.38.62-2.06.85-1.28.43-2.06.1-2.51-1-.09-.2-.15-.42-.25-.63,0,0-.1-.05-.26-.14l-.82.36c-.31.13-.6.29-.91.39a3.56,3.56,0,0,1-4.19-.81c-.92.19-1.48,1.14-2.92,1.08a17.56,17.56,0,0,1,3.47-2.17,6.46,6.46,0,0,1,.41.58,1.7,1.7,0,0,0,2.22,1,16.8,16.8,0,0,0,2.06-.73c.54-.21,1.07-.45,1.74-.74.07.59.1,1,.18,1.47a1,1,0,0,0,1.27.84,4.05,4.05,0,0,0,1.33-.37,14.54,14.54,0,0,0,1.37-.84,3.81,3.81,0,0,1,.63.41c1.35,1.25,2,1.36,3.88.6.13,0,.31,0,.37.09a2.11,2.11,0,0,0,2.5.59c.82-.27,1.65-.49,2.48-.73Z"/><path class="cls-1" d="M184.55,20.68a4.3,4.3,0,0,1-.68.6,12.62,12.62,0,0,1-4.4,1.31A3.25,3.25,0,0,1,176,21.28c-.19-.29-.37-.59-.61-1-.5.15-.94.25-1.36.4a2.8,2.8,0,0,1-3-.5,1.63,1.63,0,0,0-.29-.23c-.05,0-.13,0-.29,0-.42.28-.88.61-1.37.91-1.45.9-2.07.87-3.64-.2-1.43.06-2.63,1-4.27,1.24.94-1,2.3-1.57,4.71-2a1.39,1.39,0,0,1,.19.06c.43.25.55.81,1.23.81a2.6,2.6,0,0,0,1.67-.55c.59-.46,1.09-1,1.74-1.61.4.39.65.62.89.87a1.85,1.85,0,0,0,2.3.51l1.65-.64s.13,0,.32,0l.56,1a2.78,2.78,0,0,0,3.44,1.45c1.26-.26,2.47-.64,3.71-1,.32-.08.65-.12,1-.18Z"/><path class="cls-1" d="M132.61,30c1.29-.15,2.42.06,3.4-.48s1.84-.93,2.75-1.39c1.35,1.38,1.35,1.38,3.41,1.55.2.38-.17.5-.47.54a3,3,0,0,1-3.15-1.24l-2.75,1.2a3.9,3.9,0,0,1-2.56.36C133.05,30.44,132.92,30.23,132.61,30Z"/><path class="cls-1" d="M159.92,24.45c.07-.09.12-.21.22-.25s.19.08.29.12c-.05,0-.1.1-.16.1a2.44,2.44,0,0,1-.38,0Z"/></g><g id="map_deco_7-11" data-name="map_deco_7"><path class="cls-1" d="M76.07,218.78c2.49,2,5,3.13,8.07,1.11,1.07.68,2.07,1.33,3.1,2,2,1.2,2.8,1.2,4.57-.2a8.81,8.81,0,0,1,4.13-1.92c.63.32,1.4.74,2.19,1.14a19.34,19.34,0,0,0,2.43,1.16c1.87.62,3,0,3.48-1.73.08-.27.14-.55.21-.84,1.35-.18,2.17.69,3.21,1.05,2.13.73,3.23.34,4-1.53a7.64,7.64,0,0,0,.27-1.28c3.21.35,5.16,2.91,8.36,3.36,0-.46,0-.73-.1-.78-4.27-2.39-7.36-3.73-9.86-4.29,0,.77,0,1.54,0,2.29,0,1.2-1.06,1.73-2.42,1.21-.74-.29-1.4-.7-2.12-1s-1.23-.55-1.87-.79a3.18,3.18,0,0,0-.9,0c0,.74.15,1.48.14,2.22a1.48,1.48,0,0,1-2,1.13,8.06,8.06,0,0,1-1.53-.67c-1.17-.64-2.31-1.31-3.41-1.94a9.58,9.58,0,0,0-4.71,2c-1.55,1.25-2.29,1.24-4,.2-.56-.35-1-.79-1.59-1.14s-1.16-.63-1.76-.95a9.12,9.12,0,0,0-1,.34c-2.47,1.2-3.24,1.13-5.29-.31-.85-.59-1.36-1.61-2.61-1.68-1.14.56-.63,1.47-.87,2.17a1.76,1.76,0,0,1-2.35,1.19A12.17,12.17,0,0,1,69.13,219c-.87-.49-1.64-1.1-2.47-1.63a3.34,3.34,0,0,0-.82-.2c-1.22.7-2.09,2.16-3.91,2.1-1.46-.06-2.91-.37-4.55-.59,3.51,2.53,4.91,2.52,9.2,0,.49.3,1,.63,1.57,1,.37.24.68.54,1,.77a6.36,6.36,0,0,0,4.28,1C75,221.24,75.32,220.06,76.07,218.78Z"/><path class="cls-1" d="M57,241.31a11.2,11.2,0,0,0-1.25.62c-2.13,1.46-4.54,1.41-7,.79-1.65-.41-3.24-1-4.85-1.52-.53.62.1.73.44.88a32.74,32.74,0,0,0,4.37,1.82c2.9.81,5.79.88,8.23-1a25.33,25.33,0,0,1,2.42.75,3.64,3.64,0,0,0,4.15-.53c.4-.35.76-.74,1.25-1.23,1.09.64,2,1.21,3,1.74a28,28,0,0,0,3,1.5,4.12,4.12,0,0,0,4.25-.34,16.26,16.26,0,0,1,1.6-.91L78.46,245c.56.34,1.1.73,1.7,1,2.54,1.22,4.57.82,6.34-1.23.26-.31.49-.64.76-1,1.46.18,2.17,1.19,3.24,1.73a7,7,0,0,0,3.39,1.2c0-.4.09-.68,0-.73-1.73-1-3.47-1.95-5.25-2.87a19.1,19.1,0,0,0-2.28-.81c-.37.57-.62,1-.91,1.4-1.42,2-3.27,2.32-5.51.9-.65-.41-1.19-.94-1.83-1.36s-1.12-.64-1.8-1c-.63.43-1.18.78-1.68,1.16a3.84,3.84,0,0,1-4.22.35c-1.32-.63-2.51-1.43-3.77-2.14-.65-.37-1.32-.72-2-1.07a7.91,7.91,0,0,0-1,.55c-2.4,1.92-2.4,1.92-5.4.67C57.84,241.6,57.41,241.47,57,241.31Z"/><path class="cls-1" d="M69.31,232c1.47,2,3.85,2.74,6.46,2.86.91,0,1.88-.6,3.15-1a7.06,7.06,0,0,0,7.47-1.85c1.26.52,2.36,1.06,3.53,1.45,2.19.73,3.54.17,4.31-1.71.15-.36.26-.73.42-1.08,0-.07.18-.1.44-.24l1.43.61a16.45,16.45,0,0,0,1.55.67c3.05,1.06,4.86.72,7.18-1.39,1.59.32,2.55,2,5,1.85a31.06,31.06,0,0,0-5.94-3.72,11.5,11.5,0,0,0-.71,1c-.93,1.63-1.89,2.12-3.8,1.66a29.18,29.18,0,0,1-3.54-1.26c-.93-.36-1.84-.78-3-1.27-.12,1-.16,1.77-.3,2.52a1.77,1.77,0,0,1-2.19,1.45,7.31,7.31,0,0,1-2.27-.64,21.89,21.89,0,0,1-2.36-1.45,8.79,8.79,0,0,0-1.08.7c-2.31,2.15-3.5,2.35-6.66,1-.21.05-.53,0-.62.15a3.64,3.64,0,0,1-4.3,1c-1.4-.45-2.83-.84-4.25-1.25Z"/><path class="cls-1" d="M27,225.54a6.36,6.36,0,0,0,1.17,1,21.87,21.87,0,0,0,7.54,2.26c2.55.38,4.62-.3,5.93-2.25.34-.5.64-1,1.06-1.66.85.24,1.6.43,2.33.67a4.78,4.78,0,0,0,5.1-.85,3.33,3.33,0,0,1,.51-.4c.08-.05.23,0,.5,0,.71.48,1.5,1,2.34,1.56,2.49,1.54,3.56,1.48,6.25-.35,2.46.11,4.5,1.67,7.32,2.13-1.61-1.76-3.94-2.7-8.08-3.43a1.51,1.51,0,0,0-.32.11c-.73.43-.94,1.38-2.11,1.39a4.53,4.53,0,0,1-2.87-1c-1-.8-1.87-1.73-3-2.77-.69.68-1.12,1.08-1.52,1.5a3.19,3.19,0,0,1-4,.88c-.95-.37-1.88-.75-2.83-1.11a2.18,2.18,0,0,0-.56.06c-.28.51-.62,1.11-1,1.71-1.33,2.32-3,3.07-5.9,2.48-2.15-.43-4.24-1.09-6.36-1.63-.54-.14-1.11-.21-1.67-.32Z"/><path class="cls-1" d="M116.1,241.45c-2.21-.27-4.16.1-5.83-.83s-3.17-1.6-4.73-2.37c-2.31,2.35-2.31,2.35-5.85,2.64-.33.67.31.87.81.94,2.27.32,4.14-.24,5.41-2.13l4.72,2.06a6.68,6.68,0,0,0,4.38.62C115.34,242.29,115.56,241.92,116.1,241.45Z"/><path class="cls-1" d="M69.25,232c-.12-.15-.21-.36-.38-.43s-.33.14-.5.22c.09.06.17.15.27.16a5,5,0,0,0,.67,0Z"/></g></g></g></g></svg>