<svg xmlns="http://www.w3.org/2000/svg" viewBox="0 0 144.92 315.29"><defs><style>.cls-1{fill:#fff;opacity:0.8;}.cls-2{opacity:0.9;}.cls-3{fill:#f9c138;}.cls-4{fill:#ffe090;opacity:0.5;}</style></defs><g id="圖層_2" data-name="圖層 2"><g id="Layer_1" data-name="Layer 1"><path class="cls-1" d="M33.66,307.41c3,3.41,9,5.46,13.61,4.13.51.22,1,.42,1.51.6,3.56,1.31,7.44,1.17,10.55-1.26a7,7,0,0,0,1.37-.49l.24-.13a9,9,0,0,0,4.62-1.39,9.27,9.27,0,0,0,2.56-1.27c1.43.61,2.86,1.08,4.12,1.48a26.7,26.7,0,0,0,7.19,1.58,9.16,9.16,0,0,0,8.06-2l.9-.36a11.21,11.21,0,0,0,6.44,3.33c.23.08.45.16.68.22,3.5.91,7.87.33,9.91-3.59.26-.07.51-.15.77-.24a9.62,9.62,0,0,0,1.28,1c6.75,4.43,15.72,1.22,19.65-6.44a22.72,22.72,0,0,0,2.33-10c3.2-1,2.3-6.52-.4-7.69l-.72-.3a20.18,20.18,0,0,0-.75-2c-1.2-2.69-3.43-3-5.74-3.82-1.86-.65-3.44.72-4.1,2.5a57.07,57.07,0,0,0-18.93-.9A3.62,3.62,0,0,0,96.17,282l-.12-.06a2.67,2.67,0,0,0-3.31.86,12.74,12.74,0,0,0-1.59-.5c-2.44-.6-5.05-.59-7.07,1.31A7.47,7.47,0,0,0,81,282.18a5.54,5.54,0,0,0-2.89.16,15.89,15.89,0,0,0-1.92-.49c-4.26-.78-8,.29-12.1,1.55-4.67,1.45-9.53.43-14.26-.12-4-.46-9.06-2-12.74.51-3.14,2.19-4.56,6.72-5.49,10.64C30.52,298.94,30.63,304,33.66,307.41Zm86.74-9.76a5.11,5.11,0,0,0,.75-.18l.37-.16.08,0a10.2,10.2,0,0,1-.67,1.46A10.79,10.79,0,0,0,120.4,297.65Zm-57.54-5-.29.24a3.7,3.7,0,0,0-2,1.87,9.79,9.79,0,0,0-1.64-1.13,11.69,11.69,0,0,0-1.15-.73A24,24,0,0,0,62.86,292.61ZM50,292.09a6.66,6.66,0,0,0-1.35.7,9.88,9.88,0,0,0-1.32-1Z"/><path class="cls-1" d="M137.11,9.21c-3.62-3.58-9-5.8-13.58-4.75l-.45-.2c-2.76-1.11-7.16-1.84-10.64-.16a8.75,8.75,0,0,0-5.19,0L107.14,4c-4.1-2.42-8.9-3.25-12.87.36a17.16,17.16,0,0,0-4.2,6.4l-.24-.18a23.79,23.79,0,0,0-5.09-2.84c-5.81-3.13-12.43-3.08-17.82.82C60.33,2.25,51,2.32,44.32,4.79a13.69,13.69,0,0,0-4.72,3,8.58,8.58,0,0,0-7.2.4c-2.73,1.48-5,4.73-6.28,8.88-6.71-7.3-16.06-7.11-21.43,5C1,30.52.59,42,4.26,50.69s10.4,13.8,16.47,15.19c4.17,1,8.66-.76,11.84-5.27,3,2,6.19,2.62,9.12,1.14s5.05-5,6.27-9.46a11.81,11.81,0,0,0,1.27.57c4.22,7.71,11.25,11.19,17,7.65,4.39,3.14,9.65,1.9,13.35-2.94,5.28,6.55,11.77,9.28,16.88.16a10.9,10.9,0,0,0,3.7-1.13,22.07,22.07,0,0,0,2.86.88,13,13,0,0,0,2.48.3c.15.16.3.34.46.5,6.7,6.82,16.85,10,22.68-.88a14.76,14.76,0,0,0,4.49-5.73,8.91,8.91,0,0,0,2.8-.54c2.27-.83,3.83-5,3.86-8.79,0-.82,0-1.63,0-2.44a23,23,0,0,0,3.52-9.68C144.5,21.41,141.39,13.44,137.11,9.21Z"/><g class="cls-2"><path class="cls-3" d="M125,54.69l2.67,1.7.55-.38.14-.1-2.9-1.84A4.7,4.7,0,0,0,125,54.69Z"/><path class="cls-3" d="M131.61,79.94c-.44-3.66-1.91,0-2.73.87-1.66,1.84-2.68.81-2.23-3.61.34-3.21,1.06-6.55,1.11-9.61,0-1,.75-2.71.16-2.94s-1-.7-1.7,1.58c-.25.86-.72,1.2-.54.09a19.23,19.23,0,0,0,.22-1.94c.31.11.63.08.73-.29.38-1.32.24-2-.51-2.53.18-.65.44-1.37.15-1.44s-.51.4-.79,1.07a1,1,0,0,0-.18-.08,2.13,2.13,0,0,0-1.58-.2c-.55.17-.83-.25-.9-1,0-.25,0-.49,0-.74.16-.48.34-.94.53-1.4a1.22,1.22,0,0,1,.25.29c.19.28.4.65.66.43a1.33,1.33,0,0,0,.31-.57,3.58,3.58,0,0,0,1.89-.75l-1.63-1c0-.33,0-.66-.05-1l0-.08a2.58,2.58,0,0,1,.2-.41l-.12-.07-.15.3a2.55,2.55,0,0,0-.09-.45l.24.15c.11-.22.22-.46.32-.71l-2.79-1.77-.06.15c-.44-.39-.83-.42-1.17,0l-1.47-.93a7.63,7.63,0,0,1-.06,1.35,1,1,0,0,1,0,.17l.48.3a1.86,1.86,0,0,0-.31,1.83,2.07,2.07,0,0,1-1.1,2.08c-.45.28-.81,0-.86-.82l0,0a3,3,0,0,1,.85-1.62,2.44,2.44,0,0,0,1-1.75L115,50a2.94,2.94,0,0,1-.45.65,9.13,9.13,0,0,0-2.33,5.8c-.11,1.29-.41,2.88-.59,4.36-.42-.8-.72-.14-1-.2-.68-.11-1,.51-1.3.85-.63.68-1.31.06-1.93.08-1.54,0-2.87,1.11-4.5.74-.76-.17-1.5.57-2.34.1-.78,1.48-2.07.59-3.13.76a2,2,0,0,1-2.09-.57c-.52-.6-.86-.65-1,.41s-1.13.74-1.72,1c-.41.16-.9-.47-1-1.37s-.86-1-1.15-.79a3.44,3.44,0,0,1-2.08.78,18.78,18.78,0,0,0-3.22.46c-1.28.38-2.55.92-3.85,1.19-.7.15-1.09.15-.42,1.23a.69.69,0,0,1,.05.75.27.27,0,0,1-.3.09.54.54,0,0,1-.28-.64.79.79,0,0,0-.05-.65,5,5,0,0,1-1-2.85.74.74,0,0,0-.54-.7c-.15,0-.26.17-.25.36.07,1.07-.66,1.54-.77,2.49,0,.38-.3.63-.54.59-.86-.18-1.44,1.14-2.44.51-.39-.25-.9,0-1.1-.86,0-.06-.19-.09-.29-.09a.48.48,0,0,0,0,.27c.1.3.59.57.14.9s-.64-.12-.87-.53c-.35-.63-.74-.53-1,0-.61,1.53-1.69,1.54-2.74,1.65-.5,0-1,.19-1.42-.42-.61-.81-4.38-.57-4.91.25a.42.42,0,0,0,0,.1c-.21.64-1,.6-1,1,0,.66.78.24,1.1.82.19.36.49.68.38,1.13s-.46.26-.72.25a5.37,5.37,0,0,1-1.5-.07c-.41-.14-1.05.49-1.18-.3-.1-.58.54-.88,1-1.09.08,0,.14-.19.21-.29s-.13-.23-.17-.22c-.73.19-1.44-.95-2.2-.11a.78.78,0,0,1-1.29-.3c-.55-1-1.27-1.3-2-1.14a8.83,8.83,0,0,1-3.16-.08c-1.18-.14-2.41.08-3.55,0a24.69,24.69,0,0,1-3.52-.2c-2-.5-4.12-.27-6.19-.44-1.14-.09-2.39-.27-3.33.35S34,67,33.12,66c-.27-.35-.79-.39-.86-1.06a1.38,1.38,0,0,1,.61-1.4c.21-.13.51-.4.29-.65a1.29,1.29,0,0,0-1.79-.13c-.38.22-.28.88,0,1.36a1.85,1.85,0,0,1,.16,1.46c-.14.52-.5.36-.79.35-.6,0-1.21,0-1.81,0-2.19.15-4.59-.72-6.31.35-.12.07-.25-.07-.37-.06s-.67-.71-.58.69c0,.28-.18.45-.33.42a1.65,1.65,0,0,1-.9-.31,2.35,2.35,0,0,1-.39-1.07,2.51,2.51,0,0,1,.18-1.11c.16-.49.28-.38.39-.27.27.27.53-.36.77-.8a.93.93,0,0,0,0-.39c-.16-.33-.39,0-.57.06-.69.34-1.4,1.26-1.71,1.14a3.93,3.93,0,0,0-.2.4c-.62,1.56-.7,1.34-.88,1.38s-.7.18-.81,0,0-.15.38-.47l.4-.36c-.14.24.56-.48.68-.61a3.68,3.68,0,0,0,.41-.55.64.64,0,0,1,.1-.14l-.07.08a8.18,8.18,0,0,1-2.55,2.2l-.19.1-.17.07,0,0h0l-.07,0h0l-.05,0-.19.07a12.82,12.82,0,0,0-1.68.62c-.65.32-1,.9-2.09,1.1-.2,0-.19.23-.27.37A2.92,2.92,0,0,1,10,70.4c-.66.18-1-.58-1.58-.09-.07.06-.15.1-.22.15,1.31,8,1,16.8,3.87,23.89a3.24,3.24,0,0,1,0,2.47c.26.75.52,1.27.9.92.58-.53,1,1.24,1.5,2.2.61,1.25.27,1.54,0,1.9s-.61,1-.13,2.56,1,1.71,1.51,2a2,2,0,0,1,1.14,2,6.58,6.58,0,0,0,.19,2c.13.7.33,1.43.53,2.15a9.35,9.35,0,0,1,.53,3.95,10.11,10.11,0,0,1,1.21,4.2c.09,1.33,0,2.6.13,3.94s.22,2.62,1.06,2.61c.66,0,1.09,1.49,1.14,2.91a56.16,56.16,0,0,0,.88,7.62c.19,1.19.49,2,1,2.26,1.4.88,1.5,4.72,2.29,7,.21.61,0,1.68-.42,1.69-.61,0-.55.5,0,1.74a22,22,0,0,1,1.09,5.33c.51,3.39-.43,6.34.39,9.7A12.07,12.07,0,0,1,27.3,168c0,1,0,2,.1,2.71s.32,1.28.82,1.37a8.21,8.21,0,0,0-.67,4.44,74.65,74.65,0,0,1,0,8.85,26.49,26.49,0,0,0,.21,4.66,20.42,20.42,0,0,1-.55,8.06c-.11.47-.2.94-.29,1.43s-.2,1-.29,1.46a25.16,25.16,0,0,0-.31,3.12c0,1.19-.06,2.44-.12,3.67,0,.61-.07,1.22-.14,1.81s-.18,1.17-.3,1.72q-.7,3.22-1.24,6.5c-.16,1.1-.37,2.18-.6,3.26l-.64,3.26-.63,3.25-.33,1.64L22,231c-.54,2.39-1.11,4.92-1.66,7.6a43.31,43.31,0,0,0-.77,7.53c-.09,2.65,0,5.52.15,8.61a32.11,32.11,0,0,0,1.7,9.07A30.07,30.07,0,0,0,23,267.61c.33.63.65,1.26,1,1.86s.76,1.19,1.16,1.77a29.57,29.57,0,0,0,5.59,6.12,35.88,35.88,0,0,0,6.2,4.15,56.73,56.73,0,0,0,5.93,2.67c.38.14.92.32,1.39.45a4,4,0,0,0,1,.18c2.51-.33,5.66.66,7.2,1.14a20.59,20.59,0,0,0,5.09.94c1.66.11,3.31.09,5,.1a17.13,17.13,0,0,1,2,0,20.62,20.62,0,0,0,9.6-.49,8.19,8.19,0,0,1,4.6-.27,5.75,5.75,0,0,0,3.41-.16c1.68-1.07,3.12-.67,4.66-.7a26.46,26.46,0,0,0,8.56-1.62c2.69-1,4.95-2.43,5.79-3.68.39-.57.14-.72-.52-.85s-.79-.75.67-1.45a31.29,31.29,0,0,0,6-3.94c1.92-1.57,3.87-3.34,6.1-5.56a15,15,0,0,0,1.31-1.56c.41-.58.78-1.2,1.17-1.77l.56-.83c.16-.27.33-.53.5-.77a5.11,5.11,0,0,1,1-1.14c1.38-1-.07,2.58,0,3.59a14.68,14.68,0,0,1-1.53,3c-1.21,2.06-1.82,3.23-1.2,3.54.28.13,1.3-.4,1.83-1.58.37-.78.9-1.69,1.43-2.71.28-.5.56-1,.85-1.55s.52-1.09.77-1.64a19.4,19.4,0,0,0,1.2-3.18,7.37,7.37,0,0,0,.39-2.54,5.17,5.17,0,0,1,.35-1.92c.2-.58.48-1,.78-1.1.93-.17,2-2.76,2.44-5.37.73-3.93,1.9-8.6.17-11a7.35,7.35,0,0,1-.34-3,5.74,5.74,0,0,1,.44-2.73c.29-.28.25-.71.23-1.49,0-1.94-.2-3.87-.3-5.62s-.18-3.49-.12-5.23c.09-2.56-.47-4.42-1.37-5.2a2.94,2.94,0,0,1-.91-2.33c0-2.3,0-4.7-.08-7a46.71,46.71,0,0,1,.39-6.73c.33-2.25.12-3.12-.46-4.08-.5-.8-.75-2.69-1.53-1.87-.38.41-.6-1.42-.27-2.3a6.35,6.35,0,0,0,.24-3.43c-.34-2.26-.18-3.44.72-3.54s1.55-1,1.28-4.24a58.48,58.48,0,0,1-.17-6.61c.09-2.18.32-4.31.6-6.32a37.76,37.76,0,0,0,.31-4.37c0-1.45,0-2.9,0-4.35a41.32,41.32,0,0,1,.58-8.56.9.9,0,0,0-.1-.46c-.6-.27-1.14-2-1.84,0-.85,2.39-1,1.1-1.19-1.1a46.11,46.11,0,0,1,.12-6.93,41.57,41.57,0,0,0,.13-7,2.35,2.35,0,0,1,1.2-2.56c.62-.58.7.57.59,1.92s-.23,2.73.35,2.56,1.49.53,1.94-1.38a36.78,36.78,0,0,0,.78-4.91,48.2,48.2,0,0,0,.33-5c0-1.32.49-4.5-.59-4.92-.29-.11-.09-2.77.17-4.22s.7-1.16,1-.79c.48.55.77-.3.84-1.55.16-2.66,1.35-5.41.81-7.93,0-.11-.13-.1-.21,0-.41.35-1,1.31-.95-.49a4.23,4.23,0,0,1,1-3,2.7,2.7,0,0,0,.33-1.69,1.32,1.32,0,0,0-.35-.79c-.26-.2-.93,1.61-.8-.47.11-1.68.67-1.58,1.08-2.17.6-.86,1.44-2.17.81-3.52-.93-2-.32-4.28.61-6.78.41-1.08,1-2,.45-3-.26-.43.05-1.32.24-2A5.64,5.64,0,0,0,131.61,79.94ZM13.93,74.09a9.34,9.34,0,0,1-1.75-.67c-.12-.32-.51-.28-.39-.62s.5-.37.75-.49c1.17-.52,2-.15,2,1C14.52,73.85,14.39,74.19,13.93,74.09Zm5.52-5.25c-.14.65-.35.3-.54.39-.13-.07-.37,0-.21-.51s.34-.57.52-.55S19.55,68.38,19.45,68.84Zm46.21,5.08c-.09.33-.2.64-.49.64a.48.48,0,0,1-.5-.51.42.42,0,0,1,.43-.52C65.33,73.49,65.54,73.55,65.66,73.92Zm5,190.23c1.33.79,1.51,1.76,4.12,1.49.46-.05.78.28.2.41a17.21,17.21,0,0,1-3.69.48c-1.38,0-.33-.55-.36-.86S70.78,264.86,70.65,264.15ZM65.45,90.08a1,1,0,0,1-1-.94c-.09-.63.36-.77.72-.85s.88-.06.93.62C66.13,89.42,66,90,65.45,90.08Zm-.77-18.71c.13,0,.25.32.09.42a1.76,1.76,0,0,1-1,.34c-.39,0-.13-.55-.16-.86s-.1-.81-.19-1.52C63.84,70.57,64,71.52,64.68,71.37Zm-1.8,2.7c.26-.31.55,0,.78.17.49.31,0,.61,0,.9a3.25,3.25,0,0,1-.08.45c-.06.23,0,.66-.27.57s-.11-.4-.08-.75a1.74,1.74,0,0,0-.12-.42C62.92,74.7,62.5,74.51,62.88,74.07Zm-2-2.59a3.17,3.17,0,0,0,.54-.21c.67-.1,1.15.06,1.24.84s-.41.75-.8.83a1.34,1.34,0,0,0-.44.26c-.37.23-.77.44-1-.29S60.27,71.62,60.92,71.48Zm-2.47,2.39c.57-.24,1.16-.63,1.75-.07.31.3.51.88,1,.68,0,0,.18.18.2.3s-.09.24-.2.26c-.53.06-1,.56-1.49.5-.64.15-1-.41-1.39-1A.49.49,0,0,1,58.45,73.87Zm-3-5.05c.37.14.89,0,1.05.68.09.41-.23.51-.55.48s-.85,0-1-.66A.4.4,0,0,1,55.47,68.82ZM56.69,79c0,.53,0,1.27-.44,1.26-.59,0-1-.48-1-.7.2-.47.26-1.23.77-1.34S56.71,78.53,56.69,79Zm-2.81-7.19a2.34,2.34,0,0,1,.66-.2,4.51,4.51,0,0,1,.71.08.57.57,0,0,1,.35.61c-.19.89-.87.35-1.27.7-.24.21-.46-.12-.57-.48S53.69,71.89,53.88,71.78Zm-.59,1.82a1.9,1.9,0,0,1,.58.05c.36.12.8.27.73.94s-.42.73-.84.49a.51.51,0,0,0-.4,0c-.44.12-.93.2-1-.62S52.83,73.59,53.29,73.6ZM55.08,84a6.21,6.21,0,0,1-1,1.3c-.32-.32-.92-.2-.91-.82,0-.88.65-1.09,1.16-1.26S55.15,83.88,55.08,84ZM50,68.41c.21.09.56-.07.59.42s-.28.51-.53.5a.5.5,0,0,1-.56-.53C49.47,68.37,49.75,68.4,50,68.41ZM46.1,83.6a4.4,4.4,0,0,1,1-.8c.13-.08.32.11.25.34-.17.53-.58.55-.9.69C46.27,83.81,46,83.68,46.1,83.6Zm-3-12.3a2.06,2.06,0,0,1,.67-.21,7.49,7.49,0,0,1,.8,0c.22,0,.49.06.52.46s-.25.44-.46.51a12.06,12.06,0,0,1-1.29.41c-.3.08-.61-.22-.7-.53S42.86,71.4,43.06,71.3ZM40.15,113c.51-.09,1,1.26,1.26,2.55s.47,2.57,0,2.63c-.6.09-.76-1.78-1.11-2.79C40.16,114.41,39.64,113.09,40.15,113ZM38,79c0,.41-.17.67-.38.57s-.74,0-.76-.52a3.56,3.56,0,0,1,.4-1.19C37.61,78.19,37.66,78.84,38,79Zm-3.32-5.16c.11-1.31,1.06-1.09,1.67-1.35s.67.52.73,1.51A1,1,0,0,1,36,75C35.57,75,34.62,75.1,34.72,73.84Zm6,102.72c.3.37,1,1,.81,1.65-.42,1.46-.19,3.35-.36,4.82-.93-.87-.85-2.92-1-4.73C40.18,177.52,40.26,176,40.75,176.56Zm2.36,43.84c.43-.35.31,1.22.28,2.06a25.11,25.11,0,0,1-.31,2.82c-.36,1.91-.47,2.6-.62,3.27-.2.89-.45,2-.82,2s-.19-1.15-.08-2c.21-1.79.4-3.57.64-5.36A5.1,5.1,0,0,1,43.11,220.4Zm-10-142L32.34,77s0,0,.06,0c.37.52.84.17,1.21.34A1.32,1.32,0,0,1,33.06,78.36Zm1.48,10.73a1.28,1.28,0,0,1,0,.21c-.17-.41-.33-.82-.49-1.23C34.42,88.17,34.53,88.58,34.54,89.09ZM39.23,196c.36,0,.66,1.12,1,1.74-.37,1.21-1,1.29-1.21,2.8-.37-.16-.56-.77-.43-1.58C38.75,197.92,38.72,196,39.23,196ZM31.54,73.58c.12-1.17.87-.43,1.24-.82.51.14,1.06.29,1.06,1.11s-.3,1.58-.87,1.46S31.36,75.18,31.54,73.58ZM40.68,249.4c0-.73.13-1.71.54-1.65s.29.93.31,1.59.1,1.57-.35,1.64S40.64,250.17,40.68,249.4ZM28.34,92.62c.18.27.36.55.54.85a17.51,17.51,0,0,1,2.25,7.84c-.09,1.28-.4,1.42-1.12-.41-1-2.55-1.92-5.17-2.92-7.35a10.93,10.93,0,0,0-.51-1.5C27.18,92.19,27.74,92.67,28.34,92.62ZM35,167.81c-.11,1.2-.44,1.49-.74,1.55s-.79-.52-1-1.89c-.07-.59,0-1.22.25-.87C34.05,167.3,34.59,166.64,35,167.81Zm-10.14-57c.18-.89.71-.62,1.45-.83-.1.11.07-.07.23-.28s.28-.11.44.39,0,.56-.1.76c-.37.87-1.42-.35-1.49,1.46,0,.33-.29.09-.42-.4A3.24,3.24,0,0,1,24.9,110.83Zm5,120.7c.17-.64.45-1.52.47-1.21a32.35,32.35,0,0,1-.12,4.1c0,.53-.35,1.23-.49.87C29.4,234.43,29.72,232.81,29.87,231.53Zm4.53,37.7A15.44,15.44,0,0,1,30,265.64c-.33-.79-.81-1.92-1.19-2.84s-.46-1.69-.16-1.69c.84,0,2.26,2.95,3.95,4.93C33.91,267.6,34.77,269.38,34.4,269.23Zm-2.94-85.52c0,2-.48,2.48-1,2.5-.72,0-.44-2-.46-2.8-.06-2.15.62-.46.87-1.16C31.3,181.92,31.47,182.42,31.46,183.71Zm-3.09-57.52a16.76,16.76,0,0,0-.48-2.51c-.31-1.2-.32-1.87.1-2s.86.7,1.08,1.92a17.15,17.15,0,0,0,.75,2.74c.3.93,1,.57.91,1.78-.06.88-.58,1.06-.77,1.35C28.69,129.39,28.68,129.11,28.37,126.19Zm8.31,131.43c-.17-.59-.15-1.07.21-1.25a.45.45,0,0,1,.52.05,1.86,1.86,0,0,1,.47.57c.24.51.57,1.18.86,1.78s.64,1,.89,1.46c.49.89,1.35,1.91.71,2.19s-1.53-.53-2.07-1.79a8,8,0,0,0-.68-1.12A7,7,0,0,1,36.68,257.62Zm7,12.05c-.38.4-.74,1.06-2.29.23-2.16-1.15-3.23-2.79-2.76-2.66,1,.2,1.68-.14,3.39.73C43.32,268.61,44,269.33,43.68,269.67Zm.51-7.13a1,1,0,0,1-.79,0,2.9,2.9,0,0,1-.84-.46c-.28-.21-.56-.43-.81-.66s-.52-.42-.76-.57a1.33,1.33,0,0,1-.63-1.46c.11-.37.36-.43.76-.13.21.18.42.39.64.57a6.78,6.78,0,0,0,.61.52,7,7,0,0,0,.71.65c.23.19.45.38.67.55C44.15,261.92,44.48,262.4,44.19,262.54Zm2.13-1.4c-.82-.45-1.87-1.07-1.75-1.79,0-.21.25-.23.5-.16a2.82,2.82,0,0,1,.75.39c.66.56,2,1,2.11,1.73C48,261.77,47.06,261.54,46.32,261.14Zm-.61-47.51c-.47.92-1.12,2.7-1.66,1.79-.4-.65-.34-1.84,0-4,.12-.63.36-1.92.6-3.23.19-1,.47-1.61.77-1.47s.28,1,.15,1.88a18,18,0,0,0,0,2.93C45.5,212.44,46.45,212.19,45.71,213.63Zm-.37-18.95c.09,2.64-.64,2.72-1.55,2.83-.69,0-.82-2.94-.67-4.63s.13-5.66,1.29-5.17c.59.26.82,1.37.92,2.73S45.3,193.4,45.34,194.68Zm.2-15c-.16,2.14-.35,4.4-1.1,4.35s-1.42-1.25-1.26-3.57c.15-2.6,0-6.54,1.51-5.89C45.77,175.09,45.17,178.22,45.54,179.72ZM39.63,72.07a.6.6,0,0,1-.39-.66c0-.33.23-.42.44-.38s.46-.2.69-.31.11-1.08.49-.51a1.71,1.71,0,0,1,.52,1.49.76.76,0,0,1-1,.65C40.27,72.3,40,72.17,39.63,72.07ZM61.3,269.22a47.83,47.83,0,0,1-5.49,0,7.06,7.06,0,0,1-4.5-1.71c-.48-.39.09-.6.71-.55,2,.15,4.23,0,6.13.77,1,.4,1.54,1,3.32,1a1.15,1.15,0,0,1,.65.35C62.2,269.23,61.72,269.23,61.3,269.22Zm3.19-1.93c-.56,0-1.11.11-1.66.17-1.37.17-2.87.27-3.38-.53s-.34-1.29,2-1.28c.87,0,1.73-.08,2-.09,2.38,0,4,.19,4.15,1S65.9,267.27,64.49,267.29Zm3.9,2.56a.91.91,0,0,0-.31-.43c-.45-.3-1.9-.51-.44-.93a5.63,5.63,0,0,1,2.75.17c1.69.28-.07.62-.35.91s-.26.3-.43.45-.16.66-1.15.58C67.75,270.52,68.18,270.2,68.39,269.85Zm4.36,14.65c-2,.12-3.44-.28-3.58-.88s1.62-.77,3-.9c1.48,0,3.38-.19,3.36.51C75.54,283.74,74.88,284.38,72.75,284.5Zm3-15.71c-.83.06-1.62,0-1.64-.43s.84-.52,1.66-.61,1.56-.08,1.89.26A2.65,2.65,0,0,1,75.72,268.79ZM70.5,79.05c-.51,0-.63-.8-.7-1.33s.15-1,.51-1,.57.55.61,1C70.81,78.24,71.13,79.08,70.5,79.05Zm1.32-5.56c-.32-.37-.78.31-.88-.23s.42-.42.62-.6a.46.46,0,0,1,.58.42C72.2,73.4,72,73.69,71.82,73.49Zm.09-2.14c-.18.08-.42.11-.52.29-.75,1.39-1.68.32-2.53.12a.62.62,0,0,1-.39-.59c0-.4.25-.32.41-.42A6.92,6.92,0,0,1,71.26,70c.39-.09.8,0,.91.71C72.18,71,72.12,71.24,71.91,71.35Zm49.47-6.79c1.07-.57,2.09-1.29,3.33-.81-.36,1.11-.79,2-1.21,3a3,3,0,0,0-1.17-.42c-.38,0-.45-1.16-1-1.32Zm-1,6.36.09-.55a3.06,3.06,0,0,1,.31.7s0,.06,0,.09a4.39,4.39,0,0,0-.25.66C120.4,72.15,120.24,71.56,120.34,70.92Zm-1.1,5.32a3.33,3.33,0,0,1,.64-1.73c.19.14.34.32.29.41-.23.45-.1,1.19-.54,1.44-.12.07-.26,0-.4,0A.15.15,0,0,0,119.24,76.24Zm-.1.76a.45.45,0,0,1,.11.32c.1.45,0,.66-.25.62C119,77.62,119.09,77.31,119.14,77Zm-2.06-9.9a8.41,8.41,0,0,1,.25-.93.87.87,0,0,1,.31.66c0,.44.33,1.17-.19,1.28s-.34-.48-.41-.82C117.05,67.23,117.07,67.17,117.08,67.1Zm1.25,20.16c.32.47,1.13,0,.75,2.12-.31,1.72-.67.64-1,.61s-1,.35-.79-1.3C117.46,87.44,118,86.82,118.33,87.26Zm-2.19-15.91a2,2,0,0,0,.26-.09c.18-.09.39-.3.59.06,0,.47-.15.7-.42.74s-.43.19-.58,0Zm-.07,6.7a2.53,2.53,0,0,0,.13-.22c-.07.3-.13.59-.2.89A.69.69,0,0,1,116.07,78.05Zm.57,21.52c.4.28.42,1.25.19,2.58-.18.64-.2,2.19-.58,1.91s-.13-2.15-.12-3.34C116.14,100,116.39,99.39,116.64,99.57Zm-2.38-16.73c0,.6.28.74.59.57a.79.79,0,0,1,.37-.1,10.65,10.65,0,0,1,.11,1.43,18.07,18.07,0,0,1-.72,5.09,26.1,26.1,0,0,0-.25,4.13,5.8,5.8,0,0,1-.5,2.46c-.34.5-.43-.31-.5-1-.08-.84-.18-1.7-.67-1a4.22,4.22,0,0,0-.44,1.84c-.21,2.09.4.55.64.64.83.34,1.14,5.18.47,8.39a54.76,54.76,0,0,0-.9,7.89c-.09,1.45-.24,2.89-.43,4.31s-.38,2.81-.62,4.2c-.46,2.78-1.08,5.49-1.62,8.19-.4,2.06-.46-.21-.71-.27-.5-.13-.21-.85,0-1.47l.1-.23c.39-1.07,1.2-2,1-3.26s-.88-1.85-1.52-1.16c-1.22,1.31-1.23-.82-1.09-3.25a31.75,31.75,0,0,1,.59-5.37,60.94,60.94,0,0,0,1.18-7.88c.28-2.63.54-5.26.9-7.88.18-1.36.36-2.72.53-4.07a39.82,39.82,0,0,1,.83-4c.45-1.64.1-2.93.33-4.65.14-1.05.27-1.92.38-2.64a1.06,1.06,0,0,0,.43-1.2c-.05-.3.61-.63,1-.64S114.26,82.44,114.26,82.84Zm1.43,39.38c-.3,1.52-.36,3.45-.91,3s-.56-2.5-.37-4.3a6.48,6.48,0,0,0,.24-2.63c-.21-.94.12-1.7.47-1.83s1.1-.36.82,1.13A17.16,17.16,0,0,0,115.69,122.22Zm-1,9.12c-.2,1.28-.38,2.84-.79,2.6s-.61-2.16-.59-3.53c0-1.07.59-2.13,1-2S114.76,130.21,114.74,131.34Zm-.39-18c0-.82.29-1.09.5-1.21a2.67,2.67,0,0,1,.89,2.1c0,1.14-.5,1.21-.75,1.18C114.57,115.42,114.28,114.76,114.35,113.39Zm-1.12,37.89c-.28,1.83-.71,2.86-1.19,2.29a3.16,3.16,0,0,1-1.19-3c0-1.12.45-3.24,1-2.74A4.85,4.85,0,0,1,113.23,151.28ZM106.45,164c.25.74,1,.14.78,2s-.76.69-1.16.94c-.44-2.27-1.68-2.41-1.65-6,0-1.52-.13-2.89.45-3.87.49-.82.76-.38,1.09.8.37,1.34,1.21,1.77.26,4.34A2.37,2.37,0,0,0,106.45,164Zm-.1,50.56c.61-.7,1-1.89.74-4.43.35,1.34,1,2.48.66,3.66a10.11,10.11,0,0,1-1.45,2.85s-.21-.35-.24-.59A1.81,1.81,0,0,1,106.35,214.57Zm-.56-11.3c.38-1.06.63-.16.91.77a1.47,1.47,0,0,0,.48.73c.29.23.6-1.79.77-.29.13,1.19-.22,2.71-.74,3.08a4.77,4.77,0,0,0-.5.48c-.58.12-.9-.76-1.08-2A5.57,5.57,0,0,1,105.79,203.27Zm2.35,14a8.38,8.38,0,0,1,1.06,5.25c-.18,2,.35,4.48,0,6.41-.12.58,0,1.46-.32,1.79-.59.71-1.35.26-2-.88a13.51,13.51,0,0,1-1.39-5.21l-.07-1a12.69,12.69,0,0,1,.78-5.44C106.76,216.8,107.53,216.23,108.14,217.24Zm.5,21a2.78,2.78,0,0,0,.17-1c0-1.68,0-3.53.82-3s.51,2.57.68,3.63c0,1.22,0,2.2-.11,3.13s-.24,2.12-.59,2.27-.6-.86-.69-1.88a5.44,5.44,0,0,0-.44-1.67C108.24,239.13,107.67,237.92,108.64,238.28Zm-1-46.56c.07,3.07-.84,2.18-1.34,2.76s-.79-.6-.86-2.19a77.55,77.55,0,0,1-.33-9.18c.15-2.27-.28-4.53.08-6.9.17-1.12-.06-2.43-.58-1.84s-.5-.38-.56-1.26c-.1-1.67.48-.91.67-1.79s.52-.38.54.55c0,1.94.49,2,1,2.42,1.13.88.57,4.54,1,6.69C107.87,184.23,107.53,188.1,107.6,191.72ZM104,166.53c.24-1.23.67-1.3.94-.36.32,1.17.71,1,1.12.86-.51.91-.91,3.06-1.6,2A2.77,2.77,0,0,1,104,166.53Zm2.34,3.12c0-.75,0-1.8.38-1.59a15.49,15.49,0,0,1,1.63,1.12c-.4,1.66-.87,2.14-1.31,2.37S106.29,171.1,106.3,169.65Zm-6.25-85.41a.72.72,0,0,1-.84-.53,1.12,1.12,0,0,1,.32-1.2c.09-.09.19-.22.3-.22,1.11,0,2-.85,3.2-.7.25,0,.47,0,.57.41s.1.71-.21.87c-.5.26-.63,1.24-1.35,1.08A9.11,9.11,0,0,0,100.05,84.24Zm9.42-10.61c.32-.18.74,0,.84.63s-.1,1-.45,1.09c-.55.09-.74,1.42-1.53.58-.14-.15-.35-.47-.44-.33-.67,1.07-1.7,0-2.36.37s-.46,1.6-.51,2.58c-.26-1.22-1.08-1.39-1.68-1.9-.21-.17-.48-.25-.5-.64a.71.71,0,0,1,.4-.78c.55-.17,1.07-.94,1.73-.06.14.19.27.09.38,0C106.49,73.79,108.15,74.34,109.47,73.63Zm-2.91-2a1.23,1.23,0,0,1,.65-1.15c.25-.13.63.28.7.74s-.3.71-.56.85S106.61,72.05,106.56,71.58Zm2.17-.51a1,1,0,0,1,.84-1.13c.22-.06.48.23.64-.22s.39-.2.51.14.38,1.07,0,1.07a1.25,1.25,0,0,0-1.07.57C109.21,71.45,108.77,71.72,108.73,71.07Zm-6.34,2.1a.94.94,0,0,1-.81-1c0-.58-.08-1.42.44-1.59a.7.7,0,0,1,.86.74A2.55,2.55,0,0,1,102.39,73.17Zm4.26,54.73c.43-.27.86-.54,1.2-.77.33.25.84.57.55,1.3-1.06,2.74-.68,6.18-1.28,9.06-.18.91-.2,2.24-.65,2.26s-.41-1.15-.47-2.08C105.77,134.45,106.74,131.13,106.65,127.9Zm4.52-59.45c.18-.12.31.1.39.29,0,.52.07,1.09-.2,1.33s-.39-.27-.46-.55A1,1,0,0,1,111.17,68.45Zm2.68,12.31c-.16.68-.57,1.27-1,1.31-.06,0-.11,0-.16,0C113,80.9,113.32,80.59,113.85,80.76ZM106.7,65.69c.32.23.74.92,1,.52a2.22,2.22,0,0,0-.14-1.78c-.6-1.06-.15-1.43.39-1.71a2.24,2.24,0,0,1,1.27-.36,4,4,0,0,0,2.37-.47c-.12,1.61,0,2.94.85,3.37a.87.87,0,0,1,.36.54.58.58,0,0,1-.19,0,3.63,3.63,0,0,0-1.88.62c-1.32.75-2.82.47-4.28.15-.55-.12-.07-.52-.12-.79-.1-.55.14-.34.33-.2Zm-2.92-1.94c.64-.71,1.61-.17,2.28-.75l.47,1.13c0,.38.09,1-.14.78-.86-.69-1.52.2-2.3,0-.24-.06-.54.11-.65-.36S103.59,64,103.78,63.75Zm-3.24,2.16c.77.42,1.12.12,1-1.11a.39.39,0,0,1,.52-.37.66.66,0,0,1,.41.69c-.16.86.67,1.58.27,2.58-.17.42.54.61.94.62a1.34,1.34,0,0,1,1.21,1.77c0,.2-.07.5-.3.42s-.18-.29-.2-.5c-.07-1-.46-1.13-1-.86l-.94.42c-.19.09-.49.21-.54,0-.26-1.18-1.12-1.32-1.64-2C99.84,67,100.06,66,100.54,65.91Zm.28,10.67c-.06.83-.72.64-1.06,1s-.61-.59-.7-1a1,1,0,0,1,.64-1.18C100.32,75.14,100.46,76.1,100.82,76.58ZM98.2,64.78c.35-.13.63-.43,1,.09a1.1,1.1,0,0,1,0,1.23c-.22.54-.14,1.48-.94.72-.25-.24-.3.16-.38.39s.17,1.06-.31,1-.32-.76-.46-1.17C97.58,66.38,97.36,65.09,98.2,64.78Zm-1.88.66c.05-.31.07-.88.48-.68a.73.73,0,0,1,.28,1,1.69,1.69,0,0,0,0,1.27C96.79,66.52,96.21,66.27,96.32,65.44Zm.23,2.06c.18,0,.42-.17.45.28s0,1.16.07,1.83a2.09,2.09,0,0,1-.83-1.21C96.13,68,96.21,67.6,96.55,67.5Zm-6.61,9.66a5.27,5.27,0,0,1,1.45.37c-.69.39-.69,1.31-1,1.57-.49.35-.55-.66-.79-1A.58.58,0,0,1,89.94,77.16Zm-2.33-9c.24-.18.48-.13.71.16s.14.68,0,1a1.38,1.38,0,0,0-.1.52c0,.32.54.64.19.83s-.71-.22-.88-.79c-.07-.22-.16-.44-.2-.55A1,1,0,0,1,87.61,68.12Zm-1.76-4.4c.3-.15.4.1.36.54.16.54.08.86-.38.88s-.69-.08-.72-.58S85.53,63.88,85.85,63.72Zm-.06,2.47a.67.67,0,0,1,.88,0c.21.14.15.4.11.62-.09.6-.33,1-.62,1.07a1.51,1.51,0,0,1-1.36-.3A12.72,12.72,0,0,1,85.79,66.19Zm1,3.46c-.28.36-.48,1-.82.66a7.15,7.15,0,0,1-.92-1.62.33.33,0,0,1,.11-.24c.2-.09.32.11.41.33C85.85,69.45,86.21,69.86,86.81,69.65ZM83,67.53l.24,0c1-.17,2.31,1.89,2,3.19-.13.53-.45,1.32-1.18,1-.53-.27-1.1.21-1.64-.28-.16-.15-.38-.12-.5-.43C81.34,69.57,81.93,67.77,83,67.53ZM85.53,79c0,.51-.06.84-.38,1s-.41-.18-.49-.51c-.15-.53.08-.74.37-.85S85.47,78.62,85.53,79ZM84,79.24c0,.39-.15.65-.46.67s-.43,0-.45-.42a.65.65,0,0,1,.53-.73C83.84,78.68,84,78.92,84,79.24ZM82,86a2.57,2.57,0,0,1,2-.9c1-.12,1,1.12,1.24,1.86.18.51-.28.54-.67.65a3.16,3.16,0,0,0-2.31-.16c-.35.07-.73-.29-.84-.77C81.28,86,81.83,86.21,82,86Zm-.76-10.68c.19.63-.43.81-.8,1.06-.42-.08-1,0-1.1-.67-.08-.36.27-.86.42-1.3C80.22,74.93,81,74.54,81.26,75.29Zm-1.74,5.19-.09,0c-.43.1-1.08.76-1.23-.2s.72-.64,1.11-.9c.35.17.85-.45,1,.36S79.88,80.43,79.52,80.48ZM79,70.92a1.27,1.27,0,0,0,.38-.56c.14-.29.38-.9.42.14,0,.06.18.18.28.19.44,0,.93.09.9.93s-.61.48-.86.69a5.37,5.37,0,0,1-.83,0c-.25,0-.58-.12-.67-.46A.78.78,0,0,1,79,70.92Zm-6.22-4c-.1-.78.36-.51.67-.55a2.85,2.85,0,0,0,1-.3.61.61,0,0,1,.78.06.56.56,0,0,1,.14.61.62.62,0,0,1-.66.5l-.52.07-.62.14C73.29,67.51,72.89,67.49,72.82,66.9Zm3.87,13.57c-.53.31-1,.77-1.68.66-.2,0-.43-.08-.48-.43s.16-.37.3-.48a4.94,4.94,0,0,1,1.62-.55c.23,0,.52-.25.63.14S76.89,80.35,76.69,80.47Zm.14-11.18c-.1-.8.53-.66.82-.93.4,0,.73.1.8.71s-.28.81-.65.9A.73.73,0,0,1,76.83,69.29ZM88.09,263.86c0-.4.9-.48,1.46-.7,2.59-1,5.24-1.81,7.51-3,1.07-.55,2.14-1.05,2.55-.45.09.32,0,.66-.62,1.07a12,12,0,0,0-1.47,1,6.63,6.63,0,0,1-3.88,2c-1.41.26-2.87.26-4.32.45C88.7,264.32,88.08,264.18,88.09,263.86Zm6,6.81c-1.89.43-2.18-.32-2.36-.82s.71-1.18,2-1.52c1.65-.46,1.93,0,2,.53C95.3,269.5,96.37,270.1,94.08,270.67Zm4.81-7.46c-1,.06-2.45,1.31-2.78.84s1.36-.92,2-1.38c.87-.42,1.55-.63,1.78-.37S99.46,263.19,98.89,263.21ZM90.24,84.93c-.16-.81.55-.58.84-.74s-.06.46.2.58c.17.34.28.73-.08.83A.9.9,0,0,1,90.24,84.93Zm13.05,166.24a8.17,8.17,0,0,1-.37.9c-.26.45-.52.88-.6,1.06-.39.54-.55.9-.79,1.17-.46.64-1.19,1.19-1.55.73s.41-.94.78-1.43a6.16,6.16,0,0,0,1.08-1.9,3.74,3.74,0,0,1,.83-1.52c.27-.27.48-.21.59.1A1.67,1.67,0,0,1,103.29,251.17Zm-.37-39.63c0,1.41,0,2.78-.5,2.62s-.66-2.14-.83-3.53.07-1.59.48-1.2C102.56,209.12,102.87,209.64,102.92,211.54ZM94.59,77.16c-.06-.41.07-.67.39-.66s.4.13.43.48-.08.7-.4.71S94.63,77.45,94.59,77.16Zm-.57-8c-.65.91-1.68.64-2.55.84s-.68-.83-.91-1.35,0-.87.38-1A5.18,5.18,0,0,1,93.11,67c.57,0,1-.54,1.66-.28.3.12.57-.2.32-.72s0-.56.19-.68c.37-.24.31.44.55.57a.37.37,0,0,1,0,.63c-.44.2-.38.66-.38,1.2C95.45,69,94.45,68.59,94,69.19ZM96,76.83c-.13-.94.69-.72,1.1-1.06.46.2,1.19-.56,1.35.63a1.34,1.34,0,0,1-1.06,1.54C96.66,78.14,96.07,77.63,96,76.83Zm8,135.46a10.49,10.49,0,0,1,0-3.58c.12-.77.36-.35.57-.08a6,6,0,0,1,1,3.14,21.65,21.65,0,0,1-.2,5.37C104.83,215.54,104.31,214,103.91,212.29Zm3.32,35.08c-.2.52-.46.82-.75.75-.7-.16-.17-2-.28-3.13.16-1.32.37-2.4.92-2.37s.65,1.45.53,2.74c0,.38-.08.76-.14,1.1A7.07,7.07,0,0,1,107.23,247.37Zm7.11,9.83a17.45,17.45,0,0,1-4.06,7.15c-.64.61-1.44,1.31-1.68,1s.43-.89.85-1.46a32.2,32.2,0,0,0,3.94-6.5c.52-.87.78-2.36,1.21-2.45S114.68,256.26,114.34,257.2Zm-.49-15.86c-.13.77-.3,1.37-.6,1.47s-.68-1.54-1.08-2.38c.6-1.43.2-4.79.87-5.33s.8,2.09,1,3.69C114,239.6,114,240.56,113.85,241.34Zm-3.66-93.11c0,.81,0,2.09-.28,2.09-1.14,0-1.57,3.28-2.36,4.77-.58,1.09-1.37-.6-1.27-2.61.64-2.72.6-4.35-.52-4.82-.24-.11-.24-1.59-.07-2.39s.52-1.6.78-1c.65,1.37,1.64-1.27,2.3,1.18.27,1,.76-1.59,1-3.12.43-3.46,1.49-4.94,2.07-3.17a2.28,2.28,0,0,1,.19,1.56c-.12.58-.32.43-.5.3-.85-.57-1.17.79-1.21,3.21Zm7.32,96.82,0,.37c-.09,1.91-.13,5.25-1.07,5.19s.14-3.54.06-5.4c.33-1.36-.11-3.8.64-3.87S117.65,243.44,117.51,245.05Zm-.76-15.1c-.45-.14-.67-1.3-.78-2.4s.1-1.4.4-1.24.63.86.7,2.06C117.09,229.18,117.1,230.06,116.75,230Zm-.32-6.22c-.48.29-.7-.69-.85-1.86s0-1.68.32-1.72c.47,0,.8.62.95,1.92S116.73,223.55,116.43,223.73ZM114.86,204c-.46.87-.81-.88-.82-1.89,0-1.52.2-3,.4-5.4.33,2.89,1.18,3.43,1.4,4.88C116.15,203.69,115.22,203.36,114.86,204ZM115,183c0,.94-.3,1.26-.56,1.23s-.59-.7-.52-2c.06-.84.19-1.43.52-1.32A2.51,2.51,0,0,1,115,183Zm.69-8.77c0,2.76-.53,4.65-1.28,4.53s-.51-3.16-.73-5c.31-1.63-.14-5,1-4.73C115.49,169.25,115.73,171.7,115.73,174.21Zm.35-9.45c.2,1.6-.71,1.87-1,1.93-.6.11-.84-1.94-.86-3.33,0-2.58.88-2.36,1.42-3.37C116.29,160.87,115.87,163.25,116.08,164.76ZM123.45,225c.45-.45.53,1.26.7,2.75a70.89,70.89,0,0,0,.14,9.41c.08,1.59-.3,3.08-.76,3.26-.63.24-.35-2.08-.58-3a55.17,55.17,0,0,1-1.08-8.57C121.6,225,122.79,225.71,123.45,225Zm-1.58-22.84c.07,1.49-.28,3.14-.65,3.21-.75.14-.51-2.39-.66-3.54-.21-1.68.43.46.55-.42C121.42,201,121.79,200.78,121.87,202.19ZM117,141.73c0,2.47,1.14,3.06,1.94,4-1.15,0-1.66,2.89-2.37,4.78-.24.63-.43,1.58-.76,1.35s-.54-1.15-.49-2.14c.12-2.25-.29-4.86.75-6.62a2.46,2.46,0,0,0,.15-1.47,41.49,41.49,0,0,1,.23-8.39c.27-2.84.69-5.67.81-8.47.06-1.37.49-2.73,1-2.54s.76,1.34.59,2.68c-.25,2.15.67,4.07-.43,6.24-.21.4-.58.88-.51,1.34C118.5,136,117,138.87,117,141.73Zm5.38,19.32c-.37,2.43-.19,5-.35,7.51-.08,1.3-.25,2.5-.72,2.75s-.78-.8-1-2.06a5.84,5.84,0,0,1-.11-1.24c.17-2.06.1-4.13.12-6.19a49.39,49.39,0,0,1,.34-6.19c.12-.9.17-1.75.56-1.81s.65.18.67,1.47C122,157.31,122.81,158.55,122.41,161.05Zm-1.73-52.23a8,8,0,0,1-1.52,3.81c-.1.15-.29,0-.36-.24a36.85,36.85,0,0,1,.36-4.63,42.21,42.21,0,0,1,.74-4.65,5.75,5.75,0,0,1,.51-.79c.13.07.25,0,.25.15A61.08,61.08,0,0,1,120.68,108.82Zm.49-11.93c-.17.85-.23,2.35-.71,2.21s-.12-1.52,0-2.42.13-1.78.56-2.12A2.92,2.92,0,0,1,121.17,96.89Zm-1.32-11.74a4.46,4.46,0,0,1-.56.69c-.55-.4-.78-1.74-.73-2.86,0-.73.09-1.5.16-2.29a.44.44,0,0,0,.08.11c.36.4.9.94,1,0,.12-1.25.64-1.35,1.31-1.14A19,19,0,0,1,119.85,85.15Zm1.73.49c.63-3.16,1.49-5.06,2.59-5.07s.32,2.62.22,4.34c-.58,2.63-1.32,3.61-2.1,3.64C121.72,88.58,121.08,88.31,121.58,85.64Zm4.57,34.57c-.31,2.07-1.06,3.46-1.61,3.06-1-.73-.83-4-.61-6.59.14-1.94.76-2.37,1.08-2.35C125.93,114.53,126.51,118,126.15,120.21Zm1.27-25.57a12.57,12.57,0,0,1-1,1.92,7.77,7.77,0,0,0-1.17,3.15c-.12,1.56.46,1.58.87,1.72,1,.32.34,2.32,0,3.6-.31,1.09-.68,1.19-.82-.19-.29-2.85-.53-5.8-1.52-7.3-.48-.73-.69-2.32.11-4.77a30,30,0,0,0,1.46-4.06c.17-.83,1-2.35,1-1.85.12,1.33.77,1.66.58,3.51-.12,1.09-.84,2-.67,2.93s.76-1.13,1-.57C127.76,92.84,127.85,93.4,127.42,94.64Z"/><path class="cls-3" d="M118.2,67.11v0a2.26,2.26,0,0,1,.06-.6Z"/><path class="cls-3" d="M126.06,53.42l-.58-.36c-.09.29-.2.57-.31.85l.26.16A7.66,7.66,0,0,1,126.06,53.42Z"/><path class="cls-3" d="M129.79,59.32a10.32,10.32,0,0,1,.52-1.25l-2.67-1.68c-.45.31-.86.58-1.22.8Z"/><path class="cls-3" d="M129.74,63.86c.83.63,2.61-1.27,4-2l-3.93-2.49C129.11,61.33,129.09,63.37,129.74,63.86Z"/><path class="cls-3" d="M52.8,147.71l-.27-2.15-.33-2.15c-.09-.77-.17-2.33-.51-1.88s-1,.95-.35,3.89c.7,3.35,1.63,7,1.43,10.48a16.78,16.78,0,0,0,.52,5.48c.13.56.34,1.39.56.94a9.93,9.93,0,0,0,0-1.63c0-1.45,0-2.9-.12-4.34s-.28-2.88-.44-4.32Z"/><path class="cls-3" d="M56.25,256.77c-.8-.1-1.74-.15-2.37-.27a11.13,11.13,0,0,1-1.1-.25c-1.07-.33-2.18-.51-2.43-.05s1.14.59,1.92.84a5.32,5.32,0,0,0,1.8.27,12.29,12.29,0,0,1,2.21.31c.76.12,1.43.15,1.45-.27S57.06,256.87,56.25,256.77Z"/><path class="cls-3" d="M46.6,250.87a2,2,0,0,0,0-.34,1.07,1.07,0,0,0-.21-.65.27.27,0,0,0-.4,0,.73.73,0,0,0-.24.61,4,4,0,0,0,0,.71,3,3,0,0,0,.06.38A2.46,2.46,0,0,0,46,252c.15.13.11.48.16.66a.5.5,0,0,0,.08.26.33.33,0,0,0,.27,0c.26-.11.27-.21.24-.42a2.62,2.62,0,0,1-.2-.68,3.44,3.44,0,0,1,0-.62Z"/><path class="cls-3" d="M50.31,228.48c.23-1,.11-1.53-.13-1.77s-.36.26-.41.74a47.88,47.88,0,0,1-1.15,5.77c-.22.94-.43,1.94-.57,2.83a11.54,11.54,0,0,0-.18,2.6,18.15,18.15,0,0,1,.51-3c.24-1.07.54-2.09.87-3.13C49.65,231.26,50,229.85,50.31,228.48Z"/><path class="cls-3" d="M97.65,210.14c-.05-.25-.18.56-.11.94.2,1.06.3,3.21.72,2.74s1.17-1,1.35-3.39C98.9,208.49,98.36,213.16,97.65,210.14Z"/><path class="cls-3" d="M101.73,155.14c.46-1.59.3-3.4.53-5,.08-.55,0-1.25-.21-1.1a2.82,2.82,0,0,0-.72,1.06c-.19.4-.21,1.21,0,1.35C102,152,101.54,153.91,101.73,155.14Z"/><path class="cls-3" d="M100.84,161.18c-.12,2.78-.21,4.89-.31,7A17.8,17.8,0,0,0,100.84,161.18Z"/><path class="cls-3" d="M111.21,108.43c-.47.73-.92,1.65-1.35,2.46,0,1,.15,1.18.39,1.09.53-.19.87-1.3,1.09-2.73C111.42,108.79,111.37,108.18,111.21,108.43Z"/><path class="cls-3" d="M16.3,66.66h0Z"/><path class="cls-3" d="M19.27,64.21v0S19.3,64.16,19.27,64.21Z"/><path class="cls-3" d="M16.3,66.66h0Z"/><path class="cls-3" d="M16.21,66.7l-.05,0,.05,0Z"/><path class="cls-3" d="M25,64c.75-.31,1.64-.94,2.39-.32.53.43.86.18,1.26-.12a.45.45,0,0,0,.22-.53c0-.12-.24-.11-.36-.15a5.05,5.05,0,0,0-2-.23c-.65,0-1.32.11-1.91.1-.16,0-.46-.19-.4.25S24.33,64.24,25,64Z"/><path class="cls-3" d="M57.37,64.1A.76.76,0,0,0,58,64c.37-.29,1.18.37,1.12-.47-.05-.65-.82-.3-1.28-.29a2.69,2.69,0,0,1-.4,0,.68.68,0,0,0-.91.6C56.52,64.17,57.08,64,57.37,64.1Z"/><path class="cls-3" d="M50.6,63.8a2.6,2.6,0,0,0,.5-.08c.22-.24.89.28.87-.33s-.61-.26-1-.3a1.34,1.34,0,0,1-.39-.11c-.24-.1-.49-.23-.67.08a.66.66,0,0,0,0,.44C50.09,63.9,50.37,63.79,50.6,63.8Z"/><path class="cls-3" d="M43.67,63.52c.87-.37,1.82.58,2.64-.36A1.47,1.47,0,0,1,44.8,63a3.26,3.26,0,0,0-.95-.29c-.23-.05-.34.2-.37.49S43.56,63.57,43.67,63.52Z"/><path class="cls-3" d="M85.59,61.59c.36-.73-.84-1.39-.23-2.1,0-.06-.16-.21-.24-.14s-.72.26-.55.72S85,61.35,85.59,61.59Z"/><path class="cls-3" d="M100.15,61.4c.14,0,.28-.13.19-.36a2.38,2.38,0,0,0-.39-.63c-.13-.14-.32-.1-.31.13,0,.73-.49.47-.72.8C99.38,61.67,99.75,61.33,100.15,61.4Z"/><path class="cls-3" d="M97.37,61l-1.66.23C96.24,61.42,96.83,61.82,97.37,61Z"/><path class="cls-3" d="M111.21,64.53a.19.19,0,0,0,.13-.3c-.28-.34-.59-.63-.88-.93a.48.48,0,0,0-.12.61A.78.78,0,0,0,111.21,64.53Z"/></g><path class="cls-4" d="M64.75,174.16a425.41,425.41,0,0,0-8.64-51.4,206.73,206.73,0,0,0-6.94-23.2c-3-8.34-6.19-17-11.24-24.26C33.54,69,22,70.63,22.34,79.53c.37,8.28,2.21,16.32,3.74,24.46,1.49,8,2.9,15.94,4.43,23.9a392.32,392.32,0,0,1,6,47.2,444.4,444.4,0,0,1,.88,48.42q-.51,12.11-1.73,24.17c-.94,9.28-5.47,21.64,3.07,28.84,5,4.2,10.27,4.7,16.11,2.07,10.47-4.71,9.42-20.2,10.28-30q1.07-12.06,1.4-24.17A375.11,375.11,0,0,0,64.75,174.16Z"/><path d="M144.88,35.29c-.09-.27-.55-.7-.61-.66a8.12,8.12,0,0,0-1.14.91c-.16.13-.3.3-.45.45,0-.15-.15-.32-.12-.45a34.74,34.74,0,0,1,1-4.66c1.66-4.93,1.77-9.74-1.62-13.94A25.53,25.53,0,0,0,130.79,8.8c-5.86-2.14-11.73-4-17.88-1-.7.33-1.32.83-2.27.24a28.78,28.78,0,0,0-4.78-2.38c-6.29-2.42-13-3.07-19.54-4.14-6.36-1-11.38.93-14.06,5.61a1.26,1.26,0,0,0,0,1.57c.06.07.5,0,.54-.12,1.82-4.44,5.47-5.33,9.73-5a2.68,2.68,0,0,1,.6.21c-.16.14-.29.35-.48.42-2.57,1-4.47,3.24-7.31,3.75a4.92,4.92,0,0,0-1.93,1.18c-.2.16-.15.64-.21,1A4.68,4.68,0,0,1,74,9.71c1.83-.53,3.24-3.24,5.6-1.07.06.06.54-.17.53-.21-.29-1.57,1-1.1,1.65-1.17,1.61-.2,3.24-.18,4.86-.28a.74.74,0,0,1,.86.63c.07.3,0,.63.12.92s.38.33.47,0a1.43,1.43,0,0,0-.38-1.64C86,5.61,84,6.59,82.2,6.49c-.24,0-.48,0-.72-.08.11-.19.16-.47.32-.56,2.48-1.32,4.92-2.8,7.94-2.07.5.13,1,.29,1.5.44-.39.31-.79.59-1.14.93-.11.11-.08.37-.11.57,1.66-.34.65.94.9,1.47a7.07,7.07,0,0,0,.52.82,6,6,0,0,0,.27-.82c.11-.7.53-1.26,1.19-1.24,4.21.08,8.24.7,11.14,4.24.29.35.56.93,1,.5s.26-.92-.22-1.31c-.16-.14-.2-.42-.3-.64.16,0,.39-.1.47,0,1.12,1,2.61,1.09,3.91,1.65a2.24,2.24,0,0,1,1.36,2.44c-.12.66-.77.23-1.07.12-3.63-1.3-7.24-2.67-10.86-4a3.59,3.59,0,0,0-1-.08c.11.18.17.44.33.53a52.39,52.39,0,0,0,13.45,4.95c.93.2,1.46,0,1.42-1.12,0-.9-.06-2.12,1.47-1.06.19.13.54,0,.82,0a4.93,4.93,0,0,1-.54-.34c-.6-.46-1.88-.42-1.73-1.34s1.25-.38,1.91-.4c.91,0,1.69.49,2.76.29a11,11,0,0,1,4.76.26c1,.28,2.47-.34,3.09,1.09.11.26.19.53.28.79a6.21,6.21,0,0,0,.72-.51,4.53,4.53,0,0,1,5.21-.75,10.1,10.1,0,0,1,4.7,3.66c.34.51,1.59.89,1.19,1.44-.57.78-2.19,1-2.68.37-1.67-2.13-4.12-.71-6-1.62-.37-.17-1.09.33-1.61.59-.15.07-.19.36-.28.55a2.36,2.36,0,0,0,.59.22,9.66,9.66,0,0,1,8.29,6.18,9.36,9.36,0,0,0,1.06,1.86c.5-.5,1-1,1.48-1.5s.3-1.17.07-1.75c-.34-.85-.8-1.66-1.07-2.54-.08-.28.25-.73.47-1,.08-.12.53-.16.57-.08.2.32.54.87.42,1-1.79,2.38,1.76,3.27,1.41,5.21a2.45,2.45,0,0,0,.54-.18,5.27,5.27,0,0,0,.58-.48,3.88,3.88,0,0,1,.31.84c.29,2.25.6,4.5.8,6.76.06.73-.22,1.87-1,1.73-3.17-.51-6.31-1.2-9.43-2a32.87,32.87,0,0,1-4.1-1.56c1.43.06,2.87.17,4.31.18.61,0,1.44,1.09,1.7.13.21-.77-1-.85-1.69-1A7.55,7.55,0,0,0,130.1,28c-5.38-.13-10.76-.15-16.13-.37-5-.2-10,.55-15-.27-.49-.08-.9-.67-1.35-1,.11-.06.22-.17.33-.16l14.14.69c.25,0,.51,0,.76,0a5.8,5.8,0,0,0-.8-.19c-4.27-.57-8.57-.89-12.85-1.32-7.54-.76-15.16-.17-22.66-1.44a1.72,1.72,0,0,0-.61.13l.59.22.77.32a3.94,3.94,0,0,1-.87.21l-25.87-.27a1.68,1.68,0,0,1-.57-.22,3.26,3.26,0,0,1,.51-.64c2.83-1.95,5.14-4.52,8.14-6.32,3.22-1.94,8.1-1.39,10.08,1.76.37.59.7.53,1.11,0,1.46-1.76,0-4.18-3.12-5.14-.24-.07-.46-.19-.69-.28a3.14,3.14,0,0,1,.77-.17,6.26,6.26,0,0,1,5.08,2.84c.85,1.12,2.05-.25,3.09.13.09,0,0-.72-.29-1.07-.71-.72-1.85-.45-2.47-.82-2.8-1.69-5.1-3.69-8.67-.88-3,2.37-7.43,1.92-10.75,4.05-.24.16-.62.09-.93.12a3.88,3.88,0,0,1,.66-.68c1.7-1.06,3.43-2.07,5.12-3.16a1.41,1.41,0,0,0,.4-1c0-.16-.24-.43-.44-.52a.64.64,0,0,0-.58.14c-1.33,2.86-4.55,3-6.64,4.78-1.19,1-1.93,1.19-3,.07-.11-.12-.54.06-.82.1a2.2,2.2,0,0,0,.25.81c.66.81,1.39,1.57,2.06,2.36.25.3.41.8.9.57s.26-.72.14-1.13-.87-1,.15-1.1c1.5-.11,2.64-.93,3.91-1.52,1-.48,2.36-1.73,3.17-.73.51.63-1.22,1.57-2,2.09-1.83,1.17-2.87,3.63-5.3,3.72-5.88.22-11.78,0-17.65.42-6.06.43-12.36.15-17.65,4.09a4.41,4.41,0,0,1-1.39.41C13,27.12,13,26.58,13,26s1-1.19.07-1.48-1.24.75-1.26,1.45c-.06,1.43-.58,2.05-2.1,2.25s-2.88.9-4.43.59c-.08.87-.76,1.43-1.38,1.12s-.83-1.2-1.2-1.85a9.4,9.4,0,0,1-.39-.92c0,.32-.06.63-.11.95s.23,1-.4,1-.69-.49-.7-.9c0-1.69,0-3.39.06-5.09,0-.17.22-.34.33-.51a1.76,1.76,0,0,1,.16.56,5,5,0,0,0,1.19,3.62c.11.13.33.16.49.23a1.05,1.05,0,0,0,.09-.38c-.65-3.42,1-6,3-8.54a3.72,3.72,0,0,1,.56-.48,2.71,2.71,0,0,1-.23.66,8.67,8.67,0,0,0-1.78,7.12c.05.26.3.48.46.72a2.65,2.65,0,0,0,.1-.78,9,9,0,0,1,5.48-9.15c.51-.2,1.13-.23,1.26-.93-.48.1-1,.17-1.43.31-.85.26-1.69.55-2.53.82A4.31,4.31,0,0,1,9.94,13.8c.91-.86,1.81-1.75,3.25-1.28,0-1.79,2-1.34,2.82-1.95,2.23-1.54,4.9-.58,7.21.76.3.18.46.86.91.44s0-.79-.28-1.1-.75-.74-1.13-1.11a9.24,9.24,0,0,1,2.1,0,3.11,3.11,0,0,1,2.3,1.87c.08.18.35.28.54.42.1-.15.32-.33.29-.46-.61-3.09.82-3.43,3.26-2.45.1,0,.35,0,.37-.09s.13-.52,0-.63c-.93-1,.07-1,.61-1.34s1.12-.53,1.31-1c.54-1.25,4.51-2.43,5.54-1.55.24.22.27.8.79.54.13-.06.28-.4.22-.49-.22-.37-.49-.95-.79-1a32.94,32.94,0,0,0-3.3,0,2.39,2.39,0,0,1-.45-.09c.09-.09.17-.22.29-.26,1.46-.41,2.94-.79,4.4-1.23,2.37-.73,3.82.86,5.41,2.1h0a4.69,4.69,0,0,0-1,.92A2.14,2.14,0,0,0,44.17,7a1.29,1.29,0,0,0,.89-.14,28.5,28.5,0,0,1,8.15-4c.65-.22,2.63-1.91,2.61.88,0,.08.17.23.21.21s.33-.19.5-.26c.8-.35-.06-1.66.91-1.76A6.35,6.35,0,0,1,61.9,3c1,.74,2.15.07,3.21.23.06,0,.14-.07.2-.11-.66-.18-1.32-.34-2-.57A9.07,9.07,0,0,1,62.26,2a7.39,7.39,0,0,1,1.27-.27,9.59,9.59,0,0,1,5.68,1.66,1.52,1.52,0,0,0-.86-1.22C64.4-.27,59.79,1.59,55.7.25,52.46-.82,49.57,2,46.33.86A13.11,13.11,0,0,0,43.05.43c-5.83-.5-9.9,2.89-14.25,6.05a9.65,9.65,0,0,1-8.86,1.31,7.85,7.85,0,0,0-7,.72c-2.8,1.57-4.5,4.72-7.8,5.56C1.66,15,1.25,17.75.46,20.58c-1,3.67,0,7.26-.18,10.8-.19,3.93,1.26,7.49,2.13,10.79,1.93,7.3,4.12,14.52,5.43,22A57.65,57.65,0,0,0,13,79.66c1.9,3.89,2.2,8.52,3.73,12.63,2.64,7,3.46,14.5,5.35,21.7,1.05,4,1.35,8.21,2,12.32s1.13,8.47,1.93,12.66c.26,1.33-1.54.91-1.18,2.16a72.24,72.24,0,0,1,2.23,9c1,6.45,2.67,12.76,3.47,19.26,1.13,9.08,2.51,18.12,2.93,27.26.14,3-.35,6.12-.17,8.86.3,4.6-.16,9.23.51,13.85,1.31,8.94-1.73,17.44-3.64,26a118.17,118.17,0,0,1-4.85,15.16,96.49,96.49,0,0,0-5.12,21.43c-.76,6-5.18,12-.68,18.25l.85,1.19c0-.08.13-.18.11-.24-.12-.3-.63-.59-.14-.89.09-.06.66.48.87.84C23,304.22,24.69,307.54,29,308c-.07-.19-.1-.48-.24-.56-1.11-.63-2.27-1.17-3.34-1.85-.36-.22-.51-.77-.75-1.16a.83.83,0,0,1,.35,0c4.14,1.65,8.16,3.72,12.76,3.89.12,0,.23.12.33.2a.32.32,0,0,1-.11.19,2.76,2.76,0,0,1-.43.2c.18.06.36.13.55.18a69,69,0,0,1,8.5,2.41A32.84,32.84,0,0,0,59,314c4.83.12,9.61-.24,14.4-.32a159.91,159.91,0,0,0,21.16-2.18,2,2,0,0,1,.54.06c-.12.1-.23.27-.37.3-4.89,1-9.61,2.89-14.68,3.05a5.58,5.58,0,0,0-.69.13,2.71,2.71,0,0,0,.73.24c6,0,11.63-2.1,17.5-2.93a51.42,51.42,0,0,0,18.73-7c.16-.09.41,0,.62-.05a1,1,0,0,1-.11.45c-1,1.31-2.12,2.6-3.18,3.9a4.65,4.65,0,0,0-.36.61,3.34,3.34,0,0,0,.61-.43c1.75-2,3.48-4.09,5.26-6.11.28-.33.83-.76,1.12-.68.68.2.09.72.06,1.11a9.59,9.59,0,0,0,.06,1.07c.16,0,.44-.07.45-.13.18-2.13,2.46-3.07,2.89-5,.82-3.57-.27-7.18.07-10.84a33.44,33.44,0,0,0-1.28-10.7c-1.12-4.6-.93-9.43-2.63-13.92-2.89-7.62-1.72-15.74-2.66-23.6,0-.24.32-.53.5-.8a2.56,2.56,0,0,1,.1.34q.78,5.81,1.55,11.6a1.36,1.36,0,0,0,.24.44c0-.11.12-.22.11-.32-.28-3.33-.46-6.67-.88-10-1.2-9.35-2.76-18.67-2.73-28.12,0-11.52-.14-23.06.93-34.57.52-5.55,1.22-11.06,2-16.58.85-5.78,2.15-11.53,2.62-17.36.5-6.17,3-11.87,2.77-18.38s3.52-13.1,3.14-20.17c-.21-4,2.41-7.67,2.87-11.42a216.17,216.17,0,0,1,4-21.93c2.27-9.84,4.32-19.73,6.65-29.56.66-2.76,1.27-5.64,3-8.06C144.34,35.89,145.09,35.92,144.88,35.29ZM109.05,8.93l-4.82-2.55c-.07,0-.07-.19-.11-.28a1.68,1.68,0,0,1,.62-.06,16.55,16.55,0,0,1,5,2.34c.08,0,.1.2.15.31Zm2.39,3.9c-.1-.23-.21-.46-.36-.79l.43-.7c.09.15.27.31.25.44A7,7,0,0,1,111.44,12.83Zm3.22-3.69c-.37-.35-1,.53-1.4-.27,1.46-.55,2.91-1.12,4.37-1.65.1,0,.28.15.43.24C117,8.18,116.23,9.36,114.66,9.14ZM125,10.59c-1.45-.35-2.91-.69-4.36-1.05-.77-.19-1.67.2-2.32-.51a4.42,4.42,0,0,1,2.79-1.38c2.13.54,4.26,1.07,6.39,1.63.18,0,.3.27.45.41C126.94,9.85,126.17,10.86,125,10.59Zm15.39,11c-.4-1-.82-1.92-1.18-2.89a4.86,4.86,0,0,1,0-1.2c.48.57,1,1,.93,1.14C139.59,19.73,140.66,20.61,140.4,21.61ZM65.85,15a4.11,4.11,0,0,1,3,1.82s-.15.18-.17.16l-3.2-1.84ZM47.8,2c.46.56-.8.79-1.25,1.2a10.87,10.87,0,0,1-.91.74,7,7,0,0,0-.28-1.22,14.29,14.29,0,0,0-.75-1.39C45.74,1.23,47.09,1.09,47.8,2ZM32.42,5.57c.12-.05.31.08.75.22a3.8,3.8,0,0,1-.85.39c-.14,0-.3-.1-.45-.17A2.53,2.53,0,0,1,32.42,5.57ZM14.36,8.74c.06-.05.16-.05.24-.08A6.74,6.74,0,0,1,19,8.18c.05,0,.06.13.09.21l-4.45.85L14,9.11A4,4,0,0,1,14.36,8.74ZM5.61,15.16c.06.09.21.23.18.27-.56.89-1.14,1.78-1.72,2.67l-.16-.34C4,16.47,4.94,15.9,5.61,15.16Zm14.17,280c0-.39-.06-.78-.11-1.46.08-.41.23-1.08.38-1.76a2.35,2.35,0,0,1,.16.76C20.1,293.55,19.93,294.37,19.78,295.19ZM123,297.51l.42,1.26-.64,1.16c-.07-.12-.22-.26-.2-.37C122.69,298.87,122.85,298.19,123,297.51ZM19.51,26.06a18.91,18.91,0,0,1,7.64-1.79c6.74-.54,13.51-.77,20.27-1.09.66,0,1.81-.16,1.82.57,0,1.12-1.17.73-1.89.78-.94.06-1.88,0-2.93,0-8.18,1-16.58.41-24.8,2.14a2.14,2.14,0,0,1-.61-.06C19.17,26.43,19.3,26.17,19.51,26.06Zm8.19.51-4.76,1-1-.13.6-.26.08,0ZM14.44,28.78c.51-.09.4.33.46.76-.07.09-.21.26-.34.44l-1-.83A4.22,4.22,0,0,1,14.44,28.78Zm-11.79,2c-.08-.17-.25-.35-.23-.51s.21-.32.33-.47l.52.61Zm4,17.38a1.81,1.81,0,0,1-.25-.3,4.61,4.61,0,0,1-.2-.56c-.3-1-.59-2.06-.89-3.09l.13,0,1.32,3.41C6.66,47.91,6.64,48,6.61,48.17ZM10.7,71.62c-.11-.11-.28-.19-.32-.32-.3-1-.57-2.06-.81-3,0-.17,0-.21,0-.23l.13-.25c.34,1.08.68,2.17,1,3.27A1.89,1.89,0,0,1,10.7,71.62ZM13.75,79c-.36-1.3-.68-2.62-1-3.94a2,2,0,0,1,0-.47c.12.1.32.18.36.31,1.87,6.2,4.17,12.29,4.9,19.18a1.75,1.75,0,0,1-.24-.41Q15.77,86.32,13.75,79ZM9.05,58.23A71.21,71.21,0,0,1,7,49.73a1,1,0,0,1,0-.38,3.06,3.06,0,0,1,.34.57c1.81,5.2,3.69,10.37,5.37,15.61,1.93,6.07,3.91,12.16,5.38,18.35.57,2.36,1.19,4.76,1.55,7.19a27.52,27.52,0,0,1-1.51-3.56C15.47,77.64,12.64,67.82,9.05,58.23ZM20.17,94c-.14-.83-.29-1.66-.43-2.48.19.82.37,1.64.56,2.46Zm1.9,11.77c-.12-.47-.44-1.75-.75-3a2.82,2.82,0,0,1,0-.65,2.13,2.13,0,0,1,.43.54,130.33,130.33,0,0,1,3.38,14.6c.22,1.11.5,2.22.72,3.33a3.62,3.62,0,0,1-.08.92,3.41,3.41,0,0,1-.44-.76C24.05,116,22.43,111.46,22.07,105.74Zm3.68,24.94c-.32-2.18-.54-4.38-.79-6.57a1.77,1.77,0,0,1,.1-.54c.1.14.25.27.28.43,1.37,6.83,2.71,13.67,4.09,20.5.46,2.27,1,4.52,1.51,6.78l-.18,0c.23,1.62.47,3.25.69,4.88a1.59,1.59,0,0,1-.1.51c-.06-.14-.13-.28-.18-.43A164.64,164.64,0,0,1,25.75,130.68Zm3.5.46a.79.79,0,0,1,.17.25c.53,2.73,1,5.47,1.55,8.08v2.94c-.17-1-.34-1.91-.49-2.87-.42-2.67-.84-5.33-1.25-8A1.79,1.79,0,0,1,29.25,131.14ZM34,180.19l-.3-1.79c-1.2-4.73-2.25-9.51-3.08-14.33-.65-3.85-1.18-7.72-1.75-11.59,0-.16.11-.34.18-.51.12.12.31.21.37.35a63.34,63.34,0,0,1,3.87,16.39c.38,3.35.61,6.73.88,10.09A7.33,7.33,0,0,1,34,180.19Zm-.27,68.53c.17-1.09,1.36-1.12,1.33-2.47-.11-5.62,0-11.26.34-16.87.19-3.39.82-6.75,1.23-10.13a3.12,3.12,0,0,0-.18-.93l-.61.49-.36.3a2.83,2.83,0,0,1-.05-.5c.08-1.62.64-3.24-.07-4.85-.07-.14.11-.38.18-.58a2,2,0,0,1,.34.46c1.29,3.29,2.78,6.82,2,10.18-.59,2.68.18,5.23-.42,7.21a134.34,134.34,0,0,1-3.38,25.3,5,5,0,0,1-.73,1.3c-.09-.5-.42-1.1-.25-1.48C34.18,253.74,33.32,251.19,33.71,248.72Zm4.36-36c0,.33-.08,1.41-.13,2.49-.42-1-.88-2-1.26-3.06-1-2.71-.13-5.57-.64-8.35s-.68-5.8-1-8.71a1.67,1.67,0,0,1,.09-.42,1.41,1.41,0,0,1,.22.34C36.47,200.67,38,206.22,38.07,212.76Zm-2.5-30.08.57,2.6s0,.05,0,.08c0,.94,0,1.87,0,2.81-.22-1-.44-2-.44-2C35.64,184.28,35.61,183.48,35.57,182.68Zm1.88,60.37s.29.26.27.36c-.16.67-.37,1.33-.56,2-.08-.36-.15-.71-.22-1C37.14,243.89,36.72,243.26,37.45,243.05Zm.24-1.36a.88.88,0,0,1-.12.21,1.39,1.39,0,0,1-.09-.38c.3-4.24.62-8.49.93-12.73,0-.08.1-.16.15-.23,0,.39.07.78.2,2.13-.12,2.32-.25,5.59-.46,8.86A10,10,0,0,1,37.69,241.69Zm-4.86-3a6.65,6.65,0,0,1,.33-.84c.05.3.1.59.19,1.07-.48,1.72-1,3.58-1.53,5.44a2,2,0,0,1-.1.21,1,1,0,0,1,0-.29Q32.25,241.46,32.83,238.67Zm.08,14.58-.7,1.61c-.12-.19-.38-.42-.34-.58.18-.69.44-1.36.68-2C32.66,252.55,32.77,252.85,32.91,253.25Zm-.58,11.83c1.32,1.28,1.87,3,2.71,4.6a1.42,1.42,0,0,1,.16.45s-.23.13-.26.1c-1-1-2.56-1.56-2.43-3.31,0-.53.05-.76-.55-.59a.64.64,0,0,1-.86-.65,4.33,4.33,0,0,1,.57-1.34C31.89,264.58,32.09,264.85,32.33,265.08Zm6.88,6.58a11.9,11.9,0,0,1,1.23,1.56A6.84,6.84,0,0,1,37,271.3c-.61-.77-1.15-1.61-1.72-2.42a.59.59,0,0,1-.09-.3s.13-.05.38-.16C36.73,269.47,38,270.53,39.21,271.66ZM36,265.44c.54.82,1,1.46,1.35,2.11,0,0-.14.19-.21.29-.44-.64-.89-1.27-1.32-1.91C35.83,265.89,35.91,265.77,36,265.44Zm6.55,7.1a12.77,12.77,0,0,1-1.42-1,5.56,5.56,0,0,1-.76-.9l.67-.36,2.21,2.52A5.38,5.38,0,0,1,42.59,272.54Zm3,4.7c.14.15.25.33.38.5l-.69,0c-2.15-.62-4.4-1.25-5.81-3.36a2.14,2.14,0,0,1-.1-.22c.1,0,.21-.08.29-.05C41.78,275,44,275.52,45.62,277.24ZM30.83,263.15l.41.55c-.23.39-.43.75-.64,1.1-.05-.08-.17-.19-.15-.26C30.56,264.07,30.7,263.61,30.83,263.15Zm-.76-12.25c.06.17.21.39.16.5-.35.63.31,1.51-.51,2a6.14,6.14,0,0,1-.39-.53Zm-.3,3c.11.14.34.34.3.42a13.13,13.13,0,0,1-.67,1.15c-.15-.21-.26-.31-.24-.35C29.35,254.76,29.57,254.35,29.77,254Zm-7.48,29.36c-.14.3-.13.85-.66.68a.77.77,0,0,1-.6-1c1.44-4.57,1.4-9.44,3-14,1.39-3.86,2.62-7.77,3.92-11.66a2.27,2.27,0,0,1,.3-.46c.06.17.13.35.18.52.23.82.45,1.65.69,2.55-1,3.05-.86,6.38-2.8,9.39s-3.84,6.3-3.82,9.93C22.53,280.62,22.92,282,22.29,283.31Zm42.65,29.8a6.74,6.74,0,0,1-1.1,0V313c-1.38,0-2.76,0-4.14,0a4,4,0,0,1-.93-.26,3.52,3.52,0,0,1,1-.27,40.36,40.36,0,0,1,5.51.32C65.86,312.87,65.09,313.09,64.94,313.11Zm12.51-.94c-4.55-.2-8.56-.11-12.42-1.36-.13-.05-.26-.12-.38-.18a1.4,1.4,0,0,1,.39-.1c4.31.23,8.62.44,12.93.71.38,0,.74.39,1.11.59Zm24.73-3c-1.07.26-2.15.45-3.3.69l-.28-.11a1,1,0,0,1,.28-.14c1.09-.26,2.19-.52,3.29-.75.54-.12,1.09-.17,1.64-.26A15.73,15.73,0,0,1,102.18,309.21Zm16.86-10c-.92-1.1-1,2.15-2.06.42-.18-.28-.76-.28-.79.18-.34,4.51-4.19,4.83-7.23,5.77-2.49.78-5.2.81-7.82,1.18a4.21,4.21,0,0,0-.48.12,2.3,2.3,0,0,0,.51.1l3.9-.24a2.09,2.09,0,0,1,.53.11,2.28,2.28,0,0,1-.45.26,97.29,97.29,0,0,1-22.61,4.58c-3.11.21-5.64-1.67-8.71-1.5-3.4.18-6.84-.16-10.26-.31-1.08-.05-2.14-.91-3.24-.1a5.33,5.33,0,0,1-.51.31,3.22,3.22,0,0,0,.61.16c.32,0,.7-.1,1,0,.89.41,1.75.91,2.62,1.38a28.44,28.44,0,0,0-2.92,0c-3,.27-5.85-.58-8.78-.75-.37,0-1-.32-1-.59-.13-.54.38-.16.6-.19s.25.18.38.17q3.38,0,6.75-.06c.1,0,.19-.21.29-.32a1.56,1.56,0,0,0-.5-.22,99,99,0,0,1-23-3.19c-4-1.12-8.15-2.09-11.61-4.66a3.86,3.86,0,0,1-.58-.69c.78-.3,1.56-.61,2.37-.85.07,0,.29.37.41.59.27.52-.31,1.48.52,1.6s.76-.85,1-1.38a3.3,3.3,0,0,0,.19-.85c-.19.18-.37.36-.57.53s-.31.21-.46.31c-.09-.74-.48-1.61-.22-2.18,2.3-5.05,2.23-10.72,4.3-15.81.45-1.11.84-2.24,1.35-3.32a1.08,1.08,0,0,1,.92-.45c.47.18.27.61.12,1-2.19,5.86-4.17,11.79-4.21,18.14a5.71,5.71,0,0,0,1,2.34,1.74,1.74,0,0,0,1-.29,4.75,4.75,0,0,0,1.39-2.95.31.31,0,0,0-.08-.23c-1.11-.66-1.27-1.44-.78-3.66.08-.33.12-.66.17-1a11.44,11.44,0,0,0-.68,1c-.18.34.08.9-.53,1a10.23,10.23,0,0,1,.06-1.12c.6-3.67,1.11-7.37,2.91-10.71.34-.64.65-1.37,1.63-1.12.09,0,.33-.22.32-.3-.09-.39-.11-.93-.38-1.13-1-.75-.79-1.45-.07-2.19.3-.32.71-.65.26-1.06s-.59.27-.89.42a2.54,2.54,0,0,1-1,.43c-.64,0-.25-.54-.38-.82s-.34-.69-.51-1a6.34,6.34,0,0,1-1.05.9c-.74.41-.4,2.2-2,1.52a4.31,4.31,0,0,1-.1,1.31,40.51,40.51,0,0,0-3.26,18.79c0,.35-.22,1-.35,1-.73,0-1.22,1.09-2,.49-.47-.34-.4-.87-.43-1.44a44.27,44.27,0,0,1,.36-9.42c.42-2.51,1-5,1.53-7.48,0-.11.05-.31.09-.31,2.58-.26-.08-3.64,2.36-4-.12-.38-.13-.86-.38-1.13-1.93-2.1.48-3.34,1-5,0-.06.35,0,.54,0a1.45,1.45,0,0,1,0,.47c-.16.38-.33.79.12,1,.09,0,.57-.42.65-.71.2-.67.25-1.39.39-2.08.09-.42.24-.84.36-1.25a12.41,12.41,0,0,0,.69,1.3c.68.94,1.4,1.86,2.13,2.77.05.06.23,0,.36,0-.07-.21-.07-.48-.21-.61a4.12,4.12,0,0,1-1.51-3,22.58,22.58,0,0,0,2.7,1.89c1.71.88,2.59,2.5,3.76,3.86a2.21,2.21,0,0,1,.26.65l-.63-.24L37,275.06a1.7,1.7,0,0,0,.29.47,2.37,2.37,0,0,0,.54.23c3.3,1.44,6.12,3.87,9.68,4.76a4,4,0,0,0,.78,0c-.22-.23-.4-.53-.66-.66s-.91-.08-1.1-.33c-.63-.82-2-.53-2.37-1.74,1.15.89,2.56.5,3.83.79,5.19,1.22,10.25,2.82,15.53,3.81a66.28,66.28,0,0,0,7.7.88c-.47-.06-1.51-.2-2.55-.36a.79.79,0,0,1-.53-.32c-.06-.09.12-.33.19-.5a2,2,0,0,0,.51.21c1.68.14,3.36.25,5,.39a11.62,11.62,0,0,1,1.18.2,9,9,0,0,1-1.32.39,19.48,19.48,0,0,1-2.08,0c1.91.11,3.82.2,5.75.33a47,47,0,0,0,13.63-1.37c8-1.81,15.19-5,21-11,.17-.17.14-.53.2-.8a4.05,4.05,0,0,0-1.13.37c-.71.5-1,1.54-2,1.68,0-1,1-1.43,1.37-2.17,1-1.77,2-3.54,3-5.3a3.13,3.13,0,0,1,.51-.52c.1.21.18.43.29.63.74,1.31,3.06,1.82,2,3.75.67,3.69-2.51,4.27-4.28,5.59-6.64,4.92-14.54,6.93-22.35,9.07a1.83,1.83,0,0,0-.28.14c.12,0,.25.12.36.1a68.61,68.61,0,0,0,15.83-4.82,76.66,76.66,0,0,0,9.85-5.53,4.52,4.52,0,0,1,1.25-.35,11,11,0,0,1,.18,2.27c-.07.59-.55-.09-.81.05s-.45.37-.41.45c.7,1.75,1,3.7,1.57,5.33a47.41,47.41,0,0,1,2,9.22,66.68,66.68,0,0,1,.27,7.62A3.29,3.29,0,0,1,119,299.24Zm-91.24-7.5c.05-.41.15-.81.23-1.22l.06,1c-.06.22-.15.59-.25,1A3.72,3.72,0,0,1,27.8,291.74Zm2.74,6.75c.35.12.68.28,1.24.52l-.81.64a10.65,10.65,0,0,1-.64-.86C30.3,298.74,30.5,298.48,30.54,298.49ZM48,277.67c.08-.06.19-.19.23-.17.58.27,1.14.55,1.83.89-.19.14-.3.25-.33.23C49.17,278.31,48.6,278,48,277.67Zm18.66,3.06a1.59,1.59,0,0,1,.62,0c.66.32.43.9.33,1.4,0,.16-.29.4-.4.38-.86-.15-1.72-.34-2.56-.57-.16,0-.27-.31-.4-.48l.81-.4c.47.21.89.41,1.32.59a3.84,3.84,0,0,0,.46.11.86.86,0,0,0,.06-.38A5.35,5.35,0,0,0,66.69,280.73Zm16.7,1.85a2.21,2.21,0,0,1,.53-.35c1.66-.46,3.34-.91,5-1.34a5.33,5.33,0,0,1,.89-.06c-.25.22-.46.56-.75.64-1.75.5-3.5.93-5.26,1.39Zm15.75-4.15a3.62,3.62,0,0,1,.61,0,15.49,15.49,0,0,1-1.84.89c-1,.34-2.08.59-3.12.88.12-.22.19-.58.36-.64C96.47,279.15,97.8,278.8,99.14,278.43Zm-2.24-.29c.19-.23.34-.55.58-.68,3.84-2.16,8.18-3.48,11.38-6.73.08-.09.25-.11.37-.16a.68.68,0,0,1,0,.23c-.17,1.23-7.34,7.11-8.64,7.15-1.06-.47-2,.05-2.91.24A3.37,3.37,0,0,1,96.9,278.14Zm17.86-43c-.05,0-.23-.19-.22-.21.71-1.17.31-2.51.57-3.74.06.42.12.83.18,1.32C114.58,233.29,116.62,234.57,114.76,235.17Zm1.1,29.66a2.21,2.21,0,0,1-.25.75c-.21-.23-.57-.44-.61-.69-.16-1-.22-2.06-.33-3.22.06-.48.14-1.07.21-1.65a2.11,2.11,0,0,1,.76,1.78C115.72,262.81,115.82,263.82,115.86,264.83Zm-.12-9.92a10.62,10.62,0,0,1,1.3,4.21c0,.3-.06.62-.1.94a10.55,10.55,0,0,1-.92-1,1.38,1.38,0,0,1-.09-.66C115.86,257.26,115.8,256.09,115.74,254.91Zm4.29,29.8c.38,2.81.71,5.62,1,7.87-.11,1.63.16,2.74-.65,3.65-.13-1-.31-1.9-.38-2.85-.25-3.06-.46-6.11-.67-9.17a1.45,1.45,0,0,1,.13-.47C119.65,284.06,120,284.37,120,284.71Zm-2-15.21c.18.22.48.42.54.67.49,2.27.93,4.54,1.26,6.15v2.77a11.84,11.84,0,0,1-.78-2.07c-.42-2.23-.74-4.47-1.08-6.72A3.64,3.64,0,0,1,118.06,269.5Zm-.4-6.32c0,.25,0,.51,0,1.08,0-.17,0,0,0,.11.1,1.05.21,2.1.31,3.15-.1,0-.28,0-.29,0a26.84,26.84,0,0,1-.48-4.69C117.24,262.26,117.62,262.89,117.66,263.18Zm-1.47-30.59c0-.17.19-.41.3-.61.1.18.27.34.3.53.28,1.74.53,3.48.77,5.22.08.57.13,1.1-.78,1-.51-.09-.85.11-.78.84.35,3.46.62,6.92.91,10.38a1.59,1.59,0,0,1-.15.5c-.09-.1-.23-.18-.26-.3-.43-2.24-.85-4.48-1.28-6.72,0-2.51-.4-5.08.64-7.39A4.62,4.62,0,0,0,116.19,232.59Zm-.47-46.91a1.83,1.83,0,0,1-.06.25,1.54,1.54,0,0,1-.1-.35c0-2,0-3.93,0-5.89a104.15,104.15,0,0,1,1.55-14.09,3.43,3.43,0,0,1,.3-.72,3.93,3.93,0,0,1,.09.75ZM140,36c-1.61,7.14-4.64,13.75-7.4,20.47a16.53,16.53,0,0,0-.72,2.52c-.15.63-.19,1.28-.29,1.93a15.2,15.2,0,0,0,1.07-1.82c1.9-4.47,3.76-9,5.64-13.42a4.18,4.18,0,0,1,.4-.63,2.55,2.55,0,0,1,.05.72c-1.38,5.76-2.64,11.55-4.25,17.25-.34,1.22-2.33.79-3.54.93-4.77.55-9.57.89-14.35,1.35-.41,0-1.15.43-1.13.57.1.67.74.36,1.11.35,2.67-.1,5.34-.28,8-.41a3.78,3.78,0,0,1,.8.16,2.62,2.62,0,0,1-.71.28c-5,.37-10,.56-14.91,1.17-2.06.25-4.13.46-6.19.7a.84.84,0,0,0-.29.1c.34.06.69.12,1,.2,7.37-.39,14.82-.31,22-1.64,2.11-.39,4.63-1.19,7-1.78,1.14-.29,1.07,0,.81,1a149.42,149.42,0,0,0-4.42,22.5c-.87,7.92-3.32,15.55-5.1,23.31-1.74,7.6-3.66,15.2-4.7,22.9a11.1,11.1,0,0,0,.61,5.77c.42.87-.51.85-.54,1.41-.56,10.54-4.15,20.58-5.14,31a149.54,149.54,0,0,0-.46,21.68c.61,12-.15,23.87-.62,35.78-.14,3.7-1,7.65-.9,11.39.06,4.27-.06,8.57.3,12.84.07.86.17,1.72-.84,2.2-.11.05-.13.65,0,.69,3.16,1.56,1,3.75.35,5.34-2.64,6.75-8.57,10.17-14.49,13.45a42.31,42.31,0,0,1-19.79,5.37,1.6,1.6,0,0,1-1.57-.64c-.13-.2-.53-.25-.82-.32,0,0-.23.21-.21.3.38,2.3-1.27,1-2,1a11.65,11.65,0,0,1-2.82-.56,5.23,5.23,0,0,1-1-.45,5.73,5.73,0,0,0,.79-.48s-.07-.41-.12-.41c-2.25-.11-5.5-1.17-6.57-.09-2.83,2.85-5.34.82-8,.58a5.4,5.4,0,0,1-2.37-1.27c-.51-.38.36-.29.33-.58h0c-1.11-1.77-3.26-1.43-4.75-2.35-2-1.22-3.71-2.77-5.54-4.17a.64.64,0,0,1-.13-.19,1.86,1.86,0,0,1,.48.06c2.73,1.18,5.6,2.08,8,4,.35.28,1.24.48,1.41.29.45-.48-.29-.41-.5-.55-3.12-2-6.26-4-9.36-6.06a8.46,8.46,0,0,1-1.42-1.6l1.54-.65s.09-.15.08-.15a3.47,3.47,0,0,0-2.63,0c-.14,0-.36.3-.33.34a9.86,9.86,0,0,0,.9,1.46A12.13,12.13,0,0,0,43,270.27c-.68.33-1-.31-1.35-.6a29.4,29.4,0,0,1-6.79-6.93,5.19,5.19,0,0,1-.36-.83c.34-.09.71-.32,1-.26,1.22.26,2.41.61,3.61.92.23.05.46.07.69.1-.16-.18-.29-.43-.49-.51-1-.42-2.08-1.18-3.07-1.09-2.47.22-2-1.07-1.66-2.54,1.41-5.71,2.88-11.42,4.16-17.16a46.44,46.44,0,0,0,.69-15.45c-.63-5.44.83-10.71.27-16.11-.7-6.88-1.28-13.76-2.46-20.58a126.16,126.16,0,0,1-1.68-18,86.69,86.69,0,0,0-1.41-12.64c-.45-2.53-1.65-4.92-2.49-7.38-.28-.82-.48-1.59.7-2,.69-.26.46-1.09.38-1.67-1.06-7.69-2.13-15.38-3.92-23-1.65-7-3.36-13.9-5-20.85-.11-.46-.13-1-.25-1.42-.15-.63-.75-1.75-.31-1.8.73-.08.85,1.14.79,1.7-.39,3.28,2.94,5.13,2.94,8.42,0,3.07,1,6.15,1.64,9.21a2.87,2.87,0,0,0,.57,1.17c.67-.2.29-.77.21-1.13-.84-4-1.74-7.88-2.58-11.82-.33-1.55-.26-3.24-.86-4.66a70.38,70.38,0,0,1-4.31-13.81,38.89,38.89,0,0,0-2.72-7.44c-.72-1.76,1.18-3.41.31-5.37-1-2.32-1.68-4.81-2.53-7.22-.27-.78-.11-1.19.77-1.06,5.32.74,10.76.37,16,1.09,6,.82,11.75-.28,17.61-.2,2.7,0,5.41.28,8.11.22s5-1.54,7.74-1.29c0,0,.08-.06.12-.09a2.88,2.88,0,0,0-.63-.15c-6.77,0-13.54.26-20.31.14A154.82,154.82,0,0,1,26,66a2.15,2.15,0,0,0-.69.13c.19.19.34.46.56.55.68.26,1.39.45,2.09.67l2.31.7c-.88,0-1.77,0-2.64-.16a34.6,34.6,0,0,0-8.2-.13c-3.14.28-4.33-1.88-5.17-4.55a92.81,92.81,0,0,0-4.65-13C7.74,46.43,6.76,42.36,5,38.59c-.55-1.15.14-2.71-1.26-3.52,1.27-1.26-.86-2.56-.26-3.24a6.34,6.34,0,0,1,3.47-1.47c2.52-.45,4.88-1.32,7.49.78s6.25,2.44,9.72,2.19c.42,0,1,0,1-.57s-.54-.57-1-.6-.85,0-1.28,0c-.64,0-1.29-.1-1.93-.15a9.26,9.26,0,0,0,1.18-1.07c.17-.21.13-.58.19-.88-.32,0-.71-.09-.93.06a5.29,5.29,0,0,1-4.09.75,1.39,1.39,0,0,1-1.25-1.55,1,1,0,0,1,1.16-1.17c4.36-.12,8.83-.83,13-.6s8.36-1.11,12.56-.73c.42,0,.84,0,1.27,0-.38.11-.75.23-1.14.31-3.19.65-6.38,1.28-9.56,1.95-.3.07-.53.42-.8.64.31,0,.62,0,.93-.08,3.2-.61,6.4-1.26,9.61-1.83,2-.37,4.15-1,6.17-.86,6.11.52,12.11-.76,18.19-.78,7,0,14-.35,21,.13,2.87.2,5.71.67,8.56,1,.47.06.91.1.95.8.08,1.56.92.4,1.49.4,1.73,0,3.47.07,5.2.13l15.79.55a3.33,3.33,0,0,1,.76.24c-.25,0-.5.07-.74.12-3.68.73-7.33-.28-11-.2a5.84,5.84,0,0,0-1.33.36c.39.07.78.15,1.18.2,5.1.55,10.81-.13,15.12,2,3.92,1.94,8.17.11,11.62,2.61.16.11,1.67-.54,2.62-.39S140.3,34.69,140,36Z"/><path d="M35,82.5c-3.14.1-5.75.13-8.35.28-2.39.13-4.85-.77-7.26-1.25-.14,0-.35-.52-.29-.6.39-.45.78-.11,1.22,0a17.11,17.11,0,0,0,4.35,1c1.54,0,1.27-1.44,1.11-2.48-.23-1.54-.57-3.07-.84-4.6a3.39,3.39,0,0,1,0-.9s.37-.1.43,0c.25.27.66.64.62.89-.41,2.22.45,4.32.58,6.48,0,.16.34.42.52.42,3,0,5.91,0,8.86.1.44,0,.65,0,.8-.5s0-1.2.81-1.19c.25,0,.71.12.72.23.07.66.29,1.47,0,2-1.27,2.19-.13,4.7,2.29,4.85,1,.07,1.9.24,2.85.36-.94.08-1.88.12-2.81.23-.71.09-1.67-.28-2,.67a5.26,5.26,0,0,0,0,1.73A10.93,10.93,0,0,0,38,88.4,1.1,1.1,0,0,0,37.1,88c-2.93.3-5.88.55-8.79,1-2.51.41-4.39-.9-6.37-2-.23-.12-.44-.83-.32-1,.44-.5.48.18.68.36a4.87,4.87,0,0,0,4,1.33c.95-.19,0-1.59.27-2.41a2.53,2.53,0,0,0,.07-.48c.08.13.23.27.23.41-.08,3,1.74,2.88,3.87,2.51,1.34-.24,2.75-.1,4.06-.4,1-.22,2.84.68,2.68-1.46C37.35,84.1,37.71,81.62,35,82.5Z"/><path d="M38.79,93.88c0-.73.06-1.23.09-1.74a7.3,7.3,0,0,1,.22,1.28c0,2.21,1.41,2.52,3.17,2.38a1.85,1.85,0,0,1,.58.18l-.56.15c-1,.25-2.48-.31-2.68,1.46-.12,0-.35-.06-.35-.1,0-1.43-1-1.38-2-1.33a67.58,67.58,0,0,1-6.82.16c-2.53-.14-2.12,1.42-2,2.91a13.62,13.62,0,0,1,.31,1.46c0,2.48,1,3.52,3.57,3.17,2.33-.32,4.74-.35,6.84-1.46,1-.5.2-1.71.29-2.59a1.93,1.93,0,0,1,.11-.34.91.91,0,0,1,.11.3c-.06,3.84,2.53,2.38,4.48,2.26.78,0,1.57,0,2.36,0,0,0,.05.14.08.21-.73.09-1.45.15-2.18.26-4.21.65-8.41,1.63-12.65,1.86-2.75.15-2.28,1.36-1.93,3a8.53,8.53,0,0,1,0,1.52c-.1-.43-.2-.86-.28-1.29-.57-3.37-1.1-6.74-1.73-10.1-.44-2.39-2.92-1.14-4.14-2.18-.4-.34-.86-.63-1.29-1a10,10,0,0,1,1.46.31c3.87,1.48,3.86,1.49,3.43-2.7a14.93,14.93,0,0,1,0-1.77,6,6,0,0,1,.33,1.68C27.42,95.15,29,96.12,32,95.75a52.16,52.16,0,0,1,6-.12C39.74,95.62,38.28,94.2,38.79,93.88Z"/><path d="M104.07,56.21c-4.6-1.89-8.89-.13-13.14,1.73-1.05.45-1.94,1.28-3.21,1l2.92-1.79a29.46,29.46,0,0,0,3.16-2c1.46-1.18,3.28.66,4.71-.71.37-.36,1-.4,1.57-.6s1.33-.82,1.7,0-.69.66-1.07,1l-.33.3a2.26,2.26,0,0,1,.45,0c1.48.39,2.1-1.6,3.42-1.33.78.16,2.15.06,1.87,1.6C105.87,56.69,104.82,55.51,104.07,56.21Z"/><path d="M117.05,62.09a2,2,0,0,1-2.23-1.21,1.57,1.57,0,0,1,.39-2c1.15-.76,2.14.14,3.18.47l.68.23c.17-.65.45-1.32,1.14-.53a1.36,1.36,0,0,1-.24,2.09A3.74,3.74,0,0,1,117.05,62.09Zm.4-2.49c-.53.11-1,0-1,.64a1,1,0,0,0,1.14,1.16c.48-.06.91-.62,1.37-1Z"/><path d="M31.94,124.18c0-.48.07-.72.09-1a4.3,4.3,0,0,1,.13.7c.2,3.1,2.6,4,6.64,2.49,2.1-.77,4.24-1.43,6.37-2.13a1.48,1.48,0,0,1,.51,0,2.4,2.4,0,0,1-.38.27c-3.77,1.62-7.54,3.2-11.73,3.45-1.33.08-.58,1.21-.54,1.94,0,.3,0,.61-.05.91a6.77,6.77,0,0,1-.22-.77C32.47,128.06,32.2,126,31.94,124.18Z"/><path d="M36.43,116.07a34.5,34.5,0,0,1-6.46-.56c-1.37-.36.71-.46.47-1.21a13.33,13.33,0,0,1-.27-3.12,1.54,1.54,0,0,1,.11-.46,1.5,1.5,0,0,1,.18.41c.17,1.06.36,2.13.49,3.2s.55,1,1.46,1c2.49-.14,5,0,7.49-.09.61,0,1.56.4,1.44-.87,0-.06.16-.13.24-.2.1.15.26.28.3.45.13.55.13,1.18,1,1,.1,0,.24.16.37.24-.27.11-.54.33-.8.32-2-.09-4-.23-6-.35Z"/><path d="M58.12,63.83c-.55,0-1,0-1.4-.09-.63-.06-.68-.54-.67-1,0-.21.1-.57.23-.61.51-.17.51.35.72.62.7.89,1.57.38,2.34.14.56-.17,1-.61.81-1.29-.33-1-.9-.31-1.43-.2-.17,0-.54-.34-.64-.61s0-.81.07-.85a2.18,2.18,0,0,1,2.1.13c.83.61,1.67,1.19,1.07,2.44C60.6,64,59.22,63.68,58.12,63.83Z"/><path d="M16.78,45.6c-.06-1.17.31-1.64,1-1.81.33-.09.87-.18,1,0,.48.56-.14,1-.39,1.4a1.35,1.35,0,0,0,0,1.45c.19.36.55.58.78,0,.09-.22,0-.52.08-.75s.31-.44.43-.42a.85.85,0,0,1,.51.44,1.63,1.63,0,0,1-.4,1.8,1,1,0,0,1-1.19.37A2.4,2.4,0,0,1,16.78,45.6Z"/><path d="M111.41,69c-.39,1.13-1.06.37-1.58.41-2.87.23-5.73.46-8.6.67a1.65,1.65,0,0,1-.51-.15c.14-.11.28-.29.44-.3,3.24-.31,6.49-.6,9.73-.88C111.05,68.73,111.23,68.9,111.41,69Z"/><path d="M114,41.72a1,1,0,0,1,1.25.82c.21.83.06,1.61-.92,1.88a.85.85,0,0,1-.73-.2c-.13-.16-.07-.5,0-.75a3.7,3.7,0,0,1,.28-.69,4.43,4.43,0,0,0-.92.24c-.42.24-.31,1.28-1.15.82-.18-.09-.22-.66-.13-1C111.87,42.14,112.15,41.34,114,41.72Z"/><path d="M39,57.77c-1.41.45-2.69-.36-4-1.09-.25-.15-.33-.58-.49-.88.39,0,1-.09,1.13.11,1.23,1.85,3.15,1.4,4.89,1.54.3,0,.61,0,.91,0a7.3,7.3,0,0,1-1,.27C40,57.8,39.56,57.77,39,57.77Z"/><path d="M31,55.61a5.42,5.42,0,0,0,3.71,2.84s-.07.15-.11.15a5.85,5.85,0,0,1-3.41-1.1A8.73,8.73,0,0,1,30,56.23Z"/><path d="M17.3,61.77c-.35-.46-1.49.63-1.66-.6-.06-.47,0-1.23.85-1a12.77,12.77,0,0,1,2,.81C18.17,61.28,18.27,62.06,17.3,61.77Z"/><path d="M28.85,129.9c.08-.35.12-.5.15-.66.2.87.41,1.74.58,2.61,0,.14-.13.31-.21.46C29.18,131.46,29,130.6,28.85,129.9Z"/><path d="M31.59,119.36c-.8-.67-.45-1.63-.64-2.45,0-.06,0-.14.06-.21.1.12.28.24.3.38.11.75.19,1.52.28,2.28Z"/><path d="M65.21,71.18l1.85.17c-.67.07-1.34.15-2,.19-.15,0-.31-.11-.47-.17Z"/><path d="M85.57,59.64c-.53.31-.88.53-1.24.71-.07,0-.22-.11-.33-.17.34-.18.68-.37,1-.53C85.12,59.6,85.26,59.64,85.57,59.64Z"/><path d="M50.68,281.88l1.28-.2s0,.15,0,.23l-1.34,0Z"/><path d="M31.59,119.36a2.17,2.17,0,0,0,0,.25l.27,2h-.18c0-.75-.08-1.51-.13-2.26Z"/><path d="M30.81,300.68c-.22-4.28,2.08-8.34,3.84-12.54.33-.79.69-2.24,2-1.54s-.15,1.75-.47,2.21c-2.29,3.37-2.45,7.42-3.62,11.12a4.38,4.38,0,0,1-.68,1.89c-.29.32,0,1.11.57,1.3.83.26,1.15-.43,1.49-1a7,7,0,0,1,.74-.89c.43.44-.07.73-.22,1-.47.92-.87,2.36-2,2.17C30.77,304.14,31.21,302.42,30.81,300.68Z"/><path d="M41.64,296.06c-.09.8-.17,1.41-.21,2a7.69,7.69,0,0,0,0,1l.79-.62.32-.22c0,.12.09.29,0,.35-.62.73-1.27,1.43-1.92,2.12,0,0-.45-.27-.43-.36.28-1.41.6-2.81.93-4.21,0-.14.19-.26.29-.39Z"/><path d="M30,290.46c.65-1.55.75-3.3,1.86-4.68.26-.32.51-.74.93-.38a.71.71,0,0,1-.07,1.18c-1.79.74-1.52,2.6-2.26,3.9a4.71,4.71,0,0,1-.33.45C30.08,290.78,30,290.63,30,290.46Z"/><path d="M46,291.9c-.54,1.15-1.13,2.42-1.74,3.68-.06.11-.26.16-.39.23a.6.6,0,0,1,0-.23c.44-1.34.87-2.68,1.34-4,.08-.24.34-.42.52-.62C45.82,291.21,45.89,291.46,46,291.9Z"/><path d="M70.63,289.85l-1.91-.32c1.16-.12,2.31-.25,3.47-.36a3.7,3.7,0,0,1,.57.07Z"/><path d="M31,276.37l1.44,1.18c-.1.09-.27.27-.3.25-.48-.36-1-.74-1.43-1.12Z"/><path d="M46.07,284.3l-.48-.3a1.9,1.9,0,0,1,.58-.23c.15,0,.31.14.47.22Z"/><path d="M24.57,264.72c-.39,1-.41,2.1-1.26,2.84-.07-.11-.21-.24-.19-.32.37-1,.77-2.06,1.15-3.08Z"/><path d="M67.81,267.75c-5.89,0-11.55,0-17.32-1.47a57.92,57.92,0,0,1-16-6.9c-.29-.18-.52.25-.26.45,9.14,6.65,22.34,10.62,33.63,8.55C68.25,268.31,68.16,267.75,67.81,267.75Z"/><path d="M64.32,260.58c-7.35-1.42-14.39-2.64-21.39-5.44-.49-.2-.7.59-.22.78,6.71,2.75,14.21,5.18,21.51,5.4C64.64,261.33,64.75,260.66,64.32,260.58Z"/><path d="M60.9,248c-5.11-.78-10-1.49-14.94-3.21-.49-.18-.7.6-.21.77,4.77,1.71,10,3.1,15.08,3C61.13,248.58,61.23,248.08,60.9,248Z"/><path d="M59,240.34a86.57,86.57,0,0,0-9.17-2.15c-.58-.13-.83.77-.24.91a89.58,89.58,0,0,0,9.31,2C59.38,241.13,59.41,240.47,59,240.34Z"/><path d="M57.68,227.52a46.94,46.94,0,0,0-5.93-1.1c-.54-.1-.77.74-.23.83a48.26,48.26,0,0,0,6.08.93C58,228.2,58,227.63,57.68,227.52Z"/><path d="M57.76,186.15c-3.71-.41-7.5-.28-11.23-.32a.32.32,0,0,0,0,.63c3.73.1,7.5.36,11.23.09A.2.2,0,0,0,57.76,186.15Z"/><path d="M71.69,174.22c-4.1.11-8.16.5-12.27.33a70.16,70.16,0,0,1-13-1.79c-.52-.12-.74.68-.22.8,8.12,1.9,17.31,3,25.52,1.06A.2.2,0,0,0,71.69,174.22Z"/><path d="M68.82,160.93c-9.78.51-19.33,1-29.11,0-.43,0-.42.61,0,.66,9.57,1.1,19.65,1.55,29.2,0C69.27,161.51,69.18,160.91,68.82,160.93Z"/><path d="M120.58,86.4c-4,.22-7.93.53-11.92.5a.34.34,0,0,0,0,.68,68.61,68.61,0,0,0,12-.72C120.9,86.82,120.84,86.39,120.58,86.4Z"/><path d="M124,94.55c-3.4-.12-6.82.18-10.22.35-.48,0-.48.77,0,.75,3.42-.17,6.88-.22,10.27-.69C124.27,94.93,124.2,94.56,124,94.55Z"/><path d="M121.63,60c-1-.44-3.08-.89-4.18-.41a1,1,0,0,0-.27,1.83c.38.28.87-.35.51-.65-.1-.08.59-.28.67-.29a4,4,0,0,1,.91.1,10.25,10.25,0,0,1,1.55.36c.29.1.53.11.62.43s-.14.47-.48.56a8.55,8.55,0,0,1-1.52,0,.4.4,0,0,0-.2.74,2.31,2.31,0,0,0,3.18-.3A1.53,1.53,0,0,0,121.63,60Z"/><path d="M65.17,222.07a.05.05,0,1,0,0,.1A.05.05,0,0,0,65.17,222.07Z"/><path d="M54.28,207.07c-.24.07-.48.08-.71.16a5.38,5.38,0,0,0-.55.24c-.42.18-.84.37-1.26.58-.75.37-.09,1.52.66,1.12.41-.21.81-.44,1.2-.68a5.24,5.24,0,0,0,.51-.3c.19-.15.33-.33.52-.48S54.62,207,54.28,207.07Z"/><path d="M77.8,232.91a.7.7,0,0,0,0,1.4A.7.7,0,0,0,77.8,232.91Z"/><path d="M70.43,202.3a.78.78,0,0,0-.51-.27.58.58,0,1,0,0,1.12.88.88,0,0,0,.51-.27A.41.41,0,0,0,70.43,202.3Z"/><path d="M70.49,264.92a.36.36,0,0,0-.69,0,14.82,14.82,0,0,0-.21,1.63c0,.71,1.16.72,1.11,0A14.82,14.82,0,0,0,70.49,264.92Z"/><path d="M55,95.07a2.51,2.51,0,0,0-2.88.63c-.55.57.34,1.45.86.86a2.62,2.62,0,0,1,1.85-.86C55.12,95.68,55.32,95.22,55,95.07Z"/></g></g></svg>