<svg xmlns="http://www.w3.org/2000/svg" viewBox="0 0 160.84 286.62"><defs><style>.cls-1,.cls-2{fill:#fff;}.cls-1,.cls-5{opacity:0.8;}.cls-2{opacity:0.9;}.cls-3{opacity:0.3;}.cls-4{fill:#171522;}.cls-6{fill:#88171a;}.cls-7{opacity:0.1;}.cls-8{fill:#d1cac3;}</style></defs><g id="圖層_2" data-name="圖層 2"><g id="Layer_1" data-name="Layer 1"><path class="cls-1" d="M33.9,280.09c3,3.4,9,5.45,13.6,4.13.52.22,1,.42,1.52.6,3.56,1.31,7.44,1.17,10.55-1.26a7,7,0,0,0,1.37-.49l.23-.14a8.86,8.86,0,0,0,4.63-1.38,9.27,9.27,0,0,0,2.56-1.27c1.43.61,2.86,1.08,4.12,1.48a27,27,0,0,0,7.19,1.58,9.19,9.19,0,0,0,8.06-2c.3-.11.6-.23.89-.37a11.23,11.23,0,0,0,6.45,3.34c.23.08.45.16.68.22,3.5.91,7.87.33,9.91-3.59l.76-.24a10.4,10.4,0,0,0,1.29,1c6.75,4.43,15.72,1.22,19.65-6.44a22.72,22.72,0,0,0,2.33-10c3.2-1,2.3-6.53-.4-7.69l-.72-.3a20.18,20.18,0,0,0-.75-2c-1.2-2.69-3.43-3-5.74-3.82-1.86-.65-3.44.71-4.11,2.5a57,57,0,0,0-18.92-.9,3.6,3.6,0,0,0-2.64,1.59l-.12-.06a2.67,2.67,0,0,0-3.31.86,12.74,12.74,0,0,0-1.59-.5c-2.44-.6-5-.59-7.07,1.31a7.74,7.74,0,0,0-3.09-1.47,5.76,5.76,0,0,0-2.89.16,18,18,0,0,0-1.92-.48c-4.26-.78-8,.29-12.1,1.55-4.67,1.44-9.53.43-14.26-.12-4-.46-9.06-2.05-12.74.51-3.14,2.18-4.56,6.71-5.49,10.64C30.75,271.62,30.87,276.65,33.9,280.09Zm86.73-9.76a5.23,5.23,0,0,0,.76-.18l.37-.16.08,0a10.2,10.2,0,0,1-.67,1.46A9.2,9.2,0,0,0,120.63,270.33Zm-57.53-5-.29.24a3.66,3.66,0,0,0-2,1.87,9.47,9.47,0,0,0-1.65-1.13,10.49,10.49,0,0,0-1.14-.73A24.11,24.11,0,0,0,63.1,265.29Zm-12.86-.53a7.26,7.26,0,0,0-1.35.71,10.56,10.56,0,0,0-1.32-1Z"/><path class="cls-2" d="M141.64,13.8c-10.21-2.67-19-9-30-7.69a24.89,24.89,0,0,0-14.11,6.31c-1.29-.63-2.62-1.33-4-2C86,6.62,79.82,8.38,73,12.53c-6,3.67-14.18-3-21.54-.85a15.33,15.33,0,0,0-5.67,3.07c-7.83-3.5-16.63-4.4-23.73,2-.27.25-.51.52-.77.79-.26-.26-.52-.5-.78-.74-6-5.43-14.72-1.43-15.35,6.34a39.78,39.78,0,0,0,.43,9.76c-.71,5.4,0,10.66,4.5,14.64.18.16.37.3.56.45.91,4.73,3.39,8.89,8,11.07,3.43,7.4,12,11.7,20.31,10.28,7.58,2,15.57,1.64,23.37,1.05,10.64-.82,21.21-2.31,31.74-4,10.08-1.62,22.25-2.7,32.39-6.92,5.07,3.17,10.58,4.24,15.75-.15,4.4-3.72,4.77-9,5.2-14.39.59-7.31.87-14.64,1.27-22C148.88,18.88,145.53,14.81,141.64,13.8ZM37.93,32.43a15.2,15.2,0,0,0-.4-1.79l1.56.89C38.7,31.82,38.31,32.12,37.93,32.43Z"/><g class="cls-3"><path class="cls-4" d="M3.52,73.68a1.3,1.3,0,0,0-.55.1,4.84,4.84,0,0,1-1.83.28A3.51,3.51,0,0,1,3,74.37a3.57,3.57,0,0,0,1.53,0c.28-.11.92-.25,0-.37a1.62,1.62,0,0,1-.79-.22S4,73.68,3.52,73.68Z"/><path class="cls-4" d="M9.08,90.14c-.95,0-1.32.06-1.44.18s.49.26,1.22.35C8.45,90.48,8.35,90.3,9.08,90.14Z"/><path class="cls-4" d="M7,79.51c-.3-.1-.26-.28-1-.3-.45,0-.3.14-.42.21s.41.14.86.17S7.14,79.58,7,79.51Z"/><path class="cls-4" d="M8.88,88.43c.22,0,.1-.08-.12-.11-.42,0-.5-.15-1.25-.21a5.21,5.21,0,0,0,.65.29A1.87,1.87,0,0,0,8.88,88.43Z"/><path class="cls-4" d="M3.42,99a1.85,1.85,0,0,0,1.41.55c.34-.09,1-.09.24-.63-.29-.2-.57-.46-.57-.66s.31-.1-.11-.28-.4,0-.58,0a3,3,0,0,1-1.9-.17C3,98.23,3.28,98.61,3.42,99Z"/><path class="cls-4" d="M10,127.13c-.83.42-1.07.72-1.06,1s.69.17,1.38-.07C9.76,128,9.5,127.72,10,127.13Z"/><path class="cls-4" d="M4.62,109.13c-.28-.23-.18-.53-.86-.67-.44-.09-.35.21-.49.32s.38.33.81.43S4.79,109.27,4.62,109.13Z"/><path class="cls-4" d="M8.23,124.37a8.32,8.32,0,0,0-1.3.1,3.89,3.89,0,0,0,.8.26,1.08,1.08,0,0,0,.67-.24C8.59,124.36,8.44,124.32,8.23,124.37Z"/><path class="cls-4" d="M15.81,160.79c.28-.38.91-.81,0-1.25a1.37,1.37,0,0,1-.8-.76c0-.14.24-.38-.21-.41s-.39.21-.55.33c-.49.36-.65,1-1.83.89a1.89,1.89,0,0,1,1.9,1.1A1.17,1.17,0,0,0,15.81,160.79Z"/><path class="cls-4" d="M24.91,212.54c-.93.16-1.24.51-1.31.92-.08.58.63.74,1.39.86A1.14,1.14,0,0,1,24.91,212.54Z"/><path class="cls-4" d="M18.81,177.92c-.32-.33-.32-.9-1-.95-.45,0-.28.48-.38.72s.45.46.9.53S19,178.13,18.81,177.92Z"/><path class="cls-4" d="M23.64,206.69c-.43-.06-.56-.39-1.32-.43a5.81,5.81,0,0,0,.77.83.65.65,0,0,0,.71-.08C24,206.85,23.87,206.72,23.64,206.69Z"/><path class="cls-4" d="M53,268.2c-.14.32-.37.64-.61.7s-.26-.24-.32.18.13.36.2.52c.23.47.65.66.52,1.74.14-1.12.51-1.46,1-1.69a1.32,1.32,0,0,0,.17-1.41C53.63,268,53.36,267.35,53,268.2Z"/><path class="cls-4" d="M91.64,262.54c.15.87.42,1.18.73,1.25s.51-.55.56-1.25C92.57,263,92.17,263.15,91.64,262.54Z"/><path class="cls-4" d="M66.51,266.37c-.25.28-.67.25-.73.89,0,.42.34.29.52.4s.35-.39.41-.8S66.67,266.2,66.51,266.37Z"/><path class="cls-4" d="M87.42,263.39c0,.4-.27.5-.28,1.21a4.82,4.82,0,0,0,.59-.68.76.76,0,0,0-.09-.66C87.53,263.06,87.44,263.18,87.42,263.39Z"/><path class="cls-4" d="M131.69,67.06a1.3,1.3,0,0,0,.21-.09c.22-.1.47-.22.69-.34l0,0-.19.08A7.5,7.5,0,0,0,131.69,67.06Z"/><path class="cls-4" d="M147.88,86.38a22,22,0,0,1,3.24.49c-.82-.22-2-1-3-1.17.48-.11,1.13-.44,1.73-.53a17.49,17.49,0,0,0-2-.6,6.47,6.47,0,0,1,2.53-.63c-.54-.21-1-.67-1.5-.87,1.11-.32,1.32-.92,2.14-1.33a13.31,13.31,0,0,1-3.07-1,9.24,9.24,0,0,0,1.52-.32,10.72,10.72,0,0,1-1.2-1.24,8.92,8.92,0,0,0,1.07-.2,18.93,18.93,0,0,1-1.75-2.25c2.5,2.26,2.08-3.58,2-4.6a15.39,15.39,0,0,0-4.94-9.38c-2.06-1.91-9.29-4-10.06-6.29-2.27-.53-4.48-1.77-6.73-2.16.34.35.63.88,1,1.27-3.44-.35-6.17-.22-9.67-.88-3.74-.7-7.18-.15-10.92.31-2.39.29-31,1.7-31,1.13-2.43,2.41-5.35,1.21-8.38,1.09C63,57,53.22,63.55,48,58.71c-1.4,2.2-4.27,3.27-6.92,3.19-.09-.67-.62-1.43-.58-2.15-.69,3.33-7.49,3.47-10,4.13a12.51,12.51,0,0,0-2.21.49c0-.78-.57-1.57-.39-2.48C20.86,65.68,14.51,65.07,7,67c.33.46.36,1.51.72,2-.57.17-1.14.71-1.72.87.45.66.25,1.16,1,1.81a27.32,27.32,0,0,0-4.13.55c1.61.24,3.34.59,4.23,1.86a21.67,21.67,0,0,1-2.82.77c.79.26,1.48,1,2.22,1.23-.63.2-1.31.72-2,.89.9.05,1.86.55,2.75.64a8.82,8.82,0,0,0-.82.53c1,.39,2.19.63,3.24.94a10.77,10.77,0,0,1-2.45,1l.57.42-.61.37a2.27,2.27,0,0,1,1.11,1.28,5,5,0,0,1-1.77.51c.53-.12,1.7,1.17,1.94,1.5a6.82,6.82,0,0,0-.58.49,39.08,39.08,0,0,1,3.49,2.25c-.72-.08-1.56.07-2.32,0C10.55,87.22,11,88,11.68,89c-.51.21-1,.74-1.55,1,.69,2.16-1.24,4-1.42,6.13-.92-.28-2.22-.09-3.13-.44a9.92,9.92,0,0,1,2,4c-5.25.41-1.8,6.79-.49,9.26-3,.92-2.26,3.55-1.38,5.67-.51.06-1.09.27-1.59.31.8.68,1.39,1.82,2.31,2.44-.28.29-.56.57-.86.85a11.59,11.59,0,0,0,3.55,3l-.94.62A49.54,49.54,0,0,1,20,144.31c-1.12-.15-2.26.32-3.32.29.5.61.49,1.19,1.26,1.77a8.65,8.65,0,0,0-1,3.88c.68-.16,1.39.16,2,.06a4.52,4.52,0,0,1-.42,3.07c1.4-2.37-4.84-.94-5.54-.32a3.45,3.45,0,0,0,1.77.93c-.14.35-.24.86-.34,1.14,1.63-.4,3,.16,3.1,1.74,1,.35,1,.69,1.65,1.15a16.94,16.94,0,0,1-2.07.94,3.51,3.51,0,0,1,3.27,1.45,6.45,6.45,0,0,1-1.76.32c-.25-.3.15-.53,0-.75a9.1,9.1,0,0,0-1.79.48c.09.22.49.6.5.81a8.38,8.38,0,0,0-2.5.77c2.43,2.59,6.2,5.74.34,7.25.92,1.71,2.93,1.31,4.57,2-2.77,1.19-2.85,4,.6,3.57a4.52,4.52,0,0,0-.34.51,2.82,2.82,0,0,1,3.18.78c-.6,0-2.14.45-2.88.4a3,3,0,0,0,3.23,1c-1.87.38-2.54,1.73-5.48,1.59,1.69.37,3,1.39,2.34,2.91-.57-.16-1.42,0-2-.08.49,1.74.37,1-.18,2.56,1.7,1.94,5.15,1.51,3.92,5.08-.19,0-1,0-1.23-.07a8.66,8.66,0,0,1,.11-1c-.26-.34-.92-.22-1.11-.53,0,0,.17-.68.15-.78a4.42,4.42,0,0,0-2.1-.12c.24.29.7.15.94.45s-.51.6-.35,1a7.28,7.28,0,0,1,1.3.59,9.58,9.58,0,0,0-.26,1.87c1.84.51,4.14,1.08,4.2,3.18-1.42-.23-2.35-.83-4.07-.42.65.27,1.33,1.06,2,1.38-.43.22-.87.56-1.29.76.43,1,.58,1.33,1.73,1.7,0-.21-.5-.39-.33-.6s.94-.44,1.11-.76c-.26,1.77,2.31,5.41,3.84,6.12-1.92.27-3.3-1-4.75-2-.12,2,9.14,5.46,3.18,6.26A22.82,22.82,0,0,1,28,208c-.12.44-.55,1.67-.74,2.13-1,.38-1.87,1.21-2.92,1.56a3.11,3.11,0,0,1,3.51,1.6c-.62.34-1.42,1.43-2.21,1.7,1.74,1.92,3,2.91,2.79,5.36-.4.19-1,.64-1.39.81-.76,3.34.44,7.68,2.09,10.79a7.83,7.83,0,0,1,1.21-.19c-.9.71-.51.95-.94,1.69.35,0,1,0,1.48,0,.2.82.35,1.18.62,2a5.87,5.87,0,0,1-1.49.31c.33.21.69,1,1.35,1.37-.44.43-1,1.88-1.35,2.22a4.69,4.69,0,0,1,1.71-.1c-.7,2.16,1.49,2,2.29,3.71,1.08,2.26-.23.64-.4,3a31.43,31.43,0,0,0,.17,3.65,15.38,15.38,0,0,1-.82,5.07c5.44-.72,2.74,8,2.12,10.33.68-.2,1.78-.31,2.29-.51,0-.31-.13-.62-.08-.94a4,4,0,0,1,1.17,1l.51-.83c.14.14.44.72.62.81.61-.5,2-.83,2.55-1.42a31.37,31.37,0,0,1-.08,3.48,4.44,4.44,0,0,0,.63,0c.3-.45.61-1,.86-1.42a3.84,3.84,0,0,1,.46,1.13c.32,0,.51-.66.76-.59a3.38,3.38,0,0,0,1.58.95c-.25-.92.14-1.34.14-2.12.34-.1.44.48.73.55.5-.27.5-.77,1.13-.81a2.18,2.18,0,0,1-1.33,2.64,6.93,6.93,0,0,1,.92,4c.11-.61.66-1.57.86-2.22.36.12.49.38.81.38-.34-2.12,1.43-3,2.49-4.22.12.6.57,1.4.67,1.81-.19-1.38.41-1.75,1.13-2.82.08,1.6-.4,1.7-.21,3.31.1.16.49-.4.62-.39a11.88,11.88,0,0,0,.39,2.33,9.4,9.4,0,0,0,2.7-3.19c2,0,2.5,1.63,2.63,3.26-.05-.53,1.51-2.74,1.71-3.45a8.31,8.31,0,0,1,1.16,1.59c1.72-1.4,1.67-3.08,2.43-5.06,0,.81.37,1.65.42,2.44.13-.87.65-1.73.76-2.65,1.24,1.39,1.23,3.28.87,5a15.34,15.34,0,0,1,1.14-2.39c-.11-.17,1,.07,1,.11-.15.66,0,1.42-.06,2.1.28,0,.76-.5,1-.65.3.33.49.86,1,.94a6.17,6.17,0,0,0,1.1-3.49c1.58-.56,2.63-.32,2.56,1.19-1.41.11-2,1.07-1.84,2.58.8-1.11.27-.21,1.08-.46a2.62,2.62,0,0,1,.59-1.05,10.52,10.52,0,0,1,1.12.21c.23-1.52.72-3.07,2.35-3.64a15.2,15.2,0,0,0-.26,3.71,18.11,18.11,0,0,1,1-1.7,5.49,5.49,0,0,0,.55,1.08c1-.4.9-.45,1.23-1.44,0,0-.33.42-.35.35-.17-.29-.32-1.08-.56-1.29,1.53.31,2.44-.47,2.86-2,.27-.23.51.34.81.26.19-.48.35-1,.56-1.48a7.33,7.33,0,0,1-1.1,4.38c2.16-.32,1.53-3.12,2.63-4.76,1,.94,1.35.81,1.62,2.29a13.47,13.47,0,0,1,.93-2.77A6,6,0,0,1,89,260.5c.09-.09.09-.83.4-.74A11.06,11.06,0,0,1,91.07,263a2.57,2.57,0,0,1,1.13-3.08c.19.6,1,1.39,1.22,2,.41-.92,1.49-1.56,2-2.35.72.09,1.36.06,1.76.08.18.41.51.9.67,1.32a5,5,0,0,1,1.79.45c.35-.18.51-.47.84-.65a5.84,5.84,0,0,0,5.13-1.19s-.2-1-.21-1.06a4.54,4.54,0,0,1,.78,1,.84.84,0,0,0,.5-.08,8.44,8.44,0,0,1-.1-1.36c.19-.06.65.57.84.37.26,0,.34-.69.58-.82a8.27,8.27,0,0,1,.36,1.37c0-.07.7-.88.89-1.18.28.33,1.35,1,1.64,1.36a12.35,12.35,0,0,1,0-1.49c1.27.64,1.68.06,2-1.51.4,0,.47.42.8.51a1.34,1.34,0,0,1,.35-1.36,8.11,8.11,0,0,0,3.5,1.16,4.36,4.36,0,0,1-.75,1.13,5.07,5.07,0,0,0,1.86,1.1c-.1-.87.56-1.9.53-2.74.75.46,2.08.53,2.83,1-.41-2.6,3.28-3.82,4.51-6a32.28,32.28,0,0,0-3.8.08c-.71,1.92-2.27,1.88-3.32,3.47.29-2.28,1.32-4.61,1-6.94a7.2,7.2,0,0,1,.31,1.15c1-.41.75-.28,1.81-.06-.23.38-.46.75-.65,1.13.06-.11,3.91.08,4.34-.3.92-.81.63-3.8.93-5,1-4,3.3-7.63,4.4-11.62.84-3.09-.06-5.74.28-8.74.24-2.17,3.42-4.95,1-6.45.3-.31.67-.46,1-.75.22,0-.75-.94-.7-.71-.2,0-.49.42-.74.49a3.67,3.67,0,0,1,.27-2.36l1.15,0a3.67,3.67,0,0,1,.63-3.79c-.2-.41-.67-.58-1.06-.83a5.22,5.22,0,0,0,1-.74c-1.44-.86-1.7-2.08-.47-3.28a6,6,0,0,1,1,1.31c-.66-1.17-2-4.9-1.84-6.38,1.12.07,2.09-.23,3.2.36-1.61-.87-2.72-2.28-1.21-3.61-1.62-1.3-1.15-2.54.82-3.09-1.22-1.78.27-3.29,1.1-4.91-2.51-.95-4.64-12.42-.89-14.18a7.16,7.16,0,0,1-2.74-6.22,15.18,15.18,0,0,1,2.5.18c-.89-1.48-3.06-2-2.85-3.94,5.6.18,6.22-.49,8.92-5.33-.07-.13-.8-.33-1-.41.45-.37.57-.44.34-.88,0-.1.56-.32.62-.39-1.33-.71-.64-.45-.89-1.39,0,.09-.55-.46-.54-.44a3.67,3.67,0,0,0,1-.6c.19-.23.73-.29,1-.39a11.9,11.9,0,0,0-1.77-.39c.35-.06.91,0,1.16-.27a.49.49,0,0,0,0-.12c0-.28-1.38,0-1.52,0,.51-.32,1.32-.72.55-1,.11-.26.65-.78.68-.94a4.26,4.26,0,0,1-1.07-.31,2.45,2.45,0,0,0,.76-.21c-.45-.15-1-.26-1.41-.39.05-.16.11-.32.17-.48.6.06,1.34,0,2,.05-1.45-.27-1.78-1-2.72-1.68a13.52,13.52,0,0,1,2.92-.08c-.81-.15-1.58-.44-2.36-.62,0-.26.79-.3.95-.49a10.08,10.08,0,0,1-1.21-.4c.55-.21,1.11-.37,1.66-.58l-.79-.52a4.35,4.35,0,0,0,1.29-1c-.74-.11-1.56-.61-2.33-.67l.69-.35c-.14-.33-.71-.38-.74-.74a1.2,1.2,0,0,0,.55-.36,7.14,7.14,0,0,1-1.51-1.88c.53-.09,1.07-.38,1.65-.46a3.61,3.61,0,0,1-3.25-1.81,16.88,16.88,0,0,1,2.39-.19,10.54,10.54,0,0,1-3.12-1.11c-.18-.3.36-.32.41-.57a5,5,0,0,1-1.25-.85.4.4,0,0,1,.21-.23c-.19.28-.6-.67-.56-.62s1.67-.28,1.95-.33c-.46-.34-.82-1.3-1.26-1.67,1.44-1.25,3.47-3.42,3.1-5.41a5.09,5.09,0,0,1,1.07.27c.1.08.25-.31.27-.31s-.74-.57-.74-.58c.46.25-.79,0-.77.06a2.14,2.14,0,0,0,.41-1.1,6.33,6.33,0,0,0,1.42.64,3.54,3.54,0,0,0-.49-.71c.23-.08.59,0,.79-.15,0-.29-.1-.5-.1-.74h.79a5.44,5.44,0,0,0-.92-1,4.94,4.94,0,0,0,1.12.2,14.17,14.17,0,0,1-1.18-1c.11-.07,1.12-.84,1.12-.83.32.3.47,1,.6,1.09a1,1,0,0,0,.71,0c-.6-.76-1.54-1.88-2.28-2.69,0,0,.83-.21.9-.25-.07-.26-.55-.59-.45-.85a16.13,16.13,0,0,1,3.42,1.56c-.7-.45-1.58-1.58-2.42-2a17.26,17.26,0,0,1,1.86-.1,18,18,0,0,0-1.66-1.13c1-.1,1.27-.47,2.64,0-.48-.37-.77-.94-1.17-1.3,1.28-.08,1.51-.59,2.51-.93a12.12,12.12,0,0,1-2.71-1.75,8.94,8.94,0,0,0,1.57,0c-.31-.55-.51-1-.82-1.56a5,5,0,0,0,1.1,0,3.69,3.69,0,0,1-1.25-3.43,17.94,17.94,0,0,1,2.42,0c-1.4-.35-2.39-.88-2.78-2.2a2.77,2.77,0,0,1,2.24-.75c-.49-.53-.6-1.52-1.06-2.07a13.14,13.14,0,0,1,3.82-4c-.31-.35-.6-.75-.94-1.07,1-1.32.75-2.59.28-4.13a20.73,20.73,0,0,1,1.82-1c-.14-.39-.9-.6-1.26-.75.21-.06,1-.16,1.07-.42a4.47,4.47,0,0,0-1.63,0s0-1,0-1a4.77,4.77,0,0,0,1.41,0c0-.1-.61-.41-.57-.44.12-.34.81-1,.86-1.16-.27-.36-.8-.3-1.12-.58a6.52,6.52,0,0,0,1-.16c-.46-.25-1-.33-1.45-.57a3.55,3.55,0,0,0,.66-1,10.27,10.27,0,0,0,1.65.54,7.7,7.7,0,0,1-2.8-2.78ZM6.08,77.09a3.51,3.51,0,0,1-1.34-.16c-.06-.14.64-.07,1-.08.54,0,1.27,0,1.24.14S6.49,77.1,6.08,77.09Zm1.39-2.5c.2-.16,1.07-.08,1.42-.13s.91,0,.85.06-.84.15-1.45.17C7.83,74.71,7.37,74.68,7.47,74.59Zm2,3.65c-.32.05-.77.08-1.22.13l-1.75-.22c-.1,0-.14-.05,0-.07a1.91,1.91,0,0,1,.6,0,16.74,16.74,0,0,0,2.17.07C9.57,78.1,9.77,78.19,9.48,78.24Zm1.2-1.31a1.41,1.41,0,0,1-.89-.14c-.42-.23-1.66-.38-1.53-.65,0-.12.24-.19.86-.23a1.48,1.48,0,0,1,.89.14c.63.19.64.43,1.11.64C11.33,76.78,11.05,76.9,10.68,76.93ZM5.61,104.74c-.06.16-.55.06-.94,0-.56-.16-1.22-.39-1.21-.61s.64,0,1,.11S5.73,104.46,5.61,104.74Zm11.94,65.15c-.59,0-1.29-.14-1.36-.52s.63-.22,1-.28,1.27-.09,1.26.45C18.46,169.87,18,169.92,17.55,169.89Zm104.88,82.8a1,1,0,0,1,.3-.26l-.13.93a.26.26,0,0,1-.27,0C122.21,253.23,122.19,253,122.43,252.69Zm14.73-105.41c.45,0,.7,0,.7.11s-.56.11-1,.13-.58,0-.59-.08S136.56,147.29,137.16,147.28Zm3.46-66.77a2.53,2.53,0,0,1-1,0c-.39-.06-.94-.1-.87-.23s-.39-.29-.51-.43a.53.53,0,0,1,.13-.91,2.09,2.09,0,0,1,.86,0,3.33,3.33,0,0,1,1,.24c.23.09-.15.1-.43.12-.51,0-.27.09.07.17C141.56,79.78,141.82,80.24,140.62,80.51Zm-.13,1.4a3.35,3.35,0,0,1-1-.07c-.61-.1-.85-.22-.84-.37a.83.83,0,0,1,.15-.09c.13,0-.06-.16.36-.14a.83.83,0,0,1,.55.17,4.36,4.36,0,0,0,.7.29C140.65,81.77,140.81,81.86,140.49,81.91Zm-4.73-9c0-.13.24-.2.86-.23a1.38,1.38,0,0,1,.89.17c.62.24.63.5,1.09.75.2.1-.07.23-.45.26a1.4,1.4,0,0,1-.89-.19C136.86,73.37,135.61,73.17,135.76,72.87Zm1.14,2.36c-.32,0-.77.07-1.23.1l-1.73-.3c-.1,0-.14,0,0-.08a2.33,2.33,0,0,1,.6,0,15.92,15.92,0,0,0,2.16.15C137,75.08,137.19,75.18,136.9,75.23Zm10.07-7a10.06,10.06,0,0,1,1,3.26c-.14-.32-.29-.63-.45-1l-.16-.34-.13-.26c-.32-.61-.66-1.22-1-1.81Zm-9.68,2.92c-.1.17-.84.16-1.45.17s-.93,0-.82-.14,1.07-.06,1.42-.11S137.34,71,137.29,71.11Zm1.94,5.42c-.12-.07-.07-.16.21-.2a2.79,2.79,0,0,1,.94.09c.38,0,.72.12.48.22s-.19.1-.3.15,0,.25-.73.21-.52-.18-.66-.28C139.62,76.68,139.35,76.61,139.23,76.53ZM141,74.35s0,.05,0,.08-.37.2-.85.21-.43-.13-.63-.2-.11-.07-.07-.09,0-.36.89-.34S140.89,74.22,141,74.35Zm-.39,4.21a.61.61,0,0,1-.19.06,9,9,0,0,1-3.92-.48c-.23-.2-.12-.22.93-.16.47,0,1,.06,1.63.06C140,78.05,141,78.39,140.65,78.56Zm1.92-7.45h.22c0,.1,0,.2,0,.3h-.12c-.53,0-.93-.1-1-.22S142.13,71.09,142.57,71.11Zm2.73-5.37-.23-.06a3.93,3.93,0,0,1-.74-.36c-.33-.21-.36-.5-.67-.71-.59-.66-1.2-1.31-1.85-1.92A18.15,18.15,0,0,1,145.3,65.74Zm-51.06-1.3c.32,0,.59.27.62.83s-.16.68-.45.73a.68.68,0,0,1-.6-.7C93.77,64.83,93.9,64.43,94.24,64.44Zm-7.56-.34c.06-.06.23,0,.29.1.37.53.55.26.69-.29s.42-.45.69-.35.29.35.22.69c.06.61.07,1.14-.51.8-.25-.14-.48,0-.71.14s-.53-.06-.65-.53C86.65,64.48,86.53,64.25,86.68,64.1Zm-16,.18c.1-.44.55-.42.87-.5l.15-.08c.15-.06.26,0,.35.22.26.57.49.28.63-.1.22-.65.49-.58.76-.12a1.28,1.28,0,0,1,.06,1.53,2.32,2.32,0,0,0-.52.83c-.1.32-.38.2-.59,0s-.15-.38,0-.59a.33.33,0,0,0-.08-.48c-.16-.11-.28,0-.33.21-.27,1-.48.6-.69-.1a2.09,2.09,0,0,1-.08-.23C71.18,64.46,70.58,64.9,70.73,64.28Zm-1-4.45c.39,0,.4.5.48.89s-.06.55-.29.56a.73.73,0,0,1-.56-.79C69.37,60.08,69.51,59.84,69.75,59.83Zm-4.2,6.85a3.65,3.65,0,0,0,.65-.7c.16-.23.37-.4.59-.11s.07.63,0,.93c-.14.58-.43.82-.84.84a1,1,0,0,1-.3-.12c-.16-.11-.44.08-.49-.31S65.4,66.82,65.55,66.68ZM59,66.5c.24-.22.32.13.43.38.2.47.32.23.47-.09.69-1.54,1.91-1.85,2.94-.79a.9.9,0,0,1,.21.88c-.08.37-.1.89-.48.84s-.75.41-1.12.55a3.69,3.69,0,0,1-2.62,0c-.22-.08-.29-.38-.29-.79A1.56,1.56,0,0,1,59,66.5Zm-.41,4c.23-.19.45-.29.7-.15s.55.15.57.6-.31.07-.44.28a7,7,0,0,1-.53.74c-.28.34-.57.52-.83-.07-.12-.26-.22-.28-.41-.18s-.47-.2-.45-.62.25-.48.48-.4C58,71,58.3,70.68,58.57,70.46ZM57.29,66.3a.46.46,0,0,1,.22.17c.62,1.06.21,3.27-.69,3.69-.52.25-.61.14-.63-.83a6.82,6.82,0,0,0-.09-1.52C56,67,56.75,66,57.29,66.3Zm-6,.58c.09-.36.23-.67.55-.47.15.1.31.16.47.25s.7,0,.7.64-.42.51-.69.66c-.18-.42-.35-.16-.54,0a.43.43,0,0,1-.62-.15C51,67.43,51.21,67.16,51.29,66.88ZM48,70.51c0-.31.23-.5.4-.23a8.69,8.69,0,0,1,.46,1.11c-.22.56-.43,1.11-.66,1.65,0,.1-.13.14-.21,0a.64.64,0,0,1-.15-.55A4.87,4.87,0,0,0,48,70.51Zm-2.63-3.93a.86.86,0,0,1,.23,0c.35,0,.61.31.69.75s-.32.42-.5.61a.24.24,0,0,1-.23.08c-.4-.14-1,0-1.08-.77S45,66.73,45.34,66.58Zm-.56,7c0,.55-.12,1.2-.49,1.26s-.22-.58-.28-1-.11-1.17.42-1.16C44.75,72.72,44.8,73.19,44.78,73.57Zm-3.44-3.52c.62-.61,1.37-.65,2-1.11.29-.2.68,0,.8.38a.71.71,0,0,1-.44.85c-.71.41-1.18,1.58-2.06,1.49-.36.06-.61-.2-.73-.77S41.12,70.26,41.34,70.05Zm-1.56-7c.27-.09.27.42.33.69s0,.71-.3.68A.33.33,0,0,1,39.5,64C39.56,63.64,39.55,63.11,39.78,63ZM36.7,72.57c-.52-.16-.26-1-.43-1.3s-.08-.84.18-.8c.51.08.5.76.58,1.33S37,72.66,36.7,72.57Zm-.29-8c.27,0,.53.33.51.83s-.21.88-.54.93-.3-.37-.29-.78S35.94,64.59,36.41,64.6ZM17.57,67.4c.31.14.81-.07.86.65,0,.49-.38.42-.62.51s-.59,0-.63-.6C17.15,67.59,17.3,67.28,17.57,67.4Zm-1,8.1a4.25,4.25,0,0,1,1,.09c.08.09-.46.08-.75.1s-.77,0-.73-.09S16.28,75.48,16.61,75.5ZM15,74.41c.36,0,1.07,0,1,.1s-.38.17-.92.16-.93-.07-1-.17S14.58,74.4,15,74.41ZM13,77c.93,0,.48.18.63.29l.05.07c0,.12-.37.2-.84.21s-.44-.1-.64-.16-.11,0-.08-.07S12.09,77.06,13,77Zm-.89,2.11a3.62,3.62,0,0,1,.95,0c.38,0,.71.09.48.19s-.18.09-.29.14,0,.22-.72.21-.53-.14-.68-.23c.46-.05.18-.1.06-.17S11.78,79.2,12.06,79.15ZM9,81.64a1,1,0,0,1-.68.16c-.49,0-.06-.1-.28-.14l-.77-.18c-.35-.1-.53-.19.12-.26.28,0,.31-.06.21-.12s.24-.14.68-.13.51.09.41.16c-.39.1-.05.2.18.29S9.12,81.56,9,81.64Zm.27-.76c-.24-.17-.13-.2.92-.18.48,0,1,0,1.64,0,.93,0,1.92.24,1.57.41a.53.53,0,0,1-.19.06A9.83,9.83,0,0,1,9.24,80.88Zm1.82,1.48c-.29-.27-.32-.55.09-.82a2.14,2.14,0,0,1,.86-.07,3.44,3.44,0,0,1,1.06.17c.24.08-.15.09-.43.12-.51,0-.26.1.09.15,1.61.26,1.89.65.7,1a2.84,2.84,0,0,1-.95,0c-.4,0-1-.06-.88-.17S11.19,82.48,11.06,82.36Zm1.33,1.73c-.62-.06-.87-.16-.86-.29a.42.42,0,0,1,.14-.09c.13,0-.07-.14.35-.15a.9.9,0,0,1,.56.14,4.84,4.84,0,0,0,.72.22c.24.06.41.13.09.19A3.71,3.71,0,0,1,12.39,84.09Zm.49,1.79a1.23,1.23,0,0,1,.63,0,1,1,0,0,0,.52,0c.13-.05,0-.09-.21-.12-1.1-.12-.62-.17.15-.21l.24,0c.49,0,0-.21.7-.14.47,0,.42.19.5.29s0,0,.07,0,0,.08-.26.1c-.62.07-.32.15.09.21.68.09.59.17.08.24a4.34,4.34,0,0,1-1.65,0,3.78,3.78,0,0,0-.86-.2C12.54,86,12.68,85.94,12.88,85.88Zm-2.52,20.64c.21-.14.14-.47,1-.29s.39.37.5.56c0,0,0,.08,0,.12s-.43.19-.9.12-.38-.25-.55-.38S10.32,106.55,10.36,106.52Zm.33,2.9c.37.1.69.22.43.33s-.2.12-.31.17-.07.33-.76.23-.5-.28-.62-.43c.45,0,.2-.14.1-.25s0-.24.24-.27A2.19,2.19,0,0,1,10.69,109.42Zm-3.28-8.53c.28-.19,1,.23,1.4.27l.45.15.12.09c.07,0,.13.1.14.15-.23.15-.86-.06-1.41-.22S7.25,101,7.41,100.89Zm.09,6.46c-.33,0-.78,0-1.24,0-.55-.23-1.1-.46-1.63-.7-.09,0-.12-.1,0-.13a1.1,1.1,0,0,1,.59,0,10.39,10.39,0,0,0,2.1.54C7.65,107.14,7.8,107.32,7.5,107.35Zm1.68-1.82a1,1,0,0,1-.79-.44c-.29-.46-1.42-1-1.14-1.45q0-.3.93-.12c.64.13.6.28.78.45.5.48.41.85.76,1.29C9.88,105.45,9.56,105.56,9.18,105.53ZM6.31,113a.76.76,0,0,1-.68.28c-.49,0,0-.18-.28-.26a5.82,5.82,0,0,1-.75-.33c-.35-.17-.53-.35.13-.46.28,0,.31-.1.22-.21s.25-.24.69-.19.49.17.39.28c-.39.17,0,.35.17.51S6.48,112.87,6.31,113Zm.33-1.29c-.22-.3-.1-.33,1-.25a15.13,15.13,0,0,0,1.63.11c.93,0,1.89.47,1.52.7a.56.56,0,0,1-.19.09C9.37,112.57,7,112.23,6.64,111.71Zm2.31,3c.07-.22-.41-.37-.54-.56a.93.93,0,0,1,.09-1.32c.1-.1.42-.12.87-.09a2.85,2.85,0,0,1,1.05.27c.23.12-.15.15-.43.19-.52.07-.27.14.07.22,1.62.39,1.91.9.74,1.4a2,2,0,0,1-1,.11C9.45,114.93,8.89,114.93,9,114.74Zm1,2c-.63,0-.89-.14-.91-.35a.42.42,0,0,1,.13-.15c.11-.09-.1-.21.32-.26a.73.73,0,0,1,.58.15,3.6,3.6,0,0,0,.75.27c.25,0,.43.14.13.26A2.43,2.43,0,0,1,9.92,116.77Zm1.93,3a3.33,3.33,0,0,0-.91-.08c-.35,0-.24-.15-.06-.28a.83.83,0,0,1,.62-.1.72.72,0,0,0,.51-.13c.1-.09,0-.12-.25-.11-1.11,0-.65-.13.08-.33l.23-.07c.47-.11,0-.31.64-.34.47,0,.47.18.58.3s.05,0,.08,0,0,.12-.22.19c-.58.22-.26.27.14.25.7,0,.63.1.17.31A3.19,3.19,0,0,1,11.85,119.73Zm2.2,6.33c.08-.17-.15-.17-.28-.23s-.06-.26.37-.52a1.38,1.38,0,0,1,.53-.26c.07,0,.05.09,0,.16-.44.4-.14.35.41.14s.5,0,.46.11-.27.29-.6.42C14.34,126.21,13.85,126.47,14.05,126.06Zm1.5,2.89c-.37.28-.63.36-.76.26s0-.33.43-.65.77-.48.85-.35S16,128.6,15.55,129Zm.92-11.4c-.39.09-.58.06-.6,0s.24-.24.83-.32.7,0,.72,0S16.88,117.46,16.47,117.55Zm3.88,17.57c-.37.11-.65,0-1.32-.4l0-.06c.25-.6.5-.63.46-.4-.12.72.17.75.79.26.2-.16.29,0,.17.31A1.32,1.32,0,0,1,20.35,135.12Zm-1.6,26.46c.18-.53,1.06-.24,1.41-.4s.9-.06.86.21c-.1.52-.84.49-1.45.55S18.65,161.86,18.75,161.58Zm2.34,12a7.92,7.92,0,0,1-1.2.47l-1.77-.68c-.11,0-.15-.13-.05-.22a.73.73,0,0,1,.59-.15,5.41,5.41,0,0,0,2.18.17C21.17,173.15,21.38,173.43,21.09,173.61Zm1-4.3a.78.78,0,0,1-.9-.46c-.45-.74-1.71-1.24-1.61-2.14-.06-.38.23-.62.84-.73s.68.2.9.43c.64.65.69,1.42,1.19,2.09C22.76,168.8,22.5,169.19,22.12,169.31Zm2.67-33.93c.32-.53.62-.66.72-.22a9.54,9.54,0,0,1,.11,1.08A2.17,2.17,0,0,0,24.79,135.38Zm1.5,25.81c.36.05,1.07-.12,1.05.35,0,.27-.37.53-.91.5s-.94-.25-1-.59S25.85,161.17,26.29,161.19Zm-1-18.84c-.18.3,0,.82-.76.81-.53,0-.42-.42-.5-.67s.1-.59.7-.58C25.17,141.91,25.48,142.08,25.33,142.35Zm-.91,27.28c.92,0,.5.57.66.91a1.55,1.55,0,0,1,.06.23c0,.36-.35.62-.81.7s-.46-.33-.66-.51-.12-.17-.09-.24C23.73,170.31,23.55,169.68,24.42,169.63Zm-.59,6.83c.36-.22.66,0,1,.12s.73.23.52.56c-.1.16-.16.32-.26.48s0,.71-.68.72-.56-.43-.72-.7c.45-.18.16-.35,0-.55A.42.42,0,0,1,23.83,176.46Zm-2.52,8.33c-.12.23-.13.57-.62.61s-.09-.32-.32-.45a8.26,8.26,0,0,1-.82-.53c-.38-.28-.59-.57,0-.86.27-.12.29-.23.18-.42s.2-.49.65-.48.51.25.44.49c-.36.38,0,.66.26.93S21.45,184.53,21.31,184.79Zm.07-2.51c-.28-.54-.17-.63.88-.67a8,8,0,0,0,1.63-.12c.93-.16,2,.63,1.66,1.19-.05.08-.08.17-.18.22C24.26,183.56,21.84,183.19,21.38,182.28Zm2.86,5.79c0-.45-.47-.76-.63-1.13a3.55,3.55,0,0,1-.15-2.68c.08-.22.39-.3.84-.31a1.67,1.67,0,0,1,1.1.45c.25.23-.12.32-.39.44-.49.22-.23.33.13.47,1.68.67,2.07,1.88,1,3a1,1,0,0,1-.94.25C24.77,188.45,24.21,188.45,24.24,188.07Zm1.22,4.28c-.63-.11-.91-.4-1-.82a1.6,1.6,0,0,1,.11-.3c.11-.18-.12-.45.3-.51s.44.21.6.36a4.65,4.65,0,0,0,.79.63c.26.14.46.36.16.58S25.79,192.4,25.46,192.35Zm2.15,6.77a2.34,2.34,0,0,0-.93-.48c-.36-.08-.25-.38-.07-.6s.39-.17.62,0a.36.36,0,0,0,.52-.11c.11-.16,0-.28-.25-.32-1.13-.21-.67-.45.06-.7.09,0,.16-.08.24-.1.48-.1-.05-.69.64-.57.48.08.48.53.59.84a.75.75,0,0,0,.09.15c.08.15,0,.27-.21.37-.59.3-.26.52.15.63.71.19.66.46.19.77A1.48,1.48,0,0,1,27.61,199.12ZM27.46,165a.35.35,0,0,1,.47-.3c.36.07.93.07,1,.3s-.46.26-.76.32S27.41,165.29,27.46,165Zm2.47,55.67c-.47.07-.76-.08-.84-.38s.11-.57.66-.68.94,0,1,.33S30.52,220.55,29.93,220.65Zm1-6.75c-.06.24-.34.33-.71.29-.65.13-1.22.2-.92-.43.13-.26-.1-.47-.22-.7s0-.55.49-.71c.18-.07.42-.21.59-.08s0,.23-.06.31c-.54.42-.23.58.38.66S31,213.62,30.89,213.9Zm1.34-18.41c-.4.1-.6,0-.62-.26s.21-.55.81-.6c.44,0,.71.1.74.33S32.64,195.39,32.23,195.49Zm7.25,62.41a.62.62,0,0,1-.19,0,1.12,1.12,0,0,1-.23-.38.13.13,0,0,0-.16-.08,1.27,1.27,0,0,1-.18.06c-.07-.21.28-.36.57-.45.46-.13.63,0,.7.27A.53.53,0,0,1,39.48,257.9ZM55,264.81c0,.44-.12.86-.32.75-.36-.2-.09-1-.18-1.33s0-.84.21-.78C55.05,263.56,55,264.25,55,264.81Zm.53-6.34c-.06.49-.24.86-.48.88s-.17-.4-.13-.8,0-1,.32-.95S55.57,258,55.51,258.47Zm2.15-.79c-.12,0-.25-.15-.19-.46s.11-.86.28-.91.15.44.17.71S57.87,257.74,57.66,257.68Zm.77,7.34c-.28.05-.44-.23-.48-.8s.18-.62.36-.82c.5-.57,1.06-.56,1.57-1,.22-.18.49.08.56.43a.78.78,0,0,1-.38.82C59.5,264,59.08,265.17,58.43,265Zm2.19,2.09c0,.55-.17,1.19-.45,1.23s-.13-.59-.15-1,0-1.18.4-1.14C60.65,266.27,60.66,266.73,60.62,267.11Zm1.07-5.61c0,.06-.12.1-.17.07-.28-.16-.75,0-.74-.83s.43-.44.68-.57a.85.85,0,0,1,.17,0c.25,0,.43.35.46.79S61.83,261.32,61.69,261.5Zm1.51,5.29c0,.09-.1.12-.16,0a.87.87,0,0,1-.09-.56,6.46,6.46,0,0,0,.23-2c0-.31.18-.48.3-.22a8.92,8.92,0,0,1,.29,1.14Zm3.27-4.92c-.12-.42-.25-.17-.39-.06s-.34.08-.45-.18.06-.6.12-.88.19-.66.42-.45.22.17.33.27.51,0,.49.67S66.67,261.73,66.47,261.87Zm2.81,1.5a9,9,0,0,0,0-1.52c-.09-.86.5-1.8.89-1.49a.47.47,0,0,1,.16.18c.44,1.07.13,3.28-.54,3.68C69.35,264.45,69.28,264.35,69.28,263.37Zm2.37,1.93a6.13,6.13,0,0,1-.4.72c-.21.34-.43.51-.62-.08-.09-.26-.16-.29-.31-.19s-.34-.21-.32-.62.18-.48.35-.4c.27.36.48,0,.69-.18s.33-.28.51-.14.41.16.43.61S71.75,265.08,71.65,265.3ZM74,261.88c-.33-.06-.55.4-.82.53a2,2,0,0,1-1.93,0c-.16-.08-.21-.38-.2-.79a1.66,1.66,0,0,1,.34-1c.16-.22.22.13.3.39.15.47.24.23.35-.09.5-1.52,1.36-1.81,2.12-.73a1.14,1.14,0,0,1,.17.88C74.24,261.42,74.23,261.93,74,261.88ZM77,261c-.07.58-.28.82-.58.84a.6.6,0,0,1-.22-.12c-.13-.11-.32.09-.37-.3s.16-.4.26-.53a4,4,0,0,0,.46-.71c.1-.23.25-.39.42-.11A1.41,1.41,0,0,1,77,261Zm2-5.52c-.2-.1-.39-.22-.43-.78s.07-.65.23-.67.31.51.38.89S79.23,255.43,79.06,255.44Zm2.81,3.88a2.11,2.11,0,0,0-.33.84c-.05.33-.27.21-.43,0a.5.5,0,0,1,0-.58.41.41,0,0,0-.08-.48c-.12-.11-.2,0-.23.22-.14,1-.31.6-.5-.09,0-.08-.06-.15-.07-.22-.08-.45-.49,0-.41-.62,0-.44.37-.42.59-.52,0,0,.07-.05.11-.08s.18,0,.26.22c.22.56.37.26.44-.12.13-.65.32-.58.55-.13A1.75,1.75,0,0,1,81.87,259.32Zm10.46-.75c-.19-.12-.33.08-.49.18s-.39,0-.54-.48c0-.17-.16-.4-.07-.55s.16,0,.22.07c.33.52.42.23.46-.33s.24-.46.44-.39.26.33.25.67C92.72,258.35,92.8,258.88,92.33,258.57Zm4.73.52c-.21,0-.43-.12-.53-.64s-.07-.86.17-.88.47.21.58.76S97.27,259,97.06,259.09Zm26.3-44.72c-.47-.05-.71-.24-.71-.5s.27-.44.83-.4.91.21.85.49S124,214.43,123.36,214.37Zm2.76-5.28c-.12.18-.41.2-.76.09-.67,0-1.23-.1-.79-.55.18-.19,0-.41,0-.62s.14-.45.65-.48c.19,0,.46-.08.6.06s0,.2-.14.24c-.63.24-.36.43.21.63S126.26,208.88,126.12,209.09Zm-.27-31.67c-.12-.19-.06-.41.22-.51s.65.1.94.19.7.27.45.52-.2.25-.31.38-.08.6-.76.53-.51-.42-.64-.66C126.22,177.77,126,177.59,125.85,177.42Zm2.06-5.36a1,1,0,0,1,0,.19c0,.3-.39.5-.87.52s-.42-.31-.6-.48-.11-.15-.07-.21c.19-.33.07-.87.93-.85S127.78,171.75,127.91,172.06Zm-.16-31.85c-.42-.2-1.67-.32-1.53-.57,0-.09.2-.15.7-.19l.1.11c.35.45.51.54.52.29a1.68,1.68,0,0,1,0-.4,2.58,2.58,0,0,1,.38.1c.62.17.64.38,1.11.56.21.08-.07.19-.44.22A1.64,1.64,0,0,1,127.75,140.21ZM127,182.29a.49.49,0,0,1-.2.17c-1.21.41-3.53-.19-3.88-1-.21-.47-.09-.54,1-.45a9.27,9.27,0,0,0,1.64.08C126.46,181.07,127.4,181.86,127,182.29Zm-2.31,1.07c.12-.18.44-.2.88-.16a1.77,1.77,0,0,1,1,.51c.21.22-.17.25-.46.32-.52.12-.28.25.06.41,1.56.76,1.76,1.84.51,2.59a1.12,1.12,0,0,1-1,.08c-.39-.11-.94-.19-.85-.5s-.36-.69-.46-1A2.53,2.53,0,0,1,124.71,183.36Zm.08,5.92c.14-.13,0-.39.38-.38s.4.24.53.38a3.74,3.74,0,0,0,.67.64c.23.16.38.36,0,.51a1.43,1.43,0,0,1-1-.1c-.6-.18-.83-.46-.79-.82A.74.74,0,0,1,124.79,189.28Zm3.14,7.14a1.72,1.72,0,0,1-1.65-.15,2.29,2.29,0,0,0-.81-.55c-.34-.12-.17-.35,0-.5s.42-.08.63.07a.39.39,0,0,0,.52,0c.14-.12,0-.23-.19-.31-1.07-.36-.57-.48.2-.57a1.87,1.87,0,0,1,.25,0c.48,0,.08-.58.73-.38.46.15.38.53.43.81a1.47,1.47,0,0,0,.06.14c.05.13,0,.22-.27.27-.64.15-.36.39,0,.55C128.57,196,128.45,196.24,127.93,196.42Zm3.56-50.94a3.73,3.73,0,0,1-.72.06l-1.08-.16a1.6,1.6,0,0,1,.19-.16.16.16,0,0,0,.06-.2,2.74,2.74,0,0,1-.23-.72H130a4.56,4.56,0,0,1,1.07.13c.23.06-.15.09-.43.12-.51.05-.26.09.09.13C132.38,144.86,132.67,145.19,131.49,145.48Zm0,1.09a4.27,4.27,0,0,1-1,0c-.61,0-.86-.11-.86-.23a.51.51,0,0,1,.14-.08c.13,0-.07-.12.34-.13a.92.92,0,0,1,.56.1,6,6,0,0,0,.73.18C131.62,146.45,131.79,146.51,131.48,146.57Zm-.64-23.32c-.4-.21-.6-.39-.57-.5s.28-.06.77.19.79.46.71.55S131.37,123.53,130.84,123.25Zm.07,17.16c.93,0,.48.15.63.25s.05,0,.05.06-.36.17-.83.19-.44-.09-.64-.14-.11,0-.08-.06S130.05,140.43,130.91,140.41Zm-.87,1.85a3.64,3.64,0,0,1,1,0c.38,0,.72.06.48.15s-.18.09-.28.13,0,.19-.72.19-.53-.12-.68-.19c.45-.05.18-.09.06-.15S129.76,142.31,130,142.26Zm-.24,1.36c.94,0,1.93.18,1.58.33a.47.47,0,0,1-.19.06,9.82,9.82,0,0,1-1.52.08c0-.15-.07-.31-.11-.46Zm.8,21.22-.21,0a1.73,1.73,0,0,0-.37.07.66.66,0,0,1-.14,0c-.53-.06-.92-.26-.94-.54h0l.06,0c.16.15.38.22,1.18.27a3.75,3.75,0,0,1,.52.05Zm.14,2.68c0-.14.16-.3.49-.23s.92.12,1,.32-.47.19-.77.22S130.67,167.78,130.74,167.52Zm.77,26.48c-.41,0-.58-.12-.56-.32s.3-.44.9-.38.68.19.67.4S131.93,194,131.51,194Zm2-45.58a5.09,5.09,0,0,1-1.65,0,5.25,5.25,0,0,0-.87-.15c-.34,0-.2-.1,0-.16a1.3,1.3,0,0,1,.62,0,1.13,1.13,0,0,0,.53,0c.12,0,0-.08-.22-.09-1.1-.08-.62-.14.14-.19l.25,0c.48,0,0-.19.69-.15.47,0,.42.15.51.24l.07,0c.06,0,0,.07-.25.1-.62.07-.32.13.09.17C134.14,148.27,134.05,148.34,133.55,148.42Zm-.45-10.09c-.53,0-.94-.06-1-.15s.42-.08.86-.08,1.06,0,1,.09S133.64,138.34,133.1,138.33Zm.79-16.16a1.27,1.27,0,0,1-.69-.25c-.6-.28-1.11-.52-.67-.54.19,0,.06-.16,0-.27s.16-.14.63,0a1.8,1.8,0,0,1,.54.25c.05,0,0,.07-.15,0-.59-.14-.36,0,.14.35S134,122.13,133.89,122.17Zm.2-10.2c-.19-.36-.13-.65.35-.83a2.1,2.1,0,0,1,.86.13,3.42,3.42,0,0,1,1,.44c.2.14-.18.07-.46,0-.51-.07-.28,0,0,.18,1.48.67,1.61,1.19.37,1.19a2.36,2.36,0,0,1-.93-.2c-.37-.15-.89-.31-.79-.42S134.18,112.13,134.09,112Zm2.64-.75a.56.56,0,0,1-.2,0A9.24,9.24,0,0,1,132.8,110c-.19-.23-.07-.23.94,0,.45.13,1,.26,1.58.38C136.24,110.59,137.12,111.12,136.73,111.22Zm-2.5,2.32c.14,0,0-.16.39-.05a.72.72,0,0,1,.48.29,5.89,5.89,0,0,0,.6.44c.21.13.34.25,0,.23a3.08,3.08,0,0,1-.94-.32c-.56-.23-.76-.4-.71-.54A1.22,1.22,0,0,1,134.23,113.54Zm2.5,3.87a3.75,3.75,0,0,1-1.53-.57,3.7,3.7,0,0,0-.73-.47c-.3-.16-.14-.2.08-.2a1,1,0,0,1,.58.22.85.85,0,0,0,.5.15c.13,0,0-.09-.16-.18-1-.47-.51-.38.22-.19l.24.06c.46.14.11-.22.72.06.42.19.32.33.35.46s0,.06.05.08-.07.08-.28,0c-.62-.13-.37.06,0,.24C137.37,117.43,137.24,117.49,136.73,117.41Zm.6-8-.32.1c-.2.05-.09.23-.76.07s-.48-.26-.6-.39c.46,0,.21-.07.11-.16s0-.18.24-.17a2.87,2.87,0,0,1,.91.25C137.27,109.18,137.59,109.3,137.33,109.36ZM133,105c0-.12.26-.15.88-.1a1.45,1.45,0,0,1,.86.27c.58.31.53.56,1,.86.19.13-.11.21-.49.18a1.35,1.35,0,0,1-.84-.29C134,105.59,132.77,105.24,133,105Zm.75,2.37c-.33,0-.77-.06-1.22-.1l-1.67-.56c-.1,0-.13-.06,0-.07a2.19,2.19,0,0,1,.59.07,17.41,17.41,0,0,0,2.11.48C133.83,107.22,134,107.35,133.71,107.35Zm-1.29-4c.21-.13,1.06,0,1.42,0s.9.09.84.17h0a.81.81,0,0,0-.33.07,9.64,9.64,0,0,1-1.12-.08C132.75,103.47,132.3,103.38,132.42,103.3Zm4.67,4c-.53-.07-.41-.19-.59-.29s-.1-.08-.06-.09c.2-.11.09-.35.94-.21s.43.28.55.42a.32.32,0,0,1,0,.09C138,107.33,137.56,107.35,137.09,107.29Zm-5.54-1.65c0,.09-.53,0-.94-.06-.57-.11-1.25-.26-1.28-.38s.64,0,1,.1S131.61,105.48,131.55,105.64Zm-.18,4.85-.68-.37c-.31-.18-.46-.31.19-.22.28,0,.32,0,.25-.07s.26-.08.69,0,.47.2.35.25c-.41,0-.11.19.08.33s.23.22.06.25a.92.92,0,0,1-.71,0C131.14,110.58,131.58,110.59,131.37,110.49Zm-8.57,58c0-.31.27-.5.89-.55s.66.21.87.42c.6.58.56,1.23,1,1.83.19.26-.1.57-.48.64a.8.8,0,0,1-.87-.45C123.84,169.69,122.62,169.19,122.8,168.45Zm.86,5.83a8.6,8.6,0,0,1-1.24.28l-1.7-.71c-.1,0-.14-.13,0-.19a.77.77,0,0,1,.6-.07,6.75,6.75,0,0,0,2.16.33C123.78,173.9,124,174.16,123.66,174.28ZM122,149.73c-.4,0-1,0-.88-.11s-.41-.18-.54-.27c-.29-.2-.32-.41.08-.61a3.5,3.5,0,0,1,.87,0,5.69,5.69,0,0,1,1.06.14c.23.06-.15.07-.43.08-.51,0-.26.07.08.11,1.62.2,1.9.45.71.67A4,4,0,0,1,122,149.73Zm-.56-2.57c-.13,0-.08-.11.2-.13a3.17,3.17,0,0,1,.72.06.68.68,0,0,0,.15.38,2.1,2.1,0,0,1-.47,0c-.61,0-.53-.13-.67-.2C121.84,147.27,121.56,147.21,121.45,147.16Zm1.44,1.31a.56.56,0,0,1-.19.05,13.42,13.42,0,0,1-3.93-.31c-.24-.14-.12-.16.93-.12.47,0,1,0,1.63,0C122.27,148.15,123.25,148.37,122.89,148.47Zm1.72-8.57c-.18,0,0,.18-.75,0-.52-.11-.41-.18-.48-.25s.11-.11.69,0C124.46,139.77,124.77,139.87,124.61,139.9Zm-1.29-5.37c-.1,0-.3-.05-.58-.32s-.34-.47-.3-.55.34.17.57.37S123.38,134.46,123.32,134.53Zm-5.24,9.93c0-.1.26-.12.88-.08a1.89,1.89,0,0,1,.87.2c.6.21.59.39,1,.59.2.09-.08.15-.45.14a1.89,1.89,0,0,1-.88-.19C119.15,144.91,117.92,144.66,118.08,144.46Zm1,1.73c-.32,0-.77,0-1.22,0l-1.73-.3c-.1,0-.14,0,0-.06a2.36,2.36,0,0,1,.59,0c.7.09,1.35.19,2.16.22C119.23,146.09,119.41,146.18,119.12,146.19Zm-1.63-3.05a6.78,6.78,0,0,1,1.42.1c.47,0,.9.1.83.15a4.32,4.32,0,0,1-1.45,0C117.83,143.29,117.37,143.2,117.49,143.14Zm-.72,1.87c0,.08-.53,0-.94,0a3.56,3.56,0,0,1-1.31-.26c-.06-.12.63,0,1,0S116.81,144.88,116.77,145Zm.76,3.78-.76-.15c-.36-.08-.54-.16.11-.21.28,0,.31,0,.22-.09s.24-.11.68-.09.5.08.4.14c-.39.07,0,.15.18.23s.29.11.13.17a1.14,1.14,0,0,1-.67.12C117.33,148.9,117.76,148.83,117.53,148.79Zm3.88,21.92c0,.26-.53.26-.94.21-.58-.08-1.28-.22-1.31-.53s.64-.13,1-.15S121.47,170.26,121.41,170.71Zm.14,12.83a6.84,6.84,0,0,1-.73-.53c-.33-.27-.49-.53.17-.69.29-.07.32-.16.24-.33s.26-.37.7-.31.49.26.38.44c-.41.28-.08.55.12.8s.26.41.08.61-.22.45-.7.42S121.77,183.68,121.55,183.54ZM32.13,134.4c.11,0,.24.21.28.58s-.08.57-.19.61S32,135.26,32,135C31.94,134.53,32,134.42,32.13,134.4Zm-14-49.14c.12-.09.27-.17.87-.15s.7.06.7.14-.56.11-1,.12S18.17,85.34,18.17,85.26ZM134.48,73.77c0,.11-.52.11-.93.09-.59,0-1.28-.09-1.33-.22s.63,0,1-.06S134.52,73.59,134.48,73.77Zm.78,5.18c-.28-.07-.52-.15-.75-.23s-.53-.23.13-.28c.28,0,.31-.06.22-.13s.24-.14.68-.11.5.12.4.19c-.39.1-.05.22.17.33s.27.17.11.25a1,1,0,0,1-.68.15C135.05,79.1,135.49,79,135.26,79Zm3.65,12.77c-.47-.06-.72-.15-.74-.26s.23-.16.79-.11.92.15.88.27S139.51,91.79,138.91,91.72Zm1.39,25.69c-.39-.11-.54-.22-.51-.31s.33-.1.89.09.63.28.6.37S140.7,117.52,140.3,117.41Zm1-27.72a1.32,1.32,0,0,1-.75,0c-.67-.06-1.23-.12-.82-.28.17-.07,0-.17-.08-.26s.1-.18.61-.16a1.63,1.63,0,0,1,.6.06c.06,0,0,.08-.13.09-.6.06-.32.16.26.28S141.42,89.61,141.3,89.69Zm1-5.22a4,4,0,0,1-1.64-.13,3.71,3.71,0,0,0-.85-.27c-.34-.06-.19-.15,0-.21a1.11,1.11,0,0,1,.62.06,1,1,0,0,0,.53,0c.12,0,0-.1-.21-.14-1.09-.19-.6-.22.16-.23h.25c.49,0,0-.24.71-.13.46.08.4.23.47.35s.05,0,.07.06,0,.09-.26.1c-.63,0-.33.15.06.24C142.94,84.33,142.84,84.41,142.33,84.47Zm3.44-.88c-.41,0-.59-.07-.58-.15s.28-.17.88-.13.69.11.69.2S146.19,83.6,145.77,83.59Z"/><path class="cls-4" d="M131.09,70.06a1.5,1.5,0,0,0-.56.1,4.54,4.54,0,0,1-1.84.27,3.32,3.32,0,0,1,1.88.37,3.12,3.12,0,0,0,1.53,0c.28-.12.92-.26,0-.41a1.64,1.64,0,0,1-.79-.25S131.54,70.07,131.09,70.06Z"/><path class="cls-4" d="M135.44,88.94c-.39-.25-.47-.44.27-.57-.94-.09-1.32,0-1.46.09S134.73,88.79,135.44,88.94Z"/><path class="cls-4" d="M133.79,76.61c.33,0,.71,0,.53-.06s-.25-.32-.94-.37c-.45,0-.32.14-.44.21S133.35,76.57,133.79,76.61Z"/><path class="cls-4" d="M135.66,86.46c.22,0,.11-.08-.11-.12a10.54,10.54,0,0,0-1.23-.31,5.16,5.16,0,0,0,.62.36A1.82,1.82,0,0,0,135.66,86.46Z"/><path class="cls-4" d="M128.63,102a1.37,1.37,0,0,0-.55,0,5.28,5.28,0,0,1-1.87.05,3.59,3.59,0,0,1,1.82.5,3.84,3.84,0,0,0,1.52.2c.3-.08.95-.14,0-.36a1.73,1.73,0,0,1-.75-.29S129.09,102,128.63,102Z"/><path class="cls-4" d="M129.14,119.12c-.86-.38-1.23-.45-1.4-.39s.34.44,1,.82C128.41,119.2,128.4,119,129.14,119.12Z"/><path class="cls-4" d="M130.93,108.12c-.26-.16-.19-.32-.86-.49-.43-.11-.33.07-.47.11s.37.23.8.35S131.1,108.23,130.93,108.12Z"/><path class="cls-4" d="M129.74,117.4c.22,0,.13,0-.06-.14a9.85,9.85,0,0,0-1.08-.65,4.81,4.81,0,0,0,.49.51A1.77,1.77,0,0,0,129.74,117.4Z"/><path class="cls-4" d="M118.44,161.34c-.33,0-.38.16-.56.25-.51.26-.7.74-1.87.64,1.21.1,1.58.5,1.82,1a1.39,1.39,0,0,0,1.53.15c.3-.29,1-.62,0-1-.34-.15-.69-.38-.75-.66C118.61,161.56,118.9,161.39,118.44,161.34Z"/><path class="cls-4" d="M119.14,207.2c-.22.44.43.72,1.14,1-.36-.54-.42-1,.36-1.45C119.69,206.66,119.3,206.88,119.14,207.2Z"/><path class="cls-4" d="M120.91,177.61c-.28-.3-.21-.77-.9-.88-.44-.07-.33.36-.46.55s.38.42.83.52S121.09,177.8,120.91,177.61Z"/><path class="cls-4" d="M120.88,202.05c.24-.09.13-.22-.08-.29-.42-.13-.47-.42-1.21-.6a5.69,5.69,0,0,0,.58.82A.73.73,0,0,0,120.88,202.05Z"/><path class="cls-4" d="M34.83,75.38a1.28,1.28,0,0,1-.71.76c-.14,0-.37-.22-.38.21s.21.35.33.5c.36.44.94.58.92,1.67a1.71,1.71,0,0,1,1-1.78,1,1,0,0,0,0-1.42C35.65,75.07,35.21,74.49,34.83,75.38Z"/><path class="cls-4" d="M86.47,68.94c.07.88.38,1.21.78,1.31s.77-.51,1-1.19A1.15,1.15,0,0,1,86.47,68.94Z"/><path class="cls-4" d="M51.63,73.39c0,.41.46.26.69.36s.45-.4.52-.82-.08-.66-.28-.48S51.68,72.74,51.63,73.39Z"/><path class="cls-4" d="M80.69,69.52c-.09.4-.43.49-.52,1.2a7.27,7.27,0,0,0,.87-.65.61.61,0,0,0,0-.67C80.87,69.2,80.74,69.32,80.69,69.52Z"/><path class="cls-4" d="M113.71,141.82a1.67,1.67,0,0,0-.56,0,5.53,5.53,0,0,1-1.85,0,3.87,3.87,0,0,1,1.81.54,4.2,4.2,0,0,0,1.51.23c.3-.06.95-.08,0-.32a1.84,1.84,0,0,1-.75-.3S114.16,141.89,113.71,141.82Z"/><path class="cls-4" d="M119.15,155.32c-.94.11-1.29.22-1.4.33s.53.14,1.26.11C118.57,155.67,118.45,155.54,119.15,155.32Z"/><path class="cls-4" d="M116.54,147a2,2,0,0,0-1-.3c-.45,0-.31.1-.43.16s.41.14.85.18S116.72,147.1,116.54,147Z"/><path class="cls-4" d="M118.61,154c-.42,0-.51-.07-1.26,0a6.59,6.59,0,0,0,.67.17,2.59,2.59,0,0,0,.71-.06C119,154,118.83,154,118.61,154Z"/></g><g class="cls-5"><path class="cls-6" d="M5.35,59.52a1.4,1.4,0,0,0-.55.12,4.53,4.53,0,0,1-1.83.3,3.33,3.33,0,0,1,1.88.33,3.28,3.28,0,0,0,1.53,0c.28-.12.92-.27,0-.4a1.5,1.5,0,0,1-.79-.23S5.81,59.53,5.35,59.52Z"/><path class="cls-6" d="M10.91,77.26c-.95,0-1.32.06-1.44.18s.49.29,1.22.39C10.28,77.62,10.18,77.43,10.91,77.26Z"/><path class="cls-6" d="M8.78,65.81c-.3-.12-.26-.3-1-.33-.45,0-.3.15-.42.23s.41.15.86.18S9,65.88,8.78,65.81Z"/><path class="cls-6" d="M10.71,75.41c.22,0,.1-.09-.12-.12a10.93,10.93,0,0,0-1.25-.22,4.24,4.24,0,0,0,.65.31A1.87,1.87,0,0,0,10.71,75.41Z"/><path class="cls-6" d="M5.25,86.78a1.82,1.82,0,0,0,1.41.6c.34-.11,1-.1.24-.68-.29-.22-.57-.5-.57-.72s.31-.11-.11-.29-.4,0-.58,0a2.85,2.85,0,0,1-1.9-.18C4.85,86,5.11,86.37,5.25,86.78Z"/><path class="cls-6" d="M11.8,117.08c-.83.45-1.07.78-1.06,1s.69.19,1.38-.07C11.59,118,11.33,117.72,11.8,117.08Z"/><path class="cls-6" d="M6.45,97.7c-.28-.25-.18-.57-.86-.72-.44-.1-.35.22-.49.34s.38.35.81.46S6.62,97.85,6.45,97.7Z"/><path class="cls-6" d="M10.06,114.11a6.59,6.59,0,0,0-1.3.11,4.82,4.82,0,0,0,.8.28,1.05,1.05,0,0,0,.67-.26C10.42,114.09,10.27,114.06,10.06,114.11Z"/><path class="cls-6" d="M17.64,153.32c.28-.4.91-.87,0-1.34a1.4,1.4,0,0,1-.8-.82c0-.15.24-.4-.21-.44s-.39.22-.55.36c-.49.38-.65,1-1.83.95a1.89,1.89,0,0,1,1.9,1.19A1.11,1.11,0,0,0,17.64,153.32Z"/><path class="cls-6" d="M26.74,209.05c-.93.17-1.24.54-1.31,1-.08.63.63.79,1.39.92A1.28,1.28,0,0,1,26.74,209.05Z"/><path class="cls-6" d="M20.64,171.77c-.32-.36-.32-1-1-1-.45,0-.28.51-.38.77s.45.5.9.57S20.84,172,20.64,171.77Z"/><path class="cls-6" d="M25.47,202.75c-.43-.07-.56-.43-1.32-.47a6.23,6.23,0,0,0,.77.9.6.6,0,0,0,.71-.09C25.84,202.92,25.7,202.79,25.47,202.75Z"/><path class="cls-6" d="M54.8,269c-.14.34-.37.69-.61.75s-.26-.26-.32.19.13.39.2.57a2.4,2.4,0,0,1,.52,1.87c.14-1.21.51-1.57.95-1.82a1.52,1.52,0,0,0,.17-1.52C55.46,268.72,55.19,268.06,54.8,269Z"/><path class="cls-6" d="M93.47,262.89c.15.93.42,1.26.73,1.34s.51-.59.56-1.34C94.4,263.37,94,263.54,93.47,262.89Z"/><path class="cls-6" d="M68.34,267c-.25.3-.67.27-.73,1,0,.45.34.31.52.43s.35-.42.41-.87S68.5,266.82,68.34,267Z"/><path class="cls-6" d="M89.25,263.8c0,.43-.27.54-.28,1.3a5.56,5.56,0,0,0,.59-.73.89.89,0,0,0-.09-.72C89.36,263.44,89.27,263.58,89.25,263.8Z"/><path class="cls-6" d="M133.52,52.4s0,0,.21-.1a7.59,7.59,0,0,0,.69-.36l.05,0-.19.09A7.41,7.41,0,0,0,133.52,52.4Z"/><path class="cls-6" d="M149.71,73.21a20.83,20.83,0,0,1,3.24.52c-.82-.24-2-1-3-1.26.48-.12,1.13-.47,1.73-.57a17.83,17.83,0,0,0-1.95-.65c.8-.19,1.25-.73,2.53-.67-.54-.23-1-.72-1.5-.94,1.11-.34,1.32-1,2.14-1.43a13,13,0,0,1-3.07-1.08,8.27,8.27,0,0,0,1.52-.35,10,10,0,0,1-1.2-1.33,7.19,7.19,0,0,0,1.07-.22,19.88,19.88,0,0,1-1.75-2.41c2.5,2.43,2.08-3.87,1.95-5a17,17,0,0,0-4.94-10.1c-2.06-2.06-9.29-4.29-10.06-6.77-2.27-.58-4.48-1.91-6.73-2.32.34.37.63.94.95,1.36-3.44-.38-6.17-.23-9.67-.94-3.74-.76-7.18-.17-10.92.32-2.39.32-31,1.83-31,1.22-2.43,2.6-5.35,1.3-8.38,1.18-5.89-.25-15.63,6.82-20.82,1.6a7.75,7.75,0,0,1-6.92,3.44,13.81,13.81,0,0,1-.58-2.32c-.69,3.59-7.49,3.73-10,4.45a12,12,0,0,0-2.21.52c0-.83-.57-1.68-.39-2.67-7.08,4.09-13.43,3.43-20.93,5.49.33.51.36,1.64.72,2.15-.57.19-1.14.76-1.72.94.45.7.25,1.25,1,1.94a26.19,26.19,0,0,0-4.13.6c1.61.26,3.34.63,4.23,2-.91.16-1.85.8-2.82.83.79.27,1.48,1,2.22,1.32-.63.22-1.31.78-2,1,.9,0,1.86.59,2.75.69-.28.18-.56.37-.82.57,1,.42,2.19.68,3.24,1A10.52,10.52,0,0,1,9.1,66.41l.57.45-.61.4a2.4,2.4,0,0,1,1.11,1.38,4.69,4.69,0,0,1-1.77.55c.53-.13,1.7,1.26,1.94,1.61-.2.17-.4.35-.58.53a41,41,0,0,1,3.49,2.42c-.72-.08-1.56.08-2.32,0,1.45.4,1.88,1.23,2.58,2.35-.51.24-1,.8-1.55,1.06.69,2.33-1.24,4.27-1.42,6.6-.92-.3-2.22-.09-3.13-.47a11,11,0,0,1,2,4.35c-5.25.44-1.8,7.31-.49,10-3,1-2.26,3.83-1.38,6.11C7,103.74,6.46,104,6,104c.8.74,1.39,2,2.31,2.64-.28.31-.56.61-.86.91a11.87,11.87,0,0,0,3.55,3.2l-.94.67c6.46,7.8,9.59,14.91,11.79,24.16-1.12-.17-2.26.34-3.32.31.5.66.49,1.28,1.26,1.91a9.86,9.86,0,0,0-1,4.17c.68-.16,1.39.18,2,.07a5.23,5.23,0,0,1-.42,3.31c1.4-2.55-4.84-1-5.54-.34a3.39,3.39,0,0,0,1.77,1c-.14.38-.24.93-.34,1.24,1.63-.45,3,.16,3.1,1.87,1,.37,1,.74,1.65,1.23a15.87,15.87,0,0,1-2.07,1,3.4,3.4,0,0,1,3.27,1.57c-.55.05-1,.42-1.76.34-.25-.32.15-.57,0-.81a8.81,8.81,0,0,0-1.79.52c.09.24.49.64.5.87-1.05,0-1.79.66-2.5.83,2.43,2.79,6.2,6.18.34,7.8.92,1.85,2.93,1.42,4.57,2.19-2.77,1.29-2.85,4.36.6,3.84a6.42,6.42,0,0,0-.34.56,2.69,2.69,0,0,1,3.18.83c-.6,0-2.14.49-2.88.44a2.89,2.89,0,0,0,3.23,1.12c-1.87.4-2.54,1.86-5.48,1.71,1.69.39,3,1.49,2.34,3.13-.57-.17-1.42,0-1.95-.09.49,1.87.37,1-.18,2.76,1.7,2.09,5.15,1.63,3.92,5.47-.19,0-1,0-1.23-.07a9.81,9.81,0,0,1,.11-1.09c-.26-.37-.92-.23-1.11-.57,0,0,.17-.74.15-.84a4.18,4.18,0,0,0-2.1-.13c.24.32.7.16.94.48s-.51.65-.35,1.06a6.79,6.79,0,0,1,1.3.63,11.17,11.17,0,0,0-.26,2c1.84.56,4.14,1.17,4.2,3.43-1.42-.25-2.35-.89-4.07-.45.65.29,1.33,1.14,2,1.49-.43.24-.87.6-1.29.81.43,1.13.58,1.43,1.73,1.84,0-.23-.5-.43-.33-.66s.94-.46,1.11-.8c-.26,1.9,2.31,5.82,3.84,6.58-1.92.29-3.3-1.12-4.75-2.17-.12,2.17,9.14,5.88,3.18,6.74,1.05.26,1.84,1.09,2.81,1.48-.12.48-.55,1.8-.74,2.3-1,.41-1.87,1.3-2.92,1.67a3.06,3.06,0,0,1,3.51,1.73c-.62.37-1.42,1.54-2.21,1.83,1.74,2.06,3,3.13,2.79,5.77-.4.21-1,.69-1.39.87-.76,3.59.44,8.27,2.09,11.62a6.79,6.79,0,0,1,1.21-.2c-.9.76-.51,1-.94,1.81.35,0,1,0,1.48,0,.2.89.35,1.28.62,2.18a5.84,5.84,0,0,1-1.49.32c.33.23.69,1.11,1.35,1.48-.44.46-1,2-1.35,2.39a4.49,4.49,0,0,1,1.71-.11c-.7,2.33,1.49,2.2,2.29,4,1.08,2.43-.23.69-.4,3.25a36.34,36.34,0,0,0,.17,3.93,17.75,17.75,0,0,1-.82,5.46c5.44-.77,2.74,8.56,2.12,11.12.68-.22,1.78-.34,2.29-.55,0-.33-.13-.66-.08-1a4.16,4.16,0,0,1,1.17,1.07l.51-.89c.14.15.44.78.62.87.61-.53,2-.89,2.55-1.52a36.21,36.21,0,0,1-.08,3.74,4.46,4.46,0,0,0,.63,0c.3-.49.61-1,.86-1.53a4.32,4.32,0,0,1,.46,1.21c.32,0,.51-.71.76-.63a3.31,3.31,0,0,0,1.58,1c-.25-1,.14-1.44.14-2.28.34-.11.44.51.73.59.5-.3.5-.83,1.13-.87a2.39,2.39,0,0,1-1.33,2.84,8,8,0,0,1,.92,4.32c.11-.66.66-1.69.86-2.39.36.13.49.41.81.4-.34-2.28,1.43-3.22,2.49-4.53.12.64.57,1.5.67,1.95-.19-1.5.41-1.9,1.13-3,.08,1.71-.4,1.83-.21,3.56.1.17.49-.43.62-.42a13.81,13.81,0,0,0,.39,2.51,10,10,0,0,0,2.7-3.43c2,0,2.5,1.75,2.63,3.51,0-.58,1.51-3,1.71-3.72a8.94,8.94,0,0,1,1.16,1.72c1.72-1.52,1.67-3.32,2.43-5.46,0,.88.37,1.78.42,2.64.13-.94.65-1.87.76-2.86,1.24,1.49,1.23,3.53.87,5.39a16.77,16.77,0,0,1,1.14-2.57c-.11-.18,1.05.08,1,.12-.15.71,0,1.53-.06,2.25.28,0,.76-.53,1-.69.3.35.49.93,1,1a7,7,0,0,0,1.1-3.76c1.58-.6,2.63-.34,2.56,1.28-1.41.12-2,1.16-1.84,2.78.8-1.19.27-.22,1.08-.49a2.79,2.79,0,0,1,.59-1.13,10.55,10.55,0,0,1,1.12.22c.23-1.63.72-3.3,2.35-3.91a17.41,17.41,0,0,0-.26,4c.17-.58.78-1.27,1-1.82a5.88,5.88,0,0,0,.55,1.16c1-.43.9-.49,1.23-1.56,0,0-.33.46-.35.38-.17-.31-.32-1.15-.56-1.38,1.53.33,2.44-.51,2.86-2.12.27-.24.51.38.81.29.19-.52.35-1.09.56-1.59a8.35,8.35,0,0,1-1.1,4.71c2.16-.35,1.53-3.36,2.63-5.12,1,1,1.35.87,1.62,2.46a15,15,0,0,1,.93-3,6.43,6.43,0,0,1,.75,1.27c.09-.09.09-.9.4-.8a12.38,12.38,0,0,1,1.63,3.49A2.86,2.86,0,0,1,94,260.06c.18.65,1,1.49,1.21,2.18.41-1,1.49-1.68,2-2.53.72.1,1.36.06,1.76.09.18.43.51,1,.67,1.41a4.72,4.72,0,0,1,1.79.49c.35-.19.51-.5.84-.7a5.51,5.51,0,0,0,5.13-1.29s-.2-1-.21-1.13a4.94,4.94,0,0,1,.78,1.05.84.84,0,0,0,.5-.08,9.85,9.85,0,0,1-.1-1.46c.19-.07.65.6.84.39.26,0,.34-.74.58-.88a9.72,9.72,0,0,1,.36,1.48c0-.08.7-1,.89-1.28.28.36,1.35,1,1.64,1.47a14.42,14.42,0,0,1,0-1.61c1.27.7,1.68.07,2-1.63.4,0,.47.46.8.56a1.53,1.53,0,0,1,.35-1.47,7.73,7.73,0,0,0,3.5,1.25,4.85,4.85,0,0,1-.74,1.21,4.93,4.93,0,0,0,1.85,1.19c-.1-.94.56-2,.53-2.95.75.5,2.08.57,2.83,1.12-.41-2.79,3.28-4.11,4.51-6.5a32.28,32.28,0,0,0-3.8.08c-.71,2.07-2.27,2-3.32,3.74.29-2.46,1.32-5,1-7.47a8.33,8.33,0,0,1,.31,1.24c1-.44.75-.31,1.81-.07-.23.41-.46.81-.64,1.22,0-.12,3.9.08,4.33-.33.92-.87.63-4.08.93-5.43,1-4.33,3.3-8.22,4.4-12.52.84-3.32-.06-6.17.28-9.41.24-2.33,3.42-5.32,1-7,.3-.32.67-.48,1-.8.22,0-.75-1-.7-.76-.2,0-.49.44-.74.52a4.19,4.19,0,0,1,.27-2.53l1.15-.05a4.2,4.2,0,0,1,.63-4.08c-.2-.45-.67-.62-1.06-.89a5.1,5.1,0,0,0,1-.8c-1.44-.92-1.7-2.24-.47-3.53a6.18,6.18,0,0,1,1,1.41c-.66-1.26-2-5.27-1.84-6.88,1.12.08,2.09-.24,3.2.4-1.61-.94-2.72-2.46-1.21-3.89-1.62-1.41-1.15-2.74.82-3.32-1.22-1.92.27-3.55,1.1-5.29-2.51-1-4.64-13.38-.89-15.28a7.94,7.94,0,0,1-2.74-6.69,14.18,14.18,0,0,1,2.5.19c-.89-1.59-3.06-2.17-2.85-4.24,5.6.2,6.22-.53,8.92-5.73-.07-.15-.8-.36-.95-.46.45-.39.57-.47.34-.94,0-.11.56-.34.62-.41-1.33-.77-.64-.5-.89-1.51,0,.1-.55-.49-.54-.47a3.38,3.38,0,0,0,1-.65c.19-.24.73-.31,1-.41a10.69,10.69,0,0,0-1.77-.42c.35-.07.91,0,1.16-.29a.62.62,0,0,0,0-.13c0-.31-1.38,0-1.52,0,.51-.35,1.32-.78.55-1.08.11-.28.65-.84.68-1a3.93,3.93,0,0,1-1.07-.34A2.22,2.22,0,0,0,143,144c-.45-.16-1-.28-1.41-.42,0-.17.11-.35.17-.52.6.06,1.34,0,2,.05-1.45-.29-1.78-1.07-2.72-1.8a12.35,12.35,0,0,1,2.92-.09c-.81-.16-1.58-.47-2.36-.66,0-.28.79-.33,1-.54a8.7,8.7,0,0,1-1.21-.43c.55-.22,1.11-.39,1.66-.62l-.79-.56a4.29,4.29,0,0,0,1.29-1.1c-.74-.12-1.56-.65-2.33-.72l.69-.37c-.14-.36-.71-.42-.74-.8a1.26,1.26,0,0,0,.55-.39,7.79,7.79,0,0,1-1.51-2c.53-.11,1.07-.42,1.65-.5a3.56,3.56,0,0,1-3.25-2,16.88,16.88,0,0,1,2.39-.19c-1.27-.1-2-.76-3.12-1.2-.18-.32.36-.34.41-.62a4.72,4.72,0,0,1-1.25-.91.41.41,0,0,1,.21-.25c-.19.3-.6-.72-.56-.67s1.67-.29,2-.35c-.46-.36-.82-1.4-1.26-1.8,1.44-1.34,3.47-3.68,3.1-5.83a5.18,5.18,0,0,1,1.07.3c.1.08.25-.34.27-.33s-.74-.62-.74-.63c.46.27-.79.06-.77.06a2.35,2.35,0,0,0,.41-1.18,6.45,6.45,0,0,0,1.42.69,3.69,3.69,0,0,0-.49-.76c.23-.09.59,0,.79-.17,0-.31-.1-.54-.1-.79h.79a5.91,5.91,0,0,0-.92-1.08,4.94,4.94,0,0,0,1.12.22c-.38-.4-.85-.63-1.18-1l1.12-.9c.32.32.47,1.05.6,1.18a1,1,0,0,0,.71,0c-.6-.83-1.54-2-2.28-2.9,0,0,.83-.23.9-.27-.07-.27-.55-.63-.45-.91a15.71,15.71,0,0,1,3.42,1.68c-.7-.49-1.58-1.7-2.42-2.21a17.09,17.09,0,0,1,1.86-.11c-.55-.37-1.08-.91-1.66-1.22,1-.1,1.27-.5,2.64,0-.48-.4-.77-1-1.17-1.39,1.28-.1,1.51-.64,2.51-1a12.22,12.22,0,0,1-2.71-1.88,8.94,8.94,0,0,0,1.57,0c-.31-.6-.51-1.09-.82-1.69a4.48,4.48,0,0,0,1.1,0,4.14,4.14,0,0,1-1.25-3.69,16.44,16.44,0,0,1,2.42,0,3.35,3.35,0,0,1-2.78-2.37,2.65,2.65,0,0,1,2.24-.81c-.49-.57-.6-1.63-1.06-2.23a13.71,13.71,0,0,1,3.82-4.33c-.31-.37-.6-.8-.94-1.15,1-1.42.75-2.79.28-4.45.59-.29,1.21-.9,1.82-1.12-.14-.41-.9-.64-1.26-.8.21-.07,1-.17,1.07-.45a4.07,4.07,0,0,0-1.63-.05s0-1,0-1a4.77,4.77,0,0,0,1.41,0c0-.11-.61-.44-.57-.48.12-.36.81-1,.86-1.24-.27-.39-.8-.33-1.12-.62a6.53,6.53,0,0,0,1-.18c-.46-.27-1-.35-1.45-.61a3.8,3.8,0,0,0,.66-1.05,9.53,9.53,0,0,0,1.65.59,8.11,8.11,0,0,1-2.8-3ZM7.91,63.2A3.25,3.25,0,0,1,6.57,63c-.06-.15.64-.07,1-.09s1.26,0,1.23.15S8.32,63.21,7.91,63.2ZM9.3,60.51c.2-.17,1.07-.09,1.42-.14s.91,0,.85.06-.84.17-1.45.19C9.66,60.64,9.2,60.6,9.3,60.51Zm2,3.93c-.32.06-.77.09-1.22.14l-1.75-.24c-.1,0-.14,0,0-.07a1.9,1.9,0,0,1,.6,0,15.06,15.06,0,0,0,2.17.08C11.4,64.29,11.6,64.39,11.31,64.44ZM12.51,63a1.39,1.39,0,0,1-.89-.15c-.42-.25-1.66-.41-1.53-.71-.05-.12.24-.2.86-.24a1.38,1.38,0,0,1,.89.15c.63.21.64.46,1.11.69C13.16,62.87,12.88,63,12.51,63ZM7.44,93c-.06.17-.55.07-.94,0-.56-.18-1.22-.42-1.21-.66s.64,0,1,.12S7.56,92.68,7.44,93Zm11.94,70.15c-.59,0-1.29-.15-1.36-.56s.63-.24,1-.3,1.27-.1,1.26.49C20.29,163.1,19.79,163.15,19.38,163.12Zm104.88,89.15a.88.88,0,0,1,.3-.27l-.13,1a.24.24,0,0,1-.27,0C124,252.86,124,252.6,124.26,252.27ZM139,138.78c.45,0,.7,0,.7.11s-.56.12-1,.15-.58,0-.59-.09S138.39,138.79,139,138.78Zm3.46-71.89a2.53,2.53,0,0,1-1,0c-.39-.07-.94-.12-.87-.25s-.39-.32-.51-.47a.6.6,0,0,1,.13-1,1.92,1.92,0,0,1,.86,0,3.29,3.29,0,0,1,1.05.25c.23.11-.15.11-.43.14-.51,0-.27.1.07.18C143.39,66.1,143.65,66.59,142.45,66.89Zm-.13,1.5a3.06,3.06,0,0,1-1-.08c-.61-.1-.85-.23-.84-.39a.48.48,0,0,1,.15-.1c.13,0-.06-.17.36-.15a.76.76,0,0,1,.55.19,5.42,5.42,0,0,0,.7.3C142.48,68.24,142.64,68.34,142.32,68.39Zm-4.73-9.73c-.05-.14.24-.22.86-.25a1.27,1.27,0,0,1,.89.19c.62.25.63.53,1.09.8.2.11-.07.25-.45.28a1.32,1.32,0,0,1-.89-.2C138.69,59.19,137.44,59,137.59,58.66Zm1.14,2.54c-.32,0-.77.07-1.23.11L135.77,61c-.1,0-.14,0,0-.08a1.68,1.68,0,0,1,.6,0,15.85,15.85,0,0,0,2.16.16C138.83,61,139,61.15,138.73,61.2Zm10.07-7.58a11.45,11.45,0,0,1,1,3.51c-.14-.35-.29-.68-.45-1l-.16-.37c0-.09-.09-.18-.13-.28q-.48-1-1-2Zm-9.68,3.14c-.1.19-.84.17-1.45.18s-.93,0-.82-.14,1.07-.07,1.42-.12S139.17,56.67,139.12,56.76Zm1.94,5.84c-.12-.08-.07-.18.21-.22a2.54,2.54,0,0,1,.94.1c.38.05.72.13.48.24s-.19.11-.3.16,0,.26-.73.22-.52-.19-.66-.3C141.45,62.76,141.18,62.68,141.06,62.6Zm1.81-2.35s0,0,0,.08-.37.22-.85.23-.43-.14-.63-.22-.11-.06-.07-.09,0-.38.89-.37S142.72,60.11,142.87,60.25Zm-.39,4.53a.42.42,0,0,1-.19.07,8.38,8.38,0,0,1-3.92-.52c-.23-.21-.12-.24.93-.18.47,0,1,.07,1.63.08C141.87,64.23,142.84,64.6,142.48,64.78Zm1.92-8h.22c0,.1,0,.21,0,.31h-.12c-.53,0-.93-.11-1-.23S144,56.74,144.4,56.76ZM147.13,51l-.23-.07a3.4,3.4,0,0,1-.74-.38c-.33-.23-.36-.54-.67-.76-.59-.72-1.2-1.42-1.85-2.07A18.2,18.2,0,0,1,147.13,51Zm-51.06-1.4c.32,0,.59.29.62.89s-.16.74-.45.79-.55-.19-.6-.75S95.73,49.57,96.07,49.58Zm-7.56-.36c.06-.07.23,0,.29.1.37.58.55.28.69-.32s.42-.47.69-.37.29.38.22.74c.06.66.07,1.24-.51.87-.25-.16-.48,0-.71.14s-.53-.06-.65-.56C88.48,49.63,88.36,49.37,88.51,49.22Zm-16,.18c.1-.47.55-.44.87-.54a.55.55,0,0,0,.15-.08c.15-.06.26,0,.35.24.26.61.49.3.63-.11.22-.7.49-.62.76-.12a1.47,1.47,0,0,1,.06,1.65,2.39,2.39,0,0,0-.52.88c-.1.35-.38.22-.59,0s-.15-.4,0-.63a.37.37,0,0,0-.08-.52c-.16-.12-.28,0-.33.23-.27,1.12-.48.64-.69-.11a2.25,2.25,0,0,1-.08-.24C73,49.6,72.41,50.08,72.56,49.4Zm-1-4.79c.39,0,.4.55.48,1s-.06.59-.29.6a.78.78,0,0,1-.56-.85C71.2,44.88,71.34,44.63,71.58,44.61ZM67.38,52a3.7,3.7,0,0,0,.65-.75c.16-.25.37-.43.59-.12s.07.68,0,1c-.14.63-.43.89-.84.9a.85.85,0,0,1-.3-.13c-.16-.12-.44.09-.49-.32S67.23,52.14,67.38,52Zm-6.57-.19c.24-.24.32.14.43.41.2.5.32.25.47-.1.69-1.65,1.91-2,2.94-.85a1,1,0,0,1,.21,1c-.08.4-.1.95-.48.91s-.75.44-1.12.58a3.44,3.44,0,0,1-2.62,0c-.22-.09-.29-.41-.29-.86A1.71,1.71,0,0,1,60.81,51.8Zm-.41,4.26c.23-.2.45-.31.7-.16s.55.16.57.65-.31.07-.44.3a6.79,6.79,0,0,1-.53.79c-.28.37-.57.57-.83-.07-.12-.28-.22-.3-.41-.2s-.47-.21-.45-.66.25-.52.48-.43C59.85,56.65,60.13,56.3,60.4,56.06Zm-1.28-4.48a.55.55,0,0,1,.22.18c.62,1.15.21,3.53-.69,4-.52.26-.61.15-.63-.9a7.88,7.88,0,0,0-.09-1.63C57.78,52.28,58.58,51.25,59.12,51.58Zm-6,.63c.09-.39.23-.73.55-.51.15.11.31.17.47.27s.7,0,.7.69-.42.55-.69.71c-.18-.45-.35-.17-.54,0a.41.41,0,0,1-.62-.17C52.78,52.8,53,52.51,53.12,52.21ZM49.8,56.12c0-.33.23-.54.4-.25a9.22,9.22,0,0,1,.46,1.2c-.22.59-.43,1.19-.66,1.77,0,.1-.13.15-.21,0a.73.73,0,0,1-.15-.59A5.61,5.61,0,0,0,49.8,56.12Zm-2.63-4.24a.86.86,0,0,1,.23-.05c.35,0,.61.34.69.8s-.32.46-.5.66a.23.23,0,0,1-.23.09c-.4-.15-1,0-1.08-.83S46.84,52.05,47.17,51.88Zm-.56,7.53c0,.59-.12,1.29-.49,1.36s-.22-.63-.28-1-.11-1.27.42-1.26C46.58,58.5,46.63,59,46.61,59.41Zm-3.44-3.79c.62-.65,1.37-.7,2-1.19.29-.22.68,0,.8.41a.77.77,0,0,1-.44.91c-.71.44-1.18,1.71-2.06,1.6-.36.07-.61-.21-.73-.82S43,55.85,43.17,55.62Zm-1.56-7.55c.27-.09.27.45.33.75s0,.77-.3.73-.36-.13-.31-.47S41.38,48.15,41.61,48.07ZM38.53,58.33c-.52-.17-.26-1-.43-1.4s-.08-.9.18-.86c.51.08.5.83.58,1.43S38.81,58.43,38.53,58.33Zm-.29-8.58c.27,0,.53.36.51.9s-.21,1-.54,1-.3-.41-.29-.85S37.77,49.74,38.24,49.75Zm-18.84,3c.31.15.81-.08.86.69,0,.54-.38.46-.62.55s-.59,0-.63-.64C19,53,19.13,52.64,19.4,52.77Zm-1,8.72a3.65,3.65,0,0,1,1,.1c.08.09-.46.09-.75.11s-.77,0-.73-.11S18.11,61.47,18.44,61.49Zm-1.59-1.18c.36,0,1.07-.05,1,.11s-.38.19-.92.18-.93-.08-1-.19S16.41,60.31,16.85,60.31Zm-2.07,2.84c.93,0,.48.2.63.31a.56.56,0,0,1,.05.08c0,.12-.37.21-.84.22s-.44-.11-.64-.17-.11-.06-.08-.08S13.92,63.16,14.78,63.15Zm-.89,2.27a2.91,2.91,0,0,1,.95.06c.38,0,.71.09.48.19s-.18.11-.29.16,0,.24-.72.22-.53-.15-.68-.24c.46,0,.18-.12.06-.18S13.61,65.47,13.89,65.42ZM10.8,68.1a1,1,0,0,1-.68.18c-.49,0-.06-.11-.28-.16s-.53-.13-.77-.2-.53-.2.12-.27c.28,0,.31-.07.21-.13s.24-.15.68-.14.51.09.41.17c-.39.11-.05.21.18.31S11,68,10.8,68.1Zm.27-.82c-.24-.18-.13-.21.92-.19.48,0,1,0,1.64,0,.93,0,1.92.26,1.57.44a.77.77,0,0,1-.19.07A9.4,9.4,0,0,1,11.07,67.28Zm1.82,1.6A.51.51,0,0,1,13,68a2.08,2.08,0,0,1,.86-.08,3.67,3.67,0,0,1,1.06.19c.24.08-.15.1-.43.13-.51.06-.26.1.09.16,1.61.28,1.89.7.7,1a2.57,2.57,0,0,1-.95,0c-.4,0-1-.06-.88-.19S13,69,12.89,68.88Zm1.33,1.85c-.62-.06-.87-.17-.86-.31s.06-.06.14-.09-.07-.15.35-.16a.82.82,0,0,1,.56.15,6,6,0,0,0,.72.24c.24.06.41.14.09.2A3,3,0,0,1,14.22,70.73Zm.49,1.94a1.13,1.13,0,0,1,.63,0,.9.9,0,0,0,.52,0c.13-.05,0-.09-.21-.12-1.1-.13-.62-.18.15-.23l.24,0c.49,0,0-.23.7-.15.47,0,.42.2.5.31a.22.22,0,0,0,.07.06c.06,0,0,.08-.26.11-.62.07-.32.15.09.22.68.1.59.19.08.26a4,4,0,0,1-1.65,0,4.3,4.3,0,0,0-.86-.21C14.37,72.82,14.51,72.73,14.71,72.67ZM12.19,94.89c.21-.15.14-.51,1-.31s.39.4.5.6c0,0,0,.08,0,.12s-.43.22-.9.14-.38-.27-.55-.41S12.15,94.92,12.19,94.89ZM12.52,98c.37.11.69.23.43.36a3.14,3.14,0,0,0-.31.18c-.19.11-.07.35-.76.25s-.5-.3-.62-.46c.45,0,.2-.15.1-.27s0-.26.24-.29A2.05,2.05,0,0,1,12.52,98ZM9.24,88.83c.28-.21,1,.25,1.4.29l.45.16.12.1a.34.34,0,0,1,.14.16c-.23.16-.86-.07-1.41-.24S9.08,88.94,9.24,88.83Zm.09,7c-.33,0-.78,0-1.24,0-.55-.25-1.1-.5-1.63-.76-.09,0-.12-.11,0-.14a1.1,1.1,0,0,1,.59.05,9.75,9.75,0,0,0,2.1.58C9.48,95.56,9.63,95.75,9.33,95.78Zm1.68-2a.94.94,0,0,1-.79-.47c-.29-.5-1.42-1.12-1.14-1.56,0-.22.32-.26.93-.13a1,1,0,0,1,.78.49c.5.51.41.91.76,1.38C11.71,93.74,11.39,93.86,11,93.82Zm-2.87,8a.73.73,0,0,1-.68.31c-.49,0,0-.19-.28-.28a5.82,5.82,0,0,1-.75-.36c-.35-.18-.53-.38.13-.49.28-.05.31-.11.22-.23s.25-.26.69-.21.49.19.39.31c-.39.19-.05.38.17.55S8.31,101.73,8.14,101.86Zm.33-1.38c-.22-.32-.1-.36.95-.27a15,15,0,0,0,1.63.12c.93,0,1.89.51,1.52.75a.42.42,0,0,1-.19.09C11.2,101.41,8.83,101,8.47,100.48Zm2.31,3.26c.07-.23-.41-.4-.54-.6a1.05,1.05,0,0,1,.09-1.42c.1-.11.42-.13.87-.1a2.47,2.47,0,0,1,1.05.3c.23.12-.15.15-.43.19-.52.08-.27.16.07.25,1.62.41,1.91,1,.74,1.5a1.85,1.85,0,0,1-1,.12C11.28,103.94,10.72,103.94,10.78,103.74Zm1,2.19c-.63,0-.89-.16-.91-.38a.43.43,0,0,1,.13-.16c.11-.1-.1-.23.32-.28s.43.1.58.16a3.56,3.56,0,0,0,.75.29c.25.06.43.15.13.28A2.28,2.28,0,0,1,11.75,105.93Zm1.93,3.18a3.27,3.27,0,0,0-.91-.09c-.35,0-.24-.15-.06-.29a.79.79,0,0,1,.62-.12.68.68,0,0,0,.51-.13c.1-.1,0-.13-.25-.12-1.11.06-.65-.14.08-.36l.23-.07c.47-.12,0-.33.64-.36.47,0,.47.18.58.31s.05,0,.08.06,0,.12-.22.2c-.58.24-.26.29.14.28.7,0,.63.1.17.33A3,3,0,0,1,13.68,109.11Zm2.2,6.82c.08-.18-.15-.19-.28-.25s-.06-.28.37-.56a1.43,1.43,0,0,1,.53-.28c.07,0,.05.1,0,.17-.44.43-.14.38.41.16s.5,0,.46.11-.27.31-.6.46C16.17,116.09,15.68,116.38,15.88,115.93Zm1.5,3.11c-.37.3-.63.39-.76.29s0-.36.43-.71.77-.51.85-.37S17.84,118.66,17.38,119Zm.92-12.27c-.39.09-.58.06-.6,0s.24-.25.83-.34.7,0,.72,0S18.71,106.67,18.3,106.77Zm3.88,18.91c-.37.13-.65,0-1.32-.42l0-.07c.25-.64.5-.68.46-.43-.12.77.17.81.79.28.2-.18.29,0,.17.33A1.31,1.31,0,0,1,22.18,125.68Zm-1.6,28.49c.18-.56,1.06-.25,1.41-.42s.9-.06.86.22c-.1.56-.84.53-1.45.59C20.94,154.61,20.48,154.48,20.58,154.17Zm2.34,13a8.83,8.83,0,0,1-1.2.51L20,166.91c-.11,0-.15-.15-.05-.24a.68.68,0,0,1,.59-.17,5.07,5.07,0,0,0,2.18.19C23,166.63,23.21,166.94,22.92,167.13Zm1-4.63c-.49.16-.77-.26-.9-.5-.45-.79-1.71-1.33-1.61-2.3-.06-.41.23-.67.84-.79s.68.22.9.47c.64.69.69,1.52,1.19,2.25C24.59,162,24.33,162.37,24,162.5ZM26.62,126c.32-.57.62-.72.72-.24a10.89,10.89,0,0,1,.11,1.17A2.19,2.19,0,0,0,26.62,126Zm1.5,27.78c.36.06,1.07-.12,1.05.38,0,.3-.37.57-.91.54s-.94-.27-1-.63S27.68,153.73,28.12,153.75Zm-1-20.28c-.18.32,0,.88-.76.88-.53,0-.42-.46-.5-.73s.1-.63.7-.63C27,133,27.31,133.18,27.16,133.47Zm-.91,29.37c.92-.06.5.62.66,1a1.4,1.4,0,0,1,.06.24c0,.39-.35.67-.81.75s-.46-.35-.66-.55a.27.27,0,0,1-.09-.25C25.56,163.58,25.38,162.9,26.25,162.84Zm-.59,7.36c.36-.23.66.05,1,.13s.73.24.52.6c-.1.17-.16.35-.26.52s0,.76-.68.77-.56-.46-.72-.75c.45-.2.16-.38,0-.59A.47.47,0,0,1,25.66,170.2Zm-2.52,9c-.12.26-.13.62-.62.66s-.09-.35-.32-.48a7,7,0,0,1-.82-.57c-.38-.3-.59-.62,0-.93.27-.13.29-.25.18-.45-.2-.36.2-.52.65-.51s.51.26.44.52c-.36.41,0,.71.26,1S23.28,178.89,23.14,179.16Zm.07-2.7c-.28-.57-.17-.68.88-.72a6.34,6.34,0,0,0,1.63-.13c.93-.17,2,.68,1.66,1.28-.05.09-.08.19-.18.24C26.09,177.84,23.67,177.44,23.21,176.46Zm2.86,6.24c0-.49-.47-.82-.63-1.22a4.08,4.08,0,0,1-.15-2.88c.08-.24.39-.32.84-.34a1.65,1.65,0,0,1,1.1.48c.25.25-.12.35-.39.48-.49.23-.23.36.13.51,1.68.71,2.07,2,1,3.19a1,1,0,0,1-.94.27C26.6,183.11,26,183.11,26.07,182.7Zm1.22,4.6c-.63-.11-.91-.42-1-.87a1.82,1.82,0,0,1,.11-.33c.11-.19-.12-.48.3-.55s.44.23.6.38a4.08,4.08,0,0,0,.79.69c.26.15.46.38.16.63S27.62,187.36,27.29,187.3Zm2.15,7.29a2.5,2.5,0,0,0-.93-.51c-.36-.08-.25-.41-.07-.64s.39-.19.62-.05a.35.35,0,0,0,.52-.12c.11-.17,0-.29-.25-.34-1.13-.23-.67-.49.06-.76.09,0,.16-.08.24-.1.48-.12-.05-.74.64-.62.48.09.48.57.59.91a.83.83,0,0,0,.09.16c.08.16,0,.29-.21.4-.59.33-.26.55.15.67.71.21.66.5.19.83A1.38,1.38,0,0,1,29.44,194.59Zm-.15-36.75a.36.36,0,0,1,.47-.33c.36.08.93.08,1,.33s-.46.27-.76.34S29.24,158.17,29.29,157.84Zm2.47,59.94c-.47.08-.76-.08-.84-.4a.71.71,0,0,1,.66-.74c.5-.1.94,0,1,.35S32.35,217.67,31.76,217.78Zm1-7.27c-.06.26-.34.36-.71.32-.65.14-1.22.2-.92-.47.13-.28-.1-.51-.22-.75s0-.59.49-.77c.18-.07.42-.22.59-.08s0,.25-.06.33c-.54.46-.23.62.38.72S32.79,210.21,32.72,210.51Zm1.34-19.82c-.4.1-.6,0-.62-.28a.77.77,0,0,1,.81-.65c.44,0,.71.11.74.36C35,190.53,34.47,190.58,34.06,190.69Zm7.25,67.2a.62.62,0,0,1-.19,0,1.3,1.3,0,0,1-.23-.41.13.13,0,0,0-.16-.09l-.18.07c-.07-.22.28-.39.57-.49.46-.14.63,0,.7.29A.56.56,0,0,1,41.31,257.89Zm15.5,7.44c0,.47-.12.92-.32.8-.36-.21-.09-1.07-.18-1.43s0-.9.21-.84C56.88,264,56.81,264.72,56.81,265.33Zm.53-6.83c-.06.53-.24.92-.48.95s-.17-.43-.13-.87,0-1.06.32-1S57.4,258,57.34,258.5Zm2.15-.85c-.12,0-.25-.16-.19-.49s.11-.93.28-1,.15.47.17.77S59.7,257.71,59.49,257.65Zm.77,7.91q-.42.06-.48-.87c-.05-.66.18-.66.36-.88.5-.61,1.06-.61,1.57-1.06.22-.2.49.08.56.46a.85.85,0,0,1-.38.88C61.33,264.48,60.91,265.72,60.26,265.56Zm2.19,2.25c-.05.58-.17,1.28-.45,1.32s-.13-.63-.15-1,0-1.27.4-1.23C62.48,266.9,62.49,267.4,62.45,267.81Zm1.07-6c-.05.06-.12.11-.17.07-.28-.18-.75,0-.74-.9s.43-.46.68-.61a.85.85,0,0,1,.17,0c.25,0,.43.38.46.85S63.66,261.57,63.52,261.77ZM65,267.46c0,.1-.1.13-.16,0a1,1,0,0,1-.09-.6,7.43,7.43,0,0,0,.23-2.16c0-.34.18-.52.3-.24a10.54,10.54,0,0,1,.29,1.22Zm3.27-5.3c-.12-.45-.25-.18-.39-.06s-.34.09-.45-.19.06-.65.12-1,.19-.72.42-.48.22.18.33.28.51,0,.49.72S68.5,262,68.3,262.16Zm2.81,1.62a10.26,10.26,0,0,0,0-1.63c-.09-.93.5-1.95.89-1.61a.44.44,0,0,1,.16.19c.44,1.15.13,3.53-.54,4C71.18,265,71.11,264.83,71.11,263.78Zm2.37,2.07a6.31,6.31,0,0,1-.4.78c-.21.37-.43.55-.62-.09-.09-.28-.16-.3-.31-.2s-.34-.23-.32-.67.18-.51.35-.42c.27.38.48,0,.69-.21s.33-.29.51-.14.41.17.43.66S73.58,265.62,73.48,265.85Zm2.31-3.67c-.33-.07-.55.42-.82.56a1.93,1.93,0,0,1-1.93,0c-.16-.1-.21-.42-.2-.86a1.84,1.84,0,0,1,.34-1.07c.16-.24.22.14.3.41.15.51.24.26.35-.09.5-1.64,1.36-1.95,2.12-.79a1.33,1.33,0,0,1,.17.95C76.07,261.68,76.06,262.23,75.79,262.18Zm3.07-1c-.07.62-.28.88-.58.9a.85.85,0,0,1-.22-.13c-.13-.12-.32.09-.37-.32s.16-.43.26-.58a4.13,4.13,0,0,0,.46-.76c.1-.24.25-.42.42-.12A1.66,1.66,0,0,1,78.86,261.19Zm2-5.95c-.2-.11-.39-.24-.43-.84s.07-.7.23-.72.31.55.38,1S81.06,255.23,80.89,255.24Zm2.81,4.18a2.29,2.29,0,0,0-.33.9c-.05.35-.27.23-.43.05a.58.58,0,0,1,0-.63.47.47,0,0,0-.08-.52c-.12-.11-.2,0-.23.24-.14,1.12-.31.65-.5-.1a1.68,1.68,0,0,1-.07-.24c-.08-.48-.49,0-.41-.66,0-.47.37-.46.59-.56,0,0,.07,0,.11-.08s.18,0,.26.23c.22.6.37.28.44-.13.13-.7.32-.63.55-.14A2,2,0,0,1,83.7,259.42Zm10.46-.81c-.19-.13-.33.09-.49.2s-.39,0-.54-.52c0-.19-.16-.43-.07-.6s.16,0,.22.08c.33.55.42.25.46-.35s.24-.5.44-.42.26.35.25.72C94.55,258.37,94.63,258.94,94.16,258.61Zm4.73.56c-.21,0-.43-.13-.53-.69s-.07-.93.17-1,.47.23.58.82S99.1,259.1,98.89,259.17ZM125.19,211c-.47,0-.71-.25-.71-.53s.27-.47.83-.43.91.22.85.53S125.79,211.08,125.19,211Zm2.76-5.68c-.12.2-.41.22-.76.1-.67,0-1.23-.11-.79-.59.18-.2,0-.44-.05-.67s.14-.48.65-.52c.19,0,.46-.08.6.07s0,.21-.14.26c-.63.25-.36.46.21.67S128.09,205.1,128,205.33Zm-.27-34.1a.36.36,0,0,1,.22-.55c.39-.16.65.11.94.21s.7.28.45.56-.2.27-.31.4-.08.65-.76.57-.51-.44-.64-.7C128.05,171.6,127.78,171.42,127.68,171.23Zm2.06-5.78a1.46,1.46,0,0,1,0,.22c0,.32-.39.53-.87.55s-.42-.33-.6-.52a.18.18,0,0,1-.07-.22c.19-.35.07-.94.93-.91S129.61,165.13,129.74,165.45Zm-.16-34.28c-.42-.22-1.67-.35-1.53-.62-.05-.09.2-.16.7-.2l.1.12c.35.49.51.58.52.31a1.56,1.56,0,0,1,.06-.44,2.68,2.68,0,0,1,.37.12c.62.18.64.41,1.11.6.21.08-.07.2-.44.24A1.6,1.6,0,0,1,129.58,131.17Zm-.73,45.3a.39.39,0,0,1-.2.18c-1.21.45-3.53-.19-3.88-1.06-.21-.51-.09-.58,1-.48a9.2,9.2,0,0,0,1.64.09C128.29,175.17,129.23,176,128.85,176.47Zm-2.31,1.15c.12-.18.44-.21.88-.16a1.69,1.69,0,0,1,1,.54c.21.24-.17.27-.46.35-.52.12-.28.26.06.44,1.56.82,1.76,2,.51,2.79a1.09,1.09,0,0,1-1,.09c-.39-.13-.94-.21-.85-.54s-.36-.75-.46-1.1A2.93,2.93,0,0,1,126.54,177.62Zm.08,6.38c.14-.14,0-.41.38-.41s.4.26.53.41a3.94,3.94,0,0,0,.67.69c.23.17.38.39.05.55a1.29,1.29,0,0,1-1-.11c-.6-.2-.83-.5-.79-.88A.8.8,0,0,1,126.62,184Zm3.14,7.69a1.58,1.58,0,0,1-1.64-.16,2.34,2.34,0,0,0-.82-.59c-.34-.13-.17-.38,0-.54s.42-.09.63.07a.37.37,0,0,0,.52,0c.14-.12,0-.25-.19-.33-1.07-.39-.57-.52.2-.62a1.87,1.87,0,0,1,.25,0c.48,0,.08-.63.73-.4.46.15.38.56.43.86a.94.94,0,0,0,.06.15c.05.15-.05.24-.27.3-.64.16-.36.41,0,.59C130.4,191.26,130.28,191.49,129.76,191.69Zm3.56-54.85a3.07,3.07,0,0,1-.72.06l-1.08-.17a1.62,1.62,0,0,1,.19-.17.19.19,0,0,0,.06-.22,3.09,3.09,0,0,1-.23-.77h.32a4,4,0,0,1,1.07.14c.23.07-.15.09-.43.12-.51.06-.26.1.09.14C134.21,136.17,134.5,136.53,133.32,136.84Zm0,1.18a4.27,4.27,0,0,1-1,0c-.61,0-.86-.13-.86-.25a.33.33,0,0,1,.14-.09c.13-.05-.07-.13.34-.14a.83.83,0,0,1,.56.11,5.83,5.83,0,0,0,.73.19C133.45,137.89,133.62,138,133.31,138Zm-.64-25.11c-.4-.24-.6-.43-.57-.54s.28-.07.77.19.79.5.71.6S133.2,113.21,132.67,112.91Zm.07,18.47c.93,0,.48.17.63.27s0,0,0,.06-.36.19-.83.21-.44-.1-.64-.15-.11-.05-.08-.07S131.88,131.4,132.74,131.38Zm-.87,2a3.64,3.64,0,0,1,.95,0c.38,0,.72.07.48.17a2.44,2.44,0,0,0-.28.14c-.18.07,0,.2-.72.2s-.53-.12-.68-.2c.45-.05.18-.1.06-.16S131.59,133.42,131.87,133.37Zm-.24,1.47c.94,0,1.93.19,1.58.36a.47.47,0,0,1-.19.06,11.09,11.09,0,0,1-1.52.09c0-.17-.07-.34-.11-.5Zm.8,22.85-.21,0a2.21,2.21,0,0,0-.37.09h-.14c-.53-.07-.92-.28-.94-.59h0l.06.05c.16.16.38.24,1.18.29a2.45,2.45,0,0,1,.52.06Zm.14,2.88c0-.15.16-.32.49-.24s.92.12,1,.34-.47.21-.77.24S132.5,160.85,132.57,160.57Zm.77,28.51c-.41,0-.58-.12-.56-.34s.3-.47.9-.41c.45,0,.68.21.67.43S133.76,189.06,133.34,189.08Zm2-49.07a4.83,4.83,0,0,1-1.65,0,4.26,4.26,0,0,0-.87-.16c-.34,0-.2-.11,0-.17a1.18,1.18,0,0,1,.62,0,1.13,1.13,0,0,0,.53,0c.12,0,0-.08-.22-.1-1.1-.08-.62-.14.14-.2l.25,0c.48,0,0-.2.69-.15.47,0,.42.16.51.25s0,0,.07.05,0,.08-.25.1c-.62.08-.32.15.09.19C136,139.85,135.88,139.92,135.38,140Zm-.45-10.86c-.53,0-.94-.07-1-.17s.42-.08.86-.08,1.06-.05,1,.09S135.47,129.15,134.93,129.15Zm.79-17.41a1.18,1.18,0,0,1-.69-.27c-.6-.3-1.11-.56-.67-.58.19,0,.06-.18,0-.29s.16-.15.63,0a1.83,1.83,0,0,1,.54.28s0,.07-.15,0c-.59-.15-.36,0,.14.37S135.87,111.7,135.72,111.74Zm.2-11a.58.58,0,0,1,.35-.9,1.9,1.9,0,0,1,.86.15,3.12,3.12,0,0,1,1,.47c.2.15-.18.07-.46,0-.51-.08-.28,0,0,.19,1.48.73,1.61,1.29.37,1.29a2.43,2.43,0,0,1-.93-.22c-.37-.16-.89-.34-.79-.45S136,100.93,135.92,100.76Zm2.64-.81a.56.56,0,0,1-.2,0,8.71,8.71,0,0,1-3.73-1.33c-.19-.25-.07-.25.94,0,.45.14,1,.28,1.58.41C138.07,99.27,139,99.84,138.56,100Zm-2.5,2.5c.14,0,0-.18.39-.06a.75.75,0,0,1,.48.32,5.74,5.74,0,0,0,.6.47c.21.14.34.27,0,.24a3.09,3.09,0,0,1-.94-.33c-.56-.26-.76-.44-.71-.58A.56.56,0,0,1,136.06,102.45Zm2.5,4.16A3.41,3.41,0,0,1,137,106a4,4,0,0,0-.73-.51c-.3-.16-.14-.21.08-.21a1,1,0,0,1,.58.23.76.76,0,0,0,.5.17c.13,0,0-.1-.16-.2-1-.51-.51-.4.22-.2l.24.07c.46.14.11-.25.72.05.42.21.32.36.35.51a.18.18,0,0,0,0,.08c0,.08-.07.09-.28,0-.62-.13-.37.06,0,.27C139.2,106.64,139.07,106.7,138.56,106.61Zm.6-8.66-.32.1c-.2.06-.09.26-.76.08s-.48-.28-.6-.41c.46,0,.21-.09.11-.18s0-.19.24-.18a2.63,2.63,0,0,1,.91.27C139.1,97.75,139.42,97.89,139.16,98Zm-4.37-4.71c0-.14.26-.17.88-.11a1.29,1.29,0,0,1,.86.29c.58.33.53.6.95.92.19.14-.11.23-.49.2a1.31,1.31,0,0,1-.84-.32C135.79,93.89,134.6,93.51,134.79,93.24Zm.75,2.54c-.33,0-.77-.06-1.22-.1l-1.67-.6c-.1,0-.13-.08,0-.08a2.19,2.19,0,0,1,.59.07,15.51,15.51,0,0,0,2.11.52C135.66,95.64,135.83,95.78,135.54,95.78Zm-1.29-4.36c.21-.14,1.06.06,1.42,0s.9.09.84.18h0a.77.77,0,0,0-.33.08c-.3,0-.73,0-1.12-.09S134.13,91.51,134.25,91.42Zm4.67,4.3c-.53-.08-.41-.21-.59-.31s-.1-.08-.06-.1c.2-.12.09-.37.94-.23s.43.3.55.46a.24.24,0,0,1,0,.09C139.78,95.77,139.39,95.79,138.92,95.72Zm-5.54-1.78c0,.1-.53,0-.94-.06a3.39,3.39,0,0,1-1.28-.41c0-.15.64,0,1,.1S133.44,93.77,133.38,93.94Zm-.18,5.22c-.25-.13-.47-.26-.68-.39s-.46-.34.19-.24c.28,0,.32,0,.25-.08s.26-.09.69,0,.47.23.35.28c-.41,0-.11.2.08.35s.23.24.06.27a.87.87,0,0,1-.71,0C133,99.26,133.41,99.27,133.2,99.16Zm-8.57,62.42c0-.35.27-.54.89-.6s.66.23.87.46c.6.62.56,1.31,1,2,.19.28-.1.62-.48.69a.79.79,0,0,1-.87-.48C125.67,162.91,124.45,162.37,124.63,161.58Zm.86,6.27a7.28,7.28,0,0,1-1.24.3l-1.7-.77c-.1,0-.14-.13,0-.2a.82.82,0,0,1,.6-.08,6,6,0,0,0,2.16.36C125.61,167.44,125.79,167.72,125.49,167.85Zm-1.65-26.43c-.4,0-1,0-.88-.13s-.41-.19-.54-.28c-.29-.22-.32-.45.08-.66a3,3,0,0,1,.87,0,4.85,4.85,0,0,1,1.06.15c.23.06-.15.07-.43.09-.51,0-.26.07.08.11,1.62.21,1.9.49.71.72A3.49,3.49,0,0,1,123.84,141.42Zm-.56-2.77c-.13-.06-.08-.12.2-.14a2.69,2.69,0,0,1,.72.06.8.8,0,0,0,.15.42,2.32,2.32,0,0,1-.47,0c-.61,0-.53-.14-.67-.21C123.67,138.77,123.39,138.71,123.28,138.65Zm1.44,1.41a.56.56,0,0,1-.19.05,12.35,12.35,0,0,1-3.93-.33c-.24-.15-.12-.17.93-.12l1.63.05C124.1,139.72,125.08,140,124.72,140.06Zm1.72-9.23c-.18,0,0,.19-.75,0-.52-.12-.41-.19-.48-.27s.11-.12.69,0C126.29,130.69,126.6,130.8,126.44,130.83Zm-1.29-5.78c-.1,0-.3-.06-.58-.35s-.34-.51-.3-.58.34.18.57.39S125.21,125,125.15,125.05Zm-5.24,10.69c0-.1.26-.13.88-.08a1.72,1.72,0,0,1,.87.21c.6.23.59.42,1,.64.2.09-.08.16-.45.15a1.81,1.81,0,0,1-.88-.21C121,136.22,119.75,136,119.91,135.74Zm1,1.87c-.32,0-.77,0-1.22,0L118,137.3c-.1,0-.14-.05,0-.06a2,2,0,0,1,.59,0c.7.1,1.35.2,2.16.24C121.06,137.5,121.24,137.59,121,137.61Zm-1.63-3.29a6.78,6.78,0,0,1,1.42.1c.47.06.9.12.83.17a3.9,3.9,0,0,1-1.45-.06C119.66,134.48,119.2,134.38,119.32,134.32Zm-.72,2c0,.09-.53,0-.94,0a3.64,3.64,0,0,1-1.31-.28c-.06-.13.63,0,1,0S118.64,136.19,118.6,136.33Zm.76,4.08c-.28,0-.52-.11-.76-.17s-.54-.17.11-.22c.28,0,.31-.05.22-.1s.24-.12.68-.09.5.08.4.14c-.39.08,0,.17.18.25s.29.12.13.18a1,1,0,0,1-.67.13C119.16,140.52,119.59,140.45,119.36,140.41ZM123.24,164c0,.29-.53.29-.94.23-.58-.08-1.28-.23-1.31-.57s.64-.14,1-.16S123.3,163.52,123.24,164Zm.14,13.83a7.15,7.15,0,0,1-.73-.58c-.33-.29-.49-.57.17-.75.29-.07.32-.17.24-.35s.26-.4.7-.33.49.28.38.48c-.41.29-.08.58.12.86s.26.44.08.65-.22.48-.7.45S123.6,178,123.38,177.83ZM34,124.91c.11,0,.24.22.28.62s-.08.62-.19.66-.19-.35-.22-.66C33.77,125.05,33.85,124.93,34,124.91ZM20,72c.12-.09.27-.18.87-.17.45,0,.7.08.7.16s-.56.12-1,.13S20,72.08,20,72ZM136.31,59.63c0,.12-.52.11-.93.09-.59,0-1.28-.1-1.33-.23s.63-.06,1-.06S136.35,59.44,136.31,59.63Zm.78,5.57c-.28-.08-.52-.16-.75-.25s-.53-.24.13-.29c.28,0,.31-.07.22-.14s.24-.16.68-.12.5.12.4.2c-.39.11-.05.24.17.36s.27.18.11.26a.84.84,0,0,1-.68.17C136.88,65.36,137.32,65.27,137.09,65.2ZM140.74,79c-.47-.06-.72-.16-.74-.28s.23-.17.79-.11.92.16.88.29S141.34,79,140.74,79Zm1.39,27.66c-.39-.11-.54-.23-.51-.33s.33-.11.89.1.63.3.6.4S142.53,106.73,142.13,106.61Zm1-29.84a1.23,1.23,0,0,1-.75,0c-.67-.06-1.23-.13-.82-.3.17-.08,0-.19-.08-.29s.1-.19.61-.17a1.62,1.62,0,0,1,.6.07c.06,0,0,.09-.13.1-.6.06-.32.17.26.3S143.25,76.68,143.13,76.77Zm1-5.63a3.56,3.56,0,0,1-1.64-.14,4.2,4.2,0,0,0-.85-.28c-.34-.07-.19-.17,0-.22a1,1,0,0,1,.62,0,.81.81,0,0,0,.53,0c.12,0,0-.1-.21-.14-1.09-.21-.6-.24.16-.25H143c.49,0,.05-.25.71-.13.46.08.4.25.47.38s.05,0,.07.06,0,.1-.26.11c-.63,0-.33.16.06.25C144.77,71,144.67,71.09,144.16,71.14Zm3.44-.93c-.41,0-.59-.08-.58-.17s.28-.19.88-.14c.45,0,.69.12.69.21S148,70.21,147.6,70.21Z"/><path class="cls-6" d="M132.92,55.63a1.29,1.29,0,0,0-.56.11,4.11,4.11,0,0,1-1.84.29,3.14,3.14,0,0,1,1.88.4,2.9,2.9,0,0,0,1.53,0c.28-.13.92-.27,0-.43a1.6,1.6,0,0,1-.79-.28C133.09,55.72,133.37,55.65,132.92,55.63Z"/><path class="cls-6" d="M137.27,76c-.39-.27-.47-.48.27-.62-.94-.09-1.32,0-1.46.11S136.56,75.79,137.27,76Z"/><path class="cls-6" d="M135.62,62.69c.33,0,.71,0,.53-.08s-.25-.33-.94-.39c-.45,0-.32.15-.44.23S135.18,62.64,135.62,62.69Z"/><path class="cls-6" d="M137.49,73.29c.22,0,.11-.09-.11-.13a9.31,9.31,0,0,0-1.23-.34,5.82,5.82,0,0,0,.62.4A1.82,1.82,0,0,0,137.49,73.29Z"/><path class="cls-6" d="M130.46,90a1.37,1.37,0,0,0-.55,0,4.75,4.75,0,0,1-1.87.06,3.37,3.37,0,0,1,1.82.53,3.37,3.37,0,0,0,1.52.21c.3-.07,1-.14,0-.38a1.81,1.81,0,0,1-.75-.31C130.64,90.07,130.92,90,130.46,90Z"/><path class="cls-6" d="M131,108.46c-.86-.41-1.23-.48-1.4-.42s.34.48,1,.88C130.24,108.54,130.23,108.32,131,108.46Z"/><path class="cls-6" d="M132.76,96.62c-.26-.18-.19-.36-.86-.54-.43-.11-.33.08-.47.12s.37.25.8.38S132.93,96.73,132.76,96.62Z"/><path class="cls-6" d="M131.57,106.6c.22.05.13,0-.06-.15a11.65,11.65,0,0,0-1.08-.7,5.6,5.6,0,0,0,.49.56A1.78,1.78,0,0,0,131.57,106.6Z"/><path class="cls-6" d="M120.27,153.92c-.33,0-.38.16-.56.26-.51.29-.7.8-1.87.69,1.21.12,1.58.54,1.82,1.06a1.3,1.3,0,0,0,1.53.16c.3-.31,1-.66,0-1.09-.34-.16-.69-.42-.75-.71C120.44,154.16,120.73,154,120.27,153.92Z"/><path class="cls-6" d="M121,203.29c-.22.49.43.78,1.14,1.06a1,1,0,0,1,.36-1.56C121.52,202.72,121.13,203,121,203.29Z"/><path class="cls-6" d="M122.74,171.44c-.28-.33-.21-.83-.9-.95-.44-.07-.33.39-.46.59s.38.46.83.56S122.92,171.64,122.74,171.44Z"/><path class="cls-6" d="M122.71,197.75c.24-.09.13-.23-.08-.31-.42-.14-.47-.46-1.21-.64a7.47,7.47,0,0,0,.58.88A.71.71,0,0,0,122.71,197.75Z"/><path class="cls-6" d="M36.66,61.36a1.36,1.36,0,0,1-.71.82c-.14,0-.37-.23-.38.22s.21.38.33.54c.36.48.94.63.92,1.8a1.88,1.88,0,0,1,1-1.92c.37-.19.41-1.26,0-1.53S37,60.4,36.66,61.36Z"/><path class="cls-6" d="M88.3,54.43c.07.94.38,1.29.78,1.4.55.15.77-.54,1-1.28A1.09,1.09,0,0,1,88.3,54.43Z"/><path class="cls-6" d="M53.46,59.21c0,.45.46.29.69.4s.45-.44.52-.89-.08-.7-.28-.51S53.51,58.51,53.46,59.21Z"/><path class="cls-6" d="M82.52,55.05c-.09.44-.43.53-.52,1.29a7.12,7.12,0,0,0,.87-.7.68.68,0,0,0,0-.71C82.7,54.71,82.57,54.84,82.52,55.05Z"/><path class="cls-6" d="M115.54,132.9a1.44,1.44,0,0,0-.56,0,5,5,0,0,1-1.85,0,3.69,3.69,0,0,1,1.81.58,3.81,3.81,0,0,0,1.51.24c.3-.06,1-.08,0-.34a1.78,1.78,0,0,1-.75-.32S116,133,115.54,132.9Z"/><path class="cls-6" d="M121,147.44c-.94.12-1.29.24-1.4.36s.53.14,1.26.11C120.4,147.81,120.28,147.68,121,147.44Z"/><path class="cls-6" d="M118.37,138.52a1.81,1.81,0,0,0-1-.32c-.44,0-.31.11-.43.16s.41.16.85.2S118.55,138.59,118.37,138.52Z"/><path class="cls-6" d="M120.44,146c-.42,0-.51-.07-1.26,0a4.8,4.8,0,0,0,.67.18,2.28,2.28,0,0,0,.71-.07C120.79,146,120.66,146,120.44,146Z"/></g><g class="cls-7"><path class="cls-8" d="M114.29,98.43A8.25,8.25,0,0,0,106,90.64c-1.82-6-10.55-6.91-12.1.28-3.54,16.37-5.13,32.19-4,49.07a168.78,168.78,0,0,0,2.49,20.12c-.11,1.48-.23,2.95-.34,4.43-1.61,22.74-2.86,45.55-3.57,68.35l.21-.18c.12,7.56,4.27,14.17,11.66,15.29,8.38,1.28,15.09-5.83,15.5-15.11,1-22.38,1.49-44.82,1.6-67.23,0-11.19-.06-22.43-.49-33.61S114.89,109.64,114.29,98.43Z"/></g><path d="M155.84,2.21c0-.66,2.23-.27,3.45-.33h.09l1.46,0a5.79,5.79,0,0,0-1.64-.49c-5.42.09-101.13-4-136.93,1.59-9,1.4-18.67,5.19-22,5.75-.45.07-.26,2.37.32,5.86.33,2.6.71,5.2,1.1,7.79.36,4.15.83,8.29,1.24,12.41.49,4.94,1,9.9,1.58,14.84a.56.56,0,0,0,0,.13l0,.15c.2,1.54.42,3.06.64,4.58-.06-.14-.11-.3-.18-.45s-.36,0-.33.14C5.07,57,5.81,59.8,6.48,62.61c.18,2,.43,4,.77,6.06.37,2.21.75,4.61,1.35,6.92C.58,84.48,1.13,98.26,7.34,108a11.58,11.58,0,0,0,4,6.33c.58,1,1.12,2.12,1.62,3.22,1.61,10.8,3.66,21.54,5.55,32.28l3,17A140.94,140.94,0,0,0,23,183.25q.72,5,1.82,10V194a.16.16,0,0,0,.2.17c0,.15.08.31.11.47.54,4.83,1.09,9.66,1.9,14.43,1.2,7.16,2.58,14.28,4,21.41A102.69,102.69,0,0,0,33,247.82c.17.81.35,1.61.53,2.42.28,4.38,6.65,29.52,6.58,29.22l1.34.59a32.34,32.34,0,0,0,9.8,3.06c1.67.38,3.39.71,5.12.94a.26.26,0,0,0,.18.35c10.58,2.44,22,3.08,32.72.87,1.47,0,2.94-.12,4.4-.21,2.41-.06,4.83-.21,7.23-.46,0,.15,0,.32.24.3a72.23,72.23,0,0,0,16.13-3.09c0,.23.21.45.42.28l1.12-.85c1.07-.41,2.12-.85,3.14-1.35a.05.05,0,0,0,0,0,8.21,8.21,0,0,0,3-1.76l.53-.08c-.08.38.44.68.79.46,0-.21.09-.42.14-.63.29-.06.58-.13.87-.22a.22.22,0,0,0,0-.41c-.23,0-.46-.1-.7-.13.12-.52.24-1,.35-1.55a.53.53,0,0,0,.33-.1c.33-.23.48-.76.69-1.17.69-1.36,1.53-9.2,2.22-16.91l.15-1.56a278.3,278.3,0,0,0,2.07-30.78c1.19-12,4.7-72.8,6.13-84.66,1-8.64-.56-17.6,4.77-25.76,4.81-7.35,10-25.8,9.66-27.5-1.3-6-2.35-12-3.6-18-.55-2.66-2.91-4.71-2.2-7.9.42-1.9,2.25-3.26,1.37-5.77-.83-2.35,1.4-4.4,1.74-6.72.13-.85-.6-1.83-.51-2.7.37-3.84.76-7.68,1.4-11.48,1.51-9.1,3.8-18.05,4.69-27.27.17-1.78.31-3.73,2.92-2.81.27.1.63-.12,1-.2a6.35,6.35,0,0,0-.86-.71C157.84,3.06,155.89,3.71,155.84,2.21Zm-23,1.66a2,2,0,0,0,.66-.18,4,4,0,0,1-.6-.13,3.35,3.35,0,0,1-.53-.28A1.91,1.91,0,0,1,133,3.1h3.62v.43c4.36,0,8.72,0,13.08,0,.34,0,.92-.2.91.48s-.45.71-.93.72c-4.68.15-9.33-.47-14-.62s-9.23.63-13.85,1c-1.08.08-2.16.15-3.24.25-.34,0-.67.12-1,.18a8.16,8.16,0,0,0,1.09.15l18.88-.33a4.1,4.1,0,0,1,.69.1,3,3,0,0,1-.71.27c-7.2.32-14.36.89-21.62.74C106.93,6.27,98,5.76,89,5.74a3.32,3.32,0,0,1-.68-.15A2.33,2.33,0,0,1,89,5.35c10.15-.56,20.3-1.19,30.46-1.61C123.92,3.56,128.41,3.83,132.89,3.87ZM12.43,6.77C19.24,4.82,26.31,4.84,33.24,3.7s14-1.92,21-2.58C59.94.59,65.66.49,71.35.21c.18,0,.36.16.54.25-.24.12-.46.33-.7.35-2.31.24-4.62.43-6.93.66a2.8,2.8,0,0,0-.74.28,2.14,2.14,0,0,0,.79.2C77.88-.4,91.49.82,105.09,1.51c2.29.11,4.57.4,6.85.62a1.69,1.69,0,0,1,.52.26,3.3,3.3,0,0,1-.52.13l-4.45.25V3c-4.63,0-9.26,0-13.89,0-.31,0-.62.26-.94.4l.88.33,1.23.38c-.44,0-.89.14-1.33.17-2.78.19-5.55.38-8.33.54a1.82,1.82,0,0,1-.64-.2,4.39,4.39,0,0,1,.6-.15c2.09-.2,4.18-.38,6.26-.59a1.93,1.93,0,0,0,.56-.24,1.64,1.64,0,0,0-.53-.2c-9-.31-18,1.24-27,1.37-4.32.07-8.61-.32-12.91-.2-.18,0-.36-.3-.53-.46a1.86,1.86,0,0,1,.53-.26c3.48-.5,7-1,10.45-1.51a3.1,3.1,0,0,0,.9-.5,3.35,3.35,0,0,0-.92-.13c-12.51,2.1-25.2,2.36-37.75,4-3.84.5-7.61,1.56-11.51,1.68a3.48,3.48,0,0,1-.86-.21A3.3,3.3,0,0,1,12.43,6.77ZM83,6.82a4,4,0,0,1-1.25.39C76.25,7.16,70.72,7,65.19,7c-2.66,0-5.32.11-8,.15A4.94,4.94,0,0,1,56.38,7a4.19,4.19,0,0,1,.76-.24,88.67,88.67,0,0,1,16.21-.31c2.85,0,5.69,0,8.54,0A4.21,4.21,0,0,1,83,6.82Zm-53.3.09c7.07-.61,14-2.48,21.19-2a11.77,11.77,0,0,1,1.53.29l-1.3.27L29.83,7.19a3.26,3.26,0,0,1-.69-.09A2.25,2.25,0,0,1,29.73,6.91Zm-1.34-1a5.09,5.09,0,0,1,.83-.22,3.64,3.64,0,0,1,.8.06L29.19,6ZM15.88,8.4l1.47.23-2,.46a2.3,2.3,0,0,1-.37,0l-3.67.13A8.92,8.92,0,0,1,15.88,8.4ZM3.53,10.32a1.67,1.67,0,0,1,1.61-.91c1.35-.06,2.7-.27,4.33-.46l.75.17a5.63,5.63,0,0,0-.49.81,3,3,0,0,0-.14.73,2.88,2.88,0,0,0,.8.12c9-1.59,18-1.71,27.06-2.41.26,0,.53.18.8.28a2.19,2.19,0,0,1-.64.27c-4.71.54-9.45.93-14.14,1.68a16.31,16.31,0,0,0-4.94,2.11,6.19,6.19,0,0,1-6.75-.16c-1.44-.88-2.89-.37-4.45.11a3.69,3.69,0,0,1-3.59-.46A1.46,1.46,0,0,1,3.53,10.32Zm-.2,18.56a.56.56,0,0,0,0-.12l-.27-2c.16.71.33,1.43.49,2.15A.37.37,0,0,0,3.33,28.88ZM3.6,31.1c1.38,5,2.77,10,3.77,15.08.11.55.2,1.11.3,1.67l.12,3.38L7.72,51a.38.38,0,0,0-.19-.22C6.74,47.4,5.94,44,5.18,40.66c0-.16-.18-.19-.31-.14C4.5,37.65,4.09,34.79,3.71,32,3.67,31.67,3.64,31.39,3.6,31.1ZM9.11,62.73c.17.93.32,1.87.47,2.81-.13-.39-.26-.78-.38-1.18S9.15,63.27,9.11,62.73ZM6.44,51.26c0-.3-.5-.31-.48,0,0,.52.09,1,.13,1.56L6,52.33c-.12-3.09-.41-6.19-.78-9.29C6,46.86,6.74,50.69,7.52,54.53a.31.31,0,0,0,0,.19c.17.75.33,1.5.49,2.25,0,1.08.05,2.16.07,3.24A82.31,82.31,0,0,1,6.44,51.26Zm-.66,4.5c0,.18.08.37.13.56l-.1-.24ZM3.62,93.38C3.49,87.68,5.29,82.63,8,77.86c-.24.68-.47,1.36-.68,2A24.9,24.9,0,0,0,4,93.55a21.55,21.55,0,0,0,2.33,9.53c.11.25.21.49.33.73,0,.59.12,1.19.22,1.78A27.77,27.77,0,0,1,3.62,93.38ZM7.67,80.22c-.11.18-.22.36-.32.54C7.45,80.57,7.56,80.39,7.67,80.22ZM19.27,150c-1.82-10.21-3.51-20.47-5.56-30.64.29.7.57,1.41.83,2.13q1.68,7.06,3.32,14.13c.72,5.92,1.63,11.8,2.81,17.64.22,2.68.41,5.38.62,8.07Zm-3.14-23.79c.28.91.56,1.81.83,2.72.09.29.17.58.26.86s.07.77.11,1.15ZM19,137.3l-.78-3c-.09-.71-.18-1.42-.26-2.13l.12.42c.41,1.56.79,3.13,1.17,4.71A.21.21,0,0,0,19,137.3Zm1,7.22c.08.86.15,1.71.23,2.57-.35-1.91-.66-3.82-1-5.73C19.44,142.41,19.69,143.47,19.93,144.52Zm1.53,9.17c-.1-.95-.2-1.89-.28-2.84-.06-.58-.11-1.17-.16-1.75.6,2.55,1.22,5.09,1.83,7.64.06,1,.1,2,.11,3,0,.18,0,.37,0,.56-.53-2.12-1-4.24-1.48-6.39A1.55,1.55,0,0,1,21.46,153.69ZM22.2,161c0-.2,0-.41,0-.62q.64,2.84,1.36,5.66c.19,1.17.4,2.34.64,3.52,0,.27,0,.54,0,.82q-.88-3.58-1.82-7.16C22.33,162.48,22.27,161.74,22.2,161Zm1.46,22.86c-.51-3.43-.82-6.85-1-10.27.17,1,.35,2.1.53,3.15a5,5,0,0,0,0,1.27c.36,3.33.72,6.66,1.13,10l0,.34C24.12,186.85,23.87,185.35,23.66,183.86Zm.24-8.07c-.29-1.61-.59-3.23-.88-4.84-.08-1.23-.15-2.46-.25-3.7q.87,3.54,1.66,7.1c0,.48.06,1,.08,1.45A.56.56,0,0,0,23.9,175.79Zm3.52,28.51c-.13-.67-.23-1.35-.31-2,.24.83.49,1.65.75,2.47C27.65,204.62,27.45,204.47,27.42,204.3Zm-.6-4.62q-.64-6.15-1.27-12.29c0-1.28.06-2.57.07-3.86.12,1.47.26,2.94.41,4.38A107.91,107.91,0,0,0,28.28,202c0,.09.08.11.14.09,0,.74,0,1.48,0,2.22a.79.79,0,0,1-.25.42C27.72,203.05,27.25,201.37,26.82,199.68Zm-.46-16.44q.6,2.92,1.19,5.83.66,6,.85,12c-.71-4.65-1.4-9.29-1.8-14C26.49,185.82,26.42,184.53,26.36,183.24Zm4.4,38.45a.2.2,0,0,0-.29-.13q-1.12-6.54-2.23-13.09a2.93,2.93,0,0,1,.11-.87c.09.11.24.22.27.35.89,5.25,1.77,10.5,2.58,15.34C31.05,222.76,30.91,222.22,30.76,221.69Zm1,12.62.24,1.27c.4,2.79.76,5.59,1.06,8.39C32.46,240.78,32,237.55,31.73,234.31Zm-.31-7.44c0-.05,0-.28,0-.52a4.79,4.79,0,0,1,.21.64l.24,1.24.75,5.81a1,1,0,0,1-.2-.38C32.12,231.46,31.79,229.26,31.42,226.87Zm3.67,26.2-.18-.69c-.25-1.86-.46-3.73-.65-5.61.11.53.22,1.06.32,1.6.17,1.26.35,2.53.52,3.79C35.1,252.46,35.09,252.76,35.09,253.07Zm2.51-7.64a3,3,0,0,1-.28-.83c0-.21.17-.44.27-.66.11.26.22.52.31.75C37.78,245,37.69,245.21,37.6,245.43Zm1.22,9.51-.47-.79c0-.13,0-.26-.07-.4l.25-.36c.17.4.36.8.5,1.22C39.05,254.68,38.9,254.83,38.82,254.94Zm1.12,23.67c-.07-.33-.15-.67-.23-1l.33.21.89.46.12.79ZM40,256.28a4.32,4.32,0,0,1,.19-.69c1.52,1.75,2.94,3.36,4.35,5a12.83,12.83,0,0,1,.88,1.26,13.11,13.11,0,0,1-1.65-.64C41.88,260.13,39.67,259.28,40,256.28Zm5.58,24.51c-1.36-.46-2.69-1-4-1.49,0,0,0,0,0-.07,0-.21,0-.42,0-.62,1.44.73,2.88,1.46,4.3,2.23Zm3.8-1.86c-2-.09-4,.25-5.18-1.75a.54.54,0,0,1,.68-.65c1.69.52,3.56.61,4.75,2.28Zm8.53-.81c-3.14.21-5.28-1.21-7.63-1.58-.11,0-.21-.19-.31-.29.15-.06.32-.18.46-.15,3.17.6,6.33,1.21,9.5,1.83.21,0,.42.12.63.18H57.93Zm32.45,6.1-1.82.14c-2.67,0-5.34-.14-8-.37-.36,0-.36.56,0,.6l1.38.11c-6.22.19-12.45.09-18.66-.26-.31,0-.3.47,0,.49,5.73.38,11.48.54,17.22.5A81,81,0,0,1,59,284.32a31.21,31.21,0,0,0,4.93,0,.29.29,0,0,0,.22-.14,21.41,21.41,0,0,0,3.51-.36,86.46,86.46,0,0,0,16.65-.49.14.14,0,0,0,.12-.09,63.53,63.53,0,0,1,9.35.37C92.61,283.83,91.49,284,90.38,284.22Zm-18.44-4.8a1.39,1.39,0,0,1,.47-.21c1.76-.11,3.52-.2,5.28-.29,0-.11,0-.22,0-.32h9.08a5.46,5.46,0,0,1,.69.1c-.18.2-.32.52-.53.58a33.72,33.72,0,0,1-14.69.43C72.13,279.69,72,279.52,71.94,279.42Zm18.39,3.23a7.71,7.71,0,0,1,.87-.93c.12-.09.41,0,1,.15-.7.44-1.07.7-1.47.91C90.64,282.83,90.47,282.7,90.33,282.65Zm3.9,1.25a.32.32,0,0,0-.06-.23l1,.15ZM96,278.52a12.21,12.21,0,0,1-2.09.38c-.63.09-1.26.11-1.9.16a1.64,1.64,0,0,1,0-.55c.47-.95,1.34-.34,1.6-.43l2.34-.25c.56-.05,1.13-.07,1.69-.1A11.14,11.14,0,0,1,96,278.52Zm11.92-4.22c-1.33.31-6.42,1-7.33,1.07-8,.81-24.78,2.07-25.11,2,.35-.16-10.66,1.14-19.16-1.19a42.5,42.5,0,0,0-13.48-1.71c-1.3.06-1.14-1.34-1.33-2.12-.13-.52-.25-1-.35-1.57a.25.25,0,0,0,0-.28l-.21-.55c-.22-1.2-.41-2.41-.61-3.62-.09-.53.07-1,.75-.89,10.12.91,20.24,2.57,30.34,2.49a126.05,126.05,0,0,0,26-2.6,34.2,34.2,0,0,1,6-1,.71.71,0,0,1,.52.26l1.12-.25c0-.8.9-.53,1.45-.64,2.06-.4,4.11-.82,6.17-1.21a2.56,2.56,0,0,1,.67.05l0,0c1.23-.19,9.15-4.8,11.89-7l.36-.25a1.68,1.68,0,0,1,.14.52c-.07,2.87.17,5.79-.33,8.57-.44,2.39-3.05,2.85-4.82,3.85l-.24.13a3.29,3.29,0,0,1-1.86,1c-3,1.57-6,3-9,4.51A8.92,8.92,0,0,1,107.93,274.3ZM45.71,259.62a2,2,0,0,1,.26.08c1.88.87,3.43,2.53,5.65,2.59.05,0,.14.26.13.26-.34.23-.68.44-.76.49-2.5-.1-3.91-1.5-5.2-3.09C45.73,259.87,45.74,259.73,45.71,259.62Zm77.26,17c.27,0,.54-.1.81-.16l-.25.18Zm0,.43-.5.39a19.31,19.31,0,0,0-2.74.86c.77-.41,1.53-.84,2.27-1.32ZM115.55,275c-.89.3-1.51.52-2.14.7-.11,0-.27-.15-.41-.23.57-.2,1.13-.41,1.7-.58A2.83,2.83,0,0,1,115.55,275Zm-.18,5.95-3.14.68c1.19-.47,2.37-.94,3.55-1.44l-.43.24A.29.29,0,0,0,115.37,280.9Zm3.71-.71-2.11.71a.26.26,0,0,0-.31-.28l-.77.17a25.84,25.84,0,0,1,4.69-1.85Zm3.22-.51c.11-.18,0-.48-.28-.41l-1,.29c.47-.35.93-.71,1.39-1.08q.75-.12,1.5-.21A7.8,7.8,0,0,1,122.3,279.68Zm3.38-2.62h-.05a.32.32,0,0,0-.29-.39l-.71,0c.24-.22.5-.43.73-.66a.26.26,0,0,0-.19-.44h0a9.1,9.1,0,0,0-1.35.18l.32-.23c.53-.41,1.28-1,2-.41C125.94,275.74,125.81,276.4,125.68,277.06Zm6.61-61.19a.16.16,0,0,0-.1.13c-.45,4.16-.75,8.34-1,12.53q-.48,4.2-1.08,8.37c0,.21-.24.38-.36.57-.13-.29-.38-.59-.36-.87q.75-7.86,1.54-15.7.65-6.36,1.31-12.71c.08-.74.24-1.48.36-2.22,0,.8.08,1.61.1,1.95C132.59,210.61,132.46,213.25,132.29,215.87Zm1-26.48a4.34,4.34,0,0,1-.14-.7c0-.36,0-.71.06-1.17.27-.45-.54-1.37.54-1.64C133.61,187.05,133.45,188.22,133.3,189.39Zm.42-5.29c-.59-1.35.16-2.65.13-4a12.17,12.17,0,0,1,.13-1.59c.06.46.11.93.17,1.39C134,181.33,133.86,182.71,133.72,184.1Zm9.59-71.36c-.38.7-.79,1.38-1.27,2.22-.06-.26-.11-.35-.09-.39l1.23-2.22C143.23,112.48,143.35,112.66,143.31,112.74Zm5.13-36.36-2,.46a35,35,0,0,0-4.14-10.27.37.37,0,0,0-.63.37,34.19,34.19,0,0,1,3.87,10.12l-4.27,1a24,24,0,0,0-1.6-4.83c-.1-.23-.46-.07-.4.17.44,1.66.78,3.29,1,4.89-3.07.74-6.16,1.43-9.33,1.89-.5.08-.29.84.22.77,3-.44,6.16-.92,9.26-1.57a40.45,40.45,0,0,1,.34,7.12c-5.74,1.69-11.56,3.07-17.43,4.33-.24,0-.19.47.06.44a102.88,102.88,0,0,0,17.31-3.89,39,39,0,0,1-.88,6.07.23.23,0,0,0,.44.12,27.91,27.91,0,0,0,1.45-6.5c1.48-.47,3-1,4.43-1.49A41.51,41.51,0,0,1,144.93,93a52,52,0,0,1-13.2,2.21.32.32,0,0,0,0,.64,45.8,45.8,0,0,0,13-1.89c-.19.71-.38,1.41-.59,2.12-.11.37.46.63.63.27a25.22,25.22,0,0,0,1.13-2.75A33.41,33.41,0,0,0,150,91.87c.23-.12.07-.52-.18-.43-1.22.43-2.43.82-3.64,1.2a28.23,28.23,0,0,0,1.15-7.44l1.09-.39c.42-.15.24-.82-.18-.67l-.91.31a33.66,33.66,0,0,0-.67-6.63c.67-.21,1.34-.44,2-.68a49.71,49.71,0,0,1,1.9,8.1c.62,10-3.47,14.68-4.5,16.36a41.21,41.21,0,0,1-4.14,9.47,17.91,17.91,0,0,1-3.21,5.16q-.25,2.63-.56,5.6l.38-.61a2,2,0,0,1,.22.74,4.08,4.08,0,0,1-.36.88c-.09-.18-.17-.37-.28-.6-2.37,24-5.92,63.39-8.37,90.15-1.7,18.54-2.65,32.28-2.88,33-.86,2.8-2.71,4.54-4.8,6.34l-.08.07a11.71,11.71,0,0,1-2.67,2.49c-1.17,1-4.8,4.29-5.59,5-2.24,1.91-39.28,6.06-41.76,4.89.14-.08-14.18-.08-18.79-2.4-2-1-9.88-6.19-12.13-6.86-.44-.13-3-12.86-3-12.82-.18.62-.5,1.12-1.11.6s-.14-1,.27-1.39c1.54-1.32-.29-4-.41-3.71s-.84.35-.83.07c.13-2.83-8.82-67.29-13.51-97.58-.53-2.23-1.06-4.45-1.56-6.68-1.19-5.25-1.65-11.42-4.34-16.17-2.21-3.9-5.67-6.75-7.9-10.6a19.19,19.19,0,0,0,2,2.11.3.3,0,0,0,.42-.42c-3.42-4.36-5.93-9-6.27-14.63a23.6,23.6,0,0,1,0-2.38,1.92,1.92,0,0,1,.56-.54c0-.8.1-1.59.21-2.39a29.67,29.67,0,0,1,.3-3,24.6,24.6,0,0,1,3.46-6.86,2.91,2.91,0,0,1,.35-.18c.1-.74.16-1.47.23-2a.4.4,0,0,0,.12-.36c0-.07,0-.15,0-.22.53-2.7,1.11-5,.57-7.82-.59-3.12-1.57-6-2-9.08-.15-.57-.28-1.13-.38-1.69-.29-1.75-.36-3.85,1-5.17l-.12-.68c0,.22.09.44.13.66L9.33,52a2.93,2.93,0,0,1,3.34-.51,2.11,2.11,0,0,1,.47.13,9.57,9.57,0,0,0,7.13-.44,14,14,0,0,1,12.3.56c3.93,2.14,8.07,1.69,11.9.58,5-1.43,9.86-.36,14.71-.88,7.05-.74,14.15-1.08,20.75,1.21S92.67,54,99,52.92c3.46-.57,6.74-2.34,10.17-3.25a15.65,15.65,0,0,1,4.88,0c2.37.15,4.74.58,7.11.58a36.19,36.19,0,0,1,7,.85l.24-.09c1.12-.48,2.18-1.07,3.26-1.61l-1-.18c1.51-.65,3.07-1.22,4.53-2a16.11,16.11,0,0,1,5.32-1.51c1.5-.22.69,1.76,1.67,1.95,6,1.16,2.82,5.23,2.37,8.4-.25,1.79-1.08,3.63-.82,5.31.13.89,1.28,1.65.76,2.93C145.14,66.08,147,71.42,148.44,76.38Zm-2.26,5.21a27,27,0,0,1,0,3.24c-1.45.49-2.92,1-4.39,1.41a29.09,29.09,0,0,0-.34-7c1.44-.32,2.86-.68,4.26-1.09A31.22,31.22,0,0,1,146.18,81.59ZM15,49.68c.13-.79.83-.55,1.33-.64q2.64-.48,5.31-.88a2,2,0,0,1,.66.12,2.79,2.79,0,0,1-.55.27c-1.79.48-3.42,1.6-6.13,1.35C15.85,50,15,49.75,15,49.68Zm55.76-.56c.14-.1.28-.27.44-.29.77-.09,1.54-.14,1.59-.14,4.78-.08,8.45,1.51,12.13,3a1.43,1.43,0,0,1,.3.2,1.3,1.3,0,0,1-.44,0,91.27,91.27,0,0,0-13.61-2.5C71,49.38,70.86,49.21,70.73,49.12Zm25.4,2c.1-.18.16-.46.3-.52,2.68-1.16,5.29-2.62,8.34-2.13a3.28,3.28,0,0,1,.57.21c-.06.09-.11.26-.19.28l-8.62,2.39Zm49-4.2a2.39,2.39,0,0,1,.7-.2c.17,0,.33.18.49.28l-.51.35Zm5.65-39.61a148.37,148.37,0,0,0-2.11,24.75c0,4-.86,8.06-1.38,12.08-.17,1.31-1.21,1.27-1.92.87-4.67-2.65-9-.85-13.2,1.18-.3.14-.59.26-.89.38a4.11,4.11,0,0,1-3.42,1.59,107.78,107.78,0,0,1-13.69-1.06,49.28,49.28,0,0,1-7.85-.44,14.74,14.74,0,0,0-11.16,2.7c-2.6,1.95-5,1.89-7.85.85-5.71-2.07-11.4-4.7-17.71-3.09-8.49,2.16-17.44,0-25.81,2.73C38.24,51.7,33.9,48.68,29.23,47c-4.11-1.5-8-.28-12,.18-1.45.17-2.86.82-4.31,1-1.22.16-1.14-1.24-1.35-1.93a32.07,32.07,0,0,1-1.25-12.17c.15-1.73-1.8-.22-1.94-1.76C8,28.66,7.34,25.05,6.82,21.42a21.75,21.75,0,0,1-.46-4.3c.17-2.94,2-4.17,4.31-2.77,3.47,2.1,6.42.89,9.42-.74,1.8-1,3.47-1.5,5.45-.61,2.75,1.24,5.53-.17,8.3-.13.09,0,.19-.12.29-.18a2.45,2.45,0,0,0-.49-.52A6.38,6.38,0,0,0,29,11.45c-.2.05-.45-.11-.67-.18.16-.1.31-.26.47-.29,3.12-.49,6.23-1,9.35-1.43a4,4,0,0,1,.91,0,7.36,7.36,0,0,0-.36.75,3.45,3.45,0,0,0-.08.72,5.11,5.11,0,0,0,1.49-.23A12.47,12.47,0,0,1,47.44,10a11.11,11.11,0,0,1,2.24.8,1.91,1.91,0,0,0-.08-.64C49,9,47.88,8.94,46.82,8.75c-.31-.06-.62-.17-.93-.25.29-.05.59-.14.88-.16a132.72,132.72,0,0,1,21.29.26c1.27.12,3.71-.18,4.45,2.18a1,1,0,0,0,.77,0c.71-.5.18-1-.1-1.49a11.59,11.59,0,0,0-.87-1.12,9.94,9.94,0,0,1,1.76-.34c6-.12,12-.17,18-.29,8.64-.18,17.27.16,25.89.66a5.72,5.72,0,0,1,1.13.3,5.86,5.86,0,0,1-1.14.26c-3.28.1-6.57.17-9.85.25l-.37,0a2.71,2.71,0,0,0,.38.06h8.54c4.28.2,8.66-.41,12.38,2.66A7.74,7.74,0,0,1,130,13c-.61.46-1-.19-1.36-.41-5.11-2.7-10.29-3.08-15.57-.62a1.24,1.24,0,0,0-.74,1.56,2,2,0,0,0,2.17,1.69c.91.06.57-.77.73-1.2.41-1.17,1.5-1.19,2.32-1.58,3.77-1.79,10.13.53,12,4.32a4.91,4.91,0,0,1,.3,1c.15.53.36,1.08,1,.94s.26-.79.18-1.11a4.8,4.8,0,0,1,0-3.46c1-2.36-1.44-3-2.71-4.17l-.45-.42c.1-.06.2-.16.31-.16,3.42,0,6.84,0,10.26,0a2.43,2.43,0,0,1,.82.31,8,8,0,0,1-.55.61c-2.24,2.12-2.64,10-.55,11.3a4.12,4.12,0,0,0,3.16.15c.11,0,.19-.2.28-.31-.26-.15-.51-.42-.77-.43-1.22-.06-3.15.38-3.1-1.32.07-2.12.44-4.6,2.89-5.62.31-.13,1,.23.87-.47,0-.28-.68-.44-1-.64s-1.39.71-1.46-.48,1-1.46,1.69-1.62c2.1-.45,3.9-.1,4.48,2.56.06.29.4.53.65.75,0,0,.36-.14.35-.19a7.52,7.52,0,0,0-.33-1.58c-.2-.5-1-1,.27-1.15.4,0,.34-.44,0-.62a15.89,15.89,0,0,0-2-1.14c-.74-.31-1.7.1-2.28-.76A19.31,19.31,0,0,0,143.76,8c.18-.07.24-.46.35-.7-.3-.11-.65-.38-.89-.3-4,1.46-8.25-.25-12.32.88-1.34.36-2.89-.1-4.34-.2-.17,0-.34-.17-.51-.26a1.64,1.64,0,0,1,.54-.25c5.93-.45,11.85-1,17.79-1.21,1.67,0,3.27.38,5-.36C150.74,5,150.94,6.32,150.77,7.33Zm-1.66-4.94c.19-.1.4-.33.55-.29,1.56.38,3.25-.58,4.75.45-.76.9-1.68-.1-2.39.3C151,2.59,150,3.18,149.11,2.39ZM154,10.31c-.05.31-.54.54-.83.81-.4-.94-.82-1.87-1.16-2.83a4,4,0,0,1,0-1.23c-.6-.88,1.25-2-.09-3.07.13-.1.32-.31.36-.28.74.49,2.26-.48,2.32.87A30.94,30.94,0,0,1,154,10.31Z"/><path d="M69.4,188.52a.3.3,0,0,0,.29-.49c-2.24-2.74-7.36,1.36-9.25,2.74-.33.23,0,.78.32.55C63.27,189.65,66.35,187.82,69.4,188.52Z"/><path d="M70.37,193.11c-2.52-.72-5.64.36-7.84,1.55-.52.28-.06,1.06.45.79a13.12,13.12,0,0,1,3.54-1.31c1.26-.26,2.49-.15,3.75-.31C70.65,193.78,70.79,193.23,70.37,193.11Z"/></g></g></svg>