<svg xmlns="http://www.w3.org/2000/svg" viewBox="0 0 125.55 299.04"><defs><style>.cls-1{opacity:0.5;}.cls-2{fill:#de9300;}.cls-3{fill:#fff;}.cls-4{opacity:0.9;}</style></defs><g id="圖層_2" data-name="圖層 2"><g id="Layer_1" data-name="Layer 1"><g class="cls-1"><path class="cls-2" d="M43.32,89.18a3.18,3.18,0,0,0,.57,2.39c.13.23.35.56.56.32s0-.49,0-.75a44.3,44.3,0,0,0-1.37-7.61c0-.35,0-1.06-.39-.79s-1.09.63-.57,1.88C42.71,86.05,43.59,87.56,43.32,89.18Z"/><path class="cls-2" d="M42.2,247.2c-.5.19-.64.67-.61,1.26,0,.19.16.4.27.27.33-.38.61-.82.9-1.2C42.63,247.15,42.42,247.13,42.2,247.2Z"/><path class="cls-2" d="M98.41,271.16a3.9,3.9,0,0,0-1.31-2.51c-.85-1.19-1.28-2.49-.91-3.19.28-.51.69-.76.8-1.55,0-.25.43,0,.15-.68S96.67,262,96.3,262c-.14,0-.37-.39-.25-.51s.17-.55.22-.89c0-.17.35.08.17-.35s-.43-.58-.58-.48c-.34.23-.94-.56-1.37-.57-.23,0-.61-1.26-1-1.34a.5.5,0,0,1-.06-.42c.55-.65,1-1.57,2.25-.38.32.3.74.51.67,0-.19-1.69-.58-2.33-1.59-3-.4-.25-.72-.37-1-.21s-.54-.26-.79-1c-.14-.47-.29-.93-.44-1.4-.1-.31-.2-.65-.1-.77s.29.08.46.34.41.65.5.43c.22-.53-.42-3-.94-4.13s-.92-.76-1.42-1.47c-.63-.88-1-1.14-1.15-.59-.15.7-.86.68-.06,2.68a2.23,2.23,0,0,1,0,2c-.18.29-.46,0-.73-.81l-.15-.06c-.59-.31-.73,0-.17,1.48-.36-.85-.58-.91-.88-1-.46-.18-.44.57-.73.71-.62.27-.62,1.43-.21,3.15.06.21.08.46,0,.25-.46-.8-.44-.13-.64-.18-.4-.11-.4.5-.48.85-.16.67-.7.06-1,.08-.83,0-1.25,1.14-2.22.79-.46-.18-.66.57-1.23.08,0,1.52-.94.63-1.44.8-.34.12-.69.21-1.23-.58-.41-.61-.59-.67-.42.41s-.4.76-.64,1-.56-.47-.83-1.39-.67-1.08-.75-.82a1,1,0,0,1-.85.75,4.09,4.09,0,0,0-1.44.43A10.3,10.3,0,0,1,72.07,257c-.3.14-.48.14,0,1.28a1.6,1.6,0,0,1,.15.78c0,.1-.08.14-.13.1a1.07,1.07,0,0,1-.24-.69,1.72,1.72,0,0,0-.13-.67,13.17,13.17,0,0,1-.73-2.07c.53.07,1.28.69,1.48,0s.5-1.19-.58-1.84c-.4-.24-.48-.75,0-.6a3.25,3.25,0,0,0,1.07.14h0a2.4,2.4,0,0,0,.55.95,2.57,2.57,0,0,0-.27-1l.67-.1c.32-.05.95.53,1,.06s-.41-.87-1-1a3.11,3.11,0,0,1-1.56-1.08A9.4,9.4,0,0,0,71.15,250c-.59-.43.27-1.43-.59-2.17-.12-.1.2-.3.46-.21,1.12.44,2.3.63,3.36,1.06a5.78,5.78,0,0,1,1.56.72,6.82,6.82,0,0,1,1.46,1.19c.46.55,1.41,1,1.95.53,1.63-1.5,1.18-2.31-.6-3.53a4.85,4.85,0,0,0-2.1-1c-.83-.23-1-.8-.62-1.5.2-.45.44-.89.65-1.33s.3-.62.64-.59.48.31.57.65.18.83.61.76,1.07-.84,1.42-1.64a5.87,5.87,0,0,0,.54-2.39c-.06-1.38-1-1.23-1.21-2.13-.28-1.22-.61-1.66-1.21-1.39-.78.38-1.78-.44-2.56,1.59-.35,1-1.45,1-2.32.79-.63-.21-.79-.73-.25-1.41a2,2,0,0,1-.18-.24c-.55-1.05-1.13-1.23-2,0a1.52,1.52,0,0,0-.1-1.78c-.46-.84-1.29-.84-1.88-1.43a3.64,3.64,0,0,0-4.19-1.05c-.2.06-.47,0-.37-.2.43-.91-.37-1.09-.55-1.57-.29-1-1.06-1.26-1.55-1.66a2.38,2.38,0,0,1-.79-1.41c-.11-.52-.09-1.06-.24-1.53s-.41-1.15-.63-1.71-.49-1.1-.7-1.72a9.92,9.92,0,0,1-.8-3.79,8.51,8.51,0,0,0-.34-1.94,4.3,4.3,0,0,1-.06-2c-1.44-1.58-.67-3.71-.73-5.61a4.92,4.92,0,0,1,.76-3.54c.64-.75.74-1.31-.19-2s-.45-2.29-.5-3.44A1.29,1.29,0,0,1,59.34,200c.88.11,1.19-1.13,1-1.75a10.66,10.66,0,0,1,.06-4.06c.3-2,.75-4.07,1-6.07.26-2.52.5-5.16,1-7.76.25-1.41.46-2.15-.8-1.43-.28.16-.54.09-.65-.31A1,1,0,0,1,61,178c.19-.38.45-.47.69-.2s.27.42.56.25c1-.58,1.95-1.12,2.93-.46.31.2.67-.21.88-.66a.54.54,0,0,0-.15-.68c-.93-.43-.91-2.08-1.63-2.79a1.39,1.39,0,0,1-.17-1.37c.64-1.58-.1-3.4,1-5.07.43-.65.47-1.84,1.33-1.77.06,0,.19-.34.25-.54,0,0-.12-.25-.19-.24-.31,0-.82.89-.84-.17a1.65,1.65,0,0,1,.94-1.5,1.47,1.47,0,0,0,.55-1.95c-1-2-.35-4.22.09-6.52a5.11,5.11,0,0,1,1.07-2.83c1-.91,2.51-9.45,1.86-10.91a.5.5,0,0,0-.08-.12c-.49-.69-.19-2.49-.52-2.55-.61-.11-.47,1.65-1.09,2.15-.38.32-.77.85-1.13.47s-.08-1.07,0-1.65c.18-1.08.23-2.23.49-3.23s-.16-2.42.59-2.5c.54-.06.64,1.43.72,2.43a2.38,2.38,0,0,0,.21.56c.08-.11.24-.22.24-.32,0-1.66,1.27-3,.64-4.88a3.1,3.1,0,0,1,.54-2.83,5.5,5.5,0,0,0,1.3-4.29c0-1.23,0-2.42,0-3.62s.18-2.38.22-3.58c.07-1.35,0-2.74,0-4.11s-.16-2.74-.16-4.05-.14-2.65-.22-4-.17-2.7-.18-4.07c0-4.69-.93-9.45-1.62-14.16-.2-1.3-.41-2.67-.7-4a15.23,15.23,0,0,0-1.22-3.46C67.32,77,66.48,76.17,67,74c.16-.71-.13-1.88.4-2.27s1.14.08,1.62.92c.24.41.65,1,.75.44a6.47,6.47,0,0,0-1-4.09c-.46-.8-1-.32-1.17.54s-.65,1-1.16.88-.65-1-.84-1.6c-.39-1.31-.82-2.68-1.33-4-.94-2.47-1.79-5.13-3-7.76a24.19,24.19,0,0,0-4.72-7.34c-.25-.27-.47-.77-.73-1.13-.52-.74-1.26-2.72-1.67-1-.08.33-.64-.08-1-.54-.79-1-1.71-2-2.47-3a20.45,20.45,0,0,1-1.54-2.76c-.34-.68,0-1,.43-1.14s1.27.52,1.78,1.1a6.08,6.08,0,0,0,3.15,2c.14.06.33-.19.26-.3a7.42,7.42,0,0,0-2.43-2.34,23.71,23.71,0,0,0-2.73-1.79c-1-.52-1.82-1-3-1.47A58.07,58.07,0,0,0,40,34.92c-.69-.19-1.37-.17-1.2.19.92,2.12-1.75,1.16-3.38,1.16a32.18,32.18,0,0,0-8.61,1.15c-1,.23-1.54.29-1.76-.18-.14-.3.1-.78.78-.86a10,10,0,0,0,2.86-1,8.29,8.29,0,0,1,2.63-1c.64-.09,1.18-.39.95-.8s-.89-.23-1.47-.19a19.7,19.7,0,0,0-7.19,1.75,14,14,0,0,0-3.23,2.05A11.34,11.34,0,0,0,18,40a2.69,2.69,0,0,1-.66.74c-1,.74-1.27,1.14-1.18,1.33s.48.16.81.24c.84.2,1.37.48.61,2.1-.64,1.45.07,1.9,1,1.76A6.19,6.19,0,0,1,20.39,46c.5.07.78.41.63,1.34-.05.33.54-.07.83-.14,1.45-.31,2.2.15,2.18,1.6,0,.81-1.14,1.91-.44,2.3s1,1.55,1.57,2.22a4,4,0,0,1,.54.76l0,.13c-.31,1.29-.82,2-2,1.7-.7-.15-1.1-1.57-1.69-1s-1.59.54-2.35,1c-.6.33-1.27.78-1.87-.41-.17-.35-.55-.32-.81-.05-1.77,1.79-4.43.88-6-.72-.66-.7-1.27-1.22-2-.59a2.63,2.63,0,0,0-.48,2.64,72.36,72.36,0,0,1,1.66,9.12c.07.54.12,1,.69.74s.69.55.92,1-.05.77-.34,1a1.15,1.15,0,0,0-.61,1.35c.16.77.6.78,1.07.85s1.06.24.7.93c-.68,1.31.7,2.81-.08,4,1.07,1.34.26,2.66.16,4-.05.71-.11,1.31.72,1.18.65-.1.86.6.77,1.31a12.92,12.92,0,0,0,.23,3.67c.09.57.3.91.75,1,1.35.2,1.24,2.07,1.89,3.08.18.26-.09.83-.51.91-.59.12-.59.35-.08.86a4.93,4.93,0,0,1,1,2.38c.4,1.56-.39,3.14.46,4.59a2.84,2.84,0,0,1,.36,1.12c.07.94.08,1.86,1.08,1.74a2.35,2.35,0,0,0-.42,2.23,29.63,29.63,0,0,1,.76,4.12,5.49,5.49,0,0,0,.62,2.11,4.63,4.63,0,0,1,.48,3.8,6,6,0,0,0,.09,2.92,11.31,11.31,0,0,1,.69,3.35,46.08,46.08,0,0,0,.39,6.33,40.48,40.48,0,0,1,.38,6.32c-.06,1.83.69,3.52.47,5.34a16,16,0,0,0-.19,2.49c.06,2.74.64,5.47.37,8.23,0,.27,0,.75.12.85.95.74.63,2,.37,2.72-.58,1.54-.16,2.92,0,4.37,0,.29.2.64.13.85a5.3,5.3,0,0,0,.5,4.17,1.68,1.68,0,0,1,0,2c-.27.33-.48,1.2-.15,1.49.82.73.28,1.38.09,2-.7,2.54.15,5.35,1.81,6.17a.74.74,0,0,0,.9-.13.61.61,0,0,1,1.05.36c.38,1.78,1.5,3.23,1.34,5.23-.07.81.55,1.85-.17,2.38s-1.18-.63-1.82-.82c-.22-.06-.36-.6-.54-.92a1.4,1.4,0,0,0-1.45-.87c-.29.05-.58.36-.24.67.93.84.89,2.69,2,3.37.48.31.44.87-.09,1-.83.16-1.15,1-1.2,1.84-.06,1.28-1.09,2.91.61,3.79.55.28.32,2-.28,2.21-.31.11-.29.28-.33.6a35.28,35.28,0,0,1-.37,4.81,2,2,0,0,0,1,2.45,1.09,1.09,0,0,1,.78,1.1c-.34,2.11-.23,4.41-1,6.31-.43,1-.26,1.42.28,1.89s.66,1.27,1.47.92c.39-.17.56.68.2,1.07a1.5,1.5,0,0,0-.33,1.57c.27,1,.08,1.59-.83,1.59s-1.58.37-1.33,1.89a12.84,12.84,0,0,1-.49,5.94c-.81,2.64.33,5.39-.63,7.94,0,0,.07.22.12.23.61.15,1.21,1,1.85.08.76-1.09,1-.47,1.23.58.56,2.12-.34,4.54.41,6.88.31.95-.57,1.11-1,1.36s-.74-.28-.72-1,.05-1.43-.52-1.35-1.53-.29-1.86.74a12.83,12.83,0,0,0-.24,5.64c.12.76,0,2.74,1.18,2.83.28,0,.51,1.63.51,2.54s-.48.86-.85.7c-.57-.23-.7.36-.54,1.16.36,1.68-.19,3.85,1.05,5.27.05.06.15,0,.2-.06.3-.38.55-1.16,1-.06a2.47,2.47,0,0,1-.09,2.22,1.34,1.34,0,0,0,.22,1.2.78.78,0,0,0,.58.35c.3,0,.3-1.48.88-.09a2.16,2.16,0,0,1,.18.71,1.63,1.63,0,0,0-1.41.43,1.41,1.41,0,0,0-.44,1.74,16.28,16.28,0,0,1,1,2.44c.3.82.62,1.66.93,2.49.11.29.2.56.68.09s.64,0,.89.12,0,.47-.18.75-.6.77-.35,1.13.62.11,1-.12.91-.48.71.12c-.39,1.18.94,1.19.52,2.34,1.09,0,.69,1.28.89,2.09.1.43.19.81.78.14s.78-.32.87.11a3.63,3.63,0,0,0,1,1.73c.2.22.43.23.76-.1,1-.95,1.36,0,2-.11.17,0,.13.46-.11.85-.37.56-.3.67.16.47s.85,0,1.25.24c.66.31.61,1.73,1.54,1.55a.6.6,0,0,1,.54.13c.31.33.6.67,1.11-.33-.07.66,0,1.18.43,1.26a5.48,5.48,0,0,1,1.65.84,1,1,0,0,0,1,.07c.78-.43,1.12.08,1.45.79.24.52.55.82,1,.83s1-.07,1.42.27c1.47,1.31,3.3,1.3,4.86,2.32.68.47,1.5,0,2.16.55a3.13,3.13,0,0,0,.94.67c1.1.43,2.28.06,3.37.76.11.07.31.1.36,0,.4-1,.89-.49,1.15-.14.6.8,1.21.43,1.82.36.13,0,.28-.19.37-.1.63.68,1.2.33,1.75-.34.25-.3.52-.64.85.08.14.32.5.57.6.19.25-.94.53-.31.81-.09,1.07.84,2.13-.16,2.23-2.08a2.28,2.28,0,0,0-.15-1c-.16-.44-.2-1.05,0-1.22.6-.49,1-1.79,1.69-1.71.29,0,.55-.71.86.09s0,1.37,0,2.12c0,.24-.16.43-.25.65a3.07,3.07,0,0,0-.1,1.71c.07.33.23.64.29.23.17-1.1.87-1.15.92-2.42,0-.57.24-.55.38.05.21.93.59,1.27.9,1.24.48-.05,1.31,1,1.24-1,0-.65.64-.54.86.11.12.33.17.3.29.31.61,0,1.14-.35,1.8-.11.5.18.69-.38.58-1.39-.06-.49-.07-1,.14-1,.8.1,1.54-.32,2.41.26.47.31.54.05.51-.61a3.19,3.19,0,0,0-.19-1.76c-.19-.4,0-.72.26-.4s.46.4.6.11c.23-.47.46-.36.78.63s.68,1.65,1.06,1.1a1.68,1.68,0,0,1,2-.6c1.1.32,1.46-1.44,2.56-1,0,0,0-.11,0-.17-.21-.68-.24-1.49-.75-2a1.09,1.09,0,0,1-.35-1.42c.33-1,1.31-.58,1.55-1.79.1-.48.51.42.76.86s.25.83.06.93-.36.2-.1.78.57,1.66,1,1.82a1.1,1.1,0,0,0,1.44-.55c.12-.23.62-.31.18-1.51a.56.56,0,0,1,.42-.67c.22,0,.4.48.51.89.17.6.36.73.5.55.29-.38,1,.29,1-.85a.57.57,0,0,0-.09-.22c-.21-.35-.52-.69-.4-1.08s.39,0,.65.36c.14.18.27.19.27,0a2,2,0,0,0-.11-.53c-.1-.31-.53-.59-.33-.91s.41.33.63.6.78.93.56,0c-.32-1.44.08-1.35.64-1,.24.13.56.51.34-.33-.1-.37.08-.29.2-.29S98.42,271.51,98.41,271.16ZM69.89,111c.4,0,.39.61.41,1.14s.1,1.25-.36,1.3-.47-.66-.49-1.21S69.47,111,69.89,111Zm-1.27,14.26c.13-.74.09-1.87.73-2.11.38-.14.5.73.4,1.2-.17.8-.09,2-.75,2.21C68.62,126.64,68.56,125.91,68.62,125.22ZM20,72.64c-.06.17-.29.09-.34-.15a.89.89,0,0,1,.06-.54c.31-.47.79-.4,1.54-.61-.11.07.08,0,.26-.17s.3-.09.37.14-.1.28-.21.39C21.22,72.19,20.38,71.72,20,72.64ZM21,79.21A4.06,4.06,0,0,0,20.82,78c-.15-.56-.08-.89.34-1s.76.22.81.8a3.72,3.72,0,0,0,.4,1.26c.18.42.87.14.68.74-.13.44-.66.62-.86.79C21,80.75,20.9,80.63,21,79.21Zm1.56,28.43c-.7.17-.62-.82-.72-1.19-.26-1,.58-.34.76-.72.42-.25.64,0,.75.54C23.5,107.2,23.09,107.51,22.54,107.64ZM93.61,259c.39,1.09-.27,2.27-.87,1.67a4,4,0,0,1-.29-.39,3.17,3.17,0,0,1-.23-1.47,2.32,2.32,0,0,1,.55-1.05C93,257.54,93.42,258.45,93.61,259Zm-10.24-2.32c.15-.72.82-.19,1-.78L85,257c.13.38.32,1,.14.79-.66-.69-.77.22-1.25,0-.15-.06-.26.12-.45-.35A1.08,1.08,0,0,1,83.37,256.69Zm-7.44,4.5c.08-.18.21-.12.39.17a1.42,1.42,0,0,1,.18,1,2.84,2.84,0,0,0,0,.54c.06.32.42.66.27.85s-.41-.22-.62-.82l-.21-.57A1.69,1.69,0,0,1,75.93,261.19Zm.85,12.24c-.15.12-.26-.19-.37-.53-.17-.55-.07-.77.07-.89s.27.08.36.42C77,273,77,273.31,76.78,273.43Zm-1-10.66c-.07.37,0,1-.3.68a14.14,14.14,0,0,1-.78-1.68.7.7,0,0,1,0-.25c.09-.09.19.11.28.34C75.29,262.56,75.55,263,75.82,262.77Zm-.75-3.55a1.27,1.27,0,0,1,.18.64c.07.62,0,1-.1,1.11a.62.62,0,0,1-.75-.33c.08-.49.12-1.05.23-1.46C74.69,258.94,74.88,259,75.07,259.22Zm-.91-2.59c.12-.15.21.11.28.56s.21.88,0,.91-.35-.09-.47-.62S74,256.79,74.16,256.63Zm-.61-12.77c.34.14.65.39.51.87s-.46.38-.81.36a8.44,8.44,0,0,1-4.36-2.48.69.69,0,0,1-.08-1A20.48,20.48,0,0,1,73.55,243.86ZM59.3,259.67c-.07.51-.2.51-.3.47s-.21-.13-.13-.61.17-.39.27-.36S59.37,259.15,59.3,259.67Zm-6.88,3.14c-.25.75-.68.93-.85.78s-.64-.2-.11-1.42a2.7,2.7,0,0,1,.34-.61c0,.24.06.44.25.39a1.52,1.52,0,0,0,.7-.78C52.94,261.22,52.71,261.94,52.42,262.81Zm-21.77-5.25c-.39-.94-.89-.68-1.32-.58-1,.26-1-1.18-1-2s.33-.92.82-.21a17.57,17.57,0,0,0,1.62,2.06A3.9,3.9,0,0,0,32.68,258a1.53,1.53,0,0,1,.6.27,7.28,7.28,0,0,1-2.58,1.32A3.76,3.76,0,0,0,30.65,257.56Zm13.83-123c-.43.08-.52-.51-.54-1s0-1.05.39-1.09.41.49.45.94S44.93,134.49,44.48,134.57Zm5,2.81c.59,0,.59.87.56,1.54s-.25,1.56-.87,1.41c-.47-.11-.95-.53-.81-1.48S48.86,137.36,49.43,137.38ZM59,244.66c.3.28.74.54.64,1-.4.25-.83,0-1.19-.42s-.92-.85-.55-1.23S58.66,244.33,59,244.66Zm-.32-5.59c.43-.25,1,.46,1.41.77.28.19.36.56.12.73s-.78,0-1.17-.51C58.92,239.75,58.31,239.3,58.69,239.07Zm.17,9.72c.46.77.52,1.63,1.29,2.37.34.34.77,1.46.48,1.4-.77-.16-1.27.42-2.19-.22-.52-.39-.61-1.33-1.19-1.42s.19,1-.27,1.16c-.31.43-.67.35-1.1-.41a5.41,5.41,0,0,1-.43-1.51,3.84,3.84,0,0,0-.89-2.07c-.68-.63-1.05-.15-1.39.17-.79.74-1.37-.57-1.75-1.36s-.1-1,.65-.61c1.57.82,3.13,1.61,4.49,1.13C57.23,247.19,58.06,247.46,58.86,248.79ZM51.07,262c-.27.67-.75,1.46-.94,1.19A1.84,1.84,0,0,1,50,263a1.7,1.7,0,0,1,.29-.72c.26-.41.52-.82.79-1.22a2.39,2.39,0,0,1,.13-.21C51.28,261.06,51.34,261.36,51.07,262ZM35.33,243.63c.13-.74,0-1.66.57-1.49s.84,1.12.86,2c0,.41-.28.79.09,1.22a.52.52,0,0,1-.18.9c-.36.13-1,.35-1-.39A4.33,4.33,0,0,0,35.33,243.63ZM32,238.74c-.77-1.72.52-3.12.37-4.49-.12-1.18-1.26-1.51-2.1-2,1.15,0,1.56-1.3,2.21-2.15.21-.28.36-.71.71-.59a1,1,0,0,1,.57,1c0,1,.47,2.29-.51,3.09a.6.6,0,0,0-.09.69c.82,2.63-.15,5.44.24,8.23.1.67-.17,1.38-.74,1.35a1.19,1.19,0,0,1-.89-1.29c0-1.09-1.13-2-.18-3.17C31.8,239.21,32.14,239,32,238.74Zm8.18-84.24c0,.08-.16.33-.27.36s-.22-.18-.24-.4a23.41,23.41,0,0,1-.53-2.78,3.11,3.11,0,0,1,.83-2.54c.24-.31.56,0,.64.28a4.85,4.85,0,0,1,.17,3.27C40.55,153.27,40,153.59,40.22,154.5Zm.27-31.08c-.22-.8-.46-1.58-.65-2.38a1.45,1.45,0,0,1,.34-1.38c.35-.25.54.44.68.8a7.42,7.42,0,0,1,.33,1.25c.11.88.17,1.19.18,1.5s0,.93-.32,1S40.59,123.81,40.49,123.42Zm.76,38.44c0,.43,0,.82-.37,1a1,1,0,0,1-.59-1c0-.43.11-.84.47-.86S41.22,161.43,41.25,161.86Zm2-2.63.16,0c0,.28,0,.56.07.84a1.52,1.52,0,0,0-.29,1.24c0,.25-.3.43-.38.12a6.25,6.25,0,0,1-.35-1.94C42.55,158.73,43,159.27,43.3,159.23Zm10.89,49.49c.55,1,1.77,1,2,2.56.09.67.39,1.23-.1,1.75s-.72.31-1.16-.16-1.4-.62-.64-1.93c.24-.4-.13-.6-.34-.82s-1,0-.89-.86S53.8,208.87,54.19,208.72Zm.05,0c.47-.46.77-1.47,1.51-1,.29.18.8.38.57,1.07s-.61.65-.92.24A.91.91,0,0,0,54.24,208.68Zm-.71-.43a16.81,16.81,0,0,1-1.69-.43,1.76,1.76,0,0,1,1.23-1.21c.36-.1.72.19.77.87C53.87,207.83,54,208.32,53.53,208.25ZM54,234.32a5.33,5.33,0,0,0-1.28-2c-.22-.81-.74-1.66-.12-1.79s1.23.7,1.61,1.53c.18.4.06,1,.61,1.17a.6.6,0,0,1,.23,1C54.76,234.5,54.27,235.07,54,234.32Zm2.57,8a4.8,4.8,0,0,1,0,.67c-.11.09-.18.2-.23.17a11.08,11.08,0,0,1-2.74-2.12,3.41,3.41,0,0,1-.35-2.61c0-.13.23-.2.37-.17A35.57,35.57,0,0,1,56.55,242.35ZM52,228.91c-.55.2-.85-.58-1.09-1.12s-.35-1.49.09-1.56,1.08.69,1.39,1.31A1.09,1.09,0,0,1,52,228.91Zm-16.17,1c.23-.84.65-1.3,1.14-1s1.27.46,1.28,1.45c0,.52-.34,1.48-.94,1.22A2.42,2.42,0,0,1,35.87,229.92Zm1,9.74a.86.86,0,0,1-.83,1c-.57-.07-.56-.82-.62-1.36.1-.6.17-1.35.61-1.23S36.74,239,36.82,239.66ZM50.9,217.28c.1.55.06,1.67-.59,1.59a2.21,2.21,0,0,1-1.85-1.35c0-1,.35-1.63.89-1.44S50.69,216.23,50.9,217.28Zm-7.15,23.29-1.13.36c-.35-.09-.89-.21-.67-.53a3,3,0,0,0,.47-1.72c.35.58.76,1.11,1.23,1.16A3.06,3.06,0,0,0,43.75,240.57Zm-6-4.95c-.16-.18-.42-.35-.27-.73s.3-.18.49-.12c.87.29,1.14-.32,1.09-1.44L39,231.48c0-.38,0-1,.21-1a1.38,1.38,0,0,0,.2,0,1.76,1.76,0,0,0,0,.23,15.61,15.61,0,0,0,.53,2.62,5.74,5.74,0,0,0-.25.89C39.41,235.79,38.51,236.45,37.79,235.62Zm4.84-4.19c-.28,0-.55-.47-.75-1.07s-.45-1.48-.83-1.43a2.74,2.74,0,0,1,.44-.51c.55-.47,1.38.35,1.33,1.27C42.46,230.46,42.37,231,42.63,231.43Zm2.18-10.77.06-.22A.41.41,0,0,1,44.81,220.66ZM46,203.84c-.17.35-.39.15-.58,0a2.07,2.07,0,0,1-.58-.6.8.8,0,0,1,.65-.25c.35,0,.49.33.56.71C46,203.75,46,203.8,46,203.84ZM43.77,222.1A1.14,1.14,0,0,0,44,222a.64.64,0,0,1,.47.15c.07.06.17.12.26.2C44.4,222.25,44.07,222.19,43.77,222.1Zm2.14-20.59c-.09.21-.22.34-.43.29a1,1,0,0,1-.53-1.13.79.79,0,0,1,.25-.55C45.44,200.59,45.69,201,45.91,201.51ZM41,222l-.42-.17a2.36,2.36,0,0,1,.23-.35A4.6,4.6,0,0,1,41,222Zm4,15.22a1.8,1.8,0,0,1,1.48.87,17.49,17.49,0,0,1,1.46,2c.66,1,.4,1.65.14,1.88-.74.57-2.4-.47-3.17-1.76A22.24,22.24,0,0,1,44.93,237.25Zm2.8-6.13.12-.1c.17-.18.18-.55,0-.63a.52.52,0,0,1-.3-.26,2.45,2.45,0,0,1,.06-.43c.08-.31.3-.73.12-.93a3.93,3.93,0,0,1-.94-2.58,10.55,10.55,0,0,0-.34-2.55.41.41,0,0,1-.05-.09,4.16,4.16,0,0,1,.9-2.08,2.22,2.22,0,0,1-.24,1.1.85.85,0,0,0,.14.82,10,10,0,0,1,.67,1.3,3.07,3.07,0,0,0,.25,1.23l0-.52c.82,2.2,1.19,4.65,2.37,6.73.38.64.46,1.5-.06,1.75s-1.09-.15-1.39-.87S48.09,231.79,47.73,231.12Zm.67-53.36,0,0a2.13,2.13,0,0,1,.46-.6,2.05,2.05,0,0,0,.2-.23l0,.37C48.93,177.81,48.66,177.93,48.4,177.76Zm-.78,1.29a9.74,9.74,0,0,0,.2,1.72c0,.06,0,.12,0,.17h0c-.46-.15-.68-.54-.61-1.23C47.24,179.26,47.41,179.1,47.62,179.05Zm-4-10.05.07,0c0,.09,0,.17.05.25s.1.42.15.63a2,2,0,0,0,0,.58,10.44,10.44,0,0,1-.35,4.29,2.57,2.57,0,0,1-.17.57.71.71,0,0,1-.25-.47,3.12,3.12,0,0,0-.24-1c-1.08-1.43-.44-2.81-.13-4.2A1,1,0,0,1,43.65,169Zm-1.73,5c0,.55-.09.95-.42,1a.36.36,0,0,1-.39-.29.88.88,0,0,1,0-.16,6.94,6.94,0,0,0,.65-1.4A7.12,7.12,0,0,0,41.92,174Zm-4,73.45a.49.49,0,0,1-.3.62c-.47-.14-1-.17-1.22-.75s.28-.64.54-.67C37.38,246.6,37.77,246.85,37.94,247.45Zm0,4.43c.49,0,.62.83.91,1.28.17.28.08.62-.2.66-.44.05-.69-.33-.81-.95C37.81,252.54,37.48,251.9,37.9,251.88ZM42,253a3.24,3.24,0,0,1-1.6-2.55,15.9,15.9,0,0,0-.56-3.32c-.61-2.46,0-5,.62-7.36.24-.91.48.09.73.11.51,0,.27.36.1.63l-.08.11c-.29.46-1,.92-.68,1.44a1.27,1.27,0,0,0,1.64.39c1.07-.61,1.32.25,1.46,1.2a6.57,6.57,0,0,1,.13,2.1c-.36,2,.31,3.64.78,5.23a4.38,4.38,0,0,0-.66.53A5,5,0,0,1,42,253Zm6.2-1.6-.19,0a2.86,2.86,0,0,0-.65-.59l-.07,0a1.51,1.51,0,0,1,.34-.33c.25-.19.51-.35.48-.25-.09.38.77-.16,1-.12s.3-.12.58-.39.13-.21.1-.25c-.19-.35-.29-.69-1.8-.11-.08,0-.15,0-.14,0,.08-.32-.36,0-.79.38s-.54.4-.81.57a5.78,5.78,0,0,0-.89-.24c-.21,0-.44-.17-.25-.3.73-.51.13-1,.18-1.46a3,3,0,0,0-.69-2c-.55-1.12.12-2,.23-3a20.06,20.06,0,0,0,.05-2.58,9.76,9.76,0,0,1,.81,1.46c.39.89,0,1.09-.46,1.14-.61.06-.46.71.06,1.4a22,22,0,0,1,1.37,2.5,4,4,0,0,0,1.84,1.9c.08,0,.14-.07.16-.16.11-.5,0-1.37.9-.59a2.37,2.37,0,0,1,.84,2.07v0c-.19,0-.35,0-.43-.08s-.2,0-.39.24C48.44,251.83,48.39,251.47,48.18,251.41Zm-8.55-62.56a1.46,1.46,0,0,0-.2.37,1.21,1.21,0,0,1,0-.18,2.21,2.21,0,0,1,.06-.34A1,1,0,0,0,39.63,188.85Zm-2.37-16.8c-.46-.27-1.24.19-1.2-.94,0-.93.75-1,1.24-1.1s.93.42,1,1.08C38.27,172,37.72,172,37.26,172.05Zm-1.48-26c-.5-.05-1.18,0-1.21-.81-.09-1.07.34-1.89.55-1.72.45.37,1.17.49,1.31,1.41C36.55,145.61,36.18,146.07,35.78,146Zm-3.13-33.88c-.39,0-.66-.2-.62-.6s-.22-1.34.28-1.46c.35-.09.79.34,1.18.54C33.28,111.25,32.7,111.43,32.65,112.15ZM33.8,222.7c.6,0,.84.93.87,1.58,0,1.19-.84,1.05-1.37,1.49-.72-.45-.36-1.52-.55-2.23S33.45,222.71,33.8,222.7Zm-.94-121.1c-.38.77.08,1.55,0,2.25-1-.19-1.17-1.12-1.36-1.92-.09-.35-.09-1.09.43-.91C32.29,101.12,33,101.25,32.86,101.6Zm1.79,87c-.66,0-.57-.88-.57-1.53v-.16c0-.79-.56-2.07.34-2.15s.49,1.41.68,2.18C34.9,187.47,35.4,188.5,34.65,188.55Zm-.24,7.85c.5-.11.65.35.71.89s-.15.77-.46.78c-.47,0-.75-.32-.8-.93S34.09,196.47,34.41,196.4Zm.25-1.18c-.36-.11-.58-.42-.56-1,0-.36.1-.76.44-.69s.57.6.61,1.12S35,195.3,34.66,195.22Zm.3-12.41c-.27.08-.49-.44-.59-.82a8.34,8.34,0,0,1-.49-3.12c0-.34.11-.76.43-.78s.33.34.42.62a16,16,0,0,1,.39,3C35.07,182.11,35.32,182.69,35,182.81ZM34,72.08c-.07-.44-.35-1,.16-1.15s.73.49.87,1.07.13,1.18-.31,1.28C34.15,73.41,34.23,72.52,34,72.08Zm.9-7.18c.32-.28.53-.13.57.23a2.3,2.3,0,0,0,.1.47C35.29,65.57,35.08,65.28,34.92,64.9Zm-4.16,64.39c-.51-.26-.6-1-.79-1.55,0-.3.06-.75.15-.63a8.43,8.43,0,0,1,.91,1.71C31.12,129,31,129.4,30.76,129.29Zm-.45,10.45c.83,0,1.07,1.13,1.27,2,.16.71-.5,1.44-.65,1.32a9.13,9.13,0,0,1-1.29-1.75C29.9,140.78,29.74,139.72,30.31,139.74Zm3,109.07c.07-.1.28-.05.4,0a13.43,13.43,0,0,1,.54,2.32,13.77,13.77,0,0,1,.39,2.42,4.34,4.34,0,0,1-.28.57c-.13,0-.24.07-.27,0a12.2,12.2,0,0,1-1.53-3.09A3,3,0,0,1,33.34,248.81Zm.8-27.19c-.81-.13-1.07-1.27-1-2.43s.57-2.12,1.34-2,.49,1.47.67,2.32C34.78,220.22,35.25,221.8,34.14,221.62Zm-.27-6.44c.05-.42.3-.56.57-.54s.59.35.5.93c-.06.38-.2.64-.52.58A.88.88,0,0,1,33.87,215.18Zm1-6.31c-.2-1.34-1-1.62-1.19-2.3-.24-1,.69-.76,1.08-1.06s.78.44.75.9A12.28,12.28,0,0,1,34.86,208.87Zm2.89,54.2c-.09.1.06-.07.19-.26s.23-.23.3-.17-.06.19-.14.31c-.26.42-.72.71-1,1.11l-.16-.18C37.14,263.65,37.41,263.42,37.75,263.07Zm13-10.36c-.08,0,0-.12-.09-.14s.15-.74-.6.46c-.15.23-.33.33-.38.27s-.25-.2-.24-.45a4,4,0,0,1,.42-1,4.22,4.22,0,0,1,.71-.88h0a1.18,1.18,0,0,0,.41.36.72.72,0,0,0,.63,0c.27-.16-.25-1.44.75-.55a1.81,1.81,0,0,1,.24.24c0,.13,0,.2.09.15h0c.34.51.1.91.17,1.38a4.28,4.28,0,0,0,.32,1.24,2,2,0,0,0-.43-.24C52.07,253.29,52,252.12,50.8,252.71Zm5.93-17.22c-.49.11-1,.37-1.45-.08s0-.79.2-.95c.36-.27.8-.22,1.22.27A.58.58,0,0,1,56.73,235.49Zm-3-16.41c-.43-.38-.5.95-.41,1.7.14,1.69-.44,2.74-1.4,2.19-.22-.13-.5-.2-.48-.65s.23-.32.42-.33c.91-.05,1-.78.6-1.89-.2-.62-.35-1.26-.55-1.89-.12-.38-.26-1,0-1.05,1.1-.3,1.14-1.92,1.77-2.75.46-.61,1.39,0,1.53.9-.34,1.35,0,2.05,1.14,1.94.25,0,.47.58.41,1s-.26.82-.6.67C55.28,218.49,54.71,220,53.71,219.08Zm2.59-32.86c-.69.16-1.22.64-1.31,1.88-.18-.7-.63-1.4-.17-1.88a5.34,5.34,0,0,1,1.81-.95s.16.21.15.33A.59.59,0,0,1,56.3,186.22Zm-1.2,2.95c.59.08.77.55.84,1.18a1.36,1.36,0,0,1-.43,1.25c-.48.43-.64,0-.83-.54a1,1,0,0,0-.4-.44c-.27-.17-.78.73-.79,0a1.33,1.33,0,0,1,1-1.31A5.14,5.14,0,0,0,55.1,189.17Zm-.81,6.5c.6-.23.75.39.74,1.15a25.17,25.17,0,0,1-.05,4.34c-.2,1.06.23,2.12-.13,3.22-.18.53.08,1.13.59.85s.5.16.58.56c.16.75-.45.43-.61.84s-.51.2-.57-.24c-.1-.89-.53-.93-1-1.1-1.16-.41-.57-2.17-1-3.22-.65-1.61-.12-3.49,0-5.25C52.91,195.32,53.76,195.88,54.29,195.67Zm-6.86-38.29c-.49-.57-.52-1.92-.83-1.9-.61,0-.19,1.47-.71,2-.32.35-.61.88-1,.64s-.26-.9-.26-1.41a20.58,20.58,0,0,1,0-2.83c.11-.79-.5-2,.23-2.24.52-.15.83,1.09,1,1.92a1.49,1.49,0,0,0,.28.44c.07-.11.21-.24.19-.32a7.15,7.15,0,0,1,.24-2.2c.37,0,.71.2.69.76C47.21,154,47.72,155.62,47.43,157.38Zm-2.36-13.44c0,.32,0,.72-.06,1.07s-.22.54-.31.81a.58.58,0,0,1-.15.11c-.37.16-.51-.45-.51-1.06s-.1-1.61.52-1.91C44.92,142.79,45.12,143.52,45.07,143.94Zm-1.89,12.79a.35.35,0,0,0-.18.44.76.76,0,0,1-.51.33c-.69.1-.72-.83-.81-1.56a4.24,4.24,0,0,0-.25-.86c-.24-.7-.45-1.46.22-1.81s1.18-.32,1.35.91a9.89,9.89,0,0,0,.21,1A4.91,4.91,0,0,1,43.18,156.73Zm-.77-13.24c0,.39-.28.75-.53.64-.84-.38-.41-1.63-.78-2.38a.87.87,0,0,1,.4-1.09.41.41,0,0,1,.67.24,9.21,9.21,0,0,1,.25,1.25C42.42,142.67,42.45,143.09,42.41,143.49Zm-1-27.31c-.28.5-.57,1.4-1.27,1.16-.5-.18-.72-.69-.8-1.71,0-.3,0-.91.06-1.53s.19-.8.51-.81.44.38.46.77a3.59,3.59,0,0,0,.46,1.25C41,115.73,41.82,115.39,41.39,116.18Zm-1.86,21.89c.88-.17.86.87.89,1.72a6.63,6.63,0,0,1,0,1.09c-.08.66-.17,1.49-.8,1.36s-.72-.78-.53-1.56a1.91,1.91,0,0,0,0-.75C38.92,139.12,38.79,138.21,39.53,138.07Zm-.08,20.06a1,1,0,0,0,.39-.18c.26-.25.42-1,.84-.29.3.52,0,1-.13,1.44-.27.89-.55,0-.84-.14a3,3,0,0,1-.41-.19c-.22-.13-.61-.05-.54-.55S39.12,158.05,39.45,158.13Zm-1.7,31.46c.11-.68.16-1.54.62-1.76A15.87,15.87,0,0,1,37.75,189.59ZM37,109.7c-.68.15-1.17-1.1-1.23-1.88s-.45-2.54.74-2.58,1.27,1.77,1.67,2.87S37.87,109.45,37,109.7Zm-.78-6.09a1.33,1.33,0,0,1-1.58-1.32c-.07-1.2-.35-3,1.15-3,1.1,0,.66,1.53,1.12,2.13C36.92,102.43,37,103.47,36.2,103.61ZM35.21,257c-.11-.46-.48-1.19,0-1.34s.54.63.71,1.07L36,257a5.15,5.15,0,0,1-.66.45A1.75,1.75,0,0,1,35.21,257Zm21.25-2a4.41,4.41,0,0,1-.62-.37l-.06,0A2.56,2.56,0,0,1,56.46,255Zm6,4.25h.08a.35.35,0,0,0-.07.12c-.14.31-.32.25-.42-.12Zm.1-8.35c-1.09-1-1.18-2-.79-2.75.28-.56.74-1.12,1.77-.2a5.61,5.61,0,0,1,1.32,1.61,2.11,2.11,0,0,1,.07,1.69C64.53,252.4,63.44,251.31,62.58,250.94Zm.82-7.08c.22-.36.4-1,1-.53a.75.75,0,0,1,.07,1.2c-.37.24-.62,1.13-1.35.39S63.21,244.17,63.4,243.86Zm1.24,2.47a2.43,2.43,0,0,1,0-.65,1.6,1.6,0,0,1,1.64-.39A17.18,17.18,0,0,1,69,246.42c.88.44.53,1.39.19,1.86s-1.37.39-2.38,0A3.88,3.88,0,0,1,64.64,246.33Zm-4.49-18.21a7.88,7.88,0,0,1,1,1.93c.59,2.23,2.18,3.67,3.5,5.2a13.15,13.15,0,0,0,1.06,1.16,7.25,7.25,0,0,1,1,1.28c.36.59,1,.44,1.53.8,1.8,1.25,1.89,1.34.57,3.09h0a2.72,2.72,0,0,1-1.69.31,2.45,2.45,0,0,1-1.66-1.3c-.26-.44-1-.52-1.51-.86-.31-.2-.67-.48-.64-.89s.39-.32.68-.26.77.12.81-.44c0-.31-.21-.51-.42-.69-.63-.55-.46.24-.65.44a1.57,1.57,0,0,1-1.69,0,3.4,3.4,0,0,1-1.73-1.53,17.21,17.21,0,0,0-2-3c-1.63-2.09-2.17-4.86-2.45-7.46-.09-1,.47-.14.71-.24.49-.19.36.24.32.57l0,.13c-.08.57-.55,1.37-.07,1.72a1.2,1.2,0,0,0,1.62-.44C59.08,226.62,59.63,227.31,60.15,228.12Zm-2.46-6.78c.82,1.12.61,2.77,1.41,3.85-.31.31-.63.61-.89.86-.35.09-.89.24-.81-.17.35-1.52-.74-2.64-.74-4,0-.42-.25-1,.19-1.13S57.44,221,57.69,221.34ZM58,189.5c-.22.32-.41.07-.58-.1a2.06,2.06,0,0,1-.64-1.67,5,5,0,0,1,.91-2.42,25.08,25.08,0,0,1,.72,2.57A2.37,2.37,0,0,1,58,189.5Zm.71-7.63-.09.49c-.36,1.89-2.77,3.41-3.7,2.14a2.47,2.47,0,0,1-.19-2.76c.5-.87.41-2.19,1.11-3,.21-.24.31-.68.63-.74C57.86,177.74,59,179.82,58.69,181.87Zm-1.31-30.45a1.2,1.2,0,0,1,.63,1.44c-.2.92-.75.85-1.2.71-.37-.43-1.24-.18-.91-1.37C56.17,151.22,56.89,151.33,57.38,151.42Zm-1-44.95c-.52-.31-.59-1.09-.76-1.7,0-.32.07-.81.16-.67a8.24,8.24,0,0,1,.87,1.87C56.75,106.22,56.61,106.6,56.39,106.47Zm1.88,67.17c.16.42.52,1.21-.35.74-.05,0-.25.26-.31.44-.28.83-.6,1.73-1.28,1.23s-.06-1.4-.09-2c.19-.6.31-1.1.5-1.56s.42-1.06.76-1.06.53.63.52,1.2A2.39,2.39,0,0,0,58.27,173.64Zm2.2,15.52c0,.63-.26.69-.62.42-.52,0-.76-.27-.58-1.13.14-.64.39-1.24.83-1S60.47,188.52,60.47,189.16Zm.47-17.89c-.21.79-.5,1.37-1,1.2s-.51-1-.37-1.74.57-1.69,1.12-1.52C61.36,169.42,60.88,170.59,60.94,171.27Zm-.16-14.1c-.11.59-.33,1-.66,1s-.44-.59-.18-.84c.49-.45.16-1.67.67-1.63S60.74,156.68,60.78,157.17Zm-.48-32c-.49-.13-1.17-.22-1.11-1.07,0-1.17.56-2,.75-1.79.41.47,1.09.71,1.14,1.74C61.11,124.83,60.7,125.28,60.3,125.16Zm1.08,13.94c.12-.39.39-.1.69.07a.8.8,0,0,0,.42-.1c.3-.21.6-1,.88-.11a2.07,2.07,0,0,1-.4,1.56c-.44.91-.55-.15-.8-.37s-.25-.19-.37-.31S61.21,139.63,61.38,139.1Zm1.67,4.64c-.06.48-.19.89-.56,1a1.32,1.32,0,0,1-.37-1.24c.09-.47.29-.89.64-.82S63.11,143.26,63.05,143.74Zm-.94,15.58a.76.76,0,0,1-.41-.84,3.9,3.9,0,0,0,0-1.17c-.77-2.15.63-3.5,1.21-5.16.12-.36.42-.64.7-.53s.14.64.15,1a26.82,26.82,0,0,1-.58,5.21C63.07,158.65,62.81,159.46,62.11,159.32ZM65,164.11a12.86,12.86,0,0,0-.33,2.2,2.44,2.44,0,0,1-.5,1.53c-.22.26-.43.21-.59-.05a2,2,0,0,1,0-1.57l.24-1.07.23-1.29c.13-.74.36-1.52.9-1.37C65.63,162.68,65.14,163.48,65,164.11Zm-.42-27.85c-.12-.83-.21-1.72.51-2s1.21-.1,1.18,1.32a11.2,11.2,0,0,0,0,1.22c-.12,1.46-.42,2.44-1.14,2.38s-.55-1.09-.49-1.93A5,5,0,0,0,64.58,136.26Zm.53,7.38c0,.29-.38.4-.39,0a8.41,8.41,0,0,1,.09-2.25c.18-.81.54-.09.82-.06s.75.07,1.41.12C66.17,142.15,65.27,142.06,65.11,143.64Zm2-23.25a11.63,11.63,0,0,1,.15,1.47,12.2,12.2,0,0,1-.15,1.52c-.08.43-.35.8-.59.64-.79-.55-.22-1.9-.53-2.81a1,1,0,0,1,.47-1.18C66.79,119.87,67.06,120,67.16,120.39Zm-.43-19.16c-.4.11-.46-.5-.57-1l-.69-2.74A1.74,1.74,0,0,1,65.76,96c.34-.29.56.5.71.91a8.72,8.72,0,0,1,.38,1.44c.12,1,.18,1.38.19,1.74S67.09,101.14,66.73,101.23ZM65.12,88.69c.31,0,.46.42.5.87A4.87,4.87,0,0,0,66.15,91c.18.47,1,.07.64,1-.24.58-.46,1.62-1.19,1.35-.52-.2-.78-.78-.92-1.93,0-.34,0-1,0-1.75S64.8,88.72,65.12,88.69Zm-1,30.2c-.08-.93-.15-2,.6-2s.8,1.08.76,2.05c0,.41,0,.85-.08,1.24-.14.73-.29,1.66-.91,1.42s-.66-1-.4-1.83A2.35,2.35,0,0,0,64.16,118.89Zm-.08,10.45c.28-.3.56,0,.59.43.11,1.25.35,2.62-.31,3.69-.36.59-.93.83-.87,1.88a.58.58,0,0,1-.32.35c-.2,0-.2-.26-.18-.5a31.31,31.31,0,0,1-.08-3.19A3.44,3.44,0,0,1,64.08,129.34ZM62.91,82.88c.55,1.26-.14,1.53-1,1.89-.66.2-1.3-1.16-1.44-2s-.73-2.81.43-3S62.38,81.67,62.91,82.88Zm-3.57-9.67c1.09-.15.92,1.63,1.45,2.25.16,1.11.32,2.3-.41,2.53a1.39,1.39,0,0,1-1.74-1.3C58.43,75.36,57.84,73.43,59.34,73.21ZM58.49,86c-.17.71-.73.94-.73,1.74a.56.56,0,0,1-.66-.62c0-.57-.33-1.46.15-1.63S58.08,85.85,58.49,86ZM55.82,75.62c.33.07,1.09.12,1,.52-.26.89.28,1.7.33,2.48-1-.1-1.29-1.09-1.6-2C55.39,76.3,55.27,75.5,55.82,75.62Zm-.37,42c.83.11,1,1.34,1.11,2.34.09.79-.62,1.47-.76,1.32a10.7,10.7,0,0,1-1.15-2C55,118.69,54.9,117.55,55.45,117.62Zm-2.73,54.9c.3-.76.58-1.82,1.18-1.77.34,0,.56,1,.84,1.5-.71.56-.84,2.3-1.58,2.35S52.72,173.35,52.72,172.52Zm-.92-12.79c.14-.35.3-.76.62-.69s.23.48.24.8a20.61,20.61,0,0,1-.42,3.34c-.16.41-.08,1.11-.46,1.12s-.35-.63-.34-1.06A10.48,10.48,0,0,1,51.8,159.73Zm-1.06,6.44c.89.2.11,1.68.11,2.57-.34.57-.11,1.85-.85,1.67s-.33-1.12-.16-1.84l0-.17C50,167.52,49.85,166,50.74,166.17Zm-2.9-92.7c.51.15,1-.38,1.49,0a1.05,1.05,0,0,1-.55,1c-.39.2-.82,0-1.1-.55C47.57,73.73,47.59,73.39,47.84,73.47Zm-.6,10.41c-.69.26-.72-.77-.85-1.14-.36-1,.53-.43.67-.84.39-.31.63-.14.8.46C48.13,83.31,47.76,83.68,47.24,83.88ZM44.5,41.76c.28-.5,1.2-.06,1.84.42s1.24,1.1.95,1.51-1.13-.4-1.72-.68S44.21,42.27,44.5,41.76ZM39.15,56.83a.53.53,0,0,1,1-.08,2.55,2.55,0,0,0,.85.62c.33.17.77-.5.87.1.07.44-.3.91-.41,1.17-1,.89-1,.81-1.5-.21a1.7,1.7,0,0,0-.59-.68A.58.58,0,0,1,39.15,56.83Zm.16,11.54c.21.12.06.68-.31.91-.54.33-.5.49.06.69s1,.87,1.33,1.62c.63,1.22.06,2.83,1.11,4a2.3,2.3,0,0,1,.51,1c.2.88.33,1.81,1.3,1.53a2.48,2.48,0,0,0-.13,2.32,23.13,23.13,0,0,1,1.19,4.06,6.24,6.24,0,0,0,.84,2.07A4.64,4.64,0,0,1,46,90.36a6.17,6.17,0,0,0,.26,3,12.43,12.43,0,0,1,.82,3.39c.05,4.34,1,8.62.79,12.92-.15,1.87.57,3.64.2,5.47a15.36,15.36,0,0,0-.37,2.51c-.08,1.4-.05,2.79,0,4.19a22.18,22.18,0,0,1-.39,4.15c-.05.28-.11.76,0,.87.84.91.33,2.18,0,2.79a5.49,5.49,0,0,0-.59,2.31q-.09-.88-.12-1.74c-.09-2.24-.45-4.51-.45-6.83a113.75,113.75,0,0,0-1-12A20.11,20.11,0,0,0,43.88,105c-.74-1.56-1.43-2.39-.71-4.19.23-.58.11-1.6.69-1.87s1.09.17,1.47.92c.18.37.52.9.68.43a4.82,4.82,0,0,0-.45-3.5c-.34-.71-.9-.37-1.23.32a1,1,0,0,1-1.27.62c-.51-.15-.49-.87-.59-1.44-.19-1.15-.36-2.31-.6-3.45-.9-4.2-1-8.7-2.82-12.57a6.12,6.12,0,0,1-.16-.94c-.15-.62.18-2.07-.94-1.14-.23.18-.5-.25-.57-.65A15.61,15.61,0,0,1,37,74.83a6.74,6.74,0,0,1,.49-2.14.74.74,0,0,1,1-.44c.5.12.56.76.58,1.26,0,1.22.75,1.58,1.31,2.13.07.08.34,0,.36-.09a4.1,4.1,0,0,0-.57-2.07c-.84-2.23-2-4.18-2.78-6.46C38.31,66.79,38.61,67.93,39.31,68.37Zm-2.88-14.8c0,.14,0-.1,0-.35s.09-.34.27-.3.12.23.13.39c0,.73-.64,1.32-.36,2.11,0,.15-.11.34-.24.27a.5.5,0,0,1-.23-.31C35.93,54.86,36.18,54.41,36.43,53.57Zm-6.36-8.2A3.63,3.63,0,0,1,32.7,44a4.52,4.52,0,0,1,1.49.16,2.53,2.53,0,0,1,1.09.73c.52.62.46,1-.49,1a18,18,0,0,0-3.76.49c-.59-.12-1.07.33-1.37,0S29.82,45.7,30.07,45.37ZM25.18,99c-.41.13-.8-.09-1-.71-.08-.26,0-.58.24-.46.47.24,1-.18,1.46.29A1,1,0,0,1,25.18,99ZM27,162.21c-.48,0-1-.26-1.09-1.21s.28-1.55.84-1.65.73.68.81,1.31S27.64,162.19,27,162.21Zm.44-95.89c-.34.66-.66.77-1-.07-.47-1.17-.91-2.36-1.3-3.39,0-.59-.38-1-.13-1.35s.63.06.93.24A4,4,0,0,1,27.45,66.32ZM27,194.22a9.5,9.5,0,0,0,.43-3.92A1.22,1.22,0,0,1,28.2,189c.63-.11.35.8.55,1.18a7.64,7.64,0,0,1,.57,3.62c0,1.74-1.15,1.4-1.86,1.68C27,195.69,27,194.91,27,194.22Zm.67,11.83c0-.69.41-1.43.78-1.44.76,0,.42,1.11.52,1.65.15.78-.41-.23-.56.17C28,206.63,27.64,206.7,27.62,206.05Zm.09,22.3c-.37,0-.65-.12-.71-.71-.08-.94-.92-1.55-.58-2.69a30.08,30.08,0,0,0,.31-3.45c.07-.59.24-1.14.7-1.23s.8.41,1,1a1.36,1.36,0,0,1,.11.58c-.31,1.88.18,3.82-.28,5.7C28.13,228,28.1,228.34,27.71,228.35Zm-.41,20.89c-.95.12-2.15-1.82-2.12-3.21s.6-2.16,1.21-2c1.09.3,1.29,2.11,1.55,3.63C28.14,248.8,27.61,249.18,27.3,249.24ZM43.94,272c-.08,0-.11-.15,0-.28a1.87,1.87,0,0,0,.32.2A.36.36,0,0,1,43.94,272Zm1.55,5c-.29.77-.54.34-.69.3-.41-.11.19-.7.17-1,.14-.5.3-.65.52-.54S45.72,276.38,45.49,277Zm3.07-10.84c-.08,0-.18-.15-.09-.41l.22.16.27.25A.5.5,0,0,1,48.56,266.14Zm2.18,2.32c-.07-.14-.26-.16-.25-.41a1.9,1.9,0,0,0,.41.39C50.83,268.52,50.78,268.53,50.74,268.46Zm3.23-14a1,1,0,0,0,.47,0c.12,0,.24,0,.36,0l-.12.09C54.23,254.93,53.85,255.36,54,254.43Zm1,19.71c-.21.53-.46.47-.67.56s-.21-.24-.14-.31a3.52,3.52,0,0,1,.74-.64C55,273.69,55,273.92,54.93,274.14Zm0-12.82c-.21.5-.38.63-.59.48,0-.08-.14-.27-.24-.43a1,1,0,0,1,.06-.73c.11-.33.22-.38.29-.31s.25-.12.37-.19.37-1.07.34-.43A4,4,0,0,1,54.94,261.32Zm1.56.41c-.09.46-.21.42-.31.45a4.26,4.26,0,0,1-.66.22c-.15,0-.2-.32-.15-.65a.66.66,0,0,1,.36-.58.55.55,0,0,1,.33-.11c.19.06.27.06.33.11S56.58,261.32,56.5,261.73Zm2.77,14.6a5.88,5.88,0,0,1-.77,1.25c-.15-.4-.53-.37-.43-1,.15-.93.55-1.05.87-1.14S59.33,276.18,59.27,276.33Zm.48-9.63a.15.15,0,0,0-.19-.08c-.23.07-.48.07-.38-.79.1-1,.34-.84.55-.76s.18,0,.26.13.34.37.23,1.08S59.92,267,59.75,266.7Zm1,4.45c-.07.57-.14,1.35-.38,1.29s-.51-.63-.43-.85c.16-.47.29-1.27.56-1.33S60.83,270.69,60.78,271.15Zm.17-7.23c-.19.92-.43.28-.66.61s-.19-.17-.2-.57a1.3,1.3,0,0,1,.15-.74.55.55,0,0,1,.32-.14,1.08,1.08,0,0,1,.3.16A1,1,0,0,1,61,263.92Zm.39-2.39c-.13-.13-.36-.07-.35-.81,0-.43.18-.59.26-.47s.37.07.37.83C61.62,261.52,61.47,261.6,61.34,261.53Zm2,5.92c-.26,0-.5.51-.76.39-.33.1-.49-.54-.62-1.19a.91.91,0,0,1,.12-.71c.29-.2.59-.56.84.09.13.36.2,1,.45.83a.84.84,0,0,1,.09.34C63.51,267.42,63.44,267.45,63.38,267.45Zm.42-2.17c-.07,0-.14.16-.22.24s-.38.4-.44-.41,0-1.39.25-1.48a.82.82,0,0,0,.25-.16c.3-.06.52.14.55,1S64,265.22,63.8,265.28Zm.8,2.46,0,.47c0,.24,0,.71-.15.59s-.05-.43,0-.8a3.47,3.47,0,0,0-.05-.46c-.07-.32-.27-.55-.08-1s.27.06.38.23C64.86,267.16,64.63,267.43,64.6,267.74Zm.07-3.2c-.18-.09-.06-.6-.07-.93s0-.87-.08-1.63c.19.9.25,1.93.58,1.84.06,0,.11.36,0,.45S64.83,264.62,64.67,264.54Zm.65,1.61c.11,0,.22.06.28.46s-.09.67-.23.65-.23-.18-.25-.59S65.21,266.16,65.32,266.15Zm.16,17.66c-.36,0-.62-.41-.66-1.07s.26-.8.5-.86.59,0,.62.74C66,283.17,65.86,283.79,65.48,283.81ZM67.1,264.5a1,1,0,0,1-.22-.66c0-.42.1-.32.17-.42a1.84,1.84,0,0,1,1.08-.7c.18-.08.38,0,.5.8a1.09,1.09,0,0,1-.07.69c-.08.08-.2.09-.23.28C68.06,265.92,67.51,264.75,67.1,264.5Zm1.26,7.82c-.29,0-.39-.87-.46-1.44s0-1.07.22-1.08.33.61.39,1.14S68.71,272.37,68.36,272.32Zm.32-5.85c-.18-.41-.37.29-.46-.29s.18-.43.27-.61c.14,0,.26.1.33.48S68.79,266.69,68.68,266.47ZM69.5,260a1.4,1.4,0,0,0-.23.05l-.27.12c-.15.08-.33.05-.42-.59-.13-.82.11-.52.24-.55a.65.65,0,0,0,.43-.28c.11-.15.21-.16.36.09a1.28,1.28,0,0,1,.14.65C69.75,259.89,69.63,259.94,69.5,260Zm.78-2.37c-.41-.21-.5,1.13-1,.43-.2-.28-.4,0-.58-.95a.15.15,0,0,0-.14-.1.86.86,0,0,0,0,.27c.07.33.32.64.16,1s-.3-.16-.44-.6c-.22-.68-.37-.61-.41-.06-.12,1.59-.61,1.52-1.07,1.6-.21,0-.41.13-.63-.54a1.09,1.09,0,0,0-1.07-.68.81.81,0,0,0-.92.58s0,.07,0,.1c-.08.66-.41.57-.41.95,0,.72.31.31.43.95a4.09,4.09,0,0,1,.16,1.24c0,.49-.2.24-.32.21s-.43.05-.63-.18-.48.41-.49-.45a1.29,1.29,0,0,1,.45-1.06,3,3,0,0,0,.1-.29c0-.09,0-.26-.07-.25s-.3-.26-.45-.47c1.78-.21.21-2.09,0-3a3.84,3.84,0,0,1-.08-.79c.07,0,.13,0,.14-.44a1.76,1.76,0,0,0,0-.27,1.18,1.18,0,0,1,.41-.6c.48-.34,1.27-.3,2.42.13l1.24.53,1.27.46a13,13,0,0,0,1.27.38,6.42,6.42,0,0,0,.87.09,7.58,7.58,0,0,0,0,1.28C70.48,257.39,70.4,257.65,70.28,257.59Zm.73,3.67c.19,0,.37.13.49.77s0,.85-.19.93-.45-.09-.57-.74C70.59,261.37,70.91,261.54,71,261.26ZM72,274c-.27.33-.52.81-.9.69-.12,0-.26-.09-.32-.46a.56.56,0,0,1,.13-.51c.25-.4.59-.37.87-.56.13,0,.27-.26.37.15A.8.8,0,0,1,72,274Zm.42-8.58a.62.62,0,0,1-.41-.5,1.17,1.17,0,0,1,.07-.92,1.46,1.46,0,0,0,.11-.58c0-.3.06-.92.23.16a.38.38,0,0,0,.17.2c.23.06.49.12.61,1s-.24.49-.34.7A1.51,1.51,0,0,1,72.4,265.41Zm1.47,3.2a1,1,0,0,1-.28,1.1c-.25-.09-.54,0-.7-.71a5.76,5.76,0,0,1,0-1.36C73.25,268.22,73.63,267.83,73.87,268.61ZM73.61,274l0,0c-.24.1-.53.79-.74-.22s.34-.67.53-.94c.22.17.42-.47.6.38S73.82,274,73.61,274Zm1.12-9.23c-.33-.28-.54.19-.9-.32-.11-.15-.22-.12-.33-.45-.49-1.41-.49-3.32,0-3.52l.11,0c.44-.13,1.52,2,1.59,3.35C75.2,264.39,75.17,265.21,74.73,264.81Zm1,7.41c.14-.08.25.18.3.51s0,.68-.16.7-.25,0-.32-.43S75.55,272.32,75.69,272.22Zm2,9.24a1.33,1.33,0,0,0-1.47-.12c-.21.08-.5-.3-.62-.8-.18-.72.19-.47.28-.72a1.3,1.3,0,0,1,1.08-1c.58-.15.76,1.16,1,1.93C78.16,281.28,77.87,281.32,77.65,281.46Zm2-9c-.2.38-.44-.66-.65-1.05s-.11-.91,0-.94.5.18.9.36C79.59,271.28,79.78,272.23,79.63,272.5Zm-.12-10.22c-.14.94-.74.69-1.16.88s-.55-.85-.78-1.39-.18-.89,0-1c.32-.25.55-.76,1-.69s.41-.56.81-.31c.18.12.25-.2,0-.73s-.14-.56-.06-.69.27.46.43.59a.62.62,0,0,1,.14.63c-.19.21,0,.67.09,1.22C80.22,262.05,79.6,261.66,79.51,262.28Zm.32-3.83c0-.32-.18-.89.08-.7a1.38,1.38,0,0,1,.39,1,3.44,3.44,0,0,0,.34,1.3A3.55,3.55,0,0,1,79.83,258.45Zm.63,2.09c.08-.06.18-.18.31.28s.31,1.18.48,1.85a3.35,3.35,0,0,1-.74-1.22C80.36,261.08,80.3,260.64,80.46,260.54Zm1,18.67c-.22.12-.6-.26-.72-.66-.24-.83.23-.61.37-.8s0,.49.23.6C81.46,278.69,81.61,279.1,81.41,279.21Zm-.19-19.38c-.19-.24-.12.17-.11.4s.36,1.08.09,1-.36-.76-.54-1.18c.07-.66-.37-2,0-2.29.16-.14.23-.44.55.09a2.18,2.18,0,0,1,.34,1.24C81.56,259.64,81.84,260.6,81.22,259.83ZM82,271c-.14,0-.27-.24-.36-.53s-.11-.69.08-.69.25.12.35.48S82.18,270.94,82,271Zm1.39.19c-.35.21-.8-.27-1-1.1s.23-.76.38-1.11c.31.21.54-.59.92.63C83.92,270.46,83.71,271,83.39,271.15Zm1.29-.45c-.12.35-.49-.6-.63-1a1.16,1.16,0,0,1,.08-1.22c.28-.27.6.7.92,1.18C85.22,270.54,84.79,270.36,84.68,270.7Zm.4-4.52c-.31-.08-.59-.44-.72-1s-.4-1.44-.17-1.62.5.06.68.74A4.17,4.17,0,0,1,85.08,266.18Zm.28-3.2c-.29-1-.55-1.14-.8-.86s-.28.27-.41.43-.22.21-.31,0c-.45-1.19-1-1.3-1.41-2-.33-.5-.47-1.52-.24-1.63.52.4.63.1.23-1.14-.09-.27,0-.46.18-.37a1.09,1.09,0,0,1,.41.7c.14.86.78,1.58.83,2.58a.71.71,0,0,0,.68.63c.5,0,1,.85,1.14,1.76,0,.2.09.5-.06.42S85.43,263.19,85.36,263Zm2.74,13c-.22.28-.06,1.29-.53,1.15s-.73.3-1.12.37c-.2,0-.42,0-.62-.51a1.67,1.67,0,0,1-.09-1.24c0-.1.06-.23.12-.23.65,0,1-.93,1.71-.82.15,0,.28,0,.44.39S88.24,275.81,88.1,276Zm1.79-7.77c-.29.11,0,1.44-.72.62-.12-.15-.32-.47-.34-.32-.09,1.1-1,0-1.25.43s.16,1.62.38,2.61a4.22,4.22,0,0,0-1.46-1.88,1.19,1.19,0,0,1-.45-.63c-.11-.4-.09-.73,0-.81.28-.17.37-.95,1-.08.13.19.18.09.21,0,.29-1.38,1.38-.87,1.93-1.62.13-.18.43,0,.65.62S90.07,268.15,89.89,268.22Zm-2.83-4.87c.1-.15.43.27.59.72.22.61,0,.72-.08.87-.2,0-.41,0-.57-.43A1.35,1.35,0,0,1,87.06,263.35Zm1.49-.76c0-.41.17-.2.33.13s.51,1.07.28,1.07-.41.25-.45.58c-.25-.05-.43.23-.63-.42s0-1,.17-1.14S88.58,263,88.55,262.59Zm.19-1.28c.07-.12.2.1.3.29a3.42,3.42,0,0,1,.26,1.33c-.08.22-.3-.27-.41-.54A1.5,1.5,0,0,1,88.74,261.31Zm1.1-4.09c-.07.15-.16.3-.34,0a1.05,1.05,0,0,1-.18-.72,1.35,1.35,0,0,0-.27-.92c-.14-.18-.22-.1-.28,0-.2.24.15.53.26.79.36.93.24,2.29-.23,2.3s-.64.29-.88.64c-.53.76-1.45.49-2.34.19-.34-.11-.18-.52-.28-.78-.2-.55,0-.34.12-.21l.06.07c.24.22.67.91.68.5a4.55,4.55,0,0,0-.57-1.78c-.62-1.05-.48-1.43-.25-1.7s.34-.44.6-.36c.84.23,1.21-.68,1.8-1,.3-.2.54-.53,1-.43.27.06.16-.59.34-.77.6-.61.68-.54,1.46,1.55h0c.23,1.19.29,2.09-.39,1.94C90,256.46,89.93,257,89.84,257.22Zm.7,4.34c-.12-.05-.22.27-.37-.18s.06-.6.13-.85.19,0,.29.27C90.76,261.27,90.71,261.5,90.54,261.56Zm0-7c.23-1,.87-1.17,1.45-1.42.13-.06.3,0,.5.43a.72.72,0,0,1,0,.69,1.68,1.68,0,0,1-1.5.94C90.84,255.21,90.68,254.92,90.53,254.54ZM91.87,267c-.17.21-.61-.37-.94-.81a1.22,1.22,0,0,1-.15-.42c0-.24.94-1,1.09-.81a4.39,4.39,0,0,1,.28.36,1.62,1.62,0,0,1,.1.28A4,4,0,0,1,91.87,267Zm.33-6c-.22.1-.34-.52-.48-.86s-.47-.92-.31-1.1.42.28.54.69S92.47,260.81,92.2,260.92Zm.29,3.13c.08-.08.14-.29.35.06s.11.69,0,.73-.23.29-.45-.24S92.39,264.16,92.49,264.05Zm1,10.84c-.32.07-.77-.46-1-1.11-.38-1.19,0-1.56.27-1.89s.52.31.66.64C93.8,273.52,93.79,274.82,93.45,274.89Zm.07-12.33c.41-.18.88.18,1.39,1.3s0,1-.06,1.34c-.37.11-.78-.45-1.13-1.22C93.45,263.41,93.18,262.71,93.52,262.56Zm2.26,8.1a4.11,4.11,0,0,1-.56-.55c-.24-.24-.58-.66-.72-.47s.11.82.29,1.27c.42,1.06,0,.86-.24.78s-.38-.43-.35-.88a9,9,0,0,0-.25-3.18c-.17-.66-.19-1.26.29-1,.29.13.62.56.88.5s.56.41.55.58c0,.44.28,1.17.1,1.43s-.49-.36-.46,0,.41.5.51.92S96,270.79,95.78,270.66Z"/><path class="cls-2" d="M80.31,253.47c.22.74-.13.49-.16.82.32.33.42,0,.65,0,.08,0,.11-.13,0-.36a4.56,4.56,0,0,0-.37-.63C80.33,253.19,80.25,253.24,80.31,253.47Z"/><path class="cls-2" d="M79.26,253.94l-.79.23C78.79,254.37,79.19,254.78,79.26,253.94Z"/><path class="cls-2" d="M86.91,256.19c-.08.15,0,.38.11.61.25.52.46.65.65.6s.08-.18,0-.29C87.41,256.77,87.15,256.48,86.91,256.19Z"/><path class="cls-2" d="M64.68,60.05A5.13,5.13,0,0,0,65.91,63c.19.26.5.64.65.3.06-.14-.12-.61-.19-.93a40.51,40.51,0,0,0-4.08-9.63c-.21-.46-.56-1.43-.78-1s-.74,1.16.32,2.66C63.05,56.12,64.45,57.92,64.68,60.05Z"/><path class="cls-2" d="M73.89,133.8c.62.06.49-1.83.57-2.9,0-.31.05-.63.11-.93.16-.94.12-2.07-.37-2.25-.31-.12-.3,1.2-.42,1.87a4.18,4.18,0,0,0,0,1.49C73.93,132,73.13,133.72,73.89,133.8Z"/><path class="cls-2" d="M74.59,113.8c0,.31,0,.63.08,1.19.23.53-.25,2.05.32,2.07s.23-1.42.26-2.23a9.24,9.24,0,0,1,.1-.92,2.21,2.21,0,0,0-.09-1.59.29.29,0,0,0-.41,0C74.49,112.61,74.6,113.26,74.59,113.8Z"/><path class="cls-2" d="M74.72,103.73a8.83,8.83,0,0,1-.18-3.57,17.08,17.08,0,0,0,0-2.27c0-.54-.27-.78-.55-.83s-.29.23-.22.47C74.36,99.56,73.74,101.83,74.72,103.73Z"/><path class="cls-2" d="M62.4,189.72c.47,1,1.55-.87,1.89.57,0,.11.25-.2.23-.37-.08-.48.1-1.43-.37-1.33A2,2,0,0,0,62.4,189.72Z"/><path class="cls-2" d="M59.73,215.7a1.86,1.86,0,0,0,.57-.58c.13-.19.08-.51-.13-.52-.68,0-.49-.88-.78-1.34-.32.73,0,1.4,0,2.07C59.37,215.56,59.52,215.82,59.73,215.7Z"/><path class="cls-2" d="M59.75,210.69c0-1.14-.06-2,0-2.91C59.45,208.63,59,209.58,59.75,210.69Z"/><path class="cls-2" d="M60.8,233.94c.12-.55.18-1.13.26-1.66-.29-.3-.49-.21-.65,0a1.35,1.35,0,0,0,0,1.55C60.53,234,60.76,234.13,60.8,233.94Z"/></g><path class="cls-3" d="M125.2,29.94c-1.06-7.71-1.76-17.88-6-24.63-5.33-8.58-15.48-5.6-21.13.73l-.6.7-1.38-.15-9.41-1-9.41-1c-.12-.08-.24-.16-.37-.23a11.34,11.34,0,0,0-10.51-.82A16.85,16.85,0,0,0,59,2c-5.45.06-10.7,1.62-16,2.86-.77.11-1.54.24-2.32.4-2.18.43-3.58.81-5.48-.28-2.36-1.35-3.89-3.15-6.64-3.91A14.72,14.72,0,0,0,16.66,3.21a14.34,14.34,0,0,0-6.67,1A12.45,12.45,0,0,0,4,22.54a52.27,52.27,0,0,0-1.72,16A7.44,7.44,0,0,0,3.7,42.64c0,5.22,1.39,10.19,5.85,13.93,6.69,5.62,14.85,3,21.25-1.41a14.2,14.2,0,0,0,15.63-.88,13.9,13.9,0,0,0,1.3-1.05,17,17,0,0,0,1.74.16,17.67,17.67,0,0,0,10.85,1.06h0a14,14,0,0,0,10.83,1,24.4,24.4,0,0,0,11.39-.78A27.09,27.09,0,0,0,89.69,51a14.08,14.08,0,0,0,2.08.24,14.73,14.73,0,0,0,6.1-1.18,11.65,11.65,0,0,0,2.63.15,12.39,12.39,0,0,0,3.66,3,11.18,11.18,0,0,0,15.45-5C125.3,44.35,126.19,37.05,125.2,29.94Zm-46-8.39a32.43,32.43,0,0,0,3-2.16A14.82,14.82,0,0,0,80.92,23,13.51,13.51,0,0,0,79.2,21.55Z"/><g class="cls-4"><path class="cls-2" d="M119.7,72.87c-.27-.11-.4-1-.65-1.24s-.64.16-1.4,2.46c-.94,2.81-1.27,3.33-1.36,2.88a28,28,0,0,1,.43-4.31c.56-4.26,1.56-8.91,2.56-13.63l.18-.88c0-.06.06-.17,0-.19h-.2l-.39,0-1.6.1-3.19.25c-2.14.2-4.29.44-6.39.8-3.35.57-3.46-.38-4.18-.82-.91-.56,1.33-.9,3.91-1s5.18-.32,5.25-.94,2.11-1.79-1.71-1.88a175.41,175.41,0,0,0-20.71,1.07l-2.37.22c-.53,0-1.11.12-1.66.21-1.08.2-2,.52-2.13,1.14-.06.31-2.94.63-4.55.64s-1.39-.51-1.07-.92c.48-.61-.49-.76-1.85-.59-2.87.36-6.11-.37-8.67.79-.11,0-.07.17,0,.23.48.36,1.64.73-.28,1.12A4.71,4.71,0,0,1,64.31,58a2.92,2.92,0,0,0-1.89,0,1.28,1.28,0,0,0-.75.54c-.15.32,1.95.63-.29.95-1.82.25-1.85-.36-2.59-.65-1.06-.42-2.68-1-3.95,0-1.88,1.47-4.44,1.35-7.35,1-1.25-.15-2.35-.56-3.23.31-.39.38-1.42.29-2.2.27a6.1,6.1,0,0,0-2.86.66c-3.71,1.42.53,2,1.73,2.64a2.69,2.69,0,0,1,1.24,1c-8.23-.68-16.57-.55-24.39,1.39A16.31,16.31,0,0,0,7,74.68a4,4,0,0,1-.47-1A16.35,16.35,0,0,1,6,70.11c0-.71-.07-1.47-.07-2.26s.12-1.58.22-2.41c.35-2.87.6-5.23-.5-4.44a7.47,7.47,0,0,0-1.7,2.85,22.66,22.66,0,0,0-1.36,4.38A112.44,112.44,0,0,0,.19,98.55c0,1.74.25,3.23.77,2.82s.78,2.19,1.09,3.75c.41,2,.15,2.25-.11,2.69s-.65,1.18-.25,3.59.94,2.67,1.46,3.16a3.76,3.76,0,0,1,1.12,3.11,22.06,22.06,0,0,0,1,5.8,19.85,19.85,0,0,1,1,5.44c2,4.17,2,7.43,2.79,11,.43,1.9.81,3.47,1.62,3.38.65-.07,1.39,1.83,1.81,3.68a88.89,88.89,0,0,0,3,9.57c.54,1.49,1,2.37,1.56,2.62.8.37,1.51,1.7,2.21,3.27s1.34,3.33,2.05,4.62c.38.67.46,2,.08,2.13-.55.18-.39.73.49,2.06a28.53,28.53,0,0,1,2.56,6,42.83,42.83,0,0,1,1.4,5.63,24.24,24.24,0,0,0,1.54,5.47,16.34,16.34,0,0,1,.84,2.72c.52,2.26.79,4.43,1.76,4.41a13,13,0,0,0,.21,5.11c.18.8.34,1.61.49,2.43l.3,2.42.27,2.42.13,2.4c0,.84.16,1.77.19,2.62a14.9,14.9,0,0,0,.26,2.32,13.41,13.41,0,0,1,.2,4.34,15.18,15.18,0,0,1-.29,2c-.16.66-.35,1.31-.54,2a49.3,49.3,0,0,0-1.4,5.91,33.18,33.18,0,0,1-2,7.08c-1.05,2.31-2.24,5-3.4,8.11a53.82,53.82,0,0,0-2.95,11.22,42.76,42.76,0,0,0-.4,7.11,35.82,35.82,0,0,0,1.09,7.55l.5,1.84a14.21,14.21,0,0,0,.6,1.81c.48,1.19.95,2.39,1.5,3.52s1.2,2.18,1.84,3.24,1.37,1.94,2.08,2.88a29.61,29.61,0,0,0,8.19,6.93,79.41,79.41,0,0,0,8,3.89,42.23,42.23,0,0,0,7,2.48A68.56,68.56,0,0,0,63,298.67c3.67.27,7.5.42,11.6.36a11.43,11.43,0,0,0,2.63-.35,11.62,11.62,0,0,1,2.14-.84c.77-.22,1.62-.46,2.44-.63s1.67-.41,2.43-.56l1.09-.24,1-.26a21.17,21.17,0,0,0,8-4.17c.65-.54,1.31-1.12,2-1.73s1.21-1.32,1.8-2L99,287.2c.27-.37.53-.75.79-1.13.51-.77,1-1.53,1.5-2.33.63-1.16,1.25-2.65,1.72-3.59l.2-.42a26.74,26.74,0,0,0,2-5.32,28.35,28.35,0,0,0,.86-5.06,32.93,32.93,0,0,0-.44-8.57c-.39-2.26-1-4.57-.68-6.73a10.42,10.42,0,0,0-.43-4.15c-1-1.81-.67-3.44-.69-5.13a48.17,48.17,0,0,0-.34-4.81c-.16-1.6-.34-3.16-.61-4.58-.53-2.85-1.31-5.17-2.17-6.23-.38-.48-.59-.29-.83.31s-.86.61-1-1c-.27-2.3-.71-4.39-1.1-6.55-.19-1.09-.37-2.19-.5-3.34a30.84,30.84,0,0,1-.11-3.65c0-2.08-.55-4.81.13-6.15s1.12,1.72,1.73,2.24a12.67,12.67,0,0,1,.52,2.41c.36,1.68.82,2.56,1.38,2.34.28-.11.55-.89.22-1.71a23.11,23.11,0,0,1-.9-4.55c-.12-.85-.25-1.69-.4-2.43a6.36,6.36,0,0,0-.55-1.85c-.43-.83-.35-2.28.16-2.51.79-.37,1.17-2.48,1.26-4.67,0-1.64.42-3.51.56-5.26a7.68,7.68,0,0,0-.66-4.6,7,7,0,0,1-.12-3,6.1,6.1,0,0,1,.76-2.74c.31-.25.34-.7.44-1.52.25-2.06.42-4.16.62-6.25s.5-4.18.88-6.22c.59-3,.43-5.33-.24-6.46a4.26,4.26,0,0,1-.38-3c.51-2.73.9-5.59,1.39-8.38a75,75,0,0,1,1.79-7.93c.77-2.6.78-3.68.46-5-.26-1.05-.11-3.38-1-2.56-.44.4-.26-1.83.24-2.81a9.63,9.63,0,0,0,1-4.05c.21-2.77.63-4.15,1.49-4.07s1.67-.82,2.1-4.82A93.08,93.08,0,0,1,113.13,104c.51-1.71.91-3.46,1.25-5.21.38-1.91.5-2.92,1.21-6.58.59-3.07,1.16-6.1,1.81-9.12.32-1.51.66-3,1-4.54s.74-3,1.2-4.71A3.34,3.34,0,0,0,119.7,72.87ZM30.88,271.09a3.85,3.85,0,0,1-.66-.87,7.35,7.35,0,0,1-.57-1.29,20.07,20.07,0,0,1-.88-3.05c-.19-1-.16-2.56-.05-2.08.18.92.51,1.89.78,2.89s.74,2,1.11,2.94C30.94,270.33,31.24,271.42,30.88,271.09Zm71.77-12.39c.44,0,1.13.88,1.28,4.41s-.55,6.13-1.12,6.28-.32-3.14-.44-5.45C102.42,261.46,102.05,258.67,102.65,258.7ZM83.35,57.63c2.28-.05,3.92.51,3.6,1.17-.58,1.22-4,1.57-6.89,1.89-2.1.24-2.7-.34-2.74-.68C77.32,59,80.88,57.68,83.35,57.63ZM97.66,96c.08.91.9.34.31,2.5s-.86.67-1.29.9c.07-2.78-1-3.17-.28-7.45.07-.45.15-.88.21-1.3,0-.18.06-.34.08-.51l.07-.36a2.62,2.62,0,0,1,.61-1.25c.57-.6.79-.31.95.7a15.11,15.11,0,0,1,.37,1.55,6.35,6.35,0,0,1-.85,3A3.56,3.56,0,0,0,97.66,96Zm-1,3.48c-.67,1-1.5,3.43-1.91,2a3.93,3.93,0,0,1,.1-3c.48-1.41.9-1.4,1-.24C95.8,99.64,96.2,99.54,96.61,99.44Zm1.77-22.68a9.26,9.26,0,0,1-3,.34,9.83,9.83,0,0,0-2.87.22,11.4,11.4,0,0,0-.21-1.2c.23-.4.6-1,1.07-.8a5.77,5.77,0,0,0,2.91.28,14,14,0,0,1,3-.1c.51.08,1.51-.08,1,.44A4.69,4.69,0,0,1,98.38,76.76Zm-1.59-7.22c-1.17.14-2.24-.29-2-.76.33-.64,2.21-.77,3.6-.93,1.49,0,3.32,0,2.77.46S98.3,69.34,96.79,69.54Zm-1.75,4c1.59.15-.37.55-.49.82-.29.58-.72.35-1.15.2l-.17-.08c-.72-.25-1.47-1-2.49-.58s-1.35,1.25-.83,1.83.32.92-.08,1.17a2.28,2.28,0,0,1-.35.17l-.2.07-.12,0-.2,0c-.53.09-1.14.16-1.78.24a39.3,39.3,0,0,1-5.64.36c-5.64-.24-11.1.67-16.63,1L62.65,79a9.44,9.44,0,0,0,.41-1.27,9.13,9.13,0,0,0,.23-2.12,21.15,21.15,0,0,1,7.24-1.39,65.06,65.06,0,0,0,8.36-.63,67.73,67.73,0,0,1,9-.48H89l.91,0,1.78.1C92.88,73.37,94,73.47,95,73.56Zm-34.32-5a7.31,7.31,0,0,0-.82-.76c.94,0,2.46-.27,2.44.27C62.32,68.46,61.53,68.53,60.72,68.58ZM63.77,72c.19-.49,1.19-.72,2.63-.77.7,0,2.32-.27,2.12.19s-2.2.62-3.43.87C64.34,72.48,63.64,72.34,63.77,72ZM91.1,68.91a3.18,3.18,0,0,1-1.8.81,18.76,18.76,0,0,1-2.81.35c-.93.06-1.76-.24-2.79.22s-1.8.2-2-.15-.62-1.1,1-1.1a18.55,18.55,0,0,0,4.89-.57c.42,0,.84,0,1.28,0s.91,0,1.28,0C90.89,68.47,91.34,68.57,91.1,68.91Zm-11.83,1c1.2-.22,1.38.29,1.4.57,0,.45-.59.89-2,1.09-.85.13-1.19-.1-1.36-.3A2.77,2.77,0,0,1,79.27,69.92Zm-6.81-4.19a8.53,8.53,0,0,1,4.35.87c.18.07,0,.31-.18.43a81.29,81.29,0,0,1-10,.77,7.6,7.6,0,0,1-1-.37c0-.15,0-.28.09-.3A61.35,61.35,0,0,1,72.46,65.73ZM48,64.78c1.37-.46,1.53-1.21,3.53-1.46,1.17-.14,2.34.4,3.26,0s-1.4-.53-.88-1c0-.53.55-.76,2-.6a12.75,12.75,0,0,1,2.28.59,9,9,0,0,0,3.62.51c1.68-.21,1.56-.83,1.6-1.3.1-1.1,2.38-.87,3.81-.77,1.24.09,1.43.45,0,.91-3,.94-6,1.84-7.31,3.23-.65.68-2.25,1.29-5,1a31.2,31.2,0,0,0-4.64-.56C49.29,65.42,47.48,65,48,64.78ZM14.07,122.07c-.28,1.07-1.43-.53-1.32,1.75,0,.42-.28.1-.45-.53a5.1,5.1,0,0,1-.21-1.4c.12-1.12.65-.72,1.36-.94a2.07,2.07,0,0,0,.2-.33c.11-.21.27-.12.45.52S14.14,121.82,14.07,122.07Zm1.25-18.76c-.13-.76-.26-1.49-.38-2.2,0-1.47-.5-2.78-.25-3.47s.61.58.94,1.19A32.69,32.69,0,0,1,18,111c-.14,1.47-.44,1.61-1.05-.65-.46-1.56-.78-3.17-1.13-4.72ZM20.11,145c-1.23,0-1.4-.28-2.29-3.88-.24-1-.63-2.05-1-3.06-.52-1.48-.66-2.3-.27-2.44s1,.8,1.4,2.3a25.74,25.74,0,0,0,1.28,3.28c.49,1.1,1.05.57,1.26,2.05A2.56,2.56,0,0,1,20.11,145Zm8.78-14.77c-.55.17-1-1.9-1.46-3s-.91-2.51-.42-2.64,1,1.35,1.48,2.74S29.3,130.08,28.89,130.2Zm5.28,80.57c-.68.11-.6-2.14-.69-3-.34-2.37.53-.59.67-1.42.36-.43.66.11.76,1.55C35.07,210.14,34.69,210.69,34.17,210.77ZM35,190.9c-.36.22-.86-.42-1.33-2-.19-.66-.25-1.42,0-1.07.59.7.94-.2,1.63,1.06C35.54,190.35,35.3,190.76,35,190.9Zm6,62.39L40.39,256l-.28,1.12-.15.78c-.1.44-.14.73-.19,1-.17.77-.22,1.62-.59,1.67s-.35-.91-.26-1.71a27.69,27.69,0,0,1,.88-5.14,5.5,5.5,0,0,1,1.43-2.65C41.72,250.83,41.23,252.45,41.05,253.29Zm.88-28.2c.14-.62.25-1.5.39-2.22s.21-1.29.47-1.3.62,1.35.83,2.12c-.48,1.45-1.06,1.53-1.44,3.32C41.84,226.79,41.72,226.05,41.93,225.09ZM44,205.68c-1-.91-1.28-3.38-1.65-5.53-.18-.93-.38-2.82.19-2.19.35.38,1.12,1,1,1.83C43.44,201.64,44,203.87,44,205.68Zm-.53,40.15c-.17-.85.22-2.19,1.2-4.85.3-.76.89-2.33,1.47-3.95.46-1.3.88-2,1.12-1.76s0,1.36-.36,2.43a34.59,34.59,0,0,0-.85,3.75c-.32,1.16.63,1.1-.5,2.69C44.87,245.15,43.73,247,43.5,245.83Zm3.72-39.34c-.58,0-1.5-1.35-1.73-4.19-.1-1.62-.4-3.6-.46-5.13s.12-2.61.87-2.36c1.09.37,1.15,4.31,1.68,6.12C47.78,203.6,48,206.44,47.22,206.49Zm1.3,7.91c.06.86.1,1.8.13,2.74s0,1.86,0,2.68c0,3.39-.66,3.5-1.56,3.62-.61-.05-.7-3.71-.52-5.83s-.08-7.07,1-6.57C48.15,211.29,48.38,212.67,48.52,214.4ZM48,271.18c-.7-.42-1.56-.92-1.32-1.33s1,.07,1.59.45,1.73.71,1.61,1.2S48.76,271.55,48,271.18Zm14,18.56a24.1,24.1,0,0,1-4.79.67c-1.3-.52-4-1-3.68-1.55s1-.51,2.08-.48,2.32.14,3.46.21C60.82,288.73,62.33,289.62,62,289.74Zm1-9.38c-.47.6-2,.52-3.6,0a10,10,0,0,0-1.63-.29c-1.82-.18-3.82-.59-3.77-1.43s2.17-.33,4,0c.77.15,1.59.26,2.32.42C61.72,279.42,63.5,279.72,63,280.36Zm-.59-1.7a2.52,2.52,0,0,1-2.17-.76c-.28-.34-.09-.61.73-.62s2,.08,2.73.12l2.82.32c.81.12,1.5.42,1.2.67C66.73,279.24,64.15,278.54,62.42,278.66Zm8,6.49c-.24.53-.36,1.31-2.21,1.23-2.56,0-4.33-.75-3.85-.93,1-.38,1.49-1.1,3.65-1.11C69.64,284.32,70.62,284.71,70.43,285.15Zm-.65-9c-.65,0-1.48-.08-2.19-.17s-1.34-.29-1.55-.65,1.28-.49,2.1-.38c1.4.2,3.41,0,3.82.68C72.23,276,71,276.2,69.78,276.15ZM90.36,144.2c-.13,1.44-.77,3.16-1.35,3.49a3.33,3.33,0,0,0-.57.45c-.57,0-.66-1.1-.57-2.64a8.52,8.52,0,0,1,.72-3.23c.59-1.18.63,0,.7,1.12a1.89,1.89,0,0,0,.29,1C89.8,144.71,90.52,142.37,90.36,144.2Zm1,90.72c.15,2.42-.51,2.69-1,2.84s-1-1.12-1.11-2.83c-.19-2.25.3-2.48.74-2.49C90.56,233.15,91.2,232,91.39,234.92Zm-5.16-50c-.13,1.54-.21,2.79-.34,4s-.32,2.74-.64,3-.56-1.12-.59-2.48a10.67,10.67,0,0,0-.32-2.23c-.19-.89-.6-2.54.27-2a4.28,4.28,0,0,0,.26-1.22c.25-2.15.56-4.47,1.22-3.68S86.13,183.52,86.23,184.9Zm-.87,55.2c0,.9-.12,1.73-.4,1.68s-.38-1.34-.53-2.18c-.36-2-.64-4-.88-6-.12-1-.25-2.06-.34-3.09l-.21-3.1c-.14-2-.16-4,.5-4.19.28.1.5.51.63,1.62a19.9,19.9,0,0,0,.34,2.7,18.07,18.07,0,0,1,.66,3.22,25.83,25.83,0,0,1,.24,3.14C85.41,236,85.28,238,85.36,240.1Zm-2-45.28c-.05,2.18-.27,4.36-.82,4.35-.7,0-.47-3.08-.58-4.68.13-2,.36-3.56.89-3.52S83.46,193,83.4,194.82Zm-.27-44.75c.12-1.64.39-1.88.69-1.32.52-.26.7.43.36,2.7-.25,1.69-.6,3.3-1,3S83,151.76,83.13,150.07Zm2.22,77.07c-.09-1.44,0-2.51.29-2.67s.57,1,.41,1.79c-.28,1.38.39,3.93-.07,4.21S85.54,228.21,85.35,227.14ZM86,175.65c-.67.74-1.31,0-1.72-1.5a19.22,19.22,0,0,1-.32-6.55l.13-1.24a18.56,18.56,0,0,1,1.8-6.32c.82-1.46,1.66-2,2-.64a13.09,13.09,0,0,1-.06,6.5c-.53,2.33-.59,5.41-1.25,7.64A8.11,8.11,0,0,1,86,175.65Zm-1-23.09a16,16,0,0,1,.7-4.26c.28-.89.42-.34.55,0a9,9,0,0,1,.33,4,33.19,33.19,0,0,1-1.28,6.35C85.14,156.64,85,154.73,85,152.56Zm3.27,2.67a12.64,12.64,0,0,1-1.94,3.06c0,.05-.12-.46-.1-.76a2.5,2.5,0,0,1,.57-1.7c.71-.69,1.3-2,1.6-5.1C88.4,152.4,88.74,153.89,88.22,155.23Zm-8.85,53.59a13,13,0,0,1,.15-3.95c.17-.78.37-.81.56-.31a12.73,12.73,0,0,1,.33,3.67c0,1.12,0,2.24,0,2.67,0,1.52.07,2.36.1,3.19.06,1.81,0,3.77-.49,3.83-.68.08-.43-2.13-.45-3.71C79.57,212.41,79.51,210.55,79.37,208.82Zm8.06,66.48a13.37,13.37,0,0,0-1,1.18c-.32.37-.67.71-1,1.09A8.38,8.38,0,0,1,83,279.29a6.23,6.23,0,0,1-1.58.69,4.68,4.68,0,0,1-1.36.25,8.67,8.67,0,0,1-1.15,0c-.36,0-.7-.13-1-.2-.63-.15-.1-.6.57-.82,2.14-.76,4.06-2,5.84-2.61,1-.38,1.74-.24,2.83-1.79a1,1,0,0,1,.61-.37C88,274.47,87.69,274.91,87.43,275.3Zm.19-3.92h0a15.51,15.51,0,0,0-.57,1.53c-.56,1.22-1.44,2.48-2.25,2.19-.34-.12-.57-.32-.55-.66a1.77,1.77,0,0,1,.23-.62,4.1,4.1,0,0,1,.64-.93,7.66,7.66,0,0,0,.75-1.47c.14-.3.29-.57.43-.81a17.7,17.7,0,0,1,.76-1.66c.24-.41.48-.67.76-.65C88.51,268.39,88.14,270.12,87.62,271.38Zm-.16-6.63c-.35,0-.71.11-1.34.19.37-.67.77-1.07,1-1.68a5.44,5.44,0,0,0,.19-3.05c-.08-.58.18-1,.34-.27a19.41,19.41,0,0,1,.54,4.43C88.14,265.93,87.73,264.71,87.46,264.75Zm1.27-73.65c-.33.14-.62-1.87-.92-2.93a20.08,20.08,0,0,0,.62-3.64,5.74,5.74,0,0,1,.74-2.74c.62-.47.42,2.61.53,4.53C89.47,188.24,89.31,190.85,88.73,191.1Zm.41,65.31a4.55,4.55,0,0,1,.88,2.45c.12,1.09.08,2.09-.25,2.12s-.52-1.05-.67-2.1A4.65,4.65,0,0,1,89.14,256.41Zm2.33,11.73c-.2.87-.38.26-.65,0a.76.76,0,0,0-.42.28c-.34.48-.86,2-.88.3a13.65,13.65,0,0,1,.51-3.14c.35-2,.53.12.77.52a4.29,4.29,0,0,1,.34.57C91.31,267,91.72,266.92,91.47,268.14Zm1.11-53.34c0,.88-.09,2-.4,2s-.31-.92-.41-1.64c-.31-2.54-.27-5.3-.41-7.87.07-1-.11-2.59.24-2.85s.43,1.17.49,2.17A65.2,65.2,0,0,1,92.58,214.8Zm-.32-15.29c-.84.13-.43-3.74-.46-5.76.27-1.5-.06-4.25.66-4.3s.41,2.34.32,4.06v.4C92.65,196,93.14,199.37,92.26,199.51Zm1.79-24.88c-.12,1-.25,2-.56,1.77s-.4-1.64-.33-3,.36-1.64.6-1.38S94.18,173.18,94.05,174.63Zm1-7.54c-.11,1.47-.41,1.73-.72,1.88-.51.25-.52-1-.43-2.39s.34-2,.63-2S95.16,165.52,95.05,167.09Zm-.3-50.92c0,4-1.32,8.49-2,12.81-.58,3.65-1.24,2.4-1.83,3s-.61-.88-.34-2.78a108.94,108.94,0,0,1,1.7-10.92c.61-2.66.68-5.43,1.56-8.14.4-1.29.48-2.88-.14-2.29s-.38-.54-.25-1.6c.25-2,.64-1,1-2s.56-.35.39.76c-.36,2.31,0,2.51.39,3C96.12,109.33,94.75,113.53,94.75,116.17Zm1.57-13.59c.16-.88.36-2.13.69-1.8a15.42,15.42,0,0,1,1.29,1.64c-.72,1.89-1.26,2.37-1.71,2.56S96,104.3,96.32,102.58Zm.57,42.64c-.61.93-.57-1.23-.37-2.43.31-1.81.79-3.53,1.54-6.32-.37,3.49.36,4.33.24,6.1C98.17,145.1,97.36,144.49,96.89,145.22Zm3.89,30.25a62.45,62.45,0,0,0-1.24,10.13c-.06,1.62-.5,3.06-.94,3.21-.61.22-.22-2.11-.35-3.11a49,49,0,0,1,.21-9.48c.37-4.52,1.44-3.52,2.16-4.16C101.14,171.62,100.85,173.67,100.78,175.47Zm.85-55.26c-.23,1.11-.54,1.44-.78,1.34s-.4-1-.07-2.43c.23-1,.48-1.66.75-1.46A3.64,3.64,0,0,1,101.63,120.21Zm2.18,24.38c-.24,1.79-.92,3.67-1.28,3.67-.73,0,0-2.95.13-4.36.16-2.05.3.65.6-.37C103.65,143,104,142.89,103.81,144.59Zm.39-34.7c-.6,3.3-1.54,5.44-2.22,5.14s.23-3.86.44-6c.63-1.89.89-6,1.87-5.46C105,103.91,104.74,106.9,104.2,109.89Zm.24-28.68c.23-1.24,1-3.82,1.61-3.67s1,1,.81,3.44c-.71,2.49-1.38,3.87-1.75,3.29S104,83.59,104.44,81.21ZM107,95.52c-.18,1.07-.43,2.22-.51,3.14-.16,2-1.06,2.11-1.4,2.11-.58,0-.36-2.48-.08-4.14A5.28,5.28,0,0,1,106,94a5.2,5.2,0,0,1,.54-.52,2.36,2.36,0,0,0,.56-.69,4.63,4.63,0,0,1,.13,1.21A15.17,15.17,0,0,1,107,95.52Zm-.29-25.13c-1,.5-1.56,2.21-2,4.59-.23,1.37-.47,2.74-.7,4.11a6.31,6.31,0,0,1-.63,2.29c-1.22.58-2.19,3.93-3.2,5.37-.37.54-.69.41-.87,0a3.63,3.63,0,0,1-.07-2,8.89,8.89,0,0,0,.8-2.76c0-.57-.28-.78-.88-.58-.26.07-.16-.85.1-1.49s.71-1.47,1-1.34.82-.38,1.32-.9,1-1,1.22-.19,1.09-2.09,1.54-3.74q.18-.69.39-1.32c.07-.22.14-.43.2-.63l0-.07s0,0,0,0l-.08,0-.16,0a1.33,1.33,0,0,1-.78-.43c-.21-.36.21-.83,1.49-1.31a4,4,0,0,1,2-.46C107.18,70.22,107,70.3,106.75,70.39Zm2.75,7.44c.34-1.68.55-3.38.88-5A22.19,22.19,0,0,1,112,67.55a6.63,6.63,0,0,0,.54-2.29l.06-.68c0-.09-.07,0-.13,0l-.19,0-.39.06-1.54.23c-1,.13-2,.24-3,.34-1.93.18-3.81.29-5.7.37-3.75.18-7.61.28-11.36.7a12.28,12.28,0,0,1-1.34.07h-.31l-.25,0a3.11,3.11,0,0,1-.44-.06c-.55-.11-.91-.32-.86-.62s.35-.53.84-.73l.4-.14.22-.06.3-.06a10,10,0,0,1,1.4-.15,37.65,37.65,0,0,0,4.58-.74,10.4,10.4,0,0,1,4.61,0,3.34,3.34,0,0,0,1.81.32,27.37,27.37,0,0,1,7.1-.57l3,.1c.49,0,1,0,1.48,0l.77,0c0,.26-.1.55-.14.81-.59,3.67.58,3.43,1.24,4.35-1.36,1.14-2.78,6.3-4.06,9.63-.42,1.1-.86,2.59-1.16,2.39S109.19,79.32,109.5,77.83Zm5.37,6.59c-.35,2-.43,3.5-.6,5.22-.09.86-.2,1.76-.36,2.76-.09.5-.19,1-.31,1.58l-.19.85-.15.54c-.81,2.89-1.25,6-2,9-.36,1.55-.77,3-1.25,3.17s-.58-1.12-.47-2.66a9.56,9.56,0,0,1,.17-1.52c.6-2.45,1-4.94,1.45-7.42l.16-.93.2-1.07.58-2.86c.4-1.9.83-3.8,1.33-5.73.43-1.69.78-3.28,1.21-3.53S115.3,81.94,114.87,84.42Z"/><path class="cls-2" d="M44.66,156.11c2.33,6.33,4.81,12.77,6.39,19.7a15.51,15.51,0,0,1,.42,2c-.08.59-.5-.34-.77-1-.41-1-.78-1.86-1.11-2.86a20.87,20.87,0,0,1-.9-3.51c-.72-4.14-2.67-8.13-4.29-11.78-1.42-3.22-1-3.81-.72-4.54S44.37,155.25,44.66,156.11Z"/><path class="cls-2" d="M76.75,268.72c.25-.09.58-.17.84-.29a6.54,6.54,0,0,1,.74-.33c.35-.2.68-.22.78,0s-.07.53-.46.7a10.1,10.1,0,0,0-1.5.54,4,4,0,0,1-1.63.47c-.44,0-1,.14-1.58.18s-1,0-.91-.17.49-.49,1-.62a5,5,0,0,1,.83-.21l.85-.13A6,6,0,0,0,76.75,268.72Z"/><path class="cls-2" d="M53.67,267.51a10.28,10.28,0,0,1-1.55-.46c-.69-.25-1.44-.5-1.65-1a.28.28,0,0,1,.2-.38,1.57,1.57,0,0,1,.89.19c.29.14.64.31.95.49a5.78,5.78,0,0,0,1.12.52c1,.41,3.16.56,3,1.15S54.39,267.53,53.67,267.51Z"/><path class="cls-2" d="M46.57,262.37c-.91-.34-.27-1.11,0-3.67,0-.32.23-.57.37-.44a1.1,1.1,0,0,1,.16,1.17,16,16,0,0,1-.54,1.72C46.29,261.78,46.25,262.08,46.57,262.37Z"/><path class="cls-2" d="M81.32,149.38c-.66,2.8-1.38,3.18-1.95,3.74s-.14-2.11-.11-3.42c0-.48.29-1.42.3-1.11C79.6,152.36,81.05,146.92,81.32,149.38Z"/><path class="cls-2" d="M94.47,87.31c-.12-.61.44-1.72-.2-1.76-.2,0-.13-.39.08-.64s.26-.31.39-.45a2.87,2.87,0,0,1,.4-.31c.25-.17.31.06.18.42A12,12,0,0,1,94.47,87.31Z"/><path class="cls-2" d="M91.23,99.71,93,91.57A25.67,25.67,0,0,1,91.23,99.71Z"/><path class="cls-2" d="M77,76.87c-.92-.31-2-.6-2.83-1-.29-.12.33-.29.82-.3,1.52,0,2.74.09,3.06.63C78.21,76.47,78.09,76.71,77,76.87Z"/></g><path d="M51.69,10.74c-.11.79.69,2.94-1.18.55-1.52-1.95-4-1.27-5.1.93a.79.79,0,0,1-.35.25c-.36-.47.09-.79.24-1.15a7.72,7.72,0,0,1,.58-1.05c-.53,0-1.2-.11-1.55.17A3.79,3.79,0,0,0,43,12.26c-.2.68.79.57,1.15,1l.49.52a1.34,1.34,0,0,1-.31.09c-.48,0-1.22-1-1.3-.24-.13,1.16.06,2.61,1.62,3a2.77,2.77,0,0,0,.3,0c1,.2,2-.1,2.88.69l-2.57-.12c-.12,0-.32-.05-.36,0-.85,1.43-1.05-.37-1.69-.41-2.68-.19-5.3-.55-7.34,1.85-.22.26-.7.27-1.06.4a8,8,0,0,1,1.14-1.51c1-.82,2.91-.8,2.65-2.79-.22-1.72-1.63-2.38-3-3a2.59,2.59,0,0,0-.55-.13,2.85,2.85,0,0,0,.32.54,3.9,3.9,0,0,1,1.37,3.67,1.6,1.6,0,0,1-.21.41c-.08-.17-.25-.34-.24-.5a4.3,4.3,0,0,0-2.94-4.24c-1.45-.64-2.92.12-3.93,1.5-.06.08-.2.1-.3.15-.05-.13-.17-.27-.14-.38.12-.5.24-1,.79-1.2s.87-.42,1.31-.63c0,0-.12-.13-.15-.12a9.74,9.74,0,0,0-1.81.55,11,11,0,0,0-1.41,1.08.52.52,0,0,1-.37-.23c-.06-.33-.23-.84.25-.89,2.22-.24,2.89-3.23,5.33-3.14.35,0,0-.36-.15-.42-2-.7-4-1.13-5.87.54-.15.14-.34.25-.51.38a6.55,6.55,0,0,1-.15-1.38c0-.41,0-.68-.42-.72-4.38-.49-8.8-1.71-13,.75a5.38,5.38,0,0,0-1,.94L13,8a21.58,21.58,0,0,1,9.72-.44,2.29,2.29,0,0,1,1,.87c.11.13.19.72-.38.47-.22-.09-.37-.36-.59-.44C20,7.41,10.79,8.26,8.43,11.72a16.27,16.27,0,0,1-1.86,2.61c-.05.05-.25,0-.25,0a2.83,2.83,0,0,1-.07-.95c.68-2.94,3.11-4.28,5.18-5.91C15.43,4.35,20,5,24.58,5.41a10,10,0,0,0,3.36-.47c3.31-.89,5.67,1.86,8.56,2.27,3.74.54,7.69,1.83,11.25-.88a5.68,5.68,0,0,1,2.86-.91c4.55-.48,9.12-2.63,13.74-.3A1.23,1.23,0,0,0,65.27,5c1.58-.83,3.14-1.68,5-1.5a9.86,9.86,0,0,0,1.33-.05c-.31.08-.61.15-.91.25-.07,0-.16.21-.16.21s.31.33.47.34c4.32.19,7.87,3.05,12,3.76,3.67.63,7.73,1.43,10.73-1.34,2.75-2.54,5.73-2.28,8.75-2,1.7.14,3,.8,4.71-.65,2-1.69,4.51-.2,6.79.5,3.52,1.08,4.79,4.16,6.78,6.87,2.32,3.18.26,6.28,1,9.43,2.32,10,1.69,20.36.26,30.37-1.13,7.9-.06,15.67-.68,23.47a212.61,212.61,0,0,1-3.41,23.85c-.92,4.73-1.42,9.56-2.53,14.23-1.59,6.69-3.68,13.26-5.34,19.93-1.88,7.51-4.08,15-5.34,22.61q-1.14,7-2.27,14a1,1,0,0,1-.2.35,4.91,4.91,0,0,1,0-.55c0-.74.08-1.48.12-2.22a16,16,0,0,0-.54,2c-.41,2.72-.86,5.44-1.14,8.17-1.28,12.56-2.94,25.09-2.78,37.77.1,7.5-.27,15,.34,22.49.32,4.05.63,8.2.68,12.31a3.72,3.72,0,0,0,.14.74,2.53,2.53,0,0,1,.24-.53c.07-.1.22-.15.33-.23.12.21.36.44.34.63-.42,3.45.7,6.71,1.14,10.05a1.73,1.73,0,0,1-.11.52c-.11-.16-.28-.3-.32-.47-.21-.76-.39-1.53-.57-2.29-.11-.49-.21-1-.31-1.48a7.72,7.72,0,0,0-.13,1.58A70.58,70.58,0,0,0,103.3,274c1,2.8,1,6,2.63,8.56,0,.05-.09.19-.14.29-.23-.34-.47-.68-.67-1a8.87,8.87,0,0,1-.39-.89,7.3,7.3,0,0,0-.08.92c.2,5.14-4.36,10.68-9.39,11.4a2.06,2.06,0,0,1-.42,0c.27-.18.54-.38.82-.53.45-.23.91-.42,1.36-.63a10.11,10.11,0,0,0-1.45.2c-3.62.95-7.34,1-11,1.48a5.45,5.45,0,0,0-1,.36,4.75,4.75,0,0,0,1,.11c2.56-.32,5.12-.69,7.68-1,.24,0,.5.15.75.24-.18.13-.36.37-.55.39-12.72,1.24-25.33,3.74-38.17,3.63a50.68,50.68,0,0,1-13.13-2.35c-4.22-1.18-8.55-1.94-12.84-2.85-.79-.16-.55.92-1.07,1.15a1.92,1.92,0,0,0,.29.61c3,2.71,6.73,2.81,10.38,3.26,2.84.35,5.68.67,8.52,1a1.07,1.07,0,0,1,.19.09c-.08,0-.16.09-.23.08-6.24-.47-12.58-.45-18.45-3.16a4.5,4.5,0,0,1-2.34-2.92c-.57-2-2.59-2.75-3.82-4.2a3,3,0,0,1-1-1.59,84.72,84.72,0,0,1-.39-13c.19-4.28,2.13-8,3.56-11.86,1.13-3.07,1.5-6.42,2.29-9.62.51-2.08,1.18-4.13,1.74-6.2a1.85,1.85,0,0,0-.06-1.09c-.57-.12-.43.48-.54.78-.53,1.43-1,2.87-1.5,4.31.23-1.6.42-3.21.69-4.81.53-3.14,1.11-6.28,1.65-9.41a4.83,4.83,0,0,0,0-.76c-.08.23-.15.47-.24.7-.18.48-.37,1-.56,1.43a8.27,8.27,0,0,1,0-1.57c2.12-12,.94-24,0-36-.14-1.8-.36-3.6-.55-5.4a3.22,3.22,0,0,0-.16-.5c0,.05-.1.08-.12.13-.13.29-.25.59-.38.89a7.64,7.64,0,0,1,0-1.17c.33-2.69-.29-5.3-.6-7.92a115.46,115.46,0,0,0-4.39-22.28C20,159.2,18.21,155.45,17,151.51c-1.31-4.18-2.23-8.49-3.34-12.73-.12-.45-.63-.9-.57-1.27.73-4.06-1-7.85-1.15-11.81a.17.17,0,0,0,0-.07l-.75-2.2c-.43.72.08,1.41.07,2.11,0,.24,0,.48,0,.72a5.38,5.38,0,0,1-.2-.65c-.93-5.91-1.91-11.81-2.87-17.7-1.51-9.31-2.28-18.7-3.78-28-.5-3.12-1.05-6.22-1.56-9.34,0-.11.08-.25.13-.37.13.12.34.23.37.37.22,1,.38,2,.62,2.91.06.23.37.4.57.59a2.25,2.25,0,0,0,.09-.67C3.64,67.75,4,62,3.68,56.36S2.53,44.89,2,39.15A4.52,4.52,0,0,1,2.11,38l.85.36c-.21.23-.62.47-.6.67.15,1.78.38,3.55.6,5.32,0,.11.17.2.26.31,0-.23.1-.45.14-.68l.18-1.13c.11.3.23.6.33.9.28.82.55,1.63.82,2.45.56-.76.09-1.58,0-2.34-.37-6.86-.31-13.71,0-20.57a2.88,2.88,0,0,0-.12-.64c-.12.22-.27.44-.37.67S4,23.91,4,24.2a4.82,4.82,0,0,1,0-.93c.32-2.34.65-4.67,1-7,.06-.37.41-.65.59-.31.54,1,.94,2.07,1.39,3.12.11.29-.3.82.25.89.82.1,1.66.07,2.49.1a4,4,0,0,0-.4-.5C8,18.45,6.66,17.37,8.9,15.9c.43-.28.44,0,.49.3a3.91,3.91,0,0,0,.23,1.11c.28.58.59,1.2,1.32,1.33a14.11,14.11,0,0,1-.32-1.4,3,3,0,0,1,0-1.34,4.31,4.31,0,0,1,.87-1.06,4.32,4.32,0,0,0-.3.9,4.28,4.28,0,0,0,0,1.43c.16.63.35,1.31,1.13,1.47-.19-.39-.4-.78-.56-1.19-.38-1,.22-1.82.49-2.7,0-.09.19-.13.29-.19.05.13.16.25.16.38a11.39,11.39,0,0,0,.07,1.44A1.82,1.82,0,0,0,14,17.68c-.13-.38-.27-.75-.36-1.13-.16-.66-.5-1.65.12-1.9.94-.37.21.64.44,1a4.9,4.9,0,0,0,4.74,2.19,8,8,0,0,1,3.88.39c.09,0,.33,0,.34-.08.51-2.39-3.9-7.06-6.24-6.58a2.92,2.92,0,0,0-1.22.79c-.21.19-.12.87-.61.58s-.27-.77,0-1.14c.77-1.08,2.06-1.25,3.1-1.86.11-.07.21-.17.32-.25a1.31,1.31,0,0,0-.38-.18c-2.78-.23-5.33.27-7.3,2.53a1.16,1.16,0,0,1-.4.2,1.05,1.05,0,0,1,.31-1.17A8.1,8.1,0,0,1,17,8.68a15.32,15.32,0,0,1,5.42.7c.31.11.61.28.91.42-.36,0-.71,0-1.07.06l-1,0c.27.13.53.27.81.38a5.28,5.28,0,0,1,2.85,2.33,3,3,0,0,1,.19.53,1.87,1.87,0,0,1-.48-.27,7.29,7.29,0,0,0-5.44-2.4,2.28,2.28,0,0,0-.69.21c.17.15.32.37.51.45a5.65,5.65,0,0,1,3.36,3.27c.09.23.39.36.59.54a3.58,3.58,0,0,1,.29-.46c.24-.23.51-.43.76-.65a6.46,6.46,0,0,0-.18.76c-.25,2.28,1.89,1.33,2.74,2.12a4,4,0,0,0,.8.41,3.86,3.86,0,0,1-.9,0c-.79-.21-1.56-.48-2.35-.7a3.65,3.65,0,0,0-.81-.08,2.5,2.5,0,0,0,.09,1,5.41,5.41,0,0,0,4.7,3.24,2.59,2.59,0,0,1,.59.16,2.49,2.49,0,0,1-.63.28,3.17,3.17,0,0,1-1.11,0c-3-.8-1.8,1.55-1.76,2.71.05,1.54,0,3.49.88,4.49s-.38,3.56,2.14,3.31c.06,0,.24.35.22.38-1.37,1.45.35,1.69.91,2.16,1.23,1.05,2.75.81,4.21.55,0,0,.07-.11.11-.16l-.33-.15c-1.83-.56-2.53-2-2.66-3.79,0-.2.17-.41.26-.61.1.17.29.35.29.52a3,3,0,0,0,2.53,3.29c1.53.32,2.14-1.09,3.12-1.93S38,29.81,38.68,29c.1-.12.32-.14.48-.21a4.57,4.57,0,0,1,0,.52c0,.05-.06.08-.07.13l-.66,2.3c.08,0,.2,0,.25-.08.72-1,1.65-1.81,1.82-3.08a4.63,4.63,0,0,0-.3-1.56c-.08-.33-.18-.65-.28-1a9.71,9.71,0,0,1-.87.54,5,5,0,0,1-.77.26,5,5,0,0,1,.48-.54c1.82-1.52.46-3.15.17-4.74-.07-.42-.08-.86-.12-1.28.66,0,.66.6.83,1s.43.72.84.22A4.67,4.67,0,0,1,46.17,20a8,8,0,0,0,2.83.4c1.17,0,3.36.86,2-2-.24-.53.05-1.19.6-1.15.81.05,1.79-.62,2.43.26a8.05,8.05,0,0,0,4.14,2.69c1.37.53,2.69.23,4,.74s3-.13,4.41-.6a3.3,3.3,0,0,1,.71-.05,3.57,3.57,0,0,1-.55.41c-2.22,1.06-4.71.52-7,1.19a7.71,7.71,0,0,1-5.37-.44c-2.69-1.06-5.62.17-8.31-.49-1.65-.41-3-.73-4.38.4a4.21,4.21,0,0,0-.65,1,6.41,6.41,0,0,0,.88-.11c2.48-.53,5.24-1.93,7.45-.68,3,1.72,6.05,1,9.06,1.19,6,.32,11.73-1.51,17.64-1.91,2.88-.2,5.72-2.19,8.6-.1C86.19,21.88,87.57,23,87.89,25c.26,1.66,4.13,3.12,6,3,3.89-.34,4.69-3.65,6.69-6.07a13.86,13.86,0,0,1,7-4.62c1.21-.3,2.92,1.23,4,.83,1.6-.58,3.18,1,4.54-.32.34-.33,1-.77.64-1.3s-.93,0-1.41.16l-.84.22a2.64,2.64,0,0,0,.11-.53c0-.47.3-.52.62-.6.7-.19,1.59,0,2-.94,0-.07.39-.12.44-.05a.93.93,0,0,1,.2.58c0,.35-.25.89.32.89s.24-.56.27-.87c.11-1.17.19-2.34.26-3.52.14-2.09-.91-3.1-2.85-3.39-.69-.1-1.3-1.45-1.92-.73-1.79,2.05-3.32.51-5-.08-.91-.32-1.85-.56-2.77-.87-.41-.13-.69-.17-.79.41a.74.74,0,0,1-.54.49c-.39,0-.29-.28-.19-.54a.76.76,0,0,0,0-.28c-1.76,1-3.71-.64-5.46.41-.06,0-.09.14-.14.21a3.49,3.49,0,0,0,.39.19c1.53.61,3.08,1.21,4.6,1.86.2.08.3.42.45.63a2.36,2.36,0,0,1-.64-.19,22.93,22.93,0,0,0-5.67-2c-.14,0-.31.07-.47.11,1.87,1.47-1.44.55-.66,1.52l-.3.1c-.57-1.47-1.13-.41-1.57,0-.75.79-1.49,1.65-.66,2.87.09.14,0,.39.06.59-.19-.1-.44-.15-.55-.3a2.36,2.36,0,0,1-.46-2.27c.17-.58,1.45-1.13.35-1.77a3.23,3.23,0,0,0-2.76.25c-.1.05-.18.25-.26.24-.52-.06-1-.64-1.55-.09.65.37,1.29.74,2,1.1.41.22,1,.2,1.11.83a7.67,7.67,0,0,1-1.28-.42,10.56,10.56,0,0,0-5.69-1.45,4.18,4.18,0,0,0-.68.16c.15.18.29.37.43.55.61.77,1.64,1.15,1.92,2.22-.66-.49-1.35-1-2-1.49-1.8-1.49-2.93-1-3.54,1.2a.42.42,0,0,1,0,.14c-.12,0-.34-.05-.35-.09-.09-1.2-1-2-1.47-2.93A1,1,0,0,1,81,9.58c.25.34.52.66.78,1,.18-.35.51-.7.52-1.05,0-.58-.59-.69-1-.84-1.36-.45-2.74-1.71-4.09,0,0,0-.17,0-.25,0,.08-.31.08-.78.27-.89,1.35-.79.22-.92-.28-1.2A7.39,7.39,0,0,0,75.77,6c-.6-.19-1.22-.33-1.83-.5.33.44.67.86,1,1.31a1,1,0,0,1,.08.41A3.18,3.18,0,0,1,74.52,7c-2.65-2.45-5.61-2.68-8.75-1.27a2.21,2.21,0,0,0-1,1.94c0,.35-.07.7-.11,1-.3-.46-1.07-.45-1-1.29.06-1.06-.44-1.19-1.23-.59s-1.48,1-2.22,1.57c.79.54,1.58,1.08,2.38,1.61s1.75,1.13,2.59,1.75c.17.13.15.52.22.8a3.75,3.75,0,0,1-.65-.2c-3.1-1.76-5.87-4.17-9.36-5.14a11,11,0,0,0-6.87.39c-1.22.5-2.48-.55-3.37.6a1.83,1.83,0,0,1-.46.3,1.66,1.66,0,0,0,.52.13c5.13-.52,10,1.73,15,1.78.11,0,.21.16.32.25a2.19,2.19,0,0,1-.36,0l-5.19-.38a5.07,5.07,0,0,0-.68,0c.09.2.2.39.28.58.26.61.74,1.49.27,1.82s-.22-.67-.53-1c-.73-.8-1.4-1.58-2.59-1,0-.17,0-.35,0-.52.06-.64-.5-.63-.84-.76a4.9,4.9,0,0,0-1.21-.16c0,.11-.06.29,0,.32C50.32,10,51,10.38,51.69,10.74ZM34.61,260a5,5,0,0,0-.17-1c-.33-.89-1.23-1-1.91-1.4a.62.62,0,0,0-.12.19c.68.81,1,2,2.22,2.23a2.84,2.84,0,0,0,1.51,2,4,4,0,0,0,.59.16,7.31,7.31,0,0,1-.52.59c-.17.17-.55.39-.52.46.11.31.28.74.54.83,2,.74,4,1.67,6.28,1.13a1.62,1.62,0,0,1,.53,0c-.06.12-.1.33-.18.35-1.27.3-2.48,1-3.86.37a6.17,6.17,0,0,0-1.63-.26,11.08,11.08,0,0,0,1.17,1.11,20.32,20.32,0,0,1,1.74,1.08,16.73,16.73,0,0,0,9.19,4c.6.07,1.21,0,1.82,0a3.17,3.17,0,0,1-2.14.29c-.33,0-.66,0-1,0l1,.37,1,.34a4.67,4.67,0,0,1-1,.05L39,271.15a5.7,5.7,0,0,0-.72,0c.05.19.05.44.17.56,2.05,2.08,3.69,4.92,7.33,4,.52-.13,1.17.3,1.76.47l-1.48.17a17,17,0,0,1-7.11-.78,2.28,2.28,0,0,0-.64,0,4.83,4.83,0,0,0,.38.4,22,22,0,0,0,8.14,3.87c4.55,1.24,9.21,1,13.84.4.32,0,.63-.12,1-.17l-.71-.33a1.3,1.3,0,0,1-.23-.18,3.66,3.66,0,0,1,.57,0q6,.06,12,.15c.34,0,.69,0,1,.05l-.63.32s0,.08-.06.12a3,3,0,0,0,.42,0,67.82,67.82,0,0,1,7.87-.85c4.09,0,8-1.22,11.94-1.83a5,5,0,0,0,4-6.91c-.23-.65-.55-.25-.75,0-2.58,3.25-5.4,5.68-10,5.1-2.45-.32-5,.66-7.46-.5a2.33,2.33,0,0,1-.46-.43c.14-.07.32-.24.41-.2,2.54,1,5.09.69,7.69.24,3.23-.55,6.58-.71,8.24-4.37.28-.63.57-1.27,1.5-.78.4.21.71-.07.63-.61-.17-1.18-.34-2.37-.53-3.55a2.28,2.28,0,0,0-.27-.57,2.62,2.62,0,0,0-.35.54,14.33,14.33,0,0,1-6,7.06c-.56.35-1.5,1.22-1.8.34s.72-.15,1.13-.34c4-1.92,7.09-8.12,6.44-12.64-.24-1.73-1.49-3.48-.33-5.34.09-.15-.14-.5-.22-.76a2,2,0,0,0-.35.2,3.4,3.4,0,0,0-.32.34,3.8,3.8,0,0,1-.06-.59c.21-3.62.47-7.24.62-10.87.07-1.73-.2-3.43-.11-5.2.54-9.61-.65-19.25.47-28.87.38-3.25-.26-6.64.22-9.86a92,92,0,0,0,1.36-16.4,28.19,28.19,0,0,1,.29-3.65,2.55,2.55,0,0,1,.27-.67,3.23,3.23,0,0,1,.15.67c0,.89-.12,1.78-.16,2.67a5.65,5.65,0,0,0,.05.71,5.19,5.19,0,0,0,.17-.65,41.2,41.2,0,0,1,.92-6.54c1.39-4.52,1.7-9.28,3.22-13.76.56-1.64.12-3.61.5-5.34.7-3.24,1.44-6.49,2.12-9.72s1.28-6.27,2.2-9.26c2.86-9.31,5.47-18.66,6.49-28.41a1.39,1.39,0,0,0-.11-.48c-.08,0-.2,0-.24.11-.2.28-.38.58-.57.87a5.62,5.62,0,0,1,0-1.42c.13-.52.59-1,.67-1.5a101.59,101.59,0,0,1,2.56-11.64c1.39-5,1.56-10.24,2.59-15.35.83-4.12-.25-8.52.07-12.83.17-2.33-.61-4.73-1-7.1-.09-.62-.44-.7-1-.65L104,59.82c-.22,0-.44,0-.66,0l.27-.18c.22-.15.45-.29.68-.43a4.05,4.05,0,0,0-.84-.12c-5.82.6-11.71.11-17.5,1.26a25.81,25.81,0,0,1-4.9.13c-.79,0-1,.27-1,1.09.23,3.87.39,7.74.57,11.62a2.3,2.3,0,0,1-.17.59,1.07,1.07,0,0,1-.11-.33c-.25-3.41-.67-6.82-.67-10.23,0-2.26-.75-2.79-2.82-2.74-9.15.22-18.29,1.2-27.45.73-.68,0-1.36-.13-2-.2l2-.2c.54,0,1.09-.06,1.63-.12a2.79,2.79,0,0,0,.66-.25,3.48,3.48,0,0,0-.64-.14c-1,0-2,0-3-.1a2.41,2.41,0,0,1-.66-.21,2.78,2.78,0,0,1,.71-.19c2.44.12,4.88.27,7.32.41a1.56,1.56,0,0,0,.42-.08l-.35-.2-.49-.25a1.63,1.63,0,0,1,.59-.16c1.76.15,3.33,1,5.2,1,2.16,0,4.23-.52,6.39-.52,7.32,0,14.65-.55,22-.9a2.83,2.83,0,0,0,.71-.24,2.28,2.28,0,0,0-.73-.2c-4.75.23-9.49.49-14.24.73a2.52,2.52,0,0,1-.73-.18,4.34,4.34,0,0,1,.69-.17c5-.53,10-1,15-1.57,4.11-.49,8.21-1.12,12.3-1.71,4.43-.63,8.84-1.39,13.25-2.08a2.54,2.54,0,0,0,.52-.2,2.59,2.59,0,0,0-.53-.1l-6.23.34a3.31,3.31,0,0,1-.54-.06,2.72,2.72,0,0,1,.53-.17c3.09-.39,6.17-.77,9.26-1.13.42,0,1-.18,1.1.56a7.11,7.11,0,0,0,.52,1.29c.1-.53.21-1.06.31-1.59s.16-1,.24-1.55c.91-5.9-.2-11.85.66-17.8.66-4.58-.73-9.2-1.63-13.75-.22-1.16-.83-1.05-1.43-.27A4.46,4.46,0,0,1,113.82,21a19.59,19.59,0,0,0-4.12,0c-.37,0-1,.55-1.07,0s.66-.44,1.05-.58a2.24,2.24,0,0,1,.44-.07c.56-.1.58-.13.29-.39-1.68-1.51-2.58.16-2.88,1.16a9.81,9.81,0,0,1-6.06,6.67,32.54,32.54,0,0,1-7.33,1.53c-2.58.4-7.24-2-8.15-3.55a7.55,7.55,0,0,0-6-4.07,61.73,61.73,0,0,0-9.78.52c-9.38.89-18.71,3.1-28.21,1.34-.24-.05-.75-.2-.58.33.84,2.65,0,4.9-1,7.38-1.34,3.26-6.35,5.42-9.68,4.58-5.53-1.39-5.88-6.45-7.92-10.35a3,3,0,0,1-.21-2.87c1.08-1.71-.39-2.56-1-3.67-.34-.63-1-.09-1.46,0a4.37,4.37,0,0,1-2.1.15,1.93,1.93,0,0,0-2.55.82c-.05.08-.09.16-.13.24.59.13,1.2.22,1.78.41a5.25,5.25,0,0,1,1,.57,4,4,0,0,1-1,.26c-1.31,0-2.63,0-3.94-.12-2-.19-4,.3-6-.53a4.45,4.45,0,0,1-.48-.26,3.93,3.93,0,0,0-.2.54c-1.21,6.83-.3,13.75-.83,20.62-.2,2.67-.73,5.51.71,8.19A6.2,6.2,0,0,1,6.6,53.2c-.29,2.45-.11,3.77,3,4.54,7.59,1.92,15.41.53,23,2.38,3.18.78,6.61.52,9.92.73a2,2,0,0,1,.42.13,1.8,1.8,0,0,1-.45.09l-7.49-.21a2.56,2.56,0,0,0-.54.1,3.87,3.87,0,0,0,.56.15,58.29,58.29,0,0,0,14.15.49,3.73,3.73,0,0,1,.57,0s0,.14-.08.15c-.27.1-.55.18-.82.27.46,0,.92,0,1.38.1a4.79,4.79,0,0,1,.72.19c-.22.1-.45.29-.66.27-3.16-.29-6.31.24-9.5-.07-7.72-.73-15.52.55-23.24-1.42-3-.75-6.15-.93-9.21-1.53-.74-.15-.77.87-1.27.5-.23-.17-.21-.73-.3-1.11-.07.7-.16,1.4-.21,2.11a6.84,6.84,0,0,0,0,1c.08,1.56-1.2,3.35.83,4.64.27.17,0,1.33-.12,2,0,.07-.34.2-.42.14-1.63-1-.71.57-.79.89-.25,1,.17,2,.09,3.13a43.35,43.35,0,0,0,.51,7.16q1,10.45,2,20.9a19.84,19.84,0,0,0,.35,2.8c.81,3.21,1.78,6.39,2.54,9.61.49,2,.72,4.17,1.07,6.25l.21,1.25c-.14-.24-.27-.48-.4-.72-.07.14-.23.3-.21.42.62,2.87,1.25,5.75,1.89,8.62,0,.16.24.29.36.43a1.71,1.71,0,0,0,.07-.54c-.2-1.06-.42-2.1-.62-3.16-.16-.84-.29-1.69-.44-2.54.21.8.43,1.6.64,2.41.1.39.22.79.29,1.19,1.14,6,2.26,11.94,3.42,17.91.38,1.94.85,3.86,1.33,5.78,1.1,4.45,2.24,8.88,3.36,13.32a1.38,1.38,0,0,0,.14.27.93.93,0,0,0,.05-.32c-.44-1.62-.9-3.24-1.32-4.87a1.67,1.67,0,0,1,.12-.67c.15.16.39.29.45.49.85,2.83,1.68,5.67,2.51,8.51.13.44.23.88.35,1.33l-.48-1.34a4.3,4.3,0,0,0-.29-.78c-.44-.75-.77-.18-.66.19,1.62,5.91,2.18,12,3.67,18,.52,2.09.25,4.45,2.2,6.3.9.86.49,3.16.71,4.8.94,7.1,1.58,14.22,1.86,21.38l.09,2a16,16,0,0,0-.39-2,6.25,6.25,0,0,0-.72-1.17,6.4,6.4,0,0,1-.13,1.26c-.49,1.53.74,2.72.68,4.21-.12,3.41,0,6.83,0,10.24a.87.87,0,0,0,.57.91c2.51,1.4,5.22,1.53,8,1.56a6,6,0,0,1,.91.16,4.19,4.19,0,0,1-.9.21c-1.28,0-2.56-.08-3.84,0-.48,0-1.2-.45-1.42.49a2.92,2.92,0,0,1-.18.46c0-.19,0-.37-.08-.55-.36-1.44-1.86-.73-2.62-1.43,0,0-.41.17-.41.21.4,1.9-.63,3.53-.88,5.27-.46,3.16-.4,6.4-.56,9.6,0,.26-.09.52-.13.77,0-.24-.09-.48-.11-.73-.09-.74-.17-1.49-.26-2.24-.19.52-.38,1-.6,1.55-.06.12-.3.14-.35.26a3,3,0,0,0,.48,2.88c.52.91.48-.29.81-.31s.57.12.45.47c-.94,3,.92,4.35,2.93,5.66a6.78,6.78,0,0,0,1.18.48,1.53,1.53,0,0,0-.8-1.41c-.34-.19-1.06-.35-.71-.9s1.11-.18,1.41.12c2.55,2.54,5.78,2.59,9,2.77.24,0,.49,0,.73.07a4.13,4.13,0,0,1-.75.39c-2.69.67-5.14-.23-7.58-1.21-.27-.11-.58-.53-.8,0s.1.77.51,1c1.83.8,3.69,1.53,5.49,2.42.55.28.71-.57.89-.26.46.78,1.21.8,1.89,1.06.84.33,1.9,0,2.54.91-1,.48-1.78-.26-2.68-.29l-.77,0a3.71,3.71,0,0,0,.44.65c.86.8,1.75,1.57,2.61,2.37a1.54,1.54,0,0,1,.22.52c-.15-.1-.28-.2-.43-.29-2.07-1.19-3.26-3.57-5.66-4.37-.75-.25-.66.28-.91.55-.26-1.66-1.89-1.4-2.83-2.11C35.3,258.79,34.65,258.66,34.61,260ZM71,283.46v-.21l1.62.13-1.52.11c-6.65.42-13.27-.59-20,0-8.08.71-15.51-2-22.41-6.29-.89-.54-2.13-1.54-1.56.67.28,1.13-.15,2.14.13,3.12a6.59,6.59,0,0,0,1.35,2.25c1.16,1.42,2.3,2.91,4.08,3.55.41.15.93-.09,1.37,0,.17,0,.24.51.36.78-.64,0-1.38.19-1.89-.08a18.76,18.76,0,0,1-5-3.41c-.07-.07-.15-.12-.22-.18a1.92,1.92,0,0,0-.09.4c0,1.79,1.13,3.42.69,5.28,0,.1.22.34.39.4a60.14,60.14,0,0,0,14,3.19,1.71,1.71,0,0,0,.6-.15,4.14,4.14,0,0,1-.55-.29,5.79,5.79,0,0,1-.61-.5.43.43,0,0,1,.1-.24,2.86,2.86,0,0,1,.93.09,10,10,0,0,0,2,.89,93.92,93.92,0,0,0,10.51,1.29c9.28.27,18.52-.66,27.77-1.11a22,22,0,0,0,7.71-1.4c.53-.23.91-.85,1.36-1.29-1.21-1,1.12-1.59.22-2.52q3.23-2.85,6.46-5.68c.14-.13.44-.06.67-.09a1.86,1.86,0,0,1-.28.62c-1,1-2.14,1.89-3.2,2.84a2.2,2.2,0,0,0-.32.51,1.93,1.93,0,0,0,.53-.17,16.64,16.64,0,0,0,4.41-4.1,3.27,3.27,0,0,0,.52-2.61c0-.12-.3-.36-.37-.33-1,.46-2.7.8-2.83,1.47-.6,3.11-3,4.52-5,6.45a1.07,1.07,0,0,1-.33.12,1.69,1.69,0,0,1,.23-.34,16.53,16.53,0,0,0,3.84-4.79,5.72,5.72,0,0,0,.25-1.46c-.43,0-.87,0-1.3,0-1.38.1-2.77.18-4.15.33-4.07.47-8.14,1-12.21,1.46a1.71,1.71,0,0,1-.6-.15c.11,0,.21-.09.32-.11,1.94-.22,3.89-.42,5.83-.65a4.86,4.86,0,0,0,.8-.24,3,3,0,0,0-.85-.22c-3.47.06-6.93,0-10.39.27a94.85,94.85,0,0,0-13.13,1.34,2.62,2.62,0,0,0-.46.19,1.16,1.16,0,0,0,.4.2Zm-45.5-19.53.13,0a4.79,4.79,0,0,0-.23-.83c-.47.05-.5.44-.52.85-.07,1.27-.08,1.27.74,1.19a.27.27,0,0,1,.17.19c0,2.76,2.44,3.47,4,4.8a20.8,20.8,0,0,0,5.29,3.05c1.77.74,3.44,1.78,5.37,2.13a2,2,0,0,0,.49,0c0-.11,0-.27-.12-.33-2.11-1.46-3.12-4.23-5.93-5-1.4-.36-2.6-1.51-3.89-2.32-.26-.17-.53-.48-.19-.72a1,1,0,0,1,.9.09c.5.37.85,1,1.38,1.28.94.51,1.81,1.27,3,1.25-.33-.73-.66-1.46-1-2.19a.59.59,0,0,1,0-.23c.11-1.95-.23-3.63-2.12-4.69-.46-.26-1.79-.52-1.19-1.32s.95.69,1.59.87a7.7,7.7,0,0,1,1.37.7,2.37,2.37,0,0,0-.65-2.15c-.93-.89-1.9-1.74-2.76-2.68-2.83-3.08-2.83-3.1-4.66.8a14.79,14.79,0,0,0-.58,1.74c.3-.41.59-.83.9-1.23A.73.73,0,0,1,28,259a.58.58,0,0,1,.08.4c-1.92.9-1.74,2.87-2.18,4.52-.07.27-.17.54-.25.8C25.6,264.44,25.52,264.18,25.45,263.93Zm10.88,14.46,1-.47c-.33-.19-.64-.41-1-.58a8.71,8.71,0,0,0-.89-.36c.05-.07.1-.21.14-.21a4,4,0,0,1,1,.16c1.85.7,3.69,1.44,5.54,2.15a1.71,1.71,0,0,0,.51,0,3,3,0,0,0-.38-.33q-5-3.14-10.05-6.26a4.63,4.63,0,0,0-.83-.33l.55.75c.13.17.25.35.37.53a2.33,2.33,0,0,1-.52-.27L26.4,268a1.55,1.55,0,0,0-.36-.19,2.9,2.9,0,0,0-.14.48c-.24,2.31,2,3.68,2.14,5.92.05.71,1.15,1.42,1.87,2s1.43,1,1.66,1.93c.85-.58,1.61.09,2.41.18a4.12,4.12,0,0,0,.61,0,2.63,2.63,0,0,0-.47-.42,6.75,6.75,0,0,1-3.59-3.15,2.32,2.32,0,0,1,0-.84c.19.2.44.36.54.59C32,276.93,34.48,277.19,36.33,278.39ZM29,219.79c.05.4.14,1.05.22,1.69.7-.21.73-.87.7-1.4-.06-1.13.19-2.25.23-3.33.32-8.42.07-16.81-1.93-25.05,0-.16-.22-.29-.33-.43a1.79,1.79,0,0,0-.11.54c.16,1.53.31,3.08.51,4.57.66,4.94.81,9.9,1.19,14.84,0,.2,0,.41,0,.61a3,3,0,0,1-.19-.63c-.27-2.95-.52-5.89-.79-8.84,0-.32-.12-.63-.18-1,0,.31-.06.62-.06.93C28.25,208.08,29.51,213.77,29,219.79ZM40.11,16a10.73,10.73,0,0,1,1.55.16c1.28.32,1-.12,1-1.19s-2.29-2-.4-3.22c.07,0,.09-.24.06-.36-.22-1.12.53-1.59,1.29-2.07a4.93,4.93,0,0,0,.49-.42c-.23,0-.52-.2-.69-.11-2.79,1.45-5.28.33-7.75-.94a4.22,4.22,0,0,0-.6-.2c.13.22.23.52.42.63,1,.6,2.08,1.13,3.09,1.74.21.13.25.54.37.82a6.92,6.92,0,0,0-.76-.28c-.45-.13-.89-1-1.3-.41s-.53,1.17.48,1.78a3.14,3.14,0,0,1,1.84,3.21C39,16,39.23,16.28,40.11,16ZM59.19,295.68v-.14c-2.21,0-4.41.09-6.62.17-.16,0-.71-.43-.57.33.1.59-.36.42-.65.38l-5.16-.7a2.24,2.24,0,0,0-.57.08,2,2,0,0,0,.58.26c2.43.32,4.85.71,7.28.89a84.06,84.06,0,0,0,14.27-.55c.74-.07.42-1,1.22-1,2.73-.08,5.44-.36,8.16-.56a4,4,0,0,0,.5-.11,2.35,2.35,0,0,0-.53-.09c-3.45.16-6.88-.21-10.35.73C64.37,296,61.72,295.62,59.19,295.68ZM113.75,113.9c0-.18,0-.06,0,.06.08-.09.21-.16.23-.26.19-.84.36-1.68.54-2.52,1.33-6.19,2.22-12.46,3-18.75,0-.1-.06-.21-.09-.32a.88.88,0,0,0-.12.17c-.29,1-.63,2-.86,3A122.87,122.87,0,0,0,113.75,113.9ZM26.53,274.68c-.72-.36-1.35-.94-1.9-.87s.07.65.05,1a.36.36,0,0,1-.1.26c-1.28.79-.85,1.93-.74,3.12.19,2.16,1.67,4,1.26,6.3a.75.75,0,0,0,.72,1c.51,0,.4-.54.38-.91C26,281.49,24.13,278.46,26.53,274.68Zm82.8-270.8a3.86,3.86,0,0,0-2.21.69c-.32.18-.51.62-.76.94.31.06.63.16,1,.19a7,7,0,0,1,3.45.75,1.94,1.94,0,0,0,2.7-.66c.4-.94-1-1-1.62-1.29A14.17,14.17,0,0,0,109.33,3.88ZM99.79,26.49c2,.38.54-.58,1.12-.89,2.92-1.54,4.09-5.2,7.28-6.45.17-.07.28-.32.41-.48a3.41,3.41,0,0,0-.6-.24c-2-.4-2.84,1.38-3.91,2.37-1.56,1.43-2.64,3.43-3.93,5.18-.12.17-.27.34-.4.5Zm2.51,256.8-.41-1.42a3,3,0,0,0-.6.52A20.67,20.67,0,0,1,97,286.72a.74.74,0,0,0-.33.83c.22.9.52.94,1.12.32C99.32,286.27,100.9,284.69,102.3,283.29ZM121.52,44.87h0c0,1.2-.1,2.4-.11,3.6,0,.79.07,1.58.11,2.37.06-.74.14-1.48.18-2.22q.38-7.44.73-14.87c0-.26-.18-.52-.28-.78a4.34,4.34,0,0,0-.17.69C121.84,37.4,121.68,41.13,121.52,44.87ZM33.05,8.92c-.58.18-1.08.29-1.55.49a3.57,3.57,0,0,0-.76.55c.1.09.19.22.31.24l4.59.85c.4.07.57,0,.49-.46C35.77,8.59,34,9.67,33.05,8.92ZM66.48,281c1.86-.19,3.38-.34,4.91-.51a2.17,2.17,0,0,0,.42-.11,1.77,1.77,0,0,0-.48-.15c-4.06.11-8.14-.18-12.16.65a3,3,0,0,0-.48.22,4.29,4.29,0,0,0,.5.07ZM11.33,117.32c-.52-2.53-1.2-5.82-1.9-9.11a5.21,5.21,0,0,0-.33-.82,7.85,7.85,0,0,0,0,1A60.1,60.1,0,0,0,11,118.59c.18.55.44,1.08.67,1.62-.09-.5-.19-1-.27-1.5C11.41,118.51,11.41,118.3,11.33,117.32Zm87.33,162,1.85-1a.77.77,0,0,0,.43-1.07c-.25-.52-.68-.15-1,0-1.9.95-3.71,2.11-5.87,2.43-.11,0-.2.18-.31.28.13,0,.27.12.39.1C95.46,279.84,96.75,279.62,98.66,279.3Zm4.52.69c-.14-1.16-.25-2.27-.41-3.38,0-.27.12-.82-.42-.67-.39.1-.94.21-.88.85a11.15,11.15,0,0,0,.36,2.86,8.82,8.82,0,0,1,.91,2.42C103.72,281.53,102.77,280.62,103.18,280ZM108.57,57l0-.13-1,.29a2,2,0,0,0,.49.23c2.86.44,5.58-.38,8.32-1,.21,0,.37-.28.56-.43a1.93,1.93,0,0,0-.7-.19C113.66,56.21,111.12,56.63,108.57,57ZM58.92,4.62c-1.11-.74-1.12,1.47-2.21,1.46l.12.19c1.11,1.57,2.39,2.2,4,.76.18-.15.35-.32.52-.48-.05,0-.12-.14-.15-.13-.22.09-.44.18-.65.29-.44.23-.88.48-1.33.67,0,0-.27-.27-.3-.43a1.29,1.29,0,0,1,.66-1.41,5.45,5.45,0,0,0,.76-.69ZM47.29,22c-.9.25-2.54-.22-2.55.58,0,1.13,1.5,1.32,2.51,1.14a11,11,0,0,0,2.59-1.16C49.13,21.62,48.13,22.26,47.29,22ZM94.57,58.08v.55a1.8,1.8,0,0,0-.73,0c-.76.32-.35.41.11.38q5.57-.34,11.13-.74a2.77,2.77,0,0,0,.65-.22,2.54,2.54,0,0,0-.73-.19Zm3.27,189.37H97.7c.24,2.13.47,4.25.73,6.37,0,.24,0,.76.44.58a1,1,0,0,0,.4-.84c-1-2-.71-4.11-1-6.17-.2-1.48-.37-3-.55-4.44C97.77,244.46,97.8,246,97.84,247.45ZM120.05,69h-.21c0,.36,0,.72,0,1.07A8.49,8.49,0,0,0,120,71a2.7,2.7,0,0,0,.27-.8c0-3.75-.12-7.51-.2-11.26,0-.07-.1-.14-.16-.21a1.58,1.58,0,0,0-.09.42Q119.94,64.07,120.05,69ZM28.11,250.29a4.15,4.15,0,0,0-.31.65c-.36,1.44-.73,2.87-1.05,4.32a6.35,6.35,0,0,0,0,1.31,7.74,7.74,0,0,1,.74-1.06c.75-.8.27-2.17,1.3-2.92.17-.12-.29-1.17-.47-1.79C28.27,250.67,28.21,250.56,28.11,250.29Zm12.67,20.38c-.34-.26-.41-.33-.49-.38a9.69,9.69,0,0,1-3.84-3.38c-.05-.07-.21-.08-.31-.12a1.33,1.33,0,0,0,0,.56c.66,1.65,1.16,3.52,3.53,3.17A5.16,5.16,0,0,1,40.78,270.67Zm2.61.33.45-.13c-.08-.11-.13-.28-.23-.33a25.41,25.41,0,0,1-5.87-3.82,1.41,1.41,0,0,0-.46-.17c0,.18,0,.41.11.54C39,269.1,41.24,269.94,43.39,271ZM16.69,140.4c-.84-3.34-1.67-6.65-2.51-10,0-.11-.2-.19-.3-.28a1.5,1.5,0,0,0-.1.61q1.2,4.83,2.45,9.66c0,.13.2.23.3.35C16.58,140.65,16.63,140.52,16.69,140.4ZM53.4,294.9c1.05,0,1.38,0,1.69-.06.08,0,.5-.11.31-.12-4.08-.34-8.17-.57-12.25-.82a3.11,3.11,0,0,0-.43,0,1.55,1.55,0,0,0,.46.15Zm2.07-274,.61-.39-2.72-2.83c-.14.18-.41.4-.38.53A3.53,3.53,0,0,0,55.47,20.88ZM119.1,84.59c0-.51,0-1,0-1.53a5.88,5.88,0,0,0-.24-.89,2.63,2.63,0,0,0-.33.85c-.06,1.94-.09,3.89-.11,5.83a1.67,1.67,0,0,0,.21.59,1.66,1.66,0,0,0,.25-.52C118.93,87.48,119,86,119.1,84.59ZM42.07,281l.29,0c-.13-.11-.24-.27-.39-.32l-4.68-1.59c-.1,0-.23,0-.35.07a1.84,1.84,0,0,0,.24.41C38.51,280.91,40.25,280.86,42.07,281Zm56.36-16.17c-.21-1.14-.38-2.09-.57-3,0-.15-.19-.27-.29-.41-.06.09-.18.19-.18.27.15,1.49.3,3,.48,4.48,0,.15.24.28.38.41l.18-.17C97.79,265.87,98.71,265.24,98.43,264.87Zm15-245c.49-.07,1.26.14,1.21-.34s-.85-.56-1.38-.51-1.32.22-2,.33A3.15,3.15,0,0,0,113.46,19.91Zm1.29,38.34c.82-.52,2,.22,2.61-.84,0,0-.44-.49-.59-.44-1,.29-1.89.66-2.83,1ZM96.65,219.3c.09,1,.14,1.74.21,2.42,0,.2.07.4.1.6a2.86,2.86,0,0,0,.15-.61c0-1.48,0-3,0-4.43,0-.3,0-.6-.07-.9-.06.27-.15.53-.19.8C96.79,218,96.7,218.83,96.65,219.3Zm5.61,54.14c-.28-.86-.58-1.77-.89-2.69,0-.08-.12-.13-.18-.2,0,.1,0,.2,0,.3,0,1.17,1.24,2.28.14,3.53-.09.1.25.84.32.82C102.66,275,102.08,274.11,102.26,273.44ZM119,56.58c-.08-.43.24-1.16-.62-1.06-.66.07-.55.71-.53,1.12s0,1.07.72,1S119.06,57,119,56.58ZM23.88,270.4c.33.48-.14,1.37.69,1.36.66,0,.42-.84.38-1.2a5.75,5.75,0,0,0-.69-1.63C24.13,269.42,24,269.92,23.88,270.4Zm74.86,19.8,3.05-2.46a.39.39,0,0,0,0-.24c-.12,0-.29-.08-.36,0-.9.73-1.8,1.48-2.68,2.24C98.7,289.75,98.74,289.87,98.74,290.2Zm-52.4-7.6.67-.21a3.84,3.84,0,0,0-.72-.25c-1.59-.2-3.19-.38-4.79-.56a1,1,0,0,0-.35.05c.09.1.18.25.29.27C43,282.14,44.65,282.36,46.34,282.6ZM118.28,59.72c.19.72.39,1.51.6,2.31.05-1,.12-1.89.16-2.84,0-.34-.09-.79-.49-.67C117.93,58.7,118.5,59.26,118.28,59.72ZM20.47,157.46c-.34-1.13-.69-2.31-1-3.49-.08,0-.22.06-.23.11-.18,1.22.5,2.24.77,3.36a.61.61,0,0,0,.09.2,2.61,2.61,0,0,0,.25.23ZM97,28.34l3.12-1c-.39-.14-.84-.47-1.16-.36a21.85,21.85,0,0,0-2.58,1.15Zm3.51,246.42-.43-1.44c-.77.55-.48,1.46-.69,2.21,0,.09.18.25.28.38ZM28.87,224.87c.18.39,0,1.43.41,1.18.77-.46.11-1.51.18-2.31a1.91,1.91,0,0,0-.16-.6C28.74,223.6,29,224.25,28.87,224.87ZM54.46,5.16c-.1.07-.54.28-.52.34.24.79,1,.65,1.59.85.07,0,.31-.16.32-.26C55.9,5.16,55.2,5.26,54.46,5.16Zm-28.26,268c-.2-.52-.41-1.09-.63-1.65-.18.4-.56.85-.48,1.2s.55.77.86,1.14C26,273.64,26.08,273.45,26.2,273.14Zm-1.67-248c-.2-.68-.41-1.42-.63-2.16a6.21,6.21,0,0,0-.21,1.69,5.05,5.05,0,0,0,.68,1.43C24.42,25.78,24.46,25.49,24.53,25.1ZM21.1,275.79s.07.15.14.31c.13-.73,1.35-.31,1.24-1.24a2.5,2.5,0,0,0-.36-.71C21.82,274.67,21,274.78,21.1,275.79ZM31.24,62.22,32.76,62c-.81-.14-1.61-.31-2.42-.4-.19,0-.42.18-.63.28Zm8.19,217L40,279c-.68-.29-1.36-.61-2.06-.87-.08,0-.27.2-.41.32C38,279.11,38.69,279,39.43,279.18Zm56.89-1c.75-.48,1.65-.66,2.05-1.56,0,0-.23-.25-.24-.23-.68.53-1.35,1.07-2,1.62ZM118.13,54.75c.12-.3.83.16.77-.52a.79.79,0,0,0-.56-.5c-.31,0-.8,0-.78.55C117.57,54.59,117.65,54.84,118.13,54.75ZM96.75,229.06c-.11-.72-.2-1.28-.29-1.84-.09.72-.2,1.44-.25,2.17a1.92,1.92,0,0,0,.21.71C96.54,229.72,96.66,229.33,96.75,229.06ZM35.58,280.3l1-.42c-.55-.16-1.09-.33-1.64-.45-.11,0-.26.19-.39.3ZM122.48,31c-.18-.39-.34-.73-.49-1.07-.11.26-.33.54-.3.79a3.6,3.6,0,0,0,.41.95ZM57.12,20.8c-.25.17-.44.3-.64.42.54.17,1.07.36,1.61.5.11,0,.27-.13.4-.2ZM22.5,268.47l-.12,0a2.76,2.76,0,0,0-.19.55c-.16,1-1.07,1.82-.8,3,.32-1,.65-1.93,1-2.89C22.41,268.87,22.45,268.67,22.5,268.47ZM98.81,5.78c-.63.44-1.52.13-2,.91,0,0,.33.31.4.28.57-.32,1.12-.68,1.68-1ZM95,287.38l-1.74,1.32c.11.05.28.17.34.12.54-.38,1-.8,1.57-1.21Zm1.77-53.28c.12.48.26,1,.4,1.52a1.51,1.51,0,0,0,.1-.54c-.09-.78-.22-1.55-.34-2.32C96.9,233.18,96.85,233.61,96.79,234.1ZM5.41,55.6c.12.37.22.68.33,1,.06-.49.15-1,.18-1.46a1.91,1.91,0,0,0-.16-.6C5.64,54.88,5.53,55.24,5.41,55.6ZM27,292.8c-.3-.42.12-1.1-.56-1.31-.06,0-.28.26-.26.33.18.45.4.88.61,1.32Zm68.48-286L96.74,5.6c-.08,0-.19-.11-.23-.08-.5.33-1,.68-1.49,1ZM6.19,51.69c-.07-.29-.13-.55-.2-.81-.09.61-.2,1.22-.25,1.83a2.16,2.16,0,0,0,.18.67Zm111.7-34.28-.18-.33-1,1.2c.1.06.21.18.29.17C117.48,18.35,118,18.25,117.89,17.41Zm-16.45,4.95-1.16,2s.08.09.12.13c.41-.61.82-1.22,1.21-1.84C101.63,22.63,101.53,22.52,101.44,22.36ZM6,58.75c-.07-.25-.16-.57-.26-.88a2.46,2.46,0,0,0-.16.74,8.88,8.88,0,0,0,.28,1.24C5.9,59.52,5.94,59.18,6,58.75Zm9.57,84.34c-.15-.51-.33-1.09-.51-1.68,0,.17-.15.36-.11.51.14.55.33,1.1.5,1.65ZM52,18.05c-.05.08-.14.17-.13.22.22.55.45,1.09.68,1.62l.18-.07C52.52,19.25,52.28,18.67,52,18.05Zm69,2.54c-.23-.69-.45-1.39-.68-2.08-.07.11-.21.24-.19.32.24.68.5,1.36.75,2Zm-.85,35.53c-.09-.25-.19-.5-.28-.76a1.54,1.54,0,0,0-.18.59,5.56,5.56,0,0,0,.26,1C120.06,56.67,120.12,56.42,120.2,56.12Zm-92.95,218a1.88,1.88,0,0,0-.2.39l1,1a1.15,1.15,0,0,0,.15-.19C27.93,274.91,27.62,274.53,27.25,274.07ZM97.63,289.2c-.16-.05-.25-.11-.29-.09-.51.31-1,.63-1.5.95a1.45,1.45,0,0,0,.13.18ZM5.93,22.33l-.27-.71a3.68,3.68,0,0,0-.17.77,6.27,6.27,0,0,0,.11,1Zm19.46,245-.39-.87c-.05.11-.17.23-.15.32.1.43.23.84.35,1.26C25.26,267.87,25.31,267.66,25.39,267.36Zm-.8-246.57-.79-1.11c-.05.07-.15.16-.14.19.21.4.43.79.65,1.18ZM8.78,17.15c0,.28-.13.45-.08.54a6.39,6.39,0,0,0,.52.76c.06-.07.17-.18.16-.21C9.21,17.92,9,17.6,8.78,17.15ZM99.69,180.94l.16.5c.11-.41.23-.81.32-1.22a1.21,1.21,0,0,0-.07-.4C100,180.2,99.82,180.57,99.69,180.94Zm-42.36,101-.72.17a5.68,5.68,0,0,0,.82.17,3.12,3.12,0,0,0,.67-.11Zm38.88,6.27c-.2-.12-.33-.24-.36-.22-.26.17-.5.36-.75.55.09.05.21.18.27.15A8.3,8.3,0,0,0,96.21,288.17ZM82,20.94l-1,.17,1.5.14a.84.84,0,0,0,.26-.07ZM14.38,18.88c-.49-.37-.91-.69-1.33-1,0,0-.09,0-.14,0,.39.34.78.68,1.18,1C14.13,19,14.23,18.91,14.38,18.88Zm15.85-13-.63.22,1.57.21a1.24,1.24,0,0,0,.27,0ZM18.46,150.45l.41.51c0-.05.09-.1.07-.14a6.05,6.05,0,0,0-.32-.55ZM40.33,8.6l.37-.21a3,3,0,0,0-.61-.17,2.24,2.24,0,0,0-.57.08ZM16.64,146.19l.36.71c0-.11.13-.24.1-.32-.11-.3-.26-.59-.39-.88C16.69,145.82,16.67,145.94,16.64,146.19Z"/><path d="M71.33,19.72c-.51-1-2.41,2.12-2-.65C69.46,18,71,18.27,72,18l.56-.22c-.17-.12-.33-.33-.51-.37-2.4-.46-5.1-1.67-5.77,2.36,0,.07-.12.12-.19.18-.09-.27-.32-.58-.26-.82a3.28,3.28,0,0,1,3.72-2.82l1.09.06c0-.06,0-.17-.06-.18l-1.19-.34c-.44-.12-1.21.5-1.24-.15s.86-.53,1.37-.48c2.32.22,3.77,2.4,6,2.91a7,7,0,0,1,1.61.77c.47.24.93.51,1.39.77l-1.68-.47-1.09-.32c.19.31.4.62.59.93.7,1.17.34,2.45.35,3.69a.57.57,0,0,1-.44.38c-.34,0-.26-.29-.08-.49-.89-.38-.48-2.14-1.9-1.91-.13,0-.18.4-.31.57a2.1,2.1,0,0,1-.46.32c0-.08-.11-.2-.09-.25C74.85,19.18,71.94,20.53,71.33,19.72Zm2.42-.19c-.26-.77-.64-1.19-1.35-1.07-1,.16-2,.1-2.75,1,.1.06.24.19.3.16a3.16,3.16,0,0,1,3.37,0C73.41,19.71,73.6,19.58,73.75,19.53Zm.71-.4a.92.92,0,0,0-.11.33c.1,1,1,1.31,1.56,1.89.08-.14.26-.32.23-.42A2.71,2.71,0,0,0,74.46,19.13Z"/><path d="M68.36,37.23c-3.15,1.1-5.59.19-7.94-.89a1.82,1.82,0,0,1-.76-.68c-.09-.14-.54-.41,0-.51a.45.45,0,0,1,.58.4c.12.47.78.67,1.41.48a1.1,1.1,0,0,1,.57.13c.4.2.75.43,1.14.63a4.25,4.25,0,0,0,2.59.45c.42-.05.27-.19-.06-.25l-1.69-.31a6.86,6.86,0,0,1-.81-.21c-.42-.15-1-.25-.93-.62s.31-.37.66-.23c.17.07.12.33.29.4a19.35,19.35,0,0,0,4.78.8,3,3,0,0,1,.56.22Z"/><path d="M77,121.19c.89-3.14-.55-4.1-3.77-3.12a6.21,6.21,0,0,1-1.56.11c-.61,0-1.56.68-1.71-.19-.08-.52,1.1-.39,1.73-.45,1.35-.11,2.71-.21,4.08-.25.94,0,1.36-.3,1.3-1.41a32.24,32.24,0,0,1,.08-5.2c.25-2.28-.72-3-2.77-2.82a3,3,0,0,1-1.16-.32,1.86,1.86,0,0,1,0-.33c.66.08.69-1,1.52-.79s1.76,1,2.13.39a1.84,1.84,0,0,0-.86-2.56,1.16,1.16,0,0,1-.18-1.08c1.93-2.06.46-4.48.66-6.7.07-.72-.77-.61-1.29-.68-1.72-.23-3.44-.45-5.15-.7-.14,0-.25-.22-.38-.34a2,2,0,0,1,.73-.15c5,.94,10.1.94,15.17,1,.39,0,1,.16.81-.57s.41-2-.9-2c-2,0-3.91.2-5.86.29a1.92,1.92,0,0,1-.62-.19c.17-.11.34-.3.52-.31,1.56-.1,3.12-.27,4.67-.22s2.35-.23,1.72-2c-.07-.21.09-.5.14-.75.17.12.5.25.49.35-.3,3.49,2.36,2.27,3.73,2.18,4.06-.25,8.25,1,12.17-.83,2.89-1.32,5.89-1.26,8.93-1.08a2.38,2.38,0,0,1,.61.25c-.22.09-.44.26-.65.25-3.06-.15-6.34-.42-9,1-4.09,2.15-8.18,0-12.18.88l-.46.15a2.36,2.36,0,0,0,.57.49,40.37,40.37,0,0,0,17.68,2.38,7.15,7.15,0,0,1,.8,0,7.83,7.83,0,0,1-.9.29c-3.91.74-7.81-.21-11.73-.06-2.84.12-5.69.1-8.54.11-.6,0-.54.37-.53.76.07,3.32.15,6.63.22,9.94,0,.72.47.75,1,.75,4.22,0,8.55-.29,12.57.89,3.68,1.09,7.21.56,10.81.56a1.62,1.62,0,0,1,.58.25,1.71,1.71,0,0,1-.57.23,93.54,93.54,0,0,1-11.36-.09c-1.3-.15-2.71-.86-4.17-.92a1.7,1.7,0,0,0-.52.15,2.17,2.17,0,0,0,.5.26l2.53.49c-.91,0-1.82,0-2.73-.1-2.52-.19-5-.38-7.54-.64-.82-.08-1.09.16-1.11,1-.16,5.43-.35,10.86-.54,16.28a3.17,3.17,0,0,1-.2.73,2.42,2.42,0,0,1-.23-.74c.21-5.17.42-10.34.67-15.51.06-1.22-.11-1.94-1.57-2-2.44,0-4.88-.27-7.32-.46-.55,0-.72.16-.72.67,0,2.3.09,4.6,0,6.89-.07,1.54.86,1.49,1.84,1.48s2.15-.12,3.23-.1c.79,0,1.58.14,2.37.22-.82,0-1.63.09-2.44.11-1,0-2,.08-3,0-1.65-.11-2.21.63-2,2.28.2,1.85.24,3.71.34,5.57a1.49,1.49,0,0,1-.16.46c-.14-.18-.4-.36-.41-.55C77,124,77,122.82,77,121.19Zm9.88-19.14h.09c-.11-1.63-.23-3.25-.32-4.88,0-.72-.36-1-1-1-2.69-.06-5.39-.14-8.08-.23-.46,0-.69.1-.66.64.15,3.13.31,6.26.41,9.39,0,1.09.39,1.51,1.48,1.53q3.12,0,6.23.35c1.51.14,2.25-.23,2-2A32.44,32.44,0,0,1,86.84,102.05Zm-.08-8c.3.56-.23,1.6.85,1.67,2.28.13,4.58.18,6.87.24a2.8,2.8,0,0,0,.63-.12,2.49,2.49,0,0,0-.58-.35c-2-.59-4.12-.9-5.9-2.28C88.17,92.81,86.82,92.34,86.76,94Z"/></g></g></svg>