<svg xmlns="http://www.w3.org/2000/svg" viewBox="0 0 287.63 357.1"><defs><style>.cls-1{fill:#153c4d;}.cls-2{fill:#b29362;}.cls-3{fill:#b39363;}</style></defs><g id="圖層_2" data-name="圖層 2"><g id="event"><g id="beer_mug_b"><path class="cls-1" d="M95.48,301.32c4.33-.06,4-6.74-.36-6.68S91.18,301.39,95.48,301.32Z"/><path class="cls-1" d="M102.46,342.35a5.68,5.68,0,0,0-.39-1.72l0,0a4.94,4.94,0,0,0-.19-.49,7.11,7.11,0,0,0-.49-1A6.33,6.33,0,1,0,98,348.59a6.18,6.18,0,0,0,3.87-3.3A5.88,5.88,0,0,0,102.46,342.35Z"/><path class="cls-1" d="M109.92,324.9a4.33,4.33,0,0,0-6.6-3.38l-.52.36a4,4,0,0,0-1.78,3.48,4,4,0,0,0,2.15,3.26l.56.36a4.22,4.22,0,0,0,4.23-.23A4.31,4.31,0,0,0,109.92,324.9Z"/><path class="cls-1" d="M161.31,188.94c-7,.11-6.41,11,.59,10.87S168.31,188.84,161.31,188.94Z"/><path class="cls-1" d="M164,267a5.94,5.94,0,0,0-1.68-2.59A5.69,5.69,0,0,0,158,263c-.57.1-1.15.17-1.71.32a6.2,6.2,0,0,0-2.67,1.75,5.72,5.72,0,0,0-1.5,4.25,5.61,5.61,0,0,0,2,4.05c.45.33.92.64,1.38.95a5.9,5.9,0,0,0,3,.61,6,6,0,0,0,4.28-2.1A6.06,6.06,0,0,0,164,267Z"/><path class="cls-1" d="M155.71,120.27c5.71-.08,5.21-8.92-.48-8.84S150,120.36,155.71,120.27Z"/><path class="cls-1" d="M144.45,158.45a5.86,5.86,0,1,0,5.54-6.17A5.94,5.94,0,0,0,144.45,158.45Z"/><path class="cls-1" d="M139.83,216.39a6,6,0,1,0-6.29-5.64A6,6,0,0,0,139.83,216.39Z"/><path class="cls-1" d="M141.14,253.4a4.11,4.11,0,1,0-4.33-3.88A4.17,4.17,0,0,0,141.14,253.4Z"/><path class="cls-1" d="M142.76,270.13c-4.07.06-3.71,6.34.34,6.28S146.81,270.07,142.76,270.13Z"/><path class="cls-1" d="M159,290.15a6.67,6.67,0,1,0-6.3,7A6.77,6.77,0,0,0,159,290.15Z"/><path class="cls-1" d="M164.06,341.36a6.35,6.35,0,1,0-6.68-6A6.38,6.38,0,0,0,164.06,341.36Z"/><path class="cls-1" d="M166.2,347.62c-6.13.09-5.6,9.57.51,9.48S172.31,347.53,166.2,347.62Z"/><path class="cls-1" d="M168.78,297.75l-.55.22a3.28,3.28,0,0,0-2.15,2.4,3.16,3.16,0,0,0,1.7,3.5l.52.19a3.73,3.73,0,0,0,2.57.19,3.45,3.45,0,0,0,2.3-2.56C173.66,299.3,171.21,296.79,168.78,297.75Z"/><path class="cls-1" d="M182.67,341.79c-5.86.09-5.34,9.14.49,9.06S188.51,341.71,182.67,341.79Z"/><path class="cls-1" d="M220.7,338.85c-5.72.08-5.22,8.92.48,8.84S226.39,338.76,220.7,338.85Z"/><path class="cls-2" d="M56.13,161.36a24,24,0,0,0,4,4.07,20.53,20.53,0,0,0,4.73,2.77,15.18,15.18,0,0,0,4.94,1.07,12.44,12.44,0,0,0,4.77-.72A14.34,14.34,0,0,0,79,166a26.4,26.4,0,0,0,6.74-9.67l-.4,1.4a61.44,61.44,0,0,1,1.49-6.39c.31-1.06.66-2.12,1-3.17s.79-2,1.18-3l-.33,1.17c1.49-7.29,2.14-15.46,4.8-23.9a47.63,47.63,0,0,1,2.44-6.26,40,40,0,0,1,3.5-6.06,30.83,30.83,0,0,1,5-5.46,27.22,27.22,0,0,1,6.53-4,35.2,35.2,0,0,1,13.89-2.29,120.9,120.9,0,0,1,12.41,1.06,112.65,112.65,0,0,0,11.29,1,34.23,34.23,0,0,0,10.08-1.07A40.91,40.91,0,0,0,168,94.85a102.77,102.77,0,0,1,10.82-6.15A61.68,61.68,0,0,1,204,83a65.08,65.08,0,0,1,12.85,1.07c1.06.23,2.1.42,3.18.68s2.15.56,3.2.9A58.24,58.24,0,0,1,229.3,88c1.95.87,3.82,1.79,5.63,2.72l5.16,2.69a29.52,29.52,0,0,0,9.61,2.5l5,.52-.13,5h0v.21l-5.19-5.47a87.83,87.83,0,0,0,10.26,0l-4.87,5.6v-.13l-.24-4.88,4.77-.68h0a22.58,22.58,0,0,0,11.05-4.22,18.1,18.1,0,0,0,6.57-9.25,24.72,24.72,0,0,0,.34-12,49.88,49.88,0,0,0-4.42-12.49c-3.89-8-10.13-14.74-17.35-20.46a108.66,108.66,0,0,0-24-14.17,168.67,168.67,0,0,0-26.86-9c-4.61-1.14-9.29-2.1-14-3-1.17-.22-2.36-.41-3.52-.65a27.71,27.71,0,0,1-3.44-1.14c-2.28-1-4.7-.91-7.07-1.24a206.68,206.68,0,0,0-57.17,2.18,211.91,211.91,0,0,0-27.81,6.89c-2.27.73-4.55,1.45-6.79,2.29s-4.49,1.61-6.7,2.48Q71.43,24.93,65,28A194.71,194.71,0,0,0,40.24,42.1c-2,1.33-3.9,2.69-5.82,4.08S30.76,49,29,50.47a72.66,72.66,0,0,0-9.48,9.75,44.64,44.64,0,0,0-6.67,11.1,28.94,28.94,0,0,0-1,2.9L11.7,75a5.74,5.74,0,0,0-.13.65,8.06,8.06,0,0,0-.19,1.25A10.72,10.72,0,0,0,12,81.61a18.21,18.21,0,0,0,2.7,4.79A49.14,49.14,0,0,0,19,91.21c3.24,3.24,7,6.43,10.65,10.42a40.45,40.45,0,0,1,5.16,6.89,72.21,72.21,0,0,1,3.57,7.23,137.32,137.32,0,0,1,5,14.49c1.41,4.75,2.69,9.4,4.15,13.79a74.47,74.47,0,0,0,5.26,12.14A33.61,33.61,0,0,0,56.13,161.36ZM235.34,103,230,100.16c-1.7-.89-3.36-1.74-5-2.49a44.09,44.09,0,0,0-5-1.93c-.83-.27-1.67-.5-2.51-.7s-1.75-.38-2.62-.57a55.34,55.34,0,0,0-10.75-.89,49.87,49.87,0,0,0-20.78,4.73,95,95,0,0,0-9.72,5.68,51.33,51.33,0,0,1-11.88,5.81,44.63,44.63,0,0,1-13.39,1.63c-4.31-.07-8.4-.51-12.34-.91a107.94,107.94,0,0,0-11.23-.78,23.93,23.93,0,0,0-9.34,1.6,15.44,15.44,0,0,0-3.54,2.23,18.4,18.4,0,0,0-2.91,3.31,33.63,33.63,0,0,0-4,9.09c-2,6.73-2.48,14.46-3.88,22.7l-.08.47-.26.7c-.31.84-.67,1.72-.91,2.5s-.51,1.62-.73,2.45a51.12,51.12,0,0,0-1,5.1l-.1.66-.31.74a39.37,39.37,0,0,1-9.92,14.78,27.43,27.43,0,0,1-8.35,5.15A26,26,0,0,1,69.55,183a28.59,28.59,0,0,1-9.62-1.84,33.57,33.57,0,0,1-8.23-4.54,37.83,37.83,0,0,1-6.6-6.34A48.12,48.12,0,0,1,40.22,163c-2.71-4.9-4.19-10-5.67-14.9s-2.61-9.68-3.84-14.29a126.7,126.7,0,0,0-4.14-13.24,61.05,61.05,0,0,0-2.7-5.94,28.72,28.72,0,0,0-3.46-4.86c-2.82-3.3-6.39-6.56-9.94-10.3a58.83,58.83,0,0,1-5.22-6.23,29.58,29.58,0,0,1-4.16-8,22.23,22.23,0,0,1-.9-9.65A19.87,19.87,0,0,1,.6,73.22c.09-.37.17-.78.27-1.12l.32-1a40.91,40.91,0,0,1,1.44-4,55.48,55.48,0,0,1,8.63-13.66A84,84,0,0,1,22.39,42.55c2-1.63,4.06-3.17,6.16-4.63s4.14-2.8,6.24-4.14A206.54,206.54,0,0,1,61.11,19.61q6.81-3,13.81-5.62c2.34-.86,4.69-1.65,7-2.43s4.73-1.5,7.11-2.21a235.93,235.93,0,0,1,29-6.52,224.25,224.25,0,0,1,59.23-1.56,43.79,43.79,0,0,0,7.43.54,29.87,29.87,0,0,1,3.78-.09c1.25.09,2.45.36,3.68.55,4.89.82,9.76,1.77,14.61,2.91a164.35,164.35,0,0,1,28.56,9.26,116.56,116.56,0,0,1,26.17,15.45,82.56,82.56,0,0,1,11.23,10.68,67.21,67.21,0,0,1,4.79,6.26,64,64,0,0,1,9.29,21.82,34.38,34.38,0,0,1-.55,16.85,28.75,28.75,0,0,1-9.91,14.29,36,36,0,0,1-15.74,6.53A42.58,42.58,0,0,1,235.34,103Z"/><path class="cls-1" d="M255.72,96.55a24.84,24.84,0,0,0,14.6-4.63,18.64,18.64,0,0,0,6.58-9.48,26,26,0,0,0,.33-12.34,51.77,51.77,0,0,0-4.41-12.79c-3.89-8.16-10.13-15.11-17.35-21a108.57,108.57,0,0,0-24-14.51,164.41,164.41,0,0,0-26.85-9.19c-4.61-1.17-9.29-2.16-14-3-1.17-.22-2.36-.41-3.52-.66a28.47,28.47,0,0,1-3.44-1.17c-2.28-1-4.7-.93-7.07-1.27a201.32,201.32,0,0,0-57.15,2.24,206.16,206.16,0,0,0-27.8,7c-2.27.75-4.55,1.49-6.78,2.34s-4.5,1.65-6.71,2.55q-6.65,2.68-13.09,5.84A195.3,195.3,0,0,0,40.35,41c-2,1.35-3.9,2.75-5.82,4.18s-3.66,2.85-5.4,4.39a73.81,73.81,0,0,0-9.48,10A45.77,45.77,0,0,0,13,70.9a30.42,30.42,0,0,0-1,3l-.21.74c-.06.25-.08.44-.13.67a9.65,9.65,0,0,0-.19,1.28,11.36,11.36,0,0,0,.59,4.87,19,19,0,0,0,2.69,4.91,47.77,47.77,0,0,0,4.32,4.93c3.23,3.32,7,6.59,10.64,10.67A41.63,41.63,0,0,1,34.89,109a76.13,76.13,0,0,1,3.57,7.42,144.88,144.88,0,0,1,5,14.83c1.42,4.87,2.7,9.64,4.15,14.14a77.65,77.65,0,0,0,5.26,12.43,35.35,35.35,0,0,0,3.33,5.33,23.87,23.87,0,0,0,4.05,4.16A19.89,19.89,0,0,0,65,170.16a14.74,14.74,0,0,0,4.94,1.1,12.09,12.09,0,0,0,4.77-.75,14.11,14.11,0,0,0,4.34-2.6A27,27,0,0,0,85.78,158l-.4,1.44a66.92,66.92,0,0,1,1.49-6.54c.31-1.09.66-2.17,1-3.25s.79-2,1.18-3.07l-.33,1.2c1.49-7.47,2.14-15.84,4.8-24.48A49.55,49.55,0,0,1,96,116.88a41,41,0,0,1,3.5-6.22,30.47,30.47,0,0,1,5-5.59,26.74,26.74,0,0,1,6.53-4,34.34,34.34,0,0,1,13.88-2.35,115.12,115.12,0,0,1,12.4,1.09c3.92.49,7.69.93,11.3,1a33.49,33.49,0,0,0,10.07-1.1A40.38,40.38,0,0,0,168.09,95a102.55,102.55,0,0,1,10.81-6.3A60.56,60.56,0,0,1,204,82.9,63.59,63.59,0,0,1,216.87,84c1.06.23,2.1.43,3.18.7s2.15.57,3.2.91a58.46,58.46,0,0,1,6.1,2.37c2,.89,3.82,1.84,5.63,2.79l5.15,2.76c4.28,2.19,9.72,3,14.56,3Z"/><path class="cls-3" d="M164.24,53.77a33.11,33.11,0,0,1,6.24-5.87,44.68,44.68,0,0,1,7.45-4.44,43.32,43.32,0,0,1,17-4.08,41.75,41.75,0,0,1,17.22,3.19,43.26,43.26,0,0,1,14.2,9.62,98.42,98.42,0,0,0-15.47-5.9,54.82,54.82,0,0,0-15.8-1.91,57.53,57.53,0,0,0-15.72,2.73A78.68,78.68,0,0,0,164.24,53.77Z"/><path class="cls-3" d="M55,80A39.06,39.06,0,0,1,86.22,61.32c.82,0,1.63,0,2.44,0l2.44.15c.81.07,1.61.23,2.41.34a19.29,19.29,0,0,1,2.38.48,35.86,35.86,0,0,1,9,3.42A40.07,40.07,0,0,1,118.62,78a107.87,107.87,0,0,0-16-7.22,17.87,17.87,0,0,0-2-.61c-.67-.18-1.32-.41-2-.56-1.35-.27-2.68-.63-4-.78a39.23,39.23,0,0,0-8.09-.48,49.06,49.06,0,0,0-16,3.55A89,89,0,0,0,55,80Z"/><path class="cls-3" d="M113.14,40.29a25,25,0,0,1,7.7-9.81A22.06,22.06,0,0,1,133,25.74a19,19,0,0,1,6.68.8,22.37,22.37,0,0,1,3.11,1.18,23.9,23.9,0,0,1,2.82,1.65,25.7,25.7,0,0,1,8.3,9.32,68.17,68.17,0,0,0-10.21-5.88c-.84-.42-1.73-.67-2.58-1a22.74,22.74,0,0,0-2.61-.67,18.91,18.91,0,0,0-5.24-.41A25.73,25.73,0,0,0,123,33.78,62.28,62.28,0,0,0,113.14,40.29Z"/></g></g></g></svg>