<svg xmlns="http://www.w3.org/2000/svg" viewBox="0 0 383.23 469.64"><defs><style>.cls-1{fill:#b29362;}</style></defs><g id="圖層_2" data-name="圖層 2"><g id="event"><path id="beer_mug" class="cls-1" d="M254.29,72.08a1.93,1.93,0,1,1,1.93-1.93A1.93,1.93,0,0,1,254.29,72.08Zm-5.77-1.93a1.92,1.92,0,1,0-1.92,1.93A1.92,1.92,0,0,0,248.52,70.15Zm-7.69,0a1.93,1.93,0,1,0-1.92,1.93A1.92,1.92,0,0,0,240.83,70.15Zm-7.69,0a1.93,1.93,0,1,0-1.93,1.93A1.93,1.93,0,0,0,233.14,70.15Zm-7.7,0a1.92,1.92,0,1,0-1.92,1.93A1.92,1.92,0,0,0,225.44,70.15Zm-7.69,0a1.92,1.92,0,1,0-1.92,1.93A1.92,1.92,0,0,0,217.75,70.15Zm-11.54,0a1.93,1.93,0,1,0,1.93-1.92A1.94,1.94,0,0,0,206.21,70.15Zm-7.69,0a1.93,1.93,0,1,0,1.92-1.92A1.93,1.93,0,0,0,198.52,70.15Zm-7.69,0a1.92,1.92,0,1,0,1.92-1.92A1.93,1.93,0,0,0,190.83,70.15Zm-7.69,0a1.92,1.92,0,1,0,1.92-1.92A1.93,1.93,0,0,0,183.14,70.15Zm-7.7,0a1.93,1.93,0,1,0,1.93-1.92A1.94,1.94,0,0,0,175.44,70.15Zm107.7,7.7a1.93,1.93,0,1,0-1.92,1.92A1.93,1.93,0,0,0,283.14,77.85Zm-7.69,0a1.93,1.93,0,1,0-1.93,1.92A1.94,1.94,0,0,0,275.45,77.85Zm-7.7,0a1.92,1.92,0,1,0-1.92,1.92A1.93,1.93,0,0,0,267.75,77.85Zm-7.69,0a1.92,1.92,0,1,0-1.92,1.92A1.93,1.93,0,0,0,260.06,77.85Zm-7.69,0a1.93,1.93,0,1,0-1.92,1.92A1.93,1.93,0,0,0,252.37,77.85Zm-7.69,0a1.93,1.93,0,1,0-1.93,1.92A1.94,1.94,0,0,0,244.68,77.85Zm-7.7,0a1.92,1.92,0,1,0-1.92,1.92A1.93,1.93,0,0,0,237,77.85Zm-9.61-1.93a1.93,1.93,0,1,0,1.92,1.93A1.94,1.94,0,0,0,227.37,75.92Zm-7.69,0a1.93,1.93,0,1,0,1.92,1.93A1.94,1.94,0,0,0,219.68,75.92Zm-9.62,1.93A1.93,1.93,0,1,0,212,75.92,1.92,1.92,0,0,0,210.06,77.85Zm84.62,7.69a1.93,1.93,0,1,0-1.93,1.92A1.92,1.92,0,0,0,294.68,85.54Zm-7.69,0a1.93,1.93,0,1,0-1.93,1.92A1.93,1.93,0,0,0,287,85.54Zm-7.7,0a1.92,1.92,0,1,0-1.92,1.92A1.92,1.92,0,0,0,279.29,85.54Zm-7.69,0a1.93,1.93,0,1,0-1.92,1.92A1.92,1.92,0,0,0,271.6,85.54Zm-7.69,0A1.93,1.93,0,1,0,262,87.46,1.93,1.93,0,0,0,263.91,85.54Zm-11.54,0a1.93,1.93,0,1,0,1.92-1.92A1.92,1.92,0,0,0,252.37,85.54Zm-7.69,0a1.92,1.92,0,1,0,1.92-1.92A1.92,1.92,0,0,0,244.68,85.54Zm-7.7,0a1.93,1.93,0,1,0,1.93-1.92A1.93,1.93,0,0,0,237,85.54Zm-7.69,0a1.93,1.93,0,1,0,1.92-1.92A1.92,1.92,0,0,0,229.29,85.54Zm-7.69,0a1.92,1.92,0,1,0,1.92-1.92A1.92,1.92,0,0,0,221.6,85.54Zm134.62,7.69a1.93,1.93,0,1,0,1.92-1.92A1.92,1.92,0,0,0,356.22,93.23Zm-57.7,0a1.92,1.92,0,1,0-1.92,1.92A1.92,1.92,0,0,0,298.52,93.23Zm-7.69,0a1.92,1.92,0,1,0-1.92,1.92A1.92,1.92,0,0,0,290.83,93.23Zm57.7,7.69a1.93,1.93,0,1,0-1.93,1.93A1.93,1.93,0,0,0,348.53,100.92Zm-46.16,0a1.93,1.93,0,1,0-1.92,1.93A1.92,1.92,0,0,0,302.37,100.92Zm-11.54,0A1.93,1.93,0,1,0,292.75,99,1.93,1.93,0,0,0,290.83,100.92Zm53.85,7.7a1.93,1.93,0,1,0-1.92,1.92A1.93,1.93,0,0,0,344.68,108.62Zm-30.77,0a1.93,1.93,0,1,0-1.92,1.92A1.93,1.93,0,0,0,313.91,108.62Zm-7.69,0a1.93,1.93,0,1,0-1.93,1.92A1.94,1.94,0,0,0,306.22,108.62Zm-11.54,0a1.92,1.92,0,1,0,1.92-1.93A1.92,1.92,0,0,0,294.68,108.62Zm50,7.69a1.93,1.93,0,1,0,1.92-1.92A1.92,1.92,0,0,0,344.68,116.31Zm-3.85,0a1.92,1.92,0,1,0-1.92,1.92A1.92,1.92,0,0,0,340.83,116.31Zm-7.69,0a1.93,1.93,0,1,0-1.92,1.92A1.92,1.92,0,0,0,333.14,116.31Zm-7.69,0a1.93,1.93,0,1,0-1.92,1.92A1.92,1.92,0,0,0,325.45,116.31Zm-7.69,0a1.93,1.93,0,1,0-1.93,1.92A1.93,1.93,0,0,0,317.76,116.31Zm-7.7,0a1.92,1.92,0,1,0-1.92,1.92A1.92,1.92,0,0,0,310.06,116.31Zm-11.54,0a1.93,1.93,0,1,0,1.93-1.92A1.93,1.93,0,0,0,298.52,116.31ZM340.83,124a1.93,1.93,0,1,0,1.93-1.92A1.93,1.93,0,0,0,340.83,124ZM337,124a1.93,1.93,0,1,0-1.93,1.92A1.93,1.93,0,0,0,337,124Zm-7.7,0a1.92,1.92,0,1,0-1.92,1.92A1.92,1.92,0,0,0,329.29,124Zm-7.69,0a1.92,1.92,0,1,0-1.92,1.92A1.92,1.92,0,0,0,321.6,124Zm-7.69,0a1.93,1.93,0,1,0-1.92,1.92A1.92,1.92,0,0,0,313.91,124Zm-11.54,0a1.93,1.93,0,1,0,1.92-1.92A1.92,1.92,0,0,0,302.37,124ZM337,131.69a1.92,1.92,0,1,0,1.92-1.92A1.93,1.93,0,0,0,337,131.69Zm-7.7,0a1.93,1.93,0,1,0,1.93-1.92A1.94,1.94,0,0,0,329.29,131.69Zm-7.69,0a1.93,1.93,0,1,0,1.93-1.92A1.94,1.94,0,0,0,321.6,131.69Zm-7.69,0a1.93,1.93,0,1,0,1.92-1.92A1.93,1.93,0,0,0,313.91,131.69Zm-7.69,0a1.92,1.92,0,1,0,1.92-1.92A1.93,1.93,0,0,0,306.22,131.69Zm26.92,7.7a1.93,1.93,0,1,0,1.92-1.93A1.92,1.92,0,0,0,333.14,139.39Zm-3.85,0a1.92,1.92,0,1,0-1.92,1.92A1.93,1.93,0,0,0,329.29,139.39Zm-7.69,0a1.92,1.92,0,1,0-1.92,1.92A1.93,1.93,0,0,0,321.6,139.39Zm-7.69,0a1.93,1.93,0,1,0-1.92,1.92A1.93,1.93,0,0,0,313.91,139.39Zm15.38,7.69a1.93,1.93,0,1,0,1.93-1.92A1.93,1.93,0,0,0,329.29,147.08Zm-7.69,0a1.93,1.93,0,1,0,1.93-1.92A1.93,1.93,0,0,0,321.6,147.08Zm-7.69,0a1.93,1.93,0,1,0,1.92-1.92A1.92,1.92,0,0,0,313.91,147.08Zm-7.69,0a1.92,1.92,0,1,0,1.92-1.92A1.92,1.92,0,0,0,306.22,147.08Zm19.23,7.69a1.92,1.92,0,1,0,1.92-1.92A1.93,1.93,0,0,0,325.45,154.77Zm-7.69,0a1.92,1.92,0,1,0,1.92-1.92A1.93,1.93,0,0,0,317.76,154.77Zm-7.7,0a1.93,1.93,0,1,0,1.93-1.92A1.94,1.94,0,0,0,310.06,154.77ZM171.6,70.15a1.93,1.93,0,1,0-1.93,1.93A1.93,1.93,0,0,0,171.6,70.15Zm-7.7,0A1.92,1.92,0,1,0,162,72.08,1.92,1.92,0,0,0,163.9,70.15Zm-7.69,0a1.93,1.93,0,1,0-1.92,1.93A1.92,1.92,0,0,0,156.21,70.15Zm-7.69,0a1.93,1.93,0,1,0-1.92,1.93A1.92,1.92,0,0,0,148.52,70.15Zm-7.69,0a1.93,1.93,0,1,0-1.93,1.93A1.93,1.93,0,0,0,140.83,70.15Zm-7.7,0a1.92,1.92,0,1,0-1.92,1.93A1.92,1.92,0,0,0,133.13,70.15Zm-7.69,0a1.93,1.93,0,1,0-1.92,1.93A1.92,1.92,0,0,0,125.44,70.15Zm32.69,5.77a1.93,1.93,0,1,0,1.93,1.93A1.93,1.93,0,0,0,158.13,75.92Zm-7.69,0a1.93,1.93,0,1,0,1.92,1.93A1.93,1.93,0,0,0,150.44,75.92Zm-7.69,0a1.93,1.93,0,1,0,1.92,1.93A1.93,1.93,0,0,0,142.75,75.92Zm-7.69,0A1.93,1.93,0,1,0,137,77.85,1.94,1.94,0,0,0,135.06,75.92Zm-7.7,0a1.93,1.93,0,1,0,1.93,1.93A1.93,1.93,0,0,0,127.36,75.92ZM137,85.54a1.93,1.93,0,1,0,1.92-1.92A1.92,1.92,0,0,0,137,85.54Zm74.52-31.1a1.92,1.92,0,1,0-1.92,1.92A1.92,1.92,0,0,0,211.5,54.44Zm-7.69,0a1.93,1.93,0,1,0-1.92,1.92A1.92,1.92,0,0,0,203.81,54.44Zm-7.69,0a1.93,1.93,0,1,0-1.93,1.92A1.93,1.93,0,0,0,196.12,54.44Zm34.61,7.69a1.92,1.92,0,1,0-1.92,1.92A1.93,1.93,0,0,0,230.73,62.13Zm-7.69,0a1.93,1.93,0,1,0-1.92,1.92A1.93,1.93,0,0,0,223,62.13Zm-7.69,0a1.93,1.93,0,1,0-1.93,1.92A1.93,1.93,0,0,0,215.35,62.13Zm-7.69,0a1.93,1.93,0,1,0-1.93,1.92A1.94,1.94,0,0,0,207.66,62.13Zm-7.7,0A1.92,1.92,0,1,0,198,64.05,1.93,1.93,0,0,0,200,62.13Zm-7.69,0a1.93,1.93,0,1,0-1.92,1.92A1.93,1.93,0,0,0,192.27,62.13Zm-7.69,0a1.93,1.93,0,1,0-1.93,1.92A1.94,1.94,0,0,0,184.58,62.13Zm3.84-7.69a1.92,1.92,0,1,0-1.92,1.92A1.92,1.92,0,0,0,188.42,54.44Zm-7.69,0a1.92,1.92,0,1,0-1.92,1.92A1.92,1.92,0,0,0,180.73,54.44Zm-3.84,7.69A1.93,1.93,0,1,0,175,64.05,1.94,1.94,0,0,0,176.89,62.13Zm-7.7,0a1.92,1.92,0,1,0-1.92,1.92A1.93,1.93,0,0,0,169.19,62.13Zm-7.69,0a1.93,1.93,0,1,0-1.92,1.92A1.93,1.93,0,0,0,161.5,62.13Zm-7.69,0a1.93,1.93,0,1,0-1.93,1.92A1.94,1.94,0,0,0,153.81,62.13Zm-7.7,0a1.92,1.92,0,1,0-1.92,1.92A1.93,1.93,0,0,0,146.11,62.13Zm-7.69,0a1.92,1.92,0,1,0-1.92,1.92A1.93,1.93,0,0,0,138.42,62.13Zm-7.69,0a1.93,1.93,0,1,0-1.92,1.92A1.93,1.93,0,0,0,130.73,62.13Zm-7.69,0a1.93,1.93,0,1,0-1.93,1.92A1.94,1.94,0,0,0,123,62.13Zm153.14,52.35.63-1.29s0-.07-.05,0l-.68,1.26C276,114.48,276.15,114.55,276.18,114.48ZM206.35,449.22c10.91.45,93.07,2.29,92.19-4.7,0,0,6.67-5.42-92.08-4.85C148.29,440.13,150.54,447.06,206.35,449.22ZM.08,234.75c.26-19.78,1.19-40.61,6.53-60a115.74,115.74,0,0,1,7.82-22.33,53.66,53.66,0,0,1,19.42-22.32c9.29-6,20.82-7.93,31.66-8.86,21-1.82,45.88,1.25,62.85-13.77.14-3.29.33-6.6.56-9.89-9-1.24-17.17-6.4-20.81-15-4.35-10.26-.69-22.16,4.16-31.5,5.07-9.78,13.29-17.76,22.16-24.09C153.5,13.39,177.18,6.49,200.05,2.74c36.54-6,74.57-2,109.33,10.59a202.26,202.26,0,0,1,48.24,25.18c10.33,7.37,21.74,18.81,25,31.45,4.31,16.66-16.15,25.29-23.2,38.12-5,9-6.9,19.89-9.65,30.26,0,.58,0,1.17,0,1.75.15,16.13.35,32.36.6,48.22.52,33.44,1.58,66.38,3.14,97.93,1.73,34.9,4.12,66.26,7.3,95.86.67,6.16,1.51,12.41,2.32,18.46,1.26,9.37,2.56,19.06,3.24,28.68a36.05,36.05,0,0,1-3.88,19.44,23.55,23.55,0,0,1-6.54,7.81,20.06,20.06,0,0,1-4.89,2.61c-4.6,2.86-10.94,3.84-16.12,4.63l-2.22.35c-6.57,1.07-13.75,1.95-22.61,2.77-12.86,1.19-26.42,1.94-43.95,2.44-11.84.3-23.19.41-33.74.33l-7.36-.1c-13.88-.24-25.92-.69-36.81-1.37-22.31-1.34-41.34-3.43-55.05-6l-1.32-.24c-4.41-.83-9-1.68-13.09-3.79-4.73-2.41-8.11-6.37-10.36-12.11-.21-.54-.4-1.08-.59-1.62A38.22,38.22,0,0,1,106,429.58c0-.23,0-.47,0-.71.85-9.59,2.31-19.26,3.73-28.65l0-.14c.31-2.06.63-4.15.94-6.24a12,12,0,0,0-.94-4.14,17.06,17.06,0,0,0-5.22-6.25c-4.35-3.45-9.58-5.71-14.74-7.67a256.67,256.67,0,0,1-33.26-14.9C35.07,349,17.8,331.62,9,308.57.08,285.17-.25,259.44.08,234.75ZM366.29,89.11c4.08-4.36,7.89-10.1,8.76-16.12,3-20.95-31.73-36.86-46.4-44.31A211.17,211.17,0,0,0,180.9,13.45c-51,13.46-65.66,38.44-65.19,54.79h.12a1.92,1.92,0,0,1,.28,3.82,19.84,19.84,0,0,0,1.73,5.23,1.92,1.92,0,1,1,1.83,2.49c-.1,0-.2,0-.3,0,.25.32.51.64.78.93a23.87,23.87,0,0,0,3.24,3h.13a1.9,1.9,0,0,1,1.81,1.31,18.84,18.84,0,0,0,4.5,1.94,1.92,1.92,0,1,1,2,.47,31.18,31.18,0,0,0,13-.92,2,2,0,0,1-.22-.88,1.93,1.93,0,0,1,1.93-1.92,1.9,1.9,0,0,1,1.9,1.77c5.21-1.61,10.65-3.86,16.28-5.93a1.92,1.92,0,1,1,3-1.61,1.8,1.8,0,0,1-.1.57c1.37-.48,2.74-.94,4.13-1.38a1.9,1.9,0,0,1,2.76-.82A51.79,51.79,0,0,1,193.37,74a35.51,35.51,0,0,1,9.68,2.35,1.87,1.87,0,0,1,1.24-.47,1.91,1.91,0,0,1,1.91,1.83,88.2,88.2,0,0,1,11.38,6.63c4.49,3,9,6,14,8,.53.21,1.06.38,1.59.54a1.92,1.92,0,0,1,3.81.36,1.84,1.84,0,0,1,0,.41,26.44,26.44,0,0,0,4,.14,2,2,0,0,1-.09-.55,1.93,1.93,0,0,1,3.85,0c0,.07,0,.14,0,.21,1.31-.19,2.62-.44,3.94-.72a1.91,1.91,0,0,1,3.29-.75c7.74-1.81,14.92-2.58,21.76-.65a2,2,0,0,1,.74.2,28.83,28.83,0,0,1,4.94,2.1,2.34,2.34,0,0,1,0-.39,1.93,1.93,0,1,1,2.47,1.84c.75.49,1.49,1,2.23,1.59,9.49,7.45,14,19,16.73,30.39q.34,1.47.66,3a1.9,1.9,0,0,1,.57,2.86c.33,1.7.65,3.42,1,5.13a1.92,1.92,0,0,1,1.34-.55,1.93,1.93,0,1,1,0,3.85,2,2,0,0,1-.65-.12c1.45,6.18,3.57,12.12,8.08,16.67a12.9,12.9,0,0,0,3.78,2.72,1.86,1.86,0,0,1,.33,0,1.92,1.92,0,0,1,1.45.67,11.1,11.1,0,0,0,4.66.17,2,2,0,0,1,1.59-.84,1.92,1.92,0,0,1,.86.21,24.83,24.83,0,0,0,8.77-5.76c0-.07,0-.14,0-.22a1.92,1.92,0,0,1,1.92-1.92h.12a34.14,34.14,0,0,0,3-4,1.92,1.92,0,0,1,.71-3.7,1.87,1.87,0,0,1,1.16.4c.72-1.43,1.36-2.9,1.95-4.4a1.92,1.92,0,0,1,.74-3.7,1.8,1.8,0,0,1,.57.1c.55-1.67,1.05-3.37,1.53-5.07a2,2,0,0,1-.18-.8,1.92,1.92,0,0,1,.81-1.56c1.29-4.91,2.42-9.88,3.93-14.6a54.55,54.55,0,0,1,2-5.26,1.88,1.88,0,0,1-1,.27,1.93,1.93,0,1,1,1.89-2.29,56.56,56.56,0,0,1,3.53-6.23,1.91,1.91,0,0,1-1.57.83,1.94,1.94,0,1,1,1.61-.89A93.66,93.66,0,0,1,366.29,89.11ZM118.25,430a63,63,0,0,0,.9,8.35A14.7,14.7,0,0,0,126.26,449c3.55,2,7.8,2.79,11.9,3.52l.22,0c12.79,2.28,31.49,4.09,54.08,5.24,13.27.63,25.2,1,36.49,1.2,3.7,0,7.45.1,11.26.13,10.81.09,20.46.05,29.5-.14,15.2-.31,29.82-1,43.45-2,8.68-.7,15.7-1.47,22.09-2.43l.58-.09c4.71-.71,9.59-1.45,13.64-3.53,12-6.2,9.76-24,8.25-35.73l-.12-.93c-1.7-13.37-3.27-27.93-5-45.81-2.89-30.71-5-61.64-6.4-92-1.23-27.51-2.12-56.81-2.79-92.23-.17-8.47-.3-17.48-.43-28a36.75,36.75,0,0,1-8.48,10.19c-5.78,4.76-13.73,7.31-20.95,5.33-10.28-2.81-16.3-13.58-18.76-23.94s-2.55-21.34-6.54-31.21c-11.33-28-37.25-10.11-58.42-15.36-7.08-1.76-12.94-6.55-19.34-10a57.24,57.24,0,0,0-40-5.08c-7,1.61-12.58,4.81-18.81,8.1a33.94,33.94,0,0,1-12,3.38c.19,10.77-.13,21.73-.43,31.53l0,.73q-.12,4.08-.23,8.15l-.3,10.67c-.36,13-.7,23.78-1.06,33.85-1.26,35.43-2.64,64.73-4.33,92.18-1.87,30.29-4.53,61.19-7.93,91.85-2,17.86-3.79,32.39-5.72,45.74-.46,3.2-.9,6.35-1.19,9.55A71.47,71.47,0,0,0,118.25,430Zm-.93-104.63h0l.14-.1a7.71,7.71,0,0,0,1.15-2.49c1-11.68,1.92-24,2.76-36.61.49-7.41,1-15.06,1.41-22.74.7-12.27,1.35-24.89,1.91-37.49s1-25.38,1.44-37.62q.23-6.78.42-13.57c-2.1-4.54-4.57-7.88-9-10.6-5.14-3.18-11.73-3.52-17.59-3.75-11-.43-23-.86-33.25,3.64S52.17,178.7,49.57,188.75c-3.31,12.79-4.44,26.34-4.91,39.5-.88,24.66,2.1,50.47,15.13,71.93a56.14,56.14,0,0,0,33.12,25.27,50.93,50.93,0,0,0,14.54,1.67,32.12,32.12,0,0,0,6.92-.55,7.46,7.46,0,0,0,2.87-1.16ZM7.68,254.75c.89,25.47,5.63,51.82,22.23,72.14,13.94,17.05,34.36,27.78,54.55,35.89,8.28,3.33,16.92,5.91,24.09,11.17,0-.11.07-.21.12-.32.85-1.6,1.6-3.22,2.28-4.88C94.57,359.42,39.71,349.16,21,307.29c-7.35-16.44-10.14-34.87-10.63-52.67-.26-9.48-.06-19.16.29-28.5-.08-7.94,1.19-15.9,1.75-23.66a139,139,0,0,1,9.51-42.2c.06-.17.48,0,.42.17-5,13.41-7.22,27.91-8.18,42.12,0,.24,0,.49,0,.73-.47,14.54-1.46,29.51-.9,44,2.68,69.6,21.19,93.36,99.56,116.23a56.8,56.8,0,0,0,2-10.09,59.1,59.1,0,0,0-.15-10.48C86.55,350.1,60.11,332,47,306.06c-.94-1.87.25-2.65,1.42-.59a66.5,66.5,0,0,0,65.87,33.38c-.06-1.15-.09-2.31-.08-3.47-22.76,2.71-43.72-7.73-58.29-25.66-17-20.85-20.79-48.74-21-74.78a217.66,217.66,0,0,1,4.21-43.5c2.22-11.41,6.28-22.86,15.35-30.62,8.88-7.58,21.18-9,32.4-9.28,12.08-.26,25.7-.46,36.24,6.25.23.14.44.29.66.44.31-1.35.63-2.69,1-4-10.81-6.2-24.32-6.51-36.61-6.47-15.29,0-34.91,3.19-43,19.44-1.07,2.14-2.19,1.49-1.24-.7,7.24-16.68,24.91-24.74,41.22-24.94,13.72-.17,28.66,1.24,40.8,7.94a66.91,66.91,0,0,0,1.61-9.71q.09-3.6.17-7.22c-.07-2.4-.24-4.81-.51-7.18-.12-1.06-.32-2.12-.53-3.17a.9.9,0,0,1-.43.76c-11.57,6-25.36,8.54-38.16,8.7a214.61,214.61,0,0,0-45.11,5.05.12.12,0,0,1-.08-.22c11.64-5.92,21.53-6.72,38.4-7a127.19,127.19,0,0,0,44.38-8.66c.34-.13.63.09.81.43-.26-1.31-.52-2.61-.68-3.92-17,10.21-38.78,8.79-58.21,10.12-12.82.87-25.84,3.63-35.78,12.15-9.34,8-14.18,20.07-17.42,31.54C6.79,197.91,6.7,227.16,7.68,254.75Zm171-78.61c-4,0-4.36,6.24-.3,6.28S182.75,176.18,178.69,176.14Zm87.1,1.33a2.83,2.83,0,0,0-2.91,2.65,2.78,2.78,0,1,0,2.91-2.65Zm-1.59-8.53a2.72,2.72,0,0,0,1.58-5l-.26-.16a2.22,2.22,0,0,0-2.19-.1l-.23.13a2.78,2.78,0,0,0-1.43,3A2.74,2.74,0,0,0,264.2,168.94Zm8.74,4.47a3.41,3.41,0,1,0,3.57-3.24A3.42,3.42,0,0,0,272.94,173.41Zm48.22,227.22a26.74,26.74,0,0,0,8.91-3.06,16.33,16.33,0,0,0,4-2.13,19.7,19.7,0,0,0,5.42-6.36,29.91,29.91,0,0,0,3.42-15.91c-.44-7.9-1.37-15.88-2.28-23.61-.59-5-1.19-10.17-1.66-15.28-2.24-24.66-3.82-51-4.83-80.52-.74-22-1.19-45-1.35-68.59l0-3.46c-5.39.3-10.62.58-15.73.83,0,.33-.06.66-.06.85l0,2c.13,10.31.17,20.69.13,31v1.89c-.09,24-.15,47.94,0,71.91s1.15,47.83,1.5,71.75c.18,12,1.22,23.87,2.26,35.8C321,398.75,321.07,399.69,321.16,400.63Zm-190.7-27.17a31.54,31.54,0,0,0,1.7,12.08c.16.45.33.89.5,1.33,1.88,4.63,4.65,7.84,8.45,9.8,1.09-10.08,2.14-20.18,3.3-30.23,2.57-22.35,3.7-44.65,5.18-67.12s2.41-44.9,3.15-67.36c.37-11.24.57-22.49.68-33.73.06-5.54-.24-11.48-.22-17.35l-9.4-.74,0,3.47c-.14,6.13-.3,12.31-.48,18.5-.32,10.86-.71,21.7-1.15,32.21-.28,6.56-.58,13.08-.9,19.38-.55,10.82-1.17,21.34-1.86,31.28-.3,4.29-1.44,19-1.55,20.28q-.33,3.86-.67,7.68l-.3,3.33c-.55,6-1.15,12-1.78,17.79-.55,5.06-1.23,10.18-1.9,15.12v.12c-1,7.75-2.11,15.71-2.68,23.58ZM261,405.85c-9.61.25-18.83.34-27.39.27-2,0-4,0-6-.08-11.27-.2-21-.56-29.89-1.11-18.12-1.09-33.6-2.79-44.76-4.91l-1.07-.2a45.16,45.16,0,0,1-9.31-2.44c1.61-10.17,3.1-20.38,4.27-30.73,2.53-22.25,5.64-44.57,7.53-66.92s3.48-44.77,4.39-67.26c.45-11.22.86-22.45,1.13-33.69.09-4,.36-8.27.54-12.59a7.3,7.3,0,0,0,.93.08,8.54,8.54,0,0,0,6-2.16A8.21,8.21,0,0,0,169,182l4.69.3a4.4,4.4,0,0,0,4.56,4,4.82,4.82,0,0,0,4.8-3.44l3.36.19a4.43,4.43,0,0,0-.54.43,5.42,5.42,0,0,0-1.52,2.38,5.26,5.26,0,0,0,.34,4.06.67.67,0,0,1,.06.12,2.25,2.25,0,0,1-.08-.24,5.39,5.39,0,0,0,2.1,2.52,5.59,5.59,0,0,0,2.72.86,5.58,5.58,0,0,0,5.24-8.09,5.48,5.48,0,0,0-1.4-1.69l6.48.28a11.63,11.63,0,0,0,2.15,3.48,11.83,11.83,0,0,0,11.14,3.59c.17,0,.32-.09.49-.13a11.06,11.06,0,0,0,7.88-6.25q6.45.13,12.9.19c-.33,2.89,1.28,5.94,5,6a5.51,5.51,0,0,0,5.59-5.93c5.92,0,11.89-.06,18-.16a2.93,2.93,0,0,0,3,3.39,3.24,3.24,0,0,0,3.28-3.51c7.55-.17,15.3-.4,23.32-.71-.69,12-.66,24.15-.42,36.13.47,24.09,1.83,48,3.82,72,2.05,24.69,4.07,49.6,7.63,74.08,1.73,11.82,2.69,23.74,4,35.62,0,.4.07.82.1,1.23-3.33.42-6.92.81-10.95,1.18C286.26,404.84,275.25,405.45,261,405.85Zm-88.2-169.17c3.35,0,3.61-5.18.24-5.21S169.44,236.65,172.81,236.68Zm5-39.47a4.82,4.82,0,0,0-3-2.55,4.92,4.92,0,1,0,2.69,7.33,4.65,4.65,0,0,0,.37-.74c.06-.12.1-.26.15-.39v0a4.22,4.22,0,0,0,.3-1.34A4.54,4.54,0,0,0,177.78,197.21Zm4.84,12.85a3.28,3.28,0,0,0-3.29-.16l-.44.28a3.18,3.18,0,0,0-1.65,2.55,3.08,3.08,0,0,0,1.4,2.7l.41.27a3.34,3.34,0,1,0,3.57-5.64Zm42.67,100.1c-5.46-.05-5.88,8.41-.41,8.46S230.76,310.2,225.29,310.16Zm.26-56.82a4.69,4.69,0,0,0-3.34-1.61,4.61,4.61,0,0,0-2.31.49c-.37.24-.72.49-1.08.74a4.58,4.58,0,0,0-.3,6.47,4.82,4.82,0,0,0,2.08,1.35c.44.11.89.17,1.34.24a4.42,4.42,0,0,0,3.31-1.19,4.56,4.56,0,0,0,1.29-2A4.71,4.71,0,0,0,225.55,253.34Zm-5,125.65c4.43,0,4.78-6.84.32-6.88S216.09,379,220.55,379Zm-4.29-31.77a4.57,4.57,0,1,0-4.35-4.77A4.62,4.62,0,0,0,216.26,347.22Zm-13.11-45.44a4.65,4.65,0,1,0,4.87-4.42A4.68,4.68,0,0,0,203.15,301.78Zm2.35-30.2a3.19,3.19,0,1,0,3.34-3A3.22,3.22,0,0,0,205.5,271.58Zm4.75-21c-3.15,0-3.4,4.87-.23,4.89S213.42,250.64,210.25,250.62Zm7.33-16.21a5.19,5.19,0,1,0,4.94,5.43A5.26,5.26,0,0,0,217.58,234.41Zm3.48-29.76a4.94,4.94,0,1,0,5.17-4.7A5,5,0,0,0,221.06,204.65Zm7.16-17c-4.76,0-5.13,7.34-.35,7.38S233,187.72,228.22,187.68Zm5.31,43.1a2.69,2.69,0,0,0-1.8-2,2.88,2.88,0,0,0-2,.16l-.41.15a2.47,2.47,0,0,0-1.3,2.74,2.54,2.54,0,0,0,1.68,1.85l.44.17C232,234.61,233.92,232.64,233.53,230.78Zm7.53-38.32c-4.55,0-4.9,7-.34,7S245.62,192.5,241.06,192.46Zm29.61,2.26c-4.44,0-4.78,6.85-.33,6.89S275.12,194.76,270.67,194.72Zm20,143.6c-1.44-16.57-2.65-33.16-3.52-49.77-1.62-31.15-2.56-62.37-2.36-93.56a.54.54,0,0,0-1.07-.06c-.8,31.95-.62,63.87,1.14,95.78.84,15.3,1.91,30.58,3.3,45.83,1.44,15.74,2.21,32.08,5.76,47.5.12.51.94.47.93-.08C294.55,368.74,292,353.48,290.67,338.32Zm-17-197c-4.38,0-4.72,6.75-.33,6.79S278.08,141.37,273.69,141.33Zm11.92,18.49a4.49,4.49,0,1,0-4.69,4.26A4.52,4.52,0,0,0,285.61,159.82ZM260,139.18a5,5,0,0,0,3.43.62l.51-.06a4.28,4.28,0,0,0,2.84-2,4.54,4.54,0,0,0,.68-2.17,4.49,4.49,0,0,0-2.06-4l-.45-.29a4.63,4.63,0,1,0-4.95,7.83Zm6.07-18.86a3.62,3.62,0,1,0-3.79,3.45A3.65,3.65,0,0,0,266.07,120.32Zm2.73-13.38c-3.8,0-4.1,5.88-.28,5.91S272.62,107,268.8,106.94Zm-52.75,75.41a6.27,6.27,0,0,0,.87-4.82,6.59,6.59,0,0,0-1.55-3,5.41,5.41,0,0,0-1.47-1.18,6.47,6.47,0,0,0-6.28-.24,6.5,6.5,0,1,0,8.43,9.28Zm-17.58-10.09a5,5,0,0,0-8.62-.41,4.94,4.94,0,0,0-.77,2.41,5,5,0,0,0,.53,2.48l.24.36a4.69,4.69,0,0,0,8.15.39l.23-.34A4.94,4.94,0,0,0,198.47,172.26Zm4.24-14.13c-5.2,0-5.61,8-.38,8.08S207.93,158.17,202.71,158.13Zm-38.61-2.69a4.58,4.58,0,1,0,4.35,4.78A4.64,4.64,0,0,0,164.1,155.44Zm11.56-2.82a4,4,0,0,0,1.3-2.75,4,4,0,0,0-4.8-4.08,4.48,4.48,0,0,0-2.12,1,4,4,0,0,0-1.29,2.71,4,4,0,0,0,3.05,4A4.11,4.11,0,0,0,175.66,152.62ZM173.45,138a4,4,0,1,0-4.19,3.81A4,4,0,0,0,173.45,138Zm-12.16-10.47a3.12,3.12,0,0,0-2.17-3.11,3,3,0,0,0-3,.67l-.07.08a2.84,2.84,0,0,0-1.11,2.08,2.81,2.81,0,0,0,1.14,2.39A3.13,3.13,0,0,0,161.29,127.48Zm28.65,54.94a3.8,3.8,0,1,0,3.62,4A3.86,3.86,0,0,0,189.94,182.42Zm-32.05-10.74a5.84,5.84,0,0,0,3.65,10.16,6,6,0,0,0,4.21-1.52,5.84,5.84,0,0,0-3.66-10.15A6,6,0,0,0,157.89,171.68ZM137,405.07c14.36,6.6,31.33,9.14,46.82,11.7,15.91,2.64,32.27,3.42,48.4,3.65h.25c16.12,0,32.5-.47,48.45-2.84,15.65-2.32,32.79-4.59,47.32-11.05a3.14,3.14,0,0,0,0-.61c-8.79.42-16.07,1.48-23.86,2.37-7.27.84-14.56,1.63-21.86,2.25-17.07,1.46-33.13,2.65-50.14,2.52-15.87-.14-31.89-1.43-47.69-3-8.07-.81-16.09-2-24.13-3.1-8.25-1.09-15.79-2.45-23.31-2.93A.56.56,0,0,0,137,405.07Z"/></g></g></svg>