<svg xmlns="http://www.w3.org/2000/svg" viewBox="0 0 195 197.39"><defs><style>.cls-1{fill:#f7d16d;}.cls-2{fill:#e19614;}.cls-3{fill:#fff;}</style></defs><g id="圖層_2" data-name="圖層 2"><g id="event"><g id="event_photo_deco_6"><path class="cls-1" d="M170.4,11.21h0c-.37-12-17.32-12.83-26-9.53-13.66,4.7-23.18,15.93-32.17,26.69-14,16-23.87,35.14-32.93,54.22-1.54,4.46-1.92,10.72,2.09,14,4.36,2.51,9.87,4.39,14.59,1.6,9-4.63,11.87-15.11,16.77-23.25,5.49-9,10.15-18.88,17.83-26.27,11.45-11.31,34.88-22.12,39.8-37.42Zm-18.52,3.31h0l-.82.69a4.55,4.55,0,0,0,0-.53l.86-.16Z"/><path class="cls-2" d="M30.38,169.7c-2.28-4-8.79-5.7-12.78-3.7-12.42.53-25,19.43-12.34,28C22.21,205.12,39.51,186.78,30.38,169.7Z"/><path class="cls-3" d="M192.75,81.8a4.17,4.17,0,0,1,.73,3.34c5.3,12.89-4.37,26.1-11.84,36.48-10.54,14.27-24.44,17.4-39.71,23.93-10.41,5.54-16.86,15.65-24.4,24.32C108.22,180,95,189,80.75,188.22c-7.41.44-7.72-7.27-9.22-12.64-2.1-14.11,11-14.28,20-19.43A77.66,77.66,0,0,0,103.2,147c9.79-9.85,18.14-21,30-28.71,8.58-6,20.52-7.66,28-15.11a64,64,0,0,0,7.15-10.47C171,87.94,172,81.23,178,78.9a14.44,14.44,0,0,1,14.8,2.9Z"/></g></g></g></svg>