<svg xmlns="http://www.w3.org/2000/svg" viewBox="0 0 270.29 393.52"><defs><style>.cls-1{fill:#e19614;}.cls-2{fill:#fff;}</style></defs><g id="圖層_2" data-name="圖層 2"><g id="event"><g id="event_woman_3"><path class="cls-1" d="M173.09,94.19c-5.4,1.35-11.7.47-16,4.81-5.54,4.2-6.33,13.82,1.37,16,9.37,1.76,22.29-4.38,24.49-14.13.29-5.09-5.5-7.76-9.88-6.71Z"/><path class="cls-2" d="M169.38,68.61c-7.65,1.55-16,4.78-20.83,11.2-4.81,5.52-8.85,11.63.2,15.51,10.57,3.37,22.33-3,27.45-12.33,3.35-8.61,5.84-15.62-6.82-14.38Zm4,5.33a6.15,6.15,0,0,1,1.17.38,14.58,14.58,0,0,1-1,3.24v0c-3.35,8.75-16.16,15.8-25.07,11.88,5.56-8.38,14.56-15,24.87-15.48Z"/><path class="cls-2" d="M166.12,75.86c-6.27,2-5,12.38,2.23,10.67,6.42-1.19,4.05-12.25-2.23-10.67Z"/><path class="cls-2" d="M136.69,86.08c-1.19,2.78,2.88,3.28,4.68,4,1.71.33,3.21,1.79,4.95,1.67,3.39-2.06-1.74-3.79-3.46-4.59-1.93-.48-4.57-3.46-6.17-1.06Z"/><path class="cls-2" d="M143.08,77.68c-5.35,2.39,3.77,5.77,6.15,6a1.3,1.3,0,0,0,.63-2.52c-2.8-.18-4.42-2.66-6.78-3.51Z"/><path class="cls-2" d="M149.43,71.45c-3.87,2,2.47,7.27,4.73,8,3.52-.73,1.11-3.67-.67-4.92-1.37-.94-2.11-3.49-4.06-3Z"/><path class="cls-2" d="M157.49,65.58c-5,1.24.1,7,1.42,9.52,1.59,2.57,5.62.08,4-2.48-1.9-2.12-2.23-6.51-5.4-7Z"/><path class="cls-2" d="M165.82,63.43c-3.67,1-.28,6.31,0,8.83.64,2.23,4.14,1.21,3.46-1-1.29-2.33-.46-7.07-3.45-7.81Z"/><path class="cls-2" d="M172.84,63.68c-3-.09-1.11,7.68-.31,9.22,5,3.49,3.2-9.47.31-9.22Z"/><path class="cls-2" d="M162.5,45.63c-12.39,1.31-23.27,9.12-31.79,17.78-3,2.77-4.39,6.59-6.63,9.9a2.13,2.13,0,0,0,2.46,3c2-1.13,2.78-3.84,4.3-5.58a61.86,61.86,0,0,1,30.94-18c1.61-.2,3.22.08,4.82-.32a3.45,3.45,0,0,0,1.94-5.08c-1.22-2.1-4-1.63-6-1.69Z"/><path class="cls-2" d="M138.77,0C96.84,2.07,51.13,31.52,42.08,74.18c-2,7.33-1.56,14.36-2,21.74-1.16,17.07-21.82,24-23.35,40.93-4.91,24.8,21.73,33.53,12.25,55.26C23.59,205,10.79,212.34,4.37,224.37c-13.1,29.48,5,56.32,31.48,69.87h0l.07.05h0l.19.13h0c15,12.54,2.16,33.69,5.44,49.91,3.07,37,38.06,55.27,72.31,47.36,32-6.52,57.22-28.49,54.88-63.1a170.06,170.06,0,0,0-3.65-20.13c-2.46-8.17-3.23-16.47,1.09-24,4.65-7.78,11.12-15.52,11.76-24.89l-.05.31c2.44-14.59-7.39-28.2-20.17-33.81-8.73-3-19.52-6.77-19.19-18-.65-11.47,8.68-21.76,8.28-33.25,1-11.55-6.76-22-16.19-28-13.36-6.87-25-8.86-25.24-27-.11-2.51,0-5.32,2.95-6.33a14.1,14.1,0,0,1,4.38-1.93c2.5-.49,4.4,0,6.73.48,4.74-.37,2.75-5.64,1.68-8.5-3.72-10.4-7.84-21.21-9.14-32.41-1.74-10.16-2.1-16.4,8.18-21.69a421.1,421.1,0,0,0,43.66-28.13C179.46,36.92,177.6,66,203.51,69.65c4.48,1.64,12.53,1,15,5.09-3.2,3.93-8.36,6.61-13,8.78-6.6,1.83-3.13,8.26-1.52,12.56,2.24,6.44,4.7,13,6.41,19.61-2.87,1.54-5.8,2.87-8.71,4.31h0c-7.69,3.54-17.45,6.67-6,14.15l-.44-.34.45.32s.06.06.06.07l-.05-.06c3.64,3,8.4,4.18,13,4.52,3.23,8.93,2.85,22.6-6.54,27.6-4,2.16-8.92.11-12.53,2.53-2.31,3.1.43,7,.65,10.34,1.44,8.22,2.88,16.07,4.44,24.22,4.48,23,8.94,45.72,15.18,68.18,1.13,4.32,3,8.39,4.07,12.72.59,2.79,5.07,3.4,6.36.68a3.31,3.31,0,0,0,.28-2.64A115.86,115.86,0,0,1,215,264.06c-7.23-30.13-13.71-60.59-20-90.92,19.28.37,25.59-23.24,18.14-37.83a.74.74,0,0,0,0,.14c-2.4-4.1-10.73-1-14.93-5.74l-.23-.17.23.18a18.62,18.62,0,0,1-1.51-1.26c4.62-2.57,9.31-4.78,13.81-7.21l-.12,0c6.55-2.31,5.61-5.78,4.47-11.61a82.2,82.2,0,0,0-6.56-20.84c8.19-4.52,24.05-12.9,11.58-22.43-5.6-3.34-12.69-2.63-18.73-4.84C195.91,60,192,57.05,189.8,51.67,182.32,36.11,177.19,17.39,162,7.51h0a4.52,4.52,0,0,0-4-2.59C152.26,1,145.43.79,138.77,0Z"/><path class="cls-2" d="M160.76,104.52c-2.69,1,2.66,9.91,4.77,8,1.89-1.31-.13-3.35-.74-4.83-.91-1.47-1.78-4.44-4-3.19Z"/><path class="cls-2" d="M166.24,101.68c-1.92,1.28,0,3.43.6,4.93.63,1.74,2.62,4.57,4.3,2.15.69-1.42-.69-2.87-1.2-4.16-.76-1.44-1.58-4.13-3.7-2.92Z"/><path class="cls-2" d="M171.84,99.15c-2.23,1.43,1.36,5.38,2.48,6.84a1.06,1.06,0,0,0,1.5-1.5l.06.08c-1.67-1.28-1.95-5.44-4-5.42Z"/><path class="cls-2" d="M177.23,96.07c-2.07,1.14,2.47,8.92,4,5.17-.18-1.33-2.09-6.51-4-5.17Z"/><path class="cls-2" d="M182.15,92.08c-2.05.71,1.38,6.84,3,6,2.75-.69-.83-7.51-3-6Z"/><path class="cls-2" d="M241.78,275.9c-16.39,3.5-32.24,10.3-47.76,16.66l.65-.29c-11.26,5.24-23.2,9.25-33.55,16.27-2.36,2.13-8.27,5.47-5.29,9.06a2.88,2.88,0,0,0,4-.12c2-2.53,4.86-4.06,7.77-5.37l-.42.19c24.06-11.24,49.44-19.22,74.72-27.11,10-.36,14.47,19.15,20.82,25.63-19,6.48-38.44,11.54-57.42,18.08-12.49,5.16-24.53,11.35-37.11,16.32-5.3,2.24-10.45,4.8-15.75,7-2.4,1.09-6.57,2.14-5.64,5.6,1.39,3.95,5.46,1.62,7.93.15,3.93-1.9,7.9-3.74,11.86-5.58,10.88-4.81,22-9,32.66-14.35l-.75.33c16.94-7.73,35.42-11.18,52.79-17.78,10.27-4.8,25.89-2.17,15.58-17.71-5.84-10.48-10.7-27.07-25.13-27ZM264.72,310v0Zm-97.63,2.34-.25.11.25-.11Zm4.74,37.76-.2.09.2-.09Zm21.85-57.41.34-.15-.34.15Z"/></g></g></g></svg>