<svg xmlns="http://www.w3.org/2000/svg" viewBox="0 0 244.72 169.84"><defs><style>.cls-1{fill:#b29362;}.cls-2{fill:#fff;}</style></defs><g id="圖層_2" data-name="圖層 2"><g id="event"><g id="event_photo_deco_5"><path class="cls-1" d="M14.81,55.31a.57.57,0,0,0-.06.15c-.09.29-.18.36-.28.25a.43.43,0,0,1-.12-.14c0-.13-.12-.17-.19-.17a.31.31,0,0,1-.12-.09A.61.61,0,0,1,14,55c0-.23,0-.46,0-.69a2.83,2.83,0,0,1,.14-.88c.17-.37.33-.68.51-.72a1.48,1.48,0,0,1,.66,0,.28.28,0,0,0,.13,0c.25,0,.49.12.73.15s.18.16.27.25.16.16.24.15a2.16,2.16,0,0,1,.44,0,2.29,2.29,0,0,1,.36.07.42.42,0,0,0,.33-.09.59.59,0,0,1,.28-.13.45.45,0,0,1,.2,0l.13.09c.11.09.23.15.35,0s.12,0,.18,0c.07.21.16.11.24.1s.09-.07.12-.19.13-.26.19-.18.24.1.36.08a1.73,1.73,0,0,1,1.12-.07H21c.29-.13.59,0,.89-.06.1,0,.2,0,.3.07a1,1,0,0,1,.33.17.56.56,0,0,0,.43.15.21.21,0,0,0,.2-.1c.09-.11.17-.12.26-.07s.25.17.38,0c.12.08.23,0,.35,0s.07,0,.1,0,.35-.13.53-.11.26,0,.39,0a1,1,0,0,1,.38.14,2.46,2.46,0,0,0,1,.44c.11.14.18,0,.23-.36a.77.77,0,0,1,.18-.46s0,0,.07,0a1.43,1.43,0,0,1,.31.26.34.34,0,0,0,.26.14l.92,0a.41.41,0,0,0,.25-.08c.13-.09.27,0,.39-.23s.12,0,.18,0c.24.22.46.09.68,0s.15-.06.23,0a.11.11,0,0,0,.13,0c.17-.12.37-.07.54-.29s.11-.05.17-.08c.08.13.12.47.2.66s.11.25.17.15.27-.2.42,0,0,.06.06,0,.29.16.44.17.35.32.53.51A.91.91,0,0,1,33,54a1.83,1.83,0,0,1,.1.62.8.8,0,0,1-.09.48.13.13,0,0,1-.2,0,.14.14,0,0,0-.16,0c-.1,0-.19.14-.31,0s-.08,0-.12.09-.25.22-.4.15-.21,0-.29.15-.07.08-.1.07a1.22,1.22,0,0,1-.37,0,.78.78,0,0,0-.81.22.34.34,0,0,1-.28.1,2.32,2.32,0,0,1-.45-.06.85.85,0,0,1-.42-.36c0-.06-.09-.09-.13-.15s-.23-.18-.34-.06a.74.74,0,0,1-.58.23c-.07,0-.14,0-.19.17a.2.2,0,0,1-.12.12.61.61,0,0,1-.29.06c-.1,0-.2,0-.29.18a.06.06,0,0,1-.1,0,.84.84,0,0,1-.29-.28.63.63,0,0,0-.49-.29c-.06,0-.12.06-.18-.07s-.18-.22-.28-.18a3.08,3.08,0,0,1-.71.3c-.22.21-.45.1-.67.33,0,.06-.1.06-.15,0s-.19-.15-.28-.08-.23.05-.34.07-.1-.06-.14-.2-.08-.16-.13-.17a.8.8,0,0,0-.69.06.46.46,0,0,1-.29.08.46.46,0,0,0-.2,0c-.07,0-.13,0-.19,0a.22.22,0,0,0-.28.06s0,0,0,0c-.24-.1-.48.13-.72,0a.34.34,0,0,0-.29,0,.49.49,0,0,1-.41,0c-.06,0-.12,0-.18,0s-.23,0-.34-.09-.17,0-.26,0a3.61,3.61,0,0,1-.44.22c-.09.05-.17,0-.25-.08a1.93,1.93,0,0,1-.27-.3,1.09,1.09,0,0,0-.43-.32s-.07-.05-.1,0-.24,0-.35-.17c0,0-.05-.08-.07-.07s-.31-.06-.47,0-.35.22-.52.12c-.22.17-.45.1-.68.32a1.68,1.68,0,0,1-.21.18s-.09.05-.13,0-.22,0-.32-.19-.07,0-.1,0Z"/><path class="cls-1" d="M17.8,27.77a.76.76,0,0,0-.13.1c-.24.2-.35.21-.36.07a.5.5,0,0,1,0-.18c0-.14,0-.2-.05-.25s0-.07,0-.13a.68.68,0,0,1,.13-.32c.12-.2.24-.39.38-.58a2.84,2.84,0,0,1,.6-.66c.33-.22.63-.4.79-.34a1.28,1.28,0,0,1,.55.3.24.24,0,0,0,.11.06c.22.09.32.35.49.51s.06.22.07.34,0,.21.12.25a1.5,1.5,0,0,1,.33.23,2.73,2.73,0,0,1,.25.23.33.33,0,0,0,.31.1.64.64,0,0,1,.29,0,.32.32,0,0,1,.14.14s0,.09.05.14.1.24.29.16.1.05.15.07c0,.21.08.17.15.21s.1,0,.19-.1.24-.15.25-.05.13.21.24.24a1.7,1.7,0,0,1,.92.52.07.07,0,0,0,.06,0c.3.05.45.34.73.41.1,0,.15.14.2.22a.63.63,0,0,1,.17.31.54.54,0,0,0,.26.35.21.21,0,0,0,.21,0c.13,0,.2,0,.24.07s.11.27.29.21c.05.13.18.13.29.16s.06,0,.1,0c.24-.07.35.07.48.18s.21.13.29.21a.85.85,0,0,1,.23.32,2.11,2.11,0,0,0,.52.85c0,.17.13.1.37-.19a.76.76,0,0,1,.39-.29,0,0,0,0,1,.07,0,1.34,1.34,0,0,1,.1.37.34.34,0,0,0,.13.26l.74.44a.39.39,0,0,0,.24.06c.15,0,.24.1.43,0s.12,0,.14.1c.08.3.32.31.54.35s.15,0,.19.1.05.09.09.08c.21,0,.33.14.58,0,.08,0,.12,0,.18,0a5.81,5.81,0,0,1-.2.65c0,.17,0,.28.06.22s.32,0,.35.18c0,0,0,.07,0,.07s.15.28.26.37.11.45.15.71c0,0,0,.11,0,.18a2.25,2.25,0,0,1-.25.57c-.13.21-.25.34-.33.36s-.15,0-.16-.09,0-.12-.1-.13-.23,0-.28-.11-.08,0-.14,0-.32.06-.4-.07-.14-.14-.31,0-.09,0-.12,0a1.86,1.86,0,0,1-.26-.23.75.75,0,0,0-.77-.24.28.28,0,0,1-.27,0,2.14,2.14,0,0,1-.32-.28.85.85,0,0,1-.14-.52c0-.08,0-.12,0-.2s-.09-.27-.24-.22a.7.7,0,0,1-.58-.11c-.06,0-.12,0-.25,0a.15.15,0,0,1-.16,0,.37.37,0,0,1-.25-.09c-.07-.08-.14-.15-.33,0a.07.07,0,0,1-.11,0,.78.78,0,0,1-.07-.38.63.63,0,0,0-.23-.5c-.05,0-.13,0-.11-.15s0-.28-.12-.29a2.48,2.48,0,0,1-.73-.12c-.28.06-.41-.14-.7-.06-.07,0-.12,0-.11-.1s-.07-.22-.19-.21-.2-.08-.3-.12-.05-.1,0-.24,0-.17,0-.21a.7.7,0,0,0-.58-.3.4.4,0,0,1-.27-.08c0-.05-.13-.05-.19-.07s-.12,0-.15-.08a.21.21,0,0,0-.26-.09s0,0,0,0c-.14-.21-.45-.14-.57-.38s-.14-.11-.24-.13a.48.48,0,0,1-.35-.19c0-.05-.1-.05-.15-.08s-.19-.1-.21-.25-.1-.13-.21-.13-.3,0-.47,0-.14-.08-.16-.2,0-.25,0-.39a1,1,0,0,0-.16-.49s0-.08-.07-.07-.21-.1-.18-.33c0-.05,0-.09,0-.1s-.21-.21-.36-.24-.4,0-.48-.17c-.27,0-.41-.16-.71-.08l-.26,0c-.05,0-.1,0-.11-.05s-.16-.14-.15-.33,0-.06-.07-.08Z"/><path class="cls-1" d="M44.28,12.92l-.15,0c-.28.1-.39.08-.35-.05s0-.1.06-.16.08-.19,0-.24,0-.08,0-.14a.65.65,0,0,1,.24-.24l.57-.39a3,3,0,0,1,.8-.39c.38-.09.73-.15.84,0s.33.26.38.46c0,0,0,.06.07.09s.14.42.24.62,0,.21-.08.33,0,.2,0,.26a1.6,1.6,0,0,1,.21.32,1.88,1.88,0,0,1,.12.3.3.3,0,0,0,.24.19.69.69,0,0,1,.24.14.35.35,0,0,1,.06.18.36.36,0,0,1,0,.14c0,.13,0,.25.19.25s.08.07.11.11c-.14.17,0,.18,0,.24s.09,0,.21,0,.28,0,.24,0,0,.23.11.31a1.41,1.41,0,0,1,.58.8.21.21,0,0,0,0,.06c.24.16.24.47.46.64s.06.17.08.27a.72.72,0,0,1,0,.33.44.44,0,0,0,.07.41.17.17,0,0,0,.17.1c.13,0,.18.06.17.16s0,.27.15.29c0,.13.11.19.19.26s0,0,.08.06c.23,0,.27.2.33.35s.11.19.15.3a.83.83,0,0,1,0,.36,2.13,2.13,0,0,0,0,.95c-.07.16.07.15.42,0a1,1,0,0,1,.47-.09s.06,0,0,.05a1.42,1.42,0,0,1-.09.37.29.29,0,0,0,0,.27c.14.23.27.47.42.7a.36.36,0,0,0,.17.15c.14.06.15.19.37.19s.09.07.07.14c-.09.29.11.41.28.54s.12.09.1.17,0,.09,0,.11.21.26.48.29c.08,0,.09.06.13.1a5.67,5.67,0,0,1-.49.46c-.12.12-.18.21-.07.21s.29.11.21.31c0,0,0,.06,0,.07s0,.3,0,.42-.14.43-.24.66l-.12.14a2.5,2.5,0,0,1-.51.37.92.92,0,0,1-.46.15c-.08,0-.12-.06-.09-.15s0-.12,0-.15-.19-.08-.16-.21-.06-.05-.12-.06-.3-.09-.3-.23,0-.18-.25-.16c-.06,0-.09,0-.1,0a1.6,1.6,0,0,1-.1-.31.6.6,0,0,0-.52-.52.29.29,0,0,1-.2-.17,2,2,0,0,1-.12-.37.79.79,0,0,1,.14-.5,1.3,1.3,0,0,1,.08-.17c.11-.18.06-.26-.08-.29a.6.6,0,0,1-.45-.33c0-.05-.07-.09-.22-.06a.21.21,0,0,1-.16,0c-.07-.06-.15-.1-.17-.19s0-.18-.28-.13c-.07,0-.08,0-.08-.06a.76.76,0,0,1,.13-.35.61.61,0,0,0,0-.52s-.11-.06,0-.17.11-.25,0-.3a2.14,2.14,0,0,1-.56-.39c-.27-.06-.28-.29-.58-.33-.07,0-.09-.05,0-.13s0-.21-.06-.25-.14-.14-.2-.22,0-.1.1-.2.1-.14.09-.18a.63.63,0,0,0-.36-.49.3.3,0,0,1-.19-.17c0-.06-.1-.09-.14-.13s-.09-.07-.1-.12,0-.17-.18-.18h0c0-.23-.33-.29-.33-.55,0-.09-.07-.14-.15-.19a.38.38,0,0,1-.22-.29c0-.06-.06-.08-.09-.13s-.13-.15-.08-.29,0-.15-.12-.19a3.73,3.73,0,0,1-.4-.2c-.08,0-.09-.12-.05-.23a3.17,3.17,0,0,1,.13-.36,1,1,0,0,0,.07-.48s0-.08,0-.09-.14-.16,0-.35c0,0,0-.08,0-.09s-.1-.26-.23-.34-.35-.13-.34-.31c-.25-.08-.3-.28-.6-.32a.85.85,0,0,1-.25-.05s-.09,0-.07-.09-.09-.17,0-.33,0-.07,0-.09S44.34,13,44.28,12.92Z"/><path class="cls-1" d="M63.35,1.23H63.2c-.31,0-.41-.05-.33-.18A.39.39,0,0,1,63,.89c.11-.09.13-.16.11-.23s0-.09.05-.14a.75.75,0,0,1,.3-.17c.22-.07.43-.15.66-.21A2.64,2.64,0,0,1,65,0c.4,0,.75.11.83.27a1.34,1.34,0,0,1,.25.62.28.28,0,0,0,0,.12c.13.22,0,.5.07.75,0,.09-.09.21-.16.32s-.11.2-.07.28a2.58,2.58,0,0,1,.11.42c0,.11,0,.23,0,.35a.36.36,0,0,0,.17.3.56.56,0,0,1,.2.24.37.37,0,0,1,0,.21s0,.09,0,.14-.09.26.11.33,0,.11.07.17c-.18.12-.06.18,0,.26s.09.07.21.07.29.05.22.14,0,.25,0,.36a1.83,1.83,0,0,1,.33,1.08.1.1,0,0,0,0,.07c.19.26.1.59.26.86a.47.47,0,0,1,0,.31.71.71,0,0,1-.09.36.58.58,0,0,0,0,.46.2.2,0,0,0,.13.17c.13.06.16.14.12.23s-.11.29.06.38c0,.13,0,.23.1.34s0,.07.06.09a.53.53,0,0,1,.21.5c0,.13,0,.25,0,.38a1,1,0,0,1-.06.41,2.5,2.5,0,0,0-.27,1c-.11.13,0,.18.4.16a.89.89,0,0,1,.49.1.05.05,0,0,1,0,.07,1.57,1.57,0,0,1-.21.34.36.36,0,0,0-.1.28l.17.9a.46.46,0,0,0,.12.24c.11.11.08.26.29.35s.06.12,0,.18c-.18.27,0,.47.09.68a.24.24,0,0,1,0,.23.12.12,0,0,0,0,.13c.15.16.11.36.35.5.08,0,.07.1.1.16a4.59,4.59,0,0,1-.62.27c-.15.08-.24.15-.14.19s.24.25.09.42,0,0,0,.06-.12.31-.12.45-.28.38-.45.58a.76.76,0,0,1-.16.09,1.85,1.85,0,0,1-.61.17.86.86,0,0,1-.48,0,.12.12,0,0,1,0-.2.12.12,0,0,0,0-.15c-.06-.09-.16-.18-.09-.29s0-.08-.09-.11-.25-.22-.2-.37,0-.21-.18-.27a.12.12,0,0,1-.09-.08,1.45,1.45,0,0,1,0-.36.76.76,0,0,0-.32-.76.31.31,0,0,1-.14-.25,3.23,3.23,0,0,1,0-.44.92.92,0,0,1,.3-.46,1.92,1.92,0,0,1,.14-.15c.16-.14.14-.24,0-.33a.76.76,0,0,1-.32-.52c0-.07,0-.13-.19-.16a.18.18,0,0,1-.14-.1.42.42,0,0,1-.1-.26c0-.11,0-.21-.23-.25-.06,0-.06-.05-.06-.09a.81.81,0,0,1,.24-.32.64.64,0,0,0,.2-.52c0-.06-.09-.11,0-.19s.18-.21.12-.3a2.77,2.77,0,0,1-.42-.63c-.24-.16-.18-.4-.45-.56-.06,0-.07-.09,0-.15s.1-.22,0-.29-.09-.2-.13-.31,0-.11.16-.18.14-.1.15-.15a.77.77,0,0,0-.21-.65A.34.34,0,0,1,65,8.41.66.66,0,0,0,65,8.22a.25.25,0,0,1-.06-.16c0-.1,0-.2-.12-.26s0,0,0,0c0-.25-.23-.43-.16-.69,0-.1,0-.18-.09-.26a.56.56,0,0,1-.13-.39c0-.06,0-.11-.05-.17a.41.41,0,0,1,0-.34c.07-.1,0-.17-.07-.24s-.2-.24-.32-.36,0-.15,0-.26.13-.21.22-.33a.94.94,0,0,0,.2-.48s0-.08,0-.1-.09-.22.08-.38.06-.06.05-.09,0-.3-.12-.43-.31-.27-.25-.46c-.22-.17-.22-.4-.5-.55a1.28,1.28,0,0,1-.23-.14s-.07-.07,0-.12,0-.21.08-.36,0-.07,0-.1S63.39,1.34,63.35,1.23Z"/><path class="cls-1" d="M4.74,53.88l-.11-.1c-.24-.19-.29-.24-.18-.23l.14,0c.13,0,.18,0,.19,0s0,0,.1,0a1,1,0,0,1,.33.07l.66.19a2.29,2.29,0,0,1,.8.38c.31.26.53.56.47.78s-.08.27-.13.4a1.2,1.2,0,0,1-.25.34.71.71,0,0,0-.1.14c-.16.29-.53.4-.81.57a.74.74,0,0,1-.44,0,.51.51,0,0,0-.35,0,1.72,1.72,0,0,1-.54.18,1.55,1.55,0,0,1-.48,0,.9.9,0,0,0-.44.08.8.8,0,0,1-.4.06A.51.51,0,0,1,3,56.62a.86.86,0,0,1-.13-.14c-.1-.14-.19-.25-.4-.16s-.13,0-.19-.08c0-.23-.11-.19-.19-.24s-.12,0-.22.06-.29.11-.3,0-.14-.26-.26-.35a1.65,1.65,0,0,1-.81-1.07.2.2,0,0,0,0-.08c-.27-.29-.23-.69-.39-1a.66.66,0,0,1,0-.39.86.86,0,0,1,.15-.42,1,1,0,0,0,.19-.51.29.29,0,0,0,0-.26.22.22,0,0,1,0-.32c.12-.13.26-.24.2-.45.13-.1.14-.26.2-.41a.25.25,0,0,0,0-.13A.72.72,0,0,1,1.18,50a2.88,2.88,0,0,1,.39-.3,1.12,1.12,0,0,1,.48-.14c.44,0,.83,0,1.17,0,.14.11.19,0,.21-.4a.64.64,0,0,1,.22-.48.08.08,0,0,1,.1,0,1.12,1.12,0,0,1,.4.28.51.51,0,0,0,.3.19,3.34,3.34,0,0,1,1.1.42,1,1,0,0,0,.32.12c.19,0,.29.19.54.18.1,0,.14.1.15.19,0,.37.26.52.48.74a.36.36,0,0,1,.12.26.16.16,0,0,0,0,.15.94.94,0,0,1,.2.29.69.69,0,0,0,.25.29c.08.06.08.14.11.21a2.84,2.84,0,0,1-.63.29c-.15.08-.24.14-.14.19s.2.3,0,.45C7,53,7,53,7,53s-.19.28-.23.41-.41.24-.65.31a1,1,0,0,1-.17,0,2.4,2.4,0,0,1-.61-.16,1.48,1.48,0,0,1-.43-.21s0-.08,0-.09.09,0,.08-.06-.11-.12,0-.15,0-.05-.07-.07-.2-.12-.12-.18,0-.1-.14-.12-.07,0-.07,0a.37.37,0,0,1,0-.15c.08-.13,0-.24-.26-.21s-.12,0-.11,0,0-.07,0-.13.09-.17.19-.36,0-.09.06-.15,0-.21-.06-.14-.14.1-.18.1a.12.12,0,0,1-.1,0s0,0-.1.14,0,.1-.06.11,0,.07-.07,0-.06-.06-.07.16c0,.06,0,.06,0,0l-.1-.28c-.06-.18-.19-.29-.24-.26s0,.08-.1,0-.17-.17-.2-.11-.06.34-.13.42-.07.19.07.39c0,0,0,0,0,0s-.16,0-.12,0,0,.08,0,.12,0,0-.19,0a.3.3,0,0,0-.19,0,.18.18,0,0,0,0,.31c.06.05.09.09.08.13s0,.06,0,.09.05,0,0,.07,0,.1.09.11,0,0,0,0,0,.11.06.15a.11.11,0,0,1,0,.16c0,.06,0,.08.09.1s.14.05.13.13,0,0,0,.06.08,0,0,.17,0,.09.09.07l.27-.07c.06,0,.06,0,0,.11a2.84,2.84,0,0,0-.06.31.49.49,0,0,0,.06.35s0,.06,0,0,.09,0,.13.19c0,0,0,.07,0,.07s.08,0,.12,0,.09,0,.12,0,.1-.26.21-.2c0-.2.15-.2.08-.45,0-.07,0-.13-.06-.19s0-.06,0,0,.07-.06.22,0,0,0,0,0A.61.61,0,0,0,4.74,53.88Z"/><path class="cls-1" d="M40.53,6.15l0-.15c-.09-.28-.11-.36,0-.29a.47.47,0,0,1,.11.1c.09.09.14.1.17.09a.14.14,0,0,1,.1,0,1.24,1.24,0,0,1,.25.24l.45.52a2.29,2.29,0,0,1,.46.76c.11.39.13.77-.06.92a1.52,1.52,0,0,1-.85.44l-.18.06a2.07,2.07,0,0,1-1.18-.08c-.15,0-.26-.19-.37-.31a.57.57,0,0,0-.29-.25,1.39,1.39,0,0,1-.28-.12L38.55,8a2,2,0,0,1-.33-.31.46.46,0,0,0-.34-.19.79.79,0,0,1-.31-.13.48.48,0,0,1-.12-.21.88.88,0,0,1,0-.17c0-.17,0-.31-.26-.35s-.1-.12-.14-.19c.14-.18,0-.24-.05-.34S36.88,6,36.75,6s-.31-.1-.25-.22a.64.64,0,0,0,0-.51,1.93,1.93,0,0,1,.07-1.53.36.36,0,0,0,0-.09c0-.43.32-.71.44-1.08,0-.13.18-.2.29-.28a1,1,0,0,1,.4-.21,1,1,0,0,0,.5-.25.33.33,0,0,0,.13-.23.23.23,0,0,1,.22-.23c.18,0,.35,0,.42-.2.17,0,.27-.11.4-.19a.24.24,0,0,0,.1-.08.69.69,0,0,1,.63-.26,2.79,2.79,0,0,1,.5,0,.91.91,0,0,1,.49.15c.38.25.7.5,1,.7,0,.18.17.09.41-.21A.58.58,0,0,1,43,1a.09.09,0,0,1,.11.05,1.28,1.28,0,0,1,.21.49.58.58,0,0,0,.16.37,3.67,3.67,0,0,1,.38.56,3.09,3.09,0,0,1,.24.61.93.93,0,0,0,.15.34c.11.17.07.36.26.54s0,.16,0,.24a.83.83,0,0,0-.17.42,3.23,3.23,0,0,0,0,.44.31.31,0,0,1-.08.26.15.15,0,0,0-.07.14c0,.24-.11.43,0,.71,0,.09,0,.15,0,.22s-.46-.13-.66-.17-.28,0-.24.06,0,.36-.24.37c0,0-.07,0-.07,0,0,.18-.32.12-.44.21s-.47,0-.71-.09a.85.85,0,0,1-.15-.09,2.15,2.15,0,0,1-.43-.46,1.5,1.5,0,0,1-.24-.42c0-.07,0-.1.09-.07s.1,0,.11,0,0-.17.1-.15,0-.06,0-.11-.06-.24,0-.27.11-.07,0-.21,0-.06,0-.08a.35.35,0,0,1,.16-.13c.15-.09.16-.27,0-.44s-.09-.1-.06-.13l.05-.08a.23.23,0,0,1,0-.07L41.53,4l.24-.07a.77.77,0,0,1,.16-.07c.19-.08.16-.13,0-.15l-.2,0s0,0-.06-.06,0,0-.16.06l-.1,0s-.07.05-.06,0,0-.07-.13.11l0,0a.83.83,0,0,0,0-.12l0-.17c0-.18,0-.36-.08-.36s-.07,0-.06-.09-.06-.24-.11-.21-.27.25-.39.28c-.08.21-.21.12-.24.38,0,0,0,.06-.07,0s-.14-.1-.16,0-.07.08-.11.12-.07,0-.16-.14-.12-.11-.15-.11a.24.24,0,0,0-.25.28.16.16,0,0,1,0,.16s0,.07,0,.11,0,.07,0,.08-.1.06,0,.15v0c-.15.06,0,.25-.14.31s0,.08,0,.13.08.12,0,.17,0,0,0,.07,0,.07-.09.12,0,.07,0,.09a.77.77,0,0,0,.25,0s0,0,0,.1a1.21,1.21,0,0,0-.2.24.57.57,0,0,0-.1.39s0,.07,0,.07.14.09,0,.3c0,0,0,.07,0,.08a.29.29,0,0,1,.11.11s.08.07.13.07a.64.64,0,0,0,.2,0c.05,0,.1,0,.12.06.16-.12.25,0,.35-.27l.06-.18s0-.06,0,0,.06,0,.14.15,0,0,0,0S40.48,6.17,40.53,6.15Z"/><path class="cls-2" d="M226.35,30.24c11,7.74,19.35,20.57,18.27,34-.59,7.38-3.92,14.31-8.1,20.43a76.33,76.33,0,0,1-24.34,22.7,3.06,3.06,0,0,0-1.34,1.17,3.28,3.28,0,0,0-.17,1.56c.36,9.64-6.75,18.79-15.94,21.71s-19.74,0-26.8-6.59a7.41,7.41,0,0,0-2.27-1.68,6.71,6.71,0,0,0-4.29.34c-23.14,7-48,10.76-71.5,4.92-8.5-2.11-16.79-5.52-23.63-11s-12.15-13.1-13.77-21.7C48.8,76.59,58.41,60.16,74,49.06c9.47-6.74,19.87-10.75,30.71-15a286.85,286.85,0,0,1,36.41-11.81,173.07,173.07,0,0,1,31.7-4.85C191.78,16.45,211,19.42,226.35,30.24Z"/><path class="cls-2" d="M231.51,165.3a3.75,3.75,0,0,1-1.37,3,7,7,0,0,1-5.66,1,4.12,4.12,0,0,1-3.12-2.39,3.35,3.35,0,0,1,.38-2.75,5.51,5.51,0,0,1,3.51-2.67,5.57,5.57,0,0,1,4.35.78A4.16,4.16,0,0,1,231.51,165.3Z"/><path class="cls-2" d="M221.46,140.75a7.45,7.45,0,0,1,.69,3.73,11.56,11.56,0,0,1-2.41,7.4c-2.58,3-6.83,3.63-10.56,3.44-2-.1-4.05-.47-5.46-1.84a7.64,7.64,0,0,1-1.84-5.44,12.44,12.44,0,0,1,1.45-6.23,9.26,9.26,0,0,1,4.73-3.84C212.06,136.37,219.07,136.34,221.46,140.75Z"/><path class="cls-1" d="M145.36,18.07c.32-.1.94-.27,1.38-.43a31.21,31.21,0,0,1,6.79-1.43c1.1-.13,2.29-.28,3.27-.33,1.7-.09,3.43-.27,5.29-.44.56-.06,1.13-.1,1.69-.13s1.12-.06,1.67-.08a6.89,6.89,0,0,1,2.38.18,3,3,0,0,1,1.07.62c.22.35-.56.7-2.59,1-3.74.64-7.65,1.38-12.26,2.12-5.79.93-11.52,2.18-17.25,3.54-1.09.26-2.19.55-3.28.85-6.34,1.74-12.6,3.53-18.81,5.66-2.31.8-4.64,1.49-6.93,2.24-2.09.68-4.15,1.4-6.3,2.25-3.6,1.42-7.2,2.81-10.75,4.3-2.93,1.21-5.82,2.49-8.65,3.87a65.37,65.37,0,0,0-7.57,4.33c-2,1.35-4,2.78-5.94,4.3-1.38,1.1-2.77,2.22-4.08,3.41-.82.74-1.63,1.47-2.42,2.24l-.41.4-.4.41-.8.84c-.51.57-1,1.13-1.51,1.73a30.93,30.93,0,0,0-2.67,3.78c-.7,1.18-1.61,2.59-2.34,3.94a25.48,25.48,0,0,0-2.69,5.86c-.18.55-.34,1.08-.47,1.57s-.2,1-.26,1.37c-.17,1.45-.48,3.11-.81,4.84A32.63,32.63,0,0,0,49.4,90l.08.9.12.9.12.9.16.89.16.9.2.87c.12.58.29,1.15.45,1.72l.12.43L51,98l.29.85c.2.56.43,1.11.65,1.67s.48,1.09.74,1.62l.41.8.21.4.22.39a40.5,40.5,0,0,0,9.15,11.06l.76.64.79.59a56.66,56.66,0,0,0,10,5.83,65.45,65.45,0,0,0,11,3.84c1.28.33,2.6.6,3.9.92l1,.23c.33.08.66.16,1,.22l2,.37c.71.14,1.43.28,2.15.4l2.16.3,2.14.31,2.12.24a82.36,82.36,0,0,0,11.36.51l2.69-.11L117,129c.44,0,.87-.09,1.31-.14,1.08-.13,2.18-.24,3.3-.34s2.23-.23,3.36-.32l1.25-.1,1.25-.14,2.49-.31c.83-.09,1.66-.25,2.49-.4l2.48-.48c1.56-.26,3.11-.56,4.65-.88l4.61-1.08c.87-.23,1.78-.44,2.61-.68l1.7-.49,1.69-.49,1.7-.49.86-.24.85-.25,3.41-1a18.22,18.22,0,0,1,1.88-.49,7.26,7.26,0,0,1,2.26-.1,5.27,5.27,0,0,1,1.71.55,7.3,7.3,0,0,1,1.32.93c.37.32.68.63,1,.89l.91.8a28.75,28.75,0,0,0,4,2.79l.52.31.54.28,1.08.56c.75.32,1.48.68,2.24.94l.57.21a4,4,0,0,0,.58.2l1.15.36.58.16.59.14c.38.1.77.2,1.16.27s1,.19,1.46.25l1.48.18,1.48.07a6.09,6.09,0,0,0,.74,0l.75,0a23.41,23.41,0,0,0,5.86-1,22,22,0,0,0,9.95-6.59,13.75,13.75,0,0,0,2.07-2.81,8.79,8.79,0,0,0,.91-2.48c.11-.55.33-1.29.54-2.12a24.17,24.17,0,0,0,.53-2.64c.08-.56.18-1.24.24-1.83l0-.45,0-.46c0-.31,0-.61,0-.92v-.48c0-.17,0-.38,0-.61a4.14,4.14,0,0,1,.11-.79,3.52,3.52,0,0,1,.35-.88,3.28,3.28,0,0,1,.27-.38,3.33,3.33,0,0,1,.31-.33,4.44,4.44,0,0,1,.58-.47c.38-.25.7-.4,1-.56l1.68-.93a47.66,47.66,0,0,0,5.5-3.61,74.81,74.81,0,0,0,16.64-17.42A50,50,0,0,0,235,77a36.29,36.29,0,0,0,3.53-9.79c.24-1.33.55-3,.71-4.45A25.47,25.47,0,0,0,238.7,54a33.31,33.31,0,0,0-3.14-8.22,55,55,0,0,0-3.1-5c-.29-.45-.63-.89-1-1.33s-.69-.88-1-1.27a43.51,43.51,0,0,0-11-9.25c-.31-.18-.62-.39-.95-.58l-1-.56c-.68-.38-1.34-.8-2-1.15a12.18,12.18,0,0,1-1.79-1.26l-.64-.55a7.56,7.56,0,0,0-.84-.57c-.57-.34-1.15-.68-1.78-1l-.48-.23-.52-.21-1.1-.39c-3.58-1.16-7.11-2.28-10.73-3.26a10.05,10.05,0,0,0-1.25-.33c-1-.17-1.9-.35-2.83-.55l-2.77-.5-.69-.13-.69-.11-1.39-.2-1.4-.2L185.13,17c-4.61-.41-8.66-.81-13-.92-.62,0-1.14-.06-1.67-.11-1.41-.11-1.89-.31-1.42-.57a9.45,9.45,0,0,1,3.26-.59,47.54,47.54,0,0,1,5.47,0c.67,0,1.34.07,2,.11s1.36.08,2.06.1c1.37,0,2.72.14,4.09.23.68,0,1.36.12,2.05.21s1.37.18,2.06.29c1,.18,2.25.31,3.35.43a60.66,60.66,0,0,1,10.69,2.41l1.94.68c.65.23,1.32.43,2,.68s1.28.48,1.93.7l1,.34.94.36c.38.13.8.3,1.23.49l.64.28a6.09,6.09,0,0,1,.63.3c1.44.76,2.91,1.47,4.29,2.33l1.05.62.52.32.51.33,2,1.37a53.58,53.58,0,0,1,8.47,7.36,50.77,50.77,0,0,1,6.7,8.94,33,33,0,0,1,1.75,3.46A29.69,29.69,0,0,1,241,50.83a32.08,32.08,0,0,1,1.33,12,31.51,31.51,0,0,1-2.92,10.56c-.45,1-1,2-1.48,3-.73,1.26-1.46,2.54-2.22,3.81s-1.54,2.53-2.33,3.79a65.41,65.41,0,0,1-10.09,12.19c-1.35,1.31-2.66,2.47-3.87,3.69a32.72,32.72,0,0,1-2.54,2.17,62.86,62.86,0,0,1-6.27,4.38l-1.77,1a2.66,2.66,0,0,0-.51.36.27.27,0,0,0-.06.12,2.9,2.9,0,0,0,0,.61c0,.15,0,.34,0,.51l0,.52c0,.35,0,.7,0,1v1a14.61,14.61,0,0,1-.46,2.85,21.22,21.22,0,0,1-3.3,7c-.49.67-1.11,1.49-1.85,2.33a26.75,26.75,0,0,1-5.4,4.75c-1,.64-1.91,1.17-2.71,1.59a15.8,15.8,0,0,1-4.6,1.66,40,40,0,0,1-7.39.66H182c-.2,0-.41,0-.61,0l-1.23-.09c-.4,0-.81-.1-1.21-.16a11.74,11.74,0,0,1-1.21-.19l-1.21-.25c-.4-.09-.79-.21-1.19-.31-.79-.19-1.56-.48-2.34-.74a28.77,28.77,0,0,1-4.47-2.08l-.54-.3-.27-.16-.26-.17-1-.68c-.36-.22-.67-.49-1-.73l-.49-.38a4.66,4.66,0,0,1-.49-.39l-.88-.72-.84-.72a4.52,4.52,0,0,0-1.43-1,3.17,3.17,0,0,0-1.56-.09,13.47,13.47,0,0,0-1.95.51l-4.25,1.3c-1.42.41-2.83.83-4.22,1.27a40.44,40.44,0,0,1-4,1l-1.81.34q-.91.16-1.83.36l-3.66.81-2.19.47c-.73.14-1.47.26-2.2.39l-2.2.36c-.74.13-1.48.21-2.21.33a22.39,22.39,0,0,1-3.77.28,28.05,28.05,0,0,0-3.14.16,159.23,159.23,0,0,1-18.53.43c-1.26-.06-2.51-.15-3.77-.24l-.94-.07-.94-.11-1.89-.25-1.37-.17c-.46-.05-.91-.14-1.36-.21l-2.73-.43c-.8-.12-1.59-.32-2.38-.48l-2.35-.52c-2.48-.62-4.89-1.35-7.29-2.06l-.65-.21c-1.52-.57-3-1.16-4.51-1.81-.75-.31-1.49-.67-2.22-1s-1.47-.71-2.19-1.1-1.43-.78-2.14-1.19-1.4-.83-2.07-1.3a38.64,38.64,0,0,1-3.93-2.94,56.06,56.06,0,0,1-5.54-5.37,35.19,35.19,0,0,1-6.06-9.49c-.34-.74-.62-1.52-.92-2.29s-.56-1.58-.76-2.38c-.1-.38-.22-.75-.29-1.12l-.25-1.13c-.09-.38-.14-.76-.21-1.13l-.18-1.12a36.33,36.33,0,0,1-.34-4.52c0-2.29,0-4.59.22-6.95a42.16,42.16,0,0,1,2.77-11.55A32.54,32.54,0,0,1,52.76,64a47,47,0,0,1,4.51-5.87c1.27-1.4,2.6-2.79,4-4.13s2.87-2.62,4.39-3.82l1.09-.85c.37-.28.73-.56,1.07-.84a41.86,41.86,0,0,1,7.9-5c.55-.27,1.19-.62,1.77-.93,1.79-1,3.63-1.94,5.48-2.83s3.74-1.71,5.62-2.56c4.14-1.84,8.28-3.62,12.59-5.19,5.37-2.27,11-4.29,16.46-6.34,1.65-.62,3.34-1.23,5-1.81,1.06-.36,2.22-.75,3.24-1,2.81-.72,5.74-1.63,8.54-2.18.8-.16,1.76-.41,2.64-.63C139.75,19.27,142.42,18.66,145.36,18.07Z"/><path class="cls-1" d="M201,137.22A1.63,1.63,0,0,0,201,137a.83.83,0,0,1,.65-.76,1.6,1.6,0,0,1,.47-.11,1.64,1.64,0,0,0,.72-.19,1.58,1.58,0,0,1,.44-.11.45.45,0,0,1,.42.19,3.22,3.22,0,0,1,.38.58,1,1,0,0,1,0,.94,3.38,3.38,0,0,1-.9,1.29c-.51.37-.95.81-1.41,1.18a1.31,1.31,0,0,0-.22.25,10,10,0,0,0-1.19,1.56,3.34,3.34,0,0,1-.52.63,1.68,1.68,0,0,0-.36.67c-.1.42-.19.84-.27,1.27s-.13.72-.18,1.08a2.35,2.35,0,0,0,0,1,8.22,8.22,0,0,1,.15.84,3.88,3.88,0,0,1,0,.59,2.33,2.33,0,0,1,0,.38,1.16,1.16,0,0,0,.25,1c.11.12.11.31.18.45-.12.28.08.46.19.64a.35.35,0,0,0,.31.17.73.73,0,0,1,.29.07.31.31,0,0,1,.13.19.93.93,0,0,0,.54.62,11.6,11.6,0,0,0,2.78.94.78.78,0,0,0,.22,0,24.45,24.45,0,0,0,2.72.07,1.85,1.85,0,0,1,.47,0l.47,0a7,7,0,0,1,1,.07,3.21,3.21,0,0,0,1.31-.09,1.37,1.37,0,0,0,.57-.24,1.29,1.29,0,0,1,.69-.29,1.54,1.54,0,0,0,1-.4,2,2,0,0,0,.47-.21c.14-.1.27-.22.4-.32a.67.67,0,0,0,.22-.19,3.26,3.26,0,0,1,.49-.55c.09-.09.19-.16.28-.24l.26-.25a7.27,7.27,0,0,0,.68-.79c.21-.28.42-.57.66-.86a6.29,6.29,0,0,0,1.29-2.52c.19-.3.1-.55-.25-.78a1.08,1.08,0,0,1-.38-.63.36.36,0,0,1,0-.23c.1-.29.18-.59.31-.89a1.52,1.52,0,0,0,.14-.75,5,5,0,0,0-.57-2.37,1.66,1.66,0,0,0-.43-.52c-.27-.22-.49-.52-.86-.6a.68.68,0,0,1-.36-.29,2.44,2.44,0,0,0-1.64-.87,1.94,1.94,0,0,1-.62-.19.76.76,0,0,0-.35-.11,5,5,0,0,0-1.64,0,3,3,0,0,1-.52,0c-.22-.13-.26-.48-.44-.67s-.32-.25-.51-.16a1.69,1.69,0,0,1-1.32.12.23.23,0,0,0-.16,0c-.44.14-.91,0-1.36,0a7.81,7.81,0,0,1-1.66-.09.63.63,0,0,1-.25-.09.64.64,0,0,1-.4-.52.59.59,0,0,1,.24-.59,1.22,1.22,0,0,1,.7-.23,1.39,1.39,0,0,0,.54-.08,2.41,2.41,0,0,1,1.05-.27.86.86,0,0,0,.42-.15,2.8,2.8,0,0,1,1.42-.3,1.85,1.85,0,0,0,1.08-.17.75.75,0,0,1,.36-.07,9.4,9.4,0,0,1,1.3.14c1,.21,2,.33,3,.45a2.35,2.35,0,0,1,.54.11,2.75,2.75,0,0,1,.51.21,7.13,7.13,0,0,1,1.47.93,3.39,3.39,0,0,1,1,1.32,4.47,4.47,0,0,1,.19.46,2.83,2.83,0,0,0,.11.31,1.51,1.51,0,0,0,.15.28,3,3,0,0,0,.39.49,3.11,3.11,0,0,1,.64,1,4.94,4.94,0,0,1,.3,1.11,1.57,1.57,0,0,0,.26.72,1,1,0,0,1,.15.46,3.92,3.92,0,0,1,.06,1,1.68,1.68,0,0,0,.12,1.08.55.55,0,0,1,0,.36,3.16,3.16,0,0,1-.41.94,7.87,7.87,0,0,0-.66,1.62c0,.21-.07.45-.26.58a1.18,1.18,0,0,0-.33.38,2.32,2.32,0,0,0-.18.46A7.22,7.22,0,0,1,217,151a4.55,4.55,0,0,1-.72,1,12.64,12.64,0,0,0-.85.94.8.8,0,0,1-.49.32,2,2,0,0,0-.94.47,4.83,4.83,0,0,1-1.1.58.68.68,0,0,1-.56,0,.7.7,0,0,0-.45,0,23.52,23.52,0,0,0-2.37.61l-.48.14a4.1,4.1,0,0,1-.49.06c-.24,0-.48.07-.71.1a2.68,2.68,0,0,1-.63,0,2.88,2.88,0,0,0-1,.07l-.09,0a8.71,8.71,0,0,0-1.25,0,4.31,4.31,0,0,1-1.28-.15,6.58,6.58,0,0,0-1-.17,4.13,4.13,0,0,1-1.51-.43c-.21-.12-.44-.19-.66-.3a3,3,0,0,1-1.08-.83,2.11,2.11,0,0,0-.35-.38l-.41-.35a5.91,5.91,0,0,1-1.16-1.38,1.83,1.83,0,0,1-.31-1,5.54,5.54,0,0,1,0-1.08c.08-.54,0-1.06.09-1.57a.87.87,0,0,0,0-.36,1.53,1.53,0,0,1,.16-1.2.5.5,0,0,0,.08-.26c0-.52.12-1,.14-1.57a4.42,4.42,0,0,1,.24-1.76,18.09,18.09,0,0,1,.57-2.31,3.55,3.55,0,0,1,.22-.75,1.07,1.07,0,0,1,.26-.41c.33-.28.55-.66.94-.84a1,1,0,0,0,.29-.25A11.27,11.27,0,0,1,201,137.22Z"/><path class="cls-1" d="M219.78,166.56a1,1,0,0,0,.12-.11c.21-.23.32-.27.38-.13a.6.6,0,0,1,.09.18c0,.15.09.2.18.23a.28.28,0,0,1,.12.12.49.49,0,0,1,0,.36c0,.22-.06.45-.1.68a1.57,1.57,0,0,1-.37.82,1.29,1.29,0,0,1-1,.44,3.18,3.18,0,0,1-1.24-.54.74.74,0,0,0-.23-.14,3.58,3.58,0,0,1-1.07-1.24,1.23,1.23,0,0,1-.12-.64,1.42,1.42,0,0,0-.1-.55,2.5,2.5,0,0,1-.23-.93,2.4,2.4,0,0,1,0-.76,1.94,1.94,0,0,0,0-.68,1.6,1.6,0,0,1,0-.58,1.3,1.3,0,0,1,.19-.37,1.53,1.53,0,0,1,.18-.18.69.69,0,0,0,.31-.61c0-.12.1-.2.16-.29.25,0,.26-.19.35-.32a.29.29,0,0,0,0-.29c-.08-.21,0-.35.12-.39a1.12,1.12,0,0,0,.55-.43,5.69,5.69,0,0,1,.81-.74,3,3,0,0,1,1-.46l.15,0a5.6,5.6,0,0,1,1.71-.49,1.4,1.4,0,0,1,.61,0,1.62,1.62,0,0,1,.63.18,2.34,2.34,0,0,0,.79.25.65.65,0,0,0,.39,0,.48.48,0,0,1,.48.06.87.87,0,0,0,.67.28,1.85,1.85,0,0,0,.62.29.62.62,0,0,0,.19.07,1.42,1.42,0,0,1,.92.54,5.64,5.64,0,0,1,.53.56,2.16,2.16,0,0,1,.36.69,14.66,14.66,0,0,1,.34,1.86c-.1.23,0,.33.43.41a.7.7,0,0,1,.48.41.21.21,0,0,1,0,.17,2.34,2.34,0,0,1-.33.65,1.17,1.17,0,0,0-.26.49,5,5,0,0,1-.84,1.66,2.24,2.24,0,0,0-.27.45c-.13.26-.36.41-.48.73a.38.38,0,0,1-.32.21,3.38,3.38,0,0,0-1.25.6.71.71,0,0,1-.41.15.38.38,0,0,0-.24,0,2.3,2.3,0,0,1-.48.22,1.23,1.23,0,0,0-.48.25,1,1,0,0,1-.32.12c-.16-.11-.23-.46-.35-.64s-.19-.24-.29-.14a.51.51,0,0,1-.73,0s-.06-.06-.08-.05c-.26.07-.48-.2-.71-.25s-.49-.41-.69-.67a.71.71,0,0,1-.06-.19,1.19,1.19,0,0,1,.07-.63c.08-.23.17-.39.26-.42a.2.2,0,0,1,.26.05.18.18,0,0,0,.18.09c.14,0,.28-.09.41,0s.11,0,.17-.06a.48.48,0,0,1,.52-.12.29.29,0,0,0,.38-.16.14.14,0,0,1,.12-.07,3.39,3.39,0,0,1,.45,0,.88.88,0,0,0,.89-.42.4.4,0,0,1,.24-.19c.15,0,.26-.1.4-.13a1.7,1.7,0,0,1,.53.07,1.49,1.49,0,0,1,.21,0c.22,0,.31-.07.3-.24a1.32,1.32,0,0,1,.15-.66c0-.06,0-.14-.07-.24a.19.19,0,0,1-.08-.15.43.43,0,0,1,0-.25c.05-.08.08-.17-.14-.24-.07,0-.06-.05,0-.07a1.61,1.61,0,0,1,.26-.24.49.49,0,0,0,.17-.53c0-.05-.11-.09,0-.2s.11-.29,0-.37-.54-.31-.75-.49c-.32,0-.45-.27-.78-.21-.08,0-.12,0-.13-.11s-.12-.23-.25-.22-.24-.07-.37-.09-.09-.09-.09-.24,0-.18-.09-.21a1,1,0,0,0-.86-.1.83.83,0,0,1-.34.05.7.7,0,0,0-.25,0,.52.52,0,0,1-.21,0,.27.27,0,0,0-.32.1l0,0c-.3,0-.49.25-.8.22a.38.38,0,0,0-.28.17.84.84,0,0,1-.4.27c-.07,0-.11.09-.16.13s-.19.17-.36.17-.19.1-.22.21-.12.34-.15.52-.1.16-.23.19-.26.08-.42.11a1,1,0,0,0-.5.33.12.12,0,0,0-.06.12c0,.17-.05.27-.28.37-.05,0-.08.05-.08.08,0,.2-.1.39,0,.58a1.24,1.24,0,0,0,.17.27.44.44,0,0,1,.09.27c.24.17.33.42.66.45l.27,0s.1,0,.11.08.16.16.17.35,0,.07.08.09Z"/><path class="cls-1" d="M99.31,97.27a8.73,8.73,0,0,1-6-2.18c-2.13-2-3.08-5-2.9-9.26a34.85,34.85,0,0,1,7.31-20c1.32-1.69,3.42-4,6.37-5,2.78-.87,6.61-.16,8.26,2.85a1.62,1.62,0,0,1-2.85,1.56c-.78-1.42-2.91-1.78-4.43-1.31s-3.11,1.73-4.79,3.88A31.68,31.68,0,0,0,93.67,86c-.13,3.2.5,5.47,1.87,6.74a6,6,0,0,0,5.13,1.2,14.49,14.49,0,0,0,5.62-2.68,57.41,57.41,0,0,0,11.34-11.06,129,129,0,0,1,4.75-13.92c1.1-2.59,2.6-5.39,5.46-6.55a3.14,3.14,0,0,1,2.49-.08c1.42.61,2,2.21,1.48,4.18-1.36,5.28-4.87,9.79-7.68,13.42-1.12,1.43-2.3,3-3.57,4.51-.13.43-.25.87-.38,1.3l-3.52,12a1.63,1.63,0,1,1-3.12-.91l1.94-6.62a50.74,50.74,0,0,1-7.32,6.38,18,18,0,0,1-6.9,3.21A10.8,10.8,0,0,1,99.31,97.27Zm29.37-34.39c-1.54.85-2.53,2.8-3.31,4.63s-1.43,3.59-2.06,5.43c2.24-3,4.41-6.29,5.35-10A.36.36,0,0,0,128.68,62.88Z"/><path class="cls-1" d="M131.39,102.81a3.19,3.19,0,0,1-.95-.15c-1.73-.56-2.59-2.41-2.31-5,.23-2.1.62-4.19,1-6.21a51.76,51.76,0,0,0,1.15-9.42,2.7,2.7,0,0,0-.2-1.25,1,1,0,0,0-.94-.07,5.56,5.56,0,0,0-1.79,1.32,69.82,69.82,0,0,0-11,13.52,1.62,1.62,0,1,1-2.75-1.72,72.89,72.89,0,0,1,11.51-14.15,8.33,8.33,0,0,1,3-2,4.1,4.1,0,0,1,4.48,1,5,5,0,0,1,1,3.34,54.15,54.15,0,0,1-1.21,10c-.36,2-.73,4-.95,6a3.2,3.2,0,0,0,.1,1.47,3.09,3.09,0,0,0,.93-.64c2.4-2.15,4.65-4.59,6.83-7l1.3-1.42a9.16,9.16,0,0,1-.21-1.37,11.87,11.87,0,0,1,1.92-7.07A20.68,20.68,0,0,1,147,77a6,6,0,0,1,3-1.47,3.29,3.29,0,0,1,3.69,2.59,3.8,3.8,0,0,1-.49,2.3,30,30,0,0,1-5.12,6.74L144.51,91a3.74,3.74,0,0,0,2.93.39,12.88,12.88,0,0,0,4.47-2.75,26.43,26.43,0,0,0,2-1.94,28.88,28.88,0,0,1,2.32-2.19,1.62,1.62,0,0,1,2,2.52,26.43,26.43,0,0,0-2,1.94A28.7,28.7,0,0,1,154,91.17a15.37,15.37,0,0,1-5.71,3.37,6.87,6.87,0,0,1-6-1.13l-.68.74c-2.23,2.42-4.53,4.92-7.06,7.17A5,5,0,0,1,131.39,102.81Zm19-24h0a3.3,3.3,0,0,0-1.35.78,17.37,17.37,0,0,0-4,4.27,9.5,9.5,0,0,0-1.32,3.32l2-2.17a27.46,27.46,0,0,0,4.6-6A1.85,1.85,0,0,0,150.36,78.76Z"/><path class="cls-1" d="M169.34,104.4a1.68,1.68,0,0,1-.92-.28,1.63,1.63,0,0,1-.42-2.26c3.4-5,5.71-10.71,7.95-16.29.12-.31.25-.61.37-.92a71.47,71.47,0,0,1-12.23,8.18c-1.76.93-4.07,1.86-6.23.75-1.88-1-2.92-3.29-2.65-5.94A10.76,10.76,0,0,1,161.76,79a7.05,7.05,0,0,1,4.7-.36,1.63,1.63,0,0,1-1,3.11A4,4,0,0,0,163,82a7.46,7.46,0,0,0-4.52,6c-.1,1,.14,2.33.9,2.72s2.25-.22,3.24-.74a68.56,68.56,0,0,0,16.78-12.49,65.43,65.43,0,0,1,3.44-6.59,7.08,7.08,0,0,1,2.83-3,2.38,2.38,0,0,1,2.91,3.73,69.53,69.53,0,0,1-6.46,7.67c-1.11,2.47-2.12,5-3.11,7.46-2.31,5.74-4.69,11.68-8.29,16.92A1.63,1.63,0,0,1,169.34,104.4Z"/><path class="cls-1" d="M202.11,81.89h-.17a1.62,1.62,0,0,1-1.45-1.78,13,13,0,0,1,1.27-4l5.3-11.76a1.62,1.62,0,1,1,3,1.34l-5.29,11.76a10.15,10.15,0,0,0-1,3A1.62,1.62,0,0,1,202.11,81.89Z"/><path class="cls-1" d="M199.16,92.11a2.7,2.7,0,0,1-.63-.07,3,3,0,0,1-.39-.14,2.1,2.1,0,0,1-1-.59,2.25,2.25,0,0,1-.6-1.91,2.44,2.44,0,0,1,.23-.69l.09-.21a2.71,2.71,0,0,1,1.57-1.42,2.37,2.37,0,0,1,1.7.06,2.71,2.71,0,0,1,1.38,1.51l.07.15a1.62,1.62,0,0,1-.16,1.73,2.36,2.36,0,0,1-.72,1A2.39,2.39,0,0,1,199.16,92.11Z"/><path class="cls-1" d="M187.94,93.91a1.06,1.06,0,0,1-.25,0,13.65,13.65,0,0,1-7.21-2.75c-.56-.38-1.11-.74-1.65-1a8.64,8.64,0,0,1-1.69.14,2.16,2.16,0,0,1-1-.25,1.89,1.89,0,0,1-1-1.65,2.06,2.06,0,0,1,1-1.8,2.59,2.59,0,0,1,2-.21,8.17,8.17,0,0,1,1,.32,14.13,14.13,0,0,0,4.23-2.83c1.22-1.08,2.42-2.21,3.57-3.36a1.64,1.64,0,0,1,2.3,0,1.62,1.62,0,0,1,0,2.3c-1.2,1.2-2.45,2.37-3.72,3.49a23.49,23.49,0,0,1-3,2.33,10.45,10.45,0,0,0,5.69,2.1,1.62,1.62,0,0,1-.24,3.23Z"/></g></g></g></svg>