<svg xmlns="http://www.w3.org/2000/svg" viewBox="0 0 215.72 152.68"><defs><style>.cls-1{fill:#fff;}.cls-2{fill:#b29362;}</style></defs><g id="圖層_2" data-name="圖層 2"><g id="event"><g id="event_photo_deco_4"><path class="cls-1" d="M166.22,41.09a23.12,23.12,0,0,1,17.49-15.16c2.6-.45,5.5-.37,7.56,1.28,2.54,2.05,2.93,5.76,2.73,9-.42,6.86-2.54,13.49-4.93,19.93-3.77,10.18-8.23,20.09-12.85,29.92a107,107,0,0,1-39.59-40.55c-1-1.86-2-4-1.35-6,1-2.85,4.63-3.68,7.61-3.32C150,37,156,41.79,162.12,45.48a2.68,2.68,0,0,0,1.63.54c1.18-.15,1.61-1.59,1.86-2.75A20.08,20.08,0,0,1,166.22,41.09Z"/><path class="cls-2" d="M172.06,34.31a2.3,2.3,0,0,0-.17.54,3.27,3.27,0,0,1-.38,1.14,3.93,3.93,0,0,1-.78,1,8.36,8.36,0,0,1-.79.87,3.79,3.79,0,0,0-.62.7,4.85,4.85,0,0,0-.48.83,8.44,8.44,0,0,1-.61,1,1.09,1.09,0,0,1-.77.61,4.16,4.16,0,0,1-1.11,0c-.54-.1-.89-.54-.88-1.45a10,10,0,0,1,1.45-5.17,21.16,21.16,0,0,1,5-5.68c.38-.3.76-.63,1.15-.92l.86-.63c.3-.2.6-.38.91-.56a20,20,0,0,1,1.89-1,29.48,29.48,0,0,1,4-1.42,6.78,6.78,0,0,1,1.56-.26c.53,0,1-.07,1.58-.08,1,0,1.91,0,3,.05a10.26,10.26,0,0,1,2.65.4,8.15,8.15,0,0,1,2.54,1.26,7.94,7.94,0,0,1,2.71,3.71,22.55,22.55,0,0,1,1,3.81,14.8,14.8,0,0,1,.22,3.18,18.29,18.29,0,0,1-.25,2.2c-.07.45-.2.89-.3,1.33a16.43,16.43,0,0,0-.63,3.76,9.93,9.93,0,0,1-.37,1.85,7.81,7.81,0,0,0-.81,2.53,2.68,2.68,0,0,0-.08,1.27,3.22,3.22,0,0,1-.34,2,21.3,21.3,0,0,0-1.31,3.52,88.22,88.22,0,0,1-4.16,11.07c-.11.24-.22.49-.31.74-1,3-2.48,5.74-3.62,8.65a29.56,29.56,0,0,1-1.42,2.88c-.53,1-1,2.07-1.65,3a20.92,20.92,0,0,0-1.12,2c-.17.33-.34.67-.5,1l-.8,1.7c-.26.55-.51,1.08-.75,1.64l-.36.85-.09.23,0,.11,0,.06v0h0l-.34-.15A23.55,23.55,0,0,1,173,86.51c-1-.7-1.38-1-2-1.42a10.77,10.77,0,0,0-1.75-1,33.21,33.21,0,0,0-3.12-2.15c-.31-.19-.6-.43-.9-.6a20.73,20.73,0,0,1-2.38-1.56c-.74-.58-1.46-1.21-2.19-1.82-1-.88-2.06-1.78-3.06-2.69s-1.94-1.9-2.82-2.91c-.53-.63-1-1.27-1.58-1.91l-.8-.94-.78-1c-.52-.64-1-1.27-1.58-1.91s-1-1.3-1.57-1.93a2.82,2.82,0,0,0-2-1.58,4.61,4.61,0,0,1-1.85-1.17,2.56,2.56,0,0,1-.51-.62c-.55-.92-1.14-1.83-1.6-2.77a15.69,15.69,0,0,0-1.36-2.29c-1.86-2.67-3.61-5.41-5.22-8.24-.45-.79-.92-1.53-1.43-2.34a11.8,11.8,0,0,1-1-2.2,12,12,0,0,1-.65-2.74,4.11,4.11,0,0,1,.1-1.37,5.24,5.24,0,0,1,.24-.7c.1-.22.21-.44.32-.64a7.62,7.62,0,0,1,1.78-2,8.49,8.49,0,0,1,2.1-1.21,12.4,12.4,0,0,1,4.27-.91,11.34,11.34,0,0,1,1.43,0,9.19,9.19,0,0,1,1.31.25,12.13,12.13,0,0,0,1.42.33,43.64,43.64,0,0,1,6,1.84,12.23,12.23,0,0,1,1.77.81c.67.58.54,1.12.95,1.69A2.78,2.78,0,0,0,155.9,40a10.72,10.72,0,0,1,3.77,2.37,2,2,0,0,0,.39.33,12.08,12.08,0,0,1,1.83,1.26l.22.17.18.15a2.61,2.61,0,0,0,.24.22,1.69,1.69,0,0,0,.6.36l.23,0a1.18,1.18,0,0,0,.76-.18,2.31,2.31,0,0,0,.58-.55,4.55,4.55,0,0,0,.49-.81l.51-1.08a2.58,2.58,0,0,1,.42-.55c.4-.45.78-.5,1.06-.21a1.48,1.48,0,0,1,.34,1.33l-.06.48,0,.24,0,.12,0,.14a7.25,7.25,0,0,1-.21.77,5.15,5.15,0,0,1-.36.79,5.61,5.61,0,0,1-1.55,1.83,3.14,3.14,0,0,1-1.34.54,3.37,3.37,0,0,1-1.68-.23,4.83,4.83,0,0,1-.82-.41l-.39-.26a3.22,3.22,0,0,1-.33-.24,5.45,5.45,0,0,0-1.18-.6,16.86,16.86,0,0,1-3.66-2.1,8.18,8.18,0,0,0-2.73-1.45,4.62,4.62,0,0,1-.91-.42c-.51-.32-1-.6-1.53-.9s-1-.57-1.54-.83a15.42,15.42,0,0,0-3.64-1.44l-.47-.11-.47-.08a7.33,7.33,0,0,0-.94-.13l-.93-.06a7.73,7.73,0,0,0-.84.05c-.76.09-1.48.22-2.15.36a4.2,4.2,0,0,0-1.3.5,2.48,2.48,0,0,0-.72.67,2.59,2.59,0,0,0-.38.9,5.31,5.31,0,0,0-.09,1.44c0,.34.12.71.18,1.08a6.52,6.52,0,0,0,1.46,2.91c.31.39.6.8.89,1.21s.58.81.86,1.23.55.83.82,1.26l.4.63.42.63a6.15,6.15,0,0,0,1.32,1.54,5.5,5.5,0,0,1,.85.93,28.5,28.5,0,0,1,1.73,2.28,7.65,7.65,0,0,0,2,2.23,3.17,3.17,0,0,1,.68.76,19.54,19.54,0,0,1,1.41,2.4,16,16,0,0,0,1.31,2,16.22,16.22,0,0,0,1.57,1.91,5.17,5.17,0,0,1,1.15,1.39A5.84,5.84,0,0,0,156,69c.46.41.92.82,1.39,1.2l1.43,1.15c.94.78,1.91,1.52,2.85,2.31.93.63,1.83,1.3,2.74,2,.45.34.9.69,1.37,1s.95.6,1.44.87a3.86,3.86,0,0,1,1.2,1,8.4,8.4,0,0,0,2.24,1.73c.5.28,1,.58,1.45.88s.94.62,1.42.92a3.81,3.81,0,0,1,.61.48l.06.06s0,0,0,0l0,.08c0,.06,0,.12.05.2a1.11,1.11,0,0,0,.43.57c.26.19.53.38.81.56a7.18,7.18,0,0,0,.34-.68,2.75,2.75,0,0,0,.15-.36l0-.09.09-.2.17-.41c.23-.55.44-1.11.64-1.67a26.3,26.3,0,0,1,1.12-2.69c.3-.64.54-1.31.81-2s.45-1.16.73-1.71a12.64,12.64,0,0,0,1.08-2.68,1.84,1.84,0,0,1,.09-.25c1.13-2.2,1.78-4.6,2.91-6.81a19.12,19.12,0,0,0,1-2.7,40,40,0,0,1,1.49-3.95c.25-.55.42-1.16.64-1.73a24.91,24.91,0,0,1,1.29-3.16,9.62,9.62,0,0,0,.82-2.46c.31-1.43.68-2.86.94-4.29a11.48,11.48,0,0,1,.72-2.44c.35-.85.65-1.73,1-2.57a22.59,22.59,0,0,0,1-4.2,4.47,4.47,0,0,0,.1-1,16,16,0,0,1,.13-3.41,2.19,2.19,0,0,0,0-.72,10.77,10.77,0,0,0-.7-2.05,4.5,4.5,0,0,0-1.26-1.63,5.22,5.22,0,0,0-2-1,19.88,19.88,0,0,0-2.31-.38,20.48,20.48,0,0,0-3.13.53l-.77.21c-.26.07-.51.18-.76.27l-.74.3c-.24.13-.48.25-.7.38-.57.31-1.1.69-1.66,1a4.61,4.61,0,0,1-1.06.59,9.35,9.35,0,0,0-1.4.73,10.36,10.36,0,0,1-1.37.79,4.7,4.7,0,0,0-.79.58c-.39.31-.73.68-1.1,1S172.43,33.91,172.06,34.31Z"/><path class="cls-1" d="M150.23,93.26a1.06,1.06,0,0,0-.06-.22c-.14-.43-.15-.56,0-.45a.71.71,0,0,1,.19.13c.14.14.22.16.28.13s.1,0,.17,0a1.16,1.16,0,0,1,.34.39l.57.86a5.65,5.65,0,0,1,.59,1.2c.15.58.22,1.09,0,1.27a1.89,1.89,0,0,1-1,.58.78.78,0,0,0-.24.09,3,3,0,0,1-1.68,0,1.56,1.56,0,0,1-.68-.49,1.85,1.85,0,0,0-.52-.44,2.45,2.45,0,0,1-.82-.6A2.68,2.68,0,0,1,147,95a3.6,3.6,0,0,0-.44-.8,1.62,1.62,0,0,1-.21-.94,1.55,1.55,0,0,1,.27-.71,2.06,2.06,0,0,1,.33-.33c.33-.26.62-.4.77-.81.07-.19.28-.21.42-.28.31.2.45,0,.65-.07s.18-.14.24-.32.29-.44.49-.31a1.13,1.13,0,0,0,.49.18,3.85,3.85,0,0,0,.49.07,2.76,2.76,0,0,1,2.29,1.55.38.38,0,0,0,.09.15,2,2,0,0,1,.5.9c.09.34.15.69.25,1a1.39,1.39,0,0,1-.12.79,1.66,1.66,0,0,1-.42.78,1.74,1.74,0,0,0-.4.42,1.85,1.85,0,0,0-.24.33.5.5,0,0,0-.13.39.33.33,0,0,1-.28.4c-.28.07-.56,0-.58.3-.24,0-.29.06-.31.11s0,0,0,.05c.14.25.17.14.37-.08l0,0,.08-.07.18-.14.22-.22.11-.12.12-.19.22-.38c.07-.19.13-.37.19-.55a2.56,2.56,0,0,0,.11-.61,3.43,3.43,0,0,0,0-.64,3.77,3.77,0,0,0-.32-1.45,2.71,2.71,0,0,0-.65-.86c-.43-.35-.7-.42-.79-.52-.26.13,0-.12.5-.71a7.34,7.34,0,0,1,.66-.7s.06,0,.05,0-.07.26-.14.44,0,.25.06.31a2.23,2.23,0,0,1,.94,1.15,1.8,1.8,0,0,0,.24.42c.18.21.12.48.39.71.11.09.06.24,0,.36a1.91,1.91,0,0,0-.32,1.37.59.59,0,0,1-.15.44.31.31,0,0,0-.13.23c0,.43-.27.72-.23,1.23a.74.74,0,0,1-.17.37.58.58,0,0,1-.21,0l-.27-.14a5.33,5.33,0,0,0-.49-.28c-.24-.08-.39-.11-.4.07a.49.49,0,0,1-.72.47s-.1-.06-.12,0a.41.41,0,0,1-.44,0,1.76,1.76,0,0,0-.44-.15.6.6,0,0,1-.45-.34,1.54,1.54,0,0,1-.21-.6.73.73,0,0,1,0-.26,3.35,3.35,0,0,1,.43-.84h0a.22.22,0,0,0,0-.08.38.38,0,0,1,0-.1,2.11,2.11,0,0,0,0-.25l0-.09a.36.36,0,0,0-.05-.13l0,0,0,0h0l-.29-.32h0l-.07-.06-.08,0,.13,0c.16,0,.13-.09-.19-.19-.11,0-.15,0-.12,0l.14,0a3.36,3.36,0,0,0,.61-.16l.26-.1c.29-.13.27-.21.08-.19s-.38,0-.44,0-.07,0-.26.13A.6.6,0,0,1,149,94c-.05,0-.1.07-.09,0s0,0-.16.15,0,0,0,0l.16-.17c.1-.1.13-.07.11,0s0,.06,0,0,.08.06.05.11-.12.21-.11.28,0,0,0,0,0,0-.05,0,0,0,0,0,.13.17.1.11,0,0,0,0a1.51,1.51,0,0,1,.23.19.59.59,0,0,0,.23.16c.08,0,.15,0,.17-.07s0-.14-.09-.16h-.07l.17.06h0l-.07,0-.14,0s0,0-.06,0h0s.07,0-.09,0h0c.07,0,0,0,0,0s-.08,0,0,0,0,0,0,0l0,0,0,0a.12.12,0,0,1,.05,0,.83.83,0,0,0,.08-.12.3.3,0,0,0,.07-.11.55.55,0,0,0,0-.13.1.1,0,0,1,0,0h0v.09h0a.49.49,0,0,0,0-.12,1,1,0,0,0-.09-.22.78.78,0,0,0-.13-.19l-.07-.05,0,0h.23l-.1,0-.09,0c.06,0,0,.16.12.16s.32-.17.29,0a.48.48,0,0,0,.08-.11s0-.08,0,0v0h0c0,.15,0-.2,0-.16h0l0-.05a.64.64,0,0,0,.05-.2c0-.11,0-.2,0-.27s0-.08,0,0,.07,0,.19.22.05,0,.07,0S150.16,93.3,150.23,93.26Z"/><path class="cls-1" d="M127.79,75.13l0,0a.46.46,0,0,0,.12.12l0,0,0,0h0l.25,0,.52,0a2.39,2.39,0,0,1,1.29.34,1.3,1.3,0,0,1,.47,1.6,2.46,2.46,0,0,1-1.4,1.19,1.6,1.6,0,0,0-.3.13,2.69,2.69,0,0,1-1.79,0c-.24,0-.41-.3-.56-.52a1.44,1.44,0,0,0-.46-.46,2,2,0,0,1-.44-.32,2.36,2.36,0,0,1-.35-.43,2.69,2.69,0,0,1-.19-.38c0-.13-.08-.26-.11-.39a1.68,1.68,0,0,0-.27-.71,1.17,1.17,0,0,1-.18-.62.76.76,0,0,1,.15-.41,1,1,0,0,1,.19-.21c.2-.18.36-.32.25-.64,0-.15.09-.22.15-.32.33.06.31-.16.41-.29s0-.19,0-.36-.06-.49.15-.49a1.37,1.37,0,0,0,.8-.33,3.1,3.1,0,0,1,1.38-.46,2,2,0,0,1,1.34.33.51.51,0,0,0,.17.07,1.91,1.91,0,0,1,1,.56,7.53,7.53,0,0,1,.81,1,1.14,1.14,0,0,1,.18.44c0,.16,0,.32,0,.52a1.74,1.74,0,0,1-.23,1,4,4,0,0,0-.33.51c-.08.16-.12.35-.21.41a.3.3,0,0,0-.07.34.27.27,0,0,1-.18.38c-.25.08-.5.1-.5.37-.23,0-.31.16-.41.25s-.07,0-.08.1c0,.31-.21.29-.3.23s0,0,0-.13a1.76,1.76,0,0,0,.19-.53c0-.08.06-.22.08-.32a2.76,2.76,0,0,1,.09-.37l.1-.41.12-.53c0-.09,0-.15,0-.25V75l0-.31a.82.82,0,0,0,0-.31c-.05-.21-.09-.42-.12-.62a.33.33,0,0,0,0-.14l-.06-.13-.12-.24a.63.63,0,0,1-.25-.23.25.25,0,0,1,0-.24,2.92,2.92,0,0,1,.56-.8,1.18,1.18,0,0,0,.3-1.11.14.14,0,0,0-.15-.13,1.11,1.11,0,0,0-.72.25,1.27,1.27,0,0,0-.14.16s0,0,0,0a2.16,2.16,0,0,1,1,.39,1.17,1.17,0,0,0,.39.16c.28.06.35.26.73.3.16,0,.17.15.14.25-.13.45.17.71.37,1.08a.35.35,0,0,1,0,.38.23.23,0,0,0,0,.21c.19.32.06.63.3,1,.08.12,0,.22,0,.33a4.06,4.06,0,0,1-1,0c-.26,0-.43,0-.33.14.23.3.08.5-.26.55,0,0-.11,0-.11,0,0,.25-.45.19-.59.31s-.68,0-1-.15a.85.85,0,0,1-.22-.14,4.57,4.57,0,0,1-.68-.66,2.93,2.93,0,0,1-.43-.57c0-.09,0-.14.08-.07s.11.06.1,0-.11-.16,0-.11,0,0-.07-.09-.24-.19-.12-.17.11,0-.17-.12l-.09,0,.14,0c.18,0,.09-.13-.27-.09h-.13s0,0,.11,0a3.38,3.38,0,0,0,.43-.28,1.67,1.67,0,0,0,.16-.12c.17-.15.1-.17,0-.1a1.78,1.78,0,0,1-.37.17s0,0-.14.13l-.07.1s0,.06,0,0,0,0-.07.1h0a.15.15,0,0,1,.09,0c.06,0,.09,0,.09.1s0,0,0,.07a.22.22,0,0,1,.07.16c0,.09,0,.08,0,.14-.07-.1,0,0-.07-.16s0,0,0,0,.16.16.12.09,0,0,0-.07.08,0,.25.16a1,1,0,0,0,.24.13c.08,0,.14,0,.15-.07a0,0,0,0,0,0,0h-.06l.42.15h0l.14,0h.07l-.2.06h0a.28.28,0,0,0-.09,0h0a.69.69,0,0,0-.19.26h0a.61.61,0,0,0,0-.14v0h0V74.9h0a.69.69,0,0,0,0,.1,1.09,1.09,0,0,0,.06.11,1.08,1.08,0,0,0,.13.15l0,0,0,0a1,1,0,0,0-.46-.1s-.07,0,0,0,0,0-.25.07c-.06,0-.11,0-.1,0s0,.11.06.1.15-.09.11-.06a.09.09,0,0,0,0-.06,1,1,0,0,0,.12-.36v-.09s0,0,0,.06,0,0,0,0A.73.73,0,0,0,127.79,75.13Z"/><path class="cls-1" d="M115.45,50c0-.05.1-.12.17-.22a.64.64,0,0,1,.63-.3,1.37,1.37,0,0,1,1,.61,2.37,2.37,0,0,1,.3.5l.07.19a2.41,2.41,0,0,1,.08.25,2.34,2.34,0,0,1,0,.26,2,2,0,0,1-.2,1.1,2.59,2.59,0,0,1-.35.52,2.39,2.39,0,0,1-.67.52,1.09,1.09,0,0,1-.46.15,2.17,2.17,0,0,1-.7,0,1.71,1.71,0,0,1-.54-.23l-.24-.21a1.57,1.57,0,0,1-.19-.26,1,1,0,0,1-.1-.27.65.65,0,0,1,0-.19.51.51,0,0,1,.1-.28l.11-.12.12-.07a1.25,1.25,0,0,1,.25-.09,1.53,1.53,0,0,1,.52,0l.2,0h0s-.05,0,0,0,0-.09,0-.11,0,0,0,0l.07,0h0l-.08.05h0a.78.78,0,0,0-.09.47c0,.08,0,.18,0,.3v.21l0,.31.13,1h-.15a.27.27,0,0,0-.15,0c-.29.12-.6-.13-.88-.18-.11,0-.19-.23-.27-.39s-.15-.25-.24-.25a1.49,1.49,0,0,1-.85-.33.47.47,0,0,0-.43,0,.65.65,0,0,1-.42,0,.43.43,0,0,1-.2-.22.71.71,0,0,1-.05-.22c0-.2-.07-.37-.38-.34-.14,0-.13-.11-.19-.18.09-.14.1-.19.06-.25s-.12-.11-.16-.17-.16-.09-.34-.07-.46-.08-.39-.25a.71.71,0,0,0,0-.67,2,2,0,0,1,.17-1.9.17.17,0,0,0,.06-.12,1.37,1.37,0,0,1,.39-.75c.2-.22.44-.42.68-.68a1.14,1.14,0,0,1,.69-.26,1.36,1.36,0,0,1,.82,0,3.22,3.22,0,0,0,.89.24.51.51,0,0,0,.39-.05.32.32,0,0,1,.46.07c.15.21.24.42.52.35.08.2.27.23.43.31s.08.07.15.07c.37,0,.5.28.6.52a2.34,2.34,0,0,1,.23.51.9.9,0,0,1,0,.56c-.2.5-.41.88-.5,1.22-.2.12,0,.18.54.29a1,1,0,0,1,.65.33s0,.08,0,.11a1.75,1.75,0,0,1-.48.35c-.19.07-.29.15-.32.26a3.83,3.83,0,0,1-.27.58l-1,1.79L114,53.25a4.57,4.57,0,0,1-.49-.38.69.69,0,0,0-.33-.17c-.22-.05-.27-.24-.6-.24-.13,0-.15-.11-.12-.22.13-.45-.14-.62-.36-.88-.06-.08-.14-.17-.08-.29s0-.13,0-.17c-.22-.21-.16-.47-.49-.7-.1-.08-.08-.17-.11-.26a4.66,4.66,0,0,1,1-.19c.25,0,.39-.09.26-.17-.31-.19-.25-.38.06-.48,0,0,.1,0,.09,0-.1-.2.34-.23.42-.35s.62-.08.94,0a1,1,0,0,1,.24.11,5.7,5.7,0,0,1,.79.51l.58.42,0,0h0l-.06,0-.08,0c.05,0,.17.08,0,0l.1,0c.22.08.29.07.19.06s-.08,0,.18,0h0c-.08,0-.1,0-.06,0a.8.8,0,0,0,.15,0l0,0-.1.05,0,0-.15.12-.18.17c-.2.2-.17.23-.05.11a2.36,2.36,0,0,0,.19-.2l-2.49.64h0l-.06,0h0l-.07,0h-.13a1.13,1.13,0,0,0,.32,0c.08,0,.12,0,.12,0s-.1,0,.1,0,.32-.11.26-.12a2,2,0,0,0-.43,0,1,1,0,0,0-.18.1l.06,0,0,0,.1-.12a1.16,1.16,0,0,0,.13-.2l0-.09,0-.07a1.24,1.24,0,0,0,.06-.18v-.15s0,0,0,0,0,0,0,0l0,.06a.73.73,0,0,0,.09.1h0a.8.8,0,0,0,.29.2l.06,0h-.18l-.11,0-.13,0h0l.44-.28h0l0,0s0,0,0,0l-.05.06-.07.09a.61.61,0,0,0-.09.16s0,.07,0,0,.07,0,0,.27c0,.06,0,.11,0,.11s.09.12.19,0,.22-.29.26-.13c.13-.24.21-.14.31-.49l.07-.27s0-.09,0,0,.07,0,.12.25c0,.07,0,.05,0,0h0l.09,0A2.17,2.17,0,0,1,115.45,50Z"/><path class="cls-1" d="M123.25,16.63a1.08,1.08,0,0,0-.13-.19c-.26-.37-.31-.48-.16-.41a1,1,0,0,1,.2.09c.17.11.24.12.27.09s.09,0,.16,0a1.91,1.91,0,0,1,.41.3l.77.69a5.77,5.77,0,0,1,.9,1c.32.49.54.95.44,1.13a1.18,1.18,0,0,1-.55.64.37.37,0,0,0-.13.12c-.23.29-.69.28-1.1.42-.15.06-.38-.08-.57-.17a.71.71,0,0,0-.49-.1,1.78,1.78,0,0,1-.8.05,2,2,0,0,1-.66-.21,1.57,1.57,0,0,0-.7-.16,1.18,1.18,0,0,1-.61-.21,1,1,0,0,1-.26-.36,1.18,1.18,0,0,1,0-.28c0-.26,0-.46-.37-.55-.15-.05-.12-.19-.16-.29.25-.23.06-.31,0-.45s-.13-.12-.31-.16-.43-.18-.31-.32a.79.79,0,0,0,.11-.69,3.24,3.24,0,0,1,.11-1.18,2.06,2.06,0,0,1,.76-1,.32.32,0,0,0,.12-.11,1.51,1.51,0,0,1,.68-.62,8.6,8.6,0,0,0,.8-.42.91.91,0,0,1,.59-.05,1.09,1.09,0,0,1,.6.17,1.16,1.16,0,0,0,.69.23.31.31,0,0,0,.32-.1.28.28,0,0,1,.42,0c.16.18.29.36.56.23.14.18.35.17.54.22s.11.06.18,0a.65.65,0,0,1,.5.12,1.9,1.9,0,0,1,.34.35,3.61,3.61,0,0,1,.51.72,1.86,1.86,0,0,1,.17,1.11,2.83,2.83,0,0,1-.5,1.16,5.59,5.59,0,0,1-.63.7c-.28,0-.2.2.09.7a.84.84,0,0,1,.08.81.18.18,0,0,1-.15.14,2.06,2.06,0,0,1-.89,0,1.68,1.68,0,0,0-.69-.07,2.9,2.9,0,0,1-2.12-.64,1.92,1.92,0,0,0-.47-.31c-.3-.14-.39-.43-.76-.56a.3.3,0,0,1-.13-.38,3.72,3.72,0,0,0-.16-1.55.7.7,0,0,1,.1-.56.48.48,0,0,0,.13-.29c0-.49.32-.81.36-1.34,0-.17.14-.25.22-.37.27,0,.63.4.89.56s.37.21.37,0c0-.4.3-.49.59-.31,0,0,.08.07.1,0,.19-.2.49.14.67.15s.47.51.56.84a1,1,0,0,1,0,.27,4.88,4.88,0,0,1-.17.93l-.1.45v0a.25.25,0,0,0,0,.08v0h0s0,0,0,.06h0s0,0,0,0,0,.08,0,0,0,0,0,0l0-.09,0,0-.11-.1-.1-.06h0L124,16.5h.22a.24.24,0,0,0,.1,0l0,0,0,0a.5.5,0,0,0-.11.1.41.41,0,0,0-.08.15h0l0,.13h0v-.1l0-.06c0-.05-.05-.09-.06-.12s0,0,0,0l0,0,.14.08.09,0,.13,0h0l-.14.06h0l-.08.05-.2.14a2,2,0,0,0-.23.21l-.14.14,0,0h0a.56.56,0,0,0-.16.19l0,0s0,0,0,0l0-.06c.12-.2.09-.21,0-.12s0,0-.07.06,0-.08.06-.29,0-.24,0-.26-.16-.15-.21.07,0,.13,0,.11,0,.05,0,.07,0,.06,0,0,0,0,0,0,0,.08,0,0h0a.5.5,0,0,0-.09-.14h0l-.24-.22h0l0,0,.07,0,.09,0,.09,0,.12,0h0a.16.16,0,0,0-.09,0,.38.38,0,0,0-.13.06l-.13.08-.13.12s0,.06,0,0h0l0,.07-.08.17c0,.06,0,.1,0,.1s0,0,0,0,0,0,.08,0,.08-.34.15-.21c0-.26.1-.2,0-.55l-.07-.27s0-.09,0-.05.09,0,.27.13.06,0,.07,0Z"/><path class="cls-1" d="M159.28,19.26s0,0,0,0l-.06.11a.08.08,0,0,0,0,0s0,0,0,0h0v.28l0,.53a2.69,2.69,0,0,1-.11,1.32,1.75,1.75,0,0,1-.57.68.88.88,0,0,1-.72.14,2.23,2.23,0,0,1-1.35-.91,1,1,0,0,0-.18-.22,2.43,2.43,0,0,1-.43-1.49c0-.19.16-.42.3-.59a.92.92,0,0,0,.23-.49,2,2,0,0,1,.26-.88,1.8,1.8,0,0,1,.53-.6,2.24,2.24,0,0,0,.51-.58,1.28,1.28,0,0,1,.55-.43.88.88,0,0,1,.48,0,1,1,0,0,1,.28.11c.25.13.43.24.71,0,.12-.09.23,0,.33,0,0,.34.22.24.36.3s.18,0,.32-.15.42-.2.47,0,.27.4.47.56a2.72,2.72,0,0,1,.85,1,2.32,2.32,0,0,1,.21.75,2,2,0,0,1-.09.8.51.51,0,0,0,0,.21,2,2,0,0,1-.4,1.2,6.19,6.19,0,0,1-.95,1,1.87,1.87,0,0,1-1.14.32,1.77,1.77,0,0,1-1.27-.34l-.45-.41-.34-.28a.61.61,0,0,0-.39-.16.37.37,0,0,1-.4-.33c-.05-.28,0-.53-.33-.66,0-.24-.13-.4-.23-.6s0-.12-.09-.17a.92.92,0,0,1-.19-1,2.81,2.81,0,0,1,.19-.73,1.36,1.36,0,0,1,.5-.62,5.19,5.19,0,0,1,.92-.45l.44-.13.43-.11c.25.13.28-.08.3-.65a.89.89,0,0,1,.37-.73.17.17,0,0,1,.19,0,1.71,1.71,0,0,1,.63.46.82.82,0,0,0,.41.35,3.47,3.47,0,0,1,1.38.94,2.77,2.77,0,0,0,.39.36,1,1,0,0,1,.31.35,1.85,1.85,0,0,0,.36.41.38.38,0,0,1,.06.47,3.23,3.23,0,0,0-.23.9,5.43,5.43,0,0,1-.22.95.79.79,0,0,1-.37.51.55.55,0,0,0-.26.21,1.68,1.68,0,0,1-.48.51,2.07,2.07,0,0,0-.49.49c-.09.13-.24.15-.36.21-.23-.15-.35-.66-.5-.93s-.21-.36-.3-.22c-.21.34-.52.28-.7,0,0,0,0-.1-.07-.1-.3.06-.39-.42-.55-.57s-.06-.78.18-1a.76.76,0,0,1,.21-.15,1.57,1.57,0,0,1,.39-.18l.23-.09,0,0h0s0,0,0,0h0l0,0,0,0a.3.3,0,0,0,0-.08l0-.07c0-.08,0-.18,0-.24a.22.22,0,0,0,0-.1h0a.78.78,0,0,0,0,.09.75.75,0,0,0,.26.33s0,0,0,0h0l-.1,0h0s0,0,0,0h-.06l-.08,0-.05,0a.83.83,0,0,0-.15.11l-.08.09,0,0s0,0,0,0v0l0-.11a.71.71,0,0,0,0-.14v-.05a.87.87,0,0,0,0-.1v0h0l.07.11h0v0h0l0,0a.93.93,0,0,0,.29.12h.11l-.07,0-.12.06,0,0,0,0-.07.06v0h0l.14-.2h0v0l0,0-.09.14a3,3,0,0,0-.2.36,1.84,1.84,0,0,0-.06.18.69.69,0,0,0,0,.07s0,0,0,0l0-.09a.88.88,0,0,0-.12-.15h0l-.06-.05.06,0h0l-.1,0h0a.67.67,0,0,0-.16.06l-.09.05-.14.11-.06.07a0,0,0,0,1,0,0v0s0-.05,0-.09l0-.14a.83.83,0,0,0,0-.23.08.08,0,0,0,0,0v0h0l0,0s0,0,0,0-.07,0,0,0l.09,0,0,0,.07,0s0,0,0,0a.92.92,0,0,0,.22,0,.74.74,0,0,0,.18,0h0a.21.21,0,0,0-.09.05l0,0A.8.8,0,0,0,159.28,19.26Z"/><path class="cls-1" d="M182.36,3.15l0-.11,0-.12-.06-.16-.09-.21,0-.11v0c0,.06,0,.08.11.18s.15.2.18.19.07,0,.12.08a1.83,1.83,0,0,1,.3.41l.54.88a7.14,7.14,0,0,1,.59,1.19c.18.56.27,1.06.06,1.23a1.77,1.77,0,0,1-1.23.47,1.88,1.88,0,0,0-.33,0,1.8,1.8,0,0,1-1.11-.25,4.15,4.15,0,0,1-.89-.7,1,1,0,0,1-.22-.41.69.69,0,0,1,0-.13s0,0,0,0l0-.14c0-.17.08-.31,0-.39a.89.89,0,0,1-.13-.42.76.76,0,0,1,.08-.32c0-.1,0-.16-.14-.2a.27.27,0,0,1-.21-.17s0-.14.1-.22a1.06,1.06,0,0,1,.19-.16c.19-.16.36-.28.07-.38-.13-.05,0-.14,0-.21.47-.13.29-.21.36-.34s-.06-.12-.26-.19-.35-.29-.11-.38a1.28,1.28,0,0,0,.48-.29,3.9,3.9,0,0,0,.33-.38,4.36,4.36,0,0,1,2-1.27,3.57,3.57,0,0,1,2.74.37.76.76,0,0,0,.23.15,2.76,2.76,0,0,1,.39.18,1.78,1.78,0,0,1,.27.21,2.44,2.44,0,0,1,.42.44c.11.15.17.29.27.42a3.11,3.11,0,0,0,.25.38.42.42,0,0,1,.08.26,2.13,2.13,0,0,1,0,.25c0,.16,0,.33-.18.46a.58.58,0,0,0-.19.53.36.36,0,0,0,.12.31c.15.18.15.31,0,.39s-.33.21-.21.5c-.16.09-.15.29-.2.48s0,.09,0,.16a.7.7,0,0,1-.39.73,3.37,3.37,0,0,1-.43.34.83.83,0,0,1-.53.11,9.55,9.55,0,0,0-1.23-.22c-.14-.18-.18,0-.22.58a1.37,1.37,0,0,1-.1.45.78.78,0,0,1-.29.24.28.28,0,0,1-.25,0,1.93,1.93,0,0,1-.79-.65,2.06,2.06,0,0,0-.46-.56A2.89,2.89,0,0,1,181.37,5a1.6,1.6,0,0,0-.17-.44c-.15-.24-.06-.48-.29-.78-.09-.12,0-.26.09-.35a1.49,1.49,0,0,0,.44-.61c.1-.23.21-.51.28-.68a.4.4,0,0,1,.26-.29c.09,0,.16,0,.18-.11.12-.34.43-.42.5-.83,0-.13.13-.15.19-.22a4.38,4.38,0,0,1,.62.82c.16.19.26.31.27.15,0-.36.18-.38.4-.16,0,0,.05.07.06.06.1-.17.33.18.46.18s.38.44.57.72a1.94,1.94,0,0,1,.11.24,5.87,5.87,0,0,1,.24.91,2.15,2.15,0,0,1,.07.71c0,.1-.06.13-.13,0s-.09-.1-.11-.06-.07.21-.17.09,0,0,0,.12c0,.24,0,.33-.11.24s-.11,0,0,.22c0,.08,0,.1,0,.09S185.06,5,185,5L185,4.88l-.12-.15a.29.29,0,0,0-.09-.1s0,0-.05,0l0,0h0l-.54-.39h0l0,0a.8.8,0,0,0,.2.07l.14,0h-.05a1.35,1.35,0,0,0-.32.14l-.11.08,0,0,0,0s0,0,0,0V4.59h0L184,2.76l0,0s-.09,0-.08.07V3c0,.07,0,.16,0,.26,0,.27.13.45.16.41s0-.09.07.09.15.26.16.19,0-.43,0-.49c-.12-.26,0-.19-.19-.42,0-.05,0-.05,0,0s.15.07.09,0,0-.06,0-.09,0,0,.18.07a.45.45,0,0,0,.16,0c.06,0,0-.13-.13-.2l-.1-.06s0,0-.07,0-.05,0-.05,0,0,0-.08,0h0s-.12,0-.13,0,0,0,0,0l0,0h-.06s0,0-.08,0-.05,0,0,0,0,0,.06,0,0,0-.07,0l-.26.06a1.66,1.66,0,0,0-.37.15l0,0c.06,0,0,0-.27.17l-.1.06s-.16.14-.12.18.21,0,.11.14a.48.48,0,0,1,.24,0h0l-.56.42h0l0,0,0,0,0-.07,0,0h0s0,0,0,.06V3.56A2.64,2.64,0,0,0,182.36,3.15Z"/><path class="cls-1" d="M211.76,23.37h0l-.06.08h0a.18.18,0,0,0,0-.05.12.12,0,0,0,0-.07s0,0,.06,0,.07,0,.08,0h0s0,0,0,0a1.82,1.82,0,0,1,.47-.58.53.53,0,0,1,.33-.12.68.68,0,0,1,.42.2,1.62,1.62,0,0,1,.43.95,1.71,1.71,0,0,1,0,.45,1.34,1.34,0,0,1-.07.39,1.65,1.65,0,0,1-.36.66,1.55,1.55,0,0,1-.82.47,1.78,1.78,0,0,1-.39.07,2.34,2.34,0,0,1-.46,0,2.46,2.46,0,0,1-.95-.3l-.21-.13-.13-.09-.24-.21a2.56,2.56,0,0,1-.39-.48,2.51,2.51,0,0,1-.36-1,2.28,2.28,0,0,1,0-.8l.12-.5a2,2,0,0,1,.3-.65l.12-.16.11-.1.21-.19a4.59,4.59,0,0,1,1-.49,1,1,0,0,1,.74.14.92.92,0,0,0,.51.15,1.86,1.86,0,0,1,.78.09,1.77,1.77,0,0,1,.55.31,1.38,1.38,0,0,0,.6.26,1,1,0,0,1,.52.3.73.73,0,0,1,.16.36.77.77,0,0,1,0,.26c0,.25-.07.42.22.56.13.06.07.18.09.27-.29.16-.13.26-.11.39s.1.12.27.18.38.24.25.33-.22.34-.23.53a2.49,2.49,0,0,1-.05.46,1.74,1.74,0,0,1,0,.22.81.81,0,0,1-.1.25,1.61,1.61,0,0,1-.79.83.2.2,0,0,0-.11.09,1.33,1.33,0,0,1-.68.48c-.26.11-.56.18-.88.31a.78.78,0,0,1-.37,0,3.84,3.84,0,0,1-.88-.27,1.38,1.38,0,0,1-.43-.32c-.16-.21-.32-.37-.46-.53s-.27-.33-.38-.49a1.18,1.18,0,0,0-.38-.43.54.54,0,0,1-.24-.61c.09-.32.23-.53.05-.79.15-.19.1-.42.13-.65a.42.42,0,0,0,0-.2.86.86,0,0,1,.4-.9,2.38,2.38,0,0,1,.52-.43,1.12,1.12,0,0,1,.66-.16,10.43,10.43,0,0,1,1.58.35c.14.22.24.05.48-.46a.88.88,0,0,1,.61-.53.19.19,0,0,1,.19.05,1.7,1.7,0,0,1,.44.75,1.16,1.16,0,0,0,.23.55A3,3,0,0,1,215.4,24a1.41,1.41,0,0,0,.13.45c.12.27,0,.51.17.88.06.15,0,.29-.18.38a2.67,2.67,0,0,0-.64.61,6.39,6.39,0,0,1-.62.67.93.93,0,0,1-.65.25.62.62,0,0,0-.38,0,1.81,1.81,0,0,1-.79.11,3.46,3.46,0,0,0-.78,0,.85.85,0,0,1-.44-.11c-.07-.27.19-.72.27-1s.12-.4-.05-.36c-.39.1-.55-.17-.45-.51,0,0,0-.1,0-.11s-.11-.22-.07-.37a1.86,1.86,0,0,0,.12-.41.49.49,0,0,1,.32-.39,1.22,1.22,0,0,1,.58-.11.87.87,0,0,1,.25.08,2.55,2.55,0,0,1,.37.22l.06,0h0s0,0,0,0h.07l.08,0,.06,0a.52.52,0,0,0,.16-.09l0,0v0a.27.27,0,0,0-.06.12c-.06.14,0,.28,0,.22h0l-.05-.09h0s0,0,0,0l0,0-.07,0-.16-.05h-.13s0,0,.08,0l.06,0,0,0a.45.45,0,0,0,.07-.07s0,0,0,0l-.06.14v0a.37.37,0,0,0,0,.15v.06l0,.09c0,.07.05.08,0,.06a.4.4,0,0,0-.13-.09l0,0,0,0h0l.13,0h0l-.26,0h-.12l-.09,0-.09,0h0l.05,0h0c-.05,0-.07.06-.06,0a.4.4,0,0,0,0-.09s0-.08,0-.13a.81.81,0,0,0,0-.15,1.29,1.29,0,0,0,0-.21h0c-.06-.16-.1-.2-.06-.14A.75.75,0,0,0,212,24l.1.08.06,0h0l-.56-.3h0l0,0h.33l.11,0a.48.48,0,0,0,.12,0h0l.18-.14,0,0,0,0h0a0,0,0,0,0,0,0c0,.05,0-.08,0,0s-.06.17-.05.12,0,0,0-.06a.43.43,0,0,0-.07-.24l0,0h0l-.18-.14h0l0,0h-.08A.28.28,0,0,0,211.76,23.37Z"/><path class="cls-1" d="M209.22,57.06h0a.47.47,0,0,0,0,.13.87.87,0,0,0,0,.1.22.22,0,0,0,.05.1h0l-.05,0h0l.21,0c.53.07,1,.15,1.23.53a1.29,1.29,0,0,1,.1.63,1.55,1.55,0,0,1-.21.66,2,2,0,0,1-.22.29,1.21,1.21,0,0,1-.24.21,1.39,1.39,0,0,1-.55.26,3.08,3.08,0,0,1-1.25,0,2.22,2.22,0,0,1-1.15-.67l-.2-.23-.22-.26a2.26,2.26,0,0,1-.43-1l0-.27v-.22a2.45,2.45,0,0,1,0-.38,3.27,3.27,0,0,1,.59-1.26,1.09,1.09,0,0,1,.78-.35,1.48,1.48,0,0,0,.58-.16,1.81,1.81,0,0,1,.82-.3,1.53,1.53,0,0,1,.37,0,1.91,1.91,0,0,1,.37.06,1.23,1.23,0,0,0,.66,0A1,1,0,0,1,211,55a.67.67,0,0,1,.29.26,1.09,1.09,0,0,1,.1.25c.07.23.12.41.44.41.15,0,.15.14.21.21-.19.28,0,.31.09.43s.15.08.33.06.46.07.38.24a.79.79,0,0,0,0,.69,2.67,2.67,0,0,1,.11,1.21,1.81,1.81,0,0,1-.59,1.11.36.36,0,0,0-.1.14,1.47,1.47,0,0,1-.6.7c-.25.16-.5.29-.73.47a.82.82,0,0,1-.56.1,1,1,0,0,1-.61-.13,1.35,1.35,0,0,0-.71-.2.42.42,0,0,0-.35.11.31.31,0,0,1-.46,0c-.19-.19-.33-.38-.64-.31-.14-.21-.36-.24-.56-.35a.49.49,0,0,0-.18-.08c-.43,0-.6-.37-.72-.66A3.14,3.14,0,0,1,206,59a1.14,1.14,0,0,1,0-.66c.24-.55.52-.95.68-1.33.23-.09.07-.2-.44-.46a.93.93,0,0,1-.53-.54.12.12,0,0,1,0-.15,1.63,1.63,0,0,1,.62-.3.66.66,0,0,0,.45-.21,2.91,2.91,0,0,1,1.6-1,3.54,3.54,0,0,0,.62-.16c.35-.11.66,0,1.05-.1a.32.32,0,0,1,.37.19,1.53,1.53,0,0,0,.47.57c.17.13.37.24.55.38s.25.19.25.36a.24.24,0,0,0,.08.22,1.24,1.24,0,0,1,.34.47,1.2,1.2,0,0,0,.36.43c.12.08.11.19.15.28a3.64,3.64,0,0,1-1,.32c-.24.08-.38.14-.24.21.33.17.27.35,0,.47,0,0-.09,0-.08,0s-.3.23-.35.34-.57.17-.9.22h-.26a5.82,5.82,0,0,1-.93-.17,2.57,2.57,0,0,1-.67-.24c-.08-.06-.09-.11,0-.12s.13,0,.11-.07-.17-.14,0-.17,0,0-.1-.07c-.22-.08-.29-.12-.18-.14s.08-.05-.19,0h.1l.34-.05h.08l.44-.13h0l-.09,0,0,0,.05-.05a.93.93,0,0,0,.13-.18.87.87,0,0,0,.08-.19v0s0,0,0,0a.59.59,0,0,0,.14.28l.1.11.06.06.12.09h0l-.06,0h0l0,0h0l.08,0h-.05c-.33,0-.34,0-.27.06a.71.71,0,0,0,.25,0l.11,0h0a.75.75,0,0,0-.18.13l0,0,0,0-.06.1,0-.07,0,0v0a.69.69,0,0,0,0-.07.18.18,0,0,1,0,0v-.05h0v0a.25.25,0,0,0,0,.07h0a1,1,0,0,0,.16.18l0,0,.08,0h-.25l-.08,0,0,0,0,0,.06,0a.73.73,0,0,0,.1-.13l0,0a.33.33,0,0,0,0-.06v0h0l0-.1a.42.42,0,0,0,0-.1s0-.09,0,0,0,.06,0,.09v0l0,0a.65.65,0,0,0-.27-.25h-.21a.14.14,0,0,0,0,0,.08.08,0,0,0,0,0A.58.58,0,0,0,209.22,57.06Z"/><path class="cls-1" d="M199.71,81.23v0a.28.28,0,0,0-.06.09s0,0,0,0,0,0,0,0h0v.19l0,.52a2.9,2.9,0,0,1-.09,1.33c-.25.57-.79,1-1.25.84a2.12,2.12,0,0,1-1.32-.88.87.87,0,0,0-.17-.21,2.27,2.27,0,0,1-.41-1.43c0-.19.15-.39.3-.56a.79.79,0,0,0,.22-.45,1.45,1.45,0,0,1,.06-.41,1.63,1.63,0,0,1,.15-.4,1.74,1.74,0,0,1,.44-.56,1.12,1.12,0,0,0,.33-.53,1,1,0,0,1,.33-.45.72.72,0,0,1,.37-.11,1.14,1.14,0,0,1,.25.06c.23.06.41.12.56-.17.07-.12.19,0,.28-.06.13.31.25.14.38.14s.14-.09.21-.26.28-.36.37-.22.34.24.55.28a2.84,2.84,0,0,1,1,.34,2.22,2.22,0,0,1,.44.37,1.31,1.31,0,0,1,.28.48.21.21,0,0,0,.07.11,1.34,1.34,0,0,1,.43.68,3.67,3.67,0,0,0,.24.73.67.67,0,0,1,0,.5.93.93,0,0,1-.24.5.87.87,0,0,0-.3.56.29.29,0,0,0,.08.3c.12.15.11.27,0,.36s-.37.22-.25.47c-.18.09-.17.29-.23.46a.26.26,0,0,0,0,.15c.06.37-.19.55-.44.72a3,3,0,0,1-.58.37,1.41,1.41,0,0,1-.77.11,5,5,0,0,1-1-.3c-.29-.13-.52-.28-.74-.4-.07-.25-.22-.11-.58.33a.94.94,0,0,1-.67.38.12.12,0,0,1-.14-.07,1.68,1.68,0,0,1-.15-.67.59.59,0,0,0-.09-.46,3.38,3.38,0,0,1-.6-1.27.87.87,0,0,0-.18-.36c-.16-.18-.09-.37-.36-.55-.11-.08-.06-.17,0-.25.35-.29.23-.56.17-.84,0-.1,0-.19.06-.25s.1-.07.07-.12c-.11-.24.06-.38-.19-.65-.07-.08,0-.13,0-.19a8.13,8.13,0,0,1,1,.24c.24.05.4.06.28,0a.88.88,0,0,1-.14-.15l2.14-.81c.11,0,.14,0,.12.26,0,0,0,.09,0,.08.16-.07.06.33.14.41s0,.57-.07.9a1.22,1.22,0,0,1-.07.25,5.73,5.73,0,0,1-.4.86,2.27,2.27,0,0,1-.4.59c-.08.06-.14.06-.13-.07s0-.14,0-.13-.22.1-.22-.06-.07,0-.13.06-.31.18-.34,0a.16.16,0,0,0,0-.07l2.71-1s0,.11.17.22.09.07.07.09a.34.34,0,0,1-.17.14c-.2.08-.16.23.15.37.11,0,.15.07.11.08a.24.24,0,0,1-.13,0,5.41,5.41,0,0,0-.57,0l-.25,0A.57.57,0,0,0,200,82l.1,0h.09l0,0,0,0h0l0,0-.08.06-.1.12,0,0a.56.56,0,0,0-.07.13.74.74,0,0,0-.06.18v0h0v0a1.1,1.1,0,0,0-.21-.41,1.92,1.92,0,0,0-.37-.38h0l.1.07h0l0,0h0s0,0-.05,0l-.06,0h0l.28.1a1,1,0,0,0,.25.07c.12,0,.15-.09-.06-.14s-.13,0-.1,0h-.1l.11,0h0a.81.81,0,0,0,.18-.08h0l.2-.17h0a.87.87,0,0,0-.08.1l0,.06,0,.08a0,0,0,0,0,0,0v-.1s0-.06,0-.1,0-.12-.06-.16,0,0,0,0,0,0,0,0v0l0,0L199.6,81s-.08-.08-.08-.07-.09,0,0,0a.15.15,0,0,0,.08,0l0,0h.25l.08,0h0l-.09,0,0,0Z"/><path class="cls-1" d="M181,103.19v0a.53.53,0,0,0,.09.19.56.56,0,0,0,.05.08l.05,0s0,0,0,0h0l.26,0a1.68,1.68,0,0,1,1.33.19,1.37,1.37,0,0,1,.4,1.08,1.43,1.43,0,0,1-.52,1,3.24,3.24,0,0,1-1.08.57,2,2,0,0,1-1.07,0c-.14,0-.28,0-.43-.08a2.2,2.2,0,0,1-1.28-.78,2.86,2.86,0,0,1-.46-.74l-.08-.21c0-.06,0-.1-.05-.15l-.08-.31a1.27,1.27,0,0,1,.27-.9,2,2,0,0,0,.31-.61,2,2,0,0,1,.41-.84,1.93,1.93,0,0,1,.53-.46,1.4,1.4,0,0,0,.45-.48,1.13,1.13,0,0,1,.5-.42l.06,0h0l.63-.21.74.33a.92.92,0,0,1,.28.24.7.7,0,0,1,.13.24c.12.25.19.43.53.42.16,0,.17.15.24.23-.16.29,0,.32.13.44s.16.08.34.06.46,0,.39.21,0,.45.08.66a3,3,0,0,1,.27,1,1.71,1.71,0,0,1-.27,1.06.27.27,0,0,0-.05.15,1.64,1.64,0,0,1-.39.87l-.33.39a3.28,3.28,0,0,0-.34.39,1.3,1.3,0,0,1-.69.32,1.78,1.78,0,0,1-.93.06,9.75,9.75,0,0,1-1.43-.37,3.39,3.39,0,0,0-.7-.26.85.85,0,0,1-.65-.64c-.1-.44,0-.75-.3-1a1.39,1.39,0,0,0-.07-.71.31.31,0,0,0-.05-.18.68.68,0,0,1-.12-.5,1.66,1.66,0,0,1,.15-.39,3.22,3.22,0,0,1,.25-.53,1,1,0,0,1,.46-.41c.54-.23,1-.4,1.5-.62.26.09.24-.12.12-.68a.86.86,0,0,1,.21-.81.23.23,0,0,1,.2-.08,1.91,1.91,0,0,1,.85.32,1.36,1.36,0,0,0,.61.31,2.72,2.72,0,0,1,1,.51,3.08,3.08,0,0,1,.67.74,1.65,1.65,0,0,0,.35.4c.23.21.23.49.54.72a.29.29,0,0,1,0,.4,1.87,1.87,0,0,0-.24.76,5.19,5.19,0,0,1-.1.83.69.69,0,0,1-.27.49.37.37,0,0,0-.2.21,1.67,1.67,0,0,1-.33.54,1.91,1.91,0,0,0-.35.56c0,.15-.19.2-.29.28-.24-.09-.48-.56-.68-.79s-.28-.31-.33-.15c-.1.38-.37.39-.6.15,0,0-.06-.09-.08-.07-.21.15-.4-.25-.57-.3s-.32-.58-.35-.93a.93.93,0,0,1,0-.26,5.46,5.46,0,0,1,.32-.89l.17-.43.08-.19v-.06h0v0c0,.09,0,.12,0,.09s0-.19,0,0v-.19h0v.07a.76.76,0,0,0,0,.11v.05s.06.11.09.15a.42.42,0,0,0,.1.12l0,0,.24.13h0a.2.2,0,0,0-.1,0,.58.58,0,0,0-.18,0h0l.09,0a.63.63,0,0,0,.21-.22l0,0v0h0v.16h0v0h0v0l.07.15.12.17a1.81,1.81,0,0,0,.17.19l-.1-.07c-.26-.2-.29-.17-.26-.11s.26.33.26.4c.23.15.22.21.17.18h-.15a1.93,1.93,0,0,0-.41,0,1.85,1.85,0,0,0-.5.1l-.14.06-.08,0,0,0s0,0,0,0v0h0l0,0h0a.38.38,0,0,0,0-.16.94.94,0,0,0-.06-.27l-.08-.17,0-.05h0l-.07-.09h0a.68.68,0,0,0-.23-.12.3.3,0,0,0-.12,0l-.13,0h0s0,0,0,0,0,0,.06,0a.48.48,0,0,0,.16-.08.33.33,0,0,0,.1-.06l.08-.08,0,0v0a.56.56,0,0,0,.05-.08v0l.79-.07h0v0l0,.09c0,.07,0-.07-.11-.19s-.07-.08-.07-.07-.13,0-.08.09a.47.47,0,0,0,.14.14h0l0,0-.08,0a.53.53,0,0,0-.16,0h0l-.22.09h0v0l0,0a.64.64,0,0,0,.08-.19.07.07,0,0,1,0,0S181,103.13,181,103.19Z"/><path class="cls-1" d="M31.15,151.78a4.12,4.12,0,0,0-.51.26,3.64,3.64,0,0,1-1.17.52,5.34,5.34,0,0,1-1.42.12,8.59,8.59,0,0,1-1.26-.06,8.4,8.4,0,0,0-2-.1,7.67,7.67,0,0,1-1.27-.08,1.16,1.16,0,0,1-.9-.41,2.56,2.56,0,0,1-.38-.85c-.08-.44.22-.85,1-1.12s1.4-.46,2.14-.68a17.41,17.41,0,0,1,2.35-.48c2.12-.24,4.2-.69,6.3-1.05.4-.07.8-.17,1.19-.27,2.29-.63,4.6-1.1,6.84-1.91.82-.32,1.7-.48,2.55-.72a12.61,12.61,0,0,0,2.27-.87c.61-.34,1.24-.65,1.85-1l1.83-1c1-.62,2-1.2,2.9-1.86a15.53,15.53,0,0,0,2.46-2l.92-.94.91-.95c.21-.24.44-.46.67-.68l.66-.69.82-.84a7.36,7.36,0,0,0,1.79-2.76,7.58,7.58,0,0,1,.33-.73c.13-.24.28-.49.39-.74a3.24,3.24,0,0,0,.59-1c.13-.37.25-.74.36-1.12a2.32,2.32,0,0,0,.09-1.09,2.48,2.48,0,0,1,0-.86,4,4,0,0,1,.19-.88c.05-.13.09-.25.13-.38l.09-.39c.05-.27.1-.53.13-.8,0-.53.06-1.07,0-1.62a17.36,17.36,0,0,0-.25-2.5,15.24,15.24,0,0,0-.61-2.37,12.15,12.15,0,0,0-1-2.13,10.26,10.26,0,0,0-.63-.94c-.12-.14-.22-.3-.34-.44l-.38-.4a2.16,2.16,0,0,0-.46-.39,8.94,8.94,0,0,0-3.22-1.34,7.06,7.06,0,0,0-3.54.12,11.58,11.58,0,0,0-2.28.89,13.77,13.77,0,0,0-2.19,1.62,7.34,7.34,0,0,0-2,3.1,5.16,5.16,0,0,0-.25.85,3.49,3.49,0,0,0-.08.86c0,.36,0,.71,0,1.07a4.84,4.84,0,0,1,0,.53c0,.18,0,.37,0,.55a6,6,0,0,0,.61,3.22,9.9,9.9,0,0,0,1.41,2.86c.18.25.35.52.55.75,1.09,1.19,2.14,2.44,3.33,3.57.21.21.43.4.66.59s.45.38.69.55c.48.34,1,.69,1.43,1l1.49,1c.24.17.5.31.75.46s.51.29.76.44a21.49,21.49,0,0,0,8.37,2.84,2.56,2.56,0,0,0,2.29-.32,4.39,4.39,0,0,1,1.82-.6,4,4,0,0,1,.7-.08l1.41,0c.47,0,.93,0,1.39,0a9.08,9.08,0,0,0,2.36-.29,32.4,32.4,0,0,0,8.11-3.2,23,23,0,0,0,2-1.34,20.68,20.68,0,0,0,3-2.49,3.65,3.65,0,0,1,.61-.55c.23-.18.46-.36.69-.51.45-.32.88-.65,1.3-1s.8-.75,1.18-1.14c.19-.2.38-.39.56-.6l.52-.64c.35-.43.71-.84,1-1.28a19.13,19.13,0,0,1,1.37-1.72,6.82,6.82,0,0,0,.74-1,32.2,32.2,0,0,0,2.65-4.67c.21-.5.5-1,.75-1.52.5-.59,1-.51,1.43-.92a2.62,2.62,0,0,0,.89-1.33,14.28,14.28,0,0,1,1.66-3.82,2,2,0,0,0,.25-.42,14.59,14.59,0,0,1,.82-2,15.66,15.66,0,0,0,.86-1.91c.14-.41.31-.79.47-1.16s.33-.75.51-1.11c.35-.72.73-1.41,1.08-2.15a3.06,3.06,0,0,1,.38-.54c.35-.44.67-.54.9-.29a1.49,1.49,0,0,1,.23,1.33,8.42,8.42,0,0,1-.58,2,7,7,0,0,0-.5,1.44c-.13.5-.27,1-.41,1.48a8,8,0,0,1-.56,1.45,5.76,5.76,0,0,0-.35,1.22,13.73,13.73,0,0,1-.58,2,13.25,13.25,0,0,1-.84,1.9,14.69,14.69,0,0,0-.66,1.39,8.68,8.68,0,0,0-.5,1.46,4.24,4.24,0,0,1-.39,1c-.29.53-.6,1.06-.9,1.59s-.63,1.05-1,1.55c-1.55,2.35-3.06,4.68-4.64,7a10.87,10.87,0,0,1-.86,1.16c-.31.37-.62.73-1,1.09l-1.61,1.58c-.27.27-.55.52-.84.76s-.57.49-.86.73A15.16,15.16,0,0,1,92,132.79l-.88.53c-.29.17-.61.3-.91.45s-.76.39-1.13.55a13.91,13.91,0,0,0-1.5.74c-.48.28-.93.62-1.39.95a17.79,17.79,0,0,1-2.6,1.54c-.45.22-.91.45-1.38.64l-1.43.54-.49.2-.48.17a5.92,5.92,0,0,0-.91.45,4.79,4.79,0,0,1-1.2.49,18.14,18.14,0,0,1-2.88.65l-.8.1c-.26,0-.52.09-.78.11a6.58,6.58,0,0,0-1.5.37,2.11,2.11,0,0,1-.49.1h-.56c-.5,0-1-.06-1.46-.11a5.85,5.85,0,0,1-.71-.12l-.69-.16c-.3-.07-.68-.14-1.1-.21l-1.31-.29-.67-.13a6.4,6.4,0,0,1-.66-.14c-.42-.11-.81-.2-1.14-.26s-.63-.1-.93-.18a3,3,0,0,1-.82-.36A6.24,6.24,0,0,0,60,138.8c-.43-.19-.88-.35-1.35-.51-.29-.1-.59-.18-.88-.3l-.85-.35a15.19,15.19,0,0,1-1.7-.76c-.54-.29-1.1-.57-1.64-.89s-1-.69-1.55-1.06a15.18,15.18,0,0,1-2.75-2.14l-.63-.62-.62-.63-1.21-1.28a4.26,4.26,0,0,1-.89-1.37,14.1,14.1,0,0,0-.63-1.37c-.21-.46-.47-.9-.7-1.35a12.5,12.5,0,0,1-1.13-3.52,3,3,0,0,1,.07-1.59,6.12,6.12,0,0,0,.2-1.3l0-.48a2,2,0,0,1,.06-.47l.16-.94a16.2,16.2,0,0,1,.51-1.81,16.49,16.49,0,0,1,1.63-3.42c.14-.22.29-.43.45-.64l.23-.32.26-.29c.18-.19.35-.39.54-.58l.6-.52c.14-.12.3-.24.45-.35l.46-.35c.31-.24.65-.43,1-.64a9.23,9.23,0,0,1,1.87-.84l.39-.12.39-.08.79-.17c.53-.08,1-.2,1.58-.27a1.37,1.37,0,0,1,.29,0,8.89,8.89,0,0,1,1,.06l.51,0a4.33,4.33,0,0,1,.5.08l1,.17,1,.28a9,9,0,0,1,3.6,2.12c.35.4.77.76,1.1,1.19.18.21.37.41.53.63s.31.44.47.65a11.39,11.39,0,0,1,1.78,4.21c.06.32.14.64.2,1s.14.64.18,1a13,13,0,0,1,0,3.57,9.84,9.84,0,0,0-.15,1.33c0,.45-.07.9-.09,1.36a22.49,22.49,0,0,1-.92,4.56c-.07.22-.14.45-.22.66l-.28.63c-.11.2-.2.4-.32.6s-.24.38-.37.56a18.34,18.34,0,0,1-1.77,2.29c-1,1.08-2,2.23-3.07,3.23a5.76,5.76,0,0,0-.75.73,8.23,8.23,0,0,1-2.82,2.18,3.22,3.22,0,0,0-.64.39c-1.21,1-2.53,1.78-3.81,2.66l-.52.38-.53.36L50,145a10.5,10.5,0,0,1-1.12.65c-.38.2-.77.39-1.17.56s-1,.55-1.46.81-1,.51-1.51.74-1,.46-1.52.71-1,.45-1.51.71a19.77,19.77,0,0,1-1.87.85,6.48,6.48,0,0,1-1.23.39,29.34,29.34,0,0,1-3.3.6,5.52,5.52,0,0,0-1,.19c-.5.11-1,.19-1.53.29S31.71,151.71,31.15,151.78Z"/><path class="cls-1" d="M.41,147.85a.91.91,0,0,0-.1.16c-.19.33-.28.39-.28.25a1.28,1.28,0,0,1,0-.18c0-.17,0-.22,0-.24s0-.06,0-.12a1.56,1.56,0,0,1,.13-.41l.33-.79a7.83,7.83,0,0,1,.5-1c.27-.41.5-.74.61-.75s.28-.06.36,0,0,0,.07,0,.19.22.3.29,0,.21,0,.34,0,.21.05.21a.39.39,0,0,1,.22.08.65.65,0,0,1,.16.13s.11,0,.21-.05a.37.37,0,0,1,.2-.1s.06.05.08.09,0,.08,0,.13.05.21.19,0,.07,0,.1,0c0,.26,0,.15.09.15s.07-.06.14-.19.18-.29.17-.18.08.16.15.15c.23,0,.47-.12.59.12,0,0,0,0,0,0,.2-.09.28.15.47.09s.09.08.12.15a.45.45,0,0,1,.1.25c0,.19.08.23.15.26s.07,0,.14-.08.14-.11.16,0,.06.24.18.09c0,.12.12.05.19,0a.07.07,0,0,0,.07,0c.15-.19.22-.1.3,0s.13,0,.19.09a.42.42,0,0,1,.13.24,1.34,1.34,0,0,0,.32.71c0,.18.08.05.25-.39a1.77,1.77,0,0,1,.25-.51s0,0,0,0a2.6,2.6,0,0,1,.06.37c0,.14,0,.21.07.22s.31.11.47.15a.15.15,0,0,0,.15,0c.1-.08.15,0,.28-.19s.08,0,.09,0c0,.3.2.2.34.14s.09-.05.12,0,0,.07,0,0,.21,0,.37-.23c0-.07.07,0,.11-.06,0,.17-.1.59-.12.83s0,.33,0,.22.21-.19.23,0c0,0,0,.08,0,.07s.1.25.17.3.07.46.1.74a1.79,1.79,0,0,1,0,.21,4.68,4.68,0,0,1-.15.77,2.06,2.06,0,0,1-.2.56c-.05.06-.09.07-.11,0s0-.11-.06-.09-.15.12-.18,0,0,0-.09.08-.2.21-.26.1-.09-.1-.2.12c0,.06-.06.07-.08.06a.55.55,0,0,1-.17-.14c-.12-.17-.29-.15-.5.08s-.14.11-.18.07-.16-.08-.22-.17a1.14,1.14,0,0,1-.09-.52c0-.08,0-.13,0-.22,0-.24-.06-.25-.15-.14s-.28.18-.39.16-.08,0-.16.16-.08.11-.11.12-.13.06-.17,0-.09-.11-.22.15c0,.07-.06.05-.07,0a1.28,1.28,0,0,1,0-.4c0-.23-.08-.43-.15-.44s-.09.05-.07-.12,0-.3-.08-.27-.35.23-.48.21c-.2.21-.28,0-.48.27,0,.06-.08.05-.07-.06s0-.21-.12-.14-.14,0-.2,0,0-.08,0-.25,0-.21,0-.23a.24.24,0,0,0-.39-.06c-.08.05-.14.07-.18,0s-.09,0-.13,0-.08,0-.11,0-.07-.09-.17,0h0c-.08-.16-.31.06-.38-.15s-.09-.05-.16,0-.18.06-.23,0-.07,0-.1,0-.13,0-.14-.17-.06-.09-.14,0a2.68,2.68,0,0,1-.33.18c-.07,0-.1,0-.1-.14s0-.25,0-.41a.88.88,0,0,0-.08-.45s0-.06,0,0-.14,0-.1-.27c0,0,0-.1,0-.1s-.13-.12-.24-.08-.29.19-.33,0c-.19.16-.28,0-.51.26a1.24,1.24,0,0,1-.19.16s-.07.05-.07,0S.6,148.16.62,148c0-.06,0,0,0,0Z"/><path class="cls-1" d="M88.29,108.91a1.12,1.12,0,0,0-.27,0,.79.79,0,0,1-1-.35,1.82,1.82,0,0,1-.26-.44,1.42,1.42,0,0,0-.39-.7,1.16,1.16,0,0,1-.23-.44.51.51,0,0,1,.13-.51,5.1,5.1,0,0,1,.61-.62,1.73,1.73,0,0,1,1.07-.42h.44l.41,0a1.81,1.81,0,0,1,.35.07,1,1,0,0,1,.31.13c.46.29,1,.5,1.43.79a.79.79,0,0,0,.3.12c.6.16,1.15.54,1.8.67a2.46,2.46,0,0,1,.7.39,1.25,1.25,0,0,0,.69.2c.41,0,.82,0,1.22-.08s.67-.07,1-.1a1.93,1.93,0,0,0,.88-.38,5.64,5.64,0,0,1,.7-.42,3.33,3.33,0,0,1,.56-.18l.38,0a1.1,1.1,0,0,0,.9-.51c.09-.16.28-.2.43-.29.33.1.48-.16.68-.3a.47.47,0,0,0,.16-.39c0-.3.1-.48.32-.52a1.66,1.66,0,0,0,.89-.57,23.87,23.87,0,0,1,2.43-2.39.91.91,0,0,0,.17-.17c.51-.77,1.28-1.32,1.77-2.1a3.54,3.54,0,0,1,.67-.67,5.07,5.07,0,0,1,.78-.68,3.22,3.22,0,0,0,.94-1,1.14,1.14,0,0,0,.26-.58,1.06,1.06,0,0,1,.36-.7,1.61,1.61,0,0,0,.65-1,1.54,1.54,0,0,0,.23-.29l2.82,1.56a5,5,0,0,0-.25.68.8.8,0,0,0-.09.3,2.35,2.35,0,0,1-.19.8,8.11,8.11,0,0,1-.34.74c-.16.35-.28.71-.44,1.07a7.27,7.27,0,0,1-.53,1,9.3,9.3,0,0,0-1.25,2.67c-.24.29-.11.55.31.8a1.16,1.16,0,0,1,.48.67.36.36,0,0,1,0,.23c-.15.28-.26.58-.44.85a1.41,1.41,0,0,0-.26.75,23.92,23.92,0,0,0-.06,2.81,2.16,2.16,0,0,0,.12.76c.14.39.1.81.38,1.15a.56.56,0,0,1,.06.49,2.27,2.27,0,0,0,.46,1.77,1.24,1.24,0,0,1,.23.51.52.52,0,0,0,.13.28c.18.15.31.32.47.46a1.18,1.18,0,0,0,.25.19.77.77,0,0,0,.27.07c.14,0,.19.09.3.12,0,.21-.16.6-.15.88a.72.72,0,0,0,.07.28.17.17,0,0,0,.21.07,1,1,0,0,1,1,.25s.08.09.11.08a.49.49,0,0,1,.27,0l.27.07a1.38,1.38,0,0,0,.27.08.66.66,0,0,0,.28,0,2.68,2.68,0,0,1,.69,0,2.48,2.48,0,0,0,.81,0,1.17,1.17,0,0,1,1,.41.69.69,0,0,1,0,.8,1.37,1.37,0,0,1-.79.54,2.46,2.46,0,0,0-.66.23,3.81,3.81,0,0,1-.62.28,1.56,1.56,0,0,1-.68.06,1.09,1.09,0,0,0-.53.13,2.45,2.45,0,0,1-1.73-.06,2.82,2.82,0,0,0-.61-.23,2.09,2.09,0,0,0-.67-.08.83.83,0,0,1-.43-.13,5,5,0,0,1-1.23-1c-.21-.24-.37-.46-.55-.68l-.51-.67-1-1.32a2.64,2.64,0,0,1-.49-1,8.59,8.59,0,0,1-.29-1.63,3.23,3.23,0,0,1,.27-1.47c.07-.15.1-.3.17-.44a1.24,1.24,0,0,0,0-1.11,3.41,3.41,0,0,1-.23-1,8.35,8.35,0,0,1,0-1,1,1,0,0,0-.17-.68.66.66,0,0,1-.12-.43,3.09,3.09,0,0,1,0-1,1.27,1.27,0,0,0-.09-1,.43.43,0,0,1,0-.35,2.92,2.92,0,0,1,.51-.86,4.42,4.42,0,0,0,.7-1.51c0-.2,0-.42.23-.55a1,1,0,0,0,.45-.82,12.22,12.22,0,0,1,.42-2.39,3.85,3.85,0,0,1,.23-1.11,4.56,4.56,0,0,0,.25-1.12.53.53,0,0,1,.25-.45,1.17,1.17,0,0,0,.5-.76l2.93,1.62,0,0a4.68,4.68,0,0,1-.52,1,.51.51,0,0,1-.46.26.51.51,0,0,0-.39.21A7.68,7.68,0,0,0,111,99.66a2.78,2.78,0,0,1-.49.81,4.71,4.71,0,0,0-.38.57,3.27,3.27,0,0,1-.35.48,1.79,1.79,0,0,0-.55.77.09.09,0,0,1,0,.07c-.61.52-.94,1.31-1.62,1.77a2.63,2.63,0,0,0-.64.69,3.84,3.84,0,0,1-1,1,4.4,4.4,0,0,0-.45.42,2.8,2.8,0,0,1-.94.64,1.49,1.49,0,0,0-.68.54,14,14,0,0,1-1.08,1.1,1.44,1.44,0,0,1-.81.39,7.11,7.11,0,0,1-1,.13,9.16,9.16,0,0,0-1.51.28.79.79,0,0,0-.34.1,1.25,1.25,0,0,1-1.2.18.5.5,0,0,0-.27,0c-.49.17-1,.19-1.54.33l-.42.13c-.14,0-.29.08-.43.12a2.1,2.1,0,0,1-.9,0,22.34,22.34,0,0,1-2.37.18,3.89,3.89,0,0,1-.76,0,.72.72,0,0,1-.46-.12,3.17,3.17,0,0,0-.55-.28,1.64,1.64,0,0,1-.52-.35,1,1,0,0,0-.32-.2l-.51-.25Z"/></g></g></g></svg>