<svg xmlns="http://www.w3.org/2000/svg" viewBox="0 0 300.41 385.29"><defs><style>.cls-1{fill:#e19614;}.cls-2{fill:#fff;}</style></defs><g id="圖層_2" data-name="圖層 2"><g id="event"><g id="event_woman_4"><path class="cls-1" d="M269.09,291.46c-21.47-.39-44.41,3.69-66.43,6.48-16.42.9-32.16,5.83-48.39,8.56-13.41,2.23-23.16,8.5-35.12,11.65a141,141,0,0,0-17,4.48c-7.89,1.65-9,10.32-9.08,17.06-.45,12.87-4.37,26.86,1.27,38.94,5,10.5,16.14,6.12,24.55,3.35,11.19-3.13,22.28-6.93,33.27-10.69,26.35-8.34,54.69-14.09,82.55-18.15,8.53-.8,17.24-1.68,25.72-3,5.67-1.12,12.64-.11,16.93-4.63,6.27-7,4.42-27.89,5.58-39.6,1.57-9-4.64-15-13.87-14.47Z"/><path class="cls-1" d="M72.45,203.93C42,219.46,69,251,78.82,212.49c4.32-4.17-1.12-11.51-6.37-8.56Z"/><path class="cls-2" d="M48.47,193.26c-11.64.14-18.55,18.64-8.3,25,12,3.51,27.49-26.8,8.3-25Zm1.23,6.13a5.68,5.68,0,0,1,2.36.09c.16,5.62-4.3,14.55-10.48,14.74-5.12-5.08,1.57-15,8.12-14.83Zm1.89,3.87a.56.56,0,0,0,0,.12l0-.12Z"/><path class="cls-2" d="M40.36,206.21c-3.81,1.12-1.8,8.54,1.64,9.35,8.43,1.12,6.23-13.46-1.64-9.35Z"/><path class="cls-2" d="M41.27,177.09c-12.57,1.16-21.29,14.55-18,26.53.78,2.46,4.63,1.23,3.82-1.23-1.44-6.36,3.09-13.69,8.74-16.57,3.2-1.89,6.94-1.59,10.27-2.63,3.93-3.44-1-6.86-4.79-6.1Z"/><path class="cls-2" d="M38.08,211.5c-2,.33-8-.83-5.7,2.9,1.74,1.22,3.89-.24,5.84-.1a1.4,1.4,0,0,0-.14-2.8Z"/><path class="cls-2" d="M32.94,203.19c-3.06,2.74,5.31,4.79,5.87,2.32.27-2.24-2.68-1.61-4.05-2.21a1.74,1.74,0,0,0-1.82-.11Z"/><path class="cls-2" d="M38,194.05c-3,.7.66,8,2.87,7,3-.58-.69-8-2.87-7Z"/><path class="cls-2" d="M45.39,189.44c-2.34,1.07-1.24,4.18-1.38,6.2a2,2,0,0,0,2.08,1.88c2.92-.41,1.7-4.38,1.66-6.42l0,.12-.09-.48.06.32a1.81,1.81,0,0,0-2.35-1.62Zm2.35,1.62v0Z"/><path class="cls-2" d="M53.16,189.41c-2.84,1.19-4.1,8.52.59,7.46,2.91-1.24,4.21-8.53-.59-7.46Z"/><path class="cls-2" d="M79.55,88.52c-24.74.35-47.63,18.14-61.9,37.35-5,6-8.42,13.65-10.58,21.08-2.6,6.7-5.28,13.24-6.38,20.32C-2.18,183,4.32,199.51,12.22,213.13,22,228,30.93,236.2,29.84,255.21h0c-.19,2.46-.86,5-.21,7.41l0-.26c1.9,11.24,16.34,3.67,19.75-2.5,2.29,2.36,5.08,6.07,8.32,5.79,5.79-1.58,11.36-6.82,15.29-11.2-.13,5.75-.61,11.52,1.07,17.13,8.41,15.95,28.28,13.36,40.15,2.79,8.7,9.06,18.75,16.72,27.4,25.87a224.87,224.87,0,0,0,23.31,21.48c4.09,2.41,8.74,11.14,13.83,6.9,3.64-5.07-4.47-7.59-7.1-10.76L164,311c-13.17-11.6-24.23-25.24-38.14-36.3-5.29-3.91-10.36-12.7-17-5.62C102.9,273.77,95.49,278,88,275.67c-3.54-1.69-8.68-3.35-9.42-7.62v.06c-1.83-5.36,4.5-23.15-4.88-22.2-5.84,3.49-9.48,9.76-15.77,12.83a55.36,55.36,0,0,1-6.12-6.51C45.59,247,42.11,264.42,35,263.52a6,6,0,0,1,.28-3.89c8.54-22.89-7.44-37.19-17.19-55.63l.18.41C13,193.7,8.72,182.55,8.07,170.57c6.72-17,23-30.86,41.81-30.38,11.89.19,19.69,9.07,27.37,17.26,3.81,5.72,8.43,7.1,13.38,1.68,5.46-4.63,14.73-8.46,19.87-1.54,8.42,10.08.9,15.64,2.61,24.77,9.12,17.49,23.64,37.6,45.61,37.43,12.36.93,22.59-9.65,22.25-22.17,2.11-10.09-1.64-19.71-6-28.59-6.9-15.91-17.22-30.06-28.86-42.78l.09.12c-11.89-14.84-47.31-38.08-66.61-37.85Z"/><path class="cls-2" d="M160.86,212.51c-2.28,4.47,2.09,6.85,4.9,9.35,9.38,11.09,18.83,22.2,29.74,31.83,2.93,2,5.69,6.32,9.7,5.32a4,4,0,0,0,2.09-5.93c-3.92-4.37-7.8-8.84-11.36-13.53-5.35-6.91-11.43-13.23-17.25-19.75-4.3-4.34-12.06-15.68-17.82-7.29Zm9.65,14.9.27.31-.27-.31Z"/><path class="cls-2" d="M206,250.29a5.19,5.19,0,0,0-4.75,4.35l.3-.85a239.88,239.88,0,0,1-10.19,29.14l.27-.78c-4,12.5-25.06,55.85-20.14,65.93,4.68,6.41,10.61,11.84,16.32,17.31,6.64,6.32,9.89,5.69,11.37-3.63l0,.12c5.46-14.86,10.94-29.7,15.43-44.87-.09.24-.17.49-.26.73a607.31,607.31,0,0,1,24.3-58.83c4.55-9-27.28-7.33-32.61-8.62Zm4.73,7.21c7.07-1,13.84,1.44,20.86,1.48-6.89,15.41-13.39,31.11-19.64,46.82-6.13,18.62-11.64,37.43-18.79,55.72A197.58,197.58,0,0,1,177.3,344.4c5.7-27.52,18.7-52.69,27.63-79.15-.1.26-.19.53-.28.79,1-2.86,1.75-5.85,3-8.64.3,0,.6,0,.9,0l-.37,0a25.1,25.1,0,0,0,2.6.09Zm-19.9,27-.15.43.15-.43Zm19,27.91a2.25,2.25,0,0,1-.08.24,2.25,2.25,0,0,0,.08-.24Zm-14.37,42.86c.05-.16.11-.32.16-.48,0,.16-.11.32-.16.48Zm.16-.48a1.72,1.72,0,0,0,.07-.21,1.72,1.72,0,0,1-.07.21Zm20.05-40.71-.16.49c.08-.25.17-.49.25-.74l-.09.25Z"/><path class="cls-2" d="M189.33,171.77c-11.69,1.39-22.43,13.32-14.8,24.62-2,8.25,9.5,10.41,15.55,10.76,25.06-.58,25.54-37.2-.75-35.38Z"/><path class="cls-2" d="M216.16,172.22c-30.66,6.06-14.73,36.07,10.11,29.41,22.74-9.38,12.85-34.34-10.11-29.41ZM222,189.64l-.22.11.22-.11Z"/><path class="cls-2" d="M251.69,156.27c-10.32,1.42-20.87,9.53-22.51,20.08,1,16.71,19.72,16.15,28.39,5.21,9.57-8.88,11.83-27.28-5.88-25.29Zm-5.93,15.42a0,0,0,0,1,0,0,0,0,0,0,1,0,0Z"/><path class="cls-2" d="M265.87,128.31c-10.17,4.13-16.88,15.93-17.43,26.62-.17,10.45,14.1,13.27,19.41,5,4.45-7.53,10.41-15.46,10.83-24.46-.16-6.41-7.28-10.17-12.81-7.17Z"/><path class="cls-2" d="M275.3,94.83c-12.24,3.72-21,31.56-8.4,38.67,5.05,15.07,24.68-18.41,22.84-25.19,1-8.73-5.55-16-14.44-13.48Z"/><path class="cls-2" d="M278,64.55c-5,.38-10.27,3.24-12.08,8-3.58,9.6-3.77,27.18,7.52,31.48C290.39,107,296.84,65,278,64.55Z"/><path class="cls-2" d="M273.56,5.49a24,24,0,0,0-1.64,5.93c-3.88-9-15.34-10.92-17.7.09-2.8,15,.55,30.68,7.52,44.05l-.33-.68.39.8-.12-.25.34.72v0c.11.22.21.43.31.65-.06-.14-.13-.27-.19-.41,3.59,5.7,7.76,19.39,16.37,16.67,4.09,1.11,7.66-2.42,8.09-6.39q1.77-11.39,4.16-22.67c2.14-10.34,10.44-19.49,9.6-30.32-2.41-8.94-11.38-4.27-14.23,1.78-.1-3.49.47-7.07-.28-10.5-1.82-7.46-10.17-5.81-12.28.55Zm6,.16c.05.08.09.17.13.25,0-.08-.08-.17-.13-.25ZM262.06,56.23Zm0,0,.07.14-.11-.22,0,.08Zm0,0c-.06-.13-.12-.26-.19-.39.07.13.13.26.19.39Zm-.23-.48,0,.09-.05-.11v0Zm0,0,0,0,0,0Z"/><path class="cls-2" d="M49,228.81c-1.36,2.53,4.88,5.7,6.13,3.16,1.19-2.39-4.89-5.91-6.13-3.16Z"/><path class="cls-2" d="M53.61,223.45c-1,2,3.41,4,4.4,2.12s-3.41-4-4.4-2.12Z"/><path class="cls-2" d="M59.78,216.34c-.92,1.91,3.28,4.08,4.27,2.17s-3.3-4.11-4.27-2.17Z"/><path class="cls-2" d="M64.83,206.75c-4,.8,1.55,6.24,3.45,4.25,1.43-1.92-1.9-3.84-3.45-4.25Z"/></g></g></g></svg>