<svg xmlns="http://www.w3.org/2000/svg" viewBox="0 0 452.27 371.04"><defs><style>.cls-1{fill:#e19614;}.cls-2{fill:#fff;}</style></defs><g id="圖層_2" data-name="圖層 2"><g id="event"><g id="event_woman_1"><path class="cls-1" d="M126,92.94c-8.23.21-15.19,5.19-22.29,8.77-14.83,7.57-26.36,19.78-37.83,31.44-4.91,4.69-10.16,8.93-14.72,14-5,5.41-9.06,11.52-13.7,17.2-6.48,7.84-13.32,14-18.69,22.66-10.5,19.54-31.53,58.18-8.25,74.38,8.6,6.18,19.62,8.09,29.86,9.49,23.65,4.38,48.18,4,72.14,3.49,17.84.76,35.55,0,53-3.64,3-.52,7.21-1,9.84-3,5.82-4.52,1.92-14.33,2.38-20.74-.94-14.57-2.28-28.11-3.47-42.38-1.69-20.56-4.19-39.43-13-58.45-4.38-12.15-5.85-23.29-13-34.74-5-7.94-11.83-18.43-22.28-18.51Z"/><path class="cls-1" d="M250.89,81.82c-10.43,4.53,3.36,17.77,10.11,18.71,6.06,1.72,8.9-5.39,4.66-9.37-4.13-3.69-8.86-9.41-14.77-9.34Zm4.85,3.61v.12a.25.25,0,0,1,0-.12Z"/><path class="cls-2" d="M246.24,51.45a2.8,2.8,0,0,0-.47,3.61c-2.28,5.23.19,10.27,3.83,14.16,4.81,6,12.63,8,20,6.77,4.69-.21,14.21-8,8.54-12.19-5.3-3.09-27.13-15.36-31.94-12.35Zm4.08,5.35c8.2,3.54,16.55,6.75,24.73,10.31l-.4-.18.65.29c-5.35,8.58-19.2,5.37-23.76-2.53-1.86-2.36-3-5.14-1.22-7.89Zm1.33,8,.08.13-.08-.13Z"/><path class="cls-2" d="M255.15,58.73c-7.15,3.16-.83,12.06,4.73,7.35,3.23-2.95-.67-9.32-4.73-7.35ZM258,63.06h0Z"/><path class="cls-2" d="M251.64,45c-2.77,1-2.43,4.86-3.68,7.12a1.77,1.77,0,0,0,3.37,1.06c.27-2.41,4.91-8,.31-8.18Z"/><path class="cls-2" d="M262.51,48.63c-2.61.09-3,3.34-4,5.19-1.33,1.61-1.38,4.75,1.41,4.36,1.72-.47,2-2.72,2.9-4,.91-1.64,2.72-5.08-.31-5.51Z"/><path class="cls-2" d="M271.25,52.2c-1.73.32-6.69,7.6-4.13,8.74,2.41,1.35,3.19-2,4.29-3.45s3.34-5.4-.16-5.29Z"/><path class="cls-2" d="M278.35,56.81c-1.31.69-1.79,2.19-2.7,3.27-.69.93-2.11,1.12-2.53,2.26,0,7.19,13-6.48,5.23-5.53Z"/><path class="cls-2" d="M304.33,0c-15.88-.37-27.21,2.32-40.27,11.38-9.15,5.34-14.81,14.78-21.47,22.62-2.78,3-4.94,6.92-8,9.62a23.42,23.42,0,0,1-17.45,1.69c-9.25-3.26-16.82.53-9.53,10,2.22,2.22,4.73,3.93,7,6.06-3.32,5.16-6.54,10.37-9.59,15.69-1.91,3.23.18,5.38,3,6.83,4.33,2.47,8.56,4.92,12.92,7.34a70.6,70.6,0,0,1-15.31,3,4,4,0,0,0-3.78,1c-12.79,17.74-12.85,32.89,7.52,44.4-5.59,7.2-10.19,15.73-15.2,23.5-7.86,12.7-16.23,24.89-24,37.67-9.31-.62-19,.58-27.48,4.62-4.4,2.12-17.18,5.45-16.4,11.28,1.26,4.38,9,3.71,12.65,5.29,4.43.89,8.57,2.62,12.85,3.94,10.85,3.6,21.09,8.35,31.84,12.08,15.42,4.9,30.92,9.88,46.45,14.44,8.09,1.89,15.39,8.2,17.63-4.1a136.75,136.75,0,0,1,10.09-20.68,3.81,3.81,0,0,0,.49-2.63A597.63,597.63,0,0,0,300.51,158c18.86,24.94,54.08-1,68.16-19,5-6.73,10.62-14.64,12.9-22.55,2.9-10.26,4.49-18.87,4.37-29.44l0,.07c-1-10.45-2.57-20.27-6.81-30.36,6.17-.06,11.95,1.37,17.95,2.11l-.25,0c13.2,1.38,25.57,6.68,39,4.6,10.06-.89,18.82-10.39,15.89-20.24-3.06-8.62-19.78-15.09-28.35-16.26a78.5,78.5,0,0,0-37,5.69c-5.54,2.14-11.56,4-15.35,8.71-8.83-12.81-21-22.86-34.73-30.05C326.43,5.74,315.85,0,304.33,0ZM285.58,9.84A3.44,3.44,0,0,0,287.86,9c7.41,1,14.44,5.25,20.54,9.29,11.66,6.62,21,18.37,20.09,32.28,1.84,15.39-5.92,22.63-11.13,35.67-.61.78-1,1.31-1.43,1.94-7.58-4.94-16.26-7.77-23.35-13.4,5.59-10.94,6.83-26.51-3.08-35.41-8.2-9.92-23-12.88-34.65-8,4.82-5.68,9.89-11.37,16.28-15.38,4.56-2.35,9.48-7.77,14.45-6.05Zm-21.7,76.35c-8.12,0-15.73-5.89-20.53-11.85-3.39-6.77-4.22-15.66-.95-22.7,5.41-14.78,25.43-19.32,37.72-10.5l-.18-.18c10.53,7.12,12.78,18.25,7.48,29.42-5.31,10.55-11.63,15.7-23.54,15.81ZM205.6,99.48c4.63-.82,22.82-2.89,21.05-9.57-4.75-4.52-10.83-7.34-16.28-10.67,11.77-22.16,14.67-15.13.87-28.88,8,2.86,16.59,3.81,24.45,0-4,8.25-4.19,19.77.12,27.9,5.65,8.65,16.92,15.09,27.41,14.55,11.55-1.2,19-2.88,26.07-13,5.59,4.73,11.9,6.81,18,10.31,4.23,1.94,8.23,5.23,12.76,6.12,4.59,2.56,9.23,5,13.74,7.7.67,6-3.52,11-9.15,12.8-4.38,1.89-10.25-1-13.52,3.37-7.33,8.67-15.24,18.8-13.12,31.19-15.38,23.15-31.48,45.53-46.15,69.21-10-2.4-19.2-4.07-29.36-6.38-14.87-4.23-29.67-8.85-44.81-11.87,9.43-15.16,18.94-30,27.91-45.42,3.33-5.8,7.3-11.41,10.78-17,.7-10.37-29-9.63-10.83-40.43Zm34.88,148.75c-19.35-6.13-40.73-11.93-59.59-18.41-14-5.29-27.87-10.31-42.34-14.42,9.08-4.07,18.47-7.07,28.49-6.75a281.37,281.37,0,0,1,35.63,8.07c15.45,5.1,31.45,7.5,47.25,11.35-.78,1.53-1.48,2.91-2.16,4.37v0c-2.51,5.17-5.29,10.47-7.29,15.82Z"/><path class="cls-2" d="M69.74,217.41c-27.43.59-4.07,6.43-22.8,38.34-8.12,12.24-16.38,24.33-24,36.59-6.88,12.31-9.45,26.78-9.2,40.53,1.08,10,1.28,22.2,7,30.56,2.94,4.88,8.79,10.16,14.44,6.25a24.45,24.45,0,0,1,7.18-3.26c1.87-.12,4-.07,5.42-1.49,3.27-4.28-2.06-9.65-3-14.27-3.21-10.19-1.4-21.93,1.44-31.87a120.5,120.5,0,0,1,11.94-28.9c5.12-7.85,11.61-15.54,15.34-24.1C79,255.09,85.15,232.73,79,222c.35-5.14-5.77-4.45-9.24-4.54Z"/><path class="cls-2" d="M99.07.09C76.1,1.54,52.8,25.5,57.78,49.15a8,8,0,0,0,11.16,6c6.76-2.51,9.61-9.42,12.63-15.38,6.33-13.14,13-13.69,22.74-22C112.14,11,111.14-.92,99.07.09ZM91.52,8.64c2.6,1.86,6.07.41,9,.52-5,7.27-14.61,9.56-19.38,17.06-5.47,6-7.64,19.26-15.38,21.66C61.28,31,77,14.89,91.52,8.64Z"/><path class="cls-2" d="M94.46,4.46C83.94,6.1,68.6,20,65.46,30.24c-1.78,6.46-6.86,15-2.13,21.09,10.74,7.78,13.52-11.48,19.33-16.85,4.37-7.93,11.42-13,18.67-18,6-4.67-.69-12.7-6.87-12Z"/></g></g></g></svg>