<svg xmlns="http://www.w3.org/2000/svg" viewBox="0 0 397.53 404.9"><defs><style>.cls-1{fill:#e19614;}.cls-2{fill:#fff;}</style></defs><g id="圖層_2" data-name="圖層 2"><g id="event"><g id="event_woman_2"><path class="cls-1" d="M105.19,246c-29.06-1-56.65,12.09-78.15,31.3-21.2,16.44-33,46.14-24,72.1C6.28,362,15.43,372.76,25.43,381.26c18.25,17.58,45,24.32,69.68,23.59,13.47-.24,27.52-5.45,38.57-13.36a83.36,83.36,0,0,0,25.79-23.19l-.18.2c10.35-11.17,16.42-26.5,18.13-42.91,3.2-18.18,1.92-38.17-11.67-51.63-3.81-23.19-42-27.74-60.56-27.92Z"/><path class="cls-1" d="M197.89,72.43c-7.58,6.29-17.56,18.91-13.79,29.4A6.46,6.46,0,0,0,192,105c9.53-4.06,10.39-16.6,12.52-25.48l-.15.86c1.73-4.57-1-10.52-6.49-7.93Z"/><path class="cls-2" d="M138.05,8.38c-4.35,0-9,.41-12.25,3.56-2,1.38,0,4.45,2,3.13,2.92-3,7.21-1.9,10.94-1.72,16.91.9,28.48,15.47,42,23.8,8.85,5.57,20.17,6.1,28.36-1,4.35-3.16,6.9-8.85,12.17-10.64,3.43,1.31,3.19,6.9,2,10-.51,3.28-.47,6.63-1.2,9.89C220,56,237.79,56.5,236.81,66.06c-1.42,3.65-4.63,7.35-3.54,11.48,3.79,8,11.8-3.16,16.52-.24,8.91,8.69,15,22,15,34.55.32,12.67-5.92,23.68-11.26,34.7-1.7,10,6.29,18.95,10.31,27.57a247.4,247.4,0,0,0,35.48,48.81c6.79,6.18,13.22,13.56,21,18.24a3.8,3.8,0,0,0,3.92-5.76c-1.3-1.89-3.34-3.2-4.92-4.85-22.74-20.79-41.14-46.32-56.07-73.18l0,.06c-4.44-7.69-3-9.1,1.22-16.12,4.79-9.83,7.79-20.07,7.56-31.1-1.12-13.93-8.19-31-20.56-38.36-5.6-3-9.7,3.35-14.56,4.77.3-3.76,4-6.63,5-10.31,2.63-9.24-7.49-13.7-12.59-19.19.53-9.2,5-21.92-4.72-27.94-13.05-3.85-17.16,16-29.85,15.16-10.6-1.39-17.55-10-26-15.56-9.09-5.9-19.51-11.54-30.69-10.41Z"/><path class="cls-2" d="M199.43,202.09a3.75,3.75,0,0,0-1.07,5.13c3.45,5.21,6.76,10.51,10.12,15.78q7.83,11.77,16.44,23c3.05,3.77,42,57.89,39.46,34.75-17.27-17.57-31.7-37.69-46.18-57.57-3.7-5-7.07-10.32-10.59-15.49-2-2.68-4-8.1-8.18-5.63Z"/><path class="cls-2" d="M155.13,0c-16.8.09-16.55,6.57-28.71,9.25-17.17,3.18-25,20.42-32.2,34.42-3.35,9.52-5.5,19.46-11.15,28-3.44,6.94-9,12.59-12,19.81-4.89,11.89-4.26,25.93-.8,38.15,2.35,8.9,7.44,17.3,6.26,26.79-3.8,18.09-13.29,34.44-.25,51.58C81.8,216.08,90,222,94,231.1c4,7.81,3.25,16.68,3.51,25.14,1.33,11.3,4.74,23.25,13.84,30.76,15.14,13.46,33.05-1.37,46.1-10.53,19.07-12,32.67-26.59,37.06-49.33a165.78,165.78,0,0,1,10.82-22.07c3.34-4.72,7.64-8.78,10.51-13.82,4.67-11.66,7.47-25.74-.14-36.82-13-20.68-34.19-3.09-37.56-19.76-2.69-10.95-1.81-23.32-9-32.78-8.86-16-35.82-9.1-38.84-28.38-4.72-18.38,23.25-45.33,6.24-60.53,7.42-5.84,17.57-8.35,26.7-5.26C172.2,11,178.69,20.52,189.07,19c12.7-1.51,24-13.12,37.44-8.33,5.5,2.73,7.18,9.44,11.3,13.65C249.89,35.67,269.6-2.33,277.14,41c1.66,7.52,8.73,9,14,13,5.2,5.42.53,13.21-.73,19.4-4.93,11.21-12.89,21-20.32,30.55l.07-.1c-7.24,6.86,1.47,13.3,6.08,4.45l-.21.31c11.64-13.61,36-45.41,18.91-61.79-12.05-6.15-10.15-7.77-13.31-20C274.23,7,258.86,12,243.88,19.67c-4.1-2.48-5.25-8.52-8.95-11.76-6.22-7.35-17.62-6.92-26-4.15-8.91,2.14-16.67,10.35-26.3,7.93C173.92,6.82,165.71-.35,155.13,0ZM130.91,15.22l.39-.12c7.07,4.68,4.15,12.84,1.68,19.32-1.63,6.23-4.38,12.06-7,17.95-4.81,10.46-5,23.69,1.26,33.59,15.15,17.71,35.27,7,39.49,38.24,2.12,16.13,5.5,28.81,24.63,27.13,22.15-.32,25.94,20.92,17.18,37.47a104.45,104.45,0,0,0-20.47,30.77c-3.61,8.17-5.28,17-9.86,24.81-7.71,14.07-22.47,22.18-35,31.52-20,16.91-33.56,6.58-37.63-16.77-.85-14.76,0-27.74-10-40.08-5.06-6.93-12.28-12.17-15.93-20.13-8.81-16.28,7.21-32.5,4.16-49.3-3.08-14.32-10.93-27.84-9-43C75.11,90.77,88.39,80,94,66c3.27-6.66,3.94-14.27,7.14-20.92,5.41-9.8,10.36-21,20.51-26.74l-.12.06a37.59,37.59,0,0,1,9.36-3.17ZM244.43,19.6l-.2,0,.2,0Z"/><path class="cls-2" d="M183.52,50.78c-10.07,1.83-17.89,13.08-14.16,23.06,1.23,3.37,3.91,9.31,8.37,7.24,5.61-5.61,6.62-14.58,11-21.16,1.2-2.52,4.66-8.09-.37-8.36-1.37-.9-3.25-.8-4.84-.78Zm1.6,4.09c-4,6.57-5.47,14.28-9,21.1-5.34-7.81,0-19.21,9-21.1Zm-9.56,22h0Z"/><path class="cls-2" d="M182.47,55.3a4.22,4.22,0,0,0-1.66.88c-6.45-2-3.33,9.94,1.89,7.26,3.93-1.12,5.22-9.19-.23-8.14ZM182.38,59l0,0,0,0Zm1.07.91h0Z"/><path class="cls-2" d="M182.88,52.87c-6.4.62-7.12,8.69-.29,7.92,5.91-.7,7-8.77.29-7.92Z"/><path class="cls-2" d="M164.44,36.9c-9.23,5.25-16.86,14.87-17.66,25.7-.55,5.78-3,12.42,0,17.8a2.41,2.41,0,0,0,4-1.92c-1.27-4.27-.11-8.51.87-12.71a30.55,30.55,0,0,1,7.87-17.28c2.32-3.65,7.18-5.07,9.19-8.73a2.77,2.77,0,0,0-4.2-2.86Zm-8.28,16-.07.11.07-.11ZM145.85,78.24l0,.16,0-.16Z"/><path class="cls-2" d="M171.91,76.11c-2.11,2-5.37,3-6.93,5.46.71,4.58,5.1-1.3,6.76-2.49.59-.62,1.55-1,1.84-1.83a1.1,1.1,0,0,0-1.67-1.14Z"/><path class="cls-2" d="M169.66,69.1c-1.92,1.63-4.39,2-6.62,2.92-3.1,5.35,6.69,1.07,8.23-.47a1.47,1.47,0,0,0-1.61-2.45Z"/><path class="cls-2" d="M163.67,61.39c-.85,2,1.72,2.68,3.17,3.08,1.65.4,3.25,1.68,5,1.46a1.78,1.78,0,0,0,.24-3.27c-2.51-.48-6.27-3.63-8.39-1.27Z"/><path class="cls-2" d="M169.81,51.89c-3,1.12,3.57,5.79,4.71,6.51,2.3-.68-.47-2.69-1.2-3.63-1.21-.81-1.9-3.09-3.51-2.88Zm2,1.35.05.06-.05-.06Z"/><path class="cls-2" d="M176.79,47.08c-3.56.57,1.06,7.32,2.09,8.87a1.4,1.4,0,0,0,1.94-1.68c-1.39-2-1.59-6.61-4-7.19Z"/><path class="cls-2" d="M185.46,45.55c-3.08.72.31,6,.29,8.11a1.3,1.3,0,0,0,2.47-.8c-1.15-2.15,0-6.63-2.76-7.31Z"/><path class="cls-2" d="M186.14,91.48c-.56,2.39,5.69,3.8,6.17,1.38.6-2.23-5.85-3.9-6.17-1.38Z"/><path class="cls-2" d="M190.13,85c-.43,2.21,4.47,3,5,.93s-4.48-3-5-.93Z"/><path class="cls-2" d="M192.42,76.77c-1.57,2.24,4.56,5.81,5.45,2.88.32-1.65-1.53-1.67-2.57-2.15-.78-.75-1.89-1.82-2.88-.73Z"/><path class="cls-2" d="M197.48,69.32c-4.13,1.94,3,6.25,4.5,3.49,1-2.31-2.76-3.61-4.5-3.49Z"/><path class="cls-2" d="M127.31,14.38a1.64,1.64,0,0,0-1,2.84c4.83,5.25-2.36,12-4.41,17.1-1.82,3.7-3.41,7.5-5.56,11-7.28,17.38-4.14,44.86,16.43,51.26,11.13,2.69,19.74,12.13,19.36,23.87,1.92,68.08,31.34,31.42,53.43,49.28,4,2.88,5.42,8.87,9.83,11a2.25,2.25,0,0,0,1.93-3.87c-2.9-3.34-4.88-7.44-8.16-10.48-27.77-23.12-50.37,21.89-53.36-51.08-3.73-24.66-25.09-18-34.31-32.27-19.41-30.5,23-59.23,5.81-68.69ZM128,20a.44.44,0,0,1,0,.1l0-.1Zm23.4,94.36,0,.17,0-.17Z"/><path class="cls-2" d="M117,15.26c-3.55,2.77,2.63,6.63-1.09,13.56l.12-.33c-2.61,9.45-9.63,16.73-13,25.76-6.86,25.08,4.79,37.83,24.81,50.43,10.49,9,7.7,24.66,8.72,37.06-1.23,19.36,13.31,37.69,33.13,38.61,10,1.81,21.39-2.87,30.43,2.89,4.47,2.8,7.16,7.49,8.9,12.34,5.08,3.77-1.11-8.24-1.74-9.52a19.28,19.28,0,0,0-6.91-6.9c-11.22-6.4-25.2-.83-37.13-5.44-27.89-8.94-18.73-36.94-23-58.84-3.63-20-29.59-19.66-33.16-40.46-1.51-10.3.6-20.62,7.31-28.74,4.34-8.08,10.58-17.48,7.94-27-.64-2.24-2.7-5.06-5.24-3.43Z"/><path class="cls-2" d="M105.4,32.6C94.48,47.67,80,68.7,92.64,86.84c5.51,6.62,13.3,11.27,17.12,19.3,3.22,12.71-1,25.88-4.29,38.19-1.6,9.95-3.18,20.38-1.21,30.39,2.6,13.12,12.73,21.6,21.92,30.32,15.51,16.79-9.18,38.3,4.32,61.36,2.85,6,9.06,12.14,15.92,12.21a2.27,2.27,0,0,0-.23-4.37,18.63,18.63,0,0,1-11.69-10.69c-11-19.29,12.05-41.39-1.46-59.69-8.35-10.61-21.66-17.31-23.78-32-3.7-22.82,12.26-44.48,6.09-67.07C110.64,93,95.83,89.14,92,77c-3.74-14,5.33-27.58,12.35-39.06,1.22-2,5-6.67,1-5.33Zm1.1,2-.1.14a.71.71,0,0,1,.1-.14Zm-2.62.23,0,.07,0-.07ZM93.55,58.14l-.1.3.1-.3Zm-2.2,15.92a1.7,1.7,0,0,1,0,.22,1.7,1.7,0,0,0,0-.22Z"/><path class="cls-2" d="M104.57,92.73c-2.65,2.31,1.67,5.39,3.33,7,20.81,16.21,5.7,38.79,8.55,59.78,1.22,19.43,17.89,21.44,25.87,35.69,11.31,21.91-6.27,50,10.88,70.1,2.58,2.56,9.24,8,11.59,2.93.57-3.18-3.16-2.95-5-4.31-20-17.61.7-50.18-13.63-71.7-9.2-15-26.71-16.25-25.72-37.66-.95-10.41,4.56-20,3.73-30.29-.28-10.72-4.81-21.16-13.65-27.54-2.23-1-3.17-5.36-6-4Zm14.68,37.13c0,.07,0,.15,0,.22s0-.15,0-.22Z"/><path class="cls-2" d="M100,90.94c-1.12,2.71,7.09,5.76,9.12,7,7.06,3.62,12.21,10.82,16.07,17.58,5.11,11.22,2.21,24.23,3.31,36.22-1.6,10.55,4.23,19.78,10.72,27.59,5.22,5,12.45,7.4,17.43,12.65,10.76,13.24,4.06,32.63,17.95,47.33,1.77,2.59,7.4,8.22,8.52,2.35a2.45,2.45,0,0,0-.84-1.73c-3.37-2.46-5.66-6.14-7.6-9.78-7.88-14.35-2.46-34.59-16.78-45.38-4.8-3.49-10.47-5.75-14.95-9.69-5.18-6.48-10.57-13.75-9.23-22.48-1.09-15.9,2.63-34.44-9.76-46.86-4.63-5.43-9.66-10.28-16.58-12.54-2.31-.67-5.34-4.85-7.38-2.28Zm68.43,113.65.09.45c-.05-.25-.09-.49-.14-.74a2.93,2.93,0,0,1,.05.29Z"/><path class="cls-2" d="M150.86,181.42c-2.24,3.65,13.08,9.35,15.79,11.28,8.64,8.15,13.07,19.85,19.14,29.9,1,1.88,3.87,2.16,4.85.14,1-2.89-2.53-5.07-3.4-7.67-4.7-8.83-9.86-18-17.25-24.82-4.64-2.72-9.94-4.25-14.54-7.1-1.39-.75-2.95-3.3-4.59-1.73Z"/><path class="cls-2" d="M152.33,184c.28,1.91,5.24,3.07,6.92,4.29,7.65,2.84,16.21,1.15,23.89,4.35C191,193.15,194.7,209.33,201,204c3-3.77-2.47-6.64-4.48-9.31a17.34,17.34,0,0,0-11.29-6.58c-8.48-2.71-17.26.82-25.64-1.31-2-.23-5.86-3.72-7.27-2.72Z"/><path class="cls-2" d="M87,76.45c-11.8,9.54.75,23.29,3.11,34.35,3.66,18.59,0,37.7-6.69,55.17-5.82,11.82-6.42,26.07,1.78,37,5.92,9.75,16.91,14.94,22.94,24.7,6.1,7.29,6.69,17,6.35,26.11.64,9.85,2.09,20.32,7.71,28.68,2.25,3.09,10.68,12.48,12.3,5-.06-2.12-2.41-2.71-3.83-3.8a23,23,0,0,1-7.32-8.71c-4.79-10.07-4.61-21.12-4.14-32-.2-18.75-15.84-28.91-27.5-40.86-8-9.13-9-21.85-3.55-32.51,10.53-26.47,15.31-54-2-78.84-1.79-3.86-1.25-9.45,2.31-12.1,1.43-.84-.06-3.19-1.43-2.18Zm32.61,185.84a1.06,1.06,0,0,0,0,.19,1.06,1.06,0,0,1,0-.19Z"/><path class="cls-2" d="M86.75,78.63c-8.5,7.12,8.63,21.6,11.65,28.53,6.2,14.37,3,30.4-1.3,44.85v0c-23.84,61.29,29,48.41,24.38,87.53-1.46,13.49-5,25.68.14,39.07,1.5,3.17,2.86,11.87,7.61,10.08a2.41,2.41,0,0,0,.69-3.31,32.15,32.15,0,0,1-4.42-9.27c-4-12-.84-24.07.54-36.15,7.13-43.12-48.15-29.77-25.12-85.8l-.1.28c4.92-15.24,8.17-32.21,2-47.59-2.4-6.41-8.51-10.21-11.93-16-1.59-2.8-4.81-6.16-3.42-9.54,2-.65,1.24-3.69-.78-2.66Zm37.61,192.42c0,.15,0,.3.08.46,0-.15-.06-.31-.08-.46Z"/><path class="cls-2" d="M144.32,5.4C144,8.51,148.05,7.68,150,8.33c6.36,1.17,11.66,5.33,16.47,9.44,12.36,9.14,26.71,12.63,39.35,2,5.55-3.79,12.26-6.6,18.84-3.77,5.31.25,7.85,4.17,11,7.82,7.43,6.74,12-.25,6.87-2.53-4.78-.76-6.1-6-9.83-8.29C206.53,0,202,29.33,179.89,20l.19.07c-10.17-2.55-16.41-12.24-26.55-15-2.6-.17-7.89-2.92-9.21.27Z"/><path class="cls-2" d="M223.32,22.89c-.53,1.65,2.07,1.63,3,2.44,8.71,7.2,10,22.75,22.43,25.45,8.21-.45,14.26-1.26,21.7,3.7,9.62,6.8,5.6,20.8,14.36,29,2.83,4.4,10.94,3,7.1-2.52-12.08-5.72-6.3-23.14-17.16-30.2-6.46-4.48-15-8-22.81-5.44C239.25,47.77,234,21.93,223.32,22.89Zm26.32,22.64h0Z"/><path class="cls-2" d="M228.78,13.34c-1.35,1.71,1,2.86,2,4a28.53,28.53,0,0,1,3.33,5.4c16.39,35,27.4-3.83,47.17,23l-.19-.23c2.09,1.74,3.55,6.78,6.94,4.91,3.28-2.66-1.37-6.09-3-8.31l.46.53c-24.14-31.34-32.86,9.05-48-20.95-1.55-2.39-5.34-10.56-8.69-8.4Z"/><path class="cls-2" d="M247.32,19.89c-4.22,1.32.42,4.89,2.92,4.78,6.64.87,13.7.17,19.87,3.21,4.18.84,7.53,9.13,10.61,7.38,2.92-2.63-2.12-5.28-3.7-7.14-8.36-8.38-20-4.59-29.7-8.23Z"/><path class="cls-2" d="M271.62,33.61a1.28,1.28,0,0,0-.18,2.36c9.85,3.34,7.31,20,14.53,27.92a33.7,33.7,0,0,0,7.41,7.71c2,1.1,4.08-1.91,2.27-3.38-1-.76-1.92-1.57-2.85-2.39-11.71-8.5-7.95-30.11-21.18-32.22Z"/><path class="cls-2" d="M227.51,37.73c-3.62,1.82,5.15,11.87,7.22,13.55,6.89,6.2,18,3.46,24.47,10.29,6.44,8.7,8.19,20,14.87,28.71,1.75,2.1,3.52,4.67,6.18,5.6a2.87,2.87,0,0,0,3-4.34c-8.85-7-12.37-18-17.06-27.8-6.27-14.78-27.49-6.83-34.39-20.8-1.55-1.49-1.65-5.54-4.25-5.21ZM271.7,76l.1.21-.1-.21Zm.61,1.26c0,.1.09.21.14.31-.05-.1-.1-.21-.14-.31Z"/><path class="cls-2" d="M238.22,60.82A1.85,1.85,0,0,0,239.63,63c19.43,3.42,24.16,25.69,33.75,39.82,2.26,4.77,8.81,1,4.44-2.54-6.22-4.61-8.38-13.05-11.95-19.66-2.46-5.26-6.66-9.43-10.54-13.65-1.84-3-15.35-10.55-17.11-6.13Zm18,12.73.15.17-.15-.17Z"/><path class="cls-2" d="M374.34,221.05c-22.87,1.29-45.41,9.28-64.46,21.9C297.36,252.38,285.72,263,273,272.24c-30.29,24.93-32.76,20.11-13.38,56.81,1.2,4.81,6.2,2.44,8.75.15A185.65,185.65,0,0,0,286,314.93c11.92-10.53,24.83-19.9,37.57-29.41,19.18-14.24,41.12-24.62,58.64-41.11,4.64-4.24,9.51-8.24,13.72-12.94,7.64-12.76-14.49-10.91-21.61-10.42Zm13.53,7.88,1,0c-13.6,14-29.54,25.45-46.35,35.32l.22-.15c-28.85,16.46-53.21,39.13-79,59.77-2.81-7.55-11.15-18.91-9.17-26.68a333.76,333.76,0,0,1,30.8-24.71c10-7.37,19.38-15.57,29.36-22.95,21.65-13.89,47.47-20.51,73.07-20.65Zm-31.21,26.55-.39.24.39-.24Z"/></g></g></g></svg>