<svg xmlns="http://www.w3.org/2000/svg" viewBox="0 0 289.22 188.12"><defs><style>.cls-1{fill:#b29362;}.cls-2{fill:#fff;}</style></defs><g id="圖層_2" data-name="圖層 2"><g id="event"><g id="event_photo_deco_2"><path class="cls-1" d="M225.83,14.24h0a.05.05,0,0,0,0,0h.45a1.34,1.34,0,0,1,.63.07c.26.14.44.41.37.62a1.06,1.06,0,0,1-.43.63.58.58,0,0,0-.12.1,1.22,1.22,0,0,1-.89.18.45.45,0,0,1-.28-.16l-1-1,.28-.12,0,0c.08,0,.13-.07.14-.12a.73.73,0,0,1,.07-.24.61.61,0,0,1,.12-.16.2.2,0,0,0,0-.2.33.33,0,0,1,0-.2.2.2,0,0,1,.1-.08.29.29,0,0,1,.1,0c.1,0,.16,0,.14-.18s0-.07.07-.1.14,0,.18-.06a.2.2,0,0,0,0-.16c0-.15,0-.22.07-.2s.22,0,.34-.08a1.44,1.44,0,0,1,.59-.16,1.54,1.54,0,0,1,.3,0,.71.71,0,0,1,.16.07.6.6,0,0,1,.15.09.26.26,0,0,0,.09,0,.75.75,0,0,1,.25.13l.2.2.14.22a2.39,2.39,0,0,0,.13.21.47.47,0,0,1,0,.31.52.52,0,0,1-.08.31.6.6,0,0,0-.11.35.19.19,0,0,0,0,.17.17.17,0,0,1,0,.23,1.54,1.54,0,0,0-.13.12.27.27,0,0,0,0,.19.25.25,0,0,0-.12.13,1.4,1.4,0,0,0-.1.16s-.06.05-.07.09a.6.6,0,0,1-.52.34l-.22,0a1.47,1.47,0,0,1-.21,0,.81.81,0,0,1-.38-.16,3.67,3.67,0,0,1-.49-.65c0-.12-.07-.08-.3.06a.41.41,0,0,1-.35.06,0,0,0,0,1,0,0,.87.87,0,0,1,0-.32.36.36,0,0,0,0-.24,1.41,1.41,0,0,1,0-.82,1.06,1.06,0,0,0,0-.26c0-.15.1-.24.08-.42s.06-.12.12-.14a.73.73,0,0,0,.32-.15c.08-.06.15-.14.23-.21a.22.22,0,0,1,.19-.08.14.14,0,0,0,.11,0c.13-.12.29-.1.44-.25s.11,0,.16-.05.06.34.09.48,0,.19.1.13.23-.08.28.07,0,0,0,0,.13.2.19.26a.24.24,0,0,1,0,.21,1.14,1.14,0,0,1-.09.26l-.08.09a2.38,2.38,0,0,1-.36.28l-.13.09v0h0l0,0v0a.41.41,0,0,0,0,.08.11.11,0,0,0,0,0h0a.38.38,0,0,0,0-.12s0,0,0-.06l0,0,0,0h0l0,0h.19l0,0,0,0h0l0,.06a.08.08,0,0,0,0,0l0,0,0,0,0,0h0v0s0,0,0,0v0h0v0h0s0,0,0,0l0,0,0,0h0s.06,0,0,0h.05l.05,0,.08,0h0l.08-.06h0l0,.16h0a.06.06,0,0,1,0,0v0h0v0s0,0,0,0,0,.06,0,.08l.05.09.06.09.05.06h0l0,0a1.47,1.47,0,0,0-.17-.13.39.39,0,0,0-.22-.07s0,0,0,0,0,.06-.15,0h0c0,.05-.07.07-.05.13s.12.14,0,.17a.24.24,0,0,1,.07.09l-.51-.55a.08.08,0,0,0,0,0,.06.06,0,0,0,0,0v0l0,0h0Z"/><path class="cls-1" d="M225,26.39l.06.09.09.14-.74-1s0,0,0,0h0s0,0,0,0h0l.1,0,.12,0c.24.06.47.13.55.31a.68.68,0,0,1-.3.94,1.36,1.36,0,0,1-.43.13l-2.34.28,1.49-2.21.06-.08,0,0h0s0,0,0,0,0,0,0,0h0l.12,0,.22.06c.09,0,.16,0,.16,0s0,0,.07,0a.47.47,0,0,1,.12,0s0,0-.06,0l-.13,0h.08l.15,0c.14,0,.26,0,0,0s0,0,0,0c.34,0,.18,0,.18,0h-.08l-.22,0L224,25c.25.05.18.05.13.05l-.23,0s0,0,.07.05h0c-.11,0-.1,0-.09,0s0,0,0,0l.08.05.17.11c.15.1.13.1.11.09l-.12-.07-.09-.06c.07.05.12.08,0,0,0,0,0,0-.05-.05l0,0c-.14-.09-.1-.07-.08-.08s0,0,0,0a.9.9,0,0,1,.26-.39,3.33,3.33,0,0,1,.87-.43c.13,0,.14-.06.12-.34a.39.39,0,0,1,.15-.37.11.11,0,0,1,.11,0,1,1,0,0,1,.41.18.71.71,0,0,0,.27.16,1.69,1.69,0,0,1,.81.51,1.12,1.12,0,0,0,.2.17c.13.07.16.21.34.29s.07.11.06.18a1.89,1.89,0,0,0,.06.78.32.32,0,0,1,0,.25.17.17,0,0,0-.05.13c0,.22-.11.38-.09.62,0,.08-.05.13-.07.19s-.33-.14-.47-.19-.19-.06-.18,0-.09.26-.25.22,0,0-.06,0-.25,0-.35,0-.3-.16-.41-.29a.54.54,0,0,1-.06-.11,1.65,1.65,0,0,1-.08-.44c0-.18,0-.3,0-.34s0,0,0,0,0,.05,0,0,0-.09.05,0,0,0,0-.06,0-.14,0-.11.05,0,0-.08,0,0,0,0l.05,0h.08l.12,0h-.06l-.1,0h0l0,0,.09-.05.09-.08c.1-.08.08-.11,0-.07l-.12.08a.14.14,0,0,1,0,0s0,0,0,0v0h0v-.1h0v.05s0,0,0,.06l0,.06s0,0,0,0h0l0,0c-.12-.1-.14-.08-.13-.05a.34.34,0,0,0,.09.08h0a2.61,2.61,0,0,1-.28,0s0,.05,0,.07a1.05,1.05,0,0,0,.14.5s0,.07,0,.08,0,0,0,.1.06.07.08.08l0,0,0,0a.54.54,0,0,1,.11,0l.14,0,.1,0h.1l.14,0h0a.75.75,0,0,0,.36-.07l.12-.09a.44.44,0,0,0,.12-.18l0-.09a.32.32,0,0,0,0-.17.75.75,0,0,0-.07-.12l-.17-.14-.12-.06-.14,0-.1,0-.12,0h0a.54.54,0,0,0-.18,0h0l-.19.05-.08,0-.09.06a1.27,1.27,0,0,0-.07.12.19.19,0,0,0,0,.17.64.64,0,0,1,0,.07l0,.09s0,.09,0,.11,0,0,0,0l0,.07.09.14a.37.37,0,0,1-.19,0s-.06,0-.09,0l-.11.08-.05,0h0v0Z"/><path class="cls-1" d="M225.91,37.8l.07-.08c.13-.16.16-.21.14-.14a.93.93,0,0,1,0,.1c0,.08,0,.11,0,.12v.07a1.07,1.07,0,0,1-.06.23l-.13.47a1.37,1.37,0,0,1-.25.58c-.19.22-.42.37-.58.32a1,1,0,0,1-.54-.33.34.34,0,0,0-.09-.08,1.35,1.35,0,0,1-.34-.62c0-.08,0-.2,0-.3a.34.34,0,0,0,0-.24,1.09,1.09,0,0,1-.06-.29,1.14,1.14,0,0,1,0-.25,1,1,0,0,1,.11-.3.61.61,0,0,1,.07-.1.35.35,0,0,1,.1-.11.85.85,0,0,1,.27-.18.89.89,0,0,1,.54-.06c.24.06.37.12.52.14a.73.73,0,0,1,.33.16.6.6,0,0,1,.14.22l-.1.07-.06,0,0,0h.14s0,0,0,0,0,.22.16.27.06.09.09.14,0,.16,0,.23.07.06.16.07.22.09.18.16,0,.22,0,.33a1.56,1.56,0,0,1,.1.67.72.72,0,0,1-.14.35.09.09,0,0,0,0,.07c0,.3-.27.46-.41.7,0,.08-.15.11-.24.14a.53.53,0,0,1-.31.06.9.9,0,0,0-.38,0s-.1,0-.13.1-.1.11-.18.06-.21-.14-.28,0c-.08-.08-.14-.05-.21,0a.05.05,0,0,0-.05,0c-.08.12-.17,0-.23,0s-.07-.06-.07-.1,0-.07.12-.17a1.25,1.25,0,0,1,.12-.08l.08,0,.1,0L225,40l0,0,0,0,.11-.09.23-.17.05,0a.09.09,0,0,0,.06,0l.08-.17.18-.32a.77.77,0,0,0,.07-.16l0-.16,0-.31,0-.14,0-.09-.06-.16,0-.08,0,0-.05-.08c-.2-.07-.06-.16.25-.41l.22-.22a.94.94,0,0,0,.1-.14s0,0,0,0a.65.65,0,0,0-.22.11c-.06.05-.08.07,0,.09a.8.8,0,0,1,.25.23,1.72,1.72,0,0,1,.22.37.85.85,0,0,0,.13.22c.1.11.09.24.22.38s0,.12,0,.17a.65.65,0,0,0-.13.31l0,.08v0s0,0,0,0l.08.08.08.08s0,0,0,0h-.16v0s0,0,0,.06a.45.45,0,0,1-.18.28.37.37,0,0,0-.13.12,1.14,1.14,0,0,1-.28.3l-.37.28a.64.64,0,0,1-.32.1c-.16-.08-.18-.33-.25-.47s-.1-.2-.21-.17a.36.36,0,0,1-.48-.33s0-.06,0-.07a.26.26,0,0,1-.09-.24c0-.09,0-.18,0-.25a.28.28,0,0,1,.15-.26.49.49,0,0,1,.3-.1s.07,0,.11,0a.88.88,0,0,1,.17.12l0,0h0s0,0,0,0l0,0h.13l-.06.06s0,0,0,0h0l0-.08h0l0-.09a.17.17,0,0,0,0-.07l0,0h0l-.58-.26h0l.25,0,.09,0c.11,0,.09-.07,0-.07a.45.45,0,0,1-.18,0s0,0-.1,0l-.06,0,0,0-.05,0h0l0,0s0,0,0,0,0,0,0,0a.19.19,0,0,1,0,.08.15.15,0,0,0,0,.08h0s0,0,0,0,0,0,0,0,0,.11,0,.07,0,0,0,0a1.27,1.27,0,0,0,.05.16.5.5,0,0,0,.06.14c.07.07.14.08.12,0s0-.08,0-.07,0,0,0-.06,0,0,0,0,.06,0,0-.07h0c.05,0,0,0,0,0s0,0,0,0,0,0,0,0l0,0s0,0,0,0,0,0,0,0,0,0,.07,0,0,0,0,0l-.18,0s0,0,0,0a.94.94,0,0,0,.18-.12.32.32,0,0,0,.1-.11v0h0l.05,0h0v0h0l0,0s0,0,0,0,0,0,0-.12l0,0a.82.82,0,0,0,.06-.22c0-.06,0-.06,0,0l0,0h0c.05,0-.07,0-.06,0h.11a.92.92,0,0,0,.24,0h0v0c.13,0,.12.1.3.07l.13,0s0,0,0,0,0,0,0,.13,0,0,0,0Z"/><path class="cls-1" d="M255.53,27.24h0a.13.13,0,0,0,0,.06v0h0s0,0,0,0l0,.11.11.22a1.41,1.41,0,0,1,.19.6c0,.3-.19.57-.43.59a1,1,0,0,1-.76-.16.23.23,0,0,0-.12-.06c-.25-.12-.34-.39-.46-.6s0-.22,0-.32a.6.6,0,0,0,0-.26.72.72,0,0,1-.05-.21,1.27,1.27,0,0,1,0-.2.82.82,0,0,1,.09-.29.4.4,0,0,0,0-.29.47.47,0,0,1,0-.24c0-.06.08-.09.13-.12s.07,0,.11,0,.19,0,.18-.19.06-.07.09-.09.14,0,.19,0,0-.07,0-.16,0-.21.09-.18a.29.29,0,0,0,.3,0,1.86,1.86,0,0,1,.46-.13.74.74,0,0,1,.46.1l.06,0a.62.62,0,0,1,.37.11c.12.07.22.16.35.22a.55.55,0,0,1,.18.24.71.71,0,0,1,.09.34.82.82,0,0,0,.06.4.22.22,0,0,0,.1.16.16.16,0,0,1,.07.22c-.06.12-.13.22,0,.35a.77.77,0,0,0-.08.34.29.29,0,0,0,0,.1.57.57,0,0,1-.32.52,1.26,1.26,0,0,1-.39.22.64.64,0,0,1-.41,0,2.78,2.78,0,0,1-.77-.44c0-.13-.11-.08-.32.1a.43.43,0,0,1-.39.08.1.1,0,0,1-.08-.07.77.77,0,0,1,0-.4.66.66,0,0,0,0-.28,1.42,1.42,0,0,1,0-.91,2.29,2.29,0,0,0,.08-.28.63.63,0,0,1,.12-.23,1,1,0,0,0,.13-.25.18.18,0,0,1,.19-.12,1,1,0,0,0,.41-.05,3.49,3.49,0,0,1,.38-.1.32.32,0,0,1,.27,0,.25.25,0,0,0,.15.06.81.81,0,0,1,.36.1,3.8,3.8,0,0,0,.4.19.6.6,0,0,1,.21.21c0,.16-.24.28-.33.4s-.15.15-.07.2a.22.22,0,0,1,0,.39s-.05,0,0,0a.16.16,0,0,1-.09.17,1.32,1.32,0,0,0-.16.12.25.25,0,0,1-.23.07.72.72,0,0,1-.27-.1.29.29,0,0,1-.08-.1.69.69,0,0,1-.1-.17l0-.08h0v0l0,0,0,0h.1l0,0a.16.16,0,0,0,0,.11,0,0,0,0,0,0,0l0,0a.11.11,0,0,0,0-.05h0l0,0h0l0,0h.06l0,0h0l0,0h0l0-.07h0a.2.2,0,0,0,0,.08v0h0v0h0a0,0,0,0,0,0,0s0,0,0,0h-.12l.06,0,0,0h0l-.07.06h0l0,0v0s0,0,0,0h0l0,.06v.05h0s0,0,0,0v0h0v0h0v-.08h0v0h0v0h0a.1.1,0,0,0,0,0l0,0h0v0l-.08-.08a.47.47,0,0,0-.18-.13s0,0,0,0,0,0-.13,0h0s-.05,0,0,.07.17,0,.1,0l.1,0,.05,0h0l0,0h0Z"/><path class="cls-1" d="M248.6,36.12h0l0,0,0,.05a.14.14,0,0,0,0,.06v0h0l.08.17c.11.23.21.45.12.63a.77.77,0,0,1-.44.35.69.69,0,0,1-.55-.05,1.47,1.47,0,0,1-.47-.42,1.1,1.1,0,0,1-.22-.62,2.48,2.48,0,0,1,0-.29,1.34,1.34,0,0,1,.6-1A.5.5,0,0,1,248,35a.44.44,0,0,0,.26,0,1,1,0,0,1,.36-.13,1.08,1.08,0,0,1,.31,0,.39.39,0,0,0,.27-.07.52.52,0,0,1,.26-.06.36.36,0,0,1,.18.07s.06.06.09.09.16.17.32.12.1,0,.15.08.09.15.16.2.09,0,.18,0,.24,0,.24.09a.76.76,0,0,0,.16.4,1.46,1.46,0,0,1,.23.61A1.09,1.09,0,0,1,251,37a.3.3,0,0,0,0,.1,1,1,0,0,1-.28.54,2.39,2.39,0,0,1-.23.22l-.24.18a.57.57,0,0,1-.35.1.68.68,0,0,1-.35,0,.66.66,0,0,0-.36-.08.22.22,0,0,0-.17.06.16.16,0,0,1-.23,0c-.1-.08-.18-.16-.32-.09-.08-.09-.2-.08-.32-.11a.29.29,0,0,0-.1,0,.63.63,0,0,1-.54-.35,1.62,1.62,0,0,1-.25-.47.84.84,0,0,1,0-.52,3,3,0,0,1,.53-.8c.13,0,.08-.11-.09-.31a.43.43,0,0,1-.12-.37.06.06,0,0,1,.05-.06.78.78,0,0,1,.37-.06.42.42,0,0,0,.28-.05,1.66,1.66,0,0,1,.95-.17,1.58,1.58,0,0,0,.31,0c.17,0,.29.09.49.07s.14.06.17.13a.93.93,0,0,0,.21.35c.08.1.18.2.27.32a.39.39,0,0,1,.09.28.25.25,0,0,0,0,.17,2.85,2.85,0,0,1,.07.86.74.74,0,0,1-.08.28c-.15,0-.36-.07-.51-.1s-.21,0-.2,0a.25.25,0,0,1-.35.25s0,0-.05,0a.22.22,0,0,1-.22,0,.83.83,0,0,0-.21-.06.3.3,0,0,1-.21-.16.65.65,0,0,1-.09-.29.27.27,0,0,1,0-.12,1.07,1.07,0,0,1,.09-.19l.11-.18h0v-.06a.28.28,0,0,0,0-.09v0s0,0,0,0l0,0h0s.05,0,.08,0h-.08l-.09,0-.06,0s0,0,0,0,0,0,0-.05v-.08h0v0h0v.1h0v0a.13.13,0,0,0,0,.06s0,0,0,0v0l0,0s0,0,0,0h0l0,0h0a.11.11,0,0,0-.06,0l-.06,0s0,0-.06,0-.16,0-.13,0h0s0,0,0,0h0a.75.75,0,0,0,.19-.22.56.56,0,0,1,0-.08s0,0,0,0v0s0,0,0,0,0,0,.05,0,0,0,0,.14,0,.12,0,.13.05.05.08,0,.07,0,.09-.08,0-.07,0-.06,0,0,0,0l0,.09a.33.33,0,0,0,0,.06l0,0,0,.06h0l-.08,0h-.08l.05,0,0,0h0l-.11.09h0l0,0s0,0,0,0h0v0a.3.3,0,0,0,0-.1.26.26,0,0,0,0-.23s0,0,0,0-.05,0-.09-.13,0,0,0,0-.11,0-.15,0a.6.6,0,0,0-.06.11s0,0-.05,0,0,.09,0,.12,0,0,0,0l0,0,0,0,0,0-.07-.06h-.06l-.15,0h.06Z"/><path class="cls-1" d="M243.81,44.63l.1,0,.12-.05.05,0,0,0-.05,0c-.08,0-.09.08-.09.08l0,0-.16.18-.32.37a1.54,1.54,0,0,1-.48.41c-.27.12-.55.14-.67,0a1.08,1.08,0,0,1-.31-.56.53.53,0,0,0,0-.12,1.21,1.21,0,0,1,0-.68c0-.08.12-.15.2-.22a.29.29,0,0,0,.15-.18,1,1,0,0,1,.13-.33,1.12,1.12,0,0,1,.19-.24.49.49,0,0,0,.15-.26.51.51,0,0,1,.13-.24.36.36,0,0,1,.17-.07h.13c.12,0,.21,0,.27-.13s.09-.05.13-.06.15,0,.22,0,.06-.06.08-.14.09-.2.16-.14.2.07.31.06a1.6,1.6,0,0,1,.53,0,.87.87,0,0,1,.47.29l.06,0a.69.69,0,0,1,.2.13.93.93,0,0,1,.16.18c.09.12.16.26.26.38a.46.46,0,0,1,.07.31.62.62,0,0,1,0,.35,1.21,1.21,0,0,0-.1.44.38.38,0,0,0,0,.23.24.24,0,0,1-.06.29c-.12.12-.24.19-.26.37a.94.94,0,0,0-.29.27s-.06,0-.07.08a.51.51,0,0,1-.45.27,1.88,1.88,0,0,1-.33.05.67.67,0,0,1-.3-.08,4.52,4.52,0,0,0-.61-.4c-.05-.12-.12,0-.26.19a.45.45,0,0,1-.3.22.07.07,0,0,1-.08,0,1,1,0,0,1-.18-.34.52.52,0,0,0-.11-.26,1.72,1.72,0,0,1-.41-.76.73.73,0,0,0-.09-.23c-.08-.12,0-.25-.16-.39a.16.16,0,0,1,0-.19,1.67,1.67,0,0,0,.31-.69c0-.08.08-.17.17-.2a.19.19,0,0,0,.11-.09c.1-.2.29-.26.41-.48s.11-.08.16-.12.2.29.29.41.12.16.15.09.23-.16.34,0,0,0,0,0a.13.13,0,0,1,.16.06s.09.11.14.13.13.32.11.49a.38.38,0,0,1-.05.12,2.15,2.15,0,0,1-.25.36,1.5,1.5,0,0,0-.14.18l0,0v0h0s0,.08,0,0,0,0,0,.05v.09h0s0,0,0,0a.26.26,0,0,0-.09-.11s0,0,0,0h0l.09,0h0l-.11,0c-.14,0-.13.05-.05,0l.14,0h0l0,0h0s0,0,0,0h0l.07-.11v0l0,0,0-.07s0-.08,0,0,0,.23,0,.23,0,0,0,.06.05.16.08.13.13-.19.16-.21a.42.42,0,0,1,0-.11.08.08,0,0,0,0,0l0,.08,0,.06a.18.18,0,0,0,.06.08l0,0h0l0,0h-.08a.17.17,0,0,0-.08,0s-.06,0,0,0,0,0,0,0,0,0,0,0l0,0h0l0,0h0l-.05,0h0l0,0s0,0,0,0,0,.06,0,0h0s0,0,0-.07,0,0,0,0a1,1,0,0,0,0,.16s0,0,0,0a.87.87,0,0,0-.1-.19.33.33,0,0,0-.16-.17s0,0,0,0,0,0-.14,0l0,0c0,.05-.08.05-.07.11s.11.14,0,.16c.1.08,0,.13.22.18l.13,0s0,0,0,0,0,0-.11.07,0,0,0,0Z"/><path class="cls-1" d="M280.5,45h.11c.21,0,.27,0,.2,0l-.09.05c-.08,0-.1.07-.09.09s0,0-.05.07l-.21.11-.46.18a2,2,0,0,1-.61.15c-.29,0-.54-.05-.6-.19a1,1,0,0,1-.12-.64.75.75,0,0,0,0-.15.76.76,0,0,1,.13-.45,1.35,1.35,0,0,1,.14-.22,1.55,1.55,0,0,1,.19-.24.54.54,0,0,1,.4-.15,1,1,0,0,0,.32-.08,1.13,1.13,0,0,1,.53-.14,1.05,1.05,0,0,1,.52.13l.5.28a.69.69,0,0,1,.18.16.8.8,0,0,1,.13.22.76.76,0,0,1,0,.36.59.59,0,0,1-.07.2c-.08.16-.16.27-.1.44s-.05.13-.07.19c-.17,0-.15.09-.19.16s0,.09,0,.17.06.22,0,.22a.4.4,0,0,0-.3.19l-.09.09a.93.93,0,0,1-.61.37s0,0-.05,0c-.17.17-.41.13-.6.25a.75.75,0,0,1-.4,0,1.63,1.63,0,0,1-.33-.07,1.1,1.1,0,0,1-.39-.22,1.78,1.78,0,0,1-.22-.26,1,1,0,0,1-.08-.14l0,0h0l0,0h0v0a1.89,1.89,0,0,0-.06-.18.14.14,0,0,0-.1-.12.1.1,0,0,1-.06-.16c.06-.12.14-.22,0-.31a.71.71,0,0,0,.08-.34.21.21,0,0,0,0-.11c-.05-.2.15-.43.36-.63a2.12,2.12,0,0,1,.51-.42,1.29,1.29,0,0,1,.54-.19h.12a1.65,1.65,0,0,1,.72.19,1.78,1.78,0,0,1,.45.31c0,.13.13.1.42,0a.49.49,0,0,1,.44,0,.11.11,0,0,1,.07.09.78.78,0,0,1-.05.4.5.5,0,0,0-.05.29,1.67,1.67,0,0,1-.23,1,1.56,1.56,0,0,0-.11.26c0,.16-.17.24-.21.44a.14.14,0,0,1-.16.11c-.28,0-.44.18-.67.3a.23.23,0,0,1-.22.05c-.05,0-.09,0-.13,0-.19.1-.38,0-.6.15-.07,0-.13,0-.2,0s0-.35,0-.49,0-.2-.08-.16a.22.22,0,0,1-.21,0,.29.29,0,0,1-.11-.21s0-.06,0-.06a.22.22,0,0,1-.11-.18.86.86,0,0,0,0-.23c-.07-.15.12-.37.27-.47l.12,0a1.64,1.64,0,0,1,.45,0h.14l.07,0h0l0,0h0l.11-.14h0s0,.05.07-.06,0-.05,0,0a.2.2,0,0,1,0,.05c0,.08.07,0,.06-.11V45l0,0a.79.79,0,0,0,.14.15l.08,0c.08,0,.1,0,.06,0s-.06-.11-.06-.15,0,0-.08,0L280,45h0s0,0-.07,0h0L280,45s0-.09,0-.09,0,0,0,0,0-.05-.06,0a.1.1,0,0,0,0,0l-.07.08a.09.09,0,0,1,0,0s0,0,0,0,0,0,0,0-.08,0,0,0,0,0,0,0l-.11,0-.11.06s-.06.06-.06.09a0,0,0,0,0,0,0h0v0h0l-.48.28h0s0,0,.05-.14a1.3,1.3,0,0,0,0-.28l0-.16V45s0,0,0,0h.05s0,0,0-.07h0c.12,0,.15-.15.27-.1s.07,0,.09-.06.06-.11.13-.1,0,0,.05,0l.05,0,.06,0s0,0,0,0,0-.11-.09-.14h0l0,0,.05,0,.1.06a1,1,0,0,0,.22.09.4.4,0,0,0,.22,0h0l0,0h0l.05,0h0l0,0s0,0,0,0,0,.16,0,.1a.64.64,0,0,0,0,.1.5.5,0,0,0-.08-.07h0l.24.12h0s0,0,0,0S280.49,45,280.5,45Z"/><path class="cls-1" d="M270.48,51.13l.09-.07.15-.14s0,0,0,0v0l-.06.08a.46.46,0,0,0-.06.1s0,0,0,.06-.05.11-.1.22l-.19.45a1.57,1.57,0,0,1-.33.54c-.22.19-.48.31-.63.22a1,1,0,0,1-.48-.45.36.36,0,0,0-.07-.1,1.24,1.24,0,0,1-.18-.71.3.3,0,0,1,.1-.24h0l.3-.77.07,0a.8.8,0,0,0,.32-.1,1.14,1.14,0,0,1,.49-.14h.18l.14,0a.36.36,0,0,0,.27,0,.39.39,0,0,1,.24,0,.38.38,0,0,1,.14.11.45.45,0,0,1,.06.12c0,.11.08.21.22.17s.08.06.11.09,0,.17.06.22.07,0,.15,0,.21,0,.18.07a.47.47,0,0,0,.06.36,1.32,1.32,0,0,1,.12.59,1.23,1.23,0,0,1-.27.75.41.41,0,0,0-.07.11,1.47,1.47,0,0,1-.54.61,4,4,0,0,1-.78.38.9.9,0,0,1-.51,0l-.22,0a.5.5,0,0,1-.17-.11.49.49,0,0,0-.13-.12.93.93,0,0,0-.19-.11.33.33,0,0,0-.21,0c-.12,0-.19,0-.21-.12s0-.23-.2-.3c0-.12-.09-.21-.15-.31a.24.24,0,0,0-.05-.1.52.52,0,0,1-.1-.53,1.66,1.66,0,0,1,.11-.38.89.89,0,0,1,.25-.3c.3-.18.57-.28.76-.42.11,0,.1-.08,0-.36a.65.65,0,0,1,0-.42s0-.05.06-.05a.66.66,0,0,1,.31.06.24.24,0,0,0,.21,0,1.19,1.19,0,0,1,.37-.06h.21l.15,0,.16,0,.34.14a1.09,1.09,0,0,1,.23.14.76.76,0,0,0,.23.15.16.16,0,0,1,.1.19,1.13,1.13,0,0,0,.05.42,3.89,3.89,0,0,1,.1.4.38.38,0,0,1,0,.31.31.31,0,0,0-.06.16.78.78,0,0,1,0,.19l-.06.16a1.23,1.23,0,0,0-.11.34c0,.08-.08.13-.12.19s-.3-.19-.43-.27-.17-.09-.18,0-.15.23-.29.15,0,0-.05,0-.23-.06-.33-.06-.24-.22-.32-.37a.37.37,0,0,1,0-.12,1.64,1.64,0,0,1,0-.45c0-.17,0-.3,0-.33s0-.06,0,0,0,.06,0,0,0-.09.05,0,0,0,0-.06,0-.14,0-.1,0,0,0,0v0h0v0l0,0a.3.3,0,0,0,.07.08l0,0h0l.19.09h0l-.1,0h-.07l.09-.06,0,0,0,0a.08.08,0,0,0,0,0h0l-.09.35h0l0,0s0,0,0,0l-.05,0s0,0,0,.12,0,.07,0,.08,0,.06,0,0,0,0,0,.1,0,0,0,0,0-.08-.09-.14-.13-.11-.14-.09,0,0-.05,0-.12,0-.12,0,.08.15.08.18,0,.08.17.09,0,0,0,0-.07,0,0,0,0,0,.05,0l-.07.06s-.05,0-.05.06.06,0,.12,0l0,0,0,0,0,0h0s0,0,0,0h0s0,0,0,0,0,0,0,0a0,0,0,0,0,0,0s0,0,0,0,0,0,0,0a.22.22,0,0,1,0-.05s0,0,0,0a.18.18,0,0,0-.09,0s0,0,0-.05.06-.11.09-.18a.38.38,0,0,0,0-.25s0,0,0,0-.06,0-.06-.16,0-.05,0-.05l-.07,0a.06.06,0,0,0-.07,0c0,.05,0,.16,0,.1s0,0,0,0h0l.26-.42h0a.3.3,0,0,0,.17,0l.12,0h0c-.06.05,0,0-.09.1s0,0,0,0Z"/><path class="cls-1" d="M262.2,57.6H262s0,0,0,0v0h0a1.43,1.43,0,0,0-.14.2c-.15.2-.3.38-.5.39a.7.7,0,0,1-.52-.2.68.68,0,0,1-.24-.49,1.55,1.55,0,0,1,.1-.62,1.17,1.17,0,0,1,.36-.5l.2-.17a1.17,1.17,0,0,1,.84-.24,1.06,1.06,0,0,1,.2,0l.18,0a2.68,2.68,0,0,1,.34.16.69.69,0,0,1,.27.41,1.21,1.21,0,0,0,.13.34,1.13,1.13,0,0,1,.19.53,1.09,1.09,0,0,1,0,.47l0,.12v.06h-.07a.3.3,0,0,0,0,.1.17.17,0,0,1,0,.05v0a.42.42,0,0,1-.06.27.34.34,0,0,1-.15.14.39.39,0,0,1-.14.05c-.14,0-.25.06-.27.22s-.1.07-.15.09-.19,0-.27,0-.06.07-.06.15-.07.21-.17.17a.63.63,0,0,0-.41,0c-.09,0-.13,0-.13,0l.08,0a.44.44,0,0,0,.18,0h.09l.11,0,.07,0,.07,0,.2-.08.16-.07.18-.07.06,0,.09-.06.17-.13.17-.13s.12-.07.15-.17l.2-.51.05-.13,0-.06a.13.13,0,0,1,0-.06l0-.26v-.38s0-.09,0-.12l-.12-.34s0-.12-.06-.16l-.07-.1-.14-.18-.11-.09-.05,0,0,0-.07,0h0l.16-.14h0l0,0c0-.05,0-.06,0-.09s0,0,0,.09a.47.47,0,0,1,0,.22l0,0-.07.1,0,0h0l0,0,.11.12a.43.43,0,0,0,.18.11.19.19,0,0,1,.17.2.41.41,0,0,0,.09.38.93.93,0,0,0,0,.37s0,.07,0,.11a.56.56,0,0,1-.12.55,1.53,1.53,0,0,1-.26.31.81.81,0,0,1-.39.16,3,3,0,0,1-1.15-.17c-.15-.13-.2-.06-.33.18s-.29.16-.49.13a.41.41,0,0,1-.18-.12,1.4,1.4,0,0,1-.4-.78c0-.23,0-.41,0-.59a1.45,1.45,0,0,1,.26-.81,1.59,1.59,0,0,1,.52-.46l.31-.2a5,5,0,0,0,.54-.29.18.18,0,0,1,.23,0,.75.75,0,0,0,.34.13,3.31,3.31,0,0,1,.34,0c.07,0,.14,0,.17.09a.11.11,0,0,0,.08.08.31.31,0,0,1,.13.06l.06,0,0,0h0s0,0,0,0l-.08.08v0h0l.08,0c.07,0,.05,0,.07,0l0,.06.09.1a.55.55,0,0,0,.14.13c.06,0,.07.08.1.12s-.29.19-.4.27-.16.13-.08.15.19.17.08.29,0,0,0,0-.09.22-.09.32-.23.23-.38.33l-.13,0a1.51,1.51,0,0,1-.44,0,.84.84,0,0,1-.34-.06s-.05,0,0-.08.06,0,0-.06-.09-.07,0-.12,0,0-.06,0-.16-.07-.12-.14,0-.08-.12-.08-.06,0-.06,0V57.3s0,0,0,0h0l.07,0,.38-.19.09-.06,0,0h0l-.51.38h0s0,0,0,0a.32.32,0,0,0-.13.1l0,0s0,0,0,0a1,1,0,0,0,0-.14s0,0,0,0-.05,0-.06,0a.75.75,0,0,1,0,.15s0,0,0,0l0,0,0,0s0,0,0,0h0s0,0,0,.06a.17.17,0,0,0,.09.11s0,0,0,0,.1.08.12.07,0-.09.05-.12,0,0,0-.07,0,0-.09-.06,0,0,0,0,.11,0,.06,0,0,0,0,0l.12,0c.07,0,.09,0,.09-.05s-.06-.09-.17,0l-.08,0,0,0,0,0,0,0h0l0,0a.09.09,0,0,0,0,.05,0,0,0,0,1,0,0s0,0,0,0v0s0,0,0,.07,0,0,0,0a.2.2,0,0,0,0-.11s0,0,.05,0l.16.13a.43.43,0,0,0,.24.07s.05,0,0,0,0-.06.17,0,.06,0,.06,0v0l0,0s0,0,0,0-.16,0-.11-.05l-.06,0,0,0a.2.2,0,0,0,0-.08h0v-.09h0a.21.21,0,0,0,.05.09l0,0Z"/><path class="cls-1" d="M228.77,2.47l-.09,0c-.19.12-.24.14-.2.07a.34.34,0,0,1,0-.1c0-.08,0-.11,0-.13s0,0,0-.08a.84.84,0,0,1,.11-.22l.26-.41a1.32,1.32,0,0,1,.42-.47c.26-.15.54-.22.69-.11a1.41,1.41,0,0,1,.49.54.26.26,0,0,0,.07.11,1.68,1.68,0,0,1,.2.75.65.65,0,0,1-.11.3.42.42,0,0,0-.07.25,1.35,1.35,0,0,1,0,.4,1.3,1.3,0,0,1-.07.33.58.58,0,0,0,0,.32.57.57,0,0,1,0,.29.42.42,0,0,1-.1.17s-.08.06-.11.09-.2.14-.16.31-.06.1-.09.15-.15.08-.2.14,0,.1,0,.18.05.22,0,.23-.23.1-.32.18a1.44,1.44,0,0,1-1,.53l-.08,0c-.28.16-.6.08-.91.14a.62.62,0,0,1-.32-.09l-.17-.07a.61.61,0,0,1-.16-.12,1.46,1.46,0,0,0-.4-.28.41.41,0,0,0-.23-.05.25.25,0,0,1-.26-.15c-.09-.15-.14-.3-.33-.39a.7.7,0,0,0-.08-.2l.21.27-.18-.11s-.05,0-.09-.06c-.22,0-.3-.22-.38-.38a1.69,1.69,0,0,1-.17-.36.84.84,0,0,1,0-.39c.06-.35.15-.66.21-.93.1-.09,0-.15-.24-.24a.44.44,0,0,1-.29-.25.06.06,0,0,1,0-.08,1.09,1.09,0,0,1,.27-.25.46.46,0,0,0,.18-.19,2.81,2.81,0,0,1,.46-.76.91.91,0,0,0,.12-.22c.05-.14.18-.2.2-.38A.14.14,0,0,1,226,.71c.28,0,.44-.17.66-.31a.25.25,0,0,1,.22-.07c.05,0,.1,0,.13,0,.18-.13.37-.1.56-.26s.12,0,.18,0,.09.34.14.48.08.19.14.13.28-.1.37.06,0,0,0,0,.2.2.3.25.14.34.15.53a.21.21,0,0,1,0,.12,1,1,0,0,1-.22.39.9.9,0,0,1-.23.26s-.07,0-.06,0,0-.07,0-.06-.11.05-.13,0,0,0-.06,0-.14.11-.18.05-.08-.05-.12.08,0,.05,0,0a.31.31,0,0,1-.12,0c-.1-.07-.21,0-.22.17s0,.08,0,.08-.07,0-.12,0a1.45,1.45,0,0,1-.28-.13l-.11-.05c-.13-.06-.17,0-.14.07a.28.28,0,0,1,0,.29s0,0,.07.12.06.05.06.07,0,.08,0,.1,0,.06.1.12,0,0,0,0a1.23,1.23,0,0,1-.22,0c-.13,0-.23.12-.21.17s0,0,0,.08-.14.11-.1.14.24.14.29.22.15.12.33.07.05,0,0,0,0,.12,0,.12l.05.36h0l.1-.06s0,0,0,0l0,0-.09.11a.28.28,0,0,0-.06.11c0,.08.1.14.21.06s.07,0,.09,0,.06,0,.08,0,0,0,.07,0,.08,0,.11,0v0c.1.07.16-.1.27,0s.08,0,.1-.05.07-.1.14-.09,0,0,.05,0,.06-.06.15,0,.07,0,.07-.07a1.55,1.55,0,0,0,0-.22s0,0,.09,0l.23,0a.43.43,0,0,0,.28-.06s0,0,0,0,0-.11.17-.14.06,0,.06,0,.06-.16,0-.25-.16-.17-.1-.27c-.13-.09-.11-.22-.3-.26l-.15,0s-.05,0,0,0,0-.08.05-.17,0,0,0-.05S228.8,2.51,228.77,2.47Z"/><path class="cls-1" d="M263.21,20.42a.55.55,0,0,0,0,.12c-.05.21-.12.28-.22.2s-.08,0-.11-.09a.2.2,0,0,0-.18-.11.17.17,0,0,1-.11-.06.34.34,0,0,1-.08-.23c0-.16,0-.33,0-.49a1.88,1.88,0,0,1,.08-.64c.1-.27.18-.5.29-.54l.2-.07.06,0s0,0,0,0h0s.06.06.08.05l.16.07c.06,0,.12,0,.13,0s0-.12.06-.19.05-.11.08-.17a.18.18,0,0,0,0-.2.43.43,0,0,1-.09-.16.18.18,0,0,1,0-.12l.06-.07c.05-.07.09-.15,0-.2s0-.07,0-.1.05-.11,0-.15,0,0-.14,0-.2,0-.15-.06a.12.12,0,0,0,0-.18c-.14-.15-.29-.23-.32-.41l0,0a.23.23,0,0,1-.15-.09s-.09-.09-.15-.08,0,0,0-.06,0-.06,0-.13a.11.11,0,0,0,0-.09h-.09a.11.11,0,0,0-.11.08c0,.09-.09.1-.15.08s-.18-.09-.22,0c-.09,0-.14,0-.2.08a.11.11,0,0,0,0,.05c0,.15-.14.15-.23.18l-.17.08a.47.47,0,0,1-.21,0,.66.66,0,0,0-.57.17c-.12,0-.07.09.15.24a1.15,1.15,0,0,1,.26.21s0,0,0,0l-.22.05c-.08,0-.12,0-.13.08a.88.88,0,0,0,0,.36.13.13,0,0,0,.08.08c.07,0,.05.08.19.06s.05,0,0,.06.05.2.16.22.07,0,.08.07,0,.05,0,0,.17.08.3,0,.06,0,.09,0-.09.33-.1.47,0,.2.05.15.2-.09.26,0,0,.05,0,.05.16.15.26.18.21.27.33.42a.34.34,0,0,1,0,.12,1.07,1.07,0,0,1,0,.45c0,.17-.05.3-.11.33a.14.14,0,0,1-.19,0,.12.12,0,0,0-.13-.05c-.1,0-.2.07-.28,0s-.09,0-.13,0a.36.36,0,0,1-.41,0,.23.23,0,0,0-.32,0,.11.11,0,0,1-.11,0,1.2,1.2,0,0,1-.34-.21,1.8,1.8,0,0,0-.82-.4.56.56,0,0,1-.28-.19,1.89,1.89,0,0,1-.28-.45.75.75,0,0,1,0-.55,1.09,1.09,0,0,1,0-.17.27.27,0,0,0,0-.36.79.79,0,0,1-.2-.64.28.28,0,0,0-.1-.24.22.22,0,0,1-.06-.16.73.73,0,0,1,0-.33.31.31,0,0,0,0-.37s0-.09,0-.12a.71.71,0,0,1,.33-.18l.27-.13a.83.83,0,0,0,.19-.18c0-.05.05-.12.16-.1a.22.22,0,0,0,.28-.1,1.83,1.83,0,0,1,.43-.59c.11-.24.35-.27.49-.5a.1.1,0,0,1,.15,0,.21.21,0,0,0,.28,0c.08-.09.2-.09.3-.13s.1,0,.16.11.09.1.13.1a1.08,1.08,0,0,0,.31,0l.07,0,.1,0a.9.9,0,0,0,.21-.08.41.41,0,0,1,.36,0,2,2,0,0,0,.26,0,.54.54,0,0,1,.22.09.4.4,0,0,0,.3.12h0c.18.2.49.26.6.52a.55.55,0,0,0,.21.22.67.67,0,0,1,.26.34.62.62,0,0,0,.1.16.52.52,0,0,1,.09.34.23.23,0,0,0,.09.24,2.66,2.66,0,0,1,.28.38.26.26,0,0,1,0,.27,1.27,1.27,0,0,1-.18.29,1.92,1.92,0,0,0-.2.41s0,.06,0,.09,0,.22-.15.31a.06.06,0,0,0-.05.06c0,.14-.08.26-.07.41s0,.35-.09.48a.71.71,0,0,1-.1.37c-.05.12-.11.23-.16.38a1.11,1.11,0,0,1-.12.27s-.08.09-.14.09a.28.28,0,0,0-.13,0,.41.41,0,0,1-.31,0,.19.19,0,0,0-.13,0A2.58,2.58,0,0,1,263.21,20.42Z"/><path class="cls-1" d="M286.72,37.51a.53.53,0,0,0,.07-.1c.12-.2.25-.22.35-.12s.08.08.1.14a.33.33,0,0,0,.16.21.23.23,0,0,1,.09.12.34.34,0,0,1-.06.25c-.08.14-.16.28-.25.42a4.16,4.16,0,0,1-.39.49,1.75,1.75,0,0,0-.31.44s0,.09,0,0,0,0,0,0-.09-.06-.17,0-.1-.07-.16-.11-.12-.06-.15,0l-.16.12-.17.08a.18.18,0,0,0-.08.17.43.43,0,0,1,0,.17.13.13,0,0,1-.09,0h-.09c-.08,0-.15,0-.09.15s0,0,0,.07-.09,0-.11.06,0,.06.09.11.15.12.09.12-.1,0-.08.06a.21.21,0,0,0,.08.06s0,0,0,0,0,0,0,0,0,0,0,0,0,0,0,0,0,0,0,0,0,0,0,0a.4.4,0,0,1,0,.16.19.19,0,0,0,.12.19.11.11,0,0,0,.13,0,.05.05,0,0,1,0,0l.4.33s0,0,0,0l0,.06s0,0,0,0,0,0,0,0v0c0-.12,0-.09.06-.06h.1a.33.33,0,0,1,.15.07.75.75,0,0,0,.56.16c.1.06.1,0,0-.29a.87.87,0,0,1-.06-.21.22.22,0,0,0,0-.12s0,0,0,0A.81.81,0,0,0,287,41c.06,0,.1.07.11.06a.23.23,0,0,0,.1-.14s0,0-.05-.06,0-.05-.15-.06,0,0,0,0,0-.26,0-.37-.06-.08,0-.13,0,0,0-.07-.08-.19-.25-.23,0,0-.07-.06.3-.15.42-.23.15-.12.08-.12-.18-.07-.1-.19,0,0,0,0,0-.18,0-.24.09-.28.1-.46,0-.08,0-.13a1.33,1.33,0,0,1,.23-.38c.12-.13.22-.21.3-.2s.15.06.16.15,0,.11.07.14.2.1.2.22.06,0,.11.06a.31.31,0,0,1,.25.28c0,.1,0,.17.2.2a.11.11,0,0,1,.07.06,1,1,0,0,1,0,.3.66.66,0,0,0,.27.58.22.22,0,0,1,.1.19,1.36,1.36,0,0,1,0,.35.73.73,0,0,1-.23.48c-.05,0-.07.08-.12.12a.23.23,0,0,0-.1.32.63.63,0,0,1-.11.61.24.24,0,0,0,0,.24.17.17,0,0,1,0,.16.63.63,0,0,1-.23.23c-.12.06-.23.1-.25.29a.1.1,0,0,1-.1.08.51.51,0,0,1-.29-.09.62.62,0,0,0-.43-.05s-.08.08-.15,0-.18-.11-.24-.06a1.27,1.27,0,0,1-.57.31.59.59,0,0,1-.34.1l-.2,0a1,1,0,0,0-.21,0,.14.14,0,0,1-.18-.08.39.39,0,0,0-.31-.21.73.73,0,0,1-.37-.23c-.05,0-.06-.11,0-.22a.19.19,0,0,0,0-.18l0-.08.3.25a.67.67,0,0,0-.45-.16.32.32,0,0,1-.23-.09l-.18-.08-.08-.05-.08-.06a.39.39,0,0,0-.25-.2l0,0a1.78,1.78,0,0,0-.23-.33.66.66,0,0,1-.14-.38.68.68,0,0,0-.08-.31.64.64,0,0,1,0-.47,1.36,1.36,0,0,0,0-.2.46.46,0,0,1,.16-.35c.09-.06.09-.14.09-.24a2.1,2.1,0,0,1,.05-.43c0-.09.07-.14.17-.16a2.65,2.65,0,0,1,.3-.06,1.23,1.23,0,0,0,.39-.1s.06,0,.06-.05.11-.14.27-.09h.07c.07-.1.19-.12.25-.22s.11-.29.26-.3c.09-.19.27-.24.39-.46a.94.94,0,0,1,.14-.19s.08-.06.13,0,.23,0,.35.07a.09.09,0,0,0,.1,0A2,2,0,0,1,286.72,37.51Z"/><path class="cls-1" d="M26.41,150.84a14.58,14.58,0,0,1-2,7A10.14,10.14,0,0,1,21,161.4a6.34,6.34,0,0,1-4.85.82,8.51,8.51,0,0,1,7.78,3.63,13.3,13.3,0,0,1,2.17,8.45,14.67,14.67,0,0,1,9.44-13c-2.68,1.08-5.9-.51-7.39-2.94s-1.6-5.44-1.31-8.27Z"/><path class="cls-1" d="M62.59,125.81a6.6,6.6,0,0,1-1.53,5,6.87,6.87,0,0,1-4.73,2.34c.92-.58,2.07.25,2.83,1a16.41,16.41,0,0,1,2.58,3.13,5.4,5.4,0,0,1,.77,3.86A10.06,10.06,0,0,1,68,132.28,4.09,4.09,0,0,1,63,130.64a6,6,0,0,1-.24-5.39Z"/><path class="cls-1" d="M25.2,153.87a.71.71,0,0,0-.06-.2,1,1,0,0,1,0-.92,2.78,2.78,0,0,1,.16-.4,1.38,1.38,0,0,0,.2-.66,3,3,0,0,1,.1-.43.41.41,0,0,1,.25-.3,2.27,2.27,0,0,1,.5-.12.58.58,0,0,1,.61.4,3.57,3.57,0,0,1,.31,1.89,10,10,0,0,1-.63,2.57c-.06.16-.12.32-.17.49a7.44,7.44,0,0,1-.63,1.34c-.25.42-.52.83-.79,1.25a4.12,4.12,0,0,1-.76.8,8,8,0,0,0-.72.71,8,8,0,0,1-1.27,1.2,6.59,6.59,0,0,1-1.24.77l-1.23.61a4.53,4.53,0,0,1-1.11.37,3.61,3.61,0,0,1-.87.06,3.07,3.07,0,0,1-.53-.06c-.46-.07-.9-.17-1.37-.21l.1-1.64.12,0a2.19,2.19,0,0,1,.73-.08,1.31,1.31,0,0,0,.51.09h.52a1,1,0,0,0,.5-.06,1,1,0,0,1,.81,0c.45.23.92.35,1.38.54a8.31,8.31,0,0,1,3.73,2.72l.2.25A11,11,0,0,1,26.36,168a6.06,6.06,0,0,1,.32,1.2c0,.21.09.43.12.65a4.87,4.87,0,0,1,.05.65c0,.57,0,1.13.09,1.7a4.17,4.17,0,0,0,.1.78,1.61,1.61,0,0,1,.07.49,2.1,2.1,0,0,1,0,.5l0,.35-1.84-.08a4.42,4.42,0,0,0,.06-1.15,5.73,5.73,0,0,0,.13-.7l0-.35.06-.35c0-.14.06-.27.07-.4a4.15,4.15,0,0,1,.2-1c.05-.17.11-.34.17-.5l.21-.5a13.29,13.29,0,0,1,.66-1.37c.12-.23.26-.43.4-.65a4.47,4.47,0,0,1,.45-.6,25.34,25.34,0,0,1,2.58-2.6,1,1,0,0,0,.38-.35.86.86,0,0,0,.13-.46,1.53,1.53,0,0,1,.39-.74s0,0,0,0a1.53,1.53,0,0,0,.36,0l.18,0a.79.79,0,0,0,.22-.08l.21-.11.23-.09.06,0h0l-.11,0a2,2,0,0,1-.24,0h0l-.37,0h-.19a.44.44,0,0,0-.25,0l-.05,0-.07,0-.09,0a2.63,2.63,0,0,1-.33-.2,21,21,0,0,1-2.33-1.73c-.12-.11-.24-.22-.35-.34s-.2-.26-.29-.4a3.46,3.46,0,0,0-.29-.45,15.2,15.2,0,0,1-1.18-2,4.08,4.08,0,0,1-.26-.69c0-.34.24-.45.31-.71a.82.82,0,0,0,0-.65,2.74,2.74,0,0,1-.19-1.64.68.68,0,0,0,0-.19,6.91,6.91,0,0,1,.15-1.64,4.81,4.81,0,0,1,.4-1.43l.33.11a3.45,3.45,0,0,0-.28.26,1,1,0,0,1-.23.13.35.35,0,0,1-.48-.08A.55.55,0,0,1,26,150c.05-.1.1-.21.16-.31l1.59.55a1.35,1.35,0,0,1-.08.4,1.61,1.61,0,0,0-.08.54,5,5,0,0,1,0,1.09,1.15,1.15,0,0,0,0,.44,5.48,5.48,0,0,1,.17,1.4,1.82,1.82,0,0,0,.25,1,.88.88,0,0,1,.12.32c.07.39.19.77.29,1.15a4.8,4.8,0,0,0,.55,1.22,3.51,3.51,0,0,0,.88.92l.18.14.17.13a1.07,1.07,0,0,1,.16.14l.17.14a5.34,5.34,0,0,0,.53.41l.28.18.29.18.27.16.07,0h0l0,0,.08,0,.14.07.16.06.16.07s.12,0,.18,0l.36.07.33.08.16.05h.12l.15,0,.45-.06a2.58,2.58,0,0,1,.06.37.36.36,0,0,0,0,.22.24.24,0,0,0,.06.09l.07.06.18.06.11,0a.34.34,0,0,0,.1,0h.22l.12,0,.1,0,.08,0,.08,0h0l.82-.2h0l-.07,0-.13.06-.52.23-.19.08-.09,0,0,0h0a.18.18,0,0,0,.06.16.38.38,0,0,1,.12.21l0,.08v0l0,.07c0,.11.07.21.11.31-.29.14-.59.28-.9.41l-.32.14-.16.07-.14.07c-.15.1-.3.19-.43.29a4.16,4.16,0,0,0-.75.64,2.3,2.3,0,0,1-.27.22l-.09.05,0,0-.07,0a5.16,5.16,0,0,1-.84.44,5.11,5.11,0,0,0-.7.44,5.84,5.84,0,0,0-.61.58l-.21.25a.6.6,0,0,1-.23.19,1.49,1.49,0,0,0-.68.68l-.3.56c-.1.18-.18.38-.27.57l-.13.29a2.55,2.55,0,0,0-.13.29c-.08.19-.16.38-.25.57s-.11.37-.16.56-.12.36-.19.54-.09.38-.14.56a3.6,3.6,0,0,0-.08.56.88.88,0,0,1-.14.5,1.69,1.69,0,0,0-.22.93c0,.38-.05.76-.08,1.13a.66.66,0,0,1,0,.21l-2-.08a.57.57,0,0,1,.13-.27.74.74,0,0,0,.13-.41,7.09,7.09,0,0,0-.2-2.43c-.09-.31-.17-.63-.23-.95s-.14-.45-.21-.68-.15-.39-.21-.58a2.29,2.29,0,0,0-.39-.87.3.3,0,0,1,0-.08,10.41,10.41,0,0,0-1.27-2,2.41,2.41,0,0,0-.29-.36l-.36-.31-1.07-.83a3.3,3.3,0,0,0-.51-.31c-.15-.1-.32-.17-.48-.26a4.48,4.48,0,0,1-.47-.28,1.33,1.33,0,0,0-.38-.18,1.86,1.86,0,0,0-.41-.08,6.56,6.56,0,0,0-1.39-.08h-.41a2.6,2.6,0,0,1-.39-.05l-.39,0,.12-1.83.42.21a3.19,3.19,0,0,0,1.38.24.94.94,0,0,0,.34,0,3.71,3.71,0,0,1,1.18-.21.58.58,0,0,0,.26-.05,5.91,5.91,0,0,0,1.39-.82c.45-.39.8-.87,1.25-1.28a9,9,0,0,0,1.15-2c.07-.23.14-.45.22-.68a1.47,1.47,0,0,1,.19-.4c.23-.3.32-.69.56-1a1.22,1.22,0,0,0,.14-.33C25,154.6,25.1,154.26,25.2,153.87Z"/><path class="cls-1" d="M25.34,137.69h-.11c-.21,0-.27,0-.19-.07l.09-.05c.09,0,.12-.05.12-.07s0,0,.05,0a1.16,1.16,0,0,1,.24,0l.49,0a3.27,3.27,0,0,1,.63,0,1.24,1.24,0,0,1,.54.11c0,.07.1.14.07.22s0,0,0,0-.06.16-.07.24-.1.07-.17.1-.1.06-.09.09a.32.32,0,0,1,0,.14.26.26,0,0,1,0,.11s0,.07.08.11a.21.21,0,0,1,.1.08s0,0,0,.07l0,0c-.06,0-.1.08,0,.11s0,0,0,.06c-.15,0-.07.06-.06.08s.05,0,.13,0,.19,0,.14.06-.07.08,0,.11.16.24.07.36,0,0,0,0,0,.19.06.28,0,.07-.05.11,0,.07-.11.11-.1.1-.1.14,0,.05.07.07.09,0,0,.07-.12.09,0,.13c-.05,0,0,.07,0,.11s0,0,0,0,.1.11.08.17,0,.08,0,.13a.35.35,0,0,1-.1.13.81.81,0,0,0-.32.32c-.1,0,0,.06.26.06a1,1,0,0,1,.33,0s0,0,0,0a1.09,1.09,0,0,1-.19.1c-.07,0-.1.06-.1.09s0,.2,0,.3,0,.05.05.08,0,.08.16.12,0,0,0,.06-.07.15,0,.22,0,.05,0,.07,0,0,0,0,0,.12.19.17,0,0,.05,0-.33.05-.47.08-.18,0-.11.06.14.08,0,.13l0,0c.06,0-.12.1-.14.15s-.24.12-.38.18l-.12,0a2.78,2.78,0,0,1-.45,0,1,1,0,0,1-.34,0s-.05,0,0-.06.06,0,0-.05-.09-.06,0-.1,0,0-.06,0-.15-.07-.1-.12,0-.07-.1-.09-.05,0,0,0a.21.21,0,0,1,0-.12c.07-.09,0-.18-.14-.26s-.08-.05-.07-.08,0-.1.06-.15a.64.64,0,0,1,.26-.14l.11-.05c.14,0,.13-.07.05-.11s-.15-.11-.15-.18,0,0-.12,0-.08,0-.09,0,0,0,0-.08,0-.07-.12-.09,0,0,0,0a.46.46,0,0,1,.2-.1c.13-.05.22-.13.21-.17s0,0,0-.06.16-.06.13-.09-.19-.15-.21-.22-.07-.14-.24-.2,0,0,0-.05.1-.07,0-.09,0-.07,0-.11,0,0,.14-.05.11,0,.12,0a.14.14,0,0,0-.05-.22s-.07-.05-.06-.08,0,0,0-.07,0,0,0-.05,0-.07,0-.09h0c.07-.08-.09-.15,0-.23s0-.06,0-.09-.07-.08,0-.13,0,0,0-.06,0-.07.06-.11,0,0,0-.08a1.92,1.92,0,0,1-.17-.13s0-.05.05-.08l.21-.1a.54.54,0,0,0,.21-.15s0,0,0,0,0-.07.11-.12l.05,0s0-.1,0-.15-.17-.1-.1-.16c-.13-.06-.09-.14-.26-.2a.46.46,0,0,1-.14-.05s0,0,0,0,0-.08.12-.12,0,0,0,0A.36.36,0,0,0,25.34,137.69Z"/><path class="cls-1" d="M.43,162.26s0,.05,0,.1c0,.22,0,.28,0,.2a.17.17,0,0,1,0-.09c0-.09-.06-.11-.08-.11s0,0,0-.05a.77.77,0,0,1-.06-.23l-.08-.49A4.34,4.34,0,0,1,0,161a1.25,1.25,0,0,1,.08-.54c.07,0,.13-.12.21-.09s0,0,0,0,.17.05.25.06.07.09.11.16.07.1.09.08a.36.36,0,0,1,.14,0l.12,0s.07,0,.1-.08a.26.26,0,0,1,.08-.11s.05,0,.07,0,0,0,.05.06.09.1.11,0,0,0,.06,0c0,.15.06.07.08.06s0-.05,0-.14,0-.19,0-.13.08.06.12,0,.23-.17.36-.08a0,0,0,0,0,0,0c.09-.1.2,0,.29-.06s.07,0,.1,0a.34.34,0,0,1,.12.12c.05.1.1.1.14.1s0,0,.07-.07.05-.09.08-.05.09.11.12,0c0,.05.08,0,.12,0l0,0c0-.13.11-.1.17-.08a.69.69,0,0,1,.13,0,.27.27,0,0,1,.13.1.79.79,0,0,0,.31.32c0,.1.06,0,.07-.25a1.12,1.12,0,0,1,.06-.33s0,0,0,0a.85.85,0,0,1,.1.19c0,.08.06.11.09.11h.3s0,0,.08,0,.09,0,.13-.15,0,0,.06,0,.15.08.23,0,0,0,.07,0,0,0,0,0,.13,0,.19-.17,0,0,.06-.05,0,.34,0,.48,0,.18,0,.12.1-.14.14,0,0,.05,0,0,.09.13.14.14.1.25.15.4,0,.08,0,.13a2,2,0,0,1,0,.44A1.76,1.76,0,0,1,6,162s0,.05-.06,0,0-.06,0,0-.07.09-.1,0,0,0,0,.05-.08.14-.12.09-.07,0-.1.09,0,.05,0,0a.27.27,0,0,1-.11-.05c-.08-.08-.17,0-.25.12s-.06.07-.09.06-.09,0-.13-.07a.56.56,0,0,1-.12-.27.49.49,0,0,1,0-.11c0-.14-.07-.14-.11-.06s-.11.14-.18.15,0,0,0,.11a.14.14,0,0,1,0,.09s-.06,0-.09,0-.06,0-.09.13,0,0,0,0a.67.67,0,0,1-.08-.2c0-.13-.12-.23-.16-.22s0,.05,0-.05-.06-.16-.09-.13-.14.19-.22.2-.13.08-.19.24,0,0-.05,0-.06-.11-.09-.06-.06,0-.1.05,0,0,0-.14,0-.11,0-.12-.15-.06-.21.05a.12.12,0,0,1-.09.06s0,0-.06,0,0,0-.05,0-.06,0-.09.05h0c-.08-.06-.15.1-.23,0s-.06,0-.08,0-.08.07-.13,0,0,0-.05,0-.07,0-.11-.06-.05,0-.08,0a1.63,1.63,0,0,1-.11.17s-.05,0-.09,0l-.1-.2a.67.67,0,0,0-.15-.21s0,0,0,0-.07,0-.12-.11,0-.05,0-.05-.1,0-.14,0-.09.17-.15.11c-.05.13-.13.09-.17.27s0,.1-.05.14,0,0,0,0-.07,0-.11-.11,0,0,0,0Z"/><path class="cls-1" d="M25.45,181.47l-.11,0c-.21,0-.27,0-.19-.09s0,0,.09,0,.12,0,.12-.08,0,0,.06-.05a1.24,1.24,0,0,1,.24,0l.49,0a3,3,0,0,1,.63,0c.27,0,.5.09.53.16s.11.16.07.25,0,0,0,.05-.07.18-.09.28-.1.07-.17.1-.1.07-.09.1a.43.43,0,0,1,0,.16.35.35,0,0,1,0,.14s0,.08.07.12a.26.26,0,0,1,.1.11s0,0,0,.07,0,0-.06.05-.11.09,0,.13,0,0,0,.07c-.15,0-.07.06-.07.09s.05,0,.14.05.19,0,.13.07-.07.09,0,.13.15.29,0,.43a0,0,0,0,0,0,0c.09.11,0,.22,0,.33s0,.08-.05.12a.34.34,0,0,1-.12.12.17.17,0,0,0-.12.16s0,.05.07.08.08.06,0,.1-.12.09,0,.14c-.06,0,0,.09,0,.13s0,0,0,0,.09.14.06.21a.39.39,0,0,1,0,.14.27.27,0,0,1-.11.14.84.84,0,0,0-.34.34c-.11,0,0,.06.25.1a.71.71,0,0,1,.31.09s0,0,0,0a.82.82,0,0,1-.19.1q-.12,0-.12.09c0,.11,0,.23,0,.34a.11.11,0,0,0,0,.1c.06.06,0,.11.14.16s0,0,0,.07-.09.17,0,.26,0,.06,0,.08,0,0,0,0,0,.14.17.22,0,.05,0,.07-.34,0-.48,0-.19,0-.12,0,.13.12,0,.16h0c.06.06-.14.1-.15.15s-.26.11-.41.16H26a2.29,2.29,0,0,1-.44,0,1,1,0,0,1-.34-.07s-.05-.05,0-.07.06,0,.05-.05-.08-.08,0-.12,0,0-.05,0-.14-.1-.08-.15,0-.07-.09-.12,0,0,0,0a.37.37,0,0,1,.07-.12c.08-.1.05-.2-.11-.31s-.07-.07-.05-.1,0-.11.07-.16a.66.66,0,0,1,.28-.13l.12,0c.14,0,.14-.08.06-.12a.22.22,0,0,1-.13-.22s0-.05-.11-.08-.07,0-.08,0-.05-.07,0-.1,0-.07-.12-.12,0,0,0,0a.46.46,0,0,1,.21-.09c.13,0,.23-.12.23-.17s0,0,.05-.06.17-.06.14-.09-.18-.18-.19-.27-.06-.17-.22-.25,0,0,0-.06.11-.06.06-.1,0-.08,0-.12,0,0,.14-.05.11,0,.12,0a.16.16,0,0,0,0-.25.1.1,0,0,1-.05-.1s0-.05,0-.08,0,0,0-.06,0-.07,0-.11,0,0,0,0-.09-.17,0-.26,0-.07,0-.1-.06-.1,0-.15,0-.05,0-.07,0-.08.07-.12,0-.06,0-.09-.1-.11-.16-.16,0-.06.05-.09l.21-.1c.14-.05.16-.11.23-.16s0,0,0,0,0-.08.12-.12l0,0c0-.06,0-.12,0-.17s-.17-.13-.1-.19c-.12-.08-.08-.16-.25-.24l-.13-.07s0,0,0,0,0-.09.12-.13,0,0,0,0A.52.52,0,0,0,25.45,181.47Z"/><path class="cls-1" d="M44.22,164.64v.11c0,.22,0,.28-.09.21s0,0-.06-.09-.08-.1-.11-.1,0,0-.06-.05a.91.91,0,0,1-.08-.23l-.09-.49a3,3,0,0,1,0-.62c0-.28,0-.52.13-.56s.18-.13.29-.1l0,0c.11-.06.23,0,.35,0s.09.09.14.15.09.1.13.08a1.08,1.08,0,0,1,.19,0l.16,0c.06,0,.1,0,.14-.09a.29.29,0,0,1,.11-.11s.07,0,.1,0,0,0,.06.05.12.09.16,0,.05,0,.07,0c.06.14.09.06.12.05s0-.05,0-.14,0-.19.07-.14.11.06.16,0,.32-.19.5-.11c0,0,0,0,0,0s.27,0,.39-.09.1,0,.15,0a.46.46,0,0,1,.16.11.21.21,0,0,0,.2.09s.06,0,.08-.08.07-.09.11-.06.13.12.17,0c.06.05.11,0,.16,0l0,0c.06-.14.15-.11.23-.1h.17a.38.38,0,0,1,.18.09,1.26,1.26,0,0,0,.45.31q.08.14.09-.27a.65.65,0,0,1,.06-.32s0,0,0,0a1,1,0,0,1,.14.19c0,.07.09.1.12.1l.42,0a.13.13,0,0,0,.11-.06c.06-.06.12,0,.17-.16s.06,0,.08,0,.21.07.31,0,.07,0,.11,0,0,0,.06,0,.16,0,.24-.19,0,0,.08-.05.05.34.09.47,0,.19.07.12.13-.14.19,0,0,0,0,0,.13.12.2.13.15.25.23.39a1,1,0,0,1,0,.12,2,2,0,0,1,0,.45,1,1,0,0,1-.05.34s0,0-.08,0,0-.06-.07,0-.09.09-.14,0,0,0,0,.06-.11.14-.17.09-.09,0-.13.1,0,.05,0,.05a.49.49,0,0,1-.16-.05c-.12-.07-.24,0-.35.14s-.08.08-.12.07-.13,0-.19-.06a.59.59,0,0,1-.19-.26,1.09,1.09,0,0,1-.06-.11c0-.13-.1-.13-.15-.05a.24.24,0,0,1-.24.16s-.06,0-.08.12,0,.08,0,.09-.08.06-.12,0-.09,0-.12.13,0,0,0,0a.49.49,0,0,1-.13-.2c-.07-.12-.17-.21-.23-.2s0,0-.08-.05-.09-.15-.13-.12-.19.2-.29.22-.19.08-.27.25,0,0-.07,0-.09-.1-.13,0-.09,0-.14,0,0,0-.07-.13,0-.11-.06-.12a.24.24,0,0,0-.3.07q-.06.08-.12.06s-.06,0-.09.05,0,0-.07,0-.09,0-.12.06a0,0,0,0,1,0,0c-.11-.06-.2.11-.31,0s-.08,0-.12,0-.11.08-.18,0,0,0-.07,0-.1,0-.15-.05-.08,0-.11,0-.12.12-.17.19-.07,0-.12,0l-.14-.2c-.08-.13-.15-.14-.22-.2s0,0,0,0-.1,0-.17-.1,0,0,0,0-.14,0-.2,0-.13.19-.21.13c-.08.13-.18.1-.25.28a.6.6,0,0,1-.07.14s0,.05,0,0-.1,0-.16-.1,0,0,0,0Z"/><path class="cls-1" d="M61.73,127.73a.66.66,0,0,0-.08-.13.49.49,0,0,1-.16-.27.4.4,0,0,1,0-.28,1.27,1.27,0,0,1,.12-.23.59.59,0,0,0,.12-.4,1.32,1.32,0,0,1,0-.26.34.34,0,0,1,.23-.2,3.36,3.36,0,0,1,.48-.14.62.62,0,0,1,.64.18,1.89,1.89,0,0,1,.52,1.27,5.39,5.39,0,0,1-.35,1.81l-.12.33a5.62,5.62,0,0,1-1.09,1.74,1.45,1.45,0,0,1-.29.26l-.33.2a3.09,3.09,0,0,0-.55.4,5.72,5.72,0,0,1-.92.7,5.11,5.11,0,0,1-.84.43,6.31,6.31,0,0,0-.78.39l-.33.18-.36.13a2,2,0,0,1-.54.08,2,2,0,0,1-.35,0,3.53,3.53,0,0,0-.46,0l-.47-1.46.3-.17.32-.17a1.24,1.24,0,0,1,.69-.06,4,4,0,0,0,.8.27.66.66,0,0,0,.39,0,.56.56,0,0,1,.55.19,5.18,5.18,0,0,0,.74.68c.21.17.37.31.54.47l.5.46a7.32,7.32,0,0,1,.91,1.08.61.61,0,0,0,.12.16,9,9,0,0,1,1.31,2,2.75,2.75,0,0,1,.26.81,3.07,3.07,0,0,1,.12.91c0,.41,0,.81,0,1.22a3.79,3.79,0,0,0,0,.58,1,1,0,0,1,0,.45l-1.95-.21a1.22,1.22,0,0,1,0-.26,4.17,4.17,0,0,0,.08-.49,1.4,1.4,0,0,0,0-.5,1.89,1.89,0,0,0,0-.23c0-.08,0-.15,0-.23s0-.31,0-.46a2.51,2.51,0,0,0,0-.27,3.22,3.22,0,0,1,.34-1.36,8.27,8.27,0,0,1,.42-.91,3.6,3.6,0,0,1,.56-.82c.13-.16.28-.3.42-.45l.21-.21.21-.21c.15-.14.28-.29.43-.42l.22-.21.1-.1.09-.09c.19,0,.22-.2,0-.36a2,2,0,0,0-.17-.12l-.12,0s0,0,0,0h.06l.32-.07a1.34,1.34,0,0,0,.34-.12,1.71,1.71,0,0,1,.23-.13.78.78,0,0,1-.23.07h-.12l-.25,0H64.7a.35.35,0,0,0-.17,0s-.06,0-.07,0h0l0,0-.11-.08c-.53-.43-1.09-.74-1.61-1.2a1.79,1.79,0,0,1-.42-.53,2.59,2.59,0,0,0-.19-.33,10.37,10.37,0,0,1-.8-1.42,2.16,2.16,0,0,1-.16-.49c0-.24.28-.32.4-.5a.43.43,0,0,0,.08-.44,1.27,1.27,0,0,1,0-1.11s0-.08,0-.12a3,3,0,0,1,.35-1,1.86,1.86,0,0,1,.54-.76l.38.14-.21.25a.86.86,0,0,1-.16.1.44.44,0,0,1-.47,0,.41.41,0,0,1-.23-.37.87.87,0,0,1,0-.28l1.63.58a.56.56,0,0,1-.1.15.47.47,0,0,0-.14.29,2,2,0,0,1-.15.63.39.39,0,0,0,0,.26,1.94,1.94,0,0,1,0,.83.69.69,0,0,0,.12.6.3.3,0,0,1,.06.18c0,.23.06.45.1.68a1.62,1.62,0,0,0,.27.71,1.43,1.43,0,0,0,.52.49,1.28,1.28,0,0,1,.39.29,4.57,4.57,0,0,0,.61.45l.07.06h0l0,0,.1.05a2,2,0,0,1,.36.18l.12,0,.12,0,.23,0,.21.05a.06.06,0,0,0,.06,0l.09,0,.19,0h0c0,.14.06.28.07.39a.34.34,0,0,0,0,.18.38.38,0,0,0,.09.12l.14.06.08,0h.08l.16,0h.12a.55.55,0,0,0,.19,0l.06,0s.06,0,0,0-.07.1,0,.13,0,0,0,0l0,.07a.88.88,0,0,0,0,.15l0,.08a.35.35,0,0,1,0,.06.24.24,0,0,1,0,.08.89.89,0,0,0,.21.48.68.68,0,0,0-.12.12l-.08.12a1.72,1.72,0,0,1-.44.32l-.37.21-.19.09a1.12,1.12,0,0,0-.16.1l-.52.3a3.45,3.45,0,0,0-1,.79c-.08.11-.13.24-.28.27s-.35.22-.45.42l-.08.18-.07.18-.15.38c-.08.25-.17.49-.27.74a4,4,0,0,1-.15.7c0,.12-.06.23-.08.35a1.45,1.45,0,0,0,0,.36.4.4,0,0,1-.1.31.74.74,0,0,0-.16.57,5.47,5.47,0,0,1,0,.7.34.34,0,0,1-.15.29.41.41,0,0,0-.13.24L61.79,141h0a2,2,0,0,0,0-1.35,3.74,3.74,0,0,1-.17-.54,1.88,1.88,0,0,0-.16-.39,3.49,3.49,0,0,1-.15-.34,1,1,0,0,0-.3-.5s0,0,0,0a14.2,14.2,0,0,0-.87-1.26,1.89,1.89,0,0,0-.42-.47,3.81,3.81,0,0,1-.66-.67,2.65,2.65,0,0,0-.29-.29,3.57,3.57,0,0,1-.27-.28,1.1,1.1,0,0,1-.2-.28.74.74,0,0,0-.39-.31,1.89,1.89,0,0,0-.69-.2.19.19,0,0,1-.2-.09.4.4,0,0,0-.23-.14l-.48-1.5h0a2.63,2.63,0,0,0,.93.09.38.38,0,0,0,.21,0,1.12,1.12,0,0,1,.77-.11.32.32,0,0,0,.17,0,4.62,4.62,0,0,0,.91-.47,8.6,8.6,0,0,1,.85-.75,4,4,0,0,0,.74-1.22c0-.14.07-.28.11-.41a.59.59,0,0,1,.11-.24,1.1,1.1,0,0,0,.2-.28.89.89,0,0,1,.2-.29c.05,0,.06-.12.09-.19s.06-.21.08-.31S61.7,127.84,61.73,127.73Z"/><path class="cls-1" d="M62.5,114.36l-.11,0c-.21,0-.27,0-.19-.07l.1,0c.09,0,.12,0,.12,0s0,0,.06,0a.78.78,0,0,1,.24,0h.49a4.72,4.72,0,0,1,.63,0,1.4,1.4,0,0,1,.52.14c0,.06.1.12.06.17a0,0,0,0,0,0,0c0,.07-.08.12-.09.19s-.11,0-.18.06-.11,0-.1.06a.2.2,0,0,1,0,.11.12.12,0,0,1,0,.08s0,.06.07.09a.24.24,0,0,1,.09.08s0,0,0,0l-.06,0c-.07,0-.11,0,0,.09s0,0,0,0-.07,0-.06.06,0,0,.13,0,.18,0,.13,0-.08.06-.06.09.15.19,0,.28,0,0,0,0,0,.15,0,.23,0,.05,0,.07a.26.26,0,0,1-.13.08c-.1,0-.11.07-.11.11s0,0,.06,0,.09,0,0,.07-.13,0,0,.09c-.06,0,0,.06,0,.09s0,0,0,0,.09.09.07.14,0,.06,0,.09a.21.21,0,0,1-.11.09.68.68,0,0,0-.34.23c-.11,0,0,0,.25.07a1.48,1.48,0,0,1,.32.06s0,0,0,0l-.2.07c-.07,0-.11,0-.11.05s0,.16,0,.24,0,0,.05.06,0,.07.14.11,0,0,0,0-.09.12,0,.18,0,0,0,0,0,0,0,0,0,.09.17.14,0,0,0,0-.34,0-.48,0-.19,0-.12,0,.13.07,0,.1h0c.06,0-.13.07-.15.11s-.25.07-.4.1H63a3.36,3.36,0,0,1-.45,0,1.76,1.76,0,0,1-.34,0s-.05,0,0-.05.06,0,0,0-.08,0,0-.07,0,0-.05,0-.14-.07-.09-.1,0,0-.09-.08,0,0,0,0a.16.16,0,0,1,.06-.09c.07-.06,0-.13-.12-.21s-.07,0-.05-.07A.3.3,0,0,1,62,118a.8.8,0,0,1,.28-.09l.12,0c.13,0,.13-.05,0-.08s-.13-.1-.13-.15,0,0-.11-.06l-.09,0s0,0,0-.08.05,0-.11-.08,0,0,0,0a.79.79,0,0,1,.21-.06c.13,0,.23-.08.23-.11s-.05,0,0,0,.16,0,.14-.07-.18-.12-.19-.18-.06-.12-.22-.18,0,0,0,0,.11,0,.06-.06,0-.06,0-.09,0,0,.14,0,.12,0,.13,0,.07-.12,0-.18-.06,0,0-.07,0,0,0,0,0,0,0,0,0,0,0-.07h0c.08-.06-.08-.12,0-.18s0,0,0-.07-.06-.07,0-.1,0,0,0,0,0-.06.07-.08,0,0,0-.07-.1-.07-.16-.11,0,0,.06-.06l.21-.06a.73.73,0,0,0,.23-.1s0,0,0,0,0-.07.13-.09h0s0-.08,0-.12-.16-.09-.09-.13c-.12-.06-.08-.12-.24-.18l-.13,0s0,0,0,0,0-.05.13-.07,0,0,0,0S62.5,114.39,62.5,114.36Z"/><path class="cls-1" d="M44.07,132.85a.41.41,0,0,0,0,.1c0,.21-.06.27-.08.19a.22.22,0,0,1,0-.1c0-.09,0-.12,0-.12s0,0,0-.06a1,1,0,0,1,0-.25l0-.48a5.22,5.22,0,0,1,.09-.63,1.55,1.55,0,0,1,.16-.52c.05,0,.11-.09.16,0s0,0,0,0,.11.08.17.1a.44.44,0,0,1,.05.18c0,.06,0,.11.06.1h.1l.09,0s0,0,.08-.06a.17.17,0,0,1,.07-.09s0,0,0,0l0,.06c0,.06.05.11.08,0s0,0,0,0c0,.15,0,.08.06.07s0,0,0-.13,0-.19,0-.13.06.07.09.05.18-.15.27-.05h0c.07-.09.14,0,.21,0s0,0,.07.05a.31.31,0,0,1,.08.12c0,.1.07.11.1.11s0,0,0-.07,0-.08.06,0,.06.12.09,0c0,.06.06,0,.09,0s0,0,0,0,.09-.09.13-.07.06,0,.09,0a.31.31,0,0,1,.1.1.87.87,0,0,0,.23.33c0,.1,0,0,0-.26a1.42,1.42,0,0,1,0-.32s0,0,0,0a1.82,1.82,0,0,1,.08.19c0,.08,0,.11.07.11h.22s0,0,.06-.06.06,0,.08-.15,0,0,0,0,.11.07.16,0,0,0,.06,0,0,0,0,0,.08,0,.11-.19,0,0,0,0,0,.34.08.47,0,.19,0,.12.06-.14.1,0l0,0c0-.07.08.11.12.13s.1.23.16.38a.68.68,0,0,1,0,.12,2.34,2.34,0,0,1,.06.44,1.35,1.35,0,0,1,0,.34s0,.05,0,0,0-.06,0,0,0,.09-.07,0,0,0,0,.06-.05.14-.1.1,0,0-.07.1,0,.05,0,0a.26.26,0,0,1-.1,0c-.07-.07-.14,0-.2.13s0,.08-.07.07-.07,0-.11-.05a.73.73,0,0,1-.13-.27s0-.06,0-.11-.07-.13-.09-.05-.09.15-.14.15,0,0,0,.12,0,.07,0,.08,0,.06-.07,0-.05,0-.07.13,0,0,0,0a.48.48,0,0,1-.08-.2c0-.13-.1-.23-.14-.22s0,.05,0-.05,0-.16-.08-.13-.11.19-.18.2-.11.07-.16.24,0,0,0,0,0-.11-.08-.06,0,0-.08,0,0,0,0-.14,0-.11,0-.12-.12-.06-.18,0S46,133,46,133s0,0-.05,0,0,0,0,0,0,0-.07,0h0c-.06-.07-.12.09-.19,0s0,0-.07,0-.07.06-.11,0,0,0,0,0-.06,0-.09-.07,0,0-.06,0a1,1,0,0,1-.12.15s-.05,0-.06-.05S45,133,45,133a.69.69,0,0,0-.09-.22s0,0,0,0-.06,0-.08-.13,0-.05,0-.05-.07,0-.12,0-.09.15-.13.08c-.07.12-.12.07-.19.24l-.06.12s0,0,0,0-.06,0-.08-.13,0,0,0,0Z"/><path class="cls-1" d="M62.35,147.74l-.1,0c-.21-.07-.25-.12-.17-.15a.24.24,0,0,1,.1,0c.1,0,.13,0,.14-.07s0,0,.07,0a.78.78,0,0,1,.24,0l.48.1a3.27,3.27,0,0,1,.61.18,1.75,1.75,0,0,1,.49.24c0,.07.07.14,0,.2s0,0,0,0-.09.15-.11.23-.11.05-.18.07-.11,0-.1.08a.45.45,0,0,1,0,.16.28.28,0,0,1,0,.12s0,.08.06.13a.22.22,0,0,1,.09.11s0,0,0,.07,0,0-.07.05-.1.08,0,.13,0,0,0,.07-.07.05-.06.08,0,0,.12.06.19,0,.13.07-.07.09,0,.13.13.29,0,.43,0,0,0,0,0,.23,0,.34,0,.08-.06.11a.34.34,0,0,1-.12.12c-.11,0-.12.1-.12.15s0,.05.06.08.09.07,0,.1-.12.09,0,.14c-.06,0,0,.09,0,.13s0,0,0,0,.08.14.06.21,0,.09,0,.14a.29.29,0,0,1-.12.13,1,1,0,0,0-.35.33c-.1,0,0,.07.25.11a.83.83,0,0,1,.32.09s0,0,0,0a1.23,1.23,0,0,1-.2.1c-.08,0-.12,0-.12.08s0,.23,0,.35a.14.14,0,0,0,.05.1s0,.1.14.15,0,.05,0,.07-.09.17,0,.25,0,.06,0,.09a0,0,0,0,0,0,.05c.08.07,0,.14.17.21s0,0,0,.07a3.28,3.28,0,0,1-.47,0c-.12,0-.19,0-.13.06s.13.11,0,.16h0c.06.06-.13.1-.15.15s-.25.11-.4.16l-.12,0a2.33,2.33,0,0,1-.45,0,.84.84,0,0,1-.34-.06s0-.05,0-.07.06,0,.05-.06-.09-.08,0-.11,0,0,0-.05-.13-.11-.08-.16,0-.07-.08-.12,0,0,0,0a.56.56,0,0,1,.07-.13c.08-.09,0-.2-.11-.31s-.07-.07-.05-.1,0-.11.07-.16a.48.48,0,0,1,.28-.13l.12,0c.13,0,.14-.08.06-.12a.22.22,0,0,1-.13-.23s0,0-.11-.08-.07,0-.08-.05,0-.07,0-.1.05-.08-.11-.12,0,0,0,0a.81.81,0,0,1,.22-.09c.13,0,.23-.12.22-.16s0-.05.06-.07.16,0,.14-.09-.18-.19-.18-.28-.06-.17-.22-.26,0,0,0,0,.11-.06.06-.1,0-.08,0-.13,0,0,.14,0,.12,0,.13,0a.17.17,0,0,0,0-.26s-.06-.07,0-.1,0-.06,0-.08,0-.05,0-.07,0-.07,0-.11h0c.08-.08-.08-.18,0-.26s0-.07,0-.11-.06-.1,0-.15,0-.05,0-.07,0-.08.07-.12,0-.06,0-.09-.09-.12-.15-.17,0-.07.06-.09a1.12,1.12,0,0,1,.22-.09.65.65,0,0,0,.23-.15s0,0,0,0,0-.09.13-.12l0,0c0-.06,0-.12,0-.18s-.16-.14-.08-.2c-.12-.1-.07-.18-.23-.28l-.11-.1s0,0,0-.05,0-.09.14-.12,0,0,0,0A.66.66,0,0,0,62.35,147.74Z"/><path class="cls-1" d="M73,133.1a.81.81,0,0,0,0,.11c0,.21-.07.27-.12.2a.88.88,0,0,1-.06-.1c0-.09-.07-.12-.11-.12s0,0-.06-.05a.73.73,0,0,1-.05-.24c0-.16,0-.33,0-.49a2.86,2.86,0,0,1,0-.63c.07-.28.14-.51.22-.54a.57.57,0,0,1,.33-.07.07.07,0,0,0,.06,0c.12,0,.25.07.37.08s.1.1.14.17.09.1.13.09a.54.54,0,0,1,.22,0,.57.57,0,0,1,.18,0s.1,0,.16-.08a.38.38,0,0,1,.13-.1s.07,0,.1,0l.07.06c.06.06.12.1.17,0s.06,0,.09,0,.08.07.12.06,0-.05.06-.14,0-.19.08-.13.12.06.18,0a.66.66,0,0,1,.56-.09h0c.15-.1.3,0,.44-.06s.11,0,.16,0a.48.48,0,0,1,.17.11.22.22,0,0,0,.22.09s.06,0,.09-.07.08-.09.13-.05.13.11.18,0c.07.05.12,0,.18,0s0,0,.05,0,.17-.1.26-.09h.19a.5.5,0,0,1,.2.09,1.09,1.09,0,0,0,.49.3q.09.14.09-.27a.86.86,0,0,1,.07-.33,0,0,0,0,1,0,0,1,1,0,0,1,.16.18c0,.07.09.1.14.1s.3,0,.45,0a.2.2,0,0,0,.12-.06c.06-.07.14,0,.19-.17s0,0,.09,0,.23.06.34,0a.08.08,0,0,1,.11,0,0,0,0,0,0,.07,0c.08-.09.18-.05.25-.21s.06,0,.08-.06a3.9,3.9,0,0,1,.13.47c0,.11.07.18.09.11s.13-.15.21,0,0,0,0,0,.15.11.23.12.19.23.28.37a.58.58,0,0,1,0,.11,1.73,1.73,0,0,1,.08.44.76.76,0,0,1,0,.35s-.06.06-.1,0-.05-.05-.08,0-.09.1-.15,0,0,0-.06.06-.11.15-.19.11-.11,0-.14.11,0,.05,0,.05a.58.58,0,0,1-.18,0c-.15-.06-.28,0-.4.16s-.08.09-.13.08a1.85,1.85,0,0,1-.23,0,.67.67,0,0,1-.22-.26.41.41,0,0,1-.07-.11c-.07-.12-.12-.12-.17,0a.32.32,0,0,1-.28.17s-.07,0-.09.12a.11.11,0,0,1-.06.09s-.09.06-.13,0-.11,0-.14.14,0,0,0,0A.72.72,0,0,1,79,133c-.07-.12-.19-.21-.25-.2s-.06.05-.09,0-.1-.16-.15-.13-.22.21-.34.23-.22.08-.32.25,0,0-.08,0-.1-.1-.14-.05-.11,0-.16.05-.06,0-.08-.13,0-.12-.07-.12a.28.28,0,0,0-.34.06c-.05,0-.09.07-.14.06s-.07,0-.1,0-.06,0-.09,0a.09.09,0,0,0-.14,0s0,0,0,0-.24.11-.36,0-.1,0-.14,0a.19.19,0,0,1-.21,0s-.06,0-.09,0a.14.14,0,0,1-.17,0c0-.06-.08,0-.13,0a1.12,1.12,0,0,1-.21.17s-.08,0-.13,0l-.14-.21a.63.63,0,0,0-.23-.21,0,0,0,0,0,0,0c-.06.08-.12,0-.18-.11s0-.05,0-.05-.15,0-.23,0-.16.17-.25.1c-.1.13-.22.09-.32.26a.73.73,0,0,1-.1.13s0,.05-.06,0-.11,0-.17-.12a0,0,0,0,0,0,0Z"/><path class="cls-2" d="M263.39,99.77a25.28,25.28,0,0,0-10.21-10.21c-.47-.26-.94-.49-1.42-.72a27.31,27.31,0,0,0,.42-3.49,22.39,22.39,0,0,0-.27-4.48,23.89,23.89,0,0,0-.84-4.27,28.46,28.46,0,0,0-4.75-8.87,33.94,33.94,0,0,0-7.43-7,42,42,0,0,0-16.15-6.39,81.63,81.63,0,0,0-10.8-1.08,132.43,132.43,0,0,0-13.8.3c-9.48-.5-19-.47-28.28,2A45.42,45.42,0,0,0,144,73.35a31.17,31.17,0,0,0-4.23,8.84,42.29,42.29,0,0,0-20.82,11.18,34,34,0,0,0-9.12,14.77c-1.89,7-.45,14.62,4.57,19.92a23.18,23.18,0,0,0,6.68,4.65,46.64,46.64,0,0,1,4.16,2.14,5.05,5.05,0,0,1,.12.56c.15,1.32.29,2.63.49,4a19.88,19.88,0,0,0,1.7,5.23,18,18,0,0,0,4.38,5.9,34.15,34.15,0,0,0,13.55,7.13,110.6,110.6,0,0,0,14.1,2.93,177.8,177.8,0,0,0,17.69,1.94c1.53.08,3.06.15,4.6.19a20.28,20.28,0,0,1-3.4,8.62c-1.25,1.82,1.42,3.57,2.92,2.25,3-2.64,6.09-5.27,8.82-8.18a17.51,17.51,0,0,0,2.15-2.74c5.25-.2,10.5-.64,15.72-1.33,5.84-.76,11.64-1.69,17.4-3a87.94,87.94,0,0,0,16.29-4.93c6.25-2.74,12.08-8.33,13.55-15.21a19.06,19.06,0,0,0,.2-7.2c.75-.54,1.49-1.12,2.23-1.76a25.19,25.19,0,0,0,7.76-12.81A23.81,23.81,0,0,0,263.39,99.77Z"/><path class="cls-1" d="M124.54,144.36a1.64,1.64,0,0,0-.23-.21,1.33,1.33,0,0,1-.47-.5,2.41,2.41,0,0,1-.3-.71,5.64,5.64,0,0,1-.13-.67l0-.27c0-.08,0-.17,0-.26a3.82,3.82,0,0,0-.11-.55,3.43,3.43,0,0,1-.06-.34c0-.11,0-.23,0-.34a.64.64,0,0,1,.16-.51,1.93,1.93,0,0,1,.46-.26c.24-.06.5.07.7.41l.27.48c.1.16.2.31.29.48.16.33.37.66.52,1a17.47,17.47,0,0,0,1.55,2.67c.11.17.24.33.36.48a24.69,24.69,0,0,0,2.43,2.59c.33.3.62.64.93,1a6.27,6.27,0,0,0,1,.8l.91.57.92.55.78.44.79.41a11.27,11.27,0,0,0,1.52.66c.45.13.89.29,1.33.45s.62.27.92.42.38.18.58.27a5.69,5.69,0,0,0,1.67.57,7.27,7.27,0,0,1,.85.24,3.2,3.2,0,0,0,1.18.42,1.22,1.22,0,0,0,.59,0,1.52,1.52,0,0,1,1,.1,5.52,5.52,0,0,0,.84.28,8.6,8.6,0,0,0,.88.19c1.85.33,3.71.58,5.57.92a2.32,2.32,0,0,0,.38.06c.38,0,.75.06,1.12.11l1.12.12c.75.09,1.5.19,2.25.21a13.43,13.43,0,0,1,1.54.17c.55.08,1.12.11,1.65.22a13.2,13.2,0,0,0,2.18.21,5,5,0,0,0,1,0,5.06,5.06,0,0,1,1.29,0,7.33,7.33,0,0,0,1.93.07,12.15,12.15,0,0,0,1.81,0,4.35,4.35,0,0,0,.52,0,17.63,17.63,0,0,1,2.72,0c.66,0,1.31,0,2,0l1,0a9,9,0,0,1,1,.12,7.47,7.47,0,0,1,2.55.86,3.45,3.45,0,0,1,1.1,1,3.29,3.29,0,0,1,.37.66,3.55,3.55,0,0,1,.19.71,5.82,5.82,0,0,0,.06.8,1.93,1.93,0,0,0,.24.59,2.21,2.21,0,0,1,.19,1.11,1.47,1.47,0,0,1-.07.41c-.08.27-.16.53-.26.79a5.64,5.64,0,0,1-.32.75c-.2.41-.39.81-.56,1.25a16.54,16.54,0,0,1-1.13,2.22,16.77,16.77,0,0,1-1.46,2c-.16.17-.31.35-.46.53s-.31.34-.45.51c-.49.55-1.08,1-1.6,1.53a2.48,2.48,0,0,1-.3.25l-.9-2a3.28,3.28,0,0,1,.51-.1,7.68,7.68,0,0,0,1.63-.43c.26-.1.51-.22.77-.33l.38-.18.37-.2.5-.25.51-.23a2.89,2.89,0,0,0,.56-.27l.57-.38a5.72,5.72,0,0,0,.58-.37,7.19,7.19,0,0,0,1.07-.84c.19-.2.45-.36.66-.54s.56,0,.88-.09a1.09,1.09,0,0,0,.69-.43,4.71,4.71,0,0,1,.35-.41l.36-.38c.26-.24.54-.45.82-.67a1,1,0,0,0,.2-.15,4.61,4.61,0,0,1,.37-.4l.38-.37a5.32,5.32,0,0,0,.75-.75c.14-.17.29-.32.44-.47s.28-.3.43-.44l.45-.42c.15-.14.29-.29.43-.44a1.14,1.14,0,0,1,.28-.21c.24-.16.43-.16.52,0a.78.78,0,0,1,0,.72c-.08.16-.17.32-.26.47a2.74,2.74,0,0,1-.34.41,3.85,3.85,0,0,0-.5.63,6.62,6.62,0,0,1-1,1.26,2.34,2.34,0,0,0-.39.53,7,7,0,0,1-1.44,1.59l-.3.26-.3.27a3.35,3.35,0,0,0-.53.6,2.3,2.3,0,0,1-.39.37c-.25.18-.5.39-.76.56l-.79.52-3.72,2.24c-.21.12-.43.25-.65.36l-.7.28c-.36.14-.73.25-1.1.37l-.55.17-.56.14-.58.12-.9-2c.2-.12.4-.22.61-.32l.6-.32c.18-.08.34-.21.51-.29a3.16,3.16,0,0,0,1.14-1.1c.5-.8,1-1.57,1.49-2.4a3.55,3.55,0,0,0,.21-.44,1.74,1.74,0,0,0,.11-.45,2.44,2.44,0,0,1,.16-.57c.15-.42.27-.85.41-1.26a2.74,2.74,0,0,0,.21-1.37.83.83,0,0,1,0-.22c0-.09,0-.17,0-.24s.11-.43.17-.62l.15-.56a1.74,1.74,0,0,0,0-.85,1.34,1.34,0,0,0-.45-.68,4,4,0,0,1-.55-.39,1.7,1.7,0,0,0-1.12-.44,9.88,9.88,0,0,0-1.72,0c-.6,0-1.21.06-1.82.06-1.11.14-2.26,0-3.37.2a2,2,0,0,1-.77,0,4.51,4.51,0,0,0-1.42-.08,16.07,16.07,0,0,1-1.7,0,1.69,1.69,0,0,1-.71-.16,1.43,1.43,0,0,0-.6-.14c-.58,0-1.17-.09-1.76-.11h-1.76a13.84,13.84,0,0,1-1.44,0l-1,0c-.31,0-.62,0-.92-.06a7.62,7.62,0,0,0-1.43-.07h-.13c-.61-.1-1.22-.14-1.84-.18a14,14,0,0,1-1.82-.25c-.47-.1-1-.12-1.44-.18a21.09,21.09,0,0,1-2.09-.32c-.29-.08-.6-.12-.9-.18a11.63,11.63,0,0,1-1.67-.41,5.9,5.9,0,0,0-1.27-.31l-1.11-.18c-.37-.07-.73-.17-1.1-.25a5.66,5.66,0,0,1-1.24-.42l-.32-.16-.32-.16c-.21-.11-.42-.22-.62-.34a10,10,0,0,0-1-.5c-.17-.08-.35-.14-.51-.23l-.5-.25a2.62,2.62,0,0,0-.48-.22,4.86,4.86,0,0,1-.85-.34l-.39-.21c-.12-.09-.24-.18-.35-.28a2.08,2.08,0,0,0-.33-.21c-.35-.16-.7-.34-1.06-.52l-1.06-.53a12.45,12.45,0,0,1-2.3-1.3c-1-.53-1.91-1.29-2.87-1.92-.28-.21-.58-.41-.85-.64a3.11,3.11,0,0,1-.48-.48l-.27-.35-.28-.34c-.09-.12-.19-.23-.27-.35s-.15-.25-.22-.39a3,3,0,0,0-.31-.44A16,16,0,0,1,124.54,144.36Z"/><path class="cls-1" d="M204.62,160.5a2.61,2.61,0,0,0-.37.12,3.25,3.25,0,0,1-.84.23,5.34,5.34,0,0,1-1,0,7.33,7.33,0,0,1-.86-.09,7,7,0,0,0-1.39-.12,6.26,6.26,0,0,1-.88-.08,1,1,0,0,1-.62-.25,1.43,1.43,0,0,1-.25-.49c-.05-.26.17-.48.7-.62s1-.24,1.55-.33a11.21,11.21,0,0,1,1.71-.18c1.53-.06,3.05-.18,4.58-.23.3,0,.59,0,.89-.06,1.7-.17,3.4-.21,5.1-.4.63-.08,1.27-.06,1.9-.08a12.94,12.94,0,0,0,1.73-.16l1.49-.26,1.48-.27,2.44-.46a20.67,20.67,0,0,0,2.22-.58c.6-.21,1.24-.39,1.87-.56.45-.13.91-.22,1.37-.32l.87-.16a10.37,10.37,0,0,0,2.36-.66,11.52,11.52,0,0,1,1.17-.36,6,6,0,0,0,1.67-.44,2.31,2.31,0,0,0,.72-.37,2.92,2.92,0,0,1,1.21-.54,11.83,11.83,0,0,0,1.16-.34c.38-.14.76-.3,1.14-.46.6-.24,1.17-.52,1.76-.78.29-.12.57-.27.86-.41l.86-.42c1.13-.59,2.26-1.18,3.34-1.83l.43-.28a6.7,6.7,0,0,0,.6-.45l.6-.44c.1-.08.21-.15.3-.23l.29-.24.57-.47a6.44,6.44,0,0,0,.55-.47l.24-.25a3.07,3.07,0,0,0,.25-.26,8,8,0,0,0,.85-1.13c.35-.54.71-1.08,1-1.66a15.19,15.19,0,0,0,.79-1.94,6.57,6.57,0,0,0,.33-2.71,4.15,4.15,0,0,0-.26-1.23c-.2-.48-.4-1-.59-1.45a5,5,0,0,0-.25-.52,3.3,3.3,0,0,0-.31-.51l-.17-.24-.2-.22a2.08,2.08,0,0,0-.21-.21l-.12-.1-.21-.2-.27-.26a3.76,3.76,0,0,0-.31-.25l-.65-.49a.67.67,0,0,0,.06-.19l0-.16.09-.31c0-.13,0-.23,0-.34l0,0s0,0,.06,0a.43.43,0,0,0,.18-.16c.13-.16.29-.4.54-.78l0-.07,0,0s0,0,0,0l.17-.06.32-.11.31-.13.25-.11.6-.29c.41-.2.82-.4,1.23-.62.76-.42,1.51-.88,2.26-1.34s1.51-.92,2.26-1.35l.69-.41.67-.42a7.23,7.23,0,0,0,.64-.44l.31-.23.31-.25a12.71,12.71,0,0,0,2.16-2.29,2.5,2.5,0,0,0,.51-.75,1.58,1.58,0,0,0,.12-.73,4.53,4.53,0,0,1,.3-1.29,3.71,3.71,0,0,1,.19-.46c.32-.57.58-1.19.86-1.77.11-.26.21-.51.3-.78s.16-.53.22-.82a22.68,22.68,0,0,0,.41-6.16c0-.28-.05-.57-.09-.85l-.06-.43-.09-.42a14.72,14.72,0,0,0-.68-2.63,6,6,0,0,1-.31-1.14A13.6,13.6,0,0,0,261,99.78c-.27-.44-.54-.85-.79-1.3a4.79,4.79,0,0,0-.46-.71,14.84,14.84,0,0,0-2.57-2.62,3.79,3.79,0,0,1-.45-.34l-.46-.35a1.46,1.46,0,0,1-.3-.5,1.57,1.57,0,0,0-.23-.47,2.72,2.72,0,0,0-.37-.39,1.67,1.67,0,0,0-.49-.29,26.23,26.23,0,0,1-2.6-1.14,1.94,1.94,0,0,0-.3-.13,22.79,22.79,0,0,0-2.8-.67c-1.18-.11-2.22-.29-3.36-.3a2.22,2.22,0,0,1-.45,0c-.38-.06-.53-.2-.43-.38s.36-.36.82-.47c.24,0,.49-.09.73-.12a6.26,6.26,0,0,1,.75,0l.55,0a5.23,5.23,0,0,0,.56,0,8.07,8.07,0,0,1,2.24.2c.27.06.61.09.91.13a8.22,8.22,0,0,1,2.87.87c.34.17.67.36,1,.52l.5.25.51.22a3.33,3.33,0,0,1,.65.38,15.14,15.14,0,0,1,2,1.73,35.35,35.35,0,0,1,3.75,4.67,10.84,10.84,0,0,1,1,1.8,21.68,21.68,0,0,1,1.08,3,12.51,12.51,0,0,1,.45,2.85c0,.29,0,.6,0,.88a13.24,13.24,0,0,0,.22,2.34,15.67,15.67,0,0,1,.08,4.22,8.72,8.72,0,0,0-.07,1.43,3.39,3.39,0,0,1,0,.44c0,.15,0,.31-.07.46-.05.34-.13.68-.2,1s-.17.67-.28,1l-.37,1.06a8.83,8.83,0,0,0-.28,1,2.58,2.58,0,0,1-.28.68,9.36,9.36,0,0,1-.54.88c-.2.27-.4.54-.62.79l-.5.6c-.2.22-.39.48-.61.71s-.43.49-.65.71l-.29.32-.27.28a4.26,4.26,0,0,1-1,.85,5.7,5.7,0,0,0-.81.5c-.27.18-.53.4-.81.6a48.15,48.15,0,0,1-4.1,2.92,17.77,17.77,0,0,1-1.83,1.16l-1,.53-.25.12-.13.07h0l-.07.07s0,0,0,.05,0,0-.16,0h0l-.16,0s.1.12.22.19l0,0a.35.35,0,0,1,.12.07l.06,0,.1.11.11.12.42.49.39.52a5.54,5.54,0,0,1,.29.52,2.63,2.63,0,0,1,.14.49,2006458119069.7,2006458119069.7,0,0,1,.1.42c0,.15.11.3.16.45a11.53,11.53,0,0,1,.5,5.14,9.06,9.06,0,0,1-.49,2c-.1.24-.18.48-.28.71s-.19.47-.3.7-.2.4-.3.6-.22.39-.34.58c-.4.58-.83,1.12-1.23,1.69l-.12.15-.48.48c-.17.14-.33.31-.49.45l-1,.85c-.16.14-.34.27-.51.4l-.52.39c-.18.12-.35.25-.53.36s-.37.23-.56.33-.57.35-.86.53l-.86.53c-.41.27-.84.5-1.27.73-.21.11-.43.23-.65.33l-.67.29c-.39.16-.77.38-1.16.54l-1.09.45a9.17,9.17,0,0,1-1.12.37,12.24,12.24,0,0,0-1.68.63c-.46.21-.94.39-1.42.57l-.71.27-.72.26c-.29.11-.58.2-.86.28s-.58.13-.87.18c-.63.11-1.27.23-1.89.31-1,.12-2,.35-2.95.53a7,7,0,0,0-.69.16,8.34,8.34,0,0,1-2.4.46,3.24,3.24,0,0,0-.52.07c-1,.27-2.11.43-3.16.68-.57.15-1.15.28-1.73.42a17.2,17.2,0,0,1-1.77.3c-1.5.35-3.07.54-4.56.87-.46.1-.92.19-1.39.27a5.51,5.51,0,0,1-.89.1c-.76,0-1.56.12-2.31.05a5.67,5.67,0,0,0-.71,0C206.12,160.42,205.41,160.47,204.62,160.5Z"/><path class="cls-1" d="M210.24,55.26s-.1.07-.15.12a.78.78,0,0,1-.77.3,2.45,2.45,0,0,1-.38,0,1.48,1.48,0,0,0-.63,0,1.68,1.68,0,0,1-.39,0,.37.37,0,0,1-.31-.19,2.72,2.72,0,0,1-.21-.46.62.62,0,0,1,.2-.68,3.07,3.07,0,0,1,1.41-.76l1.06-.2a7.91,7.91,0,0,1,1.08-.11l.41,0a9.82,9.82,0,0,1,1.21-.07l1.2,0a3.84,3.84,0,0,1,.89.14,3.15,3.15,0,0,0,.81.1h.7l.7,0c.39,0,.77,0,1.16.08a4.7,4.7,0,0,0,1.06,0,6.91,6.91,0,0,1,.91,0,4.63,4.63,0,0,1,.65.1,2.62,2.62,0,0,1,.4.11,2.28,2.28,0,0,0,1.13.12,2.28,2.28,0,0,1,.57.07,1.42,1.42,0,0,0,.78.2.67.67,0,0,0,.4-.07.67.67,0,0,1,.63,0,3.85,3.85,0,0,0,1.11.28c.6.11,1.21.2,1.8.35l.88.23.87.31a1.35,1.35,0,0,0,.24.08c1,.21,1.82.63,2.77.94a7,7,0,0,1,.91.46,7.33,7.33,0,0,1,.93.59,10.11,10.11,0,0,0,1.18.79,3.73,3.73,0,0,0,.6.3,1.79,1.79,0,0,1,.73.42,3.76,3.76,0,0,0,1,.77,3.34,3.34,0,0,0,.45.38l.47.36a2.69,2.69,0,0,0,.27.2,4.16,4.16,0,0,1,.71.54c.22.2.41.43.61.65s.29.31.43.47.28.32.41.49a7.44,7.44,0,0,1,.71,1c.49.9.94,1.83,1.43,2.72a.62.62,0,0,0,.6.54,1.08,1.08,0,0,1,.59.41.52.52,0,0,1,.13.21,8.21,8.21,0,0,1,.27,1,3.81,3.81,0,0,0,.25.79,20,20,0,0,1,1,2.87c.08.27.16.54.26.81,0,.11.07.22.1.33l.09.33a2,2,0,0,0,.09.33c0,.11.07.22.11.33a1.1,1.1,0,0,1,.06.6,9.33,9.33,0,0,0,0,1.18c0,.19,0,.39,0,.59s0,.4,0,.6a2.6,2.6,0,0,1-.09.78,1.65,1.65,0,0,0-.09.43c0,.65-.27,1.27-.33,1.93a4.56,4.56,0,0,1-.18.6c-.2.21-.45.16-.66.29a.65.65,0,0,0-.36.43,1.36,1.36,0,0,1-.1.36,1.62,1.62,0,0,1-.17.32,1.94,1.94,0,0,1-.49.54s-.11.07-.13.11a2.35,2.35,0,0,1-.5.54,6.31,6.31,0,0,0-.58.44,3.55,3.55,0,0,1-1.51.65.65.65,0,0,1-.24,0,.36.36,0,0,1-.35-.31.48.48,0,0,1,.13-.47,1.52,1.52,0,0,1,.48-.31l.2-.09a1.07,1.07,0,0,0,.16-.14l.3-.32a1.31,1.31,0,0,1,.32-.3c.1,0,.15-.19.2-.3s.08-.17.13-.26a2,2,0,0,1,.14-.25c.05-.08.1-.16.16-.24a2,2,0,0,1,.17-.23,1.3,1.3,0,0,0,.35-.79.64.64,0,0,1,.07-.28,3.88,3.88,0,0,0,.22-.46c.07-.16.15-.31.21-.47a4.44,4.44,0,0,0,.36-2.3,5.21,5.21,0,0,1,0-.79,3,3,0,0,0,0-.31V75.1c0-.19,0-.39,0-.59s0-.4.08-.6,0-.25.05-.37a1.46,1.46,0,0,0,0-.51,1.69,1.69,0,0,0-.18-.47,15,15,0,0,1-.7-1.64,1.13,1.13,0,0,0-.33-.51,1,1,0,0,1-.22-.31,6,6,0,0,1-.39-.75,1.43,1.43,0,0,0-.52-.75.62.62,0,0,1-.17-.26,4.5,4.5,0,0,1-.22-.82,3.66,3.66,0,0,0-.22-.7,5,5,0,0,0-.35-.66,1,1,0,0,1-.25-.48,1.22,1.22,0,0,0-.37-.75c-.25-.27-.5-.54-.77-.79l-.38-.39-.39-.4a17.31,17.31,0,0,0-1.57-1.26.82.82,0,0,1-.32-.32,1.42,1.42,0,0,0-.61-.58c-.3-.16-.54-.4-.82-.58a.63.63,0,0,1-.26-.36.58.58,0,0,0-.22-.31,9.08,9.08,0,0,0-.88-.6l-.46-.25-.49-.2-.4-.16-.39-.18a3.72,3.72,0,0,0-.58-.24,4.34,4.34,0,0,1-.5-.2,2.11,2.11,0,0,0-.81-.28l-.07,0a5.66,5.66,0,0,0-1.05-.36l-.53-.16a5.55,5.55,0,0,1-.52-.2,3.37,3.37,0,0,0-.84-.23,7.38,7.38,0,0,1-1.23-.31,3.27,3.27,0,0,0-.54-.13,3.8,3.8,0,0,1-1-.29,1.83,1.83,0,0,0-.77-.15c-.45,0-.9-.08-1.35-.09a1.81,1.81,0,0,1-.76-.18c-.27-.12-.55-.2-.81-.32a6.38,6.38,0,0,0-1.29-.38,1.13,1.13,0,0,0-.32,0,2,2,0,0,1-1.07-.21.65.65,0,0,0-.23-.06c-.48,0-1-.1-1.45-.07-.26,0-.53.05-.8.06a3.57,3.57,0,0,1-.8,0,20.22,20.22,0,0,0-2.05.29,6.25,6.25,0,0,1-.62.16,1,1,0,0,1-.39,0c-.34-.05-.69,0-1,0a.82.82,0,0,0-.31,0C210.9,55.17,210.59,55.2,210.24,55.26Z"/><path class="cls-1" d="M181.19,53.93a2.16,2.16,0,0,0,.4-.12,3.68,3.68,0,0,1,.91-.23,6.25,6.25,0,0,1,1.06,0,8.74,8.74,0,0,1,.94.1,8,8,0,0,0,1.5.14c.32,0,.64,0,.95.09a1,1,0,0,1,.66.27,1.3,1.3,0,0,1,.27.5c.05.25-.19.48-.78.6s-1.08.21-1.66.3a17.15,17.15,0,0,1-1.85.17c-1.65,0-3.29.17-4.94.25-.32,0-.63,0-1,.08-1.83.2-3.66.29-5.48.57-.68.09-1.36.12-2,.17a15.16,15.16,0,0,0-1.86.27l-1.59.36-1.58.38-1.29.33-.65.17-.64.17c-.41.11-.8.23-1.19.36l-1.15.44-1,.39-1,.38c-.47.18-.95.34-1.43.51l-.89.29A10.23,10.23,0,0,0,153.59,62c-.33.22-.77.4-1.16.61a3.33,3.33,0,0,0-.83.35c-.27.15-.53.33-.8.49a2.19,2.19,0,0,0-.66.56,3.57,3.57,0,0,1-.48.47,4.28,4.28,0,0,1-.61.4,8.68,8.68,0,0,0-1.08.7c-.34.26-.68.53-1,.82a24.94,24.94,0,0,0-2.81,2.92,26.6,26.6,0,0,0-2.26,3.32c-.09.16-.18.32-.26.48-.42,1-.82,2-1.14,3a14.25,14.25,0,0,0-.58,3.1c0,.36,0,.71-.07,1.07s0,.72,0,1.07l.06,1v.08a.17.17,0,0,0,0,.07l0,.12.05.24.09.48.18.93-.28.12,0,0h0l-.06,0a2.13,2.13,0,0,0-.47.37c0-.1,0-.19-.16-.21a4.45,4.45,0,0,0-1.11.17c-.13,0-.25-.06-.37-.07h-.26a4.16,4.16,0,0,0-1.33.22,17.67,17.67,0,0,1-1.74.5,11.07,11.07,0,0,0-2.64.93,20.14,20.14,0,0,0-2.43,1.07c-.23.11-.47.22-.68.34-1.14.68-2.34,1.24-3.54,1.85-.84.43-1.69.9-2.49,1.36l-.14.08-.14.09-.3.18-.6.38-1.19.75a32.52,32.52,0,0,0-5.49,4.27,2.51,2.51,0,0,0-1,1.46,4.71,4.71,0,0,1-.68,1.31,4.46,4.46,0,0,1-.33.43c-.25.27-.5.54-.73.82l-.36.42-.34.41a5.46,5.46,0,0,0-.56.71c-.09.12-.18.25-.26.38l-.24.4a19.8,19.8,0,0,0-2.35,6.2c0,.3-.1.61-.13.91s0,.61,0,.91a11.4,11.4,0,0,0,.22,2.86,3.5,3.5,0,0,1,.11.61c0,.21.06.43.08.62a9.06,9.06,0,0,0,.58,2.36,14.89,14.89,0,0,0,1.11,2.18c.14.23.3.45.44.68s.3.45.44.69a4.76,4.76,0,0,0,.53.74,17.21,17.21,0,0,0,2.89,2.77c.34.22.67.52,1,.77.38.42.33.67.6,1a2.38,2.38,0,0,0,.93.77,19.51,19.51,0,0,1,2.72,1.59,2.61,2.61,0,0,0,.3.2c1,.44,1.85,1,2.85,1.44,1.2.5,2.2,1.09,3.32,1.58a2.45,2.45,0,0,1,.42.25c.35.22.44.41.26.54a1.31,1.31,0,0,1-1,.06,7.1,7.1,0,0,1-.76-.2,6.46,6.46,0,0,1-.73-.28,9.34,9.34,0,0,0-1.08-.43,12.8,12.8,0,0,1-2.19-.87,7.34,7.34,0,0,0-.9-.36,12.84,12.84,0,0,1-2.81-1.38,16.64,16.64,0,0,0-2-1.2,4,4,0,0,1-.66-.41,21.87,21.87,0,0,1-2.14-1.82,34,34,0,0,1-4.21-4.9c-.21-.31-.41-.63-.59-1a8.66,8.66,0,0,1-.48-1,16.09,16.09,0,0,1-1-3.37,11,11,0,0,1-.08-3.18c0-.31.06-.65.13-1s.07-.42.1-.63.07-.42.1-.64l0-.32,0-.32c0-.21,0-.42.06-.64a14.93,14.93,0,0,1,1.23-4.42c.1-.26.22-.49.31-.73s.18-.48.25-.72a4.76,4.76,0,0,1,.38-.89c.18-.32.35-.65.54-1l.29-.47c.1-.15.2-.31.31-.45a14.63,14.63,0,0,0,1.27-1.94,3.22,3.22,0,0,1,.47-.63,13,13,0,0,1,1.55-1.44l.62-.53.75-.65.76-.66.64-.57a5.3,5.3,0,0,1,1-.84,8.81,8.81,0,0,0,1.69-1.19c.71-.58,1.42-1.15,2.15-1.69l.56-.4.28-.2.3-.2c.39-.25.79-.48,1.19-.7,1.38-.93,3-1.65,4.37-2.51a4.28,4.28,0,0,1,1-.47,10.89,10.89,0,0,0,2-.81,22.32,22.32,0,0,1,2.38-1,3,3,0,0,1,1.08-.22,3.54,3.54,0,0,0,.91-.14c.52-.12,1-.23,1.58-.31.27,0,.54-.07.82-.09h.66a.93.93,0,0,1,.38.1.34.34,0,0,1,.17.21l0-.13a3.64,3.64,0,0,1-.15-.42,1.36,1.36,0,0,1,0-.17l0-.09v0s0,0,0,0c-.05-.54-.15-1.08-.16-1.62,0-.24,0-.48,0-.72s0-.48,0-.71.08-.74.12-1.11c0-.18,0-.37.06-.55l.06-.55a.69.69,0,0,1,0-.2l.07-.35.1-.34.17-.68c.06-.24.14-.46.21-.68s.13-.46.2-.68a14.27,14.27,0,0,1,1.17-2.58c.18-.31.35-.64.55-1l.27-.49.14-.24.15-.23.43-.68c.15-.23.31-.44.47-.66a13.63,13.63,0,0,1,1-1.23c.33-.33.64-.69,1-1s.62-.61,1-.89l.5-.41.25-.2.27-.18c.27-.17.53-.37.79-.57s.52-.41.78-.63a30,30,0,0,1,2.75-1.93,8.23,8.23,0,0,1,.86-.49c.29-.15.59-.27.89-.39l1-.37c.33-.11.66-.24,1-.33,1-.31,2.06-.7,3.1-1a5.7,5.7,0,0,0,.73-.25,9.08,9.08,0,0,1,2.55-.73,3.65,3.65,0,0,0,.55-.13c.56-.18,1.12-.33,1.68-.49s1.12-.3,1.68-.48l1.85-.55a16.88,16.88,0,0,1,1.9-.42c1.6-.45,3.29-.72,4.9-1.11.49-.13,1-.23,1.49-.33a6.46,6.46,0,0,1,1-.12c.83,0,1.69-.17,2.51-.11a7,7,0,0,0,.77,0L180,54Z"/><path class="cls-1" d="M140.88,123.51a.82.82,0,0,1-.43-.12,1.32,1.32,0,0,1-.55-.86,18,18,0,0,1-.21-3.57l.13-15.71a2.3,2.3,0,0,1,.14-.82,1.25,1.25,0,0,1,.14-.41,1.21,1.21,0,0,1,.73-.6,1,1,0,0,1,.56,0,.62.62,0,0,1,.57.27,2.62,2.62,0,0,1,.35,1.52c.06,5.48,0,11-.12,16.51a9.63,9.63,0,0,1-.42,3.09,1,1,0,0,1-.63.67A.75.75,0,0,1,140.88,123.51Z"/><path class="cls-1" d="M153.33,123.41a1.16,1.16,0,0,1-1.06-1A11.17,11.17,0,0,1,152,120c-.08-4.83,0-9.72.14-14.57l-.06-1.18a3.84,3.84,0,0,1,.18-1.48,1.1,1.1,0,0,1,.13-.44,1.15,1.15,0,0,1,.84-.58,1,1,0,0,1,.49,0c.2,0,.87.25.86,1.36-.07,4.48-.21,9-.43,13.5.11,1.84.18,3.69.19,5.53,0,.79-.41,1.33-1,1.35Z"/><path class="cls-1" d="M151.88,113.08c-3.47,0-7,0-10.42-.11a.63.63,0,0,1-.61-.62.57.57,0,0,1,.1-.34.62.62,0,0,1-.09-.27.58.58,0,0,1,0-.23.72.72,0,0,1,.2-.76.83.83,0,0,1,.63-.21l5.87.11c1.72-.06,3.45-.08,5.17-.05a.62.62,0,0,1,.61.62v1.23a.63.63,0,0,1-.18.45.67.67,0,0,1-.44.18Z"/><path class="cls-1" d="M162.6,123.3a.86.86,0,0,1-.43-.11,1.07,1.07,0,0,1-.5-1.15c0-.28.06-.56.11-.83a.7.7,0,0,1,.06-.35v0a22.62,22.62,0,0,1,1-3.21l.33-.9c.92-2.61,1.88-5.22,2.83-7.82l1.07-3c.1-.27.21-.54.33-.8s.17-.36.24-.54c.15-.39.3-.78.43-1.17l0-.14a1.51,1.51,0,0,1,.75-1,1.08,1.08,0,0,1,1.31.36,2,2,0,0,1,.32.68,9.14,9.14,0,0,0,.53,1.22,10.41,10.41,0,0,1,.5,1.07,9.91,9.91,0,0,1,.42,1.55l.07.33a45,45,0,0,0,1.74,5.54c1.11,3,2.25,6.18,2.21,9.5a.62.62,0,0,1-.35.55A.63.63,0,0,1,175,123a2,2,0,0,1-.53-.62,13.77,13.77,0,0,1-1.47-4.46c-.07-.34-.14-.68-.22-1a53.58,53.58,0,0,0-2.38-7.26l-1.14-3,0-.11c-.22.59-.46,1.17-.7,1.74l-.45,1.08-.21.54c-.19.57-.38,1.13-.56,1.69l-.57,1.83-.47,1.52c-.63,2.06-1.29,4.18-2,6.25-.16.43-.33.86-.52,1.28a1.4,1.4,0,0,1-.78.79A.79.79,0,0,1,162.6,123.3Z"/><path class="cls-1" d="M170.22,116.12c-1.71,0-3.43-.07-5.13-.2a.63.63,0,0,1-.57-.68.64.64,0,0,1,.68-.57,61.93,61.93,0,0,0,8.06.13.62.62,0,0,1,.65.59.63.63,0,0,1-.59.66C172.29,116.1,171.26,116.12,170.22,116.12Z"/><path class="cls-1" d="M172.68,117.24c-2.7,0-5.43-.08-8.13-.25a.63.63,0,0,1,0-1.25.6.6,0,0,1,.39-.12,47.82,47.82,0,0,0,7.18-.2c.91-.09,1.52.14,1.8.69a.61.61,0,0,1-.06.66A1.43,1.43,0,0,1,172.68,117.24Z"/><path class="cls-1" d="M184.34,122.78a1.27,1.27,0,0,1-1.14-1.06,7,7,0,0,1-.15-1.79l.07-17.48a.63.63,0,0,1,.63-.62h0a1,1,0,0,1,.44-.24,1.13,1.13,0,0,1,1.09.32,1.8,1.8,0,0,1,.41,1.24,159.59,159.59,0,0,1-.27,18.3c-.08,1.07-.69,1.28-.95,1.32Z"/><path class="cls-1" d="M187.23,114.16a7.67,7.67,0,0,1-1.85-.22,1.37,1.37,0,0,1-.9-.66.89.89,0,0,1,0-.66.38.38,0,0,1,0-.15.6.6,0,0,1,.63-.61l1,0a8.16,8.16,0,0,0,4-.45,4.83,4.83,0,0,0,2.4-5.17,2.11,2.11,0,0,0-.19-.57,2.9,2.9,0,0,0-1.55-1.18,9.89,9.89,0,0,0-4.33-.75,3,3,0,0,0-.83.13,4,4,0,0,0-1.28.85.65.65,0,0,1-.6.11.61.61,0,0,1-.41-.44,7.32,7.32,0,0,1-.23-2,1,1,0,0,1,.22-.67,1,1,0,0,1,.77-.34,18.7,18.7,0,0,1,5.19.08,7.23,7.23,0,0,1,4.63,2.75,3.94,3.94,0,0,1,.68,1.56,8.49,8.49,0,0,1-.18,2.82,3.81,3.81,0,0,1-.39,1,4.3,4.3,0,0,0-.28.65,4.34,4.34,0,0,1-.43,1l-.09.16a4.67,4.67,0,0,1-1.41,1.39A8.14,8.14,0,0,1,187.23,114.16Zm-2.93-11.28c0,.08,0,.17,0,.25a4.1,4.1,0,0,1,.55-.3Z"/><path class="cls-1" d="M187.68,114.1a4.73,4.73,0,0,1-.83-.07,3.58,3.58,0,0,1-.45-.09,3.94,3.94,0,0,0-.72-.11h-.11a1.4,1.4,0,0,1-1.14-.35.63.63,0,0,1,.9-.87s.12,0,.21,0h.15a4.37,4.37,0,0,1,1,.14l.39.08a5.59,5.59,0,0,0,3.14-.56,4.25,4.25,0,0,0,1.85-1.32,5.36,5.36,0,0,0,.79-1.34,7.32,7.32,0,0,0,.45-2,.62.62,0,0,1,1.24.13A8.26,8.26,0,0,1,194,110a6.7,6.7,0,0,1-.95,1.64,5.5,5.5,0,0,1-2.36,1.71A7.8,7.8,0,0,1,187.68,114.1Z"/><path class="cls-1" d="M202.94,122.78a1.28,1.28,0,0,1-1.14-1.06,7.47,7.47,0,0,1-.15-1.79l.08-17.48a.62.62,0,0,1,.62-.62h0a1,1,0,0,1,.44-.24,1.16,1.16,0,0,1,1.1.32,1.9,1.9,0,0,1,.41,1.24,161.9,161.9,0,0,1-.28,18.3c-.08,1.07-.69,1.28-.94,1.32Z"/><path class="cls-1" d="M205.84,114.16a7.76,7.76,0,0,1-1.86-.22,1.37,1.37,0,0,1-.9-.66.84.84,0,0,1,0-.66.39.39,0,0,1,0-.15.61.61,0,0,1,.64-.61l1,0a8.16,8.16,0,0,0,4-.45,4.8,4.8,0,0,0,2.4-5.17,2.11,2.11,0,0,0-.19-.57,2.91,2.91,0,0,0-1.54-1.18,9.91,9.91,0,0,0-4.34-.75,3,3,0,0,0-.83.13,4,4,0,0,0-1.28.85.63.63,0,0,1-.59.11.6.6,0,0,1-.42-.44,7.35,7.35,0,0,1-.23-2,1.14,1.14,0,0,1,.22-.66,1.07,1.07,0,0,1,.77-.34,18.39,18.39,0,0,1,5.2.08,7.21,7.21,0,0,1,4.62,2.75,3.83,3.83,0,0,1,.69,1.56,8.75,8.75,0,0,1-.19,2.82,4.27,4.27,0,0,1-.38,1,2.92,2.92,0,0,0-.28.65,5.15,5.15,0,0,1-.44,1,.6.6,0,0,1-.09.15,4.56,4.56,0,0,1-1.41,1.39A8.13,8.13,0,0,1,205.84,114.16Zm-2.94-11.28a2.11,2.11,0,0,0,0,.25,4.68,4.68,0,0,1,.54-.3Z"/><path class="cls-1" d="M206.28,114.1a4.62,4.62,0,0,1-.82-.07,3.58,3.58,0,0,1-.45-.09,4,4,0,0,0-.73-.11h-.11a1.38,1.38,0,0,1-1.13-.35.62.62,0,0,1,.89-.87s.13,0,.22,0h.14a4.38,4.38,0,0,1,1,.14l.38.08a5.64,5.64,0,0,0,3.15-.56,4.27,4.27,0,0,0,1.84-1.32,5.75,5.75,0,0,0,.8-1.34,7.74,7.74,0,0,0,.44-2,.62.62,0,0,1,1.24.13,8.64,8.64,0,0,1-.52,2.32,6.76,6.76,0,0,1-1,1.64,5.5,5.5,0,0,1-2.36,1.71A7.8,7.8,0,0,1,206.28,114.1Z"/><path class="cls-1" d="M229,112h0a1.63,1.63,0,0,1-1-.44l-2.21-1.79c-.29-.23-.58-.46-.85-.72a12.33,12.33,0,0,1-1.47-1.87l-.46-.66a34.89,34.89,0,0,1-2.52-3.58,1.07,1.07,0,0,1,0-1.37,1,1,0,0,1,.62-.32c1-.15,1.72.86,2,1.24a33.14,33.14,0,0,0,5,5.84l.13.12a6.3,6.3,0,0,1,1.79,2.24.64.64,0,0,1-.12.65.63.63,0,0,1-.23.16A.64.64,0,0,1,229,112Z"/><path class="cls-1" d="M228.71,112.53a.61.61,0,0,1-.39-.13.62.62,0,0,1-.1-.88l.06-.08-.09,0a.68.68,0,0,1-.44-.78.78.78,0,0,1,.65-.56.61.61,0,0,1,.06-.49,82.15,82.15,0,0,1,5.58-8.24,2.24,2.24,0,0,1,.72-.67,1.19,1.19,0,0,1,1.41.2,1.22,1.22,0,0,1,.3.67c0,.08,0,.16,0,.24a3.12,3.12,0,0,1-.85,2.13l-4.7,6.13c-.37.48-.73,1-1.1,1.43-.21.28-.43.55-.65.82A.62.62,0,0,1,228.71,112.53Z"/><path class="cls-1" d="M228.87,122.63h-.17a1.31,1.31,0,0,1-.88-.57,2.26,2.26,0,0,1-.27-1.24l0-10a.63.63,0,0,1,.63-.62h0a.61.61,0,0,0,1.07-.15.6.6,0,0,1,.64.59c.05,1.15.05,2.29,0,3.43l0,7.18a1.42,1.42,0,0,1-.41,1.14A1,1,0,0,1,228.87,122.63Z"/><path class="cls-1" d="M156.58,123.73h0a.63.63,0,0,1-.62-.63l0-20.92a.62.62,0,0,1,.62-.62h0a.63.63,0,0,1,.63.62l0,20.92A.63.63,0,0,1,156.58,123.73Z"/><path class="cls-1" d="M178.66,123.17a.63.63,0,0,1-.62-.55,22.8,22.8,0,0,0-.94-3.81c-1.67-5.41-3.4-11-5.24-16.44a.63.63,0,0,1,.39-.79.64.64,0,0,1,.8.39c1.84,5.46,3.57,11.06,5.24,16.47a23.15,23.15,0,0,1,1,4,.62.62,0,0,1-.54.7Z"/><path class="cls-1" d="M188.08,122.6h0a.63.63,0,0,1-.6-.65c.07-2,.07-4.07,0-6.09a.63.63,0,0,1,.8-.62,3.09,3.09,0,0,0,1.25,0,7.93,7.93,0,0,0,3.34-1.14,4.31,4.31,0,0,0,1.91-2.65.63.63,0,1,1,1.23.25,5.56,5.56,0,0,1-2.45,3.44,9.28,9.28,0,0,1-3.86,1.34,7.16,7.16,0,0,1-.94.07c.06,1.8.05,3.63,0,5.44A.63.63,0,0,1,188.08,122.6Z"/><path class="cls-1" d="M206.42,123.18h-.09a.62.62,0,0,1-.52-.71,36.4,36.4,0,0,0,.36-6.35.67.67,0,0,1,.2-.48.64.64,0,0,1,.49-.16,6.15,6.15,0,0,0,5.8-2.93,3.36,3.36,0,0,0,.42-1,.63.63,0,0,1,1.22.3,4.88,4.88,0,0,1-.56,1.31,7.45,7.45,0,0,1-6.3,3.58h0a37.37,37.37,0,0,1-.4,5.89A.63.63,0,0,1,206.42,123.18Z"/><path class="cls-1" d="M232.3,122.73a.62.62,0,0,1-.62-.6c-.12-3.11-.15-6.28-.09-9.4a2.94,2.94,0,0,1,.14-.92,2.57,2.57,0,0,1,.55-.81,59.23,59.23,0,0,0,5-6.58.63.63,0,0,1,.87-.18.64.64,0,0,1,.17.87,61.6,61.6,0,0,1-5.12,6.71,1.75,1.75,0,0,0-.32.43,1.85,1.85,0,0,0-.06.5c-.06,3.1,0,6.24.09,9.34a.62.62,0,0,1-.6.64Z"/></g></g></g></svg>