<svg xmlns="http://www.w3.org/2000/svg" viewBox="0 0 143.32 258.43"><defs><style>.cls-1{fill:#b29362;}.cls-2{fill:#fff;}</style></defs><g id="圖層_2" data-name="圖層 2"><g id="event"><g id="event_photo_deco_3"><path class="cls-1" d="M142.94,43.31a.38.38,0,0,1,.1.09c.16.18.24.21.24.11a.56.56,0,0,0,0-.13c0-.11,0-.16,0-.18s0-.05,0-.1a.72.72,0,0,0-.1-.26l-.28-.49a3.22,3.22,0,0,0-.43-.58c-.24-.22-.45-.4-.56-.37s-.27,0-.35.14a.09.09,0,0,1-.07,0c-.15,0-.19.22-.3.31s0,.16,0,.25,0,.16-.06.17a1,1,0,0,0-.22.13,1.06,1.06,0,0,0-.15.15c0,.05-.11.06-.2,0a.32.32,0,0,0-.19,0s-.06,0-.09.09,0,.07,0,.1-.05.17-.18.09-.07,0-.1,0c0,.17,0,.12-.08.14s-.07,0-.14-.1-.18-.14-.17-.07-.07.14-.14.16c-.23.05-.46.08-.58.29a.05.05,0,0,1,0,0c-.2,0-.27.21-.46.24s-.08.08-.11.14a.41.41,0,0,0-.09.22.28.28,0,0,1-.14.24s-.07,0-.14,0-.13,0-.15,0-.05.2-.17.14-.11.08-.19.09,0,0-.06,0-.23,0-.3.09a1.24,1.24,0,0,0-.18.14.57.57,0,0,0-.11.22,1.5,1.5,0,0,1-.25.61c0,.13-.08.06-.28-.18a.71.71,0,0,0-.29-.25s0,0,0,0a2,2,0,0,0,0,.28c0,.1,0,.16,0,.18l-.44.29a.19.19,0,0,1-.15,0c-.11,0-.15.06-.29,0s-.08,0-.08.06c0,.23-.17.22-.32.24s-.09,0-.11.07,0,.06,0,.06-.2.08-.38,0-.07,0-.11,0a4.9,4.9,0,0,0,.22.51c0,.13.06.21,0,.17s-.22-.05-.21.12,0,.05,0,.05-.06.21-.12.27,0,.34,0,.53l.05.14a1.59,1.59,0,0,0,.25.45.85.85,0,0,0,.26.29c.06,0,.1,0,.1-.06s0-.09,0-.09.16,0,.16-.07.06,0,.1,0,.21.06.25,0,.07-.1.2,0,.06,0,.08,0a1.07,1.07,0,0,0,.14-.16c.08-.16.24-.21.46-.13a.18.18,0,0,0,.18,0c0-.07.12-.11.17-.19a.67.67,0,0,0,0-.39c0-.06,0-.09,0-.15s0-.19.13-.15a.34.34,0,0,0,.37,0s.07,0,.16,0a.14.14,0,0,0,.11,0c.06,0,.13,0,.16-.06s.07-.1.22,0,.05,0,.06,0a.56.56,0,0,0,0-.29c0-.16,0-.33.1-.36s.09,0,.05-.1,0-.21.05-.21a1.43,1.43,0,0,0,.47,0c.19.08.25-.07.46,0,0,0,.07,0,.06-.06s0-.16.1-.14.12,0,.18-.06,0-.07,0-.18,0-.14,0-.16a.34.34,0,0,1,.36-.17.19.19,0,0,0,.17,0s.08,0,.12,0,.07,0,.09,0,.07-.1.17,0h0c.07-.15.29-.06.35-.23s.08-.07.14-.07.18,0,.22-.09.06,0,.09,0,.12-.05.12-.16.06-.09.13-.07.2,0,.3,0,.09,0,.09-.13a2.8,2.8,0,0,0,0-.29.91.91,0,0,1,.07-.34s0-.06,0,0,.12,0,.09-.22,0-.07,0-.07.12-.13.22-.13.27.05.31-.07c.18.05.26-.06.47,0a.77.77,0,0,0,.17.07s.07,0,.07,0,.1-.08.09-.22,0,0,0,0Z"/><path class="cls-1" d="M122.61,55.86l.1.08c.18.18.28.2.32.08a.52.52,0,0,0,.06-.15c0-.13,0-.18.1-.21a.21.21,0,0,0,.08-.12.5.5,0,0,0,0-.29c-.07-.17-.15-.34-.23-.51a1.78,1.78,0,0,0-.42-.6c-.27-.21-.52-.38-.69-.33a1.8,1.8,0,0,0-.62.25.22.22,0,0,1-.12,0c-.24.07-.39.31-.6.44s-.1.19-.14.3-.08.19-.16.22a2.32,2.32,0,0,0-.38.21,1.94,1.94,0,0,0-.29.21.45.45,0,0,1-.33.09.7.7,0,0,0-.29,0,.45.45,0,0,0-.16.12.83.83,0,0,0-.07.13c-.07.12-.14.22-.32.15s-.11,0-.16.07-.1.15-.18.18-.1,0-.17-.07-.22-.13-.24,0-.16.19-.28.23a2.15,2.15,0,0,0-1,.52l-.06,0c-.31.06-.49.33-.79.42-.1,0-.15.13-.22.21a.9.9,0,0,0-.21.29.63.63,0,0,1-.29.33.22.22,0,0,1-.21,0,.21.21,0,0,0-.25.09c-.06.13-.13.25-.3.22-.07.12-.2.14-.31.18a.16.16,0,0,1-.1,0,.63.63,0,0,0-.49.22c-.1.09-.21.14-.31.23a1.07,1.07,0,0,0-.24.31,2.87,2.87,0,0,1-.56.84c0,.15-.14.11-.36-.11a.61.61,0,0,0-.37-.2.05.05,0,0,0-.07,0,1.2,1.2,0,0,0-.12.35.33.33,0,0,1-.13.24l-.75.53a.47.47,0,0,1-.24.1c-.15,0-.23.13-.42.09s-.12,0-.14.11c-.08.28-.31.34-.54.42a.28.28,0,0,0-.18.14s0,.08-.09.09-.32.19-.57.15c-.07,0-.12,0-.17.06a3,3,0,0,0,.2.54c0,.13,0,.23,0,.2s-.32,0-.34.24c0,0,0,.06,0,.07s-.13.28-.24.38-.08.42-.11.65a.48.48,0,0,0,0,.15,1.17,1.17,0,0,0,.27.44c.14.15.25.24.33.24s.14,0,.15-.12a.15.15,0,0,1,.09-.13c.1,0,.22,0,.25-.16s.08,0,.14,0a.35.35,0,0,0,.37-.15.21.21,0,0,1,.3-.09.09.09,0,0,0,.11,0,1.14,1.14,0,0,0,.24-.25.83.83,0,0,1,.72-.35.35.35,0,0,0,.26-.1c.1-.11.22-.19.31-.31a.85.85,0,0,0,.13-.47c0-.07,0-.11,0-.18s.08-.25.22-.23a.82.82,0,0,0,.56-.19.21.21,0,0,1,.24,0,.14.14,0,0,0,.15,0,.53.53,0,0,0,.25-.12c.06-.08.13-.15.31-.05s.08,0,.1,0A.77.77,0,0,0,113,62a.65.65,0,0,1,.24-.47c.06,0,.13,0,.11-.14s0-.25.14-.28a2.68,2.68,0,0,0,.7-.19c.27,0,.4-.17.68-.12.07,0,.11,0,.11-.1s.09-.2.19-.2.2-.09.3-.14.06-.09,0-.21,0-.15,0-.18a.84.84,0,0,1,.59-.31.46.46,0,0,0,.26-.1.62.62,0,0,1,.19-.07.3.3,0,0,0,.16-.08c.07-.06.13-.13.26-.09h0c.15-.19.44-.15.59-.36a.32.32,0,0,1,.24-.13.53.53,0,0,0,.36-.17s.1,0,.15-.08.2-.1.24-.23.12-.12.22-.12a3.26,3.26,0,0,0,.45,0c.1,0,.15-.07.18-.17a3.58,3.58,0,0,0,.11-.35,1.12,1.12,0,0,1,.23-.42s0-.07.08-.07.22-.09.23-.29c0,0,0-.07,0-.08s.25-.18.4-.21.38,0,.49-.15c.25,0,.42-.13.7,0l.24,0a.1.1,0,0,0,.12,0c0-.13.18-.12.21-.28s0,0,.07-.07Z"/><path class="cls-1" d="M111.89,32.41H112c.25.06.36,0,.34-.14a.58.58,0,0,0,0-.18.24.24,0,0,1,0-.26.22.22,0,0,0,0-.16c0-.07-.07-.15-.18-.23l-.47-.32a1.48,1.48,0,0,0-.68-.27c-.35,0-.67,0-.8.16a2.34,2.34,0,0,0-.45.63.28.28,0,0,1-.08.12,3.49,3.49,0,0,0-.34.79.67.67,0,0,0,0,.37.42.42,0,0,1,0,.3,4.92,4.92,0,0,0-.26.43,2.59,2.59,0,0,0-.17.38.62.62,0,0,1-.27.29.62.62,0,0,0-.35.43.91.91,0,0,0,0,.17c0,.15,0,.29-.23.33s-.08.11-.12.17,0,.2-.09.28-.1,0-.2,0-.26,0-.24.11-.07.27-.16.38a2.85,2.85,0,0,0-.72,1.07.2.2,0,0,1,0,.08c-.27.24-.33.6-.58.86-.08.08-.09.22-.13.33a1.29,1.29,0,0,0-.08.4.75.75,0,0,1-.15.49.29.29,0,0,1-.18.16.23.23,0,0,0-.2.22c0,.16,0,.32-.21.38a.61.61,0,0,1-.23.34s0,.07-.09.09c-.23.09-.3.29-.39.48s-.15.25-.21.39a1.5,1.5,0,0,0-.12.44,3.39,3.39,0,0,1-.24,1.12c0,.16-.1.18-.4.08a.58.58,0,0,0-.43,0,.07.07,0,0,0-.06.07,1.9,1.9,0,0,0,0,.41.4.4,0,0,1-.05.31l-.55.91a.57.57,0,0,1-.2.21c-.14.1-.19.26-.39.31s-.11.1-.1.18c0,.32-.2.49-.4.68s-.13.13-.13.23a.17.17,0,0,1-.07.13c-.19.13-.26.35-.51.44-.08,0-.11.09-.16.14s.27.3.37.44.12.21,0,.23a.32.32,0,0,0-.27.41s0,.06,0,.07,0,.36-.13.51,0,.47.09.72c0,0,0,.09.08.13a1,1,0,0,0,.4.33c.18.09.32.13.4.09a.18.18,0,0,0,.12-.2.19.19,0,0,1,.06-.18c.09-.08.21-.14.2-.28s.08-.07.13-.09A.44.44,0,0,0,102,49a.28.28,0,0,1,.28-.24.11.11,0,0,0,.1-.06,1.92,1.92,0,0,0,.17-.39,1.18,1.18,0,0,1,.62-.72.45.45,0,0,0,.23-.24,3.22,3.22,0,0,0,.21-.46,1,1,0,0,0,0-.55c0-.07,0-.12,0-.19a.24.24,0,0,1,.14-.35,1.08,1.08,0,0,0,.5-.49.21.21,0,0,1,.23-.12.22.22,0,0,0,.16-.07.86.86,0,0,0,.21-.26.26.26,0,0,1,.29-.22c.06,0,.08,0,.09-.08a.91.91,0,0,0,0-.39.85.85,0,0,1,.08-.6c0-.06.11-.09,0-.21a.23.23,0,0,1,0-.34,3.87,3.87,0,0,0,.63-.58c.27-.13.33-.4.62-.51a.12.12,0,0,0,.07-.17.23.23,0,0,1,.11-.3c.13-.08.16-.2.24-.31s0-.12,0-.22a.17.17,0,0,1,0-.19,1.2,1.2,0,0,1,.45-.66.56.56,0,0,0,.22-.24.84.84,0,0,1,.15-.18,1,1,0,0,0,.13-.17.3.3,0,0,1,.21-.25s0,0,0,0c.07-.28.37-.42.42-.71a.47.47,0,0,1,.19-.27.81.81,0,0,0,.27-.39c0-.07.08-.11.11-.17a.52.52,0,0,0,.13-.37.25.25,0,0,1,.16-.24c.16-.1.27-.23.42-.34a.26.26,0,0,0,.09-.28,1.74,1.74,0,0,0,0-.39,1.46,1.46,0,0,1,0-.56s0-.09,0-.11.16-.22.09-.42c0,0,0-.08,0-.1a4.21,4.21,0,0,1,.28-.45c.15-.14.36-.24.39-.45.25-.15.34-.4.63-.51a1.46,1.46,0,0,0,.25-.13s.09-.06.08-.12.12-.22.07-.4a.14.14,0,0,1,0-.11Z"/><path class="cls-1" d="M99.13.65h.12c.25,0,.32,0,.24-.06L99.4.52c-.1-.05-.13-.08-.12-.11s0,0-.06-.07A.88.88,0,0,0,99,.25L98.41.11A5.1,5.1,0,0,0,97.69,0a1.46,1.46,0,0,0-.63.06c-.07.08-.15.16-.13.26s0,0,0,0,0,.21,0,.31.1.1.17.16.11.09.09.12a.61.61,0,0,0,0,.18.76.76,0,0,0,0,.15c0,.05,0,.09-.11.12a.22.22,0,0,0-.13.08s0,.06,0,.09l.06.07c.05.06.09.12-.06.14s0,0,0,.06c.16.07.06.09,0,.12a.28.28,0,0,1-.16,0c-.17,0-.23,0-.17,0s.06.11,0,.15-.24.26-.17.44a0,0,0,0,1,0,0c-.13.09,0,.25-.14.35s0,.08,0,.13a.34.34,0,0,0,.1.17.18.18,0,0,1,.08.2s0,.06-.1.06-.11,0-.08.09.11.14,0,.16c0,.06,0,.09,0,.13s0,0,0,0-.14.11-.14.19,0,.1,0,.16a.34.34,0,0,0,.08.18,1.08,1.08,0,0,1,.27.48c.1.07,0,.07-.31,0a1.05,1.05,0,0,0-.38,0s0,0,0,0a1.51,1.51,0,0,0,.18.18c.07.05.1.1.09.13s0,.25-.09.37a.12.12,0,0,1-.09.08c-.08,0,0,.1-.21.11s0,0,0,.08,0,.21,0,.28-.06,0,0,.09,0,0,0,0-.07.14-.26.16-.05,0-.07.06.36.15.5.22.19.1.11.1-.18.07-.06.17l0,0c-.09,0,.1.16.1.22s.23.21.37.33l.13.07a2.62,2.62,0,0,0,.48.17,1.13,1.13,0,0,0,.39.07s.07,0,0-.08,0-.06,0-.08.12,0,.06-.11,0,0,.08,0,.19,0,.15-.13,0-.09.14-.09.06,0,.06,0a.5.5,0,0,0,0-.17c0-.13,0-.23.23-.29s.11,0,.1-.09,0-.13,0-.2a.68.68,0,0,0-.26-.25l-.11-.08c-.13-.09-.12-.14,0-.15a.26.26,0,0,0,.23-.2s0,0,.15,0a.16.16,0,0,0,.1,0s.09-.06.07-.11,0-.09.17-.08,0,0,0,0a.61.61,0,0,0-.2-.18c-.13-.09-.21-.21-.19-.26s.07,0,0-.09-.15-.12-.11-.15.26-.13.29-.23c.19,0,.13-.16.33-.2,0,0,.06,0,0-.06s-.1-.11,0-.14.06-.08.08-.12,0,0-.14-.1-.12-.06-.12-.08a.19.19,0,0,1,.11-.27c.06,0,.09-.06.09-.1s0,0,.06-.08,0,0,0-.06,0-.09.07-.11h0c-.06-.12.15-.17.06-.3s0-.08.05-.11.11-.09.08-.16,0-.05,0-.07,0-.09,0-.15,0-.08,0-.11.14-.09.22-.13,0-.07,0-.12l-.22-.17c-.13-.09-.14-.16-.2-.23s0,0,0-.05,0-.09-.1-.17l0,0c0-.06,0-.14,0-.19s.22-.1.16-.19c.15-.05.12-.16.33-.2L99.18,1s0,0,0-.05,0-.1-.11-.17,0,0,0,0A.61.61,0,0,1,99.13.65Z"/><path class="cls-1" d="M94,20.51l.15-.06c.27-.05.37-.17.33-.36a1,1,0,0,0-.05-.23.47.47,0,0,1,0-.36.45.45,0,0,0,0-.23.38.38,0,0,0-.23-.22c-.17-.07-.34-.15-.52-.21a1.13,1.13,0,0,0-.74,0,1.39,1.39,0,0,0-.81.61,5.1,5.1,0,0,0-.37,1.08.68.68,0,0,1-.07.2,7.69,7.69,0,0,0-.25,1.25,1.29,1.29,0,0,0,.07.5.85.85,0,0,1,0,.45c-.08.23-.15.47-.21.71s-.09.4-.12.6a1.38,1.38,0,0,1-.23.53,1.52,1.52,0,0,0-.24.43,1.21,1.21,0,0,0-.06.34.91.91,0,0,0,0,.23.62.62,0,0,1-.19.57c-.08.07-.07.19-.1.28s0,.3-.05.43a.22.22,0,0,1-.2.15c-.19.05-.27.15-.23.28a.93.93,0,0,1-.11.59,6.36,6.36,0,0,0-.58,1.84.65.65,0,0,1,0,.13c-.24.46-.25,1-.46,1.46a1.77,1.77,0,0,0-.08.52,2.24,2.24,0,0,0,0,.58,1.68,1.68,0,0,1-.08.74.6.6,0,0,1-.17.31.52.52,0,0,0-.17.4.77.77,0,0,1-.15.63,1.36,1.36,0,0,1-.18.59,1.19,1.19,0,0,1-.08.16,1.69,1.69,0,0,0-.33.85c0,.22-.11.43-.15.64a3,3,0,0,0-.06.66,6.47,6.47,0,0,1-.06,1.65c.06.2-.07.3-.4.31a.62.62,0,0,0-.44.22.16.16,0,0,0,0,.12,2.7,2.7,0,0,0,.08.56.82.82,0,0,1,0,.44c-.14.51-.27,1-.41,1.52a1.65,1.65,0,0,1-.18.41c-.13.2-.15.44-.35.62a.3.3,0,0,0-.07.29A1.89,1.89,0,0,1,85,44.82a.72.72,0,0,0-.1.38.38.38,0,0,1,0,.21c-.18.28-.21.61-.46.87-.08.07-.09.18-.13.27s.33.26.45.4.16.23.06.31a.6.6,0,0,0-.21.69s0,.07,0,.1c-.14.22,0,.5,0,.74a2.13,2.13,0,0,0,.21.93.49.49,0,0,0,.11.14.7.7,0,0,0,.47.23.49.49,0,0,0,.43-.1.37.37,0,0,0,.09-.33.36.36,0,0,1,0-.27A.85.85,0,0,0,86,48.9c0-.07.06-.13.11-.19a1,1,0,0,0,.29-.64.52.52,0,0,1,.24-.46.24.24,0,0,0,.1-.15,6,6,0,0,0,.1-.61,2.53,2.53,0,0,1,.51-1.3,1,1,0,0,0,.2-.44c0-.25.11-.49.13-.74a1.48,1.48,0,0,0-.12-.73,2.17,2.17,0,0,0-.07-.24.47.47,0,0,1,.09-.55,2.1,2.1,0,0,0,.43-.92.41.41,0,0,1,.22-.29.35.35,0,0,0,.15-.17,1.66,1.66,0,0,0,.17-.45.46.46,0,0,1,.27-.45.16.16,0,0,0,.07-.16,1.4,1.4,0,0,0-.1-.51,1.54,1.54,0,0,1,0-.85c0-.1.1-.19,0-.3a.42.42,0,0,1,0-.49,7.16,7.16,0,0,0,.55-1.11c.26-.31.28-.71.56-1a.23.23,0,0,0,0-.26.46.46,0,0,1,.06-.47,1.86,1.86,0,0,0,.2-.54.25.25,0,0,0-.09-.27.25.25,0,0,1-.08-.23,2.59,2.59,0,0,1,.36-1.12,1.27,1.27,0,0,0,.19-.45,1.79,1.79,0,0,1,.13-.32,1.11,1.11,0,0,0,.1-.29.71.71,0,0,1,.18-.45.05.05,0,0,0,0,0c0-.41.32-.75.33-1.18a.93.93,0,0,1,.15-.45,2,2,0,0,0,.22-.67,1.08,1.08,0,0,1,.09-.29,1.18,1.18,0,0,0,.08-.56.58.58,0,0,1,.12-.42c.15-.21.25-.44.38-.66a.53.53,0,0,0,.06-.43,3.1,3.1,0,0,0-.11-.51,2.54,2.54,0,0,1,0-.77.31.31,0,0,1,0-.17.54.54,0,0,0,0-.61.18.18,0,0,1,0-.14c.1-.25.1-.52.22-.76a1.76,1.76,0,0,0,.34-.81c.24-.32.29-.7.58-1a2.17,2.17,0,0,0,.24-.29.31.31,0,0,0,.07-.2c0-.21.09-.37,0-.58a.29.29,0,0,1,0-.18C93.84,20.86,93.89,20.69,94,20.51Z"/><path class="cls-1" d="M66.55,27.57a1.35,1.35,0,0,1,.11-.09c.22-.14.26-.25.15-.34a.53.53,0,0,0-.14-.11.27.27,0,0,1-.19-.19.19.19,0,0,0-.1-.12.4.4,0,0,0-.29,0l-.56.08a1.59,1.59,0,0,0-.68.28c-.26.23-.48.45-.47.66a2.15,2.15,0,0,0,.1.76.32.32,0,0,1,0,.14,3.31,3.31,0,0,0,.28.8c0,.11.17.18.26.27a.36.36,0,0,1,.18.25,3.86,3.86,0,0,0,.1.49c0,.13.08.26.13.39a.58.58,0,0,1,0,.39.8.8,0,0,0,0,.34.54.54,0,0,0,.08.22,1.06,1.06,0,0,0,.1.12c.1.12.18.24.07.4s0,.14,0,.2c.19.06.12.17.14.27s0,.1-.12.16-.19.18-.1.25.13.24.14.38A2.73,2.73,0,0,0,66,34.8a.29.29,0,0,1,0,.09c0,.35.17.66.17,1a.62.62,0,0,0,.13.33,1,1,0,0,0,.21.34.84.84,0,0,1,.23.46.34.34,0,0,1,0,.24.24.24,0,0,0,0,.3c.09.12.19.25.1.42.1.12.07.26.07.4a.25.25,0,0,1,0,.12.78.78,0,0,0,0,.62c0,.14.06.29.11.42a1.23,1.23,0,0,0,.21.41,3.33,3.33,0,0,1,.59,1c.13.09.05.19-.24.32a.66.66,0,0,0-.32.29.07.07,0,0,0,0,.09,1.52,1.52,0,0,0,.28.29.44.44,0,0,1,.18.26c.07.34.15.69.22,1a.76.76,0,0,1,0,.3c0,.16,0,.31-.08.49s0,.14,0,.19a.9.9,0,0,1,.18.77.34.34,0,0,0,.05.26.19.19,0,0,1,0,.14c0,.22,0,.43-.09.66,0,.08,0,.14,0,.21a2.4,2.4,0,0,0,.57.07c.14,0,.23.08.17.16a.3.3,0,0,0,.08.48s0,0,0,0c0,.18.2.29.25.45s.35.32.55.47l.15,0a1.06,1.06,0,0,0,.52,0,.61.61,0,0,0,.36-.21.19.19,0,0,0,0-.23.16.16,0,0,1-.08-.16c0-.12.06-.24,0-.35s0-.1,0-.15a.46.46,0,0,0,0-.48.26.26,0,0,1,0-.36.11.11,0,0,0,0-.12,3,3,0,0,0-.14-.39,1.16,1.16,0,0,1,0-.95.53.53,0,0,0,0-.33,3.75,3.75,0,0,0-.17-.47.91.91,0,0,0-.39-.39,1.53,1.53,0,0,0-.16-.11.25.25,0,0,1-.13-.36,1.1,1.1,0,0,0,0-.69.23.23,0,0,1,.08-.25.19.19,0,0,0,.07-.16.69.69,0,0,0,0-.32.25.25,0,0,1,.07-.36A.08.08,0,0,0,70,41a.75.75,0,0,0-.29-.26.86.86,0,0,1-.36-.48c0-.07,0-.15-.1-.19s-.22-.16-.21-.27a4.15,4.15,0,0,0,.06-.85c.11-.28,0-.52.11-.8a.12.12,0,0,0-.06-.16.24.24,0,0,1-.13-.3,1,1,0,0,0,0-.39c0-.06-.07-.1-.19-.12s-.15-.06-.17-.1a1.2,1.2,0,0,1-.12-.79.62.62,0,0,0,0-.33,1.69,1.69,0,0,1,0-.23.71.71,0,0,0,0-.21.31.31,0,0,1,0-.32s0,0,0,0c-.14-.26,0-.56-.18-.81a.5.5,0,0,1,0-.32.8.8,0,0,0-.07-.46c0-.07,0-.14,0-.21a.5.5,0,0,0-.15-.35.26.26,0,0,1-.05-.29,4.81,4.81,0,0,0,.07-.53.29.29,0,0,0-.12-.27c-.1-.08-.19-.17-.31-.25a1.51,1.51,0,0,1-.35-.42s-.06-.07,0-.11,0-.27-.23-.36-.07,0-.07-.07c0-.18-.12-.34-.11-.52s.1-.42,0-.6c.08-.27,0-.51.11-.8a1.3,1.3,0,0,0,.1-.25c0-.06,0-.11,0-.15s-.07-.25-.23-.34,0-.07,0-.1S66.57,27.69,66.55,27.57Z"/><path class="cls-2" d="M36.71,229a39.41,39.41,0,0,1,3.07-5.1,19,19,0,0,1,6.29-6c1.46-.78,3.41-1.19,4.64-.09s1,3.15.51,4.76c-1.69,5.58-4.95,10.55-8.44,15.22a151.45,151.45,0,0,1-15.65,17.82c2.08-12-4.45-24.65-1.26-36.46a3.49,3.49,0,0,1,1.07-2,2.48,2.48,0,0,1,2.91.21A6.26,6.26,0,0,1,31.61,220a29.71,29.71,0,0,1,2.07,17.18A39.07,39.07,0,0,1,36.71,229Z"/><path class="cls-2" d="M97,210.48a20.26,20.26,0,0,1,3-6.07,10,10,0,0,1,4.22-3.55,4.59,4.59,0,0,1,6.52,5.18,10.79,10.79,0,0,1-1.87,4.33,65.68,65.68,0,0,1-6.85,8.07,125.14,125.14,0,0,0-8.72,10.64Q91.19,221,89,212.86c-1.08-4.09-2.16-8.37-1.21-12.49a2,2,0,0,1,.52-1.1c.88-.8,2.23.19,2.92,1.16a26.46,26.46,0,0,1,4.85,15.15A20,20,0,0,1,97,210.48Z"/><path class="cls-1" d="M40.76,224.09a3.24,3.24,0,0,0-.12.37,3.46,3.46,0,0,1-.84,1.63,6.35,6.35,0,0,1-.55.67,5.55,5.55,0,0,0-.82,1.13c-.15.26-.32.51-.49.75a.86.86,0,0,1-.54.42,1.9,1.9,0,0,1-.63,0c-.28-.08-.42-.4-.31-1a10,10,0,0,1,1.24-3.32,24.08,24.08,0,0,1,2.95-4.07l.66-.73a14.14,14.14,0,0,1,2.18-1.91c.41-.28.81-.55,1.24-.79l.65-.35c.22-.11.47-.23.71-.33a5.7,5.7,0,0,1,2.33-.41,6.57,6.57,0,0,1,1.14.14,4.74,4.74,0,0,1,1.16.44,3.38,3.38,0,0,1,1.44,1.55,4,4,0,0,1,.31,1,5.15,5.15,0,0,1,.08.95,8.83,8.83,0,0,1-.53,2.82c-.27.79-.51,1.57-.74,2.36a17.74,17.74,0,0,1-.72,2,13.18,13.18,0,0,1-.69,1.35c-.15.28-.32.54-.49.8l-.35.56c-.12.18-.23.36-.34.55a9.23,9.23,0,0,0-.58,1.18,9,9,0,0,1-.67,1.13,7,7,0,0,0-1.06,1.49,2.65,2.65,0,0,0-.36.8,2.61,2.61,0,0,1-.68,1.23,19.27,19.27,0,0,0-1.58,2.08A65.85,65.85,0,0,1,38.7,245c-.12.14-.25.28-.36.43-1.33,1.74-2.87,3.3-4.3,5-.48.56-1,1.08-1.57,1.6l-.88.84-.44.41-.49.42-1.93,1.79c-.62.59-1.24,1.2-1.87,1.81l-.61.61-.31.31a.58.58,0,0,1-.13.11l-.12.1c0-.24,0-.48.06-.7s0-.46.05-.72.06-.56.1-.86.09-.61.14-.93l.08-.48.06-.45a22.32,22.32,0,0,0,.31-2.53c0-.22,0-.44,0-.67s0-.45-.06-.67a14.29,14.29,0,0,0-.1-2.53c0-.24,0-.49-.08-.72-.25-1.24-.35-2.51-.5-3.79-.11-.91-.26-1.82-.37-2.73s-.25-1.84-.32-2.75L24.54,231a2.42,2.42,0,0,0-.44-1.72,3.54,3.54,0,0,1-.45-1.44,2.16,2.16,0,0,1,0-.57,20.73,20.73,0,0,1,.24-2.24l.15-.92c0-.31.07-.63.11-1a23.83,23.83,0,0,1,.57-3.43l.21-.84a7.89,7.89,0,0,1,.29-.91,4.39,4.39,0,0,1,.53-1,3,3,0,0,1,.94-.82,3.26,3.26,0,0,1,1.33-.38,4.1,4.1,0,0,1,1.27.13,3.72,3.72,0,0,1,.93.38A4.83,4.83,0,0,1,31,217a11.67,11.67,0,0,1,1.16,1.36,4.33,4.33,0,0,1,.62,1.28c.52,1.65,1.16,3.25,1.64,4.92l.12.42.1.42a7.94,7.94,0,0,1,.15.85,6.06,6.06,0,0,0,.15.95c.31,1.37.38,2.81.58,4.19a10,10,0,0,1,0,1.35c-.12.59-.42.69-.59,1.12a2.52,2.52,0,0,0-.23,1.21,9.14,9.14,0,0,1,0,1.17,11.39,11.39,0,0,1-.21,1.14L32.87,237a5.82,5.82,0,0,1,.3-.79,2.37,2.37,0,0,0,.13-.34,19.46,19.46,0,0,1,1.13-3,15.75,15.75,0,0,1,1.81-3.11,1.59,1.59,0,0,1,.33-.35c.29-.28.5-.31.62-.11a1.16,1.16,0,0,1,0,.95,7,7,0,0,1-.6,1.31,5.46,5.46,0,0,0-.45,1,19.82,19.82,0,0,1-.72,2,3.73,3.73,0,0,0-.21.86c-.11.67-.25,1.33-.42,2L32.58,237c0-.27.09-.53.15-.8a6,6,0,0,0,.13-2.11,4,4,0,0,1,0-.69l0-.63v-.62c0-.41,0-.83,0-1.24a17,17,0,0,0-.23-2.85,15.06,15.06,0,0,0-.69-2.74c-.11-.31-.2-.61-.3-.92s-.19-.61-.28-.93c-.28-1-.64-1.9-1-2.83a11.84,11.84,0,0,0-1-2.21,1.69,1.69,0,0,0-.2-.25L29,218a1.26,1.26,0,0,0-.77-.34.93.93,0,0,0-.71.2,1.63,1.63,0,0,0-.37.5,4.14,4.14,0,0,0-.28.78c-.08.3-.15.65-.23,1l-.12.5-.1.5a4.32,4.32,0,0,0-.09,1.38,5,5,0,0,1,0,.86l0,.49v.49l-.05,1a7.63,7.63,0,0,0,0,1.06,3.43,3.43,0,0,0,.15,1,2.25,2.25,0,0,1,.05.7c0,.66-.06,1.29-.11,1.92a17.11,17.11,0,0,0,.11,3.41,4.54,4.54,0,0,1,.11,1.25,5.71,5.71,0,0,0,.15,2c.34,1.69.75,3.36,1,5.1.4,1.54.52,3.2.85,4.78a4.25,4.25,0,0,1,.07,1.12,9,9,0,0,0,0,2.07,10.29,10.29,0,0,1,.05,1.24c0,.21,0,.42,0,.63v.37c0,.07-.05.15-.18.34a1.23,1.23,0,0,0-.19.47l-.13.71s0,.07,0,.09l.06-.06.14-.13.27-.29a6.71,6.71,0,0,0,.5-.61l.11-.16,0,0h0l0,0,.17-.18c.23-.25.46-.5.7-.74s.66-.73,1-1.1.57-.65.86-.95a10.57,10.57,0,0,0,1.33-1.52l.11-.15c1.21-1.22,2.19-2.64,3.39-3.89a17.9,17.9,0,0,0,1.27-1.58c.58-.79,1.16-1.57,1.81-2.32.28-.32.52-.69.78-1a22.42,22.42,0,0,1,1.5-1.85,8.82,8.82,0,0,0,1.06-1.48c.53-.88,1.1-1.76,1.61-2.65a11.13,11.13,0,0,1,1-1.49c.21-.25.41-.51.6-.77l.6-.76a21.11,21.11,0,0,0,1.63-2.57,4.88,4.88,0,0,0,.32-.65,10.64,10.64,0,0,1,1.08-2.25,3.05,3.05,0,0,0,.23-.48c.09-.26.17-.52.25-.78s.18-.52.25-.78a5.93,5.93,0,0,0,.27-1.55,4.44,4.44,0,0,0-.06-.83,3.37,3.37,0,0,0-.23-.74,2.45,2.45,0,0,0-.4-.59,2.35,2.35,0,0,0-.54-.45A3.24,3.24,0,0,0,48,218a4.67,4.67,0,0,0-1,.38,4.17,4.17,0,0,0-.46.26l-.45.32c-.35.28-.71.57-1.05.87l-.32.28-.34.26c-.63.4-1.14,1-1.73,1.46a2.65,2.65,0,0,0-.49.51C41.66,222.88,41.23,223.44,40.76,224.09Z"/><path class="cls-1" d="M99.77,206.37a2.15,2.15,0,0,0,0,.31,2.17,2.17,0,0,1-.46,1.33,5.71,5.71,0,0,1-.38.54,2.93,2.93,0,0,0-.53.93,4.92,4.92,0,0,1-.3.61.69.69,0,0,1-.41.37,2,2,0,0,1-.6,0c-.29,0-.5-.28-.52-.76a6.15,6.15,0,0,1,.5-2.81,15.28,15.28,0,0,1,2-3.46l.48-.62a9.93,9.93,0,0,1,3.73-2.91,4.74,4.74,0,0,1,1.81-.38,15.76,15.76,0,0,1,1.68,0,5.32,5.32,0,0,1,2.78.94,4.89,4.89,0,0,1,1.56,1.91,9.47,9.47,0,0,1,.66,2.1,5.47,5.47,0,0,1,0,1.85,6.61,6.61,0,0,1-.35,1.27c-.1.25-.23.48-.35.72a15,15,0,0,0-1,1.92,4.66,4.66,0,0,1-.55.89,4.67,4.67,0,0,0-.91,1.15,1.69,1.69,0,0,0-.29.63,1.74,1.74,0,0,1-.57,1,12.46,12.46,0,0,0-1.39,1.52c-1.38,1.68-2.79,3.27-4.28,4.76-.1.1-.2.21-.29.32-1,1.32-2.23,2.5-3.23,3.85-.34.46-.75.87-1.13,1.3s-.82,1-1.26,1.37l-.21.21-.1.11a.38.38,0,0,0-.08.09l-.08.1c-.23.26-.45.53-.66.8-.43.54-.84,1.1-1.26,1.67s-.64.86-1,1.39c0-.08-.07-.18-.11-.26a13.9,13.9,0,0,1-.67-2.36c-.14-.66-.27-1.29-.42-1.89l-.11-.43c0-.09,0-.17-.07-.26a5.38,5.38,0,0,0-.2-.51,14.39,14.39,0,0,0-.53-1.95c-.06-.19-.11-.38-.18-.56a17.05,17.05,0,0,1-.85-2.91c-.17-.71-.37-1.41-.53-2.12s-.33-1.41-.44-2.12c-.26-1.75-.58-3.49-1-5.26a1.52,1.52,0,0,0-.59-1.27,2.46,2.46,0,0,1-.6-1,1.57,1.57,0,0,1-.09-.43c0-.3,0-.6,0-.9s0-.59,0-.88,0-.5,0-.75,0-.49,0-.75a17.12,17.12,0,0,1,.07-2.77c0-.23.06-.46.09-.69s0-.23,0-.35l.07-.34c0-.24.08-.45.15-.71l0-.1,0-.13a2,2,0,0,1,.1-.26,2.77,2.77,0,0,1,.26-.48,2,2,0,0,1,.41-.45l.24-.18a2.2,2.2,0,0,1,.26-.15,2.39,2.39,0,0,1,1.18-.19,2.83,2.83,0,0,1,1,.27l.19.1.17.1.32.21a11,11,0,0,1,1.1,1l.1.11.09.1.15.22a4.49,4.49,0,0,1,.26.47c.6,1.24,1.33,2.37,2,3.58a6.29,6.29,0,0,1,.54,1.25,5.08,5.08,0,0,0,.26.71c.46,1,.75,2.09,1.17,3.11a8,8,0,0,1,.28,1c0,.48-.28.61-.37,1a1.58,1.58,0,0,0,0,1,5.32,5.32,0,0,1,.23,2.47,1,1,0,0,0,0,.29,4.39,4.39,0,0,1,0,.72l-1.42,0c.06-.6.22-1.17.31-1.77a9,9,0,0,1,1-2.67,1.78,1.78,0,0,1,.23-.31c.22-.24.42-.28.58-.13a.87.87,0,0,1,.19.75,4.52,4.52,0,0,1-.26,1.07,2.61,2.61,0,0,0-.19.79,15.65,15.65,0,0,1-.17,1.65,2.18,2.18,0,0,0,0,.67h0l-2,0c-.07-.36-.11-.72-.15-1.08s0-.73-.06-1.1a5.69,5.69,0,0,0-.06-.83,4.25,4.25,0,0,0-.24-.79,2.1,2.1,0,0,1-.15-.52l-.07-.48-.09-.47-.09-.48-.1-.47a12.35,12.35,0,0,0-1.6-4.1c-.14-.22-.26-.43-.38-.65s-.24-.44-.35-.67-.36-.69-.54-1-.39-.68-.59-1l-.27-.48-.12-.24-.1-.19a6.54,6.54,0,0,0-.45-.71,1.46,1.46,0,0,0-.16-.19.42.42,0,0,1-.11-.14.4.4,0,0,0-.38-.16.37.37,0,0,0-.3.29,1.41,1.41,0,0,0,0,.18.54.54,0,0,1,0,.11l0,.17c0,.25-.07.51-.11.76s-.06.52-.08.78,0,.52-.06.78a2.47,2.47,0,0,0,.11,1,1.41,1.41,0,0,1,.07.31c0,.11,0,.23,0,.34l.09.75c0,.25.06.5.08.75a5.27,5.27,0,0,0,.1.81,2.36,2.36,0,0,0,.28.75,2,2,0,0,1,.13.53,12.84,12.84,0,0,1,.08,1.51,11.82,11.82,0,0,0,.4,2.64,2.89,2.89,0,0,1,.19,1,3.65,3.65,0,0,0,.24,1.51c.42,1.29.9,2.55,1.26,3.86.47,1.15.71,2.42,1.21,3.56a2.18,2.18,0,0,1,.19.83,4.53,4.53,0,0,0,.34,1.54c.11.3.2.6.28.9l.12.46a.94.94,0,0,0,0,.09c0,.05,0,.13-.08.32a.81.81,0,0,0,0,.42c0,.16,0,.34.09.48a5.81,5.81,0,0,0,.68-1,.57.57,0,0,1,0-.07l.06-.09.11-.16.23-.33a7.25,7.25,0,0,1,.49-.64c.24-.3.46-.63.69-.94s.41-.55.63-.81a8,8,0,0,0,1-1.26l.08-.12c.94-1,1.7-2.14,2.69-3.09a12.36,12.36,0,0,0,1.07-1.2,16.93,16.93,0,0,1,1.56-1.72c.24-.23.45-.5.68-.75A14.75,14.75,0,0,1,105,213.7a4.69,4.69,0,0,0,.91-1.07c.44-.67.91-1.31,1.31-2a6,6,0,0,1,.83-1.09c.33-.37.64-.75.94-1.12a5.9,5.9,0,0,0,1-2,1.81,1.81,0,0,0,.12-.51c0-.62,0-1.18.1-1.77a1,1,0,0,0,0-.39,6,6,0,0,0-.45-1.08,2.86,2.86,0,0,0-.76-.86,3.44,3.44,0,0,0-1.13-.53,10,10,0,0,0-1.26-.25,6.51,6.51,0,0,0-1.63.3,4.1,4.1,0,0,0-1.43.82c-.25.23-.49.47-.73.71a3.27,3.27,0,0,1-.47.44c-.47.32-.81.82-1.26,1.18a1.78,1.78,0,0,0-.35.42C100.38,205.39,100.08,205.85,99.77,206.37Z"/><path class="cls-2" d="M.05,119.73A65.63,65.63,0,0,1,6.38,94.51C13.17,80.18,26.7,69.26,41.87,64.9a53.18,53.18,0,0,1,24.95-1A54,54,0,0,1,89.36,74.5a60.81,60.81,0,0,1,16.36,19.16A72.81,72.81,0,0,1,111,106a74.91,74.91,0,0,1,2.76,13.44,63.81,63.81,0,0,1-1.94,25.31,58.14,58.14,0,0,1-12.45,22.59A55.7,55.7,0,0,1,90,175.51a50.69,50.69,0,0,1-11,5.75,46.74,46.74,0,0,1-12.31,2.81,47.37,47.37,0,0,1-12.69-.58c-1.13-.18-2.26-.41-3.37-.68-1.59-.15-3.19-.36-4.79-.61a49.71,49.71,0,0,1-12.72-4.08A43.45,43.45,0,0,1,24.71,173a57.8,57.8,0,0,1-9.08-8.32A66.18,66.18,0,0,1,3.39,143.24,55.27,55.27,0,0,1,.9,132.86,69.56,69.56,0,0,1,.05,119.73Z"/><path class="cls-1" d="M13.16,163.36c.14.18.43.53.61.8a8.8,8.8,0,0,0,.67.87c.24.28.5.58.79.86s.61.57.94.85.7.56,1.07.84l.47.35.49.34c.32.22.64.44.94.62.51.29,1,.61,1.54.93l1.61,1,1,.59,1,.53a4.28,4.28,0,0,0,1.57.54,2.22,2.22,0,0,0,.89-.17c.26-.2-.11-.68-1.26-1.49l-.79-.58-.41-.29-.39-.3-.82-.61-.81-.63c-.57-.41-1.11-.87-1.7-1.32l-.88-.7-.45-.36-.45-.37a40.11,40.11,0,0,1-4.28-4.06A40.65,40.65,0,0,1,10.92,157l-.32-.47-.29-.49c-.2-.32-.39-.65-.58-1L9,153.59c-.24-.5-.49-1-.73-1.49-.12-.25-.25-.49-.36-.74l-.34-.76-.33-.76c-.11-.25-.23-.5-.33-.76l-.6-1.54c-.11-.25-.2-.51-.29-.77L5.7,146c-.38-1-.66-2.11-1-3.17-.2-.81-.42-1.6-.65-2.39s-.41-1.59-.6-2.39-.3-1.46-.44-2.2-.22-1.5-.32-2.28c-.26-2.61-.41-5.25-.44-7.88v-1.62l0-1.63v-.81l0-.81.07-1.62a56.07,56.07,0,0,1,.64-6c.27-1.65.57-3.33.91-5,.25-1.2.5-2.4.79-3.59.08-.37.18-.73.27-1.1s.18-.73.28-1.1a31.18,31.18,0,0,1,1-3c.09-.25.19-.49.29-.74s.21-.48.33-.72c.22-.48.46-1,.71-1.44l.16-.33.18-.33.37-.71c.24-.48.48-1,.73-1.45a21.51,21.51,0,0,1,1-1.94,9.77,9.77,0,0,1,.63-1c.21-.32.43-.63.64-.94a8.85,8.85,0,0,1,1.35-1.61c.37-.35.73-.76,1.11-1.19a17.69,17.69,0,0,0,1.15-1.37c.16-.21.31-.43.48-.63l.53-.59L17,83.3c.36-.38.76-.73,1.14-1.1l.59-.55c.19-.18.39-.37.6-.54.64-.54,1.28-1.09,1.93-1.62l2-1.53,2.08-1.43c.71-.46,1.43-.89,2.14-1.34a64.35,64.35,0,0,1,9-4.45l.64-.25.32-.13.32-.1,1.92-.61c.32-.1.64-.19,1-.27l1-.27,1-.27,1-.23,1-.23c.33-.08.65-.17,1-.22l2-.38c.33-.07.66-.11,1-.16l1-.15,1-.14,1-.1c.67-.06,1.34-.13,2-.17L54.94,67l.69,0,.34,0h.35l1.38-.05c.46,0,.92,0,1.38,0,2,0,4,0,5.94.13l1.94.12,1.93.21c.65.07,1.29.19,1.94.29s1.29.19,1.94.33l1.8.38c.6.13,1.17.3,1.75.47l1.09.32,1.09.32c.74.22,1.49.4,2.23.61a36.71,36.71,0,0,1,6.48,2.29,37.76,37.76,0,0,1,5.73,2.85c.52.32,1.07.64,1.54,1C95.78,77,97,78,98.26,79a42.64,42.64,0,0,1,3.48,3.25,50.77,50.77,0,0,1,4.36,5.32c.33.46.66.93,1,1.41s.63,1,.94,1.45l.47.72c.16.24.31.48.45.73l.88,1.46a56.51,56.51,0,0,1,3.74,7.56c.13.33.27.65.4,1l.36,1,.36,1c.12.33.25.66.34,1,.21.68.42,1.36.62,2,.11.34.19.69.28,1l.26,1c.13.45.26.87.34,1.27s.14.78.18,1.13a9.19,9.19,0,0,1,.07,1,5,5,0,0,1,0,.88,9,9,0,0,0,0,1.58c0,.31,0,.64.06,1s0,.67,0,1a12.53,12.53,0,0,0,.12,1.35c.2,1.78.34,3.61.43,5.35,0,.37,0,.74,0,1.12s0,.74,0,1.12c0,.75,0,1.51-.1,2.28l-.19,2.07-.28,2.06c-.08.69-.21,1.37-.34,2.05l-.19,1-.09.51-.12.5-.48,2c-.07.34-.18.67-.27,1l-.29,1-.28,1-.34,1c-.22.65-.43,1.31-.67,2s-.57,1.44-.85,2.15c-.14.36-.31.71-.47,1.06s-.33.69-.49,1l-.39.82-.42.82-.84,1.63c-.3.53-.61,1.06-.92,1.58s-.62,1-1,1.53c-.56.77-1.15,1.84-1.7,2.69a48,48,0,0,1-7.86,9.54l-.74.72-.77.68-.75.7c-.25.23-.5.48-.76.7-.55.5-1.16,1-1.75,1.48a42,42,0,0,1-8.47,5.25c-.91.4-1.9.86-2.87,1.23a8.86,8.86,0,0,0-1.3.74,10.61,10.61,0,0,1-1.08.67,13.54,13.54,0,0,1-1.3.52l-.72.22c-.24.07-.51.11-.78.16-2.55.42-5,.81-7.6,1.14-.29,0-.6.09-.88.1-2.68.07-5.16.24-7.78.07-3.17-.22-6-.36-8.9-.75-.42-.05-.78-.07-1.15-.09-1-.06-1.33.05-1,.31a5.33,5.33,0,0,0,2.13.83c.61.14,1.23.27,1.85.38s1.25.18,1.87.25l1.38.13.7.09.71.08,1.4.17,1.41.13.71.05.71,0c.47,0,1,0,1.43,0s.75,0,1.15,0,.8,0,1.18,0a34.57,34.57,0,0,0,7.55-.52c1.86-.36,3.75-.73,5.57-1.12.27-.05.58-.12.89-.21l.92-.29A35.22,35.22,0,0,0,88,178.32a61.84,61.84,0,0,0,6.43-4.21c1-.75,2-1.57,3-2.35.25-.19.49-.4.73-.61l.71-.62.72-.62.36-.3.35-.33c.64-.6,1.27-1.19,1.89-1.8s1.18-1.28,1.76-1.94.87-1,1.3-1.58l.64-.78c.22-.27.41-.55.62-.82l1.21-1.63,1.12-1.68.52-.8c.17-.26.32-.54.48-.81l.93-1.62c.16-.27.29-.55.42-.82s.27-.55.41-.82l.39-.82c.13-.27.26-.54.37-.81.28-.68.61-1.41.88-2.08.1-.22.19-.46.27-.69l.28-.7c.18-.47.38-.94.58-1.4.38-.94.76-1.89,1.18-2.82a50.82,50.82,0,0,0,3-10.46l.18-.94c.06-.31.1-.62.15-.92.1-.6.22-1.18.36-1.76a8,8,0,0,0,.18-1.09c0-.39.1-.8.14-1.19s.1-.87.12-1.31l.07-1.31c0-.44,0-.88.07-1.32s0-.87,0-1.31l0-1.43v-.35l0-.35,0-.7c0-.46,0-.91,0-1.36,0-.23,0-.45,0-.68v-.67c0-.48-.08-1.25-.15-1.86a41.41,41.41,0,0,0-1-5c-.25-1.07-.71-2.62-1.14-4.2-.25-.78-.49-1.57-.72-2.31-.1-.37-.23-.72-.35-1l-.31-.93-.26-.8-.13-.4-.15-.39c-.21-.52-.42-1-.64-1.45s-.35-.7-.54-1.06-.37-.72-.54-1.1-.35-.76-.52-1.15-.38-.78-.57-1.19l-.71-1.49c-.24-.5-.51-1-.77-1.47s-.51-1-.78-1.46L109.5,89c-.56-1-1.16-1.89-1.79-2.8s-1.29-1.82-2-2.69a38.05,38.05,0,0,0-4.1-4.63c-.76-.72-1.53-1.42-2.33-2.09s-1.61-1.31-2.43-1.92l-.58-.42c-.19-.14-.4-.27-.6-.4a11.6,11.6,0,0,0-1.23-.69L89.8,71a49,49,0,0,0-5.74-2.34c-.48-.16-.93-.3-1.35-.41A10,10,0,0,0,81.52,68c-.3,0-.64-.11-1-.19s-.73-.16-1.12-.27a109.2,109.2,0,0,0-12.53-2.46c-.86-.11-1.72-.2-2.58-.29s-1.74-.11-2.62-.16l-1.89,0-1,0c-.31,0-.63,0-1,0H56.2c-.55,0-1.11.06-1.65.09l-1.31.1c-.44,0-.87.09-1.3.13-.86.08-1.73.14-2.58.23l-.47,0-.82.14-.82.13-1.64.31-.82.15L44,66.1l-1.63.37c-.54.12-1.07.28-1.61.42s-1.08.28-1.61.46l-1.59.53-.79.28-.78.31c-.39.17-.79.33-1.2.49l-.61.23-.61.27L32.33,70c-.41.17-.81.33-1.2.53l-1.72.83-.43.21-.42.23-.83.46c-1.13.6-2.19,1.31-3.26,2-.24.15-.46.31-.69.47l-.69.48c-.45.32-.93.63-1.37,1l-1.23,1c-.41.32-.82.63-1.21,1l-1.15,1-.57.53L17,80.2c-.26.28-.54.56-.81.84s-.57.53-.84.83c-.54.57-1.1,1.13-1.67,1.7s-.9,1-1.35,1.51c-.22.25-.45.5-.66.76l-.63.8-.63.8c-.2.27-.42.53-.61.81L8.65,89.91c-.24.33-.44.69-.65,1l-.6,1a21.8,21.8,0,0,0-1.05,2.11l-.53,1.16-.46,1.2-.45,1.19c-.16.39-.27.79-.4,1.18-.38,1.24-.76,2.51-1.1,3.8s-.64,2.59-.89,3.89c-.12.61-.23,1.27-.36,1.85a32.37,32.37,0,0,0-.8,6.39,13,13,0,0,1-.08,1.37c-.28,2.81-.36,5.63-.42,8.47A58.29,58.29,0,0,0,1.24,134l.15,1.51c0,.25.05.5.09.76l.1.76c.08.5.15,1,.23,1.51l.28,1.52.14.75c0,.25.11.5.16.75l.33,1.5c.11.5.25,1,.37,1.48s.22,1,.37,1.48.33,1.18.5,1.78.39,1.19.59,1.78a17.91,17.91,0,0,0,.9,2.19l.32.69.35.69c.24.46.47.93.7,1.39a23,23,0,0,0,1.59,2.63l1.06,1.58A39.91,39.91,0,0,0,13.16,163.36Z"/><path class="cls-1" d="M20.82,194.68a.91.91,0,0,1-.78-.52,1.16,1.16,0,0,1-.12-.92.87.87,0,0,1,.16-.36,1.77,1.77,0,0,0,.16-.22A1.82,1.82,0,0,1,21,192l.15-.13a1.39,1.39,0,0,1,.49-.32,1.7,1.7,0,0,1,.43-.35,1.65,1.65,0,0,1,.36-.11,1.17,1.17,0,0,1,.08-.62l.1-.18.19-.06a1.21,1.21,0,0,1,.47-.12h0a1.5,1.5,0,0,0,.52-.14l.37-.14a1,1,0,0,1,.51-.33l.16-.07a1.46,1.46,0,0,0,.73-.44.81.81,0,0,1,.65-.41.66.66,0,0,0,.26-.1,2.11,2.11,0,0,1,.34-.16,1.31,1.31,0,0,0,.31-.16,9.54,9.54,0,0,0,.9-.67l.47-.37a.44.44,0,0,0,.14-.18,2.91,2.91,0,0,1,.27-.49l.06-.1a.68.68,0,0,1,.44-.31,1.86,1.86,0,0,1,.34,0,1.13,1.13,0,0,1,.48.11,7.37,7.37,0,0,0,.5-.61,2.31,2.31,0,0,0,.22-.34c.07-.12.14-.26.21-.39a4.18,4.18,0,0,1,.48-.69c.09-.11.19-.21.29-.32a2.09,2.09,0,0,0,.2-.22l.16-.18a2,2,0,0,1,.75-.64l.13-.14a1.24,1.24,0,0,0,.23-.24l.08-.18.17-.07c.06,0,.11-.1.19-.29a1.08,1.08,0,0,1,.6-.62.39.39,0,0,0,.08-.1,1.47,1.47,0,0,0,.31-.55A1.78,1.78,0,0,1,35,180a1.3,1.3,0,0,0,.08-.17l0-.12a1.92,1.92,0,0,1,.3-.53,4.63,4.63,0,0,0,.41-.61,5.55,5.55,0,0,1,.55-.78,4.78,4.78,0,0,1,.51-1l.32-.45a4,4,0,0,0,.27-.4c.12-.2.18-.28.17-.36a.76.76,0,0,1,.66-.76h0l-.06-.12.12-.22a.91.91,0,0,1,.33-.47s0,0,0-.23a2,2,0,0,1,0-.32,2,2,0,0,1,.16-.49,3.09,3.09,0,0,1,.37-.55.68.68,0,0,0,.18-.33,7.15,7.15,0,0,1,.18-.7,8.09,8.09,0,0,1,.28-.83.57.57,0,0,0,0-.23l0-.11a1.35,1.35,0,0,1,0-.61c0-.16,0-.32.06-.48a4.18,4.18,0,0,1,.19-1,.33.33,0,0,0,0-.13,6.41,6.41,0,0,1,.27-1.15l0-.13a2,2,0,0,1,1-1.06,1.36,1.36,0,0,1,.74-.2,2.46,2.46,0,0,1,.37,0,5.5,5.5,0,0,1,.58.16.83.83,0,0,1,.6.56,1.11,1.11,0,0,1,0,.47,1.61,1.61,0,0,1,.12.44.87.87,0,0,1-.48,1l-.1.44a1.39,1.39,0,0,1,0,.51c0,.06,0,.12,0,.14a.92.92,0,0,1-.13.57,2.78,2.78,0,0,1-.29.41,2.49,2.49,0,0,0-.25.49,3.13,3.13,0,0,1-.29.58,2.09,2.09,0,0,1-.33.77,1.28,1.28,0,0,0-.11.2,1.51,1.51,0,0,0-.13.36c0,.12-.07.25-.11.37a1.19,1.19,0,0,1-.2,1c0,.11,0,.19,0,.27a1.7,1.7,0,0,0,0,.49,3.2,3.2,0,0,1,0,.69,1.25,1.25,0,0,1-.27.78,2.47,2.47,0,0,0-.21.27,5.46,5.46,0,0,1-.36.45c-.08.09-.1.13-.1.14a1.31,1.31,0,0,1-.12.5,2,2,0,0,1-.14.26l-.14.24a4.05,4.05,0,0,1-.57.93,1,1,0,0,0-.21.3,2.06,2.06,0,0,1-.46.79,3.21,3.21,0,0,0-.33.48l-.06.15-.18.12a.61.61,0,0,0-.16.23,1.48,1.48,0,0,1-.21.32l-.18.21a.81.81,0,0,0-.12.14,2.55,2.55,0,0,1-.48.52,2.93,2.93,0,0,0-.72.87.77.77,0,0,1-.18.74l-.13.14a2,2,0,0,1-.44.42c-.08,0-.09.08-.09.1a.81.81,0,0,1-.46.64,1.32,1.32,0,0,0-.39.3A3.25,3.25,0,0,1,34,186a5.49,5.49,0,0,1-.79.6l-.36.25c-.06,0-.08.06-.08.07a.77.77,0,0,1-.37.64,1.69,1.69,0,0,0-.41.6,2.14,2.14,0,0,1-.34.71.67.67,0,0,1-.56.31h0c-.07,0-.09,0-.19.11a2,2,0,0,1-.5.36,1.07,1.07,0,0,1-.55.19l-.12,0a6.15,6.15,0,0,1-.52.37,2.44,2.44,0,0,1-.73.28c-.11,0-.12.05-.13.1a2.12,2.12,0,0,1-.11.21,2.69,2.69,0,0,1-.64.93,3.92,3.92,0,0,1-.52.39l-.25.16a1.72,1.72,0,0,1-.72.31,3.78,3.78,0,0,0-1.34.6c-.2.14-.42.26-.64.39a.9.9,0,0,1-.41.11h0l-.12,0s-.08,0-.16.08a1.57,1.57,0,0,1-1,.33h-.11a1.41,1.41,0,0,1-.59.21,1.32,1.32,0,0,1-.83.35Z"/><path class="cls-2" d="M42.2,166l.28,0c.19,0,.37.1.55.15a.37.37,0,0,1,.24.21.59.59,0,0,1,0,.26.64.64,0,0,0,.07.42.77.77,0,0,1,.07.26c0,.21,0,.37-.31.47a.58.58,0,0,0-.14.08c0,.22-.08.42-.13.62a.47.47,0,0,0,0,.2c.07.24-.06.45,0,.68a.38.38,0,0,1-.08.24,2.71,2.71,0,0,1-.24.35c-.29.37-.34.82-.62,1.19a2.52,2.52,0,0,1-.42.93c-.14.27-.16.58-.29.86a.19.19,0,0,0,0,.15.72.72,0,0,1-.12.7A.26.26,0,0,0,41,174a3.24,3.24,0,0,0-.09.89,3,3,0,0,1,0,.6.82.82,0,0,1-.17.48c-.19.23-.35.48-.55.7a.75.75,0,0,0-.23.46.89.89,0,0,1-.08.33l-.16.29a2.59,2.59,0,0,0-.19.31,2.32,2.32,0,0,1-.43.7,1.61,1.61,0,0,0-.3.48,1.68,1.68,0,0,1-.36.62,2.6,2.6,0,0,0-.41.59s0,0,0,0a.89.89,0,0,0-.35.44,1.58,1.58,0,0,1-.22.29c-.08.11-.18.2-.26.31a1.73,1.73,0,0,1-.39.42A3.47,3.47,0,0,0,35.9,183a.31.31,0,0,0,0,.27.32.32,0,0,1-.06.32,2.66,2.66,0,0,1-.47.48.6.6,0,0,0-.32.46.3.3,0,0,1-.18.25,2.36,2.36,0,0,0-.54.4,2.38,2.38,0,0,1-.55.39,11.88,11.88,0,0,1-1.16.85.56.56,0,0,0-.29.48c0,.15-.12.21-.22.28a2.1,2.1,0,0,0-.54.82,2,2,0,0,1-.25.55.25.25,0,0,1-.17.11h-.06a.65.65,0,0,0-.5.26,2.23,2.23,0,0,1-.48.32.42.42,0,0,1-.22.08h-.08a.55.55,0,0,0-.34.14l-.48.35a2.16,2.16,0,0,1-.57.21.64.64,0,0,0-.5.41c0,.09-.09.16-.13.25a2.14,2.14,0,0,1-.49.71c-.22.2-.49.33-.72.51a1.39,1.39,0,0,1-.53.22,4.11,4.11,0,0,0-1.51.67,5.63,5.63,0,0,1-.62.37.3.3,0,0,1-.16,0h-.18a.75.75,0,0,0-.46.18,1.06,1.06,0,0,1-.71.23H22.2a.19.19,0,0,0-.15,0,1.07,1.07,0,0,1-.58.2.6.6,0,0,0-.26.16.55.55,0,0,1-.38.16h0c-.13,0-.24-.1-.34-.28a.7.7,0,0,1-.09-.52.67.67,0,0,1,.07-.17c.23-.28.41-.64.71-.78s.41-.42.7-.46c0,0,.05,0,.07-.07a1.15,1.15,0,0,1,.32-.27.62.62,0,0,1,.31-.07h.13c.12,0,.17-.11.2-.27s-.07-.45,0-.61a.87.87,0,0,1,.31-.1h0a3.44,3.44,0,0,0,1-.3.39.39,0,0,0,.2-.14.85.85,0,0,1,.37-.21,2.3,2.3,0,0,0,1.1-.68.37.37,0,0,1,.27-.2,2.91,2.91,0,0,0,.73-.28,2.55,2.55,0,0,0,.43-.23c.49-.3.93-.7,1.39-1.05a.91.91,0,0,0,.3-.39,2.85,2.85,0,0,1,.3-.51.17.17,0,0,1,.11-.09l.24,0a.61.61,0,0,1,.28.07.62.62,0,0,0,.3.1.23.23,0,0,0,.23-.18,6.23,6.23,0,0,0,.57-.7c.09-.13.18-.25.26-.38l.22-.41a3.53,3.53,0,0,1,.41-.6c.16-.19.34-.35.49-.53a2.36,2.36,0,0,1,.74-.7.88.88,0,0,0,.15-.12,2,2,0,0,0,.45-.5.9.9,0,0,0,.45-.56.6.6,0,0,1,.33-.35.62.62,0,0,0,.29-.26,1.93,1.93,0,0,0,.4-.73,3.28,3.28,0,0,1,.25-.58,1.92,1.92,0,0,1,.27-.51c.37-.43.58-1,1-1.39a.21.21,0,0,0,.07-.12,4.92,4.92,0,0,1,.49-.94l.3-.44a4.27,4.27,0,0,0,.3-.44,1.09,1.09,0,0,0,.24-.63c0-.14.1-.23.3-.25a.27.27,0,0,0,.23-.14c.08-.14.23-.25.14-.45s.07-.23.17-.29a.76.76,0,0,0,.27-.61,1,1,0,0,1,0-.25,2,2,0,0,1,.11-.37,2.71,2.71,0,0,1,.3-.45,1.18,1.18,0,0,0,.3-.56c.05-.22.1-.44.17-.66s.16-.53.26-.78a1,1,0,0,0,0-.49,1.77,1.77,0,0,1-.07-.55,10.61,10.61,0,0,1,.24-1.37.88.88,0,0,0,.07-.23,7.31,7.31,0,0,1,.28-1.21,1.62,1.62,0,0,1,.76-.78.89.89,0,0,1,.47-.12m0-1a1.91,1.91,0,0,0-1,.27A2.53,2.53,0,0,0,40,166.64l0,.13a6.61,6.61,0,0,0-.28,1.2v0a4.35,4.35,0,0,0-.23,1.09,3.15,3.15,0,0,1-.05.43,2,2,0,0,0,0,.82l0,.09h0c-.11.27-.19.54-.27.81s-.13.48-.19.73c0,0,0,.06-.07.12a2.93,2.93,0,0,0-.43.65,2.83,2.83,0,0,0-.25,1v0a1.36,1.36,0,0,0-.33.53l-.11.21a1.22,1.22,0,0,0-.67,1l-.06.1h0l0,0-.19.29-.06.07-.33.48a6.27,6.27,0,0,0-.55,1.05,5.53,5.53,0,0,0-.51.75,4.37,4.37,0,0,1-.37.55,2.2,2.2,0,0,0-.38.66l0,.1-.08.15a2.86,2.86,0,0,0-.24.61,1.29,1.29,0,0,1-.21.34,1.57,1.57,0,0,0-.76.86l0,0-.25.11-.14.32-.12.1-.12.1,0,0a2.59,2.59,0,0,0-.8.71l-.12.15-.21.22c-.11.12-.22.23-.32.36a4.09,4.09,0,0,0-.54.78l-.2.37a1.64,1.64,0,0,1-.14.22l-.05.08c-.08.11-.17.21-.25.31a1.66,1.66,0,0,0-.32,0,2,2,0,0,0-.42.05,1.16,1.16,0,0,0-.78.54l-.06.09a3.48,3.48,0,0,0-.32.56l-.45.36c-.29.23-.56.45-.84.63l-.22.12a2.43,2.43,0,0,0-.42.19l-.09,0a1.38,1.38,0,0,0-1,.65,1.72,1.72,0,0,1-.48.24l-.16.06a1.8,1.8,0,0,0-.64.38l-.25.09a.93.93,0,0,1-.32.11,1.43,1.43,0,0,0-.61.14l-.39.12-.21.37a1.14,1.14,0,0,0-.14.48l-.08,0a2.21,2.21,0,0,0-.5.38,2,2,0,0,0-.53.37l-.07.06a2.41,2.41,0,0,0-.87.83l-.15.19a1.46,1.46,0,0,0-.25.52,1.68,1.68,0,0,0,.17,1.33,1.38,1.38,0,0,0,1.21.77h.06a1.49,1.49,0,0,0,.95-.37,1.93,1.93,0,0,0,.58-.19,2.11,2.11,0,0,0,1.25-.39h.08a1.33,1.33,0,0,0,.64-.17c.24-.14.48-.27.71-.43a3.32,3.32,0,0,1,1.14-.51,2.4,2.4,0,0,0,.91-.39l.23-.15a4.78,4.78,0,0,0,.58-.43,3.08,3.08,0,0,0,.74-1.06l.06-.11a2.77,2.77,0,0,0,.7-.28h0c.18-.11.33-.23.48-.34a1.46,1.46,0,0,0,.62-.2l.08,0a2.31,2.31,0,0,0,.58-.41,1.18,1.18,0,0,0,.84-.5,2.65,2.65,0,0,0,.42-.86,1,1,0,0,1,.22-.34,1.29,1.29,0,0,0,.55-.79l.25-.17a7.78,7.78,0,0,0,.8-.59,4.08,4.08,0,0,0,.6-.43l0,0,0,0a1.46,1.46,0,0,1,.29-.24,1.29,1.29,0,0,0,.71-.84,2.47,2.47,0,0,0,.46-.45l.09-.11a1.28,1.28,0,0,0,.35-1,2.48,2.48,0,0,1,.51-.58,2.76,2.76,0,0,0,.59-.65l.07-.07.14-.16,0-.06a2.15,2.15,0,0,0,.28-.42.43.43,0,0,0,0-.07,1,1,0,0,0,.37-.45,2.2,2.2,0,0,1,.24-.34,2.73,2.73,0,0,0,.56-1l.12-.16a3.12,3.12,0,0,0,.58-.94,2.51,2.51,0,0,0,.14-.21l0-.07a1.51,1.51,0,0,0,.15-.28v-.05a2,2,0,0,0,.15-.51c.13-.15.25-.31.37-.47a2.35,2.35,0,0,1,.19-.25,1.85,1.85,0,0,0,.4-1.1,5.82,5.82,0,0,0,0-.73,1.63,1.63,0,0,1,0-.36l0-.18a1.67,1.67,0,0,0,.23-1.14c0-.1.06-.2.09-.28a1.35,1.35,0,0,1,.07-.25l.11-.19a2.68,2.68,0,0,0,.37-.83,3.76,3.76,0,0,0,.28-.58,1.79,1.79,0,0,1,.19-.37,4.45,4.45,0,0,0,.32-.48,1.38,1.38,0,0,0,.21-.82v0a2,2,0,0,0,0-.58l0-.14a1.34,1.34,0,0,0,.53-1.44,1.46,1.46,0,0,0-.1-.39,1.65,1.65,0,0,0-.07-.57,1.31,1.31,0,0,0-.9-.9,4.24,4.24,0,0,0-.66-.18,2.59,2.59,0,0,0-.47,0Z"/><path class="cls-1" d="M29.63,144.23h-.2a5.42,5.42,0,0,1-4.3-2.75,8.84,8.84,0,0,1-1.1-4.57,15,15,0,0,1,11.08-14.24,1.26,1.26,0,0,1,1.07.23,4.19,4.19,0,0,1,3.53,1.64,7.38,7.38,0,0,1,1.39,3.74c0,.27.06.53.08.8a46.83,46.83,0,0,0,7.4-6.33c1.69-5.93,4.32-11.43,7.32-17.44a20.84,20.84,0,0,1,3.48-5.42,6.52,6.52,0,0,1,2.9-1.84,4.05,4.05,0,0,1,3.82.8c1.5,1.38,1.61,3.74.29,6.33a38.73,38.73,0,0,1-5.55,7.54l-4.73,5.44c-1.72,2-3.46,4-5.3,5.88l-.16.61c-.13.49-.25,1-.36,1.48a25.72,25.72,0,0,1,5.22-6.1,8,8,0,0,1,3.43-1.83,4.21,4.21,0,0,1,4.23,1.46,4.26,4.26,0,0,1,.39,4,8.48,8.48,0,0,1-2,2.81,26.4,26.4,0,0,1-6.28,4.64A6.56,6.56,0,0,1,57,133.28a12.2,12.2,0,0,1,.86,2.33c.17.54.32,1,.52,1.52.33.78,1,1.7,1.8,1.76s1.66-.69,2.39-1.43a52.86,52.86,0,0,0,4.81-5.55,1.25,1.25,0,1,1,2,1.49,54.78,54.78,0,0,1-5,5.83c-1.15,1.14-2.56,2.29-4.37,2.15a4.86,4.86,0,0,1-3.9-3.27,14.56,14.56,0,0,1-.61-1.79,12.09,12.09,0,0,0-.69-1.9,3.72,3.72,0,0,0-2.09-1.89l-.36-.09c-.83.31-1.68.59-2.54.82a1.23,1.23,0,0,1-.63,0l-.66,1.32c-.92,1.86-1.88,3.78-2.92,5.6a1.25,1.25,0,0,1-2.24-1.11A77.62,77.62,0,0,0,47,129.25c.17-.63.32-1.27.48-1.92A42.75,42.75,0,0,1,42,131.52c-.29.19-.6.38-.92.56a14.79,14.79,0,0,1-1.89,5.63,13.9,13.9,0,0,1-7.47,6.13A6.84,6.84,0,0,1,29.63,144.23Zm2.64-17.6a12.71,12.71,0,0,0-5.74,10.28,6.36,6.36,0,0,0,.75,3.29,3,3,0,0,0,2.26,1.53,4.07,4.07,0,0,0,1.41-.26,11.39,11.39,0,0,0,6.1-5,12,12,0,0,0,1.3-3.23,6.47,6.47,0,0,1-.88.15,5.16,5.16,0,0,1-5-2.29A5.29,5.29,0,0,1,32.27,126.63Zm4.16-1.24a.9.9,0,0,0-.28,0,2.61,2.61,0,0,0-1.21,1.32,3.39,3.39,0,0,0-.31,3.08,2.66,2.66,0,0,0,2.58,1,5.06,5.06,0,0,0,1.5-.4,12.15,12.15,0,0,0-.09-1.9,4.74,4.74,0,0,0-.86-2.48A1.82,1.82,0,0,0,36.43,125.39Zm23.43-4.78a2.09,2.09,0,0,0-.43,0,5.76,5.76,0,0,0-2.32,1.3,27,27,0,0,0-6.21,8,5,5,0,0,1,1.09-.1,23.63,23.63,0,0,0,7.8-5.19,6.06,6.06,0,0,0,1.44-1.94,1.79,1.79,0,0,0-.08-1.63A1.6,1.6,0,0,0,59.86,120.61Zm3.62-20.23a1.89,1.89,0,0,0-.53.08,4.05,4.05,0,0,0-1.78,1.18,18.82,18.82,0,0,0-3,4.79c-2,4.07-3.89,7.9-5.39,11.76.5-.56,1-1.12,1.47-1.68L59,111.08a36.48,36.48,0,0,0,5.2-7c.62-1.21.94-2.72.25-3.34A1.35,1.35,0,0,0,63.48,100.38Z"/><path class="cls-1" d="M82.6,125.24a1.19,1.19,0,0,1-.37-.06,1.24,1.24,0,0,1-.82-1.56,89.83,89.83,0,0,1,5.1-12.84l.56-1.13a28.55,28.55,0,0,0,2.72-6.88,1.25,1.25,0,1,1,2.45.49,30.55,30.55,0,0,1-2.93,7.5l-.56,1.12a88.82,88.82,0,0,0-5,12.48A1.25,1.25,0,0,1,82.6,125.24Z"/><path class="cls-1" d="M79,136.27a2,2,0,0,1-1.36-.5,2.24,2.24,0,0,1-.63-1,2.91,2.91,0,0,1,1.11-3.33,2.69,2.69,0,0,1,3.59.61,2.56,2.56,0,0,1,.42,2,2.45,2.45,0,0,1-1.19,1.63A2.25,2.25,0,0,1,80,136,2.56,2.56,0,0,1,79,136.27Z"/></g></g></g></svg>