<svg xmlns="http://www.w3.org/2000/svg" viewBox="0 0 194.35 195.9"><defs><style>.cls-1{fill:#b29362;}.cls-2{fill:#fff;}</style></defs><g id="圖層_2" data-name="圖層 2"><g id="event"><g id="event_photo_deco_1"><path class="cls-1" d="M137.56,13c1.09.26,2.18.49,3.28.7l-10.1,17.8Q131,21.39,132,11.36C133.84,12,135.69,12.51,137.56,13Z"/><path class="cls-1" d="M179.44,4.27c1.06.87,2.11,1.75,3.16,2.64.41.34.86.84.68,1.34-.1.29-5,4.66-6.91,7A215.56,215.56,0,0,1,157,35.91q9.87-17,18.62-34.72Z"/><path class="cls-1" d="M191.26,46.26c.37,1.35.72,2.68.76,2.85.2.85.44,2.21-.54,2.69a8.63,8.63,0,0,1-2.18.32c-3,.51-6,1-9,1.41l-4.77.58-2.46.3a8.19,8.19,0,0,0-2.51.33c7-4.44,12.67-7.52,19.92-11.48C190.45,43.25,190.86,44.77,191.26,46.26Z"/><path class="cls-1" d="M139,14.25a.79.79,0,0,0-.16.1c-.27.21-.29.28-.29.18a.09.09,0,0,0,0,0,0,0,0,0,0,0,0l-.06-.06a.89.89,0,0,0-.49-.25,1,1,0,0,1-.31-.15.37.37,0,0,1-.16-.33,4.21,4.21,0,0,1,.05-.62.92.92,0,0,1,.43-.7,3.27,3.27,0,0,1,.66-.31A1.87,1.87,0,0,1,139,12h.22l.32,0,1.67.29c.57.1,1.14.22,1.66.35l.2,0a3.48,3.48,0,0,0-.2.38,19,19,0,0,1-1,1.64l-.51.8-.24.39-.2.33a2.43,2.43,0,0,1-.54.52,1.69,1.69,0,0,0-.44.52c-.17.34-.36.67-.56,1s-.33.54-.5.8a2.5,2.5,0,0,0-.35.8,4.54,4.54,0,0,1-.26.7,2.63,2.63,0,0,1-.3.44,1.79,1.79,0,0,1-.23.25,1.38,1.38,0,0,0-.44.83c0,.15-.13.27-.2.41-.26.09-.29.34-.39.53a.39.39,0,0,0,0,.35.43.43,0,0,1-.11.52,1.86,1.86,0,0,0-.51.78c-.21.45-.41.9-.63,1.34-.12.22-.23.43-.36.65l-.33.55-.38.58a2.57,2.57,0,0,0-.18.33c-.33.67-.69,1.31-1.05,1.92s-.71,1.19-1.07,1.89l0,0c-.13,0-.25-.1-.36-.15a2.71,2.71,0,0,1-.39-.17c-.16-.1-.34,0-.52.05s-.09,0-.12,0l-.06-.07a.29.29,0,0,1-.17-.16.68.68,0,0,0-.11-.25c0-.07-.11-.13-.21-.1a.36.36,0,0,0-.15-.2.32.32,0,0,0-.13-.05l-.15-.05c-.05,0-.08,0-.13,0s0-.06,0-.08a9.45,9.45,0,0,1,0-2.4c0-.63,0-1.24.1-1.87l.09-.92,0-.23v-.17a0,0,0,0,1,0,0,1.14,1.14,0,0,1,.06-.25,14.93,14.93,0,0,0,.55-2.45c.14-.26,0-.47-.28-.64a.87.87,0,0,1-.36-.54.3.3,0,0,1,0-.21,6.11,6.11,0,0,1,.3-.77,1.85,1.85,0,0,0,.18-.65c0-.81.13-1.61.19-2.42a3.09,3.09,0,0,0,0-.68,4.94,4.94,0,0,0-.1-1.08.65.65,0,0,1,.06-.47,4.42,4.42,0,0,0,.2-1.81,4.86,4.86,0,0,1,.11-1.09,2.89,2.89,0,0,0,.08-.6c0-.63.06-1.25.09-1.9a6,6,0,0,0,.81.15,5.54,5.54,0,0,1,.86.23c.43.26.53.61.78.87s.38.36.63.36h.34a1.28,1.28,0,0,1,.27,0,1.42,1.42,0,0,1,.49.28s.07.07.11.08c.39,0,.67.35,1,.46a4.07,4.07,0,0,1,1.11.8.53.53,0,0,1,.13.19.58.58,0,0,1,0,.57.51.51,0,0,1-.42.33.89.89,0,0,1-.52-.14.7.7,0,0,0-.38-.15,2,2,0,0,1-.79-.19.55.55,0,0,0-.34,0,2,2,0,0,1-1.07-.19,1.74,1.74,0,0,0-.38-.14c-.05,0,0,0-.05,0l0,0a.16.16,0,0,0,0,.08s0,.06,0,0a1.59,1.59,0,0,1-.16-.12l-.07-.06c-.06.05,0,.3.14.37,0,0,0,0,0,0v.1a1.09,1.09,0,0,1,0,.18,2.19,2.19,0,0,1,0,.36c-.06.38-.09.76-.18,1.13a2.81,2.81,0,0,1-.42,1c-.07.1-.1.21-.17.3a1,1,0,0,0-.14.85,4.7,4.7,0,0,1,.06,1.54.79.79,0,0,0,.11.53.69.69,0,0,1,.08.32,3.65,3.65,0,0,1,0,.74.91.91,0,0,0,.1.78.33.33,0,0,1,0,.26,2.23,2.23,0,0,1-.3.69,3,3,0,0,0-.34,1.23c0,.16,0,.32-.1.45a.8.8,0,0,0-.2.7c0,.16,0,.31.05.47v.12a.41.41,0,0,0,0,.09l0,.09a1.07,1.07,0,0,1,.08.32.18.18,0,0,1,.13.12s0,.08.16-.06,0-.05,0,0l0,.13c-.15.32-.15.42-.09.31s0,0,0,0,0,.05,0,.16l-.16.5c-.12.39-.16.57-.18.66s0,.23,0,.33a.26.26,0,0,0,0,.12.59.59,0,0,0,0-.08,4.73,4.73,0,0,0,.27-.67,2.12,2.12,0,0,1,.17-.43,1.48,1.48,0,0,0,.11-.27c0-.07,0-.17.07-.17l0,0a.71.71,0,0,0,.07-.27v0c.05,0,.09-.12.12-.21s0-.18.12-.19a.09.09,0,0,0,.06-.07.07.07,0,0,0,0-.05v0l0,0a3.51,3.51,0,0,1,.5-1,4,4,0,0,0,.22-.41,2.52,2.52,0,0,1,.5-.72,1.15,1.15,0,0,0,.32-.58c.1-.37.27-.72.39-1.09a1.14,1.14,0,0,1,.38-.54c.19-.16.38-.34.58-.49a4.89,4.89,0,0,0,.8-.84.52.52,0,0,0,.14-.22,1.11,1.11,0,0,1,.59-.72.41.41,0,0,0,.15-.14c.17-.37.43-.68.58-1.06a4.37,4.37,0,0,1,.56-1.22,5.37,5.37,0,0,1,.32-.82c.06-.14.11-.27.16-.41l0-.11s0,0,0-.06a.36.36,0,0,0,0-.1,1.78,1.78,0,0,0-.08-.18s0-.05,0-.08a.36.36,0,0,0,.14-.13.87.87,0,0,1,.21-.18l0,0s0,0-.07,0Z"/><path class="cls-1" d="M181.89,7.55l-.18,0A1.39,1.39,0,0,1,180.64,7a3.82,3.82,0,0,1-.36-.46,2.52,2.52,0,0,0-.61-.7,2.35,2.35,0,0,1-.4-.43.51.51,0,0,1-.12-.49,2.72,2.72,0,0,1,.24-.58.75.75,0,0,1,.86-.31,5.38,5.38,0,0,1,2.1.9l.63.47.31.23.23.18.28.25a3.16,3.16,0,0,1,.82,1.16,2.09,2.09,0,0,1,.07,1.33l0,.12a.6.6,0,0,1-.06.11l-.13.22c-.09.15-.21.29-.32.44L184,9.6l-.14.15-.3.3-.18.17-.16.15-.65.58c-.44.37-.89.73-1.31,1.12a7.57,7.57,0,0,1-1.05.73,4.92,4.92,0,0,0-.92.73L177.93,15c-.17.2-.37.39-.54.59l-.27.29-.27.31a8.11,8.11,0,0,0-.93,1.25,11,11,0,0,1-.75,1.08,7.09,7.09,0,0,1-.65.7,5.66,5.66,0,0,1-.44.4A4.09,4.09,0,0,0,173,20.85a3.46,3.46,0,0,1-.53.64c-.38.15-.57.52-.83.82a1.12,1.12,0,0,0-.24.52,1.13,1.13,0,0,1-.47.77,6.94,6.94,0,0,0-1.17,1.19,34.59,34.59,0,0,1-3.56,3.9L166,29c-.89,1.09-2,2-2.9,3A12.21,12.21,0,0,1,162,33a12.24,12.24,0,0,1-1.21,1,12.79,12.79,0,0,0-1.55,1.31,3.81,3.81,0,0,0-.62.71,3.48,3.48,0,0,1-.82.85L156,35.31h0a5.14,5.14,0,0,0,.9-1.53,8.55,8.55,0,0,0,.81-1.45,3.42,3.42,0,0,0,.21-.43,11.52,11.52,0,0,1,1.15-2.2c.31-.51.59-1,.9-1.54s.63-1,1-1.49A39.76,39.76,0,0,0,163.39,23a1,1,0,0,0,.26-1.12,1.63,1.63,0,0,1,.08-1,1,1,0,0,1,.16-.32c.28-.37.56-.76.87-1.11a4.7,4.7,0,0,0,.67-1c.68-1.26,1.36-2.51,2-3.78a10.57,10.57,0,0,0,.5-1.08,15.63,15.63,0,0,0,.71-1.75,1.85,1.85,0,0,1,.39-.73,12.51,12.51,0,0,0,1.5-2.82,4.74,4.74,0,0,1,.49-1,2.61,2.61,0,0,0,.28-.52,25.5,25.5,0,0,0,1-2.42,5.57,5.57,0,0,1,.32-.76c.26-.27.57-.19.84-.37a1.26,1.26,0,0,0,.31-.25,1.49,1.49,0,0,0,.12-.2,2.31,2.31,0,0,0,.1-.28A7.65,7.65,0,0,1,175.24.12a1.27,1.27,0,0,0,.1-.12l.1.08a23.87,23.87,0,0,1,2.15,2,10.89,10.89,0,0,1,1.47,1.81,1.6,1.6,0,0,1,.13.3.44.44,0,0,1-.16.58.72.72,0,0,1-.71,0,2.5,2.5,0,0,1-.73-.6,2.65,2.65,0,0,0-.52-.48l-.58-.4-.08-.05s0,0,0,0a.31.31,0,0,1-.08-.11.12.12,0,0,0-.16,0L176,3a1.05,1.05,0,0,1-.22.45.76.76,0,0,0-.15.25l0,.15a.22.22,0,0,0,0,.08l0,.18a1.56,1.56,0,0,1-.16.44c-.26.49-.53,1-.81,1.46A17.79,17.79,0,0,0,173,9.49a6.7,6.7,0,0,1-.52,1.2c-.34.58-.65,1.19-1,1.76a8.42,8.42,0,0,1-1.16,1.48c-.13.14-.25.3-.39.44a3.1,3.1,0,0,0-.77,1.31,14.36,14.36,0,0,1-1.12,2.5,2.07,2.07,0,0,0-.31.88,2,2,0,0,1-.18.56,10.68,10.68,0,0,1-.59,1.17,2.8,2.8,0,0,0-.52,1.29,1,1,0,0,1-.2.42,6.13,6.13,0,0,1-.83,1,9.63,9.63,0,0,0-1.31,1.81,1.84,1.84,0,0,1-.45.69,2.26,2.26,0,0,0-.75,1c-.47,1-.88,2.05-1.42,3-.34,1-.94,1.85-1.27,2.82a1.48,1.48,0,0,1-.37.6,2.9,2.9,0,0,0-.71,1.09,11.21,11.21,0,0,1-.73,1.37,1.11,1.11,0,0,1-.48.48l-.06,0-1.6-1.27a1.24,1.24,0,0,0,.43-.24A17.31,17.31,0,0,0,159,32.67a7.26,7.26,0,0,1,.89-1c.23-.22.43-.47.64-.7a8.21,8.21,0,0,1,.58-.6,4.67,4.67,0,0,0,.88-1,.36.36,0,0,1,.07-.1c.84-.72,1.47-1.65,2.32-2.37a6.61,6.61,0,0,0,.88-.95,12.24,12.24,0,0,1,1.28-1.41c.2-.18.37-.41.56-.61A8,8,0,0,1,168.18,23a3.25,3.25,0,0,0,.78-.87c.38-.56.8-1.08,1.19-1.63a3.85,3.85,0,0,1,.82-.84c.34-.25.67-.53,1-.77a13.37,13.37,0,0,0,1.5-1.32,1.75,1.75,0,0,0,.32-.35A3.33,3.33,0,0,1,175,16a1.13,1.13,0,0,0,.26-.23c.22-.29.45-.55.69-.82s.48-.56.71-.84a9.78,9.78,0,0,1,1.58-1.81c.62-.84,1.42-1.53,2-2.38.18-.26.37-.51.57-.76a2,2,0,0,1,.41-.41,4,4,0,0,0,.59-.49.85.85,0,0,1,.27-.13c.08,0,.13-.08.13-.14a.35.35,0,0,0-.09-.26A1.31,1.31,0,0,0,181.89,7.55Z"/><path class="cls-1" d="M191,48.89a.82.82,0,0,0-.16-.12.59.59,0,0,1-.42-.63,1.46,1.46,0,0,1,0-.36.89.89,0,0,0,0-.56,1.09,1.09,0,0,1,0-.36.42.42,0,0,1,.23-.31,2.85,2.85,0,0,1,.56-.26.89.89,0,0,1,.83.06,2.46,2.46,0,0,1,1,1.13c.11.3.22.6.32.9.05.15.09.29.14.46a4.34,4.34,0,0,1,.09.54c0,.15.05.3.07.45a2.9,2.9,0,0,1,0,.73,4.44,4.44,0,0,1-.07.49,2,2,0,0,1-.14.48,2.64,2.64,0,0,1-1.26,1.41,1.66,1.66,0,0,1-.69.19h-.35l-.26,0a3,3,0,0,0-.78-.06l-.54.06-.57.09c-.33,0-.66.09-1,.12a2.86,2.86,0,0,0-.9.24,5.2,5.2,0,0,1-.76.25,3.66,3.66,0,0,1-.57,0c-.12,0-.25,0-.37,0a1.42,1.42,0,0,0-1,.18,1.34,1.34,0,0,1-.49.1c-.25-.15-.48,0-.71,0a.42.42,0,0,0-.3.21.47.47,0,0,1-.51.24,2.29,2.29,0,0,0-1,.07,14.7,14.7,0,0,1-3.15.46.76.76,0,0,0-.21,0l-.32.07-.6.08-1.19.14-1.19.13-.6.08-.31,0-.29,0a9,9,0,0,1-1.36,0h-.41a1,1,0,0,1-.08-.38.39.39,0,0,0-.14-.3,2.11,2.11,0,0,0-.27-.18.91.91,0,0,0-.33-.11.61.61,0,0,1-.29-.1h0a.08.08,0,0,0-.1,0s0,0,0,0v0a.22.22,0,0,0,0-.08.46.46,0,0,0,.06-.31.14.14,0,0,0,0-.11.68.68,0,0,1-.22-.29.85.85,0,0,1,0-.17.31.31,0,0,0,0-.09l0-.12,0-.14c.45-.27.87-.55,1.34-.82s1.2-.68,1.84-1l2.09-1,.88-.41.6-.29c.32,0,.44-.24.42-.61a.9.9,0,0,1,.28-.62.32.32,0,0,1,.18-.12,6.24,6.24,0,0,1,.85-.22,1.77,1.77,0,0,0,.68-.23c.75-.43,1.52-.84,2.27-1.27a4.17,4.17,0,0,0,.6-.4,5.65,5.65,0,0,0,.91-.72.73.73,0,0,1,.44-.23,4.89,4.89,0,0,0,1.72-.9,1.82,1.82,0,0,1,.56-.31.78.78,0,0,0,.33-.16,8.94,8.94,0,0,0,1.27-.95,2,2,0,0,1,.41-.28,1.48,1.48,0,0,1,.44.07,1.9,1.9,0,0,0,.4.14.67.67,0,0,0,.65-.19l.24-.21a1.79,1.79,0,0,1,.61-.19l.29,0h.21c-.06.12.11-.27-.12.27h0v0s0,.09.07.12a1.64,1.64,0,0,1,.4.48c0,.06.05.12.08.17s0,.07,0,.11v.12a2.74,2.74,0,0,0,.08.43,3,3,0,0,1,.07.5,2,2,0,0,1,0,.43c0,.24-.1.49-.13.73a.67.67,0,0,1-.1.21.54.54,0,0,1-.49.28.52.52,0,0,1-.5-.22,1,1,0,0,1-.14-.55.81.81,0,0,0,0-.22.16.16,0,0,0,0-.09c-.06-.1-.14-.11-.1-.28s0-.06-.08,0l-.13,0c-.05,0-.08.06-.11,0s-.05,0-.08,0a.27.27,0,0,0-.07.2c0,.06,0,.07,0,.08h0l0,0-.23.11-.46.2a5.92,5.92,0,0,0-1.94,1.23,2.33,2.33,0,0,1-.65.44c-.37.17-.73.37-1.1.52a3.37,3.37,0,0,1-1.14.24c-.12,0-.24,0-.37,0a1.13,1.13,0,0,0-.83.39,5.23,5.23,0,0,1-1.34,1,.88.88,0,0,0-.41.4.69.69,0,0,1-.25.26,4.16,4.16,0,0,1-.66.43,1,1,0,0,0-.64.54.45.45,0,0,1-.23.17,2.91,2.91,0,0,1-.78.15,3.55,3.55,0,0,0-.67.16l-.34.14h-.09l-.06,0c-.06,0-.08.11-.25.06a.5.5,0,0,0-.51.12.89.89,0,0,0-.16.27.3.3,0,0,1-.13.19l.09,0c.05,0,0,.06,0,.08s.06,0,.31,0,.13,0-.15.06c-.52.17-.61.22-.41.17s.14,0,.12,0l0,0h0l-.45.16-.19.07a3.36,3.36,0,0,0-.51.2c0,.07.34.09.92-.12a1.29,1.29,0,0,1,.42-.11h0l.22-.07a.65.65,0,0,1,.18,0s.12,0,.28-.09,0,0,0,0,.16,0,.25,0l.11,0h.49a2.27,2.27,0,0,0,.78-.12,4.91,4.91,0,0,1,1.14-.17,4.29,4.29,0,0,0,.5-.07,2.82,2.82,0,0,1,.92,0,1.31,1.31,0,0,0,.7-.11c.38-.14.77-.23,1.16-.37a1.42,1.42,0,0,1,.71,0c.26,0,.52.08.79.15a6.21,6.21,0,0,0,1.22.08.86.86,0,0,0,.28,0,1.26,1.26,0,0,1,1,0,.42.42,0,0,0,.22,0c.42-.1.86-.1,1.27-.23l.7-.23a2.31,2.31,0,0,1,.77-.07c.15-.05.3-.08.43-.11l.2-.05.16,0a.37.37,0,0,0,.28-.33.66.66,0,0,0,0-.25s0-.08,0-.1a.09.09,0,0,0,0-.07.81.81,0,0,0,0-.16,1,1,0,0,1,.07-.36.5.5,0,0,0,0-.24c0-.12-.06-.25-.09-.38Z"/><path class="cls-2" d="M193.35,102.92a38.41,38.41,0,0,0-26.82-28.74,39.67,39.67,0,0,0-13.44-1.51c-.34-.93-.73-1.86-1.15-2.79a26.7,26.7,0,0,0-5.58-7.67,38.42,38.42,0,0,0-7.63-5.78,62,62,0,0,0-31.92-8,65,65,0,0,0-31.7,8.77A62,62,0,0,0,61,68.68a52.22,52.22,0,0,0-10.08-.39,55.86,55.86,0,0,0-13.27,2.38C29.45,73.31,21.6,77.9,16,84.51a44.79,44.79,0,0,0-6.9,10.4,54.25,54.25,0,0,0-2.74,7A49.18,49.18,0,0,0,5,109.47a37.94,37.94,0,0,0,5.17,23.44A38.66,38.66,0,0,0,22.9,146a30.08,30.08,0,0,0,2,10.08,36.57,36.57,0,0,0,4.6,8.86,46,46,0,0,0,3.93,4.78,42.77,42.77,0,0,0,4.92,4.1,41.91,41.91,0,0,0,17.18,7.35,65.49,65.49,0,0,0,10.73,1.18A75.9,75.9,0,0,0,78,181.43c1.87-.26,3.74-.59,5.59-1A38.74,38.74,0,0,0,92,195.23a2.33,2.33,0,0,0,3.86-1l3.36-14.3A82,82,0,0,0,112,184.36a91,91,0,0,0,13,2.22,51.42,51.42,0,0,0,10.67.08A46.64,46.64,0,0,0,148.2,184a51,51,0,0,0,6.47-3,46.16,46.16,0,0,0,5.62-4,34,34,0,0,0,7.48-8.47,35.51,35.51,0,0,0,3-6.38,19.73,19.73,0,0,0,1.09-4,35.28,35.28,0,0,0,.17-11.64,44.37,44.37,0,0,0,9.5-6.29,29,29,0,0,0,3.5-3.59,43.58,43.58,0,0,0,4.5-6.31,41.84,41.84,0,0,0,3-7,39.06,39.06,0,0,0,1.51-7.75A38.37,38.37,0,0,0,193.35,102.92Z"/><path class="cls-1" d="M41.2,69.23a5.78,5.78,0,0,0,.57-.1,4.64,4.64,0,0,1,2.76.21c.21.06.43.15.64.23l.31.13a2.44,2.44,0,0,1,.28.14l1.87,1a6.2,6.2,0,0,1,1.09.79,1.3,1.3,0,0,1,.55.79,1.51,1.51,0,0,1-.09.72c-.15.28-.55.3-1.23,0s-1.28-.47-2-.68-1.36-.37-2.12-.55a16.94,16.94,0,0,0-6-.12c-.2,0-.39.06-.59.09S37,72,36.76,72a38.13,38.13,0,0,0-6.66,2.12c-.8.35-1.64.62-2.46.94-.37.15-.74.31-1.1.48s-.72.37-1.08.58c-.61.35-1.19.74-1.78,1.1-.3.19-.58.39-.87.59l-.87.59-1.39,1-1.36,1.06c-.41.35-.81.7-1.2,1.06s-.75.76-1.11,1.15-.59.67-.9,1-.61.66-.9,1-.91,1-1.34,1.43c-.28.31-.57.58-.85.88s-.77.84-1.12,1.28a12.31,12.31,0,0,0-1,1.43,14.26,14.26,0,0,1-1,1.41,4.85,4.85,0,0,0-.75.93c-.12.17-.22.34-.33.51l-.31.53A3.79,3.79,0,0,0,8,94.18a4.38,4.38,0,0,1-.8,1.66,14.6,14.6,0,0,0-1.57,3A44.48,44.48,0,0,0,2.8,109.1a5.9,5.9,0,0,0-.09.72c-.1,1.42-.17,2.83-.17,4.25a25.94,25.94,0,0,0,.32,4.23l.21,1.43c.06.48.15,1,.23,1.44s.22,1,.32,1.53.25,1,.36,1.51a17.93,17.93,0,0,0,1.42,3.84c.15.3.29.58.45.86s.34.54.52.79c.48.63.91,1.3,1.34,2l.23.38.25.37c.17.25.34.5.52.74a9.5,9.5,0,0,0,1.23,1.31,15.9,15.9,0,0,0,2.46,2.32c.25.2.51.42.76.59,1.42.92,2.79,1.91,4.26,2.81.52.33,1,.63,1.59.92l.81.44.41.22.28.14.39.2,1.74.86.85.41.42.21.21.1.15.1-1.4.94-.7.49-.34.23-.17.12-.14.12-.2.17-.18.18-.08.08,0,.05-.09.08-.09.09-.08.09-.16.19a8.13,8.13,0,0,0-.59.82c-.09.14-.16.3-.25.45a5.14,5.14,0,0,0-.23.47l-.2.48-.17.5-.08.26-.07.26-.12.52-.09.54-.05.27,0,.27,0,.55,0,.55c0,.37,0,.74,0,1.11a3.79,3.79,0,0,0,.15,1.27,2.32,2.32,0,0,0,.21.48,2.19,2.19,0,0,0,.29.39,2.08,2.08,0,0,1,.23.31c.08.12.15.26.23.4.15.29.29.62.42.93s.18.44.24.65c.14.44.27.89.41,1.33s.33.87.48,1.3l.1.28a2.06,2.06,0,0,0,.12.26c.08.18.17.35.26.53s.18.35.27.52a4,4,0,0,0,.31.52,28.67,28.67,0,0,0,5.86,6.44c.31.25.65.49,1,.73l.5.35.52.32c.55.31,1.08.69,1.65,1a12,12,0,0,0,1.73.84,13.22,13.22,0,0,1,1.5.76l.72.4c.24.12.48.26.73.36.5.21,1,.42,1.52.61s1,.33,1.56.48,1.07.27,1.6.4c.36.1.72.15,1.07.24s.71.17,1.06.27a9.83,9.83,0,0,0,1.2.25,35.54,35.54,0,0,0,5.35.45c.27,0,.55,0,.83,0l.86,0c.75.15.88.46,1.46.64a3.54,3.54,0,0,0,1.58.16,20.66,20.66,0,0,1,4.16-.13,2.5,2.5,0,0,0,.47,0c1.44-.16,2.79,0,4.2-.16,1.71-.15,3.23,0,4.83-.08a4,4,0,0,1,.63.07c.53.08.73.25.58.48a1.73,1.73,0,0,1-1.14.58,11.16,11.16,0,0,1-2,.25,10.94,10.94,0,0,0-1.49.12,21.62,21.62,0,0,1-3,.32,7.68,7.68,0,0,0-1.23.16,21.5,21.5,0,0,1-4,.32c-.51,0-1,0-1.52,0l-.76.05-.75.08a5.43,5.43,0,0,1-1,0c-.6,0-1.2-.06-1.8-.1s-1.19-.11-1.79-.17c-2.74-.33-5.45-.71-8.16-1.2a19.28,19.28,0,0,1-2.75-.74L37,177.13l-1-.42c-.69-.27-1.36-.6-2-.92a19,19,0,0,1-3.39-2.21c-.16-.13-.33-.24-.49-.38s-.32-.26-.47-.4l-.62-.53-.33-.25-.32-.26a16.48,16.48,0,0,0-1.36-.95,22.9,22.9,0,0,1-4.38-4c-.22-.27-.43-.54-.66-.79s-.46-.48-.69-.71a8.39,8.39,0,0,1-.8-1c-.3-.39-.54-.82-.8-1.23a9.89,9.89,0,0,1-.7-1.28c-.22-.49-.45-1-.66-1.42a9.18,9.18,0,0,0-.7-1.36,3.33,3.33,0,0,1-.35-1c-.12-.48-.23-.94-.31-1.42,0-.24-.06-.48-.08-.71s0-.48,0-.71c0-.63,0-1.54,0-2.47a25.37,25.37,0,0,1,.25-2.54c.05-.32.11-.64.17-.95a3.57,3.57,0,0,1,.32-.85c.46-.8.82-1.65,1.36-2.54.16-.23.31-.47.48-.7l.14-.16.1-.13.11-.15.22-.24.22-.19,0,0,0,0-.11,0-.2-.07-.38-.15-.08,0,0,0h0l0,0-.46-.22-.9-.46a47.08,47.08,0,0,1-5.77-3.36,5.64,5.64,0,0,1-.63-.46,4.68,4.68,0,0,1-.56-.53,23.9,23.9,0,0,0-2.05-2c-.43-.38-.82-.8-1.21-1.21L7.17,135c-.18-.21-.37-.43-.54-.66a3.89,3.89,0,0,1-.72-1.26A4.89,4.89,0,0,0,5.37,132a49.28,49.28,0,0,1-3.13-6.25,19.07,19.07,0,0,1-.92-2.7c-.08-.33-.17-.67-.26-1l-.25-1c-.07-.29-.14-.59-.19-.89s-.11-.6-.15-.9c0-.47-.1-.94-.17-1.41a13.1,13.1,0,0,0-.2-1.4l0-.26a35.88,35.88,0,0,1,.23-7.25c.15-.92.27-1.89.42-2.82a23.25,23.25,0,0,1,1-4c.2-.57.36-1.16.57-1.73a19.73,19.73,0,0,1,1.36-3.08c.44-.73.79-1.5,1.17-2.29.16-.34.32-.66.49-1s.34-.64.52-1L6.9,91.16A12.89,12.89,0,0,1,8.39,89.1c.58-.7,1.21-1.38,1.83-2,.5-.48,1-1,1.46-1.53l.74-.79.37-.38.38-.38a8.27,8.27,0,0,0,.71-.74A13.63,13.63,0,0,1,15.1,82a12.23,12.23,0,0,1,1.35-1,6,6,0,0,0,.58-.45c.57-.52,1.14-1,1.74-1.49l.9-.71.91-.71.49-.4.5-.38c.34-.26.67-.52,1-.77a17.14,17.14,0,0,1,2.18-1.33,59.1,59.1,0,0,1,5.79-3.19c.59-.31,1.2-.6,1.83-.86a8.4,8.4,0,0,1,1.22-.42,20.9,20.9,0,0,1,3.3-.64l.5-.06.53-.08A20.07,20.07,0,0,1,41.2,69.23Z"/><path class="cls-1" d="M81.31,181.67a.43.43,0,0,0-.15,0q-.43,0-.39-.3a.62.62,0,0,1,0-.23.38.38,0,0,0,0-.36.54.54,0,0,1,0-.22.38.38,0,0,1,.22-.24c.18-.09.36-.19.55-.27a1.38,1.38,0,0,1,.79-.13,1.28,1.28,0,0,1,.87.42,3.69,3.69,0,0,1,.47.9.56.56,0,0,0,.09.17,7.91,7.91,0,0,1,.39,1.06,1.06,1.06,0,0,1,0,.47.66.66,0,0,0,.08.4c.12.18.22.38.33.58l.24.5a.83.83,0,0,0,.33.39,1.2,1.2,0,0,1,.33.3.92.92,0,0,1,.14.28,1.18,1.18,0,0,1,0,.2A.49.49,0,0,0,86,186c.1,0,.12.14.17.21s.08.25.16.35a.26.26,0,0,0,.24.05c.19,0,.3,0,.3.14a.7.7,0,0,0,.28.46l.62.6a3.41,3.41,0,0,1,.52.68.18.18,0,0,0,.08.09c.37.27.58.69,1,1a1.13,1.13,0,0,1,.28.37l.14.22.06.12s0,.05,0,.08a.22.22,0,0,0,.07.25s0,0,.08,0,.06-.11.08,0,.11.31.11.13c.06.14.09.07.11,0s0,0,0-.06c-.08-.3-.06-.25,0-.26s0-.05,0-.06a.32.32,0,0,1,.14,0,.38.38,0,0,0,.26-.18l0,0,0-.09a.58.58,0,0,0,0-.19c0-.12,0-.24,0-.37s0-.28-.34-.34a.68.68,0,0,1-.43-.28.13.13,0,0,1,0-.12,2.37,2.37,0,0,1,.2-.5.68.68,0,0,0,.11-.42c0-.51,0-1,0-1.57a1.71,1.71,0,0,0,0-.45,1.59,1.59,0,0,1,0-.38,1.22,1.22,0,0,0-.07-.41.37.37,0,0,1,.08-.33,3.08,3.08,0,0,0,.44-1.24.7.7,0,0,1,.18-.4.46.46,0,0,0,.13-.21,2.45,2.45,0,0,1,.2-.51,2,2,0,0,0,.21-.54.92.92,0,0,1,.19-.33c.19-.05.44.14.64.17s.3,0,.33-.11a.63.63,0,0,1,.65-.51s.08,0,.1,0a.59.59,0,0,1,.4-.15c.14,0,.3,0,.43,0a.52.52,0,0,1,.25,0,.75.75,0,0,1,.24.08l.23.11.22.15a.56.56,0,0,1,.1.14.89.89,0,0,1,.07.55.82.82,0,0,1-.13.43.17.17,0,0,1-.21,0,.14.14,0,0,0-.16,0c-.1.07-.17.16-.3.13s-.07.06-.09.12a.61.61,0,0,1-.12.21.31.31,0,0,1-.18.11.38.38,0,0,0-.15.09.3.3,0,0,0,0,.22.1.1,0,0,1,0,.11l-.15.14-.16.14a1,1,0,0,0-.35.93.55.55,0,0,1,0,.34c-.09.16-.13.33-.22.49a1.41,1.41,0,0,1-.42.43l-.16.15a.33.33,0,0,0-.1.46,1.79,1.79,0,0,1,.18.87.31.31,0,0,0,.16.29.29.29,0,0,1,.11.18,1.48,1.48,0,0,1,.07.42.39.39,0,0,0,.18.45.13.13,0,0,1,.05.15,1.32,1.32,0,0,1-.23.46,1.46,1.46,0,0,0-.22.79c0,.07.07.27,0,.39a.64.64,0,0,0-.15.63l.06.45,0,.23,0,.23a3.73,3.73,0,0,1,0,.47c0,.14,0,.27-.07.4a1.55,1.55,0,0,1,0,.22,1,1,0,0,1,0,.17c0,.1-.08.2-.12.31a3.31,3.31,0,0,1-.37.55.3.3,0,0,1-.33.11.86.86,0,0,0-.56,0,.53.53,0,0,1-.28,0l-.16-.08-.17-.09a.68.68,0,0,1-.28-.36.64.64,0,0,0-.21-.31l-.3-.24-.08-.06-.07-.07-.16-.15a4.2,4.2,0,0,0-.68-.49,2,2,0,0,1-.3-.21,1.45,1.45,0,0,1-.18-.16,1.71,1.71,0,0,0-.26-.21,1.1,1.1,0,0,1-.23-.2.6.6,0,0,0-.35-.29s0,0,0,0a1.63,1.63,0,0,0-.41-.42,1.39,1.39,0,0,1-.37-.46,1,1,0,0,0-.32-.33,1.38,1.38,0,0,1-.46-.5c0-.09-.13-.14-.19-.22a.93.93,0,0,1-.27-.48.5.5,0,0,0-.27-.33c-.21-.13-.38-.31-.58-.46a.47.47,0,0,1-.19-.37,4.53,4.53,0,0,1,0-.52,2.5,2.5,0,0,0-.15-.74s0-.11-.08-.14a.5.5,0,0,1-.17-.56.22.22,0,0,0,0-.14,6,6,0,0,0-.39-.63c-.19-.21-.44-.38-.5-.67-.31-.23-.42-.59-.76-.81a1.69,1.69,0,0,1-.29-.22.25.25,0,0,1-.11-.18c0-.2-.14-.34-.09-.56,0-.06,0-.11,0-.16Z"/><path class="cls-1" d="M170.93,82.06a2.94,2.94,0,0,0-.47,0,4,4,0,0,1-1-.11,5.11,5.11,0,0,1-1.1-.34,4.2,4.2,0,0,0-.5-.17l-.46-.17a4.17,4.17,0,0,0-.77-.28c-.27,0-.55-.1-.84-.13l-.52-.1-.52-.07a1.16,1.16,0,0,1-.73-.33,2,2,0,0,1-.33-.62c-.07-.32.19-.6.91-.75A9.88,9.88,0,0,1,169,79a19.71,19.71,0,0,1,5.81,2.35l.26.15.25.16.51.32a25.38,25.38,0,0,1,5.23,4.5c.14.16.29.32.42.48l.38.51c.24.35.49.7.71,1,.4.65.83,1.26,1.28,1.92a27.42,27.42,0,0,1,2.09,3.4l.19.36.18.37.34.75c.24.5.42,1,.62,1.52l.27.72c.09.23.17.47.26.71s.17.48.26.71l.14.36c0,.11.08.23.13.35.14.4.27.81.4,1.23s.2.84.3,1.26.13.61.17.92.06.63.1.94a8.93,8.93,0,0,1,.05,1.16c0,.54,0,1.08,0,1.62a11.25,11.25,0,0,0,.12,1.62,15,15,0,0,1,0,1.63,4.45,4.45,0,0,0-.21,1.11c0,.38,0,.77-.1,1.15a4,4,0,0,0,0,1.09,1.86,1.86,0,0,1,0,.42,3.17,3.17,0,0,1,0,.43,4.16,4.16,0,0,1-.2.9l-.12.4-.13.38c-.08.26-.15.52-.22.79-.13.53-.29,1.05-.45,1.58l-.18.62c-.06.21-.14.41-.2.62l-.43,1.23c-.34.79-.64,1.61-1,2.38-.19.39-.36.79-.58,1.17l-.64,1.13c-.21.38-.47.73-.7,1.1l-.36.54c-.12.18-.26.35-.39.52s-.28.38-.41.58a32.93,32.93,0,0,1-5.55,6.13c-.35.31-.72.6-1.1.89s-.79.54-1.17.8-.86.56-1.3.83l-.65.38c-.23.12-.45.23-.68.33l-.89.43-.89.43-.9.43-.44.19-.38.18c-.07,0-.12.07-.12.11s0,.06,0,.08,0,0,0,0h.06l.07,0a.22.22,0,0,1,.09.07l.26.27c.25.21.48.43.71.65s.46.45.68.69a13.73,13.73,0,0,1,1.72,3.11l.16.49c.06.17.1.33.15.49a8.87,8.87,0,0,1,.45,2.6,14.91,14.91,0,0,1-.19,2.59,21.67,21.67,0,0,1-.87,3.53q-.3.84-.66,1.65a16.5,16.5,0,0,1-.77,1.58,41.76,41.76,0,0,1-4.95,7,5.39,5.39,0,0,0-.81.92,2.94,2.94,0,0,0-.38.91,2.35,2.35,0,0,1-.36.76c-.18.26-.4.54-.6.81a3.31,3.31,0,0,1-.5.49c-.36.29-.71.59-1.09.86s-.73.54-1.11.78c-.63.42-1.25.84-1.87,1.32-1.11.85-2.27,1.63-3.44,2.38s-2.38,1.44-3.6,2.1l-1,.55-1,.56c-1.06.61-2.21,1.08-3.26,1.7a6.46,6.46,0,0,1-1.48.6c-2,.59-3.92,1.37-5.87,2a17.29,17.29,0,0,1-2,.59,8.19,8.19,0,0,0-1.11.28c-1.59.53-3.28.88-4.87,1.38a15.6,15.6,0,0,1-1.57.35c-.72,0-.9-.27-1.46-.36a3.26,3.26,0,0,0-1.48.06,11.16,11.16,0,0,1-3.81.37,2.3,2.3,0,0,0-.45,0,25.92,25.92,0,0,1-3.85-.11,8.48,8.48,0,0,1-1.15-.1c-.37,0-.73-.1-1.08-.18-.71-.16-1.4-.31-2.1-.5a3.8,3.8,0,0,1-.54-.22c-.44-.2-.56-.41-.38-.6a1.47,1.47,0,0,1,1.11-.29,11.65,11.65,0,0,1,1.76.17,6.2,6.2,0,0,0,1.31.12c.88,0,1.75-.06,2.65,0a5.8,5.8,0,0,0,1.09-.09,33.18,33.18,0,0,1,3.5-.35,11.36,11.36,0,0,0,1.32-.12l.65-.12.63-.19a4.25,4.25,0,0,1,.85-.18l3.07-.5a32.7,32.7,0,0,0,6.85-1.93c.76-.32,1.51-.58,2.29-.83,1.2-.37,2.39-.82,3.57-1.24s2.22-.75,3.3-1.05c.34-.1.69-.23,1-.32a8.9,8.9,0,0,0,2.58-1.24c1.4-.95,2.87-1.83,4.29-2.78a6.45,6.45,0,0,0,1.32-1.09,8.24,8.24,0,0,1,.8-.72c.63-.51,1.24-1,1.87-1.54a7.49,7.49,0,0,0,1.79-1.81,4.21,4.21,0,0,1,.59-.62l.45-.39.44-.38.88-.73a14.22,14.22,0,0,0,1.44-1.41c.25-.29.5-.58.72-.86s.41-.55.57-.78a7.3,7.3,0,0,1,.88-1.23,4.76,4.76,0,0,0,.72-.88,11.69,11.69,0,0,0,.57-1.06,27.13,27.13,0,0,0,1.13-2.87c.34-1,.61-1.94.85-2.93s.26-1.82.3-2.72a8.15,8.15,0,0,0-.28-2.63c-.06-.19-.1-.38-.15-.57a2.47,2.47,0,0,1-.06-.29,2.36,2.36,0,0,1,0-.28,4.27,4.27,0,0,0-.84-2c-.27-.33-.53-.67-.82-1a6,6,0,0,0-.43-.44,2.12,2.12,0,0,0-.24-.2l-.11-.09-.13-.11-.14-.1-.16-.08-.59-.34a3.83,3.83,0,0,0-.67-.3l-.61-.26-.54-.26a10.4,10.4,0,0,0-1.58-.67l.07,0,0,0,.07-.05.22-.18.61-.21,1.19-.42.58-.21.29-.1.28-.11,1-.43,1-.43.25-.11.16-.09.33-.17.65-.37c.21-.12.43-.24.63-.38s.67-.44,1-.65.67-.45,1-.67a8.45,8.45,0,0,0,.72-.5l.69-.54.6-.48c.2-.17.39-.34.59-.49a10.51,10.51,0,0,0,1.76-1.63,1.14,1.14,0,0,1,.15-.16,35.6,35.6,0,0,0,4-4.69l.36-.47c.11-.17.22-.34.32-.51.21-.35.42-.7.61-1.05l.81-1.55c.24-.53.52-1,.79-1.57s.4-.94.6-1.41.33-.89.5-1.33.32-.89.51-1.32c.07-.17.14-.33.2-.5s.1-.35.14-.52c.09-.36.16-.71.22-1.08.08-.61.18-1.22.26-1.83l.09-.92c0-.31.07-.61.07-.92a9.44,9.44,0,0,1,.09-1.08c.05-.36.07-.71.13-1.06.13-.77.17-1.55.27-2.31.06-.6,0-1.21,0-1.83s-.1-1.24-.15-1.86a4.94,4.94,0,0,0-.15-.87c-.07-.25-.13-.51-.19-.76s-.13-.49-.18-.74c-.1-.49-.15-1-.23-1.46a3.71,3.71,0,0,0-.15-.64c-.2-.64-.47-1.25-.7-1.88-.11-.31-.26-.62-.4-.92l-.45-.9c-.18-.33-.39-.63-.58-1s-.38-.63-.59-.93-.42-.61-.62-.92-.42-.62-.61-.94a26.16,26.16,0,0,0-3.93-4.14l-.69-.51-.34-.27-.35-.24a7.12,7.12,0,0,1-.84-.68c-.34-.31-.72-.59-1.09-.88a12.11,12.11,0,0,1-1.12-.84,3.58,3.58,0,0,0-.74-.46A21.77,21.77,0,0,0,170.93,82.06Z"/><path class="cls-1" d="M63.41,63.2c0,.07-.06.2-.07.31a1.47,1.47,0,0,1-.18.65,2.34,2.34,0,0,1-.44.58,5.07,5.07,0,0,1-.47.46,2.76,2.76,0,0,0-.7.78,3.52,3.52,0,0,1-.43.51.56.56,0,0,1-.44.19c-.21,0-.42,0-.63-.07a.56.56,0,0,1-.37-.25.89.89,0,0,1-.08-.61c0-.25.09-.44.14-.66s.11-.43.18-.64a5.09,5.09,0,0,1,.61-1.27,23.3,23.3,0,0,1,2.27-3c.16-.17.32-.35.47-.54s.46-.53.7-.78.5-.49.76-.72l.38-.36.4-.34.78-.69a11,11,0,0,1,1.29-.85,6.87,6.87,0,0,0,1.17-.79c.31-.26.64-.5,1-.74L70.2,54l.5-.34.83-.55.86-.51a15.79,15.79,0,0,0,1.54-1,13.05,13.05,0,0,1,1.33-.85,9.57,9.57,0,0,1,1-.47c.22-.09.45-.16.67-.24s.63-.2.93-.32a5.71,5.71,0,0,0,.88-.47,5.79,5.79,0,0,1,.91-.39A3.74,3.74,0,0,0,81,48.47a1.56,1.56,0,0,0,.57-.37,1.51,1.51,0,0,1,1-.46,10.94,10.94,0,0,0,1.94-.46A28.77,28.77,0,0,1,90.67,46a2.83,2.83,0,0,0,.42-.06c1.65-.29,3.32-.28,5-.42a12.06,12.06,0,0,1,1.7,0,15.58,15.58,0,0,1,1.82.14,18.93,18.93,0,0,0,2.38.19,4.57,4.57,0,0,0,1.11,0,4.39,4.39,0,0,1,1.4,0,7.71,7.71,0,0,0,2.09.17,14.41,14.41,0,0,0,2,.17,5.44,5.44,0,0,0,.57,0,8,8,0,0,1,1.47.06c.49.06,1,.14,1.47.22.7.13,1.4.23,2.09.36s1.39.31,2,.51c.83.27,1.64.55,2.47.8s1.65.53,2.48.79a1.32,1.32,0,0,0,1.35,0,2.17,2.17,0,0,1,1.15-.07,1.38,1.38,0,0,1,.41.11c.51.24,1,.47,1.5.74a6.37,6.37,0,0,0,1.26.61c.81.28,1.59.62,2.38.94l.59.25.58.26,1.16.54c.44.18.87.4,1.3.57.7.27,1.37.65,2.08.89a2.88,2.88,0,0,1,.86.5l.38.29.39.29c.26.18.53.36.8.52l.83.49.82.51a6.35,6.35,0,0,1,1,.73,3.39,3.39,0,0,0,.56.44c.89.56,1.68,1.28,2.58,1.85a7.67,7.67,0,0,1,.78.65c.24.4.08.67.2,1a1.29,1.29,0,0,0,.52.77,4.53,4.53,0,0,1,1.52,1.86,1.19,1.19,0,0,0,.13.25,4.44,4.44,0,0,1,.63,1l.24.56.25.55a7.44,7.44,0,0,1,.61,2.69,1.5,1.5,0,0,1,0,.37c-.06.31-.22.45-.45.41a.76.76,0,0,1-.59-.47,3.63,3.63,0,0,1-.35-1,2.9,2.9,0,0,0-.26-.73c-.13-.22-.28-.44-.41-.66a4.63,4.63,0,0,1-.36-.7,1.92,1.92,0,0,0-.4-.51,12.14,12.14,0,0,1-1.33-1.6,4.22,4.22,0,0,0-.49-.61,2.92,2.92,0,0,0-.63-.48,2.06,2.06,0,0,1-.4-.33c-.21-.23-.42-.45-.64-.67l-.66-.66a12.69,12.69,0,0,0-3.48-2.5,13.7,13.7,0,0,1-1.26-.77l-.95-.64-1-.63a10.56,10.56,0,0,1-.87-.62l-.8-.69c-.16-.15-.35-.28-.51-.43a3.42,3.42,0,0,0-1.53-.83,13.08,13.08,0,0,1-1.49-.51l-1.46-.58a2.49,2.49,0,0,0-1-.26,2.67,2.67,0,0,1-.65-.13,13.88,13.88,0,0,1-1.42-.47,3.71,3.71,0,0,0-1.54-.35,1.29,1.29,0,0,1-.52-.13,8.87,8.87,0,0,1-1.31-.65,7.53,7.53,0,0,0-1.15-.52c-.45-.16-.91-.31-1.24-.39a2.5,2.5,0,0,1-.9-.28,3.07,3.07,0,0,0-1.38-.47c-.64-.1-1.28-.15-1.92-.22l-1-.11-1-.12c-1.18,0-2.37-.26-3.55-.2a1.87,1.87,0,0,1-.81-.11,3.84,3.84,0,0,0-1.47-.22c-.6,0-1.19-.06-1.79-.09a1.47,1.47,0,0,1-.74-.23,1.23,1.23,0,0,0-.62-.19,19.16,19.16,0,0,0-3.71-.09,12.62,12.62,0,0,1-1.51.06c-.36,0-.73,0-1.09.06s-.65,0-1,0a5.78,5.78,0,0,0-1.5.12l-.13,0c-1.28,0-2.53.29-3.81.33a7.47,7.47,0,0,0-1.48.23l-1.07.22c-.35.07-.71.14-1.07.18a6.18,6.18,0,0,0-.93.2,14.25,14.25,0,0,1-1.73.32,4,4,0,0,0-1.29.36l-1.07.43-1,.45a5.41,5.41,0,0,1-.63.24,4.61,4.61,0,0,1-.64.16l-1.43.29a7.17,7.17,0,0,0-1.1.3l-1.07.41a1.69,1.69,0,0,0-.49.23,4.62,4.62,0,0,1-.83.47,5.71,5.71,0,0,1-.88.3,1.5,1.5,0,0,0-.38.15l-1,.64-.53.33-.5.37c-.72.56-1.35,1.21-2.13,1.71-.41.43-.86.81-1.28,1.23l-.62.63a7.22,7.22,0,0,0-.56.68c-.21.29-.43.56-.65.85a2.4,2.4,0,0,1-.46.49c-.48.34-.81.85-1.3,1.17a2,2,0,0,0-.37.39C64.12,62.31,63.76,62.72,63.41,63.2Z"/><path class="cls-1" d="M44.49,131.27h-.06a2.94,2.94,0,0,1-2.08-1,3.68,3.68,0,0,1-1-2.59,6,6,0,0,1,1.49-3.38A40.36,40.36,0,0,1,48.28,119l.44-.39c.78-1.93,1.54-3.87,2.3-5.82a25.43,25.43,0,0,1-10.25,4.93c-2.47.55-7.05,1-9.93-2.05-2-2.17-2.6-5.69-1.53-9.63A22.64,22.64,0,0,1,41.64,91.46a12.7,12.7,0,0,1,6.77-1.32,7.5,7.5,0,0,1,6.1,4.18,1.5,1.5,0,1,1-2.75,1.21,4.54,4.54,0,0,0-3.69-2.41,9.78,9.78,0,0,0-5.19,1.07A19.66,19.66,0,0,0,32.2,106.78c-.37,1.38-1,4.81.83,6.8s5.6,1.5,7.08,1.17A22.55,22.55,0,0,0,54,105.12a1.5,1.5,0,0,1,2.66,1.35q-1.46,3.9-3,7.82c2.73-2.37,5.47-4.73,8.19-7.07a1.5,1.5,0,0,1,2,2.28c-4.17,3.58-8.39,7.23-12.55,10.86C50.17,123,49.1,125.61,48,128.2,47.16,130.24,46,131.27,44.49,131.27Zm1.48-6c-.25.29-.5.59-.74.9a3.36,3.36,0,0,0-.85,1.65.6.6,0,0,0,.14.4,3.2,3.2,0,0,0,.72-1.2C45.49,126.46,45.73,125.88,46,125.29Z"/><path class="cls-1" d="M79.54,115.2A4.39,4.39,0,0,1,75,110.69a7.76,7.76,0,0,1,.78-3.39s0-.08,0-.11h-.36a12.27,12.27,0,0,1-2.36,4.3,9.32,9.32,0,0,1-6.35,3.26,5.45,5.45,0,0,1-3.69-1,5,5,0,0,1-1.82-3.88,8.94,8.94,0,0,1,.8-3.62,13.52,13.52,0,0,1,3.53-5.1,9.4,9.4,0,0,1,6.94-1.88l.3,0A3.82,3.82,0,0,1,75.4,101a5.23,5.23,0,0,1,.66,3.15,2,2,0,0,0,.35-.09A8.5,8.5,0,0,0,78.18,103l1.66-1.2A15.09,15.09,0,0,1,82,100.22a1.49,1.49,0,0,1,1.67.09A3.36,3.36,0,0,1,85,99.9a4,4,0,0,1,3.81,1.95,4.94,4.94,0,0,1,.72,2.17,8.89,8.89,0,0,0,3.59-1.54,1.5,1.5,0,0,1,1.82,2.38A12,12,0,0,1,89,107.12a13.49,13.49,0,0,1-.75,1.6,14.94,14.94,0,0,1-2.92,3.91,9.36,9.36,0,0,1-4.57,2.44A6.91,6.91,0,0,1,79.54,115.2Zm2.16-11.06a12.55,12.55,0,0,0-3.21,4.36,5,5,0,0,0-.52,2.11,1.74,1.74,0,0,0,.56,1.33,2.25,2.25,0,0,0,1.69.19,6.53,6.53,0,0,0,3.11-1.69,12.37,12.37,0,0,0,2.32-3.14l.15-.29-.18,0a5.73,5.73,0,0,1-2.23-1,3.7,3.7,0,0,1-1.4-2.07ZM69.3,102.5a5.27,5.27,0,0,0-1.79.9,10.58,10.58,0,0,0-2.73,4,5.79,5.79,0,0,0-.57,2.39,2.09,2.09,0,0,0,.67,1.59,2.48,2.48,0,0,0,1.67.38,6.21,6.21,0,0,0,4.25-2.23,9,9,0,0,0,1.72-3.08l-.55-.28a5,5,0,0,1-2.33-2.25A3.74,3.74,0,0,1,69.3,102.5Zm16.07.38H85.3c-.21,0-.4.25-.39.33a.69.69,0,0,0,.29.4,2.71,2.71,0,0,0,1.08.43l.21,0a2,2,0,0,0-.24-.64A1.17,1.17,0,0,0,85.37,102.88Zm-13.1-.62a2.1,2.1,0,0,0,.09.37,1.79,1.79,0,0,0,.7.7,1.79,1.79,0,0,0-.22-.76.77.77,0,0,0-.49-.31Z"/><path class="cls-1" d="M106.25,115.46l-.47,0a4.88,4.88,0,0,1-3.46-2.25,8,8,0,0,1-1-2.28c-.29.32-.59.63-.9.94a9.6,9.6,0,0,1-4.37,2.61,5.83,5.83,0,0,1-5.46-1.35,5.92,5.92,0,0,1-1.11-6.21,10.14,10.14,0,0,1,3.61-4.42,11.29,11.29,0,0,1,4.46-2.2,7.29,7.29,0,0,1,3.42.07c.12-1,.29-2,.5-3.1l.18-1a21,21,0,0,1,.72-3.27,11.24,11.24,0,0,1,2.13-3.52,2.88,2.88,0,0,1,3.13-1.18c1.15.35,1.84,1.46,1.89,3,.12,3.85-1.52,7.5-2.84,10.43a55.77,55.77,0,0,1-2.92,5.84,16.36,16.36,0,0,0,.27,1.77,6,6,0,0,0,.78,2.21,1.93,1.93,0,0,0,1.28.92,3.9,3.9,0,0,0,2-.67,35.9,35.9,0,0,0,3.25-2,13.63,13.63,0,0,0,2.32-1.94,1.5,1.5,0,1,1,2.26,2,15.84,15.84,0,0,1-2.85,2.41,36.32,36.32,0,0,1-3.53,2.19A6.91,6.91,0,0,1,106.25,115.46Zm-7.1-12.35a4.61,4.61,0,0,0-1,.1,8.49,8.49,0,0,0-3.27,1.66A7.36,7.36,0,0,0,92.31,108a2.93,2.93,0,0,0,.41,3,2.84,2.84,0,0,0,2.65.56,6.75,6.75,0,0,0,3-1.85,17.32,17.32,0,0,0,2.36-2.89c0-.31,0-.62,0-.94q0-1.19,0-2.43A3.66,3.66,0,0,0,99.15,103.11Zm7.4-11.44a7.35,7.35,0,0,0-1.31,2.21,18.22,18.22,0,0,0-.61,2.82c-.07.37-.13.74-.19,1.1-.17.91-.32,1.77-.43,2.58C105.21,97.7,106.55,94.69,106.55,91.67Z"/><path class="cls-1" d="M90,146a3.84,3.84,0,0,1-1.35-.24c-1.64-.6-2.72-2.28-2.89-4.49a9.52,9.52,0,0,1,2.46-7.09,8.16,8.16,0,0,1,5.19-2.67,6.75,6.75,0,0,1,3.69.71l.09-.71c.4-3.3.86-7,2.9-10.18A3,3,0,0,1,103,119.7a2.8,2.8,0,0,1,1.95,1.24c1.63,2.25.62,5.2.28,6.17a49.46,49.46,0,0,1-3.58,7.71c-.57,1-1.18,2.11-1.85,3.18a13.29,13.29,0,0,0,.34,2.43,2.7,2.7,0,0,0,.57,1.26,1.67,1.67,0,0,0,1.65,0,9.79,9.79,0,0,0,2.52-2.06,1.5,1.5,0,0,1,2.22,2,12.64,12.64,0,0,1-3.45,2.74,4.48,4.48,0,0,1-4.92-.46,5,5,0,0,1-1.43-2.51A17.31,17.31,0,0,1,93.19,145,6.16,6.16,0,0,1,90,146Zm4-11.52-.34,0a5.16,5.16,0,0,0-3.25,1.71,6.5,6.5,0,0,0-1.68,4.83,2.23,2.23,0,0,0,.94,1.91,2.54,2.54,0,0,0,1.91-.54,17.13,17.13,0,0,0,5.14-5.3c0-.46,0-.92,0-1.38l0-.06A3.56,3.56,0,0,0,94.06,134.51ZM102.68,123l0,0c-1.49,2.29-2,5.22-2.32,7.94a38.59,38.59,0,0,0,2.08-4.79A4.63,4.63,0,0,0,102.68,123Z"/><path class="cls-1" d="M124.25,160.43a3.66,3.66,0,0,1-2.21-.7,4.06,4.06,0,0,1-1.34-4.21,8.33,8.33,0,0,1,1.68-3.14,61.87,61.87,0,0,1,8.77-9.19l.33-1.29h0l-.56.42a7.43,7.43,0,0,1-2.92,1.4,4.15,4.15,0,0,1-3.78-1.07,4.37,4.37,0,0,1-1.14-2.72c-.45.67-.89,1.34-1.33,2-.12.19-.24.4-.36.61a5.4,5.4,0,0,1-2.79,2.72,3,3,0,0,1-2.39-.18,3.81,3.81,0,0,1-1.81-2.32c-.07-.23-.12-.45-.17-.68-.24.28-.49.55-.75.82a8.76,8.76,0,0,1-4.88,2.85,3.69,3.69,0,0,1-2.67-.55,4,4,0,0,1-1.45-3.62,11,11,0,0,1,1.52-5.4,8.18,8.18,0,0,1,4.62-3.6,6.67,6.67,0,0,1,6,1.13,1.51,1.51,0,0,1,.54,1.4,1.5,1.5,0,0,1,.55,1.89,7.26,7.26,0,0,0-.4,4.94.78.78,0,0,0,.35.49c.41-.15.71-.62,1.16-1.4.15-.25.3-.51.45-.74.56-.86,1.13-1.72,1.7-2.58l.87-1.31a2.4,2.4,0,0,1,2.49-1.32,2.35,2.35,0,0,1,1.79,2.47c0,.32,0,.64,0,1a9.49,9.49,0,0,0,0,1.06,1.68,1.68,0,0,0,.31,1,1.24,1.24,0,0,0,1.06.2,4.73,4.73,0,0,0,1.73-.88A15.11,15.11,0,0,0,134,134a1.5,1.5,0,0,1,2.75,1.2,46.87,46.87,0,0,0-1.68,4.88,93.35,93.35,0,0,1,9.11-6,1.5,1.5,0,0,1,1.51,2.59,86.42,86.42,0,0,0-11.88,8.23,61.28,61.28,0,0,1-2.06,6.64,31.77,31.77,0,0,1-2,4.37l-.05.1a9.61,9.61,0,0,1-3.18,3.83A4.47,4.47,0,0,1,124.25,160.43Zm5.31-11.67a55.24,55.24,0,0,0-4.8,5.45,5.9,5.9,0,0,0-1.14,2,1.19,1.19,0,0,0,.22,1.13,1.13,1.13,0,0,0,1.13-.11,7.24,7.24,0,0,0,2.1-2.71l.06-.1a30.88,30.88,0,0,0,1.83-4C129.17,149.88,129.37,149.32,129.56,148.76ZM112.5,135.32a3.86,3.86,0,0,0-1.06.14,5.15,5.15,0,0,0-2.88,2.3,7.84,7.84,0,0,0-1.08,3.9c0,.78.14,1.06.19,1.09a1,1,0,0,0,.52,0,5.76,5.76,0,0,0,3.14-2,20.89,20.89,0,0,0,3.44-4.7l-.07-.06A3.52,3.52,0,0,0,112.5,135.32Z"/><path class="cls-1" d="M150.63,137.83l-.24,0a1.5,1.5,0,0,1-1.24-1.72,142.9,142.9,0,0,1,4.4-18.94,1.5,1.5,0,0,1,2.87.88,140,140,0,0,0-4.31,18.54A1.51,1.51,0,0,1,150.63,137.83Z"/><path class="cls-1" d="M149.48,144.29h-.23a2.63,2.63,0,0,1-.82-.22,2.55,2.55,0,1,1,1,.23Z"/></g></g></g></svg>