<svg xmlns="http://www.w3.org/2000/svg" viewBox="0 0 134.81 200"><defs><style>.cls-1{fill:#b29362;}</style></defs><g id="圖層_2" data-name="圖層 2"><g id="event"><path id="one" class="cls-1" d="M133.91,25.57c-.34.7-.34,1.05-.68,1.75s-1.4,1.06-1.4,1.76a22.59,22.59,0,0,1-1.4,4.21s-.72,0-.72.35V35c0,2.11-28.42,60.71-32.62,71.23-.34,1.75-.72,3.5-2.12,4.56a3.87,3.87,0,0,0-.68,2.8c-.37,1.06-1.06,1.76-1.4,2.81a7.68,7.68,0,0,1-1.43,2.1c0,.36-11.91,26.67-14,33-.34,1.05-.34,3.15-1.74,3.51.69,1.4,0,3.16-.71,4.56a30.21,30.21,0,0,0-1.75,9.47c3.15-.35,19.29,1.75,25.26,2.11h1.74c3.89,0,6.69,0,9.83-1.41,1.77-1.05,3.17-2.1,3.17-4.56.34-1.4.69-2.46,2.11-1.4,8.4,4.21,12.63,15.79,12.26,24.56,0,4.91-3.49,9.47-10.17,9.47-15.09.35-36.83-6-66-7-20.34-.7-35.77,1.4-38.94,6.32a3.86,3.86,0,0,0-.68,2.45c-.37.7-1.77.36-2.46,0-4.91-1.75-8.08-6-8.77-9.47-1.77-6.31.34-14,5.94-17.2a10.34,10.34,0,0,0,2.83-1.4c.34-.34.69-.7.69-1.05a1.62,1.62,0,0,0,1.77,0c.34,0,.34-.35,1,0,1.05.35.37,0,1.05-.35a3.86,3.86,0,0,1,2.83-.7,5.86,5.86,0,0,0,2.43-.35c.71,0,1.06-.7,1.77-.7s1.06.35,1.74.35h2.46c5.26-.35,20.37-1.05,30.17-.35a33.28,33.28,0,0,1-1.74-10.17,50.94,50.94,0,0,1,.34-7c2.46-20.35,9.83-37.55,17.2-56.85.34-1,2.46-5.26,2.46-6.31.34-.7,1-1.4,1.4-2.1,4.91-11.59,25.62-53,30.54-62.81C102,26.27,90.77,36.79,85.52,40a9.72,9.72,0,0,1-1.77,2.11c-.69.35-1.75,0-2.09.7-.37,1.4-2.46,2.1-3.51,3.16-3.52,2.8-15.09,11.23-20.72,12.63-2.45.7-6-1.4-8.42-2.46-1.4-.7-4.92-2.46-5.26-4.91-.34-1.76,7-2.1,8.77-2.46,6-.7,44.57-30.17,47-32.62,3.52-2.82,7-5.62,10.18-8.42.34-3.17-1.4-4.91,0-6.33,1.4-1.74,6-1.74,9.11-.34,6.31,2.8,11.6,7.37,13.68,11.23A15.59,15.59,0,0,1,133.91,25.57Z"/></g></g></svg>