<svg xmlns="http://www.w3.org/2000/svg" viewBox="0 0 335.05 378.43"><defs><style>.cls-1{fill:#153c4d;}.cls-2{fill:#b39363;}</style></defs><g id="圖層_2" data-name="圖層 2"><g id="event"><g id="pipi_beer_b"><path class="cls-1" d="M311.75,282c-4,1.54-1.89,7.88,2.15,6.34S315.79,280.43,311.75,282Z"/><path class="cls-1" d="M324.34,331.5a6.22,6.22,0,0,0,4.83,1.62A6.32,6.32,0,1,0,324,322.6a6.33,6.33,0,0,0-1.49,3,6.44,6.44,0,0,0-.1,1.06,4.69,4.69,0,0,0,0,.53v0a5.84,5.84,0,0,0,.27,1.74A6,6,0,0,0,324.34,331.5Z"/><path class="cls-1" d="M312.52,318.41a4.22,4.22,0,0,0,4-1.36l.38-.54a4,4,0,0,0,.78-3.82,4,4,0,0,0-2.94-2.57l-.62-.14a4.29,4.29,0,0,0-1.62,8.43Z"/><path class="cls-1" d="M214.49,218.79c6.54-2.51,3.07-12.82-3.49-10.3S207.93,221.31,214.49,218.79Z"/><path class="cls-1" d="M240.86,286.84a6.06,6.06,0,0,0,4.76.35,5.91,5.91,0,0,0,2.53-1.67c.32-.46.63-.93.94-1.39a5.9,5.9,0,0,0-2.67-7.88,6.18,6.18,0,0,0-3.13-.63,16.68,16.68,0,0,0-1.71.34,5.69,5.69,0,0,0-3.4,3,5.83,5.83,0,0,0-.59,3A6.05,6.05,0,0,0,240.86,286.84Z"/><path class="cls-1" d="M187.81,134.27c-5.32,2-2.49,10.43,2.85,8.39S193.16,132.22,187.81,134.27Z"/><path class="cls-1" d="M207.87,170.24a5.87,5.87,0,1,0,7.44,3.67A5.93,5.93,0,0,0,207.87,170.24Z"/><path class="cls-1" d="M244.89,218.4a6,6,0,1,0-3.74,7.57A6,6,0,0,0,244.89,218.4Z"/><path class="cls-1" d="M256.27,255.61a4.11,4.11,0,1,0-2.57,5.21A4.13,4.13,0,0,0,256.27,255.61Z"/><path class="cls-1" d="M260.44,282.9c3.78-1.45,1.77-7.41-2-6S256.64,284.36,260.44,282.9Z"/><path class="cls-1" d="M259.29,305.72a6.67,6.67,0,1,0-8.46-4.17A6.75,6.75,0,0,0,259.29,305.72Z"/><path class="cls-1" d="M269.11,342.94a6.35,6.35,0,1,0-4,8.05A6.39,6.39,0,0,0,269.11,342.94Z"/><path class="cls-1" d="M268.53,366.58c5.7-2.18,2.68-11.18-3-9S262.8,368.78,268.53,366.58Z"/><path class="cls-1" d="M241.92,317.55a3.47,3.47,0,0,0,3.09,1.53,3.7,3.7,0,0,0,2.31-1.14l.42-.37a3.17,3.17,0,0,0,.28-3.88,3.31,3.31,0,0,0-2.89-1.43h-.6C241.92,312.28,240.59,315.52,241.92,317.55Z"/><path class="cls-1" d="M250.93,366.9c5.45-2.09,2.56-10.68-2.91-8.59S245.46,369,250.93,366.9Z"/><path class="cls-1" d="M214.47,378.11c5.32-2,2.5-10.44-2.84-8.39S209.13,380.15,214.47,378.11Z"/><g id="Group_4102" data-name="Group 4102"><path class="cls-2" d="M284.88,92.24a37.3,37.3,0,0,0,6.28-2.83c1.43-3.83,5.92-6.65,7.69-10.72a31.64,31.64,0,0,0,2.39-14.3c-1.57-28.34-35.37-43.79-65.06-34.3,0,0-6.92-9.18-7.69-10-22.86-24.1-62.73-29.36-94.44,0-12.15-13-34.48-10.94-43,5.75.21-.44-13.82-15.58-35.3-21.13a45,45,0,0,0-24.89.5c-.08-.17-.17-.33-.26-.5a10.07,10.07,0,0,1-1.19.87,17.92,17.92,0,0,1-4.7,2.06l.08.14C16.23,12.34,9.59,20.43,7.41,32.32c-.36,2-1.22,14.34,1.42,18.37A29.62,29.62,0,0,0,2,66.46,25.86,25.86,0,0,0,7.34,86.08a21.14,21.14,0,0,0-3.65,6.56q-.82,2.89-1.46,5.82c-.48,2.83-.73,5.73-1,8.56l-1,11.32c0,4.75.13,9.5.09,14.27C.21,140.74-.18,148.88.1,157,.41,165.89,2.24,174.5,4,183.15c.3.53.61,1.07.92,1.59A53.07,53.07,0,0,0,11.82,199a21.34,21.34,0,0,0,11.76,7.81c6.38,1.79,12.93.87,18-3.51s9.86-8.73,14.4-13.52a8.14,8.14,0,0,0,2.72-6.31c3.28,3.31,4.42,8.25,8.4,11a15.94,15.94,0,0,0,6.54,2.57,61.94,61.94,0,0,0,8.06,0c2.83,10,6.27,20.62,13.58,28.29,3.69,3.87,9,7.77,14.43,8.79,6.31,1.2,16.41,1.1,21.61-3.1a21,21,0,0,0,4.29-5.35c9.34-14.86,14-28.42,14.88-46,.24-4.68-1.62-17.32,2.69-20.74,5.58-4.44,6.81-.56,10.51-17.42,4.92-22.46,14.54-.26,33.06-4,15.55-3.17,20.23-13.69,22.4-25.66,1.69-9.32-.57-17.89,14.24-21.79,6.51-1.72,17.77,1.49,25.89,2.61C267.92,94.81,276.66,95.05,284.88,92.24ZM218.2,90.45c-7.06,10.12-5.54,43.14-31.1,37.64-1.34-.29-10.22-3.1-10.5-3.21-23.56-9.44-20.23,19.89-25.39,25.5-3.72,4-11.32-1.29-10.9,9,.17,4.26,2.82,19.41-2.4,39.36-11.45,43.76-44.44,25.68-47.56-3.22-.28-2.51.17-6.52-2.21-8.18-4.16-2.91-15,13.81-25.55-17.91a3.55,3.55,0,0,0-7,.82c-.16,4.05-4.06,16.17-9.53,22.06-9.47,10.21-23.38,11.16-32.14-5a61.33,61.33,0,0,1-6.25-20.07h0c-1.18-14.51-2.37-29.39-1.54-44C8,112.58,10.51,102,13.05,91.62c7.51,5.53,16.73,6.95,21,3s-10-1-18.16-10.6a23.76,23.76,0,0,1-2.91-4.26,25.27,25.27,0,0,1-.06-23.29,25.64,25.64,0,0,1,8.55-9.51,34.59,34.59,0,0,1,8.46-3.8c.68-.23,2.93-.71,1.71-1.85-.8-.75-2.83-.49-3.78-.42a27.91,27.91,0,0,0-11.6,3.78c-1.57-7.77-1.62-16,3.06-22.78A30.55,30.55,0,0,1,39.2,9.68C67.52,5,89.61,34.06,94.62,38.86c1.71-15.53,19.83-25.69,34.58-15.58,2.52,1.73,4.89,4.07,7.36,6,6.34-13.16,39.88-31.61,72.53-16.17a55.93,55.93,0,0,1,13.84,9.23c4.58,4.14,7.28,8.57,10,14,19.52-7,48.93-4.26,58.43,17.35,4.94,11.24.7,24.63-10.8,29.71C262,91.52,232.35,70.2,218.2,90.45Z"/><path id="Path_28297" data-name="Path 28297" class="cls-2" d="M57.85,192.2c0-.54.07-1.11.11-1.71l-.27,0A3.14,3.14,0,0,0,57.85,192.2Z"/></g><path class="cls-1" d="M218.2,90.45c-7.06,10.12-5.54,43.14-31.1,37.64-1.34-.29-10.22-3.1-10.5-3.21-23.56-9.44-20.23,19.89-25.39,25.5-3.72,4-11.32-1.29-10.9,9,.17,4.26,2.82,19.41-2.4,39.36-11.45,43.76-44.44,25.68-47.56-3.22-.28-2.51.17-6.52-2.21-8.18-4.16-2.91-15,13.81-25.55-17.91a3.55,3.55,0,0,0-7,.82c-.16,4.05-4.06,16.17-9.53,22.06-9.47,10.21-23.38,11.16-32.14-5a61.33,61.33,0,0,1-6.25-20.07h0c-1.18-14.51-2.37-29.39-1.54-44C8,112.58,10.51,102,13.05,91.62c7.51,5.53,16.73,6.95,21,3s-10-1-18.16-10.6a23.76,23.76,0,0,1-2.91-4.26,25.27,25.27,0,0,1-.06-23.29,25.64,25.64,0,0,1,8.55-9.51,34.59,34.59,0,0,1,8.46-3.8c.68-.23,2.93-.71,1.71-1.85-.8-.75-2.83-.49-3.78-.42a27.91,27.91,0,0,0-11.6,3.78c-1.57-7.77-1.62-16,3.06-22.78A30.55,30.55,0,0,1,39.2,9.68C67.52,5,89.61,34.06,94.62,38.86c1.71-15.53,19.83-25.69,34.58-15.58,2.52,1.73,4.89,4.07,7.36,6,6.34-13.16,39.88-31.61,72.53-16.17a55.93,55.93,0,0,1,13.84,9.23c4.58,4.14,7.28,8.57,10,14,19.52-7,48.93-4.26,58.43,17.35,4.94,11.24.7,24.63-10.8,29.71C262,91.52,232.35,70.2,218.2,90.45Z"/><path id="Path_28294" data-name="Path 28294" class="cls-2" d="M75,168.4a26,26,0,0,0,12.5,1.69c1.56-.2,7.3-1.24,7.28-3.57a.43.43,0,0,0-.12-.31c-1-1.23-7.57-1.63-9-2a36.4,36.4,0,0,1-8.58-3.38,31.39,31.39,0,0,1-11.81-11.52c-5.42-9.23-6-20.58-3.7-30.85a36.88,36.88,0,0,1,2.6-7.13,17.72,17.72,0,0,0,1.56-3.54c.29-1.5-.89-1.43-1.72-.84a14.82,14.82,0,0,0-2.64,2.61,39.07,39.07,0,0,0-3.91,5.49C49.47,128.76,46.67,157.51,75,168.4Z"/><path id="Path_28295" data-name="Path 28295" class="cls-2" d="M133.23,92.6C135,107.36,150.6,124.93,178,108.87a35.58,35.58,0,0,0,9.37-7.82c1-1.14,4.3-5.48,3.28-6.64a.27.27,0,0,0-.22-.08c-1.18,0-5.81,4.24-6.92,5a45.25,45.25,0,0,1-7.64,4.25A31.21,31.21,0,0,1,161,106.23c-9.68-.85-17.11-6.83-21.69-14.78A25.8,25.8,0,0,1,137,84.92a13.55,13.55,0,0,0-.94-3.53c-.76-1.21-1.81-.24-2.2.8a14.8,14.8,0,0,0-.68,3.79A32.56,32.56,0,0,0,133.23,92.6Z"/></g></g></g></svg>