<svg xmlns="http://www.w3.org/2000/svg" xmlns:xlink="http://www.w3.org/1999/xlink" viewBox="0 0 671.04 660.99"><defs><style>.cls-1{fill:#fff;}.cls-2{mask:url(#mask);}.cls-3{fill:#b29362;}.cls-4{fill:#153c4d;}</style><mask id="mask" x="-91.66" y="26.39" width="632.4" height="795.66" maskUnits="userSpaceOnUse"><path class="cls-1" d="M333.56,274.49l.07,0c1.46-.8,2.83-1.6,4.16-2.48a9.66,9.66,0,0,0-1.67-2.85,18.23,18.23,0,0,0-5.22,3.57A4.78,4.78,0,0,1,333.56,274.49Z"/><path class="cls-1" d="M490,265c-17.94-32.53-41.29-61.1-71.27-83.37-6.51-4.84-13.32-9.36-20.33-13.58q-8.07-21.65-16.27-43.25c-6.2-16.29-24.87-24.52-41.14-20.25-15.85,4.15-29.16,20.59-26,37.79q1.49,8,3.09,16.06c-.67.67-1.3,1.36-1.91,2.06l-.11,0c-14.18-22.85-28.22-45.78-41.86-68.95-4-6.73-15.33-12.51-22.83-13.23a38,38,0,0,0-12.61.78c-9.73-14.4-27.8-26.58-45.42-27a34.91,34.91,0,0,0-18.16,2.3c-.5.21-1,.44-1.48.67a48.58,48.58,0,0,0-54.51-27.52,80.35,80.35,0,0,0-44.89,27,71.92,71.92,0,0,0-16.83,39.7C47.32,89.35,34.21,90.6,25,95.94c-.77.44-1.5.91-2.22,1.38A41.59,41.59,0,0,0,8.38,87.08c-21.85-9.09-44.6,2.94-54,23.36v0A41.18,41.18,0,0,0-65,113.3c-14.65,6-24.3,20.1-26.24,35.59-1.43,11.45,1.41,22.22,4.69,33.08A97.17,97.17,0,0,0-83,191.88c-3,6-4.84,13-3.23,19.22a348.54,348.54,0,0,0,21.69,61.4c8.26,17.55,17.71,34.49,27.3,51.33,17.29,30.34,33.82,60.75,48,92.59q-12.19,13.09-24,26.53c-11.21,12.77-22.52,26.88-27.3,43.47-1.69,5.84-3.21,11.54-2.46,17.71a34.81,34.81,0,0,0,10.3,20.41,35.14,35.14,0,0,0,37.76,7.73l4.79-1.92a80.66,80.66,0,0,0-7.53,22.89,412,412,0,0,0-32.11,48.11c-6,10.45-2.28,26,4.62,34.92,7.91,10.21,19.44,13.88,31.9,13.31l2-.11a35,35,0,0,0,41.79,3.46c7.39,0,15.4-1.8,20.84-6.67.18.22.35.44.54.66.37.44.76.87,1.14,1.31-14.4,18.48-28.21,37.42-41.08,57-6.92,10.52-9.49,22.51-4.54,34.54a35.3,35.3,0,0,0,4.13,7.37Q24,756.41,16.67,766A35.09,35.09,0,0,0,20,811.83c5.18,5.13,12.14,9.31,19.61,10,9.89.95,17.89-1.73,26.28-7q50.17-31.41,99.5-64.11l6.18,10.73c4.88,8.45,9.5,15.07,18.9,19,7.92,3.31,18.87,3.75,26.78.07,17.34-8,26.38-27.47,19.07-45.68l-5.51-13.72a37.76,37.76,0,0,0,10.09-5.45c12.65,20.09,26.11,39.66,40.58,58.5,10.63,13.85,30.22,17.15,45.05,8.59s21.92-27.23,15-43.34c-1.75-4.07-3.44-8.16-5.1-12.26,6.77,1.32,14.37.87,20.28-1.87,8.22-3.82,15.77-10.14,19-18.89a37.56,37.56,0,0,0,1.9-7.23,280.19,280.19,0,0,0,20.63,21.31c5.76,5.41,17.86,8.2,25.46,6.92a36.26,36.26,0,0,0,20.41-10.29c5.14-5.19,9.31-12.14,10-19.61,1-10-1.85-17.78-7-26.29q-11.94-19.77-23.52-39.75-3.63-6.32-7.21-12.65,9.35-7.53,18.22-15.67c.35.61.7,1.22,1.06,1.82,4.15,7,15.16,12.16,22.83,13.24,8.6,1.2,19.54-1.28,26.28-7s12.35-13.71,13.23-22.82l.09-9.08a37.21,37.21,0,0,0-.87-4.52,29.44,29.44,0,0,0,11-9.7q1.38-2.05,2.62-4.18a29.26,29.26,0,0,0,7.9-2.37c13.41-6.23,24.3-21.12,21.45-36.6-4.86-26.37-16.3-49.11-29.24-72.26q-17.93-32.08-35.27-64.49c-.83-1.54-1.65-3.09-2.47-4.63Q462,346.47,450.2,312.49c6.88,1.43,14.69,1,20.72-1.77,8.22-3.82,15.77-10.14,19-18.89C492.91,283.69,494.37,273,490,265ZM351.86,289c0,.11,0,.21,0,.32a3.78,3.78,0,0,1-.26.43,3.94,3.94,0,0,0,.57,1.23l0,.08a66.14,66.14,0,0,1-6.21,5.14,91,91,0,0,1,5.58-8.25l.18.42C351.67,288.32,351.82,289.54,351.86,289Zm16.38-29.84a5.65,5.65,0,0,1,2.59,3,4.09,4.09,0,0,0-4.19,1.17A176.34,176.34,0,0,1,353,276.46a4.87,4.87,0,0,0-.7.75c-.78.4-1.55.81-2.28,1.26-3.29,2-5.22,5.45-7.39,8.56q-3.44,5-6.77,10a3.54,3.54,0,0,0-2.27.94l-6.49,5.81-3.2,1a4,4,0,0,0-2.45,4.1c-1.43.21-2.86.38-4.26.52a5.32,5.32,0,0,1-5.87-5,5.8,5.8,0,0,1-4.18-1l-.71-.52a5.65,5.65,0,0,1-3.21-.23,5.08,5.08,0,0,1-2.76-2.69c-4.11.43-8-3.95-4.93-8.36,1.07-1.53,2.3-3.52,3.7-5.5-.23-.15-.44-.33-.66-.5.07,0,.13-.07.19-.12,5.81-4.52,13.72-7.12,20.37-10.24,4.43-2.07,1.95-8.8-2.42-7.59-.19-.1-.39-.18-.59-.27,0-2.28-2.08-4.64-4.51-4.19-1,.19-2,.41-3,.64l0,0a5.33,5.33,0,0,1,5.56-1.66,28.85,28.85,0,0,0,3.79-3.86,22.58,22.58,0,0,1,2.37-3.52,51.84,51.84,0,0,1,4.23-6.44,24.11,24.11,0,0,1,5.81,3.35c-2,2.8.79,7.67,4.78,6a3.64,3.64,0,0,0,2.38-3.68c2.24-1.31,3.34-4.64.61-6.58a63,63,0,0,0-8.76-5.58c2.73-3.31,8.35-1.43,9.28,2.46.71-.54,1.42-1.08,2.14-1.61a5.69,5.69,0,0,1,6.52,0,53.26,53.26,0,0,0,5.89-3.7c5-3.64,11,2.55,7.54,7.5q-.63.88-1.29,1.77a11.57,11.57,0,0,1,2.74-.68C369.56,246.77,371.8,254.53,368.24,259.14Z"/></mask></defs><g id="圖層_2" data-name="圖層 2"><g id="event"><g id="pipi_beer"><g class="cls-2"><path class="cls-3" d="M306.7,513.9a24,24,0,0,1-7.33,7.21A20.76,20.76,0,0,1,283,523.5a10.84,10.84,0,0,1-5.06,10c-5,2.91-10.93.91-14-3.68-1.9-2.82-3.67-5.72-5.34-8.67a24.55,24.55,0,0,1-8.26,2,16.66,16.66,0,0,1-2.22,1.28l-1.31.64c2.14-.77-3.82,2.05-5.82,3.25-3.4,2-6.77,4.13-10.17,6.18-6.91,4.17-13.91,8.22-21.2,11.69-2.08,1.43-4.15,2.89-6.18,4.4a18.22,18.22,0,0,1-12.54,3.11,51.14,51.14,0,0,1-17.24,2.41l-.77-.07c-.14,1.71-.32,3.42-.56,5.13-1,7.08-8.12,13.16-14.65,15.34,1.42,4.8,2.87,9.59,4.26,14.4.11.38.24.78.36,1.17,3.24-.88,6.72-1.88,10.59-3.07,10-3.08,20.45-6.7,33.78-11.74,9-3.43,17.54-6.85,25.44-10.17l5.49-2.34c10.35-4.47,19.26-8.53,27.23-12.4,16.34-7.9,30-15.35,39.53-21.55l.91-.6a45.09,45.09,0,0,0,7.68-5.79Q309.82,519.15,306.7,513.9Z"/></g><g class="cls-2"><path class="cls-3" d="M148.24,592.55C146.51,587,144.78,581.49,143,576a27.89,27.89,0,0,1-8-5c-14.45-12.56-13-31.47-12.1-48.66-3.91-10.26-7.86-20.51-12-30.7l-2.91-7.13q-5.51-11.08-10.87-22.22c-1.9-2.73-3.84-5.44-5.85-8.15C77.7,436,65.08,416.49,62.65,394.56l-7.6,2.66,1.34,3.18c8.81,21.83,17.14,43.29,24.83,64,10.31,27.7,18.85,52.65,26.15,76.3,1.51,4.91,2.92,9.92,4.27,14.77,2.1,7.49,4.27,15.23,6.87,22.7a30,30,0,0,0,9.21,13.42,19.72,19.72,0,0,0,7.44,3.82,16.34,16.34,0,0,0,4.51.45,26.67,26.67,0,0,0,9.41-.57Z"/></g><g class="cls-2"><path class="cls-3" d="M270,587.76c-91.56,37-83.32,39.49-83.32,39.49,1.84,6.8,77.13-26.14,87.05-30.7C324.54,573.33,324,566.07,270,587.76Z"/></g><g class="cls-2"><path class="cls-3" d="M402.79,391.43c-.64-25-10.12-49-19.81-71.67-7.76-18.2-16.54-37.11-28.86-53a115.94,115.94,0,0,0-15.72-17.69A53.69,53.69,0,0,0,312,235.8c-10.87-2-22.27.58-32.65,3.84-12.77,4-57.07,26.05-65.55,7.05-2.62-5.87-6.16-17.43-14.76-16.27A419.67,419.67,0,0,0,5.07,309.68a5.57,5.57,0,0,0-2.19,3.16c-2.35,1.52-3.65,4.79-2.39,7.39,28.77,59.2,53.17,119.49,75.15,181.53C87.31,534.7,97,564.61,105.33,593.2c1.73,6,3.33,12.06,4.88,18,2.4,9.14,4.88,18.6,7.9,27.76a36,36,0,0,0,11,16.51,23.73,23.73,0,0,0,9,4.73,20.42,20.42,0,0,0,5.52.56c5.34.9,11.57-.61,16.67-1.85l2.18-.52c6.48-1.51,13.46-3.43,22-6,12.35-3.79,25.17-8.25,41.58-14.45,11.06-4.22,21.6-8.43,31.33-12.53q3.42-1.44,6.77-2.88c12.74-5.51,23.71-10.5,33.52-15.27,20.13-9.72,36.94-18.88,48.62-26.51l1.13-.73c3.76-2.44,7.65-5,10.67-8.48,3.45-4,5.08-9,5-15.14,0-.57,0-1.15-.07-1.72a38.28,38.28,0,0,0-3.9-14.36c-.1-.22-.21-.43-.32-.64-4.43-8.54-9.46-16.93-14.34-25.08l-.07-.12c-1.07-1.79-2.16-3.6-3.24-5.42a11.86,11.86,0,0,1-.71-4.19,17.1,17.1,0,0,1,2.45-7.75c2.72-4.85,6.69-8.94,10.72-12.71a255.69,255.69,0,0,0,25.1-26.42C394,438.69,403.42,416.09,402.79,391.43ZM188.54,244.14c-10.31,7.32-21.58,13.16-33.1,18.57-15.92,7.47-32,14.74-48.17,21.58C81,295.38,54,304.92,25.92,309.54A407.05,407.05,0,0,1,188.54,244.14Zm156,293.71a70.3,70.3,0,0,1,3.37,7.39,62,62,0,0,1,2.34,8.06,14.68,14.68,0,0,1-2.52,12.58c-2.51,3.23-6.15,5.54-9.66,7.78l-.19.12c-11,7-27.57,15.75-48,25.4-12,5.63-22.92,10.53-33.29,15l-10.37,4.4c-10,4.19-18.9,7.82-27.33,11.08-14.18,5.5-28,10.42-41,14.63-8.29,2.66-15.08,4.62-21.35,6.16l-.57.14c-4.63,1.13-9.42,2.3-14,1.91-13.5-1.15-18.14-18.46-21.22-29.91l-.24-.9c-3.51-13-7.59-27.07-12.83-44.26-9-29.49-18.78-58.92-29-87.47-13.47-37.47-27.92-74.57-42.09-111.78-1.24-5.14-17.09-55.51-21.42-55,33.51-3.66,65.73-14.68,96.68-27.75,16.77-7.08,33.39-14.59,49.85-22.37,14.4-6.82,28.59-14.39,40.94-24.49-3.07,2.5,30.26,68.8,33.19,75.25,1,2.27,2,4.5,3,6.7,5.52,8.49,9.59,18,13.21,27.36.86,2.23,1.67,4.47,2.46,6.72,7.1,15.24,13.78,29.32,20.34,42.84,13.24,27.3,27.46,54.87,42.26,81.94,8.61,15.76,15.81,28.51,22.67,40.12C341.44,532.25,343.05,535,344.53,537.85ZM308.85,448a7.77,7.77,0,0,1-2-1.86c-5.36-10.42-10.9-21.46-16.47-32.81-3.27-6.67-6.62-13.56-9.95-20.5-5.32-11.09-10.71-22.51-16-33.95s-10.62-23.07-15.64-34.24c-1.86-4.13-3.7-8.26-5.55-12.39.22-5,1.24-9,4.26-13.22,3.55-4.89,9.51-7.71,14.85-10.15,10-4.57,20.95-9.54,32.13-9.27s19,8.07,25.26,16.38c7.92,10.57,14.12,22.67,19.56,34.66,10.19,22.48,17.25,47.48,13.35,72.28a56.13,56.13,0,0,1-21,36A50.9,50.9,0,0,1,318.79,446a32,32,0,0,1-6.61,2.11,7.21,7.21,0,0,1-3.1,0l-.1,0h0Zm81.57-31.72c-6.41,21.07-21.21,38.76-36.8,53.94-6.4,6.23-13.41,11.9-18,19.48a2.72,2.72,0,0,0-.24-.24c-1.39-1.16-2.7-2.38-3.95-3.65C343,471,389.82,440.64,391.21,394.8c.55-18-3.88-36.1-10.19-52.75-3.36-8.87-7.23-17.75-11.1-26.25-2.95-7.38-7.16-14.26-10.62-21.22a139.05,139.05,0,0,0-24.84-35.42c-.13-.13-.45.18-.32.32,9.71,10.51,17.28,23.07,23.58,35.84.11.22.2.45.31.67,6,13.27,12.57,26.74,17.55,40.31,24,65.4,15.89,94.41-47.9,145.36a56.67,56.67,0,0,1-5.66-8.59,58.94,58.94,0,0,1-3.84-9.75c28.68-4,46.25-30.81,48.49-59.75.16-2.09-1.25-2.36-1.54,0a66.52,66.52,0,0,1-48.23,55.92c-.38-1.1-.8-2.18-1.25-3.25,22.08-6.14,37.5-23.77,44.16-45.89,7.74-25.73.7-53-9-77.16a218.2,218.2,0,0,0-20.44-38.63c-6.39-9.71-14.49-18.76-25.84-22.48-11.09-3.64-23-.31-33.49,3.73-11.27,4.35-23.95,9.34-31.14,19.56-.16.21-.3.44-.45.66q-1.18-1.69-2.4-3.36c7.64-9.85,20-15.27,31.4-19.9,14.16-5.77,33.5-10.33,47.19,1.61,1.81,1.58,2.59.55.89-1.11-13-12.68-32.45-13.41-47.62-7.39-12.75,5.06-26,12-34.72,22.84a68.19,68.19,0,0,1-5.18-8.36l-2.89-6.61c-.86-2.25-1.61-4.54-2.26-6.84-.29-1-.51-2.08-.72-3.13a.9.9,0,0,0,.68.54c13,1.19,26.71-1.74,38.61-6.46a213.08,213.08,0,0,1,43.64-12.48.12.12,0,0,0,0-.24c-13-1-22.47,2-38.18,8.12a127.15,127.15,0,0,1-44.34,8.86c-.37,0-.55.32-.59.71-.25-1.31-.5-2.62-.85-3.89,19.62,3,39.2-6.61,57.68-12.77,12.19-4.07,25.28-6.46,37.71-2.37,11.68,3.85,20.75,13.17,28.1,22.56,17.15,21.89,28.36,48.91,37.95,74.8C392.41,365,398.05,391.22,390.42,416.32Z"/></g><g class="cls-2"><path class="cls-3" d="M320.41,528.48c-6.78,3.3-13.24,7.43-20.45,11.58-7,4-14,8.22-21.14,12-14,7.47-28.33,14.75-43,20.92-15.68,6.59-31,11.59-47.33,16.74-7,2.19-14,4.24-21.08,6.23-7.53,2.13-14.67,3.92-23,6.87a3,3,0,0,0,.24.56c15.9.45,32.62-4,48-7.77,15.66-3.87,31-9.63,45.89-15.79h0l.11-.05.12,0h0c14.82-6.34,29.66-13.29,43.38-21.77,13.35-8.27,28.08-17.07,38.85-28.63A.56.56,0,0,0,320.41,528.48Z"/></g><g id="pipi-pick"><path class="cls-3" d="M332.55,200.45a1.32,1.32,0,0,1-1.93,0,1.28,1.28,0,0,1,1-2.16A1.31,1.31,0,0,1,332.55,200.45Z"/><path class="cls-3" d="M315.82,188.89c-3.06-2.74,2.3-10.17,6-9.82,1.7.16,2.42,1.76,1.24,3-1.44,1.48-2.75,2.65-3.41,4.43C320.83,189.25,317.64,190.52,315.82,188.89Z"/><path class="cls-3" d="M336.59,171.72c1.31-1.69,4,.33,2.91,2.14-.58,1-1.26,2.12-2.15,2.31-6.4,5.58-13.38,2.56-13.94-2.77a13.83,13.83,0,0,1-7.63-1c-4.37,9.77-17.7,6.59-18.94-1.09a1.11,1.11,0,0,1,2-.83c4.3,6.58,11.37,5.67,13.3-.71-1.47-3,1.31-6.19,3-5.19,1,.64,1.56,2.88,1.44,4.72,5.18,2,7.11.46,8.22-1.12a1.59,1.59,0,0,1,2.9,1.2h0a4.54,4.54,0,0,1-1.83,3C326.2,175.62,331.62,178.11,336.59,171.72Z"/><path class="cls-3" d="M346.58,155.7c7-5.3,14.41,2.75,13.74,8.62a1.37,1.37,0,0,1-.45.88c-2.07,1.86-3.93-4.15-6.08-5.91a3.71,3.71,0,0,0-5.33.33c-.34.33-.72.72-1.1,1.15,1.62-1.27,3.24-1.24,3.84-.21.73,1.27-.36,2.12-1.23,2.8-3.4,2.58-1.2,4-.64,6a1.66,1.66,0,0,1-2.41,1.89c-2.24-1.23-2.75-4.76-1.86-7.2a8.41,8.41,0,0,0-.65,7.18c.45,1.12-1,1.87-1.81,1.21C336.82,168,342.08,159.13,346.58,155.7Z"/><path class="cls-3" d="M349,175.19c-.61-.41-.53-1.27-.46-2,.09-.95.28-1.8,1.4-2.17,2.74-.91,6.39,2.61,5.62,4.69a5.48,5.48,0,0,1-1.14,2.19c-1.4,1.38-4.13.71-3.25-2.55a1.91,1.91,0,0,0-.52-.33A1.71,1.71,0,0,1,349,175.19Z"/><path class="cls-3" d="M362.3,169.78c.54-.13.91.39,1,.56,3.82,5.42-1.3,14.82-6.75,16.26-1.54.4-3.16-1.38-2.12-2.82a2.14,2.14,0,0,1,1-.91,13.36,13.36,0,0,0,2.54-2c2.37-2.65,2.82-4.91,3.29-8.44C361.53,170.73,361.64,169.94,362.3,169.78Z"/><path class="cls-3" d="M328.72,196.15l-.11-.19a2.82,2.82,0,0,1-3.62-2.57c-.4-3.77,2.82-7.86,4.29-8.58a15.48,15.48,0,0,0,2.33-1.21A.88.88,0,0,1,332.7,185c-1,.87-1.69,3.34-1.95,6.72l2.35,1.38a1.44,1.44,0,0,1,.93.45,1.52,1.52,0,0,1,.26.32,2,2,0,0,1,.68,1.07c.35,1.57-1.23,2.74-2.6,2.9A3.89,3.89,0,0,1,328.72,196.15Z"/><path class="cls-3" d="M334.25,197.85a1.38,1.38,0,0,1,1.51-.24,1.39,1.39,0,1,1-1.51.24Z"/><path class="cls-3" d="M368.53,243.18c1.56-1,.94-.9,1.44-2.37a2.17,2.17,0,0,1,3.9-.55c1.19,1.7.48,4-1,5.49a4.18,4.18,0,0,1-3.26,1.36A2.13,2.13,0,0,1,368.53,243.18Z"/><path class="cls-3" d="M343.81,251.09c-15.23,17.36-16.48,20.77-17.58,20-.46-.31-.18-.82,0-1.2,3.86-7.12,17.38-25.5,24.61-30.85,5.06-3.74,8.51-3.45,9.75-2.68a1.1,1.1,0,0,1,.64,1.11,1.06,1.06,0,0,1-.9.8C353.47,239.79,350.69,243.24,343.81,251.09Z"/><path class="cls-3" d="M386.68,169.09c-5.57,5.55-14.94,2.92-16.83-2.44a1.07,1.07,0,0,1,1.74-1.11c1.65,1.41,3,2.81,5.17,3.26,7.72,1.64,9.47-4.85,10.41-8.34l.38.1-.38-.1c.36-1.34.53-2,1.12-2C389.62,158.33,391.61,164.2,386.68,169.09Z"/><path class="cls-3" d="M325.86,210.29c-5.36-5,1.93-10.08-7-14.74-3.29-1.73-7-2.93-9.86-5.54-4.08-3.69-3.34-9.41-.9-9,1.82.28.66,2.55,2.13,4.9,3.55,5.7,15.68,6,16.8,14.79.33,2.51-.66,6.4,1.73,7.58a3.14,3.14,0,0,0,2.87.21,5.83,5.83,0,0,1,7.58,4.45c4-1.14,5.16-4.43,6-5.65a33.23,33.23,0,0,1,.44-3.9c.14-.87.16-1.7,1.06-2a1.84,1.84,0,0,1,2.43,2c0,.21-.42,2.32-.72,3.52-.17.68.11,2.13,0,3-.23,1.24-.7,1.65.1,2.79,5.1,7.24,17.92-3.5,22.13-11.28,2.37-4.36,4.29-10.06,2.51-14.71-.71-1.85.65-1.87,1.18-1.39,2.16,1.93,2.47,5.68,2.56,8.38,1-1,.85-3.71,1.33-5.09,2.57-7.39,10.19-11.39,11.79-9.25,1.18,1.59-.52,3-2,4.09-3.28,2.46-6.7,7.26-8.4,13.16-2.66,9.28-11,15.69-14.93,24.68-.49,1.14-2,9.6-3.77,8.87a.7.7,0,0,1-.41-.92c1-2.76,1.5-5.7,2.57-8.48.08-.21.16-.42.25-.62,1.23-3.14,2.61-6.21,3.91-9.32-5.28,4.88-13.39,9.74-19.55,6-2.93,2.07-5.67.53-4.86-1.27-2.41,1.24-5.52,2.08-6.88,1.18-1.6-1.08.39-2.77-1.17-4.23S329,213.18,325.86,210.29Z"/><path class="cls-3" d="M361.27,271.84a19.2,19.2,0,0,1,3.5-4.69,5,5,0,0,0,2-1.92c1.72-1.53,3.53-3,5.12-4.55a5.86,5.86,0,0,0,1.93-4.77c1.91-2.31,3-3.88,3.07-3.92,1.39-1.7,3.78-3.31,6.53-5.17C394.3,239.51,396.68,236,400,230.53c2.22-3.73,4.52-7.6,8.6-9.79,6.47-3.51,8.11-.33,6.68,1.51-.94,1.2-8,4.3-12.39,13.64-3.1,6.54-11.79,12.64-16.8,15.15a17.53,17.53,0,0,0-6.58,5.75,31.27,31.27,0,0,1-4.41,5.06,97.89,97.89,0,0,1-13.92,10.2C361.17,272,361.23,271.92,361.27,271.84Z"/><path class="cls-3" d="M292,168.55a1.12,1.12,0,0,1-.4,1.26c-4.4,3.17-6.06,6.2-5.27,9.71l.8-1.51a1.19,1.19,0,0,1,2.16.94,12.21,12.21,0,0,0,.58,5.33,8,8,0,0,0,3.06,4c4.66,2.91,8.71.44,9.68.3a1.84,1.84,0,0,1,1.62,3.17c-3.05,3-14.66,2.93-17.42-7a1.24,1.24,0,0,1-.66.09c-2.92-.36-6.45-11.35,2.31-16.49a4.18,4.18,0,0,1,2.14-.43C291.15,167.87,291.75,167.83,292,168.55Z"/><path class="cls-3" d="M347.33,113.38c4.87-5.74,15-.66,13.82,8.76a15.36,15.36,0,0,1-3.43,8.13,1.28,1.28,0,0,1-2.06-1.32c1.42-4,3.51-8.76.83-12.57-2.57-3.66-6.87-2.08-7.45.47a1.6,1.6,0,0,1-3.07.08c-2-5.62-10.47-4.57-10.89,1.74a1.26,1.26,0,0,1-2.48.27c-1.81-8.78-17.53-8.79-21,8.86a.68.68,0,0,1-1.33-.26c3.07-18.52,17.88-20,23.28-12.47A8.39,8.39,0,0,1,347.33,113.38Z"/><path class="cls-3" d="M372.57,149.83a1.37,1.37,0,0,1-1.53-2c1.26-1.71,4.22-5,2.4-9.36a7.8,7.8,0,0,0-8.4-4.29,1,1,0,0,1-.55-1.94c7-2.4,13.56,2.52,13.27,9.54C377.6,145.58,375.44,149,372.57,149.83Z"/><path class="cls-3" d="M363.15,12.06A19,19,0,0,0,353.88.24a1.82,1.82,0,0,0-2.35.46,1.85,1.85,0,0,0,.12,2.39c2.29,3,2.87,7.09,2.27,10.71-.71,4.31-2.9,8.19-5.43,11.69a18.88,18.88,0,0,1-4.76,5.15A23.38,23.38,0,0,1,337.44,33c-3,.84-6,1.62-9,2.49a13.34,13.34,0,0,0,2.39-2.25c2.84-3.47,4.19-8.15,5.39-12.4s1.85-9-.14-13.23c-.7-1.49-2.94-.25-2.24,1.24,1.64,3.49,1,7.47,0,11-.57,2.06-1.25,4.1-2,6.11a17.81,17.81,0,0,1-3.22,5.89c-3.11,3.48-8,4.51-12,6.59a34.39,34.39,0,0,0-10.21,8.12,35.24,35.24,0,0,0-7.11,13,1.17,1.17,0,0,0,.29,1.19,37,37,0,0,0-2.93,17.07A24.17,24.17,0,0,0,302,91.06a18.26,18.26,0,0,0,5.38,4.43,8.43,8.43,0,0,0,4.72,1.18,13.78,13.78,0,0,0,1.63,4.26,17.55,17.55,0,0,0-11.49,18.12c-3.69,0-14.09,4.7-15.64,17-.46,3.68.06,9,2.9,10.94a16.12,16.12,0,0,0-.37,19.79.81.81,0,0,0,1.18.1.76.76,0,0,0,.13-1c-6.46-10.66,3-24,8.2-17.63a1,1,0,0,0,1.76-.7c-.17-3.54-5.19-5.92-9.81-1.73-.44-2.53-5.08-16.51,9.26-22.66,1.08-.46,2.21-.75,3.31-1.28a.91.91,0,0,0,1,.52c1.16-.33.41-3.83.45-5.19.28-8.85,8.8-16.84,20.1-13.15,1.44-5.06,5.05-7.76,8.62-8.08,2.54-.23,5.58.25,6.34,2.69.39,1.29-1,2.23-.3,3.35a1,1,0,0,0,1.06.69c.93.19,1.77-.37,2.32-1.55A31,31,0,0,1,354,96.36a1.93,1.93,0,0,0,2.8,1.93c4.43-2.13,12.25-3.05,11.46-1.43-.53,1.1-2.41,1.3-3.67,1.49-2.33.39-2.08,3.75-.07,4.31,13,3.66,23.51,7.86,23.48,22.09a1.69,1.69,0,0,0,3,1,7.17,7.17,0,0,1,5.23-.63,7,7,0,0,1,4.6,4.16c2.77,5.84-.89,10.65-1.54,13a1.65,1.65,0,0,0,1.78,2.78c2.33-1.24,5.92.45,4.54,3.34a3.58,3.58,0,0,1-2.06,1.69c-1.16.57-1.48,2.65.71,3.38.46,6.57-5.65,8.8-6.88,5.27a1.05,1.05,0,0,0-2,0c-.56,1.83.29,3.79.2,5.42a9.23,9.23,0,0,1-5.71,8.28c-1.86.17-2.51-.13-2.93.46-.59.21-.77.91,0,1.34.78.95,5.56,2.53,10.29-2.17a10.6,10.6,0,0,0,3-5.9c5.41-.13,10.53-9.48,6.71-14,3.84-3.31,3.23-10.2-2.31-11.29,5.07-11.33-3.42-20.78-12.2-18.92a12.18,12.18,0,0,0-.76-6c-3.35-9.71-12.44-13.71-20.19-16,2.81-3.42,2-10.24-10.22-7.3-2-1.81-12.52,1.19-18,5.31-.7-4.92-6.43-6.73-11.72-4.93a2.5,2.5,0,0,0,0-.82,8.75,8.75,0,0,0-2.18-4.52,1.27,1.27,0,0,0-.4-1.52,4.07,4.07,0,0,1-.9-4.6c.74-2,2.55-3.49,4.21-4.72a44.61,44.61,0,0,1,12.32-6.4c4.2-1.4,8.59-2.09,12.76-3.58a21.79,21.79,0,0,0,10.93-7.77A14,14,0,0,0,369.82,46a1.53,1.53,0,0,0-1.54-.79A1.61,1.61,0,0,0,367,46.29a11.51,11.51,0,0,1-6.23,6c.36-.34.7-.69,1-1a74.21,74.21,0,0,0,7.35-8.77,21,21,0,0,0,2.34-19.36,31,31,0,0,0-6.79-10.7A1.37,1.37,0,0,0,363.15,12.06ZM326.72,95.83c.16-.44.33-.88.5-1.32.16-.09.32-.17.48-.27a1.36,1.36,0,0,0,.5-.48,1.84,1.84,0,0,0,.61.49A12.48,12.48,0,0,0,326.72,95.83Zm-5.16,4.29a6.3,6.3,0,0,0,2.3-.55h0q-.22.44-.42.9A16.42,16.42,0,0,0,321.56,100.12Zm36-91.7a14.63,14.63,0,0,1,2.4,6.29c.56,4.27-.94,8.77-2.7,12.6a43.52,43.52,0,0,1-17,19,41.87,41.87,0,0,1-13.49,5.25c-2.32.46-1.42,4,.88,3.55a46.46,46.46,0,0,0,24.62-13.88,46.48,46.48,0,0,0,8.05-11.82c1.92-4.12,3.55-8.76,3.41-13.38,3.71,4.4,6.25,9.84,6,15.71a16.84,16.84,0,0,1-2.81,8.51,62.79,62.79,0,0,1-6.52,8,25.67,25.67,0,0,1-9.17,6.93c-1.69.67-.52,3.21,1.13,2.87,5.6-1.17,11.68-2.81,15.37-7.17A12,12,0,0,1,365,58.23c-2.85,3.52-7.05,5.32-11.31,6.52s-8.84,2.14-13.08,3.86a42.24,42.24,0,0,0-12.17,7.31,10.6,10.6,0,0,0-3.8,6.37,7,7,0,0,0,1.51,5.53c-1,1.37-3.18,1.85-4.67,2.4A53.62,53.62,0,0,1,315.78,92a13.65,13.65,0,0,0-2.54.62,1.72,1.72,0,0,0-1,.23c-1.29.7-3.18-.6-4.22-1.28a15.22,15.22,0,0,1-4-3.84,20.64,20.64,0,0,1-3.74-10.71,32.57,32.57,0,0,1,1.82-12.17,52.74,52.74,0,0,1,5.48-11.68,27.56,27.56,0,0,1,9.28-9.13,51.58,51.58,0,0,1,11.62-4.8c4.15-1.25,8.39-2.25,12.53-3.55a16.55,16.55,0,0,0,6.45-3.42A32.07,32.07,0,0,0,351.92,27a29.85,29.85,0,0,0,5.71-13.48A19,19,0,0,0,357.58,8.42Z"/><path class="cls-3" d="M327.6,92l0,0a4.48,4.48,0,0,0-.21-.55l-.24.16A1.38,1.38,0,0,1,327.6,92Z"/><path class="cls-3" d="M523.52,156.29c-.49-1,.87-2.1,1.65-1.17,24,28.56,8.87,77.25-9.46,87.84a1.12,1.12,0,0,1-1.52-1.52c3.92-6.61,12.34-14.36,16.78-30,6.21-21.91-.78-43.19-5.9-52.31C524.56,158.18,524,157.25,523.52,156.29Z"/><path class="cls-3" d="M658.58,231.93c3.26-2.31,7.85,1.27,6.27,2.5a.89.89,0,0,1-1.25-.08,3.51,3.51,0,0,0-4.16-.89A.88.88,0,0,1,658.58,231.93Z"/><path class="cls-3" d="M556.33,272.91a.33.33,0,0,1-.22-.52A1.57,1.57,0,0,0,556.33,272.91Z"/><path class="cls-3" d="M556.6,271.27c.79-.8,2.77-.63,3.77-.51a21.14,21.14,0,0,0,6.4-.56,40.05,40.05,0,0,0,8-2.69c2.67-1.28,4.5-3.39,6.91-4.89,1.8-1.12,3.77-2,5.58-3.07,4.61-2.79,9-6,13.32-9.19,9.24-6.81,18-11.83,27.69-12.18,15.77-.58,19.69-3.63,29-1.7,1,.22,2.08-.4,3-.07.57.2,1.33.22,2,.5,1.35.6,1.21,2.65-1.4,2.47-5.39-.37-11.2-1.51-16.41.05-17.49,5.25-15.09-6-41.7,13.41a140.08,140.08,0,0,1-13.17,9c-3.49,2-7.05,3.79-10.37,6a52.8,52.8,0,0,1-5.56,3.3c-1.29.65-2.71.93-4,1.54a15.45,15.45,0,0,1-9.69,1C559,273.48,555.17,272.71,556.6,271.27Z"/><path class="cls-3" d="M666.9,236.26c.1,1.37,1.67,2.09,2.48,1,.6-.83.3-1.68.13-3.18a12.55,12.55,0,0,0-.51-2.61,1,1,0,0,0,1.89-.24c.66-2.38-.89-5.26-2.77-6.87a9.19,9.19,0,0,0-6.35-2.05,13.48,13.48,0,0,0-5.09-4.65c-6.66-3.48-14.32.83-19.77-1.35-3.12-1.25-4.83-4.75-6.72-7.65-5.83-8.92-13.94-9.11-19.49,2.35a1.33,1.33,0,0,0,2.34,1.25c3.62-6.08,7-9.68,12.22-4.89,4.14,3.81,5.39,10,11.34,12.06,8.1,2.82,16.24-5.47,23.78,6.63.53.84.28,2.09,1.06,3,1.18,1.42,2-.17,2.57-.16s2.9,2.49,3.21,4.78C667.33,234.56,666.82,235.23,666.9,236.26Zm-3.59-10.11a8.83,8.83,0,0,0-.25-1.05,5.93,5.93,0,0,1,5,3.29,15.18,15.18,0,0,1,.74,2.53,8.84,8.84,0,0,0-2.72-3.19C665.17,227.06,664.81,227.24,663.31,226.15Z"/><path class="cls-3" d="M632.05,217.74c.59.19,1.28.41,1.28,1a.69.69,0,0,1-.23.52c.94,2,1.28,2.59.61,3.26a1,1,0,0,1-1.32.13,16.33,16.33,0,0,1-2.11-1.58c.42.6.93,1.12.44,1.57-1,.9-4.57-2.17-6.25-9a.69.69,0,0,1,1.34-.36c.08.29.17.57.27.85,0-.59.81-.86,1.2-.13a18.56,18.56,0,0,0,3.3,4.41A1.09,1.09,0,0,1,632.05,217.74Z"/><path class="cls-3" d="M506.13,197.3c-6.36,11.25-15.23,21.29-20.34,33.14-.22.49-.38.47-.88.52l-.18-.28c-.5-.78,3.36-9.38,8.3-18,3.11-5.44,6.59-10.76,9.61-16.23,7.78-14.13,8.2-20.56,9.06-31.56a1.19,1.19,0,0,1,2.33-.29C516.84,174.59,511.2,188.35,506.13,197.3Z"/><path class="cls-3" d="M581.09,75.23a11.9,11.9,0,0,0-3.86,0,4.2,4.2,0,0,0-3.8,3.85.91.91,0,0,1-1.82,0c-.16-7,6.44-9.49,10.21-5A.74.74,0,0,1,581.09,75.23Z"/><path class="cls-3" d="M575.34,71.62a2.49,2.49,0,0,0-2.83.66,1.09,1.09,0,0,1-1.47,0c-1.51-1.26,1.85-4.17,5.17-2.82A1.16,1.16,0,1,1,575.34,71.62Z"/><path class="cls-3" d="M568.89,78.47c-5.19.27-7.87,3.47-10.45,6.57-4.67,5.59-6.17,6-11.71,7.38-10.45,2.63-14.64,5.38-9.21,14.73a6,6,0,0,0-1.09.51c-2.32-3-4-6.67-2.82-10.28,1.58-5,7.22-6.12,10.13-6.78,7.15-1.62,9.34-3.36,12.62-7.16s6.64-6.76,12.06-7.09C569.77,76.27,570.29,78.4,568.89,78.47Z"/><path class="cls-3" d="M555,90.43a.94.94,0,0,1,1.09.17c1.44,1.44-3.42,5.32-8.35,5.83a.83.83,0,0,1-.35-1.6c5.33-2.11,5.24-2.76,5.64-3l.27.28-.26-.29A7.35,7.35,0,0,1,555,90.43Z"/><path class="cls-3" d="M549.32,113.14c-.65.89-2.83.51-3.75-1.22-1-1.91-.24-4.53,1.67-4.29a1,1,0,0,1,.75.43c.71,1.16-1.49,2.32.56,3.3C549.35,111.75,549.84,112.43,549.32,113.14Z"/><path class="cls-3" d="M545.91,116.75c-.74,6.32-8.39,14.69-2.66,32.38.23.68,0,.8-.4,1.09-1.83-.83-5-10.48-3.54-20.15,1.29-8.45,7.09-14.91,1.34-20-.84-.75-.35-1.84,1.23-1.32C543.65,109.33,546.5,111.67,545.91,116.75Z"/><path class="cls-3" d="M542.24,150.37c1-.22.67.9,2.89,5.34-.27-.83-.26-.83-1.6-6,2.89,5.54,4.63,10.07,12.44,13.63-.65.66-1.14,1.47-3,.52-.13.74-1.15,1.2-3.18-.55.44,1.43-1.47,2.8-4.94-3,.25,1.13-2,2-3.86-4.18-.8-2.61-.74-5.36-.28-5.78l.24-.22c.42.14.7.18.73.76a16.86,16.86,0,0,0,1.7,6.53,20.87,20.87,0,0,1-1.63-6.39A.62.62,0,0,1,542.24,150.37Z"/><path class="cls-3" d="M592.9,217c8.75-1.25,18.75-.52,19.23.86A1.19,1.19,0,0,1,611,219.5c-1,0-2.1.23-3.25.22-10.64-.12-22,0-31.62,5.63-5.75,3.37-5.73,4.72-8.63,7.81a1.52,1.52,0,0,1-1.11.42,6,6,0,0,0-.79-.19,1.7,1.7,0,0,1-.23-.17l.07.11-.26,0c0-.06,0-.12,0-.18s-.12-.5-.13-.51h0C564.33,229.89,574.81,219.61,592.9,217Z"/><path class="cls-3" d="M411.92,243.16a102,102,0,0,0,17.23,4.05,91,91,0,0,0,31.06-.63,84.51,84.51,0,0,0,14.85-4.35c.84-.34,1.68-.68,2.51-1a39,39,0,0,1-1.7-4.74c1.73-22.06,19.92-41.24,20.11-62.19-4.89.15-7.73,1.46-12,3.42-1.32.61-1.72.91-2.12.54a.62.62,0,0,1-.15-.69c.32-.87,5.22-5.29,14.19-5.86a36.21,36.21,0,0,0-5.1-16.43,1.24,1.24,0,0,1-.17-.5,9.24,9.24,0,0,0-1.94,1c-.94.69-2-.65-1.24-1.47.22-.24.45-.51.69-.8,7.83-9.36,23.07-8.91,32,.66a37.49,37.49,0,0,1,7.58-5.88c11.28-6.57,9.89-2.2,9.09-1.76-2.17,1.21-3.36.92-7.94,3.64,3.18,3.41,15.44,22.44,20.93,45.71a86.5,86.5,0,0,0,26.31-41.57c2.14-22.29-19.24-39.92-10.94-53.9,4.36-7.32,6.88-21.17,17.74-24.14h0a.84.84,0,0,1,.95.42.87.87,0,0,1-.13,1.07c-6.42,6.1-6.69,6.72-13.71,22.61s1.59,13,10.14,44.42c3.64,13.37-10.47,40.06-28.49,55.13l-.15-.45-.81.67a93.16,93.16,0,0,1,1.65,13.12c7.13,4.38,14.46,13.66,13,16-2.41,3.8-3.69-4.7-12.86-11.84a82.29,82.29,0,0,1-13.13,46.07L536,262.2c20-28.74,15.44-67.35-1.21-98.65-3.7-7-6-10.12-7.16-12.58a35.32,35.32,0,0,0-6,4.89,3.25,3.25,0,0,1-2.15,4.82c-1,0-1.88-.83-3-2-4.73-5-10.21-6.88-15.88-6.47a24.36,24.36,0,0,0-7.58,1.69,17.77,17.77,0,0,1,3.84,5.38,34,34,0,0,1,2.85,12.42c1.37.05,3.23.19,4.38,1.23a1.12,1.12,0,0,1,.32,1.09c-.35,1.37-2.76.63-4.69.41-.78,25.35-20.9,40.39-21.62,66.59q2.18-1,4.29-2c1.16-.59,2.28-1.26,3.45-1.83a10.62,10.62,0,0,1,3.77-1.43,1.56,1.56,0,0,1,1.6,2.22c1.9,1.22,3.66,2.65,5.49,4,2.15,1.53,4.3,3.12,6.56,4.47,2,1.17,4.06,2.13,6.05,3.26s4,2.28,6,3.35c4.09,2.15,8.17,4.27,12.36,6.21a165.06,165.06,0,0,0,26,9.47c2.1.57,1.42,3.9-.7,3.33q-7.69-2.1-15.18-4.92a141.49,141.49,0,0,1-25.47-12.34,68.57,68.57,0,0,1-5.88-3.95c-1.85-1.44-3.66-2.93-5.55-4.32s-3.76-2.85-5.59-4.34a51,51,0,0,1-4.36-3.81,10.35,10.35,0,0,1-3.66,3c-1.36.8-2.79,1.51-4.21,2.2a82.4,82.4,0,0,1-8.24,3.45A88.12,88.12,0,0,1,442.61,252a73.82,73.82,0,0,1-31.14-7.7A.6.6,0,0,1,411.92,243.16Z"/><path class="cls-3" d="M481,33c-.14-3.55-.17-8.46-3.29-10.63A4.21,4.21,0,0,0,473,22.1c-1.67,1.09-2.18,3.08-2.63,4.83a183,183,0,0,1-9.86,27.87,56.75,56.75,0,0,0,3.14-15.68c.08-2.87.07-6.15-1-8.81a29.79,29.79,0,0,0-4.36-7.58.84.84,0,0,0-.68-.31c.26-2.41.26-4.18-.47-9.41-.44-3.16-1.05-7.49-4.29-9.19a4.58,4.58,0,0,0-4.24-.11c-1.63.83-2.38,2.6-3,4.2-3.57,9.86-6.92,20.39-10,31.33A53,53,0,0,0,422.9,10.91a1.34,1.34,0,0,0-2.3.84c-1.77,16-2.46,31.51-5.8,49.65-.95,5.15-2.17,10.31-3.27,15.41-6.93,32.29-1.7,36.21,2.11,61,2,12.92.8,23-3.6,30.79a1.5,1.5,0,0,0,.61,2.07,1.38,1.38,0,0,0,1.93-.52c8-14.08,4.82-29.78,1.77-44.95-2-10-3.71-18.33-2.8-28.38,1.63-17.92,9.53-32.84,11.59-82.06,7.13,7.06,10.71,18.72,11.29,29-4.23,15.77-6.56,27.11-9.76,42.87a1.06,1.06,0,0,0,2,.63c6.77-15,10.05-29.73,9.47-42.57,4.83-17.48,9.6-30.47,10.74-34.11,1-3.11,1.67-5.16,3.37-5.34,5-.52,3.91,12.42,3.28,17.42-1.28,10.12-4,12.14-1.77,13.18a1.66,1.66,0,0,0,1.83-.24l.09.06c2.82-5.58,2-5.85,4-10.43,1.69,3,1.66,5.08,1.91,7.46.27,2.66,1.15,8.32-2.66,20.55-4.73,15.23-12.33,27.28-22.43,38.41a79.16,79.16,0,0,1-6.8,7c-1.21,1,.45,2.83,1.65,1.8,2.36-2,4.91-4,7.18-6.12,5.43-5.19,12.6-14.57,17.59-24.27,2.61.44,15.47-27.61,18.31-41.72.35-1.73.83-4.11,2.25-4.51,3.31-.95,3.89,6,4.21,8.74.89,7.76-.26,16.89-4.33,26.55C471,63.55,460.24,77,457.82,82.08a1.61,1.61,0,1,0,2,2.49A61.26,61.26,0,0,0,476.44,61.5c8.07-9.75,10.6-12.51,13-12.74a.7.7,0,0,0,0-1.4c-4.56.17-6.22,1.85-10.54,6.76A68.73,68.73,0,0,0,481,33ZM434.39,51.21c-.59,9.25-2.89,16.94-5.75,25C430.15,68.35,432.05,60.11,434.39,51.21Z"/><path class="cls-3" d="M491.52,49.41c0,.05-.12,0-.08-.07S491.57,49.36,491.52,49.41Z"/><path class="cls-3" d="M491.3,49.81h.37l.13-.13a.45.45,0,0,0,0-.63l-.14-.12h-.37l-.12.13a.43.43,0,0,0,0,.63Zm-.06-.68a.36.36,0,0,1,.49,0,.34.34,0,0,1-.28.58A.34.34,0,0,1,491.24,49.13Z"/><path class="cls-3" d="M491.06,56.21a.53.53,0,0,1-.87-.55,10.45,10.45,0,0,0,.78-5.17.52.52,0,0,1,1-.17A8.44,8.44,0,0,1,491.06,56.21Z"/><path class="cls-3" d="M435.45,208.32c.71,10.85-20.07,8.56-27.73-3.4a1.17,1.17,0,0,1,.32-1.59,1.08,1.08,0,0,1,1.61.45c9,11.92,25.24,10.93,22.05,3.17a21.82,21.82,0,0,1-5.79-3.93c-.56-.49-1.13-1-1.73-1.47a1.06,1.06,0,0,1-.32-1.35,1.18,1.18,0,0,1,1.37-.59c3.4,1,7.19,2.27,9.11,5.33,7.55,2.16,11.41-.61,10-3.92-1.05-2.44-4-3.49-6.3-4.34-1.71-.62-1-3.47.79-3.07l.34.08c.51,0,8.32,2.15,14.86-1.2-5.57-.06-11.48-2.06-17.57-5.94-1.79,1.88-5,2.87-7.82,3a5.19,5.19,0,0,1-1,6c-3.44,3.25-11.84,2-14.63-.79a.51.51,0,0,1-.11-.54c.16-.4.49-.52,3.95-.06,2.71.36,8.18.95,9-1.68.41-1.27-.51-2.61-1.8-3.35a17.34,17.34,0,0,1-3.13-1,1.54,1.54,0,0,1,.91-2.93c1.67.35,4.82,1.81,9.83.18,2.74-.89,3.75-2.61,2.6-3.83a9.87,9.87,0,0,1-4.94-1.34,1.37,1.37,0,0,1,1.11-2.47,16.36,16.36,0,0,0,5.1.61,9.83,9.83,0,0,0,8.06-5.56c.93-1.86,2-3.79,0-5.89a6.81,6.81,0,0,1-1.52-.28c-1.12-.33-.61-1.44.53-1.83,1.82-.62,3.71-1.18,5.46-1.93,2.35-1,6.7-3.27,6.7-5.81a2.62,2.62,0,0,0-1-1.94c-1.39-1.28-3.61-1.29-5.56-1.3h-.31a1.51,1.51,0,0,1-1.58-1.51,1.75,1.75,0,0,1,1.63-1.83c4.28-.28,9.47-1.5,9.88-5.7s-3.64-5.8-5-6.26a7.16,7.16,0,0,1-3.78-.77,1.33,1.33,0,0,1-.69-1.6,1.52,1.52,0,0,1,1.5-1.19,20.7,20.7,0,0,1,3.16.38c2.55-.71,5.1-3.83,6-5.83,1.74-4-1.39-7-3.69-6.1-1.75.68-2.84-2.18-1.16-3a7.57,7.57,0,0,1,1-.35c1-1.13,2.2-1.37,4.22-4.33a15.51,15.51,0,0,0,2.46-5.89c.89-5.05-2-7.16-4.2-6.39a18.36,18.36,0,0,1-1.54,1.4,1.68,1.68,0,0,1-2.55-2.13,5.55,5.55,0,0,1,1.69-1.72c5.57-6.3,1.31-12.19-2.57-11.48-2,.36-3.77,1.82-5.35,3.11-.31.25-.91.86-1.59.28a.89.89,0,0,1-.18-1.16c5-8.46,11.42-6.51,14.33-2.79,2.51,3.21,2.57,7.31.2,11.32,6.06,1.7,8.22,11.86-.71,20.17,6.43,3,4.9,12.15-2.07,16.5,6.42,4,5.49,12.4-1.73,15.51a6.4,6.4,0,0,1,.5.41c3.23,2.89,3.51,8.33-5.6,12.36a22.45,22.45,0,0,1-3.51,1.28,5.86,5.86,0,0,1,.9,5,80.5,80.5,0,0,0,8.09,1.53c3.42.48,7,.54,10.37,1.13a.91.91,0,0,1,0,1.76c-6.4.92-17.18-1.69-19.15-2.31a13.75,13.75,0,0,1-9.81,7.58,4.29,4.29,0,0,1,.47,2.85c5.2,3.32,11.06,5.13,16.62,6.7a.83.83,0,0,1,.52,1.18c3.53-2.17,3.78-5.92,2.08-7.6-.67-.08-1.34-.19-2-.29-1.61-.26-2.7-.17-2.93-1.36-.4-2,3.27-3.14,6.31-1.19,7.2-.48,15.52-5.17,12.39-9.93-1.54-2.34-4.56-3.13-7.15-3.86-2-.55-1.14-3.6.79-3.38,5.43.6,11.35.63,14.18-3.78.93-1.46,1.54-3.64.44-5.39s-3.62-2.61-5.64-3.06c-.53-.1-1.08-.21-1.61-.33a2,2,0,0,1-1.48-2.31,1.6,1.6,0,0,1,1.94-1.31c.74.13,1.61.28,2.46.48,16.85,2.43,19.7-13.42,10.63-15.52a35.67,35.67,0,0,1-8.65,1.92,1.54,1.54,0,0,1-.88-2.9,17.83,17.83,0,0,1,8.21-2.4,6.29,6.29,0,0,1,2.66-.27c11.94-5.1,16.61-12.7,5.31-12.82a41.52,41.52,0,0,1-12.75,6.37c-1.48.46-3.13-1.15-2-2.57a19.25,19.25,0,0,1,13.37-7,40.23,40.23,0,0,0,8-7.48,5.73,5.73,0,0,0,1.77-3.4c.15-3.64-5.4-4.25-9-3.55a48.48,48.48,0,0,1-12.68,8.14,1.74,1.74,0,0,1-2.09-2.6,20,20,0,0,1,12.36-7.83c8.05-6.71,13.27-15.71,13.45-19.66A2.63,2.63,0,0,0,499,74.23c-2.92.57-8.79,4.9-11,6.63a62.9,62.9,0,0,1-12.74,13.47,1.28,1.28,0,0,1-1.83-1.75,70.21,70.21,0,0,1,14.41-14.66,60.31,60.31,0,0,0,8.36-16.08.61.61,0,0,1,1.14.41,73.07,73.07,0,0,1-5.75,12.94c3.19-2.16,6.83-4.42,10-3.42,8.65,2.73-1,17.84-7.37,24.54,6.92.26,10.33,4.57,7,10.91a23.15,23.15,0,0,1-4.14,5c-.53.54-1.08,1.07-1.66,1.6a6,6,0,0,1,3.54,1.88c4.16,5.25-2.87,11.89-8.66,15.16,9.42,6.16,4.44,20.08-8.53,21.65,3.87,5,.78,14.17-9.35,15.46,6.68,6.05.34,15.22-11.58,16.41,2,4.73-2.42,12.53-15,12.32C451.29,201.72,448.24,211.88,435.45,208.32Z"/><path class="cls-3" d="M424,103.22a30.07,30.07,0,0,1,.52,6.69,3.5,3.5,0,0,1,4.18,2.6c.86,2.71.4,6.6-.39,9.31,5.57.62,5.62,9.3.51,14.83a5.5,5.5,0,0,1,3.58,4.54c.63,5.42-4.68,10.09-10,11.05a.94.94,0,0,1-.83-1.62c1.65-1.34,3.66-2.08,5.2-3.42,3.34-2.89,3.19-6.64,1.53-8a3.38,3.38,0,0,0-1.58-.67,13.1,13.1,0,0,1-2.57,1.45c-1.39.59-3.46-1.59.3-3.21a13.28,13.28,0,0,0,4.37-6c2.06-5.8-1.31-6.59-1.81-5.51l-.1.22a1.43,1.43,0,0,1-1.93.61,1.47,1.47,0,0,1-.9-1.79h0a17.54,17.54,0,0,0,2-8c0-.75.15-3.32-.67-3.62-1.1-.4-1.41,2.24-1.58,3-.34,1.62-3,1.17-2.78-.47.06-.39.15-1,.29-1.54.4-2.36-.05-4.88.4-7.18.43-2.14.13-3.33-2-4.51-1.64-.91-.57-3.22,1.51-3.08v0C423.24,99.14,423.73,101.76,424,103.22Z"/><path class="cls-3" d="M419.08,182.29c-6.49-2.6-6-6.48-4.49-5.84,2.39,1,2.58,3.73,9.27,4.16,2.75.18,3,.28,3.11.78C427.25,182.5,423.87,184.21,419.08,182.29Z"/><path class="cls-3" d="M420.24,172.35c-1.11-.5-.51-2.27.64-1.8a35,35,0,0,0,15.95,2,.7.7,0,0,1,.5,1.21C437,174.18,429.64,176.51,420.24,172.35Z"/><path class="cls-3" d="M442.77,157.53c2.69-.91,3.54-1.2,3.93-.34a.76.76,0,0,1-.24.94c-6,4.54-21.93,3.45-21.3,1,.25-.95,3-.45,3.9-.29A28.51,28.51,0,0,0,442.77,157.53Z"/><path class="cls-3" d="M445,120.58a11.69,11.69,0,0,1-9,.51.83.83,0,0,1,.46-1.59h0a21.71,21.71,0,0,0,8.21,0A.58.58,0,0,1,445,120.58Z"/><path class="cls-3" d="M440.75,116a11.7,11.7,0,0,0,7.51-.72c.52-.23,3.06-2.22,4.11-1.61,2.42,1.42-4.54,6.24-12,3.53A.63.63,0,0,1,440.75,116Z"/><path class="cls-3" d="M450.94,110.59c1.25-.42,2.79-1.26,4.24-.8a.94.94,0,0,1,.37,1.57c-1.11,1.11-1.55.67-8.75,2.14a.83.83,0,0,1-1-.62C445.52,111.65,447.13,111.89,450.94,110.59Z"/><path class="cls-3" d="M442.75,52.44c2-7.33,3.19-14.88,4.82-22.27a.87.87,0,0,1,1.7.26c-.92,13.24-8.41,39.37-17.79,55.94a.58.58,0,0,1-.77.22c-.57-.29-.23-.83,0-1.33C434.88,75.69,439.05,66.29,442.75,52.44Z"/><path class="cls-3" d="M411.58,43.81c-2.12-5-3.47-10.56-7-14.71-2.76-3.28-6.32-5.22-9.62-5.29,3.37,8.53,11.56,13.19,9.66,60.35-.54,13.4-.32,15.41.88,22.85.5,3.14,1.07,6.49,1.86,9.72h0a.58.58,0,0,1-1.12.3c-2.8-9.07-2.42-14-3-21-1.8-23.54,2-35.37-3.33-55.93-1.12-4.28-3.19-11.25-6.16-14.84-.49-.59-1.12-1.08-1.62-1.73a1.25,1.25,0,0,1,.63-2c8.24-2.05,19,3.87,21,21.49C414,44.31,412.16,45.15,411.58,43.81Z"/><path class="cls-3" d="M314.66,304.69l.13.37h0l-.13-.37h0c-1,.35-1.23-2.08-2.88-3.34-2.56-2-4.65.4-5.73-.52-1.44-1.22-3,.19-2.52,1.73.36,1.21,2.07,2.34,4.89,1.53,1.27-.37,1.41-.29,2.13,1,1.84,3.21,3,3.58,6.49,2.82a1.84,1.84,0,0,0,1.34-2.71C317.67,303.64,315.56,304.38,314.66,304.69Z"/><path class="cls-3" d="M342.79,286.08c3-3.05,5.47-3.21,10.59-6.49,6.66-4.25,15.75-7.91,24.55-20.64,1.43-1.55,1.47-4.36,8.06-7.6,5-2.45,13.65-8.45,16.77-14.91,4.46-9.24,11.45-12.26,12.4-13.46,1.43-1.81-.17-5-6.62-1.54-4.06,2.15-6.37,6-8.6,9.66-3.29,5.43-5.68,8.87-16.48,16.05-2.75,1.82-5.13,3.4-6.52,5.08-.08.11-7.89,10.72-17.37,17.87-5.62,4.23-9,5.66-15.19,10.69-2.1,1.69-4.83,2.26-6.83,4.39a39.5,39.5,0,0,0-4.16,6.09c-3.57,5.65-8.4,10.06-10.55,11.18-1,.51-2.08,1.09-2.37,1.91-.6,1.68.77,2.69,2.5,2.45,1.56-.22,3.17-1.76,4.35-2.88C334.4,297.15,333.42,295.72,342.79,286.08Z"/><path class="cls-3" d="M289.26,288.73c-.14-1.59-.09-3.36,1.4-4.33a16.81,16.81,0,0,1,4.46-1.47c1.6-.45,3.22-.87,4.8-1.39a10.55,10.55,0,0,0,3.69-2.31,15.83,15.83,0,0,1,15.3-3.47,1.81,1.81,0,0,1-.53,3.55l-.12,0a11,11,0,0,0-5.6-.52c-4.61.79-8,4-12.07,6a27,27,0,0,1-4.08,1.51c-.87.25-1.71.61-2.6.83-.37.09-.88.06-1.07.39s0,1.07.08,1.36a11.6,11.6,0,0,0,1.94,5.22,6.49,6.49,0,0,0,4.86,2.36c1-.11,3.86-1.92,5.14-1.09.91.59.92,2.69-1.4,4-3.12,1.74-6.29.58-9.19-.9C291.08,296.86,289.56,292.05,289.26,288.73Z"/><path class="cls-3" d="M306.53,267.64a15.28,15.28,0,0,1,2,.84,9.84,9.84,0,0,0,3.86,0c2.58-.26,5.26-.9,7.67.34a10.62,10.62,0,0,1,3.22,2.67,1.75,1.75,0,0,1,.61,1.86,1.88,1.88,0,0,1-3.37.54c-3.12-4.89-7.87-1-12.08-1.8C303.71,271.11,304.24,267.22,306.53,267.64Z"/></g><path class="cls-3" d="M302.16,469.47a8.64,8.64,0,0,0-1.56-3.87q-10.49-14.24-21.83-27.79c-1.34-2.24-2.7-4.5-4.11-6.74-11.48-18.25-23.5-27.24-44.05-32.2-23.48-5.66-47.1-10.95-71.1-13.79-14.06-1.67-28.63-2.55-42.86-4.2-2-.23-4.08-.49-6.12-.76-2.35-.1-4.69-.22-7-.36-5.2-.3-10.34-.48-15.42-1.8-4.4-1.15-8.65-2.77-13.06-3.89,0,10.2,2.81,19.27,7.22,28.39,3.18,6.57,5.44,13.72,7.65,20.69,7.51,23.67,14.93,45.84,24.87,68.74q11.32,26.1,23.51,51.79a4.08,4.08,0,0,1-2.63-2.38c-25.86-55.88-57.77-109.69-74.08-169.43a170.28,170.28,0,0,1-27.34-32.1c-.16.32-.31.65-.45,1s-.14.39-.22.58c2.74,8.84,5.55,17.66,8.61,26.39l.44.61c.28,1,.57,2,.86,3,.81,2.27,1.64,4.52,2.5,6.77A17.17,17.17,0,0,1,47,382.7a232.37,232.37,0,0,0,31.18,59.78c.28,1.66.58,3.31.93,4.95,3.17,15,10.83,27.38,19.44,39.71,1.83,2.61,3.63,5.24,5.29,8,.82,1.35,1.62,2.72,2.35,4.11.35.66.64,1.36,1,2,.56,1.82,1.2,3.59,1.64,5.45.23,1,.6,3.58.6,3.22.33,3.51.5,7,.66,10.56.8,17.53,3.94,33.88,12.14,49.53a70.77,70.77,0,0,0,7.31,11.45c2.55,8.23,9.79,14.43,19,14.43a19.24,19.24,0,0,0,6.79-1.27c8.73-.35,16.69-5.05,22.33-12.8,2.49-3.42,3.23-8,2.58-12.59a34.32,34.32,0,0,0,2.32-6.13,128.76,128.76,0,0,0,46.41-4.8,152.7,152.7,0,0,0,29.93-13c2.06-1.14,4.12-2.27,6.22-3.34,1-.51,2-1,3-1.46a47.73,47.73,0,0,0,6.47-1.26c.65.13,1.3.25,1.46.3a19.09,19.09,0,0,0,12.84-.81c5.68-3.48,11.35-6.87,17.22-9.93l.5,0,4.25-.58a16,16,0,0,0,7.06-4.11l.1-.12,2.51-3.24,0-.06a.83.83,0,0,1,.07-.13c.16-.28,1.56-3.59,1.64-3.89a1,1,0,0,1,0-.14,23.23,23.23,0,0,0,.77-6.75C322.74,494.56,312.27,481,302.16,469.47Z"/><g id="logo-啤女"><path id="BEERU" class="cls-4" d="M214.85,494.82a3.8,3.8,0,0,0,.51-1.52,2.8,2.8,0,0,0-.39-1.7,3,3,0,0,0-2.17-1.6,5,5,0,0,0-3.3.82,12.06,12.06,0,0,0-1.27.82,5.66,5.66,0,0,0-.94.85,1.3,1.3,0,0,0-.29.5.71.71,0,0,0,.1.53l3.65,6.44a1.84,1.84,0,0,0,.41.53.85.85,0,0,0,.43.2.94.94,0,0,0,.49-.05,3.26,3.26,0,0,0,.58-.27,4.66,4.66,0,0,0,.62-.4,3.14,3.14,0,0,0,.42-.35L212.21,497l.73-.41,2.19,1.19q.24.14.48.24a2.21,2.21,0,0,0,.47.13,1.37,1.37,0,0,0,.49,0,2.09,2.09,0,0,0,.56-.22,1.61,1.61,0,0,0,.67-.72,1.44,1.44,0,0,0,.09-1,9.21,9.21,0,0,0-1.36-.64C216,495.32,215.43,495.08,214.85,494.82Zm-2.14-.86a1.37,1.37,0,0,1-.67.73l-.87.5L210,493.14l.25-.2a2.32,2.32,0,0,1,.32-.2,1.9,1.9,0,0,1,1.21-.33,1.1,1.1,0,0,1,.78.59A1.17,1.17,0,0,1,212.71,494Zm-29.4,5a14.39,14.39,0,0,0-1.64.23,5.6,5.6,0,0,0-1.3.39,1.31,1.31,0,0,0-.47.33.71.71,0,0,0-.13.53l.65,7.31a1.16,1.16,0,0,0,1,1.07,3.63,3.63,0,0,0,.7.13c.26,0,.52,0,.77,0s.51,0,.75,0l.63,0a6.14,6.14,0,0,0,3.25-1,2.52,2.52,0,0,0,.94-2.39,2.08,2.08,0,0,0-.65-1.41,2.67,2.67,0,0,0-1.38-.69,2.21,2.21,0,0,0,1-.84,1.9,1.9,0,0,0,.3-1.25,2.26,2.26,0,0,0-1.26-2A5.83,5.83,0,0,0,183.31,498.92Zm2.3,6.69a.88.88,0,0,1-.34.84,1.85,1.85,0,0,1-1,.35l-.66,0a3,3,0,0,1-.57,0l-.17-1.91,1.28-.11a2.08,2.08,0,0,1,1.07.12A.82.82,0,0,1,185.61,505.61Zm-.59-3.83a.88.88,0,0,1-.24.76,1.53,1.53,0,0,1-1,.34l-1.14.1-.17-1.85L183,501l.54-.06a1.82,1.82,0,0,1,1.08.16A.81.81,0,0,1,185,501.78Zm-11,1a2.32,2.32,0,0,1,.47,1.69,2.26,2.26,0,0,1-.75,1.57,2.2,2.2,0,0,1-.59.38,2.47,2.47,0,0,1-1.16.17,2.24,2.24,0,0,1-2.1-2.52,2.3,2.3,0,0,1,.75-1.57,2.23,2.23,0,0,1,1.75-.55A2.3,2.3,0,0,1,174,502.79Zm58.65-22.18a2.22,2.22,0,0,1-.59,1.73,2.34,2.34,0,0,1-.88.65,2,2,0,0,1-.76.17A2.48,2.48,0,0,1,228,481a2.28,2.28,0,0,1,.6-1.73,2.24,2.24,0,0,1,1.63-.81,2.46,2.46,0,0,1,2.46,2.15Zm-36.5,16.23a2.07,2.07,0,0,1,.3.4,2,2,0,0,1,.22.56,1.15,1.15,0,0,1,0,.88.94.94,0,0,1-.61.41l-3.22.78.34,1.42,3.44-.83a1.64,1.64,0,0,1,.29.39,1.93,1.93,0,0,1,.23.55,1.19,1.19,0,0,1-.05.88.89.89,0,0,1-.6.41l-2.81.67L194,505l3.92-1a2,2,0,0,1,.3.4,2.13,2.13,0,0,1,.23.56,1.22,1.22,0,0,1-.05.89,1,1,0,0,1-.61.42l-4.46,1.07a1.43,1.43,0,0,1-1.13-.13,1.4,1.4,0,0,1-.63-1L190,499.82a1.35,1.35,0,0,1,1.07-1.76Zm29.24-9.59a4,4,0,0,1,.74,1.4,3.25,3.25,0,0,1,.09,1.45,3.7,3.7,0,0,1-.57,1.43,5.55,5.55,0,0,1-1.22,1.32,5.7,5.7,0,0,1-1.56.9,3.75,3.75,0,0,1-1.52.24,3.33,3.33,0,0,1-1.4-.41,4.11,4.11,0,0,1-1.19-1l-3.75-4.7.38-.41a4.81,4.81,0,0,1,.53-.49,4.16,4.16,0,0,1,.53-.36,1.16,1.16,0,0,1,.49-.13.81.81,0,0,1,.46.13,1.71,1.71,0,0,1,.49.46l3,3.75a1.63,1.63,0,0,0,1.06.66,1.51,1.51,0,0,0,1.11-.34,1.46,1.46,0,0,0,.58-1,1.61,1.61,0,0,0-.42-1.18l-3.71-4.66.37-.41a4.88,4.88,0,0,1,.54-.49,2.54,2.54,0,0,1,.53-.35,1.14,1.14,0,0,1,.48-.14.93.93,0,0,1,.47.13,2,2,0,0,1,.48.46Zm-23.77,9.92.54,1.36,3.29-1.29a2.3,2.3,0,0,1,.35.35,2.11,2.11,0,0,1,.29.51,1.18,1.18,0,0,1,.08.88,1,1,0,0,1-.54.49l-2.7,1,.61,1.54,3.76-1.48a2,2,0,0,1,.35.36,2.21,2.21,0,0,1,.3.52,1.24,1.24,0,0,1,.07.89.94.94,0,0,1-.55.5l-4.27,1.67a1.46,1.46,0,0,1-1.14,0,1.42,1.42,0,0,1-.75-.85l-2.43-6.19a1.37,1.37,0,0,1,.83-1.9l4.83-1.89a1.72,1.72,0,0,1,.35.36,2.21,2.21,0,0,1,.3.52,1.19,1.19,0,0,1,.07.89,1,1,0,0,1-.55.48Z"/><g id="啤女"><path id="circle" class="cls-4" d="M182.16,404.32A41.44,41.44,0,0,0,168,414.24a41.65,41.65,0,1,0,29.65,70.08,41.25,41.25,0,0,0,17-3.27,41.66,41.66,0,1,0-32.46-76.73Zm31.54,74.56h0c-1,.44-2.08.82-3.13,1.16l-.56.18c-1,.32-2.08.6-3.13.83l-.37.08a38,38,0,0,1-6.67.81l-.15,0h0c-1,0-2.05,0-3.07,0h0c-.68.77-1.39,1.5-2.13,2.21h0a.52.52,0,0,1-.11.1,39.08,39.08,0,0,1-5.23,4.22l-.31.22c-.9.59-1.83,1.14-2.78,1.66l-.52.28c-1,.51-2,1-3,1.44h0a39.38,39.38,0,0,1-42.07-7.43c-.39-.36-.78-.74-1.16-1.12a39.53,39.53,0,0,1-4.19-5l-.46-.66a39.32,39.32,0,0,1,17.26-58.19c1-.44,2.09-.81,3.14-1.16l.56-.18c1-.32,2.08-.6,3.13-.83l.37-.08a39.05,39.05,0,0,1,6.68-.81h.14c1,0,2.05,0,3.07,0,.68-.76,1.4-1.49,2.14-2.21h0l.11-.1a39.08,39.08,0,0,1,5.23-4.22l.31-.21c.9-.59,1.83-1.15,2.79-1.67l.51-.27c1-.52,2-1,3-1.45a39.35,39.35,0,0,1,51.51,20.89h0A39.34,39.34,0,0,1,213.7,478.88Zm-29.21-69.06a35.4,35.4,0,0,0-13.93,10.54A35.69,35.69,0,1,0,195,478.21a35.68,35.68,0,1,0-10.54-68.39ZM232.86,441a34.45,34.45,0,0,1-1.41,11.54,34.55,34.55,0,0,1-19.62,22c-.68.29-1.36.55-2.05.79l-.72.23-1.35.42-.88.22-1.2.29-.95.18-1.14.2-1,.13-1.1.11-1,.08-1.08,0c-.34,0-.67,0-1,0l-1.08,0-1,0-.38,0h0c-.46,0-.93-.07-1.39-.12h0c-.28.37-.58.72-.88,1.08h0a3.33,3.33,0,0,1-.25.28c-.21.26-.43.5-.66.75s-.48.53-.73.79l-.72.72-.78.74-.76.68-.85.71c-.26.21-.52.42-.79.62s-.62.46-.93.68-.52.38-.79.56l-1.05.66-.77.47c-.41.24-.82.46-1.24.68l-.67.36c-.65.32-1.31.63-2,.92h0a34.41,34.41,0,0,1-24.65.84l-.28-.1a34.49,34.49,0,0,1-2-64.31h0c.68-.28,1.37-.54,2.05-.79l.72-.23c.45-.14.9-.29,1.35-.41.29-.09.59-.15.88-.23l1.21-.29.94-.18,1.14-.2,1-.12c.36-.05.73-.09,1.09-.12l1-.07,1.08-.05h1l1.07,0,1,0h.38v0c.46,0,.93.06,1.39.11h0c.28-.36.59-.72.88-1.07h0c.08-.09.17-.18.25-.28.21-.25.44-.5.66-.75l.74-.79.71-.72c.26-.25.52-.5.79-.74s.5-.46.76-.68.56-.47.85-.71.51-.41.78-.62.62-.46.93-.68l.79-.55,1.05-.67.77-.47c.41-.24.82-.46,1.24-.68.23-.11.44-.24.67-.35.65-.33,1.32-.64,2-.93a34.39,34.39,0,0,1,23.28-1.28,35.8,35.8,0,0,1,6.13,2.49,34.36,34.36,0,0,1,15.81,17.13h0A34.4,34.4,0,0,1,232.86,441Z"/><path id="啤女-2" data-name="啤女" class="cls-4" d="M159.11,466.12c.09.31-1.4,1.83-2.7,2.38l-.61.26L154.63,466l-2.71,1.15,1.28,3c.19.43-1,1.95-2.59,2.63l-.58.25L140.26,450l4.58,0,2.21-.94,1-2.8,5,1.39a2.71,2.71,0,0,1-1.13,1.37ZM154.19,465l-6.34-15-2.71,1.15,6.33,15Zm23.55-8.55s3.14,1.06,5,1.85c.06.44-.26.79-.77,1l-6.19,2.61,2.94,6.95c.14.33-1.41,1.79-3,2.47l-.76.32-3.36-8-12.13,5.13-.71-.9,12.41-5.25-2.62-6.18,5.64-1.79c.11.46,0,.89-.84,1.42l2,4.78,1.66-.71Zm-15.11,2.08c.11.26-.72,1.63-2.68,2.45l-.65.28L152.43,445l5-.18,2-.85c-.35-1.52-.84-3.7-1.26-5.19l6.33-1.27c.1.64-.28,1.15-1.08,1.48-.57,1.18-1.5,2.9-2.22,4.23l6.59-2.79,1-2.8,5.1,1.34a2.74,2.74,0,0,1-1.05,1.25l4.8,11.37c.09.3-1.51,2-2.85,2.53l-.65.27-.63-1.48-4.78,2c-.15,3.26-2.11,6.91-8.21,11.24l-.44-.33c3.61-3.57,4.94-6.57,5-9.36l-2.79,1.17ZM157.35,446l1.94,4.59,3.66-1.54-1.95-4.6Zm7.63,9.27a14.81,14.81,0,0,0-1.22-4.3l-.37-.87-3.65,1.54,2.09,5Zm8.07-3.41-2.1-5-3.8,1.61.36.83a14.45,14.45,0,0,1,1.2,4.35Zm-8.28-9,1.94,4.6,3.8-1.61-1.94-4.6ZM211,424.52s3.81,1,6.19,1.82c.06.44-.26.79-.81,1l-6.91,2.92c1.29,5.26,1.66,10.18.38,14.91,17.1-.71,14.61,6.91,10.09,6.82a46.09,46.09,0,0,0-11.63-2.89c-2.5,5-7.19,9.82-15.09,14.66l-.4-.35c6.17-5.08,9.75-9.92,11.56-14.74a88.43,88.43,0,0,0-12.27-.06c.08-2.72,0-6.77-.33-10.86L184,441.06l-.74-.93,8.47-3.58c-.32-4.6-.76-9.06-1.21-11.43l6.67-1c.06.45-.08.93-1.2,1.4.19,2.18.41,5.42.59,9l7.74-3.28c-.46-1.59-1-3.23-1.61-4.82l6.83-1.31c.11.68-.23,1.17-1.07,1.52.28.86.51,1.71.74,2.55l.62-.26Zm-14.37,11.2c.21,3.83.33,7.83.24,11.07,3.17-.57,5.91-1,8.39-1.24a28.15,28.15,0,0,0-.6-13.23Z"/></g></g></g></g></g></svg>