<svg xmlns="http://www.w3.org/2000/svg" viewBox="0 0 164.29 200"><defs><style>.cls-1{fill:#b29362;}</style></defs><g id="圖層_2" data-name="圖層 2"><g id="event"><path id="two" class="cls-1" d="M0,191.15a20.66,20.66,0,0,1,4.27-11,23.68,23.68,0,0,1,9.88-7.79,60.2,60.2,0,0,1,1.07-6.72c4.27-19.13,69-68.33,70.1-68.67,2.48,0,4.24-3.19,6.37-4.62,1.07-.34,1.07-1.76,2.13-2.12C95.26,89.9,96,88.85,97,87.79a12.64,12.64,0,0,1,3.55-2.48c1.41-1.07,2.83-2.48,4.24-3.55,3.92-2.82,31.16-25.48,37.18-34,.72-1.42,1.76-2.47,2.48-3.89,2.48-4.24,5.65-10.63,4.61-17-1.78-10.62-9.22-15.92-20.17-18-8.85-1.77-29,0-40.36,6.72-1.07.7-2.13,1.06-3.2,1.77C71.53,25.12,61.27,38.22,59.49,53.8A17,17,0,0,0,67.3,71.86,12,12,0,0,0,73,73.27c2.13,0,2.48-.36,3.2,0,1.41,1.78-1.42,7.44-5.68,10.62-6.72,5-13.43-1.77-15.57-5.66-1.41-2.48-6.37-9.56-2.82-26.91,4.23-19.11,17-36.46,35.39-44.24C88.54,6.72,88.89,6,90,5.66a19.76,19.76,0,0,1,4.24-1.42A82.13,82.13,0,0,1,119.67,0c23.38,0,44.62,8.49,44.62,38.58,0,20.18-21.59,42.84-43.55,63-12.4,11.33-35,29.74-50.27,41.77-1.41,1.07-2.11,2.48-3.17,3.18-.72.36-1.07.73-1.79,1.07-3.89,2.84-19.46,14.17-28.68,20.54,6.74,0,18.76.34,30.09,1.41,26.2,1.77,48.86,3.89,57.71,2.48,4.27-.71,11.7-2.12,11-8.14,0-1.42-1.07-2.48.72-3.19,1.41-.7,3.52.35,4.58.71,2.83,1.41,3.9,3.54,5.31,6a16.61,16.61,0,0,1,1.44,6.37,32,32,0,0,1-2.13,13.1c-4.62,10.61-16.63,11.33-26.55,12.38-11.7,1.07-37.53-3.53-44.25-5.66a3.87,3.87,0,0,1-2.85,0c-.35-.35-3.89-.71-7.78-1.77a62.92,62.92,0,0,1-7.79-1.42c-.72-.34,0-2.11-1.06-1.77-1.07,0-1.07,1.77-2.14,1.43-1-.71-3.89-1.77-4.23-.71s-1.07-.36-1.07-.72c-.34,0-1.76.36-2.1.36-2.14-.36-16.66-1.41-25.51,1.07-4.24,1.41-7.44,2.82-9.2,4.6-1.76,2.11-1.76,3.89-2.13,5-.35.35-1.07.35-2.11.35C3.91,199.65-.33,197.18,0,191.15Zm35.77-14.86c1.76-.36,5.65.71,6-.7C40,175.93,36.14,174.86,35.79,176.29ZM44.27,171c1.78,0,4.61,1.42,5.33-.34C48.19,169.92,45.71,170.63,44.27,171ZM58.07,189c1.07.36,1.79,1.41,2.48.36C59.86,188.67,58.45,188.33,58.07,189Zm2.86.36c1,.35,1.75,1.41,3.51,1.41C64.44,189,61.62,188,60.93,189.39Zm5.3-15.23c0,1.77,2.48,2.48,3.89,3.18-.34-1.05,1.07-1.75,1.76-1.41,1.07.71,2.48,0,3.55.71-.35,0-1.42.36-1.76.36,1.06,1.06,2.48-.71,3.89,0-.35-.36,0-1.07.34-1.41.35.7.35,1.41,1.42,1.41.37,0,1.78,0,1.78-.71a19.16,19.16,0,0,1-3.89-1.77,2.15,2.15,0,0,0-1.44-.36c-.69.36-1,1.43-1.41.7-1.07-1.41-1.41,0-2.11.37-1.78.7-.72-1.07-1.06-1.07a5.19,5.19,0,0,1-2.48.36C68,174.16,66.23,173.11,66.23,174.16Zm0,16.64c1.41-.36,2.13,1.06,2.48-.36C68,190.8,66.23,190.1,66.23,190.8Z"/></g></g></svg>