<svg xmlns="http://www.w3.org/2000/svg" viewBox="0 0 89.61 265.8"><defs><style>.cls-1{fill:#fff;}.cls-2,.cls-4{fill:#b69564;}.cls-3{fill:#e1a327;}.cls-4{stroke:#173d4f;stroke-miterlimit:10;stroke-width:0.49px;}.cls-5,.cls-7{fill:#173d4f;}.cls-6,.cls-7{isolation:isolate;}.cls-7{font-size:7.81px;font-family:NotoSerifTC-Bold-90ms-RKSJ-H, Noto Serif TC;letter-spacing:0.07em;}</style></defs><g id="圖層_2" data-name="圖層 2"><g id="_0-ui_kits" data-name="0-ui_kits"><g id="Group_6808" data-name="Group 6808"><g id="Group_3297" data-name="Group 3297"><path id="Path_2040" data-name="Path 2040" class="cls-1" d="M8.74,260.25C4,258.4.92,254.15,1.2,249.67A10.47,10.47,0,0,1,7.5,241L10.62,116.2v-.14a20.13,20.13,0,0,1,6.45-13.4,25.22,25.22,0,0,1,2.31-1.94,26.24,26.24,0,0,0,10.48-18L36,26.85c-2-2.25-1.67-5.13-1.49-6.73,0-.41.09-.79.11-1.17l.1-1.57a11.3,11.3,0,0,1,2.38-6.89c0-.49,0-1,.06-1.33a11.26,11.26,0,0,1,1-4.74,6.1,6.1,0,0,1,6.05-3.2l26,1.63a7.4,7.4,0,0,1,2.22.47,6.08,6.08,0,0,1,3.42,3.26,10.69,10.69,0,0,1,.66,5,15.14,15.14,0,0,1-.25,2.12,10.89,10.89,0,0,1,1.4,6.32l-.12,2c-.11,1.92-.28,4.79-2.51,6.84L73.66,85.75a25.28,25.28,0,0,0,8,18.81,20.71,20.71,0,0,1,6.8,16.36s0,0-10.93,125.46a10.23,10.23,0,0,1,3.68,8.28c-.36,5.91-6.25,10.38-13.11,10L13,261.18A14.38,14.38,0,0,1,8.74,260.25Z"/><g id="Group_806" data-name="Group 806"><path id="Path_2041" data-name="Path 2041" class="cls-2" d="M72,4.42a4.91,4.91,0,0,1,2.78,2.64,9.67,9.67,0,0,1,.56,4.49A14,14,0,0,1,75,14a9.7,9.7,0,0,1,1.48,6l-.12,2c-.12,2-.28,4.62-2.5,6.35l-1.4,57.42a26.35,26.35,0,0,0,8.32,19.7,19.57,19.57,0,0,1,6.43,15.42s-11,126.06-11,126.06A9.09,9.09,0,0,1,80,254.59c-.33,5.26-5.65,9.23-11.86,8.84L13.06,260a13,13,0,0,1-3.89-.84c-4.2-1.62-7-5.31-6.78-9.4a9.4,9.4,0,0,1,6.28-8l.77-31,2.36-94.58v-.09a18.92,18.92,0,0,1,6.09-12.62,22.78,22.78,0,0,1,2.19-1.85A27.28,27.28,0,0,0,31,82.83l6.14-56.4c-2-1.88-1.74-4.5-1.55-6.17,0-.42.09-.82.11-1.22l.1-1.58A9.83,9.83,0,0,1,38.23,11c0-.57,0-1.16.05-1.72A10.43,10.43,0,0,1,39.2,5a4.88,4.88,0,0,1,4.93-2.57L70.14,4A6,6,0,0,1,72,4.43Zm.85-2.2a8.38,8.38,0,0,0-2.57-.55L44.27,0a7.22,7.22,0,0,0-7.16,3.83,12.68,12.68,0,0,0-1.19,5.21c0,.28,0,.62-.05,1a12.71,12.71,0,0,0-2.38,7.24l-.1,1.58c0,.34-.07.71-.11,1.1a9.53,9.53,0,0,0,1.44,7.23l-6,55.35a25,25,0,0,1-10,17.21,24.42,24.42,0,0,0-2.41,2A21.22,21.22,0,0,0,9.45,116l0,.17L7.07,210.74l-.74,29.51A11.49,11.49,0,0,0,0,249.59c-.31,5,3,9.72,8.29,11.75a15.71,15.71,0,0,0,4.59,1L68,265.77c7.51.47,14-4.49,14.36-11.06a11.35,11.35,0,0,0-3.63-8.83C89.58,121,89.58,121,89.58,121a21.83,21.83,0,0,0-7.16-17.28,24.06,24.06,0,0,1-7.59-17.92l1.38-56.41a10.87,10.87,0,0,0,2.52-7.29l.12-1.95a12.28,12.28,0,0,0-1.34-6.6c.09-.56.15-1.17.19-1.83a11.79,11.79,0,0,0-.76-5.61A7.22,7.22,0,0,0,72.86,2.2Z"/></g><g id="Path_2042" data-name="Path 2042"><path class="cls-3" d="M69,260.42c-.21,0-.43,0-.65,0L13.24,257a9.32,9.32,0,0,1-5.71-2.31,5.89,5.89,0,0,1-2.07-4.72c.17-2.75,2.52-5.08,5.84-5.8l.38-.08,3.19-127.75a16.86,16.86,0,0,1,7.62-12.62A26.88,26.88,0,0,0,34,84.78l3.66-31.59a31.68,31.68,0,0,1,4.38,4.37c2.64,3,5.36,6.07,9.4,6.81a8.53,8.53,0,0,0,1.48.12,27.35,27.35,0,0,0,6.24-1.08,26,26,0,0,1,5.86-1c2.59,0,4,1.16,4.65,3.76L69.3,86.29a27.34,27.34,0,0,0,8.88,20.89,16.66,16.66,0,0,1,6,13.48L73,248.44l.31.15a6.41,6.41,0,0,1,3.57,5.83C76.7,257.77,73.21,260.42,69,260.42Z"/><path class="cls-1" d="M38.06,54.15a35.87,35.87,0,0,1,3.61,3.74c2.7,3,5.48,6.2,9.68,7a8.79,8.79,0,0,0,1.58.13,27.58,27.58,0,0,0,6.36-1.1,25.92,25.92,0,0,1,5.74-1c2.33,0,3.58,1,4.15,3.32L68.8,86.27a27.87,27.87,0,0,0,9.07,21.3,16.15,16.15,0,0,1,5.79,13L72.56,248.06l-.06.68.61.3a5.93,5.93,0,0,1,3.31,5.32c-.2,3.12-3.47,5.56-7.45,5.56-.2,0-.41,0-.62,0l-55.08-3.43a8.75,8.75,0,0,1-5.4-2.18A5.39,5.39,0,0,1,6,250c.16-2.52,2.34-4.67,5.44-5.34l.77-.17,0-.78L13,210.91l1.61-64.29.75-30.26a16.39,16.39,0,0,1,7.41-12.26A27.37,27.37,0,0,0,34.51,84.84l3.55-30.69m-.79-1.86L33.52,84.72a26.36,26.36,0,0,1-11.3,18.55,17.29,17.29,0,0,0-7.85,13l-.75,30.3L12,210.88l-.82,32.77c-3.44.75-6,3.19-6.23,6.26-.24,3.88,3.45,7.26,8.25,7.56l55.08,3.43c.23,0,.46,0,.68,0,4.5,0,8.21-2.8,8.44-6.5a6.89,6.89,0,0,0-3.85-6.28L84.65,120.68a17.26,17.26,0,0,0-6.13-13.87A26.87,26.87,0,0,1,69.8,86.3l.38-20.21c-.75-3.25-2.69-4.21-5.15-4.21-3.63,0-8.39,2.11-12.1,2.11a7,7,0,0,1-1.39-.12c-6.28-1.14-9.33-8.31-14.27-11.58Z"/></g><g id="Group_820" data-name="Group 820"><path id="Path_2059" data-name="Path 2059" class="cls-2" d="M43,28.13a1.18,1.18,0,0,1,.5-2.28L69.3,27.46a1.18,1.18,0,0,1-.15,2.36h0L43.37,28.21A1.37,1.37,0,0,1,43,28.13Z"/></g><g id="Group_821" data-name="Group 821"><path id="Path_2060" data-name="Path 2060" class="cls-2" d="M45.66,14.19a1.18,1.18,0,0,1,.5-2.28l19.49,1.21a1.19,1.19,0,0,1,1.11,1.26,1.18,1.18,0,0,1-1.25,1.1h0L46,14.27A1.37,1.37,0,0,1,45.66,14.19Z"/></g><g id="Group_822" data-name="Group 822"><path id="Path_2061" data-name="Path 2061" class="cls-2" d="M19.18,244.6a1.18,1.18,0,0,1,.49-2.28l44.6,2.78a1.18,1.18,0,1,1-.14,2.36h0l-44.6-2.78A1.37,1.37,0,0,1,19.18,244.6Z"/></g><path id="Path_19123" data-name="Path 19123" class="cls-4" d="M60.51,224.57l-35.38-2.39a5.77,5.77,0,0,1-5.64-5.59L21,128.71c.05-3.11,3-5.52,6.38-5.29l42.55,2.88a5.73,5.73,0,0,1,5.62,6l-8.68,87.4A5.77,5.77,0,0,1,60.51,224.57Z"/></g><g id="Group_3305" data-name="Group 3305"><g id="Group_3298" data-name="Group 3298"><path id="Path_19124" data-name="Path 19124" class="cls-5" d="M29.92,166.5a16.54,16.54,0,0,1,2.72-8.05,16.57,16.57,0,1,1,28.71,1.94,16.56,16.56,0,1,1-31.44,6.11Zm3.33-8a.34.34,0,0,1,0,.14,16,16,0,1,0,27.58,1.86.26.26,0,0,1,0-.28,16,16,0,1,0-27.58-1.86.22.22,0,0,1,0,.14Z"/></g><g id="Group_3299" data-name="Group 3299"><path id="Path_19125" data-name="Path 19125" class="cls-5" d="M44.23,154.05a2.59,2.59,0,0,1-1.58.41l-.3,0,.09-1.35L41.11,153l-.1,1.49c0,.21-.79.59-1.59.54l-.29,0,.77-11.34,1.85.94,1.08.08,1-.94,1.74,1.58a1.2,1.2,0,0,1-.74.33Zm-1.75-1.48.49-7.36-1.33-.09-.5,7.36Zm11.28,1.35s1.05,1.07,1.65,1.77c-.07.2-.27.27-.52.26l-3-.21-.23,3.41c0,.16-.94.44-1.72.39l-.38,0,.27-3.91-6-.4-.1-.51,6.09.41.21-3,2.65.43c0,.21-.19.36-.64.41l-.16,2.34.82.06Zm-6.55-2.24c0,.12-.62.51-1.58.44l-.32,0,.54-8,2,.94,1,.07c.17-.68.42-1.67.55-2.35l2.82.77c-.09.28-.35.41-.74.38-.47.36-1.2.87-1.76,1.26l3.23.22,1-.94,1.78,1.59a1.3,1.3,0,0,1-.68.29l-.37,5.58a2.83,2.83,0,0,1-1.68.44l-.32,0,0-.73-2.34-.16c-.73,1.29-2.27,2.37-5.63,2.87l-.11-.22c2.19-.71,3.35-1.65,3.94-2.77l-1.37-.09Zm.42-6.14-.15,2.26,1.79.12.15-2.25Zm1.19,5.32a6.76,6.76,0,0,0,.39-2l0-.43-1.8-.12-.16,2.43Zm4,.27.16-2.44-1.86-.12,0,.4a6.54,6.54,0,0,1-.41,2Zm-1.52-5.34-.15,2.26,1.87.12.15-2.25Z"/></g><g id="Group_3300" data-name="Group 3300"><path id="Path_19126" data-name="Path 19126" class="cls-5" d="M52.73,165.09s1.33,1.19,2.13,2c-.06.19-.27.27-.53.25l-3.4-.23A13.37,13.37,0,0,1,48,173.22c7.07,3.21,4.5,5.78,2.69,4.82a21.13,21.13,0,0,0-4.12-3.54c-2,1.5-4.92,2.5-9.1,2.85l-.09-.22a16.37,16.37,0,0,0,7.69-3.61,39.89,39.89,0,0,0-5-2.53,47.84,47.84,0,0,0,2.09-4.47l-3.82-.25-.11-.53,4.16.28c.81-1.93,1.55-3.82,1.85-4.87l2.9,1c-.07.19-.22.36-.78.32-.36.93-.93,2.28-1.59,3.75l3.81.26c.14-.74.24-1.52.33-2.28l3,.86c-.09.3-.33.43-.74.4-.06.41-.14.79-.22,1.18l.3,0Zm-8.11,1.59c-.69,1.6-1.47,3.24-2.16,4.53,1.4.42,2.58.82,3.65,1.22A13,13,0,0,0,48.57,167Z"/></g><g id="Group_3301" data-name="Group 3301"><path id="Path_19127" data-name="Path 19127" class="cls-5" d="M27.44,166.15a18.91,18.91,0,0,1,2.32-7.93,19.09,19.09,0,1,1,36.82-5.8c0,.07,0,.13,0,.2a18.91,18.91,0,0,1-2.32,7.93,19,19,0,1,1-36.8,5.6Zm3.49-7.85a.55.55,0,0,1-.07.24,17.65,17.65,0,0,0-2.31,7.69,17.95,17.95,0,1,0,35.81,2.44v0a17.76,17.76,0,0,0-1.27-7.93.56.56,0,0,1,0-.49,17.65,17.65,0,0,0,2.31-7.69,17.95,17.95,0,1,0-35.81-2.44v0a17.76,17.76,0,0,0,1.27,7.93.52.52,0,0,1,0,.25Z"/></g><g id="Group_3304" data-name="Group 3304"><g id="Group_3303" data-name="Group 3303"><g id="Group_3302" data-name="Group 3302"><path id="Path_19128" data-name="Path 19128" class="cls-5" d="M34.31,192.29l-.27-.1-.32-.13-.31-.16-.28-.19a.55.55,0,0,1-.21-.63l1.07-3.2a.31.31,0,0,1,.15-.2.47.47,0,0,1,.26-.05,2.56,2.56,0,0,1,.62.07,6.21,6.21,0,0,1,.74.2,2.68,2.68,0,0,1,1.25.75,1.06,1.06,0,0,1,.18,1.07.88.88,0,0,1-.36.47,1.12,1.12,0,0,1-.59.17,1.27,1.27,0,0,1,.46.54,1,1,0,0,1,0,.71,1.14,1.14,0,0,1-.83.84A2.81,2.81,0,0,1,34.31,192.29Zm-.12-1.11.23.12.29.1a.94.94,0,0,0,.5,0,.39.39,0,0,0,.29-.29.37.37,0,0,0,0-.38.88.88,0,0,0-.43-.24l-.56-.19Zm.56-1.68.5.17a.72.72,0,0,0,.46,0,.4.4,0,0,0,.24-.28.34.34,0,0,0-.05-.34.82.82,0,0,0-.43-.27l-.24-.07-.22-.05Z"/><path id="Path_19129" data-name="Path 19129" class="cls-5" d="M38.55,189.56a.64.64,0,0,1,.69-.56l.1,0,2.35.46a1.55,1.55,0,0,1,.05.23.82.82,0,0,1,0,.27.52.52,0,0,1-.19.36.43.43,0,0,1-.33.06l-1.5-.3-.13.66,1.6.32a.79.79,0,0,1,0,.22.82.82,0,0,1,0,.27.52.52,0,0,1-.19.36.48.48,0,0,1-.33.06l-1.3-.26-.15.75,1.83.35a.93.93,0,0,1,0,.23.89.89,0,0,1,0,.28.52.52,0,0,1-.19.36.48.48,0,0,1-.33.06l-2.08-.41a.62.62,0,0,1-.55-.69.36.36,0,0,1,0-.1Z"/><path id="Path_19130" data-name="Path 19130" class="cls-5" d="M42.83,190.31a.63.63,0,0,1,.62-.63h.1l2.38.19a.83.83,0,0,1,.08.22.87.87,0,0,1,0,.28.5.5,0,0,1-.15.38.45.45,0,0,1-.32.09L44,190.72l-.05.68,1.62.13a.74.74,0,0,1,.07.21.82.82,0,0,1,0,.27.54.54,0,0,1-.15.38.37.37,0,0,1-.32.09l-1.32-.1-.06.76,1.85.14a.94.94,0,0,1,.07.22.88.88,0,0,1,0,.28.54.54,0,0,1-.15.38.42.42,0,0,1-.32.1l-2.11-.17a.63.63,0,0,1-.63-.63s0-.07,0-.1Z"/><path id="Path_19131" data-name="Path 19131" class="cls-5" d="M48.54,192.82l.06,1.39-.25,0-.33,0a1.51,1.51,0,0,1-.3,0,.34.34,0,0,1-.21-.08.31.31,0,0,1-.13-.17.8.8,0,0,1-.06-.3l-.16-3.41a.35.35,0,0,1,.08-.24.64.64,0,0,1,.22-.14,2.73,2.73,0,0,1,.56-.15,5.56,5.56,0,0,1,.7-.08,2.33,2.33,0,0,1,1.52.36,1.38,1.38,0,0,1,.56,1.11,1.27,1.27,0,0,1-.2.78,1.72,1.72,0,0,1-.53.51l.54.64a5.46,5.46,0,0,1,.43.55.66.66,0,0,1-.25.4.72.72,0,0,1-.42.15.86.86,0,0,1-.28,0l-.21-.09-.16-.15-.15-.2-.65-.95Zm.41-1a.58.58,0,0,0,.43-.16.53.53,0,0,0,.14-.42.51.51,0,0,0-.2-.41.85.85,0,0,0-.56-.11h-.18l-.14,0,.05,1.08Z"/><path id="Path_19132" data-name="Path 19132" class="cls-5" d="M56.09,191.66a1.75,1.75,0,0,1,0,.72,1.54,1.54,0,0,1-.28.61,1.7,1.7,0,0,1-.54.46,2.74,2.74,0,0,1-1.61.29,1.72,1.72,0,0,1-.67-.23,1.44,1.44,0,0,1-.48-.47,1.88,1.88,0,0,1-.26-.68l-.5-2.72.24-.09.32-.08.29,0a.59.59,0,0,1,.23.05.41.41,0,0,1,.16.16.91.91,0,0,1,.1.29l.4,2.17a.71.71,0,0,0,.28.5.73.73,0,0,0,1-.18.72.72,0,0,0,.09-.57l-.49-2.7.24-.08a1.68,1.68,0,0,1,.32-.09l.29,0a.59.59,0,0,1,.23,0,.41.41,0,0,1,.16.16,1,1,0,0,1,.1.29Z"/></g></g><circle id="Ellipse_144" data-name="Ellipse 144" class="cls-5" cx="30.38" cy="188.64" r="1.25"/><circle id="Ellipse_145" data-name="Ellipse 145" class="cls-5" cx="59.54" cy="190.61" r="1.25"/></g></g><g id="精釀啤酒" class="cls-6"><text class="cls-7" transform="matrix(1, 0.07, -0.07, 1, 27.22, 207.41)">精釀啤酒</text></g></g></g></g></svg>