<svg xmlns="http://www.w3.org/2000/svg" viewBox="0 0 99.41 267.12"><defs><style>.cls-1{fill:#fff;}.cls-2,.cls-6{fill:#b69564;}.cls-3{fill:#ffd76c;}.cls-4{fill:#163d50;stroke:#b69564;stroke-miterlimit:10;stroke-width:0.49px;}.cls-5,.cls-6{isolation:isolate;}.cls-6{font-size:7.81px;font-family:NotoSerifTC-Bold-90ms-RKSJ-H, Noto Serif TC;letter-spacing:0.07em;}</style></defs><g id="圖層_2" data-name="圖層 2"><g id="_0-ui_kits" data-name="0-ui_kits"><g id="Group_6808" data-name="Group 6808"><g id="Group_3297" data-name="Group 3297"><path id="Path_2040" data-name="Path 2040" class="cls-1" d="M28.29,265.75c-5.05-.85-8.87-4.41-9.49-8.86a10.45,10.45,0,0,1,4.43-9.76L1.38,124.23l0-.14A20.09,20.09,0,0,1,5,109.67a24.82,24.82,0,0,1,1.87-2.36,26.24,26.24,0,0,0,6.68-19.76L8.36,31.62c-2.4-1.8-2.66-4.7-2.8-6.3,0-.4-.07-.78-.12-1.16l-.22-1.57a11.27,11.27,0,0,1,1-7.22c-.09-.48-.16-.94-.21-1.32A11.49,11.49,0,0,1,6.05,9.2a6.1,6.1,0,0,1,5.29-4.34l25.82-3.6a7.51,7.51,0,0,1,2.27,0,6.05,6.05,0,0,1,4,2.5A10.77,10.77,0,0,1,45.09,8.6a16.68,16.68,0,0,1,.17,2.12,10.89,10.89,0,0,1,2.64,5.92l.27,1.94c.27,1.91.68,4.75-1.09,7.2l10,56A25.28,25.28,0,0,0,68.62,98.65a20.65,20.65,0,0,1,9.93,14.67s0,0,14.34,125.12a10.22,10.22,0,0,1,5.26,7.38c.82,5.87-4.05,11.41-10.86,12.36l-54.66,7.63A13.74,13.74,0,0,1,28.29,265.75Z"/><g id="Group_806" data-name="Group 806"><path id="Path_2041" data-name="Path 2041" class="cls-2" d="M39.23,2.44a4.9,4.9,0,0,1,3.24,2,9.74,9.74,0,0,1,1.45,4.28,14.17,14.17,0,0,1,.15,2.43,9.64,9.64,0,0,1,2.66,5.61L47,18.74c.28,2,.65,4.59-1.18,6.73L55.91,82A26.35,26.35,0,0,0,68,99.65a19.6,19.6,0,0,1,9.39,13.83S91.79,239.19,91.79,239.19A9.14,9.14,0,0,1,97,246c.73,5.22-3.69,10.17-9.86,11l-54.66,7.64a13.21,13.21,0,0,1-4,0c-4.44-.75-8-3.8-8.52-7.86a9.4,9.4,0,0,1,4.56-9.06l-5.43-30.5L2.55,124v-.09A18.94,18.94,0,0,1,6,110.36a22.84,22.84,0,0,1,1.78-2.25,27.25,27.25,0,0,0,7-20.66L9.48,31c-2.37-1.44-2.6-4.06-2.75-5.73,0-.42-.07-.82-.13-1.22l-.22-1.57a9.87,9.87,0,0,1,1-6.84c-.12-.57-.21-1.14-.29-1.7a10.5,10.5,0,0,1,0-4.36A4.89,4.89,0,0,1,11.5,6l25.82-3.6a6.12,6.12,0,0,1,1.91,0ZM39.62.11A8.59,8.59,0,0,0,37,.09L11.17,3.69A7.22,7.22,0,0,0,4.91,8.87a12.65,12.65,0,0,0-.12,5.34c0,.29.09.61.15,1A12.7,12.7,0,0,0,4,22.75l.22,1.57c0,.34.08.71.12,1.1a9.5,9.5,0,0,0,2.85,6.8l5.14,55.44A25,25,0,0,1,6,106.52,25.9,25.9,0,0,0,4,109,21.24,21.24,0,0,0,.19,124.24l0,.18,16.56,93.15,5.17,29.06A11.52,11.52,0,0,0,17.62,257c.69,5,4.9,8.93,10.47,9.87a15.43,15.43,0,0,0,4.7.06l54.66-7.64c7.45-1,12.77-7.18,11.86-13.69A11.38,11.38,0,0,0,94,237.7C79.71,113.18,79.71,113.18,79.7,113.13a21.83,21.83,0,0,0-10.46-15.5,24.08,24.08,0,0,1-11-16L48.31,26a10.91,10.91,0,0,0,1-7.64l-.27-1.93a12.25,12.25,0,0,0-2.64-6.21,18.33,18.33,0,0,0-.17-1.83,11.84,11.84,0,0,0-1.87-5.34,7.21,7.21,0,0,0-4.77-3Z"/></g><path id="Path_2042" data-name="Path 2042" class="cls-3" d="M49.74,63.23,53.4,83.11A26.83,26.83,0,0,0,66,101.47a17.31,17.31,0,0,1,8.78,12.37L89.39,241a6.87,6.87,0,0,1,5,5.39c.54,3.84-2.88,7.5-7.64,8.16l-54.66,7.64c-4.76.66-9.06-1.92-9.59-5.76-.43-3,1.63-6,4.85-7.38l-5.73-32.27L10.39,153.41,5.08,123.58a17.26,17.26,0,0,1,5.08-14.34,26.31,26.31,0,0,0,7.37-20.43L14.74,56.28c5.49,2.22,9.91,8.63,16.29,8.51S46,55.14,49.74,63.23Z"/><g id="Group_820" data-name="Group 820"><path id="Path_2059" data-name="Path 2059" class="cls-2" d="M15.55,31.46a1.18,1.18,0,0,1,0-2.33l25.58-3.57a1.18,1.18,0,0,1,.33,2.34h0L15.9,31.47A1,1,0,0,1,15.55,31.46Z"/></g><g id="Group_821" data-name="Group 821"><path id="Path_2060" data-name="Path 2060" class="cls-2" d="M15.35,17.28a1.18,1.18,0,0,1,0-2.34l19.35-2.7a1.18,1.18,0,0,1,.32,2.34h0l-19.34,2.7A1.09,1.09,0,0,1,15.35,17.28Z"/></g><g id="Group_822" data-name="Group 822"><path id="Path_2061" data-name="Path 2061" class="cls-2" d="M35.4,248.34a1.18,1.18,0,0,1,0-2.34l44.26-6.18a1.18,1.18,0,0,1,.32,2.34h0l-44.25,6.18A1.09,1.09,0,0,1,35.4,248.34Z"/></g><path id="Path_19123" data-name="Path 19123" class="cls-4" d="M71.9,220.46l-35.15,4.72a5.78,5.78,0,0,1-6.64-4.36L14,134.41c-.57-3,1.8-6,5.19-6.45l42.27-5.68a5.73,5.73,0,0,1,6.7,4.77l9,87.36A5.77,5.77,0,0,1,71.9,220.46Z"/></g><g id="Group_3305" data-name="Group 3305"><g id="Group_3298" data-name="Group 3298"><path id="Path_19124" data-name="Path 19124" class="cls-2" d="M29.37,170.06a16.53,16.53,0,0,1,1.07-8.43A16.56,16.56,0,1,1,59,157.8a16.57,16.57,0,1,1-29.58,12.26ZM31,161.55a.22.22,0,0,1,0,.14A16,16,0,1,0,58.41,158a.31.31,0,0,1,0-.28A16,16,0,1,0,31,161.42a.19.19,0,0,1,.05.13Z"/></g><g id="Group_3299" data-name="Group 3299"><path id="Path_19125" data-name="Path 19125" class="cls-2" d="M40.91,155c0,.15-.83.64-1.46.72l-.3,0L39,154.42l-1.33.18.2,1.48c0,.21-.65.74-1.45.84l-.28,0L34.59,145.7l2,.55,1.08-.14.77-1.11,2,1.2a1.21,1.21,0,0,1-.66.47Zm-2-1.09-1-7.31-1.32.18,1,7.31ZM50.22,153s1.25.84,2,1.41c0,.2-.21.31-.46.34l-3,.41.46,3.39c0,.16-.83.62-1.61.72l-.37.05-.52-3.88-5.92.79-.21-.48,6.06-.81-.41-3,2.69-.11c0,.22-.11.39-.54.52l.31,2.34.81-.11Zm-6.86-.9c0,.13-.51.63-1.46.76l-.32,0L40.51,145l2.2.52,1-.13c0-.71.08-1.72.07-2.42l2.92.2c0,.29-.26.46-.64.51-.39.45-1,1.09-1.48,1.59l3.21-.43.77-1.11,2.07,1.19a1.31,1.31,0,0,1-.61.43l.74,5.54a2.88,2.88,0,0,1-1.55.77l-.32,0-.09-.73-2.34.32c-.45,1.41-1.74,2.77-4.93,3.93l-.15-.19c2-1.14,2.94-2.29,3.3-3.5l-1.36.18ZM42.54,146l.3,2.25,1.79-.24-.3-2.25Zm2.23,5a6.58,6.58,0,0,0,0-2l0-.42-1.79.24.33,2.42Zm3.94-.53L48.39,148l-1.86.25.06.41a6.41,6.41,0,0,1,0,2.05Zm-2.55-4.92.3,2.24,1.86-.25-.3-2.24Z"/></g><g id="Group_3300" data-name="Group 3300"><path id="Path_19126" data-name="Path 19126" class="cls-2" d="M51.44,164.12s1.54.91,2.49,1.54c0,.2-.21.32-.47.35l-3.37.45A13.38,13.38,0,0,1,48.47,173c7.57,1.73,5.56,4.77,3.6,4.19a20.62,20.62,0,0,0-4.74-2.65C45.64,176.45,43,178,39,179.17l-.14-.19a16.35,16.35,0,0,0,6.82-5.07,39.79,39.79,0,0,0-5.36-1.49c.46-1.58.85-3.18,1.15-4.79l-3.8.51-.21-.5,4.14-.55c.4-2.05.75-4.06.83-5.15l3,.37c0,.2-.14.39-.69.47-.17,1-.46,2.42-.81,4l3.78-.51c0-.75-.06-1.54-.13-2.3l3.14.24c0,.31-.24.49-.64.54,0,.41,0,.81,0,1.2l.3,0Zm-7.62,3.19c-.37,1.7-.8,3.46-1.22,4.87,1.45.13,2.7.28,3.82.46a12.66,12.66,0,0,0,1.31-5.86Z"/></g><g id="Group_3301" data-name="Group 3301"><path id="Path_19127" data-name="Path 19127" class="cls-2" d="M26.87,170.22a18.84,18.84,0,0,1,.7-8.24,19.08,19.08,0,1,1,34.91-13l0,.19a18.85,18.85,0,0,1-.7,8.24,19,19,0,1,1-34.94,12.84Zm1.86-8.4a.69.69,0,0,1,0,.25,18,18,0,1,0,34.85,3.24v0a17.61,17.61,0,0,0-2.82-7.52.58.58,0,0,1-.06-.48,18,18,0,1,0-34.85-3.24v0a17.88,17.88,0,0,0,2.82,7.52.5.5,0,0,1,.09.23Z"/></g><g id="Group_3304" data-name="Group 3304"><g id="Group_3303" data-name="Group 3303"><g id="Group_3302" data-name="Group 3302"><path id="Path_19128" data-name="Path 19128" class="cls-2" d="M38.83,194.46l-.29,0-.34-.07-.34-.1a1.2,1.2,0,0,1-.31-.13.54.54,0,0,1-.33-.57l.41-3.35a.3.3,0,0,1,.11-.23.51.51,0,0,1,.24-.1,2.68,2.68,0,0,1,.63-.05,6.61,6.61,0,0,1,.76.05,2.6,2.6,0,0,1,1.37.48,1,1,0,0,1,.39,1,.89.89,0,0,1-.26.54,1.12,1.12,0,0,1-.54.28,1.19,1.19,0,0,1,.55.44.9.9,0,0,1,.16.69,1.15,1.15,0,0,1-.65,1A2.88,2.88,0,0,1,38.83,194.46Zm-.35-1.07.26.07.3,0a1,1,0,0,0,.49-.06.42.42,0,0,0,.24-.35.4.4,0,0,0-.12-.36,1,1,0,0,0-.47-.16l-.59-.07Zm.21-1.75.53.06a.73.73,0,0,0,.46-.06.42.42,0,0,0,.18-.32.36.36,0,0,0-.12-.33.82.82,0,0,0-.47-.17l-.25,0H38.8Z"/><path id="Path_19129" data-name="Path 19129" class="cls-2" d="M42.44,190.93a.62.62,0,0,1,.56-.68h.1l2.39,0a1,1,0,0,1,.09.21.87.87,0,0,1,.05.28.55.55,0,0,1-.12.39.45.45,0,0,1-.31.12H43.67v.67h1.63a.72.72,0,0,1,.09.2.84.84,0,0,1,0,.27.61.61,0,0,1-.11.4.41.41,0,0,1-.31.11l-1.34,0v.76l1.86,0a1,1,0,0,1,.09.21,1.26,1.26,0,0,1,0,.28.55.55,0,0,1-.12.39.41.41,0,0,1-.31.12l-2.12,0a.63.63,0,0,1-.68-.56V194Z"/><path id="Path_19130" data-name="Path 19130" class="cls-2" d="M46.77,190.81a.62.62,0,0,1,.49-.73l.1,0,2.37-.28a.76.76,0,0,1,.12.19,1.34,1.34,0,0,1,.07.27.54.54,0,0,1-.07.41.48.48,0,0,1-.3.15L48,191l.09.67,1.61-.2a.82.82,0,0,1,.12.2,1.11,1.11,0,0,1,.07.26.54.54,0,0,1-.07.41.41.41,0,0,1-.29.15l-1.33.16.1.75,1.84-.22a.82.82,0,0,1,.12.2,1.11,1.11,0,0,1,.07.26.54.54,0,0,1-.07.41.43.43,0,0,1-.3.16l-2.1.25a.61.61,0,0,1-.73-.48.43.43,0,0,1,0-.11Z"/><path id="Path_19131" data-name="Path 19131" class="cls-2" d="M52.87,192.13l.34,1.35-.23.1-.33.11a1.35,1.35,0,0,1-.28,0,.45.45,0,0,1-.23,0,.5.5,0,0,1-.17-.15,1,1,0,0,1-.11-.28L51,190a.31.31,0,0,1,0-.25.55.55,0,0,1,.19-.18,2.57,2.57,0,0,1,.52-.27,5.16,5.16,0,0,1,.67-.2,2.26,2.26,0,0,1,1.56,0,1.42,1.42,0,0,1,.77,1,1.29,1.29,0,0,1,0,.8,1.59,1.59,0,0,1-.42.61L55,192a4.65,4.65,0,0,1,.53.45.7.7,0,0,1-.16.44.68.68,0,0,1-.39.23.84.84,0,0,1-.27,0,.86.86,0,0,1-.23,0,1,1,0,0,1-.19-.12l-.18-.16-.83-.8Zm.21-1a.61.61,0,0,0,.38-.25.49.49,0,0,0,.06-.44.51.51,0,0,0-.28-.36.93.93,0,0,0-.57,0l-.17.05-.14.06.27,1Z"/><path id="Path_19132" data-name="Path 19132" class="cls-2" d="M60,189.49a1.87,1.87,0,0,1,.14.71,1.44,1.44,0,0,1-.15.65,1.74,1.74,0,0,1-.44.56,2.83,2.83,0,0,1-1.52.61,1.83,1.83,0,0,1-.7-.1,1.54,1.54,0,0,1-.57-.36,1.91,1.91,0,0,1-.39-.62l-1-2.56.22-.13a2.1,2.1,0,0,1,.3-.15,1.31,1.31,0,0,1,.28-.09.59.59,0,0,1,.23,0,.39.39,0,0,1,.19.12.61.61,0,0,1,.15.26l.83,2a.73.73,0,0,0,.38.43.72.72,0,0,0,.92-.37.71.71,0,0,0,0-.57l-1-2.55.22-.13a2.1,2.1,0,0,1,.3-.15,1.47,1.47,0,0,1,.28-.08.45.45,0,0,1,.23,0,.35.35,0,0,1,.19.12.92.92,0,0,1,.16.27Z"/></g></g><circle id="Ellipse_144" data-name="Ellipse 144" class="cls-2" cx="34.24" cy="191.66" r="1.25"/><circle id="Ellipse_145" data-name="Ellipse 145" class="cls-2" cx="63.21" cy="187.77" r="1.25"/></g></g><g id="精釀啤酒" class="cls-5"><text class="cls-6" transform="translate(34.9 210.69) rotate(-7.65)">精釀啤酒</text></g></g></g></g></svg>