<svg xmlns="http://www.w3.org/2000/svg" viewBox="0 0 94.96 266.7"><defs><style>.cls-1{fill:#fff;}.cls-2,.cls-6{fill:#b69564;}.cls-3{fill:#f08e19;}.cls-4{fill:#25315e;stroke:#b69564;stroke-miterlimit:10;stroke-width:0.49px;}.cls-5,.cls-6{isolation:isolate;}.cls-6{font-size:7.81px;font-family:NotoSerifTC-Bold-90ms-RKSJ-H, Noto Serif TC;letter-spacing:0.07em;}</style></defs><g id="圖層_2" data-name="圖層 2"><g id="_0-ui_kits" data-name="0-ui_kits"><g id="Group_6808" data-name="Group 6808"><g id="Group_3297" data-name="Group 3297"><path id="Path_2040" data-name="Path 2040" class="cls-1" d="M23.22,265.25c-5-1-8.72-4.73-9.18-9.19a10.46,10.46,0,0,1,4.78-9.6L1.29,122.86v-.14a20.08,20.08,0,0,1,4.15-14.27,25.44,25.44,0,0,1,2-2.3,26.21,26.21,0,0,0,7.37-19.51L11.53,30.55C9.19,28.67,9,25.77,8.94,24.16c0-.4,0-.78-.08-1.16L8.7,21.42a11.34,11.34,0,0,1,1.21-7.18c-.07-.48-.12-1-.16-1.32A11.34,11.34,0,0,1,10,8.07a6.09,6.09,0,0,1,5.44-4.15L41.37,1.23a7.21,7.21,0,0,1,2.27.1A6,6,0,0,1,47.55,4,10.75,10.75,0,0,1,49,8.84a16.63,16.63,0,0,1,.1,2.12,10.92,10.92,0,0,1,2.42,6l.21,2c.2,1.92.51,4.77-1.35,7.16l8,56.34a25.29,25.29,0,0,0,11,17.24,20.68,20.68,0,0,1,9.4,15s0,0,9.94,125.55a10.24,10.24,0,0,1,5,7.56c.61,5.89-4.46,11.26-11.29,12l-54.89,5.71A14.37,14.37,0,0,1,23.22,265.25Z"/><g id="Group_806" data-name="Group 806"><path id="Path_2041" data-name="Path 2041" class="cls-2" d="M43.39,2.48a4.88,4.88,0,0,1,3.17,2.15A9.62,9.62,0,0,1,47.86,9a13.25,13.25,0,0,1,.07,2.44,9.6,9.6,0,0,1,2.46,5.7l.2,1.95c.21,2,.49,4.6-1.41,6.68l8.09,56.86a26.35,26.35,0,0,0,11.46,18,19.63,19.63,0,0,1,8.9,14.15s10,126.14,10,126.14a9.14,9.14,0,0,1,5,7c.54,5.24-4,10-10.24,10.68l-54.89,5.71a13.21,13.21,0,0,1-4-.19c-4.41-.91-7.82-4.08-8.25-8.16a9.42,9.42,0,0,1,4.88-8.89l-4.35-30.67L2.47,122.7v-.09a18.93,18.93,0,0,1,3.92-13.45A25.77,25.77,0,0,1,8.24,107a27.29,27.29,0,0,0,7.69-20.4L12.67,29.94c-2.32-1.52-2.46-4.15-2.55-5.83,0-.42,0-.82-.09-1.22l-.16-1.58a9.82,9.82,0,0,1,1.28-6.8c-.1-.57-.17-1.15-.23-1.7a10.51,10.51,0,0,1,.2-4.36,4.87,4.87,0,0,1,4.44-3.34l25.93-2.7a6.45,6.45,0,0,1,1.91.08ZM43.87.17A8.6,8.6,0,0,0,41.24.05L15.31,2.74a7.24,7.24,0,0,0-6.44,5A12.65,12.65,0,0,0,8.57,13c0,.28.06.61.11,1a12.75,12.75,0,0,0-1.16,7.54l.16,1.57c0,.34.06.72.08,1.11a9.54,9.54,0,0,0,2.61,6.9l3.2,55.58a25,25,0,0,1-7,18.62,24.84,24.84,0,0,0-2,2.41A21.22,21.22,0,0,0,.1,122.84l0,.17L13.4,216.69l4.14,29.22a11.54,11.54,0,0,0-4.68,10.26c.52,5,4.58,9.09,10.12,10.22a15.37,15.37,0,0,0,4.69.23l54.89-5.71c7.49-.78,13-6.73,12.34-13.27a11.34,11.34,0,0,0-5-8.12c-9.89-125-9.89-125-9.9-125A21.82,21.82,0,0,0,70,98.66,24,24,0,0,1,59.6,82.24l-8-55.87a10.9,10.9,0,0,0,1.28-7.6l-.2-1.94a12.29,12.29,0,0,0-2.42-6.3A17.52,17.52,0,0,0,50.2,8.7a11.72,11.72,0,0,0-1.68-5.4A7.2,7.2,0,0,0,43.86.15Z"/></g><g id="Path_2042" data-name="Path 2042"><path class="cls-3" d="M26.05,261.32c-4.09,0-7.43-2.45-7.77-5.7-.28-2.74,1.65-5.43,4.8-6.69l.37-.14L5.51,122.27a16.86,16.86,0,0,1,5.42-13.7A26.88,26.88,0,0,0,19.18,88L17.57,56.25a30.87,30.87,0,0,1,5,3.59C25.7,62.34,28.9,64.94,33,65h.11c2.27,0,4.85-1.13,7.35-2.22s4.79-2.09,6.77-2.09,3.17,1,4.05,3.05l2.95,19.93a27.37,27.37,0,0,0,12.21,19.14,16.69,16.69,0,0,1,8.12,12.31L84.68,243l.32.1a6.42,6.42,0,0,1,4.5,5.15c.36,3.56-3,6.85-7.49,7.32l-54.89,5.71A9.81,9.81,0,0,1,26.05,261.32Z"/><path class="cls-1" d="M18.12,57.13a40.71,40.71,0,0,1,4.18,3.09c3.16,2.56,6.42,5.21,10.69,5.28h.12c2.38,0,5-1.15,7.55-2.26,2.31-1,4.7-2.05,6.57-2.05,1.12,0,2.54.31,3.56,2.69l2.94,19.86A27.88,27.88,0,0,0,66.2,103.25a16.12,16.12,0,0,1,7.85,11.89l10.1,127.54,0,.69.66.19A5.93,5.93,0,0,1,89,248.27c.34,3.31-2.82,6.35-7,6.79l-54.9,5.71a8.65,8.65,0,0,1-1,.05c-3.84,0-7-2.26-7.27-5.25-.26-2.52,1.54-5,4.49-6.17l.73-.29-.11-.78-4.6-32.45-9-63.67L6,122.23a16.35,16.35,0,0,1,5.28-13.31A27.4,27.4,0,0,0,19.68,88L18.12,57.13M17,55.43,18.68,88A26.36,26.36,0,0,1,10.6,108.2,17.28,17.28,0,0,0,5,122.34l4.26,30,9,63.67,4.6,32.45c-3.27,1.3-5.43,4.15-5.11,7.2.36,3.56,4,6.15,8.26,6.15.36,0,.74,0,1.12-.05l54.89-5.71c4.79-.5,8.33-4,7.93-7.9a6.88,6.88,0,0,0-4.84-5.55L75.05,115.06a17.3,17.3,0,0,0-8.34-12.67,26.88,26.88,0,0,1-12-18.79l-3-20c-1-2.53-2.65-3.41-4.53-3.41-4.19,0-9.81,4.31-14.12,4.31H33c-6.38-.1-10.57-6.66-16-9.07Z"/></g><g id="Group_820" data-name="Group 820"><path id="Path_2059" data-name="Path 2059" class="cls-2" d="M18.71,30.65a1.18,1.18,0,0,1,.11-2.33l25.7-2.67a1.18,1.18,0,0,1,1.29,1.06A1.17,1.17,0,0,1,44.76,28h0L19.07,30.67A1.09,1.09,0,0,1,18.71,30.65Z"/></g><g id="Group_821" data-name="Group 821"><path id="Path_2060" data-name="Path 2060" class="cls-2" d="M19,16.47a1.18,1.18,0,0,1,.12-2.33l19.43-2a1.18,1.18,0,0,1,.24,2.35h0l-19.43,2A1.45,1.45,0,0,1,19,16.47Z"/></g><g id="Group_822" data-name="Group 822"><path id="Path_2061" data-name="Path 2061" class="cls-2" d="M30.93,248.09a1.18,1.18,0,0,1,.11-2.33l44.45-4.63a1.19,1.19,0,0,1,1.3,1.06,1.17,1.17,0,0,1-1.05,1.29h0l-44.45,4.63A1.45,1.45,0,0,1,30.93,248.09Z"/></g><path id="Path_19123" data-name="Path 19123" class="cls-4" d="M68.39,221.51,33.1,225a5.79,5.79,0,0,1-6.49-4.59l-13-86.92c-.46-3.08,2-5.93,5.42-6.27L61.44,123c3.38-.33,6.33,1.93,6.54,5l5.87,87.63A5.78,5.78,0,0,1,68.39,221.51Z"/></g><g id="Group_3305" data-name="Group 3305"><g id="Group_3298" data-name="Group 3298"><path id="Path_19124" data-name="Path 19124" class="cls-2" d="M28.66,169.61A16.43,16.43,0,0,1,30,161.23a16.56,16.56,0,1,1,28.63-2.83,16.56,16.56,0,1,1-30,11.21Zm2-8.44a.22.22,0,0,1,0,.14A16,16,0,1,0,58.1,158.6a.31.31,0,0,1,0-.28A16,16,0,1,0,30.57,161a.34.34,0,0,1,.05.14Z"/></g><g id="Group_3299" data-name="Group 3299"><path id="Path_19125" data-name="Path 19125" class="cls-2" d="M40.72,155a2.49,2.49,0,0,1-1.49.67l-.3,0-.13-1.35-1.33.13.14,1.49c0,.21-.68.71-1.47.79l-.29,0-1.12-11.31,2,.63,1.08-.11.81-1.08,2,1.27a1.17,1.17,0,0,1-.67.44Zm-2-1.16L38,146.47l-1.33.13.73,7.34Zm11.35-.53s1.21.88,1.91,1.47c0,.2-.22.31-.46.33l-3,.3.34,3.41c0,.16-.85.58-1.63.66l-.38,0-.38-3.9-5.94.58-.19-.48,6.08-.6-.3-3,2.68,0c0,.22-.12.39-.56.51l.24,2.34.81-.08Zm-6.83-1.14c0,.13-.53.61-1.49.7l-.32,0-.78-8,2.17.59,1-.1c.06-.71.14-1.72.16-2.42l2.91.31c0,.29-.28.45-.67.49-.4.43-1,1.05-1.53,1.53l3.23-.32.8-1.08,2,1.27a1.24,1.24,0,0,1-.62.4l.55,5.57a2.88,2.88,0,0,1-1.58.71l-.31,0-.08-.73-2.34.23c-.5,1.39-1.84,2.71-5.07,3.76l-.14-.2c2-1.06,3-2.18,3.42-3.38l-1.36.13Zm-.6-6.12.22,2.26,1.79-.18-.22-2.25Zm2,5a6.58,6.58,0,0,0,.05-2l0-.42-1.79.17.24,2.43Zm4-.39-.24-2.43-1.87.18,0,.41a6.72,6.72,0,0,1-.07,2Zm-2.38-5,.22,2.25,1.87-.19-.23-2.25Z"/></g><g id="Group_3300" data-name="Group 3300"><path id="Path_19126" data-name="Path 19126" class="cls-2" d="M50.92,164.46s1.51,1,2.44,1.62c0,.2-.22.31-.49.33l-3.38.34a13.34,13.34,0,0,1-1.85,6.5c7.5,2,5.39,5,3.45,4.31a21,21,0,0,0-4.65-2.81c-1.75,1.82-4.43,3.28-8.5,4.31l-.13-.2a16.2,16.2,0,0,0,7-4.83,40.92,40.92,0,0,0-5.31-1.68,45.63,45.63,0,0,0,1.33-4.74L37,168l-.19-.5,4.15-.41c.48-2,.89-4,1-5.11l3,.47c0,.2-.16.39-.71.45-.21,1-.55,2.4-.95,4l3.79-.38c0-.75,0-1.54-.05-2.3l3.13.35c0,.31-.25.47-.66.52,0,.41,0,.8,0,1.2l.31,0Zm-7.73,2.91c-.42,1.69-.91,3.44-1.39,4.83,1.45.17,2.69.38,3.8.59A12.71,12.71,0,0,0,47.13,167Z"/></g><g id="Group_3301" data-name="Group 3301"><path id="Path_19127" data-name="Path 19127" class="cls-2" d="M26.15,169.68a18.94,18.94,0,0,1,1-8.21,18.67,18.67,0,0,1-2.57-7.85,19.06,19.06,0,0,1,37.92-3.94c0,.06,0,.13,0,.19a18.92,18.92,0,0,1-1,8.21,19,19,0,1,1-35.37,11.6Zm2.16-8.32a.54.54,0,0,1,0,.25,17.7,17.7,0,0,0-1,8A18,18,0,1,0,63,166.07v0a17.7,17.7,0,0,0-2.56-7.62.57.57,0,0,1,0-.48,17.73,17.73,0,0,0,1-8,18,18,0,0,0-35.73,3.51v0a17.79,17.79,0,0,0,2.56,7.61.68.68,0,0,1,.08.24Z"/></g><g id="Group_3304" data-name="Group 3304"><g id="Group_3303" data-name="Group 3303"><g id="Group_3302" data-name="Group 3302"><path id="Path_19128" data-name="Path 19128" class="cls-2" d="M37.25,194.33l-.28-.05-.34-.08-.34-.11A2,2,0,0,1,36,194a.54.54,0,0,1-.31-.58L36.2,190a.3.3,0,0,1,.12-.22.69.69,0,0,1,.25-.1,3.22,3.22,0,0,1,.62,0,6.31,6.31,0,0,1,.76.08,2.65,2.65,0,0,1,1.36.53,1.06,1.06,0,0,1,.35,1,.88.88,0,0,1-.27.52,1.07,1.07,0,0,1-.56.26,1.27,1.27,0,0,1,.54.46,1,1,0,0,1,.14.7,1.17,1.17,0,0,1-.69,1A2.89,2.89,0,0,1,37.25,194.33Zm-.31-1.08.26.08.3.06a.92.92,0,0,0,.49,0,.42.42,0,0,0,.25-.34.37.37,0,0,0-.11-.36.83.83,0,0,0-.46-.17l-.59-.09Zm.28-1.75.52.09a.73.73,0,0,0,.46-.05.44.44,0,0,0,.2-.31.37.37,0,0,0-.12-.34.94.94,0,0,0-.46-.19l-.25,0h-.22Z"/><path id="Path_19129" data-name="Path 19129" class="cls-2" d="M41,190.93a.63.63,0,0,1,.59-.66h.1l2.39.06a1,1,0,0,1,.09.21,1.33,1.33,0,0,1,0,.28.56.56,0,0,1-.13.39.46.46,0,0,1-.32.1l-1.52,0,0,.67,1.63.05a1,1,0,0,1,.08.21.63.63,0,0,1,0,.27.55.55,0,0,1-.12.39.46.46,0,0,1-.32.1l-1.33,0,0,.76,1.86.05a1,1,0,0,1,.09.21,1.27,1.27,0,0,1,0,.28.56.56,0,0,1-.13.39.42.42,0,0,1-.32.11l-2.11-.06a.62.62,0,0,1-.66-.59.17.17,0,0,1,0-.1Z"/><path id="Path_19130" data-name="Path 19130" class="cls-2" d="M45.32,191a.62.62,0,0,1,.51-.72h.1l2.38-.21a.66.66,0,0,1,.11.2.89.89,0,0,1,.07.28.58.58,0,0,1-.09.4.49.49,0,0,1-.3.14l-1.52.13.05.67,1.63-.14a.75.75,0,0,1,.1.2.77.77,0,0,1,.07.27.58.58,0,0,1-.09.4.45.45,0,0,1-.3.14l-1.32.11.06.76,1.86-.16a.75.75,0,0,1,.1.2.9.9,0,0,1,.07.27.56.56,0,0,1-.09.4.38.38,0,0,1-.3.15l-2.11.18a.62.62,0,0,1-.72-.51s0-.07,0-.1Z"/><path id="Path_19131" data-name="Path 19131" class="cls-2" d="M51.37,192.5l.29,1.36a2.34,2.34,0,0,1-.24.09,1.68,1.68,0,0,1-.32.09,1,1,0,0,1-.29,0,.59.59,0,0,1-.23,0,.57.57,0,0,1-.16-.15,1,1,0,0,1-.11-.29l-.71-3.34a.37.37,0,0,1,0-.25.55.55,0,0,1,.2-.17,2.84,2.84,0,0,1,.53-.25c.22-.07.45-.13.67-.18a2.32,2.32,0,0,1,1.56.09,1.45,1.45,0,0,1,.74,1,1.29,1.29,0,0,1-.07.8,1.73,1.73,0,0,1-.44.6l.65.54a3.71,3.71,0,0,1,.5.47.68.68,0,0,1-.17.43.73.73,0,0,1-.4.22,1.24,1.24,0,0,1-.27,0,.79.79,0,0,1-.22-.06.62.62,0,0,1-.19-.12l-.18-.17-.8-.83Zm.24-1a.59.59,0,0,0,.4-.23.57.57,0,0,0,.07-.44.53.53,0,0,0-.26-.37.89.89,0,0,0-.58,0l-.17,0-.14.06.23,1.06Z"/><path id="Path_19132" data-name="Path 19132" class="cls-2" d="M58.63,190.11a1.89,1.89,0,0,1,.11.71,1.61,1.61,0,0,1-.17.65,1.84,1.84,0,0,1-.46.54,2.78,2.78,0,0,1-1.54.56,1.84,1.84,0,0,1-.7-.12,1.53,1.53,0,0,1-.55-.39,1.81,1.81,0,0,1-.37-.63l-.94-2.6.22-.12.31-.14a1.28,1.28,0,0,1,.28-.07.44.44,0,0,1,.23,0,.41.41,0,0,1,.19.13.87.87,0,0,1,.14.27l.75,2.07a.78.78,0,0,0,.37.45.72.72,0,0,0,.93-.34.75.75,0,0,0,0-.57l-.94-2.58.23-.13.3-.14a1.37,1.37,0,0,1,.29-.07.45.45,0,0,1,.23,0,.38.38,0,0,1,.18.13,1.17,1.17,0,0,1,.15.27Z"/></g></g><circle id="Ellipse_144" data-name="Ellipse 144" class="cls-2" cx="32.76" cy="191.37" r="1.25"/><circle id="Ellipse_145" data-name="Ellipse 145" class="cls-2" cx="61.85" cy="188.5" r="1.25"/></g></g><g id="精釀啤酒" class="cls-5"><text class="cls-6" transform="translate(32.75 210.41) rotate(-5.64)">精釀啤酒</text></g></g></g></g></svg>