<svg xmlns="http://www.w3.org/2000/svg" viewBox="0 0 98.77 81.28"><defs><style>.cls-1{fill:#fff;fill-rule:evenodd;}</style></defs><g id="圖層_2" data-name="圖層 2"><g id="_0-ori" data-name="0-ori"><path class="cls-1" d="M1,13c5.78,13.38,29.19,7.58,34.57,23.33C36.43,39,39.3,49.56,47.6,50.18c5,.38,13.25-5.87,5.83-23C38.79-6.65-7.21-5.89,1,13Z"/><path class="cls-1" d="M78.31,8.24C70.43,3.94,55.13,16.87,61.84,25S89.6,14.41,78.31,8.24Z"/><path class="cls-1" d="M85.13,30.3c-17.72.94-27,17.52-24.08,24.56a6.14,6.14,0,0,0,7.34,3.68c2.62-.75,4.36-3.07,6.34-4.78,5-4.28,16.25-.64,22.32-8.58C100.11,41.19,100.67,29.47,85.13,30.3Z"/><path class="cls-1" d="M46.53,63.43a24.17,24.17,0,0,0-10.42-8.28,15.6,15.6,0,0,0-9.93-1.21,9.54,9.54,0,0,0-7.06,6.65A10.44,10.44,0,0,0,19.93,67c3.16,7.33,11.71,15.3,20.27,14.16C47.07,80.25,52.79,72.07,46.53,63.43ZM24.2,57.81a2.65,2.65,0,0,0-.26.21l.22-.19Zm-.41.34-.33.34A3.51,3.51,0,0,1,23.79,58.15Z"/></g></g></svg>