<svg xmlns="http://www.w3.org/2000/svg" viewBox="0 0 32.99 31.73"><defs><style>.cls-1{fill:#fff;}</style></defs><g id="圖層_2" data-name="圖層 2"><g id="_0-ui_kits" data-name="0-ui_kits"><path id="logo_beer_moondog" class="cls-1" d="M9.43,13.35c0-.12,0-.23,0-.36V12.9s0,0,0,.06a1.12,1.12,0,0,0,0,.21v0s0,.06,0,.09l0,0h0a1.27,1.27,0,0,0,0,.2h0s0-.07,0-.11S9.44,13.37,9.43,13.35Zm5.74-.1-.39.37a3,3,0,0,1-.31.22.88.88,0,0,0-.33.24l0,0,0,.06h.08a2.18,2.18,0,0,0,.31-.22l.48-.36.42-.28.13-.09c.07,0,.14-.07.13-.17a.25.25,0,0,1,0-.08l0,0-.32.22S15.2,13.22,15.17,13.25Zm-.81-4.66h.32c0-.07-.08-.11-.15-.1h-.27s0,0,0,0S14.31,8.59,14.36,8.59Zm-6,2.78h0c.05-.11.1-.21.14-.31h0C8.41,11.17,8.37,11.27,8.32,11.37Zm4.12,1.3c0,.06.06.13.13.15l0,0c.08.07.12.17.21.25a2.61,2.61,0,0,0,.46.34.93.93,0,0,0,.47.11.76.76,0,0,0,.41-.13c.24-.17.46-.34.68-.52a.79.79,0,0,0,.26-.31l.1-.2.08-.09.05,0h0v0a2.47,2.47,0,0,0,.06-.29,2.62,2.62,0,0,0,0-.28c0-.1,0-.2,0-.31s0-.22,0-.33a2.93,2.93,0,0,0,0-.29,3.58,3.58,0,0,0-.09-.35A5,5,0,0,0,15,9.88a.79.79,0,0,0-.27-.3.75.75,0,0,0-.34-.13l-.24,0a1.3,1.3,0,0,0-.52,0h-.11a.13.13,0,0,0-.11.05l0,0L13,9.91c-.14.13-.28.28-.43.41a.41.41,0,0,0-.15.27c0,.14,0,.28,0,.4s0,.42,0,.63v.77a.19.19,0,0,0,0,.07A2.12,2.12,0,0,1,12.44,12.67ZM12,11.9c0,.12,0,.23,0,.34A.65.65,0,0,0,12,11.9ZM6.81,14l0,0h0s0,0,0,0Zm5.14.39s0-.1,0-.13a.32.32,0,0,1-.18-.18h0s0,0,0,0h-.07A1,1,0,0,0,12,14.35Zm1.88-6.22.07,0h0l.13-.06v0h-.29S13.81,8.13,13.83,8.13ZM11.61,14l.05,0,0-.1s0-.05,0-.06-.06-.09-.08-.14h-.07s0,.06,0,.09S11.53,14,11.61,14Zm-4.77.78s0,0,0-.05H6.79Zm-.14.25H6.62a.06.06,0,0,1,0,.08.05.05,0,0,0,0,0,.38.38,0,0,0,.08.17l0,0,.08-.23S6.71,15.06,6.7,15.06Zm3.05.22,0,0v0l0-.21c0-.06,0-.06-.07-.05s0,.08,0,.11A.5.5,0,0,0,9.75,15.28Zm.06-3s0-.07,0-.11h0s0,.07,0,.11Zm9.62-3.35c.06-.07.11-.07.18,0l.06.06a.55.55,0,0,0,.19-.15.12.12,0,0,0,0-.15s0,0-.06,0a.55.55,0,0,1-.18.13l-.15-.11c-.05.1-.09.2-.14.29A.18.18,0,0,0,19.43,8.88Zm-.37-.11c0-.09.09-.16.13-.25s0,0,0-.06a.19.19,0,0,0,0-.08.67.67,0,0,1,.06-.12h0c-.05,0-.1.1-.15.15a.06.06,0,0,0,0,.07.29.29,0,0,1,0,.09s0,.12,0,.18v0Zm1.08,2.5v0h0s0,0,0,0a.2.2,0,0,0,0,.07l0,0ZM20.49,14a2.44,2.44,0,0,0,.53-.14l0,0a.47.47,0,0,0-.17,0,2.46,2.46,0,0,0-.29.09l-.29.07a.15.15,0,0,1-.15,0,.14.14,0,0,0-.22,0l.14,0A1.88,1.88,0,0,0,20.49,14Zm-5.16.31-.26.16,0,0v0l.36-.17S15.37,14.29,15.33,14.32ZM19,13.66l0,.05a.77.77,0,0,0,.31.16s0,0,0,0,0-.07,0-.09a.17.17,0,0,1,0-.11.17.17,0,0,0-.06-.06l0,0A.34.34,0,0,0,19,13.66Zm.15-2.33,0-.09a.08.08,0,0,0,0,0s0,0,0,0l0,0s0,0,0,0S19.14,11.31,19.17,11.33Zm-9.85,1s0,0,0,0h0s0-.1,0-.15h0A.4.4,0,0,0,9.32,12.31ZM22.89,8.37c0-.07-.06-.08-.11,0l-.13.09,0,0C22.74,8.48,22.81,8.41,22.89,8.37ZM23,9.81a.12.12,0,0,1,0-.1s0,0,0,0h0l0,.13,0,0Zm.46.35s0,0,0,0,0-.11,0-.13,0-.13,0-.19h0c0,.08,0,.14,0,.22a.34.34,0,0,0,0,.1S23.4,10.14,23.42,10.16Zm-3.26,1.07s0-.14,0-.16,0,.11,0,.16Zm2.21,1.59-.05-.08c0,.08,0,.14,0,.22S22.4,12.87,22.37,12.82Zm-.34,0s0-.06,0-.1h0v.1Zm-2.92-1.49s0,.08,0,.12a.17.17,0,0,0,.1-.13h0s0,0,0,0S19.12,11.35,19.11,11.37Zm-2.21,7c0,.25,0,.51,0,.73s.06.41.11.59.1.33.15.5a.38.38,0,0,0,.21.25.08.08,0,0,0,.07,0,.29.29,0,0,1,.22,0,.54.54,0,0,0,.12.09,1.76,1.76,0,0,0,.3.1.87.87,0,0,0,.69-.07,3.21,3.21,0,0,0,.3-.21,1.14,1.14,0,0,0,.15-.16,2.11,2.11,0,0,1,.27-.25.17.17,0,0,0,.07-.16,3.66,3.66,0,0,1,.05-.57c0-.1,0-.21,0-.3a5.86,5.86,0,0,0,0-.59,3.57,3.57,0,0,0,0-.47,1.34,1.34,0,0,0-.07-.27,1.33,1.33,0,0,0-.05-.19c-.06-.14-.13-.29-.2-.43a.53.53,0,0,0-.35-.3l-.13,0a.77.77,0,0,0-.45,0l-.34.08a.47.47,0,0,0-.32.14c-.05.05-.13.09-.15.15a2.5,2.5,0,0,1-.16.24.16.16,0,0,1-.13.09.1.1,0,0,0-.09.06c0,.1-.09.19-.12.29a3.62,3.62,0,0,0-.13.35A3.25,3.25,0,0,0,16.9,18.37Zm-.81,5.52h-.42c-.07,0-.07.05-.07.1v.3c0,.12,0,.24,0,.36s0,.05.06.05h.12l.32,0h0s0,0,0,0l0,0h0c.11,0,.14-.07.15-.17s0,0,0-.05l.15-.23a.09.09,0,0,0,0-.07A.39.39,0,0,0,16.09,23.89Zm3.58-2.26a.24.24,0,0,0,.08-.06,5.66,5.66,0,0,0,.43-.54c.14-.2.26-.42.39-.65,0,0,0,0,0-.06a.25.25,0,0,0-.17.12c-.06.08-.12.17-.18.24s-.13.17-.18.25a.1.1,0,0,0,0,.13s0,.07,0,.1l-.17.14a1.73,1.73,0,0,0-.19.31S19.67,21.62,19.67,21.63Zm-3.9-10c0,.15,0,.3,0,.45h0C15.78,11.9,15.85,11.7,15.77,11.63Zm.45,1.69s0-.08,0-.13h0a.15.15,0,0,0,0,.07.19.19,0,0,0,0,.07ZM21.11,18a1.65,1.65,0,0,0,.05.44A.73.73,0,0,0,21.11,18Zm-2.22-5.2,0,0,0,0a.26.26,0,0,0,0-.15.2.2,0,0,1,0-.07.08.08,0,0,1,0,0s0,0,0-.05,0-.23,0-.34a.29.29,0,0,0,0-.13s0-.05,0-.07,0,0,0,0,0-.08,0-.12h0s.05-.07.05-.1-.05-.05-.08-.08,0,0,0,.06a.23.23,0,0,0,0,.18l0,0v0L19,12l0,.21a1.33,1.33,0,0,1-.05.19,1.77,1.77,0,0,0,0,.2,1,1,0,0,0,0,.17C18.83,12.82,18.84,12.82,18.89,12.81ZM15.71,20.6a2,2,0,0,1,.1.26h0c0-.18,0-.34,0-.52C15.77,20.38,15.69,20.57,15.71,20.6Zm2.39-8.4c0-.08,0-.16,0-.25s0,0,0,0L18,11.82a1.09,1.09,0,0,0,.1.44ZM18.17,21h0l.44,0h.12v0s-.06,0-.09,0ZM16.92,15.9l-.13.13.06.09C17,16.09,17,16,16.92,15.9Zm-5.2.5-.2,0h0l.19,0s0,0,0,0S11.74,16.39,11.72,16.4Zm13.18-2a.29.29,0,0,0-.26.09,1.2,1.2,0,0,0,.42,0v0l-.08,0ZM24.76,9v0h0s-.06.18,0,.24,0,0,0-.06,0,0,0,0,0-.06,0-.07S24.75,9,24.76,9ZM13.52,27l-.27-.12a.77.77,0,0,0-.37-.07c-.19,0-.16,0-.15.19s0,.46,0,.68h0s0,.06,0,.08,0,0,0,0l.36,0h.12c.2,0,.33,0,.39-.27a.08.08,0,0,1,0,0,.74.74,0,0,0,.05-.25A.41.41,0,0,0,13.52,27ZM27,15.38l-.61-.22h0l.13.08a1.56,1.56,0,0,1,.15.06l.28.13s.06,0,.07,0,0,0,0-.05Zm-2.1-2s0,0,0,0l.06,0s.07,0,.07-.07l0,0A.22.22,0,0,0,24.87,13.37ZM26,14.42l.12.05s0,0,0,0a.22.22,0,0,0-.12,0ZM18.35,24.63c-.05-.13-.11-.26-.16-.4a.15.15,0,0,0-.06,0l0,0c0,.1-.06.2-.1.3s-.09.22-.14.33l-.1.2h.08l.55,0c.09,0,.1,0,.07-.09S18.38,24.74,18.35,24.63Zm9.71-13a.35.35,0,0,0,0-.08h0l.08.09A0,0,0,0,1,28.06,11.62ZM25.31,8.43a0,0,0,0,0,0,0l.1.12.21.25.23.26,0,0h0c-.19-.23-.39-.46-.6-.67Zm3.09,4a.45.45,0,0,1-.21-.15l0,0s0,0,0,0l0,0a.44.44,0,0,1-.11-.09l-.06,0h0s0,0,0,0l-.06,0a1,1,0,0,0-.15-.14l0,0-.09-.1a.06.06,0,0,0,0,.09l.07.07a2.65,2.65,0,0,0,.37.4c.11.11.21.21.32.3l.07.05h0s0,0,0,0A.88.88,0,0,0,28.4,12.44Zm.2-4.9c0-.06,0-.12,0-.19s0,0,0,0,0,0,0,0h0l0,0-.05,0a.08.08,0,0,0,0,0v.08s0,.1,0,.15S28.53,7.54,28.6,7.54ZM25.92,9.12l.09.1h0l-.09-.11Zm-1-1.18a1.53,1.53,0,0,0-.16-.22.29.29,0,0,0,.09.32l.06,0S24.9,8,24.88,7.94ZM25,20.32a.57.57,0,0,1-.26,0C24.8,20.4,24.88,20.35,25,20.32Zm-2.25-1.44V19s0,0,0,0S22.76,18.89,22.71,18.88Zm4.35,1.54,0,0s0,0,0,0l.05,0A0,0,0,0,0,27.06,20.42Zm-5.19,7.15c-.06,0-.07,0,0-.1s0,0,0,0a2.5,2.5,0,0,0-.07-.26.6.6,0,0,0-.2-.22.56.56,0,0,0-.35-.11c-.08,0-.1,0-.1.1v.19l0,.4v.23a1.94,1.94,0,0,0,.58,0,.3.3,0,0,0,.26-.12C22,27.63,22,27.61,21.87,27.57Zm.46-9s0,.11,0,.16h0a.86.86,0,0,0,0-.16Zm3.82.44s.05,0,.05-.07,0-.1-.06-.06h0s0,0,0,0a.34.34,0,0,0,0,.1ZM23.4,17.12a.16.16,0,0,0,0,.16c0,.06,0,.11,0,.17h0c0-.14.07-.28.11-.42h0A.36.36,0,0,1,23.4,17.12ZM22.33,18a1.88,1.88,0,0,0,0,.53A1.88,1.88,0,0,0,22.33,18Zm.78.52v0a.05.05,0,0,1,0-.08s0,0,0,0l0-.27h0c0,.05,0,.09,0,.14s0,.28,0,.42,0,.4.05.61,0,.12.12.15,0-.08,0-.12C23.19,19,23.15,18.75,23.11,18.49ZM9.34,12.41h0c0,.06,0,.11,0,.16Zm17.78,6.66h0c0-.4,0-.81,0-1.22a0,0,0,0,1,0,0s0,0,0,.05c0,.21,0,.44,0,.65s0,.12,0,.18S27.11,19,27.12,19.07ZM11,27.6l.14,0a.75.75,0,0,0,.33-.1.79.79,0,0,0,.16-.08.25.25,0,0,0,0-.13.79.79,0,0,0-.09-.23.67.67,0,0,0-.61-.22s0,0,0,.05a1.34,1.34,0,0,0,0,.2c0,.16,0,.32,0,.48S10.92,27.6,11,27.6Zm3.3-8.37A9.66,9.66,0,0,0,14,20.74,3.52,3.52,0,0,0,14.26,19.23ZM9.23,15a.19.19,0,0,0,.06.16s0,0,0,.06v.07c0,.05,0,.06.07,0l0,0,0-.12-.06-.43,0-.15h0v.16A1.93,1.93,0,0,1,9.23,15Zm5,3.41s0,0,0,0,0-.09,0-.15-.07.15,0,.17S14.16,18.45,14.19,18.45Zm-2.71,9.39-.26.05h-.33v.51s0,.1,0,.12a.41.41,0,0,0,.29,0,1.7,1.7,0,0,1,.32-.1s.06,0,.06-.07a1.52,1.52,0,0,1,0-.21.3.3,0,0,0-.09-.32ZM32.94,15.52s0,0,0-.06,0-.05,0-.06,0-.14,0-.2l0-.7a1.92,1.92,0,0,0,0-.24c0-.19-.07-.4-.1-.59a1.41,1.41,0,0,0-.22-.57.67.67,0,0,1-.09-.21c-.08-.31-.14-.63-.23-.94l-.29-1c-.06-.19-.12-.38-.17-.58s-.11-.42-.19-.64a19.76,19.76,0,0,0-.76-1.84l-.27-.55A.46.46,0,0,0,30.3,7L30.09,7s0,0,0-.06a.48.48,0,0,0,0-.31,4.19,4.19,0,0,0-.45-.7,8.35,8.35,0,0,0-.67-.8c-.22-.22-.45-.44-.65-.68A6.69,6.69,0,0,0,27,3.32a5.8,5.8,0,0,1-.93-.7,1.25,1.25,0,0,0-.24-.16l-.52-.28c-.35-.18-.68-.39-1-.54s-.43-.2-.66-.29A9.29,9.29,0,0,0,22.73,1C22.5.92,22.25.89,22,.82S21.23.61,20.83.51s-.69-.14-1-.23A9.17,9.17,0,0,0,17.59,0C17,0,16.46,0,15.9.06a6.59,6.59,0,0,0-1.59.25l-1,.26c-.51.16-1,.31-1.52.48s-.92.3-1.36.46a4.22,4.22,0,0,0-.45.18,3.48,3.48,0,0,0-.38.2.2.2,0,0,1-.25,0,.1.1,0,0,0-.09,0A1.51,1.51,0,0,0,9,2a2.52,2.52,0,0,0-.83.69c-.14.16-.25.34-.39.5a.56.56,0,0,0-.15.27.22.22,0,0,1-.15.18l-.19.07-.19.08A3.19,3.19,0,0,0,6.85,4c-.1.1-.19.21-.29.32l-.93.87a7.65,7.65,0,0,0-1.2,1.46c-.11.17-.21.35-.34.52A7.74,7.74,0,0,0,3.3,8.43c-.12.21-.21.45-.32.66a9.09,9.09,0,0,0-.76,1.82c-.12.48-.26.95-.39,1.42a9.3,9.3,0,0,0-.25,2.16c0,.31,0,.63,0,.94s0,.61,0,.91a7.69,7.69,0,0,0,.19,1.42,7.89,7.89,0,0,0,.21.87c.17.48.39,1,.59,1.44s.31.67.44,1a17,17,0,0,0,.89,2.1c.21.4.45.8.68,1.21.1.16.19.32.3.47.22.31.46.61.69.92a2.61,2.61,0,0,1,.19.27l.6.7c.16.17.31.34.47.5l.75.76c.13.13.23.31.4.4l.06,0c.22.18.42.37.63.54l.78.53a10.44,10.44,0,0,0,.89.58c.46.27.93.51,1.4.75a3.65,3.65,0,0,0,.35.14c.22.08.44.18.67.25a6.45,6.45,0,0,0,.63.16,3.59,3.59,0,0,0,.86.14c.27,0,.55,0,.82,0a1.77,1.77,0,0,1,.2,0h.39l.77.07a6.38,6.38,0,0,0,1.51,0,6.68,6.68,0,0,1,1.18-.15.64.64,0,0,0,.39-.14.59.59,0,0,1,.31-.09h.8c.13,0,.26,0,.39,0a.38.38,0,0,0,.39-.19.51.51,0,0,1,.26-.19l1.19-.43c.17-.06.34-.14.51-.21s.41-.17.59-.27.53-.32.79-.48l.75-.43,1.06-.7L27,28a1.53,1.53,0,0,0,.18-.18l.41-.33.07-.06.19-.2a5.4,5.4,0,0,0,.52-.45c0-.05.09-.1.15-.15a2.28,2.28,0,0,1,.22-.22l.2-.18a2.19,2.19,0,0,0,.21-.23l.41-.38s0-.05,0-.07l.17-.21c.15,0,.12-.11.16-.18s0-.08.07-.09.09-.09.1-.17h.13s0,0,0-.05,0-.21.15-.24,0,0,.06-.07.06-.09.11-.11a.2.2,0,0,0,.09-.15l0-.14c.07,0,.09,0,.11-.08a1.45,1.45,0,0,1,.18-.32c0-.05.06-.12.1-.17a.4.4,0,0,0,.07-.18.19.19,0,0,1,.13-.21l.05,0a.51.51,0,0,1,.19-.32c.05,0,.05-.16.06-.25a1.14,1.14,0,0,1,.16-.42.54.54,0,0,0,.1-.2.66.66,0,0,1,.11-.26s0-.08,0-.12a.85.85,0,0,0,.06-.17.61.61,0,0,0,0-.12c0-.08.06-.17.1-.26a.56.56,0,0,0,0-.28.14.14,0,0,1,0-.06,1.9,1.9,0,0,0,.09-.53,5.41,5.41,0,0,1,.07-.58,1.85,1.85,0,0,1,0-.23c0-.14.09-.3.12-.44s0-.19,0-.26a4.3,4.3,0,0,0,.19-.92,3.94,3.94,0,0,0,.07-.69l0-.47c0-.13,0-.25,0-.37A1.06,1.06,0,0,0,32.94,15.52ZM2.24,13.94a.66.66,0,0,1,0-.4l.13,0A.53.53,0,0,1,2.24,13.94ZM24.82,2.44l.18.08a2.43,2.43,0,0,1,.35.2,2.14,2.14,0,0,1,.38.23.67.67,0,0,1,.26.39.24.24,0,0,1-.22.07h-.06l-.23-.23s0,0-.07-.06a.87.87,0,0,1-.36-.35.67.67,0,0,0-.2-.21s0,0-.05-.08S24.81,2.44,24.82,2.44Zm-7.25,8.47c0-.15,0-.31.06-.46s0-.24.07-.36a2.59,2.59,0,0,1,.11-.37l.07-.18s0,0,.05-.08l0-.09,0,0s0-.07,0-.1,0,0,0,0h0s0,0,0,0,0-.07,0-.1l0-.05a.1.1,0,0,1,0-.05s.08-.06.07-.11a.13.13,0,0,1,0-.07s0-.12.1-.14,0,0,0,0v0s0-.05.05-.08a.18.18,0,0,1,0-.07,2.31,2.31,0,0,1,.2-.24A2.9,2.9,0,0,1,19,7.91a1.2,1.2,0,0,1,.21-.17,2,2,0,0,1,.3-.21,3.36,3.36,0,0,1,.42-.22l.38-.16a.18.18,0,0,1,.21,0s.06,0,.09,0a.81.81,0,0,1,.31,0h.36a.32.32,0,0,0,.09,0c.06,0,.08,0,.12,0a.19.19,0,0,0,.12.07,2,2,0,0,1,.49.14,3.13,3.13,0,0,1,.34.21l.07,0s.07,0,.1,0l0,.06,0,0,.05.06,0,0,.18.2S23,8,23,8l0,.07a.09.09,0,0,0,0,.11.39.39,0,0,1,.08.1,3,3,0,0,1,.2.29,1.75,1.75,0,0,1,.16.27c0,.09.06.18.1.27a.54.54,0,0,0,.05.11s0,0,0,0,0,.13,0,.2.05.27.07.4,0,.08,0,.12a.5.5,0,0,0,0,.12v.28c0,.06,0,.12,0,.19s0,.2,0,.31v.09a.22.22,0,0,1,0,.08.36.36,0,0,0,0,.1l0,.14a.65.65,0,0,1-.05.2c-.05.1,0,.24-.12.34l0,.09a3.24,3.24,0,0,1-.17.32l-.09.14a.56.56,0,0,1-.05.08c0,.08-.09.14-.14.22a.61.61,0,0,1-.07.1l-.07.08a.91.91,0,0,1-.08.13,2.72,2.72,0,0,1-.24.24,3.07,3.07,0,0,1-.25.26.69.69,0,0,0-.13.11.52.52,0,0,0-.1.11l0,0-.32.23a.61.61,0,0,1-.14.07,4.32,4.32,0,0,1-.51.16,4.15,4.15,0,0,1-.48.11,2.45,2.45,0,0,1-.38,0,3.4,3.4,0,0,1-.46-.06l-.58-.11A.43.43,0,0,1,19,14a0,0,0,0,1,0,0v0c-.08,0-.09-.11-.15-.14l-.06.06a.12.12,0,0,1-.14,0,1.43,1.43,0,0,1-.23-.2q-.11-.15-.21-.33A1.79,1.79,0,0,1,18,13.1a2.77,2.77,0,0,1-.29-.6c0-.23-.1-.45-.14-.67a3.33,3.33,0,0,1,0-.55A1.56,1.56,0,0,1,17.57,10.91Zm4.7,13.31v.21c0,.11,0,.23,0,.35l0,.5c0,.11,0,.22,0,.32v.53a.49.49,0,0,1-.17.06.59.59,0,0,1-.22-.05.15.15,0,0,1-.07-.12,5.65,5.65,0,0,1,0-.58c0-.12,0-.25,0-.36a6.48,6.48,0,0,1,.07-.77.25.25,0,0,0,0-.09.07.07,0,0,0-.06,0h-.25a.25.25,0,0,1-.11,0l-.07,0a.13.13,0,0,1-.1-.11s0,0,0-.05,0-.05,0-.07.26-.05.39-.07l.52-.06.51,0a.11.11,0,0,1,.07,0c.07,0,.16.07.18.16s0,.14-.1.16l-.23,0h-.13C22.28,24.11,22.27,24.13,22.27,24.22Zm-4.8-9.1a.34.34,0,0,0,.14,0,1.59,1.59,0,0,1,.52-.17c.1,0,.2,0,.29,0a.37.37,0,0,0,.19-.07.38.38,0,0,1,.16-.06h.3a.79.79,0,0,1,.31.08l.28.14c.16.09.33.16.48.26s.21.16.32.23l.06.05a2.08,2.08,0,0,1,.21.21,2.69,2.69,0,0,1,.3.37.62.62,0,0,1,.1.16c.06.12.11.22.16.34a.94.94,0,0,0,0,.16,1,1,0,0,1,.06.18,2.85,2.85,0,0,1,.07.51,2.72,2.72,0,0,0,0,.28.13.13,0,0,0,0,.07.29.29,0,0,1,.07.22c0,.22,0,.43,0,.66a2.12,2.12,0,0,1,0,.24l-.06.44a1,1,0,0,0,0,.1c0,.1-.05.2-.07.29a.59.59,0,0,1-.06.14,3,3,0,0,1-.16.31c0,.09-.11.16-.16.24l-.14.23c-.08.12-.17.23-.24.34a.18.18,0,0,0-.05.07,2.15,2.15,0,0,1-.36.48l-.23.24a.13.13,0,0,0,0,.06c0,.1-.11.14-.21.17l-.36.08-.49.13a.77.77,0,0,1-.26,0,3.57,3.57,0,0,0-.46,0,1.13,1.13,0,0,1-.48-.08,2.14,2.14,0,0,1-.27-.09,2.19,2.19,0,0,0-.43-.15,2.33,2.33,0,0,1-.71-.34l-.12-.11a.11.11,0,0,1,0-.08l.18-.11a0,0,0,0,0,0,0l-.13-.11s0,0-.06,0l-.05.09s0,0,0,0H16v.05l0,.12a.07.07,0,0,1,0,.1.08.08,0,0,1-.11,0c-.05-.07-.11-.15-.15-.22l-.26-.37c-.08-.15-.16-.31-.23-.47a1.47,1.47,0,0,1-.13-.42A2.85,2.85,0,0,1,15,19.5,4.71,4.71,0,0,1,15,19a1.45,1.45,0,0,1,0-.3c0-.1,0-.2,0-.3a2.86,2.86,0,0,1,.07-.28c.05-.15.09-.32.15-.47a5,5,0,0,1,.27-.57c.07-.14.16-.28.24-.41l.24-.35a3,3,0,0,1,.25-.37,2.34,2.34,0,0,1,.32-.31c.12-.1.26-.18.39-.27l.18-.15A.48.48,0,0,1,17.47,15.12ZM16.53,25a2,2,0,0,1,.21.38.9.9,0,0,1,.08.4.06.06,0,0,1,0,0,.22.22,0,0,1-.27.08,0,0,0,0,1,0,0c-.17,0-.19-.14-.22-.27a1.46,1.46,0,0,0-.21-.52s0,0,0,0h-.42s-.06,0-.07.07a.47.47,0,0,0,0,.17v.33a2,2,0,0,1,0,.25s0,.06,0,.08a.26.26,0,0,1-.24,0l-.08,0a.17.17,0,0,1-.14-.18c0-.06,0-.11,0-.17h0c0-.17,0-.35,0-.52s0-.45,0-.67,0-.46,0-.68a1.49,1.49,0,0,1,0-.21.14.14,0,0,1,.13-.09,1.74,1.74,0,0,0,.51,0,1.32,1.32,0,0,1,.58.1,1.08,1.08,0,0,1,.43.27.9.9,0,0,1,.18.28.49.49,0,0,1,0,.44.89.89,0,0,1-.16.22l-.2.13S16.49,25,16.53,25Zm0-21.53a0,0,0,0,0,0,0l-.14,0a0,0,0,0,1,0,0Zm-.28,0c0,.06,0,.06-.08,0Zm-.17-.68c-.07.13-.18.07-.28.09C15.87,2.85,15.88,2.85,16.08,2.84Zm-.29.81,0,0,0,0,0,0S15.78,3.65,15.79,3.65ZM15.48,3h.1a0,0,0,0,1,0,0s0,0,0,0-.26.07-.4,0V3A2.27,2.27,0,0,0,15.48,3ZM15,3.09l0,0s0,0,0,.06l0,0S15,3.1,15,3.09ZM14.63,4h0s0,0,0,0a.05.05,0,0,1,0,0S14.62,4,14.63,4Zm-.24,0h0l0,0h0Zm-3.82,7.63a1.36,1.36,0,0,0,0-.2,3.31,3.31,0,0,1,.07-.55c0-.13.05-.27.09-.4s.11-.33.15-.5.06-.17.1-.26.11-.21.17-.32a1.91,1.91,0,0,1,.15-.21l.08-.13.15-.2.11-.14a1,1,0,0,1,.25-.25A1.54,1.54,0,0,0,12,8.37a1.48,1.48,0,0,1,.34-.21.52.52,0,0,0,.18-.1h0a.8.8,0,0,1,.33-.22l.38-.15.18,0,.27,0h.8a2.33,2.33,0,0,1,.51.11,1.83,1.83,0,0,1,.26.11l.4.15s.07.07.12.11l.07,0,.09.07a.25.25,0,0,0,.14.11h0c.07.14.21.21.29.32a.21.21,0,0,1,.05.13s0,0,0,.06l0,0a.38.38,0,0,0,.2.26.41.41,0,0,1,.22.26,3.29,3.29,0,0,1,.14.54,3.89,3.89,0,0,1,.08.51,3.53,3.53,0,0,1,0,.65c0,.15,0,.31,0,.46a.52.52,0,0,1,0,.11l-.06.31,0,.26s0,.1,0,.15,0,.08,0,.13-.05.16-.08.24a1.08,1.08,0,0,1-.08.19,2.11,2.11,0,0,1-.16.3l-.08.15-.16.23s-.06.08,0,.13a.1.1,0,0,1,0,.09l-.17.28s0,0-.06,0l-.23.18-.13.12-.06,0-.26.13-.28.11a1.07,1.07,0,0,0-.22.1l-.06,0h0a1,1,0,0,1-.23.11,1.1,1.1,0,0,1-.39.09.28.28,0,0,1-.13,0s-.06-.06,0-.11,0,0,0,0l-.13,0-.17-.06h0v0a.08.08,0,0,0,0,0h.08a.11.11,0,0,1,.11.08c0,.05,0,.08-.07.11a.33.33,0,0,1-.26,0c-.2,0-.41,0-.61-.09a2.9,2.9,0,0,1-.55-.17c-.1-.05-.21-.06-.3-.11l-.35-.19-.18-.11-.11-.11s0-.06-.1-.06l0,0-.1-.1h0s0,0,0,0,0-.06-.07-.1a.29.29,0,0,0-.09-.15s0-.08-.06-.13a.47.47,0,0,1-.05-.1s0,0,0,0a.21.21,0,0,0,0-.06l0,0c0-.05,0-.11-.07-.17a.94.94,0,0,1-.06-.15,2.1,2.1,0,0,0-.06-.24,1.17,1.17,0,0,0-.05-.11.28.28,0,0,1,0-.09.57.57,0,0,0,0-.14s0-.06,0-.09a1.11,1.11,0,0,1,0-.19l0-.23V12c0-.07,0-.14,0-.21S10.57,11.7,10.57,11.65Zm-1.44-9a2.34,2.34,0,0,1,.31-.24c.1-.07.13-.06.22,0l-.3.24a.23.23,0,0,1-.25.05A.13.13,0,0,1,9.13,2.65ZM7.63,4.4l.23-.21a.08.08,0,0,1,.08,0,.07.07,0,0,1,.06,0s0,.06,0,.07-.22.12-.34.2S7.62,4.41,7.63,4.4Zm-.73.51v0L6.85,5v0Zm-.34.28,0,.1h0s0-.06,0-.1Zm-.5.41a1.37,1.37,0,0,1,.18-.16L6.4,5.3l.06,0a.2.2,0,0,1,0,.36A1,1,0,0,1,6,5.77C5.92,5.67,6,5.66,6.06,5.6Zm-2,15.2H4a1.34,1.34,0,0,1-.11-.14,1,1,0,0,0-.43-.41c-.13-.09-.16-.16-.1-.3s.06-.14.09-.22a.73.73,0,0,1,.29.29.59.59,0,0,1,.15.33c.13.09.11.25.14.37S4.06,20.77,4.06,20.8ZM4.23,18s0,0,0-.07h0V18Zm.33,3.64-.08-.08,0,0,.08.08S4.57,21.57,4.56,21.59Zm2,1.45h0s0,0,0,0l0,0Zm.22.36a1,1,0,0,1-.14-.16.1.1,0,0,1,0-.14s.07,0,.1,0a.81.81,0,0,1,.21.3C6.9,23.5,6.85,23.44,6.8,23.4Zm.32.43s0,0,0,0l0,0s0,0,0,0ZM9,15.4a.53.53,0,0,1,0-.13.08.08,0,0,0,0,0,.67.67,0,0,0-.09-.14.06.06,0,0,1,0,0c0-.12,0-.23,0-.34s0-.28,0-.43,0-.31,0-.46,0-.18,0-.26,0-.32,0-.47l0-.24v-.09l0,0,0,0c0,.08-.07.15-.1.23a2.6,2.6,0,0,0-.1.25,2,2,0,0,1-.1.21c-.06.14-.14.29-.21.43L8.06,14v0l-.11.23-.13.26-.13.25-.36.67c-.06.14-.11.29-.18.42l-.1.21a.24.24,0,0,1-.22.07l-.05,0s0,0,0,0l-.15-.07h0L6.47,16a.73.73,0,0,0,0-.09.94.94,0,0,1-.14-.26l0-.06L6,15.14C6,15.08,6,15,6,15s-.07-.16-.11-.23l-.15-.31c-.05-.12-.11-.24-.16-.35l-.17-.41c0-.11-.08-.21-.12-.32l0-.09a.17.17,0,0,0-.13-.11c0-.05,0-.05,0-.06a1,1,0,0,0,0,.3.43.43,0,0,0,0,.05.12.12,0,0,0,0,.07.18.18,0,0,1,0,.15.07.07,0,0,0,0,0s0,.09,0,.13L5,14.2c0,.1,0,.2,0,.28s0,.28,0,.42,0,.25,0,.37l0,.4,0,.49v0s0,.1,0,.13a.29.29,0,0,1-.18.11h0a1.27,1.27,0,0,0-.34,0H4.15l0,0a.13.13,0,0,1-.12,0s-.06,0-.09,0a.09.09,0,0,1-.13,0l0,0s-.08,0-.11,0,0,0,0,0-.05,0,0,0,0-.09.08-.07,0,0,0,0a1,1,0,0,1,0-.35c0-.05,0-.1,0-.15a.06.06,0,0,1,0,0s0-.06,0-.1a.34.34,0,0,1,0-.14.76.76,0,0,0,.06-.16s0,0,0,0l0,0v0l0,0a.11.11,0,0,1,0,.05h0l0-.05,0,0,0,0c-.05,0-.05,0-.05-.08s0-.06,0-.09,0,0,0,0H3.58l0,0c0-.07,0-.11,0-.16s0,0,0,0h0l0,.06s0,0,0-.06l0-.21a.19.19,0,0,1,0-.07.57.57,0,0,0,0-.13,1.11,1.11,0,0,0,0-.19,1.15,1.15,0,0,1,0-.19c0-.14.05-.29.07-.42a1.87,1.87,0,0,1,0-.25c0-.09,0-.17,0-.26l.09-.46c0-.2.07-.39.11-.58s0-.11,0-.17,0-.14,0-.22l.05-.35c0-.13,0-.24.07-.37a2.89,2.89,0,0,0,0-.29s0-.06,0-.09A3.5,3.5,0,0,1,4.24,10c0-.11.07-.21.1-.33s0-.11,0-.14,0,0,0,0l.12-.09a.39.39,0,0,1,.3,0h.1c.06,0,.13,0,.18,0l.08.13c.06.12.1.25.16.37s.12.29.19.43.18.32.25.49.1.22.16.33.15.33.23.48l.12.24c0,.11.1.21.14.31l.27.55a2.29,2.29,0,0,0,.16.31c0,.07.07.12.1.19s0,0,0,0l0-.1.16-.34a3.13,3.13,0,0,0,.19-.36c.06-.13.11-.26.17-.37s.07-.12.1-.19a1.39,1.39,0,0,0,.06-.13c.05-.09.1-.19.14-.28s.13-.28.19-.41l.1-.2s0-.07,0-.11l.05-.1c0-.06.07-.13.11-.18s0-.06,0-.09a1.11,1.11,0,0,0,.09-.19,2.53,2.53,0,0,1,.18-.37l0-.05,0,0,.1-.24s0-.1.07-.15l0,0s0-.09.09-.1,0,0,0-.05a.57.57,0,0,1,0-.14l0,0c0-.05.1-.08.09-.15s0-.06,0-.08h0l.12-.08a.73.73,0,0,1,.5-.09.2.2,0,0,1,.16.15c0,.13,0,.27.05.41L10,10c0,.1,0,.21,0,.3l.06.53c0,.14,0,.3,0,.44s.05.28.07.42.06.48.08.71l0,.42c0,.13,0,.28,0,.41a5.42,5.42,0,0,0,.06.58c0,.2.05.39.07.6a1.12,1.12,0,0,1,0,.37.06.06,0,0,0,0,0,.09.09,0,0,1,0,.13l0,0a.11.11,0,0,1-.19,0l-.09-.1,0,.19,0,0s.09,0,.13,0a.26.26,0,0,1,.12.19.3.3,0,0,1,0,.21.4.4,0,0,1-.13.13.17.17,0,0,1-.18,0,.19.19,0,0,0-.22-.07l-.54.08a1,1,0,0,1-.17,0h0A.33.33,0,0,1,9,15.4Zm.91,13.67c0-.06-.08-.06-.13-.08a1.54,1.54,0,0,1-.34-.17s0-.07-.09-.13l.37.17a.5.5,0,0,0,.13,0L10,29c.1.07.17.18.29.22s0,.05,0,.09A.54.54,0,0,1,9.92,29.07Zm2.16-1.67c0,.07-.06.09-.1.14a.42.42,0,0,1-.25.12l.12.08a.32.32,0,0,1,.16.31,1.62,1.62,0,0,1,0,.22c0,.08,0,.15,0,.22s0,0,0,0l-.13.11a.7.7,0,0,1-.24.17,1.21,1.21,0,0,1-.2.09.63.63,0,0,1-.31,0,1.47,1.47,0,0,1-.42-.13.65.65,0,0,1-.16-.13.13.13,0,0,1,0-.09V27.4c0-.1,0-.21,0-.3a2.15,2.15,0,0,0,0-.51s.05-.1.09-.1a2.11,2.11,0,0,0,.35,0,1.3,1.3,0,0,1,.34,0,1,1,0,0,1,.64.27.7.7,0,0,1,.14.16.65.65,0,0,1,.11.32Zm-.51-4.28a3.72,3.72,0,0,1-.48.11.69.69,0,0,1-.32,0l-.08.07h0l-.18,0c-.05,0-.07,0-.07.07s-.09.13-.14.12,0,0,0,0-.05-.06-.1,0,0-.07-.1-.06a1.65,1.65,0,0,1-.32,0,.25.25,0,0,1-.13,0s0-.07,0-.1,0,0,0,0c-.16,0-.17-.16-.23-.27s0,0,0,0,0,0,0,0,0-.07,0-.11,0-.16-.05-.25,0-.12,0-.18a1.41,1.41,0,0,0,0-.2.06.06,0,0,1,0,0v.06h0s0-.07,0-.11,0-.2,0-.31,0-.21,0-.32,0-.45,0-.69,0-.23,0-.36,0-.32,0-.48,0-.29,0-.43,0-.18,0-.27,0-.2,0-.31v-.21c0-.11,0-.21,0-.31s0-.45,0-.67,0-.25,0-.37V17a1.49,1.49,0,0,1,0-.21V16.7s0,0,0,0a.1.1,0,0,0,.09-.13s0-.05,0-.07,0-.07.07-.1a2.41,2.41,0,0,1,.65-.18l.31-.07a2.13,2.13,0,0,1,.25,0l.16,0,.45,0,.18,0,.06,0s0,0,.07,0a.28.28,0,0,1,.18,0,.71.71,0,0,0,.15,0,.42.42,0,0,1,.22,0l.09,0,.11,0,.19,0a.45.45,0,0,1,.18.07l.3.17h0s.08,0,.09.05l.05,0c.05,0,.08,0,.13,0a.64.64,0,0,0,.19.08.16.16,0,0,1,.12.05l.1.06.14.14s0,0,0,.05a.18.18,0,0,0,.05.07L14,17s0,0,0,0,0,.07.06.09,0,0,0,0a.2.2,0,0,0,.08.1.11.11,0,0,1,.07.09.13.13,0,0,0,.06.09.24.24,0,0,1,.06.11l.1.21,0,.11s0,.07,0,.11,0,.18.06.27,0,0,0,.05,0,.07,0,.09,0,.13.06.18h0c0,.13,0,.27,0,.41a.69.69,0,0,0,0,.13h0c0,.12,0,.23,0,.34s0,.09,0,.13a1.64,1.64,0,0,0,0,.23,2.89,2.89,0,0,1,0,.29,1.46,1.46,0,0,1-.05.2s0,0,0,.06v0a.87.87,0,0,0-.08.26,3.59,3.59,0,0,1-.12.35l-.06.16a.41.41,0,0,1-.05.09l-.18.27c-.1.13-.2.28-.3.4l-.3.33-.18.2-.26.25-.18.14a.35.35,0,0,1-.26.11.12.12,0,0,1-.09,0s-.06,0,0-.07,0-.06,0-.1l0,0C12.19,22.88,11.88,23,11.57,23.12Zm2.61,4.18a.1.1,0,0,0,0,.1.2.2,0,0,1,0,.07.44.44,0,0,1-.17.42.62.62,0,0,1-.3.18l0,0a.51.51,0,0,1,.25.27,1,1,0,0,1,.11.25s0,.08,0,.12a.19.19,0,0,1-.18.15.22.22,0,0,1-.13-.06,2.69,2.69,0,0,1-.19-.38l-.2-.28-.06,0-.22,0a.6.6,0,0,1-.2,0s-.07,0-.07,0a1,1,0,0,0,0,.24.39.39,0,0,1,0,.28.18.18,0,0,1-.15.14.29.29,0,0,1-.1,0l0,0c-.13,0-.11-.12-.14-.2a.78.78,0,0,0,0-.14.19.19,0,0,1,0-.08,4.3,4.3,0,0,1,0-.62c0-.13,0-.26,0-.37s0-.39,0-.58a.59.59,0,0,1,.05-.2s0,0,0,0a3,3,0,0,1,.73-.09.89.89,0,0,1,.48.1c.13.07.26.12.37.19a.75.75,0,0,1,.26.27.48.48,0,0,1,0,.2C14.21,27.25,14.19,27.29,14.18,27.3Zm-.1-1.11H14a1.78,1.78,0,0,1-.6-.12,1.28,1.28,0,0,1-.23-.14,1.11,1.11,0,0,1-.44-.42,1.59,1.59,0,0,1-.18-.34.9.9,0,0,1,0-.49,1.17,1.17,0,0,1,.05-.2.88.88,0,0,1,.12-.28,1.21,1.21,0,0,1,.25-.3c.05,0,.1-.08.16-.11l.22-.09a1.15,1.15,0,0,1,.17-.06.78.78,0,0,1,.22,0h.17l.12,0,.19.06.15.06a.91.91,0,0,1,.17.09c.07,0,.06.07,0,.11s-.12,0-.19,0a3.1,3.1,0,0,0-.42-.08.11.11,0,0,0-.06,0l-.09.06A1.27,1.27,0,0,0,13,25.11a.54.54,0,0,0,.13.35.52.52,0,0,0,.26.22l.2.05.18,0a.7.7,0,0,0,.14,0l.08,0,.47-.22.23-.07s.05,0,.06,0a.24.24,0,0,1,.08.09.75.75,0,0,1,0,.16v0a.81.81,0,0,1-.12.14l-.33.24A.88.88,0,0,1,14.08,26.19Zm1.81,2.63a.44.44,0,0,1-.25.11l-.4,0-.45,0H14.7c-.06,0-.12,0-.16-.07s-.06,0-.09-.06,0-.06,0-.08l.09-.08a.17.17,0,0,1-.14-.13s0,0,0,0V28c0-.22,0-.43,0-.63s0-.36,0-.55,0-.12,0-.18l0-.06,0,0c.08,0,.16-.08.26,0h.1c.14,0,.29,0,.42,0a1.07,1.07,0,0,1,.3.06s.06.06.09.09h0s0,.07,0,.08a.49.49,0,0,1-.13.12.56.56,0,0,1-.34,0c-.1,0-.22,0-.34,0s0,0,0,.05v.47s0,.1,0,.11a.3.3,0,0,0,.16,0c.17,0,.35,0,.52,0s.08.06.12.09l0,0a.06.06,0,0,1,0,0,.45.45,0,0,1-.22.16,1,1,0,0,1-.35,0h-.27a.76.76,0,0,1,0,.15l0,.26s0,.09,0,.12a.36.36,0,0,1,0,.11,2.43,2.43,0,0,1,.66,0h.29a.38.38,0,0,1,.13.06C16,28.69,16,28.77,15.89,28.82ZM18.79,27c0,.1,0,.19-.05.29a1.07,1.07,0,0,1-.09.27,3.53,3.53,0,0,0-.22.59,1.13,1.13,0,0,1-.19.36,1.1,1.1,0,0,0-.09.14s0,0,0,0-.13.07-.22.05c-.2-.49-.39-1-.56-1.49a1,1,0,0,0-.09.38,1.05,1.05,0,0,1-.06.24,3.58,3.58,0,0,1-.26.64.53.53,0,0,1-.25.28.12.12,0,0,1-.15,0s-.07,0-.07-.07,0,0,0,0,0-.05,0-.06a.86.86,0,0,1-.11-.29c0-.14-.05-.27-.08-.41a4,4,0,0,0-.13-.42c-.05-.15-.08-.31-.14-.45s-.05-.21-.14-.27a.06.06,0,0,1,0,0,.47.47,0,0,1,.13-.11,1.1,1.1,0,0,1,.25,0,.15.15,0,0,1,.15.11c.06.14.13.29.18.44s.12.38.18.58h0c0-.05,0-.1,0-.15l.21-.74a.71.71,0,0,1,.08-.15s.05,0,.07,0h0c.05-.08.13-.05.19,0a.34.34,0,0,1,.15.09c0,.05.06.12.1.17a4,4,0,0,1,.28.64c0,.1.07.21.11.3s0,0,0,0l0,0c.07-.18.14-.36.2-.54l.09-.29a1,1,0,0,1,.08-.21.14.14,0,0,1,0-.08.15.15,0,0,1,.23.07A.21.21,0,0,1,18.79,27Zm0-1.19c-.06-.13-.11-.27-.16-.4l-.53,0a.6.6,0,0,1-.34-.07.28.28,0,0,0-.13,0,.09.09,0,0,0-.05,0c-.09.14-.17.29-.25.44a.27.27,0,0,1-.21.11.79.79,0,0,1-.2,0,.06.06,0,0,1,0-.06,1.56,1.56,0,0,1,.14-.48,5.79,5.79,0,0,1,.25-.57c0-.11.1-.21.14-.31s.06-.18.09-.26a1.11,1.11,0,0,1,.24-.47c.05-.05.1-.11.18-.1a.36.36,0,0,0,.11,0h.06c.12.08.27.11.34.23a2.2,2.2,0,0,1,.19.3c.07.14.15.29.21.43s.06.2.1.3a2.07,2.07,0,0,1,.1.33c0,.05,0,.1,0,.15l0,.08c.05.12.11.24.16.37a.14.14,0,0,1,0,.16A.2.2,0,0,1,19,26l-.2-.1S18.8,25.86,18.8,25.84Zm1.61,3a.22.22,0,0,1-.28.05h-.05a1.58,1.58,0,0,1-.65.05c-.25,0-.41-.16-.41-.46v-.59c0-.21,0-.43,0-.65s0-.28,0-.42v0c0-.1,0-.14.07-.2h.22l.09,0,.31,0a4.36,4.36,0,0,1,.51,0,.23.23,0,0,1,.18.09c0,.06,0,.14-.07.17a.41.41,0,0,1-.26.07h-.56c-.09,0-.09,0-.07.1a2.23,2.23,0,0,1,.05.36c0,.07,0,.13,0,.19l.2,0,.21,0a1.51,1.51,0,0,1,.3,0,.26.26,0,0,1,.12.09.1.1,0,0,1,0,.09.45.45,0,0,1-.34.14h-.4s-.07,0-.07.06v.58a.05.05,0,0,0,.06.06,1.35,1.35,0,0,0,.45,0,.18.18,0,0,1,.22.07h0l.13,0C20.44,28.72,20.45,28.77,20.41,28.81Zm-.24-3.6c-.15,0-.15,0-.17.12s0,.45-.05.67a.09.09,0,0,1-.06.09c-.09.05-.18.07-.25,0h0c-.08,0-.1-.05-.12-.1a1.11,1.11,0,0,1,0-.17.88.88,0,0,1,0-.16s0-.06,0-.08c0-.2.06-.41.08-.62s0-.26,0-.39,0-.26,0-.38,0-.23,0-.34,0-.07.06-.1.13,0,.2,0l.08,0h.51a1.12,1.12,0,0,0,.32,0,.36.36,0,0,1,.4.21s0,.05,0,.06l-.13.09a.42.42,0,0,1-.16,0,2.47,2.47,0,0,1-.39,0h-.32s-.06,0-.06,0c0,.18,0,.36,0,.54s0,.08.08.08h.13l.31,0s.07,0,.11,0,0,0,0,0,.08.09.11.13,0,0,0,.06a.28.28,0,0,1-.17.1A1,1,0,0,1,20.17,25.21Zm2.1,3.89a.18.18,0,0,1-.19-.1l-.2-.42c0-.07-.09-.13-.13-.19l-.12-.17a.08.08,0,0,0-.1,0,1.27,1.27,0,0,1-.43,0,3.11,3.11,0,0,1,0,.33,2.44,2.44,0,0,1-.06.26.1.1,0,0,1-.05,0c-.07,0-.13.08-.21.08a.08.08,0,0,1-.08-.06,1,1,0,0,1-.05-.31c0-.11,0-.23,0-.35a1.24,1.24,0,0,0,0-.18.9.9,0,0,1,0-.16c0-.25,0-.51,0-.76V26.8s0-.07,0-.08a.21.21,0,0,0,.08-.06.48.48,0,0,1,.23-.1l.36,0a.7.7,0,0,1,.45.1,1.18,1.18,0,0,1,.38.32,1.34,1.34,0,0,1,.09.26s0,.07,0,.09a.56.56,0,0,1,.1.24.5.5,0,0,1,0,.21.71.71,0,0,1-.23.32,0,0,0,0,0,0,.08,1.78,1.78,0,0,1,.25.52,1.43,1.43,0,0,1,.08.22C22.49,29,22.41,29.09,22.27,29.1Zm1.83-2.2a2.33,2.33,0,0,1-.17.26c0,.06-.06.12-.1.17s-.2.22-.28.33a.11.11,0,0,0,0,.08l0,.34a2.11,2.11,0,0,1,0,.26v.32a.28.28,0,0,1-.05.16.22.22,0,0,1-.26.06.15.15,0,0,1-.07-.12c0-.21-.06-.4-.09-.61a1.65,1.65,0,0,1,0-.21.47.47,0,0,0-.11-.31l-.26-.36-.16-.17-.2-.24a.26.26,0,0,1-.05-.09c0-.05,0,0,.06-.06a.24.24,0,0,1,.24-.05.55.55,0,0,1,.15.08,1.21,1.21,0,0,1,.3.25,3.19,3.19,0,0,1,.23.32c0,.05,0,.06.1,0l.15-.19a3.25,3.25,0,0,1,.23-.29,1.31,1.31,0,0,0,.11-.12c0-.06.15,0,.23,0S24.13,26.85,24.1,26.9Zm.92.47,0,0,0,0,0,0Zm.81-.58c0-.11.07-.14.14-.16C25.92,26.78,25.92,26.78,25.83,26.79Zm.49-.38.07-.15C26.44,26.36,26.41,26.39,26.32,26.41Zm.22-.14,0-.07,0,0,0,.07Zm.19-.21a.75.75,0,0,0,.07-.12C26.85,26,26.84,26,26.73,26.06Zm.35-.38.17-.15C27.26,25.71,27.22,25.75,27.08,25.68Zm.48-10.8,0,.09,0,0c0,.07,0,.14-.07.2a.63.63,0,0,1,0,.09l-.06.12a.69.69,0,0,0-.07.15l-.16.32a.16.16,0,0,1,0,.09s0,.09-.1.11,0,0-.06.05-.11,0-.15,0-.23-.14-.34-.2-.24-.09-.35-.14l-.34-.09h-.12a1.81,1.81,0,0,0-.69.07.88.88,0,0,0-.2.09,2.52,2.52,0,0,0-.35.3c-.08.07-.17.13-.24.2l-.07.09a2.32,2.32,0,0,0-.22.57c0,.13-.07.27-.11.4s-.05.17-.07.26a2.53,2.53,0,0,0,0,.3,4.14,4.14,0,0,0,0,.61,2.84,2.84,0,0,1,0,.41.38.38,0,0,0,.06.23l.13.23a1.27,1.27,0,0,0,.13.19,1.4,1.4,0,0,0,.33.27.78.78,0,0,0,.27.09.93.93,0,0,0,.23,0H25c.12,0,.22,0,.34,0a1,1,0,0,0,.42-.15l.12-.08a.09.09,0,0,0,.05-.1c0-.06,0-.13,0-.19a1.89,1.89,0,0,0-.05-.23.07.07,0,0,0-.06-.06h-.26a.12.12,0,0,1-.08,0L25.33,19s0,0,0,0a.09.09,0,0,0,0-.05,2.9,2.9,0,0,1-.06-.78c0-.1,0-.19,0-.3a.07.07,0,0,1,.07-.07s0,0,0-.05a.45.45,0,0,1,0-.11.05.05,0,0,1,.07,0,.65.65,0,0,0,.14,0H26l.5,0,.22,0,.34-.07a.5.5,0,0,0,.13,0s.08,0,.12,0a.58.58,0,0,1,.12.1.4.4,0,0,1,.08.16.74.74,0,0,1,0,.21c0,.11,0,.21,0,.31s0,.28,0,.43V19c0,.15,0,.31,0,.46a3,3,0,0,1,0,.31s0,.09,0,.13V20a.26.26,0,0,0,0,.12s0,.06,0,.1v.15s0,0,0,.06,0,0,0,0a.12.12,0,0,1-.09.11.39.39,0,0,0-.14.05c-.09.06-.17.15-.27.21l0,0c-.06,0-.1,0-.16.08l-.07,0h0a1,1,0,0,1-.26.12,1.57,1.57,0,0,0-.23.09l-.08,0c-.16,0-.31.09-.48.12l-.49.11a3,3,0,0,1-.51.06,1.59,1.59,0,0,1-.53,0,1,1,0,0,1-.19-.12l-.07,0a3,3,0,0,1-.4-.12.74.74,0,0,1-.22-.1,1.33,1.33,0,0,1-.42-.46,2.53,2.53,0,0,1-.13-.22.73.73,0,0,0,0-.09l-.13-.24c0-.05,0-.1-.07-.15a.28.28,0,0,1,0-.13s0-.05,0-.08a.31.31,0,0,1-.1-.15c-.07-.34-.13-.69-.2-1a2.63,2.63,0,0,1,0-.56c0-.12,0-.24,0-.35s0-.24.06-.37a2.88,2.88,0,0,1,.2-.63,4.5,4.5,0,0,1,.22-.55,2.33,2.33,0,0,1,.24-.41,2.43,2.43,0,0,1,.26-.29l.23-.25c.11-.1.22-.21.35-.31l.39-.28.16-.09,0,0s0-.07.07-.08l.31-.18a1.11,1.11,0,0,1,.26-.07A1.83,1.83,0,0,1,25,14h.35l.21,0h.26L26,14l.26.07.19.05.12.07.22.09.27.13.13.05a.38.38,0,0,1,.13.09.48.48,0,0,0,.11.09C27.53,14.75,27.57,14.8,27.56,14.88Zm-1,1.16a.15.15,0,0,1,.06.2C26.51,16.18,26.58,16.09,26.55,16Zm1.24,3.79s0,0,0-.08l0,0,.05.07Zm.06-2.13,0,0,0,0h0S27.86,17.7,27.85,17.7Zm0-3.5,0,0s0-.05-.06-.08-.07-.29-.11-.43,0,0,0-.06C27.78,13.84,27.91,14,27.87,14.2Zm1.29-6.73c0,.16,0,.3,0,.46s0,.22,0,.33,0,.36,0,.54,0,.3,0,.45,0,.26,0,.38,0,.4,0,.6,0,.29,0,.43a2.43,2.43,0,0,0,0,.27c0,.1,0,.19,0,.29v.45c0,.2,0,.4,0,.59s0,.26,0,.4a2.08,2.08,0,0,1,0,.25.21.21,0,0,1,0,.11.41.41,0,0,1-.2.14.3.3,0,0,1-.13,0h0s-.08,0-.12,0h-.05a1.33,1.33,0,0,1-.19-.14,1.59,1.59,0,0,1-.24-.2c-.08-.09-.17-.16-.26-.25l-.11-.09-.18-.19L27.36,12l-.26-.29-.2-.25-.14-.16a1.17,1.17,0,0,0-.15-.16L26.47,11c-.11-.12-.22-.22-.32-.34L26,10.5l-.14-.13a.52.52,0,0,0-.1-.11l-.08,0s0,.06,0,.09,0,.33,0,.5,0,.25,0,.38,0,.26,0,.38v.34c0,.14,0,.27,0,.4v.54c0,.1,0,.21,0,.31a.45.45,0,0,1,0,.12.38.38,0,0,1-.08.23c0,.05-.11.05-.16.07l-.16,0-.15,0-.1,0h-.06a.5.5,0,0,1-.13,0l-.26,0a.14.14,0,0,1-.14,0,.08.08,0,0,1,0-.11l.06-.06-.1,0s0,0,0,0l0-.15c0-.16,0-.33,0-.49s0-.26,0-.39,0-.23,0-.35,0-.31,0-.46v-1c0-.07,0-.14,0-.21v-1c0-.15,0-.31,0-.46l0-.5c0-.19,0-.38.05-.57a2.18,2.18,0,0,0,0-.25v0s0-.07,0-.12,0-.08.1-.1l.18,0a.19.19,0,0,1,.16.06,2.41,2.41,0,0,1,.21.24,1.43,1.43,0,0,1,.15.18l0,.06a1.45,1.45,0,0,0,.21.22l.22.24a1.45,1.45,0,0,0,.17.18l.19.2.23.25.17.18.18.2c.13.14.26.27.37.4l.28.3c.06.07.11.14.17.2l.09.07s0,0,0,0a.45.45,0,0,0,0-.12.22.22,0,0,1,0-.08v0c0-.08,0-.15,0-.23l0-.37c0-.1,0-.19,0-.3s0-.08,0-.12,0-.32,0-.47,0-.3,0-.45,0-.26,0-.4,0-.25,0-.38V7.19l0-.15s0,0,.06,0H28a3,3,0,0,1,.52-.08l.43,0a.09.09,0,0,1,.08.05l.09.16s0,0,0,0A1.22,1.22,0,0,1,29.16,7.47Zm.31,6.63c-.06-.06,0-.15,0-.22h.05c0,.07,0,.15,0,.22ZM9.47,9l-.14.33.17-.05ZM9.36,12.9v0h0c0-.06,0-.13,0-.19h0a.41.41,0,0,0,0,.22Zm-.08-1.14s0,.1,0,.11,0-.15,0-.23h0S9.28,11.72,9.28,11.76Zm0-.22s0,0,0-.08h0s0,.06,0,.08S9.29,11.55,9.29,11.54Zm0,.67c0-.05,0-.12,0-.18h0A.35.35,0,0,0,9.33,12.21Zm4.11,9.58h0a1.13,1.13,0,0,1,.12-.18c-.09-.06-.13,0-.13,0A.53.53,0,0,0,13.44,21.79Zm15.1-9.06h-.07l0,0,.07.06.09.08h.05s0,0,0,0a.11.11,0,0,0,0-.06C28.68,12.75,28.59,12.71,28.54,12.73Zm-17.6,9.93c-.09,0-.1.05-.09.17v0c0,.05,0,.09,0,.14s.09,0,.06-.09a.07.07,0,0,1,0-.06Zm.07-.82a.47.47,0,0,0,0-.29A1.4,1.4,0,0,0,11,21.84Zm-.63,1a.05.05,0,0,0,0,0v.08c0,.11,0,.12.14.08h0a.62.62,0,0,0,0-.13A.1.1,0,0,0,10.38,22.8Zm.93-.37s0,0,0,0l.17-.1a0,0,0,0,0,0,0Zm-1.59.67-.05,0,0,0,.05,0S9.73,23.1,9.72,23.1Zm3.73-6.42,0-.05-.24-.05v0c.08,0,.18.06.29.08Zm-3.41,6a.85.85,0,0,0,0-.16c0-.11,0-.22,0-.32s0-.28,0-.4,0-.34-.05-.51a.49.49,0,0,0,0-.12s0-.08,0-.11h0a14.66,14.66,0,0,0,.1,2,.05.05,0,0,0,0-.05s0-.07,0-.11ZM2.23,21.8a1.35,1.35,0,0,0-1.35-.38c-.15,0-.32.06-.48.09a.19.19,0,0,0-.18.17l0,.11a1.79,1.79,0,0,0-.19.73c0,.1,0,.21.05.31a3.22,3.22,0,0,0,.21.51.72.72,0,0,0,.29.31,1.41,1.41,0,0,0,1.12.06l.3-.09a.41.41,0,0,0,.32-.29.2.2,0,0,1,.18-.16.2.2,0,0,0,.16-.12.65.65,0,0,0,.07-.39A1.59,1.59,0,0,0,2.23,21.8Zm-1,.45c0-.11.05-.21.07-.3h0c0,.09.05.17.08.29Zm.34-1.63v0l0,0,0,0Zm9.7-.31c0,.11,0,.18.11.27C11.41,20.43,11.28,20.38,11.22,20.31Zm15.21-4.63c0,.08,0,.11.06.16S26.5,15.72,26.43,15.68Zm.39,5.14c-.14,0-.14,0-.08.13A.74.74,0,0,0,26.82,20.82Zm.65-2a.25.25,0,0,0-.12-.27C27.36,18.66,27.36,18.76,27.47,18.83ZM9.2,14.46a1.11,1.11,0,0,0,0-.26l-.06,0c0,.09,0,.16-.05.24a.12.12,0,0,0,0,.07A.06.06,0,0,0,9.2,14.46ZM19.07,27.4l0,0,0,0,0,0S19.08,27.39,19.07,27.4Z"/></g></g></svg>