<svg xmlns="http://www.w3.org/2000/svg" viewBox="0 0 36.62 31.74"><defs><style>.cls-1{fill:#d4a940;}</style></defs><g id="圖層_2" data-name="圖層 2"><g id="_0-ui_kits" data-name="0-ui_kits"><path id="logo_beer_civale" class="cls-1" d="M28.35,21.06l0,.29-.65.42a.51.51,0,0,1-.16.09.74.74,0,0,0-.45.31.53.53,0,0,1-.46.23.25.25,0,0,0-.29.19.09.09,0,0,0,0,.05c0,.38-.12.42-.5.35-.09,0-.17,0-.2.08s-.21.24-.37.28-.15,0-.15.08c0,.26-.18.23-.34.26l-.27.1c-.06,0-.13.09-.2.09-.49,0-.88.36-1.37.3a.48.48,0,0,0-.18,0,.94.94,0,0,0-.12.09l.35.29a7.76,7.76,0,0,0,2.27.93,14.66,14.66,0,0,1,2.49.86l.17.09c.12.07.27.11.25.29a.4.4,0,0,1-.25.37l-.15.08a2.12,2.12,0,0,1,.21.36.37.37,0,0,1-.19.48.4.4,0,0,1-.15,0,.29.29,0,0,0-.28.21.68.68,0,0,1-.54.51c-.07,0-.12.12-.18.2l-.2.31a.27.27,0,0,1-.22.08,1.43,1.43,0,0,0-.65,0,.59.59,0,0,1-.53-.28c-.13-.16-.22-.36-.34-.53s-.29-.41-.45-.61S24,27.9,24,27.86s-.07.18-.05.26a3.58,3.58,0,0,0,.19.66c.09.23.09.32-.11.45a3.3,3.3,0,0,1-.43.19l-.48.23a3.69,3.69,0,0,1,.2.32,1.15,1.15,0,0,1,.21.72c0,.24-.08.3-.31.3s-.25,0-.3.2a.53.53,0,0,1-.46.34,1,1,0,0,1-.68,0,.34.34,0,0,0-.35,0,1.8,1.8,0,0,1-.56.21.84.84,0,0,1-.54-.06.5.5,0,0,0-.46-.05.88.88,0,0,1-1-.32.25.25,0,0,0-.18-.08l-.25,0c-.2,0-.41,0-.51-.23l-.24.14a1.82,1.82,0,0,1,.17-1.05c.19-.49.41-1,.58-1.46a.77.77,0,0,0-.41-1v.28c0,.09,0,.17,0,.25-.32.07-.41,0-.46-.28s0-.33-.06-.52c-.2.11-.16.27-.19.4s0,.19-.07.21S17,28,17,27.84a5.07,5.07,0,0,1-.14-.5L16,27.27a20.14,20.14,0,0,1-4.22-.72A19.4,19.4,0,0,1,6.7,24.37a15.26,15.26,0,0,1-4.61-4.26,11.38,11.38,0,0,1-2-4.77,10.75,10.75,0,0,1,1.28-7A14.17,14.17,0,0,1,5.75,3.6a18.77,18.77,0,0,1,4.9-2.46A21.55,21.55,0,0,1,14.36.25,22.93,22.93,0,0,1,22,.39a20.1,20.1,0,0,1,5.45,1.82,17.38,17.38,0,0,1,3.33,2.15,13.39,13.39,0,0,1,3.67,4.58c.25.53.45,1.08.67,1.62l-.06,0L34.7,9.9A12.5,12.5,0,0,0,31.64,6a17.21,17.21,0,0,0-6.86-3.59,20.8,20.8,0,0,0-11.08.06A17.38,17.38,0,0,0,7.34,5.72a12.58,12.58,0,0,0-3.06,3.6A10.36,10.36,0,0,0,3,16.1a11.23,11.23,0,0,0,2.53,5.45,14.83,14.83,0,0,0,3.86,3.24A18.12,18.12,0,0,0,15.08,27c.51.1,1,.17,1.55.26a.34.34,0,0,0,.38-.15.75.75,0,0,1,1-.26l.12.09a.26.26,0,0,0,.16.09.58.58,0,0,0,.29,0s0-.15,0-.22c-.19-.49-.39-1-.59-1.46a.45.45,0,0,0-.37-.29c-.33-.09-.66-.21-1-.31a1,1,0,0,0-.34,0c-.2,0-.41.08-.62.1a.9.9,0,0,1-.6-.12.54.54,0,0,0-.33-.08,1,1,0,0,1-.78-.28,3.85,3.85,0,0,0-.3-.27,1.08,1.08,0,0,0-.63-.27.56.56,0,0,1-.53-.37,1.4,1.4,0,0,1-.09-.17.32.32,0,0,0-.37-.21A1.09,1.09,0,0,1,11,22.42a.49.49,0,0,0-.4-.26.78.78,0,0,1-.75-.68.52.52,0,0,0-.34-.38l-.67-.34c-.28-.16-.28-.21-.2-.53A.24.24,0,0,0,8.55,20a2,2,0,0,0-.39-.25L7.3,19.3a.39.39,0,0,1-.22-.51h0A.3.3,0,0,0,7,18.4,3.52,3.52,0,0,1,5.76,16v-.09c.06-.11.1-.27.2-.33s.24,0,.31.14a4,4,0,0,1,.35.56,7.07,7.07,0,0,0,1.7,2.32,2.23,2.23,0,0,0,1,.55A4.63,4.63,0,0,1,9,18.59a1.49,1.49,0,0,1-.08-.42c0-.13.09-.19.22-.15a.75.75,0,0,1,.25.13,1,1,0,0,1,.27.3,2.68,2.68,0,0,0,1.56,1.14,12.25,12.25,0,0,0,2.06.46c.64.12,1.28.24,1.93.32a10,10,0,0,0,1.22.08c.25,0,.26,0,.31-.25s.13-.62.21-.92a1,1,0,0,1,1.18-.83l.08,0a2.09,2.09,0,0,1,1.05.52,3.5,3.5,0,0,1,.3.24,1.21,1.21,0,0,0,1.36.1,4.81,4.81,0,0,0,.6-.4c.24-.17.47-.36.7-.53a1.48,1.48,0,0,1,.69-.3,2.31,2.31,0,0,0,1.15-.48c.3-.21.6-.43.88-.66a9.39,9.39,0,0,1,2.15-1.24c.45-.2.88-.44,1.31-.67a1.88,1.88,0,0,0,.78-.8c.14-.27.31-.4.41-.32s.1.33.07.5a1,1,0,0,1-.14.35c0,.1-.1.19-.19.37.3-.1.54-.15.77-.25a3.26,3.26,0,0,0,2-2.54c.06-.33.08-.67.11-1l0-.21a.5.5,0,0,1,.53.46h0a1.9,1.9,0,0,1,0,.63c-.1.39-.24.76-.36,1.14a.26.26,0,0,0,0,.21,1.51,1.51,0,0,0,.26-.18,3.19,3.19,0,0,0,1.11-2.93c0-.11-.14-.28.09-.33s.46.06.49.26a3.05,3.05,0,0,1,.06.6c0,.23,0,.46,0,.69a.71.71,0,0,0,0,.25c0-.17.11-.34.15-.52s.1-.24.27-.22.23.12.23.28a3.93,3.93,0,0,1-.49,2.09.76.76,0,0,0-.06.18l.35-.17.8-.66a1.75,1.75,0,0,1,.79-.43,1.93,1.93,0,0,1-.48,1c-.31.36-.66.67-1,1a1.93,1.93,0,0,0-.27.3c.65,0,1.2-.4,1.89-.41a1.53,1.53,0,0,1-.81.93l-.18.07c-.23.07-.23.07-.22.33a.3.3,0,0,1-.07.23,4.42,4.42,0,0,1-.53.53,1.19,1.19,0,0,1-.4.24c-.15,0-.23.13-.19.27s-.08.38-.23.51a2.37,2.37,0,0,1-1.25.63l-.18,0,.14.23a.63.63,0,0,1-.17.89.35.35,0,0,1-.16.08,1.09,1.09,0,0,0-.48.33c-.14.14-.32.24-.46.37a4.07,4.07,0,0,0-.54.56.59.59,0,0,1-.6.31,1.15,1.15,0,0,0-.75.17,1.51,1.51,0,0,1-.28.15C28.85,21.49,28.68,21.45,28.35,21.06Zm-6.24,6.6.24.29.08,0c.07-.28.15-.55.2-.83a.26.26,0,0,0-.14-.21.75.75,0,0,0-.33,0c-.19,0-.24.09-.2.27s.1.36.15.54L22,27.43a.38.38,0,0,0-.44-.17.36.36,0,0,0-.31.31.43.43,0,0,0,.19.48.53.53,0,0,1,.59-.36.27.27,0,0,0,.12,0ZM32.9,14.42a1.7,1.7,0,0,0-.31.06L31.24,15l-.1.07a.68.68,0,0,0,.07.83c-.32.29-.32.3,0,.63-.36.07-.72.11-.92.45l.93.71a4.4,4.4,0,0,0,.45.3.62.62,0,0,0,.44.09c0-.3,0-.3.25-.42s.3-.23.17-.49-.13-.32.18-.41l.36-.09a1,1,0,0,0,.34-.15c.24-.16.22-.3,0-.41s-.34-.12-.36-.37h.61c.2,0,.4,0,.6,0a.21.21,0,0,0,.14-.09.25.25,0,0,0-.1-.17,3.25,3.25,0,0,0-.43-.08.75.75,0,0,1-.46-.15c.16-.13.43,0,.5-.28-.5-.13-1,.12-1.48,0,.2-.11.5-.09.49-.48Zm-5,3.14a.47.47,0,0,0,.2.51,4.83,4.83,0,0,0,.58.43.87.87,0,0,1,.51.87.49.49,0,0,0,0,.12.25.25,0,0,0,.29.19.23.23,0,0,0,.14-.09.47.47,0,0,1,.35-.18c.32,0,.32,0,.33-.34,0,0,0,0,0-.05l.08,0c.45.11.45.11.49-.33,0,0,0,0,0,0l.47.2a.53.53,0,0,1,.44-.52,2.29,2.29,0,0,0-.21-.23c-.46-.32-.92-.63-1.39-.93-.05,0-.15,0-.23,0h-.39a5.27,5.27,0,0,1-.51-.19,4,4,0,0,1,.14.4,1.77,1.77,0,0,1,0,.23l-.18-.08a1.31,1.31,0,0,0-.12-.11c-.08-.06-.18-.12-.28,0s0,.17.05.24.07.27-.12.26a.93.93,0,0,1-.41-.12,1.78,1.78,0,0,1-.31-.23ZM26.47,21a.46.46,0,0,0-.23-.51.64.64,0,0,1-.34-.5c0-.17-.14-.21-.28-.17a.72.72,0,0,0-.24.14,4,4,0,0,0-.39.53c-.16.27-.28.56-.44.83a1.15,1.15,0,0,1-.32.34c-.36.26-.38.3-.18.72l0,.09c.07.14.21.12.33.13s.12-.12.13-.21l.06-.1c0,.06.08.11.12.15.17.21.36.18.44-.08a.68.68,0,0,0,0-.4.27.27,0,0,1,.12-.36h0l.25-.14.21.29a2.07,2.07,0,0,0,.22-.35c.09-.23.2-.42.5-.4Zm-5.66.59-.16.53-.49-.3,0,.59-.34-.16c-.23-.15-.29-.13-.38.12l-.06.27a1.6,1.6,0,0,1-.11.39c-.07.15-.18.16-.3,0s-.06-.12-.11-.14a.57.57,0,0,0-.29,0s-.05.16,0,.22.16.36.25.54a.56.56,0,0,0,.32.3c0-.25.13-.4.37-.44a.33.33,0,0,0,.3-.35.34.34,0,0,1,.21-.33,1.65,1.65,0,0,0,.18.32.48.48,0,0,0,.32.15c.13,0,.07-.16.07-.27s0,0,0-.06a1.49,1.49,0,0,0,.24.14.39.39,0,0,0,.26,0c.18-.06.18-.2.14-.36l-.11-.44a1.17,1.17,0,0,0,.25-.07s.07-.1.05-.12c-.14-.22-.24-.49-.57-.57Zm-9.58.18a5.15,5.15,0,0,0,.2.52c.12.26.25.32.54.24a4.33,4.33,0,0,1-.27-.71,4.56,4.56,0,0,1,0-.74s0,0-.07,0a1,1,0,0,1-1-.36,7.64,7.64,0,0,0-.79-.58L9.69,20a1.36,1.36,0,0,0,.41,1.05l.11-.17.08,0c0,.18,0,.35,0,.53s0,.2.11.23a.8.8,0,0,0,.84.08Zm8.67,6.77h-.06c-.14.54-.29,1.07-.4,1.61a2.75,2.75,0,0,0,0,.81c0,.17.1.2.27.14a.61.61,0,0,0,.39-.59,10.78,10.78,0,0,0-.21-2Zm-.85.16H19c-.13.34-.28.68-.38,1a6.49,6.49,0,0,0-.16.88.23.23,0,0,0,.13.18c.18.05.43-.17.44-.36,0-.38,0-.77,0-1.15a5.81,5.81,0,0,0,0-.59Zm1.61.18h-.07a5.65,5.65,0,0,0,0,.58c0,.36.07.73.13,1.09a.82.82,0,0,0,.49.63,4.21,4.21,0,0,0-.59-2.3ZM14,20.45a18.72,18.72,0,0,0-2.76-.55,3.43,3.43,0,0,0,2.76.55Zm6.11-.68-1.32-.86a.56.56,0,0,0-.17-.09c-.05,0-.14,0-.16,0a1.2,1.2,0,0,0-.16.69l.39-.19c.1-.05.19-.14.31,0s.2.22.13.38L19,19.9Zm6.77-.47a2.46,2.46,0,0,0,.1,1.42l.56-.18a1.76,1.76,0,0,0-.66-1.24Zm-3.58,7.23a2,2,0,0,0-.92-1.68c-.1.77.44,1.17.93,1.68Zm-2,2.21A4.07,4.07,0,0,0,22,31.06a4.41,4.41,0,0,0-.7-2.31Zm3.26-.84c.19.33.34.61.51.88a.64.64,0,0,0,.58.36c.19-.4-.22-.94-1.09-1.24Zm-9.83-6.8.09,0a.73.73,0,0,1,1,0A.25.25,0,0,0,16,21l.37-.3c-.43-.06-.81-.13-1.19-.16s-.47.16-.44.53Zm3-.82a.37.37,0,0,0-.24-.32c-.14,0-.21.09-.25.19a1.07,1.07,0,0,0-.1.36.43.43,0,0,0,.18.41c.08,0,.17.06.21,0s.13-.4.2-.59Zm7.73,7.3-.06.07c.14.21.27.43.43.64a.85.85,0,0,0,.25.17c.1.05.21.07.27-.06s.07-.2-.06-.29-.33-.25-.5-.37a2.3,2.3,0,0,0-.32-.15Zm1.57-.26a2.69,2.69,0,0,0-1.26-.41c.25.19.48.38.72.53s.38.1.55-.12Zm-4.4,2.25c.05.24.08.42.12.6s.06.32.23.39.23,0,.21-.15a1,1,0,0,0-.56-.83Zm.43-1.42a1.17,1.17,0,0,0,.14-.8c0-.14-.12-.16-.24-.11a.43.43,0,0,0-.29.38c.33,0,.28.32.4.54Zm-5.58-5.06L17.21,22c-.34.32-.2.81.3,1.07ZM11,9a1.62,1.62,0,0,0-.53-1.48A1,1,0,0,0,10,7.25a3.61,3.61,0,0,0-.87.07,3.48,3.48,0,0,0-1.38.6A5,5,0,0,0,5.34,11.5a3,3,0,0,0,.49,2.25A1.88,1.88,0,0,0,8,14.57a9,9,0,0,0,1-.4,6.3,6.3,0,0,0,2.2-1.54,2.2,2.2,0,0,0,.37-.58.9.9,0,0,0,0-.72,5.71,5.71,0,0,1-1.28,1.22,5,5,0,0,1-2.21.92,2,2,0,0,1-1.36-.28,1.46,1.46,0,0,1-.7-1.59,3.17,3.17,0,0,1,.45-1A5.11,5.11,0,0,1,8,9.07a3.82,3.82,0,0,1,1.81-.66.83.83,0,0,1,.93.49c0,.09.1.18.18.34A1.39,1.39,0,0,0,11,9ZM25.2,12.58a1.11,1.11,0,0,0-.22.79c0,.16.14.22.28.26a1.52,1.52,0,0,0,1-.06A4.58,4.58,0,0,0,28.38,12a.83.83,0,0,1,.12-.15A2.28,2.28,0,0,1,28.24,13a3.18,3.18,0,0,1-2.14,1.62,1.36,1.36,0,0,1-1.72-.88,1.49,1.49,0,0,1-.07-.47,2.6,2.6,0,0,1,.19-1.17,4.74,4.74,0,0,1,1.31-1.93,4,4,0,0,1,.5-.34l.09,0a1.36,1.36,0,0,1,1.57.93.65.65,0,0,1,0,.39,3.2,3.2,0,0,1-1.5,1.64,1.78,1.78,0,0,1-.6.16.63.63,0,0,1-.63-.28Zm.4-.65a2.51,2.51,0,0,0,1.48-.61c.22-.2.31-.46.21-.58s-.36-.11-.6,0a2.5,2.5,0,0,0-1.08,1.19ZM21.17,14a.73.73,0,0,1-.59.72.77.77,0,0,1-.88-.49,2.27,2.27,0,0,1-.09-.52.72.72,0,0,0-.06-.29l-.13.15c-.23.26-.45.52-.69.77a.46.46,0,0,1-.18.13c-.5.23-.85.19-1.07-.41a2.36,2.36,0,0,1,.08-1.75,4.91,4.91,0,0,1,1.74-2.11,5.29,5.29,0,0,1,.5-.32.82.82,0,0,1,1.06.16l.17.18c.25.31.25.39,0,.73a8.91,8.91,0,0,0-.84,1.86.83.83,0,0,0,.42,1.1A.94.94,0,0,0,21,14Zm-3.34-.23a2,2,0,0,0,1-.54A5.93,5.93,0,0,0,20.27,11a1.1,1.1,0,0,0,0-.18A6.37,6.37,0,0,0,18.08,13a1.59,1.59,0,0,0-.25.85Zm6-8.24A29,29,0,0,1,22.86,9a20.34,20.34,0,0,0-.93,4.07A3,3,0,0,0,22,14.24a.58.58,0,0,0,.44.44.66.66,0,0,0,.7-.25,1.63,1.63,0,0,0,.27-1,2.6,2.6,0,0,1-.3.36.4.4,0,0,1-.27.1.29.29,0,0,1-.11-.26c0-.35.05-.69.1-1a32,32,0,0,1,.92-3.75c.16-.61.3-1.23.41-1.84a2.75,2.75,0,0,0-.26-1.67c0,.13-.06.2-.08.28Zm-8.43,5.3a1.4,1.4,0,0,0-.77-1s0,.09,0,.13c.11.65.25,1.3.31,2s.08,1.53.12,2.3c0,.39,0,.4.39.49s.29,0,.35-.24c.14-.65.24-1.32.42-2a5,5,0,0,1,1.7-2.69c.14-.11.27-.23.45-.4a2.78,2.78,0,0,0-1.69.68,3.16,3.16,0,0,0-.83,1.32l-.29.83a13.44,13.44,0,0,0-.17-1.35Zm-2.61-.34A5.56,5.56,0,0,0,12,13a2.17,2.17,0,0,0,.22,1.28c.27.47.58.54,1,.22a2,2,0,0,0,.8-1.63,1,1,0,0,0-.06-.23,7,7,0,0,1-.39.65,1.84,1.84,0,0,1-.41.38c-.2.12-.3,0-.29-.17a4.39,4.39,0,0,1,.07-.72,8.12,8.12,0,0,1,.86-2.29c.16-.31.15-.36-.13-.56l-.36-.2-.48.82Zm1.58-2.58a1.61,1.61,0,0,0,.16-.86,1,1,0,0,0-.28-.61c-.15-.13-.26-.11-.34.06s-.16.37-.24.55a3,3,0,0,0-.19,1.69.53.53,0,0,0,.28.47l.62-1.29Z"/></g></g></svg>