<svg xmlns="http://www.w3.org/2000/svg" viewBox="0 0 67.87 31.74"><defs><style>.cls-1{fill:#fff;}.cls-2{fill:#cba53f;}</style></defs><g id="圖層_2" data-name="圖層 2"><g id="_0-ui_kits" data-name="0-ui_kits"><g id="logo_beer_lindemans"><path id="Path_31789" data-name="Path 31789" class="cls-1" d="M67.81,29.12a4.09,4.09,0,0,1-.32,1.15,2.33,2.33,0,0,1-2.2,1.45c-.27,0-.54,0-.81,0a7.37,7.37,0,0,0-.94,0A2.41,2.41,0,0,1,60.85,30a3.59,3.59,0,0,1,.33-3,2,2,0,0,1,1.6-1.09,1.68,1.68,0,0,1,1.73.86.7.7,0,0,0,.63.47,1.31,1.31,0,0,1-.09.87.77.77,0,0,1-.85.4,3.45,3.45,0,0,1-.48-.2c-.13-.06-.25-.13-.38-.18a.55.55,0,0,0-.73.25.88.88,0,0,0,0,.15l0,.12a1.18,1.18,0,0,0,1.14,1.06,2.82,2.82,0,0,0,1.19-.09A1.58,1.58,0,0,0,66,28.37a3.23,3.23,0,0,0-.81-2.95,5.8,5.8,0,0,0-1.35-1.12l-1.44-.94A3.1,3.1,0,0,1,61,20.7a4.61,4.61,0,0,1,.15-1.48,3.6,3.6,0,0,1,.22-.54,1.49,1.49,0,0,1,.9-.75c1.25-.39,2.5-.77,3.76-1.14a3.09,3.09,0,0,1,.8-.11.54.54,0,0,1,.58.47,3.11,3.11,0,0,1-.31,2.35c-.11.2-.24.39-.36.59s-.18.29-.26.44a1.17,1.17,0,0,0,0,1.17l-.38.09a.93.93,0,0,1-.59-1c0-.42.14-.84.21-1.25,0-.12,0-.24.05-.36a.38.38,0,0,0-.3-.43h-.11a2.42,2.42,0,0,0-.54.06l-1.55.38-.18.06a.8.8,0,0,0-.63.93A1.32,1.32,0,0,0,63,21.2c.41.31.83.62,1.26.91A9.89,9.89,0,0,1,66,23.54a7,7,0,0,1,1.81,4c0,.11,0,.22.06.31v1C67.76,28.9,67.81,29,67.81,29.12Z"/><path id="Path_31790" data-name="Path 31790" class="cls-1" d="M0,30.76H.05v.43l-.06,0Z"/><path id="Path_31791" data-name="Path 31791" class="cls-2" d="M67.87,27.83c-.11-.09-.06-.2-.06-.31a.07.07,0,0,0,.06,0Z"/><path id="Path_31792" data-name="Path 31792" class="cls-1" d="M67.81,29.12c0-.11,0-.23.06-.31v.32Z"/><path id="Path_31793" data-name="Path 31793" class="cls-1" d="M45.23,31.22a.7.7,0,0,1-.63.39,3.91,3.91,0,0,1-.49,0l-1.07,0A1.51,1.51,0,0,1,42,31.27c0-.46.56-.42.76-.75v-.87c0-.94,0-1.87,0-2.8,0-.18,0-.35,0-.52a.57.57,0,0,0-.55-.59H42a1.89,1.89,0,0,0-.41.1l-1.15.44v4.22c.22.3.65.32.79.69a.69.69,0,0,1-.57.41,4.74,4.74,0,0,1-.65.05l-1.07,0a1.81,1.81,0,0,1-.85-.3s-.08-.1-.12-.16c.09-.41.57-.37.77-.69v-2c0-.3,0-.6,0-.91s0-.82,0-1.23a.57.57,0,0,0-.52-.63.45.45,0,0,0-.23,0,4.88,4.88,0,0,0-.65.2l-.39.16-.44.12v4.22c.24.28.63.3.77.63a.62.62,0,0,1-.54.45,3.9,3.9,0,0,1-.58.05l-1.14,0a1.64,1.64,0,0,1-.83-.27,1.19,1.19,0,0,1-.15-.18c.11-.42.59-.39.78-.7V29c0-.81,0-1.63,0-2.44v-.81a.73.73,0,0,0-.3-.65l-.4-.3v-.32a.44.44,0,0,1,.43-.18h2.28a.43.43,0,0,1,.35.14A.47.47,0,0,1,37,25l-.29.21a.46.46,0,0,0-.17.41,1.74,1.74,0,0,0,.38-.14c.21-.14.41-.3.61-.44s.51-.37.78-.53a1.78,1.78,0,0,1,1.2-.16,1.11,1.11,0,0,1,.94.94c0,.09,0,.17.06.28a1.06,1.06,0,0,0,.25-.09c.3-.21.61-.42.9-.65a2.32,2.32,0,0,1,1.29-.63,3.38,3.38,0,0,1,.45,0,1,1,0,0,1,1,.88,4.59,4.59,0,0,1,.1.83c0,.47,0,.94,0,1.4s0,1,0,1.47,0,1,0,1.46a.53.53,0,0,0,.32.55C44.93,30.85,45.15,31,45.23,31.22Z"/><path id="Path_31794" data-name="Path 31794" class="cls-1" d="M.06,31.2v-.43c.1-.14.21-.27.32-.4l1-.89a1.55,1.55,0,0,0,.51-1.25c0-.92,0-1.84,0-2.77,0-1.74,0-3.47,0-5.21,0-.26,0-.52,0-.78a2.44,2.44,0,0,0-.4-1.11A6.25,6.25,0,0,1,1,17.47a1.2,1.2,0,0,1,.11-1.13c.35.09.71.18,1.06.29s.78.24,1.17.37a4.78,4.78,0,0,1,.48.19c.45.21.58.48.41,1a1.78,1.78,0,0,1-.3.54,2.22,2.22,0,0,0-.42,1.34q0,3.34.07,6.71c0,.31,0,.63,0,.94v.53l.3.26c.34.27.33.52-.06.71s-.6.25-.9.37a7.5,7.5,0,0,0-1.62.89.61.61,0,0,0-.28.33c.08.16.21.15.34.16a2.37,2.37,0,0,0,1-.19c.5-.19,1-.42,1.49-.63s.86-.36,1.3-.52a2.17,2.17,0,0,1,1.21-.07l.13,0,.08,0c.08-.16,0-.3-.09-.44-.22-.38-.45-.76-.66-1.15a5.37,5.37,0,0,1-.29-.65.9.9,0,0,1,0-.7c.12-.3.27-.59.41-.9.19.17.39.32.57.48a.6.6,0,0,1,.2.56,2.54,2.54,0,0,1,0,.29,2,2,0,0,0,.19,1.54l.76,1.62c0,.09.1.19.14.29a.57.57,0,0,1-.17.78l-.09,0a3,3,0,0,1-1.72.39c-.42,0-.83-.11-1.25-.18a5.41,5.41,0,0,0-1.75,0,14.25,14.25,0,0,1-1.45.15,1.71,1.71,0,0,1-.91-.22A2.42,2.42,0,0,1,.06,31.2Z"/><path id="Path_31795" data-name="Path 31795" class="cls-1" d="M26.76,31.13c0,.25-.22.34-.42.41a3,3,0,0,1-1.19.09,8.47,8.47,0,0,0-1.95,0c-.21,0-.42.06-.64.09A2.56,2.56,0,0,1,19.72,30a5.88,5.88,0,0,1-.26-2.79,6.1,6.1,0,0,1,.47-1.72,3.87,3.87,0,0,1,.65-1A2.05,2.05,0,0,1,23,23.94c.22.1.42.22.63.34l.54.31v-.41c0-.59,0-1.19-.05-1.78a.73.73,0,0,0-.32-.58c-.13-.1-.27-.18-.39-.29a.68.68,0,0,1-.18-.94h0l.69,0,1,.1.2,0c.48.07.62.21.63.69.05,1,.09,2.08.11,3.12,0,1.34,0,2.67,0,4,0,.6,0,1.21,0,1.88C26.16,30.66,26.58,30.76,26.76,31.13Zm-4.57-1.52h1a4,4,0,0,0,.49,0c.41-.05.56-.23.56-.65V26c0-.15,0-.3,0-.41l-.79-.54a1.34,1.34,0,0,0-1.87.24,1,1,0,0,0-.18.3,4.05,4.05,0,0,0-.06,3.31,1,1,0,0,0,.87.68Z"/><path id="Path_31796" data-name="Path 31796" class="cls-1" d="M31.13,3.75l1.81.65c0,.09,0,.2,0,.3,0,.84,0,1.67,0,2.51,0,.46.17.61.63.62l1,0,.39,0a1,1,0,0,0,1-1,1.77,1.77,0,0,0-.59-1.61l-.18-.16V4.21c.16-.15.32-.27.46-.43a1,1,0,0,0,.18-1.06.61.61,0,0,0-.47-.41,5.61,5.61,0,0,0-2-.05c-.2,0-.2,0-.4.21l-.06.91-1.75-.6a1.6,1.6,0,0,0,0-.23.33.33,0,0,0-.43-.2l0,0a.23.23,0,0,0-.1.3l.05.06a1.38,1.38,0,0,0,.33.2,12.5,12.5,0,0,0,2.22.72l.1,0v.6l-.52-.17-2.3-.79c-.34-.14-.67-.29-1-.46a1.18,1.18,0,0,1-.28-.22A.44.44,0,0,1,29.05,2a.43.43,0,0,1,.26-.18A3.28,3.28,0,0,1,30,1.65a2.55,2.55,0,0,1,.39,0c1.72,0,3.43,0,5.15,0a8.13,8.13,0,0,1,1.2.12,1.1,1.1,0,0,1,.34.1.78.78,0,0,1,.5,1,.71.71,0,0,1-.08.18,1.62,1.62,0,0,1-.52.61c-.24.17-.5.31-.74.47l-.35.2.44.19A2.87,2.87,0,0,1,38,6.26a2.45,2.45,0,0,1-.1,2,2.28,2.28,0,0,1-1.54,1.11,6.06,6.06,0,0,1-1.9.06c-.83,0-1.65,0-2.47,0a8.2,8.2,0,0,1-2-.09A.68.68,0,0,1,29.57,9c0-.21.16-.28.3-.35.32-.14.64-.26,1-.39l.29-.1Z"/><path id="Path_31797" data-name="Path 31797" class="cls-2" d="M36.29,13.69l.14,0a8.52,8.52,0,0,1,2.18,1.13,3.71,3.71,0,0,1,1.5,2.24,1.49,1.49,0,0,0,.09.3,1,1,0,0,1,.08.65.79.79,0,0,1-.72.32,6.39,6.39,0,0,1-1.8-.16c-.66-.14-1.3-.3-2-.4a9,9,0,0,0-1.27,0,14.6,14.6,0,0,0-2,.23c-.59.08-1.17.18-1.77.23-.45.05-.9.05-1.36.06a.64.64,0,0,1-.72-.59,1.29,1.29,0,0,1,.45-1.1,10.44,10.44,0,0,1,1-.85C31,15.17,31.9,14.6,32.79,14a1.36,1.36,0,0,0,.68-1.57c0-.13,0-.26,0-.39a2.26,2.26,0,0,0,0-.26,2.45,2.45,0,0,0-.08-.29L33,11.34a1.3,1.3,0,0,1,.18-.23.77.77,0,0,0,.25-.61v-1a10.65,10.65,0,0,1,1.6.07c0,.34,0,.65,0,1a1.22,1.22,0,0,0,.07.38,1,1,0,0,0,.16.24l.2.25-.4.13a1.47,1.47,0,0,0-.08.83,4.22,4.22,0,0,0,.75,2.05,2.9,2.9,0,0,1,.17.35l-.88.13a9.12,9.12,0,0,0-3.19,1c-.38.21-.73.46-1.09.68v.21l.44.08a5.31,5.31,0,0,0,2-.23c.71-.22,1.42-.42,2.15-.59a5.19,5.19,0,0,1,2.22,0,2.51,2.51,0,0,0,.61,0,.73.73,0,0,0,.35-.15c.21-.15.18-.43,0-.64a11,11,0,0,0-1.91-1.35l-.3-.17Z"/><path id="Path_31798" data-name="Path 31798" class="cls-1" d="M49.12,26.2a.71.71,0,0,0-.57,0c-.32.06-.63.14-.95.19a1.32,1.32,0,0,1-.85-.14,1.12,1.12,0,0,1-.48-1.52,1,1,0,0,1,.27-.34,1.87,1.87,0,0,1,1-.43c.22,0,.45,0,.68-.05l1.68-.13q.6,0,1.2,0a1.06,1.06,0,0,1,1,.84,6.71,6.71,0,0,1,.26,1.73c0,.74,0,1.49,0,2.25v1.65a.54.54,0,0,0,.27.52c.19.12.38.26.33.51s-.29.31-.5.38a3.38,3.38,0,0,1-1.7,0,5.34,5.34,0,0,0-1.87,0A3.08,3.08,0,0,1,47,31.5a2,2,0,0,1-1.21-1.72,2.19,2.19,0,0,1,.91-2,11.24,11.24,0,0,1,2-1.23,1.12,1.12,0,0,0,.28-.16S49.09,26.28,49.12,26.2Zm-1.38-.94c.13.3.22.37.52.34s.66-.1,1-.15a3.55,3.55,0,0,1,.65,0,.38.38,0,0,1,.38.37.68.68,0,0,1-.24.61c-.18.14-.36.28-.55.4-.35.24-.72.45-1.05.71a1.64,1.64,0,0,0-.62,1.07,1,1,0,0,0,.78,1.16h0a2.49,2.49,0,0,0,.77,0c.39-.07.77-.19,1.19-.3V29.1c0-.76,0-1.52,0-2.28a9.36,9.36,0,0,0-.08-1.3.92.92,0,0,0-.64-.83,2.61,2.61,0,0,0-1.72.08A.63.63,0,0,0,47.74,25.26Z"/><path id="Path_31799" data-name="Path 31799" class="cls-1" d="M55.79,30.49c.26.26.63.32.78.67a.91.91,0,0,1-.82.51,2.54,2.54,0,0,1-.39,0,4.21,4.21,0,0,0-.71,0,1.7,1.7,0,0,1-1.22-.32c-.09-.27-.08-.32.11-.45a3.7,3.7,0,0,1,.33-.21.5.5,0,0,0,.25-.49C54,28.6,54,27,54.08,25.41a2.54,2.54,0,0,0,0-.39.87.87,0,0,0-.32-.65,2.39,2.39,0,0,1-.22-.23c-.2-.23-.2-.36,0-.68a3.5,3.5,0,0,1,.56-.13l2-.18a1.36,1.36,0,0,1,.36.06.66.66,0,0,1-.12.7c-.1.12-.21.22-.31.34a.83.83,0,0,0-.23.58.94.94,0,0,0,.52-.33c.15-.21.29-.43.45-.64s.26-.34.39-.52A1.6,1.6,0,0,1,59,23.15a1.56,1.56,0,0,1,.52.77,4.44,4.44,0,0,1,.2,1.44c0,1.2,0,2.39,0,3.59v1.2a2.87,2.87,0,0,0,.05.31c.22.27.63.3.74.67a.42.42,0,0,1-.23.33,1.34,1.34,0,0,1-.87.2,5.53,5.53,0,0,0-.91,0,1.6,1.6,0,0,1-1.13-.36l0-.3a2.71,2.71,0,0,1,.35-.24.64.64,0,0,0,.38-.71c0-.38,0-.76,0-1.14,0-1,0-1.93,0-2.9a1.54,1.54,0,0,0-.13-.67.56.56,0,0,0-.73-.35h0a1.81,1.81,0,0,0-.65.36,4.59,4.59,0,0,1-.44.33,2.41,2.41,0,0,1-.33.15C55.76,27.38,55.69,28.94,55.79,30.49Z"/><path id="Path_31800" data-name="Path 31800" class="cls-1" d="M11.8,23.14a2.55,2.55,0,0,1,1,0c.39,0,.78.08,1.16.12a2.12,2.12,0,0,1,.45.07.38.38,0,0,1,.34.42.35.35,0,0,1-.1.21,1.18,1.18,0,0,1-.3.33.75.75,0,0,0-.29.59.54.54,0,0,0,.46-.2,2.38,2.38,0,0,0,.43-.52,1.32,1.32,0,0,1,1.62-.61,1.62,1.62,0,0,1,1.26,1.14,6,6,0,0,1,.26,1.83c0,.88,0,1.76-.05,2.64,0,.45,0,.91,0,1.35.18.3.67.27.72.72a1.08,1.08,0,0,1-.87.43c-.49,0-1,0-1.46,0a1.12,1.12,0,0,1-.89-.45c.1-.42.55-.42.81-.73v-.62c0-1.06,0-2.11,0-3.16a3.64,3.64,0,0,0-.05-.74.77.77,0,0,0-.81-.73.79.79,0,0,0-.34.1,2.69,2.69,0,0,0-.29.16l-.79.43-.06,4.57.7.53a.35.35,0,0,1-.18.42,1.26,1.26,0,0,1-.67.23c-.48,0-1,0-1.43,0a1.15,1.15,0,0,1-.89-.45c.09-.44.57-.43.78-.74,0-.22,0-.45,0-.69l0-3.55c0-.44,0-.87,0-1.31a1,1,0,0,0-.39-.88.77.77,0,0,1-.29-.76Z"/><path id="Path_31801" data-name="Path 31801" class="cls-1" d="M29.55,29.41a2.28,2.28,0,0,0,1,.37,3.08,3.08,0,0,0,1.35-.06,1.35,1.35,0,0,0,1-.84.35.35,0,0,1,.34.14,1.33,1.33,0,0,1,.37,1.43,1.71,1.71,0,0,1-1.77,1.29c-.6,0-1.21,0-1.81-.06h-.2a1.88,1.88,0,0,1-1.91-.84,3.32,3.32,0,0,1-.64-1.58,5.85,5.85,0,0,1,.31-3.1,3,3,0,0,1,1.08-1.47A2.24,2.24,0,0,1,30,24.28c.73,0,1.46,0,2.18,0a2.55,2.55,0,0,1,.73.14,1,1,0,0,1,.63,1.15,1.84,1.84,0,0,1-.82,1.24c-.37.24-.76.45-1.15.66a6.74,6.74,0,0,0-1.38.85A1.81,1.81,0,0,0,29.55,29.41Zm-.63-.55a3.47,3.47,0,0,1,1.49-1.65l.43-.24c.2-.12.41-.24.6-.38a.9.9,0,0,0,.27-.28.71.71,0,0,0-.11-1,.73.73,0,0,0-.29-.15,2.64,2.64,0,0,0-1.28,0,1.51,1.51,0,0,0-1.27,1.26,4.68,4.68,0,0,0-.12,1.49A2,2,0,0,0,28.92,28.86Z"/><path id="Path_31802" data-name="Path 31802" class="cls-1" d="M11.13,31.17a1,1,0,0,1-.86.5,4,4,0,0,1-.49,0,7.31,7.31,0,0,0-.81,0,1.5,1.5,0,0,1-.88-.29c-.07,0-.1-.15-.16-.22.15-.4.61-.42.81-.8V24c-.21-.2-.41-.35-.58-.53a.57.57,0,0,1,0-.82h0a2.67,2.67,0,0,1,.4,0c.63.06,1.26.13,1.88.21.31,0,.63.11.73.48s-.35.64-.72.77v.57c0,1.66,0,3.32,0,5,0,.17,0,.33,0,.49a.47.47,0,0,0,.28.53A.78.78,0,0,1,11.13,31.17Z"/><path id="Path_31803" data-name="Path 31803" class="cls-2" d="M35.06,7.7h-1.6V2.43a3,3,0,0,1,1.59,0Z"/><path id="Path_31804" data-name="Path 31804" class="cls-1" d="M24.19,11.9h.5a21.18,21.18,0,0,1,0,2.76h-.49L22.3,12.6v2.05h-.51V11.91h.59l1.81,1.95Z"/><path id="Path_31805" data-name="Path 31805" class="cls-1" d="M17.88,11.9h.58l1.83,2V11.91h.52v2.75H20.3l-1.91-2.05v2.05h-.51Z"/><path id="Path_31806" data-name="Path 31806" class="cls-2" d="M33.46,1.47a1.65,1.65,0,0,0-.72-.5.92.92,0,0,1-.46-.39c0-.41.25-.59.63-.58s.87.05,1.3.05.93,0,1.4,0,.58.17.63.58a.92.92,0,0,1-.47.38,1.38,1.38,0,0,0-.7.51Z"/><path id="Path_31807" data-name="Path 31807" class="cls-1" d="M27.17,14.76c-.2,0-.41,0-.6-.09a1.32,1.32,0,0,1-1.06-1.35,1.33,1.33,0,0,1,1.07-1.44,2.34,2.34,0,0,1,1.31,0,1.31,1.31,0,0,1,.93,1.25,1.36,1.36,0,0,1-.79,1.4A2.29,2.29,0,0,1,27.17,14.76Zm0-2.46a1.46,1.46,0,0,0-.29,0,.92.92,0,0,0-.81.91.91.91,0,0,0,.74,1,1.48,1.48,0,0,0,.86,0,.77.77,0,0,0,.52-.46,1,1,0,0,0-.41-1.3.87.87,0,0,0-.41-.11Z"/><path id="Path_31808" data-name="Path 31808" class="cls-1" d="M44.13,13.19a.64.64,0,0,1-.36-.75.62.62,0,0,1,.37-.46,1.83,1.83,0,0,1,1.6,0,.62.62,0,0,1,.34.83h0a2.28,2.28,0,0,1-.3.38,1.19,1.19,0,0,1,.18.15.74.74,0,0,1,0,1.05l-.14.11a1.08,1.08,0,0,1-.29.13,2.4,2.4,0,0,1-1.19,0,.78.78,0,0,1-.66-.63.75.75,0,0,1,.38-.8Zm1.46.43a1.28,1.28,0,0,0-1-.14c-.25.07-.36.19-.36.39a.4.4,0,0,0,.38.39,3.86,3.86,0,0,0,.68,0c.35,0,.45-.24.33-.64Zm0-1c-.1-.35-.39-.36-.66-.37a.78.78,0,0,0-.71.26l0,.26a.88.88,0,0,0,1.25,0,.58.58,0,0,0,.1-.12Z"/><path id="Path_31809" data-name="Path 31809" class="cls-1" d="M8.53,19.69c0-.11,0-.28.07-.45.1-.58.51-.62.89-.51a1.08,1.08,0,0,1,.78.67,2.52,2.52,0,0,1,.16,1.15,1.28,1.28,0,0,1-.13.39.43.43,0,0,1-.4.24,1.11,1.11,0,0,1-1.32-.88.78.78,0,0,1,0-.16A4.36,4.36,0,0,1,8.53,19.69Z"/><path id="Path_31810" data-name="Path 31810" class="cls-1" d="M13.88,14.66l1.35-2.75h.65l1.33,2.74h-.57l-.3-.59H14.76l-.3.6Zm2.24-1.12-.56-1.19L15,13.54Z"/><path id="Path_31811" data-name="Path 31811" class="cls-1" d="M48.39,14.21h1.39v.41a17,17,0,0,1-2.47,0v-.37l1-.61c.19-.12.39-.23.58-.36a1.42,1.42,0,0,0,.29-.26.45.45,0,0,0,0-.63.41.41,0,0,0-.21-.1.86.86,0,0,0-1.11.47h-.47a.94.94,0,0,1,.72-.9,1.84,1.84,0,0,1,1.09,0,.81.81,0,0,1,.63.63.89.89,0,0,1-.33,1,7.71,7.71,0,0,1-.77.49l-.32.19Z"/><path id="Path_31812" data-name="Path 31812" class="cls-1" d="M52.07,14.21h1.37v.44H51l0-.36.79-.49.78-.47a1.63,1.63,0,0,0,.31-.27.45.45,0,0,0,0-.64.41.41,0,0,0-.21-.1,1.35,1.35,0,0,0-.45-.05.68.68,0,0,0-.63.53h-.47a.45.45,0,0,1,.08-.43,1,1,0,0,1,.63-.48,1.81,1.81,0,0,1,1.15,0,.88.88,0,0,1,.53,1.13.66.66,0,0,1-.09.19,1.45,1.45,0,0,1-.56.48l-.75.43Z"/><path id="Path_31813" data-name="Path 31813" class="cls-1" d="M41.73,12.53h-.57v-.3a1.28,1.28,0,0,0,.77-.42h.22a18,18,0,0,1,0,2.84h-.46Z"/></g></g></g></svg>