<svg xmlns="http://www.w3.org/2000/svg" viewBox="0 0 104.9 31.74"><defs><style>.cls-1{fill:#b1743e;}</style></defs><g id="圖層_2" data-name="圖層 2"><g id="_0-ui_kits" data-name="0-ui_kits"><path id="logo_beer_corsendonk" class="cls-1" d="M44,15.28l-2.5,2.59c-.7-.75-1.79-1.48-2.41-.67A2.72,2.72,0,0,0,39,19.89c.31.69,1.46,3.18,1.7,3.75,1,2.46.23,4-1.41,5.63a5.13,5.13,0,0,1-5.61,1.36L36,28s1.11,2.09,2.61.9a2,2,0,0,0,.14-2.57,27.55,27.55,0,0,1-1.93-4.46,4.41,4.41,0,0,1,.52-3.75c.2-.31,1.92-2.09,2.25-2.44A4,4,0,0,1,44,15.28Zm-10.3,2.79a11.41,11.41,0,0,0-1.38,1.56l-1.25,9.52-3.06,2s1.72-11.87,1.76-12.48c.06-.82-.22-1.08-.88-.51-.29.25-1.16,1-1.75,1.61-.06,4.35-3.62,11-7,11.08-1.27,0-2.1-1.69-2.36-3.05-.59.31-4,1.93-4.95,2.41a5.26,5.26,0,0,1-4.88,0c-4.61-2-6.91-5.74-7.87-11.63A12.25,12.25,0,0,1,3.42,8.48,18.76,18.76,0,0,1,9.51,3.94c1.77-.71,2.2-1,3.92-1a12.4,12.4,0,0,1,5.85,1.4c.26.12.12.25.12.25L16.63,8.15a.13.13,0,0,1-.17,0,.14.14,0,0,1,0-.17c.4-.6.28-1.26-.76-1.79a17.8,17.8,0,0,0-4.32-1.48,2.32,2.32,0,0,0-1.47.12C6.36,6.47,3.37,11.23,3.24,16A13.55,13.55,0,0,0,7.89,26.67a7.75,7.75,0,0,0,9.87.21c.08-5.59,2.08-10.22,5.77-11.69a9.12,9.12,0,0,0-.72,1.71c2.4-1.71,3.67-2.62,4.35,1.74a26.17,26.17,0,0,1,4-3.26c.81-.46,1.37-.62,1.42.64a18.19,18.19,0,0,1-.12,2.33s2.69-2.93,3-3.22.58-.32.87-.06.49.41.68.58c.4.36.62.43,1.1.07a9.11,9.11,0,0,0,.79-.73c.27-.27.35.08.21.25A17.39,17.39,0,0,1,37,17.38c-.77.63-1,.74-1.89.39A1.24,1.24,0,0,0,33.69,18.07Zm-9.36.26c-.38-1.13-1-1.3-2.11-.47-1.49,3-2.28,8.82-.73,10.86.4.54.5.59,1.05-.14C24.52,26,25.35,21.23,24.33,18.33Zm77.09,8.75a35.41,35.41,0,0,0-3.33,3.49.46.46,0,0,1-.17.17h0a.47.47,0,0,1-.63-.17,51.52,51.52,0,0,1-3.29-6l-.63,4.89-2.69,2.29.77-5.33S87.34,30.27,87,30.6c-1,1-1.69-.23-1.25-3.4.11-.85.89-7.37,1.08-8.16.52-2.15-1.25-1.09-2.41.68l-1.22,9.59L80.6,31s1.58-11,1.71-11.78c.27-1.7-.24-2.93-2.56-.27.55,3.52-2.51,11.87-6.33,11.87-1.11,0-2.57-1.51-2.5-3.32-2.63,3.62-4.31,4.21-4.72,2.13a11.37,11.37,0,0,1-.1-2.1c-2.43,2.69-4.12,4-4.93,2.17a6.91,6.91,0,0,1-.61-2.08C58,30.2,55.35,31.71,55.7,29.41c.07-.37.77-6.86,1.26-10.27.1-.73-.15-1.05-.74-.66a8.11,8.11,0,0,0-2.31,2.43l-1,8.19-2.66,2s1.45-11,1.52-11.42c.13-.9-.2-1.52-1.73-.51-1.07.72-4.12,3.09-5.25,3.77-.84,2.77-.48,6.08,1.5,6.15,1,0,2.77-1.76,3.07-2s.44.3.26.49c-3.68,3.89-8.38,5.22-7.48-1.68.53-4.06,2.3-8.11,5.94-10.57,1.3-.88,2.65.08,1.23,3.25a32.39,32.39,0,0,1,4-3.17c1-.55,1.45-.36,1.33.77-.06.5-.24,2.1-.36,2.8a30.8,30.8,0,0,1,4.29-3.78c.73-.42,1.38-.36,1.26.79-.07.68-1.48,10.35-1.55,11-.19,1.92,1.37.83,2.31-.46.49-5.62,1.77-8,4-10.43,1.29-1.38,2.35-1.43,3.06-.91A47.73,47.73,0,0,1,70.3,5.58C72,1.62,75.55-.63,79.23.16c-.51.58-1.65,1.93-2.09,2.46-1.38-1.37-3.28-1.16-4.62,1.74-1.82,4-3.75,15.42-3.75,22.72,0,.64.29,1,1,.44a8,8,0,0,0,1.13-1.46c-.17-4.74,2.55-10.21,5.49-11.2a18.41,18.41,0,0,0-1.08,1.94c.58-.44,1.51-1.1,2-1.42s1.18-.48,1.54.15A9.82,9.82,0,0,1,79.67,18c.25-.34,2.1-1.86,2.52-2.25.83-.79,3.24-2.23,2.45,2.14.72-.67,2.7-2.29,3.09-2.54,1.32-.81,2-.66,1.85.56-.06.5-1.21,9.82-1.28,10.46s0,1.05.73.53,1.7-1.39,2.58-2.15c.5-3.74,1.24-10.59,2.57-14.85a14.48,14.48,0,0,1,3.3-6.25C100,.79,102.11.45,104.9.35a33.84,33.84,0,0,0-2.3,3c-2.88-.78-5.33,1.2-6.41,5.13a138,138,0,0,0-2,13.71s2.22-2.34,2.6-2.84c1.08-1.41.87-2.67-1.53-1.84A8.59,8.59,0,0,1,99.13,15c1.47-.46,1.45.47,1.08,1.29a24.68,24.68,0,0,1-4.5,6S98,27.12,98.88,28c0,0,1.61-1.16,2.14-1.58C101.17,26.26,101.66,26.81,101.42,27.08Zm-55-9a25.61,25.61,0,0,0-1.33,3.71,5,5,0,0,0,2.61-3.29h0C48,17.16,46.89,16.94,46.39,18Zm20.37,1.43a6.56,6.56,0,0,0-.44-1.86.86.86,0,0,0-.29-.47h0a.87.87,0,0,0-1.22.13c-1.66,2.08-2.36,6.76-1.53,9.82.55,2,2.89-1.24,2.89-1.4,0-.47.56-5.77.59-6.22Zm10.33-1.14c-.39-1.13-1-1.3-2.12-.47-1.48,3-2.28,8.82-.73,10.86.41.54.51.59,1.05-.14h0C77.27,26,78.09,21.24,77.09,18.33Zm23.28-10v-1h.09a1,1,0,0,1,.24,0,.42.42,0,0,1,.14.09c.09.11.17.22.25.34l.34.5H102l-.28-.45a3,3,0,0,0-.25-.37l-.18-.2a.72.72,0,0,0,.38-.21.22.22,0,0,0,.07-.09.62.62,0,0,0,.08-.33.58.58,0,0,0-.1-.36.53.53,0,0,0-.25-.22,2,2,0,0,0-.54-.07h-1v2.3Zm0-1.9h.7a.26.26,0,0,1,.17.09.26.26,0,0,1,.07.19.34.34,0,0,1,0,.17.26.26,0,0,1-.13.1l-.42,0h-.34Zm.4,2.81a2.05,2.05,0,0,0,.8-.17,1.7,1.7,0,0,0,.35-.19,1.81,1.81,0,0,0,.3-.25,2.51,2.51,0,0,0,.26-.31A2.27,2.27,0,0,0,102.7,8a2,2,0,0,0,.16-.8,2,2,0,0,0-.16-.8,2.37,2.37,0,0,0-.19-.35,1.87,1.87,0,0,0-.26-.3,1.87,1.87,0,0,0-.3-.26,2.37,2.37,0,0,0-.35-.19,2,2,0,0,0-.8-.16,2,2,0,0,0-.8.16,2.37,2.37,0,0,0-.35.19,2.51,2.51,0,0,0-.31.26,1.81,1.81,0,0,0-.25.3,1.7,1.7,0,0,0-.19.35,2,2,0,0,0-.16.8,2,2,0,0,0,.16.8,1.63,1.63,0,0,0,.19.34,2.42,2.42,0,0,0,.25.31,2.42,2.42,0,0,0,.31.25,1.7,1.7,0,0,0,.35.19,2,2,0,0,0,.8.17Zm0-3.94h0a1.88,1.88,0,1,1-1.88,1.88,1.88,1.88,0,0,1,1.88-1.88Z"/></g></g></svg>