<svg xmlns="http://www.w3.org/2000/svg" viewBox="0 0 52.71 31.73"><defs><style>.cls-1{fill:#fff;}.cls-2{fill:#e4a22e;}.cls-3{fill:#e4a22c;}.cls-4{fill:#e4a22d;}.cls-5{fill:#e4a22f;}.cls-6{fill:#e3a22e;}.cls-7{fill:#e5a32f;}.cls-8{fill:#e4a331;}.cls-9{fill:#e5a635;}.cls-10{fill:#efefe5;}</style></defs><g id="圖層_2" data-name="圖層 2"><g id="_0-ui_kits" data-name="0-ui_kits"><g id="logo_beer_modern_times" data-name="logo_beer_modern times"><path id="Path_31680" data-name="Path 31680" class="cls-1" d="M41.44,8.64c0-.15,0-.21-.13-.19-.31,0-.61.09-.92.15a.4.4,0,0,0-.27.22c-.25.39-.5.79-.77,1.16a7.2,7.2,0,0,1-1.81,1.8,10.19,10.19,0,0,1-2.07,1.08,2.94,2.94,0,0,1-1.55.18l-.3,0a1.33,1.33,0,0,1-.88-.51l-.16-.21-.21-.52-.07-.16-.22.14-1,.83a3.65,3.65,0,0,1-.54.32,1.82,1.82,0,0,1-.56.22,2,2,0,0,1-.76-.06.33.33,0,0,1-.23-.23l-.15-.34c0-.17,0-.34-.13-.47s-.12-.21-.28-.13a.65.65,0,0,0-.21.16,3.78,3.78,0,0,1-.76.68,1.86,1.86,0,0,1-1.07.34.74.74,0,0,1-.56-.24,1.41,1.41,0,0,1-.4-.76l0-.09c0-.2,0-.41,0-.61s0-.17-.05-.25l-.14.09a3.2,3.2,0,0,1-1.61.7H23.4a.6.6,0,0,0-.49.17,4.12,4.12,0,0,1-1.46.85A2.41,2.41,0,0,1,20,13a1.12,1.12,0,0,1-.75-.59A2.39,2.39,0,0,1,19,11a4.87,4.87,0,0,1,.78-2.11,6.71,6.71,0,0,1,1.05-1.38,4.67,4.67,0,0,1,2.24-1.42,3,3,0,0,1,1.22,0,1.09,1.09,0,0,1,.89.77,2.46,2.46,0,0,1,0,1.47,8,8,0,0,1-1,2.33c-.05.08-.1.18-.14.26.14.1.16.1.31,0l.16,0a2.4,2.4,0,0,0,.66-.47,2,2,0,0,0,.67-.71,2.29,2.29,0,0,0,.1-.23,4.75,4.75,0,0,1,1-1.46c.21-.22.42-.42.64-.63l.21-.21.3-.26a6.09,6.09,0,0,1,1.23-.66A2.51,2.51,0,0,1,30.48,6a1,1,0,0,1,.71.37c.06.08.13.15.19.22a.39.39,0,0,0,.28-.18c.34-.48.69-1,1-1.45l.2-.29c0-.06,0-.1,0-.12l-.22-.07a16.81,16.81,0,0,0-3.4-.22l-1.37.07h-.3c0-.09.05-.11.1-.13.24-.09.48-.18.73-.25a12.28,12.28,0,0,1,3.36-.47c.62,0,1.24,0,1.86,0a.87.87,0,0,0,.76-.36A9.73,9.73,0,0,1,37.24.81,6,6,0,0,1,38.92.14c.19,0,.39-.06.58-.09l.23,0h.21l.78.19a1.88,1.88,0,0,1,.3.12,1.2,1.2,0,0,1,.55,1.59,3.48,3.48,0,0,1-1.3,1.49,6.75,6.75,0,0,1-1.87.81,10.59,10.59,0,0,1-1.93.36,8.65,8.65,0,0,1-1.25.08.77.77,0,0,0-.62.24c-.16.18-.34.35-.49.54a33.28,33.28,0,0,0-2.34,3.08c-.56.88-1.17,1.72-1.65,2.64-.1.18-.18.38-.27.57a.26.26,0,0,0,.1.36h0a.57.57,0,0,0,.48,0,2.91,2.91,0,0,0,.79-.56c.28-.26.56-.52.83-.79a1.6,1.6,0,0,0,.4-.76A3.65,3.65,0,0,1,33,8.66a6.83,6.83,0,0,1,1.23-1.4A6.26,6.26,0,0,1,36,6.2a2.61,2.61,0,0,1,1.46-.15,1.11,1.11,0,0,1,.92,1.06,2,2,0,0,1-.22,1,3.37,3.37,0,0,1-1.31,1.39l-.72.43a2.75,2.75,0,0,1-1.17.35,7.4,7.4,0,0,1-.82,0,.48.48,0,0,0-.49.37,1,1,0,0,0,.18.92.46.46,0,0,0,.35.3,1.61,1.61,0,0,0,1,.05l1-.27a1.55,1.55,0,0,0,.29-.14,7.56,7.56,0,0,0,2.37-2.06c.17-.22.33-.45.48-.68a1.52,1.52,0,0,0,.24-1.08,1.62,1.62,0,0,1,.11-.75A3.32,3.32,0,0,1,40,6.38q.16-.3.36-.6A2.58,2.58,0,0,1,41.2,5a1,1,0,0,1,.26-.12.33.33,0,0,1,.4.15.82.82,0,0,1,.09.65A1.54,1.54,0,0,1,41.8,6c-.19.36-.39.71-.59,1.06a1,1,0,0,0-.14.42l.17.07a.88.88,0,0,0,.63-.17l.73-.3.45-.18a.94.94,0,0,1,.44,0,.22.22,0,0,1,.24.21.22.22,0,0,1,0,.08.92.92,0,0,1-.1.32,7.13,7.13,0,0,1-1,1.44,8.27,8.27,0,0,0-1,1.37,3.34,3.34,0,0,0-.52,1.21,3.55,3.55,0,0,0,0,.46.3.3,0,0,0,.12.25.28.28,0,0,0,.39.07h0a2.56,2.56,0,0,0,.86-.71c.39-.46.77-.94,1.14-1.43s.53-.71.77-1.08A19.39,19.39,0,0,1,46,7a3.65,3.65,0,0,1,1-.86A1.51,1.51,0,0,1,47.24,6a.69.69,0,0,1,.83.37,1.28,1.28,0,0,1,.1.43A3.24,3.24,0,0,1,48.06,8a.41.41,0,0,0,0,.36l.14-.08.46-.43.41-.38c.13-.13.24-.25.37-.36s.38-.32.58-.48A2.82,2.82,0,0,1,51.4,6a.75.75,0,0,1,.61.19.44.44,0,0,1,.15.3A2,2,0,0,1,52,7.68q-.09.27-.21.54a2.72,2.72,0,0,1-.36.61c-.54.82-1.08,1.65-1.61,2.48a17,17,0,0,0-1.33,2.75,1,1,0,0,0-.05.24l.66.08a2.21,2.21,0,0,1,1,.56,1,1,0,0,1,.29.68,1.45,1.45,0,0,1-.89,1.54,2.11,2.11,0,0,1-1.52.15,1.74,1.74,0,0,1-1.17-1l-.09-.19c0-.13,0-.27,0-.4l0-.21-.52.1-3.75.93a21.18,21.18,0,0,1-2.36.41,24.84,24.84,0,0,1-2.72.18c-.49,0-1,0-1.47,0S35.2,17,34.85,17a8.31,8.31,0,0,1-1.72-.42c-.18-.07-.35-.16-.52-.24l-.34-.11-.11-.06-.56-.5c-.05-.05-.09-.1-.05-.18a.22.22,0,0,1,.21,0,8.18,8.18,0,0,0,2.14.62,14,14,0,0,0,3.1.11c.85-.06,1.71-.13,2.54-.27a36.53,36.53,0,0,0,3.88-.79c.66-.19,1.33-.35,2-.51l1.28-.27a.31.31,0,0,0,.26-.23c.17-.46.37-.91.56-1.37a12.54,12.54,0,0,1,1.3-2.32c.4-.6.81-1.19,1.22-1.78.06-.1.12-.2.19-.3l.07-.13h0l0-.06a1.34,1.34,0,0,0,.36-.81.3.3,0,0,0,0-.1c0-.09-.05-.13-.14-.09a1.26,1.26,0,0,0-.26.13,7.63,7.63,0,0,0-1,.85,20,20,0,0,0-3,3.73,10.65,10.65,0,0,1-.64.86.6.6,0,0,1-.46.21h-.7a.75.75,0,0,1-.29-.09.25.25,0,0,1-.15-.32l0-.05a1,1,0,0,1,.1-.17l1-1.43a14.65,14.65,0,0,0,1.3-2.32l0-.13h0l0,0A1,1,0,0,0,46.74,8a.68.68,0,0,0,0-.4l-.08-.18a.31.31,0,0,0-.31.13c-.23.28-.46.56-.68.85s-.37.5-.55.75l-1.73,2.4a3.67,3.67,0,0,1-.64.72l-.39.34a1.71,1.71,0,0,1-.9.45,2.31,2.31,0,0,1-1,0,1.48,1.48,0,0,1-.64-.37.59.59,0,0,1-.18-.52,3.19,3.19,0,0,1,.49-1.59c.29-.45.6-.88.9-1.32l.09-.15A.81.81,0,0,0,41.44,8.64Zm8.13,7.08a.23.23,0,0,0-.19-.19l-.26-.07-.72-.13c-.16,0-.22,0-.24.13a1.33,1.33,0,0,0,0,.79.36.36,0,0,0,.16.22l.27.12a.93.93,0,0,0,1.08-.26.3.3,0,0,0,.08-.32.35.35,0,0,0-.19-.29Zm-29-4,.31.2L21,12a1.26,1.26,0,0,0,1-.19c.13-.07.14-.16,0-.27L22,11.47a1.38,1.38,0,0,1-.58-.89c0-.2-.07-.4-.11-.6a4.34,4.34,0,0,1,.12-.88,1,1,0,0,0,0-.25c.07-.16.19-.3.14-.51a.74.74,0,0,0-.31.27l-.18.29a4.62,4.62,0,0,0-.6,1.27,2.31,2.31,0,0,0-.05,1.25.57.57,0,0,0,.18.32Zm1.73-1.35.16.24a.4.4,0,0,0,.3.25l.16.1.11-.08.14-.14A6.29,6.29,0,0,0,24.48,8a.83.83,0,0,0-.06-.54.41.41,0,0,0-.18-.32A.39.39,0,0,0,23.72,7h0a1.7,1.7,0,0,0-.44.24,2.86,2.86,0,0,0-1.16,1.91,1.85,1.85,0,0,0,.21,1.26Zm11.9-.86a.68.68,0,0,0,.54,0l.18,0A2.52,2.52,0,0,0,36,9l.1,0a1.29,1.29,0,0,0,.46-.31c.14-.14.27-.3.42-.43a1.3,1.3,0,0,0,.43-.86A.34.34,0,0,0,37.29,7a.25.25,0,0,0-.23-.15,3,3,0,0,0-.51.07,2,2,0,0,0-.81.45c-.34.31-.68.63-1,1a6.17,6.17,0,0,0-.44.57,1.15,1.15,0,0,0-.17.41.18.18,0,0,0,.09.22h0ZM40.52,1a.23.23,0,0,0-.21-.16,1.28,1.28,0,0,0-.39,0,3.62,3.62,0,0,0-1.7.68,3.32,3.32,0,0,1-.36.26A11.06,11.06,0,0,0,36.2,3.1a.61.61,0,0,0-.12.16c0,.1,0,.12.08.18l.1,0A2.17,2.17,0,0,0,37,3.38c.14,0,.29,0,.44,0a5.58,5.58,0,0,0,2.13-1,2.77,2.77,0,0,0,.76-.8,1,1,0,0,0,.1-.24c.14-.1.08-.24.07-.37ZM26.76,11.77c.13.14.26.08.39,0s.25-.12.36-.19a5.64,5.64,0,0,0,1.39-1.23c.38-.49.73-1,1.08-1.5a4.28,4.28,0,0,0,.37-.66,2.13,2.13,0,0,0,.25-.76A.41.41,0,0,0,30.53,7c-.06,0-.1-.13-.16-.14a1,1,0,0,0-.72.1,3.31,3.31,0,0,0-.52.38c-.36.36-.72.73-1.06,1.12a11.43,11.43,0,0,0-1.17,1.81,2.42,2.42,0,0,0-.23.58,1.36,1.36,0,0,0-.06.6.39.39,0,0,0,.15.28Z"/><path id="Path_31681" data-name="Path 31681" class="cls-1" d="M34.18,24.53l-.09-.19-.14.09c-.29.23-.58.46-.88.67a3.09,3.09,0,0,1-1.42.57,2.38,2.38,0,0,1-.84,0,.84.84,0,0,1-.7-.95,1.15,1.15,0,0,1,.08-.41,7.53,7.53,0,0,1,1-2c.28-.38.54-.78.81-1.16a1.74,1.74,0,0,0,.1-.19c.07-.1.14-.19.2-.29a1.26,1.26,0,0,0,.2-.61.19.19,0,0,0-.05-.23.81.81,0,0,0-.32.16,11,11,0,0,0-.92.74c-.46.46-.92.94-1.35,1.44a21.51,21.51,0,0,0-1.68,2.36c-.2.3-.42.58-.64.86a.58.58,0,0,1-.46.22c-.23,0-.45,0-.68,0a.75.75,0,0,1-.32-.1.22.22,0,0,1-.1-.29h0A1.51,1.51,0,0,1,26.1,25c.21-.31.41-.63.64-.93A12.53,12.53,0,0,0,28,22c.13-.26.26-.52.4-.78a1,1,0,0,0,.12-.39.34.34,0,0,0,.06-.12.69.69,0,0,0,0-.49.29.29,0,0,0,0-.1c-.05-.09-.09-.11-.19-.07l-.13.08a7.35,7.35,0,0,0-.85.72,16.69,16.69,0,0,0-2.05,2.39c-.27.39-.51.8-.78,1.19s-.46.63-.7.94a.54.54,0,0,1-.42.21h-.74a.62.62,0,0,1-.23-.07c-.18-.1-.25-.22-.12-.41s.41-.65.64-.95a13.54,13.54,0,0,0,1.44-2.36c.11-.24.23-.47.34-.71l.06-.13a1.12,1.12,0,0,0,.1-.74l-.08-.17a.43.43,0,0,0-.33.18c-.46.61-.93,1.2-1.38,1.81s-1.06,1.48-1.58,2.22a3.3,3.3,0,0,1-2.07,1.36,1.35,1.35,0,0,1-1.31-.36,1.1,1.1,0,0,1-.33-.86,3.49,3.49,0,0,1,.35-1.3A20.63,20.63,0,0,1,20,20.37c.2-.27.39-.54.61-.8a2.79,2.79,0,0,1,.46-.45,1.16,1.16,0,0,1,.75-.3,1,1,0,0,1,.38.07.21.21,0,0,1,.16.26.41.41,0,0,1-.05.09c-.08.13-.17.26-.26.39-.44.59-.88,1.19-1.31,1.79a12.93,12.93,0,0,0-1.24,2,5.62,5.62,0,0,0-.27.72.77.77,0,0,0,0,.3.76.76,0,0,0,.09.18.43.43,0,0,0,.45.05,1.65,1.65,0,0,0,.87-.49,8.5,8.5,0,0,0,1-1.11c.49-.66,1-1.34,1.45-2a11.43,11.43,0,0,1,1.55-1.85,6,6,0,0,1,.65-.47.68.68,0,0,1,.48-.12.67.67,0,0,1,.61.54,2.59,2.59,0,0,1,0,.92c0,.18-.08.36-.12.54a.57.57,0,0,0,0,.13c0,.14,0,.17.18.1l.48-.45.84-.8a4.79,4.79,0,0,1,1-.7,3.24,3.24,0,0,1,.85-.27.69.69,0,0,1,.54.13.49.49,0,0,1,.23.33,1.86,1.86,0,0,1,0,1l-.21.59a1.13,1.13,0,0,1,0,.15c.17-.05.23-.18.34-.27l.37-.35.13-.15,1-.84a3,3,0,0,1,1.41-.61.67.67,0,0,1,.8.51s0,.06,0,.09a2,2,0,0,1-.09.9,4.92,4.92,0,0,1-.7,1.46c-.43.61-.84,1.23-1.25,1.86a3.39,3.39,0,0,0-.29.53.53.53,0,0,0,.08.63c.12.19.29.18.48.13a.87.87,0,0,0,.43-.21c.27-.22.53-.45.78-.68s.28-.26.42-.39a.65.65,0,0,0,.21-.39,4.42,4.42,0,0,1,1-2.28,4.87,4.87,0,0,1,.82-.88,12.3,12.3,0,0,1,1.27-.86,3.12,3.12,0,0,1,1.91-.42,1.14,1.14,0,0,1,1,1.13A2.19,2.19,0,0,1,39.79,21a3.71,3.71,0,0,1-1.58,1.36l-.18.11a2.37,2.37,0,0,1-1.12.4,5,5,0,0,1-1.09.05.28.28,0,0,0-.3.18,1.14,1.14,0,0,0-.11.4,1.36,1.36,0,0,0,.18.68.78.78,0,0,0,.37.3,1.56,1.56,0,0,0,1,.09c.38-.11.77-.2,1.15-.33a4,4,0,0,0,1.1-.66,9.77,9.77,0,0,0,1.68-1.78c.12-.16.24-.33.35-.5a1.07,1.07,0,0,0,.19-.88,2.23,2.23,0,0,1,1-2.1.92.92,0,0,1,.63-.14.34.34,0,0,1,.3.24,1,1,0,0,1,0,.83c-.14.28-.3.56-.46.83a2.6,2.6,0,0,1-.15.28l.13.17.42.29.75.52a2,2,0,0,1,.64,2.14,3.07,3.07,0,0,1-2.41,2.13,3.42,3.42,0,0,1-1.46,0,1.22,1.22,0,0,1-.36-.18.62.62,0,0,1-.22-.66.75.75,0,0,1,.65-.63l.08,0a1.57,1.57,0,0,1,.3,0,.32.32,0,0,1,.24.39.36.36,0,0,1,0,.09l-.13.17c-.11.14-.11.18.06.28a.61.61,0,0,0,.62-.07,2.29,2.29,0,0,0,1.47-1.3,1.15,1.15,0,0,0-.14-1.18l-.08-.07h0c0-.07,0-.1-.11-.11h0l0,0h0a.23.23,0,0,0-.18-.15h0L42.74,22l-.41-.34a1.21,1.21,0,0,0-.14-.1l-.2-.2c-.08.12-.15.21-.21.31a12.09,12.09,0,0,1-1.44,1.89,7.59,7.59,0,0,1-2.67,1.8,4.16,4.16,0,0,1-1.9.36,5.62,5.62,0,0,1-.57-.09,1,1,0,0,1-.55-.34L34.4,25ZM36,22.17a.6.6,0,0,0,.49,0,2.61,2.61,0,0,0,1.17-.44l.09-.05a1.61,1.61,0,0,0,.53-.36c.14-.14.26-.3.41-.43a1.24,1.24,0,0,0,.4-.83.28.28,0,0,0-.06-.36.32.32,0,0,0-.34-.2,1,1,0,0,0-.25.05,2.93,2.93,0,0,0-1.25.7A7.59,7.59,0,0,0,36,21.61a1.14,1.14,0,0,0-.15.36c0,.1,0,.16.16.2Z"/><path id="Path_31682" data-name="Path 31682" class="cls-1" d="M18.75,5.38l.65-.9a.2.2,0,0,0-.25.09l-.84.93c-.6.67-1.2,1.34-1.79,2-.16.17-.29.36-.44.55l-.65.81c-.07.08-.13.17-.19.25-.26.36-.52.7-.77,1.06s-.52.77-.78,1.15c-.06.08-.1.17-.16.24a5.33,5.33,0,0,0-.7,1.11c0,.08-.09.15-.13.23a.2.2,0,0,1-.25.1,1.73,1.73,0,0,1-.11-.6,17.64,17.64,0,0,1,0-2.72,22.71,22.71,0,0,1,.33-2.34c0-.2.06-.41.09-.62L13,5.52c.06-.13.12-.27.17-.41a.65.65,0,0,0,0-.31L13,5,11.53,7.27c-.42.64-.81,1.29-1.24,1.92S9.4,10.43,9,11a4.28,4.28,0,0,1-.4.45c-.1.11-.22.21-.31.32a7.13,7.13,0,0,1-1.5,1.24,4.9,4.9,0,0,1-1.24.6,3.29,3.29,0,0,1-1.58.24,5.59,5.59,0,0,1-1.63-.18,1.92,1.92,0,0,0-.68-.28l-.26-.15h0l0,0-.18-.17a2.3,2.3,0,0,1-.77-1,3.61,3.61,0,0,1-.28-.9A5.81,5.81,0,0,1,0,10.64a3.55,3.55,0,0,1,.46-1.8A3.45,3.45,0,0,1,1.55,7.51a4.07,4.07,0,0,1,1.69-.74,1.82,1.82,0,0,1,.77,0l.39.06A1.71,1.71,0,0,1,5.05,7l.15.11c0,.09-.09.13-.16.11a2.82,2.82,0,0,0-1.38.2.9.9,0,0,0-.27.11,3.79,3.79,0,0,0-1.6,1.76,3.6,3.6,0,0,0-.19.85,2.61,2.61,0,0,0,.16,1.27c0,.12.09.25.14.37l.18.3a1,1,0,0,0,.43.43,1.84,1.84,0,0,0,.84.44,2,2,0,0,0,1.26-.05,3.26,3.26,0,0,0,1.17-.64A18.92,18.92,0,0,0,7.18,11a3.58,3.58,0,0,0,.26-.29c.37-.47.76-.93,1.12-1.4.6-.77,1.2-1.55,1.78-2.34.92-1.24,1.86-2.46,2.85-3.63.34-.41.69-.8,1.05-1.19A8.93,8.93,0,0,1,15.82.78c.09-.07.21-.14.31-.06s.05.2,0,.3a.17.17,0,0,0,0,.05c-.27.6-.53,1.21-.79,1.81a3,3,0,0,0-.17.41c-.21.62-.42,1.25-.62,1.87,0,.1-.05.21-.08.31-.06.28-.12.56-.2.83a13.85,13.85,0,0,0-.43,2.11c0,.25-.09.5-.13.75,0,.1,0,.2,0,.3h0l.15-.2.53-.71c.43-.55.86-1.1,1.3-1.64q1-1.2,2-2.31c.31-.32.6-.66.92-1s.76-.69,1.15-1l.57-.51a3.45,3.45,0,0,1,.28-.26A13.34,13.34,0,0,1,23.29.19a.43.43,0,0,1,.31,0,.24.24,0,0,1,0,.28c-.06.1-.14.2-.2.3C22.51,2,21.62,3.21,20.79,4.49c-.72,1.11-1.38,2.25-2,3.42a15,15,0,0,0-1.08,2.74,3.38,3.38,0,0,0-.1,1,1.23,1.23,0,0,0,.17.53.83.83,0,0,0,.39.37,1.21,1.21,0,0,1,.34.3.41.41,0,0,1-.3.1,3.91,3.91,0,0,1-.68-.06,1.51,1.51,0,0,1-1.13-1.27,5,5,0,0,1,.2-2.07,8.93,8.93,0,0,1,.78-1.86,1.74,1.74,0,0,0,.1-.19l.07-.15,1.1-1.83a.58.58,0,0,0,.05-.14h0Z"/><path id="Path_31683" data-name="Path 31683" class="cls-1" d="M9.94,20.56a2.56,2.56,0,0,0,3,.23,2.28,2.28,0,0,0,.95-1,3.6,3.6,0,0,0,.39-1.32.49.49,0,0,1,.06-.17.12.12,0,0,1,.15.1s0,0,0,0a3.43,3.43,0,0,1,0,.56,4,4,0,0,1-.58,1.85,2.07,2.07,0,0,1-.75.75l-.76.44a1.12,1.12,0,0,1-.31.1,4.73,4.73,0,0,1-1.55.08c-.28,0-.55-.13-.83-.19l-.24-.06L9,21.64l-.08-.07c-.14-.13-.3-.26-.44-.4a4.48,4.48,0,0,1-.36-.4.71.71,0,0,1-.1-.14,7.19,7.19,0,0,1-.44-1.17,3.65,3.65,0,0,1,.12-1.91,4.35,4.35,0,0,1,2.73-2.86,6,6,0,0,1,1.32-.38c.47-.08,1-.14,1.42-.18a8.39,8.39,0,0,1,1.42.06,17,17,0,0,1,3.15.66c1.15.37,2.29.79,3.41,1.25a17.61,17.61,0,0,0,2.55.82,5.8,5.8,0,0,0,1.55.17,4.12,4.12,0,0,0,1.15-.23,1.12,1.12,0,0,0,.75-1.31.93.93,0,0,0-.21-.5.3.3,0,0,0-.15-.21l-.22-.18a.94.94,0,0,0-.51-.22,1.36,1.36,0,0,0-.77.1c-.14.06-.17.12-.15.27a1.46,1.46,0,0,1,0,.55,1,1,0,0,1-.31.51.62.62,0,0,1-.89,0,.55.55,0,0,1-.15-.28.85.85,0,0,1,.14-.74,1.59,1.59,0,0,1,.49-.44A3.67,3.67,0,0,1,26.89,14a1.72,1.72,0,0,1,1.25.85l.14.2s0,0,0,.05,0,.18.05.26a1.68,1.68,0,0,1-.59,1.77,2.93,2.93,0,0,1-1.46.67c-.42.07-.85.13-1.28.17a6.92,6.92,0,0,1-1.57-.11,18.48,18.48,0,0,1-2.4-.64l-.36-.11a.52.52,0,0,0-.59.18,8.73,8.73,0,0,0-.59.77c-.3.45-.58.92-.86,1.38-.65,1.09-1.28,2.2-2,3.23a10.46,10.46,0,0,1-.81,1.05,7.18,7.18,0,0,1-2,1.7,2.35,2.35,0,0,1-1.94.13,1.59,1.59,0,0,1-1-1.18A.29.29,0,0,1,11,24l.12.09a.62.62,0,0,1,.14.14,1.18,1.18,0,0,0,1.31.39,2.57,2.57,0,0,0,.92-.46,6.64,6.64,0,0,0,1.11-1.14,29.81,29.81,0,0,0,2.34-3.37,21.6,21.6,0,0,1,1.45-2.09c.17-.2.35-.39.53-.59l.13-.14.18-.2c0-.13-.1-.16-.19-.18s-.45-.15-.68-.21c-.54-.15-1.08-.32-1.62-.45a13.62,13.62,0,0,0-1.91-.33c-.26,0-.52-.08-.78-.1a6.81,6.81,0,0,0-2.11.18,4.38,4.38,0,0,0-1.91.93,2.7,2.7,0,0,0-.85,1.18,2.93,2.93,0,0,0,0,1.85,2.71,2.71,0,0,0,.21.37.82.82,0,0,0,.09.19c.09.16.18.34.38.39h0Z"/><path id="Path_31684" data-name="Path 31684" class="cls-2" d="M28.3,15.06V15s0-.06.08,0a1.45,1.45,0,0,1,.21.22,1.86,1.86,0,0,1,.21,1.68,1.92,1.92,0,0,1-.63.81,2.79,2.79,0,0,1-.87.46,6.76,6.76,0,0,1-2.1.31,9.14,9.14,0,0,1-2.38-.36l-1.59-.49a.52.52,0,0,0-.65.19,13.57,13.57,0,0,0-1.27,1.89C18.63,20.82,18,22,17.2,23c-.32.44-.63.89-1,1.3a7.13,7.13,0,0,1-1.67,1.48,2.47,2.47,0,0,1-1.91.31,1.59,1.59,0,0,1-.83-.48.12.12,0,0,1,0-.1l.13,0a2.07,2.07,0,0,0,1.7.15,3.26,3.26,0,0,0,1.15-.64,9.67,9.67,0,0,0,1.41-1.45,15.46,15.46,0,0,0,1-1.38c.56-.88,1.11-1.78,1.65-2.68a16.67,16.67,0,0,1,1.36-2.06l.09-.11a.54.54,0,0,1,.56-.16l.82.25c.55.16,1.1.33,1.66.45a10.38,10.38,0,0,0,1.12.14l.45,0A5.17,5.17,0,0,0,26.14,18a6.13,6.13,0,0,0,.87-.21A2.62,2.62,0,0,0,28.23,17a1.78,1.78,0,0,0,.16-1.82A.76.76,0,0,0,28.3,15.06Z"/><path id="Path_31685" data-name="Path 31685" class="cls-3" d="M30.44,12.09a.57.57,0,0,1-.48,0,6.42,6.42,0,0,1,.85-1.67,35.84,35.84,0,0,1,2.11-3.09c.55-.71,1.13-1.41,1.69-2.11a1.07,1.07,0,0,1,.86-.4,11,11,0,0,0,3.78-.64,4.73,4.73,0,0,0,1.8-1.11,3.45,3.45,0,0,0,.61-.81,1.56,1.56,0,0,0,.11-1.08c0-.05,0-.09,0-.13a.67.67,0,0,1,.12.06.83.83,0,0,1,.3.58,1.61,1.61,0,0,1-.22,1,4,4,0,0,1-.9,1,4.92,4.92,0,0,1-1.3.74,8.82,8.82,0,0,1-1.67.47,11.53,11.53,0,0,1-1.94.22,5.09,5.09,0,0,0-.55,0,1.05,1.05,0,0,0-.71.42C34,6.73,33.05,7.82,32.27,9c-.46.7-.91,1.4-1.36,2.11-.16.25-.29.53-.44.8C30.45,12,30.4,12,30.44,12.09Z"/><path id="Path_31686" data-name="Path 31686" class="cls-4" d="M1.36,13.28l.26.15a.71.71,0,0,0,.14.1l.46.21a1.18,1.18,0,0,0,.53.22,8.07,8.07,0,0,0,1.3.13,3.82,3.82,0,0,0,1.46-.19,6,6,0,0,0,1.21-.55,7.69,7.69,0,0,0,1.21-.84,14.73,14.73,0,0,0,1.62-1.82c.66-.93,1.32-1.87,1.93-2.84.43-.69.89-1.38,1.34-2.06l.23-.27-.28,1.22a4.94,4.94,0,0,0-.35.45c-.53.82-1,1.64-1.58,2.45-.41.62-.85,1.21-1.29,1.81a3.47,3.47,0,0,1-.34.42c-.2.21-.41.42-.6.64a7.25,7.25,0,0,1-1.31,1,6.43,6.43,0,0,1-1.67.75,3.76,3.76,0,0,1-1.49.12H3.86a3.1,3.1,0,0,1-1.24-.26,4.77,4.77,0,0,1-1-.57l-.21-.2A.19.19,0,0,1,1.36,13.28Z"/><path id="Path_31687" data-name="Path 31687" class="cls-1" d="M23.56,29.83v.32a1,1,0,0,1-.62,1,1.52,1.52,0,0,1-.59.12c-.32,0-.63,0-1,0s-.27,0-.27-.27V27.78c0-.24.08-.32.31-.32l.95,0a1,1,0,0,1,.93.6l0,.08a2.66,2.66,0,0,1,0,.28,1.2,1.2,0,0,1-.21.76l.13.13ZM22.18,29a1,1,0,0,0,.25,0,.4.4,0,0,0,.38-.41.27.27,0,0,0-.14-.32.22.22,0,0,0-.19-.14L22,28l-.19,0V29h.42Zm0,1.68a.91.91,0,0,0,.49-.07.42.42,0,0,0,.24-.51.29.29,0,0,0-.12-.31.37.37,0,0,0-.32-.15l-.55,0h-.19v1Z"/><path id="Path_31688" data-name="Path 31688" class="cls-3" d="M18.19,12.59a.76.76,0,0,1-.39-.36.41.41,0,0,0,0-.16,4.75,4.75,0,0,1,.45-2.4,24.52,24.52,0,0,1,1.95-3.82c.36-.58.71-1.16,1.09-1.73s.87-1.28,1.32-1.92c.29-.43.59-.85.89-1.28A.55.55,0,0,1,24,.65c.12,0,.17.07.13.18A1.14,1.14,0,0,1,24,1L22.42,3.33Q21.15,5.21,20,7.17c-.15.25-.28.52-.41.79s-.18.36-.28.54a10.46,10.46,0,0,0-1.07,2.82,2.36,2.36,0,0,0,0,1.15A.49.49,0,0,1,18.19,12.59Z"/><path id="Path_31689" data-name="Path 31689" class="cls-1" d="M32,29.88a.11.11,0,0,0-.13-.09h-.38v1.38a.68.68,0,0,1-.56,0,.11.11,0,0,1-.07-.09.61.61,0,0,1,0-.14V27.73c0-.19.07-.26.26-.26h1.2a1,1,0,0,1,.91.72c0,.05,0,.11,0,.17a1.11,1.11,0,0,1-.52,1.23l-.13.1.16.3.06.16a.59.59,0,0,0,.33.33.39.39,0,0,1,.18.37l0,.37a.42.42,0,0,1-.39-.08,2.51,2.51,0,0,1-.66-.72l-.11-.17Zm.66-1.31a.28.28,0,0,0-.13-.31c0-.09-.09-.11-.15-.13a2.73,2.73,0,0,0-.9,0,6.68,6.68,0,0,0,0,1l.13,0h.32c.17,0,.33,0,.49-.08a.3.3,0,0,0,.24-.29,1.21,1.21,0,0,0,0-.19Z"/><path id="Path_31690" data-name="Path 31690" class="cls-1" d="M25.7,29h.73a.71.71,0,0,1,0,.65h-1.4a1.33,1.33,0,0,0,0,.19v.61c0,.08,0,.15.1.17a.55.55,0,0,0,.36,0h1c.12,0,.23,0,.35,0v.6l-.17,0H24.49l-.07,0a.83.83,0,0,1,0-.22c0-1.1,0-2.19,0-3.28a2.29,2.29,0,0,1,0-.25h2c.25,0,.3.05.29.3,0,.09,0,.18,0,.29-.51.06-1,0-1.55,0a1.56,1.56,0,0,0,0,.83s0,0,0,0Z"/><path id="Path_31691" data-name="Path 31691" class="cls-1" d="M28.82,29a3.52,3.52,0,0,1,.86.05v.58a13.85,13.85,0,0,1-1.44,0,.45.45,0,0,0,0,.16v.63c0,.07,0,.17.11.16a.5.5,0,0,0,.34,0,11.64,11.64,0,0,1,1.32,0,5.71,5.71,0,0,1,0,.59l-.25,0h-1.9l-.25,0V27.48l.24,0,1.73,0h.14a.13.13,0,0,1,.12.13.87.87,0,0,1,0,.48H28.22v.73c0,.06,0,.11.08.11Z"/><path id="Path_31692" data-name="Path 31692" class="cls-5" d="M46.75,15.71l.06.4-1.22.3-1.35.34c-.83.19-1.65.39-2.48.56-.41.08-.83.11-1.24.17a18.7,18.7,0,0,1-2.36.15l-.47,0a11.94,11.94,0,0,1-2.23-.14,8.41,8.41,0,0,1-2.34-.65,2.52,2.52,0,0,1-.68-.38.33.33,0,0,1-.11-.15l.16,0,.41.18a4.56,4.56,0,0,0,1.29.43l1.76.3.25,0a15.83,15.83,0,0,0,1.95,0c.29,0,.58,0,.86,0a23.22,23.22,0,0,0,3.81-.58c1.1-.25,2.19-.52,3.28-.82C46.31,15.79,46.53,15.76,46.75,15.71Z"/><path id="Path_31693" data-name="Path 31693" class="cls-5" d="M9.89,20.5c-.2-.06-.28-.24-.38-.4l-.09-.19c0-.13-.05-.26-.08-.38a2.91,2.91,0,0,1-.05-1.28,2.28,2.28,0,0,1,.49-1.11,3.91,3.91,0,0,1,2-1.27c.36-.1.73-.14,1.09-.22a4.26,4.26,0,0,1,.87-.07,11.67,11.67,0,0,1,1.78.17,11.66,11.66,0,0,1,1.56.32c.72.18,1.43.4,2.14.6l-.18.2-.27-.08q-.75-.22-1.5-.42A18.35,18.35,0,0,0,15.36,16a7.57,7.57,0,0,0-1.64-.1,5.8,5.8,0,0,0-2.52.63,3.36,3.36,0,0,0-1.38,1.34,1.19,1.19,0,0,0-.08.16,3,3,0,0,0-.11,1.64,2.55,2.55,0,0,0,.25.7A.28.28,0,0,1,9.89,20.5Z"/><path id="Path_31694" data-name="Path 31694" class="cls-3" d="M18.72,5.42a.66.66,0,0,1,0,.15L17.58,7.4l-.11.11c-.29.33-.58.65-.85,1s-.4.54-.61.79a11,11,0,0,0-.66.91l-.08.11a13.25,13.25,0,0,0-1.1,1.56c-.35.49-.66,1-1,1.53l-.08.1c-.1.09-.18.06-.23-.07A.62.62,0,0,1,13,12.9c.18-.27.31-.57.49-.83.85-1.24,1.71-2.46,2.63-3.64.47-.59.94-1.16,1.43-1.72l.6-.65.4-.45Z"/><path id="Path_31695" data-name="Path 31695" class="cls-3" d="M41.44,8.64a.89.89,0,0,1-.29.49.39.39,0,0,0-.53.2c-.14.22-.27.46-.43.68a11.91,11.91,0,0,1-1.09,1.37,6.41,6.41,0,0,1-1.38,1.11,9.47,9.47,0,0,1-1.74.88,3.18,3.18,0,0,1-1.67.18c-.11,0-.23,0-.34-.06a1,1,0,0,1-.65-.45l.13,0,.66.15a1.3,1.3,0,0,0,.34,0A5,5,0,0,0,35.83,13a9.66,9.66,0,0,0,2.25-1.29,7.53,7.53,0,0,0,1.59-1.74c.19-.29.38-.57.56-.87a.65.65,0,0,1,.52-.34Z"/><path id="Path_31696" data-name="Path 31696" class="cls-3" d="M50.68,7.4a1.43,1.43,0,0,1-.36.81l0,.06h0l-.11.07L50,8.47c-.44.45-.89.87-1.3,1.34s-.7.9-1,1.37-.52.73-.77,1.1l-.14.25a3.62,3.62,0,0,1-.22.32l-.32.39a.62.62,0,0,1-.37.24,2.2,2.2,0,0,1-1,0,.31.31,0,0,1-.26-.3h.32l.56,0a.61.61,0,0,0,.42-.23,8.31,8.31,0,0,0,.71-1,18.2,18.2,0,0,1,1.74-2.43,12.77,12.77,0,0,1,1.74-1.71A6,6,0,0,1,50.68,7.4Z"/><path id="Path_31697" data-name="Path 31697" class="cls-4" d="M46.74,7.59a.68.68,0,0,1,0,.4.93.93,0,0,1-.18.45l0,0h0a1.29,1.29,0,0,0-.17.16c-.75,1-1.51,2.06-2.25,3.1a6,6,0,0,1-.84,1,6.36,6.36,0,0,1-.57.46A2.17,2.17,0,0,1,41,13.6a1,1,0,0,1-.69-.46l.13,0a1.8,1.8,0,0,0,1,.1,2.48,2.48,0,0,0,1.31-.68,5.06,5.06,0,0,0,.84-.95c.54-.77,1.1-1.53,1.65-2.28l1-1.34a1.19,1.19,0,0,1,.47-.43Z"/><path id="Path_31698" data-name="Path 31698" class="cls-3" d="M32.53,20a1.28,1.28,0,0,1-.21.61,2.4,2.4,0,0,1-.19.29c-.09,0-.14,0-.19.11a16.77,16.77,0,0,0-2.81,3.31c-.15.24-.29.48-.45.71s-.42.55-.63.82a.54.54,0,0,1-.42.21c-.26,0-.52,0-.77,0a.54.54,0,0,1-.25-.09c-.1-.05-.11-.08-.09-.24h.27c.13,0,.27,0,.4,0a.71.71,0,0,0,.6-.28,9,9,0,0,0,.85-1.2,17.57,17.57,0,0,1,2.85-3.47,6.15,6.15,0,0,1,.95-.73Z"/><path id="Path_31699" data-name="Path 31699" class="cls-4" d="M25,20.21a1.12,1.12,0,0,1-.1.74l-.06.13c-.11,0-.16.1-.21.17l-1,1.33-1.54,2.16A3.26,3.26,0,0,1,20,26.13a1.3,1.3,0,0,1-1.3-.41l0,0v0l.13,0a1.46,1.46,0,0,0,1,.07A3.13,3.13,0,0,0,21.26,25a6.76,6.76,0,0,0,.54-.64l2-2.76a10.63,10.63,0,0,1,.86-1.14A.76.76,0,0,1,25,20.21Z"/><path id="Path_31700" data-name="Path 31700" class="cls-6" d="M40.9,24l-.09,0a.74.74,0,0,0-.64.63,1,1,0,0,0-.17.1,7.68,7.68,0,0,1-1.34.83c-.26.11-.52.23-.79.33a3.8,3.8,0,0,1-1.42.26,3.13,3.13,0,0,1-1-.18.9.9,0,0,1-.46-.38l.13,0a2.79,2.79,0,0,0,1.62.13,5.94,5.94,0,0,0,2-.8,7.87,7.87,0,0,0,1.57-1.18,6.09,6.09,0,0,0,.53-.61c.31-.4.6-.81.9-1.21.08-.11.15-.23.22-.35s.07-.12.15-.14l.15.1.4.34a.79.79,0,0,1,.12.15L42.71,22l-.24-.18-.14.2c-.12.19-.24.38-.38.57l-.65.85Z"/><path id="Path_31701" data-name="Path 31701" class="cls-3" d="M49.14,14.38l-.65-.08h.19l.07-.15A16.73,16.73,0,0,1,50.2,11.2c.43-.7.9-1.38,1.37-2.06a4.3,4.3,0,0,0,.61-1.21c0-.15.08-.3.13-.45a1,1,0,0,0,0-.56,2.45,2.45,0,0,1,0-.27.22.22,0,0,1,.23.13.8.8,0,0,1,.14.4,2.24,2.24,0,0,1-.2,1.11c-.06.13-.11.28-.16.42a3.81,3.81,0,0,1-.4.71c-.27.38-.51.77-.76,1.16s-.6.88-.87,1.33a18.07,18.07,0,0,0-1.14,2.34A.61.61,0,0,0,49.14,14.38Z"/><path id="Path_31702" data-name="Path 31702" class="cls-4" d="M28.62,20.22a.64.64,0,0,1,0,.49l-.06.13c-.12.09-.24.17-.34.26a17.38,17.38,0,0,0-2.61,3.07c-.18.27-.35.55-.54.82s-.43.59-.65.88a.53.53,0,0,1-.41.22,8.19,8.19,0,0,1-.86,0,.36.36,0,0,1-.33-.31h.74a.73.73,0,0,0,.59-.3c.53-.63.92-1.34,1.38-2A19.27,19.27,0,0,1,27,21.59a9,9,0,0,1,1.37-1.25Z"/><path id="Path_31703" data-name="Path 31703" class="cls-4" d="M14.44,8.56l-.53.71c0-.21,0-.42.08-.63.1-.57.21-1.13.33-1.69.07-.33.2-.64.25-1A10.06,10.06,0,0,1,15,4.38c.13-.34.22-.69.36-1,.26-.63.54-1.26.82-1.89a.37.37,0,0,1,.27-.24c.15,0,.24,0,.19.18a4.24,4.24,0,0,1-.18.5c-.26.6-.53,1.19-.78,1.79-.13.32-.21.66-.32,1s-.11.36-.18.53a4.2,4.2,0,0,0-.26.92,6.24,6.24,0,0,1-.22.85,11.57,11.57,0,0,0-.3,1.42A.86.86,0,0,0,14.44,8.56Z"/><path id="Path_31704" data-name="Path 31704" class="cls-4" d="M34.22,11.85a.45.45,0,0,1-.35-.3c0-.17,0-.33,0-.5a.63.63,0,0,1,.18-.5.33.33,0,0,1,.29-.12,2.55,2.55,0,0,0,.78,0,3,3,0,0,0,1.1-.28L37,9.69l.3-.19a3.07,3.07,0,0,0,1.12-1.3,1.77,1.77,0,0,0,.16-1.15.71.71,0,0,1,0-.15.35.35,0,0,1,.26.21,1.29,1.29,0,0,1,.12.77,2.81,2.81,0,0,1-.75,1.46,4.24,4.24,0,0,1-1.19.87l-.16.09a2.49,2.49,0,0,1-1.28.46,7.87,7.87,0,0,1-.84,0,.49.49,0,0,0-.54.45v.1A4.33,4.33,0,0,0,34.22,11.85Z"/><path id="Path_31705" data-name="Path 31705" class="cls-4" d="M36,24.46a.69.69,0,0,1-.37-.3.74.74,0,0,0,0-.21,1.14,1.14,0,0,1,0-.55c.09-.27.22-.37.51-.32a1.35,1.35,0,0,0,.49,0l.73-.1a2.17,2.17,0,0,0,.91-.39.87.87,0,0,1,.18-.11,3.39,3.39,0,0,0,1.05-.74,2.62,2.62,0,0,0,.84-1.58,1.47,1.47,0,0,0-.06-.59,1.23,1.23,0,0,1-.05-.13,1,1,0,0,1,.45.77,2,2,0,0,1-.18.9,3.07,3.07,0,0,1-1.08,1.31c-.36.24-.73.46-1.1.68a2.54,2.54,0,0,1-1,.29l-.59.06a1.3,1.3,0,0,1-.34,0c-.27,0-.41.05-.47.32a1.35,1.35,0,0,0,0,.4A2.87,2.87,0,0,0,36,24.46Z"/><path id="Path_31706" data-name="Path 31706" class="cls-2" d="M9,21.64l.47.29.32.18a4.38,4.38,0,0,0,2.24.19A3.78,3.78,0,0,0,14,21.11a4.31,4.31,0,0,0,.26-.47,5.29,5.29,0,0,0,.42-1.35c0-.11,0-.22.06-.33a1,1,0,0,1,.07-.23.39.39,0,0,1,.18.33,3.26,3.26,0,0,1-.22,1.51,2.36,2.36,0,0,0-.12.28,2.45,2.45,0,0,1-1.15,1.32l-.57.32a1,1,0,0,1-.24.09,4.47,4.47,0,0,1-2.15,0,3.38,3.38,0,0,1-1.45-.79C9,21.77,9,21.73,9,21.64Z"/><path id="Path_31707" data-name="Path 31707" class="cls-3" d="M19.76,24.68a.43.43,0,0,1-.45-.05s.05-.05.05-.08a2,2,0,0,1,.21-.72,12.71,12.71,0,0,1,1.33-2.21c.52-.7,1-1.41,1.54-2.11l.11-.15.16,0a.24.24,0,0,1,.14.3s0,.05,0,.06c-.39.56-.8,1.11-1.19,1.66s-.71,1-1,1.49-.48.87-.71,1.31A.93.93,0,0,0,19.76,24.68Z"/><path id="Path_31708" data-name="Path 31708" class="cls-7" d="M2.52,12.53a1,1,0,0,1-.42-.43C2,12,2,11.9,1.91,11.8a.2.2,0,0,0,0-.22c0-.18-.09-.36-.14-.54s0-.07,0-.11a3.2,3.2,0,0,1,.61-2.16,4.3,4.3,0,0,1,1.07-1A3.16,3.16,0,0,1,4.9,7.38a1.15,1.15,0,0,1,.78.24c0,.11,0,.15-.15.13A3.35,3.35,0,0,0,4,8,.39.39,0,0,0,3.92,8,4.63,4.63,0,0,0,2.75,9a3.12,3.12,0,0,0-.65,1.62,2.93,2.93,0,0,0,.34,1.69C2.47,12.41,2.49,12.47,2.52,12.53Z"/><path id="Path_31709" data-name="Path 31709" class="cls-4" d="M32.27,24.77a.38.38,0,0,1-.48-.13.14.14,0,0,0,0-.07,1,1,0,0,1,.21-.7l1.07-1.62c.09-.14.19-.27.29-.41a5.18,5.18,0,0,0,.76-1.59,1.26,1.26,0,0,0,.06-.61c0-.12,0-.24,0-.38a.5.5,0,0,1,.33.36,1.64,1.64,0,0,1,0,.88c-.07.17-.11.34-.17.51a4.46,4.46,0,0,1-.52,1c-.49.69-1,1.4-1.41,2.11a2.21,2.21,0,0,0-.18.34,2.61,2.61,0,0,0-.06.27Z"/><path id="Path_31710" data-name="Path 31710" class="cls-2" d="M44.68,22.07a1.28,1.28,0,0,1,.41.61,2.45,2.45,0,0,1,0,1.26,2.57,2.57,0,0,1-.38.78,3,3,0,0,1-2.12,1.4l-.46.07h-.09c-.31-.05-.63-.09-1-.16a.55.55,0,0,1-.4-.35,5.36,5.36,0,0,1,.6.1,2.07,2.07,0,0,0,.86,0,3.3,3.3,0,0,0,1.9-1,1.16,1.16,0,0,0,.2-.24,3.12,3.12,0,0,0,.53-1.12,2.31,2.31,0,0,0-.13-1.3.13.13,0,0,1,0-.1Z"/><path id="Path_31711" data-name="Path 31711" class="cls-3" d="M41.62,12.27a.29.29,0,0,1-.4,0h0a4.2,4.2,0,0,1,.2-.92A5.33,5.33,0,0,1,42,10.23l.52-.78a1,1,0,0,1,.12-.17,7.16,7.16,0,0,0,1.22-1.72l.09-.14,0,0c.24,0,.34.12.27.34a1.28,1.28,0,0,1-.14.34l-.63,1-.19.24a8.94,8.94,0,0,0-1.43,2.13,1.91,1.91,0,0,0-.21.74A.34.34,0,0,0,41.62,12.27Z"/><path id="Path_31712" data-name="Path 31712" class="cls-2" d="M25.38,11.37V12l-.25.1a2.31,2.31,0,0,1-.92.33,1.5,1.5,0,0,1-.37,0,.5.5,0,0,0-.42.15,4.59,4.59,0,0,1-1.54.9l-.22.05a3.78,3.78,0,0,1-1,0,1.41,1.41,0,0,1-.78-.41l-.07-.09.14,0a2,2,0,0,0,1.38.1,3.76,3.76,0,0,0,1.66-.88.72.72,0,0,1,.55-.21,1.82,1.82,0,0,0,.8-.16c.25-.11.5-.23.74-.36A1.64,1.64,0,0,0,25.38,11.37Z"/><path id="Path_31713" data-name="Path 31713" class="cls-7" d="M23.57,29.83l-.27-.5a1.08,1.08,0,0,0,.13-1.13c.07,0,.11,0,.14.07a1,1,0,0,1,.22,1.08c0,.11-.09.22-.14.33l.12.17a1.22,1.22,0,0,1,0,1.44.84.84,0,0,1-.57.36,5.06,5.06,0,0,1-.53.06h-.81c-.26,0-.3-.06-.26-.34h.18c.33,0,.66,0,1-.05a1,1,0,0,0,.89-1,1.29,1.29,0,0,0,0-.39A.54.54,0,0,0,23.57,29.83Z"/><path id="Path_31714" data-name="Path 31714" class="cls-7" d="M50.5,15.34a.8.8,0,0,1,.33.35,1.45,1.45,0,0,1-.26,1.64,1.42,1.42,0,0,1-.58.39c-.14,0-.28.1-.42.13A2,2,0,0,1,48,17.59a.8.8,0,0,1-.31-.32l.11,0a2.11,2.11,0,0,0,2,0,1.49,1.49,0,0,0,.75-1.88Z"/><path id="Path_31715" data-name="Path 31715" class="cls-7" d="M34.18,24.52l.23.48c-.36.26-.7.52-1.07.76a2.85,2.85,0,0,1-1.56.46,1.69,1.69,0,0,1-.66-.13.73.73,0,0,1-.41-.36.42.42,0,0,1,.13,0,2.33,2.33,0,0,0,.83.09,2.93,2.93,0,0,0,1.49-.54c.27-.19.54-.38.8-.58A1.45,1.45,0,0,0,34.18,24.52Z"/><path id="Path_31716" data-name="Path 31716" class="cls-8" d="M32.89,4.68l-.2.29L32,4.86a18.19,18.19,0,0,0-2.45-.07l-.7,0h-.66a.25.25,0,0,1-.15,0l.18-.09c.2-.08.41-.15.61-.21a1.59,1.59,0,0,1,.48-.07c.71,0,1.42,0,2.13.05C31.93,4.51,32.41,4.61,32.89,4.68Z"/><path id="Path_31717" data-name="Path 31717" class="cls-7" d="M32.38,11.77l.2.52-1.07.86a2.27,2.27,0,0,1-.63.34l-.17.06a1.33,1.33,0,0,1-1,0,.46.46,0,0,1-.3-.32h.13a3.85,3.85,0,0,0,.48,0,.85.85,0,0,0,.31-.06,3.54,3.54,0,0,0,1-.6c.21-.19.44-.36.66-.55S32.27,11.87,32.38,11.77Z"/><path id="Path_31718" data-name="Path 31718" class="cls-7" d="M25.17,10.33a2.56,2.56,0,0,1-.66.47l-.17,0,.26-.45a7.73,7.73,0,0,0,.85-2.23A2.27,2.27,0,0,0,25.38,7a.46.46,0,0,1,0-.2A1.85,1.85,0,0,1,25.5,7a1.51,1.51,0,0,1,.29.87,3.48,3.48,0,0,1-.24,1.46c-.1.27-.21.54-.32.81Z"/><path id="Path_31719" data-name="Path 31719" class="cls-8" d="M26.6,14.66l.22.18a.29.29,0,0,1,.14.21A1.93,1.93,0,0,0,26.1,15a.59.59,0,0,0-.23,0,.26.26,0,0,0-.2.29,3.38,3.38,0,0,1,0,.45,1,1,0,0,1-.37.66.66.66,0,0,1-.81,0c-.07-.06-.08-.07-.11-.21h.19a.58.58,0,0,0,.52-.22,1,1,0,0,0,.25-.89c0-.22,0-.3.21-.4a1.54,1.54,0,0,1,.85,0Z"/><path id="Path_31720" data-name="Path 31720" class="cls-2" d="M28.71,12c.13.13.11.3.13.47l-.43.35c-.14.12-.25.24-.38.34a1.89,1.89,0,0,1-1.11.41.66.66,0,0,1-.56-.22l-.18-.19h.12a1.09,1.09,0,0,0,.69,0,2.51,2.51,0,0,0,1.17-.72l.24-.26A.5.5,0,0,1,28.71,12Z"/><path id="Path_31721" data-name="Path 31721" class="cls-9" d="M25.7,29h-.61l0-.21v-.32a.18.18,0,0,1,.16-.21h1.44l.05-.23h.15A.1.1,0,0,1,27,28a1.06,1.06,0,0,1,.05.31c0,.2-.08.23-.28.23H25.5l-.05.33Z"/><path id="Path_31722" data-name="Path 31722" class="cls-7" d="M41.87,7.4a.89.89,0,0,1-.63.18c.2-.38.4-.77.61-1.14a1.52,1.52,0,0,0,.27-1s0,0,0,0,.16,0,.2.1a.76.76,0,0,1,.12.65,2.5,2.5,0,0,1-.15.38C42.17,6.83,42,7.12,41.87,7.4Z"/><path id="Path_31723" data-name="Path 31723" class="cls-9" d="M26.89,31.35l.05-.26h0c.24,0,.3,0,.3.26a1.5,1.5,0,0,1-.05.37H25.08c-.25,0-.29-.05-.23-.33C25.52,31.34,26.2,31.38,26.89,31.35Z"/><path id="Path_31724" data-name="Path 31724" class="cls-9" d="M30.07,31.37l.09-.31.27,0a3,3,0,0,1,0,.6l-.25,0H28.25l-.21,0v-.32Z"/><path id="Path_31725" data-name="Path 31725" class="cls-8" d="M28.82,29l-.52,0q0-.33,0-.69l.3,0h1.28L30,28l.29,0v.57l-.24,0H28.88c-.2,0-.23,0-.23.23,0,0,0,.08,0,.12Z"/><path id="Path_31726" data-name="Path 31726" class="cls-6" d="M25.48,30.57a.55.55,0,0,1-.36,0c0-.2,0-.41,0-.61v-.21H26.6l0-.26s0,0,0,0c.26,0,.3,0,.31.26v.09c0,.25,0,.29-.3.29H25.53A.64.64,0,0,0,25.48,30.57Z"/><path id="Path_31727" data-name="Path 31727" class="cls-5" d="M28.66,30.57a.5.5,0,0,1-.34,0v-.81l.21,0h1l.28,0,0-.25h.28v.59a11.65,11.65,0,0,1-1.45.05A3.49,3.49,0,0,0,28.66,30.57Z"/><path id="Path_31728" data-name="Path 31728" class="cls-7" d="M43.22,20.8l-.42-.29a.4.4,0,0,0,.1-.12l.51-.89a1,1,0,0,0,.14-.55v-.23a.25.25,0,0,1,.27.2,1,1,0,0,1,0,.79l-.46.89Z"/><path id="Path_31729" data-name="Path 31729" class="cls-7" d="M33.11,30.49a.55.55,0,0,1-.33-.32L32.72,30l0-.05c0-.14.06-.19.16-.26a1.1,1.1,0,0,0,.28-.29,1.09,1.09,0,0,0,.14-1,1.11,1.11,0,0,1,0-.17.9.9,0,0,1,.4.84,1.43,1.43,0,0,1-.07.46,1,1,0,0,1-.45.56.18.18,0,0,0-.1.23A.63.63,0,0,1,33.11,30.49Z"/><path id="Path_31730" data-name="Path 31730" class="cls-7" d="M32,29.89l.14.38-.2,0v1.4a1.06,1.06,0,0,1-.61,0v-.27l.12,0c.14,0,.16,0,.17-.18s0-.27,0-.41,0-.5,0-.75c0-.07,0-.1.11-.11Z"/><path id="Path_31731" data-name="Path 31731" class="cls-1" d="M37.26,29.46c0-.12.07-.24.11-.36s.05-.15.24-.12l-.33,1L37,29.34l-.32.67-.32-1,.1,0h.1l.17.55.28-.58.25.54Z"/><path id="Path_31732" data-name="Path 31732" class="cls-1" d="M13.61,29l0,1h-.19v-.47h0l-.27.38-.28-.39a1.1,1.1,0,0,0,0,.36c0,.1,0,.14-.15.13a3.18,3.18,0,0,1,0-1l.44.63.42-.62Z"/><path id="Path_31733" data-name="Path 31733" class="cls-1" d="M38.49,29.52V29l.19,0v1c-.21-.14-.36-.33-.59-.5v.5h-.21v-1C38.1,29.12,38.27,29.31,38.49,29.52Z"/><path id="Path_31734" data-name="Path 31734" class="cls-1" d="M36.09,29.46a.49.49,0,0,1-.49.5h0a.49.49,0,0,1-.49-.49h0a.49.49,0,0,1,.47-.51h.07a.46.46,0,0,1,.46.48Zm-.19.05a1.39,1.39,0,0,0,0-.15.29.29,0,0,0-.26-.25c-.12,0-.21,0-.29.18a.35.35,0,0,0,0,.39.27.27,0,0,0,.36.09l.05,0A1,1,0,0,0,35.9,29.51Z"/><path id="Path_31735" data-name="Path 31735" class="cls-1" d="M16.3,30a.49.49,0,0,1-.51-.48v0a.49.49,0,0,1,.49-.49h0a.46.46,0,0,1,.48.43.09.09,0,0,1,0,.07.48.48,0,0,1-.44.51ZM16,29.44a.34.34,0,0,0,.27.36.31.31,0,0,0,.33-.25.5.5,0,0,0,0-.27.28.28,0,0,0-.3-.18.32.32,0,0,0-.26.24s0,.07,0,.1Z"/><path id="Path_31736" data-name="Path 31736" class="cls-8" d="M19,13.45a1.12,1.12,0,0,1-.26.08,2.09,2.09,0,0,1-1-.16,1.16,1.16,0,0,1-.5-.43l.12,0a2.09,2.09,0,0,0,1.18.17A.39.39,0,0,1,19,13.45Z"/><path id="Path_31737" data-name="Path 31737" class="cls-1" d="M40.07,28.94c.17,0,.34,0,.51.06a.41.41,0,0,1,.32.41.47.47,0,0,1-.28.49.83.83,0,0,1-.54,0A4.78,4.78,0,0,1,40.07,28.94Zm.17.84a.35.35,0,0,0,.42-.52.37.37,0,0,0-.42-.12Z"/><path id="Path_31738" data-name="Path 31738" class="cls-5" d="M26.88,20.43l-.48.45c0-.19.05-.38.09-.58a2.2,2.2,0,0,0,0-.92,1.05,1.05,0,0,1,0-.12.64.64,0,0,1,.36.45,1.73,1.73,0,0,1,0,.64A.19.19,0,0,0,26.88,20.43Z"/><path id="Path_31739" data-name="Path 31739" class="cls-9" d="M48.68,7.79l-.46.44c0-.18,0-.36.07-.53a2.16,2.16,0,0,0,0-1V6.64l0,0a.6.6,0,0,1,.34.46,2.4,2.4,0,0,1,0,.37C48.68,7.57,48.68,7.68,48.68,7.79Z"/><path id="Path_31740" data-name="Path 31740" class="cls-1" d="M18.16,29h.58a.22.22,0,0,1,0,.08v.09h-.39v.22h.34l0,.18h-.36v.25h.4v.16h-.59Z"/><path id="Path_31741" data-name="Path 31741" class="cls-1" d="M39.28,29.12v.22h.34l0,.18-.36,0v.23h.36v.17h-.55V29h.55a.64.64,0,0,1,0,.07s0,.06,0,.09Z"/><path id="Path_31742" data-name="Path 31742" class="cls-1" d="M12.25,29.52h-.34v.25h.38l0,.18h-.6V29h.58l0,.16H11.9l0,.22h.37Z"/><path id="Path_31743" data-name="Path 31743" class="cls-1" d="M19.71,29a.22.22,0,0,1,0,.08.28.28,0,0,1,0,.09h-.4v.21h.35l0,.18h-.37v.25h.39V30h-.58a4.68,4.68,0,0,1,0-1Z"/><path id="Path_31744" data-name="Path 31744" class="cls-1" d="M14.2,29.65v.26l-.13.05a3.29,3.29,0,0,1,0-1,.66.66,0,0,1,.48,0,.3.3,0,0,1,.16.31.3.3,0,0,1-.19.28A1.5,1.5,0,0,1,14.2,29.65Zm0-.18a.22.22,0,0,0,.26-.12.18.18,0,0,0-.06-.19.15.15,0,0,0-.2,0Z"/><path id="Path_31745" data-name="Path 31745" class="cls-9" d="M30.86,20.1c0,.06-.09.11-.13.16l-.38.35,0-.14a2.6,2.6,0,0,0,.11-1.07v-.09a0,0,0,0,1,0,0,.42.42,0,0,1,.31.33c0,.1,0,.2,0,.3A1.21,1.21,0,0,0,30.86,20.1Z"/><path id="Path_31746" data-name="Path 31746" class="cls-1" d="M17.86,29c-.07.1-.12.21-.19.3a.67.67,0,0,0-.14.49.17.17,0,0,1,0,.1.16.16,0,0,1-.1.08.07.07,0,0,1-.09-.05s0,0,0,0a.48.48,0,0,1,0-.12.67.67,0,0,0-.13-.44A2.31,2.31,0,0,1,17,29l.2,0,.24.39.15-.25C17.66,29,17.66,29,17.86,29Z"/><path id="Path_31747" data-name="Path 31747" class="cls-9" d="M33.65,31.73a1,1,0,0,1-.65-.41l.3.07c.11-.14.06-.31.11-.45C33.75,31,33.85,31.34,33.65,31.73Z"/><path id="Path_31748" data-name="Path 31748" class="cls-1" d="M15.16,29.78h.43V30A5.76,5.76,0,0,1,15,30V29h.16Z"/><path id="Path_31749" data-name="Path 31749" class="cls-10" d="M50.19,8.33l.11-.07-.08.13Z"/><path id="Path_31750" data-name="Path 31750" class="cls-10" d="M17.46,7.51l.11-.11-.07.15Z"/><path id="Path_31751" data-name="Path 31751" class="cls-5" d="M9.94,20.56l0-.07Z"/><path id="Path_31752" data-name="Path 31752" class="cls-4" d="M1.33,13.25l0,0Z"/><path id="Path_31753" data-name="Path 31753" class="cls-3" d="M18.75,5.38l0,0Z"/><path id="Path_31754" data-name="Path 31754" class="cls-3" d="M30.6,7.43a.83.83,0,0,0-.57.16,10.57,10.57,0,0,0-1,.9,11.29,11.29,0,0,0-1.62,2.31,5.24,5.24,0,0,0-.28.69.39.39,0,0,0,0,.28c-.13.08-.26.13-.39,0l0-.19a2.24,2.24,0,0,1,.07-.51,4.26,4.26,0,0,1,.36-.82A10.59,10.59,0,0,1,28.77,8.1a7.69,7.69,0,0,1,.95-.85.93.93,0,0,1,.46-.18l.35,0A.37.37,0,0,1,30.6,7.43Z"/><path id="Path_31755" data-name="Path 31755" class="cls-4" d="M40.45,1.32l-.31,0A3.89,3.89,0,0,0,38.65,2l-.75.53a4.87,4.87,0,0,0-.88.82,2.14,2.14,0,0,1-.75.08l-.11,0,.13-.07.59-.54c.25-.22.5-.44.77-.64s.52-.38.79-.56a7.07,7.07,0,0,1,.76-.43A3,3,0,0,1,40.53,1C40.53,1.08,40.6,1.22,40.45,1.32Z"/><path id="Path_31756" data-name="Path 31756" class="cls-2" d="M37.37,7.39a1,1,0,0,0-.49.12,3.33,3.33,0,0,0-.9.59,7.77,7.77,0,0,0-1.09,1.2,1.43,1.43,0,0,0-.12.21.68.68,0,0,1-.54,0,.39.39,0,0,0,.08-.1,5.64,5.64,0,0,1,.31-.53,6.56,6.56,0,0,1,1-1.1A2.66,2.66,0,0,1,37.3,7,.35.35,0,0,1,37.37,7.39Z"/><path id="Path_31757" data-name="Path 31757" class="cls-7" d="M24.42,7.46a1.11,1.11,0,0,0-.65.27,3.18,3.18,0,0,0-1.09,1.6,2.21,2.21,0,0,0,.05,1.37c0,.06,0,.12.05.19a.47.47,0,0,1-.3-.25,2.13,2.13,0,0,0-.16-.25,1.41,1.41,0,0,0,0-.2,3.62,3.62,0,0,1,0-1,2.91,2.91,0,0,1,1.24-1.83.8.8,0,0,1,.68-.17A.42.42,0,0,1,24.42,7.46Z"/><path id="Path_31758" data-name="Path 31758" class="cls-5" d="M21.27,10a2.57,2.57,0,0,0-.36.89,2,2,0,0,0,0,1,.14.14,0,0,1,0,.09l-.31-.2c0-.08,0-.16,0-.24a2.94,2.94,0,0,1,0-.59,4.24,4.24,0,0,1,.89-2.06,2,2,0,0,1,0,.24A3.28,3.28,0,0,0,21.27,10Z"/><path id="Path_31759" data-name="Path 31759" class="cls-8" d="M49.77,16l-.8-.13a2.69,2.69,0,0,0-.31,0c0,.26,0,.49,0,.73l-.26-.12a2,2,0,0,1,0-.93h.18a3.9,3.9,0,0,1,1,.18A.33.33,0,0,1,49.77,16Z"/><path id="Path_31760" data-name="Path 31760" class="cls-10" d="M50.29,8.27l0-.06Z"/><path id="Path_31761" data-name="Path 31761" class="cls-3" d="M39.13,20a1.89,1.89,0,0,0-.91.35,6.17,6.17,0,0,0-1.55,1.55c-.06.07-.1.15-.15.22a.58.58,0,0,1-.48,0,2.2,2.2,0,0,1,.17-.39A6.09,6.09,0,0,1,38,20a1.82,1.82,0,0,1,1.11-.34A.29.29,0,0,1,39.13,20Z"/><path id="Path_31762" data-name="Path 31762" class="cls-8" d="M41.33,25a.68.68,0,0,0,.29-.41c.24,0,.3.09.32.35A.56.56,0,0,1,41.33,25Z"/><path id="Path_31763" data-name="Path 31763" class="cls-6" d="M43.05,22.25a.17.17,0,0,1-.18-.14A.22.22,0,0,1,43.05,22.25Z"/><path id="Path_31764" data-name="Path 31764" class="cls-6" d="M43.19,22.39c-.06,0-.11,0-.11-.1S43.19,22.32,43.19,22.39Z"/><path id="Path_31765" data-name="Path 31765" class="cls-6" d="M43.27,22.46l-.08-.07Z"/><path id="Path_31766" data-name="Path 31766" class="cls-6" d="M43.08,22.29l0,0Z"/><path id="Path_31767" data-name="Path 31767" class="cls-10" d="M2.3,13.71l-.08,0-.46-.21a.71.71,0,0,1-.14-.1A1.92,1.92,0,0,1,2.3,13.71Z"/><path id="Path_31768" data-name="Path 31768" class="cls-8" d="M22.81,29.74a.29.29,0,0,1,.12.31H22.2v.58h-.45l.14,0v-.89h.2Z"/><path id="Path_31769" data-name="Path 31769" class="cls-6" d="M22.67,28.22a.27.27,0,0,1,.14.32,3.32,3.32,0,0,0-.63,0V29h-.3c0-.24,0-.47,0-.73Z"/><path id="Path_31770" data-name="Path 31770" class="cls-8" d="M32.5,28.26a.26.26,0,0,1,.13.3h-.74v.57h-.32c0-.29,0-.59,0-.9h.29Z"/><path id="Path_31771" data-name="Path 31771" class="cls-1" d="M45.67,19.78V19H46a.37.37,0,0,1,.18,0,.14.14,0,0,1,.09.08.17.17,0,0,1,0,.12.27.27,0,0,1,0,.12s0,0,0,0a.27.27,0,0,1-.14.07l.06.07a.51.51,0,0,1,.09.13l.1.16h-.19l-.12-.17a1.25,1.25,0,0,0-.09-.12.1.1,0,0,0,0,0h-.11v.33Zm.16-.46h.26a.1.1,0,0,0,0,0,.06.06,0,0,0,0-.06s0,0,0-.06a.06.06,0,0,0-.06,0h-.24Zm.14.78a.67.67,0,0,1-.28-.06L45.56,20a.41.41,0,0,1-.1-.09.43.43,0,0,1-.09-.1.75.75,0,0,1-.07-.12.92.92,0,0,1,0-.28.87.87,0,0,1,0-.28.75.75,0,0,1,.07-.12.48.48,0,0,1,.09-.11l.1-.09.13-.07a.87.87,0,0,1,.28-.05.92.92,0,0,1,.28.05l.12.07.11.09.09.11.06.12a.67.67,0,0,1,.06.28.71.71,0,0,1-.06.28l-.06.12-.09.1a.44.44,0,0,1-.11.09l-.12.07a.71.71,0,0,1-.28.06Zm0-1.38a.66.66,0,1,0,.65.66.65.65,0,0,0-.65-.66Z"/></g></g></g></svg>