<svg xmlns="http://www.w3.org/2000/svg" viewBox="0 0 24.56 31.73"><defs><style>.cls-1{fill:#fff;}</style></defs><g id="圖層_2" data-name="圖層 2"><g id="_0-ui_kits" data-name="0-ui_kits"><path id="logo_beer_la_sirene" class="cls-1" d="M17.54,9.41l-2.26-.82A3.51,3.51,0,0,1,13.37,4h0A3.51,3.51,0,0,1,18,2.1h0A3.47,3.47,0,0,1,20,4.44h-.37a.93.93,0,0,0,0,1.86h3a.94.94,0,0,0,.94-.93h0a.93.93,0,0,0-.94-.93h-.67A5.36,5.36,0,0,0,15.73.08h0a5.36,5.36,0,0,0-4.36,6.21h0a5.36,5.36,0,0,0,3.24,4l2.22.82A9.78,9.78,0,1,1,3.62,23.08H4a.93.93,0,1,0,0-1.86H1a.93.93,0,1,0,0,1.86h.61a11.77,11.77,0,0,0,11.27,8.65A11.64,11.64,0,0,0,17.54,9.41ZM.92,16.58a.93.93,0,0,0,0,1.86H9.18a.35.35,0,0,0,.35-.34h0V16a.93.93,0,0,0-1.85,0v.63H3.45V6.27h.64a.93.93,0,1,0,0-1.85H.92a.93.93,0,0,0,0,1.85h.67V16.58Z"/></g></g></svg>