<svg xmlns="http://www.w3.org/2000/svg" viewBox="0 0 41.14 31.74"><defs><style>.cls-1{fill:#fff;}</style></defs><g id="圖層_2" data-name="圖層 2"><g id="_0-ui_kits" data-name="0-ui_kits"><path id="logo_beer_heart_of_darkness" class="cls-1" d="M22.76,27.86H20.3l-6.56,0H10.47c-1.12,0-2.24,0-3.36,0-.92,0-1.84,0-2.76-.07-.18,0-.36-.08-.55-.08-1.14,0-2.28,0-3.43.05-.31,0-.31,0-.31-.3,0-1.92,0-3.83,0-5.75,0-1,0-2,0-3,0-.78,0-1.56,0-2.34C.08,14.68,0,13,0,11.38S0,8.17,0,6.56c0-.69,0-1.39,0-2.08A11.21,11.21,0,0,1,.11,3,13.16,13.16,0,0,0,.14.44c0-.11,0-.22,0-.33s0-.1.09-.1L1.45,0h.62l3.22,0c.46,0,.91,0,1.37,0,.94,0,1.87,0,2.81,0l2.35,0c1.52,0,3,0,4.57,0C17.1.07,17.82,0,18.53,0c.5,0,1,0,1.49,0h.87l7.38,0,4.92,0H39c.66,0,1.32,0,2,0,.11,0,.14.05.14.15,0,.56,0,1.12,0,1.68s0,1.11,0,1.66c0,.3,0,.6,0,.9,0,1,0,2,0,2.95,0,1.24,0,2.49,0,3.73,0,.56.06,1.11.08,1.67,0,.4,0,.8,0,1.19,0,1.87,0,3.74,0,5.6v1.11c0,1.86,0,3.71,0,5.56,0,.49,0,1,0,1.47,0,.09,0,.11-.12.11l-4.62,0h-6c-.94,0-1.89,0-2.83,0l-3-.05H22.76Zm6.84-.33v0h11c.06,0,.12,0,.12-.08,0-1.13-.05-2.26,0-3.39,0-2.13.06-4.25.07-6.38,0-1.29,0-2.58-.07-3.87l0-3.49c0-1.57,0-3.13,0-4.7q0-1,0-1.92a3.55,3.55,0,0,1,.13-1c0-.72,0-1.44,0-2.15,0-.11,0-.14-.14-.13l-2.65,0-3.4,0H30.57l-3,0c-1,0-2,0-3,0s-2.23,0-3.34.06L17.1.42H14.9c-2.69,0-5.38,0-8.07,0C5.69.41,4.56.29,3.43.25c-.44,0-.87,0-1.31,0L.52.31S.44.35.44.38c0,.28,0,.57,0,.86,0,.67,0,1.34,0,2,0,.36,0,.72,0,1.08s0,1,0,1.43c0,.74,0,1.48,0,2.22,0,1.08,0,2.16,0,3.24,0,.57.07,1.13.07,1.7s0,1,0,1.5c0,1,0,2.08,0,3.12v3.65c0,1.24,0,2.48,0,3.72,0,.82,0,1.64,0,2.46,0,.07,0,.09.1.09l1.51,0c.85,0,1.71,0,2.56,0,.54,0,1.07-.05,1.6-.05,1,0,1.93,0,2.9.05l5.87,0h2c.66,0,1.31-.06,2-.07.37,0,.74,0,1.11,0,1.06,0,2.11,0,3.17,0ZM10,30.24c-.07-.26-.14-.52-.2-.78s-.06-.34-.41-.33c-.16,0-.18,0-.15.19.16.65.33,1.3.49,1.95.08.3.08.29.39.29h0s.11-.07.13-.11a2.37,2.37,0,0,0,.09-.36c.05-.24.11-.48.17-.75.1.39.19.75.29,1.1,0,0,.09.13.12.12s.26.06.37-.07a.07.07,0,0,0,0,0l.27-1.17c.07-.31.14-.63.22-.94s0-.17-.13-.17a.67.67,0,0,1-.2,0c-.14,0-.16,0-.19.15-.06.32-.14.64-.21,1a10.11,10.11,0,0,1-.27-1c0-.08-.05-.1-.12-.1h-.14c-.26,0-.26,0-.32.24a.43.43,0,0,1,0,.05c-.06.27-.12.54-.19.81Zm27.92.16a2.29,2.29,0,0,1,.14.27.72.72,0,0,1,.12.29c0,.11.07.13.1.2s.09.25.13.38l.06.09v-.1h.45l0,0,0,0c-.11.05-.08,0-.08-.08a2.44,2.44,0,0,1,0-.27c0-.65,0-1.3,0-1.95,0,0,0-.09-.05-.09l-.36,0c-.08,0-.12,0-.11.14s0,.51,0,.77a3.49,3.49,0,0,1-.18-.31,1.87,1.87,0,0,1-.17-.31v0a.37.37,0,0,0-.48-.24c-.09,0-.11.05-.11.13s0,.29,0,.44c0,.58,0,1.15,0,1.73h0a.12.12,0,0,0,.12.13c.07,0,.15-.07.18,0h0c0-.1.1-.05.12-.06s.08-.05.08-.07v-1ZM2.64,31.51H2.33c-.07,0-.1,0-.1-.09,0-.72,0-1.43,0-2.15a.17.17,0,0,1,.06-.1,1.92,1.92,0,0,1,.86.07.64.64,0,0,1,.31.85.36.36,0,0,1-.08.12c0,.06-.07.09,0,.17a.74.74,0,0,1,.08.79.58.58,0,0,1-.61.34Zm.09-.71a1.2,1.2,0,0,1,0,.19c0,.09,0,.11.11.09a.24.24,0,0,0,.2-.22.28.28,0,0,0-.13-.3c-.14-.08-.17-.06-.18.09Zm0-1h0v.21a.1.1,0,0,0,.06.05A.22.22,0,0,0,3,29.9a.26.26,0,0,0-.12-.29c-.13-.06-.18,0-.18.11a.49.49,0,0,1,0,.12Zm12.75.71c0,.28,0,.56,0,.83,0,.1,0,.12-.12.12-.35,0-.35,0-.35-.33,0-.62,0-1.23,0-1.84,0-.13,0-.16.16-.14h.44a.65.65,0,0,1,.7.6.59.59,0,0,1-.06.32.58.58,0,0,1-.23.26c-.06.05-.07.08,0,.14.14.29.27.58.42.86.05.1,0,.15-.08.13h-.06c-.28.06-.42-.07-.5-.33a6.65,6.65,0,0,0-.27-.61S15.5,30.56,15.48,30.55Zm0-.71v.22a.11.11,0,0,0,.06.07.28.28,0,0,0,.13-.53c-.15-.07-.19,0-.19.12v.12Zm-10.42.7v.84c0,.1,0,.12-.11.12-.36,0-.36,0-.36-.34,0-.62,0-1.24,0-1.86,0,0,0-.12.07-.11a4.35,4.35,0,0,1,.72,0,.55.55,0,0,1,.48.51.57.57,0,0,1-.28.65c-.08.05,0,.09,0,.13l.42.86c.06.11,0,.14-.08.13a1.13,1.13,0,0,0-.26,0c-.12,0-.16,0-.2-.14-.12-.28-.25-.55-.37-.83Zm0-.69v.2a.11.11,0,0,0,.07.08.26.26,0,0,0,.28-.21.27.27,0,0,0-.14-.32c-.15-.07-.21,0-.21.13v.12Zm24.5,1.68c-.12,0-.24,0-.31-.12s-.06-.11-.2,0-.05,0-.07,0-.23-.06-.28.1,0,.08,0,.08h-.45a.19.19,0,0,1,0-.08c.17-.71.35-1.42.52-2.13a.18.18,0,0,1,.21-.16c.25,0,.25,0,.31.25.18.65.35,1.29.52,1.94,0,.18,0,.18-.15.18ZM29,30.23h0l-.09.45c0,.19,0,.19.16.18s.1,0,.08-.1Zm5.8.32a8.08,8.08,0,0,1,.1-.86.63.63,0,0,1,.71-.52l.17,0a.76.76,0,0,1,.3.29,1.68,1.68,0,0,1,.17,1,2.51,2.51,0,0,1-.15.67.62.62,0,0,1-1.12,0A3.9,3.9,0,0,1,34.78,30.55Zm1-.1c0-.2,0-.46-.09-.72a.21.21,0,0,0-.2-.18c-.11,0-.16.08-.18.17a2.68,2.68,0,0,0,0,1.26c0,.1.07.18.19.18a.17.17,0,0,0,.18-.17,5.29,5.29,0,0,0,.08-.54Zm-2.06.32c0-.16,0-.32,0-.48s0-.09-.07-.09h-.5a.11.11,0,0,0-.07.06.6.6,0,0,0,0,.23s0,.08.06.08c.18,0,.18.07.17.19a1.08,1.08,0,0,1,0,.18c0,.06,0,.16-.05.17a.34.34,0,0,1-.22,0,.35.35,0,0,1-.14-.2,1.23,1.23,0,0,1-.07-.42,2.82,2.82,0,0,1,.1-.7.22.22,0,0,1,0-.11.26.26,0,0,1,.37,0c.1.07.12,0,.16,0a.47.47,0,0,1,.05-.1c.1-.18.07-.24-.13-.29l0,0a.77.77,0,0,0-.94.52,2.15,2.15,0,0,0-.06,1.18.85.85,0,0,0,.1.28.82.82,0,0,0,1.12.3.2.2,0,0,0,.13-.19v-.48ZM27,31.31a.73.73,0,0,0,0-.63,1.88,1.88,0,0,0-.27-.42c-.09-.1-.23-.16-.33-.27a.37.37,0,0,1-.07-.23s.09-.09.15-.12a.12.12,0,0,1,.11,0,1.17,1.17,0,0,1,.07.25l0-.18c.08.07.12.05.15,0s.07-.19.1-.29a.17.17,0,0,0,0-.14c-.11-.13-.26-.11-.41-.12a.59.59,0,0,0-.65.41.72.72,0,0,0,.06.64,2,2,0,0,0,.12.21c.13.12.29.22.42.35a.23.23,0,0,1,0,.32c-.1.09-.2,0-.29,0s-.15-.11-.18-.09-.08.12-.12.18l-.05.07c-.07.08,0,.15,0,.21a.81.81,0,0,0,.72.14c.11,0,.14,0,.16.09l0,0a.64.64,0,0,1,0-.07c0-.05,0-.11,0-.15l.06,0Zm-19.94-1c0,.35,0,.7,0,1,0,0,0,.09.07.09h.91a.11.11,0,0,0,.08-.08c0-.32,0-.33-.29-.33H7.8c-.24,0-.23.06-.23-.24a.49.49,0,0,1,0-.11v-.05s0-.11,0-.15.07,0,.09,0l0,0,.16,0c.07,0,.14,0,.2,0a.11.11,0,0,0,.08-.07c0-.33,0-.33-.3-.34h0c-.24,0-.24,0-.24-.24s0-.29.29-.29.26,0,.28-.24v0s0-.06-.05-.06a1.09,1.09,0,0,0-.25,0l-.62,0c-.1,0-.13,0-.13.12v1Zm11.06-.8c-.15-.37-.15-.37-.54-.36-.11,0-.12,0-.09.13.13.3.24.59.36.89a1.44,1.44,0,0,1,.16.64c0,.17,0,.34,0,.51s0,.19.18.19.33,0,.31-.3a2.14,2.14,0,0,1,.22-1.17,7.54,7.54,0,0,0,.29-.74c0-.11,0-.14-.1-.14h-.26a.12.12,0,0,0-.14.09c-.07.2-.15.39-.23.6C18.25,29.74,18.2,29.64,18.16,29.52Zm-5.28.81v1s0,.09,0,.09h.93a.11.11,0,0,0,.08-.08c0-.33,0-.33-.29-.33h-.07c-.24,0-.28,0-.23-.28,0,0,0,0,0-.07a0,0,0,0,0,0,0c0-.06-.05-.12,0-.16s.08-.06.1,0h0c.07-.1.17,0,.26,0s.19,0,.18-.18v-.14c0-.08,0-.1-.09-.1h-.36c-.1,0-.13,0-.12-.13a.38.38,0,0,1,0-.1c0-.3,0-.3.31-.3s.26,0,.26-.26a.09.09,0,0,0-.06-.06,1,1,0,0,0-.25,0l-.63,0c-.09,0-.11,0-.11.11v1Zm18.42-.82c0-.34,0-.34-.34-.34-.1,0-.12,0-.12.13v2.09c0,.08,0,.13.12.12a.88.88,0,0,1,.23,0c.09,0,.11,0,.11-.11V29.51Zm-8.82,1.07h.17c.34,0,.34,0,.33-.35,0-.07,0-.1-.1-.1h-.6c-.33,0-.33,0-.32.33,0,.08,0,.11.1.11ZM26.91,30l-.09.11,0,0,.09-.11Zm-13.51-.8,0-.09h0l0,.08Zm-5.79,0,0-.08,0,0,0,.09Zm5.9,1.78,0,0h0l.06,0Zm24.85.56s0,0,0,0l0,0s0,0,0,0ZM26.82,30.14h0v0h0ZM4.61,8.69c0-.17,0-.19.18-.18l.63,0c.2,0,.4,0,.61,0s.27.08.26.28,0,.41,0,.62,0,.2,0,.3c0,.4,0,.8,0,1.2,0,.24,0,.48,0,.72,0,.79,0,1.59,0,2.38,0,.3.08.38.37.38s.59,0,.89,0l.78,0h0a.24.24,0,0,0,.23-.24,1.09,1.09,0,0,0,0-.18V7.57c0-.17,0-.34,0-.51V6.9c0-.19,0-.38,0-.58V2.77s0-.09,0-.12-.08-.13-.13-.13a4.94,4.94,0,0,0-1.67-.2c-.31,0-.46.15-.46.47V6.11a.76.76,0,0,1,0,.21s0,.06-.07.06a.86.86,0,0,0-.39,0c-.13,0-.27-.07-.4,0h0l-.55,0,0,0c-.07,0-.09,0-.09-.07s0-.33,0-.49,0-.61,0-.91c0-.1,0-.21,0-.31s0,0,0,0,.06-.07.06-.1A9.59,9.59,0,0,1,4.7,3.37a3.75,3.75,0,0,0-.08-.88c0-.09,0-.13-.16-.12a2.88,2.88,0,0,1-.59,0c-.36,0-.72-.12-1.08-.18a.3.3,0,0,0-.31.13,2.53,2.53,0,0,1-.12.23c-.08.14,0,.28,0,.41,0,.72,0,1.44,0,2.16V5.7c0,.48,0,1,0,1.44,0,.17,0,.35,0,.52,0,.33,0,.66,0,1v2.69c0,.29,0,.58,0,.88s0,.6,0,.9,0,.36,0,.54,0,.27,0,.4a.26.26,0,0,0,.24.27c.4,0,.79,0,1.19,0a5.79,5.79,0,0,0,.72,0,.21.21,0,0,0,.14-.1.71.71,0,0,0,.06-.57c0-.08,0-.14.08-.16s0-.06.06-.09,0-.05,0-.05-.11-.06-.11-.14V8.69Zm22.87-.4v.15c0,.83,0,1.66,0,2.49,0,.31,0,.63.05.94v0a3.69,3.69,0,0,0,0,1c0,.21-.08.31-.28.31H25.6c-.13,0-.16-.05-.16-.17,0-.95,0-1.9,0-2.85,0-.58,0-1.14,0-1.71s0-1.27,0-1.9c0-.36,0-.71,0-1.06,0-1,0-2,0-2.95,0-.27.11-.37.39-.35l.82.09h.09a3.91,3.91,0,0,1,1.08,0c.12,0,.24,0,.35,0a1.06,1.06,0,0,1,.31,0,5.67,5.67,0,0,1,1.21.38,2.72,2.72,0,0,1,1.52,2.37,3.59,3.59,0,0,1-.18,1.34,2.36,2.36,0,0,1-1.3,1.48c-.16.07-.17.1-.09.26l2.84,6a.19.19,0,0,1,0,.09c0,.13,0,.17-.13.16l-.72,0-.29,0c-.31,0-.62-.06-.92,0a.19.19,0,0,1-.23-.12c-.24-.48-.5-.94-.72-1.42q-1-2.19-1.91-4.4a1.6,1.6,0,0,1-.1-.23Zm0-2.89V6.48c0,.12.05.17.17.16h.24a1.13,1.13,0,0,0,1-.51,2,2,0,0,0,.24-.57,1.27,1.27,0,0,0-.91-1.47l-.35,0c-.34,0-.37,0-.37.34Zm3,5.7,0,.08.09.1,0,0a.38.38,0,0,0-.09-.13Zm-8.75.48h0c0-.09,0-.2-.09-.25s-.15,0-.23,0h-.78a1.24,1.24,0,0,1,.18.22c.05.07,0,.15-.08.11a.71.71,0,0,1-.3-.18.39.39,0,0,0-.36-.15h-.46a.21.21,0,0,0-.25.17c-.06.22-.13.44-.19.67a.17.17,0,0,1-.19.17H17.15c-.15,0-.21-.1-.18-.24.19-.68.38-1.37.56-2.06s.33-1.24.5-1.86q.75-2.84,1.51-5.67c.05-.21.08-.23.29-.23h1.44a.19.19,0,0,1,.21.14c.05.14.09.28.13.42.16.59.33,1.18.49,1.78l2,7.36a.14.14,0,0,1,0,.07c0,.21,0,.25-.21.25H22.16a.21.21,0,0,1-.21-.13l-.15-.38s0,0-.07,0h-.12s0-.09,0-.09A.35.35,0,0,1,21.74,11.58ZM20.51,9.43H21c.1,0,.15,0,.13-.15-.21-.86-.41-1.71-.61-2.57a.44.44,0,0,0-.08-.11.41.41,0,0,0-.07.11c-.19.85-.38,1.7-.56,2.55,0,.14,0,.17.14.17ZM14,2.22c-.41,0-.82,0-1.22,0h-.09c0-.14-.14-.08-.2-.05a1.62,1.62,0,0,1-.62.06c-.23,0-.45,0-.68,0s-.12,0-.12.12c0,1.75,0,3.49,0,5.24,0,.33,0,.66,0,1S11,9.5,11,10v.27c0,.13,0,.25,0,.38,0,.38,0,.77,0,1.15s0,.58,0,.87,0,.35,0,.52.05.12.14.12h2l.45,0c.22,0,.43-.08.65,0,0,0,.07,0,.1,0l.16,0,1.07,0h0a.2.2,0,0,0,.19-.21c0-.52,0-1,0-1.54,0-.08,0-.11-.11-.11-.35,0-.7,0-1,0s-.54,0-.81,0l-.49,0a.15.15,0,0,1-.12-.1,2.41,2.41,0,0,1-.11-.52c0-.47,0-.95,0-1.42,0-.09,0-.19.13-.16l.06,0,.15-.13a.07.07,0,0,0,0,0,0,0,0,0,0,0-.05,1,1,0,0,0-.25,0l-.07,0a.3.3,0,0,1,0-.1V8.28a.22.22,0,0,1,.23-.18h.14c.17,0,.16,0,.14.17a.65.65,0,0,0,0,.14.42.42,0,0,0,.14-.09.13.13,0,0,0,0-.1c0-.09,0-.12.13-.12l.91,0,.68,0c.1,0,.2,0,.2-.15s0-.52,0-.78,0-.47,0-.7,0-.27-.24-.27l-2,0c-.25,0-.29,0-.32-.31V5.73c0-.22,0-.45,0-.67,0-.38,0-.75,0-1.12v0a.21.21,0,0,1,.23-.17c.15,0,.29,0,.43,0h1.67c.2,0,.27,0,.27-.24a3.49,3.49,0,0,1,.05-1.12v0c0-.09,0-.13-.12-.13H14.7c-.12,0-.24,0-.27-.15s-.08,0-.11,0,0,.07-.05.1l.14.08A2.26,2.26,0,0,1,14,2.22ZM34.55,14.28c0,.18,0,.19.2.19h1.56c.33,0,.35,0,.35-.35h0V8.2c0-.22,0-.44,0-.66s0-.52,0-.78V6.17c0-.07,0-.14,0-.2,0-.27,0-.56,0-.81s0-.52,0-.77.07-.27.27-.27h1.79c.12,0,.17,0,.17-.17s0-.41,0-.62V2.52c0-.15-.05-.18-.2-.14a.28.28,0,0,1-.13,0l-.49,0c-.39,0-.78-.05-1.17-.06H34.81c-.12,0-.24,0-.35,0q-.45,0-.9,0a4.31,4.31,0,0,0-.88,0c-.24,0-.25,0-.25.27s0,.35,0,.53,0,.59,0,.88c0,.09,0,.14.14.13s.3,0,.45,0c.46,0,.92,0,1.38,0,.14,0,.15.07.15.18v10ZM24.22,24.1a1.73,1.73,0,0,0-.11-.32l-.69-1.43c-.05-.1-.09-.2-.13-.3L23.23,22l-.05,0a1.43,1.43,0,0,1,.08.22.13.13,0,0,1,0,.06,4.42,4.42,0,0,0-.06,1.31,1.94,1.94,0,0,1,0,.59.19.19,0,0,0,.11.23h0s0,.06,0,.09,0,0,0,.07c0,.22,0,.44,0,.65s0,.34-.31.31a4,4,0,0,0-.85,0,1,1,0,0,1-.41-.12.27.27,0,0,1,0-.11c0-.52,0-1,0-1.54l0-1.89c0-.77,0-1.53,0-2.29a1.72,1.72,0,0,1,0-.64,1,1,0,0,0,0-.3c0-.21.09-.31.3-.29a4.53,4.53,0,0,0,.52,0c.16,0,.34-.07.47,0s.19.25.27.38L24,20.26l.42.74.07.09c0-.31,0-.61,0-.92,0-.55,0-1.1,0-1.65a.19.19,0,0,1,.11-.15,1.43,1.43,0,0,1,.82,0,2.36,2.36,0,0,0,.46,0,.19.19,0,0,1,.21.21v1.2c0,.34,0,.69,0,1v1.08c0,.36,0,.7,0,1.05s0,.66,0,1v1.32a1.07,1.07,0,0,0,.09.27c0,.07,0,.12-.05.12s-.26,0-.39,0-.12-.07-.14.05-.13,0-.15-.06-.07-.06-.13-.06a3.89,3.89,0,0,1-.47-.09s0-.08-.07-.13-.13-.29-.19-.43-.13-.3-.2-.45,0-.12-.07,0,0,0-.07,0-.09-.15,0-.24,0-.05,0-.08ZM26,25.45a.14.14,0,0,0,0,.06l0,0,0,0Zm-7.55-4.83v-.14c0-.2,0-.4,0-.6s0-.67,0-1c0-.13,0-.26,0-.39a.14.14,0,0,0-.07-.11,1.16,1.16,0,0,0-.31-.07c-.29,0-.59,0-.88,0a1.37,1.37,0,0,0-.35.08.16.16,0,0,0-.11.19c0,.16,0,.33,0,.49l0,2.33c0,.86,0,1.71,0,2.57,0,.45,0,.9,0,1.35v0a.18.18,0,0,0,.19.17h.26s.08,0,.12,0,.35-.11.51.05c0,0,.05,0,.06,0a.44.44,0,0,1,.35-.08c.22,0,.24,0,.24-.24V23.88c0-.1,0-.19,0-.29V23a.07.07,0,0,1,0,.05c.11.73.42,1.43.5,2.17,0,.2.13.26.34.26h1.32l.22-.07a.75.75,0,0,1-.07-.12l0-.07c-.05-.2-.12-.4-.17-.6-.23-1-.47-2-.7-3.06a.26.26,0,0,1,0-.15l.69-2.75c.07-.27,0-.33-.27-.33h-1c-.19,0-.23,0-.28.21-.16.56-.32,1.12-.47,1.69,0,.13-.08.26-.11.39ZM2.22,23.28v-2c0-.5,0-1,0-1.5V18.51c0-.11,0-.15.15-.15a4.86,4.86,0,0,0,.54,0l.2-.05h.13a1.59,1.59,0,0,0,.3.06,6.78,6.78,0,0,1,.9,0,2.51,2.51,0,0,1,2,1.93,6.68,6.68,0,0,1,.16,2.56,3.34,3.34,0,0,1-.75,1.83,2.38,2.38,0,0,1-1.8.82c-.52,0-1,0-1.57,0-.1,0-.15,0-.15-.15,0-.72,0-1.43,0-2.14ZM5.09,21.9h0c0-.17,0-.34,0-.5a2.42,2.42,0,0,0-.43-1.33,1,1,0,0,0-.86-.48c-.08,0-.11,0-.11.11l0,3.42c0,.11,0,.21,0,.32l0,.7c0,.1.05.13.13.12a1.64,1.64,0,0,0,.38-.1,1.45,1.45,0,0,0,.77-1,10.58,10.58,0,0,0,.16-1.26Zm8.06.44s0,.09,0,.13V24.3c0,.32,0,.64,0,1,0,.14,0,.19-.19.19h-1.1c-.1,0-.13,0-.13-.13V22.56c0-.49,0-1,0-1.49v-2.6c0-.16.07-.23.24-.23a2.85,2.85,0,0,1,.29,0c.4,0,.8.05,1.2,0a2.68,2.68,0,0,1,.84.13,1.93,1.93,0,0,1,1.35,2.08,2.35,2.35,0,0,1-.36,1.06,1.62,1.62,0,0,1-.61.49c-.11.05-.14.1-.08.22l1.41,3,.05.09c0,.09,0,.15-.11.15-.37,0-.75,0-1.13,0h0c-.28.12-.36-.09-.43-.27-.41-.93-.8-1.86-1.2-2.78,0,0,0-.07-.05-.1Zm0-2v.75c0,.09,0,.13.13.12l.37,0a.87.87,0,0,0,.61-1,.83.83,0,0,0-.89-.7c-.19,0-.21,0-.21.21s0,.46,0,.68Zm2.12,4-.08-.06,0,0a.17.17,0,0,0,.06.06l0,0Zm-6.45.56a.52.52,0,0,1,.1.11l0,.12a.28.28,0,0,1-.13,0,.18.18,0,0,1-.1-.07.36.36,0,0,0-.37-.15c-.38,0-.38,0-.47.38s-.08.35-.45.35h-1c-.13,0-.17-.06-.14-.18.16-.65.31-1.29.47-1.93s.38-1.42.56-2.13c.22-.89.43-1.78.66-2.67.09-.34,0-.33.43-.33h.74a.2.2,0,0,1,.23.17h0c.07.29.14.59.22.88q.76,2.94,1.54,5.88s0,.06,0,.09,0,.18-.16.18H9.9a.21.21,0,0,1-.23-.16l-.06-.17c0-.05,0-.11-.09-.07s0,0,0,0,0-.07,0-.07c.16,0,0-.12,0-.18l-.11,0Zm-.1-1.36h.36c.07,0,.11,0,.09-.1-.14-.62-.27-1.23-.41-1.85,0,0,0-.05,0-.08s-.05.05-.06.08c-.13.62-.25,1.23-.38,1.84,0,.08,0,.11.09.11Zm25.43,1.66,0,0a1.94,1.94,0,0,1,0,.2v.06s.08,0,.08,0a2.38,2.38,0,0,0,.05-.26s0-.09,0-.11a2.87,2.87,0,0,0,.43-1,1.51,1.51,0,0,0,0-.7,2.37,2.37,0,0,0-.32-.85c-.15-.21-.21-.48-.45-.64a.17.17,0,0,1-.07-.27l0,0s-.05,0-.06,0v.1l-.07-.05c-.23-.19-.47-.38-.69-.58a1.91,1.91,0,0,1-.44-.5c-.19-.4-.12-.83.42-.89a.73.73,0,0,1,.3.06c.06,0,.15,0,0,.11a.19.19,0,0,0,0,.19.64.64,0,0,1,.14.34.34.34,0,0,0,.06.12c0-.15,0-.27,0-.4V20l.1.07.08.06h0a.14.14,0,0,0,.2-.08l.41-1.08a.29.29,0,0,0-.09-.34c-.09-.08-.24-.14-.17-.33-.1.12-.21.15-.31.07s-.12-.11-.21,0-.06,0-.06,0-.1-.1-.18,0-.09,0-.13,0-.24-.08-.38,0c-.32.11-.67.16-1,.26a1.09,1.09,0,0,0-.58.45A2.54,2.54,0,0,0,31,21.07a.42.42,0,0,0,.07.13,2,2,0,0,1,.43.74.39.39,0,0,0,.08.14l.07-.1.49.4c.24.23.48.46.72.71a.74.74,0,0,1,.19.68.5.5,0,0,1-.65.47,1.23,1.23,0,0,1-.66-.36c-.21-.2-.28-.2-.43.07l0,.06-.38.66a.32.32,0,0,0,0,.38,1.52,1.52,0,0,0,.72.5,2.85,2.85,0,0,0,1.87,0l.18-.06a1.5,1.5,0,0,0,0,.2s0,.1,0,.1a.25.25,0,0,0,.17,0c.09,0,.11-.2.06-.31s0-.05,0-.08.09,0,.12-.09l.1-.12Zm4.19,0-.06.22a.17.17,0,0,0,0,.07s.07,0,.07,0a2,2,0,0,0,0-.26.37.37,0,0,1,0-.11,7.26,7.26,0,0,0,.38-.86,2.13,2.13,0,0,0,.07-.87,2.44,2.44,0,0,0-.3-.79,1.55,1.55,0,0,0-.47-.7c-.07-.05-.18-.14-.08-.26s0,0,0-.07l-.06,0a.2.2,0,0,0,0,.07l-.08,0c-.22-.18-.44-.36-.65-.55a3.64,3.64,0,0,1-.46-.5.68.68,0,0,1,0-.75.65.65,0,0,1,.74-.08.07.07,0,0,1,0,.07c-.1.1-.06.19,0,.27a.53.53,0,0,1,.08.17,1.42,1.42,0,0,1,.07.22h0v-.51l.17.14s0,0,.06,0a.16.16,0,0,0,.2-.09l.39-1a.32.32,0,0,0-.11-.4c-.09-.06-.18-.13-.14-.27h0v0a.67.67,0,0,1-.24,0c-.1,0-.17-.16-.29-.06s0,0,0,0-.13-.11-.22,0-.07,0-.1,0-.25-.08-.4,0c-.32.1-.66.15-1,.26a1.09,1.09,0,0,0-.48.34,2.21,2.21,0,0,0-.45,1.62,1.64,1.64,0,0,0,.26.86,1.42,1.42,0,0,1,.37.73s0,0,0,0h.07c0-.14.09,0,.12,0s.28.22.41.34.5.48.73.72a.68.68,0,0,1,.18.65c-.07.4-.26.56-.66.49a1.3,1.3,0,0,1-.74-.45c-.08-.1-.14-.1-.21,0a2.07,2.07,0,0,0-.17.24l-.35.61h0a.32.32,0,0,0,0,.45,1.58,1.58,0,0,0,.78.49,2.84,2.84,0,0,0,1.8-.06l.16-.06a1.38,1.38,0,0,0,0,.2s0,.09,0,.11.11.07.18,0a.31.31,0,0,0,0-.32v-.07c.11,0,.1-.06.14-.12a.52.52,0,0,1,.1-.11Zm-9.5-2.72a.29.29,0,0,0,0,.09l.09-.06a.11.11,0,0,0,0-.06c0-.11.06-.1.13-.1l1,0c.08,0,.14,0,.14-.1s0-.39,0-.58a3.08,3.08,0,0,1,0-.43c0-.17,0-.21-.19-.21l-1.38,0a.14.14,0,0,1-.16-.12.78.78,0,0,1,0-.16c0-.18,0-.36,0-.54s0-.5,0-.74.06-.17.18-.17a4.34,4.34,0,0,0,.51,0c.29,0,.58,0,.87,0s.2,0,.2-.18a3.33,3.33,0,0,1,0-.77c0-.09,0-.11-.1-.11s-.42,0-.63,0c0,0-.08,0-.12-.07l-.08-.06-.06.08s0,0,0,0h-1s-.07,0-.07,0-.14,0-.2,0l-.25,0a5,5,0,0,1-.55,0c-.09,0-.13,0-.13.13,0,1.46,0,2.91,0,4.37,0,.18,0,.36,0,.54s0,.63,0,.94,0,.67,0,1v.16c0,.1.05.14.16.14h.89l.78,0h.55l.7,0q.18,0,.18-.18c0-.33,0-.65,0-1,0-.1,0-.14-.13-.14s-.34,0-.5,0c-.32,0-.64,0-1,0s-.25,0-.25-.21v-.63c0-.23,0-.23.17-.35l.09-.08-.16,0s-.05,0-.1.06v-.4c0-.28,0-.29.28-.28h.07S28.84,22.42,28.83,22.45ZM16,15.25a24.11,24.11,0,0,0-2.55,0c-.73.06-1.48,0-2.22,0l-1.89,0c-.5,0-1,0-1.52,0l-3.55.13-1.52,0a4.21,4.21,0,0,0-.49.09s-.06.06-.09.09.07.06.11.06a4.53,4.53,0,0,0,.64,0,2.2,2.2,0,0,1,.92,0,.41.41,0,0,0,.16,0c.75,0,1.5,0,2.25,0,1,0,2.05-.07,3.07-.08h3.13l.27,0h.79a.91.91,0,0,1,.54,0,.93.93,0,0,0,.33.07c.14,0,.32.09.41-.12,0,0,.06,0,.09,0a.57.57,0,0,0,.18,0c.15,0,.34,0,.42-.06s.26-.09.4-.1.53,0,.79-.05a.29.29,0,0,0,.27-.19Zm2.17.27c0-.35.08-.71.14-1.06a1,1,0,0,1,.56-.72.86.86,0,0,1,.63-.06.87.87,0,0,1,.65.54,1.76,1.76,0,0,1,.15.44,4,4,0,0,1,0,1.83,1.09,1.09,0,0,1-.35.59,1,1,0,0,1-1.37-.1,1,1,0,0,1-.17-.27A4.08,4.08,0,0,1,18.2,15.52Zm.7-.1c0,.25,0,.44.05.62a2.46,2.46,0,0,0,.11.45.28.28,0,0,0,.53,0,1.43,1.43,0,0,0,.09-.27,5.57,5.57,0,0,0-.07-1.68c0-.21-.17-.34-.32-.34s-.26.11-.3.34-.06.61-.09.85Zm-.41.43h0v0h0v0Zm1.58-.38h0Zm-1.52-.94s0,0,0,0l0,0s0,0,0,0S18.57,14.52,18.55,14.53Zm0,1.34v0h0Zm20.32-.46a3,3,0,0,0-.43,0c-.24,0-.48,0-.72,0a2.8,2.8,0,0,1-.71-.06,3.94,3.94,0,0,0-1-.08l-4.65,0c-.48,0-1,0-1.44,0-.65,0-1.3-.06-1.95-.06-1.06,0-2.12,0-3.18,0-.31,0-.62.06-.93.09a.92.92,0,0,0-.23.09l0,0,.14,0c.43,0,.85,0,1.28,0h3.51l3.08,0c.2,0,.41,0,.61,0s.53-.06.8-.06l2.86,0c.33,0,.65,0,1,0l1.26.06a.87.87,0,0,0,.32-.06l.36-.17ZM21.28,17.22c.13,0,.14,0,.14-.15,0-.41,0-.83,0-1.24,0-.1,0-.12.12-.12h.64c.08,0,.1,0,.1-.1v-.42c0-.09,0-.11-.11-.11l-.66,0c-.07,0-.11,0-.11-.1s0-.4,0-.6,0-.14.12-.14h.65c.08,0,.12,0,.11-.12a2.16,2.16,0,0,1,0-.36c0-.11,0-.13-.13-.13l-1.33,0c-.08,0-.11,0-.11.1,0,.53,0,1.06,0,1.58s0,1,0,1.53,0,.36.35.36ZM13.2,1.89V2l0,.09L13.32,2s0-.08,0-.09.08-.13.09-.21-.07-.11-.14-.11-.07.06-.05.12a.13.13,0,0,1,0,.06,1.09,1.09,0,0,0-.08.15Zm20.86,18.7-.25.24s0,.11,0,.17.13,0,.15-.06a1.92,1.92,0,0,0,.18-.31Zm4.12.07-.2.22A.48.48,0,0,0,38,21l.11,0a.44.44,0,0,0,.18-.38ZM13.62,10.18s0-.07,0-.08a.16.16,0,0,0-.09,0l0,.09a1.69,1.69,0,0,0,.31.13s.07-.08.13-.15l-.15,0h-.12A.13.13,0,0,1,13.62,10.18Zm15,7.93c.06,0,.14-.23.12-.29a.09.09,0,0,0-.07,0s-.06,0-.06,0,0,.14-.05.24S28.61,18.11,28.63,18.11ZM25,25.59a.14.14,0,0,0-.11,0s0,.05,0,.08.11.15.23.2A1,1,0,0,0,25,25.59Zm9,.32s0-.06,0-.06a.71.71,0,0,1-.2,0c-.06,0-.1,0-.08.06a.46.46,0,0,0,.07.1Zm4.21,0s0-.06,0-.06-.14,0-.2,0-.09,0-.08.07.05.05.08.09Zm-15.48-.23-.12-.14a.59.59,0,0,0-.08.11s0,.08.08.14ZM29,23.81l-.1,0-.08,0s0,.09,0,.09a.73.73,0,0,0,.19.07s.05,0,.09-.07Zm-2.5,1.6s-.1.07-.11.12.07.07.1.1l.05-.16ZM21,11.7l.19.09s0-.08,0-.08L21,11.62ZM2.16,2.52s-.06,0-.09.08a.46.46,0,0,0,.07.07s.06,0,.13-.06S2.18,2.52,2.16,2.52Zm18.48,9.31.24.11,0-.06-.24-.12ZM24.7,25.56l-.05-.19-.07,0,.06.19Zm-.48-1.47c-.13,0-.15.1-.22.15.1,0,.21,0,.22-.15ZM18.54,26s.05-.05.07-.07-.07,0-.09,0a1,1,0,0,0-.17.1ZM13.66,9.89s-.05,0-.05,0a.09.09,0,0,0,.06.06l.07-.06S13.68,9.88,13.66,9.89ZM37.94,21.11l-.07.11.06,0,.06-.11ZM21,24.49l.06-.07a.13.13,0,0,0-.07,0,.09.09,0,0,0-.07.05s0,.06,0,.09Zm-4.22,1.14a.22.22,0,0,0,.11.05s.06,0,.09,0l-.09-.06Zm17-4.52-.08.11,0,0a.76.76,0,0,0,.08-.11ZM33.61,21l.08-.14,0,0-.08.14Zm4.23-.17-.07.15,0,0,.08-.15ZM9.05,25.15l.11.07,0,0-.11-.08Zm21.63-4.23.13-.05a.56.56,0,0,1,0-.07l-.14.06ZM9,25.29l-.15-.08,0,0,.15.08Zm25.91-4.37a.67.67,0,0,0,.12-.06l0-.06-.13.06ZM20.77,24.25l0,0s0,0,.06,0l.08,0A.17.17,0,0,0,20.77,24.25Zm1,1.41s0,0,0,.05.05,0,.05-.05,0,0,0-.09Zm7.11-2s0,0,0,0l0,0s0,0-.05-.06A.14.14,0,0,0,28.86,23.63Z"/></g></g></svg>