<svg xmlns="http://www.w3.org/2000/svg" viewBox="0 0 35.53 31.76"><defs><style>.cls-1{fill:#fff;}</style></defs><g id="圖層_2" data-name="圖層 2"><g id="_0-ui_kits" data-name="0-ui_kits"><path id="logo_beer_wolfs_brewery" class="cls-1" d="M1.93,27a10.14,10.14,0,0,1,1.22,3,2.15,2.15,0,0,0,2.44,1.75c.78,0,1.55-.23,2.34-.33l5.19-.68A19,19,0,0,0,16.77,30a2.92,2.92,0,0,1,1-.26,5.61,5.61,0,0,0,1.86-.38c.32-.1.64-.15,1-.23a1.31,1.31,0,0,1,.23-.25,2.14,2.14,0,0,1,.42-.16l8-3a10.47,10.47,0,0,1,2.73-.87.86.86,0,0,0,.75-.55c0-.12-.11-.23-.15-.34-.26-.6-.45-.67-1-.38L30.8,24c-.14-.23-.25-.41-.35-.59-.25-.44-.45-.51-.83-.18s-.61.66-.91,1l-.53.62a7.75,7.75,0,0,1-.5-.68c-.24-.44-.46-.9-.67-1.37s-.48-.59-.84-.14a2.43,2.43,0,0,0-.26.44c-.13.27-.22.56-.35.83-.22.44-.42.89-.67,1.31s-.43.35-.69,0a3.49,3.49,0,0,1-.44-.71c-.23-.52-.43-1.05-.63-1.58a1.28,1.28,0,0,0-2.24-.25,3.1,3.1,0,0,0-.32.66c-.22.61-.4,1.24-.62,1.85a5.79,5.79,0,0,1-.33.67c-.15-.28-.25-.46-.33-.65-.22-.54-.42-1.09-.63-1.63-.08-.22-.17-.43-.26-.64s-.22-.37-.46-.36-.35.24-.4.47-.08.42-.11.63-.1.61-.16,1a4.35,4.35,0,0,1-.3-.49c-.19-.42-.36-.85-.57-1.25a4.73,4.73,0,0,0-.53-.9c-.23-.29-.53-.24-.69.1a1.39,1.39,0,0,0-.14.45c-.08.44-.14.87-.2,1.31s-.09.75-.13,1.13a1.28,1.28,0,0,1-.35-.49c-.14-.33-.25-.66-.38-1-.07-.17-.13-.34-.34-.36a.42.42,0,0,0-.43.3c-.1.3-.18.61-.26.92s-.17.67-.25,1a27.29,27.29,0,0,1-.71-6,1.72,1.72,0,0,1,.28.49c.32.71.63,1.42,1,2.12.08.18.18.36.41.34s.3-.25.34-.47a1.49,1.49,0,0,0,0-.21c.05-.73.11-1.45.15-2.18s.08-1.22.12-2a6.12,6.12,0,0,1,.42.46c.39.6.77,1.21,1.16,1.82.25.4.48.82.75,1.2a.52.52,0,0,0,.65.28c.28-.11.2-.37.19-.59L17.29,18a5.43,5.43,0,0,1,0-.57l.11,0,.27.48c.32.67.64,1.34,1,2a1.8,1.8,0,0,0,.37.5.36.36,0,0,0,.63-.19,1.52,1.52,0,0,0,.06-.47,5.66,5.66,0,0,1,.4-2.08,1.46,1.46,0,0,1,.19-.32c.19.53.35,1,.54,1.46a13.71,13.71,0,0,1,.95,2.23.94.94,0,0,0,.06.15.47.47,0,0,0,.86,0,1.74,1.74,0,0,0,.2-.49c.21-1.09.41-2.19.61-3.29a1.67,1.67,0,0,1,.31-.93c.09.18.2.34.27.52.21.52.4,1.05.61,1.58s.33.86.5,1.28c.09.2.22.38.47.32s.21-.28.22-.47c.05-.73.09-1.46.15-2.18a8.28,8.28,0,0,1,.21-1,2.06,2.06,0,0,1,.67.94c.31.67.59,1.36.9,2,.13.29.22.68.64.65s.43-.4.51-.7c.12-.52.21-1,.33-1.56,0-.19.1-.38.18-.68.15.29.25.48.34.67l.94,2c.07.17.17.3.38.28s.27-.17.31-.36l.3-1.45c.05-.21.11-.42.18-.68a5.61,5.61,0,0,1,.81,1.86,7.16,7.16,0,0,0,.41,1.09.43.43,0,0,0,.37.19c.09,0,.2-.17.24-.28s.1-.45.19-.66a9.3,9.3,0,0,0,.66-3.43.73.73,0,0,1,.39-.76,1,1,0,0,0,.5-1,2.57,2.57,0,0,0-1.28-2.16,3.85,3.85,0,0,0-.9-.36,1.33,1.33,0,0,0-1.43.39c-.21.25-.43.49-.67.76H31c-1-.15-2.05-.34-3.09-.45-1.79-.19-3.58-.34-5.37-.48-.87-.06-1.74-.05-2.62-.09l-3.52-.15A16.48,16.48,0,0,1,14.32,12a12.17,12.17,0,0,0-2.55-.24c-.38,0-.76,0-1.16,0,0-.49.11-.93.12-1.37,0-1.25,0-2.49.06-3.74,0-.33.06-.67.06-1s-.12-.38-.37-.39a.52.52,0,0,0-.51.35q-.29.6-.6,1.17-1.5,2.74-3,5.47a2.89,2.89,0,0,1-.18.27c-.16-.7-.28-1.29-.42-1.87C5.35,9.09,4.93,7.53,4.53,6c-.08-.27-.27-.43-.52-.34a.78.78,0,0,0-.43.32A10.54,10.54,0,0,0,2,10.28c0,.44-.07.88-.11,1.33a7,7,0,0,1-.14,1.21,15.55,15.55,0,0,1-.6,1.74A16.53,16.53,0,0,0,.05,19.67,9.68,9.68,0,0,0,.53,24a19.26,19.26,0,0,0,1.4,3m7-13.28a4.51,4.51,0,0,1,2.44-.12,1.66,1.66,0,0,1,1.16,2.3,2.66,2.66,0,0,1-2.41,1.92,2.26,2.26,0,0,1-1.32-.3,1.65,1.65,0,0,1-.87-1.35c0-.2-.06-.39-.08-.58a1.63,1.63,0,0,1,1.08-1.87m-6,3.11a1.21,1.21,0,0,1,.29-.65,2.3,2.3,0,0,1,2.19-.79,1.79,1.79,0,0,1,1.24,2.7,2,2,0,0,1-1.74,1.05c-1.28.05-2.08-.75-2-2.31m5.94-1.19a1.18,1.18,0,0,1,.84-1c.11,0,.23,0,.35-.06h.39a1,1,0,0,1,.91,1,1,1,0,0,1-.84,1.07,3,3,0,0,1-.79,0,1.09,1.09,0,0,1-.86-1m-5,1.95c.05-.69.31-1.05.8-1.14a.5.5,0,0,1,.64.43.63.63,0,0,1-.3.8,1.54,1.54,0,0,1-1.14-.09M13.31,2.73c0,.07,0,.14,0,.21s0,.14,0,.2a1.68,1.68,0,0,1-.23.91h0a3.55,3.55,0,0,1-.23.31.73.73,0,0,1-.3.22,1,1,0,0,1-.31,0h-.46a.16.16,0,0,1-.11,0,.23.23,0,0,1-.06-.12s0-.08,0-.14V4a.13.13,0,0,1,0-.06V3.74c0-.05,0-.09,0-.14V3.33c0-.2,0-.41,0-.61s0-.42,0-.62V1.51a1.09,1.09,0,0,0,0-.18c0-.16,0-.32,0-.47A3.8,3.8,0,0,0,11.53.4a.34.34,0,0,1,0-.18A.36.36,0,0,1,11.65.1.24.24,0,0,1,11.74,0h.46l.27,0a.72.72,0,0,1,.27.09A.87.87,0,0,1,13,.32a.79.79,0,0,1,.13.26,2.5,2.5,0,0,1,.05.29v.3a3.11,3.11,0,0,1,0,.33,2.45,2.45,0,0,1-.08.29A.3.3,0,0,1,13,1.9L12.91,2a.53.53,0,0,1,.12.1.69.69,0,0,1,.11.13h0a1.14,1.14,0,0,1,.17.51M12,.5s0,.08,0,.13a.49.49,0,0,1,0,.12A1.69,1.69,0,0,1,12,1a2.09,2.09,0,0,1,0,.25.76.76,0,0,1,0,.15v.45h.39a.56.56,0,0,0,.25-.35h0a1.48,1.48,0,0,0,0-.55l0-.17a.28.28,0,0,0-.09-.14A.5.5,0,0,0,12.26.5Zm0,1.8h0v.38a1.21,1.21,0,0,0,0,.19v.19c0,.06,0,.13,0,.19v.41s0,.07,0,.11V4a.07.07,0,0,1,0,0v.13h.23a.39.39,0,0,0,.18,0L12.6,4l.08-.09a.47.47,0,0,0,.08-.14l.07-.19a1,1,0,0,0,0-.25,1.93,1.93,0,0,0,0-.24V3a.75.75,0,0,0,0-.3.66.66,0,0,0-.11-.24.3.3,0,0,0-.19-.12l-.07,0H12Zm3.4-1c0,.12.06.24.08.36s0,.24,0,.36v0a2.13,2.13,0,0,1,0,.27v.48a1.48,1.48,0,0,1,0,.21c0,.14,0,.3-.05.49a2,2,0,0,1-.16.52,2.48,2.48,0,0,1-.17.29.66.66,0,0,1-.16.17l-.11.07-.11.05-.06,0h-.12a.63.63,0,0,1-.54-.35,1.73,1.73,0,0,1-.16-.37c0-.13-.05-.25-.08-.37a6.83,6.83,0,0,1-.08-1.06c0-.12,0-.25,0-.38s0-.26,0-.4,0-.33.06-.47,0-.26.07-.39,0,0,0,0h0c0-.1.05-.19.08-.29a.66.66,0,0,1,.16-.26L14.35.1A.45.45,0,0,1,14.61,0h.08a.48.48,0,0,1,.25.14,1.3,1.3,0,0,1,.15.2,1.72,1.72,0,0,1,.2.44c.05.14.09.28.13.42h0V1.3ZM14.32,3.56c.07.32.15.51.25.56.26,0,.43-.33.5-.89a4.08,4.08,0,0,0,0-.61v-.2a1.62,1.62,0,0,0,0-.22v0a.06.06,0,0,1,0,0l0-.32A1.86,1.86,0,0,0,15,1.53l0-.13h0l0-.13L14.85,1c0-.1-.08-.19-.13-.29v0L14.67.6,14.6.53,14.53.6a.32.32,0,0,0-.07.13L14.4.9h0l0,.08c0,.11-.05.23-.07.36s0,.26-.06.41,0,.24,0,.37,0,.23,0,.34v.13a.57.57,0,0,0,0,.13c0,.17,0,.32,0,.46a2.63,2.63,0,0,0,.06.39m2.83-1.77c0-.19-.09-.38-.14-.56a3.81,3.81,0,0,0-.17-.51l0-.06V.61l0,0a1.5,1.5,0,0,0-.07.27c0,.07,0,.11,0,.13a.31.31,0,0,1,0,.08l0,.11,0,.15,0,.15h0l0,.14,0,.2-.05.5V2.4c0,.28-.06.55-.08.82s0,.54,0,.81v.19a1.28,1.28,0,0,0,0,.19v0l0,.09h-.27a.37.37,0,0,1-.17,0V4.08c0-.34,0-.67,0-1s.06-.67.1-1V2c0-.1,0-.2.05-.3s0-.2,0-.31a.29.29,0,0,0,0-.09s0-.08,0-.12l0-.15,0-.14a.69.69,0,0,1,0-.13,2.46,2.46,0,0,1,.09-.34A1.72,1.72,0,0,1,16.52,0H17l.07.11.09.16c0,.06.06.12.09.17a3.24,3.24,0,0,1,.13.33c0,.12.08.24.11.37s0,.16.07.3.05.28.08.44.06.29.08.42,0,.21.05.26A9.54,9.54,0,0,1,17.9,4.1v.37a.18.18,0,0,1,0,.08h-.37a.22.22,0,0,1,0-.16.41.41,0,0,1,0-.1V4.2a6.41,6.41,0,0,0-.07-1c0-.32-.09-.63-.14-.92Zm2.43.4a1.93,1.93,0,0,1,.24.4,3.48,3.48,0,0,1,.21.48,3.75,3.75,0,0,1,.19.75,3.62,3.62,0,0,1,0,.73l-.47,0a2.77,2.77,0,0,0-.06-.81l-.09-.35L19.52,3a2.54,2.54,0,0,0-.16-.28l-.14-.24L19,2.64l0,0a2.17,2.17,0,0,0,0,.26,2.09,2.09,0,0,0,0,.25c0,.21,0,.44,0,.68v.7h-.46V4.19c0-.18,0-.35,0-.52s0-.33,0-.5V2.92a.22.22,0,0,1,0-.09.38.38,0,0,0,0-.1.43.43,0,0,1-.2-.16.66.66,0,0,1-.1-.27.38.38,0,0,1,0-.15.29.29,0,0,1,0-.16.48.48,0,0,1,.27-.29c0-.29,0-.56,0-.8s0-.48,0-.71v0a.43.43,0,0,1,0-.05.16.16,0,0,1,0-.08l.41,0V.41a2.45,2.45,0,0,0,0,.27l0,1a1.53,1.53,0,0,1,.26.16l0,0,.09-.11.08-.1a1.11,1.11,0,0,0,.12-.27A2.81,2.81,0,0,0,19.64,1a1.84,1.84,0,0,0,0-.33V.14s0-.05,0-.06,0,0,0-.07h.36l0,.07V.19a1,1,0,0,0,0,.17V.7a1.09,1.09,0,0,0,0,.18c0,.09,0,.19,0,.29a2.14,2.14,0,0,1-.08.32,2,2,0,0,1-.13.31,1.25,1.25,0,0,1-.21.3Zm-1,0c0,.07,0,.1.09.1l.21,0h0l.05,0h0a0,0,0,0,0,0,0,.23.23,0,0,0,.05,0l-.14-.11.06,0a.41.41,0,0,0-.21,0q-.09,0-.09.12m3.73-.91a1.55,1.55,0,0,1,.08.36c0,.13,0,.24,0,.36v0a2.13,2.13,0,0,1,0,.27v.48c0,.07,0,.14,0,.21s0,.3-.06.49A1.93,1.93,0,0,1,22.2,4a2.48,2.48,0,0,1-.17.29.68.68,0,0,1-.17.17l-.11.07a.31.31,0,0,1-.1.05l-.06,0h-.12a.63.63,0,0,1-.54-.35,1.34,1.34,0,0,1-.16-.37c0-.13-.06-.25-.08-.37a5.79,5.79,0,0,1-.08-1.06V2.11c0-.13,0-.26,0-.4s0-.33.06-.47,0-.26.08-.39a0,0,0,0,1,0,0h0c0-.1,0-.19.08-.29A.66.66,0,0,1,21,.26,1.36,1.36,0,0,1,21.19.1.48.48,0,0,1,21.46,0h.08a.42.42,0,0,1,.24.14.94.94,0,0,1,.16.2,2.14,2.14,0,0,1,.2.44c.05.14.09.28.13.42h0l0,.07ZM21.16,3.56c.07.32.16.51.26.56s.42-.33.5-.89a4.08,4.08,0,0,0,0-.61v-.2a1.62,1.62,0,0,0,0-.22.06.06,0,0,0,0,0v0l0-.32a1.86,1.86,0,0,0-.05-.27l0-.13h0l0-.13c0-.11-.06-.21-.1-.32a1.78,1.78,0,0,0-.12-.29v0a.22.22,0,0,0,0-.06L21.45.53,21.38.6a.49.49,0,0,0-.08.13.84.84,0,0,0-.05.17h0l0,.08a3.29,3.29,0,0,0-.07.36c0,.13,0,.26-.06.41s0,.24,0,.37,0,.23,0,.34v.26c0,.17,0,.32,0,.46s0,.26.05.39m3.45-.83a1.49,1.49,0,0,1,0,.21,1.41,1.41,0,0,1,0,.2,1.68,1.68,0,0,1-.23.91h0a3.46,3.46,0,0,1-.22.31.73.73,0,0,1-.3.22,1,1,0,0,1-.32,0h-.46a.18.18,0,0,1-.11,0A.17.17,0,0,1,23,4.47s0-.08,0-.14V4s0,0,0-.06V3.46s0-.08,0-.13c0-.2,0-.41,0-.61s0-.42,0-.62V1.69a1.09,1.09,0,0,1,0-.18V1.33c0-.16,0-.32,0-.47A3.87,3.87,0,0,0,22.83.4a.34.34,0,0,1,0-.18A.27.27,0,0,1,23,.1L23,0h.46l.27,0A.66.66,0,0,1,24,.13a.73.73,0,0,1,.23.19.79.79,0,0,1,.13.26,1.35,1.35,0,0,1,.05.29,1.5,1.5,0,0,1,0,.3,1.69,1.69,0,0,1,0,.33,1.38,1.38,0,0,1-.08.29.54.54,0,0,1-.05.11L24.21,2a.53.53,0,0,1,.12.1.49.49,0,0,1,.12.13h0a1.14,1.14,0,0,1,.17.51M23.3.5s0,.08,0,.13a.49.49,0,0,0,0,.12c0,.07,0,.15,0,.23v.4c0,.05,0,.1,0,.15v.3h.4A.59.59,0,0,0,24,1.47h0a1.3,1.3,0,0,0,0-.55l0-.17A.22.22,0,0,0,23.9.61.54.54,0,0,0,23.57.5Zm.05,1.8h0v.38c0,.06,0,.13,0,.19v.19a1.21,1.21,0,0,1,0,.19v.18a.37.37,0,0,1,0,.11V4a.07.07,0,0,1,0,0v.13h.24a.38.38,0,0,0,.17,0A.52.52,0,0,0,23.9,4L24,3.93a.91.91,0,0,0,.07-.14.69.69,0,0,0,.07-.19,1.84,1.84,0,0,0,.05-.25c0-.08,0-.16,0-.24V3a1.45,1.45,0,0,0,0-.3A.9.9,0,0,0,24,2.45a.28.28,0,0,0-.19-.12l-.07,0h-.43Zm3.34,1.11h.13l0,.18v.07a.18.18,0,0,0,0,.06,1.31,1.31,0,0,1-.06.27,1,1,0,0,1-.11.26h0a.85.85,0,0,1-.14.21.57.57,0,0,1-.3.17h0l-.08,0H26a.62.62,0,0,1-.19,0,.5.5,0,0,1-.17-.1.58.58,0,0,1-.17-.18l-.11-.19h0a.67.67,0,0,1-.09-.21c0-.08-.05-.16-.08-.25s-.06-.25-.09-.4,0-.31-.06-.48V2.55h0v0s0,0,0,0V2.27c0-.09,0-.19,0-.3s0-.2,0-.3,0-.27.08-.44A3,3,0,0,1,25.3.74l.07-.2a1.28,1.28,0,0,1,.11-.2l.13-.16a.46.46,0,0,1,.18-.13A.68.68,0,0,1,26,0a.75.75,0,0,1,.31.08.59.59,0,0,1,.24.23,1.12,1.12,0,0,1,.11.26,2.63,2.63,0,0,1,.06.39c0,.14,0,.27,0,.4v.15h-.1l-.18,0-.18,0V1.36a.91.91,0,0,0,0-.17.81.81,0,0,0,0-.16l0-.23a.4.4,0,0,0-.09-.21L26.11.53a.13.13,0,0,0-.09,0,.14.14,0,0,0-.09.05.31.31,0,0,0-.09.11.37.37,0,0,0-.05.11,1.86,1.86,0,0,0-.12.36,3.38,3.38,0,0,0-.09.41c0,.14,0,.29-.06.46v.34a.08.08,0,0,1,0,0v.12l0,.15v.21s0,.11,0,.16a.88.88,0,0,0,0,.16,2.84,2.84,0,0,0,.09.42,1.31,1.31,0,0,0,.15.37l.09.13a.15.15,0,0,0,.11.06h.05a.22.22,0,0,0,.1-.09l.06-.11a.65.65,0,0,0,.06-.21,2.25,2.25,0,0,0,.05-.22.43.43,0,0,1,0-.13h.33m1.76-1.22a1.93,1.93,0,0,1,.24.4,3.48,3.48,0,0,1,.21.48,3.75,3.75,0,0,1,.19.75,3.62,3.62,0,0,1,0,.73l-.47,0a2.77,2.77,0,0,0-.06-.81l-.09-.35L28.39,3a2.54,2.54,0,0,0-.16-.28l-.14-.24-.21.13,0,0a2.17,2.17,0,0,0,0,.26,2.09,2.09,0,0,0,0,.25c0,.21,0,.44,0,.68v.7h-.46V4.19c0-.18,0-.35,0-.52s0-.33,0-.5V2.92a.22.22,0,0,1,0-.09.38.38,0,0,0,0-.1.43.43,0,0,1-.2-.16.66.66,0,0,1-.1-.27.38.38,0,0,1,0-.15.29.29,0,0,1,0-.16.48.48,0,0,1,.27-.29c0-.29,0-.56,0-.8s0-.48,0-.71v0a.43.43,0,0,1,0-.05.16.16,0,0,1,0-.08l.41,0V.41a2.45,2.45,0,0,0,0,.27l0,1a1.53,1.53,0,0,1,.26.16l0,0,.09-.11.08-.1a1.11,1.11,0,0,0,.12-.27A2.81,2.81,0,0,0,28.51,1a1.84,1.84,0,0,0,0-.33V.14s0-.05,0-.06,0,0,0-.07H29l0,.07V.19a1,1,0,0,0,0,.17V.7a1.09,1.09,0,0,0,0,.18c0,.09,0,.19,0,.29a2.14,2.14,0,0,1-.08.32,2,2,0,0,1-.13.31,1.25,1.25,0,0,1-.21.3Zm-1,0c0,.07,0,.1.09.1l.2,0h0l0,0h0a0,0,0,0,0,0,0,.23.23,0,0,0,.05,0l-.14-.11.06,0a.41.41,0,0,0-.21,0q-.09,0-.09.12m4,.37a8.57,8.57,0,0,1,.15,1.52v.15c0,.06,0,.11,0,.16v0a0,0,0,0,1,0,0,.27.27,0,0,1,0,.08h-.37a.2.2,0,0,1,0-.16.41.41,0,0,1,0-.1V4.2a8,8,0,0,0-.06-1c-.05-.32-.1-.63-.15-.92l-.38,0h-.38V2.4c0,.28-.06.55-.07.82s0,.54,0,.81v.19a1.28,1.28,0,0,0,0,.19v.14h-.28a.33.33,0,0,1-.16,0c0-.07,0-.14,0-.22V4.08c0-.34,0-.67,0-1s.06-.67.1-1V2a.13.13,0,0,1,0-.06c0-.1,0-.2,0-.3s0-.2,0-.31a.29.29,0,0,0,0-.09s0-.08,0-.12l0-.15,0-.14a.69.69,0,0,1,0-.13A2.46,2.46,0,0,1,30,.39,1.72,1.72,0,0,1,30.18,0h.47l.08.11a.89.89,0,0,0,.09.16c0,.06.05.12.08.17A3.24,3.24,0,0,1,31,.79c0,.12.08.24.11.37s0,.16.07.3.05.28.08.44.06.29.08.42,0,.21.05.26M30.2,1.81h.3l.31,0c0-.19-.09-.38-.14-.56A2.78,2.78,0,0,0,30.5.72a.39.39,0,0,1,0-.06,0,0,0,0,1,0,0v0l0,0a1,1,0,0,0-.06.27.66.66,0,0,0,0,.13.31.31,0,0,1,0,.08l0,.11,0,.15,0,.15h0l0,.14Zm2.1,1a1.88,1.88,0,0,1,.21-.37A1.39,1.39,0,0,1,32.23,2a2.24,2.24,0,0,1-.08-.7,2.45,2.45,0,0,1,0-.27,1.11,1.11,0,0,1,.07-.26h0a.86.86,0,0,1,.27-.45.75.75,0,0,1,.35-.16l.37,0h.16l.13,0,0,0h.12s0,0,0,.11a1.66,1.66,0,0,1,0,.24c0,.09,0,.19,0,.3s0,.2,0,.3v1l.06.08a.53.53,0,0,1,.06.28.42.42,0,0,1,0,.16.41.41,0,0,1-.08.13v.89c0,.18,0,.36,0,.53v.4H33.3v-.1c0-.24,0-.48,0-.74s0-.53,0-.84h-.1l-.26-.07L32.77,3l-.12.26c0,.11-.08.22-.11.33a3.38,3.38,0,0,0-.08.34,2.59,2.59,0,0,0,0,.64H32a3.33,3.33,0,0,1,0-.63,4.29,4.29,0,0,1,.14-.62,3.28,3.28,0,0,1,.17-.45m1.17-.46c0-.08,0-.12-.09-.13l-.21,0h.06l-.14.11s0,0,0,.05h0a.59.59,0,0,0,.21,0,.08.08,0,0,0,.08-.1m-.19-1.13V.65a.09.09,0,0,1,0-.05V.53h0a1.12,1.12,0,0,0-.35,0,.31.31,0,0,0-.19.12.61.61,0,0,0-.09.2c0,.07,0,.16-.06.26a.49.49,0,0,0,0,.12V1.4a1.23,1.23,0,0,0,.06.36.87.87,0,0,0,.17.39l.07-.06L33,2h0a.72.72,0,0,1,.31-.11V1.27Zm-.42,7a.42.42,0,0,0,0-.16.53.53,0,0,0-.06-.28l-.06-.08V6.14c0-.09,0-.17,0-.24a.3.3,0,0,0,0-.11h-.15l-.12,0H32.3l-.38,0a.85.85,0,0,0-.36.16.86.86,0,0,0-.27.45h0a2,2,0,0,0-.07.26,2.45,2.45,0,0,0,0,.27,2.54,2.54,0,0,0,.08.7,1.54,1.54,0,0,0,.28.54,4.07,4.07,0,0,0-.21.37c-.06.13-.11.28-.17.45a4.29,4.29,0,0,0-.14.62,3.33,3.33,0,0,0,0,.63h.46a3.18,3.18,0,0,1,0-.64,3.37,3.37,0,0,1,.09-.34c0-.11.07-.22.11-.33l.12-.26L32,8.44l.26.07h.11v.84c0,.26,0,.5,0,.75v.09h.44V10a.66.66,0,0,1,0-.2c0-.17,0-.35,0-.53s0-.37,0-.58V8.38a.41.41,0,0,0,.08-.13m-.92-.5-.07.06a1,1,0,0,1-.18-.38,1.72,1.72,0,0,1-.05-.37.53.53,0,0,1,0-.13s0-.08,0-.12,0-.19.06-.26a.93.93,0,0,1,.08-.2.45.45,0,0,1,.2-.12,1.12,1.12,0,0,1,.35,0h0V7.58A.63.63,0,0,0,32,7.7h0l-.1.06m.51.41-.21,0h0s0,0,0,0h0l-.05,0L32.29,8l.15,0a.12.12,0,0,1,.1.13c0,.07,0,.1-.09.1M14.33,10v.08s0,0,0,0,0,0,0,0a.11.11,0,0,1-.05.09h-.45V10.1c0-.09,0-.18,0-.26a2.44,2.44,0,0,0,0-.27V9.2a.81.81,0,0,1,0-.17v-.4a1,1,0,0,1,0-.19l0-.47a2.63,2.63,0,0,1,0-.33c0-.13,0-.28,0-.45s0-.22,0-.34V6.17H13a1,1,0,0,1,0,.17V7.45c0,.14,0,.26,0,.35A1.31,1.31,0,0,1,13,8l0,.47,0,1,0,.6v0s0,0,0,0a.14.14,0,0,1-.05.09h-.41l0,0a.07.07,0,0,1,0-.05V9.84c0-.09,0-.18,0-.27V9.51l0-.32V8.77l0-.74V7.17a3.22,3.22,0,0,1,0-.33V6.15c0-.11,0-.22,0-.34V5.67h1.66s0,.05,0,.06v0l0,.54V7c0,.15,0,.31,0,.47v.11l0,.53h0c0,.06,0,.14,0,.27s0,.3,0,.5l0,.86s0,.06,0,.09v.07a.49.49,0,0,1,0,.12ZM17,5.67a.3.3,0,0,0-.1-.07l-.07,0h-.08a.37.37,0,0,0-.21.06l-.14.12a.77.77,0,0,0-.12.28,2.85,2.85,0,0,0,0,.29v0a.17.17,0,0,0,0,.07v.19a.76.76,0,0,0,0,.15V7a.35.35,0,0,0,0,.06.47.47,0,0,1,0,.1l0,.1L16,7.62c-.06.12-.12.24-.19.36l-.1.21,0,.07-.1.22a1,1,0,0,0-.07.15,1.07,1.07,0,0,0-.07.15A1.9,1.9,0,0,0,15.3,9c0-.27,0-.54,0-.79s0-.5,0-.73V7.21a1.93,1.93,0,0,0,0-.24c0-.11,0-.23,0-.34V5.7h-.4s-.06,0-.07.13v.73c0,.09,0,.18,0,.26V8.1c0,.13,0,.23,0,.32,0,.53,0,1.09,0,1.68v.14h.44l.23-.49.28-.58.32-.66.14-.24c0,.33,0,.65,0,1s0,.6,0,.88v.11h.41l.05-.06v-.06c0-.47,0-1,0-1.6l0-.78V7.51l0-.34.15-.43v0A2.42,2.42,0,0,0,17,6.35,1.32,1.32,0,0,0,17,6V5.9a.2.2,0,0,0,0-.07A.34.34,0,0,0,17,5.67m-.26.68a1.22,1.22,0,0,1-.12.19.44.44,0,0,1-.1.12v-.3l0-.14a.35.35,0,0,1,0-.11A.19.19,0,0,1,16.63,6a.08.08,0,0,1,.08,0,.1.1,0,0,1,.05.12.49.49,0,0,1-.05.19M19.13,8.6a1.49,1.49,0,0,0,0-.21,1.23,1.23,0,0,0-.17-.51h0l-.12-.13a.53.53,0,0,0-.12-.1.71.71,0,0,0,.07-.09.24.24,0,0,0,.06-.11,2.45,2.45,0,0,0,.08-.29,1.69,1.69,0,0,0,0-.33,1.5,1.5,0,0,0,0-.3,2.5,2.5,0,0,0-.05-.29A.79.79,0,0,0,18.77,6a.87.87,0,0,0-.23-.19.71.71,0,0,0-.28-.09l-.27,0h-.46a.24.24,0,0,0-.09.06.62.62,0,0,0-.09.12.48.48,0,0,0,0,.18,3.87,3.87,0,0,1,.06.46c0,.16,0,.31,0,.47V8.38c0,.21,0,.41,0,.61a.62.62,0,0,1,0,.13V9.4a.61.61,0,0,1,0,.14v.31s0,.08,0,.14a.53.53,0,0,0,0,.14.14.14,0,0,0,.06.12.16.16,0,0,0,.11.05h.46a1,1,0,0,0,.32,0,.71.71,0,0,0,.3-.21l.23-.31h0a1.73,1.73,0,0,0,.23-.91,1.48,1.48,0,0,0,0-.21M17.8,6.29s0-.09,0-.13h.27a.52.52,0,0,1,.33.11.22.22,0,0,1,.08.14,1.36,1.36,0,0,1,0,.17,1.48,1.48,0,0,1,0,.55h0a.65.65,0,0,1-.25.35h-.4V7a.76.76,0,0,0,0-.15,2.09,2.09,0,0,0,0-.25,1.77,1.77,0,0,0,0-.23.49.49,0,0,0,0-.12m.88,2.48a1.93,1.93,0,0,1,0,.24,1.87,1.87,0,0,1,0,.25l-.07.19a.87.87,0,0,1-.08.14l-.09.09-.1.07a.48.48,0,0,1-.18.05h-.24V9.67a.07.07,0,0,0,0-.05V9.21s0-.08,0-.11V8.92c0-.06,0-.12,0-.19V8.54a1.15,1.15,0,0,1,0-.19V8h.45l.07,0a.37.37,0,0,1,.2.12.88.88,0,0,1,.11.24.77.77,0,0,1,0,.3Zm2.79-1v0c0-.11,0-.23,0-.36A1.55,1.55,0,0,0,21.35,7h0l0-.07h0c0-.14-.09-.28-.13-.42A2.86,2.86,0,0,0,21,6a1.4,1.4,0,0,0-.16-.2.48.48,0,0,0-.25-.14h-.08a.42.42,0,0,0-.27.09.86.86,0,0,0-.17.15.65.65,0,0,0-.17.27c0,.09-.05.18-.08.28h0v0a2.7,2.7,0,0,0-.08.39c0,.14,0,.29-.06.47s0,.27,0,.4,0,.26,0,.38a6.83,6.83,0,0,0,.08,1.06l.09.37A1.1,1.1,0,0,0,20,10a.64.64,0,0,0,.54.36h.12l.07,0,.1,0,.11-.07A.55.55,0,0,0,21.1,10a2.52,2.52,0,0,0,.16-.29,1.65,1.65,0,0,0,.16-.52c0-.18,0-.35.06-.49s0-.14,0-.21V8a2.13,2.13,0,0,0,0-.27M21,8.29a5.85,5.85,0,0,1,0,.6c-.08.56-.25.86-.51.89-.1,0-.19-.24-.26-.56l-.06-.39q0-.21,0-.45V8.11c0-.1,0-.22,0-.34s0-.25,0-.37A2.7,2.7,0,0,1,20.22,7a3.29,3.29,0,0,1,.07-.36l0-.08h0a.84.84,0,0,1,.05-.17.49.49,0,0,1,.08-.13s0-.06.07-.06l.07.06.05.06v0a2.71,2.71,0,0,1,.13.3l.09.31,0,.13h0l0,.13a1.7,1.7,0,0,1,.06.28l0,.31v.08a1.8,1.8,0,0,1,0,.22v.21Zm2.79.31c0-.07,0-.14,0-.21a1.11,1.11,0,0,0-.18-.51h0a.69.69,0,0,0-.11-.13l-.12-.1.07-.09.06-.11a1.37,1.37,0,0,0,.07-.29,3,3,0,0,0,0-.33c0-.1,0-.2,0-.3a.93.93,0,0,0-.05-.29.71.71,0,0,0-.36-.45A.72.72,0,0,0,23,5.7l-.28,0h-.45l-.1.06a.36.36,0,0,0-.08.12.34.34,0,0,0,0,.18,3.87,3.87,0,0,1,.06.46c0,.16,0,.31,0,.47v.18a1.09,1.09,0,0,0,0,.18v.41c0,.21,0,.41,0,.62s0,.41,0,.61c0,0,0,.09,0,.13v.49s0,0,0,.06V10a.82.82,0,0,1,0,.14.23.23,0,0,0,.06.12.18.18,0,0,0,.11.05h.47a1.07,1.07,0,0,0,.32,0,.71.71,0,0,0,.3-.21c.08-.1.15-.21.22-.31h0a1.73,1.73,0,0,0,.23-.91c0-.07,0-.14,0-.21M22.49,6.29a.51.51,0,0,0,0-.13h.27a.55.55,0,0,1,.34.11.22.22,0,0,1,.08.14l0,.17a1.3,1.3,0,0,1,0,.55h0a.56.56,0,0,1-.25.35h-.39V6.64c0-.08,0-.15,0-.23s0-.08,0-.12m.88,2.48c0,.08,0,.16,0,.24a1,1,0,0,1-.05.25.69.69,0,0,1-.07.19.91.91,0,0,1-.07.14l-.09.09L23,9.75a.39.39,0,0,1-.18.05h-.23V9.67a.43.43,0,0,0,0-.05V9.55a.41.41,0,0,0,0-.11V9.21a.37.37,0,0,0,0-.11V8.92a1.15,1.15,0,0,1,0-.19,1.15,1.15,0,0,1,0-.19V8H23L23,8a.35.35,0,0,1,.19.12.9.9,0,0,1,.12.24,1.53,1.53,0,0,1,0,.3v.12ZM26.08,8c0-.13,0-.27-.08-.42s-.06-.3-.09-.44-.05-.24-.06-.3l-.12-.37c0-.11-.08-.22-.13-.33L25.51,6l-.09-.16-.07-.11h-.48a2.39,2.39,0,0,0-.17.37,2.46,2.46,0,0,0-.09.34.68.68,0,0,0,0,.14l0,.13,0,.15s0,.08,0,.12a.29.29,0,0,1,0,.09c0,.11,0,.21-.05.31s0,.2-.05.3,0,0,0,.07v0c0,.33-.07.67-.09,1s0,.67,0,1a1.62,1.62,0,0,0,0,.21v.22a.37.37,0,0,0,.17.05h.27l0-.09v0a1.21,1.21,0,0,1,0-.19V9.69c0-.27,0-.53,0-.81s0-.54.07-.82V8h.39l.38,0c0,.29.1.6.15.92a8,8,0,0,1,.06,1V10a.34.34,0,0,0,0,.1.2.2,0,0,0,.05.16h.37c0-.05,0-.07,0-.09v-.06a.81.81,0,0,0,0-.16V9.76a8.57,8.57,0,0,0-.15-1.52s0-.13,0-.26m-.89-.51h-.3l0-.2,0-.14h0L25,7l0-.15,0-.11a.25.25,0,0,0,0-.08.49.49,0,0,1,0-.12,1.06,1.06,0,0,1,.06-.28l0,0v0l0,.06a5.17,5.17,0,0,1,.18.51c.05.18.09.37.14.56l-.32,0M28.41,7V6.66a.41.41,0,0,0,0-.11c0-.09,0-.18,0-.28a.91.91,0,0,0-.14-.3.8.8,0,0,0-.5-.28,1.27,1.27,0,0,0-.28,0h-.7a.28.28,0,0,0,0,.09s0,0,0,.07v0c0,.71,0,1.41,0,2.11s0,1.4,0,2.11a.11.11,0,0,0,0,.05l0,.06h.4a.32.32,0,0,0,0-.08.08.08,0,0,0,0,0c0-.27,0-.53,0-.79s0-.53,0-.79h.34a1.36,1.36,0,0,0,.29-.06.59.59,0,0,0,.23-.14,1,1,0,0,0,.25-.37,2,2,0,0,0,.12-.54,1.4,1.4,0,0,0,0-.29V7s0,0,0-.08M28,7.09v.2s0,.09,0,.13-.05.25-.08.34a.32.32,0,0,1-.13.21.38.38,0,0,1-.17.08l-.21,0h-.2v-2a3.44,3.44,0,0,1,.43,0,.39.39,0,0,1,.27.14.3.3,0,0,1,.06.14c0,.06,0,.11,0,.17a.06.06,0,0,0,0,0v.13a.22.22,0,0,1,0,.08.31.31,0,0,1,0,.1A.28.28,0,0,1,28,7a.15.15,0,0,1,0,.07M30.64,10v.12s0,0,0,0a.14.14,0,0,1-.05.09h-.45v-.05a.18.18,0,0,1,0-.06V9.84c0-.09,0-.18,0-.27V9.52l0-.32V8.78a.66.66,0,0,0,0-.15V8.44h-.73l0,1,0,.6s0,0,0,0a0,0,0,0,1,0,0,.14.14,0,0,1-.05.09h-.41s0,0,0,0a.07.07,0,0,1,0-.05V9.84c0-.09,0-.18,0-.27V9a2.35,2.35,0,0,0,0-.26l0-.74a.57.57,0,0,1,0-.12V7.48a2.91,2.91,0,0,1,0-.31V5.67h.49l0,.07a.06.06,0,0,1,0,.06,2.46,2.46,0,0,0,0,.26c0,.09,0,.18,0,.27V7.45c0,.14,0,.26,0,.35V8h.73c0-.08,0-.19,0-.33s0-.28,0-.45V5.74l.06-.06h.4l0,.06V7c0,.15,0,.31,0,.47v.11l0,.53h0c0,.06,0,.14,0,.27s0,.3,0,.5l0,.86v.09a.2.2,0,0,1,0,.07s0,.08,0,.12Z"/></g></g></svg>