<svg xmlns="http://www.w3.org/2000/svg" viewBox="0 0 77.66 31.74"><defs><style>.cls-1{fill:#fff;}</style></defs><g id="圖層_2" data-name="圖層 2"><g id="_0-ui_kits" data-name="0-ui_kits"><path id="logo_beer_oslo" class="cls-1" d="M0,29.09a1.87,1.87,0,0,1,.18-.55,2.34,2.34,0,0,1,.33-.49,2.31,2.31,0,0,1,1-.67,2.41,2.41,0,0,1,.65-.12,3.38,3.38,0,0,1,1.44.26l.2.09-.27.65-.15-.05A2.47,2.47,0,0,0,2.26,28,1.49,1.49,0,0,0,1,30.13,1.43,1.43,0,0,0,2.21,31a2.73,2.73,0,0,0,1.26-.21l.18-.07.24.65a1.51,1.51,0,0,1-.18.09,3.48,3.48,0,0,1-.94.27,3.25,3.25,0,0,1-1.48-.23,2.18,2.18,0,0,1-.95-.8c-.07-.12-.13-.25-.19-.38A2.25,2.25,0,0,1,0,29.09ZM0,13.81c0-.07,0-.14,0-.22A9.22,9.22,0,0,1,2.53,8.27,9.13,9.13,0,0,1,6.35,5.78a9.26,9.26,0,0,1,2.71-.49,9,9,0,0,1,4.37.9,9.25,9.25,0,0,1,4.31,4.14,8.64,8.64,0,0,1,1,3.05,9.39,9.39,0,0,1-7.47,10.5A9.39,9.39,0,0,1,3,21.57a9.19,9.19,0,0,1-2.85-5.1c0-.25-.08-.5-.12-.75A.33.33,0,0,0,0,15.53M16.4,0V2.07h-14V0ZM75.29,0V2c-.15,0-13.56.07-14,0V0ZM16.38,14.68a7,7,0,1,0-7.19,7h.1a7,7,0,0,0,7.09-6.87v-.09Zm61.28.82,0,.12a7.59,7.59,0,0,1-.47,2.16A9.33,9.33,0,0,1,72.57,23a8.84,8.84,0,0,1-3.37,1,9.19,9.19,0,0,1-7.27-2.44,9,9,0,0,1-2.88-5.26A9.39,9.39,0,0,1,66.38,5.48a8.87,8.87,0,0,1,2-.2,9.39,9.39,0,0,1,9.12,7.47c.06.31.09.63.13.95l0,.14Zm-16.34-.85a7,7,0,0,0,13.95.09v-.07a7,7,0,0,0-13.94,0h0ZM54.83,31.74a.28.28,0,0,1,0-.09c.41-.92.83-1.84,1.25-2.76l0,0s0,0,0,0l1.3,2.83h.29a1.16,1.16,0,0,1,0-.18l1.23-4c0-.06,0-.12,0-.18h-.83L57.45,30h0L56.27,27.3H56l-1.15,2.77L54,27.34h-.85a1.24,1.24,0,0,1,0,.16c.19.59.37,1.19.56,1.78l.75,2.45Zm22.83-4.4h-.84l-1.1,1.9-1.09-1.9h-.89l.1.17c.46.77.93,1.53,1.39,2.29a.55.55,0,0,1,.09.33V31.5c0,.05,0,.1,0,.17h.77v-1.5a.63.63,0,0,1,.11-.38l.85-1.4.6-1ZM24.42,22.47l.17.1a12.5,12.5,0,0,0,2.42,1,10.52,10.52,0,0,0,2.43.45,10.32,10.32,0,0,0,2.42-.11A7.29,7.29,0,0,0,34,23.23a4.41,4.41,0,0,0,2.34-2.9,5.65,5.65,0,0,0,.13-2.09,4,4,0,0,0-1-2.27,6.84,6.84,0,0,0-1.12-1,13.71,13.71,0,0,0-2.5-1.28c-.62-.25-1.25-.48-1.87-.75a6.12,6.12,0,0,1-1.65-1,2.16,2.16,0,0,1-.69-.94,2.45,2.45,0,0,1,.17-2,2.55,2.55,0,0,1,1.59-1.26,5.1,5.1,0,0,1,2.33-.09,10.6,10.6,0,0,1,2.69.88l.31.15.85-2.34-.36-.18a10.61,10.61,0,0,0-5.56-.86,5.81,5.81,0,0,0-2.41.82,4.84,4.84,0,0,0-2.45,4.32,3.94,3.94,0,0,0,1.07,2.76,5.75,5.75,0,0,0,1,.86,11.69,11.69,0,0,0,2.42,1.22,21.87,21.87,0,0,1,2.24.91,6.94,6.94,0,0,1,1.47.91,2.37,2.37,0,0,1,.24,3.34l0,0a3.15,3.15,0,0,1-1.55.89,6.28,6.28,0,0,1-2.66.06,10.16,10.16,0,0,1-3.49-1.3l-.19-.11-.91,2.36,0,0Zm18.81,1.12H54.78v-2.4H45.9V5.48H43.23Zm-8.14,8.06v-4.3h1.45a2.07,2.07,0,0,1,.92.18,1,1,0,0,1,.57,1.3.92.92,0,0,1-.43.52l-.23.12.21.09a1,1,0,0,1,.55,1.3,1,1,0,0,1-.3.41,1.83,1.83,0,0,1-1.1.4c-.53,0-1.06,0-1.59,0l0,0Zm.77-1.88v1.17a3.72,3.72,0,0,0,1,0,.82.82,0,0,0,.26-.1.51.51,0,0,0,.18-.69.42.42,0,0,0-.17-.18.85.85,0,0,0-.26-.11,3.42,3.42,0,0,0-1-.07Zm0-.56h.63A.91.91,0,0,0,37,29a.53.53,0,0,0,.24-.53.49.49,0,0,0-.38-.4.4.4,0,0,0-.15,0L36,28l-.12,0Zm7.57.84,1.15,1.61h-.9c-.32-.46-.64-.9-1-1.36a.33.33,0,0,0-.31-.15c-.16,0-.32,0-.5,0v1.5h-.76v-4.3l.07,0c.62,0,1.24,0,1.86,0a1.49,1.49,0,0,1,.77.24,1.2,1.2,0,0,1,.58,1,1.94,1.94,0,0,1,0,.53,1.24,1.24,0,0,1-.74.82l-.1,0Zm-1.51-.57h1a.8.8,0,0,0,.43-.15.63.63,0,0,0,.28-.5.64.64,0,0,0-.54-.74h0a5.44,5.44,0,0,0-.57,0c-.19,0-.38,0-.58,0Zm26.36-2.11h2a1.53,1.53,0,0,1,.66.19,1.19,1.19,0,0,1,.66,1.05,1.29,1.29,0,0,1-.91,1.4l-.09,0,1.14,1.61h-.9l-.71-1-.28-.41a.19.19,0,0,0-.15-.09h-.61v1.49h-.76ZM69,29.48H70.1l.16,0a.68.68,0,0,0,.51-.84.43.43,0,0,0,0-.05.63.63,0,0,0-.58-.47c-.34,0-.68,0-1,0H69Zm-61.57.68v1.5H6.74c0-.13,0-3.89,0-4.28l.06,0H8.66a1.52,1.52,0,0,1,.63.17,1.19,1.19,0,0,1,.7,1.13,1.35,1.35,0,0,1-.1.63,1.33,1.33,0,0,1-.74.68L9,30l1.14,1.62h-.9l-.33-.47c-.21-.3-.43-.6-.64-.91A.23.23,0,0,0,8,30.16c-.18,0-.35,0-.56,0Zm0-.68c.36,0,.7,0,1,0a.69.69,0,0,0,.69-.7v0a.64.64,0,0,0-.61-.66h0c-.37,0-.74,0-1.11,0l0,0Zm39.91-2.13v4.29c.21,0,2.67,0,2.81,0V31h-2v-.52a2.18,2.18,0,0,1,0-.51H50v-.67H48.16V28h2v-.69ZM65,31.66V31H63v-1h1.83v-.68H63.62c-.2,0-.4,0-.6,0V28h2v-.7h-2.8v4.32Zm-48.38,0h-.83l-.37-.84H13.6l-.37.84h-.81l2-4.35h.19Zm-1.48-1.48-.65-1.46-.64,1.46ZM22.3,30v-.69H20.5V28h2v-.69c-.47,0-2.66,0-2.8,0,0,.45,0,4.17,0,4.29h.74V30H22.3ZM27.47,28h1.4v-.69H25.25v.7h1.44v3.61h.78Z"/></g></g></svg>