<svg xmlns="http://www.w3.org/2000/svg" viewBox="0 0 39.26 31.74"><defs><style>.cls-1{fill:#fff;}</style></defs><g id="圖層_2" data-name="圖層 2"><g id="_0-ui_kits" data-name="0-ui_kits"><path id="logo_beer_topa" class="cls-1" d="M39.25,13.09l-1.62,1.42c-.36.31-.74.6-1.16.93l-2.4-1.9-2.41,1.9-2.4-1.9-2.4,1.9-2.41-1.9-2.4,1.9-2.4-1.91-2.4,1.91-2.42-1.9-2.4,1.9L10,13.54l-2.41,1.9-2.4-1.9-2.4,1.91C1.88,14.65.86,14,0,13.12a3.55,3.55,0,0,1,.23-.31A1.53,1.53,0,0,1,.5,12.7l2.32,1.84,2.4-1.9,2.4,1.9L10,12.63l2.39,1.91,2.41-1.9,2.42,1.9,2.4-1.91,2.4,1.91,2.4-1.9,2.41,1.9,2.4-1.9,2.4,1.9,2.4-1.91,2.4,1.91,2.38-1.87.42.32Zm-37,18.65a3.72,3.72,0,0,0,2-1.25,1,1,0,0,1,1.4-.18l.17.17a4.63,4.63,0,0,0,1.8,1.26h.5A3.66,3.66,0,0,0,10,30.52a1,1,0,0,1,1.4-.22,1.12,1.12,0,0,1,.2.18,4.6,4.6,0,0,0,1.81,1.26H14a4,4,0,0,0,1.85-1.23c.5-.55,1.1-.47,1.7,0A4.94,4.94,0,0,0,19.1,31.6a2.16,2.16,0,0,0,2.32-.76c.92-1,1.32-1,2.24,0a2.3,2.3,0,0,0,3.23.42,2,2,0,0,0,.49-.52c.69-.76,1.33-.79,2,0a3.58,3.58,0,0,0,1.72,1h.6a5.33,5.33,0,0,0,1.79-1.29,1,1,0,0,1,1.42-.09.75.75,0,0,1,.15.16A3.76,3.76,0,0,0,37,31.74h.4a3,3,0,0,0,1.89-1.29v-.2L38.85,30l-.16-.1a2.11,2.11,0,0,1-.24.44,1.62,1.62,0,0,1-2.27.28,1.85,1.85,0,0,1-.28-.28c-.1-.11-.19-.23-.3-.33a1.73,1.73,0,0,0-2.45-.22,2.28,2.28,0,0,0-.22.22,1.87,1.87,0,0,1-3.22,0,1.75,1.75,0,0,0-2.46-.2,1.88,1.88,0,0,0-.24.25,5.67,5.67,0,0,1-.48.5,1.53,1.53,0,0,1-2.11,0c-.22-.18-.39-.4-.6-.59a1.76,1.76,0,0,0-2.46-.06,3.41,3.41,0,0,0-.37.39,1.64,1.64,0,0,1-2.29.38,1.26,1.26,0,0,1-.33-.32c-.11-.1-.21-.22-.31-.32a1.8,1.8,0,0,0-2.54-.15l-.18.18c-.15.15-.28.32-.45.46a1.56,1.56,0,0,1-2.21,0l0-.06c-.18-.17-.34-.36-.52-.53a1.75,1.75,0,0,0-2.46,0c-.2.17-.37.38-.56.56a1.58,1.58,0,0,1-2.24.07l-.06-.07c-.21-.19-.39-.41-.6-.59a1.75,1.75,0,0,0-2.38,0c-.15.13-.28.28-.42.42a1.6,1.6,0,0,1-2.25.34,2,2,0,0,1-.3-.28C.69,30.26.53,30.13.36,30L0,30.45A3,3,0,0,0,.5,31c.39.27.83.48,1.24.72Zm37-4.47a.58.58,0,0,1-.1-.12Q37,22.46,34.88,17.76c-.14-.32-.32-.58-.7-.59s-.61.25-.76.59c-.41.93-.84,1.86-1.26,2.79L29.24,27c-.32.7-.07,1.08.7,1.09h1.19a1,1,0,0,0,1-.63c.13-.28.25-.57.38-.85H35.8c.42.54.35,1.54,1.38,1.47.7-.05,1.48.27,2.07-.38Zm-.79.06H37l-.66-1.44H32l-.65,1.44H29.85l4.3-9.48Zm.79-17.12s0,0,0,0L34.9.72c-.15-.34-.3-.65-.76-.64s-.6.32-.75.66l-2.1,4.63q-1,2.26-2.06,4.54c-.29.64-.06,1,.61,1h1.33a.9.9,0,0,0,.93-.6c.12-.3.26-.59.39-.87h3.34c.13.29.26.57.38.85a.86.86,0,0,0,.95.62,11.81,11.81,0,0,1,1.19,0,.88.88,0,0,0,.9-.42ZM34.15.75l4.3,9.46H36.93l-.65-1.45H32l-.65,1.44H29.86ZM7.67,3c.6,0,.81-.21.81-.79V.93c0-.57-.19-.78-.77-.79s-1.26,0-1.89,0H.91C.24.14.05.34.05,1V2.09c0,.67.21.87.89.87H2.82v7c0,.71.19.9.91.9H4.82c.71,0,.89-.18.89-.87V3ZM5,10.13H3.53V2.27H.77V.88h7V2.24H5ZM2.83,20.63v6.54c0,.6.2.8.8.8H4.87c.69,0,.85-.16.85-.84V20.05H7.83a.58.58,0,0,0,.65-.51.29.29,0,0,0,0-.13q0-.72,0-1.44c0-.51-.22-.71-.73-.72H.81c-.51,0-.74.22-.75.71s0,.92,0,1.39.22.69.7.69c.66,0,1.32,0,2.06,0Zm.69,6.63v-7.9H.78V18h7v1.35H5.05v7.93ZM14.27,17.1a5.48,5.48,0,0,0-5.4,5.34,5.42,5.42,0,0,0,5.18,5.67h.16a5.39,5.39,0,0,0,5.4-5.38v-.09a5.42,5.42,0,0,0-5.3-5.55Zm4.64,5.53a4.67,4.67,0,0,1-4.55,4.77h-.14a4.67,4.67,0,0,1-4.65-4.68v-.08a4.69,4.69,0,0,1,4.57-4.81h.1a4.69,4.69,0,0,1,4.68,4.71s0,.05,0,.08ZM14.26,0A5.41,5.41,0,0,0,8.88,5.4,5.36,5.36,0,0,0,14,11h.22a5.37,5.37,0,0,0,5.39-5.36V5.53A5.42,5.42,0,0,0,14.31,0Zm0,10.31A4.7,4.7,0,0,1,9.57,5.58v0A4.75,4.75,0,0,1,14.21.69h0a4.75,4.75,0,0,1,4.69,4.8v0a4.69,4.69,0,0,1-4.59,4.8ZM25.84,7.23a3.51,3.51,0,0,0,3.3-3.43A3.41,3.41,0,0,0,26,.19c-1.2-.07-2.41,0-3.62,0-.5,0-.7.24-.7.75,0,3.07,0,6.15,0,9.22,0,.53.22.74.76.76h1.33c.56,0,.77-.24.78-.79V7.23Zm-2,2.91H22.41V.91a31.07,31.07,0,0,1,3.86,0,2.72,2.72,0,0,1,2.16,3.13A2.85,2.85,0,0,1,25.7,6.54H23.85Zm1.78,14.18a3.48,3.48,0,0,0,3.48-3,3.39,3.39,0,0,0-2.72-3.93,29.46,29.46,0,0,0-4.2-.1c-.36,0-.51.32-.51.68v9.31c0,.5.22.7.73.71h1.29c.67,0,.85-.18.85-.85v-2.8Zm-1.77,2.92H22.4V18a27.47,27.47,0,0,1,3.85,0,2.65,2.65,0,0,1,2.19,3.05v.05a2.8,2.8,0,0,1-2.67,2.45c-.61,0-1.22,0-1.89,0Zm10.51-5.69h-.47l-1.34,3h3.16Zm-.24,1.19.51,1.13h-1Zm1.6-15.25-1.35-3h-.5l-1.33,3Zm-1.08-.7h-1l.5-1.16ZM17.39,22.61a3.15,3.15,0,0,0-3.13-3.19h0a3.14,3.14,0,0,0-3.13,3.14v.06a3.12,3.12,0,0,0,3.07,3.18h.07a3.14,3.14,0,0,0,3.14-3.14v-.05Zm-.68,0a2.47,2.47,0,1,1-2.48-2.5,2.49,2.49,0,0,1,2.48,2.5Zm.68-17.1a3.23,3.23,0,0,0-3.14-3.24A3.2,3.2,0,0,0,11.11,5.5a3.18,3.18,0,0,0,3.12,3.23h0a3.2,3.2,0,0,0,3.16-3.21Zm-5.61,0A2.57,2.57,0,0,1,14.21,3a2.56,2.56,0,0,1,2.5,2.5A2.55,2.55,0,0,1,14.26,8a2.54,2.54,0,0,1-2.48-2.52Zm12.75-.36c.38,0,.77,0,1.15,0A1.45,1.45,0,0,0,27,3.72,1.37,1.37,0,0,0,25.87,2.3c-.64-.06-1.3,0-2,0V5.15Zm0-2.17a10.28,10.28,0,0,1,1.11,0,.64.64,0,0,1,.62.65.74.74,0,0,1-.66.79,7.64,7.64,0,0,1-1.07,0Zm.94,19.25A1.4,1.4,0,0,0,27,20.91v0a1.38,1.38,0,0,0-1.22-1.5,16.83,16.83,0,0,0-1.88,0v2.86Zm-.94-2.18c.35,0,.68,0,1,0a.74.74,0,1,1-.06,1.47h-.71l-.23,0Z"/></g></g></svg>