<svg xmlns="http://www.w3.org/2000/svg" viewBox="0 0 65.93 31.73"><defs><style>.cls-1{fill:#fff;}</style></defs><g id="圖層_2" data-name="圖層 2"><g id="_0-ui_kits" data-name="0-ui_kits"><path id="logo_beer_the_bruery" class="cls-1" d="M35.32,4.48l-1.91.15c-1.8.14-3.61.25-5.41.4a15.12,15.12,0,0,0-4.25.89,5.49,5.49,0,0,0-2.11,1.33,1.75,1.75,0,0,0-.54,1.4,4.15,4.15,0,0,0,.47-.2,11.47,11.47,0,0,1,3.54-1.23,4.49,4.49,0,0,1,2,.1c1.16.35,1.37,1.25.48,2.08a4.91,4.91,0,0,1-2.16,1.08,5.26,5.26,0,0,1-3.19,0,14.1,14.1,0,0,1-1.56-.77l-.85.82c.26.19.49.36.7.53a4,4,0,0,1,1.68,3.42,4.23,4.23,0,0,1-1.57,3.08c-.2.18-.42.32-.66.51a1.7,1.7,0,0,0,.23.3,5.22,5.22,0,0,1,.83,6.22A5.76,5.76,0,0,1,18.7,27a4.14,4.14,0,0,1-2.09.53,2.74,2.74,0,0,1-2.68-2.65,4.15,4.15,0,0,1,1.48-3.44,2.85,2.85,0,0,1,1.48-.83l-.27.41a2.42,2.42,0,0,0-.45,1.29,1.24,1.24,0,0,0,1.08,1.38,1.27,1.27,0,0,0,.58-.07,2.88,2.88,0,0,0,1.8-1.46,3.26,3.26,0,0,0,.15-3.21c-.28-.57-.36-.57-1-.43a10.75,10.75,0,0,1-1.69.24c-.49,0-.74-.17-.79-.45s.16-.62.65-.69a6.94,6.94,0,0,1,1.51,0,.86.86,0,0,0,.87-.3,5.32,5.32,0,0,0,1.34-4.33,3,3,0,0,0-1.18-2c-.23.27-.46.53-.66.8a26.14,26.14,0,0,0-3.62,6.72C14.61,20.2,14,22,13.38,23.68a13.92,13.92,0,0,1-2.88,5,8.88,8.88,0,0,1-7.31,3c-.2,0-.39-.06-.59-.09a.52.52,0,0,1-.46-.4C1.45,29.19.74,27.15,0,25a2.46,2.46,0,0,1,.34.22,5.17,5.17,0,0,0,5.29,1.13A7.59,7.59,0,0,0,10.17,23c.78-1.25,1.48-2.55,2.16-3.86a36.06,36.06,0,0,1,4.31-6.63c.59-.7,1.25-1.35,1.9-2a1.94,1.94,0,0,0-1.2-.41,10.56,10.56,0,0,0-9.39,3,6.09,6.09,0,0,0-1.78,3.39c0,.11,0,.22,0,.33a1.89,1.89,0,0,0,2.63,2A6.22,6.22,0,0,0,11.59,17a11.22,11.22,0,0,0,2.52-4,.51.51,0,0,1,.27-.32,4.81,4.81,0,0,1-.07.53,15.92,15.92,0,0,1-3,6.27,8.3,8.3,0,0,1-3.85,2.8,4.5,4.5,0,0,1-2.41.22,3.07,3.07,0,0,1-2.5-2.42A5.17,5.17,0,0,1,2.79,17,9,9,0,0,1,6.34,12.4a15.22,15.22,0,0,1,10-2.84,11.66,11.66,0,0,1,2.19.45.78.78,0,0,0,.84-.15,2.41,2.41,0,0,1,.48-.36,1,1,0,0,0,.62-1.09,2.4,2.4,0,0,1,.84-1.67,8.1,8.1,0,0,1,2.51-1.69,22.19,22.19,0,0,1,5.3-1.59,64.63,64.63,0,0,1,7.09-.81,48.47,48.47,0,0,0,7.86-1A20.49,20.49,0,0,0,48,.25L48.6,0c0,.35-.28.41-.44.51A21,21,0,0,1,42.65,3c-.95.28-1.91.51-2.88.74a.9.9,0,0,0-.7.52c-.28.66-.59,1.31-.89,2l.11.09a3.48,3.48,0,0,1,.43-.22,4.8,4.8,0,0,1,1-.38.77.77,0,0,1,.91.59.67.67,0,0,1,0,.2,2.16,2.16,0,0,1-.14.83c-.2.53-.45,1.05-.68,1.57a.65.65,0,0,0,0,.13c-.08.3-.36.66-.06.91s.55.07.88.09c0,.07-.07.2-.15.26a9.05,9.05,0,0,1-1.37.91c-.88.4-1.54-.08-1.49-1.06a3.4,3.4,0,0,1,.25-1.08c.2-.46.47-.89.71-1.34L39,7A1.79,1.79,0,0,0,37.5,8c-.28.67-.55,1.35-.83,2-.2.48-.42,1-.63,1.45a.75.75,0,0,1-.55.51l-1.75.35c-.05,0-.11,0-.24-.1l4-8c-.85,0-1.63,0-2.06.93s-.74,1.45-1.06,2.2c-.46,1-.85,2.12-1.32,3.16a6.25,6.25,0,0,1-1.41,2.06,3.43,3.43,0,0,1-2.06.95,1.6,1.6,0,0,1-1.83-1.31,1.54,1.54,0,0,1,.15-1,8.05,8.05,0,0,1,.71-1.08l.14,0a1.71,1.71,0,0,0,0,.32.84.84,0,0,0,.91.76h.07a1.93,1.93,0,0,0,.89-.39,6.32,6.32,0,0,0,1-1.12,16.83,16.83,0,0,0,.9-1.46c.4-.66.76-1.35,1.2-2S34.76,5.14,35.32,4.48Zm-14,4.78a1.87,1.87,0,0,0,1.1.8,4.51,4.51,0,0,0,2.22.1,3.26,3.26,0,0,0,1.62-.69,1.16,1.16,0,0,0,.42-1.23,1,1,0,0,0-1-.57,6.4,6.4,0,0,0-1.31.13,6.64,6.64,0,0,0-3,1.46ZM18.38,18a2,2,0,0,0-1.46,0c-.09,0-.15.15-.21.22s.17.21.27.23a1.53,1.53,0,0,0,1.4-.44Zm41.89-6.57,0,0,0,0-.12.26c-.38.72-.75,1.44-1.15,2.14A25.53,25.53,0,0,1,56.11,18a9,9,0,0,1-3.41,2.42,21.3,21.3,0,0,1-7.1,1.4l-6.34.28a58.06,58.06,0,0,0-6.18.66,35.21,35.21,0,0,0-15.66,6.82,3.32,3.32,0,0,0-.37.38l.09.11c.25-.12.5-.24.74-.38A35.35,35.35,0,0,1,33.4,24.84c2.43-.19,4.87-.4,7.31-.65A43.76,43.76,0,0,0,50.85,21.8a19.93,19.93,0,0,0,6.41-3.61,25.19,25.19,0,0,0,4.79-5.7c1.42-2.26,2.61-4.64,3.82-7a1.31,1.31,0,0,0,.06-.27c-.91.26-1.75.51-2.6.74a1,1,0,0,0-.66.57c-.46.92-.94,1.84-1.45,2.74a6.41,6.41,0,0,1-1.59,1.92,2.37,2.37,0,0,1-.86.45c-.42.11-.69-.18-.62-.61a2.61,2.61,0,0,1,.22-.61l1.75-3.69a2.83,2.83,0,0,0-.42.07c-.59.18-1.17.38-1.77.55a.94.94,0,0,0-.63.52c-.42.87-.88,1.72-1.3,2.59a17.13,17.13,0,0,0-.84,1.86A3.69,3.69,0,0,0,55,13.67a1.05,1.05,0,0,0,1,1.1,1,1,0,0,0,.34,0A2.69,2.69,0,0,0,57.8,14c.65-.62,1.26-1.29,1.88-1.93l.46-.43ZM35,18.94a2.31,2.31,0,0,0,.1.64,1.05,1.05,0,0,0,1.25.82l.19,0a3,3,0,0,0,.93-.48,8.41,8.41,0,0,0,2.23-2.66,9.2,9.2,0,0,0,.43-1.14L40,16l-.46.41a9,9,0,0,1-.83.67.66.66,0,0,1-.53.08c-.1-.06-.13-.35-.1-.52a3.09,3.09,0,0,1,.26-.74c.45-1,.91-1.91,1.37-2.86.08-.17.15-.34.25-.57l-2.36.68a.89.89,0,0,0-.58.49c-.26.56-.52,1.11-.81,1.66a10.93,10.93,0,0,1-1,1.64,13.73,13.73,0,0,1-1.51,1.54.6.6,0,0,1-.79.11c-.3-.22-.17-.52-.07-.79a2.75,2.75,0,0,1,.15-.36l1.45-3,.24-.54c-.79.23-1.48.45-2.17.63a.88.88,0,0,0-.63.51c-.48,1-1,2-1.47,2.95a8.81,8.81,0,0,0-.53,1.49A2.5,2.5,0,0,0,30,21.06a1,1,0,0,0,1.25.64h0A4.16,4.16,0,0,0,32.47,21a10.8,10.8,0,0,0,2.05-2.32c.11-.18.24-.34.46-.65,0,.4,0,.64,0,.87ZM47.7,14.5a4,4,0,0,1-.27.71,7,7,0,0,1-4.17,3.44,3.82,3.82,0,0,1-1.3.1,1.33,1.33,0,0,1-1.25-1,3.76,3.76,0,0,1-.14-1.11,6.68,6.68,0,0,1,4.8-5.69,3.22,3.22,0,0,1,1-.06.91.91,0,0,1,.95.87.86.86,0,0,1,0,.23,2.57,2.57,0,0,1-.57,1.38,6,6,0,0,1-2.3,1.73,3.92,3.92,0,0,0-.36.16c-.18.11-.51.24-.5.34a1.43,1.43,0,0,0,.32.76,1.05,1.05,0,0,0,1.15.27,4,4,0,0,0,1.84-1.24c.26-.29.5-.6.75-.91ZM43.52,15a4.56,4.56,0,0,0,2.16-2.64.75.75,0,0,0,0-.33c0-.18-.06-.43-.18-.5s-.36,0-.54.06a.58.58,0,0,0-.27.19A4.9,4.9,0,0,0,43.52,15ZM27.28,17.35l0,0a.61.61,0,0,1,0-.19c.19-.95-.21-1.43-1.17-1.37a3.07,3.07,0,0,0-1.78.62,5.22,5.22,0,0,0-.48.46,1.62,1.62,0,0,0,.62-.07c.33-.06.47.07.39.4a6.41,6.41,0,0,1-.27.81l-2.13,5.25c-.1.25-.19.51-.32.85.91-.29,1.73-.53,2.53-.82.15-.05.26-.27.33-.44.41-1,.8-1.95,1.2-2.93a3.84,3.84,0,0,1,1.36-1.75c.66-.48,1-.41,1.46.26,0,0,.06,0,.13,0L31,14.71a2.12,2.12,0,0,0-1.51.49c-.63.54-1.22,1.14-1.82,1.72l-.41.4Zm25.33-7a1.71,1.71,0,0,1,0-.32c.13-.81-.2-1.24-1-1.25a3,3,0,0,0-2.18.78,3.75,3.75,0,0,0-.35.44c.33-.11.51-.18.69-.22s.47,0,.39.38a4.5,4.5,0,0,1-.26.81l-2.16,5.31c-.1.24-.18.48-.3.83l1.32-.45a3.62,3.62,0,0,0,1.34-.49,4,4,0,0,0,.62-1.36c.31-.75.61-1.51.94-2.25A3.5,3.5,0,0,1,53.07,11a.73.73,0,0,1,1.16.26l.18.24,1.9-3.76a1.43,1.43,0,0,0-1,.18,5.38,5.38,0,0,0-1.71,1.32c-.33.35-.65.71-1,1.07Zm-6.1-3.08a5,5,0,0,1-3.26,3,1.74,1.74,0,0,1-.39.05c-1,.08-1.53-.37-1.53-1.41a4.14,4.14,0,0,1,1.39-3.1,8.8,8.8,0,0,1,1.44-1,2.2,2.2,0,0,1,1.46-.28.66.66,0,0,1,.68.64.78.78,0,0,1,0,.22,2,2,0,0,1-.81,1.39,16.84,16.84,0,0,1-1.63,1c-.34.19-.4.33-.2.66a.77.77,0,0,0,.66.36,1.59,1.59,0,0,0,1-.38c.41-.34.79-.74,1.19-1.11Zm-2.93.16a2.76,2.76,0,0,0,1.53-2A.51.51,0,0,0,45,5a.52.52,0,0,0-.46.11,2.9,2.9,0,0,0-.92,2.33ZM62.1,16.07v-.89h.38a.76.76,0,0,1,.21,0,.18.18,0,0,1,.1.09.23.23,0,0,1,0,.14.31.31,0,0,1,0,.13l0,0a.22.22,0,0,1-.15.08l.07.08.1.15a1.27,1.27,0,0,1,.11.17h-.21l-.13-.19a.64.64,0,0,0-.1-.13.1.1,0,0,0-.05,0h-.13v.37Zm.18-.52h.13a.49.49,0,0,0,.17,0s0,0,.05,0a.07.07,0,0,0,0-.06.08.08,0,0,0,0-.08.09.09,0,0,0-.07,0h-.27Zm.15.87a.85.85,0,0,1-.31-.06L62,16.28l-.12-.09-.1-.12a.91.91,0,0,1-.07-.14.72.72,0,0,1,0-.62.91.91,0,0,1,.07-.14l.1-.12L62,15l.13-.08a.85.85,0,0,1,.31-.06.87.87,0,0,1,.32.06l.13.08.12.09.1.12a.91.91,0,0,1,.07.14.83.83,0,0,1,0,.62.91.91,0,0,1-.07.14l-.1.12a.94.94,0,0,1-.12.09l-.13.08a1.08,1.08,0,0,1-.31.07Zm0-1.53a.73.73,0,0,0-.73.73h0a.74.74,0,0,0,.73.74h0a.74.74,0,0,0,0-1.47ZM38.21,6.34a10.37,10.37,0,0,1,1.22-.56c.81-.26,1.35.22,1.24,1.07a2.46,2.46,0,0,1-.22.68c-.24.59-.5,1.17-.73,1.77-.09.22-.21.47,0,.68s.45.09.68,0l.27,0a2.5,2.5,0,0,1-.21.35,3.83,3.83,0,0,1-1.48,1,1,1,0,0,1-1.29-.45.94.94,0,0,1-.09-.47A2.92,2.92,0,0,1,38,8.77c.26-.51.57-1,.84-1.5,0-.09,0-.23,0-.35a1.47,1.47,0,0,0-.3.08,2.54,2.54,0,0,0-1.18,1.28c-.38,1-.84,2-1.25,3.05a1.13,1.13,0,0,1-.9.77c-.46.07-.91.19-1.36.26-.3,0-.37-.07-.25-.33s.37-.75.56-1.13C35,9.25,35.82,7.6,36.66,6c.28-.57.6-1.11.93-1.72-.94,0-1.72.1-2.15,1-.34.71-.71,1.41-1,2.14-.46,1-.85,2.12-1.32,3.16a6.13,6.13,0,0,1-1.42,2.06,3.25,3.25,0,0,1-2,.93,1.64,1.64,0,0,1-1.63-.66,1.6,1.6,0,0,1-.08-1.7,3,3,0,0,1,.82-1,1.71,1.71,0,0,0,0,.32.83.83,0,0,0,.92.75h.07a1.9,1.9,0,0,0,.88-.39,7.22,7.22,0,0,0,1-1.12,14.69,14.69,0,0,0,.9-1.46,12.22,12.22,0,0,1,2.83-3.78c-.33,0-.51,0-.7,0-2.2.16-4.39.33-6.59.51a15.32,15.32,0,0,0-4.39.9,5.23,5.23,0,0,0-2.1,1.33,1.83,1.83,0,0,0-.56,1.41c.2-.09.36-.14.5-.22a11.47,11.47,0,0,1,3.54-1.23,4.4,4.4,0,0,1,2.16.15c1,.35,1.2,1.15.48,1.89a4.43,4.43,0,0,1-1.19.82,5.9,5.9,0,0,1-3.92.5,3.44,3.44,0,0,1-1.55-.71c-.23-.2-.38-.23-.6,0a6.57,6.57,0,0,1-.68.61l.81.61a3.94,3.94,0,0,1,1.49,4.22,4.35,4.35,0,0,1-1.5,2.28c-.19.16-.38.3-.61.47a1.76,1.76,0,0,0,.24.3,5.22,5.22,0,0,1,.83,6.22A5.84,5.84,0,0,1,18.7,27a4.29,4.29,0,0,1-2.08.53,2.73,2.73,0,0,1-2.68-2.59,4.15,4.15,0,0,1,1.49-3.51,2.7,2.7,0,0,1,1.47-.82l-.31.47a2.25,2.25,0,0,0-.41,1.3,1.23,1.23,0,0,0,1.14,1.32,1.22,1.22,0,0,0,.46-.06,2.57,2.57,0,0,0,.78-.34,3.48,3.48,0,0,0,1.35-4.06,2.92,2.92,0,0,0-.23-.47c-.24-.38-.29-.37-.75-.28a13,13,0,0,1-1.75.27c-.53,0-.81-.16-.85-.45s.18-.62.72-.7a4.49,4.49,0,0,1,1.37,0,1,1,0,0,0,1-.39,5.35,5.35,0,0,0,1.24-4.24,3.09,3.09,0,0,0-.91-1.79c-.18-.18-.33-.18-.48,0-.3.41-.62.8-.91,1.22a28.37,28.37,0,0,0-3.56,7.19c-.6,1.7-1.2,3.4-1.85,5.08A12.79,12.79,0,0,1,11.06,28a9.35,9.35,0,0,1-5.91,3.59,12.61,12.61,0,0,1-2.3.05.77.77,0,0,1-.78-.58c-.64-2-1.33-3.91-2-5.87a.61.61,0,0,1,0-.19l.26.17a5.16,5.16,0,0,0,5.23,1.15A7.6,7.6,0,0,0,10.17,23c.78-1.24,1.48-2.54,2.16-3.85a35.68,35.68,0,0,1,4.3-6.63c.6-.71,1.26-1.35,1.91-2a1.73,1.73,0,0,0-1-.37,10.44,10.44,0,0,0-10,3.43,5.52,5.52,0,0,0-1.39,2.94.19.19,0,0,1,0,.07,1.91,1.91,0,0,0,2.54,2.31A6,6,0,0,0,11.54,17a11,11,0,0,0,2.56-4,.53.53,0,0,1,.26-.31,5,5,0,0,1-.06.54,16.13,16.13,0,0,1-3,6.27,8.38,8.38,0,0,1-3.86,2.8,4.6,4.6,0,0,1-2.41.22,3.09,3.09,0,0,1-2.5-2.43A5.25,5.25,0,0,1,2.78,17a8.88,8.88,0,0,1,3.39-4.45A15.21,15.21,0,0,1,16.43,9.57a11.06,11.06,0,0,1,2.13.45.77.77,0,0,0,.84-.16,1.67,1.67,0,0,1,.42-.32,1.08,1.08,0,0,0,.67-1.13,2.27,2.27,0,0,1,.8-1.62,8,8,0,0,1,2.55-1.74,22.19,22.19,0,0,1,5.3-1.59,64.91,64.91,0,0,1,7.09-.81,49.59,49.59,0,0,0,7.86-1A21,21,0,0,0,48,.25L48.6,0c-.06.35-.29.41-.45.52A21.15,21.15,0,0,1,42.63,3c-1,.29-1.91.52-2.88.74a.94.94,0,0,0-.69.53,10,10,0,0,0-.85,2.06ZM23.65,10.23a4.5,4.5,0,0,0,2-.41,1.78,1.78,0,0,0,.9-.83.8.8,0,0,0-.22-1.1.85.85,0,0,0-.26-.11,2.89,2.89,0,0,0-1.17-.09A7.12,7.12,0,0,0,21.63,9c-.42.29-.43.4,0,.72a3.06,3.06,0,0,0,2,.55ZM18.38,18a1.9,1.9,0,0,0-1.46,0c-.09,0-.14.18-.21.28s.16.16.25.17A1.59,1.59,0,0,0,18.38,18Zm41.74-6.28c0,.13-.11.26-.17.39-.72,1.21-1.39,2.45-2.16,3.63A25.54,25.54,0,0,1,56,18.12a7.67,7.67,0,0,1-2.61,2A17.26,17.26,0,0,1,47,21.68c-2.66.18-5.33.26-8,.4a49.55,49.55,0,0,0-8,1.05,35.52,35.52,0,0,0-13.58,6.43,2.53,2.53,0,0,0-.36.37l.1.11c.25-.13.5-.25.74-.39A35.17,35.17,0,0,1,33.4,24.84q3.08-.24,6.13-.52a43.23,43.23,0,0,0,8.94-1.74,30.1,30.1,0,0,0,5.41-2.09,21.2,21.2,0,0,0,7.52-7,72.92,72.92,0,0,0,4.49-8.06s0-.12,0-.21c-.82.24-1.62.49-2.42.69a1.23,1.23,0,0,0-.85.72C62,7.76,61.43,8.89,60.74,10a7,7,0,0,1-1.42,1.45c-.4.34-.82.34-1,.11s-.13-.66,0-1c.41-.87.83-1.74,1.25-2.62l.59-1.26c-.84.26-1.55.5-2.26.7a.89.89,0,0,0-.58.49c-.59,1.18-1.2,2.35-1.78,3.53a6.17,6.17,0,0,0-.46,1.24A3.73,3.73,0,0,0,55,13.73a1,1,0,0,0,1,1,1.06,1.06,0,0,0,.31,0,3,3,0,0,0,1.14-.48,19.28,19.28,0,0,0,1.71-1.55q.45-.51.87-1ZM37.54,13.16a.75.75,0,0,0-.52.46c-.27.57-.57,1.14-.84,1.72a9.08,9.08,0,0,1-1.66,2.44,6.56,6.56,0,0,1-.92.75.55.55,0,0,1-.73,0,.53.53,0,0,1,0-.67q.27-.61.54-1.2c.42-.91.85-1.81,1.31-2.79l-.38.06c-.59.18-1.17.38-1.77.53a.94.94,0,0,0-.66.56c-.46,1-1,1.88-1.42,2.83a10.57,10.57,0,0,0-.55,1.55,2.52,2.52,0,0,0,0,1.49,1,1,0,0,0,1.22.82.81.81,0,0,0,.22-.07A3.9,3.9,0,0,0,32.49,21a10.32,10.32,0,0,0,2-2.27c.12-.18.25-.35.37-.52A2.05,2.05,0,0,1,35,19c0,1.26.92,1.77,2,1.18l.12-.06a8,8,0,0,0,2.81-3.42A1,1,0,0,0,40,16c-.25.24-.44.45-.65.63a5.53,5.53,0,0,1-.86.6c-.28.14-.5,0-.45-.34a3.07,3.07,0,0,1,.26-.88c.44-1,.9-1.9,1.36-2.85l.3-.65c-.85.25-1.62.49-2.4.71Zm10.15,1.36a3.88,3.88,0,0,1-.28.71,7.17,7.17,0,0,1-4,3.4,3.89,3.89,0,0,1-.84.15,1.66,1.66,0,0,1-1.94-1.32,1.41,1.41,0,0,1,0-.46,4.76,4.76,0,0,1,.56-2.48A6.65,6.65,0,0,1,45.31,11a3,3,0,0,1,1.11-.07.89.89,0,0,1,.87.89.77.77,0,0,1,0,.15,3,3,0,0,1-1.11,2A7.27,7.27,0,0,1,44,15.28c-.49.2-.56.43-.27.88A1.14,1.14,0,0,0,45,16.6a3.88,3.88,0,0,0,1.85-1.24c.25-.28.48-.59.73-.89ZM43.51,15a4.56,4.56,0,0,0,2.18-2.74,1.36,1.36,0,0,0,0-.45.37.37,0,0,0-.35-.37.41.41,0,0,0-.16,0,.88.88,0,0,0-.34.19A4.64,4.64,0,0,0,43.52,15ZM27.3,17.12c.18-.95-.23-1.42-1.19-1.36a3.11,3.11,0,0,0-2,.79,4.48,4.48,0,0,0-.32.44,3,3,0,0,1,.5-.17c.17,0,.39-.07.49,0s.07.32,0,.47a4,4,0,0,1-.24.69l-2.22,5.5c-.07.17-.12.34-.21.59.79-.25,1.47-.5,2.16-.68a1,1,0,0,0,.73-.65c.38-1,.79-2,1.21-3A3.65,3.65,0,0,1,27.74,18c.55-.34.85-.25,1.22.27l.16.2L31,14.77c-1-.11-1.38.16-3.67,2.52,0-.08,0-.13,0-.16Zm29-9.35a2,2,0,0,0-1.52.42A8.26,8.26,0,0,0,53,9.87c-.12.14-.25.26-.43.45V10c.15-.83-.2-1.29-1-1.25a5.59,5.59,0,0,0-1.47.32,1.92,1.92,0,0,0-1,.87l.42-.11.61,0a3.33,3.33,0,0,1,0,.63,4.28,4.28,0,0,1-.25.68q-1.07,2.66-2.15,5.31c-.07.18-.13.38-.22.63.89-.28,1.68-.52,2.47-.79a.72.72,0,0,0,.33-.36c.18-.38.31-.78.47-1.16.34-.81.66-1.63,1.05-2.42A3.12,3.12,0,0,1,53.15,11a.7.7,0,0,1,1,.12l.06.1a3.28,3.28,0,0,1,.21.33Zm-9.8-.51a5,5,0,0,1-3.32,3,2.06,2.06,0,0,1-.26,0c-1.1.1-1.61-.36-1.6-1.47a4.14,4.14,0,0,1,1.39-3,8,8,0,0,1,1.37-1,2.33,2.33,0,0,1,1.46-.31c.59,0,.81.34.71.93a2,2,0,0,1-.8,1.32,16.69,16.69,0,0,1-1.62,1c-.34.19-.41.33-.21.65a.77.77,0,0,0,.66.37,1.53,1.53,0,0,0,1-.37c.42-.35.8-.74,1.19-1.12Zm-3,.17a2.7,2.7,0,0,0,1.58-1.85c.05-.22.12-.45-.1-.6s-.43,0-.57.18a3.32,3.32,0,0,0-.9,2.27Z"/></g></g></svg>