<svg xmlns="http://www.w3.org/2000/svg" viewBox="0 0 55.41 31.74"><defs><style>.cls-1{fill:#fff;}</style></defs><g id="圖層_2" data-name="圖層 2"><g id="_0-ui_kits" data-name="0-ui_kits"><path id="logo_beer_yeastie_boys" class="cls-1" d="M0,4.26A1.34,1.34,0,0,1,.5,3.62c.37-.29.73-.59,1.12-.85a6.74,6.74,0,0,1,.89-.45c.09,0,.14,0,.19.07a2.16,2.16,0,0,1,.3.95c0,.27.08.55.11.82A2,2,0,0,0,3.4,5a1.49,1.49,0,0,1,.26,1,1.93,1.93,0,0,0,0,.24c0,.08,0,.18.07.23s.13.38.16.58l.15,1a1.09,1.09,0,0,0,0,.36,8.11,8.11,0,0,1,.23,1.38,1.27,1.27,0,0,0,.06.28.35.35,0,0,0,.28-.3c0-.19,0-.39,0-.58,0-.35.12-.7.19-1S5,7.6,5,7.34l.24-.82.33-1,.15-.43L6,4.49l.1-.28L6.18,4h0c.05-.06.12-.12,0-.21a1.33,1.33,0,0,1,.48-.71A5.37,5.37,0,0,1,9.08,2c.1,0,.11,0,.13.11a2.72,2.72,0,0,1,0,1.47c-.17.56-.37,1.1-.57,1.65a8.35,8.35,0,0,0-.53,1.85.31.31,0,0,1,0,.08A11,11,0,0,0,7.3,9.7c-.18.79-.39,1.57-.6,2.36a3.26,3.26,0,0,1-.2.48c-.06.16,0,.22.11.31a.2.2,0,0,1,.09.26v0a.76.76,0,0,1-.08.11A2.94,2.94,0,0,0,6,14.68c-.12.73-.26,1.45-.36,2.18-.13.89-.22,1.79-.36,2.69-.08.55-.21,1.09-.32,1.63,0,.1-.06.15-.18.14a4,4,0,0,0-.49,0s0,0,0,0h0s-.07,0-.11,0l-.79.06c-.2,0-.39.11-.58,0l-.17-.15c-.17-.11-.35-.2-.51-.31S2,20.75,2,20.7c0-.45,0-.9,0-1.34s.07-.74.11-1.11,0-.63.09-.94a10.56,10.56,0,0,0,.11-1.86,4.78,4.78,0,0,0-.07-.65,2.58,2.58,0,0,1,0-.92.37.37,0,0,0-.08-.33A.84.84,0,0,1,2,13.24c0-.17,0-.35-.06-.52a.42.42,0,0,0-.25-.34s-.06-.05-.06-.08,0-.23-.06-.35-.08-.49-.14-.73-.16-.59-.24-.88S1,9.54.84,9.14l0-.21C.77,8.62.73,8.3.69,8a6.08,6.08,0,0,0-.12-.87c-.13-.51-.29-1-.43-1.5a.11.11,0,0,0,0,0A2.31,2.31,0,0,1,0,4.46,1.27,1.27,0,0,0,0,4.26ZM11.6,20.33c0,.17,0,.34,0,.52l.44,0c.18,0,.21,0,.18.22L12,22.26c-.07.5-.14,1-.2,1.5,0,.16,0,.32,0,.49,0,.39-.08.79-.11,1.19,0,.22,0,.44-.07.65s-.05.49-.09.72-.07.55-.11.82c-.07.42-.15.84-.22,1.26a.57.57,0,0,0,0,.18.38.38,0,0,1-.25.33c-.05,0-.08.09-.11.14a.84.84,0,0,0-.08.19,6.52,6.52,0,0,0-.16.74,7.13,7.13,0,0,0,0,.8c0,.15,0,.3,0,.47a21,21,0,0,0,4.82-1.17l.25-.09.8-.35c.24-.11.48-.23.72-.33a.53.53,0,0,1,.22,0l.33-.17,0,0,.64-.34V29.1a.39.39,0,0,1-.12-.48,5.61,5.61,0,0,0,.38-1.46c.12-.73.22-1.46.33-2.19a.2.2,0,0,0,0-.13c-.08-.18-.17-.35-.25-.53a.17.17,0,0,0-.18-.11l-.89,0c-.21-.11-.23-.15-.15-.38s.15-.28.22-.43h0l.18-.17h0c.09,0,.18-.08.26,0a3.89,3.89,0,0,0,.44-.16c.12-.06.24-.16.36-.23a.2.2,0,0,0,.11-.18q0-.48,0-1c0-.75.09-1.5.12-2.25,0-.22,0-.24-.21-.3l-.08,0a.18.18,0,0,1-.16-.21v0c0-.17,0-.34.07-.51s0-.34-.27-.41a1.54,1.54,0,0,0-.3,0L17.6,18a1.7,1.7,0,0,1-.92-.05.62.62,0,0,0-.23,0c-.45,0-.9.06-1.34.13-.94.17-1.87.36-2.81.54a.24.24,0,0,0-.11.06,2.08,2.08,0,0,0-.49,1.05C11.67,19.89,11.63,20.11,11.6,20.33Zm4.6,6.59,0,.18c-.05.28-.11.57-.16.86,0,0,0,.06,0,.08a.29.29,0,0,1-.23.29l-.58.18a.44.44,0,0,1-.16,0,8,8,0,0,1-1.8.39l.09-.11.2-.13a.4.4,0,0,0,.23-.42,5.68,5.68,0,0,1,.2-1.48,2,2,0,0,1,0-.35c0-.26.06-.52.08-.78a.16.16,0,0,1,.19-.14l.92,0a1.64,1.64,0,0,0,.32,0l.16-.09a.75.75,0,0,1,.63-.12.12.12,0,0,1,.11.14c0,.11,0,.22,0,.33l-.05.61h0l0,.23h0l0,.21h0l0,.17Zm-1.94-3.45.11-1.69s-.06-.1,0-.14c0-.33.11-.65.17-1,0-.11.08-.13.2-.13a6.17,6.17,0,0,0,.86,0l.88,0c.14,0,.14.14.14.23a8.43,8.43,0,0,1,0,.87c0,.34-.09.68-.11,1a.54.54,0,0,1-.41.56,4.37,4.37,0,0,1-.52.12s-.07,0-.11,0Zm12.92,3.45a0,0,0,0,1,0,0h0l.09-.08a.35.35,0,0,0,.13-.14,1.28,1.28,0,0,1,.39-.65.22.22,0,0,1,.26-.07c.12,0,.18,0,.17-.14a8.15,8.15,0,0,1,.15-2.09A22.22,22.22,0,0,0,29,20c0-.55.07-1.09.08-1.64a2.06,2.06,0,0,0-.23-1.06c-.07-.14-.15-.24-.34-.17a.42.42,0,0,1-.22,0,.26.26,0,0,1-.17-.32v0c.15,0,.28.2.45,0a2.87,2.87,0,0,0-.51-.21,5.73,5.73,0,0,0-2.22-.14,7.13,7.13,0,0,0-3,1,1.5,1.5,0,0,0-.64.86.3.3,0,0,1-.09.38l-.28.08h-.05l-.21.81,0,.12c-.05.29-.09.57-.13.86s-.08.51-.11.76-.08.81-.11,1.21c0,.16,0,.32,0,.49a.59.59,0,0,1,0,.13L21,24.39s0,0,0,0h0l0,.38c0,.5,0,1,0,1.5,0,.09,0,.19,0,.28a.44.44,0,0,0,.06.16.6.6,0,0,0,.15-.09.56.56,0,0,0,.09-.17l.21-.11s.08.05.08.07a4.43,4.43,0,0,1-.16,1.15.08.08,0,0,1,0,0l.27.24a3.33,3.33,0,0,0,.4.16,3.45,3.45,0,0,0,.95.17A6.72,6.72,0,0,0,25,28a6.24,6.24,0,0,0,1.75-.73.48.48,0,0,1,.18,0l.2-.21Zm-.91-6.36,0,.18h0l0,.17h0c-.07.39-.13.78-.2,1.17l-.12.85c-.05.35-.12.7-.14,1.05s0,.86,0,1.29a1.33,1.33,0,0,0,0,.28.2.2,0,0,1-.14.25h0c-.26.08-.51.17-.77.24a.6.6,0,0,1-.23,0l-.75,0a.22.22,0,0,0-.15.08l-.34.48c0-.26,0-.53,0-.81.06-.95.11-1.9.2-2.84s.22-2,.33-2.94c0,0,0-.09,0-.14s0-.2,0-.29S24,19.19,24,19s.06-.19.19-.19a1.38,1.38,0,0,0,.2,0h0l.18,0h0l.2,0a1.64,1.64,0,0,1,.32-.05,4.14,4.14,0,0,1,1.26.11c.14,0,.18.11.16.24l-.06.34-.09.64v0l-.05.37h0l0,.18ZM16.47,2.85l-.17,0h0L15.75,3h0l-.08,0h0l-.69.17h-.15l-.11,0h0l-.08,0h0l-.1,0h0l-.14,0h0l-.1,0h0l-.11,0h-.21l-.11,0h-.06l-.11,0h-.21l-.08,0-.09,0h-.12l-.23,0h0l-.41.1-.06,0-.47.15-.05,0-.39.88v.12l0,.06h0a.63.63,0,0,1-.53.61h0l-.06,0h0l-.26.2h0l0,0h0a.78.78,0,0,0,0,.16c0,.28,0,.57,0,.86l0,.06h0l0,.38h0l0,.29h0l0,.26c-.05.36-.09.72-.14,1.09l-.12.9c0,.33-.1.66-.14,1a5.51,5.51,0,0,0-.06.57c0,.37,0,.75,0,1.12l0,1.29c0,.33,0,.66,0,1a4.09,4.09,0,0,1-.37,1.38c.12,0,.23.07.35.09a2.12,2.12,0,0,0,.44,0c.09,0,.15,0,.17.12s.06.28.08.43h0c.47-.08.93-.15,1.39-.25l2-.48.09,0h0l1-.23h.28l.58-.1,0,0,.11-.3,0-.08.07-.41v-.08l0-.15v-.08l0-.13v-.08l.19-.75,0-.09,0-.13-.3,0-.19,0h-.12l-.14,0h-.07l-.11,0h-.06l-.11,0H15l-.08,0h-.07l-.08,0h-.12l-.18,0-.08,0-.29.07-.08,0-.18,0-.09,0-.18,0h-.08l-.06,0h-.08l-.24,0-.08,0-.15,0h-.11l-.52,0v-.08l0-.44v-.08l0-.26V13l0-.35v-.14a3,3,0,0,1,0-1.07.15.15,0,0,1,.09-.1l1.1-.3.61-.17.91-.26a2.37,2.37,0,0,1,.36-.09.55.55,0,0,1,.18,0h.1l.3-.06.08,0,.06,0h.08l.22-.57,0-.11V9.7l0-.15,0-.23V8.86l0-.15V8.65l0-.08a2,2,0,0,1,.05-.24c0-.08,0-.13-.06-.16l-.11,0h-.47l-.2,0h-.23l-.12,0h-.06l-.11,0-.06,0h-.08l-.07,0h-.08l-.18,0-.08,0h0l-.08,0-.15,0-.08,0L14,8.56l-.09,0-.23.07-.08,0-.38.1-.14.15,0,0L13,9.09l0,0,0,0,0,0,0,0,0,0-.05,0,0,.06h0l0-.23V9.07l0-.32V8.66l0-.21,0-.11V8.16l0-.09V7.84l0-.18V7.57l0-.14V7.18a.85.85,0,0,1,0-.22c0-.2,0-.39,0-.59s0-.24.21-.29l1-.2h.1l1.27-.31L16,5.4a.47.47,0,0,1,.17,0l.27-.08h.05l.17,0h0l.17,0h0l0,0a0,0,0,0,1,0,0h0a.55.55,0,0,1-.07-.23c0-.14.08-.27.13-.4v0l0-.11V4.32l0-.14V4.12a.52.52,0,0,1,.24-.44V3.63a.21.21,0,0,1-.15-.21c0-.14,0-.29,0-.44s-.18-.1-.28-.14h-.18l-.23,0Zm22.81,19.9c-.05.25-.11.49-.17.74s-.18.5-.28.74-.07.22,0,.29a.37.37,0,0,0,.25,0c.17,0,.32-.09.48-.13s.26,0,.22.2l0,.12-.11.46,0,0,.29.15.55.2c.33.05.65.11,1,.14a4.71,4.71,0,0,0,.75,0,2.43,2.43,0,0,0,.64-.13,10.67,10.67,0,0,0,1-.45l.23-.08.15,0c.12,0,.25,0,.32-.15l.4-.62c-.06-.11,0-.17.07-.25l.18-.49h0l.08,0,.05,0,.21-.1c.17-.12.32-.26.5-.38a.31.31,0,0,0,.17-.23,12,12,0,0,0,.3-2.81c0-.47-.07-.94-.1-1.41a.16.16,0,0,0-.14-.16,5.58,5.58,0,0,1-1-.23c-.34-.14-.68,0-1-.05h0a.92.92,0,0,1-.57,0h0l-.32-.09h0l0,0c-.31,0-.62-.09-.93-.12-.12,0-.14-.05-.13-.16,0-.29,0-.59,0-.88,0,0-.06-.08-.05-.12a2.43,2.43,0,0,1,.22-.91c.05-.16.2-.12.3-.13.38,0,.77,0,1.15-.06a1.29,1.29,0,0,1,.67.11.43.43,0,0,1,0,.44,2.12,2.12,0,0,1-.18.37.3.3,0,0,0,0,.37.34.34,0,0,0,.36.09,4.48,4.48,0,0,0,1.07-.49,1.14,1.14,0,0,1,.26-.09,0,0,0,0,1,0,0h0c.22-.14.43-.28.64-.44a.35.35,0,0,0,.13-.19c.11-.6.2-1.19.3-1.79,0-.09,0-.14-.1-.18a1.87,1.87,0,0,0-1-.18.15.15,0,0,1-.18-.11.78.78,0,0,0-.6-.48,1.91,1.91,0,0,0-.92,0l-2,.52a2.29,2.29,0,0,0-1,.5,6,6,0,0,1-.49.39.93.93,0,0,1-.58.2c-.16,0-.2.05-.19.23s0,.29,0,.43a.47.47,0,0,1,0,.17A3.7,3.7,0,0,0,40,16.79c0,.33-.05.67-.09,1s-.11.93-.17,1.4a.17.17,0,0,0,.06.11,5.45,5.45,0,0,0,.87.35,5.66,5.66,0,0,0,.93.06l.2,0,.53.15a2,2,0,0,1,.34.12l.44.05.46,0,.5.1a.18.18,0,0,1,.1.14c0,.53,0,1.06-.05,1.59,0,.3-.06.59-.09.89a.14.14,0,0,1-.13.15l-.75.15s-.09,0-.14-.05a4.32,4.32,0,0,1-1.39,0c-.17,0-.18,0-.12-.21s.22-.48.31-.73a2.85,2.85,0,0,0,.14-.63.73.73,0,0,0-.07-.29l-.24-.06a1.17,1.17,0,0,0-.76,0l-1.32.62a.22.22,0,0,0-.07.09c-.05.18-.11.37-.16.56A1.69,1.69,0,0,1,39.28,22.75Zm-7-10.36c0-.14.1-.28.13-.42s.09-.16.21-.13l.06,0,.67-.52a.31.31,0,0,0,.06-.13c.05-.28.11-.57.15-.85a11.91,11.91,0,0,0,0-3.32c0-.15-.09-.2-.23-.23-.35-.07-.7-.17-1-.26l-.11,0-.81,0a5.62,5.62,0,0,1-.58,0l-.24-.09c-.29,0-.57-.09-.86-.12-.1,0-.14,0-.13-.14s0-.51,0-.77a1,1,0,0,0-.05-.29l.12-.6h0c0-.24.1-.33.29-.35l.25,0A1.72,1.72,0,0,1,30.53,4a3.64,3.64,0,0,1,1.14.09s.13.09.13.13a1.62,1.62,0,0,1-.07.44c0,.14-.11.26-.15.4a.23.23,0,0,0,.14.29h.1a1.33,1.33,0,0,0,.75-.23l.51-.27a.2.2,0,0,1,.11,0c.22-.17.45-.32.66-.49A.47.47,0,0,0,34,4.11c.09-.58.17-1.16.25-1.74a.14.14,0,0,0-.1-.17A1.87,1.87,0,0,0,33.23,2a.14.14,0,0,1-.18-.1.7.7,0,0,0-.59-.47,3,3,0,0,0-.84,0c-.54.11-1.05.3-1.58.42a3,3,0,0,0-1.5.81.85.85,0,0,1-.28.22,2.55,2.55,0,0,1-.53.18c-.14,0-.19.06-.17.22s0,.26.05.39,0,.09,0,.12A3.55,3.55,0,0,0,27.3,4.9a5,5,0,0,0-.07.54c0,.38,0,.77-.07,1.15s-.07.79-.11,1.18l.81.36a4.89,4.89,0,0,0,.66,0,2.64,2.64,0,0,1,1.12.18,2.4,2.4,0,0,0,.84.15,6.46,6.46,0,0,1,.75.11s0,0,.06.05.05.05.05.07V9.81l0,0c0,.34,0,.69,0,1,0,.15,0,.3-.06.44l-.46.12-.14,0-.41,0-.95.06a2.6,2.6,0,0,1-.39-.05c-.1,0-.11-.07-.08-.15s.18-.43.25-.65.13-.48.18-.73a1.09,1.09,0,0,0,0-.25l-.59-.14-.07,0a1.92,1.92,0,0,0-.46.11c-.38.18-.75.38-1.13.57a.31.31,0,0,0-.09.11l-.14.53a.34.34,0,0,1,.05.11c-.09.42-.19.84-.29,1.26a.94.94,0,0,1-.1.28.47.47,0,0,0,0,.47h0l.06,0c.21-.06.42-.13.64-.18s.19-.09.22.07a1.12,1.12,0,0,1-.09.54.17.17,0,0,0,.09.24h0a4.61,4.61,0,0,0,1.45.4A3.74,3.74,0,0,0,30.16,14l.42-.13.59-.28.16-.09.14-.06c.13-.05.3-.06.38-.16a6.12,6.12,0,0,0,.43-.69.49.49,0,0,1,0-.17ZM23.21,3.76l0-.11v0l0-.11,0-.09V2.8l0-.14v0l-.09-.11h0l-.14,0h-.44l-.17,0h0l-.11,0h0l-.08,0h0l-.17.05h0l-.18.07h0l-.16.07-.05,0-.3.15-.05,0-.05.11,0,0,0,.17,0,.12-.08.26s0,.1,0,.13c-.19.53-.39,1.06-.59,1.58a.24.24,0,0,1-.06.08l-.07.19L20,6.13l-.13.33-.39,1.11,0,.09-.17.56c-.07.22-.12.45-.19.68l-.54,1.72-.15.44s0,.06-.08.09l-.12.34-.2.64-.24.76a.78.78,0,0,1-.05.14c-.09.32-.18.64-.26,1s-.16.74-.23,1.11c0,.11,0,.13.14.14.34,0,.69.06,1,.12.13,0,.25.11.39,0s.06,0,.09.06.26,0,.32,0a3.74,3.74,0,0,0,.35-.53.21.21,0,0,1,0-.07c.07-.18.15-.35.23-.52a3.76,3.76,0,0,1,.13-.48c0-.05.13-.08.21-.1l1.9-.39.11,0,.71-.16s.1.06.1.1a7.35,7.35,0,0,0,.18,1.32c0,.08.05.12.15.09.3-.09.62-.16.93-.23,0,0,.07,0,.11,0l.85-.19a.15.15,0,0,0,.08-.13,2.58,2.58,0,0,0,0-.29,1.94,1.94,0,0,1,0-.24l0-.25v-.09l0-.2,0-.09v-.21l0-.14v-.06l0-.14v-.06l0-.11v-.06l0-.11v0l0-.11v-.21l0-.11v0l0-.1v-.15l0-.06V11.1l0-.08V11l0-.08v0l0-.11v0l0-.11v0l0-.11v0l0-.14v0l0-.11,0-.06V10l0,0,0-.14V9.7l0-.11V9.32l0-.14V9.12l0-.17v0l0-.17v0l0-.14V8.51l0-.11V8.34l0-.11V8.16l0-.11V8l0-.11v0l0-.11v0l0-.11V7.52l0-.11V7.35l0-.08V7.21l0-.09V7.06l0-.11V6.89l0-.08V6.74l0-.08V6.6l0-.08v0l0-.11v0l0-.14v0l0-.11V6l0-.11v0l0-.11v0l0-.11v0l0-.13v0l0-.11v0l0-.11V5.09l0-.11v0l0-.11V4.77l0-.11V4.6l0-.11c0-.16-.16-.14-.27-.16l-.17,0c-.14,0-.17-.06-.12-.18s.08-.19.12-.29ZM21.3,8.41c.11-.39.23-.76.36-1.14a.85.85,0,0,1,.14-.19,1.8,1.8,0,0,1,.08.21c.06.33.11.66.16,1s.08.53.1.8q0,1,.06,2.1c0,.22,0,.24-.22.27a5.67,5.67,0,0,1-.72.06.48.48,0,0,1-.14,0l-.59.06L21,9.69A5.24,5.24,0,0,1,21.3,8.4Zm9.7,8h0l.07.21c.09.29.2.59.28.89a8.85,8.85,0,0,1,.16.87c0,.24,0,.49.07.73s.1.23.14.35a16,16,0,0,0,.76,2.34,1.1,1.1,0,0,1,.05.57c0,.18,0,.36,0,.54a5.31,5.31,0,0,1,0,.8c0,.38-.12.76-.18,1.14s-.09.5-.13.76a1.55,1.55,0,0,0,0,.31c0,.17,0,.34,0,.51a.13.13,0,0,0,.09.14l.41.19h0c.13.17.3.08.46.07s.43-.05.65-.07a.56.56,0,0,1,.12,0c.15,0,.3,0,.45,0a.17.17,0,0,0,.19-.13v0c.11-.47.24-.94.33-1.42a8.44,8.44,0,0,1,.53-2,1.28,1.28,0,0,0,.07-.28,2.22,2.22,0,0,1,.68-1.36c.09-.08.07-.16,0-.21s-.11-.1-.06-.19a4.18,4.18,0,0,0,.28-.56c.17-.44.31-.89.46-1.34a5,5,0,0,1,.64-1.44.36.36,0,0,0,0-.09A4.71,4.71,0,0,1,38,16.34c.15-.3.31-.6.43-.91a1.49,1.49,0,0,0,.11-.95c0-.09,0-.13-.15-.11a5.17,5.17,0,0,0-1.79.63,1.53,1.53,0,0,0-.77.92s0,.09,0,.12q-.23.53-.48,1.05s0,0-.08.05L35,17.9A.36.36,0,0,1,35,18a4.67,4.67,0,0,1-.14.5,4,4,0,0,0-.18.85c0,.06-.07.12-.11.18h0l-.14.09a.38.38,0,0,1-.06-.13c0-.29-.1-.57-.14-.85a1.22,1.22,0,0,1,0-.27c-.15-.66-.31-1.32-.47-2-.07-.31-.15-.63-.22-.94a5.44,5.44,0,0,0-.15-.54c-.06-.18-.12-.19-.3-.13a6.06,6.06,0,0,0-1.76,1,.75.75,0,0,0-.31.57h0ZM50.57,7.85l0-.14v0l0-.39c-.12-.09,0-.2,0-.3a5.35,5.35,0,0,1,.11-.55.23.23,0,0,1,.2-.22l1.9-.49c.24-.06.48-.12.72-.16a.58.58,0,0,1,.19,0l.11,0h0c.48,0,.63-.32.68-.72v0c.07-.31.13-.63.2-.94l0,0a4.82,4.82,0,0,0-.76,0c-.69.13-1.37.3-2.06.42a1.07,1.07,0,0,0-.72.45.93.93,0,0,1-.14.14.67.67,0,0,1,0-.16l.18-1.16c-.1-.09,0-.18,0-.27l.09-.58h0l0-.18.31-.11h.1l.93-.21,1.61-.37s0,0,.08,0l.68-.16a.38.38,0,0,1,0-.44.49.49,0,0,0,.06-.17c0-.2.08-.39.23-.48,0-.12-.06-.21-.08-.3a.38.38,0,0,1,0-.15c0-.1,0-.16-.15-.15a5.46,5.46,0,0,0-.57,0L52.85.41c-.68.14-1.38.25-2.06.41s-.45,0-.79.61l-.18.33a.7.7,0,0,0-.06.19h0l0,0h0l0,0-.05,0-.12.06h0l-.36.2s-.05,0-.07,0-.16.12-.14.24,0,.09,0,.13c0,.44-.1.88-.18,1.32s-.19.89-.28,1.33l-.21,1s0,.05,0,.07c0,.45,0,.9-.07,1.35A5.75,5.75,0,0,1,48,9.38c-.06.15-.13.29-.2.45l.58.1c.23,0,.27,0,.28.24s.06.11.14.1l.74-.13.66-.13.78-.2c.62-.15,1.24-.29,1.87-.42,0,0,.08,0,.11,0l.25,0c.33,0,.46-.18.51-.47s.08-.38.13-.57.17-.45.26-.69h-.22c-.62.11-1.23.23-1.85.33l-1.36.2-.12,0,0-.29Zm-14-5A2.64,2.64,0,0,0,36.25,4a.46.46,0,0,0,0,.1L36.89,4a5.37,5.37,0,0,1,1.19-.19c.15,0,.15,0,.11.16-.12.53-.24,1.05-.34,1.58s-.14.83-.2,1.25-.06.54-.09.81-.09.65-.14,1-.07.6-.13.9c-.08.45-.19.9-.28,1.35-.06.23-.12.46-.16.69a7,7,0,0,0-.13.78c0,.33.08.33.34.39a2.28,2.28,0,0,0,.78,0s.09-.06.14-.08l.21-.12c.2-.09.4-.16.6-.26a.29.29,0,0,0,.13-.14,14.06,14.06,0,0,0,1-3.61c.19-1.42.41-2.83.63-4.25,0,0-.06-.09,0-.12.07-.3.13-.59.21-.88s.12-.2.36-.22l.74-.06s.06,0,.09.06a.32.32,0,0,0,.34-.18c.12-.21.26-.41.39-.62A3.71,3.71,0,0,0,43.13.79c0-.14,0-.18-.16-.18a9.85,9.85,0,0,0-2.53.31l-3.24.73a.22.22,0,0,0-.13.08l-.53.91A.47.47,0,0,1,36.52,2.81Zm7.93,0c-.11.59-.23,1.17-.34,1.76L44,5l-.12.8c0,.19-.07.38-.11.57h0l0,.17h0l0,.21-.09.66c0,.34-.1.67-.14,1l-.09.81c0,.38-.08.75-.11,1.12a2.4,2.4,0,0,0,0,.37v.67h1.3a.64.64,0,0,1,.18.06l.54,0a.12.12,0,0,0,.09-.08c.11-.42.22-.84.32-1.26a2.28,2.28,0,0,0,.09-1,.23.23,0,0,1,0-.14A1,1,0,0,0,46,8.43c0-.25,0-.51,0-.76.15-1,.31-2.09.46-3.13.11-.71.21-1.43.32-2.15,0-.35.11-.7.13-1.06S46.79,1,46.53,1a7.22,7.22,0,0,0-1.88.79.35.35,0,0,0-.12.17c0,.15-.07.3-.1.45s0,.25,0,.38Zm3.84,3.55s.05,0,.05-.07l.21-1c.09-.44.2-.88.28-1.33S49,3.12,49,2.68c0,0,0-.09,0-.13v.18h0v.06c0,.15,0,.3-.05.44q-.12.69-.27,1.38c-.11.58-.24,1.17-.36,1.75v0Z"/></g></g></svg>