<svg xmlns="http://www.w3.org/2000/svg" viewBox="0 0 26.73 31.73"><defs><style>.cls-1{fill:#fff;}</style></defs><g id="圖層_2" data-name="圖層 2"><g id="_0-ui_kits" data-name="0-ui_kits"><path id="logo_beer_omnipollo" class="cls-1" d="M2.71,24.37c-.15,1.16-.24,2.32-.38,3.47-.09.74-.21,1.48-.34,2.21-.06.37-.19.43-.81.42l-.87-.15A.33.33,0,0,1,0,30a.24.24,0,0,1,0-.08C.25,28.6.46,27.32.71,26c.19-1,.41-2,.64-3,.18-.73.38-1.44.59-2.16a.68.68,0,0,1,.82-.52.64.64,0,0,1,.37.22.72.72,0,0,1,.11.53C3.07,22.21,2.86,23.29,2.71,24.37ZM7.4,25.75a2.69,2.69,0,0,1-1.89.95,2.59,2.59,0,0,0-.83.2.44.44,0,0,0-.24.32c-.1.87-.17,1.76-.26,2.64a3.73,3.73,0,0,1-.09.46.41.41,0,0,1-.45.33c-.3,0-.6,0-.89-.06s-.41-.2-.36-.52c.13-.93.28-1.86.4-2.79.09-.72.11-1.44.22-2.16.22-1.36.47-2.71.71-4.06a.29.29,0,0,1,0-.09.42.42,0,0,1,.51-.29A12,12,0,0,1,6.3,21a2.53,2.53,0,0,1,2.06,2.65A2.73,2.73,0,0,1,7.4,25.75Zm-.66-2.26a1.84,1.84,0,0,0-1.68-1.67c-.22,0-.34.08-.3.33a2.18,2.18,0,0,1,0,.51c-.08.7-.17,1.41-.25,2.12a.4.4,0,0,0,0,.19.45.45,0,0,0,.52.37H5A2,2,0,0,0,6.74,23.49Zm-4.4-3.95c.63-2.38,1.25-4.77,1.91-7.15.42-1.52.91-3,1.37-4.53,0-.19.09-.39.14-.58l.08,0L6.18,8a5.41,5.41,0,0,1,.19-2.68A6.18,6.18,0,0,1,9.57,1,6.08,6.08,0,0,1,10.83.31a4.66,4.66,0,0,1,3.88.24,6.39,6.39,0,0,1,3.48,4.53,9.57,9.57,0,0,1-.47,5.32,4.62,4.62,0,0,1-2.93,2.73,5.75,5.75,0,0,1-5.13-.5,15.41,15.41,0,0,1-1.49-.93,4.38,4.38,0,0,1-1.26-2c-.2-.46-.37-.94-.6-1.39A13.55,13.55,0,0,0,6.75,10a6.33,6.33,0,0,1,.29,2c0,.82.17,1.63.3,2.44a.45.45,0,0,0,.28.32c.09,0,.28-.11.34-.22.25-.44.45-.92.69-1.37s.35-.46.85-.26c.75.3,1.5.59,2.28.82.44.13.92.13,1.37.24a.59.59,0,0,1,.39.3,11.55,11.55,0,0,1,.59,5.05c0,.11,0,.23-.05.34a.67.67,0,0,1-.66.63c-.86.1-1.72.19-2.58.26-.52,0-.65-.07-.76-.57s-.11-.76-.21-1.13c0-.18-.2-.43-.35-.47s-.39.15-.51.29c-.4.49-.77,1-1.15,1.53-.24.32-.47.34-.68,0A10,10,0,0,1,6.62,19c-.09-.19-.11-.44-.41-.41s-.32.27-.37.48-.16.72-.24,1.06-.25.48-.59.43c-.78-.13-1.56-.28-2.33-.45A.4.4,0,0,1,2.34,19.54Zm9.05-12a2.25,2.25,0,0,0,.62.15h.23a1.18,1.18,0,0,0,1-1.31,1.25,1.25,0,0,0-.56-.94h0a.76.76,0,0,0-1.07-.15,3.14,3.14,0,0,0-.57.45,1.25,1.25,0,0,0-.3.42A1.08,1.08,0,0,0,11.39,7.5Zm2.79,16.13c-.12,1.43-.18,2.86-.38,4.28a3.31,3.31,0,0,1-2.88,2.95A4.2,4.2,0,0,1,7.77,30a4.66,4.66,0,0,1-1.65-2.19c-.21-.53-.13-.62.37-.87a5,5,0,0,0,1.06-.81,3.74,3.74,0,0,0,1.14-1.75,3.82,3.82,0,0,0-.15-2.17c-.15-.43-.13-.59.29-.81a4.52,4.52,0,0,1,4.45,0,1.76,1.76,0,0,1,.89,1.79l0,.45Zm-2.65,2.25c0-.29,0-.4-.52-.92l-.07-.08a.82.82,0,0,0-1.14,0,1.59,1.59,0,0,0-.38.74h0a1.18,1.18,0,0,0,1.1,1.27.43.43,0,0,0,.16,0,1,1,0,0,0,.85-1.05Zm7.83-14.12a1.48,1.48,0,0,1,0,.42,1.11,1.11,0,0,1-.43-.07,9.4,9.4,0,0,1-.74-.66c-.28-.25-.38-.24-.58.06a4.94,4.94,0,0,1-.35.45,6,6,0,0,1-2.58,1.66.82.82,0,0,0-.62,1c0,.4.12.8.19,1.2.12.69.28,1.38.34,2.08a12.36,12.36,0,0,1-.06,1.72c0,.37.1.47.46.48l3.06.18c.3,0,.59.07.89.08h.11a.33.33,0,0,0,.26-.38,7,7,0,0,0-.37-2.36,2.34,2.34,0,0,1-.18-.64c0-.14,0-.39.12-.42a.57.57,0,0,1,.46.09c.75.6,1.51,1.19,2.21,1.85a32.2,32.2,0,0,0,2.84,2.07.84.84,0,0,0,.37.08,1.31,1.31,0,0,0-.05-.39c-.57-1.58-1.14-3.17-1.74-4.74a13.09,13.09,0,0,0-1.32-3.05,21.34,21.34,0,0,1-2.52-4.77,4.82,4.82,0,0,0-.27-.5,1.6,1.6,0,0,0-.1.23c-.11.65-.24,1.3-.31,2a1.6,1.6,0,0,0,.12.78C18.81,10.68,19.11,11.21,19.36,11.76Zm-.93,18.47c-.45,0-.66-.19-.65-.65v-.7a40.65,40.65,0,0,1-.06-4.13,16.88,16.88,0,0,0-.1-2.36h0c0-.54,0-1.09,0-1.63a.54.54,0,0,0-.27-.37.46.46,0,0,0-.39.1.53.53,0,0,0-.15.34c-.05.85-.12,1.7-.13,2.56s.09,1.46.1,2.2c0,.5-.06,1,0,1.5.05,1.13.13,2.26.18,3.39,0,.73,0,.73.77.83a.8.8,0,0,0,.15,0c.36-.08.71-.14,1.06-.23a.27.27,0,0,0,.12-.17s0,0,0-.07A.63.63,0,0,0,18.43,30.23Zm8.26-4a7,7,0,0,1-2,4.26,4,4,0,0,1-1.45,1,2.55,2.55,0,0,1-1.7.09A6.38,6.38,0,0,1,20,31a3.78,3.78,0,0,1-1.74-2.77c-.08-.58-.13-1.17-.18-1.7a6.6,6.6,0,0,1,.8-3.53,4.31,4.31,0,0,1,.79-.91,7.12,7.12,0,0,1,1.66-1.17,2.75,2.75,0,0,1,2.5,0c.47.26,1,.45,1.43.75a2.4,2.4,0,0,1,.72.83A6.53,6.53,0,0,1,26.69,26.25Zm-3.55-.11a1.37,1.37,0,0,0-.4-1.08h0a.45.45,0,0,0-.64,0,3.74,3.74,0,0,0-.43.78.9.9,0,0,0,.16,1,.72.72,0,0,0,.85.19c.37-.14.43-.47.47-.81A.44.44,0,0,0,23.14,26.14ZM16,30.1l-.6-.1a.42.42,0,0,1-.41-.53c0-.45.09-.91.1-1.37,0-.83,0-1.66,0-2.49,0-1.23.09-2.46.13-3.68h0V20.83c0-.2,0-.44-.26-.46s-.31.21-.36.42a1.15,1.15,0,0,0,0,.19c0,.74,0,1.48-.07,2.24s-.08,1.51-.14,2.27c-.13,1.79-.27,3.59-.4,5.39,0,.28.11.44.42.43.5,0,1,0,1.5,0a.45.45,0,0,0,.25-.05c.12-.09.27-.19.31-.32l0-.11A.62.62,0,0,0,16,30.1Z"/></g></g></svg>