<svg xmlns="http://www.w3.org/2000/svg" viewBox="0 0 30.34 31.74"><defs><style>.cls-1{fill:#c6a348;}.cls-2{fill:#024928;}.cls-3{fill:#f7f3d9;}.cls-4{fill:#f5f1d6;}.cls-5{fill:#f3efd3;}.cls-6{fill:#c4a246;}.cls-7{fill:#f4f0d5;}.cls-8{fill:#f3efd4;}.cls-9{fill:#014a29;}.cls-10{fill:#51a8d1;}.cls-11{fill:#f1c31d;}.cls-12{fill:#9d9375;}.cls-13{fill:#789555;}.cls-14{fill:#457736;}.cls-15{fill:#c1a716;}.cls-16{fill:#12532d;}.cls-17{fill:#655023;}.cls-18{fill:#4d607f;}.cls-19{fill:#eade81;}.cls-20{fill:#788096;}.cls-21{fill:#1d476b;}.cls-22{fill:#f2e8b1;}.cls-23{fill:#f0e6af;}.cls-24{fill:#c1a718;}.cls-25{fill:#a08423;}.cls-26{fill:#f2c728;}.cls-27{fill:#a08523;}.cls-28{fill:#9a8425;}</style></defs><g id="圖層_2" data-name="圖層 2"><g id="_0-ui_kits" data-name="0-ui_kits"><g id="logo_beer_ayinger"><path id="Path_31356" data-name="Path 31356" class="cls-1" d="M13.77,0h2.8s0,0,.06,0l.85,0,.73,0h0l.59.07c.15,0,.3,0,.46,0L20,.35c.29,0,.57.07.85.12.45.08.9.16,1.35.28.68.17,1.37.36,2.05.56q.71.21,1.41.48c.46.18.92.39,1.38.6s.6.31.9.47a6.66,6.66,0,0,1,1.29.81,1.55,1.55,0,0,1,.46.64,1.93,1.93,0,0,1,0,1c0,.22-.06.44-.1.66s0,.25,0,.38-.07.48-.1.72l-.09.64c0,.24-.07.48-.11.72s-.05.28-.07.42-.06.43-.08.64a.51.51,0,0,0,0,.3q.16.39.3.78A16.6,16.6,0,0,1,30,12.67a6.17,6.17,0,0,1,.12.75l.09.58c0,.2,0,.42.07.63s0,.44,0,.66c0,0,0,0,0,0v2.1a.2.2,0,0,0,0,.08,5.09,5.09,0,0,0,0,.55,5.91,5.91,0,0,1-.12,1c-.06.39-.11.79-.2,1.18s-.23.91-.37,1.36a13.42,13.42,0,0,1-.87,2.2,12.51,12.51,0,0,1-.78,1.38c-.24.36-.51.7-.76,1.06a8.88,8.88,0,0,1-.85,1A11.8,11.8,0,0,1,25,28.48l-.77.58a13.38,13.38,0,0,1-2.08,1.2,12.14,12.14,0,0,1-1.34.55c-.37.12-.73.24-1.11.34s-.76.19-1.14.27-.52.09-.78.13l-.85.11-.65,0s0,0,0,0h-2.1l-.16,0c-.24,0-.47,0-.71-.05s-.65-.09-1-.15a9.2,9.2,0,0,1-.94-.17,17.06,17.06,0,0,1-2-.6,14.72,14.72,0,0,1-2.09-1,13,13,0,0,1-1.41-.91A12.52,12.52,0,0,1,4.27,27.5c-.24-.24-.48-.48-.69-.73s-.44-.56-.66-.85a10.57,10.57,0,0,1-1-1.66A12.45,12.45,0,0,1,1,22.4C.89,22,.75,21.56.62,21.13s-.21-.82-.3-1.24c0-.26-.09-.52-.12-.79s0-.24-.05-.36,0-.4-.07-.6,0-.45,0-.67c0,0,0,0,0,0V15.32s0-.05,0-.07a5.33,5.33,0,0,1,.08-1c0-.28.08-.55.11-.83a11.57,11.57,0,0,1,.23-1.2A15.09,15.09,0,0,1,1.18,10a.82.82,0,0,0,0-.51c0-.13,0-.25-.06-.38s0-.43-.09-.64S1,8,1,7.75s0-.45-.09-.67-.1-.66-.15-1L.67,5.71C.64,5.49.6,5.27.58,5a1.3,1.3,0,0,1,.27-.82,3.32,3.32,0,0,1,.65-.7,6.35,6.35,0,0,1,1-.73c.4-.21.81-.41,1.22-.59a15.61,15.61,0,0,1,1.47-.6C6,1.36,6.66,1.14,7.39.94a20,20,0,0,1,2-.44c.4-.07.79-.14,1.19-.19S11.36.2,11.74.16s.54-.06.82-.08l.9,0h.22ZM28.39,14.09c-.07-.11-.13-.22-.2-.31a2.52,2.52,0,0,0-.66-.6,10,10,0,0,0-1.78-.93,19.89,19.89,0,0,0-2.28-.81,23.09,23.09,0,0,0-2.32-.57l-1.41-.25c-.35,0-.71-.09-1.06-.12l-1.48-.15c-.44,0-.88,0-1.32,0-.76,0-1.53,0-2.29,0-.5,0-1,.07-1.5.11q-.43,0-.87.09l-1.37.22c-.67.13-1.33.26-2,.42s-1.11.31-1.66.47A13.8,13.8,0,0,0,3.11,13a4.82,4.82,0,0,0-1,.72.64.64,0,0,0-.21.5,2.7,2.7,0,0,1,0-.28c-.08-.51-.15-1-.23-1.53,0-.29-.09-.57-.14-.86A5.62,5.62,0,0,0,1.44,11l-.06.11-.25.85a15.82,15.82,0,0,0-.47,2.65c-.06.56-.07,1.13-.1,1.7,0,.22,0,.44,0,.66a11.17,11.17,0,0,0,.08,1.29c.07.45.13.91.2,1.36a12,12,0,0,0,.53,2.12,13.77,13.77,0,0,0,1.34,2.92,12,12,0,0,0,1.68,2.21,9.49,9.49,0,0,0,.86.82c.37.32.75.63,1.15.92a12.8,12.8,0,0,0,2.77,1.5,14,14,0,0,0,2.54.77,15.46,15.46,0,0,0,1.66.25c.61.06,1.21.09,1.82.1l.5,0a10.67,10.67,0,0,0,1.6-.12c.48-.08,1-.15,1.43-.24a13.74,13.74,0,0,0,3.53-1.25,11.49,11.49,0,0,0,1.08-.61,12.35,12.35,0,0,0,2-1.49A14.53,14.53,0,0,0,26.67,26a13.55,13.55,0,0,0,1.5-2.37,13.07,13.07,0,0,0,.92-2.34q.19-.72.36-1.44a11.51,11.51,0,0,0,.24-1.65c0-.53.09-1.05.1-1.58s0-1.07-.07-1.61a7.79,7.79,0,0,0-.09-1,13.9,13.9,0,0,0-.34-1.82c-.12-.45-.25-.9-.38-1.34h-.05l-.07.59,0,.07-.09.59C28.58,12.78,28.48,13.43,28.39,14.09ZM1.92,13,2,13,2.08,13a5.83,5.83,0,0,1,1-.65,15.47,15.47,0,0,1,2.54-1.1l1.89-.57c.47-.12.95-.22,1.44-.32s1-.18,1.5-.26l1-.13,1-.09c.47,0,.93-.09,1.39-.1,1,0,2-.05,3,0,.4,0,.79,0,1.18.08.58.05,1.16.12,1.73.19s1,.15,1.53.25a26.33,26.33,0,0,1,2.94.74,20.57,20.57,0,0,1,2.3.88,8.37,8.37,0,0,1,1.69,1l.21.15a.25.25,0,0,1,0-.07c0-.3.08-.61.13-.91l.18-1.23c.05-.41.11-.82.17-1.23s.09-.66.14-1,.09-.61.13-.92l.18-1.22c.05-.34.08-.67.15-1a1,1,0,0,0-.27-1,2.74,2.74,0,0,0-.36-.32c-.28-.19-.56-.37-.85-.53a16.6,16.6,0,0,0-1.85-.9,18.11,18.11,0,0,0-2.24-.8c-.62-.18-1.25-.35-1.87-.49s-1.27-.25-1.9-.36Q19.51,1,18.88.9c-.33,0-.66-.06-1-.09-.5,0-1-.09-1.5-.1-1.08,0-2.15,0-3.23,0H13.1c-.51.05-1,.09-1.54.15s-.88.1-1.32.17-1.07.2-1.6.3A23.93,23.93,0,0,0,6.15,2,23.12,23.12,0,0,0,3.6,3a7.94,7.94,0,0,0-2,1.2A3.12,3.12,0,0,0,.93,5a.85.85,0,0,0-.1.62A2.32,2.32,0,0,1,.89,6c.06.4.11.79.17,1.19l.18,1.26c.05.32.1.63.14,1s.09.62.13.92.09.63.14.94.09.61.13.92.1.57.14.86Z"/><path id="Path_31357" data-name="Path 31357" class="cls-2" d="M1.53,11.53c.05.28.1.57.14.85.08.51.15,1,.23,1.53a2.7,2.7,0,0,0,0,.28c0,.15.12.19.24.2a1.87,1.87,0,0,0,.67-.06c.72-.16,1.42-.4,2.12-.62l1.25-.4c0,.07,0,.15,0,.22A10.64,10.64,0,0,0,5.81,16a10.29,10.29,0,0,0,0,1.11A11.6,11.6,0,0,0,6,18.32a9.54,9.54,0,0,0,1,3,8.45,8.45,0,0,0,2.58,2.9,9.54,9.54,0,0,0,5.13,1.66,10.59,10.59,0,0,0,2-.1,10.37,10.37,0,0,0,1.77-.42A8.65,8.65,0,0,0,21,24.06,8.32,8.32,0,0,0,23,22a9.18,9.18,0,0,0,1.22-2.71,10.64,10.64,0,0,0,.36-2.51c0-.38,0-.75,0-1.13A9.14,9.14,0,0,0,24.28,14q-.08-.37-.18-.75l1,.32c.75.24,1.5.48,2.25.69a3,3,0,0,0,.72.12c.21,0,.26-.06.29-.27.09-.66.19-1.31.28-2,0-.2.06-.39.08-.59a.25.25,0,0,1,0-.07v0a14,14,0,0,1,.56,2.65,16.65,16.65,0,0,1,.13,2.73c0,.66-.07,1.31-.15,2a15.74,15.74,0,0,1-.95,3.64,13,13,0,0,1-6.56,7,14.83,14.83,0,0,1-5.15,1.36,16.31,16.31,0,0,1-2,.06q-.81,0-1.62-.12A15,15,0,0,1,9.83,30a13.13,13.13,0,0,1-5-3.1,13,13,0,0,1-2.77-4.1A15.93,15.93,0,0,1,.84,16.55a16.48,16.48,0,0,1,.22-3A12.84,12.84,0,0,1,1.53,11.53ZM15.46,29.46l.84-.06v-.25L16.11,29l0-.39c.11-.05.14,0,.19.07l.44.54s.09.1.13.1.38,0,.58-.05v-.24a.77.77,0,0,1-.25-.1c-.16-.14-.32-.31-.47-.46l.2-.18a.62.62,0,0,0,0-.87.64.64,0,0,0-.31-.15,2.31,2.31,0,0,0-.37,0c-.26,0-.51,0-.77.06l-.12,0a.31.31,0,0,0,.18.34l.11,1.37-.16.15ZM5.34,24.92a.69.69,0,0,1,0-.25c0-.21.11-.43.17-.65A.73.73,0,0,0,6,24.1a.61.61,0,0,0,.44-.73.77.77,0,0,0-.07-.16,9,9,0,0,0-.63-1c-.2.11-.2.11-.23.34L5,23l-.56.39-.2-.06-.2.14.48.7.2-.15,0-.2L5,23.57c.1.06.07.13,0,.2l-.3.78.36.52L5.24,25l.1-.08Zm19-.08s.06-.07.08-.07l1,.07.4-.47-.21-.18a.51.51,0,0,1-.42.13c-.15,0-.31,0-.45,0v-.24a.62.62,0,0,0-.35-.56.54.54,0,0,0-.61.05.7.7,0,0,0-.19.16c-.17.18-.33.37-.5.56s-.11.14-.18.21l.18.15a.38.38,0,0,1,.26,0l1,.85v.22l.18.15.55-.64c-.19-.17-.19-.17-.39-.13Zm-11,4.51,1.16,0a.9.9,0,0,0,.22-.06.54.54,0,0,0,.36-.6.53.53,0,0,0-.31-.45l.13-.12a.49.49,0,0,0,0-.7.39.39,0,0,0-.1-.08.58.58,0,0,0-.22-.08l-1.07-.1c0,.22,0,.22.12.41L13.47,29a.29.29,0,0,0-.18.38Zm7.16-3.22c0,.15.09.24.24.25s.07.06.09.1c.13.27.26.54.38.81a.39.39,0,0,1-.16.51l-.06,0a.36.36,0,0,1-.49-.13l0-.05-.42-.9.1-.19-.1-.21-.41.19-.39.19.1.2.23,0c0,.06,0,.11.08.16.12.26.23.52.36.77a.68.68,0,0,0,.58.42,1,1,0,0,0,.73-.2.76.76,0,0,0,.3-1.05h0c-.15-.28-.27-.58-.4-.86l.12-.22-.11-.19Zm-10.39.08L8.93,27.38a.6.6,0,0,1-.38.24l-.09.21.74.33.1-.22-.1-.18.15-.17.62.28v.23c-.18,0-.22.13-.26.27l.8.36c.05-.09.13-.17.07-.27a.7.7,0,0,1-.05-.43c0-.53.05-1.06.08-1.58Zm8.45,2.86a.25.25,0,0,0-.17-.31h-.06l0-.23.65-.16.13.18c-.11.18-.11.18,0,.38l.84-.22-.06-.22a.61.61,0,0,1-.33-.28c-.27-.4-.55-.79-.83-1.17l-.13-.18L18,27c0,.12,0,.24,0,.36,0,.47-.09.93-.15,1.39a.33.33,0,0,1,0,.17.25.25,0,0,0,0,.34ZM8.77,25.91l-1,.73,0,0,.36-1.17c.22,0,.22,0,.33-.21l-.74-.52-.13.2a.5.5,0,0,1,0,.38c-.15.49-.29,1-.43,1.49,0,0,0,.09,0,.13l.46.33.16-.1c.41-.27.81-.53,1.21-.81a.57.57,0,0,1,.43-.13l.05,0L9.58,26l-.72-.51a.26.26,0,0,0-.12.35l0,0Zm16.53-4-.46-.26L24.1,23l.21.13.2-.08,1.19.68,0,.21L26,24l.79-1.38-.48-.27-.09.16.09.22-.29.49L25.5,23c0-.06.05-.13.09-.15l.24,0,.09-.18-.61-.34c0,.11-.07.2,0,.26a.23.23,0,0,1-.08.28l-.42-.24c.07-.12.13-.21.18-.31a.18.18,0,0,1,.14-.11c.12,0,.18-.09.22-.21Zm-2.62,5.39,1.26-1-.34-.44-.15.13v.22l-.45.35-.34-.44.17-.11.22.06L23.2,26l-.4-.53c-.08.07-.17.09-.17.2s-.07.18-.18.23l-.29-.39a2.73,2.73,0,0,0,.25-.2.25.25,0,0,1,.22-.05.26.26,0,0,0,.27-.12l-.32-.41-1.2.91.15.2h.21c.24.31.47.62.71.92a.29.29,0,0,1,.07.36ZM3.72,22,4,21.81c0,.11.09.22.14.31a.68.68,0,0,0,.7.37.65.65,0,0,0,.63-.66.41.41,0,0,0,0-.11,1.89,1.89,0,0,0-.09-.34l-.28-.63c0-.05,0-.09-.07-.14l-.2.09-.07.21-1.26.55-.19-.1-.22.1.34.78.23-.09Zm7.43,7,.91.23,0-.27-.17-.13.34-1.33.31.07.05.33.32.08.17-.68-2-.5-.17.68.32.08.21-.26.29.07-.34,1.32-.22.08Zm14.2-7.53,1.22.49a.13.13,0,0,1,.09.09c0,.15.14.19.28.22l.31-.79L27,21.27l-.17.12-1.28-.51,0-.2-.24-.08-.31.8.23.09ZM6.82,24.24l-1,1-.22,0-.17.17L6,26l.2-.18,0-.21,1-.95.16,0,.24-.18-.33-.3a4,4,0,0,1-.29-.3L6.78,24Z"/><path id="Path_31358" data-name="Path 31358" class="cls-3" d="M1.92,13c0-.3-.09-.58-.13-.87s-.09-.61-.13-.91-.09-.63-.14-.94-.09-.62-.13-.92-.09-.64-.14-1L1.07,7.18C1,6.79,1,6.39.9,6c0-.12,0-.25-.06-.38A.81.81,0,0,1,.94,5a3.17,3.17,0,0,1,.68-.82,8.05,8.05,0,0,1,2-1.2,22.7,22.7,0,0,1,5-1.62l1.6-.3c.44-.07.88-.12,1.32-.17L13.11.74h.05c1.08-.06,2.15-.06,3.23,0,.5,0,1,.06,1.5.1.33,0,.66,0,1,.09s.84.11,1.26.18c.63.11,1.27.22,1.9.36s1.25.31,1.87.49a18.11,18.11,0,0,1,2.24.8A15.59,15.59,0,0,1,28,3.62c.3.17.58.35.86.54a2.17,2.17,0,0,1,.36.32,1,1,0,0,1,.27,1c-.07.33-.1.67-.15,1l-.18,1.23c0,.3-.09.61-.13.92s-.1.66-.14,1-.11.82-.17,1.23L28.53,12c0,.31-.09.62-.13.92a.64.64,0,0,1,0,.07l-.2-.15a8.72,8.72,0,0,0-1.7-1A18.65,18.65,0,0,0,24.19,11a25,25,0,0,0-3-.74c-.5-.1-1-.18-1.53-.25S18.56,9.89,18,9.84c-.39,0-.78-.06-1.18-.09-1-.07-2,0-3,0-.47,0-.93.07-1.39.1s-.65.05-1,.09l-1,.13c-.5.08-1,.16-1.5.26s-1,.2-1.44.32-1.26.36-1.89.57a15,15,0,0,0-2.54,1.1,5.83,5.83,0,0,0-1,.65L2,13ZM18.05,7.23l-.18.08a.87.87,0,0,0-.44,1.14,1.07,1.07,0,0,0,.19.28A1.83,1.83,0,0,0,18,9a3.21,3.21,0,0,0,1.39.32,2.55,2.55,0,0,0,1.13-.2,1.22,1.22,0,0,0,.72-.8.89.89,0,0,0-.21-1A1.4,1.4,0,0,0,20.44,7l-.69-.2c-.23-.06-.44-.11-.65-.18s-.17-.11-.06-.25a2.7,2.7,0,0,0,.94,0A1.24,1.24,0,0,0,21.1,5.09V4.81l.33.09.66-.76-.11,0a13.15,13.15,0,0,0-2.14-.54,2.75,2.75,0,0,0-1.21.06,1.31,1.31,0,0,0-.86.73A1.47,1.47,0,0,0,18.08,6a.41.41,0,0,0,.11.07.74.74,0,0,0-.27,1,1,1,0,0,0,.13.16ZM7.72,8,5.23,3.6a15.26,15.26,0,0,0-1.55.64.17.17,0,0,0-.09.14c0,.39-.11.78-.16,1.17L3.19,7.39l-.3,2.13,0,.33L4.17,9.2l.14-1.1a12.12,12.12,0,0,1,1.52-.57l.49.9Zm5.62-.82,1.32,0s0-.08,0-.12c0-.69,0-1.39,0-2.08a.43.43,0,0,1,.2-.39.67.67,0,0,1,.55-.13.43.43,0,0,1,.39.45h0v.22c0,.61,0,1.23,0,1.84a1.49,1.49,0,0,0,0,.21l1.32.05V6.38c0-.6,0-1.21,0-1.81a1.24,1.24,0,0,0-1.09-1.24,2,2,0,0,0-.6,0,1.43,1.43,0,0,0-.83.37l0-.29c-.46,0-.9,0-1.35.06ZM8,4.21l-1.34.36.12.21L8.5,7.68A.37.37,0,0,1,8.55,8c-.1.4-.2.8-.29,1.21,0,.19-.09.38-.13.59l1.31-.27,1.44-5.81L9.45,3.9c-.16.76-.29,1.52-.45,2.26H9ZM25,7.1a5.65,5.65,0,0,0,.1-1,2,2,0,0,0-.19-.81,1.68,1.68,0,0,0-1.13-.88,1.66,1.66,0,0,0-1.59.28A2.1,2.1,0,0,0,21.7,7.3a1.85,1.85,0,0,0,1.1.86A4.83,4.83,0,0,0,24,8.39a2,2,0,0,0,.65,0l.1-.9-1-.13A1.93,1.93,0,0,1,22.89,7a.69.69,0,0,1-.28-.49c.81.18,1.58.44,2.39.62Zm2.68.12.37-1A1.28,1.28,0,0,0,26.76,6l0-.34-1.13-.46c-.13,1.22-.26,2.42-.4,3.62l1.08.39a.32.32,0,0,0,0-.09l.24-1.86a.33.33,0,0,1,.33-.33h0a.65.65,0,0,1,.38.09,3.24,3.24,0,0,1,.35.21ZM12.57,3.5l-1.42.14.14,3.76,1.38-.14c0-1.25-.07-2.5-.1-3.76Zm-.72-1.56a.73.73,0,0,0-.45.12.64.64,0,0,0-.31.58.57.57,0,0,0,.39.53A.8.8,0,0,0,12.32,3a.59.59,0,0,0,.21-.64.64.64,0,0,0-.68-.46Z"/><path id="Path_31359" data-name="Path 31359" class="cls-4" d="M28.39,14.09c0,.22-.07.28-.29.27a3.61,3.61,0,0,1-.72-.12l-2.25-.69-1-.32a4.5,4.5,0,0,0-.63-.17,1.08,1.08,0,0,1,.05.19A8.89,8.89,0,0,1,24,15.76a11.16,11.16,0,0,1-.13,2.45,9.56,9.56,0,0,1-.67,2.23A8.1,8.1,0,0,1,21,23.38a8.19,8.19,0,0,1-2.46,1.39,9.06,9.06,0,0,1-2.62.54,10.29,10.29,0,0,1-2.15-.07,9.93,9.93,0,0,1-1.93-.49A8.28,8.28,0,0,1,8.9,23a7.51,7.51,0,0,1-1-1.13A8.58,8.58,0,0,1,6.71,19.2a9.67,9.67,0,0,1-.36-2.14,10.79,10.79,0,0,1,.06-2,12.74,12.74,0,0,1,.23-1.26c.06-.23.13-.47.2-.72l-.62.21L5,13.71c-.7.23-1.4.47-2.12.63a1.89,1.89,0,0,1-.67.06c-.12,0-.23-.05-.25-.2a.68.68,0,0,1,.22-.5,4.55,4.55,0,0,1,1-.72A13.8,13.8,0,0,1,6.2,11.67c.55-.16,1.1-.33,1.66-.47s1.32-.29,2-.42c.46-.09.92-.15,1.38-.22l.86-.09c.51,0,1-.1,1.51-.11.76,0,1.53,0,2.29,0,.44,0,.88,0,1.32,0s1,.09,1.48.15.71.07,1.06.12l1.41.25a23.09,23.09,0,0,1,2.32.57,19.89,19.89,0,0,1,2.28.81,10,10,0,0,1,1.78.93,2.52,2.52,0,0,1,.66.6A2.6,2.6,0,0,1,28.39,14.09Zm-6,7.26s0,0,0,0a8.2,8.2,0,0,0,1.1-2.77l0,0c0-.32.09-.63.13-1a7.37,7.37,0,0,0,.06-1.33l0-.64a3,3,0,0,0,0-.43c-.06-.38-.13-.77-.19-1.16a.21.21,0,0,0-.16-.19c-.29-.11-.57-.24-.87-.33s-.82-.23-1.22-.35-.39-.21-.31-.54a.79.79,0,0,1,.54-.17,4.54,4.54,0,0,1,1,.14c1,.23,1.92.55,2.87.86a24.41,24.41,0,0,0,2.49.73.89.89,0,0,0,.43,0,.2.2,0,0,0,0-.11,1.48,1.48,0,0,0-.54-.57l-.11,0L26,13c-1.07-.35-2.14-.72-3.23-1a5.69,5.69,0,0,0-1.48-.16h-.15l.12-.76h-.15l-.06,0-1.24-.2c-.57-.08-1.14-.17-1.71-.22s-1.11-.1-1.66-.12q-1.25,0-2.49,0c-.51,0-1,.07-1.52.11-.33,0-.66,0-1,.09-.59.08-1.17.17-1.76.27a4.82,4.82,0,0,0-.52.11l-.14,0c0,.27.1.52.11.77a6,6,0,0,0-.6,0,7.63,7.63,0,0,0-1.35.24c-1,.25-1.95.6-2.92.9-.46.14-.92.31-1.39.42a1.34,1.34,0,0,0-.7.52.25.25,0,0,0-.06.27,1.55,1.55,0,0,0,.48,0c.52-.14,1-.26,1.55-.42L6.74,13a11.66,11.66,0,0,1,1.85-.47,1.14,1.14,0,0,1,.83.11c.11.34,0,.42-.22.5a2.13,2.13,0,0,1-.33.11,11.11,11.11,0,0,0-1.8.58.27.27,0,0,0-.18.22,10.86,10.86,0,0,0-.26,2,4.84,4.84,0,0,0,0,1.14l.07.77a.86.86,0,0,0,0,.16,8.76,8.76,0,0,0,1,3c.14.23.3.45.45.68l.06.1a6.56,6.56,0,0,0,1,1.07l.59.47.25.19a7.89,7.89,0,0,0,2.54,1.15c.34.09.69.14,1,.2s.61.09.92.11a10.09,10.09,0,0,0,2.57-.18,8.28,8.28,0,0,0,3.44-1.56,5.46,5.46,0,0,0,1-.93,5.36,5.36,0,0,0,.75-1Zm.8-8.4-1-.23a2.79,2.79,0,0,0-.81-.08.37.37,0,0,0-.27.09c-.07.07-.06.15,0,.19a1.72,1.72,0,0,0,.29.11A14,14,0,0,1,23,13.5l.4.16a4.35,4.35,0,0,0-.18-.71ZM7,13.65H7a9.3,9.3,0,0,1,1.54-.52c.2,0,.41-.11.61-.18s.13-.06.11-.13a.19.19,0,0,0-.11-.12,1.5,1.5,0,0,0-.42,0c-.37.06-.74.15-1.1.23-.18,0-.36.1-.53.15Z"/><path id="Path_31360" data-name="Path 31360" class="cls-5" d="M1.53,11.53a13.91,13.91,0,0,0-.47,2,17.51,17.51,0,0,0-.22,3A16.07,16.07,0,0,0,2.1,22.81a13,13,0,0,0,2.77,4.11,13.25,13.25,0,0,0,5,3.1,15.09,15.09,0,0,0,3.24.75c.54.06,1.08.1,1.63.12a16.37,16.37,0,0,0,2-.06,15,15,0,0,0,5.14-1.35,13,13,0,0,0,6.56-7,14.87,14.87,0,0,0,.95-3.65,18.3,18.3,0,0,0,.16-1.95,19.06,19.06,0,0,0-.13-2.73,15.19,15.19,0,0,0-.57-2.66h0l.07-.59h0c.12.45.26.89.38,1.34A14.21,14.21,0,0,1,29.62,14c.05.32.07.65.09,1,0,.53.07,1.07.07,1.6s-.06,1.06-.1,1.59a11.38,11.38,0,0,1-.24,1.64c-.11.49-.22,1-.36,1.45a13.38,13.38,0,0,1-.92,2.34A13.93,13.93,0,0,1,26.66,26a13.43,13.43,0,0,1-1.36,1.46,11.84,11.84,0,0,1-2,1.5c-.35.21-.71.42-1.08.61a13.72,13.72,0,0,1-3.53,1.24c-.47.1-.95.17-1.43.24a10.67,10.67,0,0,1-1.6.12c-.17,0-.34,0-.5,0-.61,0-1.21,0-1.82-.1s-1.11-.14-1.66-.25a14.89,14.89,0,0,1-2.54-.77,13.25,13.25,0,0,1-2.77-1.5c-.4-.29-.78-.6-1.15-.92s-.58-.54-.86-.82A12.11,12.11,0,0,1,2.72,24.6a13.77,13.77,0,0,1-1.34-2.92,13.07,13.07,0,0,1-.54-2.11c-.06-.45-.12-.91-.19-1.36a11.34,11.34,0,0,1-.08-1.3c0-.22,0-.44,0-.66,0-.56,0-1.13.1-1.7a15.88,15.88,0,0,1,.47-2.64c.08-.29.17-.57.25-.85l.06-.12A3.83,3.83,0,0,1,1.53,11.53Z"/><path id="Path_31361" data-name="Path 31361" class="cls-6" d="M6.22,13.31l.62-.21c-.07.26-.14.49-.2.72a10.71,10.71,0,0,0-.22,1.26,10.07,10.07,0,0,0-.06,2,9.12,9.12,0,0,0,.35,2.13,8.27,8.27,0,0,0,1.23,2.62,6.91,6.91,0,0,0,1,1.13,8.14,8.14,0,0,0,2.89,1.8,9.93,9.93,0,0,0,1.93.49,10.29,10.29,0,0,0,2.15.07,9.13,9.13,0,0,0,2.63-.54A8.59,8.59,0,0,0,21,23.38a8,8,0,0,0,2.23-2.94,8.77,8.77,0,0,0,.67-2.24A10.59,10.59,0,0,0,24,15.75a9.66,9.66,0,0,0-.45-2.5,1.93,1.93,0,0,1-.05-.2,3.38,3.38,0,0,1,.62.18l.18.75a8.89,8.89,0,0,1,.23,1.63c0,.37,0,.75,0,1.12a10.64,10.64,0,0,1-.36,2.51A9.07,9.07,0,0,1,23,22a8.32,8.32,0,0,1-2,2.1,8.63,8.63,0,0,1-2.46,1.29,9.49,9.49,0,0,1-1.77.41,10.59,10.59,0,0,1-2,.11,9.55,9.55,0,0,1-5.13-1.67A8.36,8.36,0,0,1,7,21.29a9.82,9.82,0,0,1-1.15-4.15,10,10,0,0,1,0-1.1,10.64,10.64,0,0,1,.36-2.51C6.19,13.46,6.2,13.38,6.22,13.31Z"/><path id="Path_31362" data-name="Path 31362" class="cls-7" d="M15.46,29.46l0-.24.16-.15-.11-1.38a.27.27,0,0,1-.18-.33l.11,0,.78-.06a1.46,1.46,0,0,1,.36,0,.61.61,0,0,1,.5.71.64.64,0,0,1-.15.31l-.21.18c.16.15.31.32.48.46a.64.64,0,0,0,.24.1v.24l-.57.05c-.05,0-.1-.06-.13-.1l-.45-.54c0-.05-.08-.12-.19-.07l0,.39.18.12,0,.25Zm.59-1.2a1.94,1.94,0,0,0,.33-.07.25.25,0,0,0,.16-.32h0a.23.23,0,0,0-.25-.21H16Z"/><path id="Path_31363" data-name="Path 31363" class="cls-7" d="M5.34,24.92,5.25,25l-.12.07-.35-.52c.1-.27.2-.52.3-.78,0-.07.06-.14,0-.2l-.33.22V24l-.21.14L4,23.44l.2-.15.2.07L5,23l.57-.39c0-.23,0-.23.23-.34a9,9,0,0,1,.63,1A.6.6,0,0,1,6.2,24L6,24.1A.76.76,0,0,1,5.47,24c-.06.22-.12.44-.17.65A.69.69,0,0,0,5.34,24.92Zm0-1.57a2.57,2.57,0,0,0,.21.24.27.27,0,0,0,.36,0A.24.24,0,0,0,6,23.27H6A2.36,2.36,0,0,0,5.84,23Z"/><path id="Path_31364" data-name="Path 31364" class="cls-8" d="M24.31,24.84l.31.27c.21,0,.21,0,.39.12l-.54.65-.18-.15v-.22c-.33-.29-.66-.58-1-.85-.05-.05-.16,0-.26,0l-.17-.15.17-.2c.17-.19.33-.38.51-.57a1,1,0,0,1,.19-.16.53.53,0,0,1,.6,0,.6.6,0,0,1,.35.56v.24h.45a.49.49,0,0,0,.42-.12l.21.17-.4.47-1-.06S24.34,24.8,24.31,24.84ZM24,24.6a1.44,1.44,0,0,0,.18-.25.26.26,0,0,0-.09-.35.24.24,0,0,0-.33,0h0a1.45,1.45,0,0,0-.21.22Z"/><path id="Path_31365" data-name="Path 31365" class="cls-7" d="M13.29,29.35a.3.3,0,0,1,.17-.38h0l.09-1.35c-.16-.19-.16-.19-.12-.41l1.08.1a.54.54,0,0,1,.21.08.51.51,0,0,1,.2.68.39.39,0,0,1-.08.1,1.35,1.35,0,0,1-.12.12.55.55,0,0,1,.3.45.52.52,0,0,1-.36.6.79.79,0,0,1-.22.06Zm.73-.84L14,29h.33a.14.14,0,0,0,.14-.12c0-.2,0-.37-.24-.39A1.33,1.33,0,0,0,14,28.51Zm.07-.89,0,.49c.15,0,.28.05.37-.08a.24.24,0,0,0,0-.27.36.36,0,0,0-.35-.14Z"/><path id="Path_31366" data-name="Path 31366" class="cls-7" d="M20.45,26.13l.73-.34.1.2-.11.21c.13.28.25.58.4.86a.77.77,0,0,1-.28,1.06h0a1.05,1.05,0,0,1-.73.19.67.67,0,0,1-.58-.41c-.13-.26-.24-.52-.36-.78,0-.05-.05-.1-.08-.16l-.23,0-.1-.2.39-.19.41-.18.1.2-.1.19.42.9a.37.37,0,0,0,.47.21l.05,0a.37.37,0,0,0,.24-.47s0,0,0-.05c-.12-.27-.25-.54-.38-.81,0,0-.06-.11-.09-.11S20.49,26.28,20.45,26.13Z"/><path id="Path_31367" data-name="Path 31367" class="cls-7" d="M10.06,26.21l.54.24c0,.53-.06,1.06-.08,1.59a.71.71,0,0,0,.05.43c.06.1,0,.18-.07.27l-.8-.36c0-.14.08-.27.25-.27l0-.24-.62-.27-.15.16.1.18-.1.23-.75-.34.09-.21a.58.58,0,0,0,.39-.23Zm0,.59-.47.5.41.18Z"/><path id="Path_31368" data-name="Path 31368" class="cls-7" d="M18.51,29.07l-.75.19a.25.25,0,0,1,0-.34.29.29,0,0,0,0-.16c.06-.46.1-.93.15-1.39,0-.12,0-.24,0-.37l.56-.14.13.17.83,1.17c.09.12.17.25.33.28l.07.23-.85.22c-.1-.2-.1-.21,0-.38L19,28.37l-.65.16,0,.23a.25.25,0,0,1,.24.26A.07.07,0,0,1,18.51,29.07Zm-.19-.93.44-.12-.38-.56Z"/><path id="Path_31369" data-name="Path 31369" class="cls-8" d="M8.77,25.91a.26.26,0,0,1,.05-.36l0,0,.72.51-.11.17-.05,0a.53.53,0,0,0-.43.13l-1.2.81-.17.1-.46-.33c0-.05,0-.09,0-.14.14-.49.28-1,.43-1.48a.46.46,0,0,0,0-.38l.14-.2.73.52c-.11.2-.11.2-.33.21l-.36,1.17,0,0Z"/><path id="Path_31370" data-name="Path 31370" class="cls-8" d="M25.3,21.93c0,.12-.1.2-.22.21a.19.19,0,0,0-.15.11,2.49,2.49,0,0,1-.17.31l.42.24a.24.24,0,0,0,.08-.28c0-.07,0-.15,0-.26l.61.34-.09.17a.94.94,0,0,0-.24.06s-.06.08-.09.14l.47.28.28-.49-.09-.22.09-.17.49.27L26,24l-.23-.12,0-.21L24.5,23l-.2.07L24.09,23l.75-1.31Z"/><path id="Path_31371" data-name="Path 31371" class="cls-8" d="M22.68,27.32l-.16-.2a.29.29,0,0,0-.07-.36c-.24-.3-.47-.62-.71-.93h-.21l-.15-.19,1.19-.91.33.41a.25.25,0,0,1-.27.11.25.25,0,0,0-.22.06l-.25.2.29.39c.11-.05.19-.11.18-.23s.09-.13.16-.2l.41.53-.15.13-.23-.06-.16.11.34.44.45-.35V26l.15-.13.34.44Z"/><path id="Path_31372" data-name="Path 31372" class="cls-7" d="M3.72,21.94l-.05.21-.22.09-.34-.78.21-.1.19.1,1.27-.55.06-.21.21-.09.07.13c.09.22.19.43.28.64a1.89,1.89,0,0,1,.09.34.65.65,0,0,1-.52.75H4.86a.65.65,0,0,1-.69-.36c0-.1-.09-.2-.15-.31ZM5,21.39l-.58.25c.09.3.26.43.5.31s.25-.24.08-.57Z"/><path id="Path_31373" data-name="Path 31373" class="cls-8" d="M11.15,28.9l.06-.23.23-.08.33-1.32-.29-.07-.21.26L11,27.38l.17-.68,2,.5-.17.68-.32-.08-.05-.33-.31-.07L12,28.73l.17.13-.06.27Z"/><path id="Path_31374" data-name="Path 31374" class="cls-8" d="M25.35,21.37l-.17.11L25,21.4l.32-.81.23.09,0,.2,1.28.5.17-.11.26.1-.31.79c-.14,0-.25-.06-.28-.22a.2.2,0,0,0-.09-.09Z"/><path id="Path_31375" data-name="Path 31375" class="cls-8" d="M6.81,24.23l0-.21L7,23.87l.29.3c.1.1.21.19.34.3l-.25.18-.16,0-1,.94,0,.22L6,26l-.59-.62.17-.17.22,0Z"/><path id="Path_31376" data-name="Path 31376" class="cls-9" d="M18.05,7.23a.73.73,0,0,1,0-1,.7.7,0,0,1,.17-.13L18.07,6a1.45,1.45,0,0,1-.3-1.64,1.29,1.29,0,0,1,.86-.73,2.74,2.74,0,0,1,1.21-.06A13.41,13.41,0,0,1,22,4.09l.11,0-.66.76-.34-.09v.28A1.23,1.23,0,0,1,20,6.42a2.71,2.71,0,0,1-.94,0c-.1.13-.09.2.06.25l.66.18c.22.06.46.12.69.2a1.47,1.47,0,0,1,.57.32.91.91,0,0,1,.21,1,1.22,1.22,0,0,1-.71.79,2.36,2.36,0,0,1-1.14.2A3.14,3.14,0,0,1,18,9a1.19,1.19,0,0,1-.36-.26.86.86,0,0,1,0-1.22,1,1,0,0,1,.27-.19Zm1.42-1.69A.5.5,0,0,0,20,5.05V5a.53.53,0,0,0-.48-.56h-.06A.55.55,0,0,0,19,5h0a.5.5,0,0,0,.48.51Zm.21,2.86A1.61,1.61,0,0,0,20,8.3a.22.22,0,0,0,0-.42,1.36,1.36,0,0,0-.25-.11L19,7.61a.3.3,0,0,0-.35.25v0a.37.37,0,0,0,.24.36,2.21,2.21,0,0,0,.77.16Z"/><path id="Path_31377" data-name="Path 31377" class="cls-9" d="M7.72,8l-1.4.38-.49-.9a11.61,11.61,0,0,0-1.52.58L4.17,9.19l-1.32.65c0-.11,0-.22,0-.32.1-.71.2-1.42.29-2.13s.17-1.23.25-1.85c0-.39.11-.78.16-1.17a.13.13,0,0,1,.09-.13c.5-.24,1-.45,1.54-.65ZM4.46,6.85l.9-.36L4.71,5.33s-.06.07-.06.09C4.59,5.89,4.53,6.36,4.46,6.85Z"/><path id="Path_31378" data-name="Path 31378" class="cls-9" d="M13.34,7.22l-.09-3.75c.45-.06.88,0,1.34-.06l0,.29a1.49,1.49,0,0,1,.83-.37,2,2,0,0,1,.6,0,1.23,1.23,0,0,1,1.09,1.24c0,.6,0,1.2,0,1.81v.85l-1.32-.05a1.49,1.49,0,0,1,0-.21c0-.62,0-1.23,0-1.85V4.91a.42.42,0,0,0-.38-.45h0a.68.68,0,0,0-.55.12.46.46,0,0,0-.2.4c0,.69,0,1.38,0,2.08,0,0,0,.07,0,.12Z"/><path id="Path_31379" data-name="Path 31379" class="cls-9" d="M8,4.21l1,2H9c.16-.75.29-1.5.44-2.27l1.44-.22L9.44,9.48l-1.31.27c0-.21.09-.4.13-.59.1-.4.2-.8.29-1.2a.28.28,0,0,0-.05-.27L6.74,4.79l-.13-.22Z"/><path id="Path_31380" data-name="Path 31380" class="cls-9" d="M25,7.1c-.81-.19-1.58-.44-2.39-.62a.79.79,0,0,0,.28.5,2.06,2.06,0,0,0,.89.37c.31.06.62.09.95.13l-.1.9a2,2,0,0,1-.64,0,5.24,5.24,0,0,1-1.18-.23A1.85,1.85,0,0,1,21.7,7.3a2.1,2.1,0,0,1,.49-2.6,1.66,1.66,0,0,1,1.6-.29,1.74,1.74,0,0,1,1.12.88,1.89,1.89,0,0,1,.19.81A4.78,4.78,0,0,1,25,7.1Zm-1-1a.62.62,0,0,0-.39-.78l-.05,0a.59.59,0,0,0-.75.37l0,.12Z"/><path id="Path_31381" data-name="Path 31381" class="cls-9" d="M27.68,7.22,27.32,7A.78.78,0,0,0,27,6.91a.33.33,0,0,0-.35.31v0l-.24,1.86,0,.09-1.08-.39.4-3.62,1.12.46,0,.34A1.27,1.27,0,0,1,28,6.26Z"/><path id="Path_31382" data-name="Path 31382" class="cls-9" d="M12.57,3.5c0,1.26.07,2.51.1,3.76l-1.38.14-.14-3.76Z"/><path id="Path_31383" data-name="Path 31383" class="cls-9" d="M11.85,1.94a.63.63,0,0,1,.68.46.57.57,0,0,1-.2.64.8.8,0,0,1-.84.13.56.56,0,0,1-.39-.53.63.63,0,0,1,.31-.58A.77.77,0,0,1,11.85,1.94Z"/><path id="Path_31384" data-name="Path 31384" class="cls-10" d="M20.89,12.61c-.07.33,0,.43.31.54s.83.22,1.23.35.58.21.87.32a.24.24,0,0,1,.16.2c.06.39.13.77.19,1.16,0,.14,0,.28,0,.43l-.16,0a2.54,2.54,0,0,0-1.54.06,2.39,2.39,0,0,0-1,.61H17.85c-.09,0-.12.06-.17.1l-1.11,1.1h-.46c0-.06,0-.12,0-.19V14.66c.08,0,.14-.05.11-.12s0-.18.06-.26a.35.35,0,0,0,.06-.14.82.82,0,0,0-.4-.87l-.3-.18a1,1,0,0,1-.38-.49s0-.1,0-.16,0-.11,0-.17,0-.17,0-.27l.14,0s0-.05,0-.08l-.13,0,0-.13c-.11,0-.06.09-.1.12l-.18.09.21.1-.08.36.07.11-.07.23,0,.07h0a1.24,1.24,0,0,1-.48.4l-.18.11a.78.78,0,0,0-.24,1.06.18.18,0,0,1,0,.16c0,.08,0,.13.11.14v2.95l-.15-.09a1.42,1.42,0,0,0-1.44-.21c-.09,0-.12-.16-.24-.15h-.08l0-.15a1.85,1.85,0,0,0-.5-1,1.8,1.8,0,0,0-1.46-.58,1.82,1.82,0,0,0-1.61,1c-.06.11-.11.23-.16.33h0l-.07,0a1.49,1.49,0,0,0-1.42.06,3.5,3.5,0,0,0-.43.33,5.44,5.44,0,0,1,0-1.14,10.73,10.73,0,0,1,.25-2,.31.31,0,0,1,.18-.22,11.79,11.79,0,0,1,1.8-.58,1.6,1.6,0,0,0,.33-.11c.21-.08.34-.16.22-.5l-.23-1.53A4.82,4.82,0,0,1,9.7,11c.59-.09,1.17-.19,1.76-.27.33,0,.66-.07,1-.09.51,0,1-.09,1.53-.11h2.49c.55,0,1.11.06,1.66.12s1.14.14,1.71.22l1.24.2.07,0-.12.68C21,12.05,20.94,12.33,20.89,12.61Z"/><path id="Path_31385" data-name="Path 31385" class="cls-2" d="M21.61,22.37a6.23,6.23,0,0,1-1,.93,8.27,8.27,0,0,1-3.45,1.56A11,11,0,0,1,14.6,25c-.3,0-.61-.07-.92-.11a6.83,6.83,0,0,1,1.73-2.58H17l0,.22H18.9l0-.22h2.39Z"/><path id="Path_31386" data-name="Path 31386" class="cls-11" d="M15.41,22.35a6.93,6.93,0,0,0-1.72,2.58c-.35-.06-.7-.11-1-.2a7.89,7.89,0,0,1-2.54-1.15l-.25-.19A8.25,8.25,0,0,1,12,21.55a.37.37,0,0,1,.23-.05h1.9v-.33s0,0,0,0h1.05V19.37h.25c0,.45,0,.89,0,1.33Z"/><path id="Path_31387" data-name="Path 31387" class="cls-12" d="M17.85,16.26h5.87a7.37,7.37,0,0,1-.06,1.33c-.05.31-.09.63-.14,1l0,0,0-.08a1.75,1.75,0,0,0-.57.37,3.23,3.23,0,0,0-.54.72h-.65a1.13,1.13,0,0,1-.18,0l.1-.15-.29-.24-1-.81-1-.79-1-.79Z"/><path id="Path_31388" data-name="Path 31388" class="cls-13" d="M6.66,17.12a3.39,3.39,0,0,1,.42-.33,1.51,1.51,0,0,1,1.43-.06l.07,0h0c.05-.1.1-.22.16-.33a1.81,1.81,0,0,1,1.6-1,1.88,1.88,0,0,1,2,1.56c0,.05,0,.1,0,.15H8a.5.5,0,0,0-.37.14c-.26.22-.54.43-.81.65l-.12-.05Z"/><path id="Path_31389" data-name="Path 31389" class="cls-9" d="M14.11,21.16v.32H12.2a.46.46,0,0,0-.23.06,8.25,8.25,0,0,0-2.11,1.84l-.58-.47a6.65,6.65,0,0,1-1-1.08l-.06-.1A1.41,1.41,0,0,0,9,21.23a.39.39,0,0,1,.1-.08h5Z"/><path id="Path_31390" data-name="Path 31390" class="cls-1" d="M9.18,11.08l.24,1.53a1.14,1.14,0,0,0-.83-.11A11.66,11.66,0,0,0,6.74,13l-2.58.83c-.51.16-1,.28-1.55.42a1.55,1.55,0,0,1-.48,0A.23.23,0,0,1,2.19,14a1.3,1.3,0,0,1,.7-.52c.47-.11.93-.28,1.39-.42,1-.31,1.93-.65,2.92-.9a7.63,7.63,0,0,1,1.35-.24,5.8,5.8,0,0,1,.59,0c0-.25-.08-.5-.1-.77Z"/><path id="Path_31391" data-name="Path 31391" class="cls-14" d="M9.11,21.15l-.1.08a1.42,1.42,0,0,1-.77.52c-.15-.23-.31-.45-.45-.68a9,9,0,0,1-1-3,.86.86,0,0,1,0-.16l.12.05.09.1a1.52,1.52,0,0,1,.46.73.38.38,0,0,0,.06.13.67.67,0,0,0,.2,0,1.14,1.14,0,0,1,.73.1,3.23,3.23,0,0,1,.41.22c0,.1.09.14.15.19a1.47,1.47,0,0,1,.18,1.64A.36.36,0,0,0,9.11,21.15Z"/><path id="Path_31392" data-name="Path 31392" class="cls-1" d="M20.9,12.61l.12-.84c0-.23.07-.46.11-.69l.15,0-.12.76h.14a5.65,5.65,0,0,1,1.48.17c1.1.25,2.17.63,3.24,1l1.5.45a.21.21,0,0,1,.11,0,1.45,1.45,0,0,1,.54.56l0,.12a.89.89,0,0,1-.43,0c-.84-.2-1.67-.45-2.49-.73s-1.9-.63-2.87-.86a4.63,4.63,0,0,0-1-.14A.78.78,0,0,0,20.9,12.61Z"/><path id="Path_31393" data-name="Path 31393" class="cls-15" d="M21.54,19.54l.18,0h.65c0,.05,0,.1,0,.14a2.66,2.66,0,0,0-.11.47,2.33,2.33,0,0,0,.15,1.17,5.75,5.75,0,0,1-.76,1l-.3,0V20.22c0-.26,0-.52,0-.78Z"/><path id="Path_31394" data-name="Path 31394" class="cls-14" d="M22.37,21.35a2.33,2.33,0,0,1-.15-1.17,2.66,2.66,0,0,1,.11-.47s0-.09,0-.14a3.23,3.23,0,0,1,.54-.72,1.75,1.75,0,0,1,.57-.37l0,.08a8.41,8.41,0,0,1-1.1,2.77Z"/><path id="Path_31395" data-name="Path 31395" class="cls-9" d="M23.72,16.25H21a2.36,2.36,0,0,1,1-.61,2.5,2.5,0,0,1,1.53-.06l.16,0Z"/><path id="Path_31396" data-name="Path 31396" class="cls-1" d="M23.17,13a4.35,4.35,0,0,1,.18.71L23,13.5A14,14,0,0,0,21.39,13a1.72,1.72,0,0,1-.29-.11.1.1,0,0,1-.06-.13.13.13,0,0,1,0-.06.37.37,0,0,1,.27-.09,2.79,2.79,0,0,1,.81.08Z"/><path id="Path_31397" data-name="Path 31397" class="cls-1" d="M7,13.65,7.13,13c.17,0,.35-.11.53-.15.36-.09.73-.17,1.1-.23a1.2,1.2,0,0,1,.42,0,.2.2,0,0,1,.11.11c0,.08,0,.12-.11.14l-.61.18A9.93,9.93,0,0,0,7,13.64Z"/><path id="Path_31398" data-name="Path 31398" class="cls-9" d="M16.05,28.26l0-.6h.27a.25.25,0,0,1,.25.22.26.26,0,0,1-.16.32h0A1.94,1.94,0,0,1,16.05,28.26Z"/><path id="Path_31399" data-name="Path 31399" class="cls-9" d="M5.35,23.35,5.84,23a1.65,1.65,0,0,1,.15.25.23.23,0,0,1-.07.32h0a.26.26,0,0,1-.36,0Z"/><path id="Path_31400" data-name="Path 31400" class="cls-9" d="M24,24.6l-.46-.39.22-.21a.22.22,0,0,1,.32,0h0a.27.27,0,0,1,.09.34Z"/><path id="Path_31401" data-name="Path 31401" class="cls-9" d="M14,28.51a1.33,1.33,0,0,1,.2,0c.23,0,.29.18.24.39a.14.14,0,0,1-.14.12H14Z"/><path id="Path_31402" data-name="Path 31402" class="cls-16" d="M14.09,27.62c.14,0,.27,0,.34.14a.24.24,0,0,1,0,.27c-.09.13-.22.11-.38.08Z"/><path id="Path_31403" data-name="Path 31403" class="cls-16" d="M10.08,26.8l-.06.68-.41-.18Z"/><path id="Path_31404" data-name="Path 31404" class="cls-16" d="M18.32,28.14l.06-.68.38.56Z"/><path id="Path_31405" data-name="Path 31405" class="cls-9" d="M5,21.39c.17.32.14.46-.08.56s-.42,0-.5-.31Z"/><path id="Path_31406" data-name="Path 31406" class="cls-7" d="M19.47,5.54A.49.49,0,0,1,19,5.07V5a.55.55,0,0,1,.49-.6h0a.51.51,0,0,1,.54.49V5a.51.51,0,0,1-.46.55Z"/><path id="Path_31407" data-name="Path 31407" class="cls-8" d="M19.68,8.4a2,2,0,0,1-.77-.15.37.37,0,0,1-.24-.36A.3.3,0,0,1,19,7.62h0l.77.16a1,1,0,0,1,.25.11.21.21,0,0,1,.13.29.21.21,0,0,1-.13.13Z"/><path id="Path_31408" data-name="Path 31408" class="cls-8" d="M4.46,6.86c.07-.5.13-1,.19-1.44,0,0,0,0,.06-.09L5.37,6.5Z"/><path id="Path_31409" data-name="Path 31409" class="cls-8" d="M24,6.09l-1.22-.31a.59.59,0,0,1,.66-.51l.12,0A.63.63,0,0,1,24,6S24,6.07,24,6.09Z"/><path id="Path_31410" data-name="Path 31410" class="cls-17" d="M8.8,19.22A2.32,2.32,0,0,0,8.39,19a1.09,1.09,0,0,0-.73-.1H7.45l-.06-.14A1.48,1.48,0,0,0,6.94,18l-.09-.11c.27-.21.55-.42.81-.65A.49.49,0,0,1,8,17.15h4.42a.2.2,0,0,1,0,.08l-.87.7-1.37,1.13a.6.6,0,0,1-.44.16C9.42,19.2,9.11,19.22,8.8,19.22Z"/><path id="Path_31411" data-name="Path 31411" class="cls-17" d="M21.54,19.54l-.22-.1-.11-.09,0-.05-1.07-.87-.24-.18-.54-.44-.27-.23-1-.86-.2-.16-1,1-.19.21-.12.12-.62.62-.09.09-.7.72c-.1,0-.14-.09-.19-.15l.31-.34.66-.66.74-.74,1.11-1.1c.05-.05.08-.13.17-.11l.57.49,1,.79,1,.79,1,.81.29.24Z"/><path id="Path_31412" data-name="Path 31412" class="cls-18" d="M15.06,12.72l.08-.23-.07-.11.08-.36-.21-.1.18-.08s0-.13.1-.12l0,.13.13,0s0,.06,0,.07l-.14,0c0,.09,0,.18,0,.27s0,.13,0,.16,0,.11,0,.17a1.27,1.27,0,0,0,0,.26l.27.72a1.16,1.16,0,0,1,.07.8,2.51,2.51,0,0,0,0,.27h-.07a.28.28,0,0,0-.13,0h-.61a1,1,0,0,0-.07-.25.8.8,0,0,1,0-.82c.1-.18.2-.36.29-.54a.87.87,0,0,0,.05-.22h0S15.1,12.75,15.06,12.72Z"/><path id="Path_31413" data-name="Path 31413" class="cls-12" d="M8.8,19.22c.3,0,.62,0,.92,0a.62.62,0,0,0,.44-.15l1.37-1.13.87-.71a.18.18,0,0,0,0-.07c.12,0,.14.12.23.15l.41.42.95.94.55.58-.2.12-.32-.31a2.75,2.75,0,0,0-.26-.22c0-.08-.07-.09-.12-.11a1,1,0,0,0-.35-.37l-.11-.12a.21.21,0,0,0,0-.06l-.42-.45-.29-.28-.11.13-.37.27-1.88,1.52h-1L9,19.4C8.88,19.35,8.8,19.31,8.8,19.22Z"/><path id="Path_31414" data-name="Path 31414" class="cls-15" d="M14.27,17.62v-3h.51V18l.15,0a.59.59,0,0,1-.65-.17ZM14.7,16v-.89c0-.09-.11-.2-.18-.19s-.12.09-.12.21v.76a.52.52,0,0,0,0,.11Z"/><path id="Path_31415" data-name="Path 31415" class="cls-19" d="M16.1,14.66v2.61c0,.07,0,.13,0,.2l0,.09a.47.47,0,0,1-.17.41H15.6V14.66h.5ZM15.68,16H16v-.92a.15.15,0,0,0-.15-.15h0a.15.15,0,0,0-.15.15V16Z"/><path id="Path_31416" data-name="Path 31416" class="cls-13" d="M14.27,17.62v.19L14,18.2v.47l-.95-.94-.4-.42a1.42,1.42,0,0,1,1.45.22Z"/><path id="Path_31417" data-name="Path 31417" class="cls-20" d="M16.1,14.67l-.5,0a1.09,1.09,0,0,1,0-.26,1.25,1.25,0,0,0-.07-.81,7.66,7.66,0,0,1-.27-.72,1.09,1.09,0,0,1-.05-.26,1,1,0,0,0,.39.49c.1.05.19.12.29.18a.83.83,0,0,1,.41.87.59.59,0,0,1-.06.14c0,.08-.11.15-.06.26S16.18,14.66,16.1,14.67Z"/><path id="Path_31418" data-name="Path 31418" class="cls-21" d="M15.05,12.79A.54.54,0,0,1,15,13c-.09.18-.19.36-.29.54a.8.8,0,0,0,0,.82,1.21,1.21,0,0,1,.08.25h-.41l-.1,0h0a.12.12,0,0,1-.11-.15.18.18,0,0,0,0-.16.77.77,0,0,1,.25-1l.17-.11A1.18,1.18,0,0,0,15.05,12.79Z"/><path id="Path_31419" data-name="Path 31419" class="cls-18" d="M15.59,18h.32a.48.48,0,0,0,.17-.42l0-.09h.46l-.74.74h-.66v-.31C15.31,17.93,15.44,18,15.59,18Z"/><path id="Path_31420" data-name="Path 31420" class="cls-21" d="M15.06,12.72s0,.06,0,.07Z"/><path id="Path_31421" data-name="Path 31421" class="cls-22" d="M21.21,19.35l.12.09c0,.26,0,.52,0,.77v2.14H18.93c0-.09,0-.19,0-.29s0-.45,0-.67l-.57-.55s0,0-.05,0l-.47,0-.35.25a.61.61,0,0,0-.44,0h-.17v.78l.19.08v-.46a.33.33,0,0,1,0-.14h1.23v1.19H17.06l0-.23H15.42c0-.55,0-1.09,0-1.64s0-.9,0-1.34h5.79Zm-1,2.56h.1s0,0,0,0A1.27,1.27,0,0,0,21,21.9v-.78h-.11a.2.2,0,0,1-.11,0,.45.45,0,0,0-.36,0l-.11,0H20.2Zm-3.64,0v-.77h-.14a.53.53,0,0,0-.52,0h-.17v.69c0,.07,0,.11.1.09a.76.76,0,0,0,.59,0v0h.13Zm3.2-.77a.57.57,0,0,0-.54,0h-.15v.79h.11s0,.05,0,.05h.53s0,0,0-.05h.13v-.39a1.08,1.08,0,0,0,0-.4Zm-2.36.46h-.14v.81h.13s0,.06.05.06h.48s0,0,.06-.06h.11v-.81H18a.67.67,0,0,0-.57,0Zm.14-1.89a.44.44,0,0,0-.57,0v.82h.57Zm3.35.82V19.8a.15.15,0,0,0-.1-.15.38.38,0,0,0-.47.07v.8Zm-4.44,0v-.73c0-.12-.09-.18-.25-.2s-.32.05-.35.15v.78Zm1.65-.84v.85a5.15,5.15,0,0,0,.56,0v-.82a.45.45,0,0,0-.56,0Zm1.65.84V19.7a.39.39,0,0,0-.39-.09.21.21,0,0,0-.18.23v.45a1.85,1.85,0,0,0,0,.23Z"/><path id="Path_31422" data-name="Path 31422" class="cls-15" d="M18.9,21.39c0,.23,0,.45,0,.68v.52h-.59v-1.2Z"/><path id="Path_31423" data-name="Path 31423" class="cls-23" d="M10.12,19.37,12,17.85l.37-.27c.18.18.36.35.52.54a.36.36,0,0,0,.34.13l.11.11h-.2c.1.1.18.17.26.26a.27.27,0,0,0,.29.1c.05,0,.11,0,.12.11h-.15l.34.38a.83.83,0,0,1,.12.16v1.76h-4Zm1,1.56h.08a.39.39,0,0,0,.39,0,.1.1,0,0,0,0,0h.07l0,0V20.5h-.1c0-.06,0-.08-.11-.07s-.21,0-.29.07h-.06a.5.5,0,0,0,0,.43Zm0-1.32s0,0,0,0,0,.24,0,.36l.09.05a.39.39,0,0,0,.39,0,.1.1,0,0,0,0,0h.07l0,0v-.43h-.1c0-.06,0-.08-.11-.07s-.21,0-.29.07ZM12.37,21l0,0V20.5h-.1c0-.06-.05-.08-.11-.07s-.21,0-.29.07-.08,0-.08.07,0,.24,0,.36.09.07.14.07.23.07.33-.05Zm.87,0,0,0h.08s0,.05.06.05a.58.58,0,0,0,.41-.07c0-.12,0-.24,0-.36s0-.08-.09-.07a.19.19,0,0,0-.12-.07,1.06,1.06,0,0,0-.25,0s0,0,0,.05h-.1Zm0-.89h.1s0,.06.06.06a.54.54,0,0,0,.41-.08c0-.11,0-.23,0-.36s0-.07-.09-.06-.07-.08-.12-.08l-.25,0s0,0,0,.05h-.1Zm-.68.91h.08s0,.05.06.05a.56.56,0,0,0,.4-.07c0-.12,0-.24,0-.36s0-.08-.09-.07-.08-.07-.12-.07a1.06,1.06,0,0,0-.25,0s0,0,0,.05h-.13l0,.43Zm0-.9h.08s0,.06.06.06a.52.52,0,0,0,.4-.08c0-.11,0-.23,0-.36s0-.07-.09-.06-.08-.08-.12-.08l-.25,0s0,0,0,.05h-.13l0,.42Zm-.16,0v-.43h-.1c0-.07-.05-.08-.11-.08s-.21,0-.29.08-.08,0-.08.07,0,.24,0,.36.09.06.13.06.24.07.34-.05h.1Zm-1.9.9s.07.06.11.06a.54.54,0,0,0,.39-.07V20.5h-.1a.28.28,0,0,0-.4,0s-.09,0-.1.06v.33c0,.07.06.06.1.06Zm0-.89s.07.06.11.06A.6.6,0,0,0,11,20v-.43h-.1a.28.28,0,0,0-.4,0s-.09,0-.1.05V20c0,.06.06.06.1.05Zm2.05-1.56h-.87v.2l-.14,0v.35h1.19v-.34l-.16,0Z"/><path id="Path_31424" data-name="Path 31424" class="cls-15" d="M14.12,21.12V19.4l.27,0,.2-.12L14,18.67V18.2h1.12v.67l-.31.35c.06.06.09.15.19.15h.13v1.75Z"/><path id="Path_31425" data-name="Path 31425" class="cls-12" d="M15.17,19.37h-.12l.7-.73.31.05-.09.11c-.14.14-.29.28-.42.42l-.11.15h-.27Z"/><path id="Path_31426" data-name="Path 31426" class="cls-15" d="M10.12,19.37v1.77h-1a.52.52,0,0,1,0-.11,1.48,1.48,0,0,0-.19-1.64l.18,0Z"/><path id="Path_31427" data-name="Path 31427" class="cls-24" d="M15.44,19.36l.11-.15.42-.42.09-.1-.3-.05.09-.09h.27a.19.19,0,0,0,.12,0l.59-.58h-.36l.11-.12h.18a.34.34,0,0,0,.32-.13c.13-.15.28-.29.43-.44l.51-.52,1.05.85s0,0,0,0a3.07,3.07,0,0,1-.42-.07,1.67,1.67,0,0,0-.8,0,1.81,1.81,0,0,0-.93.45.88.88,0,0,0-.34.7.77.77,0,0,1,0,.15l-.31,0,.16.2-.19.21c.33,0,.64,0,.94,0a.43.43,0,0,0,.43-.41v-.53a.12.12,0,0,0-.21-.1,2.88,2.88,0,0,0-.27.22l-.29.22c0-.05,0-.08,0-.09a1.83,1.83,0,0,1,.5-.42,1.58,1.58,0,0,1,.85-.21c.12,0,.23,0,.35,0a1.71,1.71,0,0,1,1.18.44c.07.06.16.11.17.22h0c-.08,0-.13,0-.18-.09l-.32-.28a.2.2,0,0,0-.23,0,1.06,1.06,0,0,0,0,.19,3.42,3.42,0,0,0,0,.44.42.42,0,0,0,.41.43h.9l-.16-.2.16-.21-.34,0c0-.15,0-.29,0-.42l1.07.87,0,.05H15.44Zm2.32-1.11a2.69,2.69,0,0,0,0,.8H19a2.68,2.68,0,0,0,0-.8Z"/><path id="Path_31428" data-name="Path 31428" class="cls-25" d="M20.11,18.43c-.09.14,0,.27,0,.42l.33,0-.16.21.16.2h-.83a.43.43,0,0,1-.48-.36v-.07a3.37,3.37,0,0,1,0-.44.58.58,0,0,1,0-.19.18.18,0,0,1,.23,0l.33.27a.21.21,0,0,0,.18.09v0h0l0,0c0-.11-.1-.17-.18-.23A1.69,1.69,0,0,0,18.48,18h-.35a1.6,1.6,0,0,0-.85.21,1.67,1.67,0,0,0-.5.42s0,0,0,.09l.29-.22a2.88,2.88,0,0,1,.27-.22.22.22,0,0,1,.16,0s.05.09.05.13,0,.31,0,.47a.41.41,0,0,1-.37.46h-.06c-.3,0-.6,0-.93,0l.19-.21-.17-.21.32,0c0-.05,0-.1,0-.15a.86.86,0,0,1,.35-.7,1.81,1.81,0,0,1,.92-.45,1.71,1.71,0,0,1,.81,0l.41.07,0,0,.27.24-.24-.07a2.43,2.43,0,0,0-1.28-.08,1.85,1.85,0,0,0-.91.47.51.51,0,0,0-.21.37h0v0l.18-.15a1.78,1.78,0,0,1,1.22-.51h.46a2,2,0,0,1,.75.18,2.79,2.79,0,0,1,.63.45v.06l0,0,0,0-.05-.23ZM20,18.8a.67.67,0,0,1-.41-.22l-.33-.27c-.05.18,0,.18.07.25l.19.15.28.24a.17.17,0,0,0,.2,0Zm-2.53-.49-.26.22c-.13.1-.23.23-.4.26a.09.09,0,0,0-.1.11.1.1,0,0,0,.12.08h0a1,1,0,0,0,.19-.12l.42-.35Zm-.92.86h.59c.24,0,.33-.11.32-.3l-.34.15-.2.06a.26.26,0,0,1-.3-.07l-.07,0Zm3.64,0c-.05-.08-.08-.12-.16-.09a.41.41,0,0,1-.19,0l-.57-.19a.28.28,0,0,0,.28.27h.64ZM20.09,19v0h0v0l0,0Z"/><path id="Path_31429" data-name="Path 31429" class="cls-15" d="M16.69,18.51a.51.51,0,0,1,.21-.37,1.85,1.85,0,0,1,.91-.47,2.43,2.43,0,0,1,1.28.08,2.1,2.1,0,0,0,.24.06l.54.44,0,.22h0a2.58,2.58,0,0,0-.63-.45,1.71,1.71,0,0,0-.74-.17c-.16,0-.31,0-.47,0a1.85,1.85,0,0,0-1.22.5,1.29,1.29,0,0,1-.17.16Z"/><path id="Path_31430" data-name="Path 31430" class="cls-12" d="M18,16.72l-.51.53c-.14.14-.29.28-.43.44a.35.35,0,0,1-.32.13.49.49,0,0,0-.17,0,2,2,0,0,1,.19-.22c.34-.34.69-.68,1-1Z"/><path id="Path_31431" data-name="Path 31431" class="cls-12" d="M16.46,17.93h.37l-.6.58a.17.17,0,0,1-.12,0h-.27Z"/><path id="Path_31432" data-name="Path 31432" class="cls-11" d="M15.17,18.87v-.66h.66Z"/><path id="Path_31433" data-name="Path 31433" class="cls-26" d="M15.59,18c-.15.05-.28,0-.42-.08l-.24.09-.15,0V14.67l.74,0h.07ZM15,16.13h.42v-1a.29.29,0,0,0,0-.09.2.2,0,0,0-.4.05v1Zm-.05.63a.28.28,0,0,0,.27.27.29.29,0,0,0,.24-.26.27.27,0,0,0-.26-.28.25.25,0,0,0-.25.24v0Z"/><path id="Path_31434" data-name="Path 31434" class="cls-20" d="M15.52,14.65l-.73,0v0h.61Z"/><path id="Path_31435" data-name="Path 31435" class="cls-17" d="M13.23,18.24a.32.32,0,0,1-.33-.12c-.17-.19-.35-.36-.53-.54l.11-.14c.1.1.2.19.29.29l.42.45A.21.21,0,0,1,13.23,18.24Z"/><path id="Path_31436" data-name="Path 31436" class="cls-17" d="M14.39,19.37l-.27,0L14,19.23c-.11-.13-.23-.25-.34-.37v0h.15l.26.22Z"/><path id="Path_31437" data-name="Path 31437" class="cls-17" d="M13.69,18.73a.31.31,0,0,1-.29-.1,2.12,2.12,0,0,0-.26-.26h.2A1,1,0,0,1,13.69,18.73Z"/><path id="Path_31438" data-name="Path 31438" class="cls-27" d="M14.7,16h-.29s0-.08,0-.11v-.76c0-.12.06-.2.13-.21s.18.1.18.19C14.71,15.42,14.7,15.71,14.7,16Zm-.18-.92v.84a2.37,2.37,0,0,0,0-.84Z"/><path id="Path_31439" data-name="Path 31439" class="cls-21" d="M14.93,18l.24-.08v.3H14l.24-.39A.59.59,0,0,0,14.93,18Z"/><path id="Path_31440" data-name="Path 31440" class="cls-18" d="M14.78,14.63v0h-.5a.29.29,0,0,1,.1,0C14.51,14.62,14.65,14.63,14.78,14.63Z"/><path id="Path_31441" data-name="Path 31441" class="cls-27" d="M15.68,16v-.93a.15.15,0,0,1,.14-.15.15.15,0,0,1,.16.14V16Zm.18-.93a2,2,0,0,0-.06.78s0,0,.06.06Z"/><path id="Path_31442" data-name="Path 31442" class="cls-27" d="M18,22.4s0,.07-.06.07h-.48s0,0-.05-.06V21.6a.61.61,0,0,1,.56,0Zm-.37-.75s-.08,0-.08.05v.63h.08Zm.12,0c0,.21,0,.43,0,.66h.11v-.58c0-.06,0-.09-.12-.07Z"/><path id="Path_31443" data-name="Path 31443" class="cls-27" d="M17.54,19.7v.82H17V19.7A.44.44,0,0,1,17.54,19.7Zm-.36.72v-.68a.1.1,0,0,0-.11.11v.52s0,0,0,0Zm.25,0v-.58c0-.07,0-.1-.11-.1v.68Z"/><path id="Path_31444" data-name="Path 31444" class="cls-27" d="M20.31,21.13l.1,0a.41.41,0,0,1,.36,0l.11,0v.77H21a1.15,1.15,0,0,1-.66.06s0,0,0,0Zm.46.73V21.3c0-.07,0-.11-.11-.1v.66Zm-.24,0V21.2c-.07,0-.11,0-.11.08v.52c0,.06,0,.07.11.05Z"/><path id="Path_31445" data-name="Path 31445" class="cls-27" d="M20.89,20.52h-.57v-.8a.41.41,0,0,1,.47-.07.18.18,0,0,1,.1.16C20.88,20,20.89,20.27,20.89,20.52Zm-.13-.1v-.66l-.1,0v.68Zm-.23-.73c-.05.06-.11.1-.11.13,0,.2,0,.39,0,.6h.11Z"/><path id="Path_31446" data-name="Path 31446" class="cls-17" d="M17.46,21.09l.35-.25.47.55h-1.2v0l.11-.08Z"/><path id="Path_31447" data-name="Path 31447" class="cls-27" d="M16.45,20.53h-.61v-.75a.08.08,0,0,1,0,0c0-.1.18-.16.35-.14s.24.08.24.2S16.45,20.27,16.45,20.53Zm-.25-.8v.69h.13v-.56c0-.07,0-.12-.13-.12Zm-.11,0c-.12.05-.13.05-.13.11v.57h.13Z"/><path id="Path_31448" data-name="Path 31448" class="cls-27" d="M18.1,19.69a.44.44,0,0,1,.56,0v.82a5.15,5.15,0,0,1-.56,0Zm.45.72v-.56c0-.09,0-.13-.13-.12v.68Zm-.23,0v-.35a1.16,1.16,0,0,0,0-.37c0,.06-.09.09-.09.12v.6Z"/><path id="Path_31449" data-name="Path 31449" class="cls-27" d="M19.75,20.53h-.56v-.68c0-.15,0-.19.18-.23a.41.41,0,0,1,.39.09Zm-.32-.8c-.11,0-.13.05-.13.12v.51a.14.14,0,0,0,0,.06h.11Zm.22.68v-.6c0-.06,0-.08-.1-.08v.69Z"/><path id="Path_31450" data-name="Path 31450" class="cls-27" d="M19.77,21.92s0,0,0,0h-.53s0,0,0,0v-.79h0a.57.57,0,0,1,.54,0Zm-.34-.74c-.1,0-.13,0-.13.13v.51l0,0h.11Zm.22.66v-.58s0-.05-.07-.08l0,0v.61c0,.06,0,.06.11,0Z"/><path id="Path_31451" data-name="Path 31451" class="cls-12" d="M18.28,21.39l-.47-.55.48,0,.05,0c.18.19.37.37.56.55h-.62Z"/><path id="Path_31452" data-name="Path 31452" class="cls-27" d="M16.43,21.92s0,0,0,0a.8.8,0,0,1-.59,0v-.8h.06a.56.56,0,0,1,.52,0Zm-.1-.07v-.58c0-.07,0-.09-.14-.09v.62C16.19,21.87,16.24,21.89,16.33,21.85Zm-.24-.66,0,0s-.08.07-.08.11a5.8,5.8,0,0,0,0,.59h.13Z"/><path id="Path_31453" data-name="Path 31453" class="cls-27" d="M17.46,21.09l-.27.18,0-.08s-.06,0-.07,0a.45.45,0,0,0,0,.11v0a1,1,0,0,0,0,.14V22l-.18-.08H17v-.76H17A.56.56,0,0,1,17.46,21.09Z"/><path id="Path_31454" data-name="Path 31454" class="cls-16" d="M17.4,21.59l0,.81h-.12v-.81Z"/><path id="Path_31455" data-name="Path 31455" class="cls-16" d="M19.77,21.92v-.79h.12a1.07,1.07,0,0,1,0,.4v.39Z"/><path id="Path_31456" data-name="Path 31456" class="cls-16" d="M16.43,21.92v-.79h.14v.77l-.06,0Z"/><path id="Path_31457" data-name="Path 31457" class="cls-2" d="M18,22.4l0-.81h.13v.81Z"/><path id="Path_31458" data-name="Path 31458" class="cls-16" d="M19.19,21.12v.8h-.11v-.8Z"/><path id="Path_31459" data-name="Path 31459" class="cls-16" d="M15.84,21.12v.8c-.08,0-.1,0-.1-.1v-.69Z"/><path id="Path_31460" data-name="Path 31460" class="cls-16" d="M20.31,21.13v.79h-.08s0,0,0,0h0v-.79Z"/><path id="Path_31461" data-name="Path 31461" class="cls-2" d="M21,21.9h-.11v-.76H21Z"/><path id="Path_31462" data-name="Path 31462" class="cls-2" d="M17,21.13v.76h-.11v-.77Z"/><path id="Path_31463" data-name="Path 31463" class="cls-27" d="M16.5,21.92l.06,0Z"/><path id="Path_31464" data-name="Path 31464" class="cls-27" d="M20.2,21.91s0,0,0,0h0Z"/><path id="Path_31465" data-name="Path 31465" class="cls-17" d="M12.55,18.49v.2l.16,0v.34h-1.2v-.34l.15,0v-.2Zm-.35.21c0-.09,0-.12-.08-.12s-.11,0-.08.12Zm-.41,0h.14c0-.08,0-.11-.07-.11s-.09,0-.07.11Zm.52,0s.12,0,.14-.05a.12.12,0,0,0-.06-.08c-.07,0-.11,0-.08.14Z"/><path id="Path_31466" data-name="Path 31466" class="cls-27" d="M10.5,19.61a.28.28,0,0,1,.4,0h0V20l.1,0a.6.6,0,0,1-.39.07s-.07,0-.11-.06Zm.26.4v-.36h-.13V20Z"/><path id="Path_31467" data-name="Path 31467" class="cls-27" d="M10.5,20.5a.28.28,0,0,1,.4,0v.42H11a.54.54,0,0,1-.39.07s-.07,0-.11-.05Zm.26.41v-.37h-.13v.34Z"/><path id="Path_31468" data-name="Path 31468" class="cls-28" d="M13.34,19.61s0-.05,0-.05a1.06,1.06,0,0,1,.25,0c.05,0,.08,0,.12.07V20c0,.06,0,.08.07.09a.55.55,0,0,1-.4.07s0,0-.06-.06Zm.13,0V20c.08,0,.13,0,.13-.07a2.61,2.61,0,0,0,0-.28Z"/><path id="Path_31469" data-name="Path 31469" class="cls-28" d="M13.1,20a.56.56,0,0,1-.4.07s0,0-.06-.06v-.44s0-.05,0-.05a1.1,1.1,0,0,1,.26,0s.08.05.12.07,0,.23,0,.34S13.05,20,13.1,20Zm-.34-.39V20c.13,0,.14,0,.14-.06a2.8,2.8,0,0,0,0-.29Z"/><path id="Path_31470" data-name="Path 31470" class="cls-28" d="M11.9,19.61c.08-.12.19-.07.29-.08s.1,0,.11.08v.44c-.09.12-.22.05-.34.05s-.08,0-.13-.06.08,0,.08-.09S11.91,19.72,11.9,19.61Zm.13,0v.27c0,.11.07.11.15.07a.78.78,0,0,0,0-.34Z"/><path id="Path_31471" data-name="Path 31471" class="cls-28" d="M13.8,20.93a.51.51,0,0,1-.4.07s0,0-.06-.05V20.5s0-.05,0-.05l.26,0s.08.05.12.07,0,.23,0,.35S13.75,20.93,13.8,20.93Zm-.33-.39v.36c.08,0,.13,0,.13-.07v-.28Z"/><path id="Path_31472" data-name="Path 31472" class="cls-28" d="M12.64,20.5s0-.05,0-.05l.25,0c.05,0,.08.05.12.07v.35s0,.08.07.08a.51.51,0,0,1-.4.07s0,0-.06-.05Zm.12.39c.08,0,.13,0,.14,0s0-.2,0-.31h-.14Z"/><path id="Path_31473" data-name="Path 31473" class="cls-28" d="M11.9,20.5c.08-.11.19-.06.29-.07s.1,0,.11.07V21c-.09.12-.22.05-.34.05s-.08-.05-.13-.07a.07.07,0,0,0,.08-.08C11.91,20.73,11.91,20.62,11.9,20.5Zm.13.05v.28c0,.09.07.09.14.07v-.36Z"/><path id="Path_31474" data-name="Path 31474" class="cls-28" d="M11.2,19.61c.07-.12.19-.07.29-.08s.1,0,.11.08v.44a.1.1,0,0,1,0,0,.39.39,0,0,1-.39,0Zm.13,0v.27c0,.11.07.11.16.07s0-.23,0-.34Z"/><path id="Path_31475" data-name="Path 31475" class="cls-28" d="M11.2,20.5c.07-.11.19-.06.29-.07s.1,0,.11.07V21a.1.1,0,0,1,0,0c-.14,0-.27.07-.39,0Zm.13.05v.27c0,.1.07.11.15.07a.82.82,0,0,0,0-.35Z"/><path id="Path_31476" data-name="Path 31476" class="cls-16" d="M10.5,19.61v.44s-.09,0-.1-.05v-.34C10.41,19.6,10.46,19.61,10.5,19.61Z"/><path id="Path_31477" data-name="Path 31477" class="cls-16" d="M10.5,20.5V21s-.09,0-.1-.05v-.34C10.41,20.49,10.46,20.5,10.5,20.5Z"/><path id="Path_31478" data-name="Path 31478" class="cls-16" d="M11.6,20.05v-.44h.1V20h-.1Z"/><path id="Path_31479" data-name="Path 31479" class="cls-16" d="M12.3,20.05v-.44h.1V20h-.1Z"/><path id="Path_31480" data-name="Path 31480" class="cls-16" d="M12.64,19.61v.44h-.08a0,0,0,0,0,0,0l0-.43Z"/><path id="Path_31481" data-name="Path 31481" class="cls-16" d="M12.64,20.5V21h-.08l0,0,0-.42Z"/><path id="Path_31482" data-name="Path 31482" class="cls-16" d="M13.34,19.61v.44h-.08s0,0,0,0v-.43Z"/><path id="Path_31483" data-name="Path 31483" class="cls-16" d="M13.34,20.5V21h-.08l0,0V20.5Z"/><path id="Path_31484" data-name="Path 31484" class="cls-16" d="M11.6,21V20.5h.1v.43h-.1Z"/><path id="Path_31485" data-name="Path 31485" class="cls-16" d="M12.3,21V20.5h.1v.43h-.1Z"/><path id="Path_31486" data-name="Path 31486" class="cls-9" d="M11,20l-.1,0v-.41H11Z"/><path id="Path_31487" data-name="Path 31487" class="cls-9" d="M11,20.93h-.1V20.5H11Z"/><path id="Path_31488" data-name="Path 31488" class="cls-9" d="M11.2,19.61v.44L11.11,20l0-.39Z"/><path id="Path_31489" data-name="Path 31489" class="cls-9" d="M11.2,20.5v.44h-.08v-.42Z"/><path id="Path_31490" data-name="Path 31490" class="cls-9" d="M13.8,20.93c-.05,0-.08,0-.07-.08V20.5c.06,0,.09,0,.09.07S13.81,20.81,13.8,20.93Z"/><path id="Path_31491" data-name="Path 31491" class="cls-9" d="M13.8,20c-.05,0-.08,0-.07-.09v-.34c.06,0,.09,0,.09.07S13.81,19.92,13.8,20Z"/><path id="Path_31492" data-name="Path 31492" class="cls-9" d="M11.9,20.5c0,.12,0,.23,0,.35a.07.07,0,0,1-.08.08c0-.12,0-.24,0-.36S11.85,20.5,11.9,20.5Z"/><path id="Path_31493" data-name="Path 31493" class="cls-9" d="M13.1,20S13,20,13,20v-.34c.06,0,.09,0,.09.07S13.11,19.92,13.1,20Z"/><path id="Path_31494" data-name="Path 31494" class="cls-9" d="M11.9,19.61c0,.11,0,.23,0,.34s0,.08-.08.09,0-.24,0-.36S11.85,19.6,11.9,19.61Z"/><path id="Path_31495" data-name="Path 31495" class="cls-9" d="M13.1,20.93s-.08,0-.07-.08V20.5c.06,0,.09,0,.09.07S13.11,20.81,13.1,20.93Z"/><path id="Path_31496" data-name="Path 31496" class="cls-13" d="M11.13,20.51v.42A.55.55,0,0,1,11.13,20.51Z"/><path id="Path_31497" data-name="Path 31497" class="cls-13" d="M11.13,19.61l0,.39c0-.12,0-.24,0-.36S11.12,19.62,11.13,19.61Z"/><path id="Path_31498" data-name="Path 31498" class="cls-28" d="M12.37,20.05s0,0,0,0Z"/><path id="Path_31499" data-name="Path 31499" class="cls-28" d="M11.67,20.05s0,0,0,0Z"/><path id="Path_31500" data-name="Path 31500" class="cls-28" d="M12.53,20s0,0,0,0Z"/><path id="Path_31501" data-name="Path 31501" class="cls-28" d="M13.24,20.93l0,0Z"/><path id="Path_31502" data-name="Path 31502" class="cls-28" d="M12.53,20.93s0,0,0,0Z"/><path id="Path_31503" data-name="Path 31503" class="cls-28" d="M12.37,21l0,0Z"/><path id="Path_31504" data-name="Path 31504" class="cls-28" d="M11.67,21l0,0Z"/><path id="Path_31505" data-name="Path 31505" class="cls-12" d="M13.66,18.84v0l0,0Z"/><path id="Path_31506" data-name="Path 31506" class="cls-28" d="M13.24,20s0,0,0,0Z"/><path id="Path_31507" data-name="Path 31507" class="cls-27" d="M17.76,18.25H19A2.62,2.62,0,0,1,19,19H17.77A2.62,2.62,0,0,1,17.76,18.25Zm.1.11v.58H18v-.57Zm.45.57v-.56h-.17v.56Zm.58,0v-.56h-.16v.56Zm-.44-.57v.57h.14v-.57Z"/><path id="Path_31508" data-name="Path 31508" class="cls-15" d="M20,18.8V19a.17.17,0,0,1-.2,0l-.28-.24-.19-.15c-.11-.07-.12-.07-.07-.25l.33.27A.67.67,0,0,0,20,18.8Z"/><path id="Path_31509" data-name="Path 31509" class="cls-15" d="M17.42,18.31v.19l-.42.34a.59.59,0,0,1-.19.13.1.1,0,0,1-.14,0,0,0,0,0,1,0,0c0-.07,0-.11.1-.12s.27-.15.4-.25Z"/><path id="Path_31510" data-name="Path 31510" class="cls-15" d="M16.5,19.17V19l.07,0a.28.28,0,0,0,.3.07l.2-.07a3.49,3.49,0,0,0,.34-.15c0,.2-.08.3-.32.31Z"/><path id="Path_31511" data-name="Path 31511" class="cls-15" d="M20.15,19.17h-.63a.27.27,0,0,1-.29-.26h0l.56.19a.4.4,0,0,0,.19,0C20.06,19.05,20.09,19.09,20.15,19.17Z"/><path id="Path_31512" data-name="Path 31512" class="cls-15" d="M19.92,18.47l0,.05h0Z"/><path id="Path_31513" data-name="Path 31513" class="cls-15" d="M20.09,19h0Z"/><path id="Path_31514" data-name="Path 31514" class="cls-15" d="M16.69,18.51l0,0h0Z"/><path id="Path_31515" data-name="Path 31515" class="cls-24" d="M19.84,18.63l0,0h0v0Z"/><path id="Path_31516" data-name="Path 31516" class="cls-27" d="M15,16.13v-1a.23.23,0,0,1,.16-.2.23.23,0,0,1,.23.14.16.16,0,0,1,0,.09v1Zm.21-1.1c0,.07-.09.11-.09.16,0,.27,0,.54,0,.83l.15,0a2.12,2.12,0,0,0-.06-1Z"/><path id="Path_31517" data-name="Path 31517" class="cls-22" d="M14.93,16.75a.25.25,0,0,1,.23-.26h0a.27.27,0,0,1,.26.28.29.29,0,0,1-.24.26.28.28,0,0,1-.27-.28Z"/><path id="Path_31518" data-name="Path 31518" class="cls-8" d="M15.86,15.09v.84s-.06,0-.06-.06A2,2,0,0,1,15.86,15.09Z"/><path id="Path_31519" data-name="Path 31519" class="cls-23" d="M16.2,19.73c.11,0,.13.05.13.12v.56H16.2Z"/><path id="Path_31520" data-name="Path 31520" class="cls-5" d="M16.09,19.73v.68H16v-.57C16,19.78,16,19.78,16.09,19.73Z"/><path id="Path_31521" data-name="Path 31521" class="cls-5" d="M18.55,20.41h-.13v-.68c.09,0,.13,0,.13.12Z"/><path id="Path_31522" data-name="Path 31522" class="cls-3" d="M18.32,20.41H18.2v-.6s0-.06.09-.12a1.59,1.59,0,0,1,0,.38C18.32,20.18,18.32,20.29,18.32,20.41Z"/><path id="Path_31523" data-name="Path 31523" class="cls-5" d="M19.43,19.73v.68h-.11a.14.14,0,0,1,0-.06v-.5C19.29,19.78,19.32,19.73,19.43,19.73Z"/><path id="Path_31524" data-name="Path 31524" class="cls-3" d="M19.65,20.41h-.11v-.68c.06,0,.11,0,.11.07Z"/><path id="Path_31525" data-name="Path 31525" class="cls-5" d="M19.43,21.18v.67h-.1l0,0v-.51C19.3,21.22,19.33,21.18,19.43,21.18Z"/><path id="Path_31526" data-name="Path 31526" class="cls-3" d="M19.65,21.84c-.07,0-.11,0-.11,0V21.2l0,0s.07.05.07.08Z"/><path id="Path_31527" data-name="Path 31527" class="cls-23" d="M16.33,21.85c-.09,0-.14,0-.14-.05v-.62c.09,0,.14,0,.14.09Z"/><path id="Path_31528" data-name="Path 31528" class="cls-5" d="M16.09,21.19v.66H16v-.6s.06-.06.09-.1Z"/><path id="Path_31529" data-name="Path 31529" class="cls-5" d="M12.2,18.7h-.15c0-.09,0-.12.07-.12S12.22,18.61,12.2,18.7Z"/><path id="Path_31530" data-name="Path 31530" class="cls-8" d="M10.76,20h-.13v-.35h.13Z"/><path id="Path_31531" data-name="Path 31531" class="cls-8" d="M10.76,20.91l-.13,0v-.34h.13Z"/><path id="Path_31532" data-name="Path 31532" class="cls-8" d="M13.47,19.65h.13v.27c0,.09,0,.09-.13.07Z"/><path id="Path_31533" data-name="Path 31533" class="cls-8" d="M12.77,19.65h.13v.29c0,.06,0,.06-.13.06Z"/><path id="Path_31534" data-name="Path 31534" class="cls-8" d="M12,19.65h.13a.78.78,0,0,1,0,.34c-.08,0-.14,0-.15-.07Z"/><path id="Path_31535" data-name="Path 31535" class="cls-8" d="M13.47,20.54h.13v.27c0,.09,0,.1-.13.08Z"/><path id="Path_31536" data-name="Path 31536" class="cls-8" d="M12.76,20.89v-.34h.14c0,.11,0,.21,0,.31S12.84,20.92,12.76,20.89Z"/><path id="Path_31537" data-name="Path 31537" class="cls-8" d="M12,20.55h.14v.36c-.07,0-.13,0-.13-.07A2.62,2.62,0,0,1,12,20.55Z"/><path id="Path_31538" data-name="Path 31538" class="cls-8" d="M11.33,19.65h.12c.06.11,0,.22,0,.34s-.15,0-.16-.07Z"/><path id="Path_31539" data-name="Path 31539" class="cls-8" d="M11.33,20.55h.13a.82.82,0,0,1,0,.35c-.08,0-.14,0-.15-.07Z"/><path id="Path_31540" data-name="Path 31540" class="cls-3" d="M17.86,18.36H18v.57h-.17Z"/></g></g></g></svg>