<svg xmlns="http://www.w3.org/2000/svg" viewBox="0 0 31.73 31.74"><defs><style>.cls-1{fill:#fff;}</style></defs><g id="圖層_2" data-name="圖層 2"><g id="_0-ui_kits" data-name="0-ui_kits"><path id="logo_beer_smog_city" class="cls-1" d="M15,31.74l-.15,0a15.37,15.37,0,0,1-5.46-1.34,15.9,15.9,0,0,1-8-7.9A15.41,15.41,0,0,1,.28,18.84a12.88,12.88,0,0,1-.21-1.5c0-.16,0-.31,0-.47a.8.8,0,0,0,0-.15V15a.37.37,0,0,0,0-.15,15.43,15.43,0,0,1,1.2-5.14A15.81,15.81,0,0,1,13.3.21,13.36,13.36,0,0,1,14.85,0L15,0h1.69a.8.8,0,0,0,.15,0c.49.05,1,.09,1.45.16a15.4,15.4,0,0,1,2.52.6A16,16,0,0,1,31,11a14.7,14.7,0,0,1,.54,2.27,13.36,13.36,0,0,1,.17,1.55,1,1,0,0,0,0,.17v1.69a.75.75,0,0,0,0,.16c-.05.48-.08,1-.15,1.45a14.58,14.58,0,0,1-.61,2.51,15.87,15.87,0,0,1-12.5,10.7c-.52.08-1,.14-1.56.17l-.17,0Zm.84-.44A15.43,15.43,0,0,0,15.9.44h0a15.43,15.43,0,1,0-.05,30.86ZM13.07,2.7s0,0,0-.05.08-.09.12,0l.28.36A.19.19,0,0,0,13.6,3a.37.37,0,0,1,.31.18c.05.06.08.14.19.11s.11.06.13.11a4.09,4.09,0,0,1,.18.49c0,.09,0,.18.14.22s0,.06.06.09a1.07,1.07,0,0,0,.31.25,4,4,0,0,1,.46.26,1,1,0,0,0,0-.24s-.05-.09-.09-.13a.57.57,0,0,1-.21-.4l.08,0A2.2,2.2,0,0,1,15,3.68c-.07-.12,0-.2.11-.19a.39.39,0,0,1,.15.06l.2.14,0-.17a.52.52,0,0,1,.16.06,1.1,1.1,0,0,1,.16.15l0-.12c0-.08,0-.1.11-.09l.12,0a.28.28,0,0,1,.27.14,1.45,1.45,0,0,0,.37.41l.08.09a.57.57,0,0,0,.28.25.74.74,0,0,1,.19.16c.06.06.11.13.22.12s.06,0,.1,0a.21.21,0,0,1,.18-.16.26.26,0,0,0,.11-.07A.22.22,0,0,0,18,4.29c0-.06.05-.09.11-.07.24,0,.5,0,.68.26a.27.27,0,0,0,.36.08l.08,0a.53.53,0,0,0,.36-.25.87.87,0,0,1,.53-.36s.05,0,.06,0,.33,0,.48.06a.28.28,0,0,0,.28,0,1.76,1.76,0,0,1,.3-.1.26.26,0,0,1,.15,0,1.05,1.05,0,0,0,.5,0,.2.2,0,0,1,.11,0,.2.2,0,0,1,0,.11l-.18.26.15,0a.07.07,0,0,1,.07.06l0,0a.38.38,0,0,1-.11.11,3.13,3.13,0,0,1-.32.15.19.19,0,0,0-.13.18c.08,0,.18-.07.26,0s-.15.18-.17.3.2,0,.31,0,0,.06,0,.08.11.09.05.19l0,0c.15.12,0,.23,0,.35a.34.34,0,0,0,.32-.06,1.67,1.67,0,0,1,.16-.12c.09-.06.16,0,.15.09a.57.57,0,0,1-.07.22c-.06.1-.14.18-.21.28a.53.53,0,0,0-.05.15l.25-.09a.34.34,0,0,1,.14,0,.16.16,0,0,1,.12.19.24.24,0,0,1-.06.09l-.27.16-.2.08c.08,0,.16,0,.17,0s.17.17.24.25a.48.48,0,0,1,.08.28s-.06.1-.09.14l.6.33.09-.07a.94.94,0,0,1,.6-.26.37.37,0,0,1,.27,0,.16.16,0,0,0,.1,0c.13,0,.28,0,.41,0s.07,0,.1,0l.17,0c.05.09,0,.21,0,.3s0,.08-.06.09a1.71,1.71,0,0,1-.23.13l.3.22a.18.18,0,0,1,.25,0h0s.08,0,.12,0,.25,0,.35.09a.45.45,0,0,1-.2.25l.26.13a.23.23,0,0,0,.16,0c.09,0,.18-.07.25,0s.06,0,.09,0l.1,0c.26,0,.34,0,.44.29h.06c.08,0,.15-.08.23,0a.4.4,0,0,1,.23.23c0,.14.05.14.18.13s.26,0,.39,0a.79.79,0,0,1,.43,0,1,1,0,0,0,.23,0v.13h.13a.47.47,0,0,1,.44.17.32.32,0,0,0,.24.11l.27,0a.35.35,0,0,1,.14.06s.07.06,0,.11a.15.15,0,0,0,0,.06c.05.12,0,.2-.1.27l0,0c.25.3.15.4-.12.42.06.11.2.19.15.36a.39.39,0,0,1-.32,0l-.63-.38-.18,0a.42.42,0,0,1,0,.1.15.15,0,0,1-.2.06h0a1.38,1.38,0,0,1-.33-.2.54.54,0,0,0-.4-.15l-.09,0-.14.15c.08.06.21.06.26.18a.32.32,0,0,1-.18.18l-.52.23a.42.42,0,0,1-.39,0,.18.18,0,0,0-.21,0l-.54.2-.29.05a.59.59,0,0,0-.29.05c-.07,0-.15,0-.13-.13a.29.29,0,0,1,0-.09,3,3,0,0,0-1.27,0l.13.07a.71.71,0,0,1,.14.1c.07.07.06.12,0,.24l.2.1c.09.06.23.1.22.24s-.16.17-.27.2a1.87,1.87,0,0,1-.4.07l-.39,0a.25.25,0,0,0,0,.34.91.91,0,0,0,.08.13.23.23,0,0,1,0,.29l.11.08a.19.19,0,0,1,.1.2.19.19,0,0,1-.18.18,1,1,0,0,1-.48,0,3.39,3.39,0,0,1-.68-.29l-.22-.12c-.05.12,0,.17.08.22s.1.15,0,.24a.45.45,0,0,1-.1.09l-.11,0a5,5,0,0,0-.48-.21.72.72,0,0,1-.21-.12.35.35,0,0,0-.14-.06l-.6,0a.24.24,0,0,1-.09-.06l-.09-.12a1.19,1.19,0,0,0,.08-.16.14.14,0,0,0,0-.18.14.14,0,0,0-.18,0l-.51.3-.18.1-.65.3-.09,0a.41.41,0,0,0-.27.17.74.74,0,0,1-.35.23l-.49.23-.29.16a1.49,1.49,0,0,1-.8.2,1.45,1.45,0,0,0-.58.1c-.24.1-.47.23-.71.35a.42.42,0,0,0-.17.57.35.35,0,0,0,0,.08c.18.19.34.39.53.59a.72.72,0,0,0,.21.12,1.41,1.41,0,0,1,.36.24l.7.64a1,1,0,0,1,.32.61,1.22,1.22,0,0,1,0,.26c0,.18.08.28.2.36a.78.78,0,0,0,.34.09l-.3-.26c.15,0,.19,0,.54.26a.41.41,0,0,0,0-.11.93.93,0,0,0,0-.1c.17.09.13.32.33.37l-.08-.24c.15.1.17.29.35.38l-.06-.15.12.08.08-.09c.14.19.28.34.54.3,0-.11-.1-.17-.13-.29a1.21,1.21,0,0,1,.4.49l0,0-.09-.22c.18.09.22.29.34.42l0-.17c.09,0,.1.09.12.15a.62.62,0,0,0,.25.28l.43.28a2.45,2.45,0,0,1,.46.45c.18.21.38.41.57.61s.11.09.15.14a1.54,1.54,0,0,0,.57.44.4.4,0,0,1,.23.31,2.19,2.19,0,0,0,.3.82c.16.28.32.56.49.84a2.88,2.88,0,0,0,.28.33,1.86,1.86,0,0,1,.21.28,3.9,3.9,0,0,1,.39,1.05,3.51,3.51,0,0,1,0,1.21c0,.12,0,.24,0,.36a.81.81,0,0,0,0,.38.21.21,0,0,1,0,.11c0,.16,0,.33,0,.49s0,0-.07.07a.68.68,0,0,1,0-.14,3.28,3.28,0,0,0,0-.63.81.81,0,0,1,0-.16,1.8,1.8,0,0,0-.12-1s0-.07-.05-.08a.94.94,0,0,0-.28-.1c-.39,0-.78,0-1.18-.06a5.32,5.32,0,0,0-.07,1.32.7.7,0,0,1-.38,0,.71.71,0,0,0,0-.14,1.26,1.26,0,0,1,0-.64c-.06-.15,0-.32-.07-.47a.17.17,0,0,1,0-.17.24.24,0,0,0,0-.22.11.11,0,0,1,0-.1,1.83,1.83,0,0,0,0-.47,7.84,7.84,0,0,0-.08-.82.13.13,0,0,1,0-.06c0-.21-.08-.4,0-.63-.56,0-1.09,0-1.63,0a.77.77,0,0,0,0,.15,4.71,4.71,0,0,0,0,.84,2.57,2.57,0,0,1,0,.48.22.22,0,0,0,.12.21.33.33,0,0,1,.2.42h0a.4.4,0,0,0,0,.19c0,.17,0,.35,0,.52a.23.23,0,0,0,0,.14.7.7,0,0,1,0,.38,7.53,7.53,0,0,0,0,1v.22l-.09-.09a.07.07,0,0,1,0-.05c0-.31,0-.62,0-.93a2.76,2.76,0,0,0-.06-.57.88.88,0,0,1,0-.28.91.91,0,0,0,0-.52,1.52,1.52,0,0,1-.06-.2.13.13,0,0,0-.1-.11s-.08-.05-.11-.09-.14-.26-.22-.38-.12-.1-.17,0-.15.27-.22.41-.06.11-.14.11-.11.07-.12.14a.21.21,0,0,0,0,.11c0,.4,0,.81,0,1.21,0,.23,0,.45,0,.68a.37.37,0,0,1,0,.11c-.08,0-.07-.05-.08-.1s0-.28,0-.42a.55.55,0,0,0-.05-.31.33.33,0,0,1,0-.22,1.09,1.09,0,0,0,0-.36,3.12,3.12,0,0,1,0-.61,4.7,4.7,0,0,1,.12-.51.57.57,0,0,0,0-.13c0-.68,0-1.35,0-2,0-.25-.08-.5-.07-.75a.11.11,0,0,0-.11-.12h-1.3v.19c0,.17,0,.35,0,.52s0,.61,0,.92,0,.47,0,.7a.83.83,0,0,1,0,.15s0,0,0,0a2.07,2.07,0,0,0,0-.7,1.2,1.2,0,0,1,0-.38,1.6,1.6,0,0,0,0-.38c0-.13,0-.26,0-.38a2.32,2.32,0,0,1,.05-.53l-.28.11-.65.26c-.07,0-.12,0-.12.14,0,.45,0,.89,0,1.34,0,0,0,0,0,0h.13c.09-.06.15,0,.22,0l.28.16c.11.07.12.09.09.24a1.2,1.2,0,0,0,0,.5.47.47,0,0,1,0,.33.15.15,0,0,0,0,.07c0,.49,0,1-.05,1.46a5.49,5.49,0,0,0,0,.81,1.31,1.31,0,0,1,0,.28c-.06-.17-.19-.33-.09-.53v-.07a5.51,5.51,0,0,1-.06-.57c0-.53,0-1.06,0-1.58,0-.24,0-.48,0-.72s-.11-.12-.18-.18a1.26,1.26,0,0,0,0,.51c0,.19,0,.38,0,.6a4.23,4.23,0,0,1-.08-1.23.54.54,0,0,1-.48.14,1.79,1.79,0,0,0-.57.09l-.18,0c0-.06,0-.11,0-.11a2.81,2.81,0,0,0,.75-.22.16.16,0,0,0,.08-.1c0-.11,0-.23,0-.34s0-.31,0-.47a.15.15,0,0,0-.1-.15l-.24-.14,0,.2h0l0-.18a3.14,3.14,0,0,0-.81,0v.19c0,.53,0,1.06,0,1.58,0,.13,0,.25,0,.38a2.74,2.74,0,0,1,0,.5.5.5,0,0,0,0,.21.28.28,0,0,1,0,.25.83.83,0,0,0,0,.15s0,0,0-.06.07-.26,0-.37a.24.24,0,0,1,0-.12,1.89,1.89,0,0,0,0-.58.29.29,0,0,0,0-.1.15.15,0,0,1,0-.18.17.17,0,0,0,0-.12c0-.24,0-.49,0-.73a.32.32,0,0,1,0-.14l0-.15a.13.13,0,0,0-.09-.16h0L15,23a6.49,6.49,0,0,0,0-1.08l-.22-.08c0-.06,0-.13,0-.19s0-.35,0-.53a.23.23,0,0,0-.17-.26c0-.15,0-.3,0-.45a.12.12,0,0,0-.1-.14.84.84,0,0,0-.62,0,.24.24,0,0,0-.06.11V21l.16.07c0,.11.05.2.06.29a1.05,1.05,0,0,1,0,.24q0,.36.06.72a4.34,4.34,0,0,1,0,.51c0,.17,0,.22.22.23h.37c0,.07,0,.1-.05.11a1.5,1.5,0,0,1-.3,0c-.13,0-.2.08-.3.12s0,.07,0,.11a1.47,1.47,0,0,0,0,.21c0,.38,0,.75,0,1.13a.41.41,0,0,1,0,.11,1.6,1.6,0,0,0-.07.69c0,.15,0,.3,0,.45a2,2,0,0,0,0,.34.59.59,0,0,1,0,.35c0,.11,0,.22,0,.33a.27.27,0,0,1,0-.23,2,2,0,0,0,0-.26,3.45,3.45,0,0,0-.07-.55.57.57,0,0,1,0-.29.61.61,0,0,0,0-.19,1,1,0,0,1,0-.57.65.65,0,0,0,0-.31.64.64,0,0,1,0-.43.31.31,0,0,0,0-.13c0-.22,0-.44,0-.66v-.21s0-.06,0-.06.08-.19.1-.29a5.79,5.79,0,0,0,0-.93.42.42,0,0,0,0-.1.26.26,0,0,1,0-.08.36.36,0,0,0,0-.27c0-.09,0-.19,0-.29a.64.64,0,0,0-.49,0l0,.46c0,.33,0,.66,0,1s0,.59,0,.88,0,.46,0,.68a.39.39,0,0,1-.05.24s0,.09,0,.13a2.46,2.46,0,0,1,0,.28c-.06-.08,0-.17-.05-.26s0-.19,0-.29l-.19,0a5.81,5.81,0,0,0-.05.72h-.31c-.33,0-.33,0-.35.33a2.74,2.74,0,0,0,0,.64.2.2,0,0,1,0,.07,1.4,1.4,0,0,0,0,.54c0,.12,0,.24,0,.35a1,1,0,0,0,0,.3.73.73,0,0,1,0,.39c0-.3-.09-.6-.09-.9s0-.54,0-.81c0,0,0,0,0-.05s-.06-.26-.06-.39,0-.55,0-.82,0-.26,0-.38c-.26-.18-.56-.09-.84-.13a15.81,15.81,0,0,0-.09-1.69l-1.39-.06a2,2,0,0,0,0,.68.53.53,0,0,0,.15.19c0,.06.09.09.06.15a3.12,3.12,0,0,0,0,.61c0,.09,0,.18,0,.28a.33.33,0,0,0,0,.14A1.68,1.68,0,0,1,10,25a5.15,5.15,0,0,1,0,.56c0,.1,0,.2-.07.3s0,.15,0,.2,0-.11,0-.26a1.72,1.72,0,0,0,0-.78c-.08-.22,0-.45-.13-.65a.14.14,0,0,1,0-.11,2.42,2.42,0,0,0,.06-.66.74.74,0,0,1,0-.21.16.16,0,0,0-.07-.22c-.1-.08-.18-.2-.35-.16a1.93,1.93,0,0,0,0,.48.25.25,0,0,1,0,.12,1.57,1.57,0,0,0,0,.61c0,.17,0,.33,0,.49a2.09,2.09,0,0,0,0,.25v.13a.49.49,0,0,0,0,.27c0,.07,0,.16,0,.27a5.9,5.9,0,0,1-.05-1.11,7,7,0,0,1,0-.79,1.78,1.78,0,0,0-.1-.69L9,23.17c-.07,0-.07.08-.08.13a2.6,2.6,0,0,0,0,.4c0,.43-.06.85,0,1.28a11,11,0,0,1,0,1.15c0,.33,0,.65-.08,1a2.5,2.5,0,0,0,0,.67l0,0a.32.32,0,0,1-.1-.26v-.28a1.42,1.42,0,0,1,0-.2,1.62,1.62,0,0,1,0-.31c0-.09,0-.18,0-.27s0-.09,0-.13c0-.22,0-.44,0-.65a.15.15,0,0,0,0-.08c-.12,0-.1-.12-.11-.2v-.33L8,25l-.69,0a.21.21,0,0,0-.24.17v.06a3.67,3.67,0,0,1-.11,1v.16c0,.35,0,.69,0,1a.08.08,0,0,1-.09-.09,2.09,2.09,0,0,1,0-.43,3.53,3.53,0,0,0,0-.65c0-.37,0-.75.06-1.12a.5.5,0,0,1,.12-.29.59.59,0,0,0,.13-.36A3.78,3.78,0,0,1,7.11,24a.21.21,0,0,1,.08-.11.17.17,0,0,0,.09-.17.79.79,0,0,1,.12-.42.18.18,0,0,0,0-.21s0-.11,0-.16a.71.71,0,0,1,.1-.14.37.37,0,0,0,0-.11c0-.24.21-.39.3-.59,0,0,.08-.05.1-.06l.18-.3c0-.09.08-.18.11-.27a1,1,0,0,1,.18-.34c.05-.07.09-.15.15-.22a.27.27,0,0,1,.11-.1,1.23,1.23,0,0,0,.42-.33s.05-.1.12-.09,0,0,0-.07a.25.25,0,0,1,.11-.19,1.07,1.07,0,0,1,.45-.23l.09,0a.47.47,0,0,1-.13-.45l.11.3h0v-.45c.09,0,.09,0,.21.41l.42-.16-.14-.17a1.07,1.07,0,0,0,.21,0h.19c.09,0,.06-.1.12-.13s-.07-.08-.11-.09a1,1,0,0,0-.25,0l-.17,0c.05-.07.11,0,.15-.05a.57.57,0,0,0,.18,0l-.2-.13a.3.3,0,0,1,.3.06,1,1,0,0,0,.88.06l-.19-.12v0l.21.06c.2.07.22.06.43-.06a2.43,2.43,0,0,0-.6-.17,1.9,1.9,0,0,1,.71.08.41.41,0,0,0,.37-.07l-.12-.17,0,0,.16.1c.07.08.14.05.23,0l-.33-.28a.88.88,0,0,1,.45.23l.28-.17,0-.09c.06,0,.12.05.15-.05L13,17.9a1.12,1.12,0,0,1,.46.2.55.55,0,0,0,.48.1l-.09-.2c.12,0,.14.16.25.21.1-.19,0-.34-.06-.51a.65.65,0,0,1,.2.45.93.93,0,0,0,.44,0L14.63,18h0l.15.18c.06-.21-.09-.34-.17-.49a.71.71,0,0,1,.29.51c.09,0,.18,0,.21-.08a.37.37,0,0,0,0-.23.79.79,0,0,0-.31-.6l-.43-.33-.16-.13L14,16.61a1.57,1.57,0,0,1-.25-.2,1.2,1.2,0,0,1-.34-.56,1.51,1.51,0,0,1,.19-1.17s0-.08.05-.11a.42.42,0,0,1,.11-.15l.62-.49a2.57,2.57,0,0,1,.74-.37l.94-.39.29-.12.12-.08-.34-.52a.54.54,0,0,1-.1-.16.75.75,0,0,0-.32-.36l-.64-.49-.05,0a.32.32,0,0,0-.36-.2,2.68,2.68,0,0,1-1-.25l-.11,0s-.09,0-.1,0-.33.15-.45.3-.09,0-.12,0l-.17-.11c-.13.1-.24.24-.45.2,0-.08-.06-.16-.19-.14V11h-.06l-.19,0c-.11,0-.15,0-.13-.14a1.68,1.68,0,0,1,.16-.33s0-.05,0-.07,0-.1,0-.13l-.5-.22-.07.12a.13.13,0,0,1-.1,0c-.05,0-.05,0-.06.06s-.11.14-.23.08l-.36.12c-.11,0-.13,0-.14-.12l0-.31c-.12.06-.22.17-.38.12l0-.11-.29.27-.21.16a.24.24,0,0,1-.27,0,.3.3,0,0,0-.33,0L8.36,11a1.68,1.68,0,0,1-.72.25,1.2,1.2,0,0,1-.19,0,2.8,2.8,0,0,1,0-.29.24.24,0,0,1,.14-.21l.18-.1c.07,0,.07-.06.05-.12l-.13.09c-.05,0-.09.06-.16,0s-.13,0-.2,0c0-.2.18-.24.28-.35A1.05,1.05,0,0,1,8,9.91c-.06,0-.13,0-.17,0a1.84,1.84,0,0,1-.61.16c-.06,0-.12,0-.14.1s-.05.07-.08.09l-.53.27c-.07,0-.13,0-.17,0L5.61,11a.23.23,0,0,1-.27.08.12.12,0,0,0-.16.05h0a1.84,1.84,0,0,1-.57.54.24.24,0,0,1-.28,0,.2.2,0,0,0-.22,0H4c-.09-.18,0-.3.12-.42l-.1-.16c-.07.12-.25,0-.32.12s.17-.07.24,0l-.08.1-.46.39a.93.93,0,0,0-.16.18.72.72,0,0,1-.28.24H2.89s0-.07,0-.11V12c-.08.1-.16.18-.31.13A2.46,2.46,0,0,1,3,11.62l-.28-.11c.06-.23.28-.34.4-.53h-.2l.11-.2H2.8c-.06,0-.09,0-.06-.09a.56.56,0,0,1,.11-.2c.13-.13.27-.24.41-.37a.36.36,0,0,0,.1-.11A2.16,2.16,0,0,1,4.53,9l.12,0a.13.13,0,0,0,.12-.13h0a.23.23,0,0,1,.15-.21l.46-.2a.4.4,0,0,0,.15-.1l-.09,0c-.13,0-.15-.05-.1-.18l0-.05a1.31,1.31,0,0,0-.42.11l-.17.05c-.14,0-.19,0-.16-.17a.41.41,0,0,1,0-.07l-.31.09s-.1,0-.14,0a.12.12,0,0,1,0-.16l.13-.11H4.14c-.08,0-.11,0-.09-.1a.29.29,0,0,1,.18-.18l.23-.1a1.31,1.31,0,0,0,.27-.19,1.74,1.74,0,0,1,.33-.18.56.56,0,0,1,.59-.46,2.13,2.13,0,0,1,.71.09.43.43,0,0,0,.39-.08H6.56c-.06,0-.12,0-.12-.08s0-.14.06-.15a.81.81,0,0,1,.41-.11,1.81,1.81,0,0,1,.4,0l.18-.13c-.1-.06-.27-.11-.16-.31a.24.24,0,0,0-.09,0l-.62-.19c-.12,0-.18-.1-.16-.18a.26.26,0,0,1,.21-.2.8.8,0,0,1,.27,0,.33.33,0,0,0,.24,0l.36,0a.17.17,0,0,1,.1,0c.13.09.29.05.42.12h.07a.65.65,0,0,1,.39,0c.21,0,.21,0,.27.23a.38.38,0,0,1,.35.2s0,0,0,0a2.41,2.41,0,0,0,.68.29.2.2,0,0,0,.11,0,.83.83,0,0,0,.18-.13c-.24-.12-.51-.14-.68-.36.09-.1.21-.05.31-.1a.17.17,0,0,0-.18-.08.57.57,0,0,1-.49-.2.34.34,0,0,0-.31-.12H8.48l-.14,0A.12.12,0,0,1,8.26,5c.05-.06.09-.12.14-.17A.46.46,0,0,1,8,4.69s-.07,0-.11,0a.12.12,0,0,1-.12-.12c0-.07,0-.14.1-.16a2.33,2.33,0,0,1,.9-.18.23.23,0,0,0,.18,0,.45.45,0,0,1,.51-.06.22.22,0,0,0,.21,0A.9.9,0,0,1,9.92,4c0-.17,0-.17.23-.26L10,3.59c-.06-.12,0-.14.09-.2a.46.46,0,0,1,.48,0,1.19,1.19,0,0,0,.2.08c.09.05.19.08.22.21s.06.07.11.09.14.06.14.16.07.07.12.07a.3.3,0,0,0,.15,0c.09-.1.18-.05.29,0a.52.52,0,0,1-.11-.1.14.14,0,0,1,0-.11s0,0,.09,0a.14.14,0,0,0,.09,0c.11,0,.19,0,.26.08l.09.11a.13.13,0,0,0,.19,0,.05.05,0,0,0,0,0,1.09,1.09,0,0,1-.08-.15s0-.12.05-.1.21-.05.27-.17l.28.17V3.51l-.11,0a.16.16,0,0,1-.08-.05c0-.1-.09-.15-.14-.22a.33.33,0,0,1-.08-.36L12.8,3l0-.33Zm5.13,8c-.16.09-.31.16-.45.25a.45.45,0,0,1-.27.1.43.43,0,0,0-.33.21,3,3,0,0,1-.24.38.49.49,0,0,0-.07.45,2,2,0,0,0,.48.81,1.67,1.67,0,0,0,.5-.56c.13-.2.22-.42.35-.61a.6.6,0,0,0,.11-.34.79.79,0,0,1,0-.43.24.24,0,0,0-.08-.26Zm-1.63-.89-.2.06c-.09,0-.19.09-.3,0s-.26.14-.3.31a2.82,2.82,0,0,0-.07,1,.34.34,0,0,0,.07.19l.24.18c.06,0,.11,0,.14,0s.13-.28.19-.41a4.88,4.88,0,0,0,.22-.81,1.24,1.24,0,0,0,0-.47ZM19,13c.09,0,.14-.07.18-.06a.28.28,0,0,0,.26-.08l.19-.13a5.89,5.89,0,0,1,.73-.44.07.07,0,0,0,0-.1l0,0-.15-.1-.26.06-.27,0a1,1,0,0,0-.33.16A2.25,2.25,0,0,0,19,13Zm-3.89-2.75c-.17.07-.19.06-.29-.1h-.08s-.08,0-.09,0,0-.07,0-.1a.09.09,0,0,0,0-.06.17.17,0,0,0-.18,0,2.24,2.24,0,0,0,.76,1l.11-.57Zm-1.37.39a4,4,0,0,0,.9.26l-.45-.63a.93.93,0,0,0-.46.37ZM12.09,10l.06-.07a.92.92,0,0,1,.31-.28.53.53,0,0,0,.14-.12,1,1,0,0,0-1,.24Zm4.57.9a.59.59,0,0,0,.26-.62.23.23,0,0,1,0-.14.94.94,0,0,0,.13-.4c-.06-.1-.15-.05-.24-.05a5,5,0,0,1-.17,1.21Zm2.48.55a1.31,1.31,0,0,0-.77,1,4.83,4.83,0,0,1,.76-1ZM19.09,11l-.22.39,0,0,.58-.41Zm-1.39-.85-.17.34a.56.56,0,0,0,.45-.07s0,0,.05-.08c-.35,0-.29,0-.34-.19Zm-.33-.21a.84.84,0,0,0-.14.51l.28-.4ZM3.54,14.66l.12,0A.37.37,0,0,1,4,15a.76.76,0,0,1,0,.21c0,.5,0,1-.07,1.51a.4.4,0,0,1-.22.34l-.1.07s.06,0,.09,0a1.83,1.83,0,0,1,.7,0s.09,0,.11-.07L4.45,17a.39.39,0,0,1-.3-.42c0-.39,0-.78,0-1.16a.3.3,0,0,1,0-.1c0,.1.08.17.11.23l.6,1.35.15.25c.05-.09.09-.14.12-.2.23-.48.45-1,.68-1.43A.22.22,0,0,1,6,15.39c0,.12,0,.23,0,.33,0,.35,0,.69,0,1a.24.24,0,0,1-.17.27l-.08.06a4.18,4.18,0,0,0,.71,0,.79.79,0,0,0,.43,0L6.84,17A.88.88,0,0,1,6.69,17a.39.39,0,0,1-.21-.37l-.06-1.34c0-.11,0-.21,0-.32a.28.28,0,0,1,.24-.28.47.47,0,0,0,.15-.06l-.14,0H6.27a.18.18,0,0,0-.17.11L6,15c-.21.46-.43.91-.64,1.37,0,.05,0,.13-.13.14l-.09-.18-.7-1.53c-.08-.17-.14-.2-.32-.18l-.39,0-.14,0Zm4.92-.14a1.49,1.49,0,0,1,.63.14,1.13,1.13,0,0,1,.67,1,1.54,1.54,0,0,1-.22.91,1.3,1.3,0,0,1-1.31.61A1.28,1.28,0,0,1,7.54,17,1.22,1.22,0,0,1,7.05,16a1.57,1.57,0,0,1,.07-.57,1.22,1.22,0,0,1,.94-.88ZM9.31,16A1.4,1.4,0,0,0,9,15a.84.84,0,0,0-.85-.3.75.75,0,0,0-.57.61,1.88,1.88,0,0,0,0,.85,1.35,1.35,0,0,0,.21.51.81.81,0,0,0,.84.37.74.74,0,0,0,.61-.54A1.26,1.26,0,0,0,9.31,16ZM12,14.7l-.32-.11A1.2,1.2,0,0,0,10.4,15a1.5,1.5,0,0,0-.33,1.43,1.12,1.12,0,0,0,1.3.81,4.1,4.1,0,0,0,.91-.32.13.13,0,0,0,.09-.15v-.37a.27.27,0,0,1,.19-.3s0,0,.09-.09H11.56s0,0-.09.07l.23.06a.22.22,0,0,1,.2.14.75.75,0,0,1,0,.57c-.06.15-.22.16-.35.21h0a.61.61,0,0,1-.72-.26,1.63,1.63,0,0,1-.26-1.29,1.35,1.35,0,0,1,.16-.42.73.73,0,0,1,.82-.34.94.94,0,0,1,.73.68.26.26,0,0,0,0,.09l0,0s0,0,.06,0v-.09c0-.15,0-.31,0-.47s0-.11,0-.18A.36.36,0,0,1,12,14.7Zm13.3,2.39s-.06-.06-.09-.06c-.33,0-.36-.21-.39-.45a.24.24,0,0,1,0-.12V15c0-.13.05-.18.18-.2h.21c.24,0,.44.05.5.33,0,0,.05,0,.08.06s0-.07,0-.09,0-.2,0-.3,0-.2-.22-.2l-1.22,0c-.26,0-.53,0-.79,0-.1,0-.14,0-.15.1s-.05.35-.07.52a.19.19,0,0,0,0,.09s.07,0,.08-.06a1.59,1.59,0,0,0,.07-.2.27.27,0,0,1,.24-.22l.39,0c.18,0,.2,0,.2.21v1.44c0,.1,0,.2,0,.3h0a.28.28,0,0,1-.27.3c-.05,0-.12,0-.11.08s.08.05.13.05h0a5.79,5.79,0,0,1,1,0l.12,0Zm2.31-2.44.11,0c.21.07.25.17.16.37s-.15.3-.23.45a1.48,1.48,0,0,1-.13.21c-.05.07-.09.06-.14,0l-.05-.07L27,15a1.34,1.34,0,0,1-.07-.18h0a.12.12,0,0,1,.08-.15l.13-.07a.17.17,0,0,0-.12-.06,3.32,3.32,0,0,1-.89,0h-.07a.1.1,0,0,0,0,0s0,0,0,0a.69.69,0,0,1,.46.42c.15.29.32.58.47.87a.49.49,0,0,1,.08.21,4.51,4.51,0,0,1,0,.52c0,.19,0,.28-.31.35l-.14.07.13,0,.16,0,.88,0c.06,0,.13,0,.16-.06s-.08-.06-.13-.07c-.22,0-.29-.11-.3-.31v-.63a.37.37,0,0,1,0-.15l.54-1a.61.61,0,0,1,.35-.3s0,0,.1-.09h-1S27.59,14.64,27.61,14.65Zm-6.05,1.84-.19.18-.11.1A.91.91,0,0,1,20,16.58a1.41,1.41,0,0,1-.27-.93,1.15,1.15,0,0,1,.16-.6.7.7,0,0,1,.7-.38,1,1,0,0,1,.44.16,1.47,1.47,0,0,1,.48.6.93.93,0,0,0,0,.1s.05,0,.05-.07c0-.24,0-.48,0-.72l-.05-.08-.14.12-.19-.1a1.25,1.25,0,0,0-1.33.07,1.47,1.47,0,0,0-.51,1.65,1.14,1.14,0,0,0,1,.79,1.28,1.28,0,0,0,1.23-.56c0-.05.07-.09,0-.15ZM2.82,14.59a1,1,0,0,0-.39-.07.7.7,0,0,0-.62.5.65.65,0,0,0,.24.77L2.5,16c.13.07.28.12.41.2l0,0a.39.39,0,0,1,.09.54s0,0,0,0a.51.51,0,0,1-.72.11,1.21,1.21,0,0,1-.43-.54l-.06-.16c-.1,0-.08.11-.07.17s.07.27.1.41.07.24.23.25l.25.07a1,1,0,0,0,.3.05.8.8,0,0,0,.73-.6A.73.73,0,0,0,3,15.73a2.78,2.78,0,0,0-.42-.22l-.35-.16a.3.3,0,0,1-.19-.27.17.17,0,0,1,0-.1.4.4,0,0,1,.48-.31.84.84,0,0,1,.64.59c0,.05,0,.11.11.1l-.06-.72A.57.57,0,0,1,2.82,14.59ZM23.06,17a.31.31,0,0,1-.29-.3c0-.11,0-.22,0-.33V15.07c0-.08,0-.15,0-.23a.15.15,0,0,1,.12-.14l.08,0,.05-.05s0,0-.06,0l-.37,0h-.51c-.06,0-.15-.08-.17,0s.08.08.15.1.26.12.27.33v1.73a.28.28,0,0,1-.18.27l-.11.08s.08.05.1,0a3.24,3.24,0,0,1,.88,0,.17.17,0,0,0,.19-.05C23.17,17,23.12,17,23.06,17Zm-.76.82c.15.08.18.14.16.28a.25.25,0,0,1-.24.2c-.16,0-.32,0-.47,0a2.51,2.51,0,0,0,0-.27c0-.12,0-.24,0-.35a.2.2,0,0,0-.15-.22l.42,0a.47.47,0,0,1,.17,0c.17.06.2.18.09.33Zm-.36.21c0,.17,0,.23.16.23a.19.19,0,0,0,.21-.17h0c0-.13-.09-.21-.25-.21s-.12,0-.13.16Zm0-.23h.15c.11,0,.15-.05.15-.13a.21.21,0,0,0-.21-.2c-.08,0-.1,0-.1.14a.55.55,0,0,0,0,.18ZM27,17.49a.61.61,0,0,0-.27,0l-.1.05a.48.48,0,0,0-.14.66.44.44,0,0,0,.41.17.34.34,0,0,0,.29-.24.39.39,0,0,1-.1.08l-.08.05a.32.32,0,0,1-.4-.2.5.5,0,0,1,0-.32.27.27,0,0,1,.48-.13l.12.16a.13.13,0,0,0,0-.06v-.16A.76.76,0,0,0,27,17.49Zm-1,.33c0,.09-.05.18-.09.27s-.09.05-.15.07-.11,0-.16,0,.06.06.11.07h.18c.11,0,.14.12.07.21a.36.36,0,0,1-.43.05s0-.08,0-.09,0-.21.08-.29l0-.06a.19.19,0,0,1,0-.25.2.2,0,0,1,.11,0l.17,0Zm-.18.18c0-.09-.05-.16-.1-.16a.14.14,0,0,0-.1.15.13.13,0,0,0,.1.14c.06,0,.1-.05.1-.13Zm-.22.39c0,.12,0,.14.09.15a.48.48,0,0,0,.17-.05.69.69,0,0,0,0-.08l-.23,0Zm2.24-.31a.31.31,0,0,1-.3.29.29.29,0,0,1-.29-.27.31.31,0,0,1,.3-.29.28.28,0,0,1,.29.26Zm-.13.05a.31.31,0,0,0-.11-.25.12.12,0,0,0-.16,0s0,0,0,0a.36.36,0,0,0,.08.38.12.12,0,0,0,.17,0l0-.06s0-.06,0-.09ZM23.51,18l-.32,0c0,.21.07.24.32.19-.14.13-.23.15-.34.09a.28.28,0,0,1-.12-.32.26.26,0,0,1,.25-.21C23.42,17.82,23.48,17.88,23.51,18ZM23.15,18a.2.2,0,0,0,.23,0c0-.07-.05-.12-.11-.11s-.08.07-.12.12Zm.75.16.09-.07.15.32.26-.55h-.16c.07.13.07.16-.07.31,0-.11-.12-.19-.06-.31h-.27c.16.1.09.2.07.3Zm-1.07.2a.45.45,0,0,1,0-.39L23,18s0-.09,0-.12h0a.09.09,0,0,0-.11,0l-.07,0c-.07-.12-.14,0-.21,0a.6.6,0,0,1,0,.49Zm2.24-.45c.16,0,.18.05.18.19s0,.17,0,.26h.23a.18.18,0,0,1-.08-.19,1.28,1.28,0,0,0,0-.19.14.14,0,0,0-.12-.13c-.07,0-.15,0-.19.06Zm-8.15,8.84c0-.23,0-.45,0-.68a2.18,2.18,0,0,0,0-.72A4.38,4.38,0,0,0,16.92,26.72Zm8.15-8.84L25,17.8l-.13.05a2.13,2.13,0,0,1,0,.25,1,1,0,0,1,0,.24h.22a.5.5,0,0,1,0-.46Zm-1.17.25-.06,0a.77.77,0,0,1-.07-.16.88.88,0,0,1,0-.17h-.21l.24.52h0l.09-.21Zm.58-.27a.84.84,0,0,1,0,.47h.23c-.15-.15,0-.35-.1-.53Zm-6.77,7.35a1.78,1.78,0,0,0,0-.46c0-.15.09-.3,0-.48ZM28,18.26l.11.13.15-.13-.15-.14ZM13.05,26.62l0,.83A1.67,1.67,0,0,0,13.05,26.62Zm0-1a1.93,1.93,0,0,0,0,.72Zm1.49-3.83a.71.71,0,0,0-.43-.05A.9.9,0,0,0,14.59,21.79Zm10-4.11c.08-.09.08-.09,0-.19C24.49,17.6,24.49,17.6,24.6,17.68Z"/></g></g></svg>