<svg xmlns="http://www.w3.org/2000/svg" viewBox="0 0 24.05 31.62"><defs><style>.cls-1{fill:#fff;}.cls-2{fill:#cb3e3e;}</style></defs><g id="圖層_2" data-name="圖層 2"><g id="_0-ui_kits" data-name="0-ui_kits"><g id="logo_beer_brewlander"><path id="Brewlander" class="cls-1" d="M0,0H12.26A10.12,10.12,0,0,1,21.8,14.07a.67.67,0,0,0,.12.75,10.45,10.45,0,0,1-7,16.69.52.52,0,0,0-.19.11H14a3.93,3.93,0,0,0-.67-.12H0ZM10.19,18.81h2.92a2.33,2.33,0,1,1,.1,4.66c-.67,0-1.35,0-2,0h-1v6.69a15.34,15.34,0,0,0,5.92-.36V15.41H10.19ZM4,20.27v9.92H9.45V20.27ZM9.45,1.44H4v9.14H9.45ZM10.2,14h8.19V6.37H10.21V8.16H12a2,2,0,0,1,2,1.95,1.91,1.91,0,0,1-2,2H10.2Zm6.69,8.46h5.32c.43,0,.41-.28.43-.56a9.53,9.53,0,0,0-1.21-5.32c-.45-.83-1-1.35-2-1.16a3.62,3.62,0,0,1-.66,0H16.89ZM18.42,5.59c0-.59,0-1.14,0-1.69a.64.64,0,0,0-.24-.38c-2.3-2-5-2.35-8-2.07V5.59ZM4,18.83H9.44V15.4H4Zm-.74-8.22V1.42H1.38v9.19ZM1.39,27.79H3.28V20.26H1.39ZM19.17,6.34V14c1.4,0,1.13.29,1.62-1.08a8.09,8.09,0,0,0,0-5.49C20.31,6.05,20.58,6.33,19.17,6.34Zm3.29,16.77H19.17v5.18A9.19,9.19,0,0,0,22.46,23.11Zm-13-11.06H4V14H9.45Zm7.43,17.57c.51-.26.93-.45,1.34-.69a.5.5,0,0,0,.2-.38c0-1.8,0-3.6,0-5.42H16.88ZM10.19,22.1c1.05,0,2.05,0,3,0a.87.87,0,0,0,.89-.86.92.92,0,0,0-.77-1c-1,0-2.09,0-3.16,0Zm-6.9-6.7H1.38v3.42H3.29ZM1.39,14H3.28V12H1.39ZM3.28,28.55H1.4V30.2H3.28ZM10.2,10.72a15.92,15.92,0,0,0,1.84,0,.81.81,0,0,0,.59-.51c0-.2-.26-.61-.45-.63a16.32,16.32,0,0,0-2,0ZM20,5.6l-.81-1.11V5.6Z"/><path class="cls-2" d="M9.45,1.44v9.14H4V1.44Z"/></g></g></g></svg>