<svg xmlns="http://www.w3.org/2000/svg" viewBox="0 0 56.51 31.74"><defs><style>.cls-1{fill:#db093b;}.cls-2{fill:#d4aa6a;}.cls-3{fill:#fff;}</style></defs><g id="圖層_2" data-name="圖層 2"><g id="_0-ui_kits" data-name="0-ui_kits"><g id="logo_beer_floris"><g id="Group_6570" data-name="Group 6570"><g id="Group_6567" data-name="Group 6567"><path id="Path_31814" data-name="Path 31814" class="cls-1" d="M42.7,29.43c-6,.38-11.86,2.31-15.8,2.31-4.38,0-10.61-2-15.69-2.31V0H42.7Z"/></g><g id="Group_6568" data-name="Group 6568"><rect id="Rectangle_1289" data-name="Rectangle 1289" class="cls-2" x="9.79" width="1.42" height="29.42"/><path id="Path_31815" data-name="Path 31815" d="M11.22,29.43H9.79V0h1.43Zm-1.42,0h1.41V0H9.8Z"/></g><g id="Group_6569" data-name="Group 6569"><rect id="Rectangle_1290" data-name="Rectangle 1290" class="cls-2" x="42.7" width="1.42" height="29.42"/><path id="Path_31816" data-name="Path 31816" d="M44.12,29.43H42.69V0h1.43Zm-1.42,0h1.41V0H42.7Z"/></g></g><g id="Group_6575" data-name="Group 6575"><g id="Group_6571" data-name="Group 6571"><path id="Path_31817" data-name="Path 31817" class="cls-2" d="M4,7.49a1.45,1.45,0,0,0,0-.55C3,6.94,1.68,8.19.88,9c-.09.4-.16.81-.21,1.22C.67,10.25,2.56,8,4,7.49Z"/></g><g id="Group_6572" data-name="Group 6572"><path id="Path_31818" data-name="Path 31818" class="cls-2" d="M2.76,13.18c-.12-.25-.9.16-1.53.55-.26.59-.4,1-.4,1a13.41,13.41,0,0,1,1.82-1.08Z"/></g><g id="Group_6573" data-name="Group 6573"><path id="Path_31819" data-name="Path 31819" class="cls-2" d="M6.24,13.24l-.76,4s-.54,3,.11,3.23c-.24.15-2.56,1.21-3.62.71.63,1.47,3.67-.25,4.17-.36-.81-.19-.21-3.1-.21-3.1l.77-4s2.82.69,4-3.76a5.64,5.64,0,0,1-.77.5C8.63,13.83,6.24,13.24,6.24,13.24Z"/></g><g id="Group_6574" data-name="Group 6574"><path id="Path_31820" data-name="Path 31820" class="cls-2" d="M14.77,3.75c-.48,3.39-4.39,3-4.39,3L7.54,6.7,6.6,10.54a2.08,2.08,0,0,0,.55.07L8,7.17l2.84.09s4.43.4,4.43-3.75C15.1,3.6,14.94,3.68,14.77,3.75Z"/></g></g><g id="Group_6578" data-name="Group 6578"><g id="Group_6576" data-name="Group 6576"><path id="Path_31821" data-name="Path 31821" class="cls-2" d="M14.89,8.29a1.42,1.42,0,0,0-.43.85,1.36,1.36,0,0,1,0,.2v8.6H15V9.77a.61.61,0,0,0,0-.19c0-.56.71-1.11.71-1.11V8.29Z"/></g><g id="Group_6577" data-name="Group 6577"><path id="Path_31822" data-name="Path 31822" class="cls-2" d="M18.39,18c-.18.81-.46,1.78-.46,1.78h-7a3.45,3.45,0,0,1-.28.26v.18h7.92a21,21,0,0,0,.61-2.72A2,2,0,0,1,18.39,18Z"/></g></g><g id="Group_6582" data-name="Group 6582"><g id="Group_6579" data-name="Group 6579"><path id="Path_31823" data-name="Path 31823" class="cls-2" d="M22.44,12.08a9.3,9.3,0,0,1,1-1.4.47.47,0,0,1-.28-.5,2.4,2.4,0,0,1,.91-1.65,14.73,14.73,0,0,0-2.27,2.65c-.49.82-1.05,4.18.38,5.81A6.82,6.82,0,0,1,22.44,12.08Z"/></g><g id="Group_6580" data-name="Group 6580"><path id="Path_31824" data-name="Path 31824" class="cls-2" d="M30.16,10.65a6.31,6.31,0,0,1,.73,2.95A6.54,6.54,0,0,1,24.24,20a6.69,6.69,0,0,1-5.33-2.58,6.71,6.71,0,0,0,5.92,3.49,6.55,6.55,0,0,0,6.65-6.43A6.29,6.29,0,0,0,30.16,10.65Z"/></g><g id="Group_6581" data-name="Group 6581"><path id="Path_31825" data-name="Path 31825" class="cls-2" d="M26.24,11c-.59-.59-1.7-.23-2.4-.26a1.26,1.26,0,0,0-.05.33c0,1.25,2.13-.07,3,.83a2.39,2.39,0,0,1,.23.22A3.36,3.36,0,0,0,26.24,11Z"/></g></g><g id="Group_6586" data-name="Group 6586"><g id="Group_6583" data-name="Group 6583"><path id="Path_31826" data-name="Path 31826" class="cls-2" d="M39.38,14.3a3.26,3.26,0,0,0,.21-5.87,3.26,3.26,0,0,1-.87,5.41c.53,1.08,2.44,4.76,4.16,5.75H39.26a1.43,1.43,0,0,1-.61-.14,1.9,1.9,0,0,0,1.28.61h3.61C41.82,19.07,39.91,15.38,39.38,14.3Z"/></g><g id="Group_6584" data-name="Group 6584"><path id="Path_31827" data-name="Path 31827" class="cls-2" d="M35.76,10h.75a2,2,0,0,0-.63-.46h-.79v4a1.92,1.92,0,0,0,.67-.15Z"/></g><g id="Group_6585" data-name="Group 6585"><path id="Path_31828" data-name="Path 31828" class="cls-2" d="M35.78,18.77a1.21,1.21,0,0,0,0-.19V15.9l-.67-1.22v3.43a1.36,1.36,0,0,1,0,.2c0,.55.67,1.1.67,1.1v.18H31.9a2.65,2.65,0,0,1-.29.29v.18h4.85v-.18S35.78,19.33,35.78,18.77Z"/></g></g><g id="Group_6587" data-name="Group 6587"><path id="Path_31829" data-name="Path 31829" class="cls-2" d="M47.11,15.49v-6a1.36,1.36,0,0,0,0-.2c0-.55.71-1.11.71-1.11V8.05H47a1.32,1.32,0,0,0-.39.8.68.68,0,0,1,0,.2v6h0v3.43a2.13,2.13,0,0,0,.7.95v.18H43a3.11,3.11,0,0,1-.32.31v.18h5.1v-.18a2,2,0,0,1-.69-.95V15.49Z"/></g><g id="Group_6591" data-name="Group 6591"><g id="Group_6588" data-name="Group 6588"><path id="Path_31830" data-name="Path 31830" class="cls-2" d="M55.25,10.7V8.32A4.85,4.85,0,0,0,54.64,8V9.78l-.12,0A3.59,3.59,0,0,0,52.14,9H52a1.26,1.26,0,0,0-1.36,1.15v0a1.09,1.09,0,0,0,.66.91.93.93,0,0,1,0-.29,1.25,1.25,0,0,1,1.32-1.2h.22a5.37,5.37,0,0,1,2.47,1.07Z"/></g><g id="Group_6589" data-name="Group 6589"><path id="Path_31831" data-name="Path 31831" class="cls-2" d="M48.15,13.36a4.79,4.79,0,0,0,.83.79c.75.56,2.35,1.17,3.26,1.81-.44-.88-2.89-1.69-3.87-2.43Z"/></g><g id="Group_6590" data-name="Group 6590"><path id="Path_31832" data-name="Path 31832" class="cls-2" d="M55.07,13.29a4,4,0,0,1,.83,2.57c0,2.1-2,3.8-4.5,3.8a10.64,10.64,0,0,1-3.63-.52l0,.27c.82.77,3.13.86,4.18.86,2.49,0,4.5-1.7,4.5-3.8A3.86,3.86,0,0,0,55.07,13.29Z"/></g></g><g id="Group_6592" data-name="Group 6592"><path id="Path_31833" data-name="Path 31833" class="cls-3" d="M4.38,3.82C.6,3.82.07,9.53.07,9.53S2.4,6.69,3.82,6.69c.19.59-.65,3.4-.65,3.4C1.43,10.23.23,14,.23,14s2.19-1.54,2.38-1.11c0,0-1.17,5.75-1.36,6.89.06,2.45,3.74.35,4.28.23-.8-.19-.2-3.1-.2-3.1l.77-4s2.82.7,4-3.75A4.37,4.37,0,0,1,6.45,10.3l1-3.84,2.83.09s4.44.4,4.44-3.76a8.78,8.78,0,0,1-4,1C9.68,3.74,8.17,3.82,4.38,3.82Z"/><path id="Path_31834" data-name="Path 31834" d="M2.43,21.06h0a1.38,1.38,0,0,1-.75-.19,1.18,1.18,0,0,1-.48-1.05h0c.18-1.09,1.28-6.5,1.35-6.87l0,0c-.1,0-.39,0-1.27.54-.51.31-1,.63-1,.63l-.13.09,0-.15A12.56,12.56,0,0,1,1,12.09a6.35,6.35,0,0,1,.94-1.36A2,2,0,0,1,3.13,10c0-.15.22-.77.38-1.44a6.42,6.42,0,0,0,.27-1.85,2.37,2.37,0,0,0-1.11.43,9.44,9.44,0,0,0-1.22,1C1,8.6.53,9.07.11,9.56L0,9.7l0-.17a8.15,8.15,0,0,1,.14-.9,10.52,10.52,0,0,1,.6-2,5.47,5.47,0,0,1,1.32-2,3.29,3.29,0,0,1,2.3-.91c2.5,0,4,0,5-.06l1.27,0a8.82,8.82,0,0,0,4-.94l.08,0v.09a3.6,3.6,0,0,1-1.08,2.78,3.81,3.81,0,0,1-1.1.68,4.78,4.78,0,0,1-1.11.29,5.43,5.43,0,0,1-1.21.06L7.44,6.51l-.92,3.75a3.22,3.22,0,0,0,1,0A4.07,4.07,0,0,0,8.64,10a5.87,5.87,0,0,0,1.42-.81l.12-.09,0,.15A6.92,6.92,0,0,1,9,11.74a3.46,3.46,0,0,1-1.34,1.09,2.87,2.87,0,0,1-1.12.26l-.42,0L5.39,17a11.82,11.82,0,0,0-.21,1.47,4,4,0,0,0,0,1c.06.31.17.49.33.53l.23,0-.23.05q-.27.09-.54.21a11,11,0,0,1-1.69.61A3.83,3.83,0,0,1,2.43,21.06ZM1.3,19.82a1.54,1.54,0,0,0,.13.6.83.83,0,0,0,.31.36c.76.49,2.37-.2,3.23-.56L5.39,20c-.27-.18-.37-.73-.31-1.62a10.53,10.53,0,0,1,.2-1.48l.78-4h.05a1.71,1.71,0,0,0,.45,0,2.88,2.88,0,0,0,1.08-.24,3.44,3.44,0,0,0,1.29-1.07A6.76,6.76,0,0,0,10,9.37a6.15,6.15,0,0,1-1.33.73,4.61,4.61,0,0,1-1.16.3,3,3,0,0,1-1.07-.05l-.05,0,1-3.93,2.88.09a5.94,5.94,0,0,0,1.19-.06,4.54,4.54,0,0,0,1.08-.29,3.4,3.4,0,0,0,1.06-.65,3.44,3.44,0,0,0,1-2.61,8.92,8.92,0,0,1-3.93.91l-1.26,0c-1,0-2.53.07-5,.07a3.31,3.31,0,0,0-1.25.24,3.41,3.41,0,0,0-1,.63,5.58,5.58,0,0,0-1.29,2,10.2,10.2,0,0,0-.59,2,6.51,6.51,0,0,0-.12.71q.59-.67,1.23-1.29a9,9,0,0,1,1.23-1,2.45,2.45,0,0,1,1.22-.45h0v0a5.17,5.17,0,0,1-.26,2c-.18.77-.39,1.47-.39,1.48v0h0A1.84,1.84,0,0,0,2,10.8a6.78,6.78,0,0,0-.92,1.34A13,13,0,0,0,.33,13.9c.18-.12.5-.34.85-.54.71-.42,1.16-.6,1.36-.55a.2.2,0,0,1,.12.1v0h0C2.65,13,1.5,18.68,1.3,19.82Z"/></g><g id="Group_6593" data-name="Group 6593"><path id="Path_31835" data-name="Path 31835" class="cls-3" d="M16.47,17.57H14.19V9a.62.62,0,0,0,0-.19c0-.56.71-1.11.71-1.11V7.49H9.81v.18a2.16,2.16,0,0,1,.7,1v9.58c0,.55-.72,1.11-.72,1.11v.18h7.92a21,21,0,0,0,.62-2.72A3.34,3.34,0,0,1,16.47,17.57Z"/><path id="Path_31836" data-name="Path 31836" d="M17.75,19.55h-8v-.26l0,0s.69-.54.69-1.06V8.63a2.11,2.11,0,0,0-.67-.92h0V7.44H15V7.7h0s-.7.54-.7,1.07a.66.66,0,0,1,0,.2v8.54h2.22a4.15,4.15,0,0,0,.7-.15,2.44,2.44,0,0,0,1.12-.62l.09-.11v.14a19.29,19.29,0,0,1-.62,2.73Zm-7.9-.11h7.82a24.67,24.67,0,0,0,.59-2.51,2.67,2.67,0,0,1-1.06.54,4.5,4.5,0,0,1-.73.15H14.14V9h0a.55.55,0,0,0,0-.18,1.35,1.35,0,0,1,.37-.8,3.51,3.51,0,0,1,.34-.33v-.1h-5v.1a2,2,0,0,1,.7,1v9.59a1.35,1.35,0,0,1-.37.8,2.73,2.73,0,0,1-.35.33Z"/></g><g id="Group_6594" data-name="Group 6594"><path id="Path_31837" data-name="Path 31837" class="cls-3" d="M25,8.05c-.34.13-1.8,1-1.8,2,0,1.25,2.13-.07,3,.83a4.68,4.68,0,0,1,1.3,3.33,3.3,3.3,0,0,1-3,3.56h-.09c-4,0-3-5.85-2.57-6.71a11.35,11.35,0,0,1,2.27-2.66c.43-.39.64-.68.48-1.1s-1.26-.21-1.69-.13a6.49,6.49,0,0,0-5.32,6.3,6.66,6.66,0,0,0,13.31,0,6.37,6.37,0,0,0-2.24-4.81A3.79,3.79,0,0,0,25,8.05Z"/><path id="Path_31838" data-name="Path 31838" d="M24.25,20a6.86,6.86,0,0,1-2.61-.51,6.54,6.54,0,0,1-2.13-1.39A6.33,6.33,0,0,1,18.07,16a6.22,6.22,0,0,1-.53-2.52A6.29,6.29,0,0,1,18,11.26a6.1,6.1,0,0,1,1.13-1.9A6.72,6.72,0,0,1,22.9,7.13c.71-.13,1.59-.22,1.75.16h0c.17.45,0,.76-.5,1.17s-.79.75-1,1a8,8,0,0,0-1.24,1.65,4.34,4.34,0,0,0-.25.85,9.79,9.79,0,0,0-.17,1.43,5.71,5.71,0,0,0,.61,3.14,2.54,2.54,0,0,0,2.34,1.22,2.84,2.84,0,0,0,2.16-1,3.75,3.75,0,0,0,.9-2.52,5.2,5.2,0,0,0-.35-1.86,3.55,3.55,0,0,0-.93-1.42h0a2.12,2.12,0,0,0-1.7-.28c-.5.05-.94.09-1.18-.12a.61.61,0,0,1-.17-.47,1.49,1.49,0,0,1,.25-.76A3,3,0,0,1,24,8.68,4,4,0,0,1,25,8l0,.05L25,8a3.52,3.52,0,0,1,2-.15,3.74,3.74,0,0,1,1.67.79,5.89,5.89,0,0,1,.94,1,6.79,6.79,0,0,1,.71,1.16,6,6,0,0,1,.45,1.29A6.7,6.7,0,0,1,31,13.49,6.22,6.22,0,0,1,30.43,16,6.33,6.33,0,0,1,29,18.07a6.65,6.65,0,0,1-2.13,1.39A6.89,6.89,0,0,1,24.25,20ZM23.91,7.13h-.05a5.76,5.76,0,0,0-.93.11,6.58,6.58,0,0,0-3.77,2.19,6.18,6.18,0,0,0-1.51,4.06A6.23,6.23,0,0,0,18.17,16a6.34,6.34,0,0,0,1.41,2,6.63,6.63,0,0,0,2.1,1.37,6.85,6.85,0,0,0,5.14,0A6.63,6.63,0,0,0,28.92,18a6.25,6.25,0,0,0,1.93-4.5,5.79,5.79,0,0,0-.16-1.38,6.24,6.24,0,0,0-.44-1.28,6.34,6.34,0,0,0-.7-1.14,6,6,0,0,0-.92-1A3.72,3.72,0,0,0,27,8a3.54,3.54,0,0,0-2,.14,4.33,4.33,0,0,0-1,.67,1.9,1.9,0,0,0-.76,1.31.45.45,0,0,0,.13.38c.21.18.64.14,1.1.1a2.16,2.16,0,0,1,1.78.31,3.58,3.58,0,0,1,1,1.46,5.62,5.62,0,0,1,.36,1.9,3.84,3.84,0,0,1-.93,2.59,3,3,0,0,1-2.25,1A2.65,2.65,0,0,1,22,16.56a5.89,5.89,0,0,1-.62-3.2A7.11,7.11,0,0,1,21.8,11a7.94,7.94,0,0,1,1.26-1.68c.22-.23.57-.59,1-1a1.88,1.88,0,0,0,.45-.52.63.63,0,0,0,0-.52C24.49,7.2,24.27,7.13,23.91,7.13Z"/></g><g id="Group_6595" data-name="Group 6595"><path id="Path_31839" data-name="Path 31839" class="cls-3" d="M38.39,13.74a3.26,3.26,0,0,0,.11-5.92,3.14,3.14,0,0,0-1.41-.33H30.9v.18s.68.56.68,1.11v9.58a2.08,2.08,0,0,1-.66,1v.18h4.85v-.18s-.68-.56-.68-1.11a.67.67,0,0,0,0-.2V14.58l1.71,3.12s.91,1.79,2.17,1.79h3.61C40.84,18.5,38.92,14.81,38.39,13.74ZM35.06,9.42h.79a2.1,2.1,0,0,1-.79,4Z"/><path id="Path_31840" data-name="Path 31840" d="M42.76,19.55H38.94a1.72,1.72,0,0,1-.9-.29,3.5,3.5,0,0,1-.7-.63,5.16,5.16,0,0,1-.61-.91l-1.61-2.93V18a1.5,1.5,0,0,1,0,.2c0,.53.65,1.06.65,1.07h0v.27h-5v-.26l0,0a2,2,0,0,0,.64-.91V8.78c0-.52-.65-1.06-.65-1.07h0V7.44h6.24a3.33,3.33,0,0,1,3.31,3.31,3.37,3.37,0,0,1-.56,1.84,3.27,3.27,0,0,1-1.38,1.17c.49,1,1,1.94,1.61,2.86a15.26,15.26,0,0,0,1.23,1.67,5.09,5.09,0,0,0,1.29,1.16ZM35,14.37l1.81,3.31a4.77,4.77,0,0,0,.61.88,3,3,0,0,0,.67.61,1.58,1.58,0,0,0,.84.27h3.43c-1.68-1.12-3.5-4.61-4-5.68l0,0,0,0a3.24,3.24,0,0,0,1.38-1.16,3.13,3.13,0,0,0,.54-1.78A3.17,3.17,0,0,0,39.79,9a3.26,3.26,0,0,0-1.31-1.16,3.18,3.18,0,0,0-1.39-.32H31v.1a2.57,2.57,0,0,1,.33.33,1.33,1.33,0,0,1,.35.8v9.6a2.09,2.09,0,0,1-.66,1v.09h4.74v-.09a3.4,3.4,0,0,1-.32-.34,1.27,1.27,0,0,1-.35-.8A.55.55,0,0,0,35,18h0Zm0-.89V9.37h.87a2.24,2.24,0,0,1,.89.78,2.21,2.21,0,0,1,.34,1.17,2.16,2.16,0,0,1-2,2.16Zm.11-4v3.89a2,2,0,0,0,1.88-2,2.08,2.08,0,0,0-.32-1.11,2.14,2.14,0,0,0-.84-.74Z"/></g><g id="Group_6596" data-name="Group 6596"><path id="Path_31841" data-name="Path 31841" class="cls-3" d="M46.33,14.93V9a1.23,1.23,0,0,0,0-.19c0-.56.71-1.11.71-1.11V7.49H42v.18a2.07,2.07,0,0,1,.69,1v3.75h0V18a.66.66,0,0,0,0,.2c0,.55-.71,1.1-.71,1.1v.18H47v-.18a2.06,2.06,0,0,1-.69-.95V14.93Z"/><path id="Path_31842" data-name="Path 31842" d="M47.08,19.55H41.87v-.26l0,0s.69-.53.69-1.06a.66.66,0,0,1,0-.2V12.32h0V8.63a2.11,2.11,0,0,0-.67-.92h0V7.44h5.22V7.7h0s-.69.54-.69,1.07a.67.67,0,0,1,0,.2v6h0v3.37a2,2,0,0,0,.67.91l0,0ZM42,19.44h5v-.1a2,2,0,0,1-.7-1V14.88h0V9h0a1.1,1.1,0,0,0,0-.18,1.26,1.26,0,0,1,.36-.8A3.76,3.76,0,0,1,47,7.64V7.55H42v.09a2.1,2.1,0,0,1,.69,1v3.82h0V18h0a1.09,1.09,0,0,0,0,.18,1.3,1.3,0,0,1-.37.79,3.64,3.64,0,0,1-.34.34Z"/></g><g id="Group_6597" data-name="Group 6597"><path id="Path_31843" data-name="Path 31843" class="cls-3" d="M52.37,11.43c-.51-.18-1.26-.5-1.26-1.16a1.27,1.27,0,0,1,1.32-1.2h.23a5.29,5.29,0,0,1,2.46,1.07l0,0V7.81a6.39,6.39,0,0,0-3.24-.72c-2.48,0-4.5,1.71-4.5,3.81a3.22,3.22,0,0,0,1.48,2.73c1.08.81,3.94,1.71,3.94,2.7,0,.66-.71,1.15-1.83,1.15a6.66,6.66,0,0,1-3.82-1.59c0,.13.55,3,.55,3,.82.77,3.13.86,4.18.86,2.49,0,4.5-1.7,4.5-3.8C56.41,13.32,54.62,12.22,52.37,11.43Z"/><path id="Path_31844" data-name="Path 31844" d="M51.91,19.81a17.6,17.6,0,0,1-2.18-.14,4,4,0,0,1-2-.74h0v0s-.15-.73-.29-1.46a9.19,9.19,0,0,1-.26-1.57l0-.1.07.08A5.46,5.46,0,0,0,49.07,17a5.61,5.61,0,0,0,1.93.45,2.35,2.35,0,0,0,1.3-.32,1.17,1.17,0,0,0,.35-.35.82.82,0,0,0,.12-.43c0-.27-.23-.56-.72-.89a16.5,16.5,0,0,0-1.6-.87,10.28,10.28,0,0,1-1.59-.89,3.87,3.87,0,0,1-1.16-1.29,3.08,3.08,0,0,1-.34-1.49,3.28,3.28,0,0,1,.36-1.5,3.89,3.89,0,0,1,1-1.23,5,5,0,0,1,1.44-.82A5.35,5.35,0,0,1,51.91,7a8.32,8.32,0,0,1,1.8.17,4.84,4.84,0,0,1,1.47.55l0,0v2.53l-.09-.09,0,0a3.89,3.89,0,0,0-1.49-.82,7,7,0,0,0-.93-.24h-.2a1.4,1.4,0,0,0-.94.33,1.08,1.08,0,0,0-.36.81.8.8,0,0,0,.11.4,1.14,1.14,0,0,0,.3.32,3,3,0,0,0,.81.39,13.74,13.74,0,0,1,1.59.67,5.57,5.57,0,0,1,1.29.91,4,4,0,0,1,1.2,3,3.46,3.46,0,0,1-.36,1.51,3.86,3.86,0,0,1-1,1.22,4.75,4.75,0,0,1-1.45.83A5.31,5.31,0,0,1,51.91,19.81Zm-4.13-.94a4,4,0,0,0,2,.69,15.81,15.81,0,0,0,2.17.14,5.43,5.43,0,0,0,1.74-.29,4.84,4.84,0,0,0,1.41-.81A3.65,3.65,0,0,0,56,17.41,3.21,3.21,0,0,0,56.36,16,3.83,3.83,0,0,0,55.2,13a5.92,5.92,0,0,0-1.27-.89,12.91,12.91,0,0,0-1.58-.67h0a3.06,3.06,0,0,1-.83-.41,1,1,0,0,1-.46-.81A1.31,1.31,0,0,1,52.43,9h.31l.2,0a5.37,5.37,0,0,1,.67.18,4.28,4.28,0,0,1,1.49.79V7.84a6.39,6.39,0,0,0-3.19-.69,5.37,5.37,0,0,0-1.73.29,4.84,4.84,0,0,0-1.41.81,3.79,3.79,0,0,0-1,1.19,3.21,3.21,0,0,0-.35,1.46,3.15,3.15,0,0,0,1.45,2.68,10.61,10.61,0,0,0,1.58.88c1.17.59,2.39,1.19,2.39,1.86a1,1,0,0,1-.52.87,2.53,2.53,0,0,1-1.36.34,5.56,5.56,0,0,1-2-.46A5.86,5.86,0,0,1,47.24,16C47.31,16.46,47.58,17.88,47.78,18.87Z"/></g></g></g></g></svg>