<svg xmlns="http://www.w3.org/2000/svg" viewBox="0 0 31.62 31.72"><defs><style>.cls-1{fill:#fff;}.cls-2{fill:#163d50;opacity:0.89;isolation:isolate;}</style></defs><g id="圖層_2" data-name="圖層 2"><g id="_0-ui_kits" data-name="0-ui_kits"><g id="logo_beer_8_Wired" data-name="logo_beer_8 Wired"><path id="Path_31647" data-name="Path 31647" class="cls-1" d="M.32,12.93a.54.54,0,0,1,.11-.41C.42,12.6.36,12.76.32,12.93ZM16.87.15c.07,0,.09,0,.1,0h-.1ZM24.74,2.9l.17.16c-.09-.07-.2-.15-.17-.16Zm3.08,2.73,0-.06.11.07-.07,0Zm1.5,2.29c.05,0,.13,0,.16,0a.06.06,0,0,1,0,.06.26.26,0,0,0-.13-.1Zm2.11,8h-.05v0ZM12.67.2h0s.08,0,0,0ZM31.49,15.84c0,.1,0,.27-.09.27v-.24h0v0a15.68,15.68,0,0,0-.24-2.74h0l0,0c0-.13,0-.26-.07-.39s0,0,.06.1c0-.27-.1-.21-.09-.45,0,0,0,0,0,0l-.1-.24s.07-.06.09.1c0-.47-.27-.7-.22-.89v0c-.16-.43-.14-.27-.21-.29s-.07-.2-.1-.31l.06-.23-.11,0c0-.07-.06-.18,0-.18-.14-.21,0,0-.12-.06l0,0a1.82,1.82,0,0,0-.16-.5c-.08-.17-.14-.31-.09-.37-.11-.08.08.29-.11,0,.1-.16-.19-.34-.25-.63.11,0,.19.31.13,0a.48.48,0,0,1-.2-.32A1.38,1.38,0,0,0,29.45,8c-.1,0-.32-.43-.56-.76a7,7,0,0,0-.59-1h0c-.14,0-.34-.33-.55-.53.05,0,.11,0,.23.09-.05-.07-.12-.13-.18-.2a.83.83,0,0,1-.27-.19h.11c-.25-.26-.54-.49-.84-.84-.05,0,0,.19-.05.21a1.29,1.29,0,0,0-.17-.16.11.11,0,0,1,.1,0,.73.73,0,0,1-.18-.14l.2.08c-.14-.16-.13,0-.24-.15s-.07-.11,0-.13.09.12.16.14a1.35,1.35,0,0,1-.31-.4s0,.07-.16,0c-.27-.24,0-.14-.18-.3s-.24-.21-.31-.14a.24.24,0,0,1-.09-.15c-.17-.08-.7-.51-.59-.31h0a3.19,3.19,0,0,1-.38-.26l-.39-.26a7.94,7.94,0,0,0-.78-.5v0a6.49,6.49,0,0,0-1-.4c-.09,0-.2-.15-.14-.17a3.71,3.71,0,0,1-.65-.27c.28.05-.07-.07.28.07a2,2,0,0,0-.78-.28c.15,0-.22-.18-.39-.22L21,1l-.5-.18.12-.06a3,3,0,0,0-1-.23A2.54,2.54,0,0,1,18.8.28c-.2,0,.39.1.2.16s-.51-.17-.76-.27c-.46-.12-.45.06-.93,0,.07,0,.11.13-.25.15s-.4-.17-.19-.18.12,0,.12,0,.25,0,.12-.06l-.05,0c-.16,0-.63-.07-.52-.12-.26,0-.11.05.08.08A7.14,7.14,0,0,0,15.49,0c.07,0,.14.06.07.06-.66,0-.29.08-.73.12-.25,0,.08-.13-.36-.07-.27,0-.06-.09,0-.12l-.29,0L14,.07h-.44L13.72,0a1.86,1.86,0,0,1-.34.06l.14.05c-.13,0-.24,0-.24,0s.12.1-.13.2-.5.11-.57,0c.53-.06-.08-.09.36-.18a1.64,1.64,0,0,1-.32,0s0,0,.05,0c-.52,0-.21.16-.72.28.05-.07-.14-.07-.22,0,.2-.05.12.06-.06.15a2,2,0,0,0-.52.16l.2,0a1.72,1.72,0,0,1-.43.21s.19-.1.11-.09c-.22.18-.59.11-.9.29s-.05-.09-.2-.06c-.36.2-.44.11-.81.34.14,0,.15,0-.09.18l.61-.35-.37.29q.25-.15.51-.27c-.18.13-.16.12,0,.12-.3,0-.49.31-.82.39l-.06-.17A2.38,2.38,0,0,0,8.2,2a4.6,4.6,0,0,1-.69.46l.19-.08c0,.1-.33.21-.5.35,0-.06-.14,0-.24,0H7s-.39.28-.37.41l-.28.12c-.44.29-.39.48-.77.81.08-.16-.12,0,.1-.29-.13.11-.24.21-.22.24s-.29.36-.44.43a.28.28,0,0,1,.1-.09A.45.45,0,0,0,5,4.43H5a.46.46,0,0,1-.15.25s0,0,0,0-.18.24,0,.16a3,3,0,0,0-.71.67c-.12.13-.23.27-.34.38a1.53,1.53,0,0,1-.29.28l0,0-.09.09,0,0-.65.94s0,0,0-.07c-.29.37,0,.34-.33.75-.22.18.1-.26,0-.14s-.32.55-.57.81l0-.08a7.6,7.6,0,0,0-.43,1s0,0,0,0a12.68,12.68,0,0,1-.33,1.27c0-.15,0-.19-.07-.14s.14,0,0,.35c-.08.1-.22.34-.3.36s.08-.23.11-.34a.47.47,0,0,0-.14.29,1.91,1.91,0,0,1-.06.33l0,0C.5,12,.62,12,.46,12.6l0,0c0,.33-.11.25-.08.58l-.12.08c0,.21,0,.75,0,1.13a4.36,4.36,0,0,1-.05-.95,3.82,3.82,0,0,0-.06.83.86.86,0,0,1,0-.28,5,5,0,0,1,0,1C0,14.88.12,16.06,0,16.37A8.47,8.47,0,0,1,.08,17.5c0,.39.07.79.15,1.22.12-.34,0,.25.21.16a1.5,1.5,0,0,1,.06.29h0s-.22-.35-.18,0c0-.29.21.42.18,0l.05.62c0,.15-.09-.18-.12-.15.1.43,0,.2,0,.5,0-.08.13.12.17.38v-.37a1.58,1.58,0,0,1,.13.56,1.16,1.16,0,0,0,.18.57l-.12-.17c.07.14.17.43.29.7a1.69,1.69,0,0,0,.19.38.92.92,0,0,0,.22.26c0,.06,0,.15-.08,0A6.89,6.89,0,0,0,2,23.54a6,6,0,0,1,.57.94l-.07,0a1.27,1.27,0,0,1,.27.34s-.07,0,0,0a2.27,2.27,0,0,1,.39.43L3,25.15a3.83,3.83,0,0,0,.6.73c.21.18.42.33.64.55-.09.08.26.57.47.78h0a11.1,11.1,0,0,0,.91.76c.29.21.62.37,1,.6a1.93,1.93,0,0,0,.35.35,4,4,0,0,0,.54.37c.4.25.81.52,1.17.72-.1-.08.06-.08.2,0s.51.14.43.24l-.06,0a1.5,1.5,0,0,0,.73.42l.11-.13a3.73,3.73,0,0,0,1.29.52,3.39,3.39,0,0,1,1.08.33,4.46,4.46,0,0,0,.63.05l0,.08.68.12.34.05a3.11,3.11,0,0,0,.43,0l-.14.06c.37,0,.49-.22.83-.21l.1.13a6.31,6.31,0,0,0,1.94,0s0,0-.13.06c.3,0,1.19-.05,1.05-.2,0,.11.67-.08,1-.2l0,.09a1.89,1.89,0,0,1,.66-.34c.09,0,.1,0,0,.06.32,0,.22-.14.61-.2l-.13.09a.7.7,0,0,0,.45-.21,1.21,1.21,0,0,1,.67-.14.61.61,0,0,1,.37-.23s0,.06-.06.08a2.53,2.53,0,0,0,.36-.12l.26-.15A1.58,1.58,0,0,1,22.7,30a.08.08,0,0,0,.08,0c-.4.19-.72.35-.7.33s.36-.08.14.14a4.49,4.49,0,0,1,1-.62.06.06,0,0,1,.06,0l0,0a.72.72,0,0,0,.19-.11l.26-.13c.07,0,.37-.18.53-.28-.06-.06.15-.17-.08-.11,0,0,0,0-.11.08l0,0-.07,0,0,0,0,0-.05,0v0l-.38.24a.81.81,0,0,1,.4-.28L24.1,29c.27,0,.71-.22.79-.21l.69-.58.3-.28a1.41,1.41,0,0,0,.18-.29.26.26,0,0,1,.22-.1,1.46,1.46,0,0,0-.16.19c.21-.24.67-.63.65-.76.32-.23-.08.23.28-.16l0,.08a4.37,4.37,0,0,0,.9-1.06,4.14,4.14,0,0,1,.88-1.19.45.45,0,0,1-.11.09,18.78,18.78,0,0,0,1.91-3.56,1.26,1.26,0,0,0,.13-.63l.12,0v-.4a2.26,2.26,0,0,1,.25-.73,3.12,3.12,0,0,0,.15-.39,1.47,1.47,0,0,0,0-.47l-.07.07c.05-.24.08-.78.14-.73a.19.19,0,0,1,0-.18h.05c0-.1,0-.21,0-.31l0-.31c.06-.47.18.09.22-.61,0-.26-.1-.74-.13-.64ZM23.87,29.48v0a.13.13,0,0,1,0,.06h0c-.1.07-.14.08-.16.07Zm6.52-19.36c0-.15-.09-.3-.14-.44.21.56.12-.15.23.43-.08-.2-.09-.09-.09,0Zm-.72-1.75c-.06-.17,0-.15.06,0s.07.23-.05,0Zm-7.38-7-.06.06c.05,0-.12-.13.06-.06Zm-3-1.07-.23,0,.32,0ZM3.69,5.78H3.58c.12-.19.19-.1.11,0Zm6.64,25,.12.05-.28-.08Z"/><path id="Path_31648" data-name="Path 31648" class="cls-2" d="M13,16.67a.63.63,0,0,1-.13.53.73.73,0,0,1-.3.19l-.16,0a1.06,1.06,0,0,1-.66-.19.46.46,0,0,1-.18-.21.74.74,0,0,1,.13-1l.18-.09a1,1,0,0,1,.83.18A.76.76,0,0,1,13,16.67Zm13.46,3.86a.77.77,0,0,1,0,.72,1.88,1.88,0,0,1-.23.16l0,.16a5.69,5.69,0,0,1-.72,1.77,1.35,1.35,0,0,1-.79.57,2.92,2.92,0,0,0-.47.23l-.08.05a5.91,5.91,0,0,1-.64.85,1.32,1.32,0,0,1-.87.41,2.85,2.85,0,0,0-.5.14l-.33.14A11.31,11.31,0,0,1,17.08,27H17a6.47,6.47,0,0,1-1.38-.2l-.31-.08a3.87,3.87,0,0,1-.87-.29L14,26.16a4.89,4.89,0,0,0-.64-.34c-.49.05-1,.08-1.48.1a.46.46,0,0,1,0,.41,1,1,0,0,1-.9.48h0a.74.74,0,0,1-.7-.36.81.81,0,0,1-.08-.59H10a4.89,4.89,0,0,1-.64-.14,1.47,1.47,0,0,1-.29.05.76.76,0,0,1-1,.46.39.39,0,0,1-.32-.42.36.36,0,0,1,.22-.36l0,0,.12-.08,0-.07v0H8c-.17,0-.23-.11-.26-.26l-.57-.27a2.2,2.2,0,0,1-.65.19.23.23,0,0,1-.23-.2l-.09-.05A.37.37,0,0,1,6,24.17a.19.19,0,0,1,0-.07,2.72,2.72,0,0,1-.51-.71L5.3,23.1l0-.1a1.43,1.43,0,0,1-.41,0,.23.23,0,0,1-.18-.27.23.23,0,0,1,.27-.18h0a1.92,1.92,0,0,1-.81-1.21A3.07,3.07,0,0,0,4,21a6.89,6.89,0,0,1,.39-4.95A2.8,2.8,0,0,0,4.68,15a2.57,2.57,0,0,1,.53-1.48,13.08,13.08,0,0,0,1-1.66c.12-.23.24-.46.37-.69l0-.17a3.78,3.78,0,0,1,.21-.8A3.35,3.35,0,0,1,7,9.83l0,0-.08-.07-.14-.08c-.3-.15-.51-.27-.57-.45a.46.46,0,0,1,0-.38.81.81,0,0,1,.5-.33l.06,0a3.18,3.18,0,0,1,.53-.14A.89.89,0,0,1,7.51,8l.13-.12a.56.56,0,0,1-.15-.27.48.48,0,0,1,.09-.37A.76.76,0,0,1,8.13,7h.14l0-.05.15-.28c.05-.08.09-.16.13-.24a1.31,1.31,0,0,1,.51-.56,1,1,0,0,1,.64-.12h.07l.18,0,0,0a2.43,2.43,0,0,1,.2-.25l.17-.21a1.3,1.3,0,0,1,.6-.46,1,1,0,0,1,.64,0l.07,0A1.63,1.63,0,0,1,12.1,5a1.42,1.42,0,0,0,.25.12l.09,0h.07L12.65,5a1.35,1.35,0,0,1,1.27-.32H14A13.11,13.11,0,0,1,17.18,4h.11a14.18,14.18,0,0,1,2.06,0,9.53,9.53,0,0,1,1.48.32l.46.13a3.77,3.77,0,0,1,2,1.4,3.18,3.18,0,0,1,1,1,1.84,1.84,0,0,0,.25.17,2.48,2.48,0,0,1,1.19,1.32c.07.26.14.51.2.76a2.13,2.13,0,0,1,.66,1.26,18.93,18.93,0,0,1,0,3.45l0,.25c.05.83.09,1.67.08,2.51v.1c0,.8,0,1.63-.07,2.45,0,.06,0,.11,0,.16a.78.78,0,0,1,.48.39c.23.58,0,.87-.58.86Zm-3.77-1.91a.05.05,0,0,1,0,0l-.16.41c0,.08,0,.18-.05.28a8,8,0,0,0,0,1.38.11.11,0,0,1,0,.05c.12.74.31.79.32.8l.23,0a2.8,2.8,0,0,0,1.25-.14l.55-.2c0-.1.07-.2.09-.3.09-.29.16-.58.23-.88L25,20c-.08-.09-.34-.4-.05-.65a.44.44,0,0,1,.37-.08l.12-.63,0-.1c.27-1.41.45-2.86.61-4.27l0-.18c0-.61-.08-1.21-.12-1.81l0-.52a13.45,13.45,0,0,0-.43-2.43l-.14-.14a4.85,4.85,0,0,1-.75-.89c-.1-.17-.19-.32-.27-.48s-.25-.43-.38-.63a3.68,3.68,0,0,1-.6-.51L23,6.26l0,0-.14-.07-.44-.22a8.35,8.35,0,0,0-1.3-.56A12.57,12.57,0,0,0,19.16,5h-.1A12.34,12.34,0,0,0,15.79,5c-.39,0-.79.09-1.18.12a4,4,0,0,1-.6,0H14l-.78.24c.2.08.41.17.62.24h.05c.41.14.81.26,1.21.37L15.11,6a.85.85,0,0,1,.25-.17.29.29,0,0,1,.29-.12l.26.06.34.06.09,0,.22,0a1.47,1.47,0,0,1,.47,0l.17,0,.33.07a1.76,1.76,0,0,1,.59.31c.25.17.41.88.42,1a2.05,2.05,0,0,1-.45,1.19l0,.06a3.66,3.66,0,0,1-.38.83l0,.07c-.26.38-.41.6-.44.66a1.77,1.77,0,0,1-.16.22l.12.06.49.16.14,0,.24.07.32.09c.23.11.46.23.68.36l.09.05a1.69,1.69,0,0,1,.57.42,4.53,4.53,0,0,1,.64,1,4.2,4.2,0,0,1,.32.9,1.68,1.68,0,0,1,0,.74l0,.13,0,.22a3.71,3.71,0,0,1-.15.66c0,.14-.08.29-.11.44a2.32,2.32,0,0,1-.34.94l-.21.27a3.17,3.17,0,0,1-.37.58A1.75,1.75,0,0,1,18,18h-.26l-.45-.07a5.61,5.61,0,0,1-.89-.25l-.28-.09A2,2,0,0,1,15.09,17a3.68,3.68,0,0,1-.89-2.84,3.37,3.37,0,0,0,.06-.36,3.32,3.32,0,0,1,.22-.89l0-.08c.13-.27.27-.55.42-.83,0-.1.07-.19.08-.22a1.77,1.77,0,0,1,.31-.49,1.66,1.66,0,0,0,.16-.21l.33-.47-.23-.13a2.36,2.36,0,0,1-.79-.36,1.36,1.36,0,0,1-.4-.63l-.12-.22a2.68,2.68,0,0,1-.44-1,5.93,5.93,0,0,1,0-.73.28.28,0,0,1,.32-.23h0a.19.19,0,0,1,.09,0,1.43,1.43,0,0,1,.32-.77l.12-.13-1-.31,0,0c-.28-.09-.54-.2-.8-.31l-.38-.15a2.79,2.79,0,0,1-.7.08h-.25a.63.63,0,0,0-.33.27h.06c.27,0,.54.11.82.15h0A14.43,14.43,0,0,0,14,6.27a.22.22,0,0,1,.24.2h0v0a.23.23,0,0,1-.23.23h0a12.45,12.45,0,0,1-1.93-.15H12c-.3,0-.58-.1-.86-.16l-.41-.08a1.22,1.22,0,0,1-.24.1v0a.56.56,0,0,1,.16.25.4.4,0,0,1-.28.46.44.44,0,0,1-.43,0l-.16.18-.33.33v.1a.51.51,0,0,1-.12.4A.44.44,0,0,1,9,8.28H9a.57.57,0,0,1-.25.11,4.32,4.32,0,0,0-.45.5,1,1,0,0,0-.1.17h0a.48.48,0,0,1,0,.42.35.35,0,0,1-.19.12,3,3,0,0,1-.38.76,8,8,0,0,0-.58.93,2.57,2.57,0,0,1-.2.65,13.4,13.4,0,0,0-.65,1.84,14.15,14.15,0,0,1-.67,1.89A2.09,2.09,0,0,0,5.26,17a3.34,3.34,0,0,1-.08,1.3,6.45,6.45,0,0,0,.25,4.07l.16.1a2.31,2.31,0,0,1,.74-.09l.09,0,.07.09c.09.13,0,.3,0,.57v.08l.21.16.16.08.08,0a.82.82,0,0,1,.37.29l.28.06a5.15,5.15,0,0,1,1.19.49,3.45,3.45,0,0,1,1.43-.06l.22-.16a.81.81,0,0,1,.59-.23h0c.35.06.43.42.48.65a.68.68,0,0,0,.08.24.28.28,0,0,0,.1.09l.47.05h.1l0,0a.84.84,0,0,1,.54-.35h0c.32,0,.47.27.57.48.39,0,.78.09,1.16.16a.21.21,0,0,1,.16.11c.62-.05,1.25-.11,1.87-.12a.23.23,0,0,1,.24.22h0a.24.24,0,0,1-.23.24h0l-.77,0a4.62,4.62,0,0,1,.6.19l.38.13a3.74,3.74,0,0,0,.81.1l.34,0A7.3,7.3,0,0,0,19.25,26l.13,0a11.19,11.19,0,0,0,4.23-2l.14-.09c.11-.2.22-.4.31-.61.16-.39.33-.8.49-1.23a3.67,3.67,0,0,1-1.51.14l-.33,0h-.05c-.62-.17-.79-.91-.87-1.28a1.59,1.59,0,0,1-1.21,1h-.16a1.1,1.1,0,0,1-.87-1.08,1.93,1.93,0,0,1,0-.24l-.18.18a8.35,8.35,0,0,1-.88.69,1.76,1.76,0,0,1-.58.25.84.84,0,0,1-.73-.15,1.9,1.9,0,0,1-.55-1.69,2.85,2.85,0,0,1-.44-.41l0,0h0c-.5-.52-.7-.56-.73-.56h0a.18.18,0,0,0-.09.08,1.7,1.7,0,0,0-.19.7v0l.06.18a.65.65,0,0,0,0,.13c.26.89.36,1.49.16,1.8a.37.37,0,0,1-.34.19.44.44,0,0,1-.35-.17,1.81,1.81,0,0,1-.28-1.11v-.11c0-.31,0-.63,0-1l-.13-.36c0,.09,0,.18,0,.27v.15c0,.34-.06.81-.1,1.16s-.1,1-.56,1.25l-.15.06a.52.52,0,0,1-.49-.11,3,3,0,0,1-.71-1.7,15.55,15.55,0,0,1-.21-1.67v0a1.9,1.9,0,0,1-.91.14,2.69,2.69,0,0,1,.16.45,12.62,12.62,0,0,1,.35,1.62,2.19,2.19,0,0,1-.13,1.47.52.52,0,0,1-.47.24c-.36,0-.67-.4-.92-.7a2,2,0,0,1-.22-.29,8.27,8.27,0,0,1,.12,1.4q0,.63-.33.78a.37.37,0,0,1-.18.05c-.42,0-.9-.8-1-1a6.64,6.64,0,0,1-.68-1.6,9.9,9.9,0,0,1-.27-1.73,2,2,0,0,1-1.73-.13.5.5,0,0,1-.16-.29c0-.11,0-.09.09-.17l.06-.06c.14-.12.28-.07.43.07h.29a4.14,4.14,0,0,0,1-.28s0-.11,0-.18v0c.1-.38.33-.57.62-.54a.82.82,0,0,1,.67.56.48.48,0,0,1-.24.62L8.6,19l-.27.14A8,8,0,0,0,8.54,21a5.79,5.79,0,0,0,.53,1.32,2.71,2.71,0,0,0,.28.41,1.09,1.09,0,0,0,0-.18,27.18,27.18,0,0,0-.42-2.85.32.32,0,0,1,.12-.35l.08,0a.39.39,0,0,1,.43.17,2.32,2.32,0,0,1,.22.41v0a1.24,1.24,0,0,0,.1.2l.15.25a7.71,7.71,0,0,0,.49.77h0a2.19,2.19,0,0,0,.42.44l0,0s.11-.21,0-.89a13,13,0,0,0-.37-1.52,5.32,5.32,0,0,0-.26-.61l0-.06-.14-.3a.37.37,0,0,1,.05-.39.35.35,0,0,1,.39-.07,1.42,1.42,0,0,0,1.16,0l.35-.17.07,0h0a.43.43,0,0,1,.35,0,.43.43,0,0,1,.2.33c0,.13,0,.27,0,.41v0a1.34,1.34,0,0,0,0,.2c0,.54.07,1.07.14,1.61a3.24,3.24,0,0,0,.32,1.1h0c.14-.07.2-.28.24-.73s.05-.8.06-1.12V19.3a1.49,1.49,0,0,1,.28-1l.06-.05.12-.05a.5.5,0,0,1,.34,0,.66.66,0,0,1,.29.23l.05-.06a.68.68,0,0,1,.63-.3,2.06,2.06,0,0,1,1.29.82l.06.07.11.12a1.15,1.15,0,0,1,.54-.57,1.4,1.4,0,0,1,1.15-.06.94.94,0,0,1,.52.46c.19.41-.36.79-.78,1a1.73,1.73,0,0,1-.95.13,1.13,1.13,0,0,0,.24.92.28.28,0,0,0,.2,0,1.46,1.46,0,0,0,.36-.16,6.53,6.53,0,0,0,.77-.62l.22-.24a2.73,2.73,0,0,1,.44-.39l.05,0,.06,0,.16-.09A1.5,1.5,0,0,1,21,18.84a1.36,1.36,0,0,1,.68.21.5.5,0,0,1,0-.13l0-.11c0-.17,0-.34,0-.52a5.49,5.49,0,0,1,0-.81l0-.16c.07-.54.15-1.3.85-1.14l.13,0h0a1,1,0,0,1,.38.28c.23.35,0,.83-.53,2.11ZM21,19.74h-.26a1.64,1.64,0,0,0-.38.1,1.83,1.83,0,0,0-.16.86c0,.36.09.43.27.49s.55-.33.73-.77c0-.09.12-.35.24-.66l-.44,0Zm-3.46-.37h0a1.38,1.38,0,0,0,.71-.36.54.54,0,0,0-.25,0,.7.7,0,0,0-.29.09.71.71,0,0,0-.31.31h.1ZM6.25,19.32a1.22,1.22,0,0,0,.57.05,1.54,1.54,0,0,1-.57-.05Zm4.8,5.23c0-.09-.06-.29-.11-.3a1.82,1.82,0,0,0-.23.15,1.18,1.18,0,0,1-.39.23l.78.1a1.21,1.21,0,0,1,0-.18Zm-2.84.14v0l-.05,0v0Zm-1.86-.9.18-.06,0,0-.17,0-.11,0h0a1.7,1.7,0,0,0,.19.19Zm2.33,1.07a1.06,1.06,0,0,1,.42.22h.28A1.31,1.31,0,0,0,9,24.87l-.32-.08,0,0a0,0,0,0,0,0,0ZM6,23.32l0,0,0,.09a.09.09,0,0,0,0-.05ZM7.92,8.49,8,8.32l.07-.1,0,0L8,8.12a1,1,0,0,0-.15.13.31.31,0,0,0-.09.11.65.65,0,0,1,.16.13ZM9.46,7l.28-.32a1.45,1.45,0,0,0-.45.22h0l0,0,0,.07a.64.64,0,0,1,.1.13L9.46,7Zm5.86-.49,0,0L15,6.92a.87.87,0,0,0-.17.51,1,1,0,0,1,0,.18c.07.31.16.62.26.93a1.58,1.58,0,0,1,.13.26,1.59,1.59,0,0,0,.15.29,2.31,2.31,0,0,1,.18.35,2.11,2.11,0,0,0,.18.33.57.57,0,0,0,.14.13l.38.11.58-.81L17,8.93l.45-.57.09-.15h0a1.91,1.91,0,0,0,0-.89l0-.11a.3.3,0,0,0,0-.1l0-.09-.06-.11a1.06,1.06,0,0,0-.19-.23,1.4,1.4,0,0,0-.76-.32h0a2.91,2.91,0,0,1-.59-.1h0a.22.22,0,0,1,0,.14.24.24,0,0,1-.27.18l-.21,0Zm.74,9.74a10.55,10.55,0,0,0,1.34,1,1.67,1.67,0,0,0,.62.12,1.38,1.38,0,0,0,.79-.41.81.81,0,0,0,.11-.13,1.54,1.54,0,0,1,.28-.29s0,0,.05-.05a5.11,5.11,0,0,0,.36-1.21l.06-.27a2.91,2.91,0,0,0,.1-.77,5,5,0,0,0-.19-.87l-.06-.19a2.17,2.17,0,0,0-.45-.74l-.24-.32a1.84,1.84,0,0,0-.54-.57,4.3,4.3,0,0,0-.76-.34L17,11c-.08,0-.28-.11-.46-.17l-.11.12a10.07,10.07,0,0,0-.7.81c-.1.14-.18.28-.27.42s-.18.51-.21.64a6.37,6.37,0,0,0-.2,1.74,1.13,1.13,0,0,1,0,.18l0,.13a9,9,0,0,0,1,1.42Zm-.39.41a4,4,0,0,1-.53-.69,3.6,3.6,0,0,0,.39.57.93.93,0,0,0,.18.16l-.05,0ZM25,8a3.71,3.71,0,0,0,.23.32,1.27,1.27,0,0,0-.32-.47L25,8Zm.37,13a1.56,1.56,0,0,0,.4-.27.59.59,0,0,0,0-.37l-.15,0,0,0c0,.24-.12.48-.18.71ZM26,19.72c0-.21.05-.42.07-.64.06-.67.07-1.33.07-2-.07.51-.16,1-.26,1.54l0,.11c0,.24-.09.49-.14.73l0,0a1.54,1.54,0,0,1,.26.25ZM19.29,4.47c-.32,0-.65,0-1,0a7.38,7.38,0,0,1,.81.07l.1,0c.45.07.92.14,1.38.24a7.38,7.38,0,0,0-1.32-.28Zm-8.55,1h0a1.31,1.31,0,0,1,.71-.24l.1,0h-.06a.56.56,0,0,0-.36,0,.78.78,0,0,0-.39.3ZM9,6.54H9a1.39,1.39,0,0,1,.81-.4H9.7a.59.59,0,0,0-.37,0A.88.88,0,0,0,9,6.54Zm-1,1,.22-.09V7.38H8.2A.71.71,0,0,0,8,7.45l.08.1ZM7.26,9.42l.08-.11-.06-.12a1.08,1.08,0,0,1,0-.4l-.35.1-.07,0a.88.88,0,0,0-.22.1A1.2,1.2,0,0,0,7,9.22a1.07,1.07,0,0,1,.21.13l.08.07ZM5.15,15c0,.1,0,.21,0,.31a12.21,12.21,0,0,0,.58-1.67l0-.05-.13.18A2.12,2.12,0,0,0,5.14,15ZM4.71,21.6a7.19,7.19,0,0,1,0-3.45A2.74,2.74,0,0,0,4.8,17a3.52,3.52,0,0,1,0-.65,6.28,6.28,0,0,0-.34,4.51,3.18,3.18,0,0,1,.11.33,3.6,3.6,0,0,0,.14.4Zm3.91,4.08h0l-.2.11h0a.25.25,0,0,0,.24-.1Zm2.05-.34a2.5,2.5,0,0,1,.38-.15c-.39,0-.79-.09-1.18-.16a.5.5,0,0,1,0,.12,7.44,7.44,0,0,1,.78.2Zm.79.75a1,1,0,0,0-.43-.17l-.33,0,0,0a.26.26,0,0,0,0,.29c.05.11.23.11.3.12a.65.65,0,0,0,.49-.21s0,0,0-.05Zm6.15.4h0a4.09,4.09,0,0,1-.93-.13l-.41-.13A3,3,0,0,0,15.15,26h-.49a3.56,3.56,0,0,0,.72.23l.32.09a7.15,7.15,0,0,0,1.29.18h.13a3.84,3.84,0,0,0,.48,0Zm8.06-4.84-.53.18c-.2.57-.41,1.1-.63,1.61,0,0,0,0,0,0h0a1,1,0,0,0,.55-.38,5.14,5.14,0,0,0,.61-1.45Z"/></g></g></g></svg>